<?xml version="1.0" encoding="UTF-8"?>
<svg width="128px" height="128px" viewBox="0 0 128 128" version="1.1" xmlns="http://www.w3.org/2000/svg" xmlns:xlink="http://www.w3.org/1999/xlink">
    <!-- Generator: Sketch 61.2 (89653) - https://sketch.com -->
    <title>Graphic elements / Flat icons / Colleague / Black</title>
    <desc>Created with Sketch.</desc>
    <g id="Graphic-elements-/-Flat-icons-/-Colleague-/-Black" stroke="none" stroke-width="1" fill="none" fill-rule="evenodd">
        <g id="Group" transform="translate(4.000000, 28.000000)" fill="unset">
            <path d="M97.4193548,26.5076774 L97.4193548,16.9747742 C97.4193548,7.59929032 89.5903226,-6.4516129e-05 80.2864516,-6.4516129e-05 L80,-6.4516129e-05 L79.7122581,-6.4516129e-05 C70.4083871,-6.4516129e-05 62.5806452,7.59929032 62.5806452,16.9747742 L62.5806452,26.5076774 C62.5806452,32.6012258 65.9193548,37.9302581 70.7051613,40.9238065 L40,51.6128387 L40,72.258 L120,72.258 L120,51.6128387 L89.2948387,40.9238065 C94.0806452,37.9302581 97.4193548,32.6012258 97.4193548,26.5076774" id="Fill-1"></path>
            <path d="M56.7741935,38.8967742 L34.9316129,31.3109677 C38.3277419,29.1870968 40.6451613,25.4051613 40.6451613,21.0806452 L40.6451613,14.3148387 C40.6451613,7.66193548 35.1941935,2.58064516 28.5916129,2.58064516 L28.3870968,2.58064516 L28.1825806,2.58064516 C21.58,2.58064516 16.1290323,7.66193548 16.1290323,14.3148387 L16.1290323,21.0806452 C16.1290323,25.4051613 18.4464516,29.1870968 21.8425806,31.3109677 L0,38.8967742 L0,53.5483871 L18.3006452,53.5483871 L56.7741935,40.256129 L56.7741935,38.8967742 Z" id="Fill-4"></path>
        </g>
    </g>
</svg>