<?xml version="1.0" encoding="UTF-8"?>
<svg width="128px" height="128px" viewBox="0 0 128 128" version="1.1" xmlns="http://www.w3.org/2000/svg" xmlns:xlink="http://www.w3.org/1999/xlink">
    <!-- Generator: Sketch 61.2 (89653) - https://sketch.com -->
    <title>Graphic elements / Flat icons / Expertise / Black</title>
    <desc>Created with Sketch.</desc>
    <g id="Graphic-elements-/-Flat-icons-/-Expertise-/-Black" stroke="none" stroke-width="1" fill="none" fill-rule="evenodd">
        <path d="M35.6150455,97.396936 L4,97.396936 L4,108.178821 C12.2667698,108.178821 19.6789683,108.178821 26.2365956,108.178821 C28.3215514,108.178821 31.4489853,108.178821 35.6188969,108.178821 C37.9913708,115.902873 45.2127804,121.575756 53.839958,121.575756 C62.4594326,121.575756 69.6808423,115.902873 72.0571676,108.178821 L124,108.178821 L124,97.396936 L72.0571676,97.396936 C69.6846937,89.6766678 62.463284,84 53.839958,84 C45.2127804,84 37.9913708,89.6766678 35.6150455,97.396936 Z" id="Fill-4" fill="unset" fill-rule="nonzero"></path>
        <path d="M74.9189274,56.6213513 L4,56.6213513 L4,67.2102321 L74.9189274,67.2102321 C77.2951846,74.7923018 84.5163875,80.3636363 93.1433182,80.3636363 C101.762546,80.3636363 108.983749,74.7923018 111.360006,67.2102321 L124,67.2102321 L124,56.6213513 L111.360006,56.6213513 C108.983749,49.0355648 101.762546,44 93.1433182,44 C84.5163875,44 77.2951846,49.0355648 74.9189274,56.6213513 Z" id="Fill-6" fill="unset" fill-rule="nonzero"></path>
        <path d="M41.3123795,16.9647772 C38.9380254,9.49354966 31.7226055,4 23.106432,4 C12.5699948,4 4,12.1560901 4,22.179987 C4,32.2075463 12.5699948,40.3636364 23.106432,40.3636364 C31.7226055,40.3636364 38.9380254,34.8737491 41.3123795,27.3988592 L124,27.3988592 L124,16.9647772 L41.3123795,16.9647772 Z" id="Fill-1" fill="unset" fill-rule="nonzero"></path>
    </g>
</svg>