<?xml version="1.0" encoding="UTF-8"?>
<svg width="128px" height="128px" viewBox="0 0 128 128" version="1.1" xmlns="http://www.w3.org/2000/svg" xmlns:xlink="http://www.w3.org/1999/xlink">
    <!-- Generator: Sketch 61.2 (89653) - https://sketch.com -->
    <title>Graphic elements / Flat icons / Knowledge Base / Black</title>
    <desc>Created with Sketch.</desc>
    <g id="Graphic-elements-/-Flat-icons-/-Knowledge-Base-/-Black" stroke="none" stroke-width="1" fill="none" fill-rule="evenodd">
        <g id="New" transform="translate(4.000000, 4.000000)" fill="unset">
            <g id="Group-4" transform="translate(14.000000, 60.000000) scale(-1, 1) translate(-14.000000, -60.000000) translate(0.000000, 14.000000)">
                <polygon id="Fill-13-4" points="14 51 28 51 28 41 14 41"></polygon>
                <polygon id="Fill-13-6" transform="translate(8.568542, 8.485281) scale(1, -1) rotate(45.000000) translate(-8.568542, -8.485281) " points="1.56854249 13.4852814 15.5685425 13.4852814 15.5685425 3.48528137 1.56854249 3.48528137"></polygon>
                <polygon id="Fill-13-7" transform="translate(8.622366, 83.485281) rotate(45.000000) translate(-8.622366, -83.485281) " points="1.62236636 88.4852814 15.6223664 88.4852814 15.6223664 78.4852814 1.62236636 78.4852814"></polygon>
            </g>
            <g id="Group-4" transform="translate(92.000000, 14.000000)">
                <polygon id="Fill-13-4" points="14 51 28 51 28 41 14 41"></polygon>
                <polygon id="Fill-13-6" transform="translate(8.568542, 8.485281) scale(1, -1) rotate(45.000000) translate(-8.568542, -8.485281) " points="1.56854249 13.4852814 15.5685425 13.4852814 15.5685425 3.48528137 1.56854249 3.48528137"></polygon>
                <polygon id="Fill-13-7" transform="translate(8.622366, 83.485281) rotate(45.000000) translate(-8.622366, -83.485281) " points="1.62236636 88.4852814 15.6223664 88.4852814 15.6223664 78.4852814 1.62236636 78.4852814"></polygon>
            </g>
            <polygon id="Fill-13-3" transform="translate(60.000000, 7.000000) rotate(90.000000) translate(-60.000000, -7.000000) " points="53 11 67 11 67 3 53 3"></polygon>
            <path d="M60.3396648,83.5307263 C46.1533274,83.5307263 34.652514,72.1249609 34.652514,58.0558659 C34.652514,43.9867709 46.1533274,32.5810056 60.3396648,32.5810056 C74.5260022,32.5810056 86.0268156,43.9867709 86.0268156,58.0558659 C86.0268156,72.1249609 74.5260022,83.5307263 60.3396648,83.5307263 M60.3396648,24 C41.4047196,24 26,39.2774078 26,58.0558659 C26,71.8669944 34.3377788,83.7758212 46.2793296,89.113743 L46.2793296,109.555307 C48.7874771,110.995307 51.5400581,112.060961 54.4592,112.679866 C54.4191821,112.969475 54.3910615,113.263374 54.3910615,113.564246 C54.3910615,117.118391 57.2966838,120 60.8804469,120 C64.4642101,120 67.3698324,117.118391 67.3698324,113.564246 C67.3698324,113.179709 67.3298145,112.804827 67.2643799,112.438525 C70.2170503,111.695196 72.9836916,110.489028 75.4815642,108.902615 L75.4815642,88.6122905 C86.8428559,83.0523352 94.6793296,71.4470615 94.6793296,58.0558659 C94.6793296,39.2774078 79.2746101,24 60.3396648,24 Z" id="Fill-11"></path>
        </g>
    </g>
</svg>