<?xml version="1.0" encoding="UTF-8"?>
<svg width="128px" height="128px" viewBox="0 0 128 128" version="1.1" xmlns="http://www.w3.org/2000/svg" xmlns:xlink="http://www.w3.org/1999/xlink">
    <!-- Generator: Sketch 61.2 (89653) - https://sketch.com -->
    <title>Graphic elements / Flat icons / Link / Black</title>
    <desc>Created with Sketch.</desc>
    <g id="Graphic-elements-/-Flat-icons-/-Link-/-Black" stroke="none" stroke-width="1" fill="none" fill-rule="evenodd">
        <g id="icomoon-free:link" transform="translate(4.000000, 4.000000)" fill="unset" fill-rule="nonzero">
            <g id="Icon">
                <path d="M51.5925,74.5050102 C49.9746642,74.5079693 48.4224709,73.8654963 47.28,72.72 C36.1346222,61.5437731 36.1346222,43.4562269 47.28,32.28 L69.78,9.78 C75.18,4.38 82.365,1.4025 90,1.4025 C97.635,1.4025 104.82,4.38 110.22,9.78 C121.365378,20.9562269 121.365378,39.0437731 110.22,50.22 L99.9375,60.5025 C97.534513,62.7372633 93.7938565,62.6694437 91.4734564,60.3490436 C89.1530563,58.0286435 89.0852367,54.287987 91.32,51.885 L101.6025,41.6025 C106.279462,36.9040224 107.673355,29.8545517 105.136495,23.7296838 C102.599636,17.6048159 96.6294362,13.6054796 90,13.59 C85.62,13.59 81.495,15.3 78.3975,18.3975 L55.8975,40.8975 C49.4987612,47.3091691 49.4987612,57.6908309 55.8975,64.1025 C57.6367896,65.8471032 58.1554191,68.4669153 57.2120032,70.7425986 C56.2685872,73.018282 54.048486,74.5027155 51.585,74.5050102 L51.5925,74.5050102 Z" id="Icon-Path"></path>
                <path d="M30,118.59759 C22.4118227,118.61663 15.1311699,115.600128 9.78,110.22 C-1.36537775,99.0437731 -1.36537775,80.9562269 9.78,69.78 L20.0625,59.4975 C22.465487,57.2627367 26.2061435,57.3305563 28.5265436,59.6509564 C30.8469437,61.9713565 30.9147633,65.712013 28.68,68.115 L18.3975,78.3975 C13.7205382,83.0959776 12.326645,90.1454483 14.8635046,96.2703162 C17.4003642,102.395184 23.3705638,106.39452 30,106.41 C34.3875,106.41 38.505,104.7 41.6025,101.6025 L64.1025,79.1025 C70.5012388,72.6908309 70.5012388,62.3091691 64.1025,55.8975 C61.8677367,53.494513 61.9355563,49.7538565 64.2559564,47.4334564 C66.5763565,45.1130563 70.317013,45.0452367 72.72,47.28 C83.8653778,58.4562269 83.8653778,76.5437731 72.72,87.72 L50.22,110.22 C44.8688301,115.600128 37.5881773,118.61663 30,118.59759 Z" id="Icon-Path"></path>
            </g>
        </g>
    </g>
</svg>