<?xml version="1.0" encoding="UTF-8"?>
<svg width="128px" height="128px" viewBox="0 0 128 128" version="1.1" xmlns="http://www.w3.org/2000/svg" xmlns:xlink="http://www.w3.org/1999/xlink">
    <!-- Generator: Sketch 61.2 (89653) - https://sketch.com -->
    <title>Graphic elements / Flat icons / Live / Black</title>
    <desc>Created with Sketch.</desc>
    <g id="Graphic-elements-/-Flat-icons-/-Live-/-Black" stroke="none" stroke-width="1" fill="none" fill-rule="evenodd">
        <circle id="Oval" fill="unset" cx="63.5041322" cy="61.6528926" r="14.8760331"></circle>
        <path d="M40.4838622,37.0145964 L47.2558093,44.259917 C42.4661977,48.7365989 39.7024793,54.9675306 39.7024793,61.6528926 C39.7024793,68.3715803 42.4940667,74.6308607 47.3256396,79.1108762 L40.5825751,86.3830849 C33.7475696,80.0454115 29.785124,71.1608398 29.785124,61.6528926 C29.785124,52.1922034 33.7081058,43.3476582 40.4838622,37.0145964 Z M86.5516095,86.265731 L79.7717021,79.0278589 C84.5497399,74.5521436 87.3057851,68.329049 87.3057851,61.6528926 C87.3057851,54.9712938 84.5452049,48.7435657 79.7603256,44.2672765 L86.5355278,37.0249997 C93.3046025,43.357518 97.2231405,52.1975399 97.2231405,61.6528926 C97.2231405,71.1005278 93.3110245,79.934007 86.5516095,86.265731 Z" id="Shape" fill="unset" fill-rule="nonzero"></path>
        <path d="M20.1020267,20.9463854 L27.3344541,27.7321007 C18.7657485,36.8648948 13.9173554,48.8724767 13.9173554,61.6528926 C13.9173554,74.2325027 18.6136254,86.0657019 26.9421335,95.1506643 L19.6317648,101.852339 C9.64247105,90.9557468 4,76.7384033 4,61.6528926 C4,46.3263239 9.82507486,31.8998818 20.1020267,20.9463854 Z M107.464037,101.756643 L100.139159,95.0708301 C108.422882,85.9953058 113.090909,74.1948593 113.090909,61.6528926 C113.090909,48.9842661 108.327508,37.073694 99.8927883,27.9670039 L107.168718,21.227955 C117.285209,32.1503985 123.008264,46.4605223 123.008264,61.6528926 C123.008264,76.6932147 117.399697,90.8712815 107.464037,101.756643 Z" id="Shape" fill="unset" fill-rule="nonzero"></path>
    </g>
</svg>