<?xml version="1.0" encoding="UTF-8"?>
<svg width="128px" height="128px" viewBox="0 0 128 128" version="1.1" xmlns="http://www.w3.org/2000/svg" xmlns:xlink="http://www.w3.org/1999/xlink">
    <!-- Generator: Sketch 61.2 (89653) - https://sketch.com -->
    <title>Graphic elements / Flat icons / Lock closed / Black</title>
    <desc>Created with Sketch.</desc>
    <g id="Graphic-elements-/-Flat-icons-/-Lock-closed-/-Black" stroke="none" stroke-width="1" fill="none" fill-rule="evenodd">
        <path d="M88.959,53.495 L38.676,53.495 L38.676,40.618 C38.676,26.755 49.954,15.477 63.817,15.477 C77.681,15.477 88.959,26.755 88.959,40.618 L88.959,53.495 Z M75.412,110.883 L52.224,110.883 L58.498,92.757 C54.773,90.828 52.224,86.946 52.224,82.463 C52.224,76.059 57.414,70.869 63.817,70.869 C70.221,70.869 75.412,76.059 75.412,82.463 C75.412,86.946 72.861,90.828 69.137,92.757 L75.412,110.883 Z M100.437,53.495 L100.437,40.618 C100.437,20.427 84.01,4 63.817,4 C43.625,4 27.198,20.427 27.198,40.618 L27.198,53.495 L19,53.495 L19,124 L108.634,124 L108.634,53.495 L100.437,53.495 Z" id="Fill-1" fill="unset"></path>
    </g>
</svg>