<?xml version="1.0" encoding="UTF-8"?>
<svg width="128px" height="128px" viewBox="0 0 128 128" version="1.1" xmlns="http://www.w3.org/2000/svg" xmlns:xlink="http://www.w3.org/1999/xlink">
    <title>Graphic elements / Icons / Flat icons / Marketplace / marketplace-it-infra-cloud</title>
    <g id="Graphic-elements-/-Icons-/-Flat-icons-/-Marketplace-/-marketplace-it-infra-cloud" stroke="none" stroke-width="1" fill-rule="evenodd">
        <g id="marketplace-it-infra-cloud" transform="translate(4.000000, 5.000000)" fill-rule="nonzero">
            <path d="M107.647059,77.6470588 C105.529412,77.6470588 103.529412,78.1764706 101.764706,79.1470588 L98.8235294,76.2058824 L98.8235294,70.3235294 C108.823529,68.6470588 116.470588,59.9117647 116.470588,49.4411765 C116.470588,40.3823529 110.676471,32.4117647 102.323529,29.4705882 C102.352941,29.0588235 102.352941,28.6764706 102.352941,28.2647059 C102.352941,12.7058824 89.6764706,0.0294117647 74.1176471,0.0294117647 C65.7058824,0.0294117647 58.1176471,3.5 52.8235294,9.64705882 C49.4411765,7.91176471 45.9117647,7.05882353 42.3529412,7.05882353 C29.8235294,7.05882353 19.4705882,16.4117647 17.8823529,28.5 C7.76470588,30.0882353 0,38.8529412 0,49.4117647 C0,61.0882353 9.5,70.5882353 21.1764706,70.5882353 L21.1764706,76.1764706 L18.2352941,79.1176471 C16.5,78.1764706 14.4705882,77.6176471 12.3529412,77.6176471 C5.52941176,77.6176471 0,83.1470588 0,89.9705882 C0,96.7941176 5.52941176,102.323529 12.3529412,102.323529 C19.1764706,102.323529 24.7058824,96.7941176 24.7058824,89.9705882 C24.7058824,87.8529412 24.1764706,85.8529412 23.2058824,84.0882353 L28.2352941,79.1176471 L28.2352941,70.5882353 L38.8235294,70.5882353 L38.8235294,76.1764706 L31.7647059,83.2352941 L31.7647059,94.0294118 C26.6764706,95.5588235 22.9411765,100.264706 22.9411765,105.852941 C22.9411765,112.676471 28.4705882,118.205882 35.2941176,118.205882 C42.1176471,118.205882 47.6470588,112.676471 47.6470588,105.852941 C47.6470588,100.264706 43.9117647,95.5294118 38.8235294,94.0294118 L38.8235294,86.1764706 L45.8823529,79.1176471 L45.8823529,70.5882353 L56.4705882,70.5882353 L56.4705882,78.1764706 C51.3823529,79.7058824 47.6470588,84.4117647 47.6470588,90 C47.6470588,96.8235294 53.1764706,102.352941 60,102.352941 C66.8235294,102.352941 72.3529412,96.8235294 72.3529412,90 C72.3529412,84.4117647 68.6176471,79.6764706 63.5294118,78.1764706 L63.5294118,70.5882353 L74.1176471,70.5882353 L74.1176471,79.1176471 L81.1764706,86.1764706 L81.1764706,94.0588235 C76.0882353,95.5882353 72.3529412,100.294118 72.3529412,105.882353 C72.3529412,112.705882 77.8823529,118.235294 84.7058824,118.235294 C91.5294118,118.235294 97.0588235,112.705882 97.0588235,105.882353 C97.0588235,100.294118 93.3235294,95.5588235 88.2352941,94.0588235 L88.2352941,83.2352941 L81.1764706,76.1764706 L81.1764706,70.5882353 L91.7647059,70.5882353 L91.7647059,79.1176471 L96.7941176,84.1470588 C95.8529412,85.8823529 95.2941176,87.9117647 95.2941176,90.0294118 C95.2941176,96.8529412 100.823529,102.382353 107.647059,102.382353 C114.470588,102.382353 120,96.8529412 120,90.0294118 C120,83.2058824 114.470588,77.6470588 107.647059,77.6470588 Z M12.3529412,95.2941176 C9.44117647,95.2941176 7.05882353,92.9117647 7.05882353,90 C7.05882353,87.0882353 9.44117647,84.7058824 12.3529412,84.7058824 C15.2647059,84.7058824 17.6470588,87.0882353 17.6470588,90 C17.6470588,92.9117647 15.2647059,95.2941176 12.3529412,95.2941176 Z M40.5882353,105.882353 C40.5882353,108.794118 38.2058824,111.176471 35.2941176,111.176471 C32.3823529,111.176471 30,108.794118 30,105.882353 C30,102.970588 32.3823529,100.588235 35.2941176,100.588235 C38.2058824,100.588235 40.5882353,102.970588 40.5882353,105.882353 Z M65.2941176,90 C65.2941176,92.9117647 62.9117647,95.2941176 60,95.2941176 C57.0882353,95.2941176 54.7058824,92.9117647 54.7058824,90 C54.7058824,87.0882353 57.0882353,84.7058824 60,84.7058824 C62.9117647,84.7058824 65.2941176,87.0882353 65.2941176,90 Z M90,105.882353 C90,108.794118 87.6176471,111.176471 84.7058824,111.176471 C81.7941176,111.176471 79.4117647,108.794118 79.4117647,105.882353 C79.4117647,102.970588 81.7941176,100.588235 84.7058824,100.588235 C87.6176471,100.588235 90,102.970588 90,105.882353 Z M7.05882353,49.4117647 C7.05882353,41.6176471 13.3823529,35.2941176 21.1764706,35.2941176 C25.7058824,35.2941176 29.8529412,37.3823529 32.5294118,41.0294118 L38.2058824,36.8235294 C35,32.4705882 30.2352941,29.5588235 25,28.5882353 C26.5,20.3823529 33.7058824,14.1176471 42.3529412,14.1176471 C45.5294118,14.1176471 48.7352941,15.1470588 51.8235294,17.1764706 L54.7352941,19.0588235 L56.6764706,16.1764706 C60.6176471,10.3823529 66.9705882,7.05882353 74.1176471,7.05882353 C85.7941176,7.05882353 95.2941176,16.5588235 95.2941176,28.2352941 C95.2941176,33.8823529 93.0882353,39.2058824 89.0882353,43.2058824 L94.0882353,48.2058824 C97.4117647,44.8823529 99.7941176,40.9117647 101.117647,36.5588235 C106.058824,38.7941176 109.411765,43.7941176 109.411765,49.4117647 C109.411765,57.2058824 103.088235,63.5294118 95.2941176,63.5294118 L21.1764706,63.5294118 C13.3823529,63.5294118 7.05882353,57.2058824 7.05882353,49.4117647 Z M107.647059,95.2941176 C104.735294,95.2941176 102.352941,92.9117647 102.352941,90 C102.352941,87.0882353 104.735294,84.7058824 107.647059,84.7058824 C110.558824,84.7058824 112.941176,87.0882353 112.941176,90 C112.941176,92.9117647 110.558824,95.2941176 107.647059,95.2941176 Z" id="Shape"></path>
        </g>
    </g>
</svg>