<?xml version="1.0" encoding="UTF-8"?>
<svg width="128px" height="128px" viewBox="0 0 128 128" version="1.1" xmlns="http://www.w3.org/2000/svg" xmlns:xlink="http://www.w3.org/1999/xlink">
    <title>Graphic elements / Icons / Flat icons / Marketplace / marketplace-smart-city-traffic-management</title>
    <g id="Graphic-elements-/-Icons-/-Flat-icons-/-Marketplace-/-marketplace-smart-city-traffic-management" stroke="none" stroke-width="1" fill-rule="evenodd">
        <g id="marketplace-smart-city-traffic-management" transform="translate(4.000000, 9.000000)" fill-rule="nonzero">
            <path d="M19.7260274,4.10958904 L19.7260274,109.315068 L59.1780822,109.315068 L59.1780822,4.10958904 L19.7260274,4.10958904 Z M39.4520548,102.739726 C32.1917808,102.739726 26.3013699,96.8493151 26.3013699,89.5890411 C26.3013699,82.3287671 32.1917808,76.4383562 39.4520548,76.4383562 C46.7123288,76.4383562 52.6027397,82.3287671 52.6027397,89.5890411 C52.6027397,96.8493151 46.7123288,102.739726 39.4520548,102.739726 Z M39.4520548,69.8630137 C32.1917808,69.8630137 26.3013699,63.9726027 26.3013699,56.7123288 C26.3013699,49.4520548 32.1917808,43.5616438 39.4520548,43.5616438 C46.7123288,43.5616438 52.6027397,49.4520548 52.6027397,56.7123288 C52.6027397,63.9726027 46.7123288,69.8630137 39.4520548,69.8630137 Z M39.4520548,36.9863014 C32.1917808,36.9863014 26.3013699,31.0958904 26.3013699,23.8356164 C26.3013699,16.5753425 32.1917808,10.6849315 39.4520548,10.6849315 C46.7123288,10.6849315 52.6027397,16.5753425 52.6027397,23.8356164 C52.6027397,31.0958904 46.7123288,36.9863014 39.4520548,36.9863014 Z M0,43.5616438 L16.4383562,43.5616438 L16.4383562,63.0136986 C7.12328767,61.4520548 0,53.3424658 0,43.5616438 Z M16.4383562,30.1369863 L16.4383562,10.6849315 L0,10.6849315 C0,20.4657534 7.12328767,28.5753425 16.4383562,30.1369863 Z M16.4383562,76.4383562 L0,76.4383562 C0,86.2191781 7.12328767,94.3287671 16.4383562,95.890411 L16.4383562,76.4383562 Z M62.4657534,63.0136986 L62.4657534,43.5616438 L78.9041096,43.5616438 C78.9041096,53.3424658 71.7808219,61.4520548 62.4657534,63.0136986 Z M78.9041096,10.6849315 L62.4657534,10.6849315 L62.4657534,30.1369863 C71.7808219,28.5753425 78.9041096,20.4657534 78.9041096,10.6849315 Z M62.4657534,95.890411 C71.7808219,94.3287671 78.9041096,86.2191781 78.9041096,76.4383562 L62.4657534,76.4383562 L62.4657534,95.890411 Z" id="Shape"></path>
            <path d="M49.3150685,23.8356164 C49.3150685,29.2876712 44.9041096,33.6986301 39.4520548,33.6986301 C34,33.6986301 29.5890411,29.2876712 29.5890411,23.8356164 C29.5890411,18.3835616 34,13.9726027 39.4520548,13.9726027 C44.9041096,13.9726027 49.3150685,18.3835616 49.3150685,23.8356164 Z M39.4520548,46.8493151 C34,46.8493151 29.5890411,51.260274 29.5890411,56.7123288 C29.5890411,62.1643836 34,66.5753425 39.4520548,66.5753425 C44.9041096,66.5753425 49.3150685,62.1643836 49.3150685,56.7123288 C49.3150685,51.260274 44.9041096,46.8493151 39.4520548,46.8493151 Z M39.4520548,79.7260274 C34,79.7260274 29.5890411,84.1369863 29.5890411,89.5890411 C29.5890411,95.0410959 34,99.4520548 39.4520548,99.4520548 C44.9041096,99.4520548 49.3150685,95.0410959 49.3150685,89.5890411 C49.3150685,84.1369863 44.9041096,79.7260274 39.4520548,79.7260274 Z" id="Shape" opacity="0.65"></path>
            <path d="M88.7671233,35.0958904 C88.7671233,46.9041096 93.5890411,57.6164384 101.369863,65.369863 L96.7123288,70.0273973 C87.7260274,61.0958904 82.1917808,48.739726 82.1917808,35.0958904 C82.1917808,21.4520548 87.7534247,9.12328767 96.7123288,0.164383562 L101.369863,4.82191781 C93.5890411,12.5479452 88.7671233,23.260274 88.7671233,35.0958904 Z M119.972603,23.3972603 L115.315068,18.739726 C111.09589,22.9041096 108.493151,28.6849315 108.493151,35.0684932 C108.493151,41.4520548 111.09589,47.2328767 115.315068,51.3972603 L119.972603,46.739726 C116.958904,43.7534247 115.068493,39.6164384 115.068493,35.0410959 C115.068493,30.4657534 116.931507,26.3835616 119.972603,23.3972603 Z M110.657534,14.109589 L106,9.45205479 C99.3972603,16 95.3150685,25.0684932 95.3150685,35.0684932 C95.3150685,45.0684932 99.3972603,54.1369863 106,60.6849315 L110.657534,56.0273973 C105.260274,50.7123288 101.917808,43.2876712 101.917808,35.0958904 C101.917808,26.8767123 105.260274,19.4794521 110.657534,14.109589 Z" id="Shape" opacity="0.65"></path>
        </g>
    </g>
</svg>