<?xml version="1.0" encoding="UTF-8"?>
<svg width="128px" height="128px" viewBox="0 0 128 128" version="1.1" xmlns="http://www.w3.org/2000/svg" xmlns:xlink="http://www.w3.org/1999/xlink">
    <title>Graphic elements / Icons / Flat icons / Marketplace / marketplace-analytics-vehicle-tracking</title>
    <g id="Graphic-elements-/-Icons-/-Flat-icons-/-Marketplace-/-marketplace-analytics-vehicle-tracking" stroke="none" stroke-width="1" fill-rule="evenodd">
        <g id="marketplace-analytics-vehicle-tracking" transform="translate(4.000000, 4.000000)" fill-rule="nonzero">
            <path d="M113.684211,50.5263158 L107.368421,50.5263158 L107.368421,12.6315789 L69.4736842,12.6315789 L69.4736842,6.31578947 L113.684211,6.31578947 L113.684211,50.5263158 Z M12.6315789,12.6315789 L50.5263158,12.6315789 L50.5263158,6.31578947 L6.31578947,6.31578947 L6.31578947,50.5263158 L12.6315789,50.5263158 L12.6315789,12.6315789 Z M50.5263158,107.368421 L12.6315789,107.368421 L12.6315789,69.4210526 L6.31578947,69.4210526 L6.31578947,113.684211 L50.5263158,113.684211 L50.5263158,107.368421 Z M113.684211,69.4210526 L107.368421,69.4210526 L107.368421,107.368421 L69.4736842,107.368421 L69.4736842,113.684211 L113.684211,113.684211 L113.684211,69.4210526 Z M22.1052632,63.1578947 L0,63.1578947 L0,56.8421053 L22.1052632,56.8421053 L22.1052632,63.1578947 Z M120,56.8421053 L97.8947368,56.8421053 L97.8947368,63.1578947 L120,63.1578947 L120,56.8421053 Z M63.1578947,0 L56.8421053,0 L56.8421053,22.1052632 L63.1578947,22.1052632 L63.1578947,0 Z M63.1578947,97.8947368 L56.8421053,97.8947368 L56.8421053,120 L63.1578947,120 L63.1578947,97.8947368 Z" id="Shape" opacity="0.65"></path>
            <path d="M77.5789474,34.7368421 L42.4210526,34.7368421 L31.0526316,53.6842105 L28.4210526,56.8421053 L28.4210526,75.7894737 L31.5789474,75.7894737 L31.5789474,82.1052632 L41.0526316,82.1052632 L41.0526316,75.7894737 L78.9473684,75.7894737 L78.9473684,82.1052632 L88.4210526,82.1052632 L88.4210526,75.7894737 L91.5789474,75.7894737 L91.5789474,56.8421053 L88.9473684,53.6842105 L77.5789474,34.7368421 Z M41.0526316,66.3157895 L34.7368421,66.3157895 L34.7368421,66.3157895 C33,66.3157895 31.5789474,64.8947368 31.5789474,63.1578947 C31.5789474,61.4210526 33,60 34.7368421,60 L34.7368421,60 L41.0526316,60 L41.0526316,66.3157895 Z M52.1052632,72.6052632 L48.9473684,72.6052632 L48.9473684,66.3421053 L52.1052632,66.3421053 L52.1052632,72.6052632 Z M58.4210526,72.6052632 L55.2631579,72.6052632 L55.2631579,66.3421053 L58.4210526,66.3421053 L58.4210526,72.6052632 Z M64.7105263,72.6052632 L61.5526316,72.6052632 L61.5526316,66.3421053 L64.7105263,66.3421053 L64.7105263,72.6052632 Z M71.0526316,72.6052632 L67.8947368,72.6052632 L67.8947368,66.3421053 L71.0526316,66.3421053 L71.0526316,72.6052632 Z M38.4210526,53.6842105 L46,41.0526316 L55.2894737,41.0526316 C55.2894737,41.0526316 55.2894737,41.0526316 55.2894737,41.0526316 C55.2894737,42.7894737 56.7105263,44.2105263 58.4473684,44.2105263 L61.5263158,44.2105263 C63.2631579,44.2105263 64.6842105,42.7894737 64.6842105,41.0526316 C64.6842105,41.0526316 64.6842105,41.0526316 64.6842105,41.0526316 L73.9736842,41.0526316 L81.5526316,53.6842105 L38.4210526,53.6842105 Z M85.2631579,66.3157895 L78.9473684,66.3157895 L78.9473684,60 L85.2631579,60 C87,60 88.4210526,61.4210526 88.4210526,63.1578947 C88.4210526,64.8947368 87,66.3157895 85.2631579,66.3157895 Z M97.8947368,45.6842105 L97.8947368,52 L94.1052632,52 L92.5263158,53.0526316 L91.5263158,51.8421053 L89.0789474,47.7631579 L92.2105263,45.6842105 L97.8947368,45.6842105 L97.8947368,45.6842105 Z M28.4736842,51.8421053 L27.4736842,53.0526316 L25.8947368,52 L22.1052632,52 L22.1052632,45.6842105 L27.7894737,45.6842105 L30.9210526,47.7631579 L28.4736842,51.8421053 Z" id="Shape"></path>
        </g>
    </g>
</svg>