<?xml version="1.0" encoding="UTF-8"?>
<svg width="128px" height="128px" viewBox="0 0 128 128" version="1.1" xmlns="http://www.w3.org/2000/svg" xmlns:xlink="http://www.w3.org/1999/xlink">
    <title>Graphic elements / Icons / Flat icons / Marketplace / marketplace-analytics-lpr</title>
    <g id="Graphic-elements-/-Icons-/-Flat-icons-/-Marketplace-/-marketplace-analytics-lpr" stroke="none" stroke-width="1" fill-rule="evenodd">
        <g id="marketplace-analytics-lpr" transform="translate(4.000000, 23.000000)" fill-rule="nonzero">
            <path d="M6.55021834,22.0087336 L0.262008734,22.0087336 L0.262008734,0 L22.1659389,0 L22.1659389,6.28820961 L6.55021834,6.28820961 L6.55021834,22.0087336 Z M22.2183406,75.4585153 L6.49781659,75.4585153 L6.49781659,59.7379913 L0.209606987,59.7379913 L0.209606987,81.7467249 L22.2183406,81.7467249 L22.2183406,75.4585153 Z M119.737991,59.7641921 L113.449782,59.7641921 L113.449782,75.4847162 L97.7292576,75.4847162 L97.7292576,81.7729258 L119.737991,81.7729258 L119.737991,59.7641921 Z M119.790393,0.0262008734 L97.7030568,0.0262008734 L97.7030568,6.31441048 L113.502183,6.31441048 L113.502183,21.9825328 L119.790393,21.9825328 L119.790393,0.0262008734 Z" id="Shape" opacity="0.65"></path>
            <path d="M39.0655022,38.9868996 L36.8122271,38.9868996 L36.8122271,34.9519651 L38.8296943,34.9519651 C39.930131,34.9519651 40.7423581,35.1091703 41.2401747,35.3973799 C41.7379913,35.7117904 42,36.209607 42,36.8908297 C42,37.650655 41.7641921,38.1746725 41.2925764,38.489083 C40.8733624,38.8296943 40.1135371,38.9868996 39.0655022,38.9868996 Z M111.930131,26.7510917 L111.930131,54.9956332 C111.930131,55.8864629 111.222707,56.5938865 110.331878,56.5938865 L9.930131,56.5938865 C9.03930131,56.5938865 8.33187773,55.8864629 8.33187773,54.9956332 L8.33187773,26.7510917 C8.33187773,25.860262 9.03930131,25.1528384 9.930131,25.1528384 L110.331878,25.1528384 C111.196507,25.1528384 111.930131,25.860262 111.930131,26.7510917 Z M31.6768559,49.9650655 L25.231441,31.7030568 L20.5152838,31.7030568 L14.0960699,49.9650655 L18.2620087,49.9650655 L19.5720524,45.6419214 L26.2008734,45.6419214 L27.510917,49.9650655 L31.6768559,49.9650655 Z M46.4803493,44.69869 C46.4803493,43.5196507 46.2183406,42.6026201 45.720524,41.8951965 C45.2227074,41.1877729 44.3842795,40.7161572 43.231441,40.4541485 L43.231441,40.3231441 C44.069869,40.1921397 44.7510917,39.7729258 45.2751092,39.0655022 C45.7729258,38.3580786 46.0349345,37.4672489 46.0349345,36.3930131 C46.0349345,34.7947598 45.4585153,33.6157205 44.279476,32.8820961 C43.1004367,32.1484716 41.2401747,31.7816594 38.6724891,31.7816594 L33.0131004,31.7816594 L33.0131004,49.9650655 L39.8253275,49.9650655 C41.8951965,49.9650655 43.5196507,49.4934498 44.69869,48.5764192 C45.8777293,47.6593886 46.4803493,46.349345 46.4803493,44.69869 Z M52.5327511,40.9257642 C52.5327511,38.9868996 52.9257642,37.4672489 53.7379913,36.3668122 C54.5240175,35.2663755 55.650655,34.7423581 57.1179039,34.7423581 C57.7729258,34.7423581 58.4541485,34.8733624 59.1353712,35.1091703 C59.8165939,35.3449782 60.4978166,35.6331878 61.1790393,35.9475983 L62.4366812,32.8034934 C60.6550218,31.9388646 58.8733624,31.5196507 57.1179039,31.5196507 C55.3886463,31.5196507 53.8689956,31.8864629 52.5851528,32.6462882 C51.30131,33.4061135 50.3056769,34.5065502 49.6244541,35.9213974 C48.9432314,37.3362445 48.6026201,39.0131004 48.6026201,40.8995633 C48.6026201,43.9126638 49.3100437,46.1921397 50.69869,47.8165939 C52.1135371,49.4148472 54.1310044,50.2270742 56.7772926,50.2270742 C58.6113537,50.2270742 60.2882096,49.9126638 61.7816594,49.2838428 L61.7816594,46.0611354 C59.9737991,46.6899563 58.4279476,47.0043668 57.1441048,47.0043668 C54.0524017,47.0043668 52.5327511,44.9868996 52.5327511,40.9257642 Z M76.0087336,31.7816594 L72.8384279,31.7816594 L66.9694323,36.4454148 L68.8296943,38.7510917 L70.9257642,37.0742358 C71.1877729,36.8646288 71.6069869,36.4454148 72.2620087,35.8165939 L72.209607,37.7030568 L72.1834061,39.4323144 L72.1834061,49.9650655 L76.0349345,49.9650655 L76.0087336,31.7816594 L76.0087336,31.7816594 Z M91.5196507,46.7423581 L83.580786,46.7423581 L83.580786,46.558952 L85.9126638,44.3580786 C87.4847162,42.9432314 88.558952,41.8427948 89.1877729,41.0567686 C89.8165939,40.2707424 90.2620087,39.5371179 90.5502183,38.8034934 C90.8384279,38.069869 90.9956332,37.2838428 90.9956332,36.4454148 C90.9956332,35.4759825 90.7598253,34.6375546 90.2620087,33.8777293 C89.790393,33.1179039 89.1091703,32.5414847 88.2445415,32.1484716 C87.3799127,31.7292576 86.3842795,31.5196507 85.231441,31.5196507 C84.3668122,31.5196507 83.580786,31.5982533 82.8995633,31.7816594 C82.1921397,31.9388646 81.5633188,32.2008734 80.9606987,32.5152838 C80.3842795,32.8296943 79.6244541,33.3799127 78.7336245,34.139738 L80.8296943,36.6026201 C81.5633188,36 82.2445415,35.5545852 82.8995633,35.2139738 C83.5545852,34.8995633 84.2358079,34.7161572 84.9432314,34.7161572 C85.6244541,34.7161572 86.1484716,34.8995633 86.5414847,35.2401747 C86.9344978,35.580786 87.1441048,36.1310044 87.1441048,36.8646288 C87.1441048,37.3624454 87.0393013,37.8340611 86.8820961,38.279476 C86.69869,38.7248908 86.4104803,39.2227074 85.9912664,39.7729258 C85.5720524,40.2969432 84.6812227,41.2663755 83.3449782,42.6550218 L78.7860262,47.2663755 L78.7860262,49.9388646 L91.4934498,49.9388646 L91.5196507,46.7423581 L91.5196507,46.7423581 Z M106.113537,44.6724891 C106.113537,43.4672489 105.746725,42.5240175 104.9869,41.8165939 C104.227074,41.1091703 103.126638,40.6637555 101.659389,40.4803493 L101.659389,40.4017467 C102.917031,40.1135371 103.860262,39.5633188 104.567686,38.7510917 C105.248908,37.9650655 105.58952,36.9956332 105.58952,35.8427948 C105.58952,34.4803493 105.039301,33.4323144 103.965066,32.6724891 C102.864629,31.9126638 101.39738,31.5196507 99.510917,31.5196507 C97.2052402,31.5196507 95.2401747,32.1222707 93.5895197,33.30131 L95.371179,35.9475983 C96.1310044,35.4497817 96.8122271,35.1091703 97.441048,34.9257642 C98.069869,34.7161572 98.6724891,34.6375546 99.2751092,34.6375546 C101.004367,34.6375546 101.868996,35.3187773 101.868996,36.7074236 C101.868996,37.5982533 101.554585,38.2270742 100.899563,38.5938865 C100.244541,38.9606987 99.2227074,39.1441048 97.8078603,39.1441048 L96.3930131,39.1441048 L96.3930131,42.0786026 L97.7816594,42.0786026 C99.30131,42.0786026 100.427948,42.2620087 101.10917,42.6026201 C101.816594,42.9694323 102.157205,43.5720524 102.157205,44.4104803 C102.157205,45.3537118 101.842795,46.0611354 101.240175,46.4803493 C100.637555,46.8995633 99.6943231,47.1353712 98.4366812,47.1353712 C97.5982533,47.1353712 96.7598253,47.0305677 95.9213974,46.7947598 C95.0829694,46.558952 94.2969432,46.2707424 93.5895197,45.930131 L93.5895197,49.2052402 C95.1091703,49.860262 96.8646288,50.2008734 98.8296943,50.2008734 C101.187773,50.2008734 102.995633,49.7030568 104.253275,48.7336245 C105.484716,47.790393 106.113537,46.4279476 106.113537,44.6724891 Z M22.8995633,34.5327511 C22.6375546,35.6069869 21.8515284,38.2270742 20.5414847,42.3930131 L25.2838428,42.3930131 C24.0524017,38.4628821 23.371179,36.2620087 23.2139738,35.7379913 C23.0567686,35.2401747 22.9519651,34.8209607 22.8995633,34.5327511 Z M39.2227074,42.0524017 L36.8384279,42.0524017 L36.8384279,46.7947598 L39.3537118,46.7947598 C40.4279476,46.7947598 41.1877729,46.5851528 41.7117904,46.1921397 C42.209607,45.7991266 42.4716157,45.1703057 42.4716157,44.3318777 C42.4716157,42.8122271 41.371179,42.0524017 39.2227074,42.0524017 Z" id="Shape"></path>
        </g>
    </g>
</svg>