<?xml version="1.0" encoding="UTF-8"?>
<svg width="128px" height="128px" viewBox="0 0 128 128" version="1.1" xmlns="http://www.w3.org/2000/svg" xmlns:xlink="http://www.w3.org/1999/xlink">
    <title>Graphic elements / Icons / Flat icons / Marketplace / marketplace-nvr-dvr-ruggedized</title>
    <g id="Graphic-elements-/-Icons-/-Flat-icons-/-Marketplace-/-marketplace-nvr-dvr-ruggedized" stroke="none" stroke-width="1" fill-rule="evenodd">
        <g id="marketplace-nvr-dvr-ruggedized" transform="translate(4.000000, 14.000000)" fill-rule="nonzero">
            <path d="M36.21875,61.875 L23.9375,63.46875 L30.34375,74.0625 L19.96875,80.84375 L25.875,84.6875 L12.15625,84.6875 L6.28125,80.84375 L20.1875,71.75 L11.5625,57.5 L28.0625,55.375 L26.9375,43.46875 L35.90625,58.65625 L36.21875,61.875 Z M48.125,49.84375 L51.09375,41.8125 L60,50.40625 L68.90625,41.78125 L71.875,49.8125 L76.78125,41.5 L71.9375,28.4375 L60,40 L48.0625,28.4375 L43.21875,41.53125 L48.125,49.84375 Z M108.4375,57.5 L91.9375,55.375 L93.0625,43.46875 L84.09375,58.65625 L83.78125,61.875 L96.0625,63.46875 L89.65625,74.0625 L100.03125,80.84375 L94.125,84.6875 L107.84375,84.6875 L113.71875,80.84375 L99.8125,71.75 L108.4375,57.5 Z" id="Shape" opacity="0.65"></path>
            <path d="M0,88.4375 L120,88.4375 L120,99.6875 L0,99.6875 L0,88.4375 Z M64.34375,84.6875 L111.96875,4.09375 L105.5,0.28125 L60,77.3125 L26.53125,20.65625 L38.21875,23.65625 L40.09375,16.40625 L15.90625,10.1875 L9.71875,34.375 L16.96875,36.25 L20,24.40625 L55.625,84.6875 L64.34375,84.6875 Z" id="Shape"></path>
        </g>
    </g>
</svg>