<?xml version="1.0" encoding="UTF-8"?>
<svg width="128px" height="128px" viewBox="0 0 128 128" version="1.1" xmlns="http://www.w3.org/2000/svg" xmlns:xlink="http://www.w3.org/1999/xlink">
    <title>Graphic elements / Icons / Flat icons / Marketplace / marketplace-it-infra-server</title>
    <g id="Graphic-elements-/-Icons-/-Flat-icons-/-Marketplace-/-marketplace-it-infra-server" stroke="none" stroke-width="1" fill-rule="evenodd">
        <g id="marketplace-it-infra-server" transform="translate(4.000000, 8.000000)" fill-rule="nonzero">
            <path d="M108.75,79.0625 L11.25,79.0625 L11.25,41.5 L108.75,41.5 L108.75,79.0625 Z M18.75,71.5625 L101.25,71.5625 L101.25,49 L18.75,49 L18.75,71.5625 Z M108.75,37.84375 L11.25,37.84375 L11.25,0.28125 L108.75,0.28125 L108.75,37.84375 Z M18.75,30.34375 L101.25,30.34375 L101.25,7.78125 L18.75,7.78125 L18.75,30.34375 Z" id="Shape"></path>
            <path d="M86.25,52.75 C90.40625,52.75 93.78125,56.125 93.78125,60.28125 C93.78125,64.4375 90.40625,67.8125 86.25,67.8125 C82.09375,67.8125 78.71875,64.4375 78.71875,60.28125 C78.71875,56.125 82.09375,52.75 86.25,52.75 Z M26.25,56.5625 L33.78125,56.5625 L33.78125,64.09375 L26.25,64.09375 L26.25,56.5625 Z M41.21875,56.5625 L48.75,56.5625 L48.75,64.09375 L41.21875,64.09375 L41.21875,56.5625 Z M86.25,11.53125 C90.40625,11.53125 93.78125,14.90625 93.78125,19.0625 C93.78125,23.21875 90.40625,26.59375 86.25,26.59375 C82.09375,26.59375 78.71875,23.21875 78.71875,19.0625 C78.71875,14.90625 82.09375,11.53125 86.25,11.53125 Z M26.25,15.34375 L33.78125,15.34375 L33.78125,22.90625 L26.25,22.90625 L26.25,15.34375 Z M41.21875,15.34375 L48.75,15.34375 L48.75,22.90625 L41.21875,22.90625 L41.21875,15.34375 Z M120,97.8125 L70.625,97.8125 C69.5,94.625 66.9375,92.0625 63.75,90.9375 L63.75,82.8125 L56.25,82.8125 L56.25,90.9375 C53.0625,92.0625 50.5,94.625 49.375,97.8125 L0,97.8125 L0,105.3125 L49.375,105.3125 C50.9375,109.6875 55.09375,112.8125 60,112.8125 C64.90625,112.8125 69.0625,109.6875 70.625,105.3125 L120,105.3125 L120,97.8125 Z M60,105.3125 C57.9375,105.3125 56.25,103.625 56.25,101.5625 C56.25,99.5 57.9375,97.8125 60,97.8125 C62.0625,97.8125 63.75,99.5 63.75,101.5625 C63.75,103.625 62.0625,105.3125 60,105.3125 Z" id="Shape" opacity="0.65"></path>
        </g>
    </g>
</svg>