<?xml version="1.0" encoding="UTF-8"?>
<svg width="128px" height="128px" viewBox="0 0 128 128" version="1.1" xmlns="http://www.w3.org/2000/svg" xmlns:xlink="http://www.w3.org/1999/xlink">
    <title>Graphic elements / Icons / Flat icons / Marketplace / marketplace-building-sys-perimeter-protection</title>
    <g id="Graphic-elements-/-Icons-/-Flat-icons-/-Marketplace-/-marketplace-building-sys-perimeter-protection" stroke="none" stroke-width="1" fill-rule="evenodd">
        <g id="marketplace-building-sys-perimeter-protection" transform="translate(6.000000, 4.000000)" fill-rule="nonzero">
            <path d="M116.571429,71.8285714 L0,71.8285714 L0,78.6857143 L4.08571429,78.6857143 L14.3714286,88.9714286 L3.42857143,99.8857143 L3.42857143,111.942857 L11.2857143,119.8 L27.1428571,119.8 L36.1714286,110.771429 L37.3714286,111.971429 L45.2,119.8 L61,119.8 L68.8571429,111.942857 L70.0571429,110.742857 L79.1142857,119.8 L94.9142857,119.8 L103.971429,110.742857 L113.028571,119.8 L113.057143,119.8 L113.057143,110.142857 L108.8,105.885714 L113.057143,101.628571 L113.057143,91.9428571 L103.942857,101.057143 L91.8285714,88.9428571 L102.085714,78.6857143 L105.828571,78.6857143 L113.057143,85.9142857 L113.057143,78.6857143 L116.485714,78.6857143 L116.485714,71.8285714 L116.571429,71.8285714 Z M58.6,78.6857143 L54.3714286,82.9142857 L53.1714286,84.1142857 L51.9428571,82.8857143 L47.7142857,78.6857143 L58.6,78.6857143 Z M13.7714286,78.6857143 L24.6285714,78.6857143 L19.2,84.1142857 L13.7714286,78.6857143 Z M19.2,118.057143 L17.9714286,116.828571 L7.08571429,105.942857 L19.2,93.8285714 L30.0857143,104.714286 L31.3142857,105.942857 L19.2,118.057143 Z M36.1714286,101.085714 L34.9428571,99.8571429 L24.0571429,88.9714286 L34.3428571,78.6857143 L38.0285714,78.6857143 L47.0571429,87.7142857 L48.2857143,88.9428571 L47.0857143,90.1428571 L36.1714286,101.085714 Z M64.0285714,107.114286 L53.1428571,118.028571 L42.2571429,107.142857 L41.0571429,105.942857 L51.9714286,95.0285714 L53.1714286,93.8285714 L54.3714286,95.0285714 L65.2571429,105.914286 L64.0285714,107.114286 Z M70.1142857,101.057143 L59.2285714,90.1714286 L58.0285714,88.9714286 L59.2285714,87.7714286 L68.3142857,78.7142857 L72,78.7142857 L82.2571429,88.9714286 L71.3428571,99.8857143 L70.1142857,101.057143 Z M99.2,105.914286 L88.2857143,116.828571 L87.0857143,118.028571 L74.9714286,105.914286 L76.1714286,104.714286 L87.0857143,93.8 L99.2,105.914286 Z M87.0857143,84.0857143 L81.6857143,78.6857143 L92.5142857,78.6857143 L87.0857143,84.0857143 Z" id="Shape" opacity="0.65"></path>
            <path d="M34.1714286,56.6285714 L34.1714286,68.4 L23.8857143,68.4 L23.8857143,55.9142857 C24.4571429,56.2857143 25.0571429,56.6285714 25.7142857,56.8857143 C26.9714286,57.4 28.2857143,57.6857143 29.6571429,57.6857143 C31.2571429,57.6857143 32.8,57.3142857 34.1714286,56.6285714 Z M91,28.2571429 L23.2285714,0.2 L12.7428571,25.5428571 L72.0285714,50.1142857 L91,28.2571429 Z M26.9428571,9.17142857 L79.5714286,30.9714286 L70.1142857,41.8857143 L21.7142857,21.8285714 L26.9428571,9.17142857 Z M65.8285714,58.6571429 L8.8,35.0571429 L11.4285714,28.7142857 L68.4571429,52.3428571 L65.8285714,58.6571429 Z M23.3428571,44.7714286 L36.0285714,50.0285714 C34.5714286,53.5142857 30.5714286,55.2 27.0571429,53.7428571 C23.5428571,52.2857143 21.8857143,48.2571429 23.3428571,44.7714286 Z" id="Shape"></path>
        </g>
    </g>
</svg>