<?xml version="1.0" encoding="UTF-8"?>
<svg width="128px" height="128px" viewBox="0 0 128 128" version="1.1" xmlns="http://www.w3.org/2000/svg" xmlns:xlink="http://www.w3.org/1999/xlink">
    <title>Graphic elements / Icons / Flat icons / Marketplace / marketplace-acs-visitor-management</title>
    <g id="Graphic-elements-/-Icons-/-Flat-icons-/-Marketplace-/-marketplace-acs-visitor-management" stroke="none" stroke-width="1" fill-rule="evenodd">
        <g id="marketplace-acs-visitor-management" transform="translate(4.000000, 19.000000)" fill-rule="nonzero">
            <path d="M71.6666667,10 L71.6666667,0 L48.3333333,0 L48.3333333,10 L0,10 L0,90 L120,90 L120,10 L71.6666667,10 Z M55,6.66666667 L65,6.66666667 L65,20 L55,20 L55,6.66666667 L55,6.66666667 Z M113.333333,83.3333333 L6.66666667,83.3333333 L6.66666667,16.6666667 L48.3333333,16.6666667 L48.3333333,26.6666667 L71.6666667,26.6666667 L71.6666667,16.6666667 L113.333333,16.6666667 L113.333333,83.3333333 Z" id="Shape" opacity="0.65"></path>
            <path d="M60,63.3333333 L103.333333,63.3333333 L103.333333,70 L60,70 L60,63.3333333 Z M60,56.6666667 L103.333333,56.6666667 L103.333333,50 L60,50 L60,56.6666667 Z M60,43.3333333 L103.333333,43.3333333 L103.333333,36.6666667 L60,36.6666667 L60,43.3333333 Z" id="Shape" opacity="0.65"></path>
            <path d="M20,38.3333333 C20,31.8888889 25.2222222,26.6666667 31.6666667,26.6666667 C38.1111111,26.6666667 43.3333333,31.8888889 43.3333333,38.3333333 C43.3333333,44.7777778 38.1111111,50 31.6666667,50 C25.2222222,50 20,44.7777778 20,38.3333333 Z M35.8333333,53.3333333 L27.5,53.3333333 C21.5277778,53.3333333 16.6666667,58.1944444 16.6666667,64.1666667 L16.6666667,73.3333333 L46.6666667,73.3333333 L46.6666667,64.1666667 C46.6666667,58.1944444 41.8333333,53.3333333 35.8333333,53.3333333 Z" id="Shape"></path>
        </g>
    </g>
</svg>