<?xml version="1.0" encoding="UTF-8"?>
<svg width="128px" height="128px" viewBox="0 0 128 128" version="1.1" xmlns="http://www.w3.org/2000/svg" xmlns:xlink="http://www.w3.org/1999/xlink">
    <title>Graphic elements / Icons / Flat icons / Marketplace / marketplace-analytics-sound-detection</title>
    <g id="Graphic-elements-/-Icons-/-Flat-icons-/-Marketplace-/-marketplace-analytics-sound-detection" stroke="none" stroke-width="1" fill-rule="evenodd">
        <g id="marketplace-analytics-sound-detection" transform="translate(4.000000, 4.000000)" fill-rule="nonzero">
            <path d="M7.05882353,24.7058824 L0,24.7058824 L0,0 L24.5882353,0 L24.5882353,7.05882353 L7.05882353,7.05882353 L7.05882353,24.7058824 Z M24.7058824,112.941176 L7.05882353,112.941176 L7.05882353,95.2941176 L0,95.2941176 L0,120 L24.7058824,120 L24.7058824,112.941176 Z M120,95.2941176 L112.941176,95.2941176 L112.941176,112.941176 L95.2941176,112.941176 L95.2941176,120 L120,120 L120,95.2941176 Z M120,0 L95.2058824,0 L95.2058824,7.05882353 L112.941176,7.05882353 L112.941176,24.6470588 L120,24.6470588 L120,0 Z" id="Shape" opacity="0.65"></path>
            <path d="M76.6764706,105.882353 C69.4117647,105.882353 63.5294118,99.9705882 63.5294118,92.7352941 C63.5294118,90.9705882 63.8823529,89.2352941 64.5588235,87.6176471 L71.0588235,90.3823529 C70.7352941,91.1176471 70.5882353,91.9411765 70.5882353,92.7647059 C70.5882353,96.1176471 73.3235294,98.8529412 76.6764706,98.8529412 C80.2058824,98.8529412 83.2941176,96 83.2941176,92.7647059 C83.2941176,82.3529412 88.3529412,77.3235294 92.8235294,72.8529412 C97.7058824,67.9705882 102.352941,63.3529412 102.352941,51.0588235 C102.352941,46.8823529 100.676471,42.9411765 97.6176471,39.9705882 C94.5588235,36.9705882 90.5588235,35.3529412 86.3235294,35.3529412 C77.6470588,35.3529412 70.5882353,42.4117647 70.5882353,51.0588235 L63.5294118,51.0588235 C63.5294118,38.5 73.7647059,28.2941176 86.3235294,28.2941176 C92.4117647,28.2941176 98.1764706,30.6470588 102.558824,34.9411765 C106.970588,39.2647059 109.411765,45 109.411765,51.0882353 C109.411765,66.3235294 103,72.7352941 97.8235294,77.8823529 C93.6470588,82.0588235 90.3529412,85.3235294 90.3529412,92.7941176 C90.3529412,99.8529412 84.0882353,105.882353 76.6764706,105.882353 Z M81.1764706,68.8235294 C81.1764706,62 75.6470588,56.4705882 68.8235294,56.4705882 L68.8235294,63.5294118 C71.7352941,63.5294118 74.1176471,65.9117647 74.1176471,68.8235294 C74.1176471,71.7352941 71.7352941,74.1176471 68.8235294,74.1176471 C68.0882353,74.1176471 67.3823529,73.9705882 66.7058824,73.6764706 L63.8823529,80.1470588 C65.4411765,80.8235294 67.1176471,81.1764706 68.8235294,81.1764706 C75.6470588,81.1764706 81.1764706,75.6470588 81.1764706,68.8235294 Z M98.8235294,51.2058824 C98.8235294,44.3823529 93.2647059,38.8235294 86.4411765,38.8235294 C79.6176471,38.8235294 74.0588235,44.3823529 74.0588235,51.2058824 L81.1176471,51.2058824 C81.1176471,48.2647059 83.5,45.8823529 86.4411765,45.8823529 C89.3823529,45.8823529 91.7647059,48.2647059 91.7647059,51.2058824 C91.7647059,55.0588235 90.7352941,58.2941176 88.4705882,61.6764706 L94.3235294,65.6176471 C97.3823529,61.0588235 98.8235294,56.4705882 98.8235294,51.2058824 Z" id="Shape" opacity="0.65"></path>
            <path d="M1.14705882,61.7058824 L0,61.0588235 L0,44.8823529 L1.14705882,44.2352941 C2.61764706,46.8235294 3.47058824,49.7941176 3.47058824,53 C3.47058824,56.2058824 2.64705882,59.1176471 1.14705882,61.7058824 Z M10.3529412,66.9411765 C12.7352941,62.8235294 14.0882353,58.0294118 14.0882353,52.9411765 C14.0882353,47.8529412 12.7352941,43.0588235 10.3529412,38.9411765 L4.23529412,42.4411765 C6,45.5294118 7.02941176,49.1176471 7.02941176,52.9411765 C7.02941176,56.7647059 6,60.3529412 4.23529412,63.4411765 L10.3529412,66.9411765 Z M22.6176471,31.9411765 C26.1764706,38.1470588 28.2058824,45.2941176 28.2058824,52.9411765 C28.2058824,60.5882353 26.1764706,67.7647059 22.6176471,73.9411765 L28.7352941,77.4411765 C32.8823529,70.2058824 35.2647059,61.8529412 35.2647059,52.9411765 C35.2647059,44.0294118 32.8823529,35.6470588 28.7352941,28.4411765 L22.6176471,31.9411765 Z M31.7941176,79.2058824 L37.9117647,82.7058824 C42.9411765,73.9411765 45.8235294,63.7647059 45.8235294,52.9411765 C45.8235294,42.1176471 42.9411765,31.9411765 37.9117647,23.1764706 L31.7941176,26.6764706 C36.2352941,34.4117647 38.7941176,43.3823529 38.7941176,52.9411765 C38.7941176,62.5 36.2352941,71.4705882 31.7941176,79.2058824 Z M41.0588235,21.3823529 C46.5,30.8823529 49.4117647,41.7058824 49.4117647,52.9411765 C49.4117647,64.1764706 46.5,75 41.0588235,84.5 L47.2058824,88 C53.2352941,77.4411765 56.4705882,65.4411765 56.4705882,52.9411765 C56.4705882,40.4411765 53.2352941,28.4411765 47.1764706,17.8823529 L41.0588235,21.3823529 Z M13.4117647,37.1764706 C16.0882353,41.8235294 17.5882353,47.2058824 17.5882353,52.9411765 C17.5882353,58.6764706 16.0588235,64.0588235 13.4117647,68.7058824 L19.5294118,72.2058824 C22.7941176,66.5294118 24.6470588,59.9411765 24.6470588,52.9411765 C24.6470588,45.9411765 22.7941176,39.3529412 19.5294118,33.6764706 L13.4117647,37.1764706 Z" id="Shape"></path>
        </g>
    </g>
</svg>