<?xml version="1.0" encoding="UTF-8"?>
<svg width="128px" height="128px" viewBox="0 0 128 128" version="1.1" xmlns="http://www.w3.org/2000/svg" xmlns:xlink="http://www.w3.org/1999/xlink">
    <title>Graphic elements / Icons / Flat icons / Marketplace / marketplace-analytics-video-summary</title>
    <g id="Graphic-elements-/-Icons-/-Flat-icons-/-Marketplace-/-marketplace-analytics-video-summary" stroke="none" stroke-width="1" fill-rule="evenodd">
        <g id="marketplace-analytics-video-summary" transform="translate(8.000000, 2.000000)" fill-rule="nonzero">
            <path d="M39.4029851,57.6716418 L39.4029851,75.2238806 L60.8955224,75.2238806 C60.8955224,77.761194 60.358209,80.1791045 59.4029851,82.3880597 L32.238806,82.3880597 L32.238806,60.8955224 C34.3283582,59.3432836 36.7462687,58.2089552 39.4029851,57.6716418 Z M21.4925373,51.2238806 L21.4925373,7.1641791 L89.5522388,7.1641791 L89.5522388,14.3283582 L96.7164179,14.3283582 L96.7164179,0 L14.3283582,0 L14.3283582,60.4776119 C16.1492537,56.9552239 18.5671642,53.8208955 21.4925373,51.2238806 Z M87.761194,53.2238806 L72.4179104,62.0895522 C70.238806,57.2238806 66.8656716,52.9850746 62.7164179,49.7313433 L62.7164179,38.7462687 C62.7164179,37.4626866 63.4029851,36.2985075 64.5074627,35.641791 C65.6119403,34.9850746 66.9850746,35.0149254 68.0895522,35.641791 L87.761194,47.0149254 C88.8656716,47.641791 89.5522388,48.8358209 89.5522388,50.119403 C89.5522388,51.4029851 88.8656716,52.5970149 87.761194,53.2238806 Z M78.8059701,50.119403 L69.880597,44.9552239 L69.880597,55.2537313 L78.8059701,50.119403 Z M32.238806,17.9104478 L32.238806,44.8358209 C34.5074627,44.0298507 36.9253731,43.4626866 39.4029851,43.1940299 L39.4029851,25.0746269 L107.462687,25.0746269 L107.462687,75.2238806 L75.2238806,75.2238806 C75.2238806,77.6716418 74.9552239,80.0597015 74.4179104,82.3880597 L114.626866,82.3880597 L114.626866,17.9104478 L32.238806,17.9104478 Z M14.119403,89.5522388 L7.1641791,89.5522388 L7.1641791,39.4029851 L10.7462687,39.4029851 L10.7462687,32.238806 L0,32.238806 L0,96.7164179 L18.9850746,96.7164179 C17.0447761,94.5671642 15.4029851,92.1492537 14.119403,89.5522388 Z M42.9850746,93.1343284 C47.0149254,93.1343284 50.7164179,91.7910448 53.7313433,89.5522388 L32.238806,89.5522388 C35.2537313,91.7910448 38.9552239,93.1343284 42.9850746,93.1343284 Z M75.2238806,89.5522388 L71.8507463,89.5522388 C71.641791,89.9701493 71.4328358,90.3880597 71.1940299,90.7761194 L77.1343284,96.7164179 L82.3880597,96.7164179 L82.3880597,85.9701493 L75.2238806,85.9701493 L75.2238806,89.5522388 Z" id="Shape"></path>
            <path d="M86.1791045,110.835821 L68.2686567,92.9253731 C67.7313433,92.3880597 67.0746269,91.9701493 66.4179104,91.7014925 C69.7014925,87.0447761 71.641791,81.3432836 71.641791,75.2238806 C71.641791,59.4328358 58.7761194,46.5671642 42.9850746,46.5671642 C27.1940299,46.5671642 14.3283582,59.4328358 14.3283582,75.2238806 C14.3283582,91.0149254 27.1940299,103.880597 42.9850746,103.880597 C49.1044776,103.880597 54.8059701,101.940299 59.4626866,98.6567164 C59.7313433,99.3432836 60.119403,99.9701493 60.6865672,100.507463 L78.5970149,118.41791 C79.641791,119.462687 81.0149254,120 82.3880597,120 C83.761194,120 85.1343284,119.462687 86.1791045,118.41791 C88.2985075,116.328358 88.2985075,112.925373 86.1791045,110.835821 Z M42.9850746,96.7164179 C31.1343284,96.7164179 21.4925373,87.0746269 21.4925373,75.2238806 C21.4925373,63.3731343 31.1343284,53.7313433 42.9850746,53.7313433 C54.8358209,53.7313433 64.4776119,63.3731343 64.4776119,75.2238806 C64.4776119,87.0746269 54.8358209,96.7164179 42.9850746,96.7164179 Z" id="Shape" opacity="0.65"></path>
        </g>
    </g>
</svg>