<?xml version="1.0" encoding="UTF-8"?>
<svg width="128px" height="128px" viewBox="0 0 128 128" version="1.1" xmlns="http://www.w3.org/2000/svg" xmlns:xlink="http://www.w3.org/1999/xlink">
    <title>Graphic elements / Icons / Flat icons / Marketplace / marketplace-it-infra-av</title>
    <g id="Graphic-elements-/-Icons-/-Flat-icons-/-Marketplace-/-marketplace-it-infra-av" stroke="none" stroke-width="1" fill-rule="evenodd">
        <g id="marketplace-it-infra-av" transform="translate(4.000000, 29.000000)" fill-rule="nonzero">
            <path d="M0.0262582057,18.8796499 L0.0262582057,9.45295405 L9.45295405,9.45295405 L9.45295405,18.8796499 L0.0262582057,18.8796499 Z M28.3588621,22.0568928 L28.3588621,6.30196937 L22.0568928,6.30196937 L22.0568928,22.0568928 L28.3588621,22.0568928 Z M18.9059081,22.0568928 L18.9059081,6.30196937 L12.6039387,6.30196937 L12.6039387,22.0568928 L18.9059081,22.0568928 Z M81.9256018,28.3588621 L44.1137856,28.3588621 L31.5098468,22.0568928 L31.5098468,6.30196937 L44.1137856,0 L81.9256018,0 L81.9256018,28.3588621 Z M119.737418,59.8424508 L119.737418,50.4157549 L110.284464,50.4157549 L110.284464,59.8424508 L119.737418,59.8424508 Z M97.6805252,63.0196937 L97.6805252,47.2647702 L91.3785558,47.2647702 L91.3785558,63.0196937 L97.6805252,63.0196937 Z M107.133479,63.0196937 L107.133479,47.2647702 L100.83151,47.2647702 L100.83151,63.0196937 L107.133479,63.0196937 Z M37.8118162,40.9628009 L75.6236324,40.9628009 L88.2275711,47.2647702 L88.2275711,63.0196937 L75.6236324,69.321663 L37.8118162,69.321663 L37.8118162,40.9628009 L37.8118162,40.9628009 Z" id="Shape"></path>
            <path d="M94.5295405,25.2078775 L85.0765864,25.2078775 L85.0765864,3.15098468 L94.5295405,3.15098468 L94.5295405,9.45295405 L108.682713,9.45295405 C111.308534,9.45295405 113.435449,11.5798687 113.435449,14.2056893 C113.435449,16.8315098 111.308534,18.9584245 108.682713,18.9584245 L94.5295405,18.9584245 L94.5295405,25.2078775 Z M25.2078775,66.1706783 L34.6608315,66.1706783 L34.6608315,44.1137856 L25.2078775,44.1137856 L25.2078775,50.4157549 L11.0547046,50.4157549 C8.42888403,50.4157549 6.30196937,52.5426696 6.30196937,55.1684902 C6.30196937,57.7943107 8.42888403,59.9212254 11.0547046,59.9212254 L25.2078775,59.9212254 C25.2078775,59.9212254 25.2078775,66.1706783 25.2078775,66.1706783 Z" id="Shape" opacity="0.65"></path>
        </g>
    </g>
</svg>