<?xml version="1.0" encoding="UTF-8"?>
<svg width="128px" height="128px" viewBox="0 0 128 128" version="1.1" xmlns="http://www.w3.org/2000/svg" xmlns:xlink="http://www.w3.org/1999/xlink">
    <!-- Generator: Sketch 61.2 (89653) - https://sketch.com -->
    <title>Graphic elements / Flat icons / No Access / Black</title>
    <desc>Created with Sketch.</desc>
    <g id="Graphic-elements-/-Flat-icons-/-No-Access-/-Black" stroke="none" stroke-width="1" fill="none" fill-rule="evenodd">
        <path d="M99.0017857,21.012933 L107.487067,29.4982143 L28.9982143,107.987067 L20.512933,99.5017857 L99.0017857,21.012933 Z M64,112 C90.509668,112 112,90.509668 112,64 C112,37.490332 90.509668,16 64,16 C37.490332,16 16,37.490332 16,64 C16,90.509668 37.490332,112 64,112 Z M64,124 C30.862915,124 4,97.137085 4,64 C4,30.862915 30.862915,4 64,4 C97.137085,4 124,30.862915 124,64 C124,97.137085 97.137085,124 64,124 Z" id="Oval-4" fill="unset" fill-rule="nonzero"></path>
    </g>
</svg>