<?xml version="1.0" encoding="UTF-8"?>
<svg width="128px" height="128px" viewBox="0 0 128 128" version="1.1" xmlns="http://www.w3.org/2000/svg" xmlns:xlink="http://www.w3.org/1999/xlink">
    <!-- Generator: Sketch 61.2 (89653) - https://sketch.com -->
    <title>Graphic elements / Flat icons / Number / 3 / Black</title>
    <desc>Created with Sketch.</desc>
    <g id="Graphic-elements-/-Flat-icons-/-Number-/-3-/-Black" stroke="none" stroke-width="1" fill="none" fill-rule="evenodd">
        <path d="M94.4710579,37.1536926 C94.4710579,43.2304584 92.6303134,48.3978496 88.9487691,52.6560213 C85.2672249,56.9141929 80.0998337,59.841642 73.4464405,61.4384564 L73.4464405,61.837658 C81.2974444,62.813489 87.2410532,65.1975858 91.2774451,68.99002 C95.313837,72.7824541 97.3320027,77.8944012 97.3320027,84.3260146 C97.3320027,93.6851211 93.938823,100.970477 87.1523619,106.182302 C80.3659009,111.394127 70.6742701,114 58.077179,114 C47.5204617,114 38.1614957,112.247966 30,108.743846 L30,91.245509 C33.7702562,93.152815 37.9174757,94.7052502 42.4417831,95.9028609 C46.9660905,97.1004717 51.4459747,97.6992681 55.8815702,97.6992681 C62.6680313,97.6992681 67.680179,96.5460306 70.9181637,94.239521 C74.1561484,91.9330113 75.7751164,88.2293446 75.7751164,83.1284098 C75.7751164,78.5597465 73.9121943,75.3218104 70.1862941,73.4145043 C66.4603939,71.5071983 60.5167851,70.5535595 52.3552894,70.5535595 L44.9700599,70.5535595 L44.9700599,54.7850965 L52.4883566,54.7850965 C60.0288689,54.7850965 65.5400136,53.7981913 69.0219561,51.8243513 C72.5038985,49.8505113 74.2448436,46.4684205 74.2448436,41.6779774 C74.2448436,34.3148889 69.6318935,30.6333999 60.405855,30.6333999 C57.2122262,30.6333999 53.9632013,31.1656633 50.6586826,32.2302063 C47.354164,33.2947492 43.6837638,35.1354937 39.6473719,37.752495 L30.1330672,23.5808383 C39.0042582,17.1935808 49.5829947,14 61.8695941,14 C71.9383959,14 79.8890815,16.0403433 85.7218896,20.1210912 C91.5546976,24.201839 94.4710579,29.879316 94.4710579,37.1536926 Z" id="3" fill="unset"></path>
    </g>
</svg>