<?xml version="1.0" encoding="UTF-8"?>
<svg width="128px" height="128px" viewBox="0 0 128 128" version="1.1" xmlns="http://www.w3.org/2000/svg" xmlns:xlink="http://www.w3.org/1999/xlink">
    <!-- Generator: Sketch 61.2 (89653) - https://sketch.com -->
    <title>Graphic elements / Flat icons / Observe / Black</title>
    <desc>Created with Sketch.</desc>
    <g id="Graphic-elements-/-Flat-icons-/-Observe-/-Black" stroke="none" stroke-width="1" fill="none" fill-rule="evenodd">
        <g id="Group-5" transform="translate(4.000000, 26.000000)" fill="unset">
            <path d="M59.9847931,67.9965517 C43.5965172,67.9965517 30.2641034,54.6641379 30.2641034,38.2758621 C30.2641034,21.8875862 43.5965172,8.55517241 59.9847931,8.55517241 C76.373069,8.55517241 89.7054828,21.8875862 89.7054828,38.2758621 C89.7054828,54.6641379 76.373069,67.9965517 59.9847931,67.9965517 M118.863931,34.8387931 C105.677897,16.8253448 83.2606552,0 59.9847931,0 C37.2261724,0 14.3227241,16.8253448 1.13668966,34.8387931 C-5.40382759,43.7715517 18.1746207,59.2081034 23.8099655,62.895 C33.6411724,69.3253448 48.0882414,76.0344828 59.9847931,76.0344828 C71.8813448,76.0344828 86.343931,69.3253448 96.1756552,62.895 C101.810483,59.2081034 125.404448,43.7715517 118.863931,34.8387931" id="Fill-1"></path>
            <path d="M59.9847931,20.8533103 C57.9747931,20.8533103 56.046,21.1983103 54.2491034,21.8241724 L59.9847931,38.276069 L43.3963448,32.9448621 C42.8568621,34.6253793 42.5620345,36.4155517 42.5620345,38.276069 C42.5620345,47.8977931 50.3625517,55.6983103 59.9847931,55.6983103 C69.6070345,55.6983103 77.4070345,47.8977931 77.4070345,38.276069 C77.4070345,28.6538276 69.6070345,20.8533103 59.9847931,20.8533103" id="Fill-3"></path>
        </g>
    </g>
</svg>