<?xml version="1.0" encoding="UTF-8"?>
<svg width="128px" height="128px" viewBox="0 0 128 128" version="1.1" xmlns="http://www.w3.org/2000/svg" xmlns:xlink="http://www.w3.org/1999/xlink">
    <!-- Generator: Sketch 61.2 (89653) - https://sketch.com -->
    <title>Graphic elements / Flat icons / Scroll / Black</title>
    <desc>Created with Sketch.</desc>
    <g id="Graphic-elements-/-Flat-icons-/-Scroll-/-Black" stroke="none" stroke-width="1" fill="none" fill-rule="evenodd">
        <path d="M64.0746269,83.5293848 C59.5298507,83.5293848 55.3376866,82.4215896 51.4981343,80.2059994 C47.6585821,77.9904091 44.6156716,74.9890572 42.369403,71.2019437 C40.1231343,67.4148301 39,63.2799204 39,58.7972146 L39,29.1186103 C39,24.6359045 40.1231343,20.5009948 42.369403,16.7138812 C44.6156716,12.9267677 47.6585821,9.92541577 51.4981343,7.70982553 C55.3376866,5.49423528 59.5298507,4.38644016 64.0746269,4.38644016 C68.619403,4.38644016 72.8115672,5.49423528 76.6511194,7.70982553 C80.4906716,9.92541577 83.5335821,12.9267677 85.7798507,16.7138812 C88.0261194,20.5009948 89.1492537,24.6359045 89.1492537,29.1186103 L89.1492537,58.7972146 C89.1492537,63.2799204 88.0261194,67.4148301 85.7798507,71.2019437 C83.5335821,74.9890572 80.4906716,77.9904091 76.6511194,80.2059994 C72.8115672,82.4215896 68.619403,83.5293848 64.0746269,83.5293848 Z M64.113806,19.2257423 C62.7294776,19.2257423 61.5410448,19.7152331 60.5485075,20.6942149 C59.5559701,21.6731966 59.0597015,22.8325171 59.0597015,24.1721763 C59.0597015,25.5118355 59.5559701,26.671156 60.5485075,27.6501377 C61.5410448,28.6291195 62.7294776,29.1186103 64.113806,29.1186103 C65.4981343,29.1186103 66.6735075,28.6291195 67.6399254,27.6501377 C68.6063433,26.671156 69.0895522,25.5118355 69.0895522,24.1721763 C69.0895522,22.8325171 68.6063433,21.6731966 67.6399254,20.6942149 C66.6735075,19.7152331 65.4981343,19.2257423 64.113806,19.2257423 Z" id="Icon-Shape" fill="unset" fill-rule="nonzero"></path>
        <g id="Graphic-elements-/-Flat-icons-/-Arrow-/-Down-/-Gray-10" transform="translate(44.000000, 84.000000)" fill="unset">
            <g id="Group" transform="translate(1.250000, 8.437500)">
                <polygon id="Rectangle-3-2" transform="translate(26.146489, 11.570748) rotate(135.000000) translate(-26.146489, -11.570748) " points="13.0174577 8.75141193 39.2755201 8.75141193 39.2755201 14.3900832 13.0174577 14.3900832"></polygon>
                <polygon id="Rectangle-3-3" transform="translate(11.566531, 11.569336) rotate(-135.000000) translate(-11.566531, -11.569336) " points="-1.5625 8.75 24.6955624 8.75 24.6955624 14.3886712 -1.5625 14.3886712"></polygon>
            </g>
        </g>
    </g>
</svg>