<?xml version="1.0" encoding="UTF-8"?>
<svg width="128px" height="128px" viewBox="0 0 128 128" version="1.1" xmlns="http://www.w3.org/2000/svg" xmlns:xlink="http://www.w3.org/1999/xlink">
    <!-- Generator: Sketch 61.2 (89653) - https://sketch.com -->
    <title>Graphic elements / Flat icons / Share / Black</title>
    <desc>Created with Sketch.</desc>
    <g id="Graphic-elements-/-Flat-icons-/-Share-/-Black" stroke="none" stroke-width="1" fill="none" fill-rule="evenodd">
        <path d="M46.2346667,65.2053333 L89.2306667,86.6973333 C92.912,83.58 97.6213333,81.6346667 102.824,81.6346667 C114.521333,81.6386667 124,91.1173333 124,102.812 C124,114.521333 114.521333,124 102.824,124 C91.1173333,124 81.648,114.521333 81.648,102.812 C81.648,102.390667 81.7413333,102.013333 81.7653333,101.605333 L38.7693333,80.1133333 C35.0773333,83.2186667 30.3786667,85.164 25.176,85.164 C13.48,85.164 4,75.6946667 4,64 C4,52.2933333 13.48,42.812 25.176,42.812 C30.3786667,42.812 35.0786667,44.7693333 38.7693333,47.8746667 L81.7653333,26.3826667 C81.7413333,25.972 81.648,25.5853333 81.648,25.164 C81.648,13.48 91.1173333,4 102.824,4 C114.521333,4 124,13.48 124,25.164 C124,36.8706667 114.521333,46.352 102.824,46.352 C97.6093333,46.352 92.908,44.3946667 89.2306667,41.2773333 L46.2346667,62.7813333 C46.2573333,63.192 46.352,63.5786667 46.352,64 C46.352,64.4106667 46.2586667,64.7973333 46.2346667,65.2053333 Z" id="Shape" fill="unset" fill-rule="nonzero"></path>
    </g>
</svg>