<?xml version="1.0" encoding="UTF-8"?>
<svg width="128px" height="128px" viewBox="0 0 128 128" version="1.1" xmlns="http://www.w3.org/2000/svg" xmlns:xlink="http://www.w3.org/1999/xlink">
    <!-- Generator: Sketch 61.2 (89653) - https://sketch.com -->
    <title>Graphic elements / Flat icons / Smart Wall / Black</title>
    <desc>Created with Sketch.</desc>
    <g id="Graphic-elements-/-Flat-icons-/-Smart-Wall-/-Black" stroke="none" stroke-width="1" fill="none" fill-rule="evenodd">
        <g id="Page-1" transform="translate(4.000000, 22.000000)" fill="unset">
            <polygon id="Fill-1" points="40.1652893 72.3942149 79.8347107 72.3942149 79.8347107 44.6256198 40.1652893 44.6256198"></polygon>
            <polygon id="Fill-2" points="40.1652893 40.1628099 79.8347107 40.1628099 79.8347107 12.3942149 40.1652893 12.3942149"></polygon>
            <polygon id="Fill-3" points="120.00005 0.000198347107 84.2975702 12.5223471 84.2975702 12.6334215 84.2975702 40.1630083 120.00005 40.1630083"></polygon>
            <polygon id="Fill-4" points="84.2975702 44.6256198 84.2975702 72.157686 84.2975702 72.2687603 120.00005 84.7909091 120.00005 44.6256198"></polygon>
            <polygon id="Fill-5" points="0 0.000198347107 0 40.1630083 35.7024793 40.1630083 35.7024793 12.6334215 35.7024793 12.5223471"></polygon>
            <polygon id="Fill-6" points="0 44.6256198 0 84.7909091 35.7024793 72.2687603 35.7024793 72.157686 35.7024793 44.6256198"></polygon>
        </g>
    </g>
</svg>