<svg xmlns="http://www.w3.org/2000/svg" xmlns:xlink="http://www.w3.org/1999/xlink" viewBox="0 0 128 128"><defs><style>.a{fill:#fff;}.b{mask:url(#a);}}</style><mask id="a" x="4" y="15" width="120" height="97.52" maskUnits="userSpaceOnUse"><polygon class="a" points="4 15 124 15 124 112.52 4 112.52 4 15"/></mask></defs><title>social-twitter</title><g ><path  d="M4,101.46a69.7,69.7,0,0,0,37.74,11.06c45.28,0,70-37.51,70-70,0-1.07,0-2.12-.06-3.18A50,50,0,0,0,124,26.54a49.36,49.36,0,0,1-14.14,3.88A24.67,24.67,0,0,0,120.68,16.8a49.12,49.12,0,0,1-15.63,6A24.64,24.64,0,0,0,63.1,45.23,69.93,69.93,0,0,1,12.35,19.51,24.64,24.64,0,0,0,20,52.37,24.37,24.37,0,0,1,8.82,49.29v.31A24.62,24.62,0,0,0,28.57,73.74a24.62,24.62,0,0,1-11.12.43,24.62,24.62,0,0,0,23,17.09A49.37,49.37,0,0,1,9.87,101.8,49.61,49.61,0,0,1,4,101.46"/></g></svg>