<?xml version="1.0" encoding="UTF-8"?>
<svg width="128px" height="128px" viewBox="0 0 128 128" version="1.1" xmlns="http://www.w3.org/2000/svg" xmlns:xlink="http://www.w3.org/1999/xlink">
    <!-- Generator: Sketch 61.2 (89653) - https://sketch.com -->
    <title>Graphic elements / Flat icons / Social / Instagram / Black</title>
    <desc>Created with Sketch.</desc>
    <g id="Graphic-elements-/-Flat-icons-/-Social-/-Instagram-/-Black" stroke="none" stroke-width="1" fill="none" fill-rule="evenodd">
        <path d="M96.04,24.76 L96.04,24.76 C93.1278718,24.76 90.5024906,26.5142237 89.3880674,29.2046793 C88.2736442,31.8951349 88.8896456,34.9919833 90.9488312,37.0511688 C93.0080167,39.1103544 96.1048651,39.7263558 98.7953207,38.6119326 C101.485776,37.4975094 103.24,34.8721282 103.24,31.96 C103.24,27.9835498 100.01645,24.76 96.04,24.76 L96.04,24.76 Z M123.64,39.28 C123.523314,34.3017894 122.590939,29.376418 120.88,24.7 C119.354391,20.6987956 116.979914,17.0756708 113.92,14.08 C110.948934,11.0045554 107.317361,8.64505891 103.3,7.18 C98.6359408,5.41696483 93.7050856,4.46326031 88.72,4.36 C82.36,4 80.32,4 64,4 C47.68,4 45.64,4 39.28,4.36 C34.2949144,4.46326031 29.3640592,5.41696483 24.7,7.18 C20.6900594,8.65989141 17.0616031,11.017363 14.08,14.08 C11.0045554,17.0510657 8.64505891,20.6826385 7.18,24.7 C5.41696483,29.3640592 4.46326031,34.2949144 4.36,39.28 C4,45.64 4,47.68 4,64 C4,80.32 4,82.36 4.36,88.72 C4.46326031,93.7050856 5.41696483,98.6359408 7.18,103.3 C8.64505891,107.317361 11.0045554,110.948934 14.08,113.92 C17.0616031,116.982637 20.6900594,119.340109 24.7,120.82 C29.3640592,122.583035 34.2949144,123.53674 39.28,123.64 C45.64,124 47.68,124 64,124 C80.32,124 82.36,124 88.72,123.64 C93.7050856,123.53674 98.6359408,122.583035 103.3,120.82 C107.317361,119.354941 110.948934,116.995445 113.92,113.92 C116.993453,110.935482 119.370021,107.309167 120.88,103.3 C122.590939,98.623582 123.523314,93.6982106 123.64,88.72 C123.64,82.36 124,80.32 124,64 C124,47.68 124,45.64 123.64,39.28 Z M112.84,88 C112.796316,91.8086269 112.10652,95.5822141 110.8,99.16 C109.842003,101.771162 108.303276,104.130543 106.3,106.06 C104.353884,108.043038 101.999358,109.578599 99.4,110.56 C95.8222141,111.86652 92.0486269,112.556316 88.24,112.6 C82.24,112.9 80.02,112.96 64.24,112.96 C48.46,112.96 46.24,112.96 40.24,112.6 C36.2853445,112.674046 32.3475692,112.065112 28.6,110.8 C26.1146905,109.768465 23.8681356,108.236723 22,106.3 C20.0085314,104.372491 18.4890584,102.011147 17.56,99.4 C16.0951371,95.7709144 15.2826613,91.9116544 15.16,88 C15.16,82 14.8,79.78 14.8,64 C14.8,48.22 14.8,46 15.16,40 C15.1868944,36.1063329 15.8977005,32.2476715 17.26,28.6 C18.3162823,26.0674669 19.9375897,23.8099502 22,22 C23.8228805,19.9370094 26.0757268,18.2985757 28.6,17.2 C32.2573065,15.8802624 36.1119838,15.190478 40,15.16 C46,15.16 48.22,14.8 64,14.8 C79.78,14.8 82,14.8 88,15.16 C91.8086269,15.2036841 95.5822141,15.8934796 99.16,17.2 C101.886578,18.2119149 104.333761,19.8570802 106.3,22 C108.266212,23.8430703 109.80257,26.0963963 110.8,28.6 C112.133518,32.2536021 112.823732,36.1106794 112.84,40 C113.14,46 113.2,48.22 113.2,64 C113.2,79.78 113.14,82 112.84,88 Z M64,33.2197651 C47.0085253,33.2531218 33.2579555,47.0484294 33.2799994,64.039922 C33.3020964,81.0314147 47.0884576,94.7909541 64.079961,94.7799417 C81.0714645,94.7689159 94.8400591,80.991507 94.8400591,64 C94.8560365,55.8213227 91.6100556,47.9738796 85.8212178,42.1963041 C80.0323801,36.4187287 72.1786306,33.1880363 64,33.2197651 Z M64,83.98 C52.9653507,83.98 44.02,75.0346493 44.02,64 C44.02,52.9653507 52.9653507,44.02 64,44.02 C75.0346493,44.02 83.98,52.9653507 83.98,64 C83.98,69.2990255 81.8749703,74.3810166 78.1279935,78.1279935 C74.3810166,81.8749703 69.2990255,83.98 64,83.98 Z" id="Shape" fill="unset" fill-rule="nonzero"></path>
    </g>
</svg>