<?xml version="1.0" encoding="UTF-8"?>
<svg width="128px" height="128px" viewBox="0 0 128 128" version="1.1" xmlns="http://www.w3.org/2000/svg" xmlns:xlink="http://www.w3.org/1999/xlink">
    <!-- Generator: Sketch 61.2 (89653) - https://sketch.com -->
    <title>Graphic elements / Flat icons / Social / YouTube / Black</title>
    <desc>Created with Sketch.</desc>
    <g id="Graphic-elements-/-Flat-icons-/-Social-/-YouTube-/-Black" stroke="none" stroke-width="1" fill="none" fill-rule="evenodd">
        <path d="M51.6112815,79.7656972 L51.6061041,46.0484604 L84.0305466,62.966101 L51.6112815,79.7656972 Z M122.801952,40.2078463 C122.801952,40.2078463 121.629273,31.9380008 118.031504,28.2967421 C113.468153,23.5169754 108.353409,23.4936771 106.007533,23.2135803 C89.2151853,22 64.0261458,22 64.0261458,22 L63.9738542,22 C63.9738542,22 38.7853325,22 21.9924669,23.2135803 C19.6465913,23.4936771 14.5334006,23.5169754 9.96849558,28.2967421 C6.37072704,31.9380008 5.19960134,40.2078463 5.19960134,40.2078463 C5.19960134,40.2078463 4,49.9185597 4,59.629273 L4,68.7331961 C4,78.4439094 5.19960134,88.1546228 5.19960134,88.1546228 C5.19960134,88.1546228 6.37072704,96.4244683 9.96849558,100.065727 C14.5334006,104.844976 20.5293364,104.694314 23.2003521,105.194968 C32.8002692,106.116025 64.0002589,106.400264 64.0002589,106.400264 C64.0002589,106.400264 89.2151853,106.362469 106.007533,105.148371 C108.353409,104.868792 113.468153,104.844976 118.031504,100.065727 C121.629273,96.4244683 122.801952,88.1546228 122.801952,88.1546228 C122.801952,88.1546228 124,78.4439094 124,68.7331961 L124,59.629273 C124,49.9185597 122.801952,40.2078463 122.801952,40.2078463 L122.801952,40.2078463 Z" id="Fill-1" fill="unset"></path>
    </g>
</svg>