<?xml version="1.0" encoding="UTF-8"?>
<svg width="128px" height="128px" viewBox="0 0 128 128" version="1.1" xmlns="http://www.w3.org/2000/svg" xmlns:xlink="http://www.w3.org/1999/xlink">
    <!-- Generator: Sketch 61.2 (89653) - https://sketch.com -->
    <title>Graphic elements / Flat icons / Update / Black</title>
    <desc>Created with Sketch.</desc>
    <g id="Graphic-elements-/-Flat-icons-/-Update-/-Black" stroke="none" stroke-width="1" fill="none" fill-rule="evenodd">
        <path d="M63.6363636,31.2727273 L63.6363636,47.6363636 L85.4545455,25.8181818 L63.6363636,4 L63.6363636,20.3636364 C39.5272727,20.3636364 20,39.8909091 20,64 C20,72.5636364 22.5090909,80.5 26.7636364,87.2363636 L34.7272727,79.2727273 C32.3,74.7181818 30.9090909,69.5363636 30.9090909,64 C30.9090909,45.9181818 45.5545455,31.2727273 63.6363636,31.2727273 L63.6363636,31.2727273 Z M100.509091,40.7636364 L92.5454545,48.7272727 C94.9727273,53.2818182 96.3636364,58.4636364 96.3636364,64 C96.3636364,82.0818182 81.7181818,96.7272727 63.6363636,96.7272727 L63.6363636,80.3636364 L41.8181818,102.181818 L63.6363636,124 L63.6363636,107.636364 C87.7454545,107.636364 107.272727,88.1090909 107.272727,64 C107.272727,55.4363636 104.763636,47.5 100.509091,40.7636364 Z" id="Shape" fill="unset" fill-rule="nonzero"></path>
    </g>
</svg>