<?xml version="1.0" encoding="UTF-8"?>
<svg width="440px" height="330px" viewBox="0 0 440 330" version="1.1" xmlns="http://www.w3.org/2000/svg" xmlns:xlink="http://www.w3.org/1999/xlink">
    <title>Graphic elements / Icons / Rich icons / airplane</title>
    <g id="Graphic-elements-/-Icons-/-Rich-icons-/-airplane" stroke="none" stroke-width="1" fill="none" fill-rule="evenodd">
        <g id="Asset-215" transform="translate(0.000000, 95.000000)" fill-rule="nonzero">
            <path d="M155.257143,75.4285714 C113.425714,78.8542857 71.2380952,12.5085714 56.8333333,2.91238095 C50.0971429,-1.57142857 29.0609524,0.460952381 29.0609524,0.460952381 L64.4180952,84.5742857 C64.4180952,84.5742857 148.761905,81.3895238 155.257143,75.4285714 Z" id="Path" fill="#0C3B5D"></path>
            <path d="M31.7219048,6.77809524 L74.0352381,20.6171429 C77.9219048,25.027619 82.2171429,29.8780952 86.8371429,34.8333333 L35.3361905,15.3790476 L31.7219048,6.77809524 Z" id="Path" fill="#099BD7"></path>
            <path d="M99.3771429,47.5514286 C114.04381,61.432381 130.805714,73.5219048 147.798095,75.3238095 L147.798095,77.8904762 C145.33619,78.3828571 142.381905,78.8438095 139.081905,79.2733333 L47.6771429,44.7019048 L40.8571429,28.4009524 L99.3771429,47.5514286 Z" id="Path" fill="#099BD7"></path>
            <path d="M36.6666667,84.3752381 C50.3380952,82.28 97.1561905,75.627619 117.752381,74.412381 C135.394286,73.3647619 374.79619,75.732381 386.770476,76.507619 C412.217143,78.0266667 439.350476,99.7438095 439.350476,110.764762 C439.350476,120.947619 416.302857,124.698095 400.001905,124.38381 C383.32381,124.017143 173.841905,125.850476 145.566667,119.973333 C126.154286,115.845714 48.4,97.2714286 36.6666667,93.8457143 L36.6666667,84.3752381 Z" id="Path" fill="#FFFFFF"></path>
            <path d="M439.109524,112.315238 C436.815238,121.282857 415.370476,124.624762 399.970476,124.289524 C383.292381,123.922857 173.810476,125.75619 145.535238,119.879048 C139.249524,118.559048 126.678095,115.688571 112.241905,112.315238 L439.109524,112.315238 Z" id="Path" fill="#D5DBDE"></path>
            <path d="M43.1933333,95.6057143 C41.6847619,95.2180952 40.3542857,94.872381 39.2438095,94.5580952 L39.2438095,83.9771429 L43.1933333,83.3904762 L43.1933333,95.6057143 Z" id="Path" fill="#0C3B5D"></path>
            <polygon id="Path" fill="#0C3B5D" points="417.811429 91.572381 422.913333 97.68 422.379048 97.68 418.22 98.7485714 414.459048 98.7485714 414.459048 91.572381"></polygon>
            <path d="M424.704762,91.572381 C427.19289,93.4433094 429.548667,95.4840498 431.755238,97.68 L424.065714,97.68 L418.974286,91.572381 L424.704762,91.572381 Z" id="Path" fill="#0C3B5D"></path>
            <path d="M410.52,91.572381 L413.579048,91.572381 L413.579048,98.7485714 L410.52,98.7485714 C409.274352,98.7428045 408.267619,97.731376 408.267619,96.4857143 L408.267619,93.8352381 C408.267619,92.5895764 409.274352,91.5781479 410.52,91.572381 Z" id="Path" fill="#0C3B5D"></path>
            <path d="M381.39619,92.9028571 L381.39619,103.934286 C381.401945,105.991656 383.068344,107.658055 385.125714,107.66381 L389.881905,107.66381 C391.939275,107.658055 393.605674,105.991656 393.611429,103.934286 L393.611429,92.9028571 C393.605674,90.8454865 391.939275,89.1790882 389.881905,89.1733333 L385.125714,89.1733333 C383.068344,89.1790882 381.401945,90.8454865 381.39619,92.9028571 L381.39619,92.9028571 Z M382.44381,92.9028571 C382.44381,91.4043245 383.65861,90.1895238 385.157143,90.1895238 L389.913333,90.1895238 C391.40948,90.1952672 392.620923,91.40671 392.626667,92.9028571 L392.626667,103.934286 C392.620923,105.430433 391.40948,106.641876 389.913333,106.647619 L385.157143,106.647619 C384.426694,106.664545 383.720288,106.386167 383.197762,105.875472 C382.675237,105.364777 382.380756,104.664931 382.380952,103.934286 L382.44381,92.9028571 Z" id="Shape" fill="#0C3B5D"></path>
            <path d="M235.211429,92.9028571 L235.211429,103.934286 C235.217183,105.991656 236.883582,107.658055 238.940952,107.66381 L243.686667,107.66381 C245.745755,107.65809 247.415171,105.99335 247.426667,103.934286 L247.426667,92.9028571 C247.415171,90.843793 245.745755,89.1790529 243.686667,89.1733333 L238.940952,89.1733333 C236.883582,89.1790882 235.217183,90.8454865 235.211429,92.9028571 L235.211429,92.9028571 Z M236.259048,92.9028571 C236.259048,91.4043245 237.473848,90.1895238 238.972381,90.1895238 L243.718095,90.1895238 C245.216628,90.1895238 246.431429,91.4043245 246.431429,92.9028571 L246.431429,103.934286 C246.431429,105.432818 245.216628,106.647619 243.718095,106.647619 L238.972381,106.647619 C237.473848,106.647619 236.259048,105.432818 236.259048,103.934286 L236.259048,92.9028571 Z" id="Shape" fill="#0C3B5D"></path>
            <rect id="Rectangle" fill="#0C3B5D" x="136.033333" y="91.572381" width="4.2952381" height="7.65809524" rx="1.17"></rect>
            <rect id="Rectangle" fill="#0C3B5D" x="143.502857" y="91.572381" width="4.2952381" height="7.65809524" rx="1.17"></rect>
            <rect id="Rectangle" fill="#0C3B5D" x="150.961905" y="91.572381" width="4.2952381" height="7.65809524" rx="1.17"></rect>
            <rect id="Rectangle" fill="#0C3B5D" x="158.431429" y="91.572381" width="4.2952381" height="7.65809524" rx="1.17"></rect>
            <rect id="Rectangle" fill="#0C3B5D" x="165.890476" y="91.572381" width="4.2952381" height="7.65809524" rx="1.17"></rect>
            <rect id="Rectangle" fill="#0C3B5D" x="173.349524" y="91.572381" width="4.2952381" height="7.65809524" rx="1.17"></rect>
            <rect id="Rectangle" fill="#0C3B5D" x="180.819048" y="91.572381" width="4.2952381" height="7.65809524" rx="1.17"></rect>
            <rect id="Rectangle" fill="#0C3B5D" x="188.278095" y="91.572381" width="4.2952381" height="7.65809524" rx="1.17"></rect>
            <rect id="Rectangle" fill="#0C3B5D" x="195.747619" y="91.572381" width="4.2952381" height="7.65809524" rx="1.17"></rect>
            <rect id="Rectangle" fill="#0C3B5D" x="203.206667" y="91.572381" width="4.2952381" height="7.65809524" rx="1.17"></rect>
            <rect id="Rectangle" fill="#0C3B5D" x="210.67619" y="91.572381" width="4.2952381" height="7.65809524" rx="1.17"></rect>
            <rect id="Rectangle" fill="#0C3B5D" x="218.135238" y="91.572381" width="4.2952381" height="7.65809524" rx="1.17"></rect>
            <rect id="Rectangle" fill="#0C3B5D" x="225.594286" y="91.572381" width="4.2952381" height="7.65809524" rx="1.17"></rect>
            <rect id="Rectangle" fill="#0C3B5D" x="252.057143" y="91.572381" width="4.2952381" height="7.65809524" rx="1.17"></rect>
            <rect id="Rectangle" fill="#0C3B5D" x="259.526667" y="91.572381" width="4.2952381" height="7.65809524" rx="1.17"></rect>
            <rect id="Rectangle" fill="#0C3B5D" x="266.985714" y="91.572381" width="4.2952381" height="7.65809524" rx="1.17"></rect>
            <rect id="Rectangle" fill="#0C3B5D" x="274.444762" y="91.572381" width="4.2952381" height="7.65809524" rx="1.17"></rect>
            <rect id="Rectangle" fill="#0C3B5D" x="281.914286" y="91.572381" width="4.2952381" height="7.65809524" rx="1.17"></rect>
            <rect id="Rectangle" fill="#0C3B5D" x="289.373333" y="91.572381" width="4.2952381" height="7.65809524" rx="1.17"></rect>
            <rect id="Rectangle" fill="#0C3B5D" x="296.842857" y="91.572381" width="4.2952381" height="7.65809524" rx="1.17"></rect>
            <rect id="Rectangle" fill="#0C3B5D" x="304.301905" y="91.572381" width="4.2952381" height="7.65809524" rx="1.17"></rect>
            <rect id="Rectangle" fill="#0C3B5D" x="311.771429" y="91.572381" width="4.2952381" height="7.65809524" rx="1.17"></rect>
            <rect id="Rectangle" fill="#0C3B5D" x="319.230476" y="91.572381" width="4.2952381" height="7.65809524" rx="1.17"></rect>
            <rect id="Rectangle" fill="#0C3B5D" x="326.689524" y="91.572381" width="4.2952381" height="7.65809524" rx="1.17"></rect>
            <rect id="Rectangle" fill="#0C3B5D" x="334.159048" y="91.572381" width="4.2952381" height="7.65809524" rx="1.17"></rect>
            <rect id="Rectangle" fill="#0C3B5D" x="341.618095" y="91.572381" width="4.2952381" height="7.65809524" rx="1.17"></rect>
            <rect id="Rectangle" fill="#0C3B5D" x="349.087619" y="91.572381" width="4.2952381" height="7.65809524" rx="1.17"></rect>
            <rect id="Rectangle" fill="#0C3B5D" x="356.546667" y="91.572381" width="4.2952381" height="7.65809524" rx="1.17"></rect>
            <rect id="Rectangle" fill="#0C3B5D" x="364.005714" y="91.572381" width="4.2952381" height="7.65809524" rx="1.17"></rect>
            <rect id="Rectangle" fill="#0C3B5D" x="371.475238" y="91.572381" width="4.2952381" height="7.65809524" rx="1.17"></rect>
            <path d="M101.77619,91.572381 C101.77619,93.772381 92.0228571,95.6266667 87.1828571,95.6057143 C82.772381,95.6057143 63.7790476,94.2961905 55.2933333,93.5104762 C48.1904762,91.3314286 11.7857143,83.3904762 0,79.6714286 C7.63714286,78.6238095 28.7780952,79.5247619 32.0571429,79.6714286 C35.3361905,79.8180952 101.77619,90.2733333 101.77619,91.572381 Z" id="Path" fill="#96A6AE"></path>
            <path d="M104.353333,110.460952 L439.308571,110.460952 C439.312483,110.544681 439.312483,110.628653 439.308571,110.712381 C439.28563,112.467096 438.605248,114.149359 437.401905,115.426667 L125.609524,115.426667 C119.187619,113.939048 111.917143,112.241905 104.353333,110.460952 Z" id="Path" fill="#099BD7"></path>
            <path d="M99.6704762,93.3638095 C85.4647619,90.0009524 35.0114286,81.0333333 32.0571429,80.907619 C29.3961905,80.7819048 12.5714286,79.4095238 2.3047619,79.4514286 C11.22,78.8019048 29.0714286,79.5457143 32.0571429,79.6714286 C35.4933333,79.8285714 101.77619,90.2733333 101.77619,91.572381 C101.765714,92.1904762 100.948571,92.8190476 99.6704762,93.3638095 Z" id="Path" fill="#D5DBDE"></path>
            <path d="M331.918922,118.045714 C332.294286,123.28381 272.590476,121.188571 265.299048,120.580952 C258.007619,119.973333 113.142857,92.672381 113.142857,90.6190476 C113.142857,88.0942857 142.308571,87.8009524 145.619048,88.3771429 C148.929524,88.9533333 304.144762,105.495238 315.333333,108.187619 C323.022857,110.052381 331.54,113.006667 331.918922,118.045714 Z" id="Path" fill="#96A6AE"></path>
            <path d="M331.906667,118.045714 C318.905714,112.807619 163.24,93.0495238 126.342857,88.4190476 C134.524762,88.0104762 143.79619,88.0628571 145.566667,88.4190476 C148.782857,88.9742857 304.092381,105.537143 315.280952,108.229524 C323.022857,110.052381 331.529524,112.99619 331.906667,118.045714 Z" id="Path" fill="#D5DBDE"></path>
            <path d="M112.954286,90.4095238 C112.954286,91.2790476 120.78,92.2638095 130.187619,92.2638095 C139.595238,92.2638095 147.012381,93.2380952 147.012381,90.4095238 C147.012381,87.1619048 139.385714,88.3142857 129.978095,88.3142857 C120.570476,88.3142857 112.954286,89.5295238 112.954286,90.4095238 Z" id="Path" fill="#C0CACE"></path>
            <path d="M131.675238,90.252381 C131.675238,90.692381 134.409524,91.0485714 137.782857,91.0485714 C141.15619,91.0485714 143.890476,90.692381 143.890476,90.252381 C143.890476,89.812381 141.15619,89.4666667 137.782857,89.4666667 C134.409524,89.4666667 131.675238,89.812381 131.675238,90.252381 Z" id="Path" fill="#2D2D2C"></path>
            <path d="M166.508571,108.690476 L166.508571,117.993333 C166.514173,118.326564 166.78296,118.595351 167.11619,118.600952 L191.965714,118.600952 C192.301293,118.600952 192.573333,118.328912 192.573333,117.993333 L192.573333,108.690476 C192.573333,108.354897 192.301293,108.082857 191.965714,108.082857 L167.11619,108.082857 C166.78296,108.088459 166.514173,108.357245 166.508571,108.690476 L166.508571,108.690476 Z M167.189524,108.76381 L191.902857,108.76381 L191.902857,117.92 L167.189524,117.92 L167.189524,108.76381 Z" id="Shape" fill="#0C3B5D"></path>
            <polygon id="Path" fill="#0C3B5D" points="192.217143 112.315238 176.79619 100.927619 219.874286 104.248571 223.069524 109.235238"></polygon>
            <polygon id="Path" fill="#0C3B5D" points="264.942857 122.351429 250.234286 111.498095 291.290476 114.661905 294.339048 119.418095"></polygon>
            <path d="M273.868571,138.610476 L298.330476,138.610476 C299.657126,138.604708 300.729524,137.527615 300.729524,136.200952 L300.729524,117.825714 C300.723786,116.503141 299.65305,115.432405 298.330476,115.426667 L273.868571,115.426667 C267.719048,115.426667 253.859048,120.465714 253.859048,126.615238 L253.859048,127.411429 C253.859048,133.571429 267.719048,138.610476 273.868571,138.610476 Z" id="Path" fill="#C0CACE"></path>
            <path d="M296.47619,115.426667 L298.32,115.426667 C299.642573,115.432405 300.71331,116.503141 300.719048,117.825714 L300.719048,136.190476 C300.719048,137.517139 299.64665,138.594232 298.32,138.6 L296.47619,138.6 L296.47619,115.426667 Z" id="Path" fill="#96A6AE"></path>
            <path d="M262.68,118.202857 L262.68,135.82381 C257.955238,133.728571 253.859048,130.753333 253.859048,127.442857 L253.859048,126.646667 C253.859048,123.273333 257.955238,120.25619 262.68,118.202857 Z" id="Path" fill="#0C3B5D"></path>
            <path d="M257.92381,133.225714 C257.243649,132.750317 256.602561,132.221332 256.006667,131.64381 L256.006667,122.393333 C256.599802,121.812735 257.241152,121.283534 257.92381,120.811429 L257.92381,133.225714 Z" id="Path" fill="#B9BBBD"></path>
            <path d="M201.593333,129.14 L227.26,129.14 C228.650295,129.134231 229.774286,128.005545 229.774286,126.615238 L229.774286,107.339048 C229.774286,105.948741 228.650295,104.820055 227.26,104.814286 L201.593333,104.814286 C195.129524,104.814286 180.588571,110.052381 180.588571,116.558095 L180.588571,117.39619 C180.588571,123.849524 195.129524,129.14 201.593333,129.14 Z" id="Path" fill="#C0CACE"></path>
            <path d="M225.321905,104.814286 L227.26,104.814286 C228.650295,104.820055 229.774286,105.948741 229.774286,107.339048 L229.774286,126.615238 C229.774286,128.005545 228.650295,129.134231 227.26,129.14 L225.321905,129.14 L225.321905,104.814286 Z" id="Path" fill="#96A6AE"></path>
            <path d="M189.849524,107.726667 L189.849524,126.227619 C184.88381,124.069524 180.588571,120.905714 180.588571,117.39619 L180.588571,116.558095 C180.588571,113.048571 184.88381,109.884762 189.849524,107.726667 Z" id="Path" fill="#0C3B5D"></path>
            <path d="M184.862857,123.493333 C184.140887,122.999072 183.464258,122.441643 182.840952,121.827619 L182.840952,112.095238 C183.46965,111.487224 184.145754,110.930227 184.862857,110.429524 L184.862857,123.493333 Z" id="Path" fill="#B9BBBD"></path>
            <path d="M347.558095,108.690476 L347.558095,117.993333 C347.558095,118.328912 347.830136,118.600952 348.165714,118.600952 L373.015238,118.600952 C373.350817,118.600952 373.622857,118.328912 373.622857,117.993333 L373.622857,108.690476 C373.622857,108.354897 373.350817,108.082857 373.015238,108.082857 L348.165714,108.082857 C347.830136,108.082857 347.558095,108.354897 347.558095,108.690476 Z M348.239048,108.76381 L372.952381,108.76381 L372.952381,117.92 L348.239048,117.92 L348.239048,108.76381 Z" id="Shape" fill="#0C3B5D"></path>
        </g>
    </g>
</svg>