<?xml version="1.0" encoding="UTF-8"?>
<svg width="440px" height="330px" viewBox="0 0 440 330" version="1.1" xmlns="http://www.w3.org/2000/svg" xmlns:xlink="http://www.w3.org/1999/xlink">
    <title>Graphic elements / Icons / Rich icons / ambition</title>
    <defs>
        <radialGradient cx="49.9515989%" cy="50.0267672%" fx="49.9515989%" fy="50.0267672%" r="54.2805168%" gradientTransform="translate(0.499516,0.500268),scale(1.000000,0.858271),translate(-0.499516,-0.500268)" id="radialGradient-1">
            <stop stop-color="#FFFFFF" offset="24%"></stop>
            <stop stop-color="#FFFFFF" offset="95%"></stop>
            <stop stop-color="#FFFFFF" offset="100%"></stop>
        </radialGradient>
        <radialGradient cx="49.7306178%" cy="50.0181286%" fx="49.7306178%" fy="50.0181286%" r="55.4497026%" gradientTransform="translate(0.497306,0.500181),scale(1.000000,0.827780),translate(-0.497306,-0.500181)" id="radialGradient-2">
            <stop stop-color="#FFFFFF" offset="24%"></stop>
            <stop stop-color="#FFFFFF" offset="95%"></stop>
            <stop stop-color="#FFFFFF" offset="100%"></stop>
        </radialGradient>
    </defs>
    <g id="Graphic-elements-/-Icons-/-Rich-icons-/-ambition" stroke="none" stroke-width="1" fill="none" fill-rule="evenodd">
        <g id="Ambition" transform="translate(41.000000, 0.000000)" fill-rule="nonzero">
            <path d="M351.451028,22.5217523 L279.651028,42.381571 L207.851028,62.2413897 L207.671528,62.2413897 L207.492028,62.2413897 C205.687056,62.5305136 190.369722,65.0129909 172.58925,66.9471299 C154.808778,68.8812689 134.475417,70.2870091 122.728139,68.4226586 L115.288861,65.860423 L107.839611,63.2882175 L106.154306,59.5096677 L104.478972,55.8308157 L107.141556,51.0752266 L109.794167,46.3196375 C109.880128,46.1736578 109.943978,46.0157497 109.983639,45.8510574 C110.024842,45.6848864 110.041638,45.5136054 110.0335,45.3425982 L109.824083,39.3009063 L109.614667,33.2492447 C109.603907,33.0238202 109.556761,32.8016178 109.475056,32.5912387 C109.382975,32.3834552 109.258429,32.1916337 109.106083,32.0229607 L102.843528,25.4528701 L96.5909444,18.8728097 C96.4450003,18.7246044 96.2767624,18.6001387 96.0923333,18.5039275 C95.9053274,18.4067144 95.7028898,18.3426248 95.494,18.3145015 L86.2696944,16.9486405 L77.0354167,15.6226586 C76.7252325,15.5837882 76.4102463,15.6214404 76.1179722,15.7323263 C75.8195035,15.8369229 75.5544083,16.0193465 75.3501111,16.2607251 L74.6321111,17.0882175 L73.9240833,17.91571 C73.6807692,18.1962977 73.5278399,18.5437796 73.4853056,18.9126888 C73.4520575,19.2531968 73.5070042,19.5965298 73.6448611,19.9096677 L73.1063611,20.5178248 L72.5678611,21.1259819 L72.5678611,21.1259819 L72.5678611,21.1259819 L68.4194167,25.173716 L64.2709722,29.2214502 C64.0538518,29.3988608 63.8970745,29.639194 63.8222222,29.9093656 C63.7431659,30.1156828 63.7124631,30.3373712 63.7324722,30.5574018 L63.7324722,30.9462236 L63.7324722,31.3350453 C63.7996498,31.5166826 63.8301541,31.7098295 63.8222222,31.9033233 C63.7597823,32.0929926 63.6616193,32.2689661 63.5330278,32.4217523 L60.2521667,36.1404834 L56.9413889,39.8791541 C56.6398384,40.2227716 56.5146167,40.6867152 56.6023333,41.1353474 C56.7012492,41.5754669 56.9999931,41.9441966 57.4100833,42.1323263 L58.78625,42.7903323 L60.1723889,43.4383686 C60.4517646,43.589199 60.691084,43.8045339 60.8704444,44.0664653 C61.0958243,44.4052302 61.2990182,44.7582351 61.47875,45.1232628 L61.2294444,45.0634441 L60.9801389,45.0036254 L60.5313889,47.0673716 L60.0726667,49.121148 C60.0726667,49.121148 60.0726667,49.1909366 60.0726667,49.2208459 C60.0677394,49.2572359 60.0677394,49.2941237 60.0726667,49.3305136 L56.3231111,47.2567976 L52.5536111,45.163142 L39.0911111,34.8942598 L25.6286111,24.5655589 L25.4790278,24.7450151 L25.3394167,24.9145015 L21.62975,20.9963746 L17.95,17.0682779 C17.8791624,16.9936986 17.8187779,16.9098517 17.7705,16.8190332 C17.7186903,16.7245259 17.6785093,16.6240981 17.6508333,16.5199396 L16.6536111,12.3824773 L15.6563889,8.23504532 C15.6170562,8.06026165 15.5386413,7.89665301 15.4270278,7.75649547 C15.2979724,7.61248851 15.1376422,7.49994376 14.9583333,7.42749245 L12.0663889,6.07160121 L9.17444444,4.72567976 C8.91722773,4.59887383 8.62157658,4.57394548 8.34675,4.65589124 C8.07122017,4.73021781 7.83095868,4.89977277 7.66863889,5.13444109 L6.31241667,7.12839879 L4.98611111,9.13232628 C4.61858982,9.64834109 3.91843053,9.79957316 3.37061111,9.48126888 C3.03910468,9.28290996 2.63220281,9.25676274 2.27802389,9.41106003 C1.92384496,9.56535731 1.66596591,9.88111491 1.58558333,10.2589124 L1.30636111,11.5749245 L0.997222222,12.8809668 C0.982479993,12.9868005 0.982479993,13.0941663 0.997222222,13.2 C1.00753299,13.3046538 1.02756382,13.4081212 1.05705556,13.5090634 L2.71244444,18.4939577 L4.36783333,23.478852 C4.43677309,23.6661915 4.54566248,23.8362896 4.68694444,23.9773414 C4.83501173,24.1104671 5.01282632,24.20619 5.2055,24.2564955 L7.97777778,24.9244713 L10.7600278,25.6422961 C10.8636002,25.6717828 10.9638532,25.7118742 11.0591944,25.7619335 C11.1540822,25.8205449 11.2411957,25.8908887 11.3184722,25.9712991 L14.9583333,29.7398792 L18.5682778,33.4885196 L18.1095556,34.0767372 L17.6508333,34.6549849 L30.9138889,50.6365559 L44.1669722,66.5882175 L58.0483056,75.8700906 L71.9296389,85.1519637 L71.9296389,93.1277946 C71.9261634,93.4659582 71.9766588,93.8025118 72.0792222,94.1247734 C72.1691828,94.4477189 72.3106066,94.7540623 72.4980556,95.0320242 L75.7789167,100.016918 L79.0597778,105.001813 L71.7002778,106.04864 L64.35075,107.045619 C61.8738012,107.400429 60.1517099,109.693016 60.5014722,112.170091 L63.4931389,133.186405 L66.4848056,154.202719 C66.6527217,155.390577 67.2864576,156.462836 68.2461969,157.182933 C69.2059362,157.903029 70.4128102,158.211787 71.6005556,158.041088 L82.9389722,156.52568 L94.2873611,154.900604 L94.2873611,156.425982 L94.2873611,157.95136 C94.3163012,158.898784 95.0083767,159.694894 95.94275,159.855589 L101.118333,160.732931 L106.303889,161.610272 C106.446139,161.630061 106.590445,161.630061 106.732694,161.610272 C106.877745,161.602689 107.021533,161.579287 107.1615,161.540483 L109.634611,160.862538 L112.107722,160.174622 C112.340712,160.11166 112.560336,160.006941 112.755917,159.865559 C112.949148,159.717032 113.117463,159.538661 113.254528,159.33716 L114.25175,157.811782 L115.248972,156.296375 C115.718299,158.03319 114.789899,159.84205 113.104944,160.473716 L87.8153889,169.775529 L62.5358056,179.087311 C62.1720905,179.233591 61.8351227,179.439091 61.5385833,179.695468 C61.2297852,179.960562 60.9698932,180.277755 60.7707222,180.632628 L58.7264167,184.241692 L56.7319722,187.860725 C56.4913856,188.279419 56.3450489,188.745541 56.3031667,189.226586 C56.2516094,189.711041 56.3060527,190.200911 56.4627222,190.662236 L66.6443611,221.189728 L76.7861111,251.697281 C77.1487662,252.764487 77.848797,253.684802 78.7805556,254.319335 C79.7084625,254.953648 80.8192063,255.265421 81.94175,255.206647 L84.006,255.096979 L86.0602778,254.997281 L86.9976667,261.816616 L87.9250833,268.645921 L87.9250833,268.765559 L87.9250833,268.885196 L87.0874167,268.616012 L86.24975,268.336858 C85.9531647,268.252348 85.6388631,268.252348 85.3422778,268.336858 C85.0447914,268.417342 84.7776804,268.583812 84.5744167,268.815408 L81.8220833,271.916012 L79.06975,275.026586 C78.9632463,275.145051 78.8387269,275.245988 78.7007778,275.32568 C78.5653027,275.411328 78.417251,275.475244 78.262,275.515106 L69.7158056,277.578852 L61.1696111,279.632628 C60.9408616,279.690542 60.7268262,279.795835 60.5413611,279.941692 C60.3616209,280.088485 60.2154075,280.272057 60.1125556,280.48006 L58.8361111,282.86284 L57.6693611,285.265559 C57.4236229,285.759128 57.4538803,286.345223 57.7491389,286.810876 C58.042827,287.275104 58.5559668,287.554244 59.1053611,287.54864 L69.8354722,287.458912 L80.5755556,287.359215 L80.775,287.359215 L80.9345556,287.359215 L86.3893611,286.17281 L91.8441667,284.996375 C92.2549521,284.901131 92.6868136,284.976688 93.0408333,285.20574 C93.3908769,285.436241 93.6376079,285.793735 93.7289167,286.202719 C93.901975,286.992779 94.6390652,287.528324 95.4441389,287.448943 L103.102806,286.661329 L110.7515,285.883686 C111.205431,285.840074 111.617363,285.599535 111.878361,285.22568 C112.149877,284.859824 112.244863,284.392315 112.137639,283.949547 L110.621861,277.269789 L109.096111,270.59003 C109.006786,270.180183 108.759582,269.822005 108.408028,269.593051 C108.064678,269.365462 107.643864,269.286354 107.241278,269.373716 L106.433528,269.533233 L105.63575,269.692749 L103.30225,261.956193 L100.938833,254.229607 L101.7765,254.229607 L102.614167,254.179758 L97.7277778,229.943202 L92.8513611,205.736556 C92.6544602,204.77919 92.8718141,203.783228 93.4496944,202.994864 C94.0306541,202.210803 94.9126713,201.704851 95.8829167,201.599094 L110.631833,200.043807 L125.390722,198.47855 C126.109987,198.400504 126.835593,198.550473 127.464944,198.907251 C128.093015,199.269214 128.594392,199.815721 128.900944,200.472508 L144.686972,234.429607 L160.473,268.376737 C160.669179,268.796358 160.947187,269.172594 161.290722,269.483384 C161.627628,269.79596 162.024585,270.03679 162.457472,270.191239 L202.346361,284.368278 L242.23525,298.555287 C243.577599,299.021035 245.068369,298.626747 246.00475,297.558308 L247.201417,296.202417 L248.398083,294.846526 L250.013583,296.202417 L251.619111,297.568278 L251.549306,297.677946 L251.469528,297.787613 C251.305872,298.050943 251.21949,298.354935 251.220222,298.664955 C251.229876,298.973099 251.322928,299.27286 251.489472,299.532326 L253.813,302.971903 L256.126556,306.41148 C256.216938,306.542002 256.284387,306.686982 256.326,306.840181 C256.373613,306.99519 256.397156,307.156584 256.395806,307.318731 L256.246222,316.102115 L256.106611,324.885498 C256.101093,325.357679 256.301284,325.808907 256.655083,326.121752 L258.649528,327.856495 L260.643972,329.591239 C261.062308,329.948755 261.636917,330.062137 262.15975,329.890332 C262.686911,329.728637 263.089066,329.300029 263.216806,328.763746 L265.819556,318.355287 L268.422306,307.946828 L268.422306,307.797281 C268.427118,307.740888 268.427118,307.684188 268.422306,307.627795 L268.651667,302.054683 L268.871056,296.481571 C268.889167,296.061008 269.073854,295.664917 269.384392,295.380639 C269.69493,295.09636 270.105815,294.947241 270.526444,294.966163 C271.335356,295.000779 272.040418,294.420535 272.161889,293.620242 L273.318667,286.013293 L274.485417,278.416314 C274.584006,277.981181 274.493405,277.52466 274.236111,277.160121 C273.946328,276.807185 273.516052,276.599391 273.059389,276.591843 L266.218444,276.382477 L259.367528,276.183082 C259.008463,276.172669 258.656618,276.285231 258.370306,276.502115 C258.086712,276.706265 257.882387,277.002112 257.791917,277.339577 L255.857306,277.20997 L253.912722,277.090332 C253.763794,276.645267 253.526347,276.234922 253.214667,275.883988 C252.902014,275.528844 252.518064,275.2435 252.087806,275.046526 L217.294722,258.955287 L182.491667,242.903927 C181.994452,242.675318 181.557401,242.333955 181.215222,241.906949 C180.87879,241.473727 180.646749,240.968819 180.537111,240.43142 L176.468444,219.764048 L172.389806,199.106647 C172.346855,198.886485 172.323495,198.662953 172.32,198.438671 C172.318527,198.214118 172.341938,197.990094 172.389806,197.770695 L173.526639,191.88852 L174.663472,186.016314 C174.730082,185.610265 174.730082,185.196079 174.663472,184.79003 L173.087861,175.179154 L171.522222,165.568278 C171.483032,165.311459 171.412709,165.060367 171.312806,164.820544 C171.217,164.585868 171.096666,164.361967 170.953806,164.152568 L161.410389,150.37432 L151.866972,136.586103 L151.787194,136.486405 L151.717389,136.396677 C151.778978,136.168675 151.815756,135.93469 151.827083,135.698792 C151.851888,135.456827 151.851888,135.212961 151.827083,134.970997 C155.742843,137.735952 159.731731,140.480967 163.79375,143.206042 C167.782639,145.927795 171.891194,148.629607 175.989778,151.271601 L175.989778,151.271601 L175.989778,151.271601 C182.471722,155.458912 189.0135,159.516616 195.515389,163.345015 C202.017278,167.173414 208.479278,170.762538 214.841556,174.042598 C236.534147,185.387378 259.260991,194.634806 282.7125,201.658912 C300.433139,206.843202 312.738861,208.707553 318.103917,209.33565 C318.938534,209.434191 319.780157,209.221174 320.467333,208.737462 C321.155052,208.265934 321.642184,207.554966 321.833528,206.743505 L325.423528,191.788822 L329.013528,176.834139 C329.101085,176.482276 329.242353,176.146004 329.432361,175.83716 C329.624047,175.529232 329.862974,175.253355 330.140389,175.019637 L332.493833,173.02568 L334.85725,171.031722 C335.180886,170.752513 335.448267,170.414137 335.645056,170.034743 C335.849877,169.671567 335.981975,169.271981 336.033972,168.858308 L345.8965,97.6042296 L355.759028,26.3501511 C355.923725,25.2111266 355.500849,24.0661283 354.635272,23.3074244 C353.769696,22.5487204 352.578948,22.2793287 351.470972,22.5915408 L351.451028,22.5217523 Z" id="Path" fill="#023852" opacity="0.3" style="mix-blend-mode: multiply;"></path>
            <path d="M210.134667,58.6223565 L209.965139,58.6722054 L209.785639,58.6722054 C207.791194,58.9912387 190.040639,61.8725076 170.395361,63.8564955 C150.750083,65.8404834 129.249972,66.9172205 119.866111,63.6570997 C114.321556,61.7229607 110.332667,60.0978852 107.450694,58.7619335 C105.448106,57.8988713 103.528753,56.854331 101.716667,55.6413897 C101.134311,55.2255022 100.43787,54.9992142 99.7222222,54.9933535 C99.0048366,54.9981576 98.3071211,55.2283475 97.7277778,55.6513595 L88.9023611,62.1317221 L80.0669722,68.6120846 C79.2257035,69.2298961 78.712661,70.1979455 78.6714366,71.2408118 C78.6349611,72.2836781 79.0745566,73.2871989 79.8675278,73.965861 C87.50625,80.4362538 107.78975,97.2951662 133.109222,116.158006 C158.428694,135.020846 188.953667,155.897583 217.055389,170.383686 C238.748022,181.731008 261.474791,190.981744 284.926333,198.00997 C302.646972,203.19426 314.952694,205.04864 320.327722,205.676737 C321.15756,205.771923 321.993762,205.562924 322.681167,205.08852 C323.364816,204.612939 323.850767,203.903694 324.047361,203.094562 L327.647333,188.139879 L331.237333,173.185196 C331.315908,172.832039 331.454179,172.494875 331.646194,172.188218 C331.835187,171.878315 332.074467,171.60203 332.354222,171.370695 L334.717639,169.376737 L337.071083,167.382779 C337.392997,167.101927 337.660103,166.763901 337.858889,166.385801 C338.060962,166.020576 338.196053,165.622155 338.257778,165.209366 L348.120306,93.9453172 L358.002778,22.6613293 C358.146909,21.5223251 357.709721,20.3870208 356.838811,19.6387025 C355.967901,18.8903842 354.779505,18.6289261 353.674833,18.9425982 L281.874833,38.8024169 L210.134667,58.6223565 Z" id="Path" fill="#0099DA"></path>
            <path d="M178.951528,144.173112 L173.446861,124.622356 L167.952167,105.031722 C167.805517,104.523419 167.771486,103.989262 167.852444,103.466465 C167.92992,102.941656 168.116777,102.438964 168.400917,101.990937 L169.278472,100.605136 L170.166,99.2193353 C170.413016,98.8326785 170.58551,98.4032395 170.674583,97.9531722 C170.754365,97.5013786 170.754365,97.0391047 170.674583,96.5873112 L169.836917,91.6024169 L169.009222,86.6175227 C168.949133,86.2427589 168.831398,85.8795487 168.660194,85.5407855 C168.489369,85.1999839 168.267414,84.8873057 168.002028,84.6135952 L158.867472,75.192145 L149.752861,65.8006042 L149.633194,65.6809668 L149.503556,65.5812689 C143.290861,65.8803625 137.387306,65.9501511 132.281528,65.6909366 C128.0632,65.5997837 123.875321,64.9528154 119.826222,63.7667674 C117.642306,63.0090634 115.697722,62.2912387 113.972528,61.6232628 C112.247333,60.955287 110.731556,60.3371601 109.40525,59.7589124 L105.137139,65.8006042 L100.869028,71.8821752 C100.012893,73.1075334 99.9620328,74.7229349 100.739389,75.9996979 L109.714389,90.655287 L118.689389,105.300906 C127.285444,111.920846 136.808917,119.049245 146.850944,126.237462 C156.892972,133.42568 167.463528,140.713595 178.183667,147.632628 C179.034054,146.685043 179.335612,145.366047 178.981444,144.143202 L178.951528,144.173112 Z" id="Path" fill="#66C2E9" style="mix-blend-mode: multiply;"></path>
            <path d="M28.9992222,22.8108761 L24.5715556,18.1350453 L20.1339167,13.4592145 C20.0629078,13.3811043 20.0025506,13.2939428 19.9544167,13.2 C19.9074353,13.1254389 19.8705491,13.0449796 19.8447222,12.9607251 L18.8475,8.81329305 L17.8502778,4.67583082 C17.8074551,4.49735821 17.7257307,4.33054493 17.6109444,4.18731118 C17.497124,4.04829551 17.354142,3.93597993 17.1921111,3.85830816 L14.3201111,2.46253776 L11.4281667,1.10664653 C11.1728377,0.976836805 10.8808084,0.93814358 10.6004722,0.996978852 C10.3368561,1.09101638 10.1145508,1.27446166 9.97222222,1.51540785 L8.60602778,3.50936556 L7.23983333,5.50332326 C7.06945677,5.76050051 6.8041227,5.93973654 6.50188889,6.00181269 C6.2054006,6.06497388 5.89600677,6.01519852 5.63430556,5.86223565 L5.63430556,5.86223565 C5.30214463,5.65956831 4.89215748,5.63102519 4.53510573,5.78570986 C4.17805398,5.94039453 3.91852962,6.2589885 3.83930556,6.63987915 L3.53016667,7.97583082 L3.25094444,9.27190332 C3.24112331,9.37469052 3.24112331,9.47817957 3.25094444,9.58096677 C3.26031366,9.68575558 3.2803621,9.78931392 3.31077778,9.89003021 L4.96616667,14.8749245 L6.63152778,19.8598187 C6.68823756,20.0529763 6.79895008,20.2259224 6.95063889,20.3583082 C7.09174912,20.4977672 7.2671901,20.5975034 7.45922222,20.647432 L10.2414722,21.3652568 L13.0237222,22.0830816 C13.1298813,22.1095827 13.2309542,22.1533702 13.3228889,22.2126888 C13.4213106,22.2619074 13.5093375,22.3296039 13.5821667,22.4120846 L18.9472222,27.9154079 L24.2923333,33.4685801 C24.5848869,33.763297 25.0084817,33.8868845 25.4136688,33.7957397 C25.818856,33.7045948 26.1486809,33.4115292 26.2867778,33.0199396 L27.7925833,28.5036254 L29.2983889,23.997281 C29.3582371,23.7888002 29.3582371,23.5676952 29.2983889,23.3592145 C29.2444951,23.1549345 29.1418373,22.9667745 28.9992222,22.8108761 Z" id="Path" fill="#0099DA"></path>
            <path d="M24.9305556,29.1716012 L14.4198333,17.9456193 L3.92905556,6.61993958 L3.64983333,7.97583082 L3.38058333,9.28187311 C3.36530924,9.38766934 3.36530924,9.49511012 3.38058333,9.60090634 C3.3908941,9.70556017 3.41092493,9.8090275 3.44041667,9.90996979 L5.09580556,14.894864 L6.75119444,19.8797583 C6.8201342,20.0670978 6.92902359,20.237196 7.07030556,20.3782477 C7.21985012,20.5092601 7.39713897,20.6047001 7.58886111,20.6574018 L10.3711111,21.3752266 L13.1533611,22.1030211 C13.2583863,22.1280986 13.359176,22.1684047 13.4525278,22.2226586 C13.5474155,22.28127 13.634529,22.3516138 13.7118056,22.4320242 L18.6380833,27.5365559 L23.5543889,32.6510574 L24.2424722,30.9561934 L24.9305556,29.1716012 Z" id="Path" fill="#66C2E9" style="mix-blend-mode: multiply;"></path>
            <polygon id="Path" fill="#F1F3F2" points="82.12125 56.6882175 68.4493333 49.121148 54.7774167 41.5540785 41.3149167 31.255287 27.8524167 20.9465257 23.8535556 25.9912387 19.8546944 31.0459215 33.1077778 47.0175227 46.3608611 62.9990937 64.2410556 74.8731118 82.12125 86.7570997 82.12125 71.7226586"></polygon>
            <polygon id="Path" fill="#023852" opacity="0.2" style="mix-blend-mode: multiply;" points="75.9783611 82.7990937 61.1696111 72.8990937 46.3608611 62.9990937 54.6178611 63.1287009 62.8748611 63.2583082 65.697 60.0280967 68.5191389 56.807855 75.8886111 59.9084592 83.2680556 62.9990937 79.6182222 72.8990937"></polygon>
            <polygon id="Path" fill="#0099DA" points="252.087806 273.232024 256.814639 273.551057 261.551444 273.860121 261.342028 282.803021 261.132611 291.735952 257.871694 293.201511 254.610778 294.677039 250.502222 291.207553 246.403639 287.738066 249.245722 280.49003"></polygon>
            <polygon id="Path" fill="#0099DA" points="102.315 247.799094 105.256806 257.569486 108.198611 267.349849 104.100028 268.71571 100.001444 270.081571 94.5266944 269.244109 89.0619167 268.396677 89.5904444 266.711782 90.1189722 265.036858 88.8525 255.784894 87.5860278 246.532931 94.9555 247.161027"></polygon>
            <path d="M154.090778,132.977039 L163.634194,146.755287 L173.177611,160.513595 C173.325725,160.724977 173.449499,160.952399 173.546583,161.191541 C173.637385,161.430237 173.704196,161.677377 173.746028,161.929305 L175.321639,171.540181 L176.887278,181.151057 C176.918741,181.352286 176.935406,181.55555 176.937139,181.759215 C176.92922,181.963402 176.905885,182.166699 176.867333,182.367372 L175.7305,188.249547 L174.593667,194.131722 C174.513993,194.570127 174.513993,195.019299 174.593667,195.457704 L178.672306,216.125076 L182.750944,236.792447 C182.972524,237.892538 183.716948,238.815399 184.745389,239.264955 L219.538472,255.356193 L254.291667,271.457402 C254.894187,271.739778 255.405487,272.185329 255.767556,272.743505 C256.121799,273.300636 256.308695,273.947692 256.306174,274.607855 L256.306174,283.480967 C256.30956,283.899788 256.235167,284.315611 256.086667,284.707251 C255.935249,285.101299 255.715859,285.465735 255.438472,285.783988 L251.808583,289.881571 L248.188667,293.969184 C247.732066,294.492699 247.126832,294.864793 246.4535,295.035952 C245.793787,295.197395 245.101598,295.166254 244.459056,294.946224 L204.570167,280.759215 L164.681278,266.572205 C164.250666,266.413012 163.854593,266.172719 163.514528,265.86435 C163.171275,265.559519 162.896057,265.185857 162.706778,264.767674 L146.910778,230.810574 L131.12475,196.853474 C130.503933,195.504576 129.091369,194.702179 127.614528,194.859517 L112.865611,196.404834 L98.1067222,197.970091 C97.1445665,198.087261 96.2748714,198.600265 95.707029,199.385589 C95.1391867,200.170912 94.924644,201.157405 95.1150556,202.107553 L99.9515833,226.314199 L104.837972,250.520846 L94.4868056,251.049245 L84.1256667,251.577644 C81.8219423,251.696674 79.72149,250.265453 78.9899722,248.078248 L68.8083333,217.560725 L58.6266944,187.023263 C58.4744545,186.564402 58.4201008,186.078735 58.4671389,185.597583 C58.515293,185.114651 58.6611848,184.646554 58.8959444,184.221752 L60.8903889,180.612689 L62.8848333,177.003625 C63.0813178,176.646927 63.3415777,176.329285 63.6526944,176.066465 C64.000188,175.794964 64.3961304,175.591966 64.8194444,175.468278 L90.0990278,166.156495 L115.378611,156.844713 C116.384006,156.473694 117.161537,155.659083 117.485193,154.637673 C117.808848,153.616263 117.642315,152.502652 117.034,151.620544 L114.441222,147.861934 L111.848444,144.093353 C111.183873,143.131643 111.049999,141.899457 111.492535,140.817521 C111.93507,139.735586 112.894162,138.950229 114.042333,138.729607 L132.311444,135.140483 L150.580556,131.601208 C151.249631,131.468727 151.942846,131.534529 152.575,131.790634 C153.182609,132.034327 153.708332,132.445812 154.090778,132.977039 Z" id="Path" fill="#023852"></path>
            <path d="M88.3738333,264.727795 L93.1405556,266.283082 L97.91725,267.848338 C98.0469454,267.889234 98.1806871,267.915976 98.3161389,267.928097 C98.4522333,267.938343 98.5889056,267.938343 98.725,267.928097 L104.070111,266.861329 L109.425194,265.784592 C109.832337,265.706258 110.254005,265.788428 110.601917,266.013897 C110.95284,266.241554 111.197265,266.600915 111.280028,267.010876 L112.805778,273.690634 L114.321556,280.370393 C114.424804,280.811841 114.334056,281.27636 114.07225,281.646526 C113.803972,282.010767 113.395205,282.245841 112.945389,282.294562 L105.286722,283.082175 L97.6280556,283.859819 C97.2394707,283.899183 96.8497783,283.796471 96.5311111,283.570695 C96.2108659,283.324361 95.9911244,282.970025 95.9128333,282.573716 L95.9128333,282.573716 C95.8265957,282.162537 95.5786458,281.803277 95.22475,281.576737 C94.8704908,281.348489 94.4402923,281.269638 94.0280833,281.357402 L88.5732778,282.543807 L83.1184722,283.720242 L82.9589167,283.720242 L82.7694444,283.720242 L72.0393333,283.80997 L61.29925,283.899874 C60.7503213,283.9079 60.236698,283.629859 59.9435412,283.165807 C59.6503843,282.701755 59.6199653,282.118607 59.86325,281.626586 L61.03,279.223867 L62.19675,276.821148 C62.3031164,276.609749 62.4525832,276.422961 62.6355278,276.27281 C62.8167568,276.128303 63.0279975,276.026115 63.2538056,275.973716 L71.8,273.90997 L80.3461944,271.846224 C80.5007171,271.809018 80.6486721,271.748506 80.7849722,271.666767 C80.926332,271.583697 81.054129,271.479467 81.1639167,271.357704 L83.9062778,268.2571 L86.6586111,265.156495 C86.8618749,264.9249 87.1289858,264.75843 87.4264722,264.677946 C87.7400108,264.598151 88.0704053,264.615536 88.3738333,264.727795 Z" id="Path" fill="#023852"></path>
            <path d="M253.643472,294.208459 L256.345944,289.981269 L259.058389,285.744109 C259.131986,285.631861 259.192227,285.511409 259.237889,285.385196 C259.275568,285.255193 259.298974,285.121475 259.307694,284.986405 L259.616833,279.5429 L259.916,274.099396 C259.941264,273.683614 260.127212,273.293934 260.434556,273.012689 C260.736822,272.731984 261.139343,272.584668 261.551444,272.603927 L268.402361,272.803323 L275.253278,273.002719 C275.705479,273.017051 276.130018,273.223828 276.420028,273.570997 C276.714776,273.918416 276.842348,274.377563 276.769056,274.82719 L275.612278,282.434139 L274.445528,290.031118 C274.324057,290.831411 273.618995,291.411656 272.810083,291.377039 L272.810083,291.377039 C272.390638,291.360669 271.981814,291.511251 271.67325,291.79577 C271.362091,292.082513 271.175896,292.479871 271.154694,292.902417 L270.935306,298.475529 L270.715917,304.04864 C270.715917,304.04864 270.715917,304.158308 270.715917,304.208157 L270.715917,304.367674 L268.113167,314.776133 L265.510417,325.184592 C265.38085,325.71989 264.979423,326.147723 264.453361,326.311178 C263.932136,326.482679 263.359035,326.365051 262.947556,326.002115 L260.953111,324.267372 L258.958667,322.532628 C258.778214,322.384984 258.634787,322.197208 258.539833,321.98429 C258.4383,321.773205 258.390349,321.540361 258.400222,321.306344 L258.549806,312.522961 L258.689417,303.739577 C258.695325,303.577882 258.675121,303.416293 258.629583,303.261027 C258.577933,303.106813 258.507605,302.959495 258.420167,302.822356 L256.106611,299.382779 L253.793056,295.943202 C253.616721,295.688397 253.52275,295.385675 253.523806,295.075831 C253.47864,294.781223 253.520219,294.479842 253.643472,294.208459 Z" id="Path" fill="#023852"></path>
            <path d="M74.7218611,17.6166163 L70.5734167,21.6643505 L66.4249722,25.7120846 C66.2690454,25.8664435 66.14977,26.0538305 66.0759444,26.260423 C65.9993122,26.4638258 65.9719729,26.6824864 65.9961667,26.8984894 L65.9961667,27.2873112 L65.9961667,27.6761329 C66.0274303,28.0779448 65.8983656,28.4757972 65.6371667,28.7827795 L62.3563056,32.5114804 L59.0854167,36.2302115 C58.7850004,36.5748546 58.6626515,37.0399076 58.7545834,37.4877217 C58.8465152,37.9355358 59.1421969,38.314813 59.5541111,38.5132931 L60.94025,39.1613293 L62.3164167,39.8193353 C62.6216204,39.9747567 62.8798087,40.2087902 63.0643333,40.497281 C63.3417553,40.8728962 63.5949001,41.265841 63.8222222,41.673716 L62.5457778,48.9716012 L61.2693333,56.2694864 C60.9203056,56.4589124 60.8305556,56.7081571 60.9103333,56.9574018 C61.0286365,57.2404366 61.2601023,57.4609987 61.5485556,57.5655589 L69.6659444,61.0450151 L77.7833333,64.5145015 C77.9031428,64.5706223 78.0310085,64.607627 78.1622778,64.6241692 C78.2944919,64.6441213 78.4289526,64.6441213 78.5611667,64.6241692 L90.3682778,62.9492447 L102.185361,61.2743202 C102.524383,61.2276583 102.835591,61.0614853 103.062917,60.8057402 C103.292078,60.5533596 103.426079,60.2290136 103.441861,59.8885196 L103.521639,57.7151057 L103.591444,55.5516616 C103.59878,55.3320319 103.656799,55.1170703 103.760972,54.923565 L107.271194,48.2039275 L110.781417,41.48429 C110.843559,41.3723574 110.887328,41.2511789 110.911056,41.1253776 C110.925801,40.9961896 110.925801,40.865744 110.911056,40.7365559 L110.611889,35.4226586 L110.322694,30.1087613 C110.313303,29.9377652 110.276258,29.7694203 110.213,29.6102719 C110.143744,29.4508338 110.045711,29.30551 109.923806,29.181571 L103.880639,22.8407855 L97.8275,16.4900302 C97.7102041,16.3709984 97.5757524,16.2701842 97.4286111,16.1909366 C97.2770739,16.1203715 97.1156656,16.0733056 96.9499444,16.0513595 L87.9151111,14.9546828 L78.8802778,13.8679758 C78.6471165,13.8473821 78.4122711,13.8780067 78.1921944,13.9577039 C77.9700067,14.0371103 77.7711881,14.1707659 77.6138056,14.3465257 L76.2077222,15.9516616 L74.7916667,17.5468278 L74.7916667,17.5468278 L74.7218611,17.6166163 Z" id="Path" fill="#0099DA"></path>
            <path d="M86.7583333,52.4909366 L86.42925,50.0084592 L86.1001667,47.5259819 C86.0700318,47.2686346 86.0903551,47.0078823 86.16,46.7583082 C86.2324922,46.5053118 86.3582999,46.2707546 86.5289722,46.0703927 L89.0220278,43.0794562 L91.5250556,40.0885196 C91.9489074,39.5890837 92.077788,38.9031514 91.8641111,38.2839879 L91.6846111,37.7456193 L91.5051111,37.2072508 C91.4066289,36.8920834 91.2197281,36.6118006 90.9666111,36.3996979 C90.7218506,36.1785511 90.4222523,36.0270672 90.0990278,35.9610272 L88.6031944,35.6619335 L87.1173333,35.3728097 C86.78439,35.31106 86.4412027,35.3350772 86.1201111,35.4425982 C85.7959992,35.5598469 85.5122431,35.7674227 85.3023889,36.0407855 L83.7467222,38.0347432 L82.2010278,39.978852 C81.5740455,40.7801779 80.4202535,40.9310215 79.60825,40.3178248 L79.06975,39.9190332 L78.53125,39.5202417 C77.7026168,38.9072457 77.5244323,37.740422 78.1323611,36.9081571 L79.7678056,34.6549849 L81.3932778,32.4018127 C81.5454181,32.1966391 81.6540104,31.962544 81.7123889,31.7138973 C81.7621251,31.4604216 81.7621251,31.1996992 81.7123889,30.9462236 L81.0841389,27.6960725 L80.4558889,24.4359517 C80.393636,24.1024296 80.4211684,23.7583582 80.5356667,23.4389728 C80.6467401,23.1249643 80.839501,22.8462175 81.0941111,22.6314199 L81.0941111,22.6314199 C81.5607738,22.2382932 81.8094773,21.6445194 81.76225,21.0362538 C81.7136964,20.4300022 81.3708736,19.8860902 80.8448056,19.5806647 L78.7506389,18.3543807 L76.6664444,17.1181269 C76.1872078,16.8384058 75.8574773,16.3598322 75.7668723,15.8124801 C75.6762672,15.265128 75.8342018,14.7058689 76.19775,14.2867069 L76.91575,13.4592145 L77.6237778,12.6217523 C77.8328267,12.3856811 78.0964322,12.2042826 78.3916389,12.0933535 C78.6869197,11.9803631 79.0064977,11.9460083 79.3190556,11.9936556 L88.5433611,13.3096677 L97.7277778,14.6655589 C97.9325528,14.6977493 98.1310565,14.7616586 98.3161389,14.8549849 C98.5044343,14.9492147 98.6735227,15.0776905 98.81475,15.2338369 L105.077306,21.8039275 L111.329889,28.3740181 C111.645378,28.7106363 111.829406,29.149366 111.848444,29.6102719 L112.047889,35.6519637 L112.257306,41.7036254 C112.282327,41.868847 112.282327,42.0368932 112.257306,42.2021148 C112.218253,42.3686691 112.157924,42.5295066 112.077806,42.6806647 L108.50775,49.0513595 L104.937694,55.4220544 C104.844782,55.548401 104.767751,55.6856835 104.708333,55.8308157 C104.667428,55.9604795 104.640679,56.0941886 104.628556,56.2296073 L104.568722,56.9673716 L104.508889,57.705136 C104.465509,58.2923568 104.147203,58.8245769 103.650317,59.1407 C103.153431,59.4568231 102.536372,59.5196901 101.985917,59.3102719 L94.9355556,56.6782477 L87.8951667,54.0362538 C87.575652,53.920575 87.2955458,53.7165968 87.0874167,53.4480363 C86.8933766,53.1645204 86.7796658,52.8338061 86.7583333,52.4909366 L86.7583333,52.4909366 Z" id="Path" fill="#023852"></path>
            <path d="M66.1756667,30.9661631 L64.0515833,33.518429 L61.9275,36.0806647 C61.7365032,36.3074738 61.6655189,36.6119242 61.7365166,36.899789 C61.8075143,37.1876538 62.011931,37.4242137 62.2865,37.5362538 L63.3734722,37.9848943 L64.4504722,38.4335347 L65.3180556,34.694864 L66.1756667,30.9661631 Z" id="Path" fill="#66C2E9" style="mix-blend-mode: multiply;"></path>
            <path d="M89.5106667,39.3507553 L88.3738333,38.9320242 L87.2270278,38.5132931 C86.9026233,38.4101636 86.5542101,38.4101636 86.2298056,38.5132931 C85.8851199,38.6115352 85.5810344,38.8177037 85.3622222,39.1015106 L83.7866111,41.0954683 L82.211,43.089426 L84.2054444,41.4444109 L86.1998889,39.789426 C86.3427307,39.6703016 86.5045257,39.5759442 86.6785556,39.5102719 C86.8534037,39.4400172 87.0387992,39.3995772 87.2270278,39.3906344 L88.4336667,39.3906344 L89.5106667,39.3507553 Z" id="Path" fill="#66C2E9" style="mix-blend-mode: multiply;"></path>
            <path d="M77.6237778,37.4564955 L75.3301667,40.1483384 L73.0365556,42.8401813 C72.8670888,43.0388073 72.6463226,43.1870984 72.3983333,43.2688822 C72.1478069,43.343406 71.8809987,43.343406 71.6304722,43.2688822 L67.4122222,42.2719033 L63.2039444,41.2749245 L62.7551944,43.3287009 L62.3064444,45.3824773 C62.230327,45.7218291 62.2836706,46.0773666 62.4560278,46.3794562 C62.6193858,46.6898051 62.8990673,46.9228162 63.2338611,47.0274924 L63.8820556,47.2567976 L64.5402222,47.4861027 C64.8914634,47.6077812 65.1812963,47.8617703 65.3479722,48.1939577 C65.5123449,48.5252388 65.5444339,48.9066481 65.4377222,49.2607251 L65.4377222,49.2607251 C65.3151125,49.6417232 65.0409955,49.9554383 64.6798333,50.1280967 C64.317782,50.2880771 63.9050513,50.2880771 63.543,50.1280967 L63.27375,50.0283988 L63.0144722,49.9187311 C62.5988813,49.7348526 62.1205115,49.7600285 61.7265279,49.9865138 C61.3325444,50.212999 61.0701353,50.6136671 61.0200278,51.0652568 L60.7308333,53.836858 L60.40175,56.4489426 C60.3160682,57.067807 60.6492126,57.6689452 61.2194722,57.9244713 L69.19725,61.6033233 L77.1750278,65.292145 C77.3625296,65.378759 77.5668158,65.4230102 77.7733611,65.4218347 C77.9800096,65.4240132 78.184514,65.3797147 78.3716944,65.292145 L80.775,64.1356495 L83.2281667,62.9990937 C83.3934996,62.9218016 83.5424542,62.8134974 83.6669444,62.6800604 C83.7943831,62.5452847 83.8928103,62.3858037 83.9561389,62.2114804 L84.5445,60.6561934 L85.1328611,59.1108761 C85.2111283,58.9182864 85.2419108,58.7097004 85.2226111,58.502719 C85.2096864,58.2966325 85.1518247,58.0958673 85.0530833,57.9145015 L81.9018611,52.1320242 L78.7805556,46.3495468 C78.6508277,46.111873 78.5919931,45.8419919 78.6110278,45.5719033 C78.630963,45.3058539 78.724152,45.0505093 78.8802778,44.834139 L80.8747222,42.0824773 L82.8691667,39.3407855 C83.1763994,38.9124276 83.2260755,38.3508419 82.9988056,37.8752266 C82.7696527,37.4024162 82.2974419,37.0953622 81.7722222,37.0776435 L80.2863611,37.0178248 L78.7805556,36.958006 C78.5645937,36.9472445 78.3491883,36.9882641 78.1523056,37.0776435 C77.9516945,37.1658082 77.7716847,37.2948403 77.6237778,37.4564955 L77.6237778,37.4564955 Z" id="Path" fill="#023852"></path>
            <path d="M73.50525,60.058006 L77.2548056,55.3422961 L81.0043611,50.6265861 C81.1860794,50.3984979 81.4052681,50.2029619 81.6525556,50.0483384 C81.8974463,49.8955231 82.1675831,49.7874947 82.4503333,49.7293051 L86.9478056,48.7323263 L91.45525,47.7353474 C91.9706395,47.6313491 92.505344,47.683418 92.9909722,47.8848943 L98.2463333,50.1480363 L103.511667,52.421148 C104.134897,52.6824975 104.624646,53.1865285 104.867889,53.8169184 C105.126614,54.4391436 105.126614,55.138802 104.867889,55.7610272 L104.867889,55.7610272 C104.812444,55.8872626 104.765795,56.0171796 104.728278,56.1498489 C104.728278,56.2794562 104.728278,56.4190332 104.658472,56.5586103 L104.658472,56.9175227 L104.658472,57.2864048 C104.566714,58.3964145 103.754908,59.3135308 102.664028,59.539577 L89.75,62.0619335 L76.9855556,64.5244713 C76.7407847,64.5589765 76.4923819,64.5589765 76.2476111,64.5244713 C76.0016173,64.4954274 75.7603356,64.4351217 75.5296111,64.3450151 L75.031,64.1356495 L74.5224167,63.926284 C73.792965,63.6181598 73.2496288,62.9867006 73.0538853,62.2195737 C72.8581419,61.4524467 73.0325198,60.6379419 73.5251944,60.0181269 L73.50525,60.058006 Z" id="Path" fill="#66C2E9" style="mix-blend-mode: multiply;"></path>
            <path d="M81.6425833,55.0132931 L78.2719722,59.1607251 L74.8913889,63.3181269 C74.6461308,63.615405 74.4538545,63.9526494 74.3229722,64.3151057 C74.1923974,64.6833288 74.1249676,65.0709556 74.1234878,65.4616314 L74.1234878,89.5087613 C74.1218622,89.8467969 74.1723155,90.1830701 74.2731111,90.5057402 C74.3632507,90.8255166 74.5047004,91.1285491 74.6919444,91.4030211 L91.8242222,117.493958 L108.966472,143.564955 C109.7749,144.77969 111.26033,145.354555 112.676139,145.000604 L132.072111,140.115408 L151.468083,135.220242 C152.433254,134.976173 153.24476,134.324943 153.691889,133.43565 C154.143085,132.546145 154.179563,131.503128 153.791611,130.58429 L147.509111,115.49003 L141.226611,100.39577 L134.944111,86.6274924 L128.641667,72.8691843 C128.33887,72.1887082 127.815373,71.630213 127.155806,71.2839879 L109.694444,61.8126888 L92.1931944,52.3812689 C91.8096333,52.1655237 91.3848899,52.0330361 90.9466667,51.9924471 C90.5088656,51.940707 90.0651785,51.974568 89.6403056,52.092145 L86.519,52.9694864 L83.3976944,53.8468278 C83.0446901,53.9360703 82.708094,54.0807713 82.4004722,54.2755287 C82.111718,54.4814065 81.8561369,54.730201 81.6425833,55.0132931 Z" id="Path" fill="url(#radialGradient-1)"></path>
            <path d="M144.796667,144.362538 L109.734333,149.347432 L74.6819722,154.332326 C71.7342732,154.747431 69.0057298,152.701523 68.5789722,149.756193 L65.697,129.607251 L62.825,109.458308 C62.6229799,108.043527 62.9919084,106.606494 63.8504904,105.463868 C64.7090723,104.321241 65.9868469,103.566792 67.40225,103.366767 L102.464583,98.3818731 L137.516944,93.3969789 C140.447375,92.9927892 143.158377,95.0188795 143.6,97.9432024 L146.481972,118.102115 L149.353972,138.261027 C149.769179,141.208007 147.722771,143.935884 144.776722,144.362538 L144.796667,144.362538 Z" id="Path" fill="#9E9D8E"></path>
            <path d="M86.3594444,85.610574 L105.386444,94.7129909 L124.413444,103.795468 C124.605194,103.889644 124.692095,104.115533 124.612889,104.313897 L116.834556,123.844713 L109.04625,143.385498 C109.024989,143.447711 108.987044,143.502891 108.936556,143.545015 C108.880806,143.588555 108.816097,143.619199 108.747083,143.634743 L99.1438333,145.429305 L89.5306111,147.223867 C89.3725965,147.255081 89.21131,147.188223 89.12175,147.054381 C89.036623,146.920541 89.036623,146.74955 89.12175,146.61571 L100.510028,128.351057 L111.888333,110.086405 C111.937386,110.005713 111.958419,109.911088 111.948167,109.817221 C111.931416,109.72574 111.886018,109.641949 111.818528,109.577946 L98.8546389,97.9332326 L85.89075,86.2885196 C85.7062485,86.1673841 85.6549043,85.9196528 85.7760694,85.7351964 C85.8972346,85.5507399 86.1450263,85.4994082 86.3295278,85.6205438 L86.3594444,85.610574 Z" id="Path" fill="#023852" opacity="0.2" style="mix-blend-mode: multiply;"></path>
            <path d="M144.308028,102.738671 L145.48475,110.883988 L146.6515,119.029305 L135.103667,133.345921 L123.545861,147.662538 L120.225111,148.071299 L116.894389,148.470091 C119.277429,141.606936 122.037278,134.880406 125.161361,128.321148 C130.197333,117.803021 137.04825,106.367674 144.308028,102.738671 Z" id="Path" fill="#023852" opacity="0.2" style="mix-blend-mode: multiply;"></path>
            <path d="M110.691667,132.348943 L109.744306,134.911178 L108.806917,137.463444 C108.690969,137.772425 108.502936,138.049278 108.258444,138.270997 C108.008037,138.485893 107.710989,138.639501 107.390861,138.719637 L101.287861,140.145317 L95.1549444,141.570997 C95.0860267,141.581668 95.018912,141.601797 94.9555,141.630816 L94.7560556,141.710574 L92.0336389,142.996677 L89.30125,144.292749 C88.7447842,144.558562 88.3426201,145.066794 88.2119341,145.669363 C88.0812481,146.271931 88.2367423,146.901049 88.6331111,147.373414 L88.6331111,147.373414 C88.8318705,147.608138 89.0805902,147.795484 89.3610833,147.921752 C89.6477898,148.041601 89.9585422,148.092811 90.2685556,148.071299 L92.3228333,147.951662 L94.3172778,147.832024 C94.8559486,147.799442 95.3848342,147.986485 95.7831944,148.350453 C96.1767395,148.719013 96.4095531,149.227497 96.4313889,149.766163 L96.48125,152.019335 L96.5410833,154.272508 C96.5653533,155.223724 97.2585142,156.025257 98.1964722,156.186707 L103.382028,157.064048 L108.557611,157.94139 C108.703489,157.956322 108.850511,157.956322 108.996389,157.94139 C109.141827,157.937658 109.286082,157.91418 109.425194,157.871601 L111.888333,157.193656 L114.361444,156.51571 C114.596156,156.452388 114.816308,156.344032 115.009639,156.196677 C115.209951,156.056156 115.379592,155.876381 115.50825,155.668278 L117.034,153.295468 L118.669444,150.942598 C118.769349,150.784692 118.846558,150.613532 118.898806,150.434139 C118.955165,150.253516 118.982101,150.065006 118.978583,149.875831 L118.978583,144.123263 C118.977531,143.926967 119.007829,143.731761 119.068333,143.545015 C119.125035,143.3576 119.209038,143.179556 119.317639,143.016616 L121.182444,140.215106 L123.057222,137.413595 C123.394019,136.908249 123.48212,136.277007 123.296556,135.698792 C123.108187,135.117296 122.663455,134.654299 122.089917,134.442598 L117.672222,132.807553 L113.2645,131.172508 C112.234757,130.796584 111.094568,131.322012 110.711611,132.348943 L110.691667,132.348943 Z" id="Path" fill="#0099DA"></path>
            <path d="M85.2126389,57.4259819 L89.4209167,56.0800604 L93.6291944,54.734139 C93.9867176,54.6187884 94.3604444,54.5615649 94.7361111,54.564534 C95.1108014,54.5735281 95.4814465,54.6442704 95.8330556,54.7740181 L108.697222,59.3900302 L121.571361,64.0060423 C121.802605,64.0859723 122.02354,64.1930662 122.229528,64.3250755 C122.440487,64.4579014 122.637593,64.61154 122.817889,64.7836858 L134.216139,75.9697885 L145.594444,87.1459215 C145.880187,87.4356031 146.113056,87.7730118 146.282528,88.1429003 C146.454572,88.5001763 146.562579,88.8848604 146.601639,89.2794562 L147.0105,93.3870091 L147.419361,97.5045317 C147.455673,97.8374004 147.438843,98.1739234 147.3695,98.5015106 C147.305665,98.8499451 147.187909,99.1863066 147.020472,99.4984894 L135.323056,118.441088 L123.635611,137.383686 L116.864472,134.861329 L110.083361,132.348943 L114.560889,119.029305 L119.028444,105.719637 C119.578665,104.107892 118.854976,102.337414 117.333167,101.572205 L99.9316389,92.7389728 L82.5400833,83.8957704 C82.1651782,83.7218386 81.8267634,83.4782395 81.5428611,83.1779456 C81.2680949,82.8856652 81.0454818,82.5484549 80.8846944,82.1809668 C79.6482263,79.1577967 78.9724006,75.9348948 78.89025,72.6697885 C78.749784,67.5575511 80.400599,62.5569433 83.55725,58.5326284 C83.765558,58.2659911 84.0145941,58.0338384 84.2951944,57.844713 C84.5789831,57.6612174 84.8880609,57.5201511 85.2126389,57.4259819 Z" id="Path" fill="url(#radialGradient-2)"></path>
            <path d="M129.818389,193.902417 L124.403472,177.352568 L118.988556,160.792749 C118.912269,160.568048 118.739868,160.388974 118.51819,160.304178 C118.296512,160.219383 118.048579,160.237673 117.84175,160.354079 L95.2945556,173.314804 L72.7473611,186.275529 C72.4362537,186.448803 72.2801059,186.809191 72.3664794,187.154601 C72.4528529,187.50001 72.7602661,187.744536 73.1163333,187.751057 L88.2441944,188.179758 L103.372056,188.618429 C103.703072,188.632775 103.990765,188.850178 104.094875,189.164646 C104.198985,189.479115 104.097839,189.825186 103.84075,190.034139 L100.958778,192.267372 L98.0768056,194.510574 C97.7950626,194.72728 97.6933814,195.105774 97.8286117,195.434444 C97.9638419,195.763113 98.3024799,195.960527 98.6551944,195.916314 C102.1355,195.497583 108.288361,194.819637 114.261722,194.450755 C120.235083,194.081873 126.058861,194.051964 128.851083,194.909366 C129.13212,194.996197 129.438075,194.914887 129.638889,194.7 C129.842855,194.48843 129.912058,194.180938 129.818389,193.902417 L129.818389,193.902417 Z" id="Path" fill="#023852" opacity="0.3" style="mix-blend-mode: multiply;"></path>
            <path d="M74.0736667,77.6845921 L73.50525,69.3099698 L72.9268611,60.9353474 C72.8382165,59.6103256 73.4611569,58.3381663 74.5623056,57.5954683 L82.6996389,52.1021148 L90.827,46.6087613 C91.5675327,46.1174005 92.4559653,45.8988713 93.34,45.9906344 L97.8673889,46.5090634 L102.394778,47.0274924 C103.044182,47.1046407 103.662563,47.3484981 104.189778,47.7353474 C104.71644,48.1166397 105.12997,48.6334259 105.386444,49.2308157 L107.7,54.494864 L110.0335,59.7589124 L117.48275,62.321148 L124.941972,64.8933535 C125.260111,65.0022529 125.444977,65.3333985 125.370674,65.6612763 C125.296371,65.9891541 124.986798,66.2083058 124.652778,66.1694864 L107.191417,64.1755287 L89.7400278,62.181571 L83.3677778,65.8006042 L76.9656111,69.4694864 L75.5196389,73.5670695 L74.0736667,77.6845921 Z" id="Path" fill="#0099DA"></path>
            <path d="M83.2181944,132.099698 L84.5345278,131.910272 L85.8508611,131.720846 C86.4973689,131.623449 86.9432889,131.021604 86.8480833,130.374924 L86.4591667,127.623263 L86.0602778,124.871601 C86.0179716,124.561338 85.8526679,124.281109 85.6015556,124.093958 C85.3455836,123.907596 85.0282639,123.825612 84.7140278,123.864653 L83.3976944,124.054079 L82.0813611,124.243505 C81.7724833,124.289961 81.4936596,124.454355 81.3035278,124.702115 C81.1081148,124.953687 81.0251367,125.274698 81.0741667,125.589426 L81.4630833,128.341088 L81.8619722,131.092749 C81.9593926,131.739099 82.5613846,132.18491 83.2082222,132.089728 L83.2181944,132.099698 Z" id="Path" fill="#FFE700"></path>
        </g>
    </g>
</svg>