<?xml version="1.0" encoding="UTF-8"?>
<svg width="440px" height="330px" viewBox="0 0 440 330" version="1.1" xmlns="http://www.w3.org/2000/svg" xmlns:xlink="http://www.w3.org/1999/xlink">
    <title>Graphic elements / Icons / Rich icons / analytics-devices</title>
    <g id="Graphic-elements-/-Icons-/-Rich-icons-/-analytics-devices" stroke="none" stroke-width="1" fill="none" fill-rule="evenodd">
        <g id="Analytics-on-devices" transform="translate(0.000000, 176.000000)" fill-rule="nonzero">
            <path d="M228.558352,145.182745 L228.558352,124.810458 L191.425172,124.810458 L191.425172,145.19281 C191.316392,146.289756 190.998543,147.35574 190.488787,148.333203 C189.488673,150.342513 187.394878,151.570734 185.152403,151.463529 L234.790847,151.463529 C232.54772,151.573382 230.452582,150.344373 229.454462,148.333203 C228.957463,147.349808 228.65329,146.280426 228.558352,145.182745 L228.558352,145.182745 Z" id="Path" fill="#9DADB7"></path>
            <path d="M241.647597,150.799207 L176.755149,150.799207 C175.950819,150.797245 175.178919,151.116048 174.610526,151.684967 C174.043893,152.25071 173.724485,153.018244 173.724485,153.818824 L244.668192,153.818824 C244.668192,153.018244 244.348784,152.25071 243.782151,151.684967 C243.216223,151.118519 242.448439,150.79992 241.647597,150.799207 Z" id="Path" fill="#CED6DB"></path>
            <g id="Group" opacity="0.5" transform="translate(191.304348, 130.849673)" fill="#8F9C9B">
                <polygon id="Path" style="mix-blend-mode: multiply;" points="0.100686499 0.654248366 18.6672769 0.654248366 37.2237986 0.654248366 37.2237986 6.64313725 37.2237986 12.6219608 18.6672769 12.6219608 0.100686499 12.6219608 0.100686499 6.64313725"></polygon>
            </g>
            <path d="M311.312586,132.319223 L108.630664,132.319223 C106.886091,132.321893 105.212202,131.630275 103.978601,130.397078 C102.745001,129.163881 102.053157,127.490538 102.055827,125.746536 L102.055827,6.83437908 C102.06138,3.20668664 105.001785,0.267242049 108.630664,0.261699346 L311.312586,0.261699346 C314.936891,0.278230955 317.870877,3.21125801 317.887414,6.83437908 L317.887414,125.746536 C317.88187,129.374228 314.941464,132.313673 311.312586,132.319223 L311.312586,132.319223 Z" id="Path" fill="#023852"></path>
            <polygon id="Path" fill="#0099DA" points="108.821968 120.089804 210.313959 120.089804 311.795881 120.089804 311.795881 63.3614379 311.795881 6.62300654 210.313959 6.62300654 108.821968 6.62300654 108.821968 63.3614379"></polygon>
            <path d="M213.384897,125.816993 C213.384897,124.195281 212.239856,122.799012 210.649117,122.480968 C209.058377,122.162924 207.464214,123.011531 206.840275,124.508497 C206.216335,126.005462 206.736094,127.734582 208.082104,128.639784 C209.428115,129.544986 211.226144,129.374596 212.378032,128.23268 C213.020544,127.592601 213.382675,126.723772 213.384897,125.816993 Z" id="Path" fill="#4E7486"></path>
            <g id="Group" opacity="0.2" transform="translate(108.741419, 6.039216)" fill="#FFFFFF">
                <path d="M0.0805491991,0.593856209 L15.183524,14.9369935 L30.2864989,29.2700654 L75.1221968,71.6754248 C90.0640732,85.8071895 105.016018,99.932244 119.978032,114.050588 L202.983982,114.050588 L202.983982,0.593856209 L0.0805491991,0.593856209 Z" id="Path"></path>
            </g>
            <g id="Group" style="mix-blend-mode: multiply;" transform="translate(101.693364, 39.254902)" fill="#06233C" opacity="0.2">
                <path d="M216.153776,0.221437908 L146.921739,0.221437908 C146.199378,0.220037249 145.505283,0.501921259 144.988558,1.00653595 C144.735573,1.26098713 144.533894,1.56169767 144.394508,1.89228758 C144.248843,2.23270064 144.172998,2.59903095 144.172998,2.96928105 L144.172998,92.6918954 L216.173913,92.6918954 L216.173913,0.19124183 L216.153776,0.221437908 Z" id="Path"></path>
                <path d="M37.2540046,0.221437908 L0.533638444,0.221437908 L0.533638444,92.7220915 L43.023341,92.7220915 L43.023341,6.03921569 C43.0178197,2.83236063 40.421619,0.232510394 37.21373,0.221437908 L37.2540046,0.221437908 Z" id="Path"></path>
            </g>
            <path d="M40.7578947,154.000011 L5.17528604,154.000011 C3.85797284,154.002679 2.59384175,153.480736 1.66235872,152.549557 C0.730875688,151.618378 0.20876145,150.35466 0.21143138,149.037778 L0.21143138,71.4640523 C0.20876145,70.1471696 0.730875688,68.8834516 1.66235872,67.952273 C2.59384175,67.0210944 3.85797284,66.4991507 5.17528604,66.5018198 L40.7578947,66.5018198 C42.0752079,66.4991507 43.339339,67.0210944 44.2708221,67.952273 C45.2023051,68.8834516 45.7244193,70.1471696 45.7217494,71.4640523 L45.7217494,149.067974 C45.7106392,151.799042 43.4898726,154.005574 40.7578947,154.000011 L40.7578947,154.000011 Z" id="Path" fill="#023852"></path>
            <polygon id="Path" fill="#0099DA" points="40.2846682 139.666928 22.9665904 139.666928 5.65858124 139.666928 5.65858124 108.957516 5.65858124 78.2481046 22.9665904 78.2481046 40.2846682 78.2481046 40.2846682 108.957516"></polygon>
            <path d="M25.9066362,147.215948 C25.9052072,146.437202 25.5936191,145.691084 25.0407323,145.142484 C23.893676,144.001062 22.0395047,144.001062 20.8924485,145.142484 C19.9613517,146.087196 19.7784882,147.538232 20.4461005,148.684287 C21.1137128,149.830342 22.4663892,150.387462 23.747821,150.044151 C25.0292527,149.70084 25.9219441,148.542158 25.9267735,147.215948 L25.9066362,147.215948 Z" id="Path" fill="#4E7486"></path>
            <path d="M17.0462243,73.6884967 L28.8869565,73.6884967 C29.1560371,73.6873801 29.413475,73.578639 29.6018307,73.3865359 C29.7878431,73.1990579 29.8927093,72.9460153 29.8938384,72.6819608 L29.8938384,71.6754248 C29.8953688,71.4078846 29.7903022,71.1507366 29.6018307,70.9607843 C29.4118163,70.7723744 29.1545842,70.6673421 28.8869565,70.668872 L17.0462243,70.668872 C16.7820834,70.6700007 16.5289581,70.7748327 16.3414188,70.9607843 C16.1492529,71.1490784 16.0404763,71.4064322 16.0393593,71.6754248 L16.0393593,72.6819608 C16.0431421,72.947454 16.151711,73.2006988 16.3414188,73.3865359 C16.5273167,73.5761817 16.7806442,73.6847151 17.0462243,73.6884967 L17.0462243,73.6884967 Z" id="Path" fill="#4E7486"></path>
            <polygon id="Path" fill="#FFFFFF" opacity="0.2" points="40.3249428 121.408366 40.3249428 78.2481046 5.60823799 78.2481046 5.60823799 86.7030065 22.9665904 104.055686"></polygon>
            <path d="M24.6983982,127.95085 C24.7071706,126.642 25.2402708,125.391255 26.1784897,124.478301 C27.0934089,123.556907 28.3383796,123.0387 29.6370709,123.0387 C30.9357623,123.0387 32.180733,123.556907 33.0956522,124.478301 C34.680088,126.040747 35.0131817,128.473982 33.9069131,130.404527 C32.8006444,132.335072 30.5325012,133.278683 28.3827746,132.702723 C26.233048,132.126764 24.7409587,130.175703 24.7487414,127.95085" id="Path" fill="#023852"></path>
            <path d="M24.2754586,108.071765 C24.2679627,106.81619 25.0211561,105.680881 26.1811351,105.199371 C27.3411141,104.717861 28.6772202,104.985897 29.5615561,105.877516 C30.7710834,107.094418 30.7710834,109.059177 29.5615561,110.276078 C28.6723296,111.158611 27.3391995,111.419469 26.1827471,110.937221 C25.0262948,110.454973 24.2737844,109.324389 24.2754586,108.071765" id="Path" fill="#FFE700"></path>
            <path d="M13.5121153,101.851373 C13.511158,101.10635 14.0372634,100.464604 14.7682004,100.319208 C15.4991375,100.173813 16.2309133,100.565347 16.5153091,101.253992 C16.7997049,101.942636 16.5573503,102.736202 15.9366895,103.148624 C15.3160288,103.561045 14.4902784,103.477222 13.9652174,102.948497 C13.6736118,102.658 13.5104481,102.262911 13.5121153,101.851373" id="Path" fill="#FFFFFF"></path>
            <path d="M9.20274422,125.293595 C9.20618748,121.881267 11.5019759,118.896723 14.8000482,118.017054 C18.0981205,117.137384 21.5760252,118.581957 23.2794377,121.539029 C24.9828501,124.4961 24.4869845,128.228256 22.0704805,130.638301 C20.6615877,132.061312 18.7419447,132.861989 16.7391304,132.861989 C14.7363161,132.861989 12.8166732,132.061312 11.4077803,130.638301 C9.99429541,129.218581 9.20137591,127.296651 9.20274422,125.293595" id="Path" fill="#FFE700"></path>
            <path d="M21.9999563,117.362092 C21.9940657,115.852177 22.5922296,114.402557 23.6613272,113.335948 C24.7161162,112.273795 26.1513531,111.676431 27.6485126,111.676431 C29.1456721,111.676431 30.580909,112.273795 31.6356979,113.335948 C33.858255,115.560249 33.858255,119.163934 31.6356979,121.388235 C30.580909,122.450388 29.1456721,123.047752 27.6485126,123.047752 C26.1513531,123.047752 24.7161162,122.450388 23.6613272,121.388235 C22.5922296,120.321626 21.9940657,118.872006 21.9999563,117.362092" id="Path" fill="#9DADB7"></path>
            <path d="M9.86726933,110.46732 C9.86170564,106.663363 12.9389763,103.573586 16.7441648,103.562484 C20.5454171,103.579122 23.6165697,106.667278 23.6109916,110.46732 C23.6132538,112.297 22.888986,114.052775 21.597254,115.34902 C20.3092689,116.637937 18.5615737,117.362157 16.7391304,117.362157 C14.9166872,117.362157 13.168992,116.637937 11.8810069,115.34902 C10.5929997,114.050299 9.8693947,112.296131 9.86726933,110.46732" id="Path" fill="#9E9D8E"></path>
            <path d="M31.9377574,97.2615686 C31.9421898,95.5430082 31.3676107,93.8730188 30.3066362,92.5207843 C29.6013162,91.6208048 28.7078818,90.8856799 27.6887872,90.3667974 C26.6292341,89.8364613 25.4604588,89.5607343 24.2755149,89.561512 C22.8715519,89.5561266 21.4940175,89.9431047 20.2983982,90.6788235 C19.1335269,91.3943789 18.1783598,92.4047891 17.5295195,93.6078431 C16.9206739,94.736687 16.6023409,95.9992258 16.6032019,97.2816993 L16.6032019,97.2816993 L16.6032019,97.412549 L16.6032019,97.412549 C16.6505352,99.3888268 17.4583664,101.270747 18.8585812,102.666667 C20.2550561,104.100371 22.1632293,104.922029 24.1647597,104.951503 L24.3157895,104.951503 C26.4107584,104.948752 28.4127388,104.086363 29.8535469,102.566013 C31.2238028,101.136618 31.9854676,99.2312736 31.978086,97.2515033 L31.9377574,97.2615686 Z" id="Path" fill="#66C3E9"></path>
            <polygon id="Path" fill="#023852" points="282.637071 78.6104575 282.637071 78.6104575 282.637071 78.6104575 280.63341 77.6341176 278.629748 76.6577778 277.35103 78.1675817 276.062243 79.6773856 273.615561 82.5560784 271.168879 85.4347712 268.92357 84.448366 266.68833 83.4619608 266.033867 83.1700654 265.379405 82.8781699 258.321281 79.7679739 251.273227 76.6577778 250.789931 74.9869281 250.296568 73.3261438 249.541419 70.7192157 248.78627 68.1223529 248.715789 67.8807843 248.645309 67.6392157 246.611442 60.6538562 244.577574 53.6785621 244.376201 53.4973856 244.174828 53.3262745 243.681465 52.8733333 243.178032 52.4304575 243.157895 52.4203922 243.137757 52.4002614 239.170709 48.8572549 235.203661 45.3243137 232.837529 46.9247059 230.471396 48.5351634 229.293364 49.3303268 228.115332 50.1254902 227.783066 50.9206536 227.450801 51.715817 227.299771 52.0580392 227.15881 52.4002614 227.027918 52.6921569 226.907094 52.9739869 225.104805 57.231634 223.292449 61.489281 222.970252 62.244183 222.658124 62.999085 218.117162 50.8904575 213.576201 38.7818301 211.431579 40.8452288 209.276888 42.9086275 205.017849 46.9951634 200.75881 51.0816993 198.906178 47.9111111 197.053547 44.7405229 195.31167 41.7611765 193.569794 38.7818301 189.411442 41.9524183 185.263158 45.1330719 183.219222 44.5593464 181.165217 43.9956863 178.335927 43.2206536 175.506636 42.4355556 173.633867 47.4179085 171.761098 52.4002614 171.720824 52.5311111 171.670481 52.6619608 170.542792 55.6715033 169.415103 58.6709804 167.733638 63.1601307 166.042105 67.6392157 165.951487 67.8908497 165.86087 68.152549 165.800458 68.3035294 165.740046 68.4545098 165.538673 68.9879739 165.3373 69.5315033 165.3373 69.5315033 165.3373 69.5315033 163.535011 74.3427451 161.732723 79.1539869 159.628375 81.7508497 157.524027 84.3376471 152.540046 86.5922876 147.566133 88.8368627 143.649428 87.135817 139.722654 85.4347712 136.279176 87.135817 132.835698 88.8368627 124.287414 87.9913725 115.729062 87.135817 115.729062 92.8529412 115.729062 98.5700654 202.540961 98.5700654 289.342792 98.5700654 289.342792 90.2258824 289.342792 81.8816993 285.989931 80.2410458"></polygon>
            <path d="M289.413272,81.2073203 L286.030206,79.6169935 L282.657208,78.0266667 C281.771167,78.4796078 280.955606,78.9124183 280.341419,79.2747712 C279.927936,79.470908 279.558133,79.7481695 279.254005,80.0900654 C279.072769,80.5027451 277.149657,83.6733333 275.226545,86.7332026 C273.303432,89.7930719 271.53135,92.7724183 271.53135,92.7724183 L267.101144,90.6586928 L262.670938,88.5550327 L260.254462,86.4312418 L257.827918,84.307451 L253.901144,83.8847059 L249.974371,83.4619608 L245.946911,73.7086275 L241.919451,63.9653595 L238.627002,59.3856209 L235.243936,54.8159477 L228.296568,63.8747712 L221.33913,72.9335948 C221.33913,72.9335948 219.486499,69.3704575 217.543249,65.7972549 C215.6,62.2240523 213.515789,58.6709804 213.113043,58.6709804 L213.032494,58.6709804 C211.627429,58.3682082 210.255031,57.9299934 208.934554,57.3624837 C207.202746,56.6981699 205.601831,56.0338562 205.601831,56.0338562 L200.215103,60.7645752 L194.858581,65.4248366 L192.663616,65.9985621 L190.478719,66.5622222 L187.458124,71.3130719 L184.437529,76.0639216 L179.473684,76.8087582 L174.50984,77.5535948 L174.308467,78.0166013 L174.187643,78.5098039 L174.056751,78.3789542 L173.925858,78.2481046 L171.207323,84.2168627 L168.478719,90.1856209 L161.974371,93.4870588 L155.470023,96.7784314 L150.969336,96.0134641 L146.46865,95.2484967 L143.317162,92.7120261 L140.155606,90.1856209 L136.430206,92.6214379 L132.694737,95.0572549 L130.88238,91.8262745 L129.070023,88.5952941 L129.070023,88.5952941 L127.660412,86.099085 L126.250801,83.6028758 L126.089703,83.3109804 L125.928604,83.019085 L115.678719,83.019085 L115.678719,83.5424837 L115.678719,91.0915033 L115.678719,98.6405229 L202.631579,98.6405229 L289.594508,98.6405229 L289.473684,89.8836601 L289.413272,81.2073203 Z" id="Path" fill="#FFE700"></path>
            <path d="M415.966133,152.32915 L258.33135,152.32915 C257.960979,152.32915 257.594529,152.253333 257.254005,152.107712 C256.585367,151.828025 256.053692,151.296524 255.773913,150.628105 C255.628248,150.287692 255.552403,149.921361 255.552403,149.551111 L255.552403,51.0213072 C255.552403,50.2879007 255.847202,49.5852237 256.367963,49.0686275 C256.622498,48.8157243 256.923307,48.6141115 257.254005,48.4747712 C257.594529,48.3291542 257.960979,48.2533333 258.33135,48.2533333 L415.966133,48.2533333 C416.339755,48.2533333 416.709492,48.3291479 417.053547,48.4747712 C418.075871,48.9093231 418.741084,49.9107747 418.74508,51.0213072 L418.74508,149.551111 C418.74508,149.921361 418.669234,150.287692 418.52357,150.628105 C418.384184,150.958694 418.182505,151.259405 417.929519,151.513856 C417.678769,151.766667 417.381264,151.968357 417.053547,152.107712 C416.709492,152.253333 416.339755,152.32915 415.966133,152.32915 L415.966133,152.32915 Z" id="Path" fill="#023852"></path>
            <polygon id="Path" fill="#B0BDC6" points="439.234783 150.658301 388.186728 150.658301 337.148741 150.658301 286.110755 150.658301 235.072769 150.658301 235.072769 149.470588 235.072769 148.27281 235.072769 147.085098 235.072769 145.897386 286.110755 145.897386 337.148741 145.897386 388.186728 145.897386 439.234783 145.897386 439.234783 147.085098 439.234783 148.27281 439.234783 149.470588"></polygon>
            <path d="M428.753318,154 L245.554233,154 C244.743791,153.966922 243.936484,153.879492 243.137757,153.738301 C242.070481,153.56719 240.811899,153.325621 239.623799,153.02366 C238.538514,152.783987 237.477021,152.447115 236.452174,152.017124 C235.606407,151.61451 235.072769,151.181699 235.072769,150.718693 L439.234783,150.718693 C439.234783,151.181699 438.691076,151.61451 437.855378,152.017124 C436.829421,152.444091 435.768199,152.780877 434.683753,153.02366 C433.485584,153.325621 432.237071,153.56719 431.159725,153.738301 C430.36432,153.879046 429.560391,153.966474 428.753318,154 Z" id="Path" fill="#9DADB7"></path>
            <g id="Group" opacity="0.6" style="mix-blend-mode: multiply;" transform="translate(303.066362, 144.941176)" fill="#023852">
                <polygon id="Path" points="68.1546911 0.95620915 51.1185355 0.95620915 34.0823799 0.95620915 17.0462243 0.95620915 0.0201372998 0.95620915 1.80228833 1.76143791 3.59450801 2.55660131 5.37665904 3.36183007 7.16887872 4.16705882 20.620595 4.16705882 34.0823799 4.16705882 47.5441648 4.16705882 61.0059497 4.16705882 62.7881007 3.36183007 64.5803204 2.55660131 66.3624714 1.76143791"></polygon>
            </g>
            <polygon id="Path" fill="#0099DA" points="414.405492 142.002092 375.772082 142.002092 337.148741 142.002092 298.5254 142.002092 259.902059 142.002092 259.902059 119.908627 259.902059 97.8252288 259.902059 75.7317647 259.902059 53.648366 298.5254 53.648366 337.148741 53.648366 375.772082 53.648366 414.405492 53.648366 414.405492 75.7317647 414.405492 97.8252288 414.405492 119.908627"></polygon>
            <path d="M322.770709,67.6794771 C320.03352,68.4119236 317.403565,69.4980751 314.947368,70.9104575 C307.296648,75.3049109 301.721002,82.5748006 299.461785,91.1015686 L306.308467,92.9435294 L313.14508,94.7854902 C313.564053,93.2178279 314.179775,91.7094642 314.977574,90.2963399 C316.636106,87.3630874 319.053039,84.9295624 321.975286,83.2505882 C323.375949,82.4459445 324.875321,81.8267677 326.435698,81.4086275 L324.603204,74.5339869 L322.770709,67.6794771 Z" id="Path" fill="#FFFFFF"></path>
            <path d="M331.318993,66.5521569 C329.881204,66.5500987 328.444889,66.6442525 327.01968,66.8339869 C325.586862,67.0255069 324.167676,67.3079067 322.770709,67.6794771 L324.603204,74.5541176 L326.435698,81.4287582 C327.233955,81.2184878 328.044311,81.0571418 328.862243,80.9456209 C329.679991,80.8368856 330.504112,80.783083 331.329062,80.7845752 C336.317048,80.7767485 341.100246,82.7669816 344.609611,86.3104575 L349.643936,81.2777778 L354.678261,76.245098 C348.519208,70.0310364 340.130047,66.537299 331.379405,66.5420866" id="Path" fill="#33ADE1"></path>
            <path d="M354.617849,76.2551634 L354.617849,76.2551634 L349.583524,81.2878431 L344.549199,86.3205229 C346.923238,88.703825 348.616242,91.6786468 349.452632,94.9364706 C350.258278,98.0990197 350.240947,101.415059 349.402288,104.56902 L356.24897,106.41098 L363.085584,108.252941 C364.556933,102.726004 364.584668,96.9140523 363.166133,91.3733333 C361.699151,85.6614759 358.72627,80.4475998 354.557437,76.2752941" id="Path" fill="#023852"></path>
            <path d="M349.4627,104.558954 C348.625292,107.76415 346.950369,110.689098 344.609611,113.033987 C342.272845,115.371237 339.363434,117.054535 336.172082,117.915686 L338.004577,124.810458 L339.837071,131.685098 C342.57426,130.952652 345.204215,129.8665 347.660412,128.454118 C355.311133,124.059664 360.886779,116.789775 363.145995,108.263007 L356.309382,106.421046 L349.4627,104.558954 Z" id="Path" fill="#FFE700"></path>
            <path d="M317.76659,112.732026 C315.416232,110.380151 313.743246,107.438605 312.92357,104.216732 C312.108115,101.095132 312.108115,97.8165025 312.92357,94.694902 L306.167506,92.8831373 L299.411442,91.0613072 L299.411442,91.0613072 C299.290618,91.5243137 299.189931,91.9873203 299.089245,92.4503268 C298.988558,92.9133333 298.897941,93.3763399 298.817391,93.8494118 C298.817391,93.9601307 298.817391,94.0708497 298.767048,94.1815686 L298.706636,94.5036601 C298.636156,94.976732 298.575744,95.4397386 298.515332,95.9128105 C298.45492,96.3858824 298.414645,96.8488889 298.384439,97.3219608 L298.384439,97.3219608 C298.077623,101.891991 298.729222,106.475695 300.297483,110.779346 C301.916557,115.239335 304.494255,119.290153 307.84897,122.646405 L312.309382,118.157255 L316.779863,113.668105 L317.263158,113.195033 L317.76659,112.732026 Z" id="Path" fill="#9DADB7"></path>
            <path d="M333.513959,132.72183 C333.987185,132.72183 334.460412,132.641307 334.943707,132.580915 C335.427002,132.520523 335.89016,132.460131 336.363387,132.389673 L336.695652,132.329281 L337.027918,132.278954 L338.437529,131.997124 C338.910755,131.906536 339.373913,131.795817 339.837071,131.664967 L338.004577,124.810458 L336.172082,117.935817 C335.789474,118.036471 335.406865,118.127059 335.014188,118.207582 C334.62151,118.288105 334.238902,118.348497 333.846224,118.398824 L333.765675,118.398824 C333.393135,118.44915 333.010526,118.479346 332.617849,118.509542 C332.225172,118.539739 331.852632,118.509542 331.470023,118.509542 L331.33913,118.509542 C330.976659,118.509542 330.624256,118.509542 330.261785,118.509542 L329.174371,118.408889 L328.872311,118.408889 L328.570252,118.358562 L327.76476,118.227712 L326.969336,118.056601 L326.64714,117.986144 L326.335011,117.905621 C325.99939,117.818388 325.663768,117.717734 325.328146,117.60366 C325.00595,117.492941 324.673684,117.382222 324.321281,117.251373 L324.26087,117.251373 L324.26087,117.251373 C323.918535,117.110458 323.576201,116.959477 323.254005,116.798431 C322.931808,116.637386 322.589474,116.466275 322.24714,116.285098 L321.975286,116.124052 L321.703432,115.963007 C321.461785,115.822092 321.220137,115.671111 320.988558,115.510065 L320.283753,115.026928 L320.021968,114.825621 L319.750114,114.624314 C319.448055,114.39281 319.156064,114.151242 318.864073,113.889542 C318.572082,113.627843 318.280092,113.376209 318.008238,113.094379 L317.001373,114.100915 L315.994508,115.107451 L315.994508,115.107451 L312.017391,119.133595 L307.989931,123.159739 C314.692929,129.913945 323.997794,133.428294 333.493822,132.792288 L333.493822,132.792288 L333.513959,132.72183 Z" id="Path" fill="#9E9D8E"></path>
            <g id="Group" opacity="0.2" transform="translate(259.771167, 53.346405)" fill="#FFFFFF">
                <path d="M0.382608696,0.473071895 L12.0823799,11.6053595 L23.8324943,22.7275817 C35.4248665,33.6988235 47.0172387,44.6667102 58.609611,55.6312418 L93.406865,88.5047059 L154.432952,88.5047059 L154.432952,0.473071895 L0.382608696,0.473071895 L0.382608696,0.473071895 Z" id="Path"></path>
            </g>
            <path d="M132,49.9745098 C131.983482,46.7738635 129.392082,44.1833101 126.190389,44.1667974 L57.2906178,44.1667974 C54.0889253,44.1833101 51.497525,46.7738635 51.4810069,49.9745098 L51.4810069,148.232549 C51.5140289,151.41974 54.1022324,153.989161 57.2906178,154 L126.190389,154 C129.394361,153.988955 131.988952,151.395213 132,148.192288 L132,49.9745098 L132,49.9745098 Z" id="Path" fill="#023852"></path>
            <path d="M95.2796339,147.578301 C95.2689155,145.886003 94.0624888,144.437549 92.3995835,144.12047 C90.7366783,143.803391 89.0816201,144.706222 88.4485348,146.275761 C87.8154495,147.845299 88.3811106,149.643289 89.7989131,150.568025 C91.2167156,151.49276 93.0907729,151.286031 94.2727689,150.07451 C94.9265945,149.409071 95.2888369,148.511003 95.2796339,147.578301 L95.2796339,147.578301 Z" id="Path" fill="#4E7486"></path>
            <polygon id="Path" fill="#0099DA" points="126.663616 141.066013 91.7354691 141.066013 56.8173913 141.066013 56.8173913 95.1981699 56.8173913 49.3202614 91.7354691 49.3202614 126.663616 49.3202614 126.663616 95.1981699"></polygon>
            <polygon id="Path" fill="#FFFFFF" opacity="0.2" points="126.663616 93.4166013 126.663616 106.873987 126.663616 120.341438 93.9505721 84.8308497 61.2475973 49.3202614 93.9505721 49.3202614 126.663616 49.3202614 126.663616 71.3633987"></polygon>
            <polygon id="Path" fill="#023852" points="73.6118993 132.017255 70.5006865 132.017255 67.3894737 132.017255 67.3894737 117.341961 67.3894737 102.666667 70.5006865 102.666667 73.6118993 102.666667 73.6118993 117.341961"></polygon>
            <polygon id="Path" fill="#023852" points="83.6 132.017255 80.4887872 132.017255 77.3675057 132.017255 77.3675057 119.928758 77.3675057 107.830196 80.4887872 107.830196 83.6 107.830196 83.6 119.928758"></polygon>
            <polygon id="Path" fill="#D9D6CB" points="93.5881007 96.6375163 90.4768879 96.6375163 87.3556064 96.6375163 87.3556064 90.8499346 87.3556064 85.0522876 90.4768879 85.0522876 93.5881007 85.0522876 93.5881007 90.8499346"></polygon>
            <polygon id="Path" fill="#FFFFFF" points="103.576201 108.685752 100.464989 108.685752 97.3437071 108.685752 97.3437071 105.333987 97.3437071 101.982222 100.464989 101.982222 103.576201 101.982222 103.576201 105.333987"></polygon>
            <polygon id="Path" fill="#D9D6CB" points="113.564302 122.656471 110.443021 122.656471 107.331808 122.656471 107.331808 113.67817 107.331808 104.699869 110.443021 104.699869 113.564302 104.699869 113.564302 113.67817"></polygon>
            <polygon id="Path" fill="#023852" points="103.576201 120.321307 103.576201 114.503529 103.576201 108.685752 103.576201 108.685752 103.576201 108.685752 103.576201 108.655556 103.576201 108.635425 100.464989 108.635425 97.3437071 108.635425 97.3437071 114.483399 97.3437071 120.321307 97.3437071 120.321307 97.3437071 120.321307 97.3437071 126.169281 97.3437071 132.017255 100.464989 132.017255 103.576201 132.017255 103.576201 128.413856 103.576201 124.820523 103.576201 124.820523 103.576201 124.820523 103.576201 122.575948 103.576201 120.321307 103.576201 120.321307 103.576201 120.321307 103.576201 120.321307 103.576201 120.321307 103.576201 120.321307"></polygon>
            <polygon id="Path" fill="#023852" points="113.564302 127.336863 110.443021 127.336863 107.331808 127.336863 107.331808 127.336863 107.331808 127.336863 107.331808 127.336863 107.331808 127.336863 107.331808 127.960915 107.331808 128.595033 107.331808 128.595033 107.331808 128.595033 107.331808 130.306144 107.331808 132.017255 109.03341 132.017255 110.74508 132.017255 110.74508 132.017255 110.74508 132.017255 112.154691 132.017255 113.564302 132.017255 113.564302 132.017255 113.564302 132.017255 113.564302 132.017255 113.564302 132.017255 113.564302 129.672026"></polygon>
            <polygon id="Path" fill="#023852" points="87.3556064 102.666667 87.3556064 102.777386 87.3556064 102.89817 87.3556064 102.89817 87.3556064 102.89817 87.3556064 105.716471 87.3556064 108.524706 87.3556064 108.524706 87.3556064 108.524706 87.3556064 120.27098 87.3556064 132.017255 90.4768879 132.017255 93.5881007 132.017255 93.5881007 117.341961 93.5881007 102.666667 90.4768879 102.666667"></polygon>
            <polygon id="Path" fill="#FFFFFF" points="73.6118993 80.3819608 73.6118993 80.3819608 73.6118993 80.3819608 70.5006865 80.3819608 67.3894737 80.3819608 67.3894737 84.4181699 67.3894737 88.4543791 67.3894737 88.4543791 67.3894737 88.4543791 67.3894737 95.7215686 67.3894737 102.978693 70.5006865 102.978693 73.6118993 102.978693 73.6118993 91.6752941 73.6118993 80.3819608 73.6118993 80.3819608"></polygon>
            <polygon id="Path" fill="#FFFFFF" points="83.6 89.9943791 83.6 89.9943791 83.6 89.9943791 80.4887872 89.9943791 77.3675057 89.9943791 77.3675057 98.952549 77.3675057 107.910719 80.4887872 107.910719 83.6 107.910719 83.6 98.952549 83.6 89.9943791 83.6 89.9943791"></polygon>
            <polygon id="Path" fill="#FFFFFF" points="93.5881007 85.0522876 90.4768879 85.0522876 87.3556064 85.0522876 87.3556064 93.829281 87.3556064 102.606275 90.4768879 102.606275 93.5881007 102.606275 93.5881007 93.829281"></polygon>
            <polygon id="Path" fill="#FFFFFF" points="113.564302 104.699869 110.443021 104.699869 107.331808 104.699869 107.331808 116.19451 107.331808 127.68915 110.443021 127.68915 113.564302 127.68915 113.564302 116.19451"></polygon>
        </g>
    </g>
</svg>