<?xml version="1.0" encoding="UTF-8"?>
<svg width="440px" height="330px" viewBox="0 0 440 330" version="1.1" xmlns="http://www.w3.org/2000/svg" xmlns:xlink="http://www.w3.org/1999/xlink">
    <title>Graphic elements / Icons / Rich icons / black-screens</title>
    <g id="Graphic-elements-/-Icons-/-Rich-icons-/-black-screens" stroke="none" stroke-width="1" fill="none" fill-rule="evenodd">
        <g id="Group-2" transform="translate(-0.000000, 114.480000)" fill-rule="nonzero">
            <path d="M287.435748,203.394297 L287.435748,174.781436 L235.383735,174.781436 L235.383735,203.394297 C235.344571,203.856105 235.273165,204.314609 235.170038,204.766455 C234.934858,205.825106 234.556469,206.846758 234.045319,207.803197 C232.636473,210.625587 229.694377,212.350264 226.54344,212.20085 L296.197312,212.20085 C293.050367,212.345717 290.113854,210.621728 288.706681,207.803197 C288.195531,206.846758 287.817142,205.825106 287.581962,204.766455 C287.501504,204.313008 287.452648,203.854518 287.435748,203.394297 L287.435748,203.394297 Z" id="Path" fill="#96A6AE"></path>
            <g id="Group" opacity="0.5" transform="translate(235.091308, 183.329304)" fill="#96A6AE">
                <polygon id="Path" style="mix-blend-mode: multiply;" points="0.281179847 0.866033929 13.2941832 0.866033929 26.3184337 0.866033929 39.331437 0.866033929 52.3556875 0.866033929 52.3556875 5.06123724 52.3556875 9.26768776 52.3556875 13.4628911 52.3556875 17.6693416 39.331437 17.6693416 26.3184337 17.6693416 13.2941832 17.6693416 0.281179847 17.6693416 0.281179847 13.4628911 0.281179847 9.26768776 0.281179847 5.06123724"></polygon>
            </g>
            <path d="M405.497542,185.342595 L117.321941,185.342595 C116.344378,185.345941 115.376306,185.150796 114.476401,184.768944 C112.72155,184.018969 111.3236,182.621019 110.573624,180.866168 C110.192965,179.965894 110,178.998069 110,178.020628 L110,7.32196663 C110,6.35209886 110.19592,5.39222019 110.573624,4.49892096 C111.31883,2.73559306 112.717385,1.32897776 114.476401,0.573650299 C115.376306,0.191798672 116.344378,-0.00334621598 117.321941,5.54223334e-13 L405.497542,5.54223334e-13 C406.459834,0.00390050108 407.411773,0.19887602 408.298094,0.573650299 C410.074072,1.31939678 411.489976,2.72723333 412.245859,4.49892096 C412.615853,5.39380811 412.803228,6.35362812 412.797123,7.32196663 L412.797123,178.020628 C412.797123,178.998069 412.604023,179.965894 412.223364,180.866168 C411.473388,182.621019 410.075438,184.018969 408.320588,184.768944 C407.427289,185.146649 406.46741,185.342595 405.497542,185.342595 Z" id="Path" fill="#023852"></path>
            <polygon id="Path" fill="#0099DA" points="119.492649 168.179333 190.687386 168.179333 261.882124 168.179333 333.076861 168.179333 404.271598 168.179333 404.271598 128.982863 404.271598 89.7863921 404.271598 50.5899215 404.271598 11.3934508 333.076861 11.3934508 261.882124 11.3934508 190.687386 11.3934508 119.492649 11.3934508 119.492649 50.5899215 119.492649 89.7863921 119.492649 128.982863"></polygon>
            <path d="M266.201047,176.164841 C266.201478,175.526639 266.071342,174.895095 265.818642,174.309054 C265.577797,173.738764 265.230431,173.219623 264.795147,172.779436 C264.356106,172.348001 263.841409,172.001057 263.276776,171.755941 C261.48081,170.996525 259.403769,171.401258 258.024336,172.779436 C256.183704,174.652344 256.183704,177.654844 258.024336,179.527752 C259.409724,180.894687 261.479511,181.298008 263.276776,180.551247 C263.841409,180.306131 264.356106,179.959187 264.795147,179.527752 C265.230431,179.087565 265.577797,178.568424 265.818642,177.998134 C266.067765,177.418865 266.197813,176.7954 266.201047,176.164841 L266.201047,176.164841 Z" id="Path" fill="#135275"></path>
            <path d="M305.948629,211.27858 L214.846359,211.27858 C213.719602,211.26978 212.636924,211.715827 211.843358,212.515772 C211.460116,212.9065 211.151386,213.363878 210.932335,213.865435 C210.714381,214.389263 210.60348,214.951417 210.606119,215.518772 L310.200069,215.518772 C310.195975,213.811537 309.173659,212.271424 307.601967,211.604749 C307.078589,211.385316 306.51613,211.274354 305.948629,211.27858 Z" id="Path" fill="#CAD3D6"></path>
            <rect id="Rectangle" fill="#009BDB" opacity="0.5" style="mix-blend-mode: multiply;" x="134.192732" y="22.1232738" width="65.2112301" height="65.2112301"></rect>
            <rect id="Rectangle" fill="#009BDB" opacity="0.5" style="mix-blend-mode: multiply;" x="276.08733" y="22.7306222" width="115.924827" height="134.044057"></rect>
            <rect id="Rectangle" fill="#009BDB" opacity="0.5" style="mix-blend-mode: multiply;" x="204.836356" y="92.7668985" width="65.2112301" height="65.2112301"></rect>
            <polygon id="Rectangle" fill="#FFFFFF" transform="translate(236.991808, 55.648877) rotate(45.000000) translate(-236.991808, -55.648877) " points="230.822723 27.0416393 243.160894 27.0416393 243.160894 84.2561146 230.822723 84.2561146"></polygon>
            <polygon id="Rectangle" fill="#FFFFFF" transform="translate(236.994365, 55.650883) rotate(135.000000) translate(-236.994365, -55.650883) " points="230.82528 27.0436458 243.163451 27.0436458 243.163451 84.2581211 230.82528 84.2581211"></polygon>
            <polygon id="Rectangle" fill="#FFFFFF" transform="translate(165.751914, 124.481389) rotate(45.000000) translate(-165.751914, -124.481389) " points="159.582828 95.8741514 171.921 95.8741514 171.921 153.088627 159.582828 153.088627"></polygon>
            <polygon id="Rectangle" fill="#FFFFFF" transform="translate(165.743707, 124.472295) rotate(135.000000) translate(-165.743707, -124.472295) " points="159.574621 95.8650569 171.912792 95.8650569 171.912792 153.079532 159.574621 153.079532"></polygon>
            <g id="Group" opacity="0.2" transform="translate(123.744088, 11.247237)" fill="#FFFFFF">
                <path d="M0.14621352,0.101224745 L10.6061038,10.0212497 L21.0659941,19.9300276 L31.4921429,29.8500526 L41.9520332,39.7700776 L72.9380523,69.091512 L103.935319,98.4016992 C114.260243,108.149267 124.592665,117.915581 134.932585,127.700639 L165.941098,156.999579 L280.662476,156.999579 L280.662476,0.101224745 L0.14621352,0.101224745 Z" id="Path"></path>
            </g>
            <path d="M130.467449,46.4887422 C130.465683,45.2330427 130.213316,43.9903239 129.725134,42.8334042 C128.760495,40.5744672 126.95873,38.7767336 124.697639,37.8171557 C123.541079,37.3278097 122.298123,37.0748409 121.042301,37.0748409 L9.41390128,37.0748409 C8.15820174,37.0748409 6.915483,37.3289742 5.75856327,37.8171557 C3.49954386,38.7874229 1.70246482,40.5925606 0.742314796,42.8558986 C0.257057198,44.0058375 0.00474893927,45.2406188 1.19797505e-11,46.4887422 L1.19797505e-11,205.805243 C0.0192964295,209.585254 2.28205867,212.992656 5.75856327,214.47683 C6.9138283,214.970343 8.15764568,215.222934 9.41390128,215.219219 L121.064795,215.219219 C122.321176,215.224203 123.565248,214.97156 124.720133,214.47683 C125.843973,214.00502 126.864264,213.317183 127.723134,212.452335 C129.493946,210.693606 130.489943,208.301021 130.489943,205.805243 L130.489943,46.4887422 L130.467449,46.4887422 Z" id="Path" fill="#023852"></path>
            <path d="M70.9810406,204.73676 C70.9872278,203.964 70.8340794,203.198258 70.5311528,202.487321 C69.9578639,201.111062 68.861532,200.018776 67.4831633,199.450579 C66.0453122,198.841846 64.4221368,198.841846 62.9842857,199.450579 C62.3041853,199.739055 61.6856792,200.15521 61.1622403,200.676523 C60.64312,201.206048 60.2273577,201.827785 59.9362962,202.509816 C59.327563,203.947667 59.327563,205.570842 59.9362962,207.008693 C60.5235792,208.370267 61.6162594,209.450851 62.9842857,210.022941 C64.4221368,210.631674 66.0453122,210.631674 67.4831633,210.022941 C68.1651942,209.73188 68.7869305,209.316117 69.3164559,208.796997 C69.8377684,208.273558 70.2539238,207.655052 70.5424,206.974952 C70.8384434,206.26622 70.9876649,205.504808 70.9810406,204.73676 L70.9810406,204.73676 Z" id="Path" fill="#135275"></path>
            <polygon id="Path" fill="#0099DA" points="121.829604 194.198139 93.5429115 194.198139 65.2449717 194.198139 36.9470319 194.198139 8.64909209 194.198139 8.64909209 157.003669 8.64909209 119.820446 8.64909209 82.6372233 8.64909209 45.4540003 36.9470319 45.4540003 65.2449717 45.4540003 93.5429115 45.4540003 121.829604 45.4540003 121.829604 82.6372233 121.829604 119.820446 121.829604 157.003669"></polygon>
            <rect id="Rectangle" fill="#009BDB" opacity="0.5" style="mix-blend-mode: multiply;" x="15.2174533" y="65.4515111" width="48.3066977" height="48.3066977"></rect>
            <rect id="Rectangle" fill="#009BDB" opacity="0.5" style="mix-blend-mode: multiply;" x="68.3491972" y="65.4515111" width="48.3066977" height="48.3066977"></rect>
            <rect id="Rectangle" fill="#009BDB" opacity="0.5" style="mix-blend-mode: multiply;" x="68.3491972" y="119.797952" width="48.3066977" height="48.3066977"></rect>
            <polygon id="Rectangle" fill="#FFFFFF" transform="translate(38.921846, 143.046018) rotate(45.000000) translate(-38.921846, -143.046018) " points="33.995575 120.208591 43.8481168 120.208591 43.8481168 165.883445 33.995575 165.883445"></polygon>
            <polygon id="Rectangle" fill="#FFFFFF" transform="translate(38.926422, 143.052457) rotate(135.000000) translate(-38.926422, -143.052457) " points="34.000151 120.21503 43.8526929 120.21503 43.8526929 165.889884 34.000151 165.889884"></polygon>
            <path d="M121.728379,45.667697 L8.87403597,45.667697 L8.87403597,53.2258113 L8.87403597,68.3645343 L8.87403597,75.9226486 C13.7328237,80.9164026 22.0332528,89.2843149 32.020761,99.3505534 C42.0082691,109.416792 53.6828564,121.080132 65.3574436,132.732225 C77.0320309,144.384318 88.6953709,155.991422 98.6828791,165.832716 C108.670387,175.674011 116.970816,183.828227 121.897087,188.405835 L121.897087,152.729736 L121.897087,117.053637 L121.897087,81.3775376 L121.728379,45.667697 Z" id="Path" fill="#FFFFFF" opacity="0.2"></path>
            <path d="M436.012446,215.432647 L370.688744,215.432647 C370.155412,215.432647 369.627418,215.326259 369.136631,215.11752 C368.662856,214.915319 368.231625,214.625288 367.865698,214.262733 C367.126969,213.510893 366.721651,212.493543 366.740318,211.439688 L366.740318,96.8982652 C366.740318,92.9830998 369.911551,89.8074905 373.826711,89.8012768 L432.908221,89.8012768 C434.790343,89.7982841 436.596078,90.545396 437.925885,91.8773141 C439.255693,93.2092322 439.99994,95.0161501 439.994614,96.8982652 L439.994614,211.439688 C440.013281,212.493543 439.607963,213.510893 438.869233,214.262733 C438.503307,214.625288 438.072076,214.915319 437.598301,215.11752 C437.09707,215.330778 436.55713,215.438 436.012446,215.432647 L436.012446,215.432647 Z" id="Path" fill="#023852"></path>
            <polygon id="Path" fill="#0099DA" points="435.078929 192.443177 419.209139 192.443177 403.350595 192.443177 387.492052 192.443177 371.622261 192.443177 371.622261 168.947789 371.622261 145.452401 371.622261 121.957013 371.622261 98.4616251 387.492052 98.4616251 403.350595 98.4616251 419.209139 98.4616251 435.078929 98.4616251 435.078929 121.957013 435.078929 145.452401 435.078929 168.947789"></polygon>
            <path d="M408.726755,204.218989 C408.728278,202.058618 407.433845,200.108103 405.442573,199.270224 C404.106189,198.700091 402.595002,198.700091 401.258617,199.270224 C399.94472,199.823375 398.905007,200.876719 398.369014,202.197709 C397.833022,203.518698 397.844829,204.998698 398.40183,206.310967 C398.666722,206.946043 399.048204,207.525895 399.526549,208.020541 C401.628638,210.113916 405.027564,210.113916 407.129652,208.020541 C407.607998,207.525895 407.989479,206.946043 408.254372,206.310967 C408.550442,205.652346 408.711085,204.940926 408.726755,204.218989 L408.726755,204.218989 Z" id="Path" fill="#135275"></path>
            <rect id="Rectangle" fill="#009BDB" opacity="0.5" style="mix-blend-mode: multiply;" x="376.177375" y="103.196694" width="26.0709954" height="26.0709954"></rect>
            <rect id="Rectangle" fill="#009BDB" opacity="0.5" style="mix-blend-mode: multiply;" x="405.65627" y="103.196694" width="26.0709954" height="26.0709954"></rect>
            <rect id="Rectangle" fill="#009BDB" opacity="0.5" style="mix-blend-mode: multiply;" x="376.177375" y="132.180712" width="55.5498906" height="55.5498906"></rect>
            <polygon id="Rectangle" fill="#FFFFFF" transform="translate(404.712175, 159.407123) rotate(45.000000) translate(-404.712175, -159.407123) " points="399.785905 136.569696 409.638446 136.569696 409.638446 182.24455 399.785905 182.24455"></polygon>
            <polygon id="Rectangle" fill="#FFFFFF" transform="translate(404.714551, 159.410839) rotate(135.000000) translate(-404.714551, -159.410839) " points="399.788281 136.573411 409.640822 136.573411 409.640822 182.248266 399.788281 182.248266"></polygon>
            <polygon id="Path" fill="#FFFFFF" opacity="0.2" points="435.078929 192.443177 419.209139 177.259465 403.350595 162.087001 387.492052 146.903289 371.622261 131.719577 371.622261 123.407901 371.622261 115.084978 371.622261 106.773301 371.622261 98.4616251 387.492052 98.4616251 403.350595 98.4616251 419.209139 98.4616251 435.078929 98.4616251 435.078929 121.957013 435.078929 145.452401 435.078929 168.947789"></polygon>
        </g>
    </g>
</svg>