<?xml version="1.0" encoding="UTF-8"?>
<svg width="440px" height="330px" viewBox="0 0 440 330" version="1.1" xmlns="http://www.w3.org/2000/svg" xmlns:xlink="http://www.w3.org/1999/xlink">
    <title>Graphic elements / Icons / Rich icons / blueprint</title>
    <g id="Graphic-elements-/-Icons-/-Rich-icons-/-blueprint" stroke="none" stroke-width="1" fill="none" fill-rule="evenodd">
        <g id="Asset-214" transform="translate(11.000000, 0.000000)" fill-rule="nonzero">
            <path d="M119.903833,56.3414634 L88.341115,56.3414634 L88.341115,27.1818815 C88.341115,23.9508711 83.3968641,21.0188153 75.4055749,18.9031359 C67.4142857,16.7874564 56.3644599,15.4536585 44.1648084,15.4536585 C31.9651568,15.4536585 20.9268293,16.7644599 12.9355401,18.9031359 C4.94425087,21.0418118 0,23.9508711 0,27.1818815 L0,317.823345 C0,320.82439 3.93240418,323.572474 10.4634146,325.688153 C16.9944251,327.803833 26.089547,329.298606 36.4494774,329.80453 L36.4494774,330 L326.366551,330 L326.366551,56.3414634 L119.903833,56.3414634 Z" id="Path" fill="#023852" opacity="0.3" style="mix-blend-mode: multiply;"></path>
            <polygon id="Path" fill="#0099DA" points="58.8940767 314.511847 202.645296 314.511847 346.408014 314.511847 346.408014 177.659582 346.408014 40.8188153 202.645296 40.8188153 58.8940767 40.8188153 58.8940767 177.659582"></polygon>
            <polygon id="Path" fill="#005DBB" points="56.4794425 314.511847 98.2066202 314.511847 139.933798 314.511847 139.933798 177.659582 139.933798 40.8188153 98.2066202 40.8188153 56.4794425 40.8188153 56.4794425 177.659582"></polygon>
            <path d="M95.4355401,63.8958188 L95.4355401,175.543902 L90.7327526,175.543902 L90.7327526,181.017073 L95.4355401,181.017073 L95.4355401,290.101045 L321.663763,290.101045 L321.663763,63.8958188 L95.4355401,63.8958188 Z M204.370035,284.662369 L204.370035,201.058537 L198.919861,201.058537 L198.919861,284.616376 L100.943206,284.616376 L100.943206,181.017073 L177.073171,181.017073 L177.073171,175.543902 L100.943206,175.543902 L100.943206,69.3689895 L198.919861,69.3689895 L198.919861,152.156446 L204.393031,152.156446 L204.393031,69.3689895 L316.202091,69.3689895 L316.202091,175.543902 L232.609756,175.543902 L232.609756,181.017073 L316.202091,181.017073 L316.202091,284.616376 L204.40453,284.616376 L204.370035,284.662369 Z" id="Shape" fill="#8BC3EA"></path>
            <path d="M146.878746,206.474195 C133.765123,206.457908 122.467086,215.709429 119.896772,228.5687 C117.326459,241.427972 124.200108,254.311653 136.312421,259.337509 C148.424735,264.363366 162.400519,260.130901 169.68939,249.229538 C176.978261,238.328174 175.549117,223.795664 166.276307,214.522997 C161.138209,209.367087 154.157718,206.470618 146.878746,206.474195 Z M146.878746,255.916749 C136.37705,255.932124 127.327614,248.52542 125.266737,238.227914 C123.205859,227.930407 128.707801,217.611483 138.406563,213.584092 C148.105324,209.556701 159.298361,212.94307 165.137953,221.671472 C170.977546,230.399875 169.836501,242.038155 162.412892,249.466202 C158.295147,253.588514 152.705342,255.901394 146.878746,255.893728 L146.878746,255.916749 Z" id="Shape" fill="#8BC3EA"></path>
            <path d="M288.847735,92.7679443 L234.805923,92.7679443 L234.805923,146.809756 L288.847735,146.809756 L288.847735,92.7679443 Z M283.374564,141.359582 L240.313589,141.359582 L240.313589,98.241115 L283.432056,98.241115 L283.432056,141.359582 L283.374564,141.359582 Z" id="Shape" fill="#8BC3EA"></path>
            <polygon id="Path" fill="#8BC3EA" points="286.697561 207.233101 275.785714 218.604878 264.873868 229.965157 253.962021 218.604878 243.050174 207.233101 241.072474 209.130314 239.094774 211.027526 250.087108 222.479791 261.079443 233.920557 250.087108 245.372822 239.094774 256.813589 241.072474 258.710801 243.050174 260.608014 253.962021 249.236237 264.873868 237.875958 275.785714 249.236237 286.697561 260.608014 288.675261 258.710801 290.652962 256.813589 279.660627 245.372822 268.668293 233.920557 279.660627 222.479791 290.652962 211.027526 288.675261 209.130314"></polygon>
            <path d="M64.2062718,0 C52.0066202,0 40.9682927,1.31080139 32.9655052,3.44947735 C24.9627178,5.58815331 20.0299652,8.46271777 20.0299652,11.6937282 L20.0299652,302.404181 L108.37108,302.404181 L108.37108,11.6937282 C108.37108,8.46271777 103.484321,5.54216028 95.4355401,3.44947735 C87.3867596,1.35679443 76.3944251,0 64.2062718,0 Z" id="Path" fill="#0099DA"></path>
            <path d="M20.0299652,302.404181 C20.0299652,299.04669 24.974216,295.999652 32.9655052,293.791986 C40.9567944,291.584321 52.0066202,290.227526 64.2062718,290.227526 C76.4059233,290.227526 87.4442509,291.595819 95.4355401,293.791986 C103.426829,295.988153 108.37108,298.954704 108.37108,302.404181 C108.37108,305.853659 103.484321,308.75122 95.4355401,310.947387 C87.3867596,313.143554 76.3944251,314.511847 64.2062718,314.511847 C52.0181185,314.511847 40.9682927,313.155052 32.9655052,310.947387 C24.9627178,308.739721 20.0299652,305.704181 20.0299652,302.404181 Z" id="Path" fill="#023852"></path>
            <path d="M411.05122,257.652962 L411.05122,209.567247 L411.05122,161.481533 L411.05122,113.395819 L411.05122,65.3101045 L410.510801,65.3101045 C410.555776,65.1985298 410.590416,65.083063 410.614286,64.9651568 C410.614286,64.8501742 410.683275,64.7236934 410.706272,64.6087108 C410.729268,64.4937282 410.706272,64.3672474 410.706272,64.2407666 C410.706272,64.1142857 410.706272,63.9878049 410.706272,63.861324 L410.706272,52.5930314 C410.705159,51.9899264 410.588049,51.3926652 410.361324,50.8337979 C410.12985,50.296941 409.798144,49.8091381 409.383972,49.3965157 C408.975741,48.9799382 408.486625,48.6512523 407.94669,48.430662 C407.39058,48.1935784 406.791992,48.0741936 406.187456,48.0741936 L393.539373,48.0741936 C392.934963,48.0741936 392.336629,48.1948005 391.780139,48.430662 C390.69733,48.8931036 389.83311,49.7532087 389.365505,50.8337979 C389.140347,51.3935489 389.019541,51.9897838 389.009059,52.5930314 L389.009059,63.861324 C389.009059,63.9878049 389.009059,64.1142857 389.009059,64.2407666 C389.009059,64.3672474 389.009059,64.48223 389.009059,64.6087108 C389.009059,64.7351916 389.066551,64.8501742 389.089547,64.9651568 C389.112544,65.0801394 389.158537,65.195122 389.20453,65.3101045 L388.928571,65.3101045 L388.928571,113.407317 L388.928571,161.50453 L388.928571,209.590244 L388.928571,257.687456 L388.928571,257.687456 L391.297213,266.886063 L393.665854,276.084669 L396.034495,285.283275 L398.403136,294.481882 L398.403136,294.481882 L398.403136,294.562369 L398.403136,294.631359 L398.403136,294.700348 L398.403136,294.780836 C398.481662,295.064957 398.651332,295.315423 398.886063,295.493728 C399.103255,295.651489 399.365009,295.735198 399.633449,295.735198 C399.899958,295.735198 400.160277,295.654829 400.380836,295.505226 C400.624538,295.333318 400.799655,295.080824 400.875261,294.792334 L401.956098,290.825436 L403.105923,286.858537 L404.198258,282.880139 L405.290592,278.91324 L405.221603,279.028223 C405.192084,279.064596 405.165187,279.10302 405.141115,279.143206 L405.072125,279.24669 L404.991638,279.361672 L406.486411,273.957491 L407.969686,268.55331 L409.452962,263.137631 L410.936237,257.733449 L410.936237,257.733449 L411.05122,257.652962 Z" id="Path" fill="#023852" opacity="0.3" style="mix-blend-mode: multiply;"></path>
            <path d="M416.581882,253.686063 L394.539721,253.686063 L396.908362,262.884669 L399.277003,272.083275 L401.657143,281.281882 L404.025784,290.480488 C404.159819,291.043889 404.665495,291.439843 405.244599,291.43489 C405.514715,291.43489 405.778767,291.354759 406.003484,291.204878 C406.241388,291.03461 406.412232,290.786481 406.486411,290.503484 L409.00453,281.304878 L411.534146,272.106272 L414.052265,262.907666 L416.581882,253.686063 Z" id="Path" fill="#D7D4CD"></path>
            <path d="M406.566899,290.744948 L407.716725,286.778049 L408.809059,282.799652 L409.901394,278.832753 L410.993728,274.854355 C410.916063,274.988857 410.831634,275.119337 410.740767,275.245296 L410.487805,275.624739 C410.406232,275.751985 410.317955,275.874807 410.223345,275.992683 C410.131359,276.119164 410.027875,276.234146 409.935889,276.349129 L409.590941,276.74007 C409.475681,276.866821 409.348628,276.982324 409.211498,277.085017 C409.085888,277.197523 408.946855,277.294073 408.797561,277.372474 C408.647802,277.454179 408.489768,277.519705 408.326132,277.567944 C408.139809,277.601308 407.949041,277.601308 407.762718,277.567944 C407.586068,277.551702 407.412199,277.513065 407.245296,277.452962 L406.750871,277.303484 C406.574182,277.255182 406.393172,277.224372 406.210453,277.211498 C405.939761,277.196853 405.671033,277.265038 405.44007,277.406969 C405.250919,277.532501 405.099798,277.707483 405.003136,277.912892 C404.888153,278.108362 404.796167,278.338328 404.681185,278.556794 C404.584942,278.783352 404.452948,278.992989 404.290244,279.1777 C404.17036,279.308348 404.03525,279.424156 403.887805,279.522648 C403.738693,279.611678 403.580694,279.684898 403.416376,279.741115 C403.246513,279.790366 403.07369,279.828771 402.898955,279.856098 C402.722846,279.867899 402.546144,279.867899 402.370035,279.856098 L402.117073,279.856098 L401.864111,279.856098 L401.61115,279.856098 L401.358188,279.856098 L402.059582,282.581185 L402.760976,285.294774 L403.462369,288.019861 L404.163763,290.733449 C404.230667,291.01978 404.397908,291.272681 404.635192,291.446341 C404.85733,291.602902 405.122312,291.687214 405.394077,291.687805 C405.661355,291.692819 405.923235,291.61224 406.141463,291.45784 C406.367106,291.281482 406.518815,291.027268 406.566899,290.744948 Z" id="Path" fill="#023852"></path>
            <path d="M394.631705,59.8714286 L394.631705,48.6031359 C394.631061,47.9987265 394.752292,47.4003919 394.988153,46.8439024 C395.216008,46.3084457 395.548259,45.8237503 395.965505,45.4181185 C396.37268,45.0002715 396.862076,44.6713968 397.402787,44.4522648 C397.958898,44.2151812 398.557485,44.0938987 399.162021,44.0957964 L411.810105,44.0957964 C412.41464,44.0938987 413.013228,44.2151812 413.569338,44.4522648 C414.105265,44.6803076 414.593003,45.0080671 415.00662,45.4181185 C415.421962,45.8273762 415.750466,46.3162225 415.972474,46.8554007 C416.208335,47.4118902 416.329567,48.0102247 416.328922,48.6146341 L416.328922,59.8829268 C416.329567,60.4873363 416.208335,61.0856708 415.972474,61.6421603 C415.741,62.1790172 415.409294,62.6668201 414.995122,63.0794425 C414.153089,63.913071 413.017969,64.38363 411.833101,64.3902465 L399.185017,64.3902465 C398.580608,64.3908906 397.982273,64.2696594 397.425784,64.0337979 C396.887344,63.8104128 396.398756,63.4820819 395.988502,63.0679443 C395.142278,62.2192859 394.666809,61.0698924 394.666202,59.8714286 L394.631705,59.8714286 Z" id="Path" fill="#FFE700"></path>
            <polygon id="Path" fill="#0099DA" points="405.566551 61.3317073 405.543554 109.42892 405.520557 157.526132 405.497561 205.611847 405.474564 253.709059 408.234146 253.709059 411.005226 253.709059 413.776307 253.709059 416.535889 253.709059 416.558885 205.623345 416.59338 157.526132 416.616376 109.42892 416.639373 61.3432056 413.868293 61.3432056 411.108711 61.3432056 408.337631 61.3317073"></polygon>
            <polygon id="Path" fill="#0099DA" points="394.620209 61.3317073 394.597213 109.42892 394.574216 157.514634 394.539721 205.611847 394.516725 253.697561 397.287805 253.697561 400.058885 253.709059 402.818467 253.709059 405.589547 253.709059 405.612544 205.611847 405.63554 157.526132 405.658537 109.42892 405.681533 61.3317073 402.921951 61.3317073 400.150871 61.3317073 397.379791 61.3317073"></polygon>
        </g>
    </g>
</svg>