<?xml version="1.0" encoding="UTF-8"?>
<svg width="440px" height="330px" viewBox="0 0 440 330" version="1.1" xmlns="http://www.w3.org/2000/svg" xmlns:xlink="http://www.w3.org/1999/xlink">
    <title>Graphic elements / Icons / Rich icons / build</title>
    <g id="Graphic-elements-/-Icons-/-Rich-icons-/-build" stroke="none" stroke-width="1" fill="none" fill-rule="evenodd">
        <g id="Build-(female)" transform="translate(129.000000, 0.000000)" fill-rule="nonzero">
            <path d="M50.94,221.77 L50.99,224.39 L50.99,227 C51.0172368,228.177319 50.5319419,229.308458 49.66,230.1 L43.84,235.41 L38.02,240.72 C37.765046,240.951075 37.5399687,241.213105 37.35,241.5 C37.1604278,241.789244 37.0091664,242.10185 36.9,242.43 L33,253.92 L29.09,265.41 C29.0404102,265.563957 28.9802677,265.714314 28.91,265.86 C28.8398531,266.008615 28.7596677,266.15228 28.67,266.29 L19.4,281 L10.09,295.65 C9.70976968,296.250593 9.49263354,296.939914 9.46,297.65 C9.41997992,298.363646 9.57191515,299.074979 9.9,299.71 L15.9,311.46 L21.9,323.21 C22.4455301,324.282527 23.4376925,325.058684 24.61,325.33 L24.61,325.33 C25.9227966,325.647543 27.3076628,325.294817 28.3086049,324.387963 C29.309547,323.48111 29.7968276,322.137671 29.61,320.8 L28.17,309.96 L26.72,299.12 C26.6525681,298.588442 26.6865003,298.04892 26.82,297.53 C26.9586156,297.012533 27.1963442,296.526888 27.52,296.1 L51.37,264.53 L75.22,232.95 C75.6623174,232.367772 75.9387624,231.67666 76.02,230.95 C76.0989293,230.220085 75.985148,229.48223 75.69,228.81 L73.29,223.47 L70.9,218.12 C70.5286266,217.301957 69.9000428,216.627721 69.11,216.2 C68.3208257,215.765922 67.4082488,215.610889 66.52,215.76 L60.45,216.76 L54.38,217.76 C53.4066828,217.911809 52.5236121,218.417438 51.9,219.18 C51.2886026,219.905459 50.9491369,220.821309 50.94,221.77 Z" id="Path" fill="#0099DA"></path>
            <path d="M75.69,228.67 L73.29,223.32 L70.9,218 C70.1446656,216.309738 68.3481244,215.337637 66.52,215.63 L60.45,216.63 L54.38,217.63 C52.3771513,217.965031 50.9171006,219.709452 50.94,221.74 L50.99,224.36 L50.99,226.97 C51.0172368,228.147319 50.5319419,229.278458 49.66,230.07 L46.49,232.96 L43.32,235.85 L51.75,244.3 L60.18,252.75 L67.68,242.82 L75.18,232.89 C76.078169,231.69446 76.2580529,230.106124 75.65,228.74 L75.69,228.67 Z" id="Path" fill="#66C2E9" style="mix-blend-mode: multiply;"></path>
            <path d="M67.4,221.17 L68.4,229.48 L69.4,237.79 C69.4199095,237.999528 69.4199095,238.210472 69.4,238.42 C69.3920711,238.628116 69.3686732,238.835355 69.33,239.04 L67.92,246.36 L66.51,253.68 C66.51,253.79 66.51,253.9 66.46,254.01 C66.41,254.12 66.46,254.23 66.46,254.34 L65.66,281 L64.89,307.63 C64.8794721,308.161603 64.9676296,308.690547 65.15,309.19 C65.3364719,309.686599 65.6184518,310.141844 65.98,310.53 L73.73,318.91 L81.48,327.29 C81.909945,327.753493 82.4401005,328.11263 83.03,328.34 C83.6222202,328.566268 84.2597414,328.648529 84.89,328.58 L87.56,328.31 L90.22,328.03 C91.6125868,327.881901 92.833255,327.033251 93.4571189,325.779447 C94.0809828,324.525643 94.0217356,323.040137 93.3,321.84 L87.3,311.97 L81.3,302.1 C81.0442017,301.686263 80.8678504,301.228428 80.78,300.75 C80.694908,300.270412 80.694908,299.779588 80.78,299.3 L87.11,261.57 L93.43,223.84 C93.6134086,222.747644 93.3470396,221.627554 92.6915277,220.734701 C92.0360158,219.841849 91.0471391,219.252207 89.95,219.1 L80.95,217.88 L71.95,216.66 C70.6969743,216.478937 69.4322043,216.901764 68.54,217.8 C67.6670459,218.691371 67.2474598,219.931726 67.4,221.17 Z" id="Path" fill="#0099DA"></path>
            <path d="M7.75,294.3 L5.36,296.91 L2.98,299.51 C2.81413637,299.686291 2.6789367,299.889091 2.58,300.11 C2.47564249,300.328109 2.40484321,300.560735 2.37,300.8 L1.19,309.56 L0,318.31 L0.8,318.75 L1.59,319.19 L3.59,316.04 L5.59,312.89 C6.06993681,312.150799 6.9204203,311.738968 7.7979477,311.820843 C8.67547509,311.902717 9.43509359,312.464773 9.77,313.28 L12.85,320.73 L15.92,328.18 C16.1008503,328.613313 16.4073578,328.982515 16.8,329.24 C17.1850361,329.506246 17.6418771,329.649227 18.11,329.65 L38.71,329.65 C40.0221616,329.644521 41.0845212,328.582162 41.09,327.27 L41.09,326.43 C41.0848059,325.482061 40.5198543,324.626787 39.65,324.25 L30.47,320.32 L21.3,316.38 C20.7350304,316.135544 20.2844564,315.68497 20.04,315.12 L15.82,305.05 L11.68,295 C11.3702664,294.252664 10.6993278,293.716054 9.90219424,293.578127 C9.1050607,293.440201 8.29282901,293.720181 7.75,294.32 L7.75,294.3 Z" id="Path" fill="#023852"></path>
            <path d="M63.08,307.83 L62.68,308.29 L62.27,308.74 L62.27,316.55 C62.27,316.66 62.27,316.78 62.27,316.89 C62.27,317 62.27,317.11 62.34,317.23 L63.62,322.38 L64.9,327.53 C65.0576235,328.132621 65.4089963,328.666708 65.9,329.05 C66.3889071,329.438894 66.9952854,329.650421 67.62,329.65 L68.8,329.65 L68.8,326.65 C68.7799451,325.513044 69.4543421,324.478499 70.5026952,324.038014 C71.5510483,323.59753 72.7619738,323.839923 73.56,324.65 L75.81,326.9 L78.05,329.15 C78.3102077,329.41127 78.6194594,329.618571 78.96,329.76 C79.2877485,329.906907 79.6410196,329.988431 80,330.000191 L104,330.000191 C104.750205,330.008797 105.471892,329.712905 106,329.18 C106.529071,328.649336 106.824272,327.929334 106.820046,327.18 L106.820046,327.18 C106.820046,326.640481 106.663811,326.1125 106.37,325.66 C106.070149,325.22213 105.654763,324.875975 105.17,324.66 L100.17,322.41 L95.17,320.16 C94.9901446,320.080574 94.8024498,320.020243 94.61,319.98 C94.420428,319.932108 94.2255228,319.908585 94.03,319.91 L79,319.91 C78.632917,319.911853 78.2691524,319.84046 77.93,319.7 C77.5874891,319.562271 77.2775333,319.354499 77.02,319.09 L72.13,314.19 L67.24,309.28 L67.24,309.28 C67.1771669,308.326219 66.549823,307.502564 65.6470268,307.188548 C64.7442306,306.874532 63.7411619,307.131086 63.1,307.84 L63.08,307.83 Z" id="Path" fill="#023852"></path>
            <path d="M90.14,218.69 L81.14,217.47 L72.14,216.24 L71.62,216.24 C71.5556305,216.479114 71.512134,216.723364 71.49,216.97 C71.46509,217.229403 71.46509,217.490597 71.49,217.75 L72.49,226.06 L73.49,234.37 C73.5099095,234.579528 73.5099095,234.790472 73.49,235 C73.4820711,235.208116 73.4586732,235.415355 73.42,235.62 L72,242.94 L70.59,250.26 C70.59,250.37 70.59,250.48 70.54,250.59 C70.49,250.7 70.54,250.81 70.54,250.92 L70.37,256.71 L70.2,262.49 L80.34,252.32 L90.48,242.16 L92.05,232.79 L93.62,223.42 C93.8033243,222.328781 93.5366904,221.209846 92.8809522,220.31857 C92.2252141,219.427294 91.2363323,218.839738 90.14,218.69 L90.14,218.69 Z" id="Path" fill="#0099DA"></path>
            <path d="M91.7,123.81 L90.56,138.33 L89.43,152.85 C89.43,152.97 89.43,153.09 89.43,153.21 C89.43,153.33 89.43,153.46 89.43,153.58 L93.05,186 L96.65,218.43 C96.7402129,219.232852 96.4878607,220.036545 95.954909,220.643729 C95.4219573,221.250913 94.6577719,221.605348 93.85,221.62 L72.99,221.92 L52.13,222.23065 C51.2772267,222.247184 50.4528821,221.923206 49.84,221.33 C49.2235721,220.740813 48.8642642,219.93237 48.84,219.08 L48,197.76 L47.17,176.42 L44.51,170.94 L41.85,165.46 C38.7453069,159.09064 38.8268442,151.629985 42.07,145.33 L47.36,135 L52.65,124.69 L72.18,124.24 L91.7,123.81 Z" id="Path" fill="#023852"></path>
            <path d="M51.31,127 L46.86,135.79 L42.42,144.59 C42.3212812,144.78134 42.299803,145.003281 42.36,145.21 C42.4186568,145.421429 42.5541824,145.603318 42.74,145.72 L57.34,154.97 L71.94,164.21 C72.2508022,164.404954 72.6499441,164.386626 72.9415722,164.16401 C73.2332003,163.941393 73.3561135,163.561205 73.25,163.21 L70.87,155.06 L68.49,147 C68.3967366,146.686993 68.486638,146.348119 68.7227948,146.122505 C68.9589515,145.896891 69.3015751,145.822549 69.61,145.93 L78.99,149.22 L88.37,152.51 C88.6230795,152.603849 88.9058405,152.570364 89.13,152.42 C89.3540313,152.271161 89.4976937,152.02804 89.52,151.76 L90.46,140.07 L91.4,128.38 C91.410815,128.224649 91.3797337,128.069242 91.31,127.93 C91.2453887,127.79283 91.1452615,127.675439 91.02,127.59 L88.81,126.09 L86.61,124.59 C86.4966778,124.511211 86.3665841,124.459859 86.23,124.44 C86.0948002,124.411683 85.9551998,124.411683 85.82,124.44 L83.62,125.25 L81.41,126.05 L81.27,126.05 L81.13,126.05 L66.6,126.27 L52.07,126.49 C51.9109361,126.49138 51.7552948,126.536343 51.62,126.62 C51.4798833,126.711591 51.371585,126.844344 51.31,127 L51.31,127 Z" id="Path" fill="#06233C" opacity="0.6" style="mix-blend-mode: multiply;"></path>
            <path d="M181.88,107.54 L181.82,82.32 L181.77,57.09 C181.764499,54.4413151 179.618685,52.2955009 176.97,52.29 L97.91,52.29 C96.6343078,52.2926494 95.4119175,52.8019585 94.5117423,53.7058844 C93.6115671,54.6098104 93.1073451,55.8343078 93.1099896,57.11 L93.1099896,82.46 L93.17,107.81 L93.23,127.64 L93.29,147.47 C93.2899819,147.978435 93.3919959,148.481704 93.59,148.95 C93.783992,149.401759 94.0622883,149.812415 94.41,150.16 C94.7542342,150.504602 95.1616667,150.779619 95.61,150.97 C96.0795419,151.162788 96.5824225,151.261325 97.09,151.260013 L117.36,151.2 L137.63,151.13 L157.9,151.07 L178.17,151.01 C178.678327,151.008945 179.181386,150.906973 179.65,150.71 C180.096719,150.51224 180.503431,150.23432 180.85,149.89 C181.196868,149.543795 181.472111,149.132629 181.66,148.68 C181.854837,148.211075 181.953456,147.707779 181.950088,147.2 L181.89,127.37 L181.88,107.54 Z" id="Path" fill="#9E9D8E"></path>
            <polygon id="Path" fill="#B4B2AB" points="108.31 80.41 108.31 77.08 108.31 73.76 137.57 73.76 166.83 73.76 166.83 77.08 166.83 80.41 137.57 80.41"></polygon>
            <polygon id="Path" fill="#B4B2AB" points="108.31 130.47 108.31 127.14 108.31 123.82 120.72 123.82 133.12 123.82 133.12 127.14 133.12 130.47 120.72 130.47"></polygon>
            <polygon id="Path" fill="#B4B2AB" points="108.31 92.92 108.31 89.6 108.31 86.28 125.82 86.28 143.33 86.28 143.33 89.6 143.33 92.92 125.82 92.92"></polygon>
            <polygon id="Path" fill="#B4B2AB" points="108.31 105.44 108.31 102.11 108.31 98.79 116.55 98.79 124.78 98.79 124.78 102.11 124.78 105.44 116.55 105.44"></polygon>
            <polygon id="Path" fill="#B4B2AB" points="108.31 117.95 108.31 114.63 108.31 111.31 125.82 111.31 143.33 111.31 143.33 114.63 143.33 117.95 125.82 117.95"></polygon>
            <path d="M93.3,130.39 L93.3,147.39 C93.3,149.599139 95.090861,151.39 97.3,151.39 L169.3,151.39 L131.21,120.93 L93.1,90.39 L93.2,110.39 L93.3,130.39 Z" id="Path" fill="#E0DFDC" style="mix-blend-mode: multiply;"></path>
            <path d="M118,124.13 C119.88,124.84 124.65,126.58 129.49,128.34 L141.34,132.62 C141.613239,132.721305 141.828695,132.936761 141.93,133.21 C142.034623,133.485181 142.012672,133.792483 141.87,134.05 L141.27,135.17 L140.66,136.29 C140.558591,136.473317 140.405599,136.622831 140.22,136.72 C140.034146,136.811411 139.824494,136.842859 139.62,136.81 L136.62,136.33 L133.62,135.85 L139.84,140.17 L146.05,144.49 C146.271562,144.641518 146.422909,144.875747 146.47,145.14 C146.512139,145.401207 146.455067,145.66873 146.31,145.89 L145.84,146.57 L145.38,147.24 C145.252389,147.426068 145.065604,147.563513 144.85,147.63 C144.63634,147.704692 144.40366,147.704692 144.19,147.63 L139.73,145.88 L135.27,144.14 C134.934081,144.00537 134.551635,144.062737 134.27,144.29 C133.986103,144.517589 133.84823,144.881421 133.91,145.24 L134.56,149.24 L135.21,153.24 C135.258728,153.524477 135.182168,153.816134 135,154.04 C134.818311,154.264374 134.548513,154.399273 134.26,154.41 L129.9,154.63 L125.53,154.85 C125.087176,154.876149 124.680051,154.607447 124.53,154.19 L122.33,148.19 L120.12,142.19 C120.086721,142.101812 120.043081,142.017891 119.99,141.94 C119.931051,141.866038 119.863962,141.798949 119.79,141.74 L115.91,138.74 L112.02,135.74 C111.835683,135.594878 111.708254,135.389575 111.66,135.16 C111.60582,134.930981 111.634148,134.690191 111.74,134.48 L114.26,129.59 L116.78,124.7 C116.884718,124.475081 117.075838,124.301991 117.31,124.22 C117.521809,124.108365 117.766642,124.07643 118,124.13 L118,124.13 Z" id="Path" fill="#0099DA"></path>
            <path d="M146,144.49 L144.68,143.58 L143.36,142.66 L143.17,142.93 L142.98,143.21 C142.852389,143.396068 142.665604,143.533513 142.45,143.6 C142.237231,143.679773 142.002769,143.679773 141.79,143.6 L137.33,141.85 L132.87,140.11 C132.533054,139.973665 132.148664,140.030898 131.866051,140.259482 C131.583439,140.488065 131.447115,140.851998 131.51,141.21 L132.16,145.21 L132.8,149.21 C132.851504,149.493021 132.778631,149.784513 132.6,150.01 C132.418311,150.234374 132.148513,150.369273 131.86,150.38 L127.55,150.6 L123.24,150.82 L123.86,152.51 L124.48,154.19 C124.630051,154.607447 125.037176,154.876149 125.48,154.85 L129.85,154.63 L134.21,154.41 C134.522991,154.404517 134.815355,154.252784 135,154 C135.182168,153.776134 135.258728,153.484477 135.21,153.2 L134.56,149.2 L133.91,145.2 C133.84823,144.841421 133.986103,144.477589 134.27,144.25 C134.551635,144.022737 134.934081,143.96537 135.27,144.1 L139.73,145.84 L144.19,147.59 C144.40366,147.664692 144.63634,147.664692 144.85,147.59 C145.065604,147.523513 145.252389,147.386068 145.38,147.2 L145.84,146.53 L146.31,145.85 C146.455067,145.62873 146.512139,145.361207 146.47,145.1 C146.401044,144.842079 146.231814,144.622441 146,144.49 Z" id="Path" fill="#66C2E9" style="mix-blend-mode: multiply;"></path>
            <path d="M84,6.68 L85,10.48 L86,14.28 C86.3321738,15.4907713 86.4138391,16.7565827 86.24,18 L85.69,21.85 L85.15,25.7 C85.130079,25.8292368 85.130079,25.9607632 85.15,26.09 C85.1699901,26.2241365 85.2069531,26.3551872 85.26,26.48 L86.72,28.29 L88.17,30.11 C88.3397229,30.4855011 88.3366862,30.9164571 88.1616885,31.2895291 C87.9866908,31.6626012 87.6572474,31.9404489 87.26,32.05 L85.93,32.32 L84.6,32.59 C84.3284318,32.664541 84.0849182,32.8176067 83.9,33.03 C83.7189162,33.2461503 83.6043001,33.5101146 83.57,33.79 L83.19,37.27 L82.81,40.74 C82.6718847,42.0516058 82.0150348,43.2535272 80.98573,44.078098 C79.9564251,44.9026689 78.6401366,45.2814185 77.33,45.13 L74.53,44.81 L71.73,44.49 C71.0230128,44.4256711 70.3758687,44.8897416 70.21,45.58 L69.8,47.45 L69.38,49.32 C69.3002735,49.6874696 69.0770718,50.007872 68.76,50.21 C68.4436897,50.4063316 68.0618419,50.4675714 67.7,50.38 L59.32,48.38 L50.94,46.38 C50.3267174,46.2060263 49.9103875,45.6371795 49.93,45 L51.82,24 L53.7,3.12 C53.7205473,2.72714795 53.9101961,2.3624386 54.22,2.12 C54.5195702,1.88395081 54.901987,1.77932733 55.28,1.83 L69.06,3.73 L82.83,5.63 C83.1021239,5.67053097 83.3580029,5.78463919 83.57,5.96 C83.7830406,6.15083325 83.9330088,6.40194284 84,6.68 Z" id="Path" fill="#0099DA"></path>
            <path d="M84.22,5.89 L83.34,4.83 L82.45,3.77 L72.18,2 L61.91,0.24 C53.1373482,-1.2632485 44.8064742,4.62790156 43.3,13.4 L43.3,13.4 C43.1202588,14.4195941 43.0698609,15.4577904 43.15,16.49 C43.2317185,17.5109248 43.4365372,18.5182299 43.76,19.49 L45.76,25.37 L47.76,31.24 L50.47,36.56 L53.18,41.87 L56.6,34.87 L60.01,27.87 L60.18,25.61 L60.34,23.35 C60.4404056,22.2437218 61.3497533,21.3858466 62.46,21.35 L62.98,21.35 C63.7278186,21.3297072 64.4617674,21.5544571 65.07,21.99 L67.14,23.48 L69.2,24.98 L70.26,24.84 L71.31,24.69 C72.1096148,24.5520757 72.6545882,23.803291 72.54,23 L72.32,20.53 L72.09,18.06 L74.75,14.68 L77.42,11.31 C77.8658753,10.738489 78.2263101,10.1052017 78.49,9.43 C78.7575369,8.75847588 78.9227121,8.0505822 78.98,7.33 L79.07,6.26 L79.15,5.18 L81.69,5.54 L84.22,5.89 Z" id="Path" fill="#023852"></path>
            <path d="M43.79,18 C45.3160303,9.23779489 53.6430485,3.36147811 62.41,4.86 L70.66,6.28 L78.92,7.7 L78.92,7.52 C78.9288916,7.45697875 78.9288916,7.39302125 78.92,7.33 L79.01,6.26 L79.09,5.18 L81.63,5.54 L84.16,5.89 L83.28,4.83 L82.39,3.77 L72.18,2 L61.91,0.24 C53.1373482,-1.2632485 44.8064742,4.62790156 43.3,13.4 C43.1304873,14.3567692 43.0801039,15.3308475 43.15,16.3 C43.2136736,17.2733229 43.388134,18.2362102 43.67,19.17 C43.67,18.98 43.67,18.78 43.72,18.59 C43.77,18.4 43.76,18.21 43.79,18 Z" id="Path" fill="#4E7486"></path>
            <path d="M36.16,38.07 C36.1596933,42.3207497 39.1621436,45.9797646 43.3311609,46.8093234 C47.5001781,47.6388823 51.6746233,45.4079396 53.3015566,41.4808592 C54.9284899,37.5537787 53.5547841,33.0243163 50.0205478,30.6625273 C46.4863116,28.3007383 41.7758873,28.7644194 38.77,31.77 C37.0990118,33.4408178 36.16,35.7069863 36.16,38.07 Z" id="Path" fill="#023852"></path>
            <path d="M64.34,36 C64.2390172,35.7180434 64.3576614,35.4044836 64.62,35.26 C64.8750997,35.0999319 65.208332,35.1463313 65.41,35.37 L69.71,40.07 L74,44.78 L72.82,44.64 L71.64,44.49 C70.954957,44.4715421 70.3558377,44.948306 70.22,45.62 L69.79,47.77 L69.36,49.92 C69.2841423,50.2943776 69.0606512,50.6224048 68.74,50.83 C68.4125848,51.036253 68.0144037,51.0977901 67.64,51 L64,50.07 L60.32,49.14 C60.0368136,49.0674928 59.8387451,48.8123214 59.8387451,48.52 C59.8387451,48.2276786 60.0368136,47.9725072 60.32,47.9 L62.32,47.47 L64.32,47.03 C64.5864553,46.9772104 64.8305753,46.8446881 65.02,46.65 C65.2117798,46.4558196 65.3407007,46.2084308 65.39,45.94 L65.77,44.05 L66.15,42.17 C66.1649544,42.0504659 66.1649544,41.9295341 66.15,41.81 C66.1397309,41.6918726 66.1196618,41.574803 66.09,41.46 L65.21,38.74 L64.34,36 Z" id="Path" fill="#66C2E9" style="mix-blend-mode: multiply;"></path>
            <path d="M84.85,27.87 L85.85,29.11 L86.85,30.35 C86.9405229,30.4624441 86.9669571,30.6134969 86.92,30.75 C86.869167,30.8867655 86.752449,30.9884231 86.61,31.02 L85.33,31.28 L84.06,31.55 C83.9211056,31.5783862 83.7774021,31.5330062 83.68,31.43 C83.5846968,31.3320032 83.5403534,31.1952778 83.56,31.06 L83.84,29.56 L84.13,28.05 C84.1585145,27.8916071 84.2750333,27.7634364 84.43,27.72 C84.5870144,27.6878168 84.7488968,27.7456319 84.85,27.87 L84.85,27.87 Z" id="Path" fill="#66C2E9" style="mix-blend-mode: multiply;"></path>
            <path d="M47.7,49.41 C47.62,48.97 47.53,48.26 47.46,47.66 C47.39,47.06 47.35,46.58 47.35,46.58 L49.65,45.34 L52,44.1 L62.6,46.1 L73.2,48.1 L74.79,52.17 L76.38,56.25 L83.66,64.25 L90.94,72.25 C91.6414692,73.057932 92.1842873,73.9909006 92.54,75 C92.9153048,75.9801013 93.1084734,77.0205002 93.11,78.07 L93.11,111.26 L106.54,118.08 L120,124.87 L117.4,130.27 L114.81,135.67 C113.860643,137.661422 111.519135,138.562002 109.48,137.72 L95.39,131.92 L81.3,126.11 L67.3,126.47 L53.3,126.82 L52.05,127.33 L50.8,127.84 C49.6965418,128.285404 48.4438912,128.153411 47.4575016,127.487799 C46.4711119,126.822186 45.8799199,125.70996 45.88,124.52 L45.88,119.52 C45.8779938,119.281516 45.9014601,119.0435 45.95,118.81 C45.9886819,118.577157 46.0523842,118.34917 46.14,118.13 L48,113 L50,107.85 C50.1873682,107.340928 50.282194,106.802454 50.28,106.26 C50.27072,105.717224 50.1587476,105.181115 49.95,104.68 L45.95,95.01 L41.95,85.35 L44.87,67.35 L47.7,49.41 Z" id="Path" fill="#FFFFFF"></path>
            <path d="M75.56,71.67 L78,86.49 L80.41,101.31 L86.77,106.31 L93.13,111.31 L93.13,82.71 L89.5,78.71 L85.86,74.71 C85.4238054,74.2113079 84.710718,74.0605409 84.11,74.34 C83.5027168,74.6078786 83.1415643,75.24091 83.22,75.9 L83.31,76.73 L83.4,77.56 C83.4905189,78.0813612 83.1826718,78.5896192 82.6786863,78.7508945 C82.1747007,78.9121699 81.6289744,78.6770555 81.4,78.2 L79.4,74.64 L77.34,71.08 C77.1233782,70.6748024 76.6386836,70.4946504 76.21,70.66 C75.7731428,70.7892861 75.4967024,71.2188321 75.56,71.67 L75.56,71.67 Z" id="Path" fill="#A6DBF2"></path>
            <path d="M51.06,80.76 L56.72,98.12 L62.37,115.48 L71.82,120.8 L81.27,126.11 L72.27,126.31 L63.27,126.51 C59.7486251,126.582097 56.6378897,124.228362 55.75,120.82 L55.26,118.96 L54.78,117.11 C54.6299901,116.499074 54.6299901,115.860926 54.78,115.25 C54.933769,114.644248 55.2323214,114.084892 55.65,113.62 L56.02,113.21 L56.38,112.81 C56.8260772,112.325275 57.1455358,111.737883 57.31,111.1 C57.4652633,110.459272 57.4652633,109.790728 57.31,109.15 L54.19,95 L51.06,80.76 Z" id="Path" fill="#A6DBF2"></path>
            <path d="M46.21,40 C45.1244065,41.0766474 43.722674,41.7775137 42.21,42 C40.7159932,42.2244869 39.1891377,41.9799105 37.84,41.3 C38.007492,41.6497073 38.2048931,41.9842855 38.43,42.3 C38.6510996,42.6291349 38.902169,42.9371135 39.18,43.22 C42.0732984,45.5633891 46.2675326,45.3499269 48.9079677,42.7249029 C51.5484028,40.099879 51.7864127,35.9069661 49.46,33 C49.1766275,32.7227124 48.8687006,32.4716851 48.54,32.25 C48.2207953,32.0303136 47.8866505,31.8331682 47.54,31.66 C48.2122852,33.0151534 48.4530983,34.5437931 48.23,36.04 C47.9925455,37.5404554 47.2853025,38.9269317 46.21,40 L46.21,40 Z" id="Path" fill="#06233C" opacity="0.6" style="mix-blend-mode: multiply;"></path>
        </g>
    </g>
</svg>