<svg width="115" height="90" viewBox="0 0 115 90" xmlns="http://www.w3.org/2000/svg" xmlns:xlink="http://www.w3.org/1999/xlink"> <defs><style>.icon-blink{animation:blink-animation 1s steps(5, start) infinite;-webkit-animation:blink-animation 1s steps(5, start) infinite}.number3-dash-animate{stroke-dasharray:65;stroke-dashoffset:0;-webkit-animation:dash-number3 4s linear infinite;-o-animation:dash-number3 4s linear infinite;-moz-animation:dash-number3 4s linear infinite;animation:dash-number3 4s linear infinite}@keyframes blink-animation{to{visibility:hidden}}@-webkit-keyframes blink-animation{to{visibility:hidden}}@-webkit-keyframes dash-number3{0%{stroke-dashoffset:70;fill:transparent}40%{stroke-dashoffset:0;fill:#023852}60%{stroke-dashoffset:0;fill:#023852}70%{stroke-dashoffset:0;fill:transparent}100%{stroke-dashoffset:70;fill:transparent}}@keyframes dash-number3{0%{stroke-dashoffset:70;fill:transparent}40%{stroke-dashoffset:0;fill:transparent}60%{stroke-dashoffset:0;fill:#023852}70%{stroke-dashoffset:0;fill:transparent}100%{stroke-dashoffset:70;fill:transparent}}</style><path id="a" d="M0 .19227707h5.03323357v5.39548935H0z"/></defs><g fill="none" fill-rule="evenodd"><path d="M41.3186239 48.8401536V67.849935h-4.3585037c-1.248879-1.5422398-2.6821561-4.4926115-4.7021549-7.1412406-2.0199989-2.6486292-4.6351011-5.02904273-8.2308666-5.36431224-.2673774-.03268878-.5146387-.16092936-.6956842-.36041473-.1751783-.20619075-.2732447-.46770097-.2765974-.73759292v-4.29144977c.0041909-.60851417.4970371-1.10136035 1.1063894-1.1063894h17.1574174v-.00838173z" fill="#96A6AE"/><path d="M28.7206459 72.4514253v4.249541c.0016509.207029-.079652.4073525-.2263324.5531947-.1491949.1433277-.3461657.2279833-.5531947.2346887H3.26528266c-.33359316-.0226307-.59175069-.3025808-.58686884-.6370121v-4.4004123c-.01661628-3.5236826 1.39905924-6.9031993 3.9228005-9.3624012l.26821561-.2682156.28497909-.2514521c.66467181-.56912 1.38298674-1.0711861 2.14572488-1.5003311.76609084-.429145 1.57157584-.7828543 2.40555876-1.056099 1.28408224-.4123815 2.62516024-.6210868 3.97294374-.6202511.6822734.0016789 1.3628706.0544838 2.0367623.1592555.6596427.1005809 1.3100656.255643 1.9445632.4609956.6202486.1994854 1.22541.4425558 1.8104553.7292112.5808545.2900081 1.1415927.6210868 1.6763476.9890451.3101243.2179252.6202486.4526138.9136094.7040659.2933608.2447468.5733109.5045807.8381738.7795017 1.1918831 1.2044557 2.1398577 2.6268366 2.7911187 4.1908689.6780826 1.5958829 1.0292774 3.3124628 1.0309792 5.0458062" fill="#E2E6E8"/><path d="M14.9161497 63.0891079l.2765973-.2682156.2933609-.2514521c.6311448-.5456512 1.3134183-1.0284393 2.0367623-1.4416589.7350784-.4132197 1.5070364-.7577091 2.3049779-1.0309538-.6596428-.2196015-1.3343727-.3880745-2.0199989-.5029043-.7065805-.1190206-1.4215427-.1768546-2.1373431-.1760264-1.3486216-.0016664-2.6888615.207877-3.97294373.6202585-.83063022.2665393-1.63276253.6118669-2.39717702 1.0309538-.75184188.4174105-1.46177507.9052277-2.12057967 1.4584224l-.28497908.2514521-.27659735.2682156c-2.54050474 2.4667455-3.96372382 5.8630256-3.93941678 9.4043099v4.4004123c-.00419087.347004.27324465.6328212.6202486.6370121h7.69443532v-5.0290427c-.01927799-3.5261971 1.39639751-6.9090665 3.92265331-9.3707829" fill="#FFF"/><path d="M27.3043613 77.4886821c.0341944 6.3977804-5.1239271 11.6120595-11.5217075 11.6455865-1.9923391.0100581-3.95366578-.4928462-5.69455273-1.4617751l.21792519-.18356.22630692-.1852365-2.69891958-3.2185873-2.69053784-3.2102056-.22630693.1936182-.22630692.1919418c-.20954344-.5976179-.36963464-1.2111611-.47775905-1.8347624-.10393355-.6403648-.1567385-1.2882731-.15925302-1.9370196H27.3043613z" fill="#F2F2F2"/><path d="M4.62312419 81.3111736l-.83817378.7124477-.83817378.7124477c-.13913685.1148298-.22630692.2807882-.2430704.4609956-.01005808.178531.04693773.3553857.15925302.4945225l.20954344.2514522.21792519.2506139 1.79369189 2.1465631 1.78531016 2.1708701.25145214.2925226.24307039.294199c.11818251.1332697.28330274.2179252.46099558.2338505.18020737.019278.35957656-.0393942.49452254-.1584148l.83817378-.7132859.83817378-.704066c.28665543-.2338505.32856412-.6571282.09387546-.9437837-.00335269-.0025145-.00670539-.0067054-.01005808-.0108962L7.81656631 84.110674l-2.237924-2.715683c-.2430704-.2824646-.66718634-.3193442-.95551812-.0838174" fill="#023852"/><g transform="translate(1.836364 84.027276)"><mask id="b" fill="#fff"><use xlink:href="#a"/></mask><path d="M5.03323357 4.48372683l-.44423211.36795829-.4442321.37801638c-.62611582.53559305-1.56822315.46183375-2.1038162-.16428206-.00586722-.00586722-.01089626-.01341078-.01676347-.02011617L1.1860159 4.0562582l-.83817378-.98904506c-.52804948-.63868842-.44590845-1.5824721.18439823-2.12057967l.4442321-.3771782.45261385-.3771782 1.79369189 2.14488671 1.81045538 2.14656305z" fill="#194D6D" mask="url(#b)"/></g><path d="M27.3041906 77.4886821c0 6.4162203-5.2008683 11.6171753-11.6170887 11.6171753h-.0083817c-.4232778.0015896-.8448792-.0210411-1.2656424-.0671406-.4249541-.0502905-.8473937-.1232116-1.2656424-.217087h.1341078c2.4449529-.5230205 4.0500557-2.8724216 3.6460559-5.3400052-.2372031-2.4910525-2.3594592-4.3761053-4.8614079-4.316595H4.17897591c0-.2765973-.07543564-.5531947-.09219912-.8381738-.01676348-.2849791 0-.5615764 0-.8381737H27.3041906z" fill="#C0CACE"/><path d="M23.1387183 61.7483651c-.5347548-.3687964-1.0954931-.6990369-1.6763475-.9898832-.5825308-.2908463-1.1843396-.5397839-1.8020737-.7451365-.6344975-.2053526-1.2849204-.3604147-1.9445632-.4609956-.6738917-.1047717-1.3544888-.1584148-2.0367622-.1600912-1.3486217-.0008381-2.6888615.2078671-3.97294377.6210868-.83398292.2732447-1.63946792.626954-2.40555876 1.0552608-.75184188.4182487-1.46177508.9060659-2.12057967 1.4592605 1.11728565-1.071186 2.11471245-2.2597165 2.97551693-3.5463132.90271316-1.24971714 1.43998256-2.72741751 1.5506215-4.26630458v-3.08364135c.00167634-.57163452.22714507-1.118962.62863037-1.52631446.4031616-.40735245.9521654-.6361739 1.5254762-.6361739h9.2199117v5.16315051H19.727351v.70406597c.2447468 1.23127729.6948461 2.41310232 1.3326963 3.49518471.5565474 1.0619662 1.2564225 2.0434676 2.078671 2.9168447" fill="#CAD3D6"/><path fill="#dce2e6" d="M70.9309683 74.1949105h-3.6795829V62.9717636h3.6795829v5.6073826z"/><path fill="#dce2e6" d="M67.880351 73.0129179l.9219912 1.5925302.9219912 1.5925301-6.9903694 3.453276-6.9903693 3.453276L54.8216035 81.512l-.9219912-1.5925302 6.9903694-3.4532759z"/><path d="M61.2167018 48.47135714h-.9295347c-1.3930448.10728625-2.7349611.56912-3.8983463 1.34107806-3.7424459 2.48937613-4.7591507 7.54104952-2.2697746 11.2834955 1.5606796 2.3460484 4.2227195 3.718977 7.0389835 3.6276161l13.9639752-.2095435 13.9723569-.2179251-.5951033-8.08837704-.5951034-8.09675874-13.3437267.16763475-13.3437266.19277997z" fill="#dce2e6"/><path d="M94.3245662 51.3129339c2.7425047 3.57229666 2.0711275 8.6918621-1.5011692 11.4352049-3.5731348 2.7433428-8.6927003 2.0702893-11.4360431-1.5011692-2.7425046-3.57313486-2.0702892-8.6935385 1.5020074-11.43604312 1.7174181-1.31928553 3.8899646-1.90097814 6.038204-1.61599905 2.1398576.28330274 4.0819063 1.40477926 5.3970009 3.11800647" fill="#023852"/><path d="M92.7324551 56.74388093c-.381369 2.48518527-2.7047868 4.19003077-5.1882957 3.80866167-2.4851852-.3805309-4.1900307-2.70394863-3.8094998-5.18829572.3813691-2.48434709 2.7039486-4.19003074 5.1882957-3.80866167 1.1885304.18188371 2.2563638.82727752 2.9713261 1.7936919.7208294.97395793 1.022572 2.19685348.8381737 3.39460382" fill="#0099DA"/><path d="M89.2701269 53.41649864c.4182487-.19864718.9186384-.02179251 1.1172856.3964562.1994854.41741055.0217926.91696212-.395618 1.11728566-.1969708.09303729-.4232778.10728624-.6294685.03687964-.2128961-.07124477-.3880745-.22546875-.4861408-.42746863-.2019999-.41657237-.0284979-.91780029.3880745-1.11980017.0016763-.00167635.0041908-.00251452.0058672-.0033527" fill="#FFF"/><path d="M73.2948886 75.100222c-.0050478 2.3468866-1.911055 4.2453502-4.2579416 4.2411663-2.3468866-.0041978-4.2461883-1.9110431-4.2411693-4.2579297.0042009-2.3468866 1.9110462-4.2461884 4.2570946-4.2411693 1.1265056.0025244 2.2060734.4509474 3.0015004 1.2488889.7971032.7979414 1.2438498 1.8808619 1.2405159 3.0090438M48.5937208 73.17259v16.6788201c4.6066031.4626719 8.7144929-2.8967286 9.1771648-7.5024936.4618337-4.6057649-2.8967286-8.7144928-7.5024935-9.1763265-.5573856-.0561577-1.1172857-.0561577-1.6746713 0" fill="#023852"/><path fill="#C0CACE" d="M70.9309683 67.7662014h-3.6795829v-3.1263882h3.6795829v1.567385z"/><path d="M18.9450381 37.2716845c-3.8253167.0040268-7.4951182-1.5137878-10.2000271-4.2186966-2.70490887-2.7049089-4.22272347-6.3747105-4.21869665-10.2000271v-3.8937257H33.3626741v3.8937257c.0031637 3.8248637-1.5147802 7.4939972-4.2192665 10.1986869-2.7044862 2.7046897-6.3735056 4.2229096-10.1983695 4.2200368z" fill="#BAC6CD" fill-rule="nonzero"/><path d="M24.5339987 19.5861358v11.3688113a6.02062744 6.02062744 0 00.5791781-.257051 5.77441539 5.77441539 0 00.5423016-.3134503 5.85686242 5.85686242 0 00.5065098-.3676805 5.67355001 5.67355001 0 00.4642102-.4186569c1.1194541-1.1167697 1.7478551-2.6335189 1.7462144-4.2147682v-5.7972044h-3.8384141zm-14.3232764 0v5.7972044c-.00218935 1.5805068.6245229 3.0969476 1.7418786 4.2147682a5.67355001 5.67355001 0 00.4642102.4186569 5.85685951 5.85685951 0 00.5119327.3676805 5.77444085 5.77444085 0 00.5423016.3134503c.1884134.0957909.4533243.1815933.650762.257051V19.5861358h-3.9110851z" fill="#023852" fill-rule="nonzero"/><path d="M19.2953649 18.9798425h-5.2429721v11.9550272c.1648597.0661507.3326117.1246979.5032559.1756415.1713673.0501833.3459884.0935234.5227788.1277393.1767903.0342158.3568344.0615885.5423016.0786965.1854672.0171079.3665959.0273727.5542323.0273727h6.2473147c.1865518 0 .372019-.0091243.5542323-.0273727.1822133-.0182485.3611729-.0444807.5423016-.0786965.1811288-.0342159.3514115-.077556.5227788-.1277393s.3383962-.1140529.5032559-.1756415V18.9798425h-5.2494798z" fill="#023852" fill-rule="nonzero"/><path d="M27.4624275 18.9592351v1.265732c.0025924 3.8250633-1.5158344 7.4941909-4.2206649 10.198818-2.7048305 2.704627-6.3740724 4.2227778-10.1991354 4.2198977-.2364436 0-.4714409-.0057846-.7049922-.0173537-.2342743-.0119306-.4663794-.0281996-.6963153-.0509763-.2299358-.0227767-.4598717-.0509764-.6865538-.0845991s-.45336418-.0715838-.67679245-.1149679a14.44583711 14.44583711 0 001.91432475 1.219094c1.3655344.7252244 2.8393802 1.2248083 4.3644435 1.4793989.7885407.1317328 1.5866587.1977589 2.3861272.197407 3.8255045.0043139 7.495585-1.5133734 10.2007286-4.2183136 2.7051437-2.7049402 4.2231071-6.3749065 4.2190797-10.2004113v-3.8937257h-5.9002497z" fill="#FFF" fill-rule="nonzero" opacity=".3"/><path d="M34.3539966 20.8768265H4.04801234c-.24083809.0002196-.47921198-.0484884-.70065371-.1431805-.43357662-.1833861-.77865702-.5284665-.96204309-.9620431-.09469214-.2214417-.14316845-.4598156-.14316845-.7006537v-2.5759327c0-.2401077.04876379-.4777144.14316845-.69848453.18338607-.43357662.52846647-.77865702.96204309-.96204309.22144173-.09469214.45981562-.14340012.70065371-.14316845H34.3539966c.2411881-.00022788.4799156.04847696.7017383.14316845.2144559.09081589.4092947.22230445.5737551.38720337.1649001.16510096.2966976.36022016.388288.57483972.0938047.22167943.142083.45994413.142083.70065373v2.5759327c0 .2407096-.0482783.4789743-.142083.7006537-.1842504.4329938-.5290493.7777928-.9620431.9620431-.2219782.0939473-.4606998.1419131-.7017383.1410113z" fill="#CED6DB" fill-rule="nonzero"/><path fill="#CED6DB" fill-rule="nonzero" d="M32.8583287 15.28785305H1.22695927l.1019527.3015197.1019527.30043515H37.2498873l.090022-.1496753.0889375-.15075985.0889375-.15075985.090022-.15075985h-2.3752811z"/><path fill="#CED6DB" fill-rule="nonzero" d="M1.43086468 15.8898079H37.2498873v1.7418728H1.43086468v-1.3058623z"/><path d="M2.337593 5.86807115h34.1650026c.2270931-.00025241.4517243.04703836.6594388.13883182.6244045.277179 1.009132.91492559.9631277 1.59653599l-.131237 1.92083237-.1290678 1.92083237-.1279832 1.92191698-.1290678 1.92083237H1.23021307l-.12364477-1.92083237-.1334062-1.92191698-.12906779-1.92083237-.12906778-1.92083237c-.03046831-.44923767.12660733-.8910129.4338413-1.22017866.1497114-.15884424.32917903-.28671952.52820179-.37635733.20804868-.09194174.43306487-.13923578.66052338-.13883182z" fill="#9DADB7" fill-rule="nonzero"/><path class="icon-blink" d="M12.4742963 10.82904905c-.0023679-.96607562-.7358995-1.77341751-1.6973256-1.86811452-.96142616-.09469701-1.83837419.55401843-2.02917674 1.50106758-.19080255.94704916.36653317 1.88473059 1.28962334 2.16970818.9230902.2849776 1.9120178-.17533941 2.2882871-1.06513102.0983584-.23343126.1488856-.48422319.1485919-.73753022z" fill="#FFE700" fill-rule="nonzero"/><path d="M5.78446216 10.48197396c-.13959555-.0003887-.2735492.05506733-.37201892.15401571-.13290956.13290956-.18481665.32662946-.13616838.50818729.04864828.18155784.19046109.32337065.37201892.37201892.18155783.04864828.37527773-.00325881.50818729-.13616837.15049298-.15044628.19552069-.37674307.1140808-.5733385-.0814399-.19659543-.27330353-.3247597-.48609971-.32471505z" fill="#0099DA" fill-rule="nonzero"/><path d="M36.5058494 5.87783518H19.3626103V20.8854905h15.0315166c.4692326-.0005742.9190371-.1874401 1.2505476-.519525.1617484-.1615482.290985-.3526417.3806957-.5629091.0924574-.2174555.1400466-.4513436.1399138-.6876385v-1.4750604h1.0900263v-1.7353652l.0889375-.15075985.090022-.15075986.0889375-.14967525.0900221-.15075985.1279831-1.92191697.1334062-1.92300158.1290678-1.92083237.1279832-1.92191697c.0159831-.22651168-.0161756-.45384065-.0943605-.66703101-.0754142-.20472075-.1908157-.39238651-.3394808-.55206305-.3075696-.3286223-.7375387-.5151386-1.1876405-.51518655l-.0043385-.00325381z" fill="#9DADB7" fill-rule="nonzero" style="mix-blend-mode:multiply"/><path d="M19.4905935 23.2802945c-.1981917 0-.3922022.0200729-.5786865.0585461-.1881567.0384732-.3679509.0945103-.5402188.1672748-.1714317.0727645-.3353372.1614201-.4875351.2651305-.1530341.102874-.295197.2208027-.4256523.3504406-.1296191.1304743-.2475306.2734943-.3512259.4257143-.102859.1530564-.192338.3161493-.2650919.4884423-.0719177.1714566-.1287829.3521134-.1672505.5394611-.0384676.1873478-.0585376.3805501-.0585376.5796071 0 .1982206.02007.3914229.0585376.5787707.0384676.1873477.0953328.3671681.1672505.5394611.0727539.1714566.1622329.3353859.2650919.4884423.1036953.1530564.2216068.2952399.3512259.4248779.1304553.1304743.2726182.248403.4256523.351277.1521979.1037103.3161034.192366.4875351.2651305.1722679.0727645.3520621.1288016.5402188.1672748.1864843.0384731.3804948.0585461.5786865.0585461.1981918 0 .3922023-.020073.5786865-.0585461.1873205-.0384732.367951-.0945103.5393826-.1672748.172268-.0727645.3353372-.1614202.4883713-.2651305.1530341-.102874.295197-.2208027.4256523-.351277.1296191-.129638.2475307-.2718215.3512259-.4248779.1028591-.1530564.192338-.3169857.265092-.4884423.0719177-.172293.1287828-.3521134.1672504-.5394611.0376314-.1873478.0585377-.3805501.0585377-.5787707 0-.199057-.0209063-.3922593-.0585377-.5796071-.0384676-.1873477-.0953327-.3680045-.1672504-.5394611-.072754-.172293-.1622329-.3353859-.265092-.4884423-.1036952-.15222-.2216068-.29524-.3512259-.4257143-.1304553-.1296379-.2726182-.2475666-.4256523-.3504406-.1530341-.1037104-.3161033-.192366-.4883713-.2651305-.1714316-.0727645-.3520621-.1288016-.5393826-.1672748-.1864842-.0384732-.3804947-.0585461-.5786865-.0585461" fill="#0099DA"/><path d="M20.5209666 24.3648977c-.0523525 0-.1036006.0053023-.1528606.015465-.0497017.0101628-.0971945.024965-.1426993.0441858-.0452838.0192208-.0885796.0426393-.1287828.0700345-.0404241.0271743-.0779766.0583252-.1124365.0925692-.034239.0344649-.0653854.0722438-.0927766.1124528-.0271703.04043-.0508063.0835112-.0700243.1290225-.0189971.0452905-.0340181.0930111-.0441794.1424992-.0101612.0494881-.0154628.1005227-.0154628.1531038 0 .0523601.0053016.1033947.0154628.1528828.0101613.0494881.0251823.0969878.0441794.1424991.019218.0452905.042854.0885925.0700243.1290225.0273912.04043.0585376.077988.0927766.1122319.0344599.034465.0720124.0656159.1124365.0927902.0402032.0273952.083499.0508136.1287828.0700345.0455048.0192208.0929976.034023.1426993.0441857.04926.0101628.1005081.0154651.1528606.0154651.0523526 0 .1036006-.0053023.1528606-.0154651.0494809-.0101627.0971946-.0249649.1424784-.0441857.0455048-.0192209.0885796-.0426393.1290038-.0700345.0404241-.0271743.0779765-.0583252.1124364-.0927902.034239-.0342439.0653855-.0718019.0927767-.1122319.0271703-.04043.0508062-.083732.0700243-.1290225.0189971-.0455113.0340181-.093011.0441793-.1424991.0099404-.0494881.0154628-.1005227.0154628-.1528828 0-.0525811-.0055224-.1036157-.0154628-.1531038-.0101612-.0494881-.0251822-.0972087-.0441793-.1424992-.0192181-.0455113-.042854-.0885925-.0700243-.1290225-.0273912-.040209-.0585377-.0779879-.0927767-.1124528-.0344599-.034244-.0720123-.0653949-.1124364-.0925692-.0404242-.0273952-.083499-.0508137-.1290038-.0700345-.0452838-.0192208-.0929975-.034023-.1424784-.0441858-.04926-.0101627-.100508-.015465-.1528606-.015465" fill="#FFF"/><g fill-rule="nonzero"><path d="M95.3773441 19.4947189v18.7496547c-3.4768102-.6319929-6.3169808-3.1387948-7.3759393-6.5101789a9.48941421 9.48941421 0 01-.3140504-1.3750313c-.2150087-1.4202881-.1076742-2.8707537.3140504-4.2439236.3273685-1.0231082.8236928-1.9841988 1.4683976-2.8434289.6442401-.8438713 1.4210571-1.5776911 2.3002066-2.1728889.1782448-.1188298.3649774-.2376597.5517101-.3395139.1867326-.1018541.3734652-.2121962.5771736-.3140503.7806854-.3944225 1.6117369-.6800072 2.4699635-.8487848l.0084879-.1018541z" fill="#FAFBFB"/><path d="M85.4974898 18.0857362c.0886627.3129254.0489469.6482839-.1103561.9318433-.159303.2835593-.4250541.4919317-.7384286.5789935l-4.057191 1.2052744-4.0826546 1.1967864-4.498559 1.3241042-4.4985591 1.3156163-6.6205209 1.9352292-6.612033 1.9522049c-.3123657.09175-.6484277.0550887-.9336632-.1018542-.2813774-.1594788-.4909617-.4206998-.5856615-.7299548l-.11882986-.4159045-.11882986-.4074167-.59414932-1.9946441-.58566146-2.0455712 3.3951389-.1952205 3.3951389-.1867327 13.1731391-3.8619705 13.1986025-3.89592189.1612691.55171007.1612691.55171007.331026 1.13737155.3395139 1.1543472z" fill="#D3DADD"/><path d="M84.5044117 14.69059731L71.3227848 18.5865192l-13.1901147 3.8619705-3.3951389.1867327-3.3951389.1952205-1.42595835.0763906-1.42595834.0763906-2.13893752.1188299-2.13893752.1188298-.6620521-2.2153281-.64507639-2.2153281c-.09058075-.3059564-.05703894-.635276.09336632-.9166876.15207138-.2774893.40389302-.486835.70449133-.5856614l2.75855037-.8487848 2.75855038-.84878468 15.78739602-4.63436463 15.7873959-4.62587678c.3055863-.09441903.6364124-.06072378.9166875.09336633.2805886.15427297.488256.4138573.5771737.72146702l.3395138 1.14585938.3310261 1.13737154.7639063 2.60576912.7808819 2.65669621z" fill="#EAEDEF"/><path d="M86.0491999 15.45450356l-.611125.1782448-.611125.18673264-.1612691-.55171008-.1612691-.57717361-.7639063-2.5463542-.7639062-2.60576912.611125-.17824479.611125-.17824479c.4515237-.12899657.935523-.07724821 1.3495677.1442934.4089479.23122296.7129704.61125107.8487848 1.06098091l.0933663.3225382.0933663.31405035.1867326.63658855.1867327.63658855.1442934.49229514.1442934.49229514c.1310718.45223085.0760697.93808285-.1527813 1.34956772-.2215804.40497629-.5985335.70224829-1.0440052.82332119zM52.52220308 26.8706582l-.71297918.2037083-.71297917.2121962c-.32963346.0976627-.68475255.0578648-.98459029-.110342-.30440345-.1566267-.52916888-.4337347-.61961285-.7639063l-.50927084-1.6975694-.50078299-1.6975695 1.42595835-.0763906 1.43444619-.110342.59414931 2.0201076.58566147 2.0201077z" fill="#023852"/><path d="M73.3259168 31.7341947h3.4800174c-.271491.2641415-.5735299.4949449-.8997118.6875156-.3319967.1987129-.6887264.3528202-1.0609809.4583438-1.1931045.35231-2.477341.2156598-3.5695946-.3798254-1.0922536-.5954852-1.9028423-1.6009117-2.2530687-2.7946295l-.7469305-2.5463542-.7384428-2.5463542 4.4985591-1.3156163 4.4985591-1.3241042.5601979 2.054059.5601979 1.9437171h-4.3288021c-.3844148-.0015721-.7652915.0734491-1.1203958.220684-1.073022.4485937-1.767606 1.5022139-1.7569844 2.665184.0037208.7642891.3087143 1.4962733.8487847 2.0370834.5385406.5372359 1.2679067.8393582 2.0285955.8402969z" fill="#FAFBFB"/><path d="M87.9844291 31.6662919H73.3259168c-.7648497-.0009398-1.4978532-.306358-2.0370833-.8487847-.5400705-.5408101-.8450639-1.2727943-.8487998-2.0370834-.0037133-1.1609257.6885732-2.2110609 1.7569994-2.665184.3551043-.1472349.7359811-.2222561 1.1203959-.2207083h14.6924636c-.4240381 1.372758-.5314116 2.8237506-.3140503 4.2439479a9.4894127 9.4894127 0 00.2885868 1.5278125z" fill="#D3DADD"/><path d="M94.0532399 14.52932821l-.2716111.40741667-.2970747.39892882a12.28191712 12.28191712 0 00-1.1458593 1.7994236c-.2954716.5659862-.3854653 1.216941-.2546355 1.8418629.0670531.2470663.1669703.4840129.2970747.7044913.1312159.2454254.317072.4574176.5432222.6196129-.2037083.1018541-.390441.2037083-.5771736.3140503-.1867326.110342-.3734653.2206841-.5517101.3395139a3.96382416 3.96382416 0 01-.5686857-.7893698 3.69221323 3.69221323 0 01-.3395139-.891224c-.1994194-.8575437-.0943956-1.7577476.2970746-2.5463541.3617124-.75666398.8057642-1.47113201 1.3241042-2.13044972l.2716111-.38195312.2631233-.38195313c.2127663-.33426495.3382572-.71657451.3649774-1.111908.0374252-.43038738-.014592-.86386345-.1527812-1.27317709-.106974-.33900578-.2800645-.65345348-.5092709-.92517536-.2019122-.23795392-.462239-.41930512-.7554184-.52624653-.6564096-.27828561-1.3976494-.27828561-2.054059 0-.6494103.33923094-1.2421469.77734061-1.7569844 1.29864063l-.5941493.500783c-.1952205.16975694-.4074167.33102604-.6196129.48380729l-.1867326-.63658855-.1867327-.63658854.390441-.31405035.3819531-.33102605c.6200693-.59939652 1.3303747-1.09775593 2.1049862-1.47688543.9327509-.38251208 1.9785807-.38251208 2.9113316 0 .4757211.17372109.899304.46584725 1.2307379.84878473.3588648.40740242.6304064.88404462.7978576 1.40049481.1986781.56894458.2739081 1.17367839.220684 1.77396008-.0543493.58003328-.2527474 1.13729855-.5771736 1.62117884z" fill="#0099DA"/><path d="M98.7979466 16.1165057v25.4636418h-1.392007c-.5387692.003761-1.0561654-.2105452-1.4344462-.5941993-.3804339-.3804405-.5941493-.8964266-.5941493-1.4344462V18.1451512c0-.5380196.2137154-1.0540057.5941493-1.4344462.3782808-.3836541.895677-.5979603 1.4344462-.5941993h1.392007z" fill="#D3DADD"/><path fill="#C0CACE" style="mix-blend-mode:multiply" d="M84.8863648 16.03167718L71.9423977 19.8257449l-12.9354793 3.7940678-3.4036268.1867326-3.40362672.1867326h-.00848785l-.25463542.0169757-.25463542.0169757-1.16283508.059415-1.17981077.0679027-.25463542.0084879-.25463542.0169757-.16975695-.6026372-.17824479-.5941493 1.42595835-.0763906 1.42595834-.0763906 3.41211465-.1952205 3.4036267-.1867327 13.173139-3.8619705 13.1816269-3.87045835.1612691.55171007.1612691.55171008.0339514.10185416z"/><path d="M75.1083647 28.8653023c0 .8953523-.7258264 1.6211788-1.6211788 1.6211788-.6056391.0439088-1.1850368-.2543157-1.501248-.7727144-.3162112-.5183986-.3162112-1.1700423 0-1.688441.3162112-.5183987.8956089-.8166232 1.501248-.7727144.8920481-.0000122 1.6165084.7206551 1.6211788 1.612691z" fill="#96A6AE"/></g><g><path d="M110.2814547 2.03636364H81.90036382c-.71135885 0-1.39358229.2825862-1.89658895.78559286-.50300667.50300667-.78559287 1.18523011-.78559287 1.89658895V33.0996364c0 1.4813281 1.2008537 2.6821818 2.68218182 2.6821818h28.38109088c.7113589 0 1.3935823-.2825862 1.896589-.7855929.5030066-.5030066.7855928-1.1852301.7855928-1.8965889V4.71854545c0-.71135884-.2825862-1.39358228-.7855928-1.89658895-.5030067-.50300666-1.1852301-.78559286-1.896589-.78559286z" fill="#081935" fill-rule="nonzero" opacity=".2" style="mix-blend-mode:multiply"/><path d="M112.3178184 0H83.93672745c-1.48132811 0-2.68218181 1.2008537-2.68218181 2.68218182V31.0632727c0 .7113589.2825862 1.3935823.78559286 1.896589.50300667.5030066 1.18523011.7855928 1.89658895.7855928h28.38109095c1.4813281 0 2.6821818-1.2008537 2.6821818-2.6821818V2.68218182C115.0000002 1.2008537 113.7991465 0 112.3178184 0z" fill="#FFE700" fill-rule="nonzero"/><path class="number3-dash-animate" stroke="#023852" stroke-width=".5" fill="transparent" d="M108.8909093 17.0140529c0 1.0941194-.2473371 2.1125663-.7420188 3.0553713-.4946816.9428049-1.1901353 1.6877261-2.086382 2.2347858-.8962467.5470597-1.8855951.8205854-2.9680749.8205854-1.9438078 0-3.6315198-.8554954-5.0631866-2.5665118-.7332928.779851-1.516042 1.3850994-2.3482711 1.8157634-.8322291.430664-1.6498964.6459928-2.4530266.6459928-1.7342956 0-3.145572-.5616007-4.23387155-1.684819-1.08829958-1.1232183-1.6324412-2.6101507-1.6324412-4.460842 0-1.7692143.55287117-3.2299581 1.65863009-4.3822753 1.10575896-1.1523172 2.50830576-1.7284671 4.20768266-1.7284671 2.0485639 0 3.695538.843856 4.9409718 2.5315933.6867345-.7682115 1.4229261-1.3705501 2.2085969-1.8070339.7856708-.4364838 1.6906336-.6547224 2.7149156-.6547224 1.7342955 0 3.1339326.5645106 4.198953 1.6935486 1.0650204 1.1290381 1.5975227 2.6247001 1.5975227 4.4870309zm-15.4514488 1.6062523c.7449323 0 1.4723944-.5819696 2.182408-1.7459264-.7332928-1.1639567-1.4723942-1.7459264-2.2173266-1.7459264-.5005014 0-.8991506.1687712-1.1959595.5063187-.296809.3375474-.4452113.7623853-.4452113 1.2745263 0 .5237805.1571318.9398888.4714002 1.2483373.3142683.3084486.7158273.4626705 1.2046892.4626705zm9.4105434-3.3870972c-.7332928 0-1.495673.5703303-2.2871636 1.7110079.3608266.5237805.7478364.9602578 1.161041 1.3094448.4132047.349187.8002145.5237779 1.1610411.5237779.4888618 0 .8787815-.1804106 1.1697707-.5412372.2909892-.3608266.4364816-.7914841.4364816-1.2919855 0-.4888619-.1513121-.8962406-.4539409-1.2221485-.3026287-.3259079-.6983681-.4888594-1.1872299-.4888594z" fill-rule="nonzero"/></g></g></svg>