<?xml version="1.0" encoding="UTF-8"?>
<svg width="440px" height="330px" viewBox="0 0 440 330" version="1.1" xmlns="http://www.w3.org/2000/svg" xmlns:xlink="http://www.w3.org/1999/xlink">
    <title>Graphic elements / Icons / Rich icons / camera-memory</title>
    <g id="Graphic-elements-/-Icons-/-Rich-icons-/-camera-memory" stroke="none" stroke-width="1" fill="none" fill-rule="evenodd">
        <g id="Camera-+-Memory" transform="translate(103.000000, 0.000000)" fill-rule="nonzero">
            <g id="Camera" transform="translate(0.000000, 134.000000)">
                <path d="M114.572391,195.967845 L114.572391,195.967845 C90.7065774,195.995165 67.8098149,186.529313 50.9304152,169.657335 C34.0510155,152.785356 24.5750952,129.892759 24.5918968,106.026936 L24.5918968,81.6961279 L204.552865,81.6961279 L204.552865,106.026936 C204.552865,112.115488 203.942023,118.188681 202.725084,124.154377 C201.539823,129.945149 199.782551,135.603936 197.479125,141.047475 C188.33522,162.618351 171.163806,179.789765 149.592929,188.93367 C138.510812,193.611792 126.601435,196.014655 114.572391,195.999566 L114.572391,195.967845 Z" id="Path" fill="#DFE4E6"></path>
                <path d="M149.450505,85.6048822 L149.450505,156.54798 C148.912458,156.745791 148.382323,156.927778 147.868013,157.101852 C147.353704,157.275926 146.784007,157.442088 146.285522,157.592424 C145.787037,157.742761 145.24899,157.86936 144.70303,158.003872 C144.157071,158.138384 143.611111,158.249158 143.057239,158.35202 C142.503367,158.454882 141.949495,158.541919 141.38771,158.621044 C140.825926,158.700168 140.264141,158.763468 139.694444,158.818855 C139.267172,158.860396 138.839899,158.906387 138.409288,158.926786 L137.977441,158.937542 L97.2520202,158.937542 C96.6664983,158.937542 96.0888889,158.961279 95.5112795,158.937542 C94.93367,158.913805 94.3639731,158.86633 93.7942761,158.818855 C93.2245791,158.77138 92.6627946,158.692256 92.1010101,158.621044 C91.5392256,158.549832 90.9853535,158.454882 90.4314815,158.35202 C89.8776094,158.249158 89.3,158.130471 88.7856902,158.003872 C88.2713805,157.877273 87.7333333,157.742761 87.2031987,157.592424 C86.673064,157.442088 86.1666667,157.268013 85.6207071,157.101852 C85.256734,156.991077 84.9033109,156.869753 84.5557488,156.742568 L84.0382155,156.54798 C83.4236642,156.316319 82.8170853,156.064151 82.2183502,155.796296 C81.6170034,155.527273 81.0156566,155.242424 80.4301347,154.949663 C79.8446128,154.656902 79.2749158,154.340404 78.7052189,154.015993 C78.1355219,153.691582 77.5579125,153.351347 77.0356902,152.995286 C76.513468,152.639226 76.0149832,152.291077 75.4531987,151.887542 C74.8914141,151.484007 74.3771044,151.096296 73.8707071,150.692761 C73.3643098,150.289226 72.8658249,149.861953 72.383165,149.426768 C71.9005051,148.991582 71.43367,148.548485 70.9747475,148.089562 C70.1518519,147.245567 69.3606061,146.364646 68.6010101,145.446801 C67.8414141,144.528956 67.1292929,143.574186 66.4646465,142.582492 C65.7829223,141.59169 65.1517566,140.567036 64.573569,139.512458 C63.9880471,138.460101 63.45,137.368182 62.9910774,136.260438 C62.5321549,135.152694 62.1048822,134.0133 61.7409091,132.842256 C61.3738406,131.671987 61.0674839,130.483534 60.823064,129.28165 C60.5777778,128.071044 60.3878788,126.8367 60.2612795,125.586532 C60.1593727,124.574835 60.0984278,123.559535 60.0785645,122.543121 L60.0713717,121.78064 L60.0713717,85.6048822 L149.450505,85.6048822 Z M173.448999,85.6048822 L173.448999,121.78064 C173.449855,123.05166 173.386474,124.321911 173.259091,125.586532 C173.132492,126.8367 172.942593,128.071044 172.697306,129.28165 C172.452887,130.483534 172.14653,131.671987 171.779461,132.842256 C171.422079,134.002485 171.004796,135.14341 170.529293,136.260438 C170.046633,137.376094 169.516498,138.460101 168.946801,139.512458 C168.377104,140.564815 167.75202,141.593434 167.087374,142.582492 C166.401627,143.574186 165.686869,144.528956 164.943098,145.446801 C164.199327,146.364646 163.408081,147.245567 162.56936,148.089562 C162.110438,148.548485 161.63569,148.95202 161.15303,149.426768 C160.67037,149.901515 160.203535,150.289226 159.665488,150.692761 C159.127441,151.096296 158.581481,151.507744 158.082997,151.887542 C157.584512,152.26734 157.054377,152.647138 156.500505,152.995286 C155.946633,153.343434 155.384848,153.691582 154.823064,154.015993 C154.261279,154.340404 153.68367,154.64899 153.098148,154.949663 C152.512626,155.250337 151.911279,155.527273 151.309933,155.796296 C150.708586,156.06532 150.099327,156.318519 149.482155,156.54798 L149.482155,156.54798 L149.482155,85.6048822 L173.448999,85.6048822 Z" id="Combined-Shape" fill="#023852"></path>
                <path d="M116.764141,109.081142 C115.544397,109.080453 114.327673,109.202391 113.132323,109.445118 C111.971451,109.68303 110.83705,110.035543 109.745791,110.497475 C108.675162,110.948742 107.652059,111.505353 106.691582,112.159091 C105.733623,112.804243 104.840597,113.540923 104.025084,114.358754 C103.206593,115.175808 102.467426,116.068637 101.817508,117.025253 C101.167637,117.98953 100.613759,119.015131 100.163805,120.087374 C99.6994693,121.175022 99.3468721,122.307045 99.1114478,123.465993 C98.6261481,125.862887 98.6261481,128.332735 99.1114478,130.72963 C99.3468721,131.888578 99.6994693,133.020601 100.163805,134.108249 C100.615426,135.179694 101.169218,136.205137 101.817508,137.17037 C102.467426,138.126985 103.206593,139.019815 104.025084,139.836869 C104.840597,140.6547 105.733623,141.39138 106.691582,142.036532 C114.94288,147.595171 126.137529,145.417154 131.702862,137.17037 C132.350712,136.203531 132.906992,135.178386 133.364478,134.108249 C133.822676,133.019053 134.172511,131.887387 134.408923,130.72963 C134.904722,128.333799 134.904722,125.861824 134.408923,123.465993 C134.172511,122.308236 133.822676,121.17657 133.364478,120.087374 C131.998057,116.875 129.730872,114.126896 126.8367,112.174916 C125.873469,111.521119 124.847736,110.96452 123.774579,110.5133 C122.68332,110.051368 121.548919,109.698855 120.388047,109.460943 C119.195826,109.213427 117.981774,109.08619 116.764141,109.081142 Z" id="Path" fill="#0099DA"></path>
                <path d="M167.744108,81.6961279 L167.744108,89.6085859 C167.745619,95.6997552 167.133266,101.775572 165.91633,107.743939 C163.553461,119.250893 158.953675,130.181769 152.378114,139.915993 C142.620961,154.379907 128.878478,165.703713 112.815825,172.51532 C107.37458,174.817564 101.718537,176.574807 95.9306397,177.761279 C89.9448833,178.989468 83.8503586,179.609789 77.739899,179.612795 L77.739899,179.612795 C77.0040404,179.612795 76.2681818,179.612795 75.5323232,179.612795 C74.7964646,179.612795 74.0685185,179.612795 73.3405724,179.53367 C72.6126263,179.454545 71.8846801,179.454545 71.156734,179.399158 C70.4287879,179.343771 69.7166667,179.288384 68.996633,179.217172 C68.2765993,179.14596 67.5565657,179.066835 66.8444444,178.979798 L64.7080808,178.694949 L62.5875421,178.354714 C61.8833333,178.236027 61.187037,178.109428 60.4907407,177.974916 C62.3739057,179.388608 64.3098204,180.731089 66.2984848,182.002357 C68.2871493,183.273625 70.3338384,184.465769 72.4385522,185.578788 C74.548541,186.697082 76.6901796,187.728339 78.863468,188.672559 C81.0367565,189.616779 83.2707071,190.479237 85.5653199,191.259933 C87.8361953,192.051178 90.1545455,192.723737 92.5045455,193.317172 C94.8545455,193.910606 97.2520202,194.409091 99.6732323,194.812626 C102.094444,195.216162 104.555219,195.524747 107.039731,195.730471 C109.524242,195.936195 112.032492,196.039088 114.572391,196.039088 L114.572391,196.039088 C120.663735,196.04408 126.739905,195.431691 132.707744,194.211279 C144.21758,191.85772 155.150215,187.257194 164.879798,180.673064 C179.347414,170.919987 190.672226,157.176283 197.479125,141.110774 C199.782551,135.667236 201.539823,130.008449 202.725084,124.217677 C203.946263,118.231255 204.558641,112.136641 204.552902,106.026936 L204.552902,81.6961279 L167.744108,81.6961279 Z" id="Path" fill="#F4F6F7" opacity="0.3"></path>
                <path d="M210.732492,93.6597897 L21.6247475,93.6597897 C20.1205308,93.6629901 18.6315277,93.3587273 17.2491582,92.7656566 C16.5794286,92.4817163 15.9382624,92.1346387 15.3343434,91.7291246 C14.7385538,91.3203237 14.182264,90.8567489 13.6727273,90.3444444 C13.1584417,89.8338596 12.6947245,89.2747491 12.2880471,88.6749158 C11.8792845,88.0729664 11.5320302,87.4314737 11.2515152,86.760101 C10.9578308,86.0833823 10.7350914,85.3780411 10.5868687,84.6553872 C10.4341949,83.9080735 10.357336,83.1472614 10.357336,82.3845118 L10.357336,66.3143098 C10.3547489,65.5679272 10.4263131,64.8231297 10.5710438,64.0909091 C10.7192888,63.3657013 10.9420187,62.6577385 11.2356902,61.9782828 C11.5196305,61.3085532 11.8667081,60.667387 12.2722222,60.063468 C12.6829316,59.4666734 13.1463487,58.9079247 13.6569024,58.3939394 C14.1644237,57.8676452 14.7207951,57.3907554 15.3185185,56.969697 C15.9240408,56.5646055 16.5649163,56.2150371 17.2333333,55.9252525 C18.6177739,55.3397294 20.1057551,55.0383662 21.6089226,55.0390561 L210.716667,55.0390561 C212.219834,55.0383662 213.707815,55.3397294 215.092256,55.9252525 C215.766122,56.2141793 216.412327,56.563766 217.022896,56.969697 C217.622554,57.3736359 218.181674,57.8347115 218.692424,58.3464646 C219.202713,58.8585448 219.663668,59.4175196 220.069192,60.0159933 C220.48024,60.6178891 220.830126,61.2593463 221.113636,61.9308081 C221.401177,62.6118207 221.621144,63.3194253 221.77037,64.0434343 C221.929601,64.7871904 222.007763,65.5457887 222.007763,66.3063973 L222.007763,82.3765993 C222.007763,83.1398217 221.929568,83.9010388 221.77037,84.6474747 C221.621139,85.3689185 221.401164,86.0738975 221.113636,86.7521886 C220.833534,87.4252888 220.483463,88.0670858 220.069192,88.6670034 C219.667706,89.2684889 219.206438,89.8278427 218.692424,90.336532 C218.181839,90.8508175 217.622729,91.3145347 217.022896,91.7212121 C216.418977,92.1267263 215.77781,92.4738038 215.108081,92.7577441 C213.725711,93.3508149 212.236708,93.6550777 210.732492,93.6518519 L210.732492,93.6597897 Z" id="Path" fill="#E6E8EB"></path>
                <polygon id="Path" fill="#E3E5E8" points="201.395791 58.7816498 193.981818 58.7816498 186.575758 58.7816498 179.161785 58.7816498 171.755724 58.7816498 171.692424 58.7816498 171.629125 58.7816498 171.557912 58.7816498 171.494613 58.7816498 171.431313 58.7816498 171.368013 58.7816498 171.304714 58.7816498 171.233502 58.7816498 170.766667 58.7816498 170.299832 58.7816498 169.832997 58.7816498 169.366162 58.7816498 168.899327 58.7816498 168.424579 58.7816498 167.957744 58.7816498 167.490909 58.7816498 158.059259 58.7816498 148.627609 58.7816498 139.203872 58.7816498 129.772222 58.7816498 120.340572 58.7816498 110.908923 58.7816498 101.485185 58.7816498 92.0535354 58.7816498 88.8727273 58.7816498 85.6919192 58.7816498 82.5031987 58.7816498 79.3223906 58.7816498 76.1415825 58.7816498 72.9607744 58.7816498 69.7799663 58.7816498 66.5991582 58.7816498 66.1244108 58.7816498 65.6575758 58.7816498 65.1907407 58.7816498 64.7239057 58.7816498 64.2570707 58.7816498 63.7823232 58.7816498 63.3154882 58.7816498 62.8486532 58.7816498 62.7853535 58.7816498 62.7220539 58.7816498 62.6587542 58.7816498 62.5875421 58.7816498 62.5242424 58.7816498 62.4609428 58.7816498 62.3976431 58.7816498 62.3343434 58.7816498 54.8649832 58.7816498 47.4035354 58.7816498 39.9341751 58.7816498 32.4648148 58.7816498 25.3515152 58.7816498 18.2382155 58.7816498 11.1249158 58.7816498 4.01161616 58.7816498 4.32811448 59.7232323 4.64461279 60.6648148 4.96111111 61.6063973 5.27760943 62.5400673 11.7737374 62.5400673 18.2619529 62.5400673 24.7580808 62.5400673 31.2462963 62.5400673 37.7424242 62.5400673 44.2306397 62.5400673 50.7267677 62.5400673 57.2149832 62.5400673 57.9191919 62.5400673 58.6234007 62.5400673 59.3276094 62.5400673 60.0318182 62.5400673 60.7360269 62.5400673 61.4402357 62.5400673 62.1444444 62.5400673 62.8486532 62.5400673 63.3154882 62.5400673 63.7823232 62.5400673 64.2570707 62.5400673 64.7239057 62.5400673 65.1907407 62.5400673 65.6575758 62.5400673 66.1244108 62.5400673 66.5991582 62.5400673 68.8146465 62.5400673 71.0380471 62.5400673 73.2535354 62.5400673 75.476936 62.5400673 77.6924242 62.5400673 79.9158249 62.5400673 82.1313131 62.5400673 84.3547138 62.5400673 94.743771 62.5400673 105.140741 62.5400673 115.529798 62.5400673 125.918855 62.5400673 136.315825 62.5400673 146.704882 62.5400673 157.093939 62.5400673 167.490909 62.5400673 167.957744 62.5400673 168.424579 62.5400673 168.899327 62.5400673 169.366162 62.5400673 169.832997 62.5400673 170.299832 62.5400673 170.766667 62.5400673 171.233502 62.5400673 171.93771 62.5400673 172.641919 62.5400673 173.346128 62.5400673 174.050337 62.5400673 174.754545 62.5400673 175.458754 62.5400673 176.162963 62.5400673 176.867172 62.5400673 183.3633 62.5400673 189.851515 62.5400673 196.347643 62.5400673 202.835859 62.5400673 209.331987 62.5400673 215.820202 62.5400673 222.31633 62.5400673 228.804545 62.5400673 229.081481 62.0732323 229.36633 61.6063973 229.643266 61.1316498 229.920202 60.6648148 230.205051 60.1900673 230.481987 59.7232323 230.758923 59.2563973 231.035859 58.7816498 223.629798 58.7816498 216.215825 58.7816498 208.809764 58.7816498"></polygon>
                <polygon id="Path" fill="#A5B1B8" points="5.27760943 62.5400673 33.2164983 62.5400673 61.1632997 62.5400673 89.1021886 62.5400673 117.041077 62.5400673 144.987879 62.5400673 172.926768 62.5400673 200.865657 62.5400673 228.804545 62.5400673 228.804545 63.9010101 228.804545 65.2540404 228.804545 66.6149832 228.804545 67.9759259 228.804545 69.3289562 228.804545 70.689899 228.804545 72.0508418 228.804545 73.4038721 200.865657 73.4038721 172.926768 73.4038721 144.987879 73.4038721 117.041077 73.4038721 89.1021886 73.4038721 61.1632997 73.4038721 33.2164983 73.4038721 5.27760943 73.4038721 5.27760943 72.0508418 5.27760943 70.689899 5.27760943 69.3289562 5.27760943 67.9759259 5.27760943 66.6149832 5.27760943 65.2540404 5.27760943 63.9010101"></polygon>
                <path d="M10.9350168,0 L224.128283,0 C224.846099,0.000740122042 225.561953,0.0749768577 226.264646,0.221548822 C226.945146,0.367117482 227.608243,0.58461335 228.242761,0.87037037 C228.866356,1.14702732 229.460207,1.48637051 230.015152,1.88316498 C230.567145,2.27435181 231.078715,2.71965657 231.542256,3.21245791 C232.000174,3.69999763 232.410823,4.22986711 232.768687,4.79494949 C233.126412,5.37592845 233.425901,5.99080775 233.662795,6.63063973 C233.917212,7.30052753 234.100213,7.99539819 234.208754,8.7037037 C234.314602,9.41330707 234.341206,10.1325004 234.287879,10.8479798 L233.892256,16.8456229 L233.417508,22.8116162 L233.013973,28.8092593 L232.626263,34.8148148 L232.23064,40.8045455 L231.835017,46.7942761 L231.431481,52.7919192 L231.043771,58.7816498 L4.02744108,58.7816498 L3.62390572,52.7919192 L3.22828283,46.7942761 L2.82474747,40.796633 L2.42121212,34.8148148 L2.01767677,28.8171717 L1.58249158,22.8116162 L1.18686869,16.8218855 L0.791245791,10.8242424 C0.698063168,9.40879691 0.908487287,7.98978298 1.40841751,6.66228956 C1.63927909,6.02128359 1.93627998,5.40606747 2.29461279,4.82659933 C2.65521485,4.26134238 3.06850543,3.73148267 3.52895623,3.24410774 C3.98815344,2.7403799 4.49714327,2.28440985 5.04814815,1.88316498 C5.60477822,1.48462274 6.20143685,1.14519028 6.82845118,0.87037037 C7.46024039,0.584640703 8.12071258,0.367135803 8.7986532,0.221548822 C9.50141411,0.0754131044 10.2172236,0.00118101166 10.9350168,0 Z" id="Path" fill="#CDD4D8"></path>
                <path d="M74.1951178,30.9535354 C74.1937434,30.1560357 74.1115615,29.3607276 73.9498316,28.579798 C73.7985484,27.8192431 73.5678221,27.0766757 73.2614478,26.3643098 C72.068643,23.5022164 69.7935749,21.2271483 66.9314815,20.0343434 C66.2191156,19.7279692 65.4765482,19.4972429 64.7159933,19.3459596 C63.1501689,19.0211474 61.5343429,19.0211474 59.9685185,19.3459596 C59.2056919,19.4983802 58.4606173,19.7290617 57.7451178,20.0343434 C57.0439714,20.3293055 56.3734724,20.692382 55.743266,21.1183502 C53.840303,22.4025299 52.3506157,24.2110432 51.4547138,26.3247475 C51.1554482,27.0397185 50.9249466,27.781563 50.76633,28.5402357 C50.4519486,30.1071133 50.4519486,31.7208328 50.76633,33.2877104 C50.9261062,34.0486497 51.1565673,34.7930125 51.4547138,35.5111111 C51.7523787,36.2124818 52.1181017,36.8829739 52.546633,37.512963 C53.3960157,38.7552758 54.4693033,39.8285635 55.7116162,40.6779461 C56.3533377,41.1366362 57.0399666,41.5289956 57.7609428,41.8489899 C58.4790414,42.1471364 59.2234042,42.3775975 59.9843434,42.5373737 C61.5512211,42.8517552 63.1649405,42.8517552 64.7318182,42.5373737 C65.4904909,42.3787572 66.2323353,42.1482555 66.9473064,41.8489899 C69.0570146,40.9465083 70.8638315,39.4582184 72.1537037,37.5604377 C72.5796718,36.9302313 72.9427483,36.2597323 73.2377104,35.5585859 C73.5429922,34.8430864 73.7736736,34.0980118 73.9260943,33.3351852 C74.0963346,32.5524844 74.1864735,31.7544895 74.1951178,30.9535354 L74.1951178,30.9535354 Z" id="Path" fill="#FFE700"></path>
                <path d="M32.4410774,28.7934343 C32.2178811,28.7901826 31.995001,28.8114093 31.776431,28.856734 C31.5649677,28.8996032 31.3582445,28.9632104 31.1592593,29.046633 C30.9665266,29.1311407 30.7812487,29.2317202 30.6053872,29.3473064 C30.4296644,29.4662625 30.265428,29.6013602 30.1148148,29.7508418 C29.817686,30.0525901 29.5789337,30.4066946 29.4106061,30.7952862 C29.3305952,30.995492 29.2670841,31.2019032 29.2207071,31.4124579 C29.1363533,31.8488794 29.1363533,32.2974169 29.2207071,32.7338384 C29.2670841,32.9443931 29.3305952,33.1508043 29.4106061,33.3510101 C29.5789337,33.7396016 29.817686,34.0937062 30.1148148,34.3954545 C30.265428,34.5449361 30.4296644,34.6800338 30.6053872,34.7989899 C30.7812487,34.9145761 30.9665266,35.0151556 31.1592593,35.0996633 C31.3582445,35.1830859 31.5649677,35.2466931 31.776431,35.2895623 C31.995001,35.334887 32.2178811,35.3561136 32.4410774,35.352862 C32.878481,35.3556372 33.3118864,35.2694945 33.7149832,35.0996633 C33.9110804,35.0169027 34.0991365,34.9162529 34.2767677,34.7989899 C34.4515002,34.6819627 34.6132961,34.5466908 34.7594276,34.3954545 C34.9087954,34.2475948 35.0439039,34.0859945 35.162963,33.9127946 C35.2818303,33.7361244 35.3825652,33.5479093 35.4636364,33.3510101 C35.5506504,33.1533446 35.6143783,32.9462291 35.6535354,32.7338384 C35.748447,32.2984912 35.748447,31.8478051 35.6535354,31.4124579 C35.6143783,31.2000672 35.5506504,30.9929517 35.4636364,30.7952862 C35.3825652,30.598387 35.2818303,30.4101719 35.162963,30.2335017 C35.0439039,30.0603018 34.9087954,29.8987015 34.7594276,29.7508418 C34.6132961,29.5996055 34.4515002,29.4643336 34.2767677,29.3473064 C34.0991365,29.2300434 33.9110804,29.1293936 33.7149832,29.046633 C33.3118864,28.8768018 32.878481,28.7906591 32.4410774,28.7934343 L32.4410774,28.7934343 Z" id="Path" fill="#0099DA"></path>
                <path d="M224.159933,0.0553840119 L117.183502,0.0553840119 L117.183502,93.7152768 L210.98569,93.7152768 C212.459776,93.7222688 213.919561,93.4260025 215.274242,92.8447811 C216.5872,92.2871151 217.78009,91.4811083 218.787374,90.4710438 C219.291574,89.9712956 219.744815,89.4226352 220.140404,88.833165 C220.543521,88.2444151 220.885527,87.6160785 221.161111,86.9579125 C221.446001,86.2902661 221.663358,85.5957842 221.809933,84.8848485 C221.963017,84.1563041 222.039918,83.4138141 222.039394,82.6693603 L222.039394,73.4671717 L228.836195,73.4671717 L228.836195,62.603367 L229.121044,62.1286195 L229.39798,61.6617845 L229.674916,61.1949495 L229.951852,60.720202 L230.228788,60.253367 L230.513636,59.7786195 L230.790572,59.3117845 L231.067508,58.8449495 L231.471044,52.8473064 L231.874579,46.8496633 L232.278114,40.8599327 L232.673737,34.8622896 L233.077273,28.8646465 L233.480808,22.8749158 L233.884343,16.8772727 L234.279966,10.8875421 C234.338413,10.1592339 234.314525,9.426657 234.208754,8.7037037 C234.109273,8.01562176 233.939589,7.33953614 233.702357,6.68602694 C233.465463,6.04619496 233.165974,5.43131566 232.808249,4.8503367 C231.732078,3.10621183 230.154694,1.72737997 228.282323,0.894107744 C227.64376,0.621256376 226.978015,0.41702364 226.296296,0.284848485 C225.594501,0.131745086 224.878234,0.0553840119 224.159933,0.0553840119 Z" id="Path" fill="#C4D2DA" style="mix-blend-mode: multiply;"></path>
                <path d="M119.478114,115.411111 C121.58468,114.38028 124.1261,114.981862 125.546997,116.847681 C126.967893,118.713501 126.872141,121.323395 125.318342,123.080079 C123.764543,124.836763 121.185873,125.250499 119.160508,124.068075 C117.135142,122.885652 116.227724,120.436711 116.993603,118.220034 C117.416339,116.991201 118.310099,115.98074 119.478114,115.411111 Z" id="Path" fill="#F4F6F7"></path>
            </g>
            <path d="M145.101064,29.8287234 L144.492553,29.2553191 L143.884043,28.6819149 C143.775822,28.5785658 143.688427,28.4554193 143.626596,28.3191489 C143.570366,28.1818252 143.542502,28.0345442 143.544681,27.8861702 L143.544681,23.5212766 C143.542817,23.3691338 143.570641,23.2180877 143.626596,23.0765957 C143.690709,22.9416498 143.777825,22.8188953 143.884043,22.7138298 L144.492553,22.1404255 L145.101064,21.5670213 L145.101064,29.8287234 L145.101064,29.8287234 Z" id="Path" fill="#FFE700"></path>
            <path d="M208.035106,27.4765957 L208.035106,11.4212766 L202.617021,5.96808511 L197.152128,0.503182295 L145.744681,0.503182295 C145.160797,0.501500161 144.600451,0.733222315 144.188298,1.14680851 C143.775118,1.56401197 143.543747,2.12771807 143.544678,2.71489362 L143.544678,20.0925532 L144.317021,20.8297872 L145.101064,21.5670213 L145.101064,40.1617021 L144.317021,40.8989362 L143.544678,41.6361702 L143.544678,85.0159574 C143.546265,85.6026356 143.77726,86.1654239 144.188298,86.5840426 C144.600451,86.9976287 145.160797,87.2293509 145.744681,87.2276688 L167.124468,87.2276688 L167.311702,86.9117021 L167.510638,86.5957447 L184.104255,86.5957447 L184.279787,86.9 L184.467021,87.2159574 L205.846809,87.2159574 C206.430693,87.2176488 206.991039,86.9859266 207.403191,86.5723404 C207.818517,86.1556083 208.053808,85.5925908 208.058511,85.0042553 L208.058511,32.1925532 L206.490426,32.1925532 L206.490426,27.5117021 L208.058511,27.5117021 L208.035106,27.4765957 Z" id="Path" fill="#023852"></path>
            <path d="M195.139362,76.1574468 L156.428723,76.1574468 C153.384694,76.1574468 150.917021,73.6897737 150.917021,70.6457447 L150.917021,58.8617021 L200.651064,58.8617021 L200.651064,70.6457447 C200.651064,73.6897737 198.183391,76.1574468 195.139362,76.1574468 L195.139362,76.1574468 Z" id="Path" fill="#0099DA"></path>
            <path d="M200.651064,58.8617021 L150.917021,58.8617021 L150.917021,22.2925532 C150.917021,19.2485242 153.384694,16.7808511 156.428723,16.7808511 L195.139362,16.7808511 C198.183391,16.7808511 200.651064,19.2485242 200.651064,22.2925532 L200.651064,58.8617021 Z" id="Path" fill="#FFFFFF"></path>
        </g>
    </g>
</svg>