<?xml version="1.0" encoding="UTF-8"?>
<svg width="440px" height="330px" viewBox="0 0 440 330" version="1.1" xmlns="http://www.w3.org/2000/svg" xmlns:xlink="http://www.w3.org/1999/xlink">
    <title>Graphic elements / Icons / Rich icons / contact</title>
    <g id="Graphic-elements-/-Icons-/-Rich-icons-/-contact" stroke="none" stroke-width="1" fill="none" fill-rule="evenodd">
        <g id="Contact-(notification)" transform="translate(30.000000, 20.000000)" fill-rule="nonzero">
            <path d="M368.27,148.62 C367.643572,147.993117 366.903802,147.490887 366.09,147.14 C365.240841,146.785608 364.330142,146.602109 363.41,146.6 L330.36,146.6 L330.36,20.67 C330.360293,17.6700873 329.169787,14.7927298 327.05,12.67 C326.017939,11.6354163 324.795481,10.810257 323.45,10.24 C322.055963,9.64494224 320.555728,9.33999632 319.04,9.33999632 L11.32,9.33999632 C6.77067442,9.3575512 2.66893359,12.0828689 0.89,16.27 C0.304382354,17.663103 -2.63268885e-06,19.1588148 -2.63268885e-06,20.67 L-2.63268885e-06,204.48 C-2.63268885e-06,207.482226 1.1928108,210.361408 3.32,212.48 C4.34843906,213.518961 5.57181323,214.344739 6.92,214.91 C8.31238631,215.497942 9.80857201,215.800579 11.32,215.8 L98.9999974,215.8 L98.9999974,265.52 L111.41,253.09 L123.82,240.66 L136.23,228.23 L148.64,215.8 L194.13,215.8 L194.13,265 C194.127236,265.917395 194.310954,266.82578 194.67,267.67 C195.013726,268.488215 195.512952,269.23196 196.14,269.86 C196.763451,270.487959 197.504126,270.987404 198.32,271.33 C199.168055,271.687986 200.079484,271.871633 200.999997,271.87 L304.37,271.87 L311.9,279.41 L319.42,286.95 L326.95,294.49 L334.48,302.03 L334.48,271.839996 L363.41,271.839996 C364.330516,271.841633 365.241945,271.657986 366.09,271.3 C366.905874,270.957404 367.646549,270.457959 368.27,269.83 C368.897048,269.20196 369.396274,268.458215 369.74,267.64 C370.099046,266.79578 370.280052,265.887395 370.280052,264.97 L370.280052,153.48 C370.287119,151.658306 369.567253,149.909031 368.28,148.62 L368.27,148.62 Z" id="Path" fill="#023852" opacity="0.3" style="mix-blend-mode: multiply;"></path>
            <path d="M210.76,137.269948 L373.13,137.269948 C374.951694,137.262881 376.700969,137.982747 377.99,139.27 C378.612669,139.901627 379.111296,140.644479 379.46,141.46 C379.819041,142.30773 380.002731,143.219376 380.00003,144.14 L380.00003,255.63 C380.002731,256.550624 379.819041,257.46227 379.46,258.31 C379.114287,259.124727 378.619089,259.867524 378,260.5 C376.710969,261.787253 374.961694,262.507119 373.14,262.5 L344.2,262.5 L344.2,292.66 L336.67,285.12 L329.14,277.58 L321.62,270.04 L314.09,262.5 L210.76,262.5 C209.842605,262.502764 208.93422,262.319046 208.09,261.96 C207.271785,261.616274 206.52804,261.117048 205.9,260.49 C205.277331,259.858373 204.778704,259.115521 204.43,258.3 C204.070959,257.45227 203.887269,256.540624 203.88997,255.62 L203.88997,144.15 C203.887269,143.229376 204.070959,142.31773 204.43,141.47 C204.778704,140.654479 205.277331,139.911627 205.9,139.28 C206.52804,138.652952 207.271785,138.153726 208.09,137.81 C208.93422,137.450954 209.842605,137.267236 210.76,137.269948 L210.76,137.269948 Z" id="Path" fill="#023852"></path>
            <polygon id="Path" fill="#023852" opacity="0.3" style="mix-blend-mode: multiply;" points="312.03 205.87 285.06 217.66 258.08 229.45 231.11 241.24 204.13 253.03 204.13 241.29 204.13 229.55 204.13 217.81 204.13 206.08 231.11 206.03 258.08 205.97 285.06 205.92"></polygon>
            <path d="M328.76,-1.11990821e-05 L21,-1.11990821e-05 C14.7582451,0.0275430387 9.71443013,5.09818679 9.71999539,11.34 L9.71999539,195.15 C9.71999539,196.664552 10.0230805,198.163793 10.61,199.56 C11.1656481,200.906605 11.9773156,202.132596 13,203.17 C14.0338144,204.202458 15.2558349,205.027321 16.6,205.6 C17.9923863,206.187942 19.488572,206.490579 21,206.49 L108.719995,206.49 L108.719995,256.21 L121.13,243.78 L133.54,231.35 L146,218.92 L158.41,206.49 L328.76,206.49 C330.274552,206.489487 331.773793,206.18692 333.17,205.6 C334.511489,205.022414 335.732635,204.198141 336.77,203.17 C337.800702,202.132989 338.622296,200.907387 339.19,199.56 C339.781627,198.165246 340.08439,196.665039 340.080106,195.15 L340.080106,11.34 C340.086622,9.82474241 339.783769,8.32409028 339.19,6.93 C337.430335,2.72691002 333.316572,-0.00639547775 328.76,-1.11990821e-05 Z" id="Path" fill="#0099DA"></path>
            <polygon id="Path" fill="#023852" opacity="0.3" style="mix-blend-mode: multiply;" points="181.91 134.29 177.52 138.68 173.14 143.07 168.75 147.46 164.36 151.86 154.89 142.37 145.41 132.88 135.94 123.39 126.46 113.9 130.85 109.51 135.23 105.11 139.62 100.72 144.01 96.33 149.1 101.42 154.19 106.52 159.27 111.62 164.36 116.71 178.18 102.88 192 89.05 205.8 75.22 219.61 61.38 224 65.78 228.39 70.17 232.77 74.56 237.16 79 223.35 92.84 209.53 106.67 195.72 120.5"></polygon>
            <polygon id="Path" fill="#FFFFFF" points="181.55 124.94 177.16 129.33 172.78 133.73 168.39 138.12 164 142.51 154.53 133 145.05 123.51 135.58 114 126.1 104.51 130.49 100.12 134.88 95.73 139.26 91.33 143.65 86.94 148.74 92.04 153.83 97.13 158.92 102.23 164.01 107.33 177.82 93.5 191.63 79.7 205.44 65.87 219.25 52 223.64 56.39 228 60.82 232.38 65.21 236.77 69.61 223 83.44 209.18 97.27 195.37 111.11"></polygon>
        </g>
    </g>
</svg>