<?xml version="1.0" encoding="UTF-8"?>
<svg width="440px" height="330px" viewBox="0 0 440 330" version="1.1" xmlns="http://www.w3.org/2000/svg" xmlns:xlink="http://www.w3.org/1999/xlink">
    <title>Graphic elements / Icons / Rich icons / Crime</title>
    <g id="Graphic-elements-/-Icons-/-Rich-icons-/-Crime" stroke="none" stroke-width="1" fill="none" fill-rule="evenodd">
        <g id="Crime" transform="translate(1.000000, 68.000000)" fill-rule="nonzero">
            <path d="M175.342064,58.9998565 C168.104568,58.9975528 161.473445,54.9198712 158.154432,48.4305084 C154.83542,41.9411456 155.38357,34.1253445 159.575218,28.1722351 L170.59328,12.6084174 C174.522395,6.73243245 181.298148,3.46533063 188.297569,4.07184228 C195.296991,4.67835393 201.421433,9.06327927 204.300059,15.5291664 C207.178684,21.9950535 206.359655,29.5269985 202.160026,35.2093042 L191.197055,50.773122 C187.553762,55.9552021 181.638971,59.0241765 175.342064,58.9998565 Z M186.360126,14.9983579 C183.482242,14.9783132 180.775787,16.3768949 179.110241,18.7450084 L168.14727,34.3088261 C166.033432,36.8750151 165.521107,40.4191481 166.820421,43.4876296 C168.119736,46.5561111 171.012042,48.6325805 174.311085,48.8653918 C177.610129,49.0982031 180.76075,47.4481791 182.47075,44.5920629 L193.433721,29.0282451 L193.433721,29.0282451 C195.326488,26.3197779 195.569709,22.7741031 194.064801,19.8283624 C192.559893,16.8826216 189.556507,15.0254852 186.271981,15.0096921 L186.360126,14.9983579 Z" id="Shape" fill="#9FACB3"></path>
            <path d="M239.571155,33.9943993 L199.428845,33.9943993 C193.255849,34.1526239 187.482857,30.9485605 184.349796,25.6253891 C181.216735,20.3022177 181.216735,13.6977823 184.349796,8.37461092 C187.482857,3.05143952 193.255849,-0.152623896 199.428845,0.00560067087 L239.571155,0.00560067087 C245.744151,-0.152623896 251.517143,3.05143952 254.650204,8.37461092 C257.783265,13.6977823 257.783265,20.3022177 254.650204,25.6253891 C251.517143,30.9485605 245.744151,34.1526239 239.571155,33.9943993 L239.571155,33.9943993 Z M199.428845,10.6919378 C197.112787,10.5944853 194.929728,11.7750267 193.74266,13.7668777 C192.555592,15.7587287 192.555592,18.2412713 193.74266,20.2331223 C194.929728,22.2249733 197.112787,23.4055147 199.428845,23.3080622 L239.571155,23.3080622 C241.887213,23.4055147 244.070272,22.2249733 245.25734,20.2331223 C246.444408,18.2412713 246.444408,15.7587287 245.25734,13.7668777 C244.070272,11.7750267 241.887213,10.5944853 239.571155,10.6919378 L199.428845,10.6919378 Z" id="Shape" fill="#D1D7DB"></path>
            <path d="M194.631608,20 C196.103043,22.8934516 195.840479,26.3730857 193.951776,29.0094637 L193.951776,29.0094637 L192,31.7917981 C194.452981,33.2138793 197.22892,33.9744706 200.0593,34 L203.173369,34 C205.123237,30.8291085 206.103285,27.1505421 205.991383,23.4227129 L200.0593,23.4227129 C197.754934,23.3999103 195.657999,22.0775787 194.631608,20 L194.631608,20 Z" id="Path" fill="#C2CBCD"></path>
            <path d="M36.1914652,236.474781 C35.5556109,232.864941 36.5203239,229.157028 38.8349509,226.314437 C42.9445716,221.239817 50.7972793,220.418106 56.7284617,224.448931 C84.3668929,243.25338 121.789507,237.873363 143.008033,212.045053 C164.226559,186.216742 162.232202,148.471614 138.40995,125.02191 L138.22113,124.822034 L137.976774,124.67768 C136.689644,123.889021 135.559859,122.868713 134.644649,121.668441 L134.244794,121.246481 C132.934158,120.136061 131.601308,119.092266 130.190709,118.092888 C125.957912,115.244698 123.875566,110.114846 124.925951,105.123181 C125.877647,100.867792 128.896114,97.3707793 132.967479,95.8067556 C136.883468,94.3393739 141.27128,94.8960161 144.696559,97.2947186 C147.606965,99.3479065 150.392377,101.572691 153.037978,103.95724 L153.271227,104.157115 L153.537797,104.30147 C160.499063,107.997258 166.93828,112.601373 172.686408,117.99295 C176.643078,121.691923 177.272975,127.738308 174.16365,132.173016 L174.16365,132.173016 L174.77454,133.494416 C191.690634,170.290843 181.923739,213.851743 150.915193,239.908444 C119.906647,265.965146 75.3038936,268.091449 41.9560413,245.102746 C38.9474354,243.12351 36.8680714,240.011281 36.1914652,236.474781 Z" id="Path" fill="#9FACB3"></path>
            <path d="M36.1282776,236.242503 C35.6278145,232.736134 36.6052184,229.1787 38.8242983,226.429863 C42.9125264,221.345535 50.7243568,220.522252 56.6246644,224.560788 C60.3996253,227.128193 64.4373061,229.280307 68.6683633,230.980169 C72.033906,235.165046 72.9229214,240.841366 70.9997583,245.866011 C69.2664866,250.23083 65.6428345,253.555597 61.1659123,254.888746 C60.9559763,254.955498 60.734991,254.888746 60.525055,255 C53.7617808,252.405152 47.3358093,248.994436 41.3877278,244.842471 C38.5207795,242.839207 36.6143761,239.72196 36.1282776,236.242503 L36.1282776,236.242503 Z" id="Path" fill="#CFD5D9"></path>
            <path d="M137.855105,125.265793 L137.664968,125.064517 L137.418908,124.919151 C136.122801,124.124967 134.985136,123.09751 134.063544,121.888829 L133.6609,121.463913 C132.341123,120.345713 130.998978,119.294606 129.57854,118.288226 C125.303172,115.414984 123.204545,110.231583 124.277065,105.194105 C125.235398,100.908903 128.274917,97.3873893 132.374677,95.8124078 C136.317977,94.3347455 140.736391,94.8952876 144.185558,97.3107957 C147.116262,99.3783684 149.9211,101.618741 152.585153,104.019995 L152.820029,104.221271 L153.088458,104.366637 C157.255013,106.614115 161.237865,109.186489 165,112.059852 L157.763598,122.392019 C155.380568,125.767061 151.764562,128.068727 147.697506,128.799305 C145.350978,129.191384 142.944284,129.007181 140.684795,128.262569 C139.745293,127.267371 138.816976,126.238627 137.855105,125.265793 Z" id="Path" fill="#CFD5D9" style="mix-blend-mode: multiply;"></path>
            <path d="M39.5719785,247.255409 C5.58514717,223.537955 -8.47589755,180.138278 5.15357041,141.022351 C18.7830384,101.906424 56.7797479,76.6118766 98.1613292,79.1067486 C111.18068,79.7227892 123.59983,73.5966743 131.026085,62.895231 L134.540556,57.8617715 C137.416514,53.7645748 143.071219,52.7699552 147.174858,55.6394935 L170.130139,71.6954517 C172.102782,73.0754715 173.445539,75.1822122 173.862736,77.5517696 C174.279933,79.9213269 173.737359,82.3593916 172.354488,84.3291018 L149.621642,116.752137 C147.257077,120.111191 143.658967,122.399854 139.612071,123.118963 C135.805969,123.802328 131.884481,122.933921 128.723883,120.707792 C115.208383,111.159664 98.4443555,107.379611 82.1341709,110.202465 C65.8239863,113.025319 51.3095218,122.218838 41.7963274,135.752613 C22.4073697,163.627883 28.8977243,201.876927 56.3991781,221.810327 C62.6495986,226.310439 65.1631129,233.932853 62.5161377,240.355236 C60.774286,244.716472 57.1257402,248.038062 52.617785,249.366573 C48.1747633,250.691725 43.3691141,249.914041 39.5719785,247.255409 Z" id="Path" fill="#D1D7DB"></path>
            <path d="M42.6350172,241.467125 C46.481014,244.154911 51.7770853,243.216331 54.4656855,239.370469 C57.1542858,235.524608 56.2178476,230.227028 52.3738161,227.53643 C48.5297846,224.845832 43.2330288,225.780541 40.5416187,229.624435 C39.2449158,231.47117 38.7368309,233.758369 39.1296456,235.980584 C39.5224602,238.202799 40.7838341,240.177077 42.6350172,241.467125 L42.6350172,241.467125 Z" id="Path" fill="#FFE700"></path>
            <path d="M132.622247,113.458767 C135.436676,115.433454 139.163333,115.517393 142.063774,113.671427 C144.964215,111.825461 146.466959,108.413305 145.870992,105.026692 C145.275025,101.64008 142.697773,98.9462828 139.341494,98.2019274 C135.985215,97.457572 132.511207,98.8093205 130.540054,101.626598 C129.245765,103.471254 128.737947,105.755012 129.128528,107.974511 C129.51911,110.194011 130.776028,112.167055 132.622247,113.458767 L132.622247,113.458767 Z" id="Path" fill="#FFE700"></path>
            <path d="M194.845,21 C194.661656,20.3020649 194.430518,19.6321003 194.155,19 C194.319854,19.7092277 194.552051,20.3822636 194.845,21 Z" id="Path" fill="#9FACB3"></path>
            <path d="M205.824254,21.0908811 C205.203503,17.46579 203.548735,14.0927417 201.055617,11.3705799 L199.999626,11.3705799 C197.957728,11.3412112 196.032084,12.3102099 194.850599,13.9616091 C193.669114,15.6130082 193.383194,17.7351825 194.086072,19.6361422 C194.392329,20.1202944 194.649255,20.6334485 194.853055,21.1680264 C195.922312,23.9229125 195.530099,27.0255417 193.808179,29.4335887 L193.808179,29.4335887 L191.785121,32.2549006 L182.748054,44.9067212 C181.022901,47.7381062 177.844359,49.3738425 174.516079,49.1430471 C171.1878,48.9122518 168.269862,46.8537626 166.959033,43.8118513 C165.648205,40.76994 166.165069,37.2564959 168.29764,34.7125278 L179.413343,19.2834782 C180.338618,17.94268 181.630393,16.8913259 183.137104,16.252772 C183.475959,11.9715939 185.466633,7.98478284 188.694955,5.12181479 C181.640514,4.33363874 174.71193,7.41156847 170.609706,13.1559413 L159.494003,28.5849909 C153.380595,37.30692 155.494617,49.2834625 164.232261,55.4285732 C172.969904,61.5736839 185.069482,59.5934466 191.351609,50.9901751 L202.411733,35.5611255 C202.689626,35.18642 202.923056,34.789673 203.156485,34.4039468 C205.120502,31.2344122 206.105847,27.5642299 205.99099,23.8460685 C206.002042,22.9248987 205.94632,22.004132 205.824254,21.0908811 L205.824254,21.0908811 Z" id="Path" fill="#9FACB3"></path>
            <path d="M284.57305,77 C282.089265,76.9994282 279.765996,75.7449057 278.365256,73.6479061 L263.392233,51.0994881 C261.813427,48.8372101 261.558088,45.877763 262.725154,43.3678579 C263.89222,40.8579528 266.298299,39.1919954 269.011094,39.0155022 C271.72389,38.8390089 274.317116,40.1797139 275.785962,42.5181279 L290.715268,65.0441986 C292.264963,67.3895561 292.424372,70.4171324 291.129897,72.919016 C289.835422,75.4208996 287.297749,76.9898871 284.529333,77 L284.57305,77 Z" id="Path" fill="#D1D7DB"></path>
            <path d="M403.808457,236.508322 C404.44457,232.898476 403.479464,229.190557 401.163894,226.347961 C397.052599,221.273333 389.196692,220.45162 383.263093,224.482452 C355.613402,243.286931 318.175542,237.906906 296.948372,212.078554 C275.721201,186.250202 277.716371,148.505013 301.548328,125.055271 L301.737225,124.855395 L301.98168,124.71104 C303.269335,123.92238 304.39958,122.90207 305.315163,121.701797 L305.715181,121.279836 C307.02635,120.169414 308.359743,119.125618 309.770918,118.126238 C314.035177,115.284782 316.138669,110.135093 315.082266,105.123197 C314.130183,100.867802 311.110486,97.3707831 307.037462,95.8067569 C303.119878,94.3393728 298.730279,94.896016 295.303604,97.2947223 C292.392013,99.3479135 289.605466,101.572702 286.958786,103.957254 L286.725443,104.15713 L286.458764,104.301485 C279.498186,107.988548 273.059848,112.58537 267.313463,117.970779 C263.320261,121.673998 262.683912,127.758011 265.824508,132.206388 L265.824508,132.206388 L265.213369,133.52779 C248.312968,170.314999 258.085076,213.852166 289.089359,239.901253 C320.093642,265.950341 364.690787,268.092972 398.052644,245.1363 C401.053732,243.150351 403.128318,240.040542 403.808457,236.508322 L403.808457,236.508322 Z" id="Path" fill="#9FACB3"></path>
            <g id="Group" style="mix-blend-mode: multiply;" transform="translate(273.000000, 94.000000)" fill="#CFD5D9">
                <path d="M130.156271,141.924276 C130.659109,138.424838 129.677067,134.874438 127.447458,132.131034 C123.339831,127.056759 115.490932,126.235103 109.562627,130.265655 C105.769754,132.827985 101.712914,134.975844 97.4617797,136.672345 C94.0802672,140.848949 93.1870333,146.514046 95.119322,151.528759 C96.8608182,155.884948 100.501665,159.203142 104.999831,160.533655 C105.210763,160.600276 105.432797,160.533655 105.643729,160.64469 C112.439095,158.054972 118.895559,154.650998 124.871864,150.507241 C127.752417,148.507939 129.667866,145.396854 130.156271,141.924276 L130.156271,141.924276 Z" id="Path"></path>
                <path d="M27.9207627,30.8786897 L28.1094915,30.6788276 L28.3537288,30.5344828 C29.6402342,29.7458774 30.7694716,28.7256385 31.6842373,27.5254483 L32.0838983,27.1035172 C33.3938983,25.9931724 34.7261017,24.9494483 36.1360169,23.9501379 C40.3964717,21.1088793 42.4980872,15.9595478 41.4426271,10.948 C40.4913935,6.69290026 37.4743901,3.19612449 33.405,1.6322069 C29.4909106,0.164924709 25.1052277,0.721529186 21.6816102,3.12006897 C18.7726163,5.1731175 15.9885557,7.39775161 13.3442373,9.78213793 L13.1111017,9.982 L12.844661,10.1263448 C8.6936901,12.3560168 4.72542787,14.9103625 0.976949153,17.7655172 L8.15974576,28.0251034 C10.5251232,31.3764367 14.1143425,33.6619339 18.1512712,34.3873793 C20.4804167,34.7767041 22.8692828,34.5937955 25.1120339,33.8544138 C26.0445763,32.8662069 26.9327119,31.8446897 27.9207627,30.8786897 Z" id="Path"></path>
            </g>
            <path d="M399.428021,247.255692 C433.414853,223.540684 447.475898,180.145482 433.84643,141.033589 C420.216962,101.921695 382.220252,76.6297556 340.838671,79.1243704 C327.81932,79.7403474 315.40017,73.6148643 307.973915,62.9145245 L304.459444,57.8815839 C303.077702,55.901455 300.962556,54.5535126 298.582658,54.1364183 C296.20276,53.719324 293.754615,54.2675171 291.780655,55.6595352 L268.869861,71.7249479 C266.897218,73.1048254 265.554461,75.2113489 265.137264,77.5806619 C264.720067,79.9499749 265.262641,82.3877882 266.645512,84.3572953 L289.378358,116.765877 C291.742923,120.124584 295.341033,122.413012 299.387929,123.132047 C303.194031,123.815341 307.115519,122.947023 310.276117,120.721124 C323.791617,111.17398 340.555644,107.394317 356.865829,110.21688 C373.176014,113.039443 387.690478,122.232014 397.203673,135.764394 C416.59263,163.63679 410.102276,201.881889 382.600822,221.813233 C376.350401,226.312882 373.836887,233.93451 376.483862,240.356231 C378.225714,244.717017 381.87426,248.038265 386.382215,249.366638 C390.825237,250.691653 395.630886,249.91405 399.428021,247.255692 L399.428021,247.255692 Z" id="Path" fill="#D1D7DB"></path>
            <path d="M396.364983,241.467125 C392.518986,244.154911 387.222915,243.216331 384.534314,239.370469 C381.845714,235.524608 382.782152,230.227028 386.626184,227.53643 C390.470215,224.845832 395.766971,225.780541 398.458381,229.624435 C399.755084,231.47117 400.263169,233.758369 399.870354,235.980584 C399.47754,238.202799 398.216166,240.177077 396.364983,241.467125 L396.364983,241.467125 Z" id="Path" fill="#FFE700"></path>
            <path d="M306.322291,92.0650003 L301.544102,85.1955768 C303.337001,81.8076857 302.585155,77.6259569 299.72597,75.0832228 C296.866785,72.5404887 292.646122,72.3000595 289.519465,74.5018114 C286.392807,76.7035632 285.17579,80.7731362 286.576447,84.3429475 C287.977103,87.9127589 291.63005,90.0515699 295.410088,89.5150703 L300.188277,96.3954848 C300.955878,97.4969336 302.249739,98.1030689 303.582475,97.9855653 C304.915211,97.8680618 306.084347,97.044771 306.649482,95.8258186 C307.214617,94.6068662 307.089892,93.1774402 306.322291,92.0759913 L306.322291,92.0650003 Z" id="Path" fill="#0099DA"></path>
            <path d="M154.470564,77 C151.702186,76.9894907 149.164548,75.4138298 147.870091,72.901305 C146.575633,70.3887801 146.735041,67.3483267 148.284714,64.9929936 L163.312175,42.3711129 C165.636018,38.8572544 170.294257,37.9429066 173.716643,40.32886 C177.13903,42.7148134 178.029575,47.4975559 175.705733,51.0114146 L160.732917,73.6445165 C159.321515,75.7657179 156.972516,77.0242224 154.470564,77 L154.470564,77 Z" id="Path" fill="#D1D7DB"></path>
            <path d="M237.498991,35.0235319 L248.551357,50.6959022 C254.781173,59.5617205 266.962975,61.6592301 275.760174,55.3808209 C284.557373,49.1024117 286.638648,36.8255895 280.408833,27.9597708 L269.356466,12.2874006 C264.788994,5.80042867 256.794241,2.72449019 249.099282,4.49355698 C241.404323,6.26262377 235.524111,12.5284089 234.199942,20.3698658 L234,23.1573088 L240.020485,23.1573088 C242.24644,23.1152812 244.278353,21.8712336 245.341172,19.8996947 C245.990555,18.4610976 247.006132,17.2213127 248.284768,16.3062441 C250.205541,14.8999357 252.614784,14.3495809 254.949512,14.7837852 C257.27523,15.1740693 259.348173,16.488839 260.703407,18.4332086 L271.755774,34.1055788 C274.159867,38.1163026 273.089812,43.3166573 269.30147,46.0332341 C265.513128,48.7498109 260.287347,48.0641288 257.315496,44.4605377 L248.195904,31.6427778 C245.710962,33.084635 242.898853,33.8558034 240.031593,33.8816878 L236.86584,33.8816878 L237.498991,35.0235319 Z" id="Path" fill="#9FACB3"></path>
        </g>
    </g>
</svg>