<?xml version="1.0" encoding="UTF-8"?>
<svg width="440px" height="330px" viewBox="0 0 440 330" version="1.1" xmlns="http://www.w3.org/2000/svg" xmlns:xlink="http://www.w3.org/1999/xlink">
    <title>Graphic elements / Icons / Rich icons / Crowd Management</title>
    <g id="Graphic-elements-/-Icons-/-Rich-icons-/-Crowd-Management" stroke="none" stroke-width="1" fill="none" fill-rule="evenodd">
        <g id="Group" transform="translate(0.000000, 73.000000)" fill-rule="nonzero">
            <path d="M52.1271831,128.615523 L51.3731291,128.260337 L50.6190751,127.905151 L49.8650211,127.549965 L49.1109671,127.194779 C49.0150071,127.146624 48.9147314,127.10825 48.8115634,127.080203 L48.5121596,127 L48.2016667,127 L47.8800849,127 L47.6583043,127 L47.4254347,127 L47.1925651,127 L46.9596955,127 C46.6607251,127.032827 46.3727117,127.134633 46.1169292,127.297898 C45.8649829,127.448088 45.642959,127.646386 45.4626765,127.882236 C45.2912533,128.123922 45.1635241,128.395635 45.0856495,128.684269 C45.001904,128.981678 44.9792415,129.293889 45.0191154,129.600878 L45.4737655,133.152738 L45.9173267,136.716055 L46.3719769,140.267915 L46.8155381,143.831232 C46.8382176,143.982496 46.8715737,144.131843 46.9153394,144.278079 C46.969022,144.419842 47.0320062,144.557653 47.1038528,144.690553 C47.1749929,144.822461 47.2605703,144.945482 47.3589005,145.057197 C47.4523834,145.174555 47.5605205,145.278581 47.6804824,145.366553 L48.667406,146.157128 L49.6543296,146.947703 L50.6523422,147.726821 L51.6392658,148.517396 C51.7582201,148.608334 51.8843366,148.688818 52.0162928,148.758006 C52.1463803,148.828182 52.2841229,148.882033 52.4265869,148.918412 C52.5677945,148.958005 52.7128634,148.981065 52.859059,148.987158 C53.0064484,149.004281 53.1552308,149.004281 53.3026202,148.987158 L53.4911337,148.987158 L53.6796472,148.987158 L53.8792497,148.987158 L54.0677632,148.987158 C54.3737599,148.947302 54.6683473,148.84194 54.9327075,148.677802 C55.186909,148.525591 55.4062977,148.318451 55.5758712,148.070549 C55.7562409,147.825987 55.8847076,147.544897 55.9528982,147.245601 C56.0157006,146.935787 56.0157006,146.61589 55.9528982,146.306077 L55.2986455,142.30737 L54.6554818,138.320121 L54.0123181,134.321414 L53.3691544,130.334165 C53.3358453,130.145816 53.2838212,129.961518 53.213908,129.7842 C53.1389233,129.613739 53.0459514,129.452355 52.9366822,129.30298 C52.8245048,129.15265 52.6940603,129.01787 52.5485662,128.901964 C52.4191047,128.790237 52.2777296,128.694136 52.1271831,128.615523 Z" id="Path" fill="#C8D0D4"></path>
            <path d="M178,257 L177.921447,256.743245 L176.675829,252.501201 L175.205775,233.691085 L173.735721,214.869805 C173.740586,214.843983 173.740586,214.817485 173.735721,214.791662 C173.735721,214.791662 173.735721,214.724683 173.735721,214.702356 C173.73564,214.643002 173.73564,214.583492 173.73564,214.523982 L173.54487,211.509898 L173.365321,208.495814 C173.357027,208.347097 173.326778,208.200403 173.275547,208.060446 C173.228702,207.920697 173.160578,207.788926 173.073555,207.669732 C172.984272,207.554902 172.882676,207.450093 172.770566,207.35716 C172.654203,207.265796 172.525835,207.19068 172.389025,207.133895 L143.537809,195.200355 L114.697814,183.255652 L114.507043,183.166346 L114.338717,183.054714 L114.192833,182.931918 C114.141655,182.885531 114.096426,182.833039 114.058172,182.775632 L110.815075,178.67871 L107.5832,174.592952 C107.505024,174.492809 107.414546,174.402802 107.313877,174.325034 C107.212241,174.247665 107.103245,174.180366 106.988445,174.124095 C106.872736,174.075204 106.752452,174.037812 106.629348,174.012462 C106.502716,173.995846 106.374439,173.995846 106.247807,174.012462 L59.6212787,176.334423 L59.3519558,176.334423 L59.0826329,176.412566 C58.9968401,176.450517 58.9142772,176.495317 58.8357535,176.546525 C58.7563583,176.595988 58.6812821,176.652002 58.6113178,176.713974 L52.3720037,182.507713 L46.0654394,188.35703 C46.0295326,188.396428 45.9879301,188.430289 45.9419997,188.4575 L45.8073383,188.557969 L45.661455,188.636112 L45.5155718,188.691929 L31.1180179,197.745344 L5.49867608,206.765269 C5.36668468,206.810436 5.2419539,206.874356 5.12835708,206.955044 C5.01690803,207.036171 4.91523977,207.129817 4.82536881,207.234126 C4.73402372,207.337998 4.65841427,207.454582 4.60093305,207.580188 C4.5327703,207.705284 4.4871926,207.841304 4.46627159,207.982066 L2.05358719,234.483677 L0,257 L178,257 Z" id="Path" fill="#F5F5F6"></path>
            <path d="M109.786786,188.980339 L163.591117,209.174202 C163.926656,209.303518 164.245433,209.473025 164.54054,209.679049 C164.825853,209.88565 165.084709,210.126805 165.311248,210.397053 C165.769689,210.947881 166.077626,211.608991 166.204822,212.315469 L166.484064,213.863666 L166.763306,215.423081 L168.919053,234.13606 L171.074801,252.860258 L171.354043,256.932687 L171.354043,257 L178,257 L177.921812,256.741967 L176.681978,252.478819 L175.207581,233.575119 L173.733184,214.660201 L173.49862,211.294558 L173.264057,207.928914 C173.26274,207.825488 173.243853,207.723047 173.208209,207.626006 C173.175177,207.53214 173.126032,207.44481 173.063003,207.367973 C173.00458,207.259461 172.924771,207.164032 172.82844,207.087503 C172.752385,207.020768 172.665489,206.967642 172.571537,206.930439 L143.887808,194.959966 L115.19291,182.978275 L115.047704,182.910962 L114.902498,182.809992 L114.768462,182.709023 L114.656765,182.574397 L108.61397,175.147543 C108.565222,175.079875 108.493855,175.032088 108.412916,175.012918 C108.339439,174.995694 108.263,174.995694 108.189523,175.012918 C108.118903,175.046693 108.06039,175.101546 108.021978,175.169981 C107.992674,175.245755 107.992674,175.329802 108.021978,175.405576 L108.915552,182.136864 L109.786786,188.980339 Z" id="Path" fill="#FFFFFF"></path>
            <polygon id="Path" fill="#4E4E4D" points="76.8586652 220.069707 76.8586652 221.781411 75.6360067 226.536145 75.0527201 243.76506 74.6040381 257 93 257 92.091419 243.541308 90.9248458 226.099828 89.7021873 223.504303 88.4795289 220.908778 88.4795289 219.197074 90.7117218 213.972461 92.9439148 208.736661 85.6303982 205 82.9943915 205 78.0028043 207.740964 73 210.481928 74.9293326 215.270224"></polygon>
            <path d="M107.576763,152.395452 L82.2939506,152.192077 L57,152 L58.0246779,170.687921 L59.038218,189.375843 L69.7305088,196.2906 L80.4227997,203.216655 C81.2733474,203.763722 82.2677223,204.035607 83.2740773,203.99626 C84.2845776,203.953222 85.2572017,203.594075 86.0585281,202.968085 L97.029264,194.471521 L108,185.986256 L107.788382,169.185205 L107.576763,152.395452 Z" id="Path" fill="#C8D0D4"></path>
            <polygon id="Path" fill="#BCC5CB" points="107.576763 152.395699 82.2939506 152.192197 57 152 71.5348329 177.505653 86.0585281 203 97.029264 194.509421 108 186.007537 107.788382 169.195965"></polygon>
            <path d="M116.877764,128.615523 L117.63166,128.260337 L118.385556,127.905151 L119.139451,127.549965 L119.893347,127.194779 C119.985477,127.146708 120.082047,127.108324 120.181602,127.080203 L120.492029,127 L120.802457,127 L121.123971,127 L121.345705,127 L121.578526,127 L121.811347,127 L122.044168,127 C122.343075,127.032827 122.631028,127.134633 122.886757,127.297898 C123.137367,127.445392 123.356183,127.644236 123.529786,127.882236 C123.708977,128.120563 123.840846,128.393125 123.917821,128.684269 C123.996241,128.982645 124.018818,129.293751 123.984341,129.600878 L123.529786,133.152738 L123.086318,136.716055 L122.631763,140.267915 L122.188295,143.831232 C122.16562,143.982496 122.132271,144.131843 122.088515,144.278079 C122.034843,144.419842 121.971872,144.557653 121.900041,144.690553 C121.828915,144.822461 121.743356,144.945482 121.645046,145.057197 C121.551583,145.174555 121.443469,145.278581 121.323532,145.366553 L120.336815,146.157128 L119.350099,146.947703 L118.352296,147.726821 L117.365579,148.517396 C117.24665,148.608334 117.12056,148.688818 116.988631,148.758006 C116.858571,148.828182 116.720857,148.882033 116.578423,148.918412 C116.437245,148.958005 116.292207,148.981065 116.146042,148.987158 C115.998683,149.004281 115.849932,149.004281 115.702573,148.987158 L115.514099,148.987158 L115.325626,148.987158 L115.126065,148.987158 L114.937591,148.987158 C114.630964,148.95041 114.335819,148.844826 114.072828,148.677802 C113.817751,148.52254 113.595341,148.316063 113.418713,148.070549 C113.247014,147.820666 113.119402,147.541388 113.041765,147.245601 C112.986078,146.93507 112.986078,146.616608 113.041765,146.306077 L113.684793,142.30737 L114.338909,138.320121 L114.981938,134.321414 L115.624967,130.334165 C115.658269,130.145816 115.710282,129.961518 115.78018,129.7842 C115.855149,129.613739 115.948102,129.452355 116.057348,129.30298 C116.168625,129.15564 116.29501,129.021185 116.434296,128.901964 C116.572406,128.79129 116.720983,128.695323 116.877764,128.615523 Z" id="Path" fill="#C8D0D4"></path>
            <path d="M108.234213,94.7771543 C107.693304,93.1287842 106.156089,92.0102936 104.417388,92 L65.4745472,92 C63.7358455,92.0102936 62.1986306,93.1287842 61.6577223,94.7771543 L57.8858011,106.636051 L54.1587838,118.494948 C54.0930723,118.688214 54.0442445,118.88679 54.0128464,119.088452 C53.9957179,119.293397 53.9957179,119.499409 54.0128464,119.704353 L54.0128464,158.438937 C54.0162226,158.876667 54.0881895,159.311179 54.2261396,159.72673 C54.3714409,160.132444 54.5839408,160.51097 54.8547931,160.84655 L60.8382275,168.550914 L66.8328879,176.266475 C67.0528262,176.549263 67.3095376,176.801573 67.5962528,177.016755 C67.8897552,177.233257 68.2105876,177.41022 68.5504591,177.54307 L73.9613697,179.637134 L79.3722804,181.72 C79.6006414,181.810711 79.8375828,181.878241 80.0795156,181.921568 C80.3228201,181.974952 80.5713114,182.001242 80.8204287,182 L89.2511214,182 C89.5002387,182.001242 89.74873,181.974952 89.9920345,181.921568 C90.2336099,181.876715 90.4704042,181.809227 90.6992697,181.72 L96.1101804,179.637134 L101.521091,177.54307 C101.860963,177.41022 102.181795,177.233257 102.475297,177.016755 C102.759444,176.798617 103.015799,176.546656 103.238662,176.266475 L109.165967,168.584508 L115.149401,160.880145 C115.416295,160.541913 115.628419,160.164058 115.778055,159.760324 C115.916005,159.344773 115.987972,158.910261 115.991348,158.472531 L115.991348,119.704353 C116.002884,119.499214 116.002884,119.293591 115.991348,119.088452 C115.95995,118.88679 115.911122,118.688214 115.845411,118.494948 L112.006134,106.636051 L108.234213,94.7771543 Z" id="Path" fill="#C8D0D4"></path>
            <path d="M115.777842,118.514747 L112.002298,106.646992 L108.226754,94.7792364 C107.685326,93.129635 106.146635,92.0103089 104.406263,92 L92.6751095,92 C93.5279905,91.9983491 94.3589516,92.2693556 95.0460611,92.7732608 C95.7357935,93.2662399 96.2448674,93.9707327 96.4956002,94.7792364 L100.282381,106.646992 L104.057924,118.514747 C104.120052,118.708457 104.165169,118.907189 104.192765,119.108695 C104.20991,119.313793 104.20991,119.519959 104.192765,119.725057 L104.192765,158.488575 C104.191143,158.927716 104.115163,159.363429 103.968031,159.777331 C103.826611,160.182856 103.617678,160.561713 103.35001,160.897987 L97.360829,168.608106 L91.3604112,176.329432 C90.9091822,176.897856 90.3163985,177.338352 89.6411904,177.60698 L84.3149768,179.657782 L79,181.719791 L79.0898939,181.719791 L79.1910245,181.719791 C79.4196048,181.810569 79.6567739,181.87815 79.898939,181.921509 C80.1424771,181.974933 80.3912071,182.001243 80.6405637,182 L89.0793535,182 C89.32871,182.001243 89.57744,181.974933 89.8209782,181.921509 C90.0627855,181.876623 90.2998073,181.809084 90.5288926,181.719791 L95.9450001,179.635369 L101.361108,177.539741 C101.701305,177.406791 102.022446,177.229696 102.31623,177.013032 C102.600649,176.794732 102.857251,176.542583 103.080328,176.262192 L109.159403,168.641726 L115.148584,160.931607 C115.415735,160.593123 115.628062,160.214986 115.777842,159.81095 C115.915924,159.395089 115.98796,158.960252 115.99134,158.522195 L115.99134,119.725057 C116.002887,119.519764 116.002887,119.313988 115.99134,119.108695 C115.938036,118.904772 115.866586,118.706 115.777842,118.514747 Z" id="Path" fill="#BCC5CB"></path>
            <path d="M117.71211,95.9379968 L114.361684,92.6772655 L111.011258,89.4165342 L107.660832,86.1558029 L104.310406,82.8839428 L104.198725,82.7837838 L104.064708,82.6947536 L103.919523,82.6168521 L103.763169,82.6168521 L101.060492,81.7376789 L98.3578154,80.8473768 L95.6439703,79.9682035 L92.9747976,79 L92.8631167,79 L92.762604,79 L92.6509231,79 L82.331611,79 L82.208762,79 L82.074745,79 L81.9742322,79 L81.8513833,79 L76.6135506,81.0699523 L71.3980541,83.0842607 L66.1825576,85.0985692 L60.9670611,87.1128776 L60.8330441,87.1128776 L60.6990271,87.190779 L60.5761781,87.290938 L60.4644972,87.391097 L58.3648969,89.6168521 L56.2541285,91.8426073 L54.1545283,94.0683625 L52.0437599,96.2941176 C51.9957312,96.3470015 51.9509762,96.4027484 51.9097428,96.4610493 L51.798062,96.6502385 C51.7653541,96.7180998 51.7391781,96.7888989 51.7198854,96.8616852 C51.7082213,96.9316883 51.7082213,97.0031289 51.7198854,97.073132 L51.2954981,100.289348 L50.8376065,103.483307 L50.4243873,106.699523 L50,109.915739 L50,110.160572 L50.4132192,114.678855 L50.8264384,119.197138 L51.2396576,123.715421 L51.6417087,128.166932 C51.6620143,128.303425 51.6956791,128.43761 51.7422215,128.567568 C51.7982868,128.68856 51.8655885,128.804061 51.9432471,128.91256 C52.0262608,129.015399 52.1241144,129.105407 52.2336173,129.17965 C52.3440821,129.257767 52.4642,129.321355 52.5909961,129.368839 L52.6691727,129.368839 L52.7361812,129.368839 L52.8031898,129.368839 L52.8701983,129.368839 C53.1207838,129.447623 53.3423091,129.59866 53.5067792,129.802862 C53.5890026,129.900255 53.6567073,130.008951 53.7078048,130.125596 C53.758225,130.246647 53.7920339,130.37392 53.8083176,130.503975 L53.9423346,131.505564 L54.0763516,132.507154 L54.2103687,133.508744 L54.3443857,134.521463 L55.0033028,134.521463 L55.66222,134.521463 L56.309969,134.521463 L56.9688861,134.521463 L56.9688861,124.861685 L57.4379457,121.523052 L57.9070054,118.18442 L58.376065,114.845787 L58.8451247,111.507154 C58.8571923,111.424197 58.8758647,111.342327 58.9009651,111.262321 L59.0014779,111.028617 L59.146663,110.828299 C59.1934459,110.761086 59.2498897,110.701092 59.3141843,110.650238 L61.335608,109.047695 L63.3458636,107.311606 L65.3561192,105.575517 L67.3663748,103.828299 C67.5487765,103.679038 67.7625162,103.572544 67.9917877,103.516693 C68.2123216,103.466606 68.441339,103.466606 68.6618729,103.516693 C68.8779932,103.583485 69.0764068,103.697552 69.2426134,103.850556 C69.416809,104.01027 69.5441936,104.214138 69.6111602,104.440382 L69.711673,104.763116 L69.8233539,105.085851 L69.9238667,105.408585 L70.0243794,105.73132 C70.0665572,105.852421 70.1227781,105.968202 70.1919007,106.076312 C70.2585183,106.184678 70.3413754,106.282256 70.4375987,106.36566 C70.5385184,106.446306 70.6469739,106.517113 70.7614732,106.577107 C70.8799103,106.627406 71.0034857,106.664721 71.13002,106.688394 L77.1272826,107.667727 L83.1245451,108.647059 L89.1329758,109.626391 L95.1302383,110.594595 L95.3536001,110.594595 C95.4264205,110.623396 95.4972991,110.656852 95.5657937,110.694754 L95.7556512,110.81717 C95.8191881,110.860226 95.8756909,110.912776 95.9231725,110.972973 L97.92226,113.109698 L99.9101794,115.246423 L101.909267,117.394277 L103.897186,119.531002 L103.461631,117.049285 L103.014908,114.567568 L102.579352,112.096979 L102.143797,109.615262 C102.110393,109.453737 102.110393,109.287121 102.143797,109.125596 C102.169061,108.964025 102.225982,108.808987 102.311318,108.669316 C102.393518,108.529844 102.499313,108.405595 102.624025,108.302067 C102.753097,108.194794 102.900688,108.111831 103.05958,108.057234 L103.863682,107.779014 L104.667784,107.500795 L105.471887,107.222576 L106.275989,106.955485 C106.454793,106.891633 106.644867,106.865117 106.834393,106.877583 C107.012814,106.887809 107.187428,106.9332 107.348125,107.011129 C107.511618,107.086407 107.656501,107.196587 107.772512,107.333863 C107.896513,107.475321 107.994779,107.637264 108.062883,107.812401 L109.023338,110.661367 L109.994962,113.510334 L110.966585,116.348172 L111.938209,119.197138 L111.938209,119.375199 L111.938209,119.375199 L112.552454,123.281399 L113.166698,127.187599 L113.792111,131.0938 L114.406356,135 L115.634846,135 L115.824703,133.709062 L116.025729,132.418124 L116.215586,131.127186 L116.416612,129.836248 C116.426841,129.741021 116.449363,129.647509 116.48362,129.558029 C116.515508,129.472206 116.556701,129.390109 116.606469,129.313196 C116.652746,129.232313 116.709026,129.157537 116.77399,129.09062 C116.83702,129.022709 116.908301,128.962895 116.986184,128.91256 L117.097865,128.823529 L117.209546,128.745628 L117.332395,128.656598 L117.444076,128.578696 C117.531174,128.510411 117.613281,128.436031 117.689773,128.356121 C117.75948,128.27426 117.819442,128.184633 117.868463,128.08903 C117.92085,127.990008 117.962052,127.8855 117.991312,127.777424 C118.002896,127.666436 118.002896,127.55455 117.991312,127.443561 L117.991312,96.9284579 C117.99683,96.8357996 117.99683,96.7428968 117.991312,96.6502385 C117.971943,96.5630297 117.945805,96.4774517 117.913135,96.3942766 L117.779118,96.1494436 C117.76164,96.077523 117.739252,96.0068763 117.71211,95.9379968 L117.71211,95.9379968 Z" id="Path" fill="#6C6C6B"></path>
            <path d="M374.716552,91.7281521 L374.716552,91.7281521 C374.713309,91.2676565 374.653227,90.8093247 374.537671,90.3635654 C374.426576,89.9254043 374.257373,89.5040868 374.034566,89.1108301 C373.818969,88.705504 373.552188,88.3295857 373.240779,87.9923164 C372.905613,87.6563588 372.530075,87.3633064 372.12277,87.1198758 L369.965012,85.7664742 L367.807253,84.4242578 L365.649495,83.0708563 L363.491737,81.7174548 C363.064333,81.4491231 362.601447,81.242048 362.116585,81.1022722 C361.876479,81.05714 361.633758,81.0272532 361.389879,81.0127912 C361.13675,80.9957363 360.882761,80.9957363 360.629632,81.0127912 L339.376271,81.0127912 C339.065218,81.0105753 338.754612,81.0367828 338.448324,81.0910871 C338.144754,81.1469772 337.845785,81.2254919 337.553916,81.325975 C337.26159,81.4357241 336.977615,81.5665613 336.704229,81.7174548 C336.435216,81.873219 336.180772,82.052907 335.943982,82.2543413 L332.064489,85.4532904 L328.173816,88.6522395 L324.294323,91.8511886 L320.41483,95.0501377 C320.257832,95.1752728 320.108495,95.3097369 319.967626,95.4528026 C319.833465,95.5982094 319.699304,95.7548013 319.576323,95.9113932 C319.453342,96.0679851 319.341541,96.2357621 319.22974,96.4147243 C319.123313,96.5864585 319.029884,96.7659221 318.950238,96.9516109 L316.121674,103.058696 L313.31547,109.065114 L310.486906,115.172199 L307.647162,121.279283 C307.568901,121.44706 307.50182,121.637207 307.43474,121.81617 C307.372213,122.003321 307.319961,122.193753 307.278218,122.386612 C307.237519,122.57489 307.207656,122.765351 307.188778,122.957054 C307.177656,123.154501 307.177656,123.352418 307.188778,123.549866 L307.188778,151.870632 C307.177808,152.027032 307.177808,152.184008 307.188778,152.340408 C307.188778,152.497 307.188778,152.653591 307.244678,152.810183 L307.345299,153.268774 C307.345299,153.414181 307.43474,153.570773 307.49064,153.716179 L308.776351,157.250683 L310.050882,160.796371 L311.336593,164.330874 L312.622304,167.876562 C312.734315,168.180325 312.813037,168.495354 312.857086,168.816114 C312.890792,169.135868 312.890792,169.458282 312.857086,169.778036 C312.833135,170.095276 312.780751,170.409723 312.700565,170.717587 C312.609535,171.029992 312.489768,171.333287 312.342802,171.623583 L307.032256,180.437471 L301.721711,189.251359 L296.411166,198.065246 L291.111801,206.879134 C291.038756,207.000743 291,207.139922 291,207.281799 C291.002515,207.409311 291.041296,207.533467 291.111801,207.639723 C291.175446,207.755611 291.272968,207.849274 291.391303,207.908167 C291.509279,207.977937 291.646048,208.009213 291.782607,207.997648 L315.786271,206.319877 L339.778755,204.653292 L363.771239,202.975521 L387.763723,201.297751 C387.857489,201.29922 387.950002,201.276081 388.032045,201.23064 C388.112221,201.192531 388.184335,201.139371 388.244467,201.074048 C388.372547,200.946704 388.444918,200.773739 388.445709,200.593087 L388.837012,189.273729 L389.228315,177.954371 L389.608439,166.635012 L390,155.315654 L390,110.877106 C390.003509,110.501298 389.966017,110.126212 389.887941,109.758592 C389.808713,109.403504 389.700269,109.05558 389.563718,108.718375 C389.417996,108.380312 389.238183,108.058004 389.027074,107.756453 C388.816184,107.457815 388.576529,107.180588 388.311548,106.928753 L385.326462,104.098913 L382.341377,101.280259 L379.367472,98.4616043 L376.382386,95.6429499 C376.114145,95.3901376 375.874222,95.1088509 375.66686,94.8040647 C375.455817,94.5064314 375.275987,94.1878372 375.130216,93.853328 C374.98364,93.5197945 374.874887,93.1708779 374.805993,92.8131103 C374.738079,92.4556169 374.708099,92.0919466 374.716552,91.7281521 Z" id="Path" fill="#6C6C6B"></path>
            <path d="M440,257 L437.458451,239.427518 L434.320875,217.84039 L431.059596,209.171897 L427.798316,200.503404 C427.644351,200.08226 427.436457,199.68272 427.179798,199.31471 C426.411952,198.220323 425.267116,197.445945 423.963502,197.139176 L416.350101,195.378564 L408.7367,193.651594 L401.1233,191.890981 L393.509899,190.130369 L393.296229,190.130369 L393.082559,190.130369 L392.868889,190.130369 L392.655219,190.130369 L390.765926,190.007014 L388.876633,189.872445 C388.519219,189.847333 388.165147,189.787236 387.819529,189.693019 C387.475063,189.596262 387.140074,189.46865 386.818653,189.31174 C386.501789,189.149055 386.200629,188.957606 385.91899,188.739821 C385.636012,188.515629 385.376081,188.263943 385.14303,187.988477 L383.028822,185.353166 L380.903367,182.863637 L378.777912,180.374109 L376.652458,177.88458 C376.397429,177.584986 376.106631,177.317603 375.786532,177.08838 C375.474946,176.852349 375.139503,176.649395 374.785657,176.482819 C374.425482,176.321516 374.048249,176.201142 373.661077,176.123968 C373.292918,176.035819 372.91507,175.994373 372.536498,176 L362.246599,176 L331.399394,176.15761 C330.725581,176.153097 330.05727,176.278766 329.43138,176.527675 C329.124302,176.6546 328.827312,176.804551 328.542963,176.976239 C328.260069,177.159323 327.992992,177.36563 327.744512,177.593014 L325.292929,179.835832 L322.841347,182.078651 L320.389764,184.321469 L317.938182,186.564287 C317.717729,186.770119 317.480779,186.957644 317.229697,187.124992 C316.97587,187.282253 316.713018,187.424542 316.442492,187.551128 C316.170017,187.671661 315.887883,187.769192 315.599057,187.842694 C315.308249,187.919388 315.010759,187.968204 314.71064,187.988477 L308.96404,188.481897 L303.183704,189.165957 L291.679259,190.141583 C291.475348,190.160437 291.272621,190.190386 291.071987,190.231296 C290.870671,190.273101 290.671717,190.325507 290.47596,190.388293 C290.281229,190.449418 290.089795,190.520535 289.902424,190.601361 L289.362626,190.892927 L287.113468,192.238618 L284.86431,193.584309 L282.615152,194.93 L280.365993,196.286905 C280.02008,196.48769 279.699217,196.7286 279.410101,197.004607 C279.125015,197.280791 278.868796,197.585133 278.645387,197.912949 C278.425826,198.238724 278.244696,198.588676 278.105589,198.955859 C277.962361,199.317071 277.860503,199.693258 277.801953,200.077268 L275.249158,230.545957 L273,256.988786 L440,257 Z" id="Path" fill="#6C6C6B"></path>
            <path d="M328.06395,188.04023 C328.098038,188.129617 328.139004,188.216168 328.186469,188.29909 C328.232623,188.380888 328.288752,188.456511 328.353542,188.524186 L338.221961,199.925287 C338.257598,199.957586 338.287705,199.995614 338.311067,200.037835 C338.343425,200.074636 338.369747,200.116432 338.389034,200.161638 L338.455863,200.285441 C338.460256,200.33035 338.460256,200.375588 338.455863,200.420498 L344.637548,217.741619 L347.66713,239.891044 L350.150942,257 L373.541101,257 L373.541101,206.801964 C373.541101,206.801964 373.541101,206.72318 373.541101,206.678161 C373.547378,206.637137 373.547378,206.595382 373.541101,206.554358 L373.541101,206.44181 L377.99637,192.530891 C377.99637,192.474617 377.99637,192.407088 377.99637,192.350814 C378.00121,192.287131 378.00121,192.223166 377.99637,192.159483 L377.99637,191.956897 C378.00121,191.893213 378.00121,191.829249 377.99637,191.765565 L375.868979,180.184387 L373.864108,168.53568 C373.843278,168.444203 373.817246,168.354015 373.786141,168.265565 C373.755802,168.180081 373.718549,168.097266 373.674759,168.01796 C373.626546,167.940335 373.574503,167.865209 373.518825,167.792864 L373.318338,167.601533 L369.375425,164.337644 L369.130386,164.180077 C369.045742,164.129609 368.95616,164.088121 368.86307,164.056274 L368.573477,164 L368.295023,164 L351.220207,165.159243 L334.178805,166.352251 L333.956042,166.352251 L333.744417,166.352251 L333.532791,166.453544 L333.343443,166.577347 L332.151658,167.511494 L330.959874,168.434387 L328.576305,170.291427 C328.480411,170.362103 328.394261,170.44537 328.320127,170.539033 C328.241323,170.629433 328.177393,170.732032 328.130779,170.842912 C328.078507,170.946969 328.037433,171.056391 328.008259,171.169301 C327.997247,171.289094 327.997247,171.409661 328.008259,171.529454 L328.008259,187.376197 C327.997677,187.469682 327.997677,187.564082 328.008259,187.657567 C328.001155,187.787608 328.020097,187.917761 328.06395,188.04023 Z" id="Path" fill="#FFFFFF"></path>
            <path d="M331.004215,163.43029 L331.004215,177.769135 C330.998595,177.839587 330.998595,177.910367 331.004215,177.980819 C331.004215,178.047667 331.004215,178.114515 331.004215,178.181363 C331.025625,178.249999 331.052023,178.317021 331.083205,178.381906 L331.184763,178.560167 L336.826898,187.005267 L342.469034,195.450368 L348.111169,203.90661 L353.753304,212.35171 C353.89514,212.563477 354.08933,212.736034 354.317518,212.853069 C354.537804,212.961264 354.782756,213.01117 355.028427,212.997905 C355.270776,212.986136 355.506771,212.91738 355.716767,212.797362 C355.941554,212.66765 356.125227,212.478587 356.247128,212.251439 L360.151486,205.276989 L364.055843,198.291398 L367.960201,191.305807 L371.864559,184.331357 L371.943549,184.164237 C371.943549,184.108531 371.943549,184.052824 372,183.997118 L372,183.818857 C372,183.75201 372,183.696303 372,183.629455 L372,168.521861 C372.001165,168.342433 371.96666,168.164519 371.898412,167.99822 C371.838521,167.839409 371.750655,167.692307 371.638873,167.56371 C371.523984,167.436008 371.386281,167.330263 371.23264,167.251754 C371.081085,167.161761 370.911803,167.104782 370.736132,167.084634 L361.212207,165.814527 L351.699567,164.544419 L342.209496,163.285453 L332.696855,162.015346 C332.484761,161.982927 332.267859,162.002048 332.064936,162.071052 C331.869389,162.129489 331.688623,162.22822 331.534576,162.360726 C331.383654,162.495582 331.260975,162.658343 331.173479,162.839801 C331.072203,163.021317 331.014306,163.223294 331.004215,163.43029 L331.004215,163.43029 Z" id="Path" fill="#C8D0D4"></path>
            <path d="M331,161 L331,173.322309 L336.350771,177.592979 L341.690253,181.86365 L347.041024,186.134321 L352.391795,190.41638 C352.578869,190.563413 352.783703,190.685871 353.001377,190.780811 C353.222379,190.872984 353.453576,190.937986 353.689978,190.974414 C353.922049,191.008529 354.157797,191.008529 354.389868,190.974414 C354.626129,190.943364 354.857518,190.882135 355.078469,190.792199 L359.311674,189.026989 L363.544879,187.25039 L367.766795,185.485179 L372,183.719968 L372,166.637285 L361.75,165.247894 L351.5,163.847114 L341.25,162.446334 L331,161 Z" id="Path" fill="#BCC5CB"></path>
            <path d="M376.954032,128.538965 L377.710896,128.198194 L378.46776,127.857423 L379.213493,127.516653 L379.970358,127.175882 L380.259747,127.065956 C380.36078,127.032437 380.465328,127.010311 380.571397,127 L380.883047,127 L381.161305,127 L381.383912,127 L381.61765,127 L381.851387,127 L382.073994,127 C382.372154,127.039807 382.659532,127.136903 382.919901,127.285808 C383.427079,127.574056 383.798942,128.047941 383.955024,128.604921 C384.014992,128.895065 384.014992,129.194184 383.955024,129.484329 L383.50981,132.881045 L383.064596,136.27776 L382.608251,139.674476 L382.163037,143.071191 C382.141489,143.212944 382.107981,143.35267 382.062864,143.48891 C382.021877,143.628162 381.96197,143.761285 381.884778,143.884644 C381.809568,144.008771 381.723935,144.126439 381.62878,144.236408 C381.532194,144.34641 381.423987,144.445907 381.306,144.533208 L380.315398,145.291698 L379.335927,146.039195 L378.345326,146.786692 L377.354724,147.53419 C377.23915,147.621299 377.116272,147.698527 376.987423,147.765034 C376.856078,147.830646 376.718023,147.882237 376.5756,147.918931 C376.290598,148.003339 375.989804,148.022141 375.696302,147.973894 L375.507086,147.973894 L375.31787,147.973894 L375.128654,147.973894 L374.939438,147.973894 C374.636963,147.937558 374.345263,147.840281 374.0824,147.688086 C373.82866,147.53599 373.605939,147.338394 373.425709,147.105478 C373.250994,146.867096 373.12267,146.598714 373.047277,146.31401 C372.984241,146.016771 372.984241,145.709856 373.047277,145.412617 L373.692838,141.609175 L374.338398,137.79474 L374.983959,133.980305 L375.618389,130.176863 C375.650377,129.994513 375.70651,129.81711 375.785344,129.649218 C375.852447,129.483912 375.942338,129.328549 376.052473,129.187529 C376.164345,129.049605 376.291253,128.924267 376.430905,128.81378 C376.590785,128.697482 376.767025,128.604897 376.954032,128.538965 L376.954032,128.538965 Z" id="Path" fill="#C8D0D4"></path>
            <path d="M323.091043,128.538363 L322.343286,128.197726 L321.584368,127.857088 L320.836611,127.516451 L320.077693,127.175813 L319.787519,127.06593 C319.685916,127.033495 319.581204,127.011403 319.475023,127 L319.162528,127 L318.883514,127 L318.649142,127 L318.425931,127 L318.19156,127 L317.957188,127 C317.659103,127.04342 317.371621,127.140251 317.108986,127.285696 C316.862294,127.430465 316.646294,127.620745 316.472835,127.8461 C316.293746,128.071389 316.161057,128.328938 316.082215,128.604293 C316.004074,128.890583 315.981358,129.188795 316.015252,129.483358 L316.472835,132.878745 L316.919257,136.274133 L317.365679,139.66952 L317.823262,143.064908 C317.834133,143.208443 317.868035,143.349375 317.923707,143.482463 C317.964804,143.621661 318.024874,143.754731 318.102275,143.878043 C318.173874,144.004547 318.260004,144.12253 318.358968,144.229669 C318.453054,144.342219 318.561889,144.441984 318.682624,144.526353 L319.664753,145.284546 L320.658042,146.031751 L321.651331,146.778956 L322.63346,147.526161 C322.753182,147.613374 322.880112,147.690562 323.012919,147.756916 C323.143846,147.824217 323.282477,147.875863 323.425859,147.910752 C323.567587,147.95226 323.713579,147.978059 323.861121,147.98767 C324.005728,148.00411 324.151776,148.00411 324.296383,147.98767 L324.497273,147.98767 L324.687002,147.98767 L324.876731,147.98767 L325.066461,147.98767 C325.369756,147.951349 325.662248,147.854109 325.925823,147.701974 C326.441919,147.398877 326.812084,146.903697 326.952594,146.328436 C327.015802,146.031312 327.015802,145.724518 326.952594,145.427394 L326.305282,141.625439 L325.65797,137.812496 L325.010658,133.999553 L324.363346,130.197598 C324.340405,130.014657 324.287645,129.836557 324.207098,129.670159 C324.135964,129.504486 324.042084,129.349202 323.928084,129.20865 C323.821832,129.065671 323.693845,128.93966 323.548626,128.835048 C323.412081,128.714109 323.257825,128.614094 323.091043,128.538363 L323.091043,128.538363 Z" id="Path" fill="#C8D0D4"></path>
            <path d="M372.124869,100.475955 C372.008155,100.116229 371.834774,99.7773884 371.611252,99.472191 C371.394271,99.1718162 371.130377,98.9082208 370.829662,98.6914856 C370.534272,98.4677171 370.20164,98.297814 369.847091,98.1896036 C369.488377,98.0635564 369.110795,98 368.730533,98 L334.217734,98 C333.837472,98 333.45989,98.0635564 333.101176,98.1896036 C332.747563,98.3001129 332.415313,98.469821 332.118605,98.6914856 C331.81789,98.9082208 331.553996,99.1718162 331.337015,99.472191 C331.116933,99.7778249 330.947299,100.116708 330.834564,100.475955 L329.159727,105.751293 L327.484891,111.015478 L325.810054,116.279663 L324.135218,121.555001 L324.068224,121.811518 C324.044153,121.899517 324.025508,121.988909 324.012396,122.079188 L324.012396,122.346859 C324.012396,122.447235 324.012396,122.536459 324.012396,122.625682 L324.012396,157.05479 C323.995868,157.247755 323.995868,157.441777 324.012396,157.634742 C324.041117,157.82774 324.085935,158.018002 324.146383,158.203542 C324.213193,158.383119 324.291514,158.558211 324.38086,158.72773 C324.475726,158.899545 324.583995,159.063629 324.704662,159.218459 L327.362069,162.64241 L330.008311,166.077513 L332.654553,169.512617 L335.334292,172.970027 C335.433163,173.096891 335.541399,173.216189 335.658093,173.326921 C335.769749,173.43845 335.89257,173.538826 336.015392,173.639203 L336.417353,173.89572 L336.85281,174.107626 L339.253409,175.03332 L341.654008,175.959013 L344.054607,176.89586 L346.455207,177.821553 C346.555316,177.866628 346.660189,177.900299 346.767843,177.921929 L347.080479,178 L347.404281,178 L347.739248,178 L355.220185,178 L355.543986,178 L355.867788,178 L356.19159,177.921929 L356.504226,177.821553 L358.89366,176.89586 L361.294259,175.959013 L363.694858,175.03332 L366.151285,174.08532 L366.586742,173.873414 C366.726352,173.797034 366.860643,173.711334 366.988703,173.616897 C367.12269,173.51652 367.234346,173.416144 367.357167,173.304615 C367.479989,173.193085 367.569313,173.070403 367.669803,172.947721 L370.327211,169.52377 L372.984618,166.099819 L375.642026,162.664716 L378.288267,159.240765 C378.41275,159.088703 378.521254,158.924262 378.612069,158.750036 C378.701415,158.580517 378.779736,158.405425 378.846546,158.225848 C378.905373,158.039061 378.953831,157.849172 378.991699,157.657048 C379.002767,157.463889 379.002767,157.270255 378.991699,157.077096 L378.991699,122.636835 C378.997038,122.543971 378.997038,122.450876 378.991699,122.358012 L378.991699,122.090341 C378.991699,122.001118 378.991699,121.911894 378.991699,121.822671 C378.972334,121.735273 378.946202,121.649509 378.91354,121.566153 L377.238703,116.290816 L375.563867,111.026631 L373.88903,105.762446 L372.124869,100.475955 Z" id="Path" fill="#C8D0D4"></path>
            <path d="M378.886413,120.934383 L377.189714,115.46141 L375.470542,109.999721 L373.740133,104.549317 L372.020961,99.0876289 C371.919743,98.7864299 371.775945,98.501404 371.593977,98.2412928 C371.408714,97.9932189 371.189283,97.7728485 370.942265,97.586793 C370.689813,97.3999651 370.409055,97.2551756 370.11077,97.1579827 C369.810808,97.053598 369.495607,97 369.178147,97 L342.008487,97 C341.998208,97.0635288 341.998208,97.1283073 342.008487,97.1918362 C341.997171,97.2590662 341.997171,97.3277268 342.008487,97.3949568 C342.029943,97.4571219 342.056242,97.5174926 342.087142,97.5755085 C342.126636,97.6360477 342.17602,97.6894586 342.233215,97.7334912 L349.267213,103.127473 L356.256266,108.521454 L363.3015,113.915436 L370.335499,119.298133 L370.335499,151.549178 L366.335333,158.173168 L362.335168,164.785874 L358.335003,171.387295 L354.334838,178 L355.222515,178 L355.503426,178 L355.7731,178 C355.865334,177.988182 355.955853,177.965455 356.042774,177.932293 L356.301211,177.853302 L358.78446,176.882836 L361.256472,175.912371 L363.739721,174.95319 L366.222969,173.982725 C366.347876,173.937829 366.468269,173.881153 366.582535,173.813458 C366.700468,173.751228 366.813199,173.679526 366.919627,173.599053 C367.028313,173.517696 367.129817,173.427085 367.223011,173.328225 C367.324419,173.237568 367.414925,173.135313 367.492685,173.023544 L370.223134,169.457648 L372.953584,165.914322 L375.684034,162.382279 L378.403247,158.838952 C378.50349,158.706803 378.593639,158.56723 378.672921,158.421427 C378.753751,158.277398 378.821446,158.126323 378.875177,157.970047 C378.925751,157.815495 378.963337,157.656957 378.987541,157.496099 C379.004153,157.334785 379.004153,157.172181 378.987541,157.010867 L378.987541,121.825857 C378.993128,121.746965 378.993128,121.667774 378.987541,121.588883 C378.992541,121.513737 378.992541,121.438339 378.987541,121.363193 C378.987541,121.284202 378.987541,121.216495 378.987541,121.137503 L378.886413,120.934383 Z" id="Path" fill="#BCC5CB"></path>
            <path d="M382.525374,107.606818 C382.536317,107.529066 382.536317,107.450185 382.525374,107.372433 C382.513169,107.298913 382.490417,107.227502 382.457808,107.16037 C382.43548,107.088303 382.401231,107.020412 382.356459,106.959468 C382.318195,106.891735 382.272906,106.828144 382.221328,106.769727 L378.358814,102.517304 L374.4963,98.1979143 L370.633787,93.9343303 L366.771273,89.6819076 C366.672849,89.5636233 366.559282,89.4585661 366.433444,89.3693936 C366.30853,89.2842946 366.176699,89.2096297 366.03931,89.1461693 C365.902537,89.084856 365.758888,89.0398949 365.611393,89.0122347 C365.461697,88.9959218 365.310649,88.9959218 365.160954,89.0122347 L359.721904,89.0122347 L354.294115,89.0122347 L348.866326,89.0122347 L343.438537,89.0122347 L343.303406,89.0122347 L343.168274,89.0122347 L343.044403,89.0122347 L342.909272,89.0122347 L338.100836,90.8649963 L333.326184,92.8405313 L328.562792,94.8160663 L323.821923,96.8027625 C323.652107,96.8806364 323.489997,96.9740518 323.337701,97.0817928 C323.193705,97.1909469 323.064958,97.3185541 322.954828,97.4612741 C322.840245,97.6064589 322.742064,97.7636546 322.662043,97.9300451 C322.591045,98.1027767 322.538215,98.2823062 322.504389,98.4657834 L321.378292,105.441543 L320.252195,112.417302 L319.126097,119.393061 L318,126.36882 L318.168915,126.36882 L318.484222,126.36882 L318.799529,126.36882 L319.103575,126.446948 C319.204924,126.446948 319.306273,126.513916 319.407622,126.547399 L320.150846,126.893397 L320.89407,127.228233 L321.637294,127.56307 L322.380518,127.909068 C322.476695,127.951923 322.579495,127.978339 322.684565,127.987196 C322.788961,128.004268 322.895475,128.004268 322.999872,127.987196 C323.206026,127.930051 323.38045,127.793356 323.484094,127.607715 L324.103447,126.603205 L324.71154,125.598696 L325.319632,124.594187 L325.927725,123.589677 C325.927725,123.589677 325.927725,123.533871 325.927725,123.500388 C325.927735,123.440861 325.927735,123.381335 325.927735,123.321808 L325.927735,113.432972 C325.917315,113.302963 325.917315,113.172339 325.927735,113.04233 C325.950844,112.916913 325.984751,112.793689 326.029084,112.67401 C326.116493,112.425612 326.25448,112.197672 326.434479,112.004337 L328.686673,109.392613 L330.938868,106.79205 L333.191062,104.180325 L335.443257,101.568601 C335.548636,101.452975 335.6656,101.348265 335.792347,101.256087 C335.91706,101.167442 336.048877,101.089052 336.186481,101.021702 C336.327457,100.958513 336.474627,100.909891 336.625659,100.876606 C336.782876,100.860153 336.941403,100.860153 337.09862,100.876606 L342.436321,100.876606 L342.627758,100.876606 L342.819194,100.876606 L343.010631,100.943573 L344.361947,101.445828 L345.713264,101.948082 L347.064581,102.450337 L348.415898,102.952592 C348.561763,103.005077 348.712712,103.04248 348.866336,103.064204 C349.019776,103.080887 349.174597,103.080887 349.328036,103.064204 C349.480721,103.055474 349.631873,103.029256 349.778475,102.986075 C349.928478,102.940059 350.0752,102.884128 350.217653,102.818657 L351.467621,102.160145 L352.717589,101.512795 L353.978818,100.854283 L355.228786,100.195772 C355.308454,100.155624 355.391312,100.122028 355.476527,100.095321 L355.724269,100.017192 L355.983271,99.9613862 L362.818682,99.9613862 C363.260714,99.9624891 363.701722,100.003584 364.136215,100.08416 C365.002474,100.249754 365.828359,100.579456 366.568586,101.055185 C366.938881,101.29405 367.285739,101.566836 367.604595,101.869954 L369.068522,103.265106 L370.543709,104.660258 L372.007635,106.066571 L373.482823,107.461722 C373.563682,107.538168 373.638946,107.620225 373.708042,107.707269 C373.774574,107.796014 373.834779,107.88925 373.888218,107.986299 C373.942601,108.082376 373.98784,108.183262 374.02335,108.287652 C374.06004,108.393613 374.090126,108.501709 374.113437,108.611327 L374.991793,113.075813 L375.870149,117.540299 L376.759766,122.004785 L377.638122,126.469271 C377.659846,126.599478 377.714037,126.722246 377.795775,126.82643 C377.875652,126.931393 377.979969,127.01564 378.099822,127.071976 C378.211349,127.128977 378.334703,127.159542 378.460173,127.161266 C378.596472,127.174754 378.733727,127.147546 378.854307,127.083138 L379.034482,127.005009 L379.214658,126.926881 L379.383573,126.848752 L379.563748,126.770624 C379.697955,126.707023 379.837335,126.654753 379.980404,126.614367 C380.115319,126.568666 380.255147,126.5387 380.39706,126.525077 L380.836238,126.525077 C380.982418,126.514009 381.129236,126.514009 381.275416,126.525077 L381.444331,126.525077 L381.624506,126.525077 L381.793421,126.525077 L381.962335,126.525077 L381.962335,126.525077 C382.095407,126.558152 382.234659,126.558152 382.36773,126.525077 C382.615145,126.462262 382.819048,126.289037 382.919518,126.056306 C382.980017,125.939234 383.007264,125.808062 382.998345,125.676825 L382.840691,121.212339 L382.683038,116.747853 L382.525384,112.283367 L382.525374,107.606818 Z" id="Path" fill="#6C6C6B"></path>
            <path d="M363,96 L353.657377,97.2539616 L344.348361,98.5192202 L335.005738,99.7731818 L325.674317,101.03844 L324.755738,107.014528 L323.837158,112.979318 L322.918579,118.944109 L322,124.920196 L323.769945,124.920196 C323.719313,124.967583 323.674212,125.020646 323.635519,125.078353 C323.595389,125.134659 323.561575,125.19528 323.534699,125.259104 L323.467486,125.451153 C323.461998,125.522593 323.461998,125.594354 323.467486,125.665795 L323.467486,132.929735 C323.470698,133.073547 323.501115,133.215417 323.557104,133.347722 C323.606258,133.475882 323.682743,133.591581 323.781148,133.68663 C323.87867,133.781855 323.992542,133.858412 324.117213,133.912569 C324.248298,133.968108 324.38955,133.995057 324.531694,133.991648 L327.545082,133.991648 C327.619355,134.002784 327.694853,134.002784 327.769126,133.991648 C327.839725,133.981005 327.907953,133.958069 327.970765,133.923866 C328.037628,133.896855 328.101463,133.862774 328.161202,133.822194 C328.224933,133.778488 328.281608,133.725143 328.329235,133.664036 L331.140984,130.546078 L333.963934,127.428119 L336.775683,124.310161 L339.587432,121.180905 L339.587432,121.180905 L339.587432,121.180905 L339.587432,121.180905 L339.587432,121.113123 L345.412568,114.888503 L351.226503,108.652586 L357.051639,102.416668 L363,96 Z" id="Path" fill="#6C6C6B"></path>
            <path d="M247.50985,88.8272761 L248.408334,88.4205653 L249.306819,88.0138545 L250.205303,87.6184411 L251.103788,87.2117303 L251.460878,87.0874576 C251.577182,87.050407 251.696716,87.0239344 251.817968,87.0083749 C251.944421,86.9972084 252.071642,86.9972084 252.198096,87.0083749 L252.566705,87.0083749 L252.843162,87.0083749 L253.119618,87.0083749 L253.396075,87.0083749 L253.672532,87.0083749 C254.025154,87.0592994 254.365009,87.1742372 254.674688,87.3473006 C254.970053,87.5230543 255.231346,87.7487239 255.446463,88.0138545 C255.656205,88.2842853 255.812483,88.5908309 255.907224,88.9176563 C256,89.2562394 256.0235,89.6094939 255.976338,89.9570285 L255.446463,93.9902443 L254.905068,98.0121626 L254.375193,102.045378 L253.833798,106.146379 C253.811983,106.319051 253.773411,106.489286 253.718608,106.654768 C253.662289,106.816217 253.588938,106.971458 253.499746,107.117966 C253.417238,107.268499 253.316694,107.408829 253.200252,107.535975 C253.086804,107.669879 252.955004,107.787739 252.808604,107.886198 L251.656701,108.778702 L250.504798,109.671207 L249.352895,110.563711 L248.200992,111.456215 C248.058172,111.557199 247.908026,111.64782 247.751749,111.727356 C247.593419,111.804151 247.427435,111.864725 247.256431,111.908116 C247.090768,111.951782 246.920893,111.978288 246.749593,111.987199 C246.573397,112.004267 246.395914,112.004267 246.219718,111.987199 L245.989337,111.987199 L245.758957,111.987199 L245.540095,111.987199 L245.309714,111.987199 C244.94745,111.939247 244.598768,111.820132 244.284521,111.636976 C243.97681,111.459176 243.710085,111.220662 243.501226,110.936529 C243.292495,110.658723 243.139996,110.34425 243.051984,110.010132 C242.982672,109.659407 242.982672,109.298891 243.051984,108.948165 L243.823759,104.429156 L244.595534,99.9101465 L245.36731,95.3911372 L246.127566,90.8721279 C246.16999,90.6587329 246.235641,90.4504191 246.323389,90.2507641 C246.408259,90.0579332 246.516554,89.8758557 246.645922,89.708483 C246.9182,89.3727997 247.264859,89.1023506 247.659597,88.9176563 L247.50985,88.8272761 Z" id="Path" fill="#C8D0D4"></path>
            <path d="M173.49015,88.768609 L172.591666,88.3604684 L171.693181,88.0090141 L170.794697,87.6122108 L169.896212,87.2040703 L169.539122,87.0793607 C169.422818,87.0421799 169.303284,87.0156142 169.182032,87 L168.813423,87 L168.433295,87 L168.156838,87 L167.880382,87 L167.603925,87 L167.327468,87 C166.975345,87.0531044 166.635852,87.1683236 166.325312,87.3401171 C166.029947,87.5164887 165.768654,87.7429515 165.553537,88.0090141 C165.343795,88.2803955 165.187517,88.5880187 165.092776,88.9159931 C165,89.2557664 164.9765,89.6102626 165.023662,89.9590189 L165.553537,94.0064125 L166.094932,98.0424689 L166.624807,102.089862 L167.166202,106.125919 C167.188017,106.299198 167.226589,106.470031 167.281392,106.636095 C167.337711,106.798111 167.411062,106.953898 167.500254,107.100921 C167.582762,107.251983 167.683306,107.392806 167.799748,107.520399 C167.913196,107.654774 168.044996,107.773048 168.191396,107.871853 L169.343299,108.767495 L170.495202,109.663137 L171.647105,110.558779 L172.799008,111.45442 C172.943502,111.553265 173.093482,111.644104 173.248251,111.726514 C173.406581,111.803579 173.572565,111.864366 173.743569,111.90791 C173.912958,111.952605 174.086746,111.979212 174.261926,111.98727 C174.434281,112.004243 174.607927,112.004243 174.780282,111.98727 L175.010663,111.98727 L175.241043,111.98727 L175.459905,111.98727 L175.690286,111.98727 C176.055741,111.937384 176.407849,111.818017 176.726998,111.635816 C177.02883,111.45389 177.291122,111.215003 177.498774,110.932907 C177.712,110.656796 177.864946,110.340292 177.948016,110.003254 C178.017328,109.651296 178.017328,109.289512 177.948016,108.937554 L177.176241,104.402659 L176.404466,99.867764 L175.63269,95.3328692 L174.872434,90.7979744 C174.83001,90.5838293 174.764359,90.3747832 174.676611,90.1744264 C174.591741,89.9809177 174.483446,89.7982001 174.354078,89.630239 C174.088803,89.2865599 173.740313,89.0137273 173.340403,88.8366324 L173.49015,88.768609 Z" id="Path" fill="#C8D0D4"></path>
            <path d="M319,257 L317.87837,235.85482 L316.442684,230.943099 L314.782671,209.13326 L313.100226,187.334685 C313.10548,187.301095 313.10548,187.266887 313.100226,187.233297 C313.100226,187.233297 313.100226,187.165704 313.100226,187.131908 C313.100226,187.098112 313.100226,187.064315 313.100226,187.030519 C313.100226,186.996723 313.100226,186.962927 313.100226,186.929131 L312.887117,183.436852 L312.685223,179.944574 C312.674365,179.775481 312.640398,179.608691 312.584277,179.448896 C312.521736,179.290799 312.442786,179.13976 312.348734,178.99828 C312.253683,178.856233 312.136246,178.730671 312.001029,178.626521 C311.866317,178.516493 311.714822,178.429002 311.552377,178.367417 L278.419428,164.544755 L245.353776,150.722093 L245.151883,150.620704 L244.961206,150.485519 C244.896321,150.439061 244.836204,150.386229 244.781745,150.327803 C244.723772,150.277033 244.671153,150.220408 244.624717,150.158822 L240.912122,145.416083 L237.210743,140.673344 C237.117369,140.560799 237.012062,140.458808 236.896687,140.369178 C236.784422,140.277035 236.659825,140.201191 236.526549,140.14387 C236.396229,140.076985 236.256143,140.031353 236.111546,140.008685 C235.965962,139.997105 235.819694,139.997105 235.67411,140.008685 L208.956884,141.360535 L182.228442,142.667322 C182.124398,142.650867 182.01843,142.650867 181.914386,142.667322 L181.611546,142.757446 C181.512278,142.798866 181.418171,142.851797 181.331138,142.915162 L181.073163,143.106674 L173.917164,149.865921 L166.761165,156.625169 L166.615353,156.737823 C166.56775,156.781629 166.515021,156.819458 166.458325,156.850478 L166.301297,156.940601 L166.121836,157.008193 L136.757563,167.451231 L107.393291,177.939331 C107.242405,177.996256 107.099216,178.071949 106.967071,178.164639 C106.838482,178.254752 106.721667,178.360725 106.619366,178.480071 C106.512936,178.600987 106.425902,178.737811 106.361391,178.885626 C106.285835,179.030613 106.232876,179.186386 106.204363,179.347508 L103.445153,210.057024 L101,257 L319,257 Z" id="Path" fill="#545453"></path>
            <polygon id="Path" fill="#FFFFFF" points="177.134043 257 240 257 239.810106 196.077367 239.597872 150.592379 237.721277 145.796189 235.844681 141 208.544681 143.274249 181.255851 145.53724 179.133511 148.318129 177 151.099018 177.078191 196.437644"></polygon>
            <path d="M180,132 L180,149.892478 L182.238138,153.36751 L184.476276,156.853788 L186.714414,160.32882 L188.952551,163.803852 L193.428827,166.694089 L197.905103,169.57308 L202.381379,172.463317 L206.857654,175.342307 C207.204021,175.567859 207.580915,175.742088 207.976723,175.859626 C208.380926,175.971115 208.800316,176.016679 209.21889,175.994579 C209.634872,175.976938 210.045946,175.897348 210.438675,175.758412 C210.839812,175.613345 211.21703,175.408639 211.557744,175.151125 L216.168308,171.608616 L220.778872,168.066108 L225.389436,164.5236 L230,160.981091 L229.921665,157.393599 L229.83214,153.79486 L229.742614,150.207368 L229.653089,146.619875 L217.17547,142.964907 L204.977619,139.309938 L192.477619,135.677461 L180,132 Z" id="Path" fill="#19A1DB"></path>
            <path d="M180,132 L180,149.892478 L182.238138,153.36751 L184.476276,156.853788 L186.714414,160.32882 L188.952551,163.803852 L193.428827,166.694089 L197.905103,169.57308 L202.381379,172.463317 L206.857654,175.342307 C207.204021,175.567859 207.580915,175.742088 207.976723,175.859626 C208.380926,175.971115 208.800316,176.016679 209.21889,175.994579 C209.634872,175.976938 210.045946,175.897348 210.438675,175.758412 C210.839812,175.613345 211.21703,175.408639 211.557744,175.151125 L216.168308,171.608616 L220.778872,168.066108 L225.389436,164.5236 L230,160.981091 L229.921665,157.393599 L229.83214,153.79486 L229.742614,150.207368 L229.653089,146.619875 L217.17547,142.964907 L204.977619,139.309938 L192.477619,135.677461 L180,132 Z" id="Path" fill="#C8D0D4"></path>
            <path d="M241.602407,59.0523343 L234.018664,56.084055 L226.446073,53.1381777 L218.873483,50.1698983 L211.267434,47.201619 L211.267434,47 L211.200519,47 L211.133604,47 L211.133604,47 L211.066688,47 L210.999773,47 L210.932858,47 L210.865942,47 L210.799027,47 L210.799027,47.201619 L203.226436,50.1586973 L195.653846,53.1381777 L188.081255,56.095256 L180.508665,59.0635354 C180.229372,59.3588529 179.99624,59.6949649 179.817206,60.0604292 C179.153518,61.3246377 178.640672,62.6630827 178.289304,64.0480045 C177.532121,66.8192737 176.998786,69.64738 176.694488,72.5048005 C176.201246,77.2937032 175.970412,82.1062115 176.003029,86.9205572 L176.003029,124.824925 L179.783748,133.931382 L183.57562,143.026638 L187.356339,152.133095 L191.14821,161.228351 L195.06276,162.426864 L198.988462,163.614175 L202.903012,164.812688 L206.817562,166 L215.170832,166 L219.096534,164.812688 L223.011084,163.614175 L226.925634,162.426864 L230.840183,161.228351 L234.632055,152.133095 L238.423926,143.026638 L242.204645,133.931382 L245.996517,124.824925 L245.996517,86.9205572 C246.031924,82.1058685 245.797349,77.2929972 245.293905,72.5048005 C245.009273,69.6466854 244.502139,66.8153578 243.777157,64.0368035 C243.420704,62.6535141 242.908081,61.3156492 242.249256,60.0492282 C242.078728,59.6895244 241.861194,59.3542706 241.602407,59.0523343 Z" id="Path" fill="#C8D0D4"></path>
            <polygon id="Path" fill="#BCC5CB" points="192 58.522466 192.43875 60.1548589 192.8775 61.7872518 193.31625 63.4084639 193.755 65.0408568 203.91375 69.8038662 214.06125 74.5668757 224.20875 79.3298851 234.35625 84.0928945 234.35625 87.4135841 234.35625 90.7342738 234.35625 94.0437827 234.35625 97.3644723 234.35625 102.82069 234.35625 108.265726 234.35625 113.721944 234.35625 119.16698 231.0825 125.439394 227.7975 131.700627 224.52375 137.973041 221.25 144.234274 223.005 146.425705 224.77125 148.617137 226.5375 150.808568 228.30375 153 232.725 145.989655 237.14625 138.96813 241.57875 131.946604 246 124.936259 245.60625 112.279624 245.22375 99.6229885 244.83 86.9663532 244.4475 74.3097179 242.4225 67.2322884 240.40875 60.1548589 238.395 53.0774295 236.37 46 225.2775 49.1306165 214.185 52.261233 203.0925 55.3918495"></polygon>
            <path d="M248.656261,51.4037224 L244.809234,47.6632458 L240.984574,43.9116368 L237.159914,40.1711602 L233.335253,36.4195512 L233.201055,36.2970951 L233.04449,36.1969038 L232.887925,36.1078448 L232.708993,36.0410506 L229.600059,35.0280049 L226.491124,34.0149591 L223.38219,33.0130457 L220.273255,32 L220.15024,32 L220.027225,32 L219.904209,32 L208.049999,32 L207.904617,32 L207.759235,32 L207.613853,32 L207.468472,32 L201.507817,34.3044008 L195.524796,36.6199339 L189.530591,38.9243347 L183.54757,41.2398678 L183.379822,41.306662 L183.23444,41.395721 L183.089058,41.5070447 L182.966043,41.6183684 L180.550468,44.1454166 L178.134893,46.6724648 L175.708134,49.1883806 L173.29256,51.7154288 L173.135995,51.9158114 L173.012979,52.1273265 C172.973463,52.2012263 172.943407,52.279765 172.923513,52.3611063 C172.894814,52.4439657 172.876046,52.5299091 172.867597,52.6171508 L172.386719,56.3130979 L171.905841,59.9979127 L171.424962,63.6938598 L171,67.4120717 L171,67.7571752 L171.469695,72.94486 L171.950573,78.1325448 L172.420269,83.3202296 L172.889964,88.5079144 C172.90862,88.6603746 172.946184,88.8099459 173.001796,88.9532093 C173.058093,89.0984172 173.137378,89.2337176 173.236643,89.3539746 C173.328798,89.4770594 173.442439,89.5826422 173.57214,89.665681 C173.698974,89.7558835 173.838374,89.8271421 173.985919,89.877196 L174.064202,89.877196 L174.142484,89.877196 L174.220767,89.877196 L174.299049,89.877196 C174.441578,89.9259298 174.576963,89.9933147 174.701645,90.0775787 C174.942251,90.2490644 175.134749,90.4790117 175.260806,90.745521 C175.318902,90.8841222 175.356569,91.0303548 175.372638,91.1796834 L175.529203,92.2929205 L175.685768,93.4061576 L175.842333,94.5193947 L175.998898,95.6326318 L176.748174,95.6326318 L177.497449,95.6326318 L178.257908,95.6326318 L179.007184,95.6326318 L179.007184,84.5002609 L179.543978,80.6929901 L180.091956,76.8745869 L180.62875,73.0561837 L181.165545,69.2377805 C181.175788,69.1425231 181.198341,69.0489805 181.232644,68.9594712 C181.265125,68.8684971 181.302455,68.7793115 181.344476,68.6922943 C181.344476,68.6143677 181.445125,68.5364411 181.501041,68.4585145 C181.559291,68.3834568 181.626938,68.3161171 181.702339,68.2581318 L184.006082,66.2543051 L186.321008,64.2616107 L188.62475,62.257784 L190.939676,60.2650896 C191.14229,60.0830336 191.388907,59.9564497 191.655402,59.8977213 C191.909594,59.8422099 192.172853,59.8422099 192.427044,59.8977213 C192.674743,59.968332 192.901285,60.0982885 193.086854,60.276222 C193.288876,60.4590979 193.435982,60.6941695 193.511816,60.9552966 L193.634832,61.3226648 L193.746664,61.690033 L193.869679,62.0685337 L193.981512,62.4359019 C194.030468,62.5777823 194.098161,62.712552 194.182809,62.8366672 C194.257395,62.9589533 194.351876,63.0680521 194.46239,63.159506 C194.573642,63.2574734 194.697802,63.3398709 194.831436,63.4044182 C194.96768,63.4619533 195.110347,63.5030639 195.256398,63.5268742 L202.14526,64.6401113 L209.034122,65.7533484 L215.922984,66.8665855 L222.811846,67.9798226 C222.900276,67.9901283 222.986841,68.0126077 223.06906,68.0466168 C223.153686,68.073255 223.235973,68.1067647 223.315091,68.1468081 C223.39373,68.1884833 223.468569,68.2369071 223.538755,68.291529 C223.607404,68.3450597 223.671036,68.4046764 223.72887,68.4696469 L225.965513,70.9299009 L228.258073,73.3901548 L230.494716,75.8392764 L232.787276,78.2995304 L232.284031,75.4496434 L231.780786,72.6108889 L231.266358,69.7610019 L230.763113,66.911115 C230.729651,66.7233304 230.729651,66.5311486 230.763113,66.3433641 C230.801715,66.1628837 230.869712,65.9899037 230.964411,65.831275 C231.055272,65.6686761 231.176778,65.5250439 231.322274,65.4082449 C231.471445,65.2855202 231.642036,65.1911785 231.825519,65.1299356 L232.742543,64.8070969 L233.67075,64.4953905 L234.598957,64.1725517 L235.515981,63.849713 C235.72077,63.7801686 235.937816,63.7536349 236.153424,63.7717864 C236.359672,63.7825245 236.561464,63.8355857 236.746135,63.9276396 C237.133248,64.1121937 237.428057,64.4458627 237.562509,64.8516264 L238.680831,68.113411 L239.799153,71.3863281 L240.917475,74.6481127 L242.035796,77.9210297 L242.035796,77.987824 L242.035796,78.0546182 L242.035796,78.1214124 L242.035796,78.1882066 L242.740339,82.641155 L243.456065,87.0941033 L244.171791,91.5470517 L244.876334,96 L246.285419,96 L246.509083,94.5193947 L246.732748,93.027657 L246.956412,91.5470517 L247.180076,90.0664463 C247.194282,89.9599386 247.220543,89.8553719 247.258359,89.75474 C247.291619,89.6533873 247.336657,89.5562487 247.392557,89.4652983 C247.449782,89.3726942 247.517307,89.2868041 247.593855,89.2092538 C247.664103,89.1303828 247.74286,89.0594505 247.828703,88.9977387 L247.962902,88.9086798 L248.0971,88.8084884 L248.231299,88.7194295 L248.365497,88.6192381 C248.469225,88.5460423 248.563173,88.4600029 248.645078,88.3631936 C248.728482,88.2683616 248.799845,88.1636726 248.857559,88.0514872 C248.913779,87.9412122 248.958737,87.8255982 248.991758,87.7063837 C249.00255,87.5804456 249.00255,87.4538213 248.991758,87.3278831 L248.991758,52.5392242 C249.002747,52.4318893 249.002747,52.3237203 248.991758,52.2163855 C248.967093,52.114744 248.937232,52.0144221 248.902292,51.9158114 L248.745727,51.6375022 C248.723444,51.5569198 248.693486,51.4786383 248.656261,51.4037224 Z" id="Path" fill="#6C6C6B"></path>
            <path d="M192.390043,161.952422 L195.661083,162.94183 L198.932122,163.931238 L202.203162,164.920646 L205.485481,165.910054 L205.812585,166 L206.150968,166 L206.489351,166 L214.249611,166 L214.587994,166 L214.926378,166 L215.253482,165.910054 L218.524521,164.920646 L221.80684,163.931238 L225.07788,162.94183 L228.360199,161.952422 C228.686319,161.852428 229.000304,161.716678 229.296393,161.547664 C229.593436,161.386478 229.869898,161.190178 230.119792,160.963014 C230.60847,160.506299 230.993114,159.950354 231.247737,159.33274 L234.84588,150.911529 L238.444024,142.490318 L242.042167,134.069108 L245.640311,125.647897 C245.701492,125.504933 245.75422,125.35852 245.798223,125.209409 C245.847706,125.062712 245.885422,124.912329 245.911018,124.759678 C245.911018,124.613516 245.967415,124.45611 245.989974,124.298704 C246.012533,124.141298 245.989974,123.995136 245.989974,123.83773 L245.989974,95.9319291 L244.546205,95.9319291 L243.8356,101.092591 L243.113715,106.242009 L242.40311,111.402671 L241.692505,116.55209 C241.661966,116.7491 241.620545,116.94428 241.568431,117.13674 C241.514627,117.323724 241.450615,117.507638 241.37668,117.68766 C241.306244,117.871189 241.219419,118.048043 241.117253,118.216094 C241.018791,118.387705 240.909538,118.552936 240.790149,118.710798 L239.053114,120.959452 L237.3048,123.208107 L235.567765,125.456761 L233.83073,127.705416 C233.373363,128.313437 232.772945,128.799953 232.082416,129.122068 C231.425346,129.423375 230.707418,129.569578 229.984439,129.549312 C229.259763,129.534031 228.548838,129.349167 227.909021,129.009635 C227.237879,128.654611 226.667553,128.136389 226.250942,127.503037 L225.258351,126.187574 L224.243201,124.680976 L223.22805,123.174377 L222.2129,121.667779 C221.994593,121.351685 221.741069,121.061256 221.457177,120.802047 C221.174953,120.553262 220.864545,120.338183 220.532263,120.16118 C220.201417,119.982071 219.848873,119.84604 219.483274,119.756422 C219.114464,119.663149 218.735805,119.614081 218.355329,119.61026 L202.891208,119.61026 C202.537942,119.611216 202.185961,119.652714 201.842219,119.733936 C201.163333,119.894503 200.528038,120.201537 199.981111,120.633398 C199.705324,120.855783 199.455596,121.108482 199.236667,121.386697 L198.187679,122.70216 L197.14997,124.028866 L196.100981,125.344329 L195.063272,126.659791 C194.583601,127.279802 193.949855,127.764245 193.224722,128.0652 C191.836583,128.656831 190.246629,128.539435 188.961091,127.750389 C188.291183,127.343908 187.739141,126.770386 187.35941,126.086384 L185.171197,122.241185 L182.982985,118.40723 L180.794772,114.562031 L178.617839,110.784291 C178.512564,110.604399 178.422328,110.424507 178.347132,110.244614 C178.279455,110.053479 178.211779,109.873586 178.155381,109.682451 C178.098984,109.491315 178.076425,109.288936 178.042587,109.086557 C178.031047,108.888093 178.031047,108.689128 178.042587,108.490664 L178.042587,95.3023058 L176.858245,95.3023058 L176.463464,95.3023058 C176.270743,95.3044568 176.079364,95.2701191 175.899492,95.2011164 L175.425755,95.0324673 C175.328885,94.9891776 175.21808,94.9891776 175.12121,95.0324673 C175.042254,95.0324673 175.008416,95.1786298 175.008416,95.3810087 L175.008416,123.815244 C174.997195,123.968698 174.997195,124.122763 175.008416,124.276218 C175.019087,124.427667 175.041716,124.578043 175.076092,124.725949 C175.076092,124.883354 175.143769,125.029517 175.188887,125.175679 C175.229655,125.322178 175.282471,125.465077 175.346799,125.602924 L178.877266,134.024135 L182.396453,142.434102 L185.92692,150.855313 L189.457387,159.26528 C189.588708,159.582584 189.755172,159.884274 189.953683,160.164742 C190.154924,160.440017 190.381495,160.695974 190.630449,160.929284 C190.882371,161.153933 191.158528,161.350017 191.453849,161.513934 C191.749855,161.691987 192.063601,161.838937 192.390043,161.952422 L192.390043,161.952422 Z" id="Path" fill="#6C6C6B"></path>
            <polygon id="Path" fill="#4E4E4D" points="201.411879 193.43523 201.411879 195.418812 200.717624 198.168777 200.012171 200.918742 199.351509 220.833449 198.780428 257 220 257 218.857838 220.585502 217.514119 200.411576 216.114411 197.413664 214.714703 194.40448 214.714703 192.420899 217.26777 186.368721 219.832035 180.327814 211.456183 176 208.444012 176 197 182.333936 199.20594 187.890218"></polygon>
            <polygon id="Path" fill="#0097D7" points="166 2 145.155466 2 141 2 141 6.15546595 141 27 145.155466 27 145.155466 6.15546595 166 6.15546595"></polygon>
            <polygon id="Path" fill="#0099DA" points="146.787994 30 138 30 138 0 168 0 168 8.78799392 146.787994 8.78799392"></polygon>
            <polygon id="Path" fill="#0097D7" points="141 160 141 180.842671 141 185 145.155466 185 166 185 166 180.842671 145.155466 180.842671 145.155466 160"></polygon>
            <polygon id="Path" fill="#0099DA" points="168 187 138 187 138 157 146.787994 157 146.787994 178.208666 168 178.208666"></polygon>
            <polygon id="Path" fill="#0097D7" points="281 27 281 6.15546595 281 2 276.833333 2 256 2 256 6.15546595 276.833333 6.15546595 276.833333 27"></polygon>
            <polygon id="Path" fill="#0099DA" points="284 30 275.212006 30 275.212006 8.78799392 254 8.78799392 254 0 284 0"></polygon>
            <polygon id="Path" fill="#0097D7" points="256 185 276.833333 185 281 185 281 180.842671 281 160 276.833333 160 276.833333 180.842671 256 180.842671"></polygon>
            <polygon id="Path" fill="#0099DA" points="284 187 254 187 254 178.208666 275.212006 178.208666 275.212006 157 284 157"></polygon>
        </g>
    </g>
</svg>