<?xml version="1.0" encoding="UTF-8"?>
<svg width="440px" height="330px" viewBox="0 0 440 330" version="1.1" xmlns="http://www.w3.org/2000/svg" xmlns:xlink="http://www.w3.org/1999/xlink">
    <title>Graphic elements / Icons / Rich icons / Decision making</title>
    <g id="Graphic-elements-/-Icons-/-Rich-icons-/-Decision-making" stroke="none" stroke-width="1" fill="none" fill-rule="evenodd">
        <g id="Decide" transform="translate(58.000000, 0.000000)" fill-rule="nonzero">
            <polygon id="Path" fill="#023852" opacity="0.2" style="mix-blend-mode: multiply;" points="304.49 30.93 298.25 24.42 292.02 17.91 260.3 17.91 228.58 17.91 198.62 17.91 168.67 17.91 168.67 12.8 168.67 7.69 165.01 7.69 161.35 7.69 157.69 7.69 154.03 7.69 154.03 39.69 154.03 71.69 123.27 71.69 92.51 71.69 58.98 71.69 25.44 71.69 19.08 77.75 12.72 83.82 6.36 89.88 0 95.94 6.36 102.58 12.72 109.22 19.08 115.86 25.44 122.5 58.98 122.5 92.51 122.5 123.27 122.5 154.03 122.5 154.03 147.3 154.03 172.09 154.03 248.8 154.03 325.5 157.69 325.5 161.35 325.5 165.01 325.5 168.67 325.5 168.67 250.79 168.67 176.08 188.56 176.08 208.45 176.08 230.39 176.08 252.33 176.08 258.56 170.14 264.8 164.19 271.03 158.25 277.27 152.31 271.03 145.8 264.8 139.29 258.56 132.78 252.33 126.28 229.96 126.28 207.58 126.28 188.12 126.28 168.67 126.28 168.67 97 168.67 67.72 198.62 67.72 228.58 67.72 260.3 67.72 292.02 67.72 298.25 61.78 304.49 55.83 310.72 49.89 316.96 43.95 310.72 37.44"></polygon>
            <path d="M59.39,103.27 L59.07,102.05 L58.74,100.83 L58.42,99.61 L58.1,98.39 L49.63,98.39 L49.3,99.61 L48.98,100.83 L48.65,102.05 L48.32,103.27 L40.58,103.27 L42.7,96.73 L44.83,90.2 L47,83.67 L49.12,77.13 L58.52,77.13 L60.67,83.67 L62.82,90.2 L64.98,96.73 L67.13,103.27 L59.43,103.27 L59.39,103.27 Z M56.64,92.62 L56.36,91.55 L56.08,90.48 L55.8,89.42 L55.52,88.35 C55.45,88.11 55.38,87.85 55.31,87.58 L55.08,86.71 C55,86.41 54.92,86.08 54.83,85.71 L54.57,84.63 C54.47,84.25 54.39,83.9 54.31,83.63 C54.23,83.36 54.16,83.01 54.1,82.74 C54.04,82.47 53.98,82.23 53.94,82.01 C53.9,81.79 53.85,81.6 53.82,81.44 C53.82,81.59 53.76,81.77 53.72,81.97 C53.68,82.17 53.64,82.39 53.59,82.64 C53.54,82.89 53.47,83.17 53.41,83.46 L53.19,84.46 C53.11,84.81 53.01,85.24 52.88,85.76 C52.75,86.28 52.61,86.87 52.43,87.56 C52.25,88.25 52.06,89.01 51.84,89.86 C51.62,90.71 51.37,91.65 51.1,92.67 L56.64,92.67 L56.64,92.62 Z" id="Shape" fill="#0099DA"></path>
            <polygon id="Path" fill="#0099DA" points="165.34 60.03 200.48 60.03 235.62 60.03 267.34 60.03 299.06 60.03 305.3 54.09 311.53 48.14 317.77 42.2 324 36.26 317.77 29.75 311.53 23.24 305.3 16.73 299.06 10.22 267.34 10.22 235.62 10.22 200.48 10.22 165.34 10.22 165.34 22.68 165.34 35.13 165.34 47.58"></polygon>
            <polygon id="Path" fill="#FFE700" points="166.63 64 133.09 64 99.55 64 66.02 64 32.48 64 26.12 70.06 19.76 76.13 13.4 82.19 7.04 88.25 13.4 94.89 19.76 101.53 26.12 108.17 32.48 114.81 66.02 114.81 99.55 114.81 133.09 114.81 166.63 114.81 166.63 102.11 166.63 89.41 166.63 76.7"></polygon>
            <polygon id="Path" fill="#023852" points="161.07 328.8 164.73 328.8 168.39 328.8 172.05 328.8 175.71 328.8 175.71 246.6 175.71 164.4 175.71 82.2 175.71 0 172.05 0 168.39 0 164.73 0 161.07 0 161.07 82.2 161.07 164.4 161.07 246.6"></polygon>
            <path d="M260.71,19.7 L269.81,19.7 C270.69,19.7 271.52,19.7 272.29,19.8 C273.011687,19.8548662 273.729568,19.9516966 274.44,20.09 C275.051763,20.2109823 275.653484,20.378127 276.24,20.59 C276.748614,20.7662064 277.237836,20.9940629 277.7,21.27 C278.108035,21.5240551 278.484064,21.8262211 278.82,22.17 C279.141358,22.5033579 279.414048,22.8804113 279.63,23.29 C279.844772,23.7116101 280.006021,24.1584044 280.11,24.62 C280.221596,25.1323657 280.275266,25.6556485 280.27,26.18 C280.272599,26.5312475 280.249202,26.8822058 280.2,27.23 C280.153188,27.5677848 280.08302,27.9019188 279.99,28.23 C279.90034,28.5365902 279.783199,28.8344646 279.64,29.12 C279.366833,29.6881638 278.994308,30.2029256 278.54,30.64 C278.331489,30.8546092 278.100111,31.0457477 277.85,31.21 C277.343495,31.5460861 276.781489,31.7898476 276.19,31.93 L276.19,32.11 C276.573233,32.2122934 276.950482,32.3358174 277.32,32.48 C277.665516,32.6171985 277.999855,32.7810245 278.32,32.97 C278.602667,33.1355172 278.867415,33.3298892 279.11,33.55 C279.343495,33.7610657 279.554611,33.9956388 279.74,34.25 C279.923205,34.5020385 280.083827,34.7697421 280.22,35.05 C280.357258,35.3472867 280.470941,35.6549004 280.56,35.97 C280.653369,36.2974323 280.720251,36.6318438 280.76,36.97 C280.809451,37.3479449 280.832839,37.7288443 280.83,38.11 C280.835913,38.6745762 280.778895,39.2380532 280.66,39.79 C280.555478,40.305402 280.387533,40.805877 280.16,41.28 C279.934693,41.7440595 279.656153,42.1803264 279.33,42.58 C278.98473,42.9944627 278.592049,43.3670068 278.16,43.69 C277.710473,44.0385183 277.224263,44.3369507 276.71,44.58 C276.165077,44.8471437 275.595808,45.0614565 275.01,45.22 C274.377705,45.3974108 273.732355,45.5244746 273.08,45.6 C272.356919,45.6905399 271.628716,45.7339649 270.9,45.7302488 L260.71,45.7302488 L260.71,19.73 L260.71,19.7 Z M267.76,29.7 L269.88,29.7 C270.13,29.7 270.37,29.7 270.59,29.7 C270.802352,29.673523 271.012784,29.6334405 271.22,29.58 C271.407777,29.5303449 271.591614,29.4668375 271.77,29.39 C271.930419,29.3145579 272.081448,29.2205842 272.22,29.11 C272.357745,29.0095781 272.482086,28.8919579 272.59,28.76 C272.693689,28.6312815 272.781021,28.4902058 272.85,28.34 C272.917736,28.1791768 272.968024,28.011551 273,27.84 C273.037756,27.6490669 273.054523,27.4545778 273.05,27.26 C273.060393,26.9157824 272.991985,26.573742 272.85,26.26 C272.703743,25.9816701 272.486372,25.7470471 272.22,25.58 C271.914236,25.3839215 271.575406,25.2450009 271.22,25.17 C270.739579,25.0723362 270.250226,25.0254121 269.76,25.03 L267.76,25.03 L267.76,29.7 L267.76,29.7 Z M267.76,34.84 L267.76,40.3 L270.23,40.3 C270.718616,40.3056106 271.205932,40.248477 271.68,40.13 C272.046807,40.0254032 272.387515,39.8448281 272.68,39.6 C272.952506,39.3670755 273.165128,39.0721488 273.3,38.74 C273.438323,38.3483694 273.50604,37.9352967 273.5,37.52 C273.516092,37.316985 273.516092,37.113015 273.5,36.91 C273.464566,36.7239913 273.407512,36.5427617 273.33,36.37 C273.25963,36.2059592 273.168919,36.0514144 273.06,35.91 C272.947932,35.7661461 272.816716,35.6382947 272.67,35.53 C272.518223,35.4094405 272.35395,35.3055124 272.18,35.22 C271.99017,35.132103 271.792675,35.0618083 271.59,35.01 C271.364908,34.9437784 271.133758,34.9002285 270.9,34.88 C270.637913,34.8474461 270.3741,34.8307491 270.11,34.83 L267.78,34.83 L267.76,34.84 Z" id="Shape" fill="#FFFFFF"></path>
            <polygon id="Path" fill="#023852" points="171.6 168.39 193.55 168.39 215.49 168.39 237.43 168.39 259.37 168.39 265.61 162.45 271.84 156.5 278.08 150.56 284.31 144.62 278.08 138.11 271.84 131.6 265.61 125.09 259.37 118.58 237 118.58 214.62 118.58 192.25 118.58 169.88 118.58 170.31 131.04 170.74 143.49 171.17 155.94"></polygon>
            <path d="M232.32,139.26 C231.926212,139.256544 231.533424,139.300187 231.15,139.39 C230.801156,139.471321 230.464815,139.59913 230.15,139.77 C229.821498,139.936016 229.518429,140.148164 229.25,140.4 C228.966121,140.665498 228.711348,140.960498 228.49,141.28 C228.254691,141.629797 228.053756,142.001526 227.89,142.39 C227.70604,142.809803 227.558822,143.244765 227.45,143.69 C227.333192,144.180933 227.246365,144.67852 227.19,145.18 C227.131934,145.738063 227.105225,146.298945 227.11,146.86 C227.09104,147.950372 227.20862,149.038831 227.46,150.1 C227.649972,150.933155 228.007194,151.719042 228.51,152.41 C228.970565,153.011396 229.5761,153.486191 230.27,153.79 C231.05266,154.112505 231.893714,154.269139 232.74,154.25 C233.02,154.25 233.3,154.25 233.58,154.25 L234.41,154.17 C234.69,154.17 234.96,154.08 235.23,154.02 C235.5,153.96 235.77,153.89 236.03,153.81 L236.83,153.56 C237.1,153.48 237.37,153.38 237.63,153.29 L238.44,152.99 L239.24,152.67 L239.24,158.52 C238.70466,158.763758 238.153393,158.970901 237.59,159.14 C237.008839,159.32284 236.417919,159.473074 235.82,159.59 C235.22,159.7 234.6,159.79 233.96,159.85 C233.32,159.91 232.66,159.94019 231.96,159.94019 C231.045804,159.944352 230.132776,159.874119 229.23,159.73 C228.411207,159.599539 227.607304,159.388514 226.83,159.1 C226.111265,158.844748 225.423591,158.509297 224.78,158.1 C223.504781,157.247624 222.452119,156.102382 221.71,154.76 C221.300519,154.049711 220.965412,153.29907 220.71,152.52 C220.442344,151.664794 220.248304,150.788268 220.13,149.9 C219.99418,148.905814 219.927354,147.903417 219.929924,146.9 C219.929924,146.23 219.929924,145.59 220.03,144.97 C220.086028,144.361483 220.179539,143.757002 220.31,143.16 C220.430136,142.58714 220.587129,142.022632 220.78,141.47 C220.9638,140.936907 221.180894,140.415882 221.43,139.91 C221.674223,139.416396 221.955006,138.94174 222.27,138.49 C222.569635,138.047457 222.904025,137.62947 223.27,137.24 C223.632272,136.857762 224.019811,136.500291 224.43,136.17 C225.277657,135.499035 226.221589,134.959645 227.23,134.57 C227.745664,134.35818 228.277335,134.187643 228.82,134.06 C229.385191,133.917912 229.96008,133.817641 230.54,133.76 C231.150646,133.687283 231.76504,133.650553 232.38,133.65 C233.749389,133.654328 235.114189,133.80858 236.45,134.11 C237.127222,134.256677 237.795079,134.443677 238.45,134.67 C239.104972,134.895366 239.746084,135.159157 240.37,135.46 L239.84,136.82 L239.31,138.18 L238.77,139.54 L238.24,140.91 L237.53,140.59 C237.3,140.48 237.06,140.39 236.82,140.29 L236.11,140.03 C235.88,139.94 235.64,139.86 235.4,139.79 C235.164467,139.708186 234.923985,139.641386 234.68,139.59 C234.433333,139.53 234.183333,139.48 233.93,139.44 L233.15,139.36 C232.86,139.27 232.59,139.26 232.32,139.26 Z" id="Path" fill="#FFFFFF"></path>
            <path d="M62.21,100.86 L61.61,98.58 L61.01,96.29 L53.09,96.29 L52.47,98.58 L51.86,100.86 L44.62,100.86 L48.62,88.63 L52.62,76.41 L61.41,76.41 L65.41,88.63 L69.41,100.86 L62.2,100.86 L62.21,100.86 Z M59.64,90.86 L59.12,88.86 L58.59,86.86 C58.47,86.42 58.33,85.86 58.19,85.34 L57.7,83.42 C57.53,82.71 57.38,82.11 57.26,81.6 C57.14,81.09 57.06,80.69 57.01,80.39 C56.96,80.67 56.88,81.04 56.79,81.51 C56.7,81.98 56.56,82.51 56.42,83.18 C56.28,83.85 56.03,84.8 55.71,86.08 C55.39,87.36 55,89 54.46,90.9 L59.64,90.9 L59.64,90.86 Z" id="Shape" fill="#023852"></path>
            <path d="M147.27,298.629995 L193.1,298.629995 C198.547017,298.625673 203.653432,301.279665 206.78,305.74 L215.29,317.87 L223.79,330 L116.58,330 L125.09,317.87 L133.6,305.74 C136.724541,301.282559 141.826515,298.628936 147.27,298.629995 L147.27,298.629995 Z" id="Path" fill="#9DADB7"></path>
            <path d="M247.4,308.819982 L256.34,308.819982 C258.149937,308.821536 259.933121,309.257044 261.54,310.09 C263.132463,310.935614 264.502928,312.145049 265.54,313.62 L271.28,321.81 L277.02,330 L226.69,330 L232.43,321.81 L238.17,313.62 C239.207072,312.145049 240.577537,310.935614 242.17,310.09 C243.785884,309.25237 245.579919,308.816725 247.4,308.819982 L247.4,308.819982 Z" id="Path" fill="#9DADB7"></path>
            <path d="M71.86,308.819976 L80.79,308.819976 C84.4652855,308.819277 87.9100535,310.610706 90.02,313.62 L95.76,321.81 L101.51,330 L51.14,330 L56.88,321.81 L62.63,313.62 C64.7353197,310.60543 68.1830517,308.81246 71.86,308.819976 L71.86,308.819976 Z" id="Path" fill="#9DADB7"></path>
        </g>
    </g>
</svg>