<?xml version="1.0" encoding="UTF-8"?>
<svg width="440px" height="330px" viewBox="0 0 440 330" version="1.1" xmlns="http://www.w3.org/2000/svg" xmlns:xlink="http://www.w3.org/1999/xlink">
    <title>Graphic elements / Icons / Rich icons / deployment-device</title>
    <defs>
        <linearGradient x1="48.1754447%" y1="47%" x2="50.1754447%" y2="47%" id="linearGradient-1">
            <stop stop-color="#FFFFFF" offset="17%"></stop>
            <stop stop-color="#322A2D" offset="100%"></stop>
        </linearGradient>
    </defs>
    <g id="Graphic-elements-/-Icons-/-Rich-icons-/-deployment-device" stroke="none" stroke-width="1" fill="none" fill-rule="evenodd">
        <g id="Deploy" transform="translate(51.000000, 0.000000)" fill-rule="nonzero">
            <path d="M64.6499664,323.63 L64.6499664,15.46 C64.6499664,14.6083523 64.8204904,13.76532 65.15,12.98 C65.4774151,12.2334356 65.9421379,11.5550082 66.52,10.98 C67.7002533,9.77588528 69.3139206,9.09511938 71,9.09 L254.65,9.09 C256.336778,9.09 257.953416,9.76526246 259.144273,10.9598696 C260.335129,12.1544768 261.002654,13.7732225 261.000008,15.46 L261.000008,323.63 C261.000008,324.481755 260.830541,325.324997 260.5,326.11 C259.844936,327.63183 258.63183,328.844936 257.11,329.5 C256.324997,329.830541 255.481755,330.000001 254.63,330.000001 L71,330.000001 C70.1482452,330.000001 69.3050029,329.830541 68.52,329.5 C67.7700579,329.178698 67.0905286,328.71322 66.52,328.13 C65.3182873,326.94156 64.6444847,325.32011 64.6499664,323.63 Z" id="Path" fill="#023852" opacity="0.2" style="mix-blend-mode: multiply;"></path>
            <path d="M73.7399921,314.54 L73.7399921,6.37 C73.7373403,4.679757 74.4076092,3.05797677 75.602793,1.862793 C76.7979768,0.667609227 78.419757,-7.88540467e-06 80.11,-7.88540467e-06 L263.739992,-7.88540467e-06 C264.591755,-7.88540467e-06 265.434997,0.16945941 266.22,0.499992115 C266.969942,0.8213025 267.649471,1.28678007 268.22,1.87 C268.80322,2.44052863 269.268698,3.12005793 269.59,3.87 C269.920541,4.65500285 270.090001,5.49824519 270.090001,6.35 L270.090001,314.54 C270.090001,315.391648 269.91951,316.23468 269.59,317.02 C268.595211,319.380427 266.281485,320.913714 263.72,320.910007 L80.11,320.910007 C79.2583523,320.910007 78.41532,320.73951 77.63,320.41 C76.1081704,319.754936 74.8950639,318.54183 74.2399921,317.02 C73.9104904,316.23468 73.7399921,315.391648 73.7399921,314.54 Z" id="Path" fill="#023852"></path>
            <polygon id="Path" fill="#0099DA" points="85.84 13.86 85.84 82.2 85.84 150.55 85.84 218.89 85.84 287.23 128.88 287.23 171.93 287.23 214.97 287.23 258.02 287.23 258.02 218.89 258.02 150.55 258.02 82.2 258.02 13.86 214.97 13.86 171.93 13.86 128.88 13.86"></polygon>
            <polygon id="Path" fill="#4E7486" points="258.1 30 215.01 30 171.93 30 128.84 30 85.75 30 85.75 25.97 85.75 21.93 85.75 17.9 85.75 13.86 128.84 13.86 171.93 13.86 215.01 13.86 258.1 13.86 258.1 17.9 258.1 21.93 258.1 25.97"></polygon>
            <path d="M171.93,311.000039 C174.971794,310.995059 177.710207,309.155756 178.865275,306.341799 C180.020344,303.527842 179.363925,300.295033 177.202835,298.15442 C175.041744,296.013807 171.802833,295.388194 169,296.57 C167.198674,297.334573 165.764573,298.768674 165,300.57 C163.803808,303.384514 164.441395,306.643727 166.61,308.8 C168.014473,310.214079 169.926981,311.006456 171.92,311.000039 L171.93,311.000039 Z" id="Path" fill="#4E7486"></path>
            <path d="M104.399956,75.39 L104.399956,48 C104.397827,47.6050301 104.476083,47.2137519 104.63,46.85 C104.776789,46.4961877 104.994614,46.1762571 105.27,45.91 C105.534398,45.6369943 105.850556,45.4194229 106.2,45.27 C106.564469,45.118423 106.955268,45.0399382 107.35,45.0399382 L238.67,45.0399382 C239.455763,45.0348721 240.209971,45.3488248 240.76,45.91 C241.035473,46.1741148 241.25041,46.4948142 241.39,46.85 C241.547082,47.2131159 241.63,47.6043661 241.63,48 L241.63,75.39 C241.63,75.7856339 241.547082,76.1768841 241.39,76.54 C241.245424,76.8925511 241.031141,77.2122749 240.76,77.48 C240.491412,77.7500959 240.171912,77.9642285 239.82,78.11 C239.456884,78.2670816 239.065634,78.3487339 238.67,78.35 L107.35,78.35 C106.954596,78.3465704 106.563771,78.2650068 106.2,78.11 C105.851147,77.9640127 105.534964,77.7498238 105.27,77.48 C104.998688,77.2103355 104.781453,76.8912709 104.63,76.54 C104.476083,76.1762481 104.397827,75.7849699 104.399956,75.39 Z" id="Path" fill="#33ADE1"></path>
            <path d="M104.399938,190 L104.399938,92.6 C104.394872,91.8142373 104.708825,91.0600289 105.27,90.51 C105.534398,90.2369943 105.850556,90.0194229 106.2,89.87 C106.564469,89.718423 106.955268,89.6399382 107.35,89.6399382 L238.67,89.6399382 C239.455763,89.6348721 240.209971,89.9488248 240.76,90.51 C241.033347,90.775894 241.247956,91.0961052 241.39,91.45 C241.547082,91.8131159 241.63,92.2043661 241.63,92.6 L241.63,190 C241.63,190.395634 241.547082,190.786884 241.39,191.15 C241.245424,191.502551 241.031141,191.822275 240.76,192.09 C240.491412,192.360096 240.171912,192.574229 239.82,192.72 C239.456884,192.877082 239.065634,192.958734 238.67,192.96 L107.35,192.96 C106.954596,192.95657 106.563771,192.875007 106.2,192.72 C105.851147,192.574013 105.534964,192.359824 105.27,192.09 C104.998688,191.820335 104.781453,191.501271 104.63,191.15 C104.476083,190.786248 104.397827,190.39497 104.399938,190 Z" id="Path" fill="#33ADE1"></path>
            <path d="M121.92,258.4 C121.919705,260.671355 123.056789,262.791965 124.948833,264.048636 C126.840878,265.305308 129.236494,265.531071 131.33,264.65 C132.954737,263.958551 134.248551,262.664737 134.94,261.04 C135.298819,260.206243 135.482614,259.307687 135.480028,258.4 C135.476334,255.675024 133.841611,253.217032 131.33,252.16 C129.647083,251.440127 127.742917,251.440127 126.06,252.16 C124.43888,252.85169 123.146184,254.140805 122.45,255.76 C122.100918,256.596424 121.920792,257.493655 121.92,258.4 Z M123.92,258.4 C123.921305,257.760857 124.050509,257.128438 124.3,256.54 C124.792375,255.395008 125.705008,254.482375 126.85,253.99 C128.038194,253.483089 129.381806,253.483089 130.57,253.99 C131.137573,254.21999 131.654126,254.559828 132.09,254.99 C132.513489,255.431244 132.852433,255.946439 133.09,256.51 C133.583348,257.700929 133.583348,259.039071 133.09,260.23 C132.852433,260.793561 132.513489,261.308756 132.09,261.75 C131.654126,262.180172 131.137573,262.52001 130.57,262.75 C129.381806,263.256911 128.038194,263.256911 126.85,262.75 C125.705008,262.257625 124.792375,261.344992 124.3,260.2 C124.054787,259.630877 123.922339,259.019579 123.91,258.4 L123.92,258.4 Z" id="Shape" fill="#33ADE1"></path>
            <polygon id="Path" fill="#33ADE1" points="142.66 242.18 157 242.18 157 227.87 142.7 227.87 142.7 242.18"></polygon>
            <path d="M73.63,219.58 L135.14,219.58 C138.713282,219.58 141.610008,216.683282 141.610008,213.11 L141.610008,32.91 C141.612668,31.1941505 140.931546,29.5479558 139.717318,28.3356043 C138.50309,27.1232527 136.855843,26.4446775 135.14,26.4499689 L80.14,26.4499689 C78.4241567,26.4446775 76.7769104,27.1232527 75.5626822,28.3356043 C74.3484539,29.5479558 73.6673315,31.1941505 73.67,32.91 L73.67,219.58 L73.63,219.58 Z" id="Path" fill="#023852" opacity="0.2" style="mix-blend-mode: multiply;"></path>
            <path d="M12.09,204.32 L12.09,22.89 C12.09,22.3849048 12.193045,21.885114 12.39,21.42 C12.5778886,20.9673711 12.8531321,20.5562048 13.2,20.21 C13.5479829,19.8653011 13.9586987,19.5903591 14.41,19.4 C14.875114,19.203045 15.3749048,19.1 15.88,19.1 L130.47,19.1 C130.975095,19.1 131.474886,19.203045 131.94,19.4 C132.842164,19.7800574 133.559943,20.4978357 133.94,21.4 C134.136955,21.865114 134.24,22.3649048 134.24,22.87 L134.24,204.32 C134.24,204.825095 134.136955,205.324886 133.94,205.79 C133.749641,206.241301 133.474699,206.652017 133.13,207 C132.783795,207.346868 132.372629,207.622111 131.92,207.81 C131.454886,208.006955 130.955095,208.11 130.45,208.11 L15.88,208.11 C15.3749048,208.11 14.875114,208.006955 14.41,207.81 C13.5078357,207.429943 12.7900574,206.712164 12.41,205.81 C12.2035477,205.340123 12.0946805,204.83321 12.09,204.32 Z" id="Path" fill="#FFFFFF"></path>
            <path d="M89.81,195.590007 L56.55,195.590007 C53.8100816,195.593283 51.1795568,194.515199 49.23,192.59 C48.2784797,191.638354 47.5210903,190.51076 47,189.27 C46.4614335,188.005072 46.1825789,186.644806 46.18,185.27 L46.18,184.66 C46.1855127,178.940615 50.820615,174.305513 56.54,174.3 L89.8,174.3 C91.1749173,174.301486 92.535399,174.580385 93.8,175.12 C96.2805595,176.170881 98.2536268,178.147536 99.3,180.63 C99.8396148,181.894601 100.118514,183.255083 100.12,184.63 L100.12,185.24 C100.117421,186.614806 99.8385665,187.975072 99.3,189.24 C98.2577745,191.722922 96.2829225,193.697775 93.8,194.74 C92.5406395,195.288601 91.1836084,195.577693 89.81,195.590007 L89.81,195.590007 Z" id="Path" fill="#081935" opacity="0.2" style="mix-blend-mode: multiply;"></path>
            <path d="M89.81,192.42 L56.55,192.42 C50.830615,192.414487 46.1955127,187.779385 46.1899474,182.06 L46.1899474,181.45 C46.1812679,178.709015 47.2601702,176.076493 49.19,174.13 C51.1327649,172.194549 53.7677256,171.114648 56.51,171.129839 L89.77,171.129839 C91.143771,171.132903 92.5033278,171.408214 93.77,171.94 C94.9951757,172.468973 96.110926,173.22185 97.06,174.16 C98.0005602,175.105019 98.750822,176.221925 99.27,177.45 C99.8096148,178.714601 100.088514,180.075083 100.090007,181.45 L100.090007,182.06 C100.093283,184.799918 99.0151992,187.430443 97.09,189.38 C96.1463335,190.324726 95.02925,191.078503 93.8,191.6 C92.5384971,192.138299 91.1815491,192.41717 89.81,192.42 Z" id="Path" fill="#FFE700"></path>
            <polygon id="Path" fill="#9DADB7" points="25.34 33.25 73.18 33.25 121.01 33.25 121.01 87.45 121.01 141.64 73.18 141.64 25.34 141.64 25.34 87.45"></polygon>
            <path d="M90.4,70.18 L90.8,69.99 L91.21,69.8 L91.62,69.62 L92.02,69.43 L92.18,69.37 C92.2365639,69.3651746 92.2934361,69.3651746 92.35,69.37 L92.52,69.37 L92.69,69.37 L92.81,69.37 L92.94,69.37 L93.06,69.37 L93.18,69.37 C93.3419874,69.3879718 93.4985565,69.439027 93.64,69.52 C93.7744426,69.6013321 93.8930268,69.7063638 93.99,69.83 C94.0816153,69.9581072 94.1524834,70.0998435 94.2,70.25 C94.2305111,70.4085454 94.2305111,70.5714546 94.2,70.73 L94,72.62 L93.76,74.48 L93.51,76.34 L93.27,78.19 C93.2748043,78.2699279 93.2748043,78.3500721 93.27,78.43 C93.2407687,78.5018807 93.207379,78.5719992 93.17,78.64 C93.1291198,78.7105356 93.0822825,78.777446 93.03,78.84 C92.9782856,78.8983618 92.921386,78.9519143 92.86,79 L92.32,79.41 L91.79,79.82 L91.26,80.23 L90.72,80.64 C90.6572398,80.6890658 90.5903195,80.7325639 90.52,80.77 L90.3,80.85 C90.2202901,80.8596348 90.1397099,80.8596348 90.06,80.85 C89.9806935,80.8648973 89.8993065,80.8648973 89.82,80.85 L89.62,80.85 L89.52,80.85 L89.41,80.85 C89.2473419,80.8286704 89.0907847,80.7742157 88.95,80.69 C88.8108665,80.6108555 88.6912625,80.5015034 88.6,80.37 C88.5006225,80.2429777 88.4290736,80.096473 88.39,79.94 C88.359883,79.778055 88.359883,79.611945 88.39,79.45 L88.74,77.36 L89.09,75.27 L89.44,73.19 L89.79,71.1 C89.8012903,71.0029427 89.8283105,70.9083718 89.87,70.82 C89.9101796,70.7280269 89.9604905,70.6408213 90.02,70.56 C90.0814971,70.4852525 90.1483395,70.4150681 90.22,70.35 C90.2746661,70.2879394 90.3349194,70.2310335 90.4,70.18 Z" id="Path" fill="#0099DA"></path>
            <path d="M56.17,70.18 L55.76,69.99 L55.36,69.8 L54.95,69.62 L54.54,69.43 L54.39,69.37 C54.3334361,69.3651746 54.2765639,69.3651746 54.22,69.37 L54.05,69.37 L53.88,69.37 L53.76,69.37 L53.63,69.37 L53.51,69.37 L53.38,69.37 C53.2211419,69.3878951 53.0678235,69.4390012 52.93,69.52 C52.7936646,69.5987327 52.6746215,69.704171 52.58,69.83 C52.3810363,70.0849285 52.2943901,70.4098519 52.34,70.73 L52.58,72.59 L52.82,74.45 L53.07,76.31 L53.31,78.16 C53.3051957,78.2399279 53.3051957,78.3200721 53.31,78.4 C53.3392313,78.4718807 53.372621,78.5419992 53.41,78.61 C53.4508802,78.6805356 53.4977175,78.747446 53.55,78.81 C53.6017144,78.8683618 53.658614,78.9219143 53.72,78.97 L54.26,79.38 L54.79,79.79 L55.32,80.2 L55.86,80.61 C55.9227602,80.6590658 55.9896805,80.7025639 56.06,80.74 L56.28,80.82 C56.3597099,80.8296348 56.4402901,80.8296348 56.52,80.82 C56.5959493,80.8348319 56.6740507,80.8348319 56.75,80.82 L57,80.82 L57.1,80.82 L57.21,80.82 C57.3726581,80.7986704 57.5292153,80.7442157 57.67,80.66 C57.8091335,80.5808555 57.9287375,80.4715034 58.02,80.34 C58.1193775,80.2129777 58.1909264,80.066473 58.23,79.91 C58.260117,79.748055 58.260117,79.581945 58.23,79.42 L57.88,77.33 L57.53,75.24 L57.18,73.16 L56.83,71.07 C56.8187097,70.9729427 56.7916895,70.8783718 56.75,70.79 C56.7098204,70.6980269 56.6595095,70.6108213 56.6,70.53 C56.5377004,70.4527014 56.4672986,70.3822996 56.39,70.32 C56.3230917,70.2639309 56.2491297,70.2168641 56.17,70.18 L56.17,70.18 Z" id="Path" fill="#0099DA"></path>
            <path d="M56.87,71.06 C56.8506055,70.9635842 56.8204153,70.8696591 56.78,70.78 C56.7424815,70.6897863 56.6919446,70.605558 56.63,70.53 C56.5711266,70.4529709 56.5040673,70.3825587 56.43,70.32 C56.3520331,70.2536739 56.2643448,70.1997119 56.17,70.16 L55.77,69.97 L55.36,69.79 L55,69.6 L54.6,69.42 L54.44,69.36 L54.27,69.36 L54.1,69.36 C54.0471363,69.3499901 53.9928637,69.3499901 53.94,69.36 L53.81,69.36 L53.69,69.36 L53.56,69.36 L53.44,69.36 C53.2773419,69.3813296 53.1207847,69.4357843 52.98,69.52 C52.8460095,69.5978119 52.7273892,69.6994865 52.63,69.82 C52.5403348,69.9492725 52.4696188,70.0907043 52.42,70.24 C52.3894889,70.3985454 52.3894889,70.5614546 52.42,70.72 L52.48,71.19 L52.55,71.66 L52.61,72.13 L52.68,72.6 C52.6448926,72.4351821 52.6448926,72.2648179 52.68,72.1 C52.7235015,71.9482481 52.7946994,71.8058524 52.89,71.68 C52.987542,71.5504695 53.1099268,71.441683 53.25,71.36 C53.3943924,71.275777 53.554211,71.2213706 53.72,71.2 L53.85,71.2 L53.98,71.2 L54.11,71.2 L54.24,71.2 L54.59,71.2 L54.76,71.2 L54.92,71.26 L55.34,71.45 L55.76,71.65 L56.18,71.84 L56.6,72.03 C56.6598234,72.05765 56.716767,72.0911462 56.77,72.13 L56.93,72.25 L57.06,72.4 C57.0988538,72.453233 57.13235,72.5101766 57.16,72.57 L57.1,72.19 L57.04,71.82 L56.98,71.45 L56.87,71.06 Z" id="Path" fill="#33AFE2"></path>
            <path d="M93.19,69.38 L93.06,69.38 L92.94,69.38 L92.81,69.38 L92.69,69.38 C92.6337488,69.370296 92.5762512,69.370296 92.52,69.38 L92.35,69.38 L92.19,69.38 C92.1332582,69.3893519 92.0788999,69.4097363 92.03,69.44 L91.62,69.62 L91.21,69.81 L90.81,69.99 L90.4,70.18 C90.3076276,70.2176816 90.2229066,70.271903 90.15,70.34 C89.9939431,70.4613408 89.8702796,70.6193553 89.79,70.8 C89.7483105,70.8883718 89.7212903,70.9829427 89.71,71.08 L89.64,71.5 L89.57,71.91 L89.5,72.32 L89.43,72.73 C89.4572498,72.6411145 89.4906642,72.5542371 89.53,72.47 C89.5705503,72.3875697 89.6209156,72.3103429 89.68,72.24 C89.738949,72.1660383 89.8060383,72.098949 89.88,72.04 C89.9550864,71.9853781 90.0354938,71.9384737 90.12,71.9 L90.54,71.71 L90.95,71.51 L91.37,71.32 L91.79,71.13 L91.96,71.07 L92.13,71.07 L92.47,71.07 L92.6,71.07 L92.73,71.07 L92.86,71.07 L92.99,71.07 C93.1261446,71.0796674 93.258869,71.1171025 93.38,71.18 C93.4967028,71.2416398 93.6043775,71.319031 93.7,71.41 C93.7932346,71.5037242 93.8708816,71.6117548 93.93,71.73 C93.9907191,71.8456248 94.0312995,71.9707476 94.05,72.1 L94.05,71.76 L94.05,71.41 L94.1,71.07 L94.1,70.73 C94.1305111,70.5714546 94.1305111,70.4085454 94.1,70.25 C94.058591,70.0974415 93.9872014,69.9546623 93.89,69.83 C93.7949799,69.7072093 93.6758786,69.6051225 93.54,69.53 C93.4324795,69.4608978 93.3141916,69.410203 93.19,69.38 Z" id="Path" fill="#33AFE2"></path>
            <path d="M121,118.25 L120.91,117.16 L120.83,116.07 L120.83,116.07 L120.83,116.07 C120.834723,116.053668 120.834723,116.036332 120.83,116.02 L120.83,115.21 L120.83,114.4 L120.78,113.6 L120.78,112.79 C120.77324,112.708252 120.756447,112.627647 120.73,112.55 C120.703339,112.4783 120.666276,112.410912 120.62,112.35 C120.580241,112.281939 120.525529,112.223808 120.46,112.18 C120.399696,112.127587 120.332382,112.083832 120.26,112.05 L112.57,108.85 L104.89,105.65 L97.2,102.45 L89.51,99.25 L89.42,99.25 L89.33,99.19 L89.24,99.12 L89.17,99.04 L88.31,97.94 L87.45,96.85 L86.59,95.75 L85.73,94.65 L85.58,94.51 L85.41,94.4 L85.22,94.34 C85.1503559,94.3300171 85.0796441,94.3300171 85.01,94.34 L72.59,94.96 L60,95.39 L59.85,95.39 L59.71,95.39 L59.58,95.46 L59.46,95.55 L57.8,97.11 L56.13,98.66 L54.47,100.21 L52.81,101.77 L52.74,101.77 L52.67,101.82 L52.59,101.82 L52.51,101.82 L45.69,104.25 L38.86,106.67 L32.13,109.07 L25.41,111.46 L25.41,141.46 L121,141.46 L121,118.25 Z" id="Path" fill="#023852"></path>
            <polygon id="Path" fill="#FFFFFF" points="86.52 141.61 86.64 140.75 86.76 139.88 86.88 139.02 87.01 138.16 87.01 124.55 87.01 110.95 87.01 104.75 87.01 98.56 86.57 97.45 86.13 96.34 85.69 95.23 85.25 94.12 78.88 94.64 72.52 95.17 66.15 95.69 59.78 96.22 59.28 96.86 58.78 97.51 58.29 98.15 57.79 98.79 57.79 105.28 57.79 111.77 57.79 125.66 57.79 139.56 57.92 140.07 58.05 140.59 58.18 141.1 58.31 141.61 65.36 141.61 72.41 141.61 79.47 141.61"></polygon>
            <path d="M59.31,90 L59.31,98.3 L60.37,99.92 L61.43,101.53 L62.49,103.14 L63.56,104.76 L65.65,106.1 L67.74,107.43 L69.84,108.77 L71.93,110.11 C72.0960605,110.218265 72.2783607,110.299287 72.47,110.35 C72.659123,110.399567 72.8547353,110.419803 73.05,110.41 C73.2438833,110.397555 73.4354085,110.360594 73.62,110.3 C73.805232,110.230687 73.9801703,110.136489 74.14,110.02 L76.28,108.37 L78.43,106.73 L80.58,105.09 L82.73,103.45 L82.73,101.78 L82.73,100.12 L82.73,98.45 L82.73,96.78 L76.91,95.09 L71.1,93.39 L65.28,91.7 L59.31,90 Z" id="Path" fill="#33ADE1"></path>
            <path d="M59.31,90 L59.31,98.3 L60.37,99.92 L61.43,101.53 L62.49,103.14 L63.56,104.76 L65.65,106.1 L67.74,107.43 L69.84,108.77 L71.93,110.11 C72.0960605,110.218265 72.2783607,110.299287 72.47,110.35 C72.659123,110.399567 72.8547353,110.419803 73.05,110.41 C73.2438833,110.397555 73.4354085,110.360594 73.62,110.3 C73.805232,110.230687 73.9801703,110.136489 74.14,110.02 L76.28,108.37 L78.43,106.73 L80.58,105.09 L82.73,103.45 L82.73,101.78 L82.73,100.12 L82.73,98.45 L82.73,96.78 L76.91,95.09 L71.1,93.39 L65.28,91.7 L59.31,90 Z" id="Path" fill="#66C2E9" style="mix-blend-mode: multiply;"></path>
            <path d="M87.74,55.89 L84.19,54.51 L80.65,53.13 L77.11,51.76 L73.57,50.38 L73.57,50.28 L73.57,50.28 L73.57,50.28 L73.45,50.28 L73.45,50.28 L73.45,50.28 L73.45,50.38 L69.91,51.76 L66.37,53.13 L62.82,54.51 L59.28,55.89 C59.1514941,56.0306273 59.0437387,56.1888929 58.96,56.36 C58.6548203,56.9516317 58.4166774,57.5754992 58.25,58.22 C57.9065429,59.5123067 57.6657928,60.8297445 57.53,62.16 C57.3020155,64.3892301 57.1951917,66.6291912 57.21,68.87 L57.21,86.52 L58.98,90.76 L60.63,95 L62.4,99.24 L64.17,103.48 L66,104 L67.83,104.56 L69.66,105.11 L71.5,105.67 L75.4,105.67 L77.23,105.11 L79.07,104.56 L80.9,104 L82.73,103.45 L84.5,99.21 L86.27,95 L88,90.76 L89.77,86.52 L89.77,68.87 C89.7848083,66.6291912 89.6779845,64.3892301 89.45,62.16 C89.3142072,60.8297445 89.0734571,59.5123067 88.73,58.22 C88.5633226,57.5754992 88.3251797,56.9516317 88.02,56.36 C87.9444318,56.1934101 87.8505179,56.0357688 87.74,55.89 Z" id="Path" fill="#0099DA"></path>
            <path d="M64.92,55.78 L65.12,56.54 L65.33,57.3 L65.53,58.05 L65.74,58.81 L70.44,61.04 L75.14,63.26 L79.39,65.26 L83.63,67.26 C83.9054875,67.3927537 84.1377738,67.6007713 84.3,67.86 C84.4635009,68.1170233 84.5502325,68.4153798 84.55,68.72 L84.55,84.06 L83,87 L81.48,89.92 L80,92.83 L78.48,95.75 L79.3,96.75 L80.12,97.75 L80.94,98.75 L81.76,99.75 L83.81,96.48 L85.81,93.21 L87.9,90 L89.9,86.73 L89.72,80.83 L89.54,74.93 L89.41,69 L89.23,63.1 L88.29,59.8 L87.36,56.5 L86.42,53.19 L85.49,49.89 L80.34,51.35 L75.2,52.81 L70.06,54.27 L64.92,55.78 Z" id="Path" fill="#66C2E9" style="mix-blend-mode: multiply;"></path>
            <path d="M91,52.28 L89.22,50.53 L87.43,48.77 L85.64,47 L83.86,45.24 L83.79,45.18 L83.72,45.18 L83.65,45.18 L83.57,45.18 L82.12,44.71 L80.67,44.24 L79.22,43.76 L77.77,43.29 L72,43.29 L71.94,43.29 L71.8,43.29 L69,44.28 L66.21,45.37 L63.41,46.45 L60.62,47.53 L60.55,47.53 L60.48,47.53 L60.41,47.53 L60.35,47.58 L59.23,48.77 L58.1,49.95 L57,51.26 L55.88,52.44 L55.8,52.53 L55.74,52.64 C55.7343651,52.6764502 55.7343651,52.7135498 55.74,52.75 L55.74,52.86 L55.52,54.59 L55.3,56.32 L55,58.05 L54.78,59.79 L54.78,60 L55,62.43 L55.22,64.86 L55.44,67.29 L55.66,69.72 C55.6554013,69.7899245 55.6554013,69.8600755 55.66,69.93 C55.690705,69.9934458 55.7275474,70.0537333 55.77,70.11 C55.8131206,70.1698858 55.8674596,70.2208286 55.93,70.26 C55.9888518,70.3012305 56.0526944,70.3348318 56.12,70.36 L56.23,70.36 L56.23,70.36 C56.2984473,70.3777359 56.3629165,70.408274 56.42,70.45 C56.4768915,70.4886884 56.5274846,70.5359086 56.57,70.59 C56.6191051,70.6375744 56.656724,70.6957127 56.68,70.76 C56.7091627,70.8270516 56.7293373,70.8976627 56.74,70.97 L56.81,71.51 L56.88,72.05 L56.96,72.59 L57.03,73.13 L57.38,73.13 L58.38,73.13 L58.38,67.93 L58.63,66.14 L59,64.3 L59.25,62.52 L59.5,60.73 L59.5,60.6 C59.5179837,60.5590232 59.5380088,60.5189731 59.56,60.48 C59.5795705,60.4379204 59.6030043,60.3977482 59.63,60.36 L59.72,60.27 L60.8,59.33 L61.88,58.4 L62.95,57.46 L64.03,56.52 C64.1257202,56.4411971 64.238847,56.3863478 64.36,56.36 C64.5992883,56.3086202 64.848677,56.3756202 65.03,56.54 C65.122509,56.6281563 65.191296,56.7382156 65.23,56.86 L65.29,57.04 L65.34,57.21 L65.4,57.38 L65.4,57.56 C65.4198275,57.624569 65.4502413,57.6853966 65.49,57.74 C65.5277055,57.7976695 65.5712702,57.8512877 65.62,57.9 C65.6762667,57.9424526 65.7365542,57.979295 65.8,58.01 C65.8595467,58.0404496 65.9237653,58.0607292 65.99,58.07 L69.21,58.6 L72.42,59.12 L75.63,59.65 L78.84,60.18 C78.8794936,60.1709986 78.9205064,60.1709986 78.96,60.18 L79.08,60.18 L79.18,60.24 L79.27,60.33 L80.34,61.48 L81.4,62.63 L82.47,63.78 L83.62,65 L83.38,63.67 L83.15,62.33 L82.91,61 L82.68,59.67 C82.6598319,59.5811299 82.6598319,59.4888701 82.68,59.4 C82.6886364,59.3135388 82.7196557,59.2308207 82.77,59.16 C82.812476,59.0824662 82.870322,59.0144121 82.94,58.96 C83.0056449,58.8995499 83.0843534,58.8550625 83.17,58.83 L83.6,58.68 L84.03,58.53 L84.46,58.38 L84.89,58.23 C84.9894311,58.2149147 85.0905689,58.2149147 85.19,58.23 C85.2870573,58.2412903 85.3816282,58.2683105 85.47,58.31 C85.5551481,58.3541892 85.6327732,58.4115643 85.7,58.48 C85.7637487,58.5579727 85.8144084,58.6457829 85.85,58.74 L86.36,60.27 L86.88,61.8 L87.4,63.33 L87.92,64.86 L87.92,65 L88.25,67.1 L88.58,69.2 L88.91,71.3 L89.25,73.41 L89.9,73.41 L90.01,72.71 L90.11,72.01 L90.21,71.32 L90.32,70.62 C90.3142472,70.5735106 90.3142472,70.5264894 90.32,70.48 C90.3313001,70.4300665 90.3516345,70.3826198 90.38,70.34 L90.47,70.23 C90.5016881,70.1915704 90.5387332,70.157893 90.58,70.13 L90.64,70.13 L90.71,70.13 L90.77,70.13 L90.83,70.13 L90.96,70.01 C90.9990188,69.9640331 91.0325763,69.913697 91.06,69.86 C91.0902637,69.8111001 91.1106481,69.7567418 91.12,69.7 C91.1298848,69.6404071 91.1298848,69.5795929 91.12,69.52 L91.12,52.82 C91.1249463,52.7701223 91.1249463,52.7198777 91.12,52.67 C91.12,52.62 91.12,52.57 91.12,52.53 C91.12,52.49 91.12,52.44 91.05,52.4 L91,52.28 Z" id="Path" fill="#023852"></path>
            <path d="M65.14,104 L66.65,104.45 L68.17,104.91 L69.68,105.37 L71.19,105.83 L71.34,105.83 L71.5,105.83 L71.66,105.83 L75.24,105.83 L75.4,105.83 L75.56,105.83 L75.71,105.83 L77.22,105.37 L78.74,104.91 L80.25,104.45 L81.77,103.99 C81.9197111,103.946545 82.0639769,103.886154 82.2,103.81 C82.3344955,103.731559 82.4616732,103.641196 82.58,103.54 C82.6939979,103.433233 82.7977814,103.316058 82.89,103.19 C82.9800093,103.061259 83.0570517,102.923922 83.12,102.78 L84.79,98.87 L86.45,94.97 L88.11,91.06 L89.77,87.16 C89.8010145,87.0917346 89.8277332,87.0215979 89.85,86.95 C89.8713752,86.8812054 89.8880799,86.8110458 89.9,86.74 C89.9047474,86.6700805 89.9047474,86.5999195 89.9,86.53 C89.9,86.46 89.9,86.39 89.9,86.31 L89.9,73.37 L89.23,73.37 L89,75.75 L88.67,78.14 L88.34,80.53 L88,82.92 C87.9917654,83.0122168 87.9715969,83.1029748 87.94,83.19 C87.919265,83.2783819 87.8925366,83.3652494 87.86,83.45 L87.74,83.7 L87.59,83.93 L86.74,85 L85.94,86.07 L85.13,87.14 L84.32,88.21 C84.1099851,88.4883311 83.8354283,88.7114085 83.52,88.86 C83.2086976,89.0094255 82.8648274,89.0781995 82.52,89.06 C82.1714747,89.0578034 81.8285561,88.9720738 81.52,88.81 C81.209647,88.6435766 80.9451609,88.4031347 80.75,88.11 L80.28,87.41 L79.81,86.72 L79.34,86.02 L78.87,85.32 C78.772339,85.1711633 78.6545557,85.0365538 78.52,84.92 C78.3935453,84.802279 78.25237,84.7014395 78.1,84.62 C77.9446114,84.5378265 77.7801665,84.4740622 77.61,84.43 C77.4362125,84.3897779 77.258381,84.3696461 77.08,84.37 L70,84.37 C69.8405802,84.3507304 69.6794198,84.3507304 69.52,84.37 C69.3645929,84.4066917 69.2136875,84.4603469 69.07,84.53 C68.9228303,84.598874 68.7850509,84.6862463 68.66,84.79 C68.531186,84.8938518 68.4138518,85.011186 68.31,85.14 L67.83,85.75 L67.35,86.36 L66.87,86.97 L66.38,87.59 C65.9386608,88.1537657 65.2436092,88.4580856 64.53,88.4 C64.1769971,88.376364 63.8344738,88.2701818 63.53,88.09 C63.2235727,87.8983301 62.9693475,87.6337985 62.79,87.32 L61.79,85.54 L60.79,83.75 L59.79,81.97 L58.79,80.19 C58.7440264,80.109668 58.7039219,80.0261168 58.67,79.94 L58.58,79.68 C58.5752506,79.5900627 58.5752506,79.4999373 58.58,79.41 C58.575047,79.3167324 58.575047,79.2232676 58.58,79.13 L58.58,73.08 L57.85,73.08 C57.7644906,73.10003 57.6755094,73.10003 57.59,73.08 L57.37,73 C57.31,73 57.26,73 57.23,73 C57.2,73 57.23,73.06 57.23,73.16 L57.23,86.32 C57.2250275,86.3899117 57.2250275,86.4600883 57.23,86.53 L57.23,86.74 C57.2419201,86.8110458 57.2586248,86.8812054 57.28,86.95 C57.28,87.02 57.28,87.08 57.35,87.15 L58.99,91.05 L60.52,95 L62.15,98.9 L63.78,102.81 C63.8429483,102.953922 63.9199907,103.091259 64.01,103.22 C64.0999833,103.347842 64.2039609,103.465236 64.32,103.57 C64.4374378,103.67525 64.5646853,103.769011 64.7,103.85 C64.8415586,103.913889 64.9888938,103.964117 65.14,104 Z" id="Path" fill="#023852"></path>
            <path d="M77.48,43.15 L71.87,43.15 L71.81,43.15 L71.74,43.15 L69,44.28 L66.21,45.37 L63.42,46.45 L60.62,47.53 L60.55,47.53 L60.48,47.53 L60.41,47.53 L60.35,47.58 L59.23,48.77 L58.1,49.95 L56.97,51.13 L55.85,52.31 L55.77,52.4 L55.71,52.51 C55.71,52.51 55.71,52.58 55.71,52.62 C55.7043651,52.6564502 55.7043651,52.6935498 55.71,52.73 L55.71,53.09 L55.71,53.44 L55.71,53.8 L55.71,54.15 L57.16,53 L59.08,51.55 L60.75,50.3 L61.75,49.58 L61.75,49.58 L61.81,49.58 L61.81,49.58 L61.87,49.58 L64.44,48.75 L67.01,47.92 L69.59,47.09 L72.16,46.26 L72.16,46.26 L77.21,46.26 L78.62,46.6 L80.03,46.94 L81.44,47.28 L82.84,47.62 L83,47.62 L83.06,47.62 L83.06,47.62 L83.12,47.62 L85.12,48.93 L87.12,50.24 L89.12,51.56 L91.12,52.87 L91.12,52.57 L89.29,50.76 L87.45,48.95 L85.61,47.14 L83.77,45.33 L83.71,45.27 L83.63,45.27 L83.56,45.27 L83.48,45.27 L82.03,44.8 L80.58,44.33 L79.13,43.85 L77.68,43.38 L77.62,43.38 L77.45,43.38 L77.48,43.15 Z" id="Path" fill="#4E7486"></path>
            <path d="M85.84,117.07 L82.84,115.51 L79.84,113.96 L76.84,112.4 L73.84,110.84 L72.4,110.84 L69.4,112.48 L66.4,114.11 L63.4,115.74 L60.4,117.37 C60.4,117.37 60.4,117.37 60.4,117.43 C60.389282,117.448564 60.389282,117.471436 60.4,117.49 C60.3964893,117.506482 60.3964893,117.523518 60.4,117.54 L60.47,117.54 L63.56,116.39 L66.66,115.24 L69.75,114.09 L72.85,112.95 L72.91,112.95 L76.12,114.02 L79.34,115.09 L82.56,116.16 L85.78,117.24 C85.8023774,117.249446 85.8276226,117.249446 85.85,117.24 C85.8594458,117.217623 85.8594458,117.192377 85.85,117.17 C85.8622144,117.155529 85.8680448,117.136727 85.8661605,117.117884 C85.8642762,117.099041 85.8548381,117.081766 85.84,117.07 Z" id="Path" fill="#0099DA"></path>
            <polygon id="Path" fill="#023852" points="69.01 119.82 68.68 121.09 68.36 122.36 68.03 131.98 67.71 141.61 70.23 141.61 72.76 141.61 75.28 141.61 77.81 141.61 77.16 131.87 76.51 122.13 75.85 120.74 75.2 119.35 75.2 118.89 75.2 118.43 75.2 118.43 75.2 118.43 75.8 117.03 76.39 115.63 76.99 114.23 77.58 112.83 76.61 112.33 75.63 111.83 74.66 111.33 73.68 110.83 73.33 110.83 72.98 110.83 72.63 110.83 72.28 110.83 70.95 111.56 69.62 112.3 68.29 113.03 66.95 113.76 67.47 115.05 67.98 116.33 68.5 117.61 69.01 118.9 69.01 118.9 69.01 118.9 69.01 119.36"></polygon>
            <polygon id="Path" fill="#9DADB7" points="86.6 160.08 73.18 160.08 59.75 160.08 59.75 157.71 59.75 155.33 73.18 155.33 86.6 155.33 86.6 157.71"></polygon>
            <path d="M270.46,133.37 L166.939988,133.37 L166.939988,283.13 C166.937344,284.285423 167.394473,285.394434 168.210545,286.212381 C169.026616,287.030328 170.134574,287.49 171.29,287.49 L270.46,287.49 L270.46,133.37 Z" id="Path" fill="#023852" opacity="0.2" style="mix-blend-mode: multiply;"></path>
            <path d="M181.58,276.24 L236.32,276.08 L291.05,275.93 C293.200951,275.908113 294.934638,274.161056 294.94,272.01 L294.8,224.9 L294.67,177.79 L236,178 L177.36,178.17 L177.5,225.28 L177.63,272.39 C177.644714,273.420594 178.056681,274.405732 178.78,275.14 C179.528048,275.867329 180.536917,276.26367 181.58,276.24 Z" id="Path" fill="#CED6DB"></path>
            <polygon id="Path" fill="#FFE700" points="294.66 182.33 236.04 182.5 177.42 182.67 177.33 152.4 177.25 122.13 235.87 121.97 294.49 121.8 294.57 152.07"></polygon>
            <polygon id="Path" fill="#023852" points="237.92 165.29 234.46 168.77 231.01 172.24 224.61 165.88 218.21 159.51 206.74 171.04 195.27 182.57 225.83 182.5 256.4 182.43 247.16 173.86"></polygon>
            <path d="M236.759901,142.05 C236.776577,146.511118 240.405484,150.114653 244.866609,150.099976 C249.327733,150.085209 252.932777,146.457801 252.919945,141.996671 C252.907044,137.535541 249.281135,133.928988 244.82,133.939975 C242.674488,133.942632 240.618341,134.799523 239.105932,136.321314 C237.593523,137.843105 236.749364,139.904513 236.759901,142.05 L236.759901,142.05 Z" id="Path" fill="#023852"></path>
            <polygon id="Path" fill="#023852" points="268.69 200.84 232.69 200.95 196.68 201.05 196.68 198.33 196.67 195.6 232.67 195.5 268.67 195.4 268.68 198.12"></polygon>
            <polygon id="Path" fill="#023852" points="268.72 212.49 232.72 212.59 196.72 212.69 196.71 209.97 196.7 207.25 232.7 207.15 268.71 207.04 268.71 209.77"></polygon>
            <polygon id="Path" fill="#5D737F" points="243.34 231.23 220.05 231.29 196.77 231.36 196.76 228.63 196.75 225.91 220.04 225.84 243.32 225.78 243.33 228.5"></polygon>
            <polygon id="Path" fill="#5D737F" points="243.37 242.87 220.09 242.94 196.8 243 196.79 240.28 196.79 237.56 220.07 237.49 243.36 237.42 243.37 240.15"></polygon>
            <polygon id="Path" fill="#5D737F" points="243.4 254.28 220.12 254.34 196.84 254.41 196.83 251.69 196.82 248.96 220.11 248.9 243.39 248.83 243.4 251.55"></polygon>
            <path d="M115.36,239 C115.044336,238.692206 114.620887,238.52 114.18,238.52 L74,238.52 L74,272.15 L114.17,272.15 C114.610887,272.15 115.034336,271.977794 115.35,271.67 C115.501242,271.516704 115.62324,271.337095 115.71,271.14 C115.794347,270.933594 115.838472,270.71297 115.84,270.49 L115.84,240.17 C115.838472,239.94703 115.794347,239.726406 115.71,239.52 C115.622765,239.328575 115.504507,239.152876 115.36,239 L115.36,239 Z" id="Path" fill="#023852" opacity="0.2" style="mix-blend-mode: multiply;"></path>
            <g id="Group" opacity="0.4" style="mix-blend-mode: multiply;" transform="translate(208.000000, 63.000000)">
                <path d="M35.49,46.3 L35.49,46.24 L35.49,46.24 C35.4853215,46.2597264 35.4853215,46.2802736 35.49,46.3 L35.49,46.3 Z" id="Path" fill="url(#linearGradient-1)"></path>
                <path d="M62.31,0.52 L4.16,0.52 C3.16105097,0.52 2.20316166,0.917510605 1.49773671,1.62481168 C0.792311766,2.33211276 0.397343221,3.2910545 0.399986683,4.29 L0.399986683,34.29 C0.399986683,36.3682145 2.0817928,38.0544875 4.16,38.06 L27.1,38.06 C28.1985068,38.0573151 29.2841577,38.2962948 30.28,38.76 C32.6848187,39.9193222 34.4738677,42.0581649 35.19,44.63 C35.2364776,44.7614612 35.3605654,44.8495235 35.5,44.8500408 C35.6315903,44.8522727 35.7456474,44.7593372 35.77,44.63 C36.2180394,42.1248398 37.9042914,40.0170248 40.25,39.03 C41.3873086,38.4927195 42.608343,38.1544829 43.86,38.03 L62.31,38.03 L62.31,0.52 Z" id="Path" fill="#023852" opacity="0.2" style="mix-blend-mode: multiply;"></path>
            </g>
            <path d="M249.11,102.13 C249.114679,102.110274 249.114679,102.089726 249.11,102.07 L249.11,102.07 L249.11,102.13 L249.11,102.13 Z" id="Path" fill="#FFFFFF"></path>
            <path d="M333.73,56.35 L217.73,56.35 C215.663524,56.3719267 214,58.053408 214,60.12 L214,90.12 C214.010935,92.1975673 215.692433,93.8790652 217.77,93.89 L240.71,93.89 C241.805347,93.8868157 242.887849,94.125854 243.88,94.59 C246.287816,95.7481167 248.080429,97.886864 248.8,100.46 C248.845196,100.588083 248.964254,100.675393 249.1,100.6804 C249.235318,100.687326 249.355103,100.593209 249.38,100.46 C249.824567,97.9532661 251.511994,95.8439823 253.86,94.86 C254.997309,94.3227195 256.218343,93.9844829 257.47,93.86 L333.72,93.86 C335.802114,93.86 337.490013,92.1721135 337.490013,90.09 L337.490013,60.09 C337.492665,59.0893192 337.096325,58.1288558 336.388735,57.4212652 C335.681144,56.7136745 334.720681,56.3173351 333.72,56.3199866 L333.73,56.35 Z" id="Path" fill="#FFFFFF"></path>
            <polygon id="Path" fill="#0099DA" points="238.98 72.11 277.63 72.11 316.28 72.11 316.28 75.67 316.28 79.23 277.63 79.23 238.98 79.23 238.98 75.67"></polygon>
            <path d="M107.07,232.9 L2.16,232.9 C1.93906066,232.9 1.72072267,232.947671 1.52,233.04 C1.32146365,233.119589 1.14115452,233.238661 0.99,233.39 C0.838758112,233.543296 0.716759815,233.722905 0.63,233.92 C0.545652688,234.126406 0.501527926,234.34703 0.5,234.57 L0.5,264.88 C0.501527926,265.10297 0.545652688,265.323594 0.63,265.53 C0.719434743,265.722614 0.841194575,265.898489 0.99,266.05 C1.13804855,266.207509 1.319013,266.330428 1.52,266.41 C1.72149107,266.498889 1.93979684,266.543232 2.16,266.540184 L107.07,266.540184 C107.29345,266.543421 107.515055,266.4991 107.72,266.41 C108.110185,266.23286 108.42286,265.920185 108.6,265.53 C108.6891,265.325055 108.733421,265.10345 108.730184,264.88 L108.730184,234.57 C108.733421,234.34655 108.6891,234.124945 108.6,233.92 C108.520428,233.719013 108.397509,233.538049 108.24,233.39 C108.090781,233.240986 107.914224,233.122149 107.72,233.04 C107.515717,232.947756 107.294144,232.9 107.07,232.9 L107.07,232.9 Z" id="Path" fill="#9E9D8E"></path>
            <polygon id="Path" fill="#B4B2AB" points="21.43 254.52 20.78 255.18 20.12 255.84 19.46 256.5 18.8 257.16 17.37 255.73 16 254.31 14.57 252.88 13.15 251.46 13.81 250.8 14.47 250.14 15.13 249.48 15.79 248.82 16.55 249.58 17.32 250.35 18.08 251.12 18.85 251.88 20.92 249.8 23 247.73 25 245.65 27.07 243.57 27.73 244.23 28.39 244.89 29.05 245.55 29.71 246.21 27.63 248.29 25.56 250.36 23.48 252.44"></polygon>
            <polygon id="Path" fill="#B4B2AB" points="43.57 254.52 42.91 255.18 42.25 255.84 41.59 256.5 40.93 257.16 39.5 255.73 38.08 254.31 36.65 252.88 35.23 251.46 35.89 250.8 36.55 250.14 37.21 249.48 37.87 248.82 38.63 249.58 39.4 250.35 40.16 251.12 40.93 251.88 43 249.8 45.08 247.73 47.16 245.65 49.23 243.57 49.89 244.23 50.55 244.89 51.21 245.55 51.87 246.21 49.8 248.29 47.72 250.36 45.64 252.44"></polygon>
            <polygon id="Path" fill="#B4B2AB" points="65.7 254.52 65.04 255.18 64.38 255.84 63.72 256.5 63.06 257.16 61.63 255.73 60.21 254.31 58.78 252.88 57.36 251.46 58.02 250.8 58.68 250.14 59.34 249.48 60 248.82 60.76 249.58 61.53 250.35 62.29 251.12 63.06 251.88 65.14 249.8 67.21 247.73 69.29 245.65 71.37 243.57 72.02 244.23 72.68 244.89 73.34 245.55 74 246.21 71.93 248.29 69.85 250.36 67.77 252.44"></polygon>
            <polygon id="Path" fill="#B4B2AB" points="87.83 254.52 87.17 255.18 86.51 255.84 85.85 256.5 85.19 257.16 83.76 255.73 82.34 254.31 80.92 252.88 79.49 251.46 80.15 250.8 80.81 250.14 81.47 249.48 82.13 248.82 82.89 249.58 83.66 250.35 84.42 251.12 85.19 251.88 87.27 249.8 89.34 247.73 91.42 245.65 93.5 243.57 94.16 244.23 94.81 244.89 95.47 245.55 96.13 246.21 94.06 248.29 92 250.36 89.92 252.44"></polygon>
        </g>
    </g>
</svg>