<?xml version="1.0" encoding="UTF-8"?>
<svg width="440px" height="330px" viewBox="0 0 440 330" version="1.1" xmlns="http://www.w3.org/2000/svg" xmlns:xlink="http://www.w3.org/1999/xlink">
    <title>Graphic elements / Icons / Rich icons / Design</title>
    <g id="Graphic-elements-/-Icons-/-Rich-icons-/-Design" stroke="none" stroke-width="1" fill="none" fill-rule="evenodd">
        <g id="Group" transform="translate(24.000000, 0.000000)">
            <path d="M109.384404,320.644954 L138.842202,320.554128 L168.3,320.473394 L197.747706,320.392661 L227.205505,320.301835 L256.663303,320.221101 L286.121101,320.140367 L315.578899,320.049541 L345.026606,319.968807 C345.301029,319.967925 345.574743,319.940891 345.844037,319.888073 C346.102674,319.8287 346.35586,319.747681 346.600917,319.645872 C346.841933,319.545414 347.071904,319.420283 347.287156,319.272477 C347.501236,319.1274 347.700651,318.961784 347.882569,318.777982 C348.063196,318.595898 348.225447,318.396464 348.366972,318.182569 C348.516862,317.968601 348.642119,317.738397 348.740367,317.49633 C348.843439,317.252646 348.921217,316.999023 348.972477,316.73945 C349.025295,316.470156 349.053211,316.196441 349.053211,315.922018 L348.982569,290.965138 L348.911927,266.008257 L348.841284,241.051376 L348.770642,216.084404 L348.7,191.127523 L348.619266,166.170642 L348.548624,141.20367 L348.477982,116.246789 L318.021101,116.337615 L287.554128,116.418349 L257.087156,116.509174 L226.630275,116.6 L196.163303,116.680734 L165.69633,116.77156 L135.23945,116.852294 L104.772477,116.943119 L104.843119,141.9 L104.913761,166.866972 L104.984404,191.823853 L105.055046,216.780734 L105.125688,241.737615 L105.19633,266.704587 L105.266972,291.661468 L105.337615,316.618349 C105.341758,316.893098 105.372172,317.166822 105.42844,317.43578 C105.479701,317.695353 105.557478,317.948976 105.66055,318.192661 C105.763117,318.42946 105.888154,318.655878 106.033945,318.868807 C106.179325,319.082659 106.344918,319.282046 106.52844,319.46422 C106.711687,319.650586 106.914724,319.8164 107.133945,319.958716 C107.350081,320.105075 107.579903,320.230125 107.820183,320.33211 C108.063352,320.436594 108.317127,320.514419 108.577064,320.56422 C108.84303,320.616523 109.113347,320.644954 109.384404,320.644954 L109.384404,320.644954 Z" id="Path" fill="#E3E7E9" fill-rule="nonzero"></path>
            <polygon id="Path" fill="#FFE700" fill-rule="nonzero" points="348.538532 158.450459 318.081651 158.531193 287.624771 158.622018 257.16789 158.712844 226.711009 158.793578 196.254128 158.884404 165.797248 158.965138 135.330275 159.055963 104.873394 159.146789 104.822936 139.336697 104.762385 119.526606 104.711927 99.7266055 104.651376 79.9165138 104.590826 60.1165138 104.540367 40.306422 104.479817 20.4963303 104.429358 0.696330275 134.886239 0.605504587 165.343119 0.524770642 195.8 0.433944954 226.256881 0.343119266 256.713761 0.262385321 287.170642 0.171559633 317.627523 0.0908256881 348.084404 -1.46280541e-12 348.144954 19.8100917 348.195413 39.6100917 348.255963 59.4201835 348.306422 79.2201835 348.366972 99.0302752 348.427523 118.840367 348.477982 138.640367"></polygon>
            <polygon id="Path" fill="#003A5D" fill-rule="nonzero" points="294.487156 194.266055 275.777064 194.326606 257.077064 194.377064 238.366972 194.427523 219.666972 194.477982 200.956881 194.538532 182.246789 194.588991 163.546789 194.63945 144.836697 194.7 144.836697 193.287156 144.826606 191.86422 144.826606 190.451376 144.826606 189.038532 144.816514 187.625688 144.816514 186.212844 144.806422 184.8 144.806422 183.387156 163.516514 183.336697 182.216514 183.276147 200.926606 183.225688 219.626606 183.175229 238.336697 183.124771 257.046789 183.06422 275.746789 183.013761 294.456881 182.963303 294.456881 184.376147 294.466972 185.788991 294.466972 187.201835 294.466972 188.614679 294.477064 190.027523 294.477064 191.440367 294.487156 192.853211"></polygon>
            <polygon id="Path" fill="#003A5D" fill-rule="nonzero" points="294.557798 221.50367 275.847706 221.554128 257.147706 221.604587 238.437615 221.665138 219.727523 221.715596 201.027523 221.766055 182.317431 221.826606 163.617431 221.877064 144.907339 221.927523 144.907339 220.514679 144.897248 219.101835 144.897248 217.688991 144.887156 216.276147 144.887156 214.863303 144.887156 213.450459 144.877064 212.037615 144.877064 210.624771 163.577064 210.56422 182.287156 210.513761 200.997248 210.463303 219.697248 210.402752 238.407339 210.352294 257.107339 210.301835 275.817431 210.251376 294.527523 210.190826 294.527523 211.60367 294.527523 213.016514 294.537615 214.43945 294.537615 215.852294 294.547706 217.265138 294.547706 218.677982 294.547706 220.090826"></polygon>
            <polygon id="Path" fill="#003A5D" fill-rule="nonzero" points="294.487156 248.731193 275.777064 248.791743 257.077064 248.842202 238.366972 248.892661 219.666972 248.953211 200.956881 249.00367 182.246789 249.054128 163.546789 249.104587 144.836697 249.165138 144.836697 247.752294 144.826606 246.33945 144.826606 244.916514 144.826606 243.50367 144.816514 242.090826 144.816514 240.677982 144.806422 239.265138 144.806422 237.852294 163.516514 237.801835 182.216514 237.751376 200.926606 237.690826 219.626606 237.640367 238.336697 237.589908 257.046789 237.529358 275.746789 237.478899 294.456881 237.42844 294.456881 238.841284 294.466972 240.254128 294.466972 241.666972 294.466972 243.079817 294.477064 244.492661 294.477064 245.905505 294.487156 247.318349"></polygon>
            <polygon id="Path" fill="#003A5D" fill-rule="nonzero" points="294.557798 275.968807 275.847706 276.019266 257.147706 276.079817 238.437615 276.130275 219.727523 276.180734 201.027523 276.241284 182.317431 276.291743 163.617431 276.342202 144.907339 276.392661 144.907339 274.979817 144.897248 273.566972 144.897248 272.154128 144.887156 270.741284 144.887156 269.32844 144.887156 267.915596 144.877064 266.502752 144.877064 265.089908 163.577064 265.029358 182.287156 264.978899 200.997248 264.92844 219.697248 264.86789 238.407339 264.817431 257.107339 264.766972 275.817431 264.716514 294.527523 264.655963 294.527523 266.068807 294.527523 267.491743 294.537615 268.904587 294.537615 270.317431 294.547706 271.730275 294.547706 273.143119 294.547706 274.555963"></polygon>
            <path d="M388.320183,19.9816514 L219.041284,19.9816514 L219.041284,19.9816514 L212.93578,21.5055046 L210.917431,22.0302752 L202.763303,24.1293578 L200.744954,24.6642202 L198.726606,25.1889908 L192.611009,26.7633028 L190.592661,27.2880734 L186.505505,28.3477064 L186.233028,28.3477064 L186.031193,28.4183486 L185.859633,28.5091743 L185.718349,28.6302752 C185.670036,28.6699323 185.629049,28.7177507 185.597248,28.7715596 C185.55974,28.8173104 185.52914,28.868311 185.506422,28.9229358 C185.47867,28.9748196 185.45505,29.0288093 185.43578,29.0844037 C185.431765,29.1415343 185.431765,29.1988327 185.43578,29.2559633 C185.431765,29.3164102 185.431765,29.3771678 185.43578,29.4376147 C185.431765,29.4946759 185.431765,29.552113 185.43578,29.6091743 L185.43578,29.7807339 C185.453202,29.840255 185.476881,29.8977625 185.506422,29.9522936 C185.52914,30.0069184 185.55974,30.057919 185.597248,30.1036697 C185.628587,30.1549512 185.665846,30.2023713 185.708257,30.2449541 L185.859633,30.366055 C185.911692,30.407736 185.969469,30.4417222 186.031193,30.4669725 L186.222936,30.5376147 L187.100917,30.7798165 L187.988991,31.0220183 L188.866972,31.2642202 L189.755046,31.506422 L191.521101,31.9908257 L192.399083,32.2330275 L195.043119,32.959633 L195.931193,33.2018349 L197.697248,33.6862385 L198.575229,33.9284404 L199.463303,34.1706422 L200.341284,34.412844 L200.341284,34.412844 L200.341284,34.412844 L200.341284,34.412844 L200.341284,34.412844 L200.341284,34.412844 L200.341284,34.412844 L200.341284,34.412844 L200.341284,34.412844 L200.341284,34.412844 L200.341284,34.412844 L200.341284,34.412844 L200.341284,34.412844 L200.341284,34.412844 L200.341284,34.412844 L200.341284,34.412844 L200.341284,34.412844 L202.743119,35.0688073 L203.954128,35.4018349 L208.757798,36.7238532 L209.958716,37.046789 L211.159633,37.3798165 L212.36055,37.712844 L215.963303,38.7220183 L217.16422,39.0449541 L219.566055,39.7110092 L219.566055,39.7110092 L388.320183,39.7110092 L388.320183,19.9816514 Z" id="Path" fill="#003A5D" fill-rule="nonzero" opacity="0.3" style="mix-blend-mode: multiply;"></path>
            <path d="M221.584404,34.3119266 L221.584404,14.693578 L219.566055,15.2284404 L217.547706,15.753211 L215.529358,16.2779817 L213.511009,16.8027523 L211.492661,17.3275229 L209.474312,17.8522936 L207.455963,18.387156 L205.437615,18.9119266 L203.419266,19.4366972 L201.400917,19.9614679 L199.382569,20.4862385 L197.36422,21.0211009 L195.345872,21.5458716 L193.327523,22.0706422 L191.309174,22.5954128 L189.290826,23.1201835 L188.715596,23.2110092 C188.655224,23.2389129 188.597758,23.2727164 188.544037,23.3119266 L188.392661,23.4229358 C188.352566,23.4675175 188.315481,23.5147165 188.281651,23.5642202 L188.180734,23.7155963 C188.15598,23.7675927 188.135723,23.8216125 188.120183,23.8770642 C188.116462,23.9341948 188.116462,23.9914933 188.120183,24.0486239 C188.115221,24.1090726 188.115221,24.1698264 188.120183,24.2302752 C188.120183,24.2908257 188.120183,24.3513761 188.120183,24.4018349 C188.115479,24.4622939 188.115479,24.5230272 188.120183,24.5834862 C188.139454,24.6390806 188.163074,24.6930703 188.190826,24.7449541 C188.213543,24.7995789 188.244144,24.8505795 188.281651,24.8963303 C188.312991,24.9476117 188.35025,24.9950319 188.392661,25.0376147 C188.434992,25.0832279 188.482394,25.1238581 188.533945,25.1587156 L188.705505,25.259633 L188.907339,25.3302752 L190.925688,25.8954128 L192.944037,26.4504587 L194.962385,27.0155963 L196.980734,27.5706422 L198.999083,28.1357798 L201.017431,28.6908257 L203.03578,29.2559633 L205.054128,29.8110092 L207.072477,30.3761468 L209.090826,30.9311927 L211.109174,31.4963303 L213.127523,32.0513761 L215.145872,32.6165138 L217.16422,33.1715596 L219.182569,33.7366972 L221.584404,34.3119266 Z" id="Path" fill="#E8EBED" fill-rule="nonzero"></path>
            <path d="M188.644954,25.3908257 L189.522936,25.6330275 L190.411009,25.8752294 L191.288991,26.1174312 L192.177064,26.359633 L193.055046,26.6018349 L193.943119,26.8440367 L194.821101,27.0862385 L195.699083,27.3284404 L196.587156,27.5706422 L197.465138,27.812844 L198.353211,28.0550459 L199.231193,28.2972477 L200.119266,28.5394495 L200.997248,28.7816514 L201.875229,29.0238532 L202.763303,29.266055 L202.672477,29.2055046 L202.591743,29.1550459 L202.500917,29.0944954 L202.420183,29.0944954 L202.329358,29.033945 L202.248624,29.033945 L202.16789,28.9733945 L202.077064,28.912844 L201.99633,28.8522936 L201.915596,28.8522936 L201.834862,28.7917431 L201.754128,28.7311927 L201.673394,28.6605505 L201.592661,28.6 L201.511927,28.5394495 L201.431193,28.4688073 L201.350459,28.3981651 L201.259633,28.3275229 L201.178899,28.246789 L201.088073,28.166055 L201.007339,28.0853211 L200.926606,28.0045872 L200.855963,27.9238532 L200.775229,27.8330275 L200.714679,27.7422018 L200.644037,27.6513761 L200.583486,27.5605505 L200.522936,27.459633 L200.522936,27.3587156 C200.521253,27.3250975 200.521253,27.2914163 200.522936,27.2577982 C200.517249,27.2210136 200.517249,27.1835736 200.522936,27.146789 L200.522936,27.0357798 C200.517227,26.9922353 200.517227,26.9481317 200.522936,26.9045872 C200.522936,26.9045872 200.522936,26.8238532 200.522936,26.7834862 L200.522936,26.6623853 C200.522936,26.6623853 200.522936,26.5816514 200.522936,26.5412844 C200.517249,26.5044998 200.517249,26.4670598 200.522936,26.4302752 C200.518074,26.3900546 200.518074,26.3493949 200.522936,26.3091743 L200.522936,26.1981651 L200.522936,26.087156 L200.522936,25.9761468 L200.522936,25.8651376 L200.522936,25.7541284 C200.527102,25.7172427 200.527102,25.680005 200.522936,25.6431193 C200.527797,25.6028987 200.527797,25.5622389 200.522936,25.5220183 L200.522936,25.4110092 C200.522936,25.4110092 200.522936,25.3302752 200.522936,25.2899083 C200.527897,25.2496937 200.527897,25.2090219 200.522936,25.1688073 C200.52848,25.0982739 200.52848,25.0274142 200.522936,24.9568807 C200.534391,24.896872 200.534391,24.8352381 200.522936,24.7752294 C200.512203,24.7196903 200.495278,24.6655294 200.472477,24.6137615 C200.472477,24.6137615 200.422018,24.5229358 200.401835,24.4724771 L200.311009,24.3614679 L200.2,24.2605505 L200.078899,24.1697248 C200.038986,24.1370532 199.994859,24.1098985 199.947706,24.0889908 L199.816514,24.0183486 L199.665138,23.9477064 L199.523853,23.8770642 L199.372477,23.806422 L199.231193,23.7357798 L199.079817,23.6550459 L198.948624,23.5642202 C198.900477,23.5327762 198.856411,23.4954893 198.817431,23.453211 L198.807339,23.2110092 L198.726606,23.1201835 L198.655963,23.0293578 L198.585321,22.9385321 C198.570541,22.9039115 198.553691,22.8702115 198.534862,22.8376147 C198.533053,22.8039999 198.533053,22.770312 198.534862,22.7366972 L198.484404,22.6256881 C198.48857,22.5888023 198.48857,22.5515647 198.484404,22.5146789 L198.484404,22.4036697 L198.484404,22.2926606 C198.480479,22.2557616 198.480479,22.2185504 198.484404,22.1816514 C198.479542,22.1414308 198.479542,22.1007711 198.484404,22.0605505 C198.479417,22.0237154 198.479417,21.9863764 198.484404,21.9495413 C198.479442,21.9093268 198.479442,21.8686549 198.484404,21.8284404 C198.479442,21.7882259 198.479442,21.747554 198.484404,21.7073394 L198.484404,20.6981651 L197.878899,20.8495413 L197.273394,21.0009174 L196.66789,21.1623853 L196.062385,21.3137615 L195.456881,21.4752294 L194.851376,21.6266055 L194.245872,21.7880734 L193.650459,21.9394495 L193.044954,22.1009174 L192.43945,22.2522936 L191.833945,22.4036697 L191.22844,22.5651376 L190.622936,22.7165138 L190.017431,22.8779817 L189.411927,23.0293578 L188.715596,23.2110092 L188.513761,23.2816514 C188.451764,23.301805 188.393722,23.3325335 188.342202,23.3724771 L188.200917,23.493578 C188.155239,23.5320888 188.114556,23.5761618 188.079817,23.6247706 C188.040024,23.6726565 188.00925,23.7273653 187.988991,23.7862385 C187.959396,23.837208 187.935696,23.8913789 187.918349,23.9477064 C187.913479,24.0047893 187.913479,24.0621832 187.918349,24.1192661 C187.918349,24.1798165 187.918349,24.240367 187.918349,24.2908257 C187.913386,24.3512745 187.913386,24.4120283 187.918349,24.4724771 C187.912683,24.5295233 187.912683,24.5869905 187.918349,24.6440367 C187.937548,24.7029186 187.961162,24.7602679 187.988991,24.8155963 C188.011708,24.8702211 188.042309,24.9212217 188.079817,24.9669725 C188.113646,25.0164762 188.150731,25.0636752 188.190826,25.1082569 L188.342202,25.2293578 C188.392501,25.2655103 188.446654,25.2959718 188.50367,25.3201835 L188.644954,25.3908257 Z" id="Path" fill="#023852" fill-rule="nonzero"></path>
            <polygon id="Path" fill="#1A4E6E" fill-rule="nonzero" points="392.538532 24.4926606 381.851376 24.4926606 371.16422 24.4825688 360.477064 24.4825688 349.789908 24.4724771 339.102752 24.4724771 328.425688 24.4623853 317.738532 24.4522936 307.051376 24.4522936 296.36422 24.4422018 285.677064 24.4422018 274.989908 24.4321101 264.302752 24.4321101 253.615596 24.4220183 242.92844 24.4220183 232.251376 24.4119266 221.56422 24.4119266 221.56422 25.0275229 221.56422 25.6431193 221.56422 26.2486239 221.56422 26.8642202 221.56422 27.4798165 221.56422 28.0954128 221.56422 28.7110092 221.56422 29.3266055 221.554128 29.9422018 221.554128 30.5577982 221.554128 31.1733945 221.554128 31.7788991 221.554128 32.3944954 221.554128 33.0100917 221.554128 33.6256881 221.554128 34.2412844 232.241284 34.2412844 242.92844 34.2513761 253.615596 34.2614679 264.302752 34.2614679 274.989908 34.2715596 285.666972 34.2715596 296.354128 34.2816514 307.041284 34.2816514 317.72844 34.2917431 328.415596 34.2917431 339.102752 34.3018349 349.789908 34.3018349 360.477064 34.3119266 371.154128 34.3119266 381.841284 34.3220183 392.52844 34.3220183 392.52844 33.7165138 392.52844 33.1009174 392.52844 32.4853211 392.52844 31.8697248 392.52844 31.2541284 392.52844 30.6385321 392.52844 30.0229358 392.52844 29.4073394 392.52844 28.8018349 392.52844 28.1862385 392.52844 27.5706422 392.52844 26.9550459 392.538532 26.3394495 392.538532 25.7238532 392.538532 25.1082569"></polygon>
            <polygon id="Path" fill="#14375A" fill-rule="nonzero" points="392.538532 14.7642202 381.851376 14.7642202 371.16422 14.7541284 360.487156 14.7541284 349.8 14.7440367 339.112844 14.7440367 328.425688 14.733945 317.738532 14.7238532 307.051376 14.7238532 296.36422 14.7137615 285.677064 14.7137615 275 14.7036697 264.312844 14.7036697 253.625688 14.693578 242.938532 14.693578 232.251376 14.6834862 221.56422 14.6834862 221.56422 15.2889908 221.56422 15.9045872 221.56422 16.5201835 221.56422 17.1357798 221.56422 17.7513761 221.56422 18.3669725 221.56422 18.9825688 221.56422 19.5981651 221.56422 20.2137615 221.56422 20.8293578 221.56422 21.4348624 221.56422 22.0504587 221.56422 22.666055 221.56422 23.2816514 221.56422 23.8972477 221.56422 24.512844 232.251376 24.512844 242.92844 24.5229358 253.615596 24.5229358 264.302752 24.5330275 274.989908 24.5431193 285.677064 24.5431193 296.36422 24.553211 307.051376 24.553211 317.738532 24.5633028 328.425688 24.5633028 339.102752 24.5733945 349.789908 24.5733945 360.477064 24.5834862 371.16422 24.5834862 381.851376 24.593578 392.538532 24.593578 392.538532 23.9880734 392.538532 23.3724771 392.538532 22.7568807 392.538532 22.1412844 392.538532 21.5256881 392.538532 20.9100917 392.538532 20.2944954 392.538532 19.6788991 392.538532 19.0633028 392.538532 18.4577982 392.538532 17.8422018 392.538532 17.2266055 392.538532 16.6110092 392.538532 15.9954128 392.538532 15.3798165"></polygon>
            <path d="M272.638532,87.3944954 C272.715757,86.6750205 272.484066,85.9565677 272.001062,85.4177587 C271.518058,84.8789497 270.82911,84.570395 270.105505,84.5688073 C268.407835,84.2213595 266.688113,83.9920633 264.958716,83.8825688 C261.305505,83.8825688 259.226606,82.3587156 258.227523,78.8366972 C257.86422,77.5247706 257.813761,76.7174312 258.681651,75.6880734 C260.255963,73.8211009 261.709174,71.8330275 263.222936,69.9256881 C264.454128,68.4119266 264.595413,66.8981651 263.172477,65.5055046 C260.23578,62.4779817 257.309174,59.5513761 254.342202,56.6045872 C253.191743,55.4743119 251.970642,55.5954128 250.729358,56.6045872 C248.933028,58.0174312 246.965138,59.2385321 245.279817,60.7724771 C243.594495,62.306422 242.070642,62.5082569 239.86055,61.5192661 C237.842202,60.6211009 236.954128,59.5513761 236.772477,57.4825688 C236.570642,55.040367 236.03578,52.6385321 235.763303,50.2165138 C235.776224,49.4932515 235.471757,48.800608 234.930135,48.3211075 C234.388513,47.841607 233.664068,47.6233507 232.947706,47.7238532 L220.837615,47.7238532 C220.138684,47.6391038 219.435777,47.8467258 218.895067,48.2976359 C218.354357,48.7485459 218.02384,49.4027192 217.981651,50.1055046 C217.588073,52.8302752 216.972477,55.5449541 216.770642,58.2899083 C216.63945,59.8944954 215.761468,60.3990826 214.56055,61.1458716 C211.89633,62.7302752 209.86789,62.3972477 207.758716,60.2073394 C206.342778,58.9546096 204.860517,57.7789069 203.318349,56.6853211 C202.801862,56.1158244 202.068821,55.7910269 201.3,55.7910269 C200.531179,55.7910269 199.798138,56.1158244 199.281651,56.6853211 C196.18685,59.712844 193.129052,62.7840979 190.108257,65.8990826 C189.008257,67.0293578 189.099083,68.2706422 190.108257,69.4917431 C191.132248,70.8921492 192.22694,72.2394622 193.388073,73.5284404 C195.890826,75.9302752 196.244037,78.3724771 194.397248,81.3697248 C193.968498,82.3529391 193.04245,83.0281825 191.975229,83.1357798 C189.159633,83.4486239 186.36422,83.9733945 183.548624,84.346789 C182.864915,84.3552316 182.215778,84.6487415 181.757837,85.1565003 C181.299896,85.6642591 181.074741,86.3401528 181.136697,87.0211009 C181.136697,91.1318043 181.136697,95.2357798 181.136697,99.3330275 C181.060035,100.055243 181.300881,100.775142 181.796706,101.30583 C182.292531,101.836518 182.994431,102.125651 183.720183,102.098165 C185.343975,102.411817 186.985166,102.627498 188.634862,102.744037 C192.368807,102.643119 194.52844,104.207339 195.537615,107.870642 C195.900917,109.192661 195.941284,110.010092 195.093578,111.029358 C193.53945,112.906422 192.126606,114.914679 190.562385,116.791743 C189.905774,117.390315 189.545241,118.247102 189.576329,119.135056 C189.607417,120.023009 190.026987,120.852484 190.723853,121.40367 C192.510092,123.210092 194.316514,125.006422 196.122936,126.792661 C197.179205,127.828746 198.228746,128.87156 199.27156,129.921101 C200.583486,131.243119 201.855046,131.13211 203.257798,130.03211 C205.356881,128.366972 207.516514,126.772477 209.655963,125.147706 C211.573394,123.694495 216.316514,125.531193 216.720183,127.933028 C217.194495,130.809174 217.648624,133.695413 218.001835,136.591743 C217.995433,137.314688 218.308366,138.003619 218.857014,138.474445 C219.405662,138.94527 220.13411,139.150006 220.847706,139.033945 L226.852294,139.033945 C228.870642,139.033945 230.888991,139.033945 232.907339,139.033945 C233.580665,139.153332 234.27289,138.978799 234.809121,138.554444 C235.345351,138.130089 235.674295,137.496502 235.712844,136.813761 C236.170446,134.821313 236.477429,132.797247 236.631193,130.758716 C236.631193,127.478899 237.963303,125.642202 241.142202,124.70367 C242.18881,124.217908 243.424409,124.404638 244.280734,125.177982 C246.208257,126.812844 248.317431,128.276147 250.214679,129.880734 C251.637615,131.061468 253.070642,131.313761 254.433028,129.97156 C255.966972,128.46789 257.46055,126.944037 259.004587,125.420183 C260.548624,123.89633 262.173394,122.200917 263.747706,120.586239 C264.817431,119.486239 264.555046,118.305505 263.656881,117.185321 C262.516884,115.574409 261.280048,114.034262 259.953211,112.573394 C257.763303,110.444037 257.531193,108.415596 259.095413,105.751376 C259.892661,104.388991 260.508257,103.57156 262.122936,103.440367 C264.716514,103.22844 267.279817,102.713761 269.863303,102.370642 C271.619266,102.148624 272.547706,101.300917 272.527523,99.433945 C272.598165,95.4477064 272.618349,91.4211009 272.638532,87.3944954 Z M237.751376,104.136697 C234.916402,106.979446 231.078761,108.595677 227.06422,108.637615 L226.872477,108.637615 C223.775081,108.65892 220.746979,107.72123 218.20367,105.953211 C214.108194,103.098151 211.654585,98.431778 211.623853,93.4394495 C211.59431,89.4015239 213.170779,85.5173983 216.006157,82.6422723 C218.841535,79.7671464 222.703339,78.1367611 226.741284,78.110067 L226.912844,78.110067 C233.083836,78.0990075 238.653986,81.8059943 241.026351,87.5027608 C243.398715,93.1995274 242.106187,99.7644113 237.751376,104.136697 L237.751376,104.136697 Z" id="Shape" fill="#1999D6" fill-rule="nonzero"></path>
            <polygon id="Path" points="38.9238532 290.198165 116.246789 290.198165 38.9238532 212.875229"></polygon>
            <path d="M204.044954,322.93578 L3.48165138,122.382569 C3.57495171,122.609929 3.62294503,122.853324 3.62293578,123.099083 C3.6433802,124.028167 2.97026447,124.827726 2.05129351,124.965956 C1.13232254,125.104185 0.253777881,124.538023 2.624445e-12,123.644037 L2.624445e-12,325.216514 C2.624445e-12,326.251392 0.411789933,327.243738 1.14450566,327.974561 C1.87722139,328.705383 2.87062945,329.114608 3.90550459,329.112069 L201.491743,329.112069 C202.961416,329.124962 204.291668,328.243958 204.853165,326.885714 C205.414662,325.527469 205.094819,323.964318 204.044954,322.93578 L204.044954,322.93578 Z M38.9238532,290.198165 L38.9238532,212.875229 L116.246789,290.198165 L38.9238532,290.198165 Z" id="Shape" fill="#21A6DF" fill-rule="nonzero"></path>
            <path d="M1.76605505,124.955963 C2.78375125,124.956023 3.61187387,124.136902 3.62293578,123.119266 C3.62293578,122.873507 3.57495171,122.630112 3.48165138,122.402752 L2.47247706,121.393578 C2.24573647,121.297065 2.00236558,121.245649 1.7559633,121.242202 C0.943574283,121.248676 0.230824317,121.785286 -1.76374715e-12,122.56422 L-1.76374715e-12,123.644037 C0.235560769,124.422531 0.952702976,124.955265 1.76605505,124.955963 L1.76605505,124.955963 Z" id="Path" fill="#FFFFFF" fill-rule="nonzero"></path>
            <polygon id="Path" points="38.9238532 212.875229 38.9238532 290.198165 116.246789 290.198165"></polygon>
            <path d="M204.044954,322.93578 L3.48165138,122.382569 L2.47247706,121.373394 C2.24573647,121.276882 2.00236558,121.225466 1.7559633,121.222018 C0.937976618,121.231138 0.223456682,121.777294 2.624445e-12,122.56422 L2.624445e-12,148.166972 L180.944954,329.112069 L201.491743,329.112069 C202.961416,329.124962 204.291668,328.243958 204.853165,326.885714 C205.414662,325.527469 205.094819,323.964318 204.044954,322.93578 L204.044954,322.93578 Z" id="Path" fill="#67BCE4" fill-rule="nonzero"></path>
        </g>
    </g>
</svg>