<?xml version="1.0" encoding="UTF-8"?>
<svg width="440px" height="330px" viewBox="0 0 440 330" version="1.1" xmlns="http://www.w3.org/2000/svg" xmlns:xlink="http://www.w3.org/1999/xlink">
    <title>Graphic elements / Icons / Rich icons / discount</title>
    <defs>
        <linearGradient x1="0%" y1="50.0039491%" x2="100%" y2="50.0039491%" id="linearGradient-1">
            <stop stop-color="#FFFFFF" offset="0%"></stop>
            <stop stop-color="#0E183F" offset="100%"></stop>
        </linearGradient>
    </defs>
    <g id="Graphic-elements-/-Icons-/-Rich-icons-/-discount" stroke="none" stroke-width="1" fill="none" fill-rule="evenodd">
        <g id="Discount" transform="translate(69.000000, 0.000000)" fill-rule="nonzero">
            <path d="M289,161.928758 L284.477577,116.402496 L279.897908,70.8647026 L266.765708,57.8917937 L253.576262,44.9188848 L208.283337,41.4594424 L162.978964,38 L81.4952064,122.052918 L0,206.059711 L62.9704461,268.029855 L125.940892,330 L207.424649,245.947082 L289,161.928758 Z M245.321409,99.2205987 C238.768287,100.605835 232.156098,97.1362775 229.527969,90.9334407 C226.899839,84.7306039 228.987591,77.5217128 234.514636,73.7147565 C240.04168,69.9078002 247.468972,70.5628533 252.254977,75.2793732 C257.040982,79.9958932 257.853003,87.460531 254.194517,93.1089171 C252.162867,96.2549318 248.96915,98.4547226 245.321409,99.2205987 L245.321409,99.2205987 Z" id="Shape" fill="url(#linearGradient-1)" opacity="0.2" style="mix-blend-mode: multiply;"></path>
            <path d="M291,144.897655 L286.477577,99.3785833 L281.955154,53.8479823 L268.765708,40.9347706 L255.576262,27.917792 L210.271888,24.458896 L164.967514,21 L83.4837572,105.039643 L2,189.090816 L64.9704461,251.051173 L127.940892,313 L209.424649,228.960357 L291,144.897655 Z M247.321409,82.2109295 C240.758699,83.6136461 234.12615,80.1515387 231.481346,73.9426158 C228.836541,67.733693 230.916429,60.5080046 236.448598,56.686 C241.980768,52.8639955 249.423739,53.5106355 254.224136,58.2303259 C259.024534,62.9500163 259.844777,70.427666 256.183068,76.0886836 C254.149856,79.2297255 250.963297,81.4312208 247.321409,82.2109295 L247.321409,82.2109295 Z" id="Shape" fill="#FFFFFF"></path>
            <path d="M254.790033,58.9735454 C255.857398,59.9389022 256.770861,61.061967 257.498716,62.3037598 C258.242715,63.5982912 258.780938,65.00073 259.094085,66.460786 C260.407789,72.6780552 257.395928,79.0051407 251.743292,81.9027644 C246.090657,84.800388 239.198637,83.5501767 234.922527,78.8514801 L149.461264,164.357605 L64,249.840762 L96.3090863,281.408898 L128.62965,313 L210.314825,229.296785 L292,145.593569 L287.409011,100.245236 L282.932796,54.9083872 L276.838258,48.9599354 L270.755198,43 L262.720967,50.981031 L254.790033,58.9735454 Z" id="Path" fill="#9DADB7" opacity="0.08" style="mix-blend-mode: multiply;"></path>
            <polygon id="Path" fill="#0099DA" points="179.385918 113 154.687196 156.994237 130 201 137.307041 201 144.614082 201 169.312804 156.994237 194 113 186.692959 113"></polygon>
            <path d="M209.424188,153.233875 C207.662058,150.902257 205.350379,149.040773 202.694299,147.81462 C199.849636,146.564429 196.766484,145.94671 193.658692,146.004308 C190.449198,145.94267 187.261527,146.543072 184.295368,147.767902 C181.623549,148.92971 179.288683,150.745452 177.506959,153.047004 C175.549372,155.668908 174.147581,158.661292 173.387096,161.841616 C172.40503,165.861936 171.940921,169.990848 172.006006,174.128376 C171.948758,178.128256 172.421005,182.118169 173.410505,185.994678 C174.207034,189.168016 175.631683,192.150282 177.600592,194.76593 C179.387427,197.109304 181.727577,198.975062 184.41241,200.196865 C187.331169,201.446015 190.483464,202.059215 193.658692,201.995498 C200.759212,201.995498 206.092405,199.659611 209.658271,194.987839 C213.224136,190.316067 215.003168,183.34734 214.995365,174.081659 C215.052318,170.020891 214.584192,165.969749 213.602571,162.028486 C212.799893,158.852355 211.380262,155.864333 209.424188,153.233875 Z M198.012637,185.504142 C197.659872,186.582134 197.035137,187.551443 196.198493,188.318884 C195.449879,188.939304 194.502912,189.270871 193.529946,189.253239 C191.555845,189.253239 190.073319,187.980181 189.082367,185.434065 C188.087514,182.899629 187.59594,179.080455 187.59594,173.999903 C187.59594,168.91935 188.087514,165.04178 189.082367,162.472305 C190.07722,159.90283 191.551944,158.629772 193.529946,158.629772 C194.507502,158.608953 195.45815,158.950131 196.198493,159.587485 C197.040656,160.368997 197.665658,161.354817 198.012637,162.448946 C198.541191,164.000419 198.890674,165.606992 199.054307,167.237512 C199.522448,171.729767 199.522448,176.258359 199.054307,180.750613 C198.891079,182.369769 198.541554,183.964784 198.012637,185.504142 L198.012637,185.504142 Z" id="Shape" fill="#0099DA"></path>
            <path d="M152.995447,140.088243 C153.051837,136.038704 152.584183,131.99888 151.604125,128.069317 C150.810691,124.879714 149.391948,121.879349 147.430159,119.242188 C145.676625,116.901644 143.365593,115.036776 140.707385,113.817304 C137.867446,112.560398 134.786343,111.941794 131.681329,112.005111 C128.474747,111.937635 125.28927,112.538882 122.327904,113.770537 C119.658389,114.932677 117.325789,116.750462 115.54667,119.055123 C113.591467,121.671273 112.19103,124.659082 111.431163,127.835486 C110.434942,131.842167 109.955583,135.959866 110.004766,140.088243 C109.946757,144.092319 110.418518,148.086485 111.40778,151.96687 C112.207337,155.145692 113.630058,158.134146 115.593438,160.758924 C117.378747,163.101484 119.716585,164.965292 122.398055,166.183809 C125.312848,167.438266 128.461845,168.056095 131.634562,167.996001 C138.735371,167.996001 144.062926,165.657689 147.617228,160.981064 C151.171529,156.304439 152.964269,149.340166 152.995447,140.088243 Z M125.624986,139.971327 C125.624986,134.842629 126.119938,130.996105 127.109843,128.431756 C128.091952,125.859612 129.576809,124.585232 131.55272,124.585232 C132.527009,124.565535 133.474957,124.902299 134.218446,125.532248 C135.060963,126.313538 135.685527,127.300734 136.030672,128.396681 C136.562851,129.952612 136.912058,131.565213 137.071241,133.201913 C137.538918,137.694925 137.538918,142.224347 137.071241,146.717359 C136.913897,148.339099 136.564597,149.93643 136.030672,151.475824 C135.682657,152.55701 135.057909,153.528375 134.218446,154.293491 C133.470623,154.914555 132.524657,155.246466 131.55272,155.228816 C129.580706,155.228816 128.099747,153.958333 127.109843,151.417366 C126.119938,148.8764 125.624986,145.061054 125.624986,139.971327 Z" id="Shape" fill="#0099DA"></path>
            <path d="M259.134468,65.2038462 C259.492654,66.8662772 259.523817,68.5832078 259.226199,70.2576923 C258.53525,74.2353842 256.29373,77.7704475 253,80.0769231 L269.5,83.5384615 L286,87 L284.474983,70.3153846 L282.949965,53.5961538 L281.482279,52.2692308 L280.02606,51 L269.580264,58.1192308 L259.134468,65.2038462 Z" id="Path" fill="#8F9C9B" opacity="0.5" style="mix-blend-mode: multiply;"></path>
            <polygon id="Path" fill="#0099DA" points="152 288 140.347155 300.494045 128.694311 313 116.347155 300.744164 104 288.488328 128 288.238209"></polygon>
            <path d="M245.402074,76 C241.199329,75.971351 237.65475,72.8295335 237.080097,68.6233224 C236.505443,64.4171114 239.075066,60.4226892 243.11307,59.2451999 C255.004448,55.7763601 264.400812,47.6824007 271.393721,37.8308959 C277.98432,28.4311721 282.706842,17.8286841 285.299423,6.61133815 C286.074464,3.24135892 288.784441,0.676110248 292.163435,0.113902495 C295.542429,-0.448305259 298.923529,1.10349082 300.727313,4.04439674 C301.90878,5.96986898 302.287365,8.28969817 301.780255,10.4964387 C297.270917,30.0260064 288.82449,44.8379521 278.970326,55.5104158 C269.116161,66.1828794 257.842814,72.7274237 247.748304,75.6643747 C247.372923,75.7751675 246.990548,75.8601557 246.603802,75.9187563 C246.205803,75.9761607 245.804093,76.003217 245.402074,76 L245.402074,76 Z" id="Path" fill="#9E9D8E"></path>
        </g>
    </g>
</svg>