<?xml version="1.0" encoding="UTF-8"?>
<svg width="440px" height="330px" viewBox="0 0 440 330" version="1.1" xmlns="http://www.w3.org/2000/svg" xmlns:xlink="http://www.w3.org/1999/xlink">
    <title>Graphic elements / Icons / Rich icons / documentation</title>
    <defs>
        <linearGradient x1="98.4444444%" y1="50%" x2="0.0555555556%" y2="50%" id="linearGradient-1">
            <stop stop-color="#CFCFCC" offset="0%"></stop>
            <stop stop-color="#FFFFFF" offset="23%"></stop>
        </linearGradient>
        <linearGradient x1="-0.119396993%" y1="49.9974924%" x2="100.771062%" y2="49.9974924%" id="linearGradient-2">
            <stop stop-color="#161D34" offset="30%"></stop>
            <stop stop-color="#193559" offset="100%"></stop>
        </linearGradient>
    </defs>
    <g id="Graphic-elements-/-Icons-/-Rich-icons-/-documentation" stroke="none" stroke-width="1" fill="none" fill-rule="evenodd">
        <g id="Documentation" transform="translate(27.000000, 0.000000)" fill-rule="nonzero">
            <path d="M183.177049,329.783678 C152.837138,329.812244 123.119578,321.178874 97.5177049,304.898361 L96.5331148,304.24918 L97.1390164,303.340328 L98.1127869,303.989508 C123.535155,320.160534 153.047366,328.734165 183.177049,328.701639 C270.93541,328.701639 342.334426,257.291803 342.334426,169.544262 C342.334426,81.7967213 270.93541,10.2786885 183.177049,10.2786885 C106.750792,10.2716374 41.1106479,64.5924788 26.8219672,139.671148 L25.74,139.476393 C40.1239801,63.8772821 106.22171,9.18119508 183.177049,9.19671801 C271.57377,9.19671801 343.416393,81.147541 343.416393,169.544262 C343.416393,257.940984 271.57377,329.783678 183.177049,329.783678 Z" id="Path" fill="#66C0E7"></path>
            <path d="M39.4485246,146.325207 C39.0506546,146.322363 38.6680895,146.478399 38.3857317,146.758725 C38.1033739,147.039052 37.9445902,147.42048 37.9445902,147.818361 L37.9445902,185.687213 C37.9445902,186.085094 38.1033739,186.466522 38.3857317,186.746849 C38.6680895,187.027175 39.0506546,187.183211 39.4485246,187.180367 L66.4977049,187.180367 C66.8937036,187.180367 67.2734832,187.023018 67.5534965,186.743005 C67.8335098,186.462991 67.9908197,186.083212 67.9908197,185.687213 L67.9908197,147.818361 C67.9908197,146.993736 67.3223294,146.325207 66.4977049,146.325207 L39.4485246,146.325207 Z" id="Path" fill="#CFD6D9"></path>
            <path d="M1.94754098,140.22292 C1.43013782,140.220052 0.933087174,140.424308 0.567222146,140.790173 C0.201357118,141.156038 -0.00289868553,141.653089 -3.04363103e-05,142.170492 L-3.04363103e-05,191.291803 C-0.00289868553,191.809206 0.201357118,192.306257 0.567222146,192.672122 C0.933087174,193.037987 1.43013782,193.242243 1.94754098,193.239375 L37.1114754,193.239375 C37.6288786,193.242243 38.1259292,193.037987 38.4917942,192.672122 C38.8576593,192.306257 39.0619151,191.809206 39.0590468,191.291803 L39.0590468,142.170492 C39.0619151,141.653089 38.8576593,141.156038 38.4917942,140.790173 C38.1259292,140.424308 37.6288786,140.220052 37.1114754,140.22292 L1.94754098,140.22292 Z" id="Path" fill="#F2F4F5"></path>
            <path d="M67.0170492,279.84 C44.5802408,256.316153 29.8814864,226.488216 24.8960656,194.36459 L25.9780328,194.191475 C30.9202752,226.114356 45.5129711,255.760371 67.7960656,279.147541 L67.0170492,279.84 Z" id="Path" fill="#66C0E7"></path>
            <circle id="Oval" fill="#FFE700" cx="319.288525" cy="254.695082" r="5.30163934"></circle>
            <rect id="Rectangle" fill="#0099DA" x="318.963934" y="252.098361" width="1" height="5.19344262"></rect>
            <rect id="Rectangle" fill="#0099DA" x="316.691803" y="254.370492" width="5.19344262" height="1"></rect>
            <circle id="Oval" fill="#0099DA" cx="148.337705" cy="13.7409836" r="3.27836066"></circle>
            <circle id="Oval" fill="#FFE700" cx="39.7081967" cy="240.088525" r="6.68655738"></circle>
            <circle id="Oval" fill="#0099DA" cx="318.401311" cy="83.9822951" r="6.42688525"></circle>
            <circle id="Oval" fill="#023852" cx="79.6327869" cy="47.1737705" r="16.8786885"></circle>
            <rect id="Rectangle" fill="#F4F6F7" x="71.9508197" y="39.7081967" width="3.0295082" height="15.0393443"></rect>
            <rect id="Rectangle" fill="#F4F6F7" x="84.3934426" y="41.3311475" width="3.0295082" height="13.4163934"></rect>
            <rect id="Rectangle" fill="#F4F6F7" x="76.1704918" y="43.3868852" width="3.0295082" height="11.3606557"></rect>
            <rect id="Rectangle" fill="#F4F6F7" x="80.3901639" y="47.0655738" width="3.0295082" height="7.68196721"></rect>
            <path d="M277.957377,54.747541 C277.974969,55.1070801 277.847342,55.4586071 277.603182,55.7231137 C277.359022,55.9876204 277.018812,56.1429166 276.659016,56.1540984 L247.878689,56.1540984 C247.518893,56.1429166 247.178683,55.9876204 246.934523,55.7231137 C246.690363,55.4586071 246.562736,55.1070801 246.580328,54.747541 L246.580328,12.0098056 L275.793443,12.0098056 C276.310846,12.0069374 276.807896,12.2111932 277.173761,12.5770582 C277.539626,12.9429232 277.743882,13.4399739 277.740984,13.957377 L277.740984,54.747541 L277.957377,54.747541 Z" id="Path" fill="#003A5D" opacity="0.300000012"></path>
            <polygon id="Path" fill="#0099DA" points="18.8262295 172.681967 23.1540984 160.888525 21.9639344 160.888525 17.6360656 172.57377"></polygon>
            <polygon id="Path" fill="#0099DA" points="24.1278689 160.888525 24.1278689 162.403279 28.347541 166.731148 24.1278689 170.842623 24.1278689 172.465574 29.8622951 166.731148"></polygon>
            <polygon id="Path" fill="#0099DA" points="16.7704918 172.465574 16.7704918 170.842623 12.442623 166.731148 16.7704918 162.403279 16.7704918 160.888525 10.9278689 166.731148"></polygon>
            <path d="M292.282623,282.82623 C292.311839,284.368445 293.422374,285.677092 294.939289,285.956828 C296.456203,286.236563 297.960473,285.410114 298.537862,283.979763 C299.115252,282.549412 298.606266,280.910272 297.320246,280.058548 C296.034226,279.206823 294.326415,279.37779 293.234754,280.467541 C292.666634,281.127675 292.331986,281.956689 292.282623,282.82623 Z" id="Path" fill="#0099DA"></path>
            <path d="M49.4459016,161.754098 L49.4459016,171.059016 C49.4459016,171.087712 49.4573009,171.115232 49.4775917,171.135523 C49.4978825,171.155814 49.5254028,171.167213 49.5540984,171.167213 L49.6622951,171.167213 L53.6655738,168.786885 L57.6688525,166.406557 C57.6688525,166.406557 57.7770492,166.298361 57.6688525,166.298361 C57.6688525,166.238605 57.6204111,166.190164 57.5606557,166.190164 L53.557377,163.809836 L49.5540984,161.429508 C49.5540984,161.645902 49.4459016,161.645902 49.4459016,161.754098 L49.4459016,161.754098 Z" id="Path" fill="#0099DA"></path>
            <path d="M377.931148,120.206557 C377.931148,120.098361 377.931148,120.098361 378.039344,119.990164 C378.147541,119.881967 378.363934,119.881967 378.472131,119.881967 L384.639344,119.77377 C384.747541,119.77377 384.747541,119.665574 384.747541,119.557377 L384.747541,119.557377 C384.747541,119.497622 384.6991,119.44918 384.639344,119.44918 L378.472131,119.340984 C378.255738,119.340984 378.147541,119.340984 378.039344,119.232787 C377.931148,119.12459 377.931148,119.12459 377.931148,119.016393 C377.931148,118.908197 378.039344,118.691803 378.147541,118.583607 L380.311475,116.311475 C380.340554,116.282985 380.35694,116.243988 380.35694,116.203279 C380.35694,116.162569 380.340554,116.123573 380.311475,116.095082 L380.095082,116.095082 L377.822951,118.259016 C377.714754,118.367213 377.606557,118.47541 377.498361,118.47541 C377.390164,118.47541 377.390164,118.47541 377.281967,118.367213 C377.17377,118.259016 377.17377,118.15082 377.17377,117.934426 L377.065574,111.659016 C377.065574,111.599261 377.017132,111.55082 376.957377,111.55082 L376.957377,111.55082 C376.897622,111.55082 376.84918,111.599261 376.84918,111.659016 L376.740984,117.934426 C376.757174,118.08694 376.718844,118.240261 376.632787,118.367213 C376.632787,118.47541 376.52459,118.47541 376.416393,118.47541 C376.308197,118.47541 376.091803,118.367213 375.983607,118.259016 L373.711475,116.095082 L373.495082,116.095082 C373.466004,116.123573 373.449617,116.162569 373.449617,116.203279 C373.449617,116.243988 373.466004,116.282985 373.495082,116.311475 L375.659016,118.583607 C375.792667,118.6879 375.872165,118.846897 375.87541,119.016393 C375.87541,119.12459 375.87541,119.12459 375.767213,119.232787 C375.640261,119.318844 375.48694,119.357174 375.334426,119.340984 L369.059016,119.44918 C368.95082,119.44918 368.95082,119.557377 368.95082,119.665574 L368.95082,119.665574 C368.95082,119.725329 368.999261,119.77377 369.059016,119.77377 L375.334426,119.881967 C375.48694,119.865777 375.640261,119.904107 375.767213,119.990164 C375.87541,119.990164 375.87541,120.098361 375.87541,120.206557 C375.87541,120.314754 375.767213,120.422951 375.659016,120.531148 L373.495082,122.803279 C373.466004,122.83177 373.449617,122.870766 373.449617,122.911475 C373.449617,122.952185 373.466004,122.991181 373.495082,123.019672 L373.711475,123.019672 L375.983607,120.855738 C376.091803,120.747541 376.2,120.639344 376.308197,120.639344 C376.416393,120.639344 376.416393,120.639344 376.52459,120.747541 C376.610647,120.874493 376.648977,121.027814 376.632787,121.180328 L376.740984,127.455738 C376.740984,127.515493 376.789425,127.563934 376.84918,127.563934 L376.84918,127.563934 C376.908936,127.563934 376.957377,127.515493 376.957377,127.455738 L377.065574,121.180328 C377.065574,120.963934 377.065574,120.855738 377.17377,120.747541 C377.281967,120.639344 377.281967,120.639344 377.390164,120.639344 C377.498361,120.639344 377.606557,120.747541 377.714754,120.855738 L379.986885,123.019672 L380.203279,123.019672 C380.232357,122.991181 380.248743,122.952185 380.248743,122.911475 C380.248743,122.870766 380.232357,122.83177 380.203279,122.803279 L378.039344,120.531148 C378.05366,120.412212 378.013962,120.293116 377.931148,120.206557 Z" id="Path" fill="#F4F6F7"></path>
            <path d="M379.770492,149.744262 L379.770492,145.632787 C379.836924,144.820683 379.348346,144.065608 378.580328,143.793443 C378.340319,143.696712 378.080444,143.659587 377.822951,143.685246 L341.793443,143.685246 C341.571911,143.694204 341.350914,143.657371 341.144262,143.577049 C340.588206,143.444433 340.138952,143.03602 339.954098,142.495082 L339.629508,141.629508 L338.547541,139.57377 L337.57377,137.518033 L337.24918,136.652459 C336.96335,136.186021 336.550504,135.810706 336.059016,135.570492 C335.842623,135.570492 335.734426,135.462157 335.409836,135.462157 L316.367213,135.462157 C315.268399,135.449613 314.358163,136.311941 314.311475,137.409836 L314.311475,141.196721 C313.584654,141.519044 313.117513,142.240989 313.121311,143.036066 L313.121311,188.154098 L313.013115,188.154098 L313.013115,194.537705 C313.067457,195.649771 313.956787,196.5391 315.068852,196.593443 L378.904918,196.701639 C379.197644,196.7192 379.491095,196.682519 379.770492,196.593443 C380.572971,196.285887 381.093601,195.504943 381.068852,194.645902 L381.068852,151.15082 C380.766093,150.576792 380.318504,150.091903 379.770492,149.744262 L379.770492,149.744262 Z" id="Path" fill="#DFE4E6" style="mix-blend-mode: multiply;"></path>
            <path d="M337.898361,139.032787 C337.141216,139.008146 336.448421,138.60062 336.059016,137.95082 L335.734426,137.085246 L334.760656,135.029508 L333.786885,132.97377 L333.462295,132.108197 C333.127828,131.405612 332.39954,130.977207 331.622951,131.02623 L312.580328,131.02623 C311.481513,131.013547 310.571278,131.875875 310.524452,132.97377 L310.524452,132.97377 L310.524452,182.311475 C310.511908,183.41029 311.374236,184.320525 312.472131,184.367351 L374.144262,184.367351 C375.243077,184.379896 376.153312,183.517568 376.200138,182.419672 L376.200138,140.655738 C376.212683,139.556923 375.350355,138.646688 374.252459,138.6 L346.662295,138.6 L337.898361,139.032787 Z" id="Path" fill="#A5B1B8"></path>
            <polygon id="Rectangle" fill="#F4F6F7" transform="translate(343.030273, 147.784668) rotate(-89.900000) translate(-343.030273, -147.784668) " points="337.241748 117.922373 348.818797 117.922373 348.818797 177.646963 337.241748 177.646963"></polygon>
            <path d="M337.57377,144.87541 C336.761667,144.941842 336.006591,144.453264 335.734426,143.685246 L335.409836,142.819672 L334.436066,140.763934 L333.462295,138.708197 L333.137705,137.842623 C332.815382,137.115802 332.093437,136.648661 331.298361,136.652436 L311.498361,136.652436 C310.386295,136.706802 309.496966,137.596131 309.442623,138.708197 L309.442623,138.708197 L309.442623,189.993443 C309.496966,191.105508 310.386295,191.994838 311.498361,192.04918 L375.334426,192.04918 C376.446492,191.994838 377.335821,191.105508 377.390164,189.993443 L377.390164,146.498361 C377.335821,145.386295 376.446492,144.496966 375.334426,144.442623 L346.878689,144.442623 L337.57377,144.87541 Z" id="Path" fill="#CFD6D9"></path>
            <polygon id="Rectangle" fill="#0097D7" style="mix-blend-mode: multiply;" transform="translate(344.710203, 165.234802) rotate(-89.900000) translate(-344.710203, -165.234802) " points="344.16922 145.056114 345.251187 145.056114 345.251187 185.413491 344.16922 185.413491"></polygon>
            <polygon id="Rectangle" fill="#0097D7" style="mix-blend-mode: multiply;" transform="translate(337.480864, 167.586758) rotate(-89.900000) translate(-337.480864, -167.586758) " points="336.939881 154.603151 338.021848 154.603151 338.021848 180.570365 336.939881 180.570365"></polygon>
            <polygon id="Rectangle" fill="#0097D7" style="mix-blend-mode: multiply;" transform="translate(337.567569, 169.906228) rotate(-89.900000) translate(-337.567569, -169.906228) " points="337.026585 156.922621 338.108553 156.922621 338.108553 182.889835 337.026585 182.889835"></polygon>
            <path d="M243.767213,56.695082 L278.281967,56.695082 C278.936828,56.6892084 279.466258,56.1597791 279.472131,55.504918 L279.472131,7.89836066 C279.466258,7.2434996 278.936828,6.71407027 278.281967,6.70819672 L243.767213,6.70819672 C243.112352,6.71407027 242.582923,7.2434996 242.577049,7.89836066 L242.577049,55.3967213 C242.360656,56.0459016 243.009836,56.695082 243.767213,56.695082 Z" id="Path" fill="#0099DA"></path>
            <rect id="Rectangle" fill="#F4F6F7" x="248.960656" y="33.3245902" width="24.3442623" height="1"></rect>
            <rect id="Rectangle" fill="#F4F6F7" x="248.960656" y="42.1967213" width="24.3442623" height="1"></rect>
            <rect id="Rectangle" fill="#F4F6F7" x="248.960656" y="37.5442623" width="18.6098361" height="1"></rect>
            <rect id="Rectangle" fill="#F4F6F7" x="248.960656" y="46.6327869" width="18.6098361" height="1"></rect>
            <rect id="Rectangle" fill="#F4F6F7" x="248.960656" y="15.7967213" width="24.3442623" height="1"></rect>
            <rect id="Rectangle" fill="#F4F6F7" x="248.960656" y="24.8852459" width="24.3442623" height="1"></rect>
            <rect id="Rectangle" fill="#F4F6F7" x="248.960656" y="20.1245902" width="18.6098361" height="1"></rect>
            <rect id="Rectangle" fill="#F4F6F7" x="248.960656" y="29.104918" width="18.6098361" height="1"></rect>
            <path d="M228.511475,49.9868852 L263.02623,49.9868852 C263.681091,49.9810117 264.21052,49.4515824 264.216393,48.7967213 L264.216393,1.19016393 C264.21052,0.535302876 263.681091,0.00587354664 263.02623,0 L228.511475,0 C227.856614,0.00587354664 227.327185,0.535302876 227.321311,1.19016393 L227.321311,48.6885246 C227.248799,49.0304798 227.345961,49.3864004 227.582167,49.6440792 C227.818373,49.901758 228.164517,50.0294448 228.511475,49.9868852 Z" id="Path" fill="#F2F4F5"></path>
            <rect id="Rectangle" fill="#0099DA" x="233.813115" y="25.3180328" width="24.3442623" height="1"></rect>
            <rect id="Rectangle" fill="#0099DA" x="233.813115" y="34.6229508" width="24.3442623" height="1"></rect>
            <rect id="Rectangle" fill="#0099DA" x="233.813115" y="30.0786885" width="18.6098361" height="1"></rect>
            <rect id="Rectangle" fill="#0099DA" x="233.813115" y="11.4688525" width="24.3442623" height="1"></rect>
            <rect id="Rectangle" fill="#0099DA" x="233.813115" y="20.7737705" width="24.3442623" height="1"></rect>
            <rect id="Rectangle" fill="#0099DA" x="233.813115" y="16.0131148" width="18.6098361" height="1"></rect>
            <rect id="Rectangle" fill="#0099DA" x="233.813115" y="39.3836066" width="18.6098361" height="1"></rect>
            <path d="M208.711475,194.104918 C194.068198,208.729821 170.714876,209.849557 154.739532,196.692744 C138.764187,183.535931 135.386201,160.401095 146.932657,143.225742 C158.479112,126.05039 181.17761,120.445964 199.391237,130.273333 C217.604863,140.100702 225.382955,162.149119 217.367213,181.229508 C215.304075,186.020236 212.369052,190.386082 208.711475,194.104918 Z" id="Path" fill="#003A5D" opacity="0.300000012"></path>
            <path d="M224.6168,161.754098 C224.600518,141.92209 211.754954,124.37945 192.853264,118.376542 C173.951573,112.373634 153.338124,119.290168 141.88254,135.479004 C130.426957,151.66784 130.762193,173.408133 142.711475,189.236066 L143.793443,189.236066 C152.442133,199.913965 165.448916,206.117025 179.19,206.117025 C192.931084,206.117025 205.937867,199.913965 214.586557,189.236066 L215.441311,189.236066 C221.434193,181.331307 224.658472,171.673679 224.6168,161.754098 Z" id="Path" fill="#0099DA"></path>
            <path d="M219.855738,192.157377 C219.855738,192.157377 219.531148,192.590164 219.098361,193.239344 C218.665574,193.888525 217.8,194.754098 216.934426,195.727869 C216.068852,196.701639 214.986885,197.783607 213.904918,198.865574 C212.839959,199.952117 211.639999,200.89754 210.334426,201.678689 L212.822951,204.167213 L215.311475,206.655738 L217.8,209.144262 L220.288525,211.632787 L222.668852,209.252459 L225.04918,206.872131 L227.429508,204.491803 L229.809836,202.111475 L227.429508,199.622951 L225.04918,197.134426 L222.668852,194.645902 L219.855738,192.157377 Z" id="Path" fill="url(#linearGradient-1)"></path>
            <path d="M210.22623,190.967213 L180.147541,160.888525 L150.068852,130.809836 C152.648327,126.829285 156.181573,123.556383 160.347541,121.288525 C167.596721,117.285246 178.84918,114.904918 195.186885,121.072131 C211.52459,127.239344 220.721311,140.006557 223.101639,153.531148 C225.62142,167.400503 220.744012,181.581875 210.22623,190.967213 L210.22623,190.967213 Z" id="Path" fill="#F4F6F7" opacity="0.200000003"></path>
            <path d="M243.983607,216.285246 L237.92459,210.22623 L231.865574,204.167213 L225.806557,198.108197 L219.747541,192.04918 C221.387774,189.886366 222.870289,187.608355 224.183607,185.232787 C225.495756,182.798704 226.617152,180.266521 227.537705,177.659016 C228.45085,175.016997 229.138555,172.302374 229.593443,169.544262 C230.064982,166.718753 230.31819,163.861121 230.35082,160.996721 C230.361631,154.159668 229.000332,147.389962 226.347541,141.088525 C223.758234,135.039455 220.050752,129.533293 215.419672,124.859016 C210.754756,120.216532 205.246281,116.507492 199.190164,113.931148 C186.454737,108.593278 172.109197,108.593278 159.37377,113.931148 C153.3247,116.520455 147.818539,120.227937 143.144262,124.859016 C138.478367,129.504653 134.766069,135.017967 132.216393,141.088525 C126.878524,153.823951 126.878524,168.169491 132.216393,180.904918 C134.805701,186.953988 138.513183,192.460149 143.144262,197.134426 C147.789899,201.800321 153.303213,205.512619 159.37377,208.062295 C165.675208,210.715086 172.444914,212.076385 179.281967,212.065574 C182.148999,212.091704 185.01174,211.838043 187.829508,211.308197 C190.58762,210.853309 193.302243,210.165605 195.944262,209.252459 C198.56187,208.357523 201.096129,207.235208 203.518033,205.898361 C205.893601,204.585043 208.171612,203.102528 210.334426,201.462295 L216.393443,207.521311 L222.452459,213.580328 L228.511475,219.639344 L234.570492,225.698361 L236.95082,223.318033 L239.331148,220.937705 L241.711475,218.557377 L243.983607,216.285246 Z M179.17377,201.462295 C158.525447,201.402266 141.279482,185.711051 139.274708,165.160194 C137.269933,144.609337 151.158199,125.88092 171.405631,121.831433 C191.653063,117.781947 211.676238,129.728076 217.729853,149.469165 C223.783467,169.210254 213.899198,190.327516 194.862295,198.32459 C189.902095,200.43141 184.562732,201.499283 179.17377,201.462295 Z" id="Shape" fill="#E3E5E8"></path>
            <g id="Group" opacity="0.600000024" transform="translate(127.672131, 124.426230)" fill="#E3E5E8">
                <path d="M57.7770492,86.1245902 C28.2702426,86.0947702 4.35768879,62.1822164 4.32786885,32.6754098 C4.31118099,29.6294699 4.56463265,26.5880501 5.0852459,23.5868852 C5.57626633,20.6843051 6.29991018,17.8259119 7.24918033,15.0393443 C8.21717388,12.3116639 9.41149644,9.66967757 10.8196721,7.14098361 C12.178278,4.61613205 13.7722364,2.22519444 15.5803279,-4.61270366e-14 C13.1935078,2.2944545 11.0539336,4.83293228 9.19672131,7.57377049 C7.31964589,10.3464891 5.69040142,13.2791292 4.32786885,16.3377049 C2.99429109,19.4738931 1.97935273,22.736195 1.29836066,26.0754098 C0.606245466,29.4951186 0.243928731,32.9733593 0.216329545,36.4622951 C0.205581854,43.2993482 1.56688145,50.0690543 4.21967213,56.3704918 C6.80897942,62.4195619 10.5164614,67.9257233 15.147541,72.6 C19.7931777,77.2658949 25.3064916,80.9781929 31.3770492,83.5278689 C37.6784867,86.1806595 44.4481927,87.5419591 51.2852459,87.5312114 C52.6918033,87.5312114 53.9901639,87.5312114 55.3967213,87.4229508 C56.8032787,87.3147541 58.1016393,87.2065574 59.4,86.9901639 C60.6983607,86.7737705 61.9967213,86.557377 63.295082,86.2327869 C64.5934426,85.9081967 65.7836066,85.5836066 67.0819672,85.1508197 L64.8098361,85.4754098 C64.0585133,85.6010595 63.2992389,85.6733714 62.5377049,85.6918033 C61.7478372,85.7843345 60.9523821,85.8204915 60.157377,85.8 C59.3954408,86.0737795 58.5844703,86.1843664 57.7770492,86.1245902 L57.7770492,86.1245902 Z" id="Path"></path>
            </g>
            <path d="M262.701639,245.281967 L262.701639,245.281967 C263.473948,244.521327 264.065556,243.596939 264.432787,242.577049 C265.154098,240.62178 265.154098,238.473302 264.432787,236.518033 C263.998992,235.532348 263.415008,234.619872 262.701639,233.813115 L253.288525,224.4 L243.87541,214.986885 L234.462295,205.57377 L225.04918,196.160656 L222.236066,198.97377 L219.422951,201.786885 L216.609836,204.6 L213.796721,207.413115 L223.209836,216.82623 L232.622951,226.239344 L242.036066,235.652459 L251.44918,245.065574 C252.983818,246.553269 255.046489,247.370554 257.183607,247.337705 C258.215416,247.315864 259.237517,247.133346 260.213115,246.796721 C261.170634,246.540693 262.034417,246.014912 262.701639,245.281967 L262.701639,245.281967 Z" id="Path" fill="#023852"></path>
            <path d="M263.101967,234.180984 L261.944262,233.023279 L260.754098,231.854754 L259.585574,230.68623 L258.417049,229.517705 C259.878509,231.022171 260.680563,233.046774 260.645902,235.143934 C260.622253,236.153471 260.44344,237.153362 260.115738,238.108525 C259.692747,239.076132 259.119441,239.970782 258.417049,240.759344 C256.915245,242.218128 254.895071,243.01997 252.801639,242.988197 C251.792102,242.964548 250.792212,242.785735 249.837049,242.458033 C248.870207,242.033612 247.975771,241.460443 247.18623,240.759344 L248.343934,241.927869 L249.512459,243.085574 L250.680984,244.254098 L251.849508,245.422623 C253.351312,246.881407 255.371486,247.683249 257.464918,247.651475 C259.55835,247.683249 261.578524,246.881407 263.080328,245.422623 C264.539112,243.920819 265.340954,241.900645 265.30918,239.807213 C265.299353,238.79281 265.120167,237.787171 264.779016,236.831803 C264.426359,235.833372 263.853129,234.9273 263.101967,234.180984 Z" id="Path" fill="url(#linearGradient-2)"></path>
            <path d="M66.7032787,269.59377 C66.1794422,269.639132 65.7640499,270.054524 65.7186885,270.578361 L65.7186885,313.251148 C65.7640499,313.774984 66.1794422,314.190376 66.7032787,314.235738 L97.647541,314.235738 C98.1713775,314.190376 98.5867698,313.774984 98.6321311,313.251148 L98.6321311,270.578361 C98.5867698,270.054524 98.1713775,269.639132 97.647541,269.59377 L66.7032787,269.59377 Z" id="Path" fill="#FFE700"></path>
            <rect id="Rectangle" fill="#0099DA" x="72.6" y="284.221967" width="19.1940984" height="1"></rect>
            <rect id="Rectangle" fill="#0099DA" x="72.6" y="296.816066" width="19.1940984" height="1"></rect>
            <rect id="Rectangle" fill="#0099DA" x="72.6" y="290.519016" width="14.8337705" height="1"></rect>
            <rect id="Rectangle" fill="#0099DA" x="72.6" y="302.723607" width="14.8337705" height="1"></rect>
            <path d="M181.673115,181.142951 L176.263279,181.142951 C175.816577,181.188123 175.37112,181.046226 175.032848,180.751006 C174.694575,180.455786 174.493714,180.033624 174.478033,179.584918 C174.304918,178.178361 174.088525,176.804262 173.90459,175.754754 C173.90459,175.462623 173.460984,175.116393 172.941639,174.91082 C172.532669,174.693328 172.047035,174.673425 171.621639,174.856721 L170.831803,175.451803 C170.150164,175.971148 169.457705,176.53377 168.786885,177.020656 C168.453619,177.355558 167.995928,177.536531 167.523745,177.520107 C167.051563,177.503683 166.607553,177.291347 166.298361,176.934098 C165.898033,176.522951 165.486885,176.122623 165.086557,175.722295 L164.891803,175.538361 L162.457377,173.114754 C162.052419,172.773507 161.80991,172.277482 161.78932,171.748316 C161.76873,171.219149 161.971962,170.705781 162.34918,170.334098 C162.717049,169.901311 163.052459,169.457705 163.431148,169.014098 C163.809836,168.570492 164.069508,168.170164 164.404918,167.769836 C164.740328,167.369508 164.642951,167.380328 164.491475,166.850164 C164.423181,166.256533 164.112455,165.717565 163.632946,165.361007 C163.153437,165.004449 162.547832,164.862042 161.959672,164.967541 C161.47567,164.963492 160.993402,164.909101 160.520656,164.805246 C160.250164,164.751148 159.968852,164.707869 159.698361,164.67541 C159.241595,164.676855 158.805082,164.48702 158.494668,164.151938 C158.184254,163.816855 158.028288,163.367127 158.06459,162.911803 C158.06459,161.079672 158.06459,159.251148 158.06459,157.42623 C158.015391,156.521493 158.707242,155.747394 159.611803,155.695082 L161.202295,155.467869 C161.927213,155.348852 162.641311,155.240656 163.36623,155.154098 C163.68,155.154098 163.788197,155.035082 164.047869,154.623934 C164.386171,154.208422 164.539447,153.67244 164.471981,153.140889 C164.404515,152.609337 164.122199,152.128642 163.69082,151.81082 C163.333468,151.453706 163.007664,151.066362 162.717049,150.653115 C162.543934,150.425902 162.37082,150.187869 162.186885,149.971475 C161.870123,149.667462 161.691056,149.247407 161.691056,148.808361 C161.691056,148.369314 161.870123,147.949259 162.186885,147.645246 C163.647541,146.141311 164.98918,144.799672 166.276721,143.53377 C166.605449,143.189143 167.060946,142.994139 167.537213,142.994139 C168.01348,142.994139 168.468978,143.189143 168.797705,143.53377 C169.035738,143.728525 169.28459,143.912459 169.544262,144.096393 C170.002937,144.416068 170.430407,144.778331 170.820984,145.178361 C171.082097,145.545911 171.483491,145.78922 171.93014,145.850685 C172.37679,145.912151 172.828984,145.786309 173.179672,145.502951 C173.720656,145.178361 173.861311,145.070164 173.89377,144.648197 C173.969508,143.836721 174.099344,143.025246 174.24,142.24623 C174.304918,141.824262 174.380656,141.391475 174.445574,140.969508 C174.469929,140.517981 174.67793,140.096069 175.021254,139.801791 C175.364578,139.507514 175.813338,139.366487 176.263279,139.411475 L181.673115,139.411475 C182.127063,139.362729 182.580548,139.507443 182.922351,139.810124 C183.264155,140.112805 183.462659,140.545456 183.46918,141.001967 C183.523279,141.478033 183.599016,141.964918 183.674754,142.440984 C183.750492,142.917049 183.869508,143.641967 183.912787,144.247869 C183.922918,144.894946 184.366882,145.45434 184.994754,145.611148 C185.578519,145.998112 186.358038,145.896636 186.823279,145.373115 C187.321268,144.934517 187.845163,144.52624 188.392131,144.150492 L189.279344,143.490492 C189.591704,143.185494 190.014405,143.020219 190.450801,143.032455 C190.887198,143.04469 191.299975,143.23339 191.594754,143.55541 C192.860656,144.799672 194.104918,146.065574 195.34918,147.331475 L195.533115,147.51541 C195.911568,147.857518 196.131965,148.340713 196.142207,148.850771 C196.152449,149.36083 195.951627,149.852483 195.587213,150.209508 L194.743279,151.291475 C194.35377,151.8 193.975082,152.297705 193.563934,152.78459 C193.358361,153.022623 193.325902,153.163279 193.466557,153.682623 C193.654933,154.81506 194.694852,155.603309 195.836066,155.478689 C196.381551,155.498006 196.924447,155.563154 197.459016,155.673443 L198.205574,155.792459 C198.658478,155.811759 199.084278,156.013584 199.38595,156.351946 C199.687622,156.690308 199.839467,157.136382 199.806885,157.588525 C199.806885,159.38459 199.806885,161.169836 199.806885,162.998361 C199.852284,163.467799 199.699204,163.934821 199.384724,164.286298 C199.070245,164.637775 198.623054,164.841645 198.151475,164.848525 C197.718689,164.902623 197.296721,164.978361 196.874754,165.043279 C196.160656,165.151475 195.424918,165.270492 194.71082,165.32459 C194.256393,165.32459 194.104918,165.519344 193.769508,166.092787 C193.47866,166.441683 193.345063,166.895334 193.400394,167.346177 C193.455725,167.797021 193.695055,168.204904 194.061639,168.473115 C194.489526,168.912579 194.880364,169.386651 195.230164,169.890492 L195.749508,170.572131 C196.049564,170.865291 196.218725,171.267062 196.218725,171.686557 C196.218725,172.106052 196.049564,172.507824 195.749508,172.800984 L193.639672,174.964918 L191.594754,176.999016 C191.257186,177.359898 190.785137,177.564719 190.290984,177.564719 C189.79683,177.564719 189.324781,177.359898 188.987213,176.999016 C188.597705,176.674426 188.197377,176.360656 187.78623,176.046885 C187.375082,175.733115 186.812459,175.300328 186.347213,174.9 C186.087541,174.683607 185.957705,174.651148 185.44918,174.791803 C184.415039,174.958463 183.700817,175.91715 183.837049,176.955738 C183.817356,177.601394 183.730327,178.243232 183.577377,178.87082 C183.577377,179.162951 183.458361,179.455082 183.415082,179.747213 C183.313219,180.610213 182.537561,181.231703 181.673115,181.142951 L181.673115,181.142951 Z M180.591148,180.060984 L181.673115,180.060984 C182.181639,180.060984 182.311475,179.909508 182.365574,179.541639 C182.419672,179.17377 182.47377,178.924918 182.538689,178.611148 C182.67408,178.054196 182.753815,177.485173 182.776721,176.912459 C182.618231,175.375968 183.653461,173.970679 185.167869,173.666557 C185.809015,173.402483 186.544728,173.528605 187.061311,173.991148 C187.526557,174.380656 187.991803,174.737705 188.467869,175.073115 C188.943934,175.408525 189.300984,175.711475 189.701311,176.046885 C190.318033,176.55541 190.610164,176.360656 190.859016,176.122623 L192.893115,174.099344 C193.596393,173.385246 194.299672,172.671148 194.992131,171.93541 C195.121967,171.805574 195.305902,171.621639 194.916393,171.134754 C194.732459,170.907541 194.559344,170.658689 194.37541,170.420656 C194.049777,169.963223 193.68796,169.532661 193.293443,169.133115 C192.171721,168.223695 191.966513,166.591582 192.828197,165.432787 C193.130421,164.699357 193.822111,164.200502 194.613443,164.145246 C195.316721,164.091148 196.03082,163.972131 196.723279,163.863934 L198.032459,163.66918 C198.584262,163.604262 198.757377,163.420328 198.746557,162.900984 C198.746557,161.115738 198.746557,159.319672 198.746557,157.491148 L198.746557,157.491148 C198.746557,157.015082 198.584262,156.831148 198.097377,156.76623 L197.285902,156.636393 C196.822834,156.53874 196.352271,156.480824 195.879344,156.463279 C194.191466,156.637452 192.654256,155.482187 192.352131,153.812459 C192.084925,153.175044 192.202334,152.441239 192.655082,151.919016 C193.05541,151.45377 193.434098,150.956066 193.812787,150.46918 C194.191475,149.982295 194.37541,149.733443 194.678361,149.387213 C195.143607,148.81377 195.02459,148.478361 194.678361,148.142951 L194.494426,147.948197 C193.250164,146.693115 192.005902,145.427213 190.75082,144.182951 C190.545246,143.977377 190.328852,143.836721 189.852787,144.182951 C189.560656,144.420984 189.246885,144.637377 188.933115,144.86459 C188.422827,145.220786 187.931655,145.603611 187.461639,146.011475 C186.657383,146.684645 185.549754,146.864976 184.573498,146.481689 C183.597242,146.098401 182.908161,145.212664 182.776721,144.172131 C182.722623,143.598689 182.636066,143.025246 182.538689,142.451803 C182.441311,141.878361 182.376393,141.456393 182.322295,140.958689 C182.268197,140.460984 182.116721,140.331148 181.608197,140.331148 L176.198361,140.331148 C175.743934,140.331148 175.527541,140.482623 175.462623,140.969508 C175.397705,141.456393 175.321967,141.835082 175.24623,142.257049 C175.116393,143.025246 174.986557,143.804262 174.921639,144.572459 C174.857409,145.326903 174.377309,145.982345 173.677377,146.271148 C172.512469,147.127607 170.877652,146.90228 169.987869,145.762623 C169.654334,145.425519 169.292335,145.117821 168.905902,144.842951 C168.63541,144.648197 168.364918,144.453443 168.105246,144.237049 C167.618361,143.836721 167.32623,143.944918 167.023279,144.237049 C165.735738,145.492131 164.404918,146.83377 162.955082,148.326885 C162.760328,148.521639 162.608852,148.748852 162.955082,149.203279 C163.160656,149.430492 163.34459,149.679344 163.528525,149.928197 C163.784727,150.293715 164.070612,150.637502 164.383279,150.956066 C165.66036,151.971083 165.895561,153.819087 164.913443,155.121639 C164.647402,155.72063 164.082726,156.132802 163.431148,156.203607 C162.727869,156.279344 162.02459,156.387541 161.267213,156.495738 L159.644262,156.74459 C159.200656,156.798689 159.04918,156.960984 159.04918,157.39377 C159.04918,159.218689 159.04918,161.047213 159.04918,162.879344 C159.04918,163.34459 159.211475,163.517705 159.70918,163.571803 C160.015033,163.597499 160.318721,163.644498 160.618033,163.712459 C161.016384,163.79893 161.422269,163.846042 161.829836,163.853115 C163.615785,163.607746 165.268142,164.840993 165.540984,166.622951 C165.788323,167.262604 165.672605,167.985846 165.238033,168.516393 C164.913443,168.905902 164.599672,169.317049 164.285902,169.717377 C163.972131,170.117705 163.582623,170.637049 163.203934,171.080656 C162.994998,171.238065 162.872128,171.48447 162.872128,171.746066 C162.872128,172.007661 162.994998,172.254066 163.203934,172.411475 C163.972131,173.190492 164.761967,173.958689 165.540984,174.737705 L165.789836,174.986557 L167.012459,176.198361 C167.32623,176.512131 167.564262,176.598689 168.094426,176.198361 L170.160984,174.618689 L170.95082,174.023607 C171.676951,173.601939 172.565366,173.569485 173.320328,173.937049 C174.11406,174.176466 174.730341,174.804991 174.954098,175.603279 C175.127213,176.685246 175.354426,178.059344 175.527541,179.487541 C175.592459,179.963607 175.765574,180.093443 176.252459,180.093443 L180.580328,180.093443 L180.591148,180.060984 Z M179.065574,167.607541 L179.065574,167.066557 L179.000656,167.596721 C177.517292,167.621081 176.065095,167.169876 174.856721,166.30918 C172.889573,164.934386 171.708562,162.693285 171.686548,160.293443 C171.680278,156.269564 174.912207,152.989396 178.935738,152.936066 L178.935738,152.936066 C180.887911,152.918781 182.766684,153.679217 184.157246,155.049479 C185.547807,156.41974 186.335789,158.287128 186.347312,160.239344 C186.357422,162.194969 185.577052,164.071758 184.183279,165.443607 L184.183279,165.443607 C182.810296,166.813263 180.950814,167.583509 179.011475,167.585902 L179.065574,167.607541 Z M178.989836,154.018033 L178.989836,154.018033 C176.251322,154.017484 173.830992,155.798732 173.01727,158.413558 C172.203548,161.028384 173.185737,163.868481 175.440984,165.421967 C176.479315,166.141363 177.715917,166.519529 178.979016,166.503934 C180.647314,166.508505 182.248282,165.846304 183.425902,164.66459 L183.425902,164.66459 C185.201714,162.873922 185.728201,160.191848 184.761092,157.862749 C183.793984,155.533649 181.522553,154.01335 179.000656,154.007213 L178.989836,154.018033 Z" id="Shape" fill="#F4F6F7"></path>
        </g>
    </g>
</svg>