<?xml version="1.0" encoding="UTF-8"?>
<svg width="440px" height="330px" viewBox="0 0 440 330" version="1.1" xmlns="http://www.w3.org/2000/svg" xmlns:xlink="http://www.w3.org/1999/xlink">
    <title>Graphic elements / Icons / Rich icons / Document</title>
    <g id="Graphic-elements-/-Icons-/-Rich-icons-/-Document" stroke="none" stroke-width="1" fill="none" fill-rule="evenodd">
        <g id="Document" transform="translate(78.000000, 1.000000)" fill-rule="nonzero">
            <path d="M279.22,246 L279.22,204.18 L279.22,162.36 L279.22,120.54 L279.22,78.72 L278.75,78.72 C278.75,78.62 278.82,78.52 278.84,78.42 C278.86,78.32 278.9,78.21 278.92,78.1 C278.94,77.99 278.92,77.89 278.92,77.78 C278.925588,77.670071 278.925588,77.559929 278.92,77.45 L278.92,67.65 C278.920592,67.1275757 278.815129,66.6104679 278.61,66.13 C278.419422,65.6597453 278.1334,65.2341184 277.77,64.88 C277.413596,64.5168491 276.988742,64.2279482 276.52,64.03 C276.034244,63.8318496 275.514617,63.7299805 274.99,63.7299805 L263.99,63.7299805 C263.464237,63.7299805 262.943647,63.8338091 262.46,64.04 C261.002967,64.6481847 260.053022,66.0711318 260.05,67.65 L260.05,77.45 C260.05,77.57 260.05,77.68 260.05,77.78 C260.061006,77.8874745 260.077696,77.9942908 260.1,78.1 C260.1,78.21 260.1,78.31 260.17,78.42 C260.24,78.53 260.23,78.62 260.27,78.72 L260.03,78.72 L260.03,120.55 L260.03,162.37 L260.03,204.2 L260.03,246.02 L260.03,246.02 L262.09,254.02 L264.15,262.02 L266.21,270.02 L268.27,278.02 L268.27,278.02 L268.27,278 L268.27,278.07 L268.27,278.13 L268.27,278.19 C268.321929,278.441669 268.468749,278.663689 268.68,278.81 C268.874499,278.944811 269.103514,279.021149 269.34,279.030006 C269.573462,279.030006 269.801108,278.957204 269.99,278.82 C270.20291,278.677914 270.35323,278.459593 270.41,278.21 L271.36,274.76 L272.31,271.3 L273.26,267.85 L274.26,264.4 L274.2,264.49 L274.13,264.59 L274.07,264.69 L274,264.79 L275.29,260.08 L276.59,255.38 L277.88,250.68 L279.17,245.98 L279.17,245.98 L279.22,246 Z" id="Path" fill="#023852" opacity="0.3" style="mix-blend-mode: multiply;"></path>
            <path d="M284,242.56 L264.86,242.56 L266.92,250.56 L268.98,258.56 L271.05,266.56 L273.11,274.56 C273.170586,274.80798 273.315533,275.027168 273.52,275.18 C273.712967,275.308991 273.938038,275.381706 274.17,275.39 C274.404656,275.388195 274.633813,275.318754 274.83,275.19 C275.036401,275.037079 275.184541,274.818398 275.25,274.57 L277.44,266.57 L279.64,258.57 L281.83,250.57 L284,242.56 Z" id="Path" fill="#D7D4CD"></path>
            <path d="M275.32,274.8 L276.27,271.34 L277.27,267.89 L278.22,264.43 L279.17,260.98 C279.1,261.09 279.03,261.21 278.95,261.32 C278.87,261.43 278.81,261.54 278.73,261.65 L278.5,261.97 C278.41,262.07 278.33,262.18 278.25,262.28 L277.95,262.61 C277.847481,262.721019 277.737204,262.824613 277.62,262.92 C277.508195,263.014555 277.387652,263.098265 277.26,263.17 C277.128702,263.243851 276.987155,263.297774 276.84,263.33 C276.681781,263.363763 276.518219,263.363763 276.36,263.33 C276.206984,263.312092 276.056199,263.278584 275.91,263.23 L275.48,263.1 C275.326334,263.057992 275.16891,263.031196 275.01,263.02 C274.774138,263.002476 274.538975,263.062144 274.34,263.19 C274.175367,263.297623 274.041088,263.445673 273.95,263.62 L273.68,264.19 C273.591857,264.384681 273.47746,264.56637 273.34,264.73 C273.234294,264.843179 273.11309,264.940816 272.98,265.02 C272.852284,265.101089 272.714428,265.164973 272.57,265.21 C272.427227,265.258603 272.279756,265.292119 272.13,265.31 C271.977026,265.324853 271.822974,265.324853 271.67,265.31 L271.23,265.31 L271.01,265.31 L270.79,265.31 L271.4,267.67 L272.01,270.04 L272.62,272.4 L273.23,274.77 C273.347384,275.263684 273.792633,275.609065 274.3,275.6 C274.531782,275.599769 274.75818,275.530108 274.95,275.4 C275.136385,275.246502 275.266527,275.035461 275.32,274.8 Z" id="Path" fill="#023852"></path>
            <path d="M264.939998,74 L264.939998,64.2 C264.939438,63.674347 265.044872,63.1539772 265.25,62.67 C265.646371,61.7267082 266.396708,60.9763714 267.34,60.58 C267.827797,60.3758927 268.351223,60.2705279 268.88,60.2699978 L279.88,60.2699978 C280.405653,60.2694376 280.926023,60.374872 281.41,60.58 C281.876094,60.7783282 282.300278,61.0633795 282.66,61.42 C283.395958,62.1580756 283.809472,63.1576997 283.810002,64.2 L283.810002,74 C283.810562,74.525653 283.705128,75.0460228 283.5,75.53 C283.301835,75.9956851 283.012878,76.4172232 282.65,76.7699978 C282.293596,77.1331509 281.868742,77.4220518 281.4,77.62 C280.914244,77.8181504 280.394617,77.9200195 279.87,77.9200195 L268.87,77.9200195 C268.344237,77.9216699 267.823647,77.8161909 267.34,77.61 C266.398284,77.2078159 265.646675,76.4597852 265.24,75.52 C265.044072,75.0370741 264.942246,74.5211526 264.939998,74 L264.939998,74 Z" id="Path" fill="#FFE700"></path>
            <polygon id="Path" fill="#33ADE1" points="274.45 75.28 274.43 117.11 274.41 158.93 274.39 200.76 274.37 242.58 276.77 242.59 279.18 242.59 281.58 242.59 283.99 242.59 284.01 200.76 284.03 158.94 284.05 117.11 284.07 75.28 281.67 75.28 279.26 75.28 276.86 75.28"></polygon>
            <polygon id="Path" fill="#0099DA" points="264.93 75.28 264.9 117.1 264.88 158.93 264.86 200.75 264.84 242.58 267.25 242.58 269.65 242.58 272.06 242.58 274.47 242.58 274.49 200.76 274.51 158.93 274.53 117.11 274.55 75.28 272.14 75.28 269.74 75.28 267.33 75.28"></polygon>
            <g id="Group" opacity="0.3" style="mix-blend-mode: multiply;" transform="translate(0.000000, 12.000000)" fill="#023852">
                <path d="M0.26,5.34 L0.26,310.79 C0.259994019,313.332133 2.31787342,315.394486 4.86,315.400011 L224.86,315.400011 C226.082549,315.400011 227.25565,314.917518 228.119186,314.052105 C228.982721,313.186692 229.46533,312.01254 229.460044,310.79 L229.460044,76.36 C229.460044,75.755968 229.341833,75.1577713 229.11,74.6 C228.875041,74.0409826 228.535647,73.5318921 228.11,73.1 L192.6,37.59 L157.09,2.08 C156.662972,1.65308602 156.156883,1.31342926 155.6,1.08 C155.041923,0.849175976 154.443929,0.73 153.84,0.73 L4.84,0.73 C2.29787342,0.735514387 0.24,2.79786744 0.24,5.34 L0.26,5.34 Z" id="Path"></path>
            </g>
            <path d="M11.32,4.78 L11.32,310.23 C11.319994,312.772133 13.3778734,314.834486 15.92,314.840011 L235.92,314.840011 C237.142549,314.840011 238.31565,314.357518 239.179186,313.492105 C240.042721,312.626692 240.52533,311.45254 240.520044,310.23 L240.520044,75.8 C240.520044,74.5824157 240.037479,73.414432 239.18,72.55 L203.66,37 L168.15,1.52 C167.285568,0.662521344 166.117584,0.179989067 164.9,0.179989067 L15.9,0.179989067 C14.6791898,0.179989067 13.5076142,0.661123756 12.644369,1.52436896 C11.7811238,2.38761416 11.2973374,3.55918983 11.2999891,4.78 L11.32,4.78 Z" id="Path" fill="#F5F7F8"></path>
            <path d="M240.52,80.59 L240.52,73.9 L203.66,37 L166.8,0.18 L166.8,0.18 L166.8,65.74 C166.8,73.9414285 173.448571,80.59 181.65,80.59 L240.52,80.59 L240.52,80.59 Z" id="Path" fill="#023852" opacity="0.3" style="mix-blend-mode: multiply;"></path>
            <path d="M240.52,73.9 L203.66,37 L166.8,0.18 L166.8,65.6 C166.8,70.1839634 170.516037,73.9 175.1,73.9 L240.52,73.9 L240.52,73.9 Z" id="Path" fill="#FFFFFF"></path>
            <polygon id="Path" fill="#9DADB7" points="44.93 134.72 120.73 134.5 196.54 134.29 196.56 141.63 196.58 148.96 120.77 149.18 44.97 149.4 44.95 142.06"></polygon>
            <polygon id="Path" fill="#0099DA" points="44.93 53.98 93.21 53.84 141.5 53.7 141.52 60.72 141.54 67.74 93.25 67.88 44.97 68.02 44.95 61"></polygon>
            <polygon id="Path" fill="#9DADB7" points="44.95 158.92 120.75 158.7 196.56 158.49 196.58 165.82 196.6 173.16 120.79 173.38 44.99 173.59 44.97 166.26"></polygon>
            <polygon id="Path" fill="#9DADB7" points="44.98 230.29 68.17 230.23 91.36 230.16 91.38 237.5 91.4 244.84 68.21 244.9 45.02 244.97 45 237.63"></polygon>
            <polygon id="Path" fill="#9DADB7" points="45 254.49 68.19 254.43 91.38 254.36 91.4 261.7 91.42 269.03 68.23 269.1 45.04 269.17 45.02 261.83"></polygon>
        </g>
    </g>
</svg>