<svg width="440" height="330" xmlns="http://www.w3.org/2000/svg"><defs><linearGradient x1="0%" y1="49.796%" x2="100%" y2="49.796%" id="a"><stop stop-color="#FFF" offset="0%"/><stop stop-color="#0E183F" offset="100%"/></linearGradient></defs><g fill-rule="nonzero" fill="none"><path fill="#023852" d="M215.49 150.317H222.505v-8.019H215.49v4.01z"/><path d="M213.62 143.3h8.75c.301 0 .59-.11.801-.302a.949.949 0 00.337-.721v-1.962c-.009-.562-.513-1.016-1.138-1.023h-8.75a1.17 1.17 0 00-.8.302.976.976 0 00-.337.721v1.962c.009.562.513 1.016 1.138 1.024z" fill="#B8C4CB"/><path d="M228.828 139.287h-21.665c-.937 0-1.696-.697-1.696-1.556v-4.901c.008-.856.763-1.549 1.696-1.557h21.665c.449.002.878.168 1.193.462.331.281.514.68.502 1.095v5.016c.001.417-.18.817-.502 1.11-.34.242-.765.36-1.193.331z" fill="#D9DFE3"/><path d="M249.09 118.244h-60.184a.885.885 0 01-.638-.328 1.91 1.91 0 01-.415-.87l-1.18-5.22-1.181-5.218a2.628 2.628 0 01.143-1.641 1.06 1.06 0 01.926-.755h64.874c.43.033.796.332.925.755.223.516.273 1.093.144 1.64l-1.18 5.22-1.181 5.219c-.065.318-.201.616-.4.87a.948.948 0 01-.654.328z" fill="#023852"/><path fill="#303436" d="M134.305 222.48h8.018v-4.008h-8.018v2.004zM296.674 222.48h8.018v-4.008h-8.018v2.004z"/><path d="M157.135 83.04v-.878h-12.642v14.212c.008 1.606-.13 3.21-.414 4.79a25.984 25.984 0 01-1.243 4.615l-3.555 9.74-3.555 9.757a38.377 38.377 0 00-1.817 6.755 39.247 39.247 0 00-.606 6.962v78.932c.002.411.162.806.446 1.102.292.281.68.441 1.084.447h9.565c.88 0 1.594-.715 1.594-1.597v-78.916c0-1.606.139-3.208.414-4.79.28-1.572.696-3.116 1.244-4.615l3.555-9.757 3.554-9.74a38.377 38.377 0 001.818-6.755c.415-2.298.623-4.628.621-6.962v-6.85h12.593a3.583 3.583 0 002.547-1.047 3.596 3.596 0 001.056-2.547V83.04h-16.26zM282.866 83.04v-.878h12.64v14.212c-.007 1.606.132 3.21.415 4.79a25.984 25.984 0 001.243 4.615l3.555 9.74 3.555 9.757a38.377 38.377 0 011.817 6.755c.401 2.299.604 4.628.606 6.962v78.932a1.598 1.598 0 01-.446 1.102c-.292.281-.68.441-1.084.447h-9.565c-.88 0-1.594-.715-1.594-1.597v-78.916c0-1.606-.139-3.208-.414-4.79a29.006 29.006 0 00-1.244-4.615l-3.554-9.757-3.571-9.74a41.43 41.43 0 01-1.817-6.755 40.516 40.516 0 01-.606-6.962v-6.85h-12.593a3.584 3.584 0 01-2.547-1.047 3.596 3.596 0 01-1.056-2.547V83.04h16.26z" fill="#9DADB7"/><path d="M150.783 120.217l1.933-5.225 1.934-5.224a37.514 37.514 0 001.822-6.677c.416-2.27.624-4.574.623-6.882v-6.77h12.688a3.634 3.634 0 002.556-1.043 3.514 3.514 0 001.055-2.51V83.03h-16.3v-.868h-12.671v14.047c0 1.588-.14 3.172-.415 4.736a25.4 25.4 0 01-1.247 4.561l-2.732 7.371-2.717 7.371h13.47v-.031zM270.233 89.47h12.704v6.771c.001 2.307.204 4.61.607 6.882a40.5 40.5 0 001.822 6.676l1.934 5.225 1.933 5.224h13.455l-2.733-7.37-2.716-7.372a25.4 25.4 0 01-1.247-4.561 25.765 25.765 0 01-.431-4.736V82.162h-12.656v.868h-16.3v2.857c0 1.961 1.61 3.551 3.596 3.551l.032.032z" fill="#DDE2E6" style="mix-blend-mode:multiply"/><path d="M82.057 21.486l-9.955-1.234-9.97-1.234h-.193l-30.49 1.835L.945 22.625a.997.997 0 00-.672.316.944.944 0 00-.272.68c0 .21.067.416.192.586.126.167.298.293.496.364l2.913.949 2.93.965h.303c1.505 0 13.668.095 28.12.965 14.453.87 31.178 2.515 41.806 5.6h6.418c.291 0 .57-.12.768-.332.182-.216.269-.495.24-.775l-.624-4.762-.624-4.746a1.003 1.003 0 00-.88-.87v-.079z" fill="#DDE2E6"/><path d="M97.756 18.475l1.179 1.163 1.162 1.163c.112.097.242.172.382.22.142.03.289.03.43 0l8.599-.896 8.598-.88h.144l29.6 1.367 29.602 1.368c.46.009.847.339.924.786a.924.924 0 01-.542 1.084l-.987.471-1.003.488h-.398c-1.768 0-14.506.33-29.538 1.571-15.031 1.242-32.356 3.143-43.311 6.664h-.271a9.141 9.141 0 01-2.738-.314 5.522 5.522 0 01-3.392-2.42 11.416 11.416 0 00-2.675-3.144 8.642 8.642 0 00-3.503-1.744 1.013 1.013 0 01-.78-.74.952.952 0 01.334-1.005l3.423-2.719 3.424-2.734a.98.98 0 01.684-.205.907.907 0 01.653.456z" fill="#F2F4F6"/><path d="M82.297 22.025l.416 3.075.416 3a.849.849 0 01-.24.75c-.189.204-.464.32-.752.315H75.72c-10.625-2.925-27.347-4.5-41.796-5.295-14.45-.795-26.611-.915-28.115-.93H5.137l-2.097.12-2.08.105a1.02 1.02 0 00-.672.3.875.875 0 00-.288.645.977.977 0 00.192.555c.132.152.303.27.496.345l2.928.915 2.929.9h.304c1.504 0 13.665.09 28.115.915 14.45.825 31.171 2.385 41.796 5.31h6.417c.288.004.563-.111.752-.315a.894.894 0 00.256-.735l-.608-4.665-.624-4.5a.817.817 0 00-.224-.465 1.073 1.073 0 00-.432-.345zM177.46 22.701l-7.15-.312-7.149-.364c-8.105.399-19.521 1.145-30.906 2.48-11.385 1.335-22.738 3.294-30.715 6.103h-.255a8.45 8.45 0 01-2.739-.364c-1.41-.366-2.633-1.318-3.407-2.653a12.083 12.083 0 00-1.72-2.445 10.064 10.064 0 00-2.181-1.89l-.828.728-.828.746a1.11 1.11 0 00-.35 1.093c.107.41.413.723.795.815a8.542 8.542 0 013.503 1.924 12.607 12.607 0 012.66 3.468c.771 1.341 1.994 2.3 3.407 2.67a8.286 8.286 0 002.739.347h.255c10.97-3.866 28.294-6.103 43.326-7.37 15.03-1.265 27.77-1.612 29.537-1.646h.397l1.004-.538.987-.52c.413-.214.637-.71.541-1.197a1.095 1.095 0 00-.257-.746.923.923 0 00-.666-.329z" fill="#DDE2E6"/><path d="M82.329 14.089v.098a9.507 9.507 0 00-.819 2.086 9.191 9.191 0 00-.299 2.298v21.346c-.208 1.882.817 3.678 2.503 4.384 1.939.629 3.972.88 5.997.738a15.945 15.945 0 005.998-.738c1.68-.712 2.698-2.506 2.487-4.384V18.57a8.744 8.744 0 00-.33-2.413 9.488 9.488 0 00-.898-2.151H82.455l-.126.082z" fill="#F3F5F6"/><path d="M96.187 15.01a9.063 9.063 0 00-3.005-2.926 7.908 7.908 0 00-7.99 0 9.063 9.063 0 00-3.005 2.925h14.032-.032z" fill="#FFE700"/><path fill="#023852" d="M105.24 52.093H74.168V42.071h31.07v5.011z"/><path fill="#416A7D" d="M104.237 42.07H75.17v-4.008h29.066v2.013z"/><path d="M173.225 53.095a1.345 1.345 0 01-.617-.144 1.18 1.18 0 01-.453-.415l-1.814-2.97-1.813-2.985a.9.9 0 01-.09-.798 1.03 1.03 0 01.58-.623c.289-.11.617-.11.906 0 .305.08.56.264.708.51l1.813 2.987 1.814 2.97c.144.251.176.542.09.814-.096.27-.312.494-.598.622h-.272a.796.796 0 01-.254.032zM179.325 53.093c-.19 0-.376-.053-.542-.154a1.12 1.12 0 01-.382-.445l-1.993-3.903-1.929-3.902a1.188 1.188 0 010-.873 1.15 1.15 0 01.51-.668c.258-.1.54-.1.798 0 .268.093.492.296.621.565l1.945 3.903 1.929 3.902a1.186 1.186 0 01-.43 1.54h-.24a.7.7 0 01-.287.035zM186.364 53.096a1.114 1.114 0 01-.976-.575l-2.422-4.432-2.421-4.431a1.012 1.012 0 01-.084-.82c.082-.277.276-.509.538-.641a1.124 1.124 0 011.497.443l2.421 4.432 2.422 4.432c.116.261.116.558 0 .82-.083.28-.277.516-.538.657h-.252a.692.692 0 01-.185.115zM191.441 53.096c-.368 0-.71-.224-.893-.59l-2.53-5.404-2.53-5.405c-.089-.28-.089-.587 0-.867.076-.29.25-.534.485-.675a.885.885 0 01.773 0c.251.091.463.29.59.554l2.454 5.232 2.53 5.405c.258.56.076 1.254-.41 1.56h-.242a.603.603 0 01-.227.19z" fill="#0099DA"/><path d="M357.93 21.48l9.97-1.23 9.971-1.232h.176l30.504 1.831 30.505 1.8c.255.022.493.134.672.315a.985.985 0 01.08 1.263c-.129.163-.3.289-.496.363l-2.929.947-2.913.963h-.32c-1.504 0-13.668.094-28.12.963-14.452.868-31.176 2.51-41.803 5.587h-6.418a.999.999 0 01-.75-.33.97.97 0 01-.242-.775l.64-4.782.624-4.83a.957.957 0 01.272-.584c.16-.147.36-.24.577-.268z" fill="#DDE2E6"/><path d="M342.25 18.474l-1.178 1.163-1.179 1.163a1.261 1.261 0 01-.366.22 1.064 1.064 0 01-.446 0l-8.598-.896-8.582-.88h-.16l-29.6 1.368-29.585 1.367a.952.952 0 00-.94.786.97.97 0 00.542 1.084l1.003.472.987.487h.414c1.768 0 14.49.33 29.521 1.572 15.032 1.241 32.356 3.143 43.326 6.664h.255a9.221 9.221 0 002.755-.315 5.57 5.57 0 003.391-2.42c.69-1.195 1.591-2.26 2.66-3.143a8.594 8.594 0 013.519-1.745 1.03 1.03 0 00.78-.739.998.998 0 00-.335-1.006l-3.423-2.719-3.423-2.734a1.012 1.012 0 00-.685-.205.875.875 0 00-.653.456z" fill="#F2F4F6"/><path d="M357.703 22.025l-.416 3.075-.417 3c-.031.27.056.54.24.75.193.2.466.313.753.315h6.434c10.61-2.925 27.352-4.5 41.804-5.295 14.453-.795 26.617-.915 28.121-.93h.64l2.097.12 2.097.105c.256.018.496.125.672.3a.871.871 0 01.272.645.878.878 0 01-.192.555 1.07 1.07 0 01-.496.345l-2.93.915-2.912.9a.495.495 0 01-.16 0h-.144c-1.505 0-13.684.09-28.12.915-14.437.825-31.194 2.385-41.806 5.31h-6.434a1.04 1.04 0 01-.752-.315.949.949 0 01-.24-.735l.64-4.665.624-4.59a.785.785 0 01.209-.465c.115-.114.258-.201.416-.255zM262.512 22.75l7.153-.362 7.152-.363c8.108.397 19.514 1.14 30.903 2.47 11.39 1.33 22.747 3.281 30.728 6.08h.271a8.533 8.533 0 002.74-.363c1.396-.358 2.611-1.286 3.393-2.591a12.775 12.775 0 011.72-2.435c.65-.733 1.39-1.366 2.198-1.883l.829.726.828.742c.307.254.44.686.335 1.088-.1.408-.4.722-.78.812a8.523 8.523 0 00-3.521 1.917 12.564 12.564 0 00-2.66 3.455c-.77 1.33-1.987 2.284-3.394 2.66a8.368 8.368 0 01-2.74.345h-.27c-10.96-3.973-28.307-6.183-43.28-7.427-14.974-1.244-27.766-1.606-29.534-1.64h-.414l-.988-.536-.987-.518c-.43-.2-.672-.7-.58-1.197.093-.497.494-.855.962-.859l-.064-.12z" fill="#DDE2E6"/><path d="M356.666 14.089a.36.36 0 000 .099c.365.654.645 1.356.835 2.087.19.751.286 1.525.283 2.302v21.371c.217 1.882-.803 3.682-2.489 4.39a24.709 24.709 0 01-12.003 0c-1.685-.708-2.705-2.508-2.489-4.39V18.577c0-.817.106-1.63.315-2.417a9.564 9.564 0 01.914-2.153h14.524l.11.082z" fill="#F2F4F6"/><path d="M341.777 15.01a9.048 9.048 0 013.086-2.926 7.841 7.841 0 017.955 0 9.041 9.041 0 012.99 2.925h-14.031z" fill="#FFE700"/><path fill="#023852" d="M334.76 52.093H365.832V42.071h-31.07v5.011z"/><path fill="#416A7D" d="M335.763 42.07H364.83v-4.008H335.764v2.013z"/><path d="M371.76 57.327a8.06 8.06 0 00-2.614-5.194 9.064 9.064 0 00-5.417-2.351l-13.56-1.08-13.559-1.065a6.39 6.39 0 01-1.338-.143c-.43 0-.877-.143-1.307-.238l-44.056-9.674-44.071-9.753a79.413 79.413 0 00-6.374-1.144 90.3 90.3 0 00-6.373-.65h-27.342c-2.119.142-4.254.349-6.373.65-2.12.302-4.223.683-6.374 1.144l-43.976 9.753-44.04 9.69a19.257 19.257 0 01-2.645.381l-13.559 1.064-13.56 1.065a9.016 9.016 0 00-5.417 2.35 8.06 8.06 0 00-2.613 5.195 8.307 8.307 0 002.133 6.41 8.36 8.36 0 006.2 2.723H90.95c.825.002 1.648.093 2.454.27.806.189 1.591.46 2.342.81l7.234 3.432 7.233 3.43a17.572 17.572 0 007.425 1.59h20.81c1.314 0 2.574.52 3.503 1.446a4.932 4.932 0 011.452 3.493v3.177h29.572l3.187 6.72 3.187 6.719c2.397 6.408 8.53 10.662 15.391 10.674h49.218c6.867-.006 13.008-4.26 15.408-10.674l3.187-6.72 3.186-6.719h29.525v-3.177c0-2.728 2.219-4.94 4.955-4.94h20.857c1.282.001 2.56-.142 3.808-.429a17.196 17.196 0 003.633-1.239l7.505-3.383 7.217-3.431a12.39 12.39 0 012.343-.81 11.65 11.65 0 012.47-.27h15.423a8.377 8.377 0 006.194-2.728 8.323 8.323 0 002.139-6.406l-.048.032z" fill="#F2F4F6"/><path d="M219.499 26.034H206.33c-2.128.143-4.272.35-6.4.651-2.128.302-4.24.683-6.4 1.144l-44.161 9.753-44.225 9.69a19.411 19.411 0 01-2.656.381l-13.616 1.064-13.616 1.065a9.072 9.072 0 00-5.44 2.35 8.049 8.049 0 00-2.625 5.195 8.285 8.285 0 002.142 6.41 8.412 8.412 0 006.227 2.723h15.488a11.6 11.6 0 012.464.27c.81.189 1.598.46 2.352.81l7.264 3.432 7.264 3.43a17.709 17.709 0 007.456 1.59h20.897c1.32 0 2.585.52 3.518 1.446a4.922 4.922 0 011.458 3.493v3.177h29.696l3.2 6.72 3.2 6.719c2.408 6.408 8.567 10.662 15.456 10.674h24.113V26.034h.112z" fill="#CED6DB"/><path d="M264.718 53.096c.253-.005.5-.076.705-.206.184-.101.333-.243.433-.412l1.806-2.947 1.806-2.962a.89.89 0 00.09-.793 1.023 1.023 0 00-.578-.617 1.347 1.347 0 00-.92 0c-.3.083-.553.265-.705.507l-1.806 2.962-1.806 2.947a.932.932 0 00-.09.808c.095.263.302.484.578.618h.27c.067.04.14.073.217.095zM259.618 53.096c.187-.001.37-.054.532-.154.17-.108.308-.262.403-.446l1.967-3.903 1.952-3.903a1.174 1.174 0 00-.436-1.54 1.143 1.143 0 00-.822 0c-.27.097-.494.299-.63.564l-1.95 3.904-1.968 3.903c-.105.28-.105.592 0 .873.08.288.266.53.516.667h.242a.626.626 0 00.194.035zM253.65 53.096c.2.001.399-.05.573-.148.18-.1.327-.248.422-.427l2.429-4.431 2.429-4.431a1.008 1.008 0 000-.82c-.179-.57-.797-.893-1.383-.723a1.04 1.04 0 00-.658.525l-2.328 4.431-2.43 4.432a1.085 1.085 0 00.456 1.477h.27c.065.051.14.09.22.115zM248.563 53.096a.866.866 0 00.5-.156.984.984 0 00.378-.433l2.53-5.405 2.53-5.405c.104-.276.104-.59 0-.866a1.106 1.106 0 00-.485-.675.845.845 0 00-.758 0 1.027 1.027 0 00-.59.554l-2.454 5.231-2.53 5.405c-.13.264-.157.578-.076.866.075.295.25.545.485.693h.227c.068.083.15.149.243.19z" fill="#0099DA"/><path fill="#DDE2E6" d="M371.845 60.102H69.157v-.982h302.688v.49z"/><path d="M294.144 52.76v12.363h-11.502V49.697c.002-4.903 2.253-9.544 6.13-12.638l5.947 1.29 5.964 1.29-.821.805-.805.79c-3.146 3.042-4.92 7.192-4.93 11.525h.017zM311.492 53.768v12.357h-11.81V50.706c.105-1.773.899-3.444 2.226-4.688a29.688 29.688 0 014.86-3.947l6.48 1.37 6.479 1.369c-1.688 1.289-3.763 2.626-5.383 4.092-1.61 1.18-2.64 2.939-2.852 4.866zM144.854 52.76v12.363h11.501V49.697c-.001-4.903-2.252-9.544-6.128-12.638l-5.965 1.29-5.948 1.29.805.805.822.79c3.138 3.048 4.911 7.194 4.93 11.525h-.017zM128.488 53.768v12.357h11.83V50.706c-.091-1.766-.868-3.437-2.18-4.688a29.183 29.183 0 00-4.884-3.947l-6.49 1.37-6.49 1.369c1.69 1.289 3.785 2.626 5.408 4.092 1.596 1.186 2.611 2.945 2.806 4.866z" fill="#0099DA"/><path fill="#B8C4CB" d="M252.574 127.264h-68.155v-8.018h68.155v4.01z"/><path fill="#DDE2E6" d="M168.383 127.264h13.029v-13.029h-13.029v6.514zM255.58 127.264H268.61v-13.029h-13.029v6.514z"/><path d="M269.533 125.291h-15.419l-2.095.53-2.08.53h-63.833l-2.095-.53-2.08-.53H166.514c0-.082-.112.249-.128.778-.016.53 0 1.275 0 2.003.028.714.32 1.39.816 1.887.49.498 1.151.778 1.84.777h11.963l.352.083 2.415.695 2.4.679.351.083h62.97l.352-.083 2.399-.679 2.399-.695.352-.083h11.964c.692 0 1.357-.28 1.855-.777a2.742 2.742 0 00.8-1.887v-2.003c0-.53 0-.927-.08-.778z" fill="#F2F4F6"/><path d="M168.383 130.271v1.858h2.942v2.905c0 1.798 1.562 3.255 3.487 3.255 1.926 0 3.487-1.457 3.487-3.255v-2.905h3.113v-1.858H168.383zM255.58 130.271v1.858h2.877v2.905c0 1.798 1.572 3.255 3.51 3.255 1.939 0 3.51-1.457 3.51-3.255v-2.905h3.133v-1.858h-13.03z" fill="#023852"/><path d="M229.561 167.355h-24.15a1.959 1.959 0 01-1.949-1.968v-16.109c0-1.087.873-1.968 1.95-1.968h24.15c1.078 0 1.955.878 1.964 1.968v16.109a1.975 1.975 0 01-1.965 1.968z" fill="#B8C4CB"/><path d="M200.638 189.405h34.715a6.183 6.183 0 004.386-1.808 6.172 6.172 0 001.81-4.382v-23.7a6.172 6.172 0 00-1.81-4.383 6.183 6.183 0 00-4.386-1.809h-34.715a6.21 6.21 0 00-6.196 6.191v23.7a6.21 6.21 0 006.196 6.191z" fill="#D9DFE3"/><path d="M201.458 171.863a16.537 16.537 0 104.844-11.692 16.49 16.49 0 00-4.844 11.692z" fill="#F3F5F6"/><path fill="#023852" style="mix-blend-mode:multiply" d="M213.485 124.257h-13.029v-1.002h13.029v.505zM229.522 124.257H216.492v-1.002H229.522v.505zM244.556 124.257h-13.03v-1.002h13.03v.505z"/><path d="M202.46 171.845a15.534 15.534 0 104.552-10.967 15.439 15.439 0 00-4.552 10.967z" fill="#023852"/><path d="M226.396 180.385h-17.803a2.13 2.13 0 01-1.502-.619 2.106 2.106 0 01-.622-1.493v-12.815a2.122 2.122 0 012.124-2.112h17.803a2.122 2.122 0 012.124 2.112v12.815c0 .56-.224 1.097-.623 1.493a2.13 2.13 0 01-1.501.619z" fill="#023852" style="mix-blend-mode:multiply"/><path d="M214.487 171.352a3.007 3.007 0 10.879-2.111 2.973 2.973 0 00-.879 2.111z" fill="#7694A2"/><path d="M220.501 172.378a2.02 2.02 0 00-.59-1.422 1.982 1.982 0 00-2.828 0 2.02 2.02 0 00-.591 1.422c.006.533.218 1.042.59 1.421.79.763 2.039.763 2.829 0 .373-.379.584-.888.59-1.421z" fill="#023852" style="mix-blend-mode:multiply"/><path d="M218.572 170.868a.421.421 0 00.13.3.39.39 0 00.3.121.41.41 0 00.421-.42.39.39 0 00-.12-.302.421.421 0 00-.3-.13.441.441 0 00-.431.431z" fill="#F3F5F6"/><path d="M254.579 116.24h14.454c.684.004 1.341-.31 1.826-.875.486-.564.758-1.332.758-2.133.004-.797-.27-1.562-.759-2.118-.483-.567-1.14-.887-1.825-.888H254.58v6.013zM169.967 116.24h14.452v-6.014h-14.452c-.686 0-1.343.32-1.827.888-.489.556-.763 1.32-.76 2.118 0 .801.273 1.569.759 2.133.486.565 1.143.88 1.828.874z" fill="#F2F4F6"/><path fill="#F2F4F6" d="M183.417 114.235h71.162v-4.009h-71.162v1.996z"/><path d="M89.203 316.712c0 .556 14.519 1.063 38.01 1.423 23.493.36 55.941.59 91.785.59 35.843 0 68.292-.23 91.768-.59s38.027-.867 38.027-1.423c0-.557-14.535-1.048-38.027-1.408-23.492-.36-55.925-.589-91.768-.589-35.844 0-68.292.23-91.784.59-23.492.36-38.011.867-38.011 1.407z" fill="url(#a)" opacity=".2" style="mix-blend-mode:multiply" transform="translate(0 11)"/></g></svg>