<?xml version="1.0" encoding="UTF-8"?>
<svg width="440px" height="330px" viewBox="0 0 440 330" version="1.1" xmlns="http://www.w3.org/2000/svg" xmlns:xlink="http://www.w3.org/1999/xlink">
    <title>Graphic elements / Icons / Rich icons / feedback-notification</title>
    <g id="Graphic-elements-/-Icons-/-Rich-icons-/-feedback-notification" stroke="none" stroke-width="1" fill="none" fill-rule="evenodd">
        <g id="Feedback-(notification)" transform="translate(32.000000, 0.000000)" fill-rule="nonzero">
            <path d="M348.34,52.489585 L14.59,52.489585 C10.7671675,52.4660979 7.07812586,53.895959 4.27,56.49 C1.56435359,58.9754511 0.0169749372,62.4760782 0,66.15 L0,256.43 C0.0169749372,260.103922 1.56435359,263.604549 4.27,266.09 C7.07812586,268.684041 10.7671675,270.113902 14.59,270.09 L87.14,270.09 L87.14,330 L119.14,300.05 L151.14,270.05 L348.34,270.05 C352.16068,270.078405 355.848196,268.647749 358.65,266.05 C361.358336,263.565583 362.909237,260.065185 362.93,256.39 L362.93,66.15 C362.909237,62.4748151 361.358336,58.9744171 358.65,56.49 C355.848196,53.8922513 352.16068,52.4615953 348.34,52.489585 Z" id="Path" fill="#023852" opacity="0.2" style="mix-blend-mode: multiply;"></path>
            <path d="M361.41,39.999585 L27.66,39.999585 C23.8393199,39.9715953 20.151804,41.4022513 17.35,44 C14.6416635,46.4844171 13.0907625,49.9848151 13.07,53.66 L13.07,243.94 C13.0883332,247.615706 14.6396457,251.117032 17.35,253.6 C20.151804,256.197749 23.8393199,257.628405 27.66,257.6 L100.21,257.6 L100.21,317.5 L132.21,287.55 L164.21,257.6 L361.41,257.6 C365.234126,257.630959 368.925674,256.200126 371.73,253.6 C374.437667,251.115998 375.985457,247.614441 376,243.94 L376,53.66 C375.983025,49.9860782 374.435646,46.4854511 371.73,44 C368.921874,41.405959 365.232832,39.9760979 361.41,39.999585 Z" id="Path" fill="#0099DA"></path>
            <g id="Group" opacity="0.8" style="mix-blend-mode: multiply;" transform="translate(101.000000, 133.000000)" fill="#023852">
                <path d="M145.05996,18.74 C145.041798,27.5409375 151.245557,35.1280617 159.874762,36.8582794 C168.503967,38.5884972 177.153137,33.9794925 180.52924,25.8518382 C183.905343,17.7241839 181.067253,8.34354812 173.751798,3.45059933 C166.436343,-1.44234945 156.682781,-0.483650969 150.46,5.74 C147.004291,9.18377189 145.061308,13.8613231 145.05996,18.74 Z" id="Path" opacity="0.2" style="mix-blend-mode: multiply;"></path>
                <path d="M72.6599601,18.74 C72.6417979,27.5409375 78.8455568,35.1280617 87.4747618,36.8582794 C96.1039669,38.5884972 104.753137,33.9794925 108.12924,25.8518382 C111.505343,17.7241839 108.667253,8.34354812 101.351798,3.45059933 C94.036343,-1.44234945 84.2827808,-0.483650969 78.06,5.74 C74.6042909,9.18377189 72.6613081,13.8613231 72.6599601,18.74 L72.6599601,18.74 Z" id="Path" opacity="0.2" style="mix-blend-mode: multiply;"></path>
                <path d="M0.259989195,18.74 C0.250540462,27.5302426 6.45348137,35.1023241 15.073608,36.8233331 C23.6937347,38.544342 32.3287651,33.9346627 35.695432,25.8146868 C39.062099,17.6947109 36.2221699,8.32733686 28.9132304,3.44390993 C21.6042909,-1.43951699 11.8632174,-0.47806918 5.65,5.74 C2.20075635,9.18728418 0.261959078,13.8634186 0.259989195,18.74 L0.259989195,18.74 Z" id="Path" opacity="0.2" style="mix-blend-mode: multiply;"></path>
            </g>
            <path d="M250.999989,145.42 C250.99054,154.210243 257.193481,161.782324 265.813608,163.503333 C274.433735,165.224342 283.068765,160.614663 286.435432,152.494687 C289.802099,144.374711 286.96217,135.007337 279.65323,130.12391 C272.344291,125.240483 262.603217,126.201931 256.39,132.42 C252.940756,135.867284 251.001959,140.543419 250.999989,145.42 Z" id="Path" fill="#FFE700"></path>
            <path d="M178.569989,145.42 C178.56054,154.210243 184.763481,161.782324 193.383608,163.503333 C202.003735,165.224342 210.638765,160.614663 214.005432,152.494687 C217.372099,144.374711 214.53217,135.007337 207.22323,130.12391 C199.914291,125.240483 190.173217,126.201931 183.96,132.42 C180.510756,135.867284 178.571959,140.543419 178.569989,145.42 L178.569989,145.42 Z" id="Path" fill="#FFFFFF"></path>
            <path d="M106.15996,145.42 C106.141798,154.220938 112.345557,161.808062 120.974762,163.538279 C129.603967,165.268497 138.253137,160.659492 141.62924,152.531838 C145.005343,144.404184 142.167253,135.023548 134.851798,130.130599 C127.536343,125.237651 117.782781,126.196349 111.56,132.42 C108.108019,135.866269 106.165708,140.542202 106.15996,145.42 L106.15996,145.42 Z" id="Path" fill="#FFFFFF"></path>
            <path d="M391.78,7 L294.22,7 C291.774704,7 289.429561,7.97139007 287.700475,9.70047548 C285.97139,11.4295609 285,13.774704 285,16.22 L285,113.78 C285,118.872065 289.127935,123 294.22,123 L391.78,123 C394.225296,123 396.570439,122.02861 398.299525,120.299525 C400.02861,118.570439 401,116.225296 401,113.78 L401,16.22 C401,13.774704 400.02861,11.4295609 398.299525,9.70047548 C396.570439,7.97139007 394.225296,7 391.78,7 L391.78,7 Z" id="Path" fill="#081935" opacity="0.2" style="mix-blend-mode: multiply;"></path>
            <path d="M398.78,0 L301.22,0 C296.127935,0 292,4.12793461 292,9.22 L292,106.78 C292,109.225296 292.97139,111.570439 294.700475,113.299525 C296.429561,115.02861 298.774704,116 301.22,116 L398.78,116 C403.872065,116 408,111.872065 408,106.78 L408,9.22 C408,4.12793461 403.872065,0 398.78,0 Z" id="Path" fill="#FFE700"></path>
            <polygon id="Path" fill="#023852" points="344.88 69.78 350 69.78 355.12 69.78 355.55 48.89 355.97 28 350 28 344.03 28 344.45 48.89"></polygon>
            <path d="M356.880025,81.12 C356.875108,77.8366858 354.550881,75.0143586 351.329443,74.3799167 C348.108006,73.7454748 344.887174,75.4757375 343.63768,78.5120083 C342.388186,81.5482791 343.458264,85.0443481 346.193165,86.8610742 C348.928065,88.6778004 352.565571,88.3088614 354.88,85.98 C356.165378,84.6897208 356.884908,82.9412611 356.880025,81.12 Z" id="Path" fill="#023852"></path>
        </g>
    </g>
</svg>