<?xml version="1.0" encoding="UTF-8"?>
<svg width="440px" height="330px" viewBox="0 0 440 330" version="1.1" xmlns="http://www.w3.org/2000/svg" xmlns:xlink="http://www.w3.org/1999/xlink">
    <title>Graphic elements / Icons / Rich icons / feedback</title>
    <g id="Graphic-elements-/-Icons-/-Rich-icons-/-feedback" stroke="none" stroke-width="1" fill="none" fill-rule="evenodd">
        <g id="Feedback-(notification)" transform="translate(32.000000, 40.000000)" fill-rule="nonzero">
            <path d="M348.34,12.489585 L14.59,12.489585 C10.7671675,12.4660979 7.07812586,13.895959 4.27,16.49 C1.56435359,18.9754511 0.0169749372,22.4760782 0,26.15 L0,216.43 C0.0169749372,220.103922 1.56435359,223.604549 4.27,226.09 C7.07812586,228.684041 10.7671675,230.113902 14.59,230.09 L87.14,230.09 L87.14,290 L119.14,260.05 L151.14,230.05 L348.34,230.05 C352.16068,230.078405 355.848196,228.647749 358.65,226.05 C361.358336,223.565583 362.909237,220.065185 362.93,216.39 L362.93,26.15 C362.909237,22.4748151 361.358336,18.9744171 358.65,16.49 C355.848196,13.8922513 352.16068,12.4615953 348.34,12.489585 Z" id="Path" fill="#023852" opacity="0.2" style="mix-blend-mode: multiply;"></path>
            <path d="M361.41,-0.000415002647 L27.66,-0.000415002647 C23.8393199,-0.0284047086 20.151804,1.40225132 17.35,4 C14.6416635,6.48441709 13.0907625,9.98481514 13.07,13.66 L13.07,203.94 C13.0883332,207.615706 14.6396457,211.117032 17.35,213.6 C20.151804,216.197749 23.8393199,217.628405 27.66,217.6 L100.21,217.6 L100.21,277.5 L132.21,247.55 L164.21,217.6 L361.41,217.6 C365.234126,217.630959 368.925674,216.200126 371.73,213.6 C374.437667,211.115998 375.985457,207.614441 376,203.94 L376,13.66 C375.983025,9.98607819 374.435646,6.48545108 371.73,4 C368.921874,1.405959 365.232832,-0.0239020988 361.41,-0.000415002647 Z" id="Path" fill="#0099DA"></path>
            <g id="Group" opacity="0.8" style="mix-blend-mode: multiply;" transform="translate(101.000000, 93.000000)" fill="#023852">
                <path d="M145.05996,18.74 C145.041798,27.5409375 151.245557,35.1280617 159.874762,36.8582794 C168.503967,38.5884972 177.153137,33.9794925 180.52924,25.8518382 C183.905343,17.7241839 181.067253,8.34354812 173.751798,3.45059933 C166.436343,-1.44234945 156.682781,-0.483650969 150.46,5.74 C147.004291,9.18377189 145.061308,13.8613231 145.05996,18.74 Z" id="Path" opacity="0.2" style="mix-blend-mode: multiply;"></path>
                <path d="M72.6599601,18.74 C72.6417979,27.5409375 78.8455568,35.1280617 87.4747618,36.8582794 C96.1039669,38.5884972 104.753137,33.9794925 108.12924,25.8518382 C111.505343,17.7241839 108.667253,8.34354812 101.351798,3.45059933 C94.036343,-1.44234945 84.2827808,-0.483650969 78.06,5.74 C74.6042909,9.18377189 72.6613081,13.8613231 72.6599601,18.74 L72.6599601,18.74 Z" id="Path" opacity="0.2" style="mix-blend-mode: multiply;"></path>
                <path d="M0.259989195,18.74 C0.250540462,27.5302426 6.45348137,35.1023241 15.073608,36.8233331 C23.6937347,38.544342 32.3287651,33.9346627 35.695432,25.8146868 C39.062099,17.6947109 36.2221699,8.32733686 28.9132304,3.44390993 C21.6042909,-1.43951699 11.8632174,-0.47806918 5.65,5.74 C2.20075635,9.18728418 0.261959078,13.8634186 0.259989195,18.74 L0.259989195,18.74 Z" id="Path" opacity="0.2" style="mix-blend-mode: multiply;"></path>
            </g>
            <path d="M250.999989,105.42 C250.99054,114.210243 257.193481,121.782324 265.813608,123.503333 C274.433735,125.224342 283.068765,120.614663 286.435432,112.494687 C289.802099,104.374711 286.96217,95.0073369 279.65323,90.1239099 C272.344291,85.240483 262.603217,86.2019308 256.39,92.42 C252.940756,95.8672842 251.001959,100.543419 250.999989,105.42 Z" id="Path" fill="#FFE700"></path>
            <path d="M178.569989,105.42 C178.56054,114.210243 184.763481,121.782324 193.383608,123.503333 C202.003735,125.224342 210.638765,120.614663 214.005432,112.494687 C217.372099,104.374711 214.53217,95.0073369 207.22323,90.1239099 C199.914291,85.240483 190.173217,86.2019308 183.96,92.42 C180.510756,95.8672842 178.571959,100.543419 178.569989,105.42 L178.569989,105.42 Z" id="Path" fill="#FFFFFF"></path>
            <path d="M106.15996,105.42 C106.141798,114.220938 112.345557,121.808062 120.974762,123.538279 C129.603967,125.268497 138.253137,120.659492 141.62924,112.531838 C145.005343,104.404184 142.167253,95.0235481 134.851798,90.1305993 C127.536343,85.2376505 117.782781,86.196349 111.56,92.42 C108.108019,95.8662691 106.165708,100.542202 106.15996,105.42 L106.15996,105.42 Z" id="Path" fill="#FFFFFF"></path>
        </g>
    </g>
</svg>