<?xml version="1.0" encoding="utf-8"?>
<!-- Generator: Adobe Illustrator 25.0.0, SVG Export Plug-In . SVG Version: 6.00 Build 0)  -->
<svg version="1.1" id="Layer_1" xmlns="http://www.w3.org/2000/svg" xmlns:xlink="http://www.w3.org/1999/xlink" x="0px"
	y="0px" viewBox="0 0 440 330" style="enable-background:new 0 0 440 330;" xml:space="preserve">
	<style type="text/css">
		.st0 {
			fill: #E9EEF1;
		}

		.st1 {
			fill: #3DB3E3;
		}

		.st2 {
			filter: url(#Adobe_OpacityMaskFilter);
		}

		.st3 {
			fill-rule: evenodd;
			clip-rule: evenodd;
			fill: #FFFFFF;
		}

		.st4 {
			mask: url(#mask-2_1_);
			fill: #023852;
		}

		.st5 {
			filter: url(#Adobe_OpacityMaskFilter_1_);
		}

		.st6 {
			mask: url(#mask-2_2_);
			fill: #FFFFFF;
		}

		.st7 {
			filter: url(#Adobe_OpacityMaskFilter_2_);
		}

		.st8 {
			mask: url(#mask-2_3_);
			fill: #023852;
		}

		.st9 {
			filter: url(#Adobe_OpacityMaskFilter_3_);
		}

		.st10 {
			mask: url(#mask-2_4_);
			fill: #FFFFFF;
		}

		.st11 {
			filter: url(#Adobe_OpacityMaskFilter_4_);
		}

		.st12 {
			mask: url(#mask-2_5_);
			fill: #B2E0F3;
		}

		.st13 {
			filter: url(#Adobe_OpacityMaskFilter_5_);
		}

		.st14 {
			opacity: 0.6;
			mask: url(#mask-2_6_);
			fill: #003A5D;
			enable-background: new;
		}

		.st15 {
			filter: url(#Adobe_OpacityMaskFilter_6_);
		}

		.st16 {
			mask: url(#mask-2_7_);
			fill: #B2E0F3;
		}

		.st17 {
			filter: url(#Adobe_OpacityMaskFilter_7_);
		}

		.st18 {
			mask: url(#mask-2_8_);
			fill: #19A1DB;
		}

		.st19 {
			filter: url(#Adobe_OpacityMaskFilter_8_);
		}

		.st20 {
			opacity: 0.6;
			mask: url(#mask-2_9_);
			fill: #003A5D;
			enable-background: new;
		}

		.st21 {
			filter: url(#Adobe_OpacityMaskFilter_9_);
		}

		.st22 {
			mask: url(#mask-2_10_);
			fill: #19A1DB;
		}

		.st23 {
			filter: url(#Adobe_OpacityMaskFilter_10_);
		}

		.st24 {
			mask: url(#mask-2_11_);
			fill: #19A1DB;
		}

		.st25 {
			filter: url(#Adobe_OpacityMaskFilter_11_);
		}

		.st26 {
			mask: url(#mask-2_12_);
			fill: #33ACDF;
		}

		.st27 {
			filter: url(#Adobe_OpacityMaskFilter_12_);
		}

		.st28 {
			mask: url(#mask-2_13_);
			fill: #33ACDF;
		}

		.st29 {
			filter: url(#Adobe_OpacityMaskFilter_13_);
		}

		.st30 {
			mask: url(#mask-2_14_);
			fill: #FFE700;
		}

		.st31 {
			fill: #19A1DB;
		}

		.st32 {
			fill: #0097D7;
		}

		.st33 {
			fill: #023852;
		}

		.st34 {
			fill: #33627E;
		}

		.st35 {
			fill: #4A96C8;
		}

		.st36 {
			filter: url(#Adobe_OpacityMaskFilter_14_);
		}

		.st37 {
			mask: url(#mask-6_1_);
			fill: #023852;
		}

		.st38 {
			filter: url(#Adobe_OpacityMaskFilter_15_);
		}

		.st39 {
			mask: url(#mask-6_2_);
			fill: #1B5679;
		}

		.st40 {
			filter: url(#Adobe_OpacityMaskFilter_16_);
		}

		.st41 {
			mask: url(#mask-6_3_);
			fill: #FFFFFF;
		}

		.st42 {
			filter: url(#Adobe_OpacityMaskFilter_17_);
		}

		.st43 {
			mask: url(#mask-6_4_);
			fill: #19A1DB;
		}

		.st44 {
			filter: url(#Adobe_OpacityMaskFilter_18_);
		}

		.st45 {
			mask: url(#mask-6_5_);
			fill: #0097D7;
		}

		.st46 {
			filter: url(#Adobe_OpacityMaskFilter_19_);
		}

		.st47 {
			mask: url(#mask-6_6_);
			fill: #19A1DB;
		}

		.st48 {
			filter: url(#Adobe_OpacityMaskFilter_20_);
		}

		.st49 {
			mask: url(#mask-6_7_);
			fill: #42A9E0;
		}

		.st50 {
			filter: url(#Adobe_OpacityMaskFilter_21_);
		}

		.st51 {
			mask: url(#mask-6_8_);
			fill: #19A1DB;
		}

		.st52 {
			fill: #42A9E0;
		}

		.st53 {
			filter: url(#Adobe_OpacityMaskFilter_22_);
		}

		.st54 {
			mask: url(#mask-8_1_);
			fill: #0099DA;
		}

		.st55 {
			filter: url(#Adobe_OpacityMaskFilter_23_);
		}

		.st56 {
			mask: url(#mask-8_2_);
			fill: #42A9E0;
		}

		.st57 {
			filter: url(#Adobe_OpacityMaskFilter_24_);
		}

		.st58 {
			mask: url(#mask-8_3_);
			fill: #F4F4F5;
		}

		.st59 {
			filter: url(#Adobe_OpacityMaskFilter_25_);
		}

		.st60 {
			mask: url(#mask-8_4_);
			fill: #FFFFFF;
		}

		.st61 {
			filter: url(#Adobe_OpacityMaskFilter_26_);
		}

		.st62 {
			mask: url(#mask-8_5_);
			fill: #19A1DB;
		}

		.st63 {
			filter: url(#Adobe_OpacityMaskFilter_27_);
		}

		.st64 {
			mask: url(#mask-8_6_);
			fill: #023852;
		}

		.st65 {
			filter: url(#Adobe_OpacityMaskFilter_28_);
		}

		.st66 {
			mask: url(#mask-8_7_);
			fill: #0099DA;
		}

		.st67 {
			filter: url(#Adobe_OpacityMaskFilter_29_);
		}

		.st68 {
			mask: url(#mask-8_8_);
			fill: #0097D7;
		}

		.st69 {
			filter: url(#Adobe_OpacityMaskFilter_30_);
		}

		.st70 {
			mask: url(#mask-8_9_);
			fill: #0099DA;
		}

		.st71 {
			filter: url(#Adobe_OpacityMaskFilter_31_);
		}

		.st72 {
			mask: url(#mask-8_10_);
			fill: #42A9E0;
		}

		.st73 {
			fill: #0099DA;
		}

		.st74 {
			fill: #1B5679;
		}

		.st75 {
			fill: #FFFFFF;
		}
	</style>
	<path id="Path" class="st0" d="M0.8,119.9l11.3-7h66l5.3,7.8l-7.3,8.6l8.5,10.3h13.3v-15.2l7.3,7h9.8l3.2,9l-32.4,30.8H68.4v11.5
	h8.9L88.2,195h16.6l12.6,14.4h10.1v16l-33.2,34v24.2l-12.6-11.1v-34.9l-10.6-11.5v-18.5l7.7-9l-6.9-7.8h-9.7l-28-30.7v-18.9
	L20.6,126H9.7L0,132.6C0,132.6,0.8,118.7,0.8,119.9z" />
	<polygon id="Path_1_" class="st0" points="69.1,100 75.3,108.1 58.2,108.1 52.6,100 " />
	<path id="Path_2_" class="st0" d="M122.3,106.3l9.4-9h26.8l6.2,4.8v13.8l-22.5,21.6l-8.3-8.4v-9.6
	C134,119.5,121.6,105.6,122.3,106.3z" />
	<path id="Path_3_" class="st0" d="M217.9,152.7h-8.3l-5.3,5.7v6.9l5,4.8l8.6-8.7h6.5l6.6,6.7h11.7l4-4h7.6l9.9,10l-8.8,8.9h-19.1
	l-5.8-5.9h-16.4L198.5,193v14.8l14.2,14.3h17.7v19.8l7.9,8.1v18.9l6.6,6.7h8.1l13.2-13.4v-29.3l15.7-15.9l-23-23.3l4.4-4.5
	l17.2,17.4l10.6-10.8l-12-12.1l4.7-4.8l6.6,6.7h7.9l11.7,11.8l17.2-17.3l17.7,18h6.3v-9.7l10.8-11v-7.6h11.1l16.8-17.1v-13.5h13.3
	l8.9-9v-9.9H391l-5.5-5.5h-28.2l-8.6-8.7h-27.1l-8.4,8.5h-15.2l-8.9,9h-26.2l-8.8-8.9h-14.5L229.2,125v9.8l12.6-12.8l4.8,4.9
	l-7.7,7.8v6.1h-15.5l-5.5,5.5C218.1,146.3,217.9,153.9,217.9,152.7z" />
	<polygon id="Path_4_" class="st0" points="372.5,246.9 383.1,236.3 401.4,236.3 415.1,250 415.1,268.9 400.4,268.9 392.2,260.6 
	372.5,260.6 " />
	<path id="Path_5_" class="st0" d="M387.1,227H400l6.8-6.8h-13.4C393.4,220.2,386.8,226.7,387.1,227z" />
	<polygon id="Path_6_" class="st0" points="397.4,155.3 383.2,169.5 393.3,169.5 407.6,155.2 " />
	<path id="Path_7_" class="st0" d="M371.8,203.8h11.4l-10.6,10.6h-10.4C362.2,214.5,371.9,204,371.8,203.8z" />
	<polygon id="Path_8_" class="st0" points="358.4,198.4 353.6,203.2 358.3,207.8 363.2,202.8 " />
	<polygon id="Path_9_" class="st0" points="373.6,218.8 368.8,223.6 373.4,228.3 378.4,223.3 " />
	<path id="Path_10_" class="st0" d="M348.8,207.1h-10.6l15,15h10.6C363.8,222.1,348.7,207.1,348.8,207.1z" />
	<path id="Path_11_" class="st0" d="M430,261.5l-9.4,9.4h10.6l8.8-9C440,261.8,430.4,261.5,430,261.5z" />
	<path id="Path_12_" class="st0" d="M284.5,237l-8.5,8.6v12.6l8.5-8.5C284.5,249.6,284.4,237,284.5,237z" />
	<path id="Path_13_" class="st0" d="M75.5,98.7c-0.4,0,6-6,6-6l6.3,6.3l-5.6,5.6C82.2,104.7,75.6,98.7,75.5,98.7z" />
	<path id="Path_14_" class="st0" d="M92.2,108.2h10.8l15.2,15.2H107C107,123.4,92.3,108.1,92.2,108.2z" />
	<path id="Path_15_" class="st0" d="M171.5,124.7l-7.1,7.1l6,6l6.8-6.8C177.2,131.1,171.4,124.7,171.5,124.7z" />
	<path id="Path_16_" class="st0"
		d="M205.2,130.1c0.4,0,6.1,6.1,6.1,6.1v11.2l-5.9-5.9C205.3,141.4,204.9,130.1,205.2,130.1z" />
	<g id="Oval">
		<circle id="path-1_1_" class="st1" cx="90.4" cy="95.6" r="48" />
	</g>
	<defs>
		<filter id="Adobe_OpacityMaskFilter" filterUnits="userSpaceOnUse" x="96" y="84.5" width="51.6" height="61.2">
			<feColorMatrix type="matrix" values="1 0 0 0 0  0 1 0 0 0  0 0 1 0 0  0 0 0 1 0" />
		</filter>
	</defs>
	<mask maskUnits="userSpaceOnUse" x="96" y="84.5" width="51.6" height="61.2" id="mask-2_1_">
		<g class="st2">
			<circle id="path-1_2_" class="st3" cx="90.4" cy="95.6" r="48" />
		</g>
	</mask>
	<path id="Path_17_" class="st4" d="M96,84.5l5,1.5l42,19.9c0.7,0.3,1.1,1,1.2,1.7l3.4,38.1H96L96,84.5z" />
	<defs>
		<filter id="Adobe_OpacityMaskFilter_1_" filterUnits="userSpaceOnUse" x="74.6" y="82.1" width="38" height="63.7">
			<feColorMatrix type="matrix" values="1 0 0 0 0  0 1 0 0 0  0 0 1 0 0  0 0 0 1 0" />
		</filter>
	</defs>
	<mask maskUnits="userSpaceOnUse" x="74.6" y="82.1" width="38" height="63.7" id="mask-2_2_">
		<g class="st5">
			<circle id="path-1_3_" class="st3" cx="90.4" cy="95.6" r="48" />
		</g>
	</mask>
	<polygon id="Path_18_" class="st6" points="92.7,82.1 108.3,89.5 112.6,145.7 74.6,145.7 78.4,89.9 " />
	<defs>
		<filter id="Adobe_OpacityMaskFilter_2_" filterUnits="userSpaceOnUse" x="32.2" y="84.5" width="51.6"
			height="61.2">
			<feColorMatrix type="matrix" values="1 0 0 0 0  0 1 0 0 0  0 0 1 0 0  0 0 0 1 0" />
		</filter>
	</defs>
	<mask maskUnits="userSpaceOnUse" x="32.2" y="84.5" width="51.6" height="61.2" id="mask-2_3_">
		<g class="st7">
			<circle id="path-1_4_" class="st3" cx="90.4" cy="95.6" r="48" />
		</g>
	</mask>
	<path id="Path_19_" class="st8" d="M83.8,84.5l-5,1.5l-42,19.9c-0.7,0.3-1.1,1-1.2,1.7l-3.4,38.1h51.5L83.8,84.5z" />
	<defs>
		<filter id="Adobe_OpacityMaskFilter_3_" filterUnits="userSpaceOnUse" x="67.1" y="82.1" width="19.9"
			height="63.7">
			<feColorMatrix type="matrix" values="1 0 0 0 0  0 1 0 0 0  0 0 1 0 0  0 0 0 1 0" />
		</filter>
	</defs>
	<mask maskUnits="userSpaceOnUse" x="67.1" y="82.1" width="19.9" height="63.7" id="mask-2_4_">
		<g class="st9">
			<circle id="path-1_5_" class="st3" cx="90.4" cy="95.6" r="48" />
		</g>
	</mask>
	<polygon id="Path_20_" class="st10" points="87,82.1 71.4,89.5 67.1,145.7 87,145.7 " />
	<defs>
		<filter id="Adobe_OpacityMaskFilter_4_" filterUnits="userSpaceOnUse" x="75.4" y="100.3" width="26.4"
			height="6.8">
			<feColorMatrix type="matrix" values="1 0 0 0 0  0 1 0 0 0  0 0 1 0 0  0 0 0 1 0" />
		</filter>
	</defs>
	<mask maskUnits="userSpaceOnUse" x="75.4" y="100.3" width="26.4" height="6.8" id="mask-2_5_">
		<g class="st11">
			<circle id="path-1_6_" class="st3" cx="90.4" cy="95.6" r="48" />
		</g>
	</mask>
	<path id="Path_21_" class="st12" d="M75.4,106.8l3.1-1.6l3.1-1.6l3.2-1.6l3.1-1.6h1.5l3.1,1.7l3.1,1.7l3.1,1.7l3.1,1.7l0,0h-0.1
	l-3.2-1l-3.2-1.2l-3.2-1.2l-3.2-1.2l0,0l-3.3,1.1l-3.4,1.1l-3.3,1.1l-3.3,1.1c0,0,0,0-0.1,0c0,0,0,0,0-0.1
	C75.4,106.8,75.4,106.8,75.4,106.8z" />
	<defs>
		<filter id="Adobe_OpacityMaskFilter_5_" filterUnits="userSpaceOnUse" x="32.2" y="115" width="12.4"
			height="30.7">
			<feColorMatrix type="matrix" values="1 0 0 0 0  0 1 0 0 0  0 0 1 0 0  0 0 0 1 0" />
		</filter>
	</defs>
	<mask maskUnits="userSpaceOnUse" x="32.2" y="115" width="12.4" height="30.7" id="mask-2_6_">
		<g class="st13">
			<circle id="path-1_7_" class="st3" cx="90.4" cy="95.6" r="48" />
		</g>
	</mask>
	<path id="Path_22_" class="st14" d="M32.2,145.7l2.6-29.8c0-0.4,0.4-0.8,0.9-0.8c0.4,0,0.9,0.3,1,0.7l7.9,30H32.2z" />
	<defs>
		<filter id="Adobe_OpacityMaskFilter_6_" filterUnits="userSpaceOnUse" x="67.1" y="98.2" width="3.9"
			height="47.5">
			<feColorMatrix type="matrix" values="1 0 0 0 0  0 1 0 0 0  0 0 1 0 0  0 0 0 1 0" />
		</filter>
	</defs>
	<mask maskUnits="userSpaceOnUse" x="67.1" y="98.2" width="3.9" height="47.5" id="mask-2_7_">
		<g class="st15">
			<circle id="path-1_8_" class="st3" cx="90.4" cy="95.6" r="48" />
		</g>
	</mask>
	<polygon id="Path_23_" class="st16" points="67.1,145.7 70.6,98.2 71,145.7 " />
	<defs>
		<filter id="Adobe_OpacityMaskFilter_7_" filterUnits="userSpaceOnUse" x="74.7" y="80.1" width="28.3" height="19">
			<feColorMatrix type="matrix" values="1 0 0 0 0  0 1 0 0 0  0 0 1 0 0  0 0 0 1 0" />
		</filter>
	</defs>
	<mask maskUnits="userSpaceOnUse" x="74.7" y="80.1" width="28.3" height="19" id="mask-2_8_">
		<g class="st17">
			<circle id="path-1_9_" class="st3" cx="90.4" cy="95.6" r="48" />
		</g>
	</mask>
	<polygon id="Path_24_" class="st18" points="102.9,93.7 88.8,99.1 74.7,93.7 74.7,82.1 102.9,80.1 " />
	<defs>
		<filter id="Adobe_OpacityMaskFilter_8_" filterUnits="userSpaceOnUse" x="135.1" y="115" width="12.4"
			height="30.7">
			<feColorMatrix type="matrix" values="1 0 0 0 0  0 1 0 0 0  0 0 1 0 0  0 0 0 1 0" />
		</filter>
	</defs>
	<mask maskUnits="userSpaceOnUse" x="135.1" y="115" width="12.4" height="30.7" id="mask-2_9_">
		<g class="st19">
			<circle id="path-1_10_" class="st3" cx="90.4" cy="95.6" r="48" />
		</g>
	</mask>
	<path id="Path_25_" class="st20" d="M147.5,145.7l-2.6-29.8c0-0.5-0.4-0.8-0.8-0.9s-0.9,0.3-1,0.7l-7.9,30H147.5z" />
	<defs>
		<filter id="Adobe_OpacityMaskFilter_9_" filterUnits="userSpaceOnUse" x="67.1" y="57.2" width="6.1" height="12">
			<feColorMatrix type="matrix" values="1 0 0 0 0  0 1 0 0 0  0 0 1 0 0  0 0 0 1 0" />
		</filter>
	</defs>
	<mask maskUnits="userSpaceOnUse" x="67.1" y="57.2" width="6.1" height="12" id="mask-2_10_">
		<g class="st21">
			<circle id="path-1_11_" class="st3" cx="90.4" cy="95.6" r="48" />
		</g>
	</mask>
	<path id="Path_26_" class="st22" d="M71,58.1l-0.4-0.2l-0.4-0.2l-0.4-0.2l-0.4-0.2l-0.2-0.1H69h-0.6h-0.1h-0.1
	c-0.2,0-0.3,0.1-0.5,0.2c-0.1,0.1-0.3,0.2-0.4,0.3c-0.1,0.1-0.2,0.3-0.2,0.4c0,0.2,0,0.3,0,0.5l0.3,2l0.3,1.9l0.3,1.9l0.2,2
	c0,0.1,0,0.2,0,0.2c0,0.1,0.1,0.2,0.1,0.2c0,0.1,0.1,0.1,0.1,0.2c0.1,0.1,0.1,0.1,0.2,0.2l0.6,0.4l0.6,0.4l0.6,0.4l0.6,0.4l0.2,0.1
	l0.2,0.1c0.1,0,0.2,0,0.2,0h0.7c0.3,0,0.7-0.2,0.8-0.5c0.1-0.1,0.2-0.3,0.2-0.4c0-0.2,0-0.3,0-0.5l-0.4-2.2l-0.4-2.2l-0.3-2.3
	L71.8,59c0-0.1,0-0.2-0.1-0.3c0-0.1-0.1-0.2-0.2-0.3c-0.1-0.1-0.1-0.1-0.2-0.2C71.3,58.2,71.2,58.1,71,58.1z" />
	<defs>
		<filter id="Adobe_OpacityMaskFilter_10_" filterUnits="userSpaceOnUse" x="104.2" y="57.2" width="6.1"
			height="12">
			<feColorMatrix type="matrix" values="1 0 0 0 0  0 1 0 0 0  0 0 1 0 0  0 0 0 1 0" />
		</filter>
	</defs>
	<mask maskUnits="userSpaceOnUse" x="104.2" y="57.2" width="6.1" height="12" id="mask-2_11_">
		<g class="st23">
			<circle id="path-1_12_" class="st3" cx="90.4" cy="95.6" r="48" />
		</g>
	</mask>
	<path id="Path_27_" class="st24" d="M106.4,58.1l0.4-0.2l0.4-0.2l0.4-0.2l0.4-0.2l0.2-0.1h0.2h0.6h0.1h0.1c0.2,0,0.3,0.1,0.5,0.2
	c0.1,0.1,0.3,0.2,0.4,0.3c0.1,0.1,0.2,0.3,0.2,0.4c0,0.2,0,0.3,0,0.5l-0.3,1.9l-0.3,1.9l-0.2,2l-0.3,2c0,0.1,0,0.2,0,0.2
	c0,0.1-0.1,0.2-0.1,0.2c0,0.1-0.1,0.1-0.1,0.2c-0.1,0.1-0.1,0.1-0.2,0.2l-0.6,0.4l-0.6,0.4l-0.6,0.4l-0.6,0.4
	c-0.1,0-0.1,0.1-0.2,0.1l-0.2,0.1c-0.1,0-0.2,0-0.3,0h-0.7c-0.2,0-0.3-0.1-0.5-0.2c-0.1-0.1-0.3-0.2-0.4-0.3
	c-0.1-0.1-0.2-0.3-0.2-0.4c0-0.2,0-0.3,0-0.5l0.4-2.2l0.4-2.2l0.4-2.3l0.4-2.1c0-0.1,0-0.2,0.1-0.3c0.1-0.2,0.2-0.4,0.4-0.5
	C106.2,58.2,106.3,58.1,106.4,58.1L106.4,58.1z" />
	<defs>
		<filter id="Adobe_OpacityMaskFilter_11_" filterUnits="userSpaceOnUse" x="105.6" y="57.3" width="4.8"
			height="3.4">
			<feColorMatrix type="matrix" values="1 0 0 0 0  0 1 0 0 0  0 0 1 0 0  0 0 0 1 0" />
		</filter>
	</defs>
	<mask maskUnits="userSpaceOnUse" x="105.6" y="57.3" width="4.8" height="3.4" id="mask-2_12_">
		<g class="st25">
			<circle id="path-1_13_" class="st3" cx="90.4" cy="95.6" r="48" />
		</g>
	</mask>
	<path id="Path_28_" class="st26" d="M105.7,59c0-0.1,0-0.2,0.1-0.3c0-0.1,0.1-0.2,0.2-0.3c0.1-0.1,0.1-0.1,0.2-0.2
	c0.1-0.1,0.2-0.1,0.3-0.2l0.4-0.2l0.4-0.2l0.4-0.2l0.4-0.2h0.2c0.1,0,0.1,0,0.2,0h0.4h0.1h0.3h0.1c0.2,0,0.3,0.1,0.5,0.2
	c0.1,0.1,0.3,0.2,0.4,0.3c0.1,0.1,0.2,0.3,0.2,0.4c0,0.2,0,0.3,0,0.5v0.5v0.5l-0.1,0.5v0.5c0-0.2,0-0.3,0-0.5c0-0.2-0.1-0.3-0.2-0.4
	c-0.1-0.1-0.2-0.2-0.4-0.3c-0.2-0.1-0.3-0.1-0.5-0.2h-0.1h-0.1h-0.6c-0.1,0-0.1,0-0.2,0l-0.2,0.1l-0.4,0.2l-0.4,0.2l-0.4,0.2
	l-0.4,0.2l-0.2,0.1l-0.2,0.1c-0.1,0-0.1,0.1-0.1,0.1l-0.1,0.2v-0.4v-0.4l0.1-0.4V59z" />
	<defs>
		<filter id="Adobe_OpacityMaskFilter_12_" filterUnits="userSpaceOnUse" x="67.2" y="57.2" width="4.8"
			height="3.4">
			<feColorMatrix type="matrix" values="1 0 0 0 0  0 1 0 0 0  0 0 1 0 0  0 0 0 1 0" />
		</filter>
	</defs>
	<mask maskUnits="userSpaceOnUse" x="67.2" y="57.2" width="4.8" height="3.4" id="mask-2_13_">
		<g class="st27">
			<circle id="path-1_14_" class="st3" cx="90.4" cy="95.6" r="48" />
		</g>
	</mask>
	<path id="Path_29_" class="st28" d="M68.2,57.2h0.1h0.3h0.1H69c0.1,0,0.1,0,0.2,0h0.2l0.4,0.2l0.4,0.2l0.4,0.2L71,58
	c0.1,0,0.2,0.1,0.3,0.2c0.1,0.1,0.1,0.1,0.2,0.2c0.1,0.1,0.1,0.2,0.2,0.3c0,0.1,0.1,0.2,0.1,0.3l0.1,0.4l0.1,0.4v0.4l0.1,0.4
	c0-0.1-0.1-0.2-0.1-0.3c0-0.1-0.1-0.2-0.2-0.3c-0.1-0.1-0.1-0.1-0.2-0.2c-0.1-0.1-0.1-0.1-0.2-0.1l-0.4-0.2l-0.4-0.2L70,59.2
	L69.6,59L69.4,59c-0.1,0-0.1,0-0.2,0h-0.4h-0.1h-0.3h-0.1c-0.1,0-0.3,0.1-0.4,0.1c-0.1,0.1-0.2,0.1-0.3,0.2
	c-0.1,0.1-0.2,0.2-0.3,0.3c-0.1,0.1-0.1,0.3-0.1,0.4v-0.4v-0.4V59v-0.4c0-0.2,0-0.3,0-0.5c0-0.2,0.1-0.3,0.2-0.4
	c0.1-0.1,0.2-0.2,0.4-0.3C67.9,57.3,68,57.3,68.2,57.2L68.2,57.2z" />
	<defs>
		<filter id="Adobe_OpacityMaskFilter_13_" filterUnits="userSpaceOnUse" x="81.5" y="100.3" width="15.4"
			height="45.6">
			<feColorMatrix type="matrix" values="1 0 0 0 0  0 1 0 0 0  0 0 1 0 0  0 0 0 1 0" />
		</filter>
	</defs>
	<mask maskUnits="userSpaceOnUse" x="81.5" y="100.3" width="15.4" height="45.6" id="mask-2_14_">
		<g class="st29">
			<circle id="path-1_15_" class="st3" cx="90.4" cy="95.6" r="48" />
		</g>
	</mask>
	<path id="Path_30_" class="st30" d="M90.9,106.4h0.2c0.5,0,1.1-0.3,1.4-0.7c0.3-0.5,0.3-1,0.1-1.5l-1.3-2.9
	c-0.3-0.6-0.8-0.9-1.5-0.9h-1.2c-0.6,0-1.2,0.4-1.5,0.9l-1.3,2.9c-0.2,0.5-0.2,1,0.1,1.5s0.7,0.7,1.3,0.8h0.4l-6,23v16.5h15.4v-16.5
	L90.9,106.4z" />
	<path id="Path_31_" class="st31"
		d="M73.6,43.2l3.7-1.4l3.7-1.4l3.7-1.4l3.7-1.4l0,0l0,0l0,0h0.2l0,0l0,0l0,0l3.7,1.4l3.7,1.4
	l3.7,1.4l3.7,1.4c0.1,0.1,0.3,0.3,0.3,0.5c0.3,0.6,0.6,1.3,0.8,1.9c0.3,1.3,0.6,2.7,0.7,4.1c0.2,2.3,0.3,4.6,0.3,7V75l-1.8,4.4
	l-1.9,4.4l-1.8,4.4l-1.8,4.4l-1.9,0.6l-1.9,0.6l-1.9,0.6l-1.9,0.6h-4l-1.9-0.6l-1.9-0.6l-1.9-0.6l-1.9-0.6L77,88.2l-1.8-4.4
	l-1.8-4.4L71.5,75V56.7c0-2.3,0.1-4.7,0.3-7c0.1-1.4,0.4-2.8,0.7-4.1c0.2-0.7,0.4-1.3,0.7-1.9C73.4,43.5,73.5,43.4,73.6,43.2z" />
	<path id="Path_32_" class="st32" d="M78.6,43.1l0.2,0.8l0.2,0.8l0.2,0.8l0.2,0.8l4.9,2.3l4.9,2.3l4.9,2.3l3.4,1.6
	c0.9,0.4,1.5,1.3,1.5,2.4l0,0v15.3l-1.6,3l-1.6,3l-1.6,3l-1.6,3l0.8,1.1l0.8,1.1l0.9,1.1l0.8,1.1l2.1-3.4l2.2-3.4l2.1-3.4l2.1-3.4
	l-0.3-6.1l-0.2-6.1l-0.2-6.1l-0.2-6.1l-1-3.4l-0.9-3.4l-1-3.4l-1-3.4l-5.3,1.5l-5.3,1.5l-5.4,1.5L78.6,43.1z" />
	<path id="Path_33_" class="st33" d="M70.2,39.5l1.8-1.8l1.9-1.8l1.8-1.8l1.8-1.8h0.1h0.1h0.1l0-0.1l1.5-0.5l1.5-0.5l1.5-0.5l1.5-0.5
	h6.2l2.9,1.1l2.9,1.1l2.9,1.1l2.9,1.1h0.1l0,0c0,0,0,0,0.1,0l0,0l1.2,1.2l1.2,1.2l1.2,1.2l1.2,1.2l0.1,0.1c0,0,0,0.1,0,0.1v0.1
	c0,0,0,0.1,0,0.1l0.2,1.8l0.2,1.8l0.2,1.8l0.2,1.8v0.2l-0.2,2.5l-0.2,2.5l-0.2,2.5l-0.2,2.5c0,0.1,0,0.1,0,0.2
	c0,0.1-0.1,0.1-0.1,0.2l-0.2,0.2c-0.1,0-0.1,0.1-0.2,0.1h-0.1c-0.1,0-0.1,0.1-0.2,0.1c-0.1,0-0.1,0.1-0.2,0.1c0,0.1-0.1,0.1-0.1,0.2
	c0,0.1,0,0.1,0,0.2l-0.1,0.6v0.6l-0.1,0.6v0.8H104v-5.4l-0.3-1.9l-0.3-1.8l-0.3-1.9l-0.3-1.8c0,0,0-0.1,0-0.1c0,0,0-0.1,0-0.1
	l-0.2-0.1l-0.1-0.1l-1.1-1l-1.1-1l-1.1-1L98.2,44c-0.1-0.1-0.2-0.1-0.3-0.2c-0.1,0-0.2,0-0.4,0c-0.1,0-0.2,0.1-0.3,0.2
	c-0.1,0.1-0.2,0.2-0.2,0.3v0.2v0.2v0.2V45c0,0.1-0.1,0.1-0.1,0.2c-0.1,0.1-0.3,0.1-0.4,0.1c0,0.1-0.1,0.1-0.2,0.1l-0.2,0.1L92.7,46
	l-3.3,0.6l-3.3,0.5l-3.3,0.5h-0.1h-0.1l-0.1,0.1l-0.1,0.1L81.2,49l-1.1,1.2L79,51.4l-1.1,1.2l0.3-1.4l0.2-1.3l0.3-1.4l0.2-1.4
	c0-0.1,0-0.2,0-0.3c0-0.1,0-0.2-0.1-0.3c0-0.1-0.1-0.2-0.2-0.2c-0.1-0.1-0.2-0.1-0.2-0.1L78,46.1L77.5,46l-0.4-0.2l-0.4-0.2h-0.3
	c-0.1,0-0.2,0-0.3,0.1c-0.1,0-0.2,0.1-0.2,0.2c-0.1,0.1-0.1,0.2-0.2,0.3l-0.5,1.6l-0.5,1.6L74,50.9l-0.5,1.6v0.1l-0.3,2.2L72.7,57
	l-0.3,2.2L72,61.4h-0.6l-0.1-0.7l-0.1-0.7L71,59.2l-0.1-0.7c0,0,0-0.1,0-0.1c0-0.1,0-0.1-0.1-0.1l-0.1-0.1L70.6,58h-0.1l0,0l0,0
	h-0.1l-0.1-0.1c0,0-0.1-0.1-0.1-0.2c0-0.1,0-0.1,0-0.2c-0.1-0.1-0.2-0.2-0.2-0.4V40c0,0,0-0.1,0-0.2c0,0,0-0.1,0-0.1
	c0,0,0-0.1,0-0.1L70.2,39.5z" />
	<path id="Path_34_" class="st34" d="M84.3,30h5.8l0,0h0.1l2.9,1.1l2.9,1.1l2.9,1.1l2.9,1.1h0.1h0.1l0,0l0,0l1.2,1.2l1.2,1.2l1.2,1.2
	l1.2,1.2l0.1,0.1v0.1c0.2,0,0.3,0.2,0.4,0.4c0,0,0,0.1,0,0.1v0.4v0.4v0.4v0.4l-1.8-1.3l-1.8-1.6l-1.7-1.3l-1-0.8l0,0l0,0l0,0l0,0
	L98,35.7l-2.6-0.9L92.7,34l-2.6-0.9h-5.3L83,33.4l-1.5,0.4L80,34.1l-1.5,0.4l0,0h-0.1l0,0l0,0l-2.1,1.3l-2.1,1.3l-2.1,1.3L70,40
	v-0.3l1.9-1.9l2-1.8l1.9-1.9l1.9-1.9l0,0l0,0l0.3-0.2l0,0l1.5-0.5l1.5-0.5l1.5-0.5l1.5-0.5L84.3,30L84.3,30z" />
	<polygon id="Path_35_" class="st32" points="74.7,82.1 74.7,90.7 90.4,98.4 102.9,93.7 102.9,80.1 " />
	<path id="Path_36_" class="st33" d="M97.1,93.2l-1.6,0.5l-1.6,0.5l-1.6,0.5l-1.6,0.5h-0.2h-0.2h-4.1h-0.2h-0.2l-1.5-0.5L83,94.2
	l-1.6-0.5l-1.6-0.5c-0.2,0-0.3-0.1-0.4-0.2c-0.1-0.1-0.3-0.2-0.4-0.3c-0.1-0.1-0.2-0.2-0.3-0.4c-0.1-0.1-0.2-0.3-0.2-0.4l-1.8-4.1
	l-1.7-4.1l-1.7-4.1l-1.7-4.1l-0.1-0.2c0,0,0-0.1,0-0.2c0-0.1,0-0.1,0-0.2c0-0.1,0-0.1,0-0.2V61.4h0.7l0.3,2.5l0.2,2.5l0.3,2.5
	l0.3,2.5c0,0.1,0,0.2,0,0.3c0,0.1,0.1,0.2,0.1,0.3c0,0.1,0.1,0.2,0.1,0.3c0,0.1,0.1,0.2,0.1,0.2l0.8,1.1l0.8,1.1l0.8,1.1l0.8,1.1
	c0.2,0.3,0.5,0.5,0.8,0.7c0.3,0.1,0.7,0.2,1,0.2c0.3,0,0.7-0.1,1-0.3c0.3-0.2,0.6-0.4,0.8-0.7l0.5-0.7l0.5-0.7l0.5-0.7l0.5-0.7
	c0.1-0.2,0.2-0.3,0.4-0.4c0.1-0.1,0.3-0.2,0.4-0.3c0.2-0.1,0.3-0.1,0.5-0.2c0.2,0,0.4,0,0.5,0H92c0.2,0,0.3,0,0.5,0
	c0.2,0,0.3,0.1,0.5,0.2c0.1,0.1,0.3,0.2,0.4,0.3c0.1,0.1,0.3,0.2,0.4,0.4l0.5,0.6l0.5,0.6l0.5,0.6l0.5,0.6c0.2,0.3,0.5,0.5,0.9,0.7
	c0.4,0.2,0.8,0.2,1.2,0.1c0.7,0,1.4-0.5,1.8-1.1l1.1-1.8l1-1.8l1.1-1.8l1-1.8c0-0.1,0.1-0.2,0.1-0.3c0-0.1,0.1-0.2,0.1-0.3
	c0-0.1,0-0.2,0-0.3c0-0.1,0-0.2,0-0.3v-6.2h0.8c0.1,0,0.2,0,0.3,0l0.2-0.1c0,0,0.1,0,0.1,0c0,0,0,0.1,0,0.2v13.6c0,0.1,0,0.1,0,0.2
	c0,0.1,0,0.1,0,0.2c0,0,0,0.1,0,0.2l-0.1,0.2l-1.7,4.1l-1.7,4l-1.7,4.1l-1.7,4.1c-0.1,0.2-0.1,0.3-0.2,0.4c-0.1,0.1-0.2,0.3-0.3,0.4
	c-0.1,0.1-0.3,0.2-0.4,0.3C97.4,93.1,97.2,93.1,97.1,93.2z" />
	<polygon id="Path_37_" class="st35" points="319.3,144 320.5,145.2 321.7,146.4 322.9,145.2 324.1,144 322.9,142.8 321.7,141.6 
	320.5,142.8 " />
	<g id="Oval_1_">
		<circle id="path-3_1_" class="st1" cx="351.6" cy="111" r="48" />
	</g>
	<path id="Path_38_" class="st33"
		d="M364.1,51.3L364.1,51.3c0-0.3,0-0.6-0.1-0.9c-0.1-0.3-0.2-0.6-0.3-0.8c-0.1-0.3-0.3-0.5-0.5-0.7
	c-0.2-0.2-0.4-0.4-0.7-0.6l-1.3-0.9l-1.4-0.9l-1.3-0.9l-1.3-0.9l-0.4-0.2l-0.4-0.2c-0.2,0-0.3-0.1-0.5-0.1c-0.2,0-0.3,0-0.5,0h-13.8
	c-0.4,0-0.8,0.1-1.2,0.2c-0.2,0.1-0.4,0.1-0.5,0.2c-0.2,0.1-0.3,0.2-0.5,0.3l-2.5,2l-2.5,2l-2.5,2l-2.5,2l-0.3,0.3
	c-0.1,0.1-0.2,0.2-0.3,0.3l-0.2,0.3c-0.1,0.1-0.1,0.2-0.2,0.3l-1.8,4l-1.8,4l-1.8,4l-1.8,4c-0.1,0.1-0.1,0.2-0.1,0.3
	c0,0.1-0.1,0.2-0.1,0.4c0,0.1,0,0.3,0,0.4c0,0.1,0,0.3,0,0.4v18.1c0,0.1,0,0.2,0,0.3v0.3c0,0.1,0,0.2,0,0.3c0,0.1,0.1,0.2,0.1,0.3
	l0.8,2.3l0.8,2.3l0.8,2.3l0.8,2.3c0.1,0.2,0.1,0.4,0.2,0.6c0,0.2,0,0.4,0,0.6c0,0.2,0,0.4-0.1,0.6c-0.1,0.2-0.1,0.4-0.2,0.6
	l-3.4,5.6l-3.4,5.6l-3.3,5.4l-3.4,5.6c0,0.1,0,0.2,0,0.3c0,0.1,0,0.2,0.1,0.2c0,0.1,0.1,0.1,0.2,0.2c0.1,0,0.2,0,0.3,0l15.3-1
	l15.4-1.1l15.3-1.1l15.4-1.1h0.2l0.1-0.1c0,0,0.1-0.1,0.1-0.1c0-0.1,0-0.1,0-0.2l0.3-7.2l0.3-7.2l0.3-7.2l0.2-7.2V63.6
	c0-0.2,0-0.5-0.1-0.7c-0.1-0.2-0.1-0.4-0.2-0.7c-0.1-0.2-0.2-0.4-0.3-0.6c-0.1-0.2-0.3-0.4-0.5-0.5l-1.9-1.8l-1.9-1.8l-1.9-1.8
	l-1.9-1.8c-0.2-0.2-0.3-0.3-0.5-0.5c-0.1-0.2-0.3-0.4-0.3-0.6c-0.1-0.2-0.2-0.4-0.2-0.7C364.1,51.8,364.1,51.6,364.1,51.3z" />
	<g id="Oval_2_">
	</g>
	<defs>
		<filter id="Adobe_OpacityMaskFilter_14_" filterUnits="userSpaceOnUse" x="299" y="105.5" width="106.8"
			height="54.1">
			<feColorMatrix type="matrix" values="1 0 0 0 0  0 1 0 0 0  0 0 1 0 0  0 0 0 1 0" />
		</filter>
	</defs>
	<mask maskUnits="userSpaceOnUse" x="299" y="105.5" width="106.8" height="54.1" id="mask-6_1_">
		<g class="st36">
			<circle id="path-5_1_" class="st3" cx="351.6" cy="111" r="48" />
		</g>
	</mask>
	<path id="Path_39_" class="st37"
		d="M401.8,132.1l-2.1-5.5l-2-5.5c-0.1-0.3-0.2-0.5-0.4-0.8c-0.2-0.2-0.4-0.4-0.6-0.6
	c-0.2-0.2-0.4-0.3-0.7-0.5c-0.3-0.1-0.5-0.2-0.8-0.3l-4.8-1.1l-4.9-1.2l-4.8-1.1l-4.8-1.1h-0.1h-0.1h-0.1h-0.2l-1.2-0.1l-1.2-0.1
	c-0.2,0-0.5-0.1-0.7-0.1c-0.2-0.1-0.4-0.1-0.6-0.2c-0.2-0.1-0.4-0.2-0.6-0.4c-0.2-0.1-0.4-0.3-0.5-0.5l-1.3-1.6l-1.3-1.6l-1.3-1.6
	l-1.3-1.6c-0.2-0.2-0.4-0.4-0.6-0.5c-0.2-0.1-0.4-0.3-0.6-0.4c-0.2-0.1-0.5-0.2-0.7-0.2c-0.2-0.1-0.5-0.1-0.7-0.1H356h-6.5h-6.5
	h-6.6c-0.4,0-0.9,0.1-1.3,0.3c-0.2,0.1-0.4,0.2-0.6,0.3c-0.2,0.1-0.3,0.3-0.5,0.4l-1.6,1.5l-1.6,1.5l-1.6,1.4l-1.6,1.5
	c-0.1,0.1-0.3,0.2-0.4,0.4c-0.2,0.1-0.3,0.2-0.5,0.3c-0.2,0.1-0.4,0.1-0.5,0.2c-0.2,0-0.4,0.1-0.6,0.1l-3.7,0.3l-3.7,0.3l-3.7,0.3
	l-3.7,0.3l-0.4,0.1l-0.4,0.1l-0.4,0.1c-0.1,0-0.2,0.1-0.3,0.2l-1.4,0.9l-1.4,0.9l-1.4,0.9l-1.4,0.9c-0.2,0.1-0.4,0.3-0.6,0.5
	c-0.2,0.2-0.3,0.4-0.5,0.6c-0.1,0.2-0.3,0.4-0.3,0.7c-0.1,0.2-0.2,0.5-0.2,0.7l-1.6,19.4l-1.6,19.4h106.8l-2-13.7L401.8,132.1z" />
	<defs>
		<filter id="Adobe_OpacityMaskFilter_15_" filterUnits="userSpaceOnUse" x="299" y="105.5" width="106.7"
			height="54.2">
			<feColorMatrix type="matrix" values="1 0 0 0 0  0 1 0 0 0  0 0 1 0 0  0 0 0 1 0" />
		</filter>
	</defs>
	<mask maskUnits="userSpaceOnUse" x="299" y="105.5" width="106.7" height="54.2" id="mask-6_2_">
		<g class="st38">
			<circle id="path-5_2_" class="st3" cx="351.6" cy="111" r="48" />
		</g>
	</mask>
	<path id="Path_40_" class="st39" d="M401.8,132.1l-2.1-5.5l-2-5.5c-0.1-0.3-0.2-0.5-0.4-0.8c-0.2-0.2-0.4-0.4-0.6-0.6
	c-0.2-0.2-0.4-0.3-0.7-0.5c-0.3-0.1-0.5-0.2-0.8-0.3l-9.8-2.3l-9.7-2.2h-0.1h-0.1h-0.1h-0.2l-1.2-0.1l-1.2-0.1
	c-0.2,0-0.5-0.1-0.7-0.1c-0.2-0.1-0.4-0.1-0.6-0.2c-0.2-0.1-0.4-0.2-0.6-0.4c-0.2-0.1-0.4-0.3-0.5-0.5l-2.7-3.2l-2.6-3.2
	c-0.2-0.2-0.4-0.4-0.6-0.5c-0.2-0.1-0.4-0.3-0.6-0.4c-0.2-0.1-0.5-0.2-0.7-0.2c-0.2-0.1-0.5-0.1-0.7-0.1h-13.1h-13.1
	c-0.4,0-0.9,0.1-1.3,0.3c-0.2,0.1-0.4,0.2-0.6,0.3c-0.2,0.1-0.3,0.3-0.5,0.4l-3.1,2.9l-3.1,2.9c-0.1,0.1-0.3,0.2-0.4,0.4
	c-0.2,0.1-0.3,0.2-0.5,0.3c-0.2,0.1-0.4,0.1-0.5,0.2c-0.2,0-0.4,0.1-0.6,0.1l-7.3,0.6l-7.3,0.6l-0.4,0.1l-0.4,0.1l-0.4,0.1
	c-0.1,0-0.2,0.1-0.3,0.2l-2.9,1.8l-2.8,1.7c-0.2,0.1-0.4,0.3-0.6,0.5c-0.2,0.2-0.3,0.4-0.5,0.6c-0.1,0.2-0.3,0.4-0.3,0.7
	c-0.1,0.2-0.2,0.5-0.2,0.7l-1.6,19.4l-1.6,19.4h1.3l1.8-17.1l1.8-17.1l2.9-1.7l2.9-1.7l0.3-0.2l0.4-0.1l0.4-0.1h0.4l7.3-0.6l7.3-0.6
	c0.2,0,0.4,0,0.6-0.1c0.4-0.1,0.7-0.2,1-0.5c0.2-0.1,0.3-0.2,0.4-0.3l3.1-2.9l3.1-2.9c0.2-0.1,0.3-0.3,0.5-0.4
	c0.4-0.2,0.8-0.4,1.2-0.5c0.2,0,0.4,0,0.6,0h13.1l13.1-0.1c0.2,0,0.5,0,0.7,0.1c0.2,0.1,0.5,0.1,0.7,0.2c0.2,0.1,0.4,0.2,0.6,0.4
	c0.2,0.1,0.4,0.3,0.6,0.5l2.6,3.2l2.7,3.2c0.2,0.2,0.3,0.3,0.5,0.5c0.2,0.1,0.4,0.3,0.6,0.4c0.2,0.1,0.4,0.2,0.6,0.3
	c0.2,0.1,0.4,0.1,0.7,0.1l1.2,0.1l1.2,0.1h0.3h0.1h0.1l9.7,2.2l9.7,2.2c0.3,0.1,0.5,0.2,0.8,0.3c0.5,0.3,1,0.6,1.3,1.1
	c0.2,0.2,0.3,0.5,0.4,0.8l1.3,12.4l1.4,12.5l1.2,3.2l1.2,3.2h2.9l-2-13.8L401.8,132.1z" />
	<defs>
		<filter id="Adobe_OpacityMaskFilter_16_" filterUnits="userSpaceOnUse" x="334" y="97.5" width="32.1"
			height="62.2">
			<feColorMatrix type="matrix" values="1 0 0 0 0  0 1 0 0 0  0 0 1 0 0  0 0 0 1 0" />
		</filter>
	</defs>
	<mask maskUnits="userSpaceOnUse" x="334" y="97.5" width="32.1" height="62.2" id="mask-6_3_">
		<g class="st40">
			<circle id="path-5_3_" class="st3" cx="351.6" cy="111" r="48" />
		</g>
	</mask>
	<path id="Path_41_" class="st41" d="M334.3,113l3.1,3.7l3.2,3.6v0.1v0.1v0.1v0.1l2,5.5l2,5.5l2,14.1l1.9,14.1h14.8v-35.2
	c0,0,0,0,0-0.1c0,0,0-0.1,0-0.1l0.7-2.2l0.7-2.2l0.7-2.2l0.7-2.2c0,0,0-0.1,0-0.1c0,0,0-0.1,0-0.1v-0.1c0,0,0-0.1,0-0.1l-1.3-7.4
	l-1.3-7.4c0-0.1,0-0.1,0-0.2c0-0.1,0-0.1,0-0.2c0-0.1-0.1-0.1-0.1-0.1l-0.1-0.1l-1.3-1l-1.3-1l-0.1-0.1l-0.2-0.1h-0.2h-0.2
	l-10.9,0.8L338,99h-0.1h-0.1c0,0-0.1,0-0.1,0.1l-0.1,0.1l-0.8,0.6l-0.8,0.6l-0.8,0.6l-0.8,0.6l-0.2,0.2c0,0.1-0.1,0.1-0.1,0.2
	c0,0.1-0.1,0.1-0.1,0.2c0,0.1,0,0.1,0,0.2v10.1c0,0,0,0.1,0,0.2c0,0.1,0,0.1,0,0.2c0,0.1,0,0.1,0.1,0.2
	C334.2,112.9,334.2,112.9,334.3,113z" />
	<defs>
		<filter id="Adobe_OpacityMaskFilter_17_" filterUnits="userSpaceOnUse" x="336.3" y="95.8" width="25.7"
			height="32.8">
			<feColorMatrix type="matrix" values="1 0 0 0 0  0 1 0 0 0  0 0 1 0 0  0 0 0 1 0" />
		</filter>
	</defs>
	<mask maskUnits="userSpaceOnUse" x="336.3" y="95.8" width="25.7" height="32.8" id="mask-6_4_">
		<g class="st42">
			<circle id="path-5_4_" class="st3" cx="351.6" cy="111" r="48" />
		</g>
	</mask>
	<path id="Path_42_" class="st43"
		d="M336.3,96.8v9.2c0,0,0,0.1,0,0.1c0,0,0,0.1,0,0.1c0,0,0,0.1,0,0.1c0,0,0,0.1,0,0.1l3.6,5.4
	l3.6,5.4l3.6,5.4l3.6,5.4c0.1,0.1,0.2,0.2,0.4,0.3c0.1,0.1,0.3,0.1,0.4,0.1c0.3,0,0.6-0.2,0.8-0.5l2.5-4.5l2.5-4.5l2.5-4.5l2.5-4.5
	v-0.1V110c0,0,0,0,0-0.1V100c0-0.1,0-0.2,0-0.3c0-0.1,0-0.2,0-0.3c-0.1-0.1-0.2-0.1-0.3-0.2c-0.1-0.1-0.2-0.1-0.3-0.1l-6-0.8l-6-0.8
	l-6-0.8l-6-0.8c-0.1,0-0.3,0-0.4,0c-0.1,0-0.2,0.1-0.3,0.2c-0.1,0.1-0.2,0.2-0.2,0.3C336.3,96.5,336.3,96.6,336.3,96.8L336.3,96.8z" />
	<defs>
		<filter id="Adobe_OpacityMaskFilter_18_" filterUnits="userSpaceOnUse" x="336.3" y="95.7" width="25.8"
			height="18.6">
			<feColorMatrix type="matrix" values="1 0 0 0 0  0 1 0 0 0  0 0 1 0 0  0 0 0 1 0" />
		</filter>
	</defs>
	<mask maskUnits="userSpaceOnUse" x="336.3" y="95.7" width="25.8" height="18.6" id="mask-6_5_">
		<g class="st44">
			<circle id="path-5_5_" class="st3" cx="351.6" cy="111" r="48" />
		</g>
	</mask>
	<path id="Path_43_" class="st45" d="M336.3,95.7v7.7l3.4,2.6l3.4,2.6l3.4,2.6l3.4,2.6c0.1,0.1,0.3,0.2,0.4,0.2
	c0.1,0.1,0.3,0.1,0.4,0.1c0.1,0,0.3,0,0.4,0c0.1,0,0.3-0.1,0.4-0.1l2.6-1.1l2.6-1.1l2.6-1.1l2.6-1.1V99.2l-6.5-0.9l-6.5-0.9
	l-6.5-0.9L336.3,95.7z" />
	<defs>
		<filter id="Adobe_OpacityMaskFilter_19_" filterUnits="userSpaceOnUse" x="363.3" y="73.7" width="7"
			height="13.6">
			<feColorMatrix type="matrix" values="1 0 0 0 0  0 1 0 0 0  0 0 1 0 0  0 0 0 1 0" />
		</filter>
	</defs>
	<mask maskUnits="userSpaceOnUse" x="363.3" y="73.7" width="7" height="13.6" id="mask-6_6_">
		<g class="st46">
			<circle id="path-5_6_" class="st3" cx="351.6" cy="111" r="48" />
		</g>
	</mask>
	<path id="Path_44_" class="st47" d="M365.8,74.7l0.5-0.2l0.5-0.2l0.5-0.2l0.5-0.2l0.2-0.1c0.1,0,0.1,0,0.2,0h0.2h0.2h0.1h0.1h0.1
	h0.2c0.4,0,0.7,0.2,1,0.6c0.1,0.1,0.2,0.3,0.3,0.5c0,0.2,0,0.4,0,0.6l-0.3,2.2l-0.3,2.2l-0.3,2.2l-0.3,2.2c0,0.1,0,0.2,0,0.3
	l-0.1,0.3l-0.2,0.2c-0.1,0.1-0.1,0.1-0.2,0.2l-0.6,0.5l-0.6,0.5l-0.6,0.5l-0.6,0.5c-0.1,0.1-0.2,0.1-0.3,0.2l-0.3,0.1h-0.3h-0.5
	h-0.1h-0.1c-0.2,0-0.4-0.1-0.6-0.2c-0.2-0.1-0.3-0.2-0.4-0.4c-0.2-0.3-0.3-0.7-0.3-1.1l0.4-2.5l0.4-2.5l0.4-2.5l0.4-2.5
	c0-0.1,0-0.2,0.1-0.3c0-0.1,0.1-0.2,0.2-0.3c0.1-0.1,0.1-0.2,0.2-0.3L365.8,74.7z" />
	<defs>
		<filter id="Adobe_OpacityMaskFilter_20_" filterUnits="userSpaceOnUse" x="364.6" y="73.8" width="5.5" height="4">
			<feColorMatrix type="matrix" values="1 0 0 0 0  0 1 0 0 0  0 0 1 0 0  0 0 0 1 0" />
		</filter>
	</defs>
	<mask maskUnits="userSpaceOnUse" x="364.6" y="73.8" width="5.5" height="4" id="mask-6_7_">
		<g class="st48">
			<circle id="path-5_7_" class="st3" cx="351.6" cy="111" r="48" />
		</g>
	</mask>
	<path id="Path_45_" class="st49"
		d="M369.1,73.8h-0.1h-0.2h-0.1h-0.5h-0.2l-0.2,0.1l-0.5,0.2l-0.5,0.2l-0.5,0.2l-0.5,0.2
	c-0.1,0-0.2,0.1-0.3,0.2c-0.1,0.1-0.2,0.2-0.2,0.3c-0.1,0.1-0.1,0.2-0.2,0.3c-0.1,0.1-0.1,0.2-0.1,0.3l-0.1,0.5l-0.1,0.5l-0.1,0.5
	l-0.1,0.5c0-0.1,0.1-0.2,0.1-0.3c0-0.1,0.1-0.2,0.2-0.3c0.1-0.1,0.2-0.2,0.2-0.2l0.3-0.2l0.5-0.2l0.5-0.2l0.5-0.2l0.5-0.2h0.2h0.2
	h0.4h0.1h0.2h0.1h0.2c0.2,0,0.3,0.1,0.5,0.1c0.1,0.1,0.3,0.2,0.4,0.3c0.1,0.1,0.2,0.2,0.3,0.4c0.1,0.1,0.1,0.3,0.1,0.4v-0.4v-0.4
	v-0.4v-0.4c0-0.2,0-0.4,0-0.6c0-0.2-0.1-0.4-0.3-0.5c-0.1-0.1-0.2-0.3-0.4-0.4C369.3,73.9,369.2,73.8,369.1,73.8L369.1,73.8z" />
	<defs>
		<filter id="Adobe_OpacityMaskFilter_21_" filterUnits="userSpaceOnUse" x="326.6" y="73.7" width="7"
			height="13.6">
			<feColorMatrix type="matrix" values="1 0 0 0 0  0 1 0 0 0  0 0 1 0 0  0 0 0 1 0" />
		</filter>
	</defs>
	<mask maskUnits="userSpaceOnUse" x="326.6" y="73.7" width="7" height="13.6" id="mask-6_8_">
		<g class="st50">
			<circle id="path-5_8_" class="st3" cx="351.6" cy="111" r="48" />
		</g>
	</mask>
	<path id="Path_46_" class="st51" d="M331.1,74.7l-0.5-0.2l-0.5-0.2l-0.5-0.2l-0.5-0.2l-0.2-0.1h-0.2h-0.2h-0.2h-0.2h-0.1H328h-0.1
	c-0.2,0-0.4,0.1-0.5,0.2c-0.2,0.1-0.3,0.2-0.4,0.4c-0.1,0.1-0.2,0.3-0.2,0.5c0,0.2,0,0.4,0,0.6l0.3,2.2l0.3,2.2l0.3,2.2l0.3,2.2
	c0,0.1,0,0.2,0,0.3c0.1,0.2,0.2,0.3,0.3,0.5l0.2,0.2l0.6,0.5l0.6,0.5l0.6,0.5l0.6,0.5c0.1,0.1,0.2,0.1,0.2,0.2l0.3,0.1h0.3h0.5h0.1
	h0.1c0.2,0,0.4-0.1,0.6-0.2c0.2-0.1,0.3-0.2,0.4-0.4c0.2-0.3,0.3-0.7,0.3-1.1l-0.4-2.5l-0.4-2.5l-0.4-2.4l-0.4-2.5
	c0-0.1-0.1-0.2-0.1-0.3c0-0.1-0.1-0.2-0.2-0.3l-0.3-0.3C331.3,74.8,331.2,74.8,331.1,74.7z" />
	<path id="Path_47_" class="st52" d="M327.8,73.8h0.1h0.1h0.1h0.6h0.2l0.2,0.1l0.5,0.2l0.5,0.2l0.5,0.2l0.5,0.2
	c0.1,0,0.2,0.1,0.3,0.2c0.1,0.1,0.2,0.2,0.2,0.3c0.1,0.1,0.1,0.2,0.2,0.3c0,0.1,0.1,0.2,0.1,0.3l0.1,0.5l0.1,0.5l0.1,0.5l0.1,0.5
	c0-0.1-0.1-0.2-0.1-0.3c0-0.1-0.1-0.2-0.2-0.3c-0.1-0.1-0.1-0.2-0.2-0.2c-0.1-0.1-0.2-0.1-0.3-0.2l-0.5-0.2l-0.5-0.2l-0.5-0.2
	l-0.5-0.2h-0.2l-0.3-0.2h-0.4h-0.2h-0.2h-0.1H328c-0.3,0-0.6,0.2-0.8,0.4c-0.1,0.1-0.2,0.2-0.3,0.4c-0.1,0.1-0.1,0.3-0.1,0.4v-0.4
	v-0.4v-0.4v-0.4c0-0.4,0.1-0.8,0.3-1.1c0.1-0.1,0.3-0.3,0.4-0.4C327.5,73.8,327.7,73.8,327.8,73.8z" />
	<path id="Path_48_" class="st31" d="M362.3,56.6c-0.1-0.2-0.2-0.5-0.3-0.6c-0.1-0.2-0.3-0.4-0.5-0.5c-0.2-0.1-0.4-0.3-0.6-0.3
	c-0.2-0.1-0.5-0.1-0.7-0.1H338c-0.2,0-0.5,0-0.7,0.1c-0.2,0.1-0.4,0.2-0.6,0.3c-0.2,0.1-0.4,0.3-0.5,0.5c-0.1,0.2-0.3,0.4-0.3,0.6
	l-1.1,3.4l-1.1,3.4l-1.1,3.4l-1.1,3.4c0,0,0,0.1,0,0.2c0,0.1,0,0.1,0,0.2c0,0.1,0,0.1,0,0.2v22.3c0,0.1,0,0.3,0,0.4
	c0,0.1,0.1,0.2,0.1,0.4c0,0.1,0.1,0.2,0.1,0.3c0.1,0.1,0.1,0.2,0.2,0.3l1.7,2.2l1.7,2.2l1.7,2.2l1.7,2.2c0.1,0.1,0.1,0.2,0.2,0.2
	c0.1,0.1,0.2,0.1,0.2,0.2l0.3,0.2l0.3,0.1l1.5,0.6l1.5,0.6l1.5,0.6l1.5,0.6h0.2h0.2h0.2h5.2h0.2h0.2h0.2l1.5-0.6l1.5-0.6l1.5-0.6
	l1.5-0.6l0.3-0.1l0.3-0.2c0.1-0.1,0.2-0.1,0.2-0.2c0.1-0.1,0.1-0.1,0.2-0.2l1.7-2.2l1.7-2.2l1.7-2.2l1.7-2.2l0.2-0.3
	c0.1-0.1,0.1-0.2,0.1-0.3c0-0.1,0.1-0.2,0.1-0.4c0-0.1,0-0.3,0-0.4V70.7c0-0.1,0-0.2,0-0.3c0-0.1,0-0.1,0-0.2l-1.1-3.4l-1.1-3.4
	l-1.2-3.4L362.3,56.6z" />
	<path id="Path_49_" class="st32" d="M366.7,70.2l-1.1-3.5l-1.1-3.5l-1.1-3.5l-1.1-3.5c-0.1-0.2-0.1-0.3-0.2-0.5
	c-0.1-0.2-0.3-0.3-0.4-0.4c-0.2-0.1-0.3-0.2-0.5-0.3c-0.2-0.1-0.4-0.1-0.6-0.1h-17.3c0,0,0,0.1,0,0.1c0,0,0,0.1,0,0.1
	c0,0,0,0.1,0,0.1c0,0,0.1,0.1,0.1,0.1l4.5,3.4l4.5,3.4l4.5,3.4l4.5,3.4v20.4l-2.6,4.2l-2.6,4.2l-2.6,4.2l-2.5,4.2h0.7h0.2
	c0.1,0,0.1,0,0.2,0h0.2l1.6-0.6l1.6-0.6l1.6-0.6l1.6-0.6l0.2-0.1l0.2-0.1l0.2-0.2l0.2-0.2l1.7-2.2l1.7-2.2l1.8-2.4l1.7-2.2
	c0.1-0.1,0.1-0.2,0.2-0.3c0-0.1,0.1-0.2,0.1-0.3l0.1-0.3c0-0.1,0-0.2,0-0.3V70.8c0,0,0-0.1,0-0.1s0-0.1,0-0.1c0-0.1,0-0.1,0-0.1
	L366.7,70.2z" />
	<path id="Path_50_" class="st33" d="M369.3,61.6c0,0,0-0.1,0-0.1v-0.1l-0.1-0.1l-0.1-0.1l-2.5-2.7l-2.4-2.7l-2.5-2.7l-2.5-2.7
	c-0.1-0.1-0.1-0.1-0.2-0.2c-0.1-0.1-0.2-0.1-0.3-0.1l-0.3-0.1c-0.1,0-0.2,0-0.3,0h-3.4h-3.4h-3.4h-3.4h-0.2h-0.1h-0.1l-3,1.3l-3,1.3
	l-3,1.3l-3,1.3c-0.1,0-0.2,0.1-0.3,0.2c-0.1,0.1-0.2,0.1-0.3,0.2c-0.1,0.1-0.1,0.2-0.2,0.3c-0.1,0.1-0.1,0.2-0.1,0.3l-0.7,4.5
	l-0.7,4.5l-0.7,4.2l-0.7,4.5h0.5h0.2l0.2,0.1l0.5,0.2l0.5,0.2l0.5,0.2l0.5,0.2c0.1,0,0.1,0,0.2,0c0.1,0,0.1,0,0.2,0
	c0.1,0,0.1,0,0.2-0.1c0.1,0,0.1-0.1,0.1-0.1l0.4-0.6l0.4-0.6l0.4-0.6l0.4-0.6c0,0,0,0,0-0.1v-6.4c0-0.1,0-0.2,0-0.2
	c0-0.1,0-0.2,0.1-0.3l0.1-0.2c0-0.1,0.1-0.1,0.2-0.2l1.5-1.7l1.5-1.6l1.5-1.7l1.5-1.7c0.1-0.1,0.1-0.1,0.2-0.2
	c0.1-0.1,0.2-0.1,0.3-0.2l0.3-0.1h0.3h3.4h0.1h0.1h0.1l0.9,0.3L346,58l0.9,0.3l0.9,0.3c0.1,0,0.2,0.1,0.3,0.1h0.3h0.3l0.3-0.1
	l0.8-0.4l0.8-0.4l0.8-0.4l0.8-0.4l0.1-0.1h0.2h0.2h4.3c0.3,0,0.6,0,0.8,0.1c0.3,0.1,0.5,0.1,0.8,0.2c0.3,0.1,0.5,0.2,0.7,0.4
	c0.2,0.1,0.5,0.3,0.7,0.5l0.9,0.9l0.9,0.9l0.9,0.9l0.9,0.9l0.1,0.2c0,0.1,0.1,0.1,0.1,0.2c0,0.1,0.1,0.1,0.1,0.2c0,0.1,0,0.1,0,0.2
	l0.6,2.8l0.6,2.9l0.6,2.8l0.6,2.8c0,0.1,0,0.2,0.1,0.2c0.1,0.1,0.1,0.1,0.2,0.1c0.1,0,0.2,0,0.2,0c0.1,0,0.2,0,0.3,0h0.1h0.1h0.1
	h0.1l0.3-0.1h0.3h0.3h0.5h0.1h0.1c0.1,0,0.2,0,0.3,0c0.1,0,0.2,0,0.2-0.1c0.1,0,0.1-0.1,0.1-0.2c0-0.1,0-0.2,0-0.3l-0.1-2.9
	l-0.1-2.9l-0.1-2.9V61.6z" />
	<path id="Path_51_" class="st33" d="M356.8,54l-6,0.8l-6,0.8l-6,0.8l-5.9,0.8l-0.6,3.8l-0.6,3.8l-0.6,3.8l-0.6,3.8h1.1
	c0,0-0.1,0.1-0.1,0.1c0,0,0,0.1,0,0.1v0.1c0,0,0,0.1,0,0.1v4.6c0,0.1,0,0.2,0,0.3c0,0.1,0.1,0.1,0.1,0.2c0.1,0.1,0.1,0.1,0.2,0.1
	c0.1,0,0.2,0,0.3,0h2h0.1l0.1-0.1l0.1-0.1l1.8-2l1.8-2l1.8-2l1.8-2l0,0l0,0l0,0l0,0l3.7-4l3.7-4l3.7-4L356.8,54z" />
	<g id="Oval_3_">
		<circle id="path-7_1_" class="st1" cx="213.3" cy="252.1" r="48" />
	</g>
	<defs>
		<filter id="Adobe_OpacityMaskFilter_22_" filterUnits="userSpaceOnUse" x="188.3" y="217.2" width="7.2"
			height="13.8">
			<feColorMatrix type="matrix" values="1 0 0 0 0  0 1 0 0 0  0 0 1 0 0  0 0 0 1 0" />
		</filter>
	</defs>
	<mask maskUnits="userSpaceOnUse" x="188.3" y="217.2" width="7.2" height="13.8" id="mask-8_1_">
		<g class="st53">
			<circle id="path-7_2_" class="st3" cx="213.3" cy="252.1" r="48" />
		</g>
	</mask>
	<path id="Path_52_" class="st54" d="M192.9,218.1l-0.5-0.2l-0.5-0.2l-0.5-0.2l-0.5-0.2l-0.2-0.1c-0.1,0-0.1,0-0.2,0h-0.2h-0.2H190
	h-0.1h-0.2h-0.1c-0.2,0-0.4,0.1-0.5,0.2c-0.2,0.1-0.3,0.2-0.4,0.4c-0.1,0.1-0.2,0.3-0.3,0.5c0,0.2,0,0.4,0,0.6l0.3,2.2l0.3,2.2
	l0.3,2.2l0.3,2.2c0,0.1,0,0.2,0.1,0.3c0,0.1,0.1,0.2,0.1,0.3c0,0.1,0.1,0.2,0.2,0.2c0.1,0.1,0.1,0.1,0.2,0.2l0.6,0.5l0.6,0.5
	l0.6,0.5l0.6,0.5c0.1,0.1,0.2,0.1,0.3,0.1c0.1,0,0.2,0.1,0.3,0.1h0.3h0.4h0.1h0.3c0.2,0,0.4-0.1,0.6-0.2c0.2-0.1,0.3-0.2,0.4-0.4
	c0.1-0.2,0.2-0.3,0.3-0.5c0-0.2,0-0.4,0-0.6l-0.4-2.5l-0.4-2.5l-0.4-2.5l-0.4-2.5c0-0.1-0.1-0.2-0.1-0.3c0-0.1-0.1-0.2-0.2-0.3
	c-0.1-0.1-0.2-0.2-0.3-0.3C193.1,218.3,193,218.2,192.9,218.1L192.9,218.1z" />
	<defs>
		<filter id="Adobe_OpacityMaskFilter_23_" filterUnits="userSpaceOnUse" x="188.3" y="217.2" width="5.8"
			height="3.9">
			<feColorMatrix type="matrix" values="1 0 0 0 0  0 1 0 0 0  0 0 1 0 0  0 0 0 1 0" />
		</filter>
	</defs>
	<mask maskUnits="userSpaceOnUse" x="188.3" y="217.2" width="5.8" height="3.9" id="mask-8_2_">
		<g class="st55">
			<circle id="path-7_3_" class="st3" cx="213.3" cy="252.1" r="48" />
		</g>
	</mask>
	<path id="Path_53_" class="st56" d="M193.8,219.2c0-0.1-0.1-0.2-0.1-0.3c0-0.1-0.1-0.2-0.2-0.3c-0.1-0.1-0.1-0.2-0.2-0.3
	c-0.1-0.1-0.2-0.1-0.3-0.2l-0.5-0.2l-0.5-0.2l-0.5-0.2l-0.5-0.2l-0.2-0.1h-0.2H190h-0.1h-0.1h-0.2c-0.2,0-0.4,0.1-0.5,0.2
	c-0.2,0.1-0.3,0.2-0.4,0.4c-0.1,0.1-0.2,0.3-0.3,0.5c0,0.2,0,0.4,0,0.6l0.1,0.6l0.1,0.6l0.1,0.6l0.1,0.6c0-0.2,0-0.4,0-0.6
	c0.1-0.2,0.1-0.4,0.3-0.5c0.1-0.2,0.3-0.3,0.4-0.4c0.2-0.1,0.4-0.2,0.6-0.2h0.1h0.2h0.2h0.6h0.2l0.2,0.1l0.5,0.2l0.5,0.2l0.5,0.2
	l0.5,0.2l0.2,0.1l0.2,0.2l0.2,0.2l0.1,0.2l-0.1-0.4l-0.1-0.4l-0.1-0.4L193.8,219.2z" />
	<defs>
		<filter id="Adobe_OpacityMaskFilter_24_" filterUnits="userSpaceOnUse" x="155.7" y="247" width="114.3"
			height="53">
			<feColorMatrix type="matrix" values="1 0 0 0 0  0 1 0 0 0  0 0 1 0 0  0 0 0 1 0" />
		</filter>
	</defs>
	<mask maskUnits="userSpaceOnUse" x="155.7" y="247" width="114.3" height="53" id="mask-8_3_">
		<g class="st57">
			<circle id="path-7_4_" class="st3" cx="213.3" cy="252.1" r="48" />
		</g>
	</mask>
	<path id="Path_54_" class="st58" d="M270,268.4l-18.5-7.7l-18.5-7.7h-0.1l-0.1-0.1c-0.1,0-0.2-0.1-0.2-0.2l-0.1-0.1l-2.1-2.6
	l-2.1-2.6c0-0.1-0.1-0.1-0.2-0.2l-0.2-0.1h-0.2h-0.3l-15,0.8l-15,0.8h-0.2h-0.2c-0.1,0-0.1,0.1-0.2,0.1l-0.1,0.1l-4,3.7l-4,3.7
	l-0.1,0.1l-0.1,0.1h-0.1c0,0-0.1,0-0.1,0l-16.5,5.9l-16.5,5.8v32H270C270,279,270,268.4,270,268.4z" />
	<defs>
		<filter id="Adobe_OpacityMaskFilter_25_" filterUnits="userSpaceOnUse" x="228.4" y="248.1" width="41.7"
			height="21.8">
			<feColorMatrix type="matrix" values="1 0 0 0 0  0 1 0 0 0  0 0 1 0 0  0 0 0 1 0" />
		</filter>
	</defs>
	<mask maskUnits="userSpaceOnUse" x="228.4" y="248.1" width="41.7" height="21.8" id="mask-8_4_">
		<g class="st59">
			<circle id="path-7_5_" class="st3" cx="213.3" cy="252.1" r="48" />
		</g>
	</mask>
	<path id="Path_55_" class="st60"
		d="M229.6,256.9l17.3,6.5l17.3,6.5c0.4,0.2,5.9-1.3,5.8-1.4l-18.5-7.7l-18.5-7.7H233h-0.1l-0.1-0.1
	l-0.1-0.1l-1.9-2.4l-2-2.4c0,0-0.1-0.1-0.1-0.1c0,0-0.1,0-0.1,0c0,0-0.1,0.1-0.1,0.1c0,0.1,0,0.1,0,0.2l0.6,4.3L229.6,256.9z" />
	<defs>
		<filter id="Adobe_OpacityMaskFilter_26_" filterUnits="userSpaceOnUse" x="198" y="267.1" width="30.8" height="8">
			<feColorMatrix type="matrix" values="1 0 0 0 0  0 1 0 0 0  0 0 1 0 0  0 0 0 1 0" />
		</filter>
	</defs>
	<mask maskUnits="userSpaceOnUse" x="198" y="267.1" width="30.8" height="8" id="mask-8_5_">
		<g class="st61">
			<circle id="path-7_6_" class="st3" cx="213.3" cy="252.1" r="48" />
		</g>
	</mask>
	<path id="Path_56_" class="st62" d="M228.7,274.6l-3.7-1.9l-3.7-1.9l-3.6-1.9l-3.7-1.9h-1.7l-3.5,2l-3.6,2l-3.6,2l-3.6,2l0,0
	c0,0,0,0.1,0,0.1l0,0c0,0,0.1,0,0.1,0l3.7-1.3l3.7-1.4l3.7-1.3l3.7-1.3l0,0l3.9,1.3l3.9,1.3l3.9,1.3l3.9,1.3h0.1l0,0c0,0,0,0,0-0.1
	c0.1,0,0.1,0,0.1-0.1c0,0,0-0.1,0-0.2S228.7,274.6,228.7,274.6L228.7,274.6z" />
	<defs>
		<filter id="Adobe_OpacityMaskFilter_27_" filterUnits="userSpaceOnUse" x="205.9" y="267.1" width="13"
			height="33">
			<feColorMatrix type="matrix" values="1 0 0 0 0  0 1 0 0 0  0 0 1 0 0  0 0 0 1 0" />
		</filter>
	</defs>
	<mask maskUnits="userSpaceOnUse" x="205.9" y="267.1" width="13" height="33" id="mask-8_6_">
		<g class="st63">
			<circle id="path-7_7_" class="st3" cx="213.3" cy="252.1" r="48" />
		</g>
	</mask>
	<polygon id="Path_57_" class="st64" points="208.4,277.4 208.4,277.9 208,279.4 207.6,281 207.2,292.1 206.9,300.1 218.9,300.1 
	218.2,291.9 217.4,280.7 216.6,279 215.9,277.3 215.9,276.8 215.9,276.2 217.3,272.9 218.7,269.5 216.4,268.3 214,267.1 
	213.2,267.1 212.3,267.1 209.1,268.9 205.9,270.6 207.2,273.7 208.4,276.8 " />
	<defs>
		<filter id="Adobe_OpacityMaskFilter_28_" filterUnits="userSpaceOnUse" x="195.9" y="233.3" width="33"
			height="33.1">
			<feColorMatrix type="matrix" values="1 0 0 0 0  0 1 0 0 0  0 0 1 0 0  0 0 0 1 0" />
		</filter>
	</defs>
	<mask maskUnits="userSpaceOnUse" x="195.9" y="233.3" width="33" height="33.1" id="mask-8_7_">
		<g class="st65">
			<circle id="path-7_8_" class="st3" cx="213.3" cy="252.1" r="48" />
		</g>
	</mask>
	<path id="Path_58_" class="st66" d="M228.6,233.5l-16.4-0.1l-16.4-0.1l0.7,11.9l0.7,11.9l6.9,4.4l6.9,4.4c0.6,0.3,1.2,0.5,1.8,0.5
	c0.7,0,1.3-0.3,1.8-0.6l7.1-5.4l7.1-5.4l-0.1-10.7L228.6,233.5z" />
	<defs>
		<filter id="Adobe_OpacityMaskFilter_29_" filterUnits="userSpaceOnUse" x="195.9" y="233.3" width="33"
			height="32.5">
			<feColorMatrix type="matrix" values="1 0 0 0 0  0 1 0 0 0  0 0 1 0 0  0 0 0 1 0" />
		</filter>
	</defs>
	<mask maskUnits="userSpaceOnUse" x="195.9" y="233.3" width="33" height="32.5" id="mask-8_8_">
		<g class="st67">
			<circle id="path-7_9_" class="st3" cx="213.3" cy="252.1" r="48" />
		</g>
	</mask>
	<polygon id="Path_59_" class="st68" points="228.6,233.5 212.3,233.4 195.9,233.3 205.3,249.5 214.7,265.8 221.8,260.4 228.9,255 
	228.8,244.2 " />
	<defs>
		<filter id="Adobe_OpacityMaskFilter_30_" filterUnits="userSpaceOnUse" x="231.7" y="217.2" width="7.1"
			height="13.8">
			<feColorMatrix type="matrix" values="1 0 0 0 0  0 1 0 0 0  0 0 1 0 0  0 0 0 1 0" />
		</filter>
	</defs>
	<mask maskUnits="userSpaceOnUse" x="231.7" y="217.2" width="7.1" height="13.8" id="mask-8_9_">
		<g class="st69">
			<circle id="path-7_10_" class="st3" cx="213.3" cy="252.1" r="48" />
		</g>
	</mask>
	<path id="Path_60_" class="st70" d="M234.2,218.1l0.5-0.2l0.5-0.2l0.5-0.2l0.5-0.2l0.2-0.1h0.2h0.2h0.2h0.1h0.1h0.2h0.1
	c0.2,0,0.4,0.1,0.6,0.2c0.2,0.1,0.3,0.2,0.4,0.4c0.1,0.2,0.2,0.3,0.3,0.5c0,0.2,0,0.4,0,0.6l-0.3,2.2l-0.3,2.2l-0.3,2.2l-0.3,2.2
	c0,0.1,0,0.2-0.1,0.3c0,0.1-0.1,0.2-0.1,0.3c0,0.1-0.1,0.2-0.2,0.2c-0.1,0.1-0.1,0.1-0.2,0.2l-0.6,0.5l-0.6,0.5l-0.5,0.5l-0.6,0.5
	l-0.2,0.1c-0.1,0-0.2,0.1-0.3,0.1h-0.3h-0.4h-0.1H233c-0.2,0-0.4-0.1-0.6-0.2c-0.2-0.1-0.3-0.2-0.4-0.4c-0.1-0.2-0.2-0.3-0.2-0.5
	c0-0.2,0-0.4,0-0.6l0.4-2.5l0.4-2.5l0.4-2.5l0.4-2.5c0-0.1,0-0.2,0.1-0.3c0-0.1,0.1-0.2,0.2-0.3l0.2-0.3L234.2,218.1z" />
	<defs>
		<filter id="Adobe_OpacityMaskFilter_31_" filterUnits="userSpaceOnUse" x="233" y="217.2" width="5.6" height="4">
			<feColorMatrix type="matrix" values="1 0 0 0 0  0 1 0 0 0  0 0 1 0 0  0 0 0 1 0" />
		</filter>
	</defs>
	<mask maskUnits="userSpaceOnUse" x="233" y="217.2" width="5.6" height="4" id="mask-8_10_">
		<g class="st71">
			<circle id="path-7_11_" class="st3" cx="213.3" cy="252.1" r="48" />
		</g>
	</mask>
	<path id="Path_61_" class="st72"
		d="M237.5,217.2h-0.1h-0.1h-0.2h-0.6h-0.2l-0.2,0.1l-0.5,0.2l-0.5,0.2l-0.5,0.2l-0.5,0.2
	c-0.1,0-0.2,0.1-0.3,0.2c-0.1,0.1-0.2,0.2-0.3,0.3c-0.1,0.1-0.1,0.2-0.2,0.3c0,0.1-0.1,0.2-0.1,0.3l-0.1,0.5l-0.1,0.5l-0.1,0.5
	l-0.1,0.5c0-0.1,0.1-0.2,0.1-0.3c0.1-0.1,0.1-0.2,0.2-0.3l0.2-0.2l0.3-0.2l0.5-0.2l0.5-0.2l0.5-0.2l0.5-0.2l0.2-0.1h0.2h0.6h0.2h0.2
	h0.1c0.2,0,0.3,0.1,0.5,0.1c0.1,0.1,0.3,0.2,0.4,0.3c0.1,0.1,0.2,0.2,0.3,0.4c0.1,0.1,0.1,0.3,0.2,0.4v-0.4v-0.4v-0.4v-0.4
	c0-0.2,0-0.4,0-0.6c-0.1-0.2-0.1-0.4-0.3-0.5c-0.1-0.1-0.3-0.3-0.4-0.4C237.8,217.3,237.7,217.2,237.5,217.2L237.5,217.2z" />
	<path id="Path_62_" class="st73" d="M228.6,196.2c-0.3-1.1-1.3-1.8-2.4-1.8h-25c-0.5,0-1.1,0.2-1.5,0.5c-0.4,0.3-0.8,0.8-0.9,1.3
	l-2.4,7.6l-2.4,7.6c0,0.1,0,0.3-0.1,0.4c0,0.1,0,0.3,0,0.4v24.9c0,0.3,0.1,0.6,0.1,0.8c0.1,0.3,0.2,0.5,0.4,0.7l3.8,5l3.8,5
	c0.1,0.2,0.3,0.3,0.5,0.5c0.2,0.1,0.4,0.3,0.6,0.3l3.5,1.3l3.5,1.3l0.5,0.1h0.5h5.4h0.5l0.4-0.1l3.5-1.3l3.5-1.3
	c0.2-0.1,0.4-0.2,0.6-0.3c0.2-0.1,0.4-0.3,0.5-0.5l3.8-5l3.8-5c0.2-0.2,0.3-0.5,0.4-0.7c0.1-0.3,0.1-0.5,0.1-0.8v-24.9
	c0-0.1,0-0.3,0-0.4c0-0.1,0-0.3-0.1-0.4l-2.5-7.6L228.6,196.2z" />
	<path id="Path_63_" class="st32" d="M233.4,211.5l-2.4-7.6l-2.4-7.6c-0.3-1.1-1.3-1.8-2.4-1.8h-7.5c0.5,0,1.1,0.2,1.5,0.5
	c0.4,0.3,0.8,0.8,0.9,1.3l2.4,7.6l2.4,7.6c0,0.1,0.1,0.3,0.1,0.4c0,0.1,0,0.3,0,0.4v24.9c0,0.3,0,0.6-0.1,0.8
	c-0.1,0.3-0.2,0.5-0.4,0.7l-3.8,5l-3.9,5c-0.1,0.2-0.3,0.3-0.5,0.5c-0.2,0.1-0.4,0.3-0.6,0.3l-3.4,1.3l-3.4,1.3h0.1l0,0l0.5,0.1h0.5
	h5.4h0.5l0.4-0.1l3.5-1.3l3.5-1.3c0.2-0.1,0.4-0.2,0.6-0.3c0.2-0.1,0.4-0.3,0.5-0.5l3.8-5l3.8-5c0.2-0.2,0.3-0.5,0.4-0.7
	c0.1-0.3,0.1-0.5,0.1-0.8v-25c0-0.1,0-0.3,0-0.4C233.5,211.7,233.4,211.6,233.4,211.5z" />
	<path id="Path_64_" class="st33" d="M234.9,196.6l-2.2-2.1l-2.1-2.1l-2.2-2.1l-2.2-2.1l0,0l-0.1-0.1h-0.1c0,0,0,0-0.1,0l-1.7-0.6
	l-1.8-0.6l-1.7-0.6l-1.7-0.6h-7.2l-3.4,1.3l-3.4,1.3l-3.4,1.3l-3.4,1.3h-0.1h-0.1h-0.1v0.1l-1.3,1.4l-1.3,1.4l-1.3,1.4l-1.3,1.4
	l-0.1,0.1l-0.1,0.1c0,0,0,0.1,0,0.1c0,0,0,0.1,0,0.1l-0.3,2.1l-0.3,2.1l-0.3,2.1l-0.3,2.1v0.2l0.3,2.9l0.3,2.9l0.3,2.9l0.3,2.9
	c0,0.1,0,0.2,0,0.3c0,0.1,0.1,0.2,0.1,0.2c0.1,0.1,0.1,0.1,0.2,0.2c0.1,0.1,0.1,0.1,0.2,0.1h0.2c0.1,0,0.2,0.1,0.2,0.1
	c0.1,0.1,0.2,0.2,0.3,0.4c0,0.1,0.1,0.2,0.1,0.2l0.1,0.6l0.1,0.7l0.1,0.6l0.1,0.6h0.8h0.4h0.4v-6.2l0.3-2.2l0.3-2.2l0.3-2.2l0.3-2.2
	v-0.2c0-0.1,0-0.1,0.1-0.1c0,0,0.1-0.1,0.1-0.1l0.1-0.1l1.3-1.1l1.3-1.1l1.3-1.1l1.3-1.1c0.1-0.1,0.3-0.2,0.4-0.2c0.1,0,0.3,0,0.4,0
	c0.1,0,0.3,0.1,0.4,0.2c0.1,0.1,0.2,0.2,0.2,0.4v0.2l0.1,0.2v0.2l0.1,0.2c0,0.1,0.1,0.2,0.1,0.2c0,0.1,0.1,0.1,0.2,0.2
	c0.1,0.1,0.1,0.1,0.2,0.1c0.1,0,0.2,0.1,0.2,0.1l3.9,0.6l3.9,0.6l3.9,0.6l3.9,0.6c0,0,0.1,0,0.1,0h0.1l0.1,0.1l0.1,0.1l1.3,1.3
	l1.3,1.4l1.3,1.3l1.3,1.4l-0.3-1.6l-0.3-1.6l-0.3-1.6l-0.3-1.6c0-0.1,0-0.2,0-0.3c0-0.1,0.1-0.2,0.1-0.3c0.1-0.1,0.1-0.2,0.2-0.2
	c0.1-0.1,0.2-0.1,0.3-0.2l0.5-0.2l0.5-0.2l0.5-0.2l0.5-0.2c0.1,0,0.2,0,0.4,0c0.1,0,0.2,0,0.3,0.1c0.1,0.1,0.2,0.1,0.3,0.2
	c0.1,0.1,0.1,0.2,0.2,0.3l0.6,1.8l0.6,1.8l0.6,1.8l0.3,2v0.1l0.4,2.5l0.4,2.5l0.4,2.5l0.4,2.5h0.8l0.1-0.8l0.1-0.8l0.1-0.8l0.1-0.8
	c0-0.1,0-0.1,0-0.2c0-0.1,0-0.1,0.1-0.2c0-0.1,0.1-0.1,0.1-0.1l0.1-0.1h0.1h0.1l0,0h0.1l0.2-0.1l0.1-0.2c0-0.1,0-0.1,0-0.2
	c0-0.1,0-0.1,0-0.2v-20.1c0-0.1,0-0.1,0-0.2c0-0.1,0-0.1,0-0.2l-0.1-0.2L234.9,196.6z" />
	<path id="Path_65_" class="st74" d="M218.6,185.6h-6.8h-0.1l-3.4,1.3l-3.4,1.3l-3.4,1.3l-3.4,1.3h-0.1h-0.1H198l-0.1,0.1l-1.3,1.4
	l-1.3,1.4l-1.3,1.4l-1.3,1.4l-0.1,0.1l-0.1,0.1c0,0,0,0.1,0,0.1c0,0,0,0.1,0,0.1v0.4v0.4l-0.1,0.4v0.4l2.1-1.6l2.3-1.7l2-1.5
	l1.2-0.9h0.1l0,0h0.1h0.1l3.1-1l3.1-1l3.1-1l3.1-1h6.2l1.7,0.4l1.7,0.4l1.7,0.4l1.7,0.4h0.1h0.1h0.1l0,0l2.4,1.6l2.4,1.6l2.4,1.6
	l2.4,1.6v-0.4l-2.2-2.2l-2.2-2.2l-2.2-2.2l-2.2-2.2h-0.1l-0.1-0.1h-0.1h-0.1l-1.7-0.6l-1.7-0.6l-1.7-0.6l-1.7-0.6h-0.1l0,0h-0.1
	L218.6,185.6z" />
	<path id="Path_66_" class="st75" d="M196.7,248.8h-0.3l-4.1,3.9l-4.1,3.9h-0.1l-0.1,0.1h-0.1h-0.1l-16.5,5.8l-16.5,5.9l-0.3,0.3
	c-0.1,0-0.1,0.1-0.2,0.2c-0.1,0.1-0.1,0.1-0.1,0.2c0,0.1-0.1,0.2-0.1,0.3l3.3,3.6c0-0.1,0.1-0.1,0.1-0.2c0-0.1,0.1-0.1,0.1-0.2
	c0.1-0.1,0.1-0.1,0.2-0.2l0.2-0.1l15.6-6.3l15.6-6.2h0.1h0.1h0.1l0.1-0.1l3.5-3.5l3.5-3.5c0.1-0.1,0.1-0.1,0.1-0.2
	c0-0.1,0.1-0.1,0.1-0.2c0-0.1,0.1-0.1,0.1-0.2c0-0.1,0-0.1,0-0.2l-0.1-1.5L196.7,248.8z" />
	<circle id="Oval_4_" class="st73" cx="152" cy="112.5" r="7.5" />
	<circle id="Oval_5_" class="st73" cx="269.5" cy="144.2" r="7.5" />
	<circle id="Oval_6_" class="st73" cx="52.9" cy="157.4" r="7.5" />
	<circle id="Oval_7_" class="st73" cx="104.4" cy="219.5" r="7.5" />
	<circle id="Oval_8_" class="st73" cx="400.4" cy="251.2" r="7.5" />
	<circle id="Oval_9_" class="st73" cx="302.6" cy="164" r="7.5" />
	<ellipse id="Oval_10_" transform="matrix(0.1602 -0.9871 0.9871 0.1602 34.7363 411.1268)" class="st73" cx="259" cy="185.1" rx="7.5" ry="7.5" />
</svg>