<?xml version="1.0" encoding="UTF-8"?>
<svg width="440px" height="330px" viewBox="0 0 440 330" version="1.1" xmlns="http://www.w3.org/2000/svg" xmlns:xlink="http://www.w3.org/1999/xlink">
    <title>Graphic elements / Icons / Rich icons / Hardware</title>
    <g id="Graphic-elements-/-Icons-/-Rich-icons-/-Hardware" stroke="none" stroke-width="1" fill="none" fill-rule="evenodd">
        <g id="Hardware" transform="translate(20.000000, 115.000000)" fill-rule="nonzero">
            <path d="M397.58,94.5300208 L2.42,94.5300208 C1.77909739,94.5326594 1.16353231,94.2799239 0.709404516,93.8276726 C0.255276722,93.3754214 0,92.7609081 0,92.12 L0,2.6 C0.00550675025,1.26737781 1.08736643,0.19 2.42,0.19 L397.58,0.19 C398.912634,0.19 399.994493,1.26737781 400,2.6 L400,92.12 C400,92.7609081 399.744723,93.3754214 399.290595,93.8276726 C398.836468,94.2799239 398.220903,94.5326594 397.58,94.5300208 Z" id="Path" fill="#4E7486"></path>
            <path d="M397.58,99.8100208 L2.42,99.8100208 C1.77909739,99.8126594 1.16353231,99.5599239 0.709404516,99.1076726 C0.255276722,98.6554214 0,98.0409081 0,97.4 L0,7.88 C0.00550675025,6.54737781 1.08736643,5.47 2.42,5.47 L397.58,5.47 C398.912634,5.47 399.994493,6.54737781 400,7.88 L400,97.4 C400,98.0409081 399.744723,98.6554214 399.290595,99.1076726 C398.836468,99.5599239 398.220903,99.8126594 397.58,99.8100208 Z" id="Path" fill="#023852"></path>
            <path d="M72.56,78.250016 C77.3275838,78.2414823 81.4261568,74.8684803 82.3518328,70.1916168 C83.2775088,65.5147533 80.7728319,60.8347922 76.3679508,59.0107991 C71.9630697,57.1868061 66.8831024,58.7260836 64.2314851,62.6882616 C61.5798679,66.6504396 62.094088,71.9335277 65.46,75.31 C67.3406281,77.1965284 69.8962191,78.2547591 72.56,78.250016 L72.56,78.250016 Z" id="Path" fill="#0099DA"></path>
            <path d="M45.13,78.250016 C49.8975838,78.2414823 53.9961568,74.8684803 54.9218328,70.1916168 C55.8475088,65.5147533 53.3428319,60.8347922 48.9379508,59.0107991 C44.5330697,57.1868061 39.4531024,58.7260836 36.8014851,62.6882616 C34.1498679,66.6504396 34.664088,71.9335277 38.03,75.31 C39.9106281,77.1965284 42.4662191,78.2547591 45.13,78.250016 L45.13,78.250016 Z" id="Path" fill="#0099DA"></path>
            <path d="M100,78.2500083 C104.796276,78.2561339 108.928478,74.8722205 109.868107,70.1688818 C110.807736,65.4655432 108.292898,60.7536901 103.862426,58.916513 C99.4319548,57.0793358 94.3207076,58.6288912 91.6562649,62.6170037 C88.9918221,66.6051162 89.5168152,71.9202222 92.91,75.31 C94.788183,77.1940689 97.3396837,78.252096 100,78.2500083 L100,78.2500083 Z" id="Path" fill="#FFFFFF"></path>
            <path d="M84.33,99.7 L38.79,99.7 L38.79,112.39 C38.79,113.444864 39.6451361,114.3 40.7,114.3 L82.42,114.3 C83.4748639,114.3 84.33,113.444864 84.33,112.39 L84.33,99.7 L84.33,99.7 Z" id="Path" fill="#023852"></path>
            <path d="M354.93,99.7 L309.39,99.7 L309.39,112.39 C309.39,113.444864 310.245136,114.3 311.3,114.3 L353,114.3 C354.054864,114.3 354.91,113.444864 354.91,112.39 L354.91,99.7 L354.93,99.7 Z" id="Path" fill="#023852"></path>
            <polygon id="Path" fill="#06233C" style="mix-blend-mode: multiply;" points="84.33 107.97 84.33 103.83 84.33 99.7 61.56 99.7 38.79 99.7 38.79 103.83 38.79 107.97 61.56 107.97"></polygon>
            <polygon id="Path" fill="#06233C" style="mix-blend-mode: multiply;" points="354.93 107.97 354.93 103.83 354.93 99.7 332.16 99.7 309.39 99.7 309.39 103.83 309.39 107.97 332.16 107.97"></polygon>
            <path d="M231.7,51.27 L366,51.27 C366.704459,51.2646222 367.381626,51.5420906 367.879767,52.0402325 C368.377909,52.5383745 368.655378,53.2155414 368.650687,53.92 L368.650687,54.31 C368.666255,55.0213393 368.393596,55.7089115 367.894255,56.2157901 C367.394913,56.7226688 366.711503,57.0055965 366,57 L231.7,57 C230.995541,57.0053778 230.318374,56.7279094 229.820233,56.2297675 C229.322091,55.7316255 229.044622,55.0544586 229.049923,54.35 L229.049923,53.96 C229.044622,53.2555414 229.322091,52.5783745 229.820233,52.0802325 C230.318374,51.5820906 230.995541,51.3046222 231.7,51.31 L231.7,51.27 Z" id="Path" fill="#06233C" style="mix-blend-mode: multiply;"></path>
            <path d="M358.31,55.19 L292.2,55.19 C291.605795,55.1845731 291.125427,54.7042051 291.119583,54.11 C291.111897,53.8184043 291.222095,53.5359314 291.425519,53.3268566 C291.628943,53.1177817 291.908292,52.9998874 292.2,52.9999999 L358.31,52.9999999 C358.902584,52.9999746 359.384513,53.4774414 359.39,54.07 C359.384573,54.6642051 358.904205,55.1445731 358.31,55.15 L358.31,55.19 Z" id="Path" fill="#0099DA"></path>
            <path d="M231.7,63 L366,63 C366.704459,62.9946222 367.381626,63.2720906 367.879767,63.7702325 C368.377909,64.2683745 368.655378,64.9455414 368.650077,65.65 L368.650077,66.04 C368.655378,66.7444586 368.377909,67.4216255 367.879767,67.9197675 C367.381626,68.4179094 366.704459,68.6953778 366,68.69 L231.7,68.69 C230.995541,68.6953778 230.318374,68.4179094 229.820233,67.9197675 C229.322091,67.4216255 229.044622,66.7444586 229.049923,66.04 L229.049923,65.65 C229.044622,64.9455414 229.322091,64.2683745 229.820233,63.7702325 C230.318374,63.2720906 230.995541,62.9946222 231.7,63 L231.7,63 Z" id="Path" fill="#06233C" style="mix-blend-mode: multiply;"></path>
            <path d="M358.31,67 L292.2,67 C291.607416,67.0000254 291.125487,66.5225586 291.12,65.93 C291.125427,65.3357949 291.605795,64.8554269 292.2,64.85 L358.31,64.85 C358.904205,64.8554269 359.384573,65.3357949 359.39,65.93 C359.384513,66.5225586 358.902584,67.0000254 358.31,67 L358.31,67 Z" id="Path" fill="#FFE700"></path>
            <path d="M231.7,74.79 L366,74.79 C366.704459,74.7846222 367.381626,75.0620906 367.879767,75.5602325 C368.377909,76.0583745 368.655378,76.7355414 368.650077,77.44 L368.650077,77.83 C368.652659,78.5345547 368.374637,79.2111645 367.877377,79.7103008 C367.380118,80.2094371 366.70456,80.49 366,80.49 L231.7,80.49 C230.99544,80.49 230.319882,80.2094371 229.822623,79.7103008 C229.325363,79.2111645 229.047341,78.5345547 229.049923,77.83 L229.049923,77.44 C229.044622,76.7355414 229.322091,76.0583745 229.820233,75.5602325 C230.318374,75.0620906 230.995541,74.7846222 231.7,74.79 L231.7,74.79 Z" id="Path" fill="#06233C" style="mix-blend-mode: multiply;"></path>
            <path d="M358.31,78.71 L292.2,78.71 C291.607416,78.7100254 291.125487,78.2325586 291.12,77.64 C291.125427,77.0457949 291.605795,76.5654269 292.2,76.56 L358.31,76.56 C358.904205,76.5654269 359.384573,77.0457949 359.39,77.64 C359.384513,78.2325586 358.902584,78.7100254 358.31,78.71 L358.31,78.71 Z" id="Path" fill="#0099DA"></path>
        </g>
    </g>
</svg>