<?xml version="1.0" encoding="UTF-8"?>
<svg width="440px" height="330px" viewBox="0 0 440 330" version="1.1" xmlns="http://www.w3.org/2000/svg" xmlns:xlink="http://www.w3.org/1999/xlink">
    <title>Graphic elements / Icons / Rich icons / intelligence</title>
    <defs>
        <linearGradient x1="0%" y1="50.000001%" x2="100%" y2="50.000001%" id="linearGradient-1">
            <stop stop-color="#FFFFFF" stop-opacity="0" offset="0%"></stop>
            <stop stop-color="#FEF7DA" stop-opacity="0.15" offset="8%"></stop>
            <stop stop-color="#FEEBA1" stop-opacity="0.37" offset="22%"></stop>
            <stop stop-color="#FDE070" stop-opacity="0.56" offset="36%"></stop>
            <stop stop-color="#FCD747" stop-opacity="0.72" offset="50%"></stop>
            <stop stop-color="#FCD128" stop-opacity="0.84" offset="63%"></stop>
            <stop stop-color="#FBCC12" stop-opacity="0.93" offset="76%"></stop>
            <stop stop-color="#FBC905" stop-opacity="0.98" offset="89%"></stop>
            <stop stop-color="#FBC800" offset="100%"></stop>
        </linearGradient>
    </defs>
    <g id="Graphic-elements-/-Icons-/-Rich-icons-/-intelligence" stroke="none" stroke-width="1" fill="none" fill-rule="evenodd">
        <g id="Intelligence" transform="translate(48.000000, 15.000000)" fill-rule="nonzero">
            <path d="M302.413284,160.516605 C300.259914,162.661904 297.33845,163.857591 294.298893,163.837638 L277.937269,163.837638 L277.937269,199.416974 L272.678967,199.416974 L272.678967,163.892989 L215.313653,163.892989 L215.313653,158.634686 L294.298893,158.634686 C295.961484,158.651246 297.559547,157.992045 298.726937,156.808118 L342.265683,113.269373 C341.685101,112.145638 340.938739,111.115658 340.051661,110.214022 L334.605166,104.767528 C332.236652,102.397891 330.906626,99.1843264 330.907749,95.8339483 L330.907749,83.8560886 C330.908872,80.5057105 329.578846,77.2921455 327.210332,74.9225092 L324.907749,72.6309963 L301.948339,95.5904059 C299.794969,97.7357043 296.873506,98.931392 293.833948,98.9114391 L273.509225,98.9114391 L273.509225,93.6863469 L293.833948,93.6863469 C295.496539,93.7029063 297.094602,93.0437051 298.261993,91.8597786 L321.221402,68.9114391 L277.505535,25.1845018 C276.106054,23.7889028 274.400355,22.7389504 272.523985,22.1180812 L217.95941,4.11808118 L217.95941,13.6605166 L242.789668,38.4907749 C244.933921,40.6448387 246.129422,43.5658468 246.110701,46.6051661 L246.110701,71.1254613 L240.885609,71.1254613 L240.885609,46.6051661 C240.901289,44.9449218 240.24676,43.3485111 239.070111,42.1771218 L217.95941,21.099631 L217.95941,86.7232472 L212.701107,86.7232472 L212.701107,2.3800738 L207.420664,0.642066421 C206.143332,0.213970512 204.804722,-2.86886777e-05 203.457565,-2.86886777e-05 L113.180812,-2.86886777e-05 C111.308759,-2.86886777e-05 109.460358,0.418392508 107.767528,1.21771218 L52.4169742,27.4870849 L74.6900369,49.7158672 L94.5276753,29.8892989 C96.6817391,27.7450459 99.6027472,26.5495446 102.642066,26.5682657 L137.369004,26.5682657 L137.369004,31.7712177 L102.642066,31.7712177 C100.980456,31.7597179 99.3842842,32.4181389 98.2140221,33.597786 L78.4095941,53.4354244 L93.4538745,68.4797048 C94.6308443,69.6479632 96.2235907,70.3009893 97.8819188,70.295203 L167.391144,70.295203 L167.391144,75.5535055 L100.527675,75.5535055 L150.431734,125.457565 C151.601696,126.636353 153.19905,127.291268 154.859779,127.273063 L251.96679,127.273063 L251.96679,132.531365 L154.815498,132.531365 C151.77977,132.548361 148.862839,131.352897 146.712177,129.210332 L128.601476,111.099631 L128.601476,132.265683 C128.585796,133.925927 129.240325,135.522338 130.416974,136.693727 L157.195572,163.428044 L153.498155,167.158672 L126.697417,140.357934 C124.551071,138.205259 123.355196,135.283338 123.376384,132.243542 L123.376384,105.797048 L92.3800738,74.800738 L89.7896679,72.2103321 L47.4243542,29.8892989 L40.7822878,33.0110701 C39.477542,33.633422 38.2873523,34.4717945 37.2619926,35.4907749 L12.3099631,60.5092251 L35.5571956,83.7564576 C36.7285849,84.933107 38.3249956,85.5876354 39.9852399,85.5719557 L62.9889299,85.5719557 L62.9889299,90.8413284 L39.9630996,90.8413284 C36.9240184,90.8588204 34.0034643,89.6635049 31.8487085,87.5202952 L8.60147601,64.2730627 L3.69741697,69.1217712 C1.32851928,71.4866252 -1.90502672e-06,74.6970119 -1.90502672e-06,78.0442804 L-1.90502672e-06,117.675277 L97.1734317,117.675277 L97.1734317,122.933579 L26.1586716,122.933579 L48.7638376,145.549815 C49.9428473,146.714993 51.5342638,147.367474 53.1918819,147.365314 L70.8487085,147.365314 L70.8487085,152.623616 L53.1365314,152.623616 C50.100284,152.626574 47.1850658,151.433442 45.0221402,149.302583 L18.7195572,122.933579 L-1.90502672e-06,122.933579 L-1.90502672e-06,129.232472 C-1.90502672e-06,132.582609 1.32993354,135.795727 3.69741697,138.166052 L40.3062731,174.763838 C42.672508,177.13067 45.8819984,178.460657 49.2287823,178.461255 L91.0073801,178.461255 C97.9832867,178.461255 103.638376,184.116344 103.638376,191.092251 L103.638376,202.04059 C103.648983,205.397337 104.995314,208.611802 107.380074,210.97417 L124.107011,227.701107 C126.476647,230.069621 129.690212,231.399647 133.04059,231.398524 L155.180812,231.398524 L180.066421,206.501845 C182.221867,204.359676 185.141968,203.164546 188.180812,203.180812 L228.608856,203.180812 L228.608856,208.439114 L188.103321,208.439114 C186.443559,208.425939 184.848081,209.080085 183.675277,210.254613 L162.542435,231.365314 L166.328413,231.365314 C170.680635,231.366826 174.725503,233.608863 177.03321,237.298893 L214.826568,297.785978 C215.412093,298.720284 216.43613,299.291539 217.538745,299.291539 L242.258303,299.291539 C243.329946,299.295843 244.332582,298.763333 244.92908,297.873037 C245.525578,296.982741 245.636704,295.85292 245.225092,294.863469 L234.453875,268.605166 C234.069305,267.671798 234.176159,266.608045 234.738686,265.769813 C235.301213,264.931581 236.245125,264.429568 237.254613,264.431734 L276.642066,264.431734 C277.692837,264.417102 278.737728,264.272082 279.752768,264 L255.343173,239.590406 C254.171784,238.413756 252.575373,237.759228 250.915129,237.774908 L205.738007,237.774908 L205.738007,232.505535 L250.948339,232.505535 C253.990538,232.488769 256.914265,233.683753 259.073801,235.826568 L284.678967,261.431734 C284.990313,261.199955 285.289597,260.952399 285.575646,260.690037 L329.103321,217.162362 C331.471835,214.792725 332.801861,211.57916 332.800738,208.228782 L332.800738,185.701107 C332.801335,182.354323 334.131323,179.144833 336.498155,176.778598 L340.051661,173.225092 C342.418493,170.858857 343.749077,167.649367 343.749077,164.302583 L343.749077,119.202952 L302.413284,160.516605 Z" id="Path" fill="#FFE700"></path>
            <path d="M342.232472,113.269373 C341.651891,112.145638 340.905528,111.115658 340.01845,110.214022 L334.571956,104.767528 C332.203442,102.397891 330.873416,99.1843264 330.874539,95.8339483 L330.874539,83.8560886 C330.875661,80.5057105 329.545636,77.2921455 327.177122,74.9225092 L324.874539,72.6309963 L321.154982,68.9114391 L277.439114,25.1845018 C276.039634,23.7889028 274.333935,22.7389504 272.457565,22.1180812 L217.95941,4.11808118 L212.701107,2.3800738 L207.420664,0.642066421 C206.143332,0.213970512 204.804722,-3.23907899e-05 203.457565,-3.23907899e-05 L161.302583,-3.23907899e-05 C162.646138,-0.0030820837 163.981135,0.213808266 165.254613,0.642066421 L170.535055,2.3800738 L175.804428,4.11808118 L230.335793,22.1402214 C232.208723,22.7615236 233.910725,23.8115335 235.306273,25.2066421 L279.03321,68.9335793 L282.752768,72.6531365 L285.04428,74.9446494 C287.412794,77.3142857 288.74282,80.5278507 288.741697,83.8782288 L288.741697,95.8339483 C288.740575,99.1843264 290.0706,102.397891 292.439114,104.767528 L297.885609,110.214022 C298.779552,111.109829 299.526726,112.140929 300.099631,113.269373 C301.077195,115.075696 301.597874,117.093801 301.616236,119.147601 L301.616236,164.302583 C301.615639,167.649367 300.285652,170.858857 297.918819,173.225092 L294.376384,176.778598 C292.009551,179.144833 290.679564,182.354323 290.678967,185.701107 L290.678967,208.295203 C290.680089,211.645581 289.350064,214.859146 286.98155,217.228782 L243.453875,260.756458 C243.164057,261.018915 242.861083,261.266467 242.546125,261.498155 C240.282709,263.363755 237.453077,264.40584 234.520295,264.453875 L195.088561,264.453875 C194.751687,264.458683 194.41825,264.522373 194.103321,264.642066 L214.826568,297.785978 C215.412093,298.720284 216.43613,299.291539 217.538745,299.291539 L242.258303,299.291539 C243.329946,299.295843 244.332582,298.763333 244.92908,297.873037 C245.525578,296.982741 245.636704,295.85292 245.225092,294.863469 L234.453875,268.605166 C234.069305,267.671798 234.176159,266.608045 234.738686,265.769813 C235.301213,264.931581 236.245125,264.429568 237.254613,264.431734 L276.642066,264.431734 C279.578012,264.382704 282.410829,263.340883 284.678967,261.476015 C284.990313,261.244236 285.289597,260.99668 285.575646,260.734317 L329.103321,217.206642 C331.471835,214.837006 332.801861,211.623441 332.800738,208.273063 L332.800738,185.701107 C332.806179,182.355289 334.13543,179.147576 336.498155,176.778598 L340.051661,173.225092 C342.418493,170.858857 343.749077,167.649367 343.749077,164.302583 L343.749077,119.147601 C343.730715,117.093801 343.210036,115.075696 342.232472,113.269373 Z" id="Path" fill="url(#linearGradient-1)"></path>
            <path d="M294.298893,158.634686 L215.313653,158.634686 L215.313653,163.892989 L272.678967,163.892989 L272.678967,199.472325 L277.937269,199.472325 L277.937269,163.892989 L294.298893,163.892989 C297.33845,163.912942 300.259914,162.717254 302.413284,160.571956 L343.749077,119.236162 L343.749077,119.180812 C343.730715,117.127011 343.210036,115.108906 342.232472,113.302583 L298.693727,156.841328 C297.528878,158.004776 295.945166,158.651027 294.298893,158.634686 L294.298893,158.634686 Z" id="Path" fill="#023852"></path>
            <path d="M293.833948,93.6863469 L273.509225,93.6863469 L273.509225,98.9448952 L293.833948,98.9448952 C296.873506,98.9646024 299.794969,97.7689147 301.948339,95.6236162 L324.907749,72.6309963 L321.188192,68.9114391 L298.228782,91.8819188 C297.065766,93.0494258 295.481826,93.6997587 293.833948,93.6863469 L293.833948,93.6863469 Z" id="Path" fill="#023852"></path>
            <path d="M217.95941,86.7232472 L217.95941,21.099631 L239.114391,42.2103321 C240.291041,43.3817214 240.945569,44.9781321 240.929889,46.6383764 L240.929889,71.1254613 L246.199479,71.1254613 L246.199479,46.6051661 C246.217983,43.5658468 245.022482,40.6448387 242.878229,38.4907749 L217.95941,13.6605166 L217.95941,4.11808118 L212.701107,2.3800738 L212.701107,86.7232472 L217.95941,86.7232472 Z" id="Path" fill="#023852"></path>
            <path d="M92.3247232,74.7896679 L123.321033,105.785978 L123.321033,132.221402 C123.299846,135.261198 124.49572,138.183119 126.642066,140.335793 L153.498155,167.158672 L157.217712,163.439114 L130.416974,136.638376 C129.240325,135.466987 128.585796,133.870576 128.601476,132.210332 L128.601476,111.066421 L146.712177,129.177122 C148.862839,131.319687 151.77977,132.51515 154.815498,132.498155 L251.922509,132.498155 L251.922509,127.306273 L154.815498,127.306273 C153.15477,127.324478 151.557415,126.669563 150.387454,125.490775 L100.527675,75.5535055 L167.346863,75.5535055 L167.346863,70.295203 L97.8376384,70.295203 C96.1793103,70.3009893 94.5865639,69.6479632 93.4095941,68.4797048 L78.4095941,53.4354244 L98.2472325,33.597786 C99.4174945,32.4181389 101.013667,31.7597179 102.675277,31.7712177 L137.402214,31.7712177 L137.402214,26.5680491 L102.642066,26.5680491 C99.6027472,26.5495446 96.6817391,27.7450459 94.5276753,29.8892989 L74.6900369,49.7158672 L52.4612546,27.4870849 L47.4243542,29.8892989 L89.7343173,72.199262 L92.3247232,74.7896679 Z" id="Path" fill="#023852"></path>
            <path d="M45.0442804,149.269373 C47.207206,151.400232 50.1224242,152.593363 53.1586716,152.590411 L70.8487085,152.590411 L70.8487085,147.332103 L53.1365314,147.332103 C51.4789132,147.334263 49.8874968,146.681783 48.7084871,145.516605 L26.1586716,122.933579 L97.1734317,122.933579 L97.1734317,117.675277 L0,117.675277 L0,122.933579 L18.7195572,122.933579 L45.0442804,149.269373 Z" id="Path" fill="#023852"></path>
            <path d="M39.9630996,90.8523985 L62.9889299,90.8523985 L62.9889299,85.5830258 L39.9630996,85.5830258 C38.3028553,85.5987055 36.7064447,84.9441771 35.5350554,83.7675277 L12.2878229,60.5202952 L8.5904059,64.2066421 L31.8376384,87.4538745 C33.9823239,89.6282413 36.9089963,90.8523985 39.9630996,90.8523985 Z" id="Path" fill="#023852"></path>
            <path d="M250.948339,232.527675 L205.738007,232.527675 L205.738007,237.797048 L250.948339,237.797048 C252.608584,237.781368 254.204994,238.435897 255.376384,239.612546 L279.785978,264.02214 C281.593285,263.552292 283.275099,262.690599 284.712177,261.498155 L259.04059,235.892989 C256.896442,233.742095 253.985395,232.531481 250.948339,232.527675 L250.948339,232.527675 Z" id="Path" fill="#023852"></path>
            <path d="M188.103321,208.405904 L228.531365,208.405904 L228.531365,203.147438 L188.103321,203.147438 C185.064478,203.131336 182.144376,204.326466 179.98893,206.468635 L155.103321,231.365314 L162.542435,231.365314 L183.763838,210.221402 C184.914966,209.06862 186.474243,208.416269 188.103321,208.405904 Z" id="Path" fill="#023852"></path>
            <circle id="Oval" fill="#023852" cx="155.867159" cy="165.210332" r="5.900369"></circle>
            <circle id="Oval" fill="#023852" cx="98.5239852" cy="120.376384" r="5.900369"></circle>
            <circle id="Oval" fill="#023852" cx="63.2767528" cy="87.6420664" r="5.900369"></circle>
            <circle id="Oval" fill="#023852" cx="169.571956" cy="73.3616236" r="5.900369"></circle>
            <circle id="Oval" fill="#023852" cx="139.129151" cy="29.7121771" r="5.900369"></circle>
            <circle id="Oval" fill="#023852" cx="215.446494" cy="86.8450185" r="5.900369"></circle>
            <circle id="Oval" fill="#023852" cx="243.420664" cy="71.9446494" r="5.900369"></circle>
            <circle id="Oval" fill="#023852" cx="273.675277" cy="96.099631" r="5.900369"></circle>
            <circle id="Oval" fill="#023852" cx="215.070111" cy="161.612546" r="5.900369"></circle>
            <circle id="Oval" fill="#023852" cx="275.214022" cy="199.560886" r="5.900369"></circle>
            <circle id="Oval" fill="#023852" cx="229.583026" cy="205.859779" r="5.900369"></circle>
            <circle id="Oval" fill="#023852" cx="206.180812" cy="235.394834" r="5.900369"></circle>
            <circle id="Oval" fill="#023852" cx="71.7121771" cy="150.210332" r="5.900369"></circle>
        </g>
    </g>
</svg>