<?xml version="1.0" encoding="UTF-8"?>
<svg width="440px" height="330px" viewBox="0 0 440 330" version="1.1" xmlns="http://www.w3.org/2000/svg" xmlns:xlink="http://www.w3.org/1999/xlink">
    <title>Graphic elements / Icons / Rich icons / key-features</title>
    <defs>
        <linearGradient x1="0%" y1="49.9968488%" x2="99.9863859%" y2="49.9968488%" id="linearGradient-1">
            <stop stop-color="#FFFFFF" offset="0%"></stop>
            <stop stop-color="#3B3030" offset="77%"></stop>
        </linearGradient>
        <linearGradient x1="0%" y1="49.9927652%" x2="100%" y2="49.9927652%" id="linearGradient-2">
            <stop stop-color="#FFFFFF" offset="0%"></stop>
            <stop stop-color="#3B3030" offset="77%"></stop>
        </linearGradient>
    </defs>
    <g id="Graphic-elements-/-Icons-/-Rich-icons-/-key-features" stroke="none" stroke-width="1" fill="none" fill-rule="evenodd">
        <g id="Key-Features" transform="translate(68.000000, 0.000000)" fill-rule="nonzero">
            <path d="M214.028571,0.320963977 L6.01823708,1.00303951 C2.69445652,1.00303951 0,3.69749603 0,7.0212766 L0.320972644,127.997872 L0.320972644,128.058055 L0.320972644,137.697264 L0.320972644,137.697264 L0.912765957,313.469909 C0.912765957,314.800022 1.44115133,316.075657 2.38168332,317.016189 C3.32221531,317.956721 4.59785043,318.485106 5.92796353,318.485106 L215.01155,317.81307 C218.335331,317.81307 221.029787,315.118613 221.029787,311.794833 L220.056839,6.30911854 C220.040264,2.99317833 217.344548,0.315404582 214.028571,0.320963977 Z" id="Path" fill="url(#linearGradient-1)" opacity="0.3" style="mix-blend-mode: multiply;"></path>
            <path d="M20.131003,330 L230.23769,329.307903 C233.007507,329.307903 235.252888,327.062522 235.252888,324.292705 L234.671125,137.536778 L14.5641337,138.258967 L15.1158055,324.984802 C15.1158055,327.75462 17.3611859,330 20.131003,330 Z" id="Path" fill="#F4F6F7"></path>
            <polygon id="Path" fill="#023852" points="234.610942 185.010638 14.5541033 185.722796 14.1829787 11.8458967 234.239818 11.1337386"></polygon>
            <rect id="Rectangle" fill="#63879C" x="162.632827" y="218.963526" width="44.1036474" height="8.58601824"></rect>
            <rect id="Rectangle" fill="#63879C" x="162.632827" y="245.935258" width="44.1036474" height="8.58601824"></rect>
            <rect id="Rectangle" fill="#63879C" x="162.632827" y="272.906991" width="44.1036474" height="8.58601824"></rect>
            <polygon id="Path" fill="#63879C" points="144.899088 281.743769 143.645289 282.997568 142.431611 284.251368 139.723404 281.543161 137.015198 278.834954 138.268997 277.581155 139.522796 276.327356 140.977204 277.781763 142.431611 279.23617 146.373556 275.284195 150.325532 271.342249 151.569301 272.596049 152.8231 273.849848 148.841033 277.841945"></polygon>
            <polygon id="Path" fill="#63879C" points="144.899088 255.554407 143.645289 256.778116 142.431611 258.062006 139.723404 255.353799 137.015198 252.645593 138.268997 251.391793 139.522796 250.137994 140.977204 251.592401 142.431611 253.046809 146.373556 249.094833 150.325532 245.152888 151.569301 246.406687 152.8231 247.660486 148.881155 251.602432"></polygon>
            <polygon id="Path" fill="#63879C" points="144.899088 226.606687 143.645289 227.860486 142.431611 229.114286 139.723404 226.406079 137.015198 223.697872 138.268997 222.444073 139.522796 221.190274 140.977204 222.644681 142.431611 224.099088 146.373556 220.157143 150.325532 216.205167 151.569301 217.458967 152.8231 218.712766 148.841033 222.674772"></polygon>
            <polygon id="Path" fill="#63879C" points="55.3075988 281.743769 54.0537994 282.997568 52.8 284.251368 50.0917933 281.543161 47.3835866 278.834954 48.637386 277.581155 49.8911854 276.327356 51.3455927 277.781763 52.8 279.23617 56.7519757 275.284195 60.693921 271.342249 61.9477204 272.596049 63.1914894 273.829787 59.2495441 277.841945"></polygon>
            <polygon id="Path" fill="#63879C" points="55.3075988 255.554407 54.0537994 256.778116 52.8 258.031915 50.0917933 255.323708 47.3835866 252.615502 48.637386 251.361702 49.8911854 250.107903 51.3455927 251.56231 52.8 253.016717 56.7519757 249.064742 60.693921 245.122796 61.9477204 246.376596 63.1914894 247.660486 59.2395137 251.602432"></polygon>
            <polygon id="Path" fill="#63879C" points="55.3075988 226.606687 54.0537994 227.860486 52.8 229.114286 50.0917933 226.406079 47.3835866 223.697872 48.637386 222.444073 49.8911854 221.190274 51.3455927 222.674772 52.8 224.129179 56.7519757 220.187234 60.693921 216.235258 61.9477204 217.489058 63.1914894 218.712766 59.2495441 222.674772"></polygon>
            <rect id="Rectangle" fill="#63879C" x="77.1738602" y="218.963526" width="44.1036474" height="8.58601824"></rect>
            <rect id="Rectangle" fill="#63879C" x="77.1738602" y="245.935258" width="44.1036474" height="8.58601824"></rect>
            <rect id="Rectangle" fill="#63879C" x="77.1738602" y="272.906991" width="44.1036474" height="8.58601824"></rect>
            <rect id="Rectangle" fill="url(#linearGradient-2)" opacity="0.3" style="mix-blend-mode: multiply;" x="180.968389" y="15.1659574" width="113.875076" height="69.3200608" rx="3.16"></rect>
            <rect id="Rectangle" fill="#F4F6F7" x="190.617629" y="0" width="113.875076" height="69.3200608" rx="3.16"></rect>
            <polygon id="Path" fill="#0099DA" points="275.565046 34.1033435 264.702128 23.2404255 264.702128 30.1212766 215.00152 30.1212766 215.00152 38.0854103 264.702128 38.0854103 264.702128 44.956231"></polygon>
            <circle id="Oval" fill="#B2C4CF" opacity="0.43" cx="73.8136778" cy="84.3355623" r="15.5972644"></circle>
            <circle id="Oval" fill="#FFE700" cx="176.324316" cy="132.01003" r="15.5972644"></circle>
            <path d="M153.465046,121.09696 L97.1343465,94.2857143 C96.8079722,94.1000617 96.4052389,94.1122426 96.0906812,94.3172806 C95.7761235,94.5223185 95.6024256,94.8858724 95.6405506,95.2594144 C95.6786757,95.6329563 95.9222384,95.9539231 96.2717325,96.0911854 L152.592401,122.882371 C152.726902,122.947519 152.874262,122.981789 153.023708,122.982799 C153.498622,122.990113 153.913645,122.663434 154.017965,122.20006 C154.122284,121.736686 153.887298,121.263669 153.455015,121.066869 L153.465046,121.09696 Z" id="Path" fill="#0099DA"></path>
        </g>
    </g>
</svg>