<?xml version="1.0" encoding="UTF-8"?>
<svg width="440px" height="330px" viewBox="0 0 440 330" version="1.1" xmlns="http://www.w3.org/2000/svg" xmlns:xlink="http://www.w3.org/1999/xlink">
    <title>Graphic elements / Icons / Rich icons / Generic / Languages</title>
    <g id="Graphic-elements-/-Icons-/-Rich-icons-/-Generic-/-Languages" stroke="none" stroke-width="1" fill="none" fill-rule="evenodd">
        <g id="Languages" transform="translate(12.000000, 0.000000)" fill-rule="nonzero">
            <path d="M355.560436,157.595618 C355.466681,77.6014776 294.795975,10.6819759 215.193812,2.7720555 C135.591648,-5.13786494 62.9380553,48.5334466 47.1039754,126.944882 C31.2698954,205.356317 77.4032593,283.014974 153.837163,306.61433 C230.271067,330.213685 312.155539,292.081185 343.283367,218.391772 C351.413599,199.155453 355.588818,178.479483 355.560436,157.595618 Z" id="Path" fill="#33ACDF"></path>
            <path d="M136.592308,274.562811 C136.658357,274.392208 136.743516,274.229633 136.846154,274.078196 C136.952565,273.922036 137.072239,273.775339 137.203846,273.639734 L149.896154,260.947426 L162.588462,248.255119 C162.667599,248.175933 162.740869,248.091094 162.807692,248.001272 C162.864562,247.904857 162.914682,247.804617 162.957692,247.701272 C163.002581,247.601138 163.037369,247.496775 163.061538,247.389734 C163.067257,247.278269 163.067257,247.166584 163.061538,247.055119 L163.061538,235.170503 C163.063054,234.798114 163.137534,234.429631 163.280769,234.085888 C163.422433,233.735056 163.634487,233.416975 163.903846,233.151272 C164.171456,232.889626 164.484182,232.678536 164.826923,232.528196 C165.175719,232.389692 165.547791,232.319194 165.923077,232.320503 L172.234615,232.320503 C172.345866,232.331842 172.45798,232.331842 172.569231,232.320503 L172.880769,232.216657 C172.986221,232.178398 173.086891,232.128064 173.180769,232.066657 L173.434615,231.858965 L178.453846,226.828196 L183.473077,221.808965 C183.552214,221.729779 183.625485,221.64494 183.692308,221.555119 C183.753714,221.46124 183.804049,221.360571 183.842308,221.255119 C183.935193,221.052463 183.982459,220.831887 183.980834,220.608965 L183.980834,205.655119 C183.982838,205.432158 183.935554,205.211501 183.842308,205.008965 C183.759317,204.80056 183.633531,204.611881 183.473077,204.455119 C183.320343,204.295206 183.135535,204.16938 182.930769,204.085888 C182.721411,204.002803 182.498318,203.95975 182.273077,203.958965 L166.269231,203.958965 C165.87191,203.949004 165.4802,203.862828 165.115385,203.705119 C164.932393,203.623355 164.758384,203.522816 164.596154,203.405119 C164.435341,203.278851 164.284863,203.139948 164.146154,202.989734 L150.657692,187.770503 L137.192308,172.551272 C137.115243,172.458843 137.025963,172.377326 136.926923,172.308965 C136.831607,172.234053 136.726865,172.171984 136.615385,172.124349 L136.280769,172.008965 C136.161838,171.997012 136.042008,171.997012 135.923077,172.008965 L90.3346154,172.008965 C90.1131211,172.009816 89.8938204,172.052893 89.6884615,172.135888 C89.4823672,172.223222 89.2944986,172.348468 89.1346154,172.505119 C88.974161,172.661881 88.8483755,172.85056 88.7653846,173.058965 C88.6834481,173.264637 88.6404111,173.483735 88.6384615,173.705119 L88.6384615,174.178196 C88.6271225,174.289446 88.6271225,174.401561 88.6384615,174.512811 C88.6585271,174.619533 88.6894574,174.723923 88.7307692,174.824349 C88.7730462,174.93016 88.8272419,175.030809 88.8923077,175.124349 C88.951579,175.216646 89.0212676,175.301821 89.1,175.378196 L94.9615385,181.239734 L100.834615,187.112811 C100.969352,187.241374 101.089325,187.384567 101.192308,187.539734 C101.292037,187.69884 101.380708,187.864616 101.457692,188.035888 C101.528904,188.211024 101.583002,188.392639 101.619231,188.578196 C101.655525,188.760633 101.674838,188.946041 101.676923,189.132042 L101.676923,206.289734 C101.666653,206.512191 101.710192,206.733844 101.803846,206.935888 C101.842245,207.037643 101.892598,207.134476 101.953846,207.224349 C102.02057,207.317873 102.09383,207.406556 102.173077,207.489734 L107.123077,212.439734 L112.073077,217.389734 C112.149451,217.468466 112.234626,217.538155 112.326923,217.597426 L112.626923,217.758965 L112.938462,217.851272 C113.049712,217.862612 113.161827,217.862612 113.273077,217.851272 L116.803846,217.851272 C117.562436,217.850938 118.289597,218.154267 118.823077,218.69358 C119.090889,218.956109 119.302832,219.270097 119.446154,219.616657 C119.595729,219.98272 119.670279,220.375091 119.665385,220.770503 L119.665385,290.301272 C119.663028,290.395422 119.635108,290.487158 119.584615,290.566657 C119.535129,290.63917 119.472513,290.701786 119.4,290.751272 C122.123077,292.382042 124.896154,293.920503 127.719231,295.366657 C130.542308,296.812811 133.415385,298.185888 136.338462,299.485888 L136.338462,275.658965 C136.318577,275.262377 136.393741,274.866778 136.557692,274.505119 L136.592308,274.562811 Z" id="Path" fill="#023852"></path>
            <path d="M201.323077,147.692308 L204.103846,147.692308 C204.234024,147.709891 204.365976,147.709891 204.496154,147.692308 C204.627374,147.669799 204.755281,147.63104 204.876923,147.576923 C204.994105,147.530866 205.106235,147.472868 205.211538,147.403846 C205.322569,147.328451 205.42681,147.243514 205.523077,147.15 L206.676923,145.996154 L207.830769,144.842308 C207.978697,144.692152 208.141015,144.556887 208.315385,144.438462 C208.487249,144.326427 208.668732,144.229893 208.857692,144.15 C209.046462,144.069659 209.243946,144.011575 209.446154,143.976923 C209.646778,143.931101 209.851902,143.907879 210.057692,143.907692 L219.15,143.907692 C219.280498,143.919605 219.41181,143.919605 219.542308,143.907692 C219.670213,143.886848 219.794523,143.848001 219.911538,143.792308 C220.035947,143.749432 220.152779,143.687121 220.257692,143.607692 C220.367483,143.539859 220.468279,143.458447 220.557692,143.365385 L226.846154,137.076923 L233.134615,130.788462 C233.227678,130.699048 233.30909,130.598252 233.376923,130.488462 C233.456352,130.383548 233.518662,130.266716 233.561538,130.142308 C233.617232,130.025293 233.656078,129.900982 233.676923,129.773077 C233.688836,129.642579 233.688836,129.511267 233.676923,129.380769 L233.676923,119.273077 C233.688059,119.142545 233.688059,119.011301 233.676923,118.880769 C233.656078,118.752864 233.617232,118.628554 233.561538,118.511538 C233.518662,118.38713 233.456352,118.270298 233.376923,118.165385 C233.306143,118.057712 233.224987,117.957233 233.134615,117.865385 L232.05,116.780769 L230.965385,115.696154 C230.873537,115.605783 230.773057,115.524626 230.665385,115.453846 C230.560471,115.374417 230.443639,115.312107 230.319231,115.269231 C230.202216,115.213538 230.077905,115.174691 229.95,115.153846 C229.819468,115.142711 229.688224,115.142711 229.557692,115.153846 L208.603846,115.153846 C208.057672,115.151101 207.516405,115.257001 207.011538,115.465385 C206.499394,115.67153 206.035727,115.981951 205.65,116.376923 C205.262501,116.762013 204.956429,117.22112 204.75,117.726923 C204.537957,118.23107 204.428141,118.772307 204.426923,119.319231 L204.426923,130.857692 C204.444552,131.061157 204.444552,131.265766 204.426923,131.469231 C204.388326,131.675582 204.32639,131.876875 204.242308,132.069231 C204.166826,132.26026 204.070062,132.442176 203.953846,132.611538 C203.83936,132.782053 203.707922,132.940552 203.561538,133.084615 L201.761538,134.884615 L199.973077,136.684615 C199.876399,136.77375 199.791134,136.874517 199.719231,136.984615 C199.648481,137.094846 199.586742,137.210606 199.534615,137.330769 C199.489301,137.451599 199.45078,137.574869 199.419231,137.7 C199.407318,137.830498 199.407318,137.96181 199.419231,138.092308 L199.419231,145.776923 C199.422272,146.037803 199.473112,146.295915 199.569231,146.538462 C199.668872,146.781987 199.818205,147.002057 200.007692,147.184615 C200.377524,147.563817 200.885706,147.776254 201.415385,147.773112 L201.323077,147.692308 Z" id="Path" fill="#023852"></path>
            <path d="M44.0653846,146.296154 L57.1961538,159.426923 L70.3153846,172.557692 C70.3909168,172.629294 70.471933,172.694878 70.5576923,172.753846 L70.8115385,172.892308 C70.9048967,172.928368 71.0014906,172.955414 71.1,172.973077 L71.4,172.973077 L83.4807692,172.973077 C83.6822713,172.970369 83.8816267,172.93128 84.0692308,172.857692 C84.2537553,172.777559 84.4219448,172.664129 84.5653846,172.523077 C84.7114737,172.383822 84.8256344,172.214549 84.9,172.026923 C84.9792645,171.841019 85.0185755,171.640533 85.0153846,171.438462 L85.0153846,159.553846 C85.0141066,159.200981 85.0847762,158.851559 85.2230769,158.526923 C85.3530398,158.195255 85.5538734,157.895973 85.8115385,157.65 C86.0596124,157.400188 86.3534076,157.200407 86.6769231,157.061538 C87.0040639,156.953656 87.3482257,156.906725 87.6923077,156.923077 L111.011538,156.923077 C111.11118,156.935046 111.211897,156.935046 111.311538,156.923077 L111.6,156.842308 C111.692197,156.799226 111.780924,156.749077 111.865385,156.692308 C111.949903,156.640915 112.027462,156.578868 112.096154,156.507692 L115.246154,153.357692 L118.396154,150.207692 C118.535031,150.064847 118.644765,149.896327 118.719231,149.711538 C118.762541,149.619858 118.793577,149.522869 118.811538,149.423077 C118.823508,149.323435 118.823508,149.222719 118.811538,149.123077 L118.811538,141.426923 C118.805321,140.712011 119.086572,140.024572 119.592111,139.519034 C120.097649,139.013496 120.785088,138.732245 121.5,138.738462 L133.961538,138.738462 C134.06118,138.750431 134.161897,138.750431 134.261538,138.738462 L134.55,138.657692 C134.642197,138.614611 134.730924,138.564461 134.815385,138.507692 C134.899903,138.4563 134.977462,138.394253 135.046154,138.323077 L141.542308,131.826923 L148.038462,125.330769 C148.108936,125.261441 148.17091,125.183974 148.223077,125.1 C148.282695,125.019242 148.329406,124.929713 148.361538,124.834615 C148.404848,124.742935 148.435885,124.645946 148.453846,124.546154 C148.465225,124.450337 148.465225,124.35351 148.453846,124.257692 L148.453846,109.257692 C148.465706,109.158044 148.465706,109.057341 148.453846,108.957692 C148.435885,108.8579 148.404848,108.760911 148.361538,108.669231 C148.327104,108.575132 148.280558,108.48592 148.223077,108.403846 C148.167968,108.321993 148.106221,108.24481 148.038462,108.173077 L140.457692,100.384615 L132.853846,92.7692308 C132.782113,92.7014709 132.70493,92.6397244 132.623077,92.5846154 C132.541003,92.5271342 132.451791,92.4805888 132.357692,92.4461538 C132.26517,92.4050154 132.168447,92.3740641 132.069231,92.3538462 C131.969589,92.3418768 131.868873,92.3418768 131.769231,92.3538462 L120.3,92.3538462 C120.100995,92.3558977 119.904568,92.3991116 119.723077,92.4807692 C119.536818,92.552383 119.367755,92.6624705 119.226923,92.8038462 C119.083433,92.9452773 118.969665,93.1139675 118.892308,93.3 C118.814322,93.4862947 118.775064,93.6865111 118.776923,93.8884615 L118.776923,106.280769 C118.778164,106.637361 118.707527,106.990546 118.569231,107.319231 C118.42771,107.641285 118.228248,107.934612 117.980769,108.184615 C117.732695,108.434428 117.4389,108.634208 117.115385,108.773077 C116.785405,108.907107 116.43307,108.977574 116.076923,108.980769 L97.2346154,108.980769 C97.0581004,108.997763 96.8803611,108.997763 96.7038462,108.980769 C96.5336366,108.948398 96.3673273,108.898118 96.2076923,108.830769 C96.0406608,108.764848 95.8818943,108.679656 95.7346154,108.576923 C95.5894604,108.478754 95.4542071,108.366687 95.3307692,108.242308 L92.1,105 L88.8461538,101.734615 C88.7190978,101.61365 88.6067807,101.478095 88.5115385,101.330769 C88.4088054,101.18349 88.3236136,101.024724 88.2576923,100.857692 C88.1956038,100.696206 88.1454688,100.530375 88.1076923,100.361538 C88.0901092,100.185052 88.0901092,100.007255 88.1076923,99.8307692 L88.1076923,92.9769231 C88.0901092,92.8004369 88.0901092,92.6226401 88.1076923,92.4461538 C88.1470256,92.2739526 88.197124,92.1043888 88.2576923,91.9384615 C88.3263692,91.7763721 88.4114262,91.621723 88.5115385,91.4769231 C88.6037912,91.3274286 88.716411,91.1915082 88.8461538,91.0730769 L96.3807692,83.5384615 L103.903846,76.0038462 C103.975328,75.9323213 104.040925,75.8551481 104.1,75.7730769 C104.157481,75.6910027 104.204027,75.6017907 104.238462,75.5076923 C104.276096,75.413872 104.306945,75.3174702 104.330769,75.2192308 C104.336471,75.1231614 104.336471,75.0268386 104.330769,74.9307692 L104.330769,60.0807692 C104.330769,59.2332246 103.643699,58.5461538 102.796154,58.5461538 L82.3269231,58.5461538 L82.1884615,58.5461538 L82.0615385,58.5461538 L79.9384615,59.3653846 L77.8153846,60.1961538 C77.7322723,60.2187087 77.6446508,60.2187087 77.5615385,60.1961538 C77.4776271,60.1797814 77.3961834,60.1526335 77.3192308,60.1153846 C57.6493137,84.6853703 45.8898969,114.641107 43.5923077,146.030769 C43.6760596,146.013673 43.762402,146.013673 43.8461538,146.030769 C43.9435825,146.09592 44.0197965,146.188179 44.0653846,146.296154 L44.0653846,146.296154 Z" id="Path" fill="#023852"></path>
            <path d="M299.792308,70.9961538 C299.534943,71.0980015 299.261355,71.1527191 298.984615,71.1576923 L289.915385,71.1576923 L289.742308,71.1576923 L289.580769,71.25 L289.430769,71.3653846 L288.588462,72.2076923 L287.746154,73.05 C286.907333,73.8529432 285.584974,73.8529432 284.746154,73.05 L280.211538,68.5153846 L275.676923,63.9807692 L275.526923,63.8653846 L275.365385,63.7730769 L275.180769,63.7730769 L274.996154,63.7730769 L255.669231,63.7730769 L255.484615,63.7730769 L255.3,63.7730769 L255.138462,63.8653846 L254.988462,63.9807692 L244.223077,74.7576923 L233.446154,85.5346154 L233.330769,85.6730769 C233.295541,85.7282782 233.264678,85.7861464 233.238462,85.8461538 C233.233536,85.903741 233.233536,85.9616436 233.238462,86.0192308 C233.2331,86.0806525 233.2331,86.1424245 233.238462,86.2038462 L233.238462,93.5653846 C233.238098,93.6917214 233.261587,93.8169915 233.307692,93.9346154 C233.404906,94.1698059 233.591733,94.3566321 233.826923,94.4538462 C233.944223,94.5010726 234.069713,94.5246021 234.196154,94.5230769 L236.342308,94.5230769 C236.468645,94.5234401 236.593915,94.4999519 236.711538,94.4538462 C236.946729,94.3566321 237.133555,94.1698059 237.230769,93.9346154 C237.276875,93.8169915 237.300363,93.6917214 237.3,93.5653846 L237.3,91.7192308 C237.301191,91.4420954 237.356048,91.167814 237.461538,90.9115385 C237.672628,90.3856117 238.089458,89.9687815 238.615385,89.7576923 C238.873703,89.6456737 239.15311,89.5905794 239.434615,89.5961538 L242.792308,89.5961538 C242.926664,89.5843524 243.061797,89.5843524 243.196154,89.5961538 C243.335691,89.6208204 243.471439,89.6634841 243.6,89.7230769 C243.731001,89.7723089 243.855103,89.8382378 243.969231,89.9192308 C244.084516,89.9937094 244.192668,90.0786864 244.292308,90.1730769 L246.6,92.4807692 L248.907692,94.7884615 C249.005747,94.8879019 249.094573,94.9960379 249.173077,95.1115385 C249.252064,95.2268926 249.31786,95.3507441 249.369231,95.4807692 C249.42358,95.6073319 249.46607,95.7386639 249.496154,95.8730769 C249.507554,96.0113038 249.507554,96.1502346 249.496154,96.2884615 L249.496154,98.7230769 C249.496154,99.0003316 249.441252,99.2748419 249.334615,99.5307692 C249.231729,99.7917223 249.074385,100.027739 248.873077,100.223077 C248.67899,100.420527 248.447581,100.577415 248.192308,100.684615 C247.932354,100.791291 247.654067,100.846164 247.373077,100.846154 L244.615385,100.846154 C244.334394,100.846164 244.056107,100.791291 243.796154,100.684615 C243.540881,100.577415 243.309471,100.420527 243.115385,100.223077 C242.917849,100.024625 242.761057,99.789437 242.653846,99.5307692 C242.54721,99.2748419 242.492308,99.0003316 242.492308,98.7230769 C242.492671,98.5967401 242.469183,98.4714701 242.423077,98.3538462 C242.375856,98.2369021 242.305171,98.1308751 242.215385,98.0423077 C242.120847,97.9600402 242.016146,97.8902398 241.903846,97.8346154 C241.786222,97.7885096 241.660952,97.7650215 241.534615,97.7653846 L237.565385,97.7653846 L237.369231,97.7653846 C237.311964,97.7554782 237.253421,97.7554782 237.196154,97.7653846 L237.023077,97.8461538 L236.884615,97.9615385 L233.526923,101.538462 L230.215385,104.85 C230.132253,104.943875 230.062373,105.048696 230.007692,105.161538 C229.983328,105.221354 229.96403,105.283109 229.95,105.346154 C229.94543,105.407559 229.94543,105.469364 229.95,105.530769 L229.95,109.326923 C229.943907,109.388311 229.943907,109.450151 229.95,109.511538 C229.962272,109.575039 229.981623,109.636965 230.007692,109.696154 C230.062373,109.808996 230.132253,109.913817 230.215385,110.007692 L233.676923,113.469231 L237.138462,116.930769 C237.183029,116.979108 237.233412,117.021741 237.288462,117.057692 L237.45,117.138462 L237.634615,117.196154 L248.457692,117.196154 C248.595921,117.184806 248.734848,117.184806 248.873077,117.196154 C249.01219,117.222534 249.147731,117.265132 249.276923,117.323077 C249.40179,117.37302 249.521571,117.434842 249.634615,117.507692 C249.747374,117.5898 249.855249,117.678411 249.957692,117.773077 L251.596154,119.423077 L253.246154,121.061538 C253.344209,121.160979 253.433035,121.269115 253.511538,121.384615 C253.58376,121.503937 253.649247,121.627207 253.707692,121.753846 C253.756689,121.881283 253.795277,122.012482 253.823077,122.146154 C253.840095,122.284092 253.840095,122.4236 253.823077,122.561538 L253.823077,143.953846 C253.822714,144.080183 253.846202,144.205453 253.892308,144.323077 C253.939738,144.436533 254.0105,144.538745 254.1,144.623077 C254.188567,144.712863 254.294594,144.783548 254.411538,144.830769 C254.526637,144.886104 254.653079,144.913763 254.780769,144.911538 L263.792308,144.911538 L263.976923,144.911538 L264.15,144.911538 L264.323077,144.830769 C264.374526,144.794628 264.421068,144.751964 264.461538,144.703846 L266.930769,142.234615 L269.411538,139.765385 C269.508556,139.664674 269.61698,139.575611 269.734615,139.5 C269.847384,139.423466 269.96715,139.357787 270.092308,139.303846 C270.349672,139.201998 270.62326,139.147281 270.9,139.142308 L275.769231,139.142308 L275.942308,139.142308 L276.103846,139.05 L276.253846,138.934615 L278.111538,137.076923 L279.969231,135.219231 C280.064909,135.125058 280.169212,135.04007 280.280769,134.965385 C280.394897,134.884392 280.518999,134.818463 280.65,134.769231 C280.779193,134.711286 280.914733,134.668687 281.053846,134.642308 C281.192052,134.630418 281.331024,134.630418 281.469231,134.642308 L289.719231,134.642308 C289.857458,134.630908 289.996388,134.630908 290.134615,134.642308 C290.268678,134.668528 290.400012,134.707156 290.526923,134.757692 C290.654767,134.813679 290.778196,134.879251 290.896154,134.953846 C291.008912,135.035953 291.116788,135.124565 291.219231,135.219231 L293.85,137.85 L296.469231,140.469231 C296.567286,140.568671 296.656112,140.676807 296.734615,140.792308 C296.811038,140.909196 296.876692,141.03278 296.930769,141.161538 C297.032617,141.418903 297.087335,141.692491 297.092308,141.969231 L297.092308,145.95 C297.091116,146.227135 297.03626,146.501417 296.930769,146.757692 C296.82014,147.01452 296.663752,147.249101 296.469231,147.45 C296.274494,147.643783 296.043054,147.796769 295.788462,147.9 C295.528508,148.006676 295.250221,148.061549 294.969231,148.061538 L270.103846,148.061538 C269.977509,148.061175 269.852239,148.084663 269.734615,148.130769 C269.61934,148.186081 269.514059,148.260167 269.423077,148.35 C269.331233,148.432289 269.260078,148.535068 269.215385,148.65 C269.169279,148.767624 269.145791,148.892894 269.146154,149.019231 L269.146154,151.153846 C269.140417,151.215251 269.140417,151.277057 269.146154,151.338462 C269.141223,151.399901 269.141223,151.461637 269.146154,151.523077 C269.172525,151.57932 269.203394,151.633342 269.238462,151.684615 C269.270504,151.735761 269.309317,151.782337 269.353846,151.823077 L282.207692,164.676923 L295.05,177.530769 L295.2,177.646154 L295.361538,177.738462 L295.546154,177.738462 L295.730769,177.738462 L297.380769,177.738462 L297.565385,177.738462 L297.738462,177.738462 L297.911538,177.646154 L298.05,177.530769 L307.280769,168.3 L316.511538,159.069231 C316.60732,158.971718 316.711576,158.882907 316.823077,158.803846 C316.940107,158.730891 317.063726,158.669081 317.192308,158.619231 C317.317552,158.561442 317.449256,158.518832 317.584615,158.492308 L318,158.492308 L330.969231,158.492308 C331.250736,158.486733 331.530143,158.541828 331.788462,158.653846 C332.045956,158.756906 332.278168,158.914338 332.469231,159.115385 C332.666681,159.309471 332.823569,159.540881 332.930769,159.796154 C333.03626,160.052429 333.091116,160.326711 333.092308,160.603846 L333.092308,168.046154 C333.086946,168.107576 333.086946,168.169348 333.092308,168.230769 C333.092308,168.288462 333.092308,168.346154 333.15,168.403846 C333.176217,168.463854 333.20708,168.521722 333.242308,168.576923 L333.357692,168.715385 L336.680769,172.038462 L339.992308,175.35 L340.142308,175.465385 L340.303846,175.557692 L340.476923,175.615385 L342.692308,175.615385 C342.969562,175.615385 343.244073,175.670287 343.5,175.776923 C344.022967,175.992473 344.438296,176.407803 344.653846,176.930769 C344.760483,177.186697 344.815385,177.461207 344.815385,177.738462 L344.815385,196.338462 C344.815021,196.464798 344.83851,196.590068 344.884615,196.707692 C344.981829,196.942883 345.168656,197.129709 345.403846,197.226923 C345.521146,197.27415 345.646636,197.297679 345.773077,197.296154 L350.469231,197.296154 C350.60712,197.296294 350.739541,197.350091 350.838462,197.446154 C350.933531,197.538725 350.994524,197.660709 351.011538,197.792308 C352.714045,191.343564 353.997495,184.791414 354.853846,178.176923 C355.734443,171.428005 356.177676,164.629202 356.180793,157.823077 C356.202032,119.639708 342.20509,82.7771257 316.846154,54.2307692 L308.665385,62.3076923 L300.484615,70.4884615 C300.382172,70.583127 300.274297,70.6717389 300.161538,70.7538462 L299.792308,70.9961538 Z" id="Path" fill="#023852"></path>
            <path d="M188.907692,50.55 L173.619231,50.55 C173.421772,50.5479334 173.22487,50.5286293 173.030769,50.4923077 C172.84017,50.4558766 172.654352,50.3978084 172.476923,50.3192308 C172.292738,50.249459 172.118243,50.1563949 171.957692,50.0423077 C171.794983,49.9355913 171.644129,49.8118133 171.507692,49.6730769 L168.138462,46.3038462 L164.769231,42.9346154 L164.492308,42.7038462 L164.169231,42.5423077 C164.061787,42.4956632 163.949589,42.460843 163.834615,42.4384615 C163.715655,42.4270979 163.595883,42.4270979 163.476923,42.4384615 L151.476923,42.4384615 C151.28114,42.455507 151.084245,42.455507 150.888462,42.4384615 C150.697862,42.4020304 150.512044,42.3439623 150.334615,42.2653846 C150.15043,42.1956129 149.975935,42.1025487 149.815385,41.9884615 C149.652675,41.8817452 149.501821,41.7579672 149.365385,41.6192308 L148.834615,41.0769231 L148.292308,40.5461538 C148.202894,40.4530914 148.102098,40.3716796 147.992308,40.3038462 C147.887004,40.2348245 147.774874,40.1768265 147.657692,40.1307692 L147.334615,40.0384615 L147,40.0384615 L146.896154,40.0384615 L145.742308,40.0384615 L144.588462,40.1076923 C144.477624,40.0900023 144.364683,40.0900023 144.253846,40.1076923 C144.146805,40.1318619 144.042442,40.1666495 143.942308,40.2115385 C143.842415,40.2584187 143.746014,40.3124034 143.653846,40.3730769 C143.560323,40.4398008 143.47164,40.5130608 143.388462,40.5923077 L137.688462,46.2923077 L131.988462,51.9923077 L131.757692,52.2692308 C131.696986,52.3733543 131.643029,52.4812686 131.596154,52.5923077 C131.549509,52.6997513 131.514689,52.8119495 131.492308,52.9269231 C131.480355,53.0458543 131.480355,53.1656842 131.492308,53.2846154 L131.492308,62.1923077 C131.480355,62.3112389 131.480355,62.4310688 131.492308,62.55 C131.516261,62.6683185 131.551022,62.784189 131.596154,62.8961538 C131.643037,63.0034649 131.697002,63.1075405 131.757692,63.2076923 C131.825338,63.3073516 131.902634,63.4001069 131.988462,63.4846154 L134.169231,65.6653846 L136.35,67.8461538 C136.485493,67.9855211 136.609007,68.1360532 136.719231,68.2961538 C136.825163,68.4616124 136.917763,68.6352372 136.996154,68.8153846 C137.067401,68.9944737 137.121489,69.1799206 137.157692,69.3692308 C137.180401,69.5647274 137.180401,69.7621957 137.157692,69.9576923 L137.157692,81.5653846 C137.145739,81.6843158 137.145739,81.8041457 137.157692,81.9230769 C137.181645,82.0413954 137.216407,82.1572659 137.261538,82.2692308 C137.30521,82.3802692 137.363409,82.485028 137.434615,82.5807692 C137.4987,82.6830604 137.576326,82.7762127 137.665385,82.8576923 L145.742308,90.9346154 L153.819231,99.0115385 C153.877637,99.079302 153.960745,99.1208564 154.05,99.1269231 C154.106619,99.142664 154.166458,99.142664 154.223077,99.1269231 C154.279791,99.1087042 154.331255,99.077034 154.373077,99.0346154 C154.428783,98.9620104 154.457354,98.8722152 154.453846,98.7807692 L154.453846,91.2461538 C154.4553,91.0524815 154.474613,90.8593559 154.511538,90.6692308 C154.557087,90.4772636 154.614898,90.2884147 154.684615,90.1038462 C154.763006,89.9236987 154.855606,89.7500739 154.961538,89.5846154 C155.068255,89.4219062 155.192033,89.2710518 155.330769,89.1346154 L160.073077,84.3923077 L164.919231,79.6153846 C165.055667,79.4766482 165.206522,79.3528702 165.369231,79.2461538 C165.529781,79.1320667 165.704276,79.0390025 165.888462,78.9692308 C166.06469,78.8875059 166.250903,78.8293146 166.442308,78.7961538 C166.638065,78.7785058 166.835012,78.7785058 167.030769,78.7961538 L174.080769,78.7961538 C174.1997,78.8081069 174.31953,78.8081069 174.438462,78.7961538 C174.55678,78.7722007 174.672651,78.7374396 174.784615,78.6923077 L175.096154,78.5307692 C175.195813,78.4631232 175.288568,78.3858271 175.373077,78.3 L182.780769,70.8923077 L190.2,63.4615385 C190.285406,63.3796991 190.359172,63.2865214 190.419231,63.1846154 C190.490437,63.0888741 190.548636,62.9841153 190.592308,62.8730769 C190.63744,62.7611121 190.672201,62.6452415 190.696154,62.5269231 C190.707493,62.4118171 190.707493,62.2958752 190.696154,62.1807692 L190.696154,52.3730769 C190.697087,52.1353387 190.649991,51.8998612 190.557692,51.6807692 C190.379436,51.2263155 190.019838,50.8667176 189.565385,50.6884615 C189.357043,50.6006162 189.133767,50.5536107 188.907692,50.55 Z" id="Path" fill="#023852"></path>
            <path d="M216.588462,104.584615 L222.75,104.584615 L222.934615,104.584615 L223.096154,104.492308 L223.246154,104.376923 L224.873077,102.692308 L226.5,101.065385 L226.615385,100.926923 C226.647045,100.871562 226.67406,100.813671 226.696154,100.753846 C226.725678,100.700111 226.745224,100.641472 226.753846,100.580769 C226.758777,100.51933 226.758777,100.457594 226.753846,100.396154 L226.753846,93.9461538 C226.754209,93.819817 226.730721,93.694547 226.684615,93.5769231 C226.632808,93.4624619 226.562654,93.3572306 226.476923,93.2653846 C226.388356,93.1755984 226.282329,93.1049137 226.165385,93.0576923 C226.047761,93.0115865 225.922491,92.9880984 225.796154,92.9884574 L221.330769,92.9884574 L221.146154,93.0461538 L220.984615,93.1384615 L220.834615,93.2538462 L218.388462,95.7692308 L215.919231,98.2384615 C215.870892,98.2830289 215.828259,98.3334125 215.792308,98.3884615 C215.758559,98.4386157 215.731413,98.4929087 215.711538,98.55 C215.706607,98.6114397 215.706607,98.6731757 215.711538,98.7346154 C215.705932,98.7960262 215.705932,98.85782 215.711538,98.9192308 L215.711538,103.661538 C215.715116,103.788586 215.742513,103.913832 215.792308,104.030769 C215.889522,104.26596 216.076348,104.452786 216.311538,104.55 C216.401594,104.575333 216.494942,104.587001 216.588462,104.584615 Z" id="Path" fill="#023852"></path>
            <path d="M301.038462,185.7 L294.380769,185.7 C294.175637,185.698513 293.971022,185.679209 293.769231,185.642308 C293.564251,185.598301 293.363493,185.536529 293.169231,185.457692 C292.980271,185.377799 292.798787,185.281265 292.626923,185.169231 C292.454254,185.057654 292.295449,184.925962 292.153846,184.776923 L276.530769,169.153846 L260.919231,153.542308 C260.824572,153.451575 260.72438,153.366797 260.619231,153.288462 L260.261538,153.103846 C260.142564,153.053313 260.018886,153.014663 259.892308,152.988462 C259.758246,152.971195 259.622523,152.971195 259.488462,152.988462 L229.142308,153.276923 L198.784615,153.576923 C198.669509,153.565584 198.553568,153.565584 198.438462,153.576923 L198.103846,153.669231 L197.780769,153.819231 L197.503846,154.026923 L194.919231,156.253846 L192.346154,158.480769 C192.234713,158.572956 192.134071,158.677468 192.046154,158.792308 C191.965749,158.908756 191.896225,159.032354 191.838462,159.161538 C191.770238,159.287547 191.723445,159.424024 191.7,159.565385 C191.682954,159.707182 191.682954,159.85051 191.7,159.992308 L191.7,177.461538 C191.697176,177.722992 191.748237,177.982224 191.85,178.223077 C191.945333,178.466062 192.090801,178.686231 192.276923,178.869231 C192.466152,179.053146 192.689595,179.198188 192.934615,179.296154 C193.174418,179.402521 193.43382,179.457546 193.696154,179.457692 L194.388462,179.457692 C195.225595,179.448793 196.030035,179.78224 196.615385,180.380769 C196.910367,180.668275 197.142216,181.014084 197.296154,181.396154 C197.458213,181.7794 197.540653,182.191596 197.538462,182.607692 L197.538462,189.726923 C197.526549,189.857421 197.526549,189.988733 197.538462,190.119231 C197.57001,190.244362 197.608532,190.367632 197.653846,190.488462 C197.705973,190.608624 197.767712,190.724385 197.838462,190.834615 C197.913826,190.94209 197.99879,191.042502 198.092308,191.134615 L204.103846,197.146154 L210.115385,203.157692 C210.207041,203.251702 210.307501,203.336707 210.415385,203.411538 C210.525615,203.482288 210.641376,203.544027 210.761538,203.596154 L211.130769,203.711538 C211.261267,203.723451 211.392579,203.723451 211.523077,203.711538 L242.169231,203.711538 C243.003568,203.716768 243.802785,204.048049 244.396154,204.634615 C244.994683,205.219965 245.32813,206.024405 245.319231,206.861538 L245.319231,245.503846 C245.301647,245.634024 245.301647,245.765976 245.319231,245.896154 C245.341555,246.022361 245.37634,246.146043 245.423077,246.265385 C245.475204,246.385548 245.536943,246.501308 245.607692,246.611538 C245.683057,246.719013 245.768021,246.819425 245.861538,246.911538 L252.715385,253.776923 L259.569231,260.630769 C259.662705,260.724056 259.767343,260.805442 259.880769,260.873077 C259.983074,260.950041 260.095721,261.012191 260.215385,261.057692 C260.337027,261.111809 260.464934,261.150568 260.596154,261.173077 C260.726652,261.18499 260.857964,261.18499 260.988462,261.173077 L272.307692,261.173077 C272.569146,261.175901 272.828378,261.12484 273.069231,261.023077 C273.30922,260.922059 273.52833,260.77729 273.715385,260.596154 C273.901506,260.413154 274.046975,260.192986 274.142308,259.95 C274.244071,259.709147 274.295132,259.449915 274.292308,259.188462 L274.292308,247.915385 C274.30148,247.500462 274.383497,247.090379 274.534615,246.703846 C274.693562,246.321038 274.924687,245.972391 275.215385,245.676923 L281.307692,239.596154 L287.4,233.503846 C287.490371,233.411998 287.571528,233.311518 287.642308,233.203846 C287.717393,233.096214 287.779369,232.980008 287.826923,232.857692 C287.882616,232.740677 287.921463,232.616367 287.942308,232.488462 C287.953443,232.357929 287.953443,232.226686 287.942308,232.096154 L287.942308,204.403846 C287.946264,204.007023 288.028611,203.614894 288.184615,203.25 C288.346952,202.869008 288.57768,202.52096 288.865385,202.223077 C289.159844,201.928243 289.508557,201.693155 289.892308,201.530769 C290.277908,201.377858 290.689034,201.299548 291.103846,201.3 L293.919231,201.3 C294.049493,201.31629 294.181277,201.31629 294.311538,201.3 C294.437386,201.276124 294.560926,201.241379 294.680769,201.196154 C294.800932,201.144027 294.916692,201.082288 295.026923,201.011538 C295.15152,200.93899 295.271028,200.858033 295.384615,200.769231 L298.938462,197.215385 L302.492308,193.673077 C302.585595,193.579603 302.66698,193.474964 302.734615,193.361538 C302.807288,193.256516 302.869142,193.144406 302.919231,193.026923 C302.968215,192.90343 303.006811,192.776065 303.034615,192.646154 C303.046528,192.515656 303.046528,192.384344 303.034615,192.253846 L303.034615,187.753846 C303.03845,187.492301 302.987348,187.232863 302.884615,186.992308 C302.693629,186.493069 302.299238,186.098678 301.8,185.907692 C301.563832,185.785042 301.304198,185.714232 301.038462,185.7 Z" id="Path" fill="#023852"></path>
            <path d="M190.730769,62.1346154 C190.742109,62.2497214 190.742109,62.3656632 190.730769,62.4807692 C190.706816,62.5990877 190.672055,62.7149582 190.626923,62.8269231 C190.583252,62.9379615 190.525052,63.0427203 190.453846,63.1384615 C190.393787,63.2403675 190.320022,63.3335452 190.234615,63.4153846 L182.815385,70.8346154 L175.384615,78.2423077 C175.300107,78.3281348 175.207352,78.4054308 175.107692,78.4730769 L174.796154,78.6346154 C174.684189,78.6797472 174.568318,78.7145084 174.45,78.7384615 C174.331069,78.7504146 174.211239,78.7504146 174.092308,78.7384615 L167.042308,78.7384615 C166.846551,78.7208135 166.649603,78.7208135 166.453846,78.7384615 C166.262441,78.7716223 166.076229,78.8298136 165.9,78.9115385 C165.715815,78.9813102 165.54132,79.0743743 165.380769,79.1884615 C165.21806,79.2951779 165.067206,79.4189559 164.930769,79.5576923 L160.176923,84.3 L155.434615,89.0423077 C155.295879,89.1787441 155.172101,89.3295985 155.065385,89.4923077 C154.959452,89.6577662 154.866852,89.831391 154.788462,90.0115385 C154.718744,90.196107 154.660933,90.3849559 154.615385,90.5769231 C154.578459,90.7670482 154.559146,90.9601738 154.557692,91.1538462 L154.557692,98.5730769 C154.561201,98.6645229 154.532629,98.7543181 154.476923,98.8269231 C154.435101,98.8693417 154.383637,98.9010119 154.326923,98.9192308 C154.270304,98.9349717 154.210465,98.9349717 154.153846,98.9192308 C154.064592,98.9131641 153.981483,98.8716097 153.923077,98.8038462 L145.846154,90.7269231 L137.769231,82.65 C137.680173,82.5685204 137.602546,82.4753681 137.538462,82.3730769 C137.467255,82.2773356 137.409056,82.1725769 137.365385,82.0615385 C137.344406,82.0161326 137.325161,81.9699453 137.307692,81.9230769 C137.295739,81.8041457 137.295739,81.6843158 137.307692,81.5653846 L137.307692,69.9576923 C137.330401,69.7621957 137.330401,69.5647274 137.307692,69.3692308 C137.271489,69.1799206 137.217401,68.9944737 137.146154,68.8153846 C137.067763,68.6352372 136.975163,68.4616124 136.869231,68.2961538 C136.759007,68.1360532 136.635493,67.9855211 136.5,67.8461538 L134.319231,65.6653846 L132.069231,63.4615385 C131.983404,63.37703 131.906108,63.2842747 131.838462,63.1846154 C131.777771,63.0844636 131.723806,62.980388 131.676923,62.8730769 C131.631791,62.7611121 131.59703,62.6452415 131.573077,62.5269231 C131.561124,62.4079919 131.561124,62.288162 131.573077,62.1692308 L131.573077,53.2730769 C131.561124,53.1541457 131.561124,53.0343158 131.573077,52.9153846 C131.595458,52.8004111 131.630279,52.6882129 131.676923,52.5807692 C131.723798,52.4697302 131.777755,52.3618158 131.838462,52.2576923 L132.069231,51.9807692 L137.769231,46.2807692 L143.469231,40.5807692 C143.552409,40.5015223 143.641092,40.4282623 143.734615,40.3615385 C143.826783,40.3008649 143.923185,40.2468803 144.023077,40.2 C144.123211,40.1551111 144.227574,40.1203234 144.334615,40.0961538 C144.445452,40.0784639 144.558394,40.0784639 144.669231,40.0961538 L145.823077,40.0269231 L146.976923,40.0269231 L147.080769,40.0269231 L147.415385,40.0269231 L147.738462,40.1192308 C147.855644,40.165288 147.967773,40.223286 148.073077,40.2923077 C148.182868,40.3601411 148.283663,40.441553 148.373077,40.5346154 L148.915385,41.0653846 L149.446154,41.6076923 C149.58259,41.7464287 149.733445,41.8702067 149.896154,41.9769231 C150.056704,42.0910103 150.231199,42.1840744 150.415385,42.2538462 C150.592813,42.3324238 150.778631,42.390492 150.969231,42.4269231 C151.165014,42.4439685 151.361909,42.4439685 151.557692,42.4269231 L163.557692,42.4269231 C163.676652,42.4155594 163.796425,42.4155594 163.915385,42.4269231 C164.030358,42.4493046 164.142556,42.4841247 164.25,42.5307692 L164.573077,42.6923077 L164.85,42.9230769 L168.219231,46.2923077 L171.588462,49.6615385 C171.724898,49.8002749 171.875752,49.9240529 172.038462,50.0307692 C172.199012,50.1448564 172.373507,50.2379206 172.557692,50.3076923 C172.735121,50.38627 172.920939,50.4443381 173.111538,50.4807692 C173.305639,50.5170908 173.502541,50.5363949 173.7,50.5384615 L188.988462,50.5384615 C189.2262,50.5375289 189.461677,50.5846243 189.680769,50.6769231 C190.135223,50.8551791 190.494821,51.2147771 190.673077,51.6692308 C190.765376,51.8883227 190.812471,52.1238002 190.811552,52.3615385 L190.811552,62.1230769 L190.730769,62.1346154 Z" id="Path" fill="#023852"></path>
            <path d="M303.034615,192.196154 C303.046528,192.326652 303.046528,192.457964 303.034615,192.588462 C303.006811,192.718373 302.968215,192.845738 302.919231,192.969231 C302.869142,193.086713 302.807288,193.198823 302.734615,193.303846 C302.66698,193.417272 302.585595,193.52191 302.492308,193.615385 L298.938462,197.157692 L295.384615,200.769231 C295.289956,200.859963 295.189764,200.944741 295.084615,201.023077 C294.974385,201.093827 294.858624,201.155566 294.738462,201.207692 C294.618618,201.252917 294.495078,201.287663 294.369231,201.311538 C294.238969,201.327828 294.107185,201.327828 293.976923,201.311538 L291.161538,201.311538 C290.746726,201.311086 290.3356,201.389396 289.95,201.542308 C289.56625,201.704693 289.217536,201.939781 288.923077,202.234615 C288.635372,202.532499 288.404645,202.880546 288.242308,203.261538 C288.086304,203.626432 288.003957,204.018561 288,204.415385 L288,232.107692 C288.011136,232.238224 288.011136,232.369468 288,232.5 C287.979155,232.627905 287.940308,232.752216 287.884615,232.869231 C287.837062,232.991547 287.775085,233.107752 287.7,233.215385 C287.62922,233.323057 287.548064,233.423537 287.457692,233.515385 L281.365385,239.607692 L275.203846,245.769231 C274.913149,246.064699 274.682024,246.413345 274.523077,246.796154 C274.371958,247.182687 274.289942,247.59277 274.280769,248.007692 L274.280769,259.280769 C274.283593,259.542222 274.232532,259.801455 274.130769,260.042308 C274.035436,260.285293 273.889968,260.505461 273.703846,260.688462 C273.516792,260.869598 273.297682,261.014367 273.057692,261.115385 C272.81684,261.217148 272.557607,261.268209 272.296154,261.265385 L261.023077,261.265385 C260.892579,261.277297 260.761267,261.277297 260.630769,261.265385 C260.499549,261.242876 260.371642,261.204116 260.25,261.15 C260.130337,261.104499 260.017689,261.042349 259.915385,260.965385 C259.801959,260.897749 259.69732,260.816364 259.603846,260.723077 L252.75,253.846154 L245.896154,246.923077 C245.802636,246.830963 245.717672,246.730551 245.642308,246.623077 C245.571558,246.512846 245.509819,246.397086 245.457692,246.276923 C245.410956,246.157582 245.37617,246.0339 245.353846,245.907692 C245.336262,245.777514 245.336262,245.645563 245.353846,245.515385 L245.353846,206.907692 C245.362745,206.070559 245.029299,205.266119 244.430769,204.680769 C243.8374,204.094203 243.038184,203.762922 242.203846,203.757692 L211.511538,203.757692 C211.381041,203.769605 211.249729,203.769605 211.119231,203.757692 L210.75,203.642308 C210.629837,203.590181 210.514077,203.528442 210.403846,203.457692 C210.295962,203.38286 210.195502,203.297856 210.103846,203.203846 L204.092308,197.192308 L198.080769,191.180769 C197.987251,191.088656 197.902287,190.988244 197.826923,190.880769 C197.756173,190.770539 197.694434,190.654778 197.642308,190.534615 C197.596994,190.413785 197.558472,190.290516 197.526923,190.165385 C197.51501,190.034887 197.51501,189.903575 197.526923,189.773077 L197.526923,182.653846 C197.529114,182.23775 197.446675,181.825554 197.284615,181.442308 C197.130678,181.060238 196.898829,180.714429 196.603846,180.426923 C196.018496,179.828394 195.214057,179.494947 194.376923,179.503846 L193.684615,179.503846 C193.422281,179.5037 193.162879,179.448675 192.923077,179.342308 C192.678056,179.244342 192.454614,179.0993 192.265385,178.915385 C192.079263,178.732385 191.933794,178.512216 191.838462,178.269231 C191.736698,178.028378 191.685637,177.769146 191.688462,177.507692 L191.688462,160.003846 C191.671416,159.862049 191.671416,159.71872 191.688462,159.576923 C191.711907,159.435562 191.758699,159.299085 191.826923,159.173077 C191.884687,159.043892 191.95421,158.920295 192.034615,158.803846 C192.122533,158.689007 192.223174,158.584494 192.334615,158.492308 L194.907692,156.265385 L197.492308,154.038462 L197.769231,153.830769 L198.092308,153.680769 L198.426923,153.588462 C198.542029,153.577122 198.657971,153.577122 198.773077,153.588462 L229.130769,153.288462 L259.476923,153 C259.610985,152.982734 259.746707,152.982734 259.880769,153 C260.007347,153.026202 260.131026,153.064851 260.25,153.115385 L260.607692,153.3 C260.712841,153.378336 260.813033,153.463114 260.907692,153.553846 L276.519231,169.165385 L292.142308,184.788462 C292.283911,184.9375 292.442716,185.069192 292.615385,185.180769 C292.787249,185.292804 292.968732,185.389337 293.157692,185.469231 C293.351955,185.548068 293.552713,185.609839 293.757692,185.653846 C293.959483,185.690748 294.164099,185.710051 294.369231,185.711538 L301.026923,185.711538 C301.288468,185.707704 301.547907,185.758806 301.788462,185.861538 C302.2877,186.052524 302.682091,186.446915 302.873077,186.946154 C302.97581,187.186709 303.026911,187.446147 303.023077,187.707692 L303.023077,192.207692 L303.034615,192.196154 Z" id="Shape" fill="#023852"></path>
            <path d="M350.85,198.3 C350.908839,198.24693 350.952623,198.179265 350.976923,198.103846 C351.013637,198.036525 351.033437,197.961288 351.034615,197.884615 C351.034618,197.853849 351.034618,197.823083 351.034618,197.792317 L350.965387,198.046163 L350.85,198.3 Z" id="Path" fill="#023852"></path>
            <path d="M199.326923,137.976923 C199.31501,137.846425 199.31501,137.715113 199.326923,137.584615 C199.358472,137.459484 199.396994,137.336215 199.442308,137.215385 C199.494434,137.095222 199.556173,136.979461 199.626923,136.869231 C199.698826,136.759133 199.784091,136.658365 199.880769,136.569231 L201.669231,134.769231 L203.469231,132.969231 C203.615614,132.825167 203.747052,132.666668 203.861538,132.496154 C203.977754,132.326792 204.074518,132.144875 204.15,131.953846 C204.234082,131.76149 204.296018,131.560197 204.334615,131.353846 C204.352244,131.150381 204.352244,130.945773 204.334615,130.742308 L204.334615,119.203846 C204.335833,118.656923 204.445649,118.115686 204.657692,117.611538 C204.864121,117.105735 205.170193,116.646628 205.557692,116.261538 C205.94342,115.866567 206.407086,115.556146 206.919231,115.35 C207.424097,115.141616 207.965364,115.035716 208.511538,115.038462 L229.419231,115.038462 C229.549763,115.027326 229.681006,115.027326 229.811538,115.038462 C229.939444,115.059306 230.063754,115.098153 230.180769,115.153846 C230.305177,115.196722 230.42201,115.259033 230.526923,115.338462 C230.634595,115.409241 230.735075,115.490398 230.826923,115.580769 L231.911538,116.665385 L232.996154,117.75 C233.086525,117.841848 233.167682,117.942328 233.238462,118.05 C233.31789,118.154914 233.380201,118.271746 233.423077,118.396154 C233.47877,118.513169 233.517617,118.637479 233.538462,118.765385 C233.549597,118.895917 233.549597,119.02716 233.538462,119.157692 L233.538462,129.265385 C233.550374,129.395883 233.550374,129.527194 233.538462,129.657692 C233.517617,129.785598 233.47877,129.909908 233.423077,130.026923 C233.380201,130.151331 233.31789,130.268163 233.238462,130.373077 C233.170628,130.482868 233.089216,130.583663 232.996154,130.673077 L226.707692,136.961538 L220.419231,143.25 C220.329817,143.343062 220.229022,143.424474 220.119231,143.492308 C220.014317,143.571736 219.897485,143.634047 219.773077,143.676923 C219.656062,143.732616 219.531751,143.771463 219.403846,143.792308 C219.273348,143.80422 219.142036,143.80422 219.011538,143.792308 L210,143.792308 C209.794209,143.792495 209.589086,143.815716 209.388462,143.861538 C209.186254,143.89619 208.98877,143.954274 208.8,144.034615 C208.61104,144.114509 208.429556,144.211043 208.257692,144.323077 C208.083322,144.441502 207.921005,144.576767 207.773077,144.726923 L206.619231,145.880769 L205.465385,147.034615 C205.369118,147.128129 205.264876,147.213066 205.153846,147.288462 C205.048542,147.357483 204.936413,147.415481 204.819231,147.461538 C204.697589,147.515655 204.569682,147.554415 204.438462,147.576923 C204.308283,147.594507 204.176332,147.594507 204.046154,147.576923 L201.265385,147.576923 C200.735706,147.5801 200.227524,147.367663 199.857692,146.988462 C199.668205,146.805903 199.518872,146.585834 199.419231,146.342308 C199.323112,146.099761 199.272272,145.841649 199.269231,145.580769 L199.269231,137.896154 L199.326923,137.976923 Z" id="Path" fill="#023852"></path>
            <path d="M215.630769,98.8846154 C215.625163,98.8232046 215.625163,98.7614108 215.630769,98.7 C215.625838,98.6385603 215.625838,98.5768243 215.630769,98.5153846 C215.650644,98.4582934 215.67779,98.4040003 215.711538,98.3538462 C215.74749,98.2987971 215.790122,98.2484135 215.838462,98.2038462 L218.388462,95.7692308 L220.857692,93.3 L221.007692,93.1846154 L221.169231,93.0923077 L221.353846,93.0346112 L225.819231,93.0346112 C225.945568,93.0342522 226.070838,93.0577404 226.188462,93.1038462 C226.305406,93.1510676 226.411433,93.2217522 226.5,93.3115385 C226.58573,93.4033844 226.655885,93.5086158 226.707692,93.6230769 C226.753798,93.7407008 226.777286,93.8659709 226.776923,93.9923077 L226.776923,100.384615 C226.781854,100.446055 226.781854,100.507791 226.776923,100.569231 C226.768301,100.629933 226.748755,100.688572 226.719231,100.742308 C226.697137,100.802133 226.670121,100.860024 226.638462,100.915385 L226.523077,101.053846 L224.873077,102.692308 L223.246154,104.319231 L223.096154,104.434615 L222.934615,104.526935 L222.75,104.526935 L216.588462,104.526935 C216.465844,104.527534 216.344304,104.50401 216.230769,104.457692 C215.995579,104.360478 215.808752,104.173652 215.711538,103.938462 C215.661744,103.821524 215.634346,103.696278 215.630769,103.569231 L215.630769,98.8846154 L215.630769,98.8846154 Z" id="Path" fill="#023852"></path>
            <path d="M308.165385,45.1538462 C303.28288,40.2727014 298.078925,35.7240598 292.588462,31.5384615 C287.078547,27.3168627 281.296828,23.462383 275.280769,20 C320.009708,79.1929762 316.903828,161.688738 267.850711,217.350917 C218.797594,273.013096 137.346957,286.466384 73,249.534615 C75.1923077,252.442308 77.5,255.269231 79.9230769,258.015385 C82.3461538,260.761538 84.8230769,263.423077 87.3538462,266 C126.568546,306.593149 184.634536,322.869044 239.234885,308.572252 C293.835234,294.275459 336.47321,251.630799 350.761443,197.02821 C365.049677,142.425621 348.76468,84.3621822 308.165385,45.1538462 L308.165385,45.1538462 Z" id="Path" fill="#C4E7F6" style="mix-blend-mode: multiply;"></path>
            <path d="M70.1769319,86.9307692 C70.1667335,85.5622638 69.1926862,84.3908984 67.8489972,84.1312626 C66.5053083,83.8716267 65.1649939,84.5957968 64.6457107,85.8619942 C64.1264275,87.1281915 64.5723317,88.584912 65.7114002,89.3434856 C66.8504686,90.1020592 68.3664889,89.9519012 69.3346154,88.9846154 C69.8759522,88.4383336 70.1788186,87.6998373 70.1769319,86.9307692 L70.1769319,86.9307692 Z" id="Path" fill="#FFE700"></path>
            <path d="M81.0576923,150 C81.0576923,148.400498 79.7610401,147.103846 78.1615385,147.103846 C76.668095,147.237557 75.5236503,148.489044 75.5236503,149.988462 C75.5236503,151.487879 76.668095,152.739366 78.1615385,152.873077 C79.7520711,152.873077 81.0450187,151.590482 81.0576923,150 Z" id="Path" fill="#FFE700"></path>
            <path d="M213.634637,122.007692 C213.639946,120.625716 212.668108,119.432513 211.313649,119.158055 C209.959189,118.883597 208.59952,119.604361 208.066452,120.879401 C207.533385,122.154441 207.975455,123.628475 209.122216,124.399725 C210.268977,125.170975 211.80089,125.024538 212.780769,124.05 C213.326742,123.510601 213.634206,122.77518 213.634637,122.007692 Z" id="Path" fill="#FFE700"></path>
            <path d="M255.323077,111.496154 C255.189366,110.00271 253.937879,108.858266 252.438462,108.858266 C250.939044,108.858266 249.687557,110.00271 249.553846,111.496154 C249.456062,112.588327 249.983487,113.642067 250.916383,114.218356 C251.849279,114.794646 253.027644,114.794646 253.96054,114.218356 C254.893436,113.642067 255.420862,112.588327 255.323077,111.496154 Z" id="Path" fill="#FFE700"></path>
            <path d="M139.430769,202.823077 C139.430583,201.44064 138.453368,200.251071 137.097271,199.982495 C135.741174,199.71392 134.384321,200.441227 133.857232,201.719237 C133.330144,202.997246 133.779789,204.469606 134.930944,205.235095 C136.082099,206.000584 137.613782,205.845758 138.588462,204.865385 C139.125929,204.321242 139.42838,203.587902 139.430769,202.823077 L139.430769,202.823077 Z" id="Path" fill="#FFE700"></path>
            <path d="M161.180769,58.9961538 C161.153781,57.6250409 160.161534,56.4641454 158.811344,56.2240078 C157.461154,55.9838701 156.129476,56.7314446 155.63138,58.009169 C155.133284,59.2868933 155.607647,60.7385177 156.76413,61.4755575 C157.920612,62.2125972 159.436768,62.0295539 160.384615,61.0384615 C160.905218,60.4869575 161.190753,59.7544965 161.180769,58.9961538 L161.180769,58.9961538 Z" id="Path" fill="#FFE700"></path>
            <path d="M243.069235,106.061538 C243.070598,105.295968 242.76758,104.561254 242.226923,104.019231 C241.685289,103.473137 240.947993,103.165966 240.178846,103.165966 C239.409699,103.165966 238.672404,103.473137 238.130769,104.019231 C237.305695,104.84881 237.060824,106.093351 237.510115,107.173669 C237.959406,108.253987 239.014594,108.957849 240.184615,108.957704 C240.952623,108.959881 241.689008,108.652014 242.226923,108.103846 C242.76758,107.561823 243.070598,106.827109 243.069235,106.061538 L243.069235,106.061538 Z" id="Path" fill="#FFE700"></path>
            <path d="M134.30774,112.996154 C134.297503,111.627648 133.323455,110.456283 131.979766,110.196647 C130.636078,109.937011 129.295763,110.661181 128.77648,111.927379 C128.257197,113.193576 128.703101,114.650297 129.842169,115.40887 C130.981238,116.167444 132.497258,116.017286 133.465385,115.05 C134.008882,114.505152 134.312133,113.765718 134.30774,112.996154 Z" id="Path" fill="#FFE700"></path>
            <path d="M250.2,84.3115385 C250.2,82.7120369 248.903348,81.4153846 247.303846,81.4153846 C245.810403,81.5490958 244.665958,82.8005828 244.665958,84.3 C244.665958,85.7994172 245.810403,87.0509042 247.303846,87.1846154 C248.071954,87.1846154 248.808602,86.8794858 249.351736,86.3363516 C249.89487,85.7932174 250.2,85.0565693 250.2,84.2884615 L250.2,84.3115385 Z" id="Path" fill="#FFE700"></path>
            <path d="M154.892308,99.9923077 C154.486401,99.987136 154.09804,99.8260076 153.807692,99.5423077 L137.826923,83.5615385 C137.5523,83.2821358 137.333055,82.9532684 137.180769,82.5923077 C137.029967,82.2266088 136.955368,81.8339853 136.961538,81.4384615 L136.961538,69.9 C136.962471,69.6622617 136.915376,69.4267843 136.823077,69.2076923 C136.727945,68.9899864 136.595139,68.7907776 136.430769,68.6192308 L132.092308,64.2923077 C131.817402,64.0154709 131.60151,63.6857453 131.457692,63.3230769 C131.303247,62.9581126 131.224729,62.565523 131.226878,62.1692308 L131.226878,53.3307692 C131.231458,52.5448952 131.541851,51.7916755 132.092308,51.2307692 L143.434615,39.8884615 C143.691062,39.6322178 143.992157,39.4249707 144.323077,39.2769231 C144.655159,39.1304281 145.010749,39.0444612 145.373077,39.0230769 L147.6,38.9076923 C148.016382,38.8766263 148.434415,38.9397256 148.823077,39.0923077 C149.210722,39.2432629 149.563923,39.4708817 149.861538,39.7615385 L150.923077,40.8346154 C151.263444,41.1732999 151.723685,41.3640302 152.203846,41.3653846 L164.134615,41.3653846 C164.530663,41.3656881 164.922762,41.4441078 165.288462,41.5961538 C165.64615,41.7429741 165.971534,41.9585901 166.246154,42.2307692 L172.95,48.9346154 C173.118474,49.1027767 173.318438,49.236086 173.538462,49.3269231 C173.757554,49.4192218 173.993031,49.4663173 174.230769,49.4653846 L189.426923,49.4653846 C191.066537,49.4653723 192.397491,50.7911679 192.403846,52.4307692 L192.403846,62.1346154 C192.397456,62.9223677 192.082646,63.6762544 191.526923,64.2346154 L176.780769,78.9692308 C176.503603,79.2412022 176.179032,79.4601895 175.823077,79.6153846 C175.456663,79.7637709 175.064534,79.8382753 174.669231,79.8346154 L167.653846,79.8346154 C167.416108,79.8336827 167.18063,79.8807782 166.961538,79.9730769 C166.741515,80.063914 166.541551,80.1972233 166.373077,80.3653846 L156.923077,89.8038462 C156.756272,89.9734267 156.623149,90.1731104 156.530769,90.3923077 C156.438471,90.6113997 156.391375,90.8468771 156.392308,91.0846154 L156.392308,98.4576923 C156.393086,99.0786178 156.019615,99.6388241 155.446154,99.8769231 C155.269492,99.9467628 155.082162,99.9857899 154.892308,99.9923077 L154.892308,99.9923077 Z" id="Path" fill="#023852"></path>
            <g id="Group" transform="translate(-0.000034, -0.000005)">
                <path d="M61.8461875,37.0730817 L159.10388,37.0730817 C159.383236,37.0752791 159.661624,37.1062112 159.934649,37.1653894 C160.199954,37.2140229 160.459174,37.2914021 160.707726,37.3961586 C160.950354,37.5002143 161.182226,37.6277441 161.400034,37.7769279 C161.619024,37.9270383 161.823734,38.0969858 162.011572,38.2846202 C162.198822,38.4697098 162.365202,38.6747825 162.507726,38.8961586 C162.659274,39.1125021 162.786942,39.3446253 162.888495,39.5884663 C162.993393,39.8379664 163.074521,40.0968052 163.130803,40.3615432 C163.187368,40.6347796 163.214446,40.9132974 163.211779,41.1923125 L163.211779,107.838466 C163.214446,108.117481 163.187368,108.395999 163.130803,108.669236 C163.074521,108.933974 162.993393,109.192812 162.888495,109.442312 C162.78444,109.68494 162.65691,109.916813 162.507726,110.13462 C162.365202,110.355996 162.198822,110.561069 162.011572,110.746159 C161.823734,110.933793 161.619024,111.103741 161.400034,111.253851 C161.17702,111.394391 160.945842,111.521539 160.707726,111.63462 C160.459174,111.739377 160.199954,111.816756 159.934649,111.865389 C159.661624,111.924568 159.383236,111.9555 159.10388,111.957697 L141.796187,111.957697 L141.796187,129.980774 L139.488495,127.673082 L137.180803,125.365389 L135.000034,123.219236 L132.692341,120.911543 L130.384649,118.603851 L128.134649,116.353851 L125.826957,114.046159 L123.519264,111.738466 L61.8461875,111.738466 C61.5667572,111.737548 61.2882348,111.706601 61.0154183,111.646159 C60.7501133,111.597525 60.4908931,111.520146 60.2423413,111.415389 C60.0042252,111.302308 59.7730475,111.17516 59.5500336,111.03462 C59.0953576,110.727104 58.703704,110.33545 58.3961875,109.880774 C58.2513109,109.660344 58.1239952,109.428861 58.0154183,109.188466 C57.9086251,108.94065 57.8311762,108.681196 57.784649,108.415389 C57.7242067,108.142573 57.6923413,107.86405 57.6923413,107.58462 L57.6923413,41.1923125 C57.6923413,40.9128822 57.7242067,40.6343598 57.784649,40.3615432 C57.8311762,40.0957369 57.9086251,39.8362828 58.0154183,39.5884663 C58.1214712,39.3468183 58.2489008,39.1151281 58.3961875,38.8961586 C58.703704,38.4414826 59.0953576,38.049829 59.5500336,37.7423125 C59.7678411,37.5931287 59.9997134,37.4655989 60.2423413,37.3615432 C60.4908931,37.2567867 60.7501133,37.1794075 61.0154183,37.130774 C61.2894886,37.0819478 61.567999,37.0626068 61.8461875,37.0730817 Z" id="Path" fill="#003A5D" opacity="0.5" style="mix-blend-mode: multiply;"></path>
                <path d="M352.373111,291.346159 L255.115418,291.346159 C254.836062,291.343961 254.557674,291.313029 254.284649,291.253851 C254.022776,291.206458 253.767242,291.129023 253.523111,291.023082 C253.275585,290.921627 253.039627,290.793977 252.819264,290.642312 C252.600274,290.492202 252.395564,290.322254 252.207726,290.13462 C252.020476,289.949531 251.854097,289.744458 251.711572,289.523082 C251.560024,289.306738 251.432356,289.074615 251.330803,288.830774 C251.225905,288.581274 251.144777,288.322435 251.088495,288.057697 C251.03193,287.784461 251.004852,287.505943 251.007519,287.226928 L251.007519,220.580774 C251.004852,220.301759 251.03193,220.023241 251.088495,219.750005 C251.144777,219.485267 251.225905,219.226428 251.330803,218.976928 C251.434859,218.7343 251.562388,218.502428 251.711572,218.28462 C251.854097,218.063244 252.020476,217.858171 252.207726,217.673082 C252.395564,217.485447 252.600274,217.3155 252.819264,217.165389 C253.04256,217.021845 253.278089,216.898289 253.523111,216.796159 C253.764702,216.680997 254.02093,216.59947 254.284649,216.553851 C254.558051,216.498387 254.836452,216.47132 255.115418,216.473082 L272.423111,216.473082 L272.423111,198.461543 L274.730803,200.769236 L276.980803,203.076928 L279.230803,205.38462 L281.538495,207.63462 L283.788495,209.942312 L286.096187,212.192312 L288.40388,214.500005 L290.65388,216.807697 L352.546187,216.807697 C352.825203,216.804823 353.10372,216.831902 353.376957,216.888466 C353.644387,216.934047 353.904431,217.015553 354.150034,217.130774 C354.390188,217.235382 354.621681,217.358845 354.842341,217.500005 C355.297017,217.807521 355.688671,218.199175 355.996187,218.653851 C356.145371,218.871658 356.272901,219.103531 356.376957,219.346159 C356.48375,219.593975 356.561199,219.853429 356.607726,220.119236 C356.668168,220.392052 356.700034,220.670574 356.700034,220.950005 L356.700034,287.596159 C356.700034,287.875589 356.668168,288.154111 356.607726,288.426928 C356.561199,288.692734 356.48375,288.952188 356.376957,289.200005 C356.275404,289.443846 356.147736,289.675969 355.996187,289.892312 C355.688671,290.346989 355.297017,290.738642 354.842341,291.046159 C354.624534,291.195342 354.392662,291.322872 354.150034,291.426928 C353.902217,291.533721 353.642763,291.61117 353.376957,291.657697 C353.029817,291.599624 352.692135,291.494826 352.373111,291.346159 Z" id="Path" fill="#003A5D" opacity="0.5" style="mix-blend-mode: multiply;"></path>
                <path d="M78.9808029,1.56319402e-13 L3.20772595,1.56319402e-13 C2.99046992,1.56319402e-13 2.77381452,0.0228298671 2.5615721,0.0692355534 C2.3548139,0.106166874 2.15332812,0.1681625 1.9615721,0.253850938 C1.767858,0.331422949 1.58233121,0.428051487 1.40772595,0.542312476 C1.24216816,0.663295574 1.08417977,0.794310338 0.934649026,0.934620169 C0.794339195,1.08415091 0.663324431,1.2421393 0.542341333,1.40769709 C0.428080344,1.58230235 0.331451806,1.76782914 0.253879795,1.96154325 C0.168191357,2.15329926 0.106195731,2.35478504 0.0692644102,2.56154325 C0.0222112312,2.77368001 -0.00100953291,2.99040714 7.04147851e-12,3.20769709 L7.04147851e-12,55.130774 C7.04147851e-12,55.34803 0.0228587239,55.5646854 0.0692644102,55.7769279 C0.106195731,55.9836861 0.168191357,56.1851718 0.253879795,56.3769279 C0.329090997,56.5680817 0.425870979,56.7500281 0.542341333,56.9192356 C0.660314743,57.090726 0.791481586,57.2527556 0.934649026,57.4038509 C1.08428475,57.5404707 1.24228281,57.6676399 1.40772595,57.7846202 C1.5820133,57.902612 1.76752932,58.0030999 1.9615721,58.0846202 C2.15332812,58.1703086 2.3548139,58.2323042 2.5615721,58.2692356 C2.77381452,58.3156412 2.99046992,58.3388543 3.20772595,58.3384663 L16.7077259,58.3384663 L16.7077259,72.380774 L18.4615721,70.6269279 L20.2154183,68.8730817 L21.9808029,67.1192356 L23.734649,65.3653894 L25.4884952,63.6000048 L27.2423413,61.8461586 L29.0077259,60.0923125 L30.7615721,58.3384663 L78.9808029,58.3384663 C79.1942016,58.3380261 79.4069442,58.3148179 79.6154183,58.2692356 C79.8217694,58.2306384 80.0230624,58.1687021 80.2154183,58.0846202 C80.4069717,58.0054937 80.5889091,57.9048475 80.7577259,57.7846202 C80.9274855,57.6734658 81.085936,57.5459325 81.2308029,57.4038509 C81.3773338,57.2557348 81.5087513,57.0933954 81.6231106,56.9192356 C81.7433379,56.7504187 81.843984,56.5684813 81.9231106,56.3769279 C82.0035755,56.1832488 82.0653936,55.98234 82.1077259,55.7769279 C82.1541316,55.5646854 82.1769904,55.34803 82.1769904,55.130774 L82.1769904,3.20769709 C82.1779999,2.99040714 82.1547791,2.77368001 82.1077259,2.56154325 C82.0653936,2.35613111 82.0035755,2.1552223 81.9231106,1.96154325 C81.8415903,1.76750047 81.7411024,1.58198444 81.6231106,1.40769709 C81.5056727,1.23940908 81.3744518,1.08117219 81.2308029,0.934620169 C81.0898677,0.789380139 80.9353123,0.65800808 80.7692644,0.542312476 C80.6000569,0.425842122 80.4181106,0.32906214 80.2269567,0.253850938 C80.0309146,0.1689285 79.8257034,0.106977971 79.6154183,0.0692355534 C79.4069442,0.0236532497 79.1942016,1.56319402e-13 78.9808029,1.56319402e-13 Z" id="Path" fill="#023852"></path>
                <path d="M373.546187,11.5384663 L285.000034,11.5384663 C284.748398,11.5375776 284.497254,11.5607601 284.250034,11.6076971 C284.009431,11.6599449 283.773903,11.7333059 283.546187,11.8269279 C283.323683,11.9284987 283.107863,12.0441166 282.900034,12.1730817 C282.702531,12.3107692 282.517233,12.4651841 282.346187,12.6346202 C282.181034,12.8063893 282.030511,12.9916482 281.896187,13.1884663 C281.756115,13.3855733 281.639919,13.5986001 281.550034,13.8230817 C281.452833,14.0494916 281.379363,14.2853676 281.330803,14.5269279 C281.280539,14.7738604 281.253498,15.0249554 281.250034,15.2769279 L281.250034,75.9115432 C281.252843,76.1673707 281.279887,76.4223565 281.330803,76.6730817 C281.429047,77.152188 281.621206,77.6070933 281.896187,78.0115432 C282.033424,78.2061728 282.183773,78.3912175 282.346187,78.5653894 C282.517399,78.731172 282.702714,78.8817401 282.900034,79.0153894 C283.10256,79.1533185 283.319158,79.2693536 283.546187,79.3615432 C283.772012,79.4603203 284.00806,79.5338433 284.250034,79.580774 C284.498359,79.616193 284.749502,79.6277842 285.000034,79.6153894 L300.807726,79.6153894 L300.807726,96.0692356 L302.861572,94.0153894 L304.915418,91.9615432 L306.923111,89.9076971 L308.976957,87.8653894 L311.030803,85.8115432 L313.084649,83.7576971 L315.138495,81.7038509 L317.215418,79.6153894 L373.546187,79.6153894 C373.801979,79.6119734 374.056908,79.5849355 374.307726,79.5346202 C374.785029,79.4306282 375.238874,79.2389176 375.646187,78.9692356 C376.046563,78.7075672 376.388365,78.3657646 376.650034,77.9653894 C376.925016,77.5609395 377.117174,77.1060341 377.215418,76.6269279 C377.266335,76.3762027 377.293378,76.1212169 377.296187,75.8653894 L377.296187,15.2538509 C377.292723,15.0018785 377.265682,14.7507834 377.215418,14.5038509 C377.166858,14.2622906 377.093388,14.0264147 376.996187,13.8000048 C376.906302,13.5755232 376.790106,13.3624964 376.650034,13.1653894 C376.519515,12.9657641 376.368714,12.7801627 376.200034,12.6115432 C376.028988,12.4421072 375.84369,12.2876923 375.646187,12.1500048 C375.438358,12.0210397 375.222538,11.9054218 375.000034,11.8038509 C374.775687,11.7118558 374.544132,11.6385301 374.307726,11.5846202 C374.055833,11.5459068 373.800912,11.5304571 373.546187,11.5384663 L373.546187,11.5384663 Z" id="Path" fill="#003A5D" opacity="0.5" style="mix-blend-mode: multiply;"></path>
                <path d="M37.5923413,58.2115432 L82.084649,58.2115432 L82.084649,21.7269147 L41.1577259,21.7269147 C40.2144417,21.7243612 39.3090917,22.0981296 38.6423413,22.7653894 C37.9712526,23.4352347 37.593584,24.3441293 37.5923413,25.2923125 L37.5923413,58.2115432 Z" id="Path" fill="#003A5D" opacity="0.5" style="mix-blend-mode: multiply;"></path>
                <path d="M51.1038798,30.5538509 L148.361572,30.5538509 C148.640246,30.5578733 148.918112,30.5848881 149.192341,30.6346202 C149.45333,30.6909325 149.708337,30.772071 149.95388,30.8769279 C150.201405,30.9783828 150.437363,31.1060325 150.657726,31.2576971 C150.876462,31.4038346 151.081183,31.5699295 151.269264,31.7538509 C151.450482,31.9443253 151.616381,32.1488065 151.765418,32.3653894 C151.917083,32.5857519 152.044733,32.8217105 152.146187,33.0692356 C152.252739,33.3181272 152.333919,33.5771299 152.388495,33.8423125 C152.444503,34.1117358 152.471579,34.3863698 152.469401,34.6615432 L152.469401,101.319236 C152.471026,101.598201 152.443959,101.876603 152.388495,102.150005 C152.330543,102.414302 152.249461,102.67299 152.146187,102.923082 C152.042132,103.16571 151.914602,103.397582 151.765418,103.615389 C151.619281,103.834125 151.453186,104.038847 151.269264,104.226928 C151.084175,104.414177 150.879102,104.580557 150.657726,104.723082 C150.437363,104.874746 150.201405,105.002396 149.95388,105.103851 C149.708337,105.208708 149.45333,105.289846 149.192341,105.346159 C148.918939,105.401622 148.640538,105.428689 148.361572,105.426928 L131.05388,105.426928 L131.05388,123.461543 L128.746187,121.153851 L126.496187,118.846159 L124.188495,116.538466 L121.880803,114.230774 L119.630803,111.923082 L117.323111,109.615389 L115.015418,107.307697 L112.765418,105.057697 L51.1038798,105.057697 C50.8248647,105.060571 50.5463469,105.033493 50.2731106,104.976928 C50.0083725,104.920646 49.7495337,104.839518 49.5000336,104.73462 C49.2561926,104.633067 49.0240695,104.505399 48.8077259,104.353851 C48.5863499,104.211327 48.3812771,104.044947 48.1961875,103.857697 C48.0085532,103.669859 47.8386056,103.465149 47.6884952,103.246159 C47.5393114,103.028351 47.4117816,102.796479 47.3077259,102.553851 C47.2029694,102.305299 47.1255902,102.046079 47.0769567,101.780774 C47.0177785,101.507749 46.9868464,101.229361 46.984649,100.950005 L46.984649,34.6153894 C46.9862138,34.3398078 47.017158,34.0651786 47.0769567,33.7961586 C47.122308,33.5300763 47.1997981,33.2704845 47.3077259,33.0230817 C47.4091809,32.7755566 47.5368306,32.5395981 47.6884952,32.3192356 C47.8415598,32.1024927 48.0113059,31.8980258 48.1961875,31.7076971 C48.3842685,31.5237756 48.5889901,31.3576808 48.8077259,31.2115432 C49.0240695,31.0599947 49.2561926,30.932327 49.5000336,30.830774 C49.7495337,30.7258764 50.0083725,30.6447478 50.2731106,30.5884663 C50.5485209,30.5530343 50.8264766,30.5414529 51.1038798,30.5538509 Z" id="Path" fill="#DFE4E6"></path>
                <path d="M123.380828,69.0923125 C123.376644,65.9005946 121.119134,63.1559875 117.988181,62.5361393 C114.857227,61.9162911 111.724267,63.5937236 110.504329,66.543102 C109.284392,69.4924804 110.317021,72.8929065 112.971021,74.6658611 C115.62502,76.4388157 119.161704,76.0908338 121.419264,73.8346202 C122.679484,72.578767 123.385677,70.8714405 123.380828,69.0923125 Z" id="Path" fill="#0099DA"></path>
                <path d="M101.930869,69.0923125 C101.921157,65.9016919 99.660427,63.1615854 96.5297424,62.545983 C93.3990577,61.9303805 90.2691566,63.6104999 89.0521629,66.55992 C87.8351692,69.50934 88.8695658,72.9077376 91.5234176,74.6789584 C94.1772693,76.4501792 97.7124595,76.101593 99.9692644,73.8461586 C101.232333,72.5874885 101.938762,70.8754359 101.930869,69.0923125 Z" id="Path" fill="#0099DA"></path>
                <path d="M80.4808694,69.0923125 C80.4711566,65.9016919 78.210427,63.1615854 75.0797424,62.545983 C71.9490577,61.9303805 68.8191566,63.6104999 67.6021629,66.55992 C66.3851692,69.50934 67.4195658,72.9077376 70.0734176,74.6789584 C72.7272693,76.4501792 76.2624595,76.101593 78.5192644,73.8461586 C79.7823329,72.5874885 80.4887624,70.8754359 80.4808694,69.0923125 Z" id="Path" fill="#0099DA"></path>
                <path d="M335.619264,329.573082 L411.40388,329.573082 C411.621103,329.573082 411.837692,329.549643 412.050034,329.503851 C412.464241,329.424563 412.857277,329.259488 413.20388,329.019236 C413.374394,328.904749 413.532893,328.773311 413.676957,328.626928 C413.825996,328.485325 413.957687,328.32652 414.069264,328.153851 C414.185278,327.982415 414.285681,327.800919 414.369264,327.611543 C414.449729,327.417864 414.511547,327.216955 414.55388,327.011543 C414.59076,326.7981 414.610056,326.58199 414.611572,326.365389 L414.611572,274.442312 C414.610591,274.225687 414.591291,274.009532 414.55388,273.796159 C414.509902,273.587419 414.448138,273.382826 414.369264,273.18462 C414.280637,272.99779 414.180442,272.816669 414.069264,272.642312 C413.951827,272.474024 413.820606,272.315788 413.676957,272.169236 C413.529894,272.026154 413.371705,271.894972 413.20388,271.776928 C413.032016,271.664893 412.850532,271.56836 412.661572,271.488466 C412.469216,271.404384 412.267923,271.342448 412.061572,271.303851 C411.849231,271.258059 411.632641,271.234853 411.415418,271.23462 L397.892341,271.23462 L397.892341,257.192312 L396.138495,258.946159 L394.384649,260.700005 L392.630803,262.453851 L390.865418,264.230774 L389.111572,265.98462 L387.357726,267.692312 L385.60388,269.446159 L383.850034,271.200005 L335.619264,271.200005 C335.402008,271.199617 335.185353,271.22283 334.973111,271.269236 C334.766759,271.307833 334.565466,271.369769 334.373111,271.453851 C334.18415,271.533744 334.002667,271.630278 333.830803,271.742312 C333.662978,271.860357 333.504789,271.991538 333.357726,272.13462 C333.214077,272.281172 333.082856,272.439409 332.965418,272.607697 C332.849917,272.779446 332.74954,272.960896 332.665418,273.150005 C332.586545,273.34821 332.524781,273.552803 332.480803,273.761543 C332.46266,273.976546 332.46266,274.192695 332.480803,274.407697 L332.480803,326.330774 C332.463191,326.545799 332.463191,326.761903 332.480803,326.976928 C332.523135,327.18234 332.584953,327.383249 332.665418,327.576928 C332.744545,327.768481 332.845191,327.950419 332.965418,328.119236 C333.076995,328.291905 333.208687,328.450709 333.357726,328.592312 C333.50179,328.738696 333.660288,328.870134 333.830803,328.98462 C334.177405,329.224873 334.570441,329.389948 334.984649,329.469236 C335.191856,329.526488 335.404616,329.561304 335.619264,329.573082 L335.619264,329.573082 Z" id="Path" fill="#0099DA"></path>
                <path d="M377.007739,271.361543 L332.526957,271.361543 L332.526957,307.846159 L373.442341,307.846159 C374.390524,307.844916 375.299419,307.467247 375.969264,306.796159 C376.636524,306.129408 377.010293,305.224058 377.007739,304.280774 L377.007739,271.361543 L377.007739,271.361543 Z" id="Path" fill="#003A5D" opacity="0.5" style="mix-blend-mode: multiply;"></path>
                <path d="M363.461572,299.019236 L266.250034,299.019236 C265.970603,299.018317 265.692081,298.98737 265.419264,298.926928 C265.153458,298.880401 264.894004,298.802952 264.646187,298.696159 C264.399864,298.592183 264.164156,298.464669 263.942341,298.315389 C263.727035,298.165125 263.52617,297.995163 263.342341,297.807697 C263.151652,297.626889 262.981401,297.425683 262.834649,297.207697 C262.68537,296.985883 262.557855,296.750174 262.45388,296.503851 C262.348982,296.254351 262.267854,295.995512 262.211572,295.730774 C262.160692,295.456705 262.133668,295.178742 262.130803,294.900005 L262.130803,228.253851 C262.133668,227.975114 262.160692,227.69715 262.211572,227.423082 C262.269524,227.158785 262.350606,226.900096 262.45388,226.650005 C262.557935,226.407377 262.685465,226.175505 262.834649,225.957697 C262.981237,225.736069 263.151466,225.53102 263.342341,225.346159 C263.52617,225.158693 263.727035,224.98873 263.942341,224.838466 C264.166994,224.697267 264.402324,224.573815 264.646187,224.469236 C264.895688,224.364338 265.154526,224.283209 265.419264,224.226928 C265.692501,224.170363 265.971019,224.143285 266.250034,224.146159 L283.557726,224.146159 L283.557726,206.111543 L285.807726,208.419236 L288.057726,210.726928 L290.365418,213.03462 L292.673111,215.28462 L294.980803,217.592312 L297.288495,219.842312 L299.538495,222.150005 L301.846187,224.457697 L363.461572,224.457697 C363.736746,224.455382 364.01138,224.482459 364.280803,224.538466 C364.545985,224.593042 364.804988,224.674222 365.05388,224.780774 C365.298901,224.882904 365.53443,225.006461 365.757726,225.150005 C365.974469,225.303069 366.178936,225.472816 366.369264,225.657697 C366.553186,225.845778 366.719281,226.0505 366.865418,226.269236 C367.014602,226.487043 367.142132,226.718915 367.246187,226.961543 C367.349461,227.211635 367.430543,227.470323 367.488495,227.73462 C367.54506,228.007857 367.572138,228.286374 367.569471,228.565389 L367.569471,295.211543 C367.572138,295.490558 367.54506,295.769076 367.488495,296.042312 C367.432214,296.30705 367.351085,296.565889 367.246187,296.815389 C367.041802,297.303085 366.743888,297.746036 366.369264,298.119236 C366.178936,298.304117 365.974469,298.473863 365.757726,298.626928 C365.537363,298.778592 365.301405,298.906242 365.05388,299.007697 C364.806477,299.115625 364.546885,299.193115 364.280803,299.238466 C364.000531,299.195566 363.725811,299.12205 363.461572,299.019236 Z" id="Path" fill="#DFE4E6"></path>
                <path d="M291.230802,260.469236 C291.22946,263.662041 293.483734,266.411151 296.614948,267.035257 C299.746161,267.659363 302.882184,265.984633 304.105076,263.035304 C305.327969,260.085975 304.297121,256.683518 301.642983,254.90882 C298.988844,253.134121 295.450667,253.481483 293.192341,255.738466 C291.936043,256.992223 291.230279,258.694358 291.230802,260.469236 L291.230802,260.469236 Z" id="Path" fill="#0099DA"></path>
                <path d="M312.692298,260.469236 C312.680912,263.674376 314.936127,266.440839 318.07781,267.075569 C321.219493,267.710299 324.371826,266.036351 325.605605,263.078168 C326.839384,260.119985 325.810663,256.702232 323.149012,254.916547 C320.487361,253.130862 316.934778,253.475048 314.665418,255.738466 C313.401633,256.988137 312.691028,258.691927 312.692298,260.469236 L312.692298,260.469236 Z" id="Path" fill="#0099DA"></path>
                <path d="M334.119264,260.469236 C334.117922,263.662041 336.372196,266.411151 339.503409,267.035257 C342.634623,267.659363 345.770646,265.984633 346.993538,263.035304 C348.21643,260.085975 347.185583,256.683518 344.531444,254.90882 C341.877306,253.134121 338.339129,253.481483 336.080803,255.738466 C334.824504,256.992223 334.118741,258.694358 334.119264,260.469236 L334.119264,260.469236 Z" id="Path" fill="#0099DA"></path>
                <path d="M380.573111,5.84999957 L295.661572,5.84999957 C295.409958,5.84999957 295.15886,5.87277819 294.911572,5.91923555 C294.670012,5.96779583 294.434136,6.04126537 294.207726,6.13846632 C293.983244,6.2283517 293.770218,6.34454812 293.573111,6.48462017 C293.39251,6.61259553 293.226172,6.75959182 293.076957,6.92308171 C292.902042,7.08907029 292.747144,7.27494862 292.615418,7.47692786 C292.475346,7.67403489 292.35915,7.88706167 292.269264,8.11154325 C292.177269,8.33588949 292.103944,8.5674444 292.050034,8.80385094 C292.003591,9.05502852 291.980798,9.30995457 291.980798,9.5653894 L291.980798,70.2461586 C291.980798,70.4977725 292.003576,70.7488705 292.050034,70.9961586 C292.102281,71.2367615 292.175642,71.4722889 292.269264,71.7000048 C292.35915,71.9244864 292.475346,72.1375131 292.615418,72.3346202 C292.889531,72.7318342 293.233589,73.0758924 293.630803,73.3499996 C293.82791,73.4900768 294.040937,73.6062733 294.265418,73.6961586 C294.493712,73.7881689 294.729101,73.8614868 294.969264,73.9153894 C295.216553,73.9618468 295.467651,73.985025 295.719264,73.9846202 L311.492341,73.9846202 L311.492341,90.3923125 L313.546187,88.3499996 L315.600034,86.2961586 L317.596187,84.230774 L319.615418,82.1884663 L321.669264,80.1461586 L323.723111,78.0923125 L325.776957,76.0384663 L327.830803,73.9846202 L380.550034,73.9846202 C380.805492,73.985544 381.060468,73.9623644 381.311572,73.9153894 C381.551288,73.8598265 381.78655,73.7865483 382.015418,73.6961586 C382.237486,73.6012237 382.449988,73.4853137 382.650034,73.3499996 C382.847536,73.2123173 383.032834,73.0579024 383.20388,72.8884663 C383.536194,72.5546099 383.805858,72.1637927 384.000034,71.7346202 C384.098811,71.5087953 384.172334,71.2727478 384.219264,71.030774 C384.269528,70.7838415 384.296569,70.5327464 384.300034,70.280774 L384.300034,9.58846632 C384.296618,9.33267464 384.26958,9.07774537 384.219264,8.82692786 C384.170663,8.58911038 384.097182,8.35706457 384.000034,8.13462017 C383.910148,7.91013859 383.793952,7.69711181 383.65388,7.50000478 C383.526097,7.29839629 383.375061,7.11250565 383.20388,6.94615863 C383.032834,6.77672259 382.847536,6.6223077 382.650034,6.48462017 C382.245584,6.20963824 381.790678,6.01747994 381.311572,5.91923555 C381.068045,5.87368414 380.820861,5.84999957 380.573111,5.84999957 Z" id="Path" fill="#FFE700"></path>
            </g>
        </g>
    </g>
</svg>