<?xml version="1.0" encoding="UTF-8"?>
<svg width="440px" height="330px" viewBox="0 0 440 330" version="1.1" xmlns="http://www.w3.org/2000/svg" xmlns:xlink="http://www.w3.org/1999/xlink">
    <title>Graphic elements / Icons / Rich icons / license-key</title>
    <g id="Graphic-elements-/-Icons-/-Rich-icons-/-license-key" stroke="none" stroke-width="1" fill="none" fill-rule="evenodd">
        <g id="License-Key" transform="translate(55.000000, 0.000000)" fill-rule="nonzero">
            <path d="M280.188679,281.293868 C344.18389,217.195491 344.100259,113.355121 280.001884,49.3599087 C215.903508,-14.635304 112.063139,-14.5516755 48.0679245,49.5466981 C-15.9272893,113.645075 -15.8436595,217.485447 48.254717,281.48066 C112.353093,345.475874 216.193465,345.392244 280.188679,281.293868 L280.188679,281.293868 Z" id="Path" fill="#FFE700"></path>
            <path d="M327.960849,148.686792 C326.470944,178.622565 316.777973,207.572237 299.941981,232.369811 C269.51143,277.073446 219.059958,303.973321 164.983087,304.327618 C110.906217,304.681914 60.1066097,278.445409 29.0929245,234.14434 C13.100383,211.294614 3.22408664,184.730968 0.404716981,156.983491 L0.311320755,159.022642 C0.311320755,159.707547 0.311320755,160.392453 0.233490566,161.077358 C0.155660377,161.762264 0.233490566,162.44717 0.233490566,163.132075 C0.233490566,163.816981 0.233490566,164.501887 0.233490566,165.186792 C0.402136311,243.289741 55.5011114,310.491991 132.056017,325.966015 C208.610922,341.44004 285.485094,300.91349 315.975,229.007547 C324.518572,208.815842 328.912358,187.111602 328.894864,165.186792 C328.894864,163.801415 328.894864,162.416038 328.894864,161.03066 C328.894864,159.645283 328.801415,158.259906 328.723585,156.890094 C328.645755,155.520283 328.567925,154.134906 328.458962,152.78066 C328.35,151.426415 328.100943,150.041038 327.960849,148.686792 Z" id="Path" fill="#FAC602"></path>
            <path d="M164.439623,16.2042453 C252.250562,16.0540886 324.61505,85.0637948 328.630189,172.783019 C328.630189,172.191509 328.630189,171.615566 328.630189,171.024057 C328.630189,170.432547 328.630189,169.841038 328.630189,169.249528 L328.630189,167.490566 C328.630189,166.899057 328.630189,166.307547 328.630189,165.700472 C328.419478,87.589175 273.297498,20.4010048 196.733125,4.93116792 C120.168752,-10.5386689 43.2850529,29.9777447 12.7641509,101.879717 C4.26823951,122.086183 -0.0727177607,143.796263 -0.000898693969,165.716038 C-0.000898693969,166.323113 -0.000898693969,166.914623 -0.000898693969,167.506132 C-0.000898693969,168.097642 -0.000898693969,168.689151 -0.000898693969,169.28066 C-0.000898693969,169.87217 -0.000898693969,170.463679 -0.000898693969,171.055189 C-0.000898693969,171.646698 -0.000898693969,172.238208 -0.000898693969,172.814151 C4.03441508,85.0004017 76.5336044,15.953228 164.439623,16.2042453 Z" id="Path" fill="#FFFFFF" opacity="0.4"></path>
            <path d="M50.3716981,52.9245283 L112.900472,115.34434 L175.413679,177.779717 L227.264151,229.630189 L279.145755,281.449528 L279.145755,281.371698 L279.223585,281.371698 C342.09518,217.132234 341.529545,114.250762 277.955403,50.7064878 C214.381262,-12.8377864 111.499536,-13.3550767 47.2896226,49.5466981 L47.2117925,49.6245283 L47.2117925,49.7023585 L48.7683962,51.2589623 L50.3716981,52.9245283 Z" id="Path" fill="#FFFFFF" opacity="0.3"></path>
            <path d="M228.820755,215.153774 L172.627358,158.960377 C181.023781,142.611409 176.356428,122.587689 161.596522,111.636257 C146.836617,100.684825 126.319694,102.022526 113.106766,114.797783 C99.8938376,127.573041 97.8660342,148.033284 108.314249,163.153584 C118.762464,178.273885 138.617667,183.612844 155.240094,175.771698 L163.023113,183.554717 L176.55,183.554717 L176.55,197.268396 L191.213208,197.268396 L191.213208,212.10283 L204.44434,212.10283 L204.44434,225.909906 L211.308962,232.774528 L227.653302,232.774528 L228.820755,215.153774 Z M122.084434,139.50283 C119.288093,136.707283 118.451236,132.502461 119.964131,128.849277 C121.477026,125.196092 125.041693,122.814075 128.995755,122.814075 C132.949817,122.814075 136.514484,125.196092 138.027379,128.849277 C139.540273,132.502461 138.703416,136.707283 135.907075,139.50283 C134.075929,141.339308 131.58916,142.37148 128.995755,142.37148 C126.40235,142.37148 123.91558,141.339308 122.084434,139.50283 Z" id="Shape" fill="#FAC602"></path>
            <path d="M228.820755,205.471698 L172.627358,149.278302 C181.071791,132.894672 176.414983,112.806353 161.623241,101.809256 C146.831499,90.8121596 126.253221,92.1391546 112.996415,104.944968 C99.739609,117.750782 97.7014409,138.270828 108.180188,153.434192 C118.658936,168.597556 138.574113,173.946592 155.240094,166.074057 L163.023113,173.857075 L176.55,173.857075 L176.55,187.570755 L191.213208,187.570755 L191.213208,202.358491 L204.44434,202.358491 L204.44434,216.165566 L211.308962,223.030189 L227.653302,223.030189 L228.820755,205.471698 Z M122.084434,129.774057 C119.288093,126.97851 118.451236,122.773687 119.964131,119.120503 C121.477026,115.467319 125.041693,113.085301 128.995755,113.085301 C132.949817,113.085301 136.514484,115.467319 138.027379,119.120503 C139.540273,122.773687 138.703416,126.97851 135.907075,129.774057 C132.089741,133.590307 125.901768,133.590307 122.084434,129.774057 Z" id="Shape" fill="#0099DA"></path>
        </g>
    </g>
</svg>