<?xml version="1.0" encoding="UTF-8"?>
<svg width="440px" height="330px" viewBox="0 0 440 330" version="1.1" xmlns="http://www.w3.org/2000/svg" xmlns:xlink="http://www.w3.org/1999/xlink">
    <title>Graphic elements / Icons / Rich icons / like-notification</title>
    <defs>
        <linearGradient x1="49.9951452%" y1="100%" x2="49.9951452%" y2="0%" id="linearGradient-1">
            <stop stop-color="#FFFFFF" offset="23%"></stop>
            <stop stop-color="#FCFCFC" offset="46%"></stop>
            <stop stop-color="#F1F2F3" offset="67%"></stop>
            <stop stop-color="#DFE2E5" offset="87%"></stop>
            <stop stop-color="#CED3D7" offset="100%"></stop>
        </linearGradient>
        <linearGradient x1="50%" y1="0%" x2="50%" y2="100%" id="linearGradient-2">
            <stop stop-color="#023852" offset="0%"></stop>
            <stop stop-color="#035D88" offset="100%"></stop>
        </linearGradient>
        <linearGradient x1="50%" y1="-0.0726744186%" x2="50%" y2="100%" id="linearGradient-3">
            <stop stop-color="#023852" offset="0%"></stop>
            <stop stop-color="#035D88" offset="100%"></stop>
        </linearGradient>
    </defs>
    <g id="Graphic-elements-/-Icons-/-Rich-icons-/-like-notification" stroke="none" stroke-width="1" fill="none" fill-rule="evenodd">
        <g id="Asset-107" transform="translate(52.000000, 0.000000)">
            <g id="Group-2" transform="translate(0.000000, 20.000000)">
                <path d="M240.9,89.89 C247.378212,79.4054805 250.80965,67.3244626 250.81,55 L250.81,23.31 C250.837019,18.9278689 249.506029,14.6449441 247,11.05 C244.525266,7.5502289 241.149162,4.78576356 237.23,3.05 C231.244615,0.33073593 224.379727,0.312526678 218.38,3 C214.429259,4.72414135 211.021201,7.48930023 208.52,11 C206.001374,14.6156524 204.666677,18.9237194 204.7,23.33 L204.7,39.89 C204.7,48 204.7,56.03 204.7,56.03 C204.649077,57.4363493 204.333571,58.8205045 203.77,60.11 C203.256994,61.4225961 202.49654,62.6243856 201.53,63.65 L185.53,83.86 L169.53,104.06 L169.53,104.06 L169.53,104.06 C167.970977,105.633462 166.607766,107.38952 165.47,109.29 C164.343617,111.174895 163.450406,113.189655 162.81,115.29 C162.338429,116.812231 161.379103,118.137016 160.08,119.06 C158.778793,119.990022 157.2194,120.490007 155.62,120.49 L63.16,120.49 C62.9506224,120.491406 62.7499234,120.573836 62.6,120.72 C62.4520142,120.86872 62.3699951,121.070198 62.3699951,121.28 L62.3699951,282.41 C62.3699951,282.63 106.71,282.83 106.85,282.97 C106.99872,283.117986 107.200198,283.200736 107.41,283.2 L159.25,283.2 C161.42261,283.193555 163.489787,284.135837 164.91,285.78 C167.518279,288.820255 171.32422,290.57 175.33,290.57 L308.39,290.57 C308.71,290.57 309.03,290.57 309.34,290.57 C309.65,290.57 309.97,290.57 310.34,290.49 L316.49,290.49 C325.832036,290.457086 333.397086,282.892036 333.43,273.55 L333.43,264.12 C333.397086,254.777964 325.832036,247.212914 316.49,247.18 L304.29,247.18 C304.078516,247.179226 303.876411,247.09261 303.73,246.94 C303.582014,246.79128 303.499264,246.589802 303.5,246.38 L303.5,246.38 C303.499264,246.170198 303.582014,245.96872 303.73,245.82 C303.879923,245.673836 304.080622,245.591406 304.29,245.59 L316.44,245.59 C325.785923,245.557054 333.35257,237.985941 333.38,228.64 L333.38,219.22 C333.35257,209.874059 325.785923,202.302946 316.44,202.27 L304.29,202.27 C304.080622,202.268594 303.879923,202.186164 303.73,202.04 C303.582014,201.89128 303.499264,201.689802 303.5,201.48 L303.5,201.48 C303.499264,201.270198 303.582014,201.06872 303.73,200.92 C303.877435,200.77009 304.07976,200.686992 304.29,200.69 L316.44,200.69 C325.785923,200.657054 333.35257,193.085941 333.38,183.74 L333.38,174.31 C333.347086,164.967964 325.782036,157.402914 316.44,157.37 L304.29,157.37 C303.853695,157.37 303.5,157.016305 303.5,156.58 L303.5,156.58 C303.499264,156.370198 303.582014,156.16872 303.73,156.02 C303.876411,155.86739 304.078516,155.780774 304.29,155.78 L316.44,155.78 C325.782036,155.747086 333.347086,148.182036 333.38,138.84 L333.38,132.59 C333.384494,128.174555 331.921104,123.88288 329.22,120.39 C326.58281,116.952154 322.913412,114.449814 318.75,113.25 L318.68,113.25 L318.62,113.25 C317.98756,112.904662 317.316138,112.636093 316.62,112.45 C315.939812,112.258504 315.23663,112.160934 314.53,112.16 L231.32,112.16 C230.599065,112.166454 229.930453,111.78439 229.57,111.16 C229.212734,110.541198 229.212734,109.778802 229.57,109.16 L235.21,99.6 L240.9,89.89 Z" id="Path" fill="#33ADE1"></path>
                <path d="M307.6,117.36 C304.194626,113.931241 299.56249,112.002084 294.73,112 L231.88,112 C221.832661,112.027443 213.692959,120.162678 213.66,130.21 L213.66,138.53 C213.683864,147.856925 220.725715,155.67019 230,156.66 C220.71366,157.630414 213.651157,165.443146 213.62,174.78 L213.62,183.1 C213.651157,192.436854 220.71366,200.249586 230,201.22 C220.709206,202.181639 213.641979,209.999597 213.62,219.34 L213.62,227.66 C213.652959,237.707322 221.792661,245.842557 231.84,245.870045 L294.69,245.870045 C304.772464,245.892129 312.966913,237.742434 313,227.66 L313,219.34 C312.978021,209.999597 305.910794,202.181639 296.62,201.22 C305.90634,200.249586 312.968843,192.436854 313,183.1 L313,174.78 C312.968843,165.443146 305.90634,157.630414 296.62,156.66 C305.90634,155.689586 312.968843,147.876854 313,138.54 L313,130.22 C312.984678,125.385204 311.040986,120.756337 307.6,117.36 Z" id="Path" fill="#0099DA"></path>
                <path d="M294.73,246 L231.88,246 C221.828772,246.02747 213.68747,254.168772 213.66,264.22 L213.66,272.53 C213.68747,282.581228 221.828772,290.72253 231.88,290.75 L294.73,290.75 C304.804642,290.75 312.977943,282.594618 313,272.52 L313,264.21 C312.96694,254.143197 304.796857,246 294.73,246 L294.73,246 Z" id="Path" fill="#0099DA"></path>
                <rect id="Rectangle" fill="#EDF0F2" x="2.62190269e-12" y="115.98" width="102.99" height="175.02"></rect>
                <rect id="Rectangle" fill="url(#linearGradient-1)" style="mix-blend-mode: multiply;" x="2.62190269e-12" y="253.43" width="102.99" height="37.57"></rect>
                <path d="M64.9300423,251.79 C64.9198713,245.389586 60.3912307,239.887067 54.1122936,238.645959 C47.8333564,237.404851 41.5517946,240.770603 39.107329,246.685836 C36.6628634,252.60107 38.7358836,259.419346 44.0592177,262.972868 C49.3825518,266.526389 56.4745093,265.826073 61,261.3 C63.524382,258.779986 64.9389627,255.356917 64.9300423,251.79 Z" id="Path" fill="#023852"></path>
                <path d="M255.32,155.76 L316.66,155.76 C326.458812,155.732561 334.397046,147.798795 334.43,138 L334.43,129.88 C334.397108,120.077933 326.462047,112.138406 316.66,112.1 L255.32,112.1 C245.514047,112.132925 237.572925,120.074047 237.54,129.88 L237.54,138 C237.567491,147.806592 245.513394,155.748026 255.32,155.77 L255.32,155.76 Z" id="Path" fill="#4DB8E5"></path>
                <path d="M255.32,200.76 L316.66,200.76 C326.45428,200.721667 334.386154,192.794257 334.43,183 L334.43,174.88 C334.402534,165.077299 326.462701,157.137466 316.66,157.11 L255.32,157.11 C245.513394,157.131974 237.567491,165.073408 237.54,174.88 L237.54,183 C237.572925,192.805953 245.514047,200.747075 255.32,200.78 L255.32,200.76 Z" id="Path" fill="#4DB8E5"></path>
                <path d="M255.32,245.75 L316.66,245.75 C326.4504,245.711709 334.380683,237.790351 334.43,228 L334.43,219.88 C334.402534,210.077299 326.462701,202.137466 316.66,202.11 L255.32,202.11 C245.513394,202.131974 237.567491,210.073408 237.54,219.88 L237.54,228 C237.572925,237.805953 245.514047,245.747075 255.32,245.78 L255.32,245.75 Z" id="Path" fill="#4DB8E5"></path>
                <path d="M255.32,290.74 L316.66,290.74 C326.451043,290.712626 334.386083,282.790983 334.43,273 L334.43,264.89 C334.408026,255.083394 326.466592,247.137491 316.66,247.11 L255.32,247.11 C245.509503,247.131997 237.561997,255.079503 237.54,264.89 L237.54,273 C237.561997,282.810497 245.509503,290.758003 255.32,290.78 L255.32,290.74 Z" id="Path" fill="#4DB8E5"></path>
                <rect id="Rectangle" fill="#0099DA" x="103.08" y="120.46" width="14.58" height="162.79"></rect>
            </g>
            <g id="Group" transform="translate(265.000000, 0.000000)">
                <path d="M106.770796,6.99999457 L9.21920524,6.99999457 C4.12757878,6.99999457 0,11.1279346 0,16.22 L0,113.78 C0,118.872065 4.12757878,123.000005 9.21920524,123.000005 L106.770796,123.000005 C109.217613,123.002654 111.565123,122.032436 113.296223,120.303063 C115.027323,118.573689 116,116.22703 116,113.78 L116,16.22 C116,13.7729704 115.027323,11.4263106 113.296223,9.69693739 C111.565123,7.96756424 109.217613,6.99734595 106.770796,6.99999457 Z" id="Path" fill="#003852" opacity="0.2" style="mix-blend-mode: multiply;"></path>
                <path d="M113.770796,1.84741111e-13 L16.2192052,1.84741111e-13 C13.77412,1.84741111e-13 11.4291791,0.971395499 9.7002427,2.70048091 C7.97130633,4.42956632 7,6.77470939 7,9.22000543 L7,106.780005 C7,109.225301 7.97130633,111.570445 9.7002427,113.29953 C11.4291791,115.028615 13.77412,116.000011 16.2192052,116.000011 L113.770796,116.000011 C116.217613,116.002659 118.565123,115.032441 120.296223,113.303068 C122.027323,111.573695 123,109.227035 123,106.780005 L123,9.22000543 C123,6.7729758 122.027323,4.42631598 120.296223,2.69694283 C118.565123,0.96756967 116.217613,-0.00264861434 113.770796,1.84741111e-13 Z" id="Path" fill="#FFE700"></path>
                <polygon id="Path" fill="url(#linearGradient-2)" points="59.09 69.78 69.34 69.78 70.19 28 58.25 28"></polygon>
                <circle id="Oval" fill="url(#linearGradient-3)" cx="64.22" cy="81.12" r="6.88"></circle>
            </g>
        </g>
    </g>
</svg>