<?xml version="1.0" encoding="UTF-8"?>
<svg width="440px" height="330px" viewBox="0 0 440 330" version="1.1" xmlns="http://www.w3.org/2000/svg" xmlns:xlink="http://www.w3.org/1999/xlink">
    <title>Graphic elements / Icons / Rich icons / LPR</title>
    <g id="Graphic-elements-/-Icons-/-Rich-icons-/-LPR" stroke="none" stroke-width="1" fill="none" fill-rule="evenodd">
        <g id="LPR" transform="translate(19.000000, 37.000000)" fill-rule="nonzero">
            <path d="M235.987032,274.66 L235.987032,250.66 L165.812469,250.66 L165.812469,274.66 C165.763571,275.282592 165.669762,275.900859 165.531771,276.51 C165.219911,277.924773 164.724516,279.292965 164.058105,280.58 C163.220251,282.207521 161.994784,283.605062 160.489227,284.65 C158.5496,285.924147 156.264508,286.573411 153.942943,286.51 L247.906683,286.51 C243.656576,286.700421 239.692602,284.376547 237.791521,280.58 C237.116424,279.296765 236.6206,277.927387 236.317855,276.51 C236.166894,275.901266 236.05638,275.283256 235.987032,274.66 L235.987032,274.66 Z" id="Path" fill="#9DADB7"></path>
            <path d="M262.332569,286.509968 L139.426833,286.509968 C138.659957,286.507356 137.901302,286.667572 137.201297,286.98 C136.518823,287.284998 135.902492,287.719772 135.386783,288.26 C134.858792,288.811528 134.443396,289.460243 134.163741,290.17 C133.864316,290.913923 133.711159,291.708359 133.712608,292.51 L268.046833,292.51 C268.053118,290.932085 267.454134,289.411517 266.372618,288.26 C265.856284,287.725582 265.239787,287.297486 264.558105,287 C263.86032,286.678613 263.101143,286.511464 262.332569,286.509968 L262.332569,286.509968 Z" id="Path" fill="#CED6DB"></path>
            <polygon id="Path" fill="#9DADB7" opacity="0.2" style="mix-blend-mode: multiply;" points="165.792419 250.67 183.33606 250.67 200.879701 250.67 218.423342 250.67 235.966983 250.67 235.966983 255.67 235.966983 260.67 235.966983 265.67 235.966983 270.67 218.423342 270.67 200.879701 270.67 183.33606 270.67 165.792419 270.67 165.792419 265.67 165.792419 260.67 165.792419 255.67"></polygon>
            <path d="M395.854713,250.670002 L5.91471322,250.670002 C5.17276026,250.670002 4.43878043,250.517371 3.75935162,250.22 C3.09918434,249.933515 2.50280378,249.518787 2.00498753,249 C1.50052774,248.483496 1.09908882,247.876048 0.822044888,247.21 C0.531873829,246.512596 0.380947631,245.765085 0.380947631,245.01 L0.380947631,6.3 C0.380947631,4.80751858 0.966225306,3.37417245 2.00498753,2.3 C2.50728657,1.7915576 3.10287997,1.38416663 3.75935162,1.1 C4.43943031,0.805784576 5.17344035,0.655942239 5.91471322,0.659919737 L395.884788,0.659919737 C396.622803,0.656161119 397.353496,0.806023375 398.030125,1.1 C400.093872,2.0022087 401.421926,4.04240315 401.408629,6.29 L401.408629,245 C401.408629,245.754442 401.264444,246.501978 400.977456,247.2 C400.700412,247.866048 400.298974,248.473496 399.794514,248.99 C399.291238,249.501873 398.691658,249.909661 398.030125,250.19 C397.347242,250.501854 396.605743,250.665464 395.854713,250.670002 Z" id="Path" fill="#023852"></path>
            <polygon id="Path" fill="#0099DA" points="12.4108728 225.66 106.645287 225.66 200.879701 225.66 295.114115 225.66 389.348529 225.66 389.348529 172.41 389.348529 119.16 389.348529 65.92 389.348529 12.66 295.114115 12.66 200.879701 12.66 106.645287 12.66 12.4108728 12.66 12.4108728 65.92 12.4108728 119.16 12.4108728 172.41"></polygon>
            <polygon id="Path" fill="#4E7486" points="389.348529 26.66 295.114115 26.66 200.879701 26.66 106.645287 26.66 12.4108728 26.66 12.4108728 23.16 12.4108728 19.66 12.4108728 16.16 12.4108728 12.66 106.645287 12.66 200.879701 12.66 295.114115 12.66 389.348529 12.66 389.348529 16.16 389.348529 19.66 389.348529 23.16"></polygon>
            <path d="M207.395956,238.17 C207.402377,236.444447 206.7165,234.788034 205.491172,233.57 C204.898508,232.974215 204.193149,232.501747 203.41601,232.18 C202.613899,231.840492 201.75103,231.666986 200.879701,231.669961 C200.008589,231.669181 199.146155,231.842599 198.343392,232.18 C197.569321,232.501963 196.867286,232.974488 196.278254,233.57 C195.683597,234.16159 195.207286,234.860703 194.874763,235.63 C194.193606,237.251706 194.193606,239.078294 194.874763,240.7 C195.207286,241.469297 195.683597,242.16841 196.278254,242.76 C196.867286,243.355512 197.569321,243.828037 198.343392,244.15 C199.145444,244.490832 200.007905,244.667655 200.879701,244.67 C201.751694,244.669575 202.614536,244.492673 203.41601,244.15 C204.193149,243.828253 204.898508,243.355785 205.491172,242.76 C206.082806,242.168011 206.555754,241.46884 206.884638,240.7 C207.222881,239.899234 207.396731,239.038945 207.395956,238.17 Z" id="Path" fill="#4E7486"></path>
            <path d="M12.4108728,12.67 C17.0891771,17.15 21.7674813,21.6366667 26.4457855,26.13 L40.4806983,39.59 L54.515611,53.06 L68.5505237,66.52 C82.4250374,79.7933333 96.2995511,93.06 110.174065,106.32 L151.807631,146.11 L193.451222,185.89 L235.104838,225.67 L389.348529,225.67 L389.348529,12.67 L12.4108728,12.67 Z" id="Path" fill="#FFFFFF" opacity="0.2"></path>
            <path d="M113.662743,193.78 C113.662743,193.49 122.805486,193.23 137.582244,193.05 C152.359002,192.87 172.769776,192.74 195.31586,192.74 C217.861945,192.74 238.282743,192.86 253.059501,193.05 C267.836259,193.24 276.968978,193.49 276.968978,193.78 C276.968978,194.07 267.836259,194.32 253.059501,194.51 C238.282743,194.7 217.861945,194.82 195.31586,194.82 C172.769776,194.82 152.359002,194.7 137.582244,194.51 C122.805486,194.32 113.662743,194.07 113.662743,193.78 Z" id="Path" fill="#023852" opacity="0.3" style="mix-blend-mode: multiply;"></path>
            <path d="M254.222394,117.73 C254.222394,117.73 252.217406,110.19 249.149776,102.09 C246.082145,93.99 242.132319,85.31 238.312818,83.09 C234.493317,80.87 216.047431,80.09 198.58399,79.97 C181.120549,79.85 164.619501,80.25 164.619501,80.25 C162.673414,80.376356 160.77667,80.9149868 159.055661,81.83 C155.897805,83.41 151.958005,86.57 148.880349,92.83 C146.18799,98.5228957 144.208222,104.524672 142.985686,110.7 C142.399038,113.473539 141.970619,116.278045 141.702494,119.1 L197.962444,118.41 L254.222394,117.73 Z" id="Path" fill="#1B1A1F"></path>
            <polygon id="Path" fill="#F8F9F9" opacity="0.4" points="209.91217 115.29 221.089975 115.29 232.277805 115.29 219.796758 98.5 207.305686 81.71 196.117855 81.71 184.930025 81.71 197.421097 98.5"></polygon>
            <path d="M154.494314,82.28 C150.714913,86.51 146.815212,94.28 143.857855,101.08 C140.900499,107.88 138.845387,113.53 138.845387,113.53 L141.090973,113.45 L143.336559,113.36 C145.251322,108.03 148.689875,100.44 151.647232,94.2 C154.604589,87.96 157.140898,83 157.140898,83 L155.817606,82.62 L154.494314,82.28 Z" id="Path" fill="#000000"></path>
            <path d="M240.959401,82.28 C244.728778,86.51 248.628479,94.28 251.59586,101.08 C254.563242,107.88 256.608329,113.53 256.608329,113.53 L254.362743,113.45 L252.107132,113.36 C250.202394,108.03 246.753815,100.44 243.796459,94.2 C240.839102,87.96 238.312818,83 238.312818,83 L239.63611,82.62 L240.959401,82.28 Z" id="Path" fill="#000000"></path>
            <polygon id="Path" fill="#000000" points="136.248928 110.56 134.043441 111.92 131.82793 113.27 133.020898 116.62 134.213865 119.96 136.800299 118.57 139.386733 117.17 137.822843 113.87"></polygon>
            <polygon id="Path" fill="#000000" points="260.036858 110.56 262.242344 111.92 264.457855 113.27 263.264888 116.62 262.07192 119.96 259.485486 118.57 256.899052 117.17 258.462943 113.87"></polygon>
            <path d="M137.943142,108.78 C137.987362,110.508856 137.329378,112.18218 136.118603,113.42 C134.661293,114.751572 132.728826,115.443368 130.755262,115.34 C128.594288,115.36965 126.482559,114.695578 124.740299,113.42 C123.177744,112.388527 122.237977,110.644059 122.237977,108.775 C122.237977,106.905941 123.177744,105.161473 124.740299,104.13 C126.482559,102.854422 128.594288,102.18035 130.755262,102.21 C132.728826,102.106632 134.661293,102.798428 136.118603,104.13 C137.330923,105.370892 137.988941,107.047908 137.943142,108.78 L137.943142,108.78 Z" id="Path" fill="#CCEBF8"></path>
            <path d="M258.342643,108.78 C258.298424,110.508856 258.956408,112.18218 260.167182,113.42 C261.624493,114.751572 263.556959,115.443368 265.530524,115.34 C267.691498,115.36965 269.803227,114.695578 271.545486,113.42 C273.108041,112.388527 274.047809,110.644059 274.047809,108.775 C274.047809,106.905941 273.108041,105.161473 271.545486,104.13 C269.803227,102.854422 267.691498,102.18035 265.530524,102.21 C263.556959,102.106632 261.624493,102.798428 260.167182,104.13 C258.954862,105.370892 258.296845,107.047908 258.342643,108.78 L258.342643,108.78 Z" id="Path" fill="#CCEBF8"></path>
            <path d="M126.16384,147.08 L142.003242,147.08 C143.608862,147.08 144.910474,148.378374 144.910474,149.98 L144.910474,190.25 C144.904951,191.847719 143.604955,193.14 142.003242,193.14 L126.16384,193.14 C124.562127,193.14 123.262132,191.847719 123.256608,190.25 L123.256608,150 C123.256608,149.230872 123.562905,148.493246 124.108117,147.94939 C124.653329,147.405535 125.392795,147.1 126.16384,147.1 L126.16384,147.08 Z" id="Path" fill="#000000"></path>
            <path d="M253.440449,147.08 L269.289875,147.08 C270.891579,147.085509 272.187082,148.382271 272.187082,149.98 L272.187082,190.25 C272.181582,191.843825 270.887675,193.134513 269.289875,193.14 L253.440449,193.14 C251.842649,193.134513 250.548742,191.843825 250.543242,190.25 L250.543242,150 C250.543242,148.402271 251.838745,147.105509 253.440449,147.1 L253.440449,147.08 Z" id="Path" fill="#000000"></path>
            <path d="M270.242244,135.89 C270.528074,133.565377 270.528074,131.214623 270.242244,128.89 C270.083267,127.632073 269.745722,126.403097 269.239751,125.24 C268.886638,124.452364 268.342242,123.76497 267.65581,123.24 C266.873865,122.59 265.791172,121.87 264.227282,120.81 C262.692585,119.709453 261.313458,118.407755 260.127082,116.94 C259.004289,115.6 258.122095,114.42 257.691022,113.94 C257.25995,113.46 256.056958,113.18 253.801347,112.94 C251.545736,112.7 248.217456,112.48 243.425536,112.18 C239.365436,111.93 230.393117,111.7 221.370673,111.51 C212.348229,111.32 203.255611,111.18 199.035112,111.12 L199.035112,111.12 L199.035112,111.12 L198.724339,111.12 L197.842145,111.12 L196.95995,111.12 L196.639152,111.12 L196.639152,111.12 L196.639152,111.12 C192.408628,111.18 183.33606,111.32 174.293566,111.51 C165.251072,111.7 156.248678,111.93 152.238703,112.18 C147.436758,112.48 144.108479,112.69 141.852868,112.94 C139.597257,113.19 138.444389,113.49 137.973217,113.94 C137.502045,114.39 136.65995,115.59 135.527132,116.94 C134.341893,118.405291 132.966427,119.706716 131.436958,120.81 C129.863042,121.87 128.780349,122.59 128.008429,123.24 C127.319263,123.762196 126.774263,124.450352 126.424489,125.24 C125.913626,126.401374 125.575883,127.631068 125.421995,128.89 C125.131068,131.21431 125.131068,133.56569 125.421995,135.89 C125.762843,138.89 125.311721,144.02 125.191421,149.89 C125.071122,155.76 125.251571,162.24 126.865586,168.04 C127.921184,172.424322 130.424675,176.326956 133.973267,179.12 C135.364124,180.217074 136.958531,181.029286 138.664938,181.51 L140.459401,181.58 L142.253865,181.66 C144.054749,181.977973 145.87868,182.148541 147.707431,182.17 C149.130973,182.17 150.023192,182.1 150.023192,182.1 L245.610973,182.1 C245.610973,182.1 246.513217,182.18 247.926733,182.17 C249.75883,182.148997 251.586129,181.978427 253.390324,181.66 L255.184788,181.58 L256.969227,181.51 C258.675634,181.029286 260.270041,180.217074 261.660898,179.12 C265.212633,176.327985 267.71963,172.42539 268.778603,168.04 C270.392618,162.24 270.583092,155.71 270.452768,149.89 C270.322444,144.07 269.901397,138.89 270.242244,135.89 Z" id="Path" fill="#023852"></path>
            <path d="M125.462095,137.14 C125.582394,136.5 125.722743,135.95 125.863092,135.47 C125.987981,135.06878 126.135243,134.674833 126.30419,134.29 C126.653376,133.502814 127.19444,132.815274 127.878105,132.29 C128.66005,131.64 129.742743,130.92 131.306633,129.86 C132.84133,128.759453 134.220458,127.457755 135.406833,125.99 C136.529626,124.65 137.41182,123.47 137.852918,122.99 C138.294015,122.51 139.486983,122.23 141.732569,121.99 C143.978155,121.75 147.316459,121.52 152.118404,121.22 C156.128379,120.97 165.150823,120.74 174.173267,120.55 C183.195711,120.36 192.288329,120.22 196.518853,120.16 L196.518853,120.16 L196.518853,120.16 L198.914813,120.16 L198.914813,120.16 L198.914813,120.16 C203.145337,120.22 212.22793,120.36 221.260399,120.55 C230.292868,120.74 239.305287,120.97 243.315262,121.22 C248.117207,121.52 251.445486,121.73 253.701097,121.99 C255.956708,122.25 257.119601,122.54 257.580748,122.99 C258.041895,123.44 258.90404,124.64 260.026833,125.99 C261.213208,127.457755 262.592335,128.759453 264.127032,129.86 C265.690923,130.92 266.773616,131.64 267.545536,132.29 C268.234702,132.812196 268.779702,133.500352 269.129476,134.29 C269.298423,134.674833 269.445685,135.06878 269.570574,135.47 C269.710923,135.95 269.851272,136.47 269.971571,137.14 C269.971571,136.92 269.971571,136.7 269.971571,136.49 C269.971571,136.28 269.971571,136.08 269.971571,135.89 C270.273056,133.567346 270.289888,131.216713 270.021696,128.89 C269.862186,127.632178 269.524661,126.403277 269.019202,125.24 C268.663933,124.453669 268.119922,123.76676 267.435262,123.24 C266.663342,122.59 265.580648,121.87 264.016758,120.82 C262.479437,119.718755 261.099975,118.413376 259.916559,116.94 C258.793766,115.61 257.911571,114.42 257.470474,113.94 C257.029377,113.46 255.836409,113.17 253.590823,112.94 C251.345237,112.71 248.006933,112.47 243.204988,112.18 C239.195012,111.93 230.172569,111.69 221.150125,111.5 C212.127681,111.31 203.035062,111.17 198.804539,111.11 L198.804539,111.11 L196.348429,111.11 L196.348429,111.11 C192.117905,111.17 183.035312,111.31 174.002843,111.5 C164.970374,111.69 155.957955,111.93 151.94798,112.18 C147.146035,112.47 143.817756,112.68 141.562145,112.94 C139.306534,113.2 138.143641,113.49 137.682494,113.94 C137.221347,114.39 136.359202,115.59 135.236409,116.94 C134.052992,118.413376 132.67353,119.718755 131.136209,120.82 C129.572319,121.87 128.489626,122.59 127.707681,123.24 C127.028413,123.769685 126.488291,124.456027 126.133766,125.24 C125.628307,126.403277 125.290782,127.632178 125.131272,128.89 C124.86308,131.216713 124.879912,133.567346 125.181397,135.89 C125.181397,136.08 125.181397,136.29 125.231521,136.49 C125.281646,136.69 125.45207,136.92 125.462095,137.14 Z" id="Path" fill="#4E7486"></path>
            <path d="M135.336658,122.52 C133.35382,124.237312 132.005454,126.568195 131.507132,129.14 C130.957195,131.379152 131.547768,133.744841 133.086174,135.465247 C134.624579,137.185654 136.913545,138.040168 139.206284,137.75 C144.562328,137.248711 148.965156,133.323193 150.063292,128.07 C150.60927,125.832279 150.016873,123.469841 148.479027,121.752057 C146.94118,120.034273 144.654669,119.180954 142.36414,119.47 C139.74593,119.675341 137.271988,120.749058 135.336658,122.52 Z" id="Path" fill="#CCEBF8"></path>
            <path d="M144.429313,162.65 C144.420245,160.267162 142.726747,158.221774 140.382719,157.762611 C138.03869,157.303448 135.69553,158.558111 134.783813,160.760587 C133.872095,162.963062 134.645185,165.50129 136.631085,166.8256 C138.616985,168.149909 141.26382,167.892278 142.955611,166.21 C143.903699,165.267243 144.434338,163.985354 144.429313,162.65 Z" id="Path" fill="#CCEBF8"></path>
            <path d="M214.162743,125.47 L180.188229,125.47 C180.018587,125.468651 179.856385,125.400336 179.737107,125.28 C179.621662,125.162468 179.556658,125.004545 179.556658,124.84 L179.556658,123.84 C179.556658,123.675455 179.621662,123.517532 179.737107,123.4 C179.856385,123.279664 180.018587,123.211349 180.188229,123.21 L214.162743,123.21 C214.507132,123.220417 214.783871,123.496468 214.794314,123.84 L214.794314,124.84 C214.783871,125.183532 214.507132,125.459583 214.162743,125.47 L214.162743,125.47 Z" id="Path" fill="#06233C" opacity="0.6" style="mix-blend-mode: multiply;"></path>
            <path d="M237.871721,168.5 L156.669726,168.5 C155.949403,168.509836 155.239117,168.669934 154.584539,168.97 C153.221662,169.612794 152.446195,171.074373 152.6798,172.56 C152.715577,174.137493 153.146357,175.681003 153.932918,177.05 C154.365217,177.804821 155.029524,178.400859 155.827631,178.75 C156.983106,179.047633 158.164989,179.231843 159.356409,179.3 C160.960399,179.44 162.784938,179.55 164.228529,179.59 C165.460669,179.650935 166.693666,179.4883 167.867581,179.11 C168.659517,178.860962 169.358088,178.380147 169.872569,177.73 L224.538554,177.73 C225.064557,178.390372 225.782368,178.87238 226.593666,179.11 C227.76758,179.4883 229.000578,179.650935 230.232718,179.59 C231.676309,179.59 233.500848,179.44 235.104838,179.3 C236.296157,179.230897 237.477948,179.046701 238.633616,178.75 C239.427909,178.394987 240.090578,177.800418 240.528329,177.05 C241.31489,175.681003 241.74567,174.137493 241.781446,172.56 C242.008195,171.075524 241.234775,169.617803 239.876708,168.97 C239.246277,168.682138 238.564699,168.522366 237.871721,168.5 Z" id="Path" fill="#06233C" opacity="0.6" style="mix-blend-mode: multiply;"></path>
            <path d="M125.311721,129.45 C125.311721,129.45 125.311721,137.88 125.893167,147.27 C126.474613,156.66 127.607431,167.01 129.903142,170.87 C132.198853,174.73 137.632369,176.46 142.484439,177.23 C145.511736,177.696882 148.575018,177.890998 151.637207,177.81 L152.639701,179.55 L153.642195,181.29 L153.010623,181.96 L152.369027,182.64 C152.369027,182.64 146.594663,182.64 140.539601,182.25 C134.484539,181.86 128.128728,180.91 126.985885,179 C125.843042,177.09 124.880648,168.56 124.229027,159.83 C123.577406,151.1 123.226534,142.16 123.226534,139.44 C123.286504,137.07228 123.640065,134.721069 124.279152,132.44 C124.563295,131.423696 124.9081,130.425248 125.311721,129.45 Z" id="Path" fill="#000000"></path>
            <path d="M270.061796,129.45 C270.061796,129.45 270.061796,137.88 269.490374,147.27 C268.918953,156.66 267.77611,167.01 265.480399,170.87 C263.184688,174.73 257.751172,176.46 252.889077,177.23 C249.865142,177.696821 246.805192,177.890939 243.746334,177.81 L242.74384,179.55 L241.741347,181.29 L242.382943,181.96 L243.014514,182.64 C243.014514,182.64 248.788878,182.64 254.853965,182.25 C260.919052,181.86 267.264838,180.91 268.407681,179 C269.550524,177.09 270.512918,168.56 271.164539,159.83 C271.81616,151.1 272.167032,142.16 272.167032,139.44 C272.10222,137.072704 271.748747,134.722081 271.114414,132.44 C270.827105,131.422187 270.47553,130.423526 270.061796,129.45 Z" id="Path" fill="#000000"></path>
            <path d="M148.790125,145.29 C142.849457,145.131282 136.923888,144.613667 131.045985,143.74 C129.344696,143.518355 127.667023,143.143491 126.033516,142.62 L126.314214,142 L126.554813,141.36 C128.127391,141.840398 129.736756,142.191571 131.366783,142.41 C137.155472,143.267141 142.990384,143.778054 148.840249,143.94 L148.840249,144.62 L148.790125,145.29 Z" id="Path" fill="#06233C" opacity="0.6" style="mix-blend-mode: multiply;"></path>
            <path d="M259.796259,122.52 C261.782751,124.234304 263.131902,126.566545 263.625786,129.14 C264.175723,131.379152 263.58515,133.744841 262.046744,135.465247 C260.508339,137.185654 258.219373,138.040168 255.926633,137.75 C250.57059,137.248711 246.167761,133.323193 245.069626,128.07 C244.523648,125.832279 245.116044,123.469841 246.653891,121.752057 C248.191738,120.034273 250.478248,119.180954 252.768778,119.47 C255.387557,119.673063 257.862213,120.74709 259.796259,122.52 Z" id="Path" fill="#CCEBF8"></path>
            <path d="M148.489377,121.77 C146.917925,120.107322 144.664551,119.262102 142.38419,119.48 C139.767396,119.679126 137.294679,120.753845 135.366733,122.53 C133.809002,123.892502 132.628406,125.631444 131.938204,127.58 C131.313905,129.284252 131.236824,131.140075 131.717656,132.89 C132.014459,131.830995 132.463566,130.820491 133.050973,129.89 C133.690916,128.876311 134.470454,127.95733 135.366733,127.16 C137.306703,125.409936 139.775831,124.354371 142.38419,124.16 C144.666182,123.944639 146.91982,124.793649 148.489377,126.46 C148.820122,126.82851 149.106138,127.234649 149.341496,127.67 C149.573738,128.099988 149.761826,128.552286 149.902893,129.02 C150.253669,127.763523 150.318744,126.444767 150.093367,125.16 C149.885609,123.903052 149.330081,122.728956 148.489377,121.77 L148.489377,121.77 Z" id="Path" fill="#FFFFFF"></path>
            <path d="M259.826334,127.13 C260.722613,127.92733 261.502151,128.846311 262.142095,129.86 C262.733481,130.788371 263.182856,131.799478 263.475411,132.86 C263.956243,131.110075 263.879162,129.254252 263.254863,127.55 C262.564662,125.601444 261.384065,123.862502 259.826334,122.5 C257.898389,120.723845 255.425671,119.649126 252.808878,119.45 C250.528517,119.232102 248.275142,120.077322 246.703691,121.74 C245.876222,122.676642 245.321521,123.821326 245.099701,125.05 C244.874323,126.334767 244.939398,127.653523 245.290175,128.91 C245.431242,128.442286 245.619329,127.989988 245.851571,127.56 C246.0904,127.126798 246.376149,126.721038 246.703691,126.35 C248.273248,124.683649 250.526886,123.834639 252.808878,124.05 C255.42709,124.266601 257.897371,125.350821 259.826334,127.13 Z" id="Path" fill="#FFFFFF"></path>
            <path d="M250.69358,162.65 C250.702648,160.267162 252.396146,158.221774 254.740174,157.762611 C257.084202,157.303448 259.427363,158.558111 260.33908,160.760587 C261.250797,162.963062 260.477708,165.50129 258.491808,166.8256 C256.505908,168.149909 253.859073,167.892278 252.167282,166.21 C251.219194,165.267243 250.688554,163.985354 250.69358,162.65 L250.69358,162.65 Z" id="Path" fill="#CCEBF8"></path>
            <path d="M246.332768,145.29 L246.332768,144.61 L246.332768,143.93 C252.182633,143.768054 258.017546,143.257141 263.806234,142.4 C265.436261,142.181571 267.045626,141.830398 268.618204,141.35 L268.858803,141.99 L269.099401,142.62 C267.466407,143.145366 265.78856,143.520269 264.086933,143.74 C258.205715,144.614069 252.276785,145.131685 246.332768,145.29 L246.332768,145.29 Z" id="Path" fill="#06233C" opacity="0.6" style="mix-blend-mode: multiply;"></path>
            <path d="M213.861995,82.86 L206.283142,82.79 L198.704289,82.72 L198.704289,82.72 L198.704289,82.72 L196.488778,82.72 L196.488778,82.72 L196.488778,82.72 L188.909925,82.79 L181.331072,82.86 C181.142444,82.8606054 180.967732,82.95911 180.869925,83.12 C180.778964,83.2850166 180.778964,83.4849834 180.869925,83.65 L181.481446,84.85 L182.092968,86.04 C182.143236,86.1268088 182.211612,86.2018342 182.293466,86.26 C182.381991,86.3108609 182.482044,86.3383929 182.58419,86.34 L193.240698,86.34 C193.403496,87.3988545 193.898332,88.3790629 194.654214,89.14 C195.398739,89.9971023 196.479654,90.4895166 197.616584,90.4895166 C198.753513,90.4895166 199.834428,89.9971023 200.578953,89.14 C201.338854,88.3819542 201.834392,87.4003538 201.992469,86.34 L212.628928,86.34 C212.731074,86.3383929 212.831126,86.3108609 212.919651,86.26 C213.001506,86.2018342 213.069881,86.1268088 213.12015,86.04 L213.731671,84.85 L214.343192,83.65 C214.434153,83.4849834 214.434153,83.2850166 214.343192,83.12 C214.241751,82.9528867 214.057734,82.8534588 213.861995,82.86 L213.861995,82.86 Z" id="Path" fill="#06233C" opacity="0.6" style="mix-blend-mode: multiply;"></path>
            <path d="M217.260449,77.91 C216.257955,77.82 214.954713,77.74 213.1402,77.67 C211.325686,77.6 209.050025,77.55 206.233017,77.51 L202.60399,77.51 C201.350873,77.51 200.067681,77.51 198.744389,77.51 L196.889776,77.51 C195.556459,77.51 194.273267,77.51 193.02015,77.51 L189.401147,77.51 C186.58414,77.51 184.308479,77.61 182.493965,77.67 C180.679451,77.73 179.326085,77.82 178.373716,77.91 C168.00793,78.5 161.902743,79.56 158.32384,80.6 C154.744938,81.64 153.63217,82.6 153.311372,83.1 C153.27781,83.1480796 153.27781,83.2119204 153.311372,83.26 C153.33565,83.3155127 153.391013,83.3510149 153.451721,83.3500212 L242.262643,83.3500212 C242.319454,83.3468956 242.371469,83.3172465 242.402993,83.27 C242.433888,83.2211189 242.433888,83.1588811 242.402993,83.11 C242.092219,82.66 241.019551,81.65 237.390524,80.61 C233.761496,79.57 227.666334,78.5 217.260449,77.91 Z" id="Path" fill="#C5D9EA"></path>
            <path d="M163.627032,83.3500212 C165.411471,83.04 167.496658,82.76 169.942743,82.5 C172.388828,82.24 175.175761,82.01 178.373716,81.83 C179.326085,81.74 180.679451,81.66 182.493965,81.6 C184.308479,81.54 186.58414,81.47 189.401147,81.44 C190.56404,81.44 191.777057,81.44 193.02015,81.44 L196.889776,81.44 L198.744389,81.44 L202.60399,81.44 C203.847082,81.44 205.0601,81.44 206.233017,81.44 C209.050025,81.44 211.325686,81.53 213.1402,81.6 C214.954713,81.67 216.298055,81.74 217.260449,81.83 C220.458404,82.01 223.275411,82.24 225.691421,82.5 C228.107431,82.76 230.212668,83.04 231.997107,83.3500212 L242.222544,83.3500212 C242.279354,83.3468956 242.331369,83.3172465 242.362893,83.27 C242.393789,83.2211189 242.393789,83.1588811 242.362893,83.11 C242.05212,82.66 240.979451,81.65 237.350424,80.61 C233.721397,79.57 227.636259,78.5 217.230374,77.91 C216.22788,77.82 214.924638,77.74 213.110125,77.67 C211.295611,77.6 209.01995,77.55 206.202943,77.51 L202.573915,77.51 C201.320798,77.51 200.037606,77.51 198.714314,77.51 L196.889776,77.51 C195.556459,77.51 194.273267,77.51 193.02015,77.51 L189.401147,77.51 C186.58414,77.51 184.308479,77.61 182.493965,77.67 C180.679451,77.73 179.326085,77.82 178.373716,77.91 C168.00793,78.5 161.902743,79.56 158.32384,80.6 C154.744938,81.64 153.63217,82.6 153.311372,83.1 C153.27781,83.1480796 153.27781,83.2119204 153.311372,83.26 C153.33565,83.3155127 153.391013,83.3510149 153.451721,83.3500212 L163.667132,83.3500212 L163.627032,83.3500212 Z" id="Path" fill="#FFFFFF"></path>
            <path d="M176.910075,132.94 C176.549177,131.8 175.205835,127.65 173.431421,123.2 C171.657007,118.75 169.421446,114 167.306185,111.65 L161.471671,111.81 L156.459202,111.97 C157.663801,113.764812 158.700719,115.66612 159.556908,117.65 C161.92882,122.951781 163.938397,128.407575 165.57187,133.98 C167.129311,133.571543 168.713909,133.274126 170.313666,133.09 C171.526683,132.95 172.318653,132.94 172.318653,132.94 L176.9602,132.94 L176.910075,132.94 Z" id="Path" fill="#FFFFFF"></path>
            <path d="M229.16005,134.14 C230.812133,128.475222 232.848553,122.92909 235.255212,117.54 C236.105886,115.580767 237.139679,113.705819 238.342893,111.94 C236.809077,111.88 235.094813,111.83 233.270274,111.78 L227.49591,111.63 C225.360599,113.96 223.135062,118.72 221.350623,123.18 C219.566185,127.64 218.222843,131.8 217.861945,132.94 L221.922045,132.94 C221.922045,132.94 222.74409,132.94 224.067382,133.12 C225.790324,133.318745 227.493737,133.659918 229.16005,134.14 L229.16005,134.14 Z" id="Path" fill="#FFFFFF"></path>
            <path d="M239.505786,140.63 C238.197206,138.917717 236.553222,137.488764 234.673766,136.43 C232.937521,135.442865 231.085562,134.673695 229.16005,134.14 C227.493157,133.666679 225.789752,133.332197 224.067382,133.14 C222.74409,132.98 221.922045,132.96 221.922045,132.96 L172.268529,132.96 C172.268529,132.96 171.516658,132.96 170.263541,133.11 C168.663785,133.294126 167.079186,133.591543 165.521746,134 C163.511942,134.520133 161.575406,135.289461 159.757406,136.29 C157.767015,137.367702 156.027972,138.85363 154.654713,140.65 C151.847731,144.39 150.594613,146.9 150.063292,148.72 C149.700619,149.983659 149.615138,151.310428 149.812668,152.61 C149.983681,153.978822 150.320297,155.321939 150.815162,156.61 C151.293025,158.044247 152.07228,159.360231 153.100848,160.47 C154.043192,161.34 158.113317,161.89 162.454115,162.23 C166.794913,162.57 171.476559,162.71 173.65197,162.75 C175.656958,162.8 180.799751,162.8 185.812219,162.75 L197.04015,162.75 L208.26808,162.75 C213.280549,162.75 218.433367,162.75 220.418304,162.75 C222.583691,162.75 227.255312,162.57 231.61616,162.23 C235.977007,161.89 240.037107,161.34 240.969426,160.47 C241.997677,159.358247 242.779864,158.043081 243.265137,156.61 C243.76565,155.323723 244.102443,153.9799 244.267631,152.61 C244.475637,151.3109 244.39001,149.981853 244.017007,148.72 C243.605985,146.88 242.302743,144.37 239.505786,140.63 Z" id="Path" fill="#06233C" opacity="0.6" style="mix-blend-mode: multiply;"></path>
            <path d="M172.910125,157.71 L223.55611,157.71 C223.873426,157.70765 224.170892,157.555579 224.358105,157.3 C224.580499,157.014596 224.69735,156.661384 224.689353,156.3 L224.689353,144.8 C224.696531,144.438738 224.579768,144.085792 224.358105,143.8 C224.170892,143.544421 223.873426,143.39235 223.55611,143.39 L172.910125,143.39 C172.592808,143.39235 172.295343,143.544421 172.10813,143.8 C171.886466,144.085792 171.769703,144.438738 171.776881,144.8 L171.776881,156.3 C171.768884,156.661384 171.885735,157.014596 172.10813,157.3 C172.295343,157.555579 172.592808,157.70765 172.910125,157.71 Z" id="Path" fill="#FFFFFF"></path>
            <polygon id="Path" fill="#FFE700" points="175.747182 136.07 171.496608 136.07 167.25606 136.07 165.722244 136.07 164.188429 136.07 164.188429 137.6 164.188429 139.13 164.188429 143.37 164.188429 147.6 165.722244 147.6 167.25606 147.6 167.25606 143.37 167.25606 139.13 171.496608 139.13 175.747182 139.13 175.747182 137.6"></polygon>
            <polygon id="Path" fill="#FFE700" points="229.89187 136.07 225.651322 136.07 221.400748 136.07 221.400748 137.6 221.400748 139.13 225.651322 139.13 229.89187 139.13 229.89187 143.37 229.89187 147.6 231.425686 147.6 232.959501 147.6 232.959501 143.37 232.959501 139.13 232.959501 137.6 232.959501 136.07 231.425686 136.07"></polygon>
            <polygon id="Path" fill="#FFE700" points="229.89187 153.13 229.89187 157.36 229.89187 161.6 225.651322 161.6 221.400748 161.6 221.400748 163.13 221.400748 164.66 225.651322 164.66 229.89187 164.66 231.425686 164.66 232.959501 164.66 232.959501 163.13 232.959501 161.6 232.959501 157.36 232.959501 153.13 231.425686 153.13"></polygon>
            <polygon id="Path" fill="#FFE700" points="167.25606 161.6 167.25606 157.36 167.25606 153.13 165.722244 153.13 164.188429 153.13 164.188429 157.36 164.188429 161.6 164.188429 163.13 164.188429 164.66 165.722244 164.66 167.25606 164.66 171.496608 164.66 175.747182 164.66 175.747182 163.13 175.747182 161.6 171.496608 161.6"></polygon>
            <path d="M130.755262,102.21 C128.594069,102.178885 126.481884,102.853103 124.740299,104.13 C123.219913,105.202034 122.292,106.923658 122.234065,108.78 C122.23524,109.170809 122.282345,109.560133 122.374414,109.94 C122.465646,110.316127 122.596707,110.681514 122.765387,111.03 C123.434006,109.696002 124.512283,108.609897 125.843042,107.93 C127.361006,107.114176 129.061137,106.6945 130.785337,106.71 C132.365143,106.655911 133.924213,107.081322 135.256459,107.93 C136.366317,108.667771 137.190379,109.761435 137.592269,111.03 C137.711628,110.673766 137.805431,110.309513 137.872968,109.94 C137.933271,109.556266 137.963437,109.16842 137.963192,108.78 C138.012807,107.049152 137.358316,105.371907 136.148678,104.13 C134.68273,102.792776 132.738719,102.100728 130.755262,102.21 L130.755262,102.21 Z" id="Path" fill="#FFFFFF"></path>
            <path d="M265.530524,106.71 C267.254723,106.6945 268.954854,107.114176 270.472818,107.93 C271.799039,108.616066 272.875626,109.70047 273.550474,111.03 C273.719153,110.681514 273.850214,110.316127 273.941446,109.94 C274.030141,109.559735 274.07388,109.170416 274.071843,108.78 C274.017723,106.925032 273.093359,105.203103 271.575561,104.13 C269.832631,102.855736 267.721354,102.181808 265.560599,102.21 C263.587034,102.106632 261.654568,102.798428 260.197257,104.13 C258.980993,105.368351 258.322295,107.047103 258.372718,108.78 C258.375788,109.168681 258.409307,109.556529 258.472968,109.94 C258.537124,110.309285 258.627578,110.673541 258.743641,111.03 C259.152642,109.765098 259.975098,108.673566 261.079451,107.93 C262.407532,107.088657 263.957934,106.663705 265.530524,106.71 Z" id="Path" fill="#FFFFFF"></path>
            <path d="M179.807282,148.22 L180.138105,148.79 L180.478953,149.36 L180.829825,149.98 L181.140599,150.55 L181.451372,149.95 C181.561646,149.74 181.681945,149.54 181.782195,149.37 L182.102993,148.79 L182.433815,148.22 L183.777157,148.22 L182.774663,149.73 L181.77217,151.23 L182.774663,152.83 L183.777157,154.43 L182.453865,154.43 L182.143092,153.9 L181.822294,153.36 C181.71202,153.17 181.551621,152.9 181.411272,152.64 C181.270923,152.38 181.150623,152.14 181.080449,152.01 L180.719551,152.64 C180.569177,152.9 180.398753,153.17 180.278454,153.36 L179.957656,153.9 L179.626833,154.43 L178.203292,154.43 L179.265935,152.83 L180.328579,151.23 L179.326085,149.73 L178.323591,148.22 L179.827332,148.22 L179.807282,148.22 Z" id="Path" fill="#023852"></path>
            <path d="M185.832269,148.22 L186.163092,148.79 L186.50394,149.36 L186.854813,149.98 L187.165586,150.55 L187.476359,149.95 C187.586633,149.74 187.706933,149.54 187.807182,149.37 L188.12798,148.79 L188.458803,148.22 L189.802145,148.22 L188.799651,149.73 L187.797157,151.23 L188.799651,152.83 L189.802145,154.43 L188.468828,154.43 L188.158055,153.9 L187.837257,153.36 C187.726983,153.17 187.566584,152.9 187.426234,152.64 C187.285885,152.38 187.165586,152.14 187.095411,152.01 L186.734514,152.64 C186.58414,152.9 186.413716,153.17 186.293416,153.36 L185.972618,153.9 L185.641796,154.43 L184.218254,154.43 L185.280898,152.83 L186.343541,151.23 L185.341047,149.73 L184.338554,148.22 L185.842294,148.22 L185.832269,148.22 Z" id="Path" fill="#023852"></path>
            <path d="M194.082793,148.22 L194.423641,148.79 L194.754464,149.36 L195.105337,149.98 C195.225636,150.18 195.33591,150.38 195.426135,150.55 L195.736908,149.95 C195.847182,149.74 195.957456,149.54 196.057706,149.37 L196.388529,148.79 L196.719352,148.22 L198.052668,148.22 L197.100299,149.73 L196.097805,151.23 L197.100299,152.83 L198.102793,154.43 L196.609077,154.43 L196.288279,153.9 L195.977506,153.36 C195.857207,153.17 195.706833,152.9 195.566484,152.64 C195.426135,152.38 195.29581,152.14 195.235661,152.01 C195.165486,152.14 195.025137,152.38 194.864738,152.64 C194.704339,152.9 194.553965,153.17 194.433666,153.36 L194.102843,153.9 L193.782045,154.43 L192.478803,154.43 L193.541446,152.83 L194.60409,151.23 L193.601596,149.73 L192.599102,148.22 L194.092818,148.22 L194.082793,148.22 Z" id="Path" fill="#023852"></path>
            <path d="M200.107781,148.22 L200.448628,148.79 L200.779451,149.36 L201.130324,149.98 C201.250623,150.18 201.350873,150.38 201.451122,150.55 L201.761895,149.95 C201.87217,149.74 201.982444,149.54 202.082693,149.37 L202.413516,148.79 L202.744339,148.22 L204.077656,148.22 L203.125287,149.73 L202.122793,151.23 L203.125287,152.83 L204.127781,154.43 L202.634065,154.43 L202.313267,153.9 L202.002494,153.36 C201.882195,153.17 201.73182,152.9 201.591471,152.64 C201.451122,152.38 201.320798,152.14 201.260648,152.01 C201.190474,152.14 201.050125,152.38 200.889726,152.64 C200.729327,152.9 200.578953,153.17 200.458653,153.36 L200.12783,153.9 L199.807032,154.43 L198.493766,154.43 L199.556409,152.83 L200.619052,151.23 L199.616559,149.73 L198.614065,148.22 L200.107781,148.22 L200.107781,148.22 Z" id="Path" fill="#023852"></path>
            <path d="M206.132768,148.22 L206.473616,148.79 L206.804439,149.36 L207.155312,149.98 C207.275611,150.18 207.37586,150.38 207.47611,150.55 L207.786883,149.95 C207.897157,149.74 208.007431,149.54 208.107681,149.37 L208.438504,148.79 L208.769327,148.22 L210.102643,148.22 L209.10015,149.73 L208.097656,151.23 L209.10015,152.83 L210.102643,154.43 L208.608928,154.43 L208.28813,153.9 L207.977357,153.36 C207.857057,153.17 207.706683,152.9 207.566334,152.64 C207.425985,152.38 207.295661,152.14 207.235511,152.01 C207.165337,152.14 207.024988,152.38 206.864589,152.64 C206.70419,152.9 206.553815,153.17 206.433516,153.36 L206.102693,153.9 L205.781895,154.43 L204.508728,154.43 L205.571372,152.83 L206.634015,151.23 L205.631521,149.73 L204.629027,148.22 L206.122743,148.22 L206.132768,148.22 Z" id="Path" fill="#023852"></path>
            <path d="M212.157756,148.22 L212.488579,148.79 L212.829426,149.36 L213.180299,149.98 C213.300599,150.18 213.400848,150.38 213.501097,150.55 C213.591322,150.38 213.691571,150.16 213.81187,149.95 C213.93217,149.74 214.032419,149.54 214.132668,149.37 L214.463491,148.79 L214.794314,148.22 L216.127631,148.22 L215.125137,149.73 L214.122643,151.23 L215.125137,152.83 L216.127631,154.43 L214.64394,154.43 L214.323142,153.9 L214.002344,153.36 L213.601347,152.64 C213.480211,152.435856 213.369788,152.225573 213.270524,152.01 L212.899601,152.64 C212.749227,152.9 212.588828,153.17 212.468529,153.36 L212.137706,153.9 L211.816908,154.43 L210.523691,154.43 L211.586334,152.83 L212.648978,151.23 L211.646484,149.73 L210.64399,148.22 L212.137706,148.22 L212.157756,148.22 Z" id="Path" fill="#023852"></path>
        </g>
    </g>
</svg>