<?xml version="1.0" encoding="UTF-8"?>
<svg width="440px" height="330px" viewBox="0 0 440 330" version="1.1" xmlns="http://www.w3.org/2000/svg" xmlns:xlink="http://www.w3.org/1999/xlink">
    <title>Graphic elements / Icons / Rich icons / Marketplace / Practice-IT-Hardware-and-Equipment</title>
    <defs>
        <linearGradient x1="5.64370719e-14%" y1="50%" x2="100%" y2="50%" id="linearGradient-1">
            <stop stop-color="#FFFFFF" offset="0%"></stop>
            <stop stop-color="#0099DA" offset="100%"></stop>
        </linearGradient>
        <linearGradient x1="416.629213%" y1="623.208576%" x2="384.044944%" y2="572.254358%" id="linearGradient-2">
            <stop stop-color="#FFFFFF" stop-opacity="0" offset="0%"></stop>
            <stop stop-color="#FBFBFC" stop-opacity="0.04" offset="11%"></stop>
            <stop stop-color="#EFF2F3" stop-opacity="0.16" offset="28%"></stop>
            <stop stop-color="#DCE2E6" stop-opacity="0.35" offset="48%"></stop>
            <stop stop-color="#C2CCD2" stop-opacity="0.62" offset="71%"></stop>
            <stop stop-color="#A1B1BA" stop-opacity="0.96" offset="97%"></stop>
            <stop stop-color="#9DADB7" offset="100%"></stop>
        </linearGradient>
        <linearGradient x1="-0.0646412411%" y1="50%" x2="100%" y2="50%" id="linearGradient-3">
            <stop stop-color="#FFFFFF" offset="0%"></stop>
            <stop stop-color="#0099DA" offset="100%"></stop>
        </linearGradient>
        <linearGradient x1="-0.148975791%" y1="49.9661308%" x2="100%" y2="49.9661308%" id="linearGradient-4">
            <stop stop-color="#FFFFFF" offset="0%"></stop>
            <stop stop-color="#0099DA" offset="100%"></stop>
        </linearGradient>
        <linearGradient x1="0.0226513925%" y1="50%" x2="100%" y2="50%" id="linearGradient-5">
            <stop stop-color="#FFFFFF" offset="0%"></stop>
            <stop stop-color="#0099DA" offset="100%"></stop>
        </linearGradient>
        <linearGradient x1="-0.0141023833%" y1="49.9896758%" x2="100%" y2="49.9896758%" id="linearGradient-6">
            <stop stop-color="#FFFFFF" stop-opacity="0" offset="0%"></stop>
            <stop stop-color="#FBFBFC" stop-opacity="0.04" offset="11%"></stop>
            <stop stop-color="#EFF2F3" stop-opacity="0.16" offset="28%"></stop>
            <stop stop-color="#DCE2E6" stop-opacity="0.35" offset="48%"></stop>
            <stop stop-color="#C2CCD2" stop-opacity="0.62" offset="71%"></stop>
            <stop stop-color="#A1B1BA" stop-opacity="0.96" offset="97%"></stop>
            <stop stop-color="#9DADB7" offset="100%"></stop>
        </linearGradient>
        <linearGradient x1="-0.0207556197%" y1="50%" x2="100%" y2="50%" id="linearGradient-7">
            <stop stop-color="#FFFFFF" offset="0%"></stop>
            <stop stop-color="#0099DA" offset="100%"></stop>
        </linearGradient>
        <linearGradient x1="-0.00112679494%" y1="49.9860359%" x2="99.9842587%" y2="49.9860359%" id="linearGradient-8">
            <stop stop-color="#FFFFFF" stop-opacity="0" offset="0%"></stop>
            <stop stop-color="#FBFBFC" stop-opacity="0.04" offset="11%"></stop>
            <stop stop-color="#EFF2F3" stop-opacity="0.16" offset="28%"></stop>
            <stop stop-color="#DCE2E6" stop-opacity="0.35" offset="48%"></stop>
            <stop stop-color="#C2CCD2" stop-opacity="0.62" offset="71%"></stop>
            <stop stop-color="#A1B1BA" stop-opacity="0.96" offset="97%"></stop>
            <stop stop-color="#9DADB7" offset="100%"></stop>
        </linearGradient>
        <linearGradient x1="-0.0804283341%" y1="50.0281479%" x2="99.6373898%" y2="50.0281479%" id="linearGradient-9">
            <stop stop-color="#FFFFFF" stop-opacity="0" offset="0%"></stop>
            <stop stop-color="#FBFBFC" stop-opacity="0.04" offset="11%"></stop>
            <stop stop-color="#EFF2F3" stop-opacity="0.16" offset="28%"></stop>
            <stop stop-color="#DCE2E6" stop-opacity="0.35" offset="48%"></stop>
            <stop stop-color="#C2CCD2" stop-opacity="0.62" offset="71%"></stop>
            <stop stop-color="#A1B1BA" stop-opacity="0.96" offset="97%"></stop>
            <stop stop-color="#9DADB7" offset="100%"></stop>
        </linearGradient>
        <linearGradient x1="0.0304508723%" y1="49.9776926%" x2="99.9653262%" y2="49.9776926%" id="linearGradient-10">
            <stop stop-color="#FFFFFF" stop-opacity="0" offset="0%"></stop>
            <stop stop-color="#FBFBFC" stop-opacity="0.04" offset="11%"></stop>
            <stop stop-color="#EFF2F3" stop-opacity="0.16" offset="28%"></stop>
            <stop stop-color="#DCE2E6" stop-opacity="0.35" offset="48%"></stop>
            <stop stop-color="#C2CCD2" stop-opacity="0.62" offset="71%"></stop>
            <stop stop-color="#A1B1BA" stop-opacity="0.96" offset="97%"></stop>
            <stop stop-color="#9DADB7" offset="100%"></stop>
        </linearGradient>
        <linearGradient x1="0%" y1="50.0053861%" x2="100.022948%" y2="50.0053861%" id="linearGradient-11">
            <stop stop-color="#FFFFFF" offset="0%"></stop>
            <stop stop-color="#0099DA" offset="100%"></stop>
        </linearGradient>
    </defs>
    <g id="Graphic-elements-/-Icons-/-Rich-icons-/-Marketplace-/-Practice-IT-Hardware-and-Equipment" stroke="none" stroke-width="1" fill="none" fill-rule="evenodd">
        <g id="IT-Hardware-and-Equipment" transform="translate(65.000000, 0.000000)">
            <g id="Midlayer" transform="translate(184.441088, 0.788309)" stroke="#023852">
                <rect id="Rectangle" x="0.176228564" y="0.225210401" width="125.271397" height="251.866304"></rect>
                <polygon id="Path" stroke-width="0.98" points="111.69276 33.1734921 13.9356126 33.1734921 13.9356126 14.9134328 19.385142 14.9134328 111.69276 14.9134328"></polygon>
                <polygon id="Path" stroke-width="0.98" points="111.69276 61.3247923 13.9356126 61.3247923 13.9356126 39.3127277 19.385142 39.3127277 111.69276 39.3127277"></polygon>
                <line x1="20.4470321" y1="14.9134328" x2="20.4470321" y2="32.9933238" id="Path" stroke-width="1.01"></line>
                <line x1="26.9629703" y1="14.9134328" x2="26.9629703" y2="32.9933238" id="Path" stroke-width="1.01"></line>
                <line x1="33.4834272" y1="14.9134328" x2="33.4834272" y2="32.9933238" id="Path" stroke-width="1.01"></line>
                <line x1="39.9993653" y1="14.9134328" x2="39.9993653" y2="32.9933238" id="Path" stroke-width="1.01"></line>
                <line x1="46.5198222" y1="14.9134328" x2="46.5198222" y2="32.9933238" id="Path" stroke-width="1.01"></line>
                <line x1="79.1085505" y1="14.9134328" x2="79.1085505" y2="32.9933238" id="Path" stroke-width="1.01"></line>
                <line x1="85.6290074" y1="14.9134328" x2="85.6290074" y2="32.9933238" id="Path" stroke-width="1.01"></line>
                <line x1="92.1449456" y1="14.9134328" x2="92.1449456" y2="32.9933238" id="Path" stroke-width="1.01"></line>
                <line x1="98.6654024" y1="14.9134328" x2="98.6654024" y2="32.9933238" id="Path" stroke-width="1.01"></line>
                <line x1="105.181341" y1="14.9134328" x2="105.181341" y2="32.9933238" id="Path" stroke-width="1.01"></line>
                <ellipse id="Oval" stroke-width="0.98" cx="23.6055902" cy="50.3165079" rx="3.74598665" ry="3.73398845"></ellipse>
                <rect id="Rectangle" stroke-width="0.98" x="36.0319633" y="44.1187176" width="1.57701971" height="4.7159058"></rect>
                <rect id="Rectangle" stroke-width="0.98" x="39.9722533" y="44.1187176" width="1.57701971" height="4.7159058"></rect>
                <rect id="Rectangle" stroke-width="0.98" x="43.9170619" y="44.1187176" width="1.57701971" height="4.7159058"></rect>
                <rect id="Rectangle" stroke-width="0.98" x="47.8573518" y="44.1187176" width="1.57701971" height="4.7159058"></rect>
                <rect id="Rectangle" stroke-width="0.98" x="51.7976418" y="44.1187176" width="1.57701971" height="4.7159058"></rect>
                <rect id="Rectangle" x="55.7424504" y="44.1187176" width="53.2662131" height="4.7159058"></rect>
                <rect id="Rectangle" stroke-width="0.98" transform="translate(108.220154, 54.156345) rotate(180.000000) translate(-108.220154, -54.156345) " x="107.431644" y="51.7983923" width="1.57701971" height="4.7159058"></rect>
                <rect id="Rectangle" stroke-width="0.98" transform="translate(104.275345, 54.156345) rotate(180.000000) translate(-104.275345, -54.156345) " x="103.486835" y="51.7983923" width="1.57701971" height="4.7159058"></rect>
                <rect id="Rectangle" stroke-width="0.98" transform="translate(100.335055, 54.156345) rotate(180.000000) translate(-100.335055, -54.156345) " x="99.5465452" y="51.7983923" width="1.57701971" height="4.7159058"></rect>
                <rect id="Rectangle" stroke-width="0.98" transform="translate(96.390246, 54.156345) rotate(180.000000) translate(-96.390246, -54.156345) " x="95.6017366" y="51.7983923" width="1.57701971" height="4.7159058"></rect>
                <rect id="Rectangle" stroke-width="0.98" transform="translate(92.454475, 54.156345) rotate(180.000000) translate(-92.454475, -54.156345) " x="91.6659654" y="51.7983923" width="1.57701971" height="4.7159058"></rect>
                <rect id="Rectangle" transform="translate(62.665070, 54.156345) rotate(180.000000) translate(-62.665070, -54.156345) " x="36.0319633" y="51.7983923" width="53.2662131" height="4.7159058"></rect>
                <polygon id="Path" stroke-width="0.98" points="111.69276 90.3183794 13.9356126 90.3183794 13.9356126 68.3108189 19.385142 68.3108189 111.69276 68.3108189"></polygon>
                <ellipse id="Oval" stroke-width="0.98" cx="23.6055902" cy="79.3145992" rx="3.74598665" ry="3.73398845"></ellipse>
                <rect id="Rectangle" stroke-width="0.98" x="36.0319633" y="73.1168089" width="1.57701971" height="4.7159058"></rect>
                <rect id="Rectangle" stroke-width="0.98" x="39.9722533" y="73.1168089" width="1.57701971" height="4.7159058"></rect>
                <rect id="Rectangle" stroke-width="0.98" x="43.9170619" y="73.1168089" width="1.57701971" height="4.7159058"></rect>
                <rect id="Rectangle" stroke-width="0.98" x="47.8573518" y="73.1168089" width="1.57701971" height="4.7159058"></rect>
                <rect id="Rectangle" stroke-width="0.98" x="51.7976418" y="73.1168089" width="1.57701971" height="4.7159058"></rect>
                <rect id="Rectangle" x="55.7424504" y="73.1168089" width="53.2662131" height="4.7159058"></rect>
                <rect id="Rectangle" stroke-width="0.98" transform="translate(108.220154, 83.154437) rotate(180.000000) translate(-108.220154, -83.154437) " x="107.431644" y="80.7964836" width="1.57701971" height="4.7159058"></rect>
                <rect id="Rectangle" stroke-width="0.98" transform="translate(104.275345, 83.154437) rotate(180.000000) translate(-104.275345, -83.154437) " x="103.486835" y="80.7964836" width="1.57701971" height="4.7159058"></rect>
                <rect id="Rectangle" stroke-width="0.98" transform="translate(100.335055, 83.154437) rotate(180.000000) translate(-100.335055, -83.154437) " x="99.5465452" y="80.7964836" width="1.57701971" height="4.7159058"></rect>
                <rect id="Rectangle" stroke-width="0.98" transform="translate(96.390246, 83.154437) rotate(180.000000) translate(-96.390246, -83.154437) " x="95.6017366" y="80.7964836" width="1.57701971" height="4.7159058"></rect>
                <rect id="Rectangle" stroke-width="0.98" transform="translate(92.454475, 83.154437) rotate(180.000000) translate(-92.454475, -83.154437) " x="91.6659654" y="80.7964836" width="1.57701971" height="4.7159058"></rect>
                <rect id="Rectangle" transform="translate(62.665070, 83.154437) rotate(180.000000) translate(-62.665070, -83.154437) " x="36.0319633" y="80.7964836" width="53.2662131" height="4.7159058"></rect>
                <polygon id="Path" stroke-width="0.98" points="111.69276 119.311966 13.9356126 119.311966 13.9356126 97.304406 19.385142 97.304406 111.69276 97.304406"></polygon>
                <ellipse id="Oval" stroke-width="0.98" cx="23.6055902" cy="108.308186" rx="3.74598665" ry="3.73398845"></ellipse>
                <rect id="Rectangle" stroke-width="0.98" x="36.0319633" y="102.110396" width="1.57701971" height="4.7159058"></rect>
                <rect id="Rectangle" stroke-width="0.98" x="39.9722533" y="102.110396" width="1.57701971" height="4.7159058"></rect>
                <rect id="Rectangle" stroke-width="0.98" x="43.9170619" y="102.110396" width="1.57701971" height="4.7159058"></rect>
                <rect id="Rectangle" stroke-width="0.98" x="47.8573518" y="102.110396" width="1.57701971" height="4.7159058"></rect>
                <rect id="Rectangle" stroke-width="0.98" x="51.7976418" y="102.110396" width="1.57701971" height="4.7159058"></rect>
                <rect id="Rectangle" x="55.7424504" y="102.110396" width="53.2662131" height="4.7159058"></rect>
                <rect id="Rectangle" stroke-width="0.98" transform="translate(108.220154, 112.148024) rotate(180.000000) translate(-108.220154, -112.148024) " x="107.431644" y="109.790071" width="1.57701971" height="4.7159058"></rect>
                <rect id="Rectangle" stroke-width="0.98" transform="translate(104.275345, 112.148024) rotate(180.000000) translate(-104.275345, -112.148024) " x="103.486835" y="109.790071" width="1.57701971" height="4.7159058"></rect>
                <rect id="Rectangle" stroke-width="0.98" transform="translate(100.335055, 112.148024) rotate(180.000000) translate(-100.335055, -112.148024) " x="99.5465452" y="109.790071" width="1.57701971" height="4.7159058"></rect>
                <rect id="Rectangle" stroke-width="0.98" transform="translate(96.390246, 112.148024) rotate(180.000000) translate(-96.390246, -112.148024) " x="95.6017366" y="109.790071" width="1.57701971" height="4.7159058"></rect>
                <rect id="Rectangle" stroke-width="0.98" transform="translate(92.454475, 112.148024) rotate(180.000000) translate(-92.454475, -112.148024) " x="91.6659654" y="109.790071" width="1.57701971" height="4.7159058"></rect>
                <rect id="Rectangle" transform="translate(62.665070, 112.148024) rotate(180.000000) translate(-62.665070, -112.148024) " x="36.0319633" y="109.790071" width="53.2662131" height="4.7159058"></rect>
                <polygon id="Path" stroke-width="0.98" points="111.69276 148.310058 13.9356126 148.310058 13.9356126 126.302497 19.385142 126.302497 111.69276 126.302497"></polygon>
                <ellipse id="Oval" stroke-width="0.98" cx="23.6055902" cy="137.306278" rx="3.74598665" ry="3.73398845"></ellipse>
                <rect id="Rectangle" stroke-width="0.98" x="36.0319633" y="131.108487" width="1.57701971" height="4.7159058"></rect>
                <rect id="Rectangle" stroke-width="0.98" x="39.9722533" y="131.108487" width="1.57701971" height="4.7159058"></rect>
                <rect id="Rectangle" stroke-width="0.98" x="43.9170619" y="131.108487" width="1.57701971" height="4.7159058"></rect>
                <rect id="Rectangle" stroke-width="0.98" x="47.8573518" y="131.108487" width="1.57701971" height="4.7159058"></rect>
                <rect id="Rectangle" stroke-width="0.98" x="51.7976418" y="131.108487" width="1.57701971" height="4.7159058"></rect>
                <rect id="Rectangle" x="55.7424504" y="131.108487" width="53.2662131" height="4.7159058"></rect>
                <rect id="Rectangle" stroke-width="0.98" transform="translate(108.220154, 141.146115) rotate(180.000000) translate(-108.220154, -141.146115) " x="107.431644" y="138.788162" width="1.57701971" height="4.7159058"></rect>
                <rect id="Rectangle" stroke-width="0.98" transform="translate(104.275345, 141.146115) rotate(180.000000) translate(-104.275345, -141.146115) " x="103.486835" y="138.788162" width="1.57701971" height="4.7159058"></rect>
                <rect id="Rectangle" stroke-width="0.98" transform="translate(100.335055, 141.146115) rotate(180.000000) translate(-100.335055, -141.146115) " x="99.5465452" y="138.788162" width="1.57701971" height="4.7159058"></rect>
                <rect id="Rectangle" stroke-width="0.98" transform="translate(96.390246, 141.146115) rotate(180.000000) translate(-96.390246, -141.146115) " x="95.6017366" y="138.788162" width="1.57701971" height="4.7159058"></rect>
                <rect id="Rectangle" stroke-width="0.98" transform="translate(92.454475, 141.146115) rotate(180.000000) translate(-92.454475, -141.146115) " x="91.6659654" y="138.788162" width="1.57701971" height="4.7159058"></rect>
                <rect id="Rectangle" transform="translate(62.665070, 141.146115) rotate(180.000000) translate(-62.665070, -141.146115) " x="36.0319633" y="138.788162" width="53.2662131" height="4.7159058"></rect>
                <polygon id="Path" stroke-width="0.98" points="111.69276 177.308149 13.9356126 177.308149 13.9356126 155.296084 19.385142 155.296084 111.69276 155.296084"></polygon>
                <ellipse id="Oval" stroke-width="0.98" cx="23.6055902" cy="166.299865" rx="3.74598665" ry="3.73398845"></ellipse>
                <rect id="Rectangle" stroke-width="0.98" x="36.0319633" y="160.102074" width="1.57701971" height="4.7159058"></rect>
                <rect id="Rectangle" stroke-width="0.98" x="39.9722533" y="160.102074" width="1.57701971" height="4.7159058"></rect>
                <rect id="Rectangle" stroke-width="0.98" x="43.9170619" y="160.102074" width="1.57701971" height="4.7159058"></rect>
                <rect id="Rectangle" stroke-width="0.98" x="47.8573518" y="160.102074" width="1.57701971" height="4.7159058"></rect>
                <rect id="Rectangle" stroke-width="0.98" x="51.7976418" y="160.102074" width="1.57701971" height="4.7159058"></rect>
                <rect id="Rectangle" x="55.7424504" y="160.102074" width="53.2662131" height="4.7159058"></rect>
                <rect id="Rectangle" stroke-width="0.98" transform="translate(108.220154, 170.139702) rotate(180.000000) translate(-108.220154, -170.139702) " x="107.431644" y="167.781749" width="1.57701971" height="4.7159058"></rect>
                <rect id="Rectangle" stroke-width="0.98" transform="translate(104.275345, 170.139702) rotate(180.000000) translate(-104.275345, -170.139702) " x="103.486835" y="167.781749" width="1.57701971" height="4.7159058"></rect>
                <rect id="Rectangle" stroke-width="0.98" transform="translate(100.335055, 170.139702) rotate(180.000000) translate(-100.335055, -170.139702) " x="99.5465452" y="167.781749" width="1.57701971" height="4.7159058"></rect>
                <rect id="Rectangle" stroke-width="0.98" transform="translate(96.390246, 170.139702) rotate(180.000000) translate(-96.390246, -170.139702) " x="95.6017366" y="167.781749" width="1.57701971" height="4.7159058"></rect>
                <rect id="Rectangle" stroke-width="0.98" transform="translate(92.454475, 170.139702) rotate(180.000000) translate(-92.454475, -170.139702) " x="91.6659654" y="167.781749" width="1.57701971" height="4.7159058"></rect>
                <rect id="Rectangle" transform="translate(62.665070, 170.139702) rotate(180.000000) translate(-62.665070, -170.139702) " x="36.0319633" y="167.781749" width="53.2662131" height="4.7159058"></rect>
                <polygon id="Path" stroke-width="0.98" points="111.69276 206.301736 13.9356126 206.301736 13.9356126 184.294176 19.385142 184.294176 111.69276 184.294176"></polygon>
                <ellipse id="Oval" stroke-width="0.98" cx="23.6055902" cy="195.297956" rx="3.74598665" ry="3.73398845"></ellipse>
                <rect id="Rectangle" stroke-width="0.98" x="36.0319633" y="189.100166" width="1.57701971" height="4.7159058"></rect>
                <rect id="Rectangle" stroke-width="0.98" x="39.9722533" y="189.100166" width="1.57701971" height="4.7159058"></rect>
                <rect id="Rectangle" stroke-width="0.98" x="43.9170619" y="189.100166" width="1.57701971" height="4.7159058"></rect>
                <rect id="Rectangle" stroke-width="0.98" x="47.8573518" y="189.100166" width="1.57701971" height="4.7159058"></rect>
                <rect id="Rectangle" stroke-width="0.98" x="51.7976418" y="189.100166" width="1.57701971" height="4.7159058"></rect>
                <rect id="Rectangle" x="55.7424504" y="189.100166" width="53.2662131" height="4.7159058"></rect>
                <rect id="Rectangle" stroke-width="0.98" transform="translate(108.220154, 199.137793) rotate(180.000000) translate(-108.220154, -199.137793) " x="107.431644" y="196.77984" width="1.57701971" height="4.7159058"></rect>
                <rect id="Rectangle" stroke-width="0.98" transform="translate(104.275345, 199.137793) rotate(180.000000) translate(-104.275345, -199.137793) " x="103.486835" y="196.77984" width="1.57701971" height="4.7159058"></rect>
                <rect id="Rectangle" stroke-width="0.98" transform="translate(100.335055, 199.137793) rotate(180.000000) translate(-100.335055, -199.137793) " x="99.5465452" y="196.77984" width="1.57701971" height="4.7159058"></rect>
                <rect id="Rectangle" stroke-width="0.98" transform="translate(96.390246, 199.137793) rotate(180.000000) translate(-96.390246, -199.137793) " x="95.6017366" y="196.77984" width="1.57701971" height="4.7159058"></rect>
                <rect id="Rectangle" stroke-width="0.98" transform="translate(92.454475, 199.137793) rotate(180.000000) translate(-92.454475, -199.137793) " x="91.6659654" y="196.77984" width="1.57701971" height="4.7159058"></rect>
                <rect id="Rectangle" transform="translate(62.665070, 199.137793) rotate(180.000000) translate(-62.665070, -199.137793) " x="36.0319633" y="196.77984" width="53.2662131" height="4.7159058"></rect>
                <polygon id="Path" stroke-width="0.98" points="111.69276 235.299827 13.9356126 235.299827 13.9356126 213.287763 19.385142 213.287763 111.69276 213.287763"></polygon>
                <ellipse id="Oval" stroke-width="0.98" cx="23.6055902" cy="224.291543" rx="3.74598665" ry="3.73398845"></ellipse>
                <rect id="Rectangle" stroke-width="0.98" x="36.0319633" y="218.093753" width="1.57701971" height="4.7159058"></rect>
                <rect id="Rectangle" stroke-width="0.98" x="39.9722533" y="218.093753" width="1.57701971" height="4.7159058"></rect>
                <rect id="Rectangle" stroke-width="0.98" x="43.9170619" y="218.093753" width="1.57701971" height="4.7159058"></rect>
                <rect id="Rectangle" stroke-width="0.98" x="47.8573518" y="218.093753" width="1.57701971" height="4.7159058"></rect>
                <rect id="Rectangle" stroke-width="0.98" x="51.7976418" y="218.093753" width="1.57701971" height="4.7159058"></rect>
                <rect id="Rectangle" x="55.7424504" y="218.093753" width="53.2662131" height="4.7159058"></rect>
                <rect id="Rectangle" stroke-width="0.98" transform="translate(108.220154, 228.131380) rotate(180.000000) translate(-108.220154, -228.131380) " x="107.431644" y="225.773427" width="1.57701971" height="4.7159058"></rect>
                <rect id="Rectangle" stroke-width="0.98" transform="translate(104.275345, 228.131380) rotate(180.000000) translate(-104.275345, -228.131380) " x="103.486835" y="225.773427" width="1.57701971" height="4.7159058"></rect>
                <rect id="Rectangle" stroke-width="0.98" transform="translate(100.335055, 228.131380) rotate(180.000000) translate(-100.335055, -228.131380) " x="99.5465452" y="225.773427" width="1.57701971" height="4.7159058"></rect>
                <rect id="Rectangle" stroke-width="0.98" transform="translate(96.390246, 228.131380) rotate(180.000000) translate(-96.390246, -228.131380) " x="95.6017366" y="225.773427" width="1.57701971" height="4.7159058"></rect>
                <rect id="Rectangle" stroke-width="0.98" transform="translate(92.454475, 228.131380) rotate(180.000000) translate(-92.454475, -228.131380) " x="91.6659654" y="225.773427" width="1.57701971" height="4.7159058"></rect>
                <rect id="Rectangle" transform="translate(62.665070, 228.131380) rotate(180.000000) translate(-62.665070, -228.131380) " x="36.0319633" y="225.773427" width="53.2662131" height="4.7159058"></rect>
            </g>
            <g id="Ilus" transform="translate(0.000000, 36.679548)" fill-rule="nonzero">
                <path d="M78.2165627,10.2296462 L78.4057091,19.1085469 C78.4238002,19.9448058 78.2252195,20.7715241 77.8292628,21.5083715 L77.8292628,21.5083715 C77.3100232,22.4718682 77.1307426,23.5822087 77.3203687,24.6601111 L77.8742977,30.0630933 C77.9096689,30.4030675 77.7904725,30.7409534 77.5495979,30.9835195 C77.3087233,31.2260856 76.9716317,31.3476919 76.6313352,31.3147841 L75.3613519,31.193217 C74.9648615,31.1683847 74.5989209,31.4061932 74.4606545,31.7785401 L74.0103058,33.1292856 C73.9063184,33.4292124 73.6408611,33.6439755 73.3257758,33.6830913 L73.3257758,33.6830913 C72.8984496,33.7342859 72.5814586,34.1040264 72.5962109,34.534061 L72.5962109,35.1418965 C72.6025088,35.4173968 72.472839,35.6783624 72.2494424,35.8397817 L70.8713753,36.8393334 C70.601461,37.0347226 70.4556951,37.3587651 70.4885789,37.6903031 L70.4885789,37.6903031 C70.5686767,38.5364465 70.2059329,39.3639314 69.5293362,39.8785109 L68.6286388,40.5628886 C67.7810132,41.2077229 66.6402807,41.3142607 65.6878618,40.8375402 L62.5984697,39.2661729 C62.254698,39.0914253 61.8362451,39.1710247 61.5806816,39.4597797 L56.6718807,44.9438066 L44.8367168,31.4363512 L48.5070588,21.206705 L56.2080216,11.3012377 L67.1019567,5.98830523 L78.2165627,10.2296462 Z" id="Path" fill="#0099DA"></path>
                <path d="M51.7901008,25.8892895 C51.6170445,26.5537404 51.0346659,27.0304569 50.348985,27.0689406 L46.6291047,27.2850599 L44.9898354,21.7244908 C44.511966,20.1158893 44.4438504,18.4133794 44.791682,16.7717571 L46.3138606,9.56778092 C46.5191884,8.60934032 47.016322,7.7379773 47.7369625,7.07340415 L52.4070785,2.73300848 C53.9467352,1.2997077 55.9519845,0.469968584 58.0544513,0.396218692 L63.9089844,0.184601891 C64.8821284,0.185668628 65.8393142,0.431880103 66.6921394,0.900497028 L70.2543976,2.89509794 C70.7508763,3.1739552 71.331092,3.26504318 71.8891634,3.1517396 L73.1051049,2.89960043 C73.9519877,2.72736278 74.825754,3.02716853 75.3883728,3.68303284 L79.1037496,7.9964136 C79.8563653,8.86378228 80.0725174,10.0739649 79.6666855,11.1481532 L78.7119462,13.6965598 C78.6220814,14.0217653 78.4020056,14.2955004 78.1036562,14.4531643 C77.8053067,14.6108282 77.4551151,14.6384531 77.1357258,14.5295195 L71.155095,12.4808888 C70.7646578,12.3484865 70.3328561,12.4537805 70.0472372,12.7510379 L67.4982635,15.3804892 C67.1436372,15.744157 67.0022578,16.2652711 67.1244741,16.7582497 L67.4081938,17.9198908 C67.5371233,18.4390247 67.3374686,18.9843886 66.9038033,19.2976513 L64.4358924,21.0716304 C64.1471039,21.2778094 63.932358,21.5714408 63.8234181,21.9090927 L62.472372,26.1054088 C62.3512844,26.4836843 61.9568116,26.702568 61.5716746,26.6051847 L60.3692436,26.3170256 C60.1631307,26.2651761 59.9878518,26.1299983 59.8853606,25.9438472 C59.7828693,25.7576961 59.7623902,25.5373263 59.8288251,25.3354839 L60.6979981,22.7780723 C60.8516502,22.3208372 60.774459,21.8175283 60.4908377,21.4273268 L58.6579185,18.9104376 C58.3150691,18.4329236 57.82442,18.0816337 57.2618375,17.9108859 L57.2618375,17.9108859 C56.4694388,17.6643116 55.6076573,17.7954591 54.9245278,18.2665822 L54.2535082,18.7168307 C53.7002629,19.0944661 53.3070477,19.6641001 53.1501539,20.3152129 L51.7901008,25.8892895 Z" id="Path" fill="#023852"></path>
                <path d="M79.1037496,7.9964136 L75.3883728,3.68303284 C74.825754,3.02716853 73.9519877,2.72736278 73.1051049,2.89960043 L71.8891634,3.1517396 C71.331092,3.26504318 70.7508763,3.1739552 70.2543976,2.89509794 L66.6921394,0.900497028 C65.8361382,0.426539498 64.8739786,0.177146221 63.8954739,0.17559692 L58.0409408,0.387213722 C55.938474,0.460963614 53.9332247,1.29070272 52.3935681,2.72400351 L47.7369625,7.07340415 C47.0220901,7.738624 46.5298502,8.60810668 46.327371,9.56327843 L45.8770223,11.674944 C46.1273717,11.1446735 46.4757568,10.6665144 46.9038174,10.2656661 L51.5739334,5.92076796 C53.1092758,4.5000091 55.1035754,3.67722398 57.1942852,3.60198811 L63.0488184,3.39037131 C64.027972,3.39132184 64.9906429,3.64239752 65.8454838,4.1197739 L69.407742,6.10086736 C69.9042208,6.37972462 70.4844364,6.4708126 71.0425078,6.35750901 L72.2584493,6.10987233 C73.1046828,5.93356629 73.9797867,6.23210536 74.5417173,6.88880226 L78.2570941,11.202183 C78.6697836,11.6813003 78.9259419,12.2752039 78.9911624,12.9041224 L79.6486715,11.1526557 C80.0611712,10.0804184 79.8519094,8.86835341 79.1037496,7.9964136 L79.1037496,7.9964136 Z" id="Path" fill="#1B4C63"></path>
                <path d="M66.5119999,41.0806744 L56.3881611,32.2467986 L55.1722196,35.5471202 L55.7576729,41.9946789 L57.8517943,43.6020661 L61.5626676,39.4597797 C61.8182311,39.1710247 62.236684,39.0914253 62.5804557,39.2661729 L65.6833583,40.8240327 C65.9443181,40.952705 66.223984,41.0393214 66.5119999,41.0806744 Z" id="Path" fill="url(#linearGradient-1)" style="mix-blend-mode: multiply;"></path>
                <path d="M41.0042494,33.5119969 L42.6750431,30.9365754 C43.1337095,30.2249872 43.9479851,29.8248684 44.791682,29.8965013 L48.2773809,30.1801579 C48.3580529,30.1882605 48.4362144,30.2127763 48.5070588,30.2521976 L54.2580117,33.4804795 C54.3208878,33.5156376 54.3760283,33.5631091 54.4201372,33.6200565 L61.5176328,42.4404249 C62.2171845,43.3044258 62.1307168,44.5618582 61.3194793,45.3220154 L61.3194793,45.3220154 C60.5879419,46.0095802 60.4359564,47.1145128 60.9546969,47.9739791 L63.2064404,51.7155443 C63.598714,52.360636 63.8102585,53.0993217 63.8189146,53.8542247 L63.9585227,62.3594192 C63.9562985,62.3908973 63.9562985,62.4224932 63.9585227,62.4539713 L66.651608,76.7538641 C66.6711282,76.8649082 66.7246269,76.9671623 66.8047265,77.0465257 L68.0521924,78.3072215 C68.1469858,78.4044462 68.2044019,78.5320093 68.214318,78.6674203 L69.1960782,94.6332326 L69.7139792,108.550414 C69.719606,108.654388 69.6945495,108.757723 69.6419234,108.847578 L65.8634978,117.897573 C65.7805049,118.048146 65.6327537,118.152095 65.4629703,118.17936 C65.293187,118.206625 65.1203075,118.154165 64.9943248,118.03715 L63.2649857,116.465783 C63.1129911,116.330091 62.9002651,116.285497 62.7065534,116.348718 L59.364966,117.47434 C59.3260755,117.47901 59.2867657,117.47901 59.2478753,117.47434 L44.5034588,114.570237 C44.4482799,114.579229 44.3920087,114.579229 44.3368298,114.570237 L28.1242765,111.418497 C28.0457265,111.400558 27.9641417,111.400558 27.8855917,111.418497 L20.9817461,113.084417 C20.7432922,113.141244 20.4951313,113.039828 20.3647683,112.832278 L19.3649942,111.2429 C18.4995479,109.819464 18.0938408,108.163982 18.2030946,106.501783 L20.6349776,69.9235942 C20.6950117,68.9959335 20.9033105,68.0838791 21.2519553,67.2221031 L31.6505068,41.6029627 C32.0894339,40.5379735 32.8277879,39.6230561 33.7761527,38.9690089 L39.909902,34.6691356 C40.3454375,34.3570475 40.7169518,33.9642164 41.0042494,33.5119969 Z" id="Path" fill="#F2F4F5"></path>
                <path d="M61.0717876,213.71496 C60.9501934,214.196725 55.2577858,224.489406 55.2577858,224.489406 L59.9819437,226.547042 L64.4854307,228.456096 L67.7144309,222.79197 L69.5158257,219.523165 L61.0717876,213.71496 Z" id="Path" fill="#26A8E0"></path>
                <rect id="Rectangle" fill="#D8DEE2" style="mix-blend-mode: multiply;" x="0" y="266.276971" width="242.188525" height="4.61054478" rx="2.30527239"></rect>
                <polygon id="Path" fill="#26A8E0" points="28.2548776 251.697924 27.0074117 258.442647 37.6671655 261.648416 44.0260892 257.623195 43.9720473 252.026606"></polygon>
                <path d="M44.8006889,256.006802 L54.1814524,262.68849 C54.7671626,263.107278 55.4699326,263.33098 56.1900076,263.327843 L63.9810402,263.327843 C65.6217061,263.342605 66.9460174,264.67264 66.9535461,266.312991 L66.9535461,266.312991 C66.9647715,267.300411 66.496351,268.232008 65.6968687,268.81187 L64.1701866,269.905974 C63.346818,270.494993 62.3589331,270.810037 61.3465003,270.806501 L48.4485134,270.806501 L39.734266,270.44177 C39.4819675,270.433322 39.232348,270.495713 39.0137081,270.621869 L39.0137081,270.621869 C38.8124339,270.742793 38.5820119,270.806501 38.347192,270.806501 L25.872533,270.806501 C25.15249,270.78992 24.5720272,270.211567 24.5530113,269.491745 L24.4494311,264.349907 C24.4260121,263.02457 24.6790827,261.708896 25.1925064,260.486775 L26.048169,258.456154 C26.2999009,257.850514 26.9691308,257.533478 27.5973685,257.722249 L37.1988028,260.62185 C37.3708791,260.676536 37.5587837,260.644667 37.7031934,260.536303 L43.9180055,255.997797 C44.1832392,255.809698 44.5393497,255.813331 44.8006889,256.006802 L44.8006889,256.006802 Z" id="Path" fill="#023852"></path>
                <path d="M20.5809357,113.214989 L19.2298896,120.39195 L20.8601519,133.602241 L27.8135359,144.349674 C27.9623156,144.576777 28.0478179,144.839444 28.0612277,145.110594 L30.042762,180.166943 C30.0964441,181.145009 30.0115387,182.125751 29.7905667,183.080051 L25.5482819,201.207056 C24.637436,205.101109 24.3742132,209.118547 24.7691786,213.098119 L27.6874382,242.760491 C27.8495262,244.413329 27.7767483,246.080785 27.4712709,247.713225 L26.8362792,249.887925 C26.6500723,250.528532 26.7619169,251.218898 27.1408634,251.767987 C27.5198099,252.317075 28.1256709,252.666654 28.7907926,252.719988 L44.0260892,253.967177 L45.1744784,251.810486 C45.9134997,250.421544 46.1955854,248.834968 45.9806025,247.276484 L45.309583,242.463327 C45.2512528,242.051822 45.228651,241.636043 45.2420307,241.220641 L46.3859164,201.094494 C46.5248624,199.61531 46.9712271,198.181433 47.6964311,196.88467 L50.0922862,192.602807 C51.0638392,190.864543 51.6159166,188.923451 51.7045345,186.934178 L51.8171217,184.412786 L54.9695626,154.484768 L82.4408335,167.438417 C82.9633133,167.685854 83.3505432,168.150459 83.4997223,168.708889 C83.6489015,169.267319 83.5449385,169.863083 83.2154333,170.338018 L75.7351413,181.071942 L62.4138267,209.388071 C62.2872399,209.678853 61.9917818,209.858971 61.6752548,209.83832 L61.6752548,209.83832 C61.3526858,209.811127 61.0485513,209.992119 60.918669,210.288568 L59.7927972,212.931527 C59.4732787,213.697066 59.6338029,214.578871 60.2026146,215.18277 L62.3327639,217.434012 C63.4124131,218.571881 64.7904111,219.383206 66.309343,219.775305 L73.1141119,221.522269 L88.9393653,196.893675 L88.9393653,139.230348 L70.4345371,121.643641 C69.5828998,120.835766 69.0398056,119.756188 68.898848,118.590956 L68.898848,118.590956 C68.7731404,117.589936 68.3513059,116.649251 67.68741,115.889465 L64.7961713,112.562128 L60.8781376,113.70576 L45.1654714,114.561232 C44.6572568,114.587639 44.1477096,114.552871 43.6477963,114.457675 L29.1375611,111.661631 C28.3918466,111.517307 27.6237483,111.535737 26.8858175,111.715661 L20.5809357,113.214989 Z" id="Path" fill="#023852"></path>
                <g id="Group" style="mix-blend-mode: multiply;" transform="translate(32.875455, 144.529773)">
                    <path d="M22.0670864,10.0630543 L0.382796397,0.328681415 L6.53005619,8.10447325 C8.45283102,10.5445779 9.39408298,13.6150102 9.16909958,16.7132248 L8.26840218,28.946477 C8.11846794,31.0307825 8.49477127,33.1193432 9.36274953,35.0203294 L9.72753198,35.8262742 C10.8546023,38.2924297 11.1455558,41.0590352 10.5561736,43.7056232 L6.75523054,60.7295195 C6.52795478,61.7820919 6.43713886,62.8595343 6.48502132,63.935289 L4.43143123,87.5103011 C3.97431071,92.7377647 5.00305417,97.9880274 7.39922918,102.656661 L10.8849281,109.410389 L11.1506339,109.432901 L12.2990231,107.276211 C13.0380444,105.887268 13.3201301,104.300693 13.1051472,102.742208 L12.4341277,97.9290517 C12.3757975,97.5175469 12.3531957,97.1017671 12.3665754,96.6863659 L13.5104611,56.5647208 C13.6494071,55.0855371 14.0957718,53.6516604 14.8209758,52.3548972 L17.2168309,48.0730338 C18.1883839,46.3347698 18.7404613,44.3936782 18.8290793,42.404405 L18.9416664,39.8830134 L22.0670864,10.0630543 Z" id="Path" fill="#678897" style="mix-blend-mode: multiply;"></path>
                    <polygon id="Path" fill="url(#linearGradient-2)" points="27.0929779 12.3142969 29.0880227 13.2553162 29.0970297 13.2147939"></polygon>
                </g>
                <path d="M55.2577858,224.489406 C55.2307649,224.547939 54.4516616,227.465549 54.0958862,228.802787 C53.9773071,229.242858 53.9241967,229.69799 53.9382641,230.153533 L54.1048931,236.177858 C54.123425,236.808115 54.6275518,237.316067 55.2577858,237.339499 L63.9134879,237.66818 C64.133782,237.67658 64.3520738,237.623578 64.5439761,237.515096 L66.2958325,236.538057 C66.4881026,236.430918 66.7064313,236.379467 66.9263207,236.389475 L74.5822486,236.691141 C74.7129826,236.698675 74.8440317,236.68344 74.9695485,236.646116 L88.8087642,232.566865 L88.7547223,226.803684 L87.993633,226.803684 C87.2765015,226.825874 86.563222,226.690627 85.904015,226.407465 L73.5824745,221.12605 L69.0159387,220.3111 L63.6117542,226.348933 L59.9414123,226.533535 L55.2577858,224.489406 Z" id="Path" fill="#023852"></path>
                <rect id="Rectangle" fill="#194A62" x="91.0650112" y="96.5062664" width="88.844792" height="140.824228"></rect>
                <polygon id="Path" fill="#4E7486" points="126.86323 237.001813 91.2271367 237.091862 91.2271367 128.221772 126.86323 128.136225"></polygon>
                <polygon id="Path" fill="#376276" style="mix-blend-mode: multiply;" points="180.071929 99.8516129 91.2271367 99.8516129 91.2271367 107.52835 93.6319988 107.52835 93.6319988 236.920768 99.7657481 236.920768 99.7657481 105.187058 180.071929 105.187058"></polygon>
                <path d="M61.5851851,116.875509 C62.495889,117.457657 62.8379497,118.621942 62.3868058,119.604015 L57.8427874,129.509483 L83.1118531,167.947198 C83.1816162,168.038674 83.2448226,168.134967 83.3009995,168.235357 L83.3009995,168.235357 C83.6712971,168.889447 83.6345501,169.6977 83.2064263,170.315505 L75.7261343,181.04943 L62.4048197,209.365559 C62.278233,209.656341 61.9827749,209.836458 61.6662478,209.815807 C61.3436788,209.788615 61.0395443,209.969607 60.909662,210.266056 L59.7837903,212.909015 C59.4642717,213.674554 59.6247959,214.556359 60.1936076,215.160257 L62.323757,217.4115 C63.4034062,218.549369 64.7814041,219.360693 66.300336,219.752792 L73.1141119,221.522269 L88.9393653,196.893675 L88.9393653,139.230348 L88.3313945,138.676542 L70.4345371,121.643641 C70.3264534,121.540084 70.2273767,121.436527 70.1283,121.328467 C70.0292233,121.220407 69.8851117,121.026801 69.7725245,120.878218 L69.6914617,120.756651 C69.5878815,120.594562 69.4888048,120.432472 69.3987351,120.256876 C69.2717316,119.998331 69.164833,119.730391 69.0789875,119.455433 C69.0294703,119.292678 68.9888785,119.12734 68.9573933,118.96016 L68.9573933,118.96016 C68.9348759,118.838593 68.9123585,118.721528 68.898848,118.599961 L68.898848,118.599961 C68.8698873,118.376362 68.8247339,118.155159 68.7637434,117.938096 C68.7637434,117.870558 68.7277155,117.807524 68.7097016,117.744489 C68.6601632,117.586902 68.6016179,117.429315 68.538569,117.29424 C68.5160516,117.231206 68.4890307,117.168171 68.4620098,117.109638 C68.3698074,116.904126 68.2629495,116.705505 68.1422622,116.51531 C68.0067064,116.30231 67.8562127,116.099189 67.6919135,115.907475 L64.7961713,112.562128 L60.8781376,113.70576 L56.9556004,113.917376 L61.5851851,116.875509 Z" id="Path" fill="#678897" style="mix-blend-mode: multiply;"></path>
                <polygon id="Path" fill="#A5B1B8" points="185.133848 91.4724881 88.0206539 91.4724881 88.0746958 100.671065 185.18789 100.671065"></polygon>
                <rect id="Rectangle" fill="#A5B1B8" x="88.0746958" y="94.9439041" width="6.50303527" height="175.997642"></rect>
                <rect id="Rectangle" fill="#A5B1B8" x="178.684855" y="94.9439041" width="6.50303527" height="175.997642"></rect>
                <rect id="Rectangle" fill="#A5B1B8" x="91.3262134" y="235.831167" width="92.7808397" height="3.07069486"></rect>
                <path d="M142.377742,135.313186 L138.324604,132.881844 C137.79372,132.564113 137.397914,132.062657 137.212243,131.472566 L137.212243,131.472566 C137.049589,130.970576 136.734824,130.531576 136.311545,130.216373 L132.92042,127.654459 C132.71555,127.50226 132.489474,127.380904 132.2494,127.29426 L128.610582,125.984037 C128.322435,125.878458 128.016597,125.829535 127.709885,125.839957 L120.243104,125.979534 C119.896459,125.98522 119.571936,126.150889 119.364062,126.428287 C119.156188,126.705684 119.08834,127.063613 119.180281,127.397817 L119.180281,127.397817 C119.314053,127.884344 119.756431,128.221582 120.261118,128.221772 L125.214953,128.221772 C125.252596,128.223256 125.28816,128.239418 125.31403,128.266797 L126.723621,129.757119 C126.816671,129.852062 126.868463,129.979895 126.867733,130.112816 L126.867733,132.485625 C126.869798,133.73186 127.353922,134.928995 128.218779,135.826469 L130.110244,137.798558 C130.663419,138.37953 131.354253,138.811593 132.118799,139.054751 L138.423681,141.071864 L142.377742,135.313186 Z" id="Path" fill="#26A8E0"></path>
                <path d="M140.774501,137.622961 L134.203913,135.043037 C133.947581,134.940006 133.749814,134.729101 133.663495,134.466719 L133.024,132.427093 C132.960878,132.222251 132.826743,132.046637 132.645707,131.93182 L131.0875,130.941273 C130.721644,130.706247 130.31305,130.5456 129.885069,130.468512 L126.872236,129.905701 L126.840712,129.946224 C126.859852,129.999769 126.870488,130.05598 126.872236,130.112816 L126.872236,132.485625 C126.874301,133.73186 127.358426,134.928995 128.223283,135.826469 L130.114747,137.798558 C130.669148,138.378028 131.359572,138.809834 132.123302,139.054751 L138.428184,141.071864 L140.774501,137.622961 Z" id="Path" fill="url(#linearGradient-3)" style="mix-blend-mode: multiply;"></path>
                <path d="M142.706497,135.178111 L140.576348,135.529305 L137.387879,140.84674 L138.004856,145.632882 L146.917257,151.868824 C147.470993,152.259255 147.942333,152.754969 148.304331,153.327629 L148.304331,153.327629 C148.81589,154.149527 149.554023,154.806195 150.429977,155.218673 L166.192182,162.652276 L177.716605,157.699542 L178.166954,146.357782 L168.948316,147.064672 L154.235424,142.012884 L142.706497,135.178111 Z" id="Path" fill="#F5F7F8"></path>
                <path d="M166.7326,217.582594 L154.469605,216.907222 C151.598504,216.748012 148.870813,218.173769 147.363102,220.621772 L146.070602,222.710925 C145.408408,223.787473 145.19497,225.080745 145.476141,226.312913 L149.758958,245.047754 L174.343493,226.50652 L174.343493,217.24941 L166.7326,217.582594 Z" id="Path" fill="#023852"></path>
                <path d="M166.7326,217.582594 L154.469605,216.907222 C151.598504,216.748012 148.870813,218.173769 147.363102,220.621772 L146.070602,222.710925 C145.408408,223.787473 145.19497,225.080745 145.476141,226.312913 L149.758958,245.047754 L174.343493,226.50652 L174.343493,217.24941 L166.7326,217.582594 Z" id="Path" fill="#678897" style="mix-blend-mode: multiply;"></path>
                <path d="M190.393921,281.752012 L173.573397,280.504824 C172.524936,280.415147 171.520725,280.04157 170.668648,279.424228 L170.538047,279.329675 C169.692189,278.713363 168.694032,278.339721 167.651312,278.249079 L138.21652,275.709677 C137.203591,275.621881 136.209407,275.383633 135.266736,275.002787 L135.266736,275.002787 C133.200561,274.17061 131.798201,272.223516 131.663947,270.000526 L131.132535,261.207173 C131.048815,260.174933 131.381203,259.152052 132.05575,258.366105 L145.012282,243.17472 C145.363897,242.760814 145.759532,242.386403 146.192196,242.058103 L166.097608,224.327317 C167.739215,222.865978 168.817794,220.876547 169.146469,218.703713 L169.443699,216.754137 L189.790454,217.524062 L205.921944,220.621772 L207.935003,219.896872 L211.015388,218.478589 L212.397959,223.098139 C213.26577,226.016219 213.607353,229.065392 213.40674,232.103109 L213.31667,233.453854 C213.248546,234.424701 213.023454,235.378086 212.650154,236.276913 L210.236285,241.995069 C209.258061,244.30784 207.806904,246.390538 205.975986,248.109444 L202.575853,251.31071 L190.393921,281.752012 Z" id="Path" fill="#023852"></path>
                <path d="M146.151664,48.9780333 C145.28389,48.9936113 144.533556,49.5871099 144.318745,50.4278335 L134.203913,87.2986843 C134.116843,87.6148793 133.829401,87.8340974 133.501369,87.8344801 L92.7448118,87.8344801 C91.7499289,87.8344801 90.943417,88.6408126 90.943417,89.6354741 L90.943417,89.6354741 C90.943417,90.6301357 91.7499289,91.4364682 92.7448118,91.4364682 L136.320552,91.4364682 C136.648584,91.4364682 136.936026,91.2168674 137.023096,90.9006724 L147.930542,51.2788032 C148.070471,50.7284416 147.949256,50.1443181 147.601885,49.6950339 C147.254513,49.2457497 146.719645,48.9813066 146.151664,48.9780333 L146.151664,48.9780333 Z" id="Path" fill="#FFF700"></path>
                <path d="M191.780995,139.964253 L192.542084,132.719754 C192.590285,132.280146 192.73317,131.856194 192.960909,131.477069 L192.960909,131.477069 C193.681859,130.274237 194.04143,128.889417 193.996711,127.487867 L193.951676,126.137121 C193.883392,123.939589 193.216988,121.802277 192.024183,119.955209 L190.866787,118.154215 C189.211779,115.604724 186.659425,113.769624 183.71525,113.012377 L183.71525,113.012377 C182.006282,112.572613 180.22189,112.511149 178.486701,112.832278 L174.199382,113.624715 C171.10942,114.20248 168.364561,115.957185 166.543454,118.518916 L164.318731,121.670656 C163.792965,122.408736 163.498289,123.286298 163.472076,124.192048 L163.422537,125.79043 C163.409526,126.118541 163.362743,126.44444 163.282929,126.762967 L162.940664,128.140727 C162.678767,129.188081 162.793544,130.294155 163.264915,131.265452 L164.233165,133.25555 C164.327234,133.457233 164.343277,133.686596 164.2782,133.899406 L162.927154,138.163259 C162.868884,138.341836 162.854973,138.53191 162.886622,138.717065 L162.931657,138.987214 C163.012498,139.456655 163.367805,139.831421 163.832355,139.937238 L164.733052,140.130845 C164.984763,140.186754 165.175152,140.393263 165.210422,140.648631 L165.408575,142.021889 C165.445424,142.256231 165.573274,142.466571 165.76435,142.607212 L166.187678,142.917883 C166.466043,143.116795 166.601784,143.460478 166.534447,143.795868 L166.507426,143.92644 C166.446799,144.25696 166.575287,144.593734 166.840684,144.799922 L167.741381,145.46629 C168.039014,145.686948 168.227609,146.024704 168.259282,146.393802 L168.394387,147.915642 C168.44643,148.503635 168.691905,149.05781 169.092427,149.491512 L169.092427,149.491512 C169.551574,149.992028 170.184764,150.298082 170.862298,150.346984 L174.654234,150.626138 L191.780995,139.964253 Z" id="Path" fill="#0099DA"></path>
                <path d="M191.54231,117.442822 L187.9125,113.737277 C186.564657,112.372333 184.714608,111.621732 182.796538,111.661631 L173.825592,111.823721 C172.865608,111.84075 171.939257,112.180125 171.195556,112.787253 L167.745885,115.605808 C167.55041,115.765563 167.331734,115.894613 167.097383,115.98852 L162.805559,118.865608 C161.792922,119.549773 161.441012,120.876353 161.981421,121.972322 L163.372999,124.790878 L166.597496,124.129013 C168.030565,123.832815 169.511282,124.34008 170.461487,125.452743 L172.294407,127.600429 C172.593423,127.949631 172.784327,128.378288 172.843832,128.83411 L173.127552,131.017815 C173.17834,131.416698 173.389617,131.77763 173.712589,132.017256 C174.035562,132.256883 174.442302,132.354483 174.838877,132.287516 L174.838877,132.287516 C175.407264,132.191568 175.86889,131.775671 176.023294,131.220427 L176.757362,128.518936 C176.991467,127.660569 177.78174,127.073108 178.671344,127.09615 L178.671344,127.09615 C179.670238,127.119498 180.486532,127.900466 180.553802,128.897145 L180.648375,130.130825 C180.712234,130.944998 181.06713,131.708975 181.648149,132.283013 L184.832115,135.434753 C185.607769,136.195852 186.670164,136.591912 187.754878,136.524354 L192.172798,136.254205 L192.303399,134.520748 C192.383613,133.475586 192.700877,132.462417 193.231118,131.558113 L193.258139,131.508586 C194.04672,130.167894 194.363793,128.601899 194.158836,127.060131 C193.942669,125.425728 193.68597,123.224013 193.496824,121.562596 C193.320023,120.01072 192.632507,118.561555 191.54231,117.442822 L191.54231,117.442822 Z" id="Path" fill="#023852"></path>
                <path d="M163.998984,124.079485 L168.290807,121.175383 C168.523394,121.0807 168.740472,120.951697 168.934805,120.792671 L172.38898,117.974116 C173.132681,117.366988 174.059032,117.027613 175.019016,117.010584 L183.985459,116.848494 C185.906596,116.811173 187.757851,117.568781 189.10142,118.94215 L192.731231,122.652198 C193.131299,123.058781 193.480614,123.512336 193.771536,124.002943 C193.667956,123.138466 193.568879,122.282994 193.483313,121.540084 C193.306584,119.99082 192.618911,118.544493 191.5288,117.429315 L187.898989,113.72377 C186.549766,112.362422 184.699396,111.616576 182.783028,111.661631 L173.816585,111.823721 C172.856601,111.84075 171.93025,112.180125 171.186549,112.787253 L167.732374,115.605808 C167.539153,115.766414 167.32182,115.895569 167.088376,115.98852 L162.796553,118.865608 C161.783915,119.549773 161.432005,120.876353 161.972414,121.972322 L163.32346,124.741351 C163.502314,124.477965 163.73198,124.252942 163.998984,124.079485 L163.998984,124.079485 Z" id="Path" fill="#28566C"></path>
                <path d="M180.909577,146.708976 L176.316021,144.385693 C175.729463,144.095367 175.028074,144.168997 174.514626,144.574798 L168.817715,149.117805 C168.898782,149.244121 168.9907,149.363136 169.092427,149.473502 C169.551574,149.974018 170.184764,150.280072 170.862298,150.328974 L174.654234,150.608128 L180.909577,146.708976 Z" id="Path" fill="url(#linearGradient-4)" style="mix-blend-mode: multiply;"></path>
                <path d="M119.193791,126.762967 C119.082283,127.102743 119.141001,127.475399 119.351589,127.764447 C119.562177,128.053495 119.898942,128.223668 120.256614,128.221772 L125.21045,128.221772 C125.248092,128.223256 125.283657,128.239418 125.309526,128.266797 L125.336547,128.293812 L124.931234,127.843563 L124.931234,126.780977 L119.193791,126.762967 Z" id="Path" fill="url(#linearGradient-5)" style="mix-blend-mode: multiply;"></path>
                <path d="M147.714374,149.081785 L137.392382,140.84674 L138.00936,145.632882 L146.768642,151.760764 C147.376837,152.170643 147.896086,152.698965 148.295324,153.314121 C148.808699,154.142815 149.551886,154.804495 150.434481,155.218673 L166.196685,162.652276 L169.326609,158.289368 L155.888203,150.229919 C155.077403,149.741234 154.125041,149.541283 153.186111,149.662606 L150.844298,149.964272 C149.724765,150.102565 148.596679,149.784499 147.714374,149.081785 L147.714374,149.081785 Z" id="Path" fill="url(#linearGradient-6)" style="mix-blend-mode: multiply;"></path>
                <ellipse id="Oval" fill="#FFE700" cx="248.952763" cy="245.952753" rx="19.8333569" ry="19.8289445"></ellipse>
                <ellipse id="Oval" fill="#FFD915" style="mix-blend-mode: multiply;" cx="248.952763" cy="245.952753" rx="9.34473558" ry="9.34265666"></ellipse>
                <path d="M253.181537,246.042803 L263.134243,266.371523 C263.398699,266.909414 263.368081,267.545439 263.053181,268.055453 C262.872618,268.386868 262.529781,268.597666 262.152483,268.609258 L235.726021,268.609258 C235.35743,268.588188 235.025631,268.378946 234.847841,268.055453 C234.536895,267.543884 234.508039,266.909186 234.771282,266.371523 L244.723988,246.042803 L253.181537,246.042803 M254.640667,243.706013 L243.264859,243.706013 L232.668154,265.340454 C231.429695,267.875353 233.118502,270.946048 235.726021,270.946048 L262.175001,270.946048 C264.800534,270.946048 266.475831,267.875353 265.232868,265.340454 L254.640667,243.706013 L254.640667,243.706013 Z" id="Shape" fill="#B9C2C8"></path>
                <ellipse id="Oval" fill="#023852" cx="248.952763" cy="245.952753" rx="6.61111895" ry="6.60964818"></ellipse>
                <path d="M230.02911,286.389572 L230.02911,286.839821 C230.02911,287.051186 229.857727,287.222532 229.646314,287.222532 L226.601957,287.222532 C226.500433,287.222532 226.403067,287.262853 226.331279,287.334625 C226.259491,287.406398 226.21916,287.503742 226.21916,287.605243 L226.21916,288.014969 C226.21916,288.226335 226.390544,288.397681 226.601957,288.397681 L229.646314,288.397681 C229.857727,288.397681 230.02911,288.569026 230.02911,288.780392 L230.02911,289.703401 C230.029125,289.915507 229.858453,290.088149 229.646314,290.090615 L226.601957,290.090615 C226.500433,290.090615 226.403067,290.130936 226.331279,290.202708 C226.259491,290.274481 226.21916,290.371825 226.21916,290.473326 L226.21916,290.883052 C226.21916,291.094418 226.390544,291.265764 226.601957,291.265764 L229.646314,291.265764 C229.857727,291.265764 230.02911,291.437109 230.02911,291.648475 L230.02911,292.121236 C230.02911,292.332601 230.200494,292.503947 230.411907,292.503947 L236.171867,292.503947 C236.383279,292.503947 236.55469,292.332601 236.55469,292.121236 L236.55469,286.389572 C236.555867,286.287293 236.516068,286.188788 236.444149,286.116039 C236.37223,286.04329 236.274176,286.002358 236.171867,286.002358 L230.411907,286.002358 C230.309598,286.002358 230.211543,286.04329 230.139624,286.116039 C230.067705,286.188788 230.027907,286.287293 230.02911,286.389572 Z" id="Path" fill="#F5F7F8"></path>
                <path d="M278.648756,269.739382 L235.680987,269.739382 C232.113643,269.738554 228.778875,267.969205 226.778675,265.016027 C224.778476,262.062849 224.373193,258.31023 225.696756,254.998246 L229.132916,246.587604 C229.132916,246.375987 229.132916,246.168872 229.132916,245.952753 C229.133205,244.964104 229.206965,243.976844 229.353587,242.999123 L224.629429,254.561505 C223.160405,258.233557 223.60904,262.395009 225.826979,265.669756 C228.044919,268.944503 231.743245,270.905965 235.699,270.905526 L278.66677,270.905526 C283.492398,271.01419 287.347672,274.956397 287.347672,279.782175 C287.347672,284.607953 283.492398,288.550161 278.66677,288.658825 L234.60015,288.658825 L234.60015,289.829471 L278.648756,289.829471 C284.197716,289.829471 288.696036,285.332151 288.696036,279.784426 C288.696036,274.236702 284.197716,269.739382 278.648756,269.739382 Z" id="Path" fill="#F5F7F8"></path>
                <path d="M117.766186,174.863015 L116.811446,178.122815 C116.651448,178.680399 116.814567,179.280683 117.234774,179.680674 L120.562851,182.809902 C120.685822,182.927846 120.789198,183.064638 120.869088,183.215125 L122.121058,185.583432 C122.237257,185.806552 122.407583,185.996965 122.616441,186.137238 L126.29579,188.654127 L128.867281,188.901764 L133.821117,181.783335 L130.943389,178.74866 C130.681577,178.469847 130.328455,178.294124 129.948118,178.253387 L129.948118,178.253387 C129.675791,178.222089 129.415662,178.123014 129.191532,177.965228 L128.290835,177.33488 C128.107563,177.199612 127.954238,177.027927 127.840486,176.830601 L127.336096,175.966124 C127.278655,175.864466 127.169054,175.803591 127.052376,175.808537 L126.412881,175.840055 L126.183203,176.425378 L125.431121,175.81304 C125.295045,175.70377 125.143209,175.615724 124.980772,175.551896 L121.143801,173.931001 C120.588567,173.701792 119.981244,173.628618 119.387441,173.719384 L119.040673,173.773414 C118.438468,173.854389 117.939686,174.280815 117.766186,174.863015 L117.766186,174.863015 Z" id="Path" fill="#26A8E0"></path>
                <path d="M129.218553,187.105272 L125.647288,182.175051 C125.550072,182.039488 125.423936,181.927221 125.278002,181.84637 C124.089082,181.184504 118.39217,178.037267 117.054635,177.312367 L116.81595,178.122815 C116.655952,178.680399 116.819071,179.280683 117.239278,179.680674 L120.567355,182.809902 C120.690325,182.927846 120.793702,183.064638 120.873592,183.215125 L122.125561,185.583432 C122.241761,185.806552 122.412087,185.996965 122.620945,186.137238 L126.300294,188.654127 L128.700652,188.883754 L129.218553,187.105272 Z" id="Path" fill="url(#linearGradient-7)" style="mix-blend-mode: multiply;"></path>
                <path d="M210.596564,223.206198 C210.96585,222.305701 211.398184,221.283637 211.681904,220.689309 L211.033402,218.514609 L209.50672,221.315154 C209.199053,221.878852 208.68369,222.300419 208.070108,222.490303 L206.656013,222.940552 C206.232187,223.070905 205.781096,223.084901 205.350001,222.981074 L184.778073,217.99232 L168.673603,218.892817 L202.175043,227.488062 C203.428804,227.813978 204.759502,227.653107 205.899427,227.037813 L208.304289,225.736595 C209.335465,225.180199 210.144572,224.287042 210.596564,223.206198 L210.596564,223.206198 Z" id="Path" fill="#023852" style="mix-blend-mode: multiply;"></path>
                <polygon id="Path" fill="#023852" points="183.422523 217.537569 182.526329 223.273736 184.764562 223.760004 185.76884 216.682097"></polygon>
                <polygon id="Path" fill="#023852" points="207.610752 220.927941 206.304741 229.46015 208.056597 228.420076 209.137434 219.811324"></polygon>
                <path d="M195.559421,143.629276 L191.780995,139.959751 L185.363526,141.71572 L176.635768,147.343826 L171.943135,155.988598 L165.773357,158.23984 L161.094234,164.790956 L156.424118,173.543787 C156.144353,174.070041 155.725272,174.509277 155.21268,174.813488 L150.628131,177.550999 C150.028184,177.904764 149.555341,178.438958 149.277084,179.077341 L149.196022,179.266446 C148.839496,180.108993 148.144815,180.762664 147.28204,181.06744 L142.634441,182.715349 C142.129807,182.896025 141.588202,182.948626 141.058221,182.868434 L133.7986,181.787837 C133.712458,181.774891 133.624472,181.782607 133.541901,181.81035 L131.686464,182.436195 C130.26963,182.912535 129.172822,184.047722 128.745687,185.479875 L127.750416,188.820719 L131.209095,190.360569 C131.816177,190.628589 132.291155,191.127772 132.528616,191.747335 L133.213146,193.548329 C133.40201,194.039346 133.740794,194.4584 134.181396,194.74599 L139.58558,198.275938 C139.899593,198.477791 140.266113,198.582711 140.639396,198.577605 L145.692309,198.51457 C146.142742,198.513134 146.57883,198.672838 146.921761,198.964818 L146.921761,198.964818 C147.359352,199.326592 147.936629,199.472119 148.493478,199.361037 L162.197589,196.619023 C162.662883,196.528624 163.096207,196.317445 163.454062,196.006686 L164.012494,195.520417 C164.143489,195.391921 164.33937,195.355746 164.507636,195.428975 C164.675902,195.502204 164.782894,195.670188 164.778087,195.853601 L165.093331,203.863522 C165.12745,204.796324 164.934258,205.723437 164.530395,206.565013 L162.891126,210.648767 C162.027978,212.783498 162.750189,215.231378 164.633975,216.556028 L167.214473,218.384037 C168.093262,219.005916 169.163409,219.29771 170.236313,219.207991 L188.245758,217.659137 C189.289247,217.569179 190.340408,217.668323 191.34866,217.951798 L205.687763,221.972517 C205.921336,222.031036 206.165741,222.031036 206.399314,221.972517 L208.223226,221.558289 C208.55315,221.480979 208.84602,221.29161 209.051868,221.022493 L211.015388,218.465081 L210.871277,213.935581 C210.861242,213.557824 210.894484,213.18016 210.970353,212.80996 L214.442542,196.281337 L213.13653,176.047169 L210.974857,164.462275 L211.668394,158.609044 L205.264435,147.884124 L195.559421,143.629276 Z" id="Path" fill="#F5F7F8"></path>
                <path d="M181.490527,213.971601 L186.926236,214.192223 C187.744199,214.226894 188.492846,213.735173 188.785783,212.970847 C189.078721,212.206521 188.85043,211.340543 188.218737,210.819862 L182.157043,205.804093 C181.623418,205.366064 181.472697,204.612628 181.796764,204.003099 L182.868594,201.985986 C183.120874,201.511223 183.089673,200.935871 182.787531,200.491161 L175.496386,189.739226 C175.140413,189.210777 174.580838,188.853945 173.95146,188.754053 C173.322082,188.65416 172.679484,188.820187 172.177316,189.212435 L164.228661,195.407855 C164.363379,195.370074 164.508008,195.397041 164.620047,195.480832 C164.732087,195.564622 164.798808,195.695717 164.800604,195.835591 L165.115848,203.845512 C165.149968,204.778314 164.956776,205.705427 164.552912,206.547003 L162.170568,212.485781 C161.750528,213.533835 162.104434,214.733123 163.02623,215.385382 L168.160206,219.018887 C168.445453,219.217708 168.79079,219.31158 169.137462,219.284534 L179.099176,218.442569 C179.605739,218.399062 180.052819,218.094283 180.278352,217.638715 C180.503886,217.183147 180.475138,216.642911 180.20253,216.213839 L180.20253,216.213839 C179.906862,215.756504 179.891519,215.172347 180.162773,214.700129 C180.434027,214.227911 180.946422,213.946764 181.490527,213.971601 Z" id="Path" fill="url(#linearGradient-8)" style="mix-blend-mode: multiply;"></path>
                <path d="M145.210436,262.36896 L163.854872,262.116675 C164.84183,262.102823 165.823383,261.968248 166.777635,261.715954 L184.683499,256.925309 C185.820035,256.622098 186.839632,255.985384 187.610766,255.0973 L194.194864,248.131956 L196.775362,247.375538 L183.476565,243.697008 C182.691341,243.561723 181.88351,243.670143 181.161773,244.00768 L144.908702,261.054088 C144.612044,261.190335 144.451738,261.516017 144.524748,261.83414 C144.597758,262.152262 144.884043,262.375496 145.210436,262.36896 Z" id="Path" fill="#678897" style="mix-blend-mode: multiply;"></path>
                <path d="M190.641613,281.756515 L191.091961,281.720495 C191.43693,281.684775 191.757096,281.524728 191.992659,281.270247 L195.45584,277.708781 L187.511689,276.506617 L189.209504,280.838008 C189.42987,281.428176 190.013188,281.802297 190.641613,281.756515 L190.641613,281.756515 Z" id="Path" fill="#023852"></path>
                <path d="M190.641613,281.756515 L191.091961,281.720495 C191.43693,281.684775 191.757096,281.524728 191.992659,281.270247 L195.45584,277.708781 L187.511689,276.506617 L189.209504,280.838008 C189.42987,281.428176 190.013188,281.802297 190.641613,281.756515 L190.641613,281.756515 Z" id="Path" fill="#678897" style="mix-blend-mode: multiply;"></path>
                <path d="M187.511689,276.52913 L195.879168,277.879875 C196.744555,278.021453 197.479818,278.590562 197.833682,279.39271 L202.418231,289.851983 C203.204814,291.639436 204.968522,292.797935 206.921718,292.810116 L210.312844,292.810116 L204.548381,288.307631 L199.504475,269.082019 L193.996711,248.231011 L186.719076,255.885235 L184.814101,262.891102 C184.318422,265.212338 184.463192,267.624626 185.232925,269.869954 L187.511689,276.52913 Z" id="Path" fill="#1B4C63"></path>
                <path d="M205.151848,260.243641 C204.781298,261.441218 204.976926,262.742354 205.683259,263.778092 L208.263758,267.573687 L209.578776,269.653835 C210.873265,271.701301 211.87807,273.918046 212.564588,276.240971 L212.848307,277.2 C213.5602,279.615109 213.919682,282.120308 213.915668,284.638105 L213.915668,289.478277 C213.916831,290.359914 213.567054,291.205785 212.943504,291.829197 C212.319953,292.452609 211.473893,292.802308 210.59206,292.801114 L209.200483,292.801114 C208.023911,292.799854 206.912483,292.260848 206.183147,291.337803 L205.543651,290.522854 C204.605824,289.334231 203.887532,287.987923 203.422509,286.547159 L198.27052,270.635377 L192.506056,252.828048 C192.028746,251.698758 192.217844,250.397917 192.996936,249.451184 L193.744515,248.550687 C194.494302,247.638845 195.673617,247.196056 196.838411,247.389046 L196.838411,247.389046 C199.156026,247.77913 201.137721,249.274734 202.148022,251.396258 L204.935681,257.249488 C205.377714,258.181315 205.453265,259.245216 205.147344,260.230134 L205.151848,260.243641 Z" id="Path" fill="#325E73"></path>
                <path d="M184.818604,262.90461 C184.322926,265.225846 184.467695,267.638133 185.237428,269.883462 L187.511689,276.52913 L195.879168,277.879875 L184.818604,262.90461 Z" id="Path" fill="#023852" style="mix-blend-mode: multiply;"></path>
                <path d="M205.066282,260.58583 L197.19869,260.58583 C197.024585,260.58583 196.883446,260.726938 196.883446,260.901004 C196.883446,261.07507 197.024585,261.216178 197.19869,261.216178 L204.980715,261.216178 C204.991201,261.004006 205.019827,260.793121 205.066282,260.58583 L205.066282,260.58583 Z" id="Path" fill="#023852"></path>
                <path d="M66.651608,76.8844362 L66.6786289,76.8844362 L63.9765367,62.395439 L63.8234181,52.8906929 L61.778835,62.2918819 C61.679721,62.7529639 61.6889706,63.23075 61.8058559,63.6876523 L64.6070249,74.7412533 C64.8707168,75.7617794 65.6444653,76.5728418 66.651608,76.8844362 L66.651608,76.8844362 Z" id="Path" fill="url(#linearGradient-9)" style="mix-blend-mode: multiply;"></path>
                <path d="M63.535195,93.8047754 L58.9011068,92.8322386 L57.7256967,92.9538057 C56.3023942,93.1057887 54.8924361,92.5667085 53.9337606,91.5040055 L51.015501,88.2712211 C50.5800915,87.5921126 49.920364,87.0870713 49.1510574,86.8439333 L48.952904,86.7808985 C47.879654,86.4431282 47.0390059,85.6026672 46.7011605,84.529656 L40.252167,63.9578014 C40.0262364,63.2406755 39.5170185,62.6469912 38.8425756,62.3143943 L29.6194342,57.8119092 C29.3185189,57.6642507 28.9630472,57.6802933 28.6766623,57.8544568 C28.3902775,58.0286203 28.2125653,58.3368308 28.2053392,58.6718838 L28.0882486,64.6556866 C28.0766441,65.1771563 27.9207627,65.6852166 27.6378999,66.1234967 L24.485459,71.0762304 C24.2087082,71.5057115 24.0531135,72.001948 24.0351103,72.5125231 L22.9272524,107.631907 C22.9218797,107.769127 22.9464683,107.905871 22.9993082,108.032628 L24.6836124,112.134392 L26.7822373,111.661631 C26.9978092,111.61283 27.2157715,111.575258 27.435243,111.549069 L28.0206963,111.409492 C28.0992286,111.391397 28.1808488,111.391397 28.2593811,111.409492 L44.4719344,114.561232 C44.5272674,114.568061 44.5832304,114.568061 44.6385634,114.561232 L46.9443488,115.01148 C47.1379987,115.01148 47.3316486,115.01148 47.5252986,114.979963 L60.8466132,113.665237 L64.7646469,112.526109 L67.0929497,115.2276 L69.6599373,109.081707 C69.7291366,108.214116 69.4899191,107.349936 68.9844143,106.64136 L63.535195,93.8047754 Z" id="Path" fill="url(#linearGradient-10)" style="mix-blend-mode: multiply;"></path>
                <path d="M126.547985,87.8659975 C126.927507,87.8506059 127.25658,87.598835 127.370622,87.2366066 C127.484663,86.8743783 127.359159,86.4795549 127.056879,86.2496053 L127.056879,86.2496053 L122.413784,83.0213235 C121.540356,82.410557 120.506944,82.0692939 119.441483,82.0397817 L111.600912,81.8146574 C111.078678,81.7965244 110.556632,81.8556967 110.051712,81.9902544 L106.313818,82.9672936 C105.158244,83.2711063 103.963116,83.397121 102.769574,83.3409999 L83.4676285,82.4675178 C82.274781,82.4141392 81.0911002,82.2330039 79.9368947,81.9272196 L67.2685857,78.8340123 C66.7362698,78.7023967 66.1777031,78.7226754 65.6563374,78.8925446 L61.5041223,80.2432901 C60.6245618,80.5262327 59.8068943,80.9739397 59.0947568,81.5625183 L54.9920801,84.9438846 C53.9687774,85.7823104 53.3062653,86.9813356 53.1411469,88.2937336 C53.0285597,89.2212455 52.9159726,90.1577624 52.8979586,90.3603742 L54.2490047,91.8777117 C55.0190032,92.7419107 56.1543456,93.1882567 57.3068724,93.0798753 L58.7750092,92.9357957 C59.1147158,92.9034277 59.4572777,92.918582 59.7927972,92.9808206 L70.8353474,95.0699737 C71.7032235,95.2298155 72.5930043,95.2298155 73.4608804,95.0699737 L101.913911,89.7615437 C102.394935,89.6700838 102.883398,89.6233586 103.373041,89.6219667 L110.128272,89.6219667 C110.696384,89.6212236 111.260624,89.5284716 111.799065,89.3473151 L115.442386,88.1271416 C115.928684,87.9640208 116.438117,87.880401 116.951055,87.8795049 L126.547985,87.8659975 Z" id="Path" fill="#26A8E0"></path>
                <path d="M99.7477341,84.9258747 L66.291329,83.8903031 C65.2643187,83.8567235 64.3228424,83.3096787 63.7852625,82.4341531 C63.2476826,81.5586276 63.1858829,80.4716944 63.6207612,79.5409024 L63.6207612,79.5409024 L61.4906119,80.2252802 C60.6110513,80.5082227 59.7933839,80.9559297 59.0812463,81.5445083 L54.9785696,84.9258747 C53.9562881,85.7709804 53.2983752,86.9768856 53.1411469,88.2937336 C53.0285597,89.2212455 52.9159726,90.1577624 52.8979586,90.3603742 L54.2490047,91.8777117 C55.0190032,92.7419107 56.1543456,93.1882567 57.3068724,93.0798753 L58.7750092,92.9357957 C59.1147158,92.9034277 59.4572777,92.918582 59.7927972,92.9808206 L70.8353474,95.0699737 C71.7032235,95.2298155 72.5930043,95.2298155 73.4608804,95.0699737 L101.913911,89.7615437 C102.394935,89.6700838 102.883398,89.6233586 103.373041,89.6219667 L110.128272,89.6219667 C110.686681,89.6194333 111.241275,89.5298065 111.772044,89.35632 L100.724991,85.1374915 C100.413452,85.012533 100.083068,84.9409911 99.7477341,84.9258747 L99.7477341,84.9258747 Z" id="Path" fill="url(#linearGradient-11)" style="mix-blend-mode: multiply;"></path>
                <rect id="Rectangle" fill="#FFE700" x="104.962772" y="134.507241" width="11.790129" height="2.01711334"></rect>
                <rect id="Rectangle" fill="#FFE700" x="104.962772" y="140.06781" width="11.790129" height="2.01711334"></rect>
            </g>
        </g>
    </g>
</svg>