<?xml version="1.0" encoding="UTF-8"?>
<svg width="440px" height="330px" viewBox="0 0 440 330" version="1.1" xmlns="http://www.w3.org/2000/svg" xmlns:xlink="http://www.w3.org/1999/xlink">
    <title>Graphic elements / Icons / Rich icons / Marketplace / Industries-Finance-and-Insurance</title>
    <defs>
        <linearGradient x1="-0.0151286653%" y1="50.0287254%" x2="99.9853491%" y2="50.0287254%" id="linearGradient-1">
            <stop stop-color="#FFFFFF" offset="0%"></stop>
            <stop stop-color="#FFFFFF" stop-opacity="0.2" offset="0%"></stop>
            <stop stop-color="#FFFFFF" stop-opacity="0.6" offset="100%"></stop>
        </linearGradient>
    </defs>
    <g id="Graphic-elements-/-Icons-/-Rich-icons-/-Marketplace-/-Industries-Finance-and-Insurance" stroke="none" stroke-width="1" fill="none" fill-rule="evenodd">
        <g id="Finance-and-insurance" transform="translate(0.000000, 20.000000)" fill-rule="nonzero">
            <g id="Group" style="mix-blend-mode: multiply;" transform="translate(65.000000, 149.000000)" fill="#8AA4B5">
                <path d="M230.79,12.07 L228,12.07 L228,23.98 L226.74,23.98 L226.74,68.76 L224.39,68.76 L224.39,69.25 L224,69.25 L224,70.44 L224.34,70.44 L224.34,70.87 L224,70.87 L224,72.06 L224.34,72.06 L224.34,72.49 L224,72.49 L224,73.68 L224.34,73.68 L224.34,74.11 L224,74.11 L224,75.3 L224.34,75.3 L224.34,75.73 L224,75.73 L224,76.92 L224.34,76.92 L224.34,77.35 L224,77.35 L224,78.55 L224.34,78.55 L224.34,78.98 L224,78.98 L224,80.17 L224.34,80.17 L224.34,80.6 L224,80.6 L224,81.79 L224.34,81.79 L224.34,82.22 L224,82.22 L224,83.41 L224.34,83.41 L224.34,83.84 L224,83.84 L224,85.04 L224.34,85.04 L224.34,85.47 L224,85.47 L224,86.66 L224.34,86.66 L224.34,87.09 L224,87.09 L224,88.28 L224.34,88.28 L224.34,88.71 L224,88.71 L224,89.9 L224.34,89.9 L224.34,90.33 L224,90.33 L224,91.55 L224.34,91.55 L224.34,91.98 L224,91.98 L224,93.17 L224.34,93.17 L224.34,95.23 L224,95.23 L224,96.42 L224.34,96.42 L224.34,96.85 L224,96.85 L224,97.55 L218.55,97.55 L218.55,70.98 L204.36,70.98 L204.36,88.1 L200.25,88.1 L200.25,87.15 L198.6,87.15 L198.6,55.92 L198.6,55.92 L198.6,20.98 L197.3,20.98 L197.3,0.37 L174.9,0.37 L174.9,20.98 L173.64,20.98 L173.64,108.55 L170.56,108.55 L170.56,74.05 L165.14,74.05 L165.14,58.7 L163.39,58.7 L163.39,51.7 L138.18,51.7 L138.18,58.7 L136.44,58.7 L136.44,114.46 L130.56,114.46 L130.56,78.4 L109.14,78.4 L109.14,101.2 L104.44,101.2 L104.44,123.35 L101.67,123.35 L101.67,59.55 L101.67,59.55 L101.67,57.94 L100.54,57.94 L100.54,57.49 L101.7,57.49 L101.7,55.88 L100.54,55.88 L100.54,55.42 L101.71,55.42 L101.71,53.82 L100.54,53.82 L100.54,53.37 L101.71,53.37 L101.71,51.76 L100.54,51.76 L100.54,51.3 L101.72,51.3 L101.72,49.7 L100.54,49.7 L100.54,49.24 L101.73,49.24 L101.73,47.55 L100.54,47.55 L100.54,47.1 L101.73,47.1 L101.73,45.55 L100.54,45.55 L100.54,45.09 L101.74,45.09 L101.74,38.95 C97.4444494,35.6732576 94.9077798,30.5925335 94.87,25.19 L94.87,25 L94.87,25 L94.87,24.13 L93.5,24.13 L93.5,25 L91.58,25 L91.58,10.85 L90.88,10.85 L90.88,24.98 L90.48,24.98 L90.48,24.11 L89,24.11 L89,24.98 L86.4,24.98 L86.4,24.11 L85,24.11 L85,24.98 C85,32.31 82.65,37.31 80.25,38.93 L80.25,43.46 L80.3,43.46 L80.3,45.07 L81.79,45.07 L81.79,45.55 L80.3,45.55 L80.3,47.15 L81.79,47.15 L81.79,47.55 L80.28,47.55 L80.28,49.16 L81.79,49.16 L81.79,49.62 L80.27,49.62 L80.27,51.22 L81.79,51.22 L81.79,51.68 L80.26,51.68 L80.26,53.29 L81.79,53.29 L81.79,53.74 L80.2,53.74 L80.2,55.34 L81.74,55.34 L81.74,55.8 L80.18,55.8 L80.18,57.41 L81.74,57.41 L81.74,57.86 L80.11,57.86 L80.11,92.71 L75.68,92.71 L75.68,109.95 L73.2,109.95 L73.2,124.95 C72.8526501,124.761463 72.4831277,124.617013 72.1,124.52 C71.51,124.43 70.92,124.35 70.33,124.3 L70.33,91.94 L68.33,91.02 L68.33,91.02 L67.58,91.02 L67.58,90.02 L66.98,90.02 L66.98,90.55 L66.4,90.55 L66.4,91.07 L64.8,91.12 L64.8,90.42 L64.16,90.11 L58.74,90.29 L58.74,91.29 L57.61,91.29 L57.61,99.55 L48.61,99.55 L48.61,58.36 L46.54,58.36 L46.54,47.93 L39.21,47.93 L39.21,45.2 L34.62,45.2 L34.62,40.72 L16.33,40.72 L16.33,47.94 L7.06,47.94 L7.06,122.31 L2.06,122.31 L2.06,129.31 L0.9,129.31 L0.9,159.86 L230.79,159.86 L230.79,12.07 Z M27,50.78 L21.9,50.78 L21.9,50.78 L27,50.78 Z M93.67,123.35 L93.67,123.35 L93.67,59.55 L93.67,59.55 L93.67,123.35 Z" id="Shape"></path>
                <polygon id="Path" points="368.18 49.6 368.18 49.58 365.59 49.58 365.59 49.6 364.64 49.6 364.64 110.15 361.96 110.15 361.96 69.25 354.67 69.25 354.67 76.36 334.69 76.36 334.69 80.02 333.05 80.02 333.05 95.78 329.16 95.78 329.16 108.77 324.19 108.77 324.19 124.69 322.39 124.69 322.39 49.79 320.96 49.79 320.96 41.44 318.45 41.44 318.45 33.09 316.76 33.09 316.76 24.74 305.95 24.74 305.95 33.09 304.27 33.09 304.27 41.44 301.76 41.44 301.76 49.79 300.58 49.79 300.58 101.71 297.66 101.71 297.66 124.69 295.57 124.69 295.57 159.88 375 159.88 375 49.6"></polygon>
                <rect id="Rectangle" x="93.63" y="57.44" width="1" height="1"></rect>
                <rect id="Rectangle" x="93.63" y="55.37" width="1" height="1"></rect>
                <rect id="Rectangle" x="93.63" y="53.32" width="1" height="1"></rect>
                <rect id="Rectangle" x="93.63" y="51.25" width="1" height="1"></rect>
                <rect id="Rectangle" x="93.63" y="49.19" width="1" height="1"></rect>
                <rect id="Rectangle" x="93.63" y="47.13" width="1" height="1"></rect>
                <rect id="Rectangle" x="93.63" y="45.07" width="1" height="1"></rect>
            </g>
            <path d="M429.12,308.72 L429.12,297.55 L86,297.55 L86,308.85 L87.12,308.85 L87.12,305.19 L123.87,305.19 L123.87,308.85 L124.99,308.85 L124.99,305.19 L351,305.19 L351,308.74 L352.12,308.74 L352.12,305.19 L389.5,305.19 L389.5,308.74 L390.61,308.74 L390.61,305.19 L428,305.19 L428,308.74 L429.12,308.72 Z M123.82,304.11 L87.07,304.11 L87.07,301.87 L123.82,301.87 L123.82,304.11 Z M123.82,300.82 L87.07,300.82 L87.07,298.55 L123.82,298.55 L123.82,300.82 Z M351,304.11 L125,304.11 L125,301.87 L351,301.87 L351,304.11 Z M351,300.82 L125,300.82 L125,298.55 L351,298.55 L351,300.82 Z M389.53,304.11 L352.09,304.11 L352.09,301.87 L389.5,301.87 L389.53,304.11 Z M389.53,300.82 L352.09,300.82 L352.09,298.55 L389.5,298.55 L389.53,300.82 Z M390.64,298.58 L428,298.58 L428,300.82 L390.61,300.82 L390.64,298.58 Z M390.64,304.11 L390.64,301.87 L428,301.87 L428,304.11 L390.64,304.11 Z" id="Shape" fill="#EFF2F3"></path>
            <rect id="Rectangle" fill="#023852" x="309.17" y="203.93" width="51.88" height="105.63"></rect>
            <rect id="Rectangle" fill="#96A6AE" x="309.17" y="200" width="51.88" height="3.93"></rect>
            <rect id="Rectangle" fill="#2B5B79" x="309.17" y="274.78" width="51.88" height="1.93"></rect>
            <rect id="Rectangle" fill="#2B5B79" x="309.1" y="278.59" width="51.88" height="1.93"></rect>
            <rect id="Rectangle" fill="#2B5B79" x="309.1" y="282.41" width="51.88" height="1.93"></rect>
            <rect id="Rectangle" fill="#2B5B79" x="309.17" y="286.22" width="51.88" height="1.93"></rect>
            <rect id="Rectangle" fill="#2B5B79" x="309.17" y="290.03" width="51.88" height="1.93"></rect>
            <rect id="Rectangle" fill="#2B5B79" x="309.17" y="293.84" width="51.88" height="1.93"></rect>
            <rect id="Rectangle" fill="#2B5B79" x="309.17" y="297.65" width="51.88" height="1.93"></rect>
            <rect id="Rectangle" fill="#2B5B79" x="309.17" y="301.46" width="51.88" height="1.93"></rect>
            <rect id="Rectangle" fill="#2B5B79" x="309.17" y="305.27" width="51.88" height="1.93"></rect>
            <rect id="Rectangle" fill="#2B5B79" x="309.17" y="240.48" width="51.88" height="1.93"></rect>
            <rect id="Rectangle" fill="#2B5B79" x="309.17" y="244.3" width="51.88" height="1.93"></rect>
            <rect id="Rectangle" fill="#2B5B79" x="309.17" y="248.11" width="51.88" height="1.93"></rect>
            <rect id="Rectangle" fill="#2B5B79" x="309.17" y="251.92" width="51.88" height="1.93"></rect>
            <rect id="Rectangle" fill="#2B5B79" x="309.17" y="255.73" width="51.88" height="1.93"></rect>
            <rect id="Rectangle" fill="#2B5B79" x="309.17" y="259.54" width="51.88" height="1.93"></rect>
            <rect id="Rectangle" fill="#2B5B79" x="309.17" y="263.35" width="51.88" height="1.93"></rect>
            <rect id="Rectangle" fill="#2B5B79" x="309.17" y="267.16" width="51.88" height="1.93"></rect>
            <rect id="Rectangle" fill="#2B5B79" x="309.17" y="270.97" width="51.88" height="1.93"></rect>
            <rect id="Rectangle" fill="#2B5B79" x="309.17" y="206.19" width="51.88" height="1.93"></rect>
            <rect id="Rectangle" fill="#2B5B79" x="309.17" y="210" width="51.88" height="1.93"></rect>
            <rect id="Rectangle" fill="#2B5B79" x="309.17" y="213.81" width="51.88" height="1.93"></rect>
            <rect id="Rectangle" fill="#2B5B79" x="309.17" y="217.62" width="51.88" height="1.93"></rect>
            <rect id="Rectangle" fill="#2B5B79" x="309.17" y="221.43" width="51.88" height="1.93"></rect>
            <rect id="Rectangle" fill="#2B5B79" x="309.17" y="225.24" width="51.88" height="1.93"></rect>
            <rect id="Rectangle" fill="#2B5B79" x="309.17" y="229.05" width="51.88" height="1.93"></rect>
            <rect id="Rectangle" fill="#2B5B79" x="309.17" y="232.86" width="51.88" height="1.93"></rect>
            <rect id="Rectangle" fill="#2B5B79" x="309.17" y="236.67" width="51.88" height="1.93"></rect>
            <g id="Building_11" transform="translate(125.000000, 42.000000)">
                <rect id="Rectangle" fill="#EEF1F2" x="11.92" y="0.28" width="88.87" height="266.6"></rect>
                <path d="M57.76,0.28 L11.92,0.28 L11.92,57.85 C32.5,110.24 76.44,160.56 98.57,212.85 L98.57,266.93 L100.79,266.93 L100.79,78.26 C90.44,51.92 74.19,26.09 57.76,0.28 Z" id="Path" fill="#33617E"></path>
                <path d="M80.74,186.9 L16.37,186.9 L16.37,184.67 L79.53,184.67 C79.93,185.42 80.34,186.16 80.74,186.9 Z M84.24,193.56 L16.37,193.56 L16.37,195.78 L85.37,195.78 C85,195.04 84.62,194.3 84.24,193.55 L84.24,193.56 Z M88.61,202.45 L16.37,202.45 L16.37,204.67 L89.65,204.67 C89.31,203.93 89,203.19 88.61,202.45 Z M74.52,175.79 L16.37,175.79 L16.37,178.01 L75.81,178.01 L74.52,175.79 Z M92.52,211.34 L16.32,211.34 L16.32,213.55 L93.5,213.55 C93.2,212.82 92.88,212.08 92.57,211.34 L92.52,211.34 Z M16.32,238 L16.32,240.22 L94.08,240.22 L94.08,238 L16.32,238 Z M69.23,166.9 L16.37,166.9 L16.37,169.12 L70.62,169.12 C70.18,168.38 69.73,167.64 69.28,166.9 L69.23,166.9 Z M16.32,229.11 L16.32,231.33 L94.08,231.33 L94.08,229.11 L16.32,229.11 Z M16.32,220.22 L16.32,222.44 L94.08,222.44 L94.08,220.22 L16.32,220.22 Z M52.62,140.22 L16.32,140.22 L16.32,142.44 L54.04,142.44 C53.61,141.72 53.14,140.98 52.67,140.24 L52.62,140.22 Z M25.28,95.79 L16.28,95.79 L16.28,98.01 L26.6,98.01 C26.17,97.29 25.75,96.55 25.33,95.81 L25.28,95.79 Z M20.35,86.9 L16.35,86.9 L16.35,89.12 L21.58,89.12 C21.19,88.4 20.8,87.66 20.4,86.92 L20.35,86.9 Z M16.35,246.9 L16.35,266.9 L94.11,266.9 L94.11,246.9 L16.35,246.9 Z M30.49,104.71 L16.37,104.71 L16.37,106.94 L31.83,106.94 L30.49,104.71 Z M58.29,149.15 L16.37,149.15 L16.37,151.37 L59.71,151.37 C59.24,150.61 58.77,149.87 58.31,149.13 L58.29,149.15 Z M47,131.35 L16.37,131.35 L16.37,133.55 L48.43,133.55 L47,131.35 Z M63.84,158.01 L16.37,158.01 L16.37,160.24 L65.24,160.24 L63.84,158.01 Z M35.84,113.58 L16.37,113.58 L16.37,115.8 L37.25,115.8 L35.84,113.58 Z M41.37,122.47 L16.37,122.47 L16.37,124.69 L42.8,124.69 C42.33,123.95 41.87,123.21 41.41,122.47 L41.37,122.47 Z" id="Shape" fill="#009BDB"></path>
                <path d="M34.27,211.34 L64.9,211.34 L67.13,213.56 L36.5,213.56 L34.27,211.34 Z M16.37,186.9 L40.47,186.9 L38.24,184.67 L16.37,184.67 L16.37,186.9 Z M49.37,195.78 L47.13,193.55 L16.5,193.55 L18.72,195.77 L49.37,195.78 Z M16.37,178.01 L31.58,178.01 L29.36,175.79 L16.36,175.79 L16.37,178.01 Z M27.61,204.67 L58.24,204.67 L56,202.45 L25.39,202.45 L27.61,204.67 Z M16.37,98.03 L26.6,98.03 C26.17,97.29 25.75,96.55 25.33,95.81 L16.33,95.81 L16.37,98.03 Z M30,113.55 L32.22,115.77 L37.22,115.77 L35.88,113.55 L30,113.55 Z M16.38,86.89 L16.38,89.11 L21.61,89.11 C21.2,88.37 20.81,87.63 20.41,86.89 L16.38,86.89 Z M31.84,106.89 L30.52,104.66 L21.1,104.66 L23.32,106.89 L31.84,106.89 Z M29.52,237.97 L16.37,237.97 L16.37,240.19 L31.74,240.19 L29.52,237.97 Z M73.8,220.19 L43.16,220.19 L45.38,222.41 L76,222.41 L73.8,220.19 Z M16.38,231.3 L22.86,231.3 L20.64,229.08 L16.38,229.08 L16.38,231.3 Z M91.57,237.97 L60.93,237.97 L63.16,240.19 L93.79,240.19 L91.57,237.97 Z M38.41,246.85 L16.41,246.85 L16.41,266.85 L58.41,266.85 L38.41,246.85 Z M94.14,266.85 L94.14,246.85 L69.82,246.85 L89.82,266.85 L94.14,266.85 Z M16.38,169.09 L22.7,169.09 L20.48,166.87 L16.38,166.87 L16.38,169.09 Z M84.91,231.3 L82.69,229.08 L52.05,229.08 L54.27,231.3 L84.91,231.3 Z M41.41,122.47 L38.88,122.47 L41.1,124.69 L42.8,124.69 C42.33,123.95 41.87,123.21 41.41,122.47 Z" id="Shape" fill="#0099DA"></path>
                <path d="M47,131.35 L16.37,131.35 L16.37,129.13 L45.61,129.13 L47,131.35 Z M68,164.68 L16.37,164.68 L16.37,166.9 L69.28,166.9 C68.84,166.16 68.4,165.42 68,164.68 Z M51.31,138.02 L16.37,138.02 L16.37,140.24 L52.67,140.24 L51.31,138.02 Z M56.95,146.91 L16.37,146.91 L16.37,149.13 L58.31,149.13 L56.95,146.91 Z M40,120.25 L16.37,120.25 L16.37,122.47 L41.37,122.47 L40,120.25 Z M24.07,93.55 L16.37,93.55 L16.37,95.77 L25.37,95.77 C24.91,95.07 24.48,94.33 24.07,93.55 Z M19.2,84.66 L16.37,84.66 L16.37,86.88 L20.37,86.88 L19.2,84.66 Z M34.52,111.32 L16.37,111.32 L16.37,113.55 L35.88,113.55 L34.52,111.32 Z M29.19,102.43 L16.37,102.43 L16.37,104.65 L30.51,104.65 L29.19,102.43 Z M62.49,155.75 L16.37,155.75 L16.37,157.97 L63.86,157.97 L62.49,155.75 Z M73.24,173.55 L16.37,173.55 L16.37,175.77 L74.52,175.77 L73.24,173.55 Z M16.37,237.98 L94.13,237.98 L94.13,235.75 L16.37,235.75 L16.37,237.98 Z M16.37,229.09 L94.13,229.09 L94.13,226.87 L16.37,226.87 L16.37,229.09 Z M16.37,220.2 L94.13,220.2 L94.13,217.98 L16.37,217.98 L16.37,220.2 Z M16.37,246.86 L94.13,246.86 L94.13,244.64 L16.37,244.64 L16.37,246.86 Z M78.31,182.43 L16.37,182.43 L16.37,184.65 L79.53,184.65 L78.31,182.43 Z M83.1,191.32 L16.37,191.32 L16.37,193.55 L84.24,193.55 C83.86,192.82 83.49,192.08 83.1,191.34 L83.1,191.32 Z M87.57,200.21 L16.37,200.21 L16.37,202.43 L88.61,202.43 C88.26,201.71 87.93,200.97 87.57,200.23 L87.57,200.21 Z M91.63,209.09 L16.37,209.09 L16.37,211.32 L92.57,211.32 C92.26,210.55 92,209.85 91.63,209.11 L91.63,209.09 Z" id="Shape" fill="#96A6AE"></path>
                <path d="M56.34,0.28 L0.82,0.28 C0.82,74.42 72.67,142.18 100.82,213.78 L100.82,266.88 L111.9,266.88 L111.9,133.55 C111.9,87.55 84.12,43.9 56.34,0.28 Z" id="Path" fill="#0099DA"></path>
                <polygon id="Path" fill="#4AB8E5" points="111.9 266.88 111.9 258.33 100.79 247.22 100.79 266.88"></polygon>
                <path d="M74.38,157.97 L111.9,195.49 L111.9,142.65 L8.41,39.16 C21.8,79.55 50.56,118.55 74.38,157.97 Z" id="Path" fill="#4AB8E5"></path>
                <path d="M58.43,7.99 C57.0628913,5.85603914 56.3374652,3.37431821 56.34,0.84 L56.34,0.28 L1,0.28 L108,107.32 C99.68,73.49 79.25,40.73 58.43,7.99 Z" id="Path" fill="#4AB8E5"></path>
                <path d="M111.9,220.22 L111.9,222.44 L100.79,222.44 L100.79,220.22 L111.9,220.22 Z M100.79,242.44 L100.79,244.66 L111.9,244.66 L111.9,242.44 L100.79,242.44 Z M95,200.23 L111.9,200.23 L111.9,198 L93.9,198 L95,200.23 Z M70.38,155.79 L111.9,155.79 L111.9,153.55 L69,153.55 L70.38,155.79 Z M111.9,131.35 L54.93,131.35 L56.34,133.58 L111.9,133.58 C111.9,132.83 111.87,132.1 111.86,131.35 L111.9,131.35 Z M83.53,178.01 L111.9,178.01 L111.9,175.79 L82.24,175.79 C82.66,176.55 83.08,177.27 83.49,178.01 L83.53,178.01 Z M82.28,42.49 L8,42.49 C8.24,43.23 8.49,43.97 8.74,44.71 L83.49,44.71 C83.08,43.97 82.66,43.23 82.24,42.49 L82.28,42.49 Z M69,20.27 L2.51,20.27 C2.64,21.01 2.76,21.75 2.9,22.49 L70.34,22.49 L69,20.27 Z M93.94,64.7 L16.72,64.7 C17.05,65.45 17.39,66.19 17.72,66.93 L95,66.93 L93.94,64.7 Z M103.24,86.92 L28,86.92 C28.4,87.66 28.81,88.4 29.23,89.14 L104,89.14 C103.71,88.4 103.47,87.66 103.21,86.92 L103.24,86.92 Z M109.42,109.14 L41,109.14 C41.46,109.88 41.92,110.62 42.37,111.36 L109.85,111.36 C109.68,110.62 109.54,109.88 109.39,109.14 L109.42,109.14 Z" id="Shape" fill="#003A5D"></path>
            </g>
            <rect id="Rectangle" fill="#0099DA" x="253.36" y="102.67" width="65.3" height="206.2"></rect>
            <rect id="Rectangle" fill="#4AB8E5" x="253.36" y="106.11" width="3.44" height="202.77"></rect>
            <rect id="Rectangle" fill="#4AB8E5" x="260.23" y="106.11" width="3.44" height="180.43"></rect>
            <rect id="Rectangle" fill="#4AB8E5" x="267.1" y="106.11" width="3.44" height="180.43"></rect>
            <rect id="Rectangle" fill="#4AB8E5" x="273.98" y="106.11" width="3.44" height="202.77"></rect>
            <rect id="Rectangle" fill="#4AB8E5" x="280.85" y="106.11" width="3.44" height="180.43"></rect>
            <rect id="Rectangle" fill="#4AB8E5" x="287.72" y="106.11" width="3.44" height="180.43"></rect>
            <rect id="Rectangle" fill="#4AB8E5" x="294.6" y="106.11" width="3.44" height="202.77"></rect>
            <rect id="Rectangle" fill="#4AB8E5" x="301.47" y="106.11" width="3.44" height="180.43"></rect>
            <rect id="Rectangle" fill="#4AB8E5" x="308.34" y="106.11" width="3.44" height="180.43"></rect>
            <rect id="Rectangle" fill="#4AB8E5" x="315.22" y="106.11" width="3.44" height="202.77"></rect>
            <rect id="Rectangle" fill="#009BDB" x="253.36" y="119.86" width="65.3" height="1.72"></rect>
            <rect id="Rectangle" fill="#009BDB" x="253.36" y="137.04" width="65.3" height="1.72"></rect>
            <rect id="Rectangle" fill="#009BDB" x="253.36" y="154.22" width="65.3" height="1.72"></rect>
            <rect id="Rectangle" fill="#009BDB" x="253.36" y="171.41" width="65.3" height="1.72"></rect>
            <rect id="Rectangle" fill="#009BDB" x="253.36" y="188.59" width="65.3" height="1.72"></rect>
            <rect id="Rectangle" fill="#009BDB" x="253.36" y="205.77" width="65.3" height="1.72"></rect>
            <rect id="Rectangle" fill="#009BDB" x="253.36" y="222.96" width="65.3" height="1.72"></rect>
            <rect id="Rectangle" fill="#009BDB" x="253.36" y="240.14" width="65.3" height="1.72"></rect>
            <rect id="Rectangle" fill="#009BDB" x="253.36" y="257.33" width="65.3" height="1.72"></rect>
            <rect id="Rectangle" fill="#009BDB" x="253.36" y="274.51" width="65.3" height="1.72"></rect>
            <rect id="Rectangle" fill="#009BDB" x="253.36" y="291.69" width="65.3" height="1.72"></rect>
            <rect id="Rectangle" fill="#009BDB" x="253.36" y="114.7" width="65.3" height="1.72"></rect>
            <rect id="Rectangle" fill="#009BDB" x="253.36" y="131.89" width="65.3" height="1.72"></rect>
            <rect id="Rectangle" fill="#009BDB" x="253.36" y="149.07" width="65.3" height="1.72"></rect>
            <rect id="Rectangle" fill="#009BDB" x="253.36" y="166.25" width="65.3" height="1.72"></rect>
            <rect id="Rectangle" fill="#009BDB" x="253.36" y="183.44" width="65.3" height="1.72"></rect>
            <rect id="Rectangle" fill="#009BDB" x="253.36" y="200.62" width="65.3" height="1.72"></rect>
            <rect id="Rectangle" fill="#009BDB" x="253.36" y="217.8" width="65.3" height="1.72"></rect>
            <rect id="Rectangle" fill="#009BDB" x="253.36" y="234.99" width="65.3" height="1.72"></rect>
            <rect id="Rectangle" fill="#009BDB" x="253.36" y="252.17" width="65.3" height="1.72"></rect>
            <rect id="Rectangle" fill="#009BDB" x="253.36" y="269.35" width="65.3" height="1.72"></rect>
            <rect id="Rectangle" fill="#009BDB" x="253.36" y="286.54" width="65.3" height="1.72"></rect>
            <rect id="Rectangle" fill="#33617E" x="252.5" y="116.42" width="67.02" height="3.44" rx="0.27"></rect>
            <rect id="Rectangle" fill="#33617E" x="252.5" y="133.6" width="67.02" height="3.44" rx="0.27"></rect>
            <rect id="Rectangle" fill="#33617E" x="252.5" y="150.79" width="67.02" height="3.44" rx="0.27"></rect>
            <rect id="Rectangle" fill="#33617E" x="252.5" y="167.97" width="67.02" height="3.44" rx="0.27"></rect>
            <rect id="Rectangle" fill="#33617E" x="252.5" y="185.15" width="67.02" height="3.44" rx="0.27"></rect>
            <rect id="Rectangle" fill="#33617E" x="252.5" y="202.34" width="67.02" height="3.44" rx="0.27"></rect>
            <rect id="Rectangle" fill="#33617E" x="252.5" y="219.52" width="67.02" height="3.44" rx="0.27"></rect>
            <rect id="Rectangle" fill="#33617E" x="252.5" y="236.71" width="67.02" height="3.44" rx="0.27"></rect>
            <rect id="Rectangle" fill="#33617E" x="252.5" y="253.89" width="67.02" height="3.44" rx="0.27"></rect>
            <rect id="Rectangle" fill="#33617E" x="252.5" y="271.07" width="67.02" height="3.44" rx="0.27"></rect>
            <rect id="Rectangle" fill="#33617E" x="252.5" y="288.26" width="67.02" height="3.44" rx="0.27"></rect>
            <path d="M316.08,95.8 L255.93,95.8 L252.49994,99.24 L252.49994,101.81 C252.497291,102.038906 252.587027,102.259228 252.7489,102.4211 C252.910772,102.582973 253.131094,102.672709 253.36,102.67006 L318.65,102.67006 C318.878906,102.672709 319.099228,102.582973 319.2611,102.4211 C319.422973,102.259228 319.512709,102.038906 319.51006,101.81 L319.51006,99.24 L316.08,95.8 Z" id="Path" fill="#33617E"></path>
            <rect id="Rectangle" fill="#023852" x="280.85" y="298.57" width="10.31" height="10.31"></rect>
            <rect id="Rectangle" fill="#009BDB" opacity="0.3" style="mix-blend-mode: multiply;" x="280.85" y="298.57" width="10.31" height="1.72"></rect>
            <rect id="Rectangle" fill="#4AB8E5" x="279.99" y="295.13" width="12.03" height="3.44" rx="0.27"></rect>
            <rect id="Rectangle" fill="#023852" x="301.47" y="298.57" width="10.31" height="10.31"></rect>
            <rect id="Rectangle" fill="#009BDB" opacity="0.3" style="mix-blend-mode: multiply;" x="301.47" y="298.57" width="10.31" height="1.72"></rect>
            <rect id="Rectangle" fill="#4AB8E5" x="300.61" y="295.13" width="12.03" height="3.44" rx="0.27"></rect>
            <rect id="Rectangle" fill="#023852" x="260.23" y="298.57" width="10.31" height="10.31"></rect>
            <rect id="Rectangle" fill="#009BDB" opacity="0.3" style="mix-blend-mode: multiply;" x="260.23" y="298.57" width="10.31" height="1.72"></rect>
            <rect id="Rectangle" fill="#4AB8E5" x="259.37" y="295.13" width="12.03" height="3.44" rx="0.27"></rect>
            <path d="M185.46,25.06 L179,18.63 C178.737019,18.359523 178.377218,18.2048087 178,18.2 L169.61,18.2 C169.233245,18.1930278 168.874233,18.0386526 168.61,17.77 L161.47,10.63 C161.202268,10.3665085 160.845417,10.2130624 160.47,10.2 L147.22,10.2 C146.843699,10.2090668 146.48544,10.3631182 146.22,10.63 L139.63,17.22 C139.363394,17.4851622 139.005855,17.6389042 138.63,17.65 L129.88,17.65 L128.78,18.12 L119.8,27.5500323 L184.44,27.5500323 C185.032034,27.5539349 185.566997,27.1975413 185.791422,26.6496791 C186.015848,26.1018169 185.884654,25.4725397 185.46,25.06 L185.46,25.06 Z" id="Path" fill="url(#linearGradient-1)"></path>
            <path d="M135.13,14.55 L122.42,14.55 C122.109152,14.5514258 121.810515,14.4290924 121.59,14.21 L107.78,0.34 C107.559485,0.120907551 107.260848,-0.00142579321 106.95,-1.23247788e-05 L95.36,-1.23247788e-05 C95.0491523,-0.00142579321 94.750515,0.120907551 94.53,0.34 L90.53,4.34 C90.3101133,4.56003821 90.0110635,4.68254053 89.7,4.68 L70.54,4.68 C70.2279364,4.6823224 69.9294998,4.80816913 69.71,5.03 L58.71,16.03 C58.489485,16.2490924 58.1908477,16.3714258 57.88,16.37 L43.88,16.37 C43.5679364,16.3723224 43.2694998,16.4981691 43.05,16.72 L39.26,20.5 C38.9231015,20.8347051 38.8219403,21.3398508 39.0039703,21.7784773 C39.1860003,22.2171038 39.615107,22.5021883 40.09,22.5000125 L140.71,22.43 C141.183072,22.4281352 141.60847,22.1415669 141.787933,21.7038524 C141.967396,21.2661379 141.865605,20.7634224 141.53,20.43 L136,14.84 C135.761545,14.6289728 135.44738,14.5242511 135.13,14.55 Z" id="Path" fill="#EFF2F3"></path>
            <path d="M370.74,271.99 C369.320628,271.99 368.17,273.140628 368.17,274.56 L368.17,279.18 L369.31,279.18 L369.31,274.55 C369.31,273.760233 369.950233,273.12 370.74,273.12 C371.529767,273.12 372.17,273.760233 372.17,274.55 L372.17,308.77 L373.31,308.77 L373.31,274.55 C373.299055,273.136812 372.15322,271.995435 370.74,271.99 L370.74,271.99 Z" id="Path" fill="#33617E"></path>
            <rect id="Rectangle" fill="#33617E" x="367.36" y="278.58" width="2.78" height="2.78" rx="1.31"></rect>
            <path d="M109.09,271.99 C107.674535,271.995508 106.53,273.144524 106.53,274.56 L106.53,279.18 L107.66,279.18 L107.66,274.55 C107.66,273.760233 108.300233,273.12 109.09,273.12 C109.879767,273.12 110.52,273.760233 110.52,274.55 L110.52,308.77 L111.66,308.77 L111.66,274.55 C111.654492,273.134535 110.505476,271.99 109.09,271.99 L109.09,271.99 Z" id="Path" fill="#33617E"></path>
            <rect id="Rectangle" fill="#33617E" x="105.72" y="278.58" width="2.78" height="2.78" rx="1.31"></rect>
            <path d="M3.38,271.989688 C1.96452428,271.989688 0.815507688,273.134535 0.81,274.55 L0.81,279.17 L2,279.17 L2,274.55 C2,273.760233 2.64023281,273.12 3.43,273.12 C4.21976719,273.12 4.86,273.760233 4.86,274.55 L4.86,308.77 L6,308.77 L6,274.55 C5.99475126,273.862228 5.71510082,273.205022 5.22315837,272.724346 C4.73121592,272.243669 4.06770867,271.979317 3.38,271.989688 Z" id="Path" fill="#33617E"></path>
            <rect id="Rectangle" fill="#33617E" x="0" y="278.58" width="2.78" height="2.78" rx="1.31"></rect>
            <path d="M61.19,285.470136 L65.44,285.470136 C66.3997872,285.47837 67.3225139,285.099907 68,284.42 L69,283.42 C69.6517344,282.744176 70.0110044,281.838816 70,280.9 L70,280.9 C69.9874377,279.957936 70.3467429,279.048894 71,278.37 L72.92,276.45 C73.5717344,275.774176 73.9310044,274.868816 73.92,273.93 L73.92,268.1 C73.9331824,267.160783 73.5735953,266.254623 72.92,265.58 L67.18,259.84 C66.5092093,259.168444 65.5991822,258.790765 64.65,258.79 L55.6,258.79 C54.6540649,258.792317 53.747718,259.169962 53.08,259.84 L47.91,265 C47.2558132,265.678296 46.8963505,266.587737 46.91,267.53 L46.91,275.93 C46.8963505,276.872263 47.2558132,277.781704 47.91,278.46 L53.91,284.46 C54.5932289,285.119124 55.5108495,285.478976 56.46,285.46 L61.19,285.470136 Z" id="Path" fill="#CCD8DF"></path>
            <path d="M72.94,265.62 L67.2,259.88 C66.5292093,259.208444 65.6191822,258.830765 64.67,258.83 L55.6,258.83 C54.6540649,258.832317 53.747718,259.209962 53.08,259.88 L47.91,265.04 C47.2558132,265.718296 46.8963505,266.627737 46.91,267.57 L46.91,273.11 C46.8963505,272.167737 47.2558132,271.258296 47.91,270.58 L53.08,265.42 C53.747718,264.749962 54.6540649,264.372317 55.6,264.37 L64.67,264.37 C65.6191822,264.370765 66.5292093,264.748444 67.2,265.42 L72.94,271.15 C73.5941868,271.828296 73.9536495,272.737737 73.94,273.68 L73.94,268.14 C73.9531824,267.200783 73.5935953,266.294623 72.94,265.62 L72.94,265.62 Z" id="Path" fill="#E5EBEF"></path>
            <path d="M43.85,271.29 L38.19,271.29 C37.511085,271.290103 36.8600141,271.559883 36.38,272.04 L35,273.48 C34.5133818,273.956453 34.2393976,274.608968 34.239999,275.29 L34.239999,282.02 C34.239999,282.698915 34.5098833,283.349986 34.99,283.83 L38.99,287.88 C39.4622299,288.35472 40.1005245,288.62725 40.77,288.64 L45.42,288.7 C46.1129643,288.711794 46.7808782,288.441018 47.27,287.95 L50.62,284.6 C51.10345,284.117309 51.3766122,283.463157 51.38,282.78 L51.38,278.78 C51.3761518,278.09987 51.1028578,277.448999 50.62,276.97 L45.68,272.02 C45.1918135,271.542277 44.53296,271.279455 43.85,271.29 Z" id="Path" fill="#99B0BE"></path>
            <path d="M50.6,276.99 L45.66,272.04 C45.1799859,271.559883 44.528915,271.29 43.85,271.29 L38.19,271.29 C37.511085,271.29 36.8600141,271.559883 36.38,272.04 L35,273.48 C34.5133818,273.956453 34.2393976,274.608968 34.239999,275.29 L34.239999,279.78 C34.241198,279.0964 34.5146956,278.441445 35,277.96 L36.38,276.55 C36.8600141,276.069883 37.511085,275.800103 38.19,275.8 L43.85,275.8 C44.528915,275.800103 45.1799859,276.069883 45.66,276.55 L50.6,281.49 C51.0169136,281.913623 51.2747756,282.468203 51.33,283.06 C51.3349025,282.973403 51.3349025,282.886597 51.33,282.8 L51.33,278.8 C51.3341314,278.124149 51.0718657,277.473874 50.6,276.99 Z" id="Path" fill="#B2C4CE"></path>
            <rect id="Rectangle" fill="#33617E" x="60.55" y="270.53" width="1" height="38.43"></rect>
            <path d="M60.65,281 C60.5726305,280.999597 60.4980269,280.971177 60.44,280.92 L55.61,276.08 C55.5020426,275.964653 55.5020426,275.785347 55.61,275.67 C55.6626649,275.616249 55.7347487,275.585959 55.81,275.585959 C55.8852513,275.585959 55.9573351,275.616249 56.01,275.67 L60.85,280.55 C60.9579574,280.665347 60.9579574,280.844653 60.85,280.96 C60.7894808,280.994791 60.719245,281.008838 60.65,281 Z" id="Path" fill="#33617E"></path>
            <path d="M61,274.55 C60.9226305,274.549597 60.8480269,274.521177 60.79,274.47 C60.6820426,274.354653 60.6820426,274.175347 60.79,274.06 L62.89,271.96 C63.003985,271.851443 63.1837568,271.853635 63.295061,271.964939 C63.4063651,272.076243 63.4085571,272.256015 63.3,272.37 L61.2,274.47 C61.1445815,274.518978 61.0739084,274.547247 61,274.55 Z" id="Path" fill="#33617E"></path>
            <rect id="Rectangle" fill="#33617E" x="42.59" y="279.16" width="1" height="29.83"></rect>
            <path d="M43,284.47 C42.9206337,284.47 42.8447354,284.437472 42.79,284.38 C42.7362491,284.327335 42.7059592,284.255251 42.7059592,284.18 C42.7059592,284.104749 42.7362491,284.032665 42.79,283.98 L45.14,281.55 C45.1929705,281.493064 45.2672338,281.460722 45.345,281.460722 C45.4227662,281.460722 45.4970295,281.493064 45.55,281.55 C45.6037509,281.602665 45.6340408,281.674749 45.6340408,281.75 C45.6340408,281.825251 45.6037509,281.897335 45.55,281.95 L43.16,284.34 C43.1251406,284.402105 43.0679255,284.448592 43,284.47 L43,284.47 Z" id="Path" fill="#33617E"></path>
            <path d="M42.76,283.05 C42.6898096,283.0533 42.6212721,283.028049 42.57,282.98 L40.21,280.81 C40.1562491,280.757335 40.1259592,280.685251 40.1259592,280.61 C40.1259592,280.534749 40.1562491,280.462665 40.21,280.41 C40.3232381,280.296829 40.5067619,280.296829 40.62,280.41 L43,282.55 C43.084673,282.630507 43.1127647,282.753963 43.0712622,282.86318 C43.0297597,282.972397 42.9267696,283.046042 42.81,283.05 L42.76,283.05 Z" id="Path" fill="#33617E"></path>
            <rect id="Rectangle" fill="#CCD8DF" style="mix-blend-mode: multiply;" x="320.4" y="200" width="20.9" height="108.72"></rect>
        </g>
    </g>
</svg>