<?xml version="1.0" encoding="UTF-8"?>
<svg width="440px" height="330px" viewBox="0 0 440 330" version="1.1" xmlns="http://www.w3.org/2000/svg" xmlns:xlink="http://www.w3.org/1999/xlink">
    <title>Graphic elements / Icons / Rich icons / Marketplace / Practice-Tracking-and-Monitoring</title>
    <defs>
        <linearGradient x1="50.0082332%" y1="0%" x2="50.0082332%" y2="100%" id="linearGradient-1">
            <stop stop-color="#FFFFFF" stop-opacity="0" offset="0%"></stop>
            <stop stop-color="#FBFBFC" stop-opacity="0.04" offset="6%"></stop>
            <stop stop-color="#EFF2F3" stop-opacity="0.16" offset="16%"></stop>
            <stop stop-color="#DCE2E6" stop-opacity="0.35" offset="27%"></stop>
            <stop stop-color="#C2CCD2" stop-opacity="0.62" offset="40%"></stop>
            <stop stop-color="#A1B1BA" stop-opacity="0.96" offset="54%"></stop>
            <stop stop-color="#9DADB7" offset="55%"></stop>
        </linearGradient>
        <linearGradient x1="146.233822%" y1="73.9597315%" x2="-22.7080461%" y2="36.3758389%" id="linearGradient-2">
            <stop stop-color="#FFFFFF" offset="0%"></stop>
            <stop stop-color="#0099DA" offset="100%"></stop>
        </linearGradient>
        <linearGradient x1="0%" y1="49.9913039%" x2="100%" y2="49.9913039%" id="linearGradient-3">
            <stop stop-color="#FFFFFF" offset="0%"></stop>
            <stop stop-color="#023852" offset="100%"></stop>
        </linearGradient>
        <linearGradient x1="50.0217177%" y1="100%" x2="50.0217177%" y2="0.00393704127%" id="linearGradient-4">
            <stop stop-color="#FFFFFF" stop-opacity="0" offset="0%"></stop>
            <stop stop-color="#FBFBFC" stop-opacity="0.04" offset="11%"></stop>
            <stop stop-color="#EFF2F3" stop-opacity="0.16" offset="28%"></stop>
            <stop stop-color="#DCE2E6" stop-opacity="0.35" offset="48%"></stop>
            <stop stop-color="#C2CCD2" stop-opacity="0.62" offset="71%"></stop>
            <stop stop-color="#A1B1BA" stop-opacity="0.96" offset="97%"></stop>
            <stop stop-color="#9DADB7" offset="100%"></stop>
        </linearGradient>
        <linearGradient x1="0.196656834%" y1="50.0523834%" x2="100.196657%" y2="50.0523834%" id="linearGradient-5">
            <stop stop-color="#FFFFFF" offset="0%"></stop>
            <stop stop-color="#0099DA" offset="100%"></stop>
        </linearGradient>
        <linearGradient x1="1.61257926e-13%" y1="50.0278765%" x2="100%" y2="50.0278765%" id="linearGradient-6">
            <stop stop-color="#FFFFFF" offset="0%"></stop>
            <stop stop-color="#023852" offset="100%"></stop>
        </linearGradient>
        <linearGradient x1="0%" y1="50%" x2="100%" y2="50%" id="linearGradient-7">
            <stop stop-color="#FFFFFF" stop-opacity="0" offset="0%"></stop>
            <stop stop-color="#FFFFFF" offset="100%"></stop>
        </linearGradient>
    </defs>
    <g id="Graphic-elements-/-Icons-/-Rich-icons-/-Marketplace-/-Practice-Tracking-and-Monitoring" stroke="none" stroke-width="1" fill="none" fill-rule="evenodd">
        <g id="tracking-and-monitoring" transform="translate(29.000000, 0.000000)">
            <path d="M297.066508,186.300862 L297.066508,178.296588 L276.948931,178.296588 L276.948931,186.300862 C276.9503,187.095802 276.64005,187.858584 276.086721,188.420693 C275.533392,188.982801 274.782524,189.297974 274,189.296588 L300,189.296588 C298.377383,189.287953 297.066486,187.949247 297.066508,186.300862 Z" id="Path" fill="#B2BFC7" fill-rule="nonzero"></path>
            <rect id="Rectangle" fill="#9DADB7" fill-rule="nonzero" x="278" y="178.296588" width="19" height="6"></rect>
            <path d="M270.926674,189.296588 L304.073326,189.296588 C305.137399,189.296588 306,190.053072 306,190.986243 L306,191.296588 L269,191.296588 L269,190.986243 C269,190.053072 269.862601,189.296588 270.926674,189.296588 Z" id="Path" fill="#CFD7DC" fill-rule="nonzero"></path>
            <path d="M161.076801,186.300865 L161.076801,178.296588 L140.948931,178.296588 L140.948931,186.300865 C140.948931,187.09538 140.638241,187.857354 140.085209,188.419161 C139.532177,188.980968 138.782105,189.296588 138,189.296588 L164,189.296588 C162.380229,189.285083 161.07393,187.946376 161.076801,186.300865 Z" id="Path" fill="#B2BFC7" fill-rule="nonzero"></path>
            <rect id="Rectangle" fill="#9DADB7" fill-rule="nonzero" x="142" y="178.296588" width="19" height="6"></rect>
            <path d="M134.926674,189.296588 L168.073326,189.296588 C169.137399,189.296588 170,190.053072 170,190.986243 L170,191.296588 L133,191.296588 L133,190.986243 C133,190.053072 133.862601,189.296588 134.926674,189.296588 Z" id="Path" fill="#CFD7DC" fill-rule="nonzero"></path>
            <rect id="Rectangle" stroke="#023852" x="50" y="190.296588" width="332" height="9"></rect>
            <rect id="Rectangle" fill="#023852" fill-rule="nonzero" x="100" y="0.296587927" width="136" height="85" rx="2.3"></rect>
            <circle id="Oval" fill="#4B7284" fill-rule="nonzero" cx="230.5" cy="80.7965879" r="1.5"></circle>
            <circle id="Oval" fill="#4B7284" fill-rule="nonzero" cx="225.5" cy="80.7965879" r="1.5"></circle>
            <rect id="Rectangle" fill="#0099DA" fill-rule="nonzero" x="104" y="4.29658793" width="129" height="72"></rect>
            <rect id="Rectangle" fill="#023852" fill-rule="nonzero" x="246" y="0.296587927" width="136" height="85" rx="2.3"></rect>
            <circle id="Oval" fill="#4B7284" fill-rule="nonzero" cx="376.5" cy="80.7965879" r="1.5"></circle>
            <circle id="Oval" fill="#4B7284" fill-rule="nonzero" cx="369.5" cy="80.7965879" r="1.5"></circle>
            <rect id="Rectangle" fill="#0099DA" fill-rule="nonzero" x="249" y="4.29658793" width="129" height="72"></rect>
            <rect id="Rectangle" stroke="#FFFFFF" stroke-linecap="round" stroke-linejoin="round" x="108" y="7.29658793" width="121" height="65"></rect>
            <path d="M125.511016,26.2978583 C123.089731,26.2413431 121.074976,28.0774258 121,30.4088289 C121,32.217656 125.511016,38.2965879 125.511016,38.2965879 C125.511016,38.2965879 130,32.3820948 130,30.4088289 C129.925033,28.0858759 127.923795,26.2531602 125.511016,26.2978583 Z" id="Path" fill="#FFE700" fill-rule="nonzero"></path>
            <path d="M164.505495,20.2979927 C162.088003,20.2385106 160.074786,22.0754196 160,24.4089172 C160,26.217724 164.5,32.2965879 164.5,32.2965879 C164.5,32.2965879 169,26.382161 169,24.4089172 C168.925203,22.0796576 166.918746,20.2444401 164.505495,20.2979927 L164.505495,20.2979927 Z" id="Path" fill="#FFE700" fill-rule="nonzero"></path>
            <path d="M200,24.2965879 C195.585,24.2965879 192,27.6716163 192,31.8393026 C192,35.1644783 200,46.2965879 200,46.2965879 C200,46.2965879 208,35.4336829 208,31.8393026 C208,27.6716163 204.42,24.2965879 200,24.2965879 Z" id="Path" fill="#FFE700" fill-rule="nonzero"></path>
            <line x1="108.275" y1="46.9115879" x2="108.725" y2="46.6815879" id="Path" stroke="#FFFFFF" stroke-linecap="round" stroke-linejoin="round"></line>
            <line x1="111" y1="46.2965879" x2="115" y2="44.2965879" id="Path" stroke="#FFFFFF" stroke-linecap="round" stroke-linejoin="round" stroke-dasharray="1.04"></line>
            <line x1="116" y1="43.2965879" x2="148" y2="27.2965879" id="Path" stroke="#FFFFFF" stroke-linecap="round" stroke-linejoin="round" stroke-dasharray="1.04"></line>
            <polyline id="Path" stroke="#FFFFFF" stroke-linecap="round" stroke-linejoin="round" points="150.045 26.9115879 150.495 26.6815879 150.955 26.8715879"></polyline>
            <line x1="153" y1="28.2965879" x2="157" y2="30.2965879" id="Path" stroke="#FFFFFF" stroke-linecap="round" stroke-linejoin="round" stroke-dasharray="1.06"></line>
            <line x1="158" y1="30.2965879" x2="201" y2="47.2965879" id="Path" stroke="#FFFFFF" stroke-linecap="round" stroke-linejoin="round" stroke-dasharray="1.06"></line>
            <polyline id="Path" stroke="#FFFFFF" stroke-linecap="round" stroke-linejoin="round" points="203.085 46.7915879 203.555 46.9715879 203.915 46.6215879"></polyline>
            <line x1="205" y1="46.2965879" x2="208" y2="43.2965879" id="Path" stroke="#FFFFFF" stroke-linecap="round" stroke-linejoin="round" stroke-dasharray="0.98"></line>
            <line x1="210" y1="41.2965879" x2="228" y2="23.2965879" id="Path" stroke="#FFFFFF" stroke-linecap="round" stroke-linejoin="round" stroke-dasharray="0.98"></line>
            <line x1="228.32" y1="22.9715879" x2="228.68" y2="22.6215879" id="Path" stroke="#FFFFFF" stroke-linecap="round" stroke-linejoin="round"></line>
            <path d="M285.282276,25.3537295 L267.702093,31.4724859 C267.276881,31.6191508 266.994243,32.0174539 267,32.4617756 L267,49.4923968 C267,49.8675696 267.205189,50.2135835 267.536621,50.3975969 L283.336723,59.172596 C283.650005,59.3379186 284.026303,59.3379186 284.339585,59.172596 L301.438395,50.3926504 C301.783456,50.2117992 301.999381,49.8580622 302,49.472611 L302,32.3974718 C302.000869,31.9739122 301.740954,31.5922529 301.343123,31.4329144 L286.024395,25.3735153 C285.78766,25.2782651 285.523881,25.2712325 285.282276,25.3537295 L285.282276,25.3537295 Z" id="Path" stroke="#FFFFFF" stroke-linecap="round" stroke-linejoin="round"></path>
            <path d="M284,39.4000479 L284,59.296307 C284.172791,59.3003571 284.343833,59.2605582 284.497512,59.1805433 L291.910447,55.2647098 L301.442784,50.2315049 C301.785148,50.0474817 301.999386,49.6875405 302,49.2953288 L302,31.9207053 C302.000405,31.6966367 301.930748,31.478179 301.800993,31.2965879 L284,39.4000479 Z" id="Path" stroke="#FFFFFF" stroke-linecap="round" stroke-linejoin="round"></path>
            <path d="M267.54153,50.2318397 L280.457279,57.4634944 L283.493897,59.1606167 C283.647671,59.2493775 283.822226,59.296274 284,59.2965879 L284,39.3893937 L267.222685,31.2965879 C267.078654,31.4809288 267.000316,31.7076938 267,31.9411922 L267,49.310257 C267,49.6922198 267.207011,50.044496 267.54153,50.2318397 Z" id="Path" stroke="#FFFFFF" stroke-linecap="round" stroke-linejoin="round"></path>
            <polygon id="Rectangle" fill="#FFFFFF" fill-rule="nonzero" transform="translate(290.181532, 50.670100) rotate(-42.860000) translate(-290.181532, -50.670100) " points="286.829818 49.700536 293.533647 49.6991533 293.533247 51.6396633 286.829418 51.641046"></polygon>
            <polygon id="Path" fill="#FFFFFF" fill-rule="nonzero" points="274 34.1514796 274 40.2965879 272 39.4416963 272 33.2965879"></polygon>
            <polygon id="Path" fill="#FFFFFF" fill-rule="nonzero" points="274.909091 34.2965879 280 32.237566 278.090909 31.2965879 273 33.3556098"></polygon>
            <polyline id="Path" stroke="#FFE700" stroke-width="3" points="261 25.2965879 261 18.2965879 268 18.2965879"></polyline>
            <polyline id="Path" stroke="#FFE700" stroke-width="3" points="307 24.2965879 307 17.2965879 300 17.2965879"></polyline>
            <polyline id="Path" stroke="#FFE700" stroke-width="3" points="307 53.2965879 307 60.2965879 300 60.2965879"></polyline>
            <polyline id="Path" stroke="#FFE700" stroke-width="3" points="261 55.2965879 261 62.2965879 268 62.2965879"></polyline>
            <rect id="Rectangle" fill="#FFE700" fill-rule="nonzero" x="268.9045" y="44.0784268" width="1" height="1"></rect>
            <path d="M346.305881,25.3491964 L328.702999,31.46877 C328.277238,31.6154545 327.994236,32.0138108 328,32.4581918 L328,49.4910875 C327.997951,49.8668805 328.203896,50.213935 328.537313,50.3964084 L344.357815,59.1725795 C344.671503,59.3379241 345.048286,59.3379241 345.361973,59.1725795 L362.432651,50.37662 C362.779311,50.1962476 362.997287,49.8427202 363,49.4564577 L363,32.3938794 C363,31.9690451 362.737573,31.5869887 362.337256,31.4291932 L347.023854,25.3689848 C346.794256,25.2797968 346.54018,25.2727941 346.305881,25.3491964 L346.305881,25.3491964 Z" id="Path" stroke="#FFFFFF" stroke-linecap="round" stroke-linejoin="round"></path>
            <path d="M344,39.4000833 L344,59.2965879 C344.172684,59.2994336 344.343478,59.2596924 344.497512,59.1806652 L351.905473,55.2648146 L361.437811,50.2315877 C361.781318,50.0480754 361.997311,49.688394 362,49.2954075 L362,31.9207081 C361.998621,31.6961355 361.927239,31.4777282 361.79602,31.2965879 L344,39.4000833 Z" id="Path" stroke="#FFFFFF" stroke-linecap="round" stroke-linejoin="round"></path>
            <path d="M328.541708,50.2318257 L341.456227,57.463475 L344.493747,59.160596 C344.646991,59.2507238 344.821979,59.2977229 345,59.2965879 L345,39.3893877 L328.217706,31.2965879 C328.077112,31.4824558 328.000746,31.7085849 328,31.9411918 L328,49.3102436 C327.997861,49.6927865 328.205518,50.0460747 328.541708,50.2318257 L328.541708,50.2318257 Z" id="Path" stroke="#FFFFFF" stroke-linecap="round" stroke-linejoin="round"></path>
            <polygon id="Rectangle" fill="#FFFFFF" fill-rule="nonzero" transform="translate(350.671521, 50.669671) rotate(-42.860000) translate(-350.671521, -50.669671) " points="347.319807 49.7001071 354.023636 49.6987243 354.023236 51.6392344 347.319407 51.6406171"></polygon>
            <polygon id="Path" fill="#FFFFFF" fill-rule="nonzero" points="335 34.1514796 335 40.2965879 333 39.4416963 333 33.2965879"></polygon>
            <polygon id="Path" fill="#FFFFFF" fill-rule="nonzero" points="334.910437 34.2965879 340 32.237566 338.094499 31.2965879 333 33.3556098"></polygon>
            <polyline id="Path" stroke="#FFE700" stroke-width="3" points="322 25.2965879 322 18.2965879 329 18.2965879"></polyline>
            <polyline id="Path" stroke="#FFE700" stroke-width="3" points="368 24.2965879 368 17.2965879 361 17.2965879"></polyline>
            <polyline id="Path" stroke="#FFE700" stroke-width="3" points="368 53.2965879 368 60.2965879 361 60.2965879"></polyline>
            <polyline id="Path" stroke="#FFE700" stroke-width="3" points="322 55.2965879 322 62.2965879 329 62.2965879"></polyline>
            <rect id="Rectangle" fill="#FFE700" fill-rule="nonzero" x="329.9045" y="44.0784268" width="1" height="1"></rect>
            <rect id="Rectangle" fill="#FFFFFF" fill-rule="nonzero" x="203" y="56.2965879" width="20" height="1"></rect>
            <rect id="Rectangle" fill="#FFFFFF" fill-rule="nonzero" x="203" y="60.2965879" width="20" height="1"></rect>
            <rect id="Rectangle" fill="#FFFFFF" fill-rule="nonzero" x="203" y="63.2965879" width="20" height="1"></rect>
            <rect id="Rectangle" fill="#023852" fill-rule="nonzero" x="220" y="95.2965879" width="136" height="85" rx="2.3"></rect>
            <circle id="Oval" fill="#4B7284" fill-rule="nonzero" cx="350.5" cy="175.796588" r="1.5"></circle>
            <circle id="Oval" fill="#4B7284" fill-rule="nonzero" cx="345.5" cy="175.796588" r="1.5"></circle>
            <rect id="Rectangle" fill="#0099DA" fill-rule="nonzero" x="224" y="98.2965879" width="129" height="72"></rect>
            <rect id="Rectangle" stroke="#FFFFFF" stroke-linecap="round" stroke-linejoin="round" x="255" y="100.296588" width="94" height="67"></rect>
            <path d="M349.984881,165.234507 L326.449603,142.173479 L326.449603,142.173479 L318.431482,134.303285 L328.82329,128.505257 L349.989921,149.877294 L349.989921,146.090929 L331.242333,127.159106 L349.989921,116.702488 L349.989921,113.65222 L342.193545,117.998221 L325.391272,100.296588 L321.71231,100.296588 L325.744049,104.521586 L301.346987,117.53942 L292.78962,109.195301 L303.372936,100.311713 L299.230324,100.311713 L277.257345,118.774652 L263.368003,100.311713 L260.031739,100.311713 L275.211237,120.478769 L256,136.637622 L256,140.116439 L264.401137,133.05797 L264.401137,133.163847 L292.305812,136.093111 L291.181964,149.327742 L256.010079,145.707755 L256.010079,148.420224 L290.970298,151.989793 L289.670062,167.296588 L292.341089,167.296588 L294.251126,144.83553 L302.899207,144.83553 L302.899207,167.296588 L305.565194,167.296588 L305.565194,144.83553 L316.536564,144.83553 L316.536564,167.296588 L319.192473,167.296588 L319.192473,144.83553 L325.371113,144.83553 L348.291551,167.296588 L350,167.296588 L349.984881,165.234507 Z M327.623847,106.543333 L339.78962,119.349414 L316.44585,132.37229 L303.342698,119.51075 L327.623847,106.543333 Z M294.145293,114.358067 L292.522518,133.446185 L267.122561,130.77405 L290.743513,110.909501 L294.271285,114.363109 L294.145293,114.358067 Z M294.452713,142.168437 L296.619773,116.677279 L322.63961,142.168437 L294.452713,142.168437 Z" id="Shape" stroke="#FFFFFF" stroke-linecap="round" stroke-linejoin="round"></path>
            <rect id="Rectangle" stroke="#FFFFFF" stroke-linecap="round" stroke-linejoin="round" x="229" y="100.296588" width="26" height="67"></rect>
            <rect id="Rectangle" stroke="#FFFFFF" stroke-linecap="round" stroke-linejoin="round" x="235" y="110.296588" width="13" height="13"></rect>
            <rect id="Rectangle" stroke="#FFFFFF" stroke-linecap="round" stroke-linejoin="round" x="235" y="127.296588" width="13" height="13"></rect>
            <rect id="Rectangle" stroke="#FFFFFF" stroke-linecap="round" stroke-linejoin="round" x="235" y="145.296588" width="13" height="13"></rect>
            <rect id="Rectangle" fill="#023852" fill-rule="nonzero" x="74" y="95.2965879" width="136" height="85" rx="2.3"></rect>
            <circle id="Oval" fill="#4B7284" fill-rule="nonzero" cx="203.5" cy="175.796588" r="1.5"></circle>
            <circle id="Oval" fill="#4B7284" fill-rule="nonzero" cx="198.5" cy="175.796588" r="1.5"></circle>
            <rect id="Rectangle" fill="#0099DA" fill-rule="nonzero" x="78" y="98.2965879" width="129" height="72"></rect>
            <rect id="Rectangle" stroke="#FFFFFF" stroke-linecap="round" stroke-linejoin="round" x="80" y="101.296588" width="27" height="68"></rect>
            <rect id="Rectangle" stroke="#FFFFFF" stroke-linecap="round" stroke-linejoin="round" x="108" y="100.296588" width="47" height="33"></rect>
            <rect id="Rectangle" stroke="#FFFFFF" stroke-linecap="round" stroke-linejoin="round" x="157" y="100.296588" width="47" height="33"></rect>
            <rect id="Rectangle" stroke="#FFFFFF" stroke-linecap="round" stroke-linejoin="round" x="108" y="136.296588" width="47" height="33"></rect>
            <rect id="Rectangle" stroke="#FFFFFF" stroke-linecap="round" stroke-linejoin="round" x="157" y="136.296588" width="47" height="33"></rect>
            <rect id="Rectangle" fill="#FFE700" fill-rule="nonzero" x="97" y="103.296588" width="6" height="1"></rect>
            <rect id="Rectangle" fill="#FFE700" fill-rule="nonzero" x="97" y="107.296588" width="6" height="1"></rect>
            <rect id="Rectangle" fill="#FFE700" fill-rule="nonzero" x="97" y="109.296588" width="6" height="1"></rect>
            <rect id="Rectangle" fill="#FFE700" fill-rule="nonzero" x="97" y="112.296588" width="6" height="1"></rect>
            <rect id="Rectangle" fill="#FFE700" fill-rule="nonzero" x="97" y="114.296588" width="6" height="1"></rect>
            <path d="M130,111.296588 C126.695,111.296588 124,113.900099 124,117.115898 C124,119.688537 130,128.296588 130,128.296588 C130,128.296588 136,119.914929 136,117.115898 C135.96,113.900099 133.28,111.296588 130,111.296588 Z" id="Path" fill="#FFE700" fill-rule="nonzero"></path>
            <path d="M180,111.296588 C176.695,111.296588 174,113.900099 174,117.115898 C174,119.688537 180,128.296588 180,128.296588 C180,128.296588 186,119.914929 186,117.115898 C185.98,113.900099 183.305,111.296588 180,111.296588 Z" id="Path" fill="#FFE700" fill-rule="nonzero"></path>
            <path d="M306,114.296588 C302.695,114.296588 300,116.900099 300,120.115898 C300,122.688537 306,131.296588 306,131.296588 C306,131.296588 312,122.914929 312,120.115898 C311.98,116.900099 309.305,114.296588 306,114.296588 Z" id="Path" fill="#FFE700" fill-rule="nonzero"></path>
            <polyline id="Path" stroke="#023852" points="368 199.296588 368 329.296588 274 329.296588 274 199.296588"></polyline>
            <line x1="274" y1="222.796588" x2="368" y2="222.796588" id="Path" stroke="#023852"></line>
            <line x1="274" y1="250.796588" x2="368" y2="250.796588" id="Path" stroke="#023852"></line>
            <line x1="274" y1="276.796588" x2="368" y2="276.796588" id="Path" stroke="#023852"></line>
            <line x1="274" y1="304.796588" x2="368" y2="304.796588" id="Path" stroke="#023852"></line>
            <path d="M331,199.296588 L331,199.296588 C330.997277,201.506404 328.88598,203.296588 326.282507,203.296588 L315.712559,203.296588 C313.109884,203.296588 311,201.505727 311,199.296588 L311,199.296588" id="Path" stroke="#023852"></path>
            <path d="M331,223.296588 L331,223.296588 C331,226.058012 328.887907,228.296588 326.282507,228.296588 L315.712561,228.296588 C314.461857,228.296588 313.262451,227.769638 312.378533,226.831805 C311.494615,225.893973 310.998693,224.622189 311,223.296588 L311,223.296588" id="Path" stroke="#023852"></path>
            <path d="M331,250.296588 L331,250.296588 C330.997277,252.506404 328.88598,254.296588 326.282507,254.296588 L315.712559,254.296588 C313.109884,254.296588 311,252.505727 311,250.296588 L311,250.296588" id="Path" stroke="#023852"></path>
            <path d="M331,277.296588 L331,277.296588 C330.997277,279.506404 328.88598,281.296588 326.282507,281.296588 L315.712559,281.296588 C313.109884,281.296588 311,279.505727 311,277.296588 L311,277.296588" id="Path" stroke="#023852"></path>
            <path d="M331,305.296588 L331,305.296588 C330.997277,307.506404 328.88598,309.296588 326.282507,309.296588 L315.712559,309.296588 C313.109884,309.296588 311,307.505727 311,305.296588 L311,305.296588" id="Path" stroke="#023852"></path>
            <polygon id="Path" fill="url(#linearGradient-1)" fill-rule="nonzero" style="mix-blend-mode: multiply;" points="104.417751 94.2965879 108.84851 102.329268 104.2493 116.885368 116 179.296588 85 179.296588 99.4765355 94.2965879"></polygon>
            <rect id="Rectangle" fill="#D8DEE2" fill-rule="nonzero" style="mix-blend-mode: multiply;" x="0" y="325.296588" width="169" height="4" rx="2"></rect>
            <rect id="Rectangle" fill="#D3DADF" fill-rule="nonzero" transform="translate(93.500000, 316.296588) rotate(-180.000000) translate(-93.500000, -316.296588) " x="63" y="313.296588" width="61" height="6"></rect>
            <rect id="Rectangle" fill="#B0BDC6" fill-rule="nonzero" transform="translate(122.000000, 319.296588) rotate(-180.000000) translate(-122.000000, -319.296588) " x="121" y="314.296588" width="2" height="10"></rect>
            <circle id="Oval" fill="#023852" fill-rule="nonzero" cx="127" cy="324.296588" r="5"></circle>
            <rect id="Rectangle" fill="#D3DADF" fill-rule="nonzero" x="36" y="313.296588" width="61" height="6"></rect>
            <rect id="Rectangle" fill="#B0BDC6" fill-rule="nonzero" x="36" y="314.296588" width="2" height="10"></rect>
            <circle id="Oval" fill="#023852" fill-rule="nonzero" cx="32" cy="324.296588" r="5"></circle>
            <rect id="Rectangle" fill="#5A5D5E" fill-rule="nonzero" x="72" y="291.296588" width="14" height="22"></rect>
            <path d="M119.60111,326.315038 L122.599594,329.296588 L122.599594,329.296588 L142.945749,329.296588 C143.143127,328.456725 142.791178,327.583788 142.065005,327.112086 L138.720161,324.942344 L132.55496,321.47371 L107.176695,305.296588 L104.465194,309.365469 C103.867733,310.260252 103.49447,311.284302 103.376635,312.351938 L103.015431,315.599171 C102.898282,316.674634 103.456025,317.711568 104.420662,318.211717 L118.443279,325.47371 C118.869898,325.694144 119.260308,325.977832 119.60111,326.315038 Z" id="Path" fill="#023852" fill-rule="nonzero"></path>
            <path d="M108.382278,301.012821 L107,304.494512 L108.518987,307.941385 C108.793938,308.557169 109.185724,309.115897 109.673418,309.587727 L121.764557,321.196678 C122.518765,321.919537 123.536346,322.315438 124.589873,322.295897 L135,322.082022 L132.711392,320.216831 C132.274807,319.858372 131.912156,319.421085 131.643038,318.928605 L124.210127,305.270431 L124.063291,300.296588 L108.382278,301.012821 Z" id="Path" fill="#0099DA" fill-rule="nonzero"></path>
            <path d="M116.612263,235.204469 L116.427129,235.706835 C116.011843,236.80413 115.721455,237.945049 115.561499,239.107852 L111.083242,271.882198 L106.910207,300.853635 C106.866365,301.158556 106.94839,301.468232 107.137303,301.711008 C107.326216,301.953784 107.605646,302.108621 107.910935,302.139691 L113.16976,302.546608 L125.708879,305.26943 C126.036282,305.339792 126.378098,305.272068 126.654334,305.082109 C126.93057,304.892149 127.116981,304.596625 127.169942,304.264699 L137.502456,245.563253 L141,227.37761 L140.254458,221.891775 L135.290848,216.40594 L128.711063,212.296588 L113.810226,212.798954 L86,222.394141 L98.6592067,223.027122 C99.9725612,223.093941 101.252325,223.467193 102.396925,224.117256 L115.256277,231.426678 C116.578062,232.174746 117.154902,233.781827 116.612263,235.204469 L116.612263,235.204469 Z" id="Path" fill="#023852" fill-rule="nonzero"></path>
            <path d="M96,165.351174 L110.92171,171.296588 L123,166.837528 L115.754026,163.057662 L106.159356,157.574888 C105.571446,157.238455 105.021931,156.840797 104.520267,156.388758 L96.6046641,149.296588 L96,165.351174 Z" id="Path" fill="#26A8E0" fill-rule="nonzero"></path>
            <path d="M117,169.145805 L115.405256,162.722986 L106.29243,157.574888 C105.696819,157.238455 105.140106,156.840797 104.631871,156.388758 L96.6125844,149.296588 L96,165.351174 L111.117165,171.296588 L117,169.145805 Z" id="Path" fill="url(#linearGradient-2)" fill-rule="nonzero" style="mix-blend-mode: multiply;"></path>
            <rect id="Rectangle" fill="#D3DADF" fill-rule="nonzero" x="77" y="232.296588" width="6" height="62"></rect>
            <rect id="Rectangle" fill="#5A5D5E" fill-rule="nonzero" x="74" y="219.296588" width="11" height="16"></rect>
            <rect id="Rectangle" fill="#303436" fill-rule="nonzero" x="37" y="213.296588" width="73" height="12" rx="6"></rect>
            <path d="M166.844913,273.296588 L165.17766,278.181961 C164.94078,278.853695 164.94078,279.585386 165.17766,280.25712 L166.724025,284.562449 C167.057978,285.483217 167.801579,286.199263 168.738832,286.502597 L188.796235,293.163106 C192.322298,294.332384 196.087997,294.602354 199.746711,293.948166 L205.166541,292.993093 C206.814452,292.696817 208.397864,292.118142 209.84593,291.282962 L209.84593,291.282962 C210.576914,290.858219 211.018461,290.073426 210.999407,289.232806 L210.969185,288.012712 C210.947973,287.190607 210.489976,286.441073 209.765338,286.042562 L197.172795,279.147035 L166.844913,273.296588 Z" id="Path" fill="#023852" fill-rule="nonzero"></path>
            <path d="M164,264.258992 L166.171222,269.218128 C166.661672,270.3405 166.890665,271.562429 166.840434,272.789108 L166.790863,273.930816 L171.901661,279.90592 C172.19628,280.250772 172.5595,280.528453 172.967444,280.720707 L190.837889,289.115025 C191.507664,289.428284 192.294367,289.330943 192.870311,288.863547 L201,282.269808 L194.714362,278.713917 L183.228698,269.514871 L175.00978,261.296588 L164,264.258992 Z" id="Path" fill="#0099DA" fill-rule="nonzero"></path>
            <path d="M116.60504,236.200987 L116.419889,236.703277 C116.00339,237.799695 115.714571,238.94077 115.559185,240.103777 L111.08052,272.873141 L106.907106,301.840174 C106.861775,302.145291 106.943244,302.455706 107.132453,302.698804 C107.321663,302.941902 107.602014,303.096357 107.907925,303.126035 L113.162224,303.53289 L125.727504,306.270367 C126.05538,306.339261 126.397068,306.271059 126.67374,306.081495 C126.950412,305.89193 127.138172,305.597377 127.193704,305.265788 L137.522154,246.578288 L141,228.385363 L140.25439,222.890317 L135.290328,217.405316 L128.709945,213.296588 L113.807752,213.798877 L86,223.392606 L98.6503503,224.04056 C99.9642255,224.104967 101.244647,224.478321 102.388409,225.130528 L115.248931,232.433816 C116.565858,233.181006 117.141976,234.781419 116.60504,236.200987 L116.60504,236.200987 Z" id="Path" fill="url(#linearGradient-3)" fill-rule="nonzero" style="mix-blend-mode: multiply;"></path>
            <path d="M141.878397,235.185032 L158.363916,269.581918 C158.642753,270.155926 159.310009,270.433934 159.919343,270.229975 L175.976994,264.846115 C176.128217,264.792552 176.260913,264.697451 176.359558,264.571937 L178.826094,261.421381 C179.057969,261.128711 179.057969,260.71704 178.826094,260.42437 L172.433236,252.059446 C172.282476,251.862923 172.151003,251.652596 172.040604,251.431329 L153.476148,214.781198 L146.640321,196.137088 C145.832063,193.935227 144.028466,192.235801 141.767654,191.545852 L140.977356,191.306569 C139.571124,190.878582 138.117334,190.622444 136.648334,190.543856 L93.277577,188.190909 L70.625719,187.926701 L56.9037269,186.296588 L41.7118808,189.786127 L35.2435169,194.407274 L35.0270658,198.305588 C34.7792854,202.700546 36.2400675,207.022665 39.109434,210.384378 L40.6195579,212.129148 C42.1283234,213.916975 44.2336631,215.110663 46.5543447,215.494061 L87.287419,221.974633 L124.381095,219.352494 C125.255812,219.290981 126.116304,219.596749 126.751989,220.194968 L140.156855,232.832085 C140.871337,233.505397 141.454865,234.302944 141.878397,235.185032 Z" id="Path" fill="#023852" fill-rule="nonzero"></path>
            <path d="M113,177.882223 L113.151436,178.600017 C113.33773,179.524282 113.902099,180.338024 114.718016,180.858809 L116.070496,181.71715 C117.529047,182.636385 119.458479,182.44568 120.691906,181.260372 L124.817232,177.294937 C125.768368,176.382141 126.388985,175.199573 126.587467,173.921807 L127,171.296588 L113,177.882223 Z" id="Path" fill="#0099DA" fill-rule="nonzero"></path>
            <path d="M97.8978576,125.266358 L98.8033984,120.129539 C98.8934174,119.619909 98.9236382,119.101586 98.8934522,118.585005 L98.158013,106.308456 L82.5536944,94.226219 L80.4174186,98.5758243 L78.9165223,100.249899 L78.8664925,101.630015 L78.6113401,101.525385 L66.043835,91.2965879 L53.86156,96.2490595 L48.2732228,100.892624 L40.9488488,108.575432 C39.9578776,109.586675 39.2028656,110.802984 38.7375282,112.137824 L36.7363332,117.982139 C36.2676521,119.340261 36.1153875,120.786776 36.2910673,122.212168 L36.4961898,123.876278 C36.6380197,125.016585 36.5702076,126.173081 36.2960702,127.289198 L30.0773566,149.660021 C29.9310902,150.187795 29.9937669,150.751343 30.2524611,151.234448 L30.2524611,151.234448 C30.8066359,152.260348 31.7952342,152.983186 32.9440685,153.202483 L43.5253875,155.270165 L44.9512389,162.046182 L59.1797359,172.334767 L75.2993622,178.886578 L82.0383867,180.296588 L91.0437645,177.157697 L95.4463936,175.090016 L97.3075051,155.99759 L99.9240676,138.629063 C100.048596,137.812107 100.019757,136.979229 99.8390168,136.172757 L97.9829084,127.872135 C97.7822276,127.017635 97.7533222,126.132033 97.8978576,125.266358 Z" id="Path" fill="#FFFFFF" fill-rule="nonzero"></path>
            <path d="M35,195.296588 L42.2962445,191.268826 L57.7776668,188.605305 L71.3663604,189.939564 C72.0302391,190.00593 72.6986341,190.014291 73.3639632,189.96455 L85,189.125017 L70.1178586,184.72746 L54.0421494,177.296588 L35,195.296588 Z" id="Path" fill="#FFFFFF" fill-rule="nonzero"></path>
            <path d="M62,180.630696 L37.4451907,169.296588 L35.4312634,179.684509 C35.333432,180.190949 35.382342,180.714786 35.5722383,181.194381 L35.5722383,181.194381 C35.8703395,181.936919 35.8185735,182.7741 35.4312634,183.474288 L33.3317441,187.264068 C32.9598783,187.938159 32.8974708,188.739974 33.1605603,189.463448 L35.2802188,195.296588 L40.5365692,192.397633 C41.9257656,191.627675 43.4332144,191.093635 44.9974183,190.8173 L58.2138166,188.53236 L62,180.630696 Z" id="Path" fill="#EAEEF0" fill-rule="nonzero"></path>
            <path d="M66.463516,137.067838 L62.0338877,128.046824 C61.7767926,127.520417 61.1958436,127.221782 60.6059589,127.312802 C60.0160741,127.403821 59.5577023,127.862823 59.4793155,128.440994 L58.1815928,138.120622 C58.0999207,138.722812 57.8487742,139.291067 57.4560943,139.762167 L52.214112,146.028977 C51.8190627,146.497283 51.565996,147.064151 51.4835044,147.665533 L51.0083539,149.661332 C50.6584157,151.096409 49.9003926,152.405721 48.8216401,153.438383 L45.3934041,156.711494 L45,161.222001 L58.7180529,171.645064 L65.579634,173.296588 L72.4105602,159.266117 C72.8656587,158.311886 73.0424456,157.253561 72.9214746,156.207555 L72.4105602,151.632184 C72.3007416,150.632044 72.464707,149.621358 72.8857106,148.703349 L76.8810616,139.976715 C77.0650922,139.578462 77.0340787,139.11688 76.7983385,138.745526 C76.5625983,138.374172 76.1530568,138.141761 75.7059584,138.125611 L67.6028552,137.811273 C67.1121386,137.786462 66.6747872,137.501084 66.463516,137.067838 Z" id="Path" fill="url(#linearGradient-4)" fill-rule="nonzero" style="mix-blend-mode: multiply;"></path>
            <path d="M132,165.296588 L141.012965,160.871672 L152.509589,156.32507 C152.684532,156.246615 152.882928,156.335344 152.964441,156.528493 C153.045954,156.721643 152.982973,156.953785 152.820047,157.060712 L143.229825,163.875084 L132,165.296588 Z" id="Path" fill="#EAEEF0" fill-rule="nonzero"></path>
            <path d="M90.7243293,179.247188 L127.66013,165.009957 C127.831986,164.941107 128.014688,164.903679 128.19963,164.899435 L144,164.296588 L106.379833,182.296588 L90,181.839429 L90.7243293,179.247188 Z" id="Path" fill="#FFFFFF" fill-rule="nonzero"></path>
            <path d="M101.682549,97.674391 L98.1565587,91.1803144 C97.6400874,90.1984932 97.7970242,89.0012773 98.5494548,88.1830482 C99.0591289,87.595982 99.2755388,86.8127147 99.1387988,86.0499938 L93.0942444,52.8103122 C92.7045685,50.7333387 91.286307,48.9906754 89.3214351,48.1745405 L83.1207297,45.6068825 C82.4539304,45.3324003 81.7258131,45.237615 81.0101728,45.3321331 L77.731002,45.7667367 C77.4807208,45.8009279 77.2278371,45.8126314 76.9754327,45.8017048 L69.6464106,45.4220511 C68.2340826,45.351784 66.8801004,45.9875402 66.0398264,47.1155065 L60.8616582,54.1091275 C60.2028508,54.9975181 59.7223266,56.0031861 59.446225,57.0714256 L51.6235642,87.5436314 C51.1575921,89.3698464 50.0682964,90.9796771 48.5408415,92.099476 C47.1015935,93.1429839 46.0413784,94.6202588 45.5185643,96.3106349 L43,104.478185 L46.3043564,101.066297 C47.3022247,100.038337 48.460475,99.1764164 49.734641,98.5136256 L64.8409898,90.635811 L64.9719552,90.7407153 C64.9719552,91.0054738 64.9719552,91.2802232 64.9719552,91.5499772 L77.1366209,95.2266237 L80.6626109,91.8596947 L82.8386505,102.125331 C83.0055272,102.909245 83.336748,103.649601 83.8108163,104.298349 L90.6814598,113.604861 C91.1680347,114.298568 91.86236,114.822867 92.6660885,115.103494 C93.6406455,115.422294 94.7029963,115.344015 95.6193462,114.885885 C96.5356962,114.427754 97.2309507,113.627315 97.5521033,112.660722 L101.858848,99.7425047 C102.096159,99.0592454 102.032156,98.3084422 101.682549,97.674391 L101.682549,97.674391 Z" id="Path" fill="#023852" fill-rule="nonzero"></path>
            <path d="M66.9210514,68.2671154 L70.7816746,52.8486147 C70.9357039,52.2366625 71.423393,51.7685925 72.0355099,51.6452195 L78.5277004,50.3315131 C78.813762,50.2763572 79.108395,50.2866364 79.3900219,50.361598 L86.6602841,52.3672566 C87.4212392,52.574521 88.0416349,53.1316431 88.3353684,53.8715006 L92.0225361,63.1927991 C92.3644333,64.0617422 92.3994435,65.0234446 92.1216535,65.9154807 L92.0175802,66.2514285 C91.7821307,67.0257561 91.7821307,67.8538063 92.0175802,68.628134 L92.8253871,71.3708722 C93.0582043,72.142181 93.0582043,72.9662405 92.8253871,73.7375494 L90.2136433,82.1111741 C90.0352887,82.697066 89.6509369,83.1965338 89.1332635,83.5151352 L85.2577727,85.936968 C84.7852125,86.2315494 84.4266571,86.6810323 84.2418192,87.2105612 L82.2049564,93.6286688 L81.9373394,100.021706 L82.5469115,105.251461 L80.2325199,105.296588 L64.9932178,90.2792189 L64.9932178,90.2792189 C67.1997108,88.3134104 68.4964114,85.5059862 68.5713563,82.5323625 L68.5713563,82.4170371 C68.5981421,81.4364855 68.4469654,80.4592773 68.125328,79.5339028 L67.015213,76.2546509 C66.8478987,75.7539069 66.4012238,75.4026271 65.8803186,75.3621328 L64.7602918,75.2668641 C64.1120955,75.2203001 63.5412954,74.8179667 63.2735307,74.2189074 L62.0791658,71.5263107 C61.899742,71.0995438 62.0329549,70.6039707 62.4012974,70.3279297 L65.9348332,69.3000296 C66.423669,69.1609357 66.8005492,68.7662108 66.9210514,68.2671154 Z" id="Path" fill="#0099DA" fill-rule="nonzero"></path>
            <path d="M84.4591937,87.356567 C84.5749768,87.0451096 84.7590493,86.7588557 85,86.5155507 L77.1042281,86.2965879 L74,99.8473999 L80.0786627,105.296588 L82.6042281,105.2518 L81.9228122,100.071339 L82.2148476,93.7263941 L84.4591937,87.356567 Z" id="Path" fill="url(#linearGradient-5)" fill-rule="nonzero" style="mix-blend-mode: multiply;"></path>
            <path d="M32.2275503,152.296588 L32,165.624736 C31.9876351,166.564202 32.350499,167.470738 33.0102261,168.14776 L35.2269659,170.431445 C35.5662868,170.794761 35.9791811,171.083561 36.438851,171.279102 L86.6765374,191.797369 C88.0158317,192.300317 89.4702127,192.426325 90.8777391,192.161363 L98.2298419,190.775195 C100.324736,190.38117 102.247238,189.363239 103.73887,187.858261 L109.525621,182.034364 C109.769263,181.788075 109.928256,181.472332 109.980078,181.131859 L109.980078,181.131859 C110.059868,180.6267 109.897326,180.113617 109.540227,179.743413 C109.183128,179.373208 108.672048,179.187949 108.157201,179.242084 L91.9280395,180.967314 C91.5616827,181.004435 91.2017249,180.852991 90.9750549,180.56637 C90.748385,180.279748 90.6868325,179.898197 90.8120953,179.556216 L90.8120953,179.556216 C90.9196997,179.262472 91.1550697,179.031883 91.4533845,178.927953 L99.2851919,175.936225 C99.7940624,175.746843 100.059698,175.193578 99.8860849,174.684685 L99.8860849,174.684685 C99.7682757,174.325988 99.4556477,174.063586 99.0781615,174.00656 L94.6295333,173.333422 C94.1427436,173.259186 93.6447464,173.312488 93.1853703,173.487994 L82.4601872,177.611592 C81.6994093,177.908497 80.8527396,177.908497 80.0919618,177.611592 L63.9688406,171.244198 C63.5657556,171.079297 63.1801251,170.875538 62.8175497,170.63588 L48.1436411,160.808054 C47.4712921,160.361728 47.127219,159.567004 47.2650244,158.778665 L47.9871059,154.679998 C48.0231775,154.471946 47.9703432,154.258435 47.8411713,154.090255 C47.7119993,153.922074 47.5180357,153.814258 47.3054206,153.792452 L32.2275503,152.296588 Z" id="Path" fill="#0099DA" fill-rule="nonzero"></path>
            <path d="M159.408511,270.232361 L175.24539,264.881913 C175.394535,264.828633 175.525406,264.734035 175.622695,264.609184 L176,264.113312 L141,234.296588 C141.232854,234.633568 141.438696,234.988392 141.615603,235.357752 L157.874468,269.572852 C158.144239,270.149592 158.803701,270.433105 159.408511,270.232361 Z" id="Path" fill="url(#linearGradient-6)" fill-rule="nonzero" style="mix-blend-mode: multiply;"></path>
            <path d="M100.287586,94.18101 L102.950419,99.2965879 C103.063117,98.7076295 102.982338,98.0947733 102.72191,97.5629196 L100.091721,92.2965879 C99.9204075,92.9276675 99.9909548,93.6064049 100.287586,94.18101 L100.287586,94.18101 Z" id="Path" fill="#3C667A" fill-rule="nonzero"></path>
            <path d="M59.9813801,59.8655609 C60.2652662,58.8130315 60.7542447,57.8261088 61.4205915,56.9607495 L66.6993428,50.1028472 C67.5777869,48.9847808 68.9510507,48.3645743 70.3762322,48.4422551 L77.8433735,48.8096428 C78.1000272,48.8243209 78.3575061,48.8144787 78.6122673,48.7802518 L81.9539978,48.3491836 C82.6817152,48.2560597 83.4213071,48.3487832 84.1029573,48.6186012 L90.4216867,51.136431 C92.0714411,51.7847328 93.3703159,53.0934024 94,54.7417282 L93.6254107,52.6745606 C93.2513815,50.6181349 91.8541958,48.8902282 89.9140197,48.0846645 L83.8466594,45.6011242 C83.1943221,45.3315145 82.4817397,45.2385525 81.7814896,45.3317066 L78.5777656,45.7627747 C78.3329227,45.7969901 78.0852552,45.8068359 77.8384447,45.7921658 L70.662103,45.4247781 C69.2836906,45.3497006 67.9595864,45.9681112 67.1380066,47.0706747 L62.0662651,53.928577 C61.4209098,54.7986529 60.9521681,55.7852769 60.6861993,56.8333884 L58,67.2965879 L59.9813801,59.8655609 Z" id="Path" fill="#3C667A" fill-rule="nonzero"></path>
            <path d="M48.9103568,94.7996367 C50.2725419,93.5911044 51.2551049,91.8178986 51.6866841,89.7892709 L52,88.2965879 C51.5048503,89.5180192 50.7930586,90.5790357 49.9199304,91.3971977 C48.6768642,92.5415756 47.7608954,94.1626024 47.3089643,96.0179294 L47,97.2965879 C47.5023328,96.315888 48.1511738,95.4678138 48.9103568,94.7996367 Z" id="Path" fill="#3C667A" fill-rule="nonzero"></path>
            <polygon id="Path" fill="url(#linearGradient-7)" fill-rule="nonzero" opacity="0.41" points="104 3.29658793 108.773391 7.90859177 113.546781 12.5256087 118.320172 17.1376125 123.093563 21.7496164 137.228409 35.3951321 151.368265 49.0506739 165.50812 62.6861635 179.632949 76.2965879 232 76.2965879 232 3.29658793"></polygon>
            <polygon id="Path" fill="url(#linearGradient-7)" fill-rule="nonzero" opacity="0.41" points="250 3.29658793 254.773391 7.90859177 259.546781 12.5256087 264.320172 17.1376125 269.093563 21.7496164 283.223401 35.3951321 297.363256 49.0506739 311.518137 62.6661113 325.663001 76.2965879 378 76.2965879 378 3.29658793"></polygon>
            <path d="M79,98.2965879 L83.7733907,102.913605 L88.5467815,107.525609 L93.3201722,112.137613 L98.0935629,116.754629 L112.243436,130.395132 L126.383291,144.030622 C131.098246,148.579127 135.8132,153.12429 140.528155,157.666111 L154.673019,171.296588 L207,171.296588 L207,98.2965879 L79,98.2965879 Z" id="Path" fill="url(#linearGradient-7)" fill-rule="nonzero" opacity="0.41"></path>
            <polygon id="Path" fill="url(#linearGradient-7)" fill-rule="nonzero" opacity="0.41" points="224 98.2965879 228.768569 102.913605 233.542146 107.525609 238.315724 112.137613 243.09431 116.754629 257.224701 130.395132 271.365109 144.030622 285.505518 157.686164 299.67598 171.296588 352 171.296588 352 98.2965879"></polygon>
        </g>
    </g>
</svg>