<?xml version="1.0" encoding="UTF-8"?>
<svg width="440px" height="330px" viewBox="0 0 440 330" version="1.1" xmlns="http://www.w3.org/2000/svg" xmlns:xlink="http://www.w3.org/1999/xlink">
    <title>Graphic elements / Icons / Rich icons / Marketplace / Industries-Education</title>
    <defs>
        <linearGradient x1="0%" y1="49.966307%" x2="100.013609%" y2="49.966307%" id="linearGradient-1">
            <stop stop-color="#FFFFFF" offset="0%"></stop>
            <stop stop-color="#FFFFFF" stop-opacity="0.2" offset="0%"></stop>
            <stop stop-color="#FFFFFF" stop-opacity="0.6" offset="100%"></stop>
        </linearGradient>
        <linearGradient x1="50.04329%" y1="1.24180052e-12%" x2="50.04329%" y2="100%" id="linearGradient-2">
            <stop stop-color="#FFFFFF" stop-opacity="0.4" offset="0%"></stop>
            <stop stop-color="#FFFFFF" stop-opacity="0" offset="100%"></stop>
        </linearGradient>
        <linearGradient x1="33642.5974%" y1="32452.1027%" x2="33642.5974%" y2="32552.1027%" id="linearGradient-3">
            <stop stop-color="#FFFFFF" stop-opacity="0.4" offset="0%"></stop>
            <stop stop-color="#FFFFFF" stop-opacity="0" offset="100%"></stop>
        </linearGradient>
        <linearGradient x1="33671.6638%" y1="32452.1027%" x2="33671.6638%" y2="32552.1027%" id="linearGradient-4">
            <stop stop-color="#FFFFFF" stop-opacity="0.4" offset="0%"></stop>
            <stop stop-color="#FFFFFF" stop-opacity="0" offset="100%"></stop>
        </linearGradient>
        <linearGradient x1="33642.5974%" y1="32469.8361%" x2="33642.5974%" y2="32569.8361%" id="linearGradient-5">
            <stop stop-color="#FFFFFF" stop-opacity="0.4" offset="0%"></stop>
            <stop stop-color="#FFFFFF" stop-opacity="0" offset="100%"></stop>
        </linearGradient>
        <linearGradient x1="33671.6638%" y1="32469.8361%" x2="33671.6638%" y2="32569.8361%" id="linearGradient-6">
            <stop stop-color="#FFFFFF" stop-opacity="0.4" offset="0%"></stop>
            <stop stop-color="#FFFFFF" stop-opacity="0" offset="100%"></stop>
        </linearGradient>
        <linearGradient x1="33671.7504%" y1="32452.1027%" x2="33671.7504%" y2="32552.1027%" id="linearGradient-7">
            <stop stop-color="#FFFFFF" stop-opacity="0.4" offset="0%"></stop>
            <stop stop-color="#FFFFFF" stop-opacity="0" offset="100%"></stop>
        </linearGradient>
        <linearGradient x1="33671.7504%" y1="32469.8361%" x2="33671.7504%" y2="32569.8361%" id="linearGradient-8">
            <stop stop-color="#FFFFFF" stop-opacity="0.4" offset="0%"></stop>
            <stop stop-color="#FFFFFF" stop-opacity="0" offset="100%"></stop>
        </linearGradient>
        <linearGradient x1="0.0481927711%" y1="50.0203262%" x2="100%" y2="50.0203262%" id="linearGradient-9">
            <stop stop-color="#FFFFFF" stop-opacity="0" offset="0%"></stop>
            <stop stop-color="#F8C41C" stop-opacity="0.6" offset="100%"></stop>
            <stop stop-color="#000000" offset="100%"></stop>
        </linearGradient>
    </defs>
    <g id="Graphic-elements-/-Icons-/-Rich-icons-/-Marketplace-/-Industries-Education" stroke="none" stroke-width="1" fill="none" fill-rule="evenodd">
        <g id="Education" transform="translate(0.000000, 139.000000)" fill-rule="nonzero">
            <path d="M328.37,21.43 L322.87,15.93 C322.635353,15.697805 322.32007,15.5652431 321.99,15.56 L314.82,15.56 C314.487657,15.5610739 314.168135,15.431829 313.93,15.2 L307.83,9.09 C307.591865,8.85817101 307.272343,8.72892608 306.94,8.72999336 L295.67,8.72999336 C295.340698,8.72940105 295.024463,8.85877025 294.79,9.09 L289.16,14.72 C288.924094,14.9564122 288.603979,15.0894939 288.27,15.09 L280.8,15.09 L279.85,15.5 L272.22,23.56 L327.49,23.56 C327.993172,23.5568898 328.445424,23.2523791 328.637559,22.7873248 C328.829694,22.3222705 328.724249,21.7873498 328.37,21.43 L328.37,21.43 Z" id="Path" fill="url(#linearGradient-1)"></path>
            <path d="M285.33,12.4 L274.46,12.4 C274.19766,12.3988954 273.946261,12.2947442 273.76,12.11 L262,0.3 C261.812929,0.109144354 261.557246,0.00110942444 261.29,-2.84217094e-14 L251.38,-2.84217094e-14 C251.112754,0.00110942444 250.857071,0.109144354 250.67,0.3 L247.27,3.7 C247.081281,3.88718651 246.825803,3.99153676 246.56,3.99 L230.16,3.99 C229.892754,3.99110942 229.637071,4.09914435 229.45,4.29 L220.05,13.68 C219.86537,13.8684143 219.613769,13.976243 219.35,13.98 L207.35,13.98 C207.084197,13.9784632 206.828719,14.0828135 206.64,14.27 L203.4,17.5 C203.104173,17.7850261 203.012751,18.2219743 203.169495,18.6016911 C203.326238,18.981408 203.699258,19.2266391 204.11,19.2201315 L290.11,19.16 C290.516265,19.1623626 290.88358,18.9186962 291.039371,18.5434815 C291.195162,18.1682668 291.10846,17.7360905 290.82,17.45 L286,12.69 C285.821195,12.5123501 285.5819,12.4087745 285.33,12.4 Z" id="Path" fill="#EFF2F3"></path>
            <rect id="Rectangle" fill="#EFF2F3" x="0" y="185.31" width="440" height="1"></rect>
            <rect id="Rectangle" fill="#EFF2F3" x="0" y="187.54" width="440" height="1"></rect>
            <rect id="Rectangle" fill="#EFF2F3" x="0" y="183.07" width="440" height="1"></rect>
            <rect id="Rectangle" fill="#EFF2F3" x="349.76" y="183.07" width="1" height="6.75"></rect>
            <rect id="Rectangle" fill="#EFF2F3" x="384.86" y="183.47" width="1" height="6.75"></rect>
            <rect id="Rectangle" fill="#E5EBEF" transform="translate(112.505000, 159.920000) rotate(-180.000000) translate(-112.505000, -159.920000) " x="65.35" y="130.03" width="94.31" height="59.78"></rect>
            <rect id="Rectangle" fill="#E5EBEF" x="234.35" y="130.03" width="94.31" height="59.78"></rect>
            <rect id="Rectangle" fill="#023852" x="235.96" y="128.73" width="93.44" height="2.88"></rect>
            <rect id="Rectangle" fill="#96A6AE" x="321.83" y="136.43" width="7.5" height="5.74"></rect>
            <rect id="Rectangle" fill="#96A6AE" x="321.83" y="143.37" width="7.5" height="5.74"></rect>
            <rect id="Rectangle" fill="#96A6AE" x="321.83" y="150.31" width="7.5" height="5.74"></rect>
            <rect id="Rectangle" fill="#96A6AE" x="321.83" y="157.26" width="7.5" height="5.74"></rect>
            <rect id="Rectangle" fill="#96A6AE" x="321.83" y="164.2" width="7.5" height="5.74"></rect>
            <rect id="Rectangle" fill="#96A6AE" x="321.83" y="171.14" width="7.5" height="5.74"></rect>
            <rect id="Rectangle" fill="#96A6AE" x="321.83" y="178.09" width="7.5" height="5.74"></rect>
            <rect id="Rectangle" fill="#023852" transform="translate(111.330000, 130.170000) rotate(-180.000000) translate(-111.330000, -130.170000) " x="64.61" y="128.73" width="93.44" height="2.88"></rect>
            <rect id="Rectangle" fill="#96A6AE" transform="translate(68.430000, 139.310000) rotate(-180.000000) translate(-68.430000, -139.310000) " x="64.68" y="136.44" width="7.5" height="5.74"></rect>
            <rect id="Rectangle" fill="#96A6AE" transform="translate(68.430000, 146.240000) rotate(-180.000000) translate(-68.430000, -146.240000) " x="64.68" y="143.37" width="7.5" height="5.74"></rect>
            <rect id="Rectangle" fill="#96A6AE" transform="translate(68.430000, 153.190000) rotate(-180.000000) translate(-68.430000, -153.190000) " x="64.68" y="150.32" width="7.5" height="5.74"></rect>
            <rect id="Rectangle" fill="#96A6AE" transform="translate(68.430000, 160.130000) rotate(-180.000000) translate(-68.430000, -160.130000) " x="64.68" y="157.26" width="7.5" height="5.74"></rect>
            <rect id="Rectangle" fill="#96A6AE" transform="translate(68.430000, 167.080000) rotate(-180.000000) translate(-68.430000, -167.080000) " x="64.68" y="164.21" width="7.5" height="5.74"></rect>
            <rect id="Rectangle" fill="#96A6AE" transform="translate(68.430000, 174.010000) rotate(-180.000000) translate(-68.430000, -174.010000) " x="64.68" y="171.14" width="7.5" height="5.74"></rect>
            <rect id="Rectangle" fill="#96A6AE" transform="translate(68.430000, 180.960000) rotate(-180.000000) translate(-68.430000, -180.960000) " x="64.68" y="178.09" width="7.5" height="5.74"></rect>
            <rect id="Rectangle" fill="#009BDB" x="77.14" y="136.82" width="11.95" height="17.67"></rect>
            <polygon id="Path" fill="#003A5D" points="77.14 136.27 77.14 154.49 89.14 154.49 89.14 136.27"></polygon>
            <rect id="Rectangle" fill="#0099DA" x="78.11" y="146.02" width="4.51" height="7.42"></rect>
            <rect id="Rectangle" fill="#0099DA" x="83.61" y="146.02" width="4.51" height="7.42"></rect>
            <rect id="Rectangle" fill="#0099DA" x="78.11" y="137.55" width="4.51" height="7.42"></rect>
            <rect id="Rectangle" fill="#009BDB" x="83.61" y="137.55" width="4.51" height="7.42"></rect>
            <polygon id="Path" fill="url(#linearGradient-2)" points="77.54 136.26 85.31 154.48 89.09 154.57 89.09 136.26"></polygon>
            <rect id="Rectangle" fill="#009BDB" x="96.42" y="136.82" width="11.95" height="17.67"></rect>
            <polygon id="Path" fill="#003A5D" points="96.42 136.27 96.42 154.49 108.42 154.49 108.42 136.27"></polygon>
            <rect id="Rectangle" fill="#0099DA" x="97.39" y="146.02" width="4.51" height="7.42"></rect>
            <rect id="Rectangle" fill="#0099DA" x="102.89" y="146.02" width="4.51" height="7.42"></rect>
            <rect id="Rectangle" fill="#0099DA" x="97.39" y="137.55" width="4.51" height="7.42"></rect>
            <rect id="Rectangle" fill="#009BDB" x="102.89" y="137.55" width="4.51" height="7.42"></rect>
            <polygon id="Path" fill="url(#linearGradient-3)" points="96.82 136.26 104.59 154.48 108.37 154.57 108.37 136.26"></polygon>
            <rect id="Rectangle" fill="#009BDB" x="115.7" y="136.82" width="11.95" height="17.67"></rect>
            <polygon id="Path" fill="#003A5D" points="115.7 136.27 115.7 154.49 127.7 154.49 127.7 136.27"></polygon>
            <rect id="Rectangle" fill="#0099DA" x="116.67" y="146.02" width="4.51" height="7.42"></rect>
            <rect id="Rectangle" fill="#0099DA" x="122.17" y="146.02" width="4.51" height="7.42"></rect>
            <rect id="Rectangle" fill="#0099DA" x="116.67" y="137.55" width="4.51" height="7.42"></rect>
            <rect id="Rectangle" fill="#009BDB" x="122.17" y="137.55" width="4.51" height="7.42"></rect>
            <polygon id="Path" fill="url(#linearGradient-4)" points="116.11 136.26 123.87 154.48 127.65 154.57 127.65 136.26"></polygon>
            <rect id="Rectangle" fill="#009BDB" x="134.98" y="136.82" width="11.95" height="17.67"></rect>
            <polygon id="Path" fill="#003A5D" points="135 136.27 135 154.49 147 154.49 147 136.27"></polygon>
            <rect id="Rectangle" fill="#009BDB" x="135.95" y="146.02" width="4.51" height="7.42"></rect>
            <rect id="Rectangle" fill="#009BDB" x="141.45" y="146.02" width="4.51" height="7.42"></rect>
            <rect id="Rectangle" fill="#009BDB" x="135.95" y="137.55" width="4.51" height="7.42"></rect>
            <rect id="Rectangle" fill="#009BDB" x="141.45" y="137.55" width="4.51" height="7.42"></rect>
            <polygon id="Path" fill="url(#linearGradient-4)" points="135.39 136.26 143.15 154.48 146.93 154.57 146.93 136.26"></polygon>
            <rect id="Rectangle" fill="#009BDB" x="77.14" y="163.31" width="11.95" height="17.67"></rect>
            <polygon id="Path" fill="#003A5D" points="77.14 162.76 77.14 180.99 89.14 180.99 89.14 162.76"></polygon>
            <rect id="Rectangle" fill="#0099DA" x="78.11" y="172.52" width="4.51" height="7.42"></rect>
            <rect id="Rectangle" fill="#0099DA" x="83.61" y="172.52" width="4.51" height="7.42"></rect>
            <rect id="Rectangle" fill="#0099DA" x="78.11" y="164.05" width="4.51" height="7.42"></rect>
            <rect id="Rectangle" fill="#009BDB" x="83.61" y="164.05" width="4.51" height="7.42"></rect>
            <polygon id="Path" fill="url(#linearGradient-5)" points="77.54 162.76 85.31 180.97 89.09 181.06 89.09 162.76"></polygon>
            <rect id="Rectangle" fill="#009BDB" x="96.42" y="163.31" width="11.95" height="17.67"></rect>
            <polygon id="Path" fill="#003A5D" points="96.42 162.76 96.42 180.99 108.42 180.99 108.42 162.76"></polygon>
            <rect id="Rectangle" fill="#0099DA" x="97.39" y="172.52" width="4.51" height="7.42"></rect>
            <rect id="Rectangle" fill="#0099DA" x="102.89" y="172.52" width="4.51" height="7.42"></rect>
            <rect id="Rectangle" fill="#0099DA" x="97.39" y="164.05" width="4.51" height="7.42"></rect>
            <rect id="Rectangle" fill="#009BDB" x="102.89" y="164.05" width="4.51" height="7.42"></rect>
            <polygon id="Path" fill="url(#linearGradient-5)" points="96.82 162.76 104.59 180.97 108.37 181.06 108.37 162.76"></polygon>
            <rect id="Rectangle" fill="#009BDB" x="115.7" y="163.31" width="11.95" height="17.67"></rect>
            <polygon id="Path" fill="#003A5D" points="115.7 162.76 115.7 180.99 127.7 180.99 127.7 162.76"></polygon>
            <rect id="Rectangle" fill="#0099DA" x="116.67" y="172.52" width="4.51" height="7.42"></rect>
            <rect id="Rectangle" fill="#0099DA" x="122.17" y="172.52" width="4.51" height="7.42"></rect>
            <rect id="Rectangle" fill="#0099DA" x="116.67" y="164.05" width="4.51" height="7.42"></rect>
            <rect id="Rectangle" fill="#009BDB" x="122.17" y="164.05" width="4.51" height="7.42"></rect>
            <polygon id="Path" fill="url(#linearGradient-6)" points="116.11 162.76 123.87 180.97 127.65 181.06 127.65 162.76"></polygon>
            <rect id="Rectangle" fill="#009BDB" x="134.98" y="163.31" width="11.95" height="17.67"></rect>
            <polygon id="Path" fill="#003A5D" points="135 162.76 135 180.99 147 180.99 147 162.76"></polygon>
            <rect id="Rectangle" fill="#009BDB" x="135.95" y="172.52" width="4.51" height="7.42"></rect>
            <rect id="Rectangle" fill="#009BDB" x="141.45" y="172.52" width="4.51" height="7.42"></rect>
            <rect id="Rectangle" fill="#009BDB" x="135.95" y="164.05" width="4.51" height="7.42"></rect>
            <rect id="Rectangle" fill="#009BDB" x="141.45" y="164.05" width="4.51" height="7.42"></rect>
            <polygon id="Path" fill="url(#linearGradient-6)" points="135.39 162.76 143.15 180.97 146.93 181.06 146.93 162.76"></polygon>
            <rect id="Rectangle" fill="#009BDB" x="246.62" y="136.82" width="11.95" height="17.67"></rect>
            <polygon id="Path" fill="#003A5D" points="246.62 136.27 246.62 154.49 258.57 154.49 258.57 136.27"></polygon>
            <rect id="Rectangle" fill="#009BDB" x="247.59" y="146.02" width="4.51" height="7.42"></rect>
            <rect id="Rectangle" fill="#009BDB" x="253.09" y="146.02" width="4.51" height="7.42"></rect>
            <rect id="Rectangle" fill="#009BDB" x="247.59" y="137.55" width="4.51" height="7.42"></rect>
            <rect id="Rectangle" fill="#009BDB" x="253.09" y="137.55" width="4.51" height="7.42"></rect>
            <polygon id="Path" fill="url(#linearGradient-7)" points="247.02 136.26 254.79 154.48 258.56 154.57 258.56 136.26"></polygon>
            <rect id="Rectangle" fill="#009BDB" x="265.9" y="136.82" width="11.95" height="17.67"></rect>
            <polygon id="Path" fill="#003A5D" points="265.9 136.27 265.9 154.49 277.9 154.49 277.9 136.27"></polygon>
            <rect id="Rectangle" fill="#0099DA" x="266.87" y="146.02" width="4.51" height="7.42"></rect>
            <rect id="Rectangle" fill="#0099DA" x="272.37" y="146.02" width="4.51" height="7.42"></rect>
            <rect id="Rectangle" fill="#0099DA" x="266.87" y="137.55" width="4.51" height="7.42"></rect>
            <rect id="Rectangle" fill="#009BDB" x="272.37" y="137.55" width="4.51" height="7.42"></rect>
            <polygon id="Path" fill="url(#linearGradient-3)" points="266.3 136.26 274.07 154.48 277.85 154.57 277.85 136.26"></polygon>
            <rect id="Rectangle" fill="#009BDB" x="285.18" y="136.82" width="11.95" height="17.67"></rect>
            <polygon id="Path" fill="#003A5D" points="285.18 136.27 285.18 154.49 297.13 154.49 297.13 136.27"></polygon>
            <rect id="Rectangle" fill="#0099DA" x="286.15" y="146.02" width="4.51" height="7.42"></rect>
            <rect id="Rectangle" fill="#0099DA" x="291.65" y="146.02" width="4.51" height="7.42"></rect>
            <rect id="Rectangle" fill="#0099DA" x="286.15" y="137.55" width="4.51" height="7.42"></rect>
            <rect id="Rectangle" fill="#009BDB" x="291.65" y="137.55" width="4.51" height="7.42"></rect>
            <polygon id="Path" fill="url(#linearGradient-3)" points="285.58 136.26 293.35 154.48 297.13 154.57 297.13 136.26"></polygon>
            <rect id="Rectangle" fill="#009BDB" x="304.46" y="136.82" width="11.95" height="17.67"></rect>
            <polygon id="Path" fill="#003A5D" points="304.46 136.27 304.46 154.49 316.46 154.49 316.46 136.27"></polygon>
            <rect id="Rectangle" fill="#0099DA" x="305.43" y="146.02" width="4.51" height="7.42"></rect>
            <rect id="Rectangle" fill="#0099DA" x="310.93" y="146.02" width="4.51" height="7.42"></rect>
            <rect id="Rectangle" fill="#0099DA" x="305.43" y="137.55" width="4.51" height="7.42"></rect>
            <rect id="Rectangle" fill="#009BDB" x="310.93" y="137.55" width="4.51" height="7.42"></rect>
            <polygon id="Path" fill="url(#linearGradient-4)" points="304.87 136.26 312.63 154.48 316.41 154.57 316.41 136.26"></polygon>
            <rect id="Rectangle" fill="#009BDB" x="246.62" y="163.31" width="11.95" height="17.67"></rect>
            <polygon id="Path" fill="#003A5D" points="246.62 162.76 246.62 180.99 258.57 180.99 258.57 162.76"></polygon>
            <rect id="Rectangle" fill="#009BDB" x="247.59" y="172.52" width="4.51" height="7.42"></rect>
            <rect id="Rectangle" fill="#009BDB" x="253.09" y="172.52" width="4.51" height="7.42"></rect>
            <rect id="Rectangle" fill="#009BDB" x="247.59" y="164.05" width="4.51" height="7.42"></rect>
            <rect id="Rectangle" fill="#009BDB" x="253.09" y="164.05" width="4.51" height="7.42"></rect>
            <polygon id="Path" fill="url(#linearGradient-8)" points="247.02 162.76 254.79 180.97 258.56 181.06 258.56 162.76"></polygon>
            <rect id="Rectangle" fill="#009BDB" x="265.9" y="163.31" width="11.95" height="17.67"></rect>
            <polygon id="Path" fill="#003A5D" points="265.9 162.76 265.9 180.99 277.9 180.99 277.9 162.76"></polygon>
            <rect id="Rectangle" fill="#0099DA" x="266.87" y="172.52" width="4.51" height="7.42"></rect>
            <rect id="Rectangle" fill="#0099DA" x="272.37" y="172.52" width="4.51" height="7.42"></rect>
            <rect id="Rectangle" fill="#0099DA" x="266.87" y="164.05" width="4.51" height="7.42"></rect>
            <rect id="Rectangle" fill="#009BDB" x="272.37" y="164.05" width="4.51" height="7.42"></rect>
            <polygon id="Path" fill="url(#linearGradient-5)" points="266.3 162.76 274.07 180.97 277.85 181.06 277.85 162.76"></polygon>
            <rect id="Rectangle" fill="#009BDB" x="285.18" y="163.31" width="11.95" height="17.67"></rect>
            <polygon id="Path" fill="#003A5D" points="285.18 162.76 285.18 180.99 297.13 180.99 297.13 162.76"></polygon>
            <rect id="Rectangle" fill="#0099DA" x="286.15" y="172.52" width="4.51" height="7.42"></rect>
            <rect id="Rectangle" fill="#0099DA" x="291.65" y="172.52" width="4.51" height="7.42"></rect>
            <rect id="Rectangle" fill="#0099DA" x="286.15" y="164.05" width="4.51" height="7.42"></rect>
            <rect id="Rectangle" fill="#009BDB" x="291.65" y="164.05" width="4.51" height="7.42"></rect>
            <polygon id="Path" fill="url(#linearGradient-5)" points="285.58 162.76 293.35 180.97 297.13 181.06 297.13 162.76"></polygon>
            <rect id="Rectangle" fill="#009BDB" x="304.46" y="163.31" width="11.95" height="17.67"></rect>
            <polygon id="Path" fill="#003A5D" points="304.46 162.76 304.46 180.99 316.46 180.99 316.46 162.76"></polygon>
            <rect id="Rectangle" fill="#0099DA" x="305.43" y="172.52" width="4.51" height="7.42"></rect>
            <rect id="Rectangle" fill="#0099DA" x="310.93" y="172.52" width="4.51" height="7.42"></rect>
            <rect id="Rectangle" fill="#0099DA" x="305.43" y="164.05" width="4.51" height="7.42"></rect>
            <rect id="Rectangle" fill="#009BDB" x="310.93" y="164.05" width="4.51" height="7.42"></rect>
            <polygon id="Path" fill="url(#linearGradient-6)" points="304.87 162.76 312.63 180.97 316.41 181.06 316.41 162.76"></polygon>
            <polygon id="Path" fill="#CCD8DF" style="mix-blend-mode: multiply;" points="155.88 133.92 151.97 133.92 151.97 128.65 137.32 128.65 137.32 138.14 141.22 138.14 141.22 181.03 137.32 181.03 137.32 189.82 151.97 189.82 151.97 185.24 155.88 185.24"></polygon>
            <polygon id="Path" fill="#CCD8DF" style="mix-blend-mode: multiply;" points="256.32 138.35 256.32 128.64 241.66 128.64 241.66 134.04 237.76 134.04 237.76 186.46 241.66 186.46 241.66 189.81 256.32 189.81 256.32 180.85 252.41 180.85 252.41 138.35"></polygon>
            <rect id="Rectangle" fill="#E5EBEF" x="155.94" y="130.03" width="81.43" height="55.37"></rect>
            <rect id="Rectangle" fill="#CCD8DF" style="mix-blend-mode: multiply;" x="158.11" y="131.73" width="77.09" height="8.69"></rect>
            <rect id="Rectangle" fill="#AABCCB" x="146.46" y="183.74" width="100.38" height="3.4"></rect>
            <rect id="Rectangle" fill="#EFF2F3" x="143.86" y="187.13" width="105.57" height="2.6"></rect>
            <rect id="Rectangle" fill="#023852" x="168.74" y="159.45" width="15.29" height="24.28"></rect>
            <rect id="Rectangle" fill="#C3D0DA" x="177.16" y="169.89" width="1" height="4.45"></rect>
            <rect id="Rectangle" fill="#C3D0DA" x="174.88" y="169.89" width="1" height="4.45"></rect>
            <rect id="Rectangle" fill="#003A5D" x="209.27" y="159.45" width="15.29" height="24.28"></rect>
            <rect id="Rectangle" fill="#C3D0DA" x="217.69" y="169.89" width="1" height="4.45"></rect>
            <rect id="Rectangle" fill="#C3D0DA" x="215.42" y="169.89" width="1" height="4.45"></rect>
            <rect id="Rectangle" fill="#EFF2F3" x="153.75" y="137.32" width="6.46" height="45.62"></rect>
            <rect id="Rectangle" fill="#CCD8DF" style="mix-blend-mode: multiply;" x="153.75" y="137.29" width="6.46" height="9.36"></rect>
            <path d="M151.1,131.45 L162.74,131.45 L162.74,137 C162.74,137.27062 162.52062,137.49 162.25,137.49 L151.59,137.49 C151.460044,137.49 151.335411,137.438375 151.243518,137.346482 C151.151625,137.254589 151.1,137.129956 151.1,137 L151.1,131.49 L151.1,131.45 Z" id="Path" fill="#EFF2F3"></path>
            <path d="M151.09,181.14 L162.73,181.14 L162.73,186.65 C162.73,186.92062 162.51062,187.14 162.24,187.14 L151.58,187.14 C151.30938,187.14 151.09,186.92062 151.09,186.65 L151.09,181.14 L151.09,181.14 Z" id="Path" fill="#EFF2F3" transform="translate(156.910000, 184.140000) rotate(180.000000) translate(-156.910000, -184.140000) "></path>
            <rect id="Rectangle" fill="#EFF2F3" x="193.48" y="137.32" width="6.46" height="45.62"></rect>
            <rect id="Rectangle" fill="#CCD8DF" style="mix-blend-mode: multiply;" x="193.48" y="137.29" width="6.46" height="9.36"></rect>
            <path d="M190.83,131.45 L202.47,131.45 L202.47,137 C202.47,137.27062 202.25062,137.49 201.98,137.49 L191.32,137.49 C191.190044,137.49 191.065411,137.438375 190.973518,137.346482 C190.881625,137.254589 190.83,137.129956 190.83,137 L190.83,131.49 L190.83,131.45 Z" id="Path" fill="#EFF2F3"></path>
            <path d="M190.83,181.14 L202.47,181.14 L202.47,186.65 C202.47,186.92062 202.25062,187.14 201.98,187.14 L191.32,187.14 C191.04938,187.14 190.83,186.92062 190.83,186.65 L190.83,181.14 Z" id="Path" fill="#EFF2F3" transform="translate(196.650000, 184.140000) rotate(180.000000) translate(-196.650000, -184.140000) "></path>
            <rect id="Rectangle" fill="#EFF2F3" x="233.21" y="137.32" width="6.46" height="45.62"></rect>
            <rect id="Rectangle" fill="#CCD8DF" style="mix-blend-mode: multiply;" x="233.21" y="137.29" width="6.46" height="9.36"></rect>
            <path d="M230.56,131.45 L242.2,131.45 L242.2,137 C242.2,137.27062 241.98062,137.49 241.71,137.49 L231.06,137.49 C230.930044,137.49 230.805411,137.438375 230.713518,137.346482 C230.621625,137.254589 230.57,137.129956 230.57,137 L230.57,131.49 L230.56,131.45 Z" id="Path" fill="#EFF2F3"></path>
            <path d="M230.57,181.14 L242.21,181.14 L242.21,186.65 C242.21,186.92062 241.99062,187.14 241.72,187.14 L231.07,187.14 C230.79938,187.14 230.58,186.92062 230.58,186.65 L230.58,181.14 L230.57,181.14 Z" id="Path" fill="#EFF2F3" transform="translate(236.390000, 184.140000) rotate(180.000000) translate(-236.390000, -184.140000) "></path>
            <polygon id="Path" fill="#33617E" points="196.65 94.43 145.61 121.51 247.69 121.51"></polygon>
            <rect id="Rectangle" fill="#C3D0DA" x="150.22" y="128.73" width="92.85" height="2.88"></rect>
            <rect id="Rectangle" fill="#EFF2F3" x="148.16" y="121.49" width="96.99" height="7.46"></rect>
            <polygon id="Path" fill="#023852" points="150.23 121.49 243.08 121.49 196.65 97.18"></polygon>
            <rect id="Rectangle" fill="#33617E" x="107.4" y="94.81" width="1" height="35.63"></rect>
            <path d="M108.23,94.2 C108.23,94.2 104.12,91.64 100.48,92.91 C96.84,94.18 94.74,97.44 87.48,93.81 L87.48,106.41 C94.73,110.04 96.84,106.8 100.48,105.52 C103.08,104.61 105.92,105.66 107.32,106.34 L108.17,106.78 L108.17,106.78 L108.23,94.2 Z" id="Path" fill="#FFE600"></path>
            <rect id="Rectangle" fill="#33617E" x="289.11" y="94.81" width="1" height="35.63"></rect>
            <path d="M289.94,94.2 C289.94,94.2 285.83,91.64 282.19,92.91 C278.55,94.18 276.45,97.44 269.19,93.81 L269.19,106.41 C276.44,110.04 278.55,106.8 282.19,105.52 C284.79,104.61 287.63,105.66 289.03,106.34 L289.88,106.78 L289.93,106.78 L289.94,94.2 Z" id="Path" fill="#FFE600"></path>
            <path d="M108.23,94.2 C108.23,94.2 104.12,91.64 100.48,92.91 C96.84,94.18 94.74,97.44 87.48,93.81 L87.48,106.41 C94.73,110.04 96.84,106.8 100.48,105.52 C103.08,104.61 105.92,105.66 107.32,106.34 L108.17,106.78 L108.17,106.78 L108.23,94.2 Z" id="Path" fill="url(#linearGradient-9)" style="mix-blend-mode: multiply;"></path>
            <path d="M289.94,94.2 C289.94,94.2 285.83,91.64 282.19,92.91 C278.55,94.18 276.45,97.44 269.19,93.81 L269.19,106.41 C276.44,110.04 278.55,106.8 282.19,105.52 C284.79,104.61 287.63,105.66 289.03,106.34 L289.88,106.78 L289.93,106.78 L289.94,94.2 Z" id="Path" fill="url(#linearGradient-9)" style="mix-blend-mode: multiply;"></path>
            <path d="M399.7,166.83 L407.09,166.83 C408.737643,166.833825 410.318373,166.178488 411.48,165.01 L413.16,163.34 C414.337218,162.166226 414.999212,160.572404 415,158.91 L415,158.91 C415.000601,157.263236 415.655261,155.684138 416.82,154.52 L420.15,151.19 C421.317192,150.023413 421.972054,148.440229 421.970017,146.79 L421.970017,136.69 C421.973825,135.042357 421.318488,133.461627 420.15,132.3 L410.15,122.3 C408.988373,121.131512 407.407643,120.476175 405.76,120.479983 L390,120.479983 C388.352357,120.476175 386.771627,121.131512 385.61,122.3 L376.61,131.3 C375.445261,132.464138 374.790601,134.043236 374.789983,135.69 L374.789983,150.31 C374.786175,151.957643 375.441512,153.538373 376.61,154.7 L387,165.08 C388.178877,166.25328 389.77679,166.90828 391.44,166.900078 L399.7,166.83 Z" id="Path" fill="#CCD8DF"></path>
            <path d="M420.13,132.3 L410.13,122.3 C408.968373,121.131512 407.387643,120.476175 405.74,120.479983 L390,120.479983 C388.352357,120.476175 386.771627,121.131512 385.61,122.3 L376.61,131.3 C375.445261,132.464138 374.790601,134.043236 374.789995,135.69 L374.789995,145.33 C374.787946,143.679771 375.442808,142.096587 376.61,140.93 L385.61,131.93 C386.774138,130.765261 388.353236,130.110601 390,130.11 L405.78,130.11 C407.426764,130.110601 409.005862,130.765261 410.17,131.93 L420.17,141.93 C421.338488,143.091627 421.993825,144.672357 421.990017,146.32 L421.990017,136.69 C421.98327,135.036555 421.313178,133.454996 420.13,132.3 L420.13,132.3 Z" id="Path" fill="#E5EBEF"></path>
            <path d="M369.53,142.169878 L359.7,142.169878 C358.514419,142.169306 357.37735,142.640686 356.54,143.48 L354.05,145.97 C353.210686,146.80735 352.739306,147.944419 352.739999,149.13 L352.739999,160.84 C352.741484,162.020249 353.208653,163.152234 354.04,163.99 L361.04,170.99 C361.864415,171.81206 362.975908,172.281755 364.14,172.3 L372.23,172.41 C373.434456,172.427184 374.595087,171.958607 375.45,171.11 L381.28,165.28 C382.112863,164.439162 382.58,163.303499 382.58,162.12 L382.58,155.19 C382.577909,154.006929 382.111029,152.872052 381.28,152.03 L372.68,143.44 C371.838591,142.61779 370.706403,142.16132 369.53,142.169878 Z" id="Path" fill="#99B0BE"></path>
            <path d="M381.29,152.07 L372.69,143.48 C371.85265,142.640686 370.715581,142.169306 369.53,142.169999 L359.7,142.169999 C358.514419,142.169306 357.37735,142.640686 356.54,143.48 L354.05,145.97 C353.210686,146.80735 352.739306,147.944419 352.739997,149.13 L352.739997,156.91 C352.738644,155.727222 353.210329,154.593017 354.05,153.76 L356.54,151.26 C357.380838,150.427137 358.516501,149.959933 359.7,149.96 L369.53,149.96 C370.713499,149.959933 371.849162,150.427137 372.69,151.26 L381.29,159.86 C382.011931,160.593661 382.45721,161.554899 382.550019,162.58 C382.550019,162.43 382.550019,162.29 382.550019,162.14 L382.550019,155.21 C382.553391,154.039482 382.101563,152.913498 381.29,152.07 Z" id="Path" fill="#B2C4CE"></path>
            <rect id="Rectangle" fill="#33617E" x="398.59" y="140.84" width="1" height="48.93"></rect>
            <path d="M398.76,159.060009 C398.624866,159.059669 398.495388,159.00572 398.4,158.91 L390,150.5 C389.803939,150.303939 389.803939,149.986061 390,149.79 C390.196061,149.593939 390.513939,149.593939 390.71,149.79 L399.12,158.2 C399.214656,158.293883 399.267899,158.421681 399.267899,158.555 C399.267899,158.688319 399.214656,158.816117 399.12,158.91 C399.025251,159.006668 398.895357,159.060791 398.76,159.060009 Z" id="Path" fill="#33617E"></path>
            <path d="M399.31,147.91 C399.17891,147.914213 399.052022,147.863458 398.96,147.77 C398.865344,147.676117 398.812101,147.548319 398.812101,147.415 C398.812101,147.281681 398.865344,147.153883 398.96,147.06 L402.61,143.41 C402.703883,143.315344 402.831681,143.262101 402.965,143.262101 C403.098319,143.262101 403.226117,143.315344 403.32,143.41 C403.510571,143.604422 403.510571,143.915578 403.32,144.11 L399.66,147.77 C399.568689,147.864522 399.441309,147.915474 399.31,147.91 Z" id="Path" fill="#33617E"></path>
            <rect id="Rectangle" fill="#33617E" x="367.34" y="155.86" width="1" height="33.97"></rect>
            <path d="M368,165.09 C367.868115,165.088121 367.742315,165.034207 367.65,164.94 C367.458217,164.742186 367.458217,164.427814 367.65,164.23 L371.81,160.08 C371.903883,159.985344 372.031681,159.932101 372.165,159.932101 C372.298319,159.932101 372.426117,159.985344 372.52,160.08 C372.710571,160.274422 372.710571,160.585578 372.52,160.78 L368.34,164.91 C368.25451,165.012084 368.132485,165.076685 368,165.09 Z" id="Path" fill="#33617E"></path>
            <path d="M367.64,162.63 C367.515196,162.626513 367.395293,162.580668 367.3,162.5 L363.21,158.73 C363.050258,158.537595 363.057232,158.256759 363.226328,158.07252 C363.395424,157.888281 363.674633,157.857305 363.88,158 L367.98,161.76 C368.074656,161.853883 368.127899,161.981681 368.127899,162.115 C368.127899,162.248319 368.074656,162.376117 367.98,162.47 C367.890572,162.563849 367.769315,162.620911 367.64,162.63 L367.64,162.63 Z" id="Path" fill="#33617E"></path>
            <path d="M339.66,147.55 C338.022477,147.55 336.687292,148.862705 336.66,150.5 L336.66,155.8 L338,155.8 L338,150.5 C338,149.594253 338.734253,148.86 339.64,148.86 C340.545747,148.86 341.28,149.594253 341.28,150.5 L341.28,189.77 L342.59,189.77 L342.59,150.5 C342.563589,148.889568 341.270215,147.587365 339.66,147.55 L339.66,147.55 Z" id="Path" fill="#EFF2F3"></path>
            <rect id="Rectangle" fill="#EFF2F3" x="335.78" y="155.11" width="3.19" height="3.19" rx="1.51"></rect>
            <path d="M41.4,147.55 C39.7819696,147.57675 38.4767498,148.88197 38.45,150.5 L38.45,155.8 L39.76,155.8 L39.76,150.5 C39.76,149.594253 40.494253,148.86 41.4,148.86 C42.305747,148.86 43.04,149.594253 43.04,150.5 L43.04,189.77 L44.34,189.77 L44.34,150.5 C44.3134112,148.885776 43.0141241,147.58207 41.4,147.55 Z" id="Path" fill="#EFF2F3"></path>
            <rect id="Rectangle" fill="#EFF2F3" x="37.52" y="155.11" width="3.19" height="3.19" rx="1.51"></rect>
            <polygon id="Path" fill="#EFCCAF" points="411.23 188.48 411.29 189.03 411.79 189.28 412.16 188.94 412.05 188.43"></polygon>
            <polygon id="Path" fill="#EFCCAF" opacity="0.6" style="mix-blend-mode: multiply;" points="412.12 188.75 411.58 188.75 411.27 188.85 411.25 188.63 412.08 188.57"></polygon>
            <path d="M411.1,188.83 L410.69,189.25 L410.62,189.25 L410.03,189.36 C409.987714,189.366808 409.950871,189.392598 409.93,189.43 L409.93,189.43 C409.909853,189.472346 409.912245,189.521966 409.936372,189.562177 C409.960499,189.602388 410.003155,189.627849 410.05,189.63 L411.9,189.63 L411.97,189.63 L412.28,189.45 C412.336264,189.423235 412.365627,189.360314 412.35,189.3 L412.25,188.85 C412.241415,188.811961 412.216207,188.779785 412.181327,188.762345 C412.146448,188.744906 412.105583,188.744045 412.07,188.76 L411.64,188.93 C411.60042,188.955505 411.54958,188.955505 411.51,188.93 L411.29,188.77 C411.256894,188.752516 411.218163,188.74902 411.182461,188.760294 C411.146759,188.771569 411.117061,188.796673 411.1,188.83 L411.1,188.83 Z" id="Path" fill="#8C8F8B"></path>
            <path d="M409.92,189.5 L409.92,189.5 C409.940871,189.462598 409.977714,189.436808 410.02,189.43 L410.61,189.32 L410.68,189.32 L411.09,188.9 C411.142049,188.856317 411.217951,188.856317 411.27,188.9 L411.49,189.06 L411.49,189.06 L411.18,189.38 L411.1,189.38 L410.52,189.49 C410.477714,189.496808 410.440871,189.522598 410.42,189.56 L410.42,189.56 C410.3849,189.60384 410.3849,189.66616 410.42,189.71 L410,189.71 C409.957388,189.697967 409.92298,189.666486 409.907217,189.625108 C409.891454,189.58373 409.896194,189.537335 409.92,189.5 L409.92,189.5 Z" id="Path" fill="#BABCBA"></path>
            <polygon id="Path" fill="#EFCCAF" points="407.62 188.52 407.42 189.03 406.68 188.96 406.49 188.85 406.73 188.57 406.91 188.34"></polygon>
            <path d="M407.15,188.91 C407.178559,188.84401 407.176025,188.768691 407.143095,188.704769 C407.110166,188.640847 407.050311,188.595058 406.98,188.58 L406.77,188.52 L406.91,188.34 L407.62,188.51 L407.42,189.03 L407.12,189.03 L407.15,188.91 Z" id="Path" fill="#EFCCAF" opacity="0.6" style="mix-blend-mode: multiply;"></path>
            <path d="M409.16,183.91 L408.63,185.24 L408.63,185.36 L408.63,186.36 C408.639001,186.399494 408.639001,186.440506 408.63,186.48 L407.92,188.43 C407.840933,188.627692 407.623701,188.731963 407.42,188.67 L407.23,188.6 C407.129079,188.566179 407.046365,188.49258 407.001044,188.396273 C406.955724,188.299967 406.951734,188.189321 406.99,188.09 L407.3,187.24 C407.304335,187.216868 407.304335,187.193132 407.3,187.17 L407.58,185.48 C407.590013,185.43387 407.590013,185.38613 407.58,185.34 L407.51,184.95 C407.49999,184.897136 407.49999,184.842864 407.51,184.79 L408.07,182.27 C408.093947,182.156703 408.167003,182.059907 408.269393,182.005815 C408.371782,181.951722 408.492915,181.945928 408.6,181.99 L409.4,182.33 C409.588398,182.412487 409.683541,182.624397 409.62,182.82 L409.16,183.91 Z" id="Path" fill="#33617E"></path>
            <path d="M409.11,184.05 L408.61,185.29 L408.61,185.29 L408.56,186.37 C408.56,186.37 408.56,186.37 408.56,186.37 L408.4,186.81 C408.4,186.859706 408.359706,186.9 408.31,186.9 C408.260294,186.9 408.22,186.859706 408.22,186.81 L407.96,184.97 C407.953698,184.940182 407.934142,184.914865 407.906883,184.901235 C407.879623,184.887605 407.847636,184.887151 407.82,184.9 L407.82,184.9 C407.791611,184.919053 407.754878,184.920375 407.725193,184.903412 C407.695508,184.886449 407.677998,184.854131 407.68,184.82 L407.68,183.65 L408.19,181.34 C408.203575,181.296669 408.24464,181.267923 408.29,181.27 L409.43,181.36 C409.48284,181.369763 409.520894,181.416273 409.520015,181.47 L409.12,184 L409.11,184.05 Z" id="Path" fill="#6E8FA3" style="mix-blend-mode: multiply;"></path>
            <path d="M410.39,181.67 L410.39,182.24 L410.39,182.24 L410.17,182.93 L410.17,182.93 L410.56,184.71 L410.56,184.71 L410.86,185.35 L410.86,185.35 L411.79,187.06 L411.79,187.06 L412.11,188.49 C412.11,188.49 412.11,188.49 412.11,188.49 L411.22,188.6 C411.22,188.6 411.22,188.6 411.22,188.6 L410.96,187.51 L410.96,187.51 L409.48,185.3 L409.48,185.3 L408,181.91 C407.991068,181.89453 407.991068,181.87547 408,181.86 L410.31,181.66 C410.31,181.66 410.38,181.65 410.39,181.67 Z" id="Path" fill="#33617E"></path>
            <path d="M406.45,188.7 L405.8,189 L405.19,189 C405.093448,188.998053 405.009295,189.065375 404.99,189.16 L404.99,189.26 L405.85,189.62 L406.85,189.7 L407.57,189.7 L407.57,188.91 L406.75,188.84 L406.69,188.73 C406.676724,188.67829 406.633183,188.639954 406.580208,188.633333 C406.527234,188.626711 406.475596,188.653149 406.45,188.7 L406.45,188.7 Z" id="Path" fill="#8C8F8B"></path>
            <path d="M406.22,189.17 L405.61,189.17 C405.512002,189.163632 405.425299,189.232995 405.41,189.33 L405.41,189.42 L405,189.25 L405,189.15 C405.019295,189.055375 405.103448,188.988053 405.2,188.99 L405.81,188.99 L406.45,188.7 C406.519067,188.671589 406.598274,188.702392 406.63,188.77 L406.69,188.88 L406.83,188.88 L406.22,189.17 Z" id="Path" fill="#BABCBA"></path>
            <path d="M410.39,181.78 L410.39,182.22 L410.19,182.9 C410.19,182.9 410.19,182.9 410.19,182.9 L410.28,184.27 C410.283177,184.319257 410.253155,184.364599 410.206567,184.380905 C410.159979,184.397211 410.108233,184.380487 410.08,184.34 L409.29,183.22 C409.271115,183.194819 409.241476,183.18 409.21,183.18 C409.178524,183.18 409.148885,183.194819 409.13,183.22 L408.95,183.38 C408.929403,183.40931 408.895823,183.426754 408.86,183.426754 C408.824177,183.426754 408.790597,183.40931 408.77,183.38 L408.19,182.03 C408.177389,181.999594 408.179057,181.965138 408.194548,181.936092 C408.210039,181.907047 408.237723,181.886466 408.27,181.88 L410.27,181.64 C410.306888,181.635114 410.343746,181.649208 410.367963,181.67746 C410.392179,181.705713 410.400471,181.744293 410.39,181.78 L410.39,181.78 Z" id="Path" fill="#6E8FA3" style="mix-blend-mode: multiply;"></path>
            <path d="M410.71,181.69 L410.57,182.04 L410.57,182.52 C410.569819,182.543069 410.579606,182.565094 410.596848,182.580421 C410.614091,182.595747 410.637111,182.602884 410.66,182.6 L410.66,182.6 C410.685505,182.588869 410.714495,182.588869 410.74,182.6 L410.81,182.75 C410.844164,182.780557 410.895836,182.780557 410.93,182.75 L411.36,182.5 C411.376077,182.472154 411.376077,182.437846 411.36,182.41 L411.3,182.17 L411.3,182.17 L411.3,181.68 C411.293946,181.642113 411.266748,181.61103 411.23,181.6 L410.79,181.52 C410.74816,181.516226 410.708422,181.539004 410.690534,181.577016 C410.672646,181.615027 410.680423,181.660166 410.71,181.69 Z" id="Path" fill="#EFCCAF"></path>
            <g id="Group" opacity="0.6" style="mix-blend-mode: multiply;" transform="translate(410.000000, 181.000000)" fill="#EFCCAF">
                <path d="M0.56,1.08 L0.7,0.73 C0.730940108,0.712136721 0.769059892,0.712136721 0.8,0.73 L1.24,0.81 C1.27674838,0.821029741 1.30394597,0.852112704 1.31,0.89 L1.31,1.38 L1.31,1.38 L1.31,1.38 L0.51,1.28 L0.56,1.08 Z" id="Path"></path>
            </g>
            <path d="M410.26,177 L411.19,179.29 L411.19,179.29 L411.320006,181.78 C411.320413,181.809595 411.299184,181.83507 411.27,181.84 L410.72,181.84 L410.66,180.6 L410.66,180.6 L410.47,180.09 C410.47,180.09 410.47,179.65 410.47,179.54 L410.06,179.13 C410.053845,179.113902 410.053845,179.096098 410.06,179.08 L410.26,177 Z" id="Path" fill="#E5F5FB"></path>
            <path d="M410.26,177 L411.19,179.3 L411.25,180.3 C411.25,180.327614 411.227614,180.35 411.2,180.35 C411.172386,180.35 411.15,180.327614 411.15,180.3 L410.76,179.71 L410.59,179.83 C410.560166,179.859577 410.515027,179.867354 410.477016,179.849466 C410.439004,179.831578 410.416226,179.79184 410.42,179.75 L410.42,179.38 L409.92,178.9 L410.26,177 Z" id="Path" fill="#BFE6F6"></path>
            <path d="M406.92,179.78 L406.08,181.29 L406.08,181.29 L405.69,181.57 C405.685277,181.586332 405.685277,181.603668 405.69,181.62 L405.58,182.04 C405.565709,182.064752 405.565709,182.095248 405.58,182.12 L405.8,182.33 L405.8,182.33 L406.2,182.44 C406.222475,182.449511 406.248061,182.448243 406.269486,182.436557 C406.29091,182.424871 406.305828,182.404045 406.31,182.38 L406.31,182.38 C406.325021,182.359084 406.325021,182.330916 406.31,182.31 L406.25,182.24 C406.239959,182.214278 406.239959,182.185722 406.25,182.16 L406.25,181.94 L406.25,181.94 L407.49,180.29 C407.520557,180.255836 407.520557,180.204164 407.49,180.17 L407.01,179.78 C406.982154,179.763923 406.947846,179.763923 406.92,179.78 L406.92,179.78 Z" id="Path" fill="#EFCCAF"></path>
            <path d="M405.83,182.36 C405.81035,182.325966 405.81035,182.284034 405.83,182.25 L405.88,182.06 L406.88,180.72 C407.041288,180.512436 407.005624,180.213754 406.8,180.05 L406.93,179.82 C406.946976,179.802274 406.970456,179.792249 406.995,179.792249 C407.019544,179.792249 407.043024,179.802274 407.06,179.82 L407.54,180.21 C407.570557,180.244164 407.570557,180.295836 407.54,180.33 L406.3,181.91 L406.3,181.91 L406.3,182.13 C406.289959,182.155722 406.289959,182.184278 406.3,182.21 L406.36,182.28 C406.375021,182.300916 406.375021,182.329084 406.36,182.35 L406.36,182.35 C406.355828,182.374045 406.34091,182.394871 406.319486,182.406557 C406.298061,182.418243 406.272475,182.419511 406.25,182.41 L405.89,182.31 L405.83,182.36 Z" id="Path" fill="#EFCCAF" opacity="0.6" style="mix-blend-mode: multiply;"></path>
            <path d="M407.86,176.32 L407.86,176.27 C407.8276,176.244985 407.7824,176.244985 407.75,176.27 L407.56,176.34 C407.518926,176.355544 407.473103,176.352306 407.434622,176.331142 C407.396141,176.309977 407.368868,176.273012 407.36,176.23 L407.31,175.98 C407.304479,175.956993 407.304479,175.933007 407.31,175.91 L407.39,175.79 L407.32,175.79 C407.292844,175.808475 407.257156,175.808475 407.23,175.79 L407.16,175.72 L407,175.72 C406.969885,175.721743 406.940899,175.708283 406.922799,175.68415 C406.9047,175.660018 406.899894,175.628423 406.91,175.6 L407.02,175.2 C407.034551,175.168255 407.034551,175.131745 407.02,175.1 L407.02,175.1 C407.012378,175.077289 407.012378,175.052711 407.02,175.03 L407.02,174.57 C407.008869,174.544495 407.008869,174.515505 407.02,174.49 L407.49,174.21 C407.524034,174.19035 407.565966,174.19035 407.6,174.21 L408.46,174.83 C408.466863,174.849411 408.466863,174.870589 408.46,174.89 L408.68,175.81 C408.700222,175.840266 408.700222,175.879734 408.68,175.91 L407.98,176.42 C407.950228,176.426084 407.919305,176.4183 407.895961,176.398847 C407.872617,176.379393 407.859385,176.350381 407.86,176.32 L407.86,176.32 Z" id="Path" fill="#EFCCAF"></path>
            <path d="M406.78,174.11 L406.84,174.01 L406.84,174.01 L407.09,174.01 L407.6,173.73 L407.6,173.73 L408.04,173.8 L408.04,173.8 L408.47,174.21 L408.47,174.21 L408.59,174.66 L408.59,174.66 L408.59,175.42 L408.43,175.42 C408.43,175.42 408.43,175.42 408.43,175.42 C408.43,175.42 408.14,174.75 408.13,174.75 L407.93,174.7 C407.93,174.7 407.93,174.7 407.93,174.7 L407.76,174.91 C407.76,174.91 407.76,174.91 407.76,174.91 L407.76,175.08 L407.67,175.08 L407.54,174.71 L407.54,174.71 L407.48,174.71 L407.53,174.49 L407.11,174.57 L407.11,174.57 L406.98,174.46 C406.975277,174.443668 406.975277,174.426332 406.98,174.41 L407.04,174.22 L406.78,174.11 Z" id="Path" fill="#003A5D"></path>
            <path d="M406.71,174.31 L406.77,174.12 L406.77,174.12 L406.83,174.02 L406.83,174.02 L407.08,174.02 L407.59,173.74 L407.59,173.74 L408.03,173.81 L408.03,173.81 L408.46,174.22 L408.46,174.22 L408.46,174.22 L408.28,174.05 L408.28,174.05 L407.84,173.98 L407.84,173.98 L407.33,174.27 L407.08,174.27 L407.08,174.27 L407.01,174.38 L407.01,174.38 L407.01,174.45 L406.88,174.45 L406.88,174.45 L406.75,174.34 C406.734101,174.333979 406.720232,174.323577 406.71,174.31 L406.71,174.31 Z" id="Path" fill="#33617E"></path>
            <path d="M407.08,175.16 L406.97,175.53 C406.963263,175.548948 406.966467,175.570012 406.978533,175.5861 C406.990599,175.602189 407.009923,175.611162 407.03,175.61 L407.16,175.61 L407.08,175.16 Z" id="Path" fill="#EFCCAF" opacity="0.6" style="mix-blend-mode: multiply;"></path>
            <polygon id="Path" fill="#EFCCAF" opacity="0.6" style="mix-blend-mode: multiply;" points="407.78 175.19 407.81 174.97 407.97 174.82 408.1 174.87 408.09 175.01 407.91 175.01"></polygon>
            <g id="Group" opacity="0.6" style="mix-blend-mode: multiply;" transform="translate(407.000000, 175.000000)" fill="#EFCCAF">
                <path d="M0.5,1.2 L1.15,0.6 C1.15953794,0.578123215 1.18113442,0.563979158 1.205,0.563979158 C1.22886558,0.563979158 1.25046206,0.578123215 1.26,0.6 L1.26,1.12 L1,1.31 C0.961115649,1.34811429 0.898884351,1.34811429 0.86,1.31 L0.86,1.26 C0.827599683,1.23498538 0.782400317,1.23498538 0.75,1.26 L0.56,1.33 C0.518925725,1.34554376 0.473102762,1.3423063 0.434621971,1.32114187 C0.396141181,1.29997744 0.368868461,1.26301227 0.36,1.22 L0.36,1.22 L0.48,1.22 C0.48816521,1.21502239 0.495022392,1.20816521 0.5,1.2 Z" id="Path"></path>
            </g>
            <path d="M408.69,175.77 L407.74,176.41 C407.673522,176.450617 407.632123,176.522125 407.63,176.6 L407.63,177.96 C407.634853,177.989804 407.634853,178.020196 407.63,178.05 L406.91,179.71 C406.866663,179.81048 406.900121,179.927581 406.99,179.99 L407.49,180.34 L407.96,179.68 L408.01,180.51 L408.01,180.56 L407.86,181.67 C407.850987,181.737787 407.872606,181.806069 407.918989,181.856318 C407.965372,181.906567 408.03171,181.93357 408.1,181.93 C408.78,181.93 410.47,181.79 410.46,181.77 C410.45,181.75 410.2,180.62 410.16,180.43 L410.22,177.04 C410.21909,176.97158 410.190176,176.906524 410.14,176.86 L408.93,175.86 C408.874059,175.786215 408.780663,175.751191 408.69,175.77 Z" id="Path" fill="#FFFFFF"></path>
            <path d="M407.5,180.34 L407.3,180.2 C407.270793,180.16915 407.270793,180.12085 407.3,180.09 L408.76,177.53 C408.769538,177.508123 408.791134,177.493979 408.815,177.493979 C408.838866,177.493979 408.860462,177.508123 408.87,177.53 L408.77,178.15 L408.6,180.91 L408.42,179.96 L408.2,180.53 L408.15,179.65 L407.5,180.34 Z" id="Path" fill="#BFE6F6"></path>
            <path d="M407.65,178 L407.89,177.14 C407.89,177.14 407.89,177.08 407.84,177.14 L407.64,177.26 L407.65,178 Z" id="Path" fill="#BFE6F6"></path>
            <path d="M169,178.51 L169,178.99 L168.91,179.26 C168.889231,179.315206 168.9157,179.376967 168.97,179.4 L169.4,179.58 L169.49,179.58 L169.68,179.5 C169.718274,179.485378 169.745249,179.450695 169.75,179.41 L169.82,178.71 C169.824679,178.690274 169.824679,178.669726 169.82,178.65 L169.73,178.46 C169.710884,178.422522 169.672065,178.399231 169.63,178.4 L169.15,178.4 C169.115461,178.394267 169.08007,178.402708 169.051836,178.423413 C169.023602,178.444117 169.004914,178.475335 169,178.51 L169,178.51 Z" id="Path" fill="#19A5DE"></path>
            <path d="M170.23,186.36 L170.23,186.64 L170.23,186.93 L170.23,186.93 L170.23,186.93 L170.41,186.93 L170.59,186.93 C170.59,186.93 170.59,186.93 170.59,186.93 L170.59,186.93 C170.59,186.93 170.59,186.93 170.59,186.93 L170.59,186.93 L170.79,186.93 L170.98,186.93 L170.98,186.93 L171.53,186.84 L172.08,186.76 L172.08,186.76 L172.21,186.69 L172.35,186.62 C172.35,186.62 172.35,186.62 172.35,186.62 L172.35,186.53 C172.35,186.53 172.35,186.53 172.35,186.53 L171.6,186.53 L171.21,186.32 L170.82,186.11 L170.82,186.11 L170.43,186.31 L170.04,186.52 L170.04,186.52 C170.04,186.52 170.22,186.34 170.23,186.36 Z" id="Path" fill="#003A5D"></path>
            <polygon id="Path" fill="#FFFFFF" points="169.77 178.53 168.87 178.59 168.89 178.73 169.8 178.65"></polygon>
            <polygon id="Path" fill="#003A5D" points="169.46 177.25 169.81 178.58 168.78 178.68 168.58 177.82"></polygon>
            <polygon id="Path" fill="#003A5D" opacity="0.6" style="mix-blend-mode: multiply;" points="169.46 177.25 169.8 178.57 168.77 178.68 168.57 177.82"></polygon>
            <path d="M167.71,180.06 L168.11,179.67 L168.51,179.28 C168.56,179.28 168.58,179.12 168.6,179.02 C168.62,178.92 168.6,178.86 168.6,178.92 L169.33,180.63 L170.39,182.78 L171.06,186.01 L170.15,186.43 L169.15,183.18 L168.38,181.88 L167.94,181.03 L167.77,181.2 L167.6,181.38 C167.6,181.38 167.6,181.38 167.6,181.38 L167.6,180.26 C167.580271,180.21918 167.58153,180.171334 167.603379,180.131608 C167.625228,180.091883 167.664961,180.065197 167.71,180.06 Z" id="Path" fill="#003A5D"></path>
            <g id="Group" opacity="0.6" style="mix-blend-mode: multiply;" transform="translate(168.000000, 179.000000)" fill="#003A5D">
                <path d="M2.2,7.32 L1.26,4.13 L1.26,4.13 L0.5,2.84 L0.5,2.84 L0.13,2.13 L0.6,0.76 C0.617777778,0.746666667 0.642222222,0.746666667 0.66,0.76 L0.99,0.76 C1.01352758,0.767996688 1.03200331,0.786472419 1.04,0.81 L1.61,2.81 C1.62492951,2.82990602 1.62294994,2.85776074 1.60535534,2.87535534 C1.58776074,2.89294994 1.55990602,2.89492951 1.54,2.88 L1.05,2.7 C1.02558991,2.69125658 0.998325005,2.69918243 0.982406295,2.71964934 C0.966487585,2.74011625 0.965516971,2.76849322 0.98,2.79 L1.84,4.1 C1.84,4.1 1.84,4.1 1.84,4.1 C1.84,4.1 2.26,6.15 2.48,7.28 L2.61,8 L2.37,8 C2.37,8 2.32,8 2.32,8 L2.23,7.45 L2.23,7.45 L2.2,7.32 Z" id="Path"></path>
            </g>
            <path d="M169.15,173.34 L169.06,173.88 L168.06,173.08 L167.94,171.78 L169.15,171.27 L169.42,171.71 C169.43393,171.745344 169.43393,171.784656 169.42,171.82 L169.42,171.82 C169.405709,171.844752 169.405709,171.875248 169.42,171.9 L169.62,172.15 C169.633438,172.163166 169.64101,172.181187 169.64101,172.2 C169.64101,172.218813 169.633438,172.236834 169.62,172.25 L169.48,172.35 L169.48,172.5 L169.34,172.56 L169.47,172.56 C169.47,172.56 169.47,172.56 169.47,172.56 L169.47,172.91 L169.53,173 C169.559531,173.037403 169.56623,173.087965 169.547457,173.131767 C169.528685,173.17557 169.487451,173.20559 169.44,173.21 L169.14,173.27 C169.135538,173.293798 169.139054,173.318403 169.15,173.34 L169.15,173.34 Z" id="Path" fill="#EFCCAF"></path>
            <path d="M164.22,185.6 L164.07,185.85 L163.93,186.1 C163.93,186.1 163.93,186.1 163.93,186.1 L163.93,186.1 L164.09,186.19 L164.25,186.28 L164.25,186.28 L164.25,186.28 L164.25,186.28 C164.25,186.28 164.25,186.28 164.25,186.28 L164.25,186.28 L164.38,186.42 L164.51,186.55 L164.51,186.55 L164.74,186.71 L164.96,186.87 L165.01,186.87 L166,186.87 L166,186.87 L166,186.87 C166.010718,186.851436 166.010718,186.828564 166,186.81 C166,186.81 166,186.81 166,186.81 L165.74,186.72 L165.49,186.64 L165.49,186.64 L165.34,186.28 L165.19,185.91 C165.194723,185.893668 165.194723,185.876332 165.19,185.86 L165.19,185.86 L164.77,185.74 L164.35,185.63 L164.35,185.63 L164.22,185.6 Z" id="Path" fill="#003A5D"></path>
            <path d="M168.62,179.01 L167.84,178.77 L167.05,178.53 L167.05,178.53 L166.93,178.53 L166.8,178.53 L166.71,178.53 L166.64,178.53 L166.57,178.6 L166.5,178.67 L166.5,178.67 C166.5,178.67 166.5,178.67 166.5,178.67 L166.43,179.01 L166.35,179.35 L166.35,179.35 C166.345277,179.366332 166.345277,179.383668 166.35,179.4 L166.46,179.75 L166.58,180.1 L166.58,180.1 L166.39,181.31 L166.19,182.52 L166.19,182.57 L166.19,182.57 L165.26,183.96 L164.33,185.35 C164.315524,185.392124 164.315524,185.437876 164.33,185.48 C164.350743,185.519425 164.386983,185.548418 164.43,185.56 L164.8,185.63 L165.17,185.71 L165.26,185.71 C165.287031,185.699236 165.311051,185.682079 165.33,185.66 L166.44,184.28 L167.54,182.91 L167.54,182.91 L168.17,181.02 L168.81,179.13 C168.824476,179.087876 168.824476,179.042124 168.81,179 C168.752384,178.957602 168.672847,178.961788 168.62,179.01 Z" id="Path" fill="#003A5D"></path>
            <path d="M169,171.44 L169.22,171.34 C169.262934,171.315215 169.289559,171.269572 169.29,171.22 L169.29,171.09 C169.29,171.023726 169.236274,170.97 169.17,170.97 L169.05,170.97 C169.027623,170.979446 169.002377,170.979446 168.98,170.97 L168.91,170.97 C168.872393,170.950434 168.827607,170.950434 168.79,170.97 L168.17,171.16 L167.86,171.16 C167.819938,171.165693 167.783876,171.187331 167.76,171.22 L167.49,171.63 C167.49,171.63 167.49,171.63 167.49,171.69 L167.49,172.27 C167.49097,172.286653 167.49097,172.303347 167.49,172.32 L167.66,172.71 C167.653845,172.726098 167.653845,172.743902 167.66,172.76 L168.12,173.06 C168.15084,173.080649 168.1895,173.085865 168.224709,173.074128 C168.259919,173.062392 168.287717,173.035023 168.3,173 L168.3,172.94 C168.304856,172.916919 168.304856,172.893081 168.3,172.87 L168.3,172.63 L168.3,172.58 L168.36,172.28 C168.375958,172.225376 168.423393,172.185846 168.48,172.18 L168.53,172.18 C168.57407,172.18156 168.614829,172.203792 168.64,172.24 L168.74,172.41 L168.84,172.41 L168.84,172.12 C168.831591,172.093996 168.831591,172.066004 168.84,172.04 L168.96,171.87 C168.999377,171.827753 168.999377,171.762247 168.96,171.72 L168.96,171.72 C168.88268,171.708954 168.828954,171.63732 168.84,171.56 C168.851046,171.48268 168.92268,171.428954 169,171.44 Z" id="Path" fill="#003A5D"></path>
            <path d="M169.19,170.97 L169.07,170.97 C169.047623,170.979446 169.022377,170.979446 169,170.97 L168.93,170.97 C168.892393,170.950434 168.847607,170.950434 168.81,170.97 L168.19,171.16 L167.88,171.16 C167.839938,171.165693 167.803876,171.187331 167.78,171.22 L167.51,171.63 C167.51,171.63 167.51,171.63 167.51,171.69 L167.51,172.27 C167.51097,172.286653 167.51097,172.303347 167.51,172.32 L167.51,172.32 L167.51,171.96 C167.51,171.96 167.51,171.91 167.51,171.9 L167.78,171.49 C167.803876,171.457331 167.839938,171.435693 167.88,171.43 L168.19,171.43 L168.81,171.24 C168.847607,171.220434 168.892393,171.220434 168.93,171.24 L169,171.29 C169.022377,171.299446 169.047623,171.299446 169.07,171.29 L169.19,171.29 C169.219293,171.280788 169.250707,171.280788 169.28,171.29 C169.290041,171.264278 169.290041,171.235722 169.28,171.21 L169.28,171.08 C169.277275,171.0276 169.240823,170.983047 169.19,170.97 L169.19,170.97 Z" id="Path" fill="#33617E"></path>
            <path d="M168.08,172.91 L169.08,173.78 C169.116995,173.812499 169.135682,173.861086 169.13,173.91 L169.06,174.53 L168,173.19 L168.08,172.91 Z" id="Path" fill="#FFFFFF"></path>
            <path d="M167.92,173.3 L168.05,172.94 L168.76,173.53 L169.27,174.67 L169.34,175.89 L169.18,176.26 L169.18,176.53 C169.175071,176.563151 169.175071,176.596849 169.18,176.63 L169.47,176.98 L169.71,179.34 C169.723442,179.482571 169.671152,179.623492 169.567964,179.722786 C169.464776,179.82208 169.321948,179.868914 169.18,179.85 L167.88,179.68 L166.77,179.68 L166.97,177.55 L166.81,177.24 L166.96,174.55 L167.48,173.55 L167.92,173.3 Z" id="Path" fill="#194D6D"></path>
            <polygon id="Path" fill="#979B97" points="166.13 178.05 167.22 175.99 167.22 175.58 166.13 177.64"></polygon>
            <polygon id="Path" fill="#979B97" points="166.57 177.28 167.18 178.18 167.36 179.57 167.47 179.57 167.58 180.54 167.21 181.01 166.75 181.01 165.51 179.45 166.13 177.28"></polygon>
            <polygon id="Path" fill="#EFCCAF" opacity="0.6" style="mix-blend-mode: multiply;" points="169.46 172.01 169.63 172.23 169.52 172.29"></polygon>
            <path d="M167.49,179.84 L167.49,180.29 L167.4,180.56 C167.379595,180.620667 167.410397,180.68667 167.47,180.71 L167.89,180.88 C167.917156,180.898475 167.952844,180.898475 167.98,180.88 L168.17,180.8 C168.209826,180.787543 168.23773,180.751667 168.24,180.71 L168.31,180.01 C168.319006,179.991014 168.319006,179.968986 168.31,179.95 L168.22,179.77 C168.20191,179.73019 168.163598,179.703371 168.12,179.7 L167.64,179.7 C167.599101,179.680205 167.550241,179.687594 167.517024,179.718597 C167.483807,179.749599 167.47307,179.797835 167.49,179.84 L167.49,179.84 Z" id="Path" fill="#EFCCAF"></path>
            <path d="M167.47,179.58 L167.47,179.76 C167.47,179.775913 167.476321,179.791174 167.487574,179.802426 C167.498826,179.813679 167.514087,179.82 167.53,179.82 L168.2,179.82 C168.235069,179.820359 168.264992,179.794712 168.27,179.76 L168.27,179.54 L167.47,179.58 Z" id="Path" fill="#FFFFFF"></path>
            <path d="M168.19,179.82 L168.27,179.98 C168.274679,179.999726 168.274679,180.020274 168.27,180.04 L168.2,180.74 C168.195249,180.780695 168.168274,180.815378 168.13,180.83 L168,180.91 L167.91,180.91 L167.77,180.86 L168.03,179.86 L168.19,179.82 Z" id="Path" fill="#EFCCAF" opacity="0.6" style="mix-blend-mode: multiply;"></path>
            <path d="M168.07,179.73 L168,179.73 L168,179.55 L168.27,179.55 L168.27,179.76 C168.270359,179.795069 168.244712,179.824992 168.21,179.83 L168.21,179.83 L168.21,179.83 C168.208238,179.796558 168.191339,179.765741 168.164089,179.746276 C168.136838,179.726812 168.102205,179.720821 168.07,179.73 L168.07,179.73 Z" id="Path" fill="#FFFFFF"></path>
            <path d="M168.17,175.08 L168.17,178.69 L168.27,179.54 L168,179.54 L167.93,178.64 L168.15,175.07 C168.15,175.07 168.17,175.06 168.17,175.08 Z" id="Path" fill="#003A5D" opacity="0.6" style="mix-blend-mode: multiply;"></path>
            <polygon id="Path" fill="#979B97" points="168.17 178.68 169.21 176.62 169.21 176.21 168.17 178.27"></polygon>
            <polygon id="Path" fill="#003A5D" opacity="0.6" style="mix-blend-mode: multiply;" points="168.17 178.27 168.39 177.84 168.39 178.25 168.17 178.68"></polygon>
            <path d="M169.22,173.26 L169.53,173.21 L169.59,173.21 L169.12,173.21 C169.070747,173.206728 169.024444,173.185357 168.99,173.15 L168.69,172.79 L169.09,173.71 L169.15,173.4 C169.120436,173.376459 169.111377,173.335441 169.128278,173.301639 C169.145179,173.267837 169.183429,173.250473 169.22,173.26 Z" id="Path" fill="#EFCCAF" opacity="0.6" style="mix-blend-mode: multiply;"></path>
            <polygon id="Path" fill="#EFCCAF" opacity="0.6" style="mix-blend-mode: multiply;" points="168.67 172.47 168.54 172.17 168.47 172.17 168.43 172.31"></polygon>
        </g>
    </g>
</svg>