<?xml version="1.0" encoding="UTF-8"?>
<svg width="440px" height="330px" viewBox="0 0 440 330" version="1.1" xmlns="http://www.w3.org/2000/svg" xmlns:xlink="http://www.w3.org/1999/xlink">
    <title>Graphic elements / Icons / Rich icons / Marketplace / Challenges-Provide-Evidence-Against-Lawsuit</title>
    <defs>
        <linearGradient x1="58.5161621%" y1="108.624316%" x2="43.7841072%" y2="8.45156438%" id="linearGradient-1">
            <stop stop-color="#FFFFFF" offset="0%"></stop>
            <stop stop-color="#3FB0E2" offset="100%"></stop>
        </linearGradient>
        <linearGradient x1="46.2345145%" y1="70.5209155%" x2="39.7815967%" y2="108.602999%" id="linearGradient-2">
            <stop stop-color="#FFFFFF" offset="0%"></stop>
            <stop stop-color="#EDF0F1" offset="22%"></stop>
            <stop stop-color="#BDC8CE" offset="67%"></stop>
            <stop stop-color="#9DADB7" offset="94%"></stop>
        </linearGradient>
        <linearGradient x1="0.102590408%" y1="49.9980036%" x2="100.10259%" y2="49.9980036%" id="linearGradient-3">
            <stop stop-color="#FFFFFF" offset="0%"></stop>
            <stop stop-color="#EDEDED" offset="89%"></stop>
            <stop stop-color="#EAEBEA" offset="100%"></stop>
        </linearGradient>
        <linearGradient x1="48.6880171%" y1="57.659693%" x2="30.7094887%" y2="-3.61174291%" id="linearGradient-4">
            <stop stop-color="#FFFFFF" offset="0%"></stop>
            <stop stop-color="#EDEDED" offset="89%"></stop>
            <stop stop-color="#EAEBEA" offset="100%"></stop>
        </linearGradient>
        <linearGradient x1="57.4152504%" y1="59.4854917%" x2="67.8327821%" y2="-0.792637382%" id="linearGradient-5">
            <stop stop-color="#FFFFFF" offset="0%"></stop>
            <stop stop-color="#EDEDED" offset="89%"></stop>
            <stop stop-color="#EAEBEA" offset="100%"></stop>
        </linearGradient>
        <linearGradient x1="0.0265336459%" y1="50.0225632%" x2="100%" y2="50.0225632%" id="linearGradient-6">
            <stop stop-color="#FFFFFF" offset="0%"></stop>
            <stop stop-color="#688897" offset="100%"></stop>
        </linearGradient>
        <linearGradient x1="41.0342889%" y1="47.4165273%" x2="17.7065767%" y2="40.6958849%" id="linearGradient-7">
            <stop stop-color="#FFFFFF" offset="0%"></stop>
            <stop stop-color="#688897" offset="100%"></stop>
        </linearGradient>
        <linearGradient x1="34.6383385%" y1="56.2599689%" x2="70.3509191%" y2="41.3868462%" id="linearGradient-8">
            <stop stop-color="#FFFFFF" offset="0%"></stop>
            <stop stop-color="#688897" offset="100%"></stop>
        </linearGradient>
        <linearGradient x1="51.711071%" y1="83.1345484%" x2="47.8752521%" y2="-31.5465023%" id="linearGradient-9">
            <stop stop-color="#FFFFFF" stop-opacity="0" offset="0%"></stop>
            <stop stop-color="#FBFBFC" stop-opacity="0.04" offset="11%"></stop>
            <stop stop-color="#EFF2F3" stop-opacity="0.16" offset="28%"></stop>
            <stop stop-color="#DCE2E6" stop-opacity="0.35" offset="48%"></stop>
            <stop stop-color="#C2CCD2" stop-opacity="0.62" offset="71%"></stop>
            <stop stop-color="#A1B1BA" stop-opacity="0.96" offset="97%"></stop>
            <stop stop-color="#9DADB7" offset="100%"></stop>
        </linearGradient>
        <linearGradient x1="31.1721735%" y1="112.068869%" x2="66.3059522%" y2="-8.58583008%" id="linearGradient-10">
            <stop stop-color="#FFFFFF" offset="0%"></stop>
            <stop stop-color="#3FB0E2" offset="100%"></stop>
        </linearGradient>
        <linearGradient x1="-0.0274376854%" y1="50.0011521%" x2="99.9671016%" y2="50.0011521%" id="linearGradient-11">
            <stop stop-color="#FFFFFF" offset="0%"></stop>
            <stop stop-color="#688897" offset="100%"></stop>
        </linearGradient>
        <linearGradient x1="-0.788678038%" y1="49.8867871%" x2="100.007383%" y2="49.8867871%" id="linearGradient-12">
            <stop stop-color="#FFFFFF" offset="0%"></stop>
            <stop stop-color="#3FB0E2" offset="100%"></stop>
        </linearGradient>
        <linearGradient x1="15.0723044%" y1="54.8845076%" x2="95.5693978%" y2="32.9115072%" id="linearGradient-13">
            <stop stop-color="#FFFFFF" offset="0%"></stop>
            <stop stop-color="#3FB0E2" offset="100%"></stop>
        </linearGradient>
        <linearGradient x1="53.6599241%" y1="23.2442369%" x2="44.6728995%" y2="68.9869983%" id="linearGradient-14">
            <stop stop-color="#FFFFFF" offset="0%"></stop>
            <stop stop-color="#688897" offset="100%"></stop>
        </linearGradient>
        <linearGradient x1="0.0263231796%" y1="50.0406411%" x2="100%" y2="50.0406411%" id="linearGradient-15">
            <stop stop-color="#FFFFFF" offset="0%"></stop>
            <stop stop-color="#688897" offset="100%"></stop>
        </linearGradient>
        <linearGradient x1="0%" y1="49.9793644%" x2="100%" y2="49.9793644%" id="linearGradient-16">
            <stop stop-color="#FFFFFF" offset="0%"></stop>
            <stop stop-color="#688897" offset="100%"></stop>
        </linearGradient>
        <linearGradient x1="49.244038%" y1="99.338956%" x2="55.7784791%" y2="-3.23683611%" id="linearGradient-17">
            <stop stop-color="#FFFFFF" offset="0%"></stop>
            <stop stop-color="#688897" offset="100%"></stop>
        </linearGradient>
        <linearGradient x1="56.9414867%" y1="79.1063098%" x2="34.3075179%" y2="-19.5433342%" id="linearGradient-18">
            <stop stop-color="#FFFFFF" offset="0%"></stop>
            <stop stop-color="#3FB0E2" offset="100%"></stop>
        </linearGradient>
        <linearGradient x1="0%" y1="50.0033754%" x2="99.9425837%" y2="50.0033754%" id="linearGradient-19">
            <stop stop-color="#FFFFFF" offset="0%"></stop>
            <stop stop-color="#3FB0E2" offset="100%"></stop>
        </linearGradient>
        <linearGradient x1="0.0194553228%" y1="50.024115%" x2="100.019815%" y2="50.024115%" id="linearGradient-20">
            <stop stop-color="#FFFFFF" offset="0%"></stop>
            <stop stop-color="#3FB0E2" offset="100%"></stop>
        </linearGradient>
        <linearGradient x1="0.00677937484%" y1="49.9884697%" x2="99.9957789%" y2="49.9884697%" id="linearGradient-21">
            <stop stop-color="#FFFFFF" offset="0%"></stop>
            <stop stop-color="#EDF0F1" offset="22%"></stop>
            <stop stop-color="#BDC8CE" offset="67%"></stop>
            <stop stop-color="#9DADB7" offset="94%"></stop>
        </linearGradient>
        <linearGradient x1="0.0513534967%" y1="50%" x2="100.036612%" y2="50%" id="linearGradient-22">
            <stop stop-color="#FFFFFF" stop-opacity="0" offset="0%"></stop>
            <stop stop-color="#FBFBFC" stop-opacity="0.04" offset="11%"></stop>
            <stop stop-color="#EFF2F3" stop-opacity="0.16" offset="28%"></stop>
            <stop stop-color="#DCE2E6" stop-opacity="0.35" offset="48%"></stop>
            <stop stop-color="#C2CCD2" stop-opacity="0.62" offset="71%"></stop>
            <stop stop-color="#A1B1BA" stop-opacity="0.96" offset="97%"></stop>
            <stop stop-color="#9DADB7" offset="100%"></stop>
        </linearGradient>
        <linearGradient x1="6.7007535%" y1="48.0055659%" x2="100.968784%" y2="61.611008%" id="linearGradient-23">
            <stop stop-color="#FFFFFF" offset="0%"></stop>
            <stop stop-color="#F3F4F3" offset="100%"></stop>
        </linearGradient>
        <linearGradient x1="0.128700129%" y1="50.0107494%" x2="99.97426%" y2="50.0107494%" id="linearGradient-24">
            <stop stop-color="#FFFFFF" offset="0%"></stop>
            <stop stop-color="#EDEDED" offset="21%"></stop>
            <stop stop-color="#BDBFBD" offset="62%"></stop>
            <stop stop-color="#8B8F8B" offset="100%"></stop>
        </linearGradient>
        <linearGradient x1="34.3742002%" y1="61.3459253%" x2="60.3532122%" y2="31.7053741%" id="linearGradient-25">
            <stop stop-color="#FFFFFF" offset="0%"></stop>
            <stop stop-color="#EDEDED" offset="89%"></stop>
            <stop stop-color="#EAEBEA" offset="100%"></stop>
        </linearGradient>
        <linearGradient x1="0%" y1="49.9973844%" x2="100%" y2="49.9973844%" id="linearGradient-26">
            <stop stop-color="#FFFFFF" offset="0%"></stop>
            <stop stop-color="#3FB0E2" offset="100%"></stop>
        </linearGradient>
        <linearGradient x1="60.0022541%" y1="113.793735%" x2="45.9543669%" y2="11.6871222%" id="linearGradient-27">
            <stop stop-color="#FFFFFF" stop-opacity="0" offset="0%"></stop>
            <stop stop-color="#FBFBFC" stop-opacity="0.04" offset="11%"></stop>
            <stop stop-color="#EFF2F3" stop-opacity="0.16" offset="28%"></stop>
            <stop stop-color="#DCE2E6" stop-opacity="0.35" offset="48%"></stop>
            <stop stop-color="#C2CCD2" stop-opacity="0.62" offset="71%"></stop>
            <stop stop-color="#A1B1BA" stop-opacity="0.96" offset="97%"></stop>
            <stop stop-color="#9DADB7" offset="100%"></stop>
        </linearGradient>
        <linearGradient x1="50%" y1="87.5717267%" x2="50%" y2="26.4997392%" id="linearGradient-28">
            <stop stop-color="#FFFFFF" offset="0%"></stop>
            <stop stop-color="#EDF0F1" offset="22%"></stop>
            <stop stop-color="#BDC8CE" offset="67%"></stop>
            <stop stop-color="#9DADB7" offset="94%"></stop>
        </linearGradient>
        <linearGradient x1="74.6048709%" y1="91.9981814%" x2="36.9509712%" y2="-5.95589907%" id="linearGradient-29">
            <stop stop-color="#FFFFFF" offset="0%"></stop>
            <stop stop-color="#3FB0E2" offset="100%"></stop>
        </linearGradient>
        <linearGradient x1="0%" y1="50.0065351%" x2="100%" y2="50.0065351%" id="linearGradient-30">
            <stop stop-color="#FFFFFF" offset="0%"></stop>
            <stop stop-color="#EDF0F1" offset="22%"></stop>
            <stop stop-color="#BDC8CE" offset="67%"></stop>
            <stop stop-color="#9DADB7" offset="94%"></stop>
        </linearGradient>
    </defs>
    <g id="Graphic-elements-/-Icons-/-Rich-icons-/-Marketplace-/-Challenges-Provide-Evidence-Against-Lawsuit" stroke="none" stroke-width="1" fill="none" fill-rule="evenodd">
        <g id="provide-evidence-against-lawsuit" transform="translate(97.000000, 0.000000)">
            <polyline id="Path" stroke="#023852" stroke-width="1.34" points="205 37 212.681818 23 220 37"></polyline>
            <path d="M203,37 C203,42.5228475 207.253295,47 212.5,47 C217.746705,47 222,42.5228475 222,37 L203,37 Z" id="Path" stroke="#023852" stroke-width="1.34"></path>
            <polyline id="Path" stroke="#023852" stroke-width="1.34" points="151 37 158.681818 23 166 37"></polyline>
            <path d="M150,37 C150,40.5726558 151.81069,43.8739261 154.75,45.660254 C157.68931,47.446582 161.31069,47.446582 164.25,45.660254 C167.18931,43.8739261 169,40.5726558 169,37 L150,37 Z" id="Path" stroke="#023852" stroke-width="1.34"></path>
            <path d="M182.702187,23.999898 L192.284112,23.999898 C192.783643,24.0065345 193.218693,23.6885544 193.323116,23.2404851 L194.975172,16.1721029 C195.044641,15.8841496 194.96655,15.5828742 194.763222,15.3543986 C194.559893,15.125923 194.253706,14.995394 193.932187,15.0001243 L181.050131,15.0001243 C180.733123,15.0003525 180.433165,15.1318062 180.233815,15.3578668 C180.034465,15.5839273 179.957026,15.880438 180.023069,16.1648009 L181.675125,23.233183 C181.77538,23.6800938 182.204696,24.0005843 182.702187,23.999898 L182.702187,23.999898 Z" id="Path" stroke="#023852" stroke-width="1.34"></path>
            <path d="M180,21.4871243 L161.812782,21.4871243 C161.101057,22.6797169 159.658546,23.2559186 158.296322,22.8917512 C156.934098,22.5275839 155.992128,21.3139321 156,19.9331898 C156.007971,18.5524474 156.963806,17.3492035 158.330123,17 L178.97455,17" id="Path" stroke="#023852" stroke-width="1.34"></path>
            <path d="M192,21.4871243 L210.187218,21.4871243 C210.898943,22.6797169 212.341454,23.2559186 213.703678,22.8917512 C215.065902,22.5275839 216.007872,21.3139321 216,19.9331898 C215.992029,18.5524474 215.036194,17.3492035 213.669877,17 L193.02158,17" id="Path" stroke="#023852" stroke-width="1.34"></path>
            <line x1="189" y1="24" x2="192" y2="59" id="Path" stroke="#023852" stroke-width="1.34"></line>
            <line x1="180" y1="59" x2="183" y2="24" id="Path" stroke="#023852" stroke-width="1.34"></line>
            <path d="M175.945448,59 L197.050599,59 C198.893694,59 200.661302,59.7022458 201.964567,60.9522513 C203.267833,62.2022568 204,63.8976281 204,65.6654028 L204,67 L169,67 L169,65.6654028 C169,61.9856827 172.108944,59.0020931 175.945448,59 Z" id="Path" stroke="#023852" stroke-width="1.34"></path>
            <rect id="Rectangle" stroke="#023852" stroke-width="1.34" x="133" y="0" width="113" height="226" rx="8.19"></rect>
            <line x1="202" y1="91" x2="152" y2="91" id="Path" stroke="#023852" stroke-width="1.34"></line>
            <line x1="179" y1="95" x2="152" y2="95" id="Path" stroke="#023852" stroke-width="1.34"></line>
            <line x1="202" y1="120" x2="152" y2="120" id="Path" stroke="#023852" stroke-width="1.34"></line>
            <line x1="179" y1="124" x2="152" y2="124" id="Path" stroke="#023852" stroke-width="1.34"></line>
            <line x1="202" y1="146" x2="152" y2="146" id="Path" stroke="#023852" stroke-width="1.34"></line>
            <line x1="179" y1="151" x2="152" y2="151" id="Path" stroke="#023852" stroke-width="1.34"></line>
            <polygon id="Path" fill="#023852" fill-rule="nonzero" points="225.822469 88 222.485437 88 222.485437 89.1733703 224.994452 89.1733703 221 93.1678225 221.832178 94 225.822469 90.0055479 225.822469 92.5104022 227 92.5104022 227 89.1733703 227 88"></polygon>
            <polygon id="Path" fill="#023852" fill-rule="nonzero" points="226.367756 120.221643 224.575342 118 223.943098 118.782269 225.29294 120.448501 221 120.448501 221 121.551499 225.29294 121.551499 223.943098 123.217731 224.575342 124 226.367756 121.782269 227 121"></polygon>
            <polygon id="Path" fill="#023852" fill-rule="nonzero" points="226.367756 147.217731 224.575342 145 223.943098 145.782269 225.29294 147.448501 221 147.448501 221 148.551499 225.29294 148.551499 223.943098 150.217731 224.575342 151 226.367756 148.778357 227 148"></polygon>
            <rect id="Rectangle" fill="#D8DEE2" fill-rule="nonzero" style="mix-blend-mode: multiply;" x="0" y="325" width="156" height="5" rx="2.5"></rect>
            <path d="M122.626137,60.5337918 L122.021211,63.0635 C121.976186,63.2496885 122.003487,63.4472866 122.096979,63.6118797 C122.190471,63.7764728 122.342308,63.8942514 122.518363,63.9387421 L122.678286,63.9793652 C122.958067,64.0523883 123.250505,63.9275373 123.404894,63.6691528 L124.889398,61.1948397 C125.0209,60.982009 125.036203,60.7110372 124.929597,60.4830333 C124.822992,60.2550293 124.610491,60.1042431 124.371386,60.0869383 L123.328409,60.0019992 C123.004267,59.9763496 122.709012,60.1999303 122.626137,60.5337918 Z" id="Path" fill="url(#linearGradient-1)" fill-rule="nonzero" style="mix-blend-mode: multiply;"></path>
            <polygon id="Path" fill="url(#linearGradient-2)" fill-rule="nonzero" style="mix-blend-mode: multiply;" points="147 177.699092 137 141 139.134915 179"></polygon>
            <path d="M37.1584723,42.2541351 L36.0171658,31.2472237 C35.8794803,29.9422725 36.5802836,28.695436 37.7519517,28.1607737 L39.3345633,27.4329475 C40.1693124,27.0465617 40.7462806,26.2423073 40.8563052,25.3117429 L40.8563052,25.3117429 C41.1942863,22.5410975 43.4545153,20.4351884 46.182402,20.3492917 L58.4286204,20.0028931 C60.7636251,19.9268022 62.8942713,21.3576843 63.7547172,23.5797501 L66.6574399,31.0759705 C66.9594914,31.8280487 67.0643998,32.6477707 66.9617883,33.454055 L65.6987425,43.4373391 L47.7764267,52 L42.3590254,50.5482398 L37.1584723,42.2541351 Z" id="Path" fill="#023852" fill-rule="nonzero"></path>
            <path d="M46.7025316,152 C46.880538,151.4815 38,70.1231596 38,70.1231596 L64.4517405,62 L72.6439873,118.385866 L73,149.588017 L46.7025316,152 Z" id="Path" fill="#FFFFFF" fill-rule="nonzero"></path>
            <path d="M46.454298,153 C46.63291,152.477921 38,58.3954461 38,58.3954461 L42.4375142,55 L64.7917895,61.1876011 L70.7137673,93.9470818 L73,150.74926 L46.454298,153 Z" id="Path" fill="#FFFFFF" fill-rule="nonzero"></path>
            <path d="M54,153.389608 L53.2613491,127.177763 C53.2411243,126.409643 53.1470683,125.645327 52.9805078,124.895598 C51.1107976,116.493967 39.3962555,63.856444 39,64 C40.7619903,83.9177202 46.7442934,153.54901 46.5981021,154 L54,153.389608 Z" id="Path" fill="url(#linearGradient-3)" fill-rule="nonzero" style="mix-blend-mode: multiply;"></path>
            <path d="M44.9561129,71.0004284 L43.1753245,71.0490962 C42.7796598,71.0576055 42.4191441,71.2836407 42.2319088,71.6405964 L41.1349138,73.7183345 C40.9846318,73.9991829 40.9585981,74.3323541 41.0633575,74.634091 C41.1681168,74.935828 41.3937053,75.1774316 41.6834113,75.2981642 L45.4680439,76.9079432 C45.8535528,77.0783907 46.3002756,77.0085734 46.6185542,76.7281326 C46.9368328,76.4476917 47.0708133,76.0058413 46.9636137,75.5901706 L46.0494512,71.8464983 C45.923093,71.3374203 45.4689675,70.9859994 44.9561129,71.0004284 Z" id="Path" fill="url(#linearGradient-4)" fill-rule="nonzero" style="mix-blend-mode: multiply;"></path>
            <path d="M61.4978968,69.1808536 L63.3419881,69.0054825 C63.7506819,68.9665066 64.150074,69.1373892 64.3876069,69.4528577 L65.7830327,71.2853061 C65.9734711,71.5327219 66.0429106,71.8447884 65.9739588,72.1433435 C65.905007,72.4418987 65.7041948,72.6986643 65.4218189,72.8493295 L61.7222296,74.849991 C61.34494,75.0604455 60.8728774,75.0486584 60.5079719,74.8196718 C60.1430664,74.5906851 59.9499448,74.1850536 60.011217,73.7762907 L60.4712893,70.1185518 C60.5368941,69.6177494 60.9641235,69.2275202 61.4978968,69.1808536 L61.4978968,69.1808536 Z" id="Path" fill="url(#linearGradient-5)" fill-rule="nonzero" style="mix-blend-mode: multiply;"></path>
            <path d="M67.7267145,45.3960739 L66.6963314,41.5742808 C66.6407713,41.3685343 66.596963,41.1597547 66.5651216,40.9489671 L65.4729927,33.724846 C65.4359667,33.4755353 65.2909711,33.2555958 65.0771215,33.124361 C64.863272,32.9931261 64.6026,32.9641162 64.3654274,33.0451572 L60.6606794,34.3035525 C60.3831457,34.3997204 60.0870589,34.4289874 59.7962382,34.3889991 L50.7157463,33.1344877 C50.393492,33.0920761 50.0669311,33.1694082 49.7972776,33.3519881 L45.8185325,36.0474398 C45.232569,36.4457894 44.885742,37.1146954 44.8962046,37.8262825 L45.0428509,47.3807652 C45.049114,47.7716867 44.8924626,48.147391 44.6108928,48.4167506 C44.3293229,48.6861101 43.9485576,48.8245175 43.5609517,48.7984019 L43.3950098,48.7984019 C42.7610541,48.7588035 42.2356081,48.2892701 42.1215027,47.6604086 L41.1644428,42.5219612 C41.0465033,41.8875703 40.4855102,41.4352287 39.8446263,41.4577627 L36.7959274,41.5665129 L36.3752841,42.1257997 C36.0748268,42.5248077 35.946839,43.0288511 36.0202457,43.5240167 L36.7110269,48.1420167 C36.767841,48.5299609 36.9354306,48.8929337 37.193416,49.1867955 L39.3275052,51.5715322 C39.806295,52.1006973 40.5823243,52.232204 41.206893,51.890015 L41.9787155,51.4200587 L47.3004317,73.1972882 C47.3890968,73.5477825 47.6473943,73.8296481 47.9873538,73.9468879 L53.9496827,75.9859543 C54.2611121,76.0917237 54.5447522,76.2669857 54.7793919,76.4986339 L58.2525932,79.8970779 C58.3492771,79.9930445 58.4918816,80.025102 58.6199492,79.9796595 C58.7480168,79.934217 58.839112,79.8192354 58.8546147,79.6834614 L60.888367,64.1088778 L61.5174024,64.1088778 C62.4750541,64.0954305 63.3184848,63.4712717 63.6167596,62.5553034 L67.7228554,49.5751891 C68.091068,48.2069709 68.0923996,46.7649786 67.7267145,45.3960739 Z" id="Path" fill="#0099DA" fill-rule="nonzero"></path>
            <path d="M43.6128463,306 L40.6871957,309.452166 C40.1647307,310.073866 39.9233973,310.887236 40.0214105,311.696074 L40.7823079,317.936823 C40.8696759,318.64672 41.1896945,319.306864 41.6915803,319.8125 L44.8493046,323 L49,308.968863 L43.6128463,306 Z" id="Path" fill="#023852" fill-rule="nonzero"></path>
            <path d="M43.6128463,306 L40.6871957,309.452166 C40.1647307,310.073866 39.9233973,310.887236 40.0214105,311.696074 L40.7823079,317.936823 C40.8696759,318.64672 41.1896945,319.306864 41.6915803,319.8125 L44.8493046,323 L49,308.968863 L43.6128463,306 Z" id="Path" fill="#023852" fill-rule="nonzero"></path>
            <path d="M43.6128463,306 L40.6871957,309.452166 C40.1647307,310.073866 39.9233973,310.887236 40.0214105,311.696074 L40.7823079,317.936823 C40.8696759,318.64672 41.1896945,319.306864 41.6915803,319.8125 L44.8493046,323 L49,308.968863 L43.6128463,306 Z" id="Path" fill="#023852" fill-rule="nonzero"></path>
            <path d="M43.6128463,306 L40.6871957,309.452166 C40.1647307,310.073866 39.9233973,310.887236 40.0214105,311.696074 L40.7823079,317.936823 C40.8696759,318.64672 41.1896945,319.306864 41.6915803,319.8125 L44.8493046,323 L49,308.968863 L43.6128463,306 Z" id="Path" fill="url(#linearGradient-6)" fill-rule="nonzero" style="mix-blend-mode: multiply;"></path>
            <path d="M82.6129318,149 L72.7065249,149.700645 L47.1056983,151.883871 L22,177.8 L27.507824,231.219355 C27.6152938,232.251613 27.7598662,233.292903 27.9415412,234.343226 L41.7821081,305.673548 C41.9012364,306.291966 42.1959243,306.862166 42.6303513,307.314839 L47.0749926,311.96 L53.8340714,312.180645 L63.2031296,317 L66.170062,308.209032 C66.4928586,307.249219 66.3044451,306.189483 65.6710954,305.402581 L60.2285208,298.674839 C60.0515428,298.469494 60.0515428,298.164054 60.2285208,297.95871 L66.4041925,291.037419 C67.2978961,290.037712 67.9286966,288.827896 68.2388544,287.51871 L80.4098022,236.08129 L84.5051668,227.348387 C85.273686,225.704004 85.7293646,223.928757 85.8485385,222.114839 L87,204.196129 L82.6129318,149 Z M57.0927074,248.015484 L55.5574255,250.814194 L53.1623856,229.910968 L52.7478595,206.781935 C52.7319425,205.933985 52.8485163,205.088796 53.0932979,204.277419 L54.2447594,200.445161 L58.3132566,238.899355 C58.3625167,239.356917 58.3791916,239.817452 58.3631532,240.277419 L58.2480071,243.64129 C58.2047779,245.170029 57.8092373,246.667624 57.0927074,248.015484 L57.0927074,248.015484 Z" id="Shape" fill="#023852" fill-rule="nonzero"></path>
            <path d="M22,178.758485 L27.2266541,229 L37.3929937,209.144462 C38.3395872,207.29828 39.9711708,205.895971 41.9385757,205.237639 L53.7655067,201.288724 C54.0190082,201.204917 54.2150368,201.001722 54.2897026,200.745366 L61.609314,176.213885 C61.9415441,175.098148 62.0635045,173.930375 61.9689813,172.770064 L60.2701274,152 L47.0504423,153.14794 L22,178.758485 Z" id="Path" fill="#023852" fill-rule="nonzero" style="mix-blend-mode: multiply;"></path>
            <polygon id="Path" fill="#023852" fill-rule="nonzero" points="47.1807018 152.081712 53.6263158 151.513619 70.2729825 150.050584 76.6761404 149 78 154.33463 64.9814035 156.719844 45 157"></polygon>
            <polygon id="Path" fill="url(#linearGradient-7)" fill-rule="nonzero" style="mix-blend-mode: multiply;" points="59 151 53.7942664 151.452459 47.2270939 152.026885 45 157 59 156.803279"></polygon>
            <polygon id="Path" fill="url(#linearGradient-8)" fill-rule="nonzero" style="mix-blend-mode: multiply;" points="59 152.416882 59 157 64.8009071 156.931642 74 155.477473 74 151 69.7101934 151.605904"></polygon>
            <path d="M65,61 L86.6184084,67.6956164 C88.0076014,68.1288671 89.0598358,69.2781951 89.3758389,70.7074854 L92.2368169,83.7627789 C92.2852501,83.9913209 92.3109443,84.2241533 92.3135187,84.4578256 L93,182.536636 L79.9185043,183 L75.1246405,175.447159 C74.8040153,174.94188 74.5863125,174.377487 74.4841802,173.78677 L69.9357622,147.761133 L69.5944391,93.5513531 C69.5918902,93.1067879 69.558572,92.6629421 69.4947267,92.2230416 L65,61 Z" id="Path" fill="#023852" fill-rule="nonzero"></path>
            <path d="M93.4395823,84.7992222 C93.4370231,84.5663122 93.4114812,84.3342392 93.363335,84.1064427 L90.5193105,71.0937337 C90.3410178,70.288949 89.9233323,69.5584045 89.3222277,69 L71,116.613198 L84.2479695,138.1317 L85.2773081,148.065389 L94,165 L93.4395823,84.7992222 Z" id="Path" fill="#023852" fill-rule="nonzero"></path>
            <path d="M89,147 L85.1142283,151.924015 L81.1435639,180.32163 C80.8310048,182.539731 81.0303924,184.800546 81.7262367,186.928437 L87.6339988,205 L89,147 Z" id="Path" fill="url(#linearGradient-9)" fill-rule="nonzero" style="mix-blend-mode: multiply;"></path>
            <path d="M70.1104524,92.6496677 C70.1827353,93.0813298 70.2204567,93.5168633 70.2233426,93.9531027 L70.4230714,121.389652 L72.4941723,123 L76.9707028,96.0977079 C77.0097657,95.8208894 77.0097657,95.5409343 76.9707028,95.2641158 L74.3655444,73.0981427 C74.2415814,72.0419671 73.5567362,71.0978064 72.5158819,70.5481086 L70.7052969,69.5894776 C70.5115509,69.4864384 70.3851883,69.3093995 70.3646467,69.1122137 C70.3441051,68.9150279 70.4318128,68.7210061 70.6010905,68.589167 L71.5476314,67.831356 C72.0776599,67.4253696 72.1411716,66.7250048 71.6909151,66.25132 L68.6515637,62.9813653 L65,62 L70.1104524,92.6496677 Z" id="Path" fill="#356075" fill-rule="nonzero"></path>
            <path d="M79.6320835,123.594367 L79.249221,121.339672 C79.161106,120.824418 78.8087657,120.405878 78.3380083,120.257255 L77.5990837,120.024433 C77.4411024,119.975357 77.2709782,120.000931 77.1318595,120.09467 C76.9927408,120.188408 76.8979923,120.341306 76.8716449,120.514584 L75.0262477,132.466102 C74.9538038,132.916095 75.0324355,133.37893 75.2483079,133.773172 L76.9022739,136.816193 L85.1223318,137 L90,131.301993 L79.1190478,131.902428 L79.6320835,123.594367 Z" id="Path" fill="#0099DA" fill-rule="nonzero"></path>
            <path d="M54.8851205,156.495711 C54.5159015,156.479672 54.222837,156.241304 54.2091601,155.94591 L54.00087,152.075316 C53.9851293,151.864074 54.1848525,151.682003 54.4488902,151.666893 L65.4764771,151.000849 C65.6170424,150.993451 65.7548167,151.03465 65.8548018,151.113979 C65.9547868,151.193307 66.0073604,151.303133 65.9991674,151.415556 L65.5707971,156.637088 C65.5628383,156.741426 65.5023429,156.838736 65.4031147,156.906814 C65.3038864,156.974891 65.1743911,157.007928 65.0441768,156.998385 L54.8851205,156.495711 Z" id="Path" fill="#CFD9DE" fill-rule="nonzero"></path>
            <rect id="Rectangle" fill="#023852" fill-rule="nonzero" x="11" y="187" width="4" height="17"></rect>
            <path d="M19,181 L17.960774,190.674124 C17.960774,190.79351 17.928961,190.912896 17.9077523,191.028431 L17.2396784,194.525288 C17.1813124,194.839179 17.1813124,195.162634 17.2396784,195.476525 L17.409348,196.358442 C17.4847178,196.751499 17.3967424,197.160752 17.1690105,197.476467 C16.9412786,197.792183 16.5970896,197.982059 16.2287307,197.995186 L16.2287307,197.995186 C15.7709648,198.015537 15.3401603,197.759386 15.1082047,197.328935 L14.2775309,195.811576 C14.0830201,195.450217 13.9771167,195.040411 13.9700048,194.621567 L13.9099135,189.518775 C13.923805,189.44998 13.9029549,189.378337 13.8552173,189.330833 C13.8074797,189.283329 13.7401072,189.26718 13.6784782,189.28847 C13.6168492,189.30976 13.5703267,189.365255 13.5564353,189.434049 L11.4002181,194.271111 C11.2628549,194.58428 11.1985069,194.929526 11.2128747,195.276265 L11.2623616,197.332786 C11.2671225,197.497252 11.2116841,197.657035 11.1082563,197.776943 C11.0048286,197.896852 10.8618948,197.967051 10.7109356,197.972079 L9.95802696,197.999037 C9.31185109,198.021828 8.71106577,197.638379 8.41332711,197.013139 L4.3094449,188.34417 C3.99499648,187.68341 3.91689885,186.918992 4.0902884,186.199071 L4.47911445,184.566178 C4.56737049,184.205081 4.77511592,183.892321 5.06235352,183.688112 L7.89017934,181.704763 C8.10723704,181.550144 8.35914496,181.463545 8.61834448,181.454437 L19,181 Z" id="Path" fill="#2BA8E0" fill-rule="nonzero"></path>
            <path d="M19,181 L17.960774,190.674124 C17.960774,190.79351 17.928961,190.912896 17.9077523,191.028431 L17.2396784,194.525288 C17.1813124,194.839179 17.1813124,195.162634 17.2396784,195.476525 L17.409348,196.358442 C17.4847178,196.751499 17.3967424,197.160752 17.1690105,197.476467 C16.9412786,197.792183 16.5970896,197.982059 16.2287307,197.995186 L16.2287307,197.995186 C15.7709648,198.015537 15.3401603,197.759386 15.1082047,197.328935 L14.2775309,195.811576 C14.0830201,195.450217 13.9771167,195.040411 13.9700048,194.621567 L13.9099135,189.518775 C13.923805,189.44998 13.9029549,189.378337 13.8552173,189.330833 C13.8074797,189.283329 13.7401072,189.26718 13.6784782,189.28847 C13.6168492,189.30976 13.5703267,189.365255 13.5564353,189.434049 L11.4002181,194.271111 C11.2628549,194.58428 11.1985069,194.929526 11.2128747,195.276265 L11.2623616,197.332786 C11.2671225,197.497252 11.2116841,197.657035 11.1082563,197.776943 C11.0048286,197.896852 10.8618948,197.967051 10.7109356,197.972079 L9.95802696,197.999037 C9.31185109,198.021828 8.71106577,197.638379 8.41332711,197.013139 L4.3094449,188.34417 C3.99499648,187.68341 3.91689885,186.918992 4.0902884,186.199071 L4.47911445,184.566178 C4.56737049,184.205081 4.77511592,183.892321 5.06235352,183.688112 L7.89017934,181.704763 C8.10723704,181.550144 8.35914496,181.463545 8.61834448,181.454437 L19,181 Z" id="Path" fill="url(#linearGradient-10)" fill-rule="nonzero" style="mix-blend-mode: multiply;"></path>
            <path d="M9.96463454,195.005315 L6.06980475,187.337051 C5.72332709,186.661306 5.63727455,185.879553 5.8283253,185.143305 L6.26065141,183.47338 C6.35520628,183.103897 6.58306457,182.783566 6.8994035,182.575401 L9.29472382,181 L7.09414498,181.086647 C6.80834029,181.098132 6.5310024,181.187985 6.29181005,181.346588 L3.17594621,183.374917 C2.85945103,183.583756 2.63054497,183.90361 2.5332993,184.272896 L2.10486802,185.942821 C1.90739431,186.683006 1.99074864,187.471108 2.33855781,188.152321 L6.8604552,197.013952 C7.19499365,197.644212 7.85565311,198.026402 8.56249582,197.998577 L9.39209456,197.971008 C9.5584303,197.965865 9.71592307,197.894075 9.8298858,197.771447 C9.94384852,197.648819 10.0049339,197.485412 9.99968801,197.317216 L9.94516039,195.241626 C9.94522279,195.162448 9.9517362,195.083411 9.96463454,195.005315 L9.96463454,195.005315 Z" id="Path" fill="#0099DA" fill-rule="nonzero"></path>
            <path d="M47.094963,311.261656 L45.2487075,318.834298 C45.1004685,319.451138 44.7720405,320.007861 44.3066632,320.431171 L40.379587,324.028945 C40.1241829,324.260593 39.9851754,324.597078 40.001256,324.944742 L40.1185386,327.876832 C40.1269412,328.192901 40.2624463,328.491631 40.4934141,328.703268 C40.7243818,328.914905 41.0305927,329.020923 41.3405478,328.996567 L56.2089578,327.992268 C56.268669,327.988609 56.3280732,327.980896 56.3867734,327.969181 L61.622875,326.922556 C62.268155,326.794853 62.7398477,326.228756 62.7578681,325.560404 L63,316.286997 L54.029771,311 L47.094963,311.261656 Z" id="Path" fill="#023852" fill-rule="nonzero"></path>
            <path d="M47.094963,311.261656 L45.2487075,318.834298 C45.1004685,319.451138 44.7720405,320.007861 44.3066632,320.431171 L40.379587,324.028945 C40.1241829,324.260593 39.9851754,324.597078 40.001256,324.944742 L40.1185386,327.876832 C40.1269412,328.192901 40.2624463,328.491631 40.4934141,328.703268 C40.7243818,328.914905 41.0305927,329.020923 41.3405478,328.996567 L56.2089578,327.992268 C56.268669,327.988609 56.3280732,327.980896 56.3867734,327.969181 L61.622875,326.922556 C62.268155,326.794853 62.7398477,326.228756 62.7578681,325.560404 L63,316.286997 L54.029771,311 L47.094963,311.261656 Z" id="Path" fill="url(#linearGradient-11)" fill-rule="nonzero" style="mix-blend-mode: multiply;"></path>
            <path d="M48.2895603,122.86713 L44.5743101,88.2584543 L39.6944046,57 L35.128956,60.7087609 C34.7686312,61.0015053 34.3565678,61.225065 33.9138324,61.3680104 L11.7853827,68.5233744 C10.8852085,68.8077274 10.2335774,69.5857667 10.1160435,70.5165442 L5.14684784,109.878757 C5.10026163,110.229585 5.06920415,110.584269 5.04979323,110.938953 L3,150.06985 C3,150.235626 3,150.401402 3,150.567179 L3.90454891,182.847277 L7.85661237,180.310515 L19.7050384,179.847884 L24.3636594,184 L34.3564014,183.77254 L42.7263904,172.46506 L49,147.54851 L48.2895603,122.86713 Z M22.4264495,140.165685 L21.0909781,146.395787 L20.9861592,129.621547 C20.9815058,128.94404 21.0178048,128.266867 21.0948603,127.59368 L22.5390328,115.013964 L23.5561651,119.894724 C23.7022718,120.588956 23.7519077,121.299794 23.7036881,122.007407 L22.4264495,140.165685 Z" id="Shape" fill="#023852" fill-rule="nonzero"></path>
            <path d="M38.9445599,45.0025594 L39.3817041,45.0025594 C39.8286235,44.9794039 40.2301252,45.2761975 40.3426988,45.7129353 L40.992996,48.9915931 C41.026524,49.2594138 40.938541,49.5282058 40.7534944,49.7232802 C40.5684479,49.9183546 40.3060552,50.0189258 40.0392268,49.9970482 L40.0392268,49.9970482 C39.6315104,50.0113592 39.2592686,49.764532 39.1107469,49.3813891 L38.0269183,46.1027313 C37.9574935,45.8265259 38.0241635,45.5335089 38.2060493,45.3154437 C38.3879351,45.0973785 38.662798,44.9809276 38.9445599,45.0025594 L38.9445599,45.0025594 Z" id="Path" fill="url(#linearGradient-12)" fill-rule="nonzero" style="mix-blend-mode: multiply;"></path>
            <path d="M63.6214944,24.6510756 C62.7654133,22.3847357 60.6455754,20.9253437 58.3224155,21.0029508 L46.2859365,21.3522816 C43.5569109,21.4316749 41.1193347,23.5157506 40.8316704,26.3659722 C40.7364415,27.3333501 40.1606066,28.1758192 39.3176479,28.5810469 L37.7430644,29.3233748 C36.5773399,29.8686901 35.8800916,31.1403695 36.0170788,32.4713215 L36.2744626,35 L41.6681678,32.046567 C42.311116,31.693941 42.8453489,31.1570543 43.2086857,30.4983965 L44.6318669,27.9260517 C45.2862714,26.73534 46.4896714,25.9934637 47.799959,25.9729751 L64,25.6950983 L63.6214944,24.6510756 Z" id="Path" fill="#356075" fill-rule="nonzero"></path>
            <path d="M42,56 L51.51275,64.0641385 C52.0691574,64.5448667 52.7483626,64.8211105 53.4547125,64.853966 L56.7474497,64.9803384 C56.8601574,64.9846267 56.9576806,65.0680561 56.9894138,65.1873342 C57.0211469,65.3066123 56.9799438,65.4348783 56.887185,65.5055737 L52.666462,68.6648836 C51.894019,69.2462708 50.8430455,69.0529165 50.2837958,68.2265294 L42,56 Z" id="Path" fill="url(#linearGradient-13)" fill-rule="nonzero" style="mix-blend-mode: multiply;"></path>
            <path d="M69.7846108,237.007743 L61.4191919,188.153161 L58.2947118,185 L54,199.54648 L54.050208,201.565746 L57.9741533,238.537725 C58.0237207,238.996734 58.0404997,239.458724 58.0243613,239.920146 L57.9084967,243.294649 C57.8548804,244.826449 57.4476363,246.324715 56.7189542,247.671019 L55.1740939,250.478576 L59.5460487,297.911905 C59.5465632,297.949656 59.5706302,297.983003 59.6061652,297.995203 C59.6417001,298.007403 59.6810263,297.99582 59.7043969,297.96627 L66.0923945,290.828942 C66.9916738,289.826075 67.6264098,288.612434 67.9385027,287.29911 L80,236.483511 L72.3143197,238.638688 C71.7621324,238.782871 71.1751521,238.688811 70.6948994,238.379184 C70.2146468,238.069557 69.8847006,237.57246 69.7846108,237.007743 L69.7846108,237.007743 Z" id="Path" fill="url(#linearGradient-14)" fill-rule="nonzero" style="mix-blend-mode: multiply;"></path>
            <g id="Group" style="mix-blend-mode: multiply;" transform="translate(40.000000, 318.000000)" fill-rule="nonzero">
                <path d="M16.3186885,10.7142857 L6.15721311,6 C6.15721311,6 2.88065574,6.51857143 0.12442623,6.94285714 C0.0935223591,7.06684122 0.0795345387,7.1954802 0.0829508197,7.32428571 L0.199836066,10.59 C0.208210222,10.9420333 0.343256241,11.2747534 0.573441401,11.5104715 C0.803626561,11.7461897 1.10880001,11.8642706 1.41770492,11.8371429 L16.2432787,10.7142857 L16.3186885,10.7142857 Z" id="Path" fill="url(#linearGradient-15)"></path>
                <path d="M22.9434426,0.33 L16.3337705,10.7142857 L16.4167213,10.7142857 L19.4934426,10.0285714 L21.635082,9.54857143 C22.2781756,9.40633855 22.7482702,8.7758279 22.7662295,8.03142857 L22.9434426,0.33 Z" id="Path" fill="url(#linearGradient-16)"></path>
            </g>
            <rect id="Rectangle" fill="#023852" fill-rule="nonzero" x="4" y="200" width="18" height="61" rx="4.09"></rect>
            <rect id="Rectangle" fill="#1B4C63" fill-rule="nonzero" x="11" y="200" width="3" height="61"></rect>
            <path d="M34.6913422,69.2869659 L31.6439777,71.3373727 C31.1042261,71.7015854 30.8711262,72.3716247 31.0706333,72.9854355 L48,125 L47.9450218,123.096604 L44.1868673,88.3673551 L39.250608,57 L34.0708737,61.1820561 L31.8874527,65.9908403 C31.6359457,66.5470575 31.80875,67.2007066 32.3037164,67.565398 L34.6913422,69.2869659 Z" id="Path" fill="#9DADB7" fill-rule="nonzero"></path>
            <path d="M34.6913422,69.2869659 L31.6439777,71.3373727 C31.1042261,71.7015854 30.8711262,72.3716247 31.0706333,72.9854355 L48,125 L47.9450218,123.096604 L44.1868673,88.3673551 L39.250608,57 L34.0708737,61.1820561 L31.8874527,65.9908403 C31.6359457,66.5470575 31.80875,67.2007066 32.3037164,67.565398 L34.6913422,69.2869659 Z" id="Path" fill="#356075" fill-rule="nonzero"></path>
            <polygon id="Path" fill="url(#linearGradient-17)" fill-rule="nonzero" style="mix-blend-mode: multiply;" points="10 182 22 147 20.4433859 181.629018"></polygon>
            <path d="M131,229.363589 L127.998035,244.337903 C127.923379,244.721172 127.860511,245.104441 127.81336,245.48771 L127.102161,251.175419 C127.013154,251.878725 127.002614,252.589373 127.070727,253.294896 L127.601179,258.829298 C127.91149,262.032911 127.656319,265.264705 126.846758,268.38419 L119.200393,297.895891 C119.007998,298.649249 118.894774,299.419763 118.862475,300.195504 L118.595285,307.243818 C118.559814,308.211584 118.685885,309.178537 118.968566,310.106836 L122.756385,322.463424 L111.031434,323 L107,314.778883 L107.11002,310.126 L110.646365,302.460623 C111.382147,300.559467 111.760175,298.544402 111.762279,296.51229 L111.762279,281.45749 C111.761295,280.207176 111.629638,278.960216 111.369352,277.73595 L110.24558,272.44684 C109.797593,270.31245 109.797593,268.111652 110.24558,265.977262 L111.888016,258.081924 C112.052643,257.28635 112.11991,256.474533 112.088409,255.663497 L111.589391,243.122941 L110.489194,219 L131,229.363589 Z" id="Path" fill="#0099DA" fill-rule="nonzero"></path>
            <path d="M95.8550122,232.933648 C95.9230548,233.141961 95.9675271,233.356703 95.9876596,233.574159 L96.7915829,242.163175 C96.8296805,242.552879 96.7887292,242.945978 96.6709944,243.320724 L94.1386358,251.423569 C93.0006891,255.059845 92.7111157,258.892093 93.2904966,262.647939 L98.5722733,296.876672 C98.661155,297.456503 98.6158658,298.048011 98.4396259,298.609138 L97.7402125,300.816198 C97.5275174,301.484915 97.5025582,302.195689 97.6678594,302.876636 L97.8969776,303.798817 C98.0655495,304.488975 98.0377836,305.209938 97.8165853,305.886264 L93.5316736,319.0476 L95.7505022,321 L106.285918,319.757564 L108.380139,304.686272 C108.461315,304.091875 108.443677,303.488876 108.327884,302.899787 L106.647684,294.457394 C106.520752,293.820848 106.511229,293.167853 106.619546,292.528145 L112.24701,259.017093 C112.335187,258.469867 112.335187,257.912881 112.24701,257.365656 L111.021027,249.737406 C110.938144,249.223431 110.96274,248.698758 111.09338,248.194007 L113.593582,238.459017 C113.891817,237.296924 114.027,236.101796 113.995544,234.905341 L113.669955,221.805741 L101.659339,214 L93.338732,225.189643 L95.8550122,232.933648 Z" id="Path" fill="#0099DA" fill-rule="nonzero"></path>
            <path d="M107.672569,306 L106.104536,309.756445 L106,314.823472 L109.627772,323 L109.658745,323 L110.951889,314.126442 C111.091539,313.16219 110.925103,312.175351 110.479543,311.325804 L107.672569,306 Z" id="Path" fill="url(#linearGradient-18)" fill-rule="nonzero" style="mix-blend-mode: multiply;"></path>
            <path d="M110,217 L111.125359,241.644029 L111.635789,254.455478 C111.671542,255.28392 111.604064,256.113528 111.434833,256.926146 L110.55866,261.131371 C115.325359,265.728144 120.112153,270.313171 124.786411,275 L126.743732,267.454871 C127.567439,264.267304 127.828388,260.966431 127.515407,257.69358 L126.968804,252.039627 C126.901091,251.320096 126.911869,250.5956 127.000957,249.878283 L127.740478,244.063795 C127.788708,243.672247 127.853014,243.280699 127.933397,242.889151 L131,227.591372 L110,217 Z" id="Path" fill="url(#linearGradient-19)" fill-rule="nonzero" style="mix-blend-mode: multiply;"></path>
            <path d="M95.6883365,232.589081 L96.2398949,238.299508 C101.415011,243.186811 106.558804,248.086975 111.671273,253 L110.976718,248.755763 C110.892584,248.241797 110.917583,247.717157 111.050259,247.212405 L113.587428,237.47767 C113.888514,236.315266 114.025886,235.120428 113.99599,233.924086 L113.665055,220.805537 L101.453143,213 L93,224.189351 L95.5494255,231.937012 C95.6208406,232.148916 95.6674229,232.367581 95.6883365,232.589081 L95.6883365,232.589081 Z" id="Path" fill="url(#linearGradient-20)" fill-rule="nonzero"></path>
            <path d="M79.72611,184.848966 L93.6316133,226.650369 L103.428584,222.311945 C104.796874,221.702726 106.351129,221.644988 107.761711,222.150979 L129.779726,230 L135.239698,210.580571 C135.39754,210.018084 135.499989,209.441794 135.545611,208.859765 L137.973556,178.245517 C138.089599,176.824783 137.822335,175.399034 137.199092,174.11405 L126.743827,152.651883 L93.5231883,149.037807 C93.0001579,148.979614 92.4717188,148.988632 91.9510261,149.064635 L83.1260075,150.356197 L79.1413896,178.360493 C78.8319509,180.539103 79.0319958,182.758944 79.72611,184.848966 L79.72611,184.848966 Z" id="Path" fill="#9DADB7" fill-rule="nonzero"></path>
            <path d="M94.6228196,319.177669 L96.4419639,320.858196 C96.6214697,321.022775 96.8634418,321.099885 97.1041629,321.069221 L105.952511,319.975728 C106.393936,319.922393 106.74415,319.575624 106.804997,319.131628 L108,310 L107.870605,325.849896 C107.860794,326.450143 107.471596,326.976915 106.903947,327.158251 L101.575909,328.831104 C100.697015,329.105433 99.7487079,329.043972 98.9118899,328.658447 L95.5400032,327.093026 C94.4993319,326.604719 93.8859165,325.499286 94.0177067,324.3497 L94.6228196,319.177669 Z" id="Path" fill="#023852" fill-rule="nonzero"></path>
            <path d="M106,315.744224 L110.562586,327.520637 C110.717328,327.923108 111.098821,328.198791 111.536622,328.224515 L123.942755,328.998006 C124.232928,329.016225 124.51668,328.908892 124.719226,328.704298 C124.921773,328.499703 125.022792,328.218374 124.99566,327.934455 L124.739334,325.316185 C124.716143,325.087229 124.611424,324.873611 124.443575,324.712862 L121.892154,322.276362 L110.901724,322.786867 C110.43183,322.806406 109.997348,322.542771 109.805441,322.121664 L106.11436,314 L106,315.744224 Z" id="Path" fill="#023852" fill-rule="nonzero"></path>
            <path d="M90.52303,175.747929 C98.7587954,184.088824 106.995826,192.429719 115.234123,200.770614 C121.245168,206.853476 127.261276,212.929938 133.282445,219 L135.290767,211.703637 C135.445508,211.141329 135.545952,210.565162 135.590687,209.983232 L137.974857,179.307786 C138.086576,177.88308 137.824663,176.453779 137.215567,175.16422 L126.965153,153.659151 L94.395409,150.037851 C93.8826243,149.979585 93.3645444,149.98862 92.8540503,150.064732 L84.1981445,151.362717 L82,167.142061 L90.52303,175.747929 Z" id="Path" fill="url(#linearGradient-21)" fill-rule="nonzero" style="mix-blend-mode: multiply;"></path>
            <path d="M124.523816,61 L130.727562,73.9334987 C130.969719,74.445338 131.053675,75.0317653 130.966446,75.6020772 L129.156718,87 L122.022773,86.379321 L116,81.6355604 L120.252859,64.0953341 L124.523816,61 Z" id="Path" fill="#FFE700" fill-rule="nonzero"></path>
            <path d="M124.523816,61 L130.727562,73.9334987 C130.969719,74.445338 131.053675,75.0317653 130.966446,75.6020772 L129.156718,87 L122.022773,86.379321 L116,81.6355604 L120.252859,64.0953341 L124.523816,61 Z" id="Path" fill="#A7BAC2" fill-rule="nonzero"></path>
            <path d="M130.577974,78 L130.963125,75.6715102 C131.058007,75.0985 130.968562,74.5085844 130.708925,73.9949976 L124.111285,61 L119.574203,64.1100524 L116,78 L130.577974,78 Z" id="Path" fill="url(#linearGradient-22)" fill-rule="nonzero" style="mix-blend-mode: multiply;"></path>
            <path d="M86,152.270167 L90.4182557,151.69867 C91.1408047,151.606661 91.8714125,151.595083 92.5965406,151.66415 L116.993331,154 L117.783682,105.886851 L123,90 L112.405439,93.4519957 L108.519225,100.566942 L98.1752631,92.8191298 L88.3710535,118.133765 L86,152.270167 Z" id="Path" fill="#F0F3F4" fill-rule="nonzero"></path>
            <polygon id="Path" fill="url(#linearGradient-23)" fill-rule="nonzero" style="mix-blend-mode: multiply;" points="108 100 94 99.6060606 98.1781485 92"></polygon>
            <path d="M96.3832206,101.908071 L99,91.6732853 L94.8302357,83 L89.783035,83.4058355 C88.8524405,83.4833213 87.9513689,83.7686837 87.1468433,84.2406972 L80.4651261,88.1715044 C79.2899098,88.8621653 78.4162037,89.9649217 78.0152925,91.2635847 L69.7689431,120.008336 C69.5193441,120.883657 69.1565307,121.722971 68.6896186,122.505191 L68.6896186,122.505191 C67.3979784,124.680684 66.925937,127.242696 67.3579341,129.732929 L67.7112382,131.754377 C67.8992926,133.093101 67.6255413,134.455737 66.9347458,135.619477 L66.5115574,136.330656 C66.01019,137.169522 65.8701979,138.174351 66.1233112,139.117393 L67.7190031,144.976885 C68.1773356,146.658439 69.7756356,147.775008 71.5199335,147.632209 L75.305334,147.326866 C76.4062358,147.237758 77.406497,146.65451 78.0230574,145.742175 L80.4651261,142.155362 C80.5038431,142.098705 80.5767696,142.07623 80.6408692,142.101201 C80.7049688,142.126171 80.7432061,142.19195 80.733016,142.25972 L74.6181382,184.82607 L84.7125396,185 L89.9538634,131.217128 L89.631619,131.452899 C89.689856,128.925123 89.833507,122.833725 89.9072738,119.471088 L96.3832206,101.908071 Z" id="Path" fill="#9DADB7" fill-rule="nonzero"></path>
            <path d="M74.9498069,133 L68,145.300611 C68.4557993,147.002204 70.0452655,148.132081 71.7799228,147.98758 L75.5444015,147.678598 C76.6392187,147.588428 77.6339515,146.998229 78.2471042,146.075021 L80.6833977,142.445461 C80.7683398,142.316392 83,137.845932 83,138.002379 L74.9498069,133 Z" id="Path" fill="url(#linearGradient-24)" fill-rule="nonzero" style="mix-blend-mode: multiply;"></path>
            <path d="M103.643485,74 L103.324811,78.2706281 L99.9087748,85.8753079 C99.655049,86.4405921 99.7035734,87.1008683 100.037022,87.6203818 L108,100 L95.8359583,93.3519089 L95.9952956,90.8903941 L89,90.8903941 L99.5201473,76.2814039 L103.643485,74 Z" id="Path" fill="#F0F3F4" fill-rule="nonzero"></path>
            <path d="M126.575053,60.9106465 L127.970488,50.6001461 C128.043589,50.0817071 127.980347,49.553536 127.786776,49.0658455 L124.820008,41.45955 C124.596935,40.8921048 124.164334,40.427874 123.608285,40.1592301 L115.497559,36.2659422 C114.840453,35.9500687 114.079715,35.9139913 113.394633,36.1662127 L103.298244,39.8600415 C102.887729,40.0095454 102.546191,40.299742 102.336683,40.6770566 L96.2507063,51.6357991 C96.0560385,51.9875237 95.9717208,52.3878893 96.0083617,52.7865246 L96.4891421,58.3023354 C96.5335924,58.7910537 96.7378914,59.2525657 97.0715509,59.6179982 L99.26047,62 L99.1432065,57.4738131 L102.344501,49.8023098 L115.196582,48.594048 L117.104069,48.7014491 L120.696241,59.2727806 L123.94835,61.4169658 L126.575053,60.9106465 Z" id="Path" fill="#FFE700" fill-rule="nonzero"></path>
            <path d="M136.481541,141.039674 L142.642965,135.807516 C142.972383,135.52821 143.204156,135.154086 143.305484,134.738086 L146.719404,120.670671 C146.788779,120.384488 146.821509,120.090897 146.816833,119.796728 L146.473882,92.3710187 L143.53152,89.3658816 C142.489183,88.3006681 141.119941,87.6017172 139.634351,87.3765115 L124.045675,85 L119.825042,91.8228879 L115.331606,105.119853 C115.104862,105.790836 114.992921,106.494181 115.000347,107.201217 L115.25756,121.705603 L116.563111,131.077492 L115.004244,138.456176 L115.487493,179.692484 C115.50439,180.877615 116.480478,181.832545 117.685496,181.842844 L138.426229,182 L138.426229,179.933968 L147,178.557891 L136.481541,141.039674 Z" id="Path" fill="#9DADB7" fill-rule="nonzero"></path>
            <polygon id="Path" fill="url(#linearGradient-25)" fill-rule="nonzero" points="120.43742 91.4573576 121.512414 89.7285343 122 87 107 90.871061 108.854364 99.8985256 117.350653 100"></polygon>
            <path d="M74,135 L75.7994859,139.921788 C75.9384998,140.279441 76.265025,140.531186 76.6478149,140.575834 L80.1880279,140.992377 C80.5487938,141.032606 80.9089996,140.912252 81.1722365,140.663527 L84,137.999842 L74,135 Z" id="Path" fill="#2BA8E0" fill-rule="nonzero"></path>
            <path d="M74,135 L75.7994859,139.927015 C75.9384998,140.282935 76.265025,140.533459 76.6478149,140.57789 L80.1880279,140.992414 C80.5487938,141.032448 80.9089996,140.912677 81.1722365,140.665158 L84,138.014388 L74,135 Z" id="Path" fill="url(#linearGradient-26)" fill-rule="nonzero" style="mix-blend-mode: multiply;"></path>
            <path d="M107,131 C107,131.081526 109.158497,135.428332 109.854787,136.825388 C109.901503,136.920277 109.992284,136.985044 110.096354,136.997732 C110.200424,137.01042 110.303826,136.969327 110.371507,136.888385 L115,131.348337 L107,131 Z" id="Path" fill="#9DADB7" fill-rule="nonzero"></path>
            <path d="M107,131 C107,131.082138 109.103527,135.34958 109.82547,136.81313 C109.88363,136.9159 109.986268,136.984394 110.101978,136.997656 C110.217688,137.010918 110.332698,136.967369 110.411819,136.880334 L115,131.350953 L107,131 Z" id="Path" fill="#9DADB7" fill-rule="nonzero" style="mix-blend-mode: multiply;"></path>
            <path d="M121,65 L118.877532,72.9571048 C118.724668,73.5273551 118.671946,74.1201862 118.721754,74.7087676 L119.882296,88.2507702 C119.917325,88.6720011 119.677859,89.0676146 119.290342,89.2287165 L112.140155,92.1979027 C111.918135,92.2914916 111.736058,92.4612035 111.626089,92.6770571 L108.078257,99.6915631 C107.987216,99.8714334 107.807981,99.9886991 107.608005,99.9992282 C107.408029,100.009757 107.21766,99.911952 107.108542,99.7426205 L99.3547167,87.8698032 C98.9469703,87.2450675 98.8866458,86.4527084 99.1950447,85.7725209 L102.259967,79.076142 C102.43912,78.6894312 102.537228,78.2696013 102.548155,77.8429086 L102.770138,70.4277981 L121,65 Z" id="Path" fill="#2BA8E0" fill-rule="nonzero"></path>
            <path d="M119.028103,74 L125.821102,82.0742188 C125.932279,82.2045952 126.013372,82.3611367 126.057855,82.53125 L127.988305,89.921875 C128.012884,90.0108879 127.998281,90.107062 127.948641,90.1831143 C127.899001,90.2591666 127.819739,90.3067994 127.73334,90.3125 L121.781726,90.7382812 C121.516091,90.7544289 121.27132,90.897874 121.115175,91.1289062 L120.022467,92.8085938 C119.955213,92.9073374 119.848723,92.9666082 119.734721,92.96875 L113,93 L119.975117,89.9179688 C120.357041,89.7498442 120.588875,89.3306793 120.543324,88.890625 L119.028103,74 Z" id="Path" fill="#F0F3F4" fill-rule="nonzero"></path>
            <path d="M121,65 L118.887815,72.9571048 C118.735692,73.5273551 118.683226,74.1201862 118.732793,74.7087676 L119.887712,88.2507702 C119.922571,88.6720011 119.684265,89.0676146 119.298626,89.2287165 L112.183082,92.1979027 C111.962138,92.2914916 111.780943,92.4612035 111.671507,92.6770571 L108.140865,99.6915631 C108.050265,99.8714334 107.871899,99.9886991 107.672892,99.9992282 C107.473885,100.009757 107.284438,99.911952 107.175848,99.7426205 L99.2270579,87.5163287 C98.965353,87.110973 98.9273047,86.5978535 99.1262931,86.1574154 L102.350766,79.0879245 C102.529051,78.7012137 102.626683,78.2813838 102.637558,77.8546911 L102.858465,70.4395805 L121,65 Z" id="Path" fill="#0099DA" fill-rule="nonzero"></path>
            <path d="M126.575053,60.9106465 L127.970488,50.6001461 C128.043589,50.0817071 127.980347,49.553536 127.786776,49.0658455 L124.820008,41.45955 C124.596935,40.8921048 124.164334,40.427874 123.608285,40.1592301 L115.497559,36.2659422 C114.840453,35.9500687 114.079715,35.9139913 113.394633,36.1662127 L103.298244,39.8600415 C102.887729,40.0095454 102.546191,40.299742 102.336683,40.6770566 L96.2507063,51.6357991 C96.0560385,51.9875237 95.9717208,52.3878893 96.0083617,52.7865246 L96.4891421,58.3023354 C96.5335924,58.7910537 96.7378914,59.2525657 97.0715509,59.6179982 L99.26047,62 L99.1432065,57.4738131 L102.035707,50.5502813 C102.225537,50.0989936 102.657623,49.7906206 103.153619,49.752445 L116.443484,48.7628211 C116.836708,48.7328881 117.199878,48.9704777 117.322961,49.3381838 L120.704059,59.2842878 L123.956167,61.428473 L126.575053,60.9106465 Z" id="Path" fill="#A7BAC2" fill-rule="nonzero"></path>
            <path d="M124.721555,40.9488917 C124.561954,40.5771858 124.297958,40.2500134 123.955893,40 L116.045393,47.3273493 C115.767337,47.6314343 116.851353,48.0820663 117.004486,48.4594248 L120.486234,57.9520059 L123.839028,60 L126.530936,59.5054039 L127.969575,49.6574464 C128.044938,49.1622653 127.979738,48.6577886 127.780174,48.1919766 L124.721555,40.9488917 Z" id="Path" fill="url(#linearGradient-27)" fill-rule="nonzero" style="mix-blend-mode: multiply;"></path>
            <path d="M116.418975,48.0235187 L102.803061,50.7882811 C102.389006,50.871029 102.046332,51.1486277 101.891745,51.5265354 L99.1770214,57.8718311 C99.0568202,58.1540635 98.996679,58.4565363 99,58.7614275 L99.0847362,66.734574 C99.0927933,67.2155416 99.2095587,67.6890929 99.4269605,68.122492 L103.722068,76.6308728 L110.512722,77 L116.911163,72.4634273 L119.745088,68.5580621 C119.95318,68.2705946 120.288356,68.0919923 120.65256,68.0745055 L121.187045,68.0486666 C121.666759,68.0229257 122.108858,67.7910654 122.390598,67.4174592 L125.570592,63.1577319 C126.00382,62.5817875 126.117198,61.8392024 125.874365,61.1681365 L125.874365,61.1681365 C125.577459,60.3256941 124.776782,59.7411914 123.85178,59.6916279 L121.871493,59.5882723 C121.78726,59.5848896 121.713891,59.5320663 121.686923,59.4553866 L117.572541,48.6030483 C117.387162,48.1652585 116.899349,47.9201904 116.418975,48.0235187 Z" id="Path" fill="#0099DA" fill-rule="nonzero"></path>
            <path d="M117,37.1606148 L115.156594,36.2644092 C114.51098,35.9503565 113.763545,35.9144871 113.090443,36.1652546 L103.170615,39.8377906 C102.76728,39.9864326 102.431714,40.2749564 102.22587,40.6500961 L96.2463221,51.5456676 C96.0550585,51.8953648 95.9722154,52.2934225 96.0082155,52.6897598 L96.2962476,56 L104.745191,41.8361383 L117,37.1606148 Z" id="Path" fill="#C1CBD2" fill-rule="nonzero"></path>
            <polygon id="Path" fill="url(#linearGradient-28)" fill-rule="nonzero" style="mix-blend-mode: multiply;" points="141 156 136.806707 141.802556 138.205793 140.410798 115.907622 127 116.585366 131.708529 115 138.988785 115.146646 150.905712"></polygon>
            <path d="M120.202694,75.8526938 C120.153472,75.2735507 120.205573,74.6902261 120.356639,74.1291203 L122,68 L122,68 L118.828736,72.1311662 C118.618375,72.4016452 118.372377,72.6421585 118.097498,72.8461014 L113.17896,76.4942032 C112.486956,77.005466 111.639007,77.2583046 110.781269,77.2091384 L107.463757,77.0159127 C107.257176,77.0040906 107.070449,77.1388037 107.015691,77.3391674 C106.960934,77.539531 107.053032,77.7510749 107.236688,77.8467834 C111.162282,79.8756536 120.075689,84.4860195 120.976267,85 L120.202694,75.8526938 Z" id="Path" fill="url(#linearGradient-29)" fill-rule="nonzero" style="mix-blend-mode: multiply;"></path>
            <path d="M80.160585,98 L112,98 L109.361043,133 L77.4296644,132.240528 C77.3078422,132.237698 77.1926476,132.184203 77.1115507,132.0928 C77.0304538,132.001396 76.9907233,131.880276 77.0018335,131.758324 L80.160585,98 Z" id="Path" fill="#FFE700" fill-rule="nonzero"></path>
            <g id="oTTejh" transform="translate(84.000000, 105.000000)" fill="#023852" fill-rule="nonzero">
                <path d="M10.0594118,3.50131579 C9.54882353,6.56052632 9.04235294,9.60394737 8.53176471,12.6592105 L8.33411765,12.6592105 C7.80705882,12.6592105 7.27588235,12.6592105 6.74882353,12.6592105 C6.09828781,12.6670211 5.55512678,13.1370031 5.48058824,13.7565789 C5.44764706,14.0486842 5.42705882,14.3447368 5.40235294,14.6407895 C5.40032269,14.6710213 5.40032269,14.7013471 5.40235294,14.7315789 L14.6711765,14.7315789 C14.6958824,14.4276316 14.7247059,14.1315789 14.7494118,13.8394737 C14.7989812,13.5300876 14.6991422,13.2158769 14.4780719,12.98552 C14.2570016,12.7551632 13.9386783,12.6336458 13.6129412,12.6552632 L11.8794118,12.6552632 L11.6982353,12.6552632 C11.6982353,9.6 11.7311765,6.55657895 11.7517647,3.50526316 L10.0594118,3.50131579 Z M13.3535294,0.888157895 C13.2423529,0.438157895 13.0405882,0.244723332 12.6658824,0.244723332 L9.69294118,0.244723332 C9.37032021,0.242853299 9.08224393,0.43807222 8.97647059,0.730263158 C8.92294118,0.876315789 8.84882353,0.888157895 8.72117647,0.888157895 L3.74294118,0.888157895 C3.23127709,0.882059384 2.77892776,1.20567368 2.63941176,1.67763158 C2.5019383,2.1294546 2.74911589,2.60680065 3.20764706,2.775 C3.70315944,2.92664923 4.24186094,2.72600027 4.50058824,2.29342105 C4.54576344,2.23971655 4.6105147,2.20444747 4.68176471,2.19473684 L9.05882353,2.19473684 C9.14941176,2.19473684 9.19058824,2.19473684 9.20705882,2.30526316 C9.24562226,2.62225443 9.53332355,2.85668771 9.86588235,2.84210526 C10.5878431,2.84210526 11.3084314,2.84210526 12.0276471,2.84210526 C12.3639832,2.84905405 12.6652497,2.64367946 12.7688235,2.33684211 C12.8141176,2.21052632 12.8758824,2.19078947 12.9994118,2.19078947 L17.2941176,2.19078947 C17.3999085,2.17737217 17.5011163,2.23657235 17.5370588,2.33289474 C17.7625401,2.7700964 18.3091555,2.95699367 18.7723529,2.75526316 C19.2560667,2.56974193 19.5414931,2.08803434 19.46,1.59473684 C19.3690241,1.14581583 18.9386715,0.835546341 18.4635294,0.876315789 L13.3617647,0.876315789 L13.3535294,0.888157895 Z M0.177058824,9.40263158 C0.177058824,9.43421053 0.156470588,9.44605263 0.152352941,9.46184211 C0.150302802,9.49339047 0.150302802,9.52503058 0.152352941,9.55657895 C0.153750974,10.0714452 0.391763532,10.5595556 0.802941176,10.8907895 C1.88380821,11.6962243 3.36666757,11.7915142 4.55,11.1315789 C5.12807953,10.8540245 5.5646506,10.3643307 5.76058824,9.77368421 C5.86352941,9.42631579 5.82647059,9.37894737 5.45588235,9.37894737 L0.555882353,9.37894737 C0.411764706,9.37894737 0.304705882,9.39473684 0.181176471,9.40263158 L0.177058824,9.40263158 Z M15.0005882,9.375 C14.9961279,9.4525727 14.9961279,9.53032204 15.0005882,9.60789474 C15.0192303,10.1590875 15.3056272,10.6702243 15.7747059,10.9894737 C16.4067825,11.4368186 17.1938103,11.6346228 17.9735294,11.5421053 C18.7107051,11.4977573 19.4116716,11.2200799 19.9664706,10.7526316 C20.3038625,10.4653042 20.5398307,10.0846092 20.6417647,9.66315789 C20.6911765,9.47368421 20.6417647,9.39868421 20.4317647,9.38684211 L14.9964706,9.38684211 L15.0005882,9.375 Z M18.2123529,4.88289474 C18.2494118,4.94605263 18.2741176,4.98157895 18.2905882,5.01710526 L19.3694118,7.26710526 C19.5629412,7.66184211 19.7564706,8.05657895 19.9582353,8.45131579 C19.9914413,8.55071697 20.0715313,8.62932783 20.1744083,8.66349632 C20.2772854,8.69766482 20.39094,8.6834023 20.4811765,8.625 C20.5717333,8.58070091 20.638061,8.501227 20.6632743,8.40681033 C20.6884877,8.31239367 20.6701542,8.21214276 20.6129412,8.13157895 C19.9568627,6.76315789 19.2994118,5.39210526 18.6405882,4.01842105 C18.5976742,3.88214556 18.4678792,3.78802731 18.3194118,3.78552094 C18.143414,3.78468907 17.9828449,3.88166439 17.9076471,4.03421053 L15.2764706,8.08026316 C15.2300861,8.14916044 15.1966402,8.22530963 15.1776471,8.30526316 C15.1442743,8.39518323 15.1616706,8.49524722 15.2236601,8.56993123 C15.2856496,8.64461525 15.3834545,8.68334403 15.4823529,8.67236842 C15.6717647,8.67236842 15.7664706,8.56184211 15.8529412,8.42763158 C16.4211765,7.56447368 16.9880392,6.7 17.5535294,5.83421053 L18.2123529,4.88289474 Z M3.38882353,4.88289474 C3.43411765,4.96578947 3.45882353,5.00921053 3.47941176,5.05263158 C4.02843137,6.15789474 4.56098039,7.26315789 5.07705882,8.36842105 C5.11227809,8.44823278 5.15944016,8.5226992 5.21705882,8.58947368 C5.33892728,8.70242808 5.52570086,8.72051655 5.66867323,8.63321122 C5.8116456,8.54590589 5.87349979,8.37599417 5.81823529,8.22236842 C5.79639923,8.16407845 5.77025448,8.10735561 5.74,8.05263158 C5.24588235,7.02236842 4.75176471,5.98815789 4.25352941,4.95789474 C4.10941176,4.65 3.96529412,4.34605263 3.81294118,4.04210526 C3.66058824,3.73815789 3.33117647,3.72631579 3.11294118,4.04210526 C3.09361966,4.06883396 3.07575267,4.09650247 3.05941176,4.125 C2.4472549,5.06184211 1.83647059,5.99736842 1.22705882,6.93157895 C0.963529412,7.32631579 0.7,7.72105263 0.444705882,8.14342105 C0.341542288,8.2670949 0.331619596,8.43990268 0.42,8.57368421 C0.510822602,8.64916714 0.62965158,8.68618952 0.749411765,8.67631579 C0.926470588,8.67631579 1.00470588,8.51447368 1.09117647,8.38421053 L3.15,5.24605263 L3.38882353,4.88289474 Z" id="Shape"></path>
                <path d="M10.0594118,3.50131579 L11.76,3.50131579 C11.7394118,6.55263158 11.7229412,9.59605263 11.7064706,12.6513158 L11.8876471,12.6513158 L13.6211765,12.6513158 C13.9469136,12.6296984 14.2652369,12.7512158 14.4863072,12.9815727 C14.7073775,13.2119295 14.8072165,13.5261402 14.7576471,13.8355263 C14.7329412,14.1276316 14.7041176,14.4236842 14.6794118,14.7276316 L5.41058824,14.7276316 C5.40855799,14.6973997 5.40855799,14.667074 5.41058824,14.6368421 C5.43529412,14.3407895 5.45588235,14.0447368 5.48882353,13.7526316 C5.56336207,13.1330557 6.10652311,12.6630737 6.75705882,12.6552632 C7.28411765,12.6552632 7.81529412,12.6552632 8.34235294,12.6552632 L8.54,12.6552632 C9.05882353,9.60394737 9.54882353,6.56052632 10.0594118,3.50131579 Z" id="Path"></path>
                <path d="M13.3617647,0.888157895 L18.4841176,0.888157895 C18.9592597,0.847388447 19.3896124,1.15765794 19.4805882,1.60657895 C19.5620813,2.09987644 19.276655,2.58158404 18.7929412,2.76710526 C18.3297438,2.96883578 17.7831283,2.78193851 17.5576471,2.34473684 C17.5217045,2.24841446 17.4204967,2.18921427 17.3147059,2.20263158 L13.0158824,2.20263158 C12.8923529,2.20263158 12.8305882,2.22236842 12.7852941,2.34868421 C12.6817202,2.65552156 12.3804538,2.86089616 12.0441176,2.85394737 C11.324902,2.85394737 10.6043137,2.85394737 9.88235294,2.85394737 C9.54979414,2.86852982 9.26209285,2.63409653 9.22352941,2.31710526 C9.22352941,2.22236842 9.16588235,2.20657895 9.07529412,2.20657895 L4.68176471,2.20657895 C4.6105147,2.21628958 4.54576344,2.25155865 4.50058824,2.30526316 C4.24186094,2.73784238 3.70315944,2.93849134 3.20764706,2.78684211 C2.74911589,2.61864275 2.5019383,2.14129671 2.63941176,1.68947368 C2.77892776,1.21751579 3.23127709,0.893901489 3.74294118,0.9 L8.72941176,0.9 C8.85705882,0.9 8.93117647,0.9 8.98470588,0.742105263 C9.09047923,0.449914325 9.37855551,0.254695404 9.70117647,0.256578947 L12.6741176,0.256578947 C13.0488235,0.244736842 13.2505882,0.438157895 13.3617647,0.888157895 Z" id="Path"></path>
                <path d="M0.181176471,9.40263158 C0.304705882,9.40263158 0.428235294,9.37894737 0.555882353,9.37894737 L5.45588235,9.37894737 C5.82647059,9.37894737 5.86764706,9.43026316 5.76058824,9.77368421 C5.5646506,10.3643307 5.12807953,10.8540245 4.55,11.1315789 C3.36666757,11.7915142 1.88380821,11.6962243 0.802941176,10.8907895 C0.391763532,10.5595556 0.153750974,10.0714452 0.152352941,9.55657895 C0.150302802,9.52503058 0.150302802,9.49339047 0.152352941,9.46184211 C0.152352941,9.46184211 0.168823529,9.43421053 0.181176471,9.40263158 Z" id="Path"></path>
                <path d="M14.9964706,9.375 L20.4111765,9.375 C20.6129412,9.375 20.6705882,9.46184211 20.6211765,9.65131579 C20.5192424,10.0727671 20.2832743,10.4534621 19.9458824,10.7407895 C19.3910834,11.2082378 18.6901169,11.4859152 17.9529412,11.5302632 C17.1732221,11.6227807 16.3861943,11.4249765 15.7541176,10.9776316 C15.285039,10.6583822 14.9986421,10.1472454 14.98,9.59605263 C14.9814582,9.52214319 14.986956,9.44835778 14.9964706,9.375 L14.9964706,9.375 Z" id="Path"></path>
                <path d="M18.2082353,4.88289474 L17.57,5.85394737 C17.0045098,6.71973684 16.4376471,7.58421053 15.8694118,8.44736842 C15.7829412,8.58157895 15.6882353,8.7 15.4988235,8.69210526 C15.3999251,8.70308088 15.3021202,8.66435209 15.2401307,8.58966808 C15.1781412,8.51498406 15.1607449,8.41492007 15.1941176,8.325 C15.2131108,8.24504647 15.2465567,8.16889728 15.2929412,8.1 L17.9241176,4.05394737 C17.9993154,3.90140123 18.1598846,3.80442591 18.3358824,3.80525778 C18.4843498,3.80776415 18.6141448,3.90188241 18.6570588,4.03815789 C19.3158824,5.41184211 19.9733333,6.78289474 20.6294118,8.15131579 C20.6866248,8.2318796 20.7049583,8.33213051 20.6797449,8.42654718 C20.6545316,8.52096384 20.5882039,8.60043775 20.4976471,8.64473684 C20.4074106,8.70313914 20.2937559,8.71740166 20.1908789,8.68323317 C20.0880019,8.64906467 20.0079119,8.57045382 19.9747059,8.47105263 C19.7729412,8.07631579 19.5629412,7.68157895 19.3858824,7.28684211 L18.3070588,5.03684211 C18.27,4.98157895 18.2452941,4.94605263 18.2082353,4.88289474 Z" id="Path"></path>
                <path d="M3.38470588,4.87894737 L3.13764706,5.25 L1.07882353,8.38815789 C0.992352941,8.51842105 0.914117647,8.67631579 0.737058824,8.68026316 C0.617298639,8.69013689 0.498469661,8.65311451 0.407647059,8.57763158 C0.319266655,8.44385005 0.329189347,8.27104226 0.432352941,8.14736842 C0.687647059,7.75263158 0.951176471,7.33815789 1.21470588,6.93552632 C1.82411765,5.99868421 2.43490196,5.06315789 3.04705882,4.12894737 C3.06339973,4.10044984 3.08126672,4.07278133 3.10058824,4.04605263 C3.31882353,3.72236842 3.64,3.71842105 3.80058824,4.04605263 C3.96117647,4.37368421 4.09705882,4.65394737 4.24117647,4.96184211 C4.73941176,5.99210526 5.23352941,7.02631579 5.72764706,8.05657895 C5.75790154,8.11130298 5.78404629,8.16802582 5.80588235,8.22631579 C5.86114685,8.37994154 5.79929266,8.54985326 5.65632029,8.63715859 C5.51334792,8.72446392 5.32657434,8.70637544 5.20470588,8.59342105 C5.14708722,8.52664657 5.09992515,8.45218015 5.06470588,8.37236842 C4.53215686,7.26710526 3.99960784,6.16184211 3.46705882,5.05657895 C3.45470588,5.00526316 3.43,4.96184211 3.38470588,4.87894737 Z" id="Path"></path>
            </g>
            <path d="M112.546837,122 L115.10514,122.359666 C116.10057,122.498037 116.850574,123.356884 116.874822,124.386169 L116.999341,129.854633 C117.013783,130.43749 116.790275,131.000087 116.382691,131.406819 C115.975107,131.81355 115.42042,132.027521 114.852329,131.997157 L108,131.641359 L112.546837,122 Z" id="Path" fill="#2BA8E0" fill-rule="nonzero"></path>
            <path d="M108.963351,111.172601 C108.971429,111.100044 109.01891,111.038197 109.086284,111.01247 C109.153659,110.986744 109.229566,111.001478 109.282815,111.050617 L111.2898,113.002354 C111.46629,113.241389 111.563648,113.530954 111.567922,113.829555 L111.624298,116.436953 C111.636342,117.002015 111.907304,117.529114 112.357186,117.862636 L113.860546,118.968112 C114.408281,119.372194 114.751059,120.0019 114.796388,120.687318 L114.995583,123.736907 C115.033494,124.322326 114.826047,124.896787 114.424306,125.318881 L108.219187,130 L98.2631852,124.282021 C96.5629043,123.305431 95.6870777,121.320243 96.102105,119.383619 L97.2296251,114.187882 C97.3263854,113.742158 97.6003909,113.356777 97.9868131,113.122917 C98.3732353,112.889057 98.8377432,112.827496 99.2704364,112.952798 L108.106435,115.525889 C108.208799,115.581371 108.331778,115.581063 108.433871,115.525071 C108.535963,115.469078 108.603549,115.36487 108.613819,115.247614 L108.963351,111.172601 Z" id="Path" fill="#2BA8E0" fill-rule="nonzero"></path>
            <polygon id="Path" fill="url(#linearGradient-30)" fill-rule="nonzero" opacity="0.6" style="mix-blend-mode: multiply;" points="137 95 120 123.04104 127.384303 124 132.820929 122.07829 135.834461 109.596654"></polygon>
            <path d="M120.319856,140.992366 L135.211581,142.987841 C135.571471,143.039198 135.935341,142.926244 136.204363,142.67966 L143.925149,135.710905 C144.247908,135.430201 144.474996,135.054204 144.574276,134.636122 L147.831364,120.81418 C147.950229,120.31605 148.006673,119.804842 147.999373,119.292534 L147.667173,92.0569904 L144.417722,88.6515844 C143.715511,87.9135383 142.590868,87.787109 141.744848,88.3511074 L138.976515,90.1809353 C138.270148,90.6489406 137.795121,91.3986314 137.670625,92.2418993 L133.852234,118.287091 C133.793909,118.753592 133.56846,119.182457 133.218381,119.492852 L129.365624,122.882848 C129.028814,123.180847 128.579308,123.314642 128.136102,123.248814 L128.082645,123.248814 L117.043676,121.584634 L118.250288,130.244535 C118.3152,130.69525 117.139136,130.244535 116.848938,130.583535 L113,137.086165 L117.276598,138.342005 C117.944485,138.49717 118.484115,138.991963 118.700858,139.647924 L118.700858,139.647924 C118.938915,140.373187 119.568616,140.8961 120.319856,140.992366 Z" id="Path" fill="#9DADB7" fill-rule="nonzero"></path>
        </g>
    </g>
</svg>