<?xml version="1.0" encoding="UTF-8"?>
<svg width="440px" height="330px" viewBox="0 0 440 330" version="1.1" xmlns="http://www.w3.org/2000/svg" xmlns:xlink="http://www.w3.org/1999/xlink">
    <title>Graphic elements / Icons / Rich icons / Marketplace / Practice-Fire-and-Life-Safety</title>
    <defs>
        <linearGradient x1="-0.152531981%" y1="49.8900064%" x2="100%" y2="49.8900064%" id="linearGradient-1">
            <stop stop-color="#FFFFFF" offset="0%"></stop>
            <stop stop-color="#0099DA" offset="100%"></stop>
        </linearGradient>
        <linearGradient x1="-2.47473954%" y1="153.45502%" x2="206.41005%" y2="-186.701434%" id="linearGradient-2">
            <stop stop-color="#FFFFFF" offset="0%"></stop>
            <stop stop-color="#0099DA" offset="100%"></stop>
        </linearGradient>
        <linearGradient x1="0%" y1="49.971478%" x2="99.9995138%" y2="49.971478%" id="linearGradient-3">
            <stop stop-color="#FFFFFF" offset="0%"></stop>
            <stop stop-color="#0099DA" offset="100%"></stop>
        </linearGradient>
        <linearGradient x1="0%" y1="50.0148236%" x2="100%" y2="50.0148236%" id="linearGradient-4">
            <stop stop-color="#FFFFFF" offset="0%"></stop>
            <stop stop-color="#0099DA" offset="100%"></stop>
        </linearGradient>
        <linearGradient x1="5.22457894e-13%" y1="50%" x2="100%" y2="50%" id="linearGradient-5">
            <stop stop-color="#FFFFFF" stop-opacity="0" offset="0%"></stop>
            <stop stop-color="#FBFBFC" stop-opacity="0.04" offset="10%"></stop>
            <stop stop-color="#EFF2F3" stop-opacity="0.16" offset="24%"></stop>
            <stop stop-color="#DCE2E6" stop-opacity="0.35" offset="41%"></stop>
            <stop stop-color="#C2CCD2" stop-opacity="0.62" offset="61%"></stop>
            <stop stop-color="#A1B1BA" stop-opacity="0.96" offset="82%"></stop>
            <stop stop-color="#9DADB7" offset="85%"></stop>
        </linearGradient>
        <linearGradient x1="0%" y1="50%" x2="100%" y2="50%" id="linearGradient-6">
            <stop stop-color="#FFFFFF" stop-opacity="0" offset="0%"></stop>
            <stop stop-color="#FBFBFC" stop-opacity="0.04" offset="10%"></stop>
            <stop stop-color="#EFF2F3" stop-opacity="0.16" offset="24%"></stop>
            <stop stop-color="#DCE2E6" stop-opacity="0.35" offset="41%"></stop>
            <stop stop-color="#C2CCD2" stop-opacity="0.62" offset="61%"></stop>
            <stop stop-color="#A1B1BA" stop-opacity="0.96" offset="82%"></stop>
            <stop stop-color="#9DADB7" offset="85%"></stop>
        </linearGradient>
        <linearGradient x1="0%" y1="50.0322956%" x2="100.007309%" y2="50.0322956%" id="linearGradient-7">
            <stop stop-color="#FFFFFF" stop-opacity="0" offset="0%"></stop>
            <stop stop-color="#FBFBFC" stop-opacity="0.04" offset="10%"></stop>
            <stop stop-color="#EFF2F3" stop-opacity="0.16" offset="24%"></stop>
            <stop stop-color="#DCE2E6" stop-opacity="0.35" offset="41%"></stop>
            <stop stop-color="#C2CCD2" stop-opacity="0.62" offset="61%"></stop>
            <stop stop-color="#A1B1BA" stop-opacity="0.96" offset="82%"></stop>
            <stop stop-color="#9DADB7" offset="85%"></stop>
        </linearGradient>
        <linearGradient x1="0%" y1="49.9930596%" x2="100%" y2="49.9930596%" id="linearGradient-8">
            <stop stop-color="#FFFFFF" offset="0%"></stop>
            <stop stop-color="#0099DA" offset="100%"></stop>
        </linearGradient>
    </defs>
    <g id="Graphic-elements-/-Icons-/-Rich-icons-/-Marketplace-/-Practice-Fire-and-Life-Safety" stroke="none" stroke-width="1" fill="none" fill-rule="evenodd">
        <g id="fireand-life-safety" transform="translate(60.000000, 0.000000)">
            <g id="Midlayer">
                <path d="M301.277633,9.0930044 L258.198937,9.0930044 C257.777574,9.09041952 257.37271,9.2565256 257.074755,9.55426027 C256.7768,9.85199494 256.610571,10.2565597 256.613158,10.6776119 L256.613158,36.3916418 C256.615221,36.816449 256.791598,37.2218163 257.101111,37.5130348 C257.240251,37.657123 257.405924,37.7730087 257.589034,37.8543284 C257.785658,37.9349465 257.996164,37.9763541 258.208696,37.9762189 L270.484831,37.9762189 L270.484831,44.9337313 L272.226715,43.1931343 L273.953961,41.4427861 L275.676329,39.7168159 L277.413333,37.9762189 L301.262995,37.9762189 C301.475527,37.9763541 301.686033,37.9349465 301.882657,37.8543284 C302.064464,37.7707222 302.229736,37.6551167 302.37058,37.5130348 C302.680093,37.2218163 302.85647,36.816449 302.858502,36.3916418 L302.858502,10.6776119 C302.85647,10.2528047 302.680093,9.84743744 302.37058,9.55621891 C302.228505,9.41560326 302.063506,9.3001892 301.882657,9.21492537 C301.690593,9.13615604 301.485236,9.09478402 301.277633,9.0930044 Z" id="Path" fill="#FFFFFF" fill-rule="nonzero"></path>
                <polygon id="Path" fill="#003A5D" fill-rule="nonzero" opacity="0.3" style="mix-blend-mode: multiply;" points="280.71657 27.878806 280.106667 28.4931343 279.491884 29.1074627 278.877101 29.7412935 278.262319 30.3556219 276.935169 29.0294527 275.608019 27.698408 274.28087 26.3722388 272.958599 25.0460697 273.568502 24.4317413 274.183285 23.8174129 274.798068 23.2030846 275.41285 22.5887562 276.125217 23.300597 276.837585 24.0124378 277.549952 24.7242786 278.262319 25.440995 280.21401 23.4907463 282.1657 21.5404975 284.117391 19.5902488 286.069082 17.64 286.683865 18.2543284 287.298647 18.8686567 287.840242 19.5024876 288.455024 20.1168159 286.503333 22.0670647 284.551643 24.0173134 282.599952 25.9675622"></polygon>
                <polygon id="Path" fill="#0097D7" fill-rule="nonzero" points="280.667778 26.5721393 280.067633 27.1864677 279.438213 27.7910448 278.828309 28.4053731 278.213527 29.0197015 276.886377 27.6886567 275.559227 26.3624876 274.21256 25.0460697 272.885411 23.7199005 273.500193 23.1055721 274.114976 22.4912438 274.729758 21.8720398 275.344541 21.2577114 276.056908 21.9744279 276.769275 22.6862687 277.501159 23.4029851 278.213527 24.1148259 280.165217 22.1645771 282.116908 20.2143284 284.068599 18.2640796 286.02029 16.3138308 286.635072 16.9281592 287.249855 17.5424876 287.864638 18.1568159 288.474541 18.7711443 286.52285 20.721393 284.571159 22.6716418 282.619469 24.6218905"></polygon>
                <rect id="Rectangle" stroke="#023852" x="157.603913" y="26.1820896" width="32.6078744" height="53.0857711" rx="5.24"></rect>
                <rect id="Rectangle" stroke="#023852" x="161.658551" y="31.1259701" width="24.498599" height="17.8447761"></rect>
                <polyline id="Path" stroke="#023852" points="121.785507 128.150846 1.1905314 128.150846 1.1905314 132.241493 121.785507 132.241493"></polyline>
                <polyline id="Path" stroke="#023852" points="1.1905314 131.90995 1.1905314 280.709055 12.2614976 280.709055"></polyline>
                <path d="M54.7595652,233.893333 L152.344106,233.893333 C152.667473,233.893333 152.929614,234.15528 152.929614,234.478408 L152.929614,237.340398 C152.929614,237.663526 152.667473,237.925473 152.344106,237.925473 L54.7595652,237.925473 L54.7595652,233.888458 L54.7595652,233.893333 Z" id="Path" stroke="#023852"></path>
                <path d="M142.566135,233.893333 L142.566135,184.357015 C142.566135,184.070394 142.451861,183.795583 142.248583,183.59337 C142.045304,183.391156 141.769777,183.278206 141.482947,183.279491 L66.2013527,183.279491 C65.6058189,183.279491 65.1230435,183.761921 65.1230435,184.357015 L65.1230435,233.893333" id="Path" stroke="#023852"></path>
                <path d="M139.428792,233.893333 L139.428792,187.438408 C139.428792,187.151787 139.314518,186.876976 139.11124,186.674763 C138.907961,186.472549 138.632434,186.359599 138.345604,186.360884 L69.3386957,186.360884 C68.7431619,186.360884 68.2603865,186.843314 68.2603865,187.438408 L68.2603865,233.893333" id="Path" stroke="#023852"></path>
                <path d="M10.9197101,137.034229 L10.9197101,201.748358 C10.9330732,203.153307 12.0752552,204.28595 13.4813043,204.288557 L57.1601449,204.288557 C58.5748743,204.288557 59.7217391,205.434575 59.7217391,206.848259 L59.7217391,233.873831" id="Path" stroke="#023852"></path>
                <line x1="10.9197101" y1="91.1253731" x2="10.9197101" y2="132.45602" id="Path" stroke="#023852"></line>
                <line x1="66.4892271" y1="96.4641791" x2="66.4892271" y2="127.877811" id="Path" stroke="#023852"></line>
                <line x1="66.4892271" y1="45.3140299" x2="66.4892271" y2="68.3610945" id="Path" stroke="#023852"></line>
                <path d="M64.3765217,68.5756161 L68.5970531,68.5756161 C73.1565239,68.5756161 76.8527053,72.2690722 76.8527053,76.8251741 L76.8527053,96.1960199 L56.1111111,96.1960199 L56.1111111,76.8251741 C56.1111111,74.6355663 56.9822384,72.5357813 58.5325848,70.9884095 C60.0829311,69.4410377 62.1852964,68.5730337 64.3765217,68.5756161 Z" id="Path" stroke="#023852"></path>
                <line x1="56.2086957" y1="85.2795025" x2="76.6282609" y2="85.2795025" id="Path" stroke="#023852"></line>
                <path d="M56.1111111,81.4911443 C56.258217,81.8119194 56.6089976,81.9870618 56.9540305,81.9120081 C57.2990633,81.8369544 57.5452464,81.5319568 57.5456039,81.1791045 L57.5456039,76.5472637 C57.5469034,76.3472836 57.4683123,76.1550481 57.3272562,76.0131809 C57.1862,75.8713137 56.9943351,75.7915423 56.7942029,75.7915423 C56.7229716,75.7925855 56.6522806,75.8040848 56.5843961,75.8256716" id="Path" stroke="#023852"></path>
                <rect id="Rectangle" stroke="#023852" x="60.8683575" y="75.8012935" width="1.50768116" height="6.12865672" rx="0.75384058"></rect>
                <rect id="Rectangle" stroke="#023852" x="65.6792754" y="75.8012935" width="1.50768116" height="6.12865672" rx="0.75384058"></rect>
                <rect id="Rectangle" stroke="#023852" x="70.4901932" y="75.8012935" width="1.50768116" height="6.12865672" rx="0.75384058"></rect>
                <path d="M76.394058,75.8793035 C76.2906722,75.8288889 76.1773058,75.8022342 76.0622705,75.8012776 C75.861294,75.7999852 75.6681695,75.8791854 75.5260546,76.0211952 C75.3839398,76.1632051 75.304681,76.3561869 75.3059903,76.5570149 L75.3059903,81.1791045 C75.3376233,81.5716883 75.6656854,81.8741738 76.0598309,81.8741738 C76.4539765,81.8741738 76.7820385,81.5716883 76.8136715,81.1791045" id="Path" stroke="#023852"></path>
                <path d="M20.7415942,265.931045 L24.9621256,265.931045 C29.5215964,265.931045 33.2177778,269.624495 33.2177778,274.180597 L33.2177778,293.551443 L12.4908213,293.551443 L12.4908213,274.180597 C12.4908213,269.626398 16.184029,265.933736 20.7415942,265.931045 L20.7415942,265.931045 Z" id="Path" stroke="#023852"></path>
                <line x1="12.5737681" y1="282.634925" x2="32.9933333" y2="282.634925" id="Path" stroke="#023852"></line>
                <path d="M12.4908213,278.846567 C12.6383007,279.168187 12.9904439,279.343304 13.3361334,279.266933 C13.6818229,279.190561 13.9272659,278.883422 13.9253256,278.529652 L13.9253256,273.907562 C13.9253256,273.492882 13.5889003,273.156716 13.173913,273.156716 C13.1026818,273.15776 13.0319907,273.169259 12.9641063,273.190846" id="Path" stroke="#023852"></path>
                <rect id="Rectangle" stroke="#023852" x="17.2285507" y="273.156716" width="1.50768116" height="6.12865672" rx="0.75384058"></rect>
                <rect id="Rectangle" stroke="#023852" x="22.0443478" y="273.156716" width="1.50768116" height="6.12865672" rx="0.75384058"></rect>
                <rect id="Rectangle" stroke="#023852" x="26.8552657" y="273.156716" width="1.50768116" height="6.12865672" rx="0.75384058"></rect>
                <path d="M32.7591304,273.234726 C32.6542057,273.183758 32.5391284,273.157094 32.4224638,273.156716 C32.0074765,273.156716 31.6710628,273.492882 31.6710628,273.907562 L31.6710628,278.529652 C31.6482121,278.813242 31.7866879,279.085624 32.0293604,279.234425 C32.272033,279.383225 32.5777738,279.383225 32.8204463,279.234425 C33.0631189,279.085624 33.2015946,278.813242 33.178744,278.529652" id="Path" stroke="#023852"></path>
                <path d="M67.4162802,265.931045 L71.6368116,265.931045 C76.1962824,265.931045 79.8924638,269.624495 79.8924638,274.180597 L79.8924638,293.551443 L59.160628,293.551443 L59.160628,274.180597 C59.160628,269.624495 62.8568094,265.931045 67.4162802,265.931045 L67.4162802,265.931045 Z" id="Path" stroke="#023852"></path>
                <line x1="59.2435749" y1="282.634925" x2="79.6680193" y2="282.634925" id="Path" stroke="#023852"></line>
                <path d="M59.160628,278.846567 C59.2910965,279.19987 59.6619659,279.403271 60.0302877,279.323527 C60.3986094,279.243783 60.6519691,278.905232 60.6243961,278.529652 L60.6243961,273.907562 C60.6288097,273.667023 60.5161002,273.439309 60.3221061,273.296829 C60.128112,273.154349 59.8769755,273.114833 59.6485507,273.190846" id="Path" stroke="#023852"></path>
                <rect id="Rectangle" stroke="#023852" x="63.9032367" y="273.156716" width="1.50768116" height="6.12865672" rx="0.75384058"></rect>
                <rect id="Rectangle" stroke="#023852" x="68.7141546" y="273.156716" width="1.50768116" height="6.12865672" rx="0.75384058"></rect>
                <rect id="Rectangle" stroke="#023852" x="73.5299517" y="273.156716" width="1.50768116" height="6.12865672" rx="0.75384058"></rect>
                <path d="M79.4289372,273.234726 C79.3259639,273.183166 79.2123274,273.156447 79.0971498,273.156714 C78.6813658,273.156714 78.343552,273.492094 78.3408696,273.907562 L78.3408696,278.529652 C78.3408696,278.947025 78.6794677,279.285373 79.0971498,279.285373 C79.5148318,279.285373 79.85343,278.947025 79.85343,278.529652" id="Path" stroke="#023852"></path>
                <path d="M64.3765217,17.3279544 L68.5970531,17.3279544 C73.1565239,17.3279544 76.8527053,21.0214105 76.8527053,25.5775124 L76.8527053,44.9434826 L56.1111111,44.9434826 L56.1111111,25.5775124 C56.1111111,23.3879046 56.9822384,21.2881196 58.5325848,19.7407478 C60.0829311,18.1933761 62.1852964,17.325372 64.3765217,17.3279544 Z" id="Path" stroke="#023852"></path>
                <line x1="56.2086957" y1="34.0318408" x2="76.6282609" y2="34.0318408" id="Path" stroke="#023852"></line>
                <path d="M56.1111111,30.2288557 C56.2585906,30.5504754 56.6107338,30.7255929 56.9564233,30.6492215 C57.3021128,30.57285 57.5475558,30.2657107 57.5456154,29.9119403 L57.5456154,25.3044776 C57.5456154,24.8890009 57.2099782,24.5514367 56.7942029,24.5487562 C56.7229716,24.5497994 56.6522806,24.5612987 56.5843961,24.5828856" id="Path" stroke="#023852"></path>
                <rect id="Rectangle" stroke="#023852" x="60.8683575" y="24.5487562" width="1.50768116" height="6.12865672" rx="0.75384058"></rect>
                <rect id="Rectangle" stroke="#023852" x="65.6792754" y="24.5487562" width="1.50768116" height="6.12865672" rx="0.75384058"></rect>
                <rect id="Rectangle" stroke="#023852" x="70.4901932" y="24.5487562" width="1.50768116" height="6.12865672" rx="0.75384058"></rect>
                <path d="M76.394058,24.6316418 C76.2910093,24.5796947 76.1776596,24.5513782 76.0622705,24.5487562 C75.6445885,24.5487562 75.3059903,24.8871042 75.3059903,25.3044776 L75.3059903,29.9265672 C75.2831397,30.2101571 75.4216154,30.4825394 75.664288,30.6313401 C75.9069605,30.7801408 76.2127013,30.7801408 76.4553739,30.6313401 C76.6980464,30.4825394 76.8365222,30.2101571 76.8136715,29.9265672" id="Path" stroke="#023852"></path>
                <line x1="75.6182609" y1="194.498308" x2="93.8372947" y2="194.498308" id="Path" stroke="#023852"></line>
                <line x1="75.6182609" y1="196.663085" x2="93.8372947" y2="196.663085" id="Path" stroke="#023852"></line>
                <line x1="75.6182609" y1="198.827861" x2="93.8372947" y2="198.827861" id="Path" stroke="#023852"></line>
                <line x1="75.6182609" y1="200.987761" x2="93.8372947" y2="200.987761" id="Path" stroke="#023852"></line>
                <line x1="108.63599" y1="273.658905" x2="132.924783" y2="273.658905" id="Path" stroke="#023852"></line>
                <line x1="108.63599" y1="276.901194" x2="132.924783" y2="276.901194" id="Path" stroke="#023852"></line>
                <line x1="108.63599" y1="280.143483" x2="132.924783" y2="280.143483" id="Path" stroke="#023852"></line>
                <line x1="108.63599" y1="283.385771" x2="132.924783" y2="283.385771" id="Path" stroke="#023852"></line>
                <line x1="138.257778" y1="84.060597" x2="147.377053" y2="84.060597" id="Path" stroke="#023852"></line>
                <line x1="138.257778" y1="86.9908458" x2="147.377053" y2="86.9908458" id="Path" stroke="#023852"></line>
                <line x1="25.2987923" y1="84.060597" x2="34.4180676" y2="84.060597" id="Path" stroke="#023852"></line>
                <line x1="25.2987923" y1="86.9908458" x2="34.4180676" y2="86.9908458" id="Path" stroke="#023852"></line>
                <line x1="138.257778" y1="46.96199" x2="147.377053" y2="46.96199" id="Path" stroke="#023852"></line>
                <line x1="138.257778" y1="49.8922388" x2="147.377053" y2="49.8922388" id="Path" stroke="#023852"></line>
                <line x1="138.257778" y1="10.3363184" x2="147.377053" y2="10.3363184" id="Path" stroke="#023852"></line>
                <line x1="138.257778" y1="13.2665672" x2="147.377053" y2="13.2665672" id="Path" stroke="#023852"></line>
                <line x1="121.600097" y1="96.9371144" x2="121.600097" y2="132.3" id="Path" stroke="#023852"></line>
                <line x1="121.600097" y1="61.1012935" x2="121.600097" y2="72.2664677" id="Path" stroke="#023852"></line>
                <line x1="121.600097" y1="25.1094527" x2="121.600097" y2="36.2746269" id="Path" stroke="#023852"></line>
                <ellipse id="Oval" stroke="#023852" cx="121.600097" cy="84.4945274" rx="12.3883575" ry="12.379204"></ellipse>
                <ellipse id="Oval" stroke="#023852" cx="121.600097" cy="84.4945274" rx="3.2642029" ry="3.26179104"></ellipse>
                <ellipse id="Oval" stroke="#023852" cx="121.600097" cy="48.561194" rx="12.3883575" ry="12.379204"></ellipse>
                <ellipse id="Oval" stroke="#023852" cx="121.600097" cy="48.561194" rx="3.2642029" ry="3.26179104"></ellipse>
                <ellipse id="Oval" stroke="#023852" cx="121.600097" cy="12.6229851" rx="12.3883575" ry="12.379204"></ellipse>
                <ellipse id="Oval" stroke="#023852" cx="121.600097" cy="12.6229851" rx="3.2642029" ry="3.26179104"></ellipse>
                <rect id="Rectangle" stroke="#023852" x="0.243961353" y="54.0706468" width="20.4293237" height="37.4252736"></rect>
                <rect id="Rectangle" stroke="#023852" x="3.96193237" y="59.6922388" width="12.9933816" height="6.1481592"></rect>
                <rect id="Rectangle" stroke="#023852" x="100.853623" y="265.287463" width="38.1994686" height="28.380995"></rect>
                <path d="M173.871256,78.9070647 L174.188406,142.587562 C174.188406,143.924465 173.111013,145.012004 171.773188,145.025373 L35.3109662,145.025373 C33.9730749,145.025373 32.8847316,143.948776 32.8713527,142.61194 L32.8713527,132.031841" id="Path" stroke="#023852"></path>
                <line x1="33.6569082" y1="280.631045" x2="58.8532367" y2="280.631045" id="Path" stroke="#023852"></line>
                <line x1="79.85343" y1="280.631045" x2="100.448647" y2="280.631045" id="Path" stroke="#023852"></line>
                <polyline id="Path" stroke="#023852" points="81.7953623 85.3721393 84.4447826 88.0244776 89.2849758 83.1878607"></polyline>
                <polyline id="Path" stroke="#023852" points="81.7953623 32.8568159 84.4447826 35.5042786 89.2849758 30.6676617"></polyline>
                <polyline id="Path" stroke="#023852" points="170.3143 40.1312438 172.96372 42.7787065 177.803913 37.9420896"></polyline>
                <path d="M139.272657,194.70796 L128.811594,210.553731 C127.269463,212.799958 124.706473,214.12807 121.980676,214.093433 L121.302464,214.093433 C118.131342,214.150382 115.224404,212.334887 113.886039,209.461592 L113.100483,207.701493 C111.758461,204.829155 108.851009,203.014534 105.679179,203.069652 C102.131981,203.069652 99.0092754,205.234428 98.0041546,208.379204 L94.1007729,220.534129 C93.0956522,223.683781 89.9680676,225.843682 86.4208696,225.843682 L79.102029,225.843682 C72.7590338,225.843682 67.9578744,233.722687 67.9578744,233.722687" id="Path" stroke="#023852"></path>
            </g>
            <g id="Ilus" transform="translate(163.000000, 49.000000)" fill-rule="nonzero">
                <path d="M27.8553106,28.7841739 C27.7948369,28.5478152 27.7492399,28.3078817 27.7187888,28.0657913 L27.016677,22.3773739 C26.8255758,20.8406702 26.1148712,19.4160016 25.0029814,18.3407478 L13.3352484,6.35304348 C12.7192181,5.74987907 11.7385736,5.73981368 11.1103486,6.33020698 C10.4821235,6.92060029 10.4290788,7.90210603 10.99,8.55706087 L15.1685404,13.2094435 C15.53202,13.6110632 15.6024253,14.1991192 15.3440683,14.6755304 L13.3937578,18.3700696 C12.3924601,20.2614717 12.1084051,22.4523212 12.5941304,24.5374087 L12.8720497,25.7200522 C13.2729565,27.4369446 14.1621465,29.0004146 15.4318323,30.2209391 L15.6804969,30.4604 L25.4759317,30.4604 C26.5403734,30.4541737 27.4889754,29.7859021 27.8553106,28.7841739 L27.8553106,28.7841739 Z" id="Path" fill="url(#linearGradient-1)" style="mix-blend-mode: multiply;"></path>
                <rect id="Rectangle" fill="#D8DEE2" style="mix-blend-mode: multiply;" x="0.458322981" y="276.670157" width="156.127236" height="4.14413913" rx="2.07206957"></rect>
                <path d="M92.1863043,7.33043478 L91.3476708,5.78126957 C91.0690267,5.26881243 91.1088555,4.64149556 91.4500621,4.16857391 L93.044441,1.96944348 C93.5440969,1.28202722 94.3319439,0.863763283 95.1800311,0.835669565 L111.352981,0.298104348 C112.593858,0.256940165 113.813774,0.626158219 114.824534,1.3488 L120.621832,5.48316522 C121.998219,6.46730724 122.865168,8.01526987 122.986584,9.70549565 L123.786211,21.0823304 C123.85828,22.0962745 123.571721,23.1032632 122.976832,23.9265391 L118.72028,29.790887 C118.328044,30.3360016 118.067646,30.965065 117.959658,31.6283826 L117.959658,31.6625913 C117.686976,33.3350675 116.147222,34.4946868 114.468602,34.2917739 L112.723075,34.0816348 L96.8670497,25.1042957 L92.1863043,7.33043478 Z" id="Path" fill="#023852"></path>
                <path d="M123.786211,21.0676696 L122.986584,9.69083478 C122.865168,8.000609 121.998219,6.45264637 120.621832,5.46850435 L114.824534,1.33413913 C113.813774,0.611497349 112.593858,0.242279296 111.352981,0.283443478 L95.1800311,0.821008696 C94.3319439,0.849102413 93.5440969,1.26736635 93.044441,1.95478261 L91.4500621,4.15391304 C91.260094,4.42007347 91.1609123,4.74058225 91.1669797,5.06777391 C91.6636043,4.54576021 92.34486,4.24033529 93.0639441,4.21744348 L109.236894,3.67987826 C110.477581,3.64016792 111.697042,4.0092485 112.708447,4.73057391 L118.481366,8.86005217 C119.859815,9.84520157 120.728492,11.3948491 120.850994,13.0872696 L121.650621,24.4641043 C121.683353,24.9575493 121.63392,25.4530139 121.504348,25.9301913 L122.967081,23.9167652 C123.566535,23.0934733 123.856638,22.0844401 123.786211,21.0676696 L123.786211,21.0676696 Z" id="Path" fill="#305C71"></path>
                <path d="M46.2223602,266.0508 L37.68,270.449061 C37.1491292,270.720214 36.574771,270.895564 35.9832298,270.967078 L25.7440994,272.164383 C25.0244249,272.250882 24.4535276,272.81305 24.3545031,273.53273 L24.1497205,275.062348 C24.0432398,275.850662 24.5350513,276.596337 25.3004037,276.806991 L35.1055901,279.533913 C35.6987901,279.699495 36.3136735,279.773648 36.9291304,279.753826 L68.1340994,279.568122 C68.9173786,279.56421 69.5705242,278.966585 69.6455901,278.185113 L69.8503727,275.99087 L46.2223602,266.0508 Z" id="Path" fill="#023852"></path>
                <path d="M109.904876,266.373339 L103.36646,269.955478 C102.748956,270.295027 102.094557,270.562306 101.416149,270.752052 L92.6397516,273.18087 C91.9274383,273.380041 91.4225048,274.014132 91.386677,274.75447 L91.3232919,276.122817 C91.2925836,276.813613 91.6763896,277.456039 92.2984472,277.755061 L94.5656832,278.830191 C95.024747,279.047534 95.5214797,279.173662 96.0284161,279.2016 L113.561708,280.022609 C113.996383,280.043754 114.432074,280.025764 114.86354,279.968852 L133.523137,277.432522 C133.950654,277.375163 134.355757,277.206685 134.698199,276.943826 L134.698199,276.943826 C135.328957,276.453748 135.68045,275.685262 135.639224,274.886417 L135.483199,271.924922 L109.904876,266.373339 Z" id="Path" fill="#023852"></path>
                <path d="M83.4099068,19.2741565 L85.847795,20.4274783 C86.0732068,20.5365518 86.1882376,20.7918469 86.1208385,21.0334609 L85.5796273,22.5728522 C85.4182271,23.0271979 85.4815551,23.5313569 85.7502795,23.9314261 L85.9453106,24.2148696 C86.1065176,24.4600255 86.0438505,24.7892407 85.803913,24.957687 L85.4284783,25.2118087 C85.0181265,25.4975133 84.7739115,25.9669698 84.7751242,26.4677565 L84.7751242,28.3003652 C84.7748341,28.6182615 84.6741319,28.9279038 84.4874534,29.1849043 L83.6731988,30.3089043 C83.2795202,30.8294368 83.1045341,31.4836318 83.1856211,32.1317391 C83.2934518,32.8812069 83.7418634,33.5382193 84.3996894,33.9105913 L90.689441,37.4096522 C91.1278952,37.6542958 91.4456338,38.0700724 91.5670807,38.558087 L92.8542857,43.7626957 C92.9322981,44.065687 93.000559,43.7969043 93.2882298,43.6649565 L112.922981,34.4725913 L109.105248,27.5917565 C108.840834,27.1180199 108.741336,26.5695221 108.822453,26.0328174 L109.110124,24.0780348 C109.171365,23.6194605 109.378218,23.1928128 109.700093,22.8611826 C110.169589,22.3867191 110.405266,21.7281738 110.343696,21.0627826 L110.168168,19.1910783 C110.110244,18.5357098 109.727275,17.9535105 109.14913,17.641913 L108.939472,17.5246261 C108.386125,17.2187363 107.719207,17.2005225 107.150062,17.4757565 L103.127547,19.3963304 C102.590007,19.6520605 102.188467,20.1275341 102.025621,20.7011478 L102.025621,20.7353565 C101.86092,21.3076793 101.3098,21.6786836 100.718913,21.6150087 L99.6559938,21.4928348 C99.334985,21.4572627 99.0413469,21.2949597 98.8400391,21.0418308 C98.6387313,20.7887019 98.5463467,20.4656115 98.583323,20.1440348 L99.280559,13.9913565 C99.3310699,13.536437 99.5767048,13.1261069 99.9534161,12.8673565 L101.747702,11.6309565 C102.096121,11.3908808 102.334751,11.0215631 102.410807,10.6046957 L103.030031,7.18382609 C103.177677,6.34141556 102.635308,5.53246823 101.801335,5.35121739 L95.0483851,4.74034783 C94.764497,4.68235044 94.4694498,4.75004623 94.2390062,4.92605217 L92.0644099,6.67558261 C91.9780846,6.74023897 91.9038107,6.81964608 91.845,6.91015652 L88.8268944,11.4892348 C88.6438494,11.7681471 88.5565476,12.0992821 88.5782298,12.4324174 L88.5782298,12.5008348 C88.6114659,13.0492041 88.3515332,13.5739835 87.8956211,13.8789565 L83.2587578,16.977287 C82.8451166,17.2532802 82.6209387,17.7385393 82.6785404,18.2332348 L82.6785404,18.2625565 C82.7375316,18.7013965 83.0122082,19.0813194 83.4099068,19.2741565 L83.4099068,19.2741565 Z" id="Path" fill="#0099DA"></path>
                <path d="M106.803882,26.3162609 L108.793199,26.5948174 C108.771325,26.4081255 108.771325,26.2195093 108.793199,26.0328174 L109.08087,24.0780348 C109.148113,23.6139995 109.359684,23.183048 109.685466,22.8465217 L106.50646,25.2215826 C106.312176,25.3743936 106.228074,25.6289534 106.292964,25.8677847 C106.357854,26.106616 106.559121,26.2832852 106.803882,26.3162609 Z" id="Path" fill="url(#linearGradient-2)" style="mix-blend-mode: multiply;"></path>
                <path d="M83.3123913,32.6595304 C83.3897481,32.8690852 83.4964594,33.0665422 83.6293168,33.2459652 C83.8324215,33.5177319 84.0898095,33.7440869 84.3850621,33.9105913 L90.6748137,37.4096522 C90.8454311,37.5054289 90.9987263,37.6293376 91.1282609,37.7761739 C91.4146813,38.0909201 91.8914742,38.1393403 92.2350621,37.8885739 L99.6413665,32.5617913 C99.9512163,32.3398808 100.072988,31.9365763 99.9378931,31.5797044 C99.8027981,31.2228325 99.4447561,31.001997 99.0660248,31.0419478 L83.3123913,32.6595304 Z" id="Path" fill="url(#linearGradient-3)" style="mix-blend-mode: multiply;"></path>
                <path d="M66.768882,71.8773565 L68.2316149,74.3208348 C68.4661066,74.7083129 68.8393079,74.9914775 69.2750311,75.1125217 L70.1282919,75.3422087 L71.0156832,71.0612348 L66.768882,71.8773565 Z" id="Path" fill="#26A8E0"></path>
                <path d="M14.3884161,4.15391304 L14.3884161,4.15391304 C13.8297218,4.77066801 13.8297218,5.71185373 14.3884161,6.3286087 L18.5669565,10.9809913 C18.9318484,11.381964 19.0023663,11.9709609 18.7424845,12.4470783 L16.7921739,16.1416174 C15.7886372,18.0305392 15.5044455,20.2207072 15.9925466,22.3040696 L16.2704658,23.486713 C16.6691769,25.2058769 17.5586304,26.7715086 18.8302484,27.992487 L22.2432919,31.2862957 C22.9033951,31.9247924 23.4044569,32.7099154 23.7060248,33.5782783 L29.9323913,51.3130435 C29.9909006,51.4792 30.0542857,51.6404696 30.1274224,51.8017391 L38.3284783,69.6098087 C38.8144204,70.6336767 39.8262378,71.3034967 40.9565217,71.3495652 L70.6646273,72.5957391 L70.9376708,69.6635652 L59.7233851,56.1120348 L52.048913,58.0961391 C51.329069,58.2766943 50.5698435,58.0255754 50.0986025,57.4510609 L39.0062112,43.8799826 C38.3078645,43.0207578 37.7349185,42.0664006 37.3045652,41.0455478 L31.5170186,27.4109391 C31.3047903,26.9102451 31.1636444,26.3822018 31.0977019,25.8422261 L30.3955901,20.1489217 C30.2041832,18.6137226 29.4934387,17.1906992 28.3818944,16.1171826 L16.723913,4.1245913 C16.4160742,3.80709733 15.9915486,3.63040884 15.5498747,3.63582728 C15.1082007,3.64149911 14.6882239,3.82879017 14.3884161,4.15391304 L14.3884161,4.15391304 Z" id="Path" fill="#0099DA"></path>
                <polygon id="Path" fill="url(#linearGradient-4)" style="mix-blend-mode: multiply;" points="40.9565217 71.3642261 70.6646273 72.6104 70.9376708 69.683113 59.7087578 56.1266957"></polygon>
                <path d="M59.703882,56.1315826 L80.2699068,49.1823304 L73.136646,74.628713 L70.1429193,75.3617565 L70.693882,71.4521913 C70.8600595,70.308271 70.531979,69.1475803 69.7918634,68.2610087 L59.703882,56.1315826 Z" id="Path" fill="#FFFFFF"></path>
                <path d="M69.8308696,268.694643 C69.0702484,267.179687 69.3432919,263.665965 70.5671118,262.468661 L71.849441,261.183391 C72.5632706,260.466892 72.9752058,259.502923 73.0001242,258.490678 L74.204441,203.297391 C74.2142742,202.732701 74.3705434,202.180294 74.6578882,201.69447 L75.6037888,200.067113 C76.1191119,199.185018 76.2000564,198.1141 75.8231988,197.164261 L75.8231988,197.164261 C75.4321444,196.168737 75.5409319,195.045657 76.1157453,194.144122 L86.4133851,178.017165 C86.5159178,177.856973 86.6978359,177.766036 86.8871874,177.780321 C87.076539,177.794606 87.2428262,177.911812 87.3202795,178.085583 L101.460031,210.36393 C101.713832,210.952256 102.041533,211.505698 102.435186,212.010835 L106.131025,216.682765 C106.998299,217.774585 107.542278,219.088547 107.701025,220.475043 L112.391522,260.983026 C112.517163,262.080063 112.226498,263.184331 111.577267,264.07647 L109.9,266.368452 L124.819876,272.936522 C125.623216,273.291886 126.491806,273.474992 127.369907,273.474087 L134.990745,273.474087 C135.331885,273.474771 135.658077,273.333831 135.891796,273.084761 C136.125515,272.835691 136.245892,272.500734 136.224317,272.159496 L135.595342,261.896887 C135.581926,261.635951 135.663343,261.378987 135.824503,261.173617 L136.594876,260.196226 C137.198112,259.440218 137.526469,258.50088 137.526469,257.532835 L137.526469,254.229252 C137.534719,252.697507 137.371162,251.169665 137.038571,249.674609 L129.237329,215.377948 C129.079749,214.75057 128.857519,214.141312 128.574224,213.56 L121.748137,198.605913 C121.495875,198.053873 121.318762,197.470363 121.221553,196.871043 L115.068323,158.479113 C114.885237,157.132737 115.235261,155.768019 116.043478,154.677061 L124.819876,142.664922 L101.113851,125.521478 L69.0897516,133.604504 L65.1501242,143.339322 L50.5471739,186.544904 C50.2004171,187.569397 50.0257652,188.644483 50.0303416,189.726313 L50.0742236,199.358504 C50.0786908,200.073452 50.2107944,200.781827 50.4642857,201.450122 L51.439441,204.084191 C51.9351828,205.393585 51.9576099,206.835669 51.5028261,208.159913 L50.5276708,210.935704 C50.3130804,211.565065 50.2027288,212.225391 50.2009938,212.890487 L50.2009938,248.316035 C50.1946564,249.233043 50.3600437,250.143101 50.6885714,250.998974 L51.0006211,251.795548 C51.1617758,252.206507 51.175563,252.660801 51.0396273,253.080817 L49.8840683,256.594539 C49.7031111,257.136106 49.2899428,257.568149 48.757764,257.772296 L48.757764,257.772296 C47.881468,258.098765 47.3784095,259.021765 47.5778261,259.937217 L47.7387267,260.684922 C47.8807153,261.350976 47.6307996,262.039821 47.0951242,262.458887 L45.8761801,263.436278 C45.1225571,264.02359 44.9674511,265.103185 45.5251242,265.879757 L69.2799068,276.142365 C69.68441,276.142365 70.0153254,275.819501 70.0259006,275.414209 L69.8308696,268.694643 Z" id="Path" fill="#023852"></path>
                <path d="M93.5173913,42.8537217 L112.201366,34.277113 C112.538178,34.1224849 112.911305,34.0649491 113.278913,34.1109565 L114.219938,34.2282435 C114.57625,34.2704033 114.85793,34.5507125 114.902547,34.9075304 L115.921584,40.1170261 L128.559596,52.9990435 L135.000497,67.9531304 C135.146489,68.2930832 135.200312,68.6656522 135.156522,69.0331478 L132.786894,88.2242261 L127.745342,117.3456 L94.3657764,135.7792 L79.8603416,138.159148 C79.2423795,138.261066 78.6109581,138.247812 77.997795,138.120052 L74.5262422,137.396783 L75.2332298,58.7167826 L80.2699068,49.1627826 L88.4270807,46.426087 L87.3836646,44.3344696 C87.2532009,44.0652715 87.3561013,43.7408217 87.6177019,43.5965391 L92.1863043,41.0895304 L92.4837267,42.3503652 C92.5363988,42.566753 92.6825794,42.7483384 92.8824622,42.8456739 C93.0823449,42.9430094 93.3151167,42.9459598 93.5173913,42.8537217 Z" id="Path" fill="#FFFFFF"></path>
                <path d="M92.5471118,42.5165217 C92.5209883,42.4631825 92.4997721,42.4075667 92.4837267,42.3503652 L92.1863043,41.0895304 L87.6177019,43.5965391 C87.3561013,43.7408217 87.2532009,44.0652715 87.3836646,44.3344696 L88.4270807,46.426087 L88.4270807,46.426087 L83.7658385,71.7209739 L94.375528,51.4596522 L92.5471118,42.5165217 Z" id="Path" fill="url(#linearGradient-5)"></path>
                <polygon id="Path" fill="url(#linearGradient-6)" points="110.411957 77.3312 105.799472 73.2017217 105.107112 93.4581565 118.983571 104.810557 120.816863 99.1221391 114.51736 90.1057043"></polygon>
                <path d="M137.009317,249.669722 L129.208075,215.373061 C129.05957,214.748465 128.847162,214.140894 128.574224,213.56 L121.748137,198.605913 C121.495875,198.053873 121.318762,197.470363 121.221553,196.871043 L115.068323,158.479113 C114.885237,157.132737 115.235261,155.768019 116.043478,154.677061 L124.819876,142.664922 L114.414969,135.139009 L114.414969,135.139009 L113.873758,135.290504 L100.928571,162.432661 L107.267081,198.89913 C107.453006,199.981621 107.88511,201.006668 108.529907,201.894835 L115.009814,210.857513 C115.600463,211.673109 116.01404,212.60371 116.223882,213.589322 L137.540776,254.224365 L137.540776,254.224365 C137.53495,252.690957 137.356671,251.163095 137.009317,249.669722 Z" id="Path" fill="#839DAA" opacity="0.6" style="mix-blend-mode: multiply;"></path>
                <path d="M127.745342,117.3456 L132.786894,88.2242261 L121.055776,106.50633 L105.107112,93.4581565 L105.931118,69.3312522 C105.99199,67.5018674 106.493865,65.7144514 107.393851,64.1217565 L113.785994,52.8426609 C114.432496,51.700147 115.592623,50.9437885 116.896739,50.8145739 L121.509224,50.3552 C122.562132,50.2565935 123.611837,50.5739808 124.434689,51.2397391 L127.360155,53.6050261 C127.799062,53.9606855 128.157969,54.4053519 128.413323,54.9098435 L135.059006,68.1583826 L131.772733,56.3417217 C131.113388,53.9552711 129.754554,51.8221172 127.872112,50.2183652 L115.921584,40.1170261 L108.193478,43.493913 C107.1105,43.9653616 106.292381,44.8945696 105.960373,46.0302435 L91.3720497,95.9211826 C90.9395354,97.3953384 90.7227423,98.9246008 90.7283375,100.461165 L90.8942236,146.63313 C90.8969081,147.20032 91.1381548,147.740066 91.5586452,148.119654 C91.9791356,148.499243 92.5398617,148.683459 93.1029503,148.627009 L126.619037,145.206139 C128.271215,145.033749 129.492093,143.583465 129.383602,141.922104 L127.745342,117.3456 Z" id="Path" fill="#023852"></path>
                <path d="M128.403571,54.8902957 C128.091585,54.2796374 127.656603,53.7404872 127.126118,53.3069217 L124.15677,50.8976522 C123.714341,50.5365777 123.187449,50.294392 122.625776,50.1939304 L118.603261,50.4431652 L125.390342,86.2792174 L128.184161,88.0238609 L132.69913,88.0238609 L135.088261,69.4876348 C135.190646,68.7027761 135.052929,67.9052545 134.693323,67.2005391 L128.403571,54.8902957 Z" id="Path" fill="url(#linearGradient-7)"></path>
                <polygon id="Path" fill="#FFE700" points="90.7869565 116.187391 90.8113354 123.850139 127.950124 120.3804 127.745342 117.3456 128.398696 113.57287"></polygon>
                <polygon id="Path" fill="#FFF166" style="mix-blend-mode: multiply;" points="104.049068 122.520887 104.005186 122.613739 127.950124 120.3804 127.745342 117.3456 128.398696 113.57287 104.31236 115.249096"></polygon>
                <polygon id="Path" fill="#FFE700" points="90.8649689 138.647843 128.92528 135.095026 128.442578 127.808574 90.8405901 130.980209"></polygon>
                <polygon id="Path" fill="#FFF166" style="mix-blend-mode: multiply;" points="97.0084472 138.07607 128.92528 135.095026 128.442578 127.808574 100.592143 130.154313"></polygon>
                <path d="M83.863354,97.3286261 L88.4270807,46.426087 L80.2699068,49.1823304 L75.2332298,58.7363304 L61.9759938,138.442591 C61.8972488,138.928586 62.0264639,139.425342 62.3319255,139.810939 L64.5650311,142.611165 C64.940524,143.081216 65.4780211,143.393295 66.071646,143.48593 L71.1570807,144.306939 C72.259871,144.488858 73.3117995,143.773796 73.551087,142.679583 L83.4342857,100.163061 C83.6434403,99.2295017 83.786817,98.2823526 83.863354,97.3286261 L83.863354,97.3286261 Z" id="Path" fill="#023852"></path>
                <polygon id="Path" fill="#FFE700" points="65.242764 118.8068 78.4512422 121.646122 79.8798447 115.488557 66.3349379 112.23873"></polygon>
                <polygon id="Path" fill="#FFE700" points="63.1754348 131.224557 75.6086646 133.897722 77.0372671 127.73527 64.2676087 124.671148"></polygon>
                <path d="M127.867236,50.2183652 L116.043478,40.2049913 L118.691025,50.6386435 L121.538478,50.3552 C122.591386,50.2565935 123.641092,50.5739808 124.463944,51.2397391 L127.38941,53.6050261 C127.828316,53.9606855 128.187224,54.4053519 128.442578,54.9098435 L135.059006,68.1583826 L131.772733,56.3417217 C131.112053,53.9546683 129.751476,51.8214447 127.867236,50.2183652 L127.867236,50.2183652 Z" id="Path" fill="#25546A"></path>
                <path d="M114.580745,90.0812696 L114.751398,89.8711304 C116.080966,87.9025925 118.236893,86.6528891 120.602329,86.4795826 L126.097329,86.0837391 C127.485358,85.9799297 128.875501,86.255218 130.119845,86.880313 L132.801522,88.2242261 L132.621118,101.814852 C132.615454,102.268498 132.539798,102.718534 132.396832,103.148991 L128.145155,116.104313 C127.396318,118.381082 126.495516,120.604781 125.448851,122.760348 L115.253602,143.774261 C114.923046,144.455308 114.708791,145.187099 114.619752,145.939183 L114.029783,151.11447 C113.900858,152.22861 113.592957,153.314509 113.118012,154.330087 L111.294472,158.215217 C111.095499,158.642201 110.962337,159.09698 110.899534,159.564017 L110.792267,160.341043 C110.529635,162.266531 109.100574,163.825538 107.208571,164.250609 L99.4658385,165.985478 C97.7195169,166.375902 95.961389,165.379807 95.3945652,163.678835 L94.7412112,161.724052 L94.8679814,160.072261 C94.9014397,159.628096 94.6594064,159.208904 94.2585093,159.016678 L94.2585093,159.016678 C93.9799556,158.890856 93.7677892,158.652426 93.6748048,158.360718 C93.5818205,158.06901 93.6167609,157.75145 93.7709317,157.487061 L95.8090062,154.066191 C95.876652,153.951732 95.9229154,153.825872 95.945528,153.694783 L96.3550932,151.33927 C96.6618121,149.601974 97.534611,148.015646 98.8368634,146.828609 L102.435186,143.549461 C103.390823,142.677114 104.167565,141.626357 104.721925,140.456017 L111.28472,126.61127 C112.149056,124.789376 112.668194,122.822401 112.815714,120.810452 L112.888851,119.833061 C112.996048,118.398282 113.235992,116.976585 113.60559,115.586296 L117.174658,102.200922 C117.468824,101.112831 117.468824,99.965882 117.174658,98.8777913 L114.580745,90.0812696 Z" id="Path" fill="#0099DA"></path>
                <path d="M125.429348,122.760348 C126.476013,120.604781 127.376815,118.381082 128.125652,116.104313 L132.377329,103.148991 C132.520295,102.718534 132.595951,102.268498 132.601615,101.814852 L132.786894,88.2242261 L130.105217,86.880313 C128.860873,86.255218 127.47073,85.9799297 126.082702,86.0837391 L125.439099,86.1277217 L127.569814,98.2278261 L122.830559,123.488504 L114.64413,140.006417 L115.536398,143.163391 L125.429348,122.760348 Z" id="Path" fill="url(#linearGradient-8)" style="mix-blend-mode: multiply;"></path>
                <path d="M82.1714596,163.336748 L77.2956832,157.4724 L65.701087,196.665791 L66.0228882,229.452383 L51.5954658,253.339826 C51.5838548,253.410874 51.5675666,253.481073 51.5467081,253.549965 L50.3911491,257.0588 C50.2114065,257.601102 49.7978075,258.033595 49.2648447,258.236557 C48.390016,258.564724 47.8877083,259.486346 48.0849068,260.401478 L48.2458075,261.149183 C48.3864957,261.814112 48.1389958,262.501505 47.6070807,262.923148 L46.3881366,263.900539 C45.7930281,264.36855 45.5616206,265.164609 45.812795,265.879757 L69.4798137,276.113043 C69.8832779,276.11063 70.2127149,275.789071 70.2258075,275.384887 L69.9625155,268.694643 C69.2067702,267.1748 69.5041925,263.665965 70.6987578,262.463774 L71.981087,261.178504 C72.6983225,260.464319 73.1108728,259.49891 73.1317702,258.485791 L74.336087,203.297391 C74.3510844,202.733479 74.5069924,202.182349 74.7895342,201.69447 L75.7403106,200.067113 C76.2534899,199.184348 76.3343582,198.114439 75.9597205,197.164261 C75.5686662,196.168737 75.6774536,195.045657 76.2522671,194.144122 L86.5450311,178.017165 C86.6497089,177.857726 86.8327429,177.768116 87.0225596,177.783377 C87.2123763,177.798638 87.3788187,177.916345 87.4568012,178.09047 L87.5835714,178.383687 C87.6074006,178.396599 87.6302195,178.411302 87.6518323,178.42767 L82.1714596,163.336748 Z" id="Path" fill="#839DAA" opacity="0.6" style="mix-blend-mode: multiply;"></path>
            </g>
        </g>
    </g>
</svg>