<?xml version="1.0" encoding="UTF-8"?>
<svg width="440px" height="330px" viewBox="0 0 440 330" version="1.1" xmlns="http://www.w3.org/2000/svg" xmlns:xlink="http://www.w3.org/1999/xlink">
    <title>Graphic elements / Icons / Rich icons / Marketplace / Industries-Public-Transport</title>
    <defs>
        <linearGradient x1="-0.151057402%" y1="47.5%" x2="99.8187311%" y2="47.5%" id="linearGradient-1">
            <stop stop-color="#FFFFFF" stop-opacity="0" offset="0%"></stop>
            <stop stop-color="#F8C726" stop-opacity="0.57" offset="84%"></stop>
        </linearGradient>
        <linearGradient x1="-0.0958466454%" y1="53.0210184%" x2="99.8722045%" y2="53.0210184%" id="linearGradient-2">
            <stop stop-color="#FFFFFF" stop-opacity="0" offset="0%"></stop>
            <stop stop-color="#F8C726" stop-opacity="0.57" offset="84%"></stop>
        </linearGradient>
        <linearGradient x1="0%" y1="47.5%" x2="99.9697885%" y2="47.5%" id="linearGradient-3">
            <stop stop-color="#FFFFFF" stop-opacity="0" offset="0%"></stop>
            <stop stop-color="#F8C726" stop-opacity="0.57" offset="84%"></stop>
        </linearGradient>
        <linearGradient x1="-0.327868852%" y1="50.3076923%" x2="99.5081967%" y2="50.3076923%" id="linearGradient-4">
            <stop stop-color="#ECEFF1" offset="0%"></stop>
            <stop stop-color="#FFFFFF" stop-opacity="0" offset="0%"></stop>
            <stop stop-color="#FFFFFF" stop-opacity="0.4" offset="100%"></stop>
        </linearGradient>
        <linearGradient x1="0.0319488818%" y1="54.1106139%" x2="99.9361022%" y2="54.1106139%" id="linearGradient-5">
            <stop stop-color="#FFFFFF" stop-opacity="0" offset="0%"></stop>
            <stop stop-color="#F8C726" stop-opacity="0.57" offset="84%"></stop>
        </linearGradient>
        <linearGradient x1="0.151057402%" y1="47.5%" x2="100.120846%" y2="47.5%" id="linearGradient-6">
            <stop stop-color="#FFFFFF" stop-opacity="0" offset="0%"></stop>
            <stop stop-color="#F8C726" stop-opacity="0.57" offset="84%"></stop>
        </linearGradient>
        <linearGradient x1="0.0792079208%" y1="49.8106061%" x2="100.081584%" y2="49.8106061%" id="linearGradient-7">
            <stop stop-color="#FFFFFF" offset="0%"></stop>
            <stop stop-color="#FFFFFF" stop-opacity="0.2" offset="0%"></stop>
            <stop stop-color="#FFFFFF" stop-opacity="0.6" offset="100%"></stop>
        </linearGradient>
        <linearGradient x1="0.0100502513%" y1="49.8282443%" x2="100.003015%" y2="49.8282443%" id="linearGradient-8">
            <stop stop-color="#FFFFFF" offset="0%"></stop>
            <stop stop-color="#FFFFFF" stop-opacity="0.2" offset="0%"></stop>
            <stop stop-color="#FFFFFF" stop-opacity="0.6" offset="100%"></stop>
        </linearGradient>
    </defs>
    <g id="Graphic-elements-/-Icons-/-Rich-icons-/-Marketplace-/-Industries-Public-Transport" stroke="none" stroke-width="1" fill="none" fill-rule="evenodd">
        <g id="public-transport" transform="translate(0.000000, 101.000000)">
            <g id="Group" transform="translate(36.000000, 140.000000)" fill="#8AA4B5" fill-rule="nonzero">
                <polygon id="Shape" points="45.7 67.7 45.1 67.7 45.1 67 44.7 67 44.7 67.4 44.3 67.4 44.3 67.8 43.1 67.8 43.1 67.3 42.6 67.1 38.6 67.2 38.6 67.9 37.8 67.9 37.8 74 31.2 74 31.2 43.6 29.7 43.6 29.7 36 24.3 36 24.3 34 21 34 21 30.7 7.5 30.7 7.5 36 0.7 36 0.7 88.7 47.3 88.7 47.3 68.5"></polygon>
                <path d="M243.9,67.7 L243.4,67.7 L243.4,67 L243,67 L243,67.4 L242.6,67.4 L242.6,67.8 L241.4,67.8 L241.4,67.3 L240.9,67.1 L236.9,67.2 L236.9,67.9 L236,67.9 L236,74 L229.4,74 L229.4,43.6 L227.9,43.6 L227.9,36 L222.5,36 L222.5,34 L219.2,34 L219.2,30.7 L205.7,30.7 L205.7,36 L198.9,36 L198.9,37.2 L198.3,37.2 L198.3,37.2 L197.6,37.2 L197.6,81.9 L195.6,81.9 L195.6,51.7 L190.2,51.7 L190.2,56.9 L175.5,56.9 L175.5,59.6 L174.3,59.6 L174.3,71.2 L171.4,71.2 L171.4,80.8 L169.8,80.8 L169.8,37.3 L168.8,37.3 L168.8,31.1 L166.9,31.1 L166.9,25 L165.7,25 L165.7,18.8 L157.7,18.8 L157.7,25 L156.5,25 L156.5,31.1 L154.6,31.1 L154.6,37.3 L153.7,37.3 L153.7,72.5 L152.3,72.5 L152.3,53 L141.8,53 L141.8,65.6 L138.8,65.6 L138.8,64.9 L137.6,64.9 L137.6,41.9 L137.6,41.9 L137.6,16.1 L136.7,16.1 L136.7,0.9 L120,0.9 L120,16.1 L119.1,16.1 L119.1,80.7 L116.8,80.7 L116.8,55.3 L112.8,55.3 L112.8,43.9 L111.5,43.9 L111.5,38.8 L92.9,38.8 L92.9,43.9 L91.6,43.9 L91.6,85 L87.3,85 L87.3,58.5 L71.5,58.5 L71.5,75.3 L68.4,75.3 L68.4,44.5 L68.4,44.5 L68.4,43.3 L67.6,43.3 L67.6,43 L68.5,43 L68.5,41.8 L67.6,41.8 L67.6,41.5 L68.5,41.5 L68.5,40.3 L67.6,40.3 L67.6,40 L68.5,40 L68.5,38.8 L67.6,38.8 L67.6,38.5 L68.5,38.5 L68.5,37.3 L67.6,37.3 L67.6,36.9 L68.5,36.9 L68.5,35.7 L67.6,35.7 L67.6,35.4 L68.5,35.4 L68.5,34.2 L67.6,34.2 L67.6,33.9 L68.5,33.9 L68.5,29.4 C65.3,27 63.5,23.2 63.4,19.3 L63.4,19.2 L63.4,19.2 L63.4,18.6 L62.4,18.6 L62.4,19.2 L61,19.2 L61,8.8 L60.5,8.8 L60.5,19 L60.2,19 L60.2,18.4 L59,18.4 L59,19 L57.1,19 L57.1,18.4 L56,18.4 L56,19 C56,24.4 54.3,28.1 52.5,29.3 L52.5,32.6 L52.5,32.6 L52.5,33.8 L53.6,33.8 L53.6,34.1 L52.5,34.1 L52.5,35.3 L53.6,35.3 L53.6,35.6 L52.5,35.6 L52.5,36.8 L53.6,36.8 L53.6,37.1 L52.5,37.1 L52.5,38.3 L53.6,38.3 L53.6,38.6 L52.5,38.6 L52.5,39.8 L53.6,39.8 L53.6,40.1 L52.5,40.1 L52.5,41.3 L53.6,41.3 L53.6,41.6 L52.5,41.6 L52.5,42.8 L53.6,42.8 L53.6,43.1 L52.4,43.1 L52.4,69 L49.1,69 L49.1,81.7 L47.3,81.7 L47.3,88.6 L62.4,88.6 L62.4,44.5 L62.4,44.5 L62.4,88.6 L245.4,88.6 L245.4,68.4 L243.9,67.7 L243.9,67.7 Z" id="Shape"></path>
                <path d="M398.3,37.2 L398.3,37.2 L396.4,37.2 L396.4,37.2 L395.7,37.2 L395.7,81.9 L393.7,81.9 L393.7,51.7 L388.3,51.7 L388.3,56.9 L373.6,56.9 L373.6,59.6 L372.4,59.6 L372.4,71.2 L369.5,71.2 L369.5,80.8 L367.9,80.8 L367.9,37.3 L366.9,37.3 L366.9,31.1 L365,31.1 L365,25 L363.8,25 L363.8,18.8 L355.8,18.8 L355.8,25 L354.6,25 L354.6,31.1 L352.7,31.1 L352.7,37.3 L351.8,37.3 L351.8,72.5 L350.4,72.5 L350.4,53 L339.9,53 L339.9,65.6 L336.9,65.6 L336.9,64.9 L335.7,64.9 L335.7,41.9 L335.7,41.9 L335.7,16.1 L334.7,16.1 L334.7,0.9 L318.2,0.9 L318.2,16.1 L317.3,16.1 L317.3,80.7 L315,80.7 L315,55.3 L311,55.3 L311,43.9 L309.7,43.9 L309.7,38.8 L291.1,38.8 L291.1,43.9 L289.8,43.9 L289.8,85 L285.5,85 L285.5,58.5 L269.7,58.5 L269.7,75.3 L266.6,75.3 L266.6,44.5 L266.6,44.5 L266.6,43.3 L265.8,43.3 L265.8,43 L266.7,43 L266.7,41.8 L265.8,41.8 L265.8,41.5 L266.7,41.5 L266.7,40.3 L265.8,40.3 L265.8,40 L266.7,40 L266.7,38.8 L265.8,38.8 L265.8,38.5 L266.7,38.5 L266.7,37.3 L265.8,37.3 L265.8,36.9 L266.7,36.9 L266.7,35.7 L265.8,35.7 L265.8,35.4 L266.7,35.4 L266.7,34.2 L265.8,34.2 L265.8,33.9 L266.7,33.9 L266.7,29.4 C263.5,27 261.7,23.2 261.6,19.3 L261.6,19.2 L261.6,19.2 L261.6,18.6 L260.6,18.6 L260.6,19.2 L259.2,19.2 L259.2,8.8 L258.7,8.8 L258.7,19 L258.4,19 L258.4,18.4 L257.3,18.4 L257.3,19 L255.4,19 L255.4,18.4 L254.3,18.4 L254.3,19 C254.3,24.4 252.6,28.1 250.8,29.3 L250.8,32.6 L250.8,32.6 L250.8,33.8 L251.9,33.8 L251.9,34.1 L250.8,34.1 L250.8,35.3 L251.9,35.3 L251.9,35.6 L250.8,35.6 L250.8,36.8 L251.9,36.8 L251.9,37.1 L250.8,37.1 L250.8,38.3 L251.9,38.3 L251.9,38.6 L250.8,38.6 L250.8,39.8 L251.9,39.8 L251.9,40.1 L250.8,40.1 L250.8,41.3 L251.9,41.3 L251.9,41.6 L250.8,41.6 L250.8,42.8 L251.9,42.8 L251.9,43.1 L250.7,43.1 L250.7,69 L247.4,69 L247.4,81.7 L245.6,81.7 L245.6,88.6 L260.7,88.6 L260.7,44.5 L260.7,44.5 L260.7,88.6 L403.4,88.6 L403.4,37.2 L398.3,37.2 Z" id="Shape"></path>
            </g>
            <path d="M439.2,225.4 L438.3,225.4 L438.3,223.8 L439.2,223.8 L439.2,223 L438.3,223 L438.3,221.3 L439.2,221.3 L439.2,220.5 L213.6,220.5 L213.6,228.8 L214.4,228.8 L214.4,226.1 L241.5,226.1 L241.5,228.8 L242.3,228.8 L242.3,226.1 L409,226.1 L409,228.7 L409.8,228.7 L409.8,226.1 L437.4,226.1 L437.4,228.7 L438.2,228.7 L438.2,226.1 L439.1,226.1 L439.2,225.4 Z M241.5,225.4 L214.4,225.4 L214.4,223.8 L241.5,223.8 L241.5,225.4 Z M241.5,223 L214.4,223 L214.4,221.3 L241.5,221.3 L241.5,223 Z M409,225.4 L242.4,225.4 L242.4,223.8 L409,223.8 L409,225.4 Z M409,223 L242.4,223 L242.4,221.3 L409,221.3 L409,223 Z M437.4,225.4 L409.8,225.4 L409.8,223.8 L437.4,223.8 L437.4,225.4 Z M437.4,223 L409.8,223 L409.8,221.3 L437.4,221.3 L437.4,223 Z" id="Shape" fill="#EFF2F3" fill-rule="nonzero"></path>
            <polygon id="Path" fill="#00182B" fill-rule="nonzero" points="258.3 158.5 247 158.5 248.3 155.6 257.2 155.6"></polygon>
            <polygon id="Path" fill="#00182B" fill-rule="nonzero" points="224.3 158.5 213 158.5 214.3 155.6 223.2 155.6"></polygon>
            <rect id="Rectangle" fill="#00182B" fill-rule="nonzero" x="268.4" y="156.7" width="2.6" height="12.1"></rect>
            <rect id="Rectangle" fill="#00182B" fill-rule="nonzero" x="234.2" y="156.7" width="3.1" height="12.1"></rect>
            <rect id="Rectangle" fill="#FFE700" fill-rule="nonzero" x="236.6" y="156.2" width="33.1" height="14"></rect>
            <rect id="Rectangle" fill="url(#linearGradient-1)" fill-rule="nonzero" x="236.6" y="169.3" width="33.1" height="1"></rect>
            <rect id="Rectangle" fill="#FFE700" fill-rule="nonzero" x="236.6" y="156.2" width="33.1" height="4.3"></rect>
            <rect id="Rectangle" fill="#003A5D" fill-rule="nonzero" x="238.2" y="159.4" width="29.7" height="7"></rect>
            <path d="M267.6,159.7 L267.6,166.2 L238.5,166.2 L238.5,159.7 L267.6,159.7 Z M268.1,159.2 L238,159.2 L238,166.7 L268.2,166.7 L268.1,159.2 L268.1,159.2 Z" id="Shape" fill="#00182B" fill-rule="nonzero"></path>
            <rect id="Rectangle" fill="#33617D" fill-rule="nonzero" x="236.6" y="156.2" width="33.1" height="1.1"></rect>
            <polygon id="Path" fill="#FFF6A1" fill-rule="nonzero" points="269.7 156.2 269.1 156.2 269.1 170.2 269.7 170.2"></polygon>
            <rect id="Rectangle" fill="#003A5D" fill-rule="nonzero" x="248.4" y="159.4" width="9.1" height="10.4"></rect>
            <path d="M257.2,159.7 L257.2,169.6 L248.6,169.6 L248.6,159.7 L257.2,159.7 Z M257.8,159.2 L248.1,159.2 L248.1,170.1 L257.8,170.1 L257.8,159.2 Z" id="Shape" fill="#00182B" fill-rule="nonzero"></path>
            <polygon id="Path" fill="#305F7C" fill-rule="nonzero" points="261.8 166.1 264.6 166.1 266.8 159.6 264 159.6"></polygon>
            <polygon id="Path" fill="#305F7C" fill-rule="nonzero" points="240.3 166.1 244.3 166.1 246.4 159.6 242.5 159.6"></polygon>
            <polygon id="Path" fill="#305F7C" fill-rule="nonzero" points="248.8 169.2 253.9 169.2 257.1 159.6 252 159.6"></polygon>
            <path d="M208.9,170.3 L235.1,170.3 L235.1,156.5 L212.4,156.5 C211.7,156.5 211.1,156.7 210.5,157.1 C210.4,157.2 210.3,157.3 210.4,157.5 C209.9,159.1 210.1,159.9 208.9,161.4 C207.9,162.7 207.2,164.1 206.5,165.6 C206.2,166.1 203.9,165.9 203.9,166.2 C203.8,166.9 203.7,167.7 203.8,168.4 C203.9,169.5 207.3,170.3 208.9,170.3 Z" id="Path" fill="#FFE700" fill-rule="nonzero"></path>
            <path d="M209.5,160.5 C209.9,159.5 210.2,158.5 210.4,157.4 C210.4,157.3 210.4,157.1 210.5,157 C211.1,156.6 211.7,156.4 212.4,156.4 L235.1,156.4 L235.1,160.4 L209.5,160.5 Z" id="Path" fill="#FFE700" fill-rule="nonzero"></path>
            <path d="M210.3,157.9 C210.3,157.8 210.4,157.9 210.4,157.8 C210.4,157.7 210.2,157.2 210.4,157 C210.9,156.5 211.7,156.2 212.4,156.3 L235.1,156.3 L235.1,157.3 L212.4,157.3 C211.7,157.3 210.9,157.5 210.3,157.9 Z" id="Path" fill="#33617D" fill-rule="nonzero"></path>
            <rect id="Rectangle" fill="#003A5D" fill-rule="nonzero" x="215.4" y="159.4" width="17.6" height="7"></rect>
            <path d="M232.8,159.7 L232.8,166.2 L215.7,166.2 L215.7,159.7 L232.8,159.7 Z M233.3,159.2 L215.1,159.2 L215.1,166.7 L233.2,166.7 L233.3,159.2 L233.3,159.2 Z" id="Shape" fill="#00182B" fill-rule="nonzero"></path>
            <path d="M203.8,168.4 C203.8,168.2 203.8,167.9 203.8,167.7 L203.8,168 C205,168.7 206.3,169.1 207.6,169.2 L235.1,169.2 L235.1,170.2 L208.9,170.2 C207.3,170.3 203.9,169.5 203.8,168.4 Z" id="Path" fill="url(#linearGradient-2)" fill-rule="nonzero"></path>
            <path d="M204.7,164.9 C205.9,162.6 209.3,157.6 210.5,157.4 L210.2,159.6 L210.2,165.6 L209.7,165.8 L204.2,166.1 C204.3,165.7 204.4,165.3 204.7,164.9 Z" id="Path" fill="#003A5D" fill-rule="nonzero"></path>
            <path d="M205.4,165.6 C205.3,165.8 205.2,166 205.2,166.1 L204.2,166.1 C204.3,165.7 204.5,165.2 204.7,164.9 C205.9,162.6 209.3,157.6 210.5,157.4 L210.5,158.6 C208.5,160.8 206.8,163.1 205.4,165.6 Z" id="Path" fill="#305F7C" fill-rule="nonzero"></path>
            <path d="M209.6,165.4 L209.6,157.7 C209.8,157.5 210.1,157.3 210.4,157.2 L210.4,165.7 L210,166.2 L204,166.2 C204.1,165.9 204.2,165.7 204.3,165.4 L209.6,165.4 Z" id="Path" fill="#00182B" fill-rule="nonzero"></path>
            <rect id="Rectangle" fill="#003A5D" fill-rule="nonzero" x="211.8" y="159.4" width="3.6" height="10.4"></rect>
            <path d="M215.1,159.7 L215.1,169.6 L212.1,169.6 L212.1,159.7 L215.1,159.7 Z M215.6,159.2 L211.5,159.2 L211.5,170 L215.6,170 L215.6,159.2 Z" id="Shape" fill="#00182B" fill-rule="nonzero"></path>
            <polygon id="Path" fill="#305F7C" fill-rule="nonzero" points="219 166.1 223.9 166.1 226.1 159.6 221.2 159.6"></polygon>
            <path d="M210.2,159.5 L208.3,159.5 C208.3,159.5 208.2,159.4 208.2,159.3 C208.6,158.7 209.1,158.2 209.7,157.7 L210.2,157.7 L210.2,159.5 Z" id="Path" fill="#00182B" fill-rule="nonzero"></path>
            <polygon id="Path" fill="#FFF6A1" fill-rule="nonzero" points="234.5 156.2 235.1 156.2 235.1 170.3 234.5 170.3"></polygon>
            <polygon id="Path" fill="#FFF6A1" fill-rule="nonzero" points="236.6 156.2 237.2 156.2 237.2 170.3 236.6 170.3"></polygon>
            <polygon id="Path" fill="#305F7C" fill-rule="nonzero" points="215.1 162.3 215.1 159.7 213.5 159.7 212.1 163.9 212.1 169 212.9 169"></polygon>
            <rect id="Rectangle" fill="#00182B" fill-rule="nonzero" x="252.5" y="159.3" width="1" height="10.4"></rect>
            <path d="M240.8,165.2 L240.8,165.7 C240.7,165.6 240.7,165.4 240.8,165.2 Z" id="Path" fill="#637F8D" opacity="0.5"></path>
            <polygon id="Path" fill="#00182B" fill-rule="nonzero" points="293 158.5 281.7 158.5 283 155.6 292 155.6"></polygon>
            <rect id="Rectangle" fill="#00182B" fill-rule="nonzero" x="303" y="156.7" width="2.6" height="12.1"></rect>
            <rect id="Rectangle" fill="#FFE700" fill-rule="nonzero" x="271.1" y="156.2" width="33.1" height="14"></rect>
            <rect id="Rectangle" fill="url(#linearGradient-3)" fill-rule="nonzero" x="271.1" y="169.3" width="33.1" height="1"></rect>
            <rect id="Rectangle" fill="#FFE700" fill-rule="nonzero" x="271.1" y="156.2" width="33.1" height="4.3"></rect>
            <rect id="Rectangle" fill="#003A5D" fill-rule="nonzero" x="272.8" y="159.4" width="29.6" height="7"></rect>
            <path d="M302.2,159.7 L302.2,166.2 L273,166.2 L273,159.7 L302.2,159.7 Z M302.7,159.2 L272.6,159.2 L272.6,166.7 L302.7,166.7 L302.7,159.2 Z" id="Shape" fill="#00182B" fill-rule="nonzero"></path>
            <rect id="Rectangle" fill="#33617D" fill-rule="nonzero" x="271.1" y="156.2" width="33.1" height="1.1"></rect>
            <polygon id="Path" fill="#FFF6A1" fill-rule="nonzero" points="304.3 156.2 303.7 156.2 303.7 170.2 304.3 170.2"></polygon>
            <rect id="Rectangle" fill="#003A5D" fill-rule="nonzero" x="282.9" y="159.4" width="9.1" height="10.4"></rect>
            <path d="M291.8,159.7 L291.8,169.6 L283.2,169.6 L283.2,159.7 L291.8,159.7 Z M292.3,159.2 L282.6,159.2 L282.6,170.1 L292.3,170.1 L292.3,159.2 Z" id="Shape" fill="#00182B" fill-rule="nonzero"></path>
            <polygon id="Path" fill="#305F7C" fill-rule="nonzero" points="296.4 166.1 299.2 166.1 301.3 159.6 298.5 159.6"></polygon>
            <polygon id="Path" fill="url(#linearGradient-4)" fill-rule="nonzero" points="274.9 166.1 278.8 166.1 281 159.6 277 159.6"></polygon>
            <polygon id="Path" fill="#305F7C" fill-rule="nonzero" points="283.4 169.2 288.5 169.2 291.6 159.6 286.5 159.6"></polygon>
            <polygon id="Path" fill="#FFF6A1" fill-rule="nonzero" points="271.1 156.2 271.7 156.2 271.7 170.3 271.1 170.3"></polygon>
            <rect id="Rectangle" fill="#00182B" fill-rule="nonzero" x="287.1" y="159.3" width="1" height="10.4"></rect>
            <path d="M275.3,165.2 L275.3,165.7 C275.3,165.6 275.3,165.4 275.3,165.2 Z" id="Path" fill="#637F8D" opacity="0.5"></path>
            <polygon id="Path" fill="#00182B" fill-rule="nonzero" points="362.2 158.5 350.9 158.5 352.2 155.6 361.1 155.6"></polygon>
            <path d="M366.4,170.3 L340.2,170.3 L340.2,156.5 L362.9,156.5 C363.6,156.5 364.2,156.7 364.8,157.1 C365,157.3 364.9,157.4 364.9,157.5 C365.4,159.1 365.2,159.9 366.4,161.4 C367.4,162.7 368.2,164.1 368.8,165.6 C369.1,166.1 371.3,165.9 371.4,166.2 C371.5,166.9 371.6,167.7 371.5,168.4 C371.4,169.5 368,170.3 366.4,170.3 Z" id="Path" fill="#FFE700" fill-rule="nonzero"></path>
            <path d="M365.8,160.5 C365.4,159.5 365,158.5 364.9,157.4 C364.9,157.4 365,157.2 364.8,157 C364.2,156.6 363.6,156.4 362.9,156.4 L340.2,156.4 L340.2,160.4 L365.8,160.5 Z" id="Path" fill="#FFE700" fill-rule="nonzero"></path>
            <path d="M365,157.9 C365,157.8 364.9,157.9 364.9,157.8 C364.9,157.7 365.1,157.2 364.9,157 C364.4,156.5 363.6,156.2 362.9,156.3 L340.2,156.3 L340.2,157.3 L362.9,157.3 C363.6,157.3 364.3,157.5 365,157.9 Z" id="Path" fill="#33617D" fill-rule="nonzero"></path>
            <rect id="Rectangle" fill="#003A5D" fill-rule="nonzero" x="342.2" y="159.4" width="17.6" height="7"></rect>
            <path d="M359.6,159.7 L359.6,166.2 L342.5,166.2 L342.5,159.7 L359.6,159.7 Z M360.1,159.2 L342,159.2 L342,166.7 L360.2,166.7 L360.1,159.2 L360.1,159.2 Z" id="Shape" fill="#00182B" fill-rule="nonzero"></path>
            <path d="M371.5,168.4 C371.5,168.2 371.5,168 371.5,168 C370.3,168.7 369,169.1 367.7,169.2 L340.2,169.2 L340.2,170.2 L366.4,170.2 C368,170.3 371.4,169.5 371.5,168.4 Z" id="Path" fill="url(#linearGradient-5)" fill-rule="nonzero"></path>
            <path d="M370.6,164.9 C369.4,162.6 366,157.6 364.8,157.4 L365.1,159.6 L365.1,165.6 L365.6,165.8 L371.1,166.1 C371,165.7 370.9,165.3 370.6,164.9 Z" id="Path" fill="#003A5D" fill-rule="nonzero"></path>
            <path d="M369.9,165.6 C370,165.8 370.1,166 370.1,166.1 L371.1,166.1 C371,165.7 370.8,165.2 370.6,164.9 C369.4,162.6 366,157.6 364.8,157.4 L364.8,158.6 C366.8,160.8 368.5,163.1 369.9,165.6 Z" id="Path" fill="#305F7C" fill-rule="nonzero"></path>
            <path d="M365.7,165.4 L365.7,157.7 C365.5,157.5 365.2,157.3 364.9,157.2 L364.9,165.7 L365.3,166.2 L371.3,166.2 C371.2,165.9 371.1,165.7 371,165.4 L365.7,165.4 Z" id="Path" fill="#00182B" fill-rule="nonzero"></path>
            <rect id="Rectangle" fill="#003A5D" fill-rule="nonzero" x="359.9" y="159.4" width="3.5" height="10.4"></rect>
            <path d="M363.2,159.7 L363.2,169.6 L360.2,169.6 L360.2,159.7 L363.2,159.7 Z M363.7,159.2 L359.7,159.2 L359.7,170 L363.7,170 L363.7,159.2 Z" id="Shape" fill="#00182B" fill-rule="nonzero"></path>
            <polygon id="Path" fill="#305F7C" fill-rule="nonzero" points="347 166.1 351.9 166.1 354 159.6 349.1 159.6"></polygon>
            <path d="M365.1,159.5 L367.1,159.5 C367.1,159.5 367.2,159.4 367.1,159.3 C366.7,158.7 366.1,158.2 365.6,157.7 L365.1,157.7 L365.1,159.5 Z" id="Path" fill="#00182B" fill-rule="nonzero"></path>
            <polygon id="Path" fill="#00182B" fill-rule="nonzero" points="340.8 156.2 340.2 156.2 340.2 170.3 340.8 170.3"></polygon>
            <polygon id="Path" fill="#305F7C" fill-rule="nonzero" points="363.2 162.3 363.2 159.7 361.6 159.7 360.2 163.9 360.2 169 361 169"></polygon>
            <polygon id="Path" fill="#00182B" fill-rule="nonzero" points="327.3 158.5 316 158.5 317.3 155.6 326.2 155.6"></polygon>
            <polyline id="Path" fill="#00182B" fill-rule="nonzero" points="340 156.7 337.4 156.7 337.4 168.9 340 168.9"></polyline>
            <rect id="Rectangle" fill="#FFE700" fill-rule="nonzero" x="305.5" y="156.2" width="33.1" height="14"></rect>
            <rect id="Rectangle" fill="url(#linearGradient-6)" fill-rule="nonzero" x="305.5" y="169.3" width="33.1" height="1"></rect>
            <rect id="Rectangle" fill="#FFE700" fill-rule="nonzero" x="305.5" y="156.2" width="33.1" height="4.3"></rect>
            <rect id="Rectangle" fill="#003A5D" fill-rule="nonzero" x="307.2" y="159.4" width="29.6" height="7"></rect>
            <path d="M336.6,159.7 L336.6,166.2 L307.5,166.2 L307.5,159.7 L336.6,159.7 Z M337.1,159.2 L307,159.2 L307,166.7 L337.1,166.7 L337.1,159.2 L337.1,159.2 Z" id="Shape" fill="#00182B" fill-rule="nonzero"></path>
            <rect id="Rectangle" fill="#33617D" fill-rule="nonzero" x="305.5" y="156.2" width="33.1" height="1.1"></rect>
            <polygon id="Path" fill="#FFF6A1" fill-rule="nonzero" points="338.7 156.2 338.1 156.2 338.1 170.2 338.7 170.2"></polygon>
            <rect id="Rectangle" fill="#003A5D" fill-rule="nonzero" x="317.3" y="159.4" width="9.1" height="10.4"></rect>
            <path d="M326.2,159.7 L326.2,169.6 L317.6,169.6 L317.6,159.7 L326.2,159.7 Z M326.8,159.2 L317.1,159.2 L317.1,170.1 L326.8,170.1 L326.8,159.2 Z" id="Shape" fill="#00182B" fill-rule="nonzero"></path>
            <polygon id="Path" fill="#305F7C" fill-rule="nonzero" points="330.8 166.1 333.6 166.1 335.8 159.6 333 159.6"></polygon>
            <polygon id="Path" fill="#305F7C" fill-rule="nonzero" points="309.3 166.1 313.3 166.1 315.4 159.6 311.5 159.6"></polygon>
            <polygon id="Path" fill="#305F7C" fill-rule="nonzero" points="317.8 169.2 322.9 169.2 326.1 159.6 321 159.6"></polygon>
            <polygon id="Path" fill="#FFF6A1" fill-rule="nonzero" points="305.5 156.2 306.1 156.2 306.1 170.3 305.5 170.3"></polygon>
            <rect id="Rectangle" fill="#00182B" fill-rule="nonzero" x="321.5" y="159.3" width="1" height="10.4"></rect>
            <path d="M309.8,165.2 L309.8,165.7 C309.7,165.6 309.7,165.4 309.8,165.2 Z" id="Path" fill="#637F8D" opacity="0.5"></path>
            <path d="M250.2,27.1 L245.3,22.2 C245.1,22 244.8,21.9 244.5,21.9 L238.1,21.9 C237.8,21.9 237.5,21.8 237.3,21.6 L231.8,16.1 C231.6,15.9 231.3,15.8 231,15.8 L221,15.8 C220.7,15.8 220.4,15.9 220.2,16.1 L215.2,21.1 C215,21.3 214.7,21.4 214.4,21.4 L207.7,21.4 L206.9,21.8 L200,29 L249.4,29 C250,29 250.5,28.5 250.5,27.9 C250.5,27.6 250.4,27.3 250.2,27.1 Z" id="Path" fill="url(#linearGradient-7)" fill-rule="nonzero"></path>
            <path d="M211.8,19.1 L202,19.1 C201.8,19.1 201.5,19 201.4,18.8 L190.8,8.2 C190.6,8 190.4,7.9 190.2,7.9 L181.3,7.9 C181.1,7.9 180.8,8 180.7,8.2 L177.7,11.2 C177.5,11.4 177.3,11.5 177.1,11.5 L162.4,11.5 C162.2,11.5 161.9,11.6 161.8,11.8 L153.4,20.2 C153.2,20.4 153,20.5 152.8,20.5 L142,20.5 C141.8,20.5 141.5,20.6 141.4,20.8 L138.5,23.7 C138.2,24.1 138.2,24.6 138.5,25 C138.7,25.2 138.9,25.3 139.1,25.3 L216,25.3 C216.5,25.3 216.9,24.9 216.9,24.4 C216.9,24.2 216.8,23.9 216.6,23.7 L212.4,19.5 C212.2,19.1 212,19 211.8,19.1 Z" id="Path" fill="#EFF2F3" fill-rule="nonzero"></path>
            <path d="M439.4,22.4 L429.7,12.7 C429.3,12.3 428.7,12.1 428.2,12.1 L415.6,12.1 C415,12.1 414.5,11.9 414.1,11.5 L403.2,0.7 C402.8,0.3 402.2,0 401.7,0 L381.8,0 C381.2,0 380.7,0.2 380.3,0.7 L370.4,10.6 C370,11 369.4,11.2 368.8,11.3 L355.6,11.3 L353.9,12 L340.5,26.2 L437.8,26.2 C439,26.2 440,25.2 440,24 C440,23.3 439.8,22.8 439.4,22.4 Z" id="Path" fill="url(#linearGradient-8)" fill-rule="nonzero"></path>
            <rect id="Rectangle" fill="#EFF2F3" fill-rule="nonzero" x="0" y="170" width="438.6" height="10.8"></rect>
            <rect id="Rectangle" fill="#AEBBC1" fill-rule="nonzero" x="0" y="175.4" width="438.6" height="5.4"></rect>
            <rect id="Rectangle" fill="#003A5D" fill-rule="nonzero" x="0" y="175.4" width="438.6" height="3"></rect>
            <rect id="Rectangle" fill="#CED5D9" fill-rule="nonzero" x="0" y="180.7" width="438.6" height="1.1"></rect>
            <rect id="Rectangle" fill="#96A6AE" fill-rule="nonzero" x="356.3" y="181.7" width="25.7" height="1.1"></rect>
            <rect id="Rectangle" fill="#003A5D" fill-rule="nonzero" x="357.5" y="182.8" width="23.5" height="1"></rect>
            <rect id="Rectangle" fill="#96A6AE" fill-rule="nonzero" x="356.3" y="183.5" width="25.6" height="2.6"></rect>
            <rect id="Rectangle" fill="#CDD4D8" fill-rule="nonzero" x="367.2" y="181.7" width="20" height="1.1"></rect>
            <rect id="Rectangle" fill="#4F778F" fill-rule="nonzero" x="368.2" y="182.8" width="18.2" height="1"></rect>
            <rect id="Rectangle" fill="#CDD4D8" fill-rule="nonzero" x="367.2" y="183.5" width="20" height="2.6"></rect>
            <rect id="Rectangle" fill="#CDD4D8" fill-rule="nonzero" x="367.2" y="186.1" width="10.9" height="42.8"></rect>
            <polygon id="Path" fill="#96A6AE" fill-rule="nonzero" points="367.2 191.8 378.1 191.8 387.2 186.1 356.3 186.1"></polygon>
            <rect id="Rectangle" fill="#96A6AE" fill-rule="nonzero" x="367.2" y="191.8" width="3.9" height="37.1"></rect>
            <rect id="Rectangle" fill="#96A6AE" fill-rule="nonzero" x="203.9" y="181.7" width="25.7" height="1.1"></rect>
            <rect id="Rectangle" fill="#003A5D" fill-rule="nonzero" x="205.1" y="182.8" width="23.4" height="1"></rect>
            <rect id="Rectangle" fill="#96A6AE" fill-rule="nonzero" x="203.9" y="183.5" width="25.6" height="2.6"></rect>
            <rect id="Rectangle" fill="#CDD4D8" fill-rule="nonzero" x="214.8" y="181.7" width="20" height="1.1"></rect>
            <rect id="Rectangle" fill="#4F778F" fill-rule="nonzero" x="215.8" y="182.8" width="18.2" height="1"></rect>
            <rect id="Rectangle" fill="#CDD4D8" fill-rule="nonzero" x="214.8" y="183.5" width="20" height="2.6"></rect>
            <rect id="Rectangle" fill="#CDD4D8" fill-rule="nonzero" x="214.8" y="186.1" width="10.9" height="42.8"></rect>
            <polygon id="Path" fill="#96A6AE" fill-rule="nonzero" points="214.8 191.8 225.7 191.8 234.8 186.1 203.9 186.1"></polygon>
            <rect id="Rectangle" fill="#96A6AE" fill-rule="nonzero" x="214.8" y="191.8" width="3.9" height="37.1"></rect>
            <rect id="Rectangle" fill="#96A6AE" fill-rule="nonzero" x="51.4" y="181.7" width="25.7" height="1.1"></rect>
            <rect id="Rectangle" fill="#003A5D" fill-rule="nonzero" x="52.7" y="182.8" width="23.5" height="1"></rect>
            <rect id="Rectangle" fill="#96A6AE" fill-rule="nonzero" x="51.5" y="183.5" width="25.6" height="2.6"></rect>
            <rect id="Rectangle" fill="#CDD4D8" fill-rule="nonzero" x="62.4" y="181.7" width="20" height="1.1"></rect>
            <rect id="Rectangle" fill="#4F778F" fill-rule="nonzero" x="63.4" y="182.8" width="18.2" height="1"></rect>
            <rect id="Rectangle" fill="#CDD4D8" fill-rule="nonzero" x="62.4" y="183.5" width="20" height="2.6"></rect>
            <rect id="Rectangle" fill="#CDD4D8" fill-rule="nonzero" x="62.4" y="186.1" width="10.9" height="42.8"></rect>
            <polygon id="Path" fill="#96A6AE" fill-rule="nonzero" points="62.4 191.8 73.3 191.8 82.3 186.1 51.5 186.1"></polygon>
            <rect id="Rectangle" fill="#96A6AE" fill-rule="nonzero" x="62.4" y="191.8" width="3.9" height="37.1"></rect>
            <path d="M329.8,44 C321.9,44.6 314,32.1 311.3,30.3 C310,29.5 306.1,29.8 306.1,29.8 L312.7,45.6 C312.7,45.8 328.6,45.2 329.8,44 Z" id="Path" fill="#33617E" fill-rule="nonzero" opacity="0.8"></path>
            <path d="M306.6,31.1 L314.6,33.7 C315.3,34.5 316.1,35.4 317,36.4 L307.3,32.7 L306.6,31.1 Z" id="Path" fill="#7091A4" fill-rule="nonzero"></path>
            <path d="M319.3,38.8 C322.1,41.4 325.2,43.7 328.4,44 L328.4,44.5 C327.9,44.6 327.4,44.7 326.8,44.8 L309.6,38.3 L308.3,35.2 L319.3,38.8 Z" id="Path" fill="#7091A4" fill-rule="nonzero"></path>
            <path d="M307.5,45.7 C310.1,45.3 318.9,44.1 322.8,43.8 C326.1,43.6 371.2,44 373.4,44.2 C378.2,44.5 383.3,48.6 383.3,50.6 C383.3,52.5 379,53.2 375.9,53.2 C372.8,53.2 333.3,53.5 328,52.4 C324.4,51.6 309.7,48.2 307.5,47.5 L307.5,45.7 Z" id="Path" fill="#EFF2F3" fill-rule="nonzero"></path>
            <path d="M383.3,51 C382.9,52.7 378.8,53.3 375.9,53.2 C372.8,53.1 333.3,53.5 328,52.4 C326.8,52.2 324.4,51.6 321.7,51 L383.3,51 L383.3,51 Z" id="Path" fill="#D5DBDF" fill-rule="nonzero"></path>
            <polygon id="Path" fill="#003A5D" fill-rule="nonzero" points="308.7 47.9 307.9 47.7 307.9 45.7 308.7 45.6"></polygon>
            <polygon id="Path" fill="#33617E" fill-rule="nonzero" points="379.3 47.1 380.2 48.2 380.1 48.2 379.3 48.4 378.6 48.4 378.6 47.1"></polygon>
            <path d="M380.6,47.1 C381.1,47.4 381.5,47.8 381.9,48.2 L380.4,48.2 L379.4,47.1 L380.6,47.1 Z" id="Path" fill="#33617E" fill-rule="nonzero"></path>
            <path d="M377.9,47.1 L378.5,47.1 L378.5,48.5 L377.9,48.5 C377.7,48.5 377.5,48.3 377.5,48.1 L377.5,47.6 C377.5,47.3 377.7,47.1 377.9,47.1 L377.9,47.1 Z" id="Path" fill="#33617E" fill-rule="nonzero"></path>
            <path d="M372.4,47.3 L372.4,49.4 C372.4,49.8 372.7,50.1 373.1,50.1 L373.1,50.1 L374,50.1 C374.4,50.1 374.7,49.8 374.7,49.4 C374.7,49.4 374.7,49.4 374.7,49.4 L374.7,47.3 C374.7,46.9 374.4,46.6 374,46.6 L373.1,46.6 C372.7,46.6 372.4,47 372.4,47.3 Z M372.6,47.3 C372.6,47 372.8,46.8 373.1,46.8 L373.1,46.8 L374,46.8 C374.3,46.8 374.5,47 374.5,47.3 L374.5,47.3 L374.5,49.4 C374.5,49.7 374.3,49.9 374,49.9 L374,49.9 L373.1,49.9 C372.8,49.9 372.6,49.7 372.6,49.4 L372.6,49.4 L372.6,47.3 Z" id="Shape" fill="#003A5D" fill-rule="nonzero"></path>
            <path d="M344.9,47.3 L344.9,49.4 C344.9,49.8 345.2,50.1 345.6,50.1 L345.6,50.1 L346.5,50.1 C346.9,50.1 347.2,49.8 347.2,49.4 C347.2,49.4 347.2,49.4 347.2,49.4 L347.2,47.3 C347.2,46.9 346.9,46.6 346.5,46.6 L345.6,46.6 C345.2,46.6 344.9,46.9 344.9,47.3 C344.9,47.3 344.9,47.3 344.9,47.3 Z M345.1,47.3 C345.1,47 345.3,46.8 345.6,46.8 L345.6,46.8 L346.5,46.8 C346.8,46.8 347,47 347,47.3 C347,47.3 347,47.3 347,47.3 L347,49.4 C347,49.7 346.8,49.9 346.5,49.9 C346.5,49.9 346.5,49.9 346.5,49.9 L345.6,49.9 C345.3,49.9 345.1,49.7 345.1,49.4 L345.1,49.4 L345.1,47.3 Z" id="Shape" fill="#003A5D" fill-rule="nonzero"></path>
            <path d="M326.5,47.1 L326.8,47.1 C326.9,47.1 327,47.2 327,47.3 L327,48.3 C327,48.4 326.9,48.5 326.8,48.5 L326.5,48.5 C326.4,48.5 326.3,48.4 326.3,48.3 L326.3,47.3 C326.2,47.2 326.3,47.1 326.5,47.1 Z" id="Path" fill="#33617E" fill-rule="nonzero"></path>
            <path d="M327.9,47.1 L328.2,47.1 C328.3,47.1 328.4,47.2 328.4,47.3 L328.4,48.3 C328.4,48.4 328.3,48.5 328.2,48.5 L327.9,48.5 C327.8,48.5 327.7,48.4 327.7,48.3 L327.7,47.3 C327.6,47.2 327.7,47.1 327.9,47.1 Z" id="Path" fill="#33617E" fill-rule="nonzero"></path>
            <path d="M329.3,47.1 L329.6,47.1 C329.7,47.1 329.8,47.2 329.8,47.3 L329.8,48.3 C329.8,48.4 329.7,48.5 329.6,48.5 L329.3,48.5 C329.2,48.5 329.1,48.4 329.1,48.3 L329.1,47.3 C329,47.2 329.1,47.1 329.3,47.1 Z" id="Path" fill="#33617E" fill-rule="nonzero"></path>
            <path d="M330.7,47.1 L331,47.1 C331.1,47.1 331.2,47.2 331.2,47.3 L331.2,48.3 C331.2,48.4 331.1,48.5 331,48.5 L330.7,48.5 C330.6,48.5 330.5,48.4 330.5,48.3 L330.5,47.3 C330.4,47.2 330.5,47.1 330.7,47.1 Z" id="Path" fill="#33617E" fill-rule="nonzero"></path>
            <path d="M332.1,47.1 L332.4,47.1 C332.5,47.1 332.6,47.2 332.6,47.3 L332.6,48.3 C332.6,48.4 332.5,48.5 332.4,48.5 L332.1,48.5 C332,48.5 331.9,48.4 331.9,48.3 L331.9,47.3 C331.8,47.2 331.9,47.1 332.1,47.1 Z" id="Path" fill="#33617E" fill-rule="nonzero"></path>
            <path d="M333.5,47.1 L333.8,47.1 C333.9,47.1 334,47.2 334,47.3 L334,48.3 C334,48.4 333.9,48.5 333.8,48.5 L333.5,48.5 C333.4,48.5 333.3,48.4 333.3,48.3 L333.3,47.3 C333.2,47.2 333.3,47.1 333.5,47.1 Z" id="Path" fill="#33617E" fill-rule="nonzero"></path>
            <path d="M334.9,47.1 L335.2,47.1 C335.3,47.1 335.4,47.2 335.4,47.3 L335.4,48.3 C335.4,48.4 335.3,48.5 335.2,48.5 L334.9,48.5 C334.8,48.5 334.7,48.4 334.7,48.3 L334.7,47.3 C334.6,47.2 334.8,47.1 334.9,47.1 Z" id="Path" fill="#33617E" fill-rule="nonzero"></path>
            <path d="M336.3,47.1 L336.6,47.1 C336.7,47.1 336.8,47.2 336.8,47.3 L336.8,48.3 C336.8,48.4 336.7,48.5 336.6,48.5 L336.3,48.5 C336.2,48.5 336.1,48.4 336.1,48.3 L336.1,47.3 C336,47.2 336.2,47.1 336.3,47.1 Z" id="Path" fill="#33617E" fill-rule="nonzero"></path>
            <path d="M337.7,47.1 L338,47.1 C338.1,47.1 338.2,47.2 338.2,47.3 L338.2,48.3 C338.2,48.4 338.1,48.5 338,48.5 L337.7,48.5 C337.6,48.5 337.5,48.4 337.5,48.3 L337.5,47.3 C337.5,47.2 337.6,47.1 337.7,47.1 Z" id="Path" fill="#33617E" fill-rule="nonzero"></path>
            <path d="M339.1,47.1 L339.4,47.1 C339.5,47.1 339.6,47.2 339.6,47.3 L339.6,48.3 C339.6,48.4 339.5,48.5 339.4,48.5 L339.1,48.5 C339,48.5 338.9,48.4 338.9,48.3 L338.9,47.3 C338.9,47.2 339,47.1 339.1,47.1 Z" id="Path" fill="#33617E" fill-rule="nonzero"></path>
            <path d="M340.5,47.1 L340.8,47.1 C340.9,47.1 341,47.2 341,47.3 L341,48.3 C341,48.4 340.9,48.5 340.8,48.5 L340.5,48.5 C340.4,48.5 340.3,48.4 340.3,48.3 L340.3,47.3 C340.3,47.2 340.4,47.1 340.5,47.1 Z" id="Path" fill="#33617E" fill-rule="nonzero"></path>
            <path d="M341.9,47.1 L342.2,47.1 C342.3,47.1 342.4,47.2 342.4,47.3 L342.4,48.3 C342.4,48.4 342.3,48.5 342.2,48.5 L341.9,48.5 C341.8,48.5 341.7,48.4 341.7,48.3 L341.7,47.3 C341.7,47.2 341.8,47.1 341.9,47.1 Z" id="Path" fill="#33617E" fill-rule="nonzero"></path>
            <path d="M343.3,47.1 L343.6,47.1 C343.7,47.1 343.8,47.2 343.8,47.3 L343.8,48.3 C343.8,48.4 343.7,48.5 343.6,48.5 L343.3,48.5 C343.2,48.5 343.1,48.4 343.1,48.3 L343.1,47.3 C343.1,47.2 343.2,47.1 343.3,47.1 Z" id="Path" fill="#33617E" fill-rule="nonzero"></path>
            <path d="M348.3,47.1 L348.6,47.1 C348.7,47.1 348.8,47.2 348.8,47.3 L348.8,48.3 C348.8,48.4 348.7,48.5 348.6,48.5 L348.3,48.5 C348.2,48.5 348.1,48.4 348.1,48.3 L348.1,47.3 C348.1,47.2 348.2,47.1 348.3,47.1 Z" id="Path" fill="#33617E" fill-rule="nonzero"></path>
            <path d="M349.7,47.1 L350,47.1 C350.1,47.1 350.2,47.2 350.2,47.3 L350.2,48.3 C350.2,48.4 350.1,48.5 350,48.5 L349.7,48.5 C349.6,48.5 349.5,48.4 349.5,48.3 L349.5,47.3 C349.5,47.2 349.6,47.1 349.7,47.1 Z" id="Path" fill="#33617E" fill-rule="nonzero"></path>
            <path d="M351.1,47.1 L351.4,47.1 C351.5,47.1 351.6,47.2 351.6,47.3 L351.6,48.3 C351.6,48.4 351.5,48.5 351.4,48.5 L351.1,48.5 C351,48.5 350.9,48.4 350.9,48.3 L350.9,47.3 C350.9,47.2 351,47.1 351.1,47.1 Z" id="Path" fill="#33617E" fill-rule="nonzero"></path>
            <path d="M352.5,47.1 L352.8,47.1 C352.9,47.1 353,47.2 353,47.3 L353,48.3 C353,48.4 352.9,48.5 352.8,48.5 L352.5,48.5 C352.4,48.5 352.3,48.4 352.3,48.3 L352.3,47.3 C352.3,47.2 352.4,47.1 352.5,47.1 Z" id="Path" fill="#33617E" fill-rule="nonzero"></path>
            <path d="M353.9,47.1 L354.2,47.1 C354.3,47.1 354.4,47.2 354.4,47.3 L354.4,48.3 C354.4,48.4 354.3,48.5 354.2,48.5 L353.9,48.5 C353.8,48.5 353.7,48.4 353.7,48.3 L353.7,47.3 C353.7,47.2 353.8,47.1 353.9,47.1 Z" id="Path" fill="#33617E" fill-rule="nonzero"></path>
            <path d="M355.3,47.1 L355.6,47.1 C355.7,47.1 355.8,47.2 355.8,47.3 L355.8,48.3 C355.8,48.4 355.7,48.5 355.6,48.5 L355.3,48.5 C355.2,48.5 355.1,48.4 355.1,48.3 L355.1,47.3 C355.1,47.2 355.2,47.1 355.3,47.1 Z" id="Path" fill="#33617E" fill-rule="nonzero"></path>
            <path d="M356.7,47.1 L357,47.1 C357.1,47.1 357.2,47.2 357.2,47.3 L357.2,48.3 C357.2,48.4 357.1,48.5 357,48.5 L356.7,48.5 C356.6,48.5 356.5,48.4 356.5,48.3 L356.5,47.3 C356.5,47.2 356.6,47.1 356.7,47.1 Z" id="Path" fill="#33617E" fill-rule="nonzero"></path>
            <path d="M358.1,47.1 L358.4,47.1 C358.5,47.1 358.6,47.2 358.6,47.3 L358.6,48.3 C358.6,48.4 358.5,48.5 358.4,48.5 L358.1,48.5 C358,48.5 357.9,48.4 357.9,48.3 L357.9,47.3 C357.9,47.2 358,47.1 358.1,47.1 Z" id="Path" fill="#33617E" fill-rule="nonzero"></path>
            <path d="M359.5,47.1 L359.8,47.1 C359.9,47.1 360,47.2 360,47.3 L360,48.3 C360,48.4 359.9,48.5 359.8,48.5 L359.5,48.5 C359.4,48.5 359.3,48.4 359.3,48.3 L359.3,47.3 C359.3,47.2 359.4,47.1 359.5,47.1 Z" id="Path" fill="#33617E" fill-rule="nonzero"></path>
            <path d="M360.9,47.1 L361.2,47.1 C361.3,47.1 361.4,47.2 361.4,47.3 L361.4,48.3 C361.4,48.4 361.3,48.5 361.2,48.5 L360.9,48.5 C360.8,48.5 360.7,48.4 360.7,48.3 L360.7,47.3 C360.7,47.2 360.8,47.1 360.9,47.1 Z" id="Path" fill="#33617E" fill-rule="nonzero"></path>
            <path d="M362.3,47.1 L362.6,47.1 C362.7,47.1 362.8,47.2 362.8,47.3 L362.8,48.3 C362.8,48.4 362.7,48.5 362.6,48.5 L362.3,48.5 C362.2,48.5 362.1,48.4 362.1,48.3 L362.1,47.3 C362.1,47.2 362.2,47.1 362.3,47.1 Z" id="Path" fill="#33617E" fill-rule="nonzero"></path>
            <path d="M363.8,47.1 L364.1,47.1 C364.2,47.1 364.3,47.2 364.3,47.3 L364.3,48.3 C364.3,48.4 364.2,48.5 364.1,48.5 L363.8,48.5 C363.7,48.5 363.6,48.4 363.6,48.3 L363.6,47.3 C363.5,47.2 363.6,47.1 363.8,47.1 Z" id="Path" fill="#33617E" fill-rule="nonzero"></path>
            <path d="M365.2,47.1 L365.5,47.1 C365.6,47.1 365.7,47.2 365.7,47.3 L365.7,48.3 C365.7,48.4 365.6,48.5 365.5,48.5 L365.2,48.5 C365.1,48.5 365,48.4 365,48.3 L365,47.3 C364.9,47.2 365,47.1 365.2,47.1 Z" id="Path" fill="#33617E" fill-rule="nonzero"></path>
            <path d="M366.6,47.1 L366.9,47.1 C367,47.1 367.1,47.2 367.1,47.3 L367.1,48.3 C367.1,48.4 367,48.5 366.9,48.5 L366.6,48.5 C366.5,48.5 366.4,48.4 366.4,48.3 L366.4,47.3 C366.3,47.2 366.4,47.1 366.6,47.1 Z" id="Path" fill="#33617E" fill-rule="nonzero"></path>
            <path d="M368,47.1 L368.3,47.1 C368.4,47.1 368.5,47.2 368.5,47.3 L368.5,48.3 C368.5,48.4 368.4,48.5 368.3,48.5 L368,48.5 C367.9,48.5 367.8,48.4 367.8,48.3 L367.8,47.3 C367.7,47.2 367.8,47.1 368,47.1 Z" id="Path" fill="#33617E" fill-rule="nonzero"></path>
            <path d="M369.4,47.1 L369.7,47.1 C369.8,47.1 369.9,47.2 369.9,47.3 L369.9,48.3 C369.9,48.4 369.8,48.5 369.7,48.5 L369.4,48.5 C369.3,48.5 369.2,48.4 369.2,48.3 L369.2,47.3 C369.1,47.2 369.2,47.1 369.4,47.1 Z" id="Path" fill="#33617E" fill-rule="nonzero"></path>
            <path d="M370.8,47.1 L371.1,47.1 C371.2,47.1 371.3,47.2 371.3,47.3 L371.3,48.3 C371.3,48.4 371.2,48.5 371.1,48.5 L370.8,48.5 C370.7,48.5 370.6,48.4 370.6,48.3 L370.6,47.3 C370.5,47.2 370.6,47.1 370.8,47.1 Z" id="Path" fill="#33617E" fill-rule="nonzero"></path>
            <path d="M319.8,47.1 C319.8,47.5 318,47.9 317,47.9 C316,47.9 312.6,47.7 311,47.5 C309.7,47.1 302.8,45.6 300.6,44.9 C302.6,44.8 304.6,44.8 306.6,44.9 C307.3,44.9 319.8,46.9 319.8,47.1 Z" id="Path" fill="#96A6AE" fill-rule="nonzero"></path>
            <path d="M320.2,50.6 L383.3,50.6 L383.3,50.6 C383.3,50.9 383.2,51.2 382.9,51.5 L324.2,51.5 L320.2,50.6 Z" id="Path" fill="#0099DA" fill-rule="nonzero" opacity="0.8"></path>
            <path d="M319.4,47.4 C316.7,46.8 307.2,45.1 306.7,45.1 C306.2,45.1 303,44.8 301.1,44.8 C302.8,44.7 306.1,44.8 306.7,44.8 C307.3,44.8 319.8,46.8 319.8,47 C319.8,47.2 319.6,47.3 319.4,47.4 Z" id="Path" fill="#D5DBDF" fill-rule="nonzero"></path>
            <path d="M363.1,52.1 C363.2,53.1 351.9,52.7 350.6,52.6 C349.3,52.5 322,47.3 322,47 C322,46.7 327.5,46.5 328.1,46.6 C328.7,46.7 358,49.8 360.1,50.3 C361.4,50.6 363,51.1 363.1,52.1 Z" id="Path" fill="#96A6AE" fill-rule="nonzero"></path>
            <path d="M363.1,52.1 C360.6,51.1 331.3,47.4 324.4,46.5 C325.6,46.4 326.8,46.4 328,46.5 C328.6,46.6 357.9,49.7 360,50.2 C361.4,50.6 363,51.1 363.1,52.1 Z" id="Path" fill="#D5DBDF" fill-rule="nonzero"></path>
            <path d="M321.9,46.9 C323,47.2 324.1,47.3 325.1,47.3 C326.9,47.3 328.3,47.5 328.3,46.9 C328.3,46.3 326.9,46.5 325.1,46.5 C324,46.4 322.9,46.5 321.9,46.9 Z" id="Path" fill="#C0CACE" fill-rule="nonzero"></path>
            <path d="M325.4,46.9 C325.8,47 326.2,47.1 326.5,47 C326.9,47 327.3,47 327.6,46.9 C327.2,46.8 326.8,46.7 326.5,46.8 C326.2,46.7 325.8,46.7 325.4,46.9 Z" id="Path" fill="#2C2C2C" fill-rule="nonzero"></path>
            <path d="M332,50.3 L332,52.1 C332,52.2 332.1,52.2 332.1,52.2 L336.8,52.2 C336.9,52.2 336.9,52.2 336.9,52.1 L336.9,50.3 C336.9,50.2 336.9,50.2 336.8,50.2 L332.1,50.2 C332.1,50.2 332,50.2 332,50.3 Z M332.1,50.3 L336.7,50.3 L336.7,52 L332.1,52 L332.1,50.3 Z" id="Shape" fill="#003A5D" fill-rule="nonzero"></path>
            <polygon id="Path" fill="#003A5D" fill-rule="nonzero" points="336.8 51 333.9 48.8 342 49.5 342.6 50.4"></polygon>
            <polygon id="Path" fill="#003A5D" fill-rule="nonzero" points="350.5 52.9 347.7 50.8 355.4 51.4 356 52.3"></polygon>
            <path d="M352.2,55.9 L356.8,55.9 C357,55.9 357.3,55.7 357.3,55.5 C357.3,55.5 357.3,55.5 357.3,55.5 L357.3,52 C357.3,51.8 357.1,51.6 356.8,51.6 L356.8,51.6 L352.2,51.6 C351,51.6 348.4,52.5 348.4,53.7 L348.4,53.9 C348.4,55 351,55.9 352.2,55.9 Z" id="Path" fill="#C0CACE" fill-rule="nonzero"></path>
            <path d="M356.4,51.6 L356.8,51.6 C357,51.6 357.3,51.8 357.3,52 C357.3,52 357.3,52 357.3,52 L357.3,55.5 C357.3,55.7 357.1,55.9 356.8,55.9 L356.8,55.9 L356.4,55.9 L356.4,51.6 Z" id="Path" fill="#96A6AE" fill-rule="nonzero"></path>
            <path d="M350.1,52.1 L350.1,55.4 C349.2,55 348.4,54.4 348.4,53.8 L348.4,53.7 C348.4,53 349.2,52.5 350.1,52.1 Z" id="Path" fill="#003A5D" fill-rule="nonzero"></path>
            <path d="M349.2,54.9 L348.8,54.6 L348.8,52.8 C348.9,52.7 349,52.6 349.2,52.5 L349.2,54.9 Z" id="Path" fill="#B7BABC" fill-rule="nonzero"></path>
            <path d="M338.6,54.2 L343.4,54.2 C343.7,54.2 343.9,54 343.9,53.7 L343.9,50 C343.9,49.7 343.7,49.5 343.4,49.5 L343.4,49.5 L338.6,49.5 C337.4,49.5 334.6,50.5 334.6,51.7 L334.6,52 C334.6,53.2 337.3,54.2 338.6,54.2 Z" id="Path" fill="#C0CACE" fill-rule="nonzero"></path>
            <path d="M343,49.6 L343.4,49.6 C343.7,49.6 343.9,49.8 343.9,50.1 L343.9,50.1 L343.9,53.7 C343.9,54 343.7,54.2 343.4,54.2 L343,54.2 L343,49.6 Z" id="Path" fill="#96A6AE" fill-rule="nonzero"></path>
            <path d="M336.4,50.1 L336.4,53.6 C335.5,53.2 334.6,52.6 334.6,51.9 L334.6,51.7 C334.6,51.1 335.4,50.5 336.4,50.1 Z" id="Path" fill="#003A5D" fill-rule="nonzero"></path>
            <path d="M335.4,53.1 C335.3,53 335.1,52.9 335,52.8 L335,51 C335.1,50.9 335.2,50.8 335.4,50.7 L335.4,53.1 Z" id="Path" fill="#B7BABC" fill-rule="nonzero"></path>
            <path d="M366,50.3 L366,52.1 C366,52.2 366,52.2 366.1,52.2 L370.8,52.2 C370.9,52.2 370.9,52.2 370.9,52.1 L370.9,50.3 C370.9,50.2 370.8,50.2 370.8,50.2 L366.1,50.2 C366,50.2 366,50.2 366,50.3 Z M366.1,50.3 L370.7,50.3 L370.7,52 L366.1,52 L366.1,50.3 Z" id="Shape" fill="#003A5D" fill-rule="nonzero"></path>
            <path d="M415.5,211.5 L418.6,211.5 C419.3,211.5 420,211.2 420.5,210.7 L421.2,210 C421.7,209.5 422,208.8 422,208.1 L422,208.1 C422,207.4 422.3,206.7 422.8,206.2 L424.2,204.8 C424.7,204.3 425,203.6 425,202.9 L425,198.6 C425,197.9 424.7,197.2 424.2,196.7 L420,192.5 C419.5,192 418.8,191.8 418.1,191.8 L411.4,191.8 C410.7,191.8 410,192.1 409.5,192.6 L405.7,196.4 C405.2,196.9 404.9,197.6 404.9,198.3 L404.9,204.5 C404.9,205.2 405.2,205.9 405.7,206.4 L410.1,210.8 C410.6,211.3 411.3,211.6 412,211.6 L415.5,211.5 Z" id="Path" fill="#CCD8DF" fill-rule="nonzero"></path>
            <path d="M424.1,196.9 L419.9,192.7 C419.4,192.2 418.7,191.9 418,191.9 L411.3,191.9 C410.6,191.9 409.9,192.2 409.4,192.7 L405.6,196.5 C405.1,197 404.8,197.7 404.8,198.4 L404.8,202.5 C404.8,201.8 405.1,201.1 405.6,200.6 L409.4,196.8 C409.9,196.3 410.6,196 411.3,196 L418,196 C418.7,196 419.4,196.3 419.9,196.8 L424.1,201 C424.6,201.5 424.9,202.2 424.9,202.9 L424.9,198.8 C424.9,198 424.6,197.4 424.1,196.9 Z" id="Path" fill="#E5EBEF" fill-rule="nonzero"></path>
            <path d="M402.7,201 L398.5,201 C398,201 397.5,201.2 397.2,201.5 L396.2,202.6 C395.8,203 395.6,203.4 395.6,203.9 L395.6,208.9 C395.6,209.4 395.8,209.9 396.2,210.2 L399.2,213.2 C399.5,213.6 400,213.8 400.5,213.8 L403.9,213.8 C404.4,213.8 404.9,213.6 405.3,213.3 L407.8,210.8 C408.2,210.4 408.4,210 408.4,209.5 L408.4,206.6 C408.4,206.1 408.2,205.6 407.8,205.3 L404.1,201.7 C403.6,201.2 403.2,201 402.7,201 Z" id="Path" fill="#99B0BE" fill-rule="nonzero"></path>
            <path d="M407.7,205.2 L404,201.6 C403.6,201.2 403.2,201.1 402.7,201.1 L398.5,201.1 C398,201.1 397.5,201.3 397.2,201.6 L396.2,202.7 C395.8,203.1 395.6,203.5 395.6,204 L395.6,207.3 C395.6,206.8 395.8,206.3 396.2,206 L397.2,204.9 C397.6,204.5 398,204.3 398.5,204.4 L402.7,204.4 C403.2,204.4 403.7,204.6 404,204.9 L407.6,208.5 C407.9,208.8 408.1,209.2 408.1,209.7 C408.1,209.6 408.1,209.6 408.1,209.5 L408.1,206.6 C408.2,206 408,205.6 407.7,205.2 Z" id="Path" fill="#B2C4CE" fill-rule="nonzero"></path>
            <rect id="Rectangle" fill="#33617E" fill-rule="nonzero" x="415" y="200.4" width="1" height="28.3"></rect>
            <path d="M415.1,208.2 C415,208.2 415,208.2 415,208.1 L411.4,204.5 C411.3,204.4 411.3,204.3 411.4,204.2 C411.5,204.1 411.6,204.1 411.7,204.2 C411.7,204.2 411.7,204.2 411.7,204.2 L415.3,207.8 C415.4,207.9 415.4,208 415.3,208.1 C415.2,208.1 415.1,208.2 415.1,208.2 Z" id="Path" fill="#33617E" fill-rule="nonzero"></path>
            <path d="M415.3,203.4 C415.2,203.4 415.2,203.4 415.2,203.3 C415.1,203.2 415.1,203.1 415.2,203 C415.2,203 415.2,203 415.2,203 L416.7,201.5 C416.8,201.4 416.9,201.4 417,201.5 C417.1,201.6 417.1,201.7 417,201.8 C417,201.8 417,201.8 417,201.8 L415.5,203.3 C415.4,203.4 415.4,203.4 415.3,203.4 Z" id="Path" fill="#33617E" fill-rule="nonzero"></path>
            <rect id="Rectangle" fill="#33617E" fill-rule="nonzero" x="401.8" y="206.8" width="1" height="22"></rect>
            <path d="M402,210.7 C401.9,210.7 401.9,210.7 401.9,210.6 C401.8,210.5 401.8,210.4 401.9,210.3 C401.9,210.3 401.9,210.3 401.9,210.3 L403.7,208.5 C403.8,208.4 403.9,208.4 404,208.5 C404,208.5 404,208.5 404,208.5 C404.1,208.6 404.1,208.7 404,208.8 L402.2,210.6 C402.1,210.7 402.1,210.7 402,210.7 Z" id="Path" fill="#33617E" fill-rule="nonzero"></path>
            <path d="M401.9,209.7 C401.8,209.7 401.8,209.7 401.8,209.6 L400,208 C399.9,207.9 399.9,207.8 400,207.7 C400.1,207.6 400.2,207.6 400.3,207.7 L402,209.3 C402.1,209.4 402.1,209.5 402,209.6 C402,209.6 402,209.6 402,209.6 C402,209.7 401.9,209.7 401.9,209.7 Z" id="Path" fill="#33617E" fill-rule="nonzero"></path>
            <path d="M71,134.8 C70,134.8 69.1,135.6 69.1,136.7 L69.1,140.1 L70,140.1 L70,136.7 C70.1,136.1 70.6,135.7 71.2,135.7 C71.7,135.7 72.1,136.1 72.2,136.7 L72.2,169.9 L73,169.9 L73,136.7 C73,135.6 72.1,134.8 71,134.8 C71,134.8 71,134.8 71,134.8 Z" id="Path" fill="#33617E" fill-rule="nonzero"></path>
            <path d="M69.5,139.6 L69.6,139.6 C70.1,139.6 70.6,140 70.6,140.6 L70.6,140.7 C70.6,141.2 70.2,141.7 69.6,141.7 L69.5,141.7 C69,141.7 68.5,141.3 68.5,140.7 L68.5,140.6 C68.5,140.1 69,139.6 69.5,139.6 Z" id="Path" fill="#33617E" fill-rule="nonzero"></path>
            <path d="M405.2,134.8 C404.2,134.8 403.3,135.6 403.3,136.7 L403.3,140.1 L404.1,140.1 L404.1,136.7 C404.2,136.1 404.7,135.7 405.3,135.7 C405.8,135.7 406.2,136.1 406.3,136.7 L406.3,169.9 L407.1,169.9 L407.1,136.7 C407.1,135.6 406.3,134.8 405.2,134.8 Z" id="Path" fill="#33617E" fill-rule="nonzero"></path>
            <path d="M403.7,139.6 L403.8,139.6 C404.3,139.6 404.8,140 404.8,140.6 L404.8,140.7 C404.8,141.2 404.4,141.7 403.8,141.7 L403.7,141.7 C403.2,141.7 402.7,141.3 402.7,140.7 L402.7,140.6 C402.7,140.1 403.2,139.6 403.7,139.6 Z" id="Path" fill="#33617E" fill-rule="nonzero"></path>
            <path d="M182.4,134.8 C181.4,134.8 180.5,135.6 180.5,136.7 L180.5,140.1 L181.3,140.1 L181.3,136.7 C181.4,136.1 181.9,135.7 182.5,135.7 C183,135.7 183.4,136.1 183.5,136.7 L183.5,169.9 L184.3,169.9 L184.3,136.7 C184.3,135.6 183.5,134.8 182.4,134.8 Z" id="Path" fill="#33617E" fill-rule="nonzero"></path>
            <path d="M180.9,139.6 L181,139.6 C181.5,139.6 182,140 182,140.6 L182,140.7 C182,141.2 181.6,141.7 181,141.7 L180.9,141.7 C180.4,141.7 179.9,141.3 179.9,140.7 L179.9,140.6 C179.9,140.1 180.4,139.6 180.9,139.6 Z" id="Path" fill="#33617E" fill-rule="nonzero"></path>
            <path d="M344.4,226.5 L344.3,225.6 C344.2,224.7 343.6,224 342.8,223.8 L342.8,223.8 C341.7,223.5 340.5,223.3 339.4,223.2 L336,223 L334.3,222 C332.8,221.1 331.1,220.7 329.4,220.7 L329,220.7 C326.8,220.7 324.6,221.1 322.5,221.9 L320.5,222.7 L318.3,222.9 C317.7,223 317.2,223.5 317.2,224.1 L317.1,226 C317.1,226.7 317.6,227.3 318.2,227.5 L320.5,228 L342.6,228 L343.7,227.7 C344.2,227.2 344.5,226.9 344.4,226.5 Z" id="Path" fill="#A6BAC6" fill-rule="nonzero"></path>
            <path d="M337.2,227.7 L337.2,226.9 C337.2,225.6 338.3,224.5 339.6,224.5 L339.6,224.5 L339.6,224.5 C340.9,224.5 342,225.6 342,226.9 L342,226.9 L342,227.7 L337.2,227.7 Z" id="Path" fill="#00182B" fill-rule="nonzero"></path>
            <path d="M337.7,226.7 C337.7,227.8 338.6,228.6 339.6,228.6 C340.7,228.6 341.5,227.7 341.5,226.7 C341.5,225.6 340.6,224.8 339.6,224.8 C339.6,224.8 339.6,224.8 339.6,224.8 C338.5,224.7 337.7,225.6 337.7,226.7 C337.7,226.7 337.7,226.7 337.7,226.7 Z" id="Path" fill="#003A5D" fill-rule="nonzero"></path>
            <circle id="Oval" fill="#96A6AE" fill-rule="nonzero" cx="339.6" cy="226.7" r="1.2"></circle>
            <path d="M320.6,227.7 L320.3,227.6 L320.3,226.9 C320.3,225.6 321.4,224.5 322.7,224.5 L322.7,224.5 L322.7,224.5 C324,224.5 325.1,225.6 325.1,226.9 L325.1,226.9 L325.1,227.7 L320.6,227.7 Z" id="Path" fill="#00182B" fill-rule="nonzero"></path>
            <path d="M320.8,226.7 C320.8,227.8 321.7,228.6 322.7,228.6 C323.8,228.6 324.6,227.7 324.6,226.7 C324.6,225.6 323.7,224.8 322.7,224.8 C322.7,224.8 322.7,224.8 322.7,224.8 C321.7,224.7 320.8,225.6 320.8,226.7 Z" id="Path" fill="#003A5D" fill-rule="nonzero"></path>
            <path d="M335.1,223 C335.2,223 335.2,222.9 335.2,222.9 C335.2,222.9 335.2,222.8 335.2,222.8 C334.1,221.9 332.7,221.3 331.3,221 C329.3,220.7 327.2,220.8 325.3,221.3 C324.4,221.6 323.6,221.9 322.7,222.3 C322.6,222.3 322.6,222.4 322.6,222.5 C322.6,222.6 322.7,222.6 322.8,222.6 L335.1,223 Z" id="Path" fill="#003A5D" fill-rule="nonzero"></path>
            <circle id="Oval" fill="#96A6AE" fill-rule="nonzero" cx="322.7" cy="226.7" r="1.2"></circle>
            <path d="M67.8,222.1 L67.8,217.6 L65.5,213.3 L60.9,211.3 L8.8,211.3 L7.6,215.2 C7.6,215.2 8.6,219.5 8.6,219.8 C8.6,220.1 61.3,222.2 61.5,222.3 C61.7,222.4 67.8,222.1 67.8,222.1 Z" id="Path" fill="#003A5D" fill-rule="nonzero"></path>
            <path d="M7,213.2 L7,224.3 C7,225.6 8.1,226.7 9.4,226.7 L65.8,226.7 C67.1,226.7 68.2,225.6 68.2,224.3 L68.2,218.8 C68.2,214.4 64.6,210.8 60.1,210.8 L9.4,210.8 C8.1,210.9 7,211.9 7,213.2 Z M67.2,218.9 L67.2,221.3 L61.4,221.3 L61.4,218.5 C61.4,217.7 60.8,217.1 60,217.1 L9.1,217.1 L9.1,215.9 C9.1,213.6 10.9,211.8 13.2,211.8 L60.1,211.8 C64,211.8 67.2,215 67.2,218.9 Z" id="Shape" fill="#0099DA" fill-rule="nonzero"></path>
            <path d="M54.6,222.4 L54.6,222.4 C56.2,222.4 57.5,223.7 57.5,225.3 L57.5,226.7 L51.6,226.7 L51.6,225.3 C51.7,223.7 53,222.4 54.6,222.4 Z" id="Path" fill="#00182B" fill-rule="nonzero"></path>
            <circle id="Oval" fill="#003A5D" fill-rule="nonzero" cx="54.6" cy="225.8" r="2.7"></circle>
            <path d="M53,225.9 C53,226.8 53.7,227.4 54.5,227.4 C55.4,227.4 56,226.7 56,225.9 C56,225 55.3,224.4 54.5,224.4 C54.5,224.4 54.5,224.4 54.5,224.4 C53.7,224.3 53,225 53,225.9 Z" id="Path" fill="#BAC4C9" fill-rule="nonzero"></path>
            <path d="M27.9,222.4 L27.9,222.4 C29.5,222.4 30.8,223.7 30.8,225.3 L30.8,226.7 L25,226.7 L25,225.3 C25,223.7 26.3,222.4 27.9,222.4 C27.9,222.4 27.9,222.4 27.9,222.4 Z" id="Path" fill="#00182B" fill-rule="nonzero"></path>
            <circle id="Oval" fill="#003A5D" fill-rule="nonzero" cx="28" cy="225.8" r="2.7"></circle>
            <path d="M26.4,225.9 C26.4,226.8 27.1,227.4 27.9,227.4 C28.7,227.4 29.4,226.7 29.4,225.9 C29.4,225 28.7,224.4 27.9,224.4 C27.9,224.4 27.9,224.4 27.9,224.4 C27.1,224.3 26.4,225 26.4,225.9 Z" id="Path" fill="#BAC4C9" fill-rule="nonzero"></path>
            <path d="M21.2,222.4 L21.2,222.4 C22.8,222.4 24.1,223.7 24.1,225.3 L24.1,226.7 L18.2,226.7 L18.2,225.3 C18.3,223.7 19.6,222.4 21.2,222.4 Z" id="Path" fill="#00182B" fill-rule="nonzero"></path>
            <circle id="Oval" fill="#003A5D" fill-rule="nonzero" cx="21.2" cy="225.9" r="2.7"></circle>
            <path d="M19.7,225.9 C19.7,226.8 20.4,227.4 21.2,227.4 C22,227.4 22.7,226.7 22.7,225.9 C22.7,225 22,224.4 21.2,224.4 C21.2,224.4 21.2,224.4 21.2,224.4 C20.4,224.3 19.7,225 19.7,225.9 Z" id="Path" fill="#BAC4C9" fill-rule="nonzero"></path>
            <path d="M67,215.7 L69.6,215.7 C70.2,215.7 70.6,216.1 70.6,216.7 L70.6,219 C70.6,219.4 70.3,219.7 70,219.7 C70,219.7 70,219.7 70,219.7 L70,219.7 C69.6,219.7 69.3,219.4 69.3,219 L69.3,219 L69.3,216.8 L67,216.8 L67,215.7 Z" id="Path" fill="#009BDB" fill-rule="nonzero"></path>
            <polygon id="Path" fill="#174B6C" fill-rule="nonzero" points="52.6 217.1 46 217.1 40.1 211.8 46.7 211.8"></polygon>
            <polygon id="Path" fill="#174B6C" fill-rule="nonzero" points="43.9 217.1 40.3 217.1 34.4 211.8 38 211.8"></polygon>
            <path d="M98.4,226.5 L98.3,225.6 C98.2,224.7 97.6,224 96.8,223.8 L96.8,223.8 C95.7,223.5 94.5,223.3 93.4,223.2 L90,223 L88.3,222 C86.8,221.1 85.1,220.7 83.4,220.7 L83,220.7 C80.8,220.7 78.6,221.1 76.5,221.9 L74.5,222.7 L72.3,222.9 C71.7,223 71.2,223.5 71.2,224.1 L71.1,226 C71.1,226.7 71.5,227.3 72.2,227.5 L74.5,228 L96.6,228 L97.7,227.7 C98.2,227.3 98.5,226.9 98.4,226.5 Z" id="Path" fill="#FFE600" fill-rule="nonzero"></path>
            <path d="M91.2,227.7 L91.2,226.9 C91.2,225.6 92.3,224.5 93.6,224.5 L93.6,224.5 L93.6,224.5 C94.9,224.5 96,225.6 96,226.9 L96,227.7 L91.2,227.7 Z" id="Path" fill="#00182B" fill-rule="nonzero"></path>
            <path d="M91.7,226.7 C91.7,227.8 92.6,228.6 93.6,228.6 C94.6,228.6 95.5,227.7 95.5,226.7 C95.5,225.7 94.6,224.8 93.6,224.8 C93.6,224.8 93.6,224.8 93.6,224.8 C92.5,224.7 91.7,225.6 91.7,226.7 L91.7,226.7 Z" id="Path" fill="#003A5D" fill-rule="nonzero"></path>
            <circle id="Oval" fill="#96A6AE" fill-rule="nonzero" cx="93.6" cy="226.7" r="1.2"></circle>
            <path d="M74.6,227.7 L74.3,227.6 L74.3,226.9 C74.3,225.6 75.4,224.5 76.7,224.5 L76.7,224.5 L76.7,224.5 C78,224.5 79.1,225.6 79.1,226.9 L79.1,226.9 L79.1,227.7 L74.6,227.7 Z" id="Path" fill="#00182B" fill-rule="nonzero"></path>
            <path d="M74.8,226.7 C74.8,227.8 75.7,228.6 76.7,228.6 C77.8,228.6 78.6,227.7 78.6,226.7 C78.6,225.6 77.7,224.8 76.7,224.8 C76.7,224.8 76.7,224.8 76.7,224.8 C75.7,224.7 74.8,225.6 74.8,226.7 C74.8,226.7 74.8,226.7 74.8,226.7 Z" id="Path" fill="#003A5D" fill-rule="nonzero"></path>
            <path d="M89.1,223 C89.2,223 89.2,223 89.2,222.9 C89.2,222.9 89.2,222.8 89.1,222.8 C88,221.9 86.6,221.3 85.2,221 C83.2,220.7 81.2,220.8 79.2,221.3 C78.3,221.6 77.5,221.9 76.6,222.3 C76.5,222.3 76.5,222.4 76.5,222.5 C76.5,222.6 76.6,222.6 76.7,222.6 L89.1,223 Z" id="Path" fill="#003A5D" fill-rule="nonzero"></path>
            <circle id="Oval" fill="#96A6AE" fill-rule="nonzero" cx="76.8" cy="226.7" r="1.2"></circle>
            <polygon id="Path" fill="#CDD4D8" fill-rule="nonzero" points="249.5 228.6 269.9 228.6 327.4 181.3 307 181.3"></polygon>
            <path d="M206,224 C206,223.8 206,223.7 205.9,223.6 C205.8,223.5 205.7,223.4 205.7,223.2 L205.7,223.1 C205.7,222.9 205.6,222.8 205.5,222.7 C205.4,222.6 205.3,222.5 205.3,222.3 L204.9,214.5 L204.9,214.1 C204.9,214 204.9,213.8 205,213.7 C205.1,213.6 205.1,213.4 205.1,213.3 L205.1,213.2 C205.1,213 205.1,212.7 205.1,212.5 L205.1,212.3 C205.1,212.1 204.9,212.1 204.7,212.1 L201.3,212.1 L200.8,211.5 C200.6,211.3 200.4,211.2 200.2,211.2 L187.9,211.2 C187.7,211.2 187.5,211.3 187.3,211.5 L186.8,212.1 L162.9,212.1 C162.5,212.1 162.1,211.3 161.4,211.3 L141.7,211.3 C141.5,211.3 141,211.3 141,211.9 L140.8,213.4 L140.8,213.4 L140.8,213.4 L140.9,213.5 L140.4,218.3 L140.3,218.5 L140.1,221 L140.1,221.1 C140.1,221.3 140.1,221.5 140.1,221.7 L140.1,225 C140.1,225.2 140.2,225.4 140.4,225.4 L144.4,226.6 C144.6,226.7 144.8,226.7 145,226.7 L205.8,226.8 C206,226.8 206.2,226.9 206.2,226.7 L206,224 Z" id="Path" fill="#9CD8F1" fill-rule="nonzero"></path>
            <path d="M199.6,213.3 L143.5,213.3 C143.2,213.3 143,213.5 143,213.8 L142.6,218.6 C142.6,218.8 142.8,219.1 143,219.1 C143,219.1 143,219.1 143.1,219.1 L159.2,219.1 C159.5,219.1 159.8,219.2 160.1,219.4 L161.6,220.8 C161.8,221 162.1,221.1 162.5,221.1 L200.3,221.1 C200.6,221.1 200.8,220.9 200.8,220.6 C200.8,220.6 200.8,220.6 200.8,220.6 L200.4,213.7 C200.1,213.6 199.9,213.3 199.6,213.3 L199.6,213.3 Z" id="Path" fill="#003A5D" fill-rule="nonzero"></path>
            <polygon id="Path" fill="#003A5D" fill-rule="nonzero" points="203.2 222.5 205.4 222.8 204.8 213.4 203.2 213.4"></polygon>
            <polyline id="Path" fill="#9CD8F1" fill-rule="nonzero" points="202.6 212.9 198.5 212.9 198 213.4 198 226.5 198.5 227 203.1 227 203.1 212.9"></polyline>
            <polygon id="Path" fill="#003A5D" fill-rule="nonzero" points="153.4 213.9 153.4 226 150.3 226 150.3 213.9"></polygon>
            <path d="M149.3,213.3 L149.3,226.4 L146.2,226.4 L146.2,213.3 L149.3,213.3 Z M149.8,212.8 L145.2,212.8 L145.2,226.8 L149.8,226.8 L150.3,226.3 L150.3,213.3 L149.8,212.8 Z" id="Shape" fill="#9CD8F1" fill-rule="nonzero"></path>
            <path d="M153.4,213.3 L153.4,226.4 L150.3,226.4 L150.3,213.3 L153.4,213.3 Z M153.9,212.8 L149.3,212.8 L149.3,226.8 L153.9,226.8 L154.4,226.3 L154.4,213.3 L153.9,212.8 Z" id="Shape" fill="#9CD8F1" fill-rule="nonzero"></path>
            <rect id="Rectangle" fill="#003A5D" fill-rule="nonzero" x="146.2" y="213.8" width="3.1" height="12.1"></rect>
            <path d="M161.4,227 C161.5,226.7 161.6,226.3 161.6,225.9 C161.6,224.1 160.1,222.6 158.3,222.6 C156.5,222.6 155,224.1 155,225.9 C155,226.3 155.1,226.6 155.2,227 L161.4,227 Z" id="Path" fill="#00182B" fill-rule="nonzero"></path>
            <path d="M160.9,225.9 C160.9,224.4 159.7,223.3 158.2,223.3 C156.7,223.3 155.6,224.5 155.6,226 C155.6,227.5 156.8,228.6 158.3,228.6 C158.3,228.6 158.3,228.6 158.3,228.6 C159.7,228.5 160.9,227.3 160.9,225.9 C160.9,225.9 160.9,225.9 160.9,225.9 Z" id="Path" fill="#003A5D" fill-rule="nonzero"></path>
            <path d="M158.2,227.6 C157.2,227.6 156.4,226.8 156.4,225.8 C156.4,224.8 157.2,224 158.2,224 C159.2,224 160,224.8 160,225.8 C160.1,226.8 159.2,227.6 158.2,227.6 C158.2,227.7 158.2,227.7 158.2,227.6 Z" id="Path" fill="#A8B7BF" fill-rule="nonzero"></path>
            <path d="M191.7,227 C191.8,226.7 191.9,226.3 191.9,225.9 C191.9,224.1 190.4,222.6 188.6,222.6 C186.8,222.6 185.3,224.1 185.3,225.9 C185.3,225.9 185.3,225.9 185.3,225.9 C185.3,226.3 185.4,226.6 185.5,227 L191.7,227 Z" id="Path" fill="#00182B" fill-rule="nonzero"></path>
            <path d="M191.3,225.9 C191.3,224.4 190.1,223.3 188.6,223.3 C187.1,223.3 186,224.5 186,226 C186,227.5 187.2,228.6 188.7,228.6 C188.7,228.6 188.7,228.6 188.7,228.6 C190.1,228.5 191.3,227.3 191.3,225.9 C191.3,225.9 191.3,225.9 191.3,225.9 Z" id="Path" fill="#003A5D" fill-rule="nonzero"></path>
            <path d="M188.6,227.6 C187.6,227.6 186.8,226.8 186.8,225.8 C186.8,224.8 187.6,224 188.6,224 C189.6,224 190.4,224.8 190.4,225.8 C190.4,225.8 190.4,225.8 190.4,225.8 C190.4,226.9 189.6,227.7 188.6,227.6 Z" id="Path" fill="#A8B7BF" fill-rule="nonzero"></path>
            <rect id="Rectangle" fill="#00182B" fill-rule="nonzero" x="205.1" y="224.2" width="1" height="2.8"></rect>
            <path d="M140.6,223.5 L140.6,222.1 C140.6,221.9 140.4,221.8 140.3,221.8 L140,221.8 L140,224.5 L140.6,224.6 L140.6,223.5 L140.6,223.5 Z" id="Path" fill="#FFE600" fill-rule="nonzero"></path>
            <path d="M141.6,212.9 L140.7,212.9 L140.7,213.4 L140.7,213.4 L140.7,213.9 L140.7,213.9 L140.3,218.3 L140.3,218.3 L140.3,218.5 C140.2,218.5 140.2,218.5 140.1,218.5 L140.3,218.5 L140.3,218.7 L140.3,218.7 L140.3,219.1 L141,219.1 C141.3,219.1 141.5,218.9 141.5,218.6 L142,213.3 C142.1,213.1 141.9,212.9 141.6,212.9 C141.6,212.9 141.6,212.9 141.6,212.9 Z" id="Path" fill="#003A5D" fill-rule="nonzero"></path>
            <polygon id="Path" fill="#9CD8F1" fill-rule="nonzero" points="205 215.7 203.7 215.7 203.6 213.4 205 213.4"></polygon>
            <rect id="Rectangle" fill="#9CD8F1" fill-rule="nonzero" x="203.9" y="214.1" width="2" height="1"></rect>
            <path d="M205.6,218.8 L205.8,218.8 C206.1,218.8 206.3,218.6 206.3,218.3 C206.3,218.3 206.3,218.3 206.3,218.3 L206.3,214.7 C206.3,214.4 206.1,214.2 205.8,214.2 L205.3,214.2 L205.6,218.8 Z" id="Path" fill="#9CD8F1" fill-rule="nonzero"></path>
            <polygon id="Path" fill="#174B6C" fill-rule="nonzero" points="162.2 220.8 166.2 220.8 168.5 213.8 164.5 213.8"></polygon>
            <polygon id="Path" fill="#174B6C" fill-rule="nonzero" points="184.5 220.8 188 220.8 190.2 213.8 186.8 213.8"></polygon>
            <polygon id="Path" fill="#174B6C" fill-rule="nonzero" points="146.2 225.8 149.3 214.4 149.3 213.3 146.2 213.3"></polygon>
            <polygon id="Path" fill="#174B6C" fill-rule="nonzero" points="150.3 225.8 153.4 214.4 153.4 213.3 150.3 213.3"></polygon>
            <polygon id="Path" fill="#003A5D" fill-rule="nonzero" points="202.2 213.9 202.2 226 199.1 226 199.1 213.9"></polygon>
            <rect id="Rectangle" fill="#003A5D" fill-rule="nonzero" x="194.9" y="213.8" width="3.1" height="12.1"></rect>
            <polyline id="Path" fill="#174B6C" fill-rule="nonzero" points="194.9 213.3 194.9 225.8 198 214.4 198 213.3"></polyline>
            <polygon id="Path" fill="#174B6C" fill-rule="nonzero" points="199.1 225.8 202.2 214.4 202.2 213.3 199.1 213.3"></polygon>
        </g>
    </g>
</svg>