<?xml version="1.0" encoding="UTF-8"?>
<svg width="440px" height="330px" viewBox="0 0 440 330" version="1.1" xmlns="http://www.w3.org/2000/svg" xmlns:xlink="http://www.w3.org/1999/xlink">
    <title>Graphic elements / Icons / Rich icons / Marketplace / Industries-Manufacturing</title>
    <defs>
        <linearGradient x1="50.0000081%" y1="100%" x2="50.0000081%" y2="1.28017522e-05%" id="linearGradient-1">
            <stop stop-color="#FFFFFF" offset="0%"></stop>
            <stop stop-color="#FFFFFF" stop-opacity="0" offset="0%"></stop>
            <stop stop-color="#FFFFFF" stop-opacity="0.05" offset="23%"></stop>
            <stop stop-color="#FFFFFF" stop-opacity="0.17" offset="64%"></stop>
            <stop stop-color="#FFFFFF" stop-opacity="0.3" offset="100%"></stop>
        </linearGradient>
        <linearGradient x1="49.9915723%" y1="100%" x2="49.9915723%" y2="7.3132098e-05%" id="linearGradient-2">
            <stop stop-color="#FFFFFF" offset="0%"></stop>
            <stop stop-color="#FFFFFF" stop-opacity="0" offset="0%"></stop>
            <stop stop-color="#FFFFFF" stop-opacity="0.05" offset="23%"></stop>
            <stop stop-color="#FFFFFF" stop-opacity="0.17" offset="64%"></stop>
            <stop stop-color="#FFFFFF" stop-opacity="0.3" offset="100%"></stop>
        </linearGradient>
        <linearGradient x1="-0.0196609634%" y1="49.962787%" x2="100.015321%" y2="49.962787%" id="linearGradient-3">
            <stop stop-color="#FFFFFF" offset="0%"></stop>
            <stop stop-color="#FFFFFF" stop-opacity="0.2" offset="0%"></stop>
            <stop stop-color="#FFFFFF" stop-opacity="0.6" offset="100%"></stop>
        </linearGradient>
        <linearGradient x1="49.9754541%" y1="1.4567765e-13%" x2="49.9754541%" y2="100%" id="linearGradient-4">
            <stop stop-color="#FFFFFF" stop-opacity="0.4" offset="0%"></stop>
            <stop stop-color="#FFFFFF" stop-opacity="0" offset="100%"></stop>
        </linearGradient>
        <linearGradient x1="32453.5771%" y1="19860.8919%" x2="32453.5771%" y2="19960.8919%" id="linearGradient-5">
            <stop stop-color="#FFFFFF" stop-opacity="0.4" offset="0%"></stop>
            <stop stop-color="#FFFFFF" stop-opacity="0" offset="100%"></stop>
        </linearGradient>
        <linearGradient x1="0%" y1="50%" x2="100%" y2="50%" id="linearGradient-6">
            <stop stop-color="#FFFFFF" stop-opacity="0" offset="0%"></stop>
            <stop stop-color="#F8C41C" stop-opacity="0.6" offset="100%"></stop>
            <stop stop-color="#000000" offset="100%"></stop>
        </linearGradient>
    </defs>
    <g id="Graphic-elements-/-Icons-/-Rich-icons-/-Marketplace-/-Industries-Manufacturing" stroke="none" stroke-width="1" fill="none" fill-rule="evenodd">
        <g id="manufacturing" transform="translate(0.000000, 83.000000)" fill-rule="nonzero">
            <path d="M373.67,246.47 L373.67,223.42 C373.67,222.122131 374.722131,221.07 376.02,221.07 L378.66,221.07 C378.715226,221.503306 379.083191,221.828484 379.52,221.83 L382.70006,221.83 L382.70006,220.96 C382.702709,220.731094 382.612973,220.510772 382.4511,220.3489 C382.289228,220.187027 382.068906,220.097291 381.84,220.09994 L376,220.09994 C374.166415,220.09994 372.68,221.586415 372.68,223.42 L372.68,246.47 L373.67,246.47 Z" id="Path" fill="#E5EBEF"></path>
            <path d="M101.45,246.47 L101.45,223.42 C101.45,222.122131 102.502131,221.07 103.8,221.07 L106.44,221.07 C106.495226,221.503306 106.863191,221.828484 107.3,221.83 L110.48006,221.83 L110.48006,220.96 C110.482709,220.731094 110.392973,220.510772 110.2311,220.3489 C110.069228,220.187027 109.848906,220.097291 109.62,220.09994 L103.8,220.09994 C101.966415,220.09994 100.48,221.586415 100.48,223.42 L100.48,246.47 L101.45,246.47 Z" id="Path" fill="#E5EBEF"></path>
            <path d="M206.72,83.83 L215.26,75.29 C215.973468,74.5759152 216.940573,74.1732543 217.95,74.17 L226.74,74.17 C227.748213,74.1704919 228.715518,73.7713439 229.43,73.06 L235.91,66.58 C236.62592,65.8634713 237.597106,65.4606088 238.61,65.46 L248.92,65.46 C251.024205,65.46 252.73,63.7542049 252.73,61.65 L252.73,55.03 C252.724505,52.9280755 251.021924,51.2254953 248.92,51.2199953 L210.22,51.2199953 C209.206667,51.2183995 208.234666,51.6215996 207.52,52.34 L202.18,57.68 C201.465915,58.3934678 201.063254,59.3605731 201.06,60.37 L201.06,67.52 C201.060492,68.5282134 200.661344,69.4955181 199.95,70.21 L194.59,75.58 C193.871232,76.2903215 193.467722,77.259466 193.46999,78.27 L193.46999,84.48 C193.46999,86.5858287 195.174179,88.2944874 197.28,88.3 L202.07,88.3 C203.781031,88.299584 205.281929,87.1585748 205.74,85.51 L205.74,85.51 C205.917085,84.8751805 206.254577,84.2966229 206.72,83.83 Z" id="Path" fill="url(#linearGradient-1)"></path>
            <path d="M334.13,200.56 L342.67,192.02 C343.380322,191.301232 344.349466,190.897722 345.36,190.9 L354.15,190.9 C355.158213,190.900492 356.125518,190.501344 356.84,189.79 L363.32,183.31 C364.030322,182.591232 364.999466,182.187722 366.01,182.19 L376.33,182.19 C377.340475,182.19 378.309563,181.78859 379.024077,181.074077 C379.73859,180.359563 380.14,179.390475 380.14,178.38 L380.14,171.74 C380.134505,169.638076 378.431924,167.935495 376.33,167.929973 L337.63,167.929973 C336.616224,167.926163 335.643396,168.329706 334.93,169.05 L329.59,174.39 C328.875915,175.103468 328.473254,176.070573 328.47,177.08 L328.47,184.23 C328.470492,185.238213 328.071344,186.205518 327.36,186.92 L322,192.29 C321.288656,193.004482 320.889987,193.971787 320.889987,194.98 L320.889987,201.19 C320.887343,202.202206 321.28758,203.173866 322.002381,203.890544 C322.717183,204.607222 323.68779,205.01 324.7,205.01 L329.49,205.01 C331.201031,205.009584 332.701929,203.868575 333.16,202.22 L333.16,202.22 C333.337338,201.593365 333.671134,201.022127 334.13,200.56 L334.13,200.56 Z" id="Path" fill="url(#linearGradient-2)"></path>
            <path d="M439.67,19.29 L434.72,14.34 C434.507073,14.1291263 434.219675,14.0105748 433.92,14.01 L427.47,14.01 C427.170538,14.008358 426.883528,13.8899664 426.67,13.68 L421.18,8.18 C420.966062,7.97186273 420.678464,7.85682353 420.38,7.85993592 L410.23,7.85993592 C409.934784,7.85837996 409.650867,7.97338417 409.44,8.18 L404.37,13.25 C404.160296,13.4656807 403.870779,13.5851063 403.57,13.58 L396.84,13.58 L395.99,13.95 L389.13,21.21 L438.88,21.21 C439.331472,21.2028783 439.735366,20.9276774 439.907176,20.5101141 C440.078986,20.0925508 439.985726,19.6127919 439.67,19.29 L439.67,19.29 Z" id="Path" fill="url(#linearGradient-3)"></path>
            <path d="M400.93,11.16 L391.14,11.16 C390.903602,11.161473 390.676552,11.06777 390.51,10.9 L379.88,0.27 C379.710759,0.0989165633 379.480642,0.00183579591 379.24,-1.42108547e-14 L370.32,-1.42108547e-14 C370.079358,0.00183579591 369.849241,0.0989165633 369.68,0.27 L366.62,3.33 C366.449744,3.49834799 366.219425,3.59191525 365.98,3.59 L351.22,3.59 C350.979358,3.5918358 350.749241,3.68891656 350.58,3.86 L342.12,12.32 C341.949744,12.488348 341.719425,12.5819152 341.48,12.58 L330.68,12.58 C330.428501,12.5656211 330.182293,12.6561386 330,12.83 L327.09,15.74 C326.829525,15.9975092 326.75109,16.3871858 326.891654,16.7254166 C327.032217,17.0636473 327.363736,17.2829538 327.73,17.2800295 L405.17,17.2800295 C405.534101,17.2732918 405.859142,17.0501641 405.996262,16.7128034 C406.133383,16.3754427 406.056176,15.9888207 405.8,15.73 L401.53,11.46 C401.3755,11.2872425 401.160906,11.1799451 400.93,11.16 L400.93,11.16 Z" id="Path" fill="#EFF2F3"></path>
            <path d="M313.21,237.83 C313.21,235.6 312.48,183.13 312.48,179.07 C312.569455,178.152249 312.25992,177.240348 311.630277,176.566687 C311.000634,175.893026 310.111696,175.52267 309.19,175.55 L296.94,175.55 L296.94,170.27 L309.28,170.27 C311.582939,170.276781 313.784806,171.216629 315.382807,172.874932 C316.980807,174.533234 317.838489,176.768389 317.76,179.07 C317.76,183.07 318.48,237.21 318.49,237.76 L313.21,237.83 Z" id="Path" fill="#D1DBE2"></path>
            <g id="Group" opacity="0.5" transform="translate(296.000000, 170.000000)" fill="#9EB4C1">
                <rect id="Rectangle" x="0.94" y="0.27" width="12.17" height="5.28"></rect>
                <path d="M16.56,24.67 C16.75,33.26 17.19,66.07 17.21,67.83 L22.49,67.76 C22.49,67.33 22.03,33.56 21.84,24.67 L16.56,24.67 Z" id="Path"></path>
            </g>
            <polygon id="Path" fill="#E5EBEF" points="230.39 246.83 301.85 246.83 301.85 144.64 230.39 145.36"></polygon>
            <rect id="Rectangle" fill="#003A5D" x="288.43" y="153.09" width="4.93" height="8.54"></rect>
            <rect id="Rectangle" fill="#FFE600" x="278.21" y="153.09" width="4.93" height="8.54"></rect>
            <polygon id="Path" fill="#003A5D" points="272.65 153.22 268.25 153.22 268.25 161.5 272.65 161.5"></polygon>
            <rect id="Rectangle" fill="#003A5D" x="257.76" y="153.09" width="4.93" height="8.54"></rect>
            <rect id="Rectangle" fill="#003A5D" x="247.54" y="153.09" width="4.93" height="8.54"></rect>
            <rect id="Rectangle" fill="#003A5D" x="237.31" y="153.09" width="4.93" height="8.54"></rect>
            <rect id="Rectangle" fill="#003A5D" x="288.52" y="173.04" width="4.93" height="8.54"></rect>
            <rect id="Rectangle" fill="#003A5D" x="278.29" y="173.04" width="4.93" height="8.54"></rect>
            <rect id="Rectangle" fill="#003A5D" x="268.07" y="173.04" width="4.93" height="8.54"></rect>
            <rect id="Rectangle" fill="#003A5D" x="257.85" y="173.04" width="4.93" height="8.54"></rect>
            <rect id="Rectangle" fill="#003A5D" x="247.62" y="173.04" width="4.93" height="8.54"></rect>
            <rect id="Rectangle" fill="#003A5D" x="237.4" y="173.04" width="4.93" height="8.54"></rect>
            <rect id="Rectangle" fill="#003A5D" x="288.61" y="193" width="4.93" height="8.54"></rect>
            <rect id="Rectangle" fill="#003A5D" x="278.38" y="193" width="4.93" height="8.54"></rect>
            <rect id="Rectangle" fill="#003A5D" x="268.16" y="193" width="4.93" height="8.54"></rect>
            <rect id="Rectangle" fill="#003A5D" x="257.94" y="193" width="4.93" height="8.54"></rect>
            <rect id="Rectangle" fill="#003A5D" x="247.71" y="193" width="4.93" height="8.54"></rect>
            <rect id="Rectangle" fill="#003A5D" x="237.49" y="193" width="4.93" height="8.54"></rect>
            <rect id="Rectangle" fill="#003A5D" x="288.69" y="212.95" width="4.93" height="8.54"></rect>
            <rect id="Rectangle" fill="#003A5D" x="278.47" y="212.95" width="4.93" height="8.54"></rect>
            <rect id="Rectangle" fill="#003A5D" x="268.25" y="212.95" width="4.93" height="8.54"></rect>
            <rect id="Rectangle" fill="#003A5D" x="258.02" y="212.95" width="4.93" height="8.54"></rect>
            <rect id="Rectangle" fill="#003A5D" x="247.8" y="212.95" width="4.93" height="8.54"></rect>
            <rect id="Rectangle" fill="#003A5D" x="237.58" y="212.95" width="4.93" height="8.54"></rect>
            <polygon id="Path" fill="#E5EBEF" points="207.41 214.83 189.76 214.11 192.9 90.03 204.96 90.03"></polygon>
            <polygon id="Path" fill="#C3D0DA" points="198.59 214.65 207.41 215.01 204.96 90.2 198.59 90.2"></polygon>
            <path d="M207.31,123.35 L207.31,115.65 L208,115.65 L208,114.17 L191,114.17 L191.61,91.44 L206,91.44 L206,84.55 L206.58,84.55 L206.58,83.07 L191.28,83.07 L190.71,83.07 L189.87,114.2 L189.75,114.2 L189.75,115.68 L189.83,115.68 L187.17,214.57 L188.32,214.57 L189.86,157.19 L207,157.19 L207,149.5 L207.69,149.5 L207.69,148.01 L190.12,148.01 L190.78,123.34 L207.31,123.35 Z M204.18,115.65 L206.08,115.65 L206.08,121.13 L204.18,121.13 L204.18,115.65 Z M201.06,115.65 L203,115.65 L203,121.13 L201.11,121.13 L201.06,115.65 Z M197.93,115.65 L199.82,115.65 L199.82,121.13 L197.93,121.13 L197.93,115.65 Z M194.81,115.65 L196.7,115.65 L196.7,121.13 L194.81,121.13 L194.81,115.65 Z M191.68,115.65 L193.57,115.65 L193.57,121.13 L191.68,121.13 L191.68,115.65 Z M203.39,84.55 L205,84.55 L205,88.3 L203.41,88.3 L203.39,84.55 Z M200.77,84.55 L202.36,84.55 L202.36,88.3 L200.77,88.3 L200.77,84.55 Z M198.15,84.55 L199.74,84.55 L199.74,88.3 L198.15,88.3 L198.15,84.55 Z M195.53,84.55 L197.11,84.55 L197.11,88.3 L195.53,88.3 L195.53,84.55 Z M192.9,84.55 L194.49,84.55 L194.49,88.3 L192.9,88.3 L192.9,84.55 Z M203.9,149.55 L205.79,149.55 L205.79,155.02 L203.9,155.02 L203.9,149.55 Z M200.78,149.55 L202.67,149.55 L202.67,155.02 L200.78,155.02 L200.78,149.55 Z M197.65,149.55 L199.54,149.55 L199.54,155.02 L197.65,155.02 L197.65,149.55 Z M194.52,149.55 L196.42,149.55 L196.42,155.02 L194.52,155.02 L194.52,149.55 Z M191.4,149.55 L193.29,149.55 L193.29,155.02 L191.4,155.02 L191.4,149.55 Z" id="Shape" fill="#33617E"></path>
            <rect id="Rectangle" fill="#E5EBEF" x="184.27" y="187.61" width="82.38" height="59.21"></rect>
            <rect id="Rectangle" fill="#CCD8DF" x="306.65" y="205.48" width="33.26" height="38.65"></rect>
            <polygon id="Path" fill="#33617E" points="325.05 196.76 339.91 205.48 306.65 205.48"></polygon>
            <rect id="Rectangle" fill="#E5EBEF" x="306.65" y="205.48" width="10.61" height="38.65"></rect>
            <rect id="Rectangle" fill="#B2C4CE" x="329.3" y="205.48" width="10.61" height="38.65"></rect>
            <polygon id="Path" fill="#3B6782" points="325.05 196.76 317.27 205.48 306.65 205.48"></polygon>
            <rect id="Rectangle" fill="#D1DBE2" x="306.65" y="209.35" width="33.26" height="1"></rect>
            <rect id="Rectangle" fill="#003A5D" x="306.65" y="212.48" width="33.26" height="1.92"></rect>
            <rect id="Rectangle" fill="#D1DBE2" x="306.65" y="218.09" width="33.26" height="1"></rect>
            <rect id="Rectangle" fill="#D1DBE2" x="306.65" y="222.46" width="33.26" height="1"></rect>
            <rect id="Rectangle" fill="#D1DBE2" x="306.65" y="226.83" width="33.26" height="1"></rect>
            <rect id="Rectangle" fill="#D1DBE2" x="306.65" y="231.2" width="33.26" height="1"></rect>
            <rect id="Rectangle" fill="#D1DBE2" x="306.65" y="235.57" width="33.26" height="1"></rect>
            <rect id="Rectangle" fill="#D1DBE2" x="306.65" y="239.94" width="33.26" height="1"></rect>
            <rect id="Rectangle" fill="#33617E" x="306.65" y="244.13" width="33.26" height="2.69"></rect>
            <polygon id="Path" fill="#003A5D" points="339.32 201.96 335.25 201.96 334.65 201.96 330.58 201.96 329.99 201.96 325.91 201.96 325.32 201.96 321.25 201.96 320.65 201.96 316.58 201.96 315.99 201.96 311.91 201.96 311.32 201.96 307.25 201.96 306.65 201.96 306.65 202.47 306.65 205.48 306.49 205.21 302.46 207.68 301.85 246.02 302.49 246.03 302.53 243.53 306.36 243.53 306.36 242.47 302.55 242.47 302.62 237.7 306.41 237.7 306.41 236.65 302.64 236.65 302.72 231.88 306.46 231.88 306.46 230.82 302.73 230.82 302.81 226.05 306.51 226.05 306.51 225 302.83 225 302.9 220.23 306.56 220.23 306.56 219.17 302.92 219.17 303 214.4 306.61 214.4 306.61 213.35 303.01 213.35 303.09 208.58 306.65 208.58 306.65 207.52 303.95 207.52 306.82 205.76 306.65 205.48 307.25 205.48 307.25 202.47 311.32 202.47 311.32 205.48 311.91 205.48 311.91 202.47 315.99 202.47 315.99 205.48 316.58 205.48 316.58 202.47 320.65 202.47 320.65 205.48 321.25 205.48 321.25 202.47 325.32 202.47 325.32 205.48 325.91 205.48 325.91 202.47 329.99 202.47 329.99 205.48 330.58 205.48 330.58 202.47 334.65 202.47 334.65 205.48 335.25 205.48 335.25 202.47 339.32 202.47 339.32 205.48 339.91 205.48 339.91 202.47 339.91 201.96"></polygon>
            <rect id="Rectangle" fill="#0099DA" x="184.27" y="223.46" width="82.38" height="20.99"></rect>
            <polygon id="Path" fill="#33617E" points="266.64 187.61 224.5 175.82 184.27 187.61"></polygon>
            <rect id="Rectangle" fill="#0099DA" x="190.11" y="194.93" width="4.93" height="17.07"></rect>
            <path d="M189.85,194.67 L195.3,194.67 L195.3,212.28 L189.85,212.28 L189.85,194.67 Z M194.41,195.56 L190.74,195.56 L190.74,211.39 L194.41,211.39 L194.41,195.56 Z" id="Shape" fill="#003A5D"></path>
            <rect id="Rectangle" fill="#003A5D" x="189.98" y="200.47" width="5.19" height="1"></rect>
            <rect id="Rectangle" fill="#0099DA" x="199.51" y="194.93" width="4.93" height="17.07"></rect>
            <path d="M199.24,194.67 L204.7,194.67 L204.7,212.28 L199.24,212.28 L199.24,194.67 Z M203.81,195.56 L200.13,195.56 L200.13,211.39 L203.81,211.39 L203.81,195.56 Z" id="Shape" fill="#003A5D"></path>
            <rect id="Rectangle" fill="#003A5D" x="199.37" y="200.47" width="5.19" height="1"></rect>
            <rect id="Rectangle" fill="#0099DA" x="208.9" y="194.93" width="4.93" height="17.07"></rect>
            <path d="M208.64,194.67 L214.09,194.67 L214.09,212.28 L208.64,212.28 L208.64,194.67 Z M213.2,195.56 L209.53,195.56 L209.53,211.39 L213.2,211.39 L213.2,195.56 Z" id="Shape" fill="#003A5D"></path>
            <rect id="Rectangle" fill="#003A5D" x="208.77" y="200.47" width="5.19" height="1"></rect>
            <rect id="Rectangle" fill="#0099DA" x="218.3" y="194.93" width="4.93" height="17.07"></rect>
            <path d="M218,194.67 L223.46,194.67 L223.46,212.28 L218,212.28 L218,194.67 Z M222.57,195.56 L218.89,195.56 L218.89,211.39 L222.57,211.39 L222.57,195.56 Z" id="Shape" fill="#003A5D"></path>
            <rect id="Rectangle" fill="#003A5D" x="218.16" y="200.47" width="5.19" height="1"></rect>
            <rect id="Rectangle" fill="#0099DA" x="227.69" y="194.93" width="4.93" height="17.07"></rect>
            <path d="M227.43,194.67 L232.88,194.67 L232.88,212.28 L227.43,212.28 L227.43,194.67 Z M232,195.56 L228.32,195.56 L228.32,211.39 L232,211.39 L232,195.56 Z" id="Shape" fill="#003A5D"></path>
            <rect id="Rectangle" fill="#003A5D" x="227.56" y="200.47" width="5.19" height="1"></rect>
            <rect id="Rectangle" fill="#0099DA" x="237.09" y="194.93" width="4.93" height="17.07"></rect>
            <path d="M236.82,194.67 L242.28,194.67 L242.28,212.28 L236.82,212.28 L236.82,194.67 Z M241.39,195.56 L237.71,195.56 L237.71,211.39 L241.39,211.39 L241.39,195.56 Z" id="Shape" fill="#003A5D"></path>
            <rect id="Rectangle" fill="#003A5D" x="236.96" y="200.47" width="5.19" height="1"></rect>
            <rect id="Rectangle" fill="#0099DA" x="246.48" y="194.93" width="4.93" height="17.07"></rect>
            <path d="M246.22,194.67 L251.68,194.67 L251.68,212.28 L246.22,212.28 L246.22,194.67 Z M250.79,195.56 L247.11,195.56 L247.11,211.39 L250.79,211.39 L250.79,195.56 Z" id="Shape" fill="#003A5D"></path>
            <rect id="Rectangle" fill="#003A5D" x="246.35" y="200.47" width="5.19" height="1"></rect>
            <rect id="Rectangle" fill="#0099DA" x="255.88" y="194.93" width="4.93" height="17.07"></rect>
            <path d="M255.61,194.67 L261.07,194.67 L261.07,212.28 L255.61,212.28 L255.61,194.67 Z M260.18,195.56 L256.5,195.56 L256.5,211.39 L260.18,211.39 L260.18,195.56 Z" id="Shape" fill="#003A5D"></path>
            <rect id="Rectangle" fill="#003A5D" x="255.75" y="200.47" width="5.19" height="1"></rect>
            <path d="M264.53,223.46 L184.27,223.46 L184.27,246.83 L266.64,246.83 L266.64,223.46 L264.53,223.46 Z M235.16,230.07 L226.61,230.07 L226.61,224.99 L235.16,224.99 L235.16,230.07 Z M236.71,224.99 L245.26,224.99 L245.26,230.07 L236.71,230.07 L236.71,224.99 Z M225.05,230.07 L216.51,230.07 L216.51,224.99 L225.05,224.99 L225.05,230.07 Z M214.95,230.07 L206.4,230.07 L206.4,224.99 L215,224.99 L214.95,230.07 Z M204.85,230.07 L196.3,230.07 L196.3,224.99 L204.85,224.99 L204.85,230.07 Z M204.85,230.99 L204.85,244.45 L196.3,244.45 L196.3,230.99 L204.85,230.99 Z M206.4,230.99 L215,230.99 L215,244.45 L206.4,244.45 L206.4,230.99 Z M216.51,230.99 L225.05,230.99 L225.05,244.45 L216.51,244.45 L216.51,230.99 Z M226.61,230.99 L235.16,230.99 L235.16,244.45 L226.61,244.45 L226.61,230.99 Z M236.71,230.99 L245.26,230.99 L245.26,244.45 L236.71,244.45 L236.71,230.99 Z M246.82,230.99 L255.37,230.99 L255.37,244.45 L246.82,244.45 L246.82,230.99 Z M246.82,230.07 L246.82,224.99 L255.37,224.99 L255.37,230.07 L246.82,230.07 Z M194.74,224.99 L194.74,230.07 L186,230.07 L186,224.99 L194.74,224.99 Z M186.03,230.99 L194.74,230.99 L194.74,244.45 L186,244.45 L186.03,230.99 Z M264.53,244.45 L256.92,244.45 L256.92,230.99 L264.53,230.99 L264.53,244.45 Z M264.53,230.07 L256.92,230.07 L256.92,224.99 L264.53,224.99 L264.53,230.07 Z" id="Shape" fill="#003A5D"></path>
            <rect id="Rectangle" fill="#CCD8DF" x="125.15" y="192.26" width="31.96" height="36.28"></rect>
            <rect id="Rectangle" fill="#E5EBEF" x="125.15" y="192.26" width="11.75" height="34.47"></rect>
            <polygon id="Path" fill="#33617E" points="141.13 182.93 157.11 192.26 125.15 192.26"></polygon>
            <rect id="Rectangle" fill="#B2C4CE" x="149.85" y="192.26" width="7.26" height="36.28"></rect>
            <rect id="Rectangle" fill="#003A5D" x="125.15" y="198.35" width="31.96" height="1.78"></rect>
            <rect id="Rectangle" fill="#003A5D" x="125.15" y="205.87" width="31.96" height="1.78"></rect>
            <polygon id="Path" fill="#3B6782" points="141.13 182.93 136.9 192.26 125.15 192.26"></polygon>
            <path d="M156,229 L157.09,229 L157.09,226.74 L125.09,226.74 L125.09,229 L126.43,229 L124.17,246.48 L126.34,246.48 L127.58,236.89 L140.2,236.89 L140.2,246.48 L142.35,246.48 L142.35,236.89 L154.87,236.89 L156.11,246.48 L158.28,246.48 L156,229 Z M140.18,235.15 L127.87,235.15 L128.66,229 L140.2,229 L140.18,235.15 Z M154.62,235.15 L142.35,235.15 L142.35,229 L153.85,229 L154.62,235.15 Z" id="Shape" fill="#33617E"></path>
            <polygon id="Path" fill="#33617E" points="302.04 144.64 265.29 132.85 230.2 144.64"></polygon>
            <rect id="Rectangle" fill="#4A738C" x="230.39" y="144.64" width="71.45" height="1.73"></rect>
            <rect id="Rectangle" fill="#003A5D" x="274.33" y="231.2" width="16.56" height="15.63"></rect>
            <rect id="Rectangle" fill="#245574" x="276.5" y="232.77" width="12.19" height="6.97"></rect>
            <polygon id="Path" fill="#C3D0DA" style="mix-blend-mode: multiply;" points="302.08 231.35 301.85 246.83 288.216341 246.83 266.16 246.83 266.16 187.61"></polygon>
            <path d="M42.27,225.830157 L48.93,225.830157 C50.4272303,225.841197 51.8670319,225.254478 52.93,224.2 L54.44,222.69 C55.5009897,221.630567 56.0919016,220.189318 56.08,218.69 L56.08,218.69 C56.0680984,217.190682 56.6590103,215.749433 57.72,214.69 L60.72,211.69 C61.7705279,210.644037 62.3607581,209.222446 62.3601764,207.74 L62.3601764,198.62 C62.3719016,197.120682 61.7809897,195.679433 60.72,194.62 L51.72,185.62 C50.659301,184.560912 49.2188848,183.970342 47.72,183.979824 L33.53,183.979824 C32.0306816,183.968098 30.589433,184.55901 29.53,185.62 L21.49,193.83 C20.4394721,194.875963 19.8492419,196.297554 19.8499993,197.78 L19.8499993,210.94 C19.867211,212.401181 20.4559038,213.797532 21.49,214.83 L30.82,224.17 C31.8800675,225.230037 33.3208986,225.820778 34.82,225.81 L42.27,225.830157 Z" id="Path" fill="#CCD8DF"></path>
            <path d="M60.67,194.69 L51.67,185.69 C50.609301,184.630912 49.1688848,184.040342 47.67,184.049824 L33.53,184.049824 C32.0306816,184.038098 30.589433,184.62901 29.53,185.69 L21.49,193.83 C20.4394721,194.875963 19.8492419,196.297554 19.8499993,197.78 L19.8499993,206.45 C19.8514461,204.967993 20.4413395,203.547214 21.49,202.5 L29.57,194.41 C30.629433,193.34901 32.0706816,192.758098 33.57,192.77 L47.77,192.77 C49.2688848,192.760342 50.709301,193.350912 51.77,194.41 L60.77,203.41 C61.8290875,204.470699 62.4196582,205.911115 62.4101166,207.41 L62.4101166,198.74 C62.4092188,197.208657 61.780252,195.744682 60.67,194.69 Z" id="Path" fill="#E5EBEF"></path>
            <path d="M15.12,203.579769 L6.26,203.579769 C5.19391083,203.579155 4.17159277,204.003921 3.42,204.76 L1.18,207 C0.426377703,207.749148 0.00181576444,208.767377 -1.2384687e-06,209.83 L-1.2384687e-06,220.38 C-0.000834459932,221.441185 0.420045716,222.459212 1.17,223.21 L7.48,229.55 C8.21933624,230.293894 9.22126568,230.717649 10.27,230.73 L17.55,230.83 C18.6353812,230.849673 19.6821449,230.427358 20.45,229.66 L25.7,224.41 C26.452411,223.656763 26.8734934,222.634648 26.8700216,221.57 L26.8700216,215.33 C26.8734934,214.265352 26.452411,213.243237 25.7,212.49 L17.9999988,204.76 C17.2386651,203.993997 16.1999337,203.568406 15.12,203.579769 Z" id="Path" fill="#99B0BE"></path>
            <path d="M25.7,212.5 L17.9999987,204.76 C17.2484072,204.003921 16.2260892,203.579155 15.16,203.579999 L6.26,203.579999 C5.19391083,203.579155 4.17159277,204.003921 3.42,204.76 L1.18,207 C0.426377703,207.749148 0.00181576444,208.767377 -1.25759047e-06,209.83 L-1.25759047e-06,216.83 C-0.000844752222,215.763911 0.423921204,214.741593 1.18,213.99 L3.42,211.83 C4.17159277,211.073921 5.19391083,210.649155 6.26,210.65 L15.12,210.65 C16.1999337,210.638406 17.2386651,211.063997 17.9999987,211.83 L25.74,219.56 C26.389036,220.221156 26.7884362,221.087112 26.87,222.01 C26.8798397,221.880186 26.8798397,221.749814 26.87,221.62 L26.87,215.38 C26.8842366,214.301521 26.4623362,213.262997 25.7,212.5 L25.7,212.5 Z" id="Path" fill="#B2C4CE"></path>
            <rect id="Rectangle" fill="#33617E" x="41.27" y="202.38" width="1" height="44.05"></rect>
            <path d="M41.43,218.830067 C41.3100729,218.832095 41.1944887,218.785138 41.11,218.7 L33.53,211.13 C33.3623177,210.949617 33.3623177,210.670383 33.53,210.49 C33.6145335,210.404501 33.7297668,210.356386 33.85,210.356386 C33.9702332,210.356386 34.0854665,210.404501 34.17,210.49 L41.74,218.07 C41.8249114,218.15281 41.8727949,218.266394 41.8727949,218.385 C41.8727949,218.503606 41.8249114,218.61719 41.74,218.7 C41.6592699,218.784599 41.546925,218.831712 41.43,218.830067 L41.43,218.830067 Z" id="Path" fill="#33617E"></path>
            <path d="M41.92,208.72 C41.8018167,208.717924 41.6896991,208.667291 41.61,208.58 C41.5250886,208.49719 41.4772051,208.383606 41.4772051,208.265 C41.4772051,208.146394 41.5250886,208.03281 41.61,207.95 L44.89,204.66 C45.0667311,204.483269 45.3532689,204.483269 45.53,204.66 C45.7067311,204.836731 45.7067311,205.123269 45.53,205.3 L42.24,208.58 C42.1565339,208.667848 42.0411657,208.718322 41.92,208.72 L41.92,208.72 Z" id="Path" fill="#33617E"></path>
            <rect id="Rectangle" fill="#33617E" x="13.14" y="215.9" width="1" height="30.58"></rect>
            <path d="M13.72,224.210045 C13.603075,224.211712 13.4907301,224.164599 13.41,224.08 C13.3245008,223.995466 13.2763858,223.880233 13.2763858,223.76 C13.2763858,223.639767 13.3245008,223.524534 13.41,223.44 L17.15,219.7 C17.2328103,219.615089 17.3463935,219.567205 17.465,219.567205 C17.5836065,219.567205 17.6971897,219.615089 17.78,219.7 C17.8654992,219.784534 17.9136142,219.899767 17.9136142,220.02 C17.9136142,220.140233 17.8654992,220.255466 17.78,220.34 L14,224.08 C13.9254301,224.155727 13.8259707,224.201905 13.72,224.210045 Z" id="Path" fill="#33617E"></path>
            <path d="M13.41,222 C13.2984004,221.999493 13.191163,221.956598 13.11,221.88 L9.42,218.49 C9.24848571,218.31502 9.24848571,218.03498 9.42,217.86 C9.50453355,217.774501 9.61976675,217.726386 9.74,217.726386 C9.86023325,217.726386 9.97546645,217.774501 10.06,217.86 L13.75,221.25 C13.8349114,221.33281 13.8827949,221.446394 13.8827949,221.565 C13.8827949,221.683606 13.8349114,221.79719 13.75,221.88 C13.6612801,221.97036 13.5357836,222.014653 13.41,222 L13.41,222 Z" id="Path" fill="#33617E"></path>
            <polygon id="Path" fill="url(#linearGradient-4)" points="214.87 224.98 231.84 244.39 235.24 244.49 235.24 224.98"></polygon>
            <polygon id="Path" fill="url(#linearGradient-5)" points="186.06 224.98 186.06 226.71 201.53 244.39 204.93 244.49 204.93 224.98"></polygon>
            <polygon id="Path" fill="url(#linearGradient-4)" points="244.16 224.98 261.13 244.39 264.53 244.49 264.53 224.98"></polygon>
            <polygon id="Path" fill="#0D161C" points="357.27 246.27 357.27 246.66 355.89 246.66 355.74 246.59 355.74 246.43 356.23 246.31 356.62 246.07"></polygon>
            <polygon id="Path" fill="#0D161C" points="357.43 246.34 357.43 246.73 356.05 246.73 355.89 246.68 355.89 246.52 356.39 246.38 356.78 246.14"></polygon>
            <polygon id="Path" fill="#003A5D" points="356.07 241.23 356.58 244.42 356.58 244.42 356.58 245.35 356.53 246.08 356.83 246.08 356.88 244.42 356.14 241.29"></polygon>
            <polygon id="Path" fill="#003A5D" style="mix-blend-mode: multiply;" points="356.07 241.23 356.58 244.42 356.58 244.42 356.58 245.35 356.53 246.08 356.83 246.08 356.88 244.42 356.14 241.29"></polygon>
            <path d="M357.35,241.19 L357.42,241.49 C357.429774,241.526015 357.429774,241.563985 357.42,241.6 L357.27,241.98 C357.265111,242.006443 357.265111,242.033557 357.27,242.06 L357.49,244.25 L357.49,245.18 L357.49,245.18 L357.49,246.06 C357.490096,246.118486 357.46177,246.173373 357.414043,246.207179 C357.366317,246.240985 357.305141,246.249496 357.25,246.23 L356.93,246.13 C356.857392,246.10922 356.805476,246.045324 356.8,245.97 L356.8,245.88 L356.73,244.04 C356.73,244.04 356.73,244.04 356.73,243.98 L356.63,243.72 L356.15,241.29 C356.141452,241.237975 356.154905,241.184737 356.187142,241.143019 C356.219379,241.1013 356.267501,241.074852 356.32,241.07 L357.24,241.07 C357.293693,241.090188 357.334549,241.134758 357.35,241.19 Z" id="Path" fill="#003A5D"></path>
            <path d="M356.11,241.27 L356.31,242.27 C356.318423,242.329167 356.363476,242.376462 356.422164,242.387748 C356.480852,242.399034 356.540233,242.371822 356.57,242.32 L357.08,241.62 L357.42,241.47 L357.33,241.1 L356.11,241.27 Z" id="Path" fill="#003A5D" style="mix-blend-mode: multiply;"></path>
            <polygon id="Path" fill="#194D6D" points="356.76 246.17 357.44 246.39 357.44 246.09 356.74 245.84"></polygon>
            <path d="M356,236.3 C356,236.3 356,236.3 356.07,236.3 L356.4,236.3 C356.425722,236.289959 356.454278,236.289959 356.48,236.3 L356.71,236.55 C356.712872,236.569897 356.712872,236.590103 356.71,236.61 L356.78,237.17 C356.78,237.17 356.78,237.17 356.78,237.17 L356.91,237.39 C356.920041,237.415722 356.920041,237.444278 356.91,237.47 L356.66,237.85 C356.625836,237.880557 356.574164,237.880557 356.54,237.85 L356.41,237.72 C356.379734,237.699778 356.340266,237.699778 356.31,237.72 L356.2,237.79 L356.2,237.79 L356.2,237.79 C356.134968,237.849734 356.035032,237.849734 355.97,237.79 L355.83,237.55 C355.83,237.55 355.83,237.55 355.83,237.55 L355.71,237.55 L355.71,237.55 L355.71,237.55 L355.71,237.3 C355.71,237.3 355.71,237.3 355.71,237.3 L355.66,237.24 L355.66,237.24 L355.6,237.01 L356,236.3 Z" id="Path" fill="#EFCCAF"></path>
            <polygon id="Path" fill="#EFCCAF" opacity="0.6" style="mix-blend-mode: multiply;" points="356.26 237.1 356.2 236.96 356.2 236.96 356.25 236.89 356.25 236.89 356.25 236.89 356.25 236.89 356.25 236.89 356.25 236.89 356.25 237.04"></polygon>
            <path d="M356.76,237.16 L356.69,236.5 C356.69,236.5 356.69,236.5 356.69,236.5 L356.51,236.28 L356.51,236.28 L356.32,236.19 L356.32,236.19 L355.92,236.3 L355.92,236.3 L355.45,236.76 C355.45,236.76 355.45,236.76 355.45,236.76 L355.45,236.87 C355.45,236.87 355.45,236.87 355.45,236.87 L355.56,236.87 L355.74,236.69 C355.748354,236.67275 355.765834,236.661794 355.785,236.661794 C355.804166,236.661794 355.821646,236.67275 355.83,236.69 L355.83,236.83 C355.821068,236.84547 355.821068,236.86453 355.83,236.88 L355.98,236.88 L355.98,236.88 L356.06,237.03 L356.14,237.03 L356.14,236.92 C356.133845,236.903902 356.133845,236.886098 356.14,236.87 L356.2,236.81 L356.27,236.81 C356.28547,236.801068 356.30453,236.801068 356.32,236.81 L356.39,236.9 C356.414134,236.947114 356.444397,236.990827 356.48,237.03 L356.76,237.16 Z" id="Path" fill="#003A5D"></path>
            <path d="M355.39,236.9 L355.83,236.47 L355.83,236.47 L356.23,236.36 L356.23,236.36 L356.42,236.45 L356.42,236.45 L356.6,236.67 C356.6,236.67 356.6,236.67 356.6,236.67 L356.65,237.12 L356.65,237.12 L356.58,236.46 C356.58,236.46 356.58,236.46 356.58,236.46 L356.4,236.24 L356.4,236.24 L356.21,236.15 L356.21,236.15 L355.81,236.26 L355.81,236.26 L355.34,236.72 C355.34,236.72 355.34,236.72 355.34,236.72 L355.34,236.83 L355.39,236.9 Z" id="Path" fill="#33617E"></path>
            <path d="M356.15,237.83 L356.38,237.51 C356.39965,237.475966 356.39965,237.434034 356.38,237.4 L356.38,237.33 C356.38,237.33 356.38,237.33 356.38,237.33 L356.66,237.69 L356.54,237.89 L356.38,237.74 C356.357224,237.719628 356.322776,237.719628 356.3,237.74 L356.15,237.83 Z" id="Path" fill="#EFCCAF" opacity="0.6" style="mix-blend-mode: multiply;"></path>
            <path d="M355.63,237.43 L355.63,237.25 L355.72,237.46 L355.64,237.46 C355.64,237.46 355.62,237.45 355.63,237.43 Z" id="Path" fill="#EFCCAF" opacity="0.6" style="mix-blend-mode: multiply;"></path>
            <path d="M356.55,238.17 L357.07,237.65 C357.07,237.65 357.07,237.65 357.07,237.65 L356.95,237.42 C356.95,237.42 356.95,237.42 356.95,237.42 L356.4,237.81 C356.4,237.81 356.4,237.81 356.4,237.81 L356.55,238.17 L356.55,238.17 Z" id="Path" fill="#FFFFFF"></path>
            <polygon id="Path" fill="#06090B" points="355.27 239.24 354.41 238.79 354.35 238.91 355.21 239.35"></polygon>
            <polygon id="Path" fill="#EFCCAF" points="355.91 239.38 355.61 239.14 355 239.14 355 239.24 355.24 239.28 355.21 239.33 355.28 239.56 355.45 239.69 355.85 239.75"></polygon>
            <polygon id="Path" fill="#EFCCAF" opacity="0.6" style="mix-blend-mode: multiply;" points="355.89 239.5 355.48 239.48 355.21 239.33 355.28 239.56 355.45 239.69 355.87 239.75"></polygon>
            <polygon id="Path" fill="#EFCCAF" opacity="0.6" style="mix-blend-mode: multiply;" points="355 239.21 355.31 239.21 355.24 239.28 355 239.24"></polygon>
            <path d="M356.19,239.1 L355.99,241.2 C355.99,241.244183 356.025817,241.28 356.07,241.28 L356.3,241.23 L356.19,239.1 Z" id="Path" fill="#FFFFFF"></path>
            <path d="M357.37,237.71 L356.99,237.5 L356.44,237.94 L356.14,239.04 L356.14,241.41 C356.135358,241.430708 356.144293,241.45209 356.162289,241.463337 C356.180285,241.474585 356.203421,241.473247 356.22,241.46 L357.3,241.13 L357.75,238.6 L357.37,237.71 Z" id="Path" fill="#FFFFFF"></path>
            <path d="M356.54,238.04 L356.54,238.82 C356.536162,238.836446 356.536162,238.853554 356.54,238.87 L357.16,240.34 L357.16,240.34 L357.35,241.09 L357.44,241.48 C357.449858,241.519388 357.480612,241.550142 357.52,241.56 L357.76,241.63 L357.83,241.63 L358.31,241.46 C358.350238,241.454932 358.380318,241.420555 358.38,241.38 L358.68,240.12 C358.698012,240.082028 358.698012,240.037972 358.68,240 L358.55,239.92 C358.520657,239.899037 358.502297,239.865989 358.5,239.83 L358.5,239.43 C358.509446,239.407623 358.509446,239.382377 358.5,239.36 L358.28,239.16 C358.28,239.16 358.28,239.16 358.28,239.16 L358.05,238.74 L358.05,238.74 L358.05,238.59 L358.05,238.59 C358.05,238.52 357.65,237.92 357.57,237.79 L357.38,237.68 C357.34042,237.654495 357.28958,237.654495 357.25,237.68 L356.82,238.04 C356.82,237.96268 356.75732,237.9 356.68,237.9 C356.60268,237.9 356.54,237.96268 356.54,238.04 Z M356.95,239.24 L356.72,238.78 C356.715321,238.760274 356.715321,238.739726 356.72,238.72 L356.72,238.01 C356.710849,237.984118 356.710849,237.955882 356.72,237.93 L356.92,237.77 C356.958698,237.741655 357.011302,237.741655 357.05,237.77 L357.29,237.9 C357.293511,237.916482 357.293511,237.933518 357.29,237.95 L357.65,238.6 C357.654856,238.623081 357.654856,238.646919 357.65,238.67 L357.39,240.1 C357.370924,240.143754 357.327731,240.172042 357.28,240.172042 C357.232269,240.172042 357.189076,240.143754 357.17,240.1 L356.83,239.24 L356.95,239.24 Z" id="Shape" fill="#003A5D"></path>
            <polygon id="Path" fill="#BFE6F6" style="mix-blend-mode: multiply;" points="357.53 238.2 358.38 240.58 357.83 240.31 357.44 240.49 356.14 239.85 357.28 239.68"></polygon>
            <path d="M356.89,238.26 L357,239.26 C357.002921,239.280226 356.996856,239.300719 356.983399,239.316099 C356.969942,239.331479 356.950435,239.34021 356.93,239.34 L355.93,239.34 C355.93,239.34 355.86,239.34 355.86,239.39 L355.81,239.71 C355.803496,239.74558 355.825168,239.780256 355.86,239.79 L356.1,239.84 L356.1,239.84 L356.68,240.01 L356.68,240.01 L357.51,239.96 C357.54203,239.961328 357.570868,239.940729 357.58,239.91 L357.66,239.46 L357.66,239.46 L357.5,238.25 C357.508932,238.23453 357.508932,238.21547 357.5,238.2 L357.26,238.06 L357.08,238.06 L356.91,238.21 C356.91,238.21 356.88,238.24 356.89,238.26 Z" id="Path" fill="#FFFFFF"></path>
            <polygon id="Path" fill="#BFE6F6" points="357.04 237.72 356.71 238.62 356.75 237.96"></polygon>
            <path d="M357.48,241.55 L358.21,241.34 L358.21,241.34 L358.56,240.43 C358.56,240.43 358.56,240.43 358.56,240.43 L358.32,241.43 L358.32,241.43 L357.76,241.63 L357.76,241.63 L357.47,241.54 C357.47,241.54 357.47,241.55 357.48,241.55 Z" id="Path" fill="#003A5D" style="mix-blend-mode: multiply;"></path>
            <rect id="Rectangle" fill="url(#linearGradient-6)" x="278.21" y="153.09" width="4.93" height="8.54"></rect>
        </g>
    </g>
</svg>