<?xml version="1.0" encoding="UTF-8"?>
<svg width="440px" height="330px" viewBox="0 0 440 330" version="1.1" xmlns="http://www.w3.org/2000/svg" xmlns:xlink="http://www.w3.org/1999/xlink">
    <title>Graphic elements / Icons / Rich icons / Marketplace / Challenges-React-to-Confrontations-Before-They-Escalate</title>
    <defs>
        <linearGradient x1="1.39322105e-13%" y1="49.9827926%" x2="100%" y2="49.9827926%" id="linearGradient-1">
            <stop stop-color="#FFFFFF" offset="0%"></stop>
            <stop stop-color="#3FB0E2" offset="100%"></stop>
        </linearGradient>
        <linearGradient x1="0.161714488%" y1="50.2657515%" x2="100.189716%" y2="50.2657515%" id="linearGradient-2">
            <stop stop-color="#FFFFFF" offset="0%"></stop>
            <stop stop-color="#3FB0E2" offset="100%"></stop>
        </linearGradient>
        <linearGradient x1="146.959775%" y1="50.8046886%" x2="-27.9700655%" y2="48.8804332%" id="linearGradient-3">
            <stop stop-color="#FFFFFF" offset="0%"></stop>
            <stop stop-color="#FAFDFE" offset="12%"></stop>
            <stop stop-color="#EAF6FC" offset="26%"></stop>
            <stop stop-color="#D0ECF8" offset="43%"></stop>
            <stop stop-color="#ACDDF2" offset="60%"></stop>
            <stop stop-color="#7ECAEB" offset="79%"></stop>
            <stop stop-color="#46B3E3" offset="98%"></stop>
            <stop stop-color="#3FB0E2" offset="100%"></stop>
        </linearGradient>
        <linearGradient x1="29.4086626%" y1="88.1355932%" x2="72.2997732%" y2="-39.2630803%" id="linearGradient-4">
            <stop stop-color="#FFFFFF" offset="0%"></stop>
            <stop stop-color="#3FB0E2" offset="100%"></stop>
        </linearGradient>
        <linearGradient x1="58.4860579%" y1="69.3765226%" x2="43.4382391%" y2="8.63484616%" id="linearGradient-5">
            <stop stop-color="#FFFFFF" offset="0%"></stop>
            <stop stop-color="#3FB0E2" offset="100%"></stop>
        </linearGradient>
        <linearGradient x1="0%" y1="50.0042324%" x2="100.061218%" y2="50.0042324%" id="linearGradient-6">
            <stop stop-color="#FFFFFF" offset="0%"></stop>
            <stop stop-color="#9DADB7" offset="100%"></stop>
        </linearGradient>
        <linearGradient x1="20.6434316%" y1="46.7225846%" x2="105.727516%" y2="57.3563725%" id="linearGradient-7">
            <stop stop-color="#FFFFFF" offset="0%"></stop>
            <stop stop-color="#3FB0E2" offset="100%"></stop>
        </linearGradient>
        <linearGradient x1="0.0411061973%" y1="49.8899505%" x2="100%" y2="49.8899505%" id="linearGradient-8">
            <stop stop-color="#FFFFFF" offset="0%"></stop>
            <stop stop-color="#688897" offset="100%"></stop>
        </linearGradient>
        <linearGradient x1="0.00718438343%" y1="49.9874276%" x2="100.003517%" y2="49.9874276%" id="linearGradient-9">
            <stop stop-color="#FFFFFF" offset="0%"></stop>
            <stop stop-color="#688897" offset="100%"></stop>
        </linearGradient>
        <linearGradient x1="-3.15653854%" y1="120.215165%" x2="137.985828%" y2="-29.5589009%" id="linearGradient-10">
            <stop stop-color="#FFFFFF" offset="0%"></stop>
            <stop stop-color="#3FB0E2" offset="100%"></stop>
        </linearGradient>
        <linearGradient x1="0%" y1="49.9930546%" x2="100%" y2="49.9930546%" id="linearGradient-11">
            <stop stop-color="#FFFFFF" offset="0%"></stop>
            <stop stop-color="#688897" offset="100%"></stop>
        </linearGradient>
        <linearGradient x1="-23.2476151%" y1="57.5223045%" x2="127.270842%" y2="42.0131351%" id="linearGradient-12">
            <stop stop-color="#FFFFFF" offset="0%"></stop>
            <stop stop-color="#3FB0E2" offset="100%"></stop>
        </linearGradient>
        <linearGradient x1="56.9893233%" y1="74.2723249%" x2="31.0083216%" y2="7.40556727%" id="linearGradient-13">
            <stop stop-color="#FFFFFF" offset="0%"></stop>
            <stop stop-color="#3FB0E2" offset="100%"></stop>
        </linearGradient>
        <linearGradient x1="85.438228%" y1="101.102397%" x2="-19.0855075%" y2="-2.15808509%" id="linearGradient-14">
            <stop stop-color="#FFFFFF" offset="0%"></stop>
            <stop stop-color="#3FB0E2" offset="100%"></stop>
        </linearGradient>
        <linearGradient x1="-26.6168175%" y1="55.3966407%" x2="153.645757%" y2="28.4687654%" id="linearGradient-15">
            <stop stop-color="#FFFFFF" offset="0%"></stop>
            <stop stop-color="#3FB0E2" offset="100%"></stop>
        </linearGradient>
        <linearGradient x1="53.3547495%" y1="47.6890113%" x2="44.2966052%" y2="58.4634221%" id="linearGradient-16">
            <stop stop-color="#FFFFFF" offset="0%"></stop>
            <stop stop-color="#3FB0E2" offset="100%"></stop>
        </linearGradient>
        <linearGradient x1="57.1543732%" y1="2.53256513%" x2="43.1277711%" y2="96.5559275%" id="linearGradient-17">
            <stop stop-color="#FFFFFF" offset="0%"></stop>
            <stop stop-color="#3FB0E2" offset="100%"></stop>
        </linearGradient>
    </defs>
    <g id="Graphic-elements-/-Icons-/-Rich-icons-/-Marketplace-/-Challenges-React-to-Confrontations-Before-They-Escalate" stroke="none" stroke-width="1" fill="none" fill-rule="evenodd">
        <g id="react-to-confrontations-before-they-escalatw" transform="translate(36.000000, 0.000000)">
            <g id="Midlayer">
                <rect id="Rectangle" fill="#F3F5F6" fill-rule="nonzero" x="45.3252566" y="135.657975" width="53.7537922" height="1.81288344"></rect>
                <rect id="Rectangle" fill="#023852" fill-rule="nonzero" x="45.3252566" y="133.845092" width="53.7537922" height="1.81288344"></rect>
                <rect id="Rectangle" fill="#FFE700" fill-rule="nonzero" x="48.959199" y="132.032209" width="53.7537922" height="1.81288344"></rect>
                <rect id="Rectangle" fill="#FFE700" fill-rule="nonzero" x="16.7925907" y="97.3895706" width="11.2242303" height="40.3159509"></rect>
                <rect id="Rectangle" fill="#FFFFFF" fill-rule="nonzero" x="20.3988986" y="102.345092" width="4.00700876" height="21.3174847"></rect>
                <ellipse id="Oval" fill="#023852" fill-rule="nonzero" cx="22.402403" cy="131.231595" rx="2.26603254" ry="2.26380368"></ellipse>
                <rect id="Rectangle" fill="#FFE700" fill-rule="nonzero" x="30.8171214" y="97.3895706" width="11.2242303" height="40.3159509"></rect>
                <rect id="Rectangle" fill="#FFFFFF" fill-rule="nonzero" x="34.4234293" y="102.345092" width="4.00700876" height="21.3174847"></rect>
                <ellipse id="Oval" fill="#023852" fill-rule="nonzero" cx="36.4269337" cy="131.231595" rx="2.26603254" ry="2.26380368"></ellipse>
                <rect id="Rectangle" fill="#FFE700" fill-rule="nonzero" x="240.7199" y="70.3895706" width="11.2242303" height="40.3159509"></rect>
                <rect id="Rectangle" fill="#FFFFFF" fill-rule="nonzero" x="244.326208" y="74.8711656" width="4.00700876" height="21.3174847"></rect>
                <ellipse id="Oval" fill="#023852" fill-rule="nonzero" cx="246.329712" cy="104.236196" rx="2.26603254" ry="2.26380368"></ellipse>
                <rect id="Rectangle" fill="#9DADB7" fill-rule="nonzero" x="253.381126" y="70.3895706" width="11.2242303" height="40.3159509"></rect>
                <rect id="Rectangle" fill="#FFFFFF" fill-rule="nonzero" x="256.987434" y="74.8711656" width="4.00700876" height="21.3174847"></rect>
                <ellipse id="Oval" fill="#023852" fill-rule="nonzero" cx="258.990939" cy="104.236196" rx="2.26603254" ry="2.26380368"></ellipse>
                <rect id="Rectangle" fill="#023852" fill-rule="nonzero" x="266.088411" y="70.3895706" width="11.2242303" height="40.3159509"></rect>
                <rect id="Rectangle" fill="#FFFFFF" fill-rule="nonzero" x="269.699324" y="74.8711656" width="4.00700876" height="21.3174847"></rect>
                <ellipse id="Oval" fill="#3F687C" fill-rule="nonzero" cx="271.702829" cy="104.236196" rx="2.26603254" ry="2.26380368"></ellipse>
                <rect id="Rectangle" fill="#9DADB7" fill-rule="nonzero" x="278.749637" y="70.3895706" width="11.2242303" height="40.3159509"></rect>
                <rect id="Rectangle" fill="#FFFFFF" fill-rule="nonzero" x="282.360551" y="74.8711656" width="4.00700876" height="21.3174847"></rect>
                <ellipse id="Oval" fill="#023852" fill-rule="nonzero" cx="284.364055" cy="104.236196" rx="2.26603254" ry="2.26380368"></ellipse>
                <rect id="Rectangle" fill="#D8DEE2" fill-rule="nonzero" style="mix-blend-mode: multiply;" x="0.704680851" y="143.470859" width="310.114844" height="6.09662577"></rect>
                <rect id="Rectangle" fill="#D8DEE2" fill-rule="nonzero" style="mix-blend-mode: multiply;" x="226.506533" y="116.263804" width="141.180275" height="8.23159509"></rect>
                <rect id="Rectangle" fill="#FFFFFF" fill-rule="nonzero" x="298.103029" y="107.51227" width="39.0061577" height="3.33128834"></rect>
                <rect id="Rectangle" fill="#28566C" fill-rule="nonzero" x="298.103029" y="104.769939" width="39.0061577" height="3.33128834"></rect>
                <rect id="Rectangle" stroke="#023852" x="0.23028786" y="137.852761" width="310.501727" height="5.4202454"></rect>
                <rect id="Rectangle" stroke="#023852" x="192.732516" y="110.73773" width="174.954293" height="5.52607362"></rect>
                <path d="M167.33637,27.9662577 L125.562153,27.9662577 C124.699097,27.9687936 124.000801,28.6684648 124.000801,29.5306748 L124.000801,57.4877301 C124.000801,58.3499401 124.699097,59.0496113 125.562153,59.0521472 L134.948686,59.0521472 L134.948686,65.3374233 C134.927592,65.5372664 135.038754,65.7276691 135.223255,65.8077165 C135.407756,65.8877639 135.622914,65.8389379 135.754693,65.6871166 L142.930463,59.0613497 L167.317947,59.0613497 C168.181752,59.0588227 168.881375,58.3598874 168.883905,57.4969325 L168.883905,29.5306748 C168.881485,28.6748274 168.192972,27.9788034 167.33637,27.9662577 Z" id="Path" stroke="#023852"></path>
                <path d="M202.464481,0 L140.286758,0 C139.566894,0 138.983329,0.582991177 138.983329,1.30214724 L138.983329,43.5506135 C138.983329,44.2697696 139.566894,44.8527607 140.286758,44.8527607 L176.400501,44.8527607 L186.758849,54.4187117 C186.960275,54.6053361 187.253243,54.6550021 187.50502,54.5452078 C187.756796,54.4354134 187.919533,54.1870244 187.919499,53.9125767 L187.919499,44.8527607 L202.446058,44.8527607 C203.165922,44.8527607 203.749487,44.2697696 203.749487,43.5506135 L203.749487,1.30214724 C203.749487,0.590117855 203.17714,0.0100640161 202.464481,0 Z" id="Path" fill="#023852" fill-rule="nonzero"></path>
                <path d="M161.141627,27.6349693 L155.674593,28.1134969 L153.454618,12.5015337 L160.625782,11.8757669 L161.141627,27.6349693 Z M155.393642,33.9846626 C155.265636,33.1148335 155.517184,32.2319286 156.084506,31.559816 C156.75941,30.8908124 157.667048,30.5083308 158.617672,30.4923313 C159.544192,30.3462407 160.491186,30.567484 161.256771,31.1088957 C161.915921,31.6825759 162.306383,32.5044065 162.334518,33.3773006 C162.458289,34.2448717 162.201457,35.1236163 161.629837,35.7883436 C160.978318,36.4434983 160.099074,36.8225363 159.174969,36.8466258 C158.246576,36.9826144 157.300981,36.7641094 156.526658,36.2346626 C155.83687,35.687032 155.422622,34.8643972 155.393642,33.9846626 L155.393642,33.9846626 Z" id="Shape" fill="#FFFFFF" fill-rule="nonzero"></path>
                <path d="M187.49577,28.803681 L182.530763,28.1779141 L183.562453,13.8588957 L190.065782,14.6825153 L187.49577,28.803681 Z M181.158248,33.345092 C181.209132,32.5469428 181.603978,31.8100608 182.240601,31.3251534 C182.970101,30.8600196 183.851536,30.6951192 184.700075,30.8650307 C185.551303,30.9109128 186.350328,31.289374 186.924656,31.9187117 C187.40599,32.5522297 187.598235,33.3588634 187.454318,34.1411043 C187.39859,34.9374941 187.000506,35.6707924 186.362753,36.1518405 C185.655105,36.6072784 184.798742,36.7721186 183.972365,36.6119632 C183.122075,36.5521513 182.325082,36.1762095 181.738573,35.5582822 C181.229925,34.9411091 181.017801,34.1321309 181.158248,33.345092 L181.158248,33.345092 Z" id="Shape" fill="#FFFFFF" fill-rule="nonzero"></path>
                <path d="M175.018773,26.7147239 L168.79179,26.6871166 L167.971965,8.80214724 L176.133367,8.86656442 L175.018773,26.7147239 Z M167.84761,33.2576687 C167.798163,32.2623919 168.178926,31.2938258 168.893116,30.5981595 C169.574768,29.9677914 170.569612,29.6779141 171.86383,29.6779141 C173.158048,29.6779141 174.120651,30.0138037 174.774668,30.6533742 C175.460331,31.3702726 175.812962,32.3419746 175.746483,33.3312883 C175.796201,34.324363 175.41126,35.2899654 174.691765,35.9769939 C173.883365,36.643197 172.849181,36.9727558 171.803955,36.8972393 C170.742417,36.9507406 169.699715,36.6024199 168.883905,35.9217791 C168.162975,35.2292932 167.7839,34.2547666 167.84761,33.2576687 L167.84761,33.2576687 Z" id="Shape" fill="#FFFFFF" fill-rule="nonzero"></path>
            </g>
            <g id="Ilus" transform="translate(43.000000, 59.000000)" fill-rule="nonzero">
                <path d="M149.075887,43.4936565 L142.621986,39.4470918 C142.10195,39.1184063 141.487145,38.972445 140.874823,39.0322959 L132.950355,39.7512755 C132.389409,39.8020175 131.892887,39.3900627 131.839362,38.8295068 L131.654965,36.9859694 C131.623585,36.6418951 131.479344,36.3178349 131.244681,36.0642007 L130.534752,35.2991327 C130.359442,35.0942607 130.330026,34.8020115 130.460993,34.5663265 L131.843972,32.4278231 C131.891164,32.3522315 131.895191,32.2574181 131.854577,32.1780991 C131.813964,32.0987802 131.734676,32.046606 131.645745,32.0406803 L129.34078,31.9162415 C129.140853,31.9037259 128.976244,31.7544648 128.944326,31.5567517 L128.879787,31.1235204 C128.843927,30.9212309 128.678475,30.7670959 128.474113,30.7455952 L126.528723,30.5888946 C126.220909,30.5656725 125.958131,30.3576894 125.864894,30.0634864 L125.864894,30.0634864 C125.695672,29.5824637 125.690808,29.0589121 125.851064,28.5748299 L127.552128,24.0904252 C127.689155,23.7241081 127.724207,23.3274858 127.653546,22.9428231 L126.634752,15.2091837 L127.856383,12.5544898 L133.729433,8.47566327 C133.729433,8.47566327 133.480496,14.3519388 133.651064,14.3519388 C133.821631,14.3519388 136.181915,17.2877721 136.181915,17.2877721 L138.46383,18.1864966 L143.119858,13.4532143 L147.199645,15.4903231 L152.344326,22.9197789 L159.042553,25.8095238 L151.800355,32.0959864 L149.075887,43.4936565 Z" id="Path" fill="#0099DA"></path>
                <path d="M151.071986,35.1286054 L142.949291,33.492466 C142.405967,33.3827237 141.841241,33.4867276 141.372695,33.7828231 L132.263475,39.5715306 C132.45831,39.7079627 132.694912,39.7715856 132.931915,39.7512755 L140.856383,39.0322959 C141.468706,38.972445 142.08351,39.1184063 142.603546,39.4470918 L149.057447,43.4936565 L151.071986,35.1286054 Z" id="Path" fill="url(#linearGradient-1)" style="mix-blend-mode: multiply;"></path>
                <path d="M144.751773,23.0442177 L145.62305,22.3344558 C146.133129,21.918418 146.447102,21.3089854 146.489716,20.6522279 L146.729433,17.0619388 L154.211348,18.7026871 L153.814894,23.0626531 L145.300355,24.2886054 C144.98622,24.3350871 144.67975,24.1659599 144.551678,23.8754436 C144.423605,23.5849274 144.505514,23.2446661 144.751773,23.0442177 L144.751773,23.0442177 Z" id="Path" fill="url(#linearGradient-2)" style="mix-blend-mode: multiply;"></path>
                <path d="M126.597872,16.4627891 L125.081206,14.1583673 C124.833414,13.7878125 124.863597,13.2974517 125.154965,12.960068 L130.318085,6.92248299 C130.520651,6.68228034 130.77419,6.49020311 131.060284,6.36020408 L140.708865,1.90345238 C141.10147,1.72221785 141.545297,1.68469722 141.962766,1.79744898 L151.643617,4.33231293 C152.294164,4.50409864 152.858676,4.90933542 153.229433,5.47069728 L157.078723,11.2732313 C157.360886,11.6964865 157.501323,12.198389 157.479787,12.7065816 L157.175532,20.3157823 C157.161401,20.7616273 157.244784,21.2051826 157.419858,21.6154762 L159.042553,25.3486395 L152.08617,26.1413605 C151.687425,26.1877285 151.301708,25.9820613 151.118085,25.6251701 L146.079433,15.8544218 C146.002059,15.7051875 145.874831,15.5877736 145.719858,15.522585 L143.585461,14.6008163 C143.275955,14.4698323 142.916983,14.5690991 142.718794,14.8404762 L140.985461,17.2370748 C140.768103,17.5398047 140.640305,17.8975566 140.616667,18.2694558 L140.358511,22.6155952 C140.338685,22.9513011 140.053844,23.2094423 139.71773,23.1963095 L137.670922,23.1179592 C137.388132,23.103575 137.150084,22.9014711 137.090071,22.6248129 L136.098936,17.8177891 C136.039146,17.5296393 135.888955,17.268078 135.670213,17.0711565 L133.296099,14.9556973 C133.091897,14.7718796 132.980345,14.5065821 132.991844,14.2321088 L133.176241,9.6647449 C133.175979,9.61342377 133.144229,9.56752788 133.09629,9.54917278 C133.048352,9.53081768 132.994059,9.5437689 132.959574,9.58178571 L126.920567,16.467398 C126.881488,16.5172033 126.821388,16.5459074 126.758078,16.5450032 C126.694768,16.544099 126.635513,16.5136902 126.597872,16.4627891 L126.597872,16.4627891 Z" id="Path" fill="#023852"></path>
                <path d="M137.555674,5.06972789 C137.949062,4.88585134 138.39474,4.84668008 138.814184,4.95911565 L148.495035,7.49858844 C149.145051,7.66881722 149.709586,8.07243032 150.080851,8.63236395 L153.930142,14.434898 C154.210928,14.8605023 154.351193,15.3634029 154.331206,15.8728571 L154.02695,23.477449 C154.008302,23.9236312 154.09187,24.3681749 154.271277,24.7771429 L154.73227,25.8510034 L159.042553,25.3486395 L157.424468,21.620085 C157.24982,21.2096623 157.166455,20.7662017 157.180142,20.3203912 L157.484397,12.7111905 C157.505933,12.2029978 157.365496,11.7010953 157.083333,11.2778401 L153.234043,5.47530612 C152.863286,4.91394426 152.298774,4.50870749 151.648227,4.33692177 L141.967376,1.80205782 C141.549906,1.68930606 141.10608,1.7268267 140.713475,1.90806122 L131.060284,6.36020408 C130.77419,6.49020311 130.520651,6.68228034 130.318085,6.92248299 L128.234397,9.36056122 L137.555674,5.06972789 Z" id="Path" fill="#1B4C63"></path>
                <path d="M160.319504,26.0491837 L158.475532,23.9014626 L151.519149,29.1278912 C150.980487,29.5294473 150.618588,30.1242107 150.509574,30.7870748 L148.301418,43.8439286 C148.21945,44.3133102 148.52592,44.7626927 148.992908,44.8578741 L153.298582,45.7519898 L155.935461,32.7227891 L160.319504,26.0491837 Z" id="Path" fill="#FFFFFF"></path>
                <path d="M125.984752,30.3169728 L125.984752,30.3169728 C126.109412,30.45593 126.282687,30.5417218 126.468794,30.5566327 L128.414184,30.7133333 C128.453964,30.7154625 128.49302,30.7248338 128.529433,30.7409864 L128.529433,30.7409864 L130.912766,28.897449 L125.984752,30.3169728 Z" id="Path" fill="url(#linearGradient-3)" style="mix-blend-mode: multiply;"></path>
                <polygon id="Path" fill="#FFFFFF" points="149.075887 43.4936565 153.040426 58.2281293 154.229787 42.5165816"></polygon>
                <rect id="Rectangle" fill="#D8DEE2" style="mix-blend-mode: multiply;" x="0.433333333" y="265.317296" width="259.488298" height="4.80702381" rx="2.4035119"></rect>
                <path d="M76.2297872,6.76578231 L70.070922,6.45238095 L68.2776596,9.8444898 L67.1067376,14.7482993 L62.008156,15.642415 L58.8411348,17.5781293 L58.3202128,27.1184354 L54.2173759,32.2434694 L61.5932624,42.6318027 L69.5223404,56.9192177 L67.7336879,48.2592007 C67.7059875,48.143077 67.6966545,48.0233316 67.7060284,47.9043197 L68.0333333,41.5809864 C68.0481976,41.3731006 68.1062917,41.1706039 68.2039007,40.9864456 L70.9698582,35.9167177 C71.1199419,35.647143 71.3846266,35.4605503 71.6890071,35.4097449 L78.4932624,34.3266667 C78.7503379,34.2861 78.9654304,34.1098362 79.0556738,33.8657823 L80.2035461,30.6395918 C80.270547,30.453878 80.2519844,30.2480496 80.1528369,30.0773129 L78.5992908,27.4456633 C78.5381258,27.3282998 78.5303745,27.1903127 78.5780108,27.0668403 C78.6256471,26.9433679 78.7240739,26.8463256 78.848227,26.8004252 L81.1531915,26.0814456 C81.2746024,26.0424388 81.3554765,25.9277374 81.3514184,25.8003061 L81.3099291,24.7264456 C81.2952487,24.3647033 81.4886201,24.0263832 81.8078014,23.8553741 L82.9510638,23.242398 C83.0726098,23.1749798 83.1572399,23.0563307 83.181396,22.9194788 C83.205552,22.7826269 83.1666547,22.642184 83.0755319,22.5372449 L79.2907801,18.2233673 L79.820922,15.140051 L76.2297872,6.76578231 Z" id="Path" fill="#0099DA"></path>
                <path d="M28.2634752,185.132636 L41.0283688,187.662891 C41.0921742,187.676666 41.1568749,187.685906 41.2219858,187.690544 L43.5592199,187.911769 L39.6453901,201.374201 C39.6453901,201.434116 39.6085106,201.494031 39.585461,201.553946 L27.6595745,231.336293 C27.5954772,231.495728 27.5535962,231.663213 27.5351064,231.834048 L24.2021277,260.648582 L18.7531915,260.648582 C18.5298086,260.65009 18.3080026,260.611048 18.0985816,260.533316 L13.8989362,259.017007 L16.572695,246.766701 C16.6412426,246.446048 16.6285656,246.113353 16.5358156,245.798844 L16.1946809,244.646633 C15.9456888,243.808902 15.9829965,242.912108 16.3007092,242.097942 L18.6609929,236.000442 C18.7298374,235.826523 18.7718072,235.643143 18.785461,235.456599 L21.3393617,204.388384 C21.3960452,203.671539 21.5511656,202.965907 21.8003546,202.291361 L28.2634752,185.132636 Z" id="Path" fill="#0099DA"></path>
                <path d="M13.9496454,258.76352 L13.1198582,263.141922 C13.0004986,263.78076 13.1537355,264.440395 13.5424979,264.961249 C13.9312603,265.482103 14.5201367,265.816732 15.1666667,265.884184 L21.8971631,266.57551 C22.5666247,266.650249 23.2352865,266.428459 23.7272993,265.968469 C24.2193122,265.508479 24.4854323,264.856327 24.4556738,264.18352 L24.308156,259.947993 L20.3343972,260.823673 C19.2259045,261.070767 18.065815,260.920692 17.0567376,260.39966 L13.9496454,258.76352 Z" id="Path" fill="#023852"></path>
                <path d="M39.5808511,201.553946 C39.5808511,201.494031 39.6223404,201.434116 39.6407801,201.374201 L43.5546099,187.911769 L41.2173759,187.690544 C41.152265,187.685906 41.0875642,187.676666 41.0237589,187.662891 L28.2634752,185.132636 L33.6524823,216.403639 L39.5808511,201.553946 Z" id="Path" fill="url(#linearGradient-4)" style="mix-blend-mode: multiply;"></path>
                <path d="M52.7053191,242.581871 L50.1514184,247.190714 C49.9208533,247.612726 49.8520197,248.104278 49.9578014,248.573367 L51.2531915,254.10398 C51.3303457,254.285862 51.3785646,254.478692 51.3960993,254.675476 L52.2351064,264.814932 C52.2495965,264.976376 52.3864796,265.099139 52.5485816,265.096128 L53.6549645,265.06381 C53.8152348,265.059986 53.9476115,264.937517 53.9638298,264.778061 L54.6968085,256.712585 C54.7032015,256.632138 54.7577477,256.563601 54.8347204,256.5393 C54.9116931,256.514998 54.9957174,256.539786 55.0471631,256.601973 L61.9943262,264.731973 C62.1762563,264.945168 62.4423878,265.068099 62.722695,265.068418 L72.7677305,265.068418 C73.1268809,265.067305 73.4555997,264.866567 73.6205674,264.547619 L74.6485816,262.575034 C74.8682786,262.030573 74.6415231,261.408136 74.1230496,261.132466 L68.8078014,258.330289 L62.3539007,258.625255 C62.020833,258.635756 61.7103731,258.457372 61.551773,258.164371 L52.7053191,242.581871 Z" id="Path" fill="#023852"></path>
                <path d="M45.4815603,186.008316 L44.9560284,201.406463 C44.8741313,203.826458 45.1855054,206.243708 45.8780142,208.563997 L52.262766,230.119558 C52.6407855,231.396881 52.8256894,232.723526 52.8113475,234.05551 L52.714539,242.58648 L61.8329787,259.330408 L68.8170213,258.339507 L61.9574468,237.092738 C61.7453316,236.43448 61.6213227,235.751041 61.5886525,235.060238 L59.6893617,192.940017 C59.6753762,192.605594 59.7222353,192.271411 59.8276596,191.953724 L61.4042553,187.220442 L45.4815603,186.008316 Z" id="Path" fill="#0099DA"></path>
                <path d="M52.0921986,229.520408 L61.9666667,237.097347 L61.9666667,237.097347 C61.7545515,236.439088 61.6305426,235.75565 61.5978723,235.064847 L59.6985816,192.944626 C59.6845961,192.610203 59.7314552,192.27602 59.8368794,191.958333 L61.4134752,187.225051 L45.5,186.017534 L44.9560284,201.406463 C44.8741313,203.826458 45.1855054,206.243708 45.8780142,208.563997 L52.0921986,229.520408 Z" id="Path" fill="url(#linearGradient-5)" style="mix-blend-mode: multiply;"></path>
                <path d="M42.7432624,96.0667347 L70.3751773,100.34835 L72.6801418,121.802517 C72.8724105,123.641044 72.8724105,125.494603 72.6801418,127.333129 L66.7609929,186.741122 C66.7270501,187.089655 66.4424195,187.360481 66.0925532,187.377143 L42.4113475,188.566224 C41.8760941,188.593276 41.3398358,188.538886 40.820922,188.404915 L28.2819149,185.132636 L30.6283688,156.848163 C30.679064,156.170073 30.679064,155.489145 30.6283688,154.811054 L28.6829787,125.231497 C28.5589665,123.337949 28.8532789,121.440317 29.5450355,119.673231 L38.5712766,96.6290136 L42.7432624,96.0667347 Z" id="Path" fill="#AFBDC5"></path>
                <path d="M42.7432624,96.0667347 L38.5712766,96.6428401 L30.1719858,118.073963 L38.9953901,133.338452 C39.5290822,134.260738 39.7896736,135.315645 39.7468085,136.380289 L39.1843972,150.469524 C39.139496,151.616319 39.8244355,152.666242 40.8922671,153.087464 C41.9600987,153.508686 43.177582,153.209203 43.9280142,152.340714 L54.2680851,140.385374 L50.9535461,119.935935 C50.8432524,119.247665 50.9445254,118.542136 51.2439716,117.912653 L60.2932624,98.7905612 L42.7432624,96.0667347 Z" id="Path" fill="url(#linearGradient-6)" style="mix-blend-mode: multiply;"></path>
                <path d="M138.297872,103.159745 L135.19539,101.260901 C134.860691,101.054537 134.477473,100.940076 134.084397,100.929065 L125.274823,100.694014 C124.689559,100.676228 124.18933,101.112068 124.12695,101.694133 L124.12695,101.694133 C124.071212,102.207689 124.371166,102.693576 124.855319,102.873997 L127.524468,103.85568 C127.622457,103.893446 127.690602,103.983433 127.700374,104.087971 C127.710147,104.192509 127.65986,104.293562 127.570567,104.348827 L112.929433,113.446684 C112.57174,113.669934 112.284167,113.989384 112.099645,114.368452 L112.099645,114.368452 C111.794596,114.975913 111.823861,115.697597 112.177096,116.278377 C112.53033,116.859156 113.157764,117.2172 113.837589,117.225935 L119.968794,117.313503 C120.320259,117.317738 120.668264,117.243745 120.987589,117.096888 L124.007092,115.714235 C124.116634,115.665957 124.229017,115.624401 124.343617,115.589796 L139.482624,111.266701 L138.297872,103.159745 Z" id="Path" fill="#0099DA"></path>
                <path d="M138.297872,103.390187 C133.26844,107.252398 121.868085,116.023027 120.535816,117.216718 C120.679284,117.182482 120.819614,117.13623 120.955319,117.078452 L123.974823,115.695799 C124.084364,115.647522 124.196748,115.605965 124.311348,115.571361 L139.450355,111.248265 L138.297872,103.390187 Z" id="Path" fill="url(#linearGradient-7)" style="mix-blend-mode: multiply;"></path>
                <path d="M158.982624,116.742007 L144.857801,123.056122 C144.493517,123.220389 144.255316,123.578503 144.244681,123.977891 L144.244681,123.977891 C144.234438,124.297519 144.372274,124.603993 144.618224,124.808453 C144.864174,125.012912 145.190724,125.092485 145.503191,125.024099 L149.223404,124.199116 C149.46341,124.153344 149.710993,124.222793 149.892154,124.386705 C150.073314,124.550617 150.167067,124.790003 150.14539,125.033316 L150.14539,125.033316 C150.123268,125.255775 150.005494,125.457625 149.822695,125.586378 L140.662766,132.15398 C140.193392,132.503549 139.942904,133.074457 140.003546,133.656463 L140.358511,136.767432 C140.381296,136.978286 140.499624,137.167017 140.679511,137.27942 C140.859398,137.391823 141.080936,137.415458 141.280496,137.343537 L152.427305,133.421412 C152.86894,133.265782 153.27717,133.028095 153.630496,132.720867 L162.025177,125.45733 L158.982624,116.742007 Z" id="Path" fill="#2BA8E0"></path>
                <path d="M171.268085,253.486395 L162.048227,260.574796 C161.491173,261.002987 160.828418,261.272168 160.130496,261.35369 L150.343617,262.515119 C149.869139,262.570567 149.485079,262.926578 149.393972,263.395408 L148.900709,265.884184 C148.854702,266.098402 148.897331,266.322117 149.018895,266.50442 C149.140459,266.686723 149.330618,266.812107 149.546099,266.852041 L155.691135,268.142517 C155.851576,268.177844 156.015509,268.194852 156.179787,268.193322 L192.874823,268.073384 L192.021986,257.076684 L183.659574,254.048673 L171.268085,253.486395 Z" id="Path" fill="#023852"></path>
                <path d="M171.268085,253.486395 L162.048227,260.574796 C161.491173,261.002987 160.828418,261.272168 160.130496,261.35369 L150.343617,262.515119 C149.869139,262.570567 149.485079,262.926578 149.393972,263.395408 L148.900709,265.884184 C148.854702,266.098402 148.897331,266.322117 149.018895,266.50442 C149.140459,266.686723 149.330618,266.812107 149.546099,266.852041 L155.691135,268.142517 C155.851576,268.177844 156.015509,268.194852 156.179787,268.193322 L192.874823,268.073384 L192.021986,257.076684 L183.659574,254.048673 L171.268085,253.486395 Z" id="Path" fill="url(#linearGradient-8)" style="mix-blend-mode: multiply;"></path>
                <path d="M172.485106,138.265306 L174.365957,187.013044 C174.388627,187.520061 174.476952,188.022 174.628723,188.50631 L177.044326,196.032551 C177.240676,196.661301 177.553429,197.247575 177.966312,197.760867 L179.003546,199.028299 C179.931519,200.164484 180.344119,201.635799 180.142199,203.08869 L174.660993,242.42517 C174.601781,242.843996 174.507719,243.257152 174.379787,243.66034 L171.268085,253.486395 L180.829078,257.634354 L192.722695,257.80029 C192.974311,257.802394 193.187958,257.616485 193.220567,257.367041 L200.462766,201.517075 L187.776241,130.462534 L172.485106,138.265306 Z" id="Path" fill="#023852"></path>
                <path d="M172.485106,138.265306 L174.365957,187.013044 C174.388627,187.520061 174.476952,188.022 174.628723,188.50631 L177.044326,196.032551 C177.240676,196.661301 177.553429,197.247575 177.966312,197.760867 L179.003546,199.028299 C179.931519,200.164484 180.344119,201.635799 180.142199,203.08869 L174.660993,242.42517 C174.601781,242.843996 174.507719,243.257152 174.379787,243.66034 L171.268085,253.486395 L180.829078,257.634354 L192.722695,257.80029 C192.974311,257.802394 193.187958,257.616485 193.220567,257.367041 L200.462766,201.517075 L187.776241,130.462534 L172.485106,138.265306 Z" id="Path" fill="#023852"></path>
                <path d="M174.476596,188.524745 L176.892199,196.050986 C177.088549,196.679736 177.401302,197.26601 177.814184,197.779303 L178.851418,199.046735 C179.779392,200.18292 180.191991,201.654235 179.990071,203.107126 L179.008156,210.107959 C180.72766,211.366173 182.447163,212.619779 184.194326,213.831905 C187.342908,216.021105 190.615957,218.007517 193.875177,220.016973 C195.104492,220.778968 196.343026,221.547109 197.59078,222.321395 L200.287589,201.521684 L187.624113,130.462534 L172.332979,138.297568 L174.21383,187.045306 C174.237683,187.547668 174.325994,188.044884 174.476596,188.524745 L174.476596,188.524745 Z" id="Path" fill="#023852" style="mix-blend-mode: multiply;"></path>
                <path d="M201.085106,254.670867 L191.491844,263.478367 C191.176545,263.770284 190.784925,263.966847 190.362411,264.045255 L179.040426,266.165323 C178.511151,266.263163 178.112792,266.702954 178.06773,267.239184 L177.874113,269.663435 C177.849665,269.996927 177.965707,270.325463 178.194199,270.569656 C178.422691,270.813848 178.742847,270.951483 179.077305,270.949328 L221.295035,270.488418 C221.643786,270.484181 221.975385,270.336484 222.211772,270.080095 C222.448159,269.823707 222.568449,269.481277 222.544326,269.133418 L221.760638,257.45 L214.965603,252.518537 L208.119858,254.869048 L201.085106,254.670867 Z" id="Path" fill="#023852"></path>
                <path d="M201.085106,254.670867 L191.491844,263.478367 C191.176545,263.770284 190.784925,263.966847 190.362411,264.045255 L179.040426,266.165323 C178.511151,266.263163 178.112792,266.702954 178.06773,267.239184 L177.874113,269.663435 C177.849665,269.996927 177.965707,270.325463 178.194199,270.569656 C178.422691,270.813848 178.742847,270.951483 179.077305,270.949328 L221.295035,270.488418 C221.643786,270.484181 221.975385,270.336484 222.211772,270.080095 C222.448159,269.823707 222.568449,269.481277 222.544326,269.133418 L221.760638,257.45 L214.965603,252.518537 L208.119858,254.869048 L201.085106,254.670867 Z" id="Path" fill="url(#linearGradient-9)" style="mix-blend-mode: multiply;"></path>
                <path d="M177.634397,140.823214 L184.770567,176.31131 L191.196809,194.433282 C191.434133,195.100408 191.816757,195.706481 192.317021,196.207687 L196.115603,200.005374 C196.886259,200.768715 197.374011,201.771622 197.498582,202.849031 L202.196099,244.950816 C202.265642,245.581423 202.131566,246.217733 201.813475,246.766701 L201.034397,248.098656 C200.875074,248.372318 200.759947,248.669401 200.693262,248.978946 L199.499291,254.652432 C199.475077,254.770968 199.503242,254.894184 199.576554,254.990438 C199.649865,255.086692 199.761181,255.146607 199.881915,255.154796 L206.630851,255.61568 C206.911063,255.634258 207.181402,255.726469 207.414539,255.882993 L210.968794,258.302636 C211.2523,258.496268 211.59542,258.582845 211.936879,258.546905 L222.078723,257.454609 C222.443484,257.409023 222.702976,257.077527 222.659574,256.712585 L220.078014,202.226837 C220.056046,201.800856 219.96738,201.380957 219.815248,200.982449 L211.687943,174.131327 C211.486259,173.458437 211.092049,172.85925 210.553901,172.407619 L210.065248,171.992823 C209.233689,171.292136 208.761407,170.254715 208.779078,169.167602 L209.203191,138.28835 C209.272983,136.735832 209.613067,135.207377 210.208156,133.771684 L216.966312,117.52551 L196.604255,120.484388 L177.634397,140.823214 Z" id="Path" fill="#023852"></path>
                <path d="M158.982624,116.742007 L144.857801,123.056122 C144.493517,123.220389 144.255316,123.578503 144.244681,123.977891 L144.244681,123.977891 C144.234438,124.297519 144.372274,124.603993 144.618224,124.808453 C144.864174,125.012912 145.190724,125.092485 145.503191,125.024099 L149.223404,124.199116 C149.46341,124.153344 149.710993,124.222793 149.892154,124.386705 C150.073314,124.550617 150.167067,124.790003 150.14539,125.033316 L150.14539,125.033316 C150.123268,125.255775 150.005494,125.457625 149.822695,125.586378 L140.662766,132.15398 C140.193392,132.503549 139.942904,133.074457 140.003546,133.656463 L140.358511,136.767432 C140.381296,136.978286 140.499624,137.167017 140.679511,137.27942 C140.859398,137.391823 141.080936,137.415458 141.280496,137.343537 L152.427305,133.421412 C152.86894,133.265782 153.27717,133.028095 153.630496,132.720867 L162.025177,125.45733 L158.982624,116.742007 Z" id="Path" fill="#0099DA"></path>
                <path d="M153.547518,129.508503 C153.191932,130.150723 152.659032,130.677097 152.012411,131.024813 L140.552128,137.168401 C140.73968,137.361126 141.021992,137.427643 141.275887,137.338929 L152.422695,133.416803 C152.86433,133.261174 153.27256,133.023486 153.625887,132.716259 L162.020567,125.452721 L159.604965,118.516412 L153.547518,129.508503 Z" id="Path" fill="url(#linearGradient-10)" style="mix-blend-mode: multiply;"></path>
                <path d="M219.824468,201.014711 L219.824468,201.014711 L211.687943,174.131327 C211.486259,173.458437 211.092049,172.85925 210.553901,172.407619 L210.065248,171.992823 C209.233689,171.292136 208.761407,170.254715 208.779078,169.167602 L209.203191,138.28835 C209.272983,136.735832 209.613067,135.207377 210.208156,133.771684 L216.961702,117.52551 L196.604255,120.484388 L177.634397,140.84165 L181.32234,159.277024 L199.490071,168.135221 C200.801705,168.774192 201.770768,169.951595 202.14539,171.361412 L207.764894,192.511395 C208.109469,193.822843 208.971049,194.938641 210.152837,195.603929 L219.824468,201.014711 Z" id="Path" fill="#023852" style="mix-blend-mode: multiply;"></path>
                <path d="M160.319504,26.0491837 L155.35461,31.0082993 C154.853474,31.5095782 154.542212,32.1694277 154.474113,32.874881 L151.666667,62.5834864 C151.63819,62.8939997 151.587349,63.2020552 151.514539,63.5052551 L148.393617,76.9215986 C148.231759,77.6220501 148.214505,78.3481473 148.342908,79.0554932 L152.74539,103.261139 C152.923967,104.244395 153.203581,105.206597 153.579787,106.132449 L165.10461,134.550578 C165.26711,134.926904 165.536362,135.247367 165.879078,135.472347 L173.107447,140.288588 C173.48495,140.541658 173.935413,140.663158 174.389007,140.634252 L181.764894,140.173367 C182.050494,140.155188 182.328091,140.071613 182.576241,139.929099 L217.302837,119.820714 L226.614894,114.119575 C227.236089,113.746658 227.682771,113.141347 227.855859,112.43791 C228.028947,111.734473 227.914131,110.991065 227.536879,110.372585 L184.387943,40.3181633 C183.880397,39.4939292 183.152217,38.8281847 182.285816,38.3962755 L164.574468,29.5703401 C164.051458,29.3095972 163.566096,28.9793806 163.13156,28.5886565 L160.319504,26.0491837 Z" id="Path" fill="#023852"></path>
                <path d="M157.521277,60.0255782 L161.582624,67.3352041 C161.983637,68.0568776 162.277156,68.8331991 162.453901,69.6396259 L165.551773,83.9270408 C165.648134,84.5369378 165.37509,85.1461711 164.855674,85.4802211 L141.03156,100.933673 L148.504255,115.529881 L181.483688,93.8683163 C182.060495,93.4927723 182.439237,92.879152 182.516312,92.1953061 L184.046809,78.8757483 C184.104446,78.3997023 184.104446,77.9184439 184.046809,77.442398 L180.967376,53.1261395 C180.881237,52.4457205 180.671914,51.7866644 180.349645,51.1812075 L175.278723,41.5855952 C174.843372,40.7570574 174.069594,40.158362 173.158156,39.9448469 L162.721277,37.4745068 C161.924919,37.2781138 161.094538,37.6312243 160.683688,38.3409694 L155.612766,46.9456803 C155.171605,47.6971165 155.017663,48.5828924 155.179433,49.4390646 L156.806738,57.9838605 C156.931956,58.6988361 157.173323,59.3885163 157.521277,60.0255782 Z" id="Path" fill="#023852"></path>
                <polygon id="Path" fill="url(#linearGradient-11)" style="mix-blend-mode: multiply;" points="199.075177 88.7709354 213.324468 121.95 217.321277 119.866803"></polygon>
                <path d="M77.7925532,70.3217347 L77.6819149,76.0182653 L74.3304965,86.6186054 L84.5322695,93.5595238 C84.9049056,93.8120094 85.4009345,93.7817246 85.7400709,93.4857823 L114.141844,68.6256803 C114.555834,68.2642541 115.022095,67.9674715 115.524823,67.7453912 L129.603546,61.6985884 C130.246231,61.4210652 130.727927,60.8665666 130.912766,60.1914966 L131.885461,56.5781633 C131.942089,56.3746317 131.874621,56.1567868 131.71286,56.0208603 C131.551099,55.8849337 131.324844,55.8559653 131.134043,55.9467517 L124.938298,58.8226701 C124.488555,59.0332218 124.00091,59.1507933 123.50461,59.1683333 L118.737943,59.3342517 C118.588779,59.3384485 118.450783,59.2555632 118.384444,59.1219275 C118.318106,58.9882917 118.335529,58.8282904 118.429078,58.7120578 L120.27305,56.4905952 C120.508416,56.2090538 120.52543,55.8046076 120.314539,55.5043027 L120.314539,55.5043027 C120.073956,55.1586892 119.608282,55.0566725 119.245035,55.2692517 L113.620922,58.5323129 C113.049428,58.8554137 112.572598,59.3225968 112.237943,59.8873129 L108.171986,66.8835374 C108.014282,67.1532253 107.790616,67.3784244 107.521986,67.5379932 L85.7585106,80.3367517 C85.4679825,80.4803148 85.1163007,80.3948432 84.9241135,80.1339626 L77.7925532,70.3217347 Z" id="Path" fill="#0099DA"></path>
                <path d="M130.493262,61.0303061 L130.493262,61.0303061 L115.71844,64.717381 C115.338825,64.8129094 115.002585,65.0337686 114.764184,65.3441837 L108.264184,73.8014116 L114.141844,68.6533333 C114.555834,68.2919071 115.022095,67.9951246 115.524823,67.7730442 L129.603546,61.7262415 C129.955027,61.5745864 130.261461,61.3348935 130.493262,61.0303061 L130.493262,61.0303061 Z" id="Path" fill="url(#linearGradient-12)" style="mix-blend-mode: multiply;"></path>
                <path d="M84.9471631,80.1431803 L77.7925532,70.3217347 L77.6819149,76.0182653 L74.3304965,86.6186054 L84.5322695,93.5595238 C84.7732204,93.7176415 85.0710811,93.7630672 85.348227,93.6839626 L80.4248227,85.1253401 C80.2052857,84.7473534 80.309072,84.2644613 80.664539,84.01 L85.7815603,80.3459694 C85.4910321,80.4895325 85.1393503,80.4040609 84.9471631,80.1431803 L84.9471631,80.1431803 Z" id="Path" fill="url(#linearGradient-13)" style="mix-blend-mode: multiply;"></path>
                <path d="M54.2173759,32.2296429 L49.8748227,36.792398 C49.7112451,36.9587639 49.5355891,37.1128119 49.3492908,37.2532823 L39.262766,45.2726701 C38.4964642,45.8796976 37.9770802,46.7445877 37.8014184,47.7061395 L35.1138298,62.3714796 L40.364539,60.3896769 C40.8052387,60.2220962 41.2828715,60.1759359 41.7475177,60.2560204 L44.7670213,60.7722109 C45.3239534,60.8688053 45.835731,61.1399674 46.2283688,61.5464966 L49.6950355,65.1690476 C50.2345411,65.732096 50.44387,66.5343345 50.248227,67.2891156 L42.3836879,92.0109524 L44.3751773,96.6520578 L70.3843972,100.371395 L77.4882979,76.7142007 C77.6227451,76.2652365 77.6956323,75.8001086 77.7049645,75.3315476 L77.7926651,70.8240986 C77.7955268,70.5091576 77.7392292,70.1964666 77.6265957,69.9023299 L70.6702128,51.960102 L70.6702128,50.3792687 L73.3347518,50.577449 L71.5599291,45.8395578 L68.1024823,41.1984524 L67.7198582,47.6508333 C67.710733,47.8285557 67.7246789,48.006711 67.7613475,48.1808503 L69.2780142,55.6978741 C69.2950382,55.7910444 69.2421289,55.8828479 69.1529654,55.9148478 C69.0638019,55.9468476 68.964572,55.9096453 68.9184397,55.8269218 L61.6670213,42.7608503 C61.6163121,42.6686735 61.5609929,42.5811054 61.5010638,42.4935374 L54.2173759,32.2296429 Z" id="Path" fill="#FFFFFF"></path>
                <path d="M52.6960993,75.3822449 L60.0996454,61.2330952 C60.4753681,60.5160119 60.4330247,59.6517042 59.9890071,58.9747619 L55.8907801,52.7205612 L55.3836879,59.8181803 L50.5294326,66.0769898 L50.2943262,66.630051 C50.3107026,66.8508126 50.2951767,67.0727815 50.248227,67.2891156 L42.3836879,92.0109524 L44.3751773,96.6520578 L45.3294326,96.7857143 L57.0939716,81.8438435 C57.3438878,81.5290717 57.4511368,81.12434 57.3898817,80.7271504 C57.3286266,80.3299608 57.1044208,79.9763224 56.7712766,79.7514286 L53.1847518,77.3087415 C52.5504406,76.8878508 52.3390557,76.0544726 52.6960993,75.3822449 Z" id="Path" fill="#EBEFF1"></path>
                <path d="M35.1138298,62.389915 L41.0283688,60.1546259 L45.6106383,60.9381293 L50.5248227,66.0769898 L43.0751773,90.0153231 C42.8792013,90.6220924 42.8792013,91.2751355 43.0751773,91.8819048 L54.7705674,126.886071 C54.9778332,127.516082 55.3317456,128.087895 55.8031915,128.554473 L61.0539007,133.803946 C61.246385,133.996229 61.3902015,134.231653 61.4734043,134.490663 L63.9996454,142.23352 C64.1204355,142.635239 64.0065579,143.070761 63.7045807,143.361989 C63.4026036,143.653216 62.963162,143.751317 62.5659574,143.616173 L62.5659574,143.616173 C62.2835333,143.518154 62.0525403,143.310475 61.9251773,143.040068 L59.929078,138.84602 C59.903431,138.797376 59.8479602,138.772427 59.7945378,138.785507 C59.7411154,138.798587 59.7034534,138.846339 59.7031915,138.901327 L59.7861702,142.298044 C59.7936603,142.634779 59.9137615,142.9593 60.127305,143.219813 L63.7138298,147.588997 C63.8655319,147.775183 63.9170505,148.02356 63.8519115,148.254703 C63.7867725,148.485846 63.6131357,148.670801 63.3865248,148.750425 L62.6950355,148.994694 C62.338722,149.11998 61.9525201,149.13285 61.5886525,149.031565 L54.4893617,147.022109 C54.0244353,146.892538 53.6177882,146.607952 53.3368794,146.215561 L50.308156,142.007687 C49.9396105,141.503353 49.7120719,140.909983 49.6489362,140.288588 L48.6762411,131.130816 C48.64627,130.869722 48.5763028,130.61479 48.4687943,130.374966 L32.3340426,95.0527891 C32.0233065,94.3757046 31.9006915,93.627452 31.979078,92.8866327 L35.1138298,62.389915 Z" id="Path" fill="#0099DA"></path>
                <path d="M61.3812057,17.9744898 L61.1875887,20.7397959 C61.1759013,20.8880183 61.2184984,21.0354352 61.3074468,21.1545918 L64.2670213,25.0306293 C64.432203,25.2658658 64.7153217,25.3886997 65,25.3486395 L66.4429078,25.1642857 C66.716052,25.128562 66.9794941,25.2793501 67.0869691,25.5329312 C67.194444,25.7865123 67.119563,26.0806239 66.9039007,26.2519728 L64.2531915,28.3720408 C64.1128619,28.4831839 63.9314543,28.5285251 63.7553191,28.4964796 L57.6148936,27.3166156 C57.3327601,27.264585 57.1253021,27.0226077 57.1170213,26.7359014 L56.8542553,19.0898299 C56.848544,18.91718 56.9154198,18.75003 57.0386525,18.6289456 L59.5280142,16.200085 C59.6597767,16.0809181 59.8364831,16.0242433 60.0129959,16.0445375 C60.1895087,16.0648317 60.3487341,16.1601296 60.45,16.3060884 L61.2797872,17.6011735 C61.3524107,17.7116775 61.3879344,17.8424384 61.3812057,17.9744898 Z" id="Path" fill="url(#linearGradient-14)" style="mix-blend-mode: multiply;"></path>
                <path d="M75.6028369,2.9957483 L65.3088652,0.313401361 C64.5554048,0.11484573 63.7553369,0.198439691 63.0592199,0.548452381 L57.1631206,3.50732993 C56.8605893,3.65825863 56.5144386,3.69743628 56.1858156,3.61794218 L55.5450355,3.4612415 C54.4112566,3.18200684 53.4435022,2.44635304 52.8712766,1.4287415 L52.8712766,1.4287415 C52.1376383,0.131608368 50.5146449,-0.361259781 49.1833333,0.308792517 L44.7255319,2.61321429 C44.0751542,2.94425743 43.6413219,3.587014 43.5776596,4.31387755 L42.9599291,11.4207143 C42.9102166,12.0732828 43.3485899,12.6628839 43.9879433,12.8033673 L48.229078,13.7251361 C48.7200432,13.8305378 49.2310979,13.7904959 49.6996454,13.609915 L50.9258865,13.1490306 C51.0823463,13.0883027 51.2588802,13.1104737 51.3954548,13.2080041 C51.5320295,13.3055344 51.6102612,13.465296 51.6035461,13.6329592 L51.3453901,20.2097789 C51.3074779,21.2072685 51.5451302,22.1959243 52.0322695,23.0672619 L56.0014184,30.1602721 L58.1496454,27.9295918 C58.4448448,27.6202475 58.6421003,27.2306393 58.7166667,26.8096429 L60.0120567,19.500017 C60.1114929,18.9459864 60.4328605,18.4565573 60.901773,18.145017 L62.2847518,17.2232483 C62.6622549,16.9701784 63.1127184,16.8486791 63.5663121,16.877585 L67.5492908,17.1218537 C68.0253183,17.1507565 68.4674593,16.875177 68.6510638,16.4351361 L70.3751773,12.3332653 C70.5779666,11.8406126 70.6555719,11.3054206 70.6010638,10.7754762 L70.2230496,7.30040816 C70.199823,7.08835938 70.2707642,6.87679209 70.4171365,6.72158529 C70.5635088,6.5663785 70.7705908,6.48314214 70.9836879,6.49386054 L76.2758865,6.78421769 L76.6631206,4.57658163 C76.7864396,3.85158389 76.3205302,3.15693468 75.6028369,2.9957483 Z" id="Path" fill="#023852"></path>
                <polygon id="Path" fill="#023852" points="141.03156 100.929065 148.504255 115.525272 141.04539 109.294116"></polygon>
                <polygon id="Path" fill="#FFFFFF" points="141.03156 100.929065 148.504255 115.525272 141.04539 109.294116"></polygon>
                <path d="M138.131915,101.998316 L141.06383,100.933673 L141.819858,102.099711 C141.837812,102.123644 141.847518,102.152754 141.847518,102.18267 L142.907801,112.377432 C142.918602,112.480329 142.844626,112.572778 142.741844,112.58483 L138.758865,113.068759 C138.70645,113.075243 138.653712,113.059505 138.613427,113.025359 C138.573142,112.991212 138.548985,112.941771 138.546809,112.889014 L138.030496,102.187279 C138.023127,102.109614 138.06311,102.035117 138.131915,101.998316 L138.131915,101.998316 Z" id="Path" fill="#023852"></path>
                <ellipse id="Oval" fill="#B8C4CB" cx="140.602837" cy="109.43699" rx="3.06099291" ry="2.80678571"></ellipse>
                <path d="M151.136525,94.3845068 L160.033688,88.6234524 C160.352465,88.4145036 160.48908,88.0161385 160.365603,87.6555952 L151.666667,62.5742687 L151.666667,62.5742687 C151.63819,62.884782 151.587349,63.1928375 151.514539,63.4960374 L148.393617,76.912381 C148.231759,77.6128324 148.214505,78.3389296 148.342908,79.0462755 L151.136525,94.3845068 Z" id="Path" fill="#023852" style="mix-blend-mode: multiply;"></path>
                <path d="M67.7659574,29.957483 C67.5356618,29.862173 67.2720599,29.8963428 67.0736916,30.0472191 C66.8753233,30.1980953 66.7720518,30.4429644 66.8024823,30.6902891 L68.0656028,41.2629762 C68.0930897,41.1585729 68.133346,41.0579557 68.185461,40.9634014 L70.9514184,35.8936735 C71.1004595,35.6231636 71.365656,35.4362101 71.6705674,35.3867007 L78.2950355,34.3312755 L67.7659574,29.957483 Z" id="Path" fill="url(#linearGradient-15)" style="mix-blend-mode: multiply;"></path>
                <path d="M76.2297872,6.76578231 L72.7861702,6.57681973 L75.8609929,13.4301701 C76.1483697,14.0671038 76.7378404,14.516036 77.4283688,14.6238605 L79.7333333,14.9833503 L76.2297872,6.76578231 Z" id="Path" fill="#2BA8E0"></path>
                <path d="M75.6028369,2.9957483 L65.3088652,0.313401361 C64.5554048,0.11484573 63.7553369,0.198439691 63.0592199,0.548452381 L57.1631206,3.50732993 C56.8605893,3.65825863 56.5144386,3.69743628 56.1858156,3.61794218 L55.5450355,3.4612415 C54.4265719,3.21195433 53.4674418,2.49780534 52.908156,1.49787415 C52.1984385,0.141410345 50.5275838,-0.389351982 49.1648936,0.308792517 L44.7070922,2.61321429 C44.0567144,2.94425743 43.6228822,3.587014 43.5592199,4.31387755 L43.3241135,7.07918367 C43.3886525,6.35098639 44.0570922,5.69653061 44.7070922,5.36008503 L50.1882979,2.55790816 C50.7597986,2.26596635 51.4420193,2.29209997 51.9895001,2.62690625 C52.5369809,2.96171254 52.8709612,3.55702636 52.8712766,4.19865646 L52.8712766,4.19865646 C52.8728759,5.00637782 53.424023,5.70940002 54.208156,5.90392857 L56.1858156,6.38785714 C56.5144386,6.46735125 56.8605893,6.42817359 57.1631206,6.2772449 L63.0822695,3.31836735 C63.7783866,2.96835466 64.5784544,2.8847607 65.3319149,3.08331633 L71.2280142,4.60884354 C71.7185966,4.73473378 72.1275521,5.07263398 72.343617,5.53061224 L72.8046099,6.55838435 L76.2297872,6.74734694 L76.4510638,5.47991497 L76.6170213,4.55814626 C76.7331609,3.85366985 76.293686,3.17663854 75.6028369,2.9957483 Z" id="Path" fill="#1B4C63"></path>
                <path d="M68.7617021,55.5411735 L61.6670213,42.7562415 C61.6411536,42.7081278 61.611883,42.6619219 61.5794326,42.6179762 L57.6656028,47.0102041 L68.9875887,55.8822279 L68.9875887,55.6563946 C68.8960277,55.6665692 68.8072007,55.6212599 68.7617021,55.5411735 Z" id="Path" fill="#EBEFF1" style="mix-blend-mode: multiply;"></path>
                <polygon id="Path" fill="#EBEFF1" style="mix-blend-mode: multiply;" points="70.7163121 50.3838776 73.3347518 50.577449 71.5599291 45.8395578 71.5184397 45.7842517 70.6886525 50.3792687"></polygon>
                <path d="M40.4751773,60.3758503 L35.1138298,62.3991327 L31.9652482,92.905068 C31.8868617,93.6458874 32.0094767,94.39414 32.3202128,95.0712245 L43.9648936,120.548912 L44.0847518,120.604218 L35.9851064,93.3751701 C35.5844013,92.0302616 35.4945515,90.6119146 35.7223404,89.2272109 L40.4751773,60.3758503 Z" id="Path" fill="url(#linearGradient-16)" style="mix-blend-mode: multiply;"></path>
                <path d="M57.3106383,143.837398 C56.8918826,143.302923 56.3138809,142.915527 55.6602837,142.731276 L49.8287234,141.085918 C49.9369504,141.413863 50.0922348,141.724359 50.2897163,142.007687 L53.3184397,146.215561 C53.5993484,146.607952 54.0059956,146.892538 54.470922,147.022109 L61.2659574,148.925561 L57.3106383,143.837398 Z" id="Path" fill="url(#linearGradient-17)" style="mix-blend-mode: multiply;"></path>
                <path d="M168.801773,31.6811905 L164.574468,29.5703401 C164.051458,29.3095972 163.566096,28.9793806 163.13156,28.5886565 L160.310284,26.0491837 L155.35461,31.0082993 C154.853474,31.5095782 154.542212,32.1694277 154.474113,32.874881 L153.552128,42.5165816 L157.078723,37.2486735 L168.801773,31.6811905 Z" id="Path" fill="#1B4C63"></path>
                <path d="M181.875532,60.3758503 L184.037589,77.4608333 C184.095226,77.9368793 184.095226,78.4181377 184.037589,78.8941837 L182.507092,92.2137415 C182.430017,92.8975873 182.051275,93.5112076 181.474468,93.8867517 L155.451418,110.704422 L165.11844,134.578231 L192.164894,80.9958163 C192.279899,80.3700117 192.191027,79.7238272 191.911348,79.1522789 L182.553191,60.1684524 C182.487709,59.9923366 182.296271,59.8977695 182.116568,59.9527676 C181.936865,60.0077658 181.831183,60.1932667 181.875532,60.3758503 Z" id="Path" fill="#023852" style="mix-blend-mode: multiply;"></path>
            </g>
        </g>
    </g>
</svg>