<?xml version="1.0" encoding="UTF-8"?>
<svg width="440px" height="330px" viewBox="0 0 440 330" version="1.1" xmlns="http://www.w3.org/2000/svg" xmlns:xlink="http://www.w3.org/1999/xlink">
    <title>Graphic elements / Icons / Rich icons / Marketplace / Practice-Business-Solutions</title>
    <defs>
        <linearGradient x1="0%" y1="49.9925871%" x2="100.00169%" y2="49.9925871%" id="linearGradient-1">
            <stop stop-color="#FFFFFF" stop-opacity="0" offset="0%"></stop>
            <stop stop-color="#FFFFFF" offset="100%"></stop>
        </linearGradient>
        <linearGradient x1="70.3695814%" y1="12.1151799%" x2="32.783044%" y2="80.792135%" id="linearGradient-2">
            <stop stop-color="#FFFFFF" stop-opacity="0.4" offset="0%"></stop>
            <stop stop-color="#FFFFFF" stop-opacity="0" offset="100%"></stop>
        </linearGradient>
        <linearGradient x1="7.74255602e-06%" y1="49.9794598%" x2="100%" y2="49.9794598%" id="linearGradient-3">
            <stop stop-color="#FFFFFF" stop-opacity="0" offset="0%"></stop>
            <stop stop-color="#FDFDFD" stop-opacity="0.04" offset="10%"></stop>
            <stop stop-color="#F7F8F9" stop-opacity="0.14" offset="25%"></stop>
            <stop stop-color="#ECEFF2" stop-opacity="0.31" offset="44%"></stop>
            <stop stop-color="#DEE4E7" stop-opacity="0.54" offset="65%"></stop>
            <stop stop-color="#CCD5DA" stop-opacity="0.83" offset="88%"></stop>
            <stop stop-color="#C2CCD3" offset="100%"></stop>
        </linearGradient>
    </defs>
    <g id="Graphic-elements-/-Icons-/-Rich-icons-/-Marketplace-/-Practice-Business-Solutions" stroke="none" stroke-width="1" fill="none" fill-rule="evenodd">
        <g id="Business-solutions" transform="translate(25.000000, 0.000000)">
            <g id="Midlayer" transform="translate(86.000000, 0.000000)" stroke="#023852">
                <polygon id="Path" points="115.650419 68.060535 79.1784651 68.060535 86.7547442 84.0869959 108.07414 84.0869959"></polygon>
                <polyline id="Path" points="66.1506512 62.2577778 71.6868372 62.2577778 84.0755349 88.5206584 108.751349 88.5206584"></polyline>
                <ellipse id="Oval" cx="89.5947907" cy="97.3159259" rx="4.8124186" ry="4.87024691"></ellipse>
                <ellipse id="Oval" cx="104.154791" cy="97.3159259" rx="4.8124186" ry="4.87024691"></ellipse>
                <polyline id="Path" points="139.674419 102.745679 139.674419 88.5757613 149.472791 88.5757613 149.472791 102.745679"></polyline>
                <polyline id="Path" points="151.830326 102.745679 151.830326 79.2548971 161.624465 79.2548971 161.624465 102.745679"></polyline>
                <polyline id="Path" points="163.982 102.745679 163.982 70.8877366 173.77614 70.8877366 173.77614 102.745679"></polyline>
                <line x1="133.651488" y1="102.745679" x2="179.803302" y2="102.745679" id="Path"></line>
                <polygon id="Path" points="94.5849767 14.767572 94.5849767 3.75547325 89.2815814 3.75547325 89.2815814 14.767572 83.8088837 14.767572 91.9353953 29.4927572 100.057674 14.767572"></polygon>
                <polyline id="Path" stroke-linecap="round" stroke-linejoin="round" points="74.2009767 35.7575309 74.2009767 45.3539095 91.8549767 51.406749 91.8549767 33.7272016 74.2009767 27.6743621"></polyline>
                <polyline id="Path" stroke-linecap="round" stroke-linejoin="round" points="107.604326 35.9991358 107.604326 45.3539095 91.8549767 51.406749 91.8549767 33.7272016 107.604326 27.6743621"></polyline>
                <polyline id="Path" stroke-linecap="round" stroke-linejoin="round" points="95.3426047 23.7323868 107.604326 27.6743621 114.122465 33.0913992 99.7275349 39.5426749 91.8549767 33.7272016 85.0151628 40.0979424 67.6786047 33.0913992 74.2009767 27.6743621 88.3419535 23.6137037"></polyline>
                <path d="M179.519721,8.77407407 L133.930837,8.77407407 C132.708284,8.77407407 131.717209,9.76658324 131.717209,10.9909053 L131.717209,41.6832099 C131.719538,42.9065646 132.70925,43.8977087 133.930837,43.9000412 L152.105442,43.9000412 L152.105442,49.5925926 L147.513116,49.5925926 C147.0082,49.5925926 146.598884,50.0025008 146.598884,50.5081481 L146.598884,50.5081481 C146.598884,51.0137955 147.0082,51.4237037 147.513116,51.4237037 L165.941674,51.4237037 C166.446591,51.4237037 166.855907,51.0137955 166.855907,50.5081481 L166.855907,50.5081481 C166.855907,50.0025008 166.446591,49.5925926 165.941674,49.5925926 L161.349349,49.5925926 L161.349349,43.9000412 L179.519721,43.9000412 C180.742274,43.9000412 181.733349,42.907532 181.733349,41.6832099 L181.733349,10.9909053 C181.733349,9.76658324 180.742274,8.77407407 179.519721,8.77407407 Z" id="Path"></path>
                <rect id="Rectangle" x="135.124419" y="11.8301646" width="43.2059535" height="23.3890535"></rect>
                <rect id="Rectangle" x="138.379256" y="15.3313169" width="17.2349767" height="11.4317284"></rect>
                <rect id="Rectangle" x="138.379256" y="29.0646502" width="17.2349767" height="2.68308642"></rect>
                <line x1="158.665907" y1="21.2781893" x2="175.075535" y2="21.2781893" id="Path"></line>
                <line x1="158.665907" y1="19.2817695" x2="175.075535" y2="19.2817695" id="Path"></line>
                <line x1="158.665907" y1="17.2895885" x2="175.075535" y2="17.2895885" id="Path"></line>
                <line x1="158.665907" y1="15.2931687" x2="175.075535" y2="15.2931687" id="Path"></line>
                <line x1="158.665907" y1="25.8008642" x2="166.043256" y2="25.8008642" id="Path"></line>
                <line x1="158.665907" y1="27.7676132" x2="166.043256" y2="27.7676132" id="Path"></line>
                <line x1="158.665907" y1="29.7343621" x2="166.043256" y2="29.7343621" id="Path"></line>
                <line x1="158.665907" y1="31.7053498" x2="166.043256" y2="31.7053498" id="Path"></line>
                <line x1="167.698186" y1="25.8008642" x2="175.075535" y2="25.8008642" id="Path"></line>
                <line x1="167.698186" y1="27.7676132" x2="175.075535" y2="27.7676132" id="Path"></line>
                <line x1="167.698186" y1="29.7343621" x2="175.075535" y2="29.7343621" id="Path"></line>
                <line x1="167.698186" y1="31.7053498" x2="175.075535" y2="31.7053498" id="Path"></line>
                <polyline id="Path" points="27.3846512 45.8244033 0.368232558 45.8244033 0.368232558 6.51485597 7.69902326 6.51485597"></polyline>
                <polyline id="Path" points="24.6207907 6.51485597 31.8626977 6.51485597 31.8626977 29.3189712"></polyline>
                <line x1="5.30339535" y1="11.9276543" x2="26.9275349" y2="11.9276543" id="Path"></line>
                <line x1="5.30339535" y1="14.8989712" x2="26.9275349" y2="14.8989712" id="Path"></line>
                <line x1="5.30339535" y1="17.8745267" x2="26.9275349" y2="17.8745267" id="Path"></line>
                <polyline id="Path" points="10.4755814 32.6420988 14.4711163 36.6434156 21.7553488 27.2250617"></polyline>
                <path d="M19.5967442,3.28921811 C19.4059557,3.28590052 19.247779,3.14024015 19.2285116,2.95012346 C19.0279389,1.38024948 17.6937337,0.204177616 16.1133488,0.204177616 C14.532964,0.204177616 13.1987587,1.38024948 12.998186,2.95012346 C12.9789187,3.14024015 12.8207419,3.28590052 12.6299535,3.28921811 L8.6852093,3.28921811 C8.09477315,3.29387408 7.61859589,3.77453471 7.61859589,4.36584362 L7.61859589,6.80308642 C7.61747907,7.0758689 7.72489677,7.33786555 7.91710849,7.53115084 C8.10932021,7.72443612 8.37049309,7.83308642 8.64288372,7.83308642 L23.5965116,7.83308642 C23.8689023,7.83308642 24.1300751,7.72443612 24.3222869,7.53115084 C24.5144986,7.33786555 24.6219163,7.0758689 24.6207995,6.80308642 L24.6207995,4.36584362 C24.6207995,3.77289115 24.1420445,3.29155257 23.5499535,3.28921811 L19.5967442,3.28921811 Z" id="Path"></path>
                <rect id="Rectangle" x="27.3719535" y="29.5478601" width="16.0371628" height="21.8588889" rx="1.4"></rect>
                <rect id="Rectangle" x="29.6786977" y="31.8876132" width="11.4236744" height="5.08641975"></rect>
                <rect id="Rectangle" x="39.4008837" y="39.233251" width="1.70148837" height="2.08119342"></rect>
                <rect id="Rectangle" x="36.1587442" y="39.233251" width="1.70148837" height="2.08119342"></rect>
                <rect id="Rectangle" x="32.9166047" y="39.233251" width="1.70148837" height="2.08119342"></rect>
                <rect id="Rectangle" x="29.6786977" y="39.233251" width="1.70148837" height="2.08119342"></rect>
                <rect id="Rectangle" x="39.4008837" y="43.1074074" width="1.70148837" height="5.96382716"></rect>
                <rect id="Rectangle" x="36.1587442" y="43.1074074" width="1.70148837" height="2.08119342"></rect>
                <rect id="Rectangle" x="32.9166047" y="43.1074074" width="1.70148837" height="2.08119342"></rect>
                <rect id="Rectangle" x="29.6786977" y="43.1074074" width="1.70148837" height="2.08119342"></rect>
                <rect id="Rectangle" x="36.1587442" y="46.9773251" width="1.70148837" height="2.08119342"></rect>
                <rect id="Rectangle" x="32.9166047" y="46.9773251" width="1.70148837" height="2.08119342"></rect>
                <rect id="Rectangle" x="29.6786977" y="46.9773251" width="1.70148837" height="2.08119342"></rect>
                <ellipse id="Oval" cx="21.8865581" cy="85.2865432" rx="14.1833023" ry="14.6276955"></ellipse>
                <polyline id="Path" points="14.6277209 77.8010288 21.8992558 86.3207819 27.5497209 79.4498765"></polyline>
                <ellipse id="Oval" cx="21.8865581" cy="85.2865432" rx="17.433907" ry="17.4591358"></ellipse>
            </g>
            <g id="Ilus" transform="translate(0.000000, 115.000000)">
                <rect id="Rectangle" fill="#D8DEE2" fill-rule="nonzero" style="mix-blend-mode: multiply;" transform="translate(176.860761, 199.023130) rotate(-180.000000) translate(-176.860761, -199.023130) " x="52.9382609" y="196.737697" width="247.845" height="4.57086614" rx="2.28543307"></rect>
                <path d="M195.716413,185.331693 L195.716413,167.001673 L149.217391,167.001673 L149.217391,185.331693 C149.229118,189.107333 146.174132,192.178224 142.392391,192.192224 L202.541413,192.192224 C198.759673,192.178224 195.704686,189.107333 195.716413,185.331693 L195.716413,185.331693 Z" id="Path" fill="#B2BFC7" fill-rule="nonzero"></path>
                <rect id="Rectangle" fill="#9DADB7" fill-rule="nonzero" x="149.204674" y="167.001673" width="46.5159783" height="14.5336614"></rect>
                <path d="M130.819565,190.935236 L213.948913,190.935236 C215.496451,190.935236 216.750978,192.187737 216.750978,193.732776 L216.750978,197.512205 L128.021739,197.512205 L128.021739,193.732776 C128.021739,192.189389 129.273683,190.937571 130.819565,190.935236 Z" id="Path" fill="#CFD7DC" fill-rule="nonzero"></path>
                <rect id="Rectangle" fill="#023852" fill-rule="nonzero" x="38.9618478" y="0.181988189" width="266.849022" height="168.148622" rx="2.99"></rect>
                <ellipse id="Oval" fill="#4B7284" fill-rule="nonzero" cx="172.388478" cy="159.844882" rx="4.09923913" ry="4.11801181"></ellipse>
                <rect id="Rectangle" fill="#0099DA" fill-rule="nonzero" x="46.7025" y="8.20639764" width="251.363478" height="143.000394"></rect>
                <rect id="Rectangle" fill="#FFE700" fill-rule="nonzero" x="65.5284783" y="37.878937" width="20.3096739" height="2.47165354"></rect>
                <rect id="Rectangle" fill="#FFE700" fill-rule="nonzero" x="90.2086957" y="37.878937" width="20.3096739" height="2.47165354"></rect>
                <rect id="Rectangle" fill="#FFE700" fill-rule="nonzero" x="114.888913" y="37.878937" width="20.3096739" height="2.47165354"></rect>
                <rect id="Rectangle" fill="#FFE700" fill-rule="nonzero" x="185.610326" y="37.878937" width="20.3096739" height="2.47165354"></rect>
                <rect id="Rectangle" fill="#FFE700" fill-rule="nonzero" x="210.286304" y="37.878937" width="20.3096739" height="2.47165354"></rect>
                <rect id="Rectangle" fill="#FFE700" fill-rule="nonzero" x="234.966522" y="37.878937" width="20.3096739" height="2.47165354"></rect>
                <polygon id="Path" fill="url(#linearGradient-1)" fill-rule="nonzero" opacity="0.41" points="47.2451087 8.40531496 56.6008696 17.4285433 65.9523913 26.4475394 75.3081522 35.4665354 84.663913 44.4855315 112.362391 71.1489173 140.069348 97.8123031 167.784783 124.475689 195.504457 151.139075 298.091413 151.139075 298.091413 8.40531496"></polygon>
                <rect id="Rectangle" fill="#FFFFFF" fill-rule="nonzero" x="65.7955435" y="53.1574803" width="56.0667391" height="2.06112205"></rect>
                <rect id="Rectangle" fill="#FFFFFF" fill-rule="nonzero" x="65.7955435" y="62.4854331" width="56.0667391" height="2.06112205"></rect>
                <rect id="Rectangle" fill="#FFFFFF" fill-rule="nonzero" x="65.7955435" y="71.8133858" width="56.0667391" height="2.06112205"></rect>
                <rect id="Rectangle" fill="#FFFFFF" fill-rule="nonzero" x="65.7955435" y="81.1455709" width="56.0667391" height="2.06112205"></rect>
                <rect id="Rectangle" fill="#FFFFFF" fill-rule="nonzero" x="65.7955435" y="90.4735236" width="56.0667391" height="2.06112205"></rect>
                <rect id="Rectangle" fill="#FFFFFF" fill-rule="nonzero" x="65.7955435" y="99.8014764" width="56.0667391" height="2.06112205"></rect>
                <rect id="Rectangle" fill="#FFFFFF" fill-rule="nonzero" x="65.7955435" y="109.133661" width="56.0667391" height="2.06112205"></rect>
                <rect id="Rectangle" fill="#FFFFFF" fill-rule="nonzero" x="65.7955435" y="118.461614" width="56.0667391" height="2.06112205"></rect>
                <rect id="Rectangle" fill="#FFFFFF" fill-rule="nonzero" x="65.7955435" y="127.789567" width="56.0667391" height="2.06112205"></rect>
                <rect id="Rectangle" fill="#FFFFFF" fill-rule="nonzero" x="128.899239" y="53.1574803" width="16.053587" height="2.06112205"></rect>
                <rect id="Rectangle" fill="#FFFFFF" fill-rule="nonzero" x="128.899239" y="62.4854331" width="16.053587" height="2.06112205"></rect>
                <rect id="Rectangle" fill="#FFFFFF" fill-rule="nonzero" x="128.899239" y="71.8133858" width="16.053587" height="2.06112205"></rect>
                <rect id="Rectangle" fill="#FFFFFF" fill-rule="nonzero" x="128.899239" y="81.1455709" width="16.053587" height="2.06112205"></rect>
                <rect id="Rectangle" fill="#FFFFFF" fill-rule="nonzero" x="128.899239" y="90.4735236" width="16.053587" height="2.06112205"></rect>
                <rect id="Rectangle" fill="#FFFFFF" fill-rule="nonzero" x="128.899239" y="99.8014764" width="16.053587" height="2.06112205"></rect>
                <rect id="Rectangle" fill="#FFFFFF" fill-rule="nonzero" x="128.899239" y="109.133661" width="16.053587" height="2.06112205"></rect>
                <rect id="Rectangle" fill="#FFFFFF" fill-rule="nonzero" x="128.899239" y="118.461614" width="16.053587" height="2.06112205"></rect>
                <rect id="Rectangle" fill="#FFFFFF" fill-rule="nonzero" x="128.899239" y="127.789567" width="16.053587" height="2.06112205"></rect>
                <polyline id="Path" stroke="#FFFFFF" stroke-width="2" points="151.570109 53.1998031 154.143261 55.7687992 159.289565 50.6308071"></polyline>
                <polyline id="Path" stroke="#FFFFFF" stroke-width="2" points="151.570109 62.6462598 154.143261 65.2152559 159.289565 60.0772638"></polyline>
                <polyline id="Path" stroke="#FFFFFF" stroke-width="2" points="151.570109 72.0969488 154.143261 74.6617126 159.289565 69.5279528"></polyline>
                <polyline id="Path" stroke="#FFFFFF" stroke-width="2" points="151.570109 81.5434055 154.143261 84.1124016 159.289565 78.9744094"></polyline>
                <polyline id="Path" stroke="#FFFFFF" stroke-width="2" points="151.570109 90.9898622 154.143261 93.5588583 159.289565 88.4250984"></polyline>
                <polyline id="Path" stroke="#FFFFFF" stroke-width="2" points="151.570109 100.440551 154.143261 103.009547 159.289565 97.8715551"></polyline>
                <polyline id="Path" stroke="#FFFFFF" stroke-width="2" points="151.570109 109.887008 154.143261 112.456004 159.289565 107.318012"></polyline>
                <polyline id="Path" stroke="#FFFFFF" stroke-width="2" points="151.570109 119.337697 154.143261 121.902461 159.289565 116.768701"></polyline>
                <polyline id="Path" stroke="#FFFFFF" stroke-width="2" points="151.570109 128.784154 154.143261 131.35315 159.289565 126.215157"></polyline>
                <rect id="Rectangle" fill="#FFFFFF" fill-rule="nonzero" x="168.662283" y="53.1574803" width="56.0667391" height="2.06112205"></rect>
                <rect id="Rectangle" fill="#FFFFFF" fill-rule="nonzero" x="168.662283" y="62.4854331" width="56.0667391" height="2.06112205"></rect>
                <rect id="Rectangle" fill="#FFFFFF" fill-rule="nonzero" x="168.662283" y="71.8133858" width="56.0667391" height="2.06112205"></rect>
                <rect id="Rectangle" fill="#FFFFFF" fill-rule="nonzero" x="168.662283" y="81.1455709" width="56.0667391" height="2.06112205"></rect>
                <rect id="Rectangle" fill="#FFFFFF" fill-rule="nonzero" x="168.662283" y="90.4735236" width="56.0667391" height="2.06112205"></rect>
                <rect id="Rectangle" fill="#FFFFFF" fill-rule="nonzero" x="168.662283" y="99.8014764" width="56.0667391" height="2.06112205"></rect>
                <rect id="Rectangle" fill="#FFFFFF" fill-rule="nonzero" x="168.662283" y="109.133661" width="56.0667391" height="2.06112205"></rect>
                <rect id="Rectangle" fill="#FFFFFF" fill-rule="nonzero" x="168.662283" y="118.461614" width="56.0667391" height="2.06112205"></rect>
                <rect id="Rectangle" fill="#FFFFFF" fill-rule="nonzero" x="168.662283" y="127.789567" width="56.0667391" height="2.06112205"></rect>
                <rect id="Rectangle" fill="#FFFFFF" fill-rule="nonzero" x="231.765978" y="53.1574803" width="16.053587" height="2.06112205"></rect>
                <rect id="Rectangle" fill="#FFFFFF" fill-rule="nonzero" x="231.765978" y="62.4854331" width="16.053587" height="2.06112205"></rect>
                <rect id="Rectangle" fill="#FFFFFF" fill-rule="nonzero" x="231.765978" y="71.8133858" width="16.053587" height="2.06112205"></rect>
                <rect id="Rectangle" fill="#FFFFFF" fill-rule="nonzero" x="231.765978" y="81.1455709" width="16.053587" height="2.06112205"></rect>
                <rect id="Rectangle" fill="#FFFFFF" fill-rule="nonzero" x="231.765978" y="90.4735236" width="16.053587" height="2.06112205"></rect>
                <rect id="Rectangle" fill="#FFFFFF" fill-rule="nonzero" x="231.765978" y="99.8014764" width="16.053587" height="2.06112205"></rect>
                <rect id="Rectangle" fill="#FFFFFF" fill-rule="nonzero" x="231.765978" y="109.133661" width="16.053587" height="2.06112205"></rect>
                <rect id="Rectangle" fill="#FFFFFF" fill-rule="nonzero" x="231.765978" y="118.461614" width="16.053587" height="2.06112205"></rect>
                <rect id="Rectangle" fill="#FFFFFF" fill-rule="nonzero" x="231.765978" y="127.789567" width="16.053587" height="2.06112205"></rect>
                <polyline id="Path" stroke="#FFFFFF" stroke-width="2" points="254.436848 53.1998031 257.01 55.7687992 262.156304 50.6308071"></polyline>
                <polyline id="Path" stroke="#FFFFFF" stroke-width="2" points="254.436848 62.6462598 257.01 65.2152559 262.156304 60.0772638"></polyline>
                <polyline id="Path" stroke="#FFFFFF" stroke-width="2" points="254.436848 72.0969488 257.01 74.6617126 262.156304 69.5279528"></polyline>
                <polyline id="Path" stroke="#FFFFFF" stroke-width="2" points="254.436848 81.5434055 257.01 84.1124016 262.156304 78.9744094"></polyline>
                <polyline id="Path" stroke="#FFFFFF" stroke-width="2" points="254.436848 90.9898622 257.01 93.5588583 262.156304 88.4250984"></polyline>
                <polyline id="Path" stroke="#FFFFFF" stroke-width="2" points="254.436848 100.440551 257.01 103.009547 262.156304 97.8715551"></polyline>
                <polyline id="Path" stroke="#FFFFFF" stroke-width="2" points="254.436848 109.887008 257.01 112.456004 262.156304 107.318012"></polyline>
                <polyline id="Path" stroke="#FFFFFF" stroke-width="2" points="254.436848 119.337697 257.01 121.902461 262.156304 116.768701"></polyline>
                <polyline id="Path" stroke="#FFFFFF" stroke-width="2" points="254.436848 128.784154 257.01 131.35315 262.156304 126.215157"></polyline>
                <path d="M39,50.0298228 L65.3292391,50.0298228 C68.6584356,50.0298228 71.3572826,52.7243107 71.3572826,56.0481299 L71.3572826,164.915157 L39,164.915157 L39,50.0298228 Z" id="Path" fill="#A1B5BF" fill-rule="nonzero" style="mix-blend-mode: multiply;"></path>
                <path d="M2.6325,57.9822835 L57.7666304,57.9822835 C59.22052,57.9822835 60.3991304,59.1589902 60.3991304,60.6105315 L60.3991304,180.845472 C60.3991304,183.484426 58.256375,185.62372 55.6131522,185.62372 L4.78597826,185.62372 C2.14275545,185.62372 0,183.484426 0,180.845472 L0,60.6105315 C0,59.1589902 1.1786104,57.9822835 2.6325,57.9822835 Z" id="Path" fill="#205067" fill-rule="nonzero"></path>
                <path d="M10.7801087,180.11752 L10.7801087,213.307087 C10.7824376,214.154607 11.4700214,214.84108 12.318913,214.843406 L48.0802174,214.843406 C48.929109,214.84108 49.6166928,214.154607 49.6190217,213.307087 L49.6190217,180.11752 L10.7801087,180.11752 Z" id="Path" fill="#FFFFFF" fill-rule="nonzero"></path>
                <rect id="Rectangle" fill="#9DADB7" fill-rule="nonzero" x="15.243913" y="198.946949" width="4.50195652" height="11.8419291"></rect>
                <rect id="Rectangle" fill="#9DADB7" fill-rule="nonzero" x="29.3983696" y="180.104823" width="1.48369565" height="27.0062008"></rect>
                <rect id="Rectangle" fill="#9DADB7" fill-rule="nonzero" x="33.1627174" y="180.104823" width="1.48369565" height="27.0062008"></rect>
                <path d="M52.0904348,185.488287 L52.0904348,185.488287 L52.0904348,181.518406 C52.0904348,180.744718 51.4622222,180.11752 50.6872826,180.11752 L9.71184783,180.11752 C8.93856428,180.119852 8.31293478,180.746367 8.31293478,181.518406 L8.31293478,185.488287 L8.31293478,185.488287 C8.853657,185.578713 9.40098399,185.624014 9.94923913,185.623723 L50.4456522,185.623723 C50.9967213,185.624073 51.5468696,185.578773 52.0904348,185.488287 Z" id="Path" fill="#71909E" fill-rule="nonzero" style="mix-blend-mode: multiply;"></path>
                <rect id="Rectangle" fill="#628494" fill-rule="nonzero" x="8.59271739" y="125.068209" width="12.026413" height="6.78858268" rx="1.27"></rect>
                <rect id="Rectangle" fill="#628494" fill-rule="nonzero" x="24.1842391" y="125.068209" width="12.026413" height="6.78858268" rx="1.27"></rect>
                <rect id="Rectangle" fill="#628494" fill-rule="nonzero" x="39.78" y="125.068209" width="12.026413" height="6.78858268" rx="1.27"></rect>
                <rect id="Rectangle" fill="#628494" fill-rule="nonzero" x="8.59271739" y="135.20876" width="12.026413" height="6.78858268" rx="1.27"></rect>
                <rect id="Rectangle" fill="#628494" fill-rule="nonzero" x="24.1842391" y="135.20876" width="12.026413" height="6.78858268" rx="1.27"></rect>
                <rect id="Rectangle" fill="#628494" fill-rule="nonzero" x="39.78" y="135.20876" width="12.026413" height="6.78858268" rx="1.27"></rect>
                <rect id="Rectangle" fill="#628494" fill-rule="nonzero" x="8.59271739" y="145.349311" width="12.026413" height="6.78858268" rx="1.27"></rect>
                <rect id="Rectangle" fill="#628494" fill-rule="nonzero" x="24.1842391" y="145.349311" width="12.026413" height="6.78858268" rx="1.27"></rect>
                <rect id="Rectangle" fill="#628494" fill-rule="nonzero" x="39.78" y="145.349311" width="12.026413" height="6.78858268" rx="1.27"></rect>
                <rect id="Rectangle" fill="#628494" fill-rule="nonzero" x="8.59271739" y="155.48563" width="12.026413" height="6.78858268" rx="1.27"></rect>
                <rect id="Rectangle" fill="#628494" fill-rule="nonzero" x="24.1842391" y="155.48563" width="12.026413" height="6.78858268" rx="1.27"></rect>
                <rect id="Rectangle" fill="#628494" fill-rule="nonzero" x="39.78" y="155.48563" width="12.026413" height="6.78858268" rx="1.27"></rect>
                <rect id="Rectangle" fill="#628494" fill-rule="nonzero" x="8.59271739" y="165.626181" width="12.026413" height="6.78858268" rx="1.27"></rect>
                <rect id="Rectangle" fill="#628494" fill-rule="nonzero" x="24.1842391" y="165.626181" width="12.026413" height="6.78858268" rx="1.27"></rect>
                <rect id="Rectangle" fill="#628494" fill-rule="nonzero" x="39.78" y="165.626181" width="12.026413" height="6.78858268" rx="1.27"></rect>
                <path d="M41.178913,117.598228 L39.1229348,113.251673 C38.8994462,112.778253 38.4220389,112.476438 37.8978261,112.477164 L19.8306522,112.477164 C19.5927407,112.477615 19.3715805,112.599494 19.244408,112.80024 C19.1172354,113.000985 19.1017127,113.252716 19.2032609,113.46752 L21.2380435,117.763287 C21.5460533,118.421247 22.2062555,118.843094 22.9336957,118.846752 L40.3861957,118.846752 C40.6862135,118.846227 40.9651681,118.692706 41.1257957,118.439719 C41.2864233,118.186732 41.3064575,117.869347 41.178913,117.598228 L41.178913,117.598228 Z" id="Path" fill="#628494" fill-rule="nonzero"></path>
                <path d="M14.9259783,112.477114 L9.8051087,112.477114 C9.49930255,112.477114 9.20602143,112.59845 8.98978383,112.814338 C8.77354624,113.030227 8.65206522,113.323034 8.65206522,113.628346 L8.65206522,117.699803 C8.65206522,118.004728 8.77367927,118.297102 8.99003959,118.512318 C9.20639992,118.727535 9.49969302,118.847877 9.8051087,118.84676 L17.8594565,118.84676 C18.116966,118.846965 18.3565958,118.715324 18.4942336,118.498036 C18.6318713,118.280748 18.6482866,118.008172 18.5377174,117.775984 L16.5326087,113.488681 C16.2410501,112.867039 15.6134872,112.471933 14.9259783,112.477114 Z" id="Path" fill="#628494" fill-rule="nonzero"></path>
                <path d="M45.4731522,118.84676 L50.5940217,118.84676 C50.8994374,118.847877 51.1927305,118.727535 51.4090908,118.512318 C51.6254512,118.297102 51.7470652,118.004728 51.7470652,117.699803 L51.7470652,113.628346 C51.7470652,112.992567 51.2308301,112.477165 50.5940217,112.477165 L42.5396739,112.477165 C42.2823326,112.477783 42.0430503,112.609297 41.9048896,112.826056 C41.766729,113.042815 41.7487425,113.314927 41.8571739,113.547933 L43.8877174,117.835236 C44.1768436,118.449225 44.7936076,118.842724 45.4731522,118.84676 L45.4731522,118.84676 Z" id="Path" fill="#628494" fill-rule="nonzero"></path>
                <rect id="Rectangle" fill="#0099DA" fill-rule="nonzero" x="8.59271739" y="77.1841535" width="43.2136957" height="30.5147638" rx="0.96"></rect>
                <path d="M50.958587,77.1841429 L12.0094565,77.1841429 L19.143913,84.3197835 C24.2308696,89.4182743 29.3263043,94.5209974 34.4302174,99.6279528 L42.4845652,107.698917 L50.9628261,107.698917 C51.4310675,107.698917 51.8106522,107.319946 51.8106522,106.852461 L51.8106522,78.0306102 C51.8106522,77.8053807 51.720749,77.5894373 51.5608328,77.4305736 C51.4009165,77.27171 51.184178,77.1830274 50.958587,77.1841429 Z" id="Path" fill="url(#linearGradient-2)" fill-rule="nonzero"></path>
                <rect id="Rectangle" fill="#1B4C63" fill-rule="nonzero" x="8.65206522" y="67.5176181" width="43.095" height="2.41663386" rx="1.20831693"></rect>
                <rect id="Rectangle" fill="#023852" fill-rule="nonzero" style="mix-blend-mode: multiply;" x="8.65206522" y="67.5176181" width="43.095" height="2.41663386" rx="1.20831693"></rect>
                <polygon id="Path" fill="#003A5D" fill-rule="nonzero" opacity="0.3" style="mix-blend-mode: multiply;" points="30.4030435 97.9096457 29.898587 98.4132874 29.3983696 98.9169291 28.893913 99.4205709 28.4021739 99.9242126 27.3169565 98.8365157 26.2147826 97.765748 25.1295652 96.6780512 24.0443478 95.5903543 24.5445652 95.0867126 25.0490217 94.5873031 25.5534783 94.0836614 26.0536957 93.5800197 26.6386957 94.1640748 27.2236957 94.7481299 27.8044565 95.332185 28.4021739 95.899311 29.9876087 94.3122047 31.5730435 92.7293307 33.1584783 91.1422244 34.7396739 89.5593504 35.2441304 90.0629921 35.7358696 90.5708661 36.236087 91.0745079 36.7405435 91.5781496 35.1551087 93.1610236 33.573913 94.7438976 31.9884783 96.3310039"></polygon>
                <polygon id="Path" fill="#FFE500" fill-rule="nonzero" points="30.3606522 96.838878 29.8604348 97.3425197 29.3559783 97.8461614 28.8515217 98.3498031 28.3513043 98.8534449 27.2618478 97.765748 26.1766304 96.6780512 25.0871739 95.5903543 24.0019565 94.5026575 24.5021739 94.003248 25.0108696 93.4996063 25.5153261 92.9959646 26.0197826 92.4923228 26.6005435 93.076378 27.1855435 93.6604331 27.7705435 94.2444882 28.3555435 94.8285433 29.9367391 93.241437 31.5221739 91.658563 33.1076087 90.075689 34.6930435 88.4885827 35.1847826 88.9922244 35.6892391 89.4958661 36.1936957 89.9995079 36.693913 90.5031496 35.1127174 92.0860236 33.5272826 93.6688976 31.9418478 95.2560039"></polygon>
                <path d="M300.978261,168.584547 C301.63614,168.584547 302.169457,168.052092 302.169457,167.395276 L302.169457,85.9873031 L241.867826,85.9873031 C241.578884,85.9873031 241.301777,86.1018995 241.097464,86.3058822 C240.893151,86.5098649 240.77837,86.7865249 240.77837,87.075 L240.77837,133.833268 L212.672935,133.833268 C210.35514,133.833268 208.476196,135.709177 208.476196,138.023228 L208.476196,168.584547 L300.978261,168.584547 Z" id="Path" fill="#A1B5BF" fill-rule="nonzero" style="mix-blend-mode: multiply;"></path>
                <rect id="Rectangle" fill="#356075" fill-rule="nonzero" x="249.795" y="191.438878" width="114.452283" height="10.2463583"></rect>
                <path d="M257.501739,90.3084567 L356.354022,90.3084567 C356.659828,90.3084567 356.953109,90.4297494 357.169347,90.6456377 C357.385584,90.861526 357.507065,91.1543335 357.507065,91.4596457 L357.507065,182.54685 L256.344449,182.54685 L256.344449,91.463878 C256.343325,91.1570983 256.464889,90.8625574 256.682167,90.6456299 C256.899446,90.4287024 257.194463,90.3073346 257.501739,90.3084567 Z" id="Path" fill="#FFFFFF" fill-rule="nonzero"></path>
                <path d="M257.501739,126.274402 L356.354022,126.274402 C356.659828,126.274402 356.953109,126.395694 357.169347,126.611583 C357.385584,126.827471 357.507065,127.120278 357.507065,127.425591 L357.507065,146.860236 L256.344449,146.860236 L256.344449,127.429823 C256.343325,127.123043 256.464889,126.828502 256.682167,126.611575 C256.899446,126.394647 257.194463,126.273279 257.501739,126.274402 Z" id="Path" fill="url(#linearGradient-3)" fill-rule="nonzero" style="mix-blend-mode: multiply;"></path>
                <path d="M385.616739,138.158659 L228.239022,138.158659 C227.126367,138.157538 226.058899,138.598037 225.271736,139.383136 C224.484572,140.168234 224.042283,141.233532 224.042283,142.34439 L224.042283,197.584154 C224.042283,199.898205 225.921227,201.774114 228.239022,201.774114 L253.050652,201.774114 L253.050652,194.016339 L358.206522,194.016339 L358.206522,201.774114 L385.6125,201.774114 C386.725155,201.774114 387.792177,201.332539 388.578545,200.546647 C389.364913,199.760755 389.805002,198.695011 389.805002,197.584154 L389.805002,142.34439 C389.805002,140.034328 387.930537,138.160997 385.616739,138.158659 Z" id="Path" fill="#DFE4E6" fill-rule="nonzero"></path>
                <ellipse id="Oval" fill="#023852" fill-rule="nonzero" cx="377.46913" cy="175.394291" rx="4.66304348" ry="4.65551181"></ellipse>
                <ellipse id="Oval" fill="#26A8E0" fill-rule="nonzero" cx="377.46913" cy="162.985236" rx="3.44641304" ry="3.44084646"></ellipse>
                <polygon id="Path" fill="#023852" fill-rule="nonzero" points="253.143913 194.016339 253.143913 201.774114 262.830326 194.016339"></polygon>
                <polygon id="Path" fill="#023852" fill-rule="nonzero" points="358.295543 194.016339 358.295543 201.774114 348.60913 194.016339"></polygon>
                <rect id="Rectangle" fill="#E6EBEE" fill-rule="nonzero" x="265.119457" y="109.239469" width="83.6083696" height="1"></rect>
                <rect id="Rectangle" fill="#E6EBEE" fill-rule="nonzero" x="265.119457" y="113.391339" width="83.6083696" height="1"></rect>
                <rect id="Rectangle" fill="#E6EBEE" fill-rule="nonzero" x="265.119457" y="117.543209" width="83.6083696" height="1"></rect>
                <rect id="Rectangle" fill="#E6EBEE" fill-rule="nonzero" x="265.119457" y="121.690846" width="83.6083696" height="1"></rect>
                <rect id="Rectangle" fill="#E6EBEE" fill-rule="nonzero" x="265.119457" y="125.842717" width="83.6083696" height="1"></rect>
                <rect id="Rectangle" fill="#E6EBEE" fill-rule="nonzero" x="265.119457" y="129.994587" width="83.6083696" height="1"></rect>
            </g>
        </g>
    </g>
</svg>