<?xml version="1.0" encoding="UTF-8"?>
<svg width="440px" height="330px" viewBox="0 0 440 330" version="1.1" xmlns="http://www.w3.org/2000/svg" xmlns:xlink="http://www.w3.org/1999/xlink">
    <title>Graphic elements / Icons / Rich icons / Marketplace filter</title>
    <g id="Graphic-elements-/-Icons-/-Rich-icons-/-Marketplace-filter" stroke="none" stroke-width="1" fill="none" fill-rule="evenodd">
        <g id="Marketplace-Filter" transform="translate(19.000000, 37.000000)" fill-rule="nonzero">
            <path d="M236,274.6 L236,236.09 L166,236.09 L166,274.6 C165.950215,275.223108 165.853271,275.841546 165.71,276.45 C165.407503,277.865845 164.916458,279.234717 164.25,280.52 C162.350764,284.312657 158.397261,286.632254 154.16,286.44 L247.89,286.44 C243.650808,286.640074 239.693352,284.318158 237.8,280.52 C237.126582,279.236765 236.631991,277.867387 236.33,276.45 C236.179414,275.841266 236.069175,275.223256 236,274.6 L236,274.6 Z" id="Path" fill="#9DADB7"></path>
            <path d="M260.86,286.44 L138.26,286.44 C137.497401,286.440513 136.742604,286.593513 136.04,286.89 C135.365925,287.180344 134.752052,287.594114 134.23,288.11 C133.171939,289.173824 132.572483,290.609648 132.56,292.11 L266.560014,292.11 C266.561673,291.347183 266.408586,290.591954 266.11,289.89 C265.536792,288.538856 264.461144,287.463208 263.11,286.89 C262.398758,286.587409 261.632912,286.43424 260.86,286.44 Z" id="Path" fill="#CED6DB"></path>
            <polygon id="Path" fill="#9DADB7" opacity="0.2" style="mix-blend-mode: multiply;" points="165.94 248.76 183.46 248.76 200.98 248.76 218.5 248.76 236.02 248.76 236.02 254.41 236.02 260.06 236.02 265.71 236.02 271.37 218.5 271.37 200.98 271.37 183.46 271.37 165.94 271.37 165.94 265.71 165.94 260.06 165.94 254.41"></polygon>
            <path d="M395.47,250.300046 L6.5,250.300046 C5.76108005,250.300046 5.02991358,250.149346 4.35,249.86 C3.69470412,249.572202 3.10065147,249.161457 2.6,248.65 C2.09167286,248.14148 1.69043582,247.536224 1.42,246.87 C1.12956566,246.176398 0.98,245.431954 0.98,244.68 L0.98,6.52 C0.98,5.77138582 1.13060868,5.03041797 1.42,4.34 C1.96676095,2.99530973 3.01859098,1.91835065 4.35,1.34 C5.02773869,1.04262908 5.7598927,0.889997702 6.5,0.889997702 L395.5,0.889997702 C396.23689,0.889997702 396.965795,1.04258765 397.64,1.34 C398.299888,1.62033892 398.897977,2.02812677 399.4,2.54 C399.905339,3.05478397 400.306067,3.66266896 400.58,4.33 C400.866219,5.02104056 401.010059,5.76203433 401.010059,6.51 L401.010059,244.68 C401.010059,245.431304 400.867264,246.175774 400.58,246.87 C400.306059,247.534368 399.905254,248.138974 399.4,248.65 C398.895754,249.161748 398.298378,249.572444 397.64,249.86 C396.954309,250.153331 396.215792,250.303076 395.47,250.300046 Z" id="Path" fill="#023852"></path>
            <polygon id="Path" fill="#0099DA" points="14.09 227.14 108.13 227.14 202.17 227.14 296.21 227.14 390.25 227.14 390.25 173.57 390.25 119.99 390.25 66.42 390.25 12.85 296.21 12.85 202.17 12.85 108.13 12.85 14.09 12.85 14.09 66.42 14.09 119.99 14.09 173.57"></polygon>
            <path d="M207.43,238 C207.431973,237.137405 207.258455,236.283424 206.92,235.49 C206.591707,234.726674 206.123676,234.03141 205.54,233.44 C203.6955,231.594821 200.921053,231.042552 198.510562,232.04075 C196.100071,233.038949 194.528323,235.391003 194.528323,238 C194.528323,240.608997 196.100071,242.961051 198.510562,243.95925 C200.921053,244.957448 203.6955,244.405179 205.54,242.56 C206.118578,241.983453 206.586339,241.305539 206.92,240.56 C207.26517,239.751106 207.438827,238.879416 207.43,238 Z" id="Path" fill="#4E7486"></path>
            <polygon id="Path" fill="#4E7486" points="390.26 27.23 296.22 27.23 202.18 27.23 108.14 27.23 14.1 27.23 14.1 23.65 14.1 20.07 14.1 16.5 14.1 12.92 108.14 12.92 202.18 12.92 296.22 12.92 390.26 12.92 390.26 16.5 390.26 20.07 390.26 23.65"></polygon>
            <polygon id="Path" fill="#EEF0F1" points="80.03 51.76 67.16 51.76 54.28 51.76 41.41 51.76 28.53 51.76 28.53 50.85 28.53 49.93 28.53 49.02 28.53 48.1 41.41 48.1 54.28 48.1 67.16 48.1 80.03 48.1 80.03 49.02 80.03 49.93 80.03 50.85"></polygon>
            <polygon id="Path" fill="#EEF0F1" points="121.15 74.49 98 74.49 74.84 74.49 51.69 74.49 28.53 74.49 28.53 70.31 28.53 66.13 28.53 61.95 28.53 57.77 51.69 57.77 74.84 57.77 98 57.77 121.15 57.77 121.15 61.95 121.15 66.13 121.15 70.31"></polygon>
            <polygon id="Path" fill="#0099DA" points="110.09 68.5 109.17 67.58 108.25 66.66 107.33 65.74 106.41 64.82 106.67 64.56 106.93 64.3 107.19 64.04 107.45 63.78 108.11 64.44 108.77 65.1 109.43 65.75 110.09 66.41 110.75 65.75 111.41 65.1 112.07 64.44 112.73 63.78 112.99 64.04 113.25 64.3 113.51 64.56 113.77 64.82 112.85 65.74 111.93 66.66 111.01 67.58"></polygon>
            <polygon id="Path" fill="#FFFFFF" points="41.21 117.54 31.11 117.54 31.11 107.44 41.21 107.44"></polygon>
            <polygon id="Path" fill="#FFFFFF" points="41.21 132.09 31.11 132.09 31.11 122 41.21 122 41.21 132.1"></polygon>
            <polygon id="Path" fill="#FFFFFF" points="41.21 146.64 31.11 146.64 31.11 136.54 41.21 136.54"></polygon>
            <polygon id="Path" fill="#66C3E9" points="88.05 113.93 77.53 113.93 67.01 113.93 56.48 113.93 45.96 113.93 45.96 113.34 45.96 112.75 45.96 112.16 45.96 111.57 56.48 111.57 67.01 111.57 77.53 111.57 88.05 111.57 88.05 112.16 88.05 112.75 88.05 113.34"></polygon>
            <polygon id="Path" fill="#66C3E9" points="88.05 128.39 77.53 128.39 67.01 128.39 56.48 128.39 45.96 128.39 45.96 127.8 45.96 127.21 45.96 126.63 45.96 126.04 56.48 126.04 67.01 126.04 77.53 126.04 88.05 126.04 88.05 126.63 88.05 127.21 88.05 127.8"></polygon>
            <polygon id="Path" fill="#66C3E9" points="88.05 142.85 77.53 142.85 67.01 142.85 56.48 142.85 45.96 142.85 45.96 142.26 45.96 141.68 45.96 141.09 45.96 140.5 56.48 140.5 67.01 140.5 77.53 140.5 88.05 140.5 88.05 141.09 88.05 141.68 88.05 142.26"></polygon>
            <polygon id="Path" fill="#FFFFFF" points="41.21 177.62 31.11 177.62 31.11 167.52 41.21 167.52"></polygon>
            <polygon id="Path" fill="#FFFFFF" points="41.21 192.17 31.11 192.17 31.11 182.07 41.21 182.07"></polygon>
            <polygon id="Path" fill="#FFFFFF" points="41.21 206.72 31.11 206.72 31.11 196.62 41.21 196.62"></polygon>
            <polygon id="Path" fill="#66C3E9" points="88.05 174.01 77.53 174.01 67.01 174.01 56.48 174.01 45.96 174.01 45.96 173.42 45.96 172.83 45.96 172.24 45.96 171.65 56.48 171.65 67.01 171.65 77.53 171.65 88.05 171.65 88.05 172.24 88.05 172.83 88.05 173.42"></polygon>
            <polygon id="Path" fill="#66C3E9" points="88.05 188.47 77.53 188.47 67.01 188.47 56.48 188.47 45.96 188.47 45.96 187.88 45.96 187.29 45.96 186.71 45.96 186.12 56.48 186.12 67.01 186.12 77.53 186.12 88.05 186.12 88.05 186.71 88.05 187.29 88.05 187.88"></polygon>
            <polygon id="Path" fill="#66C3E9" points="88.05 202.93 77.53 202.93 67.01 202.93 56.48 202.93 45.96 202.93 45.96 202.35 45.96 201.76 45.96 201.17 45.96 200.58 56.48 200.58 67.01 200.58 77.53 200.58 88.05 200.58 88.05 201.17 88.05 201.76 88.05 202.35"></polygon>
            <polygon id="Path" fill="#FFFFFF" points="149.9 117.54 139.8 117.54 139.8 107.44 149.9 107.44"></polygon>
            <polygon id="Path" fill="#FFFFFF" points="149.9 132.09 139.8 132.09 139.8 122 149.9 122 149.9 132.1"></polygon>
            <polygon id="Path" fill="#FFFFFF" points="149.9 146.64 139.8 146.64 139.8 136.54 149.9 136.54"></polygon>
            <polygon id="Path" fill="#66C3E9" points="196.74 113.93 186.22 113.93 175.7 113.93 165.18 113.93 154.66 113.93 154.66 113.34 154.66 112.75 154.66 112.16 154.66 111.57 165.18 111.57 175.7 111.57 186.22 111.57 196.74 111.57 196.74 112.16 196.74 112.75 196.74 113.34"></polygon>
            <polygon id="Path" fill="#66C3E9" points="196.74 128.39 186.22 128.39 175.7 128.39 165.18 128.39 154.66 128.39 154.66 127.8 154.66 127.21 154.66 126.63 154.66 126.04 165.18 126.04 175.7 126.04 186.22 126.04 196.74 126.04 196.74 126.63 196.74 127.21 196.74 127.8"></polygon>
            <polygon id="Path" fill="#66C3E9" points="196.74 142.85 186.22 142.85 175.7 142.85 165.18 142.85 154.66 142.85 154.66 142.26 154.66 141.68 154.66 141.09 154.66 140.5 165.18 140.5 175.7 140.5 186.22 140.5 196.74 140.5 196.74 141.09 196.74 141.68 196.74 142.26"></polygon>
            <polygon id="Path" fill="#FFFFFF" points="149.9 177.62 139.8 177.62 139.8 167.52 149.9 167.52"></polygon>
            <polygon id="Path" fill="#FFFFFF" points="149.9 192.17 139.8 192.17 139.8 182.07 149.9 182.07"></polygon>
            <polygon id="Path" fill="#FFFFFF" points="149.9 206.72 139.8 206.72 139.8 196.62 149.9 196.62"></polygon>
            <polygon id="Path" fill="#66C3E9" points="196.74 174.01 186.22 174.01 175.7 174.01 165.18 174.01 154.66 174.01 154.66 173.42 154.66 172.83 154.66 172.24 154.66 171.65 165.18 171.65 175.7 171.65 186.22 171.65 196.74 171.65 196.74 172.24 196.74 172.83 196.74 173.42"></polygon>
            <polygon id="Path" fill="#66C3E9" points="196.74 188.47 186.22 188.47 175.7 188.47 165.18 188.47 154.66 188.47 154.66 187.88 154.66 187.29 154.66 186.71 154.66 186.12 165.18 186.12 175.7 186.12 186.22 186.12 196.74 186.12 196.74 186.71 196.74 187.29 196.74 187.88"></polygon>
            <polygon id="Path" fill="#66C3E9" points="196.74 202.93 186.22 202.93 175.7 202.93 165.18 202.93 154.66 202.93 154.66 202.35 154.66 201.76 154.66 201.17 154.66 200.58 165.18 200.58 175.7 200.58 186.22 200.58 196.74 200.58 196.74 201.17 196.74 201.76 196.74 202.35"></polygon>
            <polygon id="Path" fill="#FFFFFF" points="258.59 117.54 248.5 117.54 248.5 107.44 258.59 107.44"></polygon>
            <polygon id="Path" fill="#FFFFFF" points="258.59 132.09 248.5 132.09 248.5 122 258.59 122 258.59 132.1"></polygon>
            <polygon id="Path" fill="#FFFFFF" points="258.59 146.64 248.5 146.64 248.5 136.54 258.59 136.54"></polygon>
            <polygon id="Path" fill="#66C3E9" points="305.43 113.93 294.91 113.93 284.39 113.93 273.87 113.93 263.35 113.93 263.35 113.34 263.35 112.75 263.35 112.16 263.35 111.57 273.87 111.57 284.39 111.57 294.91 111.57 305.43 111.57 305.43 112.16 305.43 112.75 305.43 113.34"></polygon>
            <polygon id="Path" fill="#66C3E9" points="305.43 128.39 294.91 128.39 284.39 128.39 273.87 128.39 263.35 128.39 263.35 127.8 263.35 127.21 263.35 126.63 263.35 126.04 273.87 126.04 284.39 126.04 294.91 126.04 305.43 126.04 305.43 126.63 305.43 127.21 305.43 127.8"></polygon>
            <polygon id="Path" fill="#66C3E9" points="305.43 142.85 294.91 142.85 284.39 142.85 273.87 142.85 263.35 142.85 263.35 142.26 263.35 141.68 263.35 141.09 263.35 140.5 273.87 140.5 284.39 140.5 294.91 140.5 305.43 140.5 305.43 141.09 305.43 141.68 305.43 142.26"></polygon>
            <polygon id="Path" fill="#FFFFFF" points="258.59 177.62 248.5 177.62 248.5 167.52 258.59 167.52"></polygon>
            <polygon id="Path" fill="#FFFFFF" points="258.59 192.17 248.5 192.17 248.5 182.07 258.59 182.07"></polygon>
            <polygon id="Path" fill="#FFFFFF" points="258.59 206.72 248.5 206.72 248.5 196.62 258.59 196.62"></polygon>
            <polygon id="Path" fill="#66C3E9" points="305.43 174.01 294.91 174.01 284.39 174.01 273.87 174.01 263.35 174.01 263.35 173.42 263.35 172.83 263.35 172.24 263.35 171.65 273.87 171.65 284.39 171.65 294.91 171.65 305.43 171.65 305.43 172.24 305.43 172.83 305.43 173.42"></polygon>
            <polygon id="Path" fill="#66C3E9" points="305.43 188.47 294.91 188.47 284.39 188.47 273.87 188.47 263.35 188.47 263.35 187.88 263.35 187.29 263.35 186.71 263.35 186.12 273.87 186.12 284.39 186.12 294.91 186.12 305.43 186.12 305.43 186.71 305.43 187.29 305.43 187.88"></polygon>
            <polygon id="Path" fill="#66C3E9" points="305.43 202.93 294.91 202.93 284.39 202.93 273.87 202.93 263.35 202.93 263.35 202.35 263.35 201.76 263.35 201.17 263.35 200.58 273.87 200.58 284.39 200.58 294.91 200.58 305.43 200.58 305.43 201.17 305.43 201.76 305.43 202.35"></polygon>
            <path d="M14.18,12.92 L28.18,26.46 L42.22,40 L56.22,53.54 L70.22,67.07 L111.73,107.07 C125.57,120.403333 139.416667,133.736667 153.27,147.07 L194.81,187.07 L236.36,227.07 L390.18,227.07 L390.18,12.92 L14.18,12.92 Z" id="Path" fill="#FFFFFF" opacity="0.2"></path>
        </g>
    </g>
</svg>