<?xml version="1.0" encoding="UTF-8"?>
<svg width="440px" height="330px" viewBox="0 0 440 330" version="1.1" xmlns="http://www.w3.org/2000/svg" xmlns:xlink="http://www.w3.org/1999/xlink">
    <title>Graphic elements / Icons / Rich icons / Marketplace / Practice-Smart-City</title>
    <defs>
        <linearGradient x1="49.3296694%" y1="99.1530712%" x2="50.6706754%" y2="0.846928769%" id="linearGradient-1">
            <stop stop-color="#FFFFFF" stop-opacity="0" offset="0%"></stop>
            <stop stop-color="#FBFBFC" stop-opacity="0.04" offset="11%"></stop>
            <stop stop-color="#EFF2F3" stop-opacity="0.16" offset="28%"></stop>
            <stop stop-color="#DCE2E6" stop-opacity="0.35" offset="48%"></stop>
            <stop stop-color="#C2CCD2" stop-opacity="0.62" offset="71%"></stop>
            <stop stop-color="#A1B1BA" stop-opacity="0.96" offset="97%"></stop>
            <stop stop-color="#9DADB7" offset="100%"></stop>
        </linearGradient>
        <linearGradient x1="49.420518%" y1="99.0660698%" x2="50.579482%" y2="0.933930225%" id="linearGradient-2">
            <stop stop-color="#FFFFFF" stop-opacity="0" offset="0%"></stop>
            <stop stop-color="#FBFBFC" stop-opacity="0.04" offset="11%"></stop>
            <stop stop-color="#EFF2F3" stop-opacity="0.16" offset="28%"></stop>
            <stop stop-color="#DCE2E6" stop-opacity="0.35" offset="48%"></stop>
            <stop stop-color="#C2CCD2" stop-opacity="0.62" offset="71%"></stop>
            <stop stop-color="#A1B1BA" stop-opacity="0.96" offset="97%"></stop>
            <stop stop-color="#9DADB7" offset="100%"></stop>
        </linearGradient>
    </defs>
    <g id="Graphic-elements-/-Icons-/-Rich-icons-/-Marketplace-/-Practice-Smart-City" stroke="none" stroke-width="1" fill="none" fill-rule="evenodd">
        <g id="Smart-City" transform="translate(0.000000, 131.000000)">
            <g id="Midlayer" transform="translate(61.859410, 0.652433)" stroke="#023852">
                <polyline id="Path" stroke-width="0.85" points="0.0200202888 82.1747776 15.2314357 82.1747776 15.2314357 71.9546878 27.7681406 71.9546878 27.7681406 59.0790467 37.2097088 54.2178353 46.9876179 59.0790467 46.9876179 74.5107056 50.7914727 78.2889935 58.6033894 78.2889935 58.6033894 72.7708617 63.5363886 72.7708617 63.5363886 59.485143 67.027927 59.485143 67.027927 42.5206698 77.2102459 34.8725231 86.7599236 42.5206698 86.7599236 59.8952207 89.2264232 59.8952207 89.2264232 77.2697715 97.2425468 77.2697715 97.2425468 54.3770888 99.0243525 54.3770888 102.087457 51.383124 106.243669 51.383124 108.99846 54.4288462 110.812299 54.3770888 110.812299 68.0689037 115.741294 68.0689037 115.741294 74.2041427 120.674293 74.2041427 120.674293 45.7933281 128.898628 45.7933281 128.898628 64.3941305 137.943794 64.3941305 141.435332 67.8658556 141.435332 76.04352 149.863874 76.04352 149.863874 34.3469867 154.796873 34.3469867 154.796873 24.1308782 163.017204 24.1308782 163.017204 48.8589569 165.896121 48.8589569 165.896121 75.0203166 171.241538 69.7052329 171.241538 64.5971786 184.498974 64.5971786 184.498974 55.2967774 181.515951 52.3346634 181.515951 48.8589569 191.381949 48.8589569 194.05666 46.2034057 212.555406 46.2034057 215.021906 48.6559088 225.708736 48.6559088 225.708736 52.7407596 223.03803 55.4002922 223.03803 68.5824961 226.841884 68.5824961 230.02511 74.4071908 240.163385 74.4071908 240.163385 63.713322 250.78615 63.713322 250.78615 53.1349119 263.839378 53.1349119 270.542171 46.4661739 277.765491 53.6445229 277.765491 68.1047357 280.796563 71.1186072 285.42125 71.1186072 290.250143 75.9240799 290.250143 82.6684633 305.665766 82.6684633 305.665766 76.055464 313.125325 68.6422161 320.260556 75.7329758 320.260556 81.9000654 324.937296 81.9000654 324.937296 53.1150052 339.740297 53.1150052 339.740297 61.9894035 349.974669 61.9894035 349.974669 82.7879034 364.993889 82.7879034"></polyline>
                <rect id="Rectangle" stroke-width="0.85" x="35.6521303" y="60.9224054" width="3.11115288" height="3.09349817"></rect>
                <rect id="Rectangle" stroke-width="0.85" x="35.6521303" y="67.3562445" width="3.11115288" height="3.09349817"></rect>
                <rect id="Rectangle" stroke-width="0.85" x="341.918505" y="67.3562445" width="3.11115288" height="3.09349817"></rect>
                <path d="M182.436884,13.2737746 C185.849201,9.76985411 190.544778,7.7917702 195.450072,7.7917702 C200.355365,7.7917702 205.050942,9.76985411 208.463259,13.2737746" id="Path"></path>
                <path d="M213.864733,7.90693354 C209.019573,2.97584366 202.379289,0.195849562 195.446068,0.195849562 C188.512846,0.195849562 181.872563,2.97584366 177.027402,7.90693354" id="Path"></path>
                <path d="M187.510025,18.3141462 C189.574476,16.1383789 192.44974,14.905152 195.45808,14.905152 C198.46642,14.905152 201.341683,16.1383789 203.406134,18.3141462" id="Path"></path>
                <path d="M208.463259,13.2737746 C205.050942,9.76985411 200.355365,7.7917702 195.450072,7.7917702 C190.544778,7.7917702 185.849201,9.76985411 182.436884,13.2737746" id="Path"></path>
                <path d="M203.406134,18.3141462 C201.342133,16.1434996 198.470375,14.9135829 195.466088,14.9135829 C192.461801,14.9135829 189.590042,16.1434996 187.526041,18.3141462" id="Path"></path>
                <path d="M34.7712376,13.2737746 C38.1835545,9.76985411 42.8791321,7.7917702 47.7844253,7.7917702 C52.6897186,7.7917702 57.3852962,9.76985411 60.7976131,13.2737746" id="Path"></path>
                <path d="M66.199087,7.90693354 C61.3539262,2.97584366 54.713643,0.195849562 47.7804213,0.195849562 C40.8471996,0.195849562 34.2069163,2.97584366 29.3617556,7.90693354" id="Path"></path>
                <path d="M39.8443788,18.3141462 C41.9090848,16.1432839 44.7814984,14.9132911 47.7864274,14.9132911 C50.7913563,14.9132911 53.66377,16.1432839 55.728476,18.3141462" id="Path"></path>
                <path d="M60.7976131,13.2737746 C57.3852962,9.76985411 52.6897186,7.7917702 47.7844253,7.7917702 C42.8791321,7.7917702 38.1835545,9.76985411 34.7712376,13.2737746" id="Path"></path>
                <path d="M55.728476,18.3141462 C53.66377,16.1432839 50.7913563,14.9132911 47.7864274,14.9132911 C44.7814984,14.9132911 41.9090848,16.1432839 39.8443788,18.3141462" id="Path"></path>
                <path d="M330.10253,13.2737746 C333.514847,9.76985411 338.210425,7.7917702 343.115718,7.7917702 C348.021011,7.7917702 352.716589,9.76985411 356.128906,13.2737746" id="Path"></path>
                <path d="M361.53038,7.90693354 C356.685219,2.97584366 350.044935,0.195849562 343.111714,0.195849562 C336.178492,0.195849562 329.538209,2.97584366 324.693048,7.90693354" id="Path"></path>
                <path d="M335.171667,18.3141462 C337.236373,16.1432839 340.108787,14.9132911 343.113716,14.9132911 C346.118645,14.9132911 348.991058,16.1432839 351.055764,18.3141462" id="Path"></path>
                <path d="M356.128906,13.2737746 C352.716589,9.76985411 348.021011,7.7917702 343.115718,7.7917702 C338.210425,7.7917702 333.514847,9.76985411 330.10253,13.2737746" id="Path"></path>
                <path d="M351.055764,18.3141462 C348.991058,16.1432839 346.118645,14.9132911 343.113716,14.9132911 C340.108787,14.9132911 337.236373,16.1432839 335.171667,18.3141462" id="Path"></path>
            </g>
            <g id="Ilus" transform="translate(0.000000, 32.579871)" fill-rule="nonzero">
                <rect id="Rectangle" fill="#A5B1B8" x="151.255009" y="75.2484481" width="42.052459" height="89.9139552"></rect>
                <rect id="Rectangle" fill="#BEC7CC" x="154.384699" y="71.6392175" width="32.0422587" height="3.60923062"></rect>
                <rect id="Rectangle" fill="#D3D9DC" x="151.255009" y="82.7917401" width="21.8918033" height="2.87134347"></rect>
                <rect id="Rectangle" fill="#D3D9DC" x="151.255009" y="91.6664372" width="21.8918033" height="2.87134347"></rect>
                <rect id="Rectangle" fill="#D3D9DC" x="151.255009" y="100.545144" width="21.8918033" height="2.87134347"></rect>
                <rect id="Rectangle" fill="#D3D9DC" x="151.255009" y="109.423852" width="21.8918033" height="2.87134347"></rect>
                <rect id="Rectangle" fill="#D3D9DC" x="151.255009" y="118.302559" width="21.8918033" height="2.87134347"></rect>
                <rect id="Rectangle" fill="#D3D9DC" x="151.255009" y="127.181266" width="21.8918033" height="2.87134347"></rect>
                <rect id="Rectangle" fill="#D3D9DC" x="151.255009" y="136.059974" width="21.8918033" height="2.87134347"></rect>
                <rect id="Rectangle" fill="#D3D9DC" x="151.255009" y="144.934671" width="21.8918033" height="2.87134347"></rect>
                <rect id="Rectangle" fill="#D3D9DC" x="151.255009" y="153.813378" width="21.8918033" height="2.87134347"></rect>
                <rect id="Rectangle" fill="#023852" x="32.6313297" y="0.0882256373" width="47.2459016" height="165.322814"></rect>
                <rect id="Rectangle" fill="#EBEEEF" x="79.8772313" y="0.0882256373" width="10.410929" height="165.322814"></rect>
                <g id="Group" opacity="0.6" transform="translate(32.459016, 4.812307)" fill="#507688">
                    <rect id="Rectangle" x="0.172313297" y="0.248635887" width="47.2459016" height="1.43567173"></rect>
                    <rect id="Rectangle" x="0.172313297" y="6.62895357" width="47.2459016" height="1.43567173"></rect>
                    <rect id="Rectangle" x="0.172313297" y="13.0132815" width="47.2459016" height="1.43567173"></rect>
                    <rect id="Rectangle" x="0.172313297" y="19.3935992" width="47.2459016" height="1.43567173"></rect>
                    <rect id="Rectangle" x="0.172313297" y="25.7739169" width="47.2459016" height="1.43567173"></rect>
                    <rect id="Rectangle" x="0.172313297" y="32.1582448" width="47.2459016" height="1.43567173"></rect>
                    <rect id="Rectangle" x="0.172313297" y="38.5385625" width="47.2459016" height="1.43567173"></rect>
                    <rect id="Rectangle" x="0.172313297" y="44.9228904" width="47.2459016" height="1.43567173"></rect>
                    <rect id="Rectangle" x="0.172313297" y="51.3032081" width="47.2459016" height="1.43567173"></rect>
                    <rect id="Rectangle" x="0.172313297" y="57.687536" width="47.2459016" height="1.43567173"></rect>
                    <rect id="Rectangle" x="0.172313297" y="64.0678537" width="47.2459016" height="1.43567173"></rect>
                    <rect id="Rectangle" x="0.172313297" y="70.4481714" width="47.2459016" height="1.43567173"></rect>
                    <rect id="Rectangle" x="0.172313297" y="76.8324993" width="47.2459016" height="1.43567173"></rect>
                    <rect id="Rectangle" x="0.172313297" y="83.212817" width="47.2459016" height="1.43567173"></rect>
                    <rect id="Rectangle" x="0.172313297" y="89.5971449" width="47.2459016" height="1.43567173"></rect>
                    <rect id="Rectangle" x="0.172313297" y="95.9774626" width="47.2459016" height="1.43567173"></rect>
                    <rect id="Rectangle" x="0.172313297" y="102.35778" width="47.2459016" height="1.43567173"></rect>
                    <rect id="Rectangle" x="0.172313297" y="108.742108" width="47.2459016" height="1.43567173"></rect>
                    <rect id="Rectangle" x="0.172313297" y="115.122426" width="47.2459016" height="1.43567173"></rect>
                    <rect id="Rectangle" x="0.172313297" y="121.506754" width="47.2459016" height="1.43567173"></rect>
                    <rect id="Rectangle" x="0.172313297" y="127.887072" width="47.2459016" height="1.43567173"></rect>
                    <rect id="Rectangle" x="0.172313297" y="134.271399" width="47.2459016" height="1.43567173"></rect>
                    <rect id="Rectangle" x="0.172313297" y="140.651717" width="47.2459016" height="1.43567173"></rect>
                    <rect id="Rectangle" x="0.172313297" y="147.032035" width="47.2459016" height="1.43567173"></rect>
                    <rect id="Rectangle" x="0.172313297" y="153.416363" width="47.2459016" height="1.43567173"></rect>
                </g>
                <rect id="Rectangle" fill="#023852" opacity="0.36" style="mix-blend-mode: multiply;" x="32.6313297" y="0.0882256373" width="21.1183971" height="165.322814"></rect>
                <rect id="Rectangle" fill="#FFFFFF" opacity="0.2" x="56.610929" y="0.0882256373" width="3.83497268" height="165.322814"></rect>
                <rect id="Rectangle" fill="#FFFFFF" opacity="0.2" x="63.5555556" y="0.0882256373" width="8.3992714" height="165.322814"></rect>
                <rect id="Rectangle" fill="#FFE500" x="83.8284153" y="3.54907677" width="4.04735883" height="9.54842011"></rect>
                <rect id="Rectangle" fill="url(#linearGradient-1)" style="mix-blend-mode: multiply;" x="179.474317" y="75.2725096" width="6.96466302" height="89.9660885"></rect>
                <rect id="Rectangle" fill="#A5B1B8" style="mix-blend-mode: multiply;" x="32.2185792" y="117.701021" width="78.2382514" height="8.19696376"></rect>
                <rect id="Rectangle" fill="#A5B1B8" style="mix-blend-mode: multiply;" x="151.419308" y="117.701021" width="42.1846995" height="4.70403057"></rect>
                <rect id="Rectangle" fill="#D2D8DC" x="90.2921676" y="61.7058128" width="20.4972678" height="103.701216"></rect>
                <rect id="Rectangle" fill="#26A6DD" x="90.2520947" y="75.1762635" width="20.5373406" height="1.8607589"></rect>
                <rect id="Rectangle" fill="#26A6DD" x="90.2520947" y="79.2827659" width="20.5373406" height="1.8607589"></rect>
                <rect id="Rectangle" fill="#26A6DD" x="90.2520947" y="83.3892683" width="20.5373406" height="1.8607589"></rect>
                <rect id="Rectangle" fill="#26A6DD" x="90.2520947" y="87.4917604" width="20.5373406" height="1.8607589"></rect>
                <rect id="Rectangle" fill="#26A6DD" x="90.2520947" y="91.5982628" width="20.5373406" height="1.8607589"></rect>
                <rect id="Rectangle" fill="#26A6DD" x="90.2520947" y="95.7047652" width="20.5373406" height="1.8607589"></rect>
                <rect id="Rectangle" fill="#26A6DD" x="90.2520947" y="99.8112676" width="20.5373406" height="1.8607589"></rect>
                <rect id="Rectangle" fill="#26A6DD" x="90.2520947" y="103.91777" width="20.5373406" height="1.8607589"></rect>
                <rect id="Rectangle" fill="#26A6DD" x="90.2520947" y="108.024272" width="20.5373406" height="1.8607589"></rect>
                <rect id="Rectangle" fill="#26A6DD" x="90.2520947" y="112.130775" width="20.5373406" height="1.8607589"></rect>
                <rect id="Rectangle" fill="#26A6DD" x="90.2520947" y="116.237277" width="20.5373406" height="1.8607589"></rect>
                <rect id="Rectangle" fill="#26A6DD" x="90.2520947" y="120.34378" width="20.5373406" height="1.8607589"></rect>
                <rect id="Rectangle" fill="#26A6DD" x="90.2520947" y="124.450282" width="20.5373406" height="1.8607589"></rect>
                <rect id="Rectangle" fill="#26A6DD" x="90.2520947" y="128.556784" width="20.5373406" height="1.8607589"></rect>
                <rect id="Rectangle" fill="#26A6DD" x="90.2520947" y="132.663287" width="20.5373406" height="1.8607589"></rect>
                <rect id="Rectangle" fill="#26A6DD" x="90.2520947" y="136.769789" width="20.5373406" height="1.8607589"></rect>
                <rect id="Rectangle" fill="#26A6DD" x="90.2520947" y="140.876292" width="20.5373406" height="1.8607589"></rect>
                <rect id="Rectangle" fill="#26A6DD" x="90.2520947" y="144.982794" width="20.5373406" height="1.8607589"></rect>
                <rect id="Rectangle" fill="#26A6DD" x="90.2520947" y="149.085286" width="20.5373406" height="1.8607589"></rect>
                <rect id="Rectangle" fill="#26A6DD" x="90.2520947" y="153.191788" width="20.5373406" height="1.8607589"></rect>
                <rect id="Rectangle" fill="#26A6DD" x="90.2520947" y="157.298291" width="20.5373406" height="1.8607589"></rect>
                <rect id="Rectangle" fill="#26A6DD" x="90.2520947" y="161.404793" width="20.5373406" height="1.8607589"></rect>
                <rect id="Rectangle" fill="#FFE700" x="98.7315118" y="69.6020073" width="9.42513661" height="4.0784306"></rect>
                <rect id="Rectangle" fill="#EDEFF0" opacity="0.19" x="107.178871" y="61.7058128" width="3.61056466" height="103.701216"></rect>
                <rect id="Rectangle" fill="#023852" x="328.44918" y="65.4874844" width="45.2302368" height="99.9195445"></rect>
                <rect id="Rectangle" fill="#507688" x="328.365027" y="78.4646736" width="45.3143898" height="1.79258454"></rect>
                <rect id="Rectangle" fill="#507688" x="328.365027" y="82.4227965" width="45.3143898" height="1.79258454"></rect>
                <rect id="Rectangle" fill="#507688" x="328.365027" y="86.3769092" width="45.3143898" height="1.79258454"></rect>
                <rect id="Rectangle" fill="#507688" x="328.365027" y="90.3350321" width="45.3143898" height="1.79258454"></rect>
                <rect id="Rectangle" fill="#507688" x="328.365027" y="94.293155" width="45.3143898" height="1.79258454"></rect>
                <rect id="Rectangle" fill="#507688" x="328.365027" y="98.2472677" width="45.3143898" height="1.79258454"></rect>
                <rect id="Rectangle" fill="#507688" x="328.365027" y="102.205391" width="45.3143898" height="1.79258454"></rect>
                <rect id="Rectangle" fill="#507688" x="328.365027" y="106.159503" width="45.3143898" height="1.79258454"></rect>
                <rect id="Rectangle" fill="#507688" x="328.365027" y="110.117626" width="45.3143898" height="1.79258454"></rect>
                <rect id="Rectangle" fill="#507688" x="328.365027" y="114.071739" width="45.3143898" height="1.79258454"></rect>
                <rect id="Rectangle" fill="#507688" x="328.365027" y="118.029862" width="45.3143898" height="1.79258454"></rect>
                <rect id="Rectangle" fill="#507688" x="328.365027" y="121.987985" width="45.3143898" height="1.79258454"></rect>
                <rect id="Rectangle" fill="#507688" x="328.365027" y="125.942097" width="45.3143898" height="1.79258454"></rect>
                <rect id="Rectangle" fill="#507688" x="328.365027" y="129.90022" width="45.3143898" height="1.79258454"></rect>
                <rect id="Rectangle" fill="#507688" x="328.365027" y="133.854333" width="45.3143898" height="1.79258454"></rect>
                <rect id="Rectangle" fill="#507688" x="328.365027" y="137.812456" width="45.3143898" height="1.79258454"></rect>
                <rect id="Rectangle" fill="#507688" x="328.365027" y="141.770579" width="45.3143898" height="1.79258454"></rect>
                <rect id="Rectangle" fill="#507688" x="328.365027" y="145.724691" width="45.3143898" height="1.79258454"></rect>
                <rect id="Rectangle" fill="#507688" x="328.365027" y="149.682814" width="45.3143898" height="1.79258454"></rect>
                <rect id="Rectangle" fill="#507688" x="328.365027" y="153.636927" width="45.3143898" height="1.79258454"></rect>
                <rect id="Rectangle" fill="#507688" x="328.365027" y="157.59505" width="45.3143898" height="1.79258454"></rect>
                <rect id="Rectangle" fill="#507688" x="328.365027" y="161.553173" width="45.3143898" height="1.79258454"></rect>
                <rect id="Rectangle" fill="#EDEFF0" opacity="0.19" x="365.712933" y="65.4874844" width="7.96648452" height="99.9195445"></rect>
                <rect id="Rectangle" fill="#023852" x="177.626958" y="131.015071" width="43.43898" height="34.1473319"></rect>
                <rect id="Rectangle" fill="#D0D7DA" x="177.626958" y="131.015071" width="43.43898" height="3.28841012"></rect>
                <rect id="Rectangle" fill="#507688" x="177.626958" y="136.200333" width="43.43898" height="1.62014352"></rect>
                <rect id="Rectangle" fill="#507688" x="177.626958" y="139.372445" width="43.43898" height="1.62014352"></rect>
                <rect id="Rectangle" fill="#507688" x="177.626958" y="142.544558" width="43.43898" height="1.62014352"></rect>
                <rect id="Rectangle" fill="#507688" x="177.626958" y="145.716671" width="43.43898" height="1.62014352"></rect>
                <rect id="Rectangle" fill="#507688" x="177.626958" y="148.888783" width="43.43898" height="1.62014352"></rect>
                <rect id="Rectangle" fill="#507688" x="177.626958" y="152.060896" width="43.43898" height="1.62014352"></rect>
                <rect id="Rectangle" fill="#507688" x="177.626958" y="155.233009" width="43.43898" height="1.62014352"></rect>
                <rect id="Rectangle" fill="#507688" x="177.626958" y="158.405122" width="43.43898" height="1.62014352"></rect>
                <rect id="Rectangle" fill="#507688" x="177.626958" y="161.573224" width="43.43898" height="1.62014352"></rect>
                <rect id="Rectangle" fill="#023852" x="284.008379" y="131.015071" width="43.43898" height="34.1473319"></rect>
                <rect id="Rectangle" fill="#D0D7DA" x="284.008379" y="131.015071" width="43.43898" height="3.28841012"></rect>
                <rect id="Rectangle" fill="#507688" x="284.008379" y="136.200333" width="43.43898" height="1.62014352"></rect>
                <rect id="Rectangle" fill="#507688" x="284.008379" y="139.372445" width="43.43898" height="1.62014352"></rect>
                <rect id="Rectangle" fill="#507688" x="284.008379" y="142.544558" width="43.43898" height="1.62014352"></rect>
                <rect id="Rectangle" fill="#507688" x="284.008379" y="145.716671" width="43.43898" height="1.62014352"></rect>
                <rect id="Rectangle" fill="#507688" x="284.008379" y="148.888783" width="43.43898" height="1.62014352"></rect>
                <rect id="Rectangle" fill="#507688" x="284.008379" y="152.060896" width="43.43898" height="1.62014352"></rect>
                <rect id="Rectangle" fill="#507688" x="284.008379" y="155.233009" width="43.43898" height="1.62014352"></rect>
                <rect id="Rectangle" fill="#507688" x="284.008379" y="158.405122" width="43.43898" height="1.62014352"></rect>
                <rect id="Rectangle" fill="#507688" x="284.008379" y="161.573224" width="43.43898" height="1.62014352"></rect>
                <path d="M379.357741,54.234625 C377.365895,54.234625 375.751184,55.850613 375.751184,57.843936 L375.751184,64.3686229 L377.354098,64.3686229 L377.354098,57.8559668 C377.354098,56.7419207 378.256542,55.8388079 379.369763,55.8388079 C380.482984,55.8388079 381.385428,56.7419207 381.385428,57.8559668 L381.385428,106.151483 L382.988363,106.151483 L382.988363,57.8559668 C382.991573,56.8924723 382.609715,55.9676819 381.927794,55.2875154 C381.245873,54.6073489 380.320506,54.2282767 379.357741,54.234625 L379.357741,54.234625 Z" id="Path" fill="#EDEFF0"></path>
                <rect id="Rectangle" fill="#EDEFF0" x="374.593078" y="63.5264691" width="3.91912568" height="3.9220306" rx="1.95956284"></rect>
                <path d="M258.413843,54.2347054 C256.427453,54.247827 254.820398,55.8560735 254.807286,57.843936 L254.807286,64.3686229 L256.4102,64.3686229 L256.4102,57.859977 C256.4102,56.745931 257.312644,55.8428182 258.425865,55.8428182 C259.539086,55.8428182 260.44153,56.745931 260.44153,57.859977 L260.44153,106.155493 L262.044444,106.155493 L262.044444,57.859977 C262.040025,55.8564981 260.415843,54.2347054 258.413843,54.2347054 L258.413843,54.2347054 Z" id="Path" fill="#EDEFF0"></path>
                <rect id="Rectangle" fill="#EDEFF0" x="253.64918" y="63.5304794" width="3.91912568" height="3.9220306" rx="1.95956284"></rect>
                <path d="M137.469945,54.2627772 C135.483555,54.2758988 133.8765,55.8841453 133.863388,57.8720078 L133.863388,64.3966947 L135.466302,64.3966947 L135.466302,57.8880488 C135.466302,56.7740028 136.368746,55.87089 137.481967,55.87089 C138.595188,55.87089 139.497632,56.7740028 139.497632,57.8880488 L139.497632,106.183565 L141.100546,106.183565 L141.100546,57.8880488 C141.096127,55.8845699 139.471945,54.2627772 137.469945,54.2627772 L137.469945,54.2627772 Z" id="Path" fill="#EDEFF0"></path>
                <rect id="Rectangle" fill="#EDEFF0" x="132.705282" y="63.5585512" width="3.91912568" height="3.9220306" rx="1.95956284"></rect>
                <path d="M16.5260474,54.2667875 C14.5396572,54.2799091 12.9326019,55.8881556 12.91949,57.8760181 L12.91949,64.400705 L14.5224044,64.400705 L14.5224044,57.8920591 C14.5224044,56.778013 15.4248483,55.8749002 16.5380692,55.8749002 C17.6512902,55.8749002 18.5537341,56.778013 18.5537341,57.8920591 L18.5537341,106.187575 L20.1566485,106.187575 L20.1566485,57.8920591 C20.152229,55.8885802 18.5280473,54.2667875 16.5260474,54.2667875 Z" id="Path" fill="#EDEFF0"></path>
                <rect id="Rectangle" fill="#EDEFF0" x="11.7613843" y="63.5625614" width="3.91912568" height="3.9220306" rx="1.95956284"></rect>
                <polyline id="Path" fill="#FFE500" points="290.572313 110.64297 290.572313 115.194611 215.235337 115.194611 215.235337 110.64297"></polyline>
                <rect id="Rectangle" fill="#EDEFF0" x="0" y="106.11138" width="439.639344" height="10.783579"></rect>
                <rect id="Rectangle" fill="#023852" x="0" y="111.493144" width="439.639344" height="3.00769218"></rect>
                <rect id="Rectangle" fill="#C5CDD1" x="0" y="116.894959" width="439.639344" height="1.07875893"></rect>
                <rect id="Rectangle" fill="#A5B1B8" x="23.6229508" y="117.973718" width="25.7628415" height="1.07474867"></rect>
                <rect id="Rectangle" fill="#023852" x="24.9092896" y="119.048467" width="23.5067395" height="1"></rect>
                <rect id="Rectangle" fill="#A5B1B8" x="23.6469945" y="119.750262" width="25.7107468" height="2.62671784"></rect>
                <rect id="Rectangle" fill="#C4CCD0" x="34.5868852" y="117.973718" width="20.052459" height="1.07474867"></rect>
                <rect id="Rectangle" fill="#4F778F" x="35.5887067" y="119.048467" width="18.2972678" height="1"></rect>
                <rect id="Rectangle" fill="#C4CCD0" x="34.6069217" y="119.750262" width="20.0123862" height="2.62671784"></rect>
                <rect id="Rectangle" fill="#C4CCD0" x="34.6069217" y="122.368959" width="10.9238616" height="42.9297931"></rect>
                <polygon id="Path" fill="#A5B1B8" points="34.6069217 128.071543 45.526776 128.071543 54.6112933 122.376979 23.6469945 122.376979"></polygon>
                <rect id="Rectangle" fill="#A5B1B8" x="34.6069217" y="128.071543" width="3.92313297" height="37.2272087"></rect>
                <path d="M369.780328,143.478948 C364.270942,143.480274 359.171003,146.39037 356.363934,151.134527 L356.243716,151.134527 C348.183315,151.138226 341.447876,157.275995 340.691439,165.306773 L384.130419,165.306773 C386.207159,160.475022 385.717954,154.922202 382.828459,150.528627 C379.938965,146.135053 375.03619,143.489182 369.780328,143.486968 L369.780328,143.478948 Z" id="Path" fill="#5C8197"></path>
                <path d="M421.907104,157.727388 C420.853045,157.726846 419.809475,157.936806 418.837523,158.344968 C417.377358,155.472759 414.323137,153.772998 411.114632,154.046958 C407.906127,154.320919 405.1838,156.513913 404.230965,159.592157 C402.300358,157.952774 399.69788,157.346472 397.242259,157.963993 C396.033334,154.867996 393.019677,152.858262 389.699008,152.933584 C386.37834,153.008906 383.458769,155.153222 382.391257,158.300855 C379.208385,157.017714 375.561829,157.934483 373.362842,160.57066 C371.277768,159.493024 368.822078,159.39801 366.660086,160.311321 C364.498094,161.224632 362.85324,163.051879 362.170492,165.298752 L429.805464,165.298752 C429.623064,161.065713 426.140938,157.727749 421.907104,157.727388 Z" id="Path" fill="#1F5271"></path>
                <path d="M249.786157,150.488876 C244.536612,150.488876 239.904189,152.858937 237.103097,156.476188 C235.372882,155.891959 233.559382,155.592645 231.733333,155.589922 C224.840801,155.589922 219.0102,159.668352 216.998543,165.298752 L265.234244,165.298752 C265.234244,165.038085 265.274324,164.781429 265.274324,164.516752 C265.282332,156.768937 258.341712,150.488876 249.786157,150.488876 Z" id="Path" fill="#5C8197"></path>
                <rect id="Rectangle" fill="#EDEFF0" x="0" y="160.554619" width="439.639344" height="1"></rect>
                <rect id="Rectangle" fill="#EDEFF0" x="0" y="163.016916" width="439.639344" height="1"></rect>
                <rect id="Rectangle" fill="#EDEFF0" x="0" y="158.545481" width="439.639344" height="1"></rect>
                <rect id="Rectangle" fill="#EDEFF0" x="25.5664845" y="158.545481" width="1" height="6.75327151"></rect>
                <rect id="Rectangle" fill="#EDEFF0" x="60.6382514" y="158.545481" width="1" height="6.75327151"></rect>
                <rect id="Rectangle" fill="#EDEFF0" x="95.7060109" y="158.545481" width="1" height="6.75327151"></rect>
                <rect id="Rectangle" fill="#EDEFF0" x="130.777778" y="158.545481" width="1" height="6.75327151"></rect>
                <rect id="Rectangle" fill="#EDEFF0" x="165.849545" y="158.545481" width="1" height="6.75327151"></rect>
                <rect id="Rectangle" fill="#EDEFF0" x="200.917304" y="158.545481" width="1" height="6.75327151"></rect>
                <rect id="Rectangle" fill="#EDEFF0" x="235.989071" y="158.545481" width="1" height="6.75327151"></rect>
                <rect id="Rectangle" fill="#EDEFF0" x="271.060838" y="158.545481" width="1" height="6.75327151"></rect>
                <rect id="Rectangle" fill="#EDEFF0" x="306.128597" y="158.545481" width="1" height="6.75327151"></rect>
                <rect id="Rectangle" fill="#EDEFF0" x="341.200364" y="158.545481" width="1" height="6.75327151"></rect>
                <rect id="Rectangle" fill="#A5B1B8" x="121.821494" y="117.837369" width="25.7628415" height="1.07474867"></rect>
                <rect id="Rectangle" fill="#023852" x="123.107832" y="118.912118" width="23.5067395" height="1"></rect>
                <rect id="Rectangle" fill="#A5B1B8" x="121.845537" y="119.613913" width="25.7107468" height="2.62671784"></rect>
                <rect id="Rectangle" fill="#C4CCD0" x="132.785428" y="117.837369" width="20.052459" height="1.07474867"></rect>
                <rect id="Rectangle" fill="#4F778F" x="133.78725" y="118.912118" width="18.2972678" height="1"></rect>
                <rect id="Rectangle" fill="#C4CCD0" x="132.805464" y="119.613913" width="20.0123862" height="2.62671784"></rect>
                <rect id="Rectangle" fill="#C4CCD0" x="132.805464" y="122.23662" width="10.9238616" height="42.9297931"></rect>
                <polygon id="Path" fill="#A5B1B8" points="132.805464 127.935195 143.725319 127.935195 152.813843 122.244641 121.845537 122.244641"></polygon>
                <rect id="Rectangle" fill="#A5B1B8" x="132.805464" y="127.935195" width="3.92313297" height="37.2272087"></rect>
                <rect id="Rectangle" fill="#A5B1B8" x="213.704554" y="117.99778" width="25.7628415" height="1.07474867"></rect>
                <rect id="Rectangle" fill="#023852" x="214.990893" y="119.072528" width="23.5067395" height="1"></rect>
                <rect id="Rectangle" fill="#A5B1B8" x="213.728597" y="119.774323" width="25.7107468" height="2.62671784"></rect>
                <rect id="Rectangle" fill="#C4CCD0" x="224.668488" y="117.99778" width="20.052459" height="1.07474867"></rect>
                <rect id="Rectangle" fill="#4F778F" x="225.67031" y="119.072528" width="18.2972678" height="1"></rect>
                <rect id="Rectangle" fill="#C4CCD0" x="224.688525" y="119.774323" width="20.0123862" height="2.62671784"></rect>
                <rect id="Rectangle" fill="#C4CCD0" x="224.688525" y="122.397031" width="10.9238616" height="42.9297931"></rect>
                <polygon id="Path" fill="#A5B1B8" points="224.688525 128.095605 235.608379 128.095605 244.696903 122.401041 213.728597 122.401041"></polygon>
                <rect id="Rectangle" fill="#A5B1B8" x="224.688525" y="128.095605" width="3.92313297" height="37.2272087"></rect>
                <rect id="Rectangle" fill="#A5B1B8" x="308.713297" y="117.837369" width="25.7628415" height="1.07474867"></rect>
                <rect id="Rectangle" fill="#023852" x="309.999636" y="118.912118" width="23.5067395" height="1"></rect>
                <rect id="Rectangle" fill="#A5B1B8" x="308.737341" y="119.613913" width="25.7107468" height="2.62671784"></rect>
                <rect id="Rectangle" fill="#C4CCD0" x="319.677231" y="117.837369" width="20.052459" height="1.07474867"></rect>
                <rect id="Rectangle" fill="#4F778F" x="320.679053" y="118.912118" width="18.2972678" height="1"></rect>
                <rect id="Rectangle" fill="#C4CCD0" x="319.697268" y="119.613913" width="20.0123862" height="2.62671784"></rect>
                <rect id="Rectangle" fill="#C4CCD0" x="319.697268" y="122.23662" width="10.9238616" height="42.9297931"></rect>
                <polygon id="Path" fill="#A5B1B8" points="319.697268 127.935195 330.617122 127.935195 339.705647 122.244641 308.737341 122.244641"></polygon>
                <rect id="Rectangle" fill="#A5B1B8" x="319.697268" y="127.935195" width="3.92313297" height="37.2272087"></rect>
                <rect id="Rectangle" fill="#4A6066" x="347.92459" y="95.716796" width="1.93551913" height="9.45618422"></rect>
                <rect id="Rectangle" fill="#3A6478" x="347.92459" y="88.2136065" width="1.93551913" height="8.10071761"></rect>
                <path d="M436.016758,92.4724987 L436.016758,106.295852 L349.860109,106.295852 L349.860109,87.0787021 L430.626958,87.0787021 C432.743403,87.0769108 434.664406,88.3166801 435.535883,90.2468065 C435.670536,90.5379205 435.776561,90.8414569 435.852459,91.1531244 C435.864678,91.1895266 435.872744,91.2271951 435.876503,91.2654115 C435.876503,91.3015038 435.900546,91.3416064 435.908561,91.3776987 C435.979456,91.7383404 436.015687,92.1049462 436.016758,92.4724987 Z" id="Path" fill="#E2E6E8"></path>
                <path d="M436.016758,92.4724987 L436.016758,101.186785 L432.991257,101.186785 L432.991257,91.5902423 C432.991257,91.233941 433.132692,90.8922328 433.384449,90.6402897 C433.636205,90.3883466 433.97766,90.2468065 434.333698,90.2468065 L435.535883,90.2468065 C435.670536,90.5379205 435.776561,90.8414569 435.852459,91.1531244 C435.864678,91.1895266 435.872744,91.2271951 435.876503,91.2654115 C435.876503,91.3015038 435.900546,91.3416064 435.908561,91.3776987 C435.979456,91.7383404 436.015687,92.1049462 436.016758,92.4724987 Z" id="Path" fill="#FFE700"></path>
                <rect id="Rectangle" fill="#69C1E8" x="349.860109" y="97.4291754" width="83.2193078" height="1"></rect>
                <rect id="Rectangle" fill="#0099DA" x="349.860109" y="101.523647" width="86.1766849" height="4.50752802"></rect>
                <path d="M433.940984,88.2256373 C411.255738,88.2256373 354.624772,88.1253809 349.860109,88.2256373 L349.860109,87.094745 L430.626958,87.094745 C431.826916,87.0902651 432.993744,87.4884386 433.940984,88.2256373 L433.940984,88.2256373 Z" id="Path" fill="#EFF1F2"></path>
                <path d="M414.625865,98.1871138 L414.625865,101.162724 L414.790164,101.162724 L414.790164,98.1871138 L414.625865,98.1871138 Z M414.625865,98.1871138 L414.625865,101.162724 L414.790164,101.162724 L414.790164,98.1871138 L414.625865,98.1871138 Z M422.027322,90.2468065 L422.027322,90.2468065 C421.926541,90.1309059 421.780112,90.0649641 421.626594,90.0663237 L415.154827,90.0663237 C415.001533,90.0660276 414.855526,90.1317798 414.754098,90.2468065 L414.754098,90.2468065 C414.659428,90.3593697 414.60574,90.5007577 414.601821,90.6478321 L414.601821,103.753349 L422.151548,103.753349 L422.151548,90.6678834 C422.162315,90.5121413 422.118375,90.3575282 422.027322,90.2307654 L422.027322,90.2468065 Z M422.027322,103.592939 L414.814182,103.592939 L414.814182,90.6678834 C414.811949,90.4679146 414.957253,90.2968422 415.154827,90.2668577 L421.702732,90.2668577 C421.898712,90.2986303 422.041899,90.4692182 422.039378,90.6678834 L422.027322,103.592939 Z M414.637887,98.1831036 L414.637887,101.162724 L414.802186,101.162724 L414.802186,98.1831036 L414.637887,98.1831036 Z M414.637887,98.1831036 L414.637887,101.158714 L414.802186,101.158714 L414.802186,98.1831036 L414.637887,98.1831036 Z M414.637887,98.1831036 L414.637887,101.158714 L414.802186,101.158714 L414.802186,98.1831036 L414.637887,98.1831036 Z" id="Shape" fill="#3A6478"></path>
                <rect id="Rectangle" fill="#3A6478" x="419.170128" y="91.2614013" width="2.27613843" height="4.49549725" rx="1.13"></rect>
                <path d="M421.446266,91.7145602 L421.446266,93.511155 L419.162113,93.511155 L419.162113,91.7145602 C419.162113,91.4642875 419.364849,91.2614013 419.614936,91.2614013 L420.981421,91.2614013 C421.103271,91.2592571 421.220926,91.3059245 421.308221,91.3910255 C421.395517,91.4761265 421.445216,91.5926057 421.446266,91.7145602 Z" id="Path" fill="#023852"></path>
                <path d="M417.11439,91.2614013 L415.763934,91.2614013 C415.513148,91.2569117 415.30565,91.4556136 415.299089,91.7065397 L415.299089,95.3157703 C415.30565,95.5666965 415.513148,95.7653984 415.763934,95.7609088 L417.11439,95.7609088 C417.365176,95.7653984 417.572674,95.5666965 417.579235,95.3157703 L417.579235,91.7065397 C417.572674,91.4556136 417.365176,91.2569117 417.11439,91.2614013 Z" id="Path" fill="#3A6478"></path>
                <path d="M417.11439,91.2614013 L415.763934,91.2614013 C415.513148,91.2569117 415.30565,91.4556136 415.299089,91.7065397 L415.299089,93.511155 L417.579235,93.511155 L417.579235,91.7065397 C417.572674,91.4556136 417.365176,91.2569117 417.11439,91.2614013 Z" id="Path" fill="#023852"></path>
                <rect id="Rectangle" fill="#3A6478" x="418.32459" y="90.2468065" width="1" height="13.1977533"></rect>
                <path d="M381.894353,90.2307654 L381.894353,90.2307654 C381.793905,90.1144169 381.647258,90.0483765 381.493625,90.0502629 L375.037887,90.0502629 C374.884482,90.0494596 374.738266,90.1153055 374.637158,90.2307654 L374.637158,90.2307654 C374.545275,90.3446357 374.493196,90.4854935 374.488889,90.6317911 L374.488889,103.737308 L382.038616,103.737308 L382.038616,90.6678834 C382.045454,90.5094402 381.994142,90.3539661 381.894353,90.2307654 L381.894353,90.2307654 Z M381.894353,103.576898 L374.681213,103.576898 L374.681213,90.6678834 C374.67898,90.4679146 374.824283,90.2968422 375.021858,90.2668577 L381.57377,90.2668577 C381.768154,90.3003945 381.909243,90.4705067 381.906418,90.6678834 L381.894353,103.576898 Z" id="Shape" fill="#3A6478"></path>
                <rect id="Rectangle" fill="#3A6478" x="379.037158" y="91.2614013" width="2.27613843" height="4.49549725" rx="1.13"></rect>
                <path d="M381.317304,91.7145602 L381.317304,93.511155 L379.037158,93.511155 L379.037158,91.7145602 C379.039358,91.4636402 379.243245,91.2614013 379.493989,91.2614013 L380.860474,91.2614013 C381.111217,91.2614013 381.315105,91.4636402 381.317304,91.7145602 L381.317304,91.7145602 Z" id="Path" fill="#023852"></path>
                <path d="M376.985428,91.2614013 L375.634973,91.2614013 C375.384187,91.2569117 375.176688,91.4556136 375.170128,91.7065397 L375.170128,95.3157703 C375.176688,95.5666965 375.384187,95.7653984 375.634973,95.7609088 L376.985428,95.7609088 C377.234662,95.7631829 377.439717,95.5651136 377.446266,95.3157703 L377.446266,91.7065397 C377.439717,91.4571965 377.234662,91.2591272 376.985428,91.2614013 Z" id="Path" fill="#3A6478"></path>
                <path d="M376.985428,91.2614013 L375.634973,91.2614013 C375.384187,91.2569117 375.176688,91.4556136 375.170128,91.7065397 L375.170128,93.511155 L377.446266,93.511155 L377.446266,91.7065397 C377.439717,91.4571965 377.234662,91.2591272 376.985428,91.2614013 Z" id="Path" fill="#023852"></path>
                <rect id="Rectangle" fill="#3A6478" x="378.195628" y="90.2468065" width="1" height="13.1977533"></rect>
                <path d="M361.697632,90.2307654 L361.697632,90.2307654 C361.597184,90.1144169 361.450536,90.0483765 361.296903,90.0502629 L354.837158,90.0502629 C354.683753,90.0494596 354.537537,90.1153055 354.43643,90.2307654 L354.43643,90.2307654 C354.344546,90.3446357 354.292467,90.4854935 354.28816,90.6317911 L354.28816,103.737308 L361.857995,103.737308 L361.857995,90.6678834 C361.860297,90.5073626 361.803196,90.3516471 361.697632,90.2307654 L361.697632,90.2307654 Z M361.697632,103.576898 L354.484491,103.576898 L354.484491,90.6678834 C354.482258,90.4679146 354.627562,90.2968422 354.825137,90.2668577 L361.377049,90.2668577 C361.571433,90.3003945 361.712521,90.4705067 361.709697,90.6678834 L361.697632,103.576898 Z" id="Shape" fill="#3A6478"></path>
                <rect id="Rectangle" fill="#3A6478" x="358.840437" y="91.2614013" width="2.27613843" height="4.49549725" rx="1.13"></rect>
                <path d="M361.116576,91.7145602 L361.116576,93.511155 L358.840437,93.511155 L358.840437,91.7145602 C358.840437,91.4642875 359.043173,91.2613835 359.29326,91.2613835 L360.655738,91.2613835 C360.776898,91.260333 360.89352,91.3074774 360.979945,91.3924622 C361.066369,91.477447 361.115517,91.59331 361.116576,91.7145602 Z" id="Path" fill="#023852"></path>
                <path d="M356.784699,91.2614013 L355.446266,91.2614013 C355.19548,91.2569117 354.987981,91.4556136 354.981421,91.7065397 L354.981421,95.3157703 C354.987981,95.5666965 355.19548,95.7653984 355.446266,95.7609088 L356.796721,95.7609088 C357.047507,95.7653984 357.255006,95.5666965 357.261566,95.3157703 L357.261566,91.7065397 C357.258459,91.5838363 357.206177,91.4675375 357.116486,91.3838147 C357.026796,91.3000919 356.907232,91.2559784 356.784699,91.2614013 Z" id="Path" fill="#3A6478"></path>
                <path d="M356.784699,91.2614013 L355.446266,91.2614013 C355.19548,91.2569117 354.987981,91.4556136 354.981421,91.7065397 L354.981421,93.511155 L357.261566,93.511155 L357.261566,91.7065397 C357.258459,91.5838363 357.206177,91.4675375 357.116486,91.3838147 C357.026796,91.3000919 356.907232,91.2559784 356.784699,91.2614013 Z" id="Path" fill="#023852"></path>
                <rect id="Rectangle" fill="#3A6478" x="357.9949" y="90.2468065" width="1" height="13.1977533"></rect>
                <path d="M402.010929,90.2307654 L402.010929,90.2307654 C401.909502,90.1157388 401.763494,90.0499866 401.6102,90.0503028 L395.150455,90.0503028 C394.997162,90.0499866 394.851154,90.1157388 394.749727,90.2307654 L394.749727,90.2307654 C394.655056,90.3433286 394.601369,90.4847166 394.59745,90.6317911 L394.59745,103.737308 L402.151184,103.737308 L402.151184,90.6678834 C402.157356,90.5101911 402.107684,90.3553831 402.010929,90.2307654 Z M402.010929,103.576898 L394.797788,103.576898 L394.797788,90.6678834 C394.795555,90.4679146 394.940859,90.2968422 395.138434,90.2668577 L401.682332,90.2668577 C401.879906,90.2968422 402.02521,90.4679146 402.022977,90.6678834 L402.010929,103.576898 Z" id="Shape" fill="#3A6478"></path>
                <rect id="Rectangle" fill="#3A6478" x="399.149727" y="91.2614013" width="2.27613843" height="4.49549725" rx="1.13"></rect>
                <path d="M401.425865,91.7145602 L401.425865,93.511155 L399.149727,93.511155 L399.149727,91.7145602 C399.151903,91.4651952 399.35337,91.2635793 399.60255,91.2614013 L400.973042,91.2614013 C401.222222,91.2635793 401.423689,91.4651952 401.425865,91.7145602 Z" id="Path" fill="#023852"></path>
                <path d="M397.093989,91.2614013 L395.743534,91.2614013 C395.494299,91.2591272 395.289245,91.4571965 395.282696,91.7065397 L395.282696,95.3157703 C395.289245,95.5651136 395.494299,95.7631829 395.743534,95.7609088 L397.093989,95.7609088 C397.344775,95.7653984 397.552274,95.5666965 397.558834,95.3157703 L397.558834,91.7065397 C397.552274,91.4556136 397.344775,91.2569117 397.093989,91.2614013 L397.093989,91.2614013 Z" id="Path" fill="#3A6478"></path>
                <path d="M397.093989,91.2614013 L395.743534,91.2614013 C395.494299,91.2591272 395.289245,91.4571965 395.282696,91.7065397 L395.282696,93.511155 L397.558834,93.511155 L397.558834,91.7065397 C397.552274,91.4556136 397.344775,91.2569117 397.093989,91.2614013 L397.093989,91.2614013 Z" id="Path" fill="#023852"></path>
                <rect id="Rectangle" fill="#3A6478" x="398.304189" y="90.2468065" width="1" height="13.1977533"></rect>
                <rect id="Rectangle" fill="#3A6478" x="364.150091" y="91.2694218" width="8.14681239" height="4.47945622" rx="1.42"></rect>
                <path d="M371.727869,91.2694076 L364.715118,91.2694076 C364.565264,91.2694076 364.421547,91.3289954 364.315584,91.4350371 C364.209621,91.5410789 364.150091,91.6849023 364.150091,91.8348679 L364.150091,93.5071448 L372.296903,93.5071448 L372.296903,91.8348679 C372.296903,91.6842049 372.236828,91.5397703 372.129997,91.4336126 C372.023165,91.3274548 371.878417,91.2683533 371.727869,91.2694076 Z" id="Path" fill="#023852"></path>
                <rect id="Rectangle" fill="#3A6478" x="384.354827" y="91.2694218" width="8.14681239" height="4.47945622" rx="1.42"></rect>
                <path d="M391.932605,91.2694218 L384.919854,91.2694218 C384.77,91.2694218 384.626283,91.3289954 384.52032,91.4350371 C384.414356,91.5410789 384.354827,91.6849023 384.354827,91.8348679 L384.354827,93.5071448 L392.501639,93.5071448 L392.501639,91.8348679 C392.499437,91.5219331 392.245316,91.2694218 391.932605,91.2694218 L391.932605,91.2694218 Z" id="Path" fill="#023852"></path>
                <rect id="Rectangle" fill="#3A6478" x="404.443352" y="91.2694218" width="8.14681239" height="4.47945622" rx="1.42"></rect>
                <path d="M412.021129,91.2694218 L405.008379,91.2694218 C404.857827,91.2694218 404.7135,91.3295418 404.607421,91.4364525 C404.501342,91.5433631 404.442284,91.6882189 404.443337,91.8388782 L404.443337,93.5071448 L412.590164,93.5071448 L412.590164,91.8348679 C412.587962,91.5219331 412.33384,91.2694218 412.021129,91.2694218 Z" id="Path" fill="#023852"></path>
                <rect id="Rectangle" fill="#3A6478" x="424.03898" y="91.2694218" width="8.14681239" height="4.47945622" rx="1.42"></rect>
                <path d="M431.620765,91.2694218 L424.608015,91.2694218 C424.457097,91.2694218 424.312361,91.3294179 424.205646,91.4362117 C424.098932,91.5430055 424.03898,91.687849 424.03898,91.8388782 L424.03898,93.5071448 L432.185792,93.5071448 L432.185792,91.8348679 C432.185792,91.5225807 431.932821,91.2694218 431.620765,91.2694218 Z" id="Path" fill="#023852"></path>
                <path d="M436.016758,92.4724987 L436.016758,99.2899343 L434.718397,99.2899343 C434.405686,99.2899343 434.151565,99.037423 434.149362,98.7244881 L434.149362,91.8348679 C434.151546,91.5212755 434.405037,91.2675969 434.718397,91.2654115 L435.876503,91.2654115 C435.876503,91.3015038 435.900546,91.3416064 435.908561,91.3776987 C435.979456,91.7383404 436.015687,92.1049462 436.016758,92.4724987 Z" id="Path" fill="#3A6478"></path>
                <path d="M436.016758,92.4724987 L436.016758,93.5071448 L434.149362,93.5071448 L434.149362,91.8348679 C434.151546,91.5212755 434.405037,91.2675969 434.718397,91.2654115 L435.876503,91.2654115 C435.876503,91.3015038 435.900546,91.3416064 435.908561,91.3776987 C435.979456,91.7383404 436.015687,92.1049462 436.016758,92.4724987 Z" id="Path" fill="#023852"></path>
                <rect id="Rectangle" fill="#023852" x="348.72204" y="88.2136065" width="1" height="16.3939275"></rect>
                <polygon id="Path" fill="#E2E6E8" points="263.086339 106.291842 347.92459 106.291842 347.92459 87.0746938 263.086339 87.0746938"></polygon>
                <path d="M263.086339,88.2015758 C268.395993,88.1093399 334.259745,88.2015758 347.92459,88.2015758 L347.92459,87.0586527 L263.086339,87.0586527 L263.086339,88.2015758 Z" id="Path" fill="#EFF1F2"></path>
                <rect id="Rectangle" fill="#3A6478" x="332.396357" y="91.257391" width="2.27613843" height="4.49549725" rx="1.13"></rect>
                <path d="M334.672495,91.71055 L334.672495,93.5031345 L332.396357,93.5031345 L332.396357,91.71055 C332.398557,91.4596299 332.602444,91.2573814 332.853188,91.257391 L334.20765,91.257391 C334.3295,91.2552469 334.447155,91.3019143 334.534451,91.3870153 C334.621746,91.4721163 334.671445,91.5885955 334.672495,91.71055 Z" id="Path" fill="#023852"></path>
                <path d="M330.340619,91.257391 L328.998179,91.257391 C328.747393,91.2529014 328.539894,91.4516033 328.533333,91.7025295 L328.533333,95.3117601 C328.539894,95.5626862 328.747393,95.7613881 328.998179,95.7568985 L330.344627,95.7568985 C330.595413,95.7613881 330.802911,95.5626862 330.809472,95.3117601 L330.809472,91.7025295 C330.806325,91.5812667 330.75515,91.4662267 330.667214,91.3827382 C330.579277,91.2992496 330.46179,91.2541579 330.340619,91.257391 Z" id="Path" fill="#3A6478"></path>
                <path d="M330.340619,91.257391 L328.998179,91.257391 C328.747393,91.2529014 328.539894,91.4516033 328.533333,91.7025295 L328.533333,93.5031345 L330.809472,93.5031345 L330.809472,91.7025295 C330.806325,91.5812667 330.75515,91.4662267 330.667214,91.3827382 C330.579277,91.2992496 330.46179,91.2541579 330.340619,91.257391 Z" id="Path" fill="#023852"></path>
                <rect id="Rectangle" fill="#3A6478" x="292.267395" y="91.257391" width="2.27613843" height="4.49549725" rx="1.13"></rect>
                <path d="M294.535519,91.71055 L294.535519,93.5031345 L292.259381,93.5031345 L292.259381,91.71055 C292.259381,91.4602772 292.462117,91.257391 292.712204,91.257391 L294.078689,91.257391 C294.329432,91.257391 294.53332,91.4596299 294.535519,91.71055 Z" id="Path" fill="#023852"></path>
                <path d="M290.211658,91.257391 L288.861202,91.257391 C288.610416,91.2529014 288.402918,91.4516033 288.396357,91.7025295 L288.396357,95.3117601 C288.402918,95.5626862 288.610416,95.7613881 288.861202,95.7568985 L290.211658,95.7568985 C290.462444,95.7613881 290.669942,95.5626862 290.676503,95.3117601 L290.676503,91.7025295 C290.669942,91.4516033 290.462444,91.2529014 290.211658,91.257391 L290.211658,91.257391 Z" id="Path" fill="#3A6478"></path>
                <path d="M290.211658,91.257391 L288.861202,91.257391 C288.610416,91.2529014 288.402918,91.4516033 288.396357,91.7025295 L288.396357,93.5031345 L290.676503,93.5031345 L290.676503,91.7025295 C290.669942,91.4516033 290.462444,91.2529014 290.211658,91.257391 L290.211658,91.257391 Z" id="Path" fill="#023852"></path>
                <rect id="Rectangle" fill="#3A6478" x="272.062659" y="91.257391" width="2.27613843" height="4.49549725" rx="1.13"></rect>
                <path d="M274.342805,91.71055 L274.342805,93.5031345 L272.062659,93.5031345 L272.062659,91.71055 C272.064859,91.4596299 272.268746,91.257391 272.51949,91.257391 L273.885974,91.257391 C274.136718,91.257391 274.340606,91.4596299 274.342805,91.71055 Z" id="Path" fill="#023852"></path>
                <path d="M270.010929,91.257391 L268.660474,91.257391 C268.409688,91.2529014 268.202189,91.4516033 268.195628,91.7025295 L268.195628,95.3117601 C268.202189,95.5626862 268.409688,95.7613881 268.660474,95.7568985 L270.010929,95.7568985 C270.260163,95.7591726 270.465218,95.5611033 270.471767,95.3117601 L270.471767,91.7025295 C270.465218,91.4531862 270.260163,91.2551169 270.010929,91.257391 Z" id="Path" fill="#3A6478"></path>
                <path d="M270.010929,91.257391 L268.660474,91.257391 C268.409688,91.2529014 268.202189,91.4516033 268.195628,91.7025295 L268.195628,93.5031345 L270.491803,93.5031345 L270.491803,91.7025295 C270.488729,91.5790955 270.435895,91.4621543 270.345322,91.3783114 C270.254748,91.2944686 270.134137,91.2508542 270.010929,91.257391 Z" id="Path" fill="#023852"></path>
                <rect id="Rectangle" fill="#3A6478" x="312.375956" y="91.257391" width="2.27613843" height="4.49549725" rx="1.13"></rect>
                <path d="M314.652095,91.71055 L314.652095,93.5031345 L312.375956,93.5031345 L312.375956,91.71055 C312.378133,91.4611849 312.579599,91.259569 312.82878,91.257391 L314.199271,91.257391 C314.448452,91.259569 314.649918,91.4611849 314.652095,91.71055 L314.652095,91.71055 Z" id="Path" fill="#023852"></path>
                <path d="M310.320219,91.257391 L308.961749,91.257391 C308.710963,91.2529014 308.503464,91.4516033 308.496903,91.7025295 L308.496903,95.3117601 C308.503464,95.5626862 308.710963,95.7613881 308.961749,95.7568985 L310.308197,95.7568985 C310.558983,95.7613881 310.766481,95.5626862 310.773042,95.3117601 L310.773042,91.7025295 C310.766574,91.4563019 310.56634,91.2594666 310.320219,91.257391 L310.320219,91.257391 Z" id="Path" fill="#3A6478"></path>
                <path d="M310.320219,91.257391 L308.961749,91.257391 C308.710963,91.2529014 308.503464,91.4516033 308.496903,91.7025295 L308.496903,93.5031345 L310.773042,93.5031345 L310.773042,91.7025295 C310.766574,91.4563019 310.56634,91.2594666 310.320219,91.257391 L310.320219,91.257391 Z" id="Path" fill="#023852"></path>
                <rect id="Rectangle" fill="#3A6478" x="277.376321" y="91.2654115" width="8.14681239" height="4.47945622" rx="1.42"></rect>
                <path d="M284.954098,91.2653972 L277.941348,91.2653972 C277.629292,91.2653972 277.376321,91.5185704 277.376321,91.8308577 L277.376321,93.5031345 L285.523147,93.5031345 L285.523147,91.8348679 C285.524209,91.683511 285.464604,91.5380408 285.357655,91.4310126 C285.250706,91.3239843 285.105343,91.2643342 284.954098,91.2653972 Z" id="Path" fill="#023852"></path>
                <rect id="Rectangle" fill="#3A6478" x="297.581056" y="91.2654115" width="8.14681239" height="4.47945622" rx="1.42"></rect>
                <path d="M305.158834,91.2653972 L298.142077,91.2653972 C297.992221,91.2664714 297.848924,91.3270638 297.743711,91.4338584 C297.638499,91.540653 297.57999,91.6849012 297.581042,91.8348679 L297.581042,93.5071448 L305.727883,93.5071448 L305.727883,91.8348679 C305.728945,91.683511 305.669339,91.5380408 305.56239,91.4310126 C305.455442,91.3239843 305.310079,91.2643342 305.158834,91.2653972 Z" id="Path" fill="#023852"></path>
                <rect id="Rectangle" fill="#3A6478" x="317.669581" y="91.2654115" width="8.14681239" height="4.47945622" rx="1.42"></rect>
                <path d="M325.251366,91.2654115 L318.238616,91.2654115 C317.925905,91.2654115 317.671783,91.5179228 317.669581,91.8308577 L317.669581,93.5031345 L325.816408,93.5031345 L325.816408,91.8348679 C325.817461,91.6842087 325.758403,91.5393528 325.652324,91.4324422 C325.546245,91.3255315 325.401918,91.2654115 325.251366,91.2654115 Z" id="Path" fill="#023852"></path>
                <rect id="Rectangle" fill="#3A6478" x="337.269217" y="91.2654115" width="8.14681239" height="4.47945622" rx="1.42"></rect>
                <path d="M344.851002,91.2654115 L337.838251,91.2654115 C337.525541,91.2654038 337.271419,91.5179228 337.269217,91.8308577 L337.269217,93.5031345 L345.428066,93.5031345 L345.428066,91.8348679 C345.429168,91.6821001 345.368468,91.5353804 345.25977,91.4281124 C345.151072,91.3208443 345.003626,91.262157 344.851002,91.2654115 Z" id="Path" fill="#023852"></path>
                <rect id="Rectangle" fill="#4A6066" x="261.15082" y="95.716796" width="1.93551913" height="9.45618422"></rect>
                <rect id="Rectangle" fill="#3A6478" x="261.15082" y="88.2136065" width="1.93551913" height="8.10071761"></rect>
                <rect id="Rectangle" fill="#023852" x="261.944262" y="88.2136065" width="1" height="16.3939275"></rect>
                <polygon id="Path" fill="#E2E6E8" points="176.320583 106.291842 261.15082 106.291842 261.15082 87.0746938 176.320583 87.0746938"></polygon>
                <path d="M176.320583,88.2015758 C181.634244,88.1093399 247.493989,88.2015758 261.162842,88.2015758 L261.162842,87.0586527 L176.320583,87.0586527 L176.320583,88.2015758 Z" id="Path" fill="#EFF1F2"></path>
                <rect id="Rectangle" fill="#3A6478" x="190.598543" y="91.2654115" width="8.14681239" height="4.47945622" rx="1.42"></rect>
                <path d="M198.180328,91.2654115 L191.167577,91.2654115 C190.854867,91.2654038 190.600745,91.5179228 190.598543,91.8308577 L190.598543,93.5031345 L198.761384,93.5031345 L198.761384,91.8348679 C198.761384,91.6817309 198.699819,91.535034 198.59049,91.4278875 C198.481161,91.3207411 198.333317,91.2621762 198.180328,91.2654115 Z" id="Path" fill="#023852"></path>
                <rect id="Rectangle" fill="#3A6478" x="210.803279" y="91.2654115" width="8.14681239" height="4.47945622" rx="1.42"></rect>
                <path d="M218.397086,91.2654115 L211.384335,91.2654115 C211.071624,91.2654115 210.817503,91.5179228 210.815301,91.8308577 L210.815301,93.5031345 L218.96612,93.5031345 L218.96612,91.8348679 C218.96612,91.5203658 218.711355,91.2654115 218.397086,91.2654115 Z" id="Path" fill="#023852"></path>
                <rect id="Rectangle" fill="#3A6478" x="230.895811" y="91.2654115" width="8.14681239" height="4.47945622" rx="1.42"></rect>
                <path d="M238.473588,91.2653972 L231.460838,91.2653972 C231.148782,91.2653972 230.895811,91.5185704 230.895811,91.8308577 L230.895811,93.5031345 L239.042637,93.5031345 L239.042637,91.8348679 C239.043699,91.683511 238.984094,91.5380408 238.877145,91.4310126 C238.770196,91.3239843 238.624833,91.2643342 238.473588,91.2653972 Z" id="Path" fill="#023852"></path>
                <rect id="Rectangle" fill="#3A6478" x="250.495446" y="91.2654115" width="8.14681239" height="4.47945622" rx="1.42"></rect>
                <path d="M258.069217,91.2654115 L251.056466,91.2654115 C250.906611,91.2664714 250.763314,91.3270638 250.658101,91.4338584 C250.552889,91.540653 250.49438,91.6849012 250.495432,91.8348679 L250.495432,93.5071448 L258.642273,93.5071448 L258.642273,91.8348679 C258.643352,91.6828082 258.583198,91.5367167 258.475376,91.4295693 C258.367554,91.322422 258.221152,91.2632507 258.069217,91.2654115 Z" id="Path" fill="#023852"></path>
                <path d="M175.170492,104.607534 L176.320583,104.607534 L176.320583,88.2256187 L175.619308,88.2256187 C175.503833,88.2245673 175.39272,88.2697253 175.310687,88.351065 C175.228655,88.4324047 175.182509,88.5431795 175.182514,88.658745 L175.170492,104.607534 Z" id="Path" fill="#023852"></path>
                <rect id="Rectangle" fill="#0099DA" x="263.018215" y="101.523647" width="85.0466302" height="4.50752802"></rect>
                <rect id="Rectangle" fill="#69C1E8" x="263.018215" y="97.4291754" width="84.8182149" height="1"></rect>
                <path d="M335.253552,90.2307654 C335.152771,90.1148649 335.006342,90.0489231 334.852823,90.0502629 L328.393078,90.0502629 C328.239446,90.0483765 328.092798,90.1144169 327.99235,90.2307654 C327.890985,90.3491108 327.835516,90.4999828 327.836062,90.6558526 L327.836062,103.76538 L335.409843,103.76538 L335.409843,90.6638731 C335.410534,90.5055558 335.355164,90.3521101 335.253552,90.2307654 L335.253552,90.2307654 Z M335.253552,103.580908 L328.040437,103.580908 L328.040437,90.6638731 C328.026701,90.4437215 328.193209,90.2537978 328.413115,90.2387859 L334.888889,90.2387859 C334.995239,90.2449794 335.094747,90.2932955 335.165429,90.3730589 C335.23611,90.4528223 335.272145,90.5574674 335.265574,90.6638731 L335.253552,103.580908 Z" id="Shape" fill="#3A6478"></path>
                <rect id="Rectangle" fill="#3A6478" x="331.55082" y="90.2387859" width="1" height="13.1977533"></rect>
                <path d="M295.120583,90.2307654 C295.020475,90.1139613 294.873602,90.0478196 294.719854,90.0502363 L288.264117,90.0502363 C288.110598,90.0489231 287.964169,90.1148649 287.863388,90.2307654 C287.764984,90.3505461 287.711111,90.5007877 287.711111,90.6558526 L287.711111,103.76538 L295.260838,103.76538 L295.260838,90.6638731 C295.267821,90.5072996 295.218008,90.3534777 295.120583,90.2307654 Z M295.120583,103.580908 L287.907468,103.580908 L287.907468,90.6638731 C287.900896,90.5574674 287.936932,90.4528223 288.007613,90.3730589 C288.078294,90.2932955 288.177803,90.2449794 288.284153,90.2387859 L294.759927,90.2387859 C294.979833,90.2537978 295.146341,90.4437215 295.132605,90.6638731 L295.120583,103.580908 Z" id="Shape" fill="#3A6478"></path>
                <rect id="Rectangle" fill="#3A6478" x="291.421858" y="90.2387859" width="1" height="13.1977533"></rect>
                <path d="M274.899818,90.2307654 C274.806163,90.11903 274.668834,90.0532388 274.523133,90.0502826 L268.063388,90.0502826 C267.909869,90.0489231 267.76344,90.1148649 267.662659,90.2307654 C267.564255,90.3505461 267.510383,90.5007877 267.510383,90.6558526 L267.510383,103.76538 L275.056102,103.76538 L275.056102,90.6638731 C275.060524,90.5049345 275.004691,90.3502072 274.899818,90.2307654 Z M274.899818,103.580908 L267.686703,103.580908 L267.686703,90.6638731 C267.680068,90.5534104 267.71934,90.4451138 267.795222,90.3646189 C267.871105,90.2841241 267.976852,90.2385866 268.087432,90.2387853 L274.539162,90.2387853 C274.757467,90.2558808 274.921638,90.4451743 274.907832,90.6638731 L274.899818,103.580908 Z" id="Shape" fill="#3A6478"></path>
                <rect id="Rectangle" fill="#3A6478" x="271.217122" y="90.2387859" width="1" height="13.1977533"></rect>
                <path d="M315.233151,90.2307654 C315.13237,90.1148649 314.985941,90.0489231 314.832423,90.0502826 L308.376685,90.0502826 C308.223166,90.0489231 308.076737,90.1148649 307.975956,90.2307654 C307.874591,90.3491108 307.819123,90.4999828 307.819668,90.6558526 L307.819668,103.76538 L315.373406,103.76538 L315.373406,90.6638731 C315.37863,90.5075427 315.329009,90.3543137 315.233151,90.2307654 Z M315.233151,103.580908 L308.020036,103.580908 L308.020036,90.6638731 C308.013465,90.5574674 308.0495,90.4528223 308.120182,90.3730589 C308.190863,90.2932955 308.290371,90.2449794 308.396721,90.2387859 L314.868488,90.2387859 C314.974838,90.2449794 315.074347,90.2932955 315.145028,90.3730589 C315.215709,90.4528223 315.251745,90.5574674 315.245173,90.6638731 L315.233151,103.580908 Z" id="Shape" fill="#3A6478"></path>
                <rect id="Rectangle" fill="#3A6478" x="311.530419" y="90.2387859" width="1" height="13.1977533"></rect>
                <rect id="Rectangle" fill="#69C1E8" x="176.328597" y="97.4291754" width="84.8943534" height="1"></rect>
                <rect id="Rectangle" fill="#0099DA" x="176.328597" y="101.523647" width="84.9704918" height="4.50752802"></rect>
                <path d="M248.479781,90.2307654 C248.378354,90.1157388 248.232346,90.0499866 248.079053,90.0503028 L241.639344,90.0503028 C241.486051,90.0499866 241.340043,90.1157388 241.238616,90.2307654 C241.137251,90.3491108 241.081782,90.4999828 241.082327,90.6558526 L241.082327,103.76538 L248.636072,103.76538 L248.636072,90.6638731 C248.636763,90.5055558 248.581394,90.3521101 248.479781,90.2307654 L248.479781,90.2307654 Z M248.479781,103.580908 L241.238616,103.580908 L241.238616,90.6638731 C241.231981,90.5534104 241.271253,90.4451138 241.347135,90.3646189 C241.423017,90.2841241 241.528764,90.2385866 241.639344,90.2387853 L248.091075,90.2387853 C248.198137,90.2439484 248.29867,90.2918184 248.370207,90.3716981 C248.441744,90.4515777 248.478322,90.5568082 248.471767,90.6638731 L248.479781,103.580908 Z" id="Shape" fill="#3A6478"></path>
                <rect id="Rectangle" fill="#3A6478" x="245.622587" y="91.257391" width="2.27613843" height="4.49549725" rx="1.13"></rect>
                <path d="M247.898725,91.71055 L247.898725,93.5071448 L245.622587,93.5071448 L245.622587,91.71055 C245.624763,91.4611849 245.826229,91.259569 246.07541,91.257391 L247.445902,91.257391 C247.695082,91.259569 247.896549,91.4611849 247.898725,91.71055 L247.898725,91.71055 Z" id="Path" fill="#023852"></path>
                <path d="M243.566849,91.257391 L242.216393,91.257391 C241.967159,91.2551169 241.762104,91.4531862 241.755556,91.7025295 L241.755556,95.3117601 C241.762104,95.5611033 241.967159,95.7591726 242.216393,95.7568985 L243.566849,95.7568985 C243.817635,95.7613881 244.025133,95.5626862 244.031694,95.3117601 L244.031694,91.7025295 C244.025133,91.4516033 243.817635,91.2529014 243.566849,91.257391 L243.566849,91.257391 Z" id="Path" fill="#3A6478"></path>
                <path d="M243.566849,91.257391 L242.216393,91.257391 C241.967159,91.2551169 241.762104,91.4531862 241.755556,91.7025295 L241.755556,93.5071448 L244.043716,93.5071448 L244.043716,91.7025295 C244.040608,91.579826 243.988326,91.4635273 243.898636,91.3798045 C243.808945,91.2960817 243.689381,91.2519682 243.566849,91.257391 Z" id="Path" fill="#023852"></path>
                <rect id="Rectangle" fill="#3A6478" x="244.777049" y="90.2427962" width="1" height="13.2017635"></rect>
                <path d="M208.346812,90.2307654 C208.246031,90.1148649 208.099602,90.0489231 207.946084,90.0502826 L201.490346,90.0502826 C201.337382,90.0515118 201.191967,90.1169971 201.089617,90.2307654 C200.991213,90.3505461 200.937341,90.5007877 200.937341,90.6558526 L200.937341,103.76538 L208.491075,103.76538 L208.491075,90.6638731 C208.496929,90.5067925 208.445674,90.352915 208.346812,90.2307654 L208.346812,90.2307654 Z M208.346812,103.580908 L201.133698,103.580908 L201.133698,90.6638731 C201.127142,90.5568082 201.16372,90.4515777 201.235258,90.3716981 C201.306795,90.2918184 201.407328,90.2439484 201.51439,90.2387859 L207.978142,90.2387859 C208.084492,90.2449794 208.184001,90.2932955 208.254682,90.3730589 C208.325363,90.4528223 208.361399,90.5574674 208.354827,90.6638731 L208.346812,103.580908 Z" id="Shape" fill="#3A6478"></path>
                <rect id="Rectangle" fill="#3A6478" x="205.489617" y="91.257391" width="2.27613843" height="4.49549725" rx="1.13"></rect>
                <path d="M207.765756,91.71055 L207.765756,93.5071448 L205.489617,93.5071448 L205.489617,91.71055 C205.491817,91.4596299 205.695704,91.257391 205.946448,91.257391 L207.312933,91.257391 C207.56302,91.257391 207.765756,91.4602772 207.765756,91.71055 Z" id="Path" fill="#023852"></path>
                <path d="M203.437887,91.257391 L202.087432,91.257391 C201.836646,91.2529014 201.629147,91.4516033 201.622587,91.7025295 L201.622587,95.3117601 C201.629147,95.5626862 201.836646,95.7613881 202.087432,95.7568985 L203.437887,95.7568985 C203.687121,95.7591726 203.892176,95.5611033 203.898725,95.3117601 L203.898725,91.7025295 C203.892176,91.4531862 203.687121,91.2551169 203.437887,91.257391 Z" id="Path" fill="#3A6478"></path>
                <path d="M203.437887,91.257391 L202.087432,91.257391 C201.836646,91.2529014 201.629147,91.4516033 201.622587,91.7025295 L201.622587,93.5071448 L203.898725,93.5071448 L203.898725,91.7025295 C203.892176,91.4531862 203.687121,91.2551169 203.437887,91.257391 Z" id="Path" fill="#023852"></path>
                <rect id="Rectangle" fill="#3A6478" x="204.64408" y="90.2427962" width="1" height="13.2017635"></rect>
                <path d="M188.146084,90.2307654 C188.044976,90.1153055 187.898761,90.0494596 187.745355,90.0502959 L181.289617,90.0502959 C181.136545,90.0510124 180.990937,90.1165844 180.888889,90.2307654 C180.790485,90.3505461 180.736612,90.5007877 180.736612,90.6558526 L180.736612,103.76538 L188.302368,103.76538 L188.302368,90.6638731 C188.304862,90.5052504 188.249273,90.3511964 188.146084,90.2307654 Z M188.146084,103.580908 L180.932969,103.580908 L180.932969,90.6638731 C180.926414,90.5568082 180.962992,90.4515777 181.034529,90.3716981 C181.106066,90.2918184 181.206599,90.2439484 181.313661,90.2387859 L187.785428,90.2387859 C188.005334,90.2537978 188.171842,90.4437215 188.158106,90.6638731 L188.146084,103.580908 Z" id="Shape" fill="#3A6478"></path>
                <rect id="Rectangle" fill="#3A6478" x="185.288889" y="91.257391" width="2.27613843" height="4.49549725" rx="1.13"></rect>
                <path d="M187.565027,91.71055 L187.565027,93.5071448 L185.288889,93.5071448 L185.288889,91.71055 C185.291065,91.4611849 185.492532,91.259569 185.741712,91.257391 L187.112204,91.257391 C187.361384,91.259569 187.562851,91.4611849 187.565027,91.71055 Z" id="Path" fill="#023852"></path>
                <path d="M183.233151,91.257391 L181.882696,91.257391 C181.633462,91.2551169 181.428407,91.4531862 181.421858,91.7025295 L181.421858,95.3117601 C181.428407,95.5611033 181.633462,95.7591726 181.882696,95.7568985 L183.233151,95.7568985 C183.483937,95.7613881 183.691436,95.5626862 183.697996,95.3117601 L183.697996,91.7025295 C183.691436,91.4516033 183.483937,91.2529014 183.233151,91.257391 L183.233151,91.257391 Z" id="Path" fill="#3A6478"></path>
                <path d="M183.233151,91.257391 L181.882696,91.257391 C181.633462,91.2551169 181.428407,91.4531862 181.421858,91.7025295 L181.421858,93.5071448 L183.697996,93.5071448 L183.697996,91.7025295 C183.691436,91.4516033 183.483937,91.2529014 183.233151,91.257391 Z" id="Path" fill="#023852"></path>
                <rect id="Rectangle" fill="#3A6478" x="184.443352" y="90.2427962" width="1" height="13.2017635"></rect>
                <path d="M228.459381,90.2307654 C228.357953,90.1157388 228.211946,90.0499866 228.058652,90.0503028 L221.602914,90.0503028 C221.449621,90.0499866 221.303613,90.1157388 221.202186,90.2307654 C221.100821,90.3491108 221.045353,90.4999828 221.045898,90.6558526 L221.045898,103.76538 L228.599636,103.76538 L228.599636,90.6638731 C228.604859,90.5075427 228.555239,90.3543137 228.459381,90.2307654 Z M228.459381,103.580908 L221.246266,103.580908 L221.246266,90.6638731 C221.239631,90.5534104 221.278903,90.4451138 221.354785,90.3646189 C221.430667,90.2841241 221.536415,90.2385866 221.646995,90.2387853 L228.114754,90.2387853 C228.221104,90.2449794 228.320613,90.2932955 228.391294,90.3730589 C228.461975,90.4528223 228.498011,90.5574674 228.491439,90.6638731 L228.459381,103.580908 Z" id="Shape" fill="#3A6478"></path>
                <rect id="Rectangle" fill="#3A6478" x="225.602186" y="91.257391" width="2.27613843" height="4.49549725" rx="1.13"></rect>
                <path d="M227.878324,91.71055 L227.878324,93.5071448 L225.6102,93.5071448 L225.6102,91.71055 C225.612377,91.4611849 225.813843,91.259569 226.063024,91.257391 L227.433515,91.257391 C227.679561,91.2638642 227.87625,91.4642461 227.878324,91.71055 L227.878324,91.71055 Z" id="Path" fill="#023852"></path>
                <path d="M223.546448,91.257391 L222.195993,91.257391 C221.946758,91.2551169 221.741704,91.4531862 221.735155,91.7025295 L221.735155,95.3117601 C221.741704,95.5611033 221.946758,95.7591726 222.195993,95.7568985 L223.546448,95.7568985 C223.797234,95.7613881 224.004733,95.5626862 224.011293,95.3117601 L224.011293,91.7025295 C224.004733,91.4516033 223.797234,91.2529014 223.546448,91.257391 L223.546448,91.257391 Z" id="Path" fill="#3A6478"></path>
                <path d="M223.546448,91.2573716 L222.195993,91.2573716 C221.946758,91.2551169 221.741704,91.4531862 221.735155,91.7025295 L221.735155,93.5071448 L224.007286,93.5071448 L224.007286,91.7025295 C224.000737,91.4531862 223.795682,91.2551169 223.546448,91.2573716 Z" id="Path" fill="#023852"></path>
                <rect id="Rectangle" fill="#3A6478" x="224.756648" y="90.2427962" width="1" height="13.2017635"></rect>
                <rect id="Rectangle" fill="url(#linearGradient-2)" style="mix-blend-mode: multiply;" x="90.1799636" y="61.5413923" width="6.96466302" height="103.91376"></rect>
            </g>
        </g>
    </g>
</svg>