<?xml version="1.0" encoding="UTF-8"?>
<svg width="440px" height="330px" viewBox="0 0 440 330" version="1.1" xmlns="http://www.w3.org/2000/svg" xmlns:xlink="http://www.w3.org/1999/xlink">
    <title>Graphic elements / Icons / Rich icons / Partnership</title>
    <g id="Graphic-elements-/-Icons-/-Rich-icons-/-Partnership" stroke="none" stroke-width="1" fill="none" fill-rule="evenodd">
        <g id="Partnership" transform="translate(22.000000, 19.000000)" fill-rule="nonzero">
            <g id="Group" opacity="0.2" style="mix-blend-mode: multiply;" fill="#023852">
                <path d="M381.94,247.28 C381.66813,246.93963 381.452101,246.558203 381.3,246.15 C381.150264,245.756737 381.069087,245.340706 381.06,244.92 C381.029398,244.057949 381.286192,243.210176 381.79,242.51 L381.79,242.44 L381.84,242.37 L381.84,242.31 L381.89,242.24 C382.009759,242.075073 382.116738,241.901233 382.21,241.72 C382.301135,241.539608 382.378035,241.352372 382.44,241.16 C382.500821,240.966963 382.54761,240.769783 382.58,240.57 C382.611135,240.368112 382.627844,240.164263 382.63,239.96 L382.63,133.85 C382.644872,133.66363 382.644872,133.47637 382.63,133.29 C382.599572,133.104708 382.559518,132.921127 382.51,132.74 C382.458202,132.561308 382.391294,132.387347 382.31,132.22 C382.229911,132.048169 382.139755,131.881212 382.04,131.72 L378.51,126.27 L375,120.81 L371.46,115.35 L368,109.89 C367.894579,109.728427 367.777607,109.574692 367.65,109.43 C367.523455,109.286671 367.386409,109.152968 367.24,109.03 C367.092422,108.904606 366.935278,108.790927 366.77,108.69 C366.603084,108.588145 366.429338,108.49793 366.25,108.42 L363.82,107.42 L361.39,106.42 L358.96,105.42 L356.53,104.37 C356.361907,104.298407 356.187922,104.241528 356.01,104.2 C355.836574,104.151332 355.659236,104.117872 355.48,104.1 C355.303481,104.089769 355.126519,104.089769 354.95,104.1 C354.770135,104.090135 354.589865,104.090135 354.41,104.1 L353.41,100.94 L352.41,97.79 L351.41,94.63 L350.41,91.47 C350.30931,91.2852624 350.169361,91.1248332 350,91 C349.908612,90.8819802 349.800861,90.7775961 349.68,90.69 C349.56058,90.6069273 349.429023,90.5428356 349.29,90.5 C349.148951,90.4485014 349.000149,90.4214465 348.85,90.42 L348.85,87.42 L348.85,84.42 L348.85,81.42 L348.85,78.42 L349.08,78.51 L349.3,78.6 L349.53,78.69 L349.75,78.78 L349.75,78.78 L349.97,78.03 L350.2,77.29 L350.42,76.54 L350.64,75.8 L353.31,66.95 L355.99,58.11 L358.66,49.27 L361.33,40.43 C361.361188,40.3481818 361.387895,40.2647248 361.41,40.18 C361.437987,40.0946537 361.461354,40.0078612 361.48,39.92 C361.48,39.84 361.48,39.75 361.53,39.66 C361.535345,39.5734157 361.535345,39.4865843 361.53,39.4 L361.53,39.13 L361.53,38.86 C361.534963,38.7700684 361.534963,38.6799316 361.53,38.59 C361.534844,38.5000652 361.534844,38.4099348 361.53,38.32 L360.59,33.75 L359.74,29 L358.8,24.43 L357.85,19.85 C357.829455,19.7278322 357.799363,19.6074634 357.76,19.49 C357.722733,19.3744393 357.679338,19.2609453 357.63,19.15 C357.58,19.04 357.52,18.93 357.46,18.82 L357.25,18.51 L355.11,15.67 L353,12.8 L350.83,10 L348.69,7.16 C348.572722,6.99950264 348.438627,6.8519984 348.29,6.72 C348.150676,6.58310213 347.996369,6.46234021 347.83,6.36 C347.662055,6.25101692 347.484679,6.15730856 347.3,6.08 C347.116865,6.00952203 346.929902,5.94942665 346.74,5.9 L340.14,4.45 L333.55,3 L327,1.53 L320.41,0.08 L320,0 L319.58,0 L319.16,0 C319.02,0 318.89,0.06 318.75,0.09 L308.42,3.09 L298.1,6.09 L287.77,9.09 L277.44,12.09 C277.177438,12.1688962 276.925555,12.279725 276.69,12.42 C276.214285,12.6894066 275.81771,13.0790841 275.54,13.55 C275.391556,13.7839031 275.273918,14.0359849 275.19,14.3 L274.67,15.96 L274.15,17.61 L273.64,19.27 L273.12,20.93 C273.01458,21.252886 272.960587,21.5903406 272.96,21.93 C272.963683,22.6109019 273.176638,23.2742054 273.57,23.83 C273.770565,24.1121852 274.013415,24.3617805 274.29,24.57 L275.18,25.24 L276.06,25.9 L276.95,26.57 L277.83,27.24 C277.922791,27.3090601 278.019631,27.3725068 278.12,27.43 L278.42,27.59 C278.523194,27.6387102 278.630222,27.6788456 278.74,27.71 L279.07,27.81 L278.5,30.4 L277.93,32.99 L277.36,35.57 L276.79,38.16 L276.79,39.37 L277.1,40.74 L277.42,42.1 L277.73,43.47 L278,45 C278.051174,45.2061559 278.078024,45.4175967 278.08,45.63 C278.081957,45.8420443 278.058456,46.0535571 278.01,46.26 C277.971124,46.4701592 277.907341,46.6749366 277.82,46.87 C277.729441,47.0643186 277.618842,47.2486512 277.49,47.42 L275,50.8 L272.49,54.19 L270,57.57 L267.43,61 C267.3032,61.1762435 267.192742,61.3636869 267.1,61.56 C267.017116,61.7601619 266.953495,61.967767 266.91,62.18 C266.86532,62.3902956 266.845186,62.6050643 266.85,62.82 C266.851332,63.0390383 266.87818,63.2571756 266.93,63.47 C267.046423,63.9135416 267.257986,64.3264303 267.55,64.68 C267.699169,64.8542977 267.866817,65.0118875 268.05,65.15 C268.238525,65.2824838 268.439468,65.3963512 268.65,65.49 L270.35,66.21 L272.05,66.94 L273.74,67.66 L275.44,68.38 C275.695448,68.4897414 275.934402,68.6344597 276.15,68.81 C276.360848,68.9790911 276.546103,69.1778192 276.7,69.4 C276.856502,69.6214527 276.981057,69.8638298 277.07,70.12 C277.166622,70.3800467 277.223919,70.6530498 277.24,70.93 L277.5,75.47 L277.77,80.01 L278.03,84.55 L278.3,89.09 C278.546243,93.3995636 281.529974,97.0647151 285.7,98.18 C287.084799,98.5565925 288.534821,98.6282406 289.95,98.39 L290.64,98.28 L291.32,98.16 L292,98 L292.69,97.88 L292.86,97.88 L294.35,97.76 L295.84,97.63 L297.32,97.51 L298.81,97.39 L299.03,97.39 L299.3,97.39 L300,97.39 L300.31,97.39 L300.61,97.39 L300.91,97.39 L301.21,97.39 L301.34,97.39 L301.48,97.39 L301.62,97.39 L301.77,97.39 L301.83,97.39 L301.89,97.39 L301.95,97.39 L302.01,97.39 L302.58,97.54 L303.19,97.74 L303.85,97.99 L304.56,98.28 L304.68,98.34 L304.8,98.34 L304.92,98.34 L305.04,98.4 L306.04,100.83 L307.04,103.26 L308.04,105.69 L309.04,108.12 L308.13,109.61 L307.22,111.09 L306.3,112.57 L305.39,114.06 L305.17,117.3 L304.94,120.55 L304.72,123.79 L304.5,127.04 L298.78,145.56 L293.07,164.07 L287.36,183 L281.64,201.51 L281.55,201.78 C281.55,201.87 281.5,201.96 281.48,202.05 C281.458497,202.142405 281.441808,202.235864 281.43,202.33 C281.425084,202.423269 281.425084,202.516731 281.43,202.61 L280.88,209.84 L280.3,217 L279.75,224.22 L279.2,231.45 L268.2,236.63 L257.2,241.8 L246.2,246.98 L235.2,252.16 L235.28,252.37 L235.36,252.58 L235.44,252.8 L235.52,253.01 L233.45,253.87 L231.38,254.73 L229.31,255.59 L227.23,256.45 L227.51,257.11 L227.78,257.77 L228.05,258.43 L228.32,259.09 L228.22,259.09 L228.17,259.09 L228,259.09 L221,259.5 L214,259.91 L207,260.32 L200,260.73 L199.58,260.78 C199.444698,260.800459 199.311026,260.830535 199.18,260.87 C199.04783,260.902574 198.91762,260.942638 198.79,260.99 L198.41,261.16 L192.5,260.81 L186.6,260.46 L180.69,260.11 L174.78,259.77 L174.86,259.58 L174.94,259.38 L175.02,259.19 L175.1,259 L173.65,258.41 L172.2,257.81 L170.75,257.21 L169.3,256.61 L169.37,256.41 L169.45,256.2 L169.53,255.99 L169.61,255.78 L156.17,249.56 L142.73,243.34 L129.29,237.12 L116.05,231 L114.89,219.21 L113.73,207.42 L112.56,195.63 L111.4,183.84 C111.405485,183.786808 111.405485,183.733192 111.4,183.68 C111.4,183.62 111.4,183.57 111.4,183.52 L111.34,183.37 C111.320852,183.318151 111.297439,183.26798 111.27,183.22 L110.91,182.59 L110.56,181.95 L110.21,181.32 L109.85,180.69 L109.85,179.52 L104.73,167.47 L99.61,155.47 L94.49,143.47 L89.37,131.42 L88.24,126.05 L87.12,120.68 L85.99,115.3 L84.87,109.93 L84.73,109.87 L84.58,109.81 L84.44,109.75 L84.3,109.69 L85.22,107.04 L86.14,104.39 L87.05,101.74 L87.97,99.09 C88.0455827,98.8729129 88.1571387,98.6700839 88.3,98.49 C88.4357509,98.3124902 88.6015995,98.1601802 88.79,98.04 C89.1709482,97.7893966 89.626094,97.6764922 90.08,97.72 L92.96,98 L95.83,98.28 L98.7,98.56 L101.58,98.84 L101.8,98.84 C102.031135,98.8852945 102.268865,98.8852945 102.5,98.84 C102.71889,98.7811785 102.927834,98.6901867 103.12,98.57 C103.309581,98.4436105 103.478278,98.2884099 103.62,98.11 C103.766806,97.9251326 103.878638,97.7150233 103.95,97.49 L105.58,92.49 L107.2,87.49 L108.83,82.49 L110.46,77.49 C110.507361,77.3273086 110.578099,77.172358 110.67,77.03 C110.762488,76.8889853 110.869762,76.7582449 110.99,76.64 C111.11634,76.5266014 111.253688,76.4261027 111.4,76.34 C111.548822,76.2587674 111.706535,76.1950109 111.87,76.15 L113.17,75.79 L114.47,75.44 L115.77,75.08 L117.07,74.73 C117.319833,74.6623811 117.554167,74.5469125 117.76,74.39 C117.953992,74.237376 118.122727,74.0551419 118.26,73.85 C118.394561,73.6425884 118.489499,73.4120249 118.54,73.17 C118.58513,72.9186766 118.58513,72.6613234 118.54,72.41 L117.7,67.41 L116.87,62.35 L116,57.28 L115.17,52.22 C115.17,52.22 115.17,52.22 115.17,52.16 L115.17,52.1 C115.165321,52.0802736 115.165321,52.0597264 115.17,52.04 L115.17,52 L114.97,47.07 L114.77,42.13 L114.57,37.2 L114.37,32.26 C114.365282,32.0832287 114.334966,31.9080745 114.28,31.74 C114.228808,31.5755893 114.158317,31.417823 114.07,31.27 C113.977288,31.1232987 113.86641,30.9889009 113.74,30.87 C113.615533,30.7471272 113.474095,30.642732 113.32,30.56 C113.401292,30.4840229 113.474975,30.4002926 113.54,30.31 C113.60943,30.2209555 113.660422,30.1189703 113.69,30.01 C113.721227,29.9027039 113.738041,29.7917305 113.74,29.68 C113.741063,29.5565182 113.717257,29.4340861 113.67,29.32 L112,24.88 L110.38,20.46 L108.75,16.05 L107.13,11.63 C107.096613,11.5449992 107.052956,11.4644009 107,11.39 C106.951051,11.3112374 106.89035,11.2404196 106.82,11.18 C106.752706,11.1188222 106.678936,11.0651712 106.6,11.02 L106.34,10.92 L97.26,8.64 L88.18,6.35 L79.1,4.07 L70,1.78 L69.8,1.78 L69.61,1.78 L69.42,1.78 L69.23,1.85 L67.13,2.85 L65.03,3.85 L62.93,4.85 L60.82,5.85 L60.82,5.85 L54.46,8.85 L48.11,11.85 L41.76,14.85 L35.4,17.85 C35.3291222,17.8825214 35.2620496,17.9227649 35.2,17.97 L35.04,18.12 C34.9332003,18.2335811 34.8544371,18.3705604 34.81,18.52 L31.88,27.33 L29,36.2 L26.08,45 L23.16,53.81 C23.1555017,53.8465287 23.1555017,53.8834713 23.16,53.92 C23.1553478,53.953171 23.1553478,53.986829 23.16,54.02 C23.155059,54.0565002 23.155059,54.0934998 23.16,54.13 L23.16,54.24 L23.29,56.34 L23.42,58.44 L23.55,60.54 L23.68,62.64 C23.0326278,62.318956 22.3644633,62.0416678 21.68,61.81 C20.9842964,61.5751911 20.2724128,61.3913714 19.55,61.26 C18.7913968,61.1127675 18.0223271,61.0258292 17.25,61 C11.4659403,60.7476399 5.99424994,63.629924 2.93100257,68.5427183 C-0.132244808,73.4555126 -0.312228093,79.6373055 2.46,84.72 C4.46659179,88.387935 7.82447368,91.1287702 11.82,92.36 C13.86973,92.9928975 16.0258021,93.2071444 18.16,92.99 C24.9743838,92.2922558 30.5961552,87.3491126 32.16,80.68 L35.48,83.04 L38.8,85.4 L42.12,87.76 L45.44,90.12 L45.54,90.17 L45.63,90.17 L45.73,90.17 L45.83,90.17 L45.83,90.83 L45.83,91.49 L45.83,92.15 L45.83,92.82 L45.54,92.69 L45.26,92.57 L44.97,92.45 L44.68,92.32 L44,96.27 L43.39,100.11 L42.82,104 L42.21,107.84 C41.736591,107.849834 41.2648824,107.900016 40.8,107.99 C40.3355697,108.082203 39.880395,108.216078 39.44,108.39 C38.994958,108.568403 38.5666136,108.785922 38.16,109.04 C37.7509456,109.294335 37.3660091,109.585548 37.01,109.91 L33.22,113.4 L29.42,116.89 L25.62,120.38 L21.82,123.87 C21.4251308,124.211724 21.063516,124.59008 20.74,125 C20.4277475,125.433859 20.1565768,125.895853 19.93,126.38 C19.7073703,126.866003 19.529955,127.371469 19.4,127.89 C19.2764049,128.415208 19.2027438,128.950925 19.18,129.49 L20.64,152.14 L22.11,174.79 L23.57,197.44 L25,220.12 C25,220.5 25.07,220.87 25.12,221.24 C25.17,221.61 25.25,221.97 25.33,222.33 C25.41,222.69 25.52,223.05 25.64,223.41 C25.76,223.77 25.89,224.11 26.04,224.41 L26.21,224.82 L26.39,225.23 L26.56,225.64 L26.74,226.05 C26.9896891,226.634308 27.1968937,227.235869 27.36,227.85 C27.5226786,228.457066 27.6396723,229.075462 27.71,229.7 C27.7903299,230.326594 27.8204258,230.958608 27.8,231.59 C27.7817965,232.22041 27.7182996,232.848696 27.61,233.47 L24.29,252.59 L21,271.76 L17.68,290.88 L14.37,310 L123.83,310 L123.7,308.62 L123.56,307.24 L123.42,305.85 L123.29,304.47 L123.29,304.47 L122.46,296.1 L121.64,287.72 L120.81,279.35 L120,271 L129.6,274.77 L139.21,278.54 L148.81,282.3 L158.41,286.07 L158.52,285.78 L158.63,285.5 L158.74,285.21 L158.85,284.92 L160.09,285.43 L161.33,285.94 L162.58,286.45 L163.82,286.96 L164.15,286.16 L164.48,285.36 L164.81,284.56 L165.14,283.75 L167.5,284.75 L169.87,285.75 L172.23,286.75 L174.59,287.75 L175.02,287.97 C175.15937,288.050716 175.293019,288.14093 175.42,288.24 L175.79,288.55 L176.12,288.91 L179.66,293.23 L183.21,297.54 L186.76,301.86 L190.31,306.18 C190.644304,306.592956 191.059462,306.933249 191.53,307.18 C191.983286,307.424073 192.47867,307.580152 192.99,307.64 C193.502321,307.702382 194.021872,307.665028 194.52,307.53 C195.037985,307.397866 195.524229,307.163244 195.95,306.84 L197.21,305.84 L198.46,304.89 L199.72,303.89 L200.98,302.94 L202.15,303.83 L203.33,304.73 L204.51,305.62 L205.68,306.52 C206.112793,306.840026 206.600986,307.077342 207.12,307.22 C207.622238,307.350831 208.144265,307.388119 208.66,307.33 C209.178613,307.268321 209.680822,307.108836 210.14,306.86 C210.613515,306.61344 211.031983,306.273222 211.37,305.86 L214.95,301.51 L218.52,297.15 L222.1,292.8 L225.67,288.45 C225.769383,288.320683 225.879797,288.200231 226,288.09 C226.116198,287.978437 226.239814,287.874867 226.37,287.78 C226.496981,287.68093 226.63063,287.590716 226.77,287.51 C226.911494,287.426747 227.058502,287.353243 227.21,287.29 L229.91,286.11 L232.61,284.93 L235.31,283.75 L238.01,282.57 L238.19,283.02 L238.38,283.47 L238.57,283.92 L238.75,284.37 L240.61,283.6 L242.48,282.83 L244.34,282.05 L246.2,281.28 L246.31,281.57 L246.42,281.85 L246.52,282.13 L246.63,282.42 L254.03,279.52 L261.42,276.61 L268.82,273.71 L276.22,270.81 L275.78,276.6 L275.34,282.4 L274.9,288.19 L274.46,293.99 L274.2,296.76 L273.95,299.53 L273.69,302.31 L273.44,305.08 C273.435037,305.139897 273.435037,305.200103 273.44,305.26 C273.434589,305.319878 273.434589,305.380122 273.44,305.44 C273.435083,305.499899 273.435083,305.560101 273.44,305.62 C273.435453,305.673236 273.435453,305.726764 273.44,305.78 L273.35,306.78 L273.27,307.78 L273.18,308.78 L273.1,309.78 L388,309.78 L386.72,294.64 L385.43,279.5 L384.15,264.36 L382.86,249.22 C382.840537,249.025178 382.810493,248.831559 382.77,248.64 C382.720573,248.450098 382.660478,248.263135 382.59,248.08 C382.51003,247.8984 382.419887,247.721453 382.32,247.55 C382.200044,247.45091 382.073043,247.360672 381.94,247.28 Z" id="Path" style="mix-blend-mode: multiply;"></path>
            </g>
            <path d="M121.88,32.23 L122.08,37.17 L122.28,42.1 L122.48,47.04 L122.68,51.97 L122.68,52.1 C122.684679,52.1197264 122.684679,52.1402736 122.68,52.16 C122.68,52.16 122.68,52.16 122.68,52.22 L123.51,57.28 L124.35,62.34 L125.18,67.4 L126.01,72.4 C126.060107,72.6508556 126.060107,72.9091444 126.01,73.16 C125.965017,73.4036857 125.869649,73.6352945 125.73,73.84 C125.59817,74.0493783 125.428634,74.2324775 125.23,74.38 C125.026268,74.5343431 124.795714,74.6496203 124.55,74.72 L123.25,75.07 L121.95,75.43 L120.64,75.78 L119.34,76.14 C119.17776,76.1885637 119.02041,76.2521732 118.87,76.33 C118.728551,76.4186953 118.594753,76.5190437 118.47,76.63 C118.349762,76.7482449 118.242488,76.8789853 118.15,77.02 C118.058844,77.1641547 117.985001,77.3185537 117.93,77.48 L116.31,82.48 L114.68,87.48 L113.05,92.48 L111.43,97.48 C111.354562,97.7032864 111.243089,97.9127211 111.1,98.1 C110.958278,98.2784099 110.789581,98.4336105 110.6,98.56 C110.407834,98.6801867 110.19889,98.7711785 109.98,98.83 C109.74884,98.8750423 109.51116,98.8750423 109.28,98.83 L106.36,98.55 L103.43,98.26 L100.51,97.98 L97.59,97.7 C97.362227,97.6547354 97.127773,97.6547354 96.9,97.7 C96.6801428,97.7510609 96.470515,97.8389694 96.28,97.96 C96.0907547,98.0828365 95.9220233,98.2346947 95.78,98.41 C95.6333154,98.5912375 95.521432,98.7980521 95.45,99.02 L93.89,103.51 L92.33,108.01 L90.78,112.5 L89.22,117 C89.1226566,117.285538 88.9619799,117.545356 88.75,117.76 C88.5448344,117.966928 88.2999205,118.130204 88.03,118.24 C87.7584591,118.341469 87.4697396,118.389023 87.18,118.381081 C86.8762364,118.362755 86.5796418,118.280936 86.31,118.14 L78.31,113.86 L70.31,109.59 L62.31,105.31 L54.31,101.04 C54.1371402,100.955791 53.9812195,100.840546 53.85,100.7 C53.7091639,100.574301 53.5908,100.425501 53.5,100.26 C53.4054383,100.101183 53.3346851,99.9293541 53.29,99.75 C53.2420863,99.5638321 53.2185561,99.3722294 53.22,99.18 L53.35,94.12 L53.47,89.06 L53.6,84 L53.72,79 C53.7249894,78.9134051 53.7249894,78.8265949 53.72,78.74 C53.72,78.66 53.72,78.58 53.72,78.49 C53.72,78.4 53.72,78.33 53.65,78.25 C53.6174342,78.1714386 53.5807158,78.0946636 53.54,78.02 L50.91,72.8 L48.27,67.58 L45.63,62.35 L42.92,57 C42.8706679,56.8992859 42.8272607,56.7957763 42.79,56.69 C42.7561102,56.5859192 42.7326613,56.4787245 42.72,56.37 C42.686659,56.1512632 42.686659,55.9287368 42.72,55.71 L44.14,48 L45.56,40.2 L47,32.36 L48.42,24.56 C48.4446817,24.4128265 48.4849068,24.2686866 48.54,24.13 C48.5997208,23.9959261 48.6734649,23.8685498 48.76,23.75 C48.8429091,23.6286332 48.940293,23.5178171 49.05,23.42 C49.1613536,23.3190141 49.2818745,23.2286234 49.41,23.15 L56.2,19.22 L63,15.29 L69.79,11.35 L76.59,7.42 C76.7395397,7.33057761 76.9012077,7.26321594 77.07,7.22 C77.239155,7.17221313 77.4142298,7.14759417 77.59,7.15 C77.7654872,7.14017939 77.9413606,7.16047247 78.11,7.21 C78.2821019,7.24785876 78.4473639,7.31193996 78.6,7.4 L89.17,13.18 L99.69,19 L110.25,24.78 L120.81,30.56 C120.968748,30.6400707 121.113866,30.7446907 121.24,30.87 C121.368877,30.9903343 121.479989,31.1283826 121.57,31.28 C121.66906,31.423285 121.743422,31.5821492 121.79,31.75 C121.837174,31.906298 121.867348,32.0672291 121.88,32.23 Z" id="Path" fill="#0099DA"></path>
            <path d="M109.53,97.66 L106,94.47 L102.45,91.29 L98.89,88.1 L95.34,84.92 C95.2940331,84.8809812 95.243697,84.8474237 95.19,84.82 L95.03,84.82 L94.87,84.82 C94.8138044,84.8096666 94.7561956,84.8096666 94.7,84.82 L90.24,86.6 L85.77,88.38 L81.31,90.17 L76.84,91.95 C76.7340253,91.9868694 76.6428189,92.0570281 76.58,92.15 C76.5214759,92.2379188 76.4807109,92.3364344 76.46,92.44 C76.431361,92.541349 76.431361,92.648651 76.46,92.75 C76.4992204,92.8546868 76.5688759,92.9452391 76.66,93.01 L80.66,95.91 L84.66,98.8 L88.66,101.7 L92.66,104.59 C92.7382123,104.650728 92.8316168,104.688782 92.93,104.7 C93.0182971,104.72476 93.1117029,104.72476 93.2,104.7 C93.288331,104.669358 93.3698486,104.621806 93.44,104.56 C93.5101256,104.492565 93.564724,104.410668 93.6,104.32 L94.06,102.98 L94.52,101.65 L94.98,100.31 L95.44,98.97 C95.5178907,98.7570201 95.6292934,98.5578455 95.77,98.38 C95.9086809,98.2080055 96.074128,98.0594408 96.26,97.94 C96.4450297,97.8245068 96.6477058,97.7400584 96.86,97.69 C97.0815121,97.6496648 97.3084879,97.6496648 97.53,97.69 L100.41,97.97 L103.29,98.25 L106.17,98.53 L109.05,98.81 C109.18269,98.8172179 109.314643,98.7859661 109.43,98.72 C109.535354,98.6517941 109.61871,98.5545462 109.67,98.44 C109.705016,98.3225543 109.705016,98.1974457 109.67,98.08 C109.67962,97.927135 109.629415,97.7765202 109.53,97.66 Z" id="Path" fill="#66C2E9" style="mix-blend-mode: multiply;"></path>
            <path d="M124.05,70.49 L123.3,66 L122.54,61.49 L121.79,57 L121,52.45 L120.22,57.9 L119.44,63.34 L118.66,68.79 L117.87,74.23 L119.01,73.92 L120.15,73.61 L121.28,73.3 L122.42,72.99 C122.68703,72.9173881 122.938048,72.7952714 123.16,72.63 C123.374856,72.4723266 123.558056,72.2755562 123.7,72.05 C123.850491,71.8269429 123.952678,71.5748824 124,71.31 C124.071825,71.0428404 124.088833,70.7639071 124.05,70.49 Z" id="Path" fill="#66C2E9" style="mix-blend-mode: multiply;"></path>
            <path d="M40.08,75.44 C39.4388193,68.9729284 34.9610657,63.5307718 28.7385993,61.655928 C22.5161329,59.7810842 15.7771961,61.8436255 11.67,66.88 C10.358542,68.4829925 9.36724468,70.3230032 8.75,72.3 C7.47666349,76.442692 7.92729746,80.9237962 10,84.73 C12.0058898,88.3945535 15.359219,91.1346 19.35,92.37 C25.5951833,94.29847 32.386304,92.2548091 36.53,87.2 C39.2309462,83.908503 40.5085542,79.6762016 40.08,75.44 L40.08,75.44 Z" id="Path" fill="#023852"></path>
            <path d="M40.23,75.29 C39.3359202,66.4713685 31.4702381,60.0419117 22.65,60.92 C20.8064898,61.1087209 19.0097779,61.6162667 17.34,62.42 C17.9191062,62.700432 18.4832045,63.010853 19.03,63.35 C19.5744925,63.6879805 20.0956658,64.0621562 20.59,64.47 C23.8814044,67.1548275 25.9701705,71.0382294 26.3959742,75.2643781 C26.8217779,79.4905268 25.5496704,83.712552 22.86,87 C22.1199538,87.9101262 21.2777616,88.7321863 20.35,89.45 C19.4219905,90.1792192 18.4158151,90.8030479 17.35,91.31 C18.6456743,91.9284109 20.0176318,92.3722795 21.43,92.63 C27.1590596,93.6678072 32.9996619,91.5115717 36.68,87 C37.9911679,85.4005449 38.9825034,83.5638581 39.6,81.59 C40.2275511,79.5529295 40.441744,77.411 40.23,75.29 Z" id="Path" fill="#081935" opacity="0.5" style="mix-blend-mode: multiply;"></path>
            <path d="M120,30.81 L112,29.65 L103.94,28.5 L95.94,27.34 L87.89,26.19 C87.7511264,26.1648843 87.6088736,26.1648843 87.47,26.19 C87.3397271,26.2208017 87.2149449,26.2713891 87.1,26.34 C86.989151,26.4174302 86.8912708,26.5119353 86.81,26.62 C86.728431,26.7316217 86.6674722,26.8569258 86.63,26.99 L84.09,35.99 L81.56,44.99 L79.02,53.99 L76.48,62.99 C76.3748241,63.3853204 76.0589642,63.6896244 75.66,63.78 C75.4740233,63.8352966 75.2759767,63.8352966 75.09,63.78 C74.8906574,63.7283542 74.7102348,63.6207945 74.57,63.47 L72.48,61.27 L70.38,59.07 L68.14,57 L66.05,54.8 C65.9426711,54.6925401 65.8174727,54.6045629 65.68,54.54 C65.5440941,54.481652 65.3978979,54.4510528 65.25,54.45 C65.1036742,54.447983 64.9581308,54.4716761 64.82,54.52 C64.6784369,54.5781246 64.5494137,54.6630083 64.44,54.77 L62.73,56.41 L61,58 L59.29,59.64 L57.6,61.29 C57.5389775,61.3464376 57.4852297,61.4102632 57.44,61.48 C57.392254,61.5523696 57.3520443,61.6294382 57.32,61.71 C57.2600435,61.8728854 57.2394833,62.0476471 57.26,62.22 L57.54,65 L57.83,67.79 L58.11,70.58 L58.39,73.36 C58.3949288,73.3931511 58.3949288,73.4268489 58.39,73.46 L58.39,73.55 C58.39,73.55 58.39,73.61 58.39,73.64 C58.39,73.67 58.39,73.7 58.39,73.73 L57.49,77.66 L56.59,81.59 L55.69,85.52 L54.79,89.45 C54.754883,89.641704 54.6645129,89.8189684 54.53,89.96 C54.4095864,90.0939215 54.2586534,90.1968303 54.09,90.26 C53.9208446,90.3228898 53.7396827,90.3468169 53.56,90.33 C53.3694205,90.3085692 53.1872264,90.2398167 53.03,90.13 L47.87,86.46 L42.71,82.8 L37.55,79.13 L32.38,75.47 C32.315263,75.4185689 32.2550435,75.3616949 32.2,75.3 C32.1435037,75.2348757 32.0932809,75.1645639 32.05,75.09 C32.0107,75.0160679 31.977264,74.9391651 31.95,74.86 C31.9444234,74.77676 31.9444234,74.69324 31.95,74.61 L31.64,69.52 L31.32,64.43 L31,59.34 L30.69,54.25 L30.69,54.14 C30.685059,54.1034998 30.685059,54.0665002 30.69,54.03 C30.69,54.03 30.69,53.96 30.69,53.93 L30.69,53.82 L33.62,45 L36.55,36.19 L39.47,27.38 L42.4,18.57 C42.4218787,18.4967915 42.4520757,18.4263318 42.49,18.36 C42.5274918,18.2928616 42.5710039,18.229267 42.62,18.17 L42.79,18.02 C42.8506083,17.9706747 42.9179561,17.930266 42.99,17.9 L51.44,13.9 L59.9,9.9 L68.35,5.9 L76.81,1.9 L76.99,1.83 C77.0565789,1.82516272 77.1234211,1.82516272 77.19,1.83 C77.2529446,1.82007607 77.3170554,1.82007607 77.38,1.83 C77.4429028,1.81955591 77.5070972,1.81955591 77.57,1.83 L86.65,4.11 L95.73,6.4 L104.82,8.68 L113.9,10.97 C113.987146,10.9928729 114.07112,11.0264625 114.15,11.07 C114.2327,11.1140904 114.309901,11.1677959 114.38,11.23 C114.44516,11.2918353 114.505346,11.3587089 114.56,11.43 C114.609938,11.5081878 114.650231,11.5921313 114.68,11.68 L116.31,16.09 L117.93,20.51 L119.55,24.92 L121.17,29.33 C121.24349,29.5209896 121.264215,29.7282399 121.23,29.93 C121.189538,30.1159421 121.107485,30.2903043 120.99,30.44 C120.869368,30.5852771 120.714818,30.6986136 120.54,30.77 C120.366407,30.8294111 120.180452,30.8431855 120,30.81 Z" id="Path" fill="#023852"></path>
            <path d="M156.76,250.89 L162.6,253.05 L168.43,255.2 L174.27,257.36 L180.1,259.52 L180.39,259.61 L180.68,259.68 L180.98,259.73 L181.28,259.73 L188.19,260.14 L195.1,260.55 L202,261 L208.91,261.4 C209.187149,261.420606 209.461714,261.467483 209.73,261.54 C209.998764,261.611222 210.259987,261.708343 210.51,261.83 C210.75634,261.958731 210.990616,262.109337 211.21,262.28 C211.431671,262.45334 211.632959,262.651273 211.81,262.87 L213.25,264.6 L214.7,266.33 L216.14,268.06 L217.59,269.79 C217.949325,270.229504 218.217846,270.735955 218.38,271.28 C218.530383,271.806108 218.571225,272.357476 218.5,272.9 C218.439823,273.443406 218.266065,273.968089 217.99,274.44 C217.711945,274.935886 217.329867,275.365724 216.87,275.7 L216.87,275.7 C215.984186,276.3501 215.399692,277.331474 215.25,278.42 C215.17474,278.950744 215.205328,279.491139 215.34,280.01 C215.476132,280.549333 215.724922,281.053728 216.07,281.49 L217.37,283.18 L218.68,284.87 L219.99,286.55 L221.29,288.24 C221.944764,289.094472 222.23909,290.171275 222.11,291.24 C221.969146,292.321775 221.399912,293.301722 220.53,293.96 L216.26,297.2 L212,300.47 L207.73,303.71 L203.48,307 C203.052713,307.320761 202.566984,307.555134 202.05,307.69 C201.551872,307.825028 201.032321,307.862382 200.52,307.8 C200.008258,307.742085 199.512516,307.585893 199.06,307.34 C198.586485,307.09344 198.168017,306.753222 197.83,306.34 L194.29,302 L190.74,297.68 L187.19,293.37 L183.64,289 C183.541201,288.873231 183.434311,288.75298 183.32,288.64 L182.95,288.33 C182.823019,288.23093 182.68937,288.140716 182.55,288.06 L182.12,287.84 L173.3,284 L164.49,280.15 L155.67,276.3 L146.86,272.45 C146.343802,272.211903 145.881171,271.871733 145.5,271.45 C145.131516,271.053863 144.845922,270.588073 144.66,270.08 C144.467866,269.572923 144.382748,269.031572 144.41,268.49 C144.43485,267.927704 144.574373,267.376421 144.82,266.87 L146.53,263.38 L148.24,259.88 L149.95,256.39 L151.66,252.89 C151.888097,252.435223 152.196367,252.025325 152.57,251.68 C152.936147,251.346651 153.359651,251.082385 153.82,250.9 C154.280451,250.710632 154.772208,250.608889 155.27,250.6 C155.779868,250.608176 156.284284,250.706351 156.76,250.89 Z" id="Path" fill="#0099DA"></path>
            <polygon id="Path" fill="#FFFFFF" points="96.85 131.31 101.97 143.36 107.09 155.4 112.21 167.44 117.33 179.49 117.33 182.06 117.33 184.63 117.33 187.2 117.33 189.77 108.26 172.84 99.19 155.91 90.12 138.98 81.05 122.05 85 124.37 88.95 126.68 92.9 129"></polygon>
            <polygon id="Path" fill="#FFFFFF" points="96.85 131.31 84.95 126.22 73.05 121.12 61.15 116.03 49.25 110.93 49.99 106.31 50.72 101.68 51.46 97.06 52.19 92.43 62.23 96.78 72.27 101.13 82.31 105.47 92.34 109.82 93.47 115.19 94.6 120.57 95.72 125.94"></polygon>
            <path d="M33.6,224.45 L33.78,224.86 L33.96,225.27 L34.13,225.68 L34.31,226.09 C34.5552908,226.675993 34.7623905,227.27725 34.93,227.89 C35.0926786,228.497066 35.2096723,229.115462 35.28,229.74 C35.433585,230.994683 35.3998837,232.265223 35.18,233.51 L31.86,252.63 L28.54,271.76 L25.23,290.88 L21.91,310 L131.37,310 L128.26,278.45 L125.15,246.9 L122.05,215.36 L118.94,183.81 C118.94,183.75 118.94,183.7 118.94,183.65 C118.94,183.6 118.94,183.54 118.94,183.49 C118.927868,183.438601 118.911134,183.388398 118.89,183.34 L118.82,183.19 L109.82,167.12 L100.82,151.05 L91.82,134.97 L82.82,118.9 C82.4336243,118.185424 81.9709212,117.51484 81.44,116.9 C80.9196903,116.30222 80.3363035,115.76242 79.7,115.29 C79.077281,114.818132 78.4069775,114.412598 77.7,114.08 C76.9717689,113.746097 76.2110906,113.48807 75.43,113.31 L69.46,112 L63.52,110.66 L57.52,109.31 L51.63,108 C51.0070704,107.857667 50.3687791,107.793838 49.73,107.81 C48.4598976,107.843527 47.217212,108.18681 46.11,108.81 C45.5476947,109.116624 45.0239916,109.489259 44.55,109.92 L40.75,113.41 L37,116.84 L33.2,120.33 L29.4,123.82 C28.9887912,124.175566 28.6136431,124.570812 28.28,125 C27.9605158,125.429107 27.6889022,125.891856 27.47,126.38 C27.2433077,126.864354 27.0657529,127.370217 26.94,127.89 C26.8164049,128.415208 26.7427438,128.950925 26.72,129.49 L28.18,152.14 L29.64,174.79 L31.11,197.44 L32.57,220.09 C32.5896597,220.465233 32.6297189,220.839119 32.69,221.21 C32.74,221.57 32.82,221.94 32.9,222.3 C32.98,222.66 33.09,223.02 33.21,223.38 C33.33,223.74 33.46,224.11 33.6,224.45 Z" id="Path" fill="#023852"></path>
            <path d="M35.36,156.49 L39.58,182.64 L43.79,208.79 L48,235 L52.22,261.15 C52.5057563,262.94276 53.0234301,264.69075 53.76,266.35 C54.4878434,267.981415 55.4148966,269.516427 56.52,270.92 C57.6327905,272.317781 58.9160901,273.570846 60.34,274.65 C61.7906576,275.746595 63.3771756,276.650776 65.06,277.34 L80.06,283.52 L95.06,289.7 L110.06,295.87 L125.06,302.05 L126.5,302.67 L127.95,303.29 L129.39,303.91 L130.83,304.52 L129.9,295.05 L128.97,285.57 L128,276 L127.07,266.52 L104.16,239 L81.22,211.48 L58.29,184 L35.36,156.49 Z" id="Path" fill="#081935" opacity="0.5" style="mix-blend-mode: multiply;"></path>
            <polygon id="Path" fill="#FFFFFF" points="171.35 286.93 169.08 286 166.81 285.07 164.54 284.14 162.28 283.2 165.15 276.24 168.02 269.27 170.9 262.31 173.77 255.34 176.04 256.27 178.3 257.21 180.57 258.14 182.84 259.07 179.96 266.04 177.09 273 174.22 279.97"></polygon>
            <path d="M83,248.94 L83,248.94 C78.1468038,250.407822 72.908246,249.874966 68.45,247.46 C66.2733524,246.292498 64.3415926,244.717214 62.76,242.82 C61.1243422,240.862484 59.9030208,238.593343 59.17,236.15 L53.38,216.93 L47.59,197.71 L41.8,178.49 L36,159.27 C32.9871869,149.160186 38.7134087,138.516834 48.81,135.46 L48.81,135.46 C56.1602321,133.299003 64.0919878,135.707209 69,141.59 C70.6356578,143.547516 71.8569792,145.816657 72.59,148.26 L78.38,167.48 L84.17,186.7 L90,205.92 L95.79,225.14 C97.9751103,232.499402 95.5638864,240.452901 89.66,245.36 C87.7053609,246.992059 85.4395416,248.210022 83,248.94 Z" id="Path" fill="#023852"></path>
            <path d="M86.65,213.88 L109.32,224.37 L132,234.86 L154.67,245.36 L177.35,255.85 L174.49,263.4 L171.64,271 L168.79,278.55 L165.94,286 L142.59,276.84 L119.23,267.68 L95.88,258.51 L72.53,249.35 C70.1552143,248.413485 67.9950138,247.005102 66.18,245.21 C62.6456259,241.706909 60.6000879,236.974588 60.47,232 C60.3733749,226.853619 62.3689052,221.888249 66,218.24 C69.5084582,214.702824 74.2493943,212.660244 79.23,212.54 C81.7680158,212.48649 84.2910209,212.942127 86.65,213.88 L86.65,213.88 Z" id="Path" fill="#023852"></path>
            <path d="M69.24,73.729938 C71.1539604,73.7336188 72.8812351,74.8785776 73.63,76.64 C73.8771066,77.2253199 74.0029753,77.8546638 74.0000515,78.49 C73.8832971,81.0368255 71.7844979,83.0416539 69.235,83.0416539 C66.6855021,83.0416539 64.5867029,81.0368255 64.47,78.49 C64.4701865,77.8539739 64.5994628,77.2246027 64.85,76.64 C65.5879846,74.8696451 67.322011,73.7202108 69.24,73.729938 L69.24,73.729938 Z" id="Path" fill="#FFE700"></path>
            <path d="M260.28,250.22 L254.4,252.39 L248.52,254.57 L242.65,256.74 L236.77,258.91 L236.48,259.01 L236.18,259.08 L235.88,259.13 L235.58,259.13 L228.58,259.54 L221.58,259.95 L214.58,260.36 L207.58,260.77 C207.296273,260.790593 207.015069,260.83746 206.74,260.91 C206.469505,260.980222 206.207836,261.080864 205.96,261.21 C205.710447,261.338631 205.472843,261.489226 205.25,261.66 C205.028329,261.83334 204.827041,262.031273 204.65,262.25 L203.35,264 L201.9,265.74 L200.44,267.48 L199,269.26 C198.628936,269.696903 198.356109,270.208454 198.2,270.76 C198.047389,271.289044 198.003172,271.843455 198.07,272.39 C198.13927,272.934537 198.312401,273.46072 198.58,273.94 C198.868149,274.437568 199.256316,274.869999 199.72,275.21 L199.72,275.21 C200.166064,275.544357 200.543027,275.962073 200.83,276.44 C201.100447,276.908068 201.277073,277.42436 201.35,277.96 C201.429924,278.493867 201.399291,279.038464 201.26,279.56 C201.119706,280.100839 200.871386,280.607683 200.53,281.05 L199.21,282.75 L197.9,284.45 L196.58,286.15 L195.26,287.85 C194.917972,288.286824 194.672564,288.791275 194.54,289.33 C194.401734,289.844744 194.367735,290.381931 194.44,290.91 C194.50924,291.437367 194.678972,291.946563 194.94,292.41 C195.219415,292.890157 195.589635,293.311324 196.03,293.65 L200.33,296.91 L204.63,300.18 L208.92,303.44 L213.22,306.71 C213.651694,307.031838 214.140241,307.269326 214.66,307.41 C215.162164,307.541285 215.684275,307.578578 216.2,307.52 C216.715438,307.458278 217.214362,307.298758 217.67,307.05 C218.148367,306.80651 218.570693,306.465925 218.91,306.05 L222.48,301.7 L226.06,297.34 L229.63,292.99 L233.21,288.64 C233.309383,288.510683 233.419797,288.390231 233.54,288.28 C233.654043,288.166059 233.77785,288.062329 233.91,287.97 C234.165905,287.773809 234.444594,287.609281 234.74,287.48 L243.62,283.6 L252.51,279.72 L261.39,275.84 L270.27,271.95 C270.792901,271.718434 271.260069,271.377435 271.64,270.95 C272.010449,270.549706 272.299183,270.080937 272.49,269.57 C272.673212,269.057134 272.758029,268.514309 272.74,267.97 C272.711701,267.40385 272.568818,266.849329 272.32,266.34 L270.6,262.82 L268.87,259.3 L267.15,255.78 L265.43,252.26 C264.976138,251.349981 264.203943,250.63828 263.26,250.26 C262.794124,250.078398 262.299915,249.980233 261.8,249.97 C261.282254,249.958912 260.766921,250.04367 260.28,250.22 Z" id="Path" fill="#33ADE1"></path>
            <polygon id="Path" fill="#FFE700" points="322.01 99.67 319.74 103.36 317.48 107.05 315.21 110.74 312.94 114.43 312.72 117.67 312.49 120.92 312.27 124.16 312.04 127.41 306.33 145.93 300.61 164.44 294.9 182.96 289.18 201.47 296.8 182.4 304.42 163.32 312.04 144.25 319.66 125.17 320.25 118.79 320.84 112.42 321.43 106.05"></polygon>
            <path d="M356.48,77.74 L359.15,68.88 L361.82,60 L364.49,51.14 L367.16,42.28 C367.292625,41.9832142 367.386723,41.6706755 367.44,41.35 C367.510172,40.9567264 367.553605,40.5591484 367.57,40.16 C367.57,39.75 367.57,39.33 367.57,38.95 C367.560482,38.6142373 367.523695,38.2798033 367.46,37.95 L366.08,32.55 L364.69,27.15 L363.3,21.75 L361.91,16.34 C361.82601,15.9673256 361.64685,15.622787 361.39,15.34 C361.094793,14.9913771 360.759093,14.6791758 360.39,14.41 C360.018332,14.1283604 359.631048,13.8679453 359.23,13.63 C358.84,13.39 358.47,13.18 358.15,13 L353.04,11 L347.94,9 L342.83,7 L337.72,5.05 C337.32,4.82 336.9,4.58 336.47,4.36 C336.051493,4.13072668 335.613025,3.93994281 335.16,3.79 C334.739129,3.6433163 334.295632,3.57222145 333.85,3.57942426 C333.414947,3.58628766 332.989788,3.71072462 332.62,3.94 L321.37,9 L310.07,13.92 L298.78,18.85 L287.48,23.77 L286.68,27.4 L285.88,31.04 L285.07,34.68 L284.27,38.31 L284.27,38.6 C284.27,38.7 284.27,38.81 284.27,38.92 L284.27,39.52 L284.58,40.89 L284.89,42.25 L285.21,43.62 L285.52,44.99 C285.566263,45.1970442 285.593047,45.407964 285.6,45.62 C285.601957,45.8320443 285.578456,46.0435571 285.53,46.25 C285.486485,46.4589843 285.422855,46.6632691 285.34,46.86 C285.249441,47.0543186 285.138842,47.2386512 285.01,47.41 L282.5,50.8 L280,54.19 L277.48,57.57 L275,61 C274.8732,61.1762435 274.762742,61.3636869 274.67,61.56 C274.583927,61.7598957 274.516961,61.9674876 274.47,62.18 C274.428496,62.3906622 274.411716,62.605448 274.42,62.82 C274.421332,63.0390383 274.44818,63.2571756 274.5,63.47 L274.5,63.47 C274.558974,63.6938607 274.639344,63.9115298 274.74,64.12 C274.845642,64.3201002 274.973083,64.5079077 275.12,64.68 C275.269169,64.8542977 275.436817,65.0118875 275.62,65.15 C275.805867,65.2866361 276.007272,65.4007652 276.22,65.49 L277.92,66.21 L279.61,66.94 L281.31,67.66 L283.01,68.38 C283.264332,68.4919003 283.503006,68.6364494 283.72,68.81 C283.928404,68.9817067 284.113322,69.180074 284.27,69.4 C284.426502,69.6214527 284.551057,69.8638298 284.64,70.12 C284.733499,70.3804907 284.787431,70.653523 284.8,70.93 L285.07,75.47 L285.33,80.01 L285.6,84.55 L285.87,89.09 C285.947349,90.5233026 286.33639,91.9224869 287.01,93.19 C288.30866,95.6562507 290.577702,97.4685844 293.27,98.19 C294.654799,98.5665925 296.104821,98.6382406 297.52,98.4 L298.21,98.29 L298.89,98.17 L299.58,98.06 L300.26,97.94 L300.44,97.94 L301.64,97.81 L302.85,97.68 L304.06,97.55 L305.27,97.43 C305.900771,97.3600806 306.536074,97.3400184 307.17,97.37 C307.798205,97.3933198 308.423535,97.466888 309.04,97.59 C309.659182,97.7026815 310.26794,97.8665779 310.86,98.08 C311.458833,98.2878217 312.040589,98.5419219 312.6,98.84 L314.6,103.64 L316.6,108.45 L318.6,113.25 L320.6,118.06 L329.54,114.43 L338.47,110.8 L347.41,107.17 L356.35,103.55" id="Path" fill="#0099DA"></path>
            <path d="M325.36,61.42 L325.61,58.94 L325.86,56.45 L326.12,53.96 L326.37,51.47 C326.365665,51.446868 326.365665,51.423132 326.37,51.4 C326.366717,51.3767821 326.366717,51.3532179 326.37,51.33 C326.386482,51.3264893 326.403518,51.3264893 326.42,51.33 L326.49,51.33 L327.71,50.83 L328.94,50.33 L330.16,49.84 L331.39,49.34 C331.422664,49.3305549 331.457336,49.3305549 331.49,49.34 L331.59,49.34 L331.68,49.39 L331.75,49.47 L332.14,50.19 L332.54,50.9 L332.94,51.61 L333.34,52.33 C333.353642,52.3790695 333.353642,52.4309305 333.34,52.48 C333.333864,52.5297836 333.31679,52.5775929 333.29,52.62 C333.266047,52.6650872 333.227159,52.7004401 333.18,52.72 C333.130663,52.7315143 333.079337,52.7315143 333.03,52.72 L332.28,52.66 L331.52,52.66 L330.77,52.6 L330.02,52.6 L330,52.6 C329.974278,52.5899593 329.945722,52.5899593 329.92,52.6 C329.896891,52.5954192 329.873109,52.5954192 329.85,52.6 C329.831113,52.6252128 329.814387,52.6519744 329.8,52.68 L328.8,54.92 L327.8,57.16 L326.8,59.41 L325.8,61.65 C325.775653,61.7146383 325.724638,61.7656534 325.66,61.79 C325.598228,61.809887 325.531772,61.809887 325.47,61.79 C325.407599,61.7686794 325.352252,61.7306287 325.31,61.68 C325.277987,61.5907016 325.29715,61.4910555 325.36,61.42 L325.36,61.42 Z" id="Path" fill="#66C2E9" style="mix-blend-mode: multiply;"></path>
            <path d="M357.38,78.58 L360.28,68.94 L363.19,59.31 L366.09,49.67 L369,40 C369.060457,39.8468651 369.11057,39.6898457 369.15,39.53 C369.184534,39.3718347 369.207925,39.2114406 369.22,39.05 C369.234974,38.8903504 369.234974,38.7296496 369.22,38.57 C369.20986,38.4056098 369.189824,38.2419799 369.16,38.08 L368.22,33.51 L367.28,29 L366.33,24.43 L365.39,19.85 C365.369455,19.7278322 365.339363,19.6074634 365.3,19.49 C365.25941,19.3742586 365.212677,19.2607642 365.16,19.15 C365.111299,19.0360755 365.054487,18.9257923 364.99,18.82 C364.929202,18.7129964 364.86243,18.6094994 364.79,18.51 L362.65,15.67 L360.51,12.83 L358.37,10 L356.23,7.16 C356.109852,7.00186673 355.976001,6.85463041 355.83,6.72 C355.687163,6.58294814 355.529527,6.46220609 355.36,6.36 C355.195524,6.25107831 355.021472,6.15735812 354.84,6.08 C354.653967,6.00809273 354.463591,5.94797373 354.27,5.9 L347.68,4.45 L341.09,3 L334.5,1.55 L327.9,0.1 L327.49,0.03 L327.07,0.03 L326.65,0.03 C326.51,0.03 326.37,0.09 326.24,0.12 L315.91,3.12 L305.58,6.12 L295.26,9.12 L284.93,12.12 C284.403356,12.2748665 283.922676,12.5564075 283.53,12.94 C283.338567,13.1353366 283.167673,13.349792 283.02,13.58 C282.87474,13.8142606 282.760454,14.0663606 282.68,14.33 L282.16,15.99 L281.64,17.64 L281.12,19.3 L280.6,20.96 C280.502539,21.2844681 280.452027,21.6212168 280.45,21.96 C280.45356,22.2994139 280.50748,22.6364197 280.61,22.96 C280.710966,23.2821097 280.862892,23.585961 281.06,23.86 C281.260565,24.1421852 281.503415,24.3917805 281.78,24.6 L282.66,25.27 L283.55,25.93 L284.43,26.6 L285.32,27.27 C285.525526,27.4284305 285.750739,27.5595248 285.99,27.66 C286.222898,27.7665266 286.4681,27.8437819 286.72,27.89 C286.974412,27.9318203 287.232316,27.9485672 287.49,27.94 C287.751234,27.9303994 288.010093,27.886696 288.26,27.81 L292.26,26.67 L296.26,25.52 L300.26,24.38 L304.26,23.24 C304.910616,23.0331161 305.609384,23.0331161 306.26,23.24 C306.844488,23.4306796 307.366337,23.7762746 307.77,24.24 C308.175822,24.7126883 308.436285,25.2926528 308.52,25.91 C308.614227,26.5741748 308.502541,27.2512716 308.2,27.85 L307.73,28.85 L307.27,29.85 L306.8,30.8 L306.33,31.8 C306.173303,32.1143897 306.068612,32.4521039 306.02,32.8 C305.967093,33.1312339 305.967093,33.4687661 306.02,33.8 C306.067053,34.1495526 306.175378,34.4880693 306.34,34.8 C306.494691,35.1152593 306.700849,35.4025291 306.95,35.65 L308.75,37.45 L310.54,39.25 L312.34,41.05 L314.13,42.85 C314.459281,43.1753548 314.715022,43.567491 314.88,44 C314.968992,44.2145178 315.029506,44.4397664 315.06,44.67 C315.102193,44.8974354 315.118963,45.1288576 315.11,45.36 L314.98,48.14 L314.79,51 L314.67,53.78 L314.54,56.57 L316.15,56.57 L317.76,56.57 L319.38,56.57 L320.99,56.57 L321.23,54.72 L321.47,52.87 L321.7,51.02 L321.94,49.17 C321.984062,48.8484698 322.075029,48.5351373 322.21,48.24 C322.339471,47.9518151 322.507692,47.6826615 322.71,47.44 C322.915721,47.1937798 323.158651,46.9812161 323.43,46.81 C323.699128,46.6264624 323.996352,46.487983 324.31,46.4 L325.44,46.06 L326.56,45.73 L327.69,45.39 L328.82,45.06 C328.989994,45.0090216 329.163924,44.9722288 329.34,44.95 C329.51319,44.9400433 329.68681,44.9400433 329.86,44.95 C330.200245,44.9690291 330.536486,45.0329149 330.86,45.14 L331.63,45.42 L332.39,45.69 L333.16,45.97 L334,46 C334.294943,46.1049004 334.574187,46.2495691 334.83,46.43 C335.078193,46.6083264 335.300329,46.820365 335.49,47.06 C335.680621,47.3015912 335.838642,47.5672017 335.96,47.85 C336.08067,48.137651 336.161419,48.4404587 336.2,48.75 L336.43,50.67 L336.65,52.58 L336.88,54.5 L337.11,56.41 C337.11,56.49 337.11,56.95 337.18,57.66 C337.25,58.37 337.26,59.34 337.31,60.42 C337.36,61.5 337.42,62.71 337.48,63.9 C337.54,65.09 337.6,66.29 337.66,67.34 C337.687699,67.9074744 337.802368,68.4673312 338,69 C338.180206,69.4988772 338.429284,69.9701062 338.74,70.4 C339.052556,70.8290858 339.426564,71.2098325 339.85,71.53 C340.275074,71.8636357 340.746753,72.133167 341.25,72.33 L345.3,73.9 L349.3,75.48 L353.3,77.05 L357.38,78.58 Z" id="Path" fill="#023852"></path>
            <path d="M278.7,61 L280.47,58.62 L282.23,56.23 L284,53.86 L285.77,51.47 L285.43,55.1 L285.09,58.72 L284.74,62.35 L284.4,66 L283.23,65.59 L282.06,65.18 L280.88,64.77 L279.71,64.36 C279.385212,64.2454962 279.093388,64.0532354 278.86,63.8 C278.63494,63.5608858 278.46736,63.2736058 278.37,62.96 C278.272102,62.6361097 278.24818,62.2943706 278.3,61.96 C278.350733,61.6115235 278.488284,61.2814003 278.7,61 L278.7,61 Z" id="Path" fill="#66C2E9" style="mix-blend-mode: multiply;"></path>
            <path d="M300.41,97.87 L304.97,96.42 L309.53,94.97 L314.09,93.51 L318.64,92.06 L320.59,89.59 L322.53,87.12 L324.53,84.65 L326.47,82.17 C326.618954,81.9816358 326.820998,81.8422953 327.05,81.77 C327.263171,81.7149595 327.486829,81.7149595 327.7,81.77 C327.916589,81.8312462 328.113198,81.948522 328.27,82.11 C328.430463,82.2893871 328.53477,82.5119099 328.57,82.75 L329.35,88.42 L330.13,94.08 L330.92,99.75 L331.7,105.41 L328.57,107.71 L325.38,110 L322.25,112.3 L319.11,114.6 L317.48,110.6 L315.85,106.65 L314.21,102.65 L312.58,98.65 C311.827957,98.2921485 311.052907,97.9848012 310.26,97.73 C309.674191,97.5472057 309.075977,97.4068426 308.47,97.31 C308.043295,97.2428238 307.61196,97.2093869 307.18,97.21 C306.906866,97.1952436 306.633134,97.1952436 306.36,97.21 L304.87,97.33 L303.38,97.45 L301.9,97.58 L300.41,97.87 Z" id="Path" fill="#66C2E9" style="mix-blend-mode: multiply;"></path>
            <path d="M320.15,127.94 L330.72,123.42 L341.29,118.9 L351.86,114.38 L362.43,109.86 C362.598411,109.786335 362.751161,109.681108 362.88,109.55 C363.009532,109.423662 363.114627,109.274496 363.19,109.11 C363.263594,108.945667 363.307603,108.769633 363.32,108.59 C363.327828,108.403284 363.300695,108.216749 363.24,108.04 L361.86,103.87 L360.48,99.7 L359.11,95.53 L357.73,91.36 C357.660221,91.1583122 357.547648,90.9741014 357.4,90.82 C357.260672,90.6684717 357.090065,90.5490469 356.9,90.47 C356.70662,90.3899966 356.499274,90.3492072 356.29,90.3499887 C356.077807,90.3606838 355.870119,90.4151591 355.68,90.51 L346.17,95.21 L336.67,99.91 L327.16,104.62 L317.66,109.32 C317.527273,109.383322 317.405694,109.467751 317.3,109.57 C317.193334,109.669036 317.102299,109.783672 317.03,109.91 C316.96242,110.037183 316.908775,110.171295 316.87,110.31 C316.850114,110.455993 316.850114,110.604007 316.87,110.75 L317.19,114.75 L317.5,118.75 L317.82,122.75 L318.13,126.75 C318.149796,126.987492 318.225157,127.217001 318.35,127.42 C318.603596,127.806779 319.019495,128.057055 319.48,128.100036 C319.712989,128.101656 319.9429,128.046752 320.15,127.94 L320.15,127.94 Z" id="Path" fill="#FFFFFF"></path>
            <path d="M395.5,310 L394.21,294.86 L392.93,279.72 L391.64,264.57 L390.36,249.43 C390.342121,249.234318 390.308682,249.040371 390.26,248.85 C390.219757,248.65755 390.159426,248.469855 390.08,248.29 C390.007549,248.106708 389.920607,247.92948 389.82,247.76 C389.721596,247.589931 389.607785,247.429257 389.48,247.28 C389.20454,246.942072 388.98816,246.560027 388.84,246.15 C388.692459,245.755711 388.608087,245.340601 388.59,244.92 C388.570445,244.057903 388.830008,243.212568 389.33,242.51 L389.38,242.44 L389.38,242.37 L389.43,242.31 L389.43,242.24 C389.549759,242.075073 389.656738,241.901233 389.75,241.72 C389.841135,241.539608 389.918035,241.352372 389.98,241.16 C390.040821,240.966963 390.08761,240.769783 390.12,240.57 C390.151135,240.368112 390.167844,240.164263 390.17,239.96 L390.17,133.85 C390.179925,133.663465 390.179925,133.476535 390.17,133.29 C390.139572,133.104708 390.099518,132.921127 390.05,132.74 C389.993786,132.562825 389.927,132.38918 389.85,132.22 C389.769911,132.048169 389.679755,131.881212 389.58,131.72 L386.04,126.27 L382.51,120.81 L379,115.35 L375.47,109.89 C375.361403,109.730691 375.244577,109.57715 375.12,109.43 C374.992558,109.284073 374.851966,109.150176 374.7,109.03 C374.557846,108.902274 374.403813,108.788423 374.24,108.69 C374.071963,108.590148 373.898345,108.5 373.72,108.42 L371.29,107.42 L368.86,106.42 L366.43,105.42 L364,104.24 C363.477022,104.013139 362.909606,103.907176 362.34,103.93 C362.056551,103.93212 361.774437,103.969064 361.5,104.04 C361.222536,104.108425 360.95404,104.20911 360.7,104.34 L350.4,109.51 L340.11,114.68 L329.82,119.84 L319.54,125 C319.320611,125.108583 319.11287,125.239259 318.92,125.39 C318.729358,125.533857 318.551983,125.694498 318.39,125.87 C318.230089,126.050474 318.086211,126.244542 317.96,126.45 C317.831567,126.655255 317.724349,126.873042 317.64,127.1 L310.52,145.69 L303.41,164.28 L296.3,182.87 L289.18,201.46 L289.09,201.73 C289.061996,201.818724 289.038631,201.908846 289.02,202 C289.015228,202.093272 289.015228,202.186728 289.02,202.28 C289.02,202.38 289.02,202.47 289.02,202.56 L287.2,226.66 L285.37,250.76 L283.54,274.86 L281.62,299 L281.39,301.76 L281.15,304.51 L280.92,307.27 L280.69,310.02 L395.5,310.02 L395.5,310 Z" id="Path" fill="#023852"></path>
            <polygon id="Path" fill="#FFFFFF" points="246.28 284.55 249.18 283.35 252.07 282.15 254.97 280.94 257.87 279.74 254.97 272.73 252.08 265.71 249.19 258.69 246.29 251.67 243.39 252.87 240.5 254.08 237.6 255.28 234.7 256.48 237.6 263.5 240.49 270.52 243.38 277.54"></polygon>
            <polygon id="Path" fill="#0099DA" points="315.69 168.43 316.23 169.52 316.77 170.6 317.32 171.69 317.86 172.78 318.56 171.91 319.26 171.04 319.97 170.18 320.67 169.31 320.13 168.22 319.58 167.13 319.04 166.04 318.49 164.96 317.79 165.82 317.09 166.69 316.39 167.56"></polygon>
            <path d="M284.25,269.57 L283.43,278.49 L282.6,287.41 L281.78,296.34 L280.96,305.26 C280.915153,305.693721 281.024944,306.129344 281.27,306.49 C281.491364,306.824857 281.813593,307.080539 282.19,307.22 C282.565268,307.356337 282.972754,307.377234 283.36,307.28 C283.783836,307.165302 284.154864,306.907349 284.41,306.55 L288.85,300.45 L293.28,294.34 L297.72,288.23 L302.16,282.13 C302.393332,281.800755 302.726413,281.555327 303.11,281.43 C303.465704,281.324701 303.844296,281.324701 304.2,281.43 C304.559282,281.524471 304.882756,281.72273 305.13,282 C305.400144,282.299182 305.565178,282.67841 305.6,283.08 L306.01,287.14 L306.43,291.2 L306.84,295.25 L307.26,299.31 C307.29754,299.675855 307.439907,300.023092 307.67,300.31 C307.893903,300.576396 308.183439,300.779761 308.51,300.9 C308.831986,301.007847 309.176129,301.031937 309.51,300.97 C309.889093,300.904266 310.238472,300.722589 310.51,300.45 L325.69,285.23 L340.86,270 L356,254.8 L371.18,239.59 L371.18,239.59 L372.18,220.59 L373.18,201.59 L374.18,182.59 L375.18,163.59 C375.210847,163.168572 375.098053,162.749119 374.86,162.4 C374.642738,162.082636 374.331489,161.841331 373.97,161.71 C373.611266,161.565718 373.21705,161.53432 372.84,161.62 C372.448317,161.729921 372.099468,161.956672 371.84,162.27 L350.02,188.86 L328.2,215.46 L306.49,242 L284.67,268.59 C284.607796,268.660099 284.55409,268.7373 284.51,268.82 C284.460843,268.900173 284.417402,268.983714 284.38,269.07 L284.29,269.34 C284.273357,269.416054 284.260011,269.492792 284.25,269.57 Z" id="Path" fill="#081935" opacity="0.5" style="mix-blend-mode: multiply;"></path>
            <path d="M329.71,248.38 L329.71,248.38 C334.601657,249.849885 339.877385,249.310077 344.37,246.88 C346.561796,245.705177 348.50714,244.119705 350.1,242.21 C351.74525,240.237079 352.973331,237.951012 353.71,235.49 L359.55,216.13 L365.38,196.76 L371.21,177.39 L377.05,158 C377.789567,155.539035 378.027602,152.954651 377.75,150.4 C377.472919,147.931216 376.726168,145.538218 375.55,143.35 C373.142857,138.84302 369.035235,135.484202 364.14,134.02 L364.14,134.02 C361.68101,133.270325 359.094556,133.0321 356.54,133.32 C351.550305,133.867754 346.966526,136.326294 343.75,140.18 C342.10475,142.152921 340.876669,144.438988 340.14,146.9 L334.31,166.27 L328.47,185.64 L322.64,205 L316.81,224.37 C316.060857,226.825662 315.822628,229.408743 316.11,231.96 C316.650231,236.964513 319.122282,241.560591 323,244.77 C324.969964,246.414068 327.25252,247.642091 329.71,248.38 Z" id="Path" fill="#023852"></path>
            <path d="M326,213 L305.17,222.79 L284.34,232.57 L263.5,242.4 L242.67,252.19 L245.54,259.79 L248.41,267.39 L251.29,275 L254.16,282.6 L275.67,274.16 L297.19,265.71 L318.7,257.27 L340.21,248.82 C342.604659,247.879585 344.782368,246.460672 346.61,244.65 C350.171103,241.116575 352.230919,236.344966 352.36,231.33 C352.472818,226.144259 350.481585,221.13371 346.84,217.44 C345.08452,215.679678 343.011253,214.268092 340.73,213.28 C338.44379,212.294037 335.989088,211.757602 333.5,211.7 C330.938275,211.628192 328.388116,212.07022 326,213 Z" id="Path" fill="#023852"></path>
        </g>
    </g>
</svg>