<svg width="440" height="330" xmlns="http://www.w3.org/2000/svg"><g fill-rule="nonzero" fill="none"><path d="M390.66 261.684h-4.514a4.286 4.286 0 00-2.362.702v-.711H258.395l-11.963 3.082-11.964 3.082h-.191a.84.84 0 00-.63.802.812.812 0 00.611.803l5.18 1.422 5.179 1.423-.146-.1a.83.83 0 01-.146-.1l7.049 1.941 7.048 1.934h125.362v-.912c.344.226.719.4 1.113.52.407.128.831.193 1.258.19h4.505a4.359 4.359 0 004.367-4.358v-5.425a4.359 4.359 0 00-4.358-4.359l-.01.064zM369.085 56.58V43.816c0-1.5-.563-2.945-1.577-4.049a5.471 5.471 0 00-3.885-1.824 5.626 5.626 0 00-5.8 5.626v13.013h-80.917V43.815c-.001-1.498-.56-2.942-1.569-4.049a5.471 5.471 0 00-3.884-1.824 5.626 5.626 0 00-5.809 5.626v13.013h-25.532v177.483a8.845 8.845 0 008.855 8.854h139.057a6.602 6.602 0 006.602-6.602V56.581h-25.541z" opacity=".3" fill="#023852"/><path d="M264.14 267.994v-14.362l-11.973 3.091-11.927 3.064a.82.82 0 00-.62.803.793.793 0 00.602.802l11.982 3.283 11.936 3.319z" fill="#B7B3AB"/><path d="M240.021 261.465l5.18 1.423 5.17 1.459-.493-.329c-.164-.118-.328-.237-.474-.365a3.337 3.337 0 01-.483-.465c-.144-.17-.25-.369-.31-.583a1.286 1.286 0 01.046-.702 2.28 2.28 0 00.155-.675.766.766 0 00-.447-.784 4.678 4.678 0 01-.83-.465 1.322 1.322 0 01-.365-.575 2.088 2.088 0 01-.1-.675v-.328-.328l-3.547.912-3.547.912a.82.82 0 00-.62.802c.015.38.291.698.665.766z" fill="#1F1B1E"/><path d="M391.608 253.696h5.125a4.049 4.049 0 014.057 4.058v6.036a4.049 4.049 0 01-4.048 4.049h-5.125a4.049 4.049 0 01-4.058-4.058v-6.036a4.049 4.049 0 014.049-4.049z" fill="#023852"/><path fill="#0099DA" d="M389.547 260.818l-62.69-.037-62.699-.027V267.957l62.69.028 62.7.036v-3.602z"/><path fill="#38AFE2" d="M389.556 253.687l-62.699-.037-62.69-.027v3.602l-.009 3.602 62.7.027 62.69.037v-3.602z"/><path d="M248.146 90.447v137.881a6.602 6.602 0 006.602 6.602h141.337a6.602 6.602 0 006.602-6.602V90.447H248.146z" fill="#FFF"/><path fill="#DDE2E6" d="M290.091 151.477h-27.556v-27.556h27.556v13.778zM322.827 151.477H295.26v-27.556H322.827v13.778zM355.553 151.477h-27.565v-27.556h27.565v13.778zM388.28 151.477H360.723v-27.556H388.28v13.778zM290.091 185.079h-27.556v-27.565h27.556V171.3zM322.827 185.079H295.26v-27.565H322.827V171.3zM355.553 185.079h-27.565v-27.565h27.565V171.3zM290.091 218.544h-27.556V190.98h27.556v13.787zM322.827 218.544H295.26V190.98H322.827v13.787zM355.553 218.544h-27.565V190.98h27.565v13.787zM388.28 218.544H360.723V190.98H388.28v13.787z"/><path d="M248.146 48.602v52.96h154.523v-52.96H248.146zm30.866 26.8a9.337 9.337 0 116.602-2.736 9.292 9.292 0 01-6.602 2.735zm92.79 0a9.337 9.337 0 116.602-2.736 9.274 9.274 0 01-6.602 2.735z" fill="#023852"/><g fill="#DDE2E6"><path d="M279.322 70.34a5.635 5.635 0 01-5.626-5.635V35.59a5.635 5.635 0 015.626-5.59 5.635 5.635 0 015.635 5.626v29.08a5.635 5.635 0 01-5.635 5.634zM371.492 70.34a5.635 5.635 0 01-5.635-5.635V35.59a5.635 5.635 0 015.635-5.59 5.635 5.635 0 015.627 5.626v29.08a5.635 5.635 0 01-5.627 5.634z"/></g><path d="M371.492 57.912a5.617 5.617 0 01-5.635-5.626v12.42a5.635 5.635 0 005.635 5.634 5.635 5.635 0 005.627-5.635v-12.42a5.617 5.617 0 01-5.627 5.627zM279.377 57.912a5.617 5.617 0 01-5.626-5.626v12.42a5.635 5.635 0 1011.261 0v-12.42a5.617 5.617 0 01-5.635 5.626z" fill="#DDE2E6"/><path d="M210.532 38.207H43.927a5.964 5.964 0 00-5.927 6v279.775A5.982 5.982 0 0043.927 330h166.605a5.982 5.982 0 005.973-5.973V44.207a5.964 5.964 0 00-5.973-6z" opacity=".3" fill="#023852"/><path d="M46.672 316.222V36.383a5.945 5.945 0 015.918-5.918h166.668a5.945 5.945 0 015.955 5.918v279.839a5.945 5.945 0 01-5.955 5.954H52.59a5.945 5.945 0 01-5.954-5.954h.036z" fill="#023852"/><path fill="#0099DA" d="M57.669 43.067v248.498H214.225V43.066h-78.283z"/><path d="M73.562 274.769V77.945a5.809 5.809 0 015.818-5.808h113.134a5.809 5.809 0 015.817 5.808V274.77a5.818 5.818 0 01-5.817 5.818H79.37a5.818 5.818 0 01-5.809-5.818z" fill="#FFF"/><path d="M214.088 267.912l-78.146-82.587-78.137-82.586V43.067H214.088v112.422z" opacity=".2" fill="#F3F5F6"/><path d="M135.942 313.176a6.83 6.83 0 10.005-13.66 6.83 6.83 0 00-.005 13.66z" fill="#27324C"/><g fill="#DDE2E6"><path d="M113.502 186.994H89.328V211.167h24.174v-12.091zM182.556 186.994h-24.164V211.167h24.164v-12.091zM148.024 186.994H123.86V211.167h24.164v-12.091z"/></g><g fill="#DDE2E6"><path d="M113.502 153.228H89.328v24.164h24.174V165.31zM182.556 153.228h-24.164v24.164h24.164V165.31zM148.024 153.228H123.86v24.164h24.164V165.31z"/></g><g fill="#DDE2E6"><path d="M113.502 120.748H89.328V144.92h24.174V132.83zM182.556 120.748h-24.164V144.92h24.164V132.83zM148.024 120.748H123.86V144.92h24.164V132.83z"/></g><g fill="#DDE2E6"><path d="M113.502 86.973H89.328V111.146h24.174V99.064zM182.556 86.973h-24.164V111.146h24.164V99.064zM148.024 86.973H123.86V111.146h24.164V99.064z"/></g><path d="M171.24 266.225h-70.587c-6.22 0-11.265-5.04-11.27-11.261V240.72c0-6.224 5.046-11.27 11.27-11.27h70.587c6.221.005 11.262 5.05 11.262 11.27v14.244c-.006 6.217-5.044 11.256-11.262 11.26z" opacity=".2" fill="#023852"/><path fill="#F3F5F6" d="M168.833 171.474l-2.882-2.872-2.881-2.882 1.058-1.057 1.048-1.049 1.833 1.824 1.824 1.833 4.176-4.186 4.186-4.176 1.048 1.048 1.058 1.058-5.234 5.225z"/><path d="M246.094 290.854c.082.255 1.34 7.167 2.58 14.015 1.24 6.848 2.454 13.623 2.454 13.623l2.78-3.565 2.736-3.565 3.739 5.735 3.739 5.736 2.088-1.56 2.088-1.568-3.474-5.471-3.484-5.471 4.177-1.213 4.167-1.222-11.854-7.732-11.736-7.742z" opacity=".3" fill="#023852"/><path d="M248.456 285.529c.091.255 1.35 7.167 2.59 14.015l2.452 13.623 2.736-3.565 2.781-3.566 3.739 5.736 3.738 5.745 2.089-1.569 2.079-1.568-3.475-5.471-3.474-5.471 4.167-1.213 4.177-1.222-11.854-7.732-11.745-7.742z" fill="#F5F7F8"/><path fill="#FFE700" d="M388.28 185.079H360.723v-27.565H388.28V171.3zM171.24 258.948h-70.587c-6.224 0-11.27-5.046-11.27-11.27v-14.243c.005-6.221 5.05-11.262 11.27-11.262h70.587c6.218.005 11.256 5.044 11.262 11.262v14.243c0 6.22-5.04 11.265-11.262 11.27z"/><path fill="#023852" d="M371.82 179.325l-3.236-3.237-3.237-3.237 1.057-1.058 1.049-1.048 2.188 2.188 2.18 2.18 4.896-4.897 4.906-4.897 1.049 1.049 1.048 1.058-5.945 5.945z"/></g></svg>