<svg width="440" height="330" xmlns="http://www.w3.org/2000/svg"><defs><linearGradient x1="0%" y1="50%" x2="99.999%" y2="50%" id="a"><stop stop-color="#FFF" stop-opacity="0" offset="0%"/><stop stop-color="#FEF7E2" stop-opacity=".14" offset="8%"/><stop stop-color="#FCE9B3" stop-opacity=".36" offset="22%"/><stop stop-color="#FBDE8A" stop-opacity=".56" offset="36%"/><stop stop-color="#FAD468" stop-opacity=".72" offset="49%"/><stop stop-color="#F9CD4F" stop-opacity=".84" offset="63%"/><stop stop-color="#F8C73C" stop-opacity=".93" offset="76%"/><stop stop-color="#F8C431" stop-opacity=".98" offset="88%"/><stop stop-color="#F8C32D" offset="100%"/></linearGradient></defs><g transform="translate(25)" fill="none" fill-rule="evenodd"><path d="M188.988 328.97a158.72 158.72 0 01-85.087-24.68l-.943-.613.592-.921.943.603c73.882 46.737 172.005 24.646 218.743-49.237 46.737-73.883 24.645-172.017-49.237-218.754C200.116-11.369 101.96 10.722 55.245 84.605a157.874 157.874 0 00-21.763 55.135l-1.096-.208a158.97 158.97 0 0121.927-55.508C101.379 9.626 200.182-12.62 274.58 34.436s96.643 145.869 49.587 220.267c-29.325 46.317-80.359 74.354-135.179 74.267z" fill="#66C2E9" fill-rule="nonzero"/><path d="M32.068 194.174a158.345 158.345 0 0041.815 84.791" stroke="#059AD6"/><circle fill="#FFE700" fill-rule="nonzero" cx="324.88" cy="254.308" r="9.461"/><path fill="#0099DA" fill-rule="nonzero" d="M324.31 249.671h1.162v9.264h-1.162z"/><path fill="#0099DA" fill-rule="nonzero" d="M320.133 253.683h9.264v1.162h-9.264z"/><circle fill="#023852" fill-rule="nonzero" cx="154.574" cy="14.252" r="3.947"/><circle fill="#FFE700" fill-rule="nonzero" cx="46.353" cy="239.738" r="2.478"/><circle fill="#023852" fill-rule="nonzero" cx="86.129" cy="47.559" r="16.873"/><path fill="#F3F5F6" fill-rule="nonzero" d="M78.433 40.148h2.96v14.976h-2.96zM90.843 41.76h2.96v13.353h-2.96zM82.61 43.788h2.96v11.325h-2.96zM86.798 47.428h2.96v7.685h-2.96z"/><path d="M283.668 55.102a1.338 1.338 0 01-1.271 1.404h-28.703a1.338 1.338 0 01-1.293-1.37V12.53h29.108a1.93 1.93 0 011.94 1.919v40.652h.22z" fill="#023852" fill-rule="nonzero" opacity=".3"/><path d="M296.825 282.386a4.385 4.385 0 101.282-3.224 5.482 5.482 0 00-1.282 3.224z" fill="#0099DA" fill-rule="nonzero"/><path d="M383.25 120.357c0-.12 0-.12.12-.252s.373-.12.482-.12l6.162-.122c.12 0 .12-.11.12-.23a.12.12 0 00-.12-.12l-6.162-.132c-.23 0-.35 0-.482-.12-.131-.121-.12-.121-.12-.23a.888.888 0 01.252-.494l2.192-2.291a.153.153 0 000-.23h-.24l-2.303 2.192c-.11.132-.23.252-.351.252-.12 0-.132 0-.252-.12-.12-.121-.11-.253-.11-.483l-.12-6.282a.11.11 0 00-.11-.12.12.12 0 00-.132.12l-.12 6.282a.746.746 0 01-.11.483c0 .12-.12.12-.241.12a.866.866 0 01-.482-.252l-2.303-2.193h-.252a.164.164 0 000 .23l2.193 2.292c.156.116.25.298.252.493 0 .11 0 .11-.132.23a.669.669 0 01-.471.121l-6.271.132c-.132 0-.132.12-.132.24 0 .11.132.11.132.11l6.271.121a.724.724 0 01.471.12c.132 0 .132.132.132.253 0 .12-.132.23-.252.35L378.568 123a.186.186 0 000 .252h.23l2.303-2.193c.12-.11.23-.23.35-.23.121 0 .132 0 .253.12a.746.746 0 01.12.483l.11 6.271a.12.12 0 00.12.12c.065.002.121-.045.132-.109l.12-6.27c0-.253 0-.374.121-.483.12-.11.11-.12.23-.12.121 0 .253.12.373.23l2.292 2.192h.24a.186.186 0 000-.252l-2.192-2.291a.406.406 0 00-.12-.362z" fill="#F3F5F6" fill-rule="nonzero"/><path d="M249.594 57.01h34.36c.684 0 1.238-.555 1.238-1.239V8.508c0-.685-.554-1.24-1.239-1.24h-34.359a1.25 1.25 0 00-1.239 1.24v47.285a1.173 1.173 0 001.096 1.239.263.263 0 00.143-.022z" fill="#0099DA" fill-rule="nonzero"/><path fill="#F3F5F6" fill-rule="nonzero" d="M254.791 33.767h24.262v1h-24.262zM254.791 42.67h24.262v1h-24.262zM254.791 37.966h18.572v1h-18.572zM254.791 47h18.572v1h-18.572zM254.791 16.303h24.262v1h-24.262zM254.791 25.348h24.262v1h-24.262zM254.791 20.633h18.572v1h-18.572zM254.791 29.547h18.572v1h-18.572z"/><path d="M273.483 7.269h-23.231a2.083 2.083 0 00-2.193 2.006v42.308a2.083 2.083 0 002.094 2.138h23.363a2.084 2.084 0 002.105-2.061V9.374a1.995 1.995 0 00-1.896-2.105h-.242z" fill="#023852" fill-rule="nonzero" opacity=".3"/><path d="M234.366 50.344h34.414a1.25 1.25 0 001.239-1.239V1.831A1.26 1.26 0 00268.78.58h-34.414a1.239 1.239 0 00-1.228 1.25v47.263a1.162 1.162 0 001.096 1.25h.132z" fill="#E0E4E6" fill-rule="nonzero"/><path fill="#023852" fill-rule="nonzero" d="M239.683 25.841h24.262v1h-24.262zM239.683 35.127h24.262v1h-24.262zM239.683 30.544h18.572v1h-18.572zM239.683 11.972h24.262v1h-24.262zM239.683 21.258h24.262v1h-24.262zM239.683 16.555h18.572v1h-18.572zM239.683 39.819h18.572v1h-18.572z"/><path d="M102.201 311.362h-27.08a1.381 1.381 0 01-1.359-1.36v-37.275c0-.75.609-1.36 1.36-1.36h27.08c.75 0 1.359.61 1.359 1.36v37.276a1.6 1.6 0 01-1.36 1.36z" fill="#33ADE1" fill-rule="nonzero"/><path fill="#E1EBF7" fill-rule="nonzero" d="M79.068 282.276h16.456v1H79.068zM79.068 295.728h16.456v1H79.068zM79.068 289.008h12.685v1H79.068zM79.068 302.175h12.685v1H79.068z"/><path d="M32.101 194.755c-1.712.002-3.42-.171-5.098-.515a24.843 24.843 0 01-4.747-1.47 25.808 25.808 0 01-4.298-2.335 25.435 25.435 0 01-9.187-11.139 25.644 25.644 0 01-1.47-4.747 25.217 25.217 0 01-.515-5.098v-6.841h50.63v6.841c.001 1.713-.171 3.42-.516 5.098a24.876 24.876 0 01-1.48 4.747 24.58 24.58 0 01-2.324 4.298 25.391 25.391 0 01-11.139 9.176c-1.53.648-3.12 1.14-4.747 1.47a25.316 25.316 0 01-5.109.515z" fill="#C8D0D3" fill-rule="nonzero"/><path d="M41.924 163.717v19.954l.516-.209.504-.24.482-.264.472-.285.45-.318.438-.329.416-.362.406-.372c.23-.242.46-.483.669-.746.208-.263.416-.526.603-.8.186-.274.362-.57.526-.866a8.87 8.87 0 00.439-.921c.134-.311.252-.63.35-.954.099-.329.187-.669.263-1.009.077-.34.121-.68.154-1.03.033-.351 0-.713 0-1.097v-10.174h-6.688v.022zM16.774 163.717v10.174c0 .362 0 .713.055 1.097.032.346.087.69.164 1.03.066.34.154.68.253 1.009.098.324.215.643.35.954a10.135 10.135 0 00.965 1.787c.187.285.395.537.603.8.212.262.439.51.68.746.12.131.263.252.395.372l.416.362.439.33.45.317.47.285.483.263.504.241.516.209v-19.954h-6.743v-.022z" fill="#023852" fill-rule="nonzero"/><path d="M32.726 163.717h-9.21v19.954l.44.153.449.143.45.11.46.098.471.077.482.055h12.904l.483-.055.471-.077.46-.099.45-.11.45-.142.438-.153v-19.954h-9.198z" fill="#023852" fill-rule="nonzero"/><path d="M32.726 170.317c-.346 0-.691.033-1.03.099a6.304 6.304 0 00-.944.296 5.087 5.087 0 00-.866.471 6.72 6.72 0 00-.745.614 4.934 4.934 0 00-1.085 1.612c-.132.307-.231.626-.297.954a4.791 4.791 0 000 2.039c.064.328.163.648.296.954.125.303.28.593.46.866.374.534.838.998 1.371 1.37.276.177.566.332.866.46.303.134.62.233.943.297a5.384 5.384 0 002.05 0c.328-.065.648-.165.954-.296.297-.132.582-.286.855-.46.27-.182.52-.391.746-.626.229-.23.438-.48.625-.745.181-.273.335-.563.46-.866.133-.306.233-.626.296-.954a4.791 4.791 0 000-2.04 4.813 4.813 0 00-.296-.953c-.125-.3-.279-.586-.46-.855a5.098 5.098 0 00-1.37-1.37 5.482 5.482 0 00-.856-.472c-.31-.122-.629-.22-.953-.296a5.187 5.187 0 00-1.02-.099z" fill="#0099DA" fill-rule="nonzero"/><path d="M47.055 162.61v2.193a25.501 25.501 0 01-1.984 9.856 25.808 25.808 0 01-2.314 4.33 25.556 25.556 0 01-6.84 6.83 25.216 25.216 0 01-9.067 3.849c-1.682.339-3.394.511-5.11.515H19.286l-.603-.077-.603-.076-.537-.253-.592-.098c.526.394 1.096.778 1.633 1.096.537.318 1.096.69 1.721 1.009.625.318 1.195.603 1.81.866.613.263 1.25.515 1.885.734.636.22 1.294.406 1.951.57.658.165 1.338.307 2.018.428.68.12 1.37.197 2.072.252a27.08 27.08 0 002.116.088c1.716.002 3.428-.17 5.109-.515a24.843 24.843 0 004.747-1.47 25.391 25.391 0 0011.139-9.176 24.58 24.58 0 002.324-4.298 24.876 24.876 0 001.48-4.747c.345-1.677.517-3.385.515-5.098v-6.84H47.055v.032z" fill="#F3F5F6" fill-rule="nonzero" opacity=".3"/><path d="M59.203 165.976H5.953c-.213 0-.427-.023-.636-.066a3.026 3.026 0 01-.592-.175 5.12 5.12 0 01-.537-.296 3.212 3.212 0 01-.471-.395 3.059 3.059 0 01-.384-.46 4.385 4.385 0 01-.296-.549 3.388 3.388 0 01-.187-.592 2.984 2.984 0 01-.065-.636v-4.517a3.077 3.077 0 01.252-1.228c.083-.187.182-.366.296-.537.11-.171.238-.33.384-.471a4.09 4.09 0 01.471-.395c.17-.11.35-.205.537-.285a3.08 3.08 0 011.228-.252h53.25a3.135 3.135 0 011.228.252c.187.078.367.173.537.285.167.12.324.252.471.395.146.142.274.3.384.471.122.165.221.346.296.537a3.077 3.077 0 01.252 1.228v4.517c.001.214-.021.427-.066.636-.044.203-.106.401-.186.592a2.653 2.653 0 01-.296.548c-.113.166-.241.32-.384.46a3.212 3.212 0 01-.471.396 4.21 4.21 0 01-.537.296c-.19.08-.39.138-.592.175-.21.043-.423.066-.636.066z" fill="#9DADB7" fill-rule="nonzero"/><path fill="#CED6DB" fill-rule="nonzero" d="M56.528 156.174H1.009l.087.264.088.263.088.263.087.263H64.235l.077-.132.076-.131.088-.132.077-.131.077-.132.076-.131.077-.132.077-.132H58.61z"/><path fill="#CED6DB" fill-rule="nonzero" d="M1.36 157.227H64.233V160.286H1.36V157.61z"/><path d="M2.96 139.642h59.96c.2-.023.402-.023.602 0 .192.043.38.106.56.186a2.95 2.95 0 011.271 1.107c.1.164.184.337.252.515.065.186.112.377.143.57.016.201.016.403 0 .604l-.11 1.688-.12 1.688-.11 1.689-.11 1.677-.12 1.688-.11 1.689-.11 1.688-.12 1.689H1.008L.9 154.43l-.11-1.688-.12-1.689-.11-1.688-.11-1.677L.34 146l-.12-1.688-.11-1.688a2.752 2.752 0 010-.603c.031-.194.079-.385.143-.57.069-.18.153-.352.252-.516.104-.16.221-.31.351-.45.124-.143.268-.269.428-.372.154-.112.32-.207.493-.285.18-.08.367-.143.56-.186a2.74 2.74 0 01.624 0z" fill="#DDE2E6" fill-rule="nonzero"/><path d="M20.754 148.347a3.76 3.76 0 00-.263-1.294 3.147 3.147 0 00-.307-.57 4.385 4.385 0 00-.406-.494 3.464 3.464 0 00-.493-.405 3.563 3.563 0 00-.57-.307 3.76 3.76 0 00-1.294-.263 3.76 3.76 0 00-1.294.263c-.593.25-1.1.67-1.458 1.206a2.587 2.587 0 00-.307.57c-.089.2-.155.41-.197.625a3.379 3.379 0 000 1.338c.042.214.108.424.197.624.08.198.184.385.307.56.362.532.868.95 1.458 1.205.2.089.41.155.625.198a3.38 3.38 0 001.338 0 2.96 2.96 0 00.625-.198c.199-.084.39-.187.57-.307.176-.12.341-.255.493-.405.147-.155.283-.32.406-.494.12-.176.222-.363.307-.559a3.76 3.76 0 00.263-1.293z" fill="#FFE700" fill-rule="nonzero"/><path d="M9.012 147.733H8.65a.603.603 0 00-.164.087l-.132.11-.11.131a1.195 1.195 0 00-.087.165.963.963 0 000 .164 1.217 1.217 0 000 .187.965.965 0 000 .186.822.822 0 000 .176c.052.107.118.206.197.296l.132.11.164.087H9.363l.164-.088.132-.11c.079-.089.145-.188.197-.295a.822.822 0 000-.176.965.965 0 000-.186 1.217 1.217 0 000-.187.963.963 0 000-.164 1.195 1.195 0 00-.088-.165l-.11-.131-.13-.11a.603.603 0 00-.165-.087h-.351z" fill="#0099DA" fill-rule="nonzero"/><path d="M62.93 139.652H32.89v26.313h26.313c.21 0 .42-.021.625-.066.2-.04.394-.103.58-.186.185-.078.361-.173.527-.285.163-.113.317-.237.46-.373.143-.14.272-.295.384-.46.11-.171.205-.351.285-.538.082-.187.144-.381.186-.58a3.782 3.782 0 000-.626v-2.587h1.92v-3.048l.076-.132.077-.142.076-.132.088-.131.077-.132.077-.131.076-.132.077-.132.12-1.688.11-1.677.11-1.689.11-1.688.12-1.688.11-1.689.11-1.677.12-1.689a3.65 3.65 0 000-.603 2.807 2.807 0 00-.746-1.535 2.818 2.818 0 00-.92-.668 3.65 3.65 0 00-.56-.176 2.752 2.752 0 00-.548-.033z" fill="#DDE2E6" fill-rule="nonzero" style="mix-blend-mode:multiply"/><path d="M33.493 172.126a1.305 1.305 0 011.097-.066c.346.12.63.372.79.702.154.35.154.748 0 1.096a1.392 1.392 0 01-.692.79 1.36 1.36 0 01-1.096 0 1.381 1.381 0 01-.855-1.754c.136-.35.41-.627.756-.768z" fill="#F3F5F6" fill-rule="nonzero"/><path d="M385.398 159.814v-3.804a1.732 1.732 0 00-1.096-1.677 1.272 1.272 0 00-.669-.11H350.26a1.096 1.096 0 01-.57-.11 1.71 1.71 0 01-1.096-1.008l-.329-.779-.932-1.93-.899-1.896-.329-.778a2.302 2.302 0 00-1.096-.998c-.23 0-.34-.11-.56-.11h-17.738a1.842 1.842 0 00-1.897 1.787v3.465a2.017 2.017 0 00-1.096 1.677v41.749h-.11v5.942a1.984 1.984 0 001.897 1.897l58.994.11a1.875 1.875 0 001.996-1.755.625.625 0 000-.142v-40.072a2.28 2.28 0 00-1.097-1.458z" fill="#DDE2E6" fill-rule="nonzero" style="mix-blend-mode:multiply"/><path d="M346.675 149.805a2.061 2.061 0 01-1.677-.998l-.34-.79-.888-1.896-.899-1.908-.34-.79a1.854 1.854 0 00-1.677-.997H323.17a1.875 1.875 0 00-1.908 1.787v45.674a1.875 1.875 0 001.798 1.897h57.087a1.865 1.865 0 001.897-1.787V151.7a1.854 1.854 0 00-1.788-1.896h-33.58z" fill="#FFE700" fill-rule="nonzero"/><path d="M346.675 149.805a2.061 2.061 0 01-1.677-.998l-.34-.79-.888-1.896-.899-1.908-.34-.79a1.854 1.854 0 00-1.677-.997H323.17a1.875 1.875 0 00-1.908 1.787v45.674a1.875 1.875 0 001.798 1.897h57.087a1.865 1.865 0 001.897-1.787V151.7a1.854 1.854 0 00-1.788-1.896h-33.58z" fill="url(#a)" fill-rule="nonzero" style="mix-blend-mode:multiply"/><path fill="#F3F5F6" fill-rule="nonzero" d="M323.922 163.24l.019-10.745 55.19.097-.02 10.744z"/><path d="M346.445 155.341a1.732 1.732 0 01-1.677-1.096l-.33-.79-.898-1.907-.9-1.897-.339-.778a1.984 1.984 0 00-1.677-1.097h-18.298a1.984 1.984 0 00-1.897 1.897v47.67a2.006 2.006 0 001.897 1.896h58.873a2.017 2.017 0 001.908-1.897v-40.104a1.995 1.995 0 00-1.908-1.897h-34.754z" fill="#FFE700" fill-rule="nonzero"/><path fill="#0099DA" fill-rule="nonzero" d="M334.374 175.24v-1.667l37.276.11v1.667zM334.342 178.803v-1.666l23.955.065v1.678zM334.363 182.476v-1.678l23.956.066v1.678z"/><path d="M67.973 124.698h62.492l-1.579-1.578-1.578-1.568a2.489 2.489 0 00-.877-.592 2.598 2.598 0 00-1.042-.209h-3.596a2.74 2.74 0 01-1.93-.8l-.559-.559-.559-.56a2.697 2.697 0 00-1.918-.8H96.676a2.763 2.763 0 00-1.097.209c-.33.14-.631.34-.888.592l-1.096 1.096-1.096 1.097c-.25.258-.554.46-.888.592-.348.143-.72.214-1.097.208H74.288a2.324 2.324 0 00-.625.077c-.207.048-.41.117-.603.208l-2.653 1.338-2.434 1.25zM102.892 182.399H90.01a1.984 1.984 0 00-1.414.592l-1.93 1.93-1.93 1.93a2.04 2.04 0 01-1.425.592h-6.578a2.04 2.04 0 00-.767.153 1.83 1.83 0 00-.647.438l-1.206 1.195-1.195 1.206a2.006 2.006 0 001.414 3.42h36.399a2.006 2.006 0 001.381-3.453l-3.892-3.716-3.892-3.717a1.951 1.951 0 00-1.381-.559l-.055-.011z" fill="#CED6DB" fill-rule="nonzero"/><path d="M279.985 170.317c-.059-46.59-35.398-85.561-81.76-90.164-46.361-4.603-88.673 26.66-97.892 72.328-9.218 45.668 17.654 90.896 62.17 104.637 44.518 13.742 92.207-8.47 110.334-51.389a90.626 90.626 0 007.148-35.412z" fill="#33ADE1" fill-rule="nonzero"/><path d="M152.304 239.223c.045-.099.096-.194.154-.285.063-.09.133-.174.208-.253l7.4-7.356 7.412-7.4a.833.833 0 00.12-.154 1.26 1.26 0 00.153-.35 1.195 1.195 0 000-.198v-6.896a1.568 1.568 0 01.132-.636 1.59 1.59 0 01.362-.548 1.612 1.612 0 011.173-.483h4.057l.175-.087.143-.12 2.927-2.928 2.927-2.927a.833.833 0 00.154-.296 1.195 1.195 0 00.153-.351 1.195 1.195 0 000-.198v-8.694a1.02 1.02 0 00-.066-.372c-.056-.12-.13-.231-.219-.33a1.096 1.096 0 00-.318-.208.92.92 0 00-.384-.076h-9.362c-.117.01-.234.01-.351 0l-.33-.11a1.765 1.765 0 01-.306-.186 2.467 2.467 0 01-.263-.23l-7.84-8.87-7.849-8.88a1.02 1.02 0 00-.164-.143.56.56 0 00-.176-.099.702.702 0 00-.197-.065.68.68 0 00-.208 0h-26.565c-.127 0-.253.022-.373.065a1.096 1.096 0 00-.318.22 1.03 1.03 0 00-.219.318 1.096 1.096 0 00-.077.383v.274a.965.965 0 000 .187.92.92 0 000 .186c.023.062.052.12.088.176.038.052.082.1.132.142l3.41 3.42 3.42 3.421c.078.077.148.161.208.253.062.088.114.184.154.285.043.102.076.209.098.318.011.105.011.212 0 .317v10a.998.998 0 000 .186.932.932 0 00.066.186c.023.061.052.12.088.175.037.054.077.105.12.154l2.884 2.883 2.883 2.884.154.12.175.088c.06.028.122.05.187.066h2.247c.219-.001.435.043.636.131.204.079.387.203.537.362a1.6 1.6 0 01.362.537c.088.2.133.417.132.636v40.51a.318.318 0 010 .154.515.515 0 01-.11.11 94.398 94.398 0 004.846 2.696 81.422 81.422 0 005.021 2.401v-13.88a1.491 1.491 0 010-.317c.047-.117.114-.225.197-.318zM190.019 164.364h1.622c.077.01.154.01.23 0a.833.833 0 00.22-.066l.197-.098c.063-.046.122-.097.175-.154l.658-.658.658-.657a1.743 1.743 0 01.603-.395 1.36 1.36 0 01.34-.11H200.609l.22-.066.197-.11.175-.142 3.662-3.661 3.662-3.662c.05-.056.098-.115.142-.176a1.25 1.25 0 00.11-.208.767.767 0 00.066-.208 1.634 1.634 0 000-.23v-5.888a1.634 1.634 0 000-.23.833.833 0 00-.066-.22 1.776 1.776 0 00-.11-.197 1.096 1.096 0 00-.142-.175l-.636-.636-.625-.625a.713.713 0 00-.175-.142.888.888 0 00-.198-.11l-.219-.066a.822.822 0 00-.23 0h-12.18a2.324 2.324 0 00-1.722.713 2.445 2.445 0 00-.712 1.71v6.72a1.82 1.82 0 010 .351c-.02.122-.057.24-.11.351a1.743 1.743 0 01-.165.318c-.067.099-.144.19-.23.274l-1.041 1.097-1.097 1.041c-.05.056-.098.114-.142.176a1.25 1.25 0 00-.11.208.767.767 0 00-.066.208 1.634 1.634 0 000 .23v4.474c.001.154.03.306.088.449a1.184 1.184 0 00.625.625c.148.012.298-.007.439-.055zM98.408 163.586l7.674 7.674 7.675 7.675.131.11.154.076h7.378a.965.965 0 00.636-.263.877.877 0 00.263-.636v-6.94a1.568 1.568 0 011.568-1.568H137.8l.153-.087.143-.11 1.83-1.831 1.831-1.842a.69.69 0 00.121-.131l.077-.154a.965.965 0 000-.164 1.009 1.009 0 000-.176v-4.484a1.6 1.6 0 01.12-.603c.08-.188.195-.36.34-.504.148-.149.323-.268.516-.35.188-.076.389-.113.592-.11h7.444l.164-.055.165-.143.131-.11 3.783-3.782 3.76-3.782.11-.132c.033-.052.063-.107.087-.164a.91.91 0 000-.165.45.45 0 000-.175v-8.771a.45.45 0 000-.175.91.91 0 000-.165 1.195 1.195 0 00-.087-.164l-.11-.132-4.385-4.385-4.386-4.386a.45.45 0 00-.142-.11l-.154-.087-.164-.055h-6.852a.888.888 0 00-.823.548.888.888 0 00-.065.34v7.214a1.568 1.568 0 01-.976 1.447c-.191.08-.396.121-.603.121h-11.051c-.102.01-.205.01-.307 0a1.009 1.009 0 01-.296-.088 1.228 1.228 0 01-.263-.142 1.36 1.36 0 01-.23-.241l-1.886-1.875-1.875-1.886a.998.998 0 01-.197-.23 2.193 2.193 0 01-.143-.274 3.026 3.026 0 01-.088-.296 1.392 1.392 0 010-.307v-3.99a1.392 1.392 0 010-.308c.025-.1.054-.199.088-.296.041-.094.089-.186.143-.274.06-.082.125-.159.197-.23l4.385-4.386 4.386-4.385a.69.69 0 00.12-.132.669.669 0 00.077-.153.965.965 0 00.055-.164 1.009 1.009 0 000-.176v-8.65a.877.877 0 00-.548-.822.899.899 0 00-.34-.077H120.532l-1.228.482-1.239.483a.318.318 0 01-.142 0 .318.318 0 01-.143 0 90.843 90.843 0 00-19.657 50.059.35.35 0 01.153 0 .274.274 0 01.132.044zM247.39 119.71a.91.91 0 01-.23.066.943.943 0 01-.241 0H241.437l-.087.066-.494.493-.493.493a1.26 1.26 0 01-1.743 0l-2.643-2.642-2.642-2.642-.087-.066a.285.285 0 00-.1 0h-11.774l-.088.066-6.282 6.282-6.27 6.446a.263.263 0 00-.067.088.285.285 0 00-.054.099v.098a.373.373 0 000 .11v4.287a.526.526 0 000 .22.581.581 0 00.296.295.526.526 0 00.219 0h1.25a.493.493 0 00.219 0 .581.581 0 00.296-.296.526.526 0 000-.22v-1.096a1.096 1.096 0 01.099-.471c.06-.151.15-.29.263-.406.12-.11.256-.199.405-.263.148-.067.31-.1.472-.098h1.951a.855.855 0 01.242 0l.23.065c.076.03.15.067.22.11l.185.154 1.349 1.359 1.348 1.348c.057.058.109.12.154.187.047.065.087.135.12.208.028.075.05.152.066.23.006.08.006.161 0 .242v1.425c-.001.16-.03.32-.087.471a1.217 1.217 0 01-.274.395 1.349 1.349 0 01-.395.274c-.151.057-.31.086-.472.088h-1.556a1.381 1.381 0 01-.472-.088 1.348 1.348 0 01-.394-.274 1.217 1.217 0 01-.275-.395 1.381 1.381 0 01-.087-.471.493.493 0 000-.22.581.581 0 00-.296-.295.526.526 0 00-.22 0h-2.532l-.088.054a.175.175 0 00-.088.066l-1.93 1.93-1.94 1.93-.065.087-.055.099v2.62c.016.03.034.06.055.088l.065.087 2.05 2.05 2.04 2.04s0 .055.087.066l.1.054H217.82l.231.077a.756.756 0 01.208.11l.187.153.965.954.953.965c.057.057.109.12.154.186.047.066.087.135.12.208l.066.23c.006.081.006.162 0 .242v12.531a.45.45 0 000 .208c.026.07.067.135.12.187.052.05.111.09.176.12.073.01.147.01.22 0h5.46l.098-.054.088-.066 1.436-1.447 1.436-1.437a1.36 1.36 0 01.198-.153l.208-.11.23-.076h3.015c.032.009.066.009.099 0h.098l.088-.077 1.096-1.097 1.097-1.096.186-.153.208-.11.242-.077h5.284l.23.077a.822.822 0 01.22.11l.186.153 1.524 1.535 1.535 1.524c.057.057.108.12.153.186.043.07.08.143.11.22.034.073.06.15.077.23.005.08.005.16 0 .241v2.258c0 .163-.034.323-.1.472-.06.148-.149.282-.262.395a1.26 1.26 0 01-.406.274c-.15.057-.31.087-.471.087H230.09a.713.713 0 00-.22 0 .625.625 0 00-.175.121.493.493 0 00-.12.186.45.45 0 000 .209v1.239a.34.34 0 000 .11.318.318 0 000 .109v.098l.076.077 7.489 7.488 7.477 7.488.087.066h1.58l.087-.066 5.36-5.36 5.351-5.351.186-.164.22-.11.23-.066a.855.855 0 01.241 0h7.554c.162-.006.323.024.471.088a1.26 1.26 0 01.67.669c.067.148.1.309.098.471v4.33a.373.373 0 000 .11.482.482 0 000 .11c.016.03.034.06.055.088.02.034.045.063.076.087l1.93 1.93 1.93 1.94.087.066.099.055h1.359c.163-.002.324.031.472.099a1.26 1.26 0 01.669.668c.063.15.093.31.087.472v10.843c-.01.069-.01.139 0 .208.034.066.074.129.12.186l.187.121c.07.01.14.01.209 0h2.74c.082-.001.161.03.22.088a.34.34 0 01.098.197 90.372 90.372 0 002.193-11.402c.511-3.933.768-7.896.768-11.862a90.745 90.745 0 00-22.903-60.398l-4.758 4.769-4.616 4.846a.822.822 0 01-.186.153 1.02 1.02 0 01-.198.121zM182.783 107.804h-8.903a1.7 1.7 0 01-.34 0 1.93 1.93 0 01-.328-.11 1.26 1.26 0 01-.296-.153 1.743 1.743 0 01-.264-.22l-1.962-1.962-1.962-1.963a.866.866 0 00-.165-.131.614.614 0 00-.186-.099l-.198-.066h-7.543l-.317-.11a1.612 1.612 0 01-.307-.153 2.324 2.324 0 01-.263-.22l-.307-.306-.318-.318-.176-.143-.197-.098H156.82a.636.636 0 00-.186.066l-.165.087a.888.888 0 00-.153.132l-3.29 3.289-3.288 3.289-.132.153-.098.187c-.024.064-.042.13-.055.197a.68.68 0 000 .208v5.197a.636.636 0 000 .208c.01.068.029.134.055.198l.098.186c0 .066.088.11.132.165l1.272 1.271 1.271 1.272a1.656 1.656 0 01.373.56c.043.106.076.216.099.328a1.7 1.7 0 010 .34v6.765c-.006.069-.006.138 0 .208.013.067.031.133.055.197l.098.187.132.153 4.692 4.692 4.682 4.682a.252.252 0 00.131.066h.099a.274.274 0 00.088-.055.186.186 0 00.054-.143v-4.385a1.787 1.787 0 010-.34c.022-.11.055-.216.1-.318.044-.105.095-.208.153-.307.064-.095.137-.183.219-.263l2.763-2.763 2.762-2.763c.083-.08.17-.152.264-.219.096-.065.199-.12.306-.164.106-.045.217-.078.33-.1a1.7 1.7 0 01.34 0h4.297l.197-.065a.767.767 0 00.187-.099.581.581 0 00.153-.131l4.32-4.32 4.32-4.32.13-.153.1-.186a1.326 1.326 0 000-.197.68.68 0 000-.209v-5.668a1.096 1.096 0 00-.077-.417 1.162 1.162 0 00-.23-.34 1.096 1.096 0 00-.351-.23.987.987 0 00-.285-.076zM198.92 139.236h3.685l.098-.055.088-.066.943-.943.954-.953.065-.077.055-.099v-.11-3.859c.01-.069.01-.139 0-.208a.68.68 0 00-.12-.186l-.187-.12a.636.636 0 00-.208 0h-2.665l-.098.054-.087.066-1.437 1.447-1.436 1.436a.296.296 0 00-.077.088.208.208 0 000 .099.175.175 0 000 .098.373.373 0 000 .11v2.763a.526.526 0 000 .219.46.46 0 00.121.175.395.395 0 00.175.12.493.493 0 00.132 0zM248.114 186.532H243.871a2.04 2.04 0 01-.34-.11 1.743 1.743 0 01-.318-.164 1.392 1.392 0 01-.274-.23l-9.1-9.1-9.1-9.1-.175-.142-.208-.11a1.283 1.283 0 00-.22-.065h-.23l-17.683.175-17.684.175h-.395l-.187.088-.164.12-1.502 1.294-1.502 1.294a1.009 1.009 0 00-.296.406.943.943 0 00-.077.23.932.932 0 000 .252v10.174c0 .15.03.3.088.439.056.144.142.275.252.384.112.106.242.191.384.252.139.057.288.087.438.087h.406c.24 0 .478.044.702.132.222.095.423.233.592.406a1.787 1.787 0 01.548 1.293v4.155a.822.822 0 000 .23.767.767 0 00.066.209c.026.072.059.142.098.208l.154.176 3.497 3.497 3.498 3.508c.057.054.12.102.186.143.06.045.127.082.197.11l.22.065h18.045c.24 0 .479.044.702.132.222.095.423.233.592.405a1.787 1.787 0 01.548 1.294v22.618a.746.746 0 00.066.438c.024.07.057.137.099.198.045.067.096.129.153.186l3.99 3.99 3.992 3.991a.998.998 0 00.175.143l.208.11c.07.033.143.055.22.065a.713.713 0 00.219 0h6.578a1.26 1.26 0 00.45-.087 1.184 1.184 0 00.624-.625 1.26 1.26 0 00.088-.45v-6.578a1.82 1.82 0 010-.35c.025-.12.062-.238.11-.351.043-.112.099-.218.164-.318.065-.101.142-.193.23-.274l3.553-3.553 3.54-3.54a.998.998 0 00.143-.176c.083-.128.143-.269.176-.417a.822.822 0 000-.23v-16.171c0-.489.193-.958.537-1.305.172-.17.377-.305.603-.395a1.71 1.71 0 01.702-.142H244.113a.724.724 0 00.219-.066.844.844 0 00.197-.11c.067-.04.129-.089.186-.142l2.061-2.072 2.073-2.061c.053-.058.1-.12.142-.187a.844.844 0 00.11-.197.724.724 0 00.065-.22 1.49 1.49 0 000-.218v-2.632a1.26 1.26 0 00-.087-.45 1.184 1.184 0 00-.625-.624 1.26 1.26 0 00-.34-.11z" fill="#023852" fill-rule="nonzero"/><path d="M183.846 114.546a.68.68 0 010 .208c.005.066.005.132 0 .198l-.098.186-.132.154-4.32 4.32-4.396 4.275a.581.581 0 01-.153.132.767.767 0 01-.187.098l-.197.066h-4.32a1.7 1.7 0 00-.34 0 1.634 1.634 0 00-.329.099 1.655 1.655 0 00-.57.383l-2.762 2.763-2.763 2.763c-.082.08-.155.168-.22.263a2.675 2.675 0 00-.153.307 1.535 1.535 0 00-.099.318c-.01.113-.01.227 0 .34v4.385a.186.186 0 01-.055.143.274.274 0 01-.087.055h-.099a.252.252 0 01-.131-.066l-4.682-4.682-4.692-4.692-.132-.153-.098-.187a1.326 1.326 0 01-.055-.197 1.348 1.348 0 010-.208v-6.765a1.7 1.7 0 000-.34 1.875 1.875 0 00-.099-.329 1.655 1.655 0 00-.373-.559l-1.271-1.272-1.272-1.271s-.088-.099-.132-.165l-.098-.186a.855.855 0 01-.055-.197.636.636 0 010-.209v-5.196a.68.68 0 010-.209c.013-.067.031-.133.055-.197l.098-.186.132-.154 3.289-3.289 3.289-3.289a.888.888 0 01.153-.132l.165-.087a.636.636 0 01.186-.066H158.773l.197.099.176.142.317.318.307.307c.083.08.17.153.264.22.096.061.199.113.307.153l.317.11h7.543l.198.065c.067.022.13.056.186.099.06.037.115.081.165.131l1.962 1.963 1.962 1.962c.08.082.169.155.264.22.091.064.19.115.296.153.106.046.216.083.328.11a1.7 1.7 0 00.34 0h8.903a.987.987 0 01.405.077c.131.053.25.131.351.23.096.098.174.214.23.34.053.132.079.274.077.416v5.68l-.022.032zM249.276 190.326c.005.073.005.146 0 .219a.724.724 0 01-.066.22.844.844 0 01-.11.196c-.04.067-.088.13-.142.187l-2.072 2.061-2.061 2.072c-.057.054-.12.101-.186.143a.844.844 0 01-.198.11.724.724 0 01-.22.065h-1.928a1.71 1.71 0 00-.702.143c-.226.089-.431.223-.603.394a1.853 1.853 0 00-.538 1.305v16.149c.011.076.011.154 0 .23-.033.148-.092.29-.175.417a.998.998 0 01-.142.175l-3.542 3.541-3.552 3.553a1.392 1.392 0 00-.23.274c-.066.1-.12.206-.164.318-.048.113-.085.23-.11.35a1.82 1.82 0 000 .351v6.578a1.26 1.26 0 01-.088.45 1.184 1.184 0 01-.625.625 1.26 1.26 0 01-.45.088h-6.577a.713.713 0 01-.22 0 .724.724 0 01-.219-.066l-.208-.11a.998.998 0 01-.176-.142l-3.99-3.991-4.002-4.002a1.26 1.26 0 01-.153-.186.833.833 0 01-.1-.197.746.746 0 01-.066-.439l.001-22.519a1.787 1.787 0 00-.548-1.294 1.842 1.842 0 00-.592-.405 1.897 1.897 0 00-.702-.132h-18.09l-.219-.066a.844.844 0 01-.197-.11 1.195 1.195 0 01-.186-.142l-3.498-3.508-3.497-3.563-.154-.176a1.217 1.217 0 01-.098-.208.767.767 0 01-.066-.208.822.822 0 010-.23v-4.112a1.787 1.787 0 00-.548-1.294 1.842 1.842 0 00-.592-.405 1.897 1.897 0 00-.702-.132h-.406c-.15 0-.299-.03-.438-.087a1.294 1.294 0 01-.384-.253 1.096 1.096 0 01-.252-.383 1.162 1.162 0 01-.088-.439v-10.174a.932.932 0 010-.252.943.943 0 01.077-.23c.063-.158.165-.298.296-.406l1.502-1.294 1.502-1.293.165-.12.186-.089h.395l17.684-.175 17.684-.175h.23c.075.015.148.037.22.065l.207.11.176.142 9.1 9.1 9.1 9.1c.08.088.172.165.273.23.1.066.207.12.318.165.11.046.224.083.34.11H248.103c.154 0 .306.03.45.087.28.12.505.344.624.625.057.143.087.295.088.45v2.63l.011-.021zM277.134 193.867a.34.34 0 00.077-.099.811.811 0 010 .011l-.077.088zM188.856 158.729a1.634 1.634 0 010-.23.767.767 0 01.066-.209 1.25 1.25 0 01.11-.208c.044-.061.092-.12.142-.175l1.097-1.042 1.041-1.096c.086-.084.163-.176.23-.274.066-.1.121-.207.165-.318.053-.111.09-.23.11-.351a1.82 1.82 0 000-.35v-6.722a2.467 2.467 0 011.502-2.247c.296-.119.612-.179.931-.175h12.192a.822.822 0 01.23 0l.22.065c.07.028.136.065.197.11a.713.713 0 01.175.143l.625.624.636.636c.053.054.101.112.142.176.041.063.078.129.11.197.032.07.054.144.066.22.005.076.005.153 0 .23v5.887c.005.077.005.154 0 .23a.767.767 0 01-.066.208 1.25 1.25 0 01-.11.209c-.044.06-.091.12-.142.175l-3.662 3.662-3.662 3.662-.175.142-.197.11-.22.066H194.722a1.36 1.36 0 00-.34.11 1.743 1.743 0 00-.603.394l-.658.658-.658.658a1.173 1.173 0 01-.175.153l-.197.099a.833.833 0 01-.22.066.822.822 0 01-.23 0h-1.622a1.096 1.096 0 01-.45-.088 1.184 1.184 0 01-.625-.625 1.217 1.217 0 01-.088-.45v-4.473.143zM198.362 135.947a.373.373 0 010-.11.175.175 0 010-.098.208.208 0 010-.1.296.296 0 01.077-.087l1.436-1.436 1.524-1.458.087-.066.1-.055h2.707a.636.636 0 01.208 0l.187.12a.68.68 0 01.12.187c.01.07.01.14 0 .208V137.022l-.055.098-.065.077-.954.953-.943.943-.088.066-.098.055h-3.684a.493.493 0 01-.22 0 .395.395 0 01-.175-.12.46.46 0 01-.12-.176.526.526 0 010-.22v-2.751h-.044z" fill="#023852" fill-rule="nonzero"/><path d="M253.376 105.907a91.205 91.205 0 00-19.153-14.625c25.92 34.5 24.042 82.462-4.494 114.832-28.537 32.37-75.884 40.245-113.363 18.856a94.455 94.455 0 004.002 4.945 72.88 72.88 0 004.385 4.648 90.997 90.997 0 10128.623-128.656z" fill="#C4E8F6" fill-rule="nonzero" style="mix-blend-mode:multiply"/><path d="M256.457 244.375h-6.578a.943.943 0 00-.395.077.965.965 0 00-.329.22l-.986.986-.998.987a.987.987 0 01-.329.23c-.126.05-.26.076-.394.077h-3.366a.92.92 0 00-.384.077c-.127.049-.243.124-.34.219l-.614.614-.614.614a1.03 1.03 0 00-.219 1.096c.153.386.528.638.943.636h18.583a.998.998 0 00.943-.647.976.976 0 00-.241-1.096l-1.985-1.897-1.995-1.897a.767.767 0 00-.318-.208.92.92 0 00-.384-.088z" fill="#CED6DB" fill-rule="nonzero"/><path d="M257.027 135.048h32.978a1.82 1.82 0 001.294-3.114l-.614-.614-.614-.614a1.754 1.754 0 00-.592-.394 1.908 1.908 0 00-.702-.143h-2.192a1.897 1.897 0 01-.702-.131 2.193 2.193 0 01-.592-.395l-1.436-1.436-1.425-1.437a1.754 1.754 0 00-.592-.394 1.908 1.908 0 00-.702-.143h-8.464a1.864 1.864 0 00-1.294.537l-2.905 2.906-2.894 2.894c-.169.17-.37.305-.592.395a1.71 1.71 0 01-.702.142h-4.912c-.286 0-.567.067-.822.198a1.94 1.94 0 00-.647.548l-.438.603-.439.592z" fill="#FDF8FA" fill-rule="nonzero" opacity=".5"/><path d="M113.625 128.996a1.7 1.7 0 00-.504-1.195 1.645 1.645 0 00-1.184-.493 1.678 1.678 0 00-1.195.493 1.7 1.7 0 000 2.39c.316.318.747.495 1.195.493.445.003.872-.175 1.184-.493a1.7 1.7 0 00.504-1.195zM119.951 165.702a1.688 1.688 0 00-1.677-1.689 1.688 1.688 0 00-1.688 1.688c0 .933.755 1.69 1.688 1.69.445.002.872-.176 1.184-.494.317-.317.495-.747.493-1.195zM197.189 149.42a1.645 1.645 0 00-.494-1.183 1.677 1.677 0 00-2.379 0 1.645 1.645 0 00-.493 1.184 1.688 1.688 0 103.366 0zM221.462 143.303c0-.928-.75-1.682-1.678-1.688-.447.003-.876.18-1.195.493a1.688 1.688 0 001.195 2.883c.446.003.873-.175 1.184-.493.318-.316.496-.746.494-1.195zM153.96 196.509a1.677 1.677 0 00-.494-1.195 1.645 1.645 0 00-1.184-.493 1.688 1.688 0 000 3.376 1.688 1.688 0 001.678-1.688zM166.645 112.715a1.688 1.688 0 00-1.683-1.69 1.688 1.688 0 00-1.683 1.69 1.688 1.688 0 103.366 0zM214.347 140.135a1.688 1.688 0 00-2.884-1.184 1.645 1.645 0 00-.493 1.184 1.688 1.688 0 003.377 0zM150.978 144.18a1.688 1.688 0 00-1.683-1.69 1.688 1.688 0 00-1.683 1.69 1.688 1.688 0 103.366 0zM218.49 127.472a1.688 1.688 0 10-3.376-.017 1.688 1.688 0 003.377.017z" fill="#FFE700" fill-rule="nonzero"/></g></svg>