<?xml version="1.0" encoding="UTF-8"?>
<svg width="440px" height="330px" viewBox="0 0 440 330" version="1.1" xmlns="http://www.w3.org/2000/svg" xmlns:xlink="http://www.w3.org/1999/xlink">
    <title>Graphic elements / Icons / Rich icons / submit-for-feedback</title>
    <g id="Graphic-elements-/-Icons-/-Rich-icons-/-submit-for-feedback" stroke="none" stroke-width="1" fill="none" fill-rule="evenodd">
        <g id="submit-for-feedback" transform="translate(5.000000, 7.000000)" fill-rule="nonzero">
            <path d="M192.87,11.4498801 L420.18,11.4498801 C422.773599,11.4374543 425.275334,12.4095568 427.18,14.17 C429.022636,15.8633621 430.07701,18.2474784 430.09,20.75 L430.09,150.35 C430.07701,152.852522 429.022636,155.236638 427.18,156.93 C425.275334,158.690443 422.773599,159.662546 420.18,159.65 L370.77,159.65 L370.77,200.45 L349,180.05 L327.22,159.65 L192.87,159.65 C190.276401,159.662546 187.774666,158.690443 185.87,156.93 C184.027364,155.236638 182.97299,152.852522 182.96,150.35 L182.96,20.75 C182.97299,18.2474784 184.027364,15.8633621 185.87,14.17 C187.774666,12.4095568 190.276401,11.4374543 192.87,11.4498801 Z" id="Path" fill="#023852" opacity="0.2" style="mix-blend-mode: multiply;"></path>
            <path d="M237.86,127.76993 L10.56,127.76993 C7.96695433,127.760442 5.46627526,128.732134 3.56,130.49 C1.71736379,132.183362 0.662990179,134.567478 0.65,137.07 L0.65,266.67 C0.662990179,269.172522 1.71736379,271.556638 3.56,273.25 C5.46627526,275.007866 7.96695433,275.979558 10.56,275.97 L60,275.97 L60,316.77 L81.78,296.37 L103.52,276 L237.86,276 C240.453046,276.009558 242.953725,275.037866 244.86,273.28 C246.702636,271.586638 247.75701,269.202522 247.77,266.7 L247.77,137.07 C247.75701,134.567478 246.702636,132.183362 244.86,130.49 C242.953725,128.732134 240.453046,127.760442 237.86,127.76993 Z" id="Path" fill="#023852" opacity="0.2" style="mix-blend-mode: multiply;"></path>
            <path d="M246.77,119.26988 L19.46,119.26988 C16.8664009,119.257454 14.3646663,120.229557 12.46,121.99 C10.6173638,123.683362 9.56299018,126.067478 9.55,128.57 L9.55,258.16 C9.56299018,260.662522 10.6173638,263.046638 12.46,264.74 C14.3615065,266.506677 16.8644829,267.482838 19.46,267.47 L68.87,267.47 L68.87,308.27 L90.65,287.87 L112.43,267.47 L246.77,267.47 C249.36533,267.481832 251.86795,266.50581 253.77,264.74 C255.612636,263.046638 256.66701,260.662522 256.68,258.16 L256.68,128.57 C256.66701,126.067478 255.612636,123.683362 253.77,121.99 C251.86426,120.231277 249.36323,119.259448 246.77,119.26988 Z" id="Path" fill="#0099DA"></path>
            <g id="Group" opacity="0.8" style="mix-blend-mode: multiply;" transform="translate(69.000000, 182.000000)" fill="#023852">
                <path d="M99.1999921,13.37 C99.2007736,19.356573 103.429838,24.5091355 109.301357,25.6771819 C115.172875,26.8452283 121.051954,23.7035225 123.343865,18.173043 C125.635775,12.6425635 123.702347,6.26324175 118.725763,2.93567859 C113.74918,-0.391884573 107.115144,0.258852396 102.88,4.49 C100.520652,6.84244172 99.1962592,10.0382604 99.1999921,13.37 L99.1999921,13.37 Z" id="Path" opacity="0.2" style="mix-blend-mode: multiply;"></path>
                <path d="M49.8899921,13.37 C49.8907736,19.356573 54.1198385,24.5091355 59.9913566,25.6771819 C65.8628747,26.8452283 71.7419541,23.7035225 74.0338646,18.173043 C76.325775,12.6425635 74.3923466,6.26324175 69.4157634,2.93567859 C64.4391802,-0.391884573 57.8051443,0.258852396 53.57,4.49 C51.2106525,6.84244172 49.8862592,10.0382604 49.8899921,13.37 Z" id="Path" opacity="0.2" style="mix-blend-mode: multiply;"></path>
                <path d="M0.589968259,13.37 C0.599485206,19.3458554 4.82769165,24.4833827 10.6901117,25.6422482 C16.5525318,26.8011137 22.417478,23.6587705 24.6999794,18.1359881 C26.9824807,12.6132056 25.0472484,6.24713998 20.0772008,2.92907351 C15.1071532,-0.388992968 8.48560363,0.264457176 4.26,4.49 C1.90338198,6.8434576 0.58250282,10.0394813 0.589968259,13.37 L0.589968259,13.37 Z" id="Path" opacity="0.2" style="mix-blend-mode: multiply;"></path>
            </g>
            <path d="M171.549972,191.06 C171.550775,197.047902 175.781675,202.201219 181.654826,203.36787 C187.527977,204.53452 193.407269,201.389505 195.69657,195.856507 C197.985872,190.323508 196.047442,183.943878 191.066943,180.619784 C186.086443,177.295691 179.451313,177.953142 175.22,182.19 C172.863965,184.539757 171.542951,187.732507 171.549972,191.06 Z" id="Path" fill="#FFFFFF"></path>
            <path d="M122.239972,191.06 C122.240775,197.047902 126.471675,202.201219 132.344826,203.36787 C138.217977,204.53452 144.097269,201.389505 146.38657,195.856507 C148.675872,190.323508 146.737442,183.943878 141.756943,180.619784 C136.776443,177.295691 130.141313,177.953142 125.91,182.19 C123.553965,184.539757 122.232951,187.732507 122.239972,191.06 L122.239972,191.06 Z" id="Path" fill="#FFFFFF"></path>
            <path d="M72.9299719,191.06 C72.9307746,197.047902 77.161675,202.201219 83.0348259,203.36787 C88.9079769,204.53452 94.7872688,201.389505 97.0765704,195.856507 C99.365872,190.323508 97.4274423,183.943878 92.4469425,180.619784 C87.4664427,177.295691 80.8313126,177.953142 76.6,182.19 C74.2439646,184.539757 72.9229506,187.732507 72.9299719,191.06 L72.9299719,191.06 Z" id="Path" fill="#FFFFFF"></path>
            <path d="M181.17,0.329874968 L408.48,0.329874968 C411.07533,0.318168162 413.57795,1.29418982 415.48,3.06 C417.322636,4.75336208 418.37701,7.13747835 418.39,9.64 L418.39,139.23 C418.37701,141.732522 417.322636,144.116638 415.48,145.81 C413.575253,147.571504 411.0744,148.546837 408.48,148.54 L359.06,148.54 L359.06,189.34 L337.29,168.94 L315.51,148.54 L181.17,148.54 C178.575228,148.548828 176.073672,147.573221 174.17,145.81 C172.327364,144.116638 171.27299,141.732522 171.26,139.23 L171.26,9.64 C171.27299,7.13747835 172.327364,4.75336208 174.17,3.06 C176.071506,1.29332322 178.574483,0.317162404 181.17,0.329874968 Z" id="Path" fill="#023852"></path>
            <path d="M309.000013,76.43 C308.995278,82.4068015 304.76987,87.5482311 298.907221,88.7107823 C293.044572,89.8733334 287.176972,86.7333263 284.891914,81.2105835 C282.606856,75.6878407 284.54055,69.3200155 289.510721,66.0004413 C294.480893,62.6808671 301.103737,63.3337865 305.33,67.56 C307.684159,69.9110114 309.004835,73.1029451 309.000013,76.43 L309.000013,76.43 Z" id="Path" fill="#023852" opacity="0.2" style="mix-blend-mode: multiply;"></path>
            <path d="M358.350013,76.43 C358.345278,82.4068015 354.11987,87.5482311 348.257221,88.7107823 C342.394572,89.8733334 336.526972,86.7333263 334.241914,81.2105835 C331.956856,75.6878407 333.89055,69.3200155 338.860721,66.0004413 C343.830893,62.6808671 350.453737,63.3337865 354.68,67.56 C357.034159,69.9110114 358.354835,73.1029451 358.350013,76.43 L358.350013,76.43 Z" id="Path" fill="#023852" opacity="0.2" style="mix-blend-mode: multiply;"></path>
            <path d="M305.700032,72.13 C305.713522,78.1167161 301.496555,83.2794529 295.627648,84.4613508 C289.758741,85.6432488 283.87215,82.5151967 281.567349,76.989905 C279.262549,71.4646134 281.181334,65.0806547 286.150424,61.7416292 C291.119515,58.4026037 297.755218,59.0382964 302,63.26 C304.365165,65.6060775 305.696892,68.7986226 305.700032,72.13 Z" id="Path" fill="#FFFFFF"></path>
            <path d="M257.360013,76.43 C257.355278,82.4068015 253.12987,87.5482311 247.267221,88.7107823 C241.404572,89.8733334 235.536972,86.7333263 233.251914,81.2105835 C230.966856,75.6878407 232.90055,69.3200155 237.870721,66.0004413 C242.840893,62.6808671 249.463737,63.3337865 253.69,67.56 C256.044159,69.9110114 257.364835,73.1029451 257.360013,76.43 Z" id="Path" fill="#023852" opacity="0.2" style="mix-blend-mode: multiply;"></path>
            <path d="M254.000017,72.13 C254.005978,78.1230594 249.776984,83.2854721 243.899995,84.4592672 C238.023006,85.6330624 232.135423,82.4912061 229.838821,76.9556468 C227.54222,71.4200875 229.47646,65.0331004 234.458323,61.7017576 C239.440185,58.3704149 246.08166,59.0228697 250.32,63.26 C252.680645,65.6074799 254.005513,68.8008448 254.000017,72.13 L254.000017,72.13 Z" id="Path" fill="#FFFFFF"></path>
            <path d="M355.000013,72.13 C354.999225,78.1179023 350.768325,83.2712193 344.895174,84.4378698 C339.022023,85.6045202 333.142731,82.4595052 330.85343,76.9265066 C328.564128,71.393508 330.502558,65.0138776 335.483057,61.6897841 C340.463557,58.3656907 347.098687,59.0231416 351.33,63.26 C353.684159,65.6110114 355.004835,68.8029451 355.000013,72.13 Z" id="Path" fill="#FFFFFF"></path>
            <path d="M203.61,35.08 C202.543152,32.5557483 200.534252,30.5468478 198.01,29.48 C197.366208,29.2080877 196.695958,29.0036613 196.01,28.87 C195.312614,28.7250165 194.602296,28.6513042 193.89,28.65 L139.89,28.65 C139.177704,28.6513042 138.467386,28.7250165 137.77,28.87 C137.084042,29.0036613 136.413792,29.2080877 135.77,29.48 C135.145732,29.7550026 134.549608,30.0899038 133.99,30.48 C133.430366,30.8596871 132.908025,31.2916231 132.43,31.77 C131.949418,32.2423835 131.517268,32.7616326 131.14,33.32 C130.753669,33.8854752 130.418987,34.4845558 130.14,35.11 C129.872694,35.7554525 129.66841,36.4252343 129.53,37.11 C129.388375,37.8077298 129.318014,38.5180446 129.319959,39.23 L129.319959,93.23 C129.318014,93.9419554 129.388375,94.6522702 129.53,95.35 C129.66841,96.0347657 129.872694,96.7045475 130.14,97.35 C130.418988,97.9722679 130.753685,98.568028 131.14,99.13 C131.517156,99.6915274 131.949288,100.214105 132.43,100.69 C132.908025,101.168377 133.430366,101.600313 133.99,101.98 C134.551972,102.366315 135.147732,102.701012 135.77,102.98 C136.415453,103.247306 137.085234,103.45159 137.77,103.59 C138.46773,103.731625 139.178045,103.801986 139.89,103.800041 L193.89,103.800041 C194.601955,103.801986 195.31227,103.731625 196.01,103.59 C196.694766,103.45159 197.364547,103.247306 198.01,102.98 C198.635444,102.701013 199.234525,102.366331 199.8,101.98 C200.921531,101.221952 201.885899,100.254188 202.64,99.13 C203.030096,98.5703917 203.364997,97.9742676 203.64,97.35 C203.911912,96.7062085 204.116339,96.0359581 204.25,95.35 C204.394984,94.6526142 204.468696,93.9422959 204.47,93.23 L204.47,39.23 C204.468696,38.5177041 204.394984,37.8073858 204.25,37.11 C204.10869,36.4126988 203.894168,35.7322621 203.61,35.08 Z" id="Path" fill="#06233C" opacity="0.2"></path>
            <path d="M199.33,98.48 L145.33,98.48 C144.617704,98.4786958 143.907386,98.4049835 143.21,98.26 C142.524042,98.1263387 141.853792,97.9219123 141.21,97.65 C140.585732,97.3749974 139.989608,97.0400962 139.43,96.65 C138.870366,96.2703129 138.348025,95.8383769 137.87,95.36 C137.389418,94.8876165 136.957268,94.3683674 136.58,93.81 C136.193669,93.2445248 135.858987,92.6454442 135.58,92.02 C135.312694,91.3745475 135.10841,90.7047657 134.97,90.02 C134.828375,89.3222702 134.758014,88.6119554 134.759959,87.9 L134.759959,34 C134.758014,33.2880446 134.828375,32.5777298 134.97,31.88 C135.10841,31.1952343 135.312694,30.5254525 135.58,29.88 C135.858988,29.2577321 136.193685,28.661972 136.58,28.1 C136.957156,27.5384726 137.389288,27.0158947 137.87,26.54 C138.348025,26.0616231 138.870366,25.6296871 139.43,25.25 C139.989608,24.8599038 140.585732,24.5250026 141.21,24.25 C141.855453,23.9826939 142.525234,23.7784105 143.21,23.64 C143.90773,23.4983752 144.618045,23.4280138 145.33,23.4299591 L199.33,23.4299591 C200.041955,23.4280138 200.75227,23.4983752 201.45,23.64 C202.134766,23.7784105 202.804547,23.9826939 203.45,24.25 C204.07744,24.5249873 204.676884,24.8598722 205.24,25.25 C206.355467,26.0153571 207.318568,26.9818494 208.08,28.1 C208.470096,28.6596083 208.804997,29.2557324 209.08,29.88 C209.351912,30.5237915 209.556339,31.1940419 209.69,31.88 C209.834984,32.5773858 209.908696,33.2877041 209.91,34 L209.91,88 C209.908696,88.7122959 209.834984,89.4226142 209.69,90.12 C209.556339,90.8059581 209.351912,91.4762085 209.08,92.12 C208.805013,92.7474401 208.470128,93.3468842 208.08,93.91 C207.314596,95.0220613 206.352061,95.9845956 205.24,96.75 C204.676884,97.1401278 204.07744,97.4750127 203.45,97.75 C202.806208,98.0219123 202.135958,98.2263387 201.45,98.36 C200.749196,98.4714664 200.038906,98.5116715 199.33,98.48 L199.33,98.48 Z" id="Path" fill="#FFE700"></path>
            <polygon id="Path" fill="#023852" points="171.4 50.71 164.75 51.81 158.11 52.91 159.54 54.33 160.97 55.75 162.41 57.17 163.84 58.58 164.33 59.08 164.83 59.57 160.16 64.24 155.49 68.91 159.95 73.36 164.4 77.82 169.09 73.13 173.78 68.44 174.24 68.91 174.71 69.37 176.16 70.81 177.6 72.24 179.05 73.67 180.5 75.11 181.54 68.46 182.59 61.81 183.64 55.16 184.68 48.5 178.04 49.6"></polygon>
        </g>
    </g>
</svg>