<?xml version="1.0" encoding="UTF-8"?>
<svg width="440px" height="330px" viewBox="0 0 440 330" version="1.1" xmlns="http://www.w3.org/2000/svg" xmlns:xlink="http://www.w3.org/1999/xlink">
    <title>Graphic elements / Icons / Rich icons / support-chat-male</title>
    <g id="Graphic-elements-/-Icons-/-Rich-icons-/-support-chat-male" stroke="none" stroke-width="1" fill="none" fill-rule="evenodd">
        <g id="Asset-47" transform="translate(60.000000, 0.000000)">
            <polygon id="Path" fill="#09151B" points="76.63 279.35 64.61 295.02 86.24 300.69 88.93 296.94"></polygon>
            <polygon id="Path" fill="#023852" points="159.63 227.67 89.21 298.85 73.61 281.68 126.62 207.66"></polygon>
            <polygon id="Path" fill="#002D43" points="126.67 261 159.55 227.77 126.53 207.77 106.51 235.72"></polygon>
            <path d="M158.35,145.85 L148.64,88.85 C148.635054,88.8001223 148.635054,88.7498777 148.64,88.7 L148.4,77.2 C148.3845,76.4766455 148.069429,75.792181 147.53,75.31 L143.88,72.05 C143.607596,71.7990853 143.283235,71.6112972 142.93,71.5 L134.72,68.91 C134.265118,68.7848511 133.784882,68.7848511 133.33,68.91 L124.96,70.91 C123.644597,71.2086817 122.776063,72.463713 122.96,73.8 L122.96,74.09 C123.131153,75.3361928 124.163796,76.2848805 125.42,76.35 L126.48,76.35 C127.722296,76.3725707 128.77646,77.2677727 129,78.49 L130.35,85.89 C130.487162,86.6236228 130.926216,87.2658755 131.56,87.66 L135.88,90.28 C136.668647,90.7589159 137.147246,91.6173563 137.14,92.54 L136.77,129.54 C136.754832,129.662867 136.754832,129.787133 136.77,129.91 L138,141.6 C138.356221,143.089953 139.847175,144.013988 141.34,143.67 L150.41,142 C151.77,141.76 158.46,147.18 158.35,145.85 Z" id="Path" fill="#1AA3DE"></path>
            <rect id="Rectangle" fill="#023852" x="148.21" y="148.11" width="171.74" height="13.86"></rect>
            <path d="M153.67,311.87 L153.67,327.47 C153.67,328.176924 154.243076,328.75 154.95,328.75 L164.74,328.75 C165.081206,328.752666 165.409354,328.618987 165.651568,328.378651 C165.893782,328.138315 166.03001,327.811217 166.03,327.47 L166.03,327.47 C166.029091,327.069144 166.214583,326.690644 166.531947,326.445764 C166.849312,326.200884 167.262481,326.117454 167.65,326.22 L177.74,329 C177.849783,329.009777 177.960217,329.009777 178.07,329 L207.87,329 C208.006485,329.001235 208.142046,328.977512 208.27,328.93 L216.1,326.33 C216.622721,326.151571 216.975624,325.662317 216.98001,325.11 L216.98001,322.65 C216.982365,322.045696 216.567998,321.519451 215.98,321.38 L197.54,317.93 C197.344176,317.891836 197.15955,317.809781 197,317.69 L178,303.44 C177.664388,303.180543 177.220092,303.109004 176.82,303.25 L154.59,310.65 C154.049565,310.811761 153.676922,311.305918 153.67,311.87 L153.67,311.87 Z" id="Path" fill="#09151B"></path>
            <path d="M62.52,291.79 L54.52,305.18 C54.3414507,305.470857 54.2874805,305.821338 54.3702551,306.152436 C54.4530298,306.483535 54.6655824,306.767384 54.96,306.94 L63.37,311.94 C63.9807307,312.298541 64.766315,312.097682 65.13,311.49 L65.13,311.49 C65.3357819,311.155369 65.6838281,310.933765 66.0740967,310.888884 C66.4643652,310.844003 66.8536295,310.980817 67.13,311.26 L74.28,318.67 L74.65,318.99 L86.88,327.7 C87.595045,328.209728 88.4518737,328.482514 89.33,328.480017 L108.73,328.37 C109.82098,328.361554 110.828841,327.785633 111.39,326.85 L111.6,326.5 C111.886267,326.024115 111.939594,325.44357 111.74481,324.923498 C111.550027,324.403426 111.128451,324.000746 110.6,323.83 L97,319.47 C96.8502339,319.343219 96.7335475,319.181918 96.66,319 L88.73,299.15 C88.3642007,298.24398 87.5938777,297.56254 86.65,297.31 L63.9,291.2 C63.3611594,291.081301 62.8064854,291.318444 62.52,291.79 Z" id="Path" fill="#09151B"></path>
            <path d="M160.43,190.41 L146.86,178.78 C146.124276,178.148062 145.179486,177.812928 144.21,177.84 L91,179.16 C90.7869277,179.174924 90.5730723,179.174924 90.36,179.16 C85.42,178.47 24.36,170.26 24.9,189.38 C25.43,206.55 39.06,214.38 42.81,216.24 C43.3969592,216.527513 44.0471748,216.661684 44.7,216.63 L119.29,213.31 C122.022262,213.19278 124.618155,214.50778 126.14,216.78 L132.27,225.95 C132.661715,226.535197 132.93675,227.190525 133.08,227.88 L150.78,310 C151.016188,311.07365 151.691269,311.999295 152.641391,312.552266 C153.591513,313.105237 154.729811,313.234979 155.78,312.91 L176.04,306.53 C177.891881,305.953266 179.041036,304.106106 178.74,302.19 L161.74,192.78 C161.592157,191.861722 161.128929,191.023669 160.43,190.41 Z" id="Path" fill="#023852"></path>
            <path d="M25.5299768,190.39 L25.5299768,190.19 C25.7048312,182.626178 31.965661,176.629198 39.53,176.78 L84.26,178.17 L96.66,179.02 L34.66,207.66 C28.9399791,203.774541 25.5197036,197.304863 25.5299768,190.39 Z" id="Path" fill="#002D43"></path>
            <path d="M91.6,58.91 C91.66,58.39 97.01,56.33 96.83,55.85 L90.75,33.53 C90.5534192,32.6309763 90.5774368,31.6977222 90.82,30.81 L95.65,17.61 C95.91,16.73 97.36,16.11 98.2,15.74 L111.49,12.11 C112.54,11.64 113.84,11.03 114.75,11.73 L141.82,26.91 L142.91,36.24 L142.84,36.99 L141.71,40.34 C141.531129,40.8548628 141.589727,41.4225328 141.87,41.89 L147.32,51 C147.601433,51.4780547 147.659881,52.05523 147.48,52.58 L147.48,52.58 C147.276944,53.1324488 146.830521,53.560424 146.27,53.74 L141.84,55.13 C141.162104,55.3356589 140.661172,55.9103715 140.55,56.61 L138.75,68 C138.466283,69.76891 137.445159,71.3342969 135.940593,72.3068298 C134.436028,73.2793627 132.589404,73.5676532 130.86,73.1 L129.17,72.65 L129.07,72.65 L126.07,72.03 C124.502946,71.701465 122.873518,71.8476958 121.39,72.45 L108.92,81.67 L93.73,72.67 L91.6,58.91 Z" id="Path" fill="#33ADE1"></path>
            <path d="M115.73,48.15 L115.73,41.85 C115.729529,41.7820696 115.690855,41.7201904 115.63,41.69 L112.69,40.13 C112.609151,40.089338 112.510683,40.1150254 112.46,40.19 L111.28,41.88 C111.243927,41.9337931 111.239536,42.0028187 111.268502,42.0607492 C111.297467,42.1186798 111.355322,42.1565822 111.42,42.16 L113.32,42.21 C113.397388,42.2065967 113.467292,42.2559401 113.49,42.33 L115.39,48.21 C115.425549,48.2814133 115.503862,48.32091 115.58242,48.3070467 C115.660978,48.2931835 115.721041,48.2292676 115.73,48.15 L115.73,48.15 Z" id="Path" fill="#7FCCEC" style="mix-blend-mode: multiply;"></path>
            <path d="M94.59,56.9 L89.74,32 C89.6252754,31.6048248 89.6252754,31.1851752 89.74,30.79 L93.25,19.55 C93.3450515,19.2538116 93.5018335,18.9811472 93.71,18.75 L99.79,12.17 C100.129602,11.7988285 100.590649,11.5612118 101.09,11.5 L117.97,9.5 C118.309713,9.46700397 118.652409,9.51498149 118.97,9.64 L144.09,19.82 C144.741788,20.0811618 145.218876,20.652165 145.36,21.34 L146.24,25.63 C146.416632,26.5078104 146.014468,27.400613 145.24,27.85 L142.85,29.3 C142.285026,29.6398829 141.594501,29.6989653 140.98,29.46 L131.27,25.59 C130.497294,25.2878418 129.61923,25.4665709 129.02612,26.0467398 C128.433011,26.6269087 128.234958,27.5008171 128.52,28.28 L129.46,30.78 C129.777758,31.6234712 129.524648,32.5756493 128.83,33.15 L123.83,37.22 C123.376319,37.5946408 123.100613,38.1424244 123.07,38.73 L122.68,45.73 L118.68,45.24 L118.54,40.54 C118.519428,39.7080687 118.009539,38.9667688 117.24,38.65 L114.49,37.53 C114.077656,37.3608289 113.621722,37.3292643 113.19,37.44 L111.19,37.93 C110.412464,38.1211667 109.811298,38.7378469 109.64,39.52 L108.58,44.27 C108.58,44.47 107.97,48.46 107.58,51.08 C107.400162,52.4500259 106.43961,53.5901933 105.12,54 L94.59,56.9 Z" id="Path" fill="#023852"></path>
            <path d="M146.29,25.65 L145.41,21.36 C145.268876,20.672165 144.791788,20.1011618 144.14,19.84 L119,9.66 C118.682409,9.53498149 118.339713,9.48700397 118,9.52 L101.12,11.52 C100.620649,11.5812118 100.159602,11.8188285 99.82,12.19 L93.74,18.77 C93.5318335,19.0011472 93.3750515,19.2738116 93.28,19.57 L91.6,24.89 L97.38,18.62 C97.720609,18.2518099 98.1817529,18.0176907 98.68,17.96 L115.56,15.96 C115.899713,15.927004 116.242409,15.9749815 116.56,16.1 L141.68,26.27 C142.355529,26.5277652 142.853107,27.1120421 143,27.82 L143.27,29.13 L145.34,27.87 C146.095365,27.4063017 146.476102,26.5165785 146.29,25.65 Z" id="Path" fill="#1C4C64"></path>
            <path d="M145,50.83 L141.17,44.4 L141.11,53.57 L144.11,52.83 C144.534343,52.7410453 144.89014,52.4536949 145.066412,52.0575784 C145.242684,51.6614619 145.217978,51.2047876 145,50.83 L145,50.83 Z" id="Path" fill="#7FCCEC" style="mix-blend-mode: multiply;"></path>
            <path d="M129.07,72.57 L118,67.79 L113.75,61.1 C113.592571,60.8451847 113.297059,60.7104007 113.001435,60.7585766 C112.70581,60.8067524 112.468381,61.0283859 112.4,61.32 L109.01,75.32 L112.01,79.48 L120.58,73 C121.94608,71.9658627 123.693717,71.575472 125.37,71.93 L129.07,72.57 Z" id="Path" fill="#7FCCEC" style="mix-blend-mode: multiply;"></path>
            <path d="M138,140.73 L136.7,129.79 C136.644915,129.326062 136.469059,128.884698 136.19,128.51 L116.46,101.81 C116.287547,101.568371 116.152685,101.302018 116.06,101.02 L108,75.34 C107.898298,74.9720343 107.717412,74.6307391 107.47,74.34 L93.83,58.67 C93.2035103,57.9407698 92.2333515,57.6046518 91.29,57.79 L87.13,58.59 C86.4713005,58.7045992 85.8792241,59.0612717 85.47,59.59 L79.58,67.59 C79.3605957,67.8778156 79.0892569,68.1220206 78.78,68.31 L63.52,77.31 C63.0899554,77.5754513 62.7433862,77.9566774 62.52,78.41 L43.92,115.23 C43.87,115.33 43.83,115.44 43.79,115.54 L27.69,160.63 C27.6094077,160.876324 27.5590387,161.131527 27.54,161.39 L26.45,181.22 C26.403112,182.014543 26.7104916,182.789058 27.2894604,183.335219 C27.8684293,183.881379 28.6595396,184.143106 29.45,184.05 L84.32,178.17 C86.1864407,177.969982 87.8829856,176.99503 88.9955226,175.48312 C90.1080596,173.971211 90.5342266,172.061452 90.17,170.22 L90.17,170.22 C89.9880813,169.307501 90.2906409,168.365784 90.97,167.73 L110.4,149.61 C110.752006,149.279287 111.187702,149.051065 111.66,148.95 L135.94,143.68 C137.282811,143.372279 138.173598,142.096637 138,140.73 L138,140.73 Z" id="Path" fill="#FFFFFF"></path>
            <polygon id="Path" fill="#B2E0F4" points="117.46 106.03 119.28 118.38 117.46 140.05 135.89 141.62 135.13 129.33"></polygon>
            <polygon id="Path" fill="#B2E0F4" points="106.84 152.91 95.22 153.19 63.37 111.2 89.84 168.69"></polygon>
            <path d="M210.5,146.4 L201.5,135.78 C201.304669,135.544206 201.016143,135.405422 200.71,135.4 L185.71,135.03 C185.431992,135.026525 185.163352,135.130399 184.96,135.32 L176.77,143 C176.553395,143.213056 176.251676,143.316082 175.95,143.28 L118,133.45 L101.2,143.71 C101.042158,143.777274 100.901883,143.879915 100.79,144.01 L94.42,151.56 C94.1574083,151.873943 94.0990185,152.311013 94.2699907,152.682878 C94.4409629,153.054742 94.8107456,153.294952 95.22,153.3 L189.72,153.3 C190.12242,153.297629 190.489479,153.069666 190.67,152.71 L192.67,148.71 C192.84989,148.355795 193.212736,148.131911 193.61,148.13 L209.68,148.13 C210.089032,148.12946 210.461256,147.893625 210.636449,147.52401 C210.811642,147.154396 210.75854,146.716962 210.5,146.4 L210.5,146.4 Z" id="Path" fill="#33ADE1"></path>
            <path d="M97.93,149.84 L101.47,145.95 C101.973046,145.38519 102.718069,145.098357 103.47,145.18 L175.41,152.18 C175.531503,152.18 175.63,152.278497 175.63,152.4 C175.63,152.521503 175.531503,152.62 175.41,152.62 C159.81,152.47 111.96,152.01 98.68,151.95 C98.1781888,151.947987 97.731569,151.6314 97.5635003,151.158566 C97.3954316,150.685733 97.542038,150.158283 97.93,149.84 Z" id="Path" fill="#7FCCEC" style="mix-blend-mode: multiply;"></path>
            <rect id="Rectangle" fill="#FFFFFF" x="224.61" y="143.58" width="32.94" height="4.52"></rect>
            <path d="M180,328.81 L203,185.4 C204.73,174.58 214.2,166.73 225.53,166.73 L242.76,166.73 C254.09,166.73 263.56,174.58 265.29,185.4 L288.22,328.81 L293,328.81 L270,184.69 C267.91,171.59 256.44,162.09 242.73,162.09 L225.48,162.09 C211.77,162.09 200.3,171.59 198.21,184.69 L175.21,328.81 L180,328.81 Z" id="Path" fill="#7C8B95"></path>
            <rect id="Rectangle" fill="#FFFFFF" transform="translate(266.573507, 86.718982) rotate(4.770000) translate(-266.573507, -86.718982) " x="262.893507" y="37.5439819" width="7.36" height="98.35" rx="1.13"></rect>
            <path d="M291.54,148.06 L267,148.06 L267,143.26 L291.59,143.26 C294.130861,143.259086 296.447713,141.806132 297.554969,139.519222 C298.662225,137.232312 298.365104,134.513746 296.79,132.52 L265.98,93.52 L269.74,90.52 L300.56,129.52 C303.275998,132.962238 303.783455,137.654791 301.866134,141.59808 C299.948814,145.541369 295.944694,148.040286 291.56,148.03 L291.54,148.06 Z" id="Path" fill="#FFFFFF"></path>
            <polygon id="Path" fill="#66C3E9" points="276.13 106.6 276.73 99.47 269.88 90.78 269.29 97.91"></polygon>
            <path d="M261.41,53.18 C261.41,53.18 261.41,53.18 261.41,53.12 L261.41,53.18 Z" id="Path" fill="#FFE700"></path>
            <path d="M212.23,26.58 L279.62,26.58 C280.200824,26.58 280.757859,26.8107315 281.168564,27.2214361 C281.579269,27.6321408 281.81,28.1891759 281.81,28.77 L281.81,46.21 C281.81,46.7908241 281.579269,47.3478592 281.168564,47.7585639 C280.757859,48.1692685 280.200824,48.4 279.62,48.4 L266.29,48.4 C266.29,48.4 262.94,48.21 261.59,52.21 C261.53,52.38 261.28,52.39 261.25,52.21 C260.57,48.62 256.56,48.4 256.55,48.4 L212.23,48.4 C211.642277,48.4107365 211.07491,48.1847535 210.655513,47.7728793 C210.236116,47.3610052 210,46.7978215 210,46.21 L210,28.77 C210,28.1821785 210.236116,27.6189948 210.655513,27.2071207 C211.07491,26.7952465 211.642277,26.5692635 212.23,26.58 L212.23,26.58 Z" id="Path" fill="#FFE700"></path>
            <rect id="Rectangle" fill="#023852" x="222.37" y="35.74" width="44.93" height="4.14"></rect>
            <path d="M203.9,25.6 L203.9,25.54 C203.9,25.54 203.9,25.54 203.9,25.6 Z" id="Path" fill="#FFFFFF"></path>
            <path d="M253.58,0 L186.19,0 C184.980496,0 184,0.980496398 184,2.19 L184,19.63 C184,20.8395036 184.980496,21.82 186.19,21.82 L199.49,21.82 C199.49,21.82 202.83,21.63 204.19,25.64 C204.215179,25.7123515 204.283393,25.7608392 204.36,25.7608392 C204.436607,25.7608392 204.504821,25.7123515 204.53,25.64 C205.21,22.04 209.22,21.82 209.23,21.82 L253.55,21.82 C254.759504,21.82 255.74,20.8395036 255.74,19.63 L255.74,2.19 C255.74,0.992115921 254.777772,0.0164093657 253.58,0 Z" id="Path" fill="#FFFFFF"></path>
            <rect id="Rectangle" fill="#023852" transform="translate(220.475000, 11.070000) rotate(-180.000000) translate(-220.475000, -11.070000) " x="198.01" y="9" width="44.93" height="4.14"></rect>
            <rect id="Rectangle" fill="#303436" transform="translate(87.155000, 254.700000) rotate(-180.000000) translate(-87.155000, -254.700000) " x="82.76" y="240.35" width="8.79" height="28.7"></rect>
            <rect id="Rectangle" fill="#7C8B95" transform="translate(87.145000, 234.315000) rotate(-180.000000) translate(-87.145000, -234.315000) " x="82.1" y="227.17" width="10.09" height="14.29"></rect>
            <path d="M127.47,224.670453 C128.408959,224.68707 129.290779,224.220329 129.804654,223.434283 C130.318529,222.648237 130.392313,221.653245 130,220.8 C123.55,206.8 95.24,209.63 92,210 L57.9,212.91 C48.35,213.79 38.29,211.54 32.3,204.98 C26.31,198.42 25.02,188.21 26.76,178.78 L31.22,153.17 C32.27,147.44 30.41,140.94 29.05,136.17 L12.28,77.68 C11.863025,76.2219683 10.3430317,75.378025 8.885,75.795 C7.42696826,76.211975 6.58302501,77.7319683 7,79.19 L23.8,137.7 C25.08,142.16 26.66,147.7 25.8,152.2 L22.69,178.79 C20.69,189.89 22.22,199.79 29.39,207.65 C36.56,215.51 48.85,218.08 60.07,217 L92.52,215.4 C100.24,214.51 120.91,214.17 124.99,223.04 C125.423374,224.024448 126.394409,224.662669 127.47,224.670453 L127.47,224.670453 Z" id="Path" fill="#303436"></path>
            <circle id="Oval" fill="#303436" cx="123.68" cy="222.8" r="6.54"></circle>
            <circle id="Oval" fill="#303436" cx="6.54" cy="80.78" r="6.54"></circle>
            <path d="M151.23,328.9 L149.88,320.11 C149.479676,317.475206 147.697094,315.257476 145.21,314.3 L96.41,295.43 C91.3331179,293.461695 87.7667439,288.840044 87.15,283.43 C86.5332561,288.840044 82.9668821,293.461695 77.89,295.43 L29.09,314.3 C26.6040882,315.261539 24.8200502,317.476338 24.41,320.11 L23.06,328.9 L15.74,328.9 L17.3,319 C18.0990319,313.818462 21.6025253,309.457203 26.49,307.56 L75.12,285.66 C77.9882567,284.552461 79.8797737,281.794661 79.88,278.72 L80.05,272.14 C80.0473448,270.645099 80.6393314,269.210516 81.6954491,268.152523 C82.7515669,267.094529 84.1850969,266.5 85.68,266.5 L88.61,266.5 C91.724886,266.5 94.25,269.025114 94.25,272.14 L94.42,278.72 C94.4202263,281.794661 96.3117433,284.552461 99.18,285.66 L147.81,307.56 C152.697475,309.457203 156.200968,313.818462 157,319 L158.56,328.88 L151.23,328.9 Z" id="Path" fill="#7C8B95"></path>
            <path d="M87.15,233.46 L87.15,233.46 C83.334583,233.427485 80.248017,230.345366 80.21,226.53 L80.21,217.71 C80.21,213.89 83.34,214.25 87.15,214.25 L87.15,214.25 C90.96,214.25 94.08,213.89 94.08,217.71 L94.08,226.53 C94.0420717,230.341512 90.9615124,233.422072 87.15,233.46 L87.15,233.46 Z" id="Path" fill="#7C8B95"></path>
            <path d="M29.3,208.19 C22.5282863,200.947891 19.4960589,190.975888 21.09,181.19 L24.61,159.03 C25.9919747,150.338229 33.5091646,143.954989 42.31,143.999763 L104.61,143.999763 C109.080538,144.000937 113.281813,146.136842 115.916778,149.748306 C118.551743,153.35977 119.303514,158.012472 117.94,162.27 L104.54,204.12 C102.51776,210.421515 96.8961798,214.88246 90.3,215.42 L55.59,218.35 C54.66,218.43 53.74,218.470006 52.82,218.470006 C43.8889646,218.47563 35.3619397,214.748682 29.3,208.19 Z M42.3,149.419912 C36.1676906,149.397045 30.9395917,153.860057 30,159.92 L26.48,182.09 C25.1944877,190.201462 27.7091522,198.453623 33.2997353,204.469746 C38.8903183,210.48587 46.9361799,213.598073 55.12,212.91 L89.84,210 C94.2469163,209.640092 97.9998001,206.653586 99.34,202.44 L112.74,160.59 C113.569828,157.993727 113.110503,155.157297 111.503703,152.955605 C109.896903,150.753914 107.335665,149.451466 104.61,149.45 L42.3,149.419912 Z" id="Shape" fill="#7C8B95" fill-rule="nonzero"></path>
            <circle id="Oval" fill="#7C8B95" cx="6.54" cy="80.78" r="3.27"></circle>
            <circle id="Oval" fill="#96A6AE" cx="123.55" cy="222.85" r="3.27"></circle>
        </g>
    </g>
</svg>