<?xml version="1.0" encoding="UTF-8"?>
<svg width="440px" height="330px" viewBox="0 0 440 330" version="1.1" xmlns="http://www.w3.org/2000/svg" xmlns:xlink="http://www.w3.org/1999/xlink">
    <title>Graphic elements / Icons / Rich icons / support-call</title>
    <defs>
        <linearGradient x1="0.00625298981%" y1="50.0007537%" x2="100%" y2="50.0007537%" id="linearGradient-1">
            <stop stop-color="#023852" offset="0%"></stop>
            <stop stop-color="#035D88" stop-opacity="0" offset="100%"></stop>
        </linearGradient>
    </defs>
    <g id="Graphic-elements-/-Icons-/-Rich-icons-/-support-call" stroke="none" stroke-width="1" fill="none" fill-rule="evenodd">
        <g id="Asset-109" transform="translate(99.000000, 19.000000)">
            <path d="M62.1,74.47 L62.1,74.47 L67.46,53.58 L72.82,32.69 C73.3119048,31.1364103 74.3304367,29.8031238 75.7,28.92 C77.0697364,27.9074977 78.506344,26.988737 80,26.17 L80,26.17 L99.78,18.6 L119.5,11 L119.5,11 C121.083465,10.0289407 122.758102,9.21506713 124.5,8.57 C126.0901,7.91687743 127.891662,8.02740275 129.39,8.87 L172.99,27.87 L216.6,46.87 L216.66,46.87 C216.664336,46.889765 216.664336,46.910235 216.66,46.93 L219.75,60.93 L222.84,74.93 L222.84,77.33 L221.64,82.56 L220.44,87.8 C220.05956,89.4724805 220.424479,91.2277402 221.44,92.61 L231.06,105.61 L240.69,118.61 C241.05623,119.09625 241.352448,119.631463 241.57,120.2 C241.793245,120.76462 241.918379,121.363233 241.94,121.97 C242.027717,124.343781 240.644226,126.526358 238.46,127.46 L231.94,130.24 L225.43,133.02 C223.377104,133.891762 221.997052,135.853296 221.87,138.08 L220.87,155.52 L219.87,172.95 C219.547487,178.47722 216.892957,183.607464 212.56735,187.063372 C208.241743,190.51928 202.65204,191.975699 197.19,191.07 L194.62,190.64 L192.05,190.21 L191.88,190.21 L191.71,190.21 L187.04,189.71 L182.37,189.21 C178.057629,188.763979 173.703588,189.453455 169.74,191.21 C169.258244,191.422808 168.823256,191.728659 168.46,192.11 C168.095552,192.488333 167.807011,192.933025 167.61,193.42 L160.27,211.21 L152.93,229 C152.897928,229.072859 152.814528,229.107975 152.74,229.08 L116.59,214.49 L80.38,200 C77.5966943,198.869018 75.9628086,195.966176 76.44,193 L79.89,172.22 L83.33,151.44 L83.33,151.44 L73,117.05 L62.72,82.8 C62.2136688,81.491195 61.9428301,80.1031467 61.92,78.7 C61.8267742,77.2876405 61.8871276,75.8693341 62.1,74.47 Z" id="Path" fill="#33ADE1"></path>
            <path d="M143.47,119.79 L142.47,110.17 L141.47,100.54 C141.458782,100.441617 141.420728,100.348212 141.36,100.27 C141.302103,100.18926 141.222288,100.126796 141.13,100.09 L136.39,98.16 L131.66,96.24 C131.533897,96.1949828 131.396103,96.1949828 131.27,96.24 C131.143242,96.2846372 131.036763,96.3733695 130.97,96.49 L129.43,99.25 L127.93,102 C127.830198,102.176894 127.830198,102.393106 127.93,102.57 C128.037208,102.73983 128.229811,102.836131 128.43,102.82 L131.35,102.6 L134.26,102.38 C134.37222,102.374546 134.483549,102.402379 134.58,102.46 C134.680271,102.515094 134.758102,102.603538 134.8,102.71 L138.6,111.39 L142.4,120.06 C142.50962,120.304413 142.77938,120.434307 143.03881,120.367596 C143.298241,120.300885 143.47188,120.056975 143.45,119.79 L143.47,119.79 Z" id="Path" fill="#99D7F0"></path>
            <path d="M233.6,119 L226.77,109.76 L219.94,100.53 L221.26,114.53 L222.58,128.53 L227.11,126.94 L231.64,125.35 C232.888875,124.919185 233.858878,123.920787 234.253489,122.660004 C234.6481,121.399222 234.420402,120.025956 233.64,118.96 L233.6,119 Z" id="Path" fill="#7FCCEC" style="mix-blend-mode: multiply;"></path>
            <path d="M191.67,190.28 L174.05,184.66 L156.44,179.05 L148.93,169.49 L141.42,159.92 C140.847214,159.235062 139.927333,158.9475 139.066419,159.184251 C138.205505,159.421003 137.562014,160.138492 137.42,161.02 L132.94,190.15 L128.45,219.27 L140.66,224.27 L152.87,229.27 L160.27,211.35 L167.66,193.43 C167.838953,192.994067 168.100406,192.596794 168.43,192.26 C168.761692,191.93099 169.151648,191.666498 169.58,191.48 C171.929497,190.455028 174.40432,189.745534 176.94,189.37 C178.26325,189.164838 179.606831,189.12453 180.94,189.25 L186.33,189.8 L191.67,190.28 Z" id="Path" fill="#7FCCEC" style="mix-blend-mode: multiply;"></path>
            <g id="Group" opacity="0.5" style="mix-blend-mode: multiply;" transform="translate(106.000000, 79.000000)" fill="#7FCCEC">
                <path d="M33.89,0.419999688 C47.0437269,0.422597458 58.9453109,8.22046129 64.2000395,20.2790004 C69.4547682,32.3375395 67.0634444,46.3637989 58.11,56 L75.51,70.26 L92.9,84.53 C94.6556742,83.0955421 96.8528301,82.3113482 99.12,82.31 C103.230208,82.3183374 106.900373,84.8855535 108.317738,88.7436558 C109.735103,92.6017582 108.59976,96.9343912 105.472474,99.6015925 C102.345189,102.268794 97.8876794,102.706197 94.3015869,100.69776 C90.7154943,98.6893236 88.7596184,94.6600232 89.4,90.6 C89.488123,90.0961687 89.6083683,89.5984869 89.76,89.11 L71.86,74.44 L54,59.77 C42.5368396,68.5263728 26.720525,68.8423926 14.9167379,60.5509078 C3.11295074,52.259423 -1.95470296,37.273611 2.39419751,23.5198778 C6.74309799,9.7661447 19.5050873,0.418026988 33.93,0.419999688 L33.89,0.419999688 Z" id="Path" style="mix-blend-mode: multiply;"></path>
            </g>
            <path d="M154.55,130.33 L156.3,128.19 L158.06,126.05 L178.48,142.79 L198.9,159.54 C200.655674,158.105542 202.85283,157.321348 205.12,157.32 C209.104861,157.315954 212.699596,159.713263 214.22734,163.393634 C215.755084,167.074005 214.91483,171.312304 212.098538,174.131458 C209.282246,176.950613 205.044802,177.795171 201.362882,176.271166 C197.680961,174.747161 195.280002,171.154863 195.28,167.17 C195.279043,166.64434 195.319165,166.119409 195.4,165.6 C195.48926,165.099693 195.609491,164.605409 195.76,164.12 L175.15,147.23 L154.55,130.33 Z" id="Path" fill="#000000"></path>
            <path d="M84.87,151.68 C84.0280691,152.015153 83.0837008,151.978831 82.27,151.58 C81.4526921,151.177818 80.8401814,150.452954 80.58,149.58 L69.88,114 L59.18,78.43 C58.9490901,77.8433841 58.8010011,77.2274683 58.74,76.6 C58.6867445,75.9746177 58.7237911,75.3448256 58.85,74.73 L62.49,57 L66.13,39.3 C66.3216294,38.3649648 66.7177629,37.4839092 67.29,36.72 L75.56,25.72 L83.83,14.72 C84.7565576,13.4881534 86.0942157,12.6294975 87.6,12.3 L113.07,6.69 L138.55,1.15 C139.611914,0.912769073 140.716817,0.950631796 141.76,1.26 L181.66,13 L221.56,24.69 C222.577842,24.9948424 223.507354,25.540202 224.27,26.28 C225.023012,27.0276276 225.582486,27.9474989 225.9,28.96 L227.9,35.37 L229.9,41.77 C230.300003,43.0426424 230.300003,44.4073576 229.9,45.68 C229.496577,46.9496719 228.706406,48.0615053 227.64,48.86 L224.22,51.44 L220.81,54 C219.180718,55.2113657 217.07503,55.5820855 215.13,55 L199.72,50.6 L184.32,46.18 C181.863406,45.4701693 179.21944,46.2785931 177.579875,48.2408727 C175.940311,50.2031524 175.614773,52.9487177 176.75,55.24 L178.56,58.92 L180.37,62.6 C180.96439,63.8079928 181.167141,65.171318 180.95,66.5 C180.734522,67.8303343 180.104592,69.0586985 179.15,70.01 L172.21,77.01 L165.27,84.01 C164.635861,84.6416486 164.144786,85.4021321 163.83,86.24 C163.505672,87.0738306 163.359207,87.966245 163.4,88.86 L163.87,99.63 L164.35,110.4 L158.12,110.26 L151.9,110.13 L150.97,102.98 L150.05,95.83 C149.894845,94.5877654 149.376529,93.4189467 148.56,92.47 C147.747296,91.520708 146.677806,90.8262343 145.48,90.47 L141.12,89.18 L136.76,87.88 C135.447922,87.4978462 134.049092,87.536314 132.76,87.99 L129.76,89.05 L126.76,90.11 C125.632294,90.4950861 124.634735,91.1878355 123.88,92.11 C123.129601,93.0522619 122.655345,94.1842447 122.51,95.38 L121.63,102.79 L120.75,110.2 C120.75,110.51 120.57,113.76 120.37,117.95 C120.17,122.14 119.92,127.27 119.69,131.35 C119.444403,135.589083 116.741995,139.292672 112.78,140.82 L98.78,146.27 L84.87,151.68 Z" id="Path" fill="#023852"></path>
            <path d="M58.89,75.09 L62.53,57.39 L66.17,39.69 C66.3616294,38.7549648 66.7577629,37.8739092 67.33,37.11 L75.6,26.11 L83.87,15.11 C84.3307507,14.4987543 84.8961557,13.9739772 85.54,13.56 C86.1820766,13.146247 86.8934357,12.8515411 87.64,12.69 L113.12,7.08 L138.59,1.51 C139.651914,1.27276907 140.756817,1.3106318 141.8,1.62 L148.56,3.62 L155.33,5.62 L133,10.51 L110.63,15.43 C109.879697,15.5895482 109.164708,15.8843544 108.52,16.3 C107.878308,16.7167447 107.31335,17.2411064 106.85,17.85 L98.59,28.85 L90.32,39.85 C90.0200791,40.204683 89.7586171,40.5901719 89.54,41 C89.3485852,41.4376163 89.2011924,41.8931941 89.1,42.36 L85.46,60.1 L81.83,77.8 C81.69859,78.417514 81.6615024,79.0513744 81.72,79.68 C81.7714903,80.3057984 81.9199285,80.9197926 82.16,81.5 L81.9,114.8 L81.64,148.1 C81.6407157,148.468264 81.3705297,148.781013 81.0060672,148.833797 C80.6416047,148.886582 80.2937919,148.663336 80.19,148.31 L69.71,113.55 L59.22,78.79 C58.9916872,78.2164155 58.8436238,77.6140667 58.78,77 C58.722842,76.3613833 58.7599051,75.7178325 58.89,75.09 Z" id="Path" fill="url(#linearGradient-1)"></path>
            <path d="M141.54,1 L152.54,4.2 L163.54,7.41 C160.047448,16.3235634 157.108524,25.4442453 154.74,34.72 C151.48,47.48 148.74,62.78 149.26,77.32 L137.88,77.7 L126.5,78.08 C125.97,62.24 128.56,46.08 131.87,32.26 C134.417948,21.642948 137.647985,11.2012767 141.54,1 L141.54,1 Z" id="Path" fill="#000000"></path>
            <path d="M106.819985,108.5 C106.820935,92.7225423 117.967246,79.1430434 133.441877,76.0666909 C148.916509,72.9903383 164.409212,81.2740084 170.444689,95.8514292 C176.480165,110.42885 171.377314,127.239679 158.257027,136.002454 C145.136739,144.76523 127.653494,143.0392 116.5,131.88 C110.294818,125.682543 106.811776,117.269988 106.819985,108.5 Z" id="Path" fill="#000000"></path>
            <path d="M150.150035,108.5 C150.14515,113.3945 146.68372,117.604062 141.88239,118.554524 C137.08106,119.504985 132.276904,116.93166 130.407684,112.408147 C128.538464,107.884635 130.12472,102.670643 134.196451,99.9545506 C138.268181,97.2384577 143.691489,97.7766413 147.15,101.24 C149.077251,103.1637 150.157116,105.776974 150.150035,108.5 L150.150035,108.5 Z" id="Path" fill="#FFE700"></path>
            <polygon id="Path" fill="#EDF0F2" points="184.76 311 0 311 38.57 236.91 72.98 209.27 158.17 223.58"></polygon>
            <path d="M159.59,228.59 L157,256.85 C156.944924,257.642051 156.491982,258.352143 155.796982,258.73601 C155.101982,259.119876 154.259747,259.125143 153.56,258.75 L70.79,218.75 L159.59,228.59 Z" id="Path" fill="#33ADE1"></path>
            <path d="M153.7,253.55 L68.92,219.78 C68.2811806,219.529647 67.9233127,218.847994 68.08,218.18 L76.23,182.68 C76.3084497,182.262865 76.5744921,181.905035 76.9513569,181.709769 C77.3282216,181.514502 77.7739792,181.503523 78.16,181.68 L159.66,219.11 C160.220908,219.369823 160.542833,219.968847 160.45,220.58 L155.59,252.42 C155.539377,252.848152 155.292946,253.228577 154.922907,253.449818 C154.552867,253.671058 154.101113,253.708067 153.7,253.55 L153.7,253.55 Z" id="Path" fill="#EDF0F2"></path>
        </g>
    </g>
</svg>