<?xml version="1.0" encoding="UTF-8"?>
<svg width="440px" height="330px" viewBox="0 0 440 330" version="1.1" xmlns="http://www.w3.org/2000/svg" xmlns:xlink="http://www.w3.org/1999/xlink">
    <title>Graphic elements / Icons / Rich icons / trade-show</title>
    <defs>
        <linearGradient x1="50%" y1="0%" x2="50%" y2="100%" id="linearGradient-1">
            <stop stop-color="#FFFFFF" stop-opacity="0.2" offset="0%"></stop>
            <stop stop-color="#FFFFFF" stop-opacity="0" offset="100%"></stop>
        </linearGradient>
    </defs>
    <g id="Graphic-elements-/-Icons-/-Rich-icons-/-trade-show" stroke="none" stroke-width="1" fill="none" fill-rule="evenodd">
        <g id="Events" transform="translate(0.000000, 74.000000)" fill-rule="nonzero">
            <polygon id="Path" fill="#023852" points="440 256.3 220 256.3 0 256.3 0 251.9 0 247.5 220 247.5 440 247.5 440 251.9"></polygon>
            <polygon id="Path" fill="#06233C" opacity="0.5" style="mix-blend-mode: multiply;" points="100.1 236.5 60.5 236.5 20.9 236.5 20.9 155.65 20.9 74.8 60.5 74.8 100.1 74.8 100.1 155.65"></polygon>
            <polygon id="Path" fill="#06233C" opacity="0.5" style="mix-blend-mode: multiply;" points="181.5 236.5 141.9 236.5 102.3 236.5 102.3 155.65 102.3 74.8 141.9 74.8 181.5 74.8 181.5 155.65"></polygon>
            <polygon id="Path" fill="#06233C" opacity="0.5" style="mix-blend-mode: multiply;" points="262.9 236.5 223.3 236.5 183.7 236.5 183.7 155.65 183.7 74.8 223.3 74.8 262.9 74.8 262.9 155.65"></polygon>
            <polygon id="Path" fill="#9DADB7" points="7.843 247.5 185.977 247.5 364.1 247.5 364.1 241.912 364.1 236.335 185.977 236.335 7.843 236.335 7.843 241.912"></polygon>
            <polygon id="Path" fill="#FFFFFF" points="272.8 75.9 315.7 75.9 358.6 75.9 358.6 156.2 358.6 236.5 315.7 236.5 272.8 236.5 272.8 156.2"></polygon>
            <polygon id="Path" fill="#FFFFFF" points="18.7 236.5 16.5 236.5 14.3 236.5 14.3 158.95 14.3 81.4 16.5 81.4 18.7 81.4 18.7 158.95"></polygon>
            <polygon id="Path" fill="#0099DA" points="8.8 0 184.8 0 360.8 0 360.8 37.4 360.8 74.8 184.8 74.8 8.8 74.8 8.8 37.4"></polygon>
            <polygon id="Path" fill="#E9E9E5" points="8.8 77 15.95 77 23.1 77 23.1 75.9 23.1 74.8 15.95 74.8 8.8 74.8 8.8 75.9"></polygon>
            <polygon id="Path" fill="#E9E9E5" points="9.273 236.5 16.5 236.5 23.716 236.5 23.716 235.697 23.716 234.894 16.5 234.894 9.273 234.894 9.273 235.697"></polygon>
            <polygon id="Path" fill="#A49F98" points="14.3 81.4 16.5 81.4 18.7 81.4 18.7 79.2 18.7 77 16.5 77 14.3 77 14.3 79.2"></polygon>
            <polygon id="Path" fill="#0099DA" points="272.8 104.5 272.8 140.041 272.8 175.582 272.8 176.451 272.8 177.32 272.8 204.71 272.8 232.1 315.7 232.1 358.6 232.1 358.6 204.71 358.6 177.32 358.6 176.451 358.6 175.582 358.6 140.041 358.6 104.5 315.7 104.5"></polygon>
            <polygon id="Path" fill="#8F9C9B" opacity="0.5" style="mix-blend-mode: multiply;" points="358.6 86.9 315.7 86.9 272.8 86.9 272.8 80.85 272.8 74.8 315.7 74.8 358.6 74.8 358.6 80.85"></polygon>
            <polygon id="Path" fill="#8E9898" opacity="0.5" style="mix-blend-mode: multiply;" points="348.7 161.7 315.7 161.7 282.7 161.7 282.7 160.6 282.7 159.5 315.7 159.5 348.7 159.5 348.7 160.6"></polygon>
            <polygon id="Path" fill="#023852" points="348.7 159.5 315.7 159.5 282.7 159.5 282.7 139.15 282.7 118.8 315.7 118.8 348.7 118.8 348.7 139.15"></polygon>
            <polygon id="Path" fill="#023852" points="284.9 121 315.7 121 346.5 121 346.5 138.6 346.5 156.2 315.7 156.2 284.9 156.2 284.9 138.6"></polygon>
            <polygon id="Path" fill="#9DADB7" points="312.4 158.4 315.7 158.4 319 158.4 319 157.85 319 157.3 315.7 157.3 312.4 157.3 312.4 157.85"></polygon>
            <polygon id="Path" fill="#FFFFFF" opacity="0.2" points="286.957 121.528 304.524 139.249 322.102 156.97 334.125 156.97 346.148 156.97 346.148 139.249 346.148 121.528 316.547 121.528"></polygon>
            <polygon id="Path" fill="#0099DA" points="77 177.1 136.4 177.1 195.8 177.1 195.8 201.85 195.8 226.6 136.4 226.6 77 226.6 77 201.85"></polygon>
            <polygon id="Path" fill="#3271A9" points="77 180.235 134.684 180.235 192.368 180.235 192.368 203.423 192.368 226.6 194.084 226.6 195.8 226.6 195.8 201.85 195.8 177.1 136.4 177.1 77 177.1 77 178.673"></polygon>
            <polygon id="Path" fill="#FFFFFF" points="73.7 177.1 136.4 177.1 199.1 177.1 199.1 175.45 199.1 173.8 136.4 173.8 73.7 173.8 73.7 175.45"></polygon>
            <polygon id="Path" fill="#FFFFFF" points="77 226.6 77 201.85 77 177.1 75.35 177.1 73.7 177.1 73.7 201.85 73.7 226.6 75.35 226.6"></polygon>
            <polygon id="Path" fill="#FFFFFF" points="199.1 226.6 199.1 201.85 199.1 177.1 197.45 177.1 195.8 177.1 195.8 201.85 195.8 226.6 197.45 226.6"></polygon>
            <polygon id="Path" fill="#FFFFFF" points="73.7 229.9 136.4 229.9 199.1 229.9 199.1 228.25 199.1 226.6 136.4 226.6 73.7 226.6 73.7 228.25"></polygon>
            <polygon id="Path" fill="#E9E9E5" points="83.6 236.5 81.95 236.5 80.3 236.5 80.3 233.2 80.3 229.9 81.95 229.9 83.6 229.9 83.6 233.2"></polygon>
            <polygon id="Path" fill="#E9E9E5" points="191.4 236.588 189.75 236.588 188.1 236.588 188.1 233.244 188.1 229.9 189.75 229.9 191.4 229.9 191.4 233.244"></polygon>
            <polygon id="Path" fill="#9DADB7" points="83.6 233.2 81.95 233.2 80.3 233.2 80.3 231.55 80.3 229.9 81.95 229.9 83.6 229.9 83.6 231.55"></polygon>
            <polygon id="Path" fill="#9DADB7" points="191.4 233.2 189.75 233.2 188.1 233.2 188.1 231.55 188.1 229.9 189.75 229.9 191.4 229.9 191.4 231.55"></polygon>
            <polygon id="Path" fill="#0099DA" points="433.4 238.7 407 238.7 380.6 238.7 380.6 176 380.6 113.3 407 113.3 433.4 113.3 433.4 176"></polygon>
            <polygon id="Path" fill="#FFFFFF" points="378.4 113.3 407 113.3 435.6 113.3 435.6 112.2 435.6 111.1 407 111.1 378.4 111.1 378.4 112.2"></polygon>
            <polygon id="Path" fill="#FFFFFF" points="378.4 243.1 407 243.1 435.6 243.1 435.6 240.9 435.6 238.7 407 238.7 378.4 238.7 378.4 240.9"></polygon>
            <polygon id="Path" fill="#FFFFFF" points="423.5 243.1 425.7 243.1 427.9 243.1 427.9 245.3 427.9 247.5 425.7 247.5 423.5 247.5 423.5 245.3"></polygon>
            <polygon id="Path" fill="#FFFFFF" points="386.1 243.1 388.3 243.1 390.5 243.1 390.5 245.3 390.5 247.5 388.3 247.5 386.1 247.5 386.1 245.3"></polygon>
            <polygon id="Path" fill="#8F9C9B" opacity="0.5" style="mix-blend-mode: multiply;" points="423.5 243.1 425.7 243.1 427.9 243.1 427.9 244.2 427.9 245.3 425.7 245.3 423.5 245.3 423.5 244.2"></polygon>
            <polygon id="Path" fill="#8F9C9B" opacity="0.5" style="mix-blend-mode: multiply;" points="386.1 243.1 388.3 243.1 390.5 243.1 390.5 244.2 390.5 245.3 388.3 245.3 386.1 245.3 386.1 244.2"></polygon>
            <polygon id="Path" fill="#FFFFFF" points="405.9 105.6 407 105.6 408.1 105.6 408.1 108.35 408.1 111.1 407 111.1 405.9 111.1 405.9 108.35"></polygon>
            <polygon id="Path" fill="#8E9898" opacity="0.5" style="mix-blend-mode: multiply;" points="433.4 118.8 407 118.8 380.6 118.8 380.6 116.05 380.6 113.3 407 113.3 433.4 113.3 433.4 116.05"></polygon>
            <polygon id="Path" fill="#8E9898" opacity="0.5" style="mix-blend-mode: multiply;" points="433.4 238.7 407 238.7 380.6 238.7 380.6 237.6 380.6 236.5 407 236.5 433.4 236.5 433.4 237.6"></polygon>
            <polygon id="Path" fill="#1B1A1F" points="66.088 81.4 60.5 81.4 54.912 81.4 54.912 78.65 54.912 75.9 60.5 75.9 66.088 75.9 66.088 78.65"></polygon>
            <polygon id="Path" fill="url(#linearGradient-1)" points="92.4 132.286 60.5 132.693 28.6 133.1 41.591 107.8 54.593 82.5 60.5 82.5 66.407 82.5 79.409 107.393"></polygon>
            <polygon id="Path" fill="#FFFFFF" points="45.848 53.625 37.774 45.65 29.7 37.675 37.774 29.7 45.848 21.725 53.922 29.7 61.996 37.675 53.922 45.65"></polygon>
            <polygon id="Path" fill="#FFFFFF" points="94.49 44.792 96.294 44.792 98.087 44.792 98.087 38.137 98.087 31.471 96.294 31.471 94.49 31.471 94.49 38.137"></polygon>
            <polygon id="Path" fill="#FFFFFF" points="94.49 29.216 96.294 29.216 98.087 29.216 98.087 27.555 98.087 25.894 96.294 25.894 94.49 25.894 94.49 27.555"></polygon>
            <path d="M86.306,31.163 C85.3423353,31.1565838 84.3913758,31.3830028 83.534,31.823 C82.6862059,32.2690051 81.983856,32.9484522 81.51,33.781 C81.2874141,33.0086222 80.7957744,32.3413969 80.124,31.9 C79.4089857,31.4421084 78.5749634,31.2049094 77.726,31.218 C76.8148342,31.222265 75.9190023,31.4528377 75.119,31.889 C74.3197575,32.3249287 73.6629287,32.9817575 73.227,33.781 L73.227,33.781 L73.227,31.581 L70.037,31.581 L70.037,44.902 L73.469,44.902 L73.469,38.236 C73.4379782,37.1619504 73.7416612,36.104826 74.338,35.211 C74.7886959,34.4960709 75.5616309,34.0479331 76.406,34.012 C77.0628812,33.9909213 77.6924885,34.2752601 78.111,34.782 C78.5795249,35.4156332 78.8058349,36.1960125 78.749,36.982 L78.749,44.957 L82.049,44.957 L82.049,38.423 C81.9749325,37.2610775 82.2714991,36.1056232 82.896,35.123 C83.3634413,34.4339619 84.1423696,34.0218306 84.975,34.023 C85.6816904,33.9730009 86.3612435,34.3043879 86.757,34.892 C87.2079261,35.7150288 87.4104416,36.6511855 87.34,37.587 L87.34,44.913 L90.838,44.913 L90.838,37.213 C90.9137048,35.7556184 90.5863936,34.3055536 89.892,33.022 C89.1314002,31.787965 87.7528274,31.0733061 86.306,31.163 Z" id="Path" fill="#FFFFFF"></path>
            <path d="M154,31.163 C152.073616,31.0967141 150.197926,31.7877579 148.775,33.088 C146.08179,35.9407742 146.08179,40.3992258 148.775,43.252 C151.699056,45.8707207 156.124944,45.8707207 159.049,43.252 C160.387288,41.918432 161.115661,40.0915281 161.062,38.203 C161.147094,36.3071661 160.431969,34.4627651 159.091109,33.1198129 C157.750248,31.7768607 155.906964,31.0588615 154.011,31.141 L154,31.163 Z M153.879,42.603 C152.913007,42.6099371 152.000126,42.1616472 151.415,41.393 C150.754517,40.4718503 150.41797,39.3577632 150.458,38.225 C150.403617,37.0511054 150.735952,35.8917979 151.404,34.925 C151.993707,34.1453477 152.923827,33.6987261 153.901,33.726 C154.882073,33.7007032 155.818382,34.1362903 156.431,34.903 C157.112736,35.8350286 157.45439,36.972582 157.399,38.126 C157.455115,39.3067274 157.10579,40.4711439 156.409,41.426 C155.791584,42.2050352 154.839251,42.6423724 153.846,42.603 L153.879,42.603 Z" id="Shape" fill="#FFFFFF"></path>
            <path d="M171.193,31.163 C170.267035,31.1620438 169.358254,31.4130044 168.564,31.889 C167.772881,32.3556328 167.108164,33.0090201 166.628,33.792 L166.628,33.792 L166.628,31.592 L163.328,31.592 L163.328,44.792 L166.76,44.792 L166.76,38.819 C166.755064,38.2333362 166.799219,37.6482889 166.892,37.07 C166.971742,36.6069415 167.120037,36.1583493 167.332,35.739 C167.591011,35.2255326 167.967969,34.7807223 168.432,34.441 C168.93889,34.0887237 169.541721,33.9005789 170.159,33.902 C171.109631,33.7789511 172.020217,34.3253027 172.359,35.222 C172.668928,36.262789 172.791831,37.350293 172.722,38.434 L172.722,44.792 L176.143,44.792 L176.143,37.092 C176.242748,35.577863 175.857445,34.0713283 175.043,32.791 C174.107321,31.6457617 172.666451,31.0364799 171.193,31.163 L171.193,31.163 Z" id="Path" fill="#FFFFFF"></path>
            <path d="M122.199,38.335 C122.33133,36.4153236 121.78209,34.5105126 120.648,32.956 C119.52845,31.7229782 117.910488,31.0636589 116.248,31.163 C114.405577,31.1257102 112.628412,31.8453231 111.331,33.154 C110.07735,34.5019775 109.398624,36.2856057 109.439,38.126 C109.335522,40.0942034 110.080377,42.0124059 111.485,43.395 C112.968476,44.6563466 114.874753,45.3088042 116.82,45.221 C117.621216,45.2203658 118.42053,45.1430128 119.207,44.99 C119.885251,44.8521082 120.545767,44.6380863 121.176,44.352 L121.176,42.944 L121.176,41.525 C120.611748,41.8766404 120.000734,42.1469677 119.361,42.328 C118.683279,42.5115437 117.984135,42.6040231 117.282,42.603 C116.188975,42.6373966 115.113595,42.3213352 114.213,41.701 C113.417557,41.1425782 112.932347,40.241474 112.904,39.27 L122.1,39.27 C122.1,39.182 122.1,39.006 122.1,38.808 C122.1,38.61 122.199,38.434 122.199,38.335 Z M112.772,36.916 C112.815364,36.0082032 113.18214,35.1458887 113.806,34.485 C114.41312,33.8920535 115.234689,33.57057 116.083,33.594 C116.908294,33.5329659 117.716938,33.8483371 118.283,34.452 C118.805783,35.1622229 119.05566,36.0367935 118.987,36.916 L112.75,36.916 L112.772,36.916 Z" id="Shape" fill="#FFFFFF"></path>
            <path d="M191.4,38.335 C191.535498,36.4166587 190.99019,34.5119767 189.86,32.956 C188.734915,31.7309156 187.120898,31.0732037 185.46,31.163 C183.616859,31.1217999 181.838207,31.8420145 180.543,33.154 C179.286351,34.5008756 178.603764,36.2842813 178.64,38.126 C178.536522,40.0942034 179.281377,42.0124059 180.686,43.395 C182.172298,44.6589916 184.083015,45.3116231 186.032,45.221 C186.829547,45.219799 187.625157,45.142448 188.408,44.99 C189.089794,44.852091 189.753952,44.6380844 190.388,44.352 L190.388,42.944 L190.388,41.525 C189.826567,41.874564 189.219481,42.1447913 188.584,42.328 C187.902673,42.5122558 187.1998,42.6047392 186.494,42.603 C185.401172,42.6358555 184.326263,42.3199323 183.425,41.701 C182.632382,41.1414034 182.151066,40.2399545 182.127,39.27 L191.4,39.27 C191.4,39.182 191.4,39.006 191.4,38.808 C191.4,38.61 191.4,38.434 191.4,38.335 Z M181.973,36.916 C182.022027,36.0095085 182.388009,35.1490632 183.007,34.485 C183.616185,33.89526 184.436349,33.5743265 185.284,33.594 C186.108812,33.5361548 186.916134,33.8510102 187.484,34.452 C187.997612,35.166263 188.242991,36.0387236 188.177,36.916 L181.94,36.916 L181.973,36.916 Z" id="Shape" fill="#FFFFFF"></path>
            <path d="M130.251,36.927 C129.558483,36.7373193 128.89034,36.4678472 128.26,36.124 C127.888414,35.9214291 127.665996,35.5236428 127.688,35.101 C127.702424,34.650452 127.942085,34.2372433 128.326,34.001 C128.780961,33.7178705 129.308234,33.5726794 129.844,33.583 C130.355195,33.5811633 130.864787,33.6402465 131.362,33.759 C131.902724,33.8817635 132.429715,34.0586555 132.935,34.287 L132.935,31.636 C132.443089,31.4752253 131.939165,31.3538423 131.428,31.273 C130.848559,31.1916965 130.264116,31.1512633 129.679,31.152 C128.299368,31.0856243 126.935836,31.471894 125.796,32.252 C124.847638,32.9664129 124.296181,34.0897526 124.311,35.277 C124.275347,36.1004234 124.591263,36.9002107 125.18,37.477 C125.988114,38.1471195 126.929145,38.6382554 127.941,38.918 C128.718789,39.143773 129.459804,39.480935 130.141,39.919 C130.526015,40.1815389 130.744069,40.6276353 130.714719,41.0927177 C130.685369,41.5578001 130.412965,41.9729453 129.998,42.185 C129.517205,42.4642635 128.969985,42.6086689 128.414,42.603 C127.814307,42.5961277 127.217009,42.5260741 126.632,42.394 C125.987203,42.2453312 125.360264,42.0277468 124.762,41.745 L124.762,44.506 C125.370331,44.7153804 125.996152,44.8699949 126.632,44.968 C127.280006,45.0660531 127.934623,45.1138622 128.59,45.111 C130.010938,45.1777369 131.416497,44.7926522 132.605,44.011 C133.61945,43.2727342 134.210532,42.0864643 134.189,40.832 C134.226738,39.8588294 133.822406,38.9207808 133.089,38.28 C132.241546,37.6461518 131.277011,37.1863153 130.251,36.927 Z" id="Path" fill="#FFFFFF"></path>
            <path d="M144.848,42.097 C144.641818,42.1562758 144.432494,42.2040164 144.221,42.24 C144.005192,42.2613245 143.787808,42.2613245 143.572,42.24 C142.901548,42.3171708 142.24153,42.0270992 141.845,41.481 C141.47342,40.7905845 141.30917,40.0075356 141.372,39.226 L141.372,34.1 L144.562,34.1 L144.562,31.57 L141.372,31.57 L141.372,25.19 L139.7,26.807 L138.061,28.424 L138.061,31.603 L135.443,31.603 L135.443,34.1 L138.006,34.1 L138.006,39.941 C137.893825,41.3152478 138.284739,42.6834483 139.106,43.791 C139.995995,44.685894 141.236431,45.1409888 142.494,45.034 C142.920408,45.0312733 143.346359,45.0055694 143.77,44.957 C144.14367,44.906692 144.511899,44.8219994 144.87,44.704 L144.87,43.384 L144.848,42.097 Z" id="Path" fill="#FFFFFF"></path>
            <polygon id="Path" fill="#FFFFFF" points="102.729 28.501 102.729 36.641 102.729 44.792 104.533 44.792 106.337 44.792 106.337 34.87 106.337 24.948 104.533 26.719"></polygon>
            <polygon id="Path" fill="#FFFFFF" points="111.001 208.406 107.866 205.271 104.742 202.147 107.866 199.023 111.001 195.888 114.125 199.023 117.249 202.147 114.125 205.271"></polygon>
            <polygon id="Path" fill="#FFFFFF" points="129.844 204.941 130.537 204.941 131.241 204.941 131.241 202.323 131.241 199.716 130.537 199.716 129.844 199.716 129.844 202.323"></polygon>
            <polygon id="Path" fill="#FFFFFF" points="129.844 198.836 130.537 198.836 131.241 198.836 131.241 198.176 131.241 197.527 130.537 197.527 129.844 197.527 129.844 198.176"></polygon>
            <path d="M126.676,199.595 C126.292911,199.588589 125.914451,199.679419 125.576,199.859 C125.245336,200.027805 124.973182,200.292293 124.795,200.618 C124.708212,200.310425 124.517799,200.042292 124.256,199.859 C123.978178,199.678526 123.652185,199.586481 123.321,199.595 C122.966492,199.593839 122.617765,199.684812 122.309,199.859 C122.000239,200.028521 121.747859,200.284725 121.583,200.596 L121.583,200.596 L121.583,199.716 L120.351,199.716 L120.351,204.941 L121.682,204.941 L121.682,202.323 C121.669341,201.902741 121.784402,201.488521 122.012,201.135 C122.189326,200.860333 122.488421,200.688251 122.815,200.673 C123.069672,200.661624 123.314616,200.771849 123.475,200.97 C123.651019,201.21642 123.740029,201.51441 123.728,201.817 L123.728,204.941 L125.015,204.941 L125.015,202.4 C124.992017,201.950937 125.107186,201.505615 125.345,201.124 C125.521734,200.853135 125.824598,200.691331 126.148,200.695 C126.420431,200.678237 126.682296,200.802935 126.841,201.025 C127.015383,201.36401 127.09158,201.744998 127.061,202.125 L127.061,205.007 L128.414,205.007 L128.414,201.993 C128.443489,201.420372 128.318091,200.850381 128.051,200.343 C127.766464,199.858365 127.237459,199.570587 126.676,199.595 L126.676,199.595 Z" id="Path" fill="#FFFFFF"></path>
            <path d="M152.9,199.595 C152.148057,199.569368 151.416502,199.842218 150.865,200.354 C150.338359,200.884189 150.055507,201.609247 150.084,202.356 C150.069249,203.093854 150.350507,203.806903 150.865,204.336 C151.401245,204.845043 152.116788,205.121772 152.856,205.106 C153.59449,205.129596 154.311625,204.856212 154.847,204.347 C155.365776,203.82068 155.647777,203.105749 155.628,202.367 C155.650385,201.623377 155.372919,200.901967 154.858,200.365 C154.33523,199.855791 153.629591,199.578293 152.9,199.595 L152.9,199.595 Z M152.845,204.083 C152.469767,204.084914 152.11699,203.904424 151.899,203.599 C151.63743,203.243028 151.505462,202.808308 151.525,202.367 C151.50489,201.9033 151.631949,201.445118 151.888,201.058 C152.123797,200.760997 152.482276,200.587882 152.8615,200.587882 C153.240724,200.587882 153.599203,200.760997 153.835,201.058 C154.09821,201.425691 154.229954,201.871295 154.209,202.323 C154.225779,202.781032 154.094642,203.232296 153.835,203.61 C153.596095,203.918573 153.224082,204.094359 152.834,204.083 L152.845,204.083 Z" id="Shape" fill="#FFFFFF"></path>
            <path d="M159.555,199.595 C159.197254,199.591564 158.84603,199.690823 158.543,199.881 C158.232089,200.060037 157.974037,200.318089 157.795,200.629 L157.795,200.629 L157.795,199.76 L156.53,199.76 L156.53,204.941 L157.85,204.941 L157.85,202.598 C157.850028,202.365911 157.868418,202.134188 157.905,201.905 C157.93167,201.724875 157.987394,201.550273 158.07,201.388 C158.17649,201.188213 158.326935,201.0152 158.51,200.882 C158.704795,200.740834 158.940497,200.667419 159.181,200.673 C159.542911,200.62916 159.888,200.83803 160.017,201.179 C160.139269,201.588858 160.187689,202.017191 160.16,202.444 L160.16,204.941 L161.491,204.941 L161.491,201.927 C161.521315,201.330594 161.367723,200.739266 161.051,200.233 C160.691175,199.782523 160.129181,199.542849 159.555,199.595 L159.555,199.595 Z" id="Path" fill="#FFFFFF"></path>
            <path d="M140.58,202.4 C140.630226,201.650467 140.41615,200.907038 139.975,200.299 C139.542159,199.81228 138.908955,199.552504 138.259,199.595 C137.543939,199.580869 136.854979,199.863622 136.356,200.376 C135.334855,201.519551 135.334855,203.247449 136.356,204.391 C136.928653,204.884814 137.66863,205.140657 138.424,205.106 C138.73407,205.105543 139.043418,205.076081 139.348,205.018 C139.610051,204.963741 139.864804,204.878824 140.107,204.765 L140.107,203.665 C139.890881,203.798325 139.657785,203.901924 139.414,203.973 C139.148445,204.044115 138.874906,204.08108 138.6,204.083 C138.177234,204.090557 137.76241,203.967646 137.412,203.731 C137.105986,203.506056 136.919605,203.153551 136.906,202.774 L140.525,202.774 C140.525,202.774 140.525,202.664 140.525,202.598 C140.525,202.532 140.58,202.4 140.58,202.4 Z M136.917,201.85 C136.944391,201.495082 137.087355,201.158924 137.324,200.893 C137.559773,200.665981 137.876819,200.543126 138.204,200.552 C138.528198,200.528193 138.846323,200.649001 139.073,200.882 C139.266593,201.166148 139.359528,201.50691 139.337,201.85 L136.917,201.85 L136.917,201.85 Z" id="Shape" fill="#FFFFFF"></path>
            <path d="M167.387,202.4 C167.433125,201.652555 167.223654,200.911649 166.793,200.299 C166.355767,199.811892 165.71917,199.552388 165.066,199.595 C164.350939,199.580869 163.661979,199.863622 163.163,200.376 C162.674702,200.905215 162.410533,201.603094 162.426,202.323 C162.384358,203.093524 162.672314,203.84541 163.218,204.391 C163.790653,204.884814 164.53063,205.140657 165.286,205.106 C165.596095,205.106067 165.905492,205.0766 166.21,205.018 C166.475577,204.963691 166.733967,204.878792 166.98,204.765 L166.98,203.665 C166.759006,203.796448 166.522525,203.899908 166.276,203.973 C166.014196,204.044137 165.74429,204.08111 165.473,204.083 C165.049741,204.094246 164.633814,203.971008 164.285,203.731 C163.975083,203.509444 163.787607,203.154869 163.779,202.774 L167.387,202.774 C167.393631,202.715521 167.393631,202.656479 167.387,202.598 C167.391646,202.532082 167.391646,202.465918 167.387,202.4 L167.387,202.4 Z M163.735,201.85 C163.753447,201.495049 163.893245,201.157203 164.131,200.893 C164.368097,200.668065 164.684244,200.545558 165.011,200.552 C165.335198,200.528193 165.653323,200.649001 165.88,200.882 C166.082382,201.162417 166.179725,201.505064 166.155,201.85 L163.735,201.85 L163.735,201.85 Z" id="Shape" fill="#FFFFFF"></path>
            <path d="M143.693,201.85 C143.426074,201.775115 143.167936,201.67186 142.923,201.542 C142.782127,201.455469 142.698229,201.300258 142.703,201.135 C142.707899,200.960853 142.803985,200.802103 142.956,200.717 C143.12767,200.601031 143.332017,200.543197 143.539,200.552 C143.735219,200.551611 143.930834,200.573756 144.122,200.618 C144.334488,200.664466 144.541107,200.734569 144.738,200.827 L144.738,199.782 C144.330613,199.645754 143.902383,199.58245 143.473,199.595 C142.937967,199.574099 142.411331,199.732864 141.977,200.046 C141.601573,200.324076 141.384258,200.766906 141.394,201.234 C141.379661,201.560019 141.498828,201.877798 141.724,202.114 C142.045637,202.37857 142.420984,202.569997 142.824,202.675 C143.124025,202.765274 143.40934,202.898668 143.671,203.071 C143.812635,203.177172 143.894514,203.345023 143.891,203.522 C143.882691,203.706698 143.77838,203.873596 143.616,203.962 C143.42776,204.067807 143.215924,204.124548 143,204.127 C142.508372,204.113711 142.024984,203.997549 141.581,203.786 L141.581,204.886 C141.818972,204.960185 142.061474,205.018973 142.307,205.062 C142.559709,205.079168 142.813291,205.079168 143.066,205.062 C143.618489,205.085992 144.163521,204.927508 144.617,204.611 C145.012171,204.321425 145.241917,203.85783 145.233,203.368 C145.254294,202.98793 145.10026,202.619058 144.815,202.367 C144.480546,202.119319 144.098582,201.943316 143.693,201.85 Z" id="Path" fill="#FFFFFF"></path>
            <path d="M149.347,203.885 L149.105,203.885 L148.852,203.885 C148.591443,203.912297 148.335981,203.799224 148.181,203.588 C148.039574,203.313509 147.978564,203.004649 148.005,202.697 L148.005,200.684 L149.237,200.684 L149.237,199.683 L148.005,199.683 L148.005,197.175 L147.367,197.813 L146.74,198.44 L146.74,199.683 L145.728,199.683 L145.728,200.684 L146.718,200.684 L146.718,202.972 C146.671207,203.509959 146.823899,204.046339 147.147,204.479 C147.486536,204.832691 147.96739,205.014527 148.456,204.974 C148.620807,204.985297 148.786193,204.985297 148.951,204.974 C149.096951,204.955428 149.24067,204.922262 149.38,204.875 L149.38,204.358 L149.347,203.885 Z" id="Path" fill="#FFFFFF"></path>
            <polygon id="Path" fill="#FFFFFF" points="133.034 198.55 133.034 201.74 133.034 204.941 133.727 204.941 134.431 204.941 134.431 201.047 134.431 197.153 133.727 197.857"></polygon>
            <polygon id="Path" fill="#1B1A1F" points="147.488 81.4 141.9 81.4 136.312 81.4 136.312 78.65 136.312 75.9 141.9 75.9 147.488 75.9 147.488 78.65"></polygon>
            <polygon id="Path" fill="url(#linearGradient-1)" points="173.8 132.286 141.9 132.693 110 133.1 122.991 107.8 135.993 82.5 141.9 82.5 147.807 82.5 160.809 107.393"></polygon>
            <polygon id="Path" fill="#1B1A1F" points="228.888 81.4 223.3 81.4 217.712 81.4 217.712 78.65 217.712 75.9 223.3 75.9 228.888 75.9 228.888 78.65"></polygon>
            <polygon id="Path" fill="url(#linearGradient-1)" points="255.2 132.286 223.3 132.693 191.4 133.1 204.391 107.8 217.393 82.5 223.3 82.5 229.207 82.5 242.209 107.393"></polygon>
            <path d="M140.899,173.173 L128.7,173.173 C128.548236,173.173986 128.402606,173.233025 128.293,173.338 C128.246505,173.392184 128.205941,173.451186 128.172,173.514 C128.16065,173.586894 128.16065,173.661106 128.172,173.734 L141.559,173.734 C141.557547,173.65745 141.538742,173.582228 141.504,173.514 C141.477967,173.446688 141.436527,173.38641 141.383,173.338 C141.336523,173.282308 141.275642,173.240453 141.207,173.217 C141.111731,173.169611 141.003727,173.154182 140.899,173.173 Z" id="Path" fill="#CED6DB"></path>
            <path d="M138.413,172.106 L138.413,168.3 L131.417,168.3 L131.417,172.139 C131.422308,172.20122 131.422308,172.26378 131.417,172.326 C131.389562,172.469544 131.337458,172.607247 131.263,172.733 C131.183643,172.897355 131.062197,173.037777 130.911,173.14 C130.719629,173.268849 130.492591,173.334267 130.262,173.327 L139.623,173.327 C139.388691,173.336612 139.157443,173.271092 138.963,173.14 C138.803138,173.03027 138.677352,172.877801 138.6,172.7 C138.533062,172.571893 138.484902,172.434822 138.457,172.293 C138.424,172.183 138.413,172.106 138.413,172.106 Z" id="Path" fill="#9DADB7"></path>
            <g id="Group" opacity="0.5" transform="translate(130.900000, 169.400000)" fill="#8F9C9B">
                <polygon id="Path" style="mix-blend-mode: multiply;" points="0.517 0.132 2.266 0.132 4.015 0.132 5.764 0.132 7.513 0.132 7.513 0.693 7.513 1.265 7.513 1.826 7.513 2.387 5.764 2.387 4.015 2.387 2.266 2.387 0.517 2.387 0.517 1.826 0.517 1.265 0.517 0.693"></polygon>
            </g>
            <path d="M154.154,169.686 L115.654,169.686 C115.506547,169.685716 115.360657,169.65579 115.225,169.598 C115.095176,169.541963 114.976072,169.463801 114.873,169.367 C114.774054,169.265635 114.695617,169.146112 114.642,169.015 C114.58421,168.879343 114.554,168.733453 114.554,168.586 L114.554,145.882 C114.554,145.734547 114.58421,145.588657 114.642,145.453 C114.698155,145.326526 114.776375,145.211059 114.873,145.112 C114.97563,145.011796 115.09469,144.929942 115.225,144.87 C115.360657,144.81221 115.506547,144.782284 115.654,144.782 L154.154,144.782 C154.44797,144.78322 154.729221,144.902059 154.935,145.112 C155.031461,145.213589 155.112948,145.328411 155.177,145.453 C155.231024,145.589433 155.257204,145.735296 155.254262,145.882 L155.254262,168.586 C155.257204,168.732704 155.231024,168.878567 155.177,169.015 C155.11581,169.144597 155.034091,169.263461 154.935,169.367 C154.833635,169.465946 154.714112,169.544383 154.583,169.598 C154.447343,169.65579 154.301453,169.685716 154.154,169.686 Z" id="Path" fill="#023852"></path>
            <polygon id="Path" fill="#0099DA" points="115.852 167.376 125.422 167.376 134.981 167.376 144.551 167.376 154.11 167.376 154.11 162.118 154.11 156.849 154.11 151.58 154.11 146.322 144.551 146.322 134.981 146.322 125.422 146.322 115.852 146.322 115.852 151.58 115.852 156.849 115.852 162.118"></polygon>
            <path d="M135.564,168.454 C135.562845,168.366829 135.54414,168.280783 135.509,168.201 C135.478043,168.127179 135.433236,168.059969 135.377,168.003 C135.317399,167.942072 135.246381,167.89348 135.168,167.86 C135.084483,167.843403 134.998517,167.843403 134.915,167.86 C134.835188,167.843394 134.752812,167.843394 134.673,167.86 C134.593159,167.890761 134.521595,167.939725 134.464,168.003 C134.404232,168.059355 134.355706,168.126545 134.321,168.201 C134.262219,168.364545 134.262219,168.543455 134.321,168.707 C134.355706,168.781455 134.404232,168.848645 134.464,168.905 C134.521595,168.968275 134.593159,169.017239 134.673,169.048 C134.752812,169.064606 134.835188,169.064606 134.915,169.048 C135.088715,169.054943 135.257022,168.986819 135.377,168.861 C135.433236,168.804031 135.478043,168.736821 135.509,168.663 C135.538885,168.596897 135.557476,168.526251 135.564,168.454 L135.564,168.454 Z" id="Path" fill="#4E7486"></path>
            <g id="Group" opacity="0.2" transform="translate(115.500000, 146.300000)" fill="#FFFFFF">
                <polygon id="Path" points="0.946 0 2.354 1.331 3.751 2.662 5.159 3.993 6.567 5.324 10.725 9.273 14.894 13.211 19.052 17.138 23.221 21.076 38.621 21.076 38.621 0"></polygon>
            </g>
        </g>
    </g>
</svg>