<?xml version="1.0" encoding="UTF-8"?>
<svg width="440px" height="330px" viewBox="0 0 440 330" version="1.1" xmlns="http://www.w3.org/2000/svg" xmlns:xlink="http://www.w3.org/1999/xlink">
    <title>Graphic elements / Icons / Rich icons / well-being</title>
    <defs>
        <linearGradient x1="50.0646067%" y1="0.037576225%" x2="50.0646067%" y2="99.8653554%" id="linearGradient-1">
            <stop stop-color="#FFE700" offset="0%"></stop>
            <stop stop-color="#FFE403" offset="34%"></stop>
            <stop stop-color="#FDDA0B" offset="62%"></stop>
            <stop stop-color="#FAC919" offset="87%"></stop>
            <stop stop-color="#FAC61B" offset="90%"></stop>
        </linearGradient>
        <linearGradient x1="-0.0881907934%" y1="57.8383816%" x2="99.163711%" y2="43.041958%" id="linearGradient-2">
            <stop stop-color="#FFE700" offset="0%"></stop>
            <stop stop-color="#FFE403" offset="34%"></stop>
            <stop stop-color="#FDDA0B" offset="62%"></stop>
            <stop stop-color="#FAC919" offset="87%"></stop>
            <stop stop-color="#FAC61B" offset="90%"></stop>
        </linearGradient>
    </defs>
    <g id="Graphic-elements-/-Icons-/-Rich-icons-/-well-being" stroke="none" stroke-width="1" fill="none" fill-rule="evenodd">
        <g id="Asset-37" transform="translate(93.000000, 0.000000)">
            <g id="Group" opacity="0.2" style="mix-blend-mode: multiply;" fill="#023852">
                <path d="M251.26,294.323518 C251.2341,293.960622 251.098119,293.614058 250.87,293.329552 L245.49,286.371784 C245.31064,286.141162 245.187424,285.872402 245.13,285.58655 L244,279.89112 C243.848778,279.116645 243.224506,278.520004 242.44,278.40017 L238.99,277.883307 L239.71,277.604996 L239.88,277.555298 L243.95,276.869461 C244.201049,276.824764 244.422165,276.678486 244.560561,276.465549 C244.698957,276.252613 244.742212,275.992126 244.68,275.746278 L204.8,168.298464 L209.37,169.043939 C209.706742,169.110125 210.0523,168.982334 210.263628,168.713467 C210.474956,168.4446 210.516089,168.080411 210.37,167.771661 L198.69,142.326111 C198.599964,142.140544 198.578716,141.929344 198.63,141.72973 L204.81,117.16881 C204.99535,116.583854 205.553654,116.196215 206.17,116.224542 L206.25,116.224542 C206.262281,116.44001 206.350836,116.644219 206.5,116.801042 L211.5,122.069067 C211.533193,122.094709 211.570339,122.114848 211.61,122.128705 L216.87,127.97323 C217.090669,128.218038 217.427581,128.32459 217.75,128.25154 L227.26,126.114512 C227.576866,126.047037 227.832772,125.815453 227.93,125.508192 L231.22,115.508885 C231.301786,115.264834 231.276376,114.997829 231.15,114.77335 L218.3,92.5581913 L218.2,92.2699409 L216.76,84.7555517 C216.314378,82.5030618 214.462405,80.7905963 212.17,80.5113133 L195.98,78.5233797 L190.12,76.9628517 L190.12,74.8457024 C190.688647,74.9014525 191.242034,74.6417073 191.56,74.1698049 L197.21,65.4825348 C197.365909,65.2383006 197.452305,64.9566309 197.46,64.667482 L197.59,53.5449932 C197.604125,53.1881752 197.494704,52.8373354 197.28,52.5510264 L195.51,50.254963 C195.340809,50.0322783 195.236971,49.7673691 195.21,49.4896085 L194.92,46.8257774 C194.856853,46.2237676 194.440553,45.7162909 193.86,45.5336205 L175.59,39.7586733 C174.84673,39.5271066 174.036206,39.680028 173.43,40.1661997 L170.87,42.2435903 C170.161108,42.815203 170.045311,43.8466615 170.61,44.559533 C170.883439,44.8838281 171.224688,45.1450046 171.61,45.3248875 C171.477629,45.5896511 171.380158,45.8702758 171.32,46.1598196 L167.55,62.6199104 L166.76,70.2635153 C166.739942,70.4584871 166.739942,70.6549839 166.76,70.8499557 C164.76,69.8559889 160.43,67.8680552 157.25,66.4864413 C154.931952,65.440562 152.202239,65.9624928 150.44,67.7885379 L148.26,70.0349029 C147.897417,70.3924549 147.312583,70.3924549 146.95,70.0349029 L132.57,57.5904382 L117.61,30.8129718 C117.3728,30.3922252 116.847621,30.2269219 116.41,30.4352644 L116.22,30.5247214 L113.39,25.3560939 C113.248328,25.0920995 112.929426,24.9764455 112.65,25.0877228 L112.12,22.5531074 C112.05513,22.2886093 112.05513,22.0124924 112.12,21.7479943 L114.22,13.4086126 L111.87,6.45084473 L110.26,6.88819014 L109.51,0 L104.12,0.437345406 L101,8.44871807 L102.18,23.4576172 L104.57,25.2467575 C104.918038,25.5023158 105.157089,25.8782349 105.24,26.3003624 L105.59,27.9404076 C105.618792,28.086215 105.669351,28.2269253 105.74,28.3578737 L105.44,28.4970291 C105.209488,28.6067567 105.076265,28.8515304 105.11,29.1033488 L105.85,35.5243745 L104.67,36.0909356 C104.453594,36.1921499 104.286618,36.374818 104.20594,36.5986077 C104.125262,36.8223975 104.137517,37.0689026 104.24,37.2836958 L120.24,72.281268 C120.292571,72.396926 120.371278,72.498969 120.47,72.579458 L142.33,91.7928369 C142.495769,91.9447686 142.605013,92.1479272 142.64,92.3693376 L144.94,111.841148 C144.968593,112.065622 144.911505,112.292596 144.78,112.477287 L120.2,147.107091 C120.043607,147.326507 119.992301,147.60322 120.059727,147.863636 C120.127152,148.124051 120.306474,148.341769 120.55,148.458886 L143.37,159.303064 L140.37,173.894497 C140.365083,173.954035 140.365083,174.013873 140.37,174.073411 L122.66,283.678134 C122.659285,284.169865 123.045999,284.576086 123.54,284.602523 L125.6,284.68204 L124.42,285.328119 C123.946974,285.587903 123.608459,286.036532 123.49,286.560637 L119.49,304.352644 C119.377951,304.84185 119.471876,305.355322 119.75,305.774016 L121.75,308.825494 C122.076649,309.330086 122.627206,309.648074 123.23,309.680306 L132.79,310.178876 C133.285078,310.197357 133.768794,310.026407 134.14,309.700185 L135.51,308.497485 C135.943074,308.108893 136.174889,307.545653 136.14,306.966776 L135.48,297.027108 C135.460104,296.875341 135.460104,296.72165 135.48,296.569883 L137,288.230502 C137.122021,287.581198 136.890105,286.916102 136.39,286.48112 L134.73,285.039868 L136.47,285.109446 C136.714201,285.131478 136.957146,285.055701 137.144901,284.898939 C137.332655,284.742176 137.449682,284.517401 137.47,284.274514 L170.8,190.185613 C171.067564,189.438716 171.724156,188.8967 172.511939,188.77241 C173.299722,188.648119 174.092901,188.961401 174.58,189.589233 L199.99,222.64857 L200.09,222.807605 L227.55,281.292613 C227.754111,281.726051 228.259918,281.929753 228.71,281.759778 L231.2,280.815509 C230.945608,281.038679 230.758646,281.327753 230.66,281.650441 L228.57,288.459114 C228.345054,289.179386 228.57776,289.963459 229.16,290.447048 L231.54,292.434981 C231.849287,292.695411 232.235336,292.848899 232.64,292.872327 C233.616112,292.92889 234.385653,293.719717 234.41,294.691286 L234.48,297.454514 C234.510215,298.122092 234.889528,298.725331 235.48,299.044861 L240.9,302.086399 C241.159168,302.234463 241.451195,302.316421 241.75,302.324951 L249.75,302.65296 C250.290606,302.688509 250.82036,302.490509 251.203461,302.109719 C251.586563,301.728929 251.785764,301.202371 251.75,300.665027 L251.26,294.323518 Z" id="Path"></path>
                <path d="M95,79.7843832 L94.77,79.7247451 L95,72.2600542 C94.995776,72.2004901 94.995776,72.1407043 95,72.0811402 L96,63.4535081 C96.2750684,61.1852211 94.8233805,59.0632657 92.6,58.483674 L85.86,56.7243527 C85.1447406,56.5370811 84.3832329,56.7414477 83.86,57.2610948 L82.45,58.6526483 C82.06256,59.0410613 81.8466593,59.5668266 81.85,60.1137796 L81.85,65.0836137 C81.8480555,65.4742679 81.959133,65.8572436 82.17,66.1869169 L86.47,72.9359517 C86.6892858,73.2728974 86.8008425,73.6679204 86.79,74.0690739 L86.79,78.0946395 C86.1580396,78.2636178 85.6703312,78.763652 85.52,79.3967361 L80.68,100.737204 C80.5419188,101.332783 80.1027533,101.814455 79.52,102.009482 L58.08,109.24556 C57.5977041,109.406504 57.0689364,109.352134 56.63,109.096465 L49.69,105.120598 C49.2858593,104.883856 48.8026688,104.819341 48.35,104.941684 L39.04,107.396782 C38.9070672,107.411309 38.7729328,107.411309 38.64,107.396782 C38.87,106.044987 39.17,104.315485 39.45,102.675439 L40.15,102.675439 L40.24,102.675439 C40.4097994,102.663394 40.5711423,102.597155 40.7,102.486586 C40.8308282,102.37465 40.9161483,102.219174 40.94,102.04924 L41.59,98.2821059 L42.23,94.5050319 C42.2583175,94.3840563 42.3091959,94.2694278 42.38,94.1670832 C42.4590328,94.066981 42.5622249,93.9883444 42.68,93.9384708 L43.59,93.5408841 L44.5,93.1432974 C44.8509067,92.981313 45.0263918,92.585663 44.91,92.2189082 L43.78,88.5809896 L42.62,85.002709 L41.93,81.4343681 L41.24,77.8759668 C41.2180157,77.7481457 41.1628668,77.6282355 41.08,77.5280784 C40.9930208,77.4301708 40.8831164,77.3550674 40.76,77.3094057 C40.76,77.3094057 40.76,77.3094057 40.82,77.2497677 C40.8893492,77.12267 40.8893492,76.969339 40.82,76.8422413 L39.15,73.8603408 L37.47,70.6895867 C37.4371692,70.6286345 37.3889149,70.5772455 37.33,70.5404916 C37.2729301,70.5045957 37.2074601,70.4840457 37.14,70.4808536 L30.26,69.8049562 L23.38,69.0992397 L23.24,69.0992397 C23.1925784,69.1087637 23.1480577,69.1291878 23.11,69.1588777 L17.37,73.075107 L11.64,76.911819 C11.5904999,76.9408566 11.5492138,76.9818935 11.52,77.031095 C11.4897496,77.076086 11.4693112,77.1268739 11.46,77.1801901 L10.29,83.8994058 L9.12,90.5888026 C9.11514406,90.6117441 9.11514406,90.6354389 9.12,90.6583803 C9.11432234,90.6845857 9.11432234,90.7116922 9.12,90.7378976 L9.9,94.4056352 L10.59,97.5962688 C10.5959381,97.8339256 10.6260922,98.0703724 10.68,98.3019852 L11,99.6040818 C11.4464001,101.53763 10.9415551,103.566965 9.64,105.070899 L4,111.541623 C3.4094472,112.229876 3.08035937,113.102149 3.07,114.006661 L3.07,118.509331 C2.46900413,118.730544 1.91830853,119.068428 1.45,119.503298 L1.45,119.503298 C0.55717012,120.331542 0.0350050878,121.480534 0,122.693931 C0,124.174942 0,126.003841 0,126.093298 C0,126.182755 3.09,130.407114 4.52,132.375168 C4.99823664,133.03605 5.29154416,133.811198 5.37,134.621533 C5.49,135.973328 5.69,138.169995 5.87,139.959135 L3.8,141.460025 C3.21230775,141.887253 2.94995022,142.630065 3.14,143.328683 L8.7,163.873977 C8.7980727,164.241806 9.01612501,164.566911 9.32,164.798366 L15,169.201639 C15.374969,169.489949 15.8496885,169.618637 16.32,169.559467 L18.42,169.281157 C19.0746034,169.196822 19.6266983,168.755508 19.85,168.138095 L20.85,165.414626 C21.1627198,164.537253 22.111879,164.056919 23.0096435,164.321711 C23.907408,164.586503 24.4393574,165.503683 24.22,166.408593 L19.22,186.963827 C19.0428702,187.727946 19.3928851,188.516797 20.08,188.902062 L20.21,203.622711 L28.12,226.344792 L29.46,235.896814 L32.94,252.327085 C33.083533,253.019578 33.7204102,253.499665 34.43,253.450268 L34.69,253.450268 L33.61,256.064401 L32.96,257.58517 L32.96,257.58517 L28.72,267.842908 C28.5888327,268.126662 28.5206226,268.435145 28.52,268.747417 L28.52,290.207161 L28.52,302.452833 C28.52,302.512471 28.52,302.562169 28.52,302.611867 C28.4802157,302.568607 28.4239662,302.543966 28.365,302.543966 C28.3060338,302.543966 28.2497843,302.568607 28.21,302.611867 L25.29,307.581702 C25.2811028,307.617611 25.2811028,307.655129 25.29,307.691038 L25.29,313.00876 C25.2797185,313.044489 25.2797185,313.082368 25.29,313.118097 L26.85,315.811747 C26.85,315.811747 26.85,315.811747 26.85,315.881325 L28.74,326.21858 C28.7427027,326.264833 28.7643943,326.307954 28.8,326.337856 L31.15,328.325789 C31.1863834,328.356573 31.2322404,328.374104 31.28,328.375488 L42.73,328.375488 C43.3542262,328.356645 43.9337658,328.049055 44.2967572,327.543933 C44.6597486,327.038811 44.7645194,326.394146 44.58,325.801114 L43.39,322.332169 C43.2171393,321.839812 42.780105,321.486143 42.26,321.41772 L39.4,312.949122 C39.3474001,312.77429 39.3138739,312.594341 39.3,312.41238 L38.19,297.820947 C38.1676427,297.538806 38.2016277,297.255054 38.29,296.986015 L43.62,280.426528 C43.6562278,280.299445 43.6829671,280.169877 43.7,280.038881 L45.56,266.123345 C45.5793546,265.985394 45.6094448,265.849144 45.65,265.715819 L50.58,252.018956 L52.39,251.859921 C52.9360001,251.82769 53.4448968,251.574598 53.7982027,251.159574 C54.1515086,250.74455 54.3183931,250.203809 54.26,249.663254 L54.06,247.516286 L60.62,246.80063 C61.2018962,247.970908 62.5261351,248.579363 63.8,248.261761 L77.01,246.810569 L77.26,247.307553 C77.2753982,247.362169 77.2954715,247.415375 77.32,247.466588 L78.43,249.703013 C78.5792358,250.014431 78.6642393,250.352394 78.68,250.69698 C78.68,250.806316 78.68,250.915652 78.68,251.015049 C78.6757057,251.041383 78.6757057,251.068233 78.68,251.094567 C78.653215,251.252303 78.6061636,251.405967 78.54,251.551791 L75.34,258.946904 L74.34,261.312546 C74.3030366,261.384795 74.2761236,261.461703 74.26,261.541158 L71.26,268.757357 C71.1490646,269.021976 71.0913122,269.305619 71.09,269.592289 L70.96,293.447493 C70.9607495,293.691053 70.920181,293.932996 70.84,294.163149 L68.79,303.108851 C68.739916,302.815358 68.5251905,302.576287 68.237465,302.493667 C67.9497395,302.411048 67.6398297,302.499473 67.44,302.721204 L63.75,306.985321 C63.6274887,307.126141 63.5600471,307.306076 63.56,307.492245 L63.56,312.014794 C63.5597324,312.117179 63.580135,312.218577 63.62,312.312984 L64.77,315.056332 C64.8091131,315.150967 64.8294856,315.252214 64.83,315.354522 L64.83,322.00416 C64.8751532,322.401174 65.2130327,322.701188 65.615,322.701188 C66.0169673,322.701188 66.3548468,322.401174 66.4,322.00416 L66.4,317.034326 C66.3971102,316.722377 66.5826076,316.439092 66.8707468,316.315419 C67.1588861,316.191746 67.4935336,316.251778 67.72,316.467765 L73.8,322.073738 C73.8671373,322.131704 73.9215937,322.202747 73.96,322.282471 L76.96,328.01766 C77.098974,328.273578 77.3674191,328.435189 77.66,328.435189 L94.8,328.435189 C95.008596,328.435189 95.2095708,328.357277 95.3580192,328.211592 C95.5064675,328.065907 95.5900171,327.867186 95.59,327.659832 L95.59,325.333949 C95.5890653,324.998465 95.3711478,324.701639 95.05,324.598414 L86.05,321.676151 C86.0082541,321.378926 85.9025177,321.094143 85.74,320.841219 L83.47,317.272878 C83.2914694,316.996971 83.1786069,316.684223 83.14,316.358429 L81.6,303.973602 C81.5549421,303.720449 81.5549421,303.4614 81.6,303.208247 L93,253.97707 L93.06,253.837915 L95.2,244.38529 C96.1270802,243.575555 96.4006508,242.252481 95.87,241.144959 L84.32,217.110841 L68.67,193.722801 L68,184.041564 L78,177.252771 C78.7403511,176.749537 78.9815548,175.773418 78.56,174.986526 L61.37,142.791941 C61.2586915,142.567996 61.1908408,142.325207 61.17,142.076284 L60.31,127.961955 C60.269459,127.2761 60.6320477,126.628928 61.24,126.302031 L92,109.911518 C92.5015571,109.644157 92.8409834,109.151066 92.91,108.589542 L96.4,81.7524375 C96.5403408,80.8292736 95.922422,79.9606323 95,79.7843832 Z" id="Path"></path>
            </g>
            <polygon id="Path" fill="#023852" points="83.37 244.977644 44.58 249.244713 46.45 219.395166 55.52 217.401208"></polygon>
            <path d="M115.56,33.6380665 L114.82,30.1984894 C114.75513,29.9331898 114.75513,29.6562362 114.82,29.3909366 L116.92,21.026284 L114.57,14.047432 L112.96,14.4861027 L112.23,7.61691843 L106.81,7.97583082 L103.73,16.0114804 L104.91,31.065861 L107.3,32.9003021 C107.648038,33.1566348 107.887089,33.5336931 107.97,33.9570997 L108.32,35.6021148 C108.430218,36.0870677 108.740541,36.5031542 109.174631,36.7480155 C109.608721,36.9928768 110.126284,37.0437854 110.6,36.8882175 L114.38,35.6519637 C115.22867,35.3761254 115.735826,34.5105649 115.56,33.6380665 L115.56,33.6380665 Z" id="Path" fill="#33ADE1"></path>
            <path d="M119.52,39.2610272 L116.12,33.0299094 C115.962927,32.7592726 115.625608,32.6514841 115.34,32.7806647 L108.17,36.160423 C107.939488,36.2704831 107.806265,36.5159986 107.84,36.7685801 L108.67,43.9468278 L119.52,39.2610272 Z" id="Path" fill="#FFFFFF"></path>
            <path d="M247.41,284.138973 L202.06,161.600302 C201.967848,161.326417 201.747729,161.114402 201.47,161.032024 L186.65,156.386103 L186.38,156.386103 L157.13,156.236527 C156.890575,156.234646 156.660256,156.327931 156.49,156.49577 L146.55,165.977039 C146.420494,166.109428 146.330473,166.275119 146.29,166.455589 L143.14,182.018429 C143.135083,182.078147 143.135083,182.138167 143.14,182.197885 L125.389999,292.114804 C125.389999,292.608025 125.775999,293.015477 126.27,293.041994 L139.17,293.560423 C139.414201,293.582521 139.657146,293.506515 139.844901,293.349278 C140.032655,293.192041 140.149682,292.966584 140.17,292.722961 L173.45,198.398792 C173.717564,197.649631 174.374156,197.105972 175.161939,196.981305 C175.949722,196.856638 176.742901,197.17087 177.23,197.800604 L202.73,230.99003 L202.82,231.149547 L230.29,289.801813 C230.486402,290.239028 230.992664,290.44531 231.44,290.270393 L242.44,286.073112 L242.61,286.023263 L246.68,285.335347 C246.947334,285.293495 247.182628,285.136423 247.32327,284.905929 C247.463912,284.675436 247.495636,284.3949 247.41,284.138973 L247.41,284.138973 Z" id="Path" fill="#023852"></path>
            <path d="M157.88,156.356193 L175.88,158.958308 L176.07,158.958308 L181.99,158.579456 C182.476842,158.552785 182.856092,158.148301 182.850072,157.662236 L182.42,126.616314 C182.415153,126.134285 182.033047,125.740198 181.55,125.719033 L169.14,125.200604 C168.747,125.184304 168.387978,125.421589 168.25,125.788822 L157.16,155.1 C157.043506,155.361057 157.058685,155.661822 157.200875,155.909903 C157.343065,156.157984 157.595264,156.323718 157.88,156.356193 L157.88,156.356193 Z" id="Path" fill="#FFFFFF"></path>
            <path d="M175.77,130.793656 L207,176.156193 C207.051768,176.229525 207.092217,176.31018 207.12,176.395468 L209.12,182.088218 C209.249571,182.425717 209.186087,182.806697 208.953355,183.083974 C208.720898,183.361252 208.356142,183.491412 208,183.424169 L176.43,178.050453 C175.973261,177.978071 175.625888,177.602888 175.59,177.143202 L173.86,144.392447 C173.830769,144.023016 173.553087,143.720833 173.186507,143.659528 C172.819927,143.598223 172.458542,143.793532 172.31,144.133233 L153,190.991239 C152.84915,191.371766 152.480409,191.621768 152.07,191.621768 C151.659591,191.621768 151.29085,191.371766 151.14,190.991239 L147.52,182.686405 C147.413427,182.431375 147.205485,182.23187 146.945782,182.135484 C146.686078,182.039098 146.397901,182.054475 146.15,182.177946 L144.55,182.945619 C144.255257,183.091472 143.907408,183.083428 143.619764,182.924109 C143.332121,182.76479 143.141501,182.474588 143.11,182.148036 L143.11,182.148036 C143.090592,182.035874 143.090592,181.921226 143.11,181.809063 L148.18,158.978248 C148.221004,158.805956 148.307295,158.647661 148.43,158.519637 L174.12,130.674018 C174.325535,130.415013 174.646384,130.274294 174.976775,130.298249 C175.307166,130.322205 175.604216,130.507727 175.77,130.793656 Z" id="Path" fill="#7FCCEC" style="mix-blend-mode: multiply;"></path>
            <path d="M233.88,122.728097 L221,100.41571 L220.9,100.126586 L219.46,92.589426 C219.029793,90.3145108 217.174339,88.5775073 214.87,88.2924471 L198.68,86.2984894 L170.86,79.3196375 C170.70442,79.3079694 170.553737,79.2601696 170.42,79.1800604 C169.3,78.5021148 163.81,76.0096677 159.96,74.294864 C157.641952,73.2458153 154.912239,73.7693278 153.15,75.6009063 L151,77.7643505 C150.827117,77.9391003 150.591194,78.0374771 150.345,78.0374771 C150.098806,78.0374771 149.862883,77.9391003 149.69,77.7643505 L135.3,65.341994 L120.3,38.5132931 C120.0628,38.0912715 119.537621,37.9254673 119.1,38.1344411 L107.4,43.7773414 C107.183594,43.8788623 107.016618,44.062084 106.93594,44.2865519 C106.855262,44.5110198 106.867517,44.7582718 106.97,44.973716 L122.97,80.0773414 C123.022571,80.1933499 123.101278,80.2957021 123.2,80.376435 L145.12,99.6978852 C145.282084,99.8517361 145.387718,100.055346 145.42,100.276133 L147.72,119.806949 C147.748593,120.032103 147.691505,120.259765 147.56,120.445015 L122.93,155.159819 C122.773607,155.379899 122.722301,155.657451 122.789727,155.918656 C122.857152,156.17986 123.036474,156.398239 123.28,156.51571 L153.52,170.932024 C153.970259,171.146967 154.510147,170.960134 154.73,170.513293 L174.08,132.299094 C174.257443,131.938875 174.65118,131.73768 175.048108,131.804402 C175.445036,131.871124 175.750836,132.189908 175.8,132.588218 L181.09,171.470393 C181.141475,171.865737 181.44578,172.181259 181.84,172.248036 L212.1,177.232931 C212.436742,177.299317 212.7823,177.171139 212.993628,176.901457 C213.204956,176.631775 213.246089,176.266483 213.1,175.956798 L201.42,150.434139 C201.329964,150.24801 201.308716,150.03617 201.36,149.835952 L207.63,124.851662 C207.708483,124.521177 207.965533,124.262068 208.296136,124.180192 C208.626739,124.098316 208.975524,124.207385 209.2,124.46284 L219.62,136.067674 C219.843827,136.314923 220.1845,136.421777 220.51,136.346828 L230.02,134.203323 C230.333044,134.13246 230.584531,133.900727 230.68,133.595166 L234,123.465861 C234.072321,123.214402 234.028321,122.943884 233.88,122.728097 L233.88,122.728097 Z" id="Path" fill="#023852"></path>
            <path d="M212,113.775227 L216,116.825982 C216.167729,116.954724 216.284575,117.138288 216.33,117.344411 L217.79,123.425982 C217.841046,123.632835 217.819883,123.850853 217.73,124.044109 L215.1,129.896375 C215.023122,130.058533 214.871557,130.172957 214.694155,130.202765 C214.516753,130.232574 214.335943,130.174 214.21,130.045921 L209.21,124.761934 C208.894008,124.429736 208.868522,123.917324 209.15,123.555589 L211.61,120.445015 C211.77249,120.220568 211.834071,119.938875 211.78,119.667372 L210.58,114.682477 C210.522199,114.322271 210.683992,113.962155 210.992055,113.765331 C211.300117,113.568507 211.695885,113.572392 212,113.775227 L212,113.775227 Z" id="Path" fill="#FFFFFF"></path>
            <path d="M139.09,294.936254 L135.77,292.035045 C135.407481,291.721009 134.94008,291.553822 134.46,291.566465 L131.4,291.676133 C131.106079,291.68741 130.818686,291.765864 130.56,291.905438 L127.15,293.769789 C126.676974,294.03036 126.338459,294.480349 126.22,295.006042 L122.22,312.841994 C122.107472,313.335887 122.201334,313.854169 122.48,314.277644 L124.48,317.338369 C124.808676,317.847256 125.363609,318.166586 125.97,318.19577 L135.52,318.69426 C136.015078,318.714388 136.498794,318.54292 136.87,318.21571 L138.24,317.009366 C138.673074,316.619596 138.904889,316.054649 138.87,315.474018 L138.21,305.50423 C138.190104,305.352003 138.190104,305.197846 138.21,305.045619 L139.73,296.680967 C139.841091,296.027486 139.597746,295.3641 139.09,294.936254 L139.09,294.936254 Z" id="Path" fill="#023852"></path>
            <path d="M233.39,290.120846 L231.3,296.950151 C231.075054,297.672606 231.30776,298.459055 231.89,298.944109 L234.27,300.938066 C234.579287,301.199286 234.965336,301.353239 235.37,301.376737 L235.37,301.376737 C236.346112,301.433472 237.115653,302.226695 237.14,303.201208 L237.21,305.97281 C237.239731,306.640015 237.619679,307.242308 238.21,307.558006 L243.63,310.618731 C243.891111,310.762586 244.181982,310.844466 244.48,310.858006 L252.48,311.187009 C253.020606,311.222665 253.55036,311.024066 253.933461,310.642121 C254.316563,310.260177 254.515764,309.732024 254.48,309.193051 L254.06,302.792447 C254.030513,302.429265 253.894927,302.082659 253.67,301.795468 L248.29,294.816616 C248.11064,294.585296 247.987424,294.315722 247.93,294.029003 L246.8,288.316314 C246.651538,287.537998 246.025895,286.938235 245.24,286.820846 L239.53,285.963444 C239.047548,285.885252 238.553826,286.003819 238.16,286.292447 L234.16,289.123867 C233.797436,289.359605 233.525939,289.711133 233.39,290.120846 Z" id="Path" fill="#023852"></path>
            <path d="M192.820004,81.2936556 L192.820004,90.2664653 C192.820315,90.3756264 192.799958,90.4838657 192.76,90.5854985 L188.91,100.964048 C188.879386,101.055131 188.831897,101.139676 188.77,101.213293 L177.08,115.908761 C176.838327,116.221241 176.421782,116.342156 176.049631,116.207858 C175.677479,116.07356 175.435068,115.714847 175.45,115.320544 L175.81,102.638973 C175.811238,102.493374 175.776917,102.349662 175.71,102.220242 L171.88,94.4238671 C171.78607,94.2041231 171.78607,93.9556957 171.88,93.7359517 L175.96,81.6725076 C176.076802,81.315791 176.403914,81.0692094 176.78,81.0543807 L191.92,80.3864048 C192.416412,80.3971383 192.81472,80.7986548 192.820004,81.2936556 L192.820004,81.2936556 Z" id="Path" fill="#FFFFFF"></path>
            <path d="M197.46,67.6450151 L192.46,57.5356495 C192.099311,56.7958691 191.429729,56.2523371 190.63,56.0501511 L175.8,52.3114804 C174.8,52.0522659 174.23,52.8598187 174.02,53.8966767 L170.28,70.3667674 L170.28,70.3667674 L169.49,78.0335347 C169.353786,79.4137793 170.251041,80.6856426 171.6,81.0244713 L171.6,81.0244713 C172.489849,81.0371381 173.264257,81.6344745 173.5,82.4900302 L174.09,84.763142 C174.298497,85.5441762 174.834053,86.1979771 175.56,86.5577039 L179.86,88.7111782 C180.678064,89.135027 181.651936,89.135027 182.47,88.7111782 L191.42,83.8558912 C192.11628,83.4797108 192.621016,82.8280711 192.81,82.0613293 L194.2,76.3486405 C194.261244,76.1137652 194.348445,75.8863916 194.46,75.6706949 L197.41,70.2471299 C197.854292,69.4405813 197.872982,68.467937 197.46,67.6450151 L197.46,67.6450151 Z" id="Path" fill="#33ADE1"></path>
            <path d="M200,60.3271903 L198.23,58.0241692 C198.060809,57.8008097 197.956971,57.5350977 197.93,57.2564955 L197.64,54.5845921 C197.576853,53.9807581 197.160553,53.4717435 196.58,53.2885196 L178.34,47.4761329 C177.596951,47.2401542 176.784637,47.3938776 176.18,47.8848943 L173.62,49.9685801 C172.912345,50.5383431 172.796404,51.5697706 173.36,52.281571 C173.785923,52.8043449 174.385368,53.1579748 175.05,53.2785498 L183.5,54.9435045 C184.170789,55.0715483 184.678465,55.622231 184.75,56.2993958 L185,58.9214502 C185.035438,59.2569611 185.179338,59.5718869 185.41,59.8187311 L187.17,61.663142 C187.500592,62.0082727 187.648801,62.4884975 187.57,62.9592145 L186.81,67.8743202 C186.720282,68.433962 186.947095,68.9973669 187.4,69.3398792 L187.4,69.3398792 C188.585761,69.2800153 189.721164,68.8432974 190.64,68.0936556 L191.16,67.6250755 C191.472501,67.3418068 191.889131,67.2009417 192.31,67.2362538 L194.31,67.3758308 C195.053857,67.4544537 195.637038,68.0484215 195.7,68.7915408 L195.85,71.1244713 C195.881858,71.5744313 195.713635,72.0155938 195.39,72.3308157 L192.07,75.521148 C191.797919,75.7850728 191.633967,76.1404145 191.61,76.5181269 L191.3,80.9845921 C191.247244,81.7673895 191.794936,82.4639098 192.57,82.5996979 L192.69,82.5996979 C193.301721,82.7028313 193.91699,82.4371505 194.26,81.9217523 L199.91,73.2081571 C200.065909,72.9631828 200.152305,72.6806595 200.16,72.3906344 L200.29,61.2344411 C200.29,60.909337 200.188825,60.5922433 200,60.3271903 Z" id="Path" fill="#023852"></path>
            <path d="M181.3,90.51571 L182.8,91.7220544 C183.164675,92.0045705 183.259258,92.514629 183.02,92.9084592 L182.29,94.1148036 C182.179175,94.304318 182.140148,94.5271567 182.18,94.7429003 L184.25,106.577039 C184.28439,106.835064 184.2162,107.096265 184.06,107.304834 L177.06,115.998489 C176.811366,116.299436 176.399071,116.410784 176.032073,116.2761 C175.665074,116.141417 175.423587,115.790141 175.43,115.400302 L175.52,111.332628 C175.511154,111.256448 175.511154,111.179504 175.52,111.103323 L177.52,104.124471 C177.52475,104.051436 177.52475,103.978171 177.52,103.905136 L177.79,94.6432024 C177.797434,94.297086 177.61287,93.9750758 177.31,93.8057402 L177.31,93.8057402 C177.026566,93.6441834 176.851664,93.3436273 176.851664,93.0181269 C176.851664,92.6926265 177.026566,92.3920704 177.31,92.2305136 L180.24,90.4558912 C180.570395,90.250055 180.995013,90.2740174 181.3,90.51571 Z" id="Path" fill="url(#linearGradient-1)"></path>
            <path d="M209.19,123.99426 C209.553135,124.272535 210.067129,124.238373 210.39,123.914502 C211.45,122.837764 213.64,120.574622 213.64,120.245619 C213.64,119.916616 212.2,115.629607 211.82,114.512991 C211.756048,114.340093 211.645281,114.188249 211.5,114.07432 L202.5,107.434441 C202.208664,107.216909 201.815335,107.19338 201.5,107.374622 L195.02,110.993656 C194.806374,111.113598 194.651074,111.315237 194.59,111.551964 L192.82,118.062236 C192.794483,118.151507 192.753903,118.235793 192.7,118.31148 L191.85,119.637462 C191.619509,119.991235 191.660774,120.456129 191.95,120.764048 L193.45,122.349245 C193.675109,122.580515 194.004522,122.678662 194.32,122.608459 L203.95,120.474924 C204.212666,120.429492 204.482654,120.490505 204.7,120.644411 L209.19,123.99426 Z" id="Path" fill="#33ADE1"></path>
            <path d="M194.58,70.7854985 L194.47,68.8712991 C194.460507,68.7487916 194.362879,68.6514587 194.24,68.641994 L192.45,68.4625378 C192.3719,68.4587237 192.295759,68.4876423 192.24,68.5422961 L189.81,70.994864 C189.724279,71.0782743 189.709944,71.2105815 189.775823,71.3103174 C189.841702,71.4100534 189.969279,71.4491885 190.08,71.4036254 L193.21,70.2471299 C193.275159,70.2271392 193.344841,70.2271392 193.41,70.2471299 L194.58,70.7854985 Z" id="Path" fill="#7FCCEC" style="mix-blend-mode: multiply;"></path>
            <path d="M170.8,80.8350453 L179.44,83.018429 C179.771988,83.1062079 180.126057,83.0281763 180.39,82.8090634 L188,76.5679758 C188.092303,76.4943145 188.224665,76.4986466 188.311923,76.5781848 C188.399182,76.657723 188.415339,76.7887698 188.35,76.8870091 L181.87,87.1160121 C181.196081,88.18701 179.822467,88.5819651 178.68,88.0332326 L175.19,86.3682779 C174.685495,86.1091964 174.320072,85.6428686 174.19,85.092145 L173.46,82.2507553 C173.209146,81.768153 172.794492,81.3900856 172.29,81.1839879 L170.8,80.8350453 Z" id="Path" fill="#7FCCEC" style="mix-blend-mode: multiply;"></path>
            <path d="M180,90.5356495 C180.444639,90.254281 181.019614,90.2863502 181.43,90.6154079 L186.93,94.9522659 L180.7,91.3930514 L174,95.2413897 L177.38,92.2504532 L180,90.5356495 Z" id="Path" fill="#C0C2C2" style="mix-blend-mode: multiply;"></path>
            <path d="M192.54,119.637462 L189.39,124.303323 C189.274111,124.467761 189.29531,124.691792 189.44,124.831722 L194.87,130.325076 C194.958499,130.416331 195.08301,130.463794 195.21,130.454683 L200.13,130.016012 C200.244741,130.00496 200.358996,130.041413 200.445983,130.116826 C200.532971,130.192239 200.585045,130.299982 200.59,130.414804 L201.23,146.755287 C201.230559,146.968655 201.391953,147.147482 201.604722,147.170483 C201.81749,147.193485 202.01358,147.053305 202.06,146.845015 L207.49,125.150755 C207.586582,124.76158 207.849785,124.434361 208.209841,124.255836 C208.569897,124.077312 208.990443,124.065512 209.36,124.223565 L209.36,124.223565 C209.501227,124.281315 209.662578,124.260092 209.783949,124.1678 C209.90532,124.075509 209.968518,123.925984 209.95,123.774924 L209.48,120.155891 C209.466214,120.027097 209.392017,119.912439 209.28,119.846828 L202.78,115.998489 C201.971153,115.520698 200.975782,115.479506 200.13,115.888822 L192.7,119.487915 C192.631126,119.518121 192.574673,119.570885 192.54,119.637462 L192.54,119.637462 Z" id="Path" fill="#7FCCEC" style="mix-blend-mode: multiply;"></path>
            <polygon id="Path" fill="#7FCCEC" style="mix-blend-mode: multiply;" points="83.2 244.977644 44.41 249.244713 46.28 219.395166 55.36 217.401208"></polygon>
            <path d="M55.93,245.12719 L48.43,266.193353 C48.3814652,266.325458 48.3479228,266.462566 48.33,266.602115 L46.47,280.559819 C46.4539536,280.688102 46.4271941,280.814826 46.39,280.938671 L41.06,297.548338 C40.9721394,297.818305 40.9381666,298.102815 40.96,298.385801 L42.07,313.03142 C42.0838739,313.213932 42.1174001,313.394426 42.17,313.569789 L45.24,322.702115 L34.58,323.908459 C33.4588832,324.03318 32.4221944,323.299826 32.17,322.203625 L29.62,311.057402 C29.543238,310.729481 29.543238,310.388343 29.62,310.060423 L31.22,303.510272 C31.2596377,303.340287 31.2797669,303.166361 31.28,302.991843 L31.28,290.699094 L31.28,269.124471 C31.2808032,268.814478 31.3490385,268.508347 31.48,268.22719 L41.14,244.778248 C41.4777535,244.042949 42.1908814,243.549854 43,243.492145 L53.57,242.265861 C54.3147086,242.184658 55.0502677,242.483389 55.5260833,243.060281 C56.0018989,243.637173 56.1537864,244.414407 55.93,245.12719 L55.93,245.12719 Z" id="Path" fill="#33ADE1"></path>
            <path d="M81.23,250.132024 C81.4948282,250.715004 81.4948282,251.383486 81.23,251.966465 L74.06,269.18429 C73.9480548,269.449401 73.8902611,269.734107 73.89,270.021752 L73.76,293.949245 C73.7607495,294.193543 73.720181,294.436219 73.64,294.667069 L71.24,305.165257 C71.13,305.49426 70.24,304.656798 70.24,304.99577 L71.07,311.466163 C71.1190677,311.881451 71.2894595,312.273208 71.56,312.592749 L82.19,325.443807 C82.8595979,326.2955 84.050451,326.536331 85,326.012085 L87.81,324.546526 C88.3590934,324.260265 88.7631991,323.758241 88.9246279,323.161812 C89.0860567,322.565383 88.9901165,321.928833 88.66,321.406042 L86.39,317.816918 C86.2116188,317.543759 86.0987032,317.233327 86.06,316.909668 L84.52,304.477341 C84.4750818,304.226758 84.4750818,303.97022 84.52,303.719637 L98.18,244.130211 C98.3182911,243.515914 98.1912858,242.871952 97.83,242.355589 L97.28,241.577946 C96.7301583,240.800954 95.7423664,240.463306 94.83,240.740483 L81.43,244.728399 C80.8034945,244.917819 80.2927942,245.373278 80.0344376,245.973007 C79.7760809,246.572737 79.7964137,247.255579 80.09,247.838973 L81.23,250.132024 Z" id="Path" fill="#33ADE1"></path>
            <path d="M69.88,303.346347 L66.19,307.613416 C66.0711469,307.756795 66.0042135,307.935916 66,308.121875 L66,312.668099 C66.0005144,312.770717 66.0208869,312.872271 66.06,312.967193 L67.21,315.718854 C67.2491131,315.813775 67.2694856,315.91533 67.27,316.017948 L67.27,322.687736 C67.2699829,322.895719 67.3535325,323.095042 67.5019808,323.241168 C67.6504292,323.387295 67.851404,323.468046 68.06,323.46538 L68.06,323.46538 C68.4907821,323.46538 68.84,323.117217 68.84,322.687736 L68.84,317.702842 C68.8371102,317.389948 69.0226076,317.105805 69.3107468,316.981757 C69.5988861,316.857709 69.9335336,316.917922 70.16,317.134564 L76.24,322.747555 C76.3074038,322.809357 76.361794,322.883918 76.4,322.96689 L79.4,328.719458 C79.538974,328.976153 79.8074191,329.136733 80.1,329.138253 L97.29,329.138253 C97.498596,329.140856 97.6995708,329.060105 97.8480192,328.913978 C97.9964675,328.767852 98.0800174,328.568529 98.0800174,328.360546 L98.0800174,326.027615 C98.0822634,325.690078 97.8631132,325.390669 97.54,325.289851 L88.37,322.298915 C88.2869948,322.288488 88.2030052,322.288488 88.12,322.298915 L81.36,322.298915 C81.1085625,322.29737 80.8721023,322.179497 80.72,321.979881 L71.4,309.019156 C71.3078491,308.883938 71.259031,308.72402 71.26,308.560546 L71.26,303.904655 C71.2750539,303.571404 71.0778977,303.264842 70.7678532,303.139407 C70.4578087,303.013972 70.1021308,303.096873 69.88,303.346347 Z" id="Path" fill="#023852"></path>
            <path d="M30.9277112,303.144532 L28.0077112,308.129426 C27.9974296,308.165263 27.9974296,308.203256 28.0077112,308.239094 L28.0077112,313.572931 C27.9976855,313.605412 27.9976855,313.640147 28.0077112,313.672628 L29.5677112,316.384411 C29.5677112,316.384411 29.5677112,316.384411 29.5677112,316.454199 L31.4577112,326.822779 C31.4604139,326.869173 31.4821054,326.912425 31.5177112,326.942417 L33.8677112,328.936375 C33.9040946,328.967251 33.9499516,328.984835 33.9977112,328.986224 L45.4577112,328.986224 C46.0801557,328.964301 46.6568262,328.654525 47.0175411,328.148314 C47.378256,327.642102 47.4818351,326.997246 47.2977112,326.404048 L46.1077112,322.924592 C45.8854354,322.273418 45.214943,321.885963 44.5377112,322.017341 L40.2977112,322.814924 L34.6677112,322.814924 C34.5887278,322.816913 34.5153091,322.774536 34.4777112,322.705257 L31.0877112,316.274743 C31.083059,316.241672 31.083059,316.208116 31.0877112,316.175045 L31.2877112,303.284109 C31.2849656,303.200299 31.2323268,303.126206 31.1539368,303.095813 C31.0755468,303.065421 30.9865294,303.084591 30.9277112,303.144532 Z" id="Path" fill="#023852"></path>
            <path d="M53.63,251.647432 L48.43,266.193353 L39.32,258.566465 C38.8618715,258.179332 38.2805521,257.967296 37.68,257.968278 L35.74,257.968278 L38.5,251.458006 L53.63,251.647432 Z" id="Path" fill="#7FCCEC" style="mix-blend-mode: multiply;"></path>
            <path d="M79.57,246.752266 L81.18,250.032326 C81.5192885,250.71988 81.5411956,251.520711 81.24,252.22568 L77.18,261.696979 C76.9104569,262.246203 77.0625865,262.908532 77.5449992,263.286082 C78.0274119,263.663631 78.7088711,263.653693 79.18,263.262236 L87.36,257.280363 C87.8879249,256.899083 88.616719,256.962819 89.07,257.429909 L90.63,259.035045 C90.9003563,259.310892 91.2791773,259.453504 91.6649346,259.42466 C92.050692,259.395815 92.4039385,259.198464 92.63,258.885498 L95.35,255.106949 C95.5772698,254.793594 95.7747885,254.459828 95.94,254.10997 L98.21,244.070393 C98.41,243.203021 97.33,243.27281 96.44,243.362538 L80.65,244.838066 C80.2053681,244.864535 79.8046917,245.114437 79.5863177,245.501485 C79.3679436,245.888532 79.361797,246.359687 79.57,246.752266 L79.57,246.752266 Z" id="Path" fill="#7FCCEC" style="mix-blend-mode: multiply;"></path>
            <path d="M43.18,97.4048338 C43.03,98.5613293 41.09,109.83716 41.09,109.83716 L35.78,108.670695 L38.15,97.2652568 L43.18,97.4048338 Z" id="Path" fill="#023852"></path>
            <path d="M13.53,98.1924471 L13.83,99.4984894 C14.2686913,101.436314 13.7604678,103.466765 12.46,104.971903 L6.85,111.472205 C6.2594472,112.162543 5.93035937,113.03746 5.92,113.944713 L5.84,121.182779 C5.82428043,122.473021 6.458192,123.685248 7.52821424,124.411146 C8.59823649,125.137044 9.96194433,125.279993 11.16,124.791843 L29,117.643505 C30.7992266,116.915463 31.7787527,114.970858 31.29,113.097281 L26.29,94.1546828 C26.0230518,93.049176 25.2805694,92.1173591 24.2608279,91.6080679 C23.2410864,91.0987766 22.0479361,91.063877 21,91.5126888 L15.76,93.8057402 C14.0600209,94.5480739 13.1253599,96.3866766 13.53,98.1924471 L13.53,98.1924471 Z" id="Path" fill="#023852"></path>
            <path d="M70.76,182.776133 L71.52,193.902417 L87.17,217.34139 L98.72,241.38852 C99.10872,242.190921 99.0820535,243.131612 98.6484978,243.910844 C98.2149421,244.690077 97.4285859,245.210636 96.54,245.306647 L66.54,248.626586 C65.2336265,248.950096 63.8812273,248.301063 63.32,247.081269 L54.69,224.519637 L57,250.052266 C57.0527155,250.584774 56.8885406,251.11606 56.5443882,251.52667 C56.2002358,251.93728 55.7049895,252.192754 55.17,252.23565 L37.17,253.790937 C36.4648174,253.836921 35.8316916,253.362452 35.68,252.67432 L32.2,236.19426 L30.86,226.613293 L23,203.842296 L22.86,188.359215 L53.33,183.523867 L56.33,159.735952 L65.93,166.714804 L70.76,182.776133 Z" id="Path" fill="#023852"></path>
            <path d="M69.32,190.213595 L48.06,193.413897 C47.3928299,193.514171 46.7121157,193.476845 46.06,193.30423 L24.72,187.721148 L41.59,187.790937 L57.69,157.064048 L64.81,166.036858 L70.59,182.088218 L71,188.070091 C71.0916979,189.113632 70.3578183,190.049986 69.32,190.213595 Z" id="Path" fill="#7FCCEC" style="mix-blend-mode: multiply;"></path>
            <path d="M89.69,79.8280967 L89.69,73.8462236 C89.6928752,73.4573764 89.5816447,73.0761767 89.37,72.7495468 L85,65.9900302 C84.7906653,65.6586712 84.6797193,65.2749898 84.6799995,64.8833837 L84.6799995,59.8984894 C84.682034,59.3509271 84.8971352,58.8255213 85.28,58.4329305 L86.69,57.0371601 C87.2110851,56.5122479 87.9747334,56.3066858 88.69,56.4987915 L95.43,58.2634441 C97.6533805,58.8447922 99.1050684,60.9731778 98.83,63.2483384 L97.83,71.9021148 C97.8250199,71.9651592 97.8250199,72.0284964 97.83,72.0915408 L97.58,82.9785498 C97.5582932,83.7701334 97.0863039,84.4802873 96.3635835,84.8087674 C95.640863,85.1372476 94.7935974,85.0267016 94.1799995,84.5238671 L90.43,81.4232628 C89.9560669,81.0289356 89.6844824,80.4434999 89.69,79.8280967 Z" id="Path" fill="#33ADE1"></path>
            <path d="M88.4,79.1900302 L83.56,100.595166 C83.4201532,101.191629 82.9816605,101.674021 82.4,101.871299 L61,109.119335 C60.5197902,109.28924 59.9887346,109.238121 59.55,108.979758 L52.61,104.991843 C52.2064634,104.762603 51.728398,104.701682 51.28,104.822356 L41.96,107.274924 C41.7096208,107.329472 41.4503792,107.329472 41.2,107.274924 L37.88,106.676737 L37.61,106.676737 L23.37,106.317825 C23.1484265,106.314403 22.9281061,106.351575 22.72,106.427492 L19.98,107.424471 C19.2833942,107.673178 18.8189617,108.331797 18.82,109.069486 L18.82,110.126284 C18.8229175,110.592765 18.6394002,111.041203 18.31,111.372508 L16.08,113.655589 C15.9681369,113.765724 15.8439954,113.86273 15.71,113.944713 L7.28,118.640483 C6.57075027,119.031106 6.22321965,119.85606 6.44,120.634441 L10.35,137.503323 C10.5079014,138.192217 10.2408015,138.908858 9.67,139.327795 L6.67,141.511178 C6.08831937,141.930752 5.82269704,142.661971 6,143.355589 L11.56,163.963142 C11.6621019,164.330261 11.8793642,164.65517 12.18,164.890332 L17.83,169.306949 C18.204969,169.596132 18.6796885,169.72521 19.15,169.665861 L21.25,169.386707 C21.9061048,169.298193 22.4578036,168.852013 22.68,168.230211 L23.68,165.498489 C23.9697461,164.727926 24.7552549,164.259328 25.5733121,164.369027 C26.3913692,164.478725 27.0247708,165.137595 27.1,165.9571 L27.1,165.9571 C27.0963316,166.140791 27.0625523,166.322648 27,166.495468 L22,187.112991 C21.8746289,187.637915 21.9970437,188.191176 22.3322905,188.614798 C22.6675373,189.03842 23.1787652,189.286407 23.72,189.286407 L50,189.286407 C53.4923021,189.289127 56.5294533,186.900574 57.34,183.513897 L58.44,178.927795 C58.460202,178.77225 58.460202,178.614759 58.44,178.459215 L57.83,162.677039 C57.8248935,162.345505 58.0610645,162.058933 58.3882777,161.99962 C58.715491,161.940306 59.0377261,162.125657 59.15,162.437764 L66.74,184.271601 C66.9185353,184.790061 67.3298392,185.195549 67.8518396,185.367719 C68.37384,185.539889 68.9465526,185.458957 69.4,185.148943 L80.8,177.372508 C81.5418094,176.864161 81.7827887,175.881705 81.36,175.089426 L64.23,142.807251 C64.1093724,142.585678 64.0377651,142.340909 64.02,142.089426 L63.16,127.932326 C63.1209309,127.247326 63.4836514,126.601845 64.09,126.277341 L94.83,109.83716 C95.3292658,109.566452 95.6677811,109.073194 95.74,108.511178 L99.23,81.5927492 C99.3804202,80.6798406 98.7940659,79.807329 97.89,79.5987915 L90.53,77.8640483 C90.0710666,77.7567175 89.5881482,77.8363341 89.1883037,78.0852479 C88.7884593,78.3341618 88.5047242,78.7318074 88.4,79.1900302 Z" id="Path" fill="#023852"></path>
            <path d="M44.07,77.6048338 L44.76,81.1839879 L45.45,84.7432024 C45.45,84.7432024 45.45,84.7432024 45.45,84.7432024 L46.61,88.3422961 L47.77,91.9413897 C47.8400562,92.11405 47.8400562,92.307098 47.77,92.4797583 C47.6954276,92.6490554 47.5598101,92.7842632 47.39,92.8586103 L46.48,93.2673716 L45.57,93.6661631 C45.4522249,93.7161879 45.3490328,93.7950627 45.27,93.8954683 C45.1983754,93.9939973 45.1473635,94.1058844 45.12,94.2244713 L44.48,98.0129909 L43.83,101.801511 C43.8061483,101.971959 43.7208282,102.127907 43.59,102.240181 C43.4623377,102.353007 43.3003124,102.419728 43.13,102.429607 L41,102.688822 L38.84,102.808459 C38.4899174,102.82099 38.1951653,103.073463 38.13,103.416616 L37.49,106.866163 L36.84,110.31571 C36.802983,110.533463 36.6661423,110.721511 36.47,110.824169 C36.2800361,110.938541 36.0482036,110.960554 35.84,110.883988 L29.52,108.640785 L23.21,106.407553 C23.0783294,106.357491 22.9614076,106.275207 22.87,106.168278 C22.7826699,106.059105 22.7272988,105.927996 22.71,105.789426 L22.25,102.080665 L21.78,98.3818731 C21.7893671,98.3224189 21.7893671,98.2618712 21.78,98.2024169 C21.7599247,98.1442551 21.7294308,98.0902075 21.69,98.0429003 L19.19,94.523565 L16.69,91.0042296 C16.6467082,90.9360505 16.6130576,90.862243 16.59,90.7848943 C16.5705153,90.7063188 16.5705153,90.6241948 16.59,90.5456193 L16.76,84.7132931 L16.94,78.870997 C16.9464949,78.7606119 16.9736274,78.6524095 17.02,78.5519637 C17.0725343,78.4556879 17.1439497,78.3709265 17.23,78.302719 L21.76,74.6936556 L26.28,71.0945619 C26.3830694,71.0095025 26.5076046,70.9543207 26.64,70.9350453 C26.7643139,70.9006233 26.8956861,70.9006233 27.02,70.9350453 L35.37,73.9957704 L43.71,77.0465257 C43.8337772,77.0958905 43.9436156,77.1745984 44.03,77.2758308 C44.0708427,77.3804073 44.0845995,77.4935574 44.07,77.6048338 Z" id="Path" fill="#33ADE1"></path>
            <path d="M43.15,102.120544 L40.2,100.186405 L37.26,98.2522659 C37.1852302,98.211479 37.0947698,98.211479 37.02,98.2522659 L34,100.036858 L30.93,101.82145 C30.8589123,101.86227 30.8165099,101.939132 30.82,102.020846 C30.8207243,102.104102 30.866657,102.180425 30.94,102.220242 L34.18,103.885196 L37.41,105.560121 C37.4754826,105.595579 37.5545174,105.595579 37.62,105.560121 C37.6805202,105.525911 37.7240051,105.468107 37.74,105.400604 L37.93,104.403625 L38.12,103.406647 C38.1506902,103.244206 38.2352081,103.096746 38.36,102.987915 C38.4846917,102.878048 38.643706,102.814635 38.81,102.808459 L40.9,102.688822 L43.03,102.579154 C43.1291582,102.575138 43.2145507,102.508166 43.241814,102.413033 C43.2690774,102.3179 43.2320627,102.21606 43.15,102.160423 L43.15,102.120544 Z" id="Path" fill="#7FCCEC" style="mix-blend-mode: multiply;"></path>
            <path d="M47,91.4329305 L46,88.2226586 L44.95,85.0223565 L44.95,89.0700906 L44.95,93.1277946 L45.75,92.778852 L46.54,92.4299094 C46.724746,92.3484387 46.8738551,92.2033195 46.96,92.021148 C47.0481991,91.8373654 47.0625112,91.6268999 47,91.4329305 L47,91.4329305 Z" id="Path" fill="#7FCCEC" style="mix-blend-mode: multiply;"></path>
            <path d="M37.29,77.1960725 L31.29,77.1960725 C31.1861004,77.1959371 31.0860241,77.235134 31.01,77.3057402 C30.9366123,77.3749057 30.8875218,77.4657984 30.87,77.5649547 L30,84.4839879 L29.14,91.3332326 C29.118011,91.4834679 29.0196649,91.6116857 28.88,91.6722054 C28.7391919,91.7273045 28.5797013,91.704589 28.46,91.6123867 L26.69,90.2365559 L24.92,88.8607251 C24.8328794,88.7911296 24.7200206,88.7620928 24.61,88.7809668 C24.4987295,88.793775 24.3975594,88.8514118 24.33,88.9404834 L23.27,90.3163142 L22.2,91.7220544 C22.1595241,91.7709832 22.1320166,91.8292598 22.12,91.8915408 C22.1100761,91.9542952 22.1100761,92.0182124 22.12,92.0809668 L22.64,94.0749245 L23.15,96.0688822 C23.1555206,96.0918195 23.1555206,96.1157334 23.15,96.1386707 L23.15,96.2084592 L22.92,99.1993958 L21.84,103.306949 C21.8284724,103.446943 21.7503979,103.572967 21.63,103.645921 C21.50332,103.70531 21.35668,103.70531 21.23,103.645921 L17.92,100.385801 L13.75,98.2722054 C13.6966802,98.2407881 13.6492966,98.2002963 13.61,98.152568 C13.567895,98.1046855 13.5401696,98.0459471 13.53,97.9830816 L12.74,94.3141994 L12,90.6054381 C11.9943223,90.5791533 11.9943223,90.5519646 12,90.5256798 C11.9957418,90.499266 11.9957418,90.4723352 12,90.4459215 L13.14,83.7462236 L14.31,77.0066465 C14.3193519,76.9500761 14.3397363,76.8958821 14.37,76.8471299 C14.4048321,76.8024114 14.445146,76.7622194 14.49,76.7274924 L20.22,72.8891239 L26,69.0009063 C26.0380577,68.9711264 26.0825784,68.9506405 26.13,68.9410876 C26.1760946,68.9307854 26.2239054,68.9307854 26.27,68.9410876 L33.15,69.6190332 L40.03,70.2870091 C40.0982887,70.2936408 40.1637184,70.3176736 40.22,70.3567976 C40.2789149,70.3936628 40.3271692,70.4452076 40.36,70.5063444 L42,73.5371601 L43.67,76.5280967 C43.7393492,76.6555795 43.7393492,76.8093752 43.67,76.936858 C43.6063561,77.0909527 43.457119,77.1927538 43.29,77.1960725 L37.29,77.1960725 Z" id="Path" fill="#023852"></path>
            <path d="M27.13,95.6003021 C27.5884646,95.5339331 28.0548203,95.6483815 28.43,95.9193353 C28.8073142,96.194144 29.0587225,96.6079808 29.1282217,97.0686607 C29.1977209,97.5293405 29.0795383,97.9985983 28.8,98.3719033 C28.5277012,98.7506511 28.1125216,99.0026056 27.65,99.0697885 C27.1813819,99.126976 26.7093665,98.9940615 26.34,98.7009063 C25.9638718,98.4275534 25.7149232,98.0138925 25.65,97.5543807 C25.603002,97.1034788 25.7279518,96.6514589 26,96.2882175 C26.2732209,95.9218052 26.6782543,95.6752311 27.13,95.6003021 L27.13,95.6003021 Z" id="Path" fill="url(#linearGradient-2)"></path>
            <path d="M19.8699733,108.850151 L19.8699733,108.241994 C19.8637418,106.862863 20.9575307,105.72823 22.34,105.679758 L22.34,105.679758 C22.3828125,105.670285 22.4271875,105.670285 22.47,105.679758 L33.79,108.949849 C33.8806765,108.967806 33.9601093,109.021801 34.01,109.099396 L35.01,110.535045 L35.75,108.630816 C35.7466973,108.600997 35.7466973,108.570906 35.75,108.541088 L37.33,106.377644 C37.4078781,106.287943 37.5210039,106.2364 37.64,106.2364 C37.7589961,106.2364 37.8721219,106.287943 37.95,106.377644 L47.84,116.646526 C47.8759063,116.683334 47.9032225,116.727589 47.92,116.776133 L54.53,133.296073 C54.5443952,133.351657 54.5443952,133.409975 54.53,133.465559 L53.71,148.250755 C53.699349,148.420904 53.5813901,148.565486 53.4164708,148.610533 C53.2515515,148.65558 53.0761494,148.591128 52.98,148.450151 L40.89,130.60423 C40.89,130.60423 40.89,130.60423 40.89,130.554381 L20,109.129305 C19.9199995,109.058041 19.8729773,108.957068 19.8699733,108.850151 Z" id="Path" fill="#FFFFFF"></path>
            <path d="M15.84,124.622356 L22.6,147.353474 C22.6459468,147.525504 22.5655571,147.706221 22.4068189,147.787748 C22.2480808,147.869275 22.0538203,147.829832 21.94,147.692447 L15.42,139.467372 L15.84,124.622356 Z" id="Path" fill="#7FCCEC" style="mix-blend-mode: multiply;"></path>
            <path d="M9,142.109366 C8.82,140.48429 8.46,136.616012 8.28,134.622054 C8.20343988,133.808827 7.9099514,133.03085 7.43,132.368882 C6,130.374924 2.95,126.187613 2.91,126.067976 C2.87,125.948338 2.91,124.133837 2.91,122.658308 C2.92926517,121.459792 3.42149064,120.317123 4.28,119.477946 L4.28,119.477946 C5.12460742,118.652043 6.25700803,118.184016 7.44,118.171903 L9,118.171903 C10.4206285,118.152204 11.7682325,118.798134 12.64,119.916616 L15.02,122.907553 C15.6292523,123.683673 15.9727442,124.634158 16,125.619335 L16.4,137.274018 C16.4481504,139.381412 15.0430956,141.247785 13,141.790332 L9.77,142.667674 C9.59274452,142.702215 9.40906561,142.661671 9.26300006,142.555763 C9.11693451,142.449854 9.0216533,142.288131 9,142.109366 L9,142.109366 Z" id="Path" fill="#33ADE1"></path>
        </g>
    </g>
</svg>