<svg id="Layer_1 luptest3" data-name="Layer 1" xmlns="http://www.w3.org/2000/svg" xmlns:xlink="http://www.w3.org/1999/xlink" viewBox="0 0 403.52 261.89">
    <defs>
      <style>
        .cls-1-new4 {
          fill: #009bdb;
        }
  
        .cls-2-new4 {
          fill: #081935;
        }
  
        .cls-2-new4, .cls-4-new4 {
          opacity: 0.2;
        }
  
        .cls-2-new4, .cls-3-new4, .cls-4-new4 {
          isolation: isolate;
        }
  
        .cls-3-new4 {
          fill: #4188bd;
          opacity: 0.3;
        }
  
        .cls-4-new4, .cls-5-new4 {
          fill: #fff;
        }
  
        .cls-6-new4 {
          fill: #c3ccd1;
        }
  
        .cls-7-new4 {
          fill: #003a5d;
        }
  
        .cls-8-new4 {
          fill: url(#linear-gradient-new4);
        }
  
        .cls-blue-opa {
          fill: #0238524d;
        }
        .show-text1 {
    fill-opacity: 0;
    animation-name: show;
    animation-duration: 6s;
    animation-iteration-count: infinite;
}

.show-text2 {
    fill-opacity: 0;
    animation-name: show;
    animation-delay: 250ms;
    animation-duration: 6s;
    animation-iteration-count: infinite;
}

.show-text3 {
    fill-opacity: 0;
    animation-name: show;
    animation-delay: 500ms;
    animation-duration: 6s;
    animation-iteration-count: infinite;
}

.show-text4-blue {
    fill-opacity: 0;
    animation: show4-blue 6s 750ms infinite;
    /* animation-name: show4-blue;
    animation-delay: 750ms;
    animation-duration: 6s;
    animation-fill-mode: infinite; */
    transform: scale(0.45) translate(250px, 70px);
}

.lup-ani2 {
    animation-name: lup2;
    animation-duration: 6s;
    animation-iteration-count: infinite;
}

@keyframes lup2 {

    0% {
        transform: translate(-170px, -41px);
        fill-opacity: 0;
    }

    12% {
        transform: translate(-170px, -41px);
        fill-opacity: 0;
    }

    28% {
        transform: translate(-36px, -43px);
        fill-opacity: 1;
    }

    38% {
        transform: translate(-39px, -41px);
        fill-opacity: 1;
    }

    48% {
        transform: translate(-39px, -40px);
        fill-opacity: 1;
    }

    58% {
        transform: translate(-34px, -41px);
        fill-opacity: 1;
    }

    68% {
        transform: translate(-40px, -35px);
        fill-opacity: 1;
    }

    100% {
        transform: translate(-36px, -41px);
        fill-opacity: 1;
    }
}

@keyframes show {

    0% {
        fill-opacity: 0;
    }

    10% {
        fill-opacity: 1;
    }

    100% {
        fill-opacity: 1;
    }
}

@keyframes show4-blue {
    0% {
        fill-opacity: 0;
        fill: #009bdb;
    }

    5% {
        fill-opacity: 1;
        fill: #009bdb;
        transform: scale(0.45) translate(250px, 70px);
    }

    7% {
        fill-opacity: 0.5;
        fill: #fff;
        transform: scale(0.45) translate(250px, 70px);
    }

    14% {
        fill-opacity: 1;
        fill: #fff;
        transform: translate(-35px, -43px);
    }

    85% {
        fill-opacity: 1;
        fill: #fff;
        transform: translate(-35px, -43px);
    }

    100% {
        fill-opacity: 1;
        fill: #fff;
        transform: translate(-35px, -43px);
    }

}
      </style>
      <linearGradient id="linear-gradient-new4" x1="403.56" y1="50.07" x2="438.05" y2="50.07" gradientTransform="matrix(1, 0, 0, -1, 0, 330)" gradientUnits="userSpaceOnUse">
        <stop offset="0.3" stop-color="#081935"/>
        <stop offset="1" stop-color="#193459"/>
      </linearGradient>
    </defs>
    <title>new icon4_compare versions-out</title>
    <g>
      <g>
          <path class="cls-blue-opa show-text1" d="M45.3,140.31v14.46H34.57V115.05h13q16.18,0,16.19,11.74,0,6.9-6.73,10.67L68.6,154.77H56.44L48,140.31Zm0-8.06h2c3.75,0,5.63-1.67,5.62-5q0-4.11-5.51-4.11H45.3Z" transform="translate(-34.57 -42.98)"/>
          <path class="cls-blue-opa show-text1" d="M93.52,154.77H82.62v-21c0-2.55.06-4.89.17-7a23.25,23.25,0,0,1-2.5,2.56L75.78,133l-5.57-6.85L83.85,115h9.67Z" transform="translate(-34.57 -42.98)"/>
      </g>
      <g>
        <path class="cls-blue-opa show-text3" d="M138.53,140.31v14.46H127.8V115.05h13q16.2,0,16.19,11.74,0,6.9-6.73,10.67l11.57,17.31H149.67l-8.42-14.46Zm0-8.06h2c3.75,0,5.63-1.67,5.62-5,0-2.74-1.83-4.11-5.51-4.11h-2.12Z" transform="translate(-34.57 -42.98)"/>
        <path class="cls-blue-opa show-text3" d="M191.64,154.77H162.82V147.7l9.7-9.8q4.15-4.35,5.43-5.94a13.35,13.35,0,0,0,1.78-2.73,6,6,0,0,0,.5-2.39,3.08,3.08,0,0,0-1-2.44,4.1,4.1,0,0,0-2.82-.9,7.79,7.79,0,0,0-3.79,1.07,26.44,26.44,0,0,0-4.33,3.17l-5.9-6.9a31.81,31.81,0,0,1,5.16-3.93,18.22,18.22,0,0,1,4.55-1.8,22.4,22.4,0,0,1,5.53-.63,16.63,16.63,0,0,1,6.89,1.36,10.7,10.7,0,0,1,4.7,3.87,10,10,0,0,1,1.67,5.64,15.79,15.79,0,0,1-.58,4.32,15.49,15.49,0,0,1-1.81,3.89,27.06,27.06,0,0,1-3.25,4q-2,2.12-8.62,8v.27h15Z" transform="translate(-34.57 -42.98)"/>
      </g>
      <circle class="cls-blue-opa show-text2" cx="76.94" cy="92.3" r="4.02"/>
      <path class="cls-2-new4 lup-ani2" d="M430.34,290h0a15.63,15.63,0,0,0-.24-2.56,2.59,2.59,0,0,0-.11-.54,15.57,15.57,0,0,0-.73-2.41c-.18-.44-.39-.88-.61-1.31a14.39,14.39,0,0,0-2.65-3.59l-2.3-2.3-2.29-2.3-2.3-2.3-2.3-2.3h0l-8.18-8.18-17.37-17.37-17.37-17.38-17.37-17.37-1,1-8.76-8.76a94.39,94.39,0,0,0,8.16-12.65,93.43,93.43,0,0,0,9.93-28.89,94.62,94.62,0,1,0-35.66,59.14l8.75,8.75L335.56,231l17.37,17.37,17.37,17.38,17.37,17.37L405,300.53a14.49,14.49,0,0,0,3.58,2.64,13.12,13.12,0,0,0,1.32.61c.44.18.9.34,1.36.48a14.74,14.74,0,0,0,2.8.54,13.5,13.5,0,0,0,1.42.07,14.83,14.83,0,0,0,5.58-1.09,13,13,0,0,0,1.31-.61,14.54,14.54,0,0,0,3.59-2.64h0A14.76,14.76,0,0,0,430.34,290Z" transform="translate(-34.57 -42.98)"/>
      <g>
        <path class="cls-1-new4 lup-ani2 back-ground" d="M370,138.05a91.12,91.12,0,1,0-7.18,35.57A91.11,91.11,0,0,0,370,138.05Z" transform="translate(-34.57 -42.98)"/>
        <path class="cls-3-new4 lup-ani2" d="M276.08,66.27a78.53,78.53,0,0,1,78.59,78.47v.15a80.64,80.64,0,0,1-.54,9.32A78.24,78.24,0,0,1,346.42,180a78.61,78.61,0,1,0-137.34-76.22A78.75,78.75,0,0,1,237.14,76.6a78.94,78.94,0,0,1,38.94-10.33Z" transform="translate(-34.57 -42.98)"/>
        <path class="cls-4-new4 lup-ani2" d="M336.42,191.91l-55.58-55.59-55.58-55.6S231,70.49,244.31,63.13s34.15-11.86,64.35-.39,47.13,35,51.52,60S356.41,174.3,336.42,191.91Z" transform="translate(-34.57 -42.98)"/>
        <g>
          <path class="cls-1-new4 show-text4-blue" d="M237.07,146.67v32.12H213.22V90.51h28.93q36,0,36,26.09,0,15.33-15,23.73l25.72,38.46h-27l-18.72-32.12Zm0-17.94h4.47q12.51,0,12.5-11,0-9.11-12.26-9.11h-4.71Z" transform="translate(-34.57 -42.98)"/>
          <path class="cls-1-new4 show-text4-blue" d="M352.17,109.65a21,21,0,0,1-5,14.1q-5,5.9-14.49,8.55v.36q22.11,2.78,22.1,20.89,0,12.31-9.75,19.39T317.93,180a78.82,78.82,0,0,1-13.2-1,68.8,68.8,0,0,1-13.13-3.74V155.42a51.78,51.78,0,0,0,11.81,4.38,48.14,48.14,0,0,0,11.08,1.42q7.85,0,11.44-2.2a7.54,7.54,0,0,0,3.59-6.92,7.78,7.78,0,0,0-1.87-5.58,12,12,0,0,0-6-3,48.36,48.36,0,0,0-10.87-1h-5.43V124.63h5.55q18.18,0,18.18-9.3a5.73,5.73,0,0,0-2.69-5.19,13.37,13.37,0,0,0-7.21-1.69q-8.46,0-17.52,5.67l-9.9-15.94A48.18,48.18,0,0,1,306.1,91.3a62.42,62.42,0,0,1,16.82-2.06q13.71,0,21.5,5.44A17.28,17.28,0,0,1,352.17,109.65Z" transform="translate(-34.57 -42.98)"/>
        </g>
        <path class="cls-6-new4 lup-ani2" d="M399.07,239.28l-11.16-11.16L376.75,217l-11.16-11.17-11.17-11.16a94.77,94.77,0,1,0-17.56,17.57L348,223.39l11.15,11.16,11.16,11.16,11.16,11.16,4.39-4.4,4.4-4.39,4.39-4.4Zm-119.7-27.42a74.34,74.34,0,1,1,29-5.87A74.34,74.34,0,0,1,279.37,211.86Z" transform="translate(-34.57 -42.98)"/>
        <path class="cls-7-new4 lup-ani2" d="M433.71,292.82h0a14.8,14.8,0,0,0,.07-20.93l-.07-.07-17.37-17.38L399,237.1l-17.4-17.38-17.37-17.37L359,207.59l-5.24,5.24-5.24,5.24-5.24,5.25,17.37,17.37L378,258.07l17.37,17.37,17.37,17.38a14.79,14.79,0,0,0,21,0Z" transform="translate(-34.57 -42.98)"/>
        <path class="cls-8-new4 lup-ani2" d="M433.71,271.85l-2.3-2.3-2.29-2.3-2.3-2.3-2.3-2.29a14.85,14.85,0,0,1-21,21l2.29,2.29,2.3,2.3,2.3,2.3,2.3,2.3A14.87,14.87,0,0,0,437,276.75,14.94,14.94,0,0,0,433.71,271.85Z" transform="translate(-34.57 -42.98)"/>
      </g>
    </g>
  </svg>