<?xml version="1.0" encoding="UTF-8"?>
<svg width="440px" height="330px" viewBox="0 0 440 330" version="1.1" xmlns="http://www.w3.org/2000/svg" xmlns:xlink="http://www.w3.org/1999/xlink">
    <title>Graphic elements / Icons / Rich icons / xprotect-access-anywhere</title>
    <g id="Graphic-elements-/-Icons-/-Rich-icons-/-xprotect-access-anywhere" stroke="none" stroke-width="1" fill="none" fill-rule="evenodd">
        <g id="XProtect-Access-Anywhere" transform="translate(0.000000, 176.000000)" fill-rule="nonzero">
            <path d="M228.306636,144.988558 L228.306636,124.569336 L191.21373,124.569336 L191.21373,144.988558 C191.105409,146.082754 190.787498,147.145874 190.277346,148.119908 C189.276671,150.135399 187.178588,151.368171 184.930892,151.261327 L234.599542,151.261327 C232.352498,151.365532 230.255752,150.133545 229.253089,148.119908 C228.741745,147.145646 228.420543,146.082946 228.306636,144.988558 L228.306636,144.988558 Z" id="Path" fill="#A5B1B8"></path>
            <path d="M241.47643,150.586728 L176.543707,150.586728 C174.875479,150.586728 173.523112,151.939094 173.523112,153.607323 L244.507103,153.607323 C244.509065,152.802992 244.190158,152.031093 243.621053,151.4627 C243.051009,150.897286 242.279313,150.582086 241.47643,150.586728 L241.47643,150.586728 Z" id="Path" fill="#F1F3F4"></path>
            <g id="Group" opacity="0.2" style="mix-blend-mode: multiply;" transform="translate(190.297483, 130.892449)" fill="#A5B1B8">
                <polygon id="Path" style="mix-blend-mode: multiply;" points="0.90617849 0.382608696 19.4627002 0.382608696 38.019222 0.382608696 38.019222 6.37345538 38.019222 12.3643021 19.4627002 12.3643021 0.90617849 12.3643021 0.90617849 6.37345538"></polygon>
            </g>
            <path d="M311.121281,132.100686 L108.419222,132.100686 C104.790344,132.095142 101.849938,129.154736 101.844386,125.525858 L101.844386,6.57482838 C101.841716,4.83025594 102.533559,3.15636632 103.767159,1.92276587 C105.00076,0.689165423 106.67465,-0.00267778284 108.419222,-7.74440389e-06 L311.121281,-7.74440389e-06 C314.75016,0.00554451444 317.690565,2.94595003 317.69611,6.57482838 L317.69611,125.525858 C317.679573,129.150164 314.745587,132.084149 311.121281,132.100686 L311.121281,132.100686 Z" id="Path" fill="#023852"></path>
            <polygon id="Path" fill="#023852" points="108.610526 119.867277 210.092449 119.867277 311.574371 119.867277 311.574371 63.1203661 311.574371 6.36338673 210.092449 6.36338673 108.610526 6.36338673 108.610526 63.1203661"></polygon>
            <path d="M213.173455,125.556064 C213.173455,123.670966 211.645281,122.142792 209.760183,122.142792 C207.875085,122.142792 206.346911,123.670966 206.346911,125.556064 C206.348026,126.463362 206.710326,127.332882 207.353776,127.97254 C208.333595,128.940955 209.798447,129.227687 211.071082,128.70017 C212.343717,128.172653 213.176152,126.933678 213.183524,125.556064 L213.173455,125.556064 Z" id="Path" fill="#33627E"></path>
            <g id="Group" opacity="0.2" transform="translate(107.734554, 6.041190)" fill="#F4F6F7">
                <polygon id="Path" points="0.87597254 0.322196796 15.9789474 14.6700229 31.0819222 29.017849 75.9881007 71.4874142 120.823799 113.826087 203.839817 113.826087 203.839817 0.322196796"></polygon>
            </g>
            <path d="M40.5464531,153.828833 L4.96384439,153.828833 C2.22238883,153.828833 -1.02680298e-05,151.606444 -1.02680298e-05,148.864989 L-1.02680298e-05,71.2356979 C-0.00268019796,69.9183847 0.519434041,68.6542536 1.45091707,67.7227706 C2.3824001,66.7912876 3.64653119,66.2691733 4.96384439,66.2718433 L40.5464531,66.2718433 C41.8637663,66.2691733 43.1278974,66.7912876 44.0593804,67.7227706 C44.9908634,68.6542536 45.5129777,69.9183847 45.5103078,71.2356979 L45.5103078,148.864989 C45.5103078,151.606444 43.2879086,153.828833 40.5464531,153.828833 Z" id="Path" fill="#023852"></path>
            <polygon id="Path" fill="#023852" points="43.0334096 139.450801 22.8558352 139.450801 2.67826087 139.450801 2.67826087 107.805034 2.67826087 76.1592677 22.8558352 76.1592677 43.0334096 76.1592677 43.0334096 107.805034"></polygon>
            <path d="M25.6951945,147.002288 C25.6951945,145.378546 24.3788911,144.062243 22.7551487,144.062243 C21.1314063,144.062243 19.815103,145.378546 19.815103,147.002288 C19.8165319,147.781288 20.12812,148.527651 20.6810069,149.07643 C21.2293463,149.629826 21.9760957,149.94115 22.7551487,149.94115 C23.5342017,149.94115 24.2809512,149.629826 24.8292906,149.07643 C25.3821775,148.527651 25.6937656,147.781288 25.6951945,147.002288 Z" id="Path" fill="#33627E"></path>
            <path d="M16.8347826,73.4407323 L28.6755149,73.4407323 C28.9396557,73.4396201 29.1927811,73.3347538 29.3803204,73.1487414 C29.5724862,72.9603857 29.6812628,72.7029478 29.6823799,72.4338673 L29.6823799,71.4874142 C29.678597,71.2218341 29.5700281,70.9685066 29.3803204,70.7826087 C29.1944224,70.592901 28.9410949,70.484332 28.6755149,70.4805492 L16.8347826,70.4805492 C16.5692026,70.484332 16.3158751,70.592901 16.1299771,70.7826087 C15.9402694,70.9685066 15.8317005,71.2218341 15.8279176,71.4874142 L15.8279176,72.4942792 C15.8290347,72.7633597 15.9378112,73.0207976 16.1299771,73.2091533 C16.3268738,73.3732396 16.5789357,73.4560599 16.8347826,73.4407323 L16.8347826,73.4407323 Z" id="Path" fill="#33627E"></path>
            <polygon id="Path" fill="#F4F6F7" opacity="0.2" points="43.0334096 126.381693 43.0334096 76.1592677 2.64805492 76.1592677 2.64805492 85.9963387 22.8356979 106.19405"></polygon>
            <path d="M277.320824,58.9620137 L277.149657,58.9620137 L277.149657,57.8141876 L277.320824,57.8141876 C277.603847,57.7989697 277.887233,57.8365268 278.156522,57.9249428 C278.329213,58.0123815 278.438061,58.1895005 278.438061,58.3830664 C278.438061,58.5766322 278.329213,58.7537513 278.156522,58.8411899 C277.889625,58.9400717 277.604798,58.9812515 277.320824,58.9620137" id="Path" fill="#F4F6F7"></path>
            <g id="Group" style="mix-blend-mode: multiply;" transform="translate(101.693364, 39.267735)" fill="#003A5D" opacity="0.2">
                <path d="M215.942334,0 L146.710297,0 C145.214598,0.0268592333 144.008553,1.23290439 143.981693,2.72860412 L143.981693,92.4906178 L215.982609,92.4906178 L215.982609,0 L215.942334,0 Z" id="Path"></path>
                <path d="M37.0022883,0 L0.322196796,0 L0.322196796,92.5308924 L42.8118993,92.5308924 L42.8118993,5.76933638 C42.7788773,2.58110347 40.1906738,0.0108424774 37.0022883,0 Z" id="Path"></path>
            </g>
            <path d="M131.788558,49.7290618 C131.77751,46.5250897 129.182919,43.9304991 125.978947,43.9194508 L57.0791762,43.9194508 C53.8752042,43.9304991 51.2806135,46.5250897 51.2695652,49.7290618 L51.2695652,148.009153 C51.2860833,151.210846 53.8774836,153.802246 57.0791762,153.818764 L125.978947,153.818764 C129.18064,153.802246 131.77204,151.210846 131.788558,148.009153 L131.788558,49.7290618 L131.788558,49.7290618 Z" id="Path" fill="#023852"></path>
            <path d="M95.0681922,147.354691 C95.0796321,146.421263 94.7170562,145.522074 94.0613272,144.857666 C93.3919609,144.203249 92.4902994,143.841136 91.5542334,143.850801 C89.6047015,143.856332 88.0256679,145.435365 88.0201373,147.384897 C88.0201373,149.33836 89.6007785,150.923512 91.5542334,150.929119 C92.489474,150.934363 93.3895389,150.572891 94.0613272,149.922197 C94.7308096,149.238036 95.094131,148.311566 95.0681922,147.354691 Z" id="Path" fill="#33627E"></path>
            <polygon id="Path" fill="#023852" points="126.442105 140.850343 91.5240275 140.850343 56.6059497 140.850343 56.6059497 94.9574371 56.6059497 49.0645309 91.5240275 49.0645309 126.442105 49.0645309 126.442105 94.9574371"></polygon>
            <polygon id="Path" fill="#F4F6F7" opacity="0.2" points="126.442105 93.1853547 126.442105 106.64714 126.442105 120.108924 93.7391304 84.5867277 61.0361556 49.0645309 93.7391304 49.0645309 126.442105 49.0645309 126.442105 71.1249428"></polygon>
            <polygon id="Path" fill="#0099DA" points="133.8627 80.5290618 135.393135 80.5290618 136.933638 80.5290618 136.933638 69.1716247 136.933638 57.8141876 135.393135 57.8141876 133.8627 57.8141876 133.8627 69.1716247"></polygon>
            <path d="M288.648055,63.0599542 L288.648055,63.009611 C288.937817,62.9756778 289.198616,62.8177295 289.362929,62.576659 C289.515885,62.3471895 289.596549,62.0771405 289.594508,61.801373 C289.631283,61.3366512 289.406091,60.8901506 289.010526,60.6434783 C288.533567,60.4053141 288.002071,60.2976253 287.470023,60.3313501 L286.050343,60.3313501 L286.050343,65.6878719 L287.057208,65.6878719 L287.057208,63.4324943 L287.107551,63.4324943 C287.339136,63.4126258 287.571858,63.4543075 287.782151,63.5533181 C287.94395,63.6615719 288.06455,63.8211896 288.124485,64.0064073 L288.476888,64.8421053 L288.839359,65.6878719 L290.097941,65.6878719 L289.624714,64.6810069 L289.151487,63.6741419 C289.100637,63.5490144 289.029165,63.4332988 288.940046,63.3318078 C288.844144,63.2281421 288.727507,63.1458102 288.597712,63.0901602 M287.238444,62.5464531 L287.057208,62.5464531 L287.057208,61.2475973 L287.238444,61.2475973 C287.548789,61.2285499 287.859893,61.2695746 288.154691,61.3684211 C288.344743,61.4642796 288.464614,61.6589955 288.464614,61.8718535 C288.464614,62.0847116 288.344743,62.2794275 288.154691,62.375286 C287.862955,62.4875756 287.550441,62.5356548 287.238444,62.5162471" id="Shape" fill="#0099DA"></path>
            <path d="M287.892906,58.5290618 C286.646272,58.5159074 285.443574,58.9890408 284.540046,59.8480549 C283.6605,60.6967507 283.165843,61.8679242 283.170709,63.0901602 C283.157212,64.3280591 283.640927,65.5196208 284.513462,66.3978341 C285.385997,67.2760473 286.574397,67.7674815 287.812357,67.7620137 C289.02708,67.7741434 290.196889,67.3033225 291.064531,66.4530892 C291.928793,65.5718136 292.410074,64.3848955 292.403725,63.1505721 C292.397048,61.9445012 291.920231,60.7885799 291.0746,59.9286041 C290.238807,59.0677896 289.092686,58.5781492 287.892906,58.5693364 M287.782151,67.0370709 C285.652379,67.0509728 283.914588,65.3357214 283.900686,63.2059497 C283.886785,61.0761779 285.602036,59.338387 287.731808,59.3244851 C288.758388,59.3113715 289.749075,59.7018612 290.490618,60.4118993 C291.224479,61.1135311 291.639232,62.0849262 291.638472,63.1002288 C291.642353,64.1357775 291.237046,65.1309493 290.510755,65.8691076 C289.791039,66.5995789 288.807613,67.0096422 287.782151,67.006865" id="Shape" fill="#0099DA"></path>
            <path d="M175.546911,58.5290618 L170.915332,58.5290618 L169.767506,60.5427918 L168.61968,62.5565217 C168.287414,63.1405034 167.884668,63.8654462 167.502059,64.5702517 L166.424714,66.5839817 C166.102517,65.9798627 165.729977,65.3153318 165.3373,64.5702517 C164.944622,63.8251716 164.521739,63.1304348 164.108924,62.405492 L162.95103,60.391762 L161.793135,58.378032 L156.597712,58.378032 L160.061327,63.61373 L163.524943,68.8594966 L159.839817,74.4073227 L156.16476,79.9551487 L161.098398,79.9551487 L162.226087,78.1025172 L163.353776,76.2498856 C163.776659,75.5652174 164.360641,74.628833 164.874142,73.7327231 C165.387643,72.8366133 165.881007,72.010984 166.132723,71.5478261 C166.354233,72.010984 166.797254,72.8567506 167.280549,73.7427918 C167.763844,74.628833 168.287414,75.5853547 168.710297,76.2498856 L169.80778,78.1025172 L170.905263,79.9551487 L176.060412,79.9551487 L172.475973,74.4073227 L168.891533,68.8594966 L172.214188,63.61373 L175.546911,58.5290618 Z" id="Path" fill="#0099DA"></path>
            <path d="M184.115332,58.5189931 L178.678261,58.5189931 L178.678261,80.1061785 L183.037986,80.1061785 L183.037986,71.8800915 L184.115332,71.8800915 C186.337536,72.0057968 188.551843,71.5218522 190.518993,70.4805492 C192.321293,69.3394964 193.353315,67.3025091 193.207323,65.1743707 C193.382296,63.0226128 192.315476,60.9593131 190.458581,59.8581236 C188.492427,58.8820804 186.307247,58.4311702 184.115332,58.5491991 M183.813272,68.617849 L183.037986,68.617849 L183.037986,61.801373 L183.813272,61.801373 C185.084607,61.7052611 186.358203,61.9558046 187.498398,62.5263158 C188.312251,63.1901199 188.775206,64.19163 188.753577,65.2416418 C188.731947,66.2916535 188.228142,67.2732492 187.387643,67.9029748 C186.273018,68.4283833 185.042725,68.6605794 183.813272,68.5775744" id="Shape" fill="#0099DA"></path>
            <path d="M199.64119,67.2183066 L199.580778,67.2183066 C199.580778,66.7853547 199.580778,66.2114416 199.580778,65.6375286 C199.580778,65.0636156 199.530435,64.5400458 199.500229,64.1775744 L195.603661,64.1775744 C195.664073,64.8521739 195.704348,65.6173913 195.724485,66.4228833 C195.744622,67.2283753 195.724485,68.0842105 195.724485,68.9199085 L195.724485,80.1061785 L199.933181,80.1061785 L199.933181,73.621968 C199.817587,71.9909501 200.166704,70.3605761 200.940046,68.9199085 C201.617968,67.8724802 202.805555,67.2690787 204.051259,67.3391304 C204.275842,67.3231843 204.501274,67.3231843 204.725858,67.3391304 C204.940452,67.3705977 205.152459,67.4177103 205.360183,67.4800915 L205.360183,63.9359268 C205.178543,63.8877782 204.993371,63.8541105 204.806407,63.8352403 C204.608522,63.8250211 204.410242,63.8250211 204.212357,63.8352403 C203.193992,63.8091536 202.196782,64.1285447 201.383066,64.7414188 C200.588537,65.4041816 199.984003,66.265816 199.631121,67.2384439" id="Path" fill="#0099DA"></path>
            <path d="M215.126773,63.815103 C212.857823,63.7266521 210.644919,64.5329882 208.96476,66.0604119 C205.888054,69.5002734 205.888054,74.7029303 208.96476,78.1427918 C212.418362,81.1833098 217.593537,81.1833098 221.04714,78.1427918 C222.610799,76.5292488 223.447361,74.3469133 223.362929,72.1016018 C223.431582,69.8608243 222.601382,67.6856272 221.057208,66.0604119 C219.46148,64.529761 217.316726,63.7059724 215.106636,63.7748284 M214.955606,77.2869565 C213.832553,77.3087159 212.76791,76.7876403 212.09611,75.8874142 C211.338769,74.7937308 210.963603,73.4806489 211.028833,72.1519451 C210.938235,70.7660726 211.29086,69.3873092 212.035698,68.215103 C212.721064,67.3063295 213.808174,66.790987 214.945538,66.8356979 C216.087152,66.7925164 217.181651,67.2930722 217.895652,68.184897 C218.666034,69.3027475 219.041607,70.6455968 218.962929,72.0009153 C219.031785,73.3784128 218.646188,74.7403836 217.865446,75.8773455 C217.165047,76.7931462 216.067861,77.317399 214.915332,77.2869565" id="Shape" fill="#0099DA"></path>
            <path d="M231.518535,73.5011442 L231.518535,67.2485126 L235.324485,67.2485126 L235.324485,64.2279176 L231.518535,64.2279176 L231.518535,58.5391304 L229.565217,60.3414188 L227.611899,62.1537757 L227.611899,64.1675057 L224.530892,64.1675057 L224.530892,67.1881007 L227.551487,67.1881007 L227.551487,74.2361556 C227.551487,76.3405034 227.934096,77.8407323 228.779863,78.8073227 C229.821671,79.8534775 231.277244,80.3780749 232.746911,80.2370709 C233.224966,80.2382674 233.702581,80.207996 234.176659,80.1464531 C234.600559,80.1012991 235.018837,80.0135955 235.425172,79.8846682 L235.425172,76.7331808 C235.191175,76.8044201 234.952233,76.8582663 234.710297,76.8942792 C234.470681,76.9339883 234.228238,76.9541919 233.985355,76.9546911 C233.209783,77.0635378 232.436883,76.7389201 231.971625,76.1089245 C231.573157,75.2864688 231.406086,74.3710595 231.48833,73.4608696" id="Path" fill="#0099DA"></path>
            <path d="M244.859497,63.815103 C242.689986,63.7503442 240.591756,64.5932853 239.070023,66.1409611 C237.598168,67.7590455 236.811326,69.8849623 236.875057,72.0713959 C236.760928,74.3818536 237.618956,76.6346328 239.24119,78.2837529 C240.976478,79.8009266 243.231663,80.5875349 245.534096,80.4787185 C246.456732,80.4822751 247.377459,80.3945868 248.282838,80.2169336 C249.075942,80.0616367 249.849282,79.8184903 250.588558,79.4919908 L250.588558,76.0686499 C249.927353,76.4779893 249.212309,76.7931507 248.464073,77.0050343 C247.67027,77.2225929 246.850528,77.3309886 246.02746,77.3272311 C244.764711,77.3769416 243.523504,76.9892867 242.513501,76.2297483 C241.632141,75.5160266 241.118278,74.4439363 241.113959,73.3098398 L251.786728,73.3098398 C251.786728,73.1990847 251.786728,73.0077803 251.786728,72.8265446 C251.786728,72.6453089 251.786728,72.4439359 251.786728,72.3130435 C251.786728,69.4434783 251.192677,67.2787185 250.024714,65.9093822 C248.702684,64.4436202 246.777747,63.6706724 244.809153,63.815103 M241.053547,70.4805492 C241.096115,69.4340738 241.531059,68.4419704 242.271854,67.7016018 C242.91864,67.0888141 243.777231,66.7497069 244.668192,66.7551487 C245.566633,66.6972879 246.448861,67.0144526 247.104805,67.6311213 C247.766698,68.4186196 248.092199,69.4349075 248.010984,70.4604119 L241.023341,70.4604119 L241.053547,70.4805492 Z" id="Shape" fill="#0099DA"></path>
            <path d="M278.176659,76.9546911 C277.400499,77.0681199 276.625327,76.742548 276.162929,76.1089245 C275.761506,75.2874375 275.594283,74.3711974 275.679634,73.4608696 L275.679634,67.2384439 L279.485584,67.2384439 L279.485584,64.217849 L275.679634,64.217849 L275.679634,58.5391304 L273.726316,60.3414188 L271.853547,62.1537757 L271.853547,64.1675057 L268.732265,64.1675057 L268.732265,67.1881007 L271.75286,67.1881007 L271.75286,74.2361556 C271.75286,76.3405034 272.135469,77.8407323 272.981236,78.8073227 C274.020673,79.8571975 275.478069,80.3824521 276.948284,80.2370709 C277.426339,80.2382674 277.903954,80.207996 278.378032,80.1464531 C278.808512,80.1012292 279.233463,80.0135408 279.646682,79.8846682 L279.646682,76.7231121 C279.409231,76.796673 279.167015,76.8538628 278.921739,76.8942792 C278.675356,76.9339899 278.426222,76.9541899 278.176659,76.9546911" id="Path" fill="#0099DA"></path>
            <path d="M254.132723,72.212357 C254.050487,74.48068 254.936348,76.6770309 256.569336,78.2535469 C258.367887,79.8227362 260.698773,80.6441303 263.083753,80.5491991 C263.598339,80.550488 264.11261,80.5235981 264.624256,80.4686499 C265.072994,80.4134502 265.517166,80.3259617 265.953318,80.206865 L265.953318,76.8338673 C265.576749,76.9830536 265.185152,77.0910805 264.785355,77.1560641 C264.38306,77.2258326 263.975338,77.2595286 263.567048,77.2567506 C262.148822,77.3506859 260.760925,76.8168792 259.771167,75.7967963 C258.15323,73.6113451 258.173748,70.6198034 259.82151,68.4567506 C260.750357,67.4337808 262.085905,66.8766872 263.466362,66.9363844 C264.318316,66.9299824 265.163254,67.0907599 265.953318,67.409611 L265.953318,64.0970252 C265.494534,63.9747125 265.026427,63.8905206 264.553776,63.8453089 C264.02562,63.786188 263.494355,63.7592885 262.962929,63.7647597 C260.685634,63.7185982 258.472133,64.5186155 256.750572,66.0100686 C255.020029,67.6001957 254.064878,69.8631699 254.132723,72.212357" id="Path" fill="#0099DA"></path>
            <path d="M415.754691,152.107098 L258.119908,152.107098 C257.749423,152.107098 257.382748,152.032327 257.042563,151.885584 C256.377024,151.606369 255.846222,151.079178 255.562471,150.415561 C255.416807,150.075036 255.340961,149.708586 255.340961,149.338215 L255.340961,50.7762014 C255.340961,50.4058302 255.416807,50.0393802 255.562471,49.6988558 C255.84225,49.0302181 256.373925,48.498543 257.042563,48.2187643 C257.383478,48.0754745 257.750124,48.0035158 258.119908,48.0071791 L415.754691,48.0071791 C416.127654,48.0043843 416.497418,48.0762829 416.842105,48.2187643 C417.168404,48.3607536 417.465447,48.5621962 417.718078,48.8128146 C417.971064,49.067349 418.172742,49.3681579 418.312128,49.6988558 C418.457793,50.0393802 418.533638,50.4058302 418.533638,50.7762014 L418.533638,149.338215 C418.533638,149.708586 418.457793,150.075036 418.312128,150.415561 C418.175077,150.744552 417.973025,151.042494 417.718078,151.291533 C417.468165,151.545434 417.170448,151.747334 416.842105,151.885584 C416.49805,152.031254 416.128313,152.107098 415.754691,152.107098 L415.754691,152.107098 Z" id="Path" fill="#023852"></path>
            <polygon id="Path" fill="#DFE4E6" points="439.013272 150.435698 387.975286 150.435698 336.9373 150.435698 285.899314 150.435698 234.861327 150.435698 234.861327 149.247597 234.861327 148.059497 234.861327 146.871396 234.861327 145.673227 285.899314 145.673227 336.9373 145.673227 387.975286 145.673227 439.013272 145.673227 439.013272 146.871396 439.013272 148.059497 439.013272 149.247597"></polygon>
            <path d="M428.531808,153.77849 L245.342792,153.77849 C244.532733,153.740359 243.725747,153.652935 242.926316,153.516705 C241.859039,153.345538 240.600458,153.10389 239.402288,152.801831 C238.314554,152.544203 237.252861,152.186935 236.230664,151.734554 C235.394966,151.341876 234.861327,150.898856 234.861327,150.435698 L438.993135,150.435698 C438.993135,150.898856 438.449428,151.341876 437.61373,151.734554 C436.591532,152.186935 435.529839,152.544203 434.442105,152.801831 C433.243936,153.10389 431.985355,153.345538 430.918078,153.516705 C430.128622,153.651725 429.33176,153.739144 428.531808,153.77849 L428.531808,153.77849 Z" id="Path" fill="#DFE4E6"></path>
            <g id="Group" opacity="0.6" style="mix-blend-mode: multiply;" transform="translate(302.059497, 144.988558)" fill="#023852">
                <polygon id="Path" points="68.9501144 0.684668192 51.9139588 0.684668192 34.8778032 0.684668192 17.8416476 0.684668192 0.815560641 0.684668192 2.59771167 1.49016018 4.38993135 2.29565217 6.17208238 3.10114416 7.95423341 3.90663616 21.4160183 3.90663616 34.8778032 3.90663616 48.3395881 3.90663616 61.801373 3.90663616 63.583524 3.10114416 65.3757437 2.29565217 67.1578947 1.49016018"></polygon>
            </g>
            <polygon id="Path" fill="#023852" points="414.19405 141.776659 375.560641 141.776659 336.9373 141.776659 298.313959 141.776659 259.690618 141.776659 259.690618 119.686041 259.690618 97.5853547 259.690618 75.4947368 259.690618 53.3940503 298.313959 53.3940503 336.9373 53.3940503 375.560641 53.3940503 414.19405 53.3940503 414.19405 75.4947368 414.19405 97.5853547 414.19405 119.686041"></polygon>
            <g id="Group" opacity="0.2" transform="translate(259.771167, 53.363844)" fill="#F4F6F7">
                <path d="M0.171167048,0.211441648 L11.9112128,11.3473684 L23.6613272,22.4228833 C35.2402746,33.4312738 46.819222,44.4161709 58.3981693,55.3775744 L93.1954233,88.2617849 L154.22151,88.2617849 L154.22151,0.211441648 L0.171167048,0.211441648 Z" id="Path"></path>
            </g>
            <polygon id="Path" fill="#0099DA" points="278.780778 105.22746 279.938673 105.22746 281.086499 105.22746 281.086499 96.7093822 281.086499 88.1812357 279.938673 88.1812357 278.780778 88.1812357 278.780778 96.7093822"></polygon>
            <path d="M394.922654,92.1180778 L394.922654,92.1180778 C395.137365,92.088895 395.330478,91.9722984 395.456293,91.795881 C395.575781,91.6247142 395.639114,91.4206406 395.637529,91.2118993 C395.665188,90.8652644 395.49848,90.5318488 395.204577,90.3459954 C394.84556,90.1687113 394.446269,90.0888531 394.046682,90.1144165 L392.979405,90.1144165 L392.979405,94.1418764 L393.76476,94.1418764 L393.76476,92.3899314 L393.76476,92.3899314 C393.941809,92.3776509 394.118959,92.4123862 394.278261,92.4906178 C394.399616,92.5717836 394.488684,92.6929166 394.529977,92.8329519 L394.801831,93.4572082 L395.063616,94.0915332 L396.010069,94.0915332 L395.657666,93.3162471 L395.305263,92.5510297 C395.261294,92.4589347 395.203579,92.3740596 395.134096,92.2993135 C395.068061,92.2173161 394.981088,92.1546953 394.88238,92.1180778 M393.875515,91.7052632 L393.734554,91.7052632 L393.734554,90.7588101 L393.875515,90.7588101 C394.110758,90.7443046 394.3466,90.7750666 394.570252,90.8494279 C394.721707,90.9138751 394.814972,91.0679648 394.801831,91.2320366 C394.810552,91.3925319 394.718033,91.5413666 394.570252,91.6045767 C394.347448,91.6830964 394.111443,91.7173001 393.875515,91.7052632" id="Shape" fill="#0099DA"></path>
            <path d="M394.35881,88.7148056 C393.420499,88.7090846 392.517121,89.0704359 391.841648,89.7217391 C391.18693,90.357924 390.822806,91.2354625 390.834783,92.1482838 C390.829353,93.0776022 391.191233,93.9714459 391.841648,94.6352403 C392.499237,95.2888481 393.391423,95.6515252 394.318535,95.6421053 C395.213693,95.6346195 396.070306,95.2767938 396.704805,94.6453089 C398.038973,93.2830901 398.038973,91.1040953 396.704805,89.7418764 C396.076352,89.1001798 395.216712,88.7374626 394.318535,88.7350114 M394.237986,95.0883295 C393.481723,95.0817834 392.758392,94.7779843 392.224256,94.2425629 C391.679477,93.701911 391.373074,92.9661481 391.373074,92.198627 C391.373074,91.4311059 391.679477,90.695343 392.224256,90.1546911 C392.756517,89.6164886 393.48105,89.3121847 394.237986,89.3088765 C395.012245,89.304513 395.757202,89.6046658 396.312128,90.1446224 C396.860779,90.6705878 397.170064,91.3983174 397.16799,92.1583524 C397.171249,92.937309 396.867365,93.6861673 396.322197,94.2425629 C395.788061,94.7779843 395.06473,95.0817834 394.308467,95.0883295" id="Shape" fill="#0099DA"></path>
            <path d="M310.114416,88.7148741 L306.630664,88.7148741 L305.774828,90.215103 L304.918993,91.7052632 C304.657208,92.1482838 304.365217,92.7121281 304.073227,93.2457666 C303.781236,93.779405 303.499314,94.3432494 303.267735,94.7963387 C303.026087,94.3432494 302.744165,93.7894737 302.452174,93.3061785 L301.525858,91.6851259 L300.659954,90.1949657 L299.783982,88.7148741 L295.887414,88.7148741 L298.434783,92.6315789 L301.032494,96.5583524 L298.273684,100.726773 L295.514874,104.895195 L299.230206,104.895195 L300.075973,103.495652 L300.921739,102.106178 C301.233867,101.592677 301.666819,100.887872 302.059497,100.223341 C302.452174,99.5588101 302.824714,98.9244851 303.00595,98.582151 C303.167048,98.9244851 303.499314,99.589016 303.861785,100.23341 C304.224256,100.877803 304.637071,101.612815 304.93913,102.106178 L305.754691,103.495652 L306.58032,104.895195 L310.456751,104.895195 L307.768421,100.726773 L305.080092,96.5784897 L307.577117,92.6517162 L310.114416,88.7148741 Z" id="Path" fill="#0099DA"></path>
            <path d="M316.487872,88.7148741 L312.410069,88.7148741 L312.410069,104.915332 L315.68238,104.915332 L315.68238,98.7432494 L316.487872,98.7432494 C318.160153,98.8271771 319.82378,98.4547752 321.300686,97.6659039 C322.665183,96.7992135 323.439762,95.2500554 323.314416,93.6384439 C323.460542,92.0102634 322.6574,90.4431585 321.250343,89.610984 C319.775336,88.8728739 318.135408,88.526166 316.487872,88.604119 M316.256293,96.1455378 L315.68238,96.1455378 L315.68238,91.1112128 L316.256293,91.1112128 C317.211468,91.0382057 318.168529,91.2261376 319.025172,91.6549199 C319.634836,92.1519332 319.981873,92.9018494 319.966145,93.6882748 C319.950416,94.4747003 319.573671,95.2101408 318.944622,95.6823799 C318.105774,96.0756683 317.180609,96.2489203 316.256293,96.1858124" id="Shape" fill="#0099DA"></path>
            <path d="M328.1373,95.2393593 L328.1373,95.2393593 C328.1373,94.9070938 328.1373,94.4741419 328.1373,94.0512586 C328.1373,93.6283753 328.1373,93.2256293 328.066819,92.9638444 L325.146911,92.9638444 C325.197254,93.4572082 325.22746,94.0311213 325.237529,94.6352403 C325.247597,95.2393593 325.237529,95.8837529 325.237529,96.5080092 L325.237529,104.905263 L328.389016,104.905263 L328.389016,100.042105 C328.304881,98.8174414 328.573959,97.5943564 329.164302,96.5180778 C329.672947,95.7311396 330.564683,95.2775842 331.500229,95.3299771 C331.840591,95.3214463 332.180226,95.3655988 332.507094,95.4608696 L332.507094,92.77254 C332.372312,92.7347629 332.23396,92.7111417 332.094279,92.7020595 L331.64119,92.7020595 C330.878806,92.6816289 330.132478,92.923297 329.526773,93.3867277 C328.927679,93.881923 328.472221,94.5286046 328.20778,95.2594966" id="Path" fill="#0099DA"></path>
            <path d="M339.756522,92.6819222 C338.053244,92.6143498 336.392221,93.2223058 335.135011,94.3734554 C332.808964,96.9462496 332.808964,100.862446 335.135011,103.43524 C337.723524,105.7201 341.608284,105.7201 344.196796,103.43524 C345.365746,102.230499 345.994532,100.602199 345.938673,98.9244851 C345.993679,97.2338528 345.370081,95.5914712 344.206865,94.3633867 C343.008669,93.211968 341.397382,92.5914046 339.736384,92.6416476 M339.625629,102.780778 C338.790413,102.809671 337.992302,102.434971 337.481007,101.773913 C336.912363,100.950891 336.6294,99.9640564 336.675515,98.9647597 C336.617547,97.9215454 336.896399,96.8873202 337.470938,96.0146453 C337.988503,95.3446879 338.800066,94.9689641 339.645767,95.0077803 C340.502776,94.9692726 341.326369,95.3436328 341.86087,96.0146453 C342.440954,96.8512116 342.724499,97.8577948 342.666362,98.8741419 C342.714659,99.9080355 342.424826,100.929521 341.840732,101.783982 C341.315714,102.472556 340.491169,102.866089 339.625629,102.84119" id="Shape" fill="#0099DA"></path>
            <path d="M352.060412,99.9212815 L352.060412,95.2594966 L354.90984,95.2594966 L354.90984,92.9638444 L352.060412,92.9638444 L352.060412,88.7249428 L350.600458,90.0842105 L349.140503,91.4334096 L349.140503,92.9638444 L346.794508,92.9638444 L346.794508,95.2594966 L349.09016,95.2594966 L349.09016,100.545538 C348.979887,101.762353 349.304528,102.978865 350.006407,103.978947 C350.798695,104.77536 351.91025,105.168109 353.027002,105.046224 C353.383646,105.047319 353.740037,105.027146 354.094279,104.985812 C354.415498,104.949233 354.732446,104.881798 355.040732,104.784439 L355.040732,102.378032 C354.865425,102.428926 354.687226,102.469273 354.507094,102.498856 C354.322786,102.51334 354.137626,102.51334 353.953318,102.498856 C353.37839,102.572787 352.808408,102.330159 352.463158,101.864531 C352.158793,101.239607 352.033338,100.542633 352.100686,99.8508009" id="Path" fill="#0099DA"></path>
            <path d="M362.06865,92.6819222 C360.43834,92.6362831 358.862536,93.2709817 357.718993,94.4338673 C356.617623,95.6456164 356.029285,97.2373771 356.077803,98.8741419 C355.99145,100.607373 356.634,102.297715 357.849886,103.535927 C359.150951,104.676705 360.843639,105.268604 362.572082,105.187185 C363.248325,105.186654 363.922855,105.119201 364.585812,104.985812 C365.181525,104.874486 365.762564,104.695445 366.31762,104.452174 L366.31762,101.884668 C365.821273,102.187271 365.28609,102.42099 364.726773,102.579405 C364.129872,102.743401 363.513289,102.824708 362.894279,102.821053 C361.947833,102.856786 361.017433,102.569144 360.256293,102.005492 C359.609601,101.461005 359.240269,100.655862 359.249428,99.8105263 L367.254005,99.8105263 C367.254005,99.7299771 367.254005,99.589016 367.254005,99.4480549 C367.254005,99.3070938 367.254005,99.1560641 367.254005,99.0654462 C367.383128,97.3570119 366.917096,95.6565297 365.935011,94.2526316 C364.940813,93.1540937 363.496048,92.5747018 362.018307,92.6819222 M359.15881,97.7162471 C359.191358,96.9280857 359.518301,96.1807881 360.075057,95.621968 C360.570926,95.1651924 361.223381,94.9164664 361.897483,94.9272311 C362.571107,94.8844968 363.231903,95.12545 363.719908,95.591762 C364.236977,96.1561229 364.511768,96.900951 364.485126,97.6659039 L359.239359,97.6659039 L359.15881,97.7162471 Z" id="Shape" fill="#0099DA"></path>
            <path d="M387.069108,102.53913 C386.495824,102.617529 385.925178,102.378474 385.578947,101.914874 C385.274583,101.28995 385.149128,100.592976 385.216476,99.9011442 L385.216476,95.2594966 L388.065904,95.2594966 L388.065904,92.9638444 L385.216476,92.9638444 L385.216476,88.7249428 L383.756522,90.0842105 L382.296568,91.4334096 L382.296568,92.9638444 L379.950572,92.9638444 L379.950572,95.2594966 L382.246224,95.2594966 L382.246224,100.545538 C382.134399,101.763963 382.463048,102.982109 383.17254,103.978947 C383.950078,104.765893 385.042208,105.158319 386.142792,105.046224 C386.502776,105.047038 386.862501,105.026866 387.220137,104.985812 C387.541356,104.949233 387.858304,104.881798 388.16659,104.784439 L388.16659,102.367963 C387.989792,102.428314 387.807777,102.472132 387.622883,102.498856 C387.438596,102.513855 387.253395,102.513855 387.069108,102.498856" id="Path" fill="#0099DA"></path>
            <path d="M369.026087,98.984897 C368.965704,100.692815 369.631528,102.346401 370.858581,103.535927 C372.213456,104.697736 373.958652,105.302257 375.741876,105.22746 C376.128681,105.229581 376.515287,105.20941 376.899771,105.167048 C377.239319,105.126033 377.575707,105.062119 377.906636,104.975744 L377.906636,102.458581 C377.623073,102.567043 377.32973,102.647965 377.030664,102.700229 C376.727778,102.749489 376.421272,102.773066 376.114416,102.770709 C375.049761,102.839538 374.008402,102.438449 373.264989,101.673227 C372.04499,100.040061 372.04499,97.7988406 373.264989,96.1656751 C373.96282,95.3974007 374.966866,94.9802789 376.003661,95.0279176 C376.341449,95.0248669 376.678711,95.0552205 377.010526,95.1185355 C377.303494,95.1783278 377.590076,95.2659881 377.866362,95.3803204 L377.866362,92.8933638 C377.536147,92.8038494 377.199531,92.7398923 376.859497,92.7020595 C376.460393,92.680674 376.060431,92.680674 375.661327,92.7020595 C373.952903,92.6665961 372.291978,93.2656772 370.999542,94.383524 C369.697424,95.5731497 368.980206,97.2724045 369.036156,99.0352403" id="Path" fill="#0099DA"></path>
            <polygon id="Path" fill="#0099DA" points="64.3789474 100.636156 64.9125858 100.636156 65.4462243 100.636156 65.4462243 96.7093822 65.4462243 92.77254 64.9125858 92.77254 64.3789474 92.77254 64.3789474 96.7093822"></polygon>
            <path d="M118.014645,94.584897 L118.014645,94.584897 C118.113671,94.5660988 118.200854,94.507977 118.256293,94.4237986 C118.308361,94.3463848 118.336384,94.2553076 118.336842,94.1620137 C118.352713,94.0002179 118.274429,93.8436481 118.135469,93.7592677 C117.971154,93.6739933 117.78651,93.6356709 117.601831,93.6485126 L117.108467,93.6485126 L117.108467,95.5011442 L117.470938,95.5011442 L117.470938,94.7258581 L117.470938,94.7258581 C117.546828,94.705798 117.626627,94.705798 117.702517,94.7258581 C117.762661,94.7612998 117.806157,94.8192952 117.823341,94.8869565 L117.944165,95.1789474 L118.075057,95.4608696 L118.508009,95.4608696 L118.346911,95.1084668 L118.185812,94.7560641 C118.164866,94.7151938 118.137691,94.6778291 118.105263,94.6453089 C118.075861,94.6069333 118.037946,94.5759122 117.994508,94.5546911 M117.521281,94.3633867 L117.450801,94.3633867 L117.450801,93.9304348 L117.521281,93.9304348 C117.624401,93.9108327 117.73029,93.9108327 117.83341,93.9304348 C117.907878,93.9578664 117.953725,94.032888 117.944165,94.1116705 C117.948958,94.1868879 117.903987,94.2563889 117.83341,94.2828375 C117.73029,94.3024396 117.624401,94.3024396 117.521281,94.2828375" id="Shape" fill="#0099DA"></path>
            <path d="M117.742792,93.0141876 C117.310715,93.0091078 116.894277,93.1756828 116.584897,93.4773455 C116.280866,93.7694336 116.109832,94.1733651 116.111656,94.5949657 C116.111396,95.0231535 116.27746,95.4347054 116.574828,95.7427918 C116.878845,96.0475541 117.292187,96.2179672 117.722654,96.2160348 C118.586896,96.2003243 119.286799,95.5092808 119.313501,94.6453089 C119.310172,94.2267454 119.14406,93.8259115 118.850343,93.5276888 C118.560676,93.226183 118.160897,93.0553686 117.742792,93.0544622 M117.742792,95.994512 C117.387503,95.9953818 117.046655,95.8539663 116.796339,95.6018307 C116.532939,95.3342406 116.390974,94.9702298 116.403661,94.5949657 C116.400078,94.2361923 116.541701,93.8912108 116.796339,93.6384439 C117.039817,93.3884213 117.373667,93.2468979 117.722654,93.2457666 C118.098123,93.2318759 118.462594,93.3740195 118.729519,93.6384439 C118.980507,93.8812616 119.122212,94.2155388 119.122197,94.5647597 C119.137556,94.9385555 118.999311,95.30236 118.739588,95.5716247 C118.488018,95.8218865 118.147983,95.962965 117.793135,95.9643021" id="Shape" fill="#0099DA"></path>
            <path d="M78.82746,93.0141876 L77.216476,93.0141876 L76.8237986,93.7089245 L76.4210526,94.3935927 L76.0384439,95.1084668 L75.6659039,95.823341 C75.5551487,95.6118993 75.4242563,95.3803204 75.2832952,95.1386728 L74.8604119,94.383524 L74.4576659,93.6988558 L74.0549199,93.0141876 L72.2526316,93.0141876 L73.5011442,94.8366133 L74.6590389,96.6590389 L73.3803204,98.5720824 L72.1116705,100.495195 L73.823341,100.495195 L74.2160183,99.8508009 L74.6086957,99.2064073 L75.1322654,98.3405034 C75.3135011,98.0283753 75.4846682,97.7363844 75.5652174,97.575286 C75.6457666,97.7363844 75.7967963,98.0283753 75.9679634,98.3405034 C76.1391304,98.6526316 76.3203661,98.9748284 76.4613272,99.2064073 L76.8338673,99.8508009 L77.216476,100.495195 L79.0086957,100.495195 L77.7601831,98.5720824 L76.5217391,96.6590389 L77.6695652,94.8466819 L78.82746,93.0141876 Z" id="Path" fill="#0099DA"></path>
            <path d="M81.7977117,93.0141876 L79.9048055,93.0141876 L79.9048055,100.495195 L81.415103,100.495195 L81.415103,97.6659039 L81.7977117,97.6659039 C82.5683109,97.7048154 83.3347312,97.530629 84.0128146,97.1624714 C84.6370526,96.7692826 84.9963108,96.0662182 84.9491991,95.3299771 C84.9856809,94.5755683 84.596943,93.8641778 83.9423341,93.4874142 C83.2617554,93.1503183 82.5057989,92.9942722 81.7473684,93.0343249 M81.6366133,96.5180778 L81.3647597,96.5180778 L81.3647597,94.1519451 L81.6366133,94.1519451 C82.0777411,94.119203 82.5195259,94.2061685 82.9153318,94.4036613 C83.21403,94.6089004 83.379382,94.9588315 83.3482838,95.3199085 C83.3823997,95.6995334 83.1992267,96.0658794 82.8750572,96.2663616 C82.4878835,96.4452153 82.0622545,96.5248045 81.6366133,96.4979405" id="Shape" fill="#0099DA"></path>
            <path d="M87.1743707,96.024714 L87.1743707,96.024714 C87.1743707,95.8736842 87.1743707,95.6723112 87.1743707,95.4810069 C87.1743707,95.2897025 87.1743707,95.0983982 87.1743707,94.9775744 L85.7546911,94.9775744 C85.7546911,95.2091533 85.7546911,95.4709382 85.7546911,95.7528604 C85.7546911,96.0347826 85.7546911,96.3267735 85.7546911,96.6187643 L85.7546911,100.495195 L87.2045767,100.495195 L87.2045767,98.2398169 C87.1845297,97.6864817 87.3206094,97.1386737 87.597254,96.6590389 C87.8297441,96.2931412 88.2417467,96.0813642 88.6745995,96.1052632 L88.9061785,96.1052632 C88.9796539,96.0949318 89.0542134,96.0949318 89.1276888,96.1052632 L89.1276888,94.8869565 L88.9363844,94.8869565 L88.7249428,94.8869565 C88.3631688,94.8702219 88.0069493,94.9806499 87.7180778,95.1990847 C87.4432753,95.4288517 87.2347341,95.7277607 87.1139588,96.0649886" id="Path" fill="#0099DA"></path>
            <path d="M92.5409611,94.8466819 C91.7556841,94.8176178 90.9899919,95.095723 90.4064073,95.621968 C89.8528732,96.1830328 89.5574543,96.9489337 89.5908467,97.7363844 C89.5525193,98.5174534 89.8474728,99.2780924 90.4023532,99.8291328 C90.9572336,100.380173 91.7199025,100.669837 92.5006865,100.626087 C93.2938042,100.662467 94.0677313,100.375424 94.6453089,99.8306636 C95.1873739,99.2752129 95.47844,98.5220793 95.4508009,97.7464531 C95.4940994,96.9719987 95.2081716,96.2152996 94.6635432,95.6630004 C94.1189149,95.1107012 93.3662886,94.8142186 92.5913043,94.8466819 M92.5308924,99.5286041 C92.1361201,99.5433429 91.759453,99.3625427 91.5240275,99.0453089 C91.2644445,98.6631956 91.1339029,98.208064 91.1514874,97.7464531 C91.1257085,97.2664518 91.252598,96.7906161 91.5139588,96.3871854 C91.7527073,96.0740047 92.1271354,95.8942792 92.5208238,95.9038902 C92.9120625,95.8951178 93.2847794,96.0702947 93.5276888,96.3771167 C93.7862685,96.755482 93.9136011,97.2082203 93.8901602,97.6659039 C93.9136162,98.1422399 93.7791162,98.61299 93.5075515,99.0050343 C93.2709385,99.3220063 92.8961665,99.5056446 92.5006865,99.4983982" id="Shape" fill="#0099DA"></path>
            <path d="M98.2196796,98.1894737 L98.2196796,96.0347826 L99.5386728,96.0347826 L99.5386728,95.0279176 L98.2196796,95.0279176 L98.2196796,93.0141876 L97.5450801,93.6485126 L96.8704805,94.2727689 L96.8704805,94.9775744 L95.7830664,94.9775744 L95.7830664,95.9844394 L96.8503432,95.9844394 L96.8503432,98.4311213 C96.7979167,98.9916477 96.947932,99.5524193 97.2732265,100.011899 C97.6311591,100.375622 98.1349005,100.557117 98.6425629,100.505263 C98.8068454,100.515905 98.9716443,100.515905 99.1359268,100.505263 C99.2859139,100.487744 99.4341277,100.457428 99.5789474,100.414645 L99.5789474,99.3070938 L99.3272311,99.3070938 C99.2436195,99.317023 99.1591265,99.317023 99.0755149,99.3070938 C98.8078621,99.3449187 98.5410465,99.2327788 98.380778,99.015103 C98.2473656,98.7291914 98.1917939,98.4131275 98.2196796,98.0988558" id="Path" fill="#0099DA"></path>
            <path d="M102.84119,94.8466819 C102.087486,94.8254165 101.35858,95.116979 100.82746,95.6521739 C100.330457,96.2039579 100.060674,96.9233796 100.072311,97.6659039 C100.030001,98.4667196 100.325909,99.2484995 100.887872,99.820595 C101.491156,100.346309 102.273306,100.620241 103.072769,100.585812 C103.394146,100.583808 103.71454,100.550082 104.029291,100.485126 C104.303059,100.436334 104.570068,100.355217 104.824714,100.243478 L104.824714,99.0956522 C104.596328,99.2375518 104.348817,99.3460498 104.089703,99.417849 C103.813888,99.4918545 103.529506,99.5290951 103.243936,99.5286041 C102.805324,99.5494788 102.373556,99.4138823 102.025629,99.1459954 C101.718731,98.9021826 101.540604,98.5310851 101.542334,98.1391304 L105.237529,98.1391304 C105.237529,98.1391304 105.237529,98.0384439 105.237529,97.9679634 C105.241985,97.9109947 105.241985,97.853765 105.237529,97.7967963 C105.294084,97.0065813 105.077235,96.2209464 104.623341,95.5716247 C104.166232,95.0653838 103.501387,94.7979603 102.821053,94.8466819 M101.502052,97.1524027 C101.500859,96.7733634 101.653452,96.4100466 101.924943,96.1455378 C102.151945,95.9350427 102.451085,95.8197117 102.760641,95.823341 C103.073698,95.8052665 103.380144,95.9183598 103.606407,96.1354691 C103.843727,96.4143043 103.956521,96.7781544 103.918535,97.1423341 L101.502052,97.1423341 L101.502052,97.1524027 Z" id="Shape" fill="#0099DA"></path>
            <path d="M114.379863,99.3977117 C114.11528,99.433917 113.852216,99.3217282 113.695195,99.1057208 C113.552936,98.8225376 113.4936,98.504917 113.524027,98.1894737 L113.524027,96.0347826 L114.843021,96.0347826 L114.843021,95.0279176 L113.524027,95.0279176 L113.524027,93.0242563 L112.849428,93.6485126 L112.174828,94.2727689 L112.174828,94.9775744 L111.097483,94.9775744 L111.097483,95.9844394 L112.104348,95.9844394 L112.104348,98.4311213 C112.051921,98.9916477 112.201937,99.5524193 112.527231,100.011899 C112.889078,100.375999 113.395955,100.557291 113.906636,100.505263 C114.070929,100.515578 114.235707,100.515578 114.4,100.505263 C114.549987,100.487744 114.698201,100.457428 114.843021,100.414645 L114.843021,99.3171625 C114.677219,99.3711189 114.503879,99.3983096 114.329519,99.3977117" id="Path" fill="#0099DA"></path>
            <path d="M106.053089,97.7565217 C106.022926,98.5463289 106.330505,99.3116138 106.898856,99.8608696 C107.525349,100.395575 108.33139,100.672652 109.154233,100.636156 C109.331946,100.647052 109.510159,100.647052 109.687872,100.636156 C109.844565,100.624881 109.99973,100.597896 110.15103,100.555606 L110.15103,99.3574371 C110.017562,99.4083372 109.879237,99.4454488 109.738215,99.4681922 C109.597701,99.4840723 109.455846,99.4840723 109.315332,99.4681922 C108.824526,99.4991949 108.345207,99.3111542 108.006407,98.9546911 C107.71603,98.5977471 107.568875,98.1455162 107.593593,97.6860412 C107.577347,97.2260553 107.727488,96.7756327 108.016476,96.4173913 C108.343368,96.0670709 108.806309,95.876016 109.285126,95.8938215 C109.439084,95.8775625 109.594326,95.8775625 109.748284,95.8938215 C109.885512,95.9233981 110.020182,95.9637991 110.15103,96.0146453 L110.15103,94.9473684 L109.667735,94.8567506 C109.483294,94.8461663 109.298399,94.8461663 109.113959,94.8567506 C108.323073,94.8415844 107.554899,95.1215733 106.959268,95.6421053 C106.357872,96.1898899 106.026693,96.9736788 106.053089,97.7867277" id="Path" fill="#0099DA"></path>
            <polygon id="Path" fill="#0099DA" points="8.15560641 112.124485 8.4375286 112.124485 8.70938215 112.124485 8.70938215 110.050343 8.70938215 107.976201 8.4375286 107.976201 8.15560641 107.976201 8.15560641 110.050343"></polygon>
            <path d="M36.408238,108.932723 L36.408238,108.932723 C36.460802,108.924234 36.5078645,108.895272 36.5391304,108.852174 C36.5537783,108.806328 36.5537783,108.757058 36.5391304,108.711213 C36.5465903,108.625167 36.5033578,108.542633 36.4283753,108.499771 C36.3360358,108.474984 36.2387926,108.474984 36.1464531,108.499771 L35.8947368,108.499771 L35.8947368,109.506636 L36.0860412,109.506636 L36.0860412,109.10389 L36.0860412,109.10389 C36.1255377,109.092694 36.1673685,109.092694 36.206865,109.10389 C36.2399452,109.118021 36.2629741,109.148726 36.2672769,109.184439 L36.3377574,109.335469 L36.3981693,109.486499 L36.6297483,109.486499 L36.5391304,109.305263 L36.4585812,109.113959 C36.4614728,109.093925 36.4614728,109.07358 36.4585812,109.053547 L36.3981693,109.053547 M36.1464531,108.95286 L36.1464531,108.95286 L36.1464531,108.721281 L36.1464531,108.721281 L36.3176201,108.721281 C36.3176201,108.721281 36.3679634,108.771625 36.3679634,108.821968 C36.3679634,108.872311 36.3679634,108.892449 36.3176201,108.902517 C36.2612235,108.914782 36.2028497,108.914782 36.1464531,108.902517" id="Shape" fill="#0099DA"></path>
            <path d="M36.2471396,108.107094 C36.01893,108.10554 35.7989211,108.192101 35.6329519,108.348741 C35.4744388,108.501985 35.3838021,108.712262 35.3812357,108.932723 C35.3817912,109.159492 35.4723239,109.37677 35.6329519,109.536842 C35.7899226,109.695485 36.0038267,109.784752 36.2270023,109.784752 C36.4501779,109.784752 36.664082,109.695485 36.8210526,109.536842 C36.9826274,109.377407 37.0733321,109.159716 37.0727715,108.932723 C37.0722604,108.710871 36.9856219,108.497884 36.8311213,108.338673 C36.6755981,108.184784 36.4659273,108.098024 36.2471396,108.097025 M36.2471396,109.637529 C36.062669,109.637555 35.8855404,109.565258 35.7537757,109.436156 C35.6194586,109.302933 35.5434252,109.121901 35.5423341,108.932723 C35.543873,108.746583 35.6200458,108.568846 35.7537757,108.439359 C35.8780773,108.304199 36.0534434,108.227476 36.2370709,108.227904 C36.4267066,108.226734 36.6085841,108.303123 36.7405034,108.439359 C36.8756641,108.563661 36.9523867,108.739027 36.9519451,108.922654 C36.9604376,109.112965 36.8892574,109.298209 36.7555124,109.433865 C36.6217674,109.56952 36.4375513,109.643321 36.2471396,109.637529" id="Shape" fill="#0099DA"></path>
            <path d="M15.7574371,108.107094 L14.9116705,108.107094 L14.7102975,108.469565 L14.4988558,108.832037 L14.2974828,109.204577 L14.0961098,109.587185 C14.0356979,109.47643 13.975286,109.345538 13.8947368,109.224714 L13.6732265,108.821968 L13.4617849,108.469565 L13.2503432,108.107094 L12.3038902,108.107094 L12.9382151,109.063616 L13.5624714,110.070481 L12.8979405,111.077346 L12.223341,112.084211 L13.0892449,112.084211 L13.2906178,111.741876 L13.5020595,111.409611 C13.57254,111.278719 13.6832952,111.107551 13.773913,110.946453 C13.8645309,110.785355 13.9652174,110.634325 14.005492,110.553776 L14.2169336,110.946453 C14.3075515,111.11762 14.3981693,111.288787 14.4787185,111.409611 L14.6700229,111.741876 L14.8713959,112.084211 L15.817849,112.084211 L15.1633867,111.077346 L14.5089245,110.070481 L15.1130435,109.063616 L15.7574371,108.107094 Z" id="Path" fill="#0099DA"></path>
            <path d="M17.3281465,108.107094 L16.3212815,108.107094 L16.3212815,112.043936 L17.1167048,112.043936 L17.1167048,110.543707 L17.3180778,110.543707 C17.7240891,110.565802 18.1283035,110.475202 18.4860412,110.281922 C18.8277455,110.066674 19.0186901,109.676991 18.979405,109.275057 C19.0324096,108.868212 18.8332516,108.469896 18.4759725,108.268192 C18.1162098,108.093109 17.7175061,108.013369 17.3180778,108.036613 M17.2576659,109.869108 L17.1167048,109.869108 L17.1167048,108.741419 L17.2576659,108.741419 C17.4901187,108.725157 17.7227616,108.770297 17.9322654,108.872311 C18.0926446,108.989903 18.1873989,109.176874 18.1873989,109.375744 C18.1873989,109.574614 18.0926446,109.761584 17.9322654,109.879176 C17.7274936,109.97306 17.5025988,110.014579 17.2778032,110" id="Shape" fill="#0099DA"></path>
            <path d="M20.1372998,109.687872 L20.1372998,109.687872 C20.1372998,109.607323 20.1372998,109.506636 20.1372998,109.40595 C20.1372998,109.305263 20.1372998,109.204577 20.1372998,109.134096 L19.4224256,109.134096 C19.4224256,109.25492 19.4224256,109.395881 19.4224256,109.546911 C19.4224256,109.697941 19.4224256,109.84897 19.4224256,110 L19.4224256,112.01373 L20.187643,112.01373 L20.187643,110.855835 C20.16715,110.558048 20.2336115,110.26072 20.3789474,110 C20.4996627,109.807214 20.7156832,109.695346 20.9427918,109.708009 L21.1441648,109.708009 L21.2549199,109.708009 L21.2549199,109.053547 L21.1542334,109.053547 L21.0434783,109.053547 C20.8589037,109.046786 20.677612,109.103661 20.5299771,109.214645 C20.3851314,109.335204 20.2741036,109.491337 20.2077803,109.667735" id="Path" fill="#0099DA"></path>
            <path d="M22.9867277,109.073684 C22.5727241,109.055939 22.1681352,109.200435 21.8590389,109.47643 C21.5714487,109.775639 21.4186714,110.179408 21.4361556,110.59405 C21.4218646,111.002187 21.5745769,111.398512 21.8590389,111.691533 C22.1588094,111.971758 22.5563407,112.123542 22.9665904,112.114416 C23.3775952,112.12798 23.776766,111.975569 24.0741419,111.691533 C24.3576072,111.397875 24.5101499,111.001991 24.4970252,110.59405 C24.5083362,110.183426 24.3562453,109.785092 24.0741419,109.486499 C23.7801233,109.211149 23.3894018,109.062819 22.9867277,109.073684 M22.9867277,111.540503 C22.7811011,111.538949 22.5877778,111.442287 22.4631579,111.278719 C22.3272406,111.07709 22.260137,110.83693 22.2718535,110.59405 C22.2606203,110.341759 22.3274206,110.092137 22.4631579,109.879176 C22.5888144,109.712614 22.7883444,109.618496 22.9967963,109.62746 C23.2045532,109.621874 23.4026133,109.715299 23.5304348,109.879176 C23.6756178,110.080628 23.7467538,110.326047 23.7318078,110.573913 C23.7386265,110.82395 23.6683191,111.070026 23.5304348,111.278719 C23.400506,111.446695 23.1990654,111.543684 22.9867277,111.540503" id="Shape" fill="#0099DA"></path>
            <path d="M25.9771167,110.825629 L25.9771167,109.748284 L26.6718535,109.748284 L26.6718535,109.184439 L25.9771167,109.184439 L25.9771167,108.177574 L25.624714,108.50984 L25.2723112,108.832037 L25.2723112,109.204577 L24.6983982,109.204577 L24.6983982,109.748284 L25.2521739,109.748284 L25.2521739,111.037071 C25.224257,111.334611 25.3066754,111.632034 25.4837529,111.872769 C25.6761923,112.059903 25.9416936,112.152091 26.2086957,112.124485 L26.4604119,112.124485 L26.6919908,112.124485 L26.6919908,111.540503 L26.5610984,111.540503 L26.4302059,111.540503 C26.2913615,111.556462 26.1541696,111.499298 26.0677346,111.389474 C25.9932222,111.236321 25.961892,111.065745 25.9771167,110.89611" id="Path" fill="#0099DA"></path>
            <path d="M28.41373,109.073657 C28.0344586,109.071317 27.6707037,109.224095 27.406865,109.496568 C27.1385628,109.79022 26.994245,110.17627 27.004119,110.573913 C26.9557143,111.006456 27.0950091,111.439002 27.3867277,111.762014 C27.7036231,112.038334 28.1144813,112.182494 28.5345538,112.16476 C28.7019657,112.181123 28.8705743,112.181123 29.0379863,112.16476 C29.1831757,112.136191 29.3249285,112.092315 29.4608696,112.033867 L29.4608696,111.409611 C29.3376127,111.48279 29.2056996,111.540291 29.0681922,111.580778 C28.9243029,111.622638 28.7750154,111.642996 28.6251716,111.64119 C28.3942427,111.645561 28.1681276,111.5749 27.980778,111.439817 C27.8250061,111.305673 27.7335104,111.111702 27.7290618,110.906178 L29.6723112,110.906178 C29.6777931,110.876221 29.6777931,110.845518 29.6723112,110.815561 C29.6723112,110.815561 29.6723112,110.74508 29.6723112,110.724943 C29.7052373,110.30837 29.5873113,109.893842 29.3400458,109.556979 C29.1026953,109.287122 28.7517987,109.14527 28.3935927,109.174371 M27.6988558,110.382609 C27.7067822,110.192919 27.7858696,110.013175 27.9203661,109.879176 C28.0391127,109.765023 28.1987353,109.70335 28.3633867,109.708009 C28.527317,109.695783 28.6886204,109.754439 28.8064073,109.869108 C28.9295352,110.01067 28.9911393,110.195482 28.9775744,110.382609 L27.7189931,110.382609 L27.6988558,110.382609 Z" id="Shape" fill="#0099DA"></path>
            <path d="M34.4951945,111.470023 C34.3563501,111.485981 34.2191581,111.428818 34.1327231,111.318993 C34.0582108,111.16584 34.0268806,110.995265 34.0421053,110.825629 L34.0421053,109.748284 L34.7368421,109.748284 L34.7368421,109.184439 L34.0421053,109.184439 L34.0421053,108.177574 L33.6897025,108.50984 L33.3372998,108.832037 L33.3372998,109.204577 L32.7633867,109.204577 L32.7633867,109.748284 L33.3171625,109.748284 L33.3171625,111.037071 C33.2892456,111.334611 33.3716639,111.632034 33.5487414,111.872769 C33.7419194,112.058703 34.0068465,112.150691 34.2736842,112.124485 L34.5354691,112.124485 L34.7670481,112.124485 L34.7670481,111.540503 L34.626087,111.540503 L34.4951945,111.540503" id="Path" fill="#0099DA"></path>
            <path d="M30.1052632,110.604119 C30.0897803,111.019321 30.2507256,111.421685 30.5482838,111.71167 C30.8785863,111.99331 31.3026106,112.140641 31.7363844,112.124485 L32.0183066,112.124485 C32.0984504,112.135914 32.1798104,112.135914 32.2599542,112.124485 L32.2599542,111.520366 L32.0485126,111.580778 L31.8270023,111.580778 C31.5688596,111.59545 31.316534,111.500371 31.1322654,111.318993 C30.9825629,111.127075 30.9074487,110.887425 30.9208238,110.644394 C30.9127447,110.403511 30.9913412,110.167721 31.1423341,109.979863 C31.3114377,109.792499 31.5546208,109.68933 31.806865,109.697941 C31.8904401,109.687411 31.9750062,109.687411 32.0585812,109.697941 C32.1284859,109.707265 32.1964608,109.727657 32.2599542,109.758352 L32.2599542,109.154233 L32.008238,109.154233 L31.7162471,109.154233 C31.3008226,109.146802 30.8967234,109.289846 30.5784897,109.556979 C30.2650853,109.850958 30.0927844,110.265214 30.1052632,110.694737" id="Path" fill="#0099DA"></path>
        </g>
    </g>
</svg>