<?xml version="1.0" encoding="UTF-8"?>
<svg width="128px" height="128px" viewBox="0 0 128 128" version="1.1" xmlns="http://www.w3.org/2000/svg" xmlns:xlink="http://www.w3.org/1999/xlink">
    <title>Graphic elements / Icons / Flat icons / Generic / Analytics</title>
    <g id="Graphic-elements-/-Icons-/-Flat-icons-/-Generic-/-Analytics" stroke="none" stroke-width="1" fill="none" fill-rule="evenodd">
        <g id="Analytics" transform="translate(5.000000, 4.000000)" fill="#000000" fill-rule="nonzero">
            <path d="M50.5,68.5 L50.5,1.4 C21.9,5.6 0,30.1 0,59.8 C0,92.5 26.5,119 59.2,119 C88.9,119 113.5,97.1 117.6,68.5 L50.5,68.5 Z" id="Fill-1"></path>
            <path d="M118.1,56 L63,56 L63,0.9 L66.1,1 C66.3,1 66.5,1 66.7,1 C80.8,1.9 93.8,8.1 103.4,18.4 C112.2,27.8 117.4,40.1 117.9,52.8 L118.1,56 Z M69,50 L111.7,50 C110.6,39.8 106.1,30.1 99,22.5 C91.1,14 80.5,8.7 69,7.3 L69,50 Z" id="Shape"></path>
        </g>
    </g>
</svg>