<?xml version="1.0" encoding="UTF-8"?>
<svg width="128px" height="128px" viewBox="0 0 128 128" version="1.1" xmlns="http://www.w3.org/2000/svg" xmlns:xlink="http://www.w3.org/1999/xlink">
    <title>Graphic elements / Icons / Flat icons / Generic / Application</title>
    <g id="Graphic-elements-/-Icons-/-Flat-icons-/-Generic-/-Application" stroke="none" stroke-width="1" fill="none" fill-rule="evenodd">
        <g id="Group" transform="translate(4.000000, 4.000000)" fill="#000000" fill-rule="nonzero">
            <path d="M63.4356473,75.7163227 L59.5512195,85.7485929 C59.3942803,86.1566846 59.0810655,86.4853333 58.6809884,86.6617053 C58.2809113,86.8380773 57.827014,86.8476062 57.4198874,86.6881801 L57.0116323,86.5260788 C57.0116323,86.5260788 56.0840525,86.1718574 55.588743,84.4397749 C55.1084428,82.7527205 54.7091932,81.9992495 52.9771107,81.2247655 C50.0142589,79.8949343 46.5440901,81.3748593 45.3673546,84.4157598 L45.3193246,84.5448405 L45.3313321,84.5508443 L44.9861163,85.4454034 C43.8093809,88.4833021 45.3703565,91.9294559 48.4472795,92.9621013 C50.2484053,93.5624765 51.0469043,93.2772983 52.5358349,92.3617261 C54.0667917,91.4221388 54.9883677,91.7883677 54.9883677,91.7883677 L55.4026266,91.950469 C56.2510646,92.2824657 56.6702099,93.2389768 56.339212,94.0878049 L51.5302064,106.497561 C51.4456146,106.717851 51.2768713,106.895445 51.0611899,106.991178 C50.8455084,107.086911 50.6006048,107.09292 50.3804878,107.00788 L36.9440901,101.757598 C36.4917602,101.581167 36.2607188,101.077921 36.4217636,100.619887 L36.8390244,99.4341463 C37.0010158,98.9755939 37.3438534,98.6034631 37.7876173,98.4045028 C39.9579098,97.4196859 41.2982237,95.2006622 41.1598713,92.8213992 C41.0215188,90.4421362 39.4330388,88.3934197 37.163227,87.6667917 C35.095225,87.0191428 32.8387427,87.5894821 31.3268394,89.1419735 C29.814936,90.694465 29.3045606,92.9652613 30.0067542,95.0153846 C30.1392478,95.4210337 30.1178781,95.8612491 29.9467167,96.2521576 L29.502439,97.2998124 C29.1787303,98.070377 28.2994659,98.442066 27.5212008,98.1373358 L14.6701689,93.115197 C14.2117876,92.9352549 13.9850331,92.4186838 14.1628518,91.9594747 L18.9898687,79.4986867 C19.1468079,79.090595 19.4600227,78.7619462 19.8600998,78.5855742 C20.2601768,78.4092022 20.7140742,78.3996734 21.1212008,78.5590994 L21.5324578,78.7181989 C21.5324578,78.7181989 22.4570356,79.0754221 22.9523452,80.8075047 C23.4326454,82.4915572 23.8348968,83.2450281 25.5639775,84.0195122 C28.5268293,85.3493433 31.9969981,83.8694184 33.1737336,80.8285178 L33.5189493,79.9369606 L33.5339587,79.9429644 L33.5849906,79.8108818 C34.7617261,76.775985 33.2007505,73.3268293 30.1208255,72.2971857 C28.3257036,71.6938086 27.5242026,71.9789869 26.035272,72.8945591 C24.5043152,73.8341463 23.5797373,73.4679174 23.5797373,73.4679174 L23.1684803,73.3058161 C22.3200424,72.9738195 21.900897,72.0173083 22.2318949,71.1684803 L26.1193246,61.139212 C26.2146931,60.8891764 26.4057868,60.6874643 26.650305,60.578727 C26.8948232,60.4699896 27.1725973,60.463196 27.4221388,60.5598499 L38.2949343,64.7834897 L38.3789869,64.8195122 C38.7572233,64.9906191 42.0292683,66.4195122 42.6476548,65.0326454 C43.0679174,64.0840525 42.1853659,63.8469043 42.0172608,60.8690432 C41.9121951,59.9414634 42.0232645,58.9778612 42.3834897,58.0472795 C42.9732214,56.5151547 44.1715581,55.2959572 45.693278,54.679874 C47.2149978,54.0637908 48.923997,54.1059248 50.4135084,54.7962477 C52.152183,55.6067007 53.3958789,57.2028177 53.756753,59.0868541 C54.1176272,60.9708906 53.5517718,62.9136146 52.2356473,64.3091932 C52.2189565,64.3275039 52.2019432,64.345518 52.1846154,64.363227 L52.1756098,64.3722326 C49.795122,66.8337711 48.9185741,66.3114447 48.5733583,67.3500938 C48.0930582,68.7909944 51.4701689,69.9557223 51.8634146,70.0878049 L51.950469,70.1178236 L62.8652908,74.4045028 C63.383342,74.6093232 63.6383174,75.1944246 63.4356473,75.7133208 M3.1369606,37.8236398 C1.20075047,37.8236398 -4.59119922e-13,38.8652908 -4.59119922e-13,40.8795497 L-4.59119922e-13,116.595872 C-4.59119922e-13,118.796248 1.50093809,119.75985 3.1369606,119.75985 L78.8983114,119.75985 C80.9485929,119.75985 82.0502814,118.499062 82.0502814,116.595872 L82.0502814,40.9485929 C82.0502814,39.0153846 81.3538462,37.8236398 78.8983114,37.8236398 L3.1369606,37.8236398 Z" id="Fill-6"></path>
            <path d="M25.3298311,18.8727955 C23.3425891,18.8727955 22.0878049,19.9954972 22.0878049,22.0787992 L22.0878049,31.5317073 L85.2022514,31.5317073 C87.6637899,31.5317073 88.3902439,32.5523452 88.3902439,34.6686679 L88.3902439,100.824015 L97.8311445,100.824015 C99.854409,100.824015 101.007129,99.7073171 101.007129,97.6840525 L101.007129,22.0757974 C101.007129,20.2776735 99.491182,18.8697936 97.8311445,18.8697936 L25.3298311,18.8697936 L25.3298311,18.8727955 Z" id="Fill-1"></path>
            <path d="M47.3335835,0.00300187617 C45.1422139,0.00300187617 44.1395872,1.04765478 44.1395872,3.11594747 L44.1395872,12.6378987 L104.201126,12.6378987 C106.266417,12.6378987 107.323077,13.4994371 107.323077,15.7298311 L107.323077,81.963227 L116.766979,81.963227 C119.027392,81.963227 119.918949,81.0086304 119.918949,78.7512195 L119.918949,3.11294559 C119.918949,1.10769231 118.871295,2.91504712e-14 116.766979,2.91504712e-14 L47.3335835,2.91504712e-14 L47.3335835,0.00300187617 Z" id="Fill-3"></path>
        </g>
    </g>
</svg>