<svg viewBox="0 0 128 128">
    <path d="M85.5565854,96.7824747 C85.4708323,108.143934 76.0204822,117.086502 64.4193026,117.086502 C52.9108763,117.086502 43.532279,108.28387 43.2925201,97.3805339 C43.2785196,97.000708 43.2785196,96.8924243 43.2750194,96.7824747 L43.2750194,23.6260047 L43.2662691,23.0212819 C43.345022,16.3343468 49.0834846,10.9168298 56.1257454,10.9168298 C63.161006,10.9168298 68.9274695,16.364333 68.9887218,23.0112865 L68.9887218,23.6193411 L68.9887218,30.5361709 L68.9887218,36.8915914 L68.9887218,90.4670359 L68.9607208,96.6525343 L68.9887218,97.3089001 C68.8907182,99.7661072 66.8308919,101.681896 64.3055484,101.681896 C61.7994555,101.681896 59.7623801,99.7927617 59.6451257,97.3805339 C59.6427923,97.332778 59.6352087,95.0282787 59.6223749,90.4670359 L59.6223749,41.3778685 L52.3561058,41.3778685 L52.3561058,90.4670359 L52.3561058,97.1656324 C52.4558595,103.589355 57.762056,108.59706 64.3055484,108.59706 C70.8490407,108.59706 76.1569873,103.589355 76.2479907,97.3805339 C76.2538242,97.2683631 76.2561576,74.9869088 76.2549909,30.5361709 L76.2549909,23.6193411 L76.2549909,23.0112865 C76.1622375,12.4977719 67.1896552,4 56.1257454,4 C45.0128338,4 36,12.5760693 36,23.1612178 C36,23.312815 36.0192507,23.466078 36.0245009,23.6193411 L36.0087503,96.7824747 C36.0087503,97.0623464 36.0245009,97.1656324 36.026251,97.2739161 C36.2730101,112.120445 48.8804771,124 64.4193026,124 C80.1103837,124 92.8298548,111.892216 92.8298548,96.9573945 C92.8298548,96.9185235 92.8339383,70.9831883 92.8421053,19.1513889 L85.5740861,19.1513889 L85.5565854,96.7824747 Z"></path>
</svg>