<?xml version="1.0" encoding="UTF-8"?>
<svg width="128px" height="128px" viewBox="0 0 128 128" version="1.1" xmlns="http://www.w3.org/2000/svg" xmlns:xlink="http://www.w3.org/1999/xlink">
    <!-- Generator: Sketch 61.2 (89653) - https://sketch.com -->
    <title>Graphic elements / Flat icons / Bell / Black</title>
    <desc>Created with Sketch.</desc>
    <g id="Graphic-elements-/-Flat-icons-/-Bell-/-Black" >
        <g id="Group" transform="translate(16.000000, 4.000000)">
            <path d="M48,120 C52.610087,120 56.3478261,116.521565 56.3478261,111.652174 L39.6521739,111.652174 C39.6521739,116.521565 43.389913,120 48,120" id="Fill-1"></path>
            <polygon id="Fill-3" points="87.6521739 90.7826087 8.34782609 90.7826087 0 99.1304348 0 107.478261 96 107.478261 96 99.1304348"></polygon>
            <path d="M47.964313,4.17391304 C50.2651826,4.17391304 52.1382261,6.04643478 52.1382261,8.34782609 C52.1382261,10.6492174 50.2651826,12.5217391 47.964313,12.5217391 C45.6624,12.5217391 43.7904,10.6492174 43.7904,8.34782609 C43.7904,6.04643478 45.6624,4.17391304 47.964313,4.17391304 L47.964313,4.17391304 Z M87.6519652,53.2173913 L87.6394435,53.2173913 C87.3942261,32.8805217 72.9264,16.8808696 54.0744,14.0222609 C55.4585739,12.5326957 56.3121391,10.5422609 56.3121391,8.34782609 C56.3121391,3.73773913 52.5744,4.26325641e-14 47.964313,4.26325641e-14 C43.3537043,4.26325641e-14 39.616487,3.73773913 39.616487,8.34782609 C39.616487,10.5474783 40.4737043,12.5426087 41.8641391,14.0332174 C23.0418783,16.9173913 8.60535652,32.9029565 8.36066087,53.2173913 L8.34761739,53.2173913 L8.34761739,86.6086957 L87.6519652,86.6086957 L87.6519652,53.2173913 Z" id="Fill-5"></path>
        </g>
    </g>
</svg>