<?xml version="1.0" encoding="UTF-8"?>
<svg width="128px" height="128px" viewBox="0 0 128 128" version="1.1" xmlns="http://www.w3.org/2000/svg" xmlns:xlink="http://www.w3.org/1999/xlink">
    <title>Graphic elements / Icons / Flat icons / Generic / Builing Blocks</title>
    <g id="Graphic-elements-/-Icons-/-Flat-icons-/-Generic-/-Builing-Blocks" stroke="none" stroke-width="1" fill="none" fill-rule="evenodd">
        <g id="Group" transform="translate(4.000000, 13.000000)" fill="#000000" fill-rule="nonzero">
            <path d="M71.5933884,83.6429752 L47.7917355,83.6429752 L47.7917355,89.7123967 C47.7917355,89.7123967 45.8082645,93.6793388 41.7818182,101.613223 L77.6628099,101.613223 C73.6165289,93.6066116 71.5933884,89.6132231 71.5933884,89.6330579 L71.5933884,83.6429752 Z" id="Fill-1"></path>
            <path d="M119.484298,0 L119.484298,77.6727273 L0.0198347107,77.6727273 L5.19342145e-12,0 L119.484298,0 Z M113.51405,5.97024793 L6.13884298,5.97024793 L5.97024793,71.107438 L113.51405,71.692562 L113.51405,5.97024793 Z" id="Fill-3"></path>
            <rect id="Rectangle" x="35.8413223" y="11.9504132" width="23.9008264" height="11.9504132"></rect>
            <rect id="Rectangle-2" x="35.8413223" y="53.7719008" width="23.9008264" height="11.9504132"></rect>
            <rect id="Rectangle-3" x="65.7123967" y="53.7719008" width="17.9206612" height="11.9504132"></rect>
            <polygon id="Rectangle-4" points="65.7123967 11.9504132 83.6429752 11.9504132 83.6429752 47.7917355 65.7123967 47.7917355"></polygon>
            <rect id="Rectangle-5" x="35.8413223" y="29.8710744" width="23.9008264" height="17.9206612"></rect>
        </g>
    </g>
</svg>