<?xml version="1.0" encoding="UTF-8"?>
<svg width="128px" height="128px" viewBox="0 0 128 128" version="1.1" xmlns="http://www.w3.org/2000/svg" xmlns:xlink="http://www.w3.org/1999/xlink">
    <!-- Generator: Sketch 61.2 (89653) - https://sketch.com -->
    <title>Graphic elements / Flat icons / Career / Black</title>
    <desc>Created with Sketch.</desc>
    <g id="Graphic-elements-/-Flat-icons-/-Career-/-Black" >
        <path d="M76,85 L52,85 L52,73 L4,73 L4,109 C4,115.627417 9.372583,121 16,121 L112,121 C118.627417,121 124,115.627417 124,109 L124,73 L76,73 L76,85 Z M112,31 L100,31 L100,19 C100,12.372583 94.627417,7 88,7 L40,7 C33.372583,7 28,12.372583 28,19 L28,31 L16,31 C9.372583,31 4,36.372583 4,43 L4,67 L124,67 L124,43 C124,36.372583 118.627417,31 112,31 Z M88,31 L40,31 L40,19 L88,19 L88,31 Z" id="Icon-Shape" fill-rule="nonzero"></path>
    </g>
</svg>