<?xml version="1.0" encoding="UTF-8"?>
<svg width="128px" height="128px" viewBox="0 0 128 128" version="1.1" xmlns="http://www.w3.org/2000/svg" xmlns:xlink="http://www.w3.org/1999/xlink">
    <title>Graphic elements / Icons / Flat icons / Generic / Certification</title>
    <g id="Graphic-elements-/-Icons-/-Flat-icons-/-Generic-/-Certification" stroke="none" stroke-width="1">
        <g id="Page-1" transform="translate(23.000000, 9.000000)">
            <path d="M20.4273814,81.3216226 L20.4273814,108.657371 L41.2893879,98.2263673 L62.1513944,108.657371 L62.1513944,81.3216226 C55.9180007,84.6191235 48.8183991,86.4901847 41.2893879,86.4901847 C33.7603767,86.4901847 26.6607751,84.6191235 20.4273814,81.3216226" id="Fill-1"></path>
            <path d="M54.2194857,46.3485114 L57.271858,64.1451068 L41.2893879,55.7424991 L25.3069178,64.1451068 L28.3592901,46.3485114 L15.4291923,33.7448171 L33.2983702,31.1479319 L41.2893879,14.9559725 L49.2808403,31.1479319 L67.1495835,33.7448171 L54.2194857,46.3485114 Z M41.2893879,0.434277436 C18.4859109,0.434277436 0,18.9201883 0,41.7236653 C0,56.915987 8.20659181,70.1898732 20.4273814,77.3598841 C26.549511,80.9516262 33.6782325,83.0130532 41.2893879,83.0130532 C48.9005433,83.0130532 56.0292648,80.9516262 62.1513944,77.3598841 C74.3717494,70.1898732 82.5787758,56.915987 82.5787758,41.7236653 C82.5787758,18.9201883 64.0928649,0.434277436 41.2893879,0.434277436 L41.2893879,0.434277436 Z" id="Fill-4"></path>
        </g>
    </g>
</svg>