<?xml version="1.0" encoding="UTF-8"?>
<svg width="128px" height="128px" viewBox="0 0 128 128" version="1.1" xmlns="http://www.w3.org/2000/svg" xmlns:xlink="http://www.w3.org/1999/xlink">
    <title>Graphic elements / Icons / Flat icons / Generic / Clock</title>
    <g id="Graphic-elements-/-Icons-/-Flat-icons-/-Generic-/-Clock" stroke="none" stroke-width="1" fill="none" fill-rule="evenodd">
        <g id="Group-11" transform="translate(4.000000, 4.000000)" fill="#000000">
            <path d="M60,0 C26.862931,0 0,26.862931 0,60 C0,93.137069 26.862931,120 60,120 C93.137069,120 120,93.137069 120,60 C120,26.862931 93.137069,0 60,0 M60,8.27586207 C88.5206897,8.27586207 111.724138,31.4793103 111.724138,60 C111.724138,88.5206897 88.5206897,111.724138 60,111.724138 C31.4793103,111.724138 8.27586207,88.5206897 8.27586207,60 C8.27586207,31.4793103 31.4793103,8.27586207 60,8.27586207" id="Fill-1"></path>
            <path d="M99.3103448,63.9755172 C101.595517,63.9755172 103.448276,62.1227586 103.448276,59.8375862 C103.448276,57.5524138 101.595517,55.6996552 99.3103448,55.6996552 C97.0251724,55.6996552 95.1724138,57.5524138 95.1724138,59.8375862 C95.1724138,62.1227586 97.0251724,63.9755172 99.3103448,63.9755172" id="Fill-3"></path>
            <path d="M60,95.01 C57.7148276,95.01 55.862069,96.8627586 55.862069,99.147931 C55.862069,101.433103 57.7148276,103.285862 60,103.285862 C62.2851724,103.285862 64.137931,101.433103 64.137931,99.147931 C64.137931,96.8627586 62.2851724,95.01 60,95.01" id="Fill-5"></path>
            <path d="M20.6896552,55.6996552 C18.4044828,55.6996552 16.5517241,57.5524138 16.5517241,59.8375862 C16.5517241,62.1227586 18.4044828,63.9755172 20.6896552,63.9755172 C22.9748276,63.9755172 24.8275862,62.1227586 24.8275862,59.8375862 C24.8275862,57.5524138 22.9748276,55.6996552 20.6896552,55.6996552" id="Fill-7"></path>
            <path d="M60,63.9755172 C57.7148276,63.9755172 55.862069,62.1227586 55.862069,59.8375862 C55.862069,57.5524138 57.7148276,55.6996552 60,55.6996552 C62.2851724,55.6996552 64.137931,57.5524138 64.137931,59.8375862 C64.137931,62.1227586 62.2851724,63.9755172 60,63.9755172 L60,63.9755172 Z M67.9867241,61.9758621 C68.1693103,61.2925862 68.2758621,60.5782759 68.2758621,59.8375862 C68.2758621,56.7760345 66.6093103,54.1096552 64.137931,52.677931 L64.137931,19.4927586 L60,15.3548276 L55.862069,19.4927586 L55.862069,52.677931 C53.3906897,54.1096552 51.7241379,56.7760345 51.7241379,59.8375862 C51.7241379,64.407931 55.4296552,68.1134483 60,68.1134483 C60.7774138,68.1134483 61.5268966,67.9986207 62.2406897,67.797931 L77.0767241,82.5962069 L82.7586207,82.5962069 L82.7586207,76.8263793 L67.9867241,61.9758621 Z" id="Fill-9"></path>
        </g>
    </g>
</svg>