<?xml version="1.0" encoding="UTF-8"?>
<svg width="128px" height="128px" viewBox="0 0 128 128" version="1.1" xmlns="http://www.w3.org/2000/svg" xmlns:xlink="http://www.w3.org/1999/xlink">
    <title>Graphic elements / Icons / Flat icons / Generic / Cloud</title>
    <g id="Graphic-elements-/-Icons-/-Flat-icons-/-Generic-/-Cloud" stroke="none" stroke-width="1" fill="none" fill-rule="evenodd">
        <g id="Page-1" transform="translate(4.000000, 22.000000)">
            <polygon id="Clip-2" points="0.000115384615 0 119.674615 0 119.674615 83.0694231 0.000115384615 83.0694231"></polygon>
            <path d="M105.155308,37.7388462 C105.197423,37.0280769 105.262038,36.3230769 105.262038,35.6025 C105.262038,15.9380769 89.3245385,-2.84217094e-14 69.6601154,-2.84217094e-14 C55.4810769,-2.84217094e-14 43.2728077,8.30653846 37.5468462,20.3036538 C34.7712692,18.1488462 31.2918462,16.8536538 27.5072308,16.8536538 C18.4374231,16.8536538 11.0816538,24.2094231 11.0816538,33.2786538 C11.0816538,34.9828846 11.3418462,36.6248077 11.8253077,38.1703846 C4.75569231,42.3773077 0.000115384615,50.07 0.000115384615,58.8928846 C0.000115384615,72.0876923 10.5953077,82.7867308 23.7416538,82.9915385 L23.7416538,83.0042308 L24.0208846,83.0042308 C24.0531923,83.0042308 24.0855,83.0111538 24.1178077,83.0111538 C24.1506923,83.0111538 24.1795385,83.0042308 24.2124231,83.0042308 L52.7026154,83.0042308 L52.7026154,60.1223077 L29.7289615,60.1223077 L59.8374231,27.2521154 L89.9453077,60.1223077 L66.2937692,60.1223077 L66.2937692,83.0042308 L94.8197308,83.0042308 C95.2483846,83.0273077 95.6706923,83.0694231 96.1051154,83.0694231 C109.121654,83.0694231 119.674731,72.5198077 119.674731,59.5032692 C119.674731,49.6903846 113.679346,41.2863462 105.155308,37.7388462" id="Fill-1" fill="#000000"></path>
        </g>
    </g>
</svg>