<?xml version="1.0" encoding="UTF-8"?>
<svg width="128px" height="128px" viewBox="0 0 128 128" version="1.1" xmlns="http://www.w3.org/2000/svg" xmlns:xlink="http://www.w3.org/1999/xlink">
    <title>Graphic elements / Icons / Flat icons / Generic / Code</title>
    <g id="Graphic-elements-/-Icons-/-Flat-icons-/-Generic-/-Code" stroke="none" stroke-width="1">
        <g id="Group" transform="translate(4.000000, 13.000000)">
            <polygon id="Rectangle-3-2" transform="translate(59.917355, 51.090909) rotate(-5.000000) translate(-59.917355, -51.090909) " points="42.6446281 97.6259467 67.8185717 2 77.1900826 4.55587149 52.016139 100.181818"></polygon>
            <g id="Group-4" transform="translate(20.500000, 51.016529) scale(-1, 1) translate(-20.500000, -51.016529) translate(0.000000, 18.016529)">
                <polygon id="Rectangle-3-2" transform="translate(20.227398, 45.754338) rotate(135.000000) translate(-20.227398, -45.754338) " points="-2.96972638 40.8402128 43.4547956 40.6992352 43.424522 50.6684634 -3 50.8094411"></polygon>
                <polygon id="Rectangle-3-3" transform="translate(20.229902, 20.055103) rotate(-135.000000) translate(-20.229902, -20.055103) " points="-2.99749611 15 43.4270259 15.1409776 43.4572995 25.1102059 -2.9672225 24.9692282"></polygon>
            </g>
            <g id="Group-4" transform="translate(79.000000, 18.016529)">
                <polygon id="Rectangle-3-2" transform="translate(20.227398, 45.754338) rotate(135.000000) translate(-20.227398, -45.754338) " points="-2.96972638 40.8402128 43.4547956 40.6992352 43.424522 50.6684634 -3 50.8094411"></polygon>
                <polygon id="Rectangle-3-3" transform="translate(20.229902, 20.055103) rotate(-135.000000) translate(-20.229902, -20.055103) " points="-2.99749611 15 43.4270259 15.1409776 43.4572995 25.1102059 -2.9672225 24.9692282"></polygon>
            </g>
        </g>
    </g>
</svg>