<?xml version="1.0" encoding="UTF-8"?>
<svg width="128px" height="128px" viewBox="0 0 128 128" version="1.1" xmlns="http://www.w3.org/2000/svg" xmlns:xlink="http://www.w3.org/1999/xlink">
    <title>Graphic elements / Icons / Flat icons / Generic / Conference</title>
    <defs>
        <polygon id="path-1" points="-0.000148148148 0.000197530864 90.7756528 0.000197530864 90.7756528 69.6296296 -0.000148148148 69.6296296"></polygon>
    </defs>
    <g id="Graphic-elements-/-Icons-/-Flat-icons-/-Generic-/-Conference" stroke="none" stroke-width="1" fill="none" fill-rule="evenodd">
        <g id="Group-6" transform="translate(8.000000, 4.000000)">
            <g id="Group-3" transform="translate(2.962963, 50.370370)">
                <mask id="mask-2" fill="white">
                    <use xlink:href="#path-1"></use>
                </mask>
                <g id="Clip-2"></g>
                <path d="M25.9830617,30.4243951 C17.5949136,30.4243951 10.770716,23.6001975 10.770716,15.2115556 C10.770716,6.82390123 17.5949136,0.000197530864 25.9830617,0.000197530864 C34.370716,0.000197530864 41.1949136,6.82390123 41.1949136,15.2115556 C41.1949136,23.6001975 34.370716,30.4243951 25.9830617,30.4243951 L25.9830617,30.4243951 Z M-0.000148148148,69.6298272 L-0.000148148148,45.6001975 C-0.000148148148,41.4367407 0.775654321,39.1315556 3.07441975,36.4648889 C5.34997531,33.8263704 8.61565432,32.3127901 12.0354074,32.3127901 L18.2813333,32.3127901 L25.9830617,43.3898272 L33.6842963,32.3127901 L38.1845432,32.3127901 C42.9287407,32.3127901 47.2749136,34.9053827 49.5267654,39.0801975 L54.5904691,48.4698272 L62.0986173,48.4698272 C62.7287407,48.4698272 63.3405926,48.5483457 63.9277531,48.7053827 L86.3361481,32.7834074 C86.7781235,32.473284 87.2872593,32.3122963 87.8171358,32.3122963 C88.0131852,32.3122963 88.2102222,32.3345185 88.4028148,32.3799506 C89.1055309,32.5384691 89.7173827,33.0026667 90.0734321,33.6476049 L90.4675062,34.3720494 C91.0388642,35.4505679 90.7978765,36.7443951 89.8921975,37.5345185 L69.2176296,55.298963 C69.2275062,55.3952593 69.2334321,55.4964938 69.2334321,55.6036543 C69.2334321,59.5369877 66.0319506,62.7369877 62.0986173,62.7369877 L50.2181235,62.7369877 C47.5292346,62.7369877 45.1060247,61.2555062 43.8729383,58.8643951 L41.1949136,54.4599506 L41.1949136,69.6298272 L-0.000148148148,69.6298272 Z" id="Fill-1" fill="#000000" mask="url(#mask-2)"></path>
            </g>
            <path d="M0,0 L0,69.6024691 L12.2380247,69.6024691 C11.9274074,68.3120988 11.7585185,66.9664198 11.7585185,65.5822222 C11.7585185,64.2474074 11.9160494,62.9496296 12.2054321,61.7012346 L7.90123457,61.7012346 L7.90123457,7.90123457 L104.691358,7.90123457 L104.691358,61.7012346 L65.7604938,61.7012346 L47.9012346,61.7012346 L45.6859259,61.7012346 C45.9753086,62.9496296 46.1328395,64.2474074 46.1328395,65.5822222 C46.1328395,66.9664198 45.9639506,68.3120988 45.6533333,69.6024691 L47.9012346,69.6024691 L65.7604938,69.6024691 L112.592593,69.6024691 L112.592593,0 L0,0 Z" id="Fill-4" fill="#000000"></path>
        </g>
    </g>
</svg>