<?xml version="1.0" encoding="UTF-8"?>
<svg width="128px" height="128px" viewBox="0 0 128 128" version="1.1" xmlns="http://www.w3.org/2000/svg" xmlns:xlink="http://www.w3.org/1999/xlink">
    <!-- Generator: Sketch 61.2 (89653) - https://sketch.com -->
    <title>Graphic elements / Flat icons / Demo / Black</title>
    <desc>Created with Sketch.</desc>
    <g id="Graphic-elements-/-Flat-icons-/-Demo-/-Black" stroke="none" stroke-width="1" fill="none" fill-rule="evenodd">
        <g id="Page-1" transform="translate(4.000000, 12.000000)" fill="unset">
            <path d="M119.726261,37.1533333 L119.726261,70.0715942 L90.4653913,59.8089855 L90.4653913,37.1533333 L119.726261,37.1533333 Z M50.6381449,37.1533333 L50.6381449,59.8089855 L34.2450472,65.5594596 C36.0064617,63.2107653 37.0510145,60.2950038 37.0510145,57.1401739 C37.0510145,49.3871304 30.7431884,43.0798841 22.9901449,43.0798841 C22.4445783,43.0798841 21.9061678,43.1111154 21.3766079,43.1718842 L21.3766957,37.1533333 L50.6381449,37.1533333 Z M86.8075362,37.1530435 L86.8075362,59.9118841 L54.2956522,59.9118841 L54.2956522,37.1530435 L86.8075362,37.1530435 Z M86.8075362,10.7373913 L86.8075362,33.4962319 L54.2956522,33.4962319 L54.2956522,10.7373913 L86.8075362,10.7373913 Z M119.726261,0.579362319 L119.726261,33.4958841 L90.4653913,33.4958841 L90.4653913,10.8425507 L119.726261,0.579362319 Z M21.3766957,0.57942029 L50.6381449,10.8426087 L50.6381449,33.495942 L21.3766957,33.495942 L21.3766957,0.57942029 Z" id="Combined-Shape"></path>
            <g id="Group-11" transform="translate(0.000000, 44.834203)">
                <path d="M21.5408696,25.7684069 C14.5866667,25.7684069 8.92927536,20.1110156 8.92927536,13.1568127 C8.92927536,6.20318947 14.5866667,0.54579817 21.5408696,0.54579817 C28.4944928,0.54579817 34.1518841,6.20318947 34.1518841,13.1568127 C34.1518841,20.1110156 28.4944928,25.7684069 21.5408696,25.7684069 L21.5408696,25.7684069 Z M0,58.2710156 L0,38.3498561 C0,34.8982619 0.642898551,32.9869576 2.54898551,30.7765228 C4.43536232,28.5886967 7.1426087,27.334204 9.97797101,27.334204 L15.155942,27.334204 L21.5408696,36.5173924 L27.9252174,27.334204 L31.6562319,27.334204 C35.5895652,27.334204 39.1924638,29.4837692 41.0591304,32.9446387 L45.2573913,40.7289866 L51.4817391,40.7289866 C52.004058,40.7289866 52.5113043,40.7939141 52.9982609,40.9237692 L71.5756522,27.7243489 C71.942029,27.4675373 72.364058,27.3336243 72.8034783,27.3336243 C72.9657971,27.3336243 73.1292754,27.352175 73.2886957,27.3898561 C73.8713043,27.5214503 74.3785507,27.9057982 74.6736232,28.4408706 L75.0005797,29.0414503 C75.4742029,29.9353634 75.2742029,31.0078272 74.5234783,31.6634793 L57.3837681,46.3904359 C57.3918841,46.4704359 57.3965217,46.5544938 57.3965217,46.6431895 C57.3965217,49.904059 54.7426087,52.5568127 51.4817391,52.5568127 L41.6324638,52.5568127 C39.4034783,52.5568127 37.3942029,51.3284069 36.3721739,49.3463779 L34.1518841,45.6947837 L34.1518841,58.2710156 L0,58.2710156 Z" id="Fill-7"></path>
            </g>
        </g>
    </g>
</svg>