<?xml version="1.0" encoding="UTF-8"?>
<svg width="128px" height="128px" viewBox="0 0 128 128" version="1.1" xmlns="http://www.w3.org/2000/svg" xmlns:xlink="http://www.w3.org/1999/xlink">
    <title>Graphic elements / Icons / Flat icons / Generic / Deployment</title>
    <g id="Graphic-elements-/-Icons-/-Flat-icons-/-Generic-/-Deployment" stroke="none" stroke-width="1" fill="none" fill-rule="evenodd">
        <g id="Deployment" transform="translate(4.000000, 4.000000)" fill="#000000" fill-rule="nonzero">
            <polygon id="Fill-1" points="15.66 110.01 20.26 114.6 36.59 98.27 32 93.67"></polygon>
            <polygon id="Fill-2" points="11.71 93.18 16.37 97.84 26.27 87.94 21.61 83.28"></polygon>
            <polygon id="Fill-3" points="0.6 104.28 5.27 108.95 11.28 102.94 6.61 98.27"></polygon>
            <g id="Group-10">
                <g id="Group-6" transform="translate(86.000000, 0.000000)">
                    <path d="M29.77,32.99 C33.77,20.76 34.65,2.99 32.6,0.89 C30.76,-0.95 13.08,0.04 0.92,4.28 L29.7,33.06 L29.77,32.99 Z" id="Fill-4"></path>
                </g>
                <g id="Group-9" transform="translate(0.000000, 8.000000)">
                    <path d="M74.53,37.35 C71.8956632,34.720017 71.1057602,30.7617397 72.5288532,27.3220672 C73.9519461,23.8823946 77.3075625,21.6392397 81.03,21.6392397 C84.7524375,21.6392397 88.1080539,23.8823946 89.5311468,27.3220672 C90.9542398,30.7617397 90.1643368,34.720017 87.53,37.35 C85.8090206,39.0794137 83.4698036,40.0517004 81.03,40.0517004 C78.5901964,40.0517004 76.2509794,39.0794137 74.53,37.35 M78.7,67.26 L76.58,62.17 C90.44,51 101,44.7 110.88,34.94 C111.387313,34.4088759 111.858374,33.8442714 112.29,33.25 L79.29,0.25 C78.8266993,0.579439321 78.3948602,0.951021786 78,1.36 C67.67,11.82 62.3,21.3 50.35,35.65 L44.69,33.25 C37.55,30.63 31.47,28.25 26.45,33.25 L0,59.69 L25.88,65.21 L25.88,65.21 L46.74,86.07 L46.74,86.07 L52.26,111.94 L78.7,85.5 C83.7,80.5 81.32,74.4 78.7,67.26" id="Fill-7"></path>
                </g>
            </g>
        </g>
    </g>
</svg>