<?xml version="1.0" encoding="UTF-8"?>
<svg width="128px" height="128px" viewBox="0 0 128 128" version="1.1" xmlns="http://www.w3.org/2000/svg" xmlns:xlink="http://www.w3.org/1999/xlink">
    <title>Graphic elements / Icons / Flat icons / Generic / Design</title>
    <g id="Graphic-elements-/-Icons-/-Flat-icons-/-Generic-/-Design" stroke="none" stroke-width="1">
        <g id="Design" transform="translate(4.000000, 4.000000)">
            <polygon id="Fill-1" points="38.8760331 20.6280992 29.2561983 30.6446281 32.0330579 33.5206612 41.6528926 23.5041322"></polygon>
            <path d="M34.3140496,106.214876 L13.3884298,85.2892562 L98.677686,0 L119.702479,21.0247934 L34.3140496,106.214876 Z M20.231405,85.2892562 L34.3140496,99.3719008 L112.661157,21.0247934 L98.5785124,6.94214876 L20.231405,85.2892562 Z" id="Shape"></path>
            <path d="M11.8016529,96.0991736 L23.4049587,107.702479 L6.6446281,112.859504 L11.0082645,98.8760331 L11.8016529,96.0991736 M9.91735537,88.5619835 L7.14049587,97.6859504 L0.595041322,118.809917 L24.6942149,111.371901 L30.9421488,109.487603 L9.91735537,88.5619835 L9.91735537,88.5619835 Z" id="Shape"></path>
            <polygon id="Path" points="5.05785124 104.429752 0.595041322 119.008264 15.3719008 114.446281"></polygon>
            <polygon id="Path" points="90.8429752 116.826446 60.6942149 86.677686 64.1652893 83.2066116 90.8429752 109.884298 109.090909 91.6363636 82.4132231 64.9586777 85.8842975 61.4876033 115.933884 91.6363636"></polygon>
            <polygon id="Path" points="32.8264463 58.8099174 1.09090909 27.0743802 26.2809917 1.98347107 58.0165289 33.7190083 54.5454545 37.0909091 26.2809917 8.82644628 8.03305785 27.0743802 36.2975207 55.4380165"></polygon>
            <polygon id="Fill-10" points="93.2231405 75.0743802 83.4049587 84.892562 86.2809917 87.768595 95.9008264 77.8512397"></polygon>
        </g>
    </g>
</svg>