<?xml version="1.0" encoding="UTF-8"?>
<svg width="128px" height="128px" viewBox="0 0 128 128" version="1.1" xmlns="http://www.w3.org/2000/svg" xmlns:xlink="http://www.w3.org/1999/xlink">
    <title>Graphic elements / Icons / Flat icons / Generic / Detection and Intrusion</title>
    <g id="Graphic-elements-/-Icons-/-Flat-icons-/-Generic-/-Detection-and-Intrusion" stroke="none" stroke-width="1" fill="none" fill-rule="evenodd">
        <g id="Detection-and-instrusion" transform="translate(4.000000, 28.000000)" fill="#000000" fill-rule="nonzero">
            <path d="M71.5338843,0.952066116 L47.9305785,0.952066116 C42.6743802,0.952066116 38.3702479,5.71239669 38.3702479,11.5338843 L38.3702479,61.7355372 C38.3702479,67.5471074 42.6743802,72.317599 47.9305785,72.317599 L71.5338843,72.317599 C76.8,72.3570248 81.1041322,67.5471074 81.1041322,61.7355372 L81.1041322,11.5735537 C81.1041322,5.75206612 76.8,0.952066116 71.5338843,0.952066116 M59.7322314,19.190098 C58.4236866,19.1940966 57.241756,18.4089374 56.7382138,17.2011498 C56.2346717,15.9933621 56.5088251,14.6011428 57.4326879,13.6744373 C58.3565508,12.7477317 59.7479213,12.4693025 60.9572502,12.9691317 C62.1665791,13.468961 62.9553872,14.6484738 62.9553872,15.9570248 C62.9580074,16.8135718 62.6195914,17.6359403 62.0148494,18.242543 C61.4101074,18.8491458 60.5887825,19.190098 59.7322314,19.190098 M72.2578512,51.6694215 L47.2066116,51.6694215 C46.0773366,51.5926285 45.200553,50.654197 45.200553,49.522314 C45.200553,48.3904311 46.0773366,47.4519996 47.2066116,47.3752066 L72.2578512,47.3752066 C73.3871262,47.4519996 74.2639098,48.3904311 74.2639098,49.522314 C74.2639098,50.654197 73.3871262,51.5926285 72.2578512,51.6694215 M72.2578512,41.246281 L47.2066116,41.246281 C46.0773366,41.169488 45.200553,40.2310565 45.200553,39.0991736 C45.200553,37.9672906 46.0773366,37.0288591 47.2066116,36.9520661 L72.2578512,36.9520661 C73.3871262,37.0288591 74.2639098,37.9672906 74.2639098,39.0991736 C74.2639098,40.2310565 73.3871262,41.169488 72.2578512,41.246281 M72.2578512,30.8330579 L47.2066116,30.8330579 C46.0773366,30.7562649 45.200553,29.8178334 45.200553,28.6859504 C45.200553,27.5540675 46.0773366,26.6156359 47.2066116,26.538843 L72.2578512,26.538843 C73.3871262,26.6156359 74.2639098,27.5540675 74.2639098,28.6859504 C74.2639098,29.8178334 73.3871262,30.7562649 72.2578512,30.8330579" id="Shape"></path>
            <path d="M4.94876033,59.6826446 C-1.84027903,44.882808 -1.6291459,27.8174268 5.52396694,13.1900826 L10.8694215,15.8280992 C4.50077849,28.8367465 4.30783794,44.0171632 10.3438017,57.1834711 L4.94876033,59.6826446 Z" id="Path"></path>
            <path d="M18.307438,50.7272727 C15.7166017,41.0665963 15.8608074,30.8760593 18.7239669,21.292562 L24.4264463,22.9884298 C21.8791252,31.515859 21.748663,40.5829771 24.0495868,49.1801653 L18.307438,50.7272727 Z" id="Path"></path>
            <path d="M114.327273,59.6628099 L108.932231,57.153719 C114.968195,43.9874112 114.775255,28.8069945 108.406612,15.7983471 L113.752066,13.1702479 C120.905179,27.7975921 121.116312,44.8629733 114.327273,59.6628099 L114.327273,59.6628099 Z" id="Path"></path>
            <path d="M100.938843,50.707438 L95.1966942,49.1603306 C97.4976179,40.5631424 97.3671558,31.4960243 94.8198347,22.968595 L100.522314,21.2727273 C103.385474,30.8562246 103.529679,41.0467615 100.938843,50.707438 L100.938843,50.707438 Z" id="Path"></path>
        </g>
    </g>
</svg>