<?xml version="1.0" encoding="UTF-8"?>
<svg width="128px" height="128px" viewBox="0 0 128 128" version="1.1" xmlns="http://www.w3.org/2000/svg" xmlns:xlink="http://www.w3.org/1999/xlink">
    <title>Graphic elements / Icons / Flat icons / Generic / Deterrence Technology</title>
    <g id="Graphic-elements-/-Icons-/-Flat-icons-/-Generic-/-Deterrence-Technology" stroke="none" stroke-width="1">
        <g id="Deterrence-technology" transform="translate(4.000000, 23.000000)">
            <path d="M51.3,61 C50.8,61 50.3,60.9 49.8,60.7 C48.1,59.9 47.5,58 48.3,56.3 L65.6,21.8 C66.4,20.2 68.4,19.5 70.1,20.3 C71.8,21.1 72.4,23 71.6,24.7 L54.3,59.2 C53.8,60.3 52.6,61 51.3,61" id="Fill-1"></path>
            <path d="M39.8,30 C38.6,30 37.5,29.3 36.9,28.1 L24,0 L31.3,0.6 L42.7,25.4 C43.4,27 42.8,28.9 41.2,29.7 C40.7,29.9 40.3,30 39.8,30" id="Fill-3"></path>
            <g id="Group-7" transform="translate(77.000000, 52.000000)">
                <path d="M3.5,0.3 C4.7,0.3 5.8,1 6.3,2.2 L18.8,30.7 L11.8,30.1 L0.8,4.9 C0,3.3 0.7,1.4 2.2,0.6 C2.7,0.4 3.1,0.3 3.5,0.3" id="Fill-5"></path>
            </g>
            <path d="M64.3,55.4 L89.8,4 L94,10 L70.1,58.2 C69.3,59.8 67.4,60.4 65.8,59.7 C65.4,59.5 65,59.2 64.7,58.8 C64,57.9 63.8,56.6 64.3,55.4 Z" id="Fill-8"></path>
            <path d="M54.9,21 C53.7,21 52.5,21.6 51.9,22.7 L26,74 L33.4,73.6 L57.6,25.6 C58.4,24 57.8,22.1 56.2,21.3 C55.8,21.1 55.3,21 54.9,21" id="Fill-10"></path>
            <polygon id="Fill-12" points="33.5 43 0 43 0 37 37 37"></polygon>
            <polygon id="Fill-14" points="120 43 86 43 89.5 37 120 37"></polygon>
        </g>
    </g>
</svg>