<?xml version="1.0" encoding="UTF-8"?>
<svg width="128px" height="128px" viewBox="0 0 128 128" version="1.1" xmlns="http://www.w3.org/2000/svg" xmlns:xlink="http://www.w3.org/1999/xlink">
    <title>Graphic elements / Icons / Flat icons / Generic / E-learning</title>
    <defs>
        <polygon id="path-1" points="0.214652174 0.293217391 67.5655217 0.293217391 67.5655217 20 0.214652174 20"></polygon>
        <polygon id="path-3" points="0.397086957 0.33373913 15.1708696 0.33373913 15.1708696 79.8011304 0.397086957 79.8011304"></polygon>
    </defs>
    <g id="Graphic-elements-/-Icons-/-Flat-icons-/-Generic-/-E-learning" stroke="none" stroke-width="1">
        <g id="Group-13" transform="translate(4.000000, 9.000000)">
            <g id="Group-3" transform="translate(26.086957, 90.496957)">
                <mask id="mask-2">
                    <use xlink:href="#path-1"></use>
                </mask>
                <g id="Clip-2"></g>
                <path d="M61.4816087,13.7784348 L47.142913,13.7784348 L47.142913,0.293217391 L20.6372609,0.293217391 L20.6372609,13.7784348 L6.29813043,13.7784348 C2.93813043,13.7784348 0.214652174,16.5632174 0.214652174,20.0001739 L67.5655217,20.0001739 C67.5655217,16.5632174 64.8411739,13.7784348 61.4816087,13.7784348" id="Fill-1" mask="url(#mask-2)"></path>
            </g>
            <path d="M90.4551739,0.000173913043 C72.1912609,0.000173913043 63.6312609,3.51278261 59.976913,5.81582609 C56.3225652,3.51278261 47.7621304,0.000173913043 29.4986522,0.000173913043 L12.166913,0.000173913043 L12.166913,75.6801739 L107.786043,75.6801739 L107.786043,0.000173913043 L90.4551739,0.000173913043 Z M102.572565,70.348 L17.3808261,70.348 L17.3808261,5.33234783 L29.4986522,5.33234783 C47.8147391,5.33234783 54.7734348,8.78713043 58.3234348,11.011913 L58.3234348,66.7727826 L61.6295217,66.7727826 L61.6295217,11.0049565 C65.0995217,8.81973913 72.1099565,5.33234783 90.4551739,5.33234783 L102.572565,5.33234783 L102.572565,70.348 Z" id="Fill-4"></path>
            <polygon id="Fill-6" points="90.1702609 81.0132609 90.1702609 96.0684783 96.3711304 93.1380435 102.57287 96.0684783 102.57287 81.0132609"></polygon>
            <g id="Group-10" transform="translate(104.782609, 8.323043)">
                <mask id="mask-4">
                    <use xlink:href="#path-3"></use>
                </mask>
                <g id="Clip-9"></g>
                <polygon id="Fill-8" mask="url(#mask-4)" points="6.04534783 0.33373913 6.04534783 7.44417391 8.21795652 7.44417391 8.21795652 72.6902609 0.397086957 72.6902609 0.397086957 79.8011304 15.171 79.8011304 15.171 0.33373913"></polygon>
            </g>
            <polygon id="Fill-11" points="0 8.65678261 0 88.1241739 87.5634783 88.1241739 87.5634783 81.0133043 6.95304348 81.0133043 6.95304348 15.7672174 9.12565217 15.7672174 9.12565217 8.65678261"></polygon>
        </g>
    </g>
</svg>