<?xml version="1.0" encoding="UTF-8"?>
<svg width="128px" height="128px" viewBox="0 0 128 128" version="1.1" xmlns="http://www.w3.org/2000/svg" xmlns:xlink="http://www.w3.org/1999/xlink">
    <!-- Generator: Sketch 61.2 (89653) - https://sketch.com -->
    <title>Graphic elements / Flat icons / Extend / Black</title>
    <desc>Created with Sketch.</desc>
    <g id="Graphic-elements-/-Flat-icons-/-Extend-/-Black" stroke="none" stroke-width="1" fill="none" fill-rule="evenodd">
        <g id="Page-1" transform="translate(4.000000, 4.000000)" fill="unset">
            <path d="M0,120 L64.8,120 L64.8,55.2 L0,55.2 L0,120 Z M9.6,110.4 L55.2,110.4 L55.2,64.8 L9.6,64.8 L9.6,110.4 Z" id="Fill-1"></path>
            <polygon id="Fill-2" points="9.60012 0.00012 9.60012 50.40012 19.20012 50.40012 19.20012 9.60012 110.39952 9.60012 110.39952 100.79952 69.60012 100.79952 69.60012 110.40012 120.00012 110.40012 120.00012 0.00012"></polygon>
            <polygon id="Fill-3" points="73.93596 49.45548 91.19976 32.38788 91.19976 38.99988 95.99976 38.99988 95.99976 23.99988 80.99976 23.99988 80.99976 28.79988 87.50976 28.79988 70.39356 46.01268"></polygon>
        </g>
    </g>
</svg>