<?xml version="1.0" encoding="UTF-8"?>
<svg width="128px" height="128px" viewBox="0 0 128 128" version="1.1" xmlns="http://www.w3.org/2000/svg" xmlns:xlink="http://www.w3.org/1999/xlink">
    <title>Graphic elements / Icons / Flat icons / Generic / Find Resource</title>
    <g id="Graphic-elements-/-Icons-/-Flat-icons-/-Generic-/-Find-Resource" stroke="none" stroke-width="1" fill="none" fill-rule="evenodd">
        <g id="find-resource" transform="translate(16.000000, 4.000000)" fill="#000000" fill-rule="nonzero">
            <path d="M12.892562,105.123967 L47.8413223,105.123967 L47.8413223,97.8049587 L12.892562,97.8049587 L12.892562,105.123967 Z M12.892562,90.9719008 L68.846281,90.9719008 L68.846281,84 L12.892562,84 L12.892562,90.9719008 Z M76.8,66.9818182 L82.8495868,72.307438 L82.8495868,119.008264 L0.0495867769,119.008264 L0.0495867769,7.67603306 L25.7157025,7.67603306 C19.3485653,15.0549698 15.920672,24.5196269 16.0859504,34.2644628 C16.0859504,57.461157 33.8380165,72.9421488 56.4,72.9421488 C63.6247059,72.9098939 70.6943899,70.8443226 76.8,66.9818182 Z" id="Fill-1"></path>
            <path d="M55.4280992,57.3619835 C45.4096677,57.4463776 36.3306905,51.4763794 32.4381836,42.2446687 C28.5456766,33.012958 30.609238,22.3447614 37.663563,15.2305088 C44.7178881,8.11625619 55.3682472,5.96252575 64.6325546,9.77680181 C73.8968619,13.5910779 79.9439026,22.6192296 79.9439026,32.6380165 C79.9822815,46.2273793 69.0173013,57.2855087 55.4280992,57.3619835 Z M81.1239669,52.4628099 C90.1730203,40.5011206 89.7973583,23.8840546 80.2169901,12.3435207 C70.636622,0.802986762 54.3724939,-2.62427753 40.9498138,4.06893074 C27.5271338,10.762139 20.477901,25.8145914 23.9305513,40.4107067 C27.3832017,55.006822 40.4292162,65.3058272 55.4280992,65.2760331 C62.7872457,65.2787308 69.9234741,62.7505872 75.6396694,58.1157025 L90.3371901,72.9421488 L95.8909091,67.3487603 L81.1239669,52.4628099 Z" id="Fill-3"></path>
        </g>
    </g>
</svg>