<?xml version="1.0" encoding="UTF-8"?>
<svg width="128px" height="128px" viewBox="0 0 128 128" version="1.1" xmlns="http://www.w3.org/2000/svg" xmlns:xlink="http://www.w3.org/1999/xlink">
    <title>Graphic elements / Icons / Flat icons / Generic / Global</title>
    <g id="Graphic-elements-/-Icons-/-Flat-icons-/-Generic-/-Global" stroke="none" stroke-width="1" fill="none" fill-rule="evenodd">
        <path d="M104.995517,95.3727586 C104.642759,95.8227586 104.129655,96.1631034 103.859655,96.1403448 C103.589655,96.1186207 103.370345,96.1010345 103.370345,96.1010345 C102.637931,96.04 101.995517,95.5558621 101.746207,94.8575862 L97.5731034,83.4431034 C97.4210345,83.0282759 97.4210345,82.5586207 97.5803448,82.1375862 L99.28,77.5289655 C99.4465517,77.0665517 99.4393103,76.5606897 99.2396552,76.1189655 L96.8075862,70.4748276 C96.6762069,70.1634483 96.6286207,69.8251724 96.67,69.4931034 L96.9844828,66.9441379 C97.0744828,66.1631034 96.697931,65.4162069 96.007931,65.0437931 L93.247931,63.5168966 C92.8537931,63.3017241 92.4182759,63.2262069 91.99,63.3089655 L84.8996552,64.6837931 C84.3327586,64.7944828 83.8196552,64.6424138 83.3841379,64.2627586 L78.8210345,60.1858621 C78.4,59.8268966 78.4827586,59.3024138 78.4827586,58.7489655 L78.4827586,50.3127586 C78.4827586,49.8906897 78.3027586,49.4768966 78.5582759,49.1448276 L84.0658621,41.6551724 C84.3141379,41.3375862 84.6451724,41.11 85.032069,40.9982759 L90.1103448,39.52 C90.1806897,39.4993103 90.2417241,39.4858621 90.3048276,39.4724138 L94.7189655,38.6768966 C95.2103448,38.5868966 95.7068966,38.7048276 96.1010345,39.0027586 C96.4951724,39.2996552 96.757931,39.7475862 96.8065517,40.2389655 C96.882069,40.8813793 97.2762069,41.4275862 97.8627586,41.6893103 L101.504138,43.2793103 C102.31931,43.6382759 103.265862,43.3827586 103.798621,42.6782759 L103.895862,42.5468966 C104.365517,41.9034483 105.187931,41.6282759 105.947241,41.8486207 L109.547241,42.8851724 C109.927931,42.9948276 110.334483,42.9813793 110.706897,42.8510345 L110.927241,42.7734483 C111.04931,42.732069 111.34,43.1189655 111.565517,43.6444828 C114.241724,49.8917241 115.724138,56.7731034 115.724138,64 C115.724138,72.4217241 113.71,80.3737931 110.138966,87.4010345 C108.664828,90.22 106.942414,92.8889655 104.995517,95.3727586 L104.995517,95.3727586 Z M78.0958621,34.6144828 L78.552069,32.3065517 C78.8003448,31.1044828 79.8782759,30.2624138 81.0948276,30.31 L83.4917241,30.4134483 C84.5903448,30.4693103 85.572069,29.7296552 85.8410345,28.6662069 C85.9858621,28.057931 85.8886207,27.4155172 85.5503448,26.8827586 C84.907931,25.8606897 85.1634483,24.52 86.1441379,23.8010345 L89.9862069,21.01 C90.3462069,20.7472414 90.7744828,20.587931 91.21,20.5475862 L91.5844828,20.5134483 C91.7924138,20.4937931 92.35,20.7286207 92.8237931,21.0462069 C98.4482759,24.8282759 103.288621,29.6841379 107.05,35.32 C107.367586,35.7948276 107.211379,36.1672414 106.709655,36.1455172 C106.403448,36.1310345 106.083793,36.1186207 105.802414,36.1072414 C105.380345,36.0855172 104.95931,36.1755172 104.579655,36.3627586 L101.186552,38.0562069 C100.778966,38.2558621 100.316552,38.3044828 99.8675862,38.1937931 C99.342069,38.0624138 98.8858621,37.7034483 98.6375862,37.2193103 C98.3810345,36.7289655 98.3541379,36.162069 98.5537931,35.6437931 L98.7410345,35.1606897 C99.127931,34.1727586 98.8372414,33.0462069 98.022069,32.3624138 L96.6193103,31.1872414 C96.1982759,30.8272414 95.6655172,30.6275862 95.1131034,30.6068966 L93.31,30.5375862 C92.6882759,30.5106897 92.0810345,30.7175862 91.6103448,31.1189655 L84.28,37.302069 C83.7337931,37.7644828 83.0293103,37.9651724 82.3310345,37.8689655 L80.1751724,37.5575862 C79.5048276,37.4613793 78.8965517,37.087931 78.5034483,36.5355172 C78.1093103,35.9831034 77.9572414,35.2848276 78.0958621,34.6144828 L78.0958621,34.6144828 Z M74.2331034,16.5803448 L68.6013793,21.1941379 C68.0975862,21.6162069 67.4137931,21.6896552 66.7848276,21.4817241 L65.6717241,21.0896552 C64.8296552,20.8217241 64.2906897,19.9827586 64.3734483,19.0993103 L64.8710345,13.4562069 C64.8824138,13.3351724 64.7644828,13.1127586 64.5658621,12.8396552 C64.3424138,12.5282759 64.5989655,12.2924138 65.17,12.3058621 C70.272069,12.4196552 75.19,13.2824138 79.8234483,14.7710345 C80.3675862,14.9458621 80.767931,15.1403448 80.7213793,15.1941379 C80.6758621,15.2489655 80.6375862,15.5510345 80.6375862,15.5510345 C80.2786207,15.9234483 79.7882759,16.4137931 79.27,16.4137931 L75.4631034,16.4137931 C75.0068966,16.4137931 74.5786207,16.2906897 74.2331034,16.5803448 L74.2331034,16.5803448 Z M66.0689655,75.6141379 C66.0689655,76.3268966 65.8641379,77.0241379 65.5744828,77.6665517 L61.5544828,86.3241379 C61.5131034,86.4286207 61.4510345,86.532069 61.3817241,86.6282759 C61.3817241,86.6282759 57.3193103,92.3965517 55.7644828,94.6062069 C55.4355172,95.0727586 54.907931,95.8331034 54.5831034,96.3037931 L51.8055172,100.337241 C51.612069,100.619655 51.5013793,100.931034 51.4734483,101.26931 L51.1827586,104.882759 C51.1558621,105.214828 51.217931,105.539655 51.3555172,105.836552 L53.2072414,109.802759 C53.3737931,110.148276 53.3117241,110.548621 53.0696552,110.838276 L52.9931034,110.92931 C52.6962069,111.273793 52.1924138,111.363793 51.7837931,111.128966 L45.8075862,107.735862 C45.4,107.502069 45.0896552,107.128621 44.9375862,106.693103 L42.312069,98.8382759 C42.2634483,98.677931 42.2293103,98.5196552 42.222069,98.3603448 L41.3034483,84.1206897 C41.262069,83.5258621 40.9372414,82.9734483 40.4324138,82.6486207 L37.1851724,80.562069 C36.8055172,80.3127586 36.522069,79.9331034 36.3968966,79.5048276 L33.82,70.7924138 C33.6751724,70.3155172 33.73,69.8034483 33.9586207,69.367931 L34.87,67.6351724 C35.14,67.1303448 35.1606897,66.5293103 34.9393103,66.0037931 C34.717931,65.4793103 34.2689655,65.077931 33.7237931,64.9196552 L32.68,64.6217241 C32.3065517,64.512069 31.9755172,64.2906897 31.7262069,63.9865517 L28.7965517,60.3317241 C28.5751724,60.0617241 28.2855172,59.8548276 27.9534483,59.7306897 L22.7717241,57.8717241 C22.572069,57.8024138 22.392069,57.6989655 22.2327586,57.5675862 L16.5606897,53.0562069 C16.207931,52.7789655 15.9731034,52.3848276 15.8831034,51.9368966 L15.2013793,48.4889655 C15.0906897,47.9282759 15.1434483,47.0324138 15.3317241,46.4934483 C15.5065517,45.9906897 15.6896552,45.49 15.88,44.9944828 C21.1775862,31.5937931 31.9113793,20.9355172 45.3617241,15.7372414 C45.8955172,15.5303448 46.6031034,15.552069 46.8213793,15.8717241 C46.9527586,16.0641379 47.047931,16.2803448 47.0996552,16.512069 C47.2103448,17.0717241 47.0789655,17.6582759 46.7065517,18.1144828 L46.1324138,18.8262069 C45.9668966,19.0268966 45.76,19.1924138 45.5313793,19.3165517 L41.4068966,21.4444828 C40.7572414,21.7703448 40.3631034,22.4541379 40.3837931,23.1793103 C40.3982759,23.9117241 40.8337931,24.5613793 41.5041379,24.8582759 L42.4713793,25.3010345 C42.8510345,25.4737931 43.1551724,25.7841379 43.3134483,26.1710345 C43.542069,26.7027586 44.0324138,27.0762069 44.6127586,27.1662069 C45.1858621,27.2489655 45.76,27.0213793 46.1324138,26.5786207 L47.2868966,25.1831034 C47.3417241,25.1065517 47.3965517,25.0237931 47.4524138,24.9410345 L49.2627586,21.8872414 C49.7117241,21.1268966 50.6303448,20.7824138 51.4734483,21.0441379 L53.1865517,21.5903448 C53.5051724,21.6937931 53.802069,21.8810345 54.0296552,22.15 L55.8886207,24.2427586 C56.0748276,24.4568966 56.2134483,24.7124138 56.2889655,24.9896552 L56.7317241,26.5786207 C56.8910345,27.1041379 56.8010345,27.6710345 56.4968966,28.1406897 C56.1927586,28.5968966 55.7024138,28.9072414 55.1562069,28.9755172 L52.7996552,29.2796552 C52.2958621,29.3427586 51.8396552,29.6396552 51.5841379,30.0824138 C51.3213793,30.517931 51.2665517,31.0558621 51.4527586,31.54 C51.7703448,32.3758621 51.3762069,33.3151724 50.5475862,33.6741379 L46.0082759,35.6375862 C45.9255172,35.6717241 45.8427586,35.7131034 45.7662069,35.7617241 L42.5748276,37.7303448 C42.042069,38.0624138 41.7110345,38.622069 41.6758621,39.2365517 L41.6282759,40.0175862 C41.5931034,40.6331034 41.2475862,41.1989655 40.7158621,41.5165517 L37.392069,43.5544828 C37.1158621,43.7210345 36.9565517,44.0251724 36.9637931,44.35 L37.0610345,49.0144828 C37.0817241,49.7044828 36.7289655,50.347931 36.1486207,50.7275862 C35.9272414,50.8589655 35.6582759,50.9003448 35.4089655,50.8248276 C35.1606897,50.74 34.96,50.5548276 34.8637931,50.3127586 L33.2468966,46.3124138 C33.0596552,45.8562069 32.6665517,45.5313793 32.1896552,45.4206897 C31.7127586,45.31 31.2151724,45.4413793 30.8562069,45.7734483 C30.5934483,46.0217241 30.247931,46.1603448 29.887931,46.1872414 L26.6758621,46.387931 C25.777931,46.4365517 25.0382759,47.1203448 24.9068966,48.012069 L24.4506897,51.2241379 C24.3544828,51.8882759 24.6172414,52.5503448 25.1344828,52.9734483 L25.75,53.47 C26.4544828,54.0441379 27.4631034,54.0368966 28.1541379,53.4627586 L29.6882759,52.1996552 C30.31,51.6741379 31.2286207,51.6813793 31.8575862,52.2048276 C32.4793103,52.7375862 32.6458621,53.6355172 32.2372414,54.3482759 L31.6362069,55.3972414 C31.4841379,55.6465517 31.4913793,55.9506897 31.6362069,56.2072414 C31.782069,56.4482759 32.0510345,56.6065517 32.3344828,56.6065517 C32.7627586,56.6065517 33.1217241,56.9386207 33.1424138,57.367931 L33.1982759,58.3206897 C33.2396552,59.0882759 33.7444828,59.7648276 34.4696552,60.0131034 L36.7082759,60.7941379 C37.1644828,60.9534483 37.662069,60.9327586 38.0975862,60.7393103 L41.8837931,59.0810345 C42.4165517,58.8524138 43.032069,58.8803448 43.5431034,59.1565517 L51.0896552,63.2262069 C51.3803448,63.3855172 51.6255172,63.6058621 51.7982759,63.8893103 L54.8106897,68.6293103 C55.0589655,69.01 55.4386207,69.2924138 55.8741379,69.4237931 L64.6755172,72.132069 C65.4772414,72.3751724 66.0689655,73.1137931 66.0689655,73.9424138 L66.0689655,75.6141379 Z M50.8982759,13.9506897 C52.3134483,13.5813793 53.7513793,13.2710345 55.2110345,13.0217241 C55.7748276,12.9244828 56.5031034,13.2337931 56.8351724,13.6982759 L57.6089655,14.7772414 C57.6431034,14.8331034 57.6906897,14.887931 57.7393103,14.9437931 L58.602069,15.8975862 C58.9610345,16.2917241 59.1327586,16.8224138 59.077931,17.3541379 C59.0355172,17.8796552 58.7634483,18.3637931 58.3351724,18.6886207 L56.7865517,19.8627586 C56.2,20.2982759 55.3993103,20.3748276 54.7424138,20.0293103 L52.6558621,18.9648276 C52.0341379,18.6327586 51.5862069,17.9831034 51.5862069,17.2713793 L51.5862069,16.4975862 C51.5862069,15.8831034 51.3431034,15.3089655 50.8527586,14.9582759 L50.5765517,14.7368966 C50.4958621,14.68 50.3748276,14.5931034 50.2331034,14.4855172 C50.0458621,14.3437931 50.3448276,14.0955172 50.8982759,13.9506897 L50.8982759,13.9506897 Z M64,4 C30.8624138,4 4,30.8634483 4,64 C4,97.1375862 30.8624138,124 64,124 C97.1365517,124 124,97.1375862 124,64 C124,30.8634483 97.1365517,4 64,4 L64,4 Z" id="Fill-1" fill="#000000"></path>
    </g>
</svg>