<?xml version="1.0" encoding="UTF-8"?>
<svg width="128px" height="128px" viewBox="0 0 128 128" version="1.1" xmlns="http://www.w3.org/2000/svg" xmlns:xlink="http://www.w3.org/1999/xlink">
    <title>Graphic elements / Icons / Flat icons / Generic / Hardware</title>
    <g id="Graphic-elements-/-Icons-/-Flat-icons-/-Generic-/-Hardware" stroke="none" stroke-width="1" fill="none" fill-rule="evenodd">
        <g id="Group" transform="translate(4.000000, 41.000000)" fill="#000000" fill-rule="nonzero">
            <path d="M116.36339,-1.77635684e-14 C118.39322,-1.77635684e-14 119.715254,1.71254237 119.713223,3.82372881 L119.713223,3.82372881 L119.713223,33.6935593 C119.713223,35.8047458 118.067797,37.4033898 116.033898,37.4033898 L116.033898,37.4033898 L3.67932203,37.4033898 C1.64745763,37.4033898 5.78381787e-12,35.8047458 5.78381787e-12,33.6935593 L5.78381787e-12,33.6935593 L5.78381787e-12,3.82372881 C5.78381787e-12,1.71254237 1.64542373,-1.77635684e-14 3.67932203,-1.77635684e-14 L3.67932203,-1.77635684e-14 Z M109.128814,24.3518644 L85.4908475,24.3518644 L85.4908475,28.120678 L109.128814,28.120678 L109.128814,24.3518644 Z M17.2535593,18.6162712 C14.7335593,18.6162712 12.6894915,20.7416949 12.6894915,23.3613559 C12.6894915,25.9830508 14.7315254,28.1064407 17.2535593,28.1064407 C19.7735593,28.1064407 21.8176271,25.9830508 21.8176271,23.3613559 C21.8176271,20.7416949 19.7755932,18.6162712 17.2535593,18.6162712 Z M109.128814,14.9288136 L85.4867797,14.9288136 L85.4867797,18.7505085 L109.128814,18.7505085 L109.128814,14.9288136 Z" id="Fill-1"></path>
            <path d="M10.9342373,44.9308475 C10.9342373,46.0698305 11.6338983,46.7349153 12.7281356,46.7349153 L21.819661,46.7349153 C22.9118644,46.7349153 23.6359322,46.0352542 23.6359322,44.8983051 L23.6359322,41.1661017 L10.9342373,41.1661017 L10.9342373,44.9308475 L10.9342373,44.9308475 Z" id="Fill-3"></path>
            <path d="M96.4067797,44.6725424 C96.4067797,45.8115254 97.0677966,46.7328814 98.1620339,46.7328814 L107.284068,46.7328814 C108.378305,46.7328814 109.073898,45.8094915 109.073898,44.6725424 L109.073898,41.1661017 L96.4067797,41.1661017 L96.4067797,44.6725424 Z" id="Fill-4"></path>
        </g>
    </g>
</svg>