<?xml version="1.0" encoding="UTF-8"?>
<svg width="128px" height="128px" viewBox="0 0 128 128" version="1.1" xmlns="http://www.w3.org/2000/svg" xmlns:xlink="http://www.w3.org/1999/xlink">
    <title>Graphic elements / Icons / Flat icons / Generic / Investigation</title>
    <g id="Graphic-elements-/-Icons-/-Flat-icons-/-Generic-/-Investigation" stroke="none" stroke-width="1" fill="none" fill-rule="evenodd">
        <g id="Investigation" transform="translate(15.000000, 6.000000)" fill="#000000" fill-rule="nonzero">
            <path d="M17,14 C15.9,14 14.8,13.4 14.3,12.3 C13.6,10.8 14.2,9 15.7,8.3 C27.6,2.7 38.6,0 49.5,0 C60.3,0 71.7,2.8 83.3,8.2 C84.8,8.9 85.4,10.7 84.7,12.2 C84,13.7 82.2,14.3 80.7,13.6 C69.9,8.6 59.4,6 49.5,6 C39.5,6 29.3,8.5 18.3,13.7 C17.9,13.9 17.4,14 17,14 Z" id="Path"></path>
            <path d="M72,38 C71.5,38 70.9,37.9 70.4,37.6 C63.4,33.2 56.5,31 50,31 C44,31 38,32.8 31.5,36.5 C30.1,37.3 28.2,36.8 27.4,35.4 C26.6,34 27.1,32.1 28.5,31.3 C35.9,27.1 43,25 50,25 C57.6,25 65.5,27.5 73.6,32.4 C75,33.3 75.5,35.1 74.6,36.5 C74,37.5 73,38 72,38 Z" id="Path"></path>
            <path d="M16,65 C14.4,65 13,63.7 13,62.1 C13,60.5 13,59 13.2,57.5 C13.7,52.4 15.8,48.5 18,44.3 L18.3,43.7 C19.1,42.2 20.9,41.7 22.4,42.4 C23.9,43.2 24.4,45 23.7,46.5 L23.3,47 C21.3,50.8 19.5,54.2 19.1,58.1 C19,59.3 19,60.6 19,61.9 C19,63.6 17.7,65 16,65 C16.1,65 16,65 16,65 Z" id="Path"></path>
            <path d="M81.8,80 C80.1,80 78.8,78.7 78.8,77 C78.8,75.3 78.8,73.3 78.9,71.3 C79,67.1 79,62.9 78.8,59.8 C78.5,54.5 77.6,49.8 76.2,46 C75.6,44.4 76.4,42.7 78,42.1 C79.6,41.5 81.3,42.3 81.9,43.9 C83.5,48.3 84.5,53.5 84.9,59.4 C85.1,62.7 85,67.1 85,71.3 C85,73.3 84.9,75.2 84.9,76.9 C84.8,78.7 83.5,80 81.8,80 Z" id="Path"></path>
            <path d="M8.6,92 C7.9,92 7,92 6,92 C4.3,92 3,90.6 3,89 C3,87.3 4.4,86.1 6,86 C9.1,86.1 10.8,86 12.6,86 C13.9,86 15.3,85.9 17.4,85.9 C25.1,85.9 34.2,75.8 35.3,73.7 C36,72.2 37.8,71.6 39.3,72.3 C40.8,73 41.4,74.8 40.7,76.3 C39.3,79.4 28.3,91.9 17.4,91.9 C15.4,91.9 14.1,91.9 12.8,92 C11.5,92 10.3,92 8.6,92 Z" id="Path"></path>
            <path d="M68,60 C66.8,60 65.7,59.3 65.2,58.2 C63.3,53.9 61.2,50.6 57,48 C55,46.8 52.7,46.4 50.8,46 L50.5,46 C48.9,45.7 47.8,44.2 48.1,42.5 C48.4,40.9 49.9,39.8 51.6,40.1 L51.9,40.2 C54,40.6 57.3,41.1 60.2,43 C66.1,46.6 68.8,51.4 70.8,56 C71.5,57.5 70.8,59.3 69.3,60 C68.8,59.9 68.4,60 68,60 Z" id="Path"></path>
            <path d="M95,68 C93.3,68 92,66.7 92,65 C92,50.7 86.5,38 76.4,29.4 C67.1,21.3 55,17.7 43.2,19.5 C41.7,19.7 40.3,20 38.8,20.4 C37.2,20.8 35.6,19.9 35.1,18.3 C34.7,16.7 35.6,15.1 37.2,14.6 C38.9,14.1 40.6,13.8 42.3,13.5 C55.8,11.5 69.7,15.6 80.3,24.8 C91.7,34.7 98,48.9 98,65 C98,66.7 96.7,68 95,68 Z" id="Path"></path>
            <path d="M3,65 C1.3,65 0,63.7 0,62 C0,44 9.3,27.7 25.4,17.5 C26.8,16.6 28.7,17 29.5,18.4 C30.4,19.8 30,21.7 28.6,22.5 C21.8,26.9 6,39.4 6,62 C6,63.7 4.7,65 3,65 Z" id="Path"></path>
            <path d="M95.1,80.6 C93.5,80.6 92.2,79.3 92.2,77.7 C92.2,76.1 93.5,74.8 95.1,74.8 C96.7,74.8 98,76.1 98,77.7 C98,79.4 96.7,80.6 95.1,80.6 Z" id="Fill-17"></path>
            <path d="M17.7,77 L5,77 C3.3,77 2,75.7 2,74 C2,72.3 3.3,71 5,71 L17.5,71 C18.4,70.9 24.7,70.3 26.1,63.2 C26.7,60.5 27,58.5 27.2,56.7 C27.9,52 28.3,49.2 32.1,44.8 C34,42.6 37,40.7 37.3,40.5 C38.7,39.6 40.6,40 41.4,41.4 C42.3,42.8 41.9,44.6 40.5,45.5 C39.8,45.9 37.7,47.4 36.6,48.7 C34,51.7 33.8,53.2 33.1,57.6 C32.8,59.4 32.5,61.6 31.9,64.5 C30.1,74 21.8,76.8 17.7,77 L17.7,77 Z" id="Path"></path>
            <path d="M14.1,104 C13.7,104 13.3,104 12.9,104 C11.2,104 9.9,102.6 10,100.9 C10.1,99.2 11.4,97.9 13.1,98 C27.9,98.3 39.1,92.6 46.3,81.1 C51.8,72.4 52.9,63.6 52.9,63.5 L52.9,63.2 C53,62.9 53,62.6 53,62.3 C53,59.9 51,57.9 48.6,57.9 C46.2,57.9 44.2,59.9 44.2,62.3 C44.2,64 42.9,65.3 41.2,65.3 C39.5,65.3 38.2,64 38.2,62.3 C38.2,56.6 42.9,51.9 48.6,51.9 C54.3,52 59,56.6 59,62.4 C59,63.1 58.9,63.7 58.8,64.4 C58.4,67.1 52.4,104 14.1,104 Z" id="Path"></path>
            <path d="M25,117 C23.4,117 22.1,115.7 22,114.1 C21.9,112.4 23.2,111 24.9,111 C25.1,111 38,110.2 48.7,99.7 C52.8,95.7 56.4,93.8 59.7,94 C63.5,94.2 65.7,96.8 67.2,98.5 L67.3,98.6 C67.4,98.7 67.6,98.9 67.7,99 C69.2,100.5 72.1,103.4 82,103.1 C82,103.1 82.1,103.1 82.1,103.1 C83.7,103.1 85,104.4 85.1,106 C85.2,107.7 83.9,109 82.2,109.1 C69.7,109.5 65.5,105.3 63.5,103.2 C63.4,103.1 63.2,102.9 63.1,102.8 L62.7,102.4 C61.4,101 60.5,100 59.4,100 C58.5,100 56.5,100.4 52.8,104 C40.4,116.1 25.7,116.9 25.1,117 C25.1,117 25,117 25,117 Z" id="Path"></path>
            <path d="M88,95 L79.3,95 C70,95 65.9,85.4 65.1,80.3 L65.1,79.8 L65.1,68 C65.1,66.3 66.4,65 68.1,65 C69.8,65 71.1,66.3 71.1,68 L71.1,79.5 C71.4,80.9 73.3,89 79.4,89 L88,89 C89.7,89 91,90.3 91,92 C91,93.7 89.7,95 88,95 Z" id="Path"></path>
        </g>
    </g>
</svg>