<?xml version="1.0" encoding="UTF-8"?>
<svg width="128px" height="128px" viewBox="0 0 128 128" version="1.1" xmlns="http://www.w3.org/2000/svg" xmlns:xlink="http://www.w3.org/1999/xlink">
    <!-- Generator: Sketch 61.2 (89653) - https://sketch.com -->
    <title>Graphic elements / Flat icons / Like / Black</title>
    <desc>Created with Sketch.</desc>
    <g id="Graphic-elements-/-Flat-icons-/-Like-/-Black" stroke="none" stroke-width="1" fill="none" fill-rule="evenodd">
        <g id="Group" transform="translate(12.000000, 9.000000)" fill="unset">
            <polygon id="Fill-1" points="0 106.393443 16.2295082 106.393443 16.2295082 43.2786885 0 43.2786885"></polygon>
            <path d="M97.7136612,74.6231156 L101.151913,74.6231156 C103.050885,74.6231156 104.590164,71.6531156 104.590164,67.9899497 C104.590164,64.3267839 103.050885,61.3567839 101.151913,61.3567839 L97.7136612,61.3567839 C96.5499454,61.3567839 95.5978142,60.361809 95.5978142,59.1457286 C95.5978142,57.9296482 96.5499454,56.9346734 97.7136612,56.9346734 L101.151913,56.9346734 C103.050885,56.9346734 104.590164,53.9646734 104.590164,50.3015075 C104.590164,46.6383417 102.695423,43.6683417 100.35847,43.6683417 L63.6866098,43.6683417 L69.7717858,31.258794 C70.3049792,30.1715075 70.7360831,28.3009548 70.7355541,27.0798995 C70.7355541,27.0798995 70.736612,8.43959799 70.736612,8.29145729 C70.736612,4.82120603 68.7582951,2.1159799 65.9193574,0.768894472 C64.886824,0.279698492 63.7447956,0 62.5377049,0 C61.3501858,0 60.2245552,0.26919598 59.2057749,0.744020101 C56.3398601,2.07949749 54.3387978,4.80075377 54.3387978,8.29145729 C54.3387978,8.50427136 54.3419716,20.4522613 54.3419716,20.4522613 C54.3403847,21.368191 53.8368131,22.6356784 53.2168699,23.2835176 L32.8983913,44.5162814 L25.2459016,52.5125628 L25.2459016,101.155779 L33.7092896,110 L98.242623,110 C101.748052,110 104.590164,107.03 104.590164,103.366834 C104.590164,99.7036683 103.050885,96.7336683 101.151913,96.7336683 L97.7136612,96.7336683 C96.5499454,96.7336683 95.5978142,95.7386935 95.5978142,94.5226131 C95.5978142,93.3065327 96.5499454,92.3115578 97.7136612,92.3115578 L101.151913,92.3115578 C103.050885,92.3115578 104.590164,89.3415578 104.590164,85.678392 C104.590164,82.0152261 103.050885,79.0452261 101.151913,79.0452261 L97.7136612,79.0452261 C96.5499454,79.0452261 95.5978142,78.0502513 95.5978142,76.8341709 C95.5978142,75.6180905 96.5499454,74.6231156 97.7136612,74.6231156" id="Fill-2"></path>
        </g>
    </g>
</svg>