<?xml version="1.0" encoding="UTF-8"?>
<svg width="128px" height="128px" viewBox="0 0 128 128" version="1.1" xmlns="http://www.w3.org/2000/svg" xmlns:xlink="http://www.w3.org/1999/xlink">
    <title>Graphic elements / Icons / Flat icons / Generic / LPR</title>
    <g id="Graphic-elements-/-Icons-/-Flat-icons-/-Generic-/-LPR" stroke="none" stroke-width="1">
        <g id="Group-4" transform="translate(6.000000, 4.000000)">
            <path d="M87.079646,67.4336283 L108.318584,67.4336283 L108.318584,56.8141593 L87.079646,56.8141593 L87.079646,67.4336283 Z M22.300885,33.4513274 L28.6725664,8.49557522 L88.1415929,8.49557522 L94.5132743,33.4513274 L22.300885,33.4513274 Z M8.49557522,67.4336283 L29.7345133,67.4336283 L29.7345133,56.8141593 L8.49557522,56.8141593 L8.49557522,67.4336283 Z M101.017699,33.4513274 L91.520708,4.14265487 C90.6084956,1.85469027 87.939292,-2.84217094e-14 85.4734513,-2.84217094e-14 L31.340708,-2.84217094e-14 C28.8748673,-2.84217094e-14 26.2056637,1.85469027 25.2934513,4.14265487 L15.7964602,33.4513274 L0,54.6902655 L0,92.920354 C0,95.2566372 1.91150442,97.1681416 4.24778761,97.1681416 L15.9292035,97.1681416 C18.2654867,97.1681416 20.1769912,95.2566372 20.1769912,92.920354 L20.1769912,82.300885 L27.8617699,82.300885 C29.3038938,66.5437168 42.5867257,54.159292 58.7139823,54.159292 C74.840708,54.159292 88.1235398,66.5437168 89.5661947,82.300885 L96.6371681,82.300885 L96.6371681,92.920354 C96.6371681,95.2566372 98.5486726,97.1681416 100.884956,97.1681416 L112.566372,97.1681416 C114.902655,97.1681416 116.814159,95.2566372 116.814159,92.920354 L116.814159,54.6902655 L101.017699,33.4513274 Z" id="Fill-1"></path>
            <path d="M58.8390265,106.900726 C46.9128319,106.900726 37.210354,97.1982478 37.210354,85.2720531 C37.210354,84.3391327 37.2767257,83.4216106 37.3914159,82.5194867 C38.7485841,71.8893982 47.8457522,63.6433805 58.8390265,63.6433805 C69.8317699,63.6433805 78.9289381,71.8893982 80.2861062,82.5194867 C80.4013274,83.4216106 80.4671681,84.3391327 80.4671681,85.2720531 C80.4671681,97.1982478 70.7646903,106.900726 58.8390265,106.900726 M86.2351327,85.2720531 C86.2351327,84.3428496 86.1878761,83.4247965 86.0976106,82.5194867 C84.7165487,68.6817876 73.0399115,57.8759469 58.8390265,57.8759469 C44.6376106,57.8759469 32.9609735,68.6817876 31.5804425,82.5194867 C31.490177,83.4247965 31.4423894,84.3428496 31.4423894,85.2720531 C31.4423894,100.402673 43.7084071,112.668159 58.8390265,112.668159 C65.1130088,112.668159 70.8910619,110.554354 75.51,107.005858 L88.4519469,119.947805 L93.549823,114.849929 L80.6036283,101.904265 C84.1335398,97.2916991 86.2351327,91.5285133 86.2351327,85.2720531" id="Fill-3"></path>
        </g>
    </g>
</svg>