<svg viewBox="0 0 128 128">
    <g stroke="none" stroke-width="1" fill="none" fill-rule="evenodd">
        <path d="M89.6765524,87.3816092 L89.6765524,76.8161954 L109.992465,76.8161954 L109.992465,80.8965517 C113.240037,81.2103448 116.276061,82.1517241 119,83.615046 L119,15 L6,15 L6,105.895402 L80.5653383,106 C81.0889713,98.5735632 84.4402224,91.9828621 89.6765524,87.3816092 L89.6765524,87.3816092 Z M89.6765524,53.9103448 L109.992465,53.9103448 L109.992465,40.208046 L89.6765524,40.208046 L89.6765524,53.9103448 Z M89.6765524,72.2149425 L109.992465,72.2149425 L109.992465,58.5126437 L89.6765524,58.5126437 L89.6765524,72.2149425 Z M64.8563485,53.9103448 L85.1722614,53.9103448 L85.1722614,40.208046 L64.8563485,40.208046 L64.8563485,53.9103448 Z M64.8563485,72.2149425 L85.1722614,72.2149425 L85.1722614,58.5126437 L64.8563485,58.5126437 L64.8563485,72.2149425 Z M64.8563485,90.5195402 L85.1722614,90.5195402 L85.1722614,76.8161954 L64.8563485,76.8161954 L64.8563485,90.5195402 Z M15.0064875,90.5195402 L35.3234476,90.5195402 L35.3234476,76.8161954 L15.0064875,76.8161954 L15.0064875,90.5195402 Z M15.0064875,72.2149425 L35.3234476,72.2149425 L35.3234476,58.5126437 L15.0064875,58.5126437 L15.0064875,72.2149425 Z M15.0064875,53.9103448 L35.3234476,53.9103448 L35.3234476,40.208046 L15.0064875,40.208046 L15.0064875,53.9103448 Z M39.931418,90.5195402 L60.2483781,90.5195402 L60.2483781,76.8161954 L39.931418,76.8161954 L39.931418,90.5195402 Z M39.931418,72.2149425 L60.2483781,72.2149425 L60.2483781,58.5126437 L39.931418,58.5126437 L39.931418,72.2149425 Z M39.931418,53.9103448 L60.2483781,53.9103448 L60.2483781,40.208046 L39.931418,40.208046 L39.931418,53.9103448 Z" id="Fill-1" fill="#000000"></path>
        <path d="M106.65351,112.69323 C102.680177,113.851872 98.5081764,111.631143 97.3161763,107.672452 C96.1241762,103.713762 98.408843,99.5619642 102.382177,98.3067696 C106.35551,97.1481285 110.527511,99.3688573 111.719511,103.327548 C112.812177,107.382792 110.626844,111.534589 106.65351,112.69323 L106.65351,112.69323 Z M122,103.48913 C121.902507,102.383152 121.707521,101.277174 121.415042,100.171196 C121.415042,100.070652 121.415042,100.070652 121.317549,99.9701087 C121.02507,98.8641304 120.635097,97.8586957 120.147632,96.9538043 L115.955432,98.2608696 C115.272981,97.0543478 114.395543,95.9483696 113.420613,95.0434783 L113.713092,94.4402174 L115.467967,90.9211957 C113.810585,89.513587 111.860724,88.4076087 109.81337,87.7038043 L107.766017,91.826087 C106.498607,91.5244565 105.133705,91.3233696 103.866295,91.423913 L102.501393,87 C101.428969,87.1005435 100.356546,87.3016304 99.3816156,87.7038043 C98.3091922,88.0054348 97.3342618,88.5081522 96.3593315,89.0108696 L97.6267409,93.4347826 C96.4568245,94.138587 95.4818942,95.0434783 94.6044568,96.048913 L90.7047354,93.8369565 C89.3398329,95.6467391 88.2674095,97.6576087 87.6824513,99.8695652 L90.8997214,101.679348 L91.5821727,102.081522 C91.2896936,103.388587 91.0947075,104.796196 91.1922006,106.203804 L87,107.51087 C87.097493,108.516304 87.2924791,109.622283 87.5849582,110.627717 C87.5849582,110.728261 87.5849582,110.728261 87.5849582,110.828804 C87.8774373,111.934783 88.3649025,113.040761 88.8523677,114.046196 L93.0445682,112.73913 C93.7270195,113.945652 94.6044568,115.05163 95.5793872,115.956522 L94.4094708,118.369565 L93.5320334,120.078804 C95.189415,121.486413 97.1392758,122.592391 99.1866295,123.296196 L101.233983,119.173913 C102.501393,119.475543 103.866295,119.67663 105.133705,119.576087 L106.401114,124 C107.473538,123.899457 108.545961,123.69837 109.520891,123.296196 C110.593315,122.994565 111.568245,122.491848 112.543175,121.98913 L111.275766,117.565217 C112.445682,116.861413 113.420613,115.956522 114.29805,114.951087 L118.197772,117.163043 C119.562674,115.353261 120.635097,113.342391 121.220056,111.130435 L119.660167,110.225543 L117.320334,108.918478 C117.612813,107.611413 117.807799,106.203804 117.710306,104.796196 L122,103.48913 Z" id="Fill-1" fill="#000000" fill-rule="nonzero"></path>
        <polygon fill="#000000" fill-rule="nonzero" points="22 10 30 10 30 4 22 4"></polygon>
        <polygon fill="#000000" fill-rule="nonzero" points="96 10 104 10 104 4 96 4"></polygon>
    </g>
</svg>