<?xml version="1.0" encoding="UTF-8"?>
<svg width="128px" height="128px" viewBox="0 0 128 128" version="1.1" xmlns="http://www.w3.org/2000/svg" xmlns:xlink="http://www.w3.org/1999/xlink">
    <title>Graphic elements / Icons / Flat icons / Generic / Management Operator</title>
    <defs>
        <polygon id="path-1" points="0 0 113 0 113 91 0 91"></polygon>
    </defs>
    <g id="Graphic-elements-/-Icons-/-Flat-icons-/-Generic-/-Management-Operator" stroke="none" stroke-width="1" fill="none" fill-rule="evenodd">
        <g id="Management-operator" transform="translate(6.000000, 4.000000)">
            <g id="Group-3" transform="translate(0.000000, 11.000000)">
                <mask id="mask-2" fill="white">
                    <use xlink:href="#path-1"></use>
                </mask>
                <g id="Clip-2"></g>
                <path d="M83.6765524,72.3816092 L83.6765524,61.8161954 L103.992465,61.8161954 L103.992465,65.8965517 C107.240037,66.2103448 110.276061,67.1517241 113,68.615046 L113,0 L0,0 L0,90.8954023 L74.5653383,91 C75.0889713,83.5735632 78.4402224,76.9828621 83.6765524,72.3816092 L83.6765524,72.3816092 Z M83.6765524,38.9103448 L103.992465,38.9103448 L103.992465,25.208046 L83.6765524,25.208046 L83.6765524,38.9103448 Z M83.6765524,57.2149425 L103.992465,57.2149425 L103.992465,43.5126437 L83.6765524,43.5126437 L83.6765524,57.2149425 Z M58.8563485,38.9103448 L79.1722614,38.9103448 L79.1722614,25.208046 L58.8563485,25.208046 L58.8563485,38.9103448 Z M58.8563485,57.2149425 L79.1722614,57.2149425 L79.1722614,43.5126437 L58.8563485,43.5126437 L58.8563485,57.2149425 Z M58.8563485,75.5195402 L79.1722614,75.5195402 L79.1722614,61.8161954 L58.8563485,61.8161954 L58.8563485,75.5195402 Z M9.00648749,75.5195402 L29.3234476,75.5195402 L29.3234476,61.8161954 L9.00648749,61.8161954 L9.00648749,75.5195402 Z M9.00648749,57.2149425 L29.3234476,57.2149425 L29.3234476,43.5126437 L9.00648749,43.5126437 L9.00648749,57.2149425 Z M9.00648749,38.9103448 L29.3234476,38.9103448 L29.3234476,25.208046 L9.00648749,25.208046 L9.00648749,38.9103448 Z M33.931418,75.5195402 L54.2483781,75.5195402 L54.2483781,61.8161954 L33.931418,61.8161954 L33.931418,75.5195402 Z M33.931418,57.2149425 L54.2483781,57.2149425 L54.2483781,43.5126437 L33.931418,43.5126437 L33.931418,57.2149425 Z M33.931418,38.9103448 L54.2483781,38.9103448 L54.2483781,25.208046 L33.931418,25.208046 L33.931418,38.9103448 Z" id="Fill-1" fill="#000000" mask="url(#mask-2)"></path>
            </g>
            <path d="M100.65351,108.69323 C96.6801767,109.851872 92.5081764,107.631143 91.3161763,103.672452 C90.1241762,99.7137616 92.408843,95.5619642 96.3821766,94.3067696 C100.35551,93.1481285 104.527511,95.3688573 105.719511,99.3275479 C106.812177,103.382792 104.626844,107.534589 100.65351,108.69323 L100.65351,108.69323 Z M116,99.4891304 C115.902507,98.3831522 115.707521,97.2771739 115.415042,96.1711957 C115.415042,96.0706522 115.415042,96.0706522 115.317549,95.9701087 C115.02507,94.8641304 114.635097,93.8586957 114.147632,92.9538043 L109.955432,94.2608696 C109.272981,93.0543478 108.395543,91.9483696 107.420613,91.0434783 L107.713092,90.4402174 L109.467967,86.9211957 C107.810585,85.513587 105.860724,84.4076087 103.81337,83.7038043 L101.766017,87.826087 C100.498607,87.5244565 99.1337047,87.3233696 97.8662953,87.423913 L96.5013928,83 C95.4289694,83.1005435 94.356546,83.3016304 93.3816156,83.7038043 C92.3091922,84.0054348 91.3342618,84.5081522 90.3593315,85.0108696 L91.6267409,89.4347826 C90.4568245,90.138587 89.4818942,91.0434783 88.6044568,92.048913 L84.7047354,89.8369565 C83.3398329,91.6467391 82.2674095,93.6576087 81.6824513,95.8695652 L84.8997214,97.6793478 L85.5821727,98.0815217 C85.2896936,99.388587 85.0947075,100.796196 85.1922006,102.203804 L81,103.51087 C81.097493,104.516304 81.2924791,105.622283 81.5849582,106.627717 C81.5849582,106.728261 81.5849582,106.728261 81.5849582,106.828804 C81.8774373,107.934783 82.3649025,109.040761 82.8523677,110.046196 L87.0445682,108.73913 C87.7270195,109.945652 88.6044568,111.05163 89.5793872,111.956522 L88.4094708,114.369565 L87.5320334,116.078804 C89.189415,117.486413 91.1392758,118.592391 93.1866295,119.296196 L95.2339833,115.173913 C96.5013928,115.475543 97.8662953,115.67663 99.1337047,115.576087 L100.401114,120 C101.473538,119.899457 102.545961,119.69837 103.520891,119.296196 C104.593315,118.994565 105.568245,118.491848 106.543175,117.98913 L105.275766,113.565217 C106.445682,112.861413 107.420613,111.956522 108.29805,110.951087 L112.197772,113.163043 C113.562674,111.353261 114.635097,109.342391 115.220056,107.130435 L113.660167,106.225543 L111.320334,104.918478 C111.612813,103.611413 111.807799,102.203804 111.710306,100.796196 L116,99.4891304 Z" id="Fill-1" fill="#000000" fill-rule="nonzero"></path>
            <g id="Group" transform="translate(16.000000, 0.000000)" fill="#000000" fill-rule="nonzero">
                <polygon id="Fill-4" points="0 6 8 6 8 0 0 0"></polygon>
                <polygon id="Fill-6" points="74 6 82 6 82 0 74 0"></polygon>
            </g>
        </g>
    </g>
</svg>