<?xml version="1.0" encoding="UTF-8"?>
<svg width="128px" height="128px" viewBox="0 0 128 128" version="1.1" xmlns="http://www.w3.org/2000/svg" xmlns:xlink="http://www.w3.org/1999/xlink">
    <title>Graphic elements / Icons / Flat icons / Marketplace / marketplace-analytics-facial-recognition</title>
    <g id="Graphic-elements-/-Icons-/-Flat-icons-/-Marketplace-/-marketplace-analytics-facial-recognition" stroke="none" stroke-width="1" fill-rule="evenodd">
        <g id="marketplace-analytics-facial-recognition" transform="translate(4.000000, 4.000000)" fill-rule="nonzero">
            <path d="M7.05882353,24.7058824 L0,24.7058824 L0,0 L24.5882353,0 L24.5882353,7.05882353 L7.05882353,7.05882353 L7.05882353,24.7058824 Z M24.7058824,112.941176 L7.05882353,112.941176 L7.05882353,95.2941176 L0,95.2941176 L0,120 L24.7058824,120 L24.7058824,112.941176 Z M120,95.2941176 L112.941176,95.2941176 L112.941176,112.941176 L95.2941176,112.941176 L95.2941176,120 L120,120 L120,95.2941176 Z M120,0 L95.2058824,0 L95.2058824,7.05882353 L112.941176,7.05882353 L112.941176,24.6470588 L120,24.6470588 L120,0 Z" id="Shape" opacity="0.65"></path>
            <path d="M88.6176471,105.794118 L78.7941176,105.794118 L83.9411765,103.911765 L88.6176471,105.794118 Z M80.5,66.9705882 C79.6470588,71.4411765 77.9705882,75.5294118 75.5588235,79 C74.4411765,80.5882353 74.1176471,82.5588235 74.6176471,84.4411765 L77.2058824,93.9705882 C77.8529412,96.3823529 79.6470588,98.3823529 81.9705882,99.3235294 L97.5294118,105.529412 L100.147059,98.9705882 L84.5882353,92.7647059 C84.3235294,92.6470588 84.1176471,92.4117647 84.0294118,92.1470588 L81.5294118,82.8529412 C84.6470588,78.2647059 86.7647059,72.8529412 87.7058824,66.9705882 L80.5,66.9705882 L80.5,66.9705882 Z M45.5588235,96.7058824 C44.3235294,99.3823529 42.0882353,101.529412 39.3529412,102.617647 L31.3823529,105.794118 L41.2058824,105.794118 L73.5294118,94.0294118 L71.6764706,87.1764706 L45.5588235,96.7058824 Z M74.4705882,96.7647059 L49.6764706,105.794118 L70.3235294,105.794118 L79.9411765,102.294118 C77.5294118,101.147059 75.5882353,99.1764706 74.4705882,96.7647059 Z M76.9117647,66.9705882 L69.0882353,66.9705882 L46.2647059,75.2647059 C46.6176471,75.8529412 46.9705882,76.4411765 47.3529412,77 C48.3529412,78.4411765 48.9411765,80.0588235 49.0882353,81.7647059 L75.2647059,72.2352941 C75.9411765,70.5882353 76.5,68.8235294 76.9117647,66.9705882 Z M35.4117647,92.7647059 L19.8529412,98.9705882 L22.4705882,105.529412 L38.0294118,99.3235294 C40.3529412,98.3823529 42.1470588,96.3823529 42.7941176,93.9705882 L45.3529412,84.4411765 C45.8529412,82.5882353 45.5,80.6176471 44.4117647,79 C42,75.5294118 40.3235294,71.4117647 39.4705882,66.9705882 L32.2941176,66.9705882 C33.2352941,72.8235294 35.3529412,78.2647059 38.4705882,82.8529412 L35.9705882,92.1470588 C35.9117647,92.4117647 35.7058824,92.6764706 35.4117647,92.7647059 Z M73.2941176,76.0294118 L48.9117647,84.8823529 C48.8823529,85.0294118 48.8529412,85.1764706 48.7941176,85.3529412 L46.6764706,93.2058824 L71,84.3529412 C70.5882353,81.7941176 71.1470588,79.1470588 72.6764706,76.9705882 C72.8823529,76.6764706 73.0882353,76.3529412 73.2941176,76.0294118 Z M60.6176471,66.9705882 L43.0882353,66.9705882 C43.5294118,68.9705882 44.1470588,70.8823529 44.9117647,72.6764706 L60.6176471,66.9705882 Z" id="Shape"></path>
            <rect id="Rectangle" x="7.05882353" y="56.3823529" width="105.882353" height="7.05882353"></rect>
            <path d="M91.7647059,38.7352941 C91.7647059,30.5588235 88.6764706,17.6764706 80.2941176,14.0588235 C75.9705882,7.85294118 67.6470588,6.97058824 59.9705882,6.97058824 C50.6176471,6.97058824 42.7058824,9.82352941 37.1176471,15.2058824 C31.2941176,20.8235294 28.2058824,28.9411765 28.2058824,38.7352941 C28.2058824,39.6470588 28.2352941,40.5588235 28.3235294,41.4705882 C26.5,43.2352941 24.6764706,46.3235294 24.6764706,51.7058824 C24.6764706,52.0882353 24.6764706,52.4705882 24.7058824,52.8529412 L31.7941176,52.8529412 C31.7647059,52.4705882 31.7352941,52.0882353 31.7352941,51.7058824 C31.7352941,48.8823529 32.4705882,46.8823529 33.7647059,46.1470588 L35.9117647,44.9411765 L35.5294118,42.5 C35.3529412,41.2647059 35.2352941,39.9705882 35.2352941,38.7058824 C35.2352941,30.8823529 37.5588235,24.5294118 41.9705882,20.2647059 C46.2352941,16.1764706 52.4411765,14 59.9411765,14 C66.0294118,14 72.5588235,14.5588235 74.8235294,18.6470588 L75.5294118,19.9117647 L76.9117647,20.3235294 C80.6470588,21.4117647 84.6470588,29.0588235 84.6470588,38.7352941 C84.6470588,40 84.5588235,41.2647059 84.3529412,42.5294118 L83.9705882,44.9705882 L86.1176471,46.1764706 C87.4117647,46.8823529 88.1470588,48.9117647 88.1470588,51.7352941 C88.1470588,52.1470588 88.1176471,52.5294118 88.0882353,52.8823529 L95.1764706,52.8823529 C95.2058824,52.5 95.2058824,52.1176471 95.2058824,51.7352941 C95.2058824,46.3823529 93.3823529,43.2647059 91.5588235,41.5 C91.7352941,40.5588235 91.7647059,39.6470588 91.7647059,38.7352941 Z" id="Path" opacity="0.65"></path>
        </g>
    </g>
</svg>