<?xml version="1.0" encoding="UTF-8"?>
<svg width="128px" height="128px" viewBox="0 0 128 128" version="1.1" xmlns="http://www.w3.org/2000/svg" xmlns:xlink="http://www.w3.org/1999/xlink">
    <title>Graphic elements / Icons / Flat icons / Marketplace / marketplace-acs-biometrics</title>
    <g id="Graphic-elements-/-Icons-/-Flat-icons-/-Marketplace-/-marketplace-acs-biometrics" stroke="none" stroke-width="1" fill-rule="evenodd">
        <g id="marketplace-acs-biometrics" transform="translate(7.000000, 4.000000)" fill-rule="nonzero">
            <path d="M0.614634146,41.8536585 C1.55121951,30.4682927 6.70243902,19.9317073 15.102439,12.1463415 C23.5609756,4.30243902 34.5658537,0 46.1268293,0 C56.3121951,0 65.9707317,3.27804878 74.0195122,9.51219512 C75.5414634,10.7121951 75.8341463,12.9073171 74.6634146,14.4292683 C73.4926829,15.9512195 71.2682927,16.2439024 69.7463415,15.0731707 C62.897561,9.80487805 54.7317073,7.02439024 46.1268293,7.02439024 C36.3804878,7.02439024 27.0439024,10.6829268 19.902439,17.297561 C12.7902439,23.8829268 8.42926829,32.8097561 7.63902439,42.4390244 C7.49268293,44.2829268 5.94146341,45.6585366 4.12682927,45.6585366 C4.03902439,45.6585366 3.92195122,45.6585366 3.83414634,45.6585366 C1.87317073,45.4829268 0.43902439,43.7853659 0.614634146,41.8536585 Z M7.17073171,69.6585366 C7.37560976,67.8731707 7.49268293,66.0878049 7.49268293,64.302439 L7.49268293,56.195122 C7.49268293,54.2634146 5.91219512,52.6829268 3.9804878,52.6829268 C2.04878049,52.6829268 0.468292683,54.2634146 0.468292683,56.195122 L0.468292683,64.302439 C0.468292683,65.8243902 0.380487805,67.3463415 0.204878049,68.8390244 C-0.0292682927,70.7707317 1.34634146,72.497561 3.27804878,72.7317073 C3.42439024,72.7609756 3.54146341,72.7609756 3.68780488,72.7609756 C5.44390244,72.7317073 6.96585366,71.4439024 7.17073171,69.6585366 Z M74.195122,101.82439 C74.195122,101.853659 74.195122,101.912195 74.195122,101.941463 C74.1365854,103.873171 75.6585366,105.512195 77.5902439,105.570732 C77.6195122,105.570732 77.6780488,105.570732 77.7073171,105.570732 C79.5804878,105.570732 81.1609756,104.078049 81.2195122,102.17561 C81.2195122,102.058537 81.2195122,101.941463 81.2195122,101.82439 L74.195122,101.82439 L74.195122,101.82439 L74.195122,101.82439 Z M83.7365854,36.9073171 C85.8146341,35.9414634 88.1268293,35.3268293 90.5268293,35.1512195 C89.2682927,29.8536585 87.0731707,24.7902439 84,20.195122 C82.9170732,18.5853659 80.7512195,18.1463415 79.1414634,19.2292683 C77.5317073,20.3121951 77.0926829,22.5073171 78.1756098,24.1170732 C80.8390244,28.0390244 82.7121951,32.3707317 83.7365854,36.9073171 Z M80.5463415,38.8097561 C77.3560976,22.7121951 63.1317073,10.5365854 46.097561,10.5365854 C43.9609756,10.5365854 41.8243902,10.7414634 39.7463415,11.1219512 C37.8439024,11.4731707 36.5853659,13.2878049 36.9365854,15.2195122 C37.2878049,17.1219512 39.102439,18.3804878 41.0341463,18.0292683 C42.702439,17.7365854 44.4292683,17.5609756 46.1268293,17.5609756 C61.6097561,17.5609756 74.2243902,30.1756098 74.2243902,45.6585366 C74.2243902,45.9219512 74.2536585,46.2146341 74.3121951,46.4487805 C75.6878049,43.404878 77.8536585,40.7707317 80.5463415,38.8097561 Z M86.6341463,54.4097561 L86.6341463,59.7365854 L91.7560976,59.7365854 L91.7560976,49.1707317 C88.9170732,49.2292683 86.6341463,51.5414634 86.6341463,54.4097561 Z M28.5658537,81.7463415 L28.5658537,76.6536585 C28.5658537,74.7219512 26.9853659,73.1414634 25.0536585,73.1414634 C23.1219512,73.1414634 21.5414634,74.7219512 21.5414634,76.6536585 L21.5414634,81.7463415 C21.5414634,86.4292683 19.7268293,90.8487805 16.3902439,94.1560976 L11.5317073,99.0146341 C10.1560976,100.390244 10.1560976,102.614634 11.5317073,103.990244 C12.204878,104.663415 13.1121951,105.014634 14.0195122,105.014634 C14.9268293,105.014634 15.804878,104.663415 16.5073171,103.990244 L21.3658537,99.1317073 C25.9902439,94.4780488 28.5658537,88.302439 28.5658537,81.7463415 Z M18.0292683,72.995122 L18.0292683,45.6585366 C18.0292683,36.5560976 22.4780488,27.9804878 29.9121951,22.7121951 C31.4926829,21.6 31.8731707,19.404878 30.7609756,17.8243902 C29.6487805,16.2439024 27.4536585,15.8634146 25.8731707,16.9756098 C16.5658537,23.5609756 11.0341463,34.2731707 11.0341463,45.6585366 L11.0341463,72.995122 C11.0341463,79.1707317 8.95609756,85.2585366 5.2097561,90.1463415 C4.03902439,91.6682927 4.30243902,93.8926829 5.85365854,95.0634146 C6.49756098,95.5609756 7.25853659,95.795122 7.9902439,95.795122 C9.04390244,95.795122 10.097561,95.3268293 10.7707317,94.4195122 C15.4243902,88.3317073 18.0292683,80.7219512 18.0292683,72.995122 Z M46.1268293,31.6097561 C38.3707317,31.6097561 32.0780488,37.902439 32.0780488,45.6585366 L32.0780488,90.4682927 C32.0780488,91.2878049 31.9317073,92.0780488 31.6682927,92.8390244 C31.0243902,94.6536585 31.9609756,96.6731707 33.7756098,97.3170732 C34.1560976,97.4634146 34.5658537,97.5219512 34.9756098,97.5219512 C36.4097561,97.5219512 37.7560976,96.6439024 38.2829268,95.1804878 C38.8390244,93.6585366 39.102439,92.0487805 39.102439,90.4390244 L39.102439,45.6585366 C39.102439,41.795122 42.2634146,38.6341463 46.1268293,38.6341463 C49.9902439,38.6341463 53.1512195,41.795122 53.1512195,45.6585366 L53.1512195,84.2926829 C53.1512195,86.2243902 54.7317073,87.804878 56.6634146,87.804878 C58.595122,87.804878 60.1756098,86.2243902 60.1756098,84.2926829 L60.1756098,45.6585366 C60.1463415,37.902439 53.8536585,31.6097561 46.1268293,31.6097561 Z M56.6634146,94.8292683 C54.7317073,94.8292683 53.1512195,96.4097561 53.1512195,98.3414634 L53.1512195,101.004878 C53.1512195,102.878049 52.4195122,104.634146 51.102439,105.980488 L43.3170732,113.736585 C41.9414634,115.112195 41.9414634,117.336585 43.3170732,118.712195 C43.9902439,119.385366 44.897561,119.736585 45.804878,119.736585 C46.7121951,119.736585 47.5902439,119.385366 48.2926829,118.712195 L56.0487805,110.956098 C58.7121951,108.292683 60.1756098,104.780488 60.1756098,101.034146 L60.1756098,98.3414634 C60.1463415,96.4097561 58.595122,94.8292683 56.6634146,94.8292683 Z M67.2292683,101.82439 L67.2292683,98.3121951 L67.2292683,63.2487805 L67.2292683,59.7365854 L70.7121951,59.7365854 L70.7121951,45.6585366 C70.7121951,32.1073171 59.6780488,21.0731707 46.1268293,21.0731707 C32.5756098,21.0731707 21.5414634,32.1073171 21.5414634,45.6585366 L21.5414634,63.2195122 C21.5414634,65.1512195 23.1219512,66.7317073 25.0536585,66.7317073 C26.9853659,66.7317073 28.5658537,65.1512195 28.5658537,63.2195122 L28.5658537,45.6585366 C28.5658537,35.9707317 36.4390244,28.097561 46.1268293,28.097561 C55.8146341,28.097561 63.6878049,35.9707317 63.6878049,45.6585366 L63.6878049,101.004878 C63.6878049,104.4 62.7219512,107.707317 60.8780488,110.546341 C59.8243902,112.185366 60.2926829,114.35122 61.902439,115.404878 C62.4878049,115.785366 63.1609756,115.960976 63.804878,115.960976 C64.9463415,115.960976 66.0878049,115.404878 66.7609756,114.35122 C69.1902439,110.604878 70.5365854,106.273171 70.7121951,101.82439 L67.2292683,101.82439 L67.2292683,101.82439 Z M46.1268293,59.7073171 C48.0585366,59.7073171 49.6390244,58.1268293 49.6390244,56.195122 L49.6390244,49.1707317 C49.6390244,47.2390244 48.0585366,45.6585366 46.1268293,45.6585366 C44.195122,45.6585366 42.6146341,47.2390244 42.6146341,49.1707317 L42.6146341,56.195122 C42.6146341,58.1268293 44.1658537,59.7073171 46.1268293,59.7073171 Z M49.6390244,90.1756098 L49.6390244,70.2439024 C49.6390244,68.3121951 48.0585366,66.7317073 46.1268293,66.7317073 C44.195122,66.7317073 42.6146341,68.3121951 42.6146341,70.2439024 L42.6146341,90.1756098 C42.6146341,94.5073171 40.9170732,98.5756098 37.8731707,101.619512 L28.5365854,110.926829 C27.1609756,112.302439 27.1609756,114.526829 28.5365854,115.902439 C29.2097561,116.57561 30.1170732,116.926829 31.0243902,116.926829 C31.9317073,116.926829 32.8097561,116.57561 33.5121951,115.902439 L42.8195122,106.595122 C47.2097561,102.204878 49.6390244,96.3804878 49.6390244,90.1756098 Z M27.9804878,102.409756 C26.604878,101.034146 24.3804878,101.034146 23.004878,102.409756 L19.3463415,106.068293 C17.9707317,107.443902 17.9707317,109.668293 19.3463415,111.043902 C20.0195122,111.717073 20.9268293,112.068293 21.8341463,112.068293 C22.7414634,112.068293 23.6195122,111.717073 24.3219512,111.043902 L27.9804878,107.385366 C29.3560976,106.009756 29.3560976,103.785366 27.9804878,102.409756 Z" id="Shape" opacity="0.65"></path>
            <path d="M107.64878,63.2487805 L107.64878,54.4097561 C107.64878,45.7170732 100.565854,38.6341463 91.8731707,38.6341463 C83.1804878,38.6341463 76.097561,45.7170732 76.097561,54.4097561 L76.097561,63.2487805 L70.7414634,63.2487805 L70.7414634,98.3414634 L113.004878,98.3414634 L113.004878,63.2487805 L107.64878,63.2487805 Z M83.1219512,54.4097561 C83.1219512,49.5804878 87.0439024,45.6585366 91.8731707,45.6585366 C96.702439,45.6585366 100.62439,49.5804878 100.62439,54.4097561 L100.62439,63.2487805 L83.1219512,63.2487805 L83.1219512,54.4097561 Z" id="Shape"></path>
        </g>
    </g>
</svg>