<?xml version="1.0" encoding="UTF-8"?>
<svg width="128px" height="128px" viewBox="0 0 128 128" version="1.1" xmlns="http://www.w3.org/2000/svg" xmlns:xlink="http://www.w3.org/1999/xlink">
    <title>Graphic elements / Icons / Flat icons / Marketplace / marketplace-spec-solutions-business-systems</title>
    <g id="Graphic-elements-/-Icons-/-Flat-icons-/-Marketplace-/-marketplace-spec-solutions-business-systems" stroke="none" stroke-width="1" fill-rule="evenodd">
        <g id="marketplace-spec-solutions-business-systems" transform="translate(11.000000, 4.000000)" fill-rule="nonzero">
            <path d="M25.0909091,45.4545455 L16.3636364,45.4545455 L16.3636364,27.2727273 L25.0909091,27.2727273 C25.5454545,25.8787879 26.0909091,24.5454545 26.7575758,23.2424242 L20.5757576,17.0606061 L33.4242424,4.21212121 L39.6060606,10.3939394 C40.9090909,9.72727273 42.2424242,9.18181818 43.6363636,8.72727273 L43.6363636,0 L61.8181818,0 L61.8181818,8.72727273 C63.1818182,9.18181818 64.5454545,9.72727273 65.8484848,10.3939394 L72.030303,4.21212121 L84.8787879,17.0606061 L78.6969697,23.2424242 C79.3636364,24.5454545 79.9090909,25.8787879 80.3636364,27.2727273 L89.0909091,27.2727273 L89.0909091,45.4545455 L80.3636364,45.4545455 C79.9090909,46.8484848 79.3636364,48.1818182 78.6969697,49.4848485 L84.8787879,55.6666667 L77.7878788,62.7272727 C77.6363636,62.8787879 77.4848485,63.030303 77.3333333,63.1818182 L74.5454545,65.969697 C74.5454545,65.7878788 74.5454545,65.6363636 74.5454545,65.4545455 C74.5454545,62.5757576 73.969697,59.8181818 72.9393939,57.2727273 L74.5757576,55.6363636 L69.5151515,50.5757576 L71.0909091,48.1212121 C72.4848485,45.9393939 73.4848485,43.5454545 74.030303,41.030303 L74.6666667,38.1818182 L81.8181818,38.1818182 L81.8181818,34.5454545 L74.6666667,34.5454545 L74.030303,31.6969697 C73.4848485,29.1818182 72.4848485,26.7878788 71.0909091,24.6060606 L69.5151515,22.1515152 L74.5757576,17.0909091 L72,14.5151515 L66.9393939,19.5757576 L64.4848485,18 C62.3030303,16.6060606 59.9393939,15.6060606 57.3939394,15.0606061 L54.5454545,14.4545455 L54.5454545,7.27272727 L50.9090909,7.27272727 L50.9090909,14.4242424 L48.0606061,15.0606061 C45.5454545,15.6060606 43.1515152,16.6060606 40.969697,18 L38.5151515,19.5757576 L33.4545455,14.5151515 L30.8787879,17.0909091 L35.9393939,22.1515152 L34.3636364,24.6060606 C32.969697,26.7878788 31.969697,29.1818182 31.4242424,31.6969697 L30.7878788,34.5454545 L23.6363636,34.5454545 L23.6363636,38.1818182 L30.7878788,38.1818182 L31.4242424,41.030303 C31.969697,43.5454545 32.969697,45.9393939 34.3636364,48.1212121 L35.9393939,50.5757576 L30.8787879,55.6363636 L32.5151515,57.2727273 C31.4848485,59.7878788 30.9090909,62.5454545 30.9090909,65.4545455 C30.9090909,65.6363636 30.9090909,65.7878788 30.9090909,65.969697 L28.1212121,63.1818182 C27.969697,63.030303 27.8181818,62.8787879 27.6363636,62.6969697 L20.5454545,55.6060606 L26.7272727,49.4242424 C26.0909091,48.1818182 25.5454545,46.8484848 25.0909091,45.4545455 Z M45.4545455,36.3636364 C45.4545455,32.3636364 48.7272727,29.0909091 52.7272727,29.0909091 C56.7272727,29.0909091 60,32.3636364 60,36.3636364 C60,40.3636364 56.7272727,43.6363636 52.7272727,43.6363636 C56.5454545,43.6363636 60.1515152,44.6363636 63.2727273,46.3636364 C65.7575758,43.7575758 67.2727273,40.2424242 67.2727273,36.3636364 C67.2727273,28.3333333 60.7575758,21.8181818 52.7272727,21.8181818 C44.6969697,21.8181818 38.1818182,28.3333333 38.1818182,36.3636364 C38.1818182,40.2424242 39.6969697,43.7575758 42.1818182,46.3636364 C45.3030303,44.6363636 48.9090909,43.6363636 52.7272727,43.6363636 C48.7272727,43.6363636 45.4545455,40.3636364 45.4545455,36.3636364 Z M76.3636364,74.5454545 C76.3636364,67.5151515 82.0606061,61.8181818 89.0909091,61.8181818 C96.1212121,61.8181818 101.818182,67.5151515 101.818182,74.5454545 C101.818182,81.5757576 96.1212121,87.2727273 89.0909091,87.2727273 C82.0606061,87.2727273 76.3636364,81.5757576 76.3636364,74.5454545 Z M16.3636364,87.2727273 C23.3939394,87.2727273 29.0909091,81.5757576 29.0909091,74.5454545 C29.0909091,67.5151515 23.3939394,61.8181818 16.3636364,61.8181818 C9.33333333,61.8181818 3.63636364,67.5151515 3.63636364,74.5454545 C3.63636364,81.5757576 9.33333333,87.2727273 16.3636364,87.2727273 Z M93.6363636,90.9090909 L84.5454545,90.9090909 C81.3333333,90.9090909 78.3939394,92.2121212 76.2727273,94.3030303 C78.4545455,97.5757576 79.7575758,101.484848 79.7575758,105.69697 L79.7575758,112.727273 L105.454545,112.727273 L105.454545,102.727273 C105.454545,96.2121212 100.181818,90.9090909 93.6363636,90.9090909 Z M25.7272727,105.69697 C25.7272727,101.484848 27,97.5454545 29.2121212,94.3030303 C27.0909091,92.2121212 24.1515152,90.9090909 20.9393939,90.9090909 L11.8181818,90.9090909 C5.3030303,90.9090909 0,96.2121212 0,102.727273 L0,112.727273 L25.7272727,112.727273 L25.7272727,105.69697 L25.7272727,105.69697 Z" id="Shape" opacity="0.65"></path>
            <path d="M34.5454545,65.4545455 C34.5454545,55.4242424 42.6969697,47.2727273 52.7272727,47.2727273 C62.7575758,47.2727273 70.9090909,55.4242424 70.9090909,65.4545455 C70.9090909,75.4848485 62.7575758,83.6363636 52.7272727,83.6363636 C42.6969697,83.6363636 34.5454545,75.4848485 34.5454545,65.4545455 Z M76.0909091,105.69697 L76.0909091,120 L57.8787879,120 L54.7575758,101.69697 C54.0909091,101.878788 53.3939394,102 52.6666667,102 C51.9393939,102 51.2424242,101.878788 50.5757576,101.69697 L47.5454545,120 L29.3333333,120 L29.3333333,105.69697 C29.3333333,96.3939394 36.8787879,88.8181818 46.2121212,88.8181818 L59.2424242,88.8181818 C68.5454545,88.8181818 76.0909091,96.3939394 76.0909091,105.69697 Z M56.3636364,94.6969697 C56.3636364,94.030303 56.1818182,93.3939394 55.8787879,92.8787879 L49.5151515,92.8787879 C49.2121212,93.4242424 49.030303,94.030303 49.030303,94.6969697 C49.030303,96.7272727 50.6666667,98.3636364 52.6969697,98.3636364 C54.7272727,98.3636364 56.3636364,96.7272727 56.3636364,94.6969697 Z" id="Shape"></path>
        </g>
    </g>
</svg>