<?xml version="1.0" encoding="UTF-8"?>
<svg width="128px" height="128px" viewBox="0 0 128 128" version="1.1" xmlns="http://www.w3.org/2000/svg" xmlns:xlink="http://www.w3.org/1999/xlink">
    <title>Graphic elements / Icons / Flat icons / Marketplace / marketplace-displays-video-wall</title>
    <g id="Graphic-elements-/-Icons-/-Flat-icons-/-Marketplace-/-marketplace-displays-video-wall" stroke="none" stroke-width="1" fill-rule="evenodd">
        <g id="marketplace-displays-video-wall" transform="translate(4.000000, 24.000000)" fill-rule="nonzero">
            <path d="M34.7368421,38.6842105 L0,38.6842105 L0,0 L34.7368421,7.71052632 L34.7368421,38.6842105 Z M6.31578947,32.3684211 L28.4210526,32.3684211 L28.4210526,12.7894737 L6.31578947,7.89473684 L6.31578947,32.3684211 Z M0,80.5263158 L0,41.8421053 L34.7368421,41.8421053 L34.7368421,72.7894737 L0,80.5263158 Z M6.31578947,48.1578947 L6.31578947,72.6315789 L28.4210526,67.7105263 L28.4210526,48.1578947 L6.31578947,48.1578947 Z M120,38.6842105 L85.2631579,38.6842105 L85.2631579,7.73684211 L120,0 L120,38.6842105 Z M91.5789474,32.3684211 L113.684211,32.3684211 L113.684211,7.89473684 L91.5789474,12.8157895 L91.5789474,32.3684211 Z M120,80.5263158 L85.2631579,72.8157895 L85.2631579,41.8421053 L120,41.8421053 L120,80.5263158 Z M91.5789474,67.7368421 L113.684211,72.6578947 L113.684211,48.1842105 L91.5789474,48.1842105 L91.5789474,67.7368421 Z M82.1052632,38.6842105 L37.8947368,38.6842105 L37.8947368,7.10526316 L82.1052632,7.10526316 L82.1052632,38.6842105 Z M44.2105263,32.3684211 L75.7894737,32.3684211 L75.7894737,13.4210526 L44.2105263,13.4210526 L44.2105263,32.3684211 Z M82.1052632,73.4210526 L37.8947368,73.4210526 L37.8947368,41.8421053 L82.1052632,41.8421053 L82.1052632,73.4210526 Z M44.2105263,67.1052632 L75.7894737,67.1052632 L75.7894737,48.1578947 L44.2105263,48.1578947 L44.2105263,67.1052632 Z" id="Shape"></path>
            <path d="M56.8421053,16.5789474 L72.6315789,16.5789474 L72.6315789,24.6052632 C71.2368421,19.8947368 62.9210526,17.5526316 56.8421053,16.5789474 Z M72.6315789,59.3421053 L72.6315789,51.3157895 L56.8421053,51.3157895 C62.9210526,52.2894737 71.2368421,54.6315789 72.6315789,59.3421053 Z M26.2368421,26.0526316 L26.2368421,14.7368421 L14.0263158,12.0526316 C20.1315789,14.4210526 25.3684211,20.2105263 26.2368421,26.0526316 Z M26.2368421,60.7894737 L26.2368421,50.3684211 L14.0263158,50.3684211 C21,51.4473684 25.5526316,55.2105263 26.2368421,60.7894737 Z M111.578947,22.8947368 L111.578947,10.7894737 L100.578947,13.0789474 C107.236842,12.8947368 110.973684,16.6842105 111.578947,22.8947368 Z M111.552632,50.3684211 L100.263158,50.3684211 C106.947368,51.4210526 110.815789,54.8684211 111.578947,60.7894737 L111.552632,50.3684211 Z" id="Shape" opacity="0.65"></path>
        </g>
    </g>
</svg>