<?xml version="1.0" encoding="UTF-8"?>
<svg width="128px" height="128px" viewBox="0 0 128 128" version="1.1" xmlns="http://www.w3.org/2000/svg" xmlns:xlink="http://www.w3.org/1999/xlink">
    <title>Graphic elements / Icons / Flat icons / Marketplace / marketplace-mgmt-software-psim</title>
    <g id="Graphic-elements-/-Icons-/-Flat-icons-/-Marketplace-/-marketplace-mgmt-software-psim" stroke="none" stroke-width="1" fill-rule="evenodd">
        <g id="marketplace-mgmt-software-psim" transform="translate(13.000000, 4.000000)" fill-rule="nonzero">
            <path d="M78.1818182,50.9090909 L23.6363636,50.9090909 L23.6363636,32.7272727 L78.1818182,32.7272727 L78.1818182,50.9090909 Z M30.9090909,43.6363636 L70.9090909,43.6363636 L70.9090909,40 L30.9090909,40 L30.9090909,43.6363636 Z M54.5454545,95.0909091 L54.5454545,54.5454545 L47.2727273,54.5454545 L47.2727273,95.0909091 C42.030303,96.6666667 38.1818182,101.515152 38.1818182,107.272727 C38.1818182,114.30303 43.8787879,120 50.9090909,120 C57.9393939,120 63.6363636,114.30303 63.6363636,107.272727 C63.6363636,101.515152 59.7878788,96.6363636 54.5454545,95.0909091 Z M50.9090909,112.727273 C47.9090909,112.727273 45.4545455,110.272727 45.4545455,107.272727 C45.4545455,104.272727 47.9090909,101.818182 50.9090909,101.818182 C53.9090909,101.818182 56.3636364,104.272727 56.3636364,107.272727 C56.3636364,110.272727 53.9090909,112.727273 50.9090909,112.727273 Z M80,83.6363636 C77.1515152,83.6363636 74.5454545,84.5757576 72.4242424,86.1515152 L69.0909091,83.6363636 L69.0909091,54.5454545 L61.8181818,54.5454545 L61.8181818,87.2727273 L68.0606061,91.969697 C67.5454545,93.3333333 67.2727273,94.8181818 67.2727273,96.3636364 C67.2727273,103.393939 72.969697,109.090909 80,109.090909 C87.030303,109.090909 92.7272727,103.393939 92.7272727,96.3636364 C92.7272727,89.3333333 87.030303,83.6363636 80,83.6363636 Z M80,101.818182 C77,101.818182 74.5454545,99.3636364 74.5454545,96.3636364 C74.5454545,93.3636364 77,90.9090909 80,90.9090909 C83,90.9090909 85.4545455,93.3636364 85.4545455,96.3636364 C85.4545455,99.3636364 83,101.818182 80,101.818182 Z M40,87.2727273 L40,54.5454545 L32.7272727,54.5454545 L32.7272727,83.6363636 L29.3939394,86.1515152 C27.2727273,84.5757576 24.6666667,83.6363636 21.8181818,83.6363636 C14.7878788,83.6363636 9.09090909,89.3333333 9.09090909,96.3636364 C9.09090909,103.393939 14.7878788,109.090909 21.8181818,109.090909 C28.8484848,109.090909 34.5454545,103.393939 34.5454545,96.3636364 C34.5454545,94.8181818 34.2727273,93.3333333 33.7575758,91.969697 L40,87.2727273 Z M21.8181818,101.818182 C18.8181818,101.818182 16.3636364,99.3636364 16.3636364,96.3636364 C16.3636364,93.3636364 18.8181818,90.9090909 21.8181818,90.9090909 C24.8181818,90.9090909 27.2727273,93.3636364 27.2727273,96.3636364 C27.2727273,99.3636364 24.8181818,101.818182 21.8181818,101.818182 Z" id="Shape"></path>
            <path d="M25.4545455,12.7272727 C25.4545455,11.7272727 26.2727273,10.9090909 27.2727273,10.9090909 C28.2727273,10.9090909 29.0909091,11.7272727 29.0909091,12.7272727 C29.0909091,13.7272727 28.2727273,14.5454545 27.2727273,14.5454545 C26.2727273,14.5454545 25.4545455,13.7272727 25.4545455,12.7272727 Z M20,14.5454545 C21,14.5454545 21.8181818,13.7272727 21.8181818,12.7272727 C21.8181818,11.7272727 21,10.9090909 20,10.9090909 C19,10.9090909 18.1818182,11.7272727 18.1818182,12.7272727 C18.1818182,13.7272727 19,14.5454545 20,14.5454545 Z M101.818182,0 L101.818182,76.3636364 L72.7272727,76.3636364 L72.7272727,69.0909091 L94.5454545,69.0909091 L94.5454545,25.3030303 L7.27272727,25.3030303 L7.27272727,69.0909091 L29.0909091,69.0909091 L29.0909091,76.3636364 L0,76.3636364 L0,0 L101.818182,0 Z M94.5454545,7.27272727 L7.27272727,7.27272727 L7.27272727,18.030303 L94.5454545,18.030303 L94.5454545,7.27272727 Z M12.7272727,14.5454545 C13.7272727,14.5454545 14.5454545,13.7272727 14.5454545,12.7272727 C14.5454545,11.7272727 13.7272727,10.9090909 12.7272727,10.9090909 C11.7272727,10.9090909 10.9090909,11.7272727 10.9090909,12.7272727 C10.9090909,13.7272727 11.7272727,14.5454545 12.7272727,14.5454545 Z" id="Shape" opacity="0.65"></path>
        </g>
    </g>
</svg>