<?xml version="1.0" encoding="UTF-8"?>
<svg width="128px" height="128px" viewBox="0 0 128 128" version="1.1" xmlns="http://www.w3.org/2000/svg" xmlns:xlink="http://www.w3.org/1999/xlink">
    <title>Graphic elements / Icons / Flat icons / Marketplace / marketplace-analytics-tripwire</title>
    <g id="Graphic-elements-/-Icons-/-Flat-icons-/-Marketplace-/-marketplace-analytics-tripwire" stroke="none" stroke-width="1" fill-rule="evenodd">
        <g id="marketplace-analytics-tripwire" transform="translate(4.000000, 4.000000)" fill-rule="nonzero">
            <path d="M60,55.2631579 C58.6052632,55.2631579 57.3421053,55.8684211 56.4736842,56.8421053 L0,56.8421053 L0,63.1578947 L56.4736842,63.1578947 C57.3421053,64.1315789 58.6052632,64.7368421 60,64.7368421 C62.6052632,64.7368421 64.7368421,62.6052632 64.7368421,60 C64.7368421,57.3947368 62.6052632,55.2631579 60,55.2631579 Z" id="Path"></path>
            <path d="M49.9473684,52.1842105 L23.1578947,25.3947368 L25.3947368,23.1578947 L52.1842105,49.9473684 L49.9473684,52.1842105 Z M48.8684211,66.3157895 L40.6052632,66.3157895 L24.3684211,73.0526316 L25.5789474,75.9736842 L48.8684211,66.3157895 Z M24.3947368,46.9473684 L40.6315789,53.6842105 L48.8947368,53.6842105 L25.6052632,44.0526316 L24.3947368,46.9473684 Z M75.9473684,25.6052632 L73.0263158,24.3947368 L63.3684211,47.7368421 L66.2894737,48.9473684 L75.9473684,25.6052632 Z M70.0526316,52.1842105 L96.8421053,25.3947368 L94.6052632,23.1578947 L67.8157895,49.9473684 L70.0526316,52.1842105 Z M94.3947368,44.0526316 L71.0526316,53.7105263 L72.2631579,56.6315789 L95.6052632,46.9736842 L94.3947368,44.0526316 Z M94.3947368,75.9473684 L95.6052632,73.0263158 L72.2631579,63.3684211 L71.0526316,66.2894737 L94.3947368,75.9473684 Z M49.9473684,67.8157895 L23.1578947,94.6052632 L25.3947368,96.8421053 L52.1842105,70.0526316 L49.9473684,67.8157895 Z M67.8157895,70.0526316 L94.6052632,96.8421053 L96.8421053,94.6052632 L70.0526316,67.8157895 L67.8157895,70.0526316 Z M63.3684211,72.2631579 L73.0263158,95.6052632 L75.9473684,94.3947368 L66.2894737,71.0526316 L63.3684211,72.2631579 Z M72.6315789,58.4210526 L72.6315789,61.5789474 L110.526316,61.5789474 L110.526316,58.4210526 L72.6315789,58.4210526 Z M44.0526316,25.6052632 L53.7105263,48.9473684 L56.6315789,47.7368421 L46.9736842,24.3947368 L44.0526316,25.6052632 Z M44.0526316,94.3947368 L46.9736842,95.6052632 L56.6315789,72.2631579 L53.7105263,71.0526316 L44.0526316,94.3947368 Z M58.4210526,110.526316 L61.5789474,110.526316 L61.5789474,72.6315789 L58.4210526,72.6315789 L58.4210526,110.526316 Z M58.4210526,47.3684211 L61.5789474,47.3684211 L61.5789474,9.47368421 L58.4210526,9.47368421 L58.4210526,47.3684211 Z" id="Shape"></path>
            <path d="M102.421053,17.5789474 C91.1052632,6.23684211 76.0263158,0 60,0 C43.9736842,0 28.8947368,6.23684211 17.5789474,17.5789474 C7.73684211,27.3947368 1.73684211,40.0526316 0.315789474,53.6842105 L6.68421053,53.6842105 C9.81578947,27.0526316 32.5263158,6.31578947 60,6.31578947 C89.6052632,6.31578947 113.684211,30.3947368 113.684211,60 C113.684211,89.6052632 89.6052632,113.684211 60,113.684211 C32.5263158,113.684211 9.81578947,92.9473684 6.68421053,66.3157895 L0.315789474,66.3157895 C1.73684211,79.9473684 7.73684211,92.6052632 17.5526316,102.421053 C28.8947368,113.763158 43.9736842,120 60,120 C76.0263158,120 91.1052632,113.763158 102.421053,102.421053 C113.736842,91.0789474 120,76.0263158 120,60 C120,43.9736842 113.763158,28.8947368 102.421053,17.5789474 Z" id="Path" opacity="0.65"></path>
        </g>
    </g>
</svg>