<?xml version="1.0" encoding="UTF-8"?>
<svg width="128px" height="128px" viewBox="0 0 128 128" version="1.1" xmlns="http://www.w3.org/2000/svg" xmlns:xlink="http://www.w3.org/1999/xlink">
    <title>Graphic elements / Icons / Flat icons / Marketplace / marketplace-analytics-heatmapping</title>
    <g id="Graphic-elements-/-Icons-/-Flat-icons-/-Marketplace-/-marketplace-analytics-heatmapping" stroke="none" stroke-width="1" fill-rule="evenodd">
        <g id="marketplace-analytics-heatmapping" transform="translate(4.000000, 4.000000)" fill-rule="nonzero">
            <path d="M0.110854503,0 L0.110854503,119.722864 L119.833718,119.722864 L119.833718,0 L0.110854503,0 Z M113.182448,49.8845266 L76.7667436,49.8845266 L76.7667436,38.1339492 L70.1154734,38.1339492 L70.1154734,52.1293303 L70.1154734,56.5357968 L70.1154734,66.6512702 L60.0554273,66.6512702 C59.9722864,70.1709007 57.0900693,73.0254042 53.5427252,73.0254042 L53.5427252,73.3025404 L70.1154734,73.3025404 L70.1154734,86.4665127 L76.7667436,86.4665127 L76.7667436,56.5357968 L113.182448,56.5357968 L113.182448,113.071594 L76.7667436,113.071594 L76.7667436,99.5750577 L70.1154734,99.5750577 L70.1154734,113.071594 L6.76212471,113.071594 L6.76212471,73.3025404 L36.8591224,73.3025404 L36.8591224,66.6512702 L6.76212471,66.6512702 L6.76212471,45.6997691 C6.04157044,44.4803695 5.62586605,43.0669746 5.62586605,41.5981524 C5.62586605,40.1293303 6.01385681,38.743649 6.76212471,37.4965358 L6.76212471,6.65127021 L70.1154734,6.65127021 L70.1154734,20.6189376 L76.7667436,20.6189376 L76.7667436,6.65127021 L113.182448,6.65127021 L113.182448,49.8845266 Z" id="Shape" opacity="0.65"></path>
            <path d="M36.7205543,16.6281755 C36.7205543,15.7690531 36.5542725,14.965358 36.2494226,14.1893764 C37.0531178,12.8591224 38.52194,12 40.1847575,12 C42.7344111,12 44.812933,14.0785219 44.812933,16.6281755 C44.812933,19.1778291 42.7344111,21.256351 40.1847575,21.256351 C38.52194,21.256351 37.0531178,20.369515 36.2494226,19.0669746 C36.5542725,18.2909931 36.7205543,17.4872979 36.7205543,16.6281755 Z M36.8591224,51.2979215 C33.9769053,51.2979215 31.6212471,53.6258661 31.6212471,56.5357968 C31.6212471,59.4180139 33.9491917,61.7736721 36.8591224,61.7736721 C39.7690531,61.7736721 42.0969977,59.4457275 42.0969977,56.5357968 C42.0969977,53.6535797 39.7413395,51.2979215 36.8591224,51.2979215 Z M18.6789838,26.6605081 C15.7967667,26.6605081 13.4411085,28.9884527 13.4411085,31.8983834 C13.4411085,32.5080831 13.551963,33.1177829 13.7459584,33.6720554 C15.7967667,33.7274827 17.7090069,34.5311778 19.1778291,36 C19.482679,36.3048499 19.7321016,36.6096998 19.9815242,36.9422633 C22.2263279,36.3602771 23.8891455,34.3094688 23.8891455,31.8983834 C23.9168591,28.9884527 21.5612009,26.6605081 18.6789838,26.6605081 Z M30.2078522,42.8452656 C31.039261,42.8452656 31.8152425,42.7344111 32.591224,42.5404157 C32.2863741,41.7090069 32.147806,40.8221709 32.147806,39.9076212 C32.147806,37.8013857 32.9792148,35.8060046 34.4757506,34.2817552 C35.7228637,33.034642 37.2748268,32.2586605 38.9930716,32.0369515 C39.0762125,31.5103926 39.2147806,31.0115473 39.3810624,30.5127021 C38.1893764,26.5773672 34.5311778,23.6951501 30.2078522,23.6951501 C28.0461894,23.6951501 26.0785219,24.4157044 24.4711316,25.6073903 C26.1616628,27.1593533 27.2424942,29.404157 27.2424942,31.8983834 C27.2424942,35.113164 25.4688222,37.9122402 22.8360277,39.3810624 C24.5819861,41.4872979 27.2424942,42.8452656 30.2078522,42.8452656 Z M27.0207852,78.4849885 C25.8013857,78.4849885 24.6374134,78.9838337 23.7505774,79.8429561 C21.9491917,81.6443418 21.9491917,84.5819861 23.7505774,86.3833718 C24.6096998,87.2424942 25.8013857,87.7413395 27.0207852,87.7413395 C27.8244804,87.7413395 28.6004619,87.5473441 29.2933025,87.1316397 C28.6558891,85.9399538 28.295612,84.5819861 28.295612,83.1408776 C28.295612,81.6720554 28.6558891,80.3140878 29.3210162,79.0946882 C28.6281755,78.7066975 27.8244804,78.4849885 27.0207852,78.4849885 Z M41.5427252,23.2794457 C41.5427252,24.3602771 42.4295612,25.2471132 43.5103926,25.2471132 C44.591224,25.2471132 45.47806,24.3602771 45.47806,23.2794457 C45.47806,22.1986143 44.591224,21.3117783 43.5103926,21.3117783 C42.4295612,21.3117783 41.5427252,22.1986143 41.5427252,23.2794457 Z M43.5658199,36.5265589 C44.4249423,37.3856813 45.6166282,37.8845266 46.8360277,37.8845266 C48.0554273,37.8845266 49.2193995,37.3856813 50.1062356,36.5265589 C50.9930716,35.6674365 51.4642032,34.4757506 51.4642032,33.256351 C51.4642032,32.0369515 50.965358,30.8729792 50.1062356,29.9861432 C49.2471132,29.1270208 48.0554273,28.6281755 46.8360277,28.6281755 C45.6166282,28.6281755 44.4526559,29.1270208 43.5658199,29.9861432 C41.7644342,31.7875289 41.7644342,34.7251732 43.5658199,36.5265589 Z M49.4411085,71.556582 C48,70.3926097 47.0854503,68.6189376 47.0300231,66.6512702 C46.9468822,66.6512702 46.8637413,66.6512702 46.7528868,66.6512702 C44.9792148,66.6512702 43.5658199,68.0646651 43.5658199,69.8383372 C43.5658199,71.6120092 45.0069284,73.0254042 46.7528868,73.0254042 C47.9168591,73.0254042 48.886836,72.443418 49.4411085,71.556582 Z M44.591224,40.8775982 C43.3163972,40.517321 42.1524249,39.8244804 41.2101617,38.8545035 C40.2124711,37.8568129 39.5196305,36.6374134 39.187067,35.3625866 C38.3002309,35.556582 37.4965358,35.9722864 36.8314088,36.6374134 C35.9722864,37.4965358 35.4734411,38.6882217 35.4734411,39.9076212 C35.4734411,41.1270208 35.9722864,42.2909931 36.8314088,43.1778291 C37.6905312,44.0646651 38.8822171,44.5357968 40.1016166,44.5357968 C41.3210162,44.5357968 42.4849885,44.0646651 43.3718245,43.1778291 C44.0092379,42.5404157 44.4249423,41.7367206 44.591224,40.8775982 Z M88.1016166,63.187067 C88.1016166,64.2678984 88.9884527,65.1547344 90.0692841,65.1547344 C91.1501155,65.1547344 92.0369515,64.2678984 92.0369515,63.187067 C92.0369515,62.1062356 91.1501155,61.2193995 90.0692841,61.2193995 C88.9884527,61.2193995 88.1016166,62.1062356 88.1016166,63.187067 Z M86.743649,41.8752887 C87.8244804,41.8752887 88.7113164,40.9884527 88.7113164,39.9076212 C88.7113164,38.8267898 87.8244804,37.9399538 86.743649,37.9399538 C85.6628176,37.9399538 84.7759815,38.8267898 84.7759815,39.9076212 C84.7759815,40.9884527 85.6628176,41.8752887 86.743649,41.8752887 Z M103.371824,25.2471132 C104.452656,25.2471132 105.339492,24.3602771 105.339492,23.2794457 C105.339492,22.1986143 104.452656,21.3117783 103.371824,21.3117783 C102.290993,21.3117783 101.404157,22.1986143 101.404157,23.2794457 C101.404157,24.3602771 102.290993,25.2471132 103.371824,25.2471132 Z M56.7297921,66.5127021 C56.7297921,64.73903 55.2886836,63.3256351 53.5427252,63.3256351 C51.7690531,63.3256351 50.3556582,64.7667436 50.3556582,66.5127021 C50.3556582,68.2863741 51.7967667,69.6997691 53.5427252,69.6997691 C55.3163972,69.6997691 56.7297921,68.2586605 56.7297921,66.5127021 Z M56.812933,38.5496536 C57.8937644,38.5496536 58.7806005,37.6628176 58.7806005,36.5819861 C58.7806005,35.5011547 57.8937644,34.6143187 56.812933,34.6143187 C55.7321016,34.6143187 54.8452656,35.5011547 54.8452656,36.5819861 C54.8452656,37.6628176 55.7321016,38.5496536 56.812933,38.5496536 Z M51.5196305,79.8983834 C51.5196305,80.9792148 52.4064665,81.8660508 53.4872979,81.8660508 C54.5681293,81.8660508 55.4549654,80.9792148 55.4549654,79.8983834 C55.4549654,78.817552 54.5681293,77.9307159 53.4872979,77.9307159 C52.4064665,77.9307159 51.5196305,78.817552 51.5196305,79.8983834 Z M47.5011547,42.7898383 C47.113164,43.7875289 46.5311778,44.7020785 45.7274827,45.5057737 C45.6997691,45.5334873 45.6720554,45.5612009 45.6443418,45.5889145 C45.3394919,47.0577367 45.7551963,48.6928406 46.891455,49.8290993 C47.7505774,50.6882217 48.9422633,51.187067 50.1616628,51.187067 C51.3810624,51.187067 52.5450346,50.6882217 53.4318707,49.8290993 C54.3187067,48.9699769 54.7898383,47.778291 54.7898383,46.5588915 C54.7898383,45.3394919 54.2909931,44.1755196 53.4318707,43.2886836 C52.5727483,42.4295612 51.3810624,41.9307159 50.1616628,41.9307159 C49.1916859,41.9307159 48.2771363,42.2355658 47.5011547,42.7898383 Z M68.8406467,83.1408776 C68.8406467,80.2586605 66.5127021,77.9030023 63.6027714,77.9030023 C60.7205543,77.9030023 58.3648961,80.2309469 58.3648961,83.1408776 C58.3648961,83.2240185 58.3648961,83.3071594 58.3648961,83.3903002 C60.7482679,84 62.6327945,85.9122402 63.1593533,88.3510393 C63.2979215,88.3510393 63.4364896,88.3787529 63.5750577,88.3787529 C66.4849885,88.3787529 68.8406467,86.0230947 68.8406467,83.1408776 Z M56.812933,86.52194 C55.039261,86.52194 53.6258661,87.9353349 53.6258661,89.7090069 C53.6258661,91.482679 55.0669746,92.8960739 56.812933,92.8960739 C58.5866051,92.8960739 60,91.482679 60,89.7090069 C60,87.9353349 58.5588915,86.52194 56.812933,86.52194 Z M66.7898383,89.9307159 C65.0161663,89.9307159 63.6027714,91.3718245 63.6027714,93.1177829 C63.6027714,94.891455 65.0438799,96.3048499 66.7898383,96.3048499 C68.5357968,96.3048499 69.9769053,94.891455 69.9769053,93.1177829 C69.9769053,91.3441109 68.5635104,89.9307159 66.7898383,89.9307159 Z M50.3002309,89.7090069 C50.3002309,87.9076212 51.0207852,86.3002309 52.2124711,85.108545 C50.6882217,84.1108545 48.886836,83.5288684 46.9468822,83.5288684 C46.4203233,83.5288684 45.9214781,83.5842956 45.3949192,83.6674365 C45.1454965,87.9353349 41.7367206,91.3718245 37.4688222,91.6766744 C37.3856813,92.147806 37.3579677,92.6189376 37.3579677,93.1177829 C37.3579677,98.4110855 41.6535797,102.706697 46.9468822,102.706697 C51.1593533,102.706697 54.7621247,99.9630485 56.0369515,96.1939954 C52.7944573,95.778291 50.3002309,93.034642 50.3002309,89.7090069 Z M50.1616628,104.452656 C49.0808314,104.452656 48.1939954,105.339492 48.1939954,106.420323 C48.1939954,107.501155 49.0808314,108.387991 50.1616628,108.387991 C51.2424942,108.387991 52.1293303,107.501155 52.1293303,106.420323 C52.1293303,105.339492 51.2424942,104.452656 50.1616628,104.452656 Z M103.371824,74.52194 C102.290993,74.52194 101.404157,75.408776 101.404157,76.4896074 C101.404157,77.5704388 102.290993,78.4572748 103.371824,78.4572748 C104.452656,78.4572748 105.339492,77.5704388 105.339492,76.4896074 C105.339492,75.408776 104.452656,74.52194 103.371824,74.52194 Z M93.3949192,80.2032333 C88.1016166,80.2032333 83.8060046,84.4988453 83.8060046,89.7921478 C83.8060046,95.0854503 88.1016166,99.3810624 93.3949192,99.3810624 C98.6882217,99.3810624 102.983834,95.0854503 102.983834,89.7921478 C102.983834,84.4988453 98.6882217,80.2032333 93.3949192,80.2032333 Z M70.1154734,24.6928406 C69.034642,24.6928406 68.147806,25.5796767 68.147806,26.6605081 C68.147806,27.7413395 69.034642,28.6281755 70.1154734,28.6281755 C71.1963048,28.6281755 72.0831409,27.7413395 72.0831409,26.6605081 C72.0831409,25.5796767 71.1963048,24.6928406 70.1154734,24.6928406 Z M27.0207852,91.0669746 C24.9145497,91.0669746 22.9191686,90.2355658 21.3949192,88.73903 C21.3394919,88.6836028 21.2840647,88.6281755 21.2286374,88.5727483 C19.5381062,89.4318707 18.4018476,91.1778291 18.4295612,93.1732102 C18.4572748,95.9722864 20.7575058,98.2448037 23.556582,98.2448037 L23.6120092,98.2448037 C24.9699769,98.2448037 26.2448037,97.6905312 27.2147806,96.7205543 C28.1570439,95.7505774 28.6836028,94.448037 28.6836028,93.0900693 C28.6836028,92.3418014 28.4896074,91.6212471 28.2124711,90.9838337 C27.7967667,91.039261 27.408776,91.0669746 27.0207852,91.0669746 Z M13.5796767,77.8475751 C12.4988453,77.8475751 11.6120092,78.7344111 11.6120092,79.8152425 C11.6120092,80.8960739 12.4988453,81.7829099 13.5796767,81.7829099 C14.6605081,81.7829099 15.5473441,80.8960739 15.5473441,79.8152425 C15.5473441,78.7344111 14.6605081,77.8475751 13.5796767,77.8475751 Z M18.6789838,23.334873 C19.6489607,23.334873 20.5635104,23.5011547 21.4503464,23.8060046 C22.6420323,22.6974596 24.0554273,21.8106236 25.5796767,21.2286374 C24.4157044,20.0646651 23.6951501,18.4295612 23.6951501,16.6558891 C23.6951501,14.8267898 24.4711316,13.1639723 25.6905312,11.9722864 C24.1385681,10.891455 22.2540416,10.2540416 20.2309469,10.2540416 C14.9376443,10.2540416 10.6420323,14.5496536 10.6420323,19.8429561 C10.6420323,22.0877598 11.4180139,24.1662818 12.7205543,25.8013857 C14.2725173,24.2494226 16.3787529,23.334873 18.6789838,23.334873 Z M13.5796767,36.9699769 C12.3602771,36.9699769 11.1963048,37.4688222 10.3094688,38.3279446 C8.50808314,40.1293303 8.50808314,43.0669746 10.3094688,44.8683603 C11.1685912,45.7274827 12.3602771,46.2263279 13.5796767,46.2263279 C14.7990762,46.2263279 15.9630485,45.7551963 16.8498845,44.8683603 C18.6512702,43.0669746 18.6512702,40.1293303 16.8498845,38.3279446 C15.9630485,37.4688222 14.7990762,36.9699769 13.5796767,36.9699769 Z M23.556582,104.452656 C22.4757506,104.452656 21.5889145,105.339492 21.5889145,106.420323 C21.5889145,107.501155 22.4757506,108.387991 23.556582,108.387991 C24.6374134,108.387991 25.5242494,107.501155 25.5242494,106.420323 C25.5242494,105.339492 24.6374134,104.452656 23.556582,104.452656 Z M30.2078522,19.8152425 C31.9815242,19.8152425 33.3949192,18.3741339 33.3949192,16.6281755 C33.3949192,14.8545035 31.9538106,13.4411085 30.2078522,13.4411085 C28.4341801,13.4411085 27.0207852,14.8822171 27.0207852,16.6281755 C27.0207852,18.4018476 28.4618938,19.8152425 30.2078522,19.8152425 Z M33.5334873,99.5750577 C32.4526559,99.5750577 31.5658199,100.461894 31.5658199,101.542725 C31.5658199,102.623557 32.4526559,103.510393 33.5334873,103.510393 C34.6143187,103.510393 35.5011547,102.623557 35.5011547,101.542725 C35.5011547,100.43418 34.6143187,99.5750577 33.5334873,99.5750577 Z M23.556582,58.448037 C26.4387991,58.448037 28.7944573,56.1200924 28.7944573,53.2101617 C28.7944573,50.3279446 26.4665127,47.9722864 23.556582,47.9722864 C20.6466513,47.9722864 18.3187067,50.3002309 18.3187067,53.2101617 C18.3187067,56.0923788 20.6743649,58.448037 23.556582,58.448037 Z M42.0969977,83.1408776 C42.0969977,80.2586605 39.7690531,77.9030023 36.8591224,77.9030023 C33.9491917,77.9030023 31.6212471,80.2309469 31.6212471,83.1408776 C31.6212471,86.0508083 33.9491917,88.3787529 36.8591224,88.3787529 C39.7690531,88.3787529 42.0969977,86.0230947 42.0969977,83.1408776 Z" id="Shape"></path>
        </g>
    </g>
</svg>