<?xml version="1.0" encoding="UTF-8"?>
<svg width="128px" height="128px" viewBox="0 0 128 128" version="1.1" xmlns="http://www.w3.org/2000/svg" xmlns:xlink="http://www.w3.org/1999/xlink">
    <title>Graphic elements / Icons / Flat icons / Marketplace / marketplace-sensors-rfid-iot</title>
    <g id="Graphic-elements-/-Icons-/-Flat-icons-/-Marketplace-/-marketplace-sensors-rfid-iot" stroke="none" stroke-width="1" fill-rule="evenodd">
        <g id="marketplace-sensors-rfid-iot" transform="translate(11.000000, 4.000000)" fill-rule="nonzero">
            <path d="M101.398721,75.3773987 C100.656716,74.9424307 99.8891258,74.6098081 99.0959488,74.3795309 L99.0959488,45.8507463 C99.8891258,45.6204691 100.656716,45.2878465 101.398721,44.8528785 L101.398721,44.8528785 C106.541578,41.8848614 108.307036,35.3091684 105.339019,30.1663113 C102.371002,25.0234542 95.7953092,23.2835821 90.652452,26.2260128 C89.9104478,26.6609808 89.2452026,27.1471215 88.6311301,27.7100213 L63.9147122,13.4328358 C64.0938166,12.6396588 64.196162,11.7953092 64.196162,10.9509595 C64.196162,5.01492537 59.3859275,0.204690832 53.4498934,0.204690832 C47.5138593,0.204690832 42.7036247,5.01492537 42.7036247,10.9509595 C42.7036247,11.7953092 42.8059701,12.6396588 42.9850746,13.4328358 L18.2686567,27.7100213 C17.6801706,27.1471215 17.0149254,26.6353945 16.2729211,26.2004264 L16.2729211,26.2004264 C11.1556503,23.2324094 4.554371,24.9978678 1.58635394,30.1407249 C-1.38166311,35.2835821 0.383795309,41.8592751 5.52665245,44.8272921 C6.26865672,45.2622601 7.03624733,45.5692964 7.82942431,45.8251599 L7.82942431,74.3539446 C7.03624733,74.5842217 6.26865672,74.9168443 5.52665245,75.3518124 C0.409381663,78.3198294 -1.35607676,84.8955224 1.58635394,90.0383795 C3.58208955,93.4925373 7.18976546,95.4115139 10.8997868,95.4115139 C12.7164179,95.4115139 14.5586354,94.9509595 16.2473348,93.978678 C16.989339,93.54371 17.6545842,93.0575693 18.2430704,92.4690832 L42.9594883,106.746269 C42.7803838,107.539446 42.6780384,108.383795 42.6780384,109.228145 C42.6780384,115.164179 47.4882729,119.974414 53.424307,119.974414 C59.3603412,119.974414 64.1705757,115.164179 64.1705757,109.228145 C64.1705757,108.358209 64.0682303,107.539446 63.8891258,106.746269 L88.6055437,92.4690832 C89.2196162,93.0319829 89.8848614,93.54371 90.6268657,93.978678 C92.315565,94.9509595 94.1577825,95.4115139 95.9744136,95.4115139 C99.684435,95.4115139 103.317697,93.4925373 105.287846,90.0383795 C108.28145,84.9211087 106.515991,78.3454158 101.398721,75.3773987 Z M91.5735608,34.3624733 C91.880597,33.1855011 92.6481876,32.1876333 93.7228145,31.5735608 C94.4392324,31.1641791 95.2324094,30.9594883 96.0255864,30.9594883 C96.434968,30.9594883 96.8187633,31.010661 97.228145,31.1130064 C98.4051173,31.4200426 99.4029851,32.1876333 100.017058,33.2622601 C101.296375,35.4626866 100.528785,38.2771855 98.3283582,39.5565032 C96.1279318,40.8358209 93.3134328,40.0682303 92.0341151,37.8678038 C91.4200426,36.793177 91.2409382,35.565032 91.5735608,34.3624733 Z M53.4754797,6.39658849 C56.0085288,6.39658849 58.0810235,8.46908316 58.0810235,11.0021322 C58.0810235,13.5351812 56.0085288,15.6076759 53.4754797,15.6076759 C50.9424307,15.6076759 48.869936,13.5351812 48.869936,11.0021322 C48.869936,8.46908316 50.9424307,6.39658849 53.4754797,6.39658849 Z M6.93390192,33.2622601 C7.7782516,31.7782516 9.33901919,30.9594883 10.9253731,30.9594883 C11.7185501,30.9594883 12.4861407,31.1641791 13.228145,31.5735608 C15.4285714,32.8528785 16.196162,35.6673774 14.9168443,37.8678038 C13.6375267,40.0682303 10.8230277,40.8358209 8.62260128,39.5565032 C6.42217484,38.2771855 5.68017058,35.4626866 6.93390192,33.2622601 Z M15.3773987,85.8933902 C15.0703625,87.0703625 14.3027719,88.0682303 13.228145,88.6823028 C11.0277186,89.9616205 8.21321962,89.1940299 6.93390192,86.9936034 C6.31982942,85.9189765 6.1663113,84.6908316 6.47334755,83.4882729 C6.7803838,82.3113006 7.54797441,81.3134328 8.62260128,80.6993603 C9.33901919,80.2899787 10.1321962,80.0852878 10.9253731,80.0852878 C12.5117271,80.0852878 14.0724947,80.9040512 14.9168443,82.3880597 C15.5309168,83.4626866 15.684435,84.6908316 15.3773987,85.8933902 Z M53.4754797,113.859275 C50.9424307,113.859275 48.869936,111.78678 48.869936,109.253731 C48.869936,106.720682 50.9424307,104.648188 53.4754797,104.648188 C56.0085288,104.648188 58.0810235,106.720682 58.0810235,109.253731 C58.0810235,111.78678 56.0085288,113.859275 53.4754797,113.859275 Z M85.4328358,82.1321962 L85.5607676,82.2089552 C85.1769723,83.8208955 85.1769723,85.5351812 85.5607676,87.1982942 L60.8443497,101.47548 C59.641791,100.324094 58.1577825,99.4797441 56.5458422,98.9936034 L56.5458422,84.6908316 L50.4051173,84.6908316 L50.4051173,98.9680171 C48.7675906,99.4541578 47.3091684,100.324094 46.1066098,101.449893 L21.3901919,87.1727079 C21.7739872,85.5607676 21.7995736,83.8464819 21.3901919,82.1833689 L21.5181237,82.1066098 C18.7292111,80.3411514 16.4520256,77.8081023 15.0703625,74.7633262 C14.7121535,74.6098081 14.3539446,74.4818763 13.9957356,74.3795309 L13.9957356,71.5906183 C13.7142857,70.3624733 13.5607676,69.0831557 13.5607676,67.7782516 C13.5607676,66.4733475 13.7142857,65.1940299 13.9957356,63.9402985 L13.9957356,45.8251599 C15.5820896,45.3390192 17.0660981,44.5202559 18.2942431,43.3432836 L26.7377399,48.2302772 C27.3773987,46.2601279 28.3752665,44.4179104 29.6034115,42.8059701 L21.3646055,38.0469083 C21.7484009,36.3837953 21.7484009,34.6950959 21.3646055,33.0831557 L46.0810235,18.8059701 C47.2835821,19.9573561 48.7420043,20.8017058 50.3795309,21.2878465 L50.3795309,32.1108742 C52.3240938,31.08742 54.3710021,30.3454158 56.5202559,29.9104478 L56.5202559,21.3134328 C58.1577825,20.8272921 59.6162047,19.9573561 60.8187633,18.8315565 L85.5351812,33.108742 C85.1513859,34.771855 85.1513859,36.4605544 85.5351812,38.098081 L80.9296375,40.7590618 C81.978678,42.5245203 82.7974414,44.4434968 83.3603412,46.4648188 L88.6311301,43.4200426 C89.8592751,44.5970149 91.3432836,45.4157783 92.9296375,45.901919 L92.9296375,64.0426439 C93.2110874,65.2963753 93.3646055,66.575693 93.3646055,67.8550107 C93.3646055,69.1599147 93.2110874,70.4392324 92.9296375,71.6673774 L92.9296375,74.45629 C92.5714286,74.5586354 92.2132196,74.6865672 91.8550107,74.8400853 C90.4989339,77.8081023 88.2473348,80.3667377 85.4328358,82.1321962 Z M100.017058,86.9936034 C99.4029851,88.0682303 98.4051173,88.8102345 97.228145,89.1428571 C96.0511727,89.4498934 94.7974414,89.2963753 93.7228145,88.6823028 C92.6481876,88.0682303 91.9061834,87.0703625 91.5735608,85.8933902 C91.2665245,84.7164179 91.4200426,83.4626866 92.0341151,82.3880597 C92.8784648,80.9040512 94.4392324,80.0852878 96.0255864,80.0852878 C96.793177,80.0852878 97.5863539,80.2899787 98.3283582,80.6993603 C99.4029851,81.3134328 100.144989,82.3113006 100.477612,83.4882729 C100.784648,84.6908316 100.63113,85.9189765 100.017058,86.9936034 Z" id="Shape" opacity="0.65"></path>
            <path d="M80.9808102,54.7292111 C81.0575693,53.9872068 81.108742,53.2196162 81.108742,52.4520256 C81.108742,41.4498934 72.1535181,32.4946695 61.1513859,32.4946695 C55.5223881,32.4946695 50.3027719,34.8997868 46.5927505,38.8144989 C45.8251599,38.6865672 45.0319829,38.6353945 44.2643923,38.6353945 C35.7953092,38.6353945 28.91258,45.5181237 28.91258,53.9872068 C28.91258,54.0127932 28.91258,54.0383795 28.91258,54.0639659 C22.0042644,54.8315565 16.6311301,60.6908316 16.6311301,67.803838 C16.6311301,75.4285714 22.8230277,81.6204691 30.4477612,81.6204691 L76.5031983,81.6204691 C84.1279318,81.6204691 90.3198294,75.4285714 90.3198294,67.803838 C90.3198294,61.8166311 86.4051173,56.6226013 80.9808102,54.7292111 Z M76.5031983,75.4797441 L30.4477612,75.4797441 C26.2260128,75.4797441 22.771855,72.0255864 22.771855,67.803838 C22.771855,63.5820896 26.2260128,60.1279318 30.4477612,60.1279318 C34.6695096,60.1279318 38.1236674,63.5820896 38.1236674,67.803838 L44.2643923,67.803838 C44.2643923,61.8166311 40.4264392,56.6993603 35.0788913,54.7803838 C35.0533049,54.5245203 35.0533049,54.2430704 35.0533049,53.9872068 C35.0533049,49.4584222 38.3539446,45.6716418 42.6780384,44.9296375 C42.3965885,45.5948827 42.1663113,46.3113006 41.9616205,47.0277186 L47.8720682,48.6908316 C49.5351812,42.7803838 55.010661,38.6353945 61.1769723,38.6353945 C68.8017058,38.6353945 74.9936034,44.8272921 74.9936034,52.4520256 C74.9936034,55.6503198 73.8678038,58.771855 71.8464819,61.2537313 L76.5799574,65.1684435 C77.7057569,63.7867804 78.652452,62.3027719 79.3688699,60.6908316 C82.2089552,61.8422175 84.2046908,64.6311301 84.2046908,67.8294243 C84.1791045,72.0255864 80.7249467,75.4797441 76.5031983,75.4797441 Z" id="Shape"></path>
        </g>
    </g>
</svg>