<?xml version="1.0" encoding="UTF-8"?>
<svg width="128px" height="128px" viewBox="0 0 128 128" version="1.1" xmlns="http://www.w3.org/2000/svg" xmlns:xlink="http://www.w3.org/1999/xlink">
    <title>Graphic elements / Icons / Flat icons / Marketplace / marketplace-speccams-thermal-cam</title>
    <g id="Graphic-elements-/-Icons-/-Flat-icons-/-Marketplace-/-marketplace-speccams-thermal-cam" stroke="none" stroke-width="1" fill-rule="evenodd">
        <g id="marketplace-speccams-thermal-cam" transform="translate(4.000000, 9.000000)" fill-rule="nonzero">
            <path d="M101.818182,61.8181818 L101.818182,10.9090909 C101.818182,4.90909091 96.9393939,0 90.9090909,0 C84.8787879,0 80,4.90909091 80,10.9090909 L80,40 L83.6363636,40 L83.6363636,43.6363636 L83.6363636,50.9090909 L83.6363636,54.5454545 L80,54.5454545 L80,61.8181818 L80,90.9090909 C83.030303,93.1818182 86.8181818,94.5454545 90.9090909,94.5454545 C100.939394,94.5454545 109.090909,86.3939394 109.090909,76.3636364 C109.090909,70.6363636 106.363636,65.2424242 101.818182,61.8181818 Z M94.5454545,40 L87.2727273,40 L87.2727273,10.9090909 C87.2727273,8.90909091 88.9090909,7.27272727 90.9090909,7.27272727 C92.9090909,7.27272727 94.5454545,8.90909091 94.5454545,10.9090909 L94.5454545,40 Z M72.7272727,29.0909091 L61.8181818,29.0909091 L61.8181818,21.8181818 L72.7272727,21.8181818 L72.7272727,29.0909091 Z M72.7272727,7.27272727 L61.8181818,7.27272727 L61.8181818,14.5454545 L72.7272727,14.5454545 L72.7272727,7.27272727 Z M72.7272727,40 L72.7272727,36.3636364 L61.8181818,36.3636364 L61.8181818,40 L72.7272727,40 Z M109.090909,43.6363636 L120,43.6363636 L120,36.3636364 L109.090909,36.3636364 L109.090909,43.6363636 Z M109.090909,58.1818182 L120,58.1818182 L120,50.9090909 L109.090909,50.9090909 L109.090909,58.1818182 Z M109.090909,29.0909091 L120,29.0909091 L120,21.8181818 L109.090909,21.8181818 L109.090909,29.0909091 Z M109.090909,7.27272727 L109.090909,14.5454545 L120,14.5454545 L120,7.27272727 L109.090909,7.27272727 Z M40,61.8181818 C29.969697,61.8181818 21.8181818,69.969697 21.8181818,80 C21.8181818,90.030303 29.969697,98.1818182 40,98.1818182 C50.030303,98.1818182 58.1818182,90.030303 58.1818182,80 C58.1818182,69.969697 50.030303,61.8181818 40,61.8181818 Z M40,72.7272727 C39.6969697,72.7272727 39.4242424,72.7575758 39.1212121,72.7878788 L38.2727273,65.5757576 C38.8484848,65.5151515 39.4242424,65.4848485 40,65.4848485 C44.1212121,65.4848485 48.0909091,67.2424242 50.8484848,70.3333333 L45.4242424,75.1818182 C44.030303,73.6060606 42.0606061,72.7272727 40,72.7272727 Z M47.2424242,80.5757576 C47.2727273,80.3939394 47.2727273,80.1818182 47.2727273,80 C47.2727273,79.2727273 47.1818182,78.5757576 46.969697,77.8787879 L53.9393939,75.7878788 C54.3636364,77.1515152 54.5454545,78.5757576 54.5454545,80 C54.5454545,80.3939394 54.5151515,80.7575758 54.5151515,81.1515152 L47.2424242,80.5757576 Z" id="Shape" opacity="0.65"></path>
            <path d="M40,109.090909 C23.969697,109.090909 10.9090909,96.030303 10.9090909,80 C10.9090909,63.969697 23.969697,50.9090909 40,50.9090909 C56.030303,50.9090909 69.0909091,63.969697 69.0909091,80 C69.0909091,96.030303 56.030303,109.090909 40,109.090909 Z M40,58.1818182 C27.969697,58.1818182 18.1818182,67.969697 18.1818182,80 C18.1818182,92.030303 27.969697,101.818182 40,101.818182 C52.030303,101.818182 61.8181818,92.030303 61.8181818,80 C61.8181818,67.969697 52.030303,58.1818182 40,58.1818182 Z M19.4545455,105.454545 L3.63636364,105.454545 L3.63636364,54.5454545 L19.4545455,54.5454545 C12.030303,60.5454545 7.27272727,69.7272727 7.27272727,80 C7.27272727,90.2727273 12.030303,99.4545455 19.4545455,105.454545 Z M60.5454545,54.5454545 C67.969697,60.5454545 72.7272727,69.7272727 72.7272727,80 C72.7272727,90.2727273 67.969697,99.4545455 60.5454545,105.454545 L76.3636364,105.454545 L76.3636364,54.5454545 L60.5454545,54.5454545 Z M0,43.6363636 L0,50.9090909 L25.030303,50.9090909 C29.5151515,48.5757576 34.6060606,47.2727273 40,47.2727273 C45.3939394,47.2727273 50.4848485,48.5757576 54.969697,50.9090909 L80,50.9090909 L80,43.6363636 L0,43.6363636 Z" id="Shape"></path>
        </g>
    </g>
</svg>