<?xml version="1.0" encoding="UTF-8"?>
<svg width="128px" height="128px" viewBox="0 0 128 128" version="1.1" xmlns="http://www.w3.org/2000/svg" xmlns:xlink="http://www.w3.org/1999/xlink">
    <title>Graphic elements / Icons / Flat icons / Marketplace / marketplace-analytics-people-tracking</title>
    <g id="Graphic-elements-/-Icons-/-Flat-icons-/-Marketplace-/-marketplace-analytics-people-tracking" stroke="none" stroke-width="1" fill-rule="evenodd">
        <g id="marketplace-analytics-people-tracking" transform="translate(4.000000, 4.000000)" fill-rule="nonzero">
            <path d="M113.684211,50.5263158 L107.368421,50.5263158 L107.368421,12.6315789 L69.4736842,12.6315789 L69.4736842,6.31578947 L113.684211,6.31578947 L113.684211,50.5263158 Z M12.6315789,12.6315789 L50.5263158,12.6315789 L50.5263158,6.31578947 L6.31578947,6.31578947 L6.31578947,50.5263158 L12.6315789,50.5263158 L12.6315789,12.6315789 Z M50.5263158,107.368421 L12.6315789,107.368421 L12.6315789,69.4210526 L6.31578947,69.4210526 L6.31578947,113.684211 L50.5263158,113.684211 L50.5263158,107.368421 Z M113.684211,69.4210526 L107.368421,69.4210526 L107.368421,107.368421 L69.4736842,107.368421 L69.4736842,113.684211 L113.684211,113.684211 L113.684211,69.4210526 Z M22.1052632,63.1578947 L0,63.1578947 L0,56.8421053 L22.1052632,56.8421053 L22.1052632,63.1578947 Z M120,56.8421053 L97.8947368,56.8421053 L97.8947368,63.1578947 L120,63.1578947 L120,56.8421053 Z M63.1578947,0 L56.8421053,0 L56.8421053,22.1052632 L63.1578947,22.1052632 L63.1578947,0 Z M63.1578947,97.8947368 L56.8421053,97.8947368 L56.8421053,120 L63.1578947,120 L63.1578947,97.8947368 Z" id="Shape" opacity="0.65"></path>
            <path d="M54.7631579,75.2368421 L53.6578947,81.0263158 C53.4473684,82.1052632 52.7105263,83 51.6842105,83.3947368 L39,88.2368421 L36.7631579,82.3421053 L47.8157895,78.1315789 L49.1578947,71.1315789 C49.2894737,71.2368421 49.4210526,71.3684211 49.5789474,71.4736842 L54.7631579,75.2368421 Z M66.6052632,58.2368421 C66.7631579,58.5526316 66.9473684,58.8157895 67.2105263,59.0526316 L73.5263158,65.3684211 L78,60.8947368 L72.0526316,54.9473684 L67.5789474,45.9473684 C67.0526316,44.8684211 65.9473684,44.1842105 64.7368421,44.1842105 L55.2631579,44.1842105 C54.6315789,44.1842105 54.0263158,44.3684211 53.5,44.7105263 L44.0263158,51.0263158 C43.2894737,51.5 42.8157895,52.2631579 42.6578947,53.1315789 L41.0526316,62.6052632 L47.2894737,63.6578947 L48.6842105,55.5263158 L52.5789474,52.9210526 L50.1578947,65.6842105 C49.9210526,66.8947368 50.4210526,68.1052632 51.3947368,68.8421053 L63.1315789,77.3684211 L63.1315789,91.5789474 L69.4473684,91.5789474 L69.4473684,75.7894737 C69.4473684,74.7894737 68.9736842,73.8157895 68.1578947,73.2368421 L62.1578947,68.8684211 L64.9210526,54.8157895 L66.6052632,58.2368421 Z M63.1578947,28.4210526 C59.6842105,28.4210526 56.8421053,31.2631579 56.8421053,34.7368421 C56.8421053,38.2105263 59.6842105,41.0526316 63.1578947,41.0526316 C66.6315789,41.0526316 69.4736842,38.2105263 69.4736842,34.7368421 C69.4736842,31.2631579 66.6578947,28.4210526 63.1578947,28.4210526 Z" id="Shape"></path>
        </g>
    </g>
</svg>