<?xml version="1.0" encoding="UTF-8"?>
<svg width="128px" height="128px" viewBox="0 0 128 128" version="1.1" xmlns="http://www.w3.org/2000/svg" xmlns:xlink="http://www.w3.org/1999/xlink">
    <title>Graphic elements / Icons / Flat icons / Marketplace / marketplace-smart-city-comms-network</title>
    <g id="Graphic-elements-/-Icons-/-Flat-icons-/-Marketplace-/-marketplace-smart-city-comms-network" stroke="none" stroke-width="1" fill-rule="evenodd">
        <g id="marketplace-smart-city-comms-network" transform="translate(4.000000, 8.000000)" fill-rule="nonzero">
            <path d="M102.352941,56.5 C97.4117647,56.5 93.0588235,59.0588235 90.5588235,62.9117647 L79.4117647,59.2352941 L79.4117647,66.6764706 L88.3235294,69.6470588 C88.2941176,69.9705882 88.2941176,70.2941176 88.2941176,70.6176471 C88.2941176,78.3823529 94.6176471,84.7058824 102.382353,84.7058824 C110.147059,84.7058824 116.470588,78.3823529 116.470588,70.6176471 C116.470588,62.8529412 110.117647,56.5 102.352941,56.5 Z M102.352941,77.6176471 C98.5,77.6176471 95.3235294,74.4705882 95.3235294,70.5882353 C95.3235294,66.7058824 98.4705882,63.5588235 102.352941,63.5588235 C106.235294,63.5588235 109.382353,66.7058824 109.382353,70.5882353 C109.382353,74.4705882 106.205882,77.6176471 102.352941,77.6176471 Z M70.0882353,39.8823529 C72.3823529,40.7941176 74.4117647,42.2941176 75.9705882,44.1470588 L94.5294118,28.5588235 C97.2058824,30.5882353 100.529412,31.7941176 104.117647,31.7941176 C112.882353,31.7941176 120,24.6764706 120,15.9117647 C120,7.14705882 112.882353,0.0294117647 104.117647,0.0294117647 C95.3529412,0.0294117647 88.2352941,7.14705882 88.2352941,15.9117647 C88.2352941,18.5294118 88.8823529,21 90,23.1764706 L70.0882353,39.8823529 Z M104.117647,7.05882353 C108.970588,7.05882353 112.941176,11.0294118 112.941176,15.8823529 C112.941176,20.7352941 108.970588,24.7058824 104.117647,24.7058824 C99.2647059,24.7058824 95.2941176,20.7352941 95.2941176,15.8823529 C95.2941176,11.0294118 99.2647059,7.05882353 104.117647,7.05882353 Z M38.7647059,70.6470588 L33.5294118,70.6470588 L30,70.6470588 L30,69 L25.4411765,73.0588235 C23.2058824,71.5588235 20.5,70.6764706 17.6176471,70.6764706 C9.85294118,70.6764706 3.55882353,77 3.55882353,84.7352941 C3.55882353,92.5 9.88235294,98.8235294 17.6176471,98.8235294 C25.3529412,98.8235294 31.6764706,92.5 31.6764706,84.7352941 C31.6764706,82.4117647 31.1176471,80.2647059 30.1176471,78.3235294 L38.7647059,70.6470588 Z M17.5882353,91.7647059 C13.7352941,91.7647059 10.5882353,88.6176471 10.5882353,84.7352941 C10.5882353,80.8529412 13.7352941,77.7058824 17.5882353,77.7058824 C21.4411765,77.7058824 24.5882353,80.8529412 24.5882353,84.7352941 C24.5882353,88.6176471 21.4705882,91.7647059 17.5882353,91.7647059 Z M66.6470588,88.2941176 L63.3823529,70.6470588 L56.2058824,70.6470588 L59.7058824,89.5882353 C55.7352941,91.6470588 53,95.7941176 53,100.558824 C53,107.352941 58.5294118,112.882353 65.3235294,112.882353 C72.1176471,112.882353 77.6470588,107.352941 77.6470588,100.558824 C77.6470588,94.2058824 72.8235294,88.9705882 66.6470588,88.2941176 Z M65.3235294,105.852941 C62.4117647,105.852941 60.0588235,103.5 60.0588235,100.588235 C60.0588235,97.6764706 62.4117647,95.3235294 65.3235294,95.3235294 C68.2352941,95.3235294 70.5882353,97.6764706 70.5882353,100.588235 C70.5882353,103.5 68.2352941,105.852941 65.3235294,105.852941 Z M15.8823529,31.7647059 C19.2352941,31.7647059 22.3823529,30.7058824 24.9411765,28.9117647 L37.7647059,40.6176471 C39.6764706,39.5882353 41.8529412,38.9411765 44.1470588,38.8529412 C41.7058824,37.0294118 39.7647059,34.5882353 38.5294118,31.7647059 L29.7058824,23.7058824 C31.0294118,21.3823529 31.7647059,18.7352941 31.7647059,15.8823529 C31.7647059,7.11764706 24.6470588,0 15.8823529,0 C7.11764706,0 0,7.11764706 0,15.8823529 C0,24.6470588 7.11764706,31.7647059 15.8823529,31.7647059 Z M15.8823529,7.05882353 C20.7352941,7.05882353 24.7058824,11.0294118 24.7058824,15.8823529 C24.7058824,20.7352941 20.7352941,24.7058824 15.8823529,24.7058824 C11.0294118,24.7058824 7.05882353,20.7352941 7.05882353,15.8823529 C7.05882353,11.0294118 11.0294118,7.05882353 15.8823529,7.05882353 Z" id="Shape" opacity="0.65"></path>
            <path d="M54.7058824,38.8235294 C46.9117647,38.8235294 40.5882353,32.5 40.5882353,24.7058824 C40.5882353,16.9117647 46.9117647,10.5882353 54.7058824,10.5882353 C62.5,10.5882353 68.8235294,16.9117647 68.8235294,24.7058824 C68.8235294,32.5 62.5,38.8235294 54.7058824,38.8235294 Z M54.7058824,17.6470588 C50.8235294,17.6470588 47.6470588,20.8235294 47.6470588,24.7058824 C47.6470588,28.5882353 50.8235294,31.7647059 54.7058824,31.7647059 C58.5882353,31.7647059 61.7647059,28.5882353 61.7647059,24.7058824 C61.7647059,20.8235294 58.5882353,17.6470588 54.7058824,17.6470588 Z M75.8823529,67.1176471 L33.5294118,67.1176471 L33.5294118,53.5882353 C33.5294118,47.3823529 38.5882353,42.3235294 44.7941176,42.3235294 L64.6176471,42.3235294 C70.8235294,42.3235294 75.8823529,47.3823529 75.8823529,53.5882353 L75.8823529,67.1176471 L75.8823529,67.1176471 Z M40.5882353,60.0588235 L68.8235294,60.0588235 L68.8235294,53.5882353 C68.8235294,51.2647059 66.9411765,49.3823529 64.6176471,49.3823529 L44.7941176,49.3823529 C42.4705882,49.3823529 40.5882353,51.2647059 40.5882353,53.5882353 L40.5882353,60.0588235 L40.5882353,60.0588235 Z" id="Shape"></path>
        </g>
    </g>
</svg>