<?xml version="1.0" encoding="UTF-8"?>
<svg width="128px" height="128px" viewBox="0 0 128 128" version="1.1" xmlns="http://www.w3.org/2000/svg" xmlns:xlink="http://www.w3.org/1999/xlink">
    <title>Graphic elements / Icons / Flat icons / Marketplace / marketplace-mgmt-software-device-management</title>
    <g id="Graphic-elements-/-Icons-/-Flat-icons-/-Marketplace-/-marketplace-mgmt-software-device-management" stroke="none" stroke-width="1" fill-rule="evenodd">
        <g id="marketplace-mgmt-software-device-management" transform="translate(13.000000, 4.000000)" fill-rule="nonzero">
            <path d="M60,18.3947368 L60,23.2894737 C62.1842105,23.8684211 64.2894737,24.6052632 66.3157895,25.5526316 L66.3157895,18.3947368 C70,17.1052632 72.6315789,13.5789474 72.6315789,9.47368421 C72.6315789,4.23684211 68.3947368,0 63.1578947,0 C57.9210526,0 53.6842105,4.23684211 53.6842105,9.47368421 C53.6842105,13.5789474 56.3157895,17.1052632 60,18.3947368 Z M63.1578947,6.31578947 C64.8947368,6.31578947 66.3157895,7.73684211 66.3157895,9.47368421 C66.3157895,11.2105263 64.8947368,12.6315789 63.1578947,12.6315789 C61.4210526,12.6315789 60,11.2105263 60,9.47368421 C60,7.73684211 61.4210526,6.31578947 63.1578947,6.31578947 Z M91.5789474,91.5789474 C87.4736842,91.5789474 83.9473684,94.2105263 82.6578947,97.8947368 L78.9473684,97.8947368 L78.9473684,85.0263158 C77.0526316,87.1578947 74.9473684,89.0789474 72.6315789,90.7631579 L72.6315789,104.210526 L82.6578947,104.210526 C83.9736842,107.894737 87.4736842,110.526316 91.5789474,110.526316 C96.8157895,110.526316 101.052632,106.289474 101.052632,101.052632 C101.052632,95.8157895 96.8157895,91.5789474 91.5789474,91.5789474 Z M91.5789474,104.210526 C89.8421053,104.210526 88.4210526,102.789474 88.4210526,101.052632 C88.4210526,99.3157895 89.8421053,97.8947368 91.5789474,97.8947368 C93.3157895,97.8947368 94.7368421,99.3157895 94.7368421,101.052632 C94.7368421,102.789474 93.3157895,104.210526 91.5789474,104.210526 Z M72.6315789,29.2368421 C74.9473684,30.8947368 77.0526316,32.8157895 78.9473684,34.9736842 L78.9473684,25.2631579 L82.6578947,25.2631579 C83.9736842,28.9473684 87.4736842,31.5789474 91.5789474,31.5789474 C96.8157895,31.5789474 101.052632,27.3157895 101.052632,22.1052632 C101.052632,16.8947368 96.8157895,12.6315789 91.5789474,12.6315789 C87.4736842,12.6315789 83.9473684,15.2631579 82.6578947,18.9473684 L72.6315789,18.9473684 L72.6315789,29.2368421 Z M91.5789474,18.9473684 C93.3157895,18.9473684 94.7368421,20.3684211 94.7368421,22.1052632 C94.7368421,23.8421053 93.3157895,25.2631579 91.5789474,25.2631579 C89.8421053,25.2631579 88.4210526,23.8421053 88.4210526,22.1052632 C88.4210526,20.3684211 89.8421053,18.9473684 91.5789474,18.9473684 Z M34.7368421,18.3947368 L34.7368421,25.5526316 C36.7631579,24.6315789 38.8684211,23.8684211 41.0526316,23.2894737 L41.0526316,18.3947368 C44.7368421,17.1052632 47.3684211,13.5789474 47.3684211,9.47368421 C47.3684211,4.23684211 43.1315789,0 37.8947368,0 C32.6578947,0 28.4210526,4.23684211 28.4210526,9.47368421 C28.4210526,13.5789474 31.0526316,17.1052632 34.7368421,18.3947368 Z M37.8947368,6.31578947 C39.6315789,6.31578947 41.0526316,7.73684211 41.0526316,9.47368421 C41.0526316,11.2105263 39.6315789,12.6315789 37.8947368,12.6315789 C36.1578947,12.6315789 34.7368421,11.2105263 34.7368421,9.47368421 C34.7368421,7.73684211 36.1578947,6.31578947 37.8947368,6.31578947 Z M41.0526316,101.605263 L41.0526316,96.7105263 C38.8684211,96.1578947 36.7631579,95.3947368 34.7368421,94.4473684 L34.7368421,101.605263 C31.0526316,102.921053 28.4210526,106.421053 28.4210526,110.526316 C28.4210526,115.763158 32.6578947,120 37.8947368,120 C43.1315789,120 47.3684211,115.763158 47.3684211,110.526316 C47.3684211,106.421053 44.7368421,102.894737 41.0526316,101.605263 Z M37.8947368,113.684211 C36.1578947,113.684211 34.7368421,112.263158 34.7368421,110.526316 C34.7368421,108.789474 36.1578947,107.368421 37.8947368,107.368421 C39.6315789,107.368421 41.0526316,108.789474 41.0526316,110.526316 C41.0526316,112.263158 39.6315789,113.684211 37.8947368,113.684211 Z M9.47368421,31.5789474 C13.5789474,31.5789474 17.1052632,28.9473684 18.3947368,25.2631579 L22.1052632,25.2631579 L22.1052632,34.9736842 C24,32.8421053 26.1052632,30.9210526 28.4210526,29.2368421 L28.4210526,18.9473684 L18.3947368,18.9473684 C17.0789474,15.2631579 13.5789474,12.6315789 9.47368421,12.6315789 C4.26315789,12.6315789 0,16.8947368 0,22.1052632 C0,27.3157895 4.26315789,31.5789474 9.47368421,31.5789474 Z M9.47368421,18.9473684 C11.2105263,18.9473684 12.6315789,20.3684211 12.6315789,22.1052632 C12.6315789,23.8421053 11.2105263,25.2631579 9.47368421,25.2631579 C7.73684211,25.2631579 6.31578947,23.8421053 6.31578947,22.1052632 C6.31578947,20.3684211 7.73684211,18.9473684 9.47368421,18.9473684 Z M28.4210526,90.7631579 C26.1052632,89.1052632 24,87.1842105 22.1052632,85.0263158 L22.1052632,97.8947368 L18.3947368,97.8947368 C17.1052632,94.2105263 13.5789474,91.5789474 9.47368421,91.5789474 C4.26315789,91.5789474 0,95.8157895 0,101.052632 C0,106.289474 4.26315789,110.526316 9.47368421,110.526316 C13.5789474,110.526316 17.1052632,107.894737 18.3947368,104.210526 L28.4210526,104.210526 L28.4210526,90.7631579 Z M9.47368421,104.210526 C7.73684211,104.210526 6.31578947,102.789474 6.31578947,101.052632 C6.31578947,99.3157895 7.73684211,97.8947368 9.47368421,97.8947368 C11.2105263,97.8947368 12.6315789,99.3157895 12.6315789,101.052632 C12.6315789,102.789474 11.2105263,104.210526 9.47368421,104.210526 Z M66.3157895,101.605263 L66.3157895,94.4473684 C64.2894737,95.3684211 62.1842105,96.1315789 60,96.7105263 L60,101.605263 C56.3157895,102.921053 53.6842105,106.421053 53.6842105,110.526316 C53.6842105,115.763158 57.9210526,120 63.1578947,120 C68.3947368,120 72.6315789,115.763158 72.6315789,110.526316 C72.6315789,106.421053 70,102.894737 66.3157895,101.605263 Z M63.1578947,113.684211 C61.4210526,113.684211 60,112.263158 60,110.526316 C60,108.789474 61.4210526,107.368421 63.1578947,107.368421 C64.8947368,107.368421 66.3157895,108.789474 66.3157895,110.526316 C66.3157895,112.263158 64.8947368,113.684211 63.1578947,113.684211 Z M50.5263158,94.7368421 C31.3684211,94.7368421 15.7894737,79.1578947 15.7894737,60 C15.7894737,40.8421053 31.3684211,25.2631579 50.5263158,25.2631579 C69.6842105,25.2631579 85.2631579,40.8421053 85.2631579,60 C85.2631579,79.1578947 69.6842105,94.7368421 50.5263158,94.7368421 Z M50.5263158,31.5789474 C34.8421053,31.5789474 22.1052632,44.3157895 22.1052632,60 C22.1052632,75.6842105 34.8421053,88.4210526 50.5263158,88.4210526 C66.2105263,88.4210526 78.9473684,75.6578947 78.9473684,60 C78.9473684,44.3421053 66.1842105,31.5789474 50.5263158,31.5789474 Z" id="Shape" opacity="0.65"></path>
            <path d="M55.4210526,68.5263158 L53.5526316,69.3157895 L53.0263158,85.1315789 C55.2368421,84.9210526 57.3684211,84.3947368 59.3947368,83.6578947 L59.7368421,73.4473684 C65.7368421,70.1315789 69.5263158,63.8157895 69.5263158,56.8421053 C69.5263158,49.8684211 65.7105263,43.4473684 59.5526316,40.1315789 C58.3421053,39.4736842 56.8421053,39.5 55.6578947,40.2105263 C54.4736842,40.9210526 53.7368421,42.2105263 53.7368421,43.6052632 L53.7368421,50.5263158 L47.4473684,50.5263158 L47.4473684,43.5 C47.4473684,42.1052632 46.7368421,40.8421053 45.5526316,40.1315789 C44.3684211,39.4210526 42.9210526,39.3684211 41.6842105,40.0263158 C35.4210526,43.3157895 31.5263158,49.7631579 31.5263158,56.8421053 C31.5263158,63.7894737 35.2631579,70.0789474 41.2368421,73.4210526 L41.5789474,83.6315789 C43.5789474,84.3947368 45.7368421,84.9210526 47.9473684,85.1315789 L47.4473684,69.2894737 L45.5789474,68.5 C40.8947368,66.5 37.8684211,61.9210526 37.8684211,56.8421053 C37.8684211,53.6315789 39.0789474,50.6052632 41.1578947,48.3157895 L41.1578947,52.9210526 C41.1578947,55.0789474 42.9210526,56.8421053 45.0789474,56.8421053 L56.1578947,56.8421053 C58.3157895,56.8421053 60.0789474,55.0789474 60.0789474,52.9210526 L60.0789474,48.4736842 C62.0789474,50.7368421 63.2368421,53.7105263 63.2368421,56.8157895 C63.2105263,61.9736842 60.1315789,66.5526316 55.4210526,68.5263158 Z" id="Path"></path>
        </g>
    </g>
</svg>