<?xml version="1.0" encoding="UTF-8"?>
<svg width="128px" height="128px" viewBox="0 0 128 128" version="1.1" xmlns="http://www.w3.org/2000/svg" xmlns:xlink="http://www.w3.org/1999/xlink">
    <title>Graphic elements / Icons / Flat icons / Marketplace / marketplace-analytics-motion-detection</title>
    <g id="Graphic-elements-/-Icons-/-Flat-icons-/-Marketplace-/-marketplace-analytics-motion-detection" stroke="none" stroke-width="1" fill-rule="evenodd">
        <g id="marketplace-analytics-motion-detection" transform="translate(4.000000, 4.000000)" fill-rule="nonzero">
            <path d="M10.5882353,22.3235294 L10.5882353,14.1176471 C11.9117647,13.1176471 13.1176471,11.9411765 14.1176471,10.5882353 L22.3235294,10.5882353 C19.8823529,15.7058824 15.7058824,19.8823529 10.5882353,22.3235294 Z M0,45.8823529 L0,52.9411765 C29.1764706,52.9411765 52.9411765,29.1764706 52.9411765,0 L45.8823529,0 C45.8823529,25.2941176 25.2941176,45.8823529 0,45.8823529 Z M0,60 L0,67.0588235 C17.9117647,67.0588235 34.7647059,60.0882353 47.4117647,47.4117647 C60.0588235,34.7352941 67.0588235,17.9117647 67.0588235,0 L60,0 C60,33.0882353 33.0882353,60 0,60 Z M52.4117647,52.4117647 C38.4117647,66.4117647 19.7941176,74.1176471 0,74.1176471 L0,81.1764706 C21.6764706,81.1764706 42.0588235,72.7352941 57.4117647,57.4117647 C72.7647059,42.0882353 81.1764706,21.6764706 81.1764706,0 L74.1176471,0 C74.1176471,19.7941176 66.4117647,38.4117647 52.4117647,52.4117647 Z M0,31.7647059 L0,38.8235294 C21.4117647,38.8235294 38.8235294,21.4117647 38.8235294,0 L31.7647059,0 C31.7647059,17.5294118 17.5294118,31.7647059 0,31.7647059 Z M70.4705882,82.2058824 L66.6764706,89.7941176 C66.0882353,91 64.8529412,91.7352941 63.5294118,91.7352941 L42.3529412,91.7352941 L42.3529412,84.6764706 L61.3529412,84.6764706 L64.7352941,77.8823529 C65.2941176,78.7352941 66.0588235,79.5 66.9705882,80.0588235 L70.4705882,82.2058824 Z M97.1764706,60 L91.1764706,50.9705882 C90.5294118,50 89.4117647,49.4117647 88.2352941,49.4117647 L77.6470588,49.4117647 C77.2647059,49.4117647 76.8823529,49.4705882 76.5294118,49.5882353 L65.9411765,53.1176471 C65.2058824,53.3529412 64.5588235,53.8529412 64.1176471,54.5 L57.0588235,65.0882353 L62.9411765,69 L69.3235294,59.4117647 L74.9117647,57.5588235 L67.4705882,72.4411765 C66.6470588,74.0882353 67.2352941,76.0882353 68.7941176,77.0294118 L84.7058824,86.6470588 L84.7058824,102.352941 L91.7647059,102.352941 L91.7647059,84.7058824 C91.7647059,83.4705882 91.1176471,82.3235294 90.0588235,81.6764706 L80.6470588,75.9705882 L88.6764706,59.9411765 L92.3529412,65.4705882 C93,66.4411765 94.1176471,67.0294118 95.2941176,67.0294118 L105.882353,67.0294118 L105.882353,59.9705882 L97.1764706,60 L97.1764706,60 Z M86.5,31.7647059 C82.6176471,31.7647059 79.4411765,34.9411765 79.4411765,38.8235294 C79.4411765,42.7058824 82.6176471,45.8823529 86.5,45.8823529 C90.3823529,45.8823529 93.5588235,42.7058824 93.5588235,38.8235294 C93.5588235,34.9411765 90.3823529,31.7647059 86.5,31.7647059 Z" id="Shape"></path>
            <path d="M7.05882353,24.7058824 L0,24.7058824 L0,0 L24.5882353,0 L24.5882353,7.05882353 L7.05882353,7.05882353 L7.05882353,24.7058824 Z M24.7058824,112.941176 L7.05882353,112.941176 L7.05882353,95.2941176 L0,95.2941176 L0,120 L24.7058824,120 L24.7058824,112.941176 Z M120,95.2941176 L112.941176,95.2941176 L112.941176,112.941176 L95.2941176,112.941176 L95.2941176,120 L120,120 L120,95.2941176 Z M120,0 L95.2058824,0 L95.2058824,7.05882353 L112.941176,7.05882353 L112.941176,24.6470588 L120,24.6470588 L120,0 Z" id="Shape" opacity="0.65"></path>
        </g>
    </g>
</svg>