<?xml version="1.0" encoding="UTF-8"?>
<svg width="128px" height="128px" viewBox="0 0 128 128" version="1.1" xmlns="http://www.w3.org/2000/svg" xmlns:xlink="http://www.w3.org/1999/xlink">
    <title>Graphic elements / Icons / Flat icons / Marketplace / marketplace-building-sys-intercom-systems</title>
    <g id="Graphic-elements-/-Icons-/-Flat-icons-/-Marketplace-/-marketplace-building-sys-intercom-systems" stroke="none" stroke-width="1" fill-rule="evenodd">
        <g id="marketplace-building-sys-intercom-systems" transform="translate(4.000000, 8.000000)" fill-rule="nonzero">
            <path d="M71.25,111.25 L0,111.25 L0,6.25 L71.25,6.25 L71.25,111.25 Z M7.5,103.75 L63.75,103.75 L63.75,13.75 L7.5,13.75 L7.5,103.75 Z M22.5,25 C22.5,27.0625 20.8125,28.75 18.75,28.75 C16.6875,28.75 15,27.0625 15,25 C15,22.9375 16.6875,21.25 18.75,21.25 C20.8125,21.25 22.5,22.9375 22.5,25 Z M30,21.25 C27.9375,21.25 26.25,22.9375 26.25,25 C26.25,27.0625 27.9375,28.75 30,28.75 C32.0625,28.75 33.75,27.0625 33.75,25 C33.75,22.9375 32.0625,21.25 30,21.25 Z M41.25,21.25 C39.1875,21.25 37.5,22.9375 37.5,25 C37.5,27.0625 39.1875,28.75 41.25,28.75 C43.3125,28.75 45,27.0625 45,25 C45,22.9375 43.3125,21.25 41.25,21.25 Z M52.5,21.25 C50.4375,21.25 48.75,22.9375 48.75,25 C48.75,27.0625 50.4375,28.75 52.5,28.75 C54.5625,28.75 56.25,27.0625 56.25,25 C56.25,22.9375 54.5625,21.25 52.5,21.25 Z M18.75,32.5 C16.6875,32.5 15,34.1875 15,36.25 C15,38.3125 16.6875,40 18.75,40 C20.8125,40 22.5,38.3125 22.5,36.25 C22.5,34.1875 20.8125,32.5 18.75,32.5 Z M30,32.5 C27.9375,32.5 26.25,34.1875 26.25,36.25 C26.25,38.3125 27.9375,40 30,40 C32.0625,40 33.75,38.3125 33.75,36.25 C33.75,34.1875 32.0625,32.5 30,32.5 Z M41.25,32.5 C39.1875,32.5 37.5,34.1875 37.5,36.25 C37.5,38.3125 39.1875,40 41.25,40 C43.3125,40 45,38.3125 45,36.25 C45,34.1875 43.3125,32.5 41.25,32.5 Z M52.5,32.5 C50.4375,32.5 48.75,34.1875 48.75,36.25 C48.75,38.3125 50.4375,40 52.5,40 C54.5625,40 56.25,38.3125 56.25,36.25 C56.25,34.1875 54.5625,32.5 52.5,32.5 Z M18.75,43.75 C16.6875,43.75 15,45.4375 15,47.5 C15,49.5625 16.6875,51.25 18.75,51.25 C20.8125,51.25 22.5,49.5625 22.5,47.5 C22.5,45.4375 20.8125,43.75 18.75,43.75 Z M30,43.75 C27.9375,43.75 26.25,45.4375 26.25,47.5 C26.25,49.5625 27.9375,51.25 30,51.25 C32.0625,51.25 33.75,49.5625 33.75,47.5 C33.75,45.4375 32.0625,43.75 30,43.75 Z M41.25,43.75 C39.1875,43.75 37.5,45.4375 37.5,47.5 C37.5,49.5625 39.1875,51.25 41.25,51.25 C43.3125,51.25 45,49.5625 45,47.5 C45,45.4375 43.3125,43.75 41.25,43.75 Z M52.5,43.75 C50.4375,43.75 48.75,45.4375 48.75,47.5 C48.75,49.5625 50.4375,51.25 52.5,51.25 C54.5625,51.25 56.25,49.5625 56.25,47.5 C56.25,45.4375 54.5625,43.75 52.5,43.75 Z M18.75,55 C16.6875,55 15,56.6875 15,58.75 C15,60.8125 16.6875,62.5 18.75,62.5 C20.8125,62.5 22.5,60.8125 22.5,58.75 C22.5,56.6875 20.8125,55 18.75,55 Z M30,55 C27.9375,55 26.25,56.6875 26.25,58.75 C26.25,60.8125 27.9375,62.5 30,62.5 C32.0625,62.5 33.75,60.8125 33.75,58.75 C33.75,56.6875 32.0625,55 30,55 Z M41.25,55 C39.1875,55 37.5,56.6875 37.5,58.75 C37.5,60.8125 39.1875,62.5 41.25,62.5 C43.3125,62.5 45,60.8125 45,58.75 C45,56.6875 43.3125,55 41.25,55 Z M52.5,55 C50.4375,55 48.75,56.6875 48.75,58.75 C48.75,60.8125 50.4375,62.5 52.5,62.5 C54.5625,62.5 56.25,60.8125 56.25,58.75 C56.25,56.6875 54.5625,55 52.5,55 Z M15,85 L56.25,85 L56.25,96.25 L15,96.25 L15,85 Z" id="Shape"></path>
            <path d="M90,40 C90,47.25 87.0625,53.8125 82.3125,58.5625 L77,53.25 C80.40625,49.84375 82.5,45.15625 82.5,40 C82.5,34.84375 80.40625,30.15625 77,26.75 L82.3125,21.4375 C87.0625,26.1875 90,32.75 90,40 Z M92.90625,10.84375 L87.59375,16.15625 C93.71875,22.28125 97.5,30.71875 97.5,40 C97.5,49.28125 93.71875,57.75 87.59375,63.84375 L92.90625,69.15625 C100.375,61.6875 105,51.375 105,40 C105,28.625 100.375,18.3125 92.90625,10.84375 Z M103.5,0.25 L98.1875,5.5625 C107.03125,14.375 112.5,26.5625 112.5,40 C112.5,53.4375 107.03125,65.625 98.21875,74.46875 L103.53125,79.78125 C113.6875,69.5625 120,55.5 120,40 C120,24.5 113.6875,10.4375 103.5,0.25 Z" id="Shape" opacity="0.65"></path>
        </g>
    </g>
</svg>