<?xml version="1.0" encoding="UTF-8"?>
<svg width="128px" height="128px" viewBox="0 0 128 128" version="1.1" xmlns="http://www.w3.org/2000/svg" xmlns:xlink="http://www.w3.org/1999/xlink">
    <title>Graphic elements / Icons / Flat icons / Marketplace / marketplace-operator-software-evidence-management</title>
    <g id="Graphic-elements-/-Icons-/-Flat-icons-/-Marketplace-/-marketplace-operator-software-evidence-management" stroke="none" stroke-width="1" fill-rule="evenodd">
        <g id="marketplace-operator-software-evidence-management" transform="translate(4.000000, 10.000000)" fill-rule="nonzero">
            <path d="M65.9210526,28.3157895 C65.9210526,27.1052632 65.9473684,26 66,24.9736842 C65.6842105,25.3684211 65.2894737,25.7631579 64.8157895,26.1842105 L62.6842105,27.9473684 L60,24.7105263 L66.5,19.4210526 L71.1052632,19.4210526 L71.1052632,38.3157895 L65.9210526,38.3157895 L65.9210526,28.3157895 Z M59.8421053,52.6052632 C59.8421053,49.2368421 60.3947368,46.7894737 61.5263158,45.2105263 C62.6578947,43.6315789 64.3684211,42.8684211 66.6578947,42.8684211 C68.8947368,42.8684211 70.6052632,43.6842105 71.7631579,45.3157895 C72.9210526,46.9473684 73.5,49.3684211 73.5,52.6052632 C73.5,55.9473684 72.9473684,58.3947368 71.8157895,59.9473684 C70.6842105,61.5 68.9736842,62.2894737 66.6842105,62.2894737 C64.4210526,62.2894737 62.7368421,61.4736842 61.5789474,59.8421053 C60.4210526,58.2105263 59.8421053,55.8157895 59.8421053,52.6052632 Z M64.9210526,52.6052632 C64.9210526,54.7368421 65.0526316,56.2105263 65.3157895,57.0263158 C65.5789474,57.8157895 66.0263158,58.2368421 66.6578947,58.2368421 C67.2894737,58.2368421 67.7368421,57.8157895 68,57 C68.2631579,56.1842105 68.3947368,54.7105263 68.3947368,52.6315789 C68.3947368,50.5263158 68.2631579,49.0789474 68,48.2368421 C67.7368421,47.3947368 67.2894737,46.9736842 66.6578947,46.9736842 C66.0263158,46.9736842 65.5789474,47.3684211 65.3157895,48.1842105 C65.0526316,48.9736842 64.9210526,50.4473684 64.9210526,52.6052632 Z M61.5789474,12.4210526 C62.7368421,14.0526316 64.4210526,14.8684211 66.6842105,14.8684211 C67.7368421,14.8684211 68.6578947,14.7105263 69.4736842,14.3947368 C66.7631579,12.7368421 63.7894737,11.4473684 60.6578947,10.6052632 C60.8947368,11.2894737 61.1842105,11.8947368 61.5789474,12.4210526 Z M83.2631579,33.2631579 C83,34.0789474 82.5526316,34.5 81.9210526,34.5 C81.2894737,34.5 80.8421053,34.1052632 80.5789474,33.2894737 C80.3157895,32.4736842 80.1842105,31.0263158 80.1842105,28.8684211 C80.1842105,27.3421053 80.2631579,26.1578947 80.3947368,25.2894737 C79.4473684,23.7631579 78.3947368,22.2894737 77.2105263,20.9473684 C77.0526316,21.1052632 76.9210526,21.2894737 76.7894737,21.4736842 C75.6578947,23.0526316 75.1052632,25.5 75.1052632,28.8684211 C75.1052632,32.0789474 75.6842105,34.5 76.8157895,36.1052632 C77.9473684,37.7105263 79.6578947,38.5526316 81.9210526,38.5526316 C83.0789474,38.5526316 84.0789474,38.3684211 84.9473684,37.9736842 C84.6578947,35.9210526 84.1842105,33.9210526 83.5263158,32 C83.4473684,32.5263158 83.3684211,32.9473684 83.2631579,33.2631579 Z M56.5263158,69.0263158 C55.3684211,67.3947368 53.6842105,66.5789474 51.4210526,66.5789474 C49.1052632,66.5789474 47.3947368,67.3684211 46.2631579,68.9210526 C45.2894737,70.2631579 44.7631579,72.2894737 44.6315789,74.9473684 C46.2631579,75.3157895 47.9473684,75.5789474 49.6842105,75.7105263 C49.7105263,73.8947368 49.8421053,72.6052632 50.0789474,71.8684211 C50.3421053,71.0526316 50.7894737,70.6578947 51.4210526,70.6578947 C52.0526316,70.6578947 52.5,71.0789474 52.7631579,71.9210526 C53,72.6842105 53.1315789,73.9736842 53.1578947,75.7894737 C54.8947368,75.7368421 56.5789474,75.5526316 58.2105263,75.2368421 C58.1052632,72.5263158 57.5526316,70.4473684 56.5263158,69.0263158 Z M41.3157895,12.5263158 C41.6315789,12.0789474 41.8947368,11.5789474 42.1315789,11 C39.3421053,11.8684211 36.7368421,13.1052632 34.3157895,14.6578947 C34.8947368,14.7894737 35.5,14.8684211 36.1842105,14.8684211 C38.5,14.8684211 40.2105263,14.1052632 41.3157895,12.5263158 Z M81.1578947,58.5789474 C83.6842105,53.9736842 85.1578947,48.7105263 85.2631579,43.1052632 L81.7368421,43.1052632 L75.2631579,48.4210526 L77.9210526,51.6842105 L80.0526316,49.9210526 C80.5263158,49.5 80.9210526,49.1052632 81.2368421,48.7105263 C81.1842105,49.7105263 81.1578947,50.8421053 81.1578947,52.0526316 L81.1578947,58.5789474 L81.1578947,58.5789474 Z M31.0789474,59.8421053 C29.9210526,58.2105263 29.3684211,55.7894737 29.3684211,52.6052632 C29.3684211,49.2368421 29.9210526,46.7894737 31.0526316,45.2105263 C32.1842105,43.6315789 33.8947368,42.8684211 36.2105263,42.8684211 C38.4736842,42.8684211 40.1578947,43.6842105 41.3157895,45.3157895 C42.4736842,46.9473684 43.0526316,49.3684211 43.0526316,52.6052632 C43.0526316,55.9473684 42.5,58.3947368 41.3684211,59.9473684 C40.2368421,61.5 38.5263158,62.2894737 36.2105263,62.2894737 C33.9210526,62.2894737 32.2105263,61.4736842 31.0789474,59.8421053 Z M34.4473684,52.6052632 C34.4473684,54.7368421 34.5789474,56.2105263 34.8421053,57.0263158 C35.1052632,57.8157895 35.5526316,58.2368421 36.1842105,58.2368421 C36.8157895,58.2368421 37.2631579,57.8157895 37.5263158,57 C37.7894737,56.1842105 37.9210526,54.7105263 37.9210526,52.6315789 C37.9210526,50.5263158 37.7894737,49.0789474 37.5263158,48.2368421 C37.2631579,47.3947368 36.8157895,46.9736842 36.1842105,46.9736842 C35.5526316,46.9736842 35.1052632,47.3684211 34.8421053,48.1842105 C34.5789474,48.9736842 34.4473684,50.4473684 34.4473684,52.6052632 Z M66.5,66.8421053 L60,72.1315789 L61.8157895,74.3421053 C63.0789474,73.9473684 64.2894737,73.5 65.4736842,72.9736842 C65.6578947,72.7631579 65.8421053,72.5789474 66,72.3947368 C66,72.5 66,72.6315789 65.9736842,72.7368421 C67.7631579,71.8947368 69.5,70.9210526 71.1052632,69.7894737 L71.1052632,66.8421053 L66.5,66.8421053 L66.5,66.8421053 Z M22.6842105,28.8947368 C22.6842105,30.9736842 22.5526316,32.4473684 22.2894737,33.2631579 C22.0263158,34.0789474 21.5789474,34.5 20.9473684,34.5 C20.6052632,34.5 20.3157895,34.3684211 20.0789474,34.1315789 C19.7105263,35.5263158 19.4210526,36.9473684 19.2368421,38.3947368 C19.7631579,38.5263158 20.3421053,38.5789474 20.9473684,38.5789474 C23.2631579,38.5789474 24.9736842,37.8157895 26.1052632,36.2368421 C27.2368421,34.6842105 27.7894737,32.2368421 27.7894737,28.8947368 C27.7894737,25.8684211 27.2894737,23.5263158 26.2631579,21.9210526 C24.8947368,23.6315789 23.6842105,25.4736842 22.6842105,27.4210526 C22.6578947,27.8684211 22.6842105,28.3684211 22.6842105,28.8947368 Z M25.3421053,43.1315789 L20.7368421,43.1315789 L19,44.5526316 C19.1052632,46.1842105 19.3157895,47.7894737 19.6315789,49.3684211 C19.8684211,49.1315789 20.0789474,48.9210526 20.2368421,48.6842105 C20.1842105,49.5789474 20.1578947,50.5263158 20.1578947,51.5789474 C21.2368421,55.3684211 22.9473684,58.9210526 25.2105263,62.0263158 L25.3421053,62.0263158 L25.3421053,43.1315789 L25.3421053,43.1315789 Z M36,66.8421053 L32.7105263,69.5263158 C35.1052632,71.2631579 37.7631579,72.6842105 40.6052632,73.7368421 L40.6052632,66.8421053 L36,66.8421053 Z M35.4210526,38.3157895 L40.6052632,38.3157895 L40.6052632,19.4210526 L36,19.4210526 L29.5,24.7105263 L32.1578947,27.9736842 L34.2894737,26.2105263 C34.7631579,25.7894737 35.1578947,25.3947368 35.4736842,25 C35.4210526,26 35.3947368,27.1315789 35.3947368,28.3421053 L35.3947368,38.3157895 L35.4210526,38.3157895 Z M51.4210526,38.5789474 C49.1578947,38.5789474 47.4473684,37.7631579 46.3157895,36.1315789 C45.1578947,34.5 44.6052632,32.0789474 44.6052632,28.8947368 C44.6052632,25.5263158 45.1578947,23.0789474 46.2894737,21.5 C47.4210526,19.9210526 49.1315789,19.1578947 51.4473684,19.1578947 C53.7105263,19.1578947 55.3947368,19.9736842 56.5526316,21.6052632 C57.7105263,23.2368421 58.2894737,25.6578947 58.2894737,28.8947368 C58.2894737,32.2368421 57.7368421,34.6842105 56.6052632,36.2368421 C55.4473684,37.7894737 53.7368421,38.5789474 51.4210526,38.5789474 Z M53.1842105,28.8947368 C53.1842105,26.7894737 53.0526316,25.3421053 52.7894737,24.5 C52.5263158,23.6578947 52.0789474,23.2368421 51.4473684,23.2368421 C50.8157895,23.2368421 50.3684211,23.6315789 50.1052632,24.4473684 C49.8421053,25.2631579 49.7105263,26.7368421 49.7105263,28.8947368 C49.7105263,31.0263158 49.8421053,32.5 50.1052632,33.3157895 C50.3684211,34.1315789 50.8157895,34.5263158 51.4473684,34.5263158 C52.0789474,34.5263158 52.5263158,34.1052632 52.7894737,33.2894737 C53.0526316,32.4473684 53.1842105,30.9736842 53.1842105,28.8947368 Z M55.8421053,14.6052632 L55.8421053,9.68421053 C54.6052632,9.55263158 53.3684211,9.47368421 52.1052632,9.47368421 C51.6315789,9.47368421 51.1315789,9.5 50.6578947,9.5 L50.6578947,14.6052632 L55.8421053,14.6052632 L55.8421053,14.6052632 Z M50.6578947,62.0263158 L55.8421053,62.0263158 L55.8421053,43.1315789 L51.2368421,43.1315789 L44.7631579,48.4210526 L47.4210526,51.6842105 L49.5526316,49.9210526 C50.0263158,49.5 50.4210526,49.1052632 50.7368421,48.7105263 C50.6842105,49.7105263 50.6578947,50.8421053 50.6578947,52.0526316 L50.6578947,62.0263158 L50.6578947,62.0263158 Z" id="Shape"></path>
            <path d="M109.578947,47.5789474 C111.105263,47.5789474 112.263158,47.0526316 113,46.0263158 C113.736842,45 114.105263,43.3684211 114.105263,41.1315789 C114.105263,38.9736842 113.710526,37.3684211 112.947368,36.2631579 C112.184211,35.1842105 111.052632,34.6315789 109.552632,34.6315789 C108.026316,34.6315789 106.868421,35.1578947 106.131579,36.1842105 C105.394737,37.2105263 105.026316,38.8684211 105.026316,41.1052632 C105.026316,43.2368421 105.421053,44.8421053 106.184211,45.9210526 C106.921053,47.0263158 108.052632,47.5789474 109.578947,47.5789474 Z M108.684211,38.1578947 C108.868421,37.6052632 109.157895,37.3421053 109.578947,37.3421053 C110,37.3421053 110.289474,37.6315789 110.473684,38.1842105 C110.657895,38.7368421 110.736842,39.7105263 110.736842,41.1052632 C110.736842,42.5 110.657895,43.4736842 110.473684,44.0263158 C110.289474,44.5789474 110,44.8421053 109.578947,44.8421053 C109.157895,44.8421053 108.868421,44.5789474 108.684211,44.0526316 C108.5,43.5263158 108.421053,42.5263158 108.421053,41.1052632 C108.394737,39.6842105 108.5,38.7105263 108.684211,38.1578947 Z M109.578947,79.1578947 C111.105263,79.1578947 112.263158,78.6315789 113,77.6052632 C113.736842,76.5789474 114.105263,74.9473684 114.105263,72.7105263 C114.105263,70.5526316 113.710526,68.9473684 112.947368,67.8421053 C112.184211,66.7631579 111.052632,66.2105263 109.552632,66.2105263 C108.026316,66.2105263 106.868421,66.7368421 106.131579,67.7894737 C105.394737,68.8421053 105.026316,70.4736842 105.026316,72.7105263 C105.026316,74.8421053 105.421053,76.4473684 106.184211,77.5263158 C106.921053,78.6052632 108.052632,79.1578947 109.578947,79.1578947 Z M108.684211,69.7368421 C108.868421,69.2105263 109.157895,68.9210526 109.578947,68.9210526 C110,68.9210526 110.289474,69.2105263 110.473684,69.7631579 C110.657895,70.3157895 110.736842,71.2894737 110.736842,72.6842105 C110.736842,74.0789474 110.657895,75.0526316 110.473684,75.6052632 C110.289474,76.1578947 110,76.4210526 109.578947,76.4210526 C109.157895,76.4210526 108.868421,76.1578947 108.684211,75.6315789 C108.5,75.1052632 108.421053,74.1052632 108.421053,72.6842105 C108.394737,71.2631579 108.5,70.2894737 108.684211,69.7368421 Z M109.052632,56.5263158 C109.052632,55.7105263 109.078947,54.9736842 109.105263,54.3157895 C108.894737,54.5789474 108.631579,54.8421053 108.315789,55.1315789 L106.894737,56.3157895 L105.131579,54.1578947 L109.447368,50.6315789 L112.5,50.6315789 L112.5,63.2105263 L109.052632,63.2105263 L109.052632,56.5263158 L109.052632,56.5263158 Z M7.5,56.5263158 C7.5,55.7105263 7.52631579,54.9736842 7.55263158,54.3157895 C7.34210526,54.5789474 7.07894737,54.8421053 6.76315789,55.1315789 L5.34210526,56.3157895 L3.57894737,54.1578947 L7.13157895,51.2631579 C7.89473684,55.3157895 9.21052632,59.1578947 10.9736842,62.7631579 L10.9736842,63.2368421 L7.5,63.2368421 L7.5,56.5263158 Z M106.157895,14.3684211 C105.394737,13.2894737 105,11.6842105 105,9.55263158 C105,9.52631579 105,9.5 105,9.47368421 L108.394737,9.47368421 C108.394737,9.5 108.394737,9.52631579 108.394737,9.55263158 C108.394737,10.9736842 108.473684,11.9473684 108.657895,12.5 C108.842105,13.0526316 109.131579,13.2894737 109.552632,13.2894737 C109.973684,13.2894737 110.289474,13 110.447368,12.4736842 C110.605263,11.9473684 110.710526,10.9473684 110.710526,9.55263158 C110.710526,9.52631579 110.710526,9.5 110.710526,9.47368421 L114.105263,9.47368421 C114.105263,9.5 114.105263,9.52631579 114.105263,9.55263158 C114.105263,11.7894737 113.736842,13.4210526 113,14.4473684 C112.263158,15.4736842 111.105263,16 109.578947,16 C108.052632,16 106.921053,15.4473684 106.157895,14.3684211 Z M21.1052632,78.9736842 L17.6578947,78.9736842 L17.6578947,72.7631579 C18.7368421,74 19.8947368,75.1842105 21.1052632,76.2894737 L21.1052632,78.9736842 L21.1052632,78.9736842 Z M84.7368421,10.5526316 C84.7105263,10.2368421 84.7105263,9.89473684 84.7105263,9.55263158 C84.7105263,9.52631579 84.7105263,9.5 84.7105263,9.47368421 L88.1052632,9.47368421 C88.1052632,9.5 88.1052632,9.52631579 88.1052632,9.55263158 C88.1052632,10.9736842 88.1842105,11.9473684 88.3684211,12.5 C88.5526316,13.0526316 88.8421053,13.2894737 89.2631579,13.2894737 C89.6842105,13.2894737 90,13 90.1578947,12.4736842 C90.3157895,11.9473684 90.4210526,10.9473684 90.4210526,9.55263158 C90.4210526,9.52631579 90.4210526,9.5 90.4210526,9.47368421 L93.8157895,9.47368421 C93.8157895,9.5 93.8157895,9.52631579 93.8157895,9.55263158 C93.8157895,11.7894737 93.4473684,13.4210526 92.7105263,14.4473684 C91.9736842,15.4736842 90.8684211,15.9736842 89.3421053,16 C87.9473684,14.0526316 86.3947368,12.2368421 84.7368421,10.5526316 Z M102.368421,15.8157895 L98.9210526,15.8157895 L98.9210526,9.47368421 L102.368421,9.47368421 L102.368421,15.8157895 Z M96.2368421,30.4473684 C97,31.3157895 98.0526316,31.7631579 99.3947368,31.7631579 C100.921053,31.7631579 102.078947,31.2368421 102.815789,30.2105263 C103.552632,29.1842105 103.921053,27.5526316 103.921053,25.3157895 C103.921053,23.1578947 103.526316,21.5526316 102.763158,20.4473684 C102,19.3684211 100.868421,18.8157895 99.3684211,18.8157895 C97.8421053,18.8157895 96.6842105,19.3421053 95.9473684,20.3684211 C95.2105263,21.3947368 94.8421053,23.0526316 94.8421053,25.2894737 C94.8421053,25.6578947 94.8684211,25.9736842 94.8684211,26.3157895 C95.4210526,27.6842105 95.8684211,29.0526316 96.2368421,30.4473684 Z M98.5263158,22.3684211 C98.7105263,21.8157895 99,21.5526316 99.4210526,21.5526316 C99.8421053,21.5526316 100.131579,21.8421053 100.315789,22.3947368 C100.5,22.9473684 100.578947,23.9210526 100.578947,25.3157895 C100.578947,26.7105263 100.5,27.6842105 100.315789,28.2368421 C100.131579,28.7894737 99.8421053,29.0526316 99.4210526,29.0526316 C99,29.0526316 98.7105263,28.7894737 98.5263158,28.2631579 C98.3421053,27.7368421 98.2631579,26.7368421 98.2631579,25.3157895 C98.2368421,23.8947368 98.3421053,22.9210526 98.5263158,22.3684211 Z M17.6578947,12.5 L17.6578947,9.47368421 L20.5526316,9.47368421 C19.5526316,10.4473684 18.5789474,11.4473684 17.6578947,12.5 Z M99.4210526,50.4210526 C98.5263158,50.4210526 97.7631579,50.6052632 97.1578947,50.9473684 C96.7105263,53.3947368 96.0526316,55.8157895 95.1842105,58.1842105 C95.1315789,58.3684211 95.0526316,58.5263158 95,58.7105263 C95.1578947,59.9736842 95.5,60.9736842 96.0263158,61.7368421 C96.7894737,62.8157895 97.9210526,63.3684211 99.4210526,63.3684211 C100.947368,63.3684211 102.105263,62.8421053 102.842105,61.8157895 C103.578947,60.7894737 103.947368,59.1578947 103.947368,56.9210526 C103.947368,54.7631579 103.552632,53.1578947 102.789474,52.0526316 C102.052632,50.9736842 100.921053,50.4210526 99.4210526,50.4210526 Z M100.315789,59.8157895 C100.131579,60.3684211 99.8421053,60.6315789 99.4210526,60.6315789 C99,60.6315789 98.7105263,60.3684211 98.5263158,59.8421053 C98.3421053,59.3157895 98.2631579,58.3157895 98.2631579,56.8947368 C98.2631579,55.4473684 98.3421053,54.4736842 98.5263158,53.9473684 C98.7105263,53.4210526 99,53.1315789 99.4210526,53.1315789 C99.8421053,53.1315789 100.131579,53.4210526 100.315789,53.9736842 C100.5,54.5263158 100.578947,55.5 100.578947,56.8947368 C100.578947,58.2894737 100.473684,59.2631579 100.315789,59.8157895 Z M102.368421,78.9736842 L101.842105,78.9736842 L98.8947368,76.0263158 L98.8947368,72.3157895 C98.8947368,71.5 98.9210526,70.7631579 98.9473684,70.1052632 C98.7368421,70.3684211 98.4736842,70.6315789 98.1578947,70.9210526 L96.7368421,72.1052632 L94.9736842,69.9473684 L99.2894737,66.4210526 L102.368421,66.4210526 L102.368421,78.9736842 L102.368421,78.9736842 Z M15.5,72.0789474 L13.7368421,69.9210526 L14.7631579,69.1052632 C15.3157895,69.8684211 15.8684211,70.6052632 16.4473684,71.3421053 L15.5,72.0789474 Z M92.6578947,67.8421053 C93.1842105,68.5789474 93.5263158,69.5789474 93.6842105,70.8157895 L91.9736842,69.1052632 C91.4736842,68.6052632 90.9473684,68.1842105 90.3684211,67.8157895 C90.6315789,67.4210526 90.8947368,67 91.1578947,66.6052632 C91.7368421,66.8421053 92.2368421,67.2631579 92.6578947,67.8421053 Z M4.60526316,14.3684211 C3.84210526,13.2894737 3.47368421,11.6842105 3.47368421,9.55263158 C3.47368421,9.52631579 3.47368421,9.5 3.47368421,9.47368421 L6.84210526,9.47368421 C6.84210526,9.5 6.84210526,9.52631579 6.84210526,9.55263158 C6.84210526,10.9736842 6.92105263,11.9473684 7.10526316,12.5 C7.28947368,13.0263158 7.57894737,13.2894737 8,13.2894737 C8.42105263,13.2894737 8.73684211,13 8.89473684,12.4736842 C9.07894737,11.9210526 9.15789474,10.9473684 9.15789474,9.55263158 C9.15789474,9.52631579 9.15789474,9.5 9.15789474,9.47368421 L12.5263158,9.47368421 C12.5263158,9.5 12.5263158,9.52631579 12.5263158,9.55263158 C12.5263158,11.7894737 12.1578947,13.4210526 11.4210526,14.4473684 C10.6842105,15.4736842 9.52631579,16 8,16 C6.52631579,16 5.39473684,15.4473684 4.60526316,14.3684211 Z M109.052632,24.9473684 C109.052632,24.1315789 109.078947,23.3947368 109.105263,22.7368421 C108.894737,23 108.631579,23.2631579 108.315789,23.5526316 L106.894737,24.7368421 L105.131579,22.5789474 L109.447368,19.0526316 L112.5,19.0526316 L112.5,31.6315789 L109.052632,31.6315789 L109.052632,24.9473684 L109.052632,24.9473684 Z M99.2894737,34.8157895 L102.342105,34.8157895 L102.342105,47.3947368 L98.8947368,47.3947368 L98.8947368,40.7368421 C98.8947368,39.9210526 98.9210526,39.1842105 98.9473684,38.5263158 C98.7368421,38.7894737 98.4736842,39.0526316 98.1578947,39.3421053 L97.7894737,39.6578947 C97.7105263,38.5526316 97.6052632,37.4210526 97.4473684,36.3421053 L99.2894737,34.8157895 Z M112.5,82.1842105 L112.5,89.6315789 L109.078947,86.2105263 C109.078947,86.1052632 109.078947,85.9736842 109.105263,85.8684211 C109.052632,85.9210526 109,86 108.947368,86.0526316 L107.026316,84.1315789 L109.447368,82.1578947 L112.5,82.1842105 L112.5,82.1842105 Z M91.3157895,19.0263158 L92.1842105,19.0263158 L92.1842105,20.5526316 C91.9210526,20.0263158 91.6315789,19.5263158 91.3157895,19.0263158 Z M10.9736842,22.5526316 C9.57894737,25.4210526 8.44736842,28.4473684 7.68421053,31.6052632 L7.52631579,31.6052632 L7.52631579,24.9473684 C7.52631579,24.1315789 7.55263158,23.3947368 7.57894737,22.7368421 C7.36842105,23 7.10526316,23.2631579 6.78947368,23.5526316 L5.36842105,24.7368421 L3.60526316,22.5789474 L7.89473684,19.0263158 L10.9736842,19.0263158 C10.9736842,19.0263158 10.9736842,22.5526316 10.9736842,22.5526316 Z M63.2631579,87.0526316 C63.3157895,87.5 63.3157895,87.9736842 63.3157895,88.5 C63.3157895,89.7105263 63.2105263,90.7368421 62.9736842,91.5789474 L59.6052632,91.5789474 C59.6315789,91.5263158 59.6578947,91.4736842 59.6578947,91.3947368 C59.8421053,90.8421053 59.9210526,89.8684211 59.9210526,88.4736842 C59.9210526,88.2105263 59.9210526,87.9736842 59.9210526,87.7368421 C61.0526316,87.5526316 62.1578947,87.3157895 63.2631579,87.0526316 Z M119.710526,82 C119.815789,82 119.894737,82 120,82 L120,84.7631579 C119.921053,84.7368421 119.815789,84.7105263 119.710526,84.7105263 C119.289474,84.7105263 119,84.9736842 118.815789,85.5263158 C118.631579,86.0526316 118.552632,87.0526316 118.552632,88.4736842 C118.552632,89.8947368 118.631579,90.8684211 118.815789,91.4210526 C118.842105,91.4736842 118.842105,91.5263158 118.868421,91.5789474 L115.526316,91.5789474 C115.289474,90.7105263 115.157895,89.6842105 115.157895,88.5 C115.157895,86.2631579 115.526316,84.6315789 116.263158,83.5789474 C117.052632,82.5263158 118.184211,82 119.710526,82 Z M83.6052632,87.5526316 C83.6315789,87.8684211 83.6315789,88.1842105 83.6315789,88.5 C83.6315789,89.7105263 83.5263158,90.7368421 83.2894737,91.5789474 L79.9210526,91.5789474 C79.9473684,91.5263158 79.9736842,91.4736842 79.9736842,91.3947368 C80.1578947,90.8421053 80.2368421,89.8684211 80.2368421,88.4736842 C80.2368421,87.0789474 80.1578947,86.1052632 79.9736842,85.5526316 C79.7894737,85 79.5,84.7105263 79.0789474,84.7105263 C78.6578947,84.7105263 78.3684211,84.9736842 78.1842105,85.5263158 C78,86.0526316 77.9210526,87.0526316 77.9210526,88.4736842 C77.9210526,89.8947368 78,90.8684211 78.1842105,91.4210526 C78.2105263,91.4736842 78.2105263,91.5263158 78.2368421,91.5789474 L74.8947368,91.5789474 C74.6578947,90.7105263 74.5263158,89.6842105 74.5263158,88.5 C74.5263158,86.2631579 74.8947368,84.6315789 75.6315789,83.5789474 C76.2105263,82.7631579 77.0526316,82.2631579 78.1315789,82.0789474 C78.2631579,82.2105263 78.3947368,82.3684211 78.5263158,82.5 L83.6052632,87.5526316 Z M71.8947368,83.9210526 L71.8947368,91.5789474 L68.4473684,91.5789474 L68.4473684,88.1052632 C68.4473684,87.2894737 68.4736842,86.5526316 68.5,85.8947368 C68.2894737,86.1578947 68.0263158,86.4210526 67.7105263,86.7105263 L66.2894737,87.8947368 L65.1842105,86.5526316 C66.0263158,86.2894737 66.8684211,86.0263158 67.6842105,85.7368421 C69.1052632,85.1842105 70.5263158,84.5789474 71.8947368,83.9210526 Z M51.5789474,88.4210526 L51.5789474,91.5789474 L48.1315789,91.5789474 L48.1315789,88.2368421 C49.2631579,88.3421053 50.4210526,88.3947368 51.5789474,88.4210526 Z M57.8947368,91.4210526 C57.9210526,91.4736842 57.9210526,91.5263158 57.9473684,91.5789474 L54.6052632,91.5789474 C54.3684211,90.7105263 54.2368421,89.6842105 54.2368421,88.5 C54.2368421,88.4473684 54.2368421,88.4210526 54.2368421,88.3684211 C55.3684211,88.3157895 56.5,88.2105263 57.6315789,88.0789474 C57.6315789,88.2105263 57.6315789,88.3421053 57.6315789,88.4736842 C57.6315789,89.9210526 57.7105263,90.8947368 57.8947368,91.4210526 Z M119.710526,18.8421053 C119.815789,18.8421053 119.894737,18.8421053 120,18.8684211 L120,21.6315789 C119.921053,21.6052632 119.815789,21.5789474 119.710526,21.5789474 C119.289474,21.5789474 119,21.8421053 118.815789,22.3947368 C118.631579,22.9473684 118.552632,23.9210526 118.552632,25.3421053 C118.552632,26.7631579 118.631579,27.7368421 118.815789,28.2894737 C119,28.8157895 119.289474,29.0789474 119.710526,29.0789474 C119.815789,29.0789474 119.894737,29.0526316 120,29.0263158 L120,31.7631579 C119.894737,31.7631579 119.815789,31.7894737 119.710526,31.7894737 C118.210526,31.7894737 117.078947,31.2368421 116.315789,30.1578947 C115.552632,29.0789474 115.157895,27.4736842 115.157895,25.3421053 C115.157895,23.1052632 115.526316,21.4736842 116.263158,20.4210526 C117.052632,19.3684211 118.184211,18.8421053 119.710526,18.8421053 Z M120,9.47368421 L120,15.8157895 L119.210526,15.8157895 L119.210526,9.47368421 L120,9.47368421 Z M43,87.5 C43.0263158,87.8157895 43.0263158,88.1315789 43.0263158,88.4736842 C43.0263158,89.6842105 42.9210526,90.7105263 42.6842105,91.5526316 L39.3157895,91.5526316 C39.3421053,91.5 39.3684211,91.4473684 39.3684211,91.3684211 C39.5526316,90.8157895 39.6315789,89.8421053 39.6315789,88.4473684 C39.6315789,87.7368421 39.6052632,87.1315789 39.5526316,86.6315789 C40.6842105,87 41.8421053,87.2631579 43,87.5 Z M119.710526,50.4210526 C119.815789,50.4210526 119.894737,50.4210526 120,50.4473684 L120,53.2105263 C119.921053,53.1842105 119.815789,53.1578947 119.710526,53.1578947 C119.289474,53.1578947 119,53.4210526 118.815789,53.9736842 C118.631579,54.5 118.552632,55.5 118.552632,56.9210526 C118.552632,58.3421053 118.631579,59.3157895 118.815789,59.8684211 C119,60.3947368 119.289474,60.6578947 119.710526,60.6578947 C119.815789,60.6578947 119.894737,60.6315789 120,60.6052632 L120,63.3421053 C119.894737,63.3421053 119.815789,63.3421053 119.710526,63.3421053 C118.210526,63.3421053 117.078947,62.7894737 116.315789,61.7105263 C115.552632,60.6315789 115.157895,59.0263158 115.157895,56.8947368 C115.157895,54.6578947 115.526316,53.0263158 116.263158,51.9736842 C117.052632,50.9473684 118.184211,50.4210526 119.710526,50.4210526 Z M119.605263,66.3947368 L120,66.3947368 L120,78.9736842 L119.210526,78.9736842 L119.210526,72.3157895 C119.210526,71.5 119.236842,70.7631579 119.263158,70.1052632 C119.052632,70.3684211 118.789474,70.6315789 118.473684,70.9210526 L117.052632,72.1052632 L115.289474,69.9473684 L119.605263,66.3947368 Z M119.605263,34.8157895 L120,34.8157895 L120,47.3947368 L119.210526,47.3947368 L119.210526,40.7368421 C119.210526,39.9210526 119.236842,39.1842105 119.263158,38.5263158 C119.052632,38.7894737 118.789474,39.0526316 118.473684,39.3421053 L117.052632,40.5263158 L115.289474,38.3684211 L119.605263,34.8157895 Z M21.5789474,83.6315789 C22.3421053,84.7105263 22.7368421,86.3421053 22.7368421,88.5 C22.7368421,89.7105263 22.6315789,90.7368421 22.3947368,91.5789474 L19,91.5789474 C19.0263158,91.5263158 19.0526316,91.4736842 19.0526316,91.3947368 C19.2368421,90.8421053 19.3157895,89.8684211 19.3157895,88.4736842 C19.3157895,87.0789474 19.2368421,86.1052632 19.0526316,85.5526316 C18.8684211,85 18.5789474,84.7105263 18.1578947,84.7105263 C17.7368421,84.7105263 17.4473684,84.9736842 17.2631579,85.5263158 C17.0789474,86.0526316 17,87.0526316 17,88.4736842 C17,89.8947368 17.0789474,90.8684211 17.2631579,91.4210526 C17.2894737,91.4736842 17.3157895,91.5263158 17.3157895,91.5789474 L14,91.5789474 C13.7631579,90.7105263 13.6315789,89.6842105 13.6315789,88.5 C13.6315789,86.2631579 14,84.6315789 14.7368421,83.5789474 C15.4736842,82.5263158 16.6315789,82 18.1578947,82 C19.6842105,82 20.8157895,82.5526316 21.5789474,83.6315789 Z M1.26315789,83.6315789 C2.02631579,84.7105263 2.42105263,86.3421053 2.42105263,88.5 C2.42105263,89.7105263 2.31578947,90.7368421 2.07894737,91.5789474 L0,91.5789474 L0,82.5 C0.5,82.7631579 0.921052632,83.1315789 1.26315789,83.6315789 Z M1.26315789,52.0526316 C2.02631579,53.1315789 2.42105263,54.7631579 2.42105263,56.9210526 C2.42105263,59.1578947 2.05263158,60.7894737 1.31578947,61.8157895 C0.973684211,62.2894737 0.526315789,62.6578947 0.0263157895,62.9210526 L0.0263157895,50.9473684 C0.5,51.1842105 0.921052632,51.5526316 1.26315789,52.0526316 Z M0.815789474,78.9736842 L0,78.9736842 L0,66.3947368 L0.815789474,66.3947368 L0.815789474,78.9736842 Z M0.815789474,15.8157895 L0,15.8157895 L0,9.47368421 L0.815789474,9.47368421 L0.815789474,15.8157895 Z M37.5789474,91.4210526 C37.6052632,91.4736842 37.6052632,91.5263158 37.6315789,91.5789474 L34.2894737,91.5789474 C34.0526316,90.7105263 33.9210526,89.6842105 33.9210526,88.5 C33.9210526,87.0263158 34.0789474,85.8421053 34.3947368,84.8684211 C35.3947368,85.2894737 36.4210526,85.6842105 37.4473684,86.0263158 C37.3421053,86.6052632 37.2894737,87.4210526 37.2894737,88.5 C37.3157895,89.9210526 37.3947368,90.8947368 37.5789474,91.4210526 Z M0.815789474,47.3947368 L0,47.3947368 L0,34.8157895 L0.815789474,34.8157895 L0.815789474,47.3947368 Z M1.26315789,20.4736842 C2.02631579,21.5526316 2.42105263,23.1842105 2.42105263,25.3421053 C2.42105263,27.5789474 2.05263158,29.2105263 1.31578947,30.2368421 C0.973684211,30.7105263 0.526315789,31.0789474 0.0263157895,31.3421053 L0.0263157895,19.3684211 C0.5,19.6052632 0.921052632,19.9736842 1.26315789,20.4736842 Z M31.2631579,83.3947368 L31.2631579,91.5789474 L27.8157895,91.5789474 L27.8157895,88.1052632 C27.8157895,87.2894737 27.8421053,86.5526316 27.8684211,85.8947368 C27.6578947,86.1578947 27.3947368,86.4210526 27.0789474,86.7105263 L25.6578947,87.8947368 L23.8947368,85.7368421 L28.2105263,82.2105263 L29.0526316,82.2105263 C29.7894737,82.6052632 30.5263158,83.0263158 31.2631579,83.3947368 Z M4.60526316,45.9473684 C3.84210526,44.8684211 3.47368421,43.2631579 3.47368421,41.1315789 C3.47368421,38.8947368 3.84210526,37.2631579 4.57894737,36.2105263 C5.15789474,35.4210526 5.94736842,34.9210526 7,34.7368421 C6.55263158,37.3157895 6.31578947,39.9473684 6.31578947,42.6578947 C6.31578947,44.2631579 6.39473684,45.8421053 6.55263158,47.3947368 C5.76315789,47.1052632 5.10526316,46.6315789 4.60526316,45.9473684 Z M8.02631579,66.2105263 C6.5,66.2105263 5.34210526,66.7368421 4.60526316,67.7894737 C3.86842105,68.8421053 3.5,70.4736842 3.5,72.7105263 C3.5,74.8421053 3.89473684,76.4473684 4.63157895,77.5263158 C5.39473684,78.6052632 6.52631579,79.1578947 8.02631579,79.1578947 C9.55263158,79.1578947 10.7105263,78.6315789 11.4473684,77.6052632 C12.1842105,76.5789474 12.5526316,74.9473684 12.5526316,72.7105263 C12.5526316,70.5526316 12.1578947,68.9473684 11.3947368,67.8421053 C10.6578947,66.7631579 9.52631579,66.2105263 8.02631579,66.2105263 Z M8.92105263,75.6052632 C8.73684211,76.1578947 8.44736842,76.4210526 8.02631579,76.4210526 C7.60526316,76.4210526 7.31578947,76.1578947 7.13157895,75.6315789 C6.94736842,75.1052632 6.86842105,74.1052632 6.86842105,72.6842105 C6.86842105,71.2368421 6.94736842,70.2631579 7.13157895,69.7368421 C7.31578947,69.2105263 7.60526316,68.9210526 8.02631579,68.9210526 C8.44736842,68.9210526 8.73684211,69.2105263 8.92105263,69.7631579 C9.10526316,70.3157895 9.18421053,71.2894737 9.18421053,72.6842105 C9.18421053,74.0789474 9.07894737,75.0526316 8.92105263,75.6052632 Z M7.89473684,82.1842105 L10.9473684,82.1842105 L10.9473684,91.5789474 L7.5,91.5789474 L7.5,88.1052632 C7.5,87.2894737 7.52631579,86.5526316 7.55263158,85.8947368 C7.34210526,86.1578947 7.07894737,86.4210526 6.76315789,86.7105263 L5.34210526,87.8947368 L3.57894737,85.7368421 L7.89473684,82.1842105 Z M115,96.5789474 L89.7368421,71.3157895 C88.4736842,70.0526316 86.8421053,69.4473684 85.2105263,69.4736842 C91.1578947,62.1315789 94.7368421,52.7894737 94.7368421,42.6315789 C94.7368421,19.1315789 75.6052632,0 52.1052632,0 C28.6052632,0 9.47368421,19.1315789 9.47368421,42.6315789 C9.47368421,66.1315789 28.6052632,85.2631579 52.1052632,85.2631579 C62.2631579,85.2631579 71.6052632,81.6842105 78.9473684,75.7368421 C78.9210526,77.3684211 79.5526316,79.0263158 80.7894737,80.2631579 L106.052632,105.526316 C107.289474,106.763158 108.894737,107.368421 110.526316,107.368421 C112.157895,107.368421 113.763158,106.763158 115,105.526316 C117.447368,103.052632 117.447368,99.0526316 115,96.5789474 Z M52.1052632,78.9473684 C32.0789474,78.9473684 15.7894737,62.6578947 15.7894737,42.6315789 C15.7894737,22.6052632 32.0789474,6.31578947 52.1052632,6.31578947 C72.1315789,6.31578947 88.4210526,22.6052632 88.4210526,42.6315789 C88.4210526,62.6578947 72.1315789,78.9473684 52.1052632,78.9473684 Z" id="Shape" opacity="0.65"></path>
        </g>
    </g>
</svg>