<?xml version="1.0" encoding="UTF-8"?>
<svg width="128px" height="128px" viewBox="0 0 128 128" version="1.1" xmlns="http://www.w3.org/2000/svg" xmlns:xlink="http://www.w3.org/1999/xlink">
    <title>Graphic elements / Icons / Flat icons / Marketplace / marketplace-building-sys-fire-life-safety-sys</title>
    <g id="Graphic-elements-/-Icons-/-Flat-icons-/-Marketplace-/-marketplace-building-sys-fire-life-safety-sys" stroke="none" stroke-width="1" fill-rule="evenodd">
        <g id="marketplace-building-sys-fire-life-safety-sys" transform="translate(10.000000, 4.000000)" fill-rule="nonzero">
            <path d="M51.4205607,56.7476636 C51.4205607,59.9439252 51.9252336,63.0280374 52.8785047,65.8878505 L45.4766355,65.8878505 L45.4766355,52.4299065 L51.6448598,52.4299065 C51.5046729,53.8037383 51.4205607,55.2336449 51.4205607,56.7476636 Z M45.4766355,45.7009346 L53.1028037,45.7009346 C53.7757009,43.5700935 54.6448598,41.6074766 55.5700935,39.8130841 L55.5700935,32.2429907 L45.4766355,32.2429907 L45.4766355,45.7009346 L45.4766355,45.7009346 Z M45.4766355,106.261682 L55.5700935,106.261682 L55.5700935,92.8037383 L45.4766355,92.8037383 L45.4766355,106.261682 L45.4766355,106.261682 Z M55.5700935,72.6168224 L45.4766355,72.6168224 L45.4766355,86.0747664 L55.5700935,86.0747664 L55.5700935,72.6168224 Z M74.0747664,92.8037383 L63.9813084,92.8037383 L63.9813084,106.261682 L74.0747664,106.261682 L74.0747664,92.8037383 Z M37.0654206,52.4299065 L26.9719626,52.4299065 L26.9719626,65.8878505 L37.0654206,65.8878505 L37.0654206,52.4299065 Z M37.0654206,32.2429907 L26.9719626,32.2429907 L26.9719626,45.7009346 L37.0654206,45.7009346 L37.0654206,32.2429907 Z M74.0747664,85.3457944 C70.4018692,84.4766355 66.9813084,82.9345794 63.9813084,80.8317757 L63.9813084,86.0747664 L74.0747664,86.0747664 L74.0747664,85.3457944 Z M26.9719626,106.261682 L37.0654206,106.261682 L37.0654206,92.8037383 L26.9719626,92.8037383 L26.9719626,106.261682 Z M37.0654206,72.6168224 L26.9719626,72.6168224 L26.9719626,86.0747664 L37.0654206,86.0747664 L37.0654206,72.6168224 Z M87.5327103,85.3457944 C85.3738318,85.8504673 83.1308411,86.1308411 80.8037383,86.1308411 L80.8037383,86.1308411 L80.8037383,112.990654 L20.2429907,112.990654 L20.2429907,25.5140187 L65.4672897,25.5140187 C66.8971963,23.2429907 67.6261682,21.2523364 67.4299065,18.7850467 L13.5140187,18.7850467 L13.5140187,112.990654 L6.78504673,112.990654 L6.78504673,119.719626 L94.2616822,119.719626 L94.2616822,112.990654 L87.5327103,112.990654 L87.5327103,85.3457944 Z" id="Shape" opacity="0.65"></path>
            <path d="M10.1214953,37.9345794 C9.02803738,37.4579439 8.24299065,36.8130841 7.71028037,35.9719626 C6.36448598,33.8130841 6.47663551,30 8.10280374,24.7009346 L8.46728972,23.5233645 C9.75700935,19.3738318 11.0747664,15.1401869 11.3271028,10.9345794 C13.317757,12.1682243 15.3364486,13.7102804 17.1588785,15.4205607 L26.1588785,15.4205607 C24.6168224,13.3457944 22.9345794,11.6074766 21.4766355,10.2616822 C17.5233645,6.58878505 12.9813084,3.70093458 8.69158879,2.1588785 L2.74766355,0.0280373832 L4.26168224,6.14018692 C5.38317757,10.6261682 3.6728972,16.1775701 2.01869159,21.5327103 L1.65420561,22.7102804 C-0.588785047,30.0841121 -0.476635514,35.5794393 1.99065421,39.5327103 C3.70093458,42.2523364 6.42056075,44.0747664 10.0934579,45 C10.1214953,45 10.1214953,37.9345794 10.1214953,37.9345794 Z M80.8037383,82.7663551 C66.4485981,82.7663551 54.7850467,71.1028037 54.7850467,56.7476636 C54.7850467,45.1401869 60.2523364,38.046729 64.6542056,32.3271028 C69.6448598,25.8504673 72.953271,21.588785 69.2242991,12.728972 L64.8224299,2.3271028 L74.2149533,8.63551402 C80.1308411,12.6168224 84.1962617,18.9252336 85.4299065,25.9345794 C86.4392523,31.7663551 85.317757,37.4299065 82.317757,41.4672897 L82.2056075,41.6074766 C81.8130841,42.0841121 81.364486,42.8691589 81.364486,43.9626168 C81.364486,46.0093458 83.046729,47.6915888 85.0934579,47.6915888 C87.1401869,47.6915888 88.8224299,46.0373832 88.8224299,43.9626168 C88.8224299,38.9439252 90.7570093,35.3551402 92.411215,33.1962617 C94.4859813,30.4485981 97.2616822,28.5420561 99.953271,27.9252336 L104.859813,26.8317757 L104.018692,31.7663551 C103.317757,35.7757009 103.990654,38.271028 104.859813,41.7476636 C105.757009,45.2803738 106.878505,49.6542056 106.878505,56.6915888 C106.850467,71.0747664 95.1588785,82.7663551 80.8037383,82.7663551 Z M77.3551402,22.4299065 C76.5140187,27.9813084 73.2056075,32.2429907 69.9813084,36.4485981 C65.8037383,41.8317757 61.5140187,47.411215 61.5140187,56.7476636 C61.5140187,67.4018692 70.1775701,76.0373832 80.8037383,76.0373832 C91.4299065,76.0373832 100.093458,67.3738318 100.093458,56.7476636 C100.093458,50.5514019 99.1121495,46.7943925 98.271028,43.4859813 C97.8224299,41.7476636 97.3738318,40.0093458 97.1214953,38.1588785 C96.1682243,39.7009346 95.4672897,41.6915888 95.4672897,44.0186916 C95.4672897,49.7663551 90.7850467,54.4766355 85.0093458,54.4766355 C79.2336449,54.4766355 74.5514019,49.7943925 74.5514019,44.0186916 C74.5514019,41.635514 75.364486,39.3084112 76.8785047,37.4579439 C78.7570093,34.8785047 79.4299065,31.1214953 78.728972,27.1121495 C78.5046729,25.4579439 78.0280374,23.9158879 77.3551402,22.4299065 Z" id="Shape"></path>
        </g>
    </g>
</svg>