<?xml version="1.0" encoding="UTF-8"?>
<svg width="128px" height="128px" viewBox="0 0 128 128" version="1.1" xmlns="http://www.w3.org/2000/svg" xmlns:xlink="http://www.w3.org/1999/xlink">
    <title>Graphic elements / Icons / Flat icons / Marketplace / marketplace-operator-software-incident-management</title>
    <g id="Graphic-elements-/-Icons-/-Flat-icons-/-Marketplace-/-marketplace-operator-software-incident-management" stroke="none" stroke-width="1" fill-rule="evenodd">
        <g id="marketplace-operator-software-incident-management" transform="translate(6.000000, 4.000000)" fill-rule="nonzero">
            <path d="M54.3880597,60.8955224 L42.9850746,60.8955224 L42.9850746,53.7313433 L63.0447761,53.7313433 C59.7910448,55.6716418 56.8955224,58.0895522 54.3880597,60.8955224 Z M24.0298507,77.3134328 L19.4029851,72.6865672 L14.3283582,77.761194 L24.0298507,87.4626866 L37.3134328,74.1791045 L32.238806,69.1044776 L24.0298507,77.3134328 Z M64.4776119,32.238806 L42.9850746,32.238806 L42.9850746,39.4029851 L64.4776119,39.4029851 L64.4776119,32.238806 Z M24.0298507,55.8208955 L19.4029851,51.1940299 L14.3283582,56.2686567 L24.0298507,65.9701493 L37.3134328,52.6865672 L32.238806,47.6119403 L24.0298507,55.8208955 Z M46.3283582,75.2238806 L42.9850746,75.2238806 L42.9850746,82.3880597 L44.9552239,82.3880597 C45.1940299,79.9104478 45.641791,77.5223881 46.3283582,75.2238806 Z M24.0298507,34.3283582 L19.4029851,29.7014925 L14.3283582,34.7761194 L24.0298507,44.4776119 L37.3134328,31.1940299 L32.238806,26.119403 L24.0298507,34.3283582 Z M71.641791,10.7462687 L60.8955224,10.7462687 L60.8955224,3.58208955 L78.8059701,3.58208955 L78.8059701,48.5373134 C76.3283582,48.7761194 73.9402985,49.2537313 71.641791,49.9402985 L71.641791,10.7462687 Z M46.3283582,96.7164179 L7.1641791,96.7164179 L7.1641791,10.7462687 L17.9104478,10.7462687 L17.9104478,3.58208955 L0,3.58208955 L0,103.880597 L49.3134328,103.880597 C48.0895522,101.61194 47.1044776,99.2238806 46.3283582,96.7164179 Z M57.3134328,0 L21.4925373,0 L21.4925373,14.3283582 L57.3134328,14.3283582 L57.3134328,0 Z" id="Shape" opacity="0.65"></path>
            <path d="M82.3880597,120 C63.6119403,120 48.358209,104.746269 48.358209,85.9701493 C48.358209,67.1940299 63.6119403,51.9402985 82.3880597,51.9402985 C101.164179,51.9402985 116.41791,67.1940299 116.41791,85.9701493 C116.41791,104.746269 101.164179,120 82.3880597,120 Z M82.3880597,59.1044776 C67.5820896,59.1044776 55.5223881,71.1641791 55.5223881,85.9701493 C55.5223881,100.776119 67.5820896,112.835821 82.3880597,112.835821 C97.1940299,112.835821 109.253731,100.776119 109.253731,85.9701493 C109.253731,71.1641791 97.1940299,59.1044776 82.3880597,59.1044776 Z M96.6865672,82.3880597 L85.880597,82.3880597 L85.880597,64.4776119 L78.7164179,64.4776119 L78.7164179,89.5522388 L96.6865672,89.5522388 L96.6865672,82.3880597 Z" id="Shape"></path>
        </g>
    </g>
</svg>