<?xml version="1.0" encoding="UTF-8"?>
<svg width="128px" height="128px" viewBox="0 0 128 128" version="1.1" xmlns="http://www.w3.org/2000/svg" xmlns:xlink="http://www.w3.org/1999/xlink">
    <title>Graphic elements / Icons / Flat icons / Marketplace / marketplace-analytics-seismic-detection</title>
    <g id="Graphic-elements-/-Icons-/-Flat-icons-/-Marketplace-/-marketplace-analytics-seismic-detection" stroke="none" stroke-width="1" fill-rule="evenodd">
        <g id="marketplace-analytics-seismic-detection" transform="translate(4.000000, 4.000000)" fill-rule="nonzero">
            <path d="M7.05882353,24.7058824 L0,24.7058824 L0,0 L24.5882353,0 L24.5882353,7.05882353 L7.05882353,7.05882353 L7.05882353,24.7058824 Z M24.7058824,112.941176 L7.05882353,112.941176 L7.05882353,95.2941176 L0,95.2941176 L0,120 L24.7058824,120 L24.7058824,112.941176 Z M120,95.2941176 L112.941176,95.2941176 L112.941176,112.941176 L95.2941176,112.941176 L95.2941176,120 L120,120 L120,95.2941176 Z M120,0 L95.2058824,0 L95.2058824,7.05882353 L112.941176,7.05882353 L112.941176,24.6470588 L120,24.6470588 L120,0 Z" id="Shape" opacity="0.65"></path>
            <path d="M67.0588235,109.411765 C67.0588235,109.411765 67.0294118,109.411765 67.0588235,109.411765 C65.2058824,109.411765 63.6764706,107.970588 63.5294118,106.147059 L59.7058824,56.3235294 L56.4411765,92.0882353 C56.2647059,93.9117647 54.7647059,95.2941176 52.9411765,95.2941176 C52.9411765,95.2941176 52.9411765,95.2941176 52.9117647,95.2941176 C51.0882353,95.2941176 49.5882353,93.9117647 49.4117647,92.1176471 L45.6764706,54.7941176 L42.3235294,85.0882353 C42.1176471,86.8529412 40.6764706,88.1764706 38.9117647,88.2352941 C38.8823529,88.2352941 38.8529412,88.2352941 38.8235294,88.2352941 C37.0882353,88.2352941 35.6176471,87 35.3529412,85.2941176 L31.4705882,61.9411765 L28.1764706,78.3529412 C27.8823529,79.8823529 26.5882353,81.0294118 25.0294118,81.1764706 C23.4705882,81.3235294 22,80.4117647 21.4411765,78.9705882 L15.2647059,63.5294118 L0,63.5294118 L0,56.4705882 L17.6470588,56.4705882 C19.0882353,56.4705882 20.3823529,57.3529412 20.9117647,58.6764706 L23.5588235,65.2941176 L28.2941176,41.6470588 C28.6176471,39.9705882 30.1176471,38.7941176 31.8235294,38.8235294 C33.5294118,38.8529412 34.9705882,40.0882353 35.2352941,41.7647059 L38.1176471,59.0294118 L42.3529412,20.7647059 C42.5588235,18.9705882 44.0588235,17.6176471 45.8529412,17.6176471 C45.8529412,17.6176471 45.8529412,17.6176471 45.8823529,17.6176471 C47.6764706,17.6176471 49.2058824,19 49.3823529,20.7941176 L52.7647059,54.5882353 L56.4705882,13.7647059 C56.6470588,11.9411765 58.1764706,10.5588235 59.9705882,10.5588235 C59.9705882,10.5588235 60,10.5588235 60,10.5588235 C61.8235294,10.5588235 63.3529412,12 63.5,13.8235294 L67.3235294,63.6470588 L70.5588235,27.8823529 C70.7352941,26.0882353 72.2352941,24.6764706 74.0588235,24.6764706 C74.0588235,24.6764706 74.0882353,24.6764706 74.0882353,24.6764706 C75.8823529,24.6764706 77.4117647,26.0294118 77.5882353,27.8235294 L81.4705882,64.3529412 L84.7352941,38.1176471 C84.9411765,36.4705882 86.2647059,35.2058824 87.9117647,35.0294118 C89.5588235,34.8529412 91.0882353,35.8823529 91.6176471,37.4411765 L97.8823529,56.4705882 L120,56.4705882 L120,63.5294118 L95.2941176,63.5294118 C93.7647059,63.5294118 92.4117647,62.5588235 91.9411765,61.1176471 L89.7941176,54.6176471 L84.6764706,95.7647059 C84.4411765,97.5294118 82.9411765,98.8529412 81.1764706,98.8529412 C81.1764706,98.8529412 81.1470588,98.8529412 81.1470588,98.8529412 C79.3529412,98.8235294 77.8529412,97.4705882 77.6764706,95.7058824 L74.3823529,64.4411765 L70.5882353,106.235294 C70.4117647,108.029412 68.8823529,109.411765 67.0588235,109.411765 Z" id="Path"></path>
        </g>
    </g>
</svg>