<?xml version="1.0" encoding="UTF-8"?>
<svg width="128px" height="128px" viewBox="0 0 128 128" version="1.1" xmlns="http://www.w3.org/2000/svg" xmlns:xlink="http://www.w3.org/1999/xlink">
    <title>Graphic elements / Icons / Flat icons / Marketplace / marketplace-building-sys-building-mgmt</title>
    <g id="Graphic-elements-/-Icons-/-Flat-icons-/-Marketplace-/-marketplace-building-sys-building-mgmt" stroke="none" stroke-width="1" fill-rule="evenodd">
        <g id="marketplace-building-sys-building-mgmt" transform="translate(4.000000, 12.000000)" fill-rule="nonzero">
            <path d="M9.6437247,56.5506073 L0.0728744939,44.6477733 L4.61538462,41.0040486 L8.01619433,45.2307692 C9.5708502,33.9595142 14.6963563,23.5384615 22.8825911,15.3522267 C32.8178138,5.46558704 45.9838057,0 60,0 C72.0242915,0 83.3198381,3.95951417 92.6963563,11.4412955 C101.805668,18.7044534 108.291498,28.8825911 111.012146,40.1295547 L105.352227,41.4898785 C102.947368,31.5303644 97.2145749,22.4939271 89.1740891,16.0566802 L89.1740891,14.5748988 L87.2307692,14.5748988 C85.9676113,13.6761134 84.6801619,12.8259109 83.3684211,12.0728745 L83.3684211,8.74493927 L83.3684211,5.82995951 L80.4534413,5.82995951 L42.5101215,5.82995951 L39.5951417,5.82995951 L39.5951417,8.74493927 L39.5951417,10.5425101 C26.0161943,17.1740891 16.1295547,30.194332 13.8461538,45.6680162 L17.8785425,42.4129555 L21.5222672,46.9554656 L9.6437247,56.5506073 Z M19.1902834,81.6194332 L22.1052632,81.6194332 L22.1052632,79.6518219 C18.6072874,74.7692308 16.0323887,69.2307692 14.6477733,63.3765182 L8.98785425,64.7368421 C10.4210526,70.7854251 12.9716599,76.4939271 16.3967611,81.6437247 L19.1902834,81.6194332 L19.1902834,81.6194332 Z M82.5668016,93.2793522 C75.8866397,96.9959514 68.1862348,99.1093117 60,99.1093117 C51.9352227,99.1093117 44.2591093,97.1174089 37.3846154,93.2793522 L27.0121457,93.2793522 C27.0850202,93.3522267 27.1821862,93.4008097 27.2550607,93.4736842 C36.5101215,100.8583 48.145749,104.939271 60,104.939271 C72.145749,104.939271 83.6842105,100.834008 92.9878543,93.2793522 L82.5668016,93.2793522 Z M110.550607,48.7287449 L98.4048583,58.0080972 L101.951417,62.6477733 L106.129555,59.465587 C105.012146,66.8744939 102.145749,73.7246964 97.9676113,79.5546559 L97.9676113,81.6194332 L100.809717,81.6194332 L103.651822,81.6194332 C107.975709,75.1578947 110.793522,67.8461538 111.935223,60.1214575 L115.214575,64.3967611 L119.854251,60.8502024 L110.550607,48.7287449 Z" id="Shape" opacity="0.65"></path>
            <path d="M59.951417,84.534413 L59.951417,59.8299595 L77.4898785,45.8137652 L95.0283401,59.8299595 L95.0283401,84.534413 L100.809717,84.534413 L100.809717,90.3643725 L95.0283401,90.3643725 L59.951417,90.3643725 L19.1902834,90.3643725 L19.1902834,84.534413 L25.0202429,84.534413 L25.0202429,43.7246964 L33.7651822,43.7246964 L33.7651822,49.5546559 L30.8502024,49.5546559 L30.8502024,84.534413 L36.6801619,84.534413 L36.6801619,17.4898785 L42.5101215,17.4898785 L42.5101215,8.74493927 L80.4048583,8.74493927 L80.4048583,17.4898785 L86.2348178,17.4898785 L86.2348178,49.0688259 L80.4048583,44.4048583 L80.4048583,23.3198381 L42.5101215,23.3198381 L42.5101215,84.534413 M48.340081,17.4898785 L74.5748988,17.4898785 L74.5748988,14.5748988 L48.340081,14.5748988 L48.340081,17.4898785 Z M89.1983806,62.6477733 L77.4898785,53.2955466 L65.7813765,62.6477733 L65.7813765,84.534413 L89.1983806,84.534413 L89.1983806,62.6477733 L89.1983806,62.6477733 Z" id="Shape"></path>
        </g>
    </g>
</svg>