<?xml version="1.0" encoding="UTF-8"?>
<svg width="128px" height="128px" viewBox="0 0 128 128" version="1.1" xmlns="http://www.w3.org/2000/svg" xmlns:xlink="http://www.w3.org/1999/xlink">
    <title>Graphic elements / Icons / Flat icons / Marketplace / marketplace-spec-solutions-transactional-data</title>
    <g id="Graphic-elements-/-Icons-/-Flat-icons-/-Marketplace-/-marketplace-spec-solutions-transactional-data" stroke="none" stroke-width="1" fill-rule="evenodd">
        <g id="marketplace-spec-solutions-transactional-data" transform="translate(8.000000, 4.000000)" fill-rule="nonzero">
            <path d="M18.6792453,6.59433962 L0,17.0943396 L0,38.009434 L18.6792453,48.8490566 L37.3584906,38.009434 L37.3584906,17.0943396 L18.6792453,6.59433962 Z M27,19.0754717 L18.6792453,23.7169811 L10.3584906,19.1037736 L18.6792453,14.4056604 L27,19.0754717 Z M6.79245283,24.8773585 L15.2830189,29.6037736 L15.2830189,39.0566038 L6.79245283,34.1320755 L6.79245283,24.8773585 Z M22.0754717,39.0566038 L22.0754717,29.6037736 L30.5660377,24.8773585 L30.5660377,34.1320755 L22.0754717,39.0566038 Z M93.3962264,6.59433962 L74.7169811,17.0943396 L74.7169811,38.009434 L93.3962264,48.8490566 L112.075472,38.009434 L112.075472,17.0943396 L93.3962264,6.59433962 Z M101.716981,19.0754717 L93.3962264,23.7169811 L85.0754717,19.1037736 L93.3962264,14.4056604 L101.716981,19.0754717 Z M81.509434,24.8773585 L90,29.6037736 L90,39.0566038 L81.509434,34.1320755 L81.509434,24.8773585 Z M96.7924528,39.0566038 L96.7924528,29.6037736 L105.283019,24.8773585 L105.283019,34.1320755 L96.7924528,39.0566038 Z M18.6792453,71.1226415 L0,81.6226415 L0,102.537736 L18.6792453,113.377358 L37.3584906,102.537736 L37.3584906,81.6226415 L18.6792453,71.1226415 Z M27,83.6037736 L18.6792453,88.245283 L10.3584906,83.6320755 L18.6792453,78.9622642 L27,83.6037736 Z M6.79245283,89.4056604 L15.2830189,94.1320755 L15.2830189,103.584906 L6.79245283,98.6603774 L6.79245283,89.4056604 Z M22.0754717,103.584906 L22.0754717,94.1320755 L30.5660377,89.4056604 L30.5660377,98.6603774 L22.0754717,103.584906 Z M93.3962264,71.1226415 L74.7169811,81.6226415 L74.7169811,102.537736 L93.3962264,113.377358 L112.075472,102.537736 L112.075472,81.6226415 L93.3962264,71.1226415 Z M101.716981,83.6037736 L93.3962264,88.245283 L85.0754717,83.6320755 L93.3962264,78.9622642 L101.716981,83.6037736 Z M81.509434,89.4056604 L90,94.1320755 L90,103.584906 L81.509434,98.6603774 L81.509434,89.4056604 Z M96.7924528,103.584906 L96.7924528,94.1320755 L105.283019,89.4056604 L105.283019,98.6603774 L96.7924528,103.584906 Z" id="Shape"></path>
            <path d="M58.8679245,9.14150943 L54.8490566,4.38679245 L60.0283019,0 L71.5188679,13.5849057 L57.9339623,25.0754717 L53.5471698,19.8962264 L58.2735849,15.9056604 C52.1320755,15.5943396 46.2169811,16.5566038 40.754717,18.5943396 L40.754717,17.1226415 L40.754717,15.1415094 L39.0283019,14.1792453 L36.7358491,12.9056604 C43.5566038,10.0754717 51.0566038,8.68867925 58.8679245,9.14150943 Z M105.028302,46.0471698 L98.9433962,49.5849057 C100.04717,54.1698113 100.443396,58.9245283 100.04717,63.6509434 C99.8490566,65.9433962 99.4811321,68.1792453 98.9716981,70.3584906 L105.084906,73.8113208 C105.962264,70.7264151 106.528302,67.5283019 106.811321,64.2169811 C107.320755,58.0754717 106.698113,51.9056604 105.028302,46.0471698 Z M75.6226415,107.009434 L73.0188679,105.481132 L71.3207547,104.490566 L71.3207547,102.537736 L71.3207547,101.377358 C65.8867925,103.386792 59.9433962,104.377358 53.8018868,104.066038 L58.5,100.075472 L54.1132075,94.8962264 L40.5283019,106.386792 L52.0188679,119.971698 L57.1981132,115.584906 L53.2075472,110.858491 C61.1320755,111.311321 68.745283,109.896226 75.6226415,107.009434 Z M12.0283019,56.3490566 C12.2264151,54.0283019 12.5943396,51.7641509 13.1320755,49.5849057 L7.04716981,46.0471698 C6.16981132,49.1886792 5.54716981,52.4433962 5.26415094,55.7830189 C4.75471698,61.9528302 5.37735849,68.0377358 7.01886792,73.7830189 L13.1320755,70.3301887 C12.0283019,65.8301887 11.6320755,61.1037736 12.0283019,56.3490566 Z" id="Shape" opacity="0.65"></path>
        </g>
    </g>
</svg>