<?xml version="1.0" encoding="UTF-8"?>
<svg width="128px" height="128px" viewBox="0 0 128 128" version="1.1" xmlns="http://www.w3.org/2000/svg" xmlns:xlink="http://www.w3.org/1999/xlink">
    <title>Graphic elements / Icons / Flat icons / Marketplace / marketplace-operator-software-sit-awareness</title>
    <g id="Graphic-elements-/-Icons-/-Flat-icons-/-Marketplace-/-marketplace-operator-software-sit-awareness" stroke="none" stroke-width="1" fill-rule="evenodd">
        <g id="marketplace-operator-software-sit-awareness" transform="translate(4.000000, 4.000000)" fill-rule="nonzero">
            <path d="M102.421053,17.5789474 C91.1052632,6.23684211 76.0263158,0 60,0 C47.0789474,0 34.7631579,4.07894737 24.5263158,11.6052632 C23.1052632,10.7894737 21.4736842,10.3421053 19.7894737,10.3421053 C17.2631579,10.3421053 14.8684211,11.3157895 13.0789474,13.1052632 C11.3157895,14.8947368 10.3421053,17.2631579 10.3421053,19.8157895 C10.3421053,21.5 10.7894737,23.1315789 11.6052632,24.5526316 C4.07894737,34.7631579 0,47.0789474 0,60 C0,76.0263158 6.23684211,91.1052632 17.5789474,102.421053 C28.9210526,113.736842 43.9736842,120 60,120 C76.0263158,120 91.1052632,113.763158 102.421053,102.421053 C113.736842,91.0789474 120,76.0263158 120,60 C120,43.9736842 113.763158,28.8947368 102.421053,17.5789474 Z M17.5789474,17.5789474 C18.1842105,16.9736842 18.9736842,16.6578947 19.8157895,16.6578947 C20.6578947,16.6578947 21.4473684,16.9736842 22.0526316,17.5789474 C22.6578947,18.1842105 22.9736842,18.9736842 22.9736842,19.8157895 C22.9736842,20.6578947 22.6578947,21.4473684 22.0526316,22.0526316 C21.4473684,22.6578947 20.6578947,22.9736842 19.8157895,22.9736842 C18.9736842,22.9736842 18.1842105,22.6578947 17.5789474,22.0526316 C16.9736842,21.4473684 16.6578947,20.6578947 16.6578947,19.8157895 C16.6578947,18.9736842 16.9736842,18.1842105 17.5789474,17.5789474 Z M103.736842,93.2368421 C103.210526,96.5789474 101.421053,99.5 98.6842105,101.473684 C96.5263158,103.052632 93.9473684,103.868421 91.2894737,103.868421 C91.1578947,103.868421 91.0263158,103.868421 90.9210526,103.868421 C82.1578947,110.052632 71.5,113.684211 60,113.684211 C30.3947368,113.684211 6.31578947,89.6052632 6.31578947,60 C6.31578947,48.3157895 10.0789474,37.4736842 16.4473684,28.6578947 C17.5,29.0526316 18.6578947,29.2894737 19.8157895,29.2894737 C22.3421053,29.2894737 24.7368421,28.3157895 26.5263158,26.5263158 C28.3157895,24.7368421 29.2894737,22.3684211 29.2894737,19.8157895 C29.2894737,18.6578947 29.0789474,17.5 28.6578947,16.4473684 C37.4736842,10.0789474 48.3157895,6.31578947 60,6.31578947 C74.5263158,6.31578947 87.7105263,12.1052632 97.3947368,21.5263158 C96.1052632,20.4473684 94.5263158,19.6842105 92.7631579,19.3947368 C90.4473684,19.0263158 88.2105263,19.5263158 86.3684211,20.6578947 C78.8157895,15.5789474 69.7368421,12.6315789 60,12.6315789 C33.8947368,12.6315789 12.6315789,33.8947368 12.6315789,60 C12.6315789,86.1052632 33.8947368,107.368421 60,107.368421 C68.5263158,107.368421 76.5263158,105.105263 83.4210526,101.157895 C82.5263158,100.447368 81.7105263,99.6315789 81.0263158,98.6842105 C80.4210526,97.8684211 79.9473684,96.9736842 79.5789474,96.0789474 C73.7631579,99.2368421 67.0789474,101.052632 60,101.052632 C48.9473684,101.052632 38.8947368,96.6578947 31.5263158,89.5263158 C32.8421053,90.6578947 34.4473684,91.3947368 36.2105263,91.6842105 C36.7105263,91.7631579 37.2105263,91.7894737 37.6842105,91.7894737 C39.5263158,91.7894737 41.3421053,91.2368421 42.8947368,90.2105263 C47.9473684,93.0789474 53.7894737,94.7368421 60,94.7368421 C66.9210526,94.7368421 73.3947368,92.7105263 78.8157895,89.1842105 C78.8684211,88.7894737 78.9736842,88.3947368 79.0789474,88 L75.1315789,84.0526316 C70.7368421,86.8157895 65.5526316,88.4210526 60,88.4210526 C55.2105263,88.4210526 50.6842105,87.2368421 46.7368421,85.1315789 C46.8684211,84.7105263 46.9736842,84.2631579 47.0526316,83.8157895 L47.0526316,83.8157895 C47.8684211,78.6578947 44.3157895,73.7894737 39.1578947,73 C37.7105263,72.7631579 36.2631579,72.8947368 34.8947368,73.2894737 C32.7894737,69.3157895 31.6052632,64.8157895 31.6052632,60.0263158 C31.6052632,44.3421053 44.3421053,31.6052632 60.0263158,31.6052632 C75.7105263,31.6052632 88.4473684,44.3421053 88.4473684,60.0263158 C88.4473684,65.5789474 86.8421053,70.7631579 84.0789474,75.1578947 L88.0263158,79.1052632 C88.4210526,79 88.8157895,78.9210526 89.2105263,78.8421053 C92.7105263,73.4210526 94.7631579,66.9473684 94.7631579,60.0263158 C94.7631579,40.8684211 79.1842105,25.2894737 60.0263158,25.2894737 C40.8684211,25.2894737 25.2894737,40.8684211 25.2894737,60.0263158 C25.2894737,66.2368421 26.9210526,72.0789474 29.7894737,77.1315789 C29.0526316,78.2631579 28.5526316,79.5263158 28.3157895,80.8947368 C27.9210526,83.3947368 28.5263158,85.8947368 30.0263158,87.9473684 C30.1842105,88.1578947 30.3421053,88.3684211 30.5,88.5526316 C23.3421053,81.1315789 18.9473684,71.0789474 18.9473684,60 C18.9473684,37.3684211 37.3684211,18.9473684 60,18.9473684 C68.2368421,18.9473684 75.8947368,21.3947368 82.3421053,25.5789474 C82.1578947,26.1052632 82,26.6842105 81.9210526,27.2631579 C81.1052632,32.4210526 84.6315789,37.2894737 89.7894737,38.1052632 C90.2894737,38.1842105 90.7894737,38.2105263 91.2894737,38.2105263 C92.3684211,38.2105263 93.4210526,38.0263158 94.4473684,37.6578947 C98.6315789,44.1052632 101.078947,51.7631579 101.078947,60 C101.078947,67.1052632 99.2631579,73.7631579 96.0789474,79.6052632 C98.0526316,80.4210526 99.8157895,81.7368421 101.184211,83.4210526 C105.131579,76.5 107.394737,68.5263158 107.394737,60 C107.394737,50.2631579 104.447368,41.2105263 99.3684211,33.6578947 C100,32.6052632 100.421053,31.4473684 100.631579,30.2105263 C101.078947,27.3684211 100.210526,24.6052632 98.4473684,22.5526316 C107.868421,32.2368421 113.684211,45.4473684 113.684211,59.9736842 C113.684211,71.4736842 110.052632,82.1052632 103.894737,90.8684211 C103.894737,91.6578947 103.868421,92.4473684 103.736842,93.2368421 Z M94.3684211,29.2368421 C94.2368421,30.0789474 93.7894737,30.7894737 93.1052632,31.2894737 C92.4210526,31.7894737 91.5789474,31.9736842 90.7631579,31.8421053 C89.9210526,31.7105263 89.1842105,31.2631579 88.7105263,30.5789474 C88.2105263,29.8947368 88.0263158,29.0526316 88.1578947,28.2368421 C88.3947368,26.6842105 89.7368421,25.5789474 91.2631579,25.5789474 C91.4210526,25.5789474 91.5789474,25.6052632 91.7631579,25.6315789 C93.4736842,25.8947368 94.6578947,27.5263158 94.3684211,29.2368421 Z M34.5526316,81.8421053 C34.6842105,81 35.1315789,80.2631579 35.8157895,79.7894737 C36.3684211,79.3947368 37,79.1842105 37.6842105,79.1842105 C37.8421053,79.1842105 38,79.1842105 38.1842105,79.2105263 C39.8947368,79.4736842 41.0789474,81.1052632 40.8157895,82.8157895 L40.8157895,82.8157895 C40.6842105,83.6578947 40.2368421,84.3947368 39.5526316,84.8684211 C38.8684211,85.3421053 38.0263158,85.5789474 37.2105263,85.4473684 C36.3947368,85.3157895 35.6578947,84.8684211 35.1578947,84.1842105 C34.6315789,83.5 34.4210526,82.6842105 34.5526316,81.8421053 Z M63.2631579,72.2105263 L68.1578947,77.1052632 C65.6842105,78.2894737 62.9210526,78.9473684 60,78.9473684 C49.5526316,78.9473684 41.0526316,70.4473684 41.0526316,60 C41.0526316,49.5526316 49.5526316,41.0526316 60,41.0526316 C70.4473684,41.0526316 78.9473684,49.5526316 78.9473684,60 C78.9473684,62.9210526 78.2894737,65.6842105 77.1052632,68.1578947 L72.2105263,63.2631579 C72.5,62.2105263 72.6315789,61.1315789 72.6315789,60 C72.6315789,53.0263158 66.9736842,47.3684211 60,47.3684211 C53.0263158,47.3684211 47.3684211,53.0263158 47.3684211,60 C47.3684211,66.9736842 53.0263158,72.6315789 60,72.6315789 C61.1315789,72.6315789 62.2368421,72.4736842 63.2631579,72.2105263 Z" id="Shape"></path>
            <path d="M98.9210526,85.6842105 C96.1842105,81.9210526 91.2105263,80.7631579 87.1842105,82.7105263 L66.1052632,61.6315789 C66.2368421,61.1052632 66.3157895,60.5526316 66.3157895,60 C66.3157895,56.5263158 63.4736842,53.6842105 60,53.6842105 C56.5263158,53.6842105 53.6842105,56.5263158 53.6842105,60 C53.6842105,63.4736842 56.5263158,66.3157895 60,66.3157895 C60.5526316,66.3157895 61.1052632,66.2368421 61.6315789,66.1052632 L82.7105263,87.1842105 C81.2631579,90.2105263 81.4736842,93.9210526 83.6052632,96.8421053 C85.4473684,99.3947368 88.3421053,100.736842 91.2894737,100.736842 C93.2105263,100.736842 95.1578947,100.157895 96.8421053,98.9210526 C101.052632,95.8684211 102,89.9210526 98.9210526,85.6842105 Z M93.1052632,93.8157895 C91.6842105,94.8421053 89.7105263,94.5263158 88.6842105,93.1052632 C87.6578947,91.6842105 87.9736842,89.7105263 89.3947368,88.6842105 C89.9473684,88.2894737 90.6052632,88.0789474 91.2368421,88.0789474 C92.2105263,88.0789474 93.1842105,88.5263158 93.7894737,89.3947368 C94.8421053,90.8157895 94.5263158,92.7894737 93.1052632,93.8157895 Z" id="Shape" opacity="0.65"></path>
        </g>
    </g>
</svg>