<?xml version="1.0" encoding="UTF-8"?>
<svg width="128px" height="128px" viewBox="0 0 128 128" version="1.1" xmlns="http://www.w3.org/2000/svg" xmlns:xlink="http://www.w3.org/1999/xlink">
    <title>Graphic elements / Icons / Flat icons / Marketplace / marketplace-analytics-fire-smoke-detection</title>
    <g id="Graphic-elements-/-Icons-/-Flat-icons-/-Marketplace-/-marketplace-analytics-fire-smoke-detection" stroke="none" stroke-width="1" fill-rule="evenodd">
        <g id="marketplace-analytics-fire-smoke-detection" transform="translate(4.000000, 4.000000)" fill-rule="nonzero">
            <path d="M7.05882353,24.7058824 L0,24.7058824 L0,0 L24.5882353,0 L24.5882353,7.05882353 L7.05882353,7.05882353 L7.05882353,24.7058824 Z M24.7058824,112.941176 L7.05882353,112.941176 L7.05882353,95.2941176 L0,95.2941176 L0,120 L24.7058824,120 L24.7058824,112.941176 Z M120,95.2941176 L112.941176,95.2941176 L112.941176,112.941176 L95.2941176,112.941176 L95.2941176,120 L120,120 L120,95.2941176 Z M120,0 L95.2058824,0 L95.2058824,7.05882353 L112.941176,7.05882353 L112.941176,24.6470588 L120,24.6470588 L120,0 Z" id="Shape" opacity="0.65"></path>
            <path d="M63.5588235,112.911765 C59,112.911765 55.1764706,111.323529 52.6176471,108.264706 C49.3235294,104.352941 48.5294118,98.5 50.5,92.5588235 C53.3235294,84.0882353 62.3529412,76.8235294 69.4117647,74.2647059 L75.6470588,72.0294118 L74.0294118,78.4411765 C73.1176471,82.1176471 74.5588235,86.7941176 75.9411765,91.3235294 L76.2647059,92.3529412 C78.2647059,98.8529412 78.1470588,103.764706 75.9117647,107.323529 C74.1176471,110.176471 71.1176471,111.970588 66.9705882,112.617647 C65.7647059,112.823529 64.6470588,112.911765 63.5588235,112.911765 Z M66.7941176,83.5588235 C62.6176471,86.3823529 58.5588235,90.6470588 57.1764706,94.8235294 C56,98.3823529 56.2941176,101.735294 58,103.735294 C59.9705882,106.058824 63.3529412,106.088235 65.8529412,105.676471 C68.9117647,105.205882 69.6470588,104 69.9117647,103.617647 C70.6470588,102.441176 71.1470588,99.9117647 69.5,94.4705882 L69.2058824,93.4705882 C68.2058824,90.3235294 67.1764706,86.9411765 66.7941176,83.5588235 Z M79.5882353,47.8235294 C73.4411765,39.8529412 69,34.1176471 73.8235294,22.7352941 L78.4411765,11.8235294 L68.5882353,18.4411765 C61.3823529,23.2941176 56.3823529,31 54.8823529,39.5588235 C53.6470588,46.6470588 55.0294118,53.5 58.6176471,58.4117647 L58.7352941,58.5588235 C59.5294118,59.5294118 59.9411765,60.6764706 59.9411765,61.9117647 C59.9411765,64.8235294 57.5588235,67.2058824 54.6470588,67.2058824 C51.7352941,67.2058824 49.3529412,64.8235294 49.3529412,61.9117647 C49.3529412,55.8529412 47,51.5 45.0294118,48.9117647 C42.5294118,45.6176471 39.2352941,43.3235294 36,42.5882353 L30.8823529,41.4411765 L31.7647059,46.6176471 C32.6470588,51.7647059 31.8235294,54.9411765 30.7058824,59.3235294 C29.5882353,63.6764706 28.2058824,69.0882353 28.2058824,77.7647059 C28.2058824,90.9117647 36.2352941,102.205882 47.6470588,107.058824 C46.3529412,104.382353 45.7647059,101.294118 45.8823529,98.0588235 C39.4705882,93.5882353 35.2647059,86.1764706 35.2647059,77.7941176 C35.2647059,70 36.4705882,65.2647059 37.5588235,61.0882353 C38.2647059,58.3823529 38.9117647,55.7941176 39.1470588,52.7941176 C39.2352941,52.9117647 39.3529412,53.0588235 39.4411765,53.1764706 C40.7647059,54.9117647 42.3235294,57.8235294 42.3235294,61.9117647 C42.3235294,68.7352941 47.8529412,74.2647059 54.6764706,74.2647059 C61.5,74.2647059 67.0294118,68.7352941 67.0294118,61.9117647 C67.0294118,59.0882353 66.0588235,56.3235294 64.2647059,54.1470588 C61.8235294,50.7941176 60.9411765,45.9117647 61.8235294,40.7352941 C62.3235294,37.9117647 63.2941176,35.1764706 64.7058824,32.7058824 C65.1176471,40.6176471 69.5882353,46.4117647 73.9705882,52.0882353 C79.2352941,58.8823529 84.6764706,65.9411765 84.6764706,77.7647059 C84.6764706,83.2058824 82.8823529,88.2647059 79.8823529,92.3529412 C80.8235294,95.7352941 81.2352941,98.7352941 81.1176471,101.441176 C87.6176471,95.6176471 91.7353901,87.1764706 91.7353901,77.7647059 C91.7647059,63.5882353 85.0294118,54.8529412 79.5882353,47.8235294 Z" id="Shape"></path>
        </g>
    </g>
</svg>