<?xml version="1.0" encoding="UTF-8"?>
<svg width="128px" height="128px" viewBox="0 0 128 128" version="1.1" xmlns="http://www.w3.org/2000/svg" xmlns:xlink="http://www.w3.org/1999/xlink">
    <title>Graphic elements / Icons / Flat icons / Marketplace / marketplace-it-infra-network</title>
    <g id="Graphic-elements-/-Icons-/-Flat-icons-/-Marketplace-/-marketplace-it-infra-network" stroke="none" stroke-width="1" fill-rule="evenodd">
        <g id="marketplace-it-infra-network" transform="translate(4.000000, 9.000000)" fill-rule="nonzero">
            <path d="M46.2857143,0 L5.14285714,0 L5.14285714,34.2857143 L46.2857143,34.2857143 L46.2857143,0 Z M39.4285714,27.4285714 L12,27.4285714 L12,6.85714286 L39.4285714,6.85714286 L39.4285714,27.4285714 Z M114.857143,0 L73.7142857,0 L73.7142857,34.2857143 L114.857143,34.2857143 L114.857143,0 Z M108,27.4285714 L80.5714286,27.4285714 L80.5714286,6.85714286 L108,6.85714286 L108,27.4285714 Z M39.4285714,109.714286 L80.5714286,109.714286 L80.5714286,75.4285714 L39.4285714,75.4285714 L39.4285714,109.714286 Z M46.2857143,82.2857143 L73.7142857,82.2857143 L73.7142857,102.857143 L46.2857143,102.857143 L46.2857143,82.2857143 Z" id="Shape"></path>
            <path d="M120,51.4285714 L103.971429,51.4285714 C102.942857,48.5142857 100.628571,46.2 97.7142857,45.1714286 L97.7142857,37.7142857 L90.8571429,37.7142857 L90.8571429,45.1714286 C87.9428571,46.2 85.6285714,48.5142857 84.6,51.4285714 L69.7142857,51.4285714 C68.2857143,47.4285714 64.4857143,44.5714286 60.0285714,44.5714286 C55.5714286,44.5714286 51.7428571,47.4285714 50.3428571,51.4285714 L35.4571429,51.4285714 C34.4285714,48.5142857 32.1142857,46.2 29.2,45.1714286 L29.2,37.7142857 L22.3428571,37.7142857 L22.3428571,45.1714286 C19.4285714,46.2 17.1142857,48.5142857 16.0857143,51.4285714 L0,51.4285714 L0,58.2857143 L16.0285714,58.2857143 C17.4285714,62.2857143 21.2571429,65.1428571 25.7142857,65.1428571 C30.1714286,65.1428571 34,62.2857143 35.4,58.2857143 L50.2857143,58.2857143 C51.3142857,61.2 53.6285714,63.5142857 56.5428571,64.5428571 L56.5428571,72 L63.4,72 L63.4,64.5428571 C66.3142857,63.5142857 68.6285714,61.2 69.6571429,58.2857143 L84.5428571,58.2857143 C85.9714286,62.2857143 89.7714286,65.1428571 94.2285714,65.1428571 C98.6857143,65.1428571 102.514286,62.2857143 103.914286,58.2857143 L119.914286,58.2857143 L119.914286,51.4285714 L120,51.4285714 Z M25.7142857,58.2857143 C23.8285714,58.2857143 22.2857143,56.7428571 22.2857143,54.8571429 C22.2857143,52.9714286 23.8285714,51.4285714 25.7142857,51.4285714 C27.6,51.4285714 29.1428571,52.9714286 29.1428571,54.8571429 C29.1428571,56.7428571 27.6,58.2857143 25.7142857,58.2857143 Z M60,58.2857143 C58.1142857,58.2857143 56.5714286,56.7428571 56.5714286,54.8571429 C56.5714286,52.9714286 58.1142857,51.4285714 60,51.4285714 C61.8857143,51.4285714 63.4285714,52.9714286 63.4285714,54.8571429 C63.4285714,56.7428571 61.8857143,58.2857143 60,58.2857143 Z M94.2857143,58.2857143 C92.4,58.2857143 90.8571429,56.7428571 90.8571429,54.8571429 C90.8571429,52.9714286 92.4,51.4285714 94.2857143,51.4285714 C96.1714286,51.4285714 97.7142857,52.9714286 97.7142857,54.8571429 C97.7142857,56.7428571 96.1714286,58.2857143 94.2857143,58.2857143 Z" id="Shape" opacity="0.65"></path>
        </g>
    </g>
</svg>