<?xml version="1.0" encoding="UTF-8"?>
<svg width="128px" height="128px" viewBox="0 0 128 128" version="1.1" xmlns="http://www.w3.org/2000/svg" xmlns:xlink="http://www.w3.org/1999/xlink">
    <title>Graphic elements / Icons / Flat icons / Marketplace / marketplace-building-sys-alarm-systems</title>
    <g id="Graphic-elements-/-Icons-/-Flat-icons-/-Marketplace-/-marketplace-building-sys-alarm-systems" stroke="none" stroke-width="1" fill-rule="evenodd">
        <g id="marketplace-building-sys-alarm-systems" transform="translate(4.000000, 6.000000)" fill-rule="nonzero">
            <path d="M87.4285714,64.9714286 C87.4285714,49.8285714 75.1428571,37.5428571 60,37.5428571 C44.8571429,37.5428571 32.5714286,49.8285714 32.5714286,64.9714286 L32.5714286,99.2571429 L87.4285714,99.2571429 L87.4285714,64.9714286 Z M46.2857143,64.9714286 L46.2857143,71.7714286 L39.4285714,71.7714286 L39.4285714,64.9714286 C39.4285714,57.5142857 43.4571429,50.6285714 49.9714286,47 L53.3142857,52.9714286 C48.9714286,55.4 46.2857143,60 46.2857143,64.9714286 Z" id="Shape"></path>
            <path d="M119.828571,75.2285714 L106.028571,61.5714286 L119.828571,47.9142857 L101.485714,41.5714286 L108,23.2857143 L88.7142857,25.5714286 L86.6571429,6.28571429 L70.2571429,16.6857143 L60.0285714,0.171428571 L49.7714286,16.6571429 L33.4,6.22857143 L31.3142857,25.5428571 L12.0285714,23.2571429 L18.5142857,41.5428571 L0.142857143,47.8285714 L13.9428571,61.4857143 L0.171428571,75.1428571 L18.5142857,81.4857143 L12,99.7714286 L29.1428571,97.7428571 L29.1428571,90.8571429 L22.1714286,91.6857143 L27.3142857,77.2857143 L12.8285714,72.2857143 L23.7142857,61.5142857 L12.8571429,50.7428571 L27.3428571,45.8 L22.2285714,31.3714286 L37.4285714,33.1714286 L39.0571429,17.9714286 L51.9714286,26.2 L60.0571429,13.2 L68.1142857,26.2 L81.0285714,18 L82.6571429,33.2285714 L97.8571429,31.4285714 L92.7142857,45.8285714 L107.171429,50.8285714 L96.2857143,61.5714286 L107.142857,72.3428571 L92.6571429,77.2857143 L97.7714286,91.7142857 L90.8285714,90.8857143 L90.8285714,97.8 L107.914286,99.8 L101.428571,81.5142857 L119.828571,75.2285714 Z M25.7142857,102.685714 L94.2857143,102.685714 L94.2857143,116.4 L25.7142857,116.4 L25.7142857,102.685714 Z" id="Shape" opacity="0.65"></path>
        </g>
    </g>
</svg>