<?xml version="1.0" encoding="UTF-8"?>
<svg width="128px" height="128px" viewBox="0 0 128 128" version="1.1" xmlns="http://www.w3.org/2000/svg" xmlns:xlink="http://www.w3.org/1999/xlink">
    <title>Graphic elements / Icons / Flat icons / Marketplace / marketplace-speccams-bodycam</title>
    <g id="Graphic-elements-/-Icons-/-Flat-icons-/-Marketplace-/-marketplace-speccams-bodycam" stroke="none" stroke-width="1" fill-rule="evenodd">
        <g id="marketplace-speccams-bodycam" transform="translate(11.000000, 4.000000)" fill-rule="nonzero">
            <path d="M0,64.7428571 L0,44.5714286 L54.8571429,44.5714286 L54.8571429,64.7428571 C53.1142857,61.4 50.8,58.4 48,55.8857143 L48,51.4285714 L41.5428571,51.4285714 C37.3142857,49.2285714 32.5142857,48 27.4285714,48 C22.3428571,48 17.5428571,49.2285714 13.3142857,51.4285714 L6.85714286,51.4285714 L6.85714286,55.8857143 C4.05714286,58.3714286 1.74285714,61.3714286 0,64.7428571 Z M48,101.828571 L48,109.714286 L41.1428571,109.714286 L41.1428571,113.142857 L13.7428571,113.142857 L13.7428571,109.714286 L6.85714286,109.714286 L6.85714286,101.828571 C4.05714286,99.3142857 1.74285714,96.3428571 0,92.9714286 L0,116.571429 L6.88571429,116.571429 L6.88571429,120 L48,120 L48,116.571429 L54.8571429,116.571429 L54.8571429,92.9714286 C53.1142857,96.3428571 50.8,99.3428571 48,101.828571 Z M27.4285714,106.285714 C12.3142857,106.285714 0,93.9714286 0,78.8571429 C0,63.7428571 12.3142857,51.4285714 27.4285714,51.4285714 C42.5428571,51.4285714 54.8571429,63.7428571 54.8571429,78.8571429 C54.8571429,93.9714286 42.5428571,106.285714 27.4285714,106.285714 Z M27.4285714,58.2857143 C16.0857143,58.2857143 6.85714286,67.5142857 6.85714286,78.8571429 C6.85714286,90.2 16.0857143,99.4285714 27.4285714,99.4285714 C38.7714286,99.4285714 48,90.2 48,78.8571429 C48,67.5142857 38.7714286,58.2857143 27.4285714,58.2857143 Z" id="Shape"></path>
            <path d="M27.4285714,61.7142857 C17.9714286,61.7142857 10.2857143,69.4 10.2857143,78.8571429 C10.2857143,88.3142857 17.9714286,96 27.4285714,96 C36.8857143,96 44.5714286,88.3142857 44.5714286,78.8571429 C44.5714286,69.4 36.8857143,61.7142857 27.4285714,61.7142857 Z M27.4285714,72 C27.1428571,72 26.8857143,72.0285714 26.6,72.0571429 L25.8,65.2571429 C26.3428571,65.2 26.8857143,65.1714286 27.4285714,65.1714286 C31.3142857,65.1714286 35.0571429,66.8285714 37.6571429,69.7428571 L32.5428571,74.3142857 C31.2285714,72.8285714 29.3714286,72 27.4285714,72 Z M34.2571429,79.4 C34.2857143,79.2285714 34.2857143,79.0285714 34.2857143,78.8571429 C34.2857143,78.1714286 34.2,77.5142857 34,76.8571429 L40.5714286,74.8857143 C40.9714286,76.1714286 41.1428571,77.5142857 41.1428571,78.8571429 C41.1428571,79.2285714 41.1142857,79.5714286 41.1142857,79.9428571 L34.2571429,79.4 Z M88.8571429,18.8571429 L90.5714286,17.1428571 L73.4285714,0 L43.1428571,0 L26,17.1428571 L28.0285714,19.1714286 L10.2857143,24.9428571 L10.2857143,41.1428571 L17.1428571,41.1428571 L17.1428571,29.9142857 L33.4571429,24.6 L44.5714286,35.7142857 L58.2857143,22 L72,35.7142857 L83.4571429,24.2571429 L99.4285714,29.8857143 L99.4285714,92.5714286 L58.2857143,92.5714286 L58.2857143,99.4285714 L106.285714,99.4285714 L106.285714,25 L88.8571429,18.8571429 Z M44.5714286,26 L35.7142857,17.1428571 L44.5714286,8.28571429 L53.4285714,17.1428571 L44.5714286,26 Z M52.8571429,6.85714286 L63.7142857,6.85714286 L58.2857143,12.2857143 L52.8571429,6.85714286 Z M72,26 L63.1428571,17.1428571 L72,8.28571429 L80.8571429,17.1428571 L72,26 Z M78.8571429,40.9714286 L65.1428571,45.5428571 L65.1428571,61.7142857 C65.1428571,69.2857143 71.2857143,75.4285714 78.8571429,75.4285714 C86.4285714,75.4285714 92.5714286,69.2857143 92.5714286,61.7142857 L92.5714286,45.5428571 L78.8571429,40.9714286 Z M79.9142857,71.9428571 L79.5714286,68.5428571 C82.8571429,68.2 85.4285714,65.5714286 85.7142857,62.2857143 L89.1428571,62.5714286 C88.7142857,67.4857143 84.8285714,71.4571429 79.9142857,71.9428571 Z" id="Shape" opacity="0.65"></path>
        </g>
    </g>
</svg>