<?xml version="1.0" encoding="UTF-8"?>
<svg width="128px" height="128px" viewBox="0 0 128 128" version="1.1" xmlns="http://www.w3.org/2000/svg" xmlns:xlink="http://www.w3.org/1999/xlink">
    <title>Graphic elements / Icons / Flat icons / Marketplace / marketplace-speccams-drone</title>
    <g id="Graphic-elements-/-Icons-/-Flat-icons-/-Marketplace-/-marketplace-speccams-drone" stroke="none" stroke-width="1" fill-rule="evenodd">
        <g id="marketplace-speccams-drone" transform="translate(4.000000, 4.000000)" fill-rule="nonzero">
            <path d="M91.5789474,41.0526316 C94.9473684,41.0526316 98.1315789,39.7368421 100.5,37.3421053 C102.894737,34.9473684 104.210526,31.7894737 104.210526,28.4210526 L110.526316,28.4210526 C110.526316,33.4736842 108.552632,38.2368421 104.973684,41.8157895 C101.394737,45.3947368 96.6315789,47.3684211 91.5789474,47.3684211 L91.5789474,41.0526316 Z M100.5,82.6578947 C98.1315789,80.2631579 94.9473684,78.9473684 91.5789474,78.9473684 L91.5789474,72.6315789 C96.6315789,72.6315789 101.394737,74.6052632 104.973684,78.1842105 C108.526316,81.7368421 110.5,86.4736842 110.526316,91.5 L104.210526,91.5263158 C104.210526,88.1578947 102.894737,85.0263158 100.5,82.6578947 Z M91.5,9.47368421 L91.5263158,15.7894737 C88.1842105,15.8157895 85.0263158,17.1315789 82.6578947,19.5 C80.2631579,21.8684211 78.9473684,25.0526316 78.9473684,28.4210526 L72.6315789,28.4210526 C72.6315789,23.3684211 74.6052632,18.6052632 78.1842105,15.0263158 C81.7368421,11.4736842 86.4736842,9.5 91.5,9.47368421 Z M65.1052632,38.8157895 C63.8157895,35.5526316 63.1578947,32.0263158 63.1578947,28.4210526 C63.1578947,20.8421053 66.1052632,13.6842105 71.4736842,8.31578947 C82.5526316,-2.76315789 100.578947,-2.76315789 111.657895,8.31578947 C117.052632,13.6842105 120,20.8421053 120,28.4210526 C120,36 117.052632,43.1578947 111.684211,48.5263158 C106.157895,54.0789474 98.8684211,56.8421053 91.5789474,56.8421053 C88.0526316,56.8421053 84.5,56.1842105 81.1842105,54.8947368 L84.5,49.3684211 C92.2105263,51.9736842 101.078947,50.2105263 107.210526,44.0789474 C111.394737,39.8947368 113.684211,34.3421053 113.684211,28.4473684 C113.684211,22.5526316 111.394737,17 107.210526,12.8157895 C102.894737,8.47368421 97.2368421,6.31578947 91.5789474,6.31578947 C85.9210526,6.31578947 80.2631579,8.47368421 75.9473684,12.7894737 C71.7631579,16.9736842 69.4736842,22.5263158 69.4736842,28.4210526 C69.4736842,30.8684211 69.8684211,33.2631579 70.6315789,35.5263158 L65.1052632,38.8157895 Z M78.1842105,104.973684 C74.6052632,101.394737 72.6315789,96.6315789 72.6315789,91.5789474 L78.9473684,91.5789474 C78.9473684,94.9473684 80.2631579,98.1315789 82.6578947,100.5 C85.0526316,102.868421 88.2105263,104.210526 91.5789474,104.210526 L91.5789474,110.526316 C86.5263158,110.526316 81.7631579,108.552632 78.1842105,104.973684 Z M54.8684211,81.1842105 C58.8684211,91.3947368 56.7368421,103.447368 48.5263158,111.684211 C43.1578947,117.052632 36.0263158,120 28.4210526,120 C20.8157895,120 13.6842105,117.052632 8.31578947,111.684211 C-2.76315789,100.605263 -2.76315789,82.5789474 8.31578947,71.5 C13.6842105,66.1052632 20.8421053,63.1578947 28.4210526,63.1578947 C32.0526316,63.1578947 35.5526316,63.8421053 38.8157895,65.1052632 L35.5,70.6315789 C33.2368421,69.8684211 30.8684211,69.4736842 28.3947368,69.4736842 C22.5,69.4736842 16.9473684,71.7631579 12.7631579,75.9473684 C4.13157895,84.5789474 4.13157895,98.5789474 12.7631579,107.210526 C16.9473684,111.394737 22.5,113.684211 28.3947368,113.684211 C34.2894737,113.684211 39.8421053,111.394737 44.0263158,107.210526 C50.1578947,101.078947 51.9210526,92.2105263 49.3157895,84.5 L54.8684211,81.1842105 Z M8.31578947,48.5263158 C-2.76315789,37.4473684 -2.76315789,19.4210526 8.31578947,8.34210526 C19.3947368,-2.73684211 37.4210526,-2.73684211 48.5,8.34210526 C56.7368421,16.5789474 58.8421053,28.6315789 54.8421053,38.8421053 L49.3157895,35.5263158 C51.9210526,27.8157895 50.1578947,18.9473684 44.0263158,12.8157895 C39.7368421,8.47368421 34.0789474,6.31578947 28.4210526,6.31578947 C22.7631579,6.31578947 17.1052632,8.47368421 12.7894737,12.7894737 C4.15789474,21.4210526 4.15789474,35.4210526 12.7894737,44.0526316 C18.9210526,50.1842105 27.7894737,51.9473684 35.5,49.3421053 L38.8157895,54.8684211 C35.4736842,56.1842105 31.9473684,56.8157895 28.4210526,56.8157895 C21.1315789,56.8157895 13.8684211,54.0526316 8.31578947,48.5263158 Z M41.8157895,15.0263158 C45.3684211,18.5789474 47.3421053,23.3157895 47.3684211,28.3421053 L41.0526316,28.3684211 C41.0263158,25.0263158 39.7105263,21.8684211 37.3421053,19.5 C34.9736842,17.1052632 31.7894737,15.7894737 28.4210526,15.7894737 L28.4210526,9.47368421 C33.4736842,9.47368421 38.2368421,11.4473684 41.8157895,15.0263158 Z M111.684211,71.4736842 C117.052632,76.8421053 120,83.9736842 120,91.5789474 C120,99.1842105 117.052632,106.315789 111.684211,111.684211 C106.315789,117.052632 99.1842105,120 91.5789474,120 C83.9736842,120 76.8421053,117.052632 71.4736842,111.684211 C66.1052632,106.315789 63.1578947,99.1842105 63.1578947,91.5789474 C63.1578947,87.9473684 63.8421053,84.4473684 65.1052632,81.1842105 L70.6315789,84.5 C69.8684211,86.7631579 69.4736842,89.1315789 69.4736842,91.6052632 C69.4736842,97.5 71.7631579,103.052632 75.9473684,107.236842 C80.1315789,111.421053 85.6842105,113.710526 91.5789474,113.710526 C97.4736842,113.710526 103.026316,111.421053 107.210526,107.236842 C111.394737,103.052632 113.684211,97.5 113.684211,91.6052632 C113.684211,85.7105263 111.394737,80.1578947 107.210526,75.9736842 C103.026316,71.7894737 97.4736842,69.5 91.5789474,69.5 C89.1315789,69.5 86.7368421,69.8947368 84.4736842,70.6578947 L81.1578947,65.1315789 C84.4210526,63.8421053 87.9473684,63.1840358 91.5526316,63.1840358 C99.1842105,63.1578947 106.315789,66.1052632 111.684211,71.4736842 Z M19.5,37.3421053 C21.8947368,39.7368421 25.0526316,41.0526316 28.4210526,41.0526316 L28.4210526,47.3684211 C23.3684211,47.3684211 18.6052632,45.3947368 15.0263158,41.8157895 C11.4473684,38.2368421 9.47368421,33.4736842 9.47368421,28.4210526 L15.7894737,28.4210526 C15.7894737,31.7894737 17.1052632,34.9736842 19.5,37.3421053 Z M28.5,110.526316 L28.4736842,104.210526 C31.8157895,104.210526 34.9736842,102.894737 37.3421053,100.5 C39.7368421,98.1052632 41.0526316,94.9473684 41.0526316,91.5789474 L47.3684211,91.5789474 C47.3684211,96.6315789 45.3947368,101.394737 41.8157895,104.973684 C38.2631579,108.526316 33.5263158,110.5 28.5,110.526316 Z M28.4210526,78.9473684 C25.0526316,78.9473684 21.8684211,80.2631579 19.5,82.6578947 C17.1052632,85.0263158 15.7894737,88.2105263 15.7894737,91.5789474 L9.47368421,91.5789474 C9.47368421,86.5263158 11.4473684,81.7631579 15.0263158,78.1842105 C18.6052632,74.6052632 23.3684211,72.6315789 28.4210526,72.6315789 L28.4210526,78.9473684 Z" id="Shape" opacity="0.65"></path>
            <path d="M87.5789474,83 L85.0526316,80.4736842 L86.0789474,79.4473684 L75.7894737,62.2894737 L75.7894737,57.7105263 L86.0789474,40.5526316 L85,39.4736842 L87.5,36.9736842 C88.7894737,37.5789474 90.1842105,37.8947368 91.5789474,37.8947368 C94,37.8947368 96.4210526,36.9736842 98.2894737,35.1315789 C101.973684,31.4473684 101.973684,25.4210526 98.2894737,21.7368421 L98.2894737,21.7368421 C94.6052632,18.0526316 88.5789474,18.0526316 84.8947368,21.7368421 C81.9736842,24.6578947 81.3684211,29 83.0526316,32.5263158 L80.5263158,35 L79.4473684,33.9210526 L62.2894737,44.2105263 L57.7105263,44.2105263 L40.5526316,33.9210526 L39.4736842,35 L36.9736842,32.5 C37.5789474,31.2368421 37.8947368,29.8421053 37.8947368,28.4210526 C37.8947368,25.8947368 36.9210526,23.5 35.1315789,21.7105263 C33.3421053,19.9210526 30.9473684,18.9473684 28.4210526,18.9473684 C25.8947368,18.9473684 23.5,19.9210526 21.7105263,21.7105263 C19.9210526,23.5 18.9473684,25.8947368 18.9473684,28.4210526 C18.9473684,30.9473684 19.9210526,33.3421053 21.7105263,35.1315789 C23.5,36.9210526 25.8947368,37.8947368 28.4210526,37.8947368 C29.8684211,37.8947368 31.2368421,37.5789474 32.5,36.9736842 L35,39.4736842 L33.9210526,40.5526316 L44.2105263,57.7105263 L44.2105263,62.2894737 L33.9210526,79.4473684 L35,80.5263158 L32.5,83.0263158 C28.9736842,81.3421053 24.6315789,81.9736842 21.7105263,84.8684211 C18.0263158,88.5526316 18.0263158,94.5789474 21.7105263,98.2631579 L21.7105263,98.2631579 C23.5526316,100.105263 25.9736842,101.026316 28.4210526,101.026316 C30.8684211,101.026316 33.2631579,100.105263 35.1315789,98.2631579 C38.0526316,95.3421053 38.6578947,91 36.9736842,87.4736842 L39.4736842,84.9736842 L40.5526316,86.0526316 L57.7105263,75.7631579 L62.2894737,75.7631579 L79.4473684,86.0526316 L80.6052632,84.8947368 L83.1052632,87.3947368 C81.3684211,90.9210526 81.9736842,95.3157895 84.9210526,98.2631579 C86.7631579,100.105263 89.1842105,101.026316 91.6315789,101.026316 C94.0789474,101.026316 96.4736842,100.105263 98.3421053,98.2631579 L98.3421053,98.2631579 C102.026316,94.5789474 102.026316,88.5526316 98.3421053,84.8684211 C95.3947368,82 91.0789474,81.3684211 87.5789474,83 Z" id="Path"></path>
        </g>
    </g>
</svg>