<?xml version="1.0" encoding="UTF-8"?>
<svg width="128px" height="128px" viewBox="0 0 128 128" version="1.1" xmlns="http://www.w3.org/2000/svg" xmlns:xlink="http://www.w3.org/1999/xlink">
    <title>Graphic elements / Icons / Flat icons / Marketplace / marketplace-operator-software-decision-management</title>
    <g id="Graphic-elements-/-Icons-/-Flat-icons-/-Marketplace-/-marketplace-operator-software-decision-management" stroke="none" stroke-width="1" fill-rule="evenodd">
        <g id="marketplace-operator-software-decision-management" transform="translate(4.000000, 8.000000)" fill-rule="nonzero">
            <path d="M109.411765,77.6470588 L109.411765,49.4117647 L92.8823529,49.4117647 L70.2352941,31.7647059 L81.1764706,31.7647059 L81.1764706,0 L38.8235294,0 L38.8235294,31.7647059 L58.7352941,31.7647059 L81.3823529,49.4117647 L74.1176471,49.4117647 L74.1176471,77.6470588 L84.4705882,77.6470588 L75.9411765,88.2352941 L63.5294118,88.2352941 L63.5294118,112.941176 L91.7647059,112.941176 L91.7647059,88.2352941 L85,88.2352941 L93.5294118,77.6470588 L109.411765,77.6470588 Z M45.8823529,7.05882353 L74.1176471,7.05882353 L74.1176471,24.7058824 L45.8823529,24.7058824 L45.8823529,7.05882353 Z M84.7058824,105.882353 L70.5882353,105.882353 L70.5882353,95.2941176 L84.7058824,95.2941176 L84.7058824,105.882353 Z M81.1764706,56.4705882 L102.352941,56.4705882 L102.352941,70.5882353 L81.1764706,70.5882353 L81.1764706,56.4705882 Z" id="Shape"></path>
            <path d="M21.1764706,109.411765 L0,109.411765 L0,91.7647059 L21.1764706,91.7647059 L21.1764706,109.411765 Z M52.9411765,91.7647059 L31.7647059,91.7647059 L31.7647059,109.411765 L52.9411765,109.411765 L52.9411765,91.7647059 Z M120,91.7647059 L98.8235294,91.7647059 L98.8235294,109.411765 L120,109.411765 L120,91.7647059 Z M42.3529412,52.9411765 L14.1176471,52.9411765 L14.1176471,74.1176471 L42.3529412,74.1176471 L42.3529412,52.9411765 Z M96.3235294,81.1764706 L103.382353,88.2352941 L108.382353,88.2352941 L101.323529,81.1764706 L96.3235294,81.1764706 Z M16.6176471,88.2352941 L27.2058824,77.6470588 L22.2058824,77.6470588 L11.6176471,88.2352941 L16.6176471,88.2352941 Z M28.7941176,77.6470588 L37.2647059,88.2352941 L41.7941176,88.2352941 L33.3235294,77.6470588 L28.7941176,77.6470588 Z M35.9117647,49.3235294 L53.8823529,35.2941176 L48.1470588,35.2941176 L30.1764706,49.3235294 L35.9117647,49.3235294 Z" id="Shape" opacity="0.65"></path>
        </g>
    </g>
</svg>