<?xml version="1.0" encoding="UTF-8"?>
<svg width="128px" height="128px" viewBox="0 0 128 128" version="1.1" xmlns="http://www.w3.org/2000/svg" xmlns:xlink="http://www.w3.org/1999/xlink">
    <title>Graphic elements / Icons / Flat icons / Marketplace / marketplace-acs-tailgating</title>
    <g id="Graphic-elements-/-Icons-/-Flat-icons-/-Marketplace-/-marketplace-acs-tailgating" stroke="none" stroke-width="1" fill-rule="evenodd">
        <g id="marketplace-acs-tailgaiting" transform="translate(4.000000, 9.000000)" fill-rule="nonzero">
            <path d="M89.4429708,10.2811671 L89.4429708,19.734748 C91.8302387,21.8355438 93.3262599,24.8912467 93.3262599,28.2970822 C93.3262599,31.7029178 91.8302387,34.7586207 89.4429708,36.8594164 L89.4429708,38.4827586 C89.8885942,38.9920424 90.270557,39.5649867 90.5888594,40.1697613 L95.7135279,50.5145889 L97.0822281,51.8832891 L97.0822281,15.8196286 L112.360743,10.7267905 L112.360743,99.4376658 L97.0822281,94.3448276 L97.0822281,68.1167109 L97.0822281,68.1167109 L94.3766578,70.8222812 L91.6710875,68.1167109 L89.4429708,65.8885942 L89.4429708,71.2997347 L90.2068966,71.872679 C92.1167109,73.3050398 93.2625995,75.596817 93.2625995,77.9840849 L93.2625995,97.0822281 L93.2625995,100.901857 L92.6259947,100.901857 L120,110.005305 L120,0.0954907162 L89.4429708,10.2811671 Z" id="Path" opacity="0.65"></path>
            <path d="M66.0477454,72.8594164 L62.7374005,96.5411141 L70.3129973,97.5915119 L73.0503979,78.0795756 L66.0477454,72.8594164 Z M83.9681698,52.6472149 L80.6259947,69.4854111 L87.8832891,74.928382 C88.8381963,75.6604775 89.4111406,76.7745358 89.4111406,77.9840849 L89.4111406,97.0822281 L81.7718833,97.0822281 L81.7718833,79.8938992 L68.0212202,69.5809019 C66.8753316,68.7214854 66.3023873,67.2891247 66.5570292,65.8885942 L69.198939,50.2599469 L64.2970822,53.5384615 L62.6100796,63.3740053 L55.066313,62.1007958 L57.0079576,50.6419098 C57.198939,49.6233422 57.7718833,48.7002653 58.66313,48.0954907 L70.1220159,40.4562334 C70.7586207,40.0424403 71.4907162,39.8196286 72.2546419,39.8196286 L83.7135279,39.8196286 C85.1777188,39.8196286 86.4827586,40.6472149 87.1511936,41.9522546 L92.5623342,52.8381963 L99.7559682,60.0318302 L94.3448276,65.4429708 L86.7055703,57.8037135 C86.4190981,57.5172414 86.1644562,57.1671088 85.9734748,56.8169761 L83.9681698,52.6472149 Z M89.5066313,28.3289125 C89.5066313,32.530504 86.0689655,35.9681698 81.867374,35.9681698 C77.6657825,35.9681698 74.2281167,32.530504 74.2281167,28.3289125 C74.2281167,24.127321 77.6657825,20.6896552 81.867374,20.6896552 C86.0689655,20.6896552 89.5066313,24.0954907 89.5066313,28.3289125 Z" id="Shape"></path>
            <path d="M21.8037135,77.3156499 L20.4668435,84.3183024 C20.2122016,85.6233422 19.3209549,86.7055703 18.0795756,87.1830239 L2.73740053,93.0397878 L0,85.8779841 L13.3687003,80.7851459 L14.9920424,72.3183024 C15.1511936,72.4456233 15.3103448,72.6047745 15.5013263,72.7320955 L21.8037135,77.3156499 Z M36.1591512,56.7533156 C36.3501326,57.1352785 36.5729443,57.4535809 36.8912467,57.7400531 L44.530504,65.3793103 L49.9416446,59.9681698 L42.7480106,52.7745358 L37.33687,41.8885942 C36.7002653,40.5835544 35.3633952,39.7559682 33.8992042,39.7559682 L22.4403183,39.7559682 C21.6763926,39.7559682 20.9442971,39.9787798 20.3076923,40.3925729 L8.84880637,48.0318302 C7.95755968,48.6047745 7.38461538,49.5278515 7.19363395,50.5782493 L5.25198939,62.0371353 L12.795756,63.3103448 L14.4827586,53.4748011 L19.193634,50.3236074 L16.2334218,65.8249337 C15.9469496,67.2891247 16.5517241,68.7533156 17.729443,69.6445623 L31.9257294,79.9575597 L31.9257294,97.0822281 L39.5649867,97.0822281 L39.5649867,77.9840849 C39.5649867,76.7745358 38.9920424,75.596817 38.005305,74.8965517 L30.7480106,69.6127321 L34.1220159,52.6153846 L36.1591512,56.7533156 Z M31.9893899,20.6896552 C27.7877984,20.6896552 24.3501326,24.127321 24.3501326,28.3289125 C24.3501326,32.530504 27.7877984,35.9681698 31.9893899,35.9681698 C36.1909814,35.9681698 39.6286472,32.530504 39.6286472,28.3289125 C39.6286472,24.127321 36.2228117,20.6896552 31.9893899,20.6896552 Z" id="Shape"></path>
        </g>
    </g>
</svg>