<?xml version="1.0" encoding="UTF-8"?>
<svg width="128px" height="128px" viewBox="0 0 128 128" version="1.1" xmlns="http://www.w3.org/2000/svg" xmlns:xlink="http://www.w3.org/1999/xlink">
    <title>Graphic elements / Icons / Flat icons / Marketplace / marketplace-operator-software-smart-client-plugins</title>
    <g id="Graphic-elements-/-Icons-/-Flat-icons-/-Marketplace-/-marketplace-operator-software-smart-client-plugins" stroke="none" stroke-width="1" fill-rule="evenodd">
        <g id="marketplace-operator-software-smart-client-plugins" transform="translate(4.000000, 19.000000)" fill-rule="nonzero">
            <path d="M88.8611111,48.3611111 C87.4166667,48.2222222 86.1111111,48.6666667 85.1111111,49.5277778 L85.1111111,49.5277778 C84.5555556,50 83.8055556,50.2777778 83.0277778,50.2777778 C81.3055556,50.2777778 80,49 80,47.75 L80,34.1944444 C80,33.7222222 79.6111111,33.3333333 79.1388889,33.3333333 L65.5833333,33.3333333 C64.3333333,33.3333333 63.0555556,34.6111111 63.0555556,36.3611111 C63.0555556,37.1388889 63.3333333,37.8888889 63.8055556,38.4444444 L63.8055556,38.4444444 C64.6388889,39.4444444 65.1111111,40.75 64.9722222,42.1944444 C64.7222222,44.5 62.8888889,46.3888889 60.5555556,46.6388889 C57.5277778,46.9722222 55,44.6111111 55,41.6666667 C55,40.4444444 55.4444444,39.3055556 56.1944444,38.4444444 L56.1944444,38.4444444 C56.6666667,37.8888889 56.9444444,37.1388889 56.9444444,36.3611111 C56.9444444,34.6388889 55.6666667,33.3333333 54.4166667,33.3333333 L40.8611111,33.3333333 C40.3888889,33.3333333 40,33.7222222 40,34.1944444 L40,47.75 C40,49 38.7222222,50.2777778 36.9722222,50.2777778 C36.1944444,50.2777778 35.4444444,50 34.8888889,49.5277778 L34.8888889,49.5277778 C33.8888889,48.6944444 32.5833333,48.2222222 31.1388889,48.3611111 C28.8333333,48.6111111 26.9444444,50.4444444 26.6944444,52.7777778 C26.3611111,55.8055556 28.7222222,58.3333333 31.6666667,58.3333333 C32.8888889,58.3333333 34.0277778,57.8888889 34.8888889,57.1388889 L34.8888889,57.1388889 C35.4444444,56.6666667 36.1944444,56.3888889 36.9722222,56.3888889 C38.6944444,56.3888889 40,57.6666667 40,58.9166667 L40,72.4722222 C40,72.9444444 40.3888889,73.3333333 40.8611111,73.3333333 L54.4166667,73.3333333 C55.6666667,73.3333333 56.9444444,72.0555556 56.9444444,70.3055556 C56.9444444,69.5277778 56.6388889,68.7777778 56.1944444,68.2222222 L56.1944444,68.2222222 C55.3611111,67.2222222 54.8888889,65.9166667 55.0277778,64.4722222 C55.2777778,62.1666667 57.1388889,60.2777778 59.4444444,60.0277778 C62.4722222,59.6944444 65.0277778,62.0555556 65.0277778,65 C65.0277778,66.2222222 64.5833333,67.3611111 63.8333333,68.2222222 L63.8333333,68.2222222 C63.3611111,68.7777778 63.0833333,69.5277778 63.0833333,70.3055556 C63.0833333,72.0277778 64.3611111,73.3333333 65.6111111,73.3333333 L79.1666667,73.3333333 C79.6388889,73.3333333 80.0277778,72.9444444 80.0277778,72.4722222 L80.0277778,58.9166667 C80.0277778,57.6666667 81.3055556,56.3888889 83.0555556,56.3888889 C83.8333333,56.3888889 84.5833333,56.6666667 85.1388889,57.1388889 L85.1388889,57.1388889 C86,57.8888889 87.1388889,58.3333333 88.3611111,58.3333333 C91.3055556,58.3333333 93.6666667,55.7777778 93.3333333,52.7777778 C93.0555556,50.4444444 91.1666667,48.5833333 88.8611111,48.3611111 Z" id="Path"></path>
            <path d="M13.3333333,11.6666667 C13.3333333,12.5833333 12.5833333,13.3333333 11.6666667,13.3333333 C10.75,13.3333333 10,12.5833333 10,11.6666667 C10,10.75 10.75,10 11.6666667,10 C12.5833333,10 13.3333333,10.75 13.3333333,11.6666667 Z M18.3333333,10 C17.4166667,10 16.6666667,10.75 16.6666667,11.6666667 C16.6666667,12.5833333 17.4166667,13.3333333 18.3333333,13.3333333 C19.25,13.3333333 20,12.5833333 20,11.6666667 C20,10.75 19.25,10 18.3333333,10 Z M25,10 C24.0833333,10 23.3333333,10.75 23.3333333,11.6666667 C23.3333333,12.5833333 24.0833333,13.3333333 25,13.3333333 C25.9166667,13.3333333 26.6666667,12.5833333 26.6666667,11.6666667 C26.6666667,10.75 25.9166667,10 25,10 Z M0,0 L0,90 L120,90 L120,0 L0,0 Z M113.333333,6.66666667 L113.333333,16.5277778 L6.66666667,16.5277778 L6.66666667,6.66666667 L113.333333,6.66666667 Z M6.66666667,83.3333333 L6.66666667,23.1944444 L113.333333,23.1944444 L113.333333,83.3333333 L6.66666667,83.3333333 Z M106.666667,53.3333333 L110,53.3333333 L110,73.3333333 L106.666667,73.3333333 L106.666667,53.3333333 Z M96.6666667,26.6666667 L110,26.6666667 L110,30 L96.6666667,30 L96.6666667,26.6666667 Z M13.3333333,26.6666667 L16.6666667,26.6666667 L16.6666667,80 L13.3333333,80 L13.3333333,26.6666667 Z" id="Shape" opacity="0.65"></path>
        </g>
    </g>
</svg>