<?xml version="1.0" encoding="UTF-8"?>
<svg width="128px" height="128px" viewBox="0 0 128 128" version="1.1" xmlns="http://www.w3.org/2000/svg" xmlns:xlink="http://www.w3.org/1999/xlink">
    <title>Graphic elements / Icons / Flat icons / Marketplace / marketplace-analytics-environmental-detection</title>
    <g id="Graphic-elements-/-Icons-/-Flat-icons-/-Marketplace-/-marketplace-analytics-environmental-detection" stroke="none" stroke-width="1" fill-rule="evenodd">
        <g id="marketplace-analytics-environmental-detection" transform="translate(4.000000, 4.000000)" fill-rule="nonzero">
            <path d="M7.05882353,24.7058824 L0,24.7058824 L0,0 L24.5882353,0 L24.5882353,7.05882353 L7.05882353,7.05882353 L7.05882353,24.7058824 Z M24.7058824,112.941176 L7.05882353,112.941176 L7.05882353,95.2941176 L0,95.2941176 L0,120 L24.7058824,120 L24.7058824,112.941176 Z M120,95.2941176 L112.941176,95.2941176 L112.941176,112.941176 L95.2941176,112.941176 L95.2941176,120 L120,120 L120,95.2941176 Z M120,0 L95.2058824,0 L95.2058824,7.05882353 L112.941176,7.05882353 L112.941176,24.6470588 L120,24.6470588 L120,0 Z" id="Shape" opacity="0.65"></path>
            <path d="M88.2352941,95.2941176 C92.1176471,95.2941176 95.2941176,92.1176471 95.2941176,88.2352941 C95.2941176,86.0882353 94.3235294,84.0882353 92.6470588,82.7352941 L91.3235294,81.6764706 L90,80.6176471 L90,78.9117647 L90,58.2352941 C90,57.2647059 89.2058824,56.4705882 88.2352941,56.4705882 C87.2647059,56.4705882 86.4705882,57.2647059 86.4705882,58.2352941 L86.4705882,78.9117647 L86.4705882,80.6176471 L85.1470588,81.6764706 L83.8235294,82.7352941 C82.1470588,84.0882353 81.1764706,86.0882353 81.1764706,88.2352941 C81.1764706,92.1176471 84.3529412,95.2941176 88.2352941,95.2941176 Z" id="Path" opacity="0.65"></path>
            <path d="M88.2352941,105.882353 C78.5,105.882353 70.5882353,97.9705882 70.5882353,88.2352941 C70.5882353,83.4411765 72.5,78.9411765 75.8823529,75.6470588 L75.8823529,37.0588235 C75.8823529,30.2352941 81.4117647,24.7058824 88.2352941,24.7058824 C95.0588235,24.7058824 100.588235,30.2352941 100.588235,37.0588235 L100.588235,75.6470588 C103.970588,78.9411765 105.882353,83.4705882 105.882353,88.2352941 C105.882353,97.9705882 97.9705882,105.882353 88.2352941,105.882353 Z M88.2352941,31.7647059 C85.3235294,31.7647059 82.9411765,34.1470588 82.9411765,37.0588235 L82.9411765,78.9117647 L81.6176471,79.9705882 C79.0882353,82 77.6470588,85 77.6470588,88.2352941 C77.6470588,94.0882353 82.3823529,98.8235294 88.2352941,98.8235294 C94.0882353,98.8235294 98.8235294,94.0882353 98.8235294,88.2352941 C98.8235294,85 97.3823529,82 94.8529412,79.9705882 L93.5294118,78.9117647 L93.5294118,37.0588235 C93.5294118,34.1470588 91.1470588,31.7647059 88.2352941,31.7647059 Z" id="Shape"></path>
            <path d="M51.1764706,60 C40.4705882,60 31.7647059,51.2941176 31.7647059,40.5882353 C31.7647059,23.3235294 48.1470588,8.55882353 48.8235294,7.94117647 L51.1764706,5.85294118 L53.5294118,7.94117647 C54.2352941,8.55882353 70.6176471,23.3235294 70.5882748,40.5882353 C70.5588235,51.2941176 61.8529412,60 51.1764706,60 Z M51.1764706,15.5588235 C47.0294118,19.9705882 38.8235294,30.0294118 38.8235294,40.5882353 C38.8235294,47.4117647 44.3529412,52.9411765 51.1764706,52.9411765 C57.9705882,52.9411765 63.5294903,47.3823529 63.5294903,40.5882353 L63.5294903,40.5882353 C63.5588235,29.9705882 55.3235294,19.9411765 51.1764706,15.5588235 Z M51.1764706,42.3529412 C50.2058824,42.3529412 49.4117647,41.5588235 49.4117647,40.5882353 C49.4117647,40.2941176 49.4117647,40 49.4411765,39.7058824 L42.4117647,39.1176471 C42.3823529,39.6176471 42.3529412,40.0882353 42.3529412,40.5882353 C42.3529412,45.4411765 46.3235294,49.4117647 51.1764706,49.4117647 L51.1764706,42.3529412 Z" id="Shape"></path>
            <path d="M38.8235294,98.8235294 C38.8235294,102.588235 37.3529412,106.147059 34.6764706,108.823529 L29.6764706,103.823529 C31,102.5 31.7352941,100.705882 31.7352941,98.8235294 C31.7352941,94.9411765 28.5588235,91.7647059 24.6764706,91.7647059 C20.7941176,91.7647059 17.6176471,94.9411765 17.6176471,98.8235294 L10.5882353,98.8235294 C10.5882353,91.0294118 16.9117647,84.7058824 24.7058824,84.7058824 C32.5,84.7058824 38.8235294,91.0294118 38.8235294,98.8235294 Z M0,65.4705882 C0.558823529,65.3529412 1.14705882,65.2941176 1.76470588,65.2941176 C3.82352941,65.2941176 5.76470588,66 7.32352941,67.2647059 C6.02941176,69.8529412 5.29411765,72.7941176 5.29411765,75.8823529 C5.29411765,81.4117647 7.64705882,86.6764706 11.7647059,90.3529412 L16.4705882,85.0882353 C13.8529412,82.7352941 12.3529412,79.3823529 12.3529412,75.8823529 C12.3529412,69.0588235 17.8823529,63.5294118 24.7058824,63.5294118 C30.7941176,63.5294118 35.8529412,67.9411765 36.8823529,73.7647059 C35.6176471,74.2647059 34.4117647,74.9117647 33.2647059,75.6764706 L37.2058824,81.5294118 C39.2352941,80.1470588 41.6470588,79.4117647 44.1176471,79.4117647 C50.9411765,79.4117647 56.4705882,84.9411765 56.4705882,91.7647059 C56.4705882,97.7058824 52.3235294,102.676471 46.6470588,103.852941 C45.7941176,103.205882 44.8529412,102.617647 43.8823529,102.147059 L40.8235294,108.529412 C43.8823529,109.970588 45.8529412,113.088235 45.8529412,116.470588 C45.8529412,117.705882 45.5882353,118.911765 45.1176471,120 L52.5294118,120 C52.7941176,118.852941 52.9411765,117.676471 52.9411765,116.470588 C52.9411765,114.117647 52.4117647,111.823529 51.4411765,109.764706 C58.6176471,106.882353 63.5588235,99.8823529 63.5588235,91.7647059 C63.5588235,81.0588235 54.8529412,72.3529412 44.1470588,72.3529412 C44.0294118,72.3529412 43.9411765,72.3529412 43.8235294,72.3529412 C42.1764706,63.3235294 34.2352941,56.4705882 24.7352941,56.4705882 C19.6470588,56.4705882 15.0294118,58.4411765 11.5588235,61.6176471 C8.76470588,59.4705882 5.32352941,58.2352941 1.76470588,58.2352941 C1.17647059,58.2352941 0.588235294,58.2647059 0,58.3235294 L0,65.4705882 Z" id="Shape"></path>
        </g>
    </g>
</svg>