<?xml version="1.0" encoding="UTF-8"?>
<svg width="128px" height="128px" viewBox="0 0 128 128" version="1.1" xmlns="http://www.w3.org/2000/svg" xmlns:xlink="http://www.w3.org/1999/xlink">
    <title>Graphic elements / Icons / Flat icons / Marketplace / marketplace-building-sys-industrial-control </title>
    <g id="Graphic-elements-/-Icons-/-Flat-icons-/-Marketplace-/-marketplace-building-sys-industrial-control-" stroke="none" stroke-width="1" fill-rule="evenodd">
        <g id="marketplace-building-sys-industrial-control" transform="translate(4.000000, 9.000000)" fill-rule="nonzero">
            <path d="M5.05434783,23.9347826 L0.163043478,17.8369565 L22.4673913,0 L38.0217391,15.5543478 C35.3804348,16.3043478 33.0326087,17.8369565 31.3043478,19.8913043 L24.3913043,12.9782609 C22.9891304,11.576087 20.7391304,11.4456522 19.173913,12.6847826 L5.05434783,23.9347826 Z M31.2717391,37.5326087 L24.3586957,44.4456522 C22.9565217,45.8478261 20.7065217,45.9782609 19.1413043,44.7391304 L5.05434783,33.4565217 L0.163043478,39.5869565 L22.4673913,57.3913043 L37.9891304,41.8695652 C35.3478261,41.1195652 33.0326087,39.5869565 31.2717391,37.5326087 Z M86.4130435,20.8695652 L52.9891304,20.8695652 C54.5543478,23.0869565 55.4347826,25.7934783 55.4347826,28.6956522 C55.4347826,31.5978261 54.5217391,34.3043478 52.9565217,36.5217391 L86.4130435,36.5217391 C85.3695652,34.1086957 84.7826087,31.4673913 84.7826087,28.6956522 C84.7826087,25.923913 85.3695652,23.2826087 86.4130435,20.8695652 Z M82.923913,87.3913043 L104.641304,48.2608696 C104.543478,48.2608696 104.445652,48.2608696 104.347826,48.2608696 C97.2065217,48.2608696 90.9782609,44.4456522 87.5543478,38.7391304 L60.5543478,87.3913043 L82.923913,87.3913043 Z M58.4021739,91.3043478 L26.0869565,91.3043478 L26.0869565,110.869565 L104.347826,110.869565 L104.347826,91.3043478 L80.7717391,91.3043478 L58.4021739,91.3043478 Z M120,28.6956522 C120,20.0543478 112.98913,13.0434783 104.347826,13.0434783 C95.7065217,13.0434783 88.6956522,20.0543478 88.6956522,28.6956522 C88.6956522,37.3369565 95.7065217,44.3478261 104.347826,44.3478261 C112.98913,44.3478261 120,37.3369565 120,28.6956522 Z M112.173913,28.6956522 C112.173913,33 108.652174,36.5217391 104.347826,36.5217391 C100.043478,36.5217391 96.5217391,33 96.5217391,28.6956522 C96.5217391,24.3913043 100.043478,20.8695652 104.347826,20.8695652 C108.652174,20.8695652 112.173913,24.3913043 112.173913,28.6956522 Z M108.26087,28.6956522 C108.26087,30.8478261 106.5,32.6086957 104.347826,32.6086957 C102.195652,32.6086957 100.434783,30.8478261 100.434783,28.6956522 C100.434783,26.5434783 102.195652,24.7826087 104.347826,24.7826087 C106.5,24.7826087 108.26087,26.5434783 108.26087,28.6956522 Z M41.7391304,18.9130435 C36.326087,18.9130435 31.9565217,23.2826087 31.9565217,28.6956522 C31.9565217,34.1086957 36.326087,38.4782609 41.7391304,38.4782609 C47.1521739,38.4782609 51.5217391,34.1086957 51.5217391,28.6956522 C51.5217391,23.2826087 47.1521739,18.9130435 41.7391304,18.9130435 Z" id="Shape"></path>
        </g>
    </g>
</svg>