<?xml version="1.0" encoding="UTF-8"?>
<svg width="128px" height="128px" viewBox="0 0 128 128" version="1.1" xmlns="http://www.w3.org/2000/svg" xmlns:xlink="http://www.w3.org/1999/xlink">
    <title>Graphic elements / Icons / Flat icons / Marketplace / marketplace-analytics-privacy-obj-masking</title>
    <g id="Graphic-elements-/-Icons-/-Flat-icons-/-Marketplace-/-marketplace-analytics-privacy-obj-masking" stroke="none" stroke-width="1" fill-rule="evenodd">
        <g id="marketplace-analytics-privacy-obj-masking" transform="translate(16.000000, 4.000000)" fill-rule="nonzero">
            <path d="M43.3333333,106.666667 L6.66666667,106.666667 L6.66666667,105.611111 L20.8611111,100.111111 L20.8888889,100.111111 C23.1944444,99.1944444 24.9444444,97.2222222 25.5833333,94.8333333 L28.1944444,85.1388889 C28.6944444,83.3333333 28.3611111,81.3888889 27.2777778,79.8333333 C24.1388889,75.2777778 22.1944444,69.6666667 21.6666667,63.5555556 L21.3888889,60.3888889 L18.9166667,60.4722222 C16.9722222,59.4166667 14.3611111,57.0277778 14.3611111,51.8888889 C14.3611111,48.8888889 15.1388889,46.8055556 16.5555556,46.0277778 L18.5833333,44.8888889 L18.2222222,42.5833333 C18.0277778,41.3055556 17.9166667,40 17.9166667,38.6944444 C17.9166667,30.6666667 20.3055556,24.1388889 24.8611111,19.75 C29.2777778,15.5555556 35.6666667,13.3333333 43.3333333,13.3333333 L43.3333333,6.66666667 C33.8888889,6.66666667 25.9166667,9.52777778 20.25,14.9722222 C14.3888889,20.6111111 11.2777778,28.8333333 11.2777778,38.7222222 C11.2777778,39.6944444 11.3333333,40.6388889 11.4166667,41.6111111 C9.58333333,43.3333333 7.69444444,46.4444444 7.69444444,51.9166667 C7.69444444,58.0833333 10.5,63.25 15.25,66.0833333 C16.0833333,72.5555556 18.3333333,78.5555556 21.75,83.5555556 L19.1666667,93.1111111 C19.0555556,93.4722222 18.8055556,93.8055556 18.4444444,93.9444444 L-1.52766688e-13,101.055556 L-1.52766688e-13,113.333333 L43.3333333,113.333333 L43.3333333,106.666667 Z" id="Path" opacity="0.65"></path>
            <path d="M56.6666667,10 L46.6666667,10 L46.6666667,0 L56.6666667,0 L56.6666667,10 Z M66.6666667,10 L56.6666667,10 L56.6666667,20 L66.6666667,20 L66.6666667,10 Z M56.6666667,20 L46.6666667,20 L46.6666667,30 L56.6666667,30 L56.6666667,20 Z M76.6666667,20 L66.6666667,20 L66.6666667,30 L76.6666667,30 L76.6666667,20 Z M66.6666667,30 L56.6666667,30 L56.6666667,40 L66.6666667,40 L66.6666667,30 Z M86.6666667,30 L76.6666667,30 L76.6666667,40 L86.6666667,40 L86.6666667,30 Z M56.6666667,40 L46.6666667,40 L46.6666667,50 L56.6666667,50 L56.6666667,40 Z M76.6666667,40 L66.6666667,40 L66.6666667,50 L76.6666667,50 L76.6666667,40 Z M66.6666667,50 L56.6666667,50 L56.6666667,60 L66.6666667,60 L66.6666667,50 Z M86.6666667,50 L76.6666667,50 L76.6666667,60 L86.6666667,60 L86.6666667,50 Z M56.6666667,60 L46.6666667,60 L46.6666667,70 L56.6666667,70 L56.6666667,60 Z M76.6666667,60 L66.6666667,60 L66.6666667,70 L76.6666667,70 L76.6666667,60 Z M66.6666667,70 L56.6666667,70 L56.6666667,80 L66.6666667,80 L66.6666667,70 Z M56.6666667,80 L46.6666667,80 L46.6666667,90 L56.6666667,90 L56.6666667,80 Z M76.6666667,80 L66.6666667,80 L66.6666667,90 L76.6666667,90 L76.6666667,80 Z M66.6666667,90 L56.6666667,90 L56.6666667,100 L66.6666667,100 L66.6666667,90 Z M86.6666667,90 L76.6666667,90 L76.6666667,100 L86.6666667,100 L86.6666667,90 Z M66.6666667,110 L56.6666667,110 L56.6666667,120 L66.6666667,120 L66.6666667,110 Z M86.6666667,110 L76.6666667,110 L76.6666667,120 L86.6666667,120 L86.6666667,110 Z M56.6666667,100 L46.6666667,100 L46.6666667,110 L56.6666667,110 L56.6666667,100 Z M76.6666667,100 L66.6666667,100 L66.6666667,110 L76.6666667,110 L76.6666667,100 Z M96.6666667,100 L86.6666667,100 L86.6666667,110 L96.6666667,110 L96.6666667,100 Z" id="Shape"></path>
        </g>
    </g>
</svg>