<?xml version="1.0" encoding="UTF-8"?>
<svg width="128px" height="128px" viewBox="0 0 128 128" version="1.1" xmlns="http://www.w3.org/2000/svg" xmlns:xlink="http://www.w3.org/1999/xlink">
    <title>Graphic elements / Icons / Flat icons / Marketplace / marketplace-smart-city-intelligent-utilities</title>
    <g id="Graphic-elements-/-Icons-/-Flat-icons-/-Marketplace-/-marketplace-smart-city-intelligent-utilities" stroke="none" stroke-width="1" fill-rule="evenodd">
        <g id="marketplace-smart-city-intelligent-utilities" transform="translate(4.000000, 9.000000)" fill-rule="nonzero">
            <path d="M38.0952381,60.952381 C38.0952381,65.1428571 34.6666667,68.5714286 30.4761905,68.5714286 C26.2857143,68.5714286 22.8571429,65.1428571 22.8571429,60.952381 C22.8571429,56.7619048 26.2857143,53.3333333 30.4761905,53.3333333 C34.6666667,53.3333333 38.0952381,56.7619048 38.0952381,60.952381 Z M14.4761905,35.015873 L18.0952381,41.7460317 C21.6507937,39.4285714 25.9047619,38.0952381 30.4761905,38.0952381 C35.047619,38.0952381 39.3015873,39.4285714 42.8571429,41.7460317 L46.4761905,35.015873 C41.8095238,32.1269841 36.3492063,30.4761905 30.4761905,30.4761905 C24.6031746,30.4761905 19.1111111,32.1587302 14.4761905,35.015873 Z M19.9047619,45.1111111 L23.5555556,51.8730159 C25.4920635,50.4126984 27.8730159,49.5238095 30.5079365,49.5238095 C33.1428571,49.5238095 35.5238095,50.4126984 37.4603175,51.8730159 L41.1111111,45.1111111 C38.0952381,43.0793651 34.4444444,41.9047619 30.5396825,41.9047619 C26.5714286,41.9047619 22.9206349,43.0793651 19.9047619,45.1111111 Z M9.04761905,24.952381 L12.6666667,31.6507937 C17.8730159,28.4761905 23.968254,26.6349206 30.4761905,26.6349206 C36.984127,26.6349206 43.1111111,28.4761905 48.2857143,31.6507937 L51.9047619,24.952381 C45.6190476,21.2063492 38.2857143,19.047619 30.4761905,19.047619 C22.6666667,19.047619 15.3333333,21.2063492 9.04761905,24.952381 Z M99.047619,76.1904762 L99.047619,57.1428571 L91.4285714,57.1428571 L91.4285714,76.1904762 L34.2857143,76.1904762 L34.2857143,72.3809524 L26.6666667,72.3809524 L26.6666667,76.1904762 C26.6666667,80.3809524 30.0952381,83.8095238 34.2857143,83.8095238 L91.4285714,83.8095238 C95.6190476,83.8095238 99.047619,80.3809524 99.047619,76.1904762 Z M95.2380952,3.80952381 L70.4761905,26.6666667 L74.2857143,26.6666667 L74.2857143,53.3333333 L89.5555556,53.3333333 L89.5555556,38.1269841 L100.920635,38.1269841 L100.920635,53.3333333 L116.190476,53.3333333 L116.190476,26.6666667 L120,26.6666667 L95.2380952,3.80952381 Z" id="Shape"></path>
            <path d="M7.61904762,87.6190476 L7.61904762,15.2063492 L53.3333333,15.2063492 L53.3333333,72.3809524 L60.952381,72.3809524 L60.952381,7.84126984 C60.952381,3.52380952 57.4285714,0 53.1111111,0 L7.84126984,0 C3.52380952,0 0,3.52380952 0,7.84126984 L0,102.634921 C0,106.952381 3.52380952,110.47619 7.84126984,110.47619 L53.1111111,110.47619 C57.4285714,110.47619 60.952381,106.952381 60.952381,102.634921 L60.952381,87.6190476 L7.61904762,87.6190476 Z M24.7301587,7.61904762 L36.1904762,7.61904762 L36.1904762,11.3968254 L24.7301587,11.3968254 L24.7301587,7.61904762 Z M30.4761905,104.761905 C27.3333333,104.761905 24.7619048,102.190476 24.7619048,99.047619 C24.7619048,95.9047619 27.3333333,93.3333333 30.4761905,93.3333333 C33.6190476,93.3333333 36.1904762,95.9047619 36.1904762,99.047619 C36.1904762,102.190476 33.6190476,104.761905 30.4761905,104.761905 Z" id="Shape" opacity="0.65"></path>
        </g>
    </g>
</svg>