<svg viewBox="0 0 128 128">
    <g stroke="none" stroke-width="1" fill="none" fill-rule="evenodd">
        <g transform="translate(4.000000, 16.000000)" fill="unset" fill-rule="nonzero">
            <path d="M14.8760331,82.3735537 C14.8760331,89.2200589 20.4262221,94.7702479 27.2727273,94.7702479 C34.1192324,94.7702479 39.6694215,89.2200589 39.6694215,82.3735537 C39.6694215,75.5270486 34.1192324,69.9768595 27.2727273,69.9768595 C20.4262221,69.9768595 14.8760331,75.5270486 14.8760331,82.3735537 Z"></path>
            <path d="M86.7768595,69.9768595 C79.9303543,69.9768595 74.3801653,75.5270486 74.3801653,82.3735537 C74.3801653,89.2200589 79.9303543,94.7702479 86.7768595,94.7702479 C93.6233647,94.7702479 99.1735537,89.2200589 99.1735537,82.3735537 C99.1735537,75.5270486 93.6233647,69.9768595 86.7768595,69.9768595"></path>
            <path d="M78.6644628,9.28264463 L64.3834711,9.28264463 C64.3834711,4.90909091 62.231405,0 57.4413223,0 L0.0198347107,0.0595041322 L0.0198347107,74.4595041 L8.32066116,74.4595041 C11.5227178,66.7720821 19.0478832,61.7773437 27.3754528,61.8121143 C35.7030224,61.846885 43.1862164,66.9042888 46.3239669,74.6181818 L46.4429752,74.6975207 L67.7652893,74.6975207 C70.8866733,66.9666181 78.3698837,61.8879779 86.7070179,61.8423128 C95.0441522,61.7966478 102.582546,66.79301 105.78843,74.4892562 L114.119008,74.4892562 C117.649587,74.4892562 119.077686,73.0809917 119.077686,69.8479339 L119.077686,48.7636364 C119.077686,48.7636364 105.560331,35.5834711 78.6644628,9.28264463 Z M64.4628099,41.8016529 L64.4628099,18.4165289 L76.7702479,18.4165289 L99.2727273,41.8016529 L64.4628099,41.8016529 Z"></path>
        </g>
    </g>
</svg>