<svg viewBox="0 0 128 128">
    <g stroke="none" stroke-width="1" fill="none" fill-rule="evenodd">
        <path d="M31.9375,33.115 C40.4375,35.365 51.425,36.7625 63.405,36.77 C75.3275,36.77 86.68,35.52 94.7125,33.1425 L94.7325,33.1425 L100.2925,20.915 L81.3875,10.015 L47.16,10 L27.32,20.89 L31.9375,33.09 L31.9375,33.115 Z M64.1475,16.8249983 C67.5225,16.8249983 70.26,19.6525 70.2575017,23.135 C70.255,26.6175 67.5075,29.4375 64.1375,29.4375 C60.7675,29.4375 58.025,26.61 58.0274983,23.1275 C58.03,19.645 60.77,16.8225 64.1475,16.8249983 Z" fill="unset" fill-rule="nonzero"></path>
        <path d="M47.4175,80.9175 C47.9475,81.2975 48.4875,81.6675 49.0425,82.0025 C53.4685269,84.738761 58.5689592,86.1887312 63.7725,86.19 C79.1575,86.19 91.8925,73.71 91.9,58.295 L91.9,43.32 C93.3175,42.7 93.79,42.055 94.7375,41.3675 L94.7375,36.7725 C86.2375,39.0225 75.2775,40.305 63.8525,40.2975 C52.3725,40.2975 42.2925,38.9725 32.8525,36.7 C32.8525,38.285 32.8525,39.89 32.8525,41.3275 C34.27,42.015 35.2125,42.66 35.685,43.2775 L35.685,58.2575 C35.6725,67.5875 40.3325,75.845 47.4175,80.9175 Z M39.4675,45.365 C46.9238385,49.4538621 55.2911323,51.5957724 63.795,51.5925 C72.485,51.5925 81.045,49.5325 88.13,45.4175 L88.13,58.2925 C88.13,71.7525 77.215,82.6975 63.7825,82.6875068 C50.35,82.6775 39.45,71.7225 39.4574961,58.25 L39.4675,45.365 Z" fill="unset" fill-rule="nonzero"></path>
        <path d="M124,103.035 L82.125,84.8525 L82.005,84.8025 L72.725,116 L67.725,102.73 C69.7875,99.105 71.8925,95.2175 73.88,90.405 C67.5546676,92.6823038 60.6324181,92.6778823 54.31,90.3925 C56.52,95.3025 58.855,99.155 61.145,102.7675 L56.75,115.91 L47.475,85.0975 L47.3775,84.78 L4.4675,102.97 L4,117.43 L47.0575,117.455 L47.0575,117.475 L81.17,117.4975 L81.3925,117.475 L123.875,117.5 L124,103.035 Z" fill="unset" fill-rule="nonzero"></path>
    </g>
</svg>