<?xml version="1.0" encoding="UTF-8"?>
<svg width="128px" height="128px" viewBox="0 0 128 128" version="1.1" xmlns="http://www.w3.org/2000/svg" xmlns:xlink="http://www.w3.org/1999/xlink">
    <title>Graphic elements / Icons / Flat icons / Generic / Partnership</title>
    <g id="Graphic-elements-/-Icons-/-Flat-icons-/-Generic-/-Partnership" stroke="none" stroke-width="1" fill="none" fill-rule="evenodd">
        <g id="Group" transform="translate(4.000000, 25.015919)" fill="#000000" fill-rule="nonzero">
            <path d="M97.4155102,42.775101 C90.0318367,34.3555091 81.2204082,27.5914275 72.355102,20.8689785 C69.7836735,22.9506112 67.5306122,24.9391826 65.1257143,26.6804071 C62.6363019,28.5232381 60.0354308,30.2105328 57.3379592,31.732652 C54.5587797,33.338051 51.2673099,33.8091382 48.1493878,33.047754 C45.0409412,32.2956136 42.3471864,30.3633473 40.6383673,27.6599989 C38.7514809,24.9465488 39.1832051,21.2522087 41.644898,19.0469377 C43.435102,17.3620398 45.2693878,15.7187745 47.0571429,14.0363255 C50.8481633,10.5024479 54.5387755,6.88530507 58.44,3.36612139 L59.6155102,2.30326425 C59.8261224,2.12448874 60.3428571,1.77918262 60.1322449,1.48775405 C59.9240816,1.19877446 59.3069388,1.26734588 59.0008163,1.21346833 C58.4277551,1.11550915 57.8546939,1.00530507 57.3355102,0.951427516 C56.0301295,0.8065585 54.7127277,0.8065585 53.4073469,0.951427516 C50.8897959,1.24040711 48.3722449,1.51469282 45.8693878,1.87469282 C43.5110204,2.18816221 41.1746939,2.65101935 38.877551,3.25591731 C31.437551,5.35469282 24.5559184,5.50652956 17.7453061,1.50244792 C14.9485714,-0.126123504 13.2440816,0.701631598 11.8995918,3.64285609 C8.17551898,11.7586077 4.48406063,19.8892856 0.825306122,28.0346928 C0.506938776,28.7889785 0.230204082,29.5628561 -5.44275736e-12,30.3514275 C0.279183673,30.6036724 0.580408163,30.8338765 0.893877551,31.0420398 L1.80489796,31.7718357 L3.60734694,33.1530602 L7.11918367,35.9130602 C9.27183673,37.6395908 11.4391837,39.3367336 13.564898,41.090203 C13.7265306,41.2493867 13.9322449,41.3595908 14.1526531,41.4085704 C14.4318367,41.4085704 14.6277551,41.1734683 14.7942857,40.9922438 L15.6073469,40.2208153 C17.284898,38.5922438 18.9918367,36.9906112 20.6693878,35.3767336 L21.1714286,34.8795908 C21.3110204,34.7399989 21.4653061,34.6028561 21.604898,34.4510194 C25.437551,30.7114275 30.6955102,31.3995908 33.3942857,36.052652 C34.0236735,37.130203 34.4865306,38.2885704 35.044898,39.4616316 C40.8073469,38.9497949 44.1061224,41.7244887 45.4922449,46.8036724 C52.2465306,46.5146928 54.4971429,47.9497949 57.0563265,54.1506112 L59.8530612,54.1506112 C61.3861224,54.175101 62.8653061,54.6967336 64.0702041,55.6322438 C65.2726531,56.570203 66.1297959,57.8730602 66.5093878,59.33755 C67.5159184,62.2518357 67.9910204,65.0387745 64.9861224,67.370203 C62.2873469,69.4567336 59.8261224,71.81755 56.762449,74.4967336 C62.0057143,76.9653051 64.9861224,75.8755091 67.5869388,71.7342847 C68.0767347,70.9604071 68.9828571,69.7873459 69.6563265,69.8559173 C74.8432653,70.4510194 77.5983673,68.0485704 78.4946939,63.2853051 C87.597551,63.2853051 88.2,62.9130602 90.7591837,56.3840806 C94.1853061,56.6730602 97.8759184,57.1848969 99.7077551,53.2934683 C101.539592,49.3995908 100.155918,45.8240806 97.4155102,42.775101 L97.4155102,42.775101 Z" id="Path"></path>
            <path d="M43.2122449,23.0069377 C43.6530612,22.2673459 44.1673469,21.5742847 44.7502041,20.93755 C51.2644898,14.6020398 57.8963265,8.36203976 64.3273469,1.95795813 C66.8742857,-0.566939831 69.7126531,-0.197143912 72.6342857,0.576733639 C77.8236735,1.83306017 82.9126531,3.4493867 88.1289796,4.52448874 C90.6263233,4.97282291 93.1889387,4.90615324 95.6595918,4.32857037 C98.1244591,3.7530871 100.444988,2.67784213 102.477551,1.1693867 C104.755102,-0.348980647 106.072653,-0.072245953 107.316735,2.38652956 C111.105306,9.82652956 115.021224,17.1979581 118.868571,24.5816316 C120.629388,27.9489785 120.362449,28.3212234 117.286531,30.7653051 C113.510204,33.7457132 110.000816,37.0591826 106.378776,40.2208153 C103.484082,42.775101 102.798367,42.5816316 99.9746939,40.015101 C92.7306122,33.5399989 85.3738776,27.1897949 78.0318367,20.8273459 C77.2428872,20.2117307 76.4012707,19.6667696 75.5167347,19.1987745 C71.3216327,16.6444887 71.3216327,16.7693867 67.5159184,19.9432643 C63.0416327,23.6289785 59.0571429,28.0885704 53.1257143,29.6069377 C48.12,30.9857132 43.2391837,27.9906112 43.2122449,23.0069377 L43.2122449,23.0069377 Z" id="Path"></path>
            <path d="M14.3608163,52.6297949 C13.4547967,51.7324833 12.9443858,50.5106708 12.9428571,49.2355091 C12.9428571,47.9620398 13.4522449,46.7424479 14.3632653,45.8387745 L22.7534694,37.4314275 C24.6507359,35.5383996 27.7128007,35.5079421 29.6473469,37.3628561 C30.5436735,38.2763255 31.0432653,39.4983663 31.0310204,40.7693867 C31.0194449,42.0439985 30.5013644,43.261664 29.5910204,44.1538765 L21.2008163,52.5465296 C20.2920357,53.4410734 19.0718451,53.9484621 17.7967347,53.9620398 C16.5222701,53.978826 15.2908354,53.5013489 14.3608163,52.6297949 Z" id="Path"></path>
            <path d="M33.3942857,44.2714275 L24.8008163,52.9285704 C23.9317403,53.798988 23.4493352,54.9824148 23.4622334,56.2123553 C23.4751317,57.4422957 23.982249,58.6153455 24.8693878,59.4673459 L25.1387755,59.7293867 C26.9961933,61.5167791 29.9432449,61.4862735 31.7632653,59.6608153 L40.3567347,51.0036724 C42.1689796,49.1791826 42.1371429,46.252652 40.2881633,44.4648969 L40.0187755,44.2028561 C38.1613578,42.4154637 35.2143061,42.4459693 33.3942857,44.2714275 L33.3942857,44.2714275 Z" id="Path"></path>
            <path d="M43.9640816,52.1865296 L35.3730612,60.8461214 C34.5039852,61.716539 34.0215801,62.8999658 34.0344783,64.1299063 C34.0473766,65.3598468 34.5544938,66.5328965 35.4416327,67.3848969 L35.7110204,67.6444887 C37.5687444,69.4334895 40.517652,69.4029761 42.3379592,67.5759173 L50.9289796,58.9163255 C51.7977377,58.0455814 52.2797048,56.8619684 52.2663459,55.6320263 C52.2529869,54.4020843 51.7454251,53.229219 50.8579592,52.37755 L50.5885714,52.1179581 C48.7311537,50.3305658 45.784102,50.3610713 43.9640816,52.1865296 L43.9640816,52.1865296 Z" id="Path"></path>
            <path d="M54.9306122,59.1367336 L46.3346939,67.7963255 C44.524898,69.6208153 44.5567347,72.5473459 46.4032653,74.335101 L46.6726531,74.5971418 C48.5297127,76.3868126 51.4786125,76.357389 53.2995918,74.5310194 L61.8906122,65.8714275 C62.7596882,65.0010099 63.2420934,63.8175831 63.2291952,62.5876426 C63.2162969,61.3577021 62.7091796,60.1846524 61.8220408,59.332652 L61.5526531,59.0730602 C59.6958993,57.2849976 56.7488555,57.3144136 54.9281633,59.1391826 L54.9306122,59.1367336 Z" id="Path"></path>
        </g>
    </g>
</svg>