<svg viewBox="0 0 128 128">
    <g stroke="none" stroke-width="1" fill="none" fill-rule="evenodd">
        <g transform="translate(28.000000, 4.000000)" fill="unset">
            <path d="M36,72 C26.7216162,72 19.2,64.4783838 19.2,55.2 L19.2,16.8 C19.2,7.5216162 26.7216162,-2.66453526e-15 36,-2.66453526e-15 C45.2783838,-2.66453526e-15 52.8,7.5216162 52.8,16.8 L52.8,55.2 C52.8,64.4783838 45.2783838,72 36,72 L36,72 Z"></path>
            <path d="M62.4,38.4 L62.4,55.2 C62.4,69.7536 50.5536,81.6 36,81.6 C21.4464,81.6 9.6,69.7536 9.6,55.2 L9.6,38.4 L0,38.4 L0,55.2 C0,73.4208 13.6176,88.4832 31.2,90.84 L31.2,110.4 L14.4,110.4 L14.4,120 L57.6,120 L57.6,110.4 L40.8,110.4 L40.8,90.84 C58.3824,88.4832 72,73.4208 72,55.2 L72,38.4 L62.4,38.4 Z"></path>
        </g>
    </g>
</svg>