<svg width="128" height="128" xmlns="http://www.w3.org/2000/svg">
    <g fill="#000" fill-rule="evenodd">
        <path d="M46.523 104.73c-14.585 0-27.034-9.941-30.274-24.175L4.062 27.018a2.465 2.465 0 01.477-2.089A2.456 2.456 0 016.469 24H50.96c1.165 0 2.181.829 2.416 1.971l6.01 29.216c.15.73-.034 1.48-.504 2.058-.471.579-1.169.91-1.913.91H43.105a3.48 3.48 0 00-2.744 1.33 3.487 3.487 0 00-.664 2.978l9.228 39.232a2.459 2.459 0 01-.468 2.099 2.454 2.454 0 01-1.934.936M110.832 104.73c-14.585 0-27.034-9.941-30.274-24.175L68.37 27.018a2.465 2.465 0 01.477-2.089 2.456 2.456 0 011.93-.929h44.491c1.166 0 2.182.829 2.417 1.971l6.01 29.216c.15.73-.034 1.48-.504 2.058-.471.579-1.169.91-1.913.91h-13.865a3.484 3.484 0 00-2.746 1.33 3.49 3.49 0 00-.662 2.978l9.228 39.232a2.459 2.459 0 01-.468 2.099 2.454 2.454 0 01-1.934.936" />
    </g>
</svg>