<?xml version="1.0" encoding="UTF-8"?>
<svg width="128px" height="128px" viewBox="0 0 128 128" version="1.1" xmlns="http://www.w3.org/2000/svg" xmlns:xlink="http://www.w3.org/1999/xlink">
    <!-- Generator: Sketch 61.2 (89653) - https://sketch.com -->
    <title>Graphic elements / Flat icons / Retail / Black</title>
    <desc>Created with Sketch.</desc>
    <g id="Graphic-elements-/-Flat-icons-/-Retail-/-Black" stroke="none" stroke-width="1" fill="none" fill-rule="evenodd">
        <g id="Group-4" transform="translate(4.000000, 8.000000)" fill="unset">
            <path d="M95.1724138,94.6551724 L99.3103448,94.6551724 L99.3103448,57.4137931 L95.1724138,57.4137931 L95.1724138,94.6551724 Z M70.3448276,94.6551724 L74.4827586,94.6551724 L74.4827586,57.4137931 L70.3448276,57.4137931 L70.3448276,94.6551724 Z M45.5172414,94.6551724 L49.6551724,94.6551724 L49.6551724,57.4137931 L45.5172414,57.4137931 L45.5172414,94.6551724 Z M20.6896552,94.6551724 L24.8275862,94.6551724 L24.8275862,57.4137931 L20.6896552,57.4137931 L20.6896552,94.6551724 Z M60.0351724,40.862069 L0,40.862069 L8.34517241,104.024483 C8.88827586,108.136034 12.3631034,111.206897 16.4736207,111.206897 L60.0351724,111.206897 L103.526379,111.206897 C107.636897,111.206897 111.111724,108.136034 111.654828,104.024483 L120,40.862069 L60.0351724,40.862069 Z" id="Fill-1"></path>
            <path d="M53.6509138,13.1472414 C56.2257414,6.0212069 58.9298793,4.13793103 60.0000517,4.13793103 C61.0702241,4.13793103 63.7743621,6.0212069 66.3491897,13.1472414 C68.6410862,19.4922414 70.0143621,27.7655172 70.2900517,36.7241379 L74.4279828,36.7241379 C73.8109138,16.1601724 67.5890172,0 60.0000517,0 C52.4110862,0 46.1891897,16.1601724 45.5716034,36.7241379 L49.7095345,36.7241379 C49.9857414,27.7655172 51.3585,19.4922414 53.6509138,13.1472414" id="Fill-3"></path>
        </g>
    </g>
</svg>