<?xml version="1.0" encoding="UTF-8"?>
<svg width="128px" height="128px" viewBox="0 0 128 128" version="1.1" xmlns="http://www.w3.org/2000/svg" xmlns:xlink="http://www.w3.org/1999/xlink">
    <!-- Generator: Sketch 61.2 (89653) - https://sketch.com -->
    <title>Graphic elements / Flat icons / Servers / Black</title>
    <desc>Created with Sketch.</desc>
    <g id="Graphic-elements-/-Flat-icons-/-Servers-/-Black" stroke="none" stroke-width="1" fill="none" fill-rule="evenodd">
        <g id="Page-1" transform="translate(21.000000, 4.000000)" fill="unset">
            <path d="M0,21.1158798 L86.5236052,21.1158798 L86.5236052,0.514506438 L0,0.514506438 L0,21.1158798 Z M67.9828326,12.8755365 L78.2832618,12.8755365 L78.2832618,8.75536481 L67.9828326,8.75536481 L67.9828326,12.8755365 Z" id="Fill-1"></path>
            <path d="M0,45.8369099 L86.5236052,45.8369099 L86.5236052,25.2360515 L0,25.2360515 L0,45.8369099 Z M67.9828326,37.5965665 L78.2832618,37.5965665 L78.2832618,33.4763948 L67.9828326,33.4763948 L67.9828326,37.5965665 Z" id="Fill-2"></path>
            <path d="M0,70.5579399 L86.5236052,70.5579399 L86.5236052,49.9570815 L0,49.9570815 L0,70.5579399 Z M67.9828326,62.3175966 L78.2832618,62.3175966 L78.2832618,58.1974249 L67.9828326,58.1974249 L67.9828326,62.3175966 Z" id="Fill-3"></path>
            <path d="M43.2618026,87.0386266 C48.9507296,87.0386266 53.5622318,91.6501288 53.5622318,97.3390558 C53.5622318,103.027983 48.9507296,107.639485 43.2618026,107.639485 C37.5728755,107.639485 32.9613734,103.027983 32.9613734,97.3390558 C32.9613734,91.6501288 37.5728755,87.0386266 43.2618026,87.0386266 L43.2618026,87.0386266 Z M0,120 L86.5236052,120 L86.5236052,74.6781116 L0,74.6781116 L0,120 Z" id="Fill-4"></path>
        </g>
    </g>
</svg>