<?xml version="1.0" encoding="UTF-8"?>
<svg width="128px" height="128px" viewBox="0 0 128 128" version="1.1" xmlns="http://www.w3.org/2000/svg" xmlns:xlink="http://www.w3.org/1999/xlink">
    <title>Graphic elements / Icons / Flat icons / Generic / Service, coding</title>
    <g id="Graphic-elements-/-Icons-/-Flat-icons-/-Generic-/-Service,-coding" stroke="none" stroke-width="1" fill="none" fill-rule="evenodd">
        <g id="Group-3" transform="translate(62.181887, 60.200755)" fill="#000000" fill-rule="nonzero">
            <path d="M47.9275472,28.0550943 L44.6264151,28.0550943 L44.6264151,21.5388679 C44.6264151,20.7464151 44.6422642,20.0218868 44.6739623,19.365283 C44.4701887,19.6188679 44.2211321,19.8837736 43.9177358,20.1577358 L42.5524528,21.3124528 L40.8656604,19.1886792 L44.9954717,15.7471698 L47.925283,15.7471698 L47.925283,28.0550943 L47.9275472,28.0550943 Z M35.2415094,28.2249057 C33.8060377,28.2249057 32.7215094,27.6950943 31.9924528,26.6377358 C31.2633962,25.5781132 30.8988679,24.0067925 30.8988679,21.9169811 C30.8988679,19.7275472 31.2543396,18.1222642 31.9675472,17.1011321 C32.6807547,16.08 33.7720755,15.570566 35.2415094,15.570566 C36.6724528,15.570566 37.754717,16.1003774 38.4883019,17.1645283 C39.2196226,18.2286792 39.5864151,19.8135849 39.5864151,21.9192453 C39.5864151,24.0950943 39.2286792,25.6913208 38.5154717,26.7056604 C37.8022642,27.7177358 36.7109434,28.2226415 35.2415094,28.2226415 L35.2415094,28.2249057 Z M28.1841509,28.0550943 L24.885283,28.0550943 L24.885283,21.5388679 C24.885283,20.7464151 24.9011321,20.0218868 24.9350943,19.365283 C24.7313208,19.6188679 24.48,19.8837736 24.1788679,20.1577358 L22.8135849,21.3124528 L21.1267925,19.1886792 L25.2543396,15.7471698 L28.1841509,15.7471698 L28.1841509,28.0550943 L28.1841509,28.0550943 Z M18.3124528,28.0550943 L15.0135849,28.0550943 L15.0135849,21.5388679 C15.0135849,20.7464151 15.029434,20.0218868 15.0633962,19.365283 C14.8596226,19.6188679 14.6083019,19.8837736 14.3071698,20.1577358 L12.9396226,21.3124528 L11.2550943,19.1886792 L15.3849057,15.7471698 L18.3124528,15.7471698 L18.3124528,28.0550943 Z M36.5116981,43.8362264 L48.4120755,56.0173585 L48.4120755,43.8362264 L56.2913208,43.8362264 C58.6098113,43.8362264 60.4890566,41.9116981 60.4890566,39.5388679 L60.4890566,4.29735849 C60.4890566,1.9245283 58.6098113,0 56.2913208,0 L4.19773585,0 C1.87924528,0 0,1.9245283 0,4.29735849 L0,39.5388679 C0,41.9116981 1.87924528,43.8362264 4.19773585,43.8362264 L36.5116981,43.8362264 Z" id="Fill-1"></path>
        </g>
        <path d="M96.5358491,79.3509434 C96.3637736,79.8807547 96.2777358,80.845283 96.2777358,82.2490566 C96.2777358,83.6415094 96.3637736,84.5992453 96.5335849,85.1222642 C96.7033962,85.6430189 96.9886792,85.9033962 97.389434,85.9033962 C97.7969811,85.9033962 98.0822642,85.6339623 98.2498113,85.0950943 C98.4150943,84.5562264 98.4988679,83.6075472 98.4988679,82.2490566 C98.4988679,80.8860377 98.4150943,79.930566 98.245283,79.3826415 C98.0754717,78.834717 97.7901887,78.5607547 97.389434,78.5607547 C96.9886792,78.5607547 96.7033962,78.8256604 96.5335849,79.3532075 L96.5358491,79.3509434 Z" id="Fill-4" fill="#000000" fill-rule="nonzero"></path>
        <g id="Group-8" transform="translate(4.000000, 11.430189)" fill="#000000" fill-rule="nonzero">
            <path d="M47.1350943,19.7056604 L49.770566,17.0067925 L60.3192453,27.7660377 L60.3011321,27.7841509 L60.3192453,27.8022642 L49.770566,38.5615094 L47.1350943,35.8626415 L55.0279245,27.7841509 L47.1350943,19.7056604 L47.1350943,19.7056604 Z M38.9501887,41.7177358 L35.4181132,41.7177358 L40.6777358,13.6875472 L44.2098113,13.6875472 L38.9501887,41.7177358 L38.9501887,41.7177358 Z M33.2671698,35.8626415 L30.6316981,38.5615094 L20.085283,27.8022642 L20.085283,27.7660377 L30.6316981,17.0067925 L33.269434,19.7056604 L25.3766038,27.7841509 L33.269434,35.8626415 L33.2671698,35.8626415 Z M54.5049057,51.3449057 C54.5049057,47.165283 56.4543396,45.0256604 61.0686792,45.0256604 L79.9992453,45.0256604 L79.9992453,5.65660377 C79.9992453,2.58867925 77.5698113,0.100377358 74.5720755,0.100377358 L5.42716981,0.100377358 C2.42943396,0.102641509 0,2.5909434 0,5.65886792 L0,50.7879245 C0,53.8581132 2.42943396,56.3441509 5.42716981,56.3441509 L15.6158491,56.3441509 L15.6158491,72.0935849 L31.0007547,56.3441509 L54.5071698,56.3441509 L54.5071698,51.3471698 L54.5049057,51.3449057 Z" id="Fill-6"></path>
        </g>
    </g>
</svg>