<?xml version="1.0" encoding="UTF-8"?>
<svg width="128px" height="128px" viewBox="0 0 128 128" version="1.1" xmlns="http://www.w3.org/2000/svg" xmlns:xlink="http://www.w3.org/1999/xlink">
    <title>Graphic elements / Icons / Flat icons / Generic / Software Operator</title>
    <g id="Graphic-elements-/-Icons-/-Flat-icons-/-Generic-/-Software-Operator" stroke="none" stroke-width="1" fill="none" fill-rule="evenodd">
        <g id="Software-operator" transform="translate(13.000000, 4.000000)" fill="#000000" fill-rule="nonzero">
            <g id="Group-3" transform="translate(51.428571, 0.000000)">
                <path d="M19.8655462,27.4285714 C15.4285714,27.4285714 11.7983193,23.7983193 11.7983193,19.3613445 C11.7983193,14.9243697 15.4285714,11.2941176 19.8655462,11.2941176 C24.302521,11.2941176 27.9327731,14.9243697 27.9327731,19.3613445 C27.9327731,23.7983193 24.302521,27.4285714 19.8655462,27.4285714 L19.8655462,27.4285714 Z M38.8235294,22.789916 C39.0252101,21.6806723 39.1260504,20.4705882 39.1260504,19.3613445 C39.1260504,19.2605042 39.1260504,19.2605042 39.1260504,19.1596639 C39.1260504,18.0504202 39.0252101,16.8403361 38.8235294,15.8319328 L33.9831933,15.8319328 C33.5798319,14.4201681 33.0756303,13.1092437 32.3697479,11.8991597 L32.8739496,11.394958 L35.7983193,8.47058824 C34.487395,6.55462185 32.7731092,4.84033613 30.7563025,3.52941176 L27.3277311,6.95798319 C26.1176471,6.25210084 24.8067227,5.64705882 23.394958,5.34453782 L23.394958,0.403361345 C22.2857143,0.201680672 21.0756303,0.100840336 19.9663866,0.100840336 C18.7563025,0.100840336 17.5462185,0.201680672 16.4369748,0.403361345 L16.4369748,5.24369748 C15.0252101,5.64705882 13.7142857,6.1512605 12.5042017,6.85714286 L8.97478992,3.52941176 C7.05882353,4.84033613 5.34453782,6.55462185 4.03361345,8.47058824 L6.85714286,11.2941176 L7.46218487,11.8991597 C6.75630252,13.1092437 6.1512605,14.4201681 5.8487395,15.8319328 L1.00840336,15.8319328 C0.806722689,16.9411765 0.705882353,17.9495798 0.705882353,19.1596639 C0.705882353,19.2605042 0.705882353,19.2605042 0.705882353,19.3613445 C0.705882353,20.5714286 0.806722689,21.7815126 1.00840336,22.8907563 L5.8487395,22.8907563 C6.25210084,24.302521 6.75630252,25.6134454 7.46218487,26.8235294 L5.54621849,28.7394958 L4.03361345,30.2521008 C5.44537815,32.2689076 7.05882353,33.8823529 9.07563025,35.2941176 L12.5042017,31.8655462 C13.7142857,32.5714286 15.0252101,33.1764706 16.4369748,33.4789916 L16.4369748,38.3193277 C17.5462185,38.5210084 18.7563025,38.6218487 19.8655462,38.6218487 C21.0756303,38.6218487 22.2857143,38.5210084 23.394958,38.3193277 L23.394958,33.4789916 C24.8067227,33.0756303 26.1176471,32.5714286 27.3277311,31.8655462 L30.7563025,35.2941176 C32.6722689,33.9831933 34.3865546,32.2689076 35.697479,30.3529412 L34.2857143,28.9411765 L32.2689076,26.9243697 C32.9747899,25.7142857 33.5798319,24.4033613 33.8823529,22.9915966 L38.8235294,22.9915966 L38.8235294,22.789916 Z" id="Fill-1"></path>
            </g>
            <polygon id="Fill-4" points="78.3529412 57.4789916 76.6386555 59.394958 76.6386555 101.94958 78.3529412 103.865546 83.697479 103.865546 90.7563025 96.1008403 90.7563025 65.2436975 83.697479 57.4789916"></polygon>
            <polygon id="Fill-6" points="24.1008403 104.672269 26.2184874 102.655462 26.2184874 61.4117647 24.302521 59.4957983 18.6554622 59.4957983 11.092437 66.9579832 11.092437 97.0084034 11.1932773 97.1092437 11.092437 97.1092437 34.2857143 120 49.4117647 120 49.4117647 116.268908 35.7983193 116.268908"></polygon>
            <path d="M46.3865546,16.8403361 L46.3865546,9.07563025 C20.3697479,12.2016807 0,34.0840336 0,60.4033613 L0,85.0084034 L7.76470588,92.7731092 L7.76470588,60.4033613 C7.76470588,48.7058824 12.4033613,37.6134454 20.9747899,29.2436975 C28.0336134,22.487395 36.8067227,18.1512605 46.3865546,16.8403361" id="Fill-8"></path>
            <path d="M92.8739496,31.2605042 L88.7394958,38.8235294 C92.4705882,45.4789916 94.3865546,53.0420168 94.3865546,60.8067227 L94.3865546,93.7815126 L101.848739,86.0168067 L101.848739,60.8067227 C101.848739,49.8151261 98.5210084,39.6302521 92.8739496,31.2605042" id="Fill-10"></path>
        </g>
    </g>
</svg>