<?xml version="1.0" encoding="UTF-8"?>
<svg width="128px" height="128px" viewBox="0 0 128 128" version="1.1" xmlns="http://www.w3.org/2000/svg" xmlns:xlink="http://www.w3.org/1999/xlink">
    <!-- Generator: Sketch 61.2 (89653) - https://sketch.com -->
    <title>Graphic elements / Flat icons / Solution / Black</title>
    <desc>Created with Sketch.</desc>
    <g id="Graphic-elements-/-Flat-icons-/-Solution-/-Black" stroke="none" stroke-width="1" fill="none" fill-rule="evenodd">
        <path d="M87.4137223,77.2601257 L87.1815459,77.6712003 L87.1815459,77.6712003 C84.8634919,81.6992509 81.4962539,85.192087 77.1893671,87.6786693 C73.042628,90.0727902 68.5222505,91.2464695 64.0431659,91.3242922 L63.5109185,91.3286735 L63.5109185,91.3286735 C54.0724833,91.3099381 44.8889257,86.4162079 39.8398117,77.6708861 C34.8721351,69.0666178 35.1343784,58.8605603 39.6232089,50.7398921 L39.8554161,50.3287997 L39.8554161,50.3287997 C42.1730904,46.3000914 45.5413658,42.8075333 49.8475949,40.3213307 C53.9949675,37.9268441 58.5144063,36.7528935 62.9943469,36.6752995 L63.5260435,36.6713265 L63.5260435,36.6713265 C72.963821,36.6904417 82.1480364,41.5837921 87.1971503,50.3291139 C92.1648269,58.9333822 91.901947,69.1398073 87.4137223,77.2601257 L87.4137223,77.2601257 Z M101.41125,16.5952399 L85.6253227,7.48105914 L73.7039453,19.0154126 L73.4118145,19.5225917 C66.9725761,18.0879847 60.2146934,18.0396973 53.6176891,19.5095532 L53.3324992,19.0155898 L41.4113708,7.48105914 L25.6255913,16.5954378 L29.6538299,32.6864759 L29.9390198,33.1804392 C25.3675851,38.1586846 22.0298041,44.0357062 20.052591,50.3295537 L19.4679534,50.3285772 L3.51822157,54.8856161 L3.51822157,73.1137209 L19.4679858,77.6704055 L20.0501688,77.6701684 C21.0322673,80.7838711 22.3542854,83.8407622 24.0540322,86.7848101 C25.7533993,89.7282003 27.7401154,92.4022048 29.9452321,94.8089207 L29.654315,95.3136451 L25.6253318,111.404102 L41.4112595,120.518486 L53.3330167,108.984587 L53.6244898,108.477788 C60.0637282,109.912395 66.8222686,109.960303 73.419273,108.490447 L73.7044628,108.98441 L85.6255913,120.518486 L101.411371,111.404562 L97.3831321,95.3135241 L97.0979422,94.8195608 C101.669377,89.8413154 105.0065,83.9646735 106.983713,77.670826 L107.569009,77.6714228 L123.518361,73.1137262 L123.518361,54.8856213 L107.568976,50.3295945 L106.985756,50.3295536 C106.004037,47.2165086 104.682297,44.15858 102.98293,41.2151899 C101.283183,38.271142 99.2961889,35.5981749 97.0906925,33.1908013 L97.3826471,32.6863549 L101.41125,16.5952399 Z" id="Shape" fill="unset"></path>
    </g>
</svg>