<?xml version="1.0" encoding="UTF-8"?>
<svg width="128px" height="128px" viewBox="0 0 128 128" version="1.1" xmlns="http://www.w3.org/2000/svg" xmlns:xlink="http://www.w3.org/1999/xlink">
    <!-- Generator: Sketch 61.2 (89653) - https://sketch.com -->
    <title>Graphic elements / Flat icons / Sound / Black</title>
    <desc>Created with Sketch.</desc>
    <g id="Graphic-elements-/-Flat-icons-/-Sound-/-Black" stroke="none" stroke-width="1" fill="none" fill-rule="evenodd">
        <g id="Group-8" transform="translate(4.000000, 4.000000)" fill="unset">
            <polygon id="Fill-1" points="76.521913 0.000115942029 28.9856812 32.4638841 28.9856812 88.116058 76.521913 119.641275"></polygon>
            <polygon id="Fill-2" points="0 81.1594203 23.1884058 81.1594203 23.1884058 39.4202899 0 39.4202899"></polygon>
            <g id="Group-7" transform="translate(89.275362, 25.728116)">
                <path d="M20.1992464,0.174376812 L13.4346087,4.75582609 C18.6815652,13.8161159 21.4491014,24.0561159 21.4491014,34.5616232 C21.4491014,45.0671304 18.6815652,55.3071304 13.4346087,64.368 L20.1992464,68.9488696 C26.3337391,58.5494493 29.5650435,46.7517681 29.5650435,34.5616232 C29.5650435,22.372058 26.3331594,10.5737971 20.1992464,0.174376812" id="Fill-3"></path>
                <path d="M6.71872464,9.30382609 L0.0300289855,13.996 C3.42307246,20.2881739 5.21727536,27.3994783 5.21727536,34.5617971 C5.21727536,41.7246957 3.42307246,48.836 0.0300289855,55.1281739 L6.71872464,59.8197681 C11.0456812,52.1281739 13.3332174,43.4226667 13.3332174,34.5617971 C13.3332174,25.7015072 11.0456812,16.996 6.71872464,9.30382609" id="Fill-5"></path>
            </g>
        </g>
    </g>
</svg>