<svg viewBox="0 0 128 128">
    <g stroke="none" stroke-width="1" fill="none" fill-rule="evenodd">
        <g transform="translate(4.000000, 10.000000)" fill="unset" fill-rule="nonzero">
            <polygon points="37.2 107.1 90.5 107.1 90.5 47.3 37.2 47.3"></polygon>
            <g transform="translate(0.000000, 0.030685)">
                <path d="M24.4,80.9 C23.7,82.3 20.9,86.9 14.3,86.9 C7.7,86.9 5.8,82.4 5.4,81.1 L5.4,46.4 L12.6,38.2 L24.4,38.2 L24.4,80.9 Z M60,26.9 L60.2,27.2 L52.9,27.2 L48.2,21.6 L36.5,21.6 L23,16.7 L21.2,21.7 L35.5,26.9 L45.6,26.9 L50.6,32.9 L10.1,32.9 L0,44.4 L0,81.9 L0.1,82.2 C0.9,85.6 5,92.3 14.3,92.3 C25.6,92.3 29.4,82.9 29.6,82.5 L29.8,82 L29.8,38.2 L47.8,38.2 L47.8,42.3 L80,42.3 L80,33.2 L76.2,33.2 L76.2,27.2 L70.5,27.2 L103.7,7.2 C104.6,6.8 111.1,4.3 116.2,9.5 L120,5.7 C112,-2.4 101.8,2.1 101.3,2.3 L60,26.9 Z"></path>
            </g>
        </g>
    </g>
</svg>