<svg xmlns="http://www.w3.org/2000/svg" xmlns:xlink="http://www.w3.org/1999/xlink" viewBox="0 0 128 128"><defs><style>b{mask:url(#a);}d{mask:url(#b);}</style><mask id="a" x="16" y="37.74" width="80.81" height="85.79" maskUnits="userSpaceOnUse"><polygon  points="16 37.74 96.81 37.74 96.81 123.53 16 123.53 16 37.74"/></mask><mask id="b" x="68.35" y="4.54" width="42.9" height="40.64" maskUnits="userSpaceOnUse"><polygon  points="68.35 4.54 111.25 4.54 111.25 45.19 68.35 45.19 68.35 4.54"/></mask></defs><title>system-requirements</title><g ><path  d="M66.18,97.56h0a19.44,19.44,0,0,1-19.53,0h0a19.54,19.54,0,0,1,0-33.84h0a19.51,19.51,0,0,1,19.53,0h0a19.54,19.54,0,0,1,0,33.84ZM96.81,64.83,90.3,53.55,78.79,56.43l-.36.21a32.54,32.54,0,0,0-12.25-7.09v-.41l-3.26-11.4h-13l-3.26,11.4v.41a32.62,32.62,0,0,0-12.25,7.09L34,56.43l-11.5-2.88L16,64.83l8.25,8.53.36.2a32.48,32.48,0,0,0,0,14.15l-.36.21L16,96.44l6.52,11.29L34,104.85l.36-.21a32.46,32.46,0,0,0,12.25,7.08v.41l3.26,11.4h13l3.26-11.4v-.41a32.39,32.39,0,0,0,12.25-7.08l.36.21,11.51,2.88,6.51-11.29-8.24-8.52-.36-.21a32.48,32.48,0,0,0,0-14.15l.36-.2Z"/></g><g class="d"><path  d="M98.39,29.62a9.51,9.51,0,0,1-3.57,3.58,9.68,9.68,0,0,1-4.88,1.28h0a9.74,9.74,0,0,1-8.46-4.86l0,0h0a9.79,9.79,0,0,1,0-9.73.08.08,0,0,0,0-.05,9.76,9.76,0,0,1,8.43-4.88h0a9.79,9.79,0,0,1,8.44,4.86.11.11,0,0,0,0,.05,9.81,9.81,0,0,1,0,9.75h0Zm7.29-9.8h-.22A16.37,16.37,0,0,0,104,16.6a15.92,15.92,0,0,0-2.1-2.87l.1-.18,1.44-5.75L97.84,4.54,93.58,8.67l-.11.18a16.21,16.21,0,0,0-7.07,0l-.1-.17L82.17,4.78,76.53,8l1.3,5.51.1.18a16.39,16.39,0,0,0-3.52,6.09h-.22l-5.84,1.67V28l5.84,1.6h.2a15.89,15.89,0,0,0,1.44,3.29,17,17,0,0,0,2.1,2.87l-.1.18-1.44,5.75L82,45l4.27-4.12.1-.18a16.26,16.26,0,0,0,7.08,0l.1.18L98,45.18l5.65-3.25-1.58-6-.1-.18a16.23,16.23,0,0,0,3.54-6.16h.2l5.57-1.6V21.49Z"/></g></svg>