<?xml version="1.0" encoding="UTF-8"?>
<svg width="128px" height="128px" viewBox="0 0 128 128" version="1.1" xmlns="http://www.w3.org/2000/svg" xmlns:xlink="http://www.w3.org/1999/xlink">
    <title>Graphic elements / Icons / Flat icons / Generic / System Builder</title>
    <g id="Graphic-elements-/-Icons-/-Flat-icons-/-Generic-/-System-Builder" stroke="none" stroke-width="1" fill="none" fill-rule="evenodd">
        <g id="Group-5" transform="translate(4.000000, 72.153220)" fill="#000000" fill-rule="nonzero">
            <path d="M116.36339,0 C118.39322,0 119.715254,1.67186441 119.713223,3.73220339 L119.713223,3.73220339 L119.713223,32.900339 C119.713223,34.960678 118.067797,36.520678 116.033898,36.520678 L116.033898,36.520678 L3.67932203,36.520678 C1.64745763,36.520678 0,34.960678 0,32.900339 L0,32.900339 L0,3.73423729 C0,1.67186441 1.64542373,0 3.67932203,0 L3.67932203,0 Z M109.128814,23.7783051 L85.4908475,23.7783051 L85.4908475,27.459661 L109.128814,27.459661 L109.128814,23.7783051 Z M17.2535593,18.1749153 C14.7335593,18.1749153 12.6894915,20.2494915 12.6894915,22.8081356 C12.6894915,25.3667797 14.7315254,27.4413559 17.2535593,27.4413559 C19.7735593,27.4413559 21.8176271,25.3667797 21.8176271,22.8081356 C21.8176271,20.2494915 19.7755932,18.1749153 17.2535593,18.1749153 Z M109.128814,14.5769492 L85.4867797,14.5769492 L85.4867797,18.3071186 L109.128814,18.3071186 L109.128814,14.5769492 Z" id="Fill-1"></path>
            <path d="M10.9342373,43.8711864 C10.9342373,44.9816949 11.6338983,45.6345763 12.7281356,45.6345763 L21.819661,45.6345763 C22.9118644,45.6345763 23.6359322,44.9491525 23.6359322,43.8386441 L23.6359322,40.1959322 L10.9342373,40.1959322 L10.9342373,43.8711864 Z" id="Fill-3"></path>
            <path d="M96.4067797,43.6189831 C96.4067797,44.7294915 97.0677966,45.6305085 98.1620339,45.6305085 L107.284068,45.6305085 C108.378305,45.6305085 109.073898,44.7294915 109.073898,43.6189831 L109.073898,40.1959322 L96.4067797,40.1959322 L96.4067797,43.6189831 Z" id="Fill-4"></path>
        </g>
        <polygon id="Fill-5" fill="#000000" fill-rule="nonzero" points="64.96 59.6833898 69.8149153 54.4237288 69.8149153 52.4264407 65.8183051 56.4881356 65.8183051 46.5932203 63.9857627 46.5932203 63.9857627 56.4881356 59.7145763 52.4264407 59.7145763 54.4094915"></polygon>
        <polygon id="Fill-6" fill="#000000" fill-rule="nonzero" points="49.4779661 25.6237288 64.9071186 41.0935593 80.3586441 25.5627119 64.919322 9.85898305"></polygon>
    </g>
</svg>