<?xml version="1.0" encoding="UTF-8"?>
<svg width="128px" height="128px" viewBox="0 0 128 128" version="1.1" xmlns="http://www.w3.org/2000/svg" xmlns:xlink="http://www.w3.org/1999/xlink">
    <!-- Generator: Sketch 61.2 (89653) - https://sketch.com -->
    <title>Graphic elements / Flat icons / Tag / Black</title>
    <desc>Created with Sketch.</desc>
    <g id="Graphic-elements-/-Flat-icons-/-Tag-/-Black" stroke="none" stroke-width="1" fill="none" fill-rule="evenodd">
        <path d="M104.936265,30.344535 C100.860735,30.344535 97.5567912,27.0405911 97.5567912,22.9645056 C97.5567912,18.8889753 100.860735,15.5850313 104.936265,15.5850313 C109.011796,15.5850313 112.31574,18.8889753 112.31574,22.9645056 C112.31574,27.0405911 109.011796,30.344535 104.936265,30.344535 M117.731277,4 L81.7464867,4.19830368 C78.9676655,4.1933078 76.2976436,5.27519402 74.3070618,7.21359663 L6.18542127,75.3357922 C4.78657403,76.7313089 4,78.6264138 4,80.6025631 C4,82.5792675 4.78657403,84.4738174 6.18542127,85.869334 L42.0314371,121.715905 C43.4275088,123.114752 45.3220587,123.901326 47.2987631,123.901326 C49.2749123,123.901326 51.1700173,123.114752 52.565534,121.715905 L120.687174,53.5742809 C122.665544,51.6020173 123.785177,48.9286648 123.80183,46.134856 L124,10.1495106 C123.956702,6.72511029 121.156232,3.97792973 117.731277,4" id="Fill-1" fill="unset"></path>
    </g>
</svg>