<svg viewBox="0 0 128 128">
    <g stroke="none" stroke-width="1" fill="none" fill-rule="evenodd">
        <g transform="translate(4.000000, 10.000000)" fill="unset" fill-rule="nonzero">
            <polygon points="12.4363636 0.287603306 106.333884 0.287603306 119.117355 25.3289256 12.9818182 25.3289256 6.01983471 25.3289256 0.119008264 25.3289256"></polygon>
            <rect x="12.6347107" y="69.1438017" width="93.8975207" height="37.5570248"></rect>
            <path d="M65.0876033,60.3867769 C67.5655821,58.699425 69.0502617,55.8970923 69.0545455,52.8991736 L69.0545455,46.7603306 C69.0551386,44.358339 68.0875851,42.0574884 66.3705597,40.3777897 C64.6535343,38.698091 62.331977,37.7813331 59.9305785,37.8347107 L59.5041322,37.8347107 C57.0735548,37.7707584 54.7172018,38.6753941 52.9538675,40.3494456 C51.1905332,42.0234972 50.1647919,44.3297106 50.1024793,46.7603306 L50.1024793,52.8991736 C50.1067631,55.8970923 51.5914427,58.699425 54.0694215,60.3867769 L37.6859504,66.0793388 L37.6859504,75.3719008 L81.4909091,75.3719008 L81.4909091,66.0495868 L65.0876033,60.3867769 Z"></path>
            <rect x="12.6347107" y="37.8446281" width="6.25785124" height="31.2991736"></rect>
            <rect x="100.27438" y="37.8446281" width="6.25785124" height="31.2991736"></rect>
        </g>
    </g>
</svg>