<?xml version="1.0" encoding="UTF-8"?>
<svg width="128px" height="128px" viewBox="0 0 128 128" version="1.1" xmlns="http://www.w3.org/2000/svg" xmlns:xlink="http://www.w3.org/1999/xlink">
    <title>Graphic elements / Icons / Flat icons / Generic / Training</title>
    <g id="Graphic-elements-/-Icons-/-Flat-icons-/-Generic-/-Training" stroke="none" stroke-width="1" fill="none" fill-rule="evenodd">
        <g id="training" transform="translate(4.000000, 17.000000)" fill="#000000" fill-rule="nonzero">
            <path d="M118.680992,45.8082645 C118.533657,45.5172761 118.264869,45.3066047 117.947107,45.2330579 C117.637877,45.1554581 117.310143,45.2210049 117.054545,45.4115702 L85.4975207,68.3206612 C84.5930035,67.9160648 83.6123532,67.7097901 82.6214876,67.7157025 L70.9586777,67.7157025 L63.3818182,53.3553719 C60.7851803,48.3663412 55.6374902,45.2273195 50.0132231,45.2033058 L45.1239669,45.2033058 L33.3818182,62.4793388 L21.6297521,45.2033058 L14.3603306,45.2033058 C10.3273213,45.2374081 6.51564561,47.0524918 3.94710744,50.1619835 C1.29917355,53.2760331 0.327272727,55.9239669 0.327272727,61.2892562 L0.327272727,92.3305785 L51.738843,92.3305785 L51.738843,64.9289256 L59.8512397,78.585124 C61.0779965,81.1126016 63.6368355,82.7210147 66.446281,82.7305785 L82.6214876,82.7305785 C84.5915776,82.7096486 86.4726505,81.9069027 87.8508345,80.4989604 C89.2290185,79.091018 89.9914026,77.1932281 89.9702479,75.2231405 C89.9211971,74.7730049 89.8315766,74.3282217 89.7024793,73.8942149 L118.94876,48.2082645 C119.34858,47.8541336 119.455018,47.27282 119.206612,46.8 L118.680992,45.8082645 Z M13.5570248,18.9322314 C13.5041607,14.0032227 15.4136715,9.2555324 18.864621,5.73574992 C22.3155705,2.21596744 27.0246275,0.213075435 31.953719,0.168595041 C42.2034039,0.282990785 50.4208942,8.6825 50.3107438,18.9322314 C50.4153792,29.1781076 42.1994908,37.571541 31.953719,37.6859504 C21.7040578,37.5769732 13.482162,29.1819381 13.5867769,18.9322314 L13.5570248,18.9322314 Z" id="Fill-1"></path>
        </g>
    </g>
</svg>