<svg viewBox="0 0 128 128">
    <g stroke="none" stroke-width="1" fill="none" fill-rule="evenodd">
        <g transform="translate(4.000000, 4.000000)" fill="unset">
            <path d="M93.2727273,92.6136364 L112.363636,92.6136364 L112.363636,83.0681818 L93.2727273,83.0681818 L93.2727273,92.6136364 Z M79.2824318,92.6136364 L55.7175682,92.6136364 L51.2727273,83.0681818 L83.7272727,83.0681818 L79.2824318,92.6136364 Z M22.6363636,92.6136364 L41.7272727,92.6136364 L41.7272727,83.0681818 L22.6363636,83.0681818 L22.6363636,92.6136364 Z M40.7727273,39.6363636 L94.2272727,39.6363636 L99.9545455,62.0681818 L35.0454545,62.0681818 L40.7727273,39.6363636 Z M105.801136,62.0681818 L97.2646364,35.7241591 C96.4446818,33.6671136 94.0454318,32 91.8289773,32 L43.1710227,32 C40.9545682,32 38.5553182,33.6671136 37.7353636,35.7241591 L29.1988636,62.0681818 L15,81.1590909 L15,115.522727 C15,117.622727 16.7181818,119.340909 18.8181818,119.340909 L29.3181818,119.340909 C31.4181818,119.340909 33.1363636,117.622727 33.1363636,115.522727 L33.1363636,105.977273 L101.863636,105.977273 L101.863636,115.522727 C101.863636,117.622727 103.581818,119.340909 105.681818,119.340909 L116.181818,119.340909 C118.281818,119.340909 120,117.622727 120,115.522727 L120,81.1590909 L105.801136,62.0681818 Z"></path>
            <path d="M5.8,32.1680672 L0.2,29.9495798 C5.5,15.9327731 17.3,4.7394958 31.6,0.100840336 L33.4,5.8487395 C20.9,9.98319328 10.5,19.8655462 5.8,32.1680672 Z" fill-rule="nonzero"></path>
            <path d="M20,36.302521 L14.9,33.1764706 C19.7,25.210084 26.6,18.6554622 34.8,14.3193277 L37.6,19.6638655 C30.3,23.4957983 24.2,29.2436975 20,36.302521 Z" fill-rule="nonzero"></path>
        </g>
    </g>
</svg>