<svg xmlns="http://www.w3.org/2000/svg" xmlns:xlink="http://www.w3.org/1999/xlink" viewBox="0 0 128 128"><defs><mask id="a" x="6" y="21" width="120" height="86.4" maskUnits="userSpaceOnUse"><polygon points="6 107.4 126 107.4 126 21 6 21 6 107.4" style="fill:#fff;fill-rule:evenodd"/></mask></defs><title>webinar</title><path d="M66,52.1a6.72,6.72,0,1,0-6.74-6.69A6.6,6.6,0,0,0,66,52.1" style="fill:unset;fill-rule:evenodd"/><path d="M57.36,101.64l1-3.84H73.68l1,3.84Zm62.4-11.52H12.24L6,101.64v5.76H126v-5.76Z" style="fill:unset;fill-rule:evenodd"/><g style="mask:url(#a)"><path d="M20.88,78.6h90.24V28.68H20.88ZM13.2,86.28H118.8V21H13.2Z" style="fill:unset;fill-rule:evenodd"/></g><g style="mask:url(#a)"><polygon points="76.56 59.17 56.25 52.77 46.65 41.3 43.78 45.06 55.44 63.14 55.44 74.76 76.56 74.76 76.56 59.17" style="fill:unset;fill-rule:evenodd"/></g></svg>