<?xml version="1.0" encoding="UTF-8"?>
<svg width="128px" height="128px" viewBox="0 0 128 128" version="1.1" xmlns="http://www.w3.org/2000/svg" xmlns:xlink="http://www.w3.org/1999/xlink">
    <!-- Generator: Sketch 61.2 (89653) - https://sketch.com -->
    <title>Graphic elements / Flat icons / XProtect / Corporate / Black</title>
    <desc>Created with Sketch.</desc>
    <g id="Graphic-elements-/-Flat-icons-/-XProtect-/-Corporate-/-Black" stroke="none" stroke-width="1" fill="none" fill-rule="evenodd">
        <path d="M46.2079425,23 L46.2079425,58.5670268 L46.2079425,64.9879314 L46.2079425,87.8242226 L46.2079425,94.2451272 L46.2079425,117.066466 L39.6781004,117.066466 L39.6781004,94.2451272 L39.6781004,87.8242226 L39.6781004,64.9879314 L39.6781004,58.4495452 L21.8401182,45.5650154 L4,58.5499386 L4,64.9879314 L4,87.8242226 L4,94.2451272 L4,123.502323 L5.41618754,123.502323 L10.4358568,123.502323 L18.6211218,123.502323 L25.0548426,123.502323 L31.1254383,123.502323 L121.139857,123.502323 L124,123.502323 L124,87.7302373 L106.162018,74.8435714 L88.3304438,87.8242226 L88.3218996,87.8242226 L88.3218996,117.066466 L81.8860428,117.066466 L81.8860428,94.2451272 L81.8860428,87.8242226 L81.8860428,64.9879314 L81.8860428,58.5670268 L81.8860428,23 L46.2079425,23 Z M67.2649211,43.9309528 L75.44805,43.9309528 L75.44805,35.7456879 L67.2649211,35.7456879 L67.2649211,43.9309528 Z M52.6416633,43.9309528 L60.8269282,43.9309528 L60.8269282,35.7456879 L52.6416633,35.7456879 L52.6416633,43.9309528 Z M67.2649211,58.5499386 L75.44805,58.5499386 L75.44805,50.3668097 L67.2649211,50.3668097 L67.2649211,58.5499386 Z M52.6416633,58.5499386 L60.8269282,58.5499386 L60.8269282,50.3668097 L52.6416633,50.3668097 L52.6416633,58.5499386 Z M67.2649211,73.1881486 L75.44805,73.1881486 L75.44805,65.0028836 L67.2649211,65.0028836 L67.2649211,73.1881486 Z M52.6416633,73.1881486 L60.8269282,73.1881486 L60.8269282,65.0028836 L52.6416633,65.0028836 L52.6416633,73.1881486 Z M25.0548426,73.1881486 L33.2401075,73.1881486 L33.2401075,65.0028836 L25.0548426,65.0028836 L25.0548426,73.1881486 Z M10.4358568,73.1881486 L18.6211218,73.1881486 L18.6211218,65.0028836 L10.4358568,65.0028836 L10.4358568,73.1881486 Z M67.2649211,87.8092704 L75.44805,87.8092704 L75.44805,79.6261414 L67.2649211,79.6261414 L67.2649211,87.8092704 Z M52.6416633,87.8092704 L60.8269282,87.8092704 L60.8269282,79.6261414 L52.6416633,79.6261414 L52.6416633,87.8092704 Z M25.0548426,87.8092704 L33.2401075,87.8092704 L33.2401075,79.6261414 L25.0548426,79.6261414 L25.0548426,87.8092704 Z M10.4358568,87.8092704 L18.6211218,87.8092704 L18.6211218,79.6261414 L10.4358568,79.6261414 L10.4358568,87.8092704 Z M109.378878,102.445344 L117.564143,102.445344 L117.564143,94.2600794 L109.378878,94.2600794 L109.378878,102.445344 Z M94.7577565,102.445344 L102.943021,102.445344 L102.943021,94.2600794 L94.7577565,94.2600794 L94.7577565,102.445344 Z M67.2649211,102.445344 L75.44805,102.445344 L75.44805,94.2600794 L67.2649211,94.2600794 L67.2649211,102.445344 Z M52.6416633,102.445344 L60.8269282,102.445344 L60.8269282,94.2600794 L52.6416633,94.2600794 L52.6416633,102.445344 Z M25.0548426,102.445344 L33.2401075,102.445344 L33.2401075,94.2600794 L25.0548426,94.2600794 L25.0548426,102.445344 Z M10.4358568,102.445344 L18.6211218,102.445344 L18.6211218,94.2600794 L10.4358568,94.2600794 L10.4358568,102.445344 Z M109.378878,117.066466 L117.564143,117.066466 L117.564143,108.881201 L109.378878,108.881201 L109.378878,117.066466 Z M94.7577565,117.066466 L102.943021,117.066466 L102.943021,108.881201 L94.7577565,108.881201 L94.7577565,117.066466 Z M67.2649211,117.066466 L75.44805,117.066466 L75.44805,108.881201 L67.2649211,108.881201 L67.2649211,117.066466 Z M52.6416633,117.066466 L60.8269282,117.066466 L60.8269282,108.881201 L52.6416633,108.881201 L52.6416633,117.066466 Z M25.0548426,117.066466 L33.2401075,117.066466 L33.2401075,108.881201 L25.0548426,108.881201 L25.0548426,117.066466 Z M10.4358568,117.066466 L18.6211218,117.066466 L18.6211218,108.881201 L10.4358568,108.881201 L10.4358568,117.066466 Z" id="Fill-1" fill="unset"></path>
    </g>
</svg>