<svg viewBox="0 0 128 128">
    <g stroke="none" stroke-width="1" fill="none" fill-rule="evenodd">
        <g transform="translate(23.000000, 46.000000)" fill="unset">
            <polygon points="9.22604103 61.70031 15.5884641 61.70031 15.5884641 30.681651 9.22604103 30.681651"></polygon>
            <polygon points="23.3689795 61.70031 29.7208513 61.70031 29.7208513 30.681651 23.3689795 30.681651"></polygon>
            <polygon points="37.5013667 61.70031 43.8553487 61.70031 43.8553487 30.681651 37.5013667 30.681651"></polygon>
            <polygon points="51.6295333 61.70031 57.9877359 61.70031 57.9877359 30.681651 51.6295333 30.681651"></polygon>
            <polygon points="65.766141 62.1308023 72.1243436 62.1308023 72.1243436 31.1121433 65.766141 31.1121433"></polygon>
            <polygon points="40.6796238 0 9.45415974 19.1189231 71.8987572 19.1189231"></polygon>
            <polygon points="9.22815128 28.1050279 72.1243436 28.1050279 72.1243436 21.6982895 9.22815128 21.6982895"></polygon>
            <polygon points="9.22815128 68.9026151 72.1243436 68.9026151 72.1243436 64.7074254 9.22815128 64.7074254"></polygon>
            <polygon points="0 77.50191 81.3524949 77.50191 81.3524949 72.0131331 0 72.0131331"></polygon>
        </g>
    </g>
</svg>