<svg xmlns="http://www.w3.org/2000/svg" xmlns:xlink="http://www.w3.org/1999/xlink" viewBox="0 0 128 128"><defs><mask id="a" x="6" y="50" width="113.77" height="71.55" maskUnits="userSpaceOnUse"><polygon points="6 50 119.77 50 119.77 121.55 6 121.55 6 50" style="fill:#fff;fill-rule:evenodd"/></mask></defs><title>xprotect-expert</title><g style="mask:url(#a)"><path d="M119.77,107.24v-35H87.7V61a21,21,0,0,1,6,4.07l4.41-4.42C91.86,54.23,78.83,50,63,50S34.15,54.24,27.89,60.68l4.43,4.43a20,20,0,0,1,5.83-4V72.25H6.08v35h24v8H6v6.33H119.72v-6.33h-24v-8Zm-16-6.3h8V78.44h-8ZM73.29,86.55h8.08v-8H73.29Zm-14.4,0H67v-8H58.89Zm-14.38,0h8v-8h-8Zm0,14.38h8v-8h-8Zm14.38,0H67v-8H58.89Zm14.41,0h8.07v-8H73.3Zm14.4,0h8V78.44h-8ZM81.37,72.18H73.3V56.94a58,58,0,0,1,8.07,1.71ZM67,56.36V72.18H58.89V56.37c1.35-.07,2.72-.13,4.14-.13s2.65,0,3.93.12ZM52.55,72.18h-8V58.7a57.18,57.18,0,0,1,8-1.73ZM13.94,100.94h8V78.5h-8Zm16.14,0h8.05V78.5H30.08Zm14.43,14.28h8v-8h-8Zm14.38,0H67v-8H58.89Zm14.41,0h8.07v-8H73.3Z" style="fill-rule:evenodd"/></g></svg>