<svg id="Layer_1" data-name="Layer 1" xmlns="http://www.w3.org/2000/svg" viewBox="0 0 440 330"><defs><style>.cls-1{fill:#9dadb7}.cls-2{fill:#ced6db}.cls-4{fill:#023852}.cls-5{fill:#0099da}.cls-6{fill:#0082ca}.cls-10{fill:#608292}.cls-11{fill:#4e7486}.cls-12{fill:#000d2e}.cls-13{fill:#ffe700}</style></defs><path class="cls-1" d="M253.75 294.66v-24h-70v24a14.25 14.25 0 01-.29 1.85 15.88 15.88 0 01-1.47 4.07 10.74 10.74 0 01-10.09 5.93h93.7a10.74 10.74 0 01-10.09-5.93 16.67 16.67 0 01-1.47-4.07 14.25 14.25 0 01-.29-1.85z"/><path class="cls-2" d="M280 306.51H157.44a5.32 5.32 0 00-2.22.47 5.67 5.67 0 00-1.82 1.28 6.18 6.18 0 00-1.67 4.25h134a6.25 6.25 0 00-.45-2.34 6.05 6.05 0 00-1.22-1.91 5.74 5.74 0 00-1.81-1.28 5.4 5.4 0 00-2.25-.47z"/><path fill="#71868e" d="M183.74 270.67h70v20h-70v-20z"/><path class="cls-4" d="M413.22 270.67h-389a5.34 5.34 0 01-2.15-.45 5.41 5.41 0 01-1.75-1.2 5.69 5.69 0 01-1.18-1.79 5.75 5.75 0 01-.43-2.2V26.3a5.71 5.71 0 011.61-4 5.57 5.57 0 011.75-1.2 5.33 5.33 0 012.15-.44h389a5.33 5.33 0 012.15.44 5.52 5.52 0 012.93 3 5.67 5.67 0 01.44 2.19V265a5.76 5.76 0 01-.44 2.2 5.69 5.69 0 01-1.18 1.79 5.41 5.41 0 01-1.75 1.2 5.34 5.34 0 01-2.15.48z"/><path class="cls-5" d="M30.73 245.66h376.01v-213H30.73v213z"/><path class="cls-6" d="M45.31 46.67H30.74v-14l14 13.46z"/><path d="M225.24 258.17a6.51 6.51 0 00-.52-2.54 6.52 6.52 0 00-3.45-3.45 6.5 6.5 0 00-2.53-.51 6.42 6.42 0 00-2.53.51 6.34 6.34 0 00-2.07 1.39 6.46 6.46 0 00-1.9 4.6 6.5 6.5 0 00.51 2.53 6.57 6.57 0 001.39 2.06 6.34 6.34 0 002.07 1.39 6.43 6.43 0 002.53.52 6.5 6.5 0 002.53-.52 6.52 6.52 0 003.45-3.45 6.5 6.5 0 00.52-2.53z" fill="#416a7d"/><path class="cls-5" d="M406.74 32.67v14H45.31l-.56-.54-14-13.46z"/><path d="M406.74 46.67v199H253l-32.8-31.36h6.35a6.27 6.27 0 006.26-6.26V103.54a6.28 6.28 0 00-6.26-6.26H122a6.27 6.27 0 00-6.25 6.26v10.74l-29-27.76-14-13.46-14-13.47-13.44-12.92z" fill="#31a9e0"/><path class="cls-5" d="M232.81 103.54v104.51a6.27 6.27 0 01-6.26 6.26h-6.35l-8.79-8.42-41.54-39.78-41.53-39.79-12.56-12v-10.78a6.27 6.27 0 016.22-6.26h104.55a6.28 6.28 0 016.26 6.26z"/><path class="cls-6" d="M220.2 214.31H122a6.25 6.25 0 01-6.25-6.26v-93.77l12.56 12 41.53 39.79 41.54 39.78z"/><path class="cls-4" d="M221.84 182.57h.16v-46.68a4.58 4.58 0 014.56-4.56h12.75V94.59a6.27 6.27 0 00-6.31-6.26H128.5a6.25 6.25 0 00-6.26 6.26V199.1a6.27 6.27 0 006.26 6.26H233a6.28 6.28 0 006.24-5.78h-11.81l3.63 3.63a8 8 0 01-1 .15 8.43 8.43 0 01-1 .06h-95.34a9.58 9.58 0 01-9.57-9.57V98.5a8.31 8.31 0 01.06-1 8 8 0 01.15-1l97.6 97.6v-.92h-.12z"/><path d="M231.06 203.21a8 8 0 01-1 .15 8.43 8.43 0 01-1 .06h-95.34a9.58 9.58 0 01-9.57-9.57V98.5a8.31 8.31 0 01.06-1 8 8 0 01.15-1l12.76 12.76a1.49 1.49 0 00-1 .45 1.57 1.57 0 00-.47 1.12V122a1.59 1.59 0 001.58 1.58h11.15a1.58 1.58 0 001.11-.46 1.56 1.56 0 00.46-1l8.16 8.16a1.53 1.53 0 00-1 .46 1.55 1.55 0 00-.47 1.11V143a1.59 1.59 0 001.58 1.58h11.15a1.56 1.56 0 001.57-1.45l6.78 6.78 1.31 1.31a1.54 1.54 0 00-.91.44 1.57 1.57 0 00-.47 1.12v11.14a1.59 1.59 0 001.58 1.58h11.15a1.61 1.61 0 001.12-.46 1.57 1.57 0 00.44-.91l11.3 11.3v4.27a6.71 6.71 0 006.72 6.72h4.27z" fill="#0b5375"/><path class="cls-10" d="M149.92 122.07a1.56 1.56 0 01-.46 1 1.58 1.58 0 01-1.11.46H137.2a1.59 1.59 0 01-1.58-1.58v-11.11a1.57 1.57 0 01.47-1.12 1.49 1.49 0 011-.45z"/><path class="cls-11" d="M149.93 110.84V122a.28.28 0 010 .09l-12.8-12.8h11.23a1.54 1.54 0 011.11.46 1.57 1.57 0 01.46 1.09zM169.36 123.56h-11.15a1.59 1.59 0 01-1.58-1.58v-11.14a1.57 1.57 0 01.47-1.12 1.54 1.54 0 011.11-.46h11.15a1.58 1.58 0 011.12.46 1.61 1.61 0 01.46 1.12V122a1.61 1.61 0 01-.46 1.12 1.62 1.62 0 01-1.12.44zM190.37 123.56h-11.15a1.59 1.59 0 01-1.58-1.58v-11.14a1.57 1.57 0 01.47-1.12 1.54 1.54 0 011.11-.46h11.15a1.56 1.56 0 011.12.46 1.61 1.61 0 01.46 1.12V122a1.57 1.57 0 01-1.58 1.58z"/><path class="cls-10" d="M148.35 144.53H137.2a1.59 1.59 0 01-1.58-1.58V131.8a1.61 1.61 0 011.58-1.58h11.15a1.61 1.61 0 011.58 1.58V143a1.59 1.59 0 01-1.58 1.58zM170.93 143.08a1.56 1.56 0 01-1.57 1.45h-11.15a1.59 1.59 0 01-1.58-1.58V131.8a1.55 1.55 0 01.47-1.11 1.53 1.53 0 011-.46z"/><path class="cls-11" d="M170.94 131.8V143a.57.57 0 010 .13l-12.85-12.85h11.28a1.59 1.59 0 011.58 1.58zM190.37 144.53h-11.15a1.59 1.59 0 01-1.58-1.58V131.8a1.61 1.61 0 011.58-1.58h11.15a1.59 1.59 0 011.63 1.58V143a1.62 1.62 0 01-.46 1.12 1.61 1.61 0 01-1.17.41z"/><path class="cls-10" d="M148.35 165.45H137.2a1.59 1.59 0 01-1.58-1.58v-11.14a1.57 1.57 0 01.47-1.12 1.54 1.54 0 011.11-.46h11.15a1.54 1.54 0 011.11.46 1.57 1.57 0 01.47 1.12v11.14a1.59 1.59 0 01-1.58 1.58zM169.36 165.45h-11.15a1.59 1.59 0 01-1.58-1.58v-11.14a1.57 1.57 0 01.47-1.12 1.54 1.54 0 011.11-.46h11.15a1.58 1.58 0 011.12.46 1.61 1.61 0 01.46 1.12v11.14a1.61 1.61 0 01-.46 1.12 1.62 1.62 0 01-1.12.46zM191.93 164.08a1.57 1.57 0 01-.44.91 1.61 1.61 0 01-1.12.46h-11.15a1.59 1.59 0 01-1.58-1.58v-11.14a1.57 1.57 0 01.47-1.12 1.54 1.54 0 01.91-.44z"/><path class="cls-11" d="M192 152.73v11.14a.75.75 0 010 .21l-13-12.91a.68.68 0 01.2 0h11.15a1.56 1.56 0 011.12.46 1.61 1.61 0 01.53 1.1z"/><path class="cls-10" d="M148.35 186.37H137.2a1.59 1.59 0 01-1.58-1.58v-11.14a1.59 1.59 0 011.58-1.58h11.15a1.59 1.59 0 011.58 1.58v11.14a1.59 1.59 0 01-1.58 1.58zM169.36 186.37h-11.15a1.59 1.59 0 01-1.58-1.58v-11.14a1.59 1.59 0 011.58-1.58h11.15a1.62 1.62 0 011.12.46 1.61 1.61 0 01.46 1.12v11.14a1.57 1.57 0 01-1.58 1.58z"/><path class="cls-4" d="M214.22 186.37H210a6.71 6.71 0 01-6.72-6.72v-4.27z"/><path class="cls-12" d="M230.89 88.33v91.32a6.71 6.71 0 01-6.72 6.72h-9.95l-11-11v-87z"/><path class="cls-13" d="M214.72 110.37h6.49V88.33h-6.49v22.04z"/><path class="cls-12" d="M239.27 131.33v68.25h-11.84l-5.43-5.47v-.92h-.12v-10.62h.12v-46.68a4.58 4.58 0 014.56-4.56z"/><path d="M222 194.11l5.47 5.47h-.91A4.58 4.58 0 01222 195z" opacity=".2" fill="#000d2e"/><path class="cls-5" d="M330.35 182.57v10.62h-.17V195a4.58 4.58 0 01-4.56 4.56h-86.37v-68.23h86.35a4.58 4.58 0 014.56 4.56v46.68z"/><path class="cls-2" d="M323 189.49a4.58 4.58 0 01-4.56 4.56h-99.1a4.58 4.58 0 01-4.56-4.56v-58.92a4.58 4.58 0 014.56-4.56h99.1a4.58 4.58 0 014.56 4.56v58.92z"/><path class="cls-1" d="M219.33 194.26h99.1a4.58 4.58 0 004.57-4.56v-35.65c-13.31 1.32-23.17 5.68-33.11 9.9s-20 8.3-33.56 9.05a119.91 119.91 0 01-24.78-1.17 98.68 98.68 0 01-16.77-4.08v21.95a4.58 4.58 0 004.56 4.56zM242.64 151.71H225.19V148.78H242.64V151.71zM252.41 139.51h-27.22v-2.92h27.22v2.92zM252.41 145.61h-27.22V142.68h27.22V145.61z"/><path fill="#fff" d="M283.27 136.59h25.91v33.72h-25.91v-33.72z"/><path class="cls-4" d="M323.16 177.26H214.65v10.62H323.16v-10.62z"/><path class="cls-1" d="M300.71 158.89h-1.47a4.27 4.27 0 001.66-3.33v-3.67a4.21 4.21 0 00-8.42 0v3.67a4.08 4.08 0 00.45 1.88 4.23 4.23 0 001.2 1.45h-2.38a5.19 5.19 0 00-5.18 5.18v3h19.31v-3a5.19 5.19 0 00-5.17-5.18z"/><path class="cls-13" d="M260.61 107.01V88.35h6.05v18.59l4.72-4.72 4.72-4.72-.01 4.13v4.12l-6.24 6.24-6.24 6.24-6.25-6.24-6.24-6.24v-8.24l4.75 4.75 4.74 4.75z"/><path class="cls-10" d="M186.48 179.38a1.84 1.84 0 00-.54-1.3 1.86 1.86 0 00-1.31-.54 1.84 1.84 0 00-1.84 1.84 1.86 1.86 0 00.54 1.31 1.84 1.84 0 001.3.54 1.84 1.84 0 001.85-1.85zM181 179.38a3.67 3.67 0 011.08-2.59l-.39-.39-.39-.39a4.55 4.55 0 00-1 1.52 4.77 4.77 0 00-.37 1.85 4.62 4.62 0 00.33 1.75 4.79 4.79 0 00.91 1.46l.39-.39.4-.39a3.73 3.73 0 01-.68-1.11 3.6 3.6 0 01-.28-1.32zM188.3 179.38a3.6 3.6 0 01-.24 1.32 3.73 3.73 0 01-.68 1.11l.39.39.4.39a5 5 0 00.91-1.46A4.74 4.74 0 00188 176l-.39.39-.39.39a3.72 3.72 0 011.07 2.59zM177.84 179.38a6.7 6.7 0 01.54-2.64 6.9 6.9 0 011.45-2.16l-.39-.39-.39-.39a8.1 8.1 0 00-1.69 2.51 7.84 7.84 0 00-.05 6 8.14 8.14 0 001.59 2.45l.39-.39.39-.4a6.5 6.5 0 01-1.34-2.1 6.64 6.64 0 01-.5-2.49z"/><path class="cls-10" d="M191.42 179.38a6.77 6.77 0 01-1.83 4.63l.39.4.39.39a7.93 7.93 0 001.58-2.45 7.75 7.75 0 00.58-3 7.87 7.87 0 00-.62-3.07 8.1 8.1 0 00-1.69-2.51l-.39.39-.4.39a6.76 6.76 0 011.46 2.16 6.87 6.87 0 01.53 2.67z"/></svg>