<svg width="170" height="96" xmlns="http://www.w3.org/2000/svg">
  <g fill="none" fill-rule="evenodd">
    <path d="M112.449 90.486V79.772H93.036v10.714a4.616 4.616 0 0 1-.49 1.648c-.23.454-.57.843-.986 1.133a3.11 3.11 0 0 1-1.808.516h25.98a3.159 3.159 0 0 1-1.815-.516 3.135 3.135 0 0 1-.979-1.132 4.298 4.298 0 0 1-.406-1.132 2.924 2.924 0 0 1-.083-.517z" fill="#96A6AE" fill-rule="nonzero"/>
    <path fill-rule="nonzero" style="mix-blend-mode:multiply" d="M93.027 82.907h19.431V89.2H93.026V84.48z" opacity=".5" fill="#96A6AE"/>
    <path d="M156.483 83.34H49a2.628 2.628 0 0 1-1.061-.175 2.736 2.736 0 0 1-.87-.591 2.714 2.714 0 0 1-.59-.833 2.882 2.882 0 0 1-.215-1.074V16.68a2.748 2.748 0 0 1 .804-1.94c.248-.252.544-.45.871-.583a2.63 2.63 0 0 1 1.061-.216h107.482a2.63 2.63 0 0 1 1.061.216c.327.133.623.331.871.583.25.25.45.547.589.874.137.339.207.7.207 1.066v63.912c0 .368-.07.733-.207 1.074a2.714 2.714 0 0 1-.589.833 2.738 2.738 0 0 1-.854.666c-.343.133-.71.193-1.078.175z" fill="#023852" fill-rule="nonzero"/>
    <path fill="#0099DA" fill-rule="nonzero" d="M49.814 76.913h106.213V18.203H49.814v44.032z"/>
    <path d="M104.53 79.901c0-.237-.048-.472-.142-.69a1.753 1.753 0 0 0-.953-.958 1.768 1.768 0 0 0-1.385 0 1.753 1.753 0 0 0-.954.957 1.788 1.788 0 0 0 0 1.39c.178.435.521.78.954.958.442.188.942.188 1.385 0 .432-.178.776-.523.953-.957.094-.221.142-.46.141-.7z" fill="#135275" fill-rule="nonzero"/>
    <path d="M51.415 18.228l3.905 3.713 3.898 3.713 3.906 3.714 3.906 3.713 11.585 10.956 11.56 10.972 11.61 10.973c3.87 3.663 7.723 7.32 11.56 10.972h42.798V18.228H51.415z" fill-rule="nonzero" opacity=".2" fill="#FFF"/>
    <path d="M119.408 93.448h-34c-.21.003-.419.045-.613.125-.373.161-.67.46-.83.833a1.67 1.67 0 0 0-.124.616h37.151a1.67 1.67 0 0 0-.124-.616 1.587 1.587 0 0 0-.83-.833 1.653 1.653 0 0 0-.63-.125z" fill="#CAD3D6" fill-rule="nonzero"/>
    <path d="M70.372 32.065v1.432h-.83v-3.73h1.078c.224-.006.446.016.664.067.165.035.32.106.456.208.121.09.216.21.274.35.108.264.126.557.05.832a.834.834 0 0 1-.142.275 1.102 1.102 0 0 1-.506.4c.274.424.506.765.689 1.04l.406.591h-.837l-.44-.716-.448-.716h-.414v-.033zm0-.641h.248c.108.01.216.01.324 0a.753.753 0 0 0 .232-.1.408.408 0 0 0 .141-.192.652.652 0 0 0 .042-.233.635.635 0 0 0-.042-.183.308.308 0 0 0-.14-.15.546.546 0 0 0-.233-.083c-.11-.01-.221-.01-.332 0h-.232V31.5l-.008-.075zM75.157 33.497h-2.14v-3.73h2.14v.641h-1.352v.833h1.26v.649h-1.26v.957h1.352v.658zM77.512 30.367a1 1 0 0 0-.398.083.78.78 0 0 0-.29.258 1.11 1.11 0 0 0-.183.4 2.03 2.03 0 0 0-.066.532c-.021.328.06.654.232.933a.828.828 0 0 0 .705.316 2.14 2.14 0 0 0 .43-.05 3.82 3.82 0 0 0 .515-.15v.666c-.156.061-.317.108-.48.142-.179.034-.36.05-.54.05a1.884 1.884 0 0 1-.713-.125 1.401 1.401 0 0 1-.53-.375 1.592 1.592 0 0 1-.324-.6 3.008 3.008 0 0 1-.1-.832 2.791 2.791 0 0 1 .05-.54 1.67 1.67 0 0 1 .158-.475c.066-.143.152-.275.257-.392.102-.11.22-.205.348-.283.136-.076.28-.135.431-.175.163-.037.33-.057.498-.058.181.002.362.024.539.067.19.044.373.111.547.2l-.124.316-.133.325-.207-.092-.208-.083-.207-.058h-.207zM66.79 31.549a1.911 1.911 0 0 0-1.908-1.915 1.911 1.911 0 0 0-1.907 1.915c0 1.057.854 1.915 1.907 1.915a1.911 1.911 0 0 0 1.907-1.915z" fill="#FFE700" fill-rule="nonzero"/>
    <path fill="#FFF" fill-rule="nonzero" d="M58.638 38.259h-1.593V22.582H72.66V24.173H58.638v7.043zM72.66 70.436V72.035H57.045V56.357h1.584v14.078h7.016zM148.48 56.358h1.593V72.034h-15.624v-1.598H148.48v-7.043zM134.45 24.173v-1.59H150.072v15.676h-1.593V24.173h-7.015z"/>
    <path fill="#FFE700" fill-rule="nonzero" d="M74.452 52.154h.257V48.182h3.964v-.99H73.73V52.154h.49zM74.709 60.704v-3.972h-.979v4.962h4.943v-.99h-2.115zM88.292 56.732h-.265V60.704H84.07v.99h4.943V56.732h-.49zM88.748 47.192h-4.677v.99h3.955v3.972h.988v-4.962h-.133zM103.41 33.064h.265v-3.971h3.964v-.983H102.697v4.954h.489zM103.675 41.622v-3.979h-.978V42.605H107.639v-.983h-2.115zM117.259 37.643h-.266v3.979H113.038v.983h4.934v-4.962h-.49zM117.706 28.11h-4.668v.983h3.955v3.971h.979V28.11h-.133zM165.597.745h-37.218a2.963 2.963 0 0 0-2.108.873 2.986 2.986 0 0 0-.87 2.116v23.427c-.001.794.312 1.555.87 2.116a2.963 2.963 0 0 0 2.108.873h37.218a2.991 2.991 0 0 0 2.985-2.989V3.734a2.991 2.991 0 0 0-2.985-2.989z"/>
    <path fill="#023852" fill-rule="nonzero" d="M137.12 14.74h-3.608v10.215h3.608v-7.659zM148.572 7.53h-3.599v17.425H148.572v-13.07zM142.85 17.462h-3.608v7.493h3.608v-5.619zM160.032 10.045H156.425v14.91h3.607V13.774zM154.302 11.968h-3.599v12.987H154.302v-9.74z"/>
    <g fill-rule="nonzero">
      <path d="M54.062 31.815c0-.472-.093-.939-.273-1.374a3.54 3.54 0 0 0-1.875-1.881 3.55 3.55 0 0 0-1.368-.275H8.926c-.47 0-.935.093-1.37.275-.414.183-.793.44-1.119.757a3.714 3.714 0 0 0-.754 1.124c-.18.435-.274.902-.274 1.374v59.641c0 .47.093.933.274 1.366.178.419.434.8.754 1.124.321.323.701.58 1.12.757.432.188.898.284 1.368.283h41.638a3.542 3.542 0 0 0 3.242-2.164c.18-.433.274-.897.274-1.366V31.815h-.017z" fill="#023852"/>
      <path d="M31.888 91.057c-.001-.287-.06-.57-.175-.833a2.14 2.14 0 0 0-.456-.682c-.192-.2-.424-.36-.68-.467a2.173 2.173 0 0 0-1.658 0 2.023 2.023 0 0 0-.68.467 2.14 2.14 0 0 0-.456.682 2.08 2.08 0 0 0 0 1.665c.106.255.261.487.456.683.192.2.424.36.68.466.531.22 1.127.22 1.658 0 .256-.107.488-.265.68-.466a2.14 2.14 0 0 0 .456-.683c.115-.262.174-.546.175-.832z" fill="#135275"/>
      <path fill="#0099DA" d="M50.853 87.11H8.635V31.416h42.218v41.768z"/>
      <path d="M50.812 31.49H8.718v11.33c1.84 1.874 4.934 4.996 8.657 8.759 3.724 3.763 8.078 8.142 12.44 12.488 4.361 4.345 8.715 8.708 12.438 12.396 3.724 3.688 6.817 6.718 8.658 8.45V44.952l-.1-13.462z" fill="#FFF" opacity=".2"/>
      <path fill="#FFF" d="M19.424 60.245h-3.599v20.68H19.424v-15.51zM30.884 45.643H27.277v35.282h3.607V54.468z"/>
      <path fill="#FFE700" d="M25.154 65.757h-3.599v15.168H25.154V69.553z"/>
      <path fill="#FFF" d="M42.345 50.746h-3.608v30.179h3.608V58.29zM36.614 54.626H33.007v26.299h3.607V61.203z"/>
    </g>
    <g fill-rule="nonzero">
      <path d="M168.425 94.996H144.06c-.2 0-.397-.04-.58-.118a1.434 1.434 0 0 1-.473-.318 1.676 1.676 0 0 1-.324-.478 1.538 1.538 0 0 1-.116-.586V50.334c0-.356.07-.71.207-1.038a2.749 2.749 0 0 1 1.402-1.408c.325-.138.675-.21 1.028-.21h22.05a2.656 2.656 0 0 1 2.439 1.618 2.7 2.7 0 0 1 .207 1.038v43.17c0 .202-.04.4-.116.587a1.46 1.46 0 0 1-.788.838c-.185.059-.379.082-.572.067z" fill="#003A5D"/>
      <path fill="#0099DA" d="M168.076 86.091H144.41V50.9h23.667V77.3z"/>
      <path fill="#FFF" opacity=".2" d="M168.076 86.091l-5.92-5.686-5.913-5.678-5.921-5.686-5.913-5.686V50.901h23.667V77.3z"/>
      <path d="M158.241 90.504c.004-.27-.05-.536-.157-.783a1.973 1.973 0 0 0-1.061-1.074 2.008 2.008 0 0 0-2.786 1.857c0 .268.054.534.157.782a1.982 1.982 0 0 0 1.07 1.066c.245.108.51.162.779.158.268.003.534-.05.78-.158.482-.196.865-.58 1.06-1.066.108-.247.161-.513.158-.782z" fill="#135275"/>
      <path d="M154.841 69.907l-1.6.924-1.592.924-1.593.924-1.592.916a9.046 9.046 0 0 0 1.41 1.857 8.737 8.737 0 0 0 1.833 1.423 8.49 8.49 0 0 0 2.164.924 8.85 8.85 0 0 0 2.413.333V70.74a1.57 1.57 0 0 1-.846-.234 1.468 1.468 0 0 1-.34-.258 1.664 1.664 0 0 1-.257-.34z" fill="#96A6AE"/>
      <path d="M154.617 69.075a.92.92 0 0 1 0-.217 1.672 1.672 0 0 1 0-.216c.018-.071.04-.14.067-.208l.1-.192-1.601-.924-1.592-.924-1.593-.924-1.592-.924a9.177 9.177 0 0 0-1.136 3.313c-.1.81-.1 1.63 0 2.44.056.393.136.782.24 1.165.103.377.23.747.382 1.107.146.356.318.701.514 1.032l1.592-.915 1.593-.924 1.592-.924 1.658-.933-.1-.191a1.528 1.528 0 0 1-.066-.209 1.672 1.672 0 0 1 0-.216.952.952 0 0 1-.058-.216z" fill="#9E9D8E"/>
      <path d="M148.464 64.504l1.592.924 1.593.924 1.592.924 1.6.966c.14-.251.347-.459.597-.6a1.57 1.57 0 0 1 .846-.233v-7.434a9.095 9.095 0 0 0-4.577 1.249 9.06 9.06 0 0 0-1.833 1.432 9.229 9.229 0 0 0-1.41 1.848z" fill="#FFF"/>
      <path d="M157.943 69.075a.953.953 0 0 1 0 .224.91.91 0 0 1-.042.217c-.017.07-.039.14-.066.208a2.11 2.11 0 0 1-.1.191l1.601.925 1.592.924 1.592.924 1.593.915c.196-.33.367-.676.514-1.032a9.373 9.373 0 0 0 .622-2.273c.099-.81.099-1.629 0-2.439a9.177 9.177 0 0 0-1.136-3.313l-1.593.924-1.592.924-1.592.924-1.617.924c.036.062.07.126.1.192a1.939 1.939 0 0 1 .124.641z" fill="#023852"/>
      <path d="M157.719 68.242l1.6-.924 1.593-.924 1.592-.924 1.592-.924a9.229 9.229 0 0 0-1.41-1.849 9.06 9.06 0 0 0-1.832-1.431 9.095 9.095 0 0 0-4.57-1.25v7.394a1.553 1.553 0 0 1 .838.233c.25.14.457.348.597.599z" fill="#0099DA"/>
      <path d="M156.284 70.74v7.392c.813 0 1.623-.111 2.405-.333a8.49 8.49 0 0 0 2.165-.924 8.737 8.737 0 0 0 1.832-1.423 9.046 9.046 0 0 0 1.41-1.857l-1.592-.916-1.592-.924-1.593-.924-1.6-.924c-.07.124-.157.24-.257.341-.1.103-.215.19-.34.258a1.553 1.553 0 0 1-.838.233z" fill="#FFE700"/>
    </g>
    <path stroke="#FFE700" d="M120.642 34.488l2.91-2.923 2.911-2.922"/>
    <path d="M15.06 22.2H2.977a2.963 2.963 0 0 0-2.107.872A2.986 2.986 0 0 0 0 25.188v12.13a2.991 2.991 0 0 0 2.977 2.997H15.06a3.008 3.008 0 0 0 2.985-2.997v-12.13A2.991 2.991 0 0 0 15.06 22.2z" fill="#DFE4E7" fill-rule="nonzero"/>
    <path d="M12.713 33.772h-.191a.487.487 0 0 0-.174 0 .828.828 0 0 0-.232.108l-.224.125a.935.935 0 0 1-.2.066.628.628 0 0 1-.215 0 1.21 1.21 0 0 1-.713-.325 1.332 1.332 0 0 1-.299-.407 1.253 1.253 0 0 1 0-1v-.2a1.3 1.3 0 0 1 .282-.432c.238-.244.564-.382.904-.383.175-.001.347.036.506.108.1.025.194.065.282.117.062.039.116.09.158.15a.65.65 0 0 1 .1.183c.033.08.06.164.082.25.027.08.06.158.1.233.025.052.058.1.099.141l.083.067h.091a.388.388 0 0 0 .141 0 .24.24 0 0 0 .133 0 .282.282 0 0 0 .116-.075.65.65 0 0 0 .083-.125l.215-.558.216-.558.216-.557.215-.558a.36.36 0 0 0 0-.092.3.3 0 0 0 0-.083l-.033-.083h-.074l-.614-.242-.606-.241-.605-.233-.605-.242-.166-.058-.274-.133a.896.896 0 0 1-.232-.192.225.225 0 0 1-.058-.224.275.275 0 0 1 .083-.125l.15-.084.231-.15c.121-.09.235-.19.34-.3l.108-.124c0-.042.058-.083.083-.133l.075-.15a.885.885 0 0 0 .05-.158c.042-.152.056-.31.041-.466a1.203 1.203 0 0 0-.116-.442 1.332 1.332 0 0 0-.647-.64 1.24 1.24 0 0 0-.53-.126c-.18 0-.357.034-.523.1-.163.066-.31.165-.431.292a1.158 1.158 0 0 0-.299.458.534.534 0 0 0-.05.15 1.354 1.354 0 0 0 0 .158 1.07 1.07 0 0 0 0 .158 2.064 2.064 0 0 0 .05.55c0 .107.05.182.066.24a.785.785 0 0 1 .05.15.284.284 0 0 1 0 .142.232.232 0 0 1-.19.133 1 1 0 0 1-.307 0l-.332-.15-.166-.066-.663-.25-.606-.233-.605-.233-.605-.233a.149.149 0 0 0-.083 0H6.31l-.075.05-.05.075-.215.557-.166.558-.216.558-.215.558a.46.46 0 0 0 0 .141.393.393 0 0 0 0 .142.35.35 0 0 0 .074.116l.125.075H5.805a.48.48 0 0 0 .166 0 .646.646 0 0 0 .232-.108l.224-.125a1.19 1.19 0 0 1 .207-.05.628.628 0 0 1 .216 0 1.242 1.242 0 0 1 1.003.733c.072.151.111.315.116.483.01.176-.018.352-.083.516V31.216c-.064.164-.16.314-.282.44a1.264 1.264 0 0 1-1.418.275 1.438 1.438 0 0 1-.381-.058.922.922 0 0 1-.158-.15 1.051 1.051 0 0 1-.074-.174l-.083-.242a.91.91 0 0 0-.091-.233.524.524 0 0 0-.108-.141.316.316 0 0 0-.083-.075h-.125a.215.215 0 0 0-.14 0 .421.421 0 0 0-.142 0 .589.589 0 0 0-.116.083.317.317 0 0 0-.074.125l-.266.69-.273.625-.266.7-.273.69a.234.234 0 0 0 0 .075.242.242 0 0 0 0 .075c.01.024.024.047.041.067h.066l.714.275.721.283.73.333.713.283a.372.372 0 0 0 .133 0 .33.33 0 0 0 .124 0 .366.366 0 0 0 .183-.183v-.308-.134-.066a1.278 1.278 0 0 1-.058-.242 1.153 1.153 0 0 1 0-.241.836.836 0 0 1 0-.241 1.185 1.185 0 0 1 .356-.617 1.314 1.314 0 0 1 .813-.358 1.231 1.231 0 0 1 .912.325c.132.11.237.25.307.408a1.287 1.287 0 0 1 .041 1.016 1.91 1.91 0 0 1-.116.225c-.048.07-.1.136-.157.2l-.183.158-.207.116H8.59l-.058.05-.05.067v.333a.142.142 0 0 0 0 .083.092.092 0 0 0 0 .067.183.183 0 0 0 .042.066h.066l.747.292.746.29.746.292.755.292h.149a.166.166 0 0 0 .058-.05.134.134 0 0 0 0-.067l.274-.683.265-.69.266-.692.265-.69a.242.242 0 0 0 0-.15.376.376 0 0 0 0-.134.591.591 0 0 0-.083-.116.314.314 0 0 0-.066-.008z" fill="#023852" fill-rule="nonzero"/>
  </g>
</svg>
