<svg width="90" height="128" xmlns="http://www.w3.org/2000/svg">
  <g fill-rule="nonzero" fill="none">
    <path d="M83.286 12.156H73.7V6.373a2.979 2.979 0 0 0-1.82-2.764 2.939 2.939 0 0 0-2.304 0 2.99 2.99 0 0 0-1.82 2.753v5.783H19.191V6.362a2.979 2.979 0 0 0-1.82-2.765 2.845 2.845 0 0 0-2.304 0 2.99 2.99 0 0 0-1.82 2.753v5.783H3.131c-.586 0-1.16.173-1.648.498a3.07 3.07 0 0 0-.795.798 2.924 2.924 0 0 0-.507 1.677v109.57a2.955 2.955 0 0 0 2.95 2.961h80.154a2.955 2.955 0 0 0 2.95-2.96V15.105a2.955 2.955 0 0 0-2.95-2.95zm-15.565 8.456v1.365c-.005.798.31 1.565.875 2.128.268.278.59.499.945.647.74.299 1.565.299 2.304 0a2.81 2.81 0 0 0 .945-.647 2.978 2.978 0 0 0 .91-2.128v-.926c.6.73.93 1.645.933 2.591a4.15 4.15 0 0 1-3.108 4.058 4.13 4.13 0 0 1-4.67-2.055 4.164 4.164 0 0 1 .866-5.045v.012zm-54.508-.07v1.435c-.005.798.31 1.565.875 2.128.268.278.59.499.945.647.366.15.757.23 1.152.232.396-.001.787-.08 1.153-.232a2.81 2.81 0 0 0 .944-.647 2.978 2.978 0 0 0 .91-2.128v-.81c.55.711.85 1.586.853 2.487a4.157 4.157 0 0 1-2 3.778 4.122 4.122 0 0 1-4.261 0 4.157 4.157 0 0 1-2-3.778 4.078 4.078 0 0 1 1.429-3.112z" fill="#003A5D" opacity=".2" style="mix-blend-mode:multiply"/>
    <path d="M4.883 9.253z" fill="#CAD3D6"/>
    <path d="M3.639 121.264a2.955 2.955 0 0 0 2.949 2.961h80.097a2.955 2.955 0 0 0 2.95-2.961V37.927H3.638v83.337z" fill="#EFF2F3"/>
    <path d="M6.53 8.733a2.987 2.987 0 0 0-1.647.52 2.987 2.987 0 0 1 1.647-.509v-.011z" fill="#CAD3D6"/>
    <path d="M86.685 8.733H6.53a2.987 2.987 0 0 0-1.647.52 2.976 2.976 0 0 0-1.244 2.44v26.234h85.995V11.694a2.955 2.955 0 0 0-2.95-2.961zm-67.377 15.65a4.136 4.136 0 0 1-3.823-2.567 4.164 4.164 0 0 1 .902-4.526 4.124 4.124 0 0 1 4.512-.893 4.153 4.153 0 0 1 2.545 3.845 4.15 4.15 0 0 1-1.212 2.932 4.117 4.117 0 0 1-2.924 1.208zm54.6 0a4.136 4.136 0 0 1-3.831-2.559 4.164 4.164 0 0 1 .894-4.53 4.124 4.124 0 0 1 4.513-.898 4.153 4.153 0 0 1 2.548 3.846 4.133 4.133 0 0 1-4.113 4.14h-.011z" fill="#0099DA"/>
    <path fill="#CAD3D6" d="M32.546 65.155H11.807V44.3H32.546V59.938zM57.167 65.155H36.428V44.3H57.167V59.938zM81.788 65.155H61.05V44.3h20.738V59.938zM32.546 90.509H11.807V69.666H32.546V85.304zM57.167 90.509H36.428V69.666H57.167V85.304zM81.788 90.509H61.05V69.666h20.738V85.304zM32.546 115.874H11.807V95.031H32.546V110.657z"/>
    <path fill="#50BFEE" d="M57.167 115.874H36.428V95.031H57.167V110.657z"/>
    <path fill="#023852" d="M44.885 109.871l-.945-.948-.944-.949-.945-.948-.945-.949.196-.197.196-.196.196-.197.196-.196.749.751.748.752.75.752.748.752 1.59-1.596 1.59-1.608 1.602-1.596 1.59-1.608.195.197.196.196.196.197.196.197-1.786 1.804-1.797 1.793-1.786 1.804z"/>
    <path d="M19.607 21.583c-.395 0-.787-.078-1.152-.231a3.036 3.036 0 0 1-1.601-1.608 3.018 3.018 0 0 1-.23-1.157V3.007c0-.397.077-.79.23-1.156.148-.356.354-.684.61-.972.288-.27.619-.49.98-.648a2.985 2.985 0 0 1 2.304 0c.351.157.671.377.945.648.564.563.88 1.33.875 2.128v15.569a2.979 2.979 0 0 1-.875 2.128c-.274.271-.594.49-.945.648-.362.151-.75.23-1.14.231z" fill="#CBD3D7"/>
    <path d="M19.607 14.944a2.802 2.802 0 0 1-1.152-.243 3.144 3.144 0 0 1-.956-.636 3.47 3.47 0 0 1-.645-.96 3.018 3.018 0 0 1-.23-1.157v6.64c0 .397.077.79.23 1.156.306.724.88 1.3 1.601 1.608a3.042 3.042 0 0 0 2.304 0c.352-.157.672-.377.945-.648.565-.562.88-1.33.876-2.128v-6.64a2.979 2.979 0 0 1-1.82 2.765 2.802 2.802 0 0 1-1.153.243z" fill="#96A6AE"/>
    <path d="M74.115 21.583c-.396 0-.787-.078-1.152-.231a3.456 3.456 0 0 1-.956-.648 3.193 3.193 0 0 1-.646-.96 3.018 3.018 0 0 1-.23-1.157V3.007c0-.397.078-.79.23-1.156.155-.357.374-.683.646-.96.276-.272.595-.494.944-.66a2.985 2.985 0 0 1 2.304 0c.36.155.688.374.968.648.565.563.88 1.33.876 2.128v15.569a2.979 2.979 0 0 1-.876 2.128c-.273.271-.593.49-.944.648a2.986 2.986 0 0 1-1.164.231z" fill="#CBD3D7"/>
    <path d="M74.115 14.944a2.802 2.802 0 0 1-1.152-.243 3.144 3.144 0 0 1-.956-.636 3.193 3.193 0 0 1-.646-.96 3.018 3.018 0 0 1-.23-1.157v6.64c0 .397.078.79.23 1.156.155.357.374.682.646.96.28.268.603.487.956.648a3.042 3.042 0 0 0 2.304 0 3.19 3.19 0 0 0 .956-.648c.565-.562.88-1.33.876-2.128v-6.64a2.979 2.979 0 0 1-1.82 2.765 2.802 2.802 0 0 1-1.164.243z" fill="#96A6AE"/>
  </g>
</svg>
