<svg width="114" height="128" xmlns="http://www.w3.org/2000/svg">
  <g fill-rule="nonzero" fill="none">
    <path d="M106.738 12.156H85.63V6.373a2.979 2.979 0 0 0-1.82-2.764 2.939 2.939 0 0 0-2.305 0 2.99 2.99 0 0 0-1.82 2.753v5.783H31.123V6.362a2.979 2.979 0 0 0-1.82-2.765 2.845 2.845 0 0 0-2.305 0 2.99 2.99 0 0 0-1.82 2.753v5.783H3.54c-.586 0-1.16.173-1.648.498a3.07 3.07 0 0 0-.795.798 2.924 2.924 0 0 0-.507 1.677v109.57c0 .786.311 1.539.864 2.094a2.944 2.944 0 0 0 2.086.867h103.197a2.955 2.955 0 0 0 2.95-2.96V15.105a2.955 2.955 0 0 0-2.95-2.95zM79.65 20.612v1.365c-.005.798.31 1.565.876 2.128.267.278.589.499.944.647.74.299 1.565.299 2.305 0a2.81 2.81 0 0 0 .944-.647 2.978 2.978 0 0 0 .91-2.128v-.926c.601.73.931 1.645.934 2.591a4.15 4.15 0 0 1-3.109 4.058 4.13 4.13 0 0 1-4.67-2.055 4.164 4.164 0 0 1 .866-5.045v.012zm-54.508-.07v1.435c-.004.798.311 1.565.876 2.128.267.278.589.499.945.647.366.15.757.23 1.152.232.395-.001.787-.08 1.152-.232a2.81 2.81 0 0 0 .945-.647 2.978 2.978 0 0 0 .91-2.128v-.81c.55.711.85 1.586.853 2.487a4.157 4.157 0 0 1-2 3.778 4.122 4.122 0 0 1-4.262 0 4.157 4.157 0 0 1-2-3.778 4.078 4.078 0 0 1 1.43-3.112z" fill="#003A5D" opacity=".2" style="mix-blend-mode:multiply"/>
    <path d="M5.292 9.253z" fill="#CAD3D6"/>
    <path d="M4.048 121.264a2.955 2.955 0 0 0 2.95 2.961h103.139a2.955 2.955 0 0 0 2.95-2.961v-88.97H4.046v88.97z" fill="#EFF2F3"/>
    <path d="M6.94 8.733a2.987 2.987 0 0 0-1.648.52 2.987 2.987 0 0 1 1.648-.509v-.011z" fill="#CAD3D6"/>
    <path d="M110.137 8.733H6.94a2.987 2.987 0 0 0-1.648.52 2.976 2.976 0 0 0-1.244 2.44v21.272h109.038V11.694a2.955 2.955 0 0 0-2.95-2.961zm-78.899 15.65a4.136 4.136 0 0 1-3.822-2.567 4.164 4.164 0 0 1 .902-4.526 4.124 4.124 0 0 1 4.511-.893 4.153 4.153 0 0 1 2.545 3.845 4.15 4.15 0 0 1-1.212 2.932 4.117 4.117 0 0 1-2.924 1.208zm54.6 0a4.136 4.136 0 0 1-3.83-2.559 4.164 4.164 0 0 1 .894-4.53 4.124 4.124 0 0 1 4.513-.898 4.153 4.153 0 0 1 2.548 3.846 4.133 4.133 0 0 1-4.113 4.14h-.012z" fill="#0099DA"/>
    <path fill="#CAD3D6" d="M25.65 52.061H12.32V38.667h13.33v10.051zM41.654 52.061H28.323V38.667H41.654v10.051zM57.657 52.061H44.338V38.667h13.319v10.051zM73.66 52.061H60.341V38.667H73.66v10.051zM89.675 52.061H76.344V38.667H89.675v10.051zM105.678 52.061h-13.33V38.667h13.33v10.051zM25.65 68.694H12.32V55.288h13.33V65.34zM41.654 68.694H28.323V55.288H41.654V65.34zM57.657 68.694H44.338V55.288h13.319V65.34zM73.66 68.694H60.341V55.288H73.66V65.34zM89.675 68.694H76.344V55.288H89.675V65.34zM105.678 68.694h-13.33V55.288h13.33V65.34zM25.65 85.327H12.32V71.92h13.33v10.051zM41.654 85.327H28.323V71.92H41.654v10.051zM57.657 85.327H44.338V71.92h13.319v10.051zM73.66 85.327H60.341V71.92H73.66v10.051zM89.675 85.327H76.344V71.92H89.675v10.051zM105.678 85.327h-13.33V71.92h13.33v10.051zM25.65 101.948H12.32V88.554h13.33v10.051zM41.654 101.948H28.323V88.554H41.654v10.051zM57.657 101.948H44.338V88.554h13.319v10.051zM73.66 101.948H60.341V88.554H73.66v10.051zM89.675 101.948H76.344V88.554H89.675v10.051zM105.678 101.948h-13.33V88.554h13.33v10.051zM25.65 118.58H12.32v-13.394h13.33v10.052zM41.654 118.58H28.323v-13.394H41.654v10.052zM57.657 118.58H44.338v-13.394h13.319v10.052zM73.66 118.58H60.341v-13.394H73.66v10.052z"/>
    <path fill="#50BFEE" d="M89.675 118.58H76.344v-13.394H89.675v10.052z"/>
    <path d="M31.538 21.583c-.396 0-.787-.078-1.152-.231a3.036 3.036 0 0 1-1.602-1.608 3.018 3.018 0 0 1-.23-1.157V3.007c0-.397.078-.79.23-1.156.148-.356.355-.684.61-.972.288-.27.62-.49.98-.648a2.985 2.985 0 0 1 2.304 0c.352.157.672.377.945.648.565.563.88 1.33.876 2.128v15.569a2.979 2.979 0 0 1-.876 2.128c-.273.271-.593.49-.945.648-.361.151-.749.23-1.14.231z" fill="#CBD3D7"/>
    <path d="M31.538 14.944a2.802 2.802 0 0 1-1.152-.243 3.144 3.144 0 0 1-.957-.636 3.47 3.47 0 0 1-.645-.96 3.018 3.018 0 0 1-.23-1.157v6.64c0 .397.078.79.23 1.156.307.724.88 1.3 1.602 1.608a3.042 3.042 0 0 0 2.304 0c.351-.157.671-.377.945-.648.564-.562.88-1.33.875-2.128v-6.64a2.979 2.979 0 0 1-1.82 2.765 2.802 2.802 0 0 1-1.152.243z" fill="#96A6AE"/>
    <path d="M86.045 21.583c-.395 0-.787-.078-1.152-.231a3.456 3.456 0 0 1-.956-.648 3.193 3.193 0 0 1-.645-.96 3.018 3.018 0 0 1-.23-1.157V3.007c0-.397.078-.79.23-1.156.155-.357.373-.683.645-.96.276-.272.595-.494.945-.66a2.985 2.985 0 0 1 2.304 0c.36.155.688.374.968.648.565.563.88 1.33.876 2.128v15.569a2.979 2.979 0 0 1-.876 2.128c-.274.271-.594.49-.945.648a2.986 2.986 0 0 1-1.164.231z" fill="#CBD3D7"/>
    <path d="M86.045 14.944a2.802 2.802 0 0 1-1.152-.243 3.144 3.144 0 0 1-.956-.636 3.193 3.193 0 0 1-.645-.96 3.018 3.018 0 0 1-.23-1.157v6.64c0 .397.078.79.23 1.156.155.357.373.682.645.96.28.268.604.487.956.648a3.042 3.042 0 0 0 2.305 0 3.19 3.19 0 0 0 .956-.648c.565-.562.88-1.33.876-2.128v-6.64a2.979 2.979 0 0 1-1.82 2.765 2.802 2.802 0 0 1-1.165.243z" fill="#96A6AE"/>
    <path fill="#023852" d="M81.806 114.139l-.623-.625-.622-.624-.633-.636-.623-.625.127-.127.138-.127.127-.14.127-.126.495.497.496.497.495.498.496.497 1.048-1.064 1.06-1.053 1.048-1.064 1.06-1.052.127.127.127.127.127.127.126.14-1.175 1.19-1.187 1.18-1.175 1.192z"/>
  </g>
</svg>
