<svg width="97" height="90" xmlns="http://www.w3.org/2000/svg">
  <g fill="none" fill-rule="evenodd">
    <g fill-rule="nonzero">
      <path d="M61.412 64.343v21.67a10.997 10.997 0 0 1-8.525-7.524 11.065 11.065 0 0 1 0-6.494 11.124 11.124 0 0 1 1.697-3.287 11.35 11.35 0 0 1 2.659-2.511c.206-.137.421-.275.637-.392.216-.118.432-.246.667-.363a11.065 11.065 0 0 1 2.855-.981l.01-.118z" fill="#FAFBFB"/>
      <path d="M49.993 62.715a1.413 1.413 0 0 1-.98 1.746l-4.69 1.393-4.718 1.383-5.2 1.53-5.199 1.52-7.651 2.237-7.642 2.257c-.361.106-.75.063-1.08-.118a1.462 1.462 0 0 1-.676-.844l-.137-.48-.138-.471-.686-2.306-.677-2.364 3.924-.225 3.924-.216 15.224-4.464 15.254-4.502.187.637.186.638.383 1.314.392 1.335z" fill="#D3DADD"/>
      <path d="M48.845 58.79l-15.234 4.503-15.244 4.464-3.924.216-3.924.225-1.648.089-1.648.088-2.472.137-2.472.137-.766-2.56-.745-2.56a1.403 1.403 0 0 1 .108-1.06c.176-.32.467-.562.814-.677l3.188-.98 3.188-.981 18.246-5.357 18.247-5.346c.353-.109.735-.07 1.059.108.324.178.564.478.667.834l.392 1.324.383 1.315.883 3.011.902 3.07z" fill="#EAEDEF"/>
      <path d="M50.63 59.674l-.706.206-.706.215-.186-.637-.187-.667-.882-2.943-.883-3.012.706-.206.706-.206a2.09 2.09 0 0 1 1.56.167c.473.267.824.706.981 1.226l.108.373.108.363.216.736.215.735.167.57.167.568a2.04 2.04 0 0 1-.177 1.56 1.962 1.962 0 0 1-1.206.952zM11.882 72.868l-.824.235-.824.245a1.471 1.471 0 0 1-1.138-.127 1.413 1.413 0 0 1-.716-.883l-.588-1.962-.58-1.962 1.649-.088 1.658-.128.686 2.335.677 2.335z" fill="#023852"/>
      <path d="M35.926 78.489h4.022a5.503 5.503 0 0 1-1.04.794c-.384.23-.796.408-1.226.53a5.415 5.415 0 0 1-6.73-3.669l-.863-2.943-.853-2.943 5.199-1.52 5.2-1.53.647 2.373.647 2.247h-5.003a3.306 3.306 0 0 0-3.325 3.335c.004.883.356 1.73.98 2.354.623.621 1.466.97 2.345.972z" fill="#FAFBFB"/>
      <path d="M52.867 78.41H35.926a3.325 3.325 0 0 1-2.354-.98 3.335 3.335 0 0 1 1.05-5.435c.41-.17.85-.257 1.294-.255h16.98a10.987 10.987 0 0 0-.362 4.904c.063.597.174 1.188.333 1.766z" fill="#D3DADD"/>
      <path d="M59.881 58.604l-.314.471-.343.461c-.5.654-.944 1.35-1.324 2.08a3.188 3.188 0 0 0-.295 2.129c.078.285.193.559.344.814a2.1 2.1 0 0 0 .628.716 13.847 13.847 0 0 0-1.305.755 4.267 4.267 0 0 1-1.05-1.942 4.385 4.385 0 0 1 .344-2.943c.418-.874.93-1.7 1.53-2.462l.314-.442.304-.441c.246-.386.39-.828.422-1.285a3.62 3.62 0 0 0-.177-1.472 3.11 3.11 0 0 0-.588-1.069 2.08 2.08 0 0 0-.873-.608 3.041 3.041 0 0 0-2.374 0 8.172 8.172 0 0 0-2.031 1.5l-.687.58c-.225.196-.47.382-.716.559l-.216-.736-.215-.736.45-.363.442-.382a9.525 9.525 0 0 1 2.433-1.707 4.434 4.434 0 0 1 3.365 0c.55.2 1.04.538 1.422.98a4.59 4.59 0 0 1 .922 1.62c.23.657.317 1.356.255 2.05a4.042 4.042 0 0 1-.667 1.873z" fill="#0099DA"/>
      <path d="M65.365 60.439v29.429h-1.609a2.306 2.306 0 0 1-1.658-.687 2.345 2.345 0 0 1-.686-1.658v-24.74c0-.622.247-1.218.686-1.658a2.306 2.306 0 0 1 1.658-.686h1.609z" fill="#D3DADD"/>
      <path fill="#C0CACE" style="mix-blend-mode:multiply" d="M49.287 60.34l-14.96 4.386-14.95 4.385-3.934.215-3.933.216h-.01l-.295.02-.294.02-1.344.068-1.363.079-.295.01-.294.019-.196-.697-.206-.686 1.648-.088 1.648-.089 3.944-.225 3.933-.216 15.225-4.464 15.234-4.473.187.638.186.637.04.118z"/>
      <path d="M37.986 75.173a1.874 1.874 0 0 1-1.874 1.874 1.874 1.874 0 1 1 0-3.738c1.031 0 1.869.833 1.874 1.864z" fill="#96A6AE"/>
    </g>
    <path d="M32.354 42.764a16.919 16.919 0 0 1-16.937-16.937v-4.573H49.29v4.573a16.922 16.922 0 0 1-16.935 16.937z" fill="#BAC6CD" fill-rule="nonzero"/>
    <path d="M38.918 21.99v13.354a7.072 7.072 0 0 0 1.913-1.102 6.983 6.983 0 0 0 2.596-5.442v-6.81h-4.509zM22.094 21.99v6.81a6.99 6.99 0 0 0 2.592 5.442c.192.155.393.299.6.432.206.134.42.257.638.368.221.113.532.213.764.302V21.99h-4.594z" fill="#023852" fill-rule="nonzero"/>
    <path d="M32.765 21.278h-6.158V35.32c.193.078.39.147.59.207a6.754 6.754 0 0 0 1.903.274h7.338c.22 0 .437-.01.651-.032.214-.021.424-.052.637-.092.213-.04.413-.091.614-.15.201-.06.398-.134.591-.207V21.278h-6.166z" fill="#023852" fill-rule="nonzero"/>
    <path d="M42.358 21.254v1.486a16.925 16.925 0 0 1-16.937 16.937 16.735 16.735 0 0 1-2.453-.18c-.266-.04-.532-.084-.795-.135a16.842 16.842 0 0 0 10.178 3.402A16.919 16.919 0 0 0 49.29 25.827v-4.573h-6.93z" fill="#FFF" fill-rule="nonzero" opacity=".3"/>
    <path d="M50.453 23.506H14.856a2.126 2.126 0 0 1-2.121-2.121v-3.026a2.126 2.126 0 0 1 2.121-2.119h35.597a2.119 2.119 0 0 1 1.498.623 2.112 2.112 0 0 1 .623 1.498v3.027c0 .282-.056.562-.167.822a2.138 2.138 0 0 1-1.13 1.13c-.26.11-.54.167-.824.166z" fill="#CED6DB" fill-rule="nonzero"/>
    <path fill="#CED6DB" fill-rule="nonzero" d="M48.696 16.941H11.541l.12.354.12.353H53.855l.105-.175.105-.178.104-.177.106-.177h-2.79zM11.781 17.648h42.074V19.694H11.78v-1.533z"/>
    <path d="M12.846 5.877h40.13a1.911 1.911 0 0 1 1.906 2.038l-.153 2.256-.152 2.257-.15 2.257-.152 2.256h-42.73l-.144-2.256-.157-2.257-.152-2.257-.151-2.256a1.911 1.911 0 0 1 1.905-2.038z" fill="#9DADB7" fill-rule="nonzero"/>
    <path d="M24.753 11.704a2.21 2.21 0 1 0-4.42.01 2.21 2.21 0 0 0 4.42-.01z" fill="#FFE700" fill-rule="nonzero"/>
    <path d="M16.895 11.296a.618.618 0 1 0 0 0z" fill="#0099DA" fill-rule="nonzero"/>
    <path d="M52.98 5.888H32.845v17.628H50.5c.551 0 1.08-.22 1.47-.61a2.061 2.061 0 0 0 .612-1.469l-.001-1.732h1.28v-2.039l.104-.177.106-.177.105-.176.105-.177.15-2.257.157-2.26.152-2.255.15-2.258a1.89 1.89 0 0 0-.51-1.432 1.911 1.911 0 0 0-1.394-.605l-.005-.004z" fill="#9DADB7" fill-rule="nonzero" style="mix-blend-mode:multiply"/>
    <path d="M32.994 26.33a3.365 3.365 0 0 0-2.386.988 3.401 3.401 0 0 0-.92 1.707 3.377 3.377 0 0 0 1.42 3.48 3.323 3.323 0 0 0 1.207.508 3.365 3.365 0 0 0 1.36 0 3.342 3.342 0 0 0 1.706-.92 3.417 3.417 0 0 0 .724-1.074c.085-.202.152-.413.197-.633a3.447 3.447 0 0 0 0-1.361 3.415 3.415 0 0 0-.508-1.207 3.407 3.407 0 0 0-1.486-1.223 3.342 3.342 0 0 0-1.314-.266" fill="#0099DA"/>
    <path d="M34.205 27.603a.889.889 0 0 0-.892.892.891.891 0 1 0 .892-.892" fill="#FFF"/>
    <g fill-rule="nonzero">
      <path d="M92.281 2.036h-28.38a2.682 2.682 0 0 0-2.683 2.683v28.38c0 1.482 1.201 2.683 2.682 2.683h28.381a2.682 2.682 0 0 0 2.683-2.682V4.719a2.682 2.682 0 0 0-2.683-2.683z" fill="#081935" opacity=".2" style="mix-blend-mode:multiply"/>
      <path d="M94.318 0H65.937a2.682 2.682 0 0 0-2.682 2.682v28.381a2.682 2.682 0 0 0 2.682 2.682h28.38c1.482 0 2.683-1.2 2.683-2.682V2.683C97 1.2 95.8 0 94.318 0z" fill="#FFE700"/>
      <path d="M79.9 21.04h-1.497v2.629H74.78v-2.63h-5.416v-2.694l5.648-8.259h3.391v8.213H79.9v2.74zm-5.12-2.741v-1.58c0-.297.01-.698.033-1.203.021-.504.038-.77.05-.794h-.102c-.21.477-.449.923-.715 1.338l-1.505 2.239h2.239zM86.07 9.89c1.431 0 2.544.288 3.34.864.796.576 1.194 1.393 1.194 2.453 0 .718-.187 1.348-.562 1.89-.375.542-.968 1.014-1.78 1.417 1.004.57 1.712 1.138 2.124 1.705.412.567.618 1.178.618 1.835 0 1.207-.437 2.143-1.31 2.805-.874.663-2.094.995-3.66.995-1.599 0-2.822-.324-3.67-.971-.85-.648-1.273-1.578-1.273-2.792 0-.787.189-1.457.566-2.012.378-.554 1.013-1.057 1.905-1.51-.719-.482-1.243-1.001-1.575-1.555a3.492 3.492 0 0 1-.497-1.826c0-1.04.406-1.85 1.217-2.43.812-.579 1.933-.868 3.363-.868zm-1.616 10.052c0 .384.136.692.409.925.272.232.65.348 1.133.348 1.09 0 1.635-.4 1.635-1.198 0-.304-.12-.603-.358-.897-.238-.294-.664-.624-1.277-.99-.551.292-.946.584-1.185.879-.238.294-.357.605-.357.933zm1.598-7.404c-.316 0-.582.091-.8.274a.886.886 0 0 0-.324.71c0 .533.362 1.004 1.087 1.413.44-.254.74-.487.9-.697.162-.21.242-.45.242-.716a.882.882 0 0 0-.325-.715 1.184 1.184 0 0 0-.78-.27z" fill="#023852"/>
    </g>
  </g>
</svg>
