<svg width="115" height="90" xmlns="http://www.w3.org/2000/svg" xmlns:xlink="http://www.w3.org/1999/xlink">
  <defs>
    <path id="a" d="M0 .192h5.033v5.396H0z"/>
  </defs>
  <g fill="none" fill-rule="evenodd">
    <path d="M41.319 48.84v19.01H36.96c-1.249-1.542-2.682-4.493-4.702-7.141-2.02-2.649-4.635-5.03-8.23-5.365a1.125 1.125 0 0 1-.697-.36 1.163 1.163 0 0 1-.276-.738v-4.291a1.115 1.115 0 0 1 1.106-1.106H41.32v-.009z" fill="#96A6AE"/>
    <path d="M28.72 72.451v4.25a.772.772 0 0 1-.226.553.84.84 0 0 1-.553.235H3.265a.63.63 0 0 1-.587-.637v-4.4a12.987 12.987 0 0 1 3.923-9.363l.268-.268.285-.252a13.402 13.402 0 0 1 4.552-2.556 12.97 12.97 0 0 1 3.973-.62 13.47 13.47 0 0 1 2.036.159c.66.1 1.31.256 1.945.46.62.2 1.225.443 1.81.73.581.29 1.142.621 1.677.99.31.217.62.452.913.703.294.245.574.505.839.78a13.138 13.138 0 0 1 2.79 4.19 12.939 12.939 0 0 1 1.032 5.046" fill="#E2E6E8"/>
    <path d="M14.916 63.09l.277-.27.293-.25a12.893 12.893 0 0 1 2.037-1.442 13.88 13.88 0 0 1 2.305-1.031c-.66-.22-1.335-.388-2.02-.503a12.777 12.777 0 0 0-2.137-.176 12.94 12.94 0 0 0-3.973.62A13.68 13.68 0 0 0 9.3 61.07c-.751.418-1.461.905-2.12 1.459l-.285.251-.277.268a12.983 12.983 0 0 0-3.94 9.405v4.4a.629.629 0 0 0 .621.637h7.694v-5.03a12.985 12.985 0 0 1 3.923-9.37" fill="#FFF"/>
    <path d="M27.304 77.489c.035 6.397-5.124 11.612-11.521 11.645a11.588 11.588 0 0 1-5.695-1.462l.218-.183.226-.185-2.699-3.219-2.69-3.21-.226.194-.227.191c-.21-.597-.37-1.21-.477-1.834a12.392 12.392 0 0 1-.16-1.937h23.251z" fill="#F2F2F2"/>
    <path d="M4.623 81.311l-.838.713-.838.712a.679.679 0 0 0-.243.461.724.724 0 0 0 .159.495l.21.251.217.25 1.794 2.147 1.785 2.171.252.293.243.294a.702.702 0 0 0 .46.234c.181.019.36-.04.495-.159l.839-.713.838-.704a.67.67 0 0 0 .094-.944c-.004-.002-.007-.007-.01-.01L7.817 84.11l-2.238-2.716a.687.687 0 0 0-.956-.084" fill="#023852"/>
    <g transform="translate(1.836 84.027)">
      <mask id="b" fill="#fff">
        <use xlink:href="#a"/>
      </mask>
      <path d="M5.033 4.484l-.444.368-.444.378a1.492 1.492 0 0 1-2.104-.165c-.006-.005-.01-.013-.017-.02l-.838-.989-.838-.989A1.517 1.517 0 0 1 .532.947L.976.569 1.43.192l1.794 2.145 1.81 2.147z" fill="#194D6D" mask="url(#b)"/>
    </g>
    <path d="M27.304 77.489c0 6.416-5.2 11.617-11.617 11.617h-.008c-.424.001-.845-.021-1.266-.067-.425-.05-.847-.123-1.266-.217h.135a4.687 4.687 0 0 0 3.646-5.34 4.77 4.77 0 0 0-4.862-4.317H4.18c0-.277-.075-.553-.092-.838-.017-.285 0-.562 0-.838h23.217z" fill="#C0CACE"/>
    <path d="M23.139 61.748a13.727 13.727 0 0 0-3.478-1.735 12.376 12.376 0 0 0-1.945-.46 13.47 13.47 0 0 0-2.037-.16 12.94 12.94 0 0 0-3.973.62A13.62 13.62 0 0 0 9.3 61.07c-.751.418-1.461.906-2.12 1.459a21.39 21.39 0 0 0 2.975-3.546 8.304 8.304 0 0 0 1.551-4.267v-3.083a2.182 2.182 0 0 1 .629-1.527 2.145 2.145 0 0 1 1.525-.636h9.22v5.163h-3.353v.704a11.172 11.172 0 0 0 1.333 3.496 13.186 13.186 0 0 0 2.079 2.916" fill="#CAD3D6"/>
    <path fill="#FFF" d="M70.931 74.195H67.251V62.972H70.931v5.607z"/>
    <path fill="#FFF" d="M67.88 73.013l.922 1.592.922 1.593-6.99 3.453-6.99 3.454-.922-1.593-.922-1.593 6.99-3.453z"/>
    <path d="M61.217 48.471h-.93a8.138 8.138 0 0 0 .87 16.252l13.965-.209 13.972-.218-.595-8.088-.595-8.097-13.344.168-13.343.192z" fill="#FAFBFB"/>
    <path d="M94.325 51.313a8.156 8.156 0 1 1-12.939 9.934 8.156 8.156 0 0 1 12.939-9.934" fill="#023852"/>
    <path d="M92.732 56.744a4.55 4.55 0 1 1-8.996-1.38 4.55 4.55 0 0 1 8.996 1.38" fill="#0099DA"/>
    <path d="M89.27 53.416a.838.838 0 1 1-.006.004l.006-.004" fill="#FFF"/>
    <path d="M73.295 75.1a4.25 4.25 0 1 1-8.5-.018 4.25 4.25 0 0 1 8.5.018M48.594 73.173V89.85a8.381 8.381 0 1 0 0-16.678" fill="#023852"/>
    <path fill="#C0CACE" d="M70.931 67.766H67.251V64.64H70.931v1.567z"/>
    <g>
      <path d="M18.945 37.272A14.404 14.404 0 0 1 4.526 22.853v-3.894h28.837v3.894a14.407 14.407 0 0 1-14.418 14.419z" fill="#BAC6CD" fill-rule="nonzero"/>
      <path d="M24.534 19.586v11.369a6.02 6.02 0 0 0 1.628-.938 5.945 5.945 0 0 0 2.21-4.633v-5.798h-3.838zM10.21 19.586v5.797a5.95 5.95 0 0 0 3.261 5.315c.188.096.453.181.65.257V19.586h-3.91z" fill="#023852" fill-rule="nonzero"/>
      <path d="M19.295 18.98h-5.243v11.955a5.826 5.826 0 0 0 1.026.303 5.973 5.973 0 0 0 1.097.106h6.247a5.57 5.57 0 0 0 1.097-.106c.18-.034.351-.077.523-.127.171-.05.338-.115.503-.176V18.98h-5.25z" fill="#023852" fill-rule="nonzero"/>
      <path d="M27.462 18.96v1.265a14.409 14.409 0 0 1-14.42 14.419 14.248 14.248 0 0 1-2.764-.268 14.338 14.338 0 0 0 8.665 2.896 14.404 14.404 0 0 0 14.42-14.419v-3.894h-5.9z" fill="#FFF" fill-rule="nonzero" opacity=".3"/>
      <path d="M34.354 20.877H4.048a1.81 1.81 0 0 1-1.806-1.806v-2.576a1.81 1.81 0 0 1 1.806-1.804h30.306a1.804 1.804 0 0 1 1.664 1.105c.094.222.142.46.142.701v2.576c0 .24-.048.48-.142.7a1.82 1.82 0 0 1-.962.963c-.222.094-.461.142-.702.14z" fill="#CED6DB" fill-rule="nonzero"/>
      <path fill="#CED6DB" fill-rule="nonzero" d="M32.858 15.288H1.227l.102.301.102.3H37.249l.09-.149.09-.15.089-.151.09-.151h-2.375zM1.43 15.89h35.82v1.742H1.43v-1.306z"/>
      <path d="M2.338 5.868h34.165a1.627 1.627 0 0 1 1.623 1.735l-.132 1.921-.13 1.921-.127 1.922-.13 1.92H1.23l-.123-1.92-.134-1.922-.129-1.92-.129-1.922a1.627 1.627 0 0 1 1.623-1.735z" fill="#9DADB7" fill-rule="nonzero"/>
      <path d="M12.474 10.829a1.882 1.882 0 1 0-3.763.01 1.882 1.882 0 0 0 3.763-.01z" fill="#FFE700" fill-rule="nonzero"/>
      <path d="M5.784 10.482a.526.526 0 1 0 0 0z" fill="#0099DA" fill-rule="nonzero"/>
      <path d="M36.506 5.878H19.363v15.007h15.031a1.77 1.77 0 0 0 1.631-1.082c.093-.217.14-.451.14-.688V17.64h1.09v-1.735l.09-.15.09-.152.088-.15.09-.15.128-1.922.134-1.923.129-1.92.128-1.923a1.608 1.608 0 0 0-.434-1.219 1.627 1.627 0 0 0-1.188-.515l-.004-.003z" fill="#9DADB7" fill-rule="nonzero" style="mix-blend-mode:multiply"/>
      <path d="M19.49 23.28a2.865 2.865 0 0 0-2.383 1.267 2.896 2.896 0 0 0-.432 1.028 2.875 2.875 0 1 0 2.816-2.295" fill="#0099DA"/>
      <path d="M20.521 24.365a.757.757 0 0 0-.744.912.773.773 0 0 0 .207.384.754.754 0 0 0 .69.207.751.751 0 0 0 .477-.32.774.774 0 0 0 .13-.424.776.776 0 0 0-.13-.424.794.794 0 0 0-.206-.205.75.75 0 0 0-.424-.13" fill="#FFF"/>
    </g>
    <g fill-rule="nonzero">
      <path d="M95.377 19.495v18.75a9.515 9.515 0 0 1-7.376-6.51 9.574 9.574 0 0 1 0-5.619 9.625 9.625 0 0 1 1.469-2.844 9.82 9.82 0 0 1 2.3-2.173c.178-.119.365-.238.552-.34.186-.101.373-.212.577-.314a9.574 9.574 0 0 1 2.47-.848l.008-.102z" fill="#FAFBFB"/>
      <path d="M85.497 18.086a1.222 1.222 0 0 1-.848 1.51l-4.057 1.206-4.083 1.197-4.499 1.324-4.498 1.315-6.62 1.936-6.613 1.952a1.222 1.222 0 0 1-.933-.102 1.265 1.265 0 0 1-.586-.73l-.119-.416-.119-.407-.594-1.995-.586-2.046 3.396-.195 3.395-.187 13.173-3.861 13.198-3.896.162.551.16.552.332 1.137.34 1.155z" fill="#D3DADD"/>
      <path d="M84.504 14.69l-13.181 3.897-13.19 3.861-3.395.187-3.396.195-1.426.077-1.426.076-2.138.12-2.14.118-.661-2.215-.646-2.216a1.214 1.214 0 0 1 .798-1.502l2.759-.849 2.758-.849 15.788-4.634L80.795 6.33a1.18 1.18 0 0 1 .917.093c.28.155.488.414.577.722l.34 1.146.33 1.137.765 2.606.78 2.657z" fill="#EAEDEF"/>
      <path d="M86.05 15.455l-.612.178-.611.186-.161-.551-.162-.577-.763-2.547-.764-2.606.61-.178.612-.178a1.808 1.808 0 0 1 1.35.144c.408.232.712.612.848 1.061l.094.323.093.314.187.636.186.637.145.492.144.493c.131.452.076.938-.153 1.35a1.698 1.698 0 0 1-1.044.823zM52.522 26.87l-.713.204-.713.213c-.33.097-.685.057-.984-.11a1.222 1.222 0 0 1-.62-.765l-.51-1.697-.5-1.698 1.426-.076 1.434-.11.595 2.02.585 2.02z" fill="#023852"/>
      <path d="M73.326 31.734h3.48a4.762 4.762 0 0 1-.9.688 4.405 4.405 0 0 1-1.06.458 4.685 4.685 0 0 1-5.823-3.174l-.747-2.547-.739-2.546 4.499-1.316 4.498-1.324.56 2.054.56 1.944h-4.328a2.86 2.86 0 0 0-2.877 2.886c.003.764.308 1.496.848 2.037.539.537 1.268.84 2.029.84z" fill="#FAFBFB"/>
      <path d="M87.984 31.666H73.326a2.877 2.877 0 0 1-2.037-.848 2.886 2.886 0 0 1 .908-4.702 2.895 2.895 0 0 1 1.12-.221H88.01a9.507 9.507 0 0 0-.314 4.243 9.49 9.49 0 0 0 .288 1.528z" fill="#D3DADD"/>
      <path d="M94.053 14.53l-.271.407-.297.399a12.282 12.282 0 0 0-1.146 1.8 2.759 2.759 0 0 0-.255 1.841c.067.247.167.484.297.704.131.246.317.458.543.62a11.981 11.981 0 0 0-1.129.654 3.692 3.692 0 0 1-.908-1.68 3.794 3.794 0 0 1 .297-2.547c.362-.757.806-1.471 1.324-2.13l.272-.383.263-.382c.213-.334.338-.716.365-1.112a3.132 3.132 0 0 0-.153-1.273 2.69 2.69 0 0 0-.509-.925 1.8 1.8 0 0 0-.755-.526 2.631 2.631 0 0 0-2.054 0 7.07 7.07 0 0 0-1.757 1.298l-.594.501a8.65 8.65 0 0 1-.62.484l-.187-.637-.187-.636.39-.314.383-.331c.62-.6 1.33-1.098 2.105-1.477a3.837 3.837 0 0 1 2.911 0c.476.174.9.466 1.23.849.36.407.631.884.799 1.4.198.57.274 1.174.22 1.774a3.497 3.497 0 0 1-.577 1.621z" fill="#0099DA"/>
      <path d="M98.798 16.117V41.58h-1.392a1.995 1.995 0 0 1-1.435-.594 2.029 2.029 0 0 1-.594-1.434V18.145c0-.538.214-1.054.594-1.434a1.995 1.995 0 0 1 1.435-.594h1.392z" fill="#D3DADD"/>
      <path fill="#C0CACE" style="mix-blend-mode:multiply" d="M84.886 16.032l-12.944 3.794-12.935 3.794-3.404.187-3.403.186h-.009l-.254.017-.255.017-1.163.06-1.18.068-.254.008-.255.017-.17-.603-.178-.594 1.426-.076 1.426-.077 3.412-.195 3.404-.187 13.173-3.861 13.181-3.87.162.55.16.552.035.102z"/>
      <path d="M75.108 28.865c0 .896-.725 1.621-1.62 1.621a1.621 1.621 0 1 1 0-3.233c.891 0 1.616.72 1.62 1.612z" fill="#96A6AE"/>
    </g>
    <g fill-rule="nonzero">
      <path d="M110.281 2.036h-28.38a2.682 2.682 0 0 0-2.683 2.683v28.38c0 1.482 1.201 2.683 2.682 2.683h28.381a2.682 2.682 0 0 0 2.683-2.682V4.719a2.682 2.682 0 0 0-2.683-2.683z" fill="#081935" opacity=".2" style="mix-blend-mode:multiply"/>
      <path d="M112.318 0H83.937a2.682 2.682 0 0 0-2.682 2.682v28.381a2.682 2.682 0 0 0 2.682 2.682h28.38c1.482 0 2.683-1.2 2.683-2.682V2.683C115 1.2 113.8 0 112.318 0z" fill="#FFE700"/>
      <path d="M108.89 17.014a6.478 6.478 0 0 1-.741 3.055 5.634 5.634 0 0 1-2.086 2.235 5.587 5.587 0 0 1-2.969.82c-1.943 0-3.631-.855-5.063-2.566-.733.78-1.516 1.385-2.348 1.816-.832.43-1.65.646-2.453.646-1.734 0-3.146-.562-4.234-1.685s-1.632-2.61-1.632-4.46c0-1.77.553-3.23 1.658-4.383 1.106-1.152 2.509-1.728 4.208-1.728 2.049 0 3.695.843 4.94 2.531.688-.768 1.424-1.37 2.21-1.807.785-.436 1.69-.655 2.714-.655 1.735 0 3.134.565 4.2 1.694 1.064 1.13 1.597 2.625 1.597 4.487zM93.44 18.62c.744 0 1.472-.582 2.182-1.746-.733-1.164-1.473-1.746-2.217-1.746-.501 0-.9.17-1.196.507-.297.337-.446.762-.446 1.274 0 .524.158.94.472 1.249.314.308.716.462 1.204.462zm9.41-3.387c-.733 0-1.496.57-2.287 1.711.36.524.748.96 1.16 1.31.414.349.801.523 1.162.523.489 0 .879-.18 1.17-.54.29-.362.436-.792.436-1.293 0-.489-.151-.896-.454-1.222-.302-.326-.698-.489-1.187-.489z" fill="#023852"/>
    </g>
  </g>
</svg>
