<svg width="440" height="330" xmlns="http://www.w3.org/2000/svg"><g transform="translate(70 15)" fill-rule="nonzero" fill="none"><circle fill="#0099DA" cx="150" cy="150" r="150"/><path d="M73.037 151.025a10.975 10.975 0 00-8.148 7.123c-1.457 3.786-1.498 8.547-.124 14.284 2.84 11.926 8.795 16.803 17.865 14.63a28.889 28.889 0 007.691-3.037 85.927 85.927 0 007.099-4.605l3.37 14.148a44.111 44.111 0 01-16.716 7.667c-9.341 2.238-17.16 1.238-23.457-3-6.296-4.24-10.658-11.482-13.086-21.729a38.494 38.494 0 01-.408-17.765 26.543 26.543 0 017.741-13.692 32.457 32.457 0 0115.062-7.74 45.272 45.272 0 0120.197-.272l-1.975 14.395a58.136 58.136 0 00-7.506-1.074 24.691 24.691 0 00-7.605.667zM139.222 187.123l-4.654-5.642-.346.075a19.296 19.296 0 01-5.469 7.308 23.148 23.148 0 01-8.642 3.704c-4.518 1.078-8.4.572-11.642-1.519-3.243-2.09-5.453-5.592-6.63-10.506-1.226-5.136-.358-9.35 2.605-12.642s7.782-5.926 14.457-7.901l7.939-2.173-.161-.679c-.938-3.95-3.358-5.46-7.26-4.53-3.505.822-7.67 3.07-12.493 6.74l-7.407-9.778c4.938-4.222 11.654-7.35 20.148-9.382 6.164-1.465 11.292-1.079 15.382 1.16s6.799 6.099 8.124 11.58l7.518 31.482-11.469 2.703zm-14.815-7.913a7.679 7.679 0 004.692-3.136 6.47 6.47 0 00.95-5.47l-.889-3.703-3.703 1.087c-5.408 1.49-7.655 4.144-6.741 7.963.626 2.921 2.502 4.008 5.63 3.259h.061zM175.84 126.753a24.42 24.42 0 014.185-.642H181l2.247 16.05a24.691 24.691 0 00-5.753.827c-3.622.823-6.05 2.275-7.284 4.358a9.938 9.938 0 00-.753 7.728l5.63 23.593-16.568 3.963-11.457-48.062 12.345-2.938 4.408 7.049.802-.198a17.21 17.21 0 014.309-7.543 14.26 14.26 0 016.914-4.185zM220.309 168.654c-8 1.91-14.712 1.268-20.136-1.926-5.424-3.193-9.082-8.716-10.975-16.568-1.926-8.107-1.363-14.814 1.69-20.123 3.054-5.309 8.384-8.872 15.989-10.691 7.234-1.729 13.267-1.177 18.098 1.654 4.832 2.831 8.1 7.77 9.803 14.815l1.753 7.407-29.63 7.074a8.432 8.432 0 004.457 5.605 11.802 11.802 0 008.099.482 37.444 37.444 0 007.84-2.741 40.667 40.667 0 007.259-4.716l2.851 11.901a30.235 30.235 0 01-7.407 4.68 56.543 56.543 0 01-9.691 3.147zM210.16 130.47a7.111 7.111 0 00-4.456 3.012 8.963 8.963 0 00-.926 6.334l14.234-3.395a8.457 8.457 0 00-3.296-5.087 6.716 6.716 0 00-5.556-.864zM239.123 118.988l-1.753.42-1.568-6.815-2.246.543-.346-1.457 6.173-1.494.345 1.457-2.234.543zM246.136 117.284l-3.531-6c.383 1.309.63 2.185.728 2.617l.926 3.852-1.568.37-1.975-8.271 2.383-.568 3.469 5.852.568-6.815 2.383-.568 1.962 8.296-1.641.395-.926-3.913c0-.185-.1-.395-.149-.642-.049-.247-.185-.889-.382-1.938l-.593 6.975-1.654.358z" fill="#FFF"/></g></svg>