<svg data-name="Layer 1" xmlns="http://www.w3.org/2000/svg" viewBox="0 0 440 330"><path d="M398.27 168.62a7 7 0 00-2.18-1.48 7 7 0 00-2.68-.54h-33.05V40.67a11.32 11.32 0 00-3.31-8 11.33 11.33 0 00-3.6-2.43 11.21 11.21 0 00-4.41-.9H41.32a11.38 11.38 0 00-10.43 6.93 11.39 11.39 0 00-.89 4.4v183.81a11.28 11.28 0 003.32 8 11.11 11.11 0 003.6 2.43 11.3 11.3 0 004.4.89H129v49.72l12.41-12.43 12.41-12.43 12.41-12.43 12.41-12.43h45.49V285a6.77 6.77 0 00.54 2.67 6.86 6.86 0 001.47 2.19 6.76 6.76 0 002.18 1.47 6.86 6.86 0 002.68.54h103.37l7.53 7.54 7.52 7.54 7.53 7.54 7.53 7.54v-30.19h28.93a6.86 6.86 0 002.68-.54 6.76 6.76 0 002.18-1.47 6.86 6.86 0 001.47-2.19 6.77 6.77 0 00.54-2.67V173.48a6.84 6.84 0 00-2-4.86z" opacity=".3" fill="#023852"/><path d="M240.76 157.27h162.37a6.84 6.84 0 014.86 2 7.09 7.09 0 011.47 2.19 6.82 6.82 0 01.54 2.68v111.49a6.82 6.82 0 01-.54 2.68 7.09 7.09 0 01-1.46 2.19 6.84 6.84 0 01-4.86 2H374.2v30.16l-7.53-7.54-7.53-7.54-7.52-7.54-7.53-7.54H240.76a6.77 6.77 0 01-2.67-.54 6.86 6.86 0 01-2.19-1.47 7.09 7.09 0 01-1.47-2.19 6.82 6.82 0 01-.54-2.68V164.15a6.82 6.82 0 01.54-2.68 7.09 7.09 0 011.47-2.19 6.86 6.86 0 012.19-1.47 6.77 6.77 0 012.67-.54z" fill="#023852"/><path fill="#000d2e" d="M342.03 225.87l-26.97 11.79-26.98 11.79-26.97 11.79-26.98 11.79v-46.95l26.98-.05 26.97-.06 26.98-.05 26.97-.05z"/><path d="M358.76 20H51a11.33 11.33 0 00-11.28 11.34v183.81a11.39 11.39 0 00.89 4.41 11.26 11.26 0 002.39 3.61 11.44 11.44 0 003.6 2.43 11.3 11.3 0 004.4.89h87.72v49.72l12.41-12.43 12.41-12.43L176 238.92l12.41-12.43h170.35a11.39 11.39 0 004.41-.89 11.67 11.67 0 003.6-2.43 11.4 11.4 0 002.42-3.61 11.21 11.21 0 00.89-4.41V31.34a11.13 11.13 0 00-.89-4.41A11.29 11.29 0 00358.76 20z" fill="#0099da"/><path d="M211.91 154.29l-4.39 4.39-4.38 4.39-4.39 4.39-4.39 4.4-9.47-9.49-9.48-9.49-9.47-9.49-9.48-9.49 4.39-4.39 4.38-4.4 4.39-4.39 4.39-4.39 5.09 5.09 5.09 5.1 5.08 5.1 5.09 5.09 13.82-13.83L222 109.05l13.8-13.83 13.81-13.84 4.39 4.4 4.39 4.39 4.38 4.39 4.39 4.44-13.81 13.84-13.82 13.83-13.81 13.83z" fill="#0082ca"/><path d="M211.55 144.94l-4.39 4.39-4.38 4.4-4.39 4.39-4.39 4.39-9.47-9.51-9.48-9.49-9.47-9.51-9.48-9.49 4.39-4.39 4.39-4.39 4.38-4.4 4.39-4.39 5.09 5.1 5.09 5.09 5.09 5.1 5.09 5.1 13.81-13.83 13.81-13.8 13.81-13.83L249.25 72l4.39 4.39 4.36 4.43 4.38 4.39 4.39 4.4L253 103.44l-13.82 13.83-13.81 13.84z" fill="#fff"/></svg>