<svg width="440" height="330" xmlns="http://www.w3.org/2000/svg"><defs><linearGradient x1="35.154%" y1="85.468%" x2="64.852%" y2="14.538%" id="a"><stop stop-color="#FFF" stop-opacity="0" offset="0%"/><stop stop-color="#96A6AE" offset="100%"/></linearGradient><linearGradient x1="-32.752%" y1="131.872%" x2="137.349%" y2="103.118%" id="b"><stop stop-color="#FFF" stop-opacity="0" offset="0%"/><stop stop-color="#96A6AE" offset="100%"/></linearGradient><linearGradient x1="-43.443%" y1="32.184%" x2="46.162%" y2="-39.113%" id="c"><stop stop-color="#FFF" stop-opacity="0" offset="0%"/><stop stop-color="#96A6AE" offset="100%"/></linearGradient><linearGradient x1="12.088%" y1="53.464%" x2="76.256%" y2="47.678%" id="d"><stop stop-color="#FFF" stop-opacity="0" offset="8%"/><stop stop-color="#96A6AE" offset="100%"/></linearGradient></defs><g fill-rule="nonzero" fill="none"><path fill="#B6C2C7" d="M116.572 244.642L256.505 104.71l25.684 25.684-139.933 139.932z"/><path d="M140.238 238.979l107.966-107.967a1.18 1.18 0 011.67 0l6.389 6.39c.46.46.46 1.208 0 1.668L148.296 247.037a1.18 1.18 0 01-1.669 0l-6.39-6.39a1.18 1.18 0 010-1.668z" fill="#96A6AE"/><path fill="url(#a)" style="mix-blend-mode:multiply" transform="rotate(45 169.617 215.518)" d="M152.646 72.59h36.368v86.86h-36.368z"/><path fill="url(#b)" style="mix-blend-mode:multiply" transform="rotate(45 129.132 256.017)" d="M112.161 145.034h36.368v22.972h-36.368z"/><path fill="url(#c)" style="mix-blend-mode:multiply" transform="rotate(-135 120.322 208.338)" d="M60.925 182.78h36.368v50.111H60.925z"/><path d="M315.738 107.938l-25.341-6.737a4.098 4.098 0 01-2.897-2.896l-6.737-25.353a4.087 4.087 0 011.055-3.953l35.1-35.21a1.123 1.123 0 00-.472-1.865 53.805 53.805 0 10-10.319 105.544c20.705-1.46 38.602-15.517 46.237-34.807a50.762 50.762 0 002.717-28.733 1.123 1.123 0 00-1.875-.55l-33.504 33.494a4.143 4.143 0 01-3.964 1.066zM108.906 239.991a38.894 38.894 0 1038.883 38.883c-.006-21.472-17.41-38.876-38.883-38.883zm24.522 50.055a7.972 7.972 0 00-10.475 11.823 26.341 26.341 0 01-6.737 2.93 7.972 7.972 0 00-15.72-.448 26.566 26.566 0 01-6.4-3.167 7.86 7.86 0 001.36-4.49c0-4.418-3.578-8-7.995-8.007a8.14 8.14 0 00-3.054.607 26.015 26.015 0 01-1.123-3.604 7.938 7.938 0 00.157-13.99c.48-1.7 1.126-3.347 1.931-4.918a7.95 7.95 0 009.623-10.454 25.746 25.746 0 015.838-2.75 7.96 7.96 0 0015.214-.394 27.093 27.093 0 015.918 2.347 7.86 7.86 0 00-.887 3.582 8.006 8.006 0 008.005 8.005 7.86 7.86 0 003.548-.864 26.285 26.285 0 012.089 5.019 7.994 7.994 0 00.168 14.82 25.96 25.96 0 01-1.46 3.93v.023zM143.298 93.836l1.808-1.808a1.673 1.673 0 00.348-1.841l-5.985-13.912-42.97-43.24a1.662 1.662 0 00-2.358 0L71.91 55.257a1.662 1.662 0 000 2.358l43.116 43.15 13.664 6.164a1.662 1.662 0 001.886-.337l1.673-1.673 104.489 104.488 11.037-11.048L143.298 93.836z" fill="#CDD4D8"/><path fill="url(#d)" style="mix-blend-mode:multiply" transform="rotate(45 140.383 244.861)" d="M101.697 139.037h79.798v12.654h-79.798z"/><path d="M270.422 210.641a8.915 8.915 0 01-8.983-8.915 9.106 9.106 0 01.393-2.492l-23.87 23.915a9.106 9.106 0 012.492-.393 8.915 8.915 0 017.5 13.732c.214-.117.416-.253.607-.404l27.07-27.07s.068-.124.113-.18a8.836 8.836 0 01-5.322 1.807z" fill="#003A5D"/><path d="M280.18 204.85l84.555 84.555a5.895 5.895 0 010 8.337l-27.63 27.629a5.895 5.895 0 01-8.336 0l-84.555-84.555a1.404 1.404 0 010-1.985l33.98-33.98a1.404 1.404 0 011.986 0zM261.97 182.644l7.987 7.987a.96.96 0 010 1.358l-38.3 38.3a.96.96 0 01-1.358 0l-7.987-7.988a.96.96 0 010-1.357l38.3-38.3a.96.96 0 011.358 0z" fill="#023852"/></g></svg>