<svg width="440" height="330" xmlns="http://www.w3.org/2000/svg"><g fill-rule="nonzero" fill="none"><path d="M128 322.677a83.429 83.429 0 01-83.441-83.441v-22.522h166.882v22.522A83.441 83.441 0 01128 322.677z" fill="#0099DA"/><path d="M160.373 220.33v65.838a35.217 35.217 0 006.509-3.305 34.571 34.571 0 0013.006-15.515 34.25 34.25 0 002.708-13.429v-33.54h-22.223v-.05zM77.453 220.33v33.54a34.472 34.472 0 002.708 13.428A34.584 34.584 0 0099.69 286.13v-65.838H77.453v.037z" fill="#141212"/><path d="M130.025 220.33H99.689v65.838a34.969 34.969 0 005.938 1.664c2.085.39 4.202.586 6.323.584h36.162a34.312 34.312 0 006.323-.584 35.292 35.292 0 005.938-1.702v-65.838h-30.348v.037z" fill="#080707"/><path d="M130.025 235.72c-11.031-.01-20.534 7.774-22.694 18.592-2.16 10.818 3.624 21.654 13.814 25.88 10.19 4.227 21.946.665 28.076-8.506 6.13-9.17 4.928-21.395-2.873-29.195a22.981 22.981 0 00-16.323-6.77zm0 41.156a18.05 18.05 0 1112.782-5.292 18.012 18.012 0 01-12.782 5.354v-.062z" fill="#1B181A"/><path d="M130.025 240.751a18.05 18.05 0 1012.782 5.292 17.963 17.963 0 00-12.782-5.292zm0 28.36a10.286 10.286 0 11.026-20.57 10.286 10.286 0 01-.026 20.57z" fill="#121011"/><path d="M130.025 248.515a10.286 10.286 0 107.292 3.02 10.212 10.212 0 00-7.292-3.02zm-3.478 16.547a1.74 1.74 0 01-1.243-.51 1.776 1.776 0 01-.509-1.241 1.74 1.74 0 01.51-1.243 1.74 1.74 0 012.484 0c.329.33.512.777.51 1.243-.002.464-.184.91-.51 1.242a1.74 1.74 0 01-1.242.51z" fill="#1B181A"/><path d="M126.547 261.584a1.69 1.69 0 00-1.243.51 1.74 1.74 0 00-.509 1.241c0 .465.184.911.51 1.243a1.74 1.74 0 002.484 0c.326-.332.508-.778.51-1.243a1.74 1.74 0 00-.51-1.242 1.69 1.69 0 00-1.242-.51z" fill="#A39C95"/><path d="M177.28 216.714v7.317a83.429 83.429 0 01-83.441 83.441c-2.733 0-5.437-.132-8.112-.397a84.508 84.508 0 01-7.888-1.156A83.081 83.081 0 00128 322.677a83.441 83.441 0 0083.441-83.441v-22.522H177.28z" fill="#FFF" opacity=".2"/><path d="M217.168 227.807H41.788c-5.777-.027-10.446-4.719-10.446-10.496v-14.907c.006-5.77 4.678-10.446 10.447-10.46h175.379c5.774.007 10.452 4.686 10.46 10.46v14.907c-.021 5.768-4.692 10.439-10.46 10.46v.036z" fill="#003A5D"/><path fill="#1F3048" d="M26.646 198.95h207.292l1.03-1.751 1.032-1.74H24.161l1.243 1.74z"/><path fill="#125275" d="M26.646 198.95h207.292v10.075H26.646v-5.044z"/><path d="M30.708 140.64H229.54a9.466 9.466 0 019.441 10.1l-1.503 22.36-1.49 22.36H24.26l-1.503-22.36-1.516-22.36a9.441 9.441 0 019.441-10.1h.025z" fill="#023852"/><path d="M90.559 169.658a10.969 10.969 0 10-3.217 7.752 10.895 10.895 0 003.217-7.752z" fill="#CED3D7"/><path d="M51.839 167.621a3.031 3.031 0 10.023 6.062 3.031 3.031 0 00-.023-6.062z" fill="#0099DA"/><path d="M229.789 140.665h-99.23v86.844h86.957c5.656.014 10.262-4.542 10.31-10.198v-8.535h6.31v-10.099l1.032-1.74 1.03-1.738 1.491-22.236 1.491-22.236a9.391 9.391 0 00-9.391-10.038v-.024z" fill="#C0CACE" style="mix-blend-mode:multiply"/><path d="M367.478 90.217a96.087 96.087 0 00-73.838 18.1 4.224 4.224 0 00-.82 5.925 4.211 4.211 0 005.913.82 87.801 87.801 0 0114.1-8.696 86.46 86.46 0 0115.49-5.826 88.932 88.932 0 0137.776-1.95 86.795 86.795 0 0134.522 13.665 4.124 4.124 0 002.783.695 4.211 4.211 0 002.559-1.242c.087-.1.186-.199.273-.31l.248-.323a4.248 4.248 0 00-1.155-5.876 95.652 95.652 0 00-37.85-14.982z" fill="#0099DA"/><path d="M410.186 85a109.503 109.503 0 00-41.254-15.416 111.354 111.354 0 00-47.069 2.72c-13.435 3.73-26.03 10-37.105 18.472a4.227 4.227 0 005.13 6.72 101.18 101.18 0 0134.286-17.055 102.857 102.857 0 0143.478-2.484 100.783 100.783 0 0138.087 14.236 4.236 4.236 0 005.826-1.342 4.236 4.236 0 00-1.341-5.826l-.038-.025zM366.236 110.652a85.019 85.019 0 00-36.534 1.64 83.925 83.925 0 00-28.422 13.789 4.236 4.236 0 005.055 6.758 75.006 75.006 0 0112.174-7.454 75.95 75.95 0 0113.392-4.969 76.497 76.497 0 0132.882-1.466 74.621 74.621 0 0131.378 13.255 4.137 4.137 0 002.833.783 4.186 4.186 0 002.633-1.243l.224-.236c.077-.085.148-.177.211-.273a4.224 4.224 0 00-.932-5.9 84.472 84.472 0 00-34.894-14.746v.062z" fill="#0099DA"/><path d="M334.348 170.714h20.484c29.965.089 54.235 24.358 54.323 54.323v63.081c0 29.876-24.447 22.46-54.323 22.46h-20.484c-29.888 0-54.336 7.453-54.336-22.46v-63.08c.09-29.97 24.366-54.242 54.336-54.324z" fill="#DCE2E6"/><path d="M354.832 170.714h-20.484c-4.845 0-9.667.656-14.336 1.95 23.567 6.514 39.913 27.923 39.988 52.373v63.081c0 15.006-6.211 20.609-16.15 22.46h10.933c29.813 0 54.323 7.453 54.323-22.46v-63.08c-.089-29.946-24.328-54.208-54.274-54.324z" fill="#F5F6F7"/><path d="M365.193 226.963a3.727 3.727 0 00-5.33 0l-15.28 15.28-15.266-15.28a3.764 3.764 0 00-5.317 5.329l16.832 16.832v43.478h7.528v-43.478l16.845-16.832a3.727 3.727 0 00-.012-5.33z" fill="#0099DA"/><path d="M412.944 330.255h-143.59a6.845 6.845 0 01-6.82-7.292l1.093-16.15.746-11.18a5.317 5.317 0 015.304-4.968h142.944c2.801 0 5.121 2.174 5.304 4.969l.746 11.18 1.093 16.149a6.845 6.845 0 01-6.82 7.292z" fill="#9DADB7"/><path d="M340.758 290.665h-71.069a5.317 5.317 0 00-5.304 4.969l-.745 11.18-1.093 16.149a6.845 6.845 0 006.82 7.292h71.403l-.012-39.59z" fill="#CED3D7" style="mix-blend-mode:multiply"/><path d="M370.161 309.298a7.913 7.913 0 1015.827-.004 7.913 7.913 0 00-15.827.004z" fill="#F7F8F9"/><path d="M398.124 310.752c.583 0 1.142-.233 1.553-.646a2.199 2.199 0 000-3.118 2.224 2.224 0 00-3.106 0 2.199 2.199 0 000 3.118c.411.413.97.646 1.553.646z" fill="#0099DA"/></g></svg>