<svg width="115" height="91" xmlns="http://www.w3.org/2000/svg">
  <g fill="none" fill-rule="evenodd">
    <path d="M49.682 90.182A38.633 38.633 0 0 1 11.01 51.508V41.065h77.344v10.443a38.642 38.642 0 0 1-38.67 38.674z" fill="#BAC6CD" fill-rule="nonzero"/>
    <path d="M64.673 42.746V73.24c.53-.202 1.048-.432 1.553-.69.5-.253.985-.534 1.455-.84a15.71 15.71 0 0 0 2.603-2.109 15.945 15.945 0 0 0 4.684-11.305V42.746H64.673zM26.255 42.746v15.55a15.96 15.96 0 0 0 5.917 12.427c.44.353.898.682 1.373.986.47.306.955.587 1.455.84.505.258 1.216.488 1.745.69V42.746h-10.49z" fill="#023852" fill-rule="nonzero"/>
    <path d="M50.622 41.12H36.559v32.065c.442.178.892.335 1.35.472a15.423 15.423 0 0 0 2.857.553c.497.046.983.074 1.486.074H59.01c.5 0 .998-.025 1.486-.074.489-.049.969-.12 1.455-.21.486-.093.942-.209 1.402-.343.46-.135.908-.306 1.35-.472V41.12h-14.08z" fill="#023852" fill-rule="nonzero"/>
    <path d="M72.527 41.065v3.395a38.647 38.647 0 0 1-38.676 38.673 38.214 38.214 0 0 1-5.6-.41 41.44 41.44 0 0 1-1.815-.308 38.458 38.458 0 0 0 16.84 7.238c2.115.353 4.256.53 6.4.529a38.633 38.633 0 0 0 38.677-38.674V41.065H72.527z" fill="#FFF" fill-rule="nonzero" opacity=".3"/>
    <path d="M91.012 46.208H9.726a4.855 4.855 0 0 1-4.844-4.844v-6.909a4.855 4.855 0 0 1 4.844-4.838h81.286a4.838 4.838 0 0 1 3.421 1.423 4.822 4.822 0 0 1 1.423 3.421v6.91c0 .645-.13 1.284-.382 1.878a4.881 4.881 0 0 1-2.58 2.58 4.783 4.783 0 0 1-1.882.379z" fill="#CED6DB" fill-rule="nonzero"/>
    <path fill="#CED6DB" fill-rule="nonzero" d="M87 31.217H2.159l.274.81.273.805H98.78l.241-.401.239-.405.238-.404.242-.405h-6.371zM2.706 32.832H98.78V37.504H2.706v-3.503z"/>
    <path d="M5.138 5.952h91.637c.609 0 1.211.126 1.768.372a4.364 4.364 0 0 1 2.584 4.283l-.352 5.152-.347 5.152-.343 5.154-.346 5.152H2.168l-.332-5.152-.357-5.154-.347-5.152-.346-5.152a4.364 4.364 0 0 1 2.58-4.283 4.364 4.364 0 0 1 1.772-.372z" fill="#9DADB7" fill-rule="nonzero"/>
    <path d="M32.327 19.258a5.047 5.047 0 1 0-10.095.025 5.047 5.047 0 0 0 10.095-.025z" fill="#FFE700" fill-rule="nonzero"/>
    <path d="M14.383 18.327a1.411 1.411 0 1 0 0 0z" fill="#0099DA" fill-rule="nonzero"/>
    <path d="M96.783 5.978h-45.98v40.253h40.316a4.748 4.748 0 0 0 3.354-1.393c.434-.433.78-.946 1.022-1.51.248-.583.375-1.21.375-1.844v-3.957h2.923v-4.654l.239-.405.241-.404.239-.401.241-.405.344-5.155.358-5.158.346-5.152.343-5.154a4.314 4.314 0 0 0-.253-1.79 4.364 4.364 0 0 0-4.096-2.863l-.012-.008z" fill="#9DADB7" fill-rule="nonzero" style="mix-blend-mode:multiply"/>
    <path d="M51.145 52.655a7.685 7.685 0 0 0-4.308 1.316 7.78 7.78 0 0 0-1.142.94 7.767 7.767 0 0 0-1.653 2.452 7.71 7.71 0 0 0-.449 4.554c.104.503.256.985.449 1.447.195.46.435.9.711 1.31a7.802 7.802 0 0 0 3.391 2.793 7.685 7.685 0 0 0 3.001.606 7.685 7.685 0 0 0 5.45-2.26c.349-.347.665-.728.943-1.139.276-.41.516-.85.71-1.31.194-.462.346-.944.45-1.447.1-.502.157-1.02.157-1.552 0-.534-.057-1.052-.157-1.555a7.798 7.798 0 0 0-.45-1.447 7.767 7.767 0 0 0-1.652-2.452 7.78 7.78 0 0 0-2.452-1.65 7.685 7.685 0 0 0-2.999-.606" fill="#0099DA"/>
    <path d="M53.91 55.564a2.03 2.03 0 0 0-1.69.897 2.052 2.052 0 0 0-.306.729 2.037 2.037 0 1 0 1.995-1.626" fill="#FFF"/>
    <g fill-rule="nonzero">
      <path d="M110.281 2.036h-28.38a2.682 2.682 0 0 0-2.683 2.683v28.38c0 1.482 1.201 2.683 2.682 2.683h28.381a2.682 2.682 0 0 0 2.683-2.682V4.719a2.682 2.682 0 0 0-2.683-2.683z" fill="#081935" opacity=".2" style="mix-blend-mode:multiply"/>
      <path d="M112.318 0H83.937a2.682 2.682 0 0 0-2.682 2.682v28.381a2.682 2.682 0 0 0 2.682 2.682h28.38c1.482 0 2.683-1.2 2.683-2.682V2.683C115 1.2 113.8 0 112.318 0z" fill="#FFE700"/>
      <path d="M98.162 9.89c1.43 0 2.544.289 3.34.865.795.576 1.193 1.393 1.193 2.453 0 .718-.187 1.348-.562 1.89-.374.542-.968 1.014-1.779 1.417 1.003.57 1.711 1.138 2.123 1.705.412.567.618 1.178.618 1.835 0 1.207-.437 2.143-1.31 2.805-.873.663-2.094.995-3.66.995-1.599 0-2.822-.324-3.67-.971-.849-.648-1.273-1.578-1.273-2.792 0-.787.189-1.457.567-2.012.377-.554 1.012-1.057 1.904-1.51-.718-.482-1.243-1.001-1.575-1.555a3.492 3.492 0 0 1-.497-1.826c0-1.04.406-1.85 1.217-2.43.812-.579 1.933-.868 3.364-.868zm-1.617 10.053c0 .384.136.692.409.925.272.232.65.348 1.133.348 1.09 0 1.635-.4 1.635-1.198 0-.304-.119-.603-.357-.897-.239-.294-.665-.624-1.278-.99-.551.292-.946.584-1.184.879-.239.294-.358.605-.358.933zm1.598-7.404c-.316 0-.582.091-.799.274a.886.886 0 0 0-.325.71c0 .533.362 1.004 1.087 1.413.44-.254.74-.487.901-.697.161-.21.242-.45.242-.716a.882.882 0 0 0-.326-.715 1.184 1.184 0 0 0-.78-.27z" fill="#023852"/>
    </g>
  </g>
</svg>
