<svg id="Layer_1" data-name="Layer 1" xmlns="http://www.w3.org/2000/svg" viewBox="0 0 440 330"><defs><style>.cls-1{fill:#0099da}</style></defs><path class="cls-1" d="M232.35 271.04l10.27-14.36 10.28-14.36-5.29.02-5.28.02-5.29.02-5.28.03h-1.84l-1.84.01v-65.35h-33.04V242.56h-1.73l-1.72.01-5.34.02-5.35.03-5.34.02-5.34.02 10.39 14.28L191 271.21l10.4 14.28 10.39 14.27 10.28-14.36 10.28-14.36zM293.72 112.57a101.76 101.76 0 00-188 37.48A67.71 67.71 0 0080.2 163l24.8 24.74a32.65 32.65 0 0117.23-5.17l17.12-.22v-17.68a67.08 67.08 0 01128.23-27.5l5 11.11 12.16-1c1.33-.1 2.67-.21 4-.21a50.32 50.32 0 0128.35 8.7L341.85 131a84.84 84.84 0 00-48.13-18.43z"/><path d="M55 215.44A67.66 67.66 0 00122.6 283h22v-34.65h-22a32.86 32.86 0 01-17.6-60.61L80.2 163A67.53 67.53 0 0055 215.44z" fill="#ffe700"/><path d="M341.85 131l-24.77 24.8a50.61 50.61 0 01-28.35 92.55H270V283h18.69a85.27 85.27 0 0053.12-152z" fill="#023852"/></svg>