<svg width="440" height="330" xmlns="http://www.w3.org/2000/svg"><g transform="translate(84)" fill-rule="nonzero" fill="none"><path d="M170.81 17.875a8.89 8.89 0 00-.274-2.255 8.254 8.254 0 00-.852-2.063 8.497 8.497 0 00-1.319-1.815 8.711 8.711 0 00-1.73-1.43l-3.572-2.255-3.572-2.227-3.572-2.228-3.544-2.227a10.987 10.987 0 00-1.099-.605c-.385-.162-.78-.3-1.181-.413a6.204 6.204 0 00-1.237-.274 9.333 9.333 0 00-1.236 0h-35.195a9.69 9.69 0 00-1.539.137c-.504.09-1 .218-1.484.385-.481.176-.95.388-1.4.633-.44.268-.861.561-1.265.88l-6.401 5.224-6.43 5.28-6.4 5.28-6.403 5.308a7.422 7.422 0 00-1.428 1.54l-.577.825a8.913 8.913 0 00-.467.88l-4.671 10.093-4.643 10.12-4.67 10.092-4.672 10.093c-.137.302-.247.605-.357.907-.108.307-.2.619-.275.935 0 .303 0 .633-.137.935-.137.303 0 .66 0 .99v46.75a7.735 7.735 0 000 .797v.77c.029.253.084.502.165.743.06.251.134.499.22.742l2.143 5.858L63.96 132l2.116 5.857 2.115 5.83c.18.51.308 1.034.385 1.568.069.53.069 1.066 0 1.595a7.762 7.762 0 01-.247 1.567 11.226 11.226 0 01-.605 1.486l-8.764 14.575-8.765 14.575-8.792 14.575-8.71 14.63c-.105.203-.162.43-.164.66-.005.213.053.423.165.605.113.186.275.338.467.44.2.115.43.163.66.137l39.645-2.75 39.647-2.75 39.646-2.75 39.646-2.75c.145.028.294.028.44 0l.356-.248c.108-.11.192-.24.248-.385a2.064 2.064 0 000-.44l.632-18.7.632-18.727.659-18.7.632-18.7V49.5a8.264 8.264 0 00-.192-1.815 7.705 7.705 0 00-.55-1.705 7.564 7.564 0 00-.88-1.595 8.028 8.028 0 00-1.18-1.375l-4.809-4.51-4.945-4.675-4.863-4.785-4.973-4.648a8.028 8.028 0 01-1.181-1.375 7.565 7.565 0 01-.88-1.595 7.705 7.705 0 01-.55-1.704 8.257 8.257 0 01-.191-1.843z" fill="#023852"/><path d="M270.352 328.295l-6.594-81.895-35.58 21.285a12.267 12.267 0 00-5.935 10.285l-.934 50.325h49.043zM48.163 328.295l2.39-48.317a12.294 12.294 0 00-7.143-11.77l-21.787-9.956a12.244 12.244 0 00-11.425.645 12.267 12.267 0 00-5.912 9.805L.852 328.296h47.311z" fill="#19A3DE"/><path d="M242.932 328.295v-4.015a12.267 12.267 0 015.962-10.285l19.232-11.55-4.368-55.385-35.58 21.313a12.24 12.24 0 00-5.935 10.285l-.934 49.5 21.623.137zM24.288 328.295l.769-13.31a12.267 12.267 0 015.912-9.806 12.244 12.244 0 0111.425-.644l6.813 3.135 1.347-27.033a12.266 12.266 0 00-7.144-11.742l-21.787-9.982a12.244 12.244 0 00-11.479.684 12.267 12.267 0 00-5.858 9.903l-3.38 58.795h23.382z" fill="#0082CA"/><path d="M4.67 260.535l37.037 20.57a9.16 9.16 0 014.67 8.25L44.95 328.24h185.18v-42.762a9.024 9.024 0 013.05-6.793L261.998 253a9.08 9.08 0 002.5-9.817l-15.083-42.653a9.044 9.044 0 00-4.89-5.28l-38.19-16.5c-.935-.412.494 0-.523 0l-122.84-9.9a9.142 9.142 0 00-4.533.825L17.446 198a8.99 8.99 0 00-4.972 5.94L.302 250.25a9.133 9.133 0 004.369 10.285z" fill="#F3F7F8"/><path d="M4.67 260.535l37.037 20.57a9.16 9.16 0 014.67 8.25L44.95 328.24h70.445l82.671-150.15-115.119-9.268a9.142 9.142 0 00-4.533.826L17.446 198a8.99 8.99 0 00-4.972 5.94L.302 250.25a9.133 9.133 0 004.369 10.285z" fill="#D8DEE2"/><path fill="#19A3DE" d="M167.486 131.202l.11 30.416 50.856 22.302-29.59 27.968h-84.98l-42.256-32.066 37.888-16.06.989-32.092z"/><path d="M100.145 152.075a11.418 11.418 0 003.297 8.25l20.689 20.708a11.198 11.198 0 013.297 7.947v48.593c0 6.211-5.031 11.247-11.237 11.247H27.475a11.235 11.235 0 01-9.757-5.655 11.256 11.256 0 01.058-11.285l50.91-87.065a11.289 11.289 0 0110.99-5.5l10.579 1.21c5.792.696 10.089 5.714 9.89 11.55z" fill="#023852"/><path d="M167.596 141.405v20.213l-36.981 50.132h-5.77s-34.178-46.475-33.794-47.548c.385-1.072 7.061-24.75 7.061-24.75l69.484 1.953z" fill="#0082CA"/><path d="M176.525 77.358l1.264-.55 1.236-.578 1.264-.578 1.237-.577.494-.165H185.097c.493.082.967.25 1.402.495.411.243.775.56 1.071.935.281.393.495.83.632 1.292.083.483.083.976 0 1.458l-.77 5.72-.604 5.775-.769 5.665-.742 5.72a3.027 3.027 0 01-.165.715c-.077.23-.179.451-.302.66-.112.218-.25.421-.412.605-.17.178-.354.344-.55.495l-1.62 1.265-1.649 1.265-1.648 1.265-1.622 1.238a3.132 3.132 0 01-.631.412 5.052 5.052 0 01-.687.248 2.992 2.992 0 01-.715 0 2.059 2.059 0 01-.714 0h-1.264c-.51-.047-1-.217-1.429-.496a3.71 3.71 0 01-1.098-.962 4.1 4.1 0 01-.468-1.43 3.496 3.496 0 010-1.513l1.072-6.407 1.071-6.435 1.072-6.407 1.071-6.408c.057-.3.14-.594.248-.88.129-.272.285-.53.467-.77a4.232 4.232 0 011.401-1.128l-.22.055z" fill="#19A3DE"/><path d="M185.097 74.91h-3.077l-.494.165-1.237.578-1.264.577-1.236.578-1.236.55a3.873 3.873 0 00-.797.495l-.632.632c-.173.24-.32.499-.44.77-.128.28-.22.576-.274.88l-.193 1.265-.22 1.265-.22 1.265-.219 1.265c.084-.272.185-.538.302-.797.14-.249.296-.488.467-.715.181-.214.384-.407.605-.578.226-.187.475-.344.742-.468l1.29-.577 1.292-.578 1.264-.605 1.291-.577.522-.192h3.16a3.46 3.46 0 011.181.357c.37.164.706.398.99.688.276.29.516.613.714.962.185.364.315.753.384 1.155v-3.135l.138-1.073a3.716 3.716 0 000-1.457 4.347 4.347 0 00-.632-1.293 3.875 3.875 0 00-1.072-.934 4.064 4.064 0 00-1.099-.468z" fill="#46B2E3"/><path d="M87.013 77.358l-1.237-.55-1.236-.578-1.264-.578-1.236-.577-.495-.165h-3.077a3.873 3.873 0 00-2.473 1.43c-.28.393-.494.83-.632 1.292a3.716 3.716 0 000 1.458l.742 5.72.742 5.72.632 5.72.77 5.72c.025.244.08.484.164.715.068.23.16.45.275.66.13.213.277.415.44.605l.549.55 1.648 1.265 1.649 1.265 1.62 1.265 1.65 1.237c.192.163.405.301.631.413l.66.248c.237.024.476.024.714 0 .245.04.496.04.742 0h1.264c.509-.047.999-.217 1.428-.495.424-.238.79-.567 1.072-.963a3.66 3.66 0 00.66-1.485c.096-.5.096-1.013 0-1.513l-1.072-6.407-1.072-6.435-1.044-6.407-1.071-6.408a3.605 3.605 0 00-.275-.88 4.291 4.291 0 00-.44-.77l-.522-.578a3.873 3.873 0 00-.906-.495z" fill="#19A3DE"/><path d="M78.468 74.91h3.077c.161.038.318.094.467.165l1.264.578 1.236.577 1.264.578 1.237.55c.28.138.547.304.796.495.223.19.425.401.605.632.19.233.348.493.467.77.116.285.208.58.275.88l.192 1.265.22 1.265.22 1.265.192 1.265a2.752 2.752 0 00-.302-.797 3.85 3.85 0 00-.44-.715 3.985 3.985 0 00-.604-.578 5.496 5.496 0 00-.715-.605l-1.291-.578-1.291-.577-1.292-.605-1.291-.578a2.746 2.746 0 00-.495-.192H79.1c-.42.048-.83.169-1.21.358a3.407 3.407 0 00-.96.687 3.987 3.987 0 00-.715.963c-.197.358-.327.75-.385 1.154l-.137-1.044-.137-1.045v-1.046l-.138-1.072a3.716 3.716 0 010-1.457c.114-.472.33-.913.632-1.293a3.873 3.873 0 012.473-1.43l-.055.165z" fill="#46B2E3"/><path d="M167.596 30.663a5.502 5.502 0 00-.824-1.678 6.405 6.405 0 00-1.292-1.293 5.767 5.767 0 00-3.489-1.155h-57.175a5.767 5.767 0 00-3.49 1.155c-.49.367-.924.803-1.29 1.293a5.502 5.502 0 00-.825 1.678l-2.747 8.717-2.748 8.745-2.747 8.718-2.748 8.745v58.85c-.028.32-.028.642 0 .962.044.318.118.63.22.935.112.31.24.612.385.908.158.276.332.542.522.797l4.066 5.692 4.396 5.666 4.396 5.692 4.396 5.665c.172.177.355.343.55.495l.604.523.66.412.741.357 3.957 1.54 3.983 1.54 3.957 1.54 3.956 1.54.522.166h15.661l.522-.166 3.901-1.43 3.957-1.54 3.983-1.54 3.957-1.54.742-.357.659-.412.604-.523c.189-.189.363-.39.522-.605l4.396-5.665 4.396-5.692 4.396-5.666 4.396-5.692c.19-.255.364-.521.522-.797.145-.296.273-.599.385-.908.102-.304.176-.617.22-.935.028-.32.028-.642 0-.963v-57.53-.88-.44l-2.748-8.745-2.912-8.717-2.748-8.745-2.747-8.718z" fill="#19A3DE"/><path d="M88.166 65.78l2.748-8.938 2.747-8.937 2.748-8.938 2.747-8.937a4.948 4.948 0 011.786-2.475 4.723 4.723 0 012.748-.962h45.086c.011.11.011.22 0 .33.012.1.012.202 0 .302.015.1.015.202 0 .302l-.248.275-11.566 8.828-11.567 8.828-11.567 8.827-5.907 4.51a14.387 14.387 0 00-5.66 11.468v41.965a13.21 13.21 0 001.923 6.902l4.616 7.645 6.594 10.725 6.566 11 6.567 10.808h-2.803l-.44-.138-4.065-1.567-4.067-1.596-4.093-1.595-4.067-1.567-.604-.275-.55-.357a2.556 2.556 0 01-.494-.44l-.467-.495-4.479-5.803-4.478-6.05-4.506-5.803-4.506-5.802a5.5 5.5 0 01-.44-.66c0-.248-.22-.495-.302-.742a3.935 3.935 0 01-.192-.77 4.211 4.211 0 010-.825V67.264a1.817 1.817 0 010-.385v-.743c.055-.124.119-.243.192-.357z" fill="#0082CA"/><path d="M185.812 43.56a1.872 1.872 0 000-.385 1.79 1.79 0 000-.357l-.165-.33a2.75 2.75 0 00-.22-.303l-6.347-7.068-6.511-7.067-6.347-7.04-6.319-7.068a3.243 3.243 0 00-.55-.495l-.631-.384-.715-.22a3.404 3.404 0 00-.742 0l-8.901-.165H120.944l-.055-.028-7.968 3.272-7.83 3.328-7.803 3.3-7.83 3.217c-.28.12-.547.267-.797.44-.237.183-.45.396-.632.633a3.218 3.218 0 00-.467.77c-.129.28-.221.576-.275.88L85.42 40.068l-1.896 11.55-1.896 11.632-1.95 11.495h1.813l.495.165 1.209.578 1.208.55 1.237.577 1.209.55c.165.075.341.121.522.137.164.027.33.027.494 0 .172-.033.332-.108.467-.22a1.21 1.21 0 00.33-.412l1.017-1.65.989-1.677 1.016-1.65.99-1.678a.193.193 0 000-.138.248.248 0 000-.137.358.358 0 000-.165V53.212a5.34 5.34 0 010-.66l.164-.632c.09-.198.191-.39.302-.578.11-.18.23-.354.358-.522l3.791-4.318 3.764-4.317 3.764-4.318 3.984-4.317c.178-.19.371-.364.577-.522.193-.17.417-.301.66-.386a3.13 3.13 0 01.714-.247 3.65 3.65 0 01.769 0h9.699l2.225.825 2.225.852 2.198.825 2.226.825c.236.103.486.168.742.193.245.041.496.041.742 0 .246.03.495.03.741 0 .25-.072.49-.174.715-.303l2.06-1.072 2.06-1.072 2.062-1.1 2.06-1.073.385-.193h12.199c.728-.005 1.454.06 2.17.193.707.14 1.397.352 2.06.632a9.119 9.119 0 011.924.99c.61.392 1.181.844 1.703 1.348l2.39 2.31 2.418 2.31 2.418 2.31 2.39 2.31.385.412c.11.15.211.306.302.468.085.16.158.325.22.495.013.183.013.367 0 .55l1.456 7.343 1.457 7.37 1.428 7.342 1.456 7.37c.034.215.13.416.275.578.122.171.282.312.467.412.193.084.396.14.605.165.218.039.44.039.659 0l.275-.138.302-.137.275-.138h.302l.66-.274h.714a3.13 3.13 0 01.714 0h1.923c.218.04.442.04.66 0 .202-.063.389-.165.55-.303.148-.13.269-.29.356-.468.088-.199.135-.414.138-.632l-.33-7.92-.247-7.48-.275-7.48-.247-7.48z" fill="#023852"/><ellipse fill="#FFE700" cx="182.954" cy="107.635" rx="4.011" ry="5.665"/><ellipse fill="#FFE700" cx="83.386" cy="107.635" rx="4.011" ry="5.665"/></g></svg>