<svg width="440" height="330" xmlns="http://www.w3.org/2000/svg"><g transform="translate(70 15)" fill-rule="nonzero" fill="none"><path d="M91.35 258.84C54.75 295.44 0 300 0 300s4.58-54.75 41.17-91.35c36.59-36.6 77.49-55 91.35-41.17 13.86 13.83-4.58 54.77-41.17 91.36z" fill="#FFE700"/><path d="M106.52 224.92c-22.92 22.91-57.2 25.77-57.2 25.77s2.86-34.28 25.78-57.19c22.92-22.91 48.52-34.46 57.2-25.78s-2.87 34.28-25.78 57.2z" fill="#FFF387"/><path d="M114.38 207.46c-15.92 15.92-39.74 17.92-39.74 17.92s2-23.83 17.91-39.75c15.91-15.92 33.72-23.94 39.75-17.92 6.03 6.02-1.99 23.83-17.92 39.75z" fill="#FFFCDB"/><path fill="#023852" d="M165.84 191.54l-12.22 6.71-13.97 7.66-45.38-45.38 7.66-13.98 6.7-12.22z"/><path d="M262.06 8C214.86 21.35 135.69 55.5 95 139.66l32.74 32.74 32.73 32.74c84.16-40.65 118.32-119.83 131.63-167 6.42-22.76 8-38.08 8-38.08S284.81 1.61 262.06 8z" fill="#0099DA"/><path d="M292.14 38.12L262.06 8c22.75-6.42 38.08-8 38.08-8s-1.58 15.36-8 38.12z" fill="#96A6AE"/><path d="M300 .06c-1.78.2-16.58 2-37.9 8l15 15 22.9-23z" fill="#DEE3E6"/><path fill="#194D6D" d="M14.67 160.12l-12.08.44 55-77.27 16.64-1.57z"/><path d="M216.72 242.41l-77.26 55 .44-12.07 20.3-72.06.29-8.17 64.58-46.64c-.09.1-.45 3.18-1 8.1-1.44 13.59-4.1 41.3-5.8 59.2-.91 9.79-1.55 16.64-1.55 16.64z" fill="#023852"/><path fill="#023852" opacity=".5" style="mix-blend-mode:multiply" d="M160.49 205.12l-.36 8.21-8.47 30.43 70.23-54.47 3.18-30.81z"/><path fill="#003A5D" d="M178.813 112.23l8.973 8.973L74.395 234.595l-8.974-8.973z"/><path fill="#194D6D" d="M65.417 225.617l113.391-113.392 4.49 4.49L69.908 230.107z"/><path d="M57.61 83.33l-55 77.26 12.08-.44 72.05-20.3 8.18-.3L141.54 75c-.1.1-3.18.46-8.1 1-13.59 1.44-41.3 4.11-59.2 5.8-9.78.89-16.63 1.53-16.63 1.53z" fill="#023852"/><path fill="#023852" opacity=".5" style="mix-blend-mode:multiply" d="M94.91 139.55l-8.22.36-30.43 8.48 54.47-70.23 30.81-3.19z"/><path fill="#003A5D" opacity=".2" d="M187.79 121.2l-7.78 69.92-19.52 14-28.46-28.23z"/><path d="M160.55 205.1l-32.74-32.74L300.17 0s-1.58 15.33-8 38.08c-13.31 47.2-47.47 126.37-131.62 167.02z" fill="#023852" opacity=".2"/><circle fill="#3DB3E3" transform="rotate(-45 206.09 94.084)" cx="206.089" cy="94.084" r="23.04"/><circle fill="#F1F3F4" transform="rotate(-45 206.09 94.084)" cx="206.089" cy="94.084" r="18.03"/><path d="M255 66.6a15.12 15.12 0 110-21.38c5.903 5.904 5.903 15.476 0 21.38z" fill="#3DB3E3"/><path d="M252.63 64.28c-4.621 4.616-12.11 4.613-16.727-.007-4.618-4.62-4.618-12.107 0-16.726 4.618-4.62 12.106-4.623 16.727-.007a11.83 11.83 0 010 16.74z" fill="#F1F3F4"/></g></svg>