<svg width="440" height="330" xmlns="http://www.w3.org/2000/svg"><g transform="translate(18)" fill="none" fill-rule="evenodd"><path stroke="#96A6AE" d="M244.38 195.615l-32.886-72.035M292.946 81.404L246.62 192.248"/><path stroke="#9DADB7" d="M263.431 74.691l-11.211 74.272M371.774 102.684l-85.186 67.921M363.176 75.81l-84.054 88.082M169.659 28.039l56.779 123.162M99.791 101.565l115.821 84.715M63.929 45.205l139.352 125.4"/><path stroke="#96A6AE" d="M147.237 213.155l47.072-4.102"/><path stroke="#9DADB7" d="M37.774 175.454l163.267 18.67M26.936 219.495l168.867-13.81M134.906 294.141l83.692-72.408M293.693 281.822l-41.1-66.056M390.078 240.403l-106.476-31.35"/><ellipse fill="#0099DA" fill-rule="nonzero" cx="374.534" cy="59.355" rx="24.605" ry="24.58"/><ellipse fill="#0099DA" fill-rule="nonzero" cx="56.621" cy="39.826" rx="24.605" ry="24.58"/><ellipse fill="#023852" fill-rule="nonzero" cx="263.974" cy="67.458" rx="17.829" ry="17.811"/><ellipse fill="#FFE700" fill-rule="nonzero" cx="377.872" cy="96.333" rx="17.829" ry="17.811"/><ellipse fill="#0099DA" fill-rule="nonzero" cx="124.102" cy="300.413" rx="28.825" ry="28.796"/><ellipse fill="#0099DA" fill-rule="nonzero" cx="301.51" cy="290.163" rx="24.605" ry="24.58"/><ellipse fill="#023852" fill-rule="nonzero" cx="305.888" cy="190.971" rx="13.971" ry="13.957"/><ellipse fill="#0099DA" fill-rule="nonzero" cx="210.679" cy="119.636" rx="13.971" ry="13.957"/><ellipse fill="#0099DA" fill-rule="nonzero" cx="243.679" cy="197.175" rx="54.517" ry="54.461"/><ellipse fill="#023852" fill-rule="nonzero" cx="32.14" cy="175.601" rx="14.91" ry="14.895"/><ellipse fill="#023852" fill-rule="nonzero" cx="389.354" cy="241.375" rx="14.91" ry="14.895"/><ellipse fill="#0099DA" fill-rule="nonzero" cx="21.087" cy="220.365" rx="21.087" ry="21.066"/><ellipse fill="#FFE700" fill-rule="nonzero" cx="292.98" cy="79.403" rx="21.087" ry="21.066"/><ellipse fill="#023852" fill-rule="nonzero" cx="166.593" cy="17.811" rx="17.829" ry="17.811"/><ellipse fill="#0099DA" fill-rule="nonzero" cx="145.291" cy="212.375" rx="17.829" ry="17.811"/><ellipse fill="#023852" fill-rule="nonzero" cx="88.478" cy="86.715" rx="39.256" ry="39.216"/></g></svg>