<?xml version="1.0" encoding="UTF-8"?>
<svg width="440px" height="330px" viewBox="0 0 440 330" version="1.1" xmlns="http://www.w3.org/2000/svg" xmlns:xlink="http://www.w3.org/1999/xlink">
    <!-- Generator: Sketch 59.1 (86144) - https://sketch.com -->
    <title>Graphic elements / Rich icons / Interconnect</title>
    <desc>Created with Sketch.</desc>
    <g id="Graphic-elements-/-Rich-icons-/-Interconnect" stroke="none" stroke-width="1" fill="none" fill-rule="evenodd">
        <g id="bannerAsset-217" transform="translate(18.000000, 0.000000)">
            <line x1="244.380168" y1="195.615411" x2="211.493715" y2="123.580479" id="Path" stroke="#96A6AE"></line>
            <line x1="292.946229" y1="81.4037671" x2="246.620112" y2="192.247603" id="Path" stroke="#96A6AE"></line>
            <line x1="263.431006" y1="74.6907534" x2="252.219972" y2="148.963356" id="Path" stroke="#9DADB7"></line>
            <line x1="371.774162" y1="102.684247" x2="286.588408" y2="170.605479" id="Path" stroke="#9DADB7"></line>
            <line x1="363.176397" y1="75.809589" x2="279.121927" y2="163.892466" id="Path" stroke="#9DADB7"></line>
            <line x1="169.658799" y1="28.0386986" x2="226.437989" y2="151.201027" id="Path" stroke="#9DADB7"></line>
            <line x1="99.7906425" y1="101.565411" x2="215.611592" y2="186.280479" id="Path" stroke="#9DADB7"></line>
            <line x1="63.9289106" y1="45.2054795" x2="203.280587" y2="170.605479" id="Path" stroke="#9DADB7"></line>
            <line x1="147.236732" y1="213.155137" x2="194.309497" y2="209.05274" id="Path" stroke="#96A6AE"></line>
            <line x1="37.7736034" y1="175.453767" x2="201.040642" y2="194.12363" id="Path" stroke="#9DADB7"></line>
            <line x1="26.9358939" y1="219.495205" x2="195.802793" y2="205.684932" id="Path" stroke="#9DADB7"></line>
            <line x1="134.905726" y1="294.140753" x2="218.598184" y2="221.732877" id="Path" stroke="#9DADB7"></line>
            <line x1="293.692877" y1="281.82226" x2="252.593296" y2="215.765753" id="Path" stroke="#9DADB7"></line>
            <line x1="390.078352" y1="240.40274" x2="283.601816" y2="209.05274" id="Path" stroke="#9DADB7"></line>
            <ellipse id="Oval" fill="#0099DA" fill-rule="nonzero" cx="374.534497" cy="59.3547945" rx="24.6054469" ry="24.5804795"></ellipse>
            <ellipse id="Oval" fill="#0099DA" fill-rule="nonzero" cx="56.6208101" cy="39.8260274" rx="24.6054469" ry="24.5804795"></ellipse>
            <ellipse id="Oval" fill="#023852" fill-rule="nonzero" cx="263.974022" cy="67.4578767" rx="17.8290503" ry="17.8109589"></ellipse>
            <ellipse id="Oval" fill="#FFE700" fill-rule="nonzero" cx="377.871788" cy="96.3328767" rx="17.8290503" ry="17.8109589"></ellipse>
            <ellipse id="Oval" fill="#0099DA" fill-rule="nonzero" cx="124.101955" cy="300.413014" rx="28.8251397" ry="28.7958904"></ellipse>
            <ellipse id="Oval" fill="#0099DA" fill-rule="nonzero" cx="301.510056" cy="290.162671" rx="24.6054469" ry="24.5804795"></ellipse>
            <ellipse id="Oval" fill="#023852" fill-rule="nonzero" cx="305.888128" cy="190.970548" rx="13.9713687" ry="13.9571918"></ellipse>
            <ellipse id="Oval" fill="#0099DA" fill-rule="nonzero" cx="210.67919" cy="119.636301" rx="13.9713687" ry="13.9571918"></ellipse>
            <ellipse id="Oval" fill="#0099DA" fill-rule="nonzero" cx="243.678771" cy="197.175" rx="54.5166201" ry="54.4613014"></ellipse>
            <ellipse id="Oval" fill="#023852" fill-rule="nonzero" cx="32.1398045" cy="175.600685" rx="14.9103352" ry="14.8952055"></ellipse>
            <ellipse id="Oval" fill="#023852" fill-rule="nonzero" cx="389.35433" cy="241.374658" rx="14.9103352" ry="14.8952055"></ellipse>
            <ellipse id="Oval" fill="#0099DA" fill-rule="nonzero" cx="21.0871508" cy="220.365411" rx="21.0871508" ry="21.0657534"></ellipse>
            <ellipse id="Oval" fill="#FFE700" fill-rule="nonzero" cx="292.980168" cy="79.4034247" rx="21.0871508" ry="21.0657534"></ellipse>
            <ellipse id="Oval" fill="#023852" fill-rule="nonzero" cx="166.593017" cy="17.8109589" rx="17.8290503" ry="17.8109589"></ellipse>
            <ellipse id="Oval" fill="#0099DA" fill-rule="nonzero" cx="145.290922" cy="212.375342" rx="17.8290503" ry="17.8109589"></ellipse>
            <ellipse id="Oval" fill="#023852" fill-rule="nonzero" cx="88.4777933" cy="86.715411" rx="39.2555866" ry="39.2157534"></ellipse>
        </g>
    </g>
</svg>