<svg id="Layer_1" data-name="Layer 1" xmlns="http://www.w3.org/2000/svg" viewBox="0 0 440 330"><defs><style>.cls-1{fill:#023852}.cls-3{fill:#0099da}</style></defs><path class="cls-1" d="M151.71 196.97l-11.4-11.41-11.41-11.4-14.81.33-14.82.33-3.39 3.5-3.39 3.5V210.59l11.75 11.76L116 234.12v19.4l-2.95 2.96-2.96 2.96v37.81l2.91 2.91 2.92 2.92h5.28v-6.04l2.15-2.15 2.14-2.14v-25.07l11.94-11.95 11.95-11.95v-12.16l6.41-6.41 6.41-6.42v-21.82h-10.49zM100.6 138.51l11.99-11.99 11.98-12h7.99l4.17-4.16 4.16-4.16v-9.67l-4.91-4.91-4.91-4.91v-7.16h-7.49l-3.67-3.67-3.66-3.66h-3.66V91.2l-2.67 2.67-2.66 2.66v-7.32H95.94l-4-4-3.99-4 10.49-10.49 10.48-10.5v-6.33H99.6l-4.24-4.24-4.25-4.25-1.41 1.41-1.42 1.42 3.41 3.42 3.42 3.41-2.5 2.5-2.5 2.5-2.24-2.25-2.25-2.25v-3.33l-3.83-3.83-3.83-3.83-2-2-1.99-2h-7.33l-2.41 2.41-2.42 2.42v3.5h6.5l5.24 5.24 5.24 5.25h-5.82l-1.79-1.79-1.79-1.79H39.67l-3.91-3.92-3.92-3.91H14.37l-3.4 3.39-3.39 3.4v11.45l2.45 2.45 2.44 2.44H6.38L3.19 74.3 0 77.5V89.87H21.69l4.06-4.06 4.05-4.05H38.67l5.28 5.27 5.27 5.28v41.2l7.35 7.36 7.35 7.35v12.94l7.09 7.09 7.09 7.1h13.84v-8.52h-8.65l-3-3-2.99-3V146.5l2.16-2.16 2.16-2.17h13.32l2.5 2.5 2.5 2.5 1.83-1.83 1.83-1.83-1.5-2.5-1.5-2.5zM188.83 31.24l-2.08-2.08-2.08-2.08h-36.79l-2.46 2.45-2.45 2.46h-8.74v4.91h7.99l3.5 3.5 3.49 3.5v7.33l-2.66 2.66-2.67 2.67v7.66l2.92 2.92 2.91 2.91v6.83h7.16v-6.33l3.58-3.58 3.58-3.58h3.83l7.53-7.54 7.53-7.54v-7.08l2.98-2.97 2.97-2.98-.02-2.02-.02-2.02zM194.16 61.89v5l-1.75 1.75-1.75 1.74h-6.82v-8.49h10.32zM204.61 82.4v6.22l1.76 1.76 1.76 1.76-2.59 2.59-2.59 2.59v3.59h4.14l3.04-3.03 3.04-3.04v-4.15l-1.97-1.97-1.97-1.97V82.4h-4.62zM202.68 95.25h-5.25V90h5.25v5.25z"/><path class="cls-1" d="M260 56.43l-4.83-4.83-4.83-4.84h-9.39l-12.39 12.37-12.35 12.36v10.22l1.51 1.52 1.52 1.52H223v-3.17h3.59v1.93l1.49 1.49 1.52 1.52 2.34-2.35 2.35-2.35V73h3.31l3.4 3.43 3.42 3.42-5.39 5.39-5.38 5.38h-6.14v-2.69h-4.84v3.18h-3.86l-7.32 7.32-7.32 7.32 1 1 1 1 1.89 1.9 1.9 1.9v3.32H199v10.63l1.79 1.8 1.8 1.79h5.38l7.66-7.66 7.67-7.67 3.21 3.21 3.21 3.21 1.2-1.2 1.21-1.21v-5.25l8 8 8 8.05h10.7v7.94l-2.18 2.18-2.17 2.17 2.52 2.53 2.52 2.52v3l4.38 4.38 4.38 4.39v8.77l3 3 3 3h7l6.24-6.24 6.24-6.24v-4.34l-7.76-7.69-7.81-7.82.78-.78.78-.78h4.35l7 7 7 6.95h4.59l3.79 3.79 3.79 3.79v13.39l4 4 4 4.05H321V173l6.91-6.91 6.9-6.9h4v8.29h6.63l3.38 3.38 3.38 3.38v4h2.9v2.07h3.73l1.49-1.48 1.48-1.49v-10l-3-3-3-3 1-1 1-1h9.2l5.64-5.65 5.64-5.65v-11.49s-1.37-1.23-2.75-2.54a15.57 15.57 0 01-2.75-3V128l-1.93-1.93-1.93-1.93v-2.77h7.46L378 123l1.66 1.65V131h4v-13l4-4 4-4V91.8h-6.35v-3.73l4.35-4.35 4.34-4.35h13.25v-4.29h4v5.67h-1.65v9.11l2.17 2.14 2.14 2.15h3v-6.08h3.18v-3.46l-1.73-1.72-1.72-1.73v-2.9h7.18l8.07-8.08L440 62.1v-5.94h-17.4l-2.89-2.9-2.9-2.9h-19.19l-3.87-3.87-3.87-3.87h-9.8l-3.59 3.59-3.59 3.59h-8.42l-3-3-3-3h-15.54v-8.36h-15.46l-1.69 1.69-1.69 1.69h-7.8l-5.95 6-6 6h-5.45v-5.44h-4.83l-6.38 6.39-6.39 6.39h-11.39l-2 2-2 2h-6v-5.7z"/><path class="cls-1" d="M213.58 130.61h12.29v6.36h6.35l3.28 3.28 3.28 3.28 2.24-2.25 2.24-2.24h4.7l5 5.01 5.01 5.01V155.75h2.55v9.95H264.25l5.59 5.59 5.59 5.6h6.91v6.63l-7.8 7.8-7.8 7.81v25.83l-3.77 3.76-3.76 3.77v9.05h-3.1v7.59l-6.11 6.12-6.11 6.11h-9.32v-10.02l-3.04-3.03-3.04-3.04V203.96h-4.14v-13.95h-9.94V186.7H212.06l-3.41 3.42-3.42 3.41-2.35-2.34-2.34-2.35-5.11-5.11-5.11-5.11v-23.83l4.09-4.1 4.09-4.09v-10.05l2.42-2.42 2.43-2.43H213.72l-.07-.54-.07-.55zM279.57 219.57v18.1l-2.38 2.38-2.38 2.39h-4.9v-9.47l3.42-3.42 3.42-3.42V219.44l1.41.06 1.41.07zM392.65 216.4l-9.15 9.15-9.15 9.15H365.72v27.83H370.83l3.87-3.86 3.86-3.87h10.22l5.73 5.73 5.73 5.73h9.39l3.93-3.93 3.94-3.94v-21l-1.63-1.62-1.62-1.62v-9.46l-3.67-3.68-3.68-3.68h-3.76v9.01h-6.35v-9.53l-2.07-.21-2.07-.2zM425.5 267.09l-5.04 5.04-5.03 5.05v4.42H420.12l4.87-4.87 4.86-4.87-2.17-2.38-2.18-2.39zM428.54 263.36l1.9 1.9 1.9 1.9 1.24-1.24 1.24-1.24v-8.09l-1.74-1.74-1.74-1.74-1.13 1.12-1.12 1.12 1.21 1.21 1.21 1.21V260.74l-1.49 1.31-1.48 1.31zM414.6 212.11h-8.42l-4.66-4.66-4.66-4.66h-9.74v-4.21h5.11l2-2 2-2h6.48l6.94 6.94 6.94 6.94V212l-.74.07c-.41.01-.91.04-1.25.04zM381.6 194.43v8.7h-7.45v-2.76h-2.9v3.18h-2.9l-3.28-3.28-3.28-3.28v-5.6h5.04l3-3 3-3.01h2.14v9.05h6.63z"/><path class="cls-1" d="M352.06 191.95l5.55 5.56 5.56 5.56 3.66 3.66 3.66 3.66h6.14v2.42h-16.84l-10.29-10.3-10.28-10.29 2.79-2.79 2.8-2.8 1.27 1.28 1.28 1.27.83-.83.83-.82-1.9-1.9-1.9-1.9v-8.77h3.25v7.87l3.86 3.87 3.87 3.86-.62.7-.63.69H352.06zM107.09 46.15l4.48 4.48 4.47 4.47h4.54l1.74 1.74 1.73 1.74-3.27 3.28-3.28 3.28 4.26 4.27 4.27 4.26 2-2 2-1.99-1.27-1.27-1.27-1.27 1.76-1.77 1.77-1.77.73.73.73.72 1.56-1.56 1.56-1.56-3.1-3.1-3.1-3.1v-6.75l-3.79-3.79-3.78-3.79h-14.74v4.75z"/><path d="M220.44 90.21a4.85 4.85 0 101.42-3.43 4.83 4.83 0 00-1.42 3.43z" fill="#ffe700"/><path class="cls-3" d="M202.36 84.68a4.85 4.85 0 101.42-3.43 4.83 4.83 0 00-1.42 3.43zM84.2 173.93a4.85 4.85 0 101.42-3.43 4.83 4.83 0 00-1.42 3.43zM48.36 122.16a4.87 4.87 0 101.42-3.43 4.81 4.81 0 00-1.42 3.43zM226.48 119.06a4.85 4.85 0 101.42-3.43 4.83 4.83 0 00-1.42 3.43zM205.28 116.81a4.85 4.85 0 101.42-3.43 4.83 4.83 0 00-1.42 3.43zM218 106.23a4.85 4.85 0 101.42-3.43 4.83 4.83 0 00-1.42 3.43zM297.11 85.8a4.85 4.85 0 101.42-3.43 4.83 4.83 0 00-1.42 3.43zM274.6 155a4.84 4.84 0 104.85-4.85 4.85 4.85 0 00-4.85 4.85zM237.46 227.61a4.85 4.85 0 109.7 0 4.85 4.85 0 10-9.7 0zM151 227a4.85 4.85 0 101.42-3.43A4.83 4.83 0 00151 227zM310.34 152.67a4.85 4.85 0 101.42-3.43 4.83 4.83 0 00-1.42 3.43zM399.93 242.11a4.85 4.85 0 101.42-3.43 4.83 4.83 0 00-1.42 3.43z"/></svg>