<svg width="140" height="128" xmlns="http://www.w3.org/2000/svg">
  <g transform="translate(.068)" fill-rule="nonzero" fill="none">
    <ellipse fill="#081935" opacity=".2" style="mix-blend-mode:multiply" cx="71.04" cy="64.883" rx="62.668" ry="62.914"/>
    <path d="M136.438 63.097c-.007-21.042-10.513-40.682-27.981-52.31a62.335 62.335 0 0 0-58.888-5.516c-14.975 6.38-26.891 18.355-33.23 33.395-9.882 23.437-4.688 50.544 13.149 68.63 17.836 18.084 44.785 23.566 68.227 13.878 23.443-9.687 38.737-32.627 38.723-58.077z" fill="#33AFE2"/>
    <path d="M48.719 110.622c.033-.07.07-.138.112-.203.041-.058.086-.115.134-.168l5.08-5.11 5.09-5.1a.404.404 0 0 0 .079-.113l.067-.112a.598.598 0 0 0 0-.135.417.417 0 0 0 0-.124v-4.762c0-.15.03-.3.09-.438.056-.139.14-.265.246-.37.107-.112.237-.2.38-.26.139-.054.287-.081.436-.078h2.697a.458.458 0 0 0 .246-.1.246.246 0 0 0 .1-.08l2.015-2.021 1.98-2.034a.404.404 0 0 0 .078-.112l.068-.112a.598.598 0 0 0 0-.135.417.417 0 0 0 0-.124v-5.998a.665.665 0 0 0 0-.258.775.775 0 0 0-.146-.225.705.705 0 0 0-.224-.146.658.658 0 0 0-.257 0h-6.635l-.224-.078a1.319 1.319 0 0 1-.391-.281l-5.382-6.122-5.393-6.11a.426.426 0 0 0-.1-.101l-.135-.08H30.213a.77.77 0 0 0-.269.057.56.56 0 0 0-.212.146.809.809 0 0 0-.157.225.665.665 0 0 0 0 .258v.191a.462.462 0 0 0 0 .124.631.631 0 0 0 0 .134c.014.04.033.078.056.113a.27.27 0 0 0 .09.1l2.35 2.36 2.338 2.358c.054.055.103.115.145.18.043.06.081.124.112.191.005.075.005.15 0 .225a.733.733 0 0 1 0 .224v6.886a.564.564 0 0 0 0 .135.395.395 0 0 0 0 .123.439.439 0 0 0 .067.124l.078.101 1.98 1.988 1.981 1.988c.032.036.07.067.112.09h1.79c.15 0 .299.031.437.09.28.114.501.337.615.618.059.138.09.287.09.438v27.946a.158.158 0 0 1 0 .102s0 .056-.068.078c1.082.652 2.2 1.27 3.357 1.854a54.548 54.548 0 0 0 3.446 1.662v-9.581a1.534 1.534 0 0 1 0-.225l.168-.213z" fill="#023852"/>
    <path d="M74.632 58.997H76.053l.134-.068.123-.18.459-.46.447-.45a.84.84 0 0 1 .19-.156.872.872 0 0 1 .224-.124.914.914 0 0 1 .481-.067h3.939l.145-.068.123-.1 2.507-2.528 2.517-2.528a.348.348 0 0 0 .1-.123.843.843 0 0 0 .08-.135.834.834 0 0 0 0-.157.688.688 0 0 0 0-.157v-4.179a.744.744 0 0 0 0-.157.564.564 0 0 0 0-.146.607.607 0 0 0-.08-.146.494.494 0 0 0-.1-.124l-.425-.427-.425-.393-.123-.1-.135-.068H77.541a1.784 1.784 0 0 0-.638.123c-.403.18-.726.505-.906.91-.08.204-.122.421-.123.64v4.64a2.03 2.03 0 0 1 0 .247 1.87 1.87 0 0 1-.067.235 1.327 1.327 0 0 1-.123.214 1.29 1.29 0 0 1-.157.19l-.716.73-.716.72a.348.348 0 0 0-.1.123.843.843 0 0 0-.08.135.733.733 0 0 0 0 .146.8.8 0 0 0 0 .157v3.022a.744.744 0 0 0 0 .315.977.977 0 0 0 .18.258c.072.075.16.133.257.168a.67.67 0 0 0 .28.068z" fill="#003A5D"/>
    <path d="M11.684 58.446l5.259 5.28 5.259 5.268a.302.302 0 0 0 .09.078l.1.057c.04.01.083.01.123 0h4.957a.602.602 0 0 0 .235 0 .684.684 0 0 0 .324-.326.586.586 0 0 0 0-.236V63.77a1.127 1.127 0 0 1 .324-.764c.1-.1.218-.18.347-.236.133-.05.273-.076.414-.079h9.712a.302.302 0 0 0 .09-.078l1.264-1.27 1.253-1.258.078-.213a.461.461 0 0 0 .056-.101.214.214 0 0 0 0-.113.462.462 0 0 0 0-.123v-3.033c0-.143.031-.285.09-.415.052-.135.132-.258.235-.36a.884.884 0 0 1 .347-.225c.13-.058.27-.089.414-.09H47.88l.1-.056a.302.302 0 0 0 .09-.078l2.618-2.696 2.596-2.606.078-.101V49.663a.462.462 0 0 0 0-.124v-6.032a.462.462 0 0 0 0-.123V43.17l-.045-.147-3.043-3.055-3.043-3.01-.1-.08-.102-.055h-4.822a.513.513 0 0 0-.235 0 .617.617 0 0 0-.336.337.519.519 0 0 0 0 .236v4.976c-.004.141-.03.282-.078.415-.113.262-.32.47-.582.584a1.293 1.293 0 0 1-.414.079h-8l-.19-.101-.168-.135-1.286-1.303-1.287-1.292a.494.494 0 0 1-.134-.168.573.573 0 0 1-.101-.18.72.72 0 0 1-.067-.202 1.387 1.387 0 0 1 0-.214v-2.83a1.252 1.252 0 0 1 0-.214.72.72 0 0 1 .067-.202.63.63 0 0 1 .1-.19.887.887 0 0 1 .135-.17l3.01-3.02 3.01-3.022.078-.101a.461.461 0 0 0 .056-.101.214.214 0 0 0 0-.113.507.507 0 0 0 0-.123v-5.965a.519.519 0 0 0 0-.236.404.404 0 0 0-.135-.202.738.738 0 0 0-.19-.135.58.58 0 0 0-.235 0H26.89l-.84.326-.85.337H25A62.941 62.941 0 0 0 11.528 58.39h.1a.135.135 0 0 1 .056.056zM114.05 28.186a.468.468 0 0 1-.168 0H110.022a.1.1 0 0 0-.068 0l-.335.337-.347.337a.815.815 0 0 1-.593.247.837.837 0 0 1-.604-.247l-1.813-1.82-1.868-1.64a.1.1 0 0 0-.067 0h-7.978a.1.1 0 0 0-.067 0 .111.111 0 0 0-.056 0l-4.319 4.325-4.42 4.313a.113.113 0 0 0 0 .056v.068a.158.158 0 0 0 0 .067.192.192 0 0 0 0 .079v2.954a.316.316 0 0 0 0 .146c.016.047.043.09.079.123.033.04.075.07.123.09.048.01.098.01.145 0h.862a.3.3 0 0 0 .145 0 .358.358 0 0 0 .135-.09.46.46 0 0 0 .078-.123.316.316 0 0 0 0-.146v-.742a1.049 1.049 0 0 1 0-.325.91.91 0 0 1 .19-.27.803.803 0 0 1 .593-.258h1.667c.056.02.108.046.157.078.046.032.088.07.123.113l.929.932.928.921c.037.042.071.087.101.135a.607.607 0 0 1 .078.146.88.88 0 0 1 0 .157.857.857 0 0 1 0 .169v.977a.811.811 0 0 1-.067.326.753.753 0 0 1-.179.28.917.917 0 0 1-.604.248h-1.119a.803.803 0 0 1-.324-.068.872.872 0 0 1-.459-.46 1.049 1.049 0 0 1 0-.326.35.35 0 0 0 0-.146.46.46 0 0 0-.078-.124.324.324 0 0 0-.135-.078.312.312 0 0 0-.145 0h-1.801l-1.332 1.336-1.32 1.326v2.022l1.354 1.64 1.41 1.415h4.777l.145.067c.047.032.088.07.124.113l.66.662.66.663.1.124c.03.046.057.095.079.146.003.052.003.105 0 .157v8.761a.316.316 0 0 0 0 .146c.015.047.042.09.078.124.033.04.075.07.123.09.048.01.098.01.146 0h3.882l.985-.989.996-.988a.583.583 0 0 1 .123-.113l.145-.078h2.495v-.056l.739-.742.75-.741a.583.583 0 0 1 .122-.112l.146-.079h4.005l.146.079c.046.031.087.069.123.112l1.052 1.056 1.051 1.044c.037.043.071.088.101.135a.607.607 0 0 1 .078.146.88.88 0 0 1 0 .158.857.857 0 0 1 0 .168v1.595a.811.811 0 0 1-.067.326.774.774 0 0 1-.459.46.758.758 0 0 1-.324.068h-9.846a.346.346 0 0 0-.145 0 .336.336 0 0 0-.202.202.35.35 0 0 0 0 .146v.854a.17.17 0 0 0 0 .078.214.214 0 0 0 0 .079v.123l5.147 5.156 5.136 5.167h1.096l3.681-3.695 3.681-3.696a.583.583 0 0 1 .123-.112l.146-.079h5.516a.98.98 0 0 1 .324 0c.105.044.2.109.28.191.08.075.14.167.179.27a.868.868 0 0 1 .067.337v2.965a.17.17 0 0 0 0 .079.282.282 0 0 0 0 .078v.068l1.331 1.325 1.612 1.393h1.119a.758.758 0 0 1 .324.067c.105.04.2.101.28.18.08.08.14.175.179.28a.811.811 0 0 1 .067.327v7.47a.316.316 0 0 0 0 .145c.015.051.042.097.078.135.037.033.078.06.123.079.048.01.098.01.146 0h1.89a.19.19 0 0 1 .146 0 .259.259 0 0 1 .067.135 62.986 62.986 0 0 0 1.533-7.863c.36-2.711.54-5.443.537-8.178a62.74 62.74 0 0 0-15.742-41.672l-3.279 3.493-3.278 3.291-.123.101-.145.079z" fill="#023852"/>
    <path d="M69.709 19.975h-6.4a1.696 1.696 0 0 1-.224-.068l-.212-.112-.18-.146-1.342-1.337-1.354-1.347a.482.482 0 0 0-.112-.102l-.123-.067h-5.08a.836.836 0 0 1-.235 0 .736.736 0 0 1-.223-.067.581.581 0 0 1-.202-.113.784.784 0 0 1-.19-.146l-.212-.213-.213-.214a.537.537 0 0 0-.123-.1l-.134-.068a.502.502 0 0 0-.123 0h-1.332l-.112.056a.818.818 0 0 0-.1.09l-2.238 2.247-2.238 2.246-.1.112-.068.124v.146a.564.564 0 0 0 0 .135v3.594a.564.564 0 0 0 0 .135v.135l.067.135.101.112.862.876.872.876a1.125 1.125 0 0 1 .269.382l.067.225a1.68 1.68 0 0 1 0 .236v4.672a.553.553 0 0 0 0 .135.733.733 0 0 0 0 .146.337.337 0 0 0 .067.124l.09.112 3.21 3.224 3.223 3.235c.029.01.06.01.09 0h.134a.214.214 0 0 0 0-.101v-3a1.68 1.68 0 0 1 0-.235 1.282 1.282 0 0 1 .179-.438c.045-.063.093-.123.145-.18l1.902-1.898 1.902-1.91a.728.728 0 0 1 .18-.146.905.905 0 0 1 .2-.112.848.848 0 0 1 .225-.068.836.836 0 0 1 .235 0h2.965a.557.557 0 0 0 .145 0l.123-.067a.908.908 0 0 0 .112-.101l2.965-2.977 2.965-2.976a.438.438 0 0 0 .09-.113l.067-.123a.631.631 0 0 0 0-.135.643.643 0 0 0 0-.146v-3.954a.79.79 0 0 0 0-.28.717.717 0 0 0-.392-.394.78.78 0 0 0-.19-.056zM80.74 41.687H83.349l.649-.651.649-.652v-.123a.722.722 0 0 1 0-.079v-2.774a.35.35 0 0 0 0-.146.314.314 0 0 0-.09-.124.235.235 0 0 0-.123-.078.312.312 0 0 0-.145 0h-1.925l-.996.988-.984 1v.067a.158.158 0 0 0 0 .068.226.226 0 0 0 0 .078v1.91a.35.35 0 0 0 0 .146.336.336 0 0 0 .201.202.348.348 0 0 0 .157.168zM114.542 74.284h-2.663a1.717 1.717 0 0 1-.481-.1 1.385 1.385 0 0 1-.224-.113 1.367 1.367 0 0 1-.19-.169l-6.243-6.267-6.255-6.28-.123-.1a.58.58 0 0 0-.145-.068.312.312 0 0 0-.146 0h-.157l-12.15.124-12.151.123h-.269l-.134.068-.112.078-1.03.899-1.029.887-.123.135a.607.607 0 0 0-.078.146.383.383 0 0 0 0 .157.868.868 0 0 0 0 .169v7.02c0 .104.019.207.056.303.042.1.103.192.179.27.076.07.163.127.257.168a.736.736 0 0 0 .302.068h.28c.165-.006.33.024.481.09.155.065.296.16.414.28.118.114.21.252.269.405.066.152.1.317.1.483v2.864a.688.688 0 0 0 0 .157v.146c.02.053.046.102.079.147l.1.123 2.406 2.415 2.405 2.415.124.101.134.068h12.542c.165-.004.329.026.481.09.154.068.294.163.414.28.112.118.203.255.269.405.066.152.1.316.1.483v15.58a.8.8 0 0 0 0 .156.733.733 0 0 0 0 .146.843.843 0 0 0 .079.135.494.494 0 0 0 .09.124l2.752 2.752 2.741 2.763.123.101.134.067h4.778a.707.707 0 0 0 .302-.067.783.783 0 0 0 .257-.168.743.743 0 0 0 .235-.573v-4.493a1.85 1.85 0 0 1 0-.247c.021-.08.048-.16.079-.236.03-.078.068-.154.112-.225a1.29 1.29 0 0 1 .156-.19l2.562-2.416 2.45-2.392.101-.124.068-.135a.834.834 0 0 0 0-.157.665.665 0 0 0 0-.157V81.81a1.42 1.42 0 0 1 .09-.483c.137-.304.38-.547.682-.685.152-.063.316-.094.48-.09h1.422l.145-.067.123-.101 1.421-1.427 1.421-1.427.1-.123.068-.146a.564.564 0 0 0 0-.146.767.767 0 0 0 0-.157v-1.876a.676.676 0 0 0-.067-.304.843.843 0 0 0-.168-.27.928.928 0 0 0-.425-.224z" fill="#003A5D"/>
    <path d="M70.391 24.625a.643.643 0 0 1 0 .146.631.631 0 0 1 0 .135l-.123.146a.438.438 0 0 1-.09.112l-2.964 2.977-2.965 2.977a.908.908 0 0 1-.112.1l-.123.068a.557.557 0 0 1-.146 0h-2.964a.836.836 0 0 0-.236 0 .848.848 0 0 0-.223.067.905.905 0 0 0-.202.113.728.728 0 0 0-.179.146l-1.902 1.91-1.88 1.954c-.051.057-.1.117-.145.18a1.282 1.282 0 0 0-.18.438 1.68 1.68 0 0 0 0 .235v2.977a.214.214 0 0 1 0 .101h-.133a.134.134 0 0 1-.09 0l-3.222-3.235-3.29-3.257-.09-.113a.337.337 0 0 1-.066-.123.733.733 0 0 1 0-.146.553.553 0 0 1 0-.135V27.77a1.68 1.68 0 0 0 0-.236l-.067-.224a1.125 1.125 0 0 0-.269-.382l-.873-.876-.861-.876-.1-.113-.068-.135v-.134a.564.564 0 0 1 0-.135v-3.595a.564.564 0 0 1 0-.134v-.146l.067-.124.1-.112 2.239-2.247 2.237-2.246a.818.818 0 0 1 .101-.09l.112-.056h1.332a.502.502 0 0 1 .122 0l.135.067a.537.537 0 0 1 .123.101l.212.214.213.213c.055.058.12.107.19.146.06.05.128.089.202.112.07.035.146.057.223.068a.836.836 0 0 0 .235 0h5.08l.123.067c.042.028.08.062.112.101l1.365 1.314 1.343 1.36.179.146.212.112c.073.028.148.05.224.067h6.4a.717.717 0 0 1 .671.45.79.79 0 0 1 0 .28v3.92l.011-.022zM115.347 76.89a.767.767 0 0 1 0 .157.564.564 0 0 1 0 .146l-.067.147-.1.123-1.421 1.427-1.533 1.426-.123.101-.146.068h-1.421a1.182 1.182 0 0 0-.48.09 1.379 1.379 0 0 0-.683.685 1.42 1.42 0 0 0-.09.483v11.142a.665.665 0 0 1 0 .158.834.834 0 0 1 0 .157l-.067.135-.1.123-2.485 2.505-2.439 2.449a1.29 1.29 0 0 0-.156.19 1.395 1.395 0 0 0-.112.225 1.937 1.937 0 0 0-.079.236 1.85 1.85 0 0 0 0 .247v4.493a.743.743 0 0 1-.235.573.783.783 0 0 1-.257.169.707.707 0 0 1-.302.067h-4.778l-.134-.067-.123-.101-2.797-2.797-2.752-2.752a.494.494 0 0 1-.09-.124.843.843 0 0 1-.078-.135.733.733 0 0 1 0-.146.8.8 0 0 1 0-.157V82.8c0-.167-.034-.331-.101-.483a1.416 1.416 0 0 0-.268-.405 1.42 1.42 0 0 0-.414-.28 1.182 1.182 0 0 0-.482-.09H78.358l-.135-.068-.123-.101-2.405-2.415-2.406-2.415-.1-.124a.607.607 0 0 1-.079-.146v-.146a.688.688 0 0 1 0-.157v-2.932c0-.166-.034-.33-.1-.483a1.124 1.124 0 0 0-.27-.404 1.286 1.286 0 0 0-.413-.28 1.115 1.115 0 0 0-.481-.09h-.28a.736.736 0 0 1-.302-.068.928.928 0 0 1-.257-.168.876.876 0 0 1-.18-.27.857.857 0 0 1-.055-.303v-7.02a.868.868 0 0 1 0-.17.383.383 0 0 1 0-.156.607.607 0 0 1 .078-.146l.123-.135 1.03-.888 1.029-.898.112-.079.134-.067h.269l12.15-.124 12.151-.123h.157a.312.312 0 0 1 .145 0 .58.58 0 0 1 .146.067l.123.101 6.254 6.28 6.244 6.267c.058.062.121.118.19.168.071.044.146.082.224.113.154.056.316.09.48.1h2.664a.736.736 0 0 1 .313 0 .928.928 0 0 1 .257.17c.073.078.13.17.168.269a.676.676 0 0 1 .067.303v1.809l.067.078z" fill="#023852"/>
    <path d="M134.48 79.339v-.067a.327.327 0 0 0 0-.102.327.327 0 0 0 0 .102v.067z" fill="#003A5D"/>
    <path d="M73.837 55.1a.8.8 0 0 1 0-.158.733.733 0 0 1 0-.146.843.843 0 0 1 .079-.135.348.348 0 0 1 .1-.124l.717-.718.716-.73a1.29 1.29 0 0 0 .156-.192c.048-.067.089-.138.123-.213a1.87 1.87 0 0 0 .067-.236 2.03 2.03 0 0 0 0-.247v-4.684c.001-.22.043-.436.124-.64.18-.405.502-.73.906-.91.203-.08.42-.122.638-.124h8.682l.134.068.123.1.437.439.425.427c.04.035.074.077.1.123a.607.607 0 0 1 .079.146.564.564 0 0 1 0 .146c.07.064.127.14.168.225v4.055a.688.688 0 0 1 0 .157.834.834 0 0 1 0 .158.843.843 0 0 1-.079.134.348.348 0 0 1-.1.124l-2.518 2.527-2.506 2.528-.123.1-.146.068h-4.027a.914.914 0 0 0-.482.067.872.872 0 0 0-.223.124.84.84 0 0 0-.19.157l-.448.45-.459.584-.123.1-.134.068H74.63a.67.67 0 0 1-.301-.067.68.68 0 0 1-.258-.101.977.977 0 0 1-.179-.259.744.744 0 0 1 0-.314v-3.078h-.056zM80.36 39.396a.226.226 0 0 1 0-.079.158.158 0 0 1 0-.067v-.067l.985-1 .996-.989h1.924a.312.312 0 0 1 .146 0c.048.013.091.04.123.079.04.033.07.076.09.124a.35.35 0 0 1 0 .146V40.205a.722.722 0 0 0 0 .078v.124l-.65.651-.649.652h-2.584a.346.346 0 0 1-.146 0 .336.336 0 0 1-.201-.202.35.35 0 0 1 0-.146v-1.91l-.034-.056z" fill="#023852"/>
    <path d="M118.156 18.66a62.865 62.865 0 0 0-6.232-5.47 61.328 61.328 0 0 0-6.926-4.605c16.075 21.411 16.822 50.71 1.86 72.92-14.964 22.208-42.33 32.418-68.108 25.41a61.807 61.807 0 0 1-14.713-6.122c.872 1.123 1.79 2.247 2.74 3.37.952 1.123 1.948 2.168 2.977 3.201 15.694 16.317 38.938 22.863 60.796 17.12 21.857-5.743 38.927-22.88 44.648-44.823 5.72-21.944-.8-45.278-17.053-61.034l.01.034z" fill="#0099DA" opacity=".5" style="mix-blend-mode:multiply"/>
    <path d="M42.789 53.762h-4.476a.669.669 0 0 0-.268 0 .671.671 0 0 0-.235.158l-.683.674-.67.685a.671.671 0 0 1-.236.157.68.68 0 0 1-.268 0h-2.35a.669.669 0 0 0-.269 0 .671.671 0 0 0-.235.157l-.425.427-.414.416a.71.71 0 0 0-.156.775c.106.266.363.44.649.438h12.766A.71.71 0 0 0 46 56.436l-1.365-1.168-1.365-1.303a.705.705 0 0 0-.224-.146.658.658 0 0 0-.257-.057zM100.489 113.149h-4.476a.669.669 0 0 0-.268 0 .671.671 0 0 0-.235.157l-.671.674-.683.685a.738.738 0 0 1-.224.158.769.769 0 0 1-.28 0h-2.349a.669.669 0 0 0-.269 0 .671.671 0 0 0-.235.157l-.414.427-.425.415a.71.71 0 0 0-.156.775c.106.266.363.44.649.438h12.822a.671.671 0 0 0 .649-.438.687.687 0 0 0-.168-.775l-1.365-1.314-1.365-1.303a.593.593 0 0 0-.224-.146.658.658 0 0 0-.313.09zM14.549 67.567H8.563a.97.97 0 0 0-.358.068 1.42 1.42 0 0 0-.302.202l-.85.91-.896.898a.895.895 0 0 1-.66.27h-3.11a.981.981 0 0 0-.66.28l-.56.562-.548.562a.89.89 0 0 0-.202 1.022c.14.353.484.581.862.573h16.895a.94.94 0 0 0 .861-.595.924.924 0 0 0-.223-1.023l-1.813-1.73-1.801-1.74a1.118 1.118 0 0 0-.302-.191.903.903 0 0 0-.347-.068zM102.883 40.137h22.657c.511.01.976-.296 1.171-.77a1.25 1.25 0 0 0-.287-1.375l-.414-.416-.425-.427a1.119 1.119 0 0 0-.403-.27 1.193 1.193 0 0 0-.48-.1h-1.511a1.36 1.36 0 0 1-.481-.09 1.242 1.242 0 0 1-.403-.28l-.985-.99-.984-.988a1.253 1.253 0 0 0-.414-.27 1.115 1.115 0 0 0-.482-.1h-5.818c-.162-.001-.322.033-.47.1a1.253 1.253 0 0 0-.414.27l-1.991 2-1.992 1.999c-.114.12-.251.215-.403.28a1.405 1.405 0 0 1-.48.09h-3.357c-.195 0-.387.046-.56.135a1.333 1.333 0 0 0-.447.382l-.302.416-.325.404zM128.774 109.6h-22.657a1.253 1.253 0 0 1-1.154-.778 1.262 1.262 0 0 1 .27-1.368l.425-.427.425-.415c.115-.12.251-.215.403-.281.154-.058.317-.089.481-.09h1.51c.166 0 .33-.034.482-.101.152-.06.29-.152.402-.27l.985-.988.985-.989c.116-.114.253-.205.402-.27.152-.066.316-.1.482-.1h5.818c.166-.003.33.032.48.1.153.06.29.152.404.27l2.002 2.033 1.992 2c.114.12.251.215.403.28.153.06.316.09.48.09h3.357c.199 0 .394.046.571.135.176.092.33.222.448.382l.302.416.302.37zM118.637 27.916h20.699l-.526-.528-.526-.528a.903.903 0 0 0-.638-.258h-1.186a.903.903 0 0 1-.346-.067.76.76 0 0 1-.291-.203l-.19-.18-.18-.19a.97.97 0 0 0-.638-.27h-6.713a.983.983 0 0 0-.637.27l-.347.348-.358.348a.87.87 0 0 1-.638.27h-5.583l-.19.078-.884.439-.828.471zM40.999 61.985h20.688l-.515-.528-.526-.528a.903.903 0 0 0-.638-.258h-1.186a.903.903 0 0 1-.347-.068.76.76 0 0 1-.29-.202l-.19-.18-.18-.19a1.06 1.06 0 0 0-.637-.27h-6.714a.87.87 0 0 0-.335.078.727.727 0 0 0-.291.191l-.358.348-.347.349a.76.76 0 0 1-.291.202.903.903 0 0 1-.347.067h-5.583l-.19.079-.884.438-.84.472z" fill="#FFFBFF" opacity=".8"/>
    <path d="M79.711 67.073a1.188 1.188 0 0 0-1.118-1.123 1.117 1.117 0 0 0-.817.348c-.22.215-.34.512-.336.82 0 .62.501 1.123 1.12 1.123.306.005.601-.117.816-.337.222-.218.343-.52.335-.831zM22.146 34.6c0-.62-.501-1.124-1.12-1.124a1.195 1.195 0 0 0-.816.337 1.183 1.183 0 0 0 0 1.652c.22.212.512.333.817.337.618 0 1.119-.503 1.119-1.124V34.6zM26.498 59.873c0-.62-.5-1.123-1.119-1.123a1.195 1.195 0 0 0-.816.337 1.183 1.183 0 0 0 0 1.65c.22.214.511.334.816.338.618 0 1.12-.503 1.12-1.123v-.08zM79.555 48.64a1.126 1.126 0 0 0-.336-.82 1.117 1.117 0 0 0-.817-.348 1.188 1.188 0 0 0-1.118 1.123c-.002.31.123.607.346.82.215.22.51.342.817.337.307.005.602-.117.817-.337.192-.211.296-.489.29-.775zM96.248 44.462a1.125 1.125 0 0 0-.347-.82 1.117 1.117 0 0 0-.816-.337c-.618 0-1.12.503-1.12 1.123-.004.32.126.626.359.843.213.224.508.35.817.348a1.188 1.188 0 0 0 1.119-1.123l-.012-.034zM49.86 81.215a1.182 1.182 0 0 0-.336-.82 1.172 1.172 0 0 0-1.644 0c-.214.219-.335.513-.336.82a1.16 1.16 0 0 0 1.158 1.162c.64 0 1.158-.52 1.158-1.162zM109.306 64.051a1.204 1.204 0 0 0-.336-.82 1.16 1.16 0 0 0-1.946.524 1.17 1.17 0 0 0 .301 1.128c.313.386.842.52 1.3.327.458-.192.735-.663.68-1.159zM58.52 23.367a1.126 1.126 0 0 0-.336-.82 1.116 1.116 0 0 0-1.224-.23c-.417.18-.685.595-.678 1.05.002.307.122.601.336.82.457.45 1.188.45 1.645 0 .19-.228.283-.523.257-.82zM45.955 41.07c0-.62-.5-1.124-1.119-1.124a1.117 1.117 0 0 0-.816.337c-.383.313-.515.841-.327 1.299.188.458.652.738 1.143.69.305-.004.598-.125.817-.337.219-.233.329-.547.302-.865zM96.998 67.444a1.125 1.125 0 0 0-.347-.82 1.117 1.117 0 0 0-.817-.337c-.618 0-1.119.503-1.119 1.123-.004.308.117.604.336.82.213.224.509.35.817.348a1.188 1.188 0 0 0 1.119-1.123l.011-.011zM91.348 42.283a1.188 1.188 0 0 0-1.12-1.124 1.117 1.117 0 0 0-.816.349c-.22.215-.34.512-.336.82-.004.308.117.604.336.82.215.22.51.341.817.337.307.004.602-.117.817-.337.218-.232.328-.547.302-.865zM47.813 45.068a1.121 1.121 0 0 0-1.936-.775 1.125 1.125 0 0 0 0 1.64c.457.45 1.188.45 1.645 0 .208-.237.313-.549.29-.865zM94.19 33.544a1.126 1.126 0 0 0-.336-.831 1.172 1.172 0 0 0-.817-.337 1.118 1.118 0 0 0-1.144.69c-.188.457-.055.985.327 1.298.215.22.51.342.817.337.307.005.602-.117.817-.337.22-.216.34-.512.336-.82z" fill="#FFE700"/>
  </g>
</svg>
