<svg id="Layer_1" data-name="Layer 1" xmlns="http://www.w3.org/2000/svg" viewBox="0 0 440 330"><defs><style>.cls-1{fill:#e2e6e9;}.cls-2{fill:#f5f7f8;}.cls-3{fill:#ffe700;}.cls-4{fill:#023852;}.cls-5{fill:#4e7486;}.cls-6{fill:#000d2e;}.cls-7{fill:#9dadb7;}.cls-8{fill:#fff;}</style></defs><metadata><?xpacket begin="﻿" id="W5M0MpCehiHzreSzNTczkc9d"?>
<x:xmpmeta xmlns:x="adobe:ns:meta/" x:xmptk="Adobe XMP Core 5.6-c148 79.163858, 2019/03/06-03:18:36        ">
   <rdf:RDF xmlns:rdf="http://www.w3.org/1999/02/22-rdf-syntax-ns#">
      <rdf:Description rdf:about=""
            xmlns:xmp="http://ns.adobe.com/xap/1.0/"
            xmlns:xmpMM="http://ns.adobe.com/xap/1.0/mm/"
            xmlns:stEvt="http://ns.adobe.com/xap/1.0/sType/ResourceEvent#">
         <xmp:MetadataDate>2019-08-01T15:31:34+02:00</xmp:MetadataDate>
         <xmpMM:InstanceID>xmp.iid:7b5e6b38-e8a6-4019-a7d7-883cd4ca655d</xmpMM:InstanceID>
         <xmpMM:DocumentID>xmp.did:7b5e6b38-e8a6-4019-a7d7-883cd4ca655d</xmpMM:DocumentID>
         <xmpMM:OriginalDocumentID>xmp.did:7b5e6b38-e8a6-4019-a7d7-883cd4ca655d</xmpMM:OriginalDocumentID>
         <xmpMM:History>
            <rdf:Seq>
               <rdf:li>
                  <rdf:Description>
                     <stEvt:action>saved</stEvt:action>
                     <stEvt:instanceID>xmp.iid:7b5e6b38-e8a6-4019-a7d7-883cd4ca655d</stEvt:instanceID>
                     <stEvt:when>2019-08-01T15:31:34+02:00</stEvt:when>
                     <stEvt:softwareAgent>Adobe Bridge 2019 (Macintosh)</stEvt:softwareAgent>
                     <stEvt:changed>/metadata</stEvt:changed>
                  </rdf:Description>
               </rdf:li>
            </rdf:Seq>
         </xmpMM:History>
      </rdf:Description>
   </rdf:RDF>
</x:xmpmeta>
                                                                                                    
                                                                                                    
                                                                                                    
                                                                                                    
                                                                                                    
                                                                                                    
                                                                                                    
                                                                                                    
                                                                                                    
                                                                                                    
                                                                                                    
                                                                                                    
                                                                                                    
                                                                                                    
                                                                                                    
                                                                                                    
                                                                                                    
                                                                                                    
                                                                                                    
                                                                                                    
                           
<?xpacket end="w"?></metadata>
<path class="cls-1" d="M300.35,1.91,92.93,2.58a6,6,0,0,0-6,6l.33,120.61v.06l0,9.61h0l.55,175.24a5,5,0,0,0,5,5l208.45-.67a6,6,0,0,0,6-6L306.35,7.88A6,6,0,0,0,300.35,1.91Z"/><path class="cls-2" d="M105.66,330.59l209.47-.69a5,5,0,0,0,5-5l-.58-186.19-219.45.71.59,186.19A5,5,0,0,0,105.66,330.59Z"/><rect class="cls-3" x="99.92" y="13.04" width="219.39" height="135.7" transform="translate(-0.26 0.68) rotate(-0.19)"/><polygon class="cls-4" points="210.04 118.95 198.05 131 175.85 108.93 136.05 148.9 242.1 148.64 210.04 118.95"/><path class="cls-4" d="M140.44,76.29a14,14,0,1,0,11.42-11.47A14,14,0,0,0,140.44,76.29Z"/><rect class="cls-4" x="136.06" y="176.5" width="112.27" height="11.61" transform="matrix(1, 0, 0, 1, -0.52, 0.55)"/><polygon class="cls-4" points="239.62 201.18 239.62 212.78 136.08 213.08 136.05 201.48 239.62 201.18"/><rect class="cls-5" x="136.06" y="241.14" width="72.61" height="11.61" transform="matrix(1, 0, 0, 1, -0.7, 0.49)"/><rect class="cls-5" x="136.06" y="265.96" width="72.61" height="11.61" transform="matrix(1, 0, 0, 1, -0.77, 0.49)"/><rect class="cls-5" x="136.06" y="290.26" width="72.61" height="11.61" transform="matrix(1, 0, 0, 1, -0.84, 0.49)"/><path class="cls-4" d="M314.09,329.53s0-.11,0-.16,0,.11,0,.16Z"/><polygon class="cls-6" points="248.35 212.76 239.62 212.78 239.62 201.18 248.32 201.16 248.35 212.76"/><path class="cls-1" d="M338.1,194.29v122.3H327.26s-10.89.6-12.73,10.33a.47.47,0,0,1-.91,0c-3.68-10.85-12.7-10.32-12.74-10.33H245.55a5.94,5.94,0,0,1-5.93-5.94V212.78l8.73,0,0-11.6-8.7,0v-1a5.93,5.93,0,0,1,5.93-5.93Z"/><path class="cls-4" d="M314.76,311.31c0-.05,0-.09,0-.14s0,.09,0,.14Z"/><path class="cls-7" d="M385.28,176.78H275.78a4.69,4.69,0,0,0-4.69,4.7v114.9a4.69,4.69,0,0,0,4.69,4.69h28.53s7.16-.41,10.07,8.17a.37.37,0,0,0,.72,0c1.46-7.7,10-8.16,10.07-8.17h60.11a4.69,4.69,0,0,0,4.69-4.69V181.48A4.69,4.69,0,0,0,385.28,176.78Z"/><path class="cls-8" d="M309.23,270.94v-63.6H336v15.78h15.39v47.82Zm32.53-53.62v-5.87l5.88,5.87Zm0-14.07v-.35h-.35l-1.35-1.35H303.42v75.19h53.72V218.61Z"/></svg>