<svg viewBox="0 0 132 132" xmlns="http://www.w3.org/2000/svg"><path d="M107 97.4c-.4.4-.9.8-1.1.7h-.5a1.9 1.9 0 0 1-1.7-1.2l-4.1-11.5a1.9 1.9 0 0 1 0-1.3l1.7-4.6v-1.4l-2.5-5.6a2 2 0 0 1-.1-1l.3-2.6a1.9 1.9 0 0 0-1-1.9l-2.8-1.5a1.9 1.9 0 0 0-1.2-.2l-7.1 1.4c-.6 0-1 0-1.5-.4l-4.6-4.1c-.4-.4-.3-.9-.3-1.5v-8.4c0-.4-.2-.8 0-1.2l5.6-7.4a1.9 1.9 0 0 1 1-.7l5-1.5h.2l4.4-.8c.5-.1 1 0 1.4.3.4.3.7.7.7 1.2 0 .7.5 1.2 1 1.5l3.7 1.6a2 2 0 0 0 2.3-.6l.1-.2a1.9 1.9 0 0 1 2-.7l3.6 1c.4.2.8.2 1.2 0h.2c.1 0 .4.3.7.8a51.6 51.6 0 0 1 4.1 20.4 51.5 51.5 0 0 1-5.6 23.4 52 52 0 0 1-5.1 8zM80.1 36.6l.5-2.3a2.5 2.5 0 0 1 2.5-2l2.4.1a2.3 2.3 0 0 0 2.3-1.7 2.3 2.3 0 0 0-.2-1.8 2.3 2.3 0 0 1 .5-3.1L92 23c.3-.3.8-.4 1.2-.5h.4c.2 0 .8.2 1.2.5a52 52 0 0 1 14.3 14.3c.3.5.1.9-.4.8h-.9a2.5 2.5 0 0 0-1.2.3l-3.4 1.7a2 2 0 0 1-1.3 0 2 2 0 0 1-1.3-2.5l.1-.4a2.5 2.5 0 0 0-.7-2.8l-1.4-1.2a2.5 2.5 0 0 0-1.5-.6h-1.8a2.5 2.5 0 0 0-1.7.5l-7.3 6.2a2.5 2.5 0 0 1-2 .6l-2.1-.3a2.5 2.5 0 0 1-1.7-1 2.5 2.5 0 0 1-.4-2zm-3.9-18l-5.6 4.6c-.5.4-1.2.5-1.8.3l-1.1-.4a1.9 1.9 0 0 1-1.3-2l.5-5.6-.3-.7c-.3-.3 0-.5.6-.5a51.6 51.6 0 0 1 15.5 2.9v.4c-.4.3-1 .8-1.4.8h-3.8c-.5 0-1-.1-1.3.2zm-8.1 59a5 5 0 0 1-.5 2l-4 8.7a1.4 1.4 0 0 1-.2.3l-5.6 8-1.2 1.7-2.8 4a1.9 1.9 0 0 0-.3 1l-.3 3.6c0 .3 0 .6.2 1l1.8 3.9a1 1 0 0 1-.1 1l-.1.1a1 1 0 0 1-1.2.2l-6-3.4a2 2 0 0 1-.9-1l-2.6-7.9a2 2 0 0 1 0-.4l-1-14.3a2 2 0 0 0-.9-1.5l-3.2-2a2 2 0 0 1-.8-1.1l-2.6-8.7a1.9 1.9 0 0 1 .2-1.4l.9-1.8a1.9 1.9 0 0 0 0-1.6 1.9 1.9 0 0 0-1.2-1l-1-.4a2 2 0 0 1-1-.6l-2.9-3.7a2 2 0 0 0-.8-.6L24.8 60l-.6-.3-5.6-4.5a1.9 1.9 0 0 1-.7-1.2l-.7-3.4c-.1-.6 0-1.5.1-2L18 47a51.9 51.9 0 0 1 29.5-29.3c.5-.2 1.2-.1 1.4.2l.3.6a2 2 0 0 1-.4 1.6l-.6.7a2 2 0 0 1-.6.5l-4 2.1a1.9 1.9 0 0 0-1.1 1.8c0 .7.4 1.4 1.1 1.7l1 .4c.4.2.7.5.8.9.2.5.7.9 1.3 1a1.7 1.7 0 0 0 1.5-.6l1.2-1.4.2-.3 1.8-3a2 2 0 0 1 2.2-.9l1.7.6c.3 0 .6.3.8.5l1.9 2.1.4.8.4 1.6a1.9 1.9 0 0 1-.2 1.5 1.9 1.9 0 0 1-1.3.9l-2.4.3c-.5 0-1 .3-1.2.8a1.7 1.7 0 0 0-.1 1.4 1.7 1.7 0 0 1-1 2.2l-4.5 2a1.6 1.6 0 0 0-.2 0l-3.2 2a1.9 1.9 0 0 0-1 1.5v.8a1.9 1.9 0 0 1-.9 1.5l-3.3 2a.9.9 0 0 0-.4.8V51a2 2 0 0 1-.9 1.7 1 1 0 0 1-.7.1.9.9 0 0 1-.5-.5l-1.7-4a1.5 1.5 0 0 0-1-.9 1.5 1.5 0 0 0-1.3.4 1.6 1.6 0 0 1-1 .4l-3.2.2a1.9 1.9 0 0 0-1.8 1.6l-.4 3.2A2 2 0 0 0 27 55l.7.5a1.9 1.9 0 0 0 2.4 0l1.5-1.3a1.7 1.7 0 0 1 2.2 0c.6.5.7 1.4.3 2.1l-.6 1.1a.8.8 0 0 0 0 .8.8.8 0 0 0 .7.4c.5 0 .8.3.8.8l.1 1a1.9 1.9 0 0 0 1.3 1.6l2.2.8c.5.2 1 .1 1.4 0l3.8-1.7a2 2 0 0 1 1.6 0l7.6 4.1.7.7 3 4.7c.3.4.6.7 1 .8l8.9 2.7A2 2 0 0 1 68 76v1.7zM52.9 16a51 51 0 0 1 4.3-1c.6 0 1.3.2 1.6.7l.8 1 .1.2.9 1c.4.4.5 1 .5 1.5a1.9 1.9 0 0 1-.8 1.3l-1.5 1.2a2 2 0 0 1-2 .1l-2.1-1a2 2 0 0 1-1.1-1.7v-.8c0-.6-.3-1.2-.7-1.5l-.3-.3-.4-.2c-.2-.2.1-.4.7-.5zM66 6a60 60 0 1 0 0 120A60 60 0 0 0 66 6z" fill-rule="evenodd"/></svg>