<?xml version="1.0" encoding="UTF-8"?>
<svg width="440px" height="330px" viewBox="0 0 440 330" version="1.1" xmlns="http://www.w3.org/2000/svg" xmlns:xlink="http://www.w3.org/1999/xlink">
    <!-- Generator: Sketch 59.1 (86144) - https://sketch.com -->
    <title>Graphic elements / Rich icons / Reliable</title>
    <desc>Created with Sketch.</desc>
    <defs>
        <linearGradient x1="0%" y1="50.0024159%" x2="100%" y2="50.0024159%" id="linearGradient-1">
            <stop stop-color="#FFFFFF" stop-opacity="0" offset="0%"></stop>
            <stop stop-color="#FAC614" offset="100%"></stop>
        </linearGradient>
        <linearGradient x1="0.0239148631%" y1="50.01468%" x2="100%" y2="50.01468%" id="linearGradient-2">
            <stop stop-color="#D0D2CF" offset="0%"></stop>
            <stop stop-color="#FFFFFF" offset="64%"></stop>
        </linearGradient>
    </defs>
    <g id="Graphic-elements-/-Rich-icons-/-Reliable" stroke="none" stroke-width="1" fill="none" fill-rule="evenodd">
        <g id="bannerAsset-221" transform="translate(87.000000, 0.000000)" fill-rule="nonzero">
            <path d="M143.825,325.16 L224.71625,251.625 C250.42875,228.25 264.81125,196.88625 264.81125,164.23 L264.81125,74.25 C264.81125,64.735 256.4375,56.88375 245.72625,56.375 C239.8825,56.1 233.255,55.72875 226.71,55.31625 C205.085348,54.1532415 184.464913,45.8170118 168.1075,31.625 L132.4125,0 L96.6625,31.625 C80.3232905,45.8262011 59.7172235,54.1770045 38.10125,55.3575 C31.55625,55.77 24.92875,56.14125 19.085,56.41625 C8.37375,56.925 0,64.77625 0,74.25 L0,164.24375 C0,196.91375 14.36875,228.25 40.05375,251.625 L120.84875,325.14625 C127.434542,330.874276 137.232357,330.880139 143.825,325.16 Z" id="Path" fill="#FFE700"></path>
            <path d="M224.71625,195.6075 L143.825,269.12875 C137.233562,274.846887 127.440188,274.846887 120.84875,269.12875 L40.05375,195.59375 C14.36875,172.2325 0,140.8825 0,108.25375 L0,164.285 C0,196.91375 14.36875,228.25 40.05375,251.625 L120.84875,325.14625 C127.437968,330.870331 137.235782,330.870331 143.825,325.14625 L224.71625,251.625 C250.42875,228.25 264.81125,196.88625 264.81125,164.23 L264.81125,108.2125 C264.81125,140.86875 250.42875,172.2325 224.71625,195.6075 Z" id="Path" fill="url(#linearGradient-1)" style="mix-blend-mode: multiply;"></path>
            <path d="M245.72625,56.375 C239.8825,56.1 233.255,55.72875 226.71,55.31625 C205.085348,54.1532415 184.464913,45.8170118 168.1075,31.625 L132.4125,0 L96.6625,31.625 C80.3232905,45.8262011 59.7172235,54.1770045 38.10125,55.3575 C31.55625,55.77 24.92875,56.14125 19.085,56.41625 C8.37375,56.925 0,64.77625 0,74.25 L0,109.5875 C0,100.0725 8.37375,92.2075 19.085,91.7125 C24.92875,91.4375 31.55625,91.0525 38.10125,90.65375 C59.7235946,89.4803805 80.3407957,81.1454585 96.70375,66.9625 L132.45375,35.3375 L168.20375,66.9625 C184.57002,81.1400393 205.185287,89.4741795 226.80625,90.65375 C233.35125,91.0525 239.97875,91.4375 245.8225,91.7125 C256.53375,92.2075 264.9075,100.0725 264.9075,109.5875 L264.9075,74.25 C264.81125,64.77625 256.4375,56.925 245.72625,56.375 Z" id="Path" fill="#FFF170"></path>
            <polygon id="Path" fill="url(#linearGradient-2)" style="mix-blend-mode: multiply;" points="138.31125 210.925 133.74625 215.47625 129.25 220 124.69875 224.55125 120.13375 229.1025 110.3025 219.27125 100.375 209.4675 90.53 199.65 80.69875 189.81875 85.25 185.2675 89.80125 180.71625 94.36625 176.17875 99 171.6275 104.28 176.9075 109.57375 182.17375 114.85375 187.45375 120.13375 192.73375 134.48875 178.40625 148.83 164.07875 163.17125 149.765 177.47125 135.4375 182.0225 139.98875 186.57375 144.54 191.13875 149.0775 195.69 153.62875 181.34875 167.95625 166.99375 182.28375 152.625 196.625"></polygon>
            <polygon id="Path" fill="#0099DA" points="138.31125 203.73375 133.74625 208.285 129.25 212.83625 124.69875 217.3875 120.13375 221.93875 110.3025 212.1075 100.375 202.27625 90.5575 192.5 80.72625 182.6825 85.25 178.07625 89.80125 173.525 94.36625 168.97375 99 164.4225 104.28 169.7025 109.57375 174.9825 114.85375 180.2625 120.13375 185.5425 134.48875 171.215 148.775 156.8875 163.11625 142.56 177.47125 128.24625 182.0225 132.78375 186.57375 137.335 191.13875 141.88625 195.69 146.4375 181.34875 160.765 166.99375 175.0925 152.625 189.40625"></polygon>
        </g>
    </g>
</svg>