<svg width="440" height="330" xmlns="http://www.w3.org/2000/svg"><defs><linearGradient x1="0%" y1="50.002%" x2="100%" y2="50.002%" id="a"><stop stop-color="#FFF" stop-opacity="0" offset="0%"/><stop stop-color="#FAC614" offset="100%"/></linearGradient><linearGradient x1=".024%" y1="50.015%" x2="100%" y2="50.015%" id="b"><stop stop-color="#D0D2CF" offset="0%"/><stop stop-color="#FFF" offset="64%"/></linearGradient></defs><g fill-rule="nonzero" fill="none"><path d="M230.825 325.16l80.891-73.535c25.713-23.375 40.095-54.739 40.095-87.395V74.25c0-9.515-8.373-17.366-19.085-17.875-5.844-.275-12.471-.646-19.016-1.059a97.405 97.405 0 01-58.602-23.691L219.413 0l-35.75 31.625A97.364 97.364 0 01125.1 55.358c-6.545.412-13.172.783-19.016 1.058C95.374 56.925 87 64.776 87 74.25v89.994c0 32.67 14.369 64.006 40.054 87.381l80.795 73.521c6.586 5.728 16.383 5.734 22.976.014z" fill="#FFE700"/><path d="M224.716 195.607l-80.891 73.522c-6.591 5.718-16.385 5.718-22.976 0l-80.795-73.535C14.369 172.232 0 140.882 0 108.254v56.031c0 32.629 14.369 63.965 40.054 87.34l80.795 73.521c6.589 5.724 16.387 5.724 22.976 0l80.891-73.521c25.713-23.375 40.095-54.739 40.095-87.395v-56.017c0 32.656-14.382 64.02-40.095 87.394z" fill="url(#a)" style="mix-blend-mode:multiply" transform="translate(87)"/><path d="M332.726 56.375c-5.844-.275-12.471-.646-19.016-1.059a97.405 97.405 0 01-58.602-23.691L219.413 0l-35.75 31.625A97.364 97.364 0 01125.1 55.358c-6.545.412-13.172.783-19.016 1.058C95.374 56.925 87 64.776 87 74.25v35.338c0-9.515 8.374-17.38 19.085-17.875 5.844-.275 12.471-.66 19.016-1.06a97.542 97.542 0 0058.603-23.69l35.75-31.625 35.75 31.625a97.625 97.625 0 0058.602 23.69c6.545.4 13.173.784 19.017 1.06 10.71.495 19.085 8.36 19.085 17.875V74.25c-.097-9.474-8.47-17.325-19.182-17.875z" fill="#FFF170"/><path fill="url(#b)" style="mix-blend-mode:multiply" d="M138.311 210.925l-4.565 4.551L129.25 220l-4.551 4.551-4.565 4.552-9.832-9.832-9.927-9.803-9.845-9.818-9.831-9.831 4.551-4.551 4.551-4.552 4.565-4.537L99 171.627l5.28 5.28 5.294 5.267 5.28 5.28 5.28 5.28 14.355-14.328 14.341-14.327 14.341-14.314 14.3-14.327 4.552 4.55 4.55 4.552 4.566 4.537 4.551 4.552-14.341 14.327-14.355 14.328-14.369 14.341z" transform="translate(87)"/><path fill="#0099DA" d="M225.311 203.734l-4.565 4.551-4.496 4.551-4.551 4.551-4.565 4.552-9.831-9.832-9.928-9.83-9.817-9.777-9.832-9.817 4.524-4.607 4.551-4.551 4.565-4.551 4.634-4.551 5.28 5.28 5.294 5.28 5.28 5.28 5.28 5.28 14.355-14.328 14.286-14.328 14.341-14.327 14.355-14.314 4.552 4.538 4.55 4.551 4.566 4.551 4.551 4.552-14.341 14.327-14.355 14.328-14.369 14.313z"/></g></svg>