<svg width="440" height="330" xmlns="http://www.w3.org/2000/svg"><g transform="translate(59 30)" fill-rule="nonzero" fill="none"><rect fill="#0099DA" x="39" width="282" height="300" rx="4.04"/><path d="M165.96 178a4.04 4.04 0 014.04 4.04v113.92a4.04 4.04 0 01-4.04 4.04H52.04a4.04 4.04 0 01-4.04-4.04V182.04a4.04 4.04 0 014.04-4.04h69.194l-47.99 48.163 8.787 8.82 8.799 8.83 65.57-65.814 9.56.001z" fill="#005BBA"/><path fill="#FFF" d="M251.71 42.492l-13.102 2.182-13.113 2.182 2.824 2.801 2.825 2.812 2.824 2.813 2.825 2.812.986.978.975.98-9.213 9.246L73.244 226.163l8.787 8.82 8.799 8.83 156.33-156.91 9.247-9.281.919.911.93.922 2.847 2.835 2.858 2.846 2.858 2.846 2.847 2.835 2.062-13.173 2.074-13.172 2.062-13.172 2.062-13.173-13.102 2.182z"/><rect fill="#023852" x="16" y="167" width="133" height="133" rx="4.04"/><path fill="#ADC0CB" d="M103.255 191.64l-9.076 1.5-9.063 1.5 1.951 1.938 1.952 1.937 1.952 1.936 1.963 1.926.673.672.685.683-6.383 6.359-63.829 63.715 6.08 6.068 6.091 6.08 63.851-63.738 6.406-6.393.639.627.64.638 1.974 1.948 1.974 1.96 1.974 1.959 1.975 1.96 1.436-9.07 1.424-9.068 1.436-9.08 1.425-9.068-9.075 1.511z"/><rect fill="#003A5D" style="mix-blend-mode:multiply" x="19" y="247" width="53" height="53" rx="4.04"/><rect fill="#FFE700" y="243" width="57" height="57" rx="4.04"/></g></svg>