<svg width="156" height="114" xmlns="http://www.w3.org/2000/svg">
  <g fill-rule="nonzero" fill="none">
    <path d="M91.435 107.009v-9.286H64.457v9.286c-.022.24-.059.48-.112.715a6.466 6.466 0 0 1-.566 1.575 4.137 4.137 0 0 1-3.889 2.294h36.124a4.137 4.137 0 0 1-3.89-2.294 6.16 6.16 0 0 1-.566-1.575 5.533 5.533 0 0 1-.123-.715z" fill="#9DADB7"/>
    <path d="M101.563 111.593H54.317c-.296-.001-.589.061-.86.182-.262.118-.499.286-.697.496a2.342 2.342 0 0 0-.47.739 2.427 2.427 0 0 0-.173.905h51.643a2.396 2.396 0 0 0-.643-1.644 2.185 2.185 0 0 0-.702-.496 2.044 2.044 0 0 0-.852-.182z" fill="#CED6DB"/>
    <path fill="#71868E" d="M64.45 97.727h26.977V105.465H64.45V99.66z"/>
    <path d="M152.895 97.727H2.975c-.286 0-.568-.06-.83-.175a2.085 2.085 0 0 1-.647-.472 2.229 2.229 0 0 1-.624-1.544V3.177c0-.577.225-1.131.624-1.547.193-.196.422-.354.675-.464.261-.114.543-.172.828-.17h149.92c.286-.002.568.056.83.17.513.223.919.64 1.129 1.16.11.27.165.557.165.848v92.36a2.202 2.202 0 0 1-.62 1.544 2.085 2.085 0 0 1-.675.464c-.268.123-.56.186-.855.186z" fill="#023852"/>
    <path fill="#0099DA" d="M5.483 88.054h144.911V5.638H5.483V67.447z"/>
    <path fill="#0082CA" d="M11.098 11.058H5.483V5.642l5.396 5.211z"/>
    <path d="M80.443 92.89a2.505 2.505 0 0 0-3.48-2.317 2.518 2.518 0 0 0 .975 4.832c.336 0 .667-.069.975-.201.3-.125.57-.307.798-.538.228-.229.41-.5.536-.797.13-.31.197-.643.196-.979z" fill="#416A7D"/>
    <path fill="#0099DA" d="M150.394 5.642v5.416H11.098l-.212-.205-5.395-5.211z"/>
    <path d="M150.394 11.058v76.996H91.13L75.109 72.666 59.1 57.275 43.09 41.88 27.1 26.477l-5.395-5.208-5.396-5.208a4759.428 4759.428 0 0 1-5.191-5.003h139.276z" fill="#31A9E0"/>
    <path fill="#FFF" d="M15.692 20.592V19.319h-4.771V81.213h4.771V79.944H12.185V20.592h1.754zM140.258 79.944V81.213h4.771V19.318h-4.771v1.274H143.765v59.352h-1.754zM83.191 45.9h-7.026v-7.054h-1.264V45.9h-7.025V47.169H74.9v7.053h1.264V47.17h7.026v-.635z"/>
    <path d="M28.476 25.297h1.573a3.426 3.426 0 0 1 1.614.286c.42.227.661.685.613 1.16a1.23 1.23 0 0 1-.304.864c-.224.23-.516.38-.833.429.163.037.311.124.424.248.114.145.205.307.27.48l.42.998.42.994h-1.202l-.305-.774-.304-.774a1.286 1.286 0 0 0-.332-.572 1.041 1.041 0 0 0-.666-.147h-.29v2.267h-1.098v-5.459zm1.095 2.344h.32a1.89 1.89 0 0 0 .951-.178.624.624 0 0 0 .305-.588.592.592 0 0 0-.332-.584 2.247 2.247 0 0 0-.924-.135h-.32v1.485zM33.324 25.297h3.219v.905h-2.136v1.316h1.966v.882h-1.966v1.439h2.162v.913h-3.24v-5.455zM41.63 30.628a2.98 2.98 0 0 1-.586.132 4.845 4.845 0 0 1-.682.046 3.076 3.076 0 0 1-2.135-.735 2.937 2.937 0 0 1 0-4.074 2.953 2.953 0 0 1 2.058-.774c.221 0 .443.012.663.039.221.031.44.085.651.158l-.039.473-.038.472a2.606 2.606 0 0 0-1.152-.248 1.78 1.78 0 0 0-1.307.48 1.877 1.877 0 0 0-.493 1.381c-.02.52.168 1.026.524 1.404.349.33.812.508 1.29.496.198.002.396-.014.59-.047.209-.034.413-.09.61-.166v.476l.046.487zM25.281 28.024a2.75 2.75 0 1 0-5.29-1.084 2.769 2.769 0 0 0 1.006 3.36 2.744 2.744 0 0 0 3.479-.341c.51-.514.8-1.209.805-1.935z" fill="#FFE700"/>
  </g>
</svg>
