<svg width="440" height="330" xmlns="http://www.w3.org/2000/svg"><defs><linearGradient x1="0%" y1="50%" x2="100%" y2="50%" id="a"><stop stop-color="#FFF" stop-opacity="0" offset="8%"/><stop stop-color="#96A6AE" offset="100%"/></linearGradient><linearGradient x1="0%" y1="50%" x2="100.033%" y2="50%" id="b"><stop stop-color="#FFF" stop-opacity="0" offset="8%"/><stop stop-color="#96A6AE" offset="100%"/></linearGradient><linearGradient x1="0%" y1="49.997%" x2="100%" y2="49.997%" id="c"><stop stop-color="#FFF" stop-opacity="0" offset="0%"/><stop stop-color="#96A6AE" offset="100%"/></linearGradient></defs><g fill-rule="nonzero" fill="none"><path d="M163.299 139.012v-45.46a54.96 54.96 0 014.367-21.546 55.578 55.578 0 01102.288 0 54.96 54.96 0 014.368 21.547v45.46h37.052v-45.46a91.529 91.529 0 00-7.28-35.912 92.861 92.861 0 00-49.293-49.148 92.449 92.449 0 00-128.543 85.06v45.46h37.04z" fill="#CDD4D8"/><path fill="url(#a)" style="mix-blend-mode:multiply" d="M37.258 96.088h37.04v42.924h-37.04z" transform="translate(89)"/><path fill="url(#b)" style="mix-blend-mode:multiply" d="M185.322 96.088h37.04v42.924h-37.04z" transform="translate(89)"/><path d="M348.826 141.087a7.413 7.413 0 00-5.132-2.184H96.522a7.583 7.583 0 00-2.924.595 7.486 7.486 0 00-2.426 1.613A7.437 7.437 0 0089 146.39v176.04c-.003 1.005.199 2 .594 2.924a7.437 7.437 0 001.614 2.427 7.28 7.28 0 002.427 1.613 7.364 7.364 0 002.887.607H343.5a7.57 7.57 0 005.326-2.208 7.505 7.505 0 002.196-5.302V146.39a7.505 7.505 0 00-2.196-5.302z" fill="#023852"/><path d="M261.428 143.465a7.4 7.4 0 00-1.602-2.426 7.413 7.413 0 00-5.132-2.184h-35.438V310.32a7.534 7.534 0 01-.582 2.924 7.546 7.546 0 01-4.016 4.004 7.534 7.534 0 01-2.924.582H0v4.598c-.003 1.005.199 2 .594 2.924a7.437 7.437 0 001.614 2.427 7.28 7.28 0 002.427 1.613 7.364 7.364 0 002.887.607H254.5a7.57 7.57 0 005.326-2.208 7.505 7.505 0 002.196-5.302V146.39c.004-1.005-.198-2-.594-2.924z" fill="url(#c)" style="mix-blend-mode:multiply" transform="translate(89)"/><path d="M153.762 186.195c0 5.735-.942 9.985-2.826 12.751-1.88 2.767-4.78 4.137-8.7 4.137a9.706 9.706 0 01-8.577-4.27c-1.933-2.847-2.895-7.053-2.887-12.618 0-5.807.934-10.086 2.802-12.836 1.869-2.75 4.756-4.125 8.663-4.125a9.706 9.706 0 018.614 4.32c1.94 2.87 2.911 7.085 2.911 12.641zm-16.087 0a25.708 25.708 0 001.043 8.663 3.64 3.64 0 007.025 0 24.677 24.677 0 001.08-8.639 24.847 24.847 0 00-1.08-8.698 3.64 3.64 0 00-7.012 0 25.575 25.575 0 00-1.056 8.674z" fill="#FFF" opacity=".2"/><path d="M174.436 202.61h-6.952V180.481l.122-3.421c-1.214 1.152-1.966 1.916-2.427 2.268l-3.773 3.033-3.252-4.173 10.604-8.493h5.714l-.036 32.915z" fill="#FFF" opacity=".5"/><path d="M206.356 186.195c0 5.735-.942 9.985-2.827 12.751-1.88 2.767-4.78 4.137-8.698 4.137a9.706 9.706 0 01-8.578-4.27c-1.933-2.847-2.896-7.053-2.888-12.618 0-5.807.939-10.086 2.815-12.836 1.877-2.75 4.76-4.125 8.65-4.125a9.706 9.706 0 018.614 4.32c1.942 2.87 2.912 7.085 2.912 12.641zm-16.087 0a25.708 25.708 0 001.043 8.663 3.64 3.64 0 003.519 2.633 3.64 3.64 0 003.518-2.658 24.98 24.98 0 001.08-8.638 24.786 24.786 0 00-1.092-8.699 3.64 3.64 0 00-7.013 0 25.575 25.575 0 00-1.055 8.7zM227.03 202.61h-7V183.6l.072-3.118.11-3.421c-1.214 1.152-1.966 1.916-2.427 2.268l-3.773 3.033-3.349-4.173 10.592-8.493h5.714l.06 32.915z" fill="#FFF"/><path d="M253.333 202.61h-6.952V183.6l.06-3.118.11-3.421c-1.213 1.152-1.954 1.916-2.427 2.268l-3.773 3.033-3.336-4.173 10.603-8.493h5.715v32.915z" fill="#FFF" opacity=".8"/><path d="M279.624 202.61h-6.952V183.6l.072-3.118.11-3.421c-1.153 1.152-1.954 1.916-2.427 2.268l-3.785 3.033-3.349-4.173 10.592-8.493h5.714l.025 32.915z" fill="#FFF" opacity=".5"/><path d="M311.544 186.195c0 5.735-.938 9.985-2.815 12.751-1.893 2.767-4.78 4.137-8.699 4.137a9.706 9.706 0 01-8.577-4.27c-1.925-2.847-2.892-7.053-2.9-12.618 0-5.807.938-10.086 2.815-12.836 1.88-2.754 4.756-4.125 8.662-4.125a9.706 9.706 0 018.602 4.32c1.941 2.87 2.912 7.085 2.912 12.641zm-16.076 0a25.405 25.405 0 001.044 8.663 3.64 3.64 0 003.518 2.633 3.64 3.64 0 003.506-2.658 24.677 24.677 0 001.08-8.638 24.786 24.786 0 00-1.092-8.699 3.64 3.64 0 00-7 0 25.575 25.575 0 00-1.056 8.7zM153.762 232.674c0 5.735-.942 9.985-2.826 12.751-1.88 2.767-4.78 4.137-8.7 4.137a9.706 9.706 0 01-8.577-4.27c-1.933-2.847-2.895-7.053-2.887-12.618 0-5.799.934-10.078 2.802-12.836 1.869-2.758 4.756-4.133 8.663-4.125a9.706 9.706 0 018.614 4.32c1.94 2.87 2.911 7.085 2.911 12.641zm-16.087 0a25.745 25.745 0 001.043 8.675 3.64 3.64 0 007.025 0 24.677 24.677 0 001.08-8.638 24.896 24.896 0 00-1.08-8.7 3.64 3.64 0 00-7.012 0 25.624 25.624 0 00-1.056 8.663z" fill="#FFF" opacity=".2"/><path d="M174.436 249.114h-6.952V226.96l.122-3.421c-1.214 1.152-1.966 1.917-2.427 2.268l-3.773 3.046-3.252-4.186 10.604-8.493h5.714l-.036 32.94z" fill="#FFF" opacity=".5"/><path d="M206.356 232.674c0 5.735-.942 9.985-2.827 12.751-1.88 2.767-4.78 4.137-8.698 4.137a9.706 9.706 0 01-8.578-4.27c-1.933-2.847-2.896-7.053-2.888-12.618 0-5.799.939-10.078 2.815-12.836 1.877-2.758 4.76-4.133 8.65-4.125a9.706 9.706 0 018.614 4.32c1.942 2.87 2.912 7.085 2.912 12.641zm-16.087 0a25.745 25.745 0 001.043 8.675 3.64 3.64 0 003.519 2.62 3.64 3.64 0 003.518-2.656 24.98 24.98 0 001.08-8.639 24.823 24.823 0 00-1.092-8.699 3.64 3.64 0 00-7.013 0 25.624 25.624 0 00-1.055 8.7z" fill="#FFF"/><path d="M227.03 249.114h-7V230.09l.072-3.13.11-3.421c-1.214 1.152-1.966 1.917-2.427 2.268l-3.773 3.046-3.349-4.186 10.592-8.493h5.714l.06 32.94z" fill="#FFF" opacity=".8"/><path d="M258.95 232.674c0 5.735-.942 9.985-2.827 12.751-1.88 2.767-4.78 4.137-8.687 4.137a9.706 9.706 0 01-8.59-4.27c-1.932-2.847-2.895-7.053-2.887-12.618 0-5.799.938-10.078 2.815-12.836 1.876-2.758 4.764-4.133 8.662-4.125a9.706 9.706 0 018.602 4.32c1.941 2.87 2.912 7.085 2.912 12.641zm-16.087 0a25.369 25.369 0 001.055 8.675 3.64 3.64 0 003.518 2.62 3.64 3.64 0 003.507-2.656 24.98 24.98 0 001.08-8.639 24.823 24.823 0 00-1.092-8.699 3.64 3.64 0 00-7.013 0 25.624 25.624 0 00-1.055 8.7z" fill="#FFF"/><path d="M285.253 232.674c0 5.735-.942 9.985-2.827 12.751-1.88 2.767-4.78 4.137-8.699 4.137a9.706 9.706 0 01-8.577-4.27c-1.925-2.847-2.888-7.053-2.888-12.618 0-5.799.938-10.078 2.815-12.836 1.876-2.758 4.76-4.133 8.65-4.125a9.706 9.706 0 018.614 4.32c1.941 2.87 2.912 7.085 2.912 12.641zm-16.088 0a25.745 25.745 0 001.044 8.675 3.64 3.64 0 003.518 2.62 3.64 3.64 0 003.519-2.656 24.98 24.98 0 001.08-8.639 24.823 24.823 0 00-1.093-8.699 3.64 3.64 0 00-7.012 0 25.624 25.624 0 00-1.056 8.7z" fill="#FFF" opacity=".5"/><path d="M305.926 249.114h-6.951V230.09l.06-3.13.122-3.421c-1.214 1.152-1.966 1.917-2.427 2.268l-3.773 3.046-3.36-4.186 10.603-8.493h5.714l.012 32.94zM153.762 279.153c0 5.751-.942 10.005-2.826 12.764-1.885 2.758-4.785 4.129-8.7 4.112a9.706 9.706 0 01-8.577-4.282c-1.933-2.84-2.895-7.045-2.887-12.618 0-5.8.934-10.078 2.802-12.836 1.88-2.742 4.768-4.125 8.663-4.125a9.706 9.706 0 018.614 4.32c1.94 2.895 2.911 7.117 2.911 12.665zm-16.087 0a25.745 25.745 0 001.043 8.675 3.64 3.64 0 007.025 0 35.293 35.293 0 000-17.325 3.64 3.64 0 00-7.012 0 25.539 25.539 0 00-1.056 8.65z" fill="#FFF" opacity=".2"/><path d="M174.436 295.605h-6.952V273.488l.122-3.422c-1.214 1.213-1.966 1.917-2.427 2.281l-3.773 3.033-3.252-4.234 10.604-8.493h5.714l-.036 32.952z" fill="#FFF" opacity=".5"/><path d="M206.356 279.153c0 5.751-.942 10.005-2.827 12.764-1.884 2.758-4.784 4.129-8.698 4.112a9.706 9.706 0 01-8.578-4.282c-1.933-2.84-2.896-7.045-2.888-12.618 0-5.8.939-10.078 2.815-12.836 1.869-2.742 4.756-4.125 8.65-4.125a9.706 9.706 0 018.614 4.32c1.942 2.895 2.912 7.117 2.912 12.665zm-16.087 0a25.745 25.745 0 001.043 8.675 3.64 3.64 0 003.519 2.62 3.64 3.64 0 003.518-2.656 35.099 35.099 0 000-17.325 3.64 3.64 0 00-7.013 0 25.539 25.539 0 00-1.067 8.686z" fill="#FFF" opacity=".8"/><path d="M227.03 295.605h-7v-18.987l.072-3.13.11-3.422c-1.214 1.213-1.966 1.917-2.427 2.281l-3.773 3.033-3.349-4.186 10.592-8.492h5.714l.06 32.903zM258.95 279.153c0 5.751-.942 10.005-2.827 12.764-1.884 2.758-4.78 4.129-8.687 4.112a9.706 9.706 0 01-8.59-4.282c-1.932-2.84-2.895-7.045-2.887-12.618 0-5.8.938-10.078 2.815-12.836 1.868-2.742 4.756-4.125 8.662-4.125a9.706 9.706 0 018.602 4.32c1.941 2.895 2.912 7.117 2.912 12.665zm-16.087 0a25.369 25.369 0 001.055 8.675 3.64 3.64 0 003.518 2.62 3.64 3.64 0 003.507-2.656 35.099 35.099 0 000-17.325 3.64 3.64 0 00-7.013 0 25.539 25.539 0 00-1.067 8.686z" fill="#FFF"/><path d="M279.624 295.605h-6.952v-18.987l.072-3.13.11-3.422c-1.153 1.213-1.954 1.917-2.427 2.281l-3.785 3.033-3.349-4.186 10.592-8.492h5.714l.025 32.903z" fill="#FFF" opacity=".5"/><path d="M305.926 295.605h-6.951v-18.987l.06-3.13.122-3.422c-1.214 1.213-1.966 1.917-2.427 2.281l-3.773 3.033-3.36-4.186 10.603-8.492h5.714l.012 32.903z" fill="#FFF" opacity=".2"/></g></svg>