<?xml version="1.0" encoding="UTF-8"?>
<svg width="440px" height="330px" viewBox="0 0 440 330" version="1.1" xmlns="http://www.w3.org/2000/svg" xmlns:xlink="http://www.w3.org/1999/xlink">
    <title>Graphic elements / Icons / Rich icons / acceleration</title>
    <defs>
        <linearGradient x1="100%" y1="50.0439367%" x2="-1.21616215e-13%" y2="50.0439367%" id="linearGradient-1">
            <stop stop-color="#FFFFFF" stop-opacity="0" offset="0%"></stop>
            <stop stop-color="#FEFFFF" stop-opacity="0" offset="0%"></stop>
            <stop stop-color="#BBE3F4" stop-opacity="0.26" offset="15%"></stop>
            <stop stop-color="#82CCEB" stop-opacity="0.49" offset="30%"></stop>
            <stop stop-color="#53B9E4" stop-opacity="0.67" offset="45%"></stop>
            <stop stop-color="#2FAADE" stop-opacity="0.82" offset="60%"></stop>
            <stop stop-color="#15A0DA" stop-opacity="0.92" offset="74%"></stop>
            <stop stop-color="#0599D8" stop-opacity="0.98" offset="88%"></stop>
            <stop stop-color="#0097D7" offset="100%"></stop>
        </linearGradient>
        <linearGradient x1="0.0048596594%" y1="49.9356937%" x2="100%" y2="49.9356937%" id="linearGradient-2">
            <stop stop-color="#FFFFFF" stop-opacity="0" offset="0%"></stop>
            <stop stop-color="#FEF7DD" stop-opacity="0.14" offset="8%"></stop>
            <stop stop-color="#FDEAA8" stop-opacity="0.37" offset="22%"></stop>
            <stop stop-color="#FCDF7A" stop-opacity="0.56" offset="36%"></stop>
            <stop stop-color="#FBD655" stop-opacity="0.72" offset="49%"></stop>
            <stop stop-color="#FBCF38" stop-opacity="0.84" offset="63%"></stop>
            <stop stop-color="#FACA23" stop-opacity="0.93" offset="76%"></stop>
            <stop stop-color="#FAC716" stop-opacity="0.98" offset="89%"></stop>
            <stop stop-color="#FAC612" offset="100%"></stop>
        </linearGradient>
    </defs>
    <g id="Graphic-elements-/-Icons-/-Rich-icons-/-acceleration" stroke="none" stroke-width="1" fill="none" fill-rule="evenodd">
        <g id="Accelerated" transform="translate(0.000000, 69.000000)" fill-rule="nonzero">
            <path d="M363.363865,54 C358.460412,58.8386602 353.514321,63.6065797 348.582442,68.4169437 C343.650564,73.2273076 338.761324,78.0659678 334,83.0319611 C353.859075,99.4705632 369.928665,119.973879 381.115786,143.147362 C392.686116,167.128029 398.676136,193.396877 398.6403,220 L440,220 C440.036517,187.940033 432.960574,156.267569 419.27744,127.244865 C406.014615,99.1915457 386.962989,74.2345695 363.363865,54 Z" id="Path" fill="#0099DA"></path>
            <path d="M360,50.6260309 C294.441113,-3.78093286 203.4162,-15.367096 126.359227,20.8869188 C49.3022542,57.1409335 0.0735277913,134.714085 0,220 L41.2068694,220 C41.0776202,151.331325 80.2472899,88.6659195 141.968088,58.7976543 C203.688886,28.929389 277.035679,37.1452147 330.64755,79.9322876 C335.412006,74.917693 340.304081,69.9883324 345.224516,65.1868225 C350.14495,60.3853127 355.107925,55.498569 360,50.6260309 Z" id="Path" fill="#E8EBED"></path>
            <path d="M242.297388,234.213286 C249.79451,225.244986 249.911471,212.229289 242.576728,203.127704 C235.241985,194.02612 222.498918,191.37425 212.142272,196.794205 C201.785626,202.21416 196.700651,214.195998 199.99775,225.410607 C203.294849,236.625217 214.055487,243.948328 225.69754,242.900503 C232.165937,242.327664 238.139615,239.201452 242.297388,234.213286 Z" id="Path" fill="#DFE4E6"></path>
            <path d="M400,94.2532953 C394.59457,86.3382958 388.644454,78.8182163 382.193838,71.7489016 C376.214449,65.1355866 369.863777,58.8756105 363.173299,53 C358.301669,57.8835677 353.387677,62.6957381 348.487805,67.5507469 C343.587933,72.4057557 338.730424,77.2893234 334,82.301406 C346.357875,92.6764832 357.281417,104.683401 366.477535,118 C371.391528,113.073594 377.322208,109.589411 383.267009,106.105228 C389.21181,102.621046 395.100128,99.1654218 400,94.2532953 Z" id="Path" fill="url(#linearGradient-1)" style="mix-blend-mode: multiply;"></path>
            <path d="M205.220259,238.672485 L203.619076,220.745213 L202.003723,202.81794 C201.989026,202.601299 202.017939,202.383907 202.088741,202.178695 C202.171102,201.977598 202.291381,201.794315 202.442985,201.638888 L283.494027,123.508936 L364.545068,45.3789841 C365.088554,44.873672 365.92867,44.873672 366.472156,45.3789841 C367.046298,45.8429039 367.169545,46.6707396 366.755551,47.2825138 L305.216273,141.592469 L243.648655,236.1013 C243.533666,236.290049 243.372776,236.446456 243.181052,236.555874 C242.995765,236.667938 242.787336,236.73597 242.571753,236.75475 L224.689512,238.374171 L206.821442,239.993592 C206.435596,240.030445 206.051534,239.907235 205.75871,239.652661 C205.459147,239.408368 205.266061,239.056882 205.220259,238.672485 Z" id="Path" fill="#FFE700"></path>
            <path d="M266.765485,167.907739 C261.328767,163.398632 255.03072,160.028526 248.249922,158 L225.333352,179.896103 L202.445267,201.778051 C202.292881,201.932914 202.171984,202.115533 202.089198,202.3159 C202.018032,202.520368 201.98897,202.736971 202.003742,202.952826 L203.627414,220.815064 L205.236844,238.677301 C205.279235,239.058184 205.468034,239.408073 205.763826,239.653921 C206.058157,239.907572 206.444198,240.030334 206.832031,239.993615 L224.792128,238.380069 L242.766467,236.766523 C242.98316,236.747811 243.192663,236.680026 243.378905,236.568368 C243.571616,236.459348 243.733334,236.303508 243.848915,236.115443 L261.424458,209.378702 L279,182.627808 C275.868936,177.030497 271.72065,172.058644 266.765485,167.964354 L266.765485,167.907739 Z" id="Path" fill="url(#linearGradient-2)"></path>
            <path d="M255.358139,245.095221 C268.04725,229.895599 268.230736,207.848491 255.796364,192.439774 C243.361992,177.031057 221.773837,172.553428 204.237044,181.745784 C186.70025,190.93814 178.100372,211.239594 183.697824,230.232056 C189.295275,249.224519 207.530668,261.616904 227.249693,259.828978 C238.208413,258.860445 248.326886,253.55659 255.358139,245.095221 Z" id="Path" fill="#F2F4F5"></path>
            <path d="M239.130692,232.446164 C245.54794,224.747997 245.630777,213.58785 239.32851,205.79527 C233.026243,198.002689 222.095651,195.749885 213.225803,200.415479 C204.355954,205.081073 200.019352,215.364516 202.869815,224.972765 C205.720279,234.581015 214.963232,240.83574 224.942371,239.909307 C230.47493,239.403494 235.579328,236.718549 239.130692,232.446164 L239.130692,232.446164 Z" id="Path" fill="#DFE4E6"></path>
        </g>
    </g>
</svg>