<?xml version="1.0" encoding="UTF-8"?>
<svg width="440px" height="330px" viewBox="0 0 440 330" version="1.1" xmlns="http://www.w3.org/2000/svg" xmlns:xlink="http://www.w3.org/1999/xlink">
    <title>Graphic elements / Icons / Rich icons / add-solution</title>
    <g id="Graphic-elements-/-Icons-/-Rich-icons-/-add-solution" stroke="none" stroke-width="1" fill="none" fill-rule="evenodd">
        <g id="Add-solution" transform="translate(20.000000, 39.000000)" fill-rule="nonzero">
            <path d="M234.825871,272.636816 L234.825871,248.756219 L165.174129,248.756219 L165.174129,272.636816 C165.124592,273.256824 165.02813,273.872185 164.885572,274.477612 C164.586926,275.891644 164.094729,277.257743 163.422886,278.537313 C162.595097,280.1563 161.38207,281.547011 159.890547,282.587065 C157.96423,283.851365 155.696249,284.493902 153.393035,284.427861 L246.646766,284.427861 C244.343552,284.493902 242.075571,283.851365 240.149254,282.587065 C238.657731,281.547011 237.444704,280.1563 236.616915,278.537313 C235.945072,277.257743 235.452875,275.891644 235.154229,274.477612 C234.998259,273.873227 234.88849,273.257853 234.825871,272.636816 L234.825871,272.636816 Z" id="Path" fill="#9DADB7"></path>
            <path d="M260.995025,284.41791 L139.004975,284.41791 C138.244123,284.418263 137.491735,284.577553 136.79602,284.885572 C136.116622,285.189965 135.504447,285.626267 134.995025,286.169154 C134.470821,286.715986 134.055472,287.357582 133.771144,288.059701 C133.477115,288.800526 133.328472,289.591034 133.333218,290.38806 L266.666782,290.38806 C266.671528,289.591034 266.522885,288.800526 266.228856,288.059701 C265.944528,287.357582 265.529179,286.715986 265.004975,286.169154 C264.495553,285.626267 263.883378,285.189965 263.20398,284.885572 C262.508265,284.577553 261.755877,284.418263 260.995025,284.41791 Z" id="Path" fill="#CED6DB"></path>
            <polygon id="Path" fill="#9DADB7" opacity="0.2" style="mix-blend-mode: multiply;" points="165.174129 248.756219 182.587065 248.756219 200 248.756219 217.412935 248.756219 234.825871 248.756219 234.825871 253.731343 234.825871 258.706468 234.825871 263.681592 234.825871 268.656716 217.412935 268.656716 200 268.656716 182.587065 268.656716 165.174129 268.656716 165.174129 263.681592 165.174129 258.706468 165.174129 253.731343"></polygon>
            <path d="M393.512438,248.756219 L6.44776119,248.756219 C4.98464839,248.760129 3.58321314,248.167214 2.56716418,247.114428 C1.52063703,246.055739 0.94033388,244.622891 0.954944249,243.134328 L0.954944249,5.60199005 C0.94033388,4.11342696 1.52063703,2.68057969 2.56716418,1.62189055 C3.59616016,0.566379451 5.01360991,-0.0200274264 6.48756219,-0.000496672712 L393.552239,-0.000496672712 C395.015352,-0.00391011122 396.416787,0.5890048 397.432836,1.64179104 C398.479363,2.70048018 399.059666,4.13332746 399.045056,5.62189055 L399.045056,243.154229 C399.059666,244.642792 398.479363,246.075639 397.432836,247.134328 C396.416787,248.187115 395.015352,248.78003 393.552239,248.776139 L393.512438,248.756219 Z" id="Path" fill="#023852"></path>
            <polygon id="Path" fill="#0099DA" points="12.9353234 223.880597 106.467662 223.880597 200 223.880597 293.532338 223.880597 387.064677 223.880597 387.064677 170.895522 387.064677 117.910448 387.064677 64.9253731 387.064677 11.9402985 293.532338 11.9402985 200 11.9402985 106.467662 11.9402985 12.9353234 11.9402985 12.9353234 64.9253731 12.9353234 117.910448 12.9353234 170.895522"></polygon>
            <polygon id="Path" fill="#4E7486" points="387.064677 25.8706468 293.532338 25.8706468 200 25.8706468 106.467662 25.8706468 12.9353234 25.8706468 12.9353234 22.3880597 12.9353234 18.9054726 12.9353234 15.4228856 12.9353234 11.9402985 106.467662 11.9402985 200 11.9402985 293.532338 11.9402985 387.064677 11.9402985 387.064677 15.4228856 387.064677 18.9054726 387.064677 22.3880597"></polygon>
            <path d="M206.467667,236.318408 C206.468719,235.464404 206.299589,234.61875 205.970149,233.830846 C205.318393,232.276205 204.082004,231.039816 202.527363,230.38806 C200.917293,229.711399 199.102607,229.711399 197.492537,230.38806 C195.930388,231.035508 194.686291,232.272454 194.029851,233.830846 C193.35319,235.440916 193.35319,237.255602 194.029851,238.865672 C194.681607,240.420312 195.917996,241.656702 197.472637,242.308458 C199.082707,242.985119 200.897393,242.985119 202.507463,242.308458 C204.080936,241.647007 205.326724,240.3869 205.970149,238.80597 C206.299589,238.018066 206.468719,237.172412 206.467667,236.318408 L206.467667,236.318408 Z" id="Path" fill="#4E7486"></path>
            <path d="M353.840796,120.467666 L300.81592,120.467666 C298.073221,120.470305 295.442096,119.381943 293.502713,117.44256 C291.563331,115.503178 290.474968,112.872053 290.477607,110.129353 L290.477607,57.1044776 C290.474968,54.3617782 291.563331,51.7306527 293.502713,49.7912704 C295.442096,47.8518882 298.073221,46.7635256 300.81592,46.7661643 L353.840796,46.7661643 C359.548213,46.7716544 364.173619,51.3970611 364.179104,57.1044776 L364.179104,110.129353 C364.173619,115.83677 359.548213,120.462176 353.840796,120.467666 L353.840796,120.467666 Z" id="Path" fill="#023852" opacity="0.2" style="mix-blend-mode: multiply;"></path>
            <path d="M268.955224,120.467666 L215.920398,120.467666 C213.177699,120.470305 210.546573,119.381943 208.607191,117.44256 C206.667809,115.503178 205.579446,112.872053 205.582085,110.129353 L205.582085,57.1044776 C205.587575,51.3970611 210.212982,46.7716544 215.920398,46.7661692 L268.955224,46.7661692 C274.66264,46.7716544 279.288047,51.3970611 279.293532,57.1044776 L279.293532,110.129353 C279.288047,115.83677 274.66264,120.462176 268.955224,120.467666 L268.955224,120.467666 Z" id="Path" fill="#023852" opacity="0.2" style="mix-blend-mode: multiply;"></path>
            <path d="M184.079602,120.467666 L131.044776,120.467666 C128.302077,120.470305 125.670951,119.381943 123.731569,117.44256 C121.792187,115.503178 120.703824,112.872053 120.706463,110.129353 L120.706463,57.1044776 C120.711953,51.3970611 125.33736,46.7716544 131.044776,46.7661692 L184.079602,46.7661692 C189.787018,46.7716544 194.412425,51.3970611 194.41791,57.1044776 L194.41791,110.129353 C194.412425,115.83677 189.787018,120.462176 184.079602,120.467666 L184.079602,120.467666 Z" id="Path" fill="#023852" opacity="0.2" style="mix-blend-mode: multiply;"></path>
            <path d="M99.1840796,120.467666 L46.159204,120.467666 C43.4165045,120.470305 40.7853791,119.381943 38.8459968,117.44256 C36.9066145,115.503178 35.818252,112.872053 35.8208907,110.129353 L35.8208907,57.1044776 C35.8263808,51.3970611 40.4517875,46.7716544 46.159204,46.7661692 L99.1840796,46.7661692 C104.891496,46.7716544 109.516903,51.3970611 109.522393,57.1044776 L109.522393,110.129353 C109.525032,112.872053 108.436669,115.503178 106.497287,117.44256 C104.557904,119.381943 101.926779,120.470305 99.1840796,120.467666 L99.1840796,120.467666 Z" id="Path" fill="#023852" opacity="0.2" style="mix-blend-mode: multiply;"></path>
            <path d="M353.840796,204.477617 L300.81592,204.477617 C298.073221,204.480256 295.442096,203.391893 293.502713,201.452511 C291.563331,199.513128 290.474968,196.882003 290.477607,194.139303 L290.477607,141.114428 C290.474968,138.371728 291.563331,135.740603 293.502713,133.801221 C295.442096,131.861838 298.073221,130.773476 300.81592,130.776115 L353.840796,130.776115 C359.548213,130.781605 364.173619,135.407011 364.179104,141.114428 L364.179104,194.139303 C364.173619,199.84672 359.548213,204.472127 353.840796,204.477617 L353.840796,204.477617 Z" id="Path" fill="#023852" opacity="0.2" style="mix-blend-mode: multiply;"></path>
            <path d="M268.955224,204.477617 L215.920398,204.477617 C213.177699,204.480256 210.546573,203.391893 208.607191,201.452511 C206.667809,199.513128 205.579446,196.882003 205.582085,194.139303 L205.582085,141.114428 C205.587575,135.407011 210.212982,130.781605 215.920398,130.776119 L268.955224,130.776119 C274.66264,130.781605 279.288047,135.407011 279.293532,141.114428 L279.293532,194.139303 C279.288047,199.84672 274.66264,204.472127 268.955224,204.477617 L268.955224,204.477617 Z" id="Path" fill="#023852" opacity="0.2" style="mix-blend-mode: multiply;"></path>
            <path d="M184.079602,204.477617 L131.044776,204.477617 C128.302077,204.480256 125.670951,203.391893 123.731569,201.452511 C121.792187,199.513128 120.703824,196.882003 120.706463,194.139303 L120.706463,141.114428 C120.711953,135.407011 125.33736,130.781605 131.044776,130.776119 L184.079602,130.776119 C189.787018,130.781605 194.412425,135.407011 194.41791,141.114428 L194.41791,194.139303 C194.412425,199.84672 189.787018,204.472127 184.079602,204.477617 L184.079602,204.477617 Z" id="Path" fill="#023852" opacity="0.2" style="mix-blend-mode: multiply;"></path>
            <path d="M99.1840796,204.477617 L46.159204,204.477617 C43.4165045,204.480256 40.7853791,203.391893 38.8459968,201.452511 C36.9066145,199.513128 35.818252,196.882003 35.8208907,194.139303 L35.8208907,141.114428 C35.8263808,135.407011 40.4517875,130.781605 46.159204,130.776119 L99.1840796,130.776119 C104.891496,130.781605 109.516903,135.407011 109.522393,141.114428 L109.522393,194.139303 C109.525032,196.882003 108.436669,199.513128 106.497287,201.452511 C104.557904,203.391893 101.926779,204.480256 99.1840796,204.477617 L99.1840796,204.477617 Z" id="Path" fill="#023852" opacity="0.2" style="mix-blend-mode: multiply;"></path>
            <path d="M253.661692,133.21393 L253.661692,133.21393 L253.661692,85.3432836 C253.658806,81.5069251 252.13441,77.828335 249.422886,75.1144279 C246.715833,72.3926594 243.032789,70.8664175 239.19403,70.8754983 L149.830846,70.8754983 C145.985276,70.8597273 142.292047,72.3776127 139.569063,75.0931263 C136.846079,77.8086399 135.318053,81.4976851 135.323369,85.3432836 L135.323369,85.8308458 C135.3283,85.8671644 135.3283,85.9039799 135.323369,85.9402985 C135.328275,85.9799492 135.328275,86.0200508 135.323369,86.0597015 L135.323369,173.99005 C135.328275,174.0297 135.328275,174.069802 135.323369,174.109453 C135.3283,174.145771 135.3283,174.182587 135.323369,174.218905 L135.323369,174.686567 C135.318092,178.525249 136.84066,182.208231 139.555021,184.922591 C142.269381,187.636952 145.952363,189.15952 149.791045,189.154243 L238.179104,189.154243 C242.261371,189.152604 246.176256,187.531541 249.064677,184.646766 C251.974468,181.750637 253.598602,177.806825 253.572139,173.701493 L253.572139,149.054726 L253.621891,149.054726 L253.621891,133.21393 L253.661692,133.21393 Z" id="Path" fill="#023852" opacity="0.2" style="mix-blend-mode: multiply;"></path>
            <path d="M242.945274,184.438144 L155.462687,184.438144 C151.38042,184.436186 147.465535,182.815123 144.577114,179.930348 C141.669346,177.032071 140.042568,173.090539 140.059568,168.985075 L140.059568,81.5920398 C140.042568,77.4865756 141.669346,73.5450432 144.577114,70.6467662 C147.465535,67.7619914 151.38042,66.1409282 155.462687,66.1393035 L242.945274,66.1393035 C247.02754,66.1409282 250.942425,67.7619914 253.830846,70.6467662 C256.740638,73.5428955 258.364771,77.4867075 258.338627,81.5920398 L258.338627,169.064677 C258.344715,175.255571 254.639279,180.847053 248.935323,183.253731 C247.039012,184.048632 245.001406,184.451414 242.945274,184.438144 L242.945274,184.438144 Z" id="Path" fill="#9DADB7"></path>
            <polygon id="Path" fill="#CDD3D8" style="mix-blend-mode: multiply;" points="204.776119 184.427861 208.029851 184.427861 211.273632 184.427861 214.517413 184.427861 217.771144 184.427861 227.920398 174.38806 238.079602 164.358209 248.228856 154.318408 258.38806 144.288557 258.38806 140.338308 258.38806 136.38806 258.38806 132.437811 258.38806 128.487562 245.741294 132.109453 233.104478 135.731343 220.467662 139.353234 207.830846 142.975124 207.064677 153.333333 206.298507 163.701493 205.542289 174.059701"></polygon>
            <path d="M214.179104,172.0199 C214.567164,169.701493 214.955224,167.512438 215.383085,165.452736 C215.810945,163.393035 216.278607,161.472637 216.845771,159.60199 C217.376885,157.809927 218.042113,156.060376 218.835821,154.368159 C219.618685,152.702818 220.554722,151.113887 221.631841,149.621891 C222.628426,148.228398 223.8371,146.999579 225.21393,145.9801 C226.594898,145.004358 228.109756,144.233523 229.711443,143.691542 C231.646142,143.028541 233.624313,142.49992 235.631841,142.109453 C237.890547,141.641791 240.477612,141.174129 243.482587,140.626866 C245.4044,140.27908 247.307341,139.834064 249.18408,139.293532 C250.407537,138.934675 251.607245,138.499324 252.776119,137.99005 C253.430692,137.706942 254.062709,137.374302 254.666667,136.995025 C254.881758,136.852755 255.084766,136.693011 255.273632,136.517413 L255.273632,136.517413 C255.658175,136.13335 256.017152,135.724515 256.348259,135.293532 C256.664565,134.857366 256.953671,134.402107 257.21393,133.930348 C257.4744,133.461141 257.697318,132.972051 257.880597,132.467662 C258.072246,131.96598 258.225263,131.450382 258.338371,130.925373 L258.338371,80.5970149 C258.344008,78.6624338 257.958154,76.7467065 257.20398,74.9651741 C254.945455,69.6072332 249.695101,66.1252955 243.880597,66.1293497 L154.557214,66.1293497 C148.743881,66.1371813 143.49658,69.6144976 141.223881,74.9651741 C140.469706,76.7467065 140.083853,78.6624338 140.08949,80.5970149 L140.08949,169.940299 C140.09738,175.753631 143.574697,181.000933 148.925373,183.273632 C150.70835,184.02312 152.623115,184.407962 154.557214,184.407962 L204.626866,184.407962 L205.074627,184.308458 L205.512438,184.199005 L205.970149,184.079602 L206.40796,183.930348 C206.962414,183.638322 207.494542,183.305743 208,182.935323 C208.848682,182.29772 209.623027,181.566765 210.308458,180.756219 C211.227466,179.67834 212.000299,178.483962 212.606965,177.20398 C213.379639,175.561338 213.909232,173.815024 214.179104,172.0199 Z" id="Path" fill="#F0F3F4"></path>
            <path d="M243.442786,140.636816 C240.457711,141.18408 237.870647,141.562189 235.631841,141.940299 C233.670407,142.224391 231.736492,142.673751 229.850746,143.283582 C228.271464,143.825731 226.777253,144.589589 225.412935,145.552239 C223.894057,146.670873 222.517379,147.970698 221.313433,149.422886 C220.136726,150.842008 219.171506,152.423897 218.447761,154.119403 C217.710552,155.863329 217.092224,157.655151 216.597015,159.482587 C216.059701,161.343284 215.60199,163.323383 215.233831,165.452736 C214.865672,167.58209 214.487562,169.741294 214.109453,172.059701 C213.821119,173.846663 213.285291,175.584755 212.517413,177.223881 C211.9015,178.500963 211.125802,179.694602 210.208955,180.776119 C209.518201,181.581608 208.744437,182.312014 207.900498,182.955224 C207.396548,183.327865 206.864248,183.660553 206.308458,183.950249 L206.587065,183.840796 L206.875622,183.721393 L207.154229,183.60199 L207.422886,183.462687 C207.651741,183.343284 207.900498,183.18408 208.169154,183.014925 C208.437811,182.845771 208.736318,182.626866 209.054726,182.38806 C209.373134,182.149254 209.701493,181.880597 210.049751,181.58209 C210.39801,181.283582 210.776119,180.935323 211.174129,180.587065 L211.323383,180.427861 L211.482587,180.278607 L211.631841,180.119403 L211.791045,179.970149 C212.666667,179.064677 215.771144,175.930348 219.99005,171.721393 C224.208955,167.512438 229.472637,162.238806 234.656716,157.064677 L248.756219,142.965174 L255.223881,136.517413 C255.031462,136.690011 254.825123,136.84643 254.606965,136.985075 C254.005621,137.368869 253.373235,137.701704 252.716418,137.9801 C251.549477,138.49145 250.349414,138.923606 249.124378,139.273632 C247.256139,139.828873 245.359573,140.283916 243.442786,140.636816 L243.442786,140.636816 Z" id="Path" fill="#FFFFFF"></path>
            <polygon id="Path" fill="#023852" points="219.960199 121.363184 215.751244 121.363184 211.552239 121.363184 207.343284 121.363184 203.144279 121.363184 203.144279 117.154229 203.144279 112.955224 203.144279 108.746269 203.144279 104.537313 203.144279 104.149254 203.144279 103.751244 203.144279 103.363184 203.144279 102.965174 202.746269 102.965174 202.348259 102.965174 201.960199 102.965174 201.562189 102.965174 200.776119 102.965174 199.99005 102.965174 199.20398 102.965174 198.41791 102.965174 198.0199 102.965174 197.631841 102.965174 197.233831 102.965174 196.835821 102.965174 196.835821 103.363184 196.835821 103.751244 196.835821 104.149254 196.835821 104.537313 196.835821 108.746269 196.835821 112.955224 196.835821 117.154229 196.835821 121.363184 192.636816 121.363184 188.427861 121.363184 184.228856 121.363184 180.0199 121.363184 179.631841 121.363184 179.233831 121.363184 178.835821 121.363184 178.447761 121.363184 178.447761 121.751244 178.447761 122.149254 178.447761 122.547264 178.447761 122.935323 178.447761 123.721393 178.447761 124.507463 178.447761 125.303483 178.447761 126.089552 178.447761 126.477612 178.447761 126.875622 178.447761 127.263682 178.447761 127.661692 178.835821 127.661692 179.233831 127.661692 179.631841 127.661692 180.0199 127.661692 184.228856 127.661692 188.427861 127.661692 192.636816 127.661692 196.835821 127.661692 196.835821 131.870647 196.835821 136.069652 196.835821 140.278607 196.835821 144.477612 196.835821 144.875622 196.835821 145.273632 196.835821 145.661692 196.835821 146.059701 197.233831 146.059701 197.631841 146.059701 198.0199 146.059701 198.41791 146.059701 199.20398 146.059701 199.99005 146.059701 200.776119 146.059701 201.562189 146.059701 201.960199 146.059701 202.348259 146.059701 202.746269 146.059701 203.144279 146.059701 203.144279 145.661692 203.144279 145.273632 203.144279 144.875622 203.144279 144.477612 203.144279 140.278607 203.144279 136.069652 203.144279 131.870647 203.144279 127.661692 207.343284 127.661692 211.552239 127.661692 215.751244 127.661692 219.960199 127.661692 220.358209 127.661692 220.746269 127.661692 221.144279 127.661692 221.532338 127.661692 221.532338 127.263682 221.532338 126.875622 221.532338 126.477612 221.532338 126.089552 221.532338 125.303483 221.532338 124.507463 221.532338 123.721393 221.532338 122.935323 221.532338 122.547264 221.532338 122.149254 221.532338 121.751244 221.532338 121.363184 221.144279 121.363184 220.746269 121.363184 220.358209 121.363184"></polygon>
            <polygon id="Path" fill="#FFFFFF" opacity="0.2" points="12.9353234 11.9402985 26.8656716 25.3432836 40.7960199 38.7363184 54.7263682 52.1293532 68.6567164 65.5223881 109.960199 105.134328 151.293532 144.726368 192.626866 184.308458 234.059701 223.880597 387.064677 223.880597 387.064677 11.9402985"></polygon>
        </g>
    </g>
</svg>