<svg width="440" height="330" xmlns="http://www.w3.org/2000/svg"><defs><linearGradient x1="0%" y1="50%" x2="100%" y2="50%" id="a"><stop stop-color="#FFF" stop-opacity="0" offset="0%"/><stop stop-color="#FEF7E2" stop-opacity=".14" offset="8%"/><stop stop-color="#FCE9B3" stop-opacity=".36" offset="22%"/><stop stop-color="#FBDE8A" stop-opacity=".56" offset="36%"/><stop stop-color="#FAD468" stop-opacity=".72" offset="49%"/><stop stop-color="#F9CD4F" stop-opacity=".84" offset="63%"/><stop stop-color="#F8C73C" stop-opacity=".93" offset="76%"/><stop stop-color="#F8C431" stop-opacity=".98" offset="88%"/><stop stop-color="#F8C32D" offset="100%"/></linearGradient></defs><g fill-rule="nonzero" fill="none"><path d="M232.328 139.7H72.4c-8.344.013-15.105 6.775-15.119 15.119v159.928c.014 8.344 6.775 15.105 15.119 15.119h159.928c8.344-.014 15.105-6.775 15.119-15.12V154.82c-.014-8.344-6.775-15.106-15.12-15.119z" fill="#FFE700"/><path fill="#023852" d="M192.813 226.319h-31.985v-31.986H143.9V226.32h-31.986v16.928H143.9v31.985h16.928v-31.985h31.985v-12.699z"/><path d="M190.447 217.482V154.82c-.014-8.344-6.775-15.106-15.12-15.119h-66.965v62.676c.014 8.328 6.754 15.08 15.082 15.106h67.003z" fill="url(#a)" style="mix-blend-mode:multiply" transform="translate(57)"/><path d="M367.848 1.088H207.932a15.107 15.107 0 00-15.119 15.119v159.915a15.107 15.107 0 0015.12 15.12h159.915a15.107 15.107 0 0015.119-15.12V16.207a15.107 15.107 0 00-15.12-15.12z" fill="#0099DA"/><path fill="#F3F5F6" d="M328.346 87.694H296.36V55.71H279.42v31.985h-31.973v16.94h31.973v31.974H296.36v-31.974h31.986v-12.71z"/></g></svg>