<svg width="170" height="96" viewBox="0 0 170 96" xmlns="http://www.w3.org/2000/svg">
<defs>
<style>
.icon-blink {
  animation: blink-animation 1s steps(5, start) infinite;
  -webkit-animation: blink-animation 1s steps(5, start) infinite;
}

.icon-blink2 {
  animation: blink-animation 1s steps(5, start) infinite;
  -webkit-animation: blink-animation 1s steps(5, start) infinite;
  animation-delay: 500ms;
}

.icon-blink3 {
  animation: blink-animation 1s steps(5, start) infinite;
  -webkit-animation: blink-animation 1s steps(5, start) infinite;
  animation-delay: 350ms;
}

.icon-blink4 {
  animation: blink-animation 1s steps(5, start) infinite;
  -webkit-animation: blink-animation 1s steps(5, start) infinite;
  animation-delay: 450ms;
}

.icon-blink5 {
  animation: blink-animation 1s steps(5, start) infinite;
  -webkit-animation: blink-animation 1s steps(5, start) infinite;
  animation-delay: 500ms;
}

#camara-numer {
  stroke-dasharray: 5;
  stroke-dashoffset: 2;
  animation: dash 2s linear forwards;
  -webkit-animation: dash 2s linear forwards;
}

.test-stroke {
  fill: none;
  stroke: #000;
  stroke-width: 2;
  stroke-miterlimit: 5;
}

.scale-height {
  animation-duration: 3000ms;
  animation-iteration-count: infinite;
  transform-origin: 50% 86%;
  animation-name: scale-height;
}

.animate-line {
  stroke-dasharray: 241;
  stroke-dashoffset: 0;
  -webkit-animation: dash 3s linear forwards;
  -o-animation: dash 3s linear forwards;
  -moz-animation: dash 3s linear forwards;
  animation: dash 3s linear forwards;
}

.animate-line-long {
  stroke-dasharray: 350;
  stroke-dashoffset: 0;
  -webkit-animation: dash-long 4s linear forwards;
  -o-animation: dash-long 4s linear forwards;
  -moz-animation: dash-long 4s linear forwards;
  animation: dash-long 4s linear forwards;
}

.number3-dash-animate {
  stroke-dasharray: 65;
  stroke-dashoffset: 0;
  -webkit-animation: dash-number3 2s linear forwards;
  -o-animation: dash-number3 2s linear forwards;
  -moz-animation: dash-number3 2s linear forwards;
  animation: dash-number3 2s linear forwards;
}

.backup-local-animation {
  -webkit-animation: backup-local-animation 2s ease infinite;
  -o-animation: backup-local-animation 2s ease infinite;
  -moz-animation: backup-local-animation 2s ease infinite;
  animation: backup-local-animation 2s ease infinite;
}

.calender {
  -webkit-animation: calender 500ms ease forwards;
  -o-animation: calender 500ms ease forwards;
  -moz-animation: calender 500ms ease forwards;
  animation: calender 500ms ease forwards;
}

.calender-blue-month {
  -webkit-animation: calender-blue 500ms ease forwards;
  -o-animation: calender-blue 500ms ease forwards;
  -moz-animation: calender-blue 500ms ease forwards;
  animation: calender-blue 500ms ease forwards;
  fill: #cad3d6;
  animation-delay: 1200ms;
}

.calender-blue-week {
  -webkit-animation: calender-blue 500ms ease forwards;
  -o-animation: calender-blue 500ms ease forwards;
  -moz-animation: calender-blue 500ms ease forwards;
  animation: calender-blue 500ms ease forwards;
  fill: #cad3d6;
  animation-delay: 400ms;
}

.calender:nth-of-type(2) {
  animation-delay: 50ms;
}

.calender:nth-of-type(3) {
  animation-delay: 100ms;
}

.calender:nth-of-type(18) {
  animation-delay: 150ms;
}

.calender:nth-of-type(5) {
  animation-delay: 200ms;
}

.calender:nth-of-type(6) {
  animation-delay: 250ms;
}

.calender:nth-of-type(7) {
  animation-delay: 300ms;
}

.calender:nth-of-type(8) {
  animation-delay: 350ms;
}

.calender:nth-of-type(9) {
  animation-delay: 400ms;
}

.calender:nth-of-type(10) {
  animation-delay: 450ms;
}

.calender:nth-of-type(11) {
  animation-delay: 500ms;
}

.calender:nth-of-type(14) {
  animation-delay: 550ms;
}

.calender:nth-of-type(13) {
  animation-delay: 600ms;
}

.calender:nth-of-type(12) {
  animation-delay: 650ms;
}

.calender:nth-of-type(15) {
  animation-delay: 700ms;
}

.calender:nth-of-type(16) {
  animation-delay: 750ms;
}

.calender:nth-of-type(17) {
  animation-delay: 800ms;
}

.calender:nth-of-type(4) {
  animation-delay: 850ms;
}

.calender:nth-of-type(19) {
  animation-delay: 900ms;
}

.calender:nth-of-type(20) {
  animation-delay: 950ms;
}

.calender:nth-of-type(21) {
  animation-delay: 1000ms;
}

.calender:nth-of-type(25) {
  animation-delay: 1050ms;
}

.calender:nth-of-type(23) {
  animation-delay: 1100ms;
}

.calender:nth-of-type(24) {
  animation-delay: 11500ms;
}

.calender:nth-of-type(22) {
  animation-delay: 1200ms;
}

.calender:nth-of-type(26) {
  animation-delay: 1250ms;
}

.calender:nth-of-type(27) {
  animation-delay: 1300ms;
}

.calender:nth-of-type(28) {
  animation-delay: 1350ms;
}

.calender:nth-of-type(29) {
  animation-delay: 1400ms;
}

.animate-line-check-marks-month {
  -webkit-animation: animate-line-check-marks 1s linear forwards;
  -o-animation: animate-line-check-marks 1s linear forwards;
  -moz-animation: animate-line-check-marks 1s linear forwards;
  animation: animate-line-check-marks 1s linear forwards;
  animation-delay: 1800ms;
  opacity: 0;
}

.animate-line-check-marks-week {
  -webkit-animation: animate-line-check-marks 1s linear forwards;
  -o-animation: animate-line-check-marks 1s linear forwards;
  -moz-animation: animate-line-check-marks 1s linear forwards;
  animation: animate-line-check-marks 1s linear forwards;
  animation-delay: 800ms;
  opacity: 0;
}

.camara-detect-right {
  -webkit-animation: camara-detect-right 5s linear forwards;
  -o-animation: camara-detect-right 5s linear forwards;
  -moz-animation: camara-detect-right 5s linear forwards;
  animation: camara-detect-right 5s linear forwards;
  transform-origin: center;
}

.camara-detect-left {
  -webkit-animation: camara-detect-left 5s linear forwards;
  -o-animation: camara-detect-left 5s linear forwards;
  -moz-animation: camara-detect-left 5s linear forwards;
  animation: camara-detect-left 5s linear forwards;
  transform-origin: center;
}

.cloud-1 {
  -webkit-animation: cloud-ani 30s ease infinite;
  -o-animation: cloud-ani 30s ease infinite;
  -moz-animation: cloud-ani 30s ease infinite;
  animation: cloud-ani 30s ease infinite;
}

.cloud-2 {
  -webkit-animation: cloud-ani-fast-out 13s ease infinite;
  -o-animation: cloud-ani-fast-out 13s ease infinite;
  -moz-animation: cloud-ani-fast-out 13s ease infinite;
  animation: cloud-ani-fast-out 13s ease infinite;
  animation-delay: 1000ms;
}

.cloud-3 {
  -webkit-animation: cloud-ani 12s ease infinite;
  -o-animation: cloud-ani 12s ease infinite;
  -moz-animation: cloud-ani 12s ease infinite;
  animation: cloud-ani 12s ease infinite;
  animation-delay: 500ms;
}

.camara-move {
  animation: camara-move-ani 3s linear infinite;
}

.rotate {
  transform-origin: center 11%;
  animation-name: rotate;
  animation-duration: 2000ms;
  animation-iteration-count: infinite;
  animation-timing-function: ease-in-out;
}

@keyframes scale-height {
  0% {
    transform: scaleY(0) translateY(-6%);
  }
  50% {
    transform: scaleY(1);
  }
  100% {
    transform: scaleY(0) translateY(-6%);
  }
}

@keyframes rotate {
  0% {
    transform: rotateY(0deg);
  }
  20% {
    transform: rotateY(0deg);
  }
  50% {
    transform: rotateY(90deg);
  }
  80% {
    transform: rotateY(0deg);
  }
  100% {
    transform: rotateY(0deg);
  }
}

@-webkit-keyframes dash {
  from {
    stroke-dashoffset: 241;
  }
  to {
    stroke-dashoffset: 0;
  }
}

@keyframes dash {
  from {
    stroke-dashoffset: 241;
  }
  to {
    stroke-dashoffset: 0;
  }
}

@-webkit-keyframes dash-long {
  from {
    stroke-dashoffset: 350;
  }
  to {
    stroke-dashoffset: 0;
  }
}

@keyframes dash-long {
  from {
    stroke-dashoffset: 350;
  }
  to {
    stroke-dashoffset: 0;
  }
}

@-webkit-keyframes dash-number3 {
  0% {
    stroke-dashoffset: 70;
  }
  90% {
    stroke-dashoffset: 0;
    fill: #02375200;
  }
  100% {
    fill: #023852;
  }
}

@keyframes dash-number3 {
  0% {
    stroke-dashoffset: 70;
  }
  90% {
    stroke-dashoffset: 0;
    fill: #02375200;
  }
  100% {
    fill: #023852;
  }
}

@-webkit-keyframes backup-local-animation {
  0% {
    transform: translateY(0);
  }
  50% {
    transform: translateY(-6%);
  }
  100% {
    transform: translateY(0);
  }
}

@keyframes backup-local-animation {
  0% {
    transform: translateY(0);
  }
  50% {
    transform: translateY(-6%);
  }
  100% {
    transform: translateY(0);
  }
}

@-webkit-keyframes calender {
  0% {
    opacity: 0;
  }
  100% {
    opacity: 1;
  }
}

@keyframes calender {
  0% {
    opacity: 0;
  }
  100% {
    opacity: 1;
  }
}

@keyframes calender-blue {
  0% {
    fill: #cad3d6;
  }
  100% {
    fill: #50bfee;
  }
}

@-webkit-keyframes animate-line-check-marks {
  0% {
    opacity: 0;
  }
  100% {
    opacity: 1;
  }
}

@keyframes animate-line-check-marks {
  0% {
    opacity: 0;
  }
  100% {
    opacity: 1;
  }
}

@keyframes camara-detect-right {
  0% {
    transform: translate(0, 0) scaleY(1);
  }
  10% {
    transform: translate(-80%, 0);
  }
  20% {
    transform: translate(-50%, 0);
    fill: rgb(255, 255, 255);
  }
  25% {
    transform: translate(-50%, 0) scaleY(0.5);
    fill: rgb(255, 231, 0);
  }
  26% {
    transform: translate(-50%, 0) scaleY(0.5);
    fill: rgba(255, 230, 0, 0);
  }
  27% {
    transform: translate(-50%, 0) scaleY(0.5);
    fill: rgb(255, 231, 0);
  }
  28% {
    transform: translate(-50%, 0) scaleY(0.5);
    fill: rgba(255, 230, 0, 0);
  }
  29% {
    transform: translate(-50%, 0) scaleY(0.5);
    fill: rgb(255, 231, 0);
  }
  65% {
    transform: translate(-50%, 0) scaleY(0.5);
    fill: rgb(255, 231, 0);
  }
  80% {
    transform: translate(-50%, 0) scaleY(0.5);
    fill: rgb(255, 231, 0);
  }
  100% {
    transform: translate(0, 0) scaleY(1);
    fill: rgb(255, 255, 255);
  }
}

@-webkit-keyframes camara-detect-right {
  0% {
    transform: translate(0, 0) scaleY(1);
  }
  10% {
    transform: translate(-80%, 0);
  }
  20% {
    transform: translate(-50%, 0);
    fill: rgb(255, 255, 255);
  }
  25% {
    transform: translate(-50%, 0) scaleY(0.5);
    fill: rgb(255, 231, 0);
  }
  26% {
    transform: translate(-50%, 0) scaleY(0.5);
    fill: rgba(255, 230, 0, 0);
  }
  27% {
    transform: translate(-50%, 0) scaleY(0.5);
    fill: rgb(255, 231, 0);
  }
  28% {
    transform: translate(-50%, 0) scaleY(0.5);
    fill: rgba(255, 230, 0, 0);
  }
  29% {
    transform: translate(-50%, 0) scaleY(0.5);
    fill: rgb(255, 231, 0);
  }
  65% {
    transform: translate(-50%, 0) scaleY(0.5);
    fill: rgb(255, 231, 0);
  }
  80% {
    transform: translate(-50%, 0) scaleY(0.5);
    fill: rgb(255, 231, 0);
  }
  100% {
    transform: translate(0, 0) scaleY(1);
    fill: rgb(255, 255, 255);
  }
}

@keyframes camara-detect-left {
  0% {
    transform: translate(0, 0) scaleY(1);
  }
  10% {
    transform: translate(80%, 0);
  }
  20% {
    transform: translate(13%, 0);
    fill: rgb(255, 255, 255);
  }
  25% {
    transform: translate(13%, 0) scaleY(0.5);
    fill: rgb(255, 231, 0);
  }
  26% {
    transform: translate(13%, 0) scaleY(0.5);
    fill: rgba(255, 230, 0, 0);
  }
  27% {
    transform: translate(13%, 0) scaleY(0.5);
    fill: rgb(255, 231, 0);
  }
  28% {
    transform: translate(13%, 0) scaleY(0.5);
    fill: rgba(255, 230, 0, 0);
  }
  29% {
    transform: translate(13%, 0) scaleY(0.5);
    fill: rgb(255, 231, 0);
  }
  65% {
    transform: translate(13%, 0) scaleY(0.5);
    fill: rgb(255, 231, 0);
  }
  80% {
    transform: translate(13%, 0) scaleY(0.5);
    fill: rgb(255, 231, 0);
  }
  100% {
    transform: translate(0, 0) scaleY(1);
    fill: rgb(255, 255, 255);
  }
}

@-webkit-keyframes camara-detect-left {
  0% {
    transform: translate(0, 0) scaleY(1);
  }
  10% {
    transform: translate(80%, 0);
  }
  20% {
    transform: translate(13%, 0);
    fill: rgb(255, 255, 255);
  }
  25% {
    transform: translate(13%, 0) scaleY(0.5);
    fill: rgb(255, 231, 0);
  }
  26% {
    transform: translate(13%, 0) scaleY(0.5);
    fill: rgba(255, 230, 0, 0);
  }
  27% {
    transform: translate(13%, 0) scaleY(0.5);
    fill: rgb(255, 231, 0);
  }
  28% {
    transform: translate(13%, 0) scaleY(0.5);
    fill: rgba(255, 230, 0, 0);
  }
  29% {
    transform: translate(13%, 0) scaleY(0.5);
    fill: rgb(255, 231, 0);
  }
  65% {
    transform: translate(13%, 0) scaleY(0.5);
    fill: rgb(255, 231, 0);
  }
  80% {
    transform: translate(13%, 0) scaleY(0.5);
    fill: rgb(255, 231, 0);
  }
  100% {
    transform: translate(0, 0) scaleY(1);
    fill: rgb(255, 255, 255);
  }
}

@keyframes cloud-ani {
  0% {
    transform: translate(0%, 0%);
  }
  95% {
    transform: translate(-50%, -1%);
    opacity: 0;
  }
  99% {
    opacity: 0;
    transform: translate(5%, 0%);
  }
  100% {
    transform: translate(0%, 0%);
    opacity: 1;
  }
}

@keyframes cloud-ani-fast-out {
  0% {
    transform: translate(0%, 0%);
  }
  55% {
    transform: translate(-20%, -1%);
    opacity: 0;
  }
  95% {
    transform: translate(-50%, -1%);
    opacity: 0;
  }
  99% {
    opacity: 0;
    transform: translate(5%, 0%);
  }
  100% {
    transform: translate(0%, 0%);
    opacity: 1;
  }
}

@keyframes camara-move-ani {
  0% {
    transform: translate(0, 0);
  }
  10% {
    transform: translate(-3%, 7%) rotate(-5deg);
  }
  30% {
    transform: translate(0, 0);
  }
  90% {
    transform: translate(-3%, 7%) rotate(-5deg);
  }
  100% {
    transform: translate(0, 0);
  }
}

@keyframes blink-animation {
  to {
    visibility: hidden;
  }
}

@-webkit-keyframes blink-animation {
  to {
    visibility: hidden;
  }
}

</style>
</defs>
<g fill="none" fill-rule="evenodd"><path d="M112.44878 90.486415V79.771879H93.0356098v10.714536c-.0172985.173569-.0449909.345936-.0829269.516163-.085516.393633-.2221301.774294-.4063414 1.132228-.2309573.453297-.5699567.842244-.9868293 1.132227-.5353757.354629-1.1666646.534874-1.8078049.516163h25.9809757c-.643546.017204-1.277039-.162845-1.816098-.516163-.412482-.292524-.748236-.681013-.978536-1.132227-.187798-.356353-.324592-.737517-.406342-1.132228-.042993-.169212-.070747-.341961-.082927-.516163z" fill="#96A6AE" fill-rule="nonzero"/><path fill-rule="nonzero" style="mix-blend-mode:multiply" d="M93.0273173 82.90688502h19.4297561v6.29385366H93.02731729v-4.72039024z" opacity=".5" fill="#96A6AE"/><path d="M156.482927 83.339796H49.0014634c-.362028.015556-.7233648-.043958-1.0614634-.174829-.3255626-.138694-.62126-.339426-.8707317-.59109-.2469563-.237612-.4467514-.520117-.5887805-.83252-.1398407-.34078-.213042-.705395-.2156098-1.073951V16.6798936c.0025941-.3658596.0758149-.7277447.2156098-1.065626.1381519-.3268394.3380997-.6236964.5887805-.8741464.2476739-.2517695.5439777-.45008.8707317-.5827642.3350909-.1451088.696535-.218815 1.0614634-.2165102H156.482927c.364928-.0023048.726372.0714014 1.061463.2165102.326754.1326842.623058.3309947.870732.5827642.250681.25045.450629.547307.58878.8741464.137157.3383896.207318.7002944.207318 1.065626V80.592479c0 .368012-.070317.732607-.207318 1.073951-.142029.312403-.341824.594908-.58878.83252-.237748.276839-.528133.503266-.854146.666017-.343263.133152-.710485.192705-1.078049.174829z" fill="#023852" fill-rule="nonzero"/><path fill="#0099DA" fill-rule="nonzero" d="M49.8141463 76.912739H156.026829V18.2034058H49.8141463v44.032z"/><path d="M104.529272 79.901487c.000488-.237577-.04749-.472739-.140979-.690992-.177684-.434243-.521112-.779018-.953659-.957398-.442576-.188289-.942302-.188289-1.384878 0-.432547.17838-.775975.523155-.953658.957398-.09349.218253-.141467.453415-.14098.690992-.000455.240264.047498.478139.14098.699317.177683.434244.521111.779018.953658.957399.442576.188289.942302.188289 1.384878 0 .432547-.178381.775975-.523155.953659-.957399.093481-.221178.141435-.459053.140979-.699317z" fill="#135275" fill-rule="nonzero"/><path d="M51.414634 18.228381l3.90585366 3.71304065 3.89756097 3.71304065 3.90585367 3.7130407 3.9058537 3.7130406 11.584878 10.9559675 11.56 10.9726179 11.6097561 10.9726179c3.8699187 3.6630894 7.723252 7.3206287 11.56 10.9726178h42.7985369V18.228381H51.414634z" fill-rule="nonzero" opacity=".2" fill="#FFF"/><path d="M119.408226 93.448485H85.4082262c-.2105953.002133-.4188588.044515-.6136586.124878-.3723455.160764-.6691324.458715-.8292683.83252-.0800494.195564-.122265.404644-.1243902.616065h37.1512199c-.002126-.211421-.044341-.420501-.124391-.616065-.160135-.373805-.456922-.671756-.829268-.83252-.199967-.082464-.414063-.124878-.630244-.124878z" fill="#CAD3D6" fill-rule="nonzero"/><path d="M70.3717073 32.0648692v1.4319349h-.8292683v-3.729691h1.0780488c.2230544-.0060664.4459738.016313.6634146.0666016.1653092.0352249.3209656.1062552.4560976.2081301.1211116.0894873.2157057.2103519.2736585.3496585.1085437.2641842.1260561.5572021.0497561.8325204-.0295006.0996076-.0773162.19279-.1409756.2747317-.0606707.0874315-.1332463.1658964-.2156097.2331056-.0877592.0699838-.1856311.1261299-.2902439.1665041.2736585.4245854.5058536.7659187.6882926 1.0406504l.4063415.5910895h-.837561l-.4395122-.7159675-.4478048-.7159675h-.4146342v-.0333008zm0-.6410407h.2487805a1.75947259 1.75947259 0 00.3234146 0c.0824401-.0199661.1609382-.0537401.2321952-.0999024.0649137-.0483319.1139968-.1149989.1409756-.1914797.0279353-.0744939.0419901-.1535093.0414634-.2331057-.0046676-.0627824-.0186427-.1245139-.0414634-.1831544-.0284563-.0647216-.0782368-.1176371-.1409756-.1498537-.0700837-.0451191-.1494969-.0735922-.2321952-.083252a1.77598703 1.77598703 0 00-.3317073 0H70.38v1.0156748l-.0082927-.0749269zm4.7848781 2.0729756h-2.1395122v-3.729691h2.1395122v.6410406H73.804878v.8325204h1.2604879v.6493658H73.804878v.9573984h1.3517074v.657691zm2.3551219-3.1302764c-.1369518.0001894-.2724153.0285216-.3980488.083252-.1168549.0601136-.216691.1488866-.2902439.2580813-.0868043.119624-.1488396.2555046-.182439.3996098-.045598.173856-.0679083.3530383-.0663415.532813-.0208086.3274622.0603367.6533162.2321952.9324228.1687458.2155297.4323664.3338458.704878.3163577.1450513-.0019881.2895288-.0187239.4312195-.0499512.1746532-.037854.3464547-.0879274.5141464-.1498537v.6660163c-.1560132.0608552-.3169247.1082039-.4809756.1415284-.1776774.0338659-.3581742.0505925-.5390244.0499513-.2435166.0048781-.4856782-.037525-.7131708-.1248781-.2036641-.081483-.3854454-.2097992-.5307317-.3746341-.1497009-.1739834-.2600412-.3784872-.3234146-.5994147-.0718654-.2714544-.1053639-.5517032-.0995122-.8325203-.0010542-.1815777.0156107-.3628224.0497561-.5411382.0284187-.1652415.0815383-.3252253.157561-.4745366.0660731-.1424015.1526953-.274247.2570731-.3912845.1028081-.1097358.2199748-.204957.3482927-.283057.1356427-.0766717.2805816-.1354342.4312195-.1748292.1632073-.0377762.3300748-.0573205.497561-.0582764.1816081.0016248.3624437.0239688.5390244.0666016.1897815.0442538.3735493.1113405.5473171.1998049l-.1243903.3163577-.1326829.3246829-.2073171-.0915772-.207317-.0832521-.2073171-.0582764h-.2073171z" fill="#FFE700" fill-rule="nonzero"/><path class="icon-blink" d="M66.7892683 31.5487066c0-1.0575131-.8539349-1.9147968-1.9073171-1.9147968-1.0533821 0-1.9073171.8572837-1.9073171 1.9147968 0 1.057513.853935 1.9147967 1.9073171 1.9147967 1.0533822 0 1.9073171-.8572837 1.9073171-1.9147967z" fill="#FFE700" fill-rule="nonzero"/><path fill="#FFF" fill-rule="nonzero" d="M58.637561 38.2588204h-1.5921951V22.5824627h15.6151219v1.5901138H58.637561v7.0431219zM72.6604878 70.435731v1.598439H57.0453659V56.3578123h1.5839024V70.435731h7.0156097zm75.8200002-14.0779187h1.592195V72.03417h-15.623415v-1.598439h14.03122v-7.043122zm-14.03122-32.1852358v-1.5901138h15.623415v15.6763577h-1.592195V24.1725765h-7.01561z"/><path fill="#FFE700" fill-rule="nonzero" d="M74.4517073 52.1535846h.2570732v-3.9711219h3.9639024v-.9906992h-4.942439v4.9618211h.4892683zm.2570732 8.5499838v-3.971122h-.9785366v4.9618212h4.942439v-.9906992h-2.1146341zm13.5834146-3.971122h-.2653658v3.971122h-3.9556098v.9906992h4.942439v-4.9618212h-.4892683zm.4560976-9.5406829h-4.6770732v.9906992h3.9556098v3.9711219h.9868292v-4.9618211h-.1326829zm14.6614633-14.1278699h.265366v-3.971122h3.963902v-.982374h-4.942439v4.953496h.489269zm.265366 8.5583089v-3.9794471h-.978537v4.9618211h4.942439v-.982374h-2.114634zm13.583415-3.9794471h-.265366v3.9794471h-3.95561v.982374h4.934146v-4.9618211h-.489268zm.447804-9.5323578h-4.66878v.982374h3.95561v3.971122h.978536v-4.953496h-.132683zM165.596585.7454429h-37.217561c-.790244-.0022075-1.548759.3119649-2.107549.8729456-.558789.5609807-.871734 1.3224705-.869535 2.115814v23.427122c-.002199.7933434.310746 1.5548332.869535 2.115814.55879.5609807 1.317305.8751531 2.107549.8729456h37.217561c1.645539 0 2.980795-1.336774 2.985366-2.9887596V3.7342025c-.004571-1.6519857-1.339827-2.9887596-2.985366-2.9887596z"/><path fill="#023852" fill-rule="nonzero" d="M137.119512 14.7401212h-3.607317v10.2150244h3.607317v-7.659187zm11.452195-7.209626h-3.599024v17.4246504h3.599024V11.8845765zm-5.721951 9.9319675h-3.607317v7.4926829h3.607317v-5.6195122zm17.182439-7.4177561h-3.607317v14.910439h3.607317v-11.180748zm-5.730244 1.9231219h-3.599024v12.9873171h3.599024v-9.7404878zM54.0622617 31.81473418c-.0002184-.47151079-.0932182-.93833346-.2736585-1.37365854-.3578079-.84758285-1.0298744-1.52228487-1.8741463-1.88149593-.4336246-.18114788-.8986238-.27473171-1.3682927-.27473171H8.92518856c-.46966895 0-.93466809.09358383-1.36829268.2747317-.41515703.1835417-.79429054.44010798-1.1195122.7575935-.31810165.32497898-.5739075.70595938-.75463414 1.12390244-.18044027.43532508-.27365854.90214775-.27365854 1.37365854V91.4564903c0 .4688178.09323894.9329179.27365854 1.3653333.178672.4190701.43472106.8004127.75463414 1.1239024.32078555.3229246.70099733.5802206 1.1195122.7575935.43188111.1877302.89766752.2840868 1.36829268.2830651H50.5627495c.9333037-.0050195 1.8270822-.3788876 2.4878049-1.0406586.3199131-.3234897.5759622-.7048323.7546342-1.1239024.1804196-.4324154.2736585-.8965155.2736585-1.3653333V31.81473418h-.0165854z"/><path d="M31.8876276 91.0568805c-.0008096-.2865339-.0600765-.5698643-.1741464-.8325203-.1066526-.2550115-.2615431-.4868449-.4560975-.6826667-.1924398-.2005531-.4238986-.3592424-.68-.4662114-.5312741-.219266-1.1272625-.219266-1.6585366 0-.2561014.106969-.4875602.2656583-.68.4662114-.1945544.1958218-.3494449.4276552-.4560976.6826667-.2317829.5306243-.2317829 1.1344164 0 1.6650406.1066527.2550116.2615432.4868449.4560976.6826667.1924398.2005532.4238986.3592425.68.4662114.5312741.219266 1.1272625.219266 1.6585366 0 .2561014-.1069689.4875602-.2656582.68-.4662114.1945544-.1958218.3494449-.4276551.4560975-.6826667.1140699-.262656.1733368-.5459863.1741464-.8325203z" fill="#135275" fill-rule="nonzero"/><path fill="#0099DA" fill-rule="nonzero" d="M50.8529934 87.1107342H8.63494466V31.41512442H50.8529934V73.1826691z"/><path d="M50.81153 31.49005125H8.71787149V42.8206529c1.84097561 1.8731707 4.93414634 4.9951219 8.65756101 8.7581138 3.7234146 3.7629919 8.0770731 8.1420488 12.4390244 12.4878049 4.3619512 4.3457561 8.7156097 8.7081626 12.4390243 12.3962276 3.7234147 3.6880651 6.8165854 6.718439 8.657561 8.4500813V44.9519049L50.81153 31.49005125z" fill="#FFF" fill-rule="nonzero" opacity=".2"/><path class="scale-height scale-height1" fill="#FFF" fill-rule="nonzero" d="M19.4237251 60.2453033h-3.5990243v20.6798049h3.5990243V65.4152545z"/><path class="scale-height scale-height2" fill="#FFF" fill-rule="nonzero" d="M30.884213 45.6428968h-3.6073171v35.2822114h3.6073171v-26.457496z"/><path class="scale-height scale-height3" fill="#FFE700" fill-rule="nonzero" d="M25.153969 65.7565878h-3.5990243v15.1685204h3.5990243V69.5528805z"/><path class="scale-height scale-height4" fill="#FFF" fill-rule="nonzero" d="M42.3447008 50.7462464h-3.6073171v30.1788618h3.6073171V58.2888805z"/><path class="scale-height scale-height5" fill="#FFF" fill-rule="nonzero" d="M36.6144569 54.6257911h-3.6073171v26.2993171h3.6073171V61.2027017z"/><g fill-rule="nonzero"><path d="M168.4247679 94.9955312h-24.36390242c-.19935043.0009056-.39681679-.0389922-.5804878-.1172865-.17699101-.0732251-.33770233-.1814632-.47268293-.3183492-.13439998-.1390234-.24383624-.3006068-.32341464-.4775238-.0766395-.1858185-.11609811-.3851294-.11609811-.5864327V50.334491c0-.35678349.0702642-.71000127.20731762-1.03882367.13742572-.31281475.33148592-.59694172.57219513-.83776102.23754328-.24205372.51912115-.4354876.82926829-.5696775.32548899-.13845701.67512605-.20944081 1.02829268-.20944081h22.05024388c.7017882.00081386 1.3750487.28070089 1.8741464.7791183.2381923.24115468.4294704.52532675.5639024.83776103.1370534.3288224.2073176.68204018.2073176 1.03882367v43.1698256c0 .2013034-.0394586.4006142-.1160981.5864327-.1379987.3764346-.4227482.6792406-.7878049.837761-.1847038.0592443-.378973.0819989-.5721951.0670209z" fill="#003A5D"/><path fill="#0099DA" d="M168.0764752 86.0912764h-23.66731704V50.90064221h23.66731704V77.2998617z"/><path fill="#FFF" opacity=".2" d="M168.0764752 86.0912764l-5.9209756-5.6861139-5.9126829-5.6777886-5.92097561-5.6861138-5.91268293-5.6861138V50.90064221h23.66731704V77.2998617z"/><path d="M158.2413533 90.5036341c.003849-.2691685-.0498808-.5360322-.157561-.7825691-.1004348-.2380122-.243818-.4553417-.4229268-.6410407-.1824484-.185017-.399428-.3321233-.6385366-.4329105-.2470483-.1033468-.5118764-.1570858-.7795122-.1581789-.2677241.0002177-.5327212.053991-.7795122.1581789-.4814919.2056548-.8649046.5905711-1.0697561 1.0739512-.1037809.2477587-.1573442.5137951-.157561.7825691.0010889.2686853.054618.534552.157561.7825691.1003936.2400463.2469252.4578768.4312195.6410406.1849737.1798112.4014542.3237567.6385366.4245854.2455739.1081024.5113952.162043.7795122.1581789.2680456.0030978.5337076-.0508104.7795122-.1581789.4829546-.1962612.8659689-.5807775 1.0614634-1.065626.106949-.2467685.1606467-.5134723.157561-.7825691z" fill="#135275"/><path d="M154.8413533 69.9070812l-1.6004878.9240976-1.59219515.9240976-1.59219512.9240975-1.59219512.9157724c.38810641.6773489.86196688 1.30138 1.4097561 1.8565203.54518595.5541643 1.16150549 1.0329151 1.83268293 1.4236098.67537058.40714 1.40379206.7181433 2.16439026.9240975.7853381.2217415 1.5973636.3337979 2.4131707.3330123v-7.3927846c-.1512811.0022598-.3020979-.0173672-.4478049-.0582765-.1395541-.0410308-.2733186-.0997823-.3980487-.1748292-.1252382-.0689605-.239779-.1559041-.34-.2580813-.0999585-.1022036-.1863629-.2169286-.2570732-.3413334z" fill="#96A6AE"/><path d="M154.6174508 69.0745609c-.0085235-.071898-.0085235-.1445572 0-.2164553a1.6715886 1.6715886 0 010-.2164553c.0171228-.0708814.0392937-.140437.0663415-.20813l.0995122-.1914797-1.6004878-.9240976-1.59219513-.9240975-1.59219512-.9240976-1.59219512-.9240976c-.38835735.674793-.68932623 1.3965937-.89560976 2.1479025-.10476258.3829817-.18508821.7722814-.2404878 1.1655284-.09924877.8100424-.09924877 1.6292422 0 2.4392846.05539959.393247.13572522.7825467.2404878 1.1655284.10222669.37727.22967007.7471927.38146342 1.1072521.14627019.3561467.31810401.7011621.51414634 1.0323252l1.59219512-.9157724 1.59219512-.9240975 1.59219513-.9240976 1.6585366-.9324228-.0995122-.1914796c-.0270478-.0676931-.0492187-.1372486-.0663415-.2081301a1.67155293 1.67155293 0 010-.2164553c-.027799-.0695963-.0472844-.1422547-.0580488-.2164553z" fill="#9E9D8E"/><path d="M148.46428011 64.5040243l1.59219512.9240976 1.59219512.9240975 1.59219515.9240976 1.6004878.9657236c.1399644-.2514035.3466517-.4589013.5970732-.5994146.1247301-.075047.2584946-.1337985.3980487-.1748293.145707-.0409093.2965238-.0605363.4478049-.0582764v-7.4344065c-1.6088493.0037175-3.1881007.4345448-4.57756096 1.2487804-.66957956.3963681-1.28553768.8776362-1.83268293 1.431935-.54570787.5538865-1.01939065 1.1748862-1.4097561 1.8481951z" fill="#FFF"/><path d="M157.9428167 69.0745609c.0088695.0746623.0088695.1501182 0 .2247805-.0050087.0735752-.0189325.146263-.0414634.2164553-.0171228.0708815-.0392937.140437-.0663415.2081301-.0298872.065493-.0631016.1294035-.0995122.1914796l1.6004878.9240976 1.5921951.9240976 1.5921952.9240975 1.5921951.9157724c.1960423-.3311631.3678761-.6761785.5141463-1.0323252.1517934-.3600594.2792368-.7299821.3814634-1.1072521.1047626-.3829817.1850883-.7722814.2404879-1.1655284.0992487-.8100424.0992487-1.6292422 0-2.4392846-.0553996-.393247-.1357253-.7825467-.2404879-1.1655284-.2062835-.7513088-.5072524-1.4731095-.8956097-2.1479025l-1.5921951.9240976-1.5921952.9240976-1.5921951.9240975-1.6170731.9240976c.0364106.0620761.0696249.1259867.0995122.1914797.0270478.067693.0492186.1372486.0663414.20813.0355937.1416356.0550678.2868677.0580488.4329106z" fill="#023852"/><path d="M157.7189143 68.2420406l1.6004878-.9240976 1.5921951-.9240975 1.5921951-.9240976 1.5921951-.9240976c-.3903654-.6733088-.8640482-1.2943086-1.4097561-1.8481951-.5471452-.5542988-1.1631033-1.0355669-1.8326829-1.4319349-1.387029-.8128203-2.9632334-1.2435968-4.5692683-1.2487805v7.3927805c.1485213-.0016924.2965213.0179315.4395122.0582764.1395541.0410308.2733186.0997823.3980488.1748293.2504215.1405133.4571087.3480111.5970732.5994146z" fill="#0099DA"/><path d="M156.2842801 70.7396016v7.3927808c.8130444.0002366 1.6222563-.1118165 2.4048781-.3330085.7605981-.2059542 1.4890196-.5169575 2.1643902-.9240975.6711774-.3906947 1.287497-.8694455 1.8326829-1.4236098.5477892-.5551403 1.0216497-1.1791714 1.4097561-1.8565203l-1.5921951-.9157724-1.5921951-.9240975-1.5921951-.9240976-1.6004878-.9240976c-.0707103.1244048-.1571148.2391298-.2570732.3413334-.1002211.1021772-.2147619.1891208-.34.2580813-.1247302.0750469-.2584947.1337984-.3980488.1748292-.1429909.040345-.2909909.0599688-.4395122.0582765z" fill="#FFE700"/></g><path stroke="#FFE700" d="M120.641951 34.4875033l2.910732-2.9221463 2.910732-2.9221464"/><path d="M15.0595122 22.1994916H2.97707317c-.79024447-.0022074-1.5487597.3119649-2.10754911.8729457-.55878942.5609807-.87173455 1.3224705-.8695357 2.115814v12.1298211c0 1.6519921 1.3315522 2.9924843 2.97708481 2.9970732H15.0595122c1.6450031-.0090991 2.9763023-1.345619 2.9853658-2.9970732V25.1882513c-.0045709-1.6519857-1.3398268-2.9887597-2.9853658-2.9887597z" fill="#DFE4E7" fill-rule="nonzero"/><path d="M12.7126829 33.7715358h-.1907317c-.0575817-.0104546-.1165646-.0104546-.1741463 0-.0825119.0237926-.1608435.0603034-.2321951.1082277l-.2239025.124878c-.0636491.0296094-.1304088.0519499-.1990244.0666017-.0713363.0124333-.1442734.0124333-.2156097 0-.0903868-.009157-.1794261-.0287107-.2653659-.0582765-.1667424-.0551577-.3195416-.1460605-.4478049-.2664065-.1245702-.1155714-.2259119-.2540497-.2985365-.4079349-.1384627-.3185021-.1384627-.6805224 0-.9990244v-.1998049c.0641205-.1618224.1600055-.3090452.2819512-.4329106.2379608-.2441689.5636403-.3821506.9039024-.3829593.1744147-.0009246.3469693.0359936.5058537.1082276.0990096.0252439.1939427.0644873.2819512.1165529.0619581.0388912.1155316.089844.157561.1498536.0427868.0552681.0763911.1171176.0995122.1831545.0338262.0810524.0615463.1645388.0829268.2497561.0272194.0801287.0604866.1580566.0995122.2331057.0249917.0524674.0586362.1003174.0995122.1415285l.0829268.0666016h.0912195c.0466012.0086028.0943744.0086028.1409756 0 .0433526.0124909.0893304.0124909.132683 0 .0442846-.0149342.084179-.0406811.1160975-.0749269.0323571-.0382683.0601852-.0801742.0829268-.124878l.2156098-.5577886.2156098-.5577886.2156097-.5577887.2156098-.5577886a.35937969.35937969 0 000-.0915772.30087108.30087108 0 000-.083252l-.0331708-.0832521h-.0746341l-.6136585-.2414309-.6053659-.2414309-.6053658-.2331057-.6053659-.2414308-.1658537-.0582765-.2736585-.1332032c-.0875876-.0502431-.1660907-.1149806-.2321951-.1914797-.0593872-.0583145-.0817333-.1448445-.0580488-.2247805.0155613-.0485461.0442752-.0917858.0829268-.124878l.1492683-.0832521.2321951-.1498536c.1207021-.0911489.2343599-.1913374.34-.2997073l.1078049-.1248781c0-.041626.0580488-.083252.0829269-.1332032l.0746341-.1498537c.0214957-.051041.0381546-.1040012.0497561-.1581789.0422003-.1515329.0562556-.3095699.0414634-.4662113-.0101994-.1531849-.0496126-.3029772-.1160976-.4412358-.0661604-.1393735-.1559525-.2661389-.2653658-.3746342-.10961-.1117681-.2389621-.2021051-.3814634-.2664065-.1655376-.0805083-.3468002-.1231583-.5307317-.1248883-.1789208-.0006773-.3562985.0332414-.5224391.0999127-.162694.0653323-.309686.1646571-.4312195.2913821-.1345467.1264714-.23692139.2834906-.29853655.4578862-.02390964.047192-.04067925.0976981-.0497561.1498537a1.35396526 1.35396526 0 000 .1581788 1.0697955 1.0697955 0 000 .1581789.96114116.96114116 0 000 .1581789c.00405726.1317275.02071926.2627584.0497561.3912845 0 .1082277.0497561.1831545.06634146.2414309.02157735.0481387.03824761.0983456.0497561.1498537.0119375.046415.0119375.0951134 0 .1415284-.0352869.0754383-.10800686.1262245-.19073171.1332033-.10167162.0157914-.20515764.0157914-.30682926 0l-.33170732-.1498537-.16585366-.0666016-.66341463-.2497561-.60536586-.2331057-.60536585-.2331057-.60536585-.2331057c-.02708744-.0078632-.0558394-.0078632-.08292683 0h-.08292683l-.07463415.0499512-.0497561.0749269-.21560975.5577886-.16585366.5577886-.21560976.5577886-.21560975.5577886c-.00730627.0468911-.00730627.0946374 0 .1415285-.00856918.046784-.00856918.0947445 0 .1415284.01688455.0434601.04226075.083089.07463414.1165529l.12439025.0749268h.23219512c.05486747.0096414.11098618.0096414.16585366 0 .08380758-.0201857.16275184-.0569821.23219512-.1082276l.22390244-.1248781c.06748391-.0228228.13686607-.0395398.20731707-.0499512.07133638-.0124334.14427338-.0124334.21560976 0 .26634243.0283255.5164648.1421979.71317073.3246829.12468444.1135841.22365743.2526897.2902439.407935.07162335.1511338.11115942.3155684.11609756.4828618.00971677.1760424-.01857097.3521142-.08292683.5161626v.1498536c-.06413897.1642758-.15995494.3142217-.28195122.4412358-.1195417.1193363-.26014225.2153196-.41463414.2830569-.15746123.0665952-.32669868.1005754-.49756098.0999025-.17433497.000154-.34672912-.0367298-.50585366-.1082277-.12917986-.0021929-.25748119-.0217936-.38146341-.0582764-.05822303-.0435386-.11111091-.0938393-.15756098-.1498537-.0301005-.0558871-.05508122-.114404-.07463414-.1748292l-.08292683-.2414309c-.01952832-.0815611-.05022713-.16001-.09121951-.2331057-.02763207-.0530032-.06409298-.1008698-.10780488-.1415285-.02298327-.0297283-.05106557-.0551015-.08292683-.0749268h-.12439025c-.04566431-.0158587-.09531129-.0158587-.14097561 0-.04666092-.0079181-.09431468-.0079181-.14097561 0-.04191761.0229235-.08090295.0508794-.11609756.083252-.03421298.0352328-.05976808.0779917-.07463414.1248781l-.26536586.6909919-.27365853.6243902-.26536586.6993171-.27365853.6909918c-.00402442.0248123-.00402442.0501147 0 .0749269-.00388391.0248234-.00388391.0501034 0 .0749268.01076384.0239774.02471165.0463814.04146341.0666016h.06634146l.71317074.2747317.72146341.2830569.7297561.3330082.71317073.2830569c.04387256.0079569.08881037.0079569.13268293 0 .04109244.0078747.0832978.0078747.12439024 0 .08100178-.0367089.14587351-.101835.18243903-.1831545v-.5078374c-.02713735-.0783864-.04657934-.1592477-.05804878-.2414309-.00844626-.0802536-.00844626-.1611773 0-.2414309-.01168533-.0800494-.01168533-.1613814 0-.2414309.01887716-.0832471.04668163-.1641962.08292682-.2414309.06707491-.140963.15990043-.2680397.27365854-.3746341.10662342-.1073188.2334852-.192225.37317073-.2497561.13919651-.0612346.28789014-.0978497.4395122-.1082276.15432532-.0093927.30903573.0103749.45609756.0582764.16926078.0550343.32479235.1458802.45609756.2664065.13212951.1105136.2371212.2501019.30682927.4079349.07514914.1532217.11752102.320538.12439024.491187.00912274.1787236-.01912543.357385-.08292683.5244878-.03369482.0774269-.07247952.1525193-.11609756.2247805-.04789972.0701461-.10054404.1369049-.15756097.1998049l-.18243903.1581789-.20731707.1165528h-.07463415l-.05804878.0499512-.0497561.0666017v.3330081c-.00831394.0271231-.00831394.0561289 0 .083252-.00832639.0214137-.00832639.045188 0 .0666016.00886136.0249494.02300771.0476723.04146342.0666017h.06634146l.74634147.2913821.74634142.2913821.7463415.2913821.7546341.2913821h.1492683c.0229605-.0118847.0428382-.0289896.0580488-.0499512.0056177-.0218424.0056177-.0447592 0-.0666016l.2736586-.6826667.2653658-.6909919.2653659-.6909918.2653658-.6909919c.0158324-.0486868.0158324-.1011668 0-.1498537.0079258-.0440446.0079258-.0891586 0-.1332032-.022834-.042082-.0506806-.0812202-.0829268-.1165529-.0217572-.0051289-.0439962-.0079197-.0663415-.0083252z" fill="#023852" fill-rule="nonzero"/></g></svg>