<svg width="440" height="330" xmlns="http://www.w3.org/2000/svg"><g fill-rule="nonzero" fill="none"><path d="M268.596 311.673v-38.941h-70.873v38.941c-.054.63-.15 1.255-.289 1.871a16.514 16.514 0 01-1.49 4.112 11.294 11.294 0 01-3.591 4.122 11.549 11.549 0 01-6.618 1.871h94.895a11.468 11.468 0 01-6.617-1.87 11.179 11.179 0 01-3.592-4.123 16.064 16.064 0 01-1.49-4.112 12.98 12.98 0 01-.335-1.87z" fill="#B1BDC5"/><path d="M295.193 323.465H171.127a5.647 5.647 0 00-2.31.462 5.844 5.844 0 00-1.836 1.235 5.913 5.913 0 00-1.236 1.836 5.786 5.786 0 00-.45 2.24h135.672a5.774 5.774 0 00-3.522-5.311 5.613 5.613 0 00-2.252-.462z" fill="#EFF2F3"/><path fill="#9DADB7" opacity=".2" style="mix-blend-mode:multiply" d="M197.7 285.54H268.619V308.404H197.7v-17.149z"/><path d="M433.66 287.098h-401a5.602 5.602 0 01-2.206-.45 5.705 5.705 0 01-3.038-3.014 5.856 5.856 0 01-.439-2.218V40.56c0-.757.15-1.507.44-2.206a5.774 5.774 0 011.223-1.813 5.878 5.878 0 011.814-1.213 5.602 5.602 0 012.205-.45h401a5.703 5.703 0 015.244 3.464c.297.698.45 1.448.45 2.206v240.868c0 .762-.153 1.516-.45 2.218a5.532 5.532 0 01-1.224 1.801 5.335 5.335 0 01-1.802 1.155 5.67 5.67 0 01-2.217.508z" fill="#023852"/><path fill="#0099DA" d="M39.265 263.747h387.8V47.027h-387.8v162.546z"/><path fill="#356075" d="M427.077 61.509H39.242V47.027h387.835v10.855zM239.679 274.626a6.398 6.398 0 00-.508-2.541 6.536 6.536 0 00-1.398-2.067 6.294 6.294 0 00-2.067-1.398 6.467 6.467 0 00-5.081 0 6.34 6.34 0 00-2.08 1.398 6.536 6.536 0 00-1.396 2.067 6.525 6.525 0 001.397 7.149 6.721 6.721 0 002.079 1.397 6.525 6.525 0 008.546-3.465 6.386 6.386 0 00.508-2.54z"/><path d="M39.265 46.634l14.459 13.697 14.412 13.708 14.46 13.685 14.47 13.696a52458.403 52458.403 0 0042.81 40.501l42.845 40.49 42.845 40.42 42.857 40.42h158.643V46.633h-387.8z" fill="#F3F5F6" opacity=".2"/><path fill="#F3F5F6" d="M311.314 167.755h-24.899v70.308h24.9v-35.154zM196.06 118.131H171.16v119.932h24.899v-59.96z"/><path fill="#FFE700" d="M349.736 186.499h-24.899v51.564h24.9v-25.776z"/><path fill="#F3F5F6" d="M234.47 135.466h-24.899V238.063h24.9v-51.299zM272.892 148.654h-24.899V238.063h24.9v-44.704z"/><path d="M155.155 287.156V167.778a9.343 9.343 0 00-9.331-9.33h-110.6a9.366 9.366 0 00-9.332 9.33v119.378h129.263z" fill="#023852" opacity=".3" style="mix-blend-mode:multiply"/><path d="M129.621 160.93a9.343 9.343 0 00-9.331-9.32H9.69a9.366 9.366 0 00-9.332 9.32v157.8a9.366 9.366 0 009.331 9.32h110.6a9.343 9.343 0 009.332-9.32v-157.8z" fill="#023852"/><path d="M70.677 317.667a5.682 5.682 0 10-11.364.005 5.682 5.682 0 0011.364-.005z" fill="#356075"/><path fill="#0099DA" d="M121.052 307.227H8.927V159.88h112.125v73.669z"/><path fill="#F3F5F6" opacity=".2" d="M121.052 230.695v43.226l-52.511-57.015-52.512-57.027h105.023v35.408z"/><path fill="#F3F5F6" d="M91.014 230.764H79.65v49.197h11.364v-24.598zM38.422 196.05H27.07v83.911h11.352v-41.956z"/><path fill="#FFE700" d="M108.533 243.883H97.181v36.078h11.352v-18.039z"/><path fill="#F3F5F6" d="M55.953 208.175H44.589v71.786h11.364v-35.893zM73.483 217.403H62.12v62.558h11.363v-31.285z"/></g></svg>