<svg xmlns="http://www.w3.org/2000/svg" viewBox="0 0 170 123">
    <defs />
    <defs>
        <style>
            .animate-line {
                stroke-dasharray: 241;
                stroke-dashoffset: 0;
                -webkit-animation: dash 3s linear infinite;
                -o-animation: dash 3s linear infinite;
                -moz-animation: dash 3s linear infinite;
                animation: dash 3s linear infinite;
                animation-iteration-count: infinite;
            }

            @-webkit-keyframes dash {
                from {
                    stroke-dashoffset: 241
                }

                to {
                    stroke-dashoffset: 0
                }
            }

            @keyframes dash {
                from {
                    stroke-dashoffset: 241
                }

                to {
                    stroke-dashoffset: 0
                }
            }

            @-webkit-keyframes dash-long {
                from {
                    stroke-dashoffset: 350
                }

                to {
                    stroke-dashoffset: 0
                }
            }

            @keyframes dash-long {
                from {
                    stroke-dashoffset: 350
                }

                to {
                    stroke-dashoffset: 0
                }
            }
        </style>
    </defs>
    <g fill="none" fill-rule="evenodd" transform="translate(0 .042)">
        <path id="Path" fill="#D1D3D4" fill-rule="nonzero"
            d="M169.623 50.13c-.001.252-.049.5-.14.735a1.94 1.94 0 01-1.01 1.016c-.232.1-.48.15-.732.15h-29.213c-.251 0-.5-.05-.731-.15a1.94 1.94 0 01-1.012-1.016c-.099-.232-.15-.482-.15-.734V8.425c0-.252.051-.502.15-.734.097-.226.236-.431.41-.605.17-.174.375-.31.602-.4.23-.1.48-.151.731-.151h29.213c.251 0 .5.051.731.151.227.09.432.226.603.4.173.174.312.379.409.605.09.234.138.483.14.734v41.706z" />
        <path id="Path" fill="#CAD3D6" fill-rule="nonzero"
            d="M169.623 50.13c-.001.252-.049.5-.14.735a1.94 1.94 0 01-1.01 1.016c-.232.1-.48.15-.732.15h-29.213c-.251 0-.5-.05-.731-.15a1.94 1.94 0 01-1.012-1.016c-.099-.232-.15-.482-.15-.734V8.425c0-.252.051-.502.15-.734.097-.226.236-.431.41-.605.17-.174.375-.31.602-.4.23-.1.48-.151.731-.151h29.213c.251 0 .5.051.731.151.227.09.432.226.603.4.173.174.312.379.409.605.09.234.138.483.14.734v41.706z" />
        <path id="Path" fill="#96A6AE" fill-rule="nonzero"
            d="M139.873 33.55c-.193-.238-.365-.335-.495-.292-.129.044-.193.216-.193.53v14.604c0 .596.482 1.08 1.076 1.08h14.912c.595 0 1.076-.484 1.076-1.08v-7.745a.92.92 0 00-.236-.68.987.987 0 00-.775-.217c-.344 0-.678.076-1.076.097-.398.022-.689 0-1.076 0a17.264 17.264 0 01-13.213-6.297z" />
        <path id="Path" fill="#F1F3F4" fill-rule="nonzero"
            d="M167.278 22.468c-.004 6.77-4.77 12.595-11.385 13.913-6.615 1.319-13.236-2.237-15.816-8.492-2.58-6.256-.399-13.47 5.209-17.23a14.097 14.097 0 0117.85 1.763 14.168 14.168 0 014.142 10.046z" />
        <path id="Path" fill="#96A6AE" fill-rule="nonzero"
            d="M153.13 35.646a.548.548 0 01-.388-.162.541.541 0 01-.162-.4.552.552 0 01.55-.551c6.638-.006 12.021-5.4 12.039-12.065a.563.563 0 01.161-.4.601.601 0 01.398-.162c.146 0 .285.058.388.162a.53.53 0 01.172.4c-.024 7.28-5.906 13.172-13.159 13.178z" />
        <path id="Path" fill="#96A6AE" fill-rule="nonzero"
            d="M153.13 33.14a.548.548 0 01-.55-.562.55.55 0 01.55-.551c5.256-.006 9.515-4.282 9.521-9.56a.563.563 0 01.162-.4.601.601 0 01.398-.161c.145 0 .284.058.387.162a.52.52 0 01.161.4c0 5.894-4.759 10.672-10.63 10.672z" />
        <path id="Path" fill="#96A6AE" fill-rule="nonzero"
            d="M153.13 30.612a.548.548 0 01-.55-.562.52.52 0 01.162-.389.516.516 0 01.387-.172 6.98 6.98 0 004.952-2.053 7.035 7.035 0 002.053-4.968.563.563 0 01.16-.4.58.58 0 01.399-.162c.145 0 .285.058.387.162a.52.52 0 01.162.4c-.006 4.495-3.635 8.138-8.113 8.144z" />
        <path id="Path" fill="#96A6AE" fill-rule="nonzero"
            d="M153.13 27.523a5.05 5.05 0 01-4.887-3.75 5.074 5.074 0 012.351-5.704 5.031 5.031 0 016.097.812 5.044 5.044 0 010 7.151 5.058 5.058 0 01-3.562 1.49z" />
        <path id="Path" fill="#023852" fill-rule="nonzero"
            d="M156.292 22.468a3.165 3.165 0 01-1.946 2.92 3.144 3.144 0 01-3.433-.685 3.171 3.171 0 010-4.482 3.154 3.154 0 013.431-.667 3.176 3.176 0 011.948 2.914z" />
        <path id="Path" fill="#96A6AE" fill-rule="nonzero"
            d="M167.278 47.916a1.57 1.57 0 01-.463 1.08 1.579 1.579 0 01-1.076.465c-.873 0-1.581-.711-1.581-1.588a1.59 1.59 0 01.462-1.08 1.6 1.6 0 011.076-.465c.405.011.79.178 1.076.465.317.288.5.695.506 1.123zM167.278 10.64a1.585 1.585 0 00-1.582-1.577 1.557 1.557 0 00-1.076.464 1.59 1.59 0 00-.462 1.08 1.585 1.585 0 001.538 1.62c.405-.01.79-.177 1.076-.464.315-.29.497-.695.506-1.123zM138.991 10.64a1.57 1.57 0 01.457-1.119 1.557 1.557 0 011.114-.458 1.585 1.585 0 011.57 1.577 1.57 1.57 0 01-.462 1.08 1.579 1.579 0 01-1.076.464 1.622 1.622 0 01-1.076-.464 1.601 1.601 0 01-.527-1.08z" />
        <path id="Path" fill="#AFBBC1" fill-rule="nonzero"
            d="M169.075 7.086a1.732 1.732 0 00-.603-.4c-.231-.1-.48-.151-.731-.151h-14.612v45.497h14.612c.251 0 .5-.052.731-.151a1.94 1.94 0 001.012-1.016 2.07 2.07 0 00.14-.734V8.425a2.07 2.07 0 00-.14-.734 1.934 1.934 0 00-.41-.605z"
            style="mix-blend-mode:multiply" />
        <path id="Path" fill="#ebeff2" fill-rule="nonzero"
            d="M102.215 14.042c.083-.389.144-.782.183-1.177a11.657 11.657 0 00-3.307-9.435A11.566 11.566 0 0090.907 0a11.38 11.38 0 00-5.24 1.264c-1.565.8-2.93 1.944-3.992 3.348-.85-.467-1.753-.83-2.69-1.08a11.653 11.653 0 00-2.97-.389c-6.11.005-11.164 4.777-11.544 10.9-6.07.746-10.518 6.1-10.16 12.228.36 6.13 5.4 10.923 11.516 10.952h35.312c6.072-.159 10.991-4.997 11.274-11.088.283-6.091-4.167-11.368-10.198-12.093z" />
        <path id="Path" fill="#FFE700" fill-rule="nonzero"
            d="M16.14 2.074a1.082 1.082 0 00-.41-.843 1.62 1.62 0 00-.99-.345H6.95c-.379-.001-.743.15-1.01.421-.26.27-.407.63-.41 1.005v20.372c.003.375.15.735.41 1.004.268.268.632.416 1.01.41h22.187c.375.003.737-.144 1.003-.41.267-.266.417-.627.417-1.004V4.677a1.419 1.419 0 00-.409-1.018 1.407 1.407 0 00-1.011-.418H17.57a1.62 1.62 0 01-1-.346 1.081 1.081 0 01-.43-.821z" />
        <path id="Path" fill="#FFF" fill-rule="nonzero" d="M28.104 16.3H7.984V4.45h20.12v5.92z" />
        <path id="Path" fill="#FFE700" fill-rule="nonzero"
            d="M14.622 7.248l-.86 1.08-.85.961c-.334.362-.741.646-1.195.832a3.754 3.754 0 01-1.474.346H4.939a1.525 1.525 0 00-1.076.432c-.275.287-.392.69-.312 1.08l.914 5.52.915 5.476c.073.322.27.601.548.778.319.212.694.321 1.076.313h22.133a1.92 1.92 0 001.076-.313c.277-.177.475-.456.548-.778l1.28-7.68 1.313-7.669a1.386 1.386 0 00-.376-1.145c-.3-.322-.723-.5-1.162-.486H17.452a3.883 3.883 0 00-1.56.378c-.48.2-.911.498-1.27.875z" />
        <path id="Path" fill="#D1D3D4" fill-rule="nonzero"
            d="M31.58 102.81c.448.004.879-.175 1.193-.496.324-.32.506-.755.506-1.21V45.119a1.714 1.714 0 00-1.7-1.707H1.7a1.675 1.675 0 00-1.205.497A1.72 1.72 0 000 45.119v55.985c.002.452.18.886.495 1.21.319.321.753.5 1.205.496h1.732v1.707H1.076a.752.752 0 00-.57.26.888.888 0 00-.237.604.855.855 0 00.237.605.753.753 0 00.56.249h31.202a.773.773 0 00.56-.249.855.855 0 00.236-.605.888.888 0 00-.237-.605.773.773 0 00-.56-.248h-2.366v-1.718h1.732-.054z" />
        <path id="Path" fill="#96A6AE" fill-rule="nonzero" d="M29.847 105.014H3.432v-3.511h26.415v1.761z" />
        <path id="Path" fill="#023852" fill-rule="nonzero"
            d="M31.58 43.412H1.7a1.675 1.675 0 00-1.205.497A1.72 1.72 0 000 45.119v55.985c.002.452.18.886.495 1.21.319.321.753.5 1.205.497h29.88c.448.003.879-.176 1.193-.497.324-.32.506-.755.506-1.21V45.119a1.714 1.714 0 00-1.7-1.707z" />
        <path id="Path" fill="#33617E" fill-rule="nonzero"
            d="M33.279 52.356H0V50.984H33.279v.691zM33.279 58.167H0V56.806H33.279v.681zM33.279 63.989H0V62.628H33.279v.681zM33.279 69.811H0V68.439H33.279v.681z" />
        <path id="Path" fill="#0099DA" fill-rule="nonzero"
            d="M11.384 70.33H0v-2.409h11.384v1.199zM11.384 64.518H0v-2.419h11.384v1.21z" />
        <path id="Path" fill="#FFE700" fill-rule="nonzero" d="M11.384 58.696H0v-2.419h11.384v1.21z" />
        <path id="Path" fill="#0099DA" fill-rule="nonzero" d="M11.384 52.885H0v-2.42h11.384v1.21z" />
        <path id="Path" fill="#194D6D" fill-rule="nonzero"
            d="M0 98.209v2.895c.002.452.18.886.495 1.21.319.321.753.5 1.205.496h29.88c.448.004.879-.175 1.193-.496.324-.32.506-.755.506-1.21v-2.895H0z" />
        <path id="Path" fill="#CAD3D6" fill-rule="nonzero"
            d="M32.214 106.224H1.076a.752.752 0 01-.56-.249.856.856 0 01-.236-.605c0-.219.08-.43.226-.594a.752.752 0 01.57-.259h31.202a.773.773 0 01.56.249.89.89 0 01.237.604.856.856 0 01-.237.605.773.773 0 01-.624.249z" />
        <path id="Path" fill="#D1D3D4" fill-rule="nonzero"
            d="M31.58 43.412H16.633v59.41H31.58c.449.003.88-.176 1.194-.498.324-.318.506-.754.506-1.21V45.12a1.714 1.714 0 00-1.7-1.707z"
            style="mix-blend-mode:multiply" />
        <path id="Path" fill="#D1D3D4" fill-rule="nonzero"
            d="M151.235 103.772c.323.002.633-.127.861-.357.227-.23.355-.54.355-.864V62.358a1.256 1.256 0 00-.355-.864 1.203 1.203 0 00-.86-.356H129.78a1.203 1.203 0 00-.86.356c-.226.231-.353.54-.356.864v40.193c0 .324.128.634.355.864.228.23.538.359.861.357h1.248v1.231h-1.7a.505.505 0 00-.398.184.606.606 0 00-.172.432c0 .16.062.315.172.432a.527.527 0 00.398.173h22.38a.57.57 0 00.409-.173.693.693 0 00.161-.432.65.65 0 00-.161-.432.537.537 0 00-.41-.184h-1.72v-1.231h1.247z" />
        <path id="Path" fill="#96A6AE" fill-rule="nonzero" d="M149.987 105.349h-18.958v-2.506h18.958v1.253z" />
        <path id="Path" fill="#023852" fill-rule="nonzero"
            d="M151.235 61.138h-21.454a1.203 1.203 0 00-.86.356c-.226.231-.353.54-.356.864v40.193c0 .324.128.634.355.864.228.23.538.359.861.357h21.454c.323.002.633-.127.861-.357.227-.23.355-.54.355-.864V62.358a1.256 1.256 0 00-.355-.864 1.203 1.203 0 00-.86-.356z" />
        <path id="Path" fill="#33617E" fill-rule="nonzero"
            d="M152.451 67.554h-23.886v-.972h23.886v.486zM152.451 71.734h-23.886v-.983h23.886v.486zM152.451 75.903h-23.886v-.972h23.886v.486zM152.451 80.084h-23.886v-.983h23.886v.497z" />
        <path id="Path" fill="#0099DA" fill-rule="nonzero"
            d="M136.742 80.462h-8.177V78.723h8.177v.875zM136.742 76.282h-8.177v-1.729h8.177v.864z" />
        <path id="Path" fill="#FFE700" fill-rule="nonzero" d="M136.742 72.112h-8.177V70.373h8.177v.864z" />
        <path id="Path" fill="#0099DA" fill-rule="nonzero" d="M136.742 67.932h-8.177v-1.728h8.177v.864z" />
        <path id="Path" fill="#194D6D" fill-rule="nonzero"
            d="M128.565 100.456v2.074c0 .323.128.634.355.864.228.23.538.358.861.356h21.454c.323.002.633-.126.861-.356.227-.23.355-.54.355-.864v-2.074h-23.886z" />
        <path id="Path" fill="#CAD3D6" fill-rule="nonzero"
            d="M151.709 106.224h-22.38a.526.526 0 01-.398-.173.639.639 0 01-.172-.432.606.606 0 01.172-.432.505.505 0 01.398-.184h22.38a.537.537 0 01.409.184.65.65 0 01.161.432.693.693 0 01-.161.432.57.57 0 01-.41.173z" />
        <path id="Path" fill="#D1D3D4" fill-rule="nonzero"
            d="M151.235 61.138h-10.76v42.634h10.76c.323.002.633-.127.861-.357.227-.23.355-.54.355-.864V62.358a1.256 1.256 0 00-.355-.864 1.203 1.203 0 00-.86-.356z"
            style="mix-blend-mode:multiply" />
        <path fill="transparent" stroke="rgba(0, 153, 218, 0.8)" stroke-width=".5"
            d="M83.45 41.154V57.25a3.019 3.019 0 01-3.012 3.024H43.651a3.04 3.04 0 01-3.023-3.024V37.2a3.474 3.474 0 00-1.008-2.47 3.447 3.447 0 00-2.457-1.019H17.377V27.76h-.463v12.962h.463v-6.556h19.786c.801 0 1.57.32 2.134.89a3.03 3.03 0 01.879 2.145v20.048a3.493 3.493 0 003.475 3.489h36.787a3.468 3.468 0 002.464-1.018 3.496 3.496 0 001.022-2.471V41.154h-.473z"
            class="animate-line" />
        <path id="Rectangle" fill="transparent" stroke="rgba(0, 153, 218, 0.8)" fill-rule="nonzero" d="M115.622 24.563h16.365v1h-16.365z" stroke-dasharray="350" stroke-width=".5"
            style="-webkit-animation:dash-long 4s linear infinite;-o-animation:dash-long 4s linear infinite;-moz-animation:dash-long 4s linear infinite;animation:dash-long 4s linear infinite" />
        <path fill="transparent" stroke="rgba(0, 153, 218, 0.8)" stroke-dasharray="350" stroke-width=".5"
            d="M164.47 118.149a3.106 3.106 0 01-.905 2.203 3.082 3.082 0 01-2.194.908h-20.734v-9.722h-.452v9.722H88.411a3.116 3.116 0 01-3.099-3.111v-6.211h-.452v6.21c0 1.971 1.588 3.57 3.55 3.576h72.982a3.533 3.533 0 002.518-1.044 3.561 3.561 0 001.033-2.531V55.985h-.452l-.021 62.164z"
            style="-webkit-animation:dash-long 4s linear infinite;-o-animation:dash-long 4s linear infinite;-moz-animation:dash-long 4s linear infinite;animation:dash-long 4s linear infinite" />
        <path fill="transparent" stroke="rgba(0, 153, 218, 0.8)" stroke-width=".5"
            d="M77.694 114.012a2.08 2.08 0 01-2.076 2.074H18.485a2.05 2.05 0 01-1.471-.6c-.39-.39-.609-.921-.606-1.474v-5.023h-.452v5.023c-.006.674.26 1.322.735 1.797a2.491 2.491 0 001.794.73h57.133a2.513 2.513 0 001.787-.736 2.533 2.533 0 00.741-1.791v-1.826h-.452v1.826z"
            class="animate-line" />
        <path id="Path" fill="#D1D3D4" fill-rule="nonzero"
            d="M119.947 104.776h-5.509V68.915c0-.613-.244-1.2-.678-1.631a2.32 2.32 0 00-1.625-.67H52.431a2.32 2.32 0 00-1.625.67 2.294 2.294 0 00-.678 1.63v35.862H44.62a.57.57 0 00-.506.292.965.965 0 00-.075.691l.129.562.129.562c.067.262.205.502.398.691.173.172.402.276.646.292h73.896a1.01 1.01 0 00.635-.292c.193-.19.33-.429.398-.691l.129-.562.129-.562a.91.91 0 00-.075-.691.56.56 0 00-.506-.292z" />
        <path id="Path" fill="#023852" fill-rule="nonzero"
            d="M112.135 66.614H52.431a2.297 2.297 0 00-2.303 2.3v35.862h64.31V68.915a2.297 2.297 0 00-2.303-2.301z" />
        <path id="Path" fill="#0099DA" fill-rule="nonzero" d="M52.431 102.411V68.915h59.704V102.411H67.354z" />
        <path id="Path" fill="#96A6AE" fill-rule="nonzero"
            d="M120.27 106.829a1.481 1.481 0 01-.398.691 1.01 1.01 0 01-.635.292H45.34a1.01 1.01 0 01-.646-.292 1.481 1.481 0 01-.398-.691l-.13-.562-.128-.562a.965.965 0 01.075-.691.57.57 0 01.506-.292h75.316a.56.56 0 01.506.292.91.91 0 01.075.691l-.129.562-.118.562z" />
        <path id="Path" fill="#FFF" fill-rule="nonzero"
            d="M55.411 70.708c0 .184-.069.361-.193.497a.698.698 0 01-.99 0 .736.736 0 01-.194-.497.682.682 0 01.689-.703.682.682 0 01.689.703zM57.413 70.708a.693.693 0 01-.205.497.709.709 0 01-.484.205.7.7 0 01-.7-.702.7.7 0 01.7-.691.666.666 0 01.484.205.65.65 0 01.205.486zM59.414 70.708a.693.693 0 01-.205.497.687.687 0 01-.979 0 .693.693 0 01-.204-.497.65.65 0 01.204-.486.687.687 0 01.947-.011.65.65 0 01.237.497z" />
        <path id="Path" fill="#66C3E9" fill-rule="nonzero"
            d="M90.67 87.569H58.359V75.633H90.67v5.974zM73.993 99.516H58.359v-8.76h15.634v4.374zM106.207 99.516H76.166v-8.76h30.041v4.374zM106.207 75.633H92.65v11.936H106.207v-5.962z" />
        <path id="Path" fill="#BAC4C9" fill-rule="nonzero"
            d="M93.339 106.559h-22.1a1.45 1.45 0 01-1.023-.422 1.472 1.472 0 01-.42-1.08v-.432H94.77v.432c.013.403-.139.793-.42 1.08-.267.27-.632.423-1.011.422z" />
        <ellipse id="Oval" cx="17.054" cy="27.76" fill="#FFE700" fill-rule="nonzero" rx="1.334" ry="1.339" />
        <ellipse id="Oval" cx="17.054" cy="39.772" fill="#FFE700" fill-rule="nonzero" rx="1.334" ry="1.339" />
        <ellipse id="Oval" cx="83.623" cy="41.392" fill="#FFE700" fill-rule="nonzero" rx="1.334" ry="1.339" />
        <ellipse id="Oval" cx="130.868" cy="24.768" fill="#FFE700" fill-rule="nonzero" rx="1.334" ry="1.339" />
        <ellipse id="Oval" cx="77.888" cy="112.089" fill="#FFE700" fill-rule="nonzero" rx="1.334" ry="1.339" />
        <ellipse id="Oval" cx="85.129" cy="112.089" fill="#FFE700" fill-rule="nonzero" rx="1.334" ry="1.339" />
        <ellipse id="Oval" cx="140.433" cy="112.089" fill="#FFE700" fill-rule="nonzero" rx="1.334" ry="1.339" />
        <ellipse id="Oval" cx="164.696" cy="56.892" fill="#FFE700" fill-rule="nonzero" rx="1.334" ry="1.339" />
        <ellipse id="Oval" cx="140.433" cy="121.303" fill="#FFE700" fill-rule="nonzero" rx="1.334" ry="1.339" />
        <ellipse id="Oval" cx="16.193" cy="110.026" fill="#FFE700" fill-rule="nonzero" rx="1.334" ry="1.339" />
    </g>
</svg>