<svg width="170px" height="123px" viewBox="0 0 170 123" version="1.1" xmlns="http://www.w3.org/2000/svg" xmlns:xlink="http://www.w3.org/1999/xlink">
<defs>
<style>
.icon-blink {
  animation: blink-animation 1s steps(5, start) infinite;
  -webkit-animation: blink-animation 1s steps(5, start) infinite;
}

.icon-blink2 {
  animation: blink-animation 1s steps(5, start) infinite;
  -webkit-animation: blink-animation 1s steps(5, start) infinite;
  animation-delay: 500ms;
}

.icon-blink3 {
  animation: blink-animation 1s steps(5, start) infinite;
  -webkit-animation: blink-animation 1s steps(5, start) infinite;
  animation-delay: 350ms;
}

.icon-blink4 {
  animation: blink-animation 1s steps(5, start) infinite;
  -webkit-animation: blink-animation 1s steps(5, start) infinite;
  animation-delay: 450ms;
}

.icon-blink5 {
  animation: blink-animation 1s steps(5, start) infinite;
  -webkit-animation: blink-animation 1s steps(5, start) infinite;
  animation-delay: 500ms;
}

#camara-numer {
  stroke-dasharray: 5;
  stroke-dashoffset: 2;
  animation: dash 2s linear forwards;
  -webkit-animation: dash 2s linear forwards;
}

.test-stroke {
  fill: none;
  stroke: #000;
  stroke-width: 2;
  stroke-miterlimit: 5;
}

.scale-height {
  animation-duration: 3000ms;
  animation-iteration-count: infinite;
  transform-origin: 50% 86%;
  animation-name: scale-height;
}

.animate-line {
  stroke-dasharray: 241;
  stroke-dashoffset: 0;
  -webkit-animation: dash 3s linear forwards;
  -o-animation: dash 3s linear forwards;
  -moz-animation: dash 3s linear forwards;
  animation: dash 3s linear forwards;
}

.animate-line-long {
  stroke-dasharray: 350;
  stroke-dashoffset: 0;
  -webkit-animation: dash-long 4s linear forwards;
  -o-animation: dash-long 4s linear forwards;
  -moz-animation: dash-long 4s linear forwards;
  animation: dash-long 4s linear forwards;
}

.number3-dash-animate {
  stroke-dasharray: 65;
  stroke-dashoffset: 0;
  -webkit-animation: dash-number3 2s linear forwards;
  -o-animation: dash-number3 2s linear forwards;
  -moz-animation: dash-number3 2s linear forwards;
  animation: dash-number3 2s linear forwards;
}

.backup-local-animation {
  -webkit-animation: backup-local-animation 2s ease infinite;
  -o-animation: backup-local-animation 2s ease infinite;
  -moz-animation: backup-local-animation 2s ease infinite;
  animation: backup-local-animation 2s ease infinite;
}

.calender {
  -webkit-animation: calender 500ms ease forwards;
  -o-animation: calender 500ms ease forwards;
  -moz-animation: calender 500ms ease forwards;
  animation: calender 500ms ease forwards;
}

.calender-blue-month {
  -webkit-animation: calender-blue 500ms ease forwards;
  -o-animation: calender-blue 500ms ease forwards;
  -moz-animation: calender-blue 500ms ease forwards;
  animation: calender-blue 500ms ease forwards;
  fill: #cad3d6;
  animation-delay: 1200ms;
}

.calender-blue-week {
  -webkit-animation: calender-blue 500ms ease forwards;
  -o-animation: calender-blue 500ms ease forwards;
  -moz-animation: calender-blue 500ms ease forwards;
  animation: calender-blue 500ms ease forwards;
  fill: #cad3d6;
  animation-delay: 400ms;
}

.calender:nth-of-type(2) {
  animation-delay: 50ms;
}

.calender:nth-of-type(3) {
  animation-delay: 100ms;
}

.calender:nth-of-type(18) {
  animation-delay: 150ms;
}

.calender:nth-of-type(5) {
  animation-delay: 200ms;
}

.calender:nth-of-type(6) {
  animation-delay: 250ms;
}

.calender:nth-of-type(7) {
  animation-delay: 300ms;
}

.calender:nth-of-type(8) {
  animation-delay: 350ms;
}

.calender:nth-of-type(9) {
  animation-delay: 400ms;
}

.calender:nth-of-type(10) {
  animation-delay: 450ms;
}

.calender:nth-of-type(11) {
  animation-delay: 500ms;
}

.calender:nth-of-type(14) {
  animation-delay: 550ms;
}

.calender:nth-of-type(13) {
  animation-delay: 600ms;
}

.calender:nth-of-type(12) {
  animation-delay: 650ms;
}

.calender:nth-of-type(15) {
  animation-delay: 700ms;
}

.calender:nth-of-type(16) {
  animation-delay: 750ms;
}

.calender:nth-of-type(17) {
  animation-delay: 800ms;
}

.calender:nth-of-type(4) {
  animation-delay: 850ms;
}

.calender:nth-of-type(19) {
  animation-delay: 900ms;
}

.calender:nth-of-type(20) {
  animation-delay: 950ms;
}

.calender:nth-of-type(21) {
  animation-delay: 1000ms;
}

.calender:nth-of-type(25) {
  animation-delay: 1050ms;
}

.calender:nth-of-type(23) {
  animation-delay: 1100ms;
}

.calender:nth-of-type(24) {
  animation-delay: 11500ms;
}

.calender:nth-of-type(22) {
  animation-delay: 1200ms;
}

.calender:nth-of-type(26) {
  animation-delay: 1250ms;
}

.calender:nth-of-type(27) {
  animation-delay: 1300ms;
}

.calender:nth-of-type(28) {
  animation-delay: 1350ms;
}

.calender:nth-of-type(29) {
  animation-delay: 1400ms;
}

.animate-line-check-marks-month {
  -webkit-animation: animate-line-check-marks 1s linear forwards;
  -o-animation: animate-line-check-marks 1s linear forwards;
  -moz-animation: animate-line-check-marks 1s linear forwards;
  animation: animate-line-check-marks 1s linear forwards;
  animation-delay: 1800ms;
  opacity: 0;
}

.animate-line-check-marks-week {
  -webkit-animation: animate-line-check-marks 1s linear forwards;
  -o-animation: animate-line-check-marks 1s linear forwards;
  -moz-animation: animate-line-check-marks 1s linear forwards;
  animation: animate-line-check-marks 1s linear forwards;
  animation-delay: 800ms;
  opacity: 0;
}

.camara-detect-right {
  -webkit-animation: camara-detect-right 5s linear forwards;
  -o-animation: camara-detect-right 5s linear forwards;
  -moz-animation: camara-detect-right 5s linear forwards;
  animation: camara-detect-right 5s linear forwards;
  transform-origin: center;
}

.camara-detect-left {
  -webkit-animation: camara-detect-left 5s linear forwards;
  -o-animation: camara-detect-left 5s linear forwards;
  -moz-animation: camara-detect-left 5s linear forwards;
  animation: camara-detect-left 5s linear forwards;
  transform-origin: center;
}

.cloud-1 {
  -webkit-animation: cloud-ani 30s ease infinite;
  -o-animation: cloud-ani 30s ease infinite;
  -moz-animation: cloud-ani 30s ease infinite;
  animation: cloud-ani 30s ease infinite;
}

.cloud-2 {
  -webkit-animation: cloud-ani-fast-out 13s ease infinite;
  -o-animation: cloud-ani-fast-out 13s ease infinite;
  -moz-animation: cloud-ani-fast-out 13s ease infinite;
  animation: cloud-ani-fast-out 13s ease infinite;
  animation-delay: 1000ms;
}

.cloud-3 {
  -webkit-animation: cloud-ani 12s ease infinite;
  -o-animation: cloud-ani 12s ease infinite;
  -moz-animation: cloud-ani 12s ease infinite;
  animation: cloud-ani 12s ease infinite;
  animation-delay: 500ms;
}

.camara-move {
  animation: camara-move-ani 3s linear infinite;
}

.rotate {
  transform-origin: center 11%;
  animation-name: rotate;
  animation-duration: 2000ms;
  animation-iteration-count: infinite;
  animation-timing-function: ease-in-out;
}

@keyframes scale-height {
  0% {
    transform: scaleY(0) translateY(-6%);
  }
  50% {
    transform: scaleY(1);
  }
  100% {
    transform: scaleY(0) translateY(-6%);
  }
}

@keyframes rotate {
  0% {
    transform: rotateY(0deg);
  }
  20% {
    transform: rotateY(0deg);
  }
  50% {
    transform: rotateY(90deg);
  }
  80% {
    transform: rotateY(0deg);
  }
  100% {
    transform: rotateY(0deg);
  }
}

@-webkit-keyframes dash {
  from {
    stroke-dashoffset: 241;
  }
  to {
    stroke-dashoffset: 0;
  }
}

@keyframes dash {
  from {
    stroke-dashoffset: 241;
  }
  to {
    stroke-dashoffset: 0;
  }
}

@-webkit-keyframes dash-long {
  from {
    stroke-dashoffset: 350;
  }
  to {
    stroke-dashoffset: 0;
  }
}

@keyframes dash-long {
  from {
    stroke-dashoffset: 350;
  }
  to {
    stroke-dashoffset: 0;
  }
}

@-webkit-keyframes dash-number3 {
  0% {
    stroke-dashoffset: 70;
  }
  90% {
    stroke-dashoffset: 0;
    fill: #02375200;
  }
  100% {
    fill: #023852;
  }
}

@keyframes dash-number3 {
  0% {
    stroke-dashoffset: 70;
  }
  90% {
    stroke-dashoffset: 0;
    fill: #02375200;
  }
  100% {
    fill: #023852;
  }
}

@-webkit-keyframes backup-local-animation {
  0% {
    transform: translateY(0);
  }
  50% {
    transform: translateY(-6%);
  }
  100% {
    transform: translateY(0);
  }
}

@keyframes backup-local-animation {
  0% {
    transform: translateY(0);
  }
  50% {
    transform: translateY(-6%);
  }
  100% {
    transform: translateY(0);
  }
}

@-webkit-keyframes calender {
  0% {
    opacity: 0;
  }
  100% {
    opacity: 1;
  }
}

@keyframes calender {
  0% {
    opacity: 0;
  }
  100% {
    opacity: 1;
  }
}

@keyframes calender-blue {
  0% {
    fill: #cad3d6;
  }
  100% {
    fill: #50bfee;
  }
}

@-webkit-keyframes animate-line-check-marks {
  0% {
    opacity: 0;
  }
  100% {
    opacity: 1;
  }
}

@keyframes animate-line-check-marks {
  0% {
    opacity: 0;
  }
  100% {
    opacity: 1;
  }
}

@keyframes camara-detect-right {
  0% {
    transform: translate(0, 0) scaleY(1);
  }
  10% {
    transform: translate(-80%, 0);
  }
  20% {
    transform: translate(-50%, 0);
    fill: rgb(255, 255, 255);
  }
  25% {
    transform: translate(-50%, 0) scaleY(0.5);
    fill: rgb(255, 231, 0);
  }
  26% {
    transform: translate(-50%, 0) scaleY(0.5);
    fill: rgba(255, 230, 0, 0);
  }
  27% {
    transform: translate(-50%, 0) scaleY(0.5);
    fill: rgb(255, 231, 0);
  }
  28% {
    transform: translate(-50%, 0) scaleY(0.5);
    fill: rgba(255, 230, 0, 0);
  }
  29% {
    transform: translate(-50%, 0) scaleY(0.5);
    fill: rgb(255, 231, 0);
  }
  65% {
    transform: translate(-50%, 0) scaleY(0.5);
    fill: rgb(255, 231, 0);
  }
  80% {
    transform: translate(-50%, 0) scaleY(0.5);
    fill: rgb(255, 231, 0);
  }
  100% {
    transform: translate(0, 0) scaleY(1);
    fill: rgb(255, 255, 255);
  }
}

@-webkit-keyframes camara-detect-right {
  0% {
    transform: translate(0, 0) scaleY(1);
  }
  10% {
    transform: translate(-80%, 0);
  }
  20% {
    transform: translate(-50%, 0);
    fill: rgb(255, 255, 255);
  }
  25% {
    transform: translate(-50%, 0) scaleY(0.5);
    fill: rgb(255, 231, 0);
  }
  26% {
    transform: translate(-50%, 0) scaleY(0.5);
    fill: rgba(255, 230, 0, 0);
  }
  27% {
    transform: translate(-50%, 0) scaleY(0.5);
    fill: rgb(255, 231, 0);
  }
  28% {
    transform: translate(-50%, 0) scaleY(0.5);
    fill: rgba(255, 230, 0, 0);
  }
  29% {
    transform: translate(-50%, 0) scaleY(0.5);
    fill: rgb(255, 231, 0);
  }
  65% {
    transform: translate(-50%, 0) scaleY(0.5);
    fill: rgb(255, 231, 0);
  }
  80% {
    transform: translate(-50%, 0) scaleY(0.5);
    fill: rgb(255, 231, 0);
  }
  100% {
    transform: translate(0, 0) scaleY(1);
    fill: rgb(255, 255, 255);
  }
}

@keyframes camara-detect-left {
  0% {
    transform: translate(0, 0) scaleY(1);
  }
  10% {
    transform: translate(80%, 0);
  }
  20% {
    transform: translate(13%, 0);
    fill: rgb(255, 255, 255);
  }
  25% {
    transform: translate(13%, 0) scaleY(0.5);
    fill: rgb(255, 231, 0);
  }
  26% {
    transform: translate(13%, 0) scaleY(0.5);
    fill: rgba(255, 230, 0, 0);
  }
  27% {
    transform: translate(13%, 0) scaleY(0.5);
    fill: rgb(255, 231, 0);
  }
  28% {
    transform: translate(13%, 0) scaleY(0.5);
    fill: rgba(255, 230, 0, 0);
  }
  29% {
    transform: translate(13%, 0) scaleY(0.5);
    fill: rgb(255, 231, 0);
  }
  65% {
    transform: translate(13%, 0) scaleY(0.5);
    fill: rgb(255, 231, 0);
  }
  80% {
    transform: translate(13%, 0) scaleY(0.5);
    fill: rgb(255, 231, 0);
  }
  100% {
    transform: translate(0, 0) scaleY(1);
    fill: rgb(255, 255, 255);
  }
}

@-webkit-keyframes camara-detect-left {
  0% {
    transform: translate(0, 0) scaleY(1);
  }
  10% {
    transform: translate(80%, 0);
  }
  20% {
    transform: translate(13%, 0);
    fill: rgb(255, 255, 255);
  }
  25% {
    transform: translate(13%, 0) scaleY(0.5);
    fill: rgb(255, 231, 0);
  }
  26% {
    transform: translate(13%, 0) scaleY(0.5);
    fill: rgba(255, 230, 0, 0);
  }
  27% {
    transform: translate(13%, 0) scaleY(0.5);
    fill: rgb(255, 231, 0);
  }
  28% {
    transform: translate(13%, 0) scaleY(0.5);
    fill: rgba(255, 230, 0, 0);
  }
  29% {
    transform: translate(13%, 0) scaleY(0.5);
    fill: rgb(255, 231, 0);
  }
  65% {
    transform: translate(13%, 0) scaleY(0.5);
    fill: rgb(255, 231, 0);
  }
  80% {
    transform: translate(13%, 0) scaleY(0.5);
    fill: rgb(255, 231, 0);
  }
  100% {
    transform: translate(0, 0) scaleY(1);
    fill: rgb(255, 255, 255);
  }
}

@keyframes cloud-ani {
  0% {
    transform: translate(0%, 0%);
  }
  95% {
    transform: translate(-50%, -1%);
    opacity: 0;
  }
  99% {
    opacity: 0;
    transform: translate(5%, 0%);
  }
  100% {
    transform: translate(0%, 0%);
    opacity: 1;
  }
}

@keyframes cloud-ani-fast-out {
  0% {
    transform: translate(0%, 0%);
  }
  55% {
    transform: translate(-20%, -1%);
    opacity: 0;
  }
  95% {
    transform: translate(-50%, -1%);
    opacity: 0;
  }
  99% {
    opacity: 0;
    transform: translate(5%, 0%);
  }
  100% {
    transform: translate(0%, 0%);
    opacity: 1;
  }
}

@keyframes camara-move-ani {
  0% {
    transform: translate(0, 0);
  }
  10% {
    transform: translate(-3%, 7%) rotate(-5deg);
  }
  30% {
    transform: translate(0, 0);
  }
  90% {
    transform: translate(-3%, 7%) rotate(-5deg);
  }
  100% {
    transform: translate(0, 0);
  }
}

@keyframes blink-animation {
  to {
    visibility: hidden;
  }
}

@-webkit-keyframes blink-animation {
  to {
    visibility: hidden;
  }
}

</style>
</defs>
    <g stroke="none" stroke-width="1" fill="none" fill-rule="evenodd">
        <g transform="translate(-635.000000, -461.000000)">
            <g transform="translate(635.000000, 456.000000)">
                <g transform="translate(0.000000, 5.042424)">
                    <path d="M169.623418,50.1306329 C169.621751,50.3819809 169.574348,50.6309075 169.483544,50.8651477 C169.287815,51.3207599 168.925984,51.6840097 168.472152,51.8805063 C168.241044,51.9803172 167.992092,52.03173 167.740506,52.03173 L138.528481,52.03173 C138.276896,52.03173 138.027943,51.9803172 137.796835,51.8805063 C137.343003,51.6840097 136.981172,51.3207599 136.785443,50.8651477 C136.686022,50.6331338 136.63481,50.383205 136.63481,50.1306329 L136.63481,8.42531646 C136.63481,8.17274436 136.686022,7.92281559 136.785443,7.69080169 C136.882178,7.46490469 137.020944,7.25960464 137.194304,7.08590717 C137.364949,6.91166995 137.570254,6.77549032 137.796835,6.68624473 C138.027943,6.58643383 138.276896,6.53502107 138.528481,6.53502107 L167.740506,6.53502107 C167.992092,6.53502107 168.241044,6.58643383 168.472152,6.68624473 C168.698733,6.77549032 168.904038,6.91166995 169.074684,7.08590717 C169.248043,7.25960464 169.38681,7.46490469 169.483544,7.69080169 C169.574348,7.92504183 169.621751,8.17396848 169.623418,8.42531646 L169.623418,50.1306329 L169.623418,50.1306329 Z" id="Path" fill="#D1D3D4" fill-rule="nonzero"></path>
                    <path d="M169.623418,50.1306329 C169.621751,50.3819809 169.574348,50.6309075 169.483544,50.8651477 C169.287815,51.3207599 168.925984,51.6840097 168.472152,51.8805063 C168.241044,51.9803172 167.992092,52.03173 167.740506,52.03173 L138.528481,52.03173 C138.276896,52.03173 138.027943,51.9803172 137.796835,51.8805063 C137.343003,51.6840097 136.981172,51.3207599 136.785443,50.8651477 C136.686022,50.6331338 136.63481,50.383205 136.63481,50.1306329 L136.63481,8.42531646 C136.63481,8.17274436 136.686022,7.92281559 136.785443,7.69080169 C136.882178,7.46490469 137.020944,7.25960464 137.194304,7.08590717 C137.364949,6.91166995 137.570254,6.77549032 137.796835,6.68624473 C138.027943,6.58643383 138.276896,6.53502107 138.528481,6.53502107 L167.740506,6.53502107 C167.992092,6.53502107 168.241044,6.58643383 168.472152,6.68624473 C168.698733,6.77549032 168.904038,6.91166995 169.074684,7.08590717 C169.248043,7.25960464 169.38681,7.46490469 169.483544,7.69080169 C169.574348,7.92504183 169.621751,8.17396848 169.623418,8.42531646 L169.623418,50.1306329 L169.623418,50.1306329 Z" id="Path" fill="#CAD3D6" fill-rule="nonzero"></path>
                    <path d="M139.873418,33.5500422 C139.679747,33.3124051 139.507595,33.2151899 139.378481,33.2583966 C139.249367,33.3016034 139.18481,33.4744304 139.18481,33.7876793 L139.18481,48.3915612 C139.18481,48.9881219 139.666529,49.47173 140.260759,49.47173 L155.173418,49.47173 C155.767648,49.47173 156.249367,48.9881219 156.249367,48.3915612 L156.249367,40.6467511 C156.266164,40.3970058 156.180663,40.1512028 156.012658,39.9662447 C155.796501,39.7874524 155.515017,39.7089557 155.237975,39.750211 C154.893671,39.750211 154.560127,39.8258228 154.162025,39.8474262 C153.763924,39.8690295 153.473418,39.8474262 153.086076,39.8474262 C147.970793,39.8137924 143.132899,37.5079675 139.873418,33.5500422 L139.873418,33.5500422 Z" id="Path" fill="#96A6AE" fill-rule="nonzero"></path>
                    <path d="M167.27788,22.4675105 C167.274136,29.2378911 162.507696,35.0630905 155.89285,36.3814328 C149.278005,37.699775 142.656547,34.1441899 140.077005,27.8886532 C137.497463,21.6331165 139.678067,14.419377 145.285541,10.6580998 C150.893014,6.89682257 158.36605,7.63527188 163.135443,12.4219409 C165.794687,15.0823745 167.285862,18.6985594 167.27788,22.4675105 L167.27788,22.4675105 Z" id="Path" fill="#F1F3F4" fill-rule="nonzero"></path>
                    <path d="M153.129114,35.6455696 C152.983717,35.645212 152.844405,35.5869378 152.741772,35.4835443 C152.63503,35.3786012 152.576564,35.2338215 152.58038,35.0838819 C152.58038,34.9377778 152.638193,34.7976578 152.7411,34.6943466 C152.844008,34.5910354 152.983581,34.5329958 153.129114,34.5329958 C159.76771,34.5270691 165.151208,29.1321187 165.168987,22.4675105 C165.167669,22.3180375 165.225753,22.1742023 165.33038,22.0678481 C165.438745,21.9665715 165.580459,21.9088945 165.728481,21.9058228 C165.873878,21.9061804 166.01319,21.9644546 166.115823,22.0678481 C166.227662,22.1701054 166.290361,22.3156648 166.28804,22.4675105 C166.264276,29.7483217 160.381521,35.6396601 153.129114,35.6455696 Z" id="Path" fill="#96A6AE" fill-rule="nonzero"></path>
                    <path d="M153.129114,33.1395781 C152.981697,33.1395781 152.840469,33.0800865 152.737246,32.9744272 C152.634024,32.8687679 152.577489,32.7258568 152.580274,32.5778903 C152.580274,32.2736443 152.826056,32.0270042 153.129114,32.0270042 C158.385595,32.0210515 162.645336,27.7446054 162.651266,22.4675105 C162.649948,22.3180375 162.708032,22.1742023 162.812658,22.0678481 C162.921023,21.9665715 163.062737,21.9088945 163.210759,21.9058228 C163.356156,21.9061804 163.495468,21.9644546 163.598101,22.0678481 C163.707153,22.1712221 163.766055,22.3170829 163.759494,22.4675105 C163.759494,28.3615307 159.000111,33.1395781 153.129114,33.1395781 L153.129114,33.1395781 Z" id="Path" fill="#96A6AE" fill-rule="nonzero"></path>
                    <path d="M153.129114,30.6119831 C152.981697,30.6119831 152.840469,30.5524915 152.737246,30.4468323 C152.634024,30.341173 152.577489,30.1982619 152.58038,30.0502954 C152.576937,29.9035864 152.635583,29.7622843 152.741772,29.6614346 C152.840304,29.5508369 152.981315,29.4879199 153.129114,29.4886076 C154.985814,29.4914753 156.767447,28.7530208 158.081343,27.4359988 C159.395239,26.1189767 160.133547,24.3314943 160.133544,22.4675105 C160.132226,22.3180375 160.19031,22.1742023 160.294937,22.0678481 C160.402146,21.964766 160.544592,21.9067912 160.693038,21.9058228 C160.838435,21.9061804 160.977747,21.9644546 161.08038,22.0678481 C161.189431,22.1712221 161.248333,22.3170829 161.241772,22.4675105 C161.235845,26.9631115 157.607154,30.6060326 153.129114,30.6119831 L153.129114,30.6119831 Z" id="Path" fill="#96A6AE" fill-rule="nonzero"></path>
                    <path d="M153.129114,27.522719 C150.842308,27.5288842 148.837222,25.9904491 148.242785,23.7735859 C147.648348,21.5567228 148.613177,19.2156673 150.594039,18.0685125 C152.574901,16.9213577 155.076563,17.2549026 156.690506,18.8813502 C157.640634,19.8266071 158.175136,21.1138211 158.175136,22.4567089 C158.175136,23.7995966 157.640634,25.0868107 156.690506,26.0320675 C155.745611,26.9809642 154.465593,27.5167203 153.129114,27.522719 L153.129114,27.522719 Z" id="Path" fill="#96A6AE" fill-rule="nonzero"></path>
                    <path d="M156.292405,22.4675105 C156.290822,23.7463681 155.522751,24.8985962 154.345767,25.3877787 C153.168782,25.8769613 151.814206,25.6069548 150.912658,24.7034599 C150.31935,24.1096503 149.985879,23.3031751 149.985879,22.4621097 C149.985879,21.6210443 150.31935,20.8145692 150.912658,20.2207595 C151.819322,19.3268188 153.170836,19.0643619 154.344162,19.5543796 C155.517487,20.0443972 156.284812,21.1917476 156.292405,22.4675105 L156.292405,22.4675105 Z" id="Path" fill="#023852" fill-rule="nonzero"></path>
                    <path d="M167.277848,47.9162869 C167.26921,48.3229995 167.103287,48.7103818 166.81519,48.9964557 C166.528957,49.2837976 166.14388,49.4500301 165.739241,49.4609283 C164.865722,49.4609283 164.157595,48.7500245 164.157595,47.8730802 C164.168451,47.466854 164.334034,47.0802668 164.620253,46.7929114 C164.907719,46.5074002 165.292039,46.3414945 165.696203,46.3284388 C166.100842,46.339337 166.485919,46.5055695 166.772152,46.7929114 C167.088705,47.0806875 167.27188,47.4875999 167.277848,47.9162869 L167.277848,47.9162869 Z" id="Path" fill="#96A6AE" fill-rule="nonzero"></path>
                    <path d="M167.277848,10.6396624 C167.271934,9.76693941 166.565537,9.06261603 165.696203,9.06261603 C165.291079,9.07128753 164.90521,9.23786191 164.620253,9.52708861 C164.334034,9.81444397 164.168451,10.2010312 164.157595,10.6072574 C164.139529,11.4801561 164.826843,12.2039415 165.696203,12.2275105 C166.100842,12.2166124 166.485919,12.0503799 166.772152,11.763038 C167.086591,11.4737204 167.269331,11.0677753 167.277848,10.6396624 L167.277848,10.6396624 Z" id="Path" fill="#96A6AE" fill-rule="nonzero"></path>
                    <path d="M138.991139,10.6396624 C138.98825,10.2205212 139.152825,9.8177057 139.448052,9.52132099 C139.743279,9.22493628 140.144521,9.0597153 140.562025,9.06261603 C141.427161,9.06850456 142.127046,9.77113456 142.132911,10.6396624 C142.124274,11.0463751 141.95835,11.4337573 141.670253,11.7198312 C141.38402,12.0071731 140.998943,12.1734057 140.594304,12.1843038 C140.190607,12.1691564 139.807011,12.0035634 139.518354,11.7198312 C139.209243,11.4424116 139.020101,11.054894 138.991139,10.6396624 Z" id="Path" fill="#96A6AE" fill-rule="nonzero"></path>
                    <path d="M169.074684,7.08590717 C168.904038,6.91166995 168.698733,6.77549032 168.472152,6.68624473 C168.241044,6.58643383 167.992092,6.53502107 167.740506,6.53502107 L153.129114,6.53502107 L153.129114,52.03173 L167.740506,52.03173 C167.992092,52.03173 168.241044,51.9803172 168.472152,51.8805063 C168.925984,51.6840097 169.287815,51.3207599 169.483544,50.8651477 C169.574348,50.6309075 169.621751,50.3819809 169.623418,50.1306329 L169.623418,8.42531646 C169.621751,8.17396848 169.574348,7.92504183 169.483544,7.69080169 C169.38681,7.46490469 169.248043,7.25960464 169.074684,7.08590717 Z" id="Path" fill="#AFBBC1" fill-rule="nonzero" style="mix-blend-mode: multiply;"></path>
                    <path d="M102.21519,14.0421941 C102.297933,13.6534549 102.358998,13.2603822 102.398101,12.8648101 C102.441748,12.4666585 102.4633,12.0663778 102.462658,11.6658228 C102.471231,8.58044494 101.258573,5.61801858 99.0914566,3.43024982 C96.9243406,1.24248106 93.9802877,0.00858239749 90.906962,-3.58557691e-05 C89.0849035,-0.0045752216 87.288222,0.428763781 85.6670886,1.26379747 C84.1017487,2.06311268 82.7370304,3.20791527 81.6753165,4.61232068 C80.8252675,4.1448844 79.9221063,3.78220321 78.985443,3.5321519 C78.0162585,3.27531071 77.018205,3.14461931 76.0158228,3.14329114 C69.9056101,3.14849055 64.8513527,7.9199209 64.4708861,14.0421941 C58.4006813,14.7885995 53.9531707,20.1421946 54.3116221,26.2711893 C54.6700735,32.400184 59.7110792,37.1944867 65.8265823,37.222616 L101.139241,37.222616 C107.210999,37.0639879 112.130474,32.2256688 112.413197,26.1346457 C112.69592,20.0436225 108.245943,14.7669905 102.21519,14.0421941 L102.21519,14.0421941 Z" id="Path" fill="#D1D3D4" fill-rule="nonzero"></path>
                    <path d="M102.21519,14.0421941 C102.297933,13.6534549 102.358998,13.2603822 102.398101,12.8648101 C102.441748,12.4666585 102.4633,12.0663778 102.462658,11.6658228 C102.471231,8.58044494 101.258573,5.61801858 99.0914566,3.43024982 C96.9243406,1.24248106 93.9802877,0.00858239749 90.906962,-3.58557691e-05 C89.0849035,-0.0045752216 87.288222,0.428763781 85.6670886,1.26379747 C84.1017487,2.06311268 82.7370304,3.20791527 81.6753165,4.61232068 C80.8252675,4.1448844 79.9221063,3.78220321 78.985443,3.5321519 C78.0162585,3.27531071 77.018205,3.14461931 76.0158228,3.14329114 C69.9056101,3.14849055 64.8513527,7.9199209 64.4708861,14.0421941 C58.4006813,14.7885995 53.9531707,20.1421946 54.3116221,26.2711893 C54.6700735,32.400184 59.7110792,37.1944867 65.8265823,37.222616 L101.139241,37.222616 C107.210999,37.0639879 112.130474,32.2256688 112.413197,26.1346457 C112.69592,20.0436225 108.245943,14.7669905 102.21519,14.0421941 L102.21519,14.0421941 Z" id="Path" fill="#FFFFFF" fill-rule="nonzero"></path>
                    <path d="M16.1392405,2.07392405 C16.1377312,1.74525897 15.9872491,1.43516343 15.7303797,1.23139241 C15.4475143,1.00956323 15.0994383,0.888018533 14.7405063,0.885734078 L6.95063291,0.885734078 C6.57096665,0.884801001 6.20673231,1.03651213 5.93924051,1.30700422 C5.67929907,1.57658174 5.53286197,1.93637273 5.53037975,2.31156118 L5.53037975,22.6835443 C5.53286197,23.0587328 5.67929907,23.4185237 5.93924051,23.6881013 C6.20782618,23.9556622 6.57228911,24.1035761 6.95063291,24.0986887 L29.1367089,24.0986887 C29.5123906,24.1014445 29.8736711,23.9536344 30.1403341,23.6879537 C30.4069971,23.4222731 30.5571272,23.0607103 30.5571272,22.6835443 L30.5571272,4.6771308 C30.5627666,4.29623444 30.415349,3.92907722 30.1480497,3.65869675 C29.8807504,3.38831628 29.5161503,3.23755381 29.1367089,3.24050633 L17.5702532,3.24050633 C17.2076318,3.24062299 16.8553947,3.11894782 16.5696203,2.89485232 C16.3104569,2.70013643 16.1523888,2.39862932 16.1392405,2.07392405 Z" id="Path" fill="#FFE700" fill-rule="nonzero"></path>
                    <polygon id="Path" fill="#FFFFFF" fill-rule="nonzero" points="28.1037975 16.2997468 18.0436709 16.2997468 7.9835443 16.2997468 7.9835443 10.3696203 7.9835443 4.45029536 18.0436709 4.45029536 28.1037975 4.45029536 28.1037975 10.3696203"></polygon>
                    <path d="M14.6221519,7.24793249 L13.7613924,8.32810127 L12.9113924,9.28945148 C12.578344,9.65066604 12.1707504,9.93451993 11.7170886,10.1211814 C11.2541072,10.3353737 10.7526276,10.4529669 10.243038,10.4668354 L4.93860759,10.4668354 C4.537357,10.4634254 4.15087644,10.6186239 3.86265823,10.898903 C3.58813055,11.1855898 3.47147874,11.5894149 3.55063291,11.9790717 L4.46518987,17.4987342 L5.37974684,22.9751899 C5.45347652,23.2968729 5.65066883,23.5763537 5.92848101,23.7529114 C6.24687534,23.9651326 6.62233937,24.0744442 7.00443038,24.0661603 L29.1367089,24.0661603 C29.5183535,24.0710823 29.8928494,23.9620525 30.2126582,23.7529114 C30.4904704,23.5763537 30.6876627,23.2968729 30.7613924,22.9751899 L32.0417722,15.2951899 L33.3544304,7.62599156 C33.4100197,7.20659027 33.2712681,6.7847231 32.9778481,6.48101266 C32.6780826,6.15887249 32.2547453,5.98179022 31.8158228,5.99493671 L17.4518987,5.99493671 C16.9113529,6.01086012 16.3800328,6.13961274 15.8917722,6.37299578 C15.4129016,6.57345458 14.9806057,6.87136381 14.6221519,7.24793249 Z" id="Path" fill="#FFE700" fill-rule="nonzero"></path>
                    <path d="M31.5791139,102.810464 C32.0278083,102.814014 32.4587531,102.634724 32.7734177,102.313586 C33.0968306,101.994767 33.2791139,101.55884 33.2791139,101.103797 L33.2791139,45.1186498 C33.2732426,44.1785361 32.5155553,43.4178774 31.5791139,43.4119173 L1.7,43.4119173 C1.24805969,43.4079766 0.813607372,43.5871122 0.494936709,43.9088608 C0.177486245,44.2308122 -0.000405503362,44.6656384 -6.91737858e-07,45.1186498 L-6.91737858e-07,101.103797 C0.00189831247,101.55635 0.179445973,101.990336 0.494936709,102.313586 C0.813607372,102.635335 1.24805969,102.814471 1.7,102.810464 L3.43227848,102.810464 L3.43227848,104.517131 L1.07594937,104.517131 C0.857402508,104.516391 0.649312284,104.61099 0.505696203,104.776371 C0.353298503,104.940609 0.26869513,105.156808 0.268987342,105.381266 C0.265326222,105.606349 0.350406648,105.823767 0.505696203,105.98616 C0.648784168,106.144709 0.852079972,106.2346 1.06518987,106.2346 L32.2677215,106.2346 C32.4802723,106.232353 32.6825663,106.142526 32.8272152,105.98616 C32.9825047,105.823767 33.0675852,105.606349 33.0639241,105.381266 C33.0642163,105.156808 32.9796129,104.940609 32.8272152,104.776371 C32.6825663,104.620006 32.4802723,104.530179 32.2677215,104.527932 L29.9006329,104.527932 L29.9006329,102.810464 L31.6329114,102.810464 L31.5791139,102.810464 Z" id="Path" fill="#D1D3D4" fill-rule="nonzero"></path>
                    <polygon id="Path" fill="#96A6AE" fill-rule="nonzero" points="29.8468354 105.014008 16.6341772 105.014008 3.43227848 105.014008 3.43227848 103.264135 3.43227848 101.50346 16.6341772 101.50346 29.8468354 101.50346 29.8468354 103.264135"></polygon>
                    <path d="M31.5791139,43.4119173 L1.7,43.4119173 C1.24805969,43.4079766 0.813607372,43.5871122 0.494936709,43.9088608 C0.177486245,44.2308122 -0.000405503362,44.6656384 -6.91737858e-07,45.1186498 L-6.91737858e-07,101.103797 C0.00189831247,101.55635 0.179445973,101.990336 0.494936709,102.313586 C0.813607372,102.635335 1.24805969,102.814471 1.7,102.81053 L31.5791139,102.81053 C32.0278083,102.814014 32.4587531,102.634724 32.7734177,102.313586 C33.0968306,101.994767 33.2791139,101.55884 33.2791139,101.103797 L33.2791139,45.1186498 C33.2732426,44.1785361 32.5155553,43.4178774 31.5791139,43.4119173 L31.5791139,43.4119173 Z" id="Path" fill="#023852" fill-rule="nonzero"></path>
                    <polygon id="Path" fill="#33617E" fill-rule="nonzero" points="33.2791139 52.3557806 16.6341772 52.3557806 0 52.3557806 0 51.6752743 0 50.9839662 16.6341772 50.9839662 33.2791139 50.9839662 33.2791139 51.6752743"></polygon>
                    <polygon id="Path" fill="#33617E" fill-rule="nonzero" points="33.2791139 58.1670886 16.6341772 58.1670886 0 58.1670886 0 57.4865823 0 56.8060759 16.6341772 56.8060759 33.2791139 56.8060759 33.2791139 57.4865823"></polygon>
                    <polygon id="Path" fill="#33617E" fill-rule="nonzero" points="33.2791139 63.9891983 16.6341772 63.9891983 0 63.9891983 0 63.308692 0 62.6281857 16.6341772 62.6281857 33.2791139 62.6281857 33.2791139 63.308692"></polygon>
                    <polygon id="Path" fill="#33617E" fill-rule="nonzero" points="33.2791139 69.811308 16.6341772 69.811308 0 69.811308 0 69.12 0 68.4394937 16.6341772 68.4394937 33.2791139 68.4394937 33.2791139 69.12"></polygon>
                    <polygon id="Path" fill="#0099DA" fill-rule="nonzero" points="11.3835443 70.329789 5.69177215 70.329789 0 70.329789 0 69.12 0 67.9210127 5.69177215 67.9210127 11.3835443 67.9210127 11.3835443 69.12"></polygon>
                    <polygon id="Path" fill="#0099DA" fill-rule="nonzero" points="11.3835443 64.518481 5.69177215 64.518481 0 64.518481 0 63.308692 0 62.098903 5.69177215 62.098903 11.3835443 62.098903 11.3835443 63.308692"></polygon>
                    <polygon id="Path" fill="#FFE700" fill-rule="nonzero" points="11.3835443 58.6963713 5.69177215 58.6963713 0 58.6963713 0 57.4865823 0 56.2767932 5.69177215 56.2767932 11.3835443 56.2767932 11.3835443 57.4865823"></polygon>
                    <polygon id="Path" fill="#0099DA" fill-rule="nonzero" points="11.3835443 52.8850633 5.69177215 52.8850633 0 52.8850633 0 51.6752743 0 50.4654852 5.69177215 50.4654852 11.3835443 50.4654852 11.3835443 51.6752743"></polygon>
                    <path d="M0,98.2089451 L0,101.103797 C0.00189831247,101.55635 0.179445973,101.990336 0.494936709,102.313586 C0.813607372,102.635335 1.24805969,102.814471 1.7,102.810464 L31.5791139,102.810464 C32.0278083,102.814014 32.4587531,102.634724 32.7734177,102.313586 C33.0968306,101.994767 33.2791139,101.55884 33.2791139,101.103797 L33.2791139,98.2089451 L0,98.2089451 Z" id="Path" fill="#194D6D" fill-rule="nonzero"></path>
                    <path d="M32.2139241,106.223797 L1.07594937,106.223797 C0.862839465,106.22418 0.659543661,106.133908 0.516455696,105.975359 C0.361166141,105.812965 0.276085715,105.595547 0.27963339,105.370464 C0.279213839,105.151182 0.359723577,104.939496 0.505696203,104.776371 C0.649312284,104.61099 0.857402508,104.516391 1.07594937,104.517126 L32.278481,104.517126 C32.4910318,104.519377 32.6933258,104.609204 32.8379747,104.76557 C32.9903724,104.929807 33.074797,105.146006 33.074797,105.370464 C33.0783447,105.595547 32.9932642,105.812965 32.8379747,105.975359 C32.6783599,106.149055 32.4487354,106.24047 32.2139241,106.223797 Z" id="Path" fill="#CAD3D6" fill-rule="nonzero"></path>
                    <path d="M31.5791139,43.4119831 L16.6341772,43.4119831 L16.6341772,102.821318 L31.5791139,102.821318 C32.0278083,102.824816 32.4587531,102.645526 32.7734177,102.324388 C33.0968306,102.005568 33.2791139,101.569642 33.2791139,101.114599 L33.2791139,45.1186498 C33.2732426,44.1785361 32.5155553,43.4178774 31.5791139,43.4119831 L31.5791139,43.4119831 Z" id="Path" fill="#D1D3D4" fill-rule="nonzero" style="mix-blend-mode: multiply;"></path>
                    <path d="M151.235443,103.771814 C151.558346,103.773571 151.868442,103.645155 152.096203,103.415359 C152.323092,103.185361 152.450647,102.874924 152.451266,102.551224 L152.451266,62.3581435 C152.448374,62.0349021 152.321158,61.7252895 152.096203,61.4940084 C151.868442,61.2642124 151.558346,61.135796 151.235443,61.137535 L129.781013,61.137535 C129.45811,61.135796 129.148014,61.2642124 128.920253,61.4940084 C128.695298,61.7252895 128.568082,62.0349021 128.56519,62.3581435 L128.56519,102.551224 C128.565808,102.874924 128.693364,103.185361 128.920253,103.415359 C129.148014,103.645155 129.45811,103.773571 129.781013,103.771814 L131.029114,103.771814 L131.029114,105.003207 L129.329114,105.003207 C129.17552,105.000536 129.029043,105.0681 128.931013,105.186835 C128.818534,105.30205 128.756559,105.457596 128.758861,105.618903 C128.759944,105.779562 128.821431,105.933881 128.931013,106.05097 C129.032871,106.163248 129.177861,106.226193 129.329114,106.223863 L151.708861,106.223863 C151.862797,106.223863 152.010257,106.161619 152.117722,106.05097 C152.219224,105.929756 152.276197,105.777232 152.279114,105.618903 C152.27994,105.45988 152.222498,105.306102 152.117722,105.186835 C152.014502,105.06887 151.865257,105.001841 151.708861,105.003207 L149.987342,105.003207 L149.987342,103.771814 L151.235443,103.771814 Z" id="Path" fill="#D1D3D4" fill-rule="nonzero"></path>
                    <polygon id="Path" fill="#96A6AE" fill-rule="nonzero" points="149.987342 105.348861 140.508228 105.348861 131.029114 105.348861 131.029114 104.095865 131.029114 102.842869 140.508228 102.842869 149.987342 102.842869 149.987342 104.095865"></polygon>
                    <path d="M151.235443,61.137535 L129.781013,61.137535 C129.45811,61.135796 129.148014,61.2642124 128.920253,61.4940084 C128.695298,61.7252895 128.568082,62.0349021 128.56519,62.3581435 L128.56519,102.551224 C128.565808,102.874924 128.693364,103.185361 128.920253,103.415359 C129.148014,103.645155 129.45811,103.773571 129.781013,103.771832 L151.235443,103.771832 C151.558346,103.773571 151.868442,103.645155 152.096203,103.415359 C152.323092,103.185361 152.450647,102.874924 152.451266,102.551224 L152.451266,62.3581435 C152.448374,62.0349021 152.321158,61.7252895 152.096203,61.4940084 C151.868442,61.2642124 151.558346,61.135796 151.235443,61.137535 Z" id="Path" fill="#023852" fill-rule="nonzero"></path>
                    <polygon id="Path" fill="#33617E" fill-rule="nonzero" points="152.451266 67.5537553 140.508228 67.5537553 128.56519 67.5537553 128.56519 67.0676793 128.56519 66.5816034 140.508228 66.5816034 152.451266 66.5816034 152.451266 67.0676793"></polygon>
                    <polygon id="Path" fill="#33617E" fill-rule="nonzero" points="152.451266 71.7340084 140.508228 71.7340084 128.56519 71.7340084 128.56519 71.2371308 128.56519 70.7510549 140.508228 70.7510549 152.451266 70.7510549 152.451266 71.2371308"></polygon>
                    <polygon id="Path" fill="#33617E" fill-rule="nonzero" points="152.451266 75.9034599 140.508228 75.9034599 128.56519 75.9034599 128.56519 75.417384 128.56519 74.931308 140.508228 74.931308 152.451266 74.931308 152.451266 75.417384"></polygon>
                    <polygon id="Path" fill="#33617E" fill-rule="nonzero" points="152.451266 80.0837131 140.508228 80.0837131 128.56519 80.0837131 128.56519 79.5976371 128.56519 79.1007595 140.508228 79.1007595 152.451266 79.1007595 152.451266 79.5976371"></polygon>
                    <polygon id="Path" fill="#0099DA" fill-rule="nonzero" points="136.742405 80.4617722 132.653797 80.4617722 128.56519 80.4617722 128.56519 79.5976371 128.56519 78.7227004 132.653797 78.7227004 136.742405 78.7227004 136.742405 79.5976371"></polygon>
                    <polygon id="Path" fill="#0099DA" fill-rule="nonzero" points="136.742405 76.281519 132.653797 76.281519 128.56519 76.281519 128.56519 75.417384 128.56519 74.5532489 132.653797 74.5532489 136.742405 74.5532489 136.742405 75.417384"></polygon>
                    <polygon id="Path" fill="#FFE700" fill-rule="nonzero" points="136.742405 72.1120675 132.653797 72.1120675 128.56519 72.1120675 128.56519 71.2371308 128.56519 70.3729958 132.653797 70.3729958 136.742405 70.3729958 136.742405 71.2371308"></polygon>
                    <polygon id="Path" fill="#0099DA" fill-rule="nonzero" points="136.742405 67.9318143 132.653797 67.9318143 128.56519 67.9318143 128.56519 67.0676793 128.56519 66.2035443 132.653797 66.2035443 136.742405 66.2035443 136.742405 67.0676793"></polygon>
                    <path d="M128.56519,100.455696 L128.56519,102.52962 C128.565808,102.85332 128.693364,103.163758 128.920253,103.393755 C129.148014,103.623551 129.45811,103.751968 129.781013,103.750229 L151.235443,103.750229 C151.558346,103.751968 151.868442,103.623551 152.096203,103.393755 C152.323092,103.163758 152.450647,102.85332 152.451266,102.52962 L152.451266,100.455696 L128.56519,100.455696 L128.56519,100.455696 Z" id="Path" fill="#194D6D" fill-rule="nonzero"></path>
                    <path d="M151.708861,106.223797 L129.329114,106.223797 C129.177861,106.226193 129.032871,106.163248 128.931013,106.05097 C128.821431,105.933881 128.759944,105.779562 128.758799,105.618903 C128.756559,105.457596 128.818534,105.30205 128.931013,105.186835 C129.029043,105.0681 129.17552,105.000536 129.329114,105.003207 L151.708861,105.003207 C151.865257,105.001841 152.014502,105.06887 152.117722,105.186835 C152.222498,105.306102 152.27994,105.45988 152.279123,105.618903 C152.276197,105.777232 152.219224,105.929756 152.117722,106.05097 C152.010257,106.161619 151.862797,106.223951 151.708861,106.223797 L151.708861,106.223797 Z" id="Path" fill="#CAD3D6" fill-rule="nonzero"></path>
                    <path d="M151.235443,61.137535 L140.475949,61.137535 L140.475949,103.771832 L151.235443,103.771832 C151.558346,103.773571 151.868442,103.645155 152.096203,103.415359 C152.323092,103.185361 152.450647,102.874924 152.451266,102.551224 L152.451266,62.3581435 C152.448374,62.0349021 152.321158,61.7252895 152.096203,61.4940084 C151.868442,61.2642124 151.558346,61.135796 151.235443,61.137535 Z" id="Path" fill="#D1D3D4" fill-rule="nonzero" style="mix-blend-mode: multiply;"></path>
                    <path class="animate-line" stroke="#fff" stroke-width="0.5" fill="transparent" d="M83.4506329,41.1544304 L83.4506329,57.2489451 C83.4506329,58.9193152 82.1018199,60.2734177 80.4379747,60.2734177 L43.6512658,60.2734177 C41.9881011,60.2675387 40.6396334,58.9186005 40.6278481,57.2489451 L40.6278481,37.2010127 C40.6335948,36.2758039 40.2707722,35.3866631 39.6201048,34.7314155 C38.9694375,34.0761679 38.0848992,33.7091672 37.1632911,33.7120675 L17.3765823,33.7120675 L17.3765823,27.7603376 L16.9139241,27.7603376 L16.9139241,40.7223629 L17.3765823,40.7223629 L17.3765823,34.1657384 L37.1632911,34.1657384 C37.9641655,34.1657333 38.732082,34.4858645 39.2973753,35.0554015 C39.8626686,35.6249384 40.1788096,36.3970028 40.1759494,37.2010127 L40.1759494,57.2489451 C40.1818567,59.1733745 41.7343538,60.7319598 43.6512658,60.737907 L80.4379747,60.737907 C81.3615487,60.7407609 82.2482757,60.3744443 82.9023529,59.7198288 C83.5564301,59.0652132 83.9240506,58.1761455 83.9240506,57.2489451 L83.9240506,41.1544304 L83.4506329,41.1544304 Z" id="Path" fill="#FFFFFF" fill-rule="nonzero"></path>
                    <rect id="Rectangle" fill="#FFFFFF" fill-rule="nonzero" x="115.621519" y="24.563038" width="16.3651899" height="1"></rect>
                    <path class="animate-line-long" stroke="#fff" stroke-width="0.5" fill="transparent" d="M164.46962,118.148861 C164.472492,118.974799 164.146941,119.767742 163.565192,120.351772 C162.983443,120.935802 162.193598,121.26263 161.370886,121.259747 L140.637342,121.259747 L140.637342,111.538228 L140.185443,111.538228 L140.185443,121.259747 L88.4107595,121.259747 C86.701827,121.253821 85.3179284,119.864495 85.3120253,118.148861 L85.3120253,111.93789 L84.8601266,111.93789 L84.8601266,118.148861 C84.8601266,120.119266 86.4480599,121.718267 88.4107595,121.724236 L161.392405,121.724236 C162.336842,121.727119 163.243273,121.351014 163.910082,120.679561 C164.576892,120.008108 164.948784,119.096988 164.943104,118.148861 L164.943104,55.9851477 L164.491139,55.9851477 L164.46962,118.148861 Z" id="Path" fill="#FFFFFF" fill-rule="nonzero"></path>
                    <path class="animate-line" stroke="#fff" stroke-width="0.5" fill="transparent" d="M77.6943038,114.011814 C77.6883832,115.158956 76.7603975,116.085754 75.6177215,116.085738 L18.4848101,116.085738 C17.9341843,116.091535 17.4042752,115.875245 17.0138925,115.485362 C16.6235098,115.095479 16.4053146,114.564622 16.4082278,114.011814 L16.4082278,108.98903 L15.9562344,108.98903 L15.9562344,114.011814 C15.9504846,114.685835 16.2153509,115.333801 16.6911228,115.809406 C17.1668948,116.285012 17.8134535,116.548151 18.4848101,116.539409 L75.6177215,116.539409 C76.2873251,116.542282 76.930485,116.277251 77.404979,115.802924 C77.879473,115.328596 78.1462025,114.68405 78.1462025,114.011814 L78.1462025,112.186329 L77.6943038,112.186329 L77.6943038,114.011814 Z" id="Path" fill="#FFFFFF" fill-rule="nonzero"></path>
                    <path d="M119.946835,104.776371 L114.437975,104.776371 L114.437975,68.9147679 C114.438528,68.3019274 114.194373,67.7144358 113.760127,67.2837131 C113.326667,66.8557299 112.743412,66.6153084 112.135443,66.6140084 L52.4310127,66.6140084 C51.8230435,66.6153084 51.2397882,66.8557299 50.8063291,67.2837131 C50.3720828,67.7144358 50.1279279,68.3019274 50.128481,68.9147679 L50.128481,104.776371 L44.6196203,104.776371 C44.4105418,104.773155 44.2164784,104.885075 44.1139241,105.068017 C44.0037674,105.280943 43.9769026,105.527527 44.0386076,105.759325 L44.1677215,106.321013 L44.2968354,106.8827 C44.3639297,107.145405 44.5016442,107.384548 44.6949367,107.574008 C44.8681035,107.746124 45.0973465,107.849688 45.3405063,107.865654 L119.236709,107.865654 C119.476085,107.847161 119.701103,107.743783 119.871519,107.574008 C120.064812,107.384548 120.202526,107.145405 120.26962,106.8827 L120.398734,106.321013 L120.527848,105.759325 C120.595194,105.527992 120.568096,105.279265 120.452532,105.068017 C120.351755,104.883316 120.156532,104.770727 119.946835,104.776371 Z" id="Path" fill="#D1D3D4" fill-rule="nonzero"></path>
                    <path d="M112.135443,66.6140084 L52.4310127,66.6140084 C51.8230435,66.6153084 51.2397882,66.8557299 50.8063291,67.2837131 C50.3720828,67.7144358 50.1284801,68.3019274 50.1284801,68.9147679 L50.1284801,104.776371 L114.437976,104.776371 L114.437976,68.9147679 C114.437976,68.3019274 114.194373,67.7144358 113.760127,67.2837131 C113.326667,66.8557299 112.743412,66.6153084 112.135443,66.6140084 L112.135443,66.6140084 Z" id="Path" fill="#023852" fill-rule="nonzero"></path>
                    <polygon id="Path" fill="#0099DA" fill-rule="nonzero" points="52.4310127 102.410802 52.4310127 93.196962 52.4310127 83.9723207 52.4310127 76.4435443 52.4310127 68.9147679 67.3544304 68.9147679 82.2886076 68.9147679 97.2120253 68.9147679 112.135443 68.9147679 112.135443 76.4435443 112.135443 83.9723207 112.135443 93.196962 112.135443 102.410802 97.2120253 102.410802 82.2886076 102.410802 67.3544304 102.410802"></polygon>
                    <path d="M120.26962,106.828692 C120.202526,107.091397 120.064812,107.33054 119.871519,107.52 C119.701103,107.689775 119.476085,107.793153 119.236709,107.811646 L45.3405063,107.811646 C45.0973465,107.79568 44.8681035,107.692116 44.6949367,107.52 C44.5016442,107.33054 44.3639297,107.091397 44.2968354,106.828692 L44.1677215,106.267004 L44.0386076,105.705316 C43.9769026,105.473519 44.0037674,105.226935 44.1139241,105.014008 C44.2164784,104.831067 44.4105418,104.719146 44.6196203,104.722363 L119.936076,104.722363 C120.145772,104.716718 120.340996,104.829308 120.441772,105.014008 C120.557336,105.225257 120.584434,105.473984 120.517089,105.705316 L120.387975,106.267004 L120.26962,106.828692 Z" id="Path" fill="#96A6AE" fill-rule="nonzero"></path>
                    <path d="M55.4113924,70.7078481 C55.4111579,70.8919904 55.3420364,71.0693271 55.2177215,71.2047257 C55.0865316,71.3366485 54.9084693,71.4107804 54.7227848,71.4107804 C54.5371004,71.4107804 54.359038,71.3366485 54.2278481,71.2047257 C54.1035333,71.0693271 54.0344117,70.8919904 54.0341772,70.7078481 C54.0286685,70.5226606 54.0986087,70.3432237 54.2278481,70.2109705 C54.359038,70.0790477 54.5371004,70.0049158 54.7227848,70.0049158 C54.9084693,70.0049158 55.0865316,70.0790477 55.2177215,70.2109705 C55.3469609,70.3432237 55.4169011,70.5226606 55.4113924,70.7078481 Z" id="Path" fill="#FFFFFF" fill-rule="nonzero"></path>
                    <path d="M57.4126582,70.7078481 C57.4140805,70.8943798 57.3403554,71.0735722 57.2082278,71.2047257 C57.0789193,71.3327829 56.9056482,71.4062287 56.7240506,71.4099578 C56.3378009,71.4099578 56.0246835,71.0956126 56.0246835,70.7078481 C56.0305618,70.3243085 56.341964,70.0164947 56.7240506,70.0165304 C56.9066176,70.0155536 57.0816096,70.0897288 57.2082278,70.2217722 C57.3419562,70.3473573 57.4162678,70.5240485 57.4126582,70.7078481 Z" id="Path" fill="#FFFFFF" fill-rule="nonzero"></path>
                    <path d="M59.4139241,70.7078481 C59.4153464,70.8943798 59.3416212,71.0735722 59.2094937,71.2047257 C59.0801463,71.3359989 58.9038634,71.4098678 58.7199367,71.4098678 C58.53601,71.4098678 58.3597271,71.3359989 58.2303797,71.2047257 C58.0982522,71.0735722 58.024527,70.8943798 58.0259494,70.7078481 C58.0223398,70.5240485 58.0966513,70.3473573 58.2303797,70.2217722 C58.4930617,69.9663325 58.908819,69.9615894 59.1772152,70.2109705 C59.325783,70.3330249 59.4125353,70.5151276 59.4139241,70.7078481 Z" id="Path" fill="#FFFFFF" fill-rule="nonzero"></path>
                    <polygon id="Path" fill="#66C3E9" fill-rule="nonzero" points="90.6702532 87.5692827 74.5094937 87.5692827 58.3594937 87.5692827 58.3594937 81.6067511 58.3594937 75.6334177 74.5094937 75.6334177 90.6702532 75.6334177 90.6702532 81.6067511"></polygon>
                    <polygon id="Path" fill="#66C3E9" fill-rule="nonzero" points="73.993038 99.5159494 66.1816456 99.5159494 58.3594937 99.5159494 58.3594937 95.1304641 58.3594937 90.7557806 66.1816456 90.7557806 73.993038 90.7557806 73.993038 95.1304641"></polygon>
                    <polygon id="Path" fill="#66C3E9" fill-rule="nonzero" points="106.206962 99.5159494 91.1867089 99.5159494 76.1664557 99.5159494 76.1664557 95.1304641 76.1664557 90.7557806 91.1867089 90.7557806 106.206962 90.7557806 106.206962 95.1304641"></polygon>
                    <polygon id="Path" fill="#66C3E9" fill-rule="nonzero" points="106.206962 75.6334177 99.428481 75.6334177 92.65 75.6334177 92.65 81.6067511 92.65 87.5692827 99.428481 87.5692827 106.206962 87.5692827 106.206962 81.6067511"></polygon>
                    <path d="M93.3386076,106.558654 L71.2386076,106.558654 C70.855916,106.558889 70.4885919,106.407502 70.2164557,106.137384 C69.9349828,105.850312 69.783278,105.4598 69.7968354,105.057215 L69.7968354,104.625148 L94.7696203,104.625148 L94.7696203,105.057215 C94.7831777,105.4598 94.6314729,105.850312 94.35,106.137384 C94.0825082,106.407876 93.7182739,106.559587 93.3386076,106.558654 L93.3386076,106.558654 Z" id="Path" fill="#BAC4C9" fill-rule="nonzero"></path>
                    <ellipse id="Oval" fill="#FFE700" fill-rule="nonzero" cx="17.0537975" cy="27.7603376" rx="1.33417722" ry="1.33940928"></ellipse>
                    <ellipse id="Oval" fill="#FFE700" fill-rule="nonzero" cx="17.0537975" cy="39.7718143" rx="1.33417722" ry="1.33940928"></ellipse>
                    <ellipse id="Oval" fill="#FFE700" fill-rule="nonzero" cx="83.6227848" cy="41.3920675" rx="1.33417722" ry="1.33940928"></ellipse>
                    <ellipse id="Oval" fill="#FFE700" fill-rule="nonzero" cx="130.867722" cy="24.76827" rx="1.33417722" ry="1.33940928"></ellipse>
                    <ellipse id="Oval" fill="#FFE700" fill-rule="nonzero" cx="77.8879747" cy="112.089114" rx="1.33417722" ry="1.33940928"></ellipse>
                    <ellipse id="Oval" fill="#FFE700" fill-rule="nonzero" cx="85.1291139" cy="112.089114" rx="1.33417722" ry="1.33940928"></ellipse>
                    <ellipse id="Oval" fill="#FFE700" fill-rule="nonzero" cx="140.432911" cy="112.089114" rx="1.33417722" ry="1.33940928"></ellipse>
                    <ellipse id="Oval" fill="#FFE700" fill-rule="nonzero" cx="164.69557" cy="56.8924895" rx="1.33417722" ry="1.33940928"></ellipse>
                    <ellipse id="Oval" fill="#FFE700" fill-rule="nonzero" cx="140.432911" cy="121.302954" rx="1.33417722" ry="1.33940928"></ellipse>
                    <ellipse id="Oval" fill="#FFE700" fill-rule="nonzero" cx="16.193038" cy="110.025992" rx="1.33417722" ry="1.33940928"></ellipse>
                </g>
            </g>
        </g>
    </g>
</svg>