<svg width="220" height="123" xmlns="http://www.w3.org/2000/svg"><defs><linearGradient x1=".104%" y1="50.052%" x2="100%" y2="50.052%" id="a"><stop stop-color="#FFE700" offset="0%"/><stop stop-color="#FFE403" offset="34%"/><stop stop-color="#FDDA0B" offset="62%"/><stop stop-color="#FAC919" offset="87%"/><stop stop-color="#FAC61B" offset="90%"/></linearGradient></defs><g fill="none" fill-rule="evenodd"><path d="M149.376 114.956v-16.03h-29.162v16.03a6.766 6.766 0 01-.732 2.469 4.463 4.463 0 01-4.198 2.465h39.026a4.49 4.49 0 01-4.203-2.465 6.766 6.766 0 01-.731-2.47z" fill="#A4AEB5"/><path d="M160.317 119.373h-51.044c-1.312 0-2.375 1.315-2.375 2.627h55.799c0-.63-.251-1.487-.698-1.932a2.375 2.375 0 00-1.682-.695z" fill="#CBD1D5"/><path style="mix-blend-mode:multiply" d="M120.205 103.698H149.384v9.415H120.205v-4.705z" opacity=".2" fill="#7C8B95"/><path d="M52.938 104.34a2.936 2.936 0 01-2.079-.857 2.924 2.924 0 01-.859-2.075V3.432a2.924 2.924 0 01.86-2.075C51.41.807 52.157.5 52.937.5h164.124a2.936 2.936 0 012.079.857c.551.55.86 1.297.859 2.075v97.976a2.924 2.924 0 01-.86 2.075c-.55.55-1.298.858-2.078.857H52.938z" fill="#023852"/><path fill="#0099DA" d="M55.022 94.727h159.55V5.502H55.022v44.615z"/><path d="M138 99.5a2.75 2.75 0 10-5.5 0 2.75 2.75 0 005.5 0z" fill="#356075"/><path fill="#1C4C64" d="M214.58 11.46H55.014V5.502h159.568v2.98z"/><path d="M55.018 5.502L66.92 16.784l11.898 11.274c11.74 11.123 23.48 22.238 35.223 33.346l35.263 33.323h65.268V5.502H55.018z" opacity=".2" fill="#FFF"/><path fill="#FFF" d="M95.5 50h10.713v30H95.5zM129.5 28.5h10.713V80H129.5zM112.5 58h10.713v22H112.5zM163.5 35.5h10.713V80H163.5zM146.5 41.5h10.713V80H146.5z"/><path d="M70.445 104.34H57.303V35.467h8.14a5.006 5.006 0 015.002 4.992v63.881z" fill="#023852" opacity=".2" style="mix-blend-mode:multiply"/><path d="M58.727 35.5H4.567A4.575 4.575 0 000 40.066v77.265c.005 2.52 2.046 4.698 4.566 4.702h54.16c2.526.003 4.575-2.177 4.58-4.702V40.066a4.575 4.575 0 00-4.58-4.566z" fill="#023852"/><path d="M34.5 116.756a2.75 2.75 0 10-5.5-.011 2.75 2.75 0 005.5.01z" fill="#356075"/><path fill="#0099DA" d="M59.1 111.663H4.197V39.516H59.099v36.076z"/><path d="M26.211 56.928a21.102 21.102 0 00-12.8 9.913 21.318 21.318 0 00-2.047 5.01l4.35 1.173 4.355 1.172c.266-.998.658-1.958 1.168-2.856a11.952 11.952 0 011.93-2.541c.751-.758 1.602-1.41 2.528-1.94.893-.51 1.849-.904 2.842-1.172l-1.15-4.377-1.176-4.382z" fill="#FFF"/><path d="M31.653 56.21c-.916-.001-1.83.059-2.739.179-.908.121-1.808.301-2.694.539l1.168 4.382 1.167 4.377a12.266 12.266 0 013.116-.408 11.84 11.84 0 018.454 3.52l3.188-3.206 3.188-3.201a20.842 20.842 0 00-14.817-6.183" fill="#33ADE1"/><path d="M46.492 62.392l-3.188 3.21-3.188 3.206a11.92 11.92 0 013.143 5.49 12.15 12.15 0 01-.045 6.12l4.355 1.172 4.36 1.177a21.3 21.3 0 00.05-10.776 20.999 20.999 0 00-5.487-9.626" fill="#023852"/><path d="M43.214 79.918c-.266 1-.658 1.96-1.167 2.86a12.069 12.069 0 01-1.93 2.542 11.96 11.96 0 01-5.388 3.107l1.167 4.382 1.167 4.377a20.842 20.842 0 009.429-5.46 21.035 21.035 0 005.437-9.46L47.592 81.1l-4.378-1.18z" fill="url(#a)" transform="translate(0 .5)"/><path d="M23.176 85.829a11.965 11.965 0 01-3.143-5.491 12.15 12.15 0 01.027-6.138l-4.346-1.176-4.36-1.172c-.08.296-.147.592-.21.898-.063.305-.122.601-.175.898 0 .072-.023.143-.036.215-.014.072-.023.14-.036.211-.045.301-.086.602-.121.898-.036.297-.068.602-.086.898a21.102 21.102 0 006.102 16.334l2.878-2.896 2.878-2.891.31-.31.318-.278z" fill="#747474"/><path d="M33.054 98.378c.3 0 .606-.054.898-.086.292-.031.601-.08.898-.125l.215-.036.211-.036a23.47 23.47 0 001.796-.386l-1.154-4.391-1.171-4.369c-.247.067-.49.121-.737.17-.247.05-.498.095-.745.126h-.04a9.847 9.847 0 01-.732.072c-.247.014-.49.027-.732.032H30.989c-.243 0-.45-.036-.687-.063l-.198-.027-.193-.027c-.17-.027-.341-.054-.512-.09-.17-.036-.337-.067-.507-.108l-.202-.045-.202-.053a11.57 11.57 0 01-1.253-.413h-.076a6.455 6.455 0 01-.642-.288c-.193-.103-.422-.21-.633-.328l-.17-.098-.172-.108a4.508 4.508 0 01-.449-.288c-.139-.103-.3-.202-.449-.31l-.17-.125-.166-.126c-.193-.148-.386-.305-.57-.449-.185-.143-.369-.332-.544-.507l-.655.65-.67.607-2.536 2.55-2.532 2.55a20.86 20.86 0 0016.244 6.125h.009z" fill="#7C8B95"/><path fill="#FFF" opacity=".2" d="M58.947 74.196V95.36L33.238 67.438 7.525 39.516h51.422v17.34z"/></g></svg>