<?xml version="1.0" encoding="UTF-8"?>
<svg width="440px" height="330px" viewBox="0 0 440 330" version="1.1" xmlns="http://www.w3.org/2000/svg" xmlns:xlink="http://www.w3.org/1999/xlink">
    <title>Graphic elements / Icons / Rich icons / Body worn</title>
    <g id="Graphic-elements-/-Icons-/-Rich-icons-/-Body-worn" stroke="none" stroke-width="1" fill="none" fill-rule="evenodd">
        <g id="Body-Worn-Camera-Illustration" transform="translate(95.000000, 0.000000)" fill-rule="nonzero">
            <path d="M225.90604,60.9503356 L233.281208,59.5993289 L240.656376,58.2704698 C241.040221,58.1849418 241.442336,58.2653648 241.763758,58.4919463 C242.085874,58.7015905 242.315653,59.0264507 242.40604,59.4 L246.060403,75.1248322 L249.692617,90.8053691 C249.789746,91.1804553 249.733984,91.5787595 249.537584,91.9127517 C249.336384,92.2516002 249.010384,92.4980879 248.62953,92.5993289 L241.985235,94.4154362 L235.34094,96.209396 L230.512752,78.4912752 L225.90604,60.9503356 Z" id="Path" fill="#023852"></path>
            <polygon id="Path" fill="#000D2E" points="220.05906 62.1463087 228.142953 60.6845638 236.248993 59.2228188 240.279866 76.5201342 244.310738 93.8395973 237.068456 95.8328859 229.826174 97.8261745 224.953691 79.9973154"></polygon>
            <polygon id="Path" fill="#0B5375" points="8.9033557 221.631544 14.3516779 221.631544 19.8221477 221.631544 19.8221477 203.669799 19.8221477 185.708054 14.3516779 185.708054 8.9033557 185.708054 8.9033557 203.669799"></polygon>
            <polygon id="Path" fill="#0B5375" points="9.10268456 269.736242 14.2630872 269.736242 19.4013423 269.736242 19.4013423 252.195302 19.4013423 234.654362 14.2630872 234.654362 9.10268456 234.654362 9.10268456 252.195302"></polygon>
            <polygon id="Path" fill="#000D2E" points="12.0483221 221.631544 17.5187919 221.631544 22.9671141 221.631544 22.9671141 203.669799 22.9671141 185.708054 17.5187919 185.708054 12.0483221 185.708054 12.0483221 203.669799"></polygon>
            <polygon id="Path" fill="#000D2E" points="12.247651 269.736242 17.4080537 269.736242 22.5463087 269.736242 22.5463087 252.195302 22.5463087 234.654362 17.4080537 234.654362 12.247651 234.654362 12.247651 252.195302"></polygon>
            <path d="M243.291946,109.830201 L233.857047,71.2489933 L224.4,32.6456376 C224.156696,31.6762046 223.736202,30.7601284 223.159732,29.9436242 C222.550617,29.1362233 221.80024,28.4458768 220.944966,27.9060403 L212.838926,22.8563758 L204.755034,17.7181208 C204.11079,17.3180014 203.528751,16.8255063 203.027517,16.2563758 C202.528536,15.6814838 202.111185,15.040552 201.787248,14.3516779 L201.455034,13.6208054 L201.122819,12.8677852 C200.585565,11.6695513 199.746026,10.6315752 198.686577,9.8557047 C197.627234,9.06916141 196.384657,8.5660322 195.07651,8.39395973 L187.479866,7.39731544 L179.861074,6.37852349 C179.021357,6.27071979 178.205481,6.02371136 177.44698,5.64765101 C176.689897,5.26825836 175.99529,4.77531138 175.387248,4.18590604 L174.811409,3.58791946 L174.213423,3.01208054 C173.504878,2.28360738 172.652615,1.71040416 171.710738,1.32885906 C170.771977,0.931263498 169.762436,0.730786868 168.742953,0.730786868 L75.8778523,0.730786868 C74.8581884,0.725995989 73.8482777,0.929485468 72.9100671,1.32885906 C71.9643891,1.71549413 71.1058511,2.28785275 70.3852349,3.01208054 L69.809396,3.58791946 L69.2114094,4.18590604 C68.6075933,4.78037457 67.9121452,5.27391836 67.1516779,5.64765101 C66.3931767,6.02371136 65.5773004,6.27071979 64.7375839,6.37852349 L57.1409396,7.39731544 L49.5442953,8.39395973 C48.236148,8.5660322 46.9935713,9.06916141 45.9342282,9.8557047 C44.8680603,10.630225 44.0210163,11.6680447 43.4758389,12.8677852 L43.1436242,13.6208054 L42.8114094,14.3516779 C42.4955497,15.0450208 42.0774756,15.6870631 41.5711409,16.2563758 C41.0864929,16.8336513 40.5103784,17.3274637 39.8657718,17.7181208 L31.7597315,22.7677852 L23.6315436,27.9060403 C22.7703097,28.4380525 22.0185918,29.1296329 21.4167785,29.9436242 C20.8245573,30.7538033 20.3957718,31.6715546 20.1543624,32.6456376 L10.7637584,71.2489933 L1.30671141,109.830201 C1.13358094,110.55513 1.05908302,111.300109 1.0852349,112.044966 C1.11899272,112.801501 1.26837421,113.548408 1.52818792,114.259732 C4.88193909,124.188365 7.58961115,134.32364 9.63422819,144.602013 C13.4875485,163.428609 15.4536539,182.592572 15.5033557,201.809396 L15.5033557,266.037584 C15.4974773,279.972329 21.0304299,293.338031 30.8837833,303.191384 C40.7371368,313.044738 54.102839,318.57769 68.0375839,318.571831 L176.561074,318.571831 C190.499655,318.583571 203.87105,313.053214 213.729196,303.199223 C223.587341,293.345232 229.123333,279.976169 229.11745,266.037584 L229.11745,201.809396 C229.145795,182.577931 231.104609,163.397883 234.96443,144.557718 C236.99788,134.276749 239.705745,124.140751 243.07047,114.215436 C243.573276,112.791085 243.642641,111.249662 243.269799,109.785906 L243.291946,109.830201 Z" id="Path" fill="#023852"></path>
            <g id="Group">
                <rect id="Rectangle" fill="#023852" x="1.06308725" y="0.819463087" width="72.4892617" height="317.752349"></rect>
                <rect id="Rectangle" fill="#023852" x="73.552349" y="0.819463087" width="1.1295302" height="317.752349"></rect>
                <rect id="Rectangle" fill="#023751" x="74.6597315" y="0.819463087" width="1.1295302" height="317.752349"></rect>
                <rect id="Rectangle" fill="#023650" x="75.7892617" y="0.819463087" width="1.1295302" height="317.752349"></rect>
                <rect id="Rectangle" fill="#02354F" x="76.9187919" y="0.819463087" width="1.1295302" height="317.752349"></rect>
                <rect id="Rectangle" fill="#02344F" x="78.0483221" y="0.819463087" width="1.1295302" height="317.752349"></rect>
                <rect id="Rectangle" fill="#02334E" x="79.1557047" y="0.819463087" width="1.1295302" height="317.752349"></rect>
                <rect id="Rectangle" fill="#02324D" x="80.2852349" y="0.819463087" width="1.1295302" height="317.752349"></rect>
                <rect id="Rectangle" fill="#02314C" x="81.4147651" y="0.819463087" width="1.1295302" height="317.752349"></rect>
                <rect id="Rectangle" fill="#02304B" x="82.5221477" y="0.819463087" width="1.1295302" height="317.752349"></rect>
                <rect id="Rectangle" fill="#022F4A" x="83.6516779" y="0.819463087" width="1.1295302" height="317.752349"></rect>
                <rect id="Rectangle" fill="#022E49" x="84.7812081" y="0.819463087" width="1.1295302" height="317.752349"></rect>
                <rect id="Rectangle" fill="#012D49" x="85.9107383" y="0.819463087" width="1.1295302" height="317.752349"></rect>
                <rect id="Rectangle" fill="#012C48" x="87.0181208" y="0.819463087" width="1.1295302" height="317.752349"></rect>
                <rect id="Rectangle" fill="#012B47" x="88.147651" y="0.819463087" width="1.1295302" height="317.752349"></rect>
                <rect id="Rectangle" fill="#012A46" x="89.2771812" y="0.819463087" width="1.1295302" height="317.752349"></rect>
                <rect id="Rectangle" fill="#012945" x="90.3845638" y="0.819463087" width="1.1295302" height="317.752349"></rect>
                <rect id="Rectangle" fill="#012844" x="91.514094" y="0.819463087" width="1.1295302" height="317.752349"></rect>
                <rect id="Rectangle" fill="#012743" x="92.6436242" y="0.819463087" width="1.1295302" height="317.752349"></rect>
                <rect id="Rectangle" fill="#012643" x="93.7731544" y="0.819463087" width="1.1295302" height="317.752349"></rect>
                <rect id="Rectangle" fill="#012542" x="94.8805369" y="0.819463087" width="1.1295302" height="317.752349"></rect>
                <rect id="Rectangle" fill="#012441" x="96.0100671" y="0.819463087" width="1.1295302" height="317.752349"></rect>
                <rect id="Rectangle" fill="#012340" x="97.1395973" y="0.819463087" width="1.1295302" height="317.752349"></rect>
                <rect id="Rectangle" fill="#01213F" x="98.2691275" y="0.819463087" width="1.1295302" height="317.752349"></rect>
                <rect id="Rectangle" fill="#01203E" x="99.3765101" y="0.819463087" width="1.1295302" height="317.752349"></rect>
                <rect id="Rectangle" fill="#011F3D" x="100.50604" y="0.819463087" width="1.1295302" height="317.752349"></rect>
                <rect id="Rectangle" fill="#011E3D" x="101.63557" y="0.819463087" width="1.1295302" height="317.752349"></rect>
                <rect id="Rectangle" fill="#011D3C" x="102.742953" y="0.819463087" width="1.1295302" height="317.752349"></rect>
                <rect id="Rectangle" fill="#011C3B" x="103.872483" y="0.819463087" width="1.1295302" height="317.752349"></rect>
                <rect id="Rectangle" fill="#011B3A" x="105.002013" y="0.819463087" width="1.1295302" height="317.752349"></rect>
                <rect id="Rectangle" fill="#011A39" x="106.131544" y="0.819463087" width="1.1295302" height="317.752349"></rect>
                <rect id="Rectangle" fill="#011938" x="107.238926" y="0.819463087" width="1.1295302" height="317.752349"></rect>
                <rect id="Rectangle" fill="#011837" x="108.368456" y="0.819463087" width="1.1295302" height="317.752349"></rect>
                <rect id="Rectangle" fill="#001737" x="109.497987" y="0.819463087" width="1.1295302" height="317.752349"></rect>
                <rect id="Rectangle" fill="#001636" x="110.605369" y="0.819463087" width="1.1295302" height="317.752349"></rect>
                <rect id="Rectangle" fill="#001535" x="111.734899" y="0.819463087" width="1.1295302" height="317.752349"></rect>
                <rect id="Rectangle" fill="#001434" x="112.86443" y="0.819463087" width="1.1295302" height="317.752349"></rect>
                <rect id="Rectangle" fill="#001333" x="113.99396" y="0.819463087" width="1.1295302" height="317.752349"></rect>
                <rect id="Rectangle" fill="#001232" x="115.101342" y="0.819463087" width="1.1295302" height="317.752349"></rect>
                <rect id="Rectangle" fill="#001131" x="116.230872" y="0.819463087" width="1.1295302" height="317.752349"></rect>
                <rect id="Rectangle" fill="#001031" x="117.360403" y="0.819463087" width="1.1295302" height="317.752349"></rect>
                <rect id="Rectangle" fill="#000F30" x="118.489933" y="0.819463087" width="1.1295302" height="317.752349"></rect>
                <rect id="Rectangle" fill="#000E2F" x="119.597315" y="0.819463087" width="1.1295302" height="317.752349"></rect>
                <rect id="Rectangle" fill="#000D2E" x="120.726846" y="0.819463087" width="1.1295302" height="317.752349"></rect>
            </g>
            <path d="M68.7905631,317.420134 L179.927517,317.420134 L179.927517,323.510738 C179.91537,326.832746 177.225364,329.522753 173.903356,329.534899 L74.7926174,329.534899 C73.1969398,329.534899 71.6669381,328.899518 70.5407034,327.769127 C69.4144688,326.638737 68.7847159,325.106405 68.7905631,323.510738 L68.7905631,317.420134 Z" id="Path" fill="#356075"></path>
            <path d="M68.7905631,313.544295 L179.927517,313.544295 L179.927517,319.634899 C179.91537,322.956907 177.225364,325.646914 173.903356,325.65906 L74.7926174,325.65906 C73.1969398,325.65906 71.6669381,325.023679 70.5407034,323.893288 C69.4144688,322.762898 68.7847159,321.230566 68.7905631,319.634899 L68.7905631,313.544295 L68.7905631,313.544295 Z" id="Path" fill="#000D2E"></path>
            <path d="M222.51745,157.248322 L206.194631,140.925503 L189.89396,124.624832 C189.304257,124.042048 188.508282,123.715698 187.679195,123.716779 C186.849155,123.710811 186.05138,124.037899 185.46443,124.624832 L171.865772,138.22349 L158.244966,151.844295 C157.956382,152.125107 157.618527,152.350344 157.248322,152.508725 C156.876621,152.665521 156.477895,152.748276 156.074497,152.752349 L89.166443,152.752349 C88.7630449,152.748276 88.3643183,152.665521 87.9926174,152.508725 C87.6195528,152.355674 87.2807372,152.129797 86.9959732,151.844295 L73.3751678,138.22349 L59.7986577,124.558389 C59.2185242,123.957497 58.4191331,123.618118 57.5838926,123.618118 C56.7486521,123.618118 55.9492611,123.957497 55.3691275,124.558389 L39.0684564,140.85906 L22.7899329,157.248322 C22.2029998,157.835272 21.8759117,158.633048 21.8816101,159.463087 C21.8708585,160.294095 22.1987208,161.09376 22.7899329,161.677852 L31.6489933,170.536913 L40.5080537,179.395973 C40.7705513,179.648016 40.9812173,179.948967 41.1281879,180.281879 C41.2808074,180.609288 41.370943,180.962319 41.3939597,181.322819 L46.4879195,248.563087 L51.5818792,315.781208 C51.5818792,315.781208 51.4268456,315.781208 51.3825503,315.781208 C51.356705,315.897915 51.356705,316.018863 51.3825503,316.13557 C51.4230844,316.904801 51.7748973,317.624418 52.357047,318.128859 C52.9336027,318.631902 53.6737748,318.907498 54.4389262,318.904059 L191.222819,318.904059 C191.98797,318.907498 192.728142,318.631902 193.304698,318.128859 C193.878836,317.618296 194.228908,316.902239 194.279195,316.13557 C194.30504,316.018863 194.30504,315.897915 194.279195,315.781208 C194.279195,315.781208 194.279195,315.781208 194.079866,315.781208 L199.173826,248.563087 L204.267785,181.322819 C204.290802,180.962319 204.380938,180.609288 204.533557,180.281879 C204.680528,179.948967 204.891194,179.648016 205.153691,179.395973 L214.012752,170.536913 L222.871812,161.677852 C223.463024,161.09376 223.790886,160.294095 223.780135,159.463087 C223.696043,158.577986 223.236316,157.771448 222.51745,157.248322 Z" id="Path" fill="#356075"></path>
            <path d="M61.7255034,23.5651007 L61.7255034,23.5651007 C63.4048375,23.5529313 64.7597756,22.1881031 64.7597315,20.5087248 L64.7597315,14.6174497 C64.7765992,13.7896758 64.4569185,12.9904742 63.8738255,12.4026846 C63.2889394,11.815184 62.4877714,11.4947168 61.6590604,11.5167785 L61.6590604,11.5167785 C60.8303494,11.4947168 60.0291814,11.815184 59.4442953,12.4026846 C58.8552393,12.9882195 58.5277689,13.786928 58.5362416,14.6174497 L58.5362416,20.5087248 C58.560047,22.1867552 59.9145871,23.5412952 61.5926174,23.5651007 L61.7255034,23.5651007 Z" id="Path" fill="#FFE700"></path>
            <path d="M183.980537,23.5651007 L183.980537,23.5651007 C184.811059,23.5735734 185.609767,23.2461029 186.195302,22.657047 C186.782803,22.0721608 187.10327,21.2709929 187.081208,20.4422819 L187.081208,14.6174497 C187.081208,12.9416917 185.722738,11.5832215 184.04698,11.5832215 L184.04698,11.5832215 C183.217316,11.5557824 182.414082,11.8770761 181.832215,12.4691275 C181.243159,13.0546624 180.915688,13.8533709 180.924161,14.6838926 L180.924161,20.5751678 C180.910549,21.4066668 181.238812,22.20731 181.832215,22.7899329 C182.417534,23.322421 183.190068,23.6011702 183.980537,23.5651007 L183.980537,23.5651007 Z" id="Path" fill="#FFE700"></path>
            <g id="Group" transform="translate(28.791946, 17.718121)">
                <polygon id="Path" fill="#000D2E" points="15.7691275 0.088590604 18.5818792 7.81812081 2.1704698 13.7979866 2.1704698 0.088590604"></polygon>
                <polygon id="Path" fill="#000D2E" points="18.5818792 7.81812081 19.2020134 9.54563758 2.1704698 15.7469799 2.1704698 13.7979866"></polygon>
                <polygon id="Path" fill="#000E2F" points="19.2020134 9.54563758 19.8442953 11.2731544 2.1704698 17.6959732 2.1704698 15.7469799"></polygon>
                <polygon id="Path" fill="#000F30" points="19.8442953 11.2731544 20.4644295 13.0006711 2.1704698 19.6449664 2.1704698 17.6959732"></polygon>
                <polygon id="Path" fill="#001031" points="20.4644295 13.0006711 21.0845638 14.7060403 2.1704698 21.5939597 2.1704698 19.6449664"></polygon>
                <polygon id="Path" fill="#001131" points="21.0845638 14.7060403 21.7268456 16.433557 2.1704698 23.542953 2.1704698 21.5939597"></polygon>
                <polygon id="Path" fill="#001232" points="21.7268456 16.433557 22.3469799 18.1610738 2.1704698 25.4919463 2.1704698 23.542953"></polygon>
                <polygon id="Path" fill="#001333" points="22.3469799 18.1610738 22.9671141 19.866443 2.1704698 27.4409396 2.1704698 25.4919463"></polygon>
                <polygon id="Path" fill="#001434" points="22.9671141 19.866443 23.609396 21.5939597 2.1704698 29.3899329 2.1704698 27.4409396"></polygon>
                <polygon id="Path" fill="#001535" points="23.609396 21.5939597 24.2295302 23.3214765 2.1704698 31.3389262 2.1704698 29.3899329"></polygon>
                <polygon id="Path" fill="#001636" points="24.2295302 23.3214765 24.8496644 25.0268456 2.1704698 33.2879195 2.1704698 31.3389262"></polygon>
                <polygon id="Path" fill="#001737" points="24.8496644 25.0268456 25.4697987 26.7543624 2.1704698 35.2369128 2.1704698 33.2879195"></polygon>
                <polygon id="Path" fill="#011837" points="25.4697987 26.7543624 26.1120805 28.4818792 2.1704698 37.185906 2.1704698 35.2369128"></polygon>
                <polygon id="Path" fill="#011938" points="26.1120805 28.4818792 26.7322148 30.1872483 2.1704698 39.1348993 2.1704698 37.185906"></polygon>
                <polygon id="Path" fill="#011A39" points="26.7322148 30.1872483 26.8872483 30.652349 26.8872483 32.0919463 2.1704698 41.0838926 2.1704698 39.1348993"></polygon>
                <polygon id="Path" fill="#011B3A" points="26.8872483 34.0409396 2.1704698 43.0328859 2.1704698 41.0838926 26.8872483 32.0919463"></polygon>
                <polygon id="Path" fill="#011C3B" points="26.8872483 35.9899329 2.1704698 44.9818792 2.1704698 43.0328859 26.8872483 34.0409396"></polygon>
                <polygon id="Path" fill="#011D3C" points="26.8872483 37.9389262 2.1704698 46.9308725 2.1704698 44.9818792 26.8872483 35.9899329"></polygon>
                <polygon id="Path" fill="#011E3D" points="26.8872483 39.8879195 2.1704698 48.8798658 2.1704698 46.9308725 26.8872483 37.9389262"></polygon>
                <polygon id="Path" fill="#011F3D" points="26.8872483 41.8369128 2.1704698 50.8288591 2.1704698 48.8798658 26.8872483 39.8879195"></polygon>
                <polygon id="Path" fill="#01203E" points="26.8872483 43.785906 2.1704698 52.7778523 2.1704698 50.8288591 26.8872483 41.8369128"></polygon>
                <polygon id="Path" fill="#01213F" points="26.8872483 45.7348993 2.61342282 54.5718121 2.1704698 53.309396 2.1704698 52.7778523 26.8872483 43.785906"></polygon>
                <polygon id="Path" fill="#012240" points="26.8872483 47.6838926 3.2557047 56.2771812 2.61342282 54.5718121 26.8872483 45.7348993"></polygon>
                <polygon id="Path" fill="#012441" points="26.8872483 49.6328859 3.87583893 58.004698 3.2557047 56.2771812 26.8872483 47.6838926"></polygon>
                <polygon id="Path" fill="#012542" points="26.8872483 51.5818792 4.49597315 59.7322148 3.87583893 58.004698 26.8872483 49.6328859"></polygon>
                <polygon id="Path" fill="#012643" points="26.8872483 53.5308725 5.11610738 61.4375839 4.49597315 59.7322148 26.8872483 51.5818792"></polygon>
                <polygon id="Path" fill="#012743" points="26.8872483 55.4798658 5.75838926 63.1651007 5.11610738 61.4375839 26.8872483 53.5308725"></polygon>
                <polygon id="Path" fill="#012844" points="26.8872483 57.4288591 6.37852349 64.8926174 5.75838926 63.1651007 26.8872483 55.4798658"></polygon>
                <polygon id="Path" fill="#012945" points="26.8872483 59.3778523 6.99865772 66.5979866 6.37852349 64.8926174 26.8872483 57.4288591"></polygon>
                <polygon id="Path" fill="#012A46" points="26.8872483 61.3268456 7.6409396 68.3255034 6.99865772 66.5979866 26.8872483 59.3778523"></polygon>
                <polygon id="Path" fill="#012B47" points="26.8872483 63.2536913 8.26107383 70.0530201 7.6409396 68.3255034 26.8872483 61.3268456"></polygon>
                <polygon id="Path" fill="#012C48" points="26.8872483 65.2026846 8.88120805 71.7805369 8.26107383 70.0530201 26.8872483 63.2536913"></polygon>
                <polygon id="Path" fill="#012D49" points="26.8872483 67.1738255 9.50134228 73.485906 8.88120805 71.7805369 26.8872483 65.2026846"></polygon>
                <polygon id="Path" fill="#022E49" points="26.8872483 69.1006711 10.1436242 75.2134228 9.50134228 73.485906 26.8872483 67.1738255"></polygon>
                <polygon id="Path" fill="#022F4A" points="26.8872483 71.0496644 10.7637584 76.9409396 10.1436242 75.2134228 26.8872483 69.1006711"></polygon>
                <polygon id="Path" fill="#02304B" points="26.8872483 72.9986577 11.3838926 78.6463087 10.7637584 76.9409396 26.8872483 71.0496644"></polygon>
                <polygon id="Path" fill="#02314C" points="26.8872483 74.947651 12.0040268 80.3738255 11.3838926 78.6463087 26.8872483 72.9986577"></polygon>
                <polygon id="Path" fill="#02324D" points="26.8872483 76.8966443 12.6463087 82.1013423 12.0040268 80.3738255 26.8872483 74.947651"></polygon>
                <polygon id="Path" fill="#02334E" points="26.8872483 78.8456376 13.266443 83.8067114 12.6463087 82.1013423 26.8872483 76.8966443"></polygon>
                <polygon id="Path" fill="#02344F" points="26.8872483 80.7946309 13.8865772 85.5342282 13.266443 83.8067114 26.8872483 78.8456376"></polygon>
                <polygon id="Path" fill="#02354F" points="26.8872483 82.7436242 14.5288591 87.261745 13.8865772 85.5342282 26.8872483 80.7946309"></polygon>
                <polygon id="Path" fill="#023650" points="26.8872483 84.6926174 15.1489933 88.9671141 14.5288591 87.261745 26.8872483 82.7436242"></polygon>
                <polygon id="Path" fill="#023751" points="26.8872483 86.6416107 15.7691275 90.6946309 15.1489933 88.9671141 26.8872483 84.6926174"></polygon>
                <polygon id="Path" fill="#023852" points="26.8872483 88.590604 16.4114094 92.4221477 15.7691275 90.6946309 26.8872483 86.6416107"></polygon>
                <polygon id="Path" fill="#023852" points="18.8255034 99.066443 16.4114094 92.4221477 26.8872483 88.590604 26.8872483 99.066443"></polygon>
            </g>
            <g id="Group" transform="translate(188.255034, 15.503356)">
                <polygon id="Path" fill="#023852" points="0.132885906 90.6503356 10.6308725 94.4597315 8.21677852 101.126174 0.132885906 101.126174"></polygon>
                <polygon id="Path" fill="#023852" points="0.132885906 88.7013423 11.2731544 92.7322148 10.6308725 94.4597315 0.132885906 90.6503356"></polygon>
                <polygon id="Path" fill="#023751" points="0.132885906 86.7302013 11.8932886 91.0268456 11.2731544 92.7322148 0.132885906 88.7013423"></polygon>
                <polygon id="Path" fill="#023650" points="0.132885906 84.7812081 12.5134228 89.2993289 11.8932886 91.0268456 0.132885906 86.7302013"></polygon>
                <polygon id="Path" fill="#02354F" points="0.132885906 82.8322148 13.1557047 87.5718121 12.5134228 89.2993289 0.132885906 84.7812081"></polygon>
                <polygon id="Path" fill="#02344F" points="0.132885906 80.8832215 13.7758389 85.8442953 13.1557047 87.5718121 0.132885906 82.8322148"></polygon>
                <polygon id="Path" fill="#02334E" points="0.132885906 78.9342282 14.3959732 84.1167785 13.7758389 85.8442953 0.132885906 80.8832215"></polygon>
                <polygon id="Path" fill="#02324D" points="0.132885906 76.9852349 15.038255 82.4114094 14.3959732 84.1167785 0.132885906 78.9342282"></polygon>
                <polygon id="Path" fill="#02314C" points="0.132885906 75.0362416 15.6583893 80.6838926 15.038255 82.4114094 0.132885906 76.9852349"></polygon>
                <polygon id="Path" fill="#02304B" points="0.132885906 73.0872483 16.2785235 78.9563758 15.6583893 80.6838926 0.132885906 75.0362416"></polygon>
                <polygon id="Path" fill="#022F4A" points="0.132885906 71.1161074 16.8986577 77.2288591 16.2785235 78.9563758 0.132885906 73.0872483"></polygon>
                <polygon id="Path" fill="#022E49" points="0.132885906 69.1671141 17.5409396 75.5013423 16.8986577 77.2288591 0.132885906 71.1161074"></polygon>
                <polygon id="Path" fill="#012D49" points="0.132885906 67.2181208 18.1610738 73.7959732 17.5409396 75.5013423 0.132885906 69.1671141"></polygon>
                <polygon id="Path" fill="#012C48" points="0.132885906 65.2691275 18.8033557 72.0684564 18.1610738 73.7959732 0.132885906 67.2181208"></polygon>
                <polygon id="Path" fill="#012B47" points="0.132885906 63.3201342 19.4234899 70.3409396 18.8033557 72.0684564 0.132885906 65.2691275"></polygon>
                <polygon id="Path" fill="#012A46" points="0.132885906 61.3711409 20.0436242 68.6134228 19.4234899 70.3409396 0.132885906 63.3201342"></polygon>
                <polygon id="Path" fill="#012945" points="0.132885906 59.4221477 20.6637584 66.885906 20.0436242 68.6134228 0.132885906 61.3711409"></polygon>
                <polygon id="Path" fill="#012844" points="0.132885906 57.4731544 21.3060403 65.1805369 20.6637584 66.885906 0.132885906 59.4221477"></polygon>
                <polygon id="Path" fill="#012743" points="0.132885906 55.5241611 21.9261745 63.4530201 21.3060403 65.1805369 0.132885906 57.4731544"></polygon>
                <polygon id="Path" fill="#012643" points="0.132885906 53.5751678 22.5463087 61.7255034 21.9261745 63.4530201 0.132885906 55.5241611"></polygon>
                <polygon id="Path" fill="#012542" points="0.132885906 51.6040268 23.1885906 59.9979866 22.5463087 61.7255034 0.132885906 53.5751678"></polygon>
                <polygon id="Path" fill="#012441" points="0.132885906 49.6550336 23.8087248 58.2704698 23.1885906 59.9979866 0.132885906 51.6040268"></polygon>
                <polygon id="Path" fill="#012240" points="0.132885906 47.7060403 24.4288591 56.542953 23.8087248 58.2704698 0.132885906 49.6550336"></polygon>
                <polygon id="Path" fill="#01213F" points="0.132885906 45.757047 24.8053691 54.7268456 24.8053691 55.5463087 24.4288591 56.542953 0.132885906 47.7060403"></polygon>
                <polygon id="Path" fill="#01203E" points="0.132885906 43.8080537 24.8053691 52.7778523 24.8053691 54.7268456 0.132885906 45.757047"></polygon>
                <polygon id="Path" fill="#011F3D" points="0.132885906 41.8590604 24.8053691 50.8288591 24.8053691 52.7778523 0.132885906 43.8080537"></polygon>
                <polygon id="Path" fill="#011E3D" points="0.132885906 39.9100671 24.8053691 48.8798658 24.8053691 50.8288591 0.132885906 41.8590604"></polygon>
                <polygon id="Path" fill="#011D3C" points="0.132885906 37.9610738 24.8053691 46.9308725 24.8053691 48.8798658 0.132885906 39.9100671"></polygon>
                <polygon id="Path" fill="#011C3B" points="0.132885906 36.0120805 24.8053691 44.9818792 24.8053691 46.9308725 0.132885906 37.9610738"></polygon>
                <polygon id="Path" fill="#011B3A" points="0.132885906 34.0630872 24.8053691 43.0328859 24.8053691 44.9818792 0.132885906 36.0120805"></polygon>
                <polygon id="Path" fill="#011A39" points="0.132885906 33.066443 0.44295302 32.2026846 24.8053691 41.0838926 24.8053691 43.0328859 0.132885906 34.0630872"></polygon>
                <polygon id="Path" fill="#011938" points="0.44295302 32.2026846 1.0852349 30.4973154 24.8053691 39.1348993 24.8053691 41.0838926"></polygon>
                <polygon id="Path" fill="#011837" points="1.0852349 30.4973154 1.70536913 28.7697987 24.8053691 37.1637584 24.8053691 39.1348993"></polygon>
                <polygon id="Path" fill="#001737" points="1.70536913 28.7697987 2.32550336 27.0422819 24.8053691 35.2147651 24.8053691 37.1637584"></polygon>
                <polygon id="Path" fill="#001636" points="2.32550336 27.0422819 2.96778523 25.3147651 24.8053691 33.2657718 24.8053691 35.2147651"></polygon>
                <polygon id="Path" fill="#001535" points="2.96778523 25.3147651 3.58791946 23.5872483 24.8053691 31.3167785 24.8053691 33.2657718"></polygon>
                <polygon id="Path" fill="#001434" points="3.58791946 23.5872483 4.20805369 21.8818792 24.8053691 29.3677852 24.8053691 31.3167785"></polygon>
                <polygon id="Path" fill="#001333" points="4.20805369 21.8818792 4.82818792 20.1543624 24.8053691 27.4187919 24.8053691 29.3677852"></polygon>
                <polygon id="Path" fill="#001232" points="4.82818792 20.1543624 5.4704698 18.4268456 24.8053691 25.4697987 24.8053691 27.4187919"></polygon>
                <polygon id="Path" fill="#001131" points="5.4704698 18.4268456 6.09060403 16.6993289 24.8053691 23.5208054 24.8053691 25.4697987"></polygon>
                <polygon id="Path" fill="#001031" points="6.09060403 16.6993289 6.71073826 14.9718121 24.8053691 21.5718121 24.8053691 23.5208054"></polygon>
                <polygon id="Path" fill="#000F30" points="6.71073826 14.9718121 7.35302013 13.266443 24.8053691 19.6006711 24.8053691 21.5718121"></polygon>
                <polygon id="Path" fill="#000E2F" points="7.35302013 13.266443 7.97315436 11.5389262 24.8053691 17.6516779 24.8053691 19.6006711"></polygon>
                <polygon id="Path" fill="#000D2E" points="7.97315436 11.5389262 8.59328859 9.8114094 24.8053691 15.7026846 24.8053691 17.6516779"></polygon>
                <polygon id="Path" fill="#000D2E" points="8.59328859 9.8114094 11.4281879 2.05973154 24.8053691 2.05973154 24.8053691 15.7026846"></polygon>
            </g>
            <path d="M81.7691129,79.266443 C81.759197,98.5501 95.3728873,115.155222 114.284219,118.926304 C133.195551,122.697386 152.137128,112.584064 159.524497,94.7715311 C166.911865,76.9589985 160.687411,56.4086013 144.657941,45.6887306 C128.628472,34.96886 107.258693,37.0653341 93.6181208,50.6959732 C86.0243227,58.2635327 81.7599997,68.5457319 81.7691129,79.266443 L81.7691129,79.266443 Z" id="Path" fill="#3A6478"></path>
            <path d="M150.426857,79.266443 C150.43871,92.7418115 140.927562,104.347963 127.712532,106.983998 C114.497502,109.620033 101.261241,102.551364 96.1019856,90.1027584 C90.9427302,77.6541527 95.2982173,63.2946812 106.503664,55.8097854 C117.709111,48.3248895 132.641879,49.8003959 142.165772,59.333557 C147.455625,64.6182402 150.427554,71.7891159 150.426857,79.266443 L150.426857,79.266443 Z" id="Path" fill="#0A0C10"></path>
            <path d="M102.654323,79.266443 C102.635845,88.5988069 109.21394,96.643916 118.364006,98.4795738 C127.514073,100.315232 136.686235,95.4298897 140.268736,86.8125211 C143.851238,78.1951525 140.845733,68.2471852 133.091063,63.0550314 C125.336394,57.8628776 114.993577,58.8734504 108.390604,65.4684564 C104.719224,69.1216303 102.654892,74.087185 102.654323,79.266443 Z" id="Path" fill="#023852"></path>
            <path d="M127.016779,79.266443 C127.004653,76.6049471 124.850086,74.4503805 122.188591,74.4381916 C120.900588,74.4316423 119.663831,74.9423032 118.755705,75.8557047 C117.845483,76.7617897 117.333776,77.9931904 117.333776,79.2775168 C117.333776,80.5618432 117.845483,81.7932439 118.755705,82.6993289 C119.663831,83.6127304 120.900588,84.1233913 122.188591,84.116842 C124.858704,84.1045861 127.016779,81.9365839 127.016779,79.266443 L127.016779,79.266443 Z" id="Path" fill="#0A0C10"></path>
            <path d="M132.044296,74.7261745 C132.044678,73.5613123 131.574494,72.4456894 130.740453,71.6324989 C129.906411,70.8193084 128.779244,70.3775142 127.614765,70.4073826 C125.869625,70.4015479 124.294314,71.4518502 123.628627,73.0650483 C122.96294,74.6782464 123.339132,76.5338378 124.580537,77.7604027 C125.377561,78.5772447 126.473551,79.0332405 127.614765,79.0228188 C128.762645,79.0341435 129.865839,78.5784766 130.671141,77.7604027 C131.518175,76.9747371 132.013123,75.8810624 132.044296,74.7261745 L132.044296,74.7261745 Z" id="Path" fill="#0B5375"></path>
            <path d="M81.4590604,122.100161 C80.5295749,122.106468 79.6090735,121.917841 78.757047,121.546309 C77.9082926,121.147796 77.1534971,120.574151 76.5422819,119.863087 L75.9442953,119.154362 L75.3020134,118.445638 C64.1331671,104.89554 59.3686609,87.1780371 62.2348993,69.8536913 C62.7904698,66.5610686 63.6050803,63.3174375 64.6711409,60.1530201 C65.3495795,57.7967434 67.2706056,56.0056433 69.6685495,55.4936044 C72.0664934,54.9815655 74.551536,55.831827 76.1332055,57.7054973 C77.714875,59.5791675 78.1360491,62.1716555 77.2288591,64.4496644 C76.3791413,66.9171435 75.7346688,69.4505872 75.3020134,72.0241611 C74.8766073,74.6085145 74.6618072,77.2231506 74.6597315,79.8422819 C74.6573805,90.8498833 78.4865113,101.51507 85.4899329,110.007383 L85.9328859,110.561074 L86.3979866,111.092617 C88.8218853,113.840073 88.5642777,118.031152 85.8221477,120.461074 C85.2032678,120.989182 84.4993342,121.408546 83.7402685,121.701342 C83.0077054,121.961607 82.2364748,122.096385 81.4590604,122.100161 L81.4590604,122.100161 Z" id="Path" fill="#F3F7F8"></path>
            <path d="M162.984564,121.812081 C162.229012,121.806091 161.480016,121.671271 160.769799,121.413423 C160.020246,121.124777 159.324109,120.713084 158.710067,120.195302 C157.428574,119.059374 156.635148,117.472523 156.495302,115.765772 C156.371721,114.005537 156.953409,112.26844 158.112081,110.937584 C165.562487,102.324671 169.666008,91.3190584 169.673154,79.9308725 C169.674797,77.2519158 169.452547,74.5775079 169.008725,71.9355705 C168.563866,69.3073726 167.89705,66.721608 167.015436,64.2060403 C165.784671,61.9033523 166.016631,59.0932737 167.608318,57.0235669 C169.200005,54.9538601 171.856341,54.0082236 174.397829,54.6065496 C176.939317,55.2048755 178.894796,57.2362415 179.395973,59.7986577 C180.52946,63.018855 181.381644,66.331256 181.942953,69.6986577 C184.979957,87.5807855 179.861845,105.884126 167.989933,119.597315 C167.387662,120.32898 166.631451,120.918825 165.775168,121.324832 C164.890808,121.685963 163.938976,121.852156 162.984564,121.812081 Z" id="Path" fill="#F3F7F8"></path>
            <path d="M83.1865772,45.1812081 C83.1755301,43.019075 81.8664322,41.0753165 79.8670287,40.2523175 C77.8676253,39.4293185 75.569518,39.888271 74.0395973,41.4161074 C72.3540779,43.1335325 72.0261524,45.7664269 73.2389036,47.84483 C74.4516548,49.923233 76.9051682,50.9331538 79.2296327,50.3107475 C81.5540972,49.6883412 83.1746706,47.5875295 83.1865772,45.1812081 L83.1865772,45.1812081 Z" id="Path" fill="#F3F7F8"></path>
            <path d="M172.618793,45.1812081 C172.620377,43.0182909 171.316506,41.0682335 169.317107,40.2432387 C167.317708,39.4182439 165.018084,39.8814224 163.49396,41.4161074 C162.144862,42.7691609 161.620091,44.7391687 162.117321,46.584048 C162.614551,48.4289273 164.058242,49.868397 165.904569,50.3602226 C167.750896,50.8520483 169.719359,50.32151 171.068456,48.9684564 C172.061727,47.9580878 172.618469,46.5980467 172.618793,45.1812081 Z" id="Path" fill="#F3F7F8"></path>
            <path d="M73.9067812,63.652349 C73.9067812,61.6794129 72.3138381,60.0766081 70.3409396,60.0644295 C68.3693711,60.08833 66.7769206,61.6807805 66.7530201,63.652349 C66.7651988,65.6252475 68.3680035,67.2181906 70.3409396,67.2181906 C71.2884498,67.2240615 72.1988735,66.850291 72.8688776,66.180287 C73.5388816,65.5102829 73.9126521,64.5998592 73.9067812,63.652349 L73.9067812,63.652349 Z" id="Path" fill="#F3F7F8"></path>
            <path d="M72.1348993,72.1791946 C72.2408237,70.8341205 71.5831889,69.5433378 70.4327852,68.8383443 C69.2823816,68.1333508 67.8337258,68.1333508 66.6833222,68.8383443 C65.5329185,69.5433378 64.8752837,70.8341205 64.9812081,72.1791946 C64.981797,73.1251178 65.355909,74.0325383 66.0221477,74.7040268 C67.4280385,76.0915963 69.6880689,76.0915963 71.0939597,74.7040268 C71.7601984,74.0325383 72.1343104,73.1251178 72.1348993,72.1791946 Z" id="Path" fill="#F3F7F8"></path>
            <path d="M71.5812081,81.0825503 C71.5803151,79.6349098 70.7095421,78.3296227 69.3732583,77.7728378 C68.0369744,77.2160529 66.4969956,77.51686 65.4684564,78.5355705 C64.8008942,79.2152048 64.4270621,80.1299004 64.427447,81.0825503 C64.4215761,82.0300605 64.7953466,82.9404843 65.4653506,83.6104883 C66.1353547,84.2804924 67.0457784,84.6542628 67.9932886,84.6483919 C69.9662247,84.6483919 71.5690294,83.0554489 71.5812081,81.0825503 L71.5812081,81.0825503 Z" id="Path" fill="#F3F7F8"></path>
            <path d="M72.688627,90.0966443 C72.6928774,89.1497604 72.3180258,88.240546 71.647651,87.5718121 C70.2417602,86.1842426 67.9817298,86.1842426 66.5758389,87.5718121 C65.1908712,88.970143 65.1908712,91.2231456 66.5758389,92.6214765 C67.2456963,93.2991189 68.1589029,93.6804757 69.111745,93.6804757 C70.064587,93.6804757 70.9777937,93.2991189 71.647651,92.6214765 C72.3180258,91.9527426 72.6928774,91.0435281 72.688627,90.0966443 Z" id="Path" fill="#F3F7F8"></path>
            <path d="M75.1248322,99 C75.2307566,97.6549259 74.5731217,96.3641431 73.4227181,95.6591497 C72.2723145,94.9541562 70.8236587,94.9541562 69.673255,95.6591497 C68.5228514,96.3641431 67.8652166,97.6549259 67.9711409,99 C67.9652003,99.9475102 68.3389707,100.857934 69.0089748,101.527938 C69.6789788,102.197942 70.5894026,102.571712 71.5369128,102.565842 C72.4895627,102.566226 73.4042583,102.192394 74.0838926,101.524832 C74.7501313,100.853344 75.1242433,99.9459231 75.1248322,99 L75.1248322,99 Z" id="Path" fill="#F3F7F8"></path>
            <path d="M79.1335934,107.238926 C79.1378439,106.292042 78.7629923,105.382828 78.0926174,104.714094 C77.0669476,103.69816 75.5322865,103.395903 74.1979784,103.947031 C72.8636702,104.498158 71.9896352,105.795311 71.9798658,107.238926 C71.9896352,108.682541 72.8636702,109.979694 74.1979784,110.530822 C75.5322865,111.081949 77.0669476,110.779692 78.0926174,109.763758 C78.7588561,109.09227 79.1329681,108.184849 79.1335934,107.238926 Z" id="Path" fill="#F3F7F8"></path>
            <path d="M84.3161782,115.034899 C84.322177,114.083273 83.9379541,113.170744 83.2530201,112.510067 C82.5842863,111.839692 81.6750718,111.464841 80.7281879,111.469091 C79.7822648,111.469716 78.8748443,111.843828 78.2033557,112.510067 C77.1874222,113.535737 76.8851652,115.070398 77.4362924,116.404706 C77.9874197,117.739014 79.284573,118.613049 80.7281879,118.622819 C82.6997564,118.598918 84.292207,117.006468 84.3161782,115.034899 L84.3161782,115.034899 Z" id="Path" fill="#F3F7F8"></path>
            <path d="M170.647581,63.652349 C170.647581,61.6794129 172.240524,60.0766081 174.213423,60.0644295 C176.184991,60.08833 177.777442,61.6807805 177.801342,63.652349 C177.789164,65.6252475 176.186359,67.2181906 174.213423,67.2181906 C173.265913,67.2240615 172.355489,66.850291 171.685485,66.180287 C171.015481,65.5102829 170.64171,64.5998592 170.647581,63.652349 Z" id="Path" fill="#F3F7F8"></path>
            <path d="M172.419463,72.1791946 C172.313539,70.8341205 172.971174,69.5433378 174.121577,68.8383443 C175.271981,68.1333508 176.720637,68.1333508 177.87104,68.8383443 C179.021444,69.5433378 179.679079,70.8341205 179.573154,72.1791946 C179.579095,73.1267048 179.205325,74.0371286 178.535321,74.7071326 C177.865316,75.3771366 176.954893,75.7509071 176.007383,75.7450362 C175.054733,75.7454211 174.140037,75.371589 173.460403,74.7040268 C172.794164,74.0325383 172.420052,73.1251178 172.419463,72.1791946 L172.419463,72.1791946 Z" id="Path" fill="#F3F7F8"></path>
            <path d="M172.973154,81.0825503 C172.98097,80.1272357 173.362578,79.2129661 174.036242,78.5355705 C175.434573,77.1506027 177.687575,77.1506027 179.085906,78.5355705 C179.753468,79.2152048 180.1273,80.1299004 180.126846,81.0825503 C180.126257,82.0284735 179.752145,82.935894 179.085906,83.6073826 C177.687575,84.9923503 175.434573,84.9923503 174.036242,83.6073826 C173.36391,82.9381382 172.98202,82.0311488 172.973154,81.0825503 Z" id="Path" fill="#F3F7F8"></path>
            <path d="M171.865735,90.0966443 C171.861485,89.1497604 172.236337,88.240546 172.906711,87.5718121 C173.586346,86.9042499 174.501041,86.5304178 175.453691,86.5308721 C176.399614,86.5314614 177.307035,86.9055734 177.978523,87.5718121 C179.363491,88.970143 179.363491,91.2231456 177.978523,92.6214765 C177.309279,93.293808 176.40229,93.6756982 175.453691,93.6845638 C174.498377,93.676748 173.584107,93.2951399 172.906711,92.6214765 C172.236337,91.9527426 171.861485,91.0435281 171.865735,90.0966443 Z" id="Path" fill="#F3F7F8"></path>
            <path d="M169.42953,99 C169.323606,97.6549259 169.981241,96.3641431 171.131644,95.6591497 C172.282048,94.9541562 173.730704,94.9541562 174.881107,95.6591497 C176.031511,96.3641431 176.689146,97.6549259 176.583221,99 C176.589162,99.9475102 176.215392,100.857934 175.545388,101.527938 C174.875384,102.197942 173.96496,102.571712 173.01745,102.565842 C172.0648,102.566226 171.150104,102.192394 170.47047,101.524832 C169.804231,100.853344 169.430119,99.9459231 169.42953,99 Z" id="Path" fill="#F3F7F8"></path>
            <path d="M165.420736,107.238926 C165.420736,105.26599 167.013679,103.663185 168.986577,103.651007 C170.958146,103.674907 172.550596,105.267358 172.574497,107.238926 C172.526411,109.185798 170.934043,110.738849 168.986577,110.738325 C168.039067,110.744196 167.128643,110.370425 166.458639,109.700421 C165.788635,109.030417 165.414865,108.119993 165.420736,107.172483 L165.420736,107.238926 Z" id="Path" fill="#F3F7F8"></path>
            <path d="M160.238255,115.034899 C160.227231,113.405893 161.315052,111.973906 162.887348,111.547683 C164.459645,111.12146 166.121759,111.807985 166.934977,113.21953 C167.748196,114.631075 167.508395,116.41333 166.351007,117.559732 C165.687983,118.241672 164.777302,118.626413 163.826174,118.626413 C162.875047,118.626413 161.964366,118.241672 161.301342,117.559732 C160.624923,116.893251 160.242287,115.984491 160.238255,115.034899 Z" id="Path" fill="#F3F7F8"></path>
            <g id="Group" transform="translate(55.369128, 150.604027)">
                <rect id="Rectangle" fill="#023852" x="65.490604" y="2.08187919" width="1" height="165.908054"></rect>
                <rect id="Rectangle" fill="#033953" x="64.5161074" y="2.08187919" width="1" height="165.908054"></rect>
                <rect id="Rectangle" fill="#043A53" x="63.5416107" y="2.08187919" width="1" height="165.908054"></rect>
                <rect id="Rectangle" fill="#053A54" x="62.5449664" y="2.08187919" width="1" height="165.908054"></rect>
                <rect id="Rectangle" fill="#063B55" x="61.5704698" y="2.08187919" width="1" height="165.908054"></rect>
                <rect id="Rectangle" fill="#073C56" x="60.5738255" y="2.08187919" width="1" height="165.908054"></rect>
                <rect id="Rectangle" fill="#083D56" x="59.5993289" y="2.08187919" width="1" height="165.908054"></rect>
                <rect id="Rectangle" fill="#093E57" x="58.6248322" y="2.08187919" width="1" height="165.908054"></rect>
                <rect id="Rectangle" fill="#0A3E58" x="57.6281879" y="2.08187919" width="1" height="165.908054"></rect>
                <rect id="Rectangle" fill="#0B3F58" x="56.6536913" y="2.08187919" width="1" height="165.908054"></rect>
                <rect id="Rectangle" fill="#0C4059" x="55.6791946" y="2.08187919" width="1" height="165.908054"></rect>
                <rect id="Rectangle" fill="#0D415A" x="54.6825503" y="2.08187919" width="1" height="165.908054"></rect>
                <rect id="Rectangle" fill="#0E425A" x="53.7080537" y="2.08187919" width="1" height="165.908054"></rect>
                <rect id="Rectangle" fill="#0F425B" x="52.7114094" y="2.08187919" width="1" height="165.908054"></rect>
                <rect id="Rectangle" fill="#10435C" x="51.7369128" y="2.08187919" width="1" height="165.908054"></rect>
                <rect id="Rectangle" fill="#11445D" x="50.7624161" y="2.08187919" width="1" height="165.908054"></rect>
                <rect id="Rectangle" fill="#12455D" x="49.7657718" y="2.08187919" width="1" height="165.908054"></rect>
                <rect id="Rectangle" fill="#13465E" x="48.7912752" y="2.08187919" width="1" height="165.908054"></rect>
                <rect id="Rectangle" fill="#14465F" x="47.8167785" y="2.08187919" width="1" height="165.908054"></rect>
                <rect id="Rectangle" fill="#15475F" x="46.8201342" y="2.08187919" width="1" height="165.908054"></rect>
                <rect id="Rectangle" fill="#164860" x="45.8456376" y="2.08187919" width="1" height="165.908054"></rect>
                <rect id="Rectangle" fill="#174961" x="44.8489933" y="2.08187919" width="1" height="165.908054"></rect>
                <rect id="Rectangle" fill="#184A61" x="43.8744966" y="2.08187919" width="1" height="165.908054"></rect>
                <rect id="Rectangle" fill="#194A62" x="42.9" y="2.08187919" width="1" height="165.908054"></rect>
                <rect id="Rectangle" fill="#1A4B63" x="41.9033557" y="2.08187919" width="1" height="165.908054"></rect>
                <rect id="Rectangle" fill="#1C4C64" x="40.9288591" y="2.08187919" width="1" height="165.908054"></rect>
                <rect id="Rectangle" fill="#1D4D64" x="39.9543624" y="2.08187919" width="1" height="165.908054"></rect>
                <rect id="Rectangle" fill="#1E4E65" x="38.9577181" y="2.08187919" width="1" height="165.908054"></rect>
                <rect id="Rectangle" fill="#1F4E66" x="37.9832215" y="2.08187919" width="1" height="165.908054"></rect>
                <rect id="Rectangle" fill="#204F66" x="36.9865772" y="2.08187919" width="1" height="165.908054"></rect>
                <rect id="Rectangle" fill="#215067" x="36.0120805" y="2.08187919" width="1" height="165.908054"></rect>
                <rect id="Rectangle" fill="#225168" x="35.0375839" y="2.08187919" width="1" height="165.908054"></rect>
                <rect id="Rectangle" fill="#235268" x="34.0409396" y="2.08187919" width="1" height="165.908054"></rect>
                <rect id="Rectangle" fill="#245269" x="33.066443" y="2.08187919" width="1" height="165.908054"></rect>
                <rect id="Rectangle" fill="#25536A" x="32.0919463" y="2.08187919" width="1" height="165.908054"></rect>
                <rect id="Rectangle" fill="#26546B" x="31.095302" y="2.08187919" width="1" height="165.908054"></rect>
                <rect id="Rectangle" fill="#27556B" x="30.1208054" y="2.08187919" width="1" height="165.908054"></rect>
                <rect id="Rectangle" fill="#28566C" x="29.1463087" y="2.08187919" width="1" height="165.908054"></rect>
                <rect id="Rectangle" fill="#29566D" x="28.1496644" y="2.08187919" width="1" height="165.908054"></rect>
                <rect id="Rectangle" fill="#2A576D" x="27.1751678" y="2.08187919" width="1" height="165.908054"></rect>
                <rect id="Rectangle" fill="#2B586E" x="26.1785235" y="2.08187919" width="1" height="165.908054"></rect>
                <rect id="Rectangle" fill="#2C596F" x="25.2040268" y="2.08187919" width="1" height="165.908054"></rect>
                <rect id="Rectangle" fill="#2D5A6F" x="24.2295302" y="2.08187919" width="1" height="165.908054"></rect>
                <rect id="Rectangle" fill="#2E5A70" x="23.2328859" y="2.08187919" width="1" height="165.908054"></rect>
                <rect id="Rectangle" fill="#2F5B71" x="22.2583893" y="2.08187919" width="1" height="165.908054"></rect>
                <rect id="Rectangle" fill="#305C72" x="21.2838926" y="2.08187919" width="1" height="165.908054"></rect>
                <rect id="Rectangle" fill="#315D72" x="20.2872483" y="2.08187919" width="1" height="165.908054"></rect>
                <rect id="Rectangle" fill="#325E73" x="19.3127517" y="2.08187919" width="1" height="165.908054"></rect>
                <rect id="Rectangle" fill="#335E74" x="18.3161074" y="2.08187919" width="1" height="165.908054"></rect>
                <rect id="Rectangle" fill="#345F74" x="17.3416107" y="2.08187919" width="1" height="165.908054"></rect>
                <rect id="Rectangle" fill="#356075" x="16.3671141" y="2.08187919" width="1" height="165.908054"></rect>
                <rect id="Rectangle" fill="#356075" x="0.310067114" y="2.08187919" width="16.0348993" height="165.908054"></rect>
            </g>
            <path d="M176.163017,205.242282 L176.163017,205.973154 C176.180248,206.959686 175.800789,207.911981 175.109367,208.615898 C174.417946,209.319816 173.472599,209.716269 172.485906,209.716107 L155.188591,209.716107 L152.397987,212.61745 L149.563087,215.430201 L136.473826,218.420134 L123.384564,221.432215 L120.483221,221.432215 L107.39396,218.420134 L94.304698,215.430201 L91.4919463,212.61745 L88.590604,209.69396 L67.7496644,209.69396 C67.0280123,209.689486 66.3366311,209.403397 65.8228188,208.896644 C65.3234875,208.388729 65.0448995,207.704198 65.0476308,206.991946 L65.0476308,204.555705 L97.8040268,204.555705 L109.808054,207.169128 L121.812081,209.760403 L135.100671,207.169128 L148.389262,204.555705 L176.007383,204.555705 L176.163017,205.242282 Z M176.162416,224.931544 L148.544295,224.931544 L135.255705,227.544966 L121.967114,230.136242 L109.963087,227.544966 L97.9590604,224.931544 L65.0474564,224.931544 L65.0474564,227.345638 C65.0390157,228.065542 65.3180428,228.759124 65.8228188,229.272483 C66.3366311,229.779236 67.0280123,230.065325 67.7496644,230.069799 L88.590604,230.069799 L91.4255034,232.88255 L94.238255,235.71745 L107.327517,238.707383 L120.416779,241.719463 L123.318121,241.719463 L136.407383,238.707383 L149.496644,235.71745 L152.331544,232.88255 L155.144295,230.069799 L172.441611,230.069799 C173.432227,230.070086 174.381042,229.670604 175.073126,228.961843 C175.765209,228.253083 176.141991,227.295027 176.118121,226.304698 L176.118121,224.931544 L176.162416,224.931544 Z M176.162416,245.927517 L148.544295,245.927517 L135.255705,248.54094 L121.967114,251.154362 L109.963087,248.54094 L97.8040268,245.838926 L65.0475586,245.838926 L65.0475586,248.275168 C65.0416886,248.993598 65.3244492,249.684335 65.8324732,250.192359 C66.3404973,250.700383 67.0312347,250.983144 67.7496644,250.977181 L88.590604,250.977181 L91.4255034,253.812081 L94.238255,256.624832 L107.327517,259.636913 L120.416779,262.626846 L123.318121,262.626846 L136.407383,259.636913 L149.496644,256.624832 L152.331544,253.812081 L155.144295,250.977181 L172.441611,250.977181 C173.428304,250.977342 174.37365,250.580889 175.065072,249.876972 C175.756494,249.173055 176.135953,248.22076 176.118121,247.234228 L176.118121,245.838926 L176.162416,245.927517 Z" id="Shape" fill="#0A0C10"></path>
            <path d="M125.665772,77.804698 C125.67047,77.2982135 125.470875,76.8112033 125.112081,76.4536913 C124.567204,75.9054002 123.744989,75.7407906 123.031029,76.0370595 C122.31707,76.3333284 121.852969,77.0317155 121.856357,77.804698 C121.856566,78.3102309 122.055422,78.7954399 122.410067,79.1557047 C123.159847,79.8930074 124.362301,79.8930074 125.112081,79.1557047 C125.475242,78.8011205 125.675635,78.3121615 125.665772,77.804698 L125.665772,77.804698 Z" id="Path" fill="#FFFFFF"></path>
        </g>
    </g>
</svg>