<?xml version="1.0" encoding="UTF-8"?>
<svg width="440px" height="330px" viewBox="0 0 440 330" version="1.1" xmlns="http://www.w3.org/2000/svg" xmlns:xlink="http://www.w3.org/1999/xlink">
    <title>Graphic elements / Icons / Rich icons / booking</title>
    <defs>
        <path d="M24.8510357,284.138973 L7.97583082,284.138973 L15.1216951,317.216245 C15.187072,317.463046 15.3306876,317.681255 15.5304508,317.837307 C15.9235787,318.106598 16.438887,318.106598 16.8320149,317.837307 C17.0362056,317.685491 17.1809567,317.465557 17.2407706,317.216245 L24.8510357,284.138973 Z" id="path-1"></path>
    </defs>
    <g id="Graphic-elements-/-Icons-/-Rich-icons-/-booking" stroke="none" stroke-width="1" fill="none" fill-rule="evenodd">
        <g id="Booking" transform="translate(1.000000, 0.000000)">
            <polygon id="Path" fill="#023852" fill-rule="nonzero" opacity="0.2" style="mix-blend-mode: multiply;" points="251.238671 330 148.045894 330 44.8640483 330 44.8640483 196.903323 44.8640483 63.8066465 148.045894 63.8066465 251.238671 63.8066465 251.238671 196.903323"></polygon>
            <polygon id="Path" fill="#F9F9F9" fill-rule="nonzero" points="254.229607 318.036254 154.537192 318.036254 54.8338369 318.036254 54.8338369 185.438066 54.8338369 52.8398792 154.537192 52.8398792 254.229607 52.8398792 254.229607 185.438066"></polygon>
            <polygon id="Path" fill="#023852" fill-rule="nonzero" points="198.398792 92.7190332 141.570997 92.7190332 84.7432024 92.7190332 84.7432024 88.2377557 84.7432024 83.7462236 141.570997 83.7462236 198.398792 83.7462236 198.398792 88.2377557"></polygon>
            <polygon id="Path" fill="#023852" fill-rule="nonzero" points="198.398792 112.65861 141.570997 112.65861 84.7432024 112.65861 84.7432024 108.167078 84.7432024 103.685801 141.570997 103.685801 198.398792 103.685801 198.398792 108.167078"></polygon>
            <polygon id="Path" fill="#023852" fill-rule="nonzero" points="198.398792 132.598187 141.570997 132.598187 84.7432024 132.598187 84.7432024 128.106655 84.7432024 123.625378 141.570997 123.625378 198.398792 123.625378 198.398792 128.106655"></polygon>
            <polygon id="Path" fill="#023852" fill-rule="nonzero" points="198.398792 152.537764 141.570997 152.537764 84.7432024 152.537764 84.7432024 148.056487 84.7432024 143.564955 141.570997 143.564955 198.398792 143.564955 198.398792 148.056487"></polygon>
            <polygon id="Path" fill="#023852" fill-rule="nonzero" points="117.643505 216.344411 101.193353 216.344411 84.7432024 216.344411 84.7432024 211.863133 84.7432024 207.371601 101.193353 207.371601 117.643505 207.371601 117.643505 211.863133"></polygon>
            <polygon id="Path" fill="#023852" fill-rule="nonzero" points="117.643505 236.283988 101.193353 236.283988 84.7432024 236.283988 84.7432024 231.80271 84.7432024 227.311178 101.193353 227.311178 117.643505 227.311178 117.643505 231.80271"></polygon>
            <polygon id="Path" fill="#023852" fill-rule="nonzero" points="117.643505 256.223565 101.193353 256.223565 84.7432024 256.223565 84.7432024 251.732033 84.7432024 247.250755 101.193353 247.250755 117.643505 247.250755 117.643505 251.732033"></polygon>
            <polygon id="Path" fill="#023852" fill-rule="nonzero" points="117.643505 276.163142 101.193353 276.163142 84.7432024 276.163142 84.7432024 271.681864 84.7432024 267.190332 101.193353 267.190332 117.643505 267.190332 117.643505 271.681864"></polygon>
            <polygon id="Path" fill="#023852" fill-rule="nonzero" points="194.410876 216.344411 163.499033 216.344411 132.598187 216.344411 132.598187 211.863133 132.598187 207.371601 163.499033 207.371601 194.410876 207.371601 194.410876 211.863133"></polygon>
            <polygon id="Path" fill="#023852" fill-rule="nonzero" points="194.410876 236.283988 163.499033 236.283988 132.598187 236.283988 132.598187 231.80271 132.598187 227.311178 163.499033 227.311178 194.410876 227.311178 194.410876 231.80271"></polygon>
            <polygon id="Path" fill="#023852" fill-rule="nonzero" points="194.410876 256.223565 163.499033 256.223565 132.598187 256.223565 132.598187 251.732033 132.598187 247.250755 163.499033 247.250755 194.410876 247.250755 194.410876 251.732033"></polygon>
            <polygon id="Path" fill="#023852" fill-rule="nonzero" points="194.410876 276.163142 163.499033 276.163142 132.598187 276.163142 132.598187 271.681864 132.598187 267.190332 163.499033 267.190332 194.410876 267.190332 194.410876 271.681864"></polygon>
            <path d="M0.0107935032,107.535737 L0.0107935032,113.575877 C0.0104958656,113.864235 0.0321466746,114.15219 0.0755545227,114.437196 C0.114902068,114.717872 0.176258199,114.994947 0.259044078,115.265807 C0.333560684,115.528441 0.431087552,115.783848 0.550468665,116.029002 C0.66713658,116.275721 0.796845639,116.515928 0.939034782,116.748585 L0,116.748585 L0,158.767898 L0,200.787211 L0,242.806523 L0,284.825836 L0,284.825836 L2.05076562,292.839379 L4.02597671,300.852922 L6.06594882,308.866465 L8.10592093,316.890911 L8.10592093,316.890911 L8.10592093,316.956327 L8.10592093,317.021744 L8.10592093,317.087161 L8.10592093,317.207091 C8.17152131,317.45405 8.31562788,317.672398 8.51607406,317.82855 C8.7042458,317.966208 8.93136854,318.038858 9.16368425,318.036254 C9.66856811,318.051839 10.1170031,317.712108 10.2430346,317.217994 L11.1820694,313.75091 L12.1211041,310.283826 L13.0709324,306.816742 L14.0099672,303.338756 L13.9452062,303.447783 L13.8804452,303.545909 L13.8156841,303.644034 L13.7509231,303.742159 L15.03535,299.010352 L16.3845379,294.311254 L17.6581713,289.590351 L18.9425982,284.858544 L18.9425982,284.858544 L18.9425982,242.850134 L18.9425982,200.787211 L18.9425982,158.767898 L18.9425982,116.759488 L17.8200739,116.759488 C17.962263,116.526831 18.0919721,116.286624 18.20864,116.039905 C18.3280435,115.790994 18.4255601,115.531965 18.5000646,115.265807 C18.587571,114.999269 18.6525645,114.725722 18.6943476,114.448099 C18.7287821,114.162285 18.7468015,113.874697 18.7483151,113.586779 L18.7483151,107.546639 C18.7511291,105.992987 18.1413534,104.502154 17.0537351,103.403583 C16.5245921,102.874046 15.9023219,102.448837 15.2188396,102.149764 C14.5084378,101.846672 13.7449603,101.691843 12.9737909,101.691843 L5.79611124,101.691843 C5.02145359,101.691843 4.25445154,101.846661 3.54026906,102.149764 C2.15757897,102.747583 1.05594868,103.860367 0.464120639,105.257056 C0.164056278,105.978469 0.00992189535,106.753236 0.0107935032,107.535737 Z" id="Path" fill="#023852" fill-rule="nonzero" opacity="0.2" style="mix-blend-mode: multiply;"></path>
            <use id="Path" fill="#D7D4CD" fill-rule="nonzero" xlink:href="#path-1"></use>
            <path d="M13,318.036254 L18.7816974,318.039275 L20.9758308,303.081571 L20.7678561,303.423958 L20.5598814,303.7553 L20.3623054,304.141866 L20.1231344,304.451119 L19.8423685,304.793506 C19.7436452,304.902423 19.6395091,305.005654 19.5304065,305.102759 C19.4217911,305.201103 19.303209,305.286304 19.1768494,305.356788 C19.0528073,305.433438 18.9200012,305.49283 18.7816974,305.533504 C18.6302245,305.560281 18.475626,305.560281 18.324153,305.533504 C18.1796388,305.513279 18.0370078,305.480025 17.8978048,305.434101 L17.4714567,305.29052 C17.328081,305.252254 17.1820201,305.226398 17.0347097,305.213207 C16.8090565,305.19891 16.5845329,305.256605 16.3899881,305.378878 C16.2368726,305.497372 16.1121875,305.652506 16.0260323,305.831712 C15.9324437,306.008428 15.8492538,306.207233 15.7660639,306.406039 C15.6788109,306.605046 15.5668997,306.79077 15.4333043,306.958276 C15.3353306,307.072917 15.2234285,307.1732 15.1005448,307.256484 C14.9759389,307.334746 14.8433734,307.397736 14.7053928,307.444245 C14.5676044,307.49785 14.424597,307.534897 14.2790446,307.554692 L13.8422976,307.554692 L13.4159495,307.554692 L13.2079747,307.554692 L13,307.554692 L13,318.036254 Z" id="Path" fill="#023852" fill-rule="nonzero" mask="url(#mask-2)"></path>
            <path d="M6.97885196,112.724839 L6.97885196,106.610538 C6.97289288,105.040421 7.58969163,103.533531 8.69103095,102.427651 C9.22173798,101.886806 9.85142247,101.455713 10.5449357,101.158437 C11.266517,100.851613 12.0414651,100.694006 12.824148,100.694864 L20.0870926,100.694864 C20.8675324,100.692185 21.6399969,100.8538 22.3553996,101.169473 C23.7524141,101.774633 24.8654571,102.901079 25.4634164,104.314917 C25.7665894,105.045187 25.9223206,105.829467 25.9214502,106.621575 L25.9214502,112.724839 C25.9243358,114.292749 25.310926,115.797445 24.2164596,116.907161 C23.1219932,118.016877 21.636349,118.640483 20.0870926,118.640483 L12.8132427,118.640483 C12.0305597,118.641371 11.2556117,118.483764 10.5340304,118.176941 C9.8449166,117.871528 9.21665748,117.441411 8.68012562,116.907727 C8.16250162,116.367806 7.74836018,115.735371 7.45872954,115.042534 C7.1466427,114.310411 6.98345324,113.522173 6.97885196,112.724839 L6.97885196,112.724839 Z" id="Path" fill="#023852" fill-rule="nonzero"></path>
            <polygon id="Path" fill="#877E78" fill-rule="nonzero" points="16.0291141 115.649547 16.0089957 157.771903 15.9888773 199.89426 15.9687589 242.016616 15.9486405 284.128043 18.1717245 284.138973 20.3948085 284.138973 22.6178925 284.138973 24.8510357 284.138973 24.8711541 242.016616 24.8812133 199.89426 24.9013317 157.771903 24.9214502 115.649547 22.6983661 115.649547 20.4752821 115.649547 18.2521981 115.649547"></polygon>
            <polygon id="Path" fill="#B7B2A9" fill-rule="nonzero" points="8.05630445 115.649547 8.03618604 157.771903 8.01606763 199.89426 7.99594922 242.016616 7.97583082 284.138973 10.1989148 284.138973 12.4219988 284.138973 14.6450828 284.138973 16.8681669 284.138973 16.8882853 242.027546 16.9084037 199.905189 16.9285221 157.782833 16.9486405 115.660476 14.7255565 115.660476 12.5024725 115.649547 10.2793885 115.649547"></polygon>
        </g>
        <g id="Group" transform="translate(229.000000, 0.000000)" fill-rule="nonzero">
            <path d="M195.076476,27.6096846 L172.575022,27.6096846 L172.575022,14.068503 C172.586252,12.1983869 171.845464,10.4024238 170.5196,9.08534813 C169.883459,8.4499696 169.130332,7.94412582 168.301909,7.59581815 C166.573495,6.86137237 164.621319,6.86137237 162.892906,7.59581815 C161.20978,8.30663276 159.870528,9.64773404 159.160693,11.3331843 C158.803629,12.1913227 158.619793,13.1117707 158.619793,14.0414206 L158.619793,27.5826023 L44.625047,27.5826023 L44.625047,14.0414206 C44.6362771,12.1713046 43.8954892,10.3753414 42.5696258,9.05826577 C41.9334846,8.42288724 41.1803575,7.91704346 40.3519344,7.56873578 C39.4998752,7.1924624 38.5786655,7 37.6474327,7 C36.7166067,7 35.7961878,7.19620494 34.942931,7.56873578 C33.259805,8.27955039 31.9205531,9.62065168 31.2107187,11.3061019 C30.8536541,12.1642403 30.6698183,13.0846883 30.6698183,14.0143383 L30.6698183,27.5555199 L6.92429356,27.5555199 C5.54893347,27.5550737 4.20387459,27.9600904 3.05685615,28.7200615 C2.32507119,29.2223964 1.69239218,29.8559491 1.19074999,30.5887446 C0.401170573,31.744478 -0.0142762505,33.1154547 0.000374575766,34.5156873 L0.000374575766,291.066915 C0.000374575766,294.895952 3.10053667,298 6.92429356,298 L195.076476,298 C198.900233,298 202,294.895952 202,291.066915 L202,34.5156873 C201.985105,30.6972307 198.889696,27.6096555 195.076476,27.6096846 Z M158.538658,47.4068922 L158.538658,50.6026111 C158.527428,52.4727272 159.268216,54.2686903 160.594079,55.5857659 C161.221685,56.2381769 161.976544,56.7544023 162.811771,57.1023783 C164.547224,57.8013082 166.485321,57.8013082 168.220774,57.1023783 C169.056,56.7544023 169.810859,56.2381769 170.438465,55.5857659 C171.794152,54.28229 172.564918,52.4846081 172.575022,50.6026111 L172.575022,48.436022 C173.985066,50.1429414 174.75939,52.2872389 174.765668,54.5024714 C174.803854,58.9727034 171.793057,62.8929245 167.468763,64.0034378 C163.14447,65.113951 158.621236,63.1285292 156.506349,59.1916107 C154.391462,55.2546922 155.230019,50.380991 158.538658,47.3798099 L158.538658,47.4068922 Z M30.5886833,47.244398 L30.5886833,50.6026111 C30.5774532,52.4727272 31.3182411,54.2686903 32.6441046,55.5857659 C33.2717107,56.2381769 34.0265697,56.7544023 34.861796,57.1023783 C35.7205604,57.4539607 36.6385545,57.6378131 37.5662976,57.6440256 C38.494385,57.6412101 39.4130219,57.457229 40.2707993,57.1023783 C41.1060255,56.7544023 41.8608846,56.2381769 42.4884907,55.5857659 C43.8441773,54.28229 44.6149438,52.4846081 44.625047,50.6026111 L44.625047,48.7068457 C45.9170357,50.3726029 46.6208841,52.4203916 46.6263783,54.5295538 C46.8158435,58.1206082 45.0104195,61.523127 41.9325042,63.3756722 C38.8545889,65.2282173 35.0068906,65.2282173 31.9289753,63.3756722 C28.85106,61.523127 27.045636,58.1206082 27.2351012,54.5295538 C27.2285768,51.7254502 28.4552483,49.0606897 30.5886833,47.244398 L30.5886833,47.244398 Z" id="Shape" fill="#023852" opacity="0.2" style="mix-blend-mode: multiply;"></path>
            <path d="M11.69,21.31 C11.1444812,21.6756939 10.6756939,22.1444812 10.31,22.69 C10.6756939,22.1444812 11.1444812,21.6756939 11.69,21.31 L11.69,21.31 Z" id="Path" fill="#CAD3D6"></path>
            <path d="M9,283.069026 C9,286.896897 12.1018557,290 15.9281886,290 L204.071811,290 C207.898144,290 211,286.896897 211,283.069026 L211,88 L9,88 L9,283.069026 Z" id="Path" fill="#EBEFF2"></path>
            <path d="M15,20.55 C13.5719996,20.5626909 12.1808274,20.8757046 11,21.45 C12.1839434,20.8827815 13.5748765,20.5767763 15,20.57 L15,20.55 Z" id="Path" fill="#CAD3D6"></path>
            <path d="M204.071821,20 L15.7931304,20 C14.4115266,20.0170955 13.0655543,20.4387463 11.9230927,21.2123613 C10.0767948,22.5201324 8.98618336,24.6412716 9.0001322,26.8969889 L9.0001322,88 L211,88 L211,26.8969889 C211,23.0878871 207.898148,20 204.071821,20 Z M45.8062205,56.4517017 C41.8741315,56.4517017 38.3297385,54.0922284 36.827534,50.4747599 C35.3253294,46.8572915 36.1615348,42.6951083 38.9458167,39.931082 C41.7300986,37.1670556 45.9134209,36.346228 49.5430444,37.8517544 C53.1726679,39.3572808 55.5328625,42.8922845 55.5219476,46.8066561 C55.5219476,49.369346 54.4974425,51.8266832 52.6746152,53.6362495 C50.8517879,55.4458158 48.3804897,56.4588224 45.8062205,56.4517017 Z M174.05873,56.4517017 C170.124197,56.4625593 166.571499,54.1100672 165.060758,50.4934713 C163.550017,46.8768755 164.379529,42.7102721 167.161675,39.9406512 C169.943821,37.1710303 174.129267,36.3452531 177.762219,37.8491927 C181.39517,39.3531322 183.758301,42.8898358 183.747394,46.8066561 C183.747394,52.1229433 179.426102,56.4368141 174.085794,56.4517017 L174.05873,56.4517017 Z" id="Shape" fill="#0099DA"></path>
            <polygon id="Path" fill="#CED3D7" points="75 152 63 152 51 152 39 152 27 152 27 139.993344 27 127.986689 27 116.006656 27 104 39 104 51 104 63 104 75 104 75 116.006656 75 127.986689 75 139.993344"></polygon>
            <polygon id="Path" fill="#CED3D7" points="134 152 122 152 110 152 98 152 86 152 86 139.993344 86 127.986689 86 116.006656 86 104 98 104 110 104 122 104 134 104 134 116.006656 134 127.986689 134 139.993344"></polygon>
            <polygon id="Path" fill="#CED3D7" points="192 152 180 152 168 152 156 152 144 152 144 139.993344 144 127.986689 144 116.006656 144 104 156 104 168 104 180 104 192 104 192 116.006656 192 127.986689 192 139.993344"></polygon>
            <polygon id="Path" fill="#CED3D7" points="75 210 63 210 51 210 39 210 27 210 27 198.013319 27 186 27 174.013319 27 162 39 162 51 162 63 162 75 162 75 174.013319 75 186 75 198.013319"></polygon>
            <polygon id="Path" fill="#CED3D7" points="134 210 122 210 110 210 98 210 86 210 86 198.013319 86 186 86 174.013319 86 162 98 162 110 162 122 162 134 162 134 174.013319 134 186 134 198.013319"></polygon>
            <polygon id="Path" fill="#CED3D7" points="192 210 180 210 168 210 156 210 144 210 144 198.013319 144 186 144 174.013319 144 162 156 162 168 162 180 162 192 162 192 174.013319 192 186 192 198.013319"></polygon>
            <polygon id="Path" fill="#50BFEE" points="75 271 63 271 51 271 39 271 27 271 27 258.986681 27 247 27 234.986681 27 223 39 223 51 223 63 223 75 223 75 234.986681 75 247 75 258.986681"></polygon>
            <polygon id="Path" fill="#023852" points="47.9863014 257 45.739726 254.742029 43.4931507 252.484058 41.2465753 250.226087 39 247.968116 39.4657534 247.5 39.9315068 247.031884 40.3972603 246.563768 40.8630137 246.095652 42.6438356 247.885507 44.4246575 249.675362 46.2054795 251.465217 47.9863014 253.255072 51.7671233 249.455072 55.5479452 245.627536 59.3561644 241.827536 63.1369863 238 63.6027397 238.468116 64.0684932 238.936232 64.5342466 239.404348 65 239.872464 60.7534247 244.168116 56.4794521 248.436232 52.2328767 252.731884"></polygon>
            <path d="M46.0270684,51 L46.0270684,51 C45.0957305,51 44.1736111,50.814219 43.3139146,50.4533762 C41.616616,49.7256799 40.2650113,48.3641292 39.5426308,46.6543408 C39.1844239,45.7883181 39,44.8594132 39,43.9212219 L39,7.10610932 C39,6.16791801 39.1844239,5.23901311 39.5426308,4.37299035 C39.8919953,3.53254745 40.3779781,2.75664266 40.9806023,2.07717042 C41.6571705,1.43838084 42.4371217,0.920749376 43.286783,0.546623794 C44.1464796,0.185780979 45.0685989,0 45.9999369,0 L45.9999369,0 C46.9312748,0 47.8533942,0.185780979 48.7130907,0.546623794 C49.5401491,0.91764848 50.293852,1.4361601 50.9378768,2.07717042 C52.267982,3.40634703 53.0111398,5.21881108 53,7.10610932 L53,43.8938907 C53.0111398,45.7811889 52.267982,47.593653 50.9378768,48.9228296 C50.293852,49.5638399 49.5401491,50.0823515 48.7130907,50.4533762 C47.861827,50.810699 46.9492713,50.9964103 46.0270684,51 Z" id="Path" fill="#CBD3D7"></path>
            <path d="M46.0134765,35.8618686 C45.0808228,35.8654651 44.1579542,35.6765813 43.3055705,35.3076408 C42.4714192,34.9621629 41.709563,34.4701313 41.0580086,33.8560916 C40.4301984,33.2138646 39.9175849,32.4733807 39.5415812,31.665572 C39.1840672,30.8293149 39,29.932337 39,29.0263918 L39,44.1752864 C39,45.0812316 39.1840672,45.9782095 39.5415812,46.8144666 C40.2625645,48.4654887 41.6115549,49.7802421 43.3055705,50.4829272 C45.0415453,51.1723576 46.9854078,51.1723576 48.7213825,50.4829272 C49.5468412,50.1246548 50.2990863,49.6239647 50.9418654,49.0049862 C52.2693979,47.7214941 53.0111182,45.9713254 53,44.1488946 L53,29 C53.0111182,30.8224308 52.2693979,32.5725995 50.9418654,33.8560916 C50.3049236,34.4752689 49.5508484,34.9682144 48.7213825,35.3076408 C47.8689988,35.6765813 46.9461302,35.8654651 46.0134765,35.8618686 Z" id="Path" fill="#96A6AE"></path>
            <path d="M174.999937,51 L174.999937,51 C174.072195,51 173.153636,50.8141671 172.297259,50.4533247 C171.470014,50.0738205 170.711714,49.5564346 170.054036,48.9227796 C169.416991,48.2662551 168.904052,47.4974449 168.540536,46.6542932 C168.183712,45.7882713 168,44.8593674 168,43.921177 L168,7.10610207 C168,6.16791171 168.183712,5.23900776 168.540536,4.37298589 C168.904052,3.52983418 169.416991,2.76102393 170.054036,2.10449946 C170.70151,1.46364083 171.450619,0.937054448 172.270232,0.546623236 C173.126609,0.18578079 174.045168,0 174.97291,0 L174.97291,0 C175.900652,0 176.819211,0.18578079 177.675589,0.546623236 C178.518661,0.911864582 179.288189,1.43066091 179.945839,2.0771683 C181.270808,3.40634355 182.011097,5.21880575 182,7.10610207 L182,43.8938458 C182.011097,45.7811422 181.270808,47.5936044 179.945839,48.9227796 C179.3043,49.5637893 178.553507,50.0823004 177.729642,50.4533247 C176.86487,50.8177238 175.936774,51.0035751 174.999937,51 Z" id="Path" fill="#CBD3D7"></path>
            <path d="M174.999937,35.8618686 C174.069084,35.8654651 173.147997,35.6765813 172.297259,35.3076408 C171.464718,34.9621629 170.704332,34.4701313 170.054036,33.8560916 C169.416991,33.2221316 168.904052,32.479745 168.540536,31.665572 C168.183712,30.8293149 168,29.932337 168,29.0263918 L168,44.1752864 C168,45.0812316 168.183712,45.9782095 168.540536,46.8144666 C168.904052,47.6286396 169.416991,48.3710262 170.054036,49.0049862 C170.711714,49.6168627 171.470014,50.1164664 172.297259,50.4829272 C174.029882,51.1723576 175.969992,51.1723576 177.702616,50.4829272 C178.536084,50.1274306 179.296241,49.6266037 179.945839,49.0049862 C181.270808,47.7214941 182.011097,45.9713254 182,44.1488946 L182,29 C182.011097,30.8224308 181.270808,32.5725995 179.945839,33.8560916 C179.310126,34.4752689 178.557507,34.9682144 177.729642,35.3076408 C176.87059,35.6802469 175.93989,35.8692123 174.999937,35.8618686 Z" id="Path" fill="#96A6AE"></path>
        </g>
    </g>
</svg>