<?xml version="1.0" encoding="UTF-8"?>
<svg width="440px" height="330px" viewBox="0 0 440 330" version="1.1" xmlns="http://www.w3.org/2000/svg" xmlns:xlink="http://www.w3.org/1999/xlink">
    <title>Graphic elements / Icons / Rich icons / book-a-demo-notification</title>
    <g id="Graphic-elements-/-Icons-/-Rich-icons-/-book-a-demo-notification" stroke="none" stroke-width="1" fill="none" fill-rule="evenodd">
        <g id="Book-a-demo-(notification)" transform="translate(15.000000, 0.000000)" fill-rule="nonzero">
            <path d="M399.999997,322.1 L399.999997,87.9 C399.999997,85.8118175 399.187227,83.8056605 397.73,82.31 C397.026913,81.5929925 396.191505,81.0190734 395.27,80.62 C394.32296,80.2102274 393.30189,79.9999978 392.27,79.9999978 L7.74,79.9999978 C6.7081101,79.9999978 5.68703951,80.2102274 4.74,80.62 C3.81849537,81.0190734 2.98308652,81.5929925 2.28,82.31 C0.819114913,83.8040582 -3.28635377e-06,85.810408 -3.28635377e-06,87.9 L-3.28635377e-06,322.1 C-3.28635377e-06,324.188182 0.812773372,326.19434 2.27,327.69 C2.97308652,328.407007 3.80849537,328.980927 4.73,329.38 C5.67703951,329.789773 6.6981101,329.999998 7.73,329.999998 L392.26,329.999998 C393.29189,329.999998 394.31296,329.789773 395.26,329.38 C396.181505,328.980927 397.016913,328.407007 397.72,327.69 C399.180885,326.195942 399.999997,324.189592 399.999997,322.1 Z" id="Path" fill="#023852" opacity="0.2" style="mix-blend-mode: multiply;"></path>
            <path d="M18,69.9999878 L402.1,69.9999878 C404.218367,69.9999878 406.246353,70.8582097 407.72,72.38 C408.436339,73.1387142 408.999927,74.0282319 409.38,75 C409.791445,75.9991192 410.000016,77.0694807 410.000016,78.15 L410.000016,311.89 C410.000016,312.970519 409.791445,314.040881 409.38,315.04 C408.980479,316.001571 408.39996,316.877441 407.67,317.62 C406.196353,319.14179 404.168367,320 402.05,320 L18,320 C15.8816326,320 13.8536469,319.14179 12.38,317.62 C11.627814,316.870025 11.0298814,315.97992 10.62,315 C10.2085545,314.000881 9.99998416,312.930519 9.99998416,311.85 L9.99998416,78.11 C9.99998416,77.0429428 10.2136738,75.986671 10.62,75 C11.0195212,74.0384295 11.6000401,73.1625589 12.33,72.42 C13.808882,70.8709513 15.8583582,69.996219 18,69.9999878 Z" id="Path" fill="#023852"></path>
            <polygon id="Path" fill="#0099DA" points="392.74 85.23 307.74 85.23 222.75 85.23 137.76 85.23 52.77 85.23 52.77 140.11 52.77 195 52.77 249.89 52.77 304.77 137.76 304.77 222.75 304.77 307.74 304.77 392.74 304.77 392.74 249.89 392.74 195 392.74 140.11"></polygon>
            <path d="M22,195 C22.0002595,196.280758 22.2552034,197.548679 22.75,198.73 C23.2270115,199.844209 23.904965,200.86114 24.75,201.73 C28.4937158,205.46693 34.5562842,205.46693 38.3,201.73 C39.145035,200.86114 39.8229885,199.844209 40.3,198.73 C41.30003,196.343876 41.30003,193.656124 40.3,191.27 C39.8229885,190.155791 39.145035,189.13886 38.3,188.27 C34.5562842,184.53307 28.4937158,184.53307 24.75,188.27 C23.904965,189.13886 23.2270115,190.155791 22.75,191.27 C22.2552034,192.451321 22.0002595,193.719242 22,195 L22,195 Z" id="Path" fill="#4E7486"></path>
            <path d="M79.77,281.5 L79.77,105.38 C79.7622285,104.036274 80.2956475,102.745977 81.25,101.8 C81.7128672,101.345266 82.2551598,100.979218 82.85,100.72 C83.4821016,100.450665 84.1629311,100.314499 84.85,100.31984 L361.65,100.31984 C362.337069,100.314499 363.017898,100.450665 363.65,100.72 C364.246179,100.976775 364.788899,101.34311 365.25,101.8 C366.204353,102.745977 366.737772,104.036274 366.730364,105.38 L366.730364,281.5 C366.746211,282.845161 366.219693,284.140107 365.269392,285.092289 C364.319092,286.044471 363.025191,286.57355 361.68,286.560254 L84.82,286.560254 C84.133386,286.560254 83.453491,286.424818 82.82,286.16 C82.2251598,285.900782 81.6828672,285.534734 81.22,285.08 C80.2656475,284.134023 79.7322285,282.843726 79.7399163,281.5 L79.77,281.5 Z" id="Path" fill="#FFFFFF"></path>
            <path d="M312.41,270.920008 L268.08,270.920008 C266.234972,270.920898 264.408661,270.550194 262.71,269.83 C259.403118,268.429158 256.770842,265.796882 255.37,262.49 C254.652184,260.790952 254.284843,258.964451 254.289946,257.12 L254.289946,256.31 C254.282012,252.650222 255.732318,249.138038 258.320178,246.550178 C260.908038,243.962318 264.420222,242.512012 268.08,242.519946 L312.41,242.519946 C314.254451,242.514843 316.080952,242.882184 317.78,243.6 C321.086882,245.000842 323.719158,247.633118 325.12,250.94 C325.840194,252.638661 326.210898,254.464972 326.210008,256.31 L326.210008,257.12 C326.211994,258.965138 325.841246,260.791665 325.12,262.49 C323.727216,265.802305 321.092305,268.437216 317.78,269.83 C316.081665,270.551246 314.255138,270.921994 312.41,270.920008 L312.41,270.920008 Z" id="Path" fill="#081935" opacity="0.2" style="mix-blend-mode: multiply;"></path>
            <path d="M312.41,266.690042 L268.08,266.690042 C264.428814,266.698993 260.922868,265.260657 258.33,262.69 C257.056438,261.43367 256.03775,259.94299 255.33,258.3 C254.612184,256.600952 254.244843,254.774451 254.249946,252.93 L254.249946,252.12 C254.242012,248.460222 255.692318,244.948038 258.280178,242.360178 C260.868038,239.772318 264.380222,238.322012 268.04,238.329946 L312.37,238.329946 C314.214451,238.324843 316.040952,238.692184 317.74,239.41 C321.046882,240.810842 323.679158,243.443118 325.08,246.75 C325.800194,248.448661 326.170898,250.274972 326.170008,252.12 L326.170008,252.93 C326.171994,254.775138 325.801246,256.601665 325.08,258.3 C324.384528,259.937477 323.383331,261.427394 322.13,262.69 C319.532219,265.259394 316.023793,266.697274 312.37,266.690042 L312.41,266.690042 Z" id="Path" fill="#FFE700"></path>
            <polygon id="Path" fill="#AFB2B0" points="95.49 119.18 161.83 119.18 228.18 119.18 228.18 194.33 228.18 269.48 161.83 269.48 95.49 269.48 95.49 194.33"></polygon>
            <path d="M185.79,170.38 L186.36,170.12 L186.92,169.87 L187.49,169.61 L188.05,169.35 L188.27,169.27 L188.5,169.22 L188.73,169.22 L189,169.22 L189.17,169.22 L189.34,169.22 L189.52,169.22 L189.69,169.22 C189.912535,169.250732 190.126709,169.325523 190.32,169.44 C190.506251,169.546809 190.669413,169.689575 190.8,169.86 C191.072878,170.215953 191.194983,170.664868 191.14,171.11 L190.8,173.69 L190.47,176.26 L190.13,178.84 L189.79,181.42 C189.777339,181.528724 189.75389,181.635919 189.72,181.74 C189.685541,181.845256 189.638536,181.94598 189.58,182.04 C189.532064,182.139905 189.467855,182.231149 189.39,182.31 C189.317479,182.394108 189.237117,182.471122 189.15,182.54 L188.41,183.11 L187.67,183.68 L186.93,184.25 L186.19,184.82 C186.100318,184.882473 186.006801,184.939252 185.91,184.99 C185.810942,185.040272 185.707088,185.080473 185.6,185.11 C185.495086,185.136411 185.387971,185.153148 185.28,185.16 C185.166872,185.169651 185.053128,185.169651 184.94,185.16 L184.8,185.16 L184.66,185.16 L184.52,185.16 L184.37,185.16 C183.920257,185.0929 183.51465,184.852408 183.24,184.49 C183.107085,184.310973 183.011834,184.106865 182.96,183.89 C182.909332,183.666165 182.909332,183.433835 182.96,183.21 L183.44,180.32 L183.93,177.42 L184.41,174.53 L184.89,171.64 C184.919375,171.503707 184.9595,171.369955 185.01,171.24 C185.060351,171.112615 185.131296,170.994373 185.22,170.89 C185.29743,170.779151 185.391935,170.681271 185.5,170.6 C185.589241,170.517361 185.686373,170.443675 185.79,170.38 Z" id="Path" fill="#0099DA"></path>
            <path d="M138.32,170.38 L137.76,170.12 L137.19,169.87 L136.63,169.61 L136.06,169.35 L135.84,169.27 L135.62,169.22 L135.38,169.22 L135.15,169.22 L134.97,169.22 L134.8,169.22 L134.63,169.22 L134.46,169.22 C134.017432,169.278939 133.615466,169.508633 133.34,169.86 C133.210118,170.034861 133.11196,170.231177 133.05,170.44 C133.00474,170.66104 133.00474,170.88896 133.05,171.11 L133.38,173.69 L133.72,176.26 L134.05,178.84 L134.39,181.42 C134.401288,181.529933 134.428227,181.637689 134.47,181.74 C134.501111,181.844864 134.54476,181.945592 134.6,182.04 C134.65516,182.135483 134.718746,182.225842 134.79,182.31 C134.862521,182.394108 134.942883,182.471122 135.03,182.54 L135.77,183.11 L136.51,183.68 L137.26,184.25 L138,184.82 C138.260101,185.026085 138.578488,185.145043 138.91,185.16 C139.019773,185.169993 139.130227,185.169993 139.24,185.16 L139.38,185.16 L139.52,185.16 L139.67,185.16 L139.81,185.16 C140.040588,185.13056 140.262213,185.052139 140.46,184.93 C140.64935,184.818975 140.81296,184.668999 140.94,184.49 C141.071999,184.309089 141.170242,184.105827 141.23,183.89 C141.275523,183.665619 141.275523,183.434381 141.23,183.21 L140.75,180.32 L140.27,177.42 L139.78,174.53 L139.3,171.64 C139.279932,171.501481 139.239495,171.366691 139.18,171.24 C139.129276,171.114919 139.06201,170.997204 138.98,170.89 C138.896258,170.781219 138.798781,170.683742 138.69,170.6 C138.578934,170.507764 138.454082,170.433528 138.32,170.38 Z" id="Path" fill="#0099DA"></path>
            <path d="M139.28,171.61 C139.26001,171.475863 139.223047,171.344813 139.17,171.22 C139.111994,171.093394 139.041654,170.972811 138.96,170.86 C138.874497,170.756068 138.780869,170.659096 138.68,170.57 C138.567189,170.488346 138.446606,170.418006 138.32,170.36 L137.76,170.1 L137.2,169.84 L136.63,169.58 L136.07,169.33 C135.998516,169.295665 135.925053,169.265612 135.85,169.24 L135.62,169.19 L135.38,169.19 L135.15,169.19 L134.98,169.19 L134.8,169.19 L134.63,169.19 L134.46,169.19 C134.015654,169.243623 133.611789,169.474403 133.34,169.83 C133.208244,170.003703 133.109909,170.200374 133.05,170.41 C133.009551,170.628141 133.009551,170.851859 133.05,171.07 L133.14,171.73 L133.22,172.38 L133.31,173.03 L133.4,173.68 C133.354735,173.452227 133.354735,173.217773 133.4,172.99 C133.459123,172.775089 133.561176,172.574385 133.7,172.4 C133.830837,172.220745 133.99775,172.070863 134.19,171.96 C134.393388,171.842094 134.617385,171.764035 134.85,171.73 L135.03,171.73 L135.2,171.73 L135.38,171.73 L135.56,171.73 L135.8,171.73 C135.87971,171.720365 135.96029,171.720365 136.04,171.73 L136.28,171.73 L136.51,171.81 L137.09,172.08 L137.67,172.35 L138.25,172.61 L138.83,172.88 C138.918503,172.916768 139.002405,172.963753 139.08,173.02 L139.29,173.19 L139.47,173.39 C139.53,173.47 139.57,173.54 139.62,173.62 L139.53,173.1 L139.45,172.59 L139.36,172.07 L139.28,171.61 Z" id="Path" fill="#33AFE2"></path>
            <path d="M189.66,169.28 L189.49,169.28 L189.31,169.28 L189.14,169.28 L188.97,169.28 L188.73,169.28 L188.5,169.28 L188.27,169.33 C188.194947,169.355612 188.121484,169.385665 188.05,169.42 L187.49,169.67 L186.92,169.93 L186.36,170.19 L185.8,170.45 C185.673394,170.508006 185.552811,170.578346 185.44,170.66 C185.339131,170.749096 185.245503,170.846068 185.16,170.95 C185.078346,171.062811 185.008006,171.183394 184.95,171.31 C184.896953,171.434813 184.85999,171.565863 184.84,171.7 L184.74,172.27 L184.64,172.84 L184.55,173.41 L184.45,173.99 C184.486184,173.862951 184.533017,173.739179 184.59,173.62 C184.650571,173.507435 184.720836,173.400363 184.8,173.3 C184.8797,173.200258 184.970258,173.1097 185.07,173.03 C185.172559,172.951765 185.283188,172.884717 185.4,172.83 L185.98,172.57 L186.57,172.3 L187.15,172.03 L187.73,171.77 C187.804184,171.734007 187.881089,171.703914 187.96,171.68 L188.19,171.63 L188.43,171.63 L188.67,171.63 L188.85,171.63 L189.03,171.63 L189.21,171.63 L189.39,171.63 C189.577721,171.652567 189.760286,171.70666 189.93,171.79 C190.092804,171.872502 190.241351,171.980535 190.37,172.11 C190.499256,172.235052 190.607331,172.380278 190.69,172.54 C190.771852,172.704062 190.829132,172.87927 190.86,173.06 L190.93,172.59 L190.99,172.11 L191.05,171.64 L191.11,171.16 C191.150449,170.941859 191.150449,170.718141 191.11,170.5 C191.050091,170.290374 190.951756,170.093703 190.82,169.92 C190.548211,169.564403 190.144346,169.333623 189.7,169.28 L189.66,169.28 Z" id="Path" fill="#33AFE2"></path>
            <path d="M228.2,237 L228.09,235.49 L228,234 C228,234 228,233.95 228,233.93 C228,233.91 228,233.93 228,233.87 C228,233.81 228,233.87 228,233.8 L228,233.74 L227.93,232.62 L227.86,231.5 L227.79,230.38 L227.72,229.26 C227.71638,229.147643 227.696161,229.03644 227.66,228.93 C227.620084,228.828442 227.569819,228.731263 227.51,228.64 C227.374721,228.467514 227.199752,228.330283 227,228.24 L216.34,223.8 L205.68,219.36 L195,214.94 L184.34,210.5 L184.21,210.44 L184.08,210.35 L183.97,210.26 L183.87,210.14 L182.67,208.62 L181.48,207.1 L180.28,205.58 L179.08,204.06 C179.026435,203.981406 178.958594,203.913565 178.88,203.86 C178.809657,203.800916 178.73243,203.75055 178.65,203.71 C178.562963,203.674196 178.472492,203.64739 178.38,203.63 C178.287265,203.615056 178.192735,203.615056 178.1,203.63 L160.87,204.49 L143.64,205.36 C143.570337,205.350282 143.499663,205.350282 143.43,205.36 C143.36413,205.370838 143.300148,205.391043 143.24,205.42 L143.06,205.52 C142.999206,205.557652 142.942265,205.601195 142.89,205.65 L140.59,207.8 L138.23,210 L135.92,212.16 L133.61,214.31 L133.52,214.39 L133.42,214.46 L133.31,214.51 L133.2,214.56 L123.74,217.93 L114.27,221.29 L104.94,224.61 L95.61,227.93 L95.61,269.48 L228.2,269.48 L228.2,237 Z" id="Path" fill="#023852"></path>
            <polygon id="Path" fill="#FFFFFF" points="180.41 269.44 180.58 268.24 180.75 267.04 180.92 265.85 181.09 264.65 181.09 245.78 181.09 226.92 181.09 218.33 181.09 209.74 180.48 208.2 179.87 206.66 179.26 205.12 178.66 203.58 169.82 204.31 160.99 205.04 152.16 205.77 143.32 206.5 142.63 207.39 141.94 208.28 141.25 209.17 140.57 210.06 140.57 219.06 140.57 228.05 140.57 247.32 140.57 266.6 140.75 267.31 140.93 268.01 141.11 268.73 141.29 269.44 151.07 269.44 160.85 269.44 170.63 269.44"></polygon>
            <path d="M142.67,197.9 L142.67,209.41 L144.15,211.65 L145.62,213.89 L147.09,216.12 L148.56,218.36 L151.47,220.22 L154.37,222.07 L157.28,223.93 L160.18,225.78 C160.412258,225.926572 160.665023,226.037789 160.93,226.11 C161.453924,226.250791 162.008176,226.229876 162.52,226.05 C162.777249,225.950404 163.019532,225.815802 163.24,225.65 L166.24,223.38 L169.24,221.1 L172.24,218.82 L175.24,216.55 L175.18,214.24 L175.12,211.93 L175.12,209.62 L175.06,207.31 L166.87,205 L158.8,202.65 L150.74,200.3 L142.67,197.9 Z" id="Path" fill="#33ADE1"></path>
            <path d="M142.67,197.9 L142.67,209.41 L144.15,211.65 L145.62,213.89 L147.09,216.12 L148.56,218.36 L151.47,220.22 L154.37,222.07 L157.28,223.93 L160.18,225.78 C160.412258,225.926572 160.665023,226.037789 160.93,226.11 C161.453924,226.250791 162.008176,226.229876 162.52,226.05 C162.777249,225.950404 163.019532,225.815802 163.24,225.65 L166.24,223.38 L169.24,221.1 L172.24,218.82 L175.24,216.55 L175.18,214.24 L175.12,211.93 L175.12,209.62 L175.06,207.31 L166.87,205 L158.8,202.65 L150.74,200.3 L142.67,197.9 Z" id="Path" fill="#66C2E9" style="mix-blend-mode: multiply;"></path>
            <path d="M182.1,150.57 L177.19,148.66 L172.28,146.75 L167.37,144.84 L162.46,142.93 L162.46,142.79 L162.41,142.79 L162.41,142.79 L162.41,142.79 L162.41,142.79 L162.41,142.79 L162.41,142.79 L162.41,142.79 L162.41,142.79 L162.41,142.93 L157.5,144.84 L152.58,146.75 L147.67,148.66 L142.76,150.57 C142.581983,150.765867 142.43067,150.984431 142.31,151.22 C141.876808,152.037883 141.541175,152.903815 141.31,153.8 C140.831189,155.590329 140.496783,157.416186 140.31,159.26 C139.98846,162.352663 139.83823,165.460743 139.86,168.57 L139.86,193 L142.32,198.88 L144.77,204.75 L147.23,210.63 L149.69,216.51 L152.23,217.28 L154.77,218.05 L157.31,218.82 L159.85,219.59 L165,219.59 L167.54,218.82 L170.08,218.05 L172.62,217.28 L175.16,216.51 L177.61,210.63 L180.07,204.75 L182.52,198.88 L185,193 L185,168.57 C185.02177,165.460743 184.87154,162.352663 184.55,159.26 C184.363217,157.416186 184.028811,155.590329 183.55,153.8 C183.318825,152.903815 182.983192,152.037883 182.55,151.22 C182.42933,150.984431 182.278017,150.765867 182.1,150.57 L182.1,150.57 Z" id="Path" fill="#0099DA"></path>
            <polygon id="Path" fill="#66C2E9" style="mix-blend-mode: multiply;" points="150.45 150.41 150.74 151.47 151.02 152.52 151.3 153.57 151.59 154.63 158.11 157.71 164.64 160.79 171.16 163.87 177.69 166.94 177.69 169.09 177.69 171.24 177.69 173.39 177.69 175.54 177.69 179.06 177.69 182.59 177.69 186.11 177.69 189.64 175.58 193.69 173.47 197.74 171.36 201.79 169.26 205.85 170.39 207.27 171.53 208.68 172.66 210.1 173.79 211.52 176.64 206.98 179.48 202.44 182.32 197.91 185.17 193.37 184.92 185.18 184.67 177 184.42 168.81 184.17 160.62 182.87 156.04 181.57 151.47 180.28 146.89 178.98 142.31 171.85 144.33 164.72 146.36 157.59 148.39"></polygon>
            <path d="M186.61,145.57 L184.14,143.13 L181.67,140.7 L179.2,138.27 L176.72,135.83 C176.694704,135.79847 176.664279,135.771425 176.63,135.75 L176.54,135.69 L176.43,135.63 L176.32,135.63 L174.32,134.97 L172.32,134.31 L170.32,133.65 L168.32,133 L168.24,133 L160.32,133 L160.23,133 L160.13,133 L160.04,133 L156.17,134.5 L152.29,136 L148.42,137.5 L144.55,139 L144.45,139.05 L144.35,139.11 L144.26,139.17 L144.17,139.25 L142.61,140.89 L141,142.51 L139.44,144.15 L137.87,145.79 C137.797953,145.871359 137.73739,145.962203 137.69,146.06 C137.661492,146.106162 137.641192,146.156912 137.63,146.21 C137.625453,146.263236 137.625453,146.316764 137.63,146.37 L137.32,148.77 L137.02,151.17 L136.71,153.57 L136.4,155.97 L136.4,156.2 L136.71,159.57 L137.01,162.94 L137.32,166.3 L137.63,169.67 C137.637698,169.773015 137.661311,169.874216 137.7,169.97 C137.734057,170.061918 137.784923,170.146694 137.85,170.22 C137.909157,170.300062 137.979938,170.370843 138.06,170.43 C138.14383,170.485128 138.234628,170.528845 138.33,170.56 L138.38,170.56 L138.38,170.56 L138.43,170.56 L138.48,170.56 C138.572275,170.591069 138.65978,170.634822 138.74,170.69 C138.816761,170.745435 138.887185,170.809152 138.95,170.88 C139.01297,170.954831 139.063606,171.039224 139.1,171.13 C139.142959,171.217889 139.170043,171.312681 139.18,171.41 L139.28,172.16 L139.38,172.91 L139.48,173.66 L139.58,174.4 L140.07,174.4 L140.56,174.4 L141.04,174.4 L141.53,174.4 L141.53,167.2 L141.88,164.72 L142.23,162.24 L142.57,159.76 L142.92,157.28 C142.932003,157.218801 142.94872,157.158622 142.97,157.1 C142.982843,157.039561 143.006561,156.981958 143.04,156.93 C143.065014,156.874928 143.098784,156.824271 143.14,156.78 C143.177999,156.72865 143.221602,156.681694 143.27,156.64 L144.76,155.34 L146.25,154.05 L147.75,152.75 L149.24,151.45 C149.373476,151.332977 149.535696,151.253593 149.71,151.22 C149.870806,151.179364 150.039194,151.179364 150.2,151.22 C150.362101,151.265788 150.51001,151.351781 150.63,151.47 C150.76061,151.589318 150.857229,151.741148 150.91,151.91 L150.99,152.15 L151.06,152.39 L151.14,152.63 L151.21,152.87 C151.241069,152.962275 151.284822,153.04978 151.34,153.13 C151.391369,153.209991 151.451765,153.283809 151.52,153.35 C151.593803,153.409292 151.674363,153.459642 151.76,153.5 C151.848372,153.541689 151.942943,153.56871 152.04,153.58 L156.49,154.31 L160.95,155.04 L165.4,155.77 L169.86,156.5 L170.02,156.55 C170.075419,156.563922 170.129092,156.584049 170.18,156.61 C170.230548,156.637535 170.277559,156.671115 170.32,156.71 C170.367709,156.741158 170.411375,156.778106 170.45,156.82 L171.93,158.42 L173.41,160.01 L174.89,161.61 L176.37,163.21 L176.04,161.36 L175.72,159.51 L175.39,157.66 L175.06,155.81 C175.040029,155.687475 175.040029,155.562525 175.06,155.44 C175.086748,155.324168 175.13056,155.212953 175.19,155.11 C175.248976,155.003439 175.326922,154.908548 175.42,154.83 C175.517633,154.749679 175.629611,154.6886 175.75,154.65 L176.34,154.44 L176.94,154.24 L177.54,154.03 L178.14,153.82 C178.272434,153.778286 178.411422,153.761336 178.55,153.77 C178.682034,153.777874 178.811193,153.811864 178.93,153.87 C179.182508,153.987473 179.37459,154.204924 179.46,154.47 L180.18,156.59 L180.9,158.72 L181.62,160.84 L182.34,162.96 L182.34,163.13 L182.8,166.05 L183.26,168.96 L183.72,171.88 L184.18,174.79 L185.09,174.79 L185.23,173.79 L185.37,172.79 L185.52,171.79 L185.66,170.79 C185.670663,170.717663 185.690837,170.647052 185.72,170.58 C185.741888,170.516276 185.772154,170.455745 185.81,170.4 C185.840759,170.337345 185.881262,170.279965 185.93,170.23 L186.09,170.1 L186.17,170.03 L186.26,169.97 L186.34,169.91 L186.43,169.85 C186.499242,169.803996 186.560117,169.746502 186.61,169.68 C186.665534,169.620001 186.712634,169.552716 186.75,169.48 C186.791371,169.409266 186.818545,169.33114 186.83,169.25 C186.839635,169.17029 186.839635,169.08971 186.83,169.01 L186.83,146.31 C186.839848,146.240346 186.839848,146.169654 186.83,146.1 C186.819162,146.03413 186.798957,145.970148 186.77,145.91 C186.748112,145.846276 186.717846,145.785745 186.68,145.73 C186.661065,145.674848 186.637654,145.621337 186.61,145.57 Z" id="Path" fill="#023852"></path>
            <path d="M150.76,217.28 L152.86,217.91 L154.96,218.55 L157.06,219.19 L159.15,219.82 L159.37,219.88 L159.58,219.88 L159.8,219.88 L164.8,219.88 L165.02,219.88 L165.24,219.88 L165.45,219.82 L167.55,219.18 L169.65,218.55 L171.75,217.91 L173.85,217.27 C174.058709,217.209335 174.259964,217.125479 174.45,217.02 C174.638468,216.91066 174.815956,216.783405 174.98,216.64 C175.141393,216.497146 175.285688,216.336072 175.41,216.16 C175.539525,215.983769 175.646991,215.792346 175.73,215.59 L178.04,210.17 L180.35,204.76 L182.65,199.34 L184.96,193.93 C184.96,193.83 185.03,193.74 185.06,193.64 C185.092582,193.545063 185.119299,193.448214 185.14,193.35 C185.145523,193.253412 185.145523,193.156588 185.14,193.06 C185.14,192.96 185.14,192.86 185.14,192.76 L185.14,174.81 L184.22,174.81 L183.76,178.12 L183.3,181.44 L182.84,184.75 L182.38,188.07 C182.362916,188.195212 182.336169,188.318914 182.3,188.44 C182.269068,188.562835 182.228956,188.683173 182.18,188.8 C182.132724,188.916086 182.079315,189.029579 182.02,189.14 L181.81,189.46 L180.69,190.94 L179.57,192.42 L178.46,193.9 L177.34,195.38 C177.046271,195.769945 176.661815,196.082315 176.22,196.29 C174.896278,196.913275 173.316017,196.490745 172.48,195.29 L171.83,194.29 L171.18,193.29 L170.52,192.29 L169.87,191.29 C169.731785,191.088739 169.57071,190.904175 169.39,190.74 C169.208341,190.580031 169.010622,190.439282 168.8,190.32 C168.58365,190.208445 168.355587,190.121244 168.12,190.06 C167.881433,189.99935 167.636154,189.969111 167.39,189.97 L157.46,189.97 C157.234406,189.971968 157.009715,189.998796 156.79,190.05 C156.573201,190.102183 156.362155,190.175882 156.16,190.27 C155.960556,190.368853 155.772733,190.489596 155.6,190.63 C155.420653,190.769407 155.259407,190.930653 155.12,191.11 L154.45,191.96 L153.78,192.81 L153.11,193.66 L152.44,194.51 C151.823307,195.289 150.860932,195.712145 149.87,195.64 C148.87853,195.560671 147.990835,194.995094 147.5,194.13 L146.1,191.66 L144.7,189.19 L143.3,186.73 L141.9,184.26 C141.835314,184.147402 141.778511,184.030455 141.73,183.91 C141.679579,183.790293 141.639434,183.666513 141.61,183.54 C141.573831,183.418914 141.547084,183.295212 141.53,183.17 C141.53,183.04 141.53,182.91 141.53,182.78 L141.53,174.4 L140.53,174.4 C140.404142,174.401315 140.278992,174.381021 140.16,174.34 L139.87,174.23 C139.78,174.23 139.71,174.18 139.67,174.23 C139.63,174.28 139.59,174.32 139.59,174.45 L139.59,192.75 C139.585044,192.846603 139.585044,192.943397 139.59,193.04 C139.584477,193.136588 139.584477,193.233412 139.59,193.33 C139.607445,193.427994 139.630821,193.524838 139.66,193.62 L139.76,193.9 L142.03,199.31 L144.29,204.73 L146.55,210.14 L148.81,215.55 C148.898615,215.752757 149.005735,215.946912 149.13,216.13 C149.394298,216.490932 149.73597,216.788186 150.13,217 C150.329304,217.115749 150.540529,217.209627 150.76,217.28 L150.76,217.28 Z" id="Path" fill="#023852"></path>
            <path d="M167.88,132.91 L160.1,132.91 L160.01,132.91 L159.92,132.91 L156.04,134.41 L152.17,135.91 L148.3,137.41 L144.43,138.91 L144.32,138.96 L144.23,139.02 L144.14,139.08 L144.05,139.16 L142.49,140.8 L140.93,142.44 L139.36,144.08 L137.8,145.72 C137.727953,145.801359 137.66739,145.892203 137.62,145.99 C137.591492,146.036162 137.571192,146.086912 137.56,146.14 C137.555453,146.193236 137.555453,146.246764 137.56,146.3 L137.5,146.8 L137.44,147.29 L137.37,147.78 L137.31,148.27 L139.73,146.44 L142.4,144.44 L144.71,142.71 L146.06,141.71 L146.13,141.71 L146.21,141.71 L146.28,141.71 C146.306004,141.701591 146.333996,141.701591 146.36,141.71 L149.93,140.56 L153.5,139.41 L157.06,138.26 L160.63,137.11 L160.71,137.11 L160.79,137.11 L167.65,137.11 L167.71,137.11 L169.71,137.58 L171.71,138.04 L173.66,138.51 L175.61,138.98 L175.7,138.98 L175.78,138.98 C175.806395,138.974612 175.833605,138.974612 175.86,138.98 L175.94,138.98 L178.7,140.8 L181.46,142.62 L184.21,144.44 L186.97,146.26 L186.97,145.85 L184.42,143.34 L181.87,140.83 L179.32,138.32 L176.77,135.81 L176.68,135.73 L176.58,135.67 C176.550493,135.644222 176.516631,135.623905 176.48,135.61 L176.37,135.61 L174.37,134.95 L172.37,134.29 L170.37,133.63 L168.37,132.98 L168.29,132.98 L168.05,132.98 L167.88,132.91 Z" id="Path" fill="#4E7486"></path>
            <path d="M179.47,235.41 L175.26,233.25 L171.05,231.09 L166.84,228.93 L162.64,226.77 L160.64,226.77 L156.52,229 L152.4,231.26 L148.28,233.52 L144.16,235.79 C144.13212,235.80522 144.110777,235.83012 144.1,235.86 C144.085737,235.888305 144.085737,235.921695 144.1,235.95 C144.108725,235.978765 144.131235,236.001275 144.16,236.01 C144.187846,236.026077 144.222154,236.026077 144.25,236.01 L148.55,234.41 L152.84,232.82 L157.13,231.23 L161.42,229.64 L161.51,229.64 L165.97,231.13 L170.43,232.61 L174.9,234.1 L179.36,235.59 C179.391407,235.606027 179.428593,235.606027 179.46,235.59 C179.48475,235.575393 179.505393,235.55475 179.52,235.53 C179.529906,235.500818 179.529906,235.469182 179.52,235.44 C179.50582,235.426343 179.488723,235.416085 179.47,235.41 L179.47,235.41 Z" id="Path" fill="#0099DA"></path>
            <polygon id="Path" fill="#023852" points="156.13 239.22 155.68 240.98 155.23 242.74 154.78 256.09 154.33 269.44 157.83 269.44 161.33 269.44 164.83 269.44 168.33 269.44 167.43 255.93 166.53 242.42 165.62 240.49 164.72 238.57 164.72 237.93 164.72 237.29 164.72 237.29 164.72 237.29 165.54 235.35 166.37 233.41 167.19 231.47 168.02 229.53 166.67 228.84 165.32 228.14 163.96 227.45 162.61 226.76 162.12 226.76 161.64 226.76 161.15 226.76 160.66 226.76 158.82 227.77 156.97 228.79 155.12 229.81 153.28 230.82 153.99 232.6 154.7 234.38 155.41 236.16 156.13 237.94 156.13 237.94 156.13 237.94 156.13 238.58"></polygon>
            <polygon id="Path" fill="#AFB2B0" points="337.47 166.81 295.88 166.81 254.29 166.81 254.29 163.65 254.29 160.49 295.88 160.49 337.47 160.49 337.47 163.65"></polygon>
            <polygon id="Path" fill="#AFB2B0" points="337.47 195.56 295.88 195.56 254.29 195.56 254.29 192.4 254.29 189.24 295.88 189.24 337.47 189.24 337.47 192.4"></polygon>
            <polygon id="Path" fill="#AFB2B0" points="337.47 181.19 295.88 181.19 254.29 181.19 254.29 178.02 254.29 174.86 295.88 174.86 337.47 174.86 337.47 178.02"></polygon>
            <polygon id="Path" fill="#FFFFFF" opacity="0.2" points="83.96 84.34 140.57 139.51 197.18 194.67 253.79 249.28 310.41 303.89 351.31 303.89 392.22 303.89 392.22 194.11 392.22 84.34 238.09 84.34"></polygon>
            <path d="M408.78,7 L311.22,7 C308.774704,7 306.429561,7.97139007 304.700475,9.70047548 C302.97139,11.4295609 302,13.774704 302,16.22 L302,113.78 C302,118.872065 306.127935,123 311.22,123 L408.78,123 C411.225296,123 413.570439,122.02861 415.299525,120.299525 C417.02861,118.570439 418,116.225296 418,113.78 L418,16.22 C418,13.774704 417.02861,11.4295609 415.299525,9.70047548 C413.570439,7.97139007 411.225296,7 408.78,7 L408.78,7 Z" id="Path" fill="#081935" opacity="0.2" style="mix-blend-mode: multiply;"></path>
            <path d="M415.78,0 L318.22,0 C313.127935,0 309,4.12793461 309,9.22 L309,106.78 C309,109.225296 309.97139,111.570439 311.700475,113.299525 C313.429561,115.02861 315.774704,116 318.22,116 L415.78,116 C420.872065,116 425,111.872065 425,106.78 L425,9.22 C425,4.12793461 420.872065,0 415.78,0 Z" id="Path" fill="#FFE700"></path>
            <polygon id="Path" fill="#023852" points="361.88 69.78 367 69.78 372.12 69.78 372.55 48.89 372.97 28 367 28 361.03 28 361.45 48.89"></polygon>
            <path d="M373.880025,81.12 C373.875108,77.8366858 371.550881,75.0143586 368.329443,74.3799167 C365.108006,73.7454748 361.887174,75.4757375 360.63768,78.5120083 C359.388186,81.5482791 360.458264,85.0443481 363.193165,86.8610742 C365.928065,88.6778004 369.565571,88.3088614 371.88,85.98 C373.165378,84.6897208 373.884908,82.9412611 373.880025,81.12 Z" id="Path" fill="#023852"></path>
        </g>
    </g>
</svg>