<?xml version="1.0" encoding="UTF-8"?>
<svg width="440px" height="330px" viewBox="0 0 440 330" version="1.1" xmlns="http://www.w3.org/2000/svg" xmlns:xlink="http://www.w3.org/1999/xlink">
    <title>Graphic elements / Icons / Rich icons / browser</title>
    <g id="Graphic-elements-/-Icons-/-Rich-icons-/-browser" stroke="none" stroke-width="1" fill="none" fill-rule="evenodd">
        <g id="Browser" transform="translate(0.000000, 102.000000)" fill-rule="nonzero">
            <path d="M389.202985,224.016915 L50.7970149,224.016915 C50.0001078,224.014316 49.211558,223.854375 48.4766169,223.546269 C47.7717127,223.240109 47.1296844,222.805905 46.5830846,222.265672 C46.0403403,221.723409 45.6090107,221.080132 45.3134328,220.372139 C45.0004664,219.642545 44.8427574,218.856569 44.8427574,218.062687 L44.8427574,6.47960199 C44.8427574,4.90301474 45.4675357,3.39069959 46.5830846,2.27661692 C47.698043,1.15436129 49.215058,0.525370605 50.7970149,0.525370605 L389.202985,0.525370605 C390.784942,0.525370605 392.301957,1.15436129 393.416915,2.27661692 C394.532464,3.39069959 395.157243,4.90301474 395.157243,6.47960199 L395.157243,218.062687 C395.157243,218.856569 394.999534,219.642545 394.686567,220.372139 C394.390989,221.080132 393.95966,221.723409 393.416915,222.265672 C392.870316,222.805905 392.228287,223.240109 391.523383,223.546269 C390.788442,223.854375 389.999892,224.014316 389.202985,224.016915 L389.202985,224.016915 Z" id="Path" fill="#023852"></path>
            <polygon id="Path" fill="#9DADB7" points="439.135323 220.426866 329.573134 220.426866 220 220.426866 110.426866 220.426866 0.864676617 220.426866 0.864676617 217.876617 0.864676617 215.315423 0.864676617 212.765174 0.864676617 210.20398 110.426866 210.20398 220 210.20398 329.573134 210.20398 439.135323 210.20398 439.135323 212.765174 439.135323 215.315423 439.135323 217.876617"></polygon>
            <path d="M416.631841,227.59602 L23.3681592,227.59602 C21.6283342,227.518478 19.8953557,227.328362 18.1800995,227.026866 C15.881592,226.665672 13.2,226.140299 10.6278607,225.494527 C8.29372909,224.945324 6.01486984,224.183262 3.8199005,223.21791 C2.02487562,222.364179 0.864676617,221.422886 0.864676617,220.426866 L439.135323,220.426866 C439.135323,221.422886 437.975124,222.364179 436.1801,223.21791 C433.98513,224.183262 431.706271,224.945324 429.372139,225.494527 C426.8,226.140299 424.118408,226.665672 421.8199,227.026866 C420.104644,227.328362 418.371666,227.518478 416.631841,227.59602 L416.631841,227.59602 Z" id="Path" fill="#CED6DB"></path>
            <g id="Group" opacity="0.6" style="mix-blend-mode: multiply;" transform="translate(146.666667, 210.149254)" fill="#023852">
                <polygon id="Path" points="146.458706 0.0547263682 109.901493 0.0547263682 73.3333333 0.0547263682 36.7651741 0.0547263682 0.207960199 0.0547263682 4.03880597 1.7840796 7.86965174 3.50248756 11.7114428 5.2318408 15.5422886 6.96119403 44.4378109 6.96119403 73.3333333 6.96119403 102.228856 6.96119403 131.124378 6.96119403 134.955224 5.2318408 138.797015 3.50248756 142.627861 1.7840796"></polygon>
            </g>
            <polygon id="Path" fill="#0099DA" points="386.083582 201.907463 303.107463 201.907463 220.131343 201.907463 137.155224 201.907463 54.1791045 201.907463 54.1791045 154.459701 54.1791045 107.000995 54.1791045 59.5532338 54.1791045 12.1054726 137.155224 12.1054726 220.131343 12.1054726 303.107463 12.1054726 386.083582 12.1054726 386.083582 59.5532338 386.083582 107.000995 386.083582 154.459701"></polygon>
            <g id="Group" opacity="0.2" transform="translate(53.631841, 12.039801)" fill="#FFFFFF">
                <polygon id="Path" points="0.689552239 0.415920398 49.7462687 47.7761194 98.7920398 95.1363184 147.848756 142.496517 196.894527 189.856716 257.345274 189.856716 317.785075 189.856716 325.074627 189.856716 332.364179 189.856716 332.364179 142.496517 332.364179 95.1363184 332.364179 47.7761194 332.364179 0.415920398 276.028856 0.415920398 219.682587 0.415920398 110.18607 0.415920398"></polygon>
            </g>
            <polygon id="Path" fill="#1F3950" points="386.171144 41.5044776 220.153234 41.5044776 54.1353234 41.5044776 54.1353234 26.761194 54.1353234 12.0069652 220.153234 12.0069652 386.171144 12.0069652 386.171144 26.761194"></polygon>
            <polygon id="Path" fill="#FFFFFF" points="63.7452736 21.6825871 72.0855721 21.6825871 80.4258706 21.6825871 80.4258706 20.281592 80.4258706 18.880597 72.0855721 18.880597 63.7452736 18.880597 63.7452736 20.281592"></polygon>
            <polygon id="Path" fill="#FFFFFF" points="63.7452736 33.1094527 72.0855721 33.1094527 80.4258706 33.1094527 80.4258706 31.7084577 80.4258706 30.2965174 72.0855721 30.2965174 63.7452736 30.2965174 63.7452736 31.7084577"></polygon>
            <polygon id="Path" fill="#FFFFFF" points="63.7452736 27.3960199 72.0855721 27.3960199 80.4258706 27.3960199 80.4258706 25.9950249 80.4258706 24.5940299 72.0855721 24.5940299 63.7452736 24.5940299 63.7452736 25.9950249"></polygon>
            <polygon id="Path" fill="#023852" opacity="0.3" style="mix-blend-mode: multiply;" points="242.284577 157.371144 175.376119 157.371144 108.478607 157.371144 108.478607 114.739303 108.478607 72.118408 175.376119 72.118408 242.284577 72.118408 242.284577 114.739303"></polygon>
            <polygon id="Path" fill="#023852" opacity="0.3" style="mix-blend-mode: multiply;" points="341.700498 180.991045 266.583085 180.991045 191.476617 180.991045 191.476617 139.004975 191.476617 97.0079602 266.583085 97.0079602 341.700498 97.0079602 341.700498 139.004975"></polygon>
            <polygon id="Path" fill="#FFE700" points="234.568159 151.471642 167.670647 151.471642 100.762189 151.471642 100.762189 108.839801 100.762189 66.2189055 167.670647 66.2189055 234.568159 66.2189055 234.568159 108.839801"></polygon>
            <polygon id="Path" fill="#CCEBF8" points="335.943284 174.566169 260.825871 174.566169 185.719403 174.566169 185.719403 132.569154 185.719403 90.5830846 260.825871 90.5830846 335.943284 90.5830846 335.943284 132.569154"></polygon>
            <polygon id="Path" fill="#13173A" points="152.642786 90.6378109 132 90.6378109 111.357214 90.6378109 111.357214 87.6825871 111.357214 84.7383085 132 84.7383085 152.642786 84.7383085 152.642786 87.6825871"></polygon>
            <polygon id="Path" fill="#13173A" points="152.642786 101.977114 132 101.977114 111.357214 101.977114 111.357214 99.0218905 111.357214 96.0776119 132 96.0776119 152.642786 96.0776119 152.642786 99.0218905"></polygon>
            <polygon id="Path" fill="#13173A" points="240.861692 106.738308 220.229851 106.738308 199.587065 106.738308 199.587065 103.79403 199.587065 100.838806 220.229851 100.838806 240.861692 100.838806 240.861692 103.79403"></polygon>
            <polygon id="Path" fill="#13173A" points="240.861692 118.077612 220.229851 118.077612 199.587065 118.077612 199.587065 115.133333 199.587065 112.178109 220.229851 112.178109 240.861692 112.178109 240.861692 115.133333"></polygon>
            <polygon id="Path" fill="#13173A" points="289.393035 106.738308 268.761194 106.738308 248.118408 106.738308 248.118408 103.79403 248.118408 100.838806 268.761194 100.838806 289.393035 100.838806 289.393035 103.79403"></polygon>
            <polygon id="Path" fill="#13173A" points="289.393035 118.077612 268.761194 118.077612 248.118408 118.077612 248.118408 115.133333 248.118408 112.178109 268.761194 112.178109 289.393035 112.178109 289.393035 115.133333"></polygon>
            <polygon id="Path" fill="#FFFFFF" points="273.445771 152.281592 275.361194 150.322388 277.276617 148.341294 268.695522 145.265672 260.114428 142.19005 263.4199 150.333333 266.725373 158.465672 268.531343 156.648756 270.348259 154.820896 273.993035 158.421891 277.648756 162.022886 279.049751 160.556219 280.461692 159.100498 276.959204 155.696517"></polygon>
        </g>
    </g>
</svg>