<?xml version="1.0" encoding="UTF-8"?>
<svg width="440px" height="330px" viewBox="0 0 440 330" version="1.1" xmlns="http://www.w3.org/2000/svg" xmlns:xlink="http://www.w3.org/1999/xlink">
    <title>Graphic elements / Icons / Rich icons / building-medium</title>
    <g id="Graphic-elements-/-Icons-/-Rich-icons-/-building-medium" stroke="none" stroke-width="1" fill="none" fill-rule="evenodd">
        <g id="Building,-Medium" transform="translate(81.000000, 0.000000)" fill-rule="nonzero">
            <rect id="Rectangle" fill="#0099DA" x="21.5790123" y="99.217284" width="155.982716" height="10.5654321"></rect>
            <rect id="Rectangle" fill="#0099DA" x="21.5790123" y="69.0419753" width="155.982716" height="10.5654321"></rect>
            <ellipse id="Oval" fill="#D9DBDF" cx="131.239506" cy="327.012346" rx="131.239506" ry="2.48518519"></ellipse>
            <path d="M248.246914,298.167901 L257.753086,298.167901 C259.886084,298.169241 261.932487,297.324306 263.44321,295.818519 L265.616049,293.645679 C267.121836,292.134956 267.966771,290.088553 267.965432,287.955556 L267.965432,287.955556 C267.969183,285.820909 268.818889,283.774777 270.328395,282.265432 L274.646914,277.946914 C276.152701,276.436191 276.997636,274.389787 276.996298,272.25679 L276.996298,259.138272 C276.997636,257.005274 276.152701,254.958871 274.646914,253.448148 L261.718519,240.519753 C260.207796,239.013966 258.161392,238.169031 256.028395,238.170369 L235.658025,238.170369 C233.525028,238.169031 231.478624,239.013966 229.967901,240.519753 L218.32963,252.158025 C216.823843,253.668748 215.978908,255.715151 215.980245,257.848148 L215.980245,276.779012 C215.980245,278.911715 216.825103,280.957574 218.32963,282.469136 L231.774074,295.9 C233.289601,297.423575 235.356068,298.270728 237.504938,298.249777 L248.246914,298.167901 Z" id="Path" fill="#023852"></path>
            <path d="M274.714815,253.448148 L261.78642,240.519753 C260.275697,239.013966 258.229293,238.169031 256.096296,238.170369 L235.725926,238.170369 C233.592929,238.169031 231.546525,239.013966 230.035802,240.519753 L218.397531,252.158025 C216.891744,253.668748 216.046809,255.715151 216.048147,257.848148 L216.048147,270.314815 C216.048147,268.182112 216.893004,266.136253 218.397531,264.624691 L230.035802,253 C231.545148,251.490494 233.591279,250.640788 235.725926,250.637037 L256.096296,250.637037 C258.230943,250.640788 260.277074,251.490494 261.78642,253 L274.714815,265.914815 C276.209391,267.430794 277.044116,269.476112 277.037102,271.604938 L277.037102,259.138272 C277.045596,257.009158 276.21065,254.963297 274.714815,253.448148 L274.714815,253.448148 Z" id="Path" fill="#023852"></path>
            <path d="M209.135802,266.240741 L196.397531,266.240741 C194.869597,266.237898 193.403485,266.843891 192.323457,267.924691 L189.091358,271.15679 C188.00811,272.236287 187.397574,273.701575 187.393827,275.230864 L187.393827,290.4 C187.398389,291.926462 188.003261,293.38986 189.077778,294.474074 L198.162963,303.58642 C199.238165,304.676052 200.706239,305.287749 202.237037,305.283951 L212.720988,305.433333 C214.276801,305.45655 215.775782,304.849119 216.876543,303.749383 L224.42716,296.198765 C225.510409,295.119268 226.120945,293.653981 226.124691,292.124691 L226.124691,283.148148 C226.120945,281.618859 225.510409,280.153571 224.42716,279.074074 L213.304938,267.938272 C212.203145,266.830144 210.698285,266.217416 209.135802,266.240741 L209.135802,266.240741 Z" id="Path" fill="#023852"></path>
            <path d="M224.4,279.060494 L213.277778,267.924691 C212.196902,266.845161 210.731341,266.239395 209.203704,266.240731 L196.465432,266.240731 C194.937498,266.237898 193.471386,266.843891 192.391358,267.924691 L189.159259,271.15679 C188.076011,272.236287 187.465475,273.701575 187.461728,275.230864 L187.461728,285.334568 C187.465475,283.805278 188.076011,282.339991 189.159259,281.260494 L192.391358,278.041975 C193.470007,276.957463 194.935843,276.346698 196.465432,276.344444 L209.135802,276.344444 C210.665092,276.348191 212.130379,276.958727 213.209877,278.041975 L224.332099,289.164198 C225.271434,290.115878 225.852092,291.363572 225.975309,292.695062 C225.975309,292.504938 225.975309,292.314815 225.975309,292.124691 L225.975309,283.148148 C226.007798,281.631521 225.441886,280.163076 224.4,279.060494 Z" id="Path" fill="#023852"></path>
            <rect id="Rectangle" fill="#023852" x="246.820988" y="264.516049" width="1.29012346" height="63.3654321"></rect>
            <path d="M247.024691,288.104938 C246.856058,288.103256 246.694943,288.034905 246.576543,287.914815 L235.712346,277.050617 C235.465667,276.797483 235.465667,276.393875 235.712346,276.140741 C235.834656,276.018005 236.0008,275.949017 236.174074,275.949017 C236.347348,275.949017 236.513492,276.018005 236.635802,276.140741 L247.5,287.004938 C247.687105,287.191394 247.74319,287.472333 247.642017,287.716338 C247.540845,287.960342 247.302418,288.119168 247.038272,288.118521 L247.024691,288.104938 Z" id="Path" fill="#023852"></path>
            <path d="M247.744444,273.614815 C247.574508,273.619697 247.410882,273.550279 247.296296,273.424691 C247.170842,273.306638 247.099706,273.142019 247.099706,272.969753 C247.099706,272.797488 247.170842,272.632868 247.296296,272.514815 L252.022222,267.788889 C252.273478,267.537633 252.680843,267.537633 252.932099,267.788889 C253.183354,268.040144 253.183354,268.44751 252.932099,268.698765 L248.206173,273.424691 C248.086358,273.550923 247.918405,273.62008 247.744444,273.614815 L247.744444,273.614815 Z" id="Path" fill="#023852"></path>
            <rect id="Rectangle" fill="#023852" x="206.338272" y="283.962963" width="1.29012346" height="43.9864198"></rect>
            <path d="M207.180247,295.91358 C207.008051,295.909823 206.843434,295.842039 206.718519,295.723457 C206.476982,295.463019 206.476982,295.060437 206.718519,294.8 L212.150617,289.367901 C212.401873,289.116646 212.809238,289.116646 213.060494,289.367901 C213.311749,289.619157 213.311749,290.026522 213.060494,290.277778 L207.628395,295.709877 C207.508998,295.830366 207.349534,295.90285 207.180247,295.91358 Z" id="Path" fill="#023852"></path>
            <path d="M206.732099,292.722222 C206.57238,292.721815 206.418135,292.663973 206.297531,292.559259 L200.987654,287.683951 C200.739309,287.426222 200.739309,287.018222 200.987654,286.760494 C201.107635,286.638569 201.271534,286.569907 201.442593,286.569907 C201.613651,286.569907 201.77755,286.638569 201.897531,286.760494 L207.193827,291.635802 C207.392022,291.813386 207.45924,292.095302 207.362496,292.343208 C207.265752,292.591115 207.02535,292.752984 206.759259,292.749442 L206.732099,292.722222 Z" id="Path" fill="#023852"></path>
            <rect id="Rectangle" fill="#0099DA" x="30.6641975" y="44.3666667" width="3.92469136" height="1"></rect>
            <rect id="Rectangle" fill="#0099DA" x="55.4888889" y="19.1481481" width="89.6160494" height="11.0950617"></rect>
            <polygon id="Path" fill="#023852" points="118.528395 0 82.554321 0 46.1592593 12.1407407 154.923457 12.1407407"></polygon>
            <rect id="Rectangle" fill="#023852" x="46.1592593" y="12.1407407" width="108.764198" height="7.2382716"></rect>
            <polygon id="Path" fill="#6BC3E8" points="123.675309 30.2296296 86.3839506 30.2296296 81.4950617 19.4876543 118.78642 19.4876543"></polygon>
            <rect id="Rectangle" fill="#0099DA" x="21.5790123" y="159.323457" width="155.982716" height="10.5654321"></rect>
            <rect id="Rectangle" fill="#0099DA" x="21.5790123" y="189.240741" width="155.982716" height="10.5518519"></rect>
            <rect id="Rectangle" fill="#0099DA" x="21.5790123" y="219.158025" width="155.982716" height="10.5654321"></rect>
            <rect id="Rectangle" fill="#0099DA" x="21.5790123" y="129.148148" width="155.982716" height="10.5654321"></rect>
            <path d="M180.617284,277.281481 C180.617284,278.259259 180.209877,279.046914 179.693827,279.046914 L19.3654321,279.046914 C18.862963,279.046914 18.4419753,278.259259 18.4419753,277.281481 L18.4419753,261.446914 C18.4419753,260.482716 18.862963,259.695062 19.3654321,259.695062 L179.748148,259.695062 C180.264198,259.695062 180.671605,260.482716 180.671605,261.446914 L180.617284,277.281481 Z" id="Path" fill="#DFE4E6"></path>
            <rect id="Rectangle" fill="#0099DA" x="21.5790123" y="249.12963" width="155.982716" height="10.5654321"></rect>
            <rect id="Rectangle" fill="#C4D2DA" style="mix-blend-mode: multiply;" x="21.5790123" y="249.12963" width="155.982716" height="3.7617284"></rect>
            <polygon id="Path" fill="#6BC3E8" points="32.1851852 36.5444444 132.203704 259.776543 89.1407407 259.776543 21.5790123 109.782716 21.945679 52.854321"></polygon>
            <polygon id="Path" fill="#6BC3E8" points="59.7259259 38.1740741 162.365432 259.776543 142.524691 259.776543 39.8716049 38.1740741"></polygon>
            <rect id="Rectangle" fill="#DFE4E6" x="21.5790123" y="266.335802" width="155.982716" height="59.5358025"></rect>
            <rect id="Rectangle" fill="#C4D2DA" style="mix-blend-mode: multiply;" x="21.5790123" y="159.323457" width="155.982716" height="3.7617284"></rect>
            <rect id="Rectangle" fill="#C4D2DA" style="mix-blend-mode: multiply;" x="21.5790123" y="189.240741" width="155.982716" height="3.7617284"></rect>
            <rect id="Rectangle" fill="#C4D2DA" style="mix-blend-mode: multiply;" x="21.5790123" y="219.158025" width="155.982716" height="3.7617284"></rect>
            <rect id="Rectangle" fill="#023852" x="21.5790123" y="38.2283951" width="155.982716" height="11.4753086"></rect>
            <rect id="Rectangle" fill="#DFE4E6" x="17.3012346" y="30.1345679" width="164.511111" height="8.99012346"></rect>
            <rect id="Rectangle" fill="#C4D2DA" style="mix-blend-mode: multiply;" x="21.5790123" y="129.148148" width="155.982716" height="3.7617284"></rect>
            <path d="M179.259259,259.790123 L101.851852,259.790123 L101.851852,279.141975 L179.259259,279.141975 C180.228973,279.134516 181.011111,278.346286 181.011111,277.376543 L181.011111,261.541975 C181.011111,260.574454 180.22678,259.790123 179.259259,259.790123 L179.259259,259.790123 Z" id="Path" fill="#D9DBDF"></path>
            <rect id="Rectangle" fill="#D9DBDF" x="21.5790123" y="279.046914" width="155.982716" height="3.7617284"></rect>
            <rect id="Rectangle" fill="#0099DA" x="140.012346" y="292.097531" width="13.6209877" height="20.1123457"></rect>
            <rect id="Rectangle" fill="#0099DA" x="45.8740741" y="292.097531" width="13.6209877" height="20.1123457"></rect>
            <polygon id="Path" fill="#023852" points="176.611111 321.21358 115.323457 321.21358 115.323457 326.048148 176.611111 326.048148 177.425926 326.048148 177.425926 321.21358"></polygon>
            <polygon id="Path" fill="#023852" points="82.8666667 321.21358 21.5790123 321.21358 21.5790123 326.048148 82.8666667 326.048148 83.6814815 326.048148 83.6814815 321.21358"></polygon>
            <rect id="Rectangle" fill="#023852" x="78.2358025" y="285.158025" width="43.9049383" height="40.8901235"></rect>
            <path d="M180.617284,157.3 C180.617284,158.264198 180.209877,159.065432 179.693827,159.065432 L19.3654321,159.065432 C18.862963,159.065432 18.4419753,158.264198 18.4419753,157.3 L18.4419753,141.465432 C18.4419753,140.501235 18.862963,139.7 19.3654321,139.7 L179.748148,139.7 C180.264198,139.7 180.671605,140.501235 180.671605,141.465432 L180.617284,157.3 Z" id="Path" fill="#DFE4E6"></path>
            <path d="M180.617284,187.488889 C180.617284,188.453086 180.209877,189.240741 179.693827,189.240741 L19.3654321,189.240741 C18.862963,189.240741 18.4419753,188.453086 18.4419753,187.488889 L18.4419753,171.640741 C18.4419753,170.676543 18.862963,169.888889 19.3654321,169.888889 L179.748148,169.888889 C180.264198,169.888889 180.671605,170.676543 180.671605,171.640741 L180.617284,187.488889 Z" id="Path" fill="#DFE4E6"></path>
            <path d="M180.617284,217.392593 C180.617284,218.35679 180.209877,219.158025 179.693827,219.158025 L19.3654321,219.158025 C18.862963,219.158025 18.4419753,218.35679 18.4419753,217.392593 L18.4419753,201.558025 C18.4419753,200.593827 18.862963,199.806173 19.3654321,199.806173 L179.748148,199.806173 C180.264198,199.806173 180.671605,200.593827 180.671605,201.558025 L180.617284,217.392593 Z" id="Path" fill="#DFE4E6"></path>
            <path d="M180.617284,247.309877 C180.617284,248.274074 180.209877,249.075309 179.693827,249.075309 L19.3654321,249.075309 C18.862963,249.075309 18.4419753,248.274074 18.4419753,247.309877 L18.4419753,231.475309 C18.4419753,230.511111 18.862963,229.723457 19.3654321,229.723457 L179.748148,229.723457 C180.264198,229.723457 180.671605,230.511111 180.671605,231.475309 L180.617284,247.309877 Z" id="Path" fill="#DFE4E6"></path>
            <path d="M180.617284,127.409877 C180.617284,128.374074 180.209877,129.161728 179.693827,129.161728 L19.3654321,129.161728 C18.862963,129.161728 18.4419753,128.374074 18.4419753,127.409877 L18.4419753,111.575309 C18.4419753,110.597531 18.862963,109.809877 19.3654321,109.809877 L179.748148,109.809877 C180.264198,109.809877 180.671605,110.597531 180.671605,111.575309 L180.617284,127.409877 Z" id="Path" fill="#DFE4E6"></path>
            <path d="M179.259259,139.795062 L101.851852,139.795062 L101.851852,159.160494 L179.259259,159.160494 C180.228973,159.153034 181.011111,158.364804 181.011111,157.395062 L181.011111,141.560494 C181.011111,140.590751 180.228973,139.802521 179.259259,139.795062 L179.259259,139.795062 Z" id="Path" fill="#D9DBDF"></path>
            <path d="M179.259259,169.983951 L101.851852,169.983951 L101.851852,189.335802 L179.259259,189.335802 C180.22678,189.335802 181.011111,188.551472 181.011111,187.583951 L181.011111,171.735802 C181.011111,170.768281 180.22678,169.983951 179.259259,169.983951 L179.259259,169.983951 Z" id="Path" fill="#D9DBDF"></path>
            <path d="M179.259259,199.901235 L101.851852,199.901235 L101.851852,219.253086 L179.259259,219.253086 C180.228973,219.245627 181.011111,218.457397 181.011111,217.487654 L181.011111,201.653086 C181.011111,200.685565 180.22678,199.901235 179.259259,199.901235 L179.259259,199.901235 Z" id="Path" fill="#D9DBDF"></path>
            <path d="M179.259259,229.818519 L101.851852,229.818519 L101.851852,249.17037 L179.259259,249.17037 C180.228973,249.162911 181.011111,248.374681 181.011111,247.404938 L181.011111,231.57037 C181.011111,230.602849 180.22678,229.818519 179.259259,229.818519 Z" id="Path" fill="#D9DBDF"></path>
            <path d="M179.259259,109.904938 L101.851852,109.904938 L101.851852,129.25679 L179.259259,129.25679 C180.22678,129.25679 181.011111,128.472459 181.011111,127.504938 L181.011111,111.67037 C181.011111,110.700628 180.228973,109.912398 179.259259,109.904938 Z" id="Path" fill="#D9DBDF"></path>
            <rect id="Rectangle" fill="#C4D2DA" style="mix-blend-mode: multiply;" x="21.5790123" y="99.217284" width="155.982716" height="3.7617284"></rect>
            <rect id="Rectangle" fill="#C4D2DA" style="mix-blend-mode: multiply;" x="21.5790123" y="69.0419753" width="155.982716" height="3.7617284"></rect>
            <path d="M180.617284,97.1938272 C180.617284,98.1580247 180.209877,98.9592593 179.693827,98.9592593 L19.3654321,98.9592593 C18.862963,98.9592593 18.4419753,98.1580247 18.4419753,97.1938272 L18.4419753,81.3592593 C18.4419753,80.3950617 18.862963,79.6074074 19.3654321,79.6074074 L179.748148,79.6074074 C180.264198,79.6074074 180.671605,80.3950617 180.671605,81.3592593 L180.617284,97.1938272 Z" id="Path" fill="#DFE4E6"></path>
            <path d="M180.617284,67.3037037 C180.617284,68.2679012 180.209877,69.0555556 179.693827,69.0555556 L19.3654321,69.0555556 C18.862963,69.0555556 18.4419753,68.2679012 18.4419753,67.3037037 L18.4419753,51.4691358 C18.4419753,50.5049383 18.862963,49.7037037 19.3654321,49.7037037 L179.748148,49.7037037 C180.264198,49.7037037 180.671605,50.5049383 180.671605,51.4691358 L180.617284,67.3037037 Z" id="Path" fill="#DFE4E6"></path>
            <path d="M179.259259,79.7024691 L101.851852,79.7024691 L101.851852,99.054321 L179.259259,99.054321 C180.228973,99.0468614 181.011322,98.2586312 181.011322,97.2888889 L181.011322,81.4814815 C181.018388,81.0121735 180.837036,80.5595737 180.507708,80.2251398 C180.17838,79.890706 179.728624,79.7024691 179.259259,79.7024691 L179.259259,79.7024691 Z" id="Path" fill="#D9DBDF"></path>
            <path d="M179.259259,49.7987654 L101.851852,49.7987654 L101.851852,69.1506173 L179.259259,69.1506173 C180.22678,69.1506173 181.011583,68.3662865 181.011583,67.3987654 L181.011583,51.6049383 C181.02204,51.1320444 180.842741,50.6745445 180.51341,50.3350019 C180.18408,49.9954592 179.732266,49.8022778 179.259259,49.7987654 L179.259259,49.7987654 Z" id="Path" fill="#D9DBDF"></path>
            <rect id="Rectangle" fill="#0099DA" x="84.2654321" y="289.585185" width="32.7283951" height="36.354321"></rect>
            <polygon id="Path" fill="#6BC3E8" points="116.993827 325.939506 116.423457 325.939506 84.3740741 289.191358 116.993827 289.191358"></polygon>
        </g>
    </g>
</svg>