<?xml version="1.0" encoding="UTF-8"?>
<svg width="440px" height="330px" viewBox="0 0 440 330" version="1.1" xmlns="http://www.w3.org/2000/svg" xmlns:xlink="http://www.w3.org/1999/xlink">
    <title>Graphic elements / Icons / Rich icons / calendar</title>
    <g id="Graphic-elements-/-Icons-/-Rich-icons-/-calendar" stroke="none" stroke-width="1" fill="none" fill-rule="evenodd">
        <g id="Calendar" transform="translate(47.000000, 0.000000)" fill-rule="nonzero">
            <path d="M331.63299,50.5659794 L267.436082,50.5659794 L267.436082,23.7237113 C267.438999,23.1029753 267.378199,22.4835789 267.254639,21.8752577 C267.135601,21.2878452 266.957015,20.7140914 266.721649,20.1628866 C266.493968,19.6185506 266.212868,19.0981347 265.882474,18.6092784 C265.548826,18.123966 265.169054,17.6720368 264.748454,17.2597938 C263.912768,16.4290632 262.927842,15.763469 261.845361,15.2979381 C261.292859,15.0661126 260.719461,14.8876375 260.13299,14.7649485 C258.325054,14.3903409 256.445855,14.5762826 254.746392,15.2979381 C253.663911,15.763469 252.678985,16.4290632 251.843299,17.2597938 C251.422699,17.6720368 251.042926,18.123966 250.709278,18.6092784 C250.378885,19.0981347 250.097784,19.6185506 249.870103,20.1628866 C249.634738,20.7140914 249.456152,21.2878452 249.337113,21.8752577 C249.213553,22.4835789 249.152754,23.1029753 249.15567,23.7237113 L249.15567,50.5659794 L86.3443299,50.5659794 L86.3443299,23.7237113 C86.3472463,23.1029753 86.2864466,22.4835789 86.1628866,21.8752577 C86.0385696,21.2892106 85.8601416,20.7159629 85.6298969,20.1628866 C85.4022158,19.6185506 85.1211152,19.0981347 84.7907216,18.6092784 C84.4570738,18.123966 84.0773014,17.6720368 83.656701,17.2597938 C83.2394862,16.8445947 82.7880646,16.4652488 82.3072165,16.1257732 C81.8160541,15.7959988 81.2960655,15.5113335 80.7536082,15.2752577 C80.2005319,15.0450131 79.6272843,14.866585 79.0412371,14.742268 C77.8284454,14.5003064 76.579802,14.5003064 75.3670103,14.742268 C74.7805393,14.8649571 74.2071405,15.0434322 73.6546392,15.2752577 C73.1121819,15.5113335 72.5921933,15.7959988 72.1010309,16.1257732 C71.129637,16.7795568 70.2939897,17.615204 69.6402062,18.5865979 C69.3098126,19.0754543 69.0287121,19.5958701 68.8010309,20.1402062 C68.5605956,20.6895321 68.3818393,21.2638345 68.2680412,21.8525773 C68.1406722,22.4605044 68.0760722,23.0799049 68.0752577,23.7010309 L68.0752577,50.5659794 L4.37731959,50.5659794 C3.2412442,50.557106 2.14961341,51.0068416 1.34948454,51.8134021 C0.963073239,52.2073612 0.651789816,52.6685219 0.430927835,53.1742268 C0.211171324,53.7023865 0.102013791,54.2691897 0.102013791,54.8412371 L0.102013791,312.876289 C0.102013791,317.418398 1.9034849,321.775064 5.11443299,324.987629 C6.67672025,326.546925 8.52484677,327.79056 10.557732,328.650515 C12.6668642,329.544766 14.9348979,330.003773 17.2257732,330.000023 L323.195876,330.000023 C326.555996,330.000023 329.779071,328.668112 332.154639,326.291753 C334.53941,323.920894 335.878462,320.695739 335.874288,317.33299 L335.874288,54.8412371 C335.8803,53.7055173 335.431823,52.6145563 334.628737,51.8114696 C333.82565,51.0083829 332.734689,50.5599059 331.598969,50.5659794 L331.63299,50.5659794 Z" id="Path" fill="#023852" opacity="0.2" style="mix-blend-mode: multiply;"></path>
            <path d="M333.617526,315.4165 L21.7731959,315.4165 C15.1531806,315.4165 9.78659794,310.049912 9.78659794,303.429897 L9.78659794,110.340206 L345.592805,110.340206 L345.592805,303.429897 C345.598811,306.608819 344.339435,309.65944 342.092657,311.908345 C339.84588,314.15725 336.796452,315.419514 333.617526,315.4165 Z" id="Path" fill="#EBEFF2"></path>
            <polygon id="Path" fill="#CED3D7" points="221.134021 182.758763 210.542268 182.758763 199.950515 182.758763 189.347423 182.758763 178.75567 182.758763 178.75567 172.15567 178.75567 161.541237 178.75567 150.926804 178.75567 140.323711 189.347423 140.323711 199.950515 140.323711 210.542268 140.323711 221.134021 140.323711 221.134021 150.926804 221.134021 161.541237 221.134021 172.15567"></polygon>
            <polygon id="Path" fill="#0099DA" points="166.417526 285.648454 133.213402 285.648454 99.9979381 285.648454 66.7938144 285.648454 33.5896907 285.648454 33.5896907 249.314433 33.5896907 212.980412 33.5896907 176.646392 33.5896907 140.323711 66.7938144 140.323711 99.9979381 140.323711 133.213402 140.323711 166.417526 140.323711 166.417526 176.646392 166.417526 212.980412 166.417526 249.314433"></polygon>
            <polygon id="Path" fill="#CED3D7" points="271.461856 182.758763 260.870103 182.758763 250.278351 182.758763 239.675258 182.758763 229.083505 182.758763 229.083505 172.15567 229.083505 161.541237 229.083505 150.926804 229.083505 140.323711 239.675258 140.323711 250.278351 140.323711 260.870103 140.323711 271.461856 140.323711 271.461856 150.926804 271.461856 161.541237 271.461856 172.15567"></polygon>
            <polygon id="Path" fill="#CED3D7" points="321.789691 182.758763 311.197938 182.758763 300.606186 182.758763 290.003093 182.758763 279.41134 182.758763 279.41134 172.15567 279.41134 161.541237 279.41134 150.926804 279.41134 140.323711 290.003093 140.323711 300.606186 140.323711 311.197938 140.323711 321.789691 140.323711 321.789691 150.926804 321.789691 161.541237 321.789691 172.15567"></polygon>
            <polygon id="Path" fill="#CED3D7" points="221.134021 234.413402 210.542268 234.413402 199.950515 234.413402 189.347423 234.413402 178.75567 234.413402 178.75567 223.798969 178.75567 213.184536 178.75567 202.570103 178.75567 191.96701 189.347423 191.96701 199.950515 191.96701 210.542268 191.96701 221.134021 191.96701 221.134021 202.570103 221.134021 213.184536 221.134021 223.798969"></polygon>
            <polygon id="Path" fill="#CED3D7" points="271.461856 234.413402 260.870103 234.413402 250.278351 234.413402 239.675258 234.413402 229.083505 234.413402 229.083505 223.798969 229.083505 213.184536 229.083505 202.570103 229.083505 191.96701 239.675258 191.96701 250.278351 191.96701 260.870103 191.96701 271.461856 191.96701 271.461856 202.570103 271.461856 213.184536 271.461856 223.798969"></polygon>
            <polygon id="Path" fill="#50BFEE" points="321.789691 234.413402 311.197938 234.413402 300.606186 234.413402 290.003093 234.413402 279.41134 234.413402 279.41134 223.798969 279.41134 213.184536 279.41134 202.570103 279.41134 191.96701 290.003093 191.96701 300.606186 191.96701 311.197938 191.96701 321.789691 191.96701 321.789691 202.570103 321.789691 213.184536 321.789691 223.798969"></polygon>
            <polygon id="Path" fill="#CED3D7" points="221.134021 286.045361 210.542268 286.045361 199.950515 286.045361 189.347423 286.045361 178.75567 286.045361 178.75567 275.442268 178.75567 264.827835 178.75567 254.213402 178.75567 243.598969 189.347423 243.598969 199.950515 243.598969 210.542268 243.598969 221.134021 243.598969 221.134021 254.213402 221.134021 264.827835 221.134021 275.442268"></polygon>
            <polygon id="Path" fill="#CED3D7" points="271.461856 286.045361 260.870103 286.045361 250.278351 286.045361 239.675258 286.045361 229.083505 286.045361 229.083505 275.442268 229.083505 264.827835 229.083505 254.213402 229.083505 243.598969 239.675258 243.598969 250.278351 243.598969 260.870103 243.598969 271.461856 243.598969 271.461856 254.213402 271.461856 264.827835 271.461856 275.442268"></polygon>
            <polygon id="Path" fill="#CED3D7" points="321.789691 286.045361 311.197938 286.045361 300.606186 286.045361 290.003093 286.045361 279.41134 286.045361 279.41134 275.442268 279.41134 264.827835 279.41134 254.213402 279.41134 243.598969 290.003093 243.598969 300.606186 243.598969 311.197938 243.598969 321.789691 243.598969 321.789691 254.213402 321.789691 264.827835 321.789691 275.442268"></polygon>
            <polygon id="Path" fill="#023852" points="296.569072 222.574227 294.346392 220.351546 292.123711 218.117526 289.889691 215.883505 287.66701 213.649485 288.120619 213.195876 288.585567 212.730928 289.050515 212.265979 289.515464 211.801031 291.273196 213.570103 293.042268 215.339175 294.81134 217.108247 296.569072 218.87732 300.334021 215.112371 304.098969 211.347423 307.852577 207.571134 311.617526 203.806186 312.082474 204.271134 312.536082 204.736082 313.001031 205.189691 313.465979 205.654639 309.236082 209.884536 305.017526 214.114433 300.798969 218.34433"></polygon>
            <path d="M9.78659794,40.257732 L9.78659794,110.340206 L345.592799,110.340206 L345.592799,40.257732 C345.592799,39.1268695 345.149448,38.0411283 344.351934,37.2393611 C343.55442,36.4375939 342.471069,35.9854778 341.340206,35.9824742 L14.0618557,35.9824742 C11.700696,35.9824742 9.78659794,37.8965723 9.78659794,40.257732 Z M87.2175258,76.8299169 C80.6073729,76.8254031 74.920607,72.1528478 73.6341766,65.6690806 C72.3477462,59.1853134 75.8198246,52.6955714 81.9275464,50.1677513 C88.0352682,47.6399311 95.0780965,49.777839 98.7499717,55.2743354 C102.421847,60.7708318 101.700431,68.0955596 97.0268041,72.7701031 C94.427717,75.3750126 90.8973041,76.8361546 87.2175258,76.8299169 Z M268.161856,76.8299169 C261.551703,76.8254031 255.864937,72.1528478 254.578507,65.6690806 C253.292076,59.1853134 256.764154,52.6955714 262.871876,50.1677513 C268.979598,47.6399311 276.022426,49.777839 279.694302,55.2743354 C283.366177,60.7708318 282.64476,68.0955596 277.971134,72.7701031 C275.372047,75.3750126 271.841634,76.8361546 268.161856,76.8299169 Z" id="Shape" fill="#0099DA"></path>
            <path d="M268.014433,65.5350531 L268.014433,65.5350531 C266.79069,65.5357628 265.579452,65.2888863 264.453608,64.8092784 C263.371487,64.3543288 262.389046,63.6916622 261.561856,62.8587629 C259.841444,61.1485836 258.877593,58.8206371 258.885567,56.3948454 L258.885567,9.14020619 C258.867433,6.72235101 259.815236,4.39729196 261.518566,2.68118653 C263.221896,0.965081096 265.539809,4.02885056e-15 267.957732,4.02885056e-15 L267.957732,4.02885056e-15 C269.176365,0.0023918021 270.382554,0.245171179 271.507216,0.71443299 C272.601288,1.17094285 273.595281,1.8374572 274.43299,2.67628866 C275.266069,3.51004032 275.931985,4.4954426 276.394845,5.57938144 C276.870563,6.70603572 277.113576,7.91724296 277.109334,9.14020619 L277.109334,56.3948454 C277.113576,57.6178086 276.870563,58.8290158 276.394845,59.9556701 C275.931985,61.039609 275.266069,62.0250112 274.43299,62.8587629 C273.607899,63.6941958 272.624921,64.3572239 271.541237,64.8092784 C270.425935,65.2844119 269.226718,65.5311962 268.014433,65.5350531 L268.014433,65.5350531 Z" id="Path" fill="#CBD3D7"></path>
            <path d="M268.014433,45.3608247 C266.79069,45.361536 265.579452,45.1146595 264.453608,44.6350515 C263.371487,44.180102 262.389046,43.5174354 261.561856,42.6845361 C259.841444,40.9743568 258.877593,38.6464103 258.885518,36.2206186 L258.885518,56.3948454 C258.877593,58.8206371 259.841444,61.1485836 261.561856,62.8587629 C262.389046,63.6916622 263.371487,64.3543288 264.453608,64.8092784 C266.724981,65.7767525 269.292545,65.7767525 271.563918,64.8092784 C272.63951,64.3546058 273.61457,63.6917186 274.43299,62.8587629 C275.266069,62.0250112 275.931985,61.039609 276.394845,59.9556701 C276.870563,58.8290158 277.113576,57.6178086 277.109334,56.3948454 L277.109334,36.2886598 C277.113576,37.511623 276.870563,38.7228303 276.394845,39.8494845 C275.925738,40.9132283 275.260145,41.8789152 274.43299,42.6958763 C273.607899,43.5313092 272.624921,44.1943373 271.541237,44.6463918 C270.425132,45.1176348 269.225945,45.3605569 268.014433,45.3608247 L268.014433,45.3608247 Z" id="Path" fill="#96A6AE"></path>
            <path d="M86.9113402,65.5350515 L86.9113402,65.5350515 C84.5116341,65.512696 82.2159661,64.5520974 80.5154639,62.8587629 C79.6896321,62.0214213 79.0280408,61.0367272 78.5649485,59.9556701 C78.0892304,58.8290158 77.8462175,57.6178086 77.8504594,56.3948454 L77.8504594,9.14020619 C77.8462175,7.91724296 78.0892304,6.70603572 78.5649485,5.57938144 C79.0280408,4.49832432 79.6896321,3.51363021 80.5154639,2.67628866 C82.2090116,0.972591483 84.5091359,0.0101281173 86.9113402,0 L86.9113402,0 C88.1300929,0.00119723111 89.3365142,0.244023237 90.4608247,0.71443299 C91.5468122,1.1735255 92.5328974,1.83990345 93.3639175,2.67628866 C95.0843291,4.38646796 96.0481806,6.71441446 96.0402553,9.14020619 L96.0402553,56.3948454 C96.0481806,58.8206371 95.0843291,61.1485836 93.3639175,62.8587629 C92.5347185,63.6945057 91.5479801,64.3574706 90.4608247,64.8092784 C89.3384942,65.2873899 88.1312647,65.5342356 86.9113402,65.5350515 Z" id="Path" fill="#CBD3D7"></path>
            <path d="M86.9113402,45.3608247 C84.513241,45.3414892 82.2177957,44.3850537 80.5154639,42.6958763 C79.6896321,41.8585347 79.0280408,40.8738406 78.5649485,39.7927835 C78.0771882,38.6877262 77.8150171,37.49639 77.7937584,36.2886598 L77.7937584,56.3948454 C77.7895165,57.6178086 78.0325294,58.8290158 78.5082474,59.9556701 C78.9882785,61.0412765 79.6693217,62.026288 80.5154639,62.8587629 C83.1349027,65.4968949 87.0987842,66.2698967 90.5175258,64.8092784 C91.6046811,64.3574706 92.5914195,63.6945057 93.4206186,62.8587629 C95.1410301,61.1485836 96.1048816,58.8206371 96.0969563,56.3948454 L96.0969563,36.2886598 C96.1048816,38.7144515 95.1410301,41.042398 93.4206186,42.7525773 C92.5914195,43.5883201 91.6046811,44.251285 90.5175258,44.7030928 C89.3727416,45.1654338 88.1456345,45.3892458 86.9113402,45.3608247 Z" id="Path" fill="#96A6AE"></path>
        </g>
    </g>
</svg>