<svg width="97" height="90" viewBox="0 0 97 90" xmlns="http://www.w3.org/2000/svg">
<defs>
<style>
.icon-blink {
  animation: blink-animation 1s steps(5, start) infinite;
  -webkit-animation: blink-animation 1s steps(5, start) infinite;
}

.icon-blink2 {
  animation: blink-animation 1s steps(5, start) infinite;
  -webkit-animation: blink-animation 1s steps(5, start) infinite;
  animation-delay: 500ms;
}

.icon-blink3 {
  animation: blink-animation 1s steps(5, start) infinite;
  -webkit-animation: blink-animation 1s steps(5, start) infinite;
  animation-delay: 350ms;
}

.icon-blink4 {
  animation: blink-animation 1s steps(5, start) infinite;
  -webkit-animation: blink-animation 1s steps(5, start) infinite;
  animation-delay: 450ms;
}

.icon-blink5 {
  animation: blink-animation 1s steps(5, start) infinite;
  -webkit-animation: blink-animation 1s steps(5, start) infinite;
  animation-delay: 500ms;
}

#camara-numer {
  stroke-dasharray: 5;
  stroke-dashoffset: 2;
  animation: dash 2s linear forwards;
  -webkit-animation: dash 2s linear forwards;
}

.test-stroke {
  fill: none;
  stroke: #000;
  stroke-width: 2;
  stroke-miterlimit: 5;
}

.scale-height {
  animation-duration: 3000ms;
  animation-iteration-count: infinite;
  transform-origin: 50% 86%;
  animation-name: scale-height;
}

/* .scale-height1 {
    animation-name: scale-height;
}

.scale-height2 {
    animation-name: scale-height;
    animation-delay: 110ms;
}

.scale-height3 {
    animation-name: scale-height;
    animation-delay: 100ms;
}

.scale-height4 {
    animation-name: scale-height;
    animation-delay: 80ms;
}

.scale-height5 {
    animation-name: scale-height;
    animation-delay: 100ms;
} */

.animate-line {
  stroke-dasharray: 241;
  stroke-dashoffset: 0;
  -webkit-animation: dash 3s linear forwards;
  -o-animation: dash 3s linear forwards;
  -moz-animation: dash 3s linear forwards;
  animation: dash 3s linear forwards;
}

.animate-line-long {
  stroke-dasharray: 350;
  stroke-dashoffset: 0;
  -webkit-animation: dash-long 4s linear forwards;
  -o-animation: dash-long 4s linear forwards;
  -moz-animation: dash-long 4s linear forwards;
  animation: dash-long 4s linear forwards;
}

.number3-dash-animate {
  stroke-dasharray: 65;
  stroke-dashoffset: 0;
  -webkit-animation: dash-number3 2s linear forwards;
  -o-animation: dash-number3 2s linear forwards;
  -moz-animation: dash-number3 2s linear forwards;
  animation: dash-number3 2s linear forwards;
}

.backup-local-animation {
  -webkit-animation: backup-local-animation 2s ease infinite;
  -o-animation: backup-local-animation 2s ease infinite;
  -moz-animation: backup-local-animation 2s ease infinite;
  animation: backup-local-animation 2s ease infinite;
}

.calender {
  -webkit-animation: calender 500ms ease forwards;
  -o-animation: calender 500ms ease forwards;
  -moz-animation: calender 500ms ease forwards;
  animation: calender 500ms ease forwards;
}

.calender-blue-month {
  -webkit-animation: calender-blue 500ms ease forwards;
  -o-animation: calender-blue 500ms ease forwards;
  -moz-animation: calender-blue 500ms ease forwards;
  animation: calender-blue 500ms ease forwards;
  fill: #cad3d6;
  animation-delay: 1200ms;
}

.calender-blue-week {
  -webkit-animation: calender-blue 500ms ease forwards;
  -o-animation: calender-blue 500ms ease forwards;
  -moz-animation: calender-blue 500ms ease forwards;
  animation: calender-blue 500ms ease forwards;
  fill: #cad3d6;
  animation-delay: 400ms;
}

.calender:nth-of-type(2) {
  animation-delay: 50ms;
}

.calender:nth-of-type(3) {
  animation-delay: 100ms;
}

.calender:nth-of-type(18) {
  animation-delay: 150ms;
}

.calender:nth-of-type(5) {
  animation-delay: 200ms;
}

.calender:nth-of-type(6) {
  animation-delay: 250ms;
}

.calender:nth-of-type(7) {
  animation-delay: 300ms;
}

.calender:nth-of-type(8) {
  animation-delay: 350ms;
}

.calender:nth-of-type(9) {
  animation-delay: 400ms;
}

.calender:nth-of-type(10) {
  animation-delay: 450ms;
}

.calender:nth-of-type(11) {
  animation-delay: 500ms;
}

.calender:nth-of-type(14) {
  animation-delay: 550ms;
}

.calender:nth-of-type(13) {
  animation-delay: 600ms;
}

.calender:nth-of-type(12) {
  animation-delay: 650ms;
}

.calender:nth-of-type(15) {
  animation-delay: 700ms;
}

.calender:nth-of-type(16) {
  animation-delay: 750ms;
}

.calender:nth-of-type(17) {
  animation-delay: 800ms;
}

.calender:nth-of-type(4) {
  animation-delay: 850ms;
}

.calender:nth-of-type(19) {
  animation-delay: 900ms;
}

.calender:nth-of-type(20) {
  animation-delay: 950ms;
}

.calender:nth-of-type(21) {
  animation-delay: 1000ms;
}

.calender:nth-of-type(25) {
  animation-delay: 1050ms;
}

.calender:nth-of-type(23) {
  animation-delay: 1100ms;
}

.calender:nth-of-type(24) {
  animation-delay: 11500ms;
}

.calender:nth-of-type(22) {
  animation-delay: 1200ms;
}

.calender:nth-of-type(26) {
  animation-delay: 1250ms;
}

.calender:nth-of-type(27) {
  animation-delay: 1300ms;
}

.calender:nth-of-type(28) {
  animation-delay: 1350ms;
}

.calender:nth-of-type(29) {
  animation-delay: 1400ms;
}

.animate-line-check-marks-month {
  -webkit-animation: animate-line-check-marks 1s linear forwards;
  -o-animation: animate-line-check-marks 1s linear forwards;
  -moz-animation: animate-line-check-marks 1s linear forwards;
  animation: animate-line-check-marks 1s linear forwards;
  animation-delay: 1800ms;
  opacity: 0;
}

.animate-line-check-marks-week {
  -webkit-animation: animate-line-check-marks 1s linear forwards;
  -o-animation: animate-line-check-marks 1s linear forwards;
  -moz-animation: animate-line-check-marks 1s linear forwards;
  animation: animate-line-check-marks 1s linear forwards;
  animation-delay: 800ms;
  opacity: 0;
}

.camara-detect-right {
  -webkit-animation: camara-detect-right 5s linear forwards;
  -o-animation: camara-detect-right 5s linear forwards;
  -moz-animation: camara-detect-right 5s linear forwards;
  animation: camara-detect-right 5s linear forwards;
  transform-origin: center;
}

.camara-detect-left {
  -webkit-animation: camara-detect-left 5s linear forwards;
  -o-animation: camara-detect-left 5s linear forwards;
  -moz-animation: camara-detect-left 5s linear forwards;
  animation: camara-detect-left 5s linear forwards;
  transform-origin: center;
}

.cloud-1 {
  -webkit-animation: cloud-ani 30s ease infinite;
  -o-animation: cloud-ani 30s ease infinite;
  -moz-animation: cloud-ani 30s ease infinite;
  animation: cloud-ani 30s ease infinite;
}

.cloud-2 {
  -webkit-animation: cloud-ani-fast-out 13s ease infinite;
  -o-animation: cloud-ani-fast-out 13s ease infinite;
  -moz-animation: cloud-ani-fast-out 13s ease infinite;
  animation: cloud-ani-fast-out 13s ease infinite;
  animation-delay: 1000ms;
}

.cloud-3 {
  -webkit-animation: cloud-ani 12s ease infinite;
  -o-animation: cloud-ani 12s ease infinite;
  -moz-animation: cloud-ani 12s ease infinite;
  animation: cloud-ani 12s ease infinite;
  animation-delay: 500ms;
}

.camara-move {
  animation: camara-move-ani 3s linear infinite;
}

.rotate {
  transform-origin: center 11%;
  animation-name: rotate;
  animation-duration: 2000ms;
  animation-iteration-count: infinite;
  animation-timing-function: ease-in-out;
}

@keyframes scale-height {
  0% {
    transform: scaleY(0) translateY(-6%);
  }
  50% {
    transform: scaleY(1);
  }
  100% {
    transform: scaleY(0) translateY(-6%);
  }
}

@keyframes rotate {
  0% {
    transform: rotateY(0deg);
  }
  20% {
    transform: rotateY(0deg);
  }
  50% {
    transform: rotateY(90deg);
  }
  80% {
    transform: rotateY(0deg);
  }
  100% {
    transform: rotateY(0deg);
  }
}

@-webkit-keyframes dash {
  from {
    stroke-dashoffset: 241;
  }
  to {
    stroke-dashoffset: 0;
  }
}

@keyframes dash {
  from {
    stroke-dashoffset: 241;
  }
  to {
    stroke-dashoffset: 0;
  }
}

@-webkit-keyframes dash-long {
  from {
    stroke-dashoffset: 350;
  }
  to {
    stroke-dashoffset: 0;
  }
}

@keyframes dash-long {
  from {
    stroke-dashoffset: 350;
  }
  to {
    stroke-dashoffset: 0;
  }
}

@-webkit-keyframes dash-number3 {
  0% {
    stroke-dashoffset: 70;
  }
  90% {
    stroke-dashoffset: 0;
    fill: #02375200;
  }
  100% {
    fill: #023852;
  }
}

@keyframes dash-number3 {
  0% {
    stroke-dashoffset: 70;
  }
  90% {
    stroke-dashoffset: 0;
    fill: #02375200;
  }
  100% {
    fill: #023852;
  }
}

@-webkit-keyframes backup-local-animation {
  0% {
    transform: translateY(0);
  }
  50% {
    transform: translateY(-6%);
  }
  100% {
    transform: translateY(0);
  }
}

@keyframes backup-local-animation {
  0% {
    transform: translateY(0);
  }
  50% {
    transform: translateY(-6%);
  }
  100% {
    transform: translateY(0);
  }
}

@-webkit-keyframes calender {
  0% {
    opacity: 0;
  }
  100% {
    opacity: 1;
  }
}

@keyframes calender {
  0% {
    opacity: 0;
  }
  100% {
    opacity: 1;
  }
}

@keyframes calender-blue {
  0% {
    fill: #cad3d6;
  }
  100% {
    fill: #50bfee;
  }
}

@-webkit-keyframes animate-line-check-marks {
  0% {
    opacity: 0;
  }
  100% {
    opacity: 1;
  }
}

@keyframes animate-line-check-marks {
  0% {
    opacity: 0;
  }
  100% {
    opacity: 1;
  }
}

@keyframes camara-detect-right {
  0% {
    transform: translate(0, 0) scaleY(1);
  }
  10% {
    transform: translate(-80%, 0);
  }
  20% {
    transform: translate(-50%, 0);
    fill: rgb(255, 255, 255);
  }
  25% {
    transform: translate(-50%, 0) scaleY(0.5);
    fill: rgb(255, 231, 0);
  }
  26% {
    transform: translate(-50%, 0) scaleY(0.5);
    fill: rgba(255, 230, 0, 0);
  }
  27% {
    transform: translate(-50%, 0) scaleY(0.5);
    fill: rgb(255, 231, 0);
  }
  28% {
    transform: translate(-50%, 0) scaleY(0.5);
    fill: rgba(255, 230, 0, 0);
  }
  29% {
    transform: translate(-50%, 0) scaleY(0.5);
    fill: rgb(255, 231, 0);
  }
  65% {
    transform: translate(-50%, 0) scaleY(0.5);
    fill: rgb(255, 231, 0);
  }
  80% {
    transform: translate(-50%, 0) scaleY(0.5);
    fill: rgb(255, 231, 0);
  }
  100% {
    transform: translate(0, 0) scaleY(1);
    fill: rgb(255, 255, 255);
  }
}

@-webkit-keyframes camara-detect-right {
  0% {
    transform: translate(0, 0) scaleY(1);
  }
  10% {
    transform: translate(-80%, 0);
  }
  20% {
    transform: translate(-50%, 0);
    fill: rgb(255, 255, 255);
  }
  25% {
    transform: translate(-50%, 0) scaleY(0.5);
    fill: rgb(255, 231, 0);
  }
  26% {
    transform: translate(-50%, 0) scaleY(0.5);
    fill: rgba(255, 230, 0, 0);
  }
  27% {
    transform: translate(-50%, 0) scaleY(0.5);
    fill: rgb(255, 231, 0);
  }
  28% {
    transform: translate(-50%, 0) scaleY(0.5);
    fill: rgba(255, 230, 0, 0);
  }
  29% {
    transform: translate(-50%, 0) scaleY(0.5);
    fill: rgb(255, 231, 0);
  }
  65% {
    transform: translate(-50%, 0) scaleY(0.5);
    fill: rgb(255, 231, 0);
  }
  80% {
    transform: translate(-50%, 0) scaleY(0.5);
    fill: rgb(255, 231, 0);
  }
  100% {
    transform: translate(0, 0) scaleY(1);
    fill: rgb(255, 255, 255);
  }
}

@keyframes camara-detect-left {
  0% {
    transform: translate(0, 0) scaleY(1);
  }
  10% {
    transform: translate(80%, 0);
  }
  20% {
    transform: translate(13%, 0);
    fill: rgb(255, 255, 255);
  }
  25% {
    transform: translate(13%, 0) scaleY(0.5);
    fill: rgb(255, 231, 0);
  }
  26% {
    transform: translate(13%, 0) scaleY(0.5);
    fill: rgba(255, 230, 0, 0);
  }
  27% {
    transform: translate(13%, 0) scaleY(0.5);
    fill: rgb(255, 231, 0);
  }
  28% {
    transform: translate(13%, 0) scaleY(0.5);
    fill: rgba(255, 230, 0, 0);
  }
  29% {
    transform: translate(13%, 0) scaleY(0.5);
    fill: rgb(255, 231, 0);
  }
  65% {
    transform: translate(13%, 0) scaleY(0.5);
    fill: rgb(255, 231, 0);
  }
  80% {
    transform: translate(13%, 0) scaleY(0.5);
    fill: rgb(255, 231, 0);
  }
  100% {
    transform: translate(0, 0) scaleY(1);
    fill: rgb(255, 255, 255);
  }
}

@-webkit-keyframes camara-detect-left {
  0% {
    transform: translate(0, 0) scaleY(1);
  }
  10% {
    transform: translate(80%, 0);
  }
  20% {
    transform: translate(13%, 0);
    fill: rgb(255, 255, 255);
  }
  25% {
    transform: translate(13%, 0) scaleY(0.5);
    fill: rgb(255, 231, 0);
  }
  26% {
    transform: translate(13%, 0) scaleY(0.5);
    fill: rgba(255, 230, 0, 0);
  }
  27% {
    transform: translate(13%, 0) scaleY(0.5);
    fill: rgb(255, 231, 0);
  }
  28% {
    transform: translate(13%, 0) scaleY(0.5);
    fill: rgba(255, 230, 0, 0);
  }
  29% {
    transform: translate(13%, 0) scaleY(0.5);
    fill: rgb(255, 231, 0);
  }
  65% {
    transform: translate(13%, 0) scaleY(0.5);
    fill: rgb(255, 231, 0);
  }
  80% {
    transform: translate(13%, 0) scaleY(0.5);
    fill: rgb(255, 231, 0);
  }
  100% {
    transform: translate(0, 0) scaleY(1);
    fill: rgb(255, 255, 255);
  }
}

@keyframes cloud-ani {
  0% {
    transform: translate(0%, 0%);
  }
  95% {
    transform: translate(-50%, -1%);
    opacity: 0;
  }
  99% {
    opacity: 0;
    transform: translate(5%, 0%);
  }
  100% {
    transform: translate(0%, 0%);
    opacity: 1;
  }
}

@keyframes cloud-ani-fast-out {
  0% {
    transform: translate(0%, 0%);
  }
  55% {
    transform: translate(-20%, -1%);
    opacity: 0;
  }
  95% {
    transform: translate(-50%, -1%);
    opacity: 0;
  }
  99% {
    opacity: 0;
    transform: translate(5%, 0%);
  }
  100% {
    transform: translate(0%, 0%);
    opacity: 1;
  }
}

@keyframes camara-move-ani {
  0% {
    transform: translate(0, 0);
  }
  10% {
    transform: translate(-3%, 7%) rotate(-5deg);
  }
  30% {
    transform: translate(0, 0);
  }
  90% {
    transform: translate(-3%, 7%) rotate(-5deg);
  }
  100% {
    transform: translate(0, 0);
  }
}

@keyframes blink-animation {
  to {
    visibility: hidden;
  }
}

@-webkit-keyframes blink-animation {
  to {
    visibility: hidden;
  }
}

</style>
</defs>
<g fill="none" fill-rule="evenodd"><g fill-rule="nonzero"><path d="M61.4116703 64.3430018v21.6696829c-4.0182806-.7304179-7.3007729-3.6276234-8.5246512-7.5240592a10.96727356 10.96727356 0 01-.3629598-1.5891755c-.2484937-1.6414805-.1244432-3.3178383.3629598-4.9048625.3783521-1.1824448.9519729-2.2932134 1.6970825-3.286258.7445726-.9752939 1.6423693-1.823397 2.6584355-2.5112896.2060042-.1373362.4218182-.2746723.6376321-.392389.215814-.1177167.4316279-.2452431.6670613-.3629598.9022677-.455849 1.8627451-.78591 2.8546301-.9809726l.0098097-.1177167z" fill="#FAFBFB"/><path d="M49.9931502 62.7145875c.1024707.3616596.0565697.7492461-.1275428 1.0769663-.1841125.3277203-.491251.5685441-.8534297.6691647l-4.6890486 1.392981-4.7184778 1.3831713-5.1991544 1.5303171-5.1991543 1.5205074-7.6515856 2.2366173-7.6417759 2.2562368c-.3610128.106039-.7494123.0636681-1.0790698-.1177167-.3251984-.1843157-.5674229-.4862187-.676871-.8436364l-.1373362-.4806765-.1373361-.4708668-.6866808-2.3052854-.67687104-2.3641438 3.92389004-.2256236 3.9238901-.215814 15.2246934-4.463425 15.2541227-4.5026638.1863847.6376321.1863848.6376322.3825793 1.3145031.392389 1.3341227z" fill="#D3DADD"/><path d="M48.8454124 58.7906974l-15.2345032 4.5026638-15.2443129 4.463425-3.9238901.215814-3.92389004.2256236-1.64803383.0882876-1.64803382.0882875-2.47205074.1373361-2.47205074.1373362-.76515857-2.5603383-.7455391-2.5603382c-.1046876-.3536054-.06592207-.7342125.10790697-1.0594504.17575462-.3207048.46679439-.5626535.81420719-.676871l3.18816067-.9809725 3.18816068-.9809725 18.24608883-5.35610997 18.2460888-5.3463002c.3531775-.10912365.7355257-.07018078 1.0594503.10790697.3242867.1782991.5642958.4783105.6670613.83382664l.392389 1.32431289.3825793 1.31450317.8828752 3.01158563.9024948 3.07044397z" fill="#EAEDEF"/><path d="M50.6307823 59.6735727l-.7063002.2060042-.7063002.2158139-.1863848-.6376321-.1863847-.6670613-.8828753-2.94291755-.8828753-3.01158562.7063002-.20600423.7063002-.20600423c.521843-.14908619 1.0812192-.08927867 1.5597463.16676533.4726366.26723309.8240068.70644591.9809726 1.22621565l.1079069.37276955.107907.36295983.215814.73572939.2158139.73572939.1667654.56896406.1667653.56896406c.1514846.52266024.0879166 1.08417771-.1765751 1.5597463-.2560888.46804637-.6917478.81161477-1.2065962.95154337zM11.882368 72.867653l-.824017.2354334-.82401687.2452431c-.38096981.1128724-.79139434.0668766-1.13792812-.1275264-.35181054-.1810193-.61158043-.5012835-.71610994-.8828753l-.58858351-1.961945-.57877378-1.961945 1.64803383-.0882875 1.65784355-.1275265.68668074 2.3347146.6768711 2.3347146z" fill="#023852"/><path d="M35.9260043 78.4886255h4.0219873c-.3137723.3052784-.6628501.5720265-1.0398308.7945878-.3837011.22966-.7959871.4077675-1.2262157.5297251-1.3789158.407178-2.8631563.2492463-4.125515-.4389784-1.2623587-.6882248-2.1991866-1.8502342-2.6039564-3.2298588l-.8632559-2.9429175-.853446-2.9429176 5.1991543-1.5205074 5.1991543-1.5303171.6474419 2.3739535.6474419 2.246427h-5.0029599c-.4442826-.0018168-.8844763.084888-1.2948837.2550529-1.240132.5184567-2.0428888 1.7361652-2.0306131 3.0802537.0043003.8833177.3567927 1.7292994.9809725 2.354334.6224117.6209038 1.4653676.970078 2.3445243.9711628z" fill="#FAFBFB"/><path d="M52.8673997 78.4101477H35.9260043c-.8839656-.0010862-1.7311254-.3540694-2.354334-.9809725-.6241798-.6250346-.9766722-1.4710163-.9809899-2.354334-.0042916-1.3417256.7958101-2.5554065 2.0306305-3.0802537.4104074-.170165.8506011-.2568698 1.2948837-.2550809h16.9806342c-.4900768 1.5865482-.6141724 3.263515-.3629598 4.9048906a10.96726824 10.96726824 0 00.3335307 1.7657505z" fill="#D3DADD"/><path d="M59.8813532 58.60431262l-.3139112.47086678-.3433404.4610571a14.1946734 14.1946734 0 00-1.3243129 2.0796617c-.3414876.6541316-.4454968 1.4064646-.2942918 2.1287104.0774957.2855439.1929739.559392.3433404.8142072.1516511.2836474.3664521.5286547.6278224.7161099-.2354334.1177167-.4512473.2354334-.6670613.3629599-.215814.1275264-.4316279.2550528-.6376321.392389a4.58113791 4.58113791 0 01-.6572516-.9123045c-.1747754-.3249331-.3066718-.6711611-.392389-1.0300211-.2304766-.9910956-.1090966-2.0314952.3433404-2.9429176.4180446-.874505.931252-1.7002426 1.5303171-2.46224098l.3139112-.44143763.3041015-.44143763c.245902-.3863226.3909366-.82817217.4218181-1.285074.0432537-.49741492-.0168644-.99839955-.176575-1.47145877-.1236339-.39180176-.3236811-.75522082-.5885835-1.06926004-.2333577-.27501232-.5342271-.48460673-.8730656-.60820296-.7586373-.32162517-1.6153161-.32162517-2.3739534 0-.750548.39206199-1.4355961.89840186-2.0306132 1.50088795l-.6866807.57877378c-.2256237.19619451-.4708668.38257928-.71611.55915434l-.2158139-.73572939-.215814-.73572939.4512474-.36295983.4414376-.38257928c.7166375-.69274516 1.5375642-1.26871792 2.4328119-1.70689218 1.0780154-.44208364 2.2867203-.44208364 3.3647357 0 .5498088.20077602 1.0393595.53839723 1.4224101.98097252.4147537.47085033.7285846 1.0217237.9221142 1.61860465.2296197.65755071.3165659 1.35646437.2550529 2.05023256-.0628136.67036633-.2921098 1.31441881-.6670613 1.8736575z" fill="#0099DA"/><path d="M65.3649895 60.4386735v29.429291h-1.6087949c-.6226759.0043466-1.2206502-.2433351-1.6578436-.6867386-.4396818-.4396895-.6866807-1.0360341-.6866807-1.6578435V62.7832555c0-.6218094.2469989-1.218154.6866807-1.6578435.4371934-.4434035 1.0351677-.6910852 1.6578436-.6867385h1.6087949z" fill="#D3DADD"/><path fill="#C0CACE" style="mix-blend-mode:multiply" d="M49.28685 60.340634l-14.9598309 4.3849471-14.9500211 4.3849472-3.9336998.2158139-3.9336998.215814h-.0098097l-.2942918.0196194-.2942917.0196195-1.34393238.0686681-1.3635518.0784778-.29429175.0098097-.29429176.0196194-.1961945-.6964905-.20600423-.6866807 1.64803383-.0882875 1.64803382-.0882876 3.94350947-.2256236 3.9336998-.215814 15.2246935-4.463425 15.2345032-4.47323462.1863847.63763212.1863848.6376321.0392389.1177167z"/><path d="M37.9860466 75.1729384c0 1.0347925-.838865 1.8736575-1.8736575 1.8736575-.6999599.050747-1.3695917-.2939223-1.7350489-.8930551-.3654573-.5991329-.3654573-1.3522621 0-1.951395.3654572-.5991329 1.035089-.9438022 1.7350489-.8930552 1.0309736-.0000141 1.8682597.8328883 1.8736575 1.8638478z" fill="#96A6AE"/></g><path d="M32.3536701 42.763646c-4.4932388.0047299-8.8038087-1.7781038-11.98101014-4.9553052-3.17720143-3.1772015-4.96003514-7.4877714-4.95530521-11.9810102v-4.5735925H49.2887079v4.5735925c.003716 4.4927068-1.7792695 8.8024921-4.9559746 11.9794361-3.176705 3.1769439-7.4863561 4.9602537-11.9790632 4.9568793z" fill="#BAC6CD" fill-rule="nonzero"/><path d="M38.9184952 21.9900992v13.3538709a7.07186095 7.07186095 0 00.680306-.3019336 6.78268023 6.78268023 0 00.6369906-.3681805 6.87954195 6.87954195 0 00.5949492-.4318796 6.66419395 6.66419395 0 00.5452639-.4917568c1.3149172-1.3117641 2.0530407-3.0933464 2.0511135-4.9506909v-6.8094295h-4.5086232zm-16.8242024 0v6.8094295c-.0025716 1.8564724.7335682 3.6376924 2.0460206 4.9506909a6.66421047 6.66421047 0 00.5452639.4917568 6.87952 6.87952 0 00.6013192.4318796 6.78265477 6.78265477 0 00.6369906.3681805c.2213114.1125165.5324773.2133006.7643887.3019336V21.9900992h-4.593983z" fill="#023852" fill-rule="nonzero"/><path d="M32.7651661 21.2779438H26.606741V35.320387c.1936451.077701.3906875.1464709.5911272.2063095.2012891.0589456.4064.1098532.614059.1500433.2076589.0401902.4191398.0723423.6369906.0924374.2178508.0200951.4306056.0321521.6510044.0321521h7.3381316c.2191248 0 .4369756-.0107173.6510044-.0321521.2140289-.0214347.4242358-.0522472.6369906-.0924374.2127549-.0401901.4127699-.0910977.6140589-.1500433.2012891-.0589455.3974822-.1339672.5911273-.2063095V21.2779438h-6.1660689z" fill="#023852" fill-rule="nonzero"/><path d="M42.3582444 21.2537381v1.4867361c.0030451 4.4929412-1.7805077 8.8027195-4.9576171 11.9795899-3.1771094 3.1768704-7.4870218 4.960099-11.9799628 4.956716-.2777279 0-.5537572-.0067945-.8280878-.0203837-.2751799-.0140138-.5478119-.0331235-.8178959-.0598771-.270084-.0267536-.540168-.0598771-.8064301-.0993705-.2662621-.0394934-.5325241-.0840828-.7949643-.135042a16.96815848 16.96815848 0 002.2485768 1.4319548c1.6039645.8518527 3.3351522 1.4386668 5.1265003 1.7377104.9262245.1547341 1.8636984.2322887 2.8027587.2318754 4.4934594.0050671 8.804357-1.7776171 11.9818342-4.9548553 3.1774772-3.1772382 4.9604857-7.4880017 4.9557551-11.9814615v-4.5735925h-6.9304671z" fill="#FFF" fill-rule="nonzero" opacity=".3"/><path d="M50.4531209 23.5061519H14.85553847c-.2828898.000258-.56288513-.0569546-.82299185-.1681806-.50928159-.2154063-.914615-.6207397-1.13002132-1.1300213-.11122593-.2601067-.16816649-.540102-.16816649-.8229918v-3.0257054c0-.2820318.05727824-.561126.16816649-.8204438.21540632-.5092816.62073973-.914615 1.13002132-1.1300214.26010672-.1112259.54010205-.1684386.82299185-.1681664H50.4531209c.283301-.0002677.5637117.0569413.8242658.1681664.2519012.1066729.48076.2611201.6739361.4548113.1936925.1939286.3485026.4231167.4560853.6752101.1101836.2603859.1668915.5402529.1668915.8229918v3.0257053c0 .2827389-.0567079.5626059-.1668915.8229919-.2164215.508597-.6214244.9135998-1.1300214 1.1300213-.2607368.1103511-.5411406.1666919-.8242658.1656326z" fill="#CED6DB" fill-rule="nonzero"/><path fill="#CED6DB" fill-rule="nonzero" d="M48.6963008 16.9413118H11.54191339l.11975423.3541668.11975423.3528927H53.8546507l.1057404-.1758094.1044665-.1770833.1044664-.1770834.1057405-.1770834h-2.7900188z"/><path fill="#CED6DB" fill-rule="nonzero" d="M11.78142185 17.6483713H53.8546507v2.0460138H11.78142185v-1.5338733z"/><path d="M12.84647013 5.87678208H52.9768777c.2667448-.00029648.5305979.05525153.7745805.16307265.7334291.32557605 1.1853323 1.07467683 1.1312953 1.87530031l-.1541517 2.25622069-.1516038 2.25622069-.1503298 2.25749467-.1516037 2.25622071H11.54573533l-.14523385-2.25622071-.15669969-2.25749467-.15160376-2.25622069-.15160376-2.25622069c-.03578825-.52767714.1487137-1.04658886.50959247-1.43322884.17585188-.18657935.38665557-.33678238.62042884-.44207147.24437518-.1079953.50868049-.16354715.77585455-.16307265z" fill="#9DADB7" fill-rule="nonzero"/><path class="icon-blink" d="M24.7530999 11.7039751c-.0027814-1.13475795-.8643919-2.08306635-1.9936885-2.194298-1.1292966-.11123165-2.15936479.65075322-2.38348256 1.76316257-.22411777 1.11240935.43053196 2.21381533 1.51479896 2.54855164 1.084267.33473632 2.245867-.20595468 2.6878351-1.251109.1155324-.27418969.1748819-.56877133.174537-.86630721z" fill="#FFE700" fill-rule="nonzero"/><path d="M16.89518235 11.29629871c-.16396972-.00045656-.32131244.06468241-.43697554.18090774-.15611633.15611633-.2170867.38366083-.15994416.5969197.05714255.21325887.22371668.37983301.43697555.43697555.21325887.05714254.44080338-.00382782.5969197-.15994415.17676992-.17671505.22965972-.44252457.13399996-.67344668-.09565977-.23092212-.32102389-.3814646-.57097551-.38141216z" fill="#0099DA" fill-rule="nonzero"/><path d="M52.9806996 5.88825097H32.8441529V23.5163287h17.6561053c.5511633-.0006744 1.0795063-.2201681 1.4689003-.610237.1899907-.1897555.3417927-.4142149.4471674-.6611962.108601-.2554246.1644996-.5301508.1643436-.8077041V19.704577h1.2803511v-2.0383699l.1044665-.1770834.1057404-.1770834.1044665-.1758094.1057404-.1770834.1503298-2.25749465.1566997-2.25876866.1516037-2.25622069.1503298-2.25749467c.0187738-.26606191-.019-.53308381-.1108364-.78349843-.088582-.24046616-.2241333-.46089945-.3987561-.64845642-.361273-.38600164-.8663172-.60508474-1.3950094-.60514107l-.0050959-.00382194z" fill="#9DADB7" fill-rule="nonzero" style="mix-blend-mode:multiply"/><path d="M32.9944827 26.3292792c-.2327972 0-.460683.0235778-.6797285.0687686-.22101.0451909-.4321973.1110123-.6345442.1964819-.2013646.0854697-.3938889.1896051-.5726614.3114238-.1797548.1208364-.3467401.2593561-.4999737.4116296-.1522513.1532559-.2907509.3212479-.4125519.5000464-.1208188.179781-.2259213.3713508-.3113785.5737272-.0844749.2013939-.1512691.4135944-.1964533.6336541-.0451843.2200597-.0687587.4469963-.0687587.6808097 0 .2328311.0235744.4597677.0687587.6798274.0451842.2200597.1119784.4312778.1964533.6336541.0854572.2013939.1905597.3939462.3113785.5737271.121801.179781.2603006.3467906.4125519.4990641.1532336.1532558.3202189.2917756.4999737.4126119.1787725.1218188.3712968.2259542.5726614.3114238.2023469.0854697.4135342.1512911.6345442.1964819.2190455.0451909.4469313.0687687.6797285.0687687.2327971 0 .460683-.0235778.6797284-.0687687.2200277-.0451908.4321973-.1110122.633562-.1964819.2023469-.0854696.3938888-.189605.5736436-.3114238.1797548-.1208363.3467401-.2593561.4999737-.4126119.1522513-.1522735.2907509-.3192831.412552-.4990641.1208187-.1797809.2259213-.3723332.3113785-.5737271.0844749-.2023763.151269-.4135944.1964533-.6336541.044202-.2200597.0687586-.4469963.0687586-.6798274 0-.2338134-.0245566-.46075-.0687586-.6808097-.0451843-.2200597-.1119784-.4322602-.1964533-.6336541-.0854572-.2023764-.1905598-.3939462-.3113785-.5737272-.1218011-.1787985-.2603007-.3467905-.412552-.5000464-.1532336-.1522735-.3202189-.2907932-.4999737-.4116296-.1797548-.1218187-.3712967-.2259541-.5736436-.3114238-.2013647-.0854696-.4135343-.151291-.633562-.1964819-.2190454-.0451908-.4469313-.0687686-.6797284-.0687686" fill="#0099DA"/><path d="M34.2047648 27.6032604c-.0614936 0-.1216899.0062281-.1795509.0181653-.05838.0119372-.1141653.029324-.1676155.0519009-.0531906.0225768-.1040461.0500843-.151269.0822628-.0474824.0319191-.0915917.0685092-.1320685.1087324-.0402174.0404827-.0768022.0848579-.108976.1320877-.0319144.0474893-.0596773.0980927-.0822509.1515506-.0223142.0531984-.0399579.1092513-.0518934.1673803-.0119354.058129-.0181626.1180745-.0181626.1798366 0 .0615025.0062272.121448.0181626.179577.0119355.058129.0295792.1139224.0518934.1673803.0225736.0531984.0503365.1040613.0822509.1515506.0321738.0474893.0687586.091605.108976.1318282.0404768.0404827.0845861.0770728.1320685.1089919.0472229.0321785.0980784.059686.151269.0822629.0534502.0225768.1092355.0399636.1676155.0519008.057861.0119372.1180573.0181653.1795509.0181653.0614936 0 .1216899-.0062281.1795509-.0181653.0581205-.0119372.1141653-.029324.167356-.0519008.0534501-.0225769.1040461-.0500844.1515285-.0822629.0474824-.0319191.0915917-.0685092.1320685-.1089919.0402174-.0402232.0768022-.0843389.108976-.1318282.0319144-.0474893.0596773-.0983522.0822509-.1515506.0223142-.0534579.0399579-.1092513.0518934-.1673803.011676-.058129.0181626-.1180745.0181626-.179577 0-.0617621-.0064866-.1217076-.0181626-.1798366-.0119355-.058129-.0295792-.1141819-.0518934-.1673803-.0225736-.0534579-.0503365-.1040613-.0822509-.1515506-.0321738-.0472298-.0687586-.091605-.108976-.1320877-.0404768-.0402232-.0845861-.0768133-.1320685-.1087324-.0474824-.0321785-.0980784-.059686-.1515285-.0822628-.0531907-.0225769-.1092355-.0399637-.167356-.0519009-.057861-.0119372-.1180573-.0181653-.1795509-.0181653" fill="#FFF"/><path d="M92.2814547 2.03636364H63.90036382c-.71135885 0-1.39358229.2825862-1.89658895.78559286-.50300667.50300667-.78559287 1.18523011-.78559287 1.89658895V33.0996364c0 1.4813281 1.2008537 2.6821818 2.68218182 2.6821818H92.2814547c.7113589 0 1.3935823-.2825862 1.896589-.7855929.5030066-.5030066.7855928-1.1852301.7855928-1.8965889V4.71854545c0-.71135884-.2825862-1.39358228-.7855928-1.89658895-.5030067-.50300666-1.1852301-.78559286-1.896589-.78559286z" fill="#081935" fill-rule="nonzero" opacity=".2" style="mix-blend-mode:multiply"/><path d="M94.3178184 0H65.93672745c-1.48132811 0-2.68218181 1.2008537-2.68218181 2.68218182V31.0632727c0 .7113589.2825862 1.3935823.78559286 1.896589.50300667.5030066 1.18523011.7855928 1.89658895.7855928H94.3178184c1.4813281 0 2.6821818-1.2008537 2.6821818-2.6821818V2.68218182C97.0000002 1.2008537 95.7991465 0 94.3178184 0z" fill="#FFE700" fill-rule="nonzero"/><path class="number3-dash-animate" stroke="#023852" stroke-width=".5" fill="transparent" d="M79.8990748 21.039521h-1.4957721v2.6292143h-3.6232989V21.039521h-5.41636725v-2.6942479l5.64863005-8.2592633h3.3910361v8.2128107h1.4957721v2.7407005zm-5.119071-2.7407005v-1.5793866c0-.2972978.0108388-.6983342.0325168-1.2031211.021678-.5047869.0387104-.7695637.0510978-.7943386h-.1021956c-.210586.4769153-.44904.9228553-.7153693 1.3378335l-1.5050626 2.2390128h2.2390129zm11.2903585-8.40791141c1.4307457 0 2.5440473.28800291 3.3399383.86401741.795891.5760145 1.1938306 1.3935712 1.1938306 2.4526946 0 .7184697-.1873568 1.3486697-.5620759 1.8906188-.3747191.5419491-.9677574 1.014212-1.7791326 1.4168027 1.00338.5698208 1.7110001 1.1380847 2.1228815 1.7048086.4118813.5667239.6178189 1.1783431.6178189 1.8348757 0 1.2077723-.4366496 2.1430076-1.3099619 2.805734-.8733123.6627263-2.0934537.9940846-3.6604609.9940846-1.5979757 0-2.8212139-.3236162-3.6697514-.9708583-.8485375-.6472421-1.2727999-1.5778322-1.2727999-2.7917983 0-.7866004.1889052-1.4570588.5667211-2.0113953.377816-.5543366 1.0126611-1.0575675 1.9045546-1.5097079-.7184697-.4831089-1.2433783-1.0018239-1.5747415-1.5561604-.3313631-.5543365-.4970422-1.1628588-.4970422-1.8255852 0-1.0405423.4056815-1.850357 1.2170567-2.4294683.8113753-.5791114 1.9324189-.86866271 3.3631646-.86866271zM84.4538136 19.9432408c0 .3840097.1362595.6921418.4087824.9244057.272523.2322639.6503333.3483941 1.1334422.3483941 1.090092 0 1.6351298-.3994879 1.6351298-1.1984757 0-.3034915-.119227-.6023333-.3576846-.8965342-.2384577-.294201-.6642684-.6240108-1.2774452-.9894393-.5512369.2911041-.9460824.5837522-1.18454.8779531-.2384576.294201-.3576846.60543-.3576846.9336963zm1.5979677-7.4045364c-.3158789 0-.5822042.0913558-.7989838.2740701-.2167797.1827142-.3251679.4196199-.3251679.710724 0 .5326585.3623263 1.003373 1.0869897 1.4121575.439753-.2539419.7401431-.4862023.9011794-.6967883.1610363-.2105859.2415533-.44904.2415533-.7153692 0-.2972978-.1083882-.5357519-.3251679-.7153693-.2167796-.1796174-.4769113-.2694248-.7804028-.2694248z" fill-rule="nonzero"/></g></svg>