<svg width="115" height="90" xmlns="http://www.w3.org/2000/svg" xmlns:xlink="http://www.w3.org/1999/xlink"><defs><style>.icon-blink2{animation:blink-animation 1s steps(5, start) infinite;-webkit-animation:blink-animation 1s steps(5, start) infinite;animation-delay:500ms}.icon-blink3{animation:blink-animation 1s steps(5, start) infinite;-webkit-animation:blink-animation 1s steps(5, start) infinite;animation-delay:350ms}.icon-blink4{animation:blink-animation 1s steps(5, start) infinite;-webkit-animation:blink-animation 1s steps(5, start) infinite;animation-delay:450ms}.icon-blink5{animation:blink-animation 1s steps(5, start) infinite;-webkit-animation:blink-animation 1s steps(5, start) infinite;animation-delay:500ms}#camara-numer{stroke-dasharray:5;stroke-dashoffset:2;animation:dash 2s linear forwards;-webkit-animation:dash 2s linear forwards}.test-stroke{fill:none;stroke:#000;stroke-width:2;stroke-miterlimit:5}.scale-height{animation-duration:3000ms;animation-iteration-count:infinite;transform-origin:50% 86%;animation-name:scale-height}.animate-line{stroke-dasharray:241;stroke-dashoffset:0;-webkit-animation:dash 3s linear forwards;-o-animation:dash 3s linear forwards;-moz-animation:dash 3s linear forwards;animation:dash 3s linear forwards}.animate-line-long{stroke-dasharray:350;stroke-dashoffset:0;-webkit-animation:dash-long 4s linear forwards;-o-animation:dash-long 4s linear forwards;-moz-animation:dash-long 4s linear forwards;animation:dash-long 4s linear forwards}.backup-local-animation{-webkit-animation:backup-local-animation 2s ease infinite;-o-animation:backup-local-animation 2s ease infinite;-moz-animation:backup-local-animation 2s ease infinite;animation:backup-local-animation 2s ease infinite}.calender{-webkit-animation:calender 500ms ease forwards;-o-animation:calender 500ms ease forwards;-moz-animation:calender 500ms ease forwards;animation:calender 500ms ease forwards}.calender-blue-month{-webkit-animation:calender-blue 500ms ease forwards;-o-animation:calender-blue 500ms ease forwards;-moz-animation:calender-blue 500ms ease forwards;animation:calender-blue 500ms ease forwards;fill:#cad3d6;animation-delay:1200ms}.calender-blue-week{-webkit-animation:calender-blue 500ms ease forwards;-o-animation:calender-blue 500ms ease forwards;-moz-animation:calender-blue 500ms ease forwards;animation:calender-blue 500ms ease forwards;fill:#cad3d6;animation-delay:400ms}.calender:nth-of-type(2){animation-delay:50ms}.calender:nth-of-type(3){animation-delay:100ms}.calender:nth-of-type(18){animation-delay:150ms}.calender:nth-of-type(5){animation-delay:200ms}.calender:nth-of-type(6){animation-delay:250ms}.calender:nth-of-type(7){animation-delay:300ms}.calender:nth-of-type(8){animation-delay:350ms}.calender:nth-of-type(9){animation-delay:400ms}.calender:nth-of-type(10){animation-delay:450ms}.calender:nth-of-type(11){animation-delay:500ms}.calender:nth-of-type(14){animation-delay:550ms}.calender:nth-of-type(13){animation-delay:600ms}.calender:nth-of-type(12){animation-delay:650ms}.calender:nth-of-type(15){animation-delay:700ms}.calender:nth-of-type(16){animation-delay:750ms}.calender:nth-of-type(17){animation-delay:800ms}.calender:nth-of-type(4){animation-delay:850ms}.calender:nth-of-type(19){animation-delay:900ms}.calender:nth-of-type(20){animation-delay:950ms}.calender:nth-of-type(21){animation-delay:1000ms}.calender:nth-of-type(25){animation-delay:1050ms}.calender:nth-of-type(23){animation-delay:1100ms}.calender:nth-of-type(24){animation-delay:11500ms}.calender:nth-of-type(22){animation-delay:1200ms}.calender:nth-of-type(26){animation-delay:1250ms}.calender:nth-of-type(27){animation-delay:1300ms}.calender:nth-of-type(28){animation-delay:1350ms}.calender:nth-of-type(29){animation-delay:1400ms}.animate-line-check-marks-month{-webkit-animation:animate-line-check-marks 1s linear forwards;-o-animation:animate-line-check-marks 1s linear forwards;-moz-animation:animate-line-check-marks 1s linear forwards;animation:animate-line-check-marks 1s linear forwards;animation-delay:1800ms;opacity:0}.animate-line-check-marks-week{-webkit-animation:animate-line-check-marks 1s linear forwards;-o-animation:animate-line-check-marks 1s linear forwards;-moz-animation:animate-line-check-marks 1s linear forwards;animation:animate-line-check-marks 1s linear forwards;animation-delay:800ms;opacity:0}.camara-detect-right{-webkit-animation:camara-detect-right 5s linear forwards;-o-animation:camara-detect-right 5s linear forwards;-moz-animation:camara-detect-right 5s linear forwards;animation:camara-detect-right 5s linear forwards;transform-origin:center}.camara-detect-left{-webkit-animation:camara-detect-left 5s linear forwards;-o-animation:camara-detect-left 5s linear forwards;-moz-animation:camara-detect-left 5s linear forwards;animation:camara-detect-left 5s linear forwards;transform-origin:center}.cloud-1{-webkit-animation:cloud-ani 30s ease infinite;-o-animation:cloud-ani 30s ease infinite;-moz-animation:cloud-ani 30s ease infinite;animation:cloud-ani 30s ease infinite}.cloud-2{-webkit-animation:cloud-ani-fast-out 13s ease infinite;-o-animation:cloud-ani-fast-out 13s ease infinite;-moz-animation:cloud-ani-fast-out 13s ease infinite;animation:cloud-ani-fast-out 13s ease infinite;animation-delay:1000ms}.cloud-3{-webkit-animation:cloud-ani 12s ease infinite;-o-animation:cloud-ani 12s ease infinite;-moz-animation:cloud-ani 12s ease infinite;animation:cloud-ani 12s ease infinite;animation-delay:500ms}.camara-move{animation:camara-move-ani 3s linear infinite}.rotate{transform-origin:center 11%;animation-name:rotate;animation-duration:2000ms;animation-iteration-count:infinite;animation-timing-function:ease-in-out}@keyframes scale-height{0%{transform:scaleY(0) translateY(-6%)}50%{transform:scaleY(1)}100%{transform:scaleY(0) translateY(-6%)}}@keyframes rotate{0%{transform:rotateY(0deg)}20%{transform:rotateY(0deg)}50%{transform:rotateY(90deg)}80%{transform:rotateY(0deg)}100%{transform:rotateY(0deg)}}@-webkit-keyframes dash{from{stroke-dashoffset:241}to{stroke-dashoffset:0}}@keyframes dash{from{stroke-dashoffset:241}to{stroke-dashoffset:0}}@-webkit-keyframes dash-long{from{stroke-dashoffset:350}to{stroke-dashoffset:0}}@keyframes dash-long{from{stroke-dashoffset:350}to{stroke-dashoffset:0}}@-webkit-keyframes dash-number3{0%{stroke-dashoffset:70}90%{stroke-dashoffset:0;fill:#02375200}100%{fill:#023852}}@keyframes dash-number3{0%{stroke-dashoffset:70}90%{stroke-dashoffset:0;fill:#02375200}100%{fill:#023852}}@-webkit-keyframes backup-local-animation{0%{transform:translateY(0)}50%{transform:translateY(-6%)}100%{transform:translateY(0)}}@keyframes backup-local-animation{0%{transform:translateY(0)}50%{transform:translateY(-6%)}100%{transform:translateY(0)}}@-webkit-keyframes calender{0%{opacity:0}100%{opacity:1}}@keyframes calender{0%{opacity:0}100%{opacity:1}}@keyframes calender-blue{0%{fill:#cad3d6}100%{fill:#50bfee}}@-webkit-keyframes animate-line-check-marks{0%{opacity:0}100%{opacity:1}}@keyframes animate-line-check-marks{0%{opacity:0}100%{opacity:1}}@keyframes camara-detect-right{0%{transform:translate(0, 0) scaleY(1)}10%{transform:translate(-80%, 0)}20%{transform:translate(-50%, 0);fill:rgb(255, 255, 255)}25%{transform:translate(-50%, 0) scaleY(0.5);fill:rgb(255, 231, 0)}26%{transform:translate(-50%, 0) scaleY(0.5);fill:rgba(255, 230, 0, 0)}27%{transform:translate(-50%, 0) scaleY(0.5);fill:rgb(255, 231, 0)}28%{transform:translate(-50%, 0) scaleY(0.5);fill:rgba(255, 230, 0, 0)}29%{transform:translate(-50%, 0) scaleY(0.5);fill:rgb(255, 231, 0)}65%{transform:translate(-50%, 0) scaleY(0.5);fill:rgb(255, 231, 0)}80%{transform:translate(-50%, 0) scaleY(0.5);fill:rgb(255, 231, 0)}100%{transform:translate(0, 0) scaleY(1);fill:rgb(255, 255, 255)}}@-webkit-keyframes camara-detect-right{0%{transform:translate(0, 0) scaleY(1)}10%{transform:translate(-80%, 0)}20%{transform:translate(-50%, 0);fill:rgb(255, 255, 255)}25%{transform:translate(-50%, 0) scaleY(0.5);fill:rgb(255, 231, 0)}26%{transform:translate(-50%, 0) scaleY(0.5);fill:rgba(255, 230, 0, 0)}27%{transform:translate(-50%, 0) scaleY(0.5);fill:rgb(255, 231, 0)}28%{transform:translate(-50%, 0) scaleY(0.5);fill:rgba(255, 230, 0, 0)}29%{transform:translate(-50%, 0) scaleY(0.5);fill:rgb(255, 231, 0)}65%{transform:translate(-50%, 0) scaleY(0.5);fill:rgb(255, 231, 0)}80%{transform:translate(-50%, 0) scaleY(0.5);fill:rgb(255, 231, 0)}100%{transform:translate(0, 0) scaleY(1);fill:rgb(255, 255, 255)}}@keyframes camara-detect-left{0%{transform:translate(0, 0) scaleY(1)}10%{transform:translate(80%, 0)}20%{transform:translate(13%, 0);fill:rgb(255, 255, 255)}25%{transform:translate(13%, 0) scaleY(0.5);fill:rgb(255, 231, 0)}26%{transform:translate(13%, 0) scaleY(0.5);fill:rgba(255, 230, 0, 0)}27%{transform:translate(13%, 0) scaleY(0.5);fill:rgb(255, 231, 0)}28%{transform:translate(13%, 0) scaleY(0.5);fill:rgba(255, 230, 0, 0)}29%{transform:translate(13%, 0) scaleY(0.5);fill:rgb(255, 231, 0)}65%{transform:translate(13%, 0) scaleY(0.5);fill:rgb(255, 231, 0)}80%{transform:translate(13%, 0) scaleY(0.5);fill:rgb(255, 231, 0)}100%{transform:translate(0, 0) scaleY(1);fill:rgb(255, 255, 255)}}@-webkit-keyframes camara-detect-left{0%{transform:translate(0, 0) scaleY(1)}10%{transform:translate(80%, 0)}20%{transform:translate(13%, 0);fill:rgb(255, 255, 255)}25%{transform:translate(13%, 0) scaleY(0.5);fill:rgb(255, 231, 0)}26%{transform:translate(13%, 0) scaleY(0.5);fill:rgba(255, 230, 0, 0)}27%{transform:translate(13%, 0) scaleY(0.5);fill:rgb(255, 231, 0)}28%{transform:translate(13%, 0) scaleY(0.5);fill:rgba(255, 230, 0, 0)}29%{transform:translate(13%, 0) scaleY(0.5);fill:rgb(255, 231, 0)}65%{transform:translate(13%, 0) scaleY(0.5);fill:rgb(255, 231, 0)}80%{transform:translate(13%, 0) scaleY(0.5);fill:rgb(255, 231, 0)}100%{transform:translate(0, 0) scaleY(1);fill:rgb(255, 255, 255)}}@keyframes cloud-ani{0%{transform:translate(0%, 0%)}95%{transform:translate(-50%, -1%);opacity:0}99%{opacity:0;transform:translate(5%, 0%)}100%{transform:translate(0%, 0%);opacity:1}}@keyframes cloud-ani-fast-out{0%{transform:translate(0%, 0%)}55%{transform:translate(-20%, -1%);opacity:0}95%{transform:translate(-50%, -1%);opacity:0}99%{opacity:0;transform:translate(5%, 0%)}100%{transform:translate(0%, 0%);opacity:1}}@keyframes camara-move-ani{0%{transform:translate(0, 0)}10%{transform:translate(-3%, 7%) rotate(-5deg)}30%{transform:translate(0, 0)}90%{transform:translate(-3%, 7%) rotate(-5deg)}100%{transform:translate(0, 0)}}@keyframes blink-animation{to{visibility:hidden}}@-webkit-keyframes blink-animation{to{visibility:hidden}}</style><path id="a" d="M0 .192h5.033v5.396H0z"/></defs><g fill="none" fill-rule="evenodd"><path d="M41.319 48.84v19.01H36.96c-1.249-1.542-2.682-4.493-4.702-7.141-2.02-2.649-4.635-5.03-8.23-5.365a1.125 1.125 0 01-.697-.36 1.163 1.163 0 01-.276-.738v-4.291a1.115 1.115 0 011.106-1.106H41.32v-.009z" fill="#96A6AE"/><path d="M28.72 72.451v4.25a.772.772 0 01-.226.553.84.84 0 01-.553.235H3.265a.63.63 0 01-.587-.637v-4.4a12.987 12.987 0 013.923-9.363l.268-.268.285-.252a13.402 13.402 0 014.552-2.556 12.97 12.97 0 013.973-.62 13.47 13.47 0 012.036.159c.66.1 1.31.256 1.945.46.62.2 1.225.443 1.81.73.581.29 1.142.621 1.677.99.31.217.62.452.913.703.294.245.574.505.839.78a13.138 13.138 0 012.79 4.19 12.939 12.939 0 011.032 5.046" fill="#E2E6E8"/><path d="M14.916 63.09l.277-.27.293-.25a12.893 12.893 0 012.037-1.442 13.88 13.88 0 012.305-1.031c-.66-.22-1.335-.388-2.02-.503a12.777 12.777 0 00-2.137-.176 12.94 12.94 0 00-3.973.62A13.68 13.68 0 009.3 61.07c-.751.418-1.461.905-2.12 1.459l-.285.251-.277.268a12.983 12.983 0 00-3.94 9.405v4.4a.629.629 0 00.621.637h7.694v-5.03a12.985 12.985 0 013.923-9.37" fill="#FFF"/><path d="M27.304 77.489c.035 6.397-5.124 11.612-11.521 11.645a11.588 11.588 0 01-5.695-1.462l.218-.183.226-.185-2.699-3.219-2.69-3.21-.226.194-.227.191c-.21-.597-.37-1.21-.477-1.834a12.392 12.392 0 01-.16-1.937h23.251z" fill="#F2F2F2"/><path d="M4.623 81.311l-.838.713-.838.712a.679.679 0 00-.243.461.724.724 0 00.159.495l.21.251.217.25 1.794 2.147 1.785 2.171.252.293.243.294a.702.702 0 00.46.234c.181.019.36-.04.495-.159l.839-.713.838-.704a.67.67 0 00.094-.944c-.004-.002-.007-.007-.01-.01L7.817 84.11l-2.238-2.716a.687.687 0 00-.956-.084" fill="#023852"/><g transform="translate(1.836 84.027)"><mask id="b" fill="#fff"><use xlink:href="#a"/></mask><path d="M5.033 4.484l-.444.368-.444.378a1.492 1.492 0 01-2.104-.165c-.006-.005-.01-.013-.017-.02l-.838-.989-.838-.989A1.517 1.517 0 01.532.947L.976.569 1.43.192l1.794 2.145 1.81 2.147z" fill="#194D6D" mask="url(#b)"/></g><path d="M27.304 77.489c0 6.416-5.2 11.617-11.617 11.617h-.008c-.424.001-.845-.021-1.266-.067-.425-.05-.847-.123-1.266-.217h.135a4.687 4.687 0 003.646-5.34 4.77 4.77 0 00-4.862-4.317H4.18c0-.277-.075-.553-.092-.838-.017-.285 0-.562 0-.838h23.217z" fill="#C0CACE"/><path d="M23.139 61.748a13.727 13.727 0 00-3.478-1.735 12.376 12.376 0 00-1.945-.46 13.47 13.47 0 00-2.037-.16 12.94 12.94 0 00-3.973.62A13.62 13.62 0 009.3 61.07c-.751.418-1.461.906-2.12 1.459a21.39 21.39 0 002.975-3.546 8.304 8.304 0 001.551-4.267v-3.083a2.182 2.182 0 01.629-1.527 2.145 2.145 0 011.525-.636h9.22v5.163h-3.353v.704a11.172 11.172 0 001.333 3.496 13.186 13.186 0 002.079 2.916" fill="#CAD3D6"/><path fill="#FFF" d="M70.931 74.195h-3.68V62.972h3.68v5.607z"/><path fill="#FFF" d="M67.88 73.013l.922 1.592.922 1.593-6.99 3.453-6.99 3.454-.922-1.593-.922-1.593 6.99-3.453z"/><path d="M61.217 48.471h-.93a8.138 8.138 0 00.87 16.252l13.965-.209 13.972-.218-.595-8.088-.595-8.097-13.344.168-13.343.192z" fill="#FAFBFB"/><path d="M94.325 51.313a8.156 8.156 0 11-12.939 9.934 8.156 8.156 0 0112.939-9.934" fill="#023852"/><path d="M92.732 56.744a4.55 4.55 0 11-8.996-1.38 4.55 4.55 0 018.996 1.38" fill="#0099DA"/><path d="M89.27 53.416a.838.838 0 11-.006.004l.006-.004" fill="#FFF"/><path d="M73.295 75.1a4.25 4.25 0 11-8.5-.018 4.25 4.25 0 018.5.018m-24.701-1.927V89.85a8.381 8.381 0 100-16.678" fill="#023852"/><path fill="#C0CACE" d="M70.931 67.766h-3.68V64.64h3.68v1.567z"/><path d="M18.945 37.272A14.404 14.404 0 014.526 22.853v-3.894h28.837v3.894a14.407 14.407 0 01-14.418 14.419z" fill="#BAC6CD" fill-rule="nonzero"/><path d="M24.534 19.586v11.369a6.02 6.02 0 00.58-.257 5.774 5.774 0 00.541-.314 5.857 5.857 0 00.507-.367 5.674 5.674 0 00.464-.419 5.945 5.945 0 001.746-4.215v-5.797h-3.838zm-14.323 0v5.797a5.95 5.95 0 001.742 4.215 5.674 5.674 0 00.464.419 5.857 5.857 0 00.512.367 5.774 5.774 0 00.542.314c.188.096.453.181.65.257V19.586h-3.91z" fill="#023852" fill-rule="nonzero"/><path d="M19.295 18.98h-5.243v11.955a5.826 5.826 0 001.026.303 5.973 5.973 0 001.097.106h6.247a5.57 5.57 0 001.097-.106c.18-.034.351-.077.523-.127s.338-.115.503-.176V18.98h-5.25z" fill="#023852" fill-rule="nonzero"/><path d="M27.462 18.96v1.265a14.409 14.409 0 01-17.184 14.15 14.446 14.446 0 001.914 1.22 14.338 14.338 0 006.75 1.677 14.404 14.404 0 0014.42-14.419v-3.894h-5.9z" fill="#FFF" fill-rule="nonzero" opacity=".3"/><path d="M34.354 20.877H4.048a1.81 1.81 0 01-1.806-1.806v-2.576a1.81 1.81 0 011.806-1.804h30.306a1.804 1.804 0 011.664 1.105c.094.222.142.46.142.701v2.576c0 .24-.048.48-.142.7a1.82 1.82 0 01-.962.963c-.222.094-.461.142-.702.14z" fill="#CED6DB" fill-rule="nonzero"/><path fill="#CED6DB" fill-rule="nonzero" d="M32.858 15.288H1.227l.102.301.102.3H37.25l.09-.149.089-.15.089-.151.09-.151h-2.375zM1.43 15.89h35.82v1.742H1.43v-1.306z"/><path d="M2.338 5.868h34.165a1.627 1.627 0 011.623 1.735l-.132 1.921-.13 1.921-.127 1.922-.13 1.92H1.23l-.123-1.92-.134-1.922-.129-1.92-.129-1.922a1.627 1.627 0 011.623-1.735z" fill="#9DADB7" fill-rule="nonzero"/><path d="M12.474 10.829a1.882 1.882 0 10-3.763.01 1.882 1.882 0 003.763-.01z" fill="#FFE700" fill-rule="nonzero" style="animation:blink-animation 1s steps(5, start) infinite;-webkit-animation:blink-animation 1s steps(5, start) infinite"/><path d="M5.784 10.482a.526.526 0 100 1.052.526.526 0 000-1.052z" fill="#0099DA" fill-rule="nonzero"/><path d="M36.506 5.878H19.363v15.007h15.031a1.77 1.77 0 001.631-1.082c.093-.217.14-.451.14-.688V17.64h1.09v-1.735l.09-.15.09-.152.088-.15.09-.15.128-1.922.134-1.923.129-1.92.128-1.923a1.608 1.608 0 00-.434-1.219 1.627 1.627 0 00-1.188-.515l-.004-.003z" fill="#9DADB7" fill-rule="nonzero" style="mix-blend-mode:multiply"/><path d="M19.49 23.28a2.865 2.865 0 00-2.383 1.267 2.896 2.896 0 00-.432 1.028 2.875 2.875 0 102.816-2.295" fill="#0099DA"/><path d="M20.521 24.365a.757.757 0 00-.744.912.773.773 0 00.207.384.754.754 0 00.69.207.751.751 0 00.477-.32.774.774 0 00.13-.424.776.776 0 00-.13-.424.794.794 0 00-.206-.205.75.75 0 00-.424-.13" fill="#FFF"/><g fill-rule="nonzero"><path d="M95.377 19.495v18.75a9.515 9.515 0 01-7.376-6.51 9.49 9.49 0 01-.314-1.376 9.574 9.574 0 01.314-4.244 9.625 9.625 0 011.469-2.843 9.82 9.82 0 012.3-2.173c.178-.119.365-.238.552-.34.186-.101.373-.212.577-.314a9.574 9.574 0 012.47-.848l.008-.102z" fill="#FAFBFB"/><path d="M85.497 18.086a1.222 1.222 0 01-.848 1.51l-4.057 1.206-4.083 1.197-4.499 1.324-4.498 1.315-6.62 1.936-6.613 1.952a1.222 1.222 0 01-.933-.102 1.265 1.265 0 01-.586-.73l-.119-.416-.119-.407-.594-1.995-.586-2.046 3.396-.195 3.395-.187 13.173-3.861 13.198-3.896.162.551.16.552.332 1.137.34 1.155z" fill="#D3DADD"/><path d="M84.504 14.69l-13.181 3.897-13.19 3.861-3.395.187-3.396.195-1.426.077-1.426.076-2.138.12-2.14.118-.661-2.215-.646-2.216a1.214 1.214 0 01.798-1.502l2.759-.849 2.758-.849 15.788-4.634L80.795 6.33a1.18 1.18 0 01.917.093c.28.155.488.414.577.722l.34 1.146.33 1.137.765 2.606.78 2.657z" fill="#EAEDEF"/><path d="M86.05 15.455l-.612.178-.611.186-.161-.551-.162-.577-.763-2.547-.764-2.606.61-.178.612-.178a1.808 1.808 0 011.35.144c.408.232.712.612.848 1.061l.094.323.093.314.187.636.186.637.145.492.144.493c.131.452.076.938-.153 1.35a1.698 1.698 0 01-1.044.823zM52.521 26.87l-.713.203-.713.213c-.33.097-.685.057-.984-.11a1.222 1.222 0 01-.62-.765l-.51-1.697-.5-1.698 1.426-.076 1.434-.11.595 2.02.585 2.02z" fill="#023852"/><path d="M73.326 31.734h3.48a4.762 4.762 0 01-.9.688 4.405 4.405 0 01-1.06.458 4.685 4.685 0 01-5.823-3.174l-.747-2.547-.739-2.546 4.499-1.316 4.498-1.324.56 2.054.56 1.944h-4.328a2.86 2.86 0 00-2.877 2.886c.003.764.308 1.496.848 2.037.539.537 1.268.84 2.029.84z" fill="#FAFBFB"/><path d="M87.984 31.666H73.326a2.877 2.877 0 01-2.037-.848 2.886 2.886 0 01.908-4.702 2.895 2.895 0 011.12-.221H88.01a9.507 9.507 0 00-.314 4.243 9.49 9.49 0 00.288 1.528z" fill="#D3DADD"/><path d="M94.053 14.53l-.271.407-.297.399a12.282 12.282 0 00-1.146 1.8 2.759 2.759 0 00-.255 1.841c.067.247.167.484.297.704.131.246.317.458.543.62a11.981 11.981 0 00-1.129.654 3.964 3.964 0 01-.568-.79 3.692 3.692 0 01-.34-.891 3.794 3.794 0 01.297-2.546c.362-.757.806-1.471 1.324-2.13l.272-.383.263-.382c.213-.334.338-.716.365-1.112a3.132 3.132 0 00-.153-1.273 2.69 2.69 0 00-.509-.925 1.8 1.8 0 00-.755-.526 2.631 2.631 0 00-2.054 0 7.07 7.07 0 00-1.757 1.298l-.594.501a8.65 8.65 0 01-.62.484l-.187-.637-.187-.636.39-.314.383-.331c.62-.6 1.33-1.098 2.105-1.477a3.837 3.837 0 012.911 0c.476.174.9.466 1.23.849.36.407.631.884.799 1.4.198.57.274 1.174.22 1.774a3.497 3.497 0 01-.577 1.621z" fill="#0099DA"/><path d="M98.798 16.117V41.58h-1.392a1.995 1.995 0 01-1.435-.594 2.029 2.029 0 01-.594-1.434V18.145c0-.538.214-1.054.594-1.434a1.995 1.995 0 011.435-.594h1.392z" fill="#D3DADD"/><path fill="#C0CACE" style="mix-blend-mode:multiply" d="M84.886 16.032l-12.944 3.794-12.935 3.794-3.404.187-3.403.186h-.009l-.254.017-.255.017-1.163.06-1.18.068-.254.008-.255.017-.17-.603-.178-.594 1.426-.076 1.426-.077 3.412-.195 3.404-.187 13.173-3.861 13.181-3.87.162.55.16.552.035.102z"/><path d="M75.108 28.865c0 .896-.725 1.621-1.62 1.621a1.621 1.621 0 110-3.233c.891 0 1.616.72 1.62 1.612z" fill="#96A6AE"/></g><g fill-rule="nonzero"><path d="M110.281 2.036h-28.38a2.682 2.682 0 00-2.683 2.683v28.38c0 1.482 1.201 2.683 2.682 2.683h28.381a2.682 2.682 0 002.683-2.682V4.719a2.682 2.682 0 00-2.683-2.683z" fill="#081935" opacity=".2" style="mix-blend-mode:multiply"/><path d="M112.318 0H83.937a2.682 2.682 0 00-2.682 2.682v28.381a2.682 2.682 0 002.682 2.682h28.38c1.482 0 2.683-1.2 2.683-2.682V2.683C115 1.2 113.8 0 112.318 0z" fill="#FFE700"/><path stroke="#023852" stroke-width=".5" fill="transparent" d="M108.89 17.014a6.478 6.478 0 01-.741 3.055 5.634 5.634 0 01-2.086 2.235 5.587 5.587 0 01-2.969.82c-1.943 0-3.631-.855-5.063-2.566-.733.78-1.516 1.385-2.348 1.816-.832.43-1.65.646-2.453.646-1.734 0-3.146-.562-4.234-1.685s-1.632-2.61-1.632-4.46c0-1.77.553-3.23 1.658-4.383 1.106-1.152 2.509-1.728 4.208-1.728 2.049 0 3.695.843 4.94 2.531.688-.768 1.424-1.37 2.21-1.807.785-.436 1.69-.655 2.714-.655 1.735 0 3.134.565 4.2 1.694 1.064 1.13 1.597 2.625 1.597 4.487zM93.44 18.62c.744 0 1.472-.582 2.182-1.746-.733-1.164-1.473-1.746-2.217-1.746-.501 0-.9.17-1.196.507-.297.337-.446.762-.446 1.274 0 .524.158.94.472 1.249.314.308.716.462 1.204.462zm9.41-3.387c-.733 0-1.496.57-2.287 1.711.36.524.748.96 1.16 1.31.414.349.801.523 1.162.523.489 0 .879-.18 1.17-.54.29-.362.436-.792.436-1.293 0-.489-.151-.896-.454-1.222-.302-.326-.698-.489-1.187-.489z" style="-webkit-animation:dash-number3 2s linear forwards;-o-animation:dash-number3 2s linear forwards;-moz-animation:dash-number3 2s linear forwards;animation:dash-number3 2s linear forwards" stroke-dasharray="65"/></g></g></svg>