<?xml version="1.0" encoding="UTF-8"?>
<svg width="440px" height="330px" viewBox="0 0 440 330" version="1.1" xmlns="http://www.w3.org/2000/svg" xmlns:xlink="http://www.w3.org/1999/xlink">
    <title>Graphic elements / Icons / Rich icons / car</title>
    <g id="Graphic-elements-/-Icons-/-Rich-icons-/-car" stroke="none" stroke-width="1" fill="none" fill-rule="evenodd">
        <g id="Car" transform="translate(0.000000, 179.000000)" fill-rule="nonzero">
            <polygon id="Path" fill="#023852" points="439.52818 151.289776 220.109726 151.289776 0.69127182 151.289776 0.69127182 141.95212 0.69127182 132.625436 220.109726 132.625436 439.52818 132.625436 439.52818 141.95212"></polygon>
            <polygon id="Path" fill="#023852" points="122.761097 58.9446384 78.234414 58.9446384 33.7077307 58.9446384 33.7077307 84.3351621 33.7077307 109.714713 78.234414 109.714713 122.761097 109.714713 122.761097 84.3351621"></polygon>
            <polygon id="Path" fill="#023852" points="395.594015 58.9446384 351.067332 58.9446384 306.529676 58.9446384 306.529676 84.3351621 306.529676 109.714713 351.067332 109.714713 395.594015 109.714713 395.594015 84.3351621"></polygon>
            <path d="M439.363591,72.1775561 L436.708229,70.3780549 L434.008978,68.5785536 C433.856277,65.8329439 433.489409,63.1034503 432.911721,60.4149626 C431.383317,53.111121 429.054023,45.998128 425.966085,39.2049875 L425.669825,36.801995 L425.373566,34.4099751 L424.100748,34.3331671 L415.18005,33.7955112 C409.71215,33.342271 404.282308,32.5100129 398.929676,31.3047382 C393.981047,30.2074813 390.316209,29.274813 390.316209,29.274813 C371.245753,21.7182455 351.807028,15.1263645 332.073815,9.52418953 C319.060349,5.91421446 312.476808,4.81695761 312.476808,4.81695761 C312.476808,4.81695761 299.430424,2.8967581 281.17207,1.52518703 C262.913716,0.15361596 239.476309,-0.757107232 218.628429,1.31670823 C197.780549,3.39052369 174.343142,12.9586035 156.084788,22.0109726 C145.346746,27.2985327 134.900446,33.1590099 124.791022,39.5670823 C124.791022,39.5670823 110.822943,40.7521197 92.9925187,42.8698254 C75.1620948,44.9875312 53.4912718,47.9610973 38.1296758,51.3955112 C22.7680798,54.8299252 13.2877805,62.5436409 7.77955112,70.9925187 C3.15040992,78.1980296 0.65842392,86.5680589 0.592518703,95.1321696 C0.525380085,99.8748019 1.02636927,104.608413 2.08478803,109.23192 C2.41995212,110.769923 2.92027756,112.267221 3.57705736,113.697756 L22.405985,113.697756 L41.2239401,113.697756 C41.2239401,113.280798 41.1581047,112.852868 41.1361596,112.424938 C41.1142145,111.997007 41.1361596,111.58005 41.1361596,111.141147 L41.1361596,97.8862843 C41.1902912,79.5537823 56.0286579,64.7007145 74.3610973,64.6284289 L79.3206983,64.6284289 C97.670279,64.6766372 112.535265,79.5367205 112.589526,97.8862843 L112.589526,111.174065 C112.589526,111.62394 112.589526,112.062843 112.589526,112.501746 C112.589526,112.940648 112.589526,113.368579 112.490773,113.807481 L213.438404,113.906234 L314.386035,114.01596 C314.386035,113.54414 314.309227,113.072319 314.287282,112.600499 C314.265337,112.128678 314.287282,111.656858 314.287282,111.174065 L314.287282,97.8862843 C314.341252,79.5708171 329.153036,64.724747 347.468329,64.6284289 L352.42793,64.6284289 C370.775719,64.6766652 385.637549,79.5384952 385.685786,97.8862843 L385.685786,111.174065 C385.685786,111.66783 385.685786,112.150623 385.685786,112.633416 C385.685786,113.116209 385.685786,113.599002 385.587032,114.081796 L388.714214,114.081796 L405.809476,111.108229 L422.893766,108.123691 C426.350474,106.675457 429.374253,104.358486 431.67182,101.397506 C435.973067,96.1526185 440.098753,87.1660848 439.363591,72.1775561 Z" id="Path" fill="#0099DA"></path>
            <path d="M111.9202,43.5501247 C126.930673,44.4389027 153.056359,44.6473815 178.951621,44.5486284 C204.846883,44.4498753 230.522693,43.9890274 244.534663,43.5501247 C258.546633,43.1112219 275.082294,42.2992519 294.009975,41.5970075 C312.937656,40.8947631 334.323192,40.313217 358.166584,40.313217 C373.869641,40.2606783 389.564354,41.0444983 405.18404,42.6613466 C417.034414,43.9341646 425.000499,45.4044888 428.829925,46.1945137 C428.412968,45.0972569 427.974065,44 427.502244,42.7930175 C427.030424,41.5860349 426.525686,40.4339152 425.977057,39.2049875 L425.680798,36.8129676 L425.384539,34.4099751 L424.111721,34.3331671 L415.191022,33.8064838 C409.723123,33.3532435 404.29328,32.5209854 398.940648,31.3157107 C393.99202,30.2184539 390.327182,29.2857855 390.327182,29.2857855 C371.258578,21.7241772 351.819596,15.1322093 332.084788,9.53516209 C319.071322,5.92518703 312.487781,4.82793017 312.487781,4.82793017 C312.487781,4.82793017 299.441397,2.90773067 281.183042,1.5361596 C262.924688,0.164588529 239.487282,-0.746134663 218.639401,1.3276808 C197.791521,3.40149626 174.288279,12.8817955 156.029925,21.9451372 C145.293313,27.2354135 134.847156,33.0958103 124.73616,39.5012469 C124.73616,39.5012469 110.822943,40.7630923 93.0034913,42.880798 C75.1840399,44.9985037 53.5022444,47.9720698 38.1406484,51.4064838 C37.1311721,51.6259352 36.1436409,51.8783042 35.1780549,52.1416459 C34.2124688,52.4049875 33.2798005,52.6793017 32.3581047,52.9755611 C44.2852868,50.4738155 59.0982544,47.8184539 73.5162095,45.9421446 C87.9341646,44.0658354 101.726683,42.957606 111.9202,43.5501247 Z" id="Path" fill="#38AEE0"></path>
            <path d="M112.05187,92.1037406 C112.249377,93.2009975 112.413965,94.1995012 112.512718,95.2638404 C112.623941,96.3575528 112.678876,97.456259 112.677307,98.555611 L112.677307,111.832419 C112.677307,112.282294 112.677307,112.721197 112.677307,113.1601 C112.677307,113.599002 112.622444,114.026933 112.589526,114.465835 L213.537157,114.564589 L314.484788,114.674314 C314.440898,114.198836 314.40798,113.727016 314.386035,113.258853 C314.386035,112.787032 314.386035,112.315212 314.386035,111.832419 L314.386035,98.5226933 C314.363672,95.6523445 314.665501,92.7886496 315.285786,89.9860349 C315.880398,87.2959527 316.867525,84.7079797 318.215461,82.3052369 C304.247382,84.005985 282.192519,86.2334165 250.185536,88.153616 C218.178554,90.0738155 176.296259,91.6538653 122.695262,92.1695761 C120.76409,92.1695761 118.909726,92.2354115 117.13217,92.2244389 C115.354613,92.2134663 113.664838,92.1695761 112.05187,92.1037406 Z" id="Path" fill="#003A5D" opacity="0.2"></path>
            <path d="M143.367581,39.8633416 C150.965489,34.3887467 158.883483,29.3726733 167.079302,24.8418953 C180.421945,17.4573566 197.57207,9.76558603 213.624938,7.93316708 C218.782045,7.34064838 224.915711,6.83591022 231.181047,6.47381546 C237.446384,6.1117207 243.843392,5.9032419 249.549127,5.9032419 C257.317706,5.9032419 264.241397,6.17755611 269.969077,6.50673317 C275.696758,6.83591022 280.195511,7.25286783 283.13616,7.51620948 L284.0798,7.59301746 L285.023441,7.680798 C289.294817,8.16097473 293.533996,8.89376283 297.718703,9.87531172 C301.921197,10.80798 305.300748,11.6857855 305.575062,11.7625935 L305.706733,11.7625935 L305.838404,11.8174564 C306.277307,12.0369077 311.719701,14.7471322 318.248379,18.4887781 C324.777057,22.2304239 332.370075,27.0254364 337.13217,31.3925187 C337.326719,31.5657244 337.461203,31.7962672 337.516209,32.0508728 C337.593005,32.2973997 337.593005,32.5614532 337.516209,32.80798 C337.430007,33.0527507 337.278174,33.2691129 337.077307,33.4334165 C336.869772,33.5895251 336.622745,33.6845357 336.36409,33.7077307 C335.914214,33.7077307 313.179052,35.7705736 278.077805,37.8334165 C242.976559,39.8962594 195.5202,42.0029925 145.62793,42.2224504 L144.157606,42.2224504 C143.874304,42.2233241 143.597908,42.1350309 143.367581,41.9700748 C143.140958,41.7979279 142.972476,41.5605212 142.884788,41.2897756 C142.796757,41.0187734 142.796757,40.7268625 142.884788,40.4558603 C142.983595,40.2149633 143.151606,40.0087685 143.367581,39.8633416 Z" id="Path" fill="#80CBEB"></path>
            <g id="Group" opacity="0.2" transform="translate(230.423940, 5.486284)" fill="#F4F6F7">
                <path d="M106.697257,25.9720698 C101.935162,21.5830424 94.3311721,16.8099751 87.8134663,13.0683292 C81.2957606,9.32668329 75.842394,6.58354115 75.4034913,6.39700748 L75.2718204,6.34214464 L75.1401496,6.34214464 C74.8658354,6.26533666 71.4862843,5.38753117 67.2837905,4.45486284 C63.099083,3.47331395 58.8599038,2.74052585 54.5885287,2.26034913 L53.6448878,2.17256858 L52.6683292,2.02992519 C49.7386534,1.76658354 45.2289277,1.3605985 39.5012469,1.02044888 C33.7735661,0.680299252 26.8498753,0.416957606 19.0812968,0.416957606 C16.2174564,0.416957606 13.1670823,0.416957606 10.0618454,0.570573566 C6.95660848,0.724189526 3.76359102,0.811970075 0.61446384,0.987531172 L8.06483791,8.43790524 L15.5042394,15.8773067 L24.1835411,24.5566085 L32.9177057,33.2359102 C54.5885287,32.072818 72.7042394,30.8548628 85.4763092,29.9441397 C98.2483791,29.0334165 105.665835,28.3421446 105.918204,28.3201995 C106.17686,28.2970046 106.423887,28.201994 106.631421,28.0458853 C106.832289,27.8815817 106.984122,27.6652195 107.070324,27.4204489 C107.14712,27.173922 107.14712,26.9098685 107.070324,26.6633416 C107.024942,26.3983091 106.893889,26.1554751 106.697257,25.9720698 L106.697257,25.9720698 Z" id="Path"></path>
            </g>
            <path d="M76.961596,132.62544 C91.6513649,132.632156 104.299902,122.260428 107.170935,107.853953 C110.041967,93.4474776 102.335744,79.019298 88.7656531,73.3941771 C75.1955621,67.7690562 59.5416642,72.513918 51.3784131,84.7266445 C43.2151621,96.9393709 44.8164992,113.218006 55.2029925,123.605985 C60.9696262,129.383688 68.7985146,132.628945 76.961596,132.62544 Z" id="Path" fill="#023852"></path>
            <path d="M76.961596,79.7376329 C66.3948626,79.7225491 57.2898407,87.1758812 55.2173625,97.5373925 C53.1448843,107.898904 58.6825148,118.281015 68.4421005,122.331517 C78.2016863,126.382019 89.4633945,122.972106 95.3368422,114.188104 C101.21029,105.404101 100.058646,93.6939647 92.5865337,86.2224439 C88.4472604,82.0698524 82.8248372,79.7363888 76.961596,79.7376329 Z" id="Path" fill="#DFE4E6"></path>
            <path d="M351.122195,132.625445 C365.824139,132.636496 378.485723,122.258752 381.361261,107.840757 C384.236799,93.422762 376.525091,78.9817493 362.94375,73.351965 C349.362409,67.7221807 333.695554,72.4722307 325.527338,84.6962862 C317.359121,96.9203417 318.965422,113.212459 329.363591,123.605985 C335.130225,129.383688 342.959113,132.628945 351.122195,132.625445 L351.122195,132.625445 Z" id="Path" fill="#023852"></path>
            <path d="M351.122195,79.7376329 C340.555461,79.7225491 331.450439,87.1758812 329.377961,97.5373925 C327.305483,107.898904 332.843113,118.281015 342.602699,122.331517 C352.362285,126.382019 363.623993,122.972106 369.497441,114.188104 C375.370888,105.404101 374.219244,93.6939647 366.747132,86.2224439 C362.607859,82.0698524 356.985436,79.7363888 351.122195,79.7376329 Z" id="Path" fill="#DFE4E6"></path>
            <path d="M41.8932668,106.872818 L-0.000215920585,106.872818 L-0.000215920585,111.569077 C-0.00880555361,112.241177 0.252034079,112.888786 0.724217931,113.367155 C1.19640178,113.845525 1.84056114,114.114713 2.5127182,114.114713 L41.8932668,114.114713 L41.8932668,106.872818 Z" id="Path" fill="#023852"></path>
            <path d="M385.894264,107.048378 C385.710368,107.048096 385.53347,107.118855 385.400499,107.245885 C385.274141,107.374848 385.203253,107.54813 385.202993,107.728678 L385.202993,111.470324 C385.202993,111.843392 385.202993,112.216459 385.202993,112.567581 L385.137157,113.664838 C385.118473,113.854026 385.182483,114.042056 385.312718,114.180549 C385.44085,114.32389 385.625238,114.404059 385.817456,114.4 L388.86783,114.4 L405.985037,111.437406 L423.091272,108.430923 L423.146135,108.430923 L423.146135,108.430923 C423.266833,108.430923 423.563092,108.277307 424.012968,108.068828 C424.462843,107.860349 425.033416,107.56409 425.713716,107.158105 L405.798504,107.158105 L385.894264,107.048378 Z" id="Path" fill="#023852"></path>
            <polygon id="Path" fill="#023852" points="314.857855 107.13616 213.657855 107.13616 112.446883 107.13616 112.446883 110.800998 112.446883 114.454863 213.657855 114.454863 314.857855 114.454863 314.857855 110.800998"></polygon>
            <path d="M356.356116,101.847382 C356.356448,99.3182579 354.569677,97.1413127 352.08903,96.648506 C349.608384,96.1556993 347.125185,97.4843699 346.158776,99.8215731 C345.192366,102.158776 346.012071,104.853164 348.116356,106.256179 C350.220641,107.659194 353.023068,107.379835 354.808978,105.589027 C355.801608,104.597091 356.358335,103.250681 356.356116,101.847382 Z" id="Path" fill="#A5B1B8"></path>
            <path d="M82.2942759,101.847382 C82.2913735,100.437981 81.7272056,99.087781 80.7264971,98.0953088 C79.7257886,97.1028367 78.3709724,96.5498465 76.961596,96.558501 C74.0346246,96.558501 71.6618454,98.9313827 71.6618454,101.858354 C71.6618454,104.785326 74.0346246,107.158207 76.961596,107.158207 C78.3747758,107.166886 79.7329336,106.610891 80.7342802,105.613665 C81.7356267,104.616439 82.2972175,103.260586 82.2942759,101.847382 Z" id="Path" fill="#A5B1B8"></path>
            <path d="M11.7077307,70.0159601 L14.8239401,70.0159601 L17.9291771,70.0159601 L19.3336658,71.7715711 L20.7491272,73.5162095 C20.7491272,73.5162095 23.1301746,72.8249377 26.476808,71.5301746 C30.4546186,70.0249281 34.2764634,68.1360548 37.8882793,65.8902743 L44.5376559,61.6109726 L45.4812968,61.0074813 C45.4812968,61.0074813 43.9451372,59.9102244 39.5780549,59.8224439 C35.2109726,59.7346633 28.0239401,60.5356608 16.7112219,64.3321696 C16.2304378,64.7342884 15.7793845,65.1706733 15.361596,65.6379052 C14.045158,67.0121633 12.8243486,68.4749349 11.7077307,70.0159601 L11.7077307,70.0159601 Z" id="Path" fill="#F4F6F7"></path>
            <path d="M161.165087,29.0773067 C160.713105,28.7664768 160.13351,28.7085173 159.628928,28.9236908 C154.74333,30.9310696 149.980292,33.2246558 145.364589,35.7925187 C140.854863,38.4149626 137.376559,41.1471322 137.376559,43.3416459 C137.376559,46.1396509 138.682294,47.5441397 142.149626,48.246384 C145.616958,48.9486284 151.234913,48.9376659 159.881297,48.9376659 C160.758977,48.932259 161.475801,48.2348094 161.505237,47.357606 L161.669825,38.8977556 L161.83442,30.4488778 C161.835153,30.1780457 161.771201,29.9109532 161.64788,29.6698254 C161.540263,29.4342849 161.374037,29.23028 161.165087,29.0773067 L161.165087,29.0773067 Z" id="Path" fill="#023852"></path>
            <path d="M159.376559,27.6508728 C159.16884,27.5142483 158.932172,27.4278458 158.685287,27.3985037 C158.434934,27.3738915 158.18238,27.4115861 157.950125,27.5082294 C153.44079,29.3711033 149.044257,31.4960942 144.783042,33.8723192 C140.613466,36.2862843 137.398504,38.8099751 137.398504,40.8508728 C137.398504,43.440399 138.605486,44.7351621 141.787531,45.3825436 C144.969576,46.0299252 150.192519,46.0299252 158.180549,46.0299252 C158.995719,46.02436 159.660181,45.3744483 159.683791,44.559601 L159.837406,36.7361596 L159.991049,28.9236908 C159.992439,28.6728647 159.936123,28.425076 159.826434,28.1995012 C159.720004,27.9848863 159.566168,27.797281 159.376559,27.6508728 Z" id="Path" fill="#0099DA"></path>
            <path d="M305.706733,46.9296758 C303.499035,47.1749867 301.377605,47.9259355 299.507232,49.1241895 C298.794586,49.5732577 298.154494,50.1282503 297.608978,50.7700748 C297.608978,50.7700748 299.298753,50.6164589 301.789526,50.4518703 C304.280299,50.2872818 307.550125,50.1007481 310.710224,50.0349127 C313.870324,49.9690773 315.571072,48.9376559 316.470823,47.9830424 C316.988584,47.4472884 317.339324,46.772495 317.480299,46.0408978 L311.599002,46.4907731 L305.706733,46.9296758 Z" id="Path" fill="#023852"></path>
            <path d="M216.510723,51.6588529 C214.303379,51.9057056 212.18229,52.6565336 210.311222,53.8533666 C209.597807,54.2969964 208.957456,54.8485127 208.412968,55.4882793 C208.412968,55.4882793 210.113716,55.3346633 212.593516,55.1700748 C215.073317,55.0054863 218.354115,54.8299252 221.514214,54.7531172 C224.674314,54.6763092 226.375062,53.6558603 227.274813,52.7012469 C227.792574,52.1654929 228.143314,51.4906995 228.284289,50.7591022 L222.402993,51.2089776 L216.510723,51.6588529 Z" id="Path" fill="#023852"></path>
            <g id="Group" opacity="0.5" transform="translate(285.286783, 34.014963)" fill="#A6DAF1">
                <path d="M1.58004988,71.3216958 C1.51830988,71.3321317 1.4552562,71.3321317 1.39351621,71.3216958 C1.333823,71.2929431 1.2784275,71.2560128 1.22892768,71.2119701 C1.13451885,71.1190082 1.07951116,70.9932763 1.0752959,70.8608479 C1.07426096,70.7294925 1.12559462,70.6031327 1.21795511,70.5097257 C12.8049875,58.319202 24.9516209,43.8902743 34.8049875,31.7326683 C44.6583541,19.5750623 52.1965087,9.52418953 54.555611,6.1446384 C55.5081501,4.78056977 55.4085735,2.94292853 54.3142145,1.68977556 L53.99601,1.3276808 L53.6778055,0.965586035 C53.5895451,0.866589807 53.5458967,0.735644456 53.5571072,0.603491272 C53.5680069,0.473652706 53.6266471,0.352462942 53.7216958,0.263341646 C53.822516,0.178280945 53.9520979,0.135086976 54.0837905,0.142643392 C54.218078,0.148563485 54.3444571,0.207803696 54.4349127,0.30723192 L54.7531172,0.669326683 L55.0603491,1.03142145 C55.7262225,1.81234265 56.1123802,2.79318323 56.157606,3.81845387 C56.2156846,4.85061311 55.9216724,5.87191856 55.3236908,6.71521197 C52.9426434,10.1057357 45.3825436,20.1346633 35.5182045,32.3581047 C25.6538653,44.5815461 13.4743142,58.9885287 1.87630923,71.1461347 C1.82680941,71.1901774 1.7714139,71.2271077 1.7117207,71.2558603 C1.67196297,71.2852468 1.62741364,71.3075214 1.58004988,71.3216958 L1.58004988,71.3216958 Z" id="Path"></path>
            </g>
            <g id="Group" opacity="0.5" transform="translate(238.104738, 41.695761)" fill="#A6DAF1">
                <path d="M2.06284289,63.6408978 C1.93215697,63.6385661 1.80700688,63.5877239 1.7117207,63.4982544 C1.62036888,63.4041856 1.5692109,63.2782583 1.56907731,63.1471322 L1.09725686,35.1122195 L0.658354115,7.06633416 C0.658354115,6.94563591 0.658354115,6.82493766 0.658354115,6.69326683 C0.658354115,6.56159601 0.658354115,6.44089776 0.658354115,6.3201995 L1.08628429,3.44538653 L1.5032419,0.570573566 C1.52426402,0.439520079 1.59500546,0.321617673 1.70074813,0.241396509 C1.8059683,0.158047663 1.94113868,0.122267267 2.07381546,0.142643392 C2.20410661,0.165729489 2.32130895,0.236050892 2.40299252,0.340149626 C2.48247219,0.447067831 2.51423889,0.582076284 2.49077307,0.713216958 L2.19451372,3.55511222 L1.76658354,6.42992519 L1.76658354,6.72618454 L1.76658354,7.02244389 L2.20548628,35.0683292 L2.6553616,63.1142145 C2.655228,63.2453406 2.60407002,63.3712679 2.5127182,63.4653367 C2.42113449,63.561729 2.29454587,63.6171115 2.16159601,63.6189526 L2.16159601,63.6189526 L2.06284289,63.6408978 Z" id="Path"></path>
            </g>
            <g id="Group" opacity="0.5" transform="translate(136.059850, 48.279302)" fill="#A6DAF1">
                <path d="M3.17107232,57.0573593 C3.05044927,57.0573593 2.93367351,57.0149324 2.84189526,56.9366584 C2.75153579,56.8530808 2.69330206,56.7404956 2.67730673,56.6184539 C2.67730673,56.4428928 1.58004988,47.840399 0.800997506,36.5825436 C0.0219451372,25.3246883 -0.405985037,11.4004988 0.866832918,0.625436409 C0.881635662,0.49490216 0.948992776,0.376036665 1.05336658,0.296259352 C1.15630767,0.216097004 1.28533865,0.176996707 1.41546135,0.186533666 C1.5477777,0.20521191 1.66872821,0.271539608 1.75561097,0.373067332 C1.83895982,0.478287501 1.87474021,0.613457884 1.85436409,0.746134663 C0.603491272,11.4663342 1.04239401,25.3137157 1.85436409,36.5276808 C2.66633416,47.7416459 3.70872818,56.2783042 3.73067332,56.4977556 C3.74440335,56.6265731 3.70914882,56.7558397 3.6319202,56.8598504 C3.54553042,56.9639212 3.42497942,57.0339186 3.29177057,57.0573593 L3.22593516,57.0573593 L3.17107232,57.0573593 Z" id="Path"></path>
            </g>
            <path d="M431.92419,63.8932668 C431.595012,61.9182045 431.101247,59.5042394 430.366085,56.6074813 C429.630923,53.7107232 428.621446,50.484788 427.293766,46.8967581 L427.063342,46.8967581 L426.832918,46.8967581 C426.591521,46.8967581 423.541147,47.357606 420.073815,47.994015 C416.756735,48.5134857 413.48456,49.2875092 410.286284,50.3092269 C409.977219,50.4245329 409.722693,50.6516483 409.573067,50.9456359 C409.413902,51.2418195 409.3784,51.5889507 409.474314,51.9112219 C409.474314,51.9112219 410.077805,54.1057357 410.714214,56.640399 C411.350623,59.1750623 412.030923,61.8743142 412.206484,63.0264339 C412.256623,63.3414586 412.415855,63.6288518 412.656359,63.838404 C412.899718,64.0503508 413.21145,64.1672505 413.534165,64.167581 L413.534165,64.167581 L422.608479,64.0688279 L431.693766,63.9810474 L431.803491,63.9810474 L431.92419,63.8932668 Z" id="Path" fill="#FFE700"></path>
        </g>
    </g>
</svg>