<?xml version="1.0" encoding="UTF-8"?>
<svg width="440px" height="330px" viewBox="0 0 440 330" version="1.1" xmlns="http://www.w3.org/2000/svg" xmlns:xlink="http://www.w3.org/1999/xlink">
    <title>Graphic elements / Icons / Rich icons / Catalogue</title>
    <defs>
        <linearGradient x1="50.0027099%" y1="100%" x2="50.0027099%" y2="0%" id="linearGradient-1">
            <stop stop-color="#FFFFFF" stop-opacity="0.2" offset="0%"></stop>
            <stop stop-color="#E5EFF6" stop-opacity="0.17" offset="26%"></stop>
            <stop stop-color="#9DC4DE" stop-opacity="0.1" offset="64%"></stop>
            <stop stop-color="#418CBF" stop-opacity="0" offset="100%"></stop>
        </linearGradient>
    </defs>
    <g id="Graphic-elements-/-Icons-/-Rich-icons-/-Catalogue" stroke="none" stroke-width="1" fill="none" fill-rule="evenodd">
        <g id="Catalogue" transform="translate(109.000000, 20.000000)" fill-rule="nonzero">
            <path d="M198.86,45.45 L198.86,12.55 L15.93,12.55 C7.54860332,12.5555159 0.755515893,19.3486033 0.75,27.73 L0.75,274.82 C0.755515893,283.201397 7.54860332,289.994484 15.93,290 L210.7,290 L210.7,45.45 L198.86,45.45 Z" id="Path" fill="#023852" opacity="0.3" style="mix-blend-mode: multiply;"></path>
            <path d="M210,0 L27.09,0 C18.7063175,0 11.91,6.7963175 11.91,15.18 L11.91,38.41 L210,38.41 L210,0 Z" id="Path" fill="#023852"></path>
            <path d="M221.86,32.9 L28.42,32.9 C19.6286396,32.8720206 12.4051385,25.9520649 12,17.17 L12,17.17 L12,262.27 C12,270.653683 18.7963175,277.45 27.18,277.45 L221.86,277.45 L221.86,32.9 Z" id="Path" fill="#0099DA"></path>
            <polygon id="Path" fill="url(#linearGradient-1)" points="36.7 276.77 68.41 276.77 100.13 276.77 160.67 216.23 221.21 155.69 221.21 123.97 221.21 92.26 128.96 184.52"></polygon>
            <polygon id="Path" fill="#FFE700" points="97.82 72.65 68.41 72.65 39 72.65 39 69.77 39 66.89 68.41 66.89 97.82 66.89 97.82 69.77"></polygon>
            <polygon id="Path" fill="#FFFFFF" points="150.87 94.56 94.94 94.56 39 94.56 39 89.38 39 84.19 94.94 84.19 150.87 84.19 150.87 89.38"></polygon>
            <polygon id="Path" fill="#FFFFFF" points="150.87 118.78 94.94 118.78 39 118.78 39 113.59 39 108.4 94.94 108.4 150.87 108.4 150.87 113.59"></polygon>
        </g>
    </g>
</svg>