<?xml version="1.0" encoding="UTF-8"?>
<svg width="440px" height="330px" viewBox="0 0 440 330" version="1.1" xmlns="http://www.w3.org/2000/svg" xmlns:xlink="http://www.w3.org/1999/xlink">
    <title>Graphic elements / Icons / Rich icons / certification</title>
    <defs>
        <linearGradient x1="0%" y1="49.9486427%" x2="99.9521817%" y2="49.9486427%" id="linearGradient-1">
            <stop stop-color="#D0D2CF" offset="0%"></stop>
            <stop stop-color="#FFFFFF" offset="64%"></stop>
        </linearGradient>
    </defs>
    <g id="Graphic-elements-/-Icons-/-Rich-icons-/-certification" stroke="none" stroke-width="1" fill="none" fill-rule="evenodd">
        <g id="Certified" transform="translate(108.000000, 0.000000)" fill-rule="nonzero">
            <path d="M219.221386,121.970783 C219.142244,75.7723106 189.994022,34.6245029 146.437905,19.2241848 C102.881788,3.82386671 54.3474265,17.5051191 25.246988,53.3864458 C25.0680723,53.5951807 24.8990964,53.8039157 24.7301205,54.0225904 L24.2231928,54.6587349 L23.7262048,55.3048193 C23.5572289,55.523494 23.388253,55.7322289 23.2292169,55.9509036 L23.0403614,56.1894578 C22.9707831,56.2689759 22.9111446,56.3584337 22.851506,56.4379518 L22.6626506,56.676506 C22.5942291,56.7550342 22.5311364,56.8380508 22.4737952,56.925 C12.962022,69.4947243 6.30978165,83.9898915 2.98192771,99.3975904 C-0.284613152,114.515019 -0.30494066,130.153649 2.92228916,145.279518 C4.33763879,152.618791 6.51290833,159.790851 9.41295181,166.679819 C18.0174258,187.023314 32.5692281,204.291453 51.1599398,216.219578 L51.1599398,329.006024 L58.1177711,325.378012 L65.0756024,321.75 L72.0334337,318.112048 L78.9912651,314.484036 L78.9912651,314.484036 L86.1677711,310.746687 L93.3343373,306.999398 L100.500904,303.262048 L107.66747,299.514759 L107.66747,299.624096 L108.850301,299.017771 L110.023193,298.401506 L111.196084,297.785241 L112.319277,297.198795 L113.313253,297.785241 L114.356928,298.371687 L115.350904,298.958133 L116.394578,299.544578 L116.394578,299.425301 L122.656627,302.934036 L128.918675,306.442771 L135.170783,309.951506 L141.432831,313.450301 L141.432831,313.450301 L148.390663,317.346687 L155.348494,321.243072 L162.306325,325.139458 L169.264157,329.035843 L169.264157,216.010843 C184.304553,206.279947 196.73063,193.010903 205.454819,177.36506 C214.465132,161.203041 219.177747,142.999409 219.141867,124.495482 L219.141867,124.17741 C219.141867,124.068072 219.141867,123.968675 219.141867,123.859337 C219.141867,123.75 219.141867,123.650602 219.141867,123.541265 L219.141867,123.253012 C219.141867,123.143675 219.141867,123.034337 219.141867,122.93494 C219.141867,122.835542 219.141867,122.726205 219.141867,122.616867 C219.141867,122.50753 219.141867,122.408133 219.141867,122.308735 L219.221386,121.970783 Z" id="Path" fill="#72777D" opacity="0.5" style="mix-blend-mode: multiply;"></path>
            <polygon id="Path" fill="#33AFE2" points="174.253916 317.147892 160.000301 309.166265 145.746687 301.174699 131.493072 293.193072 117.229518 285.201506 101.932229 293.193072 86.6349398 301.174699 71.3376506 309.166265 56.0403614 317.147892 56.0403614 286.076205 56.0403614 254.994578 56.0403614 223.912952 56.0403614 192.841265 85.5912651 192.841265 115.142169 192.841265 144.703012 192.841265 174.253916 192.841265 174.253916 223.912952 174.253916 254.994578 174.253916 286.076205"></polygon>
            <polygon id="Path" fill="#FFFFFF" points="112.528012 287.765964 113.710843 287.159639 114.883735 286.543373 116.056627 285.927108 117.229518 285.310843 118.273193 285.897289 119.316867 286.483735 120.360542 287.070181 121.404217 287.646687 121.404217 270.570181 121.404217 253.493675 121.404217 236.417169 121.404217 219.340663 119.187651 219.340663 116.971084 219.340663 114.744578 219.340663 112.528012 219.340663 112.528012 236.446988 112.528012 253.553313 112.528012 270.659639"></polygon>
            <polygon id="Path" fill="#0099DA" points="83.8518072 192.841265 76.9039157 192.841265 69.9460843 192.841265 62.988253 192.841265 56.0403614 192.841265 56.0403614 223.912952 56.0403614 254.994578 56.0403614 286.076205 56.0403614 317.147892 62.988253 313.51988 69.9460843 309.891867 76.9039157 306.253916 83.8518072 302.625904 83.8518072 275.182229 83.8518072 247.738554 83.8518072 220.28494"></polygon>
            <polygon id="Path" fill="#0099DA" points="146.44247 192.841265 146.44247 220.016566 146.44247 247.201807 146.44247 274.387048 146.44247 301.562349 153.390361 305.458735 160.348193 309.35512 167.306024 313.251506 174.253916 317.147892 174.253916 286.076205 174.253916 254.994578 174.253916 223.912952 174.253916 192.841265 167.306024 192.841265 160.348193 192.841265 153.390361 192.841265"></polygon>
            <path d="M56.0403614,204.759036 L56.0403614,221.050301 C69.0469489,229.416809 83.6898817,234.910027 98.9900602,237.162651 C109.621895,238.719895 120.423888,238.719895 131.055723,237.162651 C141.373494,235.628142 151.416398,232.61527 160.875,228.216867 C165.506031,226.069189 169.980052,223.598015 174.263855,220.821687 L174.263855,204.013554 C165.455703,209.770806 155.855799,214.214151 145.766566,217.203614 C125.84896,223.108426 104.664063,223.235963 84.6768072,217.571386 C74.5588747,214.716406 64.9117412,210.400143 56.0403614,204.759036 L56.0403614,204.759036 Z" id="Path" fill="#72777D" opacity="0.5" style="mix-blend-mode: multiply;"></path>
            <path d="M191.747892,187.732229 C231.243417,148.136704 234.325834,85.0612433 198.879247,41.803393 C163.432659,-1.45445729 100.981808,-10.8302836 54.3954802,20.1118601 C7.80915273,51.0540039 -7.76604971,112.253906 18.3613213,161.701481 C44.4886923,211.149056 103.823851,232.767426 155.636747,211.716867 C169.162074,206.227646 181.443307,198.070582 191.747892,187.732229 L191.747892,187.732229 Z" id="Path" fill="#FFE700"></path>
            <path d="M223.56506,101.504819 C222.567047,121.421701 216.10538,140.679466 204.888253,157.16747 C179.128971,195.252702 132.28563,213.140209 87.6977542,201.917607 C43.109878,190.695005 10.3160692,152.763124 5.65572289,107.021386 C5.65572289,107.468675 5.65572289,107.925904 5.58614458,108.383133 C5.51656627,108.840361 5.58614458,109.287651 5.53644578,109.74488 L5.53644578,111.106627 C5.53644578,111.563855 5.53644578,112.021084 5.53644578,112.478313 C5.53644578,151.540786 26.3760261,187.636 60.20512,207.167237 C94.0342139,226.698473 135.713376,226.698473 169.54247,207.167237 C203.371564,187.636 224.211145,151.540786 224.211145,112.478313 C224.211145,111.553916 224.211145,110.629518 224.211145,109.70512 C224.211145,108.780723 224.151506,107.866265 224.101807,106.951807 C224.052108,106.037349 223.99247,105.132831 223.922892,104.218373 C223.853313,103.303916 223.644578,102.379518 223.56506,101.504819 Z" id="Path" fill="#FAC614"></path>
            <path d="M114.774398,10.7349398 C173.19931,10.6315548 221.347086,56.5493745 224.012349,114.913554 C224.012349,114.525904 224.012349,114.128313 224.062048,113.740663 C224.111747,113.353012 224.062048,112.955422 224.062048,112.567771 C224.062048,112.18012 224.062048,111.78253 224.062048,111.38494 C224.062048,110.987349 224.062048,110.599699 224.062048,110.202108 C224.062049,71.1396354 203.222468,35.0444216 169.393374,15.5131849 C135.56428,-4.01805176 93.8851175,-4.01805176 60.0560236,15.5131849 C26.2269298,35.0444216 5.3873494,71.1396354 5.3873494,110.202108 C5.3873494,110.599699 5.3873494,110.997289 5.3873494,111.39488 C5.3873494,111.79247 5.3873494,112.18012 5.3873494,112.577711 C5.3873494,112.975301 5.3873494,113.362952 5.3873494,113.750602 C5.3873494,114.138253 5.3873494,114.535843 5.3873494,114.933434 C6.65044476,86.9132805 18.6782015,60.4614734 38.9638554,41.0909639 C59.3438851,21.5280666 86.5247188,10.644329 114.774398,10.7349398 Z" id="Path" fill="#FFFFFF"></path>
            <polygon id="Path" fill="url(#linearGradient-1)" style="mix-blend-mode: multiply;" points="113.661145 136.174699 110.361145 139.454819 107.071084 142.74488 103.781024 146.114458 100.481024 149.404518 93.3740964 142.29759 86.2572289 135.180723 79.1403614 128.073795 72.0334337 120.966867 75.323494 117.676807 78.6135542 114.386747 81.9036145 111.106627 85.2036145 107.816566 89.0204819 111.633434 92.8472892 115.440361 96.6641566 119.257229 100.481024 123.074096 110.858133 112.716867 121.26506 102.379518 131.632229 92.0222892 142.009337 81.6650602 145.299398 84.9551205 148.589458 88.2451807 151.879518 91.5253012 155.179518 94.8153614 144.80241 105.17259 134.395482 115.5 124.028313 125.857229"></polygon>
            <polygon id="Path" fill="#0099DA" points="113.661145 131.006024 110.331325 134.296084 107.041265 137.586145 103.751205 140.876205 100.481024 144.126506 93.3740964 137.019578 86.2572289 129.912651 79.1403614 122.815663 72.0334337 115.708735 75.323494 112.418675 78.6135542 109.128614 81.9036145 105.838554 85.2036145 102.548494 89.0204819 106.365361 92.8472892 110.182229 96.6641566 113.999096 100.481024 117.815964 110.858133 107.458735 121.26506 97.1412651 131.632229 86.7840361 141.969578 76.436747 145.259639 79.7168675 148.549699 83.0069277 151.839759 86.296988 155.139759 89.5870482 144.762651 99.9442771 134.395482 110.331325 124.028313 120.678614"></polygon>
            <path d="M38.9042169,36.0316265 L80.5120482,77.5301205 L122.1,119.068373 L156.620783,153.539458 L191.141566,188.010542 L191.201205,187.960843 L191.250904,187.960843 C233.822576,145.323296 233.769174,76.2475758 191.131627,33.6759036 C148.494079,-8.8957686 79.418359,-8.84236642 36.8466867,33.7951807 C36.8431972,33.8115632 36.8431972,33.828497 36.8466867,33.8448795 C36.8466867,33.8448795 36.8466867,33.8448795 36.796988,33.8448795 L37.8704819,34.9183735 L38.9042169,36.0316265 Z" id="Path" fill="#FFFFFF" opacity="0.2"></path>
        </g>
    </g>
</svg>