<?xml version="1.0" encoding="UTF-8"?>
<svg width="440px" height="330px" viewBox="0 0 440 330" version="1.1" xmlns="http://www.w3.org/2000/svg" xmlns:xlink="http://www.w3.org/1999/xlink">
    <title>Graphic elements / Icons / Rich icons / checklist</title>
    <g id="Graphic-elements-/-Icons-/-Rich-icons-/-checklist" stroke="none" stroke-width="1" fill="none" fill-rule="evenodd">
        <g id="Check-Board" transform="translate(100.000000, 0.000000)" fill-rule="nonzero">
            <path d="M217.48,26.31 L150.27,26.31 L150.27,19 C150.277049,17.6262406 150.004875,16.2653746 149.47,15 C148.951276,13.7883674 148.208237,12.6856839 147.28,11.75 C145.368592,9.82883559 142.770047,8.74998759 140.06,8.74998759 L86.33,8.74998759 C84.9567194,8.74998759 83.5968246,9.0198495 82.33,9.55 C81.1183674,10.068724 80.0156839,10.811763 79.08,11.74 C78.1576494,12.6781315 77.4243313,13.7848986 76.92,15 C76.3816946,16.2646565 76.1061137,17.6255497 76.11,19 L76.11,26.32 L15.29,26.32 C11.3287322,26.3233115 7.53070868,27.8986281 4.73,30.7 C1.9235165,33.4923843 0.350060394,37.2910026 0.359953193,41.25 L0.359953193,315.07 C0.354682798,319.03131 1.92595288,322.831904 4.72702446,325.632976 C7.52809605,328.434047 11.3286901,330.005317 15.29,330.000013 L217.48,330.000013 C223.47941,330.000013 228.895334,326.406505 231.23,320.88 C232.008275,319.042192 232.406275,317.065798 232.400073,315.07 L232.400073,41.24 C232.400073,32.9982923 225.721706,26.3155202 217.48,26.31 L217.48,26.31 Z" id="Path" fill="#023852" opacity="0.3" style="mix-blend-mode: multiply;"></path>
            <path d="M224.71,321.230013 L22.52,321.230013 C16.5205902,321.230013 11.1046664,317.636505 8.77,312.11 C7.99172536,310.272192 7.59372508,308.295798 7.59992694,306.3 L7.59992694,32.47 C7.59992694,24.2282923 14.2782942,17.5455202 22.52,17.54 L224.71,17.54 C228.668747,17.5461149 232.464569,19.1169239 235.27,21.91 C238.074242,24.7079771 239.647053,28.5086368 239.640024,32.47 L239.640024,306.3 C239.645317,310.26131 238.074047,314.061904 235.272976,316.862976 C232.471904,319.664047 228.67131,321.235317 224.71,321.230013 L224.71,321.230013 Z" id="Path" fill="#023852"></path>
            <polygon id="Path" fill="#023852" opacity="0.3" style="mix-blend-mode: multiply;" points="207.44 303.15 160.66 303.15 113.88 303.15 67.1 303.15 20.32 303.15 20.32 247.25 20.32 191.34 20.32 123.45 20.32 55.55 67.1 55.55 113.88 55.55 160.66 55.55 207.44 55.55 207.44 123.45 207.44 191.34 207.44 247.25"></polygon>
            <path d="M93.56,36.2301203 L147.29,36.2301203 C148.663281,36.2321294 150.023175,35.9601505 151.29,35.43 C153.731478,34.3898865 155.674389,32.4433906 156.71,30 C157.24015,28.7331754 157.512129,27.3732806 157.510033,26 L157.510033,10.21 C157.513478,8.83658726 157.241446,7.47642796 156.71,6.21 C155.665387,3.77043351 153.715306,1.8311061 151.27,0.8 C150.003175,0.269849503 148.643281,-0.00212944999 147.27,-3.29312647e-05 L93.56,-3.29312647e-05 C92.1865873,-0.00347788614 90.826428,0.268553973 89.56,0.8 C87.1091209,1.83822356 85.1582236,3.78912093 84.12,6.24 C83.588554,7.50642796 83.3165221,8.86658726 83.3199671,10.24 L83.3199671,26 C83.3178706,27.3732806 83.5898495,28.7331754 84.12,30 C85.1582236,32.4508791 87.1091209,34.4017764 89.56,35.44 C90.8271354,35.9680184 92.1872686,36.2366447 93.56,36.2301203 L93.56,36.2301203 Z" id="Path" fill="#9DADB7"></path>
            <polygon id="Path" fill="#9DADB7" points="182.49 67.25 151.53 67.25 120.56 67.25 89.6 67.25 58.63 67.25 58.63 57.28 58.63 47.31 58.63 37.34 58.63 27.38 89.6 27.38 120.56 27.38 151.53 27.38 182.49 27.38 182.49 37.34 182.49 47.31 182.49 57.28"></polygon>
            <polygon id="Path" fill="#F1F3F2" points="215.98 294.12 169.2 294.12 122.42 294.12 75.64 294.12 28.86 294.12 28.86 238.21 28.86 182.31 28.86 114.41 28.86 46.52 75.64 46.52 122.42 46.52 169.2 46.52 215.98 46.52 215.98 114.41 215.98 182.31 215.98 238.21"></polygon>
            <polygon id="Path" fill="#9DADB7" points="160.78 65.22 140.67 65.22 120.56 65.22 100.45 65.22 80.34 65.22 80.34 59.08 80.34 52.94 80.34 46.8 80.34 40.67 100.45 40.67 120.56 40.67 140.67 40.67 160.78 40.67 160.78 46.8 160.78 52.94 160.78 59.08"></polygon>
            <polygon id="Path" fill="#9DADB7" points="48.32 255.53 69.8 255.53 91.27 255.53 112.74 255.53 134.21 255.53 134.21 253.96 134.21 252.39 134.21 250.82 134.21 249.25 112.74 249.25 91.27 249.25 69.8 249.25 48.32 249.25 48.32 250.82 48.32 252.39 48.32 253.96"></polygon>
            <polygon id="Path" fill="#9DADB7" points="48.32 270.97 59.06 270.97 69.8 270.97 80.53 270.97 91.27 270.97 91.27 269.4 91.27 267.83 91.27 266.26 91.27 264.69 80.53 264.69 69.8 264.69 59.06 264.69 48.32 264.69 48.32 266.26 48.32 267.83 48.32 269.4"></polygon>
            <polygon id="Path" fill="#9DADB7" points="188.7 134.01 148.29 134.01 107.88 134.01 107.88 119.65 107.88 105.29 148.29 105.29 188.7 105.29 188.7 119.65"></polygon>
            <polygon id="Path" fill="#9DADB7" points="188.7 176.63 148.29 176.63 107.88 176.63 107.88 162.27 107.88 147.91 148.29 147.91 188.7 147.91 188.7 162.27"></polygon>
            <polygon id="Path" fill="#9DADB7" points="188.7 222.14 148.29 222.14 107.88 222.14 107.88 207.78 107.88 193.41 148.29 193.41 188.7 193.41 188.7 207.78"></polygon>
            <polygon id="Path" fill="#0099DA" points="79.36 108.5 77.1 106.5 74.84 104.49 67.15 113.17 59.45 121.85 56.07 119.15 52.69 116.44 50.51 118.85 48.32 121.25 53.79 126.22 59.25 131.19 59.29 131.14 59.32 131.1 59.32 131.1 59.33 131.1 69.34 119.8"></polygon>
            <polygon id="Path" fill="#0099DA" points="79.36 153.04 77.1 151.04 74.84 149.04 67.15 157.72 59.45 166.39 56.07 163.69 52.69 160.99 50.51 163.39 48.32 165.79 53.79 170.76 59.25 175.73 59.29 175.69 59.32 175.64 59.32 175.64 59.33 175.64 69.34 164.34"></polygon>
            <polygon id="Path" fill="#0099DA" points="79.36 197.59 77.1 195.59 74.84 193.58 67.15 202.26 59.45 210.94 56.07 208.24 52.69 205.53 50.51 207.93 48.32 210.34 53.79 215.3 59.25 220.27 59.29 220.23 59.32 220.18 59.32 220.19 59.33 220.19 69.34 208.89"></polygon>
        </g>
    </g>
</svg>