<svg version="1.1" id="Layer_1" xmlns="http://www.w3.org/2000/svg" x="0" y="0" viewBox="0 0 101 127" xml:space="preserve">
<defs>
<style>.st0{opacity:.2;fill:#003a5d;enable-background:new}.st1{fill:#023852}.st1,.st2,.st3{display:none}.st2{opacity:.8;enable-background:new;fill:#06233c}.st3{fill:#135275}.st9{fill:#023852}.st10{opacity:.8;fill:#06233c;enable-background:new}.st11{fill:#135275}.st14{fill:#009bdb}
.icon-blink {
  animation: blink-animation 1s steps(5, start) infinite;
  -webkit-animation: blink-animation 1s steps(5, start) infinite;
}

.icon-blink2 {
  animation: blink-animation 1s steps(5, start) infinite;
  -webkit-animation: blink-animation 1s steps(5, start) infinite;
  animation-delay: 500ms;
}

.icon-blink3 {
  animation: blink-animation 1s steps(5, start) infinite;
  -webkit-animation: blink-animation 1s steps(5, start) infinite;
  animation-delay: 350ms;
}

.icon-blink4 {
  animation: blink-animation 1s steps(5, start) infinite;
  -webkit-animation: blink-animation 1s steps(5, start) infinite;
  animation-delay: 450ms;
}

.icon-blink5 {
  animation: blink-animation 1s steps(5, start) infinite;
  -webkit-animation: blink-animation 1s steps(5, start) infinite;
  animation-delay: 500ms;
}

#camara-numer {
  stroke-dasharray: 5;
  stroke-dashoffset: 2;
  animation: dash 2s linear forwards;
  -webkit-animation: dash 2s linear forwards;
}

.test-stroke {
  fill: none;
  stroke: #000;
  stroke-width: 2;
  stroke-miterlimit: 5;
}

.scale-height {
  animation-duration: 3000ms;
  animation-iteration-count: infinite;
  transform-origin: 50% 86%;
  animation-name: scale-height;
}

.animate-line {
  stroke-dasharray: 241;
  stroke-dashoffset: 0;
  -webkit-animation: dash 3s linear forwards;
  -o-animation: dash 3s linear forwards;
  -moz-animation: dash 3s linear forwards;
  animation: dash 3s linear forwards;
}

.animate-line-long {
  stroke-dasharray: 350;
  stroke-dashoffset: 0;
  -webkit-animation: dash-long 4s linear forwards;
  -o-animation: dash-long 4s linear forwards;
  -moz-animation: dash-long 4s linear forwards;
  animation: dash-long 4s linear forwards;
}

.number3-dash-animate {
  stroke-dasharray: 65;
  stroke-dashoffset: 0;
  -webkit-animation: dash-number3 2s linear forwards;
  -o-animation: dash-number3 2s linear forwards;
  -moz-animation: dash-number3 2s linear forwards;
  animation: dash-number3 2s linear forwards;
}

.backup-local-animation {
  -webkit-animation: backup-local-animation 2s ease infinite;
  -o-animation: backup-local-animation 2s ease infinite;
  -moz-animation: backup-local-animation 2s ease infinite;
  animation: backup-local-animation 2s ease infinite;
}

.calender {
  -webkit-animation: calender 500ms ease forwards;
  -o-animation: calender 500ms ease forwards;
  -moz-animation: calender 500ms ease forwards;
  animation: calender 500ms ease forwards;
}

.calender-blue-month {
  -webkit-animation: calender-blue 500ms ease forwards;
  -o-animation: calender-blue 500ms ease forwards;
  -moz-animation: calender-blue 500ms ease forwards;
  animation: calender-blue 500ms ease forwards;
  fill: #cad3d6;
  animation-delay: 1200ms;
}

.calender-blue-week {
  -webkit-animation: calender-blue 500ms ease forwards;
  -o-animation: calender-blue 500ms ease forwards;
  -moz-animation: calender-blue 500ms ease forwards;
  animation: calender-blue 500ms ease forwards;
  fill: #cad3d6;
  animation-delay: 400ms;
}

.calender:nth-of-type(2) {
  animation-delay: 50ms;
}

.calender:nth-of-type(3) {
  animation-delay: 100ms;
}

.calender:nth-of-type(18) {
  animation-delay: 150ms;
}

.calender:nth-of-type(5) {
  animation-delay: 200ms;
}

.calender:nth-of-type(6) {
  animation-delay: 250ms;
}

.calender:nth-of-type(7) {
  animation-delay: 300ms;
}

.calender:nth-of-type(8) {
  animation-delay: 350ms;
}

.calender:nth-of-type(9) {
  animation-delay: 400ms;
}

.calender:nth-of-type(10) {
  animation-delay: 450ms;
}

.calender:nth-of-type(11) {
  animation-delay: 500ms;
}

.calender:nth-of-type(14) {
  animation-delay: 550ms;
}

.calender:nth-of-type(13) {
  animation-delay: 600ms;
}

.calender:nth-of-type(12) {
  animation-delay: 650ms;
}

.calender:nth-of-type(15) {
  animation-delay: 700ms;
}

.calender:nth-of-type(16) {
  animation-delay: 750ms;
}

.calender:nth-of-type(17) {
  animation-delay: 800ms;
}

.calender:nth-of-type(4) {
  animation-delay: 850ms;
}

.calender:nth-of-type(19) {
  animation-delay: 900ms;
}

.calender:nth-of-type(20) {
  animation-delay: 950ms;
}

.calender:nth-of-type(21) {
  animation-delay: 1000ms;
}

.calender:nth-of-type(25) {
  animation-delay: 1050ms;
}

.calender:nth-of-type(23) {
  animation-delay: 1100ms;
}

.calender:nth-of-type(24) {
  animation-delay: 11500ms;
}

.calender:nth-of-type(22) {
  animation-delay: 1200ms;
}

.calender:nth-of-type(26) {
  animation-delay: 1250ms;
}

.calender:nth-of-type(27) {
  animation-delay: 1300ms;
}

.calender:nth-of-type(28) {
  animation-delay: 1350ms;
}

.calender:nth-of-type(29) {
  animation-delay: 1400ms;
}

.animate-line-check-marks-month {
  -webkit-animation: animate-line-check-marks 1s linear forwards;
  -o-animation: animate-line-check-marks 1s linear forwards;
  -moz-animation: animate-line-check-marks 1s linear forwards;
  animation: animate-line-check-marks 1s linear forwards;
  animation-delay: 1800ms;
  opacity: 0;
}

.animate-line-check-marks-week {
  -webkit-animation: animate-line-check-marks 1s linear forwards;
  -o-animation: animate-line-check-marks 1s linear forwards;
  -moz-animation: animate-line-check-marks 1s linear forwards;
  animation: animate-line-check-marks 1s linear forwards;
  animation-delay: 800ms;
  opacity: 0;
}

.camara-detect-right {
  -webkit-animation: camara-detect-right 5s linear forwards;
  -o-animation: camara-detect-right 5s linear forwards;
  -moz-animation: camara-detect-right 5s linear forwards;
  animation: camara-detect-right 5s linear forwards;
  transform-origin: center;
}

.camara-detect-left {
  -webkit-animation: camara-detect-left 5s linear forwards;
  -o-animation: camara-detect-left 5s linear forwards;
  -moz-animation: camara-detect-left 5s linear forwards;
  animation: camara-detect-left 5s linear forwards;
  transform-origin: center;
}

.cloud-1 {
  -webkit-animation: cloud-ani 30s ease infinite;
  -o-animation: cloud-ani 30s ease infinite;
  -moz-animation: cloud-ani 30s ease infinite;
  animation: cloud-ani 30s ease infinite;
}

.cloud-2 {
  -webkit-animation: cloud-ani-fast-out 13s ease infinite;
  -o-animation: cloud-ani-fast-out 13s ease infinite;
  -moz-animation: cloud-ani-fast-out 13s ease infinite;
  animation: cloud-ani-fast-out 13s ease infinite;
  animation-delay: 1000ms;
}

.cloud-3 {
  -webkit-animation: cloud-ani 12s ease infinite;
  -o-animation: cloud-ani 12s ease infinite;
  -moz-animation: cloud-ani 12s ease infinite;
  animation: cloud-ani 12s ease infinite;
  animation-delay: 500ms;
}

.camara-move {
  animation: camara-move-ani 3s linear infinite;
}

.rotate {
  transform-origin: center 11%;
  animation-name: rotate;
  animation-duration: 2000ms;
  animation-iteration-count: infinite;
  animation-timing-function: ease-in-out;
}

@keyframes scale-height {
  0% {
    transform: scaleY(0) translateY(-6%);
  }
  50% {
    transform: scaleY(1);
  }
  100% {
    transform: scaleY(0) translateY(-6%);
  }
}

@keyframes rotate {
  0% {
    transform: rotateY(0deg);
  }
  20% {
    transform: rotateY(0deg);
  }
  50% {
    transform: rotateY(90deg);
  }
  80% {
    transform: rotateY(0deg);
  }
  100% {
    transform: rotateY(0deg);
  }
}

@-webkit-keyframes dash {
  from {
    stroke-dashoffset: 241;
  }
  to {
    stroke-dashoffset: 0;
  }
}

@keyframes dash {
  from {
    stroke-dashoffset: 241;
  }
  to {
    stroke-dashoffset: 0;
  }
}

@-webkit-keyframes dash-long {
  from {
    stroke-dashoffset: 350;
  }
  to {
    stroke-dashoffset: 0;
  }
}

@keyframes dash-long {
  from {
    stroke-dashoffset: 350;
  }
  to {
    stroke-dashoffset: 0;
  }
}

@-webkit-keyframes dash-number3 {
  0% {
    stroke-dashoffset: 70;
  }
  90% {
    stroke-dashoffset: 0;
    fill: #02375200;
  }
  100% {
    fill: #023852;
  }
}

@keyframes dash-number3 {
  0% {
    stroke-dashoffset: 70;
  }
  90% {
    stroke-dashoffset: 0;
    fill: #02375200;
  }
  100% {
    fill: #023852;
  }
}

@-webkit-keyframes backup-local-animation {
  0% {
    transform: translateY(0);
  }
  50% {
    transform: translateY(-6%);
  }
  100% {
    transform: translateY(0);
  }
}

@keyframes backup-local-animation {
  0% {
    transform: translateY(0);
  }
  50% {
    transform: translateY(-6%);
  }
  100% {
    transform: translateY(0);
  }
}

@-webkit-keyframes calender {
  0% {
    opacity: 0;
  }
  100% {
    opacity: 1;
  }
}

@keyframes calender {
  0% {
    opacity: 0;
  }
  100% {
    opacity: 1;
  }
}

@keyframes calender-blue {
  0% {
    fill: #cad3d6;
  }
  100% {
    fill: #50bfee;
  }
}

@-webkit-keyframes animate-line-check-marks {
  0% {
    opacity: 0;
  }
  100% {
    opacity: 1;
  }
}

@keyframes animate-line-check-marks {
  0% {
    opacity: 0;
  }
  100% {
    opacity: 1;
  }
}

@keyframes camara-detect-right {
  0% {
    transform: translate(0, 0) scaleY(1);
  }
  10% {
    transform: translate(-80%, 0);
  }
  20% {
    transform: translate(-50%, 0);
    fill: rgb(255, 255, 255);
  }
  25% {
    transform: translate(-50%, 0) scaleY(0.5);
    fill: rgb(255, 231, 0);
  }
  26% {
    transform: translate(-50%, 0) scaleY(0.5);
    fill: rgba(255, 230, 0, 0);
  }
  27% {
    transform: translate(-50%, 0) scaleY(0.5);
    fill: rgb(255, 231, 0);
  }
  28% {
    transform: translate(-50%, 0) scaleY(0.5);
    fill: rgba(255, 230, 0, 0);
  }
  29% {
    transform: translate(-50%, 0) scaleY(0.5);
    fill: rgb(255, 231, 0);
  }
  65% {
    transform: translate(-50%, 0) scaleY(0.5);
    fill: rgb(255, 231, 0);
  }
  80% {
    transform: translate(-50%, 0) scaleY(0.5);
    fill: rgb(255, 231, 0);
  }
  100% {
    transform: translate(0, 0) scaleY(1);
    fill: rgb(255, 255, 255);
  }
}

@-webkit-keyframes camara-detect-right {
  0% {
    transform: translate(0, 0) scaleY(1);
  }
  10% {
    transform: translate(-80%, 0);
  }
  20% {
    transform: translate(-50%, 0);
    fill: rgb(255, 255, 255);
  }
  25% {
    transform: translate(-50%, 0) scaleY(0.5);
    fill: rgb(255, 231, 0);
  }
  26% {
    transform: translate(-50%, 0) scaleY(0.5);
    fill: rgba(255, 230, 0, 0);
  }
  27% {
    transform: translate(-50%, 0) scaleY(0.5);
    fill: rgb(255, 231, 0);
  }
  28% {
    transform: translate(-50%, 0) scaleY(0.5);
    fill: rgba(255, 230, 0, 0);
  }
  29% {
    transform: translate(-50%, 0) scaleY(0.5);
    fill: rgb(255, 231, 0);
  }
  65% {
    transform: translate(-50%, 0) scaleY(0.5);
    fill: rgb(255, 231, 0);
  }
  80% {
    transform: translate(-50%, 0) scaleY(0.5);
    fill: rgb(255, 231, 0);
  }
  100% {
    transform: translate(0, 0) scaleY(1);
    fill: rgb(255, 255, 255);
  }
}

@keyframes camara-detect-left {
  0% {
    transform: translate(0, 0) scaleY(1);
  }
  10% {
    transform: translate(80%, 0);
  }
  20% {
    transform: translate(13%, 0);
    fill: rgb(255, 255, 255);
  }
  25% {
    transform: translate(13%, 0) scaleY(0.5);
    fill: rgb(255, 231, 0);
  }
  26% {
    transform: translate(13%, 0) scaleY(0.5);
    fill: rgba(255, 230, 0, 0);
  }
  27% {
    transform: translate(13%, 0) scaleY(0.5);
    fill: rgb(255, 231, 0);
  }
  28% {
    transform: translate(13%, 0) scaleY(0.5);
    fill: rgba(255, 230, 0, 0);
  }
  29% {
    transform: translate(13%, 0) scaleY(0.5);
    fill: rgb(255, 231, 0);
  }
  65% {
    transform: translate(13%, 0) scaleY(0.5);
    fill: rgb(255, 231, 0);
  }
  80% {
    transform: translate(13%, 0) scaleY(0.5);
    fill: rgb(255, 231, 0);
  }
  100% {
    transform: translate(0, 0) scaleY(1);
    fill: rgb(255, 255, 255);
  }
}

@-webkit-keyframes camara-detect-left {
  0% {
    transform: translate(0, 0) scaleY(1);
  }
  10% {
    transform: translate(80%, 0);
  }
  20% {
    transform: translate(13%, 0);
    fill: rgb(255, 255, 255);
  }
  25% {
    transform: translate(13%, 0) scaleY(0.5);
    fill: rgb(255, 231, 0);
  }
  26% {
    transform: translate(13%, 0) scaleY(0.5);
    fill: rgba(255, 230, 0, 0);
  }
  27% {
    transform: translate(13%, 0) scaleY(0.5);
    fill: rgb(255, 231, 0);
  }
  28% {
    transform: translate(13%, 0) scaleY(0.5);
    fill: rgba(255, 230, 0, 0);
  }
  29% {
    transform: translate(13%, 0) scaleY(0.5);
    fill: rgb(255, 231, 0);
  }
  65% {
    transform: translate(13%, 0) scaleY(0.5);
    fill: rgb(255, 231, 0);
  }
  80% {
    transform: translate(13%, 0) scaleY(0.5);
    fill: rgb(255, 231, 0);
  }
  100% {
    transform: translate(0, 0) scaleY(1);
    fill: rgb(255, 255, 255);
  }
}

@keyframes cloud-ani {
  0% {
    transform: translate(0%, 0%);
  }
  95% {
    transform: translate(-50%, -1%);
    opacity: 0;
  }
  99% {
    opacity: 0;
    transform: translate(5%, 0%);
  }
  100% {
    transform: translate(0%, 0%);
    opacity: 1;
  }
}

@keyframes cloud-ani-fast-out {
  0% {
    transform: translate(0%, 0%);
  }
  55% {
    transform: translate(-20%, -1%);
    opacity: 0;
  }
  95% {
    transform: translate(-50%, -1%);
    opacity: 0;
  }
  99% {
    opacity: 0;
    transform: translate(5%, 0%);
  }
  100% {
    transform: translate(0%, 0%);
    opacity: 1;
  }
}

@keyframes camara-move-ani {
  0% {
    transform: translate(0, 0);
  }
  10% {
    transform: translate(-3%, 7%) rotate(-5deg);
  }
  30% {
    transform: translate(0, 0);
  }
  90% {
    transform: translate(-3%, 7%) rotate(-5deg);
  }
  100% {
    transform: translate(0, 0);
  }
}

@keyframes blink-animation {
  to {
    visibility: hidden;
  }
}

@-webkit-keyframes blink-animation {
  to {
    visibility: hidden;
  }
}

</style>
</defs>
<g id="WIZARD-DESKTOP"><g transform="translate(-35 -1)" id="DESIGN:-Step-4---Filled-out-C"><g id="Asset-6" transform="translate(35.545455 .775758)"><path id="Shape" class="st0" d="M45.3 30.7v.5c-8.2.7-16.1 3.5-22.8 8.1l-.9-1.1-.9-1.2-1.3-1.6-1.4-1.5.2-.2.2-.2 1.2-1 1.2-1-4.8-5.8-4.8-5.9c-.5-.6-1.4-.7-2-.2l-.5.4-.5.4-1.7 1.5-1.7 1.4-1.1.9-1.1.8-.4.3-.3.3-.7.6-.7.6c-.6.5-.7 1.4-.2 2l4.8 5.9 4.8 5.9 1.2-1 1.2-1 2.2 2.7 2.3 2.6-.7.7-.7.7C10.9 49.7 7.4 55.1 5 61c-7.2 17.8-3.1 38.1 10.4 51.7 11.3 11.3 27.4 16.2 43 13S87 111.7 93 96.9c7.2-17.8 3.1-38.1-10.4-51.7l-.7-.6-.7-.6 2.2-2.7 2.2-2.7 1.2 1 1.2 1 4.8-5.9 4.8-5.9c.2-.3.4-.7.3-1s-.2-.7-.5-1l-.6-.5-.7-.6-.3-.3-.3-.4-1-.8-1.2-.9-1.4-1.2-1.4-1.1-.3-.3-.3-.3-.6-.4-.5-.4c-.3-.2-.7-.3-1-.3-.4 0-.7.2-1 .5L82 25.7l-4.8 5.9 1.2 1 1.2 1 .2.2.2.2-1.3 1.6-1.3 1.7-.9 1.2-.9 1.2c-3.5-2.4-7.3-4.3-11.3-5.6-3.9-1.3-8-2.1-12.1-2.4v-.5l-6.9-.5z"/><path class="st1" d="M51.1 26.6c-6.2 0-11.6-4.4-12.8-10.5s2-12.3 7.8-14.7S58.5 1 62 6.2s2.8 12.1-1.6 16.6c-2.5 2.4-5.8 3.8-9.3 3.8zm0-24.2c-5.3 0-9.9 3.8-10.9 9s1.8 10.4 6.7 12.5 10.5.3 13.5-4.1S62.8 9.4 59 5.6c-2-2.1-4.9-3.3-7.9-3.2z"/><path id="Path" class="st2" d="M51.1 26.6c3 0 5.9-1.1 8.3-3v-2.7c-1 1.2-2.3 2.1-3.7 2.7-2.9 1.3-6.3 1.3-9.2 0-1.4-.6-2.6-1.6-3.7-2.7v2.7c1.1.9 2.4 1.7 3.8 2.2 1.5.5 3 .8 4.5.8z"/><path class="st1" d="M50.8 20.6c1 0 1.8.3 2.5 1 .6.6 1 1.5 1 2.4v9.6c0 1.9-1.5 3.4-3.3 3.4h-.1c-1.8 0-3.3-1.5-3.3-3.4V24c0-1.9 1.4-3.4 3.2-3.4zM13.5 34.9l2.8-2.3 2.8-2.3 3.5 4.3 3.5 4.2-2.8 2.3-2.8 2.4-3.5-4.3z"/><path class="st2" d="M13.5 34.9l2.8-2.3 2.8-2.3 1.9 2.2 1.8 2.3-2.8 2.3-2.8 2.3-1.9-2.2z"/><path class="st1" d="M12.1 38.2l5.4-4.5 5.4-4.5-4.8-5.9-4.8-5.9c-.2-.3-.6-.5-.9-.5-.4 0-.7.1-1 .3l-4.3 3.6-4.4 3.6c-.3.2-.5.6-.5.9 0 .4.1.7.3 1l4.8 5.9 4.8 6z"/><path class="st3" d="M14.6 36.2l.3-.3.3-.3-5.2-6.4-5.3-6.5-.3.3-.3.3 5.2 6.4zm5.6-4.6l.3-.3.4-.3-5.3-6.4-5.2-6.5-.4.3-.3.3 5.2 6.4zm-2.8 2.3l.3-.3.3-.3-5.2-6.4-5.2-6.5-.4.3-.3.3 5.2 6.4z"/><path class="st1" d="M88.9 34.9l-2.8-2.3-2.9-2.3-3.4 4.3-3.5 4.2 2.8 2.3 2.8 2.4 3.5-4.3z"/><path class="st2" d="M88.9 34.9l-2.8-2.3-2.9-2.3-1.8 2.2-1.8 2.3 2.8 2.3 2.8 2.3 1.8-2.2z"/><path class="st1" d="M90.3 38.2l-5.4-4.5-5.4-4.5 4.8-5.9 4.8-5.9c.2-.3.6-.5.9-.5.4 0 .7.1 1 .3l4.4 3.6 4.4 3.6c.3.2.5.6.5.9 0 .4-.1.7-.3 1l-4.8 5.9-4.9 6z"/><path class="st3" d="M87.8 36.2l-.3-.3-.3-.3 5.2-6.4 5.2-6.5.4.3.3.3-5.2 6.4zm-5.6-4.6l-.3-.3-.4-.3 5.3-6.4 5.2-6.5.3.3.4.3-5.3 6.4zm2.8 2.3l-.3-.3-.4-.3 5.3-6.4 5.2-6.5.4.3.3.3-5.2 6.4z"/><path class="st1" d="M84.7 110.4c13.6-13.7 17.6-34.2 10.2-52.1-7.4-17.8-24.8-29.4-44-29.3-19.2.1-36.5 11.8-43.8 29.7-8.6 21-1.2 45.2 17.7 57.8s43.9 10 59.9-6.1z"/></g></g></g><g id="WIZARD-DESKTOP_1_"><g transform="translate(-35 -1)" id="DESIGN:-Step-4---Filled-out-C_1_"><g id="Asset-6_1_" transform="translate(35.545455 .775758)"><path id="Shape_1_" class="st0 rotate" d="M51.9 31h.2l.2-.1h.4l.3-.1.3-.1.3-.1.3-.1h.1l.2-.1.2-.3h.1l.1-.1.2-.1.2-.1.1-.1.1-.1.2-.1.2-.1.1-.1.1-.1.2-.1.2-.1H56l.1-.1.2-.1.2-.1.1-.1.1-.1.2-.2.2-.2c3-2.5 4.7-6.2 4.7-10.1-.1-6-4.2-11.2-10.1-12.6s-11.9 1.5-14.5 6.9-1.3 11.9 3.3 15.8l.2.2.2.2.1.5.1.1.2.1.2.1.1.1h.1l.2.1.2.1.1.1.1.1.2.1.2.1.1.1.1.1.2.1c.1 0 .1.1.2.1l.1.1h.1l.2.1.2.1h.2l.3.1.3.1.3.1.3.1h.1-.4.1m-7.4-12.8c0-5 3.3-9.3 8-10.7s9.9.6 12.5 4.8 2.2 9.7-1.1 13.4c-.3.4-.7.7-1 1l-1.2.9-.2.1-.2.1-.3.1-.2.1-.2.1c-.1 0-.1.1-.2.1h-.2l-.2.1-.2.1h-.1l-.2.1-.2.1h-.6v-.2c0-.9-.4-1.7-1-2.4-1-1-2.4-1.2-3.7-.7-1.3.5-2.1 1.7-2.1 3.1v.1l-.2-.1-.2-.1h-.2l-.2-.1-.2-.1h-.2l.2-.2-.2-.1h-.1l-.2-.1-.2-.1-.5.1-.2-.1c-.8-.5-1.5-1.2-2.2-1.9-1.8-2.1-2.8-4.7-2.8-7.5z"/><path class="st9 rotate" d="M50.9 29.1c-6.2 0-11.6-4.4-12.8-10.5s2-12.3 7.8-14.7 12.4-.4 15.9 4.8 2.8 12.1-1.6 16.6c-2.5 2.4-5.8 3.8-9.3 3.8zm0-24.3c-5.3 0-9.9 3.8-10.9 9s1.8 10.4 6.7 12.5 10.5.3 13.5-4.1 2.4-10.3-1.4-14.1c-2-2.1-4.9-3.3-7.9-3.3z"/><path id="Path_1_" class="st10 rotate" d="M50.9 29.1c3 0 5.9-1.1 8.3-3v-2.7c-1 1.2-2.3 2.1-3.7 2.7-2.9 1.3-6.3 1.3-9.2 0-1.4-.6-2.6-1.6-3.7-2.7v2.7c1.1.9 2.4 1.7 3.8 2.2 1.5.5 3 .8 4.5.8z"/><path class="st9" d="M50.6 23c1 0 1.8.3 2.5 1 .6.6 1 1.5 1 2.4V36c0 1.9-1.5 3.4-3.3 3.4h-.1c-1.8 0-3.3-1.5-3.3-3.4v-9.6c0-1.8 1.4-3.3 3.2-3.4zM13.3 37.4l2.8-2.3 2.8-2.4 3.5 4.3 3.5 4.3-2.8 2.3-2.8 2.3-3.5-4.2z"/><path class="st10" d="M13.3 37.4l2.8-2.3 2.8-2.4 1.9 2.3 1.8 2.3-2.8 2.3-2.8 2.3-1.9-2.3z"/><path class="st9" d="M11.9 40.7l5.4-4.5 5.4-4.5-4.7-5.9-4.8-5.9c-.2-.3-.6-.5-.9-.5-.4 0-.7.1-1 .3L7 23.3l-4.4 3.6c-.3.2-.5.6-.5.9 0 .4.1.7.3 1l4.8 5.9 4.7 6z"/><path class="st11" d="M14.4 38.7l.3-.3.3-.3-5.2-6.4-5.3-6.5-.3.3-.3.3 5.2 6.4zM20 34l.3-.2.4-.3-5.3-6.5-5.2-6.4-.4.3-.3.2 5.2 6.5zm-2.8 2.4l.3-.3.3-.3-5.2-6.5-5.2-6.4-.4.3-.3.3 5.2 6.4z"/><path class="st9" d="M88.7 37.4l-2.8-2.3-2.9-2.4-3.4 4.3-3.5 4.3 2.8 2.3 2.8 2.3 3.5-4.2z"/><path class="st10" d="M88.7 37.4l-2.8-2.3-2.9-2.4-1.8 2.3-1.8 2.3 2.8 2.3 2.8 2.3 1.8-2.3z"/><path class="st9" d="M90.1 40.7l-5.4-4.5-5.4-4.5 4.8-5.9 4.8-5.9c.2-.3.6-.5.9-.5.4 0 .7.1 1 .3l4.4 3.6 4.4 3.6c.3.2.5.6.5.9 0 .4-.1.7-.3 1L95 34.7l-4.9 6z"/><path class="st11" d="M87.6 38.7l-.3-.3-.3-.3 5.2-6.4 5.2-6.5.4.3.3.3-5.2 6.4zM82 34l-.3-.2-.4-.3 5.3-6.5 5.2-6.4.3.3.4.2-5.3 6.5zm2.8 2.4l-.3-.3-.4-.3 5.3-6.5 5.2-6.4.4.3.3.3-5.2 6.4z"/><path class="st9" d="M84.5 112.9c13.6-13.7 17.6-34.2 10.2-52.1-7.4-17.8-24.8-29.4-44-29.3-19.2.1-36.5 11.8-43.8 29.7-8.6 21-1.2 45.2 17.7 57.8 18.9 12.6 43.9 10 59.9-6.1z"/><path d="M89.5 79.1c0-18.5-13-34.4-31.1-38-18.1-3.6-36.1 6.1-43.2 23.2s-1.1 36.8 14.2 47 35.7 8.3 48.7-4.8c7.4-7.2 11.5-17.1 11.4-27.4z" fill="#0099da"/><g id="Group_1_" opacity=".8"><path class="st14" d="M5.3 38.8h-5v-.4C.3 18.9 16.1 3.1 35.5 3h.5v5h-2c-.5 0-1.1.1-1.6.1s-1 .1-1.5.2l-1.5.3c-.5.1-1 .2-1.5.4s-1 .3-1.5.5l-1.6.5-1.5.6c-.5.2-1 .5-1.4.7-.5.2-.9.5-1.4.8-.5.3-.9.5-1.4.8-.4.3-.9.6-1.3.9-.4.3-.9.6-1.3 1-.4.3-.8.7-1.2 1-.4.4-.8.7-1.2 1.1s-.7.7-1.1 1.2c-.3.4-.7.8-1 1.2-.3.4-.7.8-1 1.3-.3.4-.6.9-.9 1.3-.3.4-.6.9-.8 1.4-.3.5-.5.9-.8 1.4 0 .3-.3.8-.5 1.3l-.6 1.5c-.2.5-.4 1-.5 1.5-.2.5-.3 1-.5 1.5-.1.5-.3 1-.4 1.5 0 .5-.1 1-.2 1.6-.1.5-.2 1-.2 1.6 0 .5-.1 1.1-.1 1.6v2h-.2zM1.1 38h3.4v-1.2c0-.4 0-.8.1-1.2l-1.7-.2-1.7-.2c0 .5-.1.9-.1 1.4V38zm.2-3.5l1.7.2 1.7.2c0-.4.1-.8.2-1.2.1-.4.1-.8.2-1.2l-1.6-.4-1.7-.4c-.1.5-.2.9-.2 1.4-.1.5-.2.9-.3 1.4zm.6-3.6l1.7.4 1.7.4.3-1.2c.1-.4.2-.8.4-1.2l-1.6-.5-1.6-.5c-.1.5-.3.9-.4 1.4-.2.3-.3.7-.5 1.2zm1-3.5l1.6.5 1.6.5c.1-.4.3-.8.4-1.2.2-.4.4-.8.5-1.2l-1.5-.7-1.5-.7c-.2.4-.4.9-.5 1.3-.3.6-.4 1-.6 1.5zM4.3 24l1.5.7 1.5.7c.2-.4.4-.7.5-1.1.2-.4.4-.7.6-1.1L7 22.3l-1.5-.9-.7 1.3c-.1.5-.3.9-.5 1.3zm1.6-3.2l1.5.8 1.5.8c.2-.4.4-.7.7-1.1.2-.3.5-.7.7-1l-1.4-1-1.4-1c-.3.4-.5.8-.8 1.2-.3.5-.5.9-.8 1.3zm2-3l1.4 1 1.4 1c.3-.3.5-.7.8-1 .3-.3.5-.6.8-.9L11 16.7l-1.3-1.2c-.3.4-.6.7-.9 1.1-.3.3-.6.8-.9 1.2zm2.4-2.8l1.2 1.2 1.3 1.1.9-.9.9-.9-1.2-1.3-1.1-1.3-1 1c-.4.4-.7.8-1 1.1zm2.5-2.5l1.2 1.3 1.1 1.3c.3-.3.6-.5.9-.8.3-.3.6-.5 1-.8L16 12l-1-1.4-1.1.9c-.4.4-.7.7-1.1 1zm2.8-2.3l1 1.4 1 1.4 1-.7 1.1-.7-.8-1.5-.9-1.4-1.2.7c-.4.3-.8.6-1.2.8zm3.1-1.9l.8 1.5.9 1.5 1.1-.6 1.1-.5-.7-1.5-.7-1.7-1.3.6-1.2.7zm3.2-1.6l.7 1.5.7 1.6 1.2-.5 1.2-.4-.6-1.6-.5-1.6-1.3.5-1.4.5zm3.4-1.3l.5 1.6.5 1.6 1.2-.3 1.2-.3-.4-1.7-.3-1.6c-.5.1-1 .2-1.4.3-.5.2-.8.3-1.3.4zm3.5-.9l.3 1.7.4 1.7 1.2-.2 1.2-.2-.2-1.7-.2-1.7-1.4.2-1.3.2zm3.6-.5l.2 1.7.2 1.7 1.2-.1h1.2V3.8h-1.4c-.6 0-.9.1-1.4.2z" transform="translate(15.368687 40.705724)"/><path class="st14" d="M70.8 38.8h-4.9v-2c0-.5-.1-1.1-.1-1.6v-.1c0-.5-.1-1-.2-1.5s-.2-1-.3-1.6c-.1-.5-.2-1-.4-1.5-.1-.5-.3-1-.4-1.5-.2-.5-.3-1-.5-1.5l-.6-1.5c-.2-.5-.4-1-.7-1.4s-.5-.9-.8-1.4c-.3-.5-.5-.9-.8-1.4-.3-.5-.6-.9-.9-1.3-.3-.4-.6-.9-1-1.3-.3-.4-.7-.8-1-1.2-.4-.4-.7-.8-1.1-1.2-.4-.4-.8-.7-1.2-1.1-.4-.3-.8-.7-1.2-1-.4-.3-.8-.7-1.3-1-.4-.3-.9-.6-1.3-.9-.4-.3-.9-.6-1.4-.8-.4-.3-.9-.5-1.4-.8-.5-.2-.9-.5-1.4-.7l-1.5-.6-1.5-.5c-.5-.2-1-.3-1.5-.5-.4.1-.9-.1-1.4-.2l-1.5-.3c-.5-.1-1-.2-1.5-.2s-1.1-.1-1.6-.1h-2.1v-5h.4c19.4 0 35.2 15.9 35.2 35.4v.3h-.1zm-4.1-.8H70v-1.4c0-.5 0-.9-.1-1.4l-1.7.2-1.7.2c0 .4.1.8.1 1.2.1.4 0 .8.1 1.2zm-.6-5.7c.1.4.2.8.2 1.2.1.4.1.8.2 1.2l1.7-.2h1.7c0-.5-.1-.9-.2-1.4s-.2-1-.2-1.5l-1.8.4-1.6.3zm-.8-3.1c.1.4.2.8.4 1.2l.3 1.2 1.7-.4 1.6-.4c-.1-.5-.2-.9-.3-1.4-.1-.5-.3-.9-.4-1.4l-1.6.5-1.7.7zm-1.2-3.1c.2.4.3.8.5 1.2.1.4.3.8.4 1.2l1.6-.5 1.7-.6c-.2-.5-.3-.9-.5-1.3s-.4-.9-.5-1.3l-1.5.7-1.7.6zm-1.5-2.9c.2.4.4.7.6 1.1.2.4.4.7.5 1.1l1.5-.7 1.5-.7c-.2-.4-.4-.9-.6-1.3-.2-.4-.4-.8-.7-1.3l-1.5.9-1.3.9zm-1.7-2.8l.7 1c.2.3.4.7.6 1.1l1.5-.8 1.5-.8c-.2-.4-.5-.8-.8-1.2-.3-.4-.5-.8-.8-1.2l-1.4 1-1.3.9zm-2-2.5c.3.3.5.6.8.9.3.3.5.7.8 1l1.4-1 1.4-1-.9-1.2c-.3-.4-.6-.7-.9-1.1l-1.3 1.2-1.3 1.2zm-2.2-2.4l.9.9.9.9 1.2-1.1L61 15c-.3-.4-.6-.7-1-1l-1-1-1.2 1.3-1.1 1.2zm-2.6-2.1l1 .8c.3.3.6.5.9.8l1.2-1.3 1.1-1.3-1.1-.9c-.4-.3-.7-.6-1.1-.9l-1 1.4-1 1.4zm-2.6-1.8c.4.2.7.4 1.1.7s.7.5 1 .7l1-1.4 1-1.4c-.4-.3-.8-.5-1.2-.8-.4-.3-.8-.5-1.2-.7l-.8 1.5-.9 1.4zm-2.9-1.5l1.1.5c.4.2.7.4 1.1.6l.8-1.5.9-1.5c-.4-.2-.8-.5-1.3-.7-.4-.2-.8-.4-1.3-.6l-.7 1.6-.6 1.6zm-3.1-1.2l1.2.4 1.2.5.7-1.6.7-1.5c-.4-.2-.9-.4-1.3-.5l-1.3-.5-.6 1.6-.6 1.6zM42.4 8l1.2.3 1.2.3.5-1.6.5-1.6c-.4-.1-.9-.3-1.4-.4-.5-.1-.9-.2-1.4-.3l-.4 1.7-.2 1.6zm-3.2-.5l1.2.2 1.2.2.3-1.7.4-1.7c-.5-.1-.9-.2-1.4-.2l-1.4-.2-.2 1.7-.1 1.7zM36 7.2h1.2l1.2.1.2-1.7.2-1.6-1.4-.1H36v3.3z" transform="translate(15.368687 40.705724)"/><path class="st14" d="M35.6 73.8h-.4v-4.9h2c.5 0 1.1-.1 1.6-.1s1-.1 1.5-.2 1.1-.2 1.6-.3c.5-.1 1-.2 1.5-.4.5-.1 1-.3 1.5-.5s1-.3 1.5-.5l1.5-.6c.5-.2 1-.4 1.4-.7.5-.2.9-.5 1.4-.8.5-.3.9-.6 1.4-.8.4-.3.9-.6 1.3-.9.4-.3.9-.6 1.3-1 .4-.3.8-.7 1.2-1 .4-.3.8-.7 1.2-1.1.4-.4.7-.8 1.1-1.2.4-.4.7-.8 1-1.2s.7-.8 1-1.3c.3-.4.6-.9.9-1.3s.6-.9.8-1.4c.3-.5.5-.9.8-1.4.2-.5.5-.9.7-1.4l.6-1.5c.2-.5.4-1 .5-1.5.2-.5.3-1 .4-1.5.1-.5.3-1 .4-1.5.1-.5.2-1 .3-1.6.1-.5.2-1 .2-1.5v-.2c0-.5.1-1.1.1-1.6V38h4.9v.4C70.7 57.9 55 73.7 35.6 73.8zm.4-4.2V73h1.4l1.4-.1-.1-1.6-.2-1.7c-.4 0-.8.1-1.2.1-.4-.1-.9-.1-1.3-.1zm3.2-.2l.2 1.7.2 1.7 1.4-.2 1.4-.3-.4-1.6-.3-1.7-1.2.2-1.3.2zm3.2-.5l.3 1.7.4 1.7 1.4-.3c.5-.1.9-.2 1.4-.4l-.5-1.6-.5-1.6-1.2.3c-.5 0-.9.1-1.3.2zm3.1-.9l.5 1.6.5 1.6c.4-.1.9-.3 1.3-.5s.9-.4 1.3-.5l-.7-1.5-.7-1.6-1.2.5-1 .4zm3.1-1.2l.7 1.6.7 1.5c.4-.2.9-.4 1.3-.6.4-.2.8-.4 1.3-.7l-.9-1.5-.8-1.5c-.4.2-.7.4-1.1.6-.5.2-.9.4-1.2.6zm2.9-1.5l.8 1.5.9 1.5c.4-.2.8-.5 1.2-.7.4-.3.8-.5 1.2-.8l-1-1.4-1-1.4c-.3.2-.7.5-1 .7l-1.1.6zm2.6-1.9l1 1.4 1 1.4c.4-.3.7-.6 1.1-.9.4-.3.7-.6 1.1-.9l-1.1-1.2-1.2-1.3c-.3.3-.6.5-.9.8l-1 .7zm2.5-2l1.2 1.3L59 64c.4-.3.7-.7 1-1l1-1-1.3-1.2-1.2-1.2-.9.9-1 .9zm2.3-2.4l1.3 1.2 1.3 1.1c.3-.4.6-.7.9-1.1.3-.4.6-.7.9-1.2l-1.4-1-1.4-1c-.3.3-.5.7-.8 1-.3.4-.5.7-.8 1zm2-2.6l1.4 1 1.4 1c.3-.4.5-.8.8-1.2.3-.4.5-.8.8-1.2l-1.5-.8-1.5-.9c-.2.4-.4.7-.6 1.1-.3.4-.5.7-.8 1zm1.7-2.7l1.5.8 1.5.8c.2-.4.4-.8.7-1.2.2-.4.4-.9.6-1.3l-1.5-.7-1.5-.7c-.2.4-.4.8-.5 1.2s-.5.7-.8 1.1zm1.5-3l1.5.7 1.5.7c.2-.4.4-.9.5-1.3.2-.4.3-.9.5-1.3l-1.6-.5-1.5-.6c-.1.4-.3.8-.4 1.2s-.3.8-.5 1.1zm1.2-3l1.6.5 1.6.5c.1-.5.3-.9.4-1.4.1-.5.2-.9.3-1.4l-1.6-.4-1.7-.4-.3 1.2c-.1.5-.2 1-.3 1.4zm.8-3.2l1.7.4 1.7.4c.1-.5.2-.9.2-1.4s.1-.9.2-1.4l-1.7-.2-1.7-.3c0 .4-.1.8-.2 1.2-.1.4-.2.9-.2 1.3zm.4-3.2l1.7.2 1.7.2c0-.5.1-.9.1-1.4v-1.4h-3.3v1.2c0 .4-.1.8-.2 1.2z" transform="translate(15.368687 40.705724)"/><path class="st14" d="M36 73.8h-.4C16.1 73.8.4 58 .3 38.4V38h4.9v2c0 .5.1 1.1.1 1.6.1.5.1 1 .2 1.6.1.5.2 1 .3 1.6.1.5.2 1 .4 1.5.1.5.3 1 .5 1.5s.3 1 .5 1.5l.6 1.5c.2.5.4 1 .7 1.4.2.5.5.9.8 1.4.3.5.6.9.8 1.4.3.4.6.9.9 1.3.3.4.6.9 1 1.3.3.4.7.8 1 1.2.3.4.7.8 1.1 1.2.4.4.8.7 1.2 1.1.4.3.8.7 1.2 1s.8.7 1.3 1c.4.3.9.6 1.3.9.4.3.9.6 1.4.8.5.3.9.5 1.4.8.5.2.9.5 1.4.7l1.5.6c.5.2 1 .4 1.5.5.5.2 1 .3 1.5.5.5.1 1 .3 1.5.4.5.1 1.1.2 1.6.3.5.1 1 .1 1.5.2.5 0 1.1.1 1.6.1h2v4.9zm-3.6-.9l1.4.1h1.4v-3.3H34c-.4 0-.8 0-1.2-.1l-.3 1.7-.1 1.6zm-3.6-.6l1.4.3 1.4.2.2-1.7.2-1.7c-.4 0-.8-.1-1.2-.2s-.8-.1-1.2-.2l-.4 1.7-.4 1.6zm-3.5-.9c.4.1.9.3 1.4.4l1.4.3.3-1.7.4-1.7-1.2-.3-1.2-.3-.6 1.6-.5 1.7zm-3.4-1.2c.4.2.9.4 1.3.5.4.2.9.3 1.3.5l.5-1.6.5-1.6c-.4-.1-.8-.3-1.2-.4l-1.2-.5-.7 1.6-.5 1.5zm-3.2-1.6c.4.2.8.5 1.2.7.4.2.9.4 1.3.6l.7-1.5.7-1.6c-.4-.2-.7-.4-1.1-.5s-.7-.4-1.1-.6l-.9 1.5-.8 1.4zm-3.1-2l1.2.8c.4.3.8.5 1.2.7l.9-1.5.9-1.4-1-.7c-.3-.2-.7-.5-1-.7l-1 1.4-1.2 1.4zm-2.8-2.2c.4.3.7.6 1.1.9l1.1.9 1-1.4 1-1.4c-.3-.2-.7-.5-1-.8-.3-.3-.6-.5-.9-.8L14 63.1l-1.2 1.3zm-2.6-2.6c.3.3.6.7 1 1l1 1 1.1-1.3 1.2-1.3-.9-.9-.8-.9-1.3 1.2-1.3 1.2zm-2.3-2.7l.9 1.2c.2.4.5.7.8 1l1.3-1.1 1.2-1.2-.8-.9c-.3-.3-.5-.7-.8-1l-1.4 1-1.2 1zm-2-3c.2.4.5.8.8 1.2.3.3.5.7.8 1.1l1.4-1 1.4-1c-.2-.3-.5-.7-.7-1-.2-.3-.4-.7-.7-1.1l-1.5.9-1.5.9zm-1.6-3.2c.2.4.4.9.6 1.3s.4.8.7 1.2l1.4-.9 1.5-.8c-.2-.4-.4-.7-.6-1.1-.2-.4-.4-.7-.5-1.2l-1.6.6-1.5.9zm-1.4-3.4c.2.5.3.9.5 1.3s.3.9.5 1.3l1.5-.7 1.6-.6c-.2-.4-.3-.8-.5-1.2-.2-.4-.3-.8-.4-1.2l-1.6.6-1.6.5zm-1-3.5c.1.5.2.9.3 1.4s.3.9.4 1.4l1.6-.5 1.6-.5c-.1-.4-.2-.8-.4-1.2l-.3-1.2-1.7.4-1.5.2zm-.6-3.6c0 .5.1.9.2 1.4.1.5.2.9.2 1.4l1.7-.4 1.6-.4c-.1-.4-.2-.8-.2-1.2s-.1-.8-.2-1.2l-1.6.4H1.3zm-.2-3.5v1.4c0 .5.1.9.1 1.4l1.7-.2 1.7-.2c0-.4-.1-.8-.1-1.2v-1.2H1.1z" transform="translate(15.368687 40.705724)"/></g><path d="M81.2 79.8h5v-1.3h-5v.7zm-65.5 0h4.9v-1.3h-4.9v.7zm35.9-31.1v-5h-1.3v5h.6zm0 65.8v-5h-1.3v5h.6z" fill="#ffe700"/><path d="M37 86.7H24.6v-3.1l4.2-4.2c1.2-1.2 2-2.1 2.4-2.6.3-.4.6-.8.8-1.2.1-.3.2-.7.2-1 0-.4-.1-.8-.4-1.1-.3-.3-.8-.4-1.2-.4-.6 0-1.1.2-1.6.5-.8.4-1.4.9-2 1.4l-2.5-3c.7-.6 1.4-1.2 2.2-1.7.6-.3 1.3-.6 2-.8.8-.2 1.6-.3 2.4-.3 1 0 2 .2 3 .6.8.4 1.5.9 2 1.7.5.7.8 1.6.7 2.5 0 .6-.1 1.2-.3 1.8-.2.6-.4 1.2-.8 1.7-.4.6-.9 1.2-1.4 1.7-.6.6-1.8 1.8-3.7 3.5v.1H37v3.9zm14.6-3.3h-1.9v3.3h-4.6v-3.3h-6.8V80l7.1-10.4h4.3V80h1.9v3.4zm-6.4-3.5v-4.5c-.3.6-.6 1.2-.9 1.7L42.4 80h2.8zm15.9-10.6l-6.4 17.8h-1.5l6.4-17.8zm4.7 17.5l5.9-13.4h-7.4v-3.9h12.4v2.8l-6 14.6z" fill="#fff"/></g></g></g></svg>