<?xml version="1.0" encoding="UTF-8"?>
<svg width="440px" height="330px" viewBox="0 0 440 330" version="1.1" xmlns="http://www.w3.org/2000/svg" xmlns:xlink="http://www.w3.org/1999/xlink">
    <title>Graphic elements / Icons / Rich icons / co-working</title>
    <defs>
        <linearGradient x1="49.9917618%" y1="99.4444444%" x2="49.9917618%" y2="0%" id="linearGradient-1">
            <stop stop-color="#FFFFFF" offset="0%"></stop>
            <stop stop-color="#FFFFFF" stop-opacity="0" offset="100%"></stop>
        </linearGradient>
    </defs>
    <g id="Graphic-elements-/-Icons-/-Rich-icons-/-co-working" stroke="none" stroke-width="1" fill="none" fill-rule="evenodd">
        <g id="Co-working" transform="translate(0.000000, 69.000000)" fill-rule="nonzero">
            <path d="M262.86416,243.003487 L302.618546,243.003487 C303.555347,243.000567 304.454626,243.371408 305.117048,244.03383 C305.779469,244.696251 306.15031,245.59553 306.147386,246.532331 L306.147386,257.15188 C306.15031,258.08868 305.779469,258.98796 305.117048,259.650381 C304.454626,260.312802 303.555347,260.683643 302.618546,260.680724 L262.86416,260.680724 C261.927895,260.684008 261.029684,260.310416 260.37193,259.64411 C259.708751,258.984253 259.335338,258.087411 259.335338,257.15188 L259.335338,246.532331 C259.335338,245.5968 259.708751,244.699957 260.37193,244.0401 C261.029684,243.373794 261.927895,243.000203 262.86416,243.003487 L262.86416,243.003487 Z" id="Path" fill="#33627E"></path>
            <path d="M262.86416,220.816037 L302.618546,220.816037 C303.557656,220.814715 304.458559,221.187775 305.121805,221.852632 C305.785119,222.51151 306.154834,223.409955 306.147479,224.344862 L306.147479,245.594987 C306.15284,246.53275 305.783655,247.43388 305.121805,248.098246 C304.45472,248.75599 303.555365,249.124448 302.618546,249.123827 L262.86416,249.123827 C261.92736,249.126751 261.02808,248.75591 260.365659,248.093489 C259.703238,247.431068 259.332397,246.531788 259.335321,245.594987 L259.335321,224.344862 C259.341393,222.398461 260.917759,220.822094 262.86416,220.816037 Z" id="Path" fill="#023852"></path>
            <polygon id="Path" fill="#A5B1B8" points="296.597494 251.693233 297.854637 251.693233 299.122807 251.693233 299.122807 249.046617 299.122807 246.4 297.854637 246.4 296.597494 246.4 296.597494 249.046617"></polygon>
            <polygon id="Path" fill="#A5B1B8" points="266.3599 251.693233 267.62807 251.693233 268.885213 251.693233 268.885213 249.046617 268.885213 246.4 267.62807 246.4 266.3599 246.4 266.3599 249.046617"></polygon>
            <path d="M295.924812,221.565915 L293.928822,221.565915 L293.928822,217.154887 C293.931818,216.931706 293.844482,216.716787 293.686654,216.55896 C293.528827,216.401132 293.313909,216.313796 293.090727,216.316792 L272.380952,216.316792 C272.157771,216.313796 271.942853,216.401132 271.785025,216.55896 C271.627198,216.716787 271.539861,216.931706 271.542857,217.154887 L271.542857,221.565915 L269.546867,221.565915 L269.546867,217.154887 C269.552913,215.592176 270.818241,214.326847 272.380952,214.32078 L293.079699,214.32078 C293.832244,214.317857 294.554818,214.615501 295.086952,215.147635 C295.619086,215.679769 295.91673,216.402342 295.913784,217.154887 L295.913784,221.565915 L295.924812,221.565915 Z" id="Path" fill="#023852"></path>
            <path d="M352.882212,250.138346 L352.882212,259.511779 C352.883078,259.716175 352.799239,259.9118 352.650627,260.05213 C352.506143,260.201342 352.306944,260.285005 352.099248,260.283709 L346.221554,260.283709 C345.800107,260.272156 345.461177,259.933226 345.449624,259.511779 L345.449624,259.511779 C345.448939,259.271481 345.339464,259.044422 345.15188,258.894236 C344.961352,258.745887 344.71172,258.696779 344.479198,258.761905 L341.446617,259.577945 L338.414035,260.405013 L338.314787,260.405013 L320.152381,260.405013 L320.031078,260.405013 L317.682206,259.622055 L315.333333,258.839098 C315.023376,258.722959 314.814277,258.431092 314.804007,258.100251 L314.804007,256.611529 C314.803535,256.434005 314.866057,256.262069 314.980451,256.126316 C315.084695,255.99206 315.226833,255.892179 315.388471,255.839599 L320.902256,254.803008 L326.41604,253.766416 C326.470772,253.775884 326.526722,253.775884 326.581454,253.766416 C326.638499,253.748085 326.691085,253.718036 326.73584,253.678195 L332.44812,249.399499 L338.149373,245.120802 C338.250207,245.04634 338.367444,244.997176 338.491228,244.977444 C338.610304,244.944569 338.736062,244.944569 338.855138,244.977444 L345.526817,247.182957 L352.209524,249.388471 C352.359234,249.440855 352.489824,249.536877 352.584461,249.66416 C352.741211,249.777851 352.847904,249.94777 352.882212,250.138346 Z" id="Path" fill="#383838"></path>
            <path d="M421.936842,180.85213 C421.92078,178.889602 421.099494,177.019779 419.665163,175.680201 C418.241426,174.322161 416.339144,173.581063 414.37193,173.618045 L399.848622,173.849624 L385.325313,174.081203 L371.59599,174.566416 L357.877694,175.040602 C356.938754,175.071411 356.014304,175.281003 355.153885,175.658145 C354.288155,176.025819 353.501766,176.557568 352.838095,177.22406 L350.786967,179.275188 L348.724812,181.337343 C348.165463,181.894776 347.699969,182.53902 347.346366,183.245113 C346.997737,183.939994 346.756079,184.683555 346.629574,185.450627 L342.141353,215.070677 L337.653133,244.81203 L345.372431,248.120301 L353.091729,251.428571 L354.44812,241.580952 L355.804511,231.733333 L355.870677,231.336341 C355.870677,231.20401 355.925815,231.082707 355.958897,230.950376 L359.840602,215.037594 L363.733333,199.113784 C363.984583,198.090082 364.450702,197.13153 365.100752,196.301754 C365.757264,195.469026 366.579663,194.781816 367.515789,194.283709 C369.000385,193.498393 370.554566,192.852356 372.158396,192.353885 C374.071306,191.750203 376.063346,191.434302 378.069173,191.416541 C381.774436,191.416541 388.115288,192.177444 394.610526,192.706767 C401.105764,193.23609 407.645113,193.533835 411.802506,192.607519 C415.102035,192.042013 418.050094,190.209864 420.018045,187.501754 C421.291669,185.611362 421.974881,183.385164 421.980952,181.105764 L421.980952,180.85213 L421.936842,180.85213 Z" id="Path" fill="#023852"></path>
            <path d="M369.423559,192.364912 L363.391479,195.838596 L357.359398,199.312281 C356.931224,199.575899 356.665053,200.037843 356.651708,200.540486 C356.638364,201.04313 356.879649,201.518545 357.293233,201.804511 L359.774436,203.701253 L362.255639,205.597995 L363.016541,202.289724 L363.777444,198.981454 L366.644612,195.673183 L369.423559,192.364912 Z" id="Path" fill="#003A5D" opacity="0.6" style="mix-blend-mode: multiply;"></path>
            <path d="M421.936869,180.85213 L421.936869,180.752882 C421.92078,178.790354 421.099494,176.920531 419.665163,175.580952 C418.241426,174.222912 416.339144,173.481815 414.37193,173.518797 L406.465163,173.6401 L398.569424,173.772431 L390.166416,174.00401 L381.763409,174.246617 L399.407519,182.208521 L417.051629,190.170426 C418.769802,189.012255 420.129664,187.396465 420.977444,185.505764 C421.613674,184.036975 421.940271,182.452793 421.936869,180.85213 Z" id="Path" fill="#003A5D" opacity="0.6" style="mix-blend-mode: multiply;"></path>
            <path d="M133.190977,166.38396 L355.087719,166.38396 C355.667527,166.398832 356.228756,166.178857 356.644035,165.77396 C357.059314,165.369064 357.293233,164.813582 357.293233,164.233584 L357.293233,163.858647 C357.288013,163.289256 357.062778,162.743949 356.664662,162.336842 C356.259755,161.936728 355.712082,161.714485 355.142857,161.719298 L133.190977,161.719298 C132.625566,161.717414 132.0824,161.939438 131.680201,162.336842 C131.282085,162.743949 131.056849,163.289256 131.051629,163.858647 L131.051629,164.233584 C131.051629,165.416911 132.007666,166.377892 133.190977,166.38396 L133.190977,166.38396 Z" id="Path" fill="#A5B1B8"></path>
            <path d="M317.450627,161.443609 L322.148371,163.902757 L326.835088,166.372951 L350.356892,166.372951 C350.655424,166.374676 350.941907,166.255308 351.150877,166.042105 C351.36408,165.833135 351.483448,165.546652 351.481723,165.24812 L351.415539,163.340351 L351.338346,161.443609 L317.450627,161.443609 Z" id="Path" fill="#A5B1B8" style="mix-blend-mode: multiply;"></path>
            <polygon id="Path" fill="#023852" points="385.832581 208.542356 388.37995 208.542356 390.927318 208.542356 390.927318 216.86817 390.927318 225.205013 388.37995 225.205013 385.832581 225.205013 385.832581 216.86817"></polygon>
            <polygon id="Path" fill="#DFE4E6" points="385.457644 200.889223 388.37995 200.889223 391.302256 200.889223 391.302256 205.035589 391.302256 209.181955 388.37995 209.181955 385.457644 209.181955 385.457644 205.035589"></polygon>
            <path d="M371.761404,112.988471 C371.321118,112.640295 370.830248,112.361392 370.305764,112.161404 C369.588972,111.819549 368.894236,111.477694 368.938346,111.345363 L370.581454,105.324311 L372.224561,99.3142857 C372.284535,99.0728804 372.306853,98.8236588 372.290727,98.5754386 C372.283162,98.3256756 372.246147,98.0776781 372.180451,97.8365915 L370.879198,94.2857143 L369.577945,90.7238095 C369.461453,90.4622306 369.259152,90.2482584 369.004511,90.1172932 C368.746504,89.9617997 368.477445,89.8254276 368.199499,89.7092732 L364.615539,88.7278195 L361.031579,87.7573935 C360.743346,87.611218 360.440167,87.4966018 360.127318,87.4155388 C359.835173,87.3297803 359.520026,87.3782644 359.267168,87.5478697 L351.977945,91.6390977 L344.677694,95.7413534 L344.37995,98.2556391 L344.06015,100.769925 L344.06015,100.968421 L344.06015,101.177945 L344.368922,102.071178 L344.666667,102.975439 C344.699213,103.11695 344.699213,103.264003 344.666667,103.405514 C344.656352,103.55025 344.610932,103.690294 344.534336,103.813534 L343.067669,106.272682 L341.601003,108.742857 C341.526754,108.868069 341.478031,109.006742 341.457644,109.150877 C341.44791,109.300077 341.466622,109.449767 341.512782,109.59198 L341.512782,109.59198 C341.56423,109.73957 341.651358,109.872156 341.766416,109.977945 C341.879988,110.086126 342.01533,110.168836 342.163409,110.220551 L343.354386,110.595489 L344.556391,110.970426 C344.735768,111.024006 344.896334,111.127227 345.019549,111.26817 C345.139829,111.409835 345.219813,111.581229 345.251128,111.764411 L345.736341,114.819048 L346.221554,117.873684 C346.368806,118.830697 346.918788,119.678857 347.732457,120.203737 C348.546127,120.728617 349.5456,120.879976 350.478195,120.619549 L350.930326,120.498246 L351.382456,120.376942 L351.437594,120.376942 L352.253634,120.200501 L353.058647,120.035088 C353.479218,119.948751 353.909943,119.922759 354.337845,119.957895 C354.766052,119.999499 355.185869,120.103524 355.58396,120.266667 L358.947368,122.74787 L362.255639,125.2401 L366.346867,122.814035 L370.449123,120.376942 L371.022556,116.693734 L371.761404,112.988471 Z" id="Path" fill="#0099DA"></path>
            <path d="M358.748872,107.18797 L358.748872,103.791479 C358.748872,103.791479 358.748872,103.791479 358.748872,103.791479 L359.542857,103.372431 L360.336842,102.953383 L360.403008,102.953383 C360.42109,102.948715 360.440063,102.948715 360.458145,102.953383 L360.777945,103.405514 L361.097744,103.868672 C361.113473,103.899885 361.113473,103.936707 361.097744,103.96792 C361.069203,103.978011 361.038065,103.978011 361.009524,103.96792 L360.491228,103.96792 L359.98396,103.96792 C359.98396,103.96792 359.98396,103.96792 359.928822,103.96792 C359.873684,103.96792 359.928822,103.96792 359.928822,103.96792 L359.498747,105.633083 L358.991479,107.221053 C358.986313,107.244854 358.971538,107.26546 358.950654,107.277991 C358.92977,107.290521 358.904635,107.293861 358.881203,107.287218 C358.84986,107.298362 358.815018,107.293063 358.788406,107.273103 C358.761793,107.253144 358.74695,107.22118 358.748872,107.18797 Z" id="Path" fill="#0097D7" style="mix-blend-mode: multiply;"></path>
            <path d="M370.151378,111.907769 L371.452632,105.19198 L372.73183,98.487218 C372.748465,98.3775697 372.748465,98.2660393 372.73183,98.156391 C372.730425,98.043949 372.711831,97.9323833 372.676692,97.8255639 L371.805514,94.8370927 L370.86817,91.8045113 C370.840545,91.7232916 370.803536,91.6455731 370.757895,91.5729323 C370.72046,91.4965446 370.672174,91.4259728 370.614536,91.3634085 L368.971429,89.5879699 L367.339348,87.8125313 C367.250176,87.7137567 367.141215,87.6348539 367.019549,87.5809524 C366.900715,87.5141517 366.769267,87.4728397 366.633584,87.4596491 L362.079198,86.9303258 L357.524812,86.3899749 C357.433277,86.3784427 357.340657,86.3784427 357.249123,86.3899749 L356.973434,86.4671679 L350.202506,89.2130326 L343.420551,91.9588972 C343.249083,92.0269252 343.09742,92.1368809 342.979449,92.2786967 C342.859731,92.4221166 342.776494,92.5923744 342.736842,92.7749373 L342.505263,93.9328321 L342.262657,95.035589 C342.211359,95.2647241 342.234539,95.5042515 342.328822,95.7192982 C342.42653,95.9290643 342.583761,96.1054699 342.780952,96.2265664 L343.431579,96.6235589 L344.06015,97.0426065 C344.208485,97.1397108 344.37946,97.1967024 344.556391,97.2080201 C344.729111,97.2201762 344.902374,97.1938101 345.063659,97.1308271 L347.688221,96.0942356 L350.301754,95.0466165 C350.717656,94.8717229 351.198145,94.9678207 351.514787,95.2892231 C351.847739,95.5981997 351.957176,96.0797218 351.790476,96.5022556 L351.536842,97.1749373 L351.283208,97.847619 C351.208355,98.0731494 351.208355,98.3168256 351.283208,98.5423559 C351.341988,98.7724684 351.473489,98.977455 351.658145,99.126817 L352.992481,100.229574 L354.326817,101.332331 C354.575562,101.52809 354.728192,101.8213 354.745865,102.137343 L354.845113,104.034085 L354.955388,105.930827 L356.058145,105.798496 L357.160902,105.655138 L357.160902,104.397995 L357.160902,103.129825 C357.16689,102.907561 357.239926,102.692299 357.370426,102.512281 C357.491678,102.330037 357.664424,102.188002 357.866667,102.104261 L358.605514,101.806516 L359.344361,101.508772 C359.455464,101.457634 359.575146,101.427714 359.697243,101.420551 C359.81381,101.39821 359.933559,101.39821 360.050125,101.420551 L360.590476,101.552882 L361.130827,101.685213 C361.333976,101.741222 361.519787,101.8474 361.671178,101.993985 C361.817634,102.14649 361.917159,102.337884 361.957895,102.545363 L362.244612,103.824561 L362.531328,105.103759 C362.531328,105.158897 362.619549,105.721303 362.729825,106.449123 C362.8401,107.176942 362.972431,108.070175 363.082707,108.77594 C363.140852,109.137133 363.301625,109.47399 363.545865,109.746366 C363.787233,110.024177 364.105874,110.223807 364.461153,110.319799 L367.295238,111.113784 L370.151378,111.907769 Z" id="Path" fill="#023852"></path>
            <path d="M342.957393,108.632581 L343.993985,106.901253 L345.030576,105.169925 L345.030576,110.121303 L344.214536,109.922807 L343.387469,109.724311 C343.166285,109.661964 342.984379,109.504313 342.891228,109.294236 C342.807182,109.075661 342.83173,108.830185 342.957393,108.632581 Z" id="Path" fill="#0097D7" style="mix-blend-mode: multiply;"></path>
            <path d="M372.73183,97.8917293 L371.805514,94.8370927 L370.86817,91.8045113 C370.838129,91.7278231 370.80122,91.6540059 370.757895,91.5839599 C370.72046,91.5075722 370.672174,91.4370004 370.614536,91.3744361 L368.971429,89.5989975 L367.339348,87.8235589 C367.245371,87.7272768 367.137591,87.6455128 367.019549,87.5809524 C366.89806,87.5226213 366.767552,87.4853333 366.633584,87.4706767 L362.079198,86.9303258 L357.524812,86.4010025 C357.433277,86.3894702 357.340657,86.3894702 357.249123,86.4010025 C357.154263,86.4146447 357.061585,86.4405943 356.973434,86.4781955 L355.870677,86.9413534 L354.76792,87.4045113 L358.770927,87.8786967 L362.773935,88.3418546 C362.905183,88.3594492 363.03219,88.4005396 363.148872,88.4631579 C363.271048,88.5211309 363.379924,88.603727 363.468672,88.7057644 L365.012531,90.5032581 L366.644612,92.2786967 C366.707903,92.3347479 366.760251,92.4020514 366.798997,92.477193 C366.840819,92.5503408 366.874119,92.6280408 366.898246,92.7087719 L367.846617,95.7413534 L368.794987,98.7739348 C368.811894,98.8798643 368.811894,98.9878049 368.794987,99.0937343 C368.811623,99.2033826 368.811623,99.3149131 368.794987,99.4245614 L369.467669,105.666165 L370.151378,111.907769 L371.452632,105.225063 L372.73183,98.5423559 C372.748736,98.4364264 372.748736,98.3284859 372.73183,98.2225564 C372.748465,98.1129081 372.748465,98.0013776 372.73183,97.8917293 Z" id="Path" fill="#33627E"></path>
            <path d="M332.216541,153.283208 L325.313283,151.673183 L318.454135,150.05213 C318.384709,150.041365 318.314038,150.041365 318.244612,150.05213 C318.178895,150.04123 318.111832,150.04123 318.046115,150.05213 L314.043108,151.033584 L310.0401,152.00401 L309.819549,152.092231 C309.75061,152.130935 309.687495,152.1792 309.63208,152.235589 L307.150877,154.72782 L304.680702,157.231078 C304.436129,157.477016 304.363198,157.845784 304.495744,158.166305 C304.62829,158.486825 304.940375,158.696376 305.287218,158.697744 L309.455639,158.697744 C309.53246,158.708461 309.610397,158.708461 309.687218,158.697744 C309.765372,158.676118 309.839752,158.642647 309.907769,158.598496 L311.440602,157.62807 L312.962406,156.657644 C313.076864,156.579715 313.210176,156.534008 313.348371,156.525313 C313.48415,156.513878 313.620632,156.536625 313.745363,156.591479 L316.601504,157.694236 L319.413534,158.796992 L319.56792,158.85213 L332.293734,158.85213 C332.535192,158.84932 332.765496,158.750051 332.933333,158.576441 C333.096444,158.401045 333.176716,158.164242 333.153885,157.925815 L333.032581,156.0401 L332.889223,154.077193 C332.861805,153.700335 332.594577,153.384116 332.227569,153.294236 L332.216541,153.283208 Z" id="Path" fill="#0099DA"></path>
            <path d="M371.893734,112.591479 L371.210025,111.973935 L370.526316,111.378446 C370.43192,111.292315 370.304811,111.251353 370.177886,111.266161 C370.050961,111.280969 369.936695,111.350091 369.864662,111.455639 L365.387469,117.66416 L360.976441,123.861654 C360.838801,124.052263 360.734403,124.264786 360.667669,124.490226 C360.5997,124.715259 360.569881,124.950083 360.579449,125.184962 L360.722807,128.493233 L360.877193,131.801504 C360.866356,131.911513 360.866356,132.022321 360.877193,132.132331 C360.900127,132.241819 360.933358,132.348895 360.976441,132.45213 L362.079198,135.53985 L363.237093,138.627569 C363.324701,138.879312 363.369432,139.143975 363.369424,139.410526 C363.36871,139.676555 363.312366,139.939494 363.20401,140.182456 L360.910276,145.696241 L358.638596,151.077694 C358.463342,151.481094 358.171478,151.822882 357.800501,152.059148 C357.425845,152.284703 356.990539,152.388714 356.554386,152.356892 L344.887218,151.529825 L333.231078,150.702757 C332.943551,150.683692 332.655074,150.721156 332.381955,150.813033 C332.113012,150.911421 331.865804,151.061244 331.654135,151.254135 L330.132331,152.654637 L328.621554,154.033083 C328.406128,154.235596 328.23362,154.479357 328.114286,154.749875 C327.997182,155.021129 327.940729,155.314685 327.948101,155.610025 L327.948101,157.517794 L327.948101,159.425564 C327.957578,159.984203 328.18788,160.516494 328.589101,160.905306 C328.990322,161.294118 329.529584,161.50759 330.088221,161.498747 L332.569424,161.498747 L335.050627,161.498747 L335.359398,161.498747 L335.657143,161.564912 L347.015539,164.79599 L358.373935,168.027068 C358.4668,168.059539 358.562948,168.081727 358.660652,168.093233 L358.947368,168.093233 L363.358396,168.093233 C363.914773,168.082568 364.446555,167.861978 364.847118,167.475689 L368.155388,164.167419 L371.463659,160.859148 C371.857976,160.454964 372.39874,160.227048 372.963409,160.227048 C373.528077,160.227048 374.068841,160.454964 374.463158,160.859148 L378.135338,164.696742 L381.818546,168.545363 C382.055583,168.799032 382.229386,169.105076 382.325815,169.438596 C382.408926,169.771669 382.408926,170.12006 382.325815,170.453133 L382.193484,171.070677 L382.050125,171.677193 C382.015427,171.829196 381.996944,171.98445 381.994987,172.140351 C381.996339,172.292653 382.014835,172.444318 382.050125,172.592481 L382.050125,172.768922 L382.050125,172.934336 C382.152688,173.40698 382.418114,173.828539 382.8,174.125313 C383.176977,174.429692 383.649979,174.589966 384.134336,174.577444 L393.59599,174.423058 L403.057644,174.257644 C403.167646,174.246662 403.278469,174.246662 403.388471,174.257644 L403.708271,174.32381 L411.306266,176.639599 L418.904261,178.955388 C419.428546,179.114527 419.994209,179.063103 420.481203,178.81203 C420.96978,178.558917 421.33844,178.122867 421.506767,177.598997 L421.903759,176.396992 L422.300752,175.194987 C422.356016,175.008352 422.389324,174.815907 422.4,174.621554 C422.410802,174.424404 422.388436,174.226839 422.333835,174.037093 L421.363409,170.100251 L420.392982,166.174436 C420.373879,166.091606 420.348063,166.010469 420.315789,165.93183 C420.289451,165.85546 420.256232,165.781639 420.216541,165.711278 L412.37594,150.647619 L404.711779,135.639098 C404.690198,135.592694 404.664356,135.548394 404.634586,135.506767 L404.546366,135.374436 L397.433584,125.714286 L390.37594,116.120301 C390.252766,115.954854 390.10814,115.80652 389.945865,115.679198 C389.780493,115.558105 389.598497,115.461536 389.405514,115.392481 L385.854637,114.091228 L382.303759,112.789975 C382.172802,112.736585 382.035762,112.699547 381.895739,112.679699 C381.752591,112.66872 381.608812,112.66872 381.465664,112.679699 L377.440602,112.922306 L373.415539,113.153885 C373.138317,113.165139 372.861461,113.123984 372.599499,113.032581 C372.336572,112.935322 372.096373,112.785198 371.893734,112.591479 Z" id="Path" fill="#F4F6F7"></path>
            <path d="M377.58396,151.176942 L369.864662,159.602005 L362.079198,168.027068 L363.413534,168.027068 C363.689161,168.02636 363.962213,167.973994 364.218546,167.872682 C364.473227,167.773145 364.702885,167.618785 364.891228,167.420551 L368.199499,164.112281 L371.507769,160.80401 C371.910406,160.408575 372.454248,160.190245 373.018546,160.197494 C373.583745,160.197562 374.123302,160.433368 374.507268,160.84812 L375.22406,161.553885 L375.940852,162.270677 L379.94386,153.018546 L383.957895,143.766416 C384.010114,143.599312 383.923103,143.420456 383.759398,143.358396 C383.615308,143.269214 383.426667,143.307909 383.329323,143.446617 L380.451128,147.317293 L377.58396,151.176942 Z" id="Path" fill="#C7DFF5"></path>
            <path d="M361.086717,126.353885 L362.310777,127.566917 L363.534837,128.790977 C363.581503,128.839451 363.612278,128.901002 363.623058,128.967419 C363.644112,129.031909 363.644112,129.101424 363.623058,129.165915 L362.807018,130.621554 L362.002005,132.077193 C361.980553,132.149145 361.980553,132.225792 362.002005,132.297744 L362.807018,135.639098 L363.634085,139.024561 L363.457644,139.553885 L363.281203,140.094236 L362.02406,136.223559 L360.777945,132.352882 C360.730877,132.212367 360.694022,132.068634 360.667669,131.922807 C360.667669,131.779449 360.667669,131.63609 360.667669,131.481704 L360.667669,126.530326 C360.669817,126.40077 360.747401,126.284393 360.866165,126.232581 C360.953575,126.239855 361.033766,126.28396 361.086717,126.353885 Z" id="Path" fill="#C7DFF5"></path>
            <path d="M351.54787,120.365915 L354.536341,119.097744 L357.513784,117.807519 L358.616541,115.998997 L359.719298,114.201504 C359.803506,114.060712 359.965641,113.986217 360.127318,114.014035 C360.284225,114.047277 360.408393,114.167163 360.447118,114.322807 L361.362406,118.094236 L362.277694,121.876692 L361.472682,122.979449 L360.667669,124.082206 L358.35188,122.328822 L356.03609,120.564411 C355.673588,120.288234 355.256247,120.092723 354.81203,119.990977 C354.365328,119.891893 353.902341,119.891893 353.455639,119.990977 L352.463158,120.167419 L351.54787,120.365915 Z" id="Path" fill="#0097D7" style="mix-blend-mode: multiply;"></path>
            <path d="M365.012531,199.433584 C364.902522,199.444421 364.791714,199.444421 364.681704,199.433584 C364.56698,199.411835 364.455706,199.374744 364.350877,199.323308 C363.966002,199.149295 363.667747,198.827179 363.52381,198.430075 C363.381971,198.034211 363.40178,197.598407 363.578947,197.217043 C365.442607,193.14787 370.493233,191.526817 375.301253,190.953383 C378.731845,190.582231 382.192466,190.582231 385.623058,190.953383 L395.54787,191.802506 L405.472682,192.640602 C408.18362,192.872234 410.914119,192.614499 413.533835,191.879699 C418.76664,190.625266 422.701764,186.301001 423.458647,180.973434 C423.934441,178.253153 423.908279,175.468755 423.381454,172.757895 L422.146366,165.413534 L420.845113,157.980952 C420.584318,156.274522 420.62163,154.535777 420.955388,152.842105 C421.23783,151.253785 421.605953,149.681899 422.058145,148.133333 L426.932331,131.150877 L431.795489,114.157393 C431.915417,113.753968 432.18855,113.413542 432.556391,113.209023 C432.922791,113.004533 433.356285,112.956809 433.758396,113.076692 C434.165538,113.189804 434.510807,113.460525 434.717776,113.828931 C434.924746,114.197337 434.976345,114.633041 434.861153,115.039599 L430.075188,131.966917 L425.21203,148.949373 C424.773086,150.330167 424.40502,151.732499 424.109273,153.150877 C423.814377,154.535936 423.769562,155.962571 423.976942,157.363409 L424.870175,165.082707 L425.774436,172.802005 C426.374509,175.80119 426.374509,178.889537 425.774436,181.888722 C425.181779,184.755572 423.816607,187.405835 421.826566,189.552882 C419.649208,191.829142 416.874511,193.445804 413.820551,194.217544 C410.634117,195.066953 407.320811,195.335902 404.039098,195.011529 L394.621554,194.548371 L385.20401,194.074185 C381.807504,193.718085 378.381424,193.751384 374.992481,194.173434 C371.132832,194.702757 367.537845,195.937845 366.357895,198.518296 C366.095796,199.078776 365.532014,199.435981 364.913283,199.433584 L365.012531,199.433584 Z" id="Path" fill="#383838"></path>
            <path d="M370.967419,198.352882 C370.966888,196.536412 369.68232,194.973694 367.900296,194.621627 C366.118271,194.26956 364.335932,195.226362 363.644659,196.906155 C362.953386,198.585949 363.546028,200.520109 365.059692,201.524293 C366.573357,202.528476 368.585766,202.322538 369.864662,201.032581 C370.577567,200.323934 370.975051,199.358047 370.967419,198.352882 L370.967419,198.352882 Z" id="Path" fill="#383838"></path>
            <path d="M438.974437,115.899749 C438.865636,113.881067 437.197051,112.299992 435.175439,112.299992 C433.153826,112.299992 431.485242,113.881067 431.376441,115.899749 C431.376441,116.908769 431.777272,117.876461 432.490757,118.589945 C433.204241,119.303429 434.171933,119.704274 435.180952,119.704274 C436.185156,119.706967 437.149219,119.310233 437.860652,118.601504 C438.574721,117.883731 438.975222,116.912218 438.974437,115.899749 Z" id="Path" fill="#383838"></path>
            <path d="M351.172932,260.250627 L351.569925,257.703258 L351.966917,255.15589 C352.076452,254.404767 352.384848,253.696598 352.86015,253.104762 C353.336549,252.512732 353.960241,252.056373 354.668672,251.781454 L368.839098,246.267669 L382.998496,240.753885 C385.947878,239.604906 388.019228,236.918093 388.37995,233.773434 C388.548741,235.312119 389.140364,236.774 390.089223,237.996992 C391.033041,239.234971 392.299812,240.188864 393.750376,240.753885 L407.920802,246.267669 L422.080201,251.781454 C423.530266,252.330016 424.568782,253.621828 424.792982,255.15589 L425.189975,257.703258 L425.586967,260.250627 L429.832581,260.250627 L429.380451,257.383459 L428.928321,254.516291 C428.46077,251.514861 426.425511,248.991813 423.590977,247.899749 L409.475689,241.54787 L395.360401,235.184962 C393.695727,234.54472 392.598963,232.943444 392.603509,231.1599 L392.603509,229.25213 L392.603509,227.333333 C392.599854,226.465442 392.255294,225.633744 391.64411,225.017544 C391.02613,224.410399 390.194649,224.069888 389.328321,224.069173 L387.630075,224.069173 C386.763747,224.069888 385.932266,224.410399 385.314286,225.017544 C384.703102,225.633744 384.358542,226.465442 384.354887,227.333333 L384.354887,229.25213 L384.299749,231.1599 C384.304295,232.943444 383.207531,234.54472 381.542857,235.184962 L367.427569,241.54787 L353.312281,247.899749 C350.477747,248.991813 348.442488,251.514861 347.974937,254.516291 L347.522807,257.383459 L347.070677,260.250627 L351.316291,260.250627 L351.172932,260.250627 Z" id="Path" fill="#DFE4E6"></path>
            <path d="M388.37995,204.539348 L388.37995,204.539348 C390.602931,204.539348 392.405013,202.737266 392.405013,200.514286 L392.405013,195.397494 C392.531564,194.574078 392.026011,193.785039 391.225063,193.55589 C390.287688,193.379146 389.331491,193.323553 388.37995,193.390476 L388.37995,193.390476 C387.428408,193.323553 386.472212,193.379146 385.534837,193.55589 C384.733888,193.785039 384.228336,194.574078 384.354887,195.397494 L384.354887,200.514286 C384.354887,202.737266 386.156969,204.539348 388.37995,204.539348 L388.37995,204.539348 Z" id="Path" fill="#DFE4E6"></path>
            <path d="M408.306767,195.838729 L407.501754,195.838729 L406.696742,195.838729 L396.628571,194.978446 L386.549373,194.129323 C382.700649,193.818052 379.427218,191.199307 378.278697,187.512782 L374.396992,175.382456 L370.526316,163.20802 C369.724529,160.738848 370.154029,158.035022 371.681494,155.935849 C373.208958,153.836676 375.649528,152.596206 378.245614,152.599432 L414.405013,152.599432 C419.545863,152.58119 423.921735,156.337303 424.682707,161.421554 L425.708271,167.850627 L426.766917,174.235589 C427.687092,179.907863 425.927859,185.686454 422.003008,189.883709 C420.25389,191.764594 418.136926,193.265987 415.783459,194.294737 C413.425341,195.322542 410.879121,195.84831 408.306767,195.838729 Z M378.245614,155.753383 C377.47963,155.758778 376.725097,155.939866 376.0401,156.282707 C375.348196,156.641302 374.748217,157.154492 374.286717,157.782456 C373.358421,159.054523 373.092179,160.692935 373.569925,162.193484 L377.462657,174.32381 L381.344361,186.454135 C382.130613,188.897704 384.301584,190.63448 386.858145,190.865163 L396.937343,191.714286 L407.016541,192.563409 C411.77362,192.992026 416.46122,191.194674 419.712285,187.695519 C422.963349,184.196364 424.411751,179.389472 423.635088,174.676692 L422.620551,168.236591 L421.594987,161.807519 C421.053838,158.284555 418.013353,155.68982 414.449123,155.709165 L378.245614,155.709165 L378.245614,155.753383 Z" id="Shape" fill="#DFE4E6"></path>
            <path d="M437.077696,115.899749 C437.078965,114.995523 436.441764,114.216127 435.555325,114.037655 C434.668885,113.859182 433.779716,114.331265 433.430966,115.165531 C433.082215,115.999797 433.370866,116.964247 434.120597,117.469748 C434.870328,117.975248 435.872647,117.881225 436.515288,117.245113 C436.874537,116.889514 437.076984,116.405229 437.077696,115.899749 Z" id="Path" fill="#DFE4E6"></path>
            <path d="M369.14787,198.374937 C369.149181,197.87228 368.946187,197.390666 368.585464,197.040602 C368.0433,196.497346 367.227178,196.33437 366.517946,196.627725 C365.808714,196.921081 365.346175,197.612943 365.346175,198.380451 C365.346175,199.147959 365.808714,199.839821 366.517946,200.133177 C367.227178,200.426533 368.0433,200.263556 368.585464,199.720301 C368.948957,199.36758 369.15219,198.881416 369.14787,198.374937 L369.14787,198.374937 Z" id="Path" fill="#DFE4E6"></path>
            <path d="M150.570426,235.879699 L149.974937,241.128822 L149.379449,246.377945 C149.351817,246.512548 149.351817,246.651362 149.379449,246.785965 C149.425337,246.919569 149.496467,247.043111 149.588972,247.149875 L153.459649,251.351378 L157.319298,255.541855 C157.361621,255.591539 157.409751,255.635967 157.462657,255.674185 L157.617043,255.773434 L161.675188,257.670175 L165.722306,259.566917 C165.986114,259.698765 166.296592,259.698765 166.560401,259.566917 L169.471679,258.199499 L172.382957,256.821053 C172.694515,256.676459 172.907814,256.379513 172.945363,256.038095 C172.977539,255.69713 172.831649,255.363668 172.559398,255.15589 L169.251128,252.674687 L165.942857,250.182456 C165.862809,250.131806 165.795011,250.064008 165.744361,249.98396 L163.097744,246.411028 L160.4401,242.838095 C160.377259,242.750822 160.328856,242.654015 160.296742,242.551378 C160.275355,242.445851 160.275355,242.337106 160.296742,242.231579 L160.362907,239.011529 L160.4401,235.791479 C160.443935,235.523874 160.340715,235.265825 160.153383,235.074687 C159.965143,234.882958 159.70513,234.778953 159.436591,234.78797 L155.488722,234.887218 L151.507769,234.997494 C151.270336,234.998991 151.042103,235.089498 150.86817,235.251128 C150.695519,235.417281 150.589616,235.640854 150.570426,235.879699 L150.570426,235.879699 Z" id="Path" fill="#0099DA"></path>
            <path d="M149.588972,245.694236 L154.45213,250.237594 L159.315288,254.769925 L159.447619,254.880201 L159.613033,254.957393 L162.590476,256.181454 L165.56792,257.405514 C165.681218,257.448098 165.800072,257.474098 165.920802,257.482707 C166.04145,257.482044 166.160991,257.45963 166.273684,257.416541 L169.460652,256.258647 L172.658647,255.15589 C172.771062,255.111825 172.890786,255.089377 173.011529,255.089724 C173.129424,255.092916 173.245556,255.119139 173.353383,255.166917 L176.474185,256.42406 L179.594987,257.692231 C179.726428,257.745982 179.84625,257.824615 179.94787,257.92381 C180.038523,258.031879 180.109446,258.155062 180.157393,258.287719 L180.311779,258.761905 L180.466165,259.225063 C180.565037,259.523359 180.515086,259.850963 180.331811,260.106239 C180.148535,260.361516 179.8541,260.513592 179.53985,260.515288 L162.105263,260.515288 C162.024728,260.525675 161.943192,260.525675 161.862657,260.515288 L161.642105,260.427068 L156.712782,257.725313 L151.794486,255.034586 C151.505136,254.879709 151.157521,254.879709 150.86817,255.034586 C150.575625,255.181729 150.379686,255.469383 150.349875,255.795489 L150.118296,257.868672 L149.897744,259.930827 C149.871693,260.172437 149.757903,260.396092 149.577945,260.559398 C149.395574,260.721589 149.160347,260.81176 148.916291,260.813033 L148.916291,260.813033 C148.689366,260.812209 148.470259,260.730043 148.298747,260.581454 C148.118196,260.443582 147.996153,260.242802 147.956892,260.019048 L147.030576,255.387469 L146.104261,250.75589 C146.104261,250.75589 146.104261,250.656642 146.104261,250.612531 C146.098378,250.564926 146.098378,250.516778 146.104261,250.469173 L146.247619,249.024561 L146.402005,247.57995 C146.429709,247.310823 146.564908,247.064283 146.776942,246.896241 L147.570927,246.300752 L148.353885,245.705263 C148.537219,245.566156 148.763606,245.495898 148.993484,245.506767 C149.206639,245.505854 149.414782,245.57138 149.588972,245.694236 Z" id="Path" fill="#383838"></path>
            <polygon id="Path" fill="#0097D7" style="mix-blend-mode: multiply;" points="160.4401 238.261654 160.407018 239.783459 160.373935 241.305263 155.124812 241.768421 149.864662 242.220551 150.151378 239.618045 150.449123 237.004511 155.444612 237.633083"></polygon>
            <path d="M166.516291,188.880201 L165.898747,186.994486 L165.281203,185.108772 C165.124736,184.621785 164.865217,184.174209 164.520301,183.796491 C164.178385,183.417365 163.761598,183.113223 163.296241,182.903258 L160.384962,181.602005 L157.473684,180.300752 C157.320106,180.230526 157.161627,180.171557 156.999499,180.124311 L156.492231,180.014035 L140.811028,177.808521 L125.129825,175.603008 C123.375918,175.348811 122.053795,173.878239 121.986967,172.107268 L121.865664,168.798997 L121.755388,165.490727 C121.750067,165.428351 121.750067,165.365634 121.755388,165.303258 C121.755388,165.237093 121.755388,165.170927 121.755388,165.104762 C121.81923,164.223886 121.560548,163.349853 121.027569,162.645614 C120.483109,161.93473 119.699636,161.445059 118.822055,161.267168 L115.657143,160.594486 L112.492231,159.921805 C112.20283,159.85743 111.906208,159.831476 111.610025,159.844612 C111.315542,159.855416 111.023256,159.899814 110.738847,159.976942 L104.254637,161.807519 L97.7704261,163.638095 C97.1194267,163.825958 96.5321752,164.188223 96.0721805,164.685714 C95.6115764,165.186276 95.29859,165.804615 95.1679198,166.47218 L94.0651629,171.985965 L92.962406,177.499749 C92.9294948,177.685781 92.9074025,177.873565 92.8962406,178.062155 C92.8852416,178.249463 92.8852416,178.437254 92.8962406,178.624561 L93.3483709,182.528321 L93.8005013,186.421053 C93.8646232,186.930051 94.0295756,187.42116 94.2857143,187.865664 C94.5472005,188.30054 94.8964878,188.676118 95.3112782,188.968421 L97.6270677,190.633584 L99.9428571,192.298747 C100.377534,192.617166 100.879167,192.832152 101.409524,192.927318 L108.114286,193.743358 L114.819048,194.548371 C114.940351,194.548371 121.435589,194.118296 127.831579,193.64411 L140.855138,192.706767 L144.758897,194.41604 L148.651629,196.136341 C149.754386,196.136341 150.041103,196.676692 150.085213,197.514787 C150.129323,198.352882 149.897744,199.455639 149.853634,200.514286 L149.026566,219.834586 L148.199499,239.154887 L154.760902,239.154887 L161.377444,239.221053 L163.031579,224.885213 L164.674687,210.549373 C164.669265,210.50543 164.669265,210.460986 164.674687,210.417043 C164.669726,210.37676 164.669726,210.336022 164.674687,210.295739 L165.61203,200.370927 L166.560401,190.446115 C166.587899,190.196913 166.587899,189.945443 166.560401,189.696241 C166.579481,189.42345 166.564664,189.149345 166.516291,188.880201 Z" id="Path" fill="#023852"></path>
            <path d="M118.866165,161.134837 L115.701253,160.451128 L112.536341,159.778446 C112.246125,159.719524 111.950174,159.693628 111.654135,159.701253 C111.356029,159.712079 111.060093,159.756469 110.77193,159.833584 L108.378947,160.517293 L105.974937,161.189975 L113.58396,162.105263 L121.237093,162.965414 C120.73484,162.042988 119.851083,161.389251 118.822055,161.178947 L118.866165,161.134837 Z" id="Path" fill="#003A5D" opacity="0.6" style="mix-blend-mode: multiply;"></path>
            <path d="M130.213534,176.176441 L127.666165,175.812531 L125.129825,175.448622 C123.375918,175.194425 122.053795,173.723853 121.986967,171.952882 L121.865664,168.644612 L121.744361,165.336341 L121.744361,165.148872 C121.744361,165.082707 121.744361,165.016541 121.744361,164.961404 C121.767302,164.591495 121.737599,164.220203 121.65614,163.858647 C121.576803,163.51767 121.446697,163.190545 121.270175,162.888221 L113.58396,162.105263 L105.930827,161.234085 L101.850627,162.39198 L97.7704261,163.494737 C97.1153581,163.702665 96.5286138,164.083668 96.0721805,164.597494 C95.6134624,165.099361 95.3007585,165.717142 95.1679198,166.38396 L94.0651629,171.897744 L92.962406,177.411529 C92.9287918,177.593749 92.9066929,177.777907 92.8962406,177.962907 C92.8797243,178.150012 92.8797243,178.338208 92.8962406,178.525313 L93.3483709,182.429073 L93.8005013,186.332832 C93.8422181,186.643417 93.9237575,186.947336 94.0431078,187.237093 C94.1572103,187.522204 94.3053161,187.792497 94.4842105,188.042105 C95.4877193,188.825063 96.6897243,189.696241 97.5609023,190.368922 L99.1488722,191.471679 L114.587469,183.818546 L130.213534,176.176441 Z" id="Path" fill="#003A5D" opacity="0.6" style="mix-blend-mode: multiply;"></path>
            <path d="M147.394486,193.23609 L147.394486,194.338847 L147.394486,195.441604 L148.067168,195.739348 L148.73985,196.037093 C149.842607,196.037093 150.118296,196.577444 150.173434,197.415539 C150.228571,198.253634 149.985965,199.356391 149.941855,200.415038 L149.489724,210.571429 L149.048622,220.72782 L152.180451,208.939348 L155.213033,197.161905 L151.287218,195.18797 L147.394486,193.23609 Z" id="Path" fill="#003A5D" opacity="0.6" style="mix-blend-mode: multiply;"></path>
            <path d="M158.796992,156.514286 L160.418045,156.701754 L162.039098,156.878195 L162.259649,156.878195 L165.093734,156.734837 L167.916792,156.580451 L168.148371,156.580451 L168.368922,156.580451 L171.974937,157.683208 L175.580952,158.785965 C176.150834,158.956629 176.540976,159.481303 176.540352,160.07619 L176.540352,160.208521 C176.534354,160.949047 175.935513,161.547888 175.194987,161.553885 L161.829574,161.553885 L161.653133,161.553885 L159.833584,161.068672 L158.025063,160.583459 C157.330166,160.404288 156.901433,159.707595 157.054637,159.006516 L157.209023,158.300752 L157.352381,157.606015 C157.42895,157.283903 157.616312,156.998957 157.881704,156.801003 C158.143097,156.599819 158.467536,156.498187 158.796992,156.514286 L158.796992,156.514286 Z" id="Path" fill="#0099DA"></path>
            <path d="M149.864662,153.580952 L149.710276,153.580952 L149.55589,153.580952 L141.494737,150.173434 L133.433584,146.666667 C133.181756,146.560525 132.950382,146.411252 132.749875,146.225564 C132.549018,146.042389 132.381158,145.826036 132.253634,145.585965 L128.669674,138.870175 L125.096742,132.143358 C124.627436,131.285295 123.683203,130.799177 122.71215,130.915704 C121.741098,131.03223 120.938685,131.727945 120.685714,132.672682 L118.336842,141.737343 L115.98797,150.802005 C115.704506,151.914109 116.250496,153.070867 117.289223,153.558897 L123.166917,156.293734 L129.033584,159.039599 L129.419549,159.182957 C129.557325,159.215743 129.697422,159.237864 129.838596,159.249123 L144.097243,160.506266 L158.366917,161.774436 L158.785965,158.918296 L159.193985,156.073183 L154.540351,154.827068 L149.864662,153.580952 Z" id="Path" fill="#F4F6F7"></path>
            <path d="M122.406015,126.960401 L126.949373,135.528822 L131.492732,144.097243 C131.740413,144.548995 131.858701,145.060307 131.834586,145.574937 C131.805095,146.092998 131.641711,146.594548 131.360401,147.030576 L127.280201,153.261153 L123.2,159.480702 L121.810526,148.111278 L120.376942,136.741855 L121.369424,131.856642 L122.406015,126.960401 Z" id="Path" fill="#C7DFF5"></path>
            <path d="M130.36792,85.0887218 L129.6401,88.2756892 L128.901253,91.4626566 L128.901253,91.5288221 L128.548371,94.9032581 L128.195489,98.2776942 C128.177407,98.4464662 128.099106,98.6030681 127.974937,98.718797 C127.850876,98.8309232 127.690023,98.8936949 127.522807,98.8952381 L125.714286,98.8952381 C125.602552,98.8904283 125.491722,98.9171803 125.394486,98.9724311 C125.295553,99.0275517 125.209177,99.1026618 125.140852,99.1929825 L123.24411,102.071178 L121.303258,104.960401 C121.221249,105.090519 121.096471,105.188002 120.950376,105.23609 C120.803744,105.285671 120.644878,105.285671 120.498246,105.23609 L118.678697,104.541353 L116.892231,103.846617 C116.746547,103.791572 116.585784,103.791572 116.4401,103.846617 C116.297217,103.894869 116.173547,103.987621 116.087218,104.111278 L114.311779,106.713784 L112.525313,109.316291 C112.412321,109.47718 112.235538,109.581643 112.0401,109.603008 C111.842761,109.626922 111.644949,109.56233 111.499749,109.426566 L107.088722,105.291228 L102.677694,101.166917 C102.580859,101.084567 102.514778,100.97184 102.490226,100.847118 C102.45696,100.724352 102.45696,100.594946 102.490226,100.47218 L103.460652,97.2741855 L104.42005,94.0651629 L104.42005,93.8997494 C104.425433,93.8447429 104.425433,93.7893423 104.42005,93.7343358 L103.659148,89.9298246 L102.887218,86.1363409 C102.870288,86.0637984 102.870288,85.9883319 102.887218,85.9157895 C102.900674,85.8435183 102.922894,85.7731578 102.953383,85.7062657 L105.158897,80.9754386 L107.364411,76.2446115 C107.410782,76.1556561 107.474529,76.076909 107.55188,76.0130326 C107.621978,75.9455021 107.710024,75.8995648 107.805514,75.8807018 L112.823058,74.5573935 L117.851629,73.2340852 C117.963223,73.2013073 118.081889,73.2013073 118.193484,73.2340852 C118.307194,73.2577945 118.411024,73.3154776 118.491228,73.3994987 L124.225564,78.9132832 L129.948872,84.4270677 C130.03404,84.5036794 130.095302,84.6032305 130.125313,84.7137845 C130.248604,84.8055549 130.334727,84.9386529 130.36792,85.0887218 Z" id="Path" fill="#0099DA"></path>
            <path d="M137.480702,156.337845 L140.017043,156.437093 L142.564411,156.536341 L142.685714,156.536341 L146.754887,155.973935 L150.82406,155.411529 L150.978446,155.411529 C151.026096,155.406422 151.074155,155.406422 151.121805,155.411529 L155.532832,156.679699 L159.94386,157.94787 C160.035719,157.976259 160.121659,158.021097 160.197494,158.080201 C160.274844,158.144077 160.338592,158.222824 160.384962,158.311779 L160.903258,159.315288 L161.432581,160.329825 C161.560624,160.551601 161.560624,160.82484 161.432581,161.046617 C161.307118,161.268686 161.070056,161.40415 160.815038,161.399499 L138.03208,161.399499 C137.85746,161.402376 137.688161,161.339382 137.557895,161.223058 C137.424525,161.110077 137.334812,160.954056 137.304261,160.781955 L137.017544,158.973434 L136.730827,157.17594 C136.693938,156.959025 136.757158,156.737065 136.902805,156.572142 C137.048452,156.407218 137.26089,156.317035 137.480702,156.326817 L137.480702,156.337845 Z" id="Path" fill="#0099DA"></path>
            <polygon id="Path" fill="#FFE700" points="173.165915 161.410526 174.434085 161.421554 175.691228 161.421554 173.717293 152.00401 171.732331 142.597494 170.541353 142.8401 169.339348 143.093734 171.247118 152.257644"></polygon>
            <path d="M120.718797,104.905263 L118.998496,102.247619 L117.289223,99.5899749 C117.272439,99.5592299 117.24498,99.5356935 117.21203,99.5238095 C117.177023,99.5077639 117.136762,99.5077639 117.101754,99.5238095 L113.936842,99.8766917 L110.782957,100.240602 C110.709581,100.247206 110.645898,100.293906 110.617544,100.361905 C110.574873,100.425228 110.574873,100.508105 110.617544,100.571429 L112.657644,103.118797 L114.686717,105.64411 C114.728305,105.69106 114.789636,105.715593 114.85213,105.710276 C114.918082,105.708552 114.979371,105.675865 115.017544,105.622055 L115.646115,104.706767 L116.274687,103.780451 C116.301332,103.742661 116.340335,103.71536 116.384962,103.703258 C116.428361,103.692053 116.473895,103.692053 116.517293,103.703258 L118.469173,104.453133 L120.43208,105.203008 C120.512076,105.23402 120.602917,105.206768 120.652632,105.136842 C120.724348,105.083376 120.751442,104.988547 120.718797,104.905263 L120.718797,104.905263 Z" id="Path" fill="#0097D7" style="mix-blend-mode: multiply;"></path>
            <path d="M127.721303,97.4947368 L128.030075,94.4842105 L128.338847,91.4736842 L126.883208,94.7819549 L125.438596,98.0902256 L126.993484,98.0902256 C127.174937,98.0899638 127.349087,98.0187206 127.478697,97.8917293 C127.602112,97.7906236 127.68763,97.6506852 127.721303,97.4947368 L127.721303,97.4947368 Z" id="Path" fill="#0097D7" style="mix-blend-mode: multiply;"></path>
            <path d="M100.505263,91.7383459 C100.740237,90.3494599 100.410732,88.9242518 99.5899749,87.7794486 C98.7811355,86.6169247 97.5434283,85.8235226 96.1493734,85.5739348 C93.2550138,85.1149584 90.535224,87.0851965 90.069237,89.9784357 C89.6032499,92.8716749 91.5668931,95.5962299 94.4589949,96.0692249 C97.3510967,96.5422198 100.080401,94.585183 100.560401,91.6942356 L100.505263,91.7383459 Z" id="Path" fill="#023852"></path>
            <path d="M129.882707,84.4601504 L124.942356,82.320802 L120.013033,80.1814536 C119.927745,80.1492818 119.833658,80.1492818 119.748371,80.1814536 C119.66153,80.2107528 119.587501,80.2691967 119.538847,80.3468672 L116.340852,85.6621554 L113.153885,90.9884712 C113.081502,91.1004946 112.956412,91.1672092 112.823058,91.1649123 C112.684589,91.1649123 112.557392,91.0885944 112.492231,90.966416 L111.54386,89.202005 L110.595489,87.4265664 C110.546905,87.3419996 110.468106,87.2789611 110.374937,87.2501253 C110.283392,87.2108892 110.179766,87.2108892 110.088221,87.2501253 L108.709774,88 L107.331328,88.7498747 C107.2804,88.7775796 107.235432,88.8150525 107.198997,88.8601504 C107.188007,88.9147405 107.188007,88.9709737 107.198997,89.0255639 L106.890226,90.8451128 L106.526316,92.6315789 C106.526316,92.6315789 106.526316,92.6315789 106.526316,92.6977444 C106.520425,92.7156516 106.520425,92.734975 106.526316,92.7528822 L105.258145,95.1017544 L104.001003,97.4506266 C103.94264,97.5605484 103.833537,97.6343466 103.709791,97.6476052 C103.586044,97.6608637 103.463784,97.6118544 103.383459,97.516792 L100.725815,94.2746867 L98.079198,91.0325815 C98.0411043,90.9925623 98.0144465,90.9430549 98.002005,90.8892231 C97.9909666,90.8309273 97.9909666,90.7710777 98.002005,90.712782 L98.6857143,87.4045113 L99.3804511,84.0962406 C99.3756695,84.0744446 99.3756695,84.0518712 99.3804511,84.0300752 C99.372883,84.0086693 99.372883,83.9853157 99.3804511,83.9639098 L102.78797,78.8471178 L106.184461,73.7303258 C106.212607,73.6887725 106.250459,73.6547065 106.294737,73.6310777 C106.336705,73.5981382 106.385801,73.5754787 106.438095,73.5649123 L112.536341,72.4621554 L118.623559,71.3593985 L118.75589,71.3593985 L118.877193,71.3593985 L124.269674,74.4030075 L129.662155,77.4576441 C129.718564,77.4821827 129.765144,77.5248819 129.794486,77.5789474 C129.81011,77.6329785 129.81011,77.6903298 129.794486,77.7443609 L130.059148,80.8541353 L130.32381,83.9528822 C130.334902,84.0858601 130.27652,84.2151348 130.169424,84.2947368 C130.103546,84.3901385 129.998272,84.4508733 129.882707,84.4601504 Z" id="Path" fill="#023852"></path>
            <path d="M106.427068,87.4045113 C106.38132,87.3175581 106.301391,87.253615 106.206516,87.2280702 C106.114718,87.1900847 106.011597,87.1900847 105.919799,87.2280702 L104.541353,87.9779449 L103.162907,88.7278195 C103.1174,88.7585788 103.076548,88.7957167 103.041604,88.8380952 C103.008245,88.8880105 102.985707,88.9443571 102.975439,89.0035088 L102.666667,90.8230576 L102.368922,92.6315789 C102.368922,92.6315789 102.368922,92.6315789 102.368922,92.6977444 C102.37164,92.7160232 102.37164,92.7346034 102.368922,92.7528822 L101.795489,93.8556391 L101.233083,94.958396 L102.33584,96.2706767 L103.438596,97.593985 C103.518922,97.6890474 103.641182,97.7380567 103.764929,97.7247981 C103.888675,97.7115396 103.997778,97.6377414 104.05614,97.5278195 L105.313283,95.1789474 L106.581454,92.8300752 C106.575563,92.812168 106.575563,92.7928446 106.581454,92.7749373 C106.581454,92.7749373 106.581454,92.7749373 106.581454,92.7087719 L106.890226,90.8781955 L107.198997,89.0586466 C107.192736,89.029573 107.192736,88.9994997 107.198997,88.9704261 C107.1933,88.9450105 107.1933,88.9186487 107.198997,88.8932331 L106.813033,88.1654135 L106.427068,87.4045113 Z" id="Path" fill="#003A5D" opacity="0.6" style="mix-blend-mode: multiply;"></path>
            <path d="M129.871679,77.8766917 C129.887303,77.8226606 129.887303,77.7653093 129.871679,77.7112782 C129.842337,77.6572127 129.795757,77.6145135 129.739348,77.5899749 L124.346867,74.5353383 L118.954386,71.4917293 L118.833083,71.4917293 L118.700752,71.4917293 L117.189975,71.7674185 L115.66817,72.0320802 L120.630576,74.8330827 L125.581955,77.6340852 C125.638363,77.6586238 125.684944,77.701323 125.714286,77.7553885 C125.725276,77.8099786 125.725276,77.8662118 125.714286,77.920802 L125.92381,80.402005 L126.133333,82.883208 L128.00802,83.6882206 L129.882707,84.5042607 C129.996398,84.5650351 130.132925,84.5650351 130.246617,84.5042607 C130.353713,84.4246586 130.412095,84.2953839 130.401003,84.162406 L130.125313,80.9864662 L129.871679,77.8766917 Z" id="Path" fill="#33627E"></path>
            <path d="M125.262155,152.434085 C124.933564,152.352426 124.644481,152.157099 124.446115,151.882707 C124.253893,151.606281 124.171349,151.268245 124.214536,150.934336 L125.052632,143.93183 L125.879699,136.940351 C125.90168,136.831171 125.90168,136.718704 125.879699,136.609524 C125.870103,136.499664 125.844083,136.391865 125.802506,136.289724 L120.928321,123.508772 L116.043108,110.661654 C115.997889,110.521999 115.968301,110.377758 115.954887,110.231579 C115.93877,110.084986 115.93877,109.937069 115.954887,109.790476 L116.175439,109.040602 L116.39599,108.279699 C116.485563,107.972966 116.462085,107.644272 116.329825,107.353383 C116.203585,107.063745 115.981678,106.826265 115.701253,106.680702 L109.536842,103.504762 L103.372431,100.317794 C103.002994,100.126687 102.566659,100.11412 102.186834,100.283646 C101.80701,100.453172 101.524995,100.786359 101.420551,101.188972 L100.968421,102.887218 L100.516291,104.574436 L100.450125,104.750877 C100.431169,104.812428 100.405271,104.871622 100.372932,104.927318 L97.6601504,109.503759 L94.958396,114.091228 C94.9031065,114.188993 94.8587298,114.292539 94.8260652,114.4 C94.7909258,114.506819 94.7723315,114.618385 94.7709273,114.730827 L94.4290727,123.166917 L94.087218,131.603008 C94.0818968,131.665384 94.0818968,131.7281 94.087218,131.790476 C94.0818603,131.849168 94.0818603,131.908226 94.087218,131.966917 L95.3223058,137.315288 L96.5463659,142.674687 C96.5578571,142.758841 96.5578571,142.844167 96.5463659,142.928321 C96.5516265,143.012784 96.5516265,143.097492 96.5463659,143.181955 L94.9363409,154.022055 L93.3263158,164.862155 C93.2545015,165.34304 93.4434429,165.825891 93.8225564,166.130326 C94.1957245,166.446967 94.7131844,166.531797 95.1679198,166.350877 L98.6746867,165.038596 L102.181454,163.726316 C102.263067,163.694255 102.348213,163.672043 102.435088,163.66015 C102.515589,163.649253 102.597193,163.649253 102.677694,163.66015 L113.705263,163.792481 L124.732832,163.913784 L124.953383,163.913784 L125.162907,163.858647 L127.842607,163.108772 L130.533333,162.358897 C130.672455,162.238828 130.791573,162.097375 130.886216,161.93985 C131.029574,161.741353 131.172932,161.553885 131.239098,161.553885 L138.815038,161.553885 L139.355388,158.752882 L139.884712,155.962907 L132.551378,154.242607 L125.262155,152.434085 Z" id="Path" fill="#F4F6F7"></path>
            <polygon id="Path" fill="#023852" points="129.573935 209.093734 127.015539 209.093734 124.46817 209.093734 124.46817 217.419549 124.46817 225.756391 127.015539 225.756391 129.573935 225.756391 129.573935 217.419549"></polygon>
            <polygon id="Path" fill="#DFE4E6" points="129.948872 201.451629 127.015539 201.451629 124.093233 201.451629 124.093233 205.597995 124.093233 209.744361 127.015539 209.744361 129.948872 209.744361 129.948872 205.597995"></polygon>
            <path d="M150.427068,199.99599 L150.757895,199.99599 L151.088722,199.885714 C151.46929,199.705775 151.765613,199.385746 151.915789,198.992481 C152.075115,198.603832 152.075115,198.168098 151.915789,197.779449 C150.041103,193.699248 144.990476,192.078195 140.182456,191.504762 C136.751986,191.131365 133.291122,191.131365 129.860652,191.504762 L119.93584,192.342857 L110.011028,193.19198 C107.253731,193.466549 104.469469,193.234839 101.795489,192.508271 C96.567586,191.245553 92.6362678,186.925471 91.8706767,181.602005 C91.3947673,178.878033 91.4209285,176.09 91.9478697,173.375439 L93.2380952,165.942857 L94.5393484,158.510276 C94.8037254,156.800788 94.7701468,155.058433 94.4401003,153.360401 C94.1384562,151.771269 93.751938,150.199428 93.2822055,148.651629 L88.4080201,131.669173 L83.5558897,114.686717 C83.3150394,113.848208 82.4465248,113.357522 81.60401,113.58396 C80.7600101,113.824733 80.2678355,114.700804 80.5012531,115.546867 L85.3754386,132.529323 L90.2385965,149.511779 C90.6762883,150.892936 91.0443375,152.295204 91.3413534,153.713283 C91.6253721,155.103361 91.6701245,156.53171 91.4736842,157.936842 L90.5694236,165.65614 L89.6651629,173.375439 C89.0648102,176.370884 89.0648102,179.455683 89.6651629,182.451128 C90.2526417,185.336067 91.6178329,188.005436 93.6130326,190.170426 C95.7939851,192.439829 98.567686,194.052091 101.619048,194.82406 C104.805482,195.673469 108.118788,195.942418 111.400501,195.618045 L120.818045,195.154887 L130.235589,194.691729 C133.63504,194.325439 137.065522,194.355044 140.458145,194.77995 C144.306767,195.309273 147.901754,196.555388 149.081704,199.124812 C149.33837,199.691504 149.904217,200.054338 150.526316,200.051149 L150.427068,199.99599 Z" id="Path" fill="#383838"></path>
            <path d="M144.461149,198.915288 C144.458872,197.380636 145.381464,195.995791 146.798567,195.406739 C148.21567,194.817688 149.848083,195.140488 150.934336,196.224561 C152.149462,197.43725 152.398723,199.314839 151.542093,200.802566 C150.685462,202.290293 148.936481,203.017297 147.277664,202.575173 C145.618846,202.13305 144.463704,200.632012 144.461149,198.915288 L144.461149,198.915288 Z" id="Path" fill="#383838"></path>
            <path d="M76.4320802,116.462155 C76.4320802,114.367072 78.1304807,112.668672 80.2255639,112.668672 C82.3206471,112.668672 84.0190476,114.367072 84.0190476,116.462155 C84.0190476,118.557239 82.3206471,120.25564 80.2255639,120.25564 C79.2184874,120.256448 78.2516897,119.860219 77.5348371,119.152882 C76.8223504,118.439443 76.4252076,117.470414 76.4320802,116.462155 L76.4320802,116.462155 Z" id="Path" fill="#282221"></path>
            <path d="M164.222556,260.504261 L163.825564,257.945865 L163.439599,255.398496 C163.319831,254.648328 163.008353,253.941805 162.535338,253.347368 C162.058939,252.755339 161.435248,252.298979 160.726817,252.02406 L146.556391,246.510276 L132.396992,240.996491 C129.446222,239.855501 127.37299,237.170495 127.015539,234.027068 C126.667264,237.17078 124.596228,239.858448 121.645113,240.996491 L107.474687,246.510276 L93.3152882,252.02406 C91.872299,252.582338 90.837716,253.869258 90.6025063,255.398496 L90.2055138,257.945865 L89.8195489,260.504261 L85.5629073,260.504261 L86.0150376,257.626065 L86.4671679,254.758897 C86.9432976,251.761272 88.975511,249.241999 91.8045113,248.142356 L105.919799,241.790476 L120.035088,235.427569 C120.84488,235.111196 121.543123,234.562576 122.042105,233.850627 C122.534174,233.129336 122.795664,232.275649 122.79198,231.402506 L122.847118,229.494737 L122.847118,227.57594 C122.847118,225.748832 124.328281,224.267669 126.155388,224.267669 L127.919799,224.267669 C129.746907,224.267669 131.22807,225.748832 131.22807,227.57594 L131.22807,229.494737 L131.22807,231.402506 C131.226665,233.185081 132.322327,234.784748 133.984962,235.427569 L148.111278,241.790476 L162.226566,248.142356 C163.619667,248.685683 164.844586,249.587254 165.777444,250.75589 C166.73565,251.894702 167.371527,253.269264 167.619048,254.736842 L168.071178,257.60401 L168.523308,260.482206 L164.277694,260.482206 L164.222556,260.504261 Z" id="Path" fill="#DFE4E6"></path>
            <path d="M127.015539,205.112782 L127.015539,205.112782 C124.79757,205.100728 123.002531,203.305688 122.990476,201.087719 L122.990476,195.9599 C122.840148,195.123959 123.351697,194.311218 124.170426,194.085213 C125.106592,193.89907 126.063547,193.839724 127.015539,193.908772 L127.015539,193.908772 C127.967526,193.838779 128.924607,193.898133 129.860652,194.085213 C130.659959,194.309674 131.166244,195.095125 131.040602,195.915789 L131.040602,201.043609 C131.028547,203.261577 129.233507,205.056617 127.015539,205.068672 L127.015539,205.112782 Z" id="Path" fill="#DFE4E6"></path>
            <path d="M93.4365915,190.42406 C89.5072604,186.229393 87.7473455,180.448561 88.6726817,174.77594 L89.687218,168.346867 L90.712782,161.906767 C91.4983569,156.844435 95.8676026,153.117449 100.990476,153.139749 L137.149875,153.139749 C141.140795,153.136295 144.545451,156.027218 145.188972,159.965915 C145.386212,161.232695 145.284245,162.528054 144.891228,163.748371 L140.998496,175.878697 L137.116792,188.009023 C135.957843,191.688416 132.690171,194.302553 128.846115,194.625564 L118.777945,195.474687 L108.698747,196.32381 L107.893734,196.378948 L107.088722,196.378948 C101.905351,196.38028 96.9567337,194.217758 93.4365915,190.413033 L93.4365915,190.42406 Z M100.990476,156.304733 C97.4296913,156.294713 94.3945067,158.884925 93.8446115,162.403008 L92.8300752,168.843108 L91.8045113,175.27218 C91.0271847,179.987035 92.4769354,184.796104 95.7306242,188.295761 C98.9843131,191.795418 103.675175,193.591173 108.434085,193.158897 L118.502256,192.309774 L128.581454,191.460652 C131.1461,191.25019 133.326939,189.505519 134.095238,187.049624 L137.98797,174.919298 L141.869674,162.788972 C142.11416,162.046322 142.174708,161.255422 142.046115,160.484211 C141.656781,158.082218 139.583216,156.316885 137.149875,156.315789 L100.990476,156.315789 L100.990476,156.304733 Z" id="Shape" fill="#DFE4E6"></path>
            <path d="M78.2957393,116.462155 C78.2957393,115.414614 79.1449396,114.565414 80.1924812,114.565414 C81.2400228,114.565414 82.0892231,115.414614 82.0892231,116.462155 C82.0837488,116.966664 81.8820279,117.449212 81.526817,117.807519 C80.7839272,118.540435 79.5900076,118.540435 78.8471178,117.807519 C78.494956,117.448099 78.2971056,116.965344 78.2957393,116.462155 Z" id="Path" fill="#DFE4E6"></path>
            <path d="M146.247617,198.937343 C146.246405,198.079267 146.821421,197.327251 147.649819,197.103523 C148.478216,196.879795 149.353637,197.240088 149.784566,197.98211 C150.215495,198.724132 150.094586,199.663042 149.489724,200.271679 C149.137059,200.632049 148.654096,200.835163 148.149875,200.835163 C147.645654,200.835163 147.16269,200.632049 146.810025,200.271679 C146.453475,199.918777 146.251253,199.438995 146.247617,198.937343 Z" id="Path" fill="#DFE4E6"></path>
            <path d="M227.98396,121.777444 L225.028571,119.373434 L222.062155,116.969424 C222.053211,116.929263 222.029621,116.893878 221.99599,116.870175 C221.957249,116.853625 221.913428,116.853625 221.874687,116.870175 L221.742356,116.870175 L221.654135,116.870175 C220.231579,116.925313 216.548371,116.925313 212.964411,116.870175 L204.792982,116.781955 C204.721028,116.782545 204.654411,116.820018 204.616541,116.881203 C204.578639,116.94194 204.578639,117.018962 204.616541,117.079699 C205.233582,118.134514 206.036903,119.068609 206.987469,119.836591 C208.669805,121.196822 210.72067,122.022545 212.87619,122.207519 C214.915431,122.424983 216.964392,121.896093 218.643609,120.718797 C219.845766,119.890198 220.884996,118.84723 221.709273,117.642105 L224.609524,119.990977 L227.509774,122.350877 L227.564912,122.350877 L227.564912,122.350877 C227.639584,122.378777 227.721819,122.378777 227.796491,122.350877 C227.867385,122.325209 227.931497,122.283725 227.98396,122.229574 C228.124003,122.080921 228.124003,121.848903 227.98396,121.700251 L227.98396,121.777444 Z" id="Path" fill="#33627E"></path>
            <path d="M258.045113,117.653133 L249.862657,117.730326 C246.388972,117.730326 242.871178,117.730326 241.426566,117.730326 L241.316291,117.730326 L241.206015,117.730326 L237.622055,119.097744 L233.993985,120.465163 C233.80267,120.542031 233.705551,120.755691 233.773434,120.950376 C233.801808,121.022609 233.851897,121.084257 233.916792,121.126817 C233.978148,121.169934 234.051325,121.193042 234.126316,121.192982 L234.192481,121.192982 L234.258647,121.192982 L237.798496,119.858647 L241.327318,118.524311 C242.154752,119.729911 243.193345,120.775976 244.392982,121.61203 C246.07558,122.801389 248.133248,123.338342 250.182456,123.122807 C252.253706,122.943745 254.231186,122.178762 255.883709,120.917293 C256.867328,120.159941 257.704439,119.229402 258.353885,118.171429 C258.410663,118.077941 258.411613,117.96085 258.356357,117.866454 C258.301101,117.772059 258.198538,117.71556 258.089223,117.719298 L258.045113,117.653133 Z" id="Path" fill="#33627E"></path>
            <path d="M247.480702,86.9192982 C245.517794,87.6471178 243.069674,89.8857143 241.161905,92.8962406 C239.102759,96.0430303 238.123468,99.7744002 238.37193,103.526817 C238.570426,105.467669 238.713784,106.912281 238.813033,107.992982 L239.044612,110.264662 L235.504762,115.557895 L231.953885,120.8401 C231.903491,120.926642 231.884046,121.027757 231.898747,121.126817 C231.921867,121.225411 231.980826,121.311884 232.06416,121.369424 L232.163409,121.369424 L232.273684,121.369424 C232.400952,121.383651 232.523792,121.317843 232.582456,121.20401 L235.978947,116.142356 L239.375439,111.069674 C242.04622,110.331582 244.613692,109.260876 247.017544,107.882707 C251.043631,105.690884 254.274124,102.282848 256.247619,98.1453634 C258.453133,93.1609023 257.19599,89.99599 254.957393,88.2205514 C252.811967,86.6270022 250.038357,86.1442794 247.480702,86.9192982 L247.480702,86.9192982 Z" id="Path" fill="#33627E"></path>
            <path d="M217.860652,98.0681704 C217.367859,100.090657 217.490744,102.21427 218.213534,104.166416 C218.951983,106.696022 220.501974,108.912509 222.624561,110.474185 L225.227068,112.260652 L226.539348,113.17594 L227.774436,117.465664 L229.020551,121.766416 C229.034541,121.836776 229.078953,121.897338 229.141855,121.93183 C229.206217,121.953677 229.275989,121.953677 229.340351,121.93183 L229.417544,121.93183 L229.472682,121.93183 C229.47865,121.895313 229.47865,121.85807 229.472682,121.821554 C229.483887,121.778155 229.483887,121.732622 229.472682,121.689223 L228.281704,117.57594 L227.16792,113.385464 C227.960337,111.625024 228.530794,109.772889 228.866165,107.871679 C229.520653,104.705288 229.157851,101.413055 227.829574,98.4651629 C226.131328,95.0466165 223.881704,94.2636591 221.929825,94.6827068 C220.118856,95.1131819 218.613363,96.3657193 217.860652,98.0681704 Z" id="Path" fill="#33627E"></path>
            <path d="M247.94386,85.1107769 C247.94386,77.6561404 244.635589,74.3588972 240.853133,73.4215539 C237.279648,72.6009367 233.528659,73.5212993 230.740852,75.9027569 C228.678697,77.9097744 226.815038,82.0892231 226.120301,86.9303258 C225.264226,92.0184958 226.096918,97.2470277 228.491228,101.817544 L231.865664,107.794486 L233.321303,110.385965 L232.053133,116.693734 L230.784962,123.001504 C230.762954,123.097055 230.783034,123.197457 230.8401,123.277193 C230.891639,123.36148 230.975233,123.42119 231.071679,123.442607 C231.164104,123.477292 231.265971,123.477292 231.358396,123.442607 C231.440982,123.386362 231.496809,123.298634 231.512782,123.2 L232.769925,117.002506 L234.01604,110.805013 C236.952597,108.345728 239.571567,105.530428 241.812531,102.42406 C245.032581,97.8365915 247.976942,91.8817043 247.94386,85.1107769 Z" id="Path" fill="#023852"></path>
            <path d="M228.866165,121.997995 L224.620551,115.381454 L220.374937,108.764912 C220.262021,105.91268 219.791509,103.085903 218.974436,100.350877 C217.828968,96.1231767 215.415963,92.3478051 212.06015,89.5328321 C207.792481,86.2245614 204.418045,86.5553885 202.135338,88.2867168 C200.049863,89.9582805 198.879856,92.5192052 198.981454,95.1899749 C199.190977,97.2741855 200.734837,100.229574 203.17193,102.810025 C205.708731,105.62833 209.104106,107.531445 212.83208,108.224561 L217.717293,108.996491 L219.922807,109.338346 L224.124311,115.877694 L228.270677,122.406015 C228.298751,122.450538 228.33643,122.488216 228.380952,122.516291 C228.421074,122.550444 228.471644,122.569893 228.524311,122.571429 L228.656642,122.571429 L228.788972,122.571429 C228.872307,122.513889 228.931266,122.427416 228.954386,122.328822 C228.978177,122.210823 228.945552,122.08848 228.866165,121.997995 L228.866165,121.997995 Z" id="Path" fill="#023852"></path>
            <path d="M236.05614,120.950376 L224.76391,120.950376 C222.676941,121.557394 220.731466,122.573239 219.040602,123.938847 C216.294737,126.144361 213.813534,129.915789 214.806015,135.881704 C215.964663,141.858582 217.765239,147.692892 220.176441,153.283208 C222.238596,158.256642 224.047118,161.741353 224.047118,161.741353 L236.772932,161.741353 C236.772932,161.741353 238.581454,158.256642 240.643609,153.283208 C243.057079,147.682294 244.857692,141.836773 246.014035,135.848622 C247.007366,131.387459 245.367558,126.750613 241.790476,123.905764 C240.091517,122.553839 238.143023,121.549615 236.05614,120.950376 L236.05614,120.950376 Z" id="Path" fill="#DFE4E6"></path>
            <path d="M179.826566,159.513784 L179.826566,159.513784 C179.867862,160.735739 180.864616,161.708183 182.087218,161.719298 L197.59198,161.719298 C198.189043,161.722785 198.762009,161.48405 199.17995,161.057644 C199.605857,160.633932 199.847557,160.059399 199.852632,159.458647 L179.826566,159.458647 L179.826566,159.513784 Z" id="Path" fill="#F4F6F7"></path>
            <path d="M197.106767,130.279699 L186.47619,130.279699 C186.501772,131.462752 186.14607,132.62265 185.461654,133.58797 C184.763818,134.547201 184.4032,135.710484 184.43609,136.896241 C184.408132,138.081315 184.768271,139.243053 185.461654,140.204511 C186.833374,142.19674 186.833374,144.828824 185.461654,146.821053 C184.766059,147.781406 184.405683,148.943909 184.43609,150.129323 L195.066667,150.129323 C195.041085,148.94627 195.396787,147.786373 196.081203,146.821053 C197.468867,144.833811 197.468867,142.191753 196.081203,140.204511 C195.396787,139.239191 195.041085,138.079294 195.066667,136.896241 C195.036314,135.71253 195.392467,134.55116 196.081203,133.58797 C196.776798,132.627616 197.137174,131.465114 197.106767,130.279699 Z" id="Path" fill="url(#linearGradient-1)" opacity="0.3"></path>
            <path d="M182.594463,150.030075 L182.594463,156.834085 C182.59154,157.54276 182.871756,158.223261 183.372869,158.724374 C183.873982,159.225487 184.554483,159.505704 185.263158,159.50278 L194.41604,159.50278 C195.124715,159.505704 195.805216,159.225487 196.306329,158.724374 C196.807442,158.223261 197.087658,157.54276 197.084735,156.834085 L197.084735,150.030075 L182.594463,150.030075 Z" id="Path" fill="#F4F6F7"></path>
            <polygon id="Path" fill="#428AC1" points="191.868672 154.099248 190.854135 153.084712 189.839599 152.081203 188.825063 153.084712 187.810526 154.099248 188.825063 155.113784 189.839599 156.128321 190.854135 155.113784"></polygon>
            <polygon id="Path" fill="#428AC1" points="191.835589 157.451629 189.839599 157.451629 187.843609 157.451629 187.843609 157.17594 187.843609 156.900251 189.839599 156.900251 191.835589 156.900251 191.835589 157.17594"></polygon>
            <path d="M211.012531,260.680702 L217.077694,221.499749 L223.13183,182.307769 C224.264541,174.791581 230.737846,169.243034 238.338847,169.273183 L249.972932,169.273183 C257.573933,169.243034 264.047238,174.791581 265.17995,182.307769 L271.278195,221.499749 L277.332331,260.680702 L280.640602,260.680702 L274.553383,221.246115 L268.455138,181.822556 C267.09564,172.718706 259.254809,165.99598 250.050125,166.041869 L238.338847,166.041869 C229.134164,165.99598 221.293332,172.718706 219.933835,181.822556 L213.835589,221.246115 L207.737343,260.680702 L211.045614,260.680702 L211.012531,260.680702 Z" id="Path" fill="#DFE4E6"></path>
            <path d="M284.015038,158.874185 L319.148872,158.874185 C319.511549,158.875871 319.859429,159.018186 320.119298,159.271178 C320.381037,159.530631 320.527981,159.88409 320.527356,160.252632 L320.527356,160.39599 C320.530053,160.761713 320.382551,161.112528 320.119298,161.366416 C319.863235,161.626477 319.513836,161.773383 319.148872,161.774436 L284.015038,161.774436 C283.253743,161.774436 282.636409,161.157285 282.636409,160.39599 L282.636409,160.252632 C282.630567,159.885231 282.773861,159.531107 283.033687,159.271281 C283.293513,159.011455 283.647637,158.868161 284.015038,158.874185 L284.015038,158.874185 Z" id="Path" fill="#F4F6F7"></path>
            <path d="M280.78396,120.465163 L283.165915,140.182456 L285.54787,159.899749 C285.595391,160.264622 285.496245,160.633447 285.27218,160.925313 C285.041842,161.211119 284.709942,161.396826 284.345865,161.443609 L284.169424,161.443609 C283.805111,161.48705 283.438511,161.383461 283.150808,161.155782 C282.863104,160.928103 282.678038,160.595122 282.636591,160.230576 L280.254637,140.513283 L277.894737,120.818045 C277.85086,120.455137 277.954116,120.089769 278.181454,119.803509 C278.400935,119.510679 278.732724,119.322798 279.096742,119.285213 L279.273183,119.285213 C279.634331,119.241874 279.998173,119.340745 280.287719,119.560902 C280.565759,119.785212 280.744081,120.110155 280.78396,120.465163 L280.78396,120.465163 Z" id="Path" fill="#F4F6F7"></path>
            <path d="M78.8802005,257.372431 L59.4716792,257.372431 C56.6881746,256.808732 54.4271007,254.783889 53.5609023,252.079198 C53.0454293,250.705275 52.7585876,249.256166 52.7117794,247.789474 L47.197995,247.789474 C47.1511868,249.256166 46.8643451,250.705275 46.3488722,252.079198 C45.4826737,254.783889 43.2215998,256.808732 40.4380952,257.372431 L17.4566416,257.372431 C16.626023,257.378914 15.8322597,257.716264 15.2511278,258.309774 C14.664714,258.89478 14.3319816,259.687 14.324812,260.515288 L82.0561404,260.515288 C82.0448622,259.685673 81.7082576,258.893662 81.118797,258.309774 C80.5296244,257.708096 79.7223022,257.370055 78.8802005,257.372431 Z" id="Path" fill="#023852"></path>
            <polygon id="Path" fill="#023852" points="0.705764411 44.8491228 0.352882206 43.8566416 0 42.8531328 61.037594 21.4265664 122.06416 0 122.417043 1.00350877 122.769925 2.00701754 61.7323308 23.433584"></polygon>
            <polygon id="Path" fill="#023852" points="115.160902 17.0817043 113.021554 11.1709273 110.882206 5.27117794 111.874687 4.90726817 112.878195 4.5433584 115.017544 10.4541353 117.156892 16.3538847 116.164411 16.7177945"></polygon>
            <polygon id="Path" fill="#023852" points="32.0571429 89.0255639 31.1528822 88.4631579 30.2596491 87.8897243 52.3809524 52.8441103 74.5132832 17.7984962 75.4065163 18.3609023 76.3107769 18.9233083 54.1784461 53.9799499"></polygon>
            <polygon id="Path" fill="#023852" points="49.3263158 258.486216 36.6997494 146.798997 24.0842105 35.122807 25.1318296 35.0015038 26.1904762 34.8802005 38.8170426 146.567419 51.443609 258.243609 50.3849624 258.364912"></polygon>
            <polygon id="Path" fill="#F4F6F7" points="114.058145 14.9092732 115.359398 14.5343358 116.649624 14.1593985 117.796491 16.5413534 118.943358 18.9233083 116.80401 19.5408521 114.653634 20.1694236 114.35589 17.5338346"></polygon>
            <path d="M137.690226,29.3994987 C132.176441,30.5022556 128.063158,27.679198 125.251128,24.5473684 C123.517486,22.5976008 122.082963,20.4012197 120.994486,18.0300752 L118.866165,18.647619 L116.726817,19.2651629 L114.587469,19.8827068 L112.459148,20.5002506 C112.80036,23.0873328 112.759489,25.710518 112.337845,28.2857143 C111.621053,32.4210526 109.603008,37.1077694 104.386967,39.0155388 C99.1709273,40.9233083 97.6822055,44.6506266 97.5057644,47.837594 C97.4143581,49.8330432 97.7333852,51.8260248 98.4431078,53.6932331 L111.466667,49.9328321 L124.490226,46.1834586 L137.513784,42.4230576 L150.537343,38.6626566 C150.143559,36.703019 149.3516,34.8451061 148.210526,33.20401 C146.368922,30.6015038 143.1599,28.2857143 137.690226,29.3994987 Z" id="Path" fill="#023852"></path>
            <polygon id="Path" fill="#0099DA" points="123.354386 30.6566416 123.762406 30.5463659 124.170426 30.4250627 123.255138 27.2822055 122.350877 24.1393484 121.942857 24.2496241 121.545865 24.3709273 122.450125 27.5137845"></polygon>
            <polygon id="Path" fill="#0099DA" points="121.027569 31.3293233 121.435589 31.2190476 121.843609 31.0977444 120.928321 27.9548872 120.02406 24.8120301 119.61604 24.9223058 119.219048 25.043609 120.123308 28.1864662"></polygon>
            <polygon id="Path" fill="#0099DA" points="118.711779 32.002005 119.108772 31.8917293 119.516792 31.7704261 118.612531 28.6275689 117.697243 25.4847118 117.289223 25.5949875 116.892231 25.7162907 117.796491 28.8591479"></polygon>
            <polygon id="Path" fill="#0099DA" points="116.384962 32.6746867 116.781955 32.5533835 117.189975 32.4431078 116.274687 29.3002506 115.370426 26.1463659 114.973434 26.2676692 114.565414 26.3889724 115.469674 29.5318296"></polygon>
            <path d="M78.2958043,17.7984962 C78.3016487,16.7969047 77.9042014,15.8350821 77.1929825,15.1298246 C76.4884675,14.4159349 75.5272962,14.0140784 74.5243108,14.0140784 C73.5213254,14.0140784 72.5601541,14.4159349 71.8556391,15.1298246 C71.1444201,15.8350821 70.7469728,16.7969047 70.7528172,17.7984962 C70.749942,18.7996398 71.1463435,19.7606267 71.8542619,20.4685451 C72.5621804,21.1764635 73.5231673,21.572865 74.5243108,21.5699411 C75.5239819,21.5661312 76.4822357,21.1701585 77.1929825,20.4671679 C77.9000353,19.7591239 78.2967309,18.7991206 78.2958043,17.7984962 Z" id="Path" fill="#33627E"></path>
            <path d="M35.6411028,87.3934837 C35.716674,85.9954147 35.0137769,84.66996 33.8140432,83.9481935 C32.6143095,83.2264269 31.1140113,83.2264269 29.9142776,83.9481935 C28.7145439,84.66996 28.0116468,85.9954147 28.087218,87.3934837 C28.0813087,88.3950753 28.478756,89.3568978 29.1899749,90.0621554 C29.8944899,90.776045 30.8556612,91.1779015 31.8586466,91.1779015 C32.861632,91.1779015 33.8228033,90.776045 34.5273183,90.0621554 C35.2415333,89.3580211 35.6428577,88.3964319 35.6411028,87.3934837 Z" id="Path" fill="#33627E"></path>
            <path d="M27.7453634,35.3984962 C27.7492669,34.3077923 26.9810185,33.3667105 25.9116092,33.1522014 C24.8421999,32.9376922 23.7704471,33.5096944 23.3534118,34.5175297 C22.9363765,35.525365 23.2905879,36.6874212 24.198889,37.291275 C25.1071902,37.8951288 26.3157811,37.7720496 27.0837093,36.9974937 C27.5128828,36.5768883 27.7518533,35.9993762 27.7453634,35.3984962 Z" id="Path" fill="#33627E"></path>
            <path d="M114.433083,5.06165414 C114.427048,3.80954838 113.413509,2.79600929 112.161404,2.78997494 C110.911777,2.80193391 109.901683,3.81202745 109.889724,5.06165414 C109.901683,6.31128083 110.911777,7.32137436 112.161404,7.33333333 C113.413509,7.32729898 114.427048,6.31375989 114.433083,5.06165414 L114.433083,5.06165414 Z" id="Path" fill="#33627E"></path>
        </g>
    </g>
</svg>