<?xml version="1.0" encoding="UTF-8"?>
<svg width="440px" height="330px" viewBox="0 0 440 330" version="1.1" xmlns="http://www.w3.org/2000/svg" xmlns:xlink="http://www.w3.org/1999/xlink">
    <title>Graphic elements / Icons / Rich icons / coffee</title>
    <defs>
        <linearGradient x1="50%" y1="100%" x2="50%" y2="0%" id="linearGradient-1">
            <stop stop-color="#FFFFFF" offset="0%"></stop>
            <stop stop-color="#FFFFFF" stop-opacity="0" offset="100%"></stop>
        </linearGradient>
        <linearGradient x1="49.9842817%" y1="-0.0394081298%" x2="49.9842817%" y2="100%" id="linearGradient-2">
            <stop stop-color="#A5B1B8" offset="0%"></stop>
            <stop stop-color="#FFFFFF" offset="41%"></stop>
        </linearGradient>
        <linearGradient x1="49.9842817%" y1="-0.0394931109%" x2="49.9842817%" y2="100%" id="linearGradient-3">
            <stop stop-color="#A5B1B8" offset="0%"></stop>
            <stop stop-color="#FFFFFF" offset="41%"></stop>
        </linearGradient>
        <linearGradient x1="49.9848163%" y1="-0.00268404549%" x2="49.9848163%" y2="100%" id="linearGradient-4">
            <stop stop-color="#A5B1B8" offset="0%"></stop>
            <stop stop-color="#FFFFFF" offset="41%"></stop>
        </linearGradient>
        <linearGradient x1="50.0157183%" y1="99.9846682%" x2="50.0157183%" y2="0%" id="linearGradient-5">
            <stop stop-color="#A5B1B8" offset="0%"></stop>
            <stop stop-color="#FFFFFF" offset="100%"></stop>
        </linearGradient>
        <linearGradient x1="50.0157183%" y1="99.9845833%" x2="50.0157183%" y2="0%" id="linearGradient-6">
            <stop stop-color="#A5B1B8" offset="0%"></stop>
            <stop stop-color="#FFFFFF" offset="100%"></stop>
        </linearGradient>
        <linearGradient x1="50.0151837%" y1="99.9870665%" x2="50.0151837%" y2="-5.82814469e-14%" id="linearGradient-7">
            <stop stop-color="#A5B1B8" offset="0%"></stop>
            <stop stop-color="#FFFFFF" offset="100%"></stop>
        </linearGradient>
    </defs>
    <g id="Graphic-elements-/-Icons-/-Rich-icons-/-coffee" stroke="none" stroke-width="1" fill="none" fill-rule="evenodd">
        <g id="Coffee" transform="translate(27.000000, 0.000000)" fill-rule="nonzero">
            <path d="M199.913043,0 L133.231522,0 C133.231522,10.3184783 130.03913,15.5434783 126.846739,20.6369565 C123.654348,25.7304348 120.45,30.9673913 120.45,41.2858696 C120.45,51.6043478 129.477174,56.7695652 138.492391,61.9228261 C147.507609,67.076087 156.534783,72.2413043 156.534783,82.5717391 C156.534783,92.9021739 162.369565,98.0434783 168.204348,103.196739 C174.03913,108.35 179.861957,113.503261 179.861957,123.821739 L187.131522,123.821739 C187.131522,113.503261 190.323913,108.35 193.516304,103.196739 C196.708696,98.0434783 199.913043,92.8782609 199.913043,82.5717391 C199.913043,72.2652174 196.708696,67.0282609 193.516304,61.9228261 C190.323913,56.8173913 187.131522,51.6043478 187.131522,41.2858696 C187.131522,30.9673913 190.323913,25.7423913 193.516304,20.6369565 C196.708696,15.5315217 199.913043,10.3184783 199.913043,0 Z" id="Path" fill="url(#linearGradient-1)" opacity="0.3"></path>
            <path d="M146.694565,240.326087 C145.427804,240.327557 144.163588,240.439577 142.916304,240.66087 C141.696788,240.876899 140.497096,241.192818 139.329348,241.605435 L139.329348,238.73587 C139.329348,237.914563 139.003085,237.126896 138.422334,236.546144 C137.841583,235.965393 137.053915,235.639107 136.232609,235.639107 L29.0065217,235.639107 C28.1831458,235.635951 27.3924029,235.96081 26.8090632,236.541906 C26.2257234,237.123002 25.8978261,237.912487 25.8978261,238.73587 L25.8978261,279.878261 C25.9831336,302.515042 44.3196952,320.840924 66.9565217,320.913043 L98.2826087,320.913043 C106.877287,320.907675 115.24913,318.178454 122.195652,313.117391 C129.017001,308.17285 134.168226,301.265621 136.961957,293.317391 L137.667391,293.401087 C137.91035,293.413453 138.15378,293.413453 138.396739,293.401087 C144.542391,293.401087 152.194565,288.78587 158.304348,282.640217 C164.41413,276.494565 168.993478,268.782609 168.993478,262.58913 C168.934446,250.304139 158.979636,240.365342 146.694565,240.326087 L146.694565,240.326087 Z M138.83913,285.76087 C138.982609,284.792391 139.11413,283.8 139.197826,282.819565 C139.281522,281.83913 139.329348,280.822826 139.329348,279.806522 L139.329348,249.891304 C140.426312,249.255558 141.599427,248.761403 142.820652,248.420652 C144.081905,248.069361 145.385306,247.892356 146.694565,247.894545 C154.819041,247.927408 161.39339,254.512438 161.413043,262.636957 C161.413043,266.690217 157.826087,272.369565 153.21087,277.092391 C148.595652,281.815217 142.96413,285.581522 138.83913,285.76087 Z" id="Shape" fill="#F0F2F3"></path>
            <path d="M32.5097826,301.973913 C36.1823091,307.651737 41.1854947,312.347097 47.0847826,315.652174 C53.1486207,319.079231 59.991297,320.89077 66.9565217,320.913043 L98.2826087,320.913043 C105.280262,320.90719 112.157925,319.095111 118.25,315.652174 C124.148731,312.329708 129.147656,307.618077 132.813043,301.926087 L32.5097826,301.926087 L32.5097826,301.973913 Z" id="Path" fill="#E8ECED" opacity="0.5" style="mix-blend-mode: multiply;"></path>
            <path d="M0,311.527174 L0,311.527174 C0.0262510036,321.628033 8.20459505,329.811719 18.3054348,329.844565 L143.848913,329.844565 C153.954422,329.818283 162.140022,321.632683 162.166304,311.527174 L0,311.527174 L0,311.527174 Z" id="Path" fill="#F0F2F3"></path>
            <polygon id="Path" fill="#0099DA" points="97.4217391 266.869565 90.9173913 260.365217 84.401087 253.848913 77.8847826 260.365217 71.3804348 266.869565 77.8847826 273.38587 84.401087 279.902174 90.9173913 273.38587"></polygon>
            <polygon id="Path" fill="#0099DA" points="97.2304348 288.451087 84.401087 288.451087 71.5717391 288.451087 71.5717391 286.669565 71.5717391 284.876087 84.401087 284.876087 97.2304348 284.876087 97.2304348 286.669565"></polygon>
            <path d="M338.429348,111.996739 L344.204348,110.418478 L349.991304,108.804348 C352.476916,108.121162 355.137978,108.824084 356.961957,110.645652 L370.353261,124.048913 L383.804348,137.5 C386.139548,139.835222 386.578825,143.462953 384.868478,146.288043 L364.327174,180.280435 L343.75,214.236957 C342.610295,216.129554 340.662136,217.391471 338.468974,217.657734 C336.275812,217.923996 334.082292,217.164903 332.522826,215.6 L332.522826,215.6 C330.942207,214.01996 330.18826,211.793535 330.483636,209.578217 C330.779012,207.362898 332.089963,205.411793 334.029348,204.301087 L335.643478,203.368478 L337.269565,202.43587 C338.04184,201.989082 338.72651,201.405695 339.290217,200.71413 C339.83509,199.998993 340.240683,199.187807 340.48587,198.322826 L347.301087,176.956522 L354.056522,155.554348 C354.156371,155.247921 354.276193,154.948366 354.415217,154.657609 C354.553109,154.363037 354.712981,154.079264 354.893478,153.808696 L356.997826,150.568478 L359.102174,147.340217 C359.814305,146.272994 360.227197,145.034318 360.297826,143.753261 C360.356638,142.467406 360.063104,141.189912 359.448913,140.058696 L359.197826,139.604348 L358.958696,139.15 C357.907911,137.201934 356.016724,135.847989 353.833954,135.481078 C351.651183,135.114166 349.42126,135.775377 347.791304,137.272826 L343.391304,141.31413 L338.979348,145.355435 C338.614086,145.696334 338.213232,145.996974 337.783696,146.252174 C337.348495,146.507183 336.887612,146.715582 336.408696,146.873913 L332.821739,148.069565 L329.294565,149.265217 C326.95568,150.040413 324.382619,149.561037 322.479809,147.995588 C320.577,146.430139 319.610734,143.997697 319.920652,141.553261 L321.331522,130.206522 L322.754348,118.871739 C323.185984,115.378534 326.088133,112.714432 329.605435,112.582609 L333.192391,112.451087 L336.779348,112.319565 C337.058333,112.319565 337.333333,112.295652 337.604348,112.247826 C337.891304,112.128261 338.166304,112.068478 338.429348,111.996739 Z" id="Path" fill="#023852"></path>
            <path d="M309.231522,142.127174 L322.025,142.127174 C322.222007,142.131462 322.418789,142.111382 322.61087,142.067391 C322.803149,142.02985 322.991345,141.973792 323.172826,141.9 L329.820652,139.126087 L336.480435,136.340217 C337.591963,135.877958 338.317724,134.794029 338.321751,133.590217 L338.321751,120.115217 C338.324007,119.319384 338.004985,118.556318 337.436957,117.998913 C336.875295,117.438667 336.113961,117.12467 335.320652,117.126067 L320.793478,117.126067 C316.932344,117.119726 313.227521,118.65074 310.497282,121.380978 C307.767044,124.111216 306.23603,127.816039 306.242367,131.677174 L306.242367,139.138043 C306.239197,139.931785 306.553097,140.693939 307.114361,141.255204 C307.675626,141.816469 308.43778,142.130368 309.231522,142.127174 L309.231522,142.127174 Z" id="Path" fill="#A5B1B8"></path>
            <path d="M320.88913,328.804348 L207.93587,328.804348 C206.975415,328.805492 206.06107,328.392606 205.426825,327.671353 C204.792579,326.950099 204.499983,325.99047 204.623913,325.038043 L210.363043,280.954348 L216.090217,236.882609 L312.734783,236.882609 L318.461957,280.978261 L324.201087,325.061957 C324.325017,326.014383 324.032421,326.974012 323.398175,327.695266 C322.76393,328.416519 321.849585,328.829405 320.88913,328.828263 L320.88913,328.804348 Z" id="Path" fill="#D4DADD"></path>
            <polyline id="Path" fill="#DFE4E6" points="205.317391 116.755435 264.825 116.958696 324.344565 117.173913 318.808696 160.719565 313.272826 204.265217 264.418478 204.265217 215.552174 204.265217 213.316304 187.872826 211.080435 171.468478"></polyline>
            <polyline id="Path" fill="#D4DADD" points="205.317391 116.659783 196.015217 116.671739 186.713043 116.683696 181.715217 119.86413 176.717391 123.044565 179.993478 124.072826 183.269565 125.113043 197.366304 149.707609 211.475 174.31413 208.497826 145.690217 205.508696 117.066304"></polyline>
            <polygon id="Path" fill="#DFE4E6" points="218.278261 230.48587 264.502174 230.48587 310.726087 230.48587 310.726087 234.025 310.726087 237.56413 264.502174 237.56413 218.278261 237.56413 218.278261 234.025"></polygon>
            <polygon id="Path" fill="#A5B1B8" style="mix-blend-mode: multiply;" points="218.278261 230.222826 264.502174 230.222826 310.726087 230.222826 310.726087 231.968478 310.726087 233.702174 264.502174 233.702174 218.278261 233.702174 218.278261 231.968478"></polygon>
            <polygon id="Path" fill="#A5B1B8" points="216.520652 204.229348 264.502174 204.229348 312.471739 204.229348 312.471739 217.704348 312.471739 231.179348 264.502174 231.179348 216.520652 231.179348 216.520652 217.704348"></polygon>
            <path d="M241.306522,327.823913 L242.813043,286.956522 L244.319565,246.053261 C244.319565,244.546739 242.681522,243.207609 240.027174,242.227174 C236.681123,241.116424 233.174343,240.566975 229.648913,240.601087 C226.541541,240.603928 223.465441,241.221586 220.597826,242.418478 C218.003261,243.530435 216.197826,245.025 216.197826,246.531522 L211.247826,284.35 L206.28587,322.180435 L223.790217,325.01413 L241.306522,327.823913 Z" id="Path" fill="url(#linearGradient-2)" style="mix-blend-mode: multiply;"></path>
            <path d="M287.147826,327.823913 L285.641304,286.956522 L284.122826,246.053261 C284.122826,244.546739 285.772826,243.207609 288.427174,242.227174 C291.769319,241.117299 295.272023,240.567855 298.793478,240.601087 C301.904844,240.602665 304.985099,241.220342 307.856522,242.418478 C310.43913,243.530435 312.244565,245.025 312.244565,246.531522 L317.206522,284.35 L322.156522,322.180435 L304.652174,324.978261 L287.147826,327.823913 Z" id="Path" fill="url(#linearGradient-3)" style="mix-blend-mode: multiply;"></path>
            <path d="M253.478261,98.3782609 L274.234783,98.3782609 L275.645652,85.5130435 L277.056522,72.6478261 C277.253671,70.853691 276.677866,69.0604464 275.473078,67.7164691 C274.26829,66.3724918 272.548413,65.6048327 270.743478,65.6054344 L256.921739,65.6054344 C255.118054,65.6086134 253.40052,66.3773857 252.196564,67.7204352 C250.992608,69.0634846 250.415441,70.8545207 250.608696,72.6478261 L252.019565,85.5130435 L253.478261,98.3782609 Z" id="Path" fill="#023852"></path>
            <polygon id="Path" fill="#E8EBED" points="324.320652 117.257609 299.23587 107.859783 274.163043 98.4619565 263.784783 98.4619565 253.394565 98.4619565 220.047826 107.620652 186.68913 116.767391 255.498913 117.018478"></polygon>
            <path d="M280.775,246.017391 L282.448913,286.920652 L284.122826,327.823913 L264.430435,327.919565 L244.75,328.027174 L246.555435,287.028261 L248.348913,246.017391 C248.348913,244.51087 250.166304,243.147826 253.131522,242.167391 C260.622852,240.034289 268.560844,240.034289 276.052174,242.167391 C278.993478,243.147826 280.834783,244.558696 280.834783,246.017391" id="Path" fill="url(#linearGradient-4)" style="mix-blend-mode: multiply;"></path>
            <path d="M287.147826,115.081522 L285.641304,155.984783 L284.122826,196.888043 C284.122826,198.394565 285.772826,199.733696 288.427174,200.71413 C291.769319,201.824005 295.272023,202.373449 298.793478,202.340217 C301.904844,202.338639 304.985099,201.720962 307.856522,200.522826 C310.43913,199.41087 312.244565,197.916304 312.244565,196.409783 L317.206522,158.591304 L322.156522,120.76087 L304.652174,117.927174 L287.147826,115.081522 Z" id="Path" fill="url(#linearGradient-5)" style="mix-blend-mode: multiply;"></path>
            <path d="M241.306522,115.081522 L242.813043,155.984783 L244.319565,196.888043 C244.319565,198.394565 242.681522,199.733696 240.027174,200.71413 C236.681123,201.82488 233.174343,202.37433 229.648913,202.340217 C226.541541,202.337377 223.465441,201.719718 220.597826,200.522826 C218.003261,199.41087 216.197826,197.916304 216.197826,196.409783 L211.247826,158.591304 L206.28587,120.76087 L223.790217,117.927174 L241.306522,115.081522 Z" id="Path" fill="url(#linearGradient-6)" style="mix-blend-mode: multiply;"></path>
            <path d="M247.667391,196.888043 L245.993478,155.984783 L244.331522,115.081522 L264.011957,114.98587 L283.704348,114.878261 L281.898913,155.877174 L280.093478,196.888043 C280.093478,198.394565 278.276087,199.757609 275.31087,200.738043 C267.815793,202.873416 259.873337,202.873416 252.378261,200.738043 C249.448913,199.757609 247.595652,198.346739 247.595652,196.888043" id="Path" fill="url(#linearGradient-7)" style="mix-blend-mode: multiply;"></path>
            <polygon id="Path" fill="#023852" points="243.781522 220.071739 261.082609 220.071739 278.395652 220.071739 278.395652 217.847826 278.395652 215.623913 261.082609 215.623913 243.781522 215.623913 243.781522 217.847826"></polygon>
        </g>
    </g>
</svg>