<?xml version="1.0" encoding="UTF-8"?>
<svg width="440px" height="330px" viewBox="0 0 440 330" version="1.1" xmlns="http://www.w3.org/2000/svg" xmlns:xlink="http://www.w3.org/1999/xlink">
    <title>Graphic elements / Icons / Rich icons / company</title>
    <g id="Graphic-elements-/-Icons-/-Rich-icons-/-company" stroke="none" stroke-width="1" fill="none" fill-rule="evenodd">
        <polygon id="Path" fill="#FFE700" fill-rule="nonzero" points="0 211.69 7.52 208.68 15.03 205.67 22.55 202.66 30.06 199.65 30.06 205.65 30.06 211.64 30.06 217.64 30.06 223.63 22.55 226.65 15.03 229.66 7.52 232.67 0 235.68 0 229.68 0 223.68 0 217.69"></polygon>
        <polygon id="Path" fill="#023852" fill-rule="nonzero" points="29.6 198.51 30.59 198.51 31.57 198.51 32.56 198.51 33.55 198.51 33.55 231.12 33.55 263.73 33.55 296.35 33.55 328.96 32.56 328.96 31.57 328.96 30.59 328.96 29.6 328.96 29.6 296.35 29.6 263.73 29.6 231.12"></polygon>
        <path d="M331.41,52.79 L331.41,292 L349.56,291.42 L367.72,290.85 L385.87,290.27 L404.03,289.7 C404.03,289.7 404.95,289.6 406.38,289.38 C407.81,289.16 409.74,288.8 411.76,288.28 C413.79189,287.787783 415.768659,287.090888 417.66,286.2 C419.257169,285.522995 420.612914,284.379847 421.55,282.92 C422.310817,281.188953 422.780471,279.344122 422.94,277.46 C423.20686,275.169481 423.347074,272.865976 423.36,270.56 C423.36,268.29 423.36,266.19 423.26,264.65 C423.16,263.11 423.12,262.14 423.12,262.14 L426.67,219.77 L430.23,177.39 L433.79,135 L437.34,92.62 C437.194896,92.3218261 436.994712,92.0537831 436.75,91.83 C435.779931,90.8799057 434.706585,90.0413542 433.55,89.33 C431.002142,87.7003008 428.357228,86.2275649 425.63,84.92 C421.96,83.11 417.15,80.92 410.85,78.41 C404.55,75.9 396.42,73 387.79,70.09 C379.16,67.18 370,64.33 361.67,61.77 C353.34,59.21 345.75,56.96 340.27,55.36 C334.79,53.76 331.41,52.79 331.41,52.79 Z" id="Path" fill="#0099DA" fill-rule="nonzero"></path>
        <polygon id="Path" fill="#023852" fill-rule="nonzero" points="401.47 330 403.23 330 404.99 330 406.75 330 408.5 330 408.5 320.16 408.5 310.32 408.5 300.48 408.5 290.63 406.75 290.63 404.99 290.63 403.23 290.63 401.47 290.63 401.47 300.48 401.47 310.32 401.47 320.16"></polygon>
        <polygon id="Path" fill="#023852" fill-rule="nonzero" points="372.27 330 374.03 330 375.79 330 377.55 330 379.31 330 379.31 320.16 379.31 310.32 379.31 300.48 379.31 290.63 377.55 290.63 375.79 290.63 374.03 290.63 372.27 290.63 372.27 300.48 372.27 310.32 372.27 320.16"></polygon>
        <polygon id="Path" fill="#023852" fill-rule="nonzero" points="343.08 330 344.83 330 346.59 330 348.35 330 350.11 330 350.11 320.16 350.11 310.32 350.11 300.48 350.11 290.63 348.35 290.63 346.59 290.63 344.83 290.63 343.08 290.63 343.08 300.48 343.08 310.32 343.08 320.16"></polygon>
        <polygon id="Path" fill="#023852" fill-rule="nonzero" points="252.53 28.18 252.53 95.03 252.53 161.87 252.53 228.71 252.53 295.55 247.49 302.03 242.44 308.51 237.38 314.99 232.34 321.47 257.35 319.38 282.37 317.28 307.38 315.19 332.39 313.09 332.31 248.29 332.23 183.49 332.15 118.69 332.07 53.89 312.18 47.47 292.3 41.04 272.42 34.61"></polygon>
        <polygon id="Path" fill="#023852" fill-rule="nonzero" points="93.24 330 153.03 330 212.82 330 272.61 330 332.39 330 332.39 322.75 332.39 315.49 332.39 308.24 332.39 300.98 272.61 300.98 212.82 300.98 153.03 300.98 93.24 300.98 93.24 308.24 93.24 315.49 93.24 322.75"></polygon>
        <polygon id="Path" fill="#4E7486" fill-rule="nonzero" points="130.64 311.51 126.78 311.51 122.93 311.51 119.07 311.51 115.22 311.51 115.22 316.13 115.22 320.75 115.22 325.38 115.22 330 119.07 330 122.93 330 126.78 330 130.64 330 130.64 325.38 130.64 320.75 130.64 316.13"></polygon>
        <polygon id="Path" fill="#4E7486" fill-rule="nonzero" points="194.61 311.51 190.75 311.51 186.9 311.51 183.04 311.51 179.19 311.51 179.19 316.13 179.19 320.75 179.19 325.38 179.19 330 183.04 330 186.9 330 190.75 330 194.61 330 194.61 325.38 194.61 320.75 194.61 316.13"></polygon>
        <polygon id="Path" fill="#4E7486" fill-rule="nonzero" points="277.61 311.51 273.75 311.51 269.9 311.51 266.04 311.51 262.19 311.51 262.19 316.13 262.19 320.75 262.19 325.38 262.19 330 266.04 330 269.9 330 273.75 330 277.61 330 277.61 325.38 277.61 320.75 277.61 316.13"></polygon>
        <polygon id="Path" fill="#4E7486" fill-rule="nonzero" points="250.71 311.51 246.85 311.51 243 311.51 239.14 311.51 235.29 311.51 235.29 316.13 235.29 320.75 235.29 325.38 235.29 330 239.14 330 243 330 246.85 330 250.71 330 250.71 325.38 250.71 320.75 250.71 316.13"></polygon>
        <path d="M80.12,295.46 C80.1254829,298.58528 82.6547342,301.119 85.78,301.13 L262.78,301.13 C265.909172,301.124496 268.444496,298.589172 268.45,295.46 L268.45,95.53 C268.506692,94.0991367 267.902373,92.7216571 266.811142,91.7944037 C265.719911,90.8671502 264.26295,90.4930947 262.86,90.78 L226.97,96.65 L215.78,98.49 L179.89,104.36 L168.7,106.19 L132.82,112.07 L121.6,113.9 L85.71,119.78 C82.5355266,120.400289 80.2142125,123.136865 80.12,126.37 L80.12,295.46 Z" id="Path" fill="#4188BD" fill-rule="nonzero"></path>
        <polygon id="Path" fill="#4188BD" fill-rule="nonzero" opacity="0.3" style="mix-blend-mode: multiply;" points="80.12 143.3 80.12 146.45 80.12 149.59 80.12 152.74 80.12 155.89 127.19 147.84 174.27 139.78 221.35 131.72 268.43 123.67 268.43 120.96 268.43 118.25 268.43 115.53 268.43 112.82 221.35 120.44 174.27 128.06 127.19 135.68"></polygon>
        <polygon id="Path" fill="#023852" fill-rule="nonzero" opacity="0.3" style="mix-blend-mode: multiply;" points="252.99 38.06 272.77 44.23 292.55 50.39 312.33 56.55 332.11 62.72 332.11 60.23 332.11 57.75 332.11 55.27 332.11 52.79 312.22 46.64 292.32 40.49 272.43 34.34 252.53 28.18 252.65 30.65 252.76 33.12 252.87 35.59"></polygon>
        <polyline id="Path" fill="#FFFFFF" fill-rule="nonzero" opacity="0.2" points="124.66 136.25 169.44 128.94 214.22 121.62 241.32 117.28 268.42 112.94 268.42 193.19 268.42 273.45"></polyline>
        <path d="M435.72,89 C434.471406,87.606855 433.03416,86.3951253 431.45,85.4 C428.875456,83.7658954 426.137266,82.4051792 423.28,81.34 C419.77,79.98 412.33,77.51 403.15,74.58 C393.97,71.65 383.05,68.25 372.57,65.02 C362.09,61.79 352.05,58.73 344.62,56.48 C337.19,54.23 332.4,52.78 332.4,52.78 L332.45,105 L332.5,157.22 L378.64,201.07 L424.78,244.93 L424,256.25 L423.18,267.56 L423.68,260.89 L424.18,254.23 L427.55,213.82 L430.92,173.41 L434.26,133 L437.63,92.59 C437.589375,92.2452588 437.498407,91.90834 437.36,91.59 C436.96136,90.6413724 436.407067,89.7659941 435.72,89 Z" id="Path" fill="#FFFFFF" fill-rule="nonzero" opacity="0.2"></path>
        <polygon id="Path" fill="#4188BD" fill-rule="nonzero" opacity="0.3" style="mix-blend-mode: multiply;" points="332.4 74.19 357.92 82.79 383.43 91.39 408.95 99.99 434.46 108.59 434.53 103.53 434.61 98.46 434.68 93.4 434.75 88.34 409.12 79.75 383.49 71.16 357.86 62.58 332.24 53.99 332.28 59.04 332.32 64.09 332.36 69.14"></polygon>
        <polygon id="Path" fill="#80CCEC" fill-rule="nonzero" points="107.28 300.83 106.45 300.83 105.61 300.83 104.78 300.83 103.95 300.83 103.95 260.08 103.95 219.34 103.95 178.6 103.95 137.86 104.78 137.86 105.61 137.86 106.45 137.86 107.28 137.86 107.28 178.6 107.28 219.34 107.28 260.08"></polygon>
        <polygon id="Path" fill="#80CCEC" fill-rule="nonzero" points="148.54 300.83 147.71 300.83 146.88 300.83 146.04 300.83 145.21 300.83 145.21 257.41 145.21 214 145.21 170.58 145.21 127.17 146.04 127.17 146.88 127.17 147.71 127.17 148.54 127.17 148.54 170.58 148.54 214 148.54 257.41"></polygon>
        <polygon id="Path" fill="#80CCEC" fill-rule="nonzero" points="196.89 300.83 196.06 300.83 195.22 300.83 194.39 300.83 193.56 300.83 193.56 256.03 193.56 211.24 193.56 166.45 193.56 121.66 194.39 121.66 195.22 121.66 196.06 121.66 196.89 121.66 196.89 166.45 196.89 211.24 196.89 256.03"></polygon>
        <polygon id="Path" fill="#80CCEC" fill-rule="nonzero" points="238.65 300.83 237.85 300.83 237.06 300.83 236.26 300.83 235.47 300.83 235.47 254.28 235.47 207.73 235.47 161.18 235.47 114.64 236.26 114.64 237.06 114.64 237.85 114.64 238.65 114.64 238.65 161.18 238.65 207.73 238.65 254.28"></polygon>
        <path d="M268.420051,93.4 C268.422538,92.9428049 268.330618,92.490013 268.15,92.07 C267.800611,91.2893244 267.116902,90.7085393 266.29,90.49 C265.846031,90.3739145 265.382467,90.3534631 264.93,90.43 L220.11,97.77 L175.29,105.11 L130.47,112.45 L85.65,119.79 C84.8895014,119.919461 84.1601488,120.190848 83.5,120.59 C82.1431236,121.382289 81.0878711,122.602865 80.5,124.06 C80.2172495,124.776518 80.07,125.539712 80.07,126.31 L80.07,143.31 L127.14,135.72 L174.22,128.13 L221.3,120.54 L268.37,112.95 L268.37,93.4 L268.420051,93.4 Z" id="Path" fill="#023852" fill-rule="nonzero"></path>
        <polygon id="Path" fill="#80CCEC" fill-rule="nonzero" points="407.02 288.32 406.23 288.32 405.44 288.32 404.64 288.32 403.85 288.32 403.85 234.9 403.85 181.48 403.85 128.05 403.85 74.63 404.64 74.63 405.44 74.63 406.23 74.63 407.02 74.63 407.02 128.05 407.02 181.48 407.02 234.9"></polygon>
        <polygon id="Path" fill="#80CCEC" fill-rule="nonzero" points="358.18 290.17 357.38 290.17 356.59 290.17 355.79 290.17 355 290.17 355 233.03 355 175.9 355 118.76 355 61.62 355.79 61.62 356.59 61.62 357.38 61.62 358.18 61.62 358.18 118.76 358.18 175.9 358.18 233.03"></polygon>
        <path d="M332.38,295.91 L332.38,290.36 L352.32,289.09 L372.26,287.83 L392.19,286.57 L412.13,285.31 C413.293961,285.22708 414.431194,284.921555 415.48,284.41 C417.614972,283.374122 419.348058,281.662129 420.41,279.54 C420.927602,278.491636 421.243102,277.355157 421.34,276.19 L424.62,231.64 L427.91,187.09 L431.2,142.54 L434.48,98 C434.56291,96.7777938 434.420546,95.5507556 434.06,94.38 C433.325751,91.9483307 431.884613,89.7901039 429.92,88.18 C428.976445,87.3991259 427.898979,86.7960157 426.74,86.4 L380.55,71.1 L334.36,55.8 L288.16,40.51 L242,25.21 L242.43,23.91 L242.86,22.61 L243.3,21.3 L243.73,20 L289.92,35.29 L336.11,50.59 L382.3,65.88 L428.5,81.17 C430.245868,81.7608379 431.874061,82.6544821 433.31,83.81 C434.741687,84.9768543 435.986127,86.3561934 437,87.9 C438.0312,89.4357853 438.817261,91.1226121 439.33,92.9 C439.849039,94.6705831 440.04882,96.5194101 439.92,98.36 L436.63,142.91 L433.35,187.47 L430.06,232.02 L426.77,276.57 C426.631544,278.395016 426.146202,280.176865 425.34,281.82 C423.721905,285.128274 421.033047,287.792464 417.71,289.38 C416.055966,290.167915 414.267921,290.636132 412.44,290.76 L392.44,292.04 L372.44,293.32 L352.44,294.6 L332.38,295.91 Z" id="Path" fill="#023852" fill-rule="nonzero"></path>
        <polygon id="Path" fill="#023852" fill-rule="nonzero" opacity="0.3" style="mix-blend-mode: multiply;" points="332.4 308.7 272.61 308.7 212.82 308.7 153.03 308.7 93.24 308.7 93.24 306.82 93.24 304.93 93.24 303.05 93.24 301.16 153.03 301.16 212.82 301.16 272.61 301.16 332.4 301.16 332.4 303.05 332.4 304.93 332.4 306.82"></polygon>
    </g>
</svg>