<?xml version="1.0" encoding="UTF-8"?>
<svg width="440px" height="330px" viewBox="0 0 440 330" version="1.1" xmlns="http://www.w3.org/2000/svg" xmlns:xlink="http://www.w3.org/1999/xlink">
    <title>Graphic elements / Icons / Rich icons / consumer</title>
    <g id="Graphic-elements-/-Icons-/-Rich-icons-/-consumer" stroke="none" stroke-width="1" fill="none" fill-rule="evenodd">
        <g id="Consumer" transform="translate(55.000000, 0.000000)" fill-rule="nonzero">
            <polygon id="Path" fill="#1B1A1F" points="100.485498 307.258912 100.90423 310.68852 101.322961 314.118127 104.433535 321.585498 107.554079 329.0429 108.760423 328.60423 109.976737 328.165559 109.278852 323.170695 108.580967 318.175831 111.023565 320.618429 113.466163 323.061027 116.317523 323.948338 119.158912 324.845619 129.457704 321.116918 139.766465 317.388218 137.413595 314.776133 135.050755 312.164048 128.859517 312.06435 122.658308 311.964653 119.717221 307.737462 116.776133 303.500302 108.630816 305.374622"></polygon>
            <polygon id="Path" fill="#1B1A1F" points="1.76465257 305.554079 0.987009063 308.913897 0.219335347 312.283686 0.6081571 320.359215 0.987009063 328.444713 2.28308157 328.444713 3.56918429 328.444713 4.61601208 323.509668 5.66283988 318.574622 7.12839879 321.705136 8.5939577 324.82568 10.9667674 326.640181 13.339577 328.444713 24.2963746 328.444713 35.2531722 328.444713 33.9271903 325.184592 32.6012085 321.924471 26.8087613 319.731118 21.0163142 317.527795 19.6903323 312.5429 18.3643505 307.558006 10.0595166 306.561027"></polygon>
            <path d="M49.2706949,202.386707 L58.552568,216.763142 L67.7945619,231.149547 C67.8641985,231.260544 67.9242351,231.377282 67.9740181,231.498489 C68.0242869,231.617835 68.0643104,231.74124 68.0936556,231.867372 L70.8851964,245.196979 L73.6667674,258.526586 C73.6874122,258.632074 73.7174409,258.735506 73.7564955,258.83565 C73.7564955,258.925378 73.8362538,259.025076 73.8861027,259.114804 L81.8619335,273.491239 L89.8377644,287.867674 L94.473716,297.338973 L99.1096677,306.810272 C99.5601774,307.726904 100.594858,308.198351 101.582175,307.936858 L108.561027,306.042598 L115.539879,304.158308 C116.156145,303.996352 116.667115,303.566228 116.931806,302.986615 C117.196496,302.407001 117.186927,301.739164 116.90574,301.167372 L108.570997,283.441088 L100.206344,265.684894 L100.206344,265.585196 C100.206344,265.585196 100.206344,265.515408 100.206344,265.475529 L95.2214502,251.138973 L90.2365559,236.802417 C90.2365559,236.702719 90.1767372,236.603021 90.1567976,236.503323 C90.1469788,236.400536 90.1469788,236.297047 90.1567976,236.19426 L89.9574018,231.209366 L89.758006,226.224471 C89.7633324,226.121519 89.7633324,226.01836 89.758006,225.915408 C89.758006,225.81571 89.7081571,225.716012 89.6782477,225.616314 L78.2728097,192.028097 L66.7975831,158.360121 C66.5296403,157.567265 65.8210088,157.005723 64.9879005,156.926072 C64.1547923,156.846421 63.3525959,157.263517 62.9392749,157.991239 L54.6145015,172.606949 L46.2897281,187.212689 C46.1593012,187.444426 46.0715057,187.697682 46.0305136,187.960423 C45.9807452,188.217249 45.9807452,188.481241 46.0305136,188.738066 L47.5060423,195.228399 L48.9716012,201.708761 C49.0024393,201.831225 49.0424309,201.9512 49.0912387,202.067674 C49.1510574,202.177341 49.2108761,202.287009 49.2706949,202.386707 Z" id="Path" fill="#023852"></path>
            <path d="M66.6978852,158.120846 L76.9069486,188.169789 L87.1060423,218.218731 C87.1919448,218.480084 87.1352538,218.767318 86.9564955,218.976435 C86.7770109,219.185761 86.5000984,219.284387 86.2287009,219.23565 L75.9897281,217.34139 L65.8006042,215.467069 L65.6311178,215.467069 L65.4616314,215.467069 L62.4706949,216.254683 L59.4797583,217.042296 C59.3242073,217.092598 59.1567595,217.092598 59.0012085,217.042296 C58.850782,216.987328 58.7216411,216.88611 58.6323263,216.753172 L54.4848943,210.442296 L50.3374622,204.13142 C50.2713681,204.028565 50.2272429,203.913161 50.207855,203.792447 C50.1787162,203.674584 50.1787162,203.551398 50.207855,203.433535 L58.4827795,180.792145 L66.6978852,158.120846 Z" id="Path" fill="#06233C" opacity="0.6" style="mix-blend-mode: multiply;"></path>
            <polygon id="Path" fill="#023852" points="28.4138973 150.244713 25.552568 156.655287 22.6912387 163.065861 23.1099698 173.264955 23.5287009 183.464048 23.5287009 202.655891 23.5287009 221.847734 20.9465257 230.501511 18.3643505 239.155287 13.2697885 248.92568 8.17522659 258.696073 5.24410876 277.887915 2.31299094 297.079758 1.54531722 301.197281 0.777643505 305.314804 10.7574018 307.687613 20.7371601 310.060423 23.5287009 293.380967 26.3202417 276.701511 32.810574 259.184592 39.3009063 241.667674 45.302719 229.733837 51.3045317 217.8 58.8716012 188.977341 66.4486405 160.154683 67.0767372 154.511782 67.7048338 148.858912 48.0543807 149.556798"></polygon>
            <path d="M67.605136,13.6885196 L67.9640483,18.2646526 L68.3129909,22.8507553 C68.3082011,22.9304417 68.3082011,23.0103438 68.3129909,23.0900302 C68.3420656,23.1649615 68.3753513,23.23819 68.4126888,23.3093656 L70.2072508,26.5993958 L72.0018127,29.8794562 C72.1353589,30.1227345 72.1744105,30.4067455 72.1114804,30.6770393 C72.0500974,30.9451012 71.89441,31.1821706 71.6728097,31.3450151 L70.4365559,32.2622356 L69.1903323,33.1694864 C69.0801016,33.2516415 68.9855451,33.352952 68.9111782,33.4685801 C68.8361334,33.5808811 68.7820859,33.7058658 68.7516616,33.8374622 L67.4456193,39.5700906 L66.139577,45.2927492 C66.0816579,45.5622745 65.9252259,45.8004777 65.7009063,45.9607251 C65.479165,46.1226472 65.2070474,46.2003951 64.9332326,46.1800604 L61.7429003,45.8610272 L58.5226586,45.5918429 C58.043936,45.5539347 57.591596,45.8158157 57.3861027,46.2498489 L54.2256798,53.1090634 L51.055287,59.9583082 C50.9363458,60.2234251 50.7179033,60.4311245 50.4471299,60.5365559 C50.175418,60.6468463 49.8714098,60.6468463 49.5996979,60.5365559 L46.7981873,59.4199396 L43.9966767,58.3033233 C43.9195542,58.2740248 43.8392386,58.2539459 43.7574018,58.2435045 C43.6779327,58.2338988 43.597596,58.2338988 43.5181269,58.2435045 L38.6129909,58.4827795 L33.707855,58.7220544 C33.3880961,58.7404292 33.0758419,58.6206107 32.8504532,58.3930514 C32.6245154,58.165926 32.5019361,57.8558725 32.5114804,57.5356495 L33.2392749,41.0854985 L33.9570997,24.6353474 C33.9711754,24.40821 34.0508282,24.1900307 34.1864048,24.0072508 C34.3221525,23.8236824 34.5096141,23.6848219 34.7247734,23.6084592 L50.4072508,18.1350453 L66.0897281,12.6516616 C66.4242867,12.5390861 66.7920517,12.5868956 67.0867069,12.7812689 C67.3977961,12.9804118 67.5915042,13.3194011 67.605136,13.6885196 L67.605136,13.6885196 Z" id="Path" fill="#0099DA"></path>
            <path d="M27.7060423,62.321148 L29.7897281,60.2374622 L31.9033233,58.1637462 C32.3092473,57.7545678 32.7990429,57.4382415 33.3389728,57.2365559 C33.8768158,57.0352542 34.4503885,56.9470123 35.0238671,56.9773414 L40.3277946,57.2963746 L45.6317221,57.6054381 C46.1797146,57.6370346 46.7155996,57.7794851 47.2069486,58.0241692 C47.7005402,58.2630809 48.1386404,58.6026934 48.4930514,59.021148 L60.6661631,73.2779456 L72.7794562,87.5546828 C73.0930349,87.9206417 73.3394268,88.3391705 73.5072508,88.7909366 C73.6713558,89.2414817 73.7556988,89.7171762 73.7564955,90.1966767 L73.7564955,100.844411 C73.7713472,101.026889 73.7713472,101.210271 73.7564955,101.392749 C73.7343538,101.574843 73.697681,101.754873 73.6468278,101.931118 L72.1712991,107.264955 L70.665861,112.65861 C70.665861,112.778248 70.6060423,112.907855 70.5861027,113.037462 C70.5757431,113.163534 70.5757431,113.290243 70.5861027,113.416314 L69.1703927,131.262236 L67.7546828,149.108157 C67.6953003,149.913476 67.3928402,150.681794 66.8873112,151.31148 C66.3749743,151.954585 65.6797691,152.427324 64.8933535,152.667372 L61.7927492,153.66435 L58.692145,154.661329 C58.4244595,154.752105 58.146471,154.809042 57.8646526,154.830816 C57.582977,154.860914 57.2988961,154.860914 57.0172205,154.830816 L44.1561934,153.445015 L31.2951662,152.059215 C30.1297178,151.942428 29.0719982,151.326526 28.3951873,150.370578 C27.7183764,149.414631 27.48884,148.212375 27.765861,147.07432 L30.0489426,137.034743 L32.3320242,127.005136 C32.4217448,126.609719 32.4519868,126.203131 32.4217523,125.798792 L31.9033233,118.640483 L31.3749245,111.492145 L31.3749245,111.183082 L31.3151057,110.883988 L27.9154079,96.1586103 L24.5256798,81.463142 C24.4761788,81.2233628 24.4461714,80.9799695 24.4359517,80.7353474 C24.411083,80.4933866 24.411083,80.2495137 24.4359517,80.0075529 L25.4329305,72.3308157 L26.4299094,64.6540785 C26.5192105,64.2072124 26.6844425,63.7789581 26.918429,63.3879154 C27.1262994,62.9950387 27.3917752,62.6354702 27.7060423,62.321148 Z" id="Path" fill="#FFFFFF"></path>
            <path d="M67.7945619,15.5528701 L58.8217523,29.9093656 L49.9087613,44.2758308 C49.7994048,44.4447829 49.7091248,44.6253429 49.639577,44.8141994 C49.5700454,45.0020577 49.5166794,45.1955095 49.4800604,45.3924471 L48.6226586,50.4770393 L47.7652568,55.5616314 L41.9628399,52.4410876 L36.1404834,49.310574 L51.952568,32.4317221 L67.7945619,15.5528701 Z" id="Path" fill="#66C2E9" style="mix-blend-mode: multiply;"></path>
            <path d="M69.5891241,8.72356495 L69.5891241,12.6217523 C69.5891241,12.8016852 69.5588925,12.9803393 69.4993958,13.1501511 C69.4368646,13.3214885 69.3495295,13.4827227 69.2401813,13.6287009 L60.0679758,25.4827795 L50.8459215,37.3268882 L46.389426,43.3087613 L41.9329305,49.2906344 C41.8343979,49.4205951 41.7167494,49.5348822 41.5839879,49.6296073 C41.4522839,49.7253475 41.3080302,49.8025064 41.155287,49.8589124 L38.7625378,50.676435 L36.3697885,51.4939577 L35.073716,51.9326284 L33.7876133,52.3712991 C33.0094504,52.6358296 32.1558587,52.281589 31.7936556,51.5438066 L28.5435045,44.8640483 L25.2734139,38.2839879 C25.2075571,38.1576228 25.1573383,38.0237061 25.1238671,37.8851964 C25.1087399,37.7327005 25.1087399,37.579082 25.1238671,37.4265861 L26.2006042,26.3202417 L27.2673716,15.2039275 C27.279807,15.0344427 27.3237618,14.8687669 27.3969789,14.7154079 C27.4612126,14.554993 27.5522361,14.4066584 27.6661631,14.2767372 L32.6510574,8.58398792 L37.6359517,2.89123867 C37.7581318,2.74490584 37.9069931,2.62311017 38.0746224,2.53232628 C38.2386715,2.44153714 38.4176117,2.38076498 38.6030211,2.35287009 L44.9138973,1.29607251 L51.2347432,0.299093656 C51.3865973,0.274168443 51.5414994,0.274168443 51.6933535,0.299093656 C51.846017,0.32145603 51.9962297,0.358174685 52.141994,0.408761329 L60.3471299,3.84833837 L68.5522659,7.27794562 C68.8525838,7.39889009 69.1096222,7.60729958 69.2900302,7.87613293 C69.465981,8.12561718 69.5694955,8.41890809 69.5891241,8.72356495 Z" id="Path" fill="#023852"></path>
            <path d="M68.5123867,7.19818731 L60.3072508,3.77854985 L52.092145,0.348942598 C51.9519988,0.289425761 51.8044319,0.249180231 51.6534743,0.229305136 C51.4982781,0.20434584 51.3400905,0.20434584 51.1848943,0.229305136 L44.8640483,1.28610272 L38.5531722,2.3429003 C38.3685517,2.37398136 38.1901372,2.43457498 38.0247734,2.5223565 C37.858999,2.61587868 37.7105996,2.73729635 37.5861027,2.88126888 L32.6012085,8.57401813 L27.6163142,14.2667674 C27.4994568,14.3964049 27.405104,14.5446737 27.3371601,14.7054381 C27.2684307,14.8604118 27.2246861,15.0252952 27.2075529,15.1939577 L26.9283988,18.1848943 L26.6492447,21.1160121 C26.6731638,21.0596857 26.7032572,21.0061863 26.7389728,20.9564955 C26.7663137,20.9029607 26.7997697,20.8527767 26.8386707,20.8069486 L31.823565,15.1141994 L36.8084592,9.41148036 C36.9358357,9.27326445 37.0838051,9.15556147 37.2471299,9.06253776 C37.4106813,8.96865863 37.5895835,8.90452386 37.7755287,8.87311178 L44.0963746,7.87613293 L50.4072508,6.82930514 C50.5594774,6.80946911 50.7136344,6.80946911 50.865861,6.82930514 C51.0202868,6.84790369 51.1713197,6.88817912 51.3145015,6.9489426 L59.5196375,10.3785498 L67.7945619,13.6885196 C67.9671212,13.7642789 68.1255658,13.8687849 68.263142,13.9975831 C68.3977834,14.1271061 68.5090818,14.2788766 68.592145,14.4462236 L68.9111782,14.0374622 L69.2302115,13.6287009 C69.3403678,13.4848146 69.4247021,13.3228927 69.4794562,13.1501511 C69.5389529,12.9803393 69.5691846,12.8016852 69.5691846,12.6217523 L69.5691846,8.72356495 C69.567126,8.39864869 69.4738565,8.08084163 69.3,7.80634441 C69.1037822,7.52981178 68.829561,7.31807135 68.5123867,7.19818731 Z" id="Path" fill="#4E7486"></path>
            <path d="M65.0329305,46.1601208 L62.8096677,44.5350453 L60.6063444,42.8700906 C60.5744065,42.8426542 60.5370356,42.82227 60.4966767,42.8102719 C60.4535977,42.8056552 60.4101486,42.8056552 60.3670695,42.8102719 L57.5755287,42.6407855 L54.7839879,42.4613293 C54.5854362,42.4533014 54.4043031,42.5740568 54.3353474,42.760423 C54.2676863,42.9464868 54.3330434,43.1548126 54.494864,43.2688822 L56.3990937,44.4054381 L58.2933535,45.5519637 L58.4329305,45.6117825 L58.5824773,45.6117825 L61.8126888,45.8610272 L65.0329305,46.1601208 Z" id="Path" fill="#66C2E9" style="mix-blend-mode: multiply;"></path>
            <path d="M67.7945619,24.655287 L68.2332326,28.4836858 L68.6818731,32.3120846 L69.439577,31.773716 L70.1873112,31.2353474 C70.4262255,31.0704317 70.5936846,30.8210246 70.6558912,30.5374622 C70.7196564,30.2541291 70.6807939,29.9573606 70.5462236,29.7 L69.1703927,27.1776435 L67.7945619,24.655287 Z" id="Path" fill="#66C2E9" style="mix-blend-mode: multiply;"></path>
            <path d="M39.221148,98.2722054 L40.0885196,112.299698 L40.9558912,126.32719 L39.8093656,134.881269 L38.6628399,143.435347 L43.8670695,138.689728 L49.0712991,133.954079 L53.4679758,144.402417 L57.8247734,154.850755 L61.3839879,153.714199 L64.9432024,152.587613 C65.6880779,152.345049 66.3485439,151.895517 66.847432,151.291541 C67.3424495,150.684454 67.6506813,149.946776 67.7347432,149.167976 L68.592145,141.192145 L69.4495468,133.216314 L54.3154079,115.739275 L39.221148,98.2722054 Z" id="Path" fill="#B2E1F4" style="mix-blend-mode: multiply;"></path>
            <path d="M65.3519637,155.947432 L56.9873112,172.168278 L48.6226586,188.429003 C48.5126682,188.638326 48.3154669,188.788053 48.08429,188.837764 C47.8538196,188.880515 47.6162833,188.81839 47.4362538,188.668278 L42.7903323,184.740181 L38.1543807,180.812085 C38.0263663,180.717486 37.9376456,180.579082 37.905136,180.423263 C37.6858006,179.545921 36.9081571,176.345619 36.1305136,173.274924 C35.3528701,170.20423 34.6848943,167.293051 34.6848943,166.90423 C34.6848943,166.515408 33.5583082,166.176435 32.2223565,165.807553 C30.8864048,165.438671 29.3311178,165.109668 28.4936556,164.930211 C28.3188359,164.898704 28.1622527,164.802619 28.0549849,164.661027 C27.9421907,164.523525 27.8820997,164.350322 27.8853618,164.172508 L27.8853618,152.537764 C27.8880397,152.319467 27.9777864,152.111255 28.1347432,151.959517 C28.3011175,151.812438 28.5224335,151.743504 28.7429003,151.770091 L43.2190332,153.325378 L57.6951662,154.890634 L57.8247734,154.890634 L57.9743202,154.890634 L60.4867069,154.093051 L62.9891239,153.295468 C63.7306006,153.102669 64.5169714,153.35175 65.01223,153.936282 C65.5074886,154.520815 65.6240405,155.337415 65.3120846,156.03716 L65.3519637,155.947432 Z" id="Path" fill="#06233C" opacity="0.6" style="mix-blend-mode: multiply;"></path>
            <path d="M42.0326284,49.8489426 L43.9268882,50.4670695 L45.821148,51.0951662 C45.9998663,51.1579156 46.1705377,51.241578 46.3296073,51.3444109 C46.4850193,51.448136 46.625847,51.5721985 46.7483384,51.7132931 L53.3882175,59.2205438 L60.0280967,66.7277946 L60.1776435,66.9172205 L60.3072508,67.1265861 L63.7069486,73.9858006 L67.1066465,80.8450151 L63.6471299,79.1102719 L60.1876133,77.3655589 C59.9636375,77.2798844 59.7549225,77.158695 59.5694864,77.0066465 C59.3875703,76.8513084 59.2296638,76.6698838 59.1009063,76.4682779 L56.6782477,72.4803625 L54.2555891,68.4924471 L54.2555891,68.4924471 L45.8610272,61.8126888 L37.4066465,55.1329305 C37.1543782,54.9310196 36.9500696,54.6756337 36.8084592,54.3851964 C36.6686957,54.0926628 36.5971111,53.7722364 36.5990536,53.4480363 L36.5990536,52.7700906 C36.5968562,52.3229576 36.7364796,51.8866343 36.9978852,51.5238671 C37.245802,51.1715782 37.5928155,50.9009076 37.994864,50.7462236 L39.3108761,50.2975831 L40.6667674,49.8489426 C40.8857807,49.7778061 41.1144417,49.7408168 41.344713,49.73897 C41.5786767,49.7351827 41.8115346,49.772305 42.0326284,49.8489426 Z" id="Path" fill="#023852"></path>
            <path d="M131.05287,124.622356 L130.534441,124.353172 L130.025982,124.074018 L121.112991,121.252568 L112.20997,118.431118 L111.930816,118.35136 C111.834697,118.341422 111.73781,118.341422 111.641692,118.35136 C109.727492,118.451057 98.8006042,119.138973 88.3522659,119.796979 C77.9039275,120.454985 67.9241692,121.073112 67.9241692,121.053172 L60.3072508,95.4507553 L52.6903323,69.8383686 L52.3413897,69.2202417 L51.9824773,68.592145 L48.4332326,64.7138973 L44.8640483,60.81571 L43.6876133,60.297281 L42.521148,59.8187311 L36.7087613,59.8187311 L35.7716012,60.1277946 L34.8244713,60.436858 L31.1057402,63.1087613 L27.3870091,65.8006042 L26.7489426,66.8873112 L26.1009063,67.9640483 L25.2734139,74.0555891 L24.4459215,80.1471299 L24.4459215,80.7253776 L24.4459215,81.2936556 L25.7120846,86.8169184 L26.9782477,92.3302115 L27.6661631,93.3271903 L28.3540785,94.3241692 L29.1217523,94.8226586 L29.889426,95.321148 L30.5075529,95.5504532 L31.1256798,95.7897281 L34.0069486,96.2483384 L36.8882175,96.7169184 L38.0845921,97.6042296 L39.270997,98.5015106 L45.4722054,111.532024 L51.6634441,124.562538 L51.6634441,124.562538 L53.6574018,128.550453 L55.6513595,132.538369 C55.8002368,132.835998 55.9992116,133.105795 56.239577,133.335952 C56.479462,133.567912 56.7599572,133.753782 57.0670695,133.88429 L61.663142,135.878248 L65.8006042,137.782477 C65.9281909,137.83428 66.0624416,137.867843 66.1993958,137.882175 C66.3378689,137.907001 66.4796538,137.907001 66.6181269,137.882175 L87.9534743,133.256193 L109.328701,128.610272 C109.777894,128.504923 110.245369,128.504923 110.694562,128.610272 C111.144665,128.732377 111.558551,128.961553 111.900906,129.278248 L116.277644,133.266163 L120.644411,137.254079 L121.132931,137.553172 L121.61148,137.862236 L125.011178,139.218127 L128.410876,140.574018 C128.643099,140.67403 128.897368,140.711827 129.14864,140.683686 C129.404584,140.660029 129.650936,140.57449 129.866465,140.434441 L133.754683,137.912085 L137.65287,135.389728 L138.310876,135.250151 L138.978852,135.100604 L139.626888,134.103625 L140.274924,133.106647 C140.409187,132.900443 140.462452,132.651874 140.424471,132.408761 C140.38769,132.161844 140.259614,131.937711 140.065559,131.780665 L135.559215,128.191541 L131.05287,124.622356 Z" id="Path" fill="#0099DA"></path>
            <path d="M140.01571,131.860423 L139.577039,131.51148 L139.128399,131.152568 L139.028701,131.302115 L138.929003,131.461631 L138.270997,131.601208 L137.603021,131.750755 L133.714804,134.273112 L129.816616,136.795468 C129.605294,136.936583 129.361878,137.022293 129.108761,137.044713 C128.854351,137.067805 128.598092,137.03022 128.361027,136.935045 L124.961329,135.589124 L121.571601,134.223263 L121.083082,133.924169 L120.634441,133.595166 L116.257704,129.607251 L111.890937,125.619335 C111.544094,125.311115 111.131514,125.086071 110.684592,124.961329 C110.232569,124.851402 109.760784,124.851402 109.308761,124.961329 L87.9435045,129.607251 L66.5981873,134.233233 C66.4630735,134.258158 66.3245398,134.258158 66.189426,134.233233 C66.0522529,134.220158 65.9178224,134.18655 65.7906344,134.133535 L61.7129909,132.329003 L57.1169184,130.335045 C56.8098061,130.204537 56.529311,130.018667 56.289426,129.786707 C56.0490606,129.55655 55.8500858,129.286753 55.7012085,128.989124 L53.7072508,125.001208 L51.7132931,121.013293 L51.7132931,121.013293 L42.8700906,102.170393 L34.1465257,83.4471299 C34.024793,83.1663909 33.732257,82.9998079 33.4287009,83.0383686 C33.124262,83.076008 32.8787131,83.3054554 32.8205438,83.6066465 L31.9731118,87.8637462 L31.1256798,92.1208459 L30.9761329,92.1806647 L30.8265861,92.2504532 L29.5903323,91.4528701 L28.3640483,90.655287 L27.6661631,89.6583082 L26.9782477,88.6613293 L25.8117825,83.5468278 L24.6353474,78.4622356 L24.51571,79.3296073 L24.3960725,80.2069486 L24.3960725,80.7752266 L24.3960725,81.3534743 L25.6622356,86.8667674 L26.9283988,92.3900302 L27.6163142,93.3870091 L28.3141994,94.3839879 L29.0818731,94.8824773 L29.8495468,95.3809668 L30.4577039,95.6202417 L31.0758308,95.8595166 L33.9570997,96.3181269 L36.8882175,96.7069486 L38.0746224,97.6042296 L39.270997,98.4915408 L45.4622356,111.532024 L51.6734139,124.622356 L51.6734139,124.622356 L53.6673716,128.610272 L55.6613293,132.598187 C55.8077046,132.897342 56.0069851,133.167553 56.2495468,133.39577 C56.492155,133.626913 56.7718808,133.815644 57.0770393,133.954079 L61.6731118,135.948036 L65.7507553,137.742598 C65.877502,137.798756 66.0119077,137.835717 66.1495468,137.852266 C66.2850832,137.87204 66.4227718,137.87204 66.5583082,137.852266 L87.9036254,133.226284 L109.238973,128.610272 C110.160317,128.40766 111.122721,128.664053 111.821148,129.298187 L116.187915,133.286103 L120.564653,137.274018 L121.043202,137.583082 L121.531722,137.882175 L124.92145,139.238066 L128.321148,140.603927 C128.559468,140.694361 128.81463,140.731785 129.068882,140.713595 C129.320967,140.686518 129.563301,140.601189 129.776737,140.46435 L133.674924,137.941994 L137.563142,135.419637 L138.231118,135.270091 L138.889124,135.120544 L139.53716,134.123565 L140.185196,133.126586 C140.325392,132.919047 140.38234,132.666343 140.344713,132.418731 C140.300276,132.201184 140.184489,132.004697 140.01571,131.860423 Z" id="Path" fill="#66C2E9" style="mix-blend-mode: multiply;"></path>
            <path d="M171.071601,157.243505 L212.077341,154.581571 L253.083082,151.909668 C254.123896,151.869576 255.007652,152.664957 255.077039,153.70423 L257.908459,197.312085 L260.749849,240.929909 C260.781678,241.437198 260.609375,241.936158 260.271299,242.31571 C259.938171,242.700616 259.463483,242.934364 258.955287,242.963746 L217.949547,245.63565 L176.933837,248.297583 C175.894722,248.343241 175.009301,247.550789 174.939879,246.512991 L172.098489,202.895166 L169.267069,159.287311 C169.23156,158.777733 169.401197,158.275101 169.738232,157.891255 C170.075267,157.507409 170.551741,157.274195 171.061631,157.243505 L171.071601,157.243505 Z" id="Path" fill="#023852"></path>
            <path d="M197.471601,93.4867069 L224.629305,91.7220544 L251.777039,89.9274924 C252.309386,89.8922319 252.83366,90.0717778 253.232628,90.4259819 C253.633013,90.7758568 253.877073,91.2711549 253.910574,91.8018127 L255.824773,120.714199 L257.729003,149.626586 C257.766984,150.15754 257.591089,150.681638 257.240483,151.082175 C256.886632,151.477352 256.393604,151.720293 255.864653,151.760121 L228.706949,153.534743 L201.549245,155.329305 C201.020145,155.364819 200.498693,155.188109 200.100189,154.838249 C199.701685,154.488389 199.458958,153.9942 199.42568,153.464955 L197.51148,124.552568 L195.607251,95.6401813 C195.569269,95.1092277 195.745165,94.5851297 196.09577,94.1845921 C196.442168,93.7767886 196.93793,93.5253152 197.471601,93.4867069 Z" id="Path" fill="#023852"></path>
            <path d="M260.420846,198.747734 L281.835952,197.351964 L303.241088,195.966163 C303.576418,195.937863 303.908488,196.049756 304.158308,196.275227 C304.406104,196.494159 304.556736,196.802595 304.577039,197.132628 L305.903021,217.570695 L307.238973,237.998792 C307.259903,238.33017 307.148785,238.656356 306.929909,238.906042 C306.711033,239.160845 306.397896,239.315614 306.062538,239.334743 L284.647432,240.730514 L263.202417,242.116314 C262.51007,242.156201 261.914463,241.631711 261.866465,240.939879 L260.540483,220.511782 L259.214502,200.083686 C259.193571,199.752308 259.30469,199.426121 259.523565,199.176435 C259.749465,198.914237 260.07493,198.758737 260.420846,198.747734 L260.420846,198.747734 Z" id="Path" fill="#0099DA"></path>
            <path d="M259.214502,143.455287 L304.736556,143.455287 C305.389531,143.460706 305.917542,143.988716 305.922961,144.641692 L305.922961,194.809668 C305.917542,195.462643 305.389531,195.990653 304.736556,195.996073 L259.214502,195.996073 C258.561526,195.990653 258.033516,195.462643 258.028097,194.809668 L258.028097,144.641692 C258.033516,143.988716 258.561526,143.460706 259.214502,143.455287 L259.214502,143.455287 Z" id="Path" fill="#023852"></path>
            <path d="M300.549226,314.177946 C300.550565,307.176704 305.497282,301.151345 312.364235,299.786671 C319.231189,298.421997 326.10588,302.09808 328.784098,308.566815 C331.462315,315.035549 329.198156,322.495345 323.376264,326.384169 C317.554372,330.272994 309.796189,329.507781 304.846224,324.556495 C302.089536,321.80685 300.543011,318.07151 300.549226,314.177946 L300.549226,314.177946 Z" id="Path" fill="#023852"></path>
            <path d="M157.891522,314.177946 C157.892861,307.176704 162.839578,301.151345 169.706532,299.786671 C176.573485,298.421997 183.448176,302.09808 186.126394,308.566815 C188.804611,315.035549 186.540452,322.495345 180.71856,326.384169 C174.896669,330.272994 167.138485,329.507781 162.18852,324.556495 C159.431832,321.80685 157.885308,318.07151 157.891522,314.177946 L157.891522,314.177946 Z" id="Path" fill="#023852"></path>
            <path d="M304.885976,314.177946 C304.900683,309.238427 308.40414,304.997798 313.252192,304.051523 C318.100245,303.105247 322.941226,305.717153 324.812226,310.288631 C326.683227,314.860109 325.0626,320.116601 320.942246,322.840888 C316.821892,325.565174 311.350593,324.997706 307.877039,321.485801 C305.948729,319.543977 304.872556,316.914527 304.885976,314.177946 L304.885976,314.177946 Z" id="Path" fill="#9DADB7"></path>
            <path d="M162.228272,314.177946 C162.242979,309.238427 165.746436,304.997798 170.594489,304.051523 C175.442542,303.105247 180.283522,305.717153 182.154522,310.288631 C184.025523,314.860109 182.404897,320.116601 178.284542,322.840888 C174.164188,325.565174 168.692889,324.997706 165.219335,321.485801 C163.291025,319.543977 162.214852,316.914527 162.228272,314.177946 L162.228272,314.177946 Z" id="Path" fill="#9DADB7"></path>
            <path d="M308.116314,314.177946 C308.093623,310.77739 310.479341,307.835688 313.811305,307.155756 C317.143268,306.475823 320.49083,308.247572 321.802329,311.385129 C323.113828,314.522686 322.02295,318.149702 319.198275,320.043245 C316.3736,321.936787 312.604086,321.567972 310.2,319.16284 C308.873676,317.84206 308.124477,316.049717 308.116314,314.177946 Z" id="Path" fill="#F0F3F4"></path>
            <path d="M165.498489,314.177946 C165.475798,310.77739 167.861516,307.835688 171.19348,307.155756 C174.525444,306.475823 177.873006,308.247572 179.184504,311.385129 C180.496003,314.522686 179.405125,318.149702 176.58045,320.043245 C173.755776,321.936787 169.986261,321.567972 167.582175,319.16284 C166.255851,317.84206 165.506652,316.049717 165.498489,314.177946 Z" id="Path" fill="#F0F3F4"></path>
            <path d="M319.681269,294.716918 L164.501511,294.716918 L164.870393,284.458006 L165.239275,274.189124 L172.806344,265.385801 L180.383384,256.572508 L219.265559,253.461934 L258.147734,250.35136 C258.580935,250.318798 258.983064,250.114143 259.26435,249.783082 C259.552371,249.45439 259.692923,249.021924 259.653172,248.586707 C259.619179,248.15167 259.410601,247.748899 259.074924,247.470091 C258.74486,247.191502 258.319451,247.052083 257.88852,247.081269 L237.779456,248.696375 L217.670393,250.31148 L217.740181,250.251662 L217.81994,250.251662 L217.072205,249.164955 L216.334441,248.078248 L262.664048,244.229909 L309.003625,240.381571 C310.617898,240.228703 311.856651,238.882419 311.874924,237.261027 L311.874924,181.829003 C311.878175,180.221175 310.662905,178.872311 309.063444,178.708459 L233.691843,170.842296 L158.320242,162.986103 L154.402115,157.233535 L150.483988,151.490937 C149.385512,149.886059 147.741653,148.73465 145.858006,148.250755 L141.102417,147.044411 L136.346828,145.828097 L136.067674,146.944713 L135.77855,148.05136 L140.534139,149.267674 L145.289728,150.474018 C145.95759,150.640632 146.589406,150.927821 147.154079,151.32145 C147.71197,151.721418 148.197493,152.213684 148.589728,152.777039 L151.959517,157.761934 L155.329305,162.746828 L151.610574,162.358006 L147.891843,161.979154 L147.333535,160.184592 L146.765257,158.39003 C146.274119,156.824251 145.400334,155.405635 144.222961,154.262538 C143.045874,153.117138 141.598783,152.287289 140.01571,151.849849 L137.214199,151.072205 L134.412689,150.284592 L134.103625,151.391239 L133.794562,152.497885 L136.596073,153.275529 L139.397583,154.063142 C140.61183,154.397634 141.722571,155.031854 142.627795,155.907553 C143.544649,156.782993 144.229798,157.87238 144.621752,159.077946 L160.074924,208.238973 L175.468278,257.270393 L168.928097,264.887311 L162.387915,272.49426 C162.270461,272.63456 162.176217,272.792754 162.108761,272.96284 C162.041726,273.134716 162.004634,273.316806 161.999094,273.501208 L161.590332,284.767069 L161.191541,296.022961 L161.191541,296.222356 C161.191553,296.513575 161.278325,296.798188 161.440785,297.039879 C161.596191,297.280326 161.817767,297.470743 162.078852,297.588218 L160.005136,297.588218 C159.579328,297.588483 159.170851,297.75689 158.86858,298.056798 C158.56533,298.361728 158.393548,298.773287 158.39003,299.203323 L158.39003,299.951057 C158.390748,300.293028 158.50273,300.625477 158.709063,300.898187 C158.909713,301.161244 159.183775,301.358985 159.496677,301.466465 C160.341747,305.922489 162.604339,309.986063 165.94713,313.05136 C167.376589,314.399237 169.012335,315.509929 170.792447,316.34139 C171.346727,316.581303 171.924884,316.761768 172.517221,316.879758 C173.431265,317.177705 174.434639,316.973244 175.159215,316.34139 C175.685112,315.522836 175.84759,314.522693 175.607855,313.579758 C175.513534,312.995116 175.363297,312.42088 175.159215,311.864955 C174.018733,309.973666 173.127368,307.942962 172.507251,305.823263 C172.092526,304.421947 171.779328,302.992565 171.570091,301.546224 L171.649849,301.546224 C172.079837,301.551633 172.493796,301.383208 172.797868,301.079136 C173.101939,300.775065 173.270364,300.361106 173.264955,299.931118 L173.264955,299.183384 C173.265841,298.864265 173.172173,298.552035 172.99577,298.286103 C172.822475,298.028851 172.580764,297.825123 172.297885,297.697885 L302.234139,297.697885 C301.948449,297.824914 301.703464,298.028493 301.526284,298.286103 C301.349882,298.552035 301.256213,298.864265 301.2571,299.183384 L301.2571,299.931118 C301.25169,300.361106 301.420115,300.775065 301.724187,301.079136 C302.028258,301.383208 302.442217,301.551633 302.872205,301.546224 L302.872205,301.546224 C303.739534,305.988916 306.015458,310.033838 309.362538,313.081269 C310.792339,314.411461 312.420235,315.5113 314.187915,316.34139 C314.745312,316.582189 315.326868,316.762672 315.922659,316.879758 C316.833493,317.178031 317.834125,316.973356 318.554683,316.34139 C319.08058,315.522836 319.243058,314.522693 319.003323,313.579758 C318.909002,312.995116 318.758766,312.42088 318.554683,311.864955 C317.396143,309.94865 316.49763,307.886764 315.882779,305.733535 C315.470436,304.335599 315.160551,302.909463 314.955589,301.466465 C315.297093,301.378169 315.601172,301.18244 315.822961,300.908157 C316.056674,300.629339 316.180733,300.274886 316.171903,299.911178 L316.171903,299.163444 C316.17279,298.844325 316.079121,298.532095 315.902719,298.266163 C315.725539,298.008553 315.480555,297.804974 315.194864,297.677946 L319.671299,297.677946 C320.497223,297.677946 321.166767,297.008402 321.166767,296.182477 C321.166767,295.783179 321.008309,295.400177 320.728097,295.11571 C320.443445,294.853069 320.068519,294.71024 319.681269,294.716918 L319.681269,294.716918 Z M215.167976,250.500906 L197.55136,251.906647 L179.934743,253.322356 C179.552757,253.354153 179.180444,253.459078 178.838066,253.63142 C178.500679,253.805617 178.199546,254.042463 177.950755,254.329305 L177.561934,254.777946 L177.183082,255.226586 L176.574924,253.292447 L175.966767,251.368278 L194.799698,249.803021 L213.632628,248.247734 L214.400302,249.38429 L215.167976,250.500906 Z M310.479154,231.747734 L309.023565,231.817523 L307.558006,231.887311 L307.478248,222.774924 L307.398489,213.652568 L308.943807,213.652568 L310.479154,213.652568 L310.479154,231.777644 L310.479154,231.747734 Z M179.037462,249.803021 L177.502115,244.718429 L175.966767,239.643807 L177.960725,239.544109 L179.954683,239.444411 L181.430211,244.429305 L182.90574,249.414199 L181.001511,249.573716 L179.037462,249.803021 Z M223.971299,214.639577 L226.084894,214.639577 L228.18852,214.639577 L230.302115,225.077946 L232.385801,235.566163 L230.391843,235.665861 L228.397885,235.765559 L226.184592,225.197583 L223.971299,214.639577 Z M227.071903,235.825378 L225.077946,235.925076 L223.083988,236.024773 L220.731118,225.367069 L218.388218,214.709366 L220.491843,214.709366 L222.595468,214.709366 L224.818731,225.287311 L227.071903,235.825378 Z M229.524471,214.579758 L231.628097,214.579758 L233.741692,214.579758 L235.685801,224.968278 L237.679758,235.356798 L235.685801,235.456495 L233.691843,235.556193 L231.608157,225.087915 L229.524471,214.579758 Z M235.067674,214.50997 L237.181269,214.50997 L239.294864,214.50997 L241.109366,224.808761 L242.923867,235.107553 L240.929909,235.197281 L238.935952,235.296979 L236.941994,224.928399 L235.067674,214.50997 Z M240.620846,214.440181 L242.734441,214.440181 L244.848036,214.440181 L246.522961,224.649245 L248.247734,234.798489 L246.253776,234.888218 L244.259819,234.987915 L242.455287,224.719033 L240.620846,214.440181 Z M246.174018,214.380363 L248.287613,214.380363 L250.401208,214.380363 L251.946526,224.479758 L253.481873,234.589124 L251.487915,234.678852 L249.493958,234.77855 L247.819033,224.599396 L246.174018,214.380363 Z M251.72719,214.310574 L253.840785,214.310574 L255.96435,214.310574 L257.360121,224.280363 L258.765861,234.250151 L256.771903,234.349849 L254.777946,234.439577 L253.232628,224.39003 L251.72719,214.310574 Z M257.280363,214.250755 L259.403927,214.250755 L261.517523,214.250755 L262.783686,224.160725 L264.049849,234.070695 L262.055891,234.170393 L260.061934,234.260121 L258.656193,224.290332 L257.280363,214.250755 Z M262.843505,214.180967 L264.9571,214.180967 L267.080665,214.180967 L268.207251,224.001208 L269.323867,233.81148 L267.329909,233.911178 L265.335952,234.000906 L264.079758,224.120846 L262.843505,214.180967 Z M268.396677,214.111178 L270.520242,214.111178 L272.643807,214.111178 L273.640785,223.831722 L274.637764,233.552266 L272.643807,233.651964 L270.649849,233.751662 L269.523263,223.95136 L268.396677,214.111178 Z M273.959819,214.05136 L276.093353,214.05136 L278.216918,214.05136 L279.044411,223.672205 L279.881873,233.293051 L277.887915,233.392749 L275.893958,233.492447 L274.896979,223.791843 L273.959819,214.05136 Z M279.532931,213.981571 L281.656495,213.981571 L283.78006,213.981571 L284.467976,223.512689 L285.155891,233.033837 L283.161934,233.133535 L281.167976,233.233233 L280.340483,223.632326 L279.532931,213.981571 Z M285.096073,213.921752 L287.229607,213.921752 L289.353172,213.921752 L289.891541,223.353172 L290.429909,232.774622 L288.435952,232.87432 L286.441994,232.974018 L285.764048,223.47281 L285.096073,213.921752 Z M290.669184,213.851964 L292.802719,213.851964 L294.936254,213.851964 L295.315106,223.183686 L295.703927,232.525378 L293.70997,232.615106 L291.716012,232.714804 L291.187613,223.313293 L290.669184,213.851964 Z M296.242296,213.792145 L298.375831,213.792145 L300.509366,213.792145 L300.74864,223.034139 L300.977946,232.276133 L298.983988,232.365861 L296.99003,232.465559 L296.611178,223.153776 L296.242296,213.792145 Z M296.192447,212.476133 L295.893353,205.347734 L295.60423,198.219335 L297.857402,198.279154 L300.090634,198.398792 L300.270091,205.437462 L300.449547,212.476133 L298.306042,212.476133 L296.192447,212.476133 Z M294.876435,212.476133 L292.732931,212.476133 L290.599396,212.476133 L290.180665,205.228097 L289.771903,197.99003 L292.025076,198.049849 L294.288218,198.109668 L294.587311,205.267976 L294.876435,212.476133 Z M289.283384,212.535952 L287.139879,212.535952 L285.006344,212.535952 L284.477946,205.178248 L283.949547,197.830514 L286.202719,197.890332 L288.455891,197.950151 L288.864653,205.218127 L289.283384,212.535952 Z M283.690332,212.60574 L281.556798,212.60574 L279.413293,212.60574 L278.765257,205.138369 L278.12719,197.661027 L280.380363,197.730816 L282.633535,197.790634 L283.161934,205.168278 L283.690332,212.60574 Z M278.097281,212.675529 L275.963746,212.675529 L273.830211,212.675529 L273.072508,205.08852 L272.304834,197.501511 L274.558006,197.561329 L276.801208,197.631118 L277.449245,205.128399 L278.097281,212.675529 Z M272.514199,212.735347 L270.380665,212.735347 L268.24713,212.735347 L267.369789,205.038671 L266.492447,197.401813 L268.73565,197.461631 L270.988822,197.52145 L271.746526,205.138369 L272.514199,212.735347 Z M266.931118,212.805136 L264.807553,212.805136 L262.674018,212.805136 L261.677039,204.988822 L260.68006,197.182477 L262.923263,197.242296 L265.196375,197.401813 L266.083686,205.128399 L266.931118,212.805136 Z M261.358006,212.864955 L259.224471,212.864955 L257.100906,212.864955 L255.98429,204.889124 L254.877644,196.973112 L257.120846,197.032931 L259.354079,197.092749 L260.351057,204.929003 L261.358006,212.864955 Z M255.774924,212.934743 L253.65136,212.934743 L251.527795,212.934743 L250.301511,204.899094 L249.075227,196.853474 L251.308459,196.923263 L253.551662,196.983082 L254.658308,204.958912 L255.774924,212.934743 Z M250.201813,213.004532 L248.078248,213.004532 L245.954683,213.004532 L244.608761,204.849245 L243.26284,196.763746 L245.496073,196.823565 L247.729305,196.893353 L248.965559,204.958912 L250.201813,213.004532 Z M244.628701,213.06435 L242.505136,213.06435 L240.391541,213.06435 L238.925982,204.799396 L237.470393,196.534441 L239.703625,196.59426 L241.936858,196.654079 L243.282779,204.839275 L244.628701,213.06435 Z M239.065559,213.134139 L236.941994,213.134139 L234.828399,213.134139 L233.293051,204.819335 L231.717825,196.444713 L233.951057,196.504532 L236.17432,196.56435 L237.639879,204.859215 L239.065559,213.134139 Z M233.492447,213.193958 L231.378852,213.193958 L229.265257,213.193958 L227.570393,204.709668 L225.885498,196.215408 L228.108761,196.275227 L230.302115,196.404834 L231.877341,204.809366 L233.492447,213.193958 Z M227.929305,213.263746 L225.81571,213.263746 L223.702115,213.263746 L221.897583,204.659819 L220.093051,196.055891 L222.316314,196.11571 L224.539577,196.175529 L226.234441,204.699698 L227.929305,213.263746 Z M222.326284,213.353474 L220.212689,213.353474 L218.099094,213.353474 L216.184894,204.629909 L214.350453,195.966163 L216.563746,196.025982 L218.787009,196.085801 L220.601511,204.719637 L222.326284,213.353474 Z M216.763142,213.413293 L214.659517,213.413293 L212.545921,213.413293 L210.551964,204.58006 L208.558006,195.746828 L210.781269,195.816616 L212.994562,195.876435 L214.918731,204.61994 L216.763142,213.413293 Z M211.20997,213.483082 L209.096375,213.483082 L206.992749,213.483082 L204.849245,204.510272 L202.69577,195.537462 L204.909063,195.597281 L207.132326,195.667069 L209.126284,204.520242 L211.20997,213.483082 Z M205.646828,213.5429 L203.543202,213.5429 L201.439577,213.5429 L199.176435,204.490332 L196.913293,195.427795 L199.126586,195.487613 L201.339879,195.557402 L203.493353,204.530211 L205.646828,213.5429 Z M200.093656,213.612689 L197.99003,213.612689 L195.886405,213.612689 L193.513595,204.440483 L191.140785,195.268278 L193.413897,195.407855 L195.62719,195.467674 L197.890332,204.560121 L200.093656,213.612689 Z M188.987311,213.742296 L186.893656,213.742296 L184.79003,213.742296 L182.975529,207.182175 L181.161027,200.632024 L184.720242,205.856193 L188.289426,211.090332 L188.638369,212.386405 L188.987311,213.742296 Z M189.336254,215.048338 L192.32719,226.214502 L195.318127,237.380665 L193.324169,237.480363 L191.330211,237.570091 L188.309366,226.314199 L185.198792,215.078248 L187.282477,215.078248 L189.336254,215.048338 Z M190.692145,215.048338 L190.94139,215.048338 L194.131722,219.714199 L197.312085,224.39003 L198.9571,230.760725 L200.612085,237.14139 L198.618127,237.241088 L196.624169,237.330816 L193.633233,226.194562 L190.692145,215.048338 Z M193.683082,215.048338 L194.869486,215.048338 L195.238369,216.464048 L195.597281,217.869789 L194.600302,216.474018 L193.683082,215.048338 Z M199.485498,227.620242 L202.655891,232.266163 L205.826284,236.912085 L203.882175,237.011782 L201.938066,237.101511 L200.761631,232.296073 L199.485498,227.620242 Z M197.780665,221.050151 L197.003021,218.059215 L196.215408,215.068278 L198.319033,215.068278 L200.412689,215.068278 L202.406647,222.914502 L204.400604,230.750755 L201.120544,225.955287 L197.780665,221.050151 Z M194.530514,213.722356 L193.663142,213.722356 L192.79577,213.722356 L190.801813,210.73142 L188.807855,207.740483 L187.122961,201.459517 L185.438066,195.15861 L187.65136,195.218429 L189.854683,195.278248 L192.237462,204.480363 L194.530514,213.722356 Z M186.474924,204.480363 L183.274622,199.764653 L180.06435,195.058912 L182.058308,195.118731 L184.052266,195.16858 L185.298489,199.824471 L186.474924,204.480363 Z M177.232931,194.979154 L178.040483,196.175529 L178.858006,197.371903 L181.141088,205.616918 L183.424169,213.861934 L181.330514,213.861934 L179.236858,213.861934 L176.564955,204.380665 L173.853172,194.869486 L175.567976,194.869486 L177.232931,194.979154 Z M173.47432,193.513595 L172.477341,189.924471 L171.480363,186.335347 L173.95287,189.96435 L176.435347,193.593353 L174.979758,193.593353 L173.47432,193.513595 Z M183.8429,215.118127 L186.963444,226.374018 L190.083988,237.639879 L188.09003,237.729607 L186.096073,237.829305 L182.855891,226.493656 L179.62568,215.167976 L181.709366,215.167976 L183.8429,215.118127 Z M184.839879,237.899094 L182.845921,237.988822 L180.851964,238.08852 L177.462236,226.663142 L174.102417,215.227795 L176.186103,215.227795 L178.269789,215.227795 L181.51994,226.583384 L184.839879,237.899094 Z M179.545921,238.158308 L177.551964,238.248036 L175.558006,238.347734 L172.06858,226.822659 L168.599094,215.347432 L170.682779,215.347432 L172.766465,215.347432 L176.136254,226.802719 L179.545921,238.158308 Z M184.211782,249.37432 L182.746224,244.389426 L181.280665,239.404532 L183.274622,239.304834 L185.26858,239.215106 L186.67432,244.140181 L188.09003,249.075227 L186.185801,249.234743 L184.211782,249.37432 Z M189.356193,248.945619 L187.950453,244.030514 L186.554683,239.125378 L188.54864,239.02568 L190.542598,238.935952 L191.88852,243.781269 L193.224471,248.626586 L191.320242,248.786103 L189.356193,248.945619 Z M194.500604,248.516918 L193.164653,243.691541 L191.818731,238.866163 L193.812689,238.766465 L195.806647,238.676737 L197.082779,243.442296 L198.358912,248.197885 L196.454683,248.357402 L194.500604,248.516918 Z M199.635045,248.088218 L198.368882,243.352568 L197.092749,238.606949 L199.086707,238.517221 L201.080665,238.417523 L202.287009,243.093353 L203.503323,247.779154 L201.599094,247.928701 L199.635045,248.088218 Z M204.779456,247.669486 L203.573112,243.003625 L202.366767,238.347734 L204.360725,238.258006 L206.354683,238.158308 L207.501208,242.754381 L208.647734,247.350453 L206.743505,247.50997 L204.779456,247.669486 Z M209.923867,247.240785 L209.036556,243.691541 L208.149245,240.152266 L210.482175,243.571903 L212.815106,247.001511 L211.369486,247.121148 L209.923867,247.240785 Z M209.465257,238.008761 L210.522054,237.948943 L211.578852,237.948943 L212.167069,240.42145 L212.765257,242.893958 L211.110272,240.471299 L209.465257,238.008761 Z M208.597885,236.732628 L207.600906,235.22719 L206.603927,233.731722 L204.161329,224.320242 L201.808459,214.908761 L203.902115,214.908761 L206.00574,214.908761 L208.617825,225.785801 L211.21994,236.66284 L209.893958,236.732628 L208.597885,236.732628 Z M207.381571,214.799094 L209.485196,214.799094 L211.588822,214.799094 L214.071299,225.576435 L216.553776,236.353776 L214.559819,236.453474 L212.565861,236.553172 L209.963746,225.696073 L207.381571,214.799094 Z M212.924773,214.729305 L215.028399,214.729305 L217.132024,214.729305 L219.484894,225.416918 L221.837764,236.094562 L219.843807,236.19426 L217.849849,236.293958 L215.347432,225.526586 L212.924773,214.729305 Z M222.116918,237.340785 L223.113897,241.687613 L224.110876,246.024471 L222.196677,246.183988 L220.282477,246.343505 L219.285498,241.936858 L218.28852,237.540181 L220.282477,237.440483 L222.116918,237.340785 Z M223.4429,237.280967 L225.436858,237.181269 L227.430816,237.091541 L228.318127,241.338671 L229.215408,245.59577 L227.301208,245.755287 L225.387009,245.914804 L224.439879,241.597885 L223.4429,237.280967 Z M228.716918,237.021752 L230.710876,236.922054 L232.704834,236.832326 L233.532326,240.999698 L234.29003,245.256798 L232.375831,245.416314 L230.461631,245.565861 L229.57432,241.338671 L228.716918,237.021752 Z M233.980967,236.762538 L235.974924,236.67281 L237.968882,236.573112 L238.736556,240.660725 L239.50423,244.748338 L237.59003,244.907855 L235.675831,245.067372 L234.848338,240.90997 L233.980967,236.762538 Z M239.245015,236.503323 L241.238973,236.413595 L243.232931,236.313897 L243.940785,240.301813 L244.64864,244.289728 L242.734441,244.449245 L240.810272,244.608761 L240.052568,240.541088 L239.245015,236.503323 Z M244.509063,236.244109 L246.503021,236.154381 L248.496979,236.054683 L249.145015,239.97281 L249.793051,243.890937 L247.868882,244.050453 L245.954683,244.20997 L245.256798,240.222054 L244.509063,236.244109 Z M249.773112,235.994864 L251.767069,235.895166 L253.761027,235.795468 L254.349245,239.633837 L254.937462,243.462236 L253.013293,243.621752 L251.099094,243.781269 L250.461027,239.883082 L249.773112,235.994864 Z M255.03716,235.73565 L257.031118,235.635952 L259.025076,235.536254 L259.553474,239.284894 L260.081873,243.033535 L258.157704,243.193051 L256.243505,243.352568 L255.665257,239.544109 L255.03716,235.73565 Z M260.301208,235.476435 L262.295166,235.376737 L264.289124,235.287009 L264.757704,238.945921 L265.226284,242.614804 L263.302115,242.77432 L261.387915,242.933837 L260.869486,239.205136 L260.301208,235.476435 Z M265.565257,235.217221 L267.559215,235.127492 L269.553172,235.027795 L269.961934,238.606949 L270.370695,242.186103 L268.446526,242.345619 L266.532326,242.505136 L266.063746,238.856193 L265.565257,235.217221 Z M270.829305,234.958006 L272.823263,234.868278 L274.817221,234.76858 L275.166163,238.258006 L275.515106,241.757402 L273.590937,241.916918 L271.676737,242.076435 L271.267976,238.517221 L270.829305,234.958006 Z M276.083384,234.708761 L278.077341,234.609063 L280.071299,234.509366 L280.370393,237.919033 L280.659517,241.328701 L278.745317,241.488218 L276.821148,241.647734 L276.472205,238.178248 L276.083384,234.708761 Z M281.337462,234.449547 L283.33142,234.349849 L285.325378,234.250151 L285.564653,237.58006 L285.803927,240.9 L283.889728,241.059517 L281.965559,241.219033 L281.676435,237.839275 L281.337462,234.449547 Z M286.601511,234.190332 L288.595468,234.090634 L290.589426,234.000906 L290.778852,237.241088 L290.958308,240.471299 L289.044109,240.630816 L287.11994,240.790332 L286.880665,237.490332 L286.601511,234.190332 Z M291.855589,233.931118 L293.849547,233.84139 L295.843505,233.741692 L295.983082,236.892145 L296.112689,240.052568 L294.108761,240.271903 L292.184592,240.43142 L292.005136,237.211178 L291.855589,233.931118 Z M297.109668,233.671903 L299.103625,233.582175 L301.097583,233.482477 L301.177341,236.553172 L301.2571,239.623867 L299.332931,239.783384 L297.418731,239.9429 L297.289124,236.812387 L297.109668,233.671903 Z M302.363746,233.422659 L304.357704,233.322961 L306.351662,233.223263 L306.351662,236.214199 L306.351662,239.205136 L304.437462,239.364653 L302.513293,239.524169 L302.433535,236.473414 L302.363746,233.422659 Z M302.363746,232.106647 L302.134441,222.894562 L301.905136,213.682477 L304.038671,213.682477 L306.172205,213.682477 L306.251964,222.824773 L306.331722,231.967069 L304.337764,232.066767 L302.363746,232.106647 Z M310.558912,212.266767 L309.013595,212.266767 L307.468278,212.266767 L307.408459,205.367674 L307.34864,198.46858 L308.953776,198.46858 L310.558912,198.518429 L310.558912,212.356495 L310.558912,212.266767 Z M306.072508,212.356495 L303.929003,212.356495 L301.775529,212.356495 L301.596073,205.377644 L301.426586,198.398792 L303.689728,198.46858 L305.95287,198.528399 L306.012689,205.457402 L306.072508,212.356495 Z M301.386707,197.07281 L301.167372,188.1 L300.938066,179.12719 L303.360725,179.376435 L305.793353,179.63565 L305.863142,188.409063 L305.9429,197.182477 L303.669789,197.122659 L301.386707,197.07281 Z M300.080665,197.07281 L297.807553,197.012991 L295.534441,196.943202 L295.155589,187.741088 L294.776737,178.538973 L297.199396,178.788218 L299.622054,179.037462 L299.85136,188.060121 L300.080665,197.07281 Z M294.218429,196.913293 L291.955287,196.843505 L289.682175,196.783686 L289.153776,187.342296 L288.615408,177.890937 L291.038066,178.140181 L293.460725,178.399396 L293.839577,187.65136 L294.218429,196.913293 Z M288.376133,196.743807 L286.103021,196.683988 L283.839879,196.624169 L283.141994,186.933535 L282.444109,177.25287 L284.866767,177.502115 L287.289426,177.75136 L287.827795,187.252568 L288.376133,196.743807 Z M282.523867,196.58429 L280.260725,196.524471 L277.997583,196.464653 L277.140181,186.494864 L276.282779,176.525076 L278.705438,176.77432 L281.128097,177.033535 L281.825982,186.764048 L282.523867,196.58429 Z M276.681571,196.424773 L274.428399,196.364955 L272.165257,196.295166 L271.168278,186.125982 L270.171299,175.966767 L272.583988,176.216012 L275.006647,176.465257 L275.874018,186.435045 L276.681571,196.424773 Z M270.839275,196.265257 L268.586103,196.195468 L266.332931,196.13565 L265.196375,185.687311 L264.00997,175.278852 L266.422659,175.528097 L268.835347,175.787311 L269.832326,186.006344 L270.839275,196.265257 Z M265.006949,196.09577 L262.753776,196.035952 L260.500604,195.976133 L259.144713,185.328399 L257.788822,174.680665 L260.21148,174.929909 L262.624169,175.179154 L263.820544,185.637462 L265.006949,196.09577 Z M259.184592,195.936254 L256.93142,195.876435 L254.678248,195.816616 L253.15287,184.919637 L251.627492,174.032628 L254.040181,174.281873 L256.45287,174.541088 L257.818731,185.238671 L259.184592,195.936254 Z M253.352266,195.776737 L251.109063,195.716918 L248.865861,195.64713 L247.170997,184.441088 L245.476133,173.314804 L247.888822,173.564048 L250.291541,173.813293 L251.826888,184.78006 L253.352266,195.776737 Z M247.529909,195.617221 L245.256798,195.507553 L243.013595,195.447734 L241.139275,184.082175 L239.274924,172.706647 L241.687613,172.955891 L244.100302,173.205136 L245.835045,184.441088 L247.529909,195.617221 Z M241.707553,195.447734 L239.47432,195.387915 L237.231118,195.328097 L235.177341,183.713293 L233.183384,172.108459 L235.586103,172.357704 L237.998792,172.606949 L239.883082,184.032326 L241.707553,195.447734 Z M235.895166,195.288218 L233.651964,195.228399 L231.418731,195.16858 L229.195468,183.314502 L226.972205,171.460423 L229.374924,171.709668 L231.777644,171.958912 L233.83142,183.623565 L235.895166,195.288218 Z M230.082779,195.128701 L227.849547,195.068882 L225.616314,195.009063 L223.203625,182.91571 L220.800906,170.822356 L223.203625,171.071601 L225.606344,171.320846 L227.839577,183.224773 L230.082779,195.128701 Z M224.270393,194.969184 L222.03716,194.909366 L219.803927,194.839577 L217.231722,182.44713 L214.649547,170.114502 L217.052266,170.363746 L219.445015,170.612991 L221.867674,182.766163 L224.270393,194.969184 Z M218.458006,194.809668 L216.234743,194.739879 L214.001511,194.68006 L211.239879,182.108157 L208.478248,169.486405 L210.880967,169.745619 L213.283686,169.994864 L215.875831,182.377341 L218.458006,194.809668 Z M212.655589,194.650151 L210.432326,194.580363 L208.209063,194.520544 L205.218127,181.709366 L202.22719,168.888218 L204.61994,169.137462 L207.022659,169.386707 L209.79426,182.018429 L212.655589,194.650151 Z M206.853172,194.480665 L204.629909,194.420846 L202.406647,194.361027 L199.276133,181.300604 L196.13565,168.240181 L198.538369,168.499396 L200.931118,168.74864 L203.922054,181.609668 L206.853172,194.480665 Z M201.050755,194.321148 L198.837462,194.261329 L196.614199,194.201511 L193.29426,180.901813 L189.97432,167.602115 L192.367069,167.85136 L194.759819,168.100604 L197.910272,181.210876 L201.050755,194.321148 Z M195.258308,194.161631 L193.045015,194.101813 L190.821752,194.041994 L187.322356,180.453172 L183.822961,166.90423 L186.20574,167.153474 L188.598489,167.402719 L191.928399,180.762236 L195.258308,194.161631 Z M189.465861,194.002115 L187.252568,193.942296 L185.039275,193.882477 L181.350453,180.054381 L177.651662,166.276133 L180.044411,166.525378 L182.42719,166.774622 L185.946526,180.363444 L189.465861,194.002115 Z M183.673414,193.842598 L181.460121,193.782779 L179.246828,193.712991 L175.35861,179.695468 L171.480363,165.628097 L173.863142,165.877341 L176.245921,166.126586 L179.954683,179.964653 L183.673414,193.842598 Z M176.993656,190.502719 L173.205136,184.929607 L169.406647,179.366465 L167.36284,172.198187 L165.309063,165.029909 L167.691843,165.279154 L170.074622,165.528399 L173.534139,178.010574 L176.993656,190.502719 Z M167.023867,175.926888 L163.035952,170.154381 L159.107855,164.391843 L161.460725,164.641088 L163.813595,164.880363 L165.388822,170.403625 L167.023867,175.926888 Z M169.017825,182.90574 L170.523263,188.199698 L172.038671,193.493656 L169.835347,193.423867 L167.632024,193.364048 L164.391843,182.397281 L161.161631,171.430514 L165.089728,177.183082 L169.017825,182.90574 Z M172.477341,194.799698 L175.199094,204.340785 L177.930816,213.871903 L175.83716,213.871903 L173.743505,213.871903 L170.912085,204.251057 L168.080665,194.630211 L170.274018,194.69003 L172.477341,194.799698 Z M172.377644,213.941692 L170.293958,213.941692 L168.200302,213.941692 L165.209366,204.201208 L162.218429,194.470695 L164.411782,194.530514 L166.615106,194.590332 L169.456495,204.241088 L172.377644,213.941692 Z M166.834441,214.001511 L165.528399,214.001511 L164.222356,214.001511 L161.141692,204.191239 L158.051057,194.370997 L159.486707,194.370997 L160.932326,194.370997 L163.923263,204.13142 L166.834441,214.001511 Z M167.233233,215.307553 L170.722659,226.862538 L174.222054,238.417523 L173.165257,238.467372 L172.098489,238.517221 L172.098489,238.846224 L172.098489,239.175227 L168.349849,227.21148 L164.611178,215.247734 L165.907251,215.247734 L167.233233,215.307553 Z M174.610876,239.703625 L176.156193,244.808157 L177.701511,249.912689 L176.634743,250.002417 L175.558006,250.082175 L173.95287,244.947734 L172.337764,239.813293 L173.47432,239.813293 L174.610876,239.703625 Z M214.799094,245.894864 L213.802115,241.906949 L212.805136,237.919033 L214.799094,237.819335 L216.793051,237.719637 L217.79003,242.146224 L218.787009,246.57281 L217.062236,246.712387 L215.347432,246.861934 L215.048338,246.413293 L214.799094,245.894864 Z M308.814199,239.02568 L308.216012,239.075529 L307.617825,239.075529 L307.617825,236.084592 L307.617825,233.093656 L309.073414,233.023867 L310.529003,232.954079 L310.529003,237.101511 C310.527458,238.046169 309.805091,238.83342 308.864048,238.916012 L308.814199,239.02568 Z M310.479154,181.779154 L310.479154,197.322054 L308.874018,197.322054 L307.258912,197.322054 L307.189124,188.598489 L307.109366,179.874924 L307.976737,179.964653 L308.854079,180.054381 C309.300603,180.105082 309.714306,180.313701 310.020544,180.642598 C310.298497,180.9581 310.460305,181.359102 310.479154,181.779154 L310.479154,181.779154 Z M158.818731,167.82145 L162.567372,180.55287 L166.316012,193.28429 L164.112689,193.224471 L161.909366,193.164653 L157.4429,178.459215 L152.986405,163.713897 L154.601511,163.883384 L156.216616,164.05287 L157.522659,165.9571 L158.818731,167.82145 Z M151.540785,163.554381 L156.017221,178.359517 L160.513595,193.154683 L159.187613,193.154683 L157.851662,193.154683 L157.851662,193.802719 L153.046224,178.459215 L148.240785,163.195468 L149.90574,163.374924 L151.540785,163.554381 Z" id="Shape" fill="#CED6DB"></path>
            <path d="M125.150755,154.531743 L138.58006,154.531743 C139.278988,154.534538 139.950114,154.258192 140.444411,153.764048 C140.939426,153.269522 141.218941,152.599402 141.222054,151.899698 L141.222054,147.782175 C141.216588,146.325313 140.036923,145.145648 138.58006,145.140181 L125.150755,145.140181 C124.451051,145.143294 123.780931,145.42281 123.286405,145.917825 C122.792261,146.412122 122.515915,147.083248 122.51871,147.782175 L122.51871,151.899698 C122.516069,152.598567 122.792515,153.269581 123.286694,153.763759 C123.780873,154.257938 124.451886,154.534384 125.150755,154.531743 L125.150755,154.531743 Z" id="Path" fill="#FFE700"></path>
            <polygon id="Path" fill="#06233C" opacity="0.6" style="mix-blend-mode: multiply;" points="305.95287 143.455287 282.005438 143.455287 258.058006 143.455287 258.058006 155.169789 258.058006 166.88429 281.975529 159.147734 305.893051 151.401208 305.922961 147.433233"></polygon>
            <polygon id="Path" fill="#0F111A" points="196.185498 155.618429 210.392447 158.699094 224.589426 161.779758 239.932931 158.370091 255.276435 154.960423 255.136858 153.375227 254.997281 151.79003 225.596375 153.70423"></polygon>
            <polygon id="Path" fill="#FFFFFF" points="220.232628 91.7320242 225.157704 91.4030211 230.07281 91.0839879 230.421752 96.2981873 230.760725 101.522356 225.845619 101.85136 220.920544 102.170393 220.571601 96.9561934"></polygon>
            <path d="M271.04864,81.9317221 L266.492447,78.2329305 L261.926284,74.5241692 C261.904824,74.4648357 261.866756,74.4129242 261.816616,74.3746224 C261.758558,74.3540958 261.695218,74.3540958 261.63716,74.3746224 L261.427795,74.3746224 C261.384715,74.3700057 261.341266,74.3700057 261.298187,74.3746224 C259.104834,74.4643505 253.441994,74.4643505 247.908761,74.4244713 C242.375529,74.3845921 236.941994,74.3148036 235.326888,74.294864 C235.21642,74.2911449 235.112907,74.3486526 235.057704,74.4444109 C234.99722,74.5349352 234.99722,74.6529802 235.057704,74.7435045 C236.012556,76.3731635 237.25573,77.815651 238.726586,79.0006042 C241.321123,81.0927334 244.479054,82.3663165 247.799094,82.6595166 C250.93918,82.9836279 254.0913,82.1699492 256.682175,80.3664653 C258.528108,79.0787466 260.125757,77.4675873 261.397885,75.6108761 L265.86435,79.2398792 L270.330816,82.8688822 L270.410574,82.8688822 L270.500302,82.8688822 C270.614031,82.9035611 270.735515,82.9035611 270.849245,82.8688822 C270.969039,82.8660227 271.084598,82.824001 271.178248,82.7492447 C271.282869,82.6326253 271.330344,82.4755919 271.307855,82.3205438 C271.27668,82.1615874 271.183379,82.0216359 271.04864,81.9317221 L271.04864,81.9317221 Z" id="Path" fill="#4E7486"></path>
            <path d="M317.418127,75.5809668 C315.424169,75.5809668 310.170091,75.6706949 304.816314,75.710574 C299.462538,75.7504532 294.048943,75.710574 291.855589,75.710574 C291.799476,75.7012767 291.742216,75.7012767 291.686103,75.710574 C291.626662,75.7010693 291.566088,75.7010693 291.506647,75.710574 L285.893656,77.7643505 L280.310574,79.8779456 C280.167086,79.9325426 280.049556,80.0393881 279.981571,80.1770393 C279.921193,80.3204919 279.921193,80.4822272 279.981571,80.6256798 C280.022156,80.7347255 280.095236,80.8286854 280.190937,80.894864 C280.287388,80.9618737 280.402516,80.9967607 280.51994,80.9945619 L280.619637,80.9945619 L280.729305,80.9945619 L286.132931,78.9108761 L291.576435,76.8570997 C292.841895,78.7221047 294.440549,80.3376586 296.292145,81.6226586 C298.886516,83.4443145 302.052337,84.2658698 305.205136,83.9356495 C308.420068,83.6685171 311.490095,82.4813477 314.048338,80.5160121 C315.561802,79.3436058 316.851859,77.9083325 317.856798,76.278852 C317.93823,76.1337333 317.936589,75.9563131 317.852488,75.812725 C317.768386,75.6691369 317.614441,75.5809668 317.448036,75.5809668 L317.418127,75.5809668 Z" id="Path" fill="#4E7486"></path>
            <path d="M301.087613,28.2444109 C298.096677,29.3809668 294.268278,32.8205438 291.377039,37.4564955 C288.485801,42.0924471 286.461934,47.9148036 287.050151,53.836858 C287.349245,56.8277946 287.56858,59.0510574 287.738066,60.7160121 L288.126888,64.2054381 L282.663444,72.3507553 L277.160121,80.5060423 C277.073068,80.6307559 277.040661,80.7855864 277.070393,80.9347432 C277.101937,81.0856096 277.191436,81.2180678 277.319637,81.3036254 C277.367342,81.3399722 277.421454,81.3670281 277.479154,81.3835934 L277.638671,81.3835934 C277.733202,81.3861261 277.826563,81.3619213 277.907855,81.3135952 C277.995106,81.2729459 278.068071,81.2069301 278.117221,81.1241692 L283.35136,73.3178248 L288.575529,65.5114804 C292.668777,64.3419784 296.600519,62.6674716 300.28006,60.5265861 C305.673716,57.3761329 311.516012,52.5507553 314.576737,45.4722054 C317.906647,37.8054381 316.042296,32.9302115 312.582779,30.2583082 C309.283915,27.8097855 305.022391,27.0631871 301.087613,28.2444109 Z" id="Path" fill="#4E7486"></path>
            <path d="M255.455891,45.4223565 C254.698187,47.5558912 254.827795,51.1549849 256.00423,54.8138973 C257.160442,58.7144254 259.562719,62.1287409 262.843505,64.5344411 L266.83142,67.2861027 L268.825378,68.6818731 L270.729607,75.3018127 L272.623867,81.9217523 C272.658343,82.0260294 272.729097,82.1144714 272.823263,82.170997 C272.922314,82.2114449 273.033275,82.2114449 273.132326,82.170997 C273.168292,82.1802834 273.206028,82.1802834 273.241994,82.170997 L273.331722,82.1012085 C273.372158,82.048558 273.399496,81.9870477 273.41148,81.9217523 C273.431471,81.8567902 273.431471,81.7873186 273.41148,81.7223565 L271.587009,75.381571 L269.762538,69.0407855 C270.985563,66.3083137 271.866255,63.4351845 272.384592,60.4867069 C273.132326,56.1598187 273.182175,50.8459215 270.779456,46.0006042 C268.167372,40.7365559 264.707855,39.5302115 261.696979,40.1682779 C258.910809,40.8499669 256.602558,42.7931751 255.455891,45.4223565 Z" id="Path" fill="#4E7486"></path>
            <path d="M301.785498,25.4528701 C301.72568,13.9876133 296.680967,8.90302115 290.86858,7.44743202 C285.056193,5.9918429 278.456193,8.19516616 275.285801,11.2858006 C272.115408,14.376435 269.254079,20.7969789 268.177341,28.2344411 C267.100604,35.6719033 267.828399,44.0664653 271.826284,51.1649547 L277.030514,60.3670695 L279.273716,64.3549849 L277.279758,74.0755287 L275.285801,83.7861027 C275.256573,83.9368346 275.288492,84.0930024 275.374521,84.2201766 C275.460551,84.3473509 275.593627,84.4350892 275.744411,84.4640483 C275.892164,84.4991139 276.047856,84.4701481 276.173112,84.38429 C276.302095,84.299521 276.391835,84.1667048 276.422356,84.0154079 L278.346526,74.4643505 L280.270695,64.9232628 C284.777879,61.1316777 288.79657,56.7948411 292.234441,52.0123867 C297.309063,45.0734139 301.845317,35.8912387 301.785498,25.4528701 Z" id="Path" fill="#023852"></path>
            <path d="M272.414502,82.2906344 L265.86435,72.1214502 L259.324169,61.9622356 C259.158898,57.5681501 258.435264,53.2129435 257.170695,49.0015106 C255.425982,43.2190332 252.255589,36.8383686 246.522961,32.341994 C239.9429,27.1776435 234.75861,27.7558912 231.289124,30.4178248 C228.080033,32.9976833 226.276664,36.9407057 226.423867,41.0555891 C226.75287,44.265861 229.12568,48.8120846 232.87432,52.7900302 C236.622961,56.7679758 241.757402,60.1676737 247.619637,61.094864 L255.146828,62.2812689 L258.476737,62.8096677 L264.9571,72.8791541 L271.437462,82.9386707 C271.51857,83.0819015 271.662876,83.1781052 271.826284,83.1978852 C271.895718,83.207838 271.966216,83.207838 272.03565,83.1978852 C272.10712,83.186102 272.175164,83.1588843 272.235045,83.1181269 C272.365678,83.0350417 272.455947,82.9014443 272.48429,82.7492447 C272.530021,82.5935781 272.504467,82.4256517 272.414502,82.2906344 L272.414502,82.2906344 Z" id="Path" fill="#023852"></path>
            <path d="M243.512085,90.3761329 C242.48176,92.1558106 241.773042,94.1030973 241.418429,96.1287009 C240.994724,98.5997938 240.994724,101.12498 241.418429,103.596073 C242.953776,112.798187 246.512991,122.767976 249.693353,130.434743 C252.873716,138.101511 255.675227,143.475227 255.675227,143.475227 L257.320242,143.475227 L255.545619,116.556798 L253.770997,89.6383686 L248.626586,89.9773414 L243.512085,90.3761329 Z" id="Path" fill="#06233C" opacity="0.6" style="mix-blend-mode: multiply;"></path>
            <path d="M283.490937,80.6655589 L266.083686,80.6655589 C262.868174,81.5978615 259.871628,83.1639296 257.270393,85.2716012 C253.053172,88.7311178 249.244713,94.473716 250.750151,103.685801 C252.255589,112.897885 255.844713,122.857704 259.025076,130.534441 C262.205438,138.211178 265.006949,143.564955 265.006949,143.564955 L284.607553,143.564955 C284.607553,143.564955 287.399094,138.201208 290.589426,130.534441 C293.779758,122.867674 297.329003,112.887915 298.86435,103.685801 C300.399698,94.4836858 296.561329,88.7311178 292.344109,85.2915408 C289.732725,83.1720711 286.722078,81.5989406 283.490937,80.6655589 L283.490937,80.6655589 Z" id="Path" fill="#9DADB7"></path>
        </g>
    </g>
</svg>