<svg id="Layer_1" data-name="Layer 1" xmlns="http://www.w3.org/2000/svg" viewBox="0 0 440 330"><defs><style>.cls-1,.cls-2{fill:#023852;}.cls-1{opacity:0.3;}.cls-3{fill:#000d2e;}.cls-4{fill:#0099da;}.cls-5{fill:#0082ca;}.cls-6{fill:#fff;}</style></defs><metadata><?xpacket begin="﻿" id="W5M0MpCehiHzreSzNTczkc9d"?>
<x:xmpmeta xmlns:x="adobe:ns:meta/" x:xmptk="Adobe XMP Core 5.6-c148 79.163858, 2019/03/06-03:18:36        ">
   <rdf:RDF xmlns:rdf="http://www.w3.org/1999/02/22-rdf-syntax-ns#">
      <rdf:Description rdf:about=""
            xmlns:xmp="http://ns.adobe.com/xap/1.0/"
            xmlns:xmpMM="http://ns.adobe.com/xap/1.0/mm/"
            xmlns:stEvt="http://ns.adobe.com/xap/1.0/sType/ResourceEvent#">
         <xmp:MetadataDate>2019-08-01T15:30:28+02:00</xmp:MetadataDate>
         <xmpMM:InstanceID>xmp.iid:55ad1327-2c78-4f01-a2ec-88e7f6100ab9</xmpMM:InstanceID>
         <xmpMM:DocumentID>xmp.did:55ad1327-2c78-4f01-a2ec-88e7f6100ab9</xmpMM:DocumentID>
         <xmpMM:OriginalDocumentID>xmp.did:55ad1327-2c78-4f01-a2ec-88e7f6100ab9</xmpMM:OriginalDocumentID>
         <xmpMM:History>
            <rdf:Seq>
               <rdf:li>
                  <rdf:Description>
                     <stEvt:action>saved</stEvt:action>
                     <stEvt:instanceID>xmp.iid:55ad1327-2c78-4f01-a2ec-88e7f6100ab9</stEvt:instanceID>
                     <stEvt:when>2019-08-01T15:30:28+02:00</stEvt:when>
                     <stEvt:softwareAgent>Adobe Bridge 2019 (Macintosh)</stEvt:softwareAgent>
                     <stEvt:changed>/metadata</stEvt:changed>
                  </rdf:Description>
               </rdf:li>
            </rdf:Seq>
         </xmpMM:History>
      </rdf:Description>
   </rdf:RDF>
</x:xmpmeta>
                                                                                                    
                                                                                                    
                                                                                                    
                                                                                                    
                                                                                                    
                                                                                                    
                                                                                                    
                                                                                                    
                                                                                                    
                                                                                                    
                                                                                                    
                                                                                                    
                                                                                                    
                                                                                                    
                                                                                                    
                                                                                                    
                                                                                                    
                                                                                                    
                                                                                                    
                                                                                                    
                           
<?xpacket end="w"?></metadata>
<path class="cls-1" d="M398.27,168.62a7,7,0,0,0-2.18-1.48,7,7,0,0,0-2.68-.54H360.36V40.67a11.32,11.32,0,0,0-3.31-8,11.33,11.33,0,0,0-3.6-2.43,11.21,11.21,0,0,0-4.41-.9H41.32a11.38,11.38,0,0,0-10.43,6.93A11.39,11.39,0,0,0,30,40.67V224.48a11.28,11.28,0,0,0,3.32,8,11.11,11.11,0,0,0,3.6,2.43,11.3,11.3,0,0,0,4.4.89H129v49.72l12.41-12.43,12.41-12.43,12.41-12.43,12.41-12.43h45.49V285a6.77,6.77,0,0,0,.54,2.67,6.86,6.86,0,0,0,1.47,2.19,6.76,6.76,0,0,0,2.18,1.47,6.86,6.86,0,0,0,2.68.54H334.37l7.53,7.54,7.52,7.54,7.53,7.54,7.53,7.54V291.84h28.93a6.86,6.86,0,0,0,2.68-.54,6.76,6.76,0,0,0,2.18-1.47,6.86,6.86,0,0,0,1.47-2.19,6.77,6.77,0,0,0,.54-2.67V173.48a6.84,6.84,0,0,0-2-4.86Z"/><path class="cls-2" d="M240.76,157.27H403.13a6.84,6.84,0,0,1,4.86,2,7.09,7.09,0,0,1,1.47,2.19,6.82,6.82,0,0,1,.54,2.68V275.63a6.82,6.82,0,0,1-.54,2.68A7.09,7.09,0,0,1,408,280.5a6.84,6.84,0,0,1-4.86,2H374.2v30.16l-7.53-7.54-7.53-7.54-7.52-7.54-7.53-7.54H240.76a6.77,6.77,0,0,1-2.67-.54,6.86,6.86,0,0,1-2.19-1.47,7.09,7.09,0,0,1-1.47-2.19,6.82,6.82,0,0,1-.54-2.68V164.15a6.82,6.82,0,0,1,.54-2.68,7.09,7.09,0,0,1,1.47-2.19,6.86,6.86,0,0,1,2.19-1.47A6.77,6.77,0,0,1,240.76,157.27Z"/><polygon class="cls-3" points="342.03 225.87 315.06 237.66 288.08 249.45 261.11 261.24 234.13 273.03 234.13 261.29 234.13 249.55 234.13 237.81 234.13 226.08 261.11 226.03 288.08 225.97 315.06 225.92 342.03 225.87"/><path class="cls-4" d="M358.76,20H51A11.33,11.33,0,0,0,39.72,31.34V215.15a11.39,11.39,0,0,0,.89,4.41A11.26,11.26,0,0,0,43,223.17a11.44,11.44,0,0,0,3.6,2.43,11.3,11.3,0,0,0,4.4.89h87.72v49.72l12.41-12.43,12.41-12.43L176,238.92l12.41-12.43H358.76a11.39,11.39,0,0,0,4.41-.89,11.67,11.67,0,0,0,3.6-2.43,11.4,11.4,0,0,0,2.42-3.61,11.21,11.21,0,0,0,.89-4.41V31.34a11.13,11.13,0,0,0-.89-4.41A11.29,11.29,0,0,0,358.76,20Z"/><path class="cls-5" d="M211.91,154.29l-4.39,4.39-4.38,4.39-4.39,4.39-4.39,4.4-9.47-9.49-9.48-9.49-9.47-9.49-9.48-9.49,4.39-4.39,4.38-4.4,4.39-4.39,4.39-4.39,5.09,5.09,5.09,5.1,5.08,5.1,5.09,5.09,13.82-13.83L222,109.05,235.8,95.22l13.81-13.84,4.39,4.4,4.39,4.39,4.38,4.39L267.16,99l-13.81,13.84-13.82,13.83-13.81,13.83Z"/><path class="cls-6" d="M211.55,144.94l-4.39,4.39-4.38,4.4-4.39,4.39L194,162.51,184.53,153l-9.48-9.49L165.58,134l-9.48-9.49,4.39-4.39,4.39-4.39,4.38-4.4,4.39-4.39,5.09,5.1,5.09,5.09,5.09,5.1,5.09,5.1,13.81-13.83L221.63,99.7l13.81-13.83L249.25,72l4.39,4.39L258,80.82l4.38,4.39,4.39,4.4L253,103.44l-13.82,13.83-13.81,13.84Z"/></svg>