<?xml version="1.0" encoding="UTF-8"?>
<svg width="440px" height="330px" viewBox="0 0 440 330" version="1.1" xmlns="http://www.w3.org/2000/svg" xmlns:xlink="http://www.w3.org/1999/xlink">
    <title>Graphic elements / Icons / Rich icons / customizable</title>
    <g id="Graphic-elements-/-Icons-/-Rich-icons-/-customizable" stroke="none" stroke-width="1" fill="none" fill-rule="evenodd">
        <g id="Group-18" transform="translate(59.000000, 0.000000)">
            <polygon id="Fill-1" fill="#50BFEE" points="300 330 306 330 306 0 300 0"></polygon>
            <polygon id="Fill-2" fill="#50BFEE" points="16 330 22 330 22 0 16 0"></polygon>
            <polygon id="Fill-3" fill="#50BFEE" points="229 330 235 330 235 0 229 0"></polygon>
            <polygon id="Fill-4" fill="#50BFEE" points="158 330 164 330 164 0 158 0"></polygon>
            <polygon id="Fill-5" fill="#50BFEE" points="87 330 93 330 93 0 87 0"></polygon>
            <g id="Group-17" transform="translate(0.000000, 32.000000)">
                <path d="M249.967811,219.000555 C249.967811,208.813901 241.725926,200.556338 231.557297,200.556338 C221.389983,200.556338 213.148097,208.813901 213.148097,219.000555 C213.148097,229.187209 221.389983,237.444772 231.557297,237.444772 C241.725926,237.444772 249.967811,229.187209 249.967811,219.000555" id="Fill-6" fill="#FFE700"></path>
                <path d="M179.672846,19.3248835 C179.672846,9.13822938 171.43096,0.880666275 161.263646,0.880666275 C151.096331,0.880666275 142.853131,9.13822938 142.853131,19.3248835 C142.853131,29.5115377 151.096331,37.7691008 161.263646,37.7691008 C171.43096,37.7691008 179.672846,29.5115377 179.672846,19.3248835" id="Fill-8" fill="#023852"></path>
                <path d="M321.668274,50.8975859 C321.668274,40.7109317 313.426389,32.4533686 303.259074,32.4533686 C293.09176,32.4533686 284.84856,40.7109317 284.84856,50.8975859 C284.84856,61.08424 293.09176,69.3418032 303.259074,69.3418032 C313.426389,69.3418032 321.668274,61.08424 321.668274,50.8975859" id="Fill-10" fill="#9DADB7"></path>
                <path d="M36.8197143,133.054216 C36.8197143,122.867562 28.5778286,114.609999 18.4105143,114.609999 C8.2432,114.609999 0,122.867562 0,133.054216 C0,143.24087 8.2432,151.498433 18.4105143,151.498433 C28.5778286,151.498433 36.8197143,143.24087 36.8197143,133.054216" id="Fill-12" fill="#0099DA"></path>
                <path d="M108.932337,234.444476 C108.932337,224.257822 100.690451,216.000259 90.5231371,216.000259 C80.3558229,216.000259 72.1139371,224.257822 72.1139371,234.444476 C72.1139371,244.63113 80.3558229,252.888693 90.5231371,252.888693 C100.690451,252.888693 108.932337,244.63113 108.932337,234.444476" id="Fill-15" fill="#9E9D8E"></path>
            </g>
        </g>
    </g>
</svg>