<?xml version="1.0" encoding="UTF-8"?>
<svg width="440px" height="330px" viewBox="0 0 440 330" version="1.1" xmlns="http://www.w3.org/2000/svg" xmlns:xlink="http://www.w3.org/1999/xlink">
    <!-- Generator: Sketch 59.1 (86144) - https://sketch.com -->
    <title>Graphic elements / Rich icons / Customizable</title>
    <desc>Created with Sketch.</desc>
    <defs>
        <linearGradient x1="35.1540213%" y1="85.4675788%" x2="64.8518535%" y2="14.5375294%" id="linearGradient-1">
            <stop stop-color="#FFFFFF" stop-opacity="0" offset="0%"></stop>
            <stop stop-color="#96A6AE" offset="100%"></stop>
        </linearGradient>
        <linearGradient x1="-32.7523927%" y1="131.872015%" x2="137.349491%" y2="103.117963%" id="linearGradient-2">
            <stop stop-color="#FFFFFF" stop-opacity="0" offset="0%"></stop>
            <stop stop-color="#96A6AE" offset="100%"></stop>
        </linearGradient>
        <linearGradient x1="-43.4427196%" y1="32.184181%" x2="46.1624789%" y2="-39.1133767%" id="linearGradient-3">
            <stop stop-color="#FFFFFF" stop-opacity="0" offset="0%"></stop>
            <stop stop-color="#96A6AE" offset="100%"></stop>
        </linearGradient>
        <linearGradient x1="12.0878008%" y1="53.4635937%" x2="76.2558041%" y2="47.6775202%" id="linearGradient-4">
            <stop stop-color="#FFFFFF" stop-opacity="0" offset="8%"></stop>
            <stop stop-color="#96A6AE" offset="100%"></stop>
        </linearGradient>
    </defs>
    <g id="Graphic-elements-/-Rich-icons-/-Customizable" stroke="none" stroke-width="1" fill="none" fill-rule="evenodd">
        <g id="Group" transform="translate(70.000000, 30.000000)" fill-rule="nonzero">
            <polygon id="Rectangle" fill="#B6C2C7" transform="translate(129.380558, 157.518163) rotate(-45.000000) translate(-129.380558, -157.518163) " points="30.4333296 139.356785 228.327786 139.356785 228.327786 175.67954 30.4333296 175.67954"></polygon>
            <path d="M51.9061797,153.326394 L204.594381,153.326394 C205.246077,153.326394 205.774381,153.854698 205.774381,154.506394 L205.774381,163.542869 C205.774381,164.194565 205.246077,164.722869 204.594381,164.722869 L51.9061797,164.722869 C51.2544837,164.722869 50.7261797,164.194565 50.7261797,163.542869 L50.7261797,154.506394 C50.7261797,153.854698 51.2544837,153.326394 51.9061797,153.326394 Z" id="Rectangle" fill="#96A6AE" transform="translate(128.250280, 159.024632) rotate(-45.000000) translate(-128.250280, -159.024632) "></path>
            <polygon id="Rectangle" fill="url(#linearGradient-1)" style="mix-blend-mode: multiply;" transform="translate(170.829793, 116.020327) rotate(45.000000) translate(-170.829793, -116.020327) " points="152.645959 72.5902133 189.013626 72.5902133 189.013626 159.450441 152.645959 159.450441"></polygon>
            <polygon id="Rectangle" fill="url(#linearGradient-2)" style="mix-blend-mode: multiply;" transform="translate(130.345313, 156.519919) rotate(45.000000) translate(-130.345313, -156.519919) " points="112.161479 145.033619 148.529146 145.033619 148.529146 168.006218 112.161479 168.006218"></polygon>
            <polygon id="Rectangle" fill="url(#linearGradient-3)" style="mix-blend-mode: multiply;" transform="translate(79.109122, 207.835701) rotate(-135.000000) translate(-79.109122, -207.835701) " points="60.9252879 182.780298 97.2929556 182.780298 97.2929556 232.891104 60.9252879 232.891104"></polygon>
            <path d="M245.738331,77.9382571 L220.396612,71.2014245 C218.983016,70.8223342 217.878865,69.7181823 217.499774,68.3045865 L210.762942,42.95164 C210.382685,41.540267 210.785123,40.0332658 211.818379,38.9993649 L246.917276,3.78818678 C247.19391,3.50853265 247.304024,3.10450492 247.20754,2.72316067 C247.111055,2.34181643 246.822043,2.03877237 246.445698,1.92432978 C225.784406,-3.75136423 203.724825,3.3730396 190.286354,20.0616579 C176.847882,36.7502761 174.592274,59.8217835 184.54402,78.7971689 C194.495766,97.7725542 214.757781,109.034569 236.127116,107.46804 C256.831648,106.008393 274.729167,91.9508688 282.364244,72.6610716 C286.030899,63.5481742 286.974784,53.5671779 285.081433,43.9284808 C284.989298,43.5345968 284.692412,43.2207211 284.304259,43.1068319 C283.916106,42.9929427 283.496696,43.0966478 283.206348,43.3783061 L249.701834,76.8715919 C248.66199,77.9025717 247.155164,78.3080913 245.738331,77.9382571 L245.738331,77.9382571 Z" id="Path" fill="#CDD4D8"></path>
            <path d="M38.9063433,209.991402 C23.1731542,209.986862 8.98684205,219.461411 2.96391328,233.996114 C-3.05901548,248.530817 0.267874733,265.262533 11.3929199,276.387579 C22.517965,287.512624 39.2496815,290.839514 53.7843844,284.816585 C68.3190872,278.793656 77.7936364,264.607344 77.7890968,248.874155 C77.7828975,227.402372 60.3781265,209.997601 38.9063433,209.991402 L38.9063433,209.991402 Z M63.4284138,260.046069 C60.1149517,257.832403 55.6758412,258.405461 53.0331747,261.38802 C50.3905082,264.37058 50.3561168,268.846394 52.9526391,271.86921 C50.8549447,273.155948 48.5872838,274.14238 46.2158066,274.799732 C45.6835959,270.940666 42.4403147,268.031436 38.5463113,267.920179 C34.6523078,267.808921 31.2482113,270.528227 30.4965306,274.35061 C28.2304322,273.587991 26.0776607,272.522936 24.0965397,271.184299 C24.9961422,269.860481 25.470135,268.293563 25.4551343,266.693077 C25.4551386,262.276086 21.8777465,258.693669 17.4607596,258.687475 C16.4132201,258.691192 15.3762443,258.897062 14.4067289,259.293789 C13.9456726,258.121163 13.5704164,256.916591 13.2839235,255.689584 C15.8769188,254.336102 17.5155244,251.666339 17.5483874,248.741538 C17.5812503,245.816738 16.0030454,243.110831 13.4411162,241.699428 C13.920332,240.000197 14.5672536,238.352804 15.3723415,236.781541 C18.2623974,237.608279 21.3716089,236.734141 23.4074452,234.522515 C25.4432815,232.310889 26.0575078,229.140079 24.994784,226.328222 C26.8178854,225.169985 28.7794912,224.245767 30.8333723,223.577349 C31.9461488,226.891408 35.0908332,229.091689 38.5855596,229.00142 C42.080286,228.91115 45.107185,226.551455 46.0473858,223.184367 C48.1051384,223.73136 50.0912377,224.519016 51.9645704,225.53103 C51.3888562,226.637641 51.0848054,227.86539 51.0775541,229.11278 C51.0775541,231.235997 51.9209991,233.272254 53.4223408,234.773596 C54.9236826,236.274937 56.9599389,237.118382 59.0831568,237.118382 C60.3173212,237.112764 61.532817,236.816583 62.6312219,236.253822 C63.4989539,237.850126 64.1988353,239.532099 64.71964,241.272762 C61.713828,242.528591 59.7706467,245.482655 59.8076626,248.740053 C59.8446784,251.997451 61.8544871,254.906595 64.8880608,256.093794 C64.508251,257.440942 64.0201107,258.755166 63.4284138,260.023613 L63.4284138,260.046069 Z" id="Shape" fill="#CDD4D8"></path>
            <path d="M73.2978735,63.835821 L75.1055902,62.0281042 C75.5867616,61.5429765 75.7245577,60.8139905 75.4536599,60.1867033 L69.469107,46.2751441 L26.4993433,3.03590715 C26.187392,2.72186955 25.7630411,2.54526863 25.3203976,2.54526863 C24.8777541,2.54526863 24.4534032,2.72186955 24.1414519,3.03590715 L1.90990449,25.2562265 C1.59586689,25.5681778 1.41926597,25.9925288 1.41926597,26.4351722 C1.41926597,26.8778157 1.59586689,27.3021666 1.90990449,27.6141179 L45.0256328,70.7635304 L58.6901749,76.9277322 C59.3268958,77.2257676 60.0822714,77.0908791 60.576488,76.5908906 L62.2494681,74.9179105 L166.737741,179.406183 L177.774918,168.357778 L73.2978735,63.835821 Z" id="Path" fill="#CDD4D8"></path>
            <polygon id="Rectangle" fill="url(#linearGradient-4)" style="mix-blend-mode: multiply;" transform="translate(141.596178, 145.364001) rotate(45.000000) translate(-141.596178, -145.364001) " points="101.697287 139.036992 181.495068 139.036992 181.495068 151.691009 101.697287 151.691009"></polygon>
            <path d="M200.421904,180.641269 C198.045828,180.659225 195.760898,179.727894 194.074399,178.054043 C192.387899,176.380192 191.439393,174.102338 191.43946,171.726194 C191.454137,170.881107 191.5864,170.042177 191.832442,169.233566 L167.961599,193.149322 C168.77021,192.90328 169.609139,192.771016 170.454227,192.75634 C173.714302,192.756865 176.714116,194.53682 178.276849,197.397931 C179.839582,200.259042 179.715993,203.744992 177.954567,206.48825 C178.167551,206.370593 178.370358,206.235388 178.560882,206.08404 L205.631721,179.013202 C205.631721,179.013202 205.699089,178.889693 205.744001,178.833553 C204.214004,179.999318 202.345403,180.634011 200.421904,180.641269 Z" id="Path" fill="#003A5D"></path>
            <path d="M174.027336,211.267019 L293.606114,211.267019 C296.861682,211.267019 299.500842,213.906179 299.500842,217.161748 L299.500842,256.235376 C299.500842,259.490945 296.861682,262.130105 293.606114,262.130105 L174.027336,262.130105 C173.2522,262.130105 172.623829,261.501734 172.623829,260.726598 L172.623829,212.670526 C172.623829,211.895391 173.2522,211.267019 174.027336,211.267019 Z" id="Path" fill="#023852" transform="translate(236.062335, 236.698562) rotate(45.000000) translate(-236.062335, -236.698562) "></path>
            <path d="M170.486881,148.424085 L181.782301,148.424085 C182.312494,148.424085 182.742301,148.853891 182.742301,149.384085 L182.742301,203.548216 C182.742301,204.078409 182.312494,204.508216 181.782301,204.508216 L170.486881,204.508216 C169.956687,204.508216 169.526881,204.078409 169.526881,203.548216 L169.526881,149.384085 C169.526881,148.853891 169.956687,148.424085 170.486881,148.424085 Z" id="Rectangle" fill="#023852" transform="translate(176.134591, 176.466150) rotate(45.000000) translate(-176.134591, -176.466150) "></path>
        </g>
    </g>
</svg>