<?xml version="1.0" encoding="UTF-8"?>
<svg width="440px" height="330px" viewBox="0 0 440 330" version="1.1" xmlns="http://www.w3.org/2000/svg" xmlns:xlink="http://www.w3.org/1999/xlink">
    <title>Graphic elements / Icons / Rich icons / cyber-security</title>
    <defs>
        <linearGradient x1="0.010739985%" y1="50.0597522%" x2="100%" y2="50.0597522%" id="linearGradient-1">
            <stop stop-color="#FFFFFF" stop-opacity="0" offset="0%"></stop>
            <stop stop-color="#1999D6" offset="100%"></stop>
        </linearGradient>
        <linearGradient x1="-0.259347838%" y1="49.9946814%" x2="100.319474%" y2="49.9946814%" id="linearGradient-2">
            <stop stop-color="#FFFFFF" offset="0%"></stop>
            <stop stop-color="#989993" offset="100%"></stop>
        </linearGradient>
        <linearGradient x1="0%" y1="50.0038751%" x2="100.117543%" y2="50.0038751%" id="linearGradient-3">
            <stop stop-color="#FFFFFF" stop-opacity="0" offset="0%"></stop>
            <stop stop-color="#1999D6" offset="100%"></stop>
        </linearGradient>
        <linearGradient x1="50.1025462%" y1="100.208706%" x2="50.1025462%" y2="-1.75909362%" id="linearGradient-4">
            <stop stop-color="#EFF1F2" offset="0%"></stop>
            <stop stop-color="#FFFFFF" stop-opacity="0" offset="0%"></stop>
            <stop stop-color="#41697D" offset="100%"></stop>
            <stop stop-color="#FFFFFF" stop-opacity="0.4" offset="100%"></stop>
        </linearGradient>
        <linearGradient x1="-0.155002303%" y1="-148.676796%" x2="100.351566%" y2="-148.676796%" id="linearGradient-5">
            <stop stop-color="#EFF1F2" offset="0%"></stop>
            <stop stop-color="#FFFFFF" stop-opacity="0" offset="0%"></stop>
            <stop stop-color="#41697D" offset="100%"></stop>
            <stop stop-color="#FFFFFF" stop-opacity="0.4" offset="100%"></stop>
        </linearGradient>
        <linearGradient x1="-0.159829515%" y1="49.9569995%" x2="99.8401705%" y2="49.9569995%" id="linearGradient-6">
            <stop stop-color="#FFFFFF" offset="0%"></stop>
            <stop stop-color="#0B3B5C" offset="100%"></stop>
        </linearGradient>
        <linearGradient x1="-0.181818182%" y1="-561.616836%" x2="99.8181818%" y2="-561.616836%" id="linearGradient-7">
            <stop stop-color="#FFFFFF" offset="0%"></stop>
            <stop stop-color="#0B3B5C" offset="100%"></stop>
        </linearGradient>
        <linearGradient x1="-0.528168136%" y1="-744.74687%" x2="99.8798947%" y2="-744.74687%" id="linearGradient-8">
            <stop stop-color="#FFFFFF" offset="0%"></stop>
            <stop stop-color="#0B3B5C" offset="100%"></stop>
        </linearGradient>
    </defs>
    <g id="Graphic-elements-/-Icons-/-Rich-icons-/-cyber-security" stroke="none" stroke-width="1" fill="none" fill-rule="evenodd">
        <g id="Asset-219" transform="translate(0.000000, 85.000000)">
            <ellipse id="Oval" fill="#A5B1B9" fill-rule="nonzero" opacity="0.300000012" cx="217.494305" cy="243.553531" rx="217.494305" ry="1.0022779"></ellipse>
            <path d="M310.231796,230.032351 L310.231796,199.453303 L254.818501,199.453303 L254.818501,230.032351 C254.792695,230.556505 254.699566,231.075101 254.541434,231.575232 C254.270265,232.673017 253.913961,233.747752 253.475794,234.789568 C252.782748,236.044992 251.835189,237.140073 250.694473,238.003904 C249.159905,238.990536 247.379519,239.521619 245.558087,239.53607 L319.726651,239.53607 C316.346383,239.685148 313.193308,237.827447 311.670411,234.789568 C311.097625,233.799371 310.71787,232.708446 310.551488,231.575232 C310.312489,231.097924 310.202253,230.565911 310.231796,230.032351 Z" id="Path" fill="#A5B1B9" fill-rule="nonzero"></path>
            <polygon id="Path" fill="#9FACB3" fill-rule="nonzero" style="mix-blend-mode: multiply;" points="254.578588 209.476082 268.357265 209.476082 282.146517 209.476082 295.925195 209.476082 309.703872 209.476082 309.703872 213.948792 309.703872 218.421502 309.703872 222.904937 309.703872 227.517084 295.925195 227.517084 282.146517 227.517084 268.357265 227.517084 254.578588 227.517084 254.578588 222.904937 254.578588 218.421502 254.578588 213.948792"></polygon>
            <path d="M435.69812,210.461793 L128.619399,210.461793 C128.056883,210.438759 127.499785,210.342067 126.96227,210.174178 C126.445445,209.935164 125.97445,209.607065 125.570707,209.204807 C125.172067,208.801882 124.845129,208.333516 124.604048,207.819991 C124.313563,207.318165 124.215376,206.727388 124.32786,206.158212 L124.32786,17.4717466 C124.340924,16.9074938 124.433917,16.3479691 124.604048,15.8099678 C124.845129,15.2964424 125.172067,14.828077 125.570707,14.4251521 C125.973879,14.0194301 126.444863,13.6877342 126.96227,13.4451287 C127.474447,13.1780659 128.042153,13.0357411 128.619399,13.0296128 L435.69812,13.0296128 C436.837944,13.0230816 437.932619,13.4759981 438.736189,14.2866705 C439.138135,14.6891644 439.468639,15.1574917 439.71347,15.6714862 C439.938491,16.1947747 440.033276,16.7650778 439.989658,17.333265 L439.989658,205.881249 C439.977457,206.449068 439.884455,207.01223 439.71347,207.55368 C439.306306,208.645044 438.445385,209.504492 437.355248,209.907867 C436.916112,210.336431 436.305848,210.540423 435.69812,210.461793 L435.69812,210.461793 Z" id="Path" fill="#023852" fill-rule="nonzero"></path>
            <polygon id="Path" fill="#0099DA" fill-rule="nonzero" points="134.305239 192.437358 208.476458 192.437358 282.647678 192.437358 356.818897 192.437358 430.979499 192.437358 430.979499 150.125711 430.979499 107.675686 430.979499 65.3640388 430.979499 23.0523918 356.818897 23.0523918 282.647678 23.0523918 208.476458 23.0523918 134.305239 23.0523918 134.305239 65.3640388 134.305239 107.675686 134.305239 150.125711"></polygon>
            <path d="M331.177267,239.547289 L234.02164,239.547289 C232.200916,239.561565 230.562129,240.753544 229.851735,242.580291 C229.547812,243.182345 229.449568,243.882293 229.574452,244.555809 L335.763098,244.555809 C335.759506,243.871982 335.617488,243.197443 335.347174,242.580291 C335.105137,242.020088 334.776903,241.50915 334.376684,241.0696 C333.577628,240.059198 332.400537,239.499127 331.177267,239.547289 L331.177267,239.547289 Z" id="Path" fill="#D3D8DC" fill-rule="nonzero"></path>
            <polygon id="Path" fill="url(#linearGradient-1)" fill-rule="nonzero" points="134.305239 23.0523918 145.382863 33.7062044 156.449865 44.3600169 167.527488 55.0138295 178.605112 65.667642 211.413145 97.3201191 244.072485 129.12175 276.880518 160.784881 309.688551 192.437358 430.979499 192.437358 430.979499 23.0523918"></polygon>
            <path d="M287.653759,201.481896 C287.637,199.448678 286.406316,197.624207 284.531978,196.8539 C283.935026,196.589662 283.290483,196.451002 282.638098,196.446469 C280.649231,196.453361 278.847447,197.625257 278.028269,199.444742 C277.237689,201.323132 277.648391,203.494448 279.069798,204.951139 C280.491205,206.40783 282.645085,206.864757 284.531978,206.109893 L284.531978,206.109893 C285.10518,205.808978 285.651742,205.459477 286.16571,205.065198 C287.092056,204.117478 287.62413,202.851157 287.653759,201.523684 L287.653759,201.481896 Z" id="Path" fill="#023852" fill-rule="nonzero"></path>
            <path d="M338.890205,21.4738494 L339.715435,19.5514488 L340.551244,17.6184854 L341.376474,15.6960847 L342.201703,13.7631214 C342.512148,13.1782714 342.991282,12.6999174 343.577086,12.3899781 C343.714624,12.2526637 343.989701,12.2526637 344.137819,12.1153494 L346.888584,11.2914634 L349.649929,10.4675774 L352.411274,9.63312872 L355.162039,8.80924271 C355.299578,8.80924271 355.437116,8.67192838 355.574654,8.67192838 C355.712192,8.67192838 355.849731,8.53461404 355.987269,8.39729971 C356.124807,8.25998537 356.262345,8.25998537 356.399884,8.12267104 L356.68554,7.84804237 L358.060923,6.18970771 L359.436305,4.54193569 L360.822268,2.89416367 L362.19765,1.23582901 L362.747803,0.686571674 C362.957566,0.519194915 363.188856,0.38064677 363.435495,0.27462867 C363.710571,0.137314335 363.848109,0.137314335 364.123186,0 L364.821457,0 L370.333567,0.411943005 L375.845678,0.823886009 L381.368368,1.23582901 L386.880478,1.64777202 L387.018016,1.64777202 L395.566548,1.78508635 L404.11508,1.92240069 L412.663611,2.05971502 L421.212143,2.207592 C421.450344,2.17397468 421.692908,2.22240848 421.899835,2.34490633 C422.174911,2.34490633 422.312449,2.48222067 422.587526,2.619535 C422.799114,2.7197688 422.989467,2.85961234 423.148259,3.03147801 C423.285797,3.16879234 423.423335,3.44342101 423.698412,3.58073535 L425.623947,6.33758468 L427.560063,9.08387138 L429.485599,11.8407207 L431.421714,14.5975701 L431.834329,15.4214561 C431.957047,15.7261206 432.004232,16.0558733 431.971867,16.3826564 C431.984958,16.7087413 431.938348,17.0344747 431.834329,17.3438568 L431.421714,18.1677428 L426.131781,25.5615916 L420.799528,32.7441875 L415.562495,40.1380363 L410.272562,47.4262587 L410.135023,47.71145 L409.859947,47.9860787 L409.58487,48.2607074 L409.309794,48.3980217 L404.89799,51.0069941 L400.486186,53.6265291 L396.074381,56.1087497 L391.662577,58.7177221 C390.908831,59.1525897 390.007043,59.2521996 389.176309,58.9923508 C388.787786,58.8883817 388.426706,58.7009254 388.118322,58.4430934 C387.809889,58.1528106 387.533256,57.830598 387.293093,57.4818931 L382.468674,47.9755161 L377.644255,38.6064534 L372.809256,29.1000763 L367.984837,19.5936993 C367.850594,19.2893524 367.664446,19.0105844 367.434684,18.7698133 C367.244098,18.5403355 367.010506,18.3501779 366.746993,18.2099933 C366.496032,18.0578104 366.213991,17.9639498 365.921763,17.9353647 L364.958995,17.9353647 L360.727049,18.484622 L356.442203,19.044442 L352.210257,19.5936993 L347.97831,20.1429567 C347.703234,20.1429567 347.565696,20.280271 347.428157,20.280271 C347.290619,20.280271 347.015543,20.4175853 346.878004,20.5548997 C346.740466,20.692214 346.465389,20.8295283 346.327851,20.9668427 C346.15789,21.1232539 346.018047,21.3094082 345.915236,21.5161 L345.64016,21.928043 L345.365083,22.339986 L345.090007,22.7624917 L344.81493,23.1744347 L343.979121,23.9983207 C343.313368,24.3879371 342.549585,24.5785719 341.778509,24.547578 C341.38664,24.5472741 341.009128,24.4002844 340.720522,24.135635 L340.720522,24.135635 C340.385408,23.9855603 340.096768,23.7484587 339.884713,23.4490633 C339.648158,23.1581569 339.46219,22.8296723 339.33456,22.4773003 C339.226412,22.1361245 339.179842,21.7784782 339.197021,21.4210362 C338.615129,22.2977354 338.752667,21.8857924 338.890205,21.4738494 Z" id="Path" fill="#B1B2AE" fill-rule="nonzero"></path>
            <path d="M395.866255,14.8941896 C394.16541,12.486258 391.474023,10.9948022 388.555069,10.8426308 L355.321447,9.02050114 L355.321447,9.02050114 L352.570494,9.85653708 L349.808961,10.7032914 L347.460071,11.3999881 L347.047428,11.5393274 L344.296476,12.3753633 C344.078136,12.3799613 343.872929,12.4819402 343.735705,12.654042 C343.598157,12.7933813 343.323062,12.9327206 343.185514,13.0720599 L342.772871,13.4900779 C342.628708,13.644165 342.532963,13.8381505 342.497776,14.0474352 L341.67249,16.0089041 L340.847204,17.9596547 L340.021919,19.9211236 L339.048505,21.7325348 C338.89156,22.0881534 338.798407,22.469251 338.773409,22.8579678 C338.756229,23.220681 338.802802,23.5836015 338.910957,23.9298088 C339.010029,24.2968155 339.199321,24.6323919 339.461148,24.905184 C339.704368,25.1778622 339.986033,25.4126306 340.297014,25.6018807 C340.641177,25.7624199 340.994491,25.9020074 341.355073,26.0198986 C341.696092,26.1498632 342.072112,26.1498632 342.413131,26.0198986 C342.825774,25.8805593 343.100869,25.74122 343.47119,25.6018807 L344.307056,24.7658447 L344.582152,24.3478268 L344.857247,23.9298088 L345.132342,23.5117908 L345.407437,23.0937728 C345.579595,22.932902 345.719676,22.7400556 345.82008,22.5256971 C346.03232,22.3572599 346.277615,22.2366693 346.53956,22.1719896 C346.677108,22.0326503 346.952203,22.0326503 347.089751,21.893311 C347.251141,21.7824841 347.446054,21.7331212 347.639941,21.7539716 L351.872176,21.1966144 L356.10441,20.6392571 L360.336645,20.0818998 L362.452762,19.8032211 L364.664105,19.5245425 L365.626938,19.5245425 C365.919186,19.5535491 366.201246,19.6487939 366.452224,19.8032211 C366.735576,19.9076251 366.977215,20.103454 367.139962,20.3605784 C367.36974,20.6049002 367.555901,20.8877792 367.690153,21.1966144 L368.652986,23.1580833 L372.5149,30.66097 L377.350228,40.3075385 L382.174976,49.9541071 L386.999723,59.4506179 C387.152913,59.8640136 387.445159,60.2094087 387.825009,60.4259932 C388.130191,60.6947971 388.492151,60.8891351 388.883068,60.9940689 C389.288979,61.109034 389.710695,61.1560994 390.131577,61.1334082 C390.576219,61.1227228 391.007463,60.9771024 391.369505,60.7153903 L395.78161,58.0572247 L400.193715,55.5383985 L404.732786,52.8909513 L409.144891,50.2327857 L409.419986,50.0934464 L409.695081,49.8147678 L409.970177,49.5360891 L410.107724,49.2574105 L412.594162,45.6238696 L414.943052,42.2690075 L395.866255,14.8941896 Z" id="Path" fill="url(#linearGradient-2)" fill-rule="nonzero" style="mix-blend-mode: multiply;"></path>
            <polygon id="Path" fill="#FFFFFF" fill-rule="nonzero" points="210.945886 23.047836 133.302961 23.047836 133.302961 192.432802 249.210863 192.432802 282.642369 69.5080155 274.76678 52.0867744"></polygon>
            <path d="M155.353075,210.47836 L124.28246,210.47836 L124.28246,60.1366743 L144.328018,60.1366743 C150.393999,60.1599806 155.304071,65.1032093 155.321424,71.2043181 L155.321424,210.47836 L155.353075,210.47836 Z" id="Path" fill="#EBEDEF" fill-rule="nonzero" style="mix-blend-mode: multiply;"></path>
            <path d="M141.321185,81.1940426 C141.326809,78.7992447 140.381018,76.5007457 138.692747,74.8063643 C137.004475,73.111983 134.712677,72.161178 132.323692,72.1640091 L25.0339391,72.1640091 C22.6449539,72.161178 20.3531564,73.111983 18.6648845,74.8063643 C16.9766126,76.5007457 16.0308223,78.7992447 16.0364465,81.1940426 L16.0364465,234.534127 C16.0308129,236.927949 16.9769403,239.225361 18.665521,240.918054 C20.3541017,242.610747 22.6459321,243.559178 25.0339391,243.553531 L132.323692,243.553531 C134.711699,243.559178 137.003529,242.610747 138.69211,240.918054 C140.380691,239.225361 141.326818,236.927949 141.321185,234.534127 L141.321185,81.1940426 Z" id="Path" fill="#023852" fill-rule="nonzero"></path>
            <path d="M84.191344,234.031891 C84.191344,230.987405 81.7233009,228.519362 78.6788155,228.519362 C75.6343301,228.519362 73.166287,230.987405 73.166287,234.031891 C73.166287,237.076376 75.6343301,239.544419 78.6788155,239.544419 C81.6950374,239.477243 84.1241677,237.048113 84.191344,234.031891 L84.191344,234.031891 Z" id="Path" fill="#023852" fill-rule="nonzero"></path>
            <polygon id="Path" fill="#0099DA" fill-rule="nonzero" points="132.300683 223.507973 78.2464478 223.507973 24.0546697 223.507973 24.0546697 151.770443 24.0546697 80.1822323 78.2464478 80.1822323 132.300683 80.1822323 132.300683 151.770443"></polygon>
            <path d="M133.133313,81.1845103 L25.0569476,81.1845103 L25.0569476,110.311314 C34.4512045,119.888998 56.8659437,142.492334 79.2276679,164.957326 C101.589392,187.422317 123.866292,209.653188 133.302961,218.496583 L133.302961,149.845868 L133.133313,81.1845103 Z" id="Path" fill="url(#linearGradient-3)" fill-rule="nonzero"></path>
            <path d="M307.699317,61.1603353 L307.293652,60.8882689 L306.887988,60.6162026 L306.471921,60.3336721 L306.066257,60.0616058 C305.931035,59.9255726 305.795814,59.9255726 305.795814,59.7895394 C305.795814,59.6535062 305.660593,59.5174731 305.525371,59.5174731 C305.421743,59.4087235 305.372107,59.2589234 305.39015,59.1093735 C305.39015,58.9733404 305.254928,58.8373072 305.254928,58.701274 L305.119707,56.3782459 L304.984485,54.0656818 L304.849264,51.7426537 L304.984485,49.4300896 C305.005531,49.1949946 304.958572,48.9587914 304.849264,48.7499237 C304.714042,48.6138906 304.714042,48.3418242 304.578821,48.1953269 C304.424793,48.0272261 304.241476,47.888913 304.037935,47.7872274 C303.879273,47.6790301 303.687657,47.6308385 303.497049,47.6511942 L301.728767,47.515161 L299.970888,47.3791279 L298.202607,47.2430947 L296.444727,47.1070615 L295.903841,47.1070615 C295.76862,47.1070615 295.633398,47.2430947 295.362955,47.2430947 C295.092512,47.2430947 295.092512,47.3791279 294.957291,47.515161 C294.822069,47.6511942 294.686848,47.7872274 294.686848,47.9232606 L293.459453,50.3823219 L292.242459,52.8413832 L291.025466,55.2899804 L289.798071,57.7490417 C289.690519,57.9086556 289.642615,58.1014223 289.662849,58.2931745 L289.662849,58.8373072 C289.662849,58.9733404 289.798071,59.2454067 289.798071,59.3814399 L290.214137,59.7895394 L293.18901,62.3846339 L296.174284,64.9797284 L299.159559,67.5643588 L302.280055,70.1594533 L303.642672,67.8364252 C304.042675,67.0366629 304.494383,66.2641507 304.994887,65.5238611 C305.495507,64.7800167 305.94721,64.0040164 306.347102,63.200833 C306.722358,62.4729961 307.175805,61.7887422 307.699317,61.1603353 Z" id="Path" fill="#42ACDE" fill-rule="nonzero"></path>
            <path d="M340.678667,23.6594364 L338.557655,19.2216557 L336.436642,14.645527 L334.31563,10.1971041 L332.247643,5.62097532 C332.042129,5.13054387 331.804773,4.65417104 331.537103,4.19492589 C331.1814,3.77327099 330.758543,3.41366381 330.285706,3.1307099 C329.844966,2.82370136 329.384401,2.54639537 328.907048,2.30062142 C328.398283,2.02584021 327.830411,1.87972274 327.252658,1.87493502 L326.139127,1.73658694 L325.078621,1.59823886 L324.018114,1.45989078 L322.703087,1.0022779 L321.186563,1.0022779 C320.671125,1.0271545 320.161214,1.12018991 319.670039,1.27897406 C319.185217,1.40288528 318.718297,1.58887615 318.280776,1.83236638 L317.039983,2.67309702 L315.799191,3.73731301 L314.547794,4.80152901 L313.307002,6.04666172 L312.066209,7.11087772 C311.618852,7.54038266 311.2041,8.00283023 310.825417,8.49435851 L309.987617,10.1545355 C309.82945,10.7455309 309.736976,11.3522831 309.711886,11.9637027 C309.683683,12.5666234 309.729991,13.1707285 309.849751,13.7622277 L310.263349,15.5713949 L310.687551,17.3699199 L311.101149,19.3174352 L311.652612,21.2543083 C311.733457,21.6287849 311.873062,21.9879988 312.066209,22.3185243 C312.162969,22.6870833 312.352921,23.0243277 312.617673,23.297603 C312.801126,23.6512139 313.033169,23.9772113 313.307002,24.2660396 L314.134196,25.096128 L317.591447,27.7353837 L321.048697,30.3639972 L324.505947,33.0032529 L327.963197,35.6425086 C329.468703,36.76797 331.350393,37.2638799 333.212703,37.0259894 C334.135784,36.847939 335.023993,36.5208837 335.842759,36.0575528 C336.607734,35.5853339 337.30069,35.0046559 337.900141,34.3335229 L338.58947,33.3650863 L339.278799,32.3966498 L339.978733,31.4282132 L340.668062,30.4491345 C340.943794,29.8957422 341.219525,29.4806979 341.495257,28.9273056 C341.653855,28.3871673 341.746444,27.8296874 341.770988,27.2671287 C341.794103,26.7066099 341.747794,26.1453794 341.633123,25.5963096 L340.678667,23.6594364 Z" id="Path" fill="#023852" fill-rule="nonzero"></path>
            <path d="M318.875699,24.8848212 L318.032815,24.0457048 C317.722184,23.7767882 317.481245,23.4372904 317.330412,23.0559778 C317.097105,22.7677792 316.911098,22.4446287 316.779295,22.0985245 C316.638815,21.6789663 316.498334,21.3992608 316.357853,21.0227342 L315.925605,19.1938908 L315.504163,17.2359526 L315.082721,15.4178671 L314.618054,13.3846235 C314.501529,12.7859393 314.454393,12.1759209 314.477574,11.566538 C314.501512,10.9483131 314.595768,10.3347819 314.758535,9.73769463 C314.940288,9.14423209 315.23772,8.59223765 315.633838,8.11325137 C315.943336,7.55139191 316.379885,7.06891409 316.90897,6.70396616 L318.173296,5.62817592 L319.437622,4.55238569 L320.712754,3.47659545 L321.97708,2.40080521 L322.539003,1.98124702 C322.679483,1.84139429 322.960445,1.70154156 323.100925,1.56168883 C323.293559,1.38724501 323.542989,1.28791879 323.803328,1.28198337 C324.08429,1.14213064 324.22477,1.14213064 324.505732,1.0022779 L321.26387,1.0022779 C320.735117,1.02735623 320.211954,1.12139399 319.707777,1.28198337 C319.21722,1.40731798 318.745027,1.59535106 318.30297,1.84139429 L317.038644,2.68051067 L316.044473,3.75630091 L314.639667,4.83209115 L313.375341,5.90788139 L312.111015,6.98367162 C311.648687,7.41475742 311.222244,7.88246681 310.835883,8.38219893 L309.992999,10.0604317 C309.831041,10.6576891 309.7368,11.2711287 309.712038,11.8892751 C309.6833,12.4987531 309.730486,13.1094284 309.852518,13.7073606 L310.27396,15.536204 L310.695402,17.3542895 L311.116844,19.3122277 L311.538286,21.1410711 C311.62008,21.5214655 311.766246,21.885246 311.970534,22.2168614 C312.071718,22.5852203 312.265047,22.9220332 312.532457,23.1958305 C312.718524,23.5570725 312.955002,23.8902848 313.23486,24.1855575 L314.077744,25.0246739 L317.600567,27.6818758 L321.101777,30.3498356 L324.6246,33.0177954 L328.136617,35.6749972 C328.599812,36.0843107 329.124964,36.4183244 329.69271,36.6647243 C330.213739,36.9344313 330.791256,37.0781654 331.378478,37.0842825 L333.075052,37.0842825 C333.662274,37.0781654 334.239792,36.9344313 334.76082,36.6647243 L334.198897,36.5248715 L333.636975,36.2344082 C333.496494,36.0945554 333.356013,36.0945554 333.075052,35.9547027 C332.794091,35.81485 332.783285,35.81485 332.642804,35.6749972 L329.130787,33.0177954 L325.748445,30.0701301 L322.225623,27.4021703 L318.875699,24.8848212 Z" id="Path" fill="url(#linearGradient-4)" fill-rule="nonzero"></path>
            <path d="M311.569624,43.2349435 L304.930367,46.2593405 L298.301715,49.2837375 L291.662458,52.3081345 L285.0232,55.3219935 L282.679309,54.6370255 L280.324812,53.9520576 L277.980921,53.2670896 L275.626424,52.5821216 L277.567293,56.9764546 L279.635432,61.3707875 L281.576301,65.7651204 L283.506565,70.1594533 L284.567149,67.9570179 L285.680763,65.7651204 L286.741347,63.5626849 L287.801931,61.3707875 L294.579064,58.3463905 L301.334986,55.3219935 L307.974244,52.1606029 L314.613501,49.1467439 C314.821038,49.0443404 315.007954,48.9050508 315.165005,48.7357631 C315.333066,48.5268308 315.472181,48.2964566 315.578633,48.0507951 C315.678078,47.8326648 315.725272,47.5945968 315.716509,47.3552892 C315.68413,47.1244741 315.638091,46.8957551 315.578633,46.6703212 L315.302881,46.1223469 L315.027129,45.5743725 L314.751377,45.0263981 L314.475625,44.4784238 C314.369192,44.2714864 314.225393,44.0857438 314.051392,43.9304494 C313.913516,43.7829178 313.637764,43.6459243 313.499888,43.5089307 C313.288191,43.3981896 313.048788,43.3506154 312.810508,43.3719371 C311.983252,42.9609563 311.845376,43.0979499 311.569624,43.2349435 Z" id="Path" fill="#023852" fill-rule="nonzero"></path>
            <path d="M292.385711,49.5656346 L292.385711,49.5656346 C292.118821,49.72702 291.915554,49.9666369 291.807185,50.2476187 C291.614765,50.7781172 291.614765,51.3538821 291.807185,51.8843806 C291.916559,52.1333032 292.062631,52.3664266 292.241079,52.5768567 L293.843152,54.2136186 L295.434099,55.8503805 L297.025046,57.4976345 L298.627118,59.1343964 L299.639539,58.4524122 L300.65196,57.7704281 L301.664381,57.088444 L302.687927,56.4064599 L300.941223,54.7592059 L299.205644,53.122444 L297.45894,51.4751901 L295.723362,49.8384282 C295.552233,49.5867337 295.29815,49.3950401 295.000204,49.2928409 C294.72694,49.1817132 294.429125,49.1349034 294.132415,49.1564441 C293.514366,49.0279065 292.868138,49.1792948 292.385711,49.5656346 L292.385711,49.5656346 Z" id="Path" fill="#42ACDE" fill-rule="nonzero"></path>
            <path d="M294.154556,53.7144568 C294.179881,53.3848938 294.267062,53.0638829 294.411059,52.7699903 C294.536238,52.4709419 294.709817,52.1970271 294.924065,51.9604477 C295.154033,51.7368941 295.417325,51.5545716 295.703439,51.4207525 C295.987995,51.3003668 296.295984,51.2540794 296.601199,51.2858287 C296.914464,51.3124704 297.2196,51.4041878 297.498959,51.5556763 L297.676538,51.5556763 L296.265772,49.9262122 C296.085311,49.7064407 295.867936,49.5234939 295.624515,49.386517 C295.368012,49.2515932 295.101644,49.2515932 294.845141,49.1166695 C294.582034,49.0953614 294.317948,49.1416657 294.075632,49.2515932 L293.306124,49.6563646 C293.066727,49.8174644 292.885983,50.0588065 292.793118,50.3413623 C292.622491,50.8661315 292.622491,51.4356784 292.793118,51.9604477 C292.892139,52.2023975 293.021543,52.429291 293.177872,52.6350666 L294.460387,54.1192282 C294.154556,54.1607432 294.154556,53.8493806 294.154556,53.7144568 Z" id="Path" fill="#7CC5E8" fill-rule="nonzero"></path>
            <path d="M431.843153,176.761952 C431.843153,176.484878 431.693865,176.346342 431.555241,176.069268 L429.614503,173.991218 L427.812389,171.859885 L425.860987,169.781835 L424.058873,167.650501 L423.920249,167.650501 L413.630071,160.286745 L403.350556,152.933644 L393.060378,145.569887 L382.791527,138.334011 L382.375655,137.9184 C382.23703,137.779864 382.23703,137.641327 382.098406,137.364254 C381.969109,137.020782 381.969109,136.642058 382.098406,136.298587 L386.363765,125.64192 L390.629124,115.230356 L394.894483,104.808136 L399.159841,94.3965725 L399.298465,94.1194992 L399.298465,93.2776225 L398.46672,89.0149557 L397.624312,84.7522889 L396.792567,80.4896221 L395.960822,76.2269553 L395.960822,75.4170486 L388.869663,61.5633815 L381.789168,47.7097144 L374.698009,33.8560473 L367.60685,20.0023802 C367.468226,19.8638435 367.468226,19.7253069 367.329602,19.5867702 C367.190977,19.4482335 367.052353,19.3096969 366.913729,19.3096969 C366.775105,19.3096969 366.796432,19.0432802 366.50852,19.0432802 L365.954023,19.0432802 L360.110482,19.3203535 L354.416228,19.8745002 L348.860598,20.4286469 L343.155681,20.9827936 C343.003283,20.964309 342.850629,21.0151613 342.739808,21.1213302 L342.323936,21.2598669 C342.068131,21.4237843 341.873307,21.6671604 341.769439,21.9525503 L338.293172,28.2080138 L334.806241,34.442164 L331.329974,40.6976275 L327.86437,46.9424344 L327.725746,47.080971 L327.587122,47.2195077 L327.587122,47.4965811 L327.448497,49.8623611 L327.341863,52.2281412 L327.192576,54.5832646 L327.053952,56.9490447 L327.053952,57.4072814 L326.915328,57.545818 L325.848988,60.0394781 L324.462746,62.5437949 L323.396407,65.0481116 L322.010165,67.499145 C321.906543,67.7076767 321.765595,67.8954882 321.594293,68.0532917 C321.382873,68.2221584 321.149757,68.3619399 320.901172,68.4689017 L320.208051,68.4689017 C319.951152,68.4630221 319.705018,68.3646306 319.51493,68.1918284 L316.177287,66.060495 L312.839644,63.9291616 L309.502,61.7978282 L306.164357,59.6664948 C305.62395,60.4065626 305.159524,61.1991582 304.778116,62.0322748 C304.362243,62.8634949 303.807747,63.5561782 303.391874,64.3873982 C302.976002,65.2186183 302.421505,65.9219583 301.994969,66.7531783 L300.683371,69.3107784 L305.823129,73.7546085 L310.973549,78.1984387 L316.113307,82.6422688 L321.253064,87.0860989 C321.391688,87.2246356 321.668936,87.3631723 321.80756,87.501709 L322.500681,87.501709 C322.77793,87.501709 322.916554,87.3631723 323.204465,87.3631723 C323.413129,87.2596154 323.601059,87.1187568 323.758962,86.9475623 L329.175968,80.6920987 L334.539656,74.4579485 L339.967325,68.202485 L345.384331,61.9576782 C345.522955,61.8191415 345.800203,61.6806048 345.938828,61.5420682 C346.151673,61.4300797 346.392376,61.3819696 346.631948,61.4035315 C346.87203,61.3696149 347.116509,61.4184799 347.325069,61.5420682 C347.533733,61.6456251 347.721663,61.7864837 347.879566,61.9576782 L349.830967,64.1742649 L351.771706,66.4015083 L353.723107,68.618095 L355.80247,70.8453384 L355.941094,70.9838751 L356.079718,71.1224118 L356.218342,71.2609485 L356.218342,71.3994851 L357.199375,73.6267285 L358.169744,75.8433153 L359.140113,78.0705587 L360.110482,80.2871454 C360.22074,80.4496967 360.26985,80.646011 360.249106,80.8412921 L360.249106,81.4060954 C360.213644,81.6141746 360.117149,81.8070426 359.971858,81.9602421 L359.555985,82.3758521 L350.801337,89.4412223 L342.046688,96.6664426 L333.292039,103.891663 L324.761321,110.733243 C322.353431,112.675908 321.203374,115.78033 321.764907,118.821653 L324.782648,135.275547 L327.000635,148.191427 L329.229285,161.117965 L331.457935,174.033845 L331.457935,174.865065 L331.31931,175.142138 L330.199654,177.646455 L329.133314,180.140115 L328.301569,182.505895 L327.235229,184.999555 C327.235229,185.138092 327.085942,185.276629 326.947318,185.415165 C326.75881,185.708976 326.458328,185.913021 326.115573,185.979969 C325.976949,185.979969 325.838324,186.118505 325.6997,186.118505 L322.500681,186.395579 L319.301662,186.672652 L316.102643,186.949725 L312.903624,187.226799 C312.765,187.226799 312.487752,187.365335 312.349127,187.365335 C312.210503,187.365335 312.071879,187.503872 311.933255,187.642409 L311.517383,188.058019 C311.407124,188.22057 311.358015,188.416884 311.378758,188.612165 L311.240134,189.166312 L311.10151,189.720459 L310.962886,190.285262 L310.824262,190.839409 L310.824262,191.681285 C310.909942,191.940065 311.051975,192.176638 311.240134,192.373969 C311.378758,192.512506 311.656007,192.789579 311.794631,192.789579 C312.056544,192.90245 312.34199,192.949994 312.626376,192.928116 L331.393954,192.928116 L331.607222,192.746952 C331.745846,192.746952 331.745846,192.746952 331.88447,192.608416 C332.023095,192.469879 332.023095,192.469879 332.161719,192.469879 L334.51833,190.530365 L336.885604,188.580195 L339.242214,186.640682 L341.609488,184.690512 L341.748113,185.244659 L341.886737,185.798805 L342.025361,186.363609 L342.163985,186.917755 L344.296664,186.086535 L346.376027,185.244659 L348.508706,184.413439 L350.588069,183.582219 C350.865317,183.443682 351.003941,183.443682 351.142565,183.166609 C351.313868,183.008805 351.454815,182.820994 351.558438,182.612462 C351.670497,182.39975 351.718637,182.1592 351.697062,181.919779 C351.718303,181.67695 351.670237,181.433078 351.558438,181.216438 L350.172196,177.326755 L348.785955,173.447728 L347.38905,169.558045 L346.002808,165.668361 L346.002808,165.391288 L344.200694,154.969068 L342.387916,144.557504 L340.521822,134.135284 L338.709044,123.585183 L338.709044,123.02038 C338.709044,122.881843 338.847669,122.60477 338.847669,122.466233 L339.263541,122.050623 C339.399897,121.877098 339.607931,121.775108 339.828701,121.77355 L345.245707,119.418427 L350.662712,117.052647 L356.079718,114.686866 L361.507387,112.331743 C361.817552,112.218104 362.148159,112.170904 362.477756,112.193206 C363.089672,112.29305 363.610474,112.693414 363.863998,113.258873 C363.987685,113.56625 364.035242,113.898938 364.002622,114.22863 L363.170877,121.86946 L362.339132,129.51029 L361.464733,137.332284 L360.632988,145.111651 L360.632988,145.665797 C360.632988,145.804334 360.771613,145.942871 360.771613,146.081407 C360.771613,146.219944 360.910237,146.358481 361.048861,146.497017 C361.187485,146.635554 361.326109,146.774091 361.464733,146.774091 L373.279777,154.137848 L385.084157,161.501605 L396.899201,168.854705 L408.628938,176.218462 C408.767562,176.356998 408.906186,176.356998 409.04481,176.495535 C409.183434,176.634072 409.183434,176.772608 409.322058,176.911145 C409.460683,177.049682 409.460683,177.188218 409.460683,177.326755 L409.460683,177.891558 L409.322058,179.415462 L409.183434,180.939365 L409.04481,182.473925 L408.906186,183.997829 C408.906186,184.136365 408.767562,184.413439 408.767562,184.551975 C408.767562,184.690512 408.490313,184.967585 408.351689,185.106122 C408.217672,185.276767 408.014206,185.378436 407.797193,185.383195 C407.588632,185.506784 407.344153,185.555649 407.104072,185.521732 L404.736798,185.660269 L402.369524,185.798805 L400.012913,185.947999 L397.645639,186.086535 C397.493241,186.068051 397.340587,186.118903 397.229766,186.225072 C397.091142,186.225072 396.952518,186.363609 396.813894,186.363609 C396.67527,186.363609 396.536646,186.502145 396.536646,186.640682 C396.536646,186.779219 396.398021,186.917755 396.259397,187.056292 L395.843525,187.748975 L395.427652,188.441659 L395.01178,189.134342 L395.01178,190.807439 C394.821906,191.093375 394.77099,191.449566 394.873156,191.777195 C394.902013,192.071544 394.996769,192.355633 395.150404,192.608416 C395.314425,192.864059 395.557955,193.05876 395.843525,193.162562 C396.096467,193.3161 396.380735,193.410796 396.67527,193.439636 L415.997345,193.439636 C416.135969,193.439636 416.274593,193.301099 416.413217,193.301099 C416.551842,193.301099 416.690466,193.162562 416.82909,193.024026 L417.106338,192.746952 L418.353956,190.945975 L419.612236,189.134342 L420.859854,187.333365 L422.107471,185.521732 L422.523344,185.106122 C422.67664,184.960923 422.86963,184.864489 423.07784,184.829049 L423.781625,184.829049 C424.058873,184.829049 424.197497,184.967585 424.474745,184.967585 C424.637399,185.077774 424.833838,185.126852 425.029242,185.106122 L425.583739,185.106122 C425.722363,185.106122 425.999611,184.967585 426.138235,184.967585 L426.554108,184.551975 L427.812389,183.028072 L429.060006,181.493512 L430.307623,179.969608 L431.555241,178.445705 C431.704422,178.293861 431.804697,178.100859 431.843153,177.891558 C431.843153,177.753022 431.981777,177.475948 431.981777,177.326755 C431.981777,177.177562 431.971113,176.943115 431.843153,176.761952 Z" id="Path" fill="#023852" fill-rule="nonzero"></path>
            <path d="M399.851585,188.75741 C400.006941,188.463158 400.246239,188.222396 400.538701,188.06609 C400.648562,187.96013 400.799893,187.909378 400.950971,187.927826 L401.36324,187.789562 L403.710004,187.651298 L406.046198,187.513034 L408.392962,187.37477 L410.729155,187.236506 C411.014573,187.236506 411.151996,187.236506 411.289419,187.098242 C411.426842,186.959978 411.701688,186.959978 411.839111,186.821714 C412.00893,186.664221 412.148656,186.47678 412.251381,186.268659 C412.360684,186.106427 412.409368,185.910499 412.388804,185.715603 L412.526227,184.184064 L412.66365,182.66316 L412.801073,181.142257 L412.938497,179.610718 L412.938497,179.057662 C412.938497,178.919398 412.801073,178.781134 412.801073,178.504606 C412.801073,178.228078 412.66365,178.228078 412.526227,178.089814 C412.388804,177.951551 412.251381,177.813287 412.113958,177.813287 L400.676124,170.67674 L388.963445,163.327479 L377.388188,155.988855 L365.686079,148.639594 C365.548656,148.50133 365.411233,148.50133 365.27381,148.363066 C365.136387,148.224802 365.125816,148.086539 364.988392,147.948275 C364.881347,147.834462 364.83088,147.678231 364.850969,147.522847 L364.850969,146.969791 L365.686079,139.354639 L366.510618,131.590586 L367.335157,123.826534 L368.159696,116.200746 C368.181819,115.872005 368.134998,115.542257 368.022273,115.232898 C367.919304,114.94807 367.726168,114.705173 367.47258,114.541578 C367.221829,114.388343 366.940024,114.293833 366.648041,114.265051 C366.321299,114.242792 365.993557,114.289899 365.686079,114.403315 L365.548656,114.403315 L365.411233,114.541578 L365.27381,114.541578 L365.125816,114.679842 L364.301277,122.294995 L363.476738,129.920783 L362.652199,137.546572 L361.82766,145.17236 C361.805537,145.501101 361.852358,145.830849 361.965083,146.140208 C362.102507,146.278472 362.102507,146.416736 362.23993,146.554999 C362.377353,146.693263 362.514776,146.831527 362.652199,146.831527 L374.364879,154.180788 L386.077559,161.530048 L397.779667,168.879309 L409.354924,176.217933 C409.492347,176.356197 409.62977,176.356197 409.767193,176.494461 C409.904617,176.632725 409.904617,176.781625 410.04204,176.919889 C410.179463,177.058153 410.179463,177.196417 410.179463,177.334681 L410.179463,177.887736 L410.04204,179.40864 L409.904617,180.940179 L409.767193,182.461082 L409.62977,183.981986 C409.62977,184.258514 409.492347,184.396777 409.492347,184.535041 C409.320345,184.694671 409.180391,184.886029 409.080078,185.098733 C408.947221,185.269042 408.745518,185.370511 408.530385,185.375261 C408.323632,185.498606 408.081271,185.547375 407.843269,185.513525 L405.496505,185.651789 L403.160312,185.790053 L400.813547,185.928317 L398.477354,186.06658 C398.322915,186.046369 398.167634,186.097144 398.054514,186.204844 L397.642244,186.343108 C397.504821,186.481372 397.367398,186.481372 397.367398,186.619636 C397.367398,186.7579 397.229975,186.896164 397.092552,187.034428 L396.680282,187.725748 L396.268013,188.417068 L395.855743,189.108387 L395.443474,189.810343 C395.255245,190.095716 395.20477,190.451205 395.306051,190.77819 C395.334659,191.07196 395.428594,191.355489 395.580897,191.607774 C395.743497,191.862914 395.984917,192.057232 396.268013,192.16083 C396.518764,192.314065 396.800569,192.408575 397.092552,192.437358 L398.477354,192.437358 L398.477354,191.948116 C398.477354,191.809852 398.477354,191.809852 398.614777,191.809852 L399.027047,191.118532 L399.301893,190.427213 L399.714162,189.735893 L399.851585,188.75741 Z" id="Path" fill="url(#linearGradient-5)" fill-rule="nonzero"></path>
            <polygon id="Path" fill="#263054" fill-rule="nonzero" points="320.728929 69.1571754 317.983734 67.3862696 315.194262 65.671762 312.449067 63.9008562 309.703872 62.1412301 309.703872 62.1412301 312.305166 63.7542207 314.90646 65.378491 317.496684 66.9914817 320.097977 68.6044723 320.241879 68.7511078 320.38578 68.909023 320.529681 68.909023"></polygon>
            <path d="M431.971097,177.084261 C431.971097,176.807856 431.971097,176.669654 431.832263,176.531452 C431.693428,176.393249 431.693428,176.116845 431.554594,175.978642 L429.739066,173.852453 L427.795384,171.779419 L425.979857,169.65323 L424.036175,167.580195 L424.036175,167.580195 L423.89734,167.441993 L423.758506,167.441993 L413.452718,160.096009 L403.15761,152.750026 L392.851822,145.404042 L382.556714,138.06869 L382.140211,137.643452 C382.001376,137.50525 382.001376,137.228845 381.862542,137.090643 L381.862542,136.537834 C381.841767,136.343024 381.890951,136.147183 382.001376,135.985024 L386.177089,125.460388 L390.448918,115.063323 L394.720747,104.676889 L398.992576,94.2798242 C398.992576,94.1416219 398.992576,94.1416219 399.131411,94.0034196 L399.131411,93.2592534 L398.298404,89.0068751 L397.454718,84.7544968 L396.621711,80.5021185 L395.788705,76.2497402 L395.788705,76.1115379 L395.788705,76.1115379 L395.788705,75.7181929 L390.918819,66.1503417 L388.40912,93.5888127 L371.845103,136.112596 L431.981777,177.403189 C431.800224,177.222463 431.800224,177.222463 431.971097,177.084261 Z" id="Path" fill="url(#linearGradient-6)" fill-rule="nonzero" style="mix-blend-mode: multiply;"></path>
            <path d="M344.783599,62.1412301 L315.71754,82.6075092 L320.272984,86.5748187 C320.802464,87.0237206 321.490037,87.2450131 322.184032,87.1898819 C322.878027,87.1347507 323.521425,86.8077256 323.972301,86.2809439 L323.972301,86.2809439 L344.783599,62.1412301 Z" id="Path" fill="url(#linearGradient-7)" fill-rule="nonzero" style="mix-blend-mode: multiply;"></path>
            <path d="M338.769932,21.7069278 L336.689784,16.0364465 L331.467746,21.3026339 C329.668262,23.172797 329.239262,25.9025204 330.384336,28.1963635 L333.916253,35.0797267 L338.769932,21.7069278 Z" id="Path" fill="url(#linearGradient-8)" fill-rule="nonzero" style="mix-blend-mode: multiply;"></path>
            <path d="M344.783599,30.1196348 L344.783599,24.539461 C344.783599,24.4002245 344.648926,24.2609879 344.648926,24.1217513 C344.648926,23.9825147 344.37958,23.8432781 344.37958,23.7040416 C344.37958,23.564805 344.110234,23.4255684 343.975561,23.4255684 L342.753145,22.8686221 L341.541088,22.3009652 L340.329031,21.7440189 L339.106614,21.1870726 C338.971941,21.1870726 338.702595,21.047836 338.567922,21.047836 L338.018871,21.047836 C337.884198,21.047836 337.614852,21.1870726 337.480179,21.1870726 C337.345506,21.1870726 337.210833,21.4655457 337.07616,21.4655457 L336.133449,22.4402018 L335.180378,23.564805 L334.237667,24.6358556 L333.294956,25.7069062 L333.02561,25.9853794 C333.011752,26.0910511 332.964389,26.1889876 332.890937,26.2638526 C332.890937,26.4030891 332.756264,26.5423257 332.756264,26.6815623 L332.756264,27.1099826 L333.02561,29.7554776 L333.294956,32.4116832 L333.564302,35.0571782 L333.833648,37.7133838 C333.813496,37.9096514 333.861206,38.1069575 333.968321,38.2703301 C333.968321,38.4095667 334.102994,38.5488033 334.237667,38.6880398 L334.641686,39.1057496 C334.776359,39.2449862 334.911032,39.2449862 335.180378,39.2449862 L336.133449,39.3842228 L337.07616,39.6734064 L338.018871,39.9518796 L338.961582,40.0911162 L339.500274,40.0911162 C339.634947,40.0911162 339.914652,39.9518796 340.049325,39.9518796 C340.183998,39.9518796 340.453344,39.812643 340.588017,39.6734064 C340.754355,39.5344969 340.852919,39.3267702 340.857363,39.1057496 L341.800074,36.9636483 L342.742785,34.8215471 L343.685496,32.7329984 L344.638567,30.5908971 C344.638567,30.5139989 344.698862,30.4516605 344.77324,30.4516605 L344.77324,29.8947142 L344.783599,30.1196348 Z" id="Path" fill="#42ACDE" fill-rule="nonzero"></path>
            <path d="M344.783599,25.3505442 C344.783599,25.2189319 344.64881,25.0873197 344.64881,24.9557074 C344.64881,24.8240952 344.379232,24.6924829 344.379232,24.5608707 C344.379232,24.4292584 344.109654,24.2976462 343.974865,24.2976462 L342.751394,23.7711972 L341.538292,23.2346241 L340.32519,22.7081751 L339.10172,22.1817261 C338.966931,22.1817261 338.697353,22.0501139 338.562564,22.0501139 L338.023407,22.0501139 C337.888618,22.0501139 337.61904,22.1817261 337.484251,22.1817261 C337.349462,22.1817261 337.214673,22.4449506 337.079884,22.4449506 L336.13636,23.3662364 L335.182468,24.4292584 L334.238944,25.4416603 L333.295421,26.4540623 L333.025842,26.7172868 C333.011973,26.8171721 332.964569,26.9097457 332.891053,26.9805113 C332.891053,27.1121235 332.756264,27.2437358 332.756264,27.375348 L332.756264,27.7803088 L333.025842,30.2809415 L333.160632,31.070615 L333.969366,30.1493293 L334.91289,29.2280435 L335.866782,28.2156416 L336.810306,27.1526196 C336.945095,27.0210073 337.079884,26.8893951 337.214673,26.8893951 C337.349462,26.8893951 337.484251,26.7577828 337.753829,26.7577828 L338.292986,26.7577828 C338.482984,26.7380886 338.673988,26.7847141 338.832142,26.8893951 L340.055612,27.4158441 L341.268714,27.9524171 L342.481816,28.4788661 L343.705286,29.0053151 C344.006627,29.184523 344.279156,29.4062777 344.514021,29.6633764 C344.64881,29.7949886 344.64881,29.9266009 344.64881,30.1898254 L344.64881,30.8478866 L344.64881,30.8478866 L344.64881,25.8769932 C344.64881,25.7453809 344.783599,25.6137687 344.783599,25.3505442 Z" id="Path" fill="#7CC5E8" fill-rule="nonzero"></path>
            <polygon id="Path" fill="#14375A" fill-rule="nonzero" opacity="0.200000003" points="167.774933 53.3615948 167.2213 52.2675412 166.806074 51.1629679 166.252441 50.2056709 165.698807 49.1116173 162.643176 49.1116173 159.587544 49.1116173 156.542559 49.1116173 153.486928 49.1116173 153.348519 56.3702423 153.348519 63.6393871 153.348519 70.9085318 153.348519 78.1776765 153.348519 78.1776765 153.348519 78.1776765 153.348519 78.1776765 153.486928 78.1776765 162.366359 78.1776765 171.384198 78.1776765 180.402038 78.1776765 189.430524 78.1776765 189.430524 72.5496122 189.430524 66.795311 189.430524 61.1777664 189.430524 55.4129454 189.430524 54.8659186 189.430524 54.4556485 189.430524 53.9086217 189.430524 53.3615948 184.011303 53.3615948 178.602729 53.3615948 173.194154 53.3615948"></polygon>
            <polygon id="Path" fill="#3EAADD" fill-rule="nonzero" points="171.788303 56.3684286 171.234506 55.2743749 170.680709 54.1803213 170.265361 53.0862677 169.711564 52.118451 166.655031 52.118451 163.598497 52.118451 160.541964 52.118451 157.357631 52.118451 157.357631 53.0862677 157.357631 54.1803213 157.357631 55.2743749 157.357631 56.3684286 157.357631 56.5051853 157.357631 56.641942 157.357631 56.7892184 157.357631 56.9259751 157.357631 63.0905465 157.357631 69.1288809 157.357631 75.1566956 157.357631 81.1845103 166.378132 81.1845103 175.398633 81.1845103 184.419134 81.1845103 193.439636 81.1845103 193.439636 75.0199389 193.439636 68.8553675 193.439636 62.6802764 193.439636 56.3684286 188.029465 56.3684286 182.619294 56.3684286 177.198474 56.3684286"></polygon>
            <polygon id="Path" fill="#0099DA" fill-rule="nonzero" points="184.419134 81.1845103 175.398633 81.1845103 166.378132 81.1845103 157.357631 81.1845103 157.357631 75.4933511 157.357631 69.6636432 157.357631 63.9618264 157.357631 58.1321185 166.378132 58.1321185 175.398633 58.1321185 184.419134 58.1321185 193.439636 58.1321185 193.439636 63.9618264 193.439636 69.6636432 193.439636 75.4933511 193.439636 81.1845103"></polygon>
            <polygon id="Path" fill="#14375A" fill-rule="nonzero" opacity="0.200000003" points="218.891106 53.3615948 218.337473 52.2675412 217.922247 51.1629679 217.368614 50.2056709 216.81498 49.1116173 213.759349 49.1116173 210.703717 49.1116173 207.658732 49.1116173 204.603101 49.1116173 204.603101 56.3702423 204.464692 63.6393871 204.464692 70.9085318 204.464692 78.1776765 204.464692 78.1776765 204.464692 78.1776765 204.603101 78.1776765 204.603101 78.1776765 213.482532 78.1776765 222.500371 78.1776765 231.528858 78.1776765 240.546697 78.1776765 240.546697 72.5496122 240.546697 66.795311 240.546697 61.1777664 240.546697 55.4129454 240.546697 54.8659186 240.546697 54.4556485 240.546697 53.9086217 240.546697 53.3615948 235.127476 53.3615948 229.718902 53.3615948 224.310327 53.3615948"></polygon>
            <polygon id="Path" fill="#3EAADD" fill-rule="nonzero" points="221.8188 56.3684286 221.26287 55.2743749 220.845923 54.1803213 220.289992 53.0862677 219.734062 52.118451 216.665756 52.118451 213.597449 52.118451 210.529142 52.118451 207.471526 52.118451 207.471526 53.0862677 207.471526 54.1803213 207.471526 55.2743749 207.471526 56.3684286 207.471526 56.5051853 207.471526 56.641942 207.471526 56.7892184 207.471526 56.9259751 207.471526 63.0905465 207.471526 69.1288809 207.471526 75.1566956 207.471526 81.1845103 216.38779 81.1845103 225.443037 81.1845103 234.498284 81.1845103 243.553531 81.1845103 243.553531 75.0199389 243.553531 68.8553675 243.553531 62.6802764 243.553531 56.3684286 238.122521 56.3684286 232.691511 56.3684286 227.260501 56.3684286"></polygon>
            <polygon id="Path" fill="#0099DA" fill-rule="nonzero" points="243.553531 81.1845103 234.53303 81.1845103 225.512528 81.1845103 216.492027 81.1845103 207.471526 81.1845103 207.471526 75.4933511 207.471526 69.6636432 207.471526 63.9618264 207.471526 58.1321185 216.492027 58.1321185 225.512528 58.1321185 234.53303 58.1321185 243.553531 58.1321185 243.553531 63.9618264 243.553531 69.6636432 243.553531 75.4933511"></polygon>
            <g id="DATA" transform="translate(215.489749, 67.152620)" fill="#FFFFFF">
                <path d="M18.105559,3.15507062 C17.6940738,1.92061503 17.5572629,1.37231891 17.4193995,1.09764465 C17.2825886,0.824022779 17.2825886,0.824022779 17.2825886,0.686159453 C17.2825886,0.960833713 17.0079144,1.7838041 16.5964292,3.01825968 L18.105559,3.15507062 Z M18.7906661,5.48717084 L18.3802333,4.11590433 L16.3228073,4.11590433 L15.9113221,5.48717084 L14.6768665,5.48717084 L16.5964292,-3.08454856e-14 L18.105559,-3.08454856e-14 L20.026174,5.48717084 L18.7906661,5.48717084 Z" id="Fill-8"></path>
                <polygon id="Fill-6" points="13.1678419 5.4870656 11.9333863 5.4870656 11.9333863 0.960728474 10.4242565 0.960728474 10.4242565 0.00094715262 14.5391084 0.00094715262 14.5391084 0.960728474 13.031031 0.960728474"></polygon>
                <path d="M8.36683052,3.29230251 C7.95534533,2.05784692 7.8185344,1.5095508 7.68172346,1.23487654 C7.54386014,0.96125467 7.54386014,0.96125467 7.54386014,0.823391344 C7.4070492,1.0980656 7.27023827,1.92103599 6.85770068,3.15549157 L8.36683052,3.29230251 Z M9.05298998,5.48653941 L8.64150478,4.11527289 L6.58407882,4.11527289 L6.17259362,5.48653941 L4.93813804,5.48653941 L6.85770068,0.000420956722 L8.23001959,0.000420956722 L10.2874456,5.48653941 L9.05298998,5.48653941 Z" id="Fill-4"></path>
                <path d="M3.29188155,2.74400638 C3.29188155,1.5095508 2.74358542,0.96125467 1.78275171,0.96125467 L1.23445558,0.96125467 L1.23445558,4.52675809 L1.78275171,4.52675809 C2.74358542,4.66462141 3.29188155,3.97846196 3.29188155,2.74400638 M4.52633713,2.74400638 C4.52633713,3.56697677 4.25271526,4.25313622 3.70336674,4.80143235 C3.01720729,5.34972847 2.33210023,5.62440273 1.50912984,5.48653941 L-2.37837388e-12,5.48653941 L-2.37837388e-12,0.000420956719 L1.78275171,0.000420956719 C2.60677449,0.000420956719 3.29188155,0.137231891 3.84017768,0.68658041 C4.3895262,1.37168747 4.66314806,2.05784692 4.52633713,2.74400638" id="Fill-1"></path>
            </g>
            <polygon id="Path" fill="#14375A" fill-rule="nonzero" opacity="0.200000003" points="167.774933 97.4618226 167.2213 96.367769 166.806074 95.2737154 166.252441 94.3164185 165.698807 93.2118451 162.643176 93.2118451 159.587544 93.2118451 156.542559 93.2118451 153.486928 93.2118451 153.348519 100.48099 153.348519 107.750135 153.348519 115.019279 153.348519 122.277904 153.348519 122.277904 153.348519 122.277904 153.348519 122.277904 153.486928 122.277904 162.366359 122.277904 171.384198 122.277904 180.402038 122.277904 189.430524 122.277904 189.430524 116.66036 189.430524 110.906059 189.430524 105.277994 189.430524 99.5236929 189.430524 98.9766661 189.430524 98.566396 189.430524 98.0193692 189.430524 97.4618226 184.011303 97.4618226 178.602729 97.4618226 173.194154 97.4618226"></polygon>
            <polygon id="Path" fill="#3EAADD" fill-rule="nonzero" points="171.788303 100.468656 171.234506 99.3746027 170.680709 98.2805491 170.265361 97.3127324 169.711564 96.2186788 166.655031 96.2186788 163.598497 96.2186788 160.541964 96.2186788 157.357631 96.2186788 157.357631 97.3127324 157.357631 98.2805491 157.357631 99.3746027 157.357631 100.468656 157.357631 100.605413 157.357631 100.74217 157.357631 100.878926 157.357631 101.015683 157.357631 107.190774 157.357631 113.218589 157.357631 119.256923 157.357631 125.284738 166.378132 125.284738 175.398633 125.284738 184.419134 125.284738 193.439636 125.284738 193.439636 119.120167 193.439636 112.945076 193.439636 106.643747 193.439636 100.468656 188.029465 100.468656 182.619294 100.468656 177.198474 100.468656"></polygon>
            <polygon id="Path" fill="#0099DA" fill-rule="nonzero" points="193.439636 125.284738 184.419134 125.284738 175.398633 125.284738 166.378132 125.284738 157.357631 125.284738 157.357631 119.593579 157.357631 113.753213 157.357631 108.062054 157.357631 102.232346 166.378132 102.232346 175.398633 102.232346 184.419134 102.232346 193.439636 102.232346 193.439636 108.062054 193.439636 113.753213 193.439636 119.593579"></polygon>
            <g id="DATA" transform="translate(165.375854, 111.252847)" fill="#FFFFFF">
                <path d="M18.105559,3.15507062 C17.6940738,1.92061503 17.5572629,1.37231891 17.4193995,1.09764465 C17.2825886,0.824022779 17.2825886,0.824022779 17.2825886,0.686159453 C17.2825886,0.960833713 17.0079144,1.7838041 16.5964292,3.01825968 L18.105559,3.15507062 Z M18.7906661,5.48717084 L18.3802333,4.11590433 L16.3228073,4.11590433 L15.9113221,5.48717084 L14.6768665,5.48717084 L16.5964292,-3.08454856e-14 L18.105559,-3.08454856e-14 L20.026174,5.48717084 L18.7906661,5.48717084 Z" id="Fill-8"></path>
                <polygon id="Fill-6" points="13.1678419 5.4870656 11.9333863 5.4870656 11.9333863 0.960728474 10.4242565 0.960728474 10.4242565 0.00094715262 14.5391084 0.00094715262 14.5391084 0.960728474 13.031031 0.960728474"></polygon>
                <path d="M8.36683052,3.29230251 C7.95534533,2.05784692 7.8185344,1.5095508 7.68172346,1.23487654 C7.54386014,0.96125467 7.54386014,0.96125467 7.54386014,0.823391344 C7.4070492,1.0980656 7.27023827,1.92103599 6.85770068,3.15549157 L8.36683052,3.29230251 Z M9.05298998,5.48653941 L8.64150478,4.11527289 L6.58407882,4.11527289 L6.17259362,5.48653941 L4.93813804,5.48653941 L6.85770068,0.000420956722 L8.23001959,0.000420956722 L10.2874456,5.48653941 L9.05298998,5.48653941 Z" id="Fill-4"></path>
                <path d="M3.29188155,2.74400638 C3.29188155,1.5095508 2.74358542,0.96125467 1.78275171,0.96125467 L1.23445558,0.96125467 L1.23445558,4.52675809 L1.78275171,4.52675809 C2.74358542,4.66462141 3.29188155,3.97846196 3.29188155,2.74400638 M4.52633713,2.74400638 C4.52633713,3.56697677 4.25271526,4.25313622 3.70336674,4.80143235 C3.01720729,5.34972847 2.33210023,5.62440273 1.50912984,5.48653941 L-2.37837388e-12,5.48653941 L-2.37837388e-12,0.000420956719 L1.78275171,0.000420956719 C2.60677449,0.000420956719 3.29188155,0.137231891 3.84017768,0.68658041 C4.3895262,1.37168747 4.66314806,2.05784692 4.52633713,2.74400638" id="Fill-1"></path>
            </g>
            <polygon id="Path" fill="#14375A" fill-rule="nonzero" opacity="0.200000003" points="218.891106 97.4618226 218.337473 96.367769 217.922247 95.2737154 217.368614 94.3164185 216.81498 93.2118451 213.759349 93.2118451 210.703717 93.2118451 207.658732 93.2118451 204.603101 93.2118451 204.603101 100.48099 204.464692 107.750135 204.464692 115.019279 204.464692 122.277904 204.464692 122.277904 204.464692 122.277904 204.603101 122.277904 204.603101 122.277904 213.482532 122.277904 222.500371 122.277904 231.528858 122.277904 240.546697 122.277904 240.546697 116.66036 240.546697 110.906059 240.546697 105.277994 240.546697 99.5236929 240.546697 98.9766661 240.546697 98.566396 240.546697 98.0193692 240.546697 97.4618226 235.127476 97.4618226 229.718902 97.4618226 224.310327 97.4618226"></polygon>
            <polygon id="Path" fill="#023852" fill-rule="nonzero" points="221.8188 100.468656 221.26287 99.3746027 220.845923 98.2805491 220.289992 97.3127324 219.734062 96.2186788 216.665756 96.2186788 213.597449 96.2186788 210.529142 96.2186788 207.471526 96.2186788 207.471526 97.3127324 207.471526 98.2805491 207.471526 99.3746027 207.471526 100.468656 207.471526 100.605413 207.471526 100.74217 207.471526 100.878926 207.471526 101.015683 207.471526 107.190774 207.471526 113.218589 207.471526 119.256923 207.471526 125.284738 216.38779 125.284738 225.443037 125.284738 234.498284 125.284738 243.553531 125.284738 243.553531 119.120167 243.553531 112.945076 243.553531 106.643747 243.553531 100.468656 238.122521 100.468656 232.691511 100.468656 227.260501 100.468656"></polygon>
            <polygon id="Path" fill="#023852" fill-rule="nonzero" points="243.553531 125.284738 234.53303 125.284738 225.512528 125.284738 216.492027 125.284738 207.471526 125.284738 207.471526 119.593579 207.471526 113.753213 207.471526 108.062054 207.471526 102.232346 216.492027 102.232346 225.512528 102.232346 234.53303 102.232346 243.553531 102.232346 243.553531 108.062054 243.553531 113.753213 243.553531 119.593579"></polygon>
            <polygon id="Path" fill="#14375A" fill-rule="nonzero" opacity="0.200000003" points="167.774933 144.685098 167.2213 143.585697 166.806074 142.496767 166.252441 141.407837 165.698807 140.318907 162.643176 140.318907 159.587544 140.318907 156.542559 140.318907 153.486928 140.318907 153.348519 147.543539 153.348519 154.778643 153.348519 162.149862 153.348519 169.384966 153.348519 169.384966 153.348519 169.384966 153.348519 169.384966 153.486928 169.384966 162.366359 169.384966 171.384198 169.384966 180.402038 169.384966 189.430524 169.384966 189.430524 163.647141 189.430524 158.055904 189.430524 152.32855 189.430524 146.726842 189.430524 146.182377 189.430524 145.637912 189.430524 145.093447 189.430524 144.685098 184.011303 144.685098 178.602729 144.685098 173.194154 144.685098"></polygon>
            <polygon id="Path" fill="#3EAADD" fill-rule="nonzero" points="171.788303 147.691931 171.234506 146.603001 170.680709 145.514071 170.265361 144.425141 169.711564 143.32574 166.655031 143.32574 163.598497 143.32574 160.541964 143.32574 157.357631 143.32574 157.357631 144.425141 157.357631 145.514071 157.357631 146.603001 157.357631 147.691931 157.357631 147.828048 157.357631 147.964164 157.357631 148.10028 157.357631 148.246867 157.357631 154.246453 157.357631 160.25651 157.357631 166.392213 157.357631 172.3918 166.378132 172.3918 175.398633 172.3918 184.419134 172.3918 193.439636 172.3918 193.439636 166.119981 193.439636 159.973807 193.439636 153.838105 193.439636 147.691931 188.029465 147.691931 182.619294 147.691931 177.198474 147.691931"></polygon>
            <polygon id="Path" fill="#0099DA" fill-rule="nonzero" points="193.439636 172.3918 184.419134 172.3918 175.398633 172.3918 166.378132 172.3918 157.357631 172.3918 157.357631 166.59692 157.357631 160.80204 157.357631 155.134287 157.357631 149.339408 166.378132 149.339408 175.398633 149.339408 184.419134 149.339408 193.439636 149.339408 193.439636 155.134287 193.439636 160.80204 193.439636 166.59692"></polygon>
            <g id="DATA" transform="translate(165.375854, 158.359909)" fill="#FFFFFF">
                <path d="M18.105559,3.15507062 C17.6940738,1.92061503 17.5572629,1.37231891 17.4193995,1.09764465 C17.2825886,0.824022779 17.2825886,0.824022779 17.2825886,0.686159453 C17.2825886,0.960833713 17.0079144,1.7838041 16.5964292,3.01825968 L18.105559,3.15507062 Z M18.7906661,5.48717084 L18.3802333,4.11590433 L16.3228073,4.11590433 L15.9113221,5.48717084 L14.6768665,5.48717084 L16.5964292,-3.08454856e-14 L18.105559,-3.08454856e-14 L20.026174,5.48717084 L18.7906661,5.48717084 Z" id="Fill-8"></path>
                <polygon id="Fill-6" points="13.1678419 5.4870656 11.9333863 5.4870656 11.9333863 0.960728474 10.4242565 0.960728474 10.4242565 0.00094715262 14.5391084 0.00094715262 14.5391084 0.960728474 13.031031 0.960728474"></polygon>
                <path d="M8.36683052,3.29230251 C7.95534533,2.05784692 7.8185344,1.5095508 7.68172346,1.23487654 C7.54386014,0.96125467 7.54386014,0.96125467 7.54386014,0.823391344 C7.4070492,1.0980656 7.27023827,1.92103599 6.85770068,3.15549157 L8.36683052,3.29230251 Z M9.05298998,5.48653941 L8.64150478,4.11527289 L6.58407882,4.11527289 L6.17259362,5.48653941 L4.93813804,5.48653941 L6.85770068,0.000420956722 L8.23001959,0.000420956722 L10.2874456,5.48653941 L9.05298998,5.48653941 Z" id="Fill-4"></path>
                <path d="M3.29188155,2.74400638 C3.29188155,1.5095508 2.74358542,0.96125467 1.78275171,0.96125467 L1.23445558,0.96125467 L1.23445558,4.52675809 L1.78275171,4.52675809 C2.74358542,4.66462141 3.29188155,3.97846196 3.29188155,2.74400638 M4.52633713,2.74400638 C4.52633713,3.56697677 4.25271526,4.25313622 3.70336674,4.80143235 C3.01720729,5.34972847 2.33210023,5.62440273 1.50912984,5.48653941 L-2.37837388e-12,5.48653941 L-2.37837388e-12,0.000420956719 L1.78275171,0.000420956719 C2.60677449,0.000420956719 3.29188155,0.137231891 3.84017768,0.68658041 C4.3895262,1.37168747 4.66314806,2.05784692 4.52633713,2.74400638" id="Fill-1"></path>
            </g>
            <polygon id="Path" fill="#14375A" fill-rule="nonzero" opacity="0.200000003" points="218.891106 144.685098 218.337473 143.585697 217.922247 142.496767 217.368614 141.407837 216.81498 140.318907 213.759349 140.318907 210.703717 140.318907 207.658732 140.318907 204.603101 140.318907 204.603101 147.543539 204.464692 154.778643 204.464692 162.149862 204.464692 169.384966 204.464692 169.384966 204.464692 169.384966 204.603101 169.384966 204.603101 169.384966 213.482532 169.384966 222.500371 169.384966 231.528858 169.384966 240.546697 169.384966 240.546697 163.647141 240.546697 158.055904 240.546697 152.32855 240.546697 146.726842 240.546697 146.182377 240.546697 145.637912 240.546697 145.093447 240.546697 144.685098 235.127476 144.685098 229.718902 144.685098 224.310327 144.685098"></polygon>
            <polygon id="Path" fill="#FFE700" fill-rule="nonzero" points="221.8188 147.691931 221.26287 146.603001 220.845923 145.514071 220.289992 144.425141 219.734062 143.32574 216.665756 143.32574 213.597449 143.32574 210.529142 143.32574 207.471526 143.32574 207.471526 144.425141 207.471526 145.514071 207.471526 146.603001 207.471526 147.691931 207.471526 147.828048 207.471526 147.964164 207.471526 148.10028 207.471526 148.246867 207.471526 154.246453 207.471526 160.25651 207.471526 166.392213 207.471526 172.3918 216.38779 172.3918 225.443037 172.3918 234.498284 172.3918 243.553531 172.3918 243.553531 166.119981 243.553531 159.973807 243.553531 153.838105 243.553531 147.691931 238.122521 147.691931 232.691511 147.691931 227.260501 147.691931"></polygon>
            <g id="DATA" transform="translate(215.489749, 158.359909)" fill="#023852">
                <path d="M18.105559,3.15507062 C17.6940738,1.92061503 17.5572629,1.37231891 17.4193995,1.09764465 C17.2825886,0.824022779 17.2825886,0.824022779 17.2825886,0.686159453 C17.2825886,0.960833713 17.0079144,1.7838041 16.5964292,3.01825968 L18.105559,3.15507062 Z M18.7906661,5.48717084 L18.3802333,4.11590433 L16.3228073,4.11590433 L15.9113221,5.48717084 L14.6768665,5.48717084 L16.5964292,-3.08454856e-14 L18.105559,-3.08454856e-14 L20.026174,5.48717084 L18.7906661,5.48717084 Z" id="Fill-8"></path>
                <polygon id="Fill-6" points="13.1678419 5.4870656 11.9333863 5.4870656 11.9333863 0.960728474 10.4242565 0.960728474 10.4242565 0.00094715262 14.5391084 0.00094715262 14.5391084 0.960728474 13.031031 0.960728474"></polygon>
                <path d="M8.36683052,3.29230251 C7.95534533,2.05784692 7.8185344,1.5095508 7.68172346,1.23487654 C7.54386014,0.96125467 7.54386014,0.96125467 7.54386014,0.823391344 C7.4070492,1.0980656 7.27023827,1.92103599 6.85770068,3.15549157 L8.36683052,3.29230251 Z M9.05298998,5.48653941 L8.64150478,4.11527289 L6.58407882,4.11527289 L6.17259362,5.48653941 L4.93813804,5.48653941 L6.85770068,0.000420956722 L8.23001959,0.000420956722 L10.2874456,5.48653941 L9.05298998,5.48653941 Z" id="Fill-4"></path>
                <path d="M3.29188155,2.74400638 C3.29188155,1.5095508 2.74358542,0.96125467 1.78275171,0.96125467 L1.23445558,0.96125467 L1.23445558,4.52675809 L1.78275171,4.52675809 C2.74358542,4.66462141 3.29188155,3.97846196 3.29188155,2.74400638 M4.52633713,2.74400638 C4.52633713,3.56697677 4.25271526,4.25313622 3.70336674,4.80143235 C3.01720729,5.34972847 2.33210023,5.62440273 1.50912984,5.48653941 L-2.37837388e-12,5.48653941 L-2.37837388e-12,0.000420956719 L1.78275171,0.000420956719 C2.60677449,0.000420956719 3.29188155,0.137231891 3.84017768,0.68658041 C4.3895262,1.37168747 4.66314806,2.05784692 4.52633713,2.74400638" id="Fill-1"></path>
            </g>
            <g id="DATA" transform="translate(215.489749, 110.952164)" fill="#0099DA">
                <path d="M18.105559,3.15507062 C17.6940738,1.92061503 17.5572629,1.37231891 17.4193995,1.09764465 C17.2825886,0.824022779 17.2825886,0.824022779 17.2825886,0.686159453 C17.2825886,0.960833713 17.0079144,1.7838041 16.5964292,3.01825968 L18.105559,3.15507062 Z M18.7906661,5.48717084 L18.3802333,4.11590433 L16.3228073,4.11590433 L15.9113221,5.48717084 L14.6768665,5.48717084 L16.5964292,-3.08454856e-14 L18.105559,-3.08454856e-14 L20.026174,5.48717084 L18.7906661,5.48717084 Z" id="Fill-8"></path>
                <polygon id="Fill-6" points="13.1678419 5.4870656 11.9333863 5.4870656 11.9333863 0.960728474 10.4242565 0.960728474 10.4242565 0.00094715262 14.5391084 0.00094715262 14.5391084 0.960728474 13.031031 0.960728474"></polygon>
                <path d="M8.36683052,3.29230251 C7.95534533,2.05784692 7.8185344,1.5095508 7.68172346,1.23487654 C7.54386014,0.96125467 7.54386014,0.96125467 7.54386014,0.823391344 C7.4070492,1.0980656 7.27023827,1.92103599 6.85770068,3.15549157 L8.36683052,3.29230251 Z M9.05298998,5.48653941 L8.64150478,4.11527289 L6.58407882,4.11527289 L6.17259362,5.48653941 L4.93813804,5.48653941 L6.85770068,0.000420956722 L8.23001959,0.000420956722 L10.2874456,5.48653941 L9.05298998,5.48653941 Z" id="Fill-4"></path>
                <path d="M3.29188155,2.74400638 C3.29188155,1.5095508 2.74358542,0.96125467 1.78275171,0.96125467 L1.23445558,0.96125467 L1.23445558,4.52675809 L1.78275171,4.52675809 C2.74358542,4.66462141 3.29188155,3.97846196 3.29188155,2.74400638 M4.52633713,2.74400638 C4.52633713,3.56697677 4.25271526,4.25313622 3.70336674,4.80143235 C3.01720729,5.34972847 2.33210023,5.62440273 1.50912984,5.48653941 L-2.37837388e-12,5.48653941 L-2.37837388e-12,0.000420956719 L1.78275171,0.000420956719 C2.60677449,0.000420956719 3.29188155,0.137231891 3.84017768,0.68658041 C4.3895262,1.37168747 4.66314806,2.05784692 4.52633713,2.74400638" id="Fill-1"></path>
            </g>
            <path d="M59.9345854,141.314674 L60.766782,142.141903 L61.6096477,142.969133 C61.8884174,143.258214 62.1221643,143.587081 62.3031449,143.944839 C62.4413484,144.284948 62.5345924,144.641439 62.5805437,145.00539 L62.5805437,149.862712 C62.571911,150.782274 62.9355856,151.666671 63.5897469,152.316928 C64.2439082,152.967185 65.1336152,153.328689 66.0586987,153.320107 L66.7521958,153.320107 C67.3727253,153.341702 67.9642225,153.586688 68.416589,154.009465 C68.8652532,154.443735 69.115801,155.04146 69.1100861,155.663924 L69.1100861,157.328989 C69.1141033,158.953515 70.4008347,160.288584 72.0334433,160.362164 L80.0993486,160.362164 C80.8955113,160.394007 81.6689298,160.094174 82.233186,159.534934 C82.7852843,158.988929 83.0863615,158.240728 83.0653826,157.46686 L83.0653826,155.801796 C83.0871069,155.18497 83.3335641,154.597003 83.7588797,154.147337 C84.1957566,153.701351 84.7970714,153.452298 85.4232729,153.457979 L86.1274392,153.457979 C87.0506803,153.463701 87.9376222,153.100935 88.5894613,152.450993 C89.2413005,151.801051 89.6035181,150.918292 89.594925,150.000584 L89.594925,145.164473 C89.6104946,144.795373 89.7050637,144.433817 89.8723238,144.103922 C90.0223778,143.725869 90.2643044,143.390651 90.5764902,143.128215 L91.4086868,142.300986 L92.2408833,141.473756 C92.5474379,141.212788 92.7854589,140.881547 92.9343805,140.508655 C93.0866554,140.173324 93.1804587,139.814696 93.2118124,139.448105 L93.2118124,131.833351 C93.2184357,129.340446 92.2192141,126.948988 90.4377907,125.194304 L89.1788267,123.815588 L88.111908,122.755037 C87.3332052,121.954482 86.3807343,121.341429 85.3272502,120.962706 C84.2767457,120.509087 83.1438057,120.274466 81.9984639,120.273349 L70.2623583,120.273349 C68.0196946,120.301287 65.8748606,121.190584 64.2769444,122.755037 L63.2100258,124.006487 L61.9617309,125.247331 C61.0916714,126.142287 60.3712852,127.169871 59.8278935,128.291112 C59.384118,129.439184 59.1492956,130.656563 59.1343964,131.886378 L59.1343964,139.310233 C59.1426,139.697287 59.2373568,140.077675 59.4117952,140.423811 C59.4656557,140.776078 59.6526192,141.094674 59.9345854,141.314674 Z M78.0188572,141.314674 L78.0188572,140.317756 C78.0188572,139.146304 78.9742087,138.196655 80.1526946,138.196655 L83.7695489,138.196655 C84.1083343,138.223879 84.4383282,138.3176 84.7404449,138.472398 C84.997605,138.621371 85.2312801,138.807195 85.4339421,139.023884 L85.8500404,139.585976 L86.2768079,140.137463 C86.4221778,140.289927 86.5187251,140.481869 86.5542067,140.688949 C86.5542067,140.82682 86.6929061,141.102564 86.6929061,141.240435 L86.6929061,144.008472 C86.6639571,145.159165 85.7170322,146.076906 84.5590688,146.076546 L82.4252314,146.076546 C82.1855285,146.098005 81.9446957,146.050126 81.7317342,145.938675 C81.4682374,145.856241 81.2273174,145.714729 81.0275679,145.52506 L79.779273,144.464509 L78.5309782,143.350931 C78.2750346,143.187801 78.0801049,142.945593 77.9761804,142.661573 C77.8631767,142.401081 77.8155767,142.117186 77.837481,141.834344 L78.0188572,141.314674 Z M74.6794017,146.288656 C74.8695926,146.116684 75.1158604,146.018765 75.3728988,146.012913 L76.4398175,146.012913 C76.8745409,146.024535 77.2586625,146.29727 77.4107135,146.702271 L78.1148799,149.056694 L78.808377,151.400511 C78.899611,151.730835 78.8494141,152.083954 78.6696776,152.376217 C78.4785318,152.64284 78.1667471,152.797801 77.837481,152.789832 L73.8898818,152.789832 C73.5572984,152.799477 73.2415541,152.644534 73.0470161,152.376217 C72.8672796,152.083954 72.8170826,151.730835 72.9083167,151.400511 L73.612483,149.056694 L74.3059801,146.702271 L74.7220784,146.288656 L74.6794017,146.288656 Z M65.2691788,142.969133 L65.2691788,141.590417 C65.2691788,141.314674 65.2691788,141.176802 65.4078783,141.038931 C65.4433599,140.83185 65.5399072,140.639908 65.6852771,140.487444 L66.1013754,139.935958 L66.5174737,139.373866 C66.6815836,139.11945 66.9252457,138.925684 67.2109708,138.82238 C67.5056526,138.64967 67.8398748,138.554748 68.1818669,138.546637 L71.7987212,138.546637 C72.3418553,138.517841 72.8738469,138.707214 73.2751224,139.07219 C73.676398,139.437165 73.9132919,139.947124 73.9325586,140.487444 L73.9325586,140.487444 L73.9325586,142.438857 C73.9544629,142.7217 73.9068629,143.005595 73.7938592,143.266087 C73.6870863,143.554396 73.4885377,143.800169 73.2283923,143.96605 L71.9800974,145.026601 L70.7318025,146.087152 C70.5202686,146.255208 70.2870258,146.394318 70.0383054,146.500767 C69.8253439,146.612217 69.5845111,146.660096 69.3448082,146.638638 L67.2109708,146.638638 C66.7023772,146.601868 66.2177792,146.409186 65.8239765,146.087152 C65.4448039,145.730549 65.2420152,145.226603 65.2691788,144.708436 L65.2691788,142.969133 Z" id="Shape" fill="#FFFFFF" fill-rule="nonzero"></path>
            <path d="M99.6788247,174.888235 L91.7869897,174.888235 L76.2794809,169.281455 L60.7825936,163.663913 C60.644513,163.663913 60.5064325,163.524013 60.3577303,163.384112 C60.2090282,163.244212 60.0815692,163.104312 60.0815692,162.964411 L59.0194111,160.586103 L57.9572529,158.197034 C57.849981,157.946193 57.652508,157.746118 57.4049307,157.637432 C57.1287696,157.497531 56.990689,157.497531 56.7145279,157.357631 L53.9954031,157.357631 C53.239898,157.374711 52.6314551,157.991173 52.6145975,158.756636 L52.6145975,161.005805 C52.6248918,161.377982 52.4734573,161.735986 52.2003558,161.985108 L51.3612509,162.824511 L50.5327675,163.663913 C50.394687,163.803814 50.2566064,163.943714 50.2566064,164.083615 C50.2566064,164.223515 50.1185259,164.503316 50.1185259,164.643217 L50.1185259,166.472684 C50.1472705,166.769931 50.2416548,167.056816 50.394687,167.312087 C50.618483,167.521385 50.9201881,167.623279 51.2231703,167.591888 L58.8388442,167.591888 C58.9769247,167.591888 58.9769247,167.591888 59.1150053,167.731788 L68.3876459,171.379962 L64.9356319,172.639066 L59.2530859,174.791381 L51.4993314,174.791381 C51.1319954,174.780951 50.7786482,174.934381 50.5327675,175.211082 C50.281571,175.475503 50.1342729,175.823728 50.1185259,176.190386 L50.1185259,178.159754 C50.0978637,178.356957 50.1467807,178.555204 50.2566064,178.719355 C50.394687,178.859256 50.394687,178.999156 50.5327675,179.139057 L51.2231703,179.838559 L51.9135731,180.538061 C52.1331954,180.757202 52.2392617,181.067654 52.2003558,181.377464 C52.1695799,181.679209 52.0715157,181.969919 51.9135731,182.227629 L51.637412,182.50743 L51.3612509,182.78723 C51.0850898,183.067031 50.9470092,183.346832 51.0850898,183.626633 C51.1138344,183.92388 51.2082187,184.210765 51.3612509,184.466036 L52.6145975,185.72514 L53.8573225,186.995006 C53.9954031,187.134906 54.1334836,187.274807 54.2715642,187.274807 C54.4335803,187.38608 54.6292483,187.435642 54.8238864,187.414707 L57.8722803,187.414707 C58.5301119,187.445566 59.1137868,186.990668 59.2530859,186.33855 L59.8054081,183.66968 L60.3577303,181.000809 C60.365037,180.779974 60.470436,180.574308 60.644513,180.441207 C60.801797,180.268328 60.9889901,180.126082 61.1968353,180.021506 L69.5029119,176.793034 L75.7271586,174.274825 L90.2893467,179.892367 C90.4971919,179.996943 90.684385,180.139189 90.841669,180.312068 C90.9863903,180.466776 91.0825068,180.661543 91.1178301,180.87167 L91.6701523,183.540541 L92.2224746,186.209411 C92.2224746,186.489212 92.4986357,186.769013 92.6367162,187.048814 C92.8831524,187.239713 93.1706963,187.368785 93.4758212,187.425469 L96.524215,187.425469 C96.891551,187.435899 97.2448983,187.282468 97.4907789,187.005767 L98.7441256,185.735902 L99.9868506,184.476798 C100.263012,184.196997 100.401092,183.917196 100.263012,183.637395 C100.234267,183.340148 100.139883,183.053263 99.9868506,182.797992 L99.7106895,182.518191 L99.4345283,182.23839 C99.1583672,181.958589 99.0202867,181.678788 99.1583672,181.388226 C99.1871118,181.090979 99.2814962,180.804094 99.4345283,180.548823 L100.124931,179.849321 L100.815334,179.149818 C101.088435,178.900697 101.23987,178.542693 101.230068,178.170515 L101.230068,176.201147 C101.23987,175.82897 101.088435,175.470965 100.815334,175.221844 C100.459836,175.041122 100.074617,174.928046 99.6788247,174.888235 Z" id="Path" fill="#FFFFFF" fill-rule="nonzero"></path>
            <path d="M101.117474,163.844782 C101.117474,163.709908 100.980917,163.575035 100.84436,163.440162 L100.025018,162.630921 L99.2056761,161.821681 C99.0691191,161.686807 98.9325621,161.551934 98.9325621,161.417061 C98.9325621,161.282187 98.7960051,161.012441 98.7960051,160.877567 L98.7960051,158.709218 C98.8179457,158.343461 98.6796499,157.986036 98.4163301,157.727948 C98.1530102,157.46986 97.7900739,157.336012 97.4199304,157.360484 L94.9724084,157.360484 C94.7193403,157.366208 94.4768764,157.461998 94.2896233,157.630231 C94.0468218,157.746721 93.8587428,157.951057 93.764404,158.200849 L92.7139653,160.504072 L91.4849521,162.662046 C91.3483951,162.796919 91.3483951,162.931793 91.2118381,163.066666 C91.075281,163.201539 90.938724,163.336413 90.802167,163.336413 L84.5625615,165.463263 L80.1822323,166.94687 L83.6066623,168.16073 L87.0310923,169.384966 L88.8063336,168.710599 L92.3673206,167.35149 C92.5038776,167.35149 92.5038776,167.35149 92.6404346,167.216617 L100.17208,167.216617 C100.752221,167.216617 101.222518,166.752118 101.222518,166.179129 L101.222518,164.425775 C101.264536,164.114529 101.117474,163.979655 101.117474,163.844782 Z" id="Path" fill="#FFFFFF" fill-rule="nonzero"></path>
        </g>
        <g id="DATA" transform="translate(166.000000, 153.000000)" fill="#FFFFFF">
            <path d="M18.06441,3.1479 C17.65386,1.91625 17.51736,1.3692 17.37981,1.09515 C17.24331,0.82215 17.24331,0.82215 17.24331,0.6846 C17.24331,0.95865 16.96926,1.77975 16.55871,3.0114 L18.06441,3.1479 Z M18.74796,5.4747 L18.33846,4.10655 L16.28571,4.10655 L15.87516,5.4747 L14.64351,5.4747 L16.55871,-3.07753822e-14 L18.06441,-3.07753822e-14 L19.98066,5.4747 L18.74796,5.4747 Z" id="Fill-8"></path>
            <polygon id="Fill-6" points="13.137915 5.474595 11.906265 5.474595 11.906265 0.958545 10.400565 0.958545 10.400565 0.000945000001 14.506065 0.000945000001 14.506065 0.958545 13.001415 0.958545"></polygon>
            <path d="M8.347815,3.28482 C7.937265,2.05317 7.800765,1.50612 7.664265,1.23207 C7.526715,0.95907 7.526715,0.95907 7.526715,0.82152 C7.390215,1.09557 7.253715,1.91667 6.842115,3.14832 L8.347815,3.28482 Z M9.032415,5.47407 L8.621865,4.10592 L6.569115,4.10592 L6.158565,5.47407 L4.926915,5.47407 L6.842115,0.000420000003 L8.211315,0.000420000003 L10.264065,5.47407 L9.032415,5.47407 Z" id="Fill-4"></path>
            <path d="M3.2844,2.73777 C3.2844,1.50612 2.73735,0.95907 1.7787,0.95907 L1.23165,0.95907 L1.23165,4.51647 L1.7787,4.51647 C2.73735,4.65402 3.2844,3.96942 3.2844,2.73777 M4.51605,2.73777 C4.51605,3.55887 4.24305,4.24347 3.69495,4.79052 C3.01035,5.33757 2.3268,5.61162 1.5057,5.47407 L-2.37296849e-12,5.47407 L-2.37296849e-12,0.000419999999 L1.7787,0.000419999999 C2.60085,0.000419999999 3.2844,0.13692 3.83145,0.68502 C4.37955,1.36857 4.65255,2.05317 4.51605,2.73777" id="Fill-1"></path>
        </g>
    </g>
</svg>