<?xml version="1.0" encoding="UTF-8"?>
<svg width="440px" height="330px" viewBox="0 0 440 330" version="1.1" xmlns="http://www.w3.org/2000/svg" xmlns:xlink="http://www.w3.org/1999/xlink">
    <title>Graphic elements / Icons / Rich icons / dashboard</title>
    <g id="Graphic-elements-/-Icons-/-Rich-icons-/-dashboard" stroke="none" stroke-width="1" fill="none" fill-rule="evenodd">
        <g id="Customer-Dashboard" transform="translate(20.000000, 38.000000)" fill-rule="nonzero">
            <path d="M234.513716,273.443549 L234.513716,249.525461 L164.688279,249.525461 L164.688279,273.443549 C164.632116,274.067038 164.535487,274.686225 164.399002,275.297201 C164.088695,276.707146 163.595764,278.070668 162.932668,279.353311 C161.044038,283.138505 157.096451,285.452497 152.86783,285.253106 L246.38404,285.253106 C242.155419,285.452497 238.207832,283.138505 236.319202,279.353311 C235.647464,278.074455 235.154106,276.709751 234.852868,275.297201 C234.699599,274.687342 234.586307,274.068143 234.513716,273.443549 L234.513716,273.443549 Z" id="Path" fill="#9DADB7"></path>
            <path d="M260.72818,285.253078 L138.44389,285.253078 C137.678023,285.254399 136.920694,285.413869 136.219451,285.721502 C134.848184,286.359957 133.776272,287.502276 133.226933,288.91058 C132.928083,289.648214 132.775629,290.436861 132.778026,291.232628 L266.443908,291.232628 C266.447647,289.663538 265.851822,288.152178 264.778055,287.007099 C264.261043,286.46619 263.644685,286.029723 262.962594,285.721502 C262.258998,285.41027 261.49765,285.25067 260.72818,285.253078 Z" id="Path" fill="#CED6DB"></path>
            <polygon id="Path" fill="#EBEFF2" style="mix-blend-mode: multiply;" points="164.668329 249.535427 182.124688 249.535427 199.581047 249.535427 217.037406 249.535427 234.493766 249.535427 234.493766 254.518362 234.493766 259.501297 234.493766 264.484232 234.493766 269.467167 217.037406 269.467167 199.581047 269.467167 182.124688 269.467167 164.668329 269.467167 164.668329 264.484232 164.668329 259.501297 164.668329 254.518362"></polygon>
            <path d="M393.586035,249.535569 L5.58603491,249.535569 C4.84895766,249.535569 4.11961454,249.385287 3.44139651,249.096928 C2.78773478,248.810113 2.19516356,248.40077 1.6957606,247.891058 C0.657698028,246.823457 0.0797957234,245.393117 0.0797957234,243.90471 L0.0797957234,5.97952218 C0.0797957234,4.49111481 0.657698028,3.06077481 1.6957606,1.99317406 C2.19516356,1.4834625 2.78773478,1.07411939 3.44139651,0.787303754 C4.11961454,0.498945033 4.84895766,0.348805461 5.58603491,0.348805461 L393.61596,0.348805461 C394.353037,0.348805461 395.08238,0.498945033 395.760599,0.787303754 C396.403592,1.07740634 396.985758,1.48657651 397.476309,1.99317406 C398.517121,3.05820741 399.094386,4.49108572 399.08248,5.97952218 L399.08248,243.924642 C399.094386,245.413078 398.517121,246.845956 397.476309,247.91099 C396.976906,248.420701 396.384335,248.830044 395.730673,249.11686 C395.05104,249.398385 394.32175,249.54072 393.586035,249.535569 Z" id="Path" fill="#023852"></path>
            <polygon id="Path" fill="#0099DA" points="12.0498753 224.620751 105.815461 224.620751 199.581047 224.620751 293.346633 224.620751 387.112219 224.620751 387.112219 171.552491 387.112219 118.484232 387.112219 65.4159727 387.112219 12.3477133 293.346633 12.3477133 199.581047 12.3477133 105.815461 12.3477133 12.0498753 12.3477133 12.0498753 65.4159727 12.0498753 118.484232 12.0498753 171.552491"></polygon>
            <path d="M206.064838,237.078089 C206.065757,235.359512 205.384132,233.710783 204.169576,232.493788 C203.57457,231.90647 202.874053,231.436509 202.104738,231.108532 C201.306618,230.770183 200.448041,230.59727 199.581047,230.600235 C198.714269,230.599457 197.856126,230.772283 197.057357,231.108532 C196.292382,231.439045 195.595586,231.908779 195.002494,232.493788 C194.408195,233.082961 193.936904,233.784164 193.61596,234.556724 C192.923803,236.166512 192.923803,237.989666 193.61596,239.599454 C193.936904,240.372014 194.408195,241.073217 195.002494,241.662389 C195.593006,242.250537 196.290434,242.720698 197.057357,243.047645 C197.856126,243.383895 198.714269,243.556721 199.581047,243.555943 C200.448041,243.558908 201.306618,243.385995 202.104738,243.047645 C204.522689,242.044006 206.097454,239.684036 206.094767,237.068123 L206.064838,237.078089 Z" id="Path" fill="#4E7486"></path>
            <polygon id="Path" fill="#FFFFFF" opacity="0.2" points="12.0498753 12.3477133 26.0149626 25.7717406 39.9800499 39.185802 53.9451372 52.5998635 67.9102244 66.0139249 109.326683 105.688055 150.753117 145.342253 192.189526 184.986485 233.63591 224.620751 387.112219 224.620751 387.112219 12.3477133"></polygon>
            <g id="Group" opacity="0.2" style="mix-blend-mode: multiply;" transform="translate(36.907731, 38.866894)" fill="#023852">
                <polygon id="Path" points="315.730673 155.796451 157.965087 155.796451 0.209476309 155.796451 0.209476309 78.0825939 0.209476309 0.358771331 157.965087 0.358771331 315.730673 0.358771331 315.730673 78.0825939"></polygon>
            </g>
            <polygon id="Path" fill="#FFFFFF" points="363.790524 187.139113 243.970075 187.139113 124.139651 187.139113 124.139651 109.41529 124.139651 31.7014334 243.970075 31.7014334 363.790524 31.7014334 363.790524 109.41529"></polygon>
            <polygon id="Path" fill="#023852" points="124.299252 187.188942 84.2294264 187.188942 44.159601 187.188942 44.159601 109.465119 44.159601 31.7412969 84.2294264 31.7412969 124.299252 31.7412969 124.299252 109.465119"></polygon>
            <polygon id="Path" fill="#CED6DB" points="254.523691 187.16901 124.249377 187.16901 124.249377 31.7014334 254.523691 31.7014334 254.523691 187.16901"></polygon>
            <ellipse id="Oval" fill="#0099DA" cx="83.0623441" cy="81.3314676" rx="19.3017456" ry="19.283959"></ellipse>
            <ellipse id="Oval" fill="#FFFFFF" cx="83.0623441" cy="75.5811604" rx="6.66334165" ry="6.65720137"></ellipse>
            <path d="M92.4189526,92.2441784 C92.9958875,92.2496571 93.5395548,91.9748049 93.8767808,91.5070872 C94.2140068,91.0393696 94.3027389,90.4371118 94.1147132,89.8921502 C92.7680798,86.0552901 88.3291771,83.2449147 83.0623441,83.2449147 C77.7955112,83.2449147 73.3466334,86.0552901 72,89.8921502 C71.8168214,90.4369451 71.9075762,91.0365429 72.2437971,91.5028665 C72.5800181,91.9691902 73.1205193,92.2451167 73.6957606,92.2441784 L92.4189526,92.2441784 Z" id="Path" fill="#FFFFFF"></path>
            <rect id="Rectangle" fill="#FFFFFF" x="61.765586" y="115.145666" width="41.0374065" height="4.03617747"></rect>
            <rect id="Rectangle" fill="#FFFFFF" x="61.765586" y="124.653106" width="41.0374065" height="4.03617747"></rect>
            <rect id="Rectangle" fill="#FFFFFF" x="61.765586" y="134.170512" width="41.0374065" height="4.03617747"></rect>
            <rect id="Rectangle" fill="#FFFFFF" x="61.765586" y="143.687918" width="41.0374065" height="4.03617747"></rect>
            <rect id="Rectangle" fill="#FFFFFF" x="61.765586" y="153.304983" width="23.521197" height="3.8268942"></rect>
            <rect id="Rectangle" fill="#CED6DB" x="281.077307" y="124.653106" width="41.0374065" height="4.03617747"></rect>
            <rect id="Rectangle" fill="#CED6DB" x="281.077307" y="134.170512" width="41.0374065" height="4.03617747"></rect>
            <rect id="Rectangle" fill="#CED6DB" x="281.077307" y="143.687918" width="41.0374065" height="4.03617747"></rect>
            <rect id="Rectangle" fill="#CED6DB" x="281.077307" y="153.304983" width="23.521197" height="3.8268942"></rect>
            <polygon id="Path" fill="#0099DA" points="289.117207 83.1950853 284.937656 83.1950853 280.758105 83.1950853 280.758105 98.5524915 280.758105 113.899932 284.937656 113.899932 289.117207 113.899932 289.117207 98.5524915"></polygon>
            <polygon id="Path" fill="#0099DA" points="315.710723 61.5292833 311.531172 61.5292833 307.351621 61.5292833 307.351621 87.7195904 307.351621 113.899932 311.531172 113.899932 315.710723 113.899932 315.710723 87.7195904"></polygon>
            <polygon id="Path" fill="#0099DA" points="302.413965 91.3770648 298.234414 91.3770648 294.054863 91.3770648 294.054863 102.638498 294.054863 113.899932 298.234414 113.899932 302.413965 113.899932 302.413965 102.638498"></polygon>
            <polygon id="Path" fill="#0099DA" points="342.304239 69.0933788 338.124688 69.0933788 333.945137 69.0933788 333.945137 91.4966553 333.945137 113.899932 338.124688 113.899932 342.304239 113.899932 342.304239 91.4966553"></polygon>
            <polygon id="Path" fill="#0099DA" points="329.007481 74.8536519 324.82793 74.8536519 320.648379 74.8536519 320.648379 94.3767918 320.648379 113.899932 324.82793 113.899932 329.007481 113.899932 329.007481 94.3767918"></polygon>
            <path d="M180.548628,113.810239 L163.680798,123.576792 L146.802993,133.303481 C155.343521,148.070148 171.119157,157.164404 188.189526,157.161775 L188.189526,118.294881 C186.617309,118.300553 185.072948,117.880378 183.720698,117.079044 C182.397252,116.283021 181.304041,115.156471 180.548628,113.810239 L180.548628,113.810239 Z" id="Path" fill="#9DADB7"></path>
            <path d="M179.371571,109.41529 C179.372202,108.634348 179.476179,107.856918 179.680798,107.103208 C179.888473,106.376169 180.183205,105.676825 180.558603,105.020341 L163.680798,95.2936519 L146.802993,85.5669625 C138.250467,100.321358 138.250467,118.519188 146.802993,133.273584 L163.680798,123.576792 L180.548628,113.810239 C180.173266,113.157246 179.878514,112.461203 179.670823,111.737338 C179.468928,110.97991 179.368303,110.199109 179.371571,109.41529 Z" id="Path" fill="#9E9D8E"></path>
            <path d="M146.802993,85.5669625 L163.680798,95.2936519 L180.548628,105.020341 C181.31252,103.707391 182.401392,102.612659 183.710723,101.841229 C185.062973,101.039895 186.607333,100.61972 188.179551,100.625392 L188.179551,61.7584846 C171.106427,61.7455807 155.32601,70.8425935 146.793017,85.6167918 L146.802993,85.5669625 Z" id="Path" fill="#FFFFFF"></path>
            <path d="M196.997506,109.41529 C197.004109,110.960199 196.594068,112.478361 195.810474,113.810239 L212.688279,123.576792 L229.566085,133.303481 C238.11861,118.549086 238.11861,100.351256 229.566085,85.5968601 L212.688279,95.3235495 L195.810474,105.050239 C196.590892,106.383446 197.000694,107.900726 196.997506,109.445188 L196.997506,109.41529 Z" id="Path" fill="#023852"></path>
            <path d="M195.810474,105.020341 L212.688279,95.2936519 L229.566085,85.5669625 C221.034872,70.7958509 205.259087,61.699316 188.189526,61.7086617 L188.189526,61.7086617 L188.189526,100.65529 C189.758426,100.650922 191.299234,101.071068 192.648379,101.871126 C193.956195,102.631391 195.045379,103.716139 195.810474,105.020341 Z" id="Path" fill="#0099DA"></path>
            <path d="M188.189526,118.215154 L188.189526,157.082048 L188.189526,157.082048 C205.256331,157.081118 221.027339,147.987338 229.566085,133.223754 L212.688279,123.576792 L195.810474,113.810239 C195.049748,115.12822 193.960352,116.226913 192.648379,116.999317 C191.299234,117.799375 189.758426,118.219521 188.189526,118.215154 Z" id="Path" fill="#FFE700"></path>
        </g>
    </g>
</svg>