<?xml version="1.0" encoding="UTF-8"?>
<svg width="440px" height="330px" viewBox="0 0 440 330" version="1.1" xmlns="http://www.w3.org/2000/svg" xmlns:xlink="http://www.w3.org/1999/xlink">
    <title>Graphic elements / Icons / Rich icons / Devices</title>
    <g id="Graphic-elements-/-Icons-/-Rich-icons-/-Devices" stroke="none" stroke-width="1" fill="none" fill-rule="evenodd">
        <g id="Devices" transform="translate(2.000000, 120.000000)" fill-rule="nonzero">
            <path d="M227.59,144.24 L227.59,124 L190.74,124 L190.74,144.25 C190.632684,145.338683 190.320537,146.397267 189.82,147.37 C188.821283,149.366017 186.739445,150.585323 184.51,150.48 L233.82,150.48 C231.590555,150.585323 229.508717,149.366017 228.51,147.37 C228.002926,146.396334 227.690436,145.333189 227.59,144.24 Z" id="Path" fill="#9DADB7"></path>
            <path d="M240.66,149.819991 L176.17,149.819991 C174.513146,149.819991 173.17,151.163146 173.17,152.819991 L243.67,152.819991 C243.67,152.024619 243.35277,151.262069 242.79,150.7 C242.225483,150.134775 241.458846,149.818043 240.66,149.819991 L240.66,149.819991 Z" id="Path" fill="#CED6DB"></path>
            <g id="Group" opacity="0.5" transform="translate(190.000000, 130.000000)" fill="#8F9C9B">
                <polygon id="Path" style="mix-blend-mode: multiply;" points="0.73 0.65 19.16 0.65 37.6 0.65 37.6 6.6 37.6 12.54 19.16 12.54 0.73 12.54 0.73 6.6"></polygon>
            </g>
            <path d="M309.81,131.460008 L108.52,131.460008 C106.787322,131.46266 105.124846,130.775533 103.899656,129.550344 C102.674467,128.325154 101.98734,126.662678 101.989992,124.93 L101.989992,6.79 C101.995507,3.185864 104.915864,0.265506711 108.52,0.26 L309.81,0.26 C313.414136,0.265506711 316.334493,3.185864 316.340008,6.79 L316.340008,124.93 C316.34266,126.662678 315.655533,128.325154 314.430344,129.550344 C313.205154,130.775533 311.542678,131.46266 309.81,131.460008 Z" id="Path" fill="#023852"></path>
            <polygon id="Path" fill="#0099DA" points="108.71 119.31 209.5 119.31 310.29 119.31 310.29 62.95 310.29 6.58 209.5 6.58 108.71 6.58 108.71 62.95"></polygon>
            <path d="M212.55,125 C212.55,123.388818 211.412766,122.001616 209.832873,121.685637 C208.252979,121.369659 206.669685,122.212755 206.05,123.7 C205.430315,125.187245 205.94653,126.905137 207.283363,127.804461 C208.620196,128.703785 210.405966,128.534501 211.55,127.4 C212.188132,126.764078 212.547793,125.900891 212.55,125 Z" id="Path" fill="#4E7486"></path>
            <polygon id="Path" fill="#66C3E9" points="118.12 24.74 142.97 24.74 167.82 24.74 167.82 19.46 167.82 14.17 142.97 14.17 118.12 14.17 118.12 19.46"></polygon>
            <polygon id="Path" fill="#66C3E9" points="118.12 54.45 142.97 54.45 167.82 54.45 167.82 41.59 167.82 28.73 142.97 28.73 118.12 28.73 118.12 41.59"></polygon>
            <polygon id="Path" fill="#66C3E9" points="170.82 54.45 195.67 54.45 220.51 54.45 220.51 34.3 220.51 14.15 195.67 14.15 170.82 14.15 170.82 34.3"></polygon>
            <polygon id="Path" fill="#66C3E9" points="224.06 54.45 262.96 54.45 301.87 54.45 301.87 34.3 301.87 14.15 262.96 14.15 224.06 14.15 224.06 34.3"></polygon>
            <g id="Group" opacity="0.2" transform="translate(108.000000, 6.000000)" fill="#FFFFFF">
                <path d="M0.71,0.59 L15.71,14.84 L30.71,29.08 C45.57,43.1266667 60.4333333,57.17 75.3,71.21 L119.85,113.31 L202.29,113.31 L202.29,0.59 L0.71,0.59 Z" id="Path"></path>
            </g>
            <path d="M41.11,153 L5.76,153 C4.45340041,153 3.2004613,152.480275 2.27749432,151.555432 C1.35452734,150.630589 0.83734431,149.376597 0.839989823,148.07 L0.839989823,71 C0.83734431,69.6934031 1.35452734,68.4394113 2.27749432,67.5145684 C3.2004613,66.5897254 4.45340041,66.0699891 5.76,66.0699891 L41.11,66.0699891 C42.4155126,66.0672426 43.6681491,66.585575 44.59,67.51 C45.4966605,68.4452562 46.0025465,69.6974138 46.0000096,71 L46.0000096,148.1 C45.9836853,150.795516 43.8054766,152.978179 41.11,153 Z" id="Path" fill="#023852"></path>
            <polygon id="Path" fill="#0099DA" points="40.63 138.76 23.44 138.76 6.24 138.76 6.24 108.25 6.24 77.74 23.44 77.74 40.63 77.74 40.63 108.25"></polygon>
            <path d="M26.35,146.26 C26.3406754,144.94368 25.4517648,143.796344 24.1795059,143.458495 C22.907247,143.120647 21.5662329,143.675827 20.9050899,144.814103 C20.243947,145.95238 20.4261568,147.392291 21.35,148.33 C22.4926579,149.465169 24.3373421,149.465169 25.48,148.33 C26.0352485,147.784175 26.3486046,147.038604 26.35,146.26 L26.35,146.26 Z" id="Path" fill="#4E7486"></path>
            <path d="M17.56,73.21 L29.31,73.21 C29.5772459,73.2088906 29.8329286,73.1008556 30.02,72.91 C30.2047442,72.7237394 30.3088954,72.4723399 30.31,72.21 L30.31,71.21 C30.31,70.6577153 29.8622847,70.21 29.31,70.21 L17.56,70.21 C17.0077153,70.21 16.56,70.6577153 16.56,71.21 L16.56,72.21 C16.5611046,72.4723399 16.6652558,72.7237394 16.85,72.91 C17.0370714,73.1008556 17.2927541,73.2088906 17.56,73.21 Z" id="Path" fill="#4E7486"></path>
            <polygon id="Path" fill="#023852" points="35.72 88.56 23.07 88.56 10.42 88.56 10.42 85.98 10.42 83.4 23.07 83.4 35.72 83.4 35.72 85.98"></polygon>
            <polygon id="Path" fill="#66C3E9" points="10.42 116.32 23.07 116.32 35.72 116.32 35.72 103.67 35.72 91.01 23.07 91.01 10.42 91.01 10.42 103.67"></polygon>
            <polygon id="Path" fill="#66C3E9" points="10.42 132.01 23.07 132.01 35.72 132.01 35.72 125.45 35.72 118.9 23.07 118.9 10.42 118.9 10.42 125.45"></polygon>
            <path d="M40.67,120.62 L40.67,77.74 L6.2,77.74 L6.2,86.14 C11.55,91.49 17.49,97.44 23.44,103.38 L40.67,120.62 Z" id="Path" fill="#FFFFFF" opacity="0.2"></path>
            <g id="Group" style="mix-blend-mode: multiply;" transform="translate(102.000000, 39.000000)" fill="#06233C" opacity="0.2">
                <path d="M214.31,0.22 L145.55,0.22 C145.182154,0.22 144.818203,0.295328502 144.48,0.44 C143.815921,0.717871103 143.287871,1.2459212 143.01,1.91 C142.868493,2.24883545 142.797058,2.61281478 142.799913,2.98 L142.799913,92.12 L214.31,92.12 L214.31,0.22 L214.31,0.22 Z" id="Path"></path>
                <path d="M36.59,0.22 L0.15,0.22 L0.15,92.12 L42.36,92.12 L42.36,6 C42.3490639,2.81623261 39.7737437,0.236449077 36.59,0.22 L36.59,0.22 Z" id="Path"></path>
            </g>
            <path d="M413.76,151.34 L257.19,151.34 C256.461356,151.338691 255.763242,151.047211 255.25,150.53 C254.998739,150.277201 254.798436,149.978443 254.66,149.65 C254.515329,149.311797 254.44,148.947846 254.44,148.58 L254.44,50.69 C254.445485,49.1734946 255.673495,47.9454847 257.19,47.94 L413.76,47.94 C414.127846,47.94 414.491797,48.0153285 414.83,48.16 C415.158443,48.2984355 415.457201,48.4987391 415.71,48.75 C416.22928,49.2610418 416.518118,49.9614744 416.510167,50.69 L416.510167,148.58 C416.512942,148.947185 416.441507,149.311165 416.3,149.65 C416.022129,150.314079 415.494079,150.842129 414.83,151.12 C414.491797,151.264671 414.127846,151.34 413.76,151.34 L413.76,151.34 Z" id="Path" fill="#023852"></path>
            <polygon id="Path" fill="#9DADB7" points="436.86 149.68 386.17 149.68 335.48 149.68 284.78 149.68 234.09 149.68 234.09 148.5 234.09 147.31 234.09 146.13 234.09 144.95 284.78 144.95 335.48 144.95 386.17 144.95 436.86 144.95 436.86 146.13 436.86 147.31 436.86 148.5"></polygon>
            <path d="M426.45,153 L244.5,153 C243.69511,152.966779 242.893331,152.87992 242.1,152.74 C241.04,152.57 239.8,152.33 238.61,152.03 C237.532115,151.791883 236.477859,151.457198 235.46,151.03 C234.63,150.63 234.09,150.2 234.09,149.74 L436.86,149.74 C436.86,150.2 436.32,150.63 435.49,151.03 C434.472141,151.457198 433.417885,151.791883 432.34,152.03 C431.15,152.33 429.91,152.57 428.85,152.74 C428.056719,152.880275 427.254917,152.967137 426.45,153 Z" id="Path" fill="#CED6DB"></path>
            <g id="Group" opacity="0.6" style="mix-blend-mode: multiply;" transform="translate(301.000000, 144.000000)" fill="#023852">
                <polygon id="Path" points="68.31 0.95 51.39 0.95 34.48 0.95 17.56 0.95 0.64 0.95 2.42 1.75 4.19 2.54 5.97 3.34 7.74 4.14 21.11 4.14 34.48 4.14 47.84 4.14 61.21 4.14 62.99 3.34 64.76 2.54 66.54 1.75"></polygon>
            </g>
            <polygon id="Path" fill="#0099DA" points="412.2 141.08 373.84 141.08 335.48 141.08 297.12 141.08 258.76 141.08 258.76 119.13 258.76 97.19 258.76 75.24 258.76 53.3 297.12 53.3 335.48 53.3 373.84 53.3 412.2 53.3 412.2 75.24 412.2 97.19 412.2 119.13"></polygon>
            <polygon id="Path" fill="#66C3E9" points="357.36 128.09 382.21 128.09 407.06 128.09 407.06 122.81 407.06 117.52 382.21 117.52 357.36 117.52 357.36 122.81"></polygon>
            <polygon id="Path" fill="#66C3E9" points="265.57 96.79 295.64 96.79 325.71 96.79 325.71 78.67 325.71 60.54 295.64 60.54 265.57 60.54 265.57 78.67"></polygon>
            <polygon id="Path" fill="#66C3E9" points="329.25 96.79 368.16 96.79 407.06 96.79 407.06 78.67 407.06 60.54 368.16 60.54 329.25 60.54 329.25 78.67"></polygon>
            <g id="Group" opacity="0.2" transform="translate(259.000000, 53.000000)" fill="#FFFFFF">
                <path d="M0,0.47 L11.67,11.53 C15.55,15.2166667 19.4366667,18.9 23.33,22.58 L57.87,55.27 L92.43,87.93 L153.05,87.93 L153.05,0.47 L0,0.47 Z" id="Path"></path>
            </g>
            <path d="M131.72,49.65 C131.709027,46.4678732 129.132127,43.8909729 125.95,43.88 L57.53,43.88 C54.3478732,43.8909729 51.7709729,46.4678732 51.76,49.65 L51.76,147.27 C51.7819835,150.441051 54.3588728,153 57.53,153 L126,153 C127.530299,153 128.997921,152.392091 130.080006,151.310006 C131.162091,150.227921 131.77,148.760299 131.77,147.23 L131.77,49.65 L131.72,49.65 Z" id="Path" fill="#023852"></path>
            <path d="M95.2600472,146.62 C95.2493548,144.938691 94.0511536,143.499643 92.3995864,143.184623 C90.7480191,142.869602 89.1042454,143.766571 88.4754766,145.325918 C87.8467078,146.885265 88.4085121,148.67158 89.8166478,149.59031 C91.2247835,150.509041 93.0860631,150.303655 94.26,149.1 C94.9056563,148.436457 95.2647852,147.545818 95.2600472,146.62 L95.2600472,146.62 Z" id="Path" fill="#4E7486"></path>
            <polygon id="Path" fill="#0099DA" points="126.42 140.15 91.74 140.15 57.06 140.15 57.06 94.58 57.06 49 91.74 49 126.42 49 126.42 94.58"></polygon>
            <polygon id="Path" fill="#66C3E9" points="119.9 101.5 107.23 101.5 94.56 101.5 94.56 87.22 94.56 72.95 107.23 72.95 119.9 72.95 119.9 87.22"></polygon>
            <polygon id="Path" fill="#66C3E9" points="90.99 101.5 78.32 101.5 65.65 101.5 65.65 87.22 65.65 72.95 78.32 72.95 90.99 72.95 90.99 87.22"></polygon>
            <polygon id="Path" fill="#66C3E9" points="119.9 133.21 107.23 133.21 94.56 133.21 94.56 118.93 94.56 104.66 107.23 104.66 119.9 104.66 119.9 118.93"></polygon>
            <polygon id="Path" fill="#66C3E9" points="90.99 133.21 78.32 133.21 65.65 133.21 65.65 118.93 65.65 104.66 78.32 104.66 90.99 104.66 90.99 118.93"></polygon>
            <polygon id="Path" fill="#023852" points="119.9 68.25 92.76 68.25 65.61 68.25 65.61 65.83 65.61 63.41 92.76 63.41 119.9 63.41 119.9 65.83"></polygon>
            <polygon id="Path" fill="#FFFFFF" opacity="0.2" points="126.42 92.81 126.42 106.18 126.42 119.56 93.94 84.28 61.45 49 93.94 49 126.42 49 126.42 70.9"></polygon>
        </g>
    </g>
</svg>