<?xml version="1.0" encoding="UTF-8"?>
<svg width="440px" height="330px" viewBox="0 0 440 330" version="1.1" xmlns="http://www.w3.org/2000/svg" xmlns:xlink="http://www.w3.org/1999/xlink">
    <!-- Generator: Sketch 59.1 (86144) - https://sketch.com -->
    <title>Graphic elements / Rich icons / Devices</title>
    <desc>Created with Sketch.</desc>
    <g id="Graphic-elements-/-Rich-icons-/-Devices" stroke="none" stroke-width="1" fill="none" fill-rule="evenodd">
        <g id="bannerAsset-221" transform="translate(20.000000, 67.000000)" fill-rule="nonzero">
            <path d="M108,255.67702 L108,255.67702 C85.8690624,255.680314 64.6436043,246.890293 48.9946681,231.241357 C33.3457319,215.592421 24.5557107,194.366962 24.5590053,172.236025 L24.5590053,149.714286 L191.440994,149.714286 L191.440994,172.236025 C191.440994,194.365952 182.649914,215.589496 167.001693,231.237717 C151.353471,246.885939 130.129927,255.67702 108,255.67702 Z" id="Path" fill="#0099DA"></path>
            <path d="M140.372671,153.329193 L140.372671,219.167702 C142.651049,218.294713 144.832538,217.187316 146.881988,215.863354 C152.668558,212.10529 157.198239,206.701688 159.888199,200.347826 C161.686022,196.099687 162.607136,191.532143 162.596368,186.919255 L162.596368,153.378882 L140.372671,153.378882 L140.372671,153.329193 Z" id="Path" fill="#141212"></path>
            <path d="M57.4533978,153.329193 L57.4533978,186.869565 C57.4486608,191.481849 58.3695322,196.048188 60.1614907,200.298137 C63.8341997,208.973238 70.8868805,215.774678 79.689441,219.130435 L79.689441,153.291925 L57.4533978,153.291925 L57.4533978,153.329193 Z" id="Path" fill="#141212"></path>
            <path d="M110.024845,153.329193 L79.689441,153.329193 L79.689441,219.167702 C81.6158539,219.89635 83.6028744,220.453381 85.6273292,220.832298 C87.7123316,221.222517 89.8291075,221.417976 91.9503106,221.416162 L128.111801,221.416162 C130.232978,221.417403 132.349701,221.221949 134.434783,220.832298 C136.460015,220.439647 138.446919,219.870178 140.372671,219.130435 L140.372671,153.291925 L110.024845,153.291925 L110.024845,153.329193 Z" id="Path" fill="#080707"></path>
            <path d="M110.024845,168.720472 C98.9935565,168.709517 89.491362,176.494037 87.3313379,187.311788 C85.1713138,198.129539 90.9553184,208.966317 101.144921,213.192598 C111.334523,217.418879 123.090542,213.857073 129.221099,204.686157 C135.351657,195.51524 134.148564,183.290551 126.347826,175.490683 C122.026617,171.148641 116.150699,168.711522 110.024845,168.720472 L110.024845,168.720472 Z M110.024845,209.875776 C101.415849,209.868978 94.0099182,203.783163 92.3345106,195.338764 C90.6591031,186.894366 95.1806098,178.442092 103.134904,175.149061 C111.089199,171.856029 120.262005,174.638937 125.045724,181.796513 C129.829443,188.954089 128.892407,198.493843 122.807453,204.583851 C119.431129,208.001844 114.829235,209.929362 110.024845,209.937888 L110.024845,209.875776 Z" id="Shape" fill="#1B181A"></path>
            <path d="M110.024845,173.751482 C101.415849,173.758351 94.0099182,179.844166 92.3345106,188.288565 C90.6591031,196.732963 95.1806098,205.185237 103.134904,208.478269 C111.089199,211.7713 120.262005,208.988392 125.045724,201.830816 C129.829443,194.673241 128.892407,185.133486 122.807453,179.043478 C119.424023,175.643602 114.821362,173.738127 110.024845,173.751482 L110.024845,173.751482 Z M110.024845,202.111827 C105.119803,202.105694 100.901549,198.636896 99.9481184,193.825406 C98.9946882,189.013915 101.571398,184.198648 106.10346,182.322514 C110.635522,180.446379 115.861779,182.031457 118.588139,186.109009 C121.3145,190.186561 120.782288,195.621906 117.31677,199.093168 C115.385762,201.031273 112.760719,202.11796 110.024845,202.111827 Z" id="Shape" fill="#121011"></path>
            <path d="M110.024845,181.515434 C105.119803,181.521635 100.901549,184.990433 99.9481184,189.801923 C98.9946882,194.613414 101.571398,199.428681 106.10346,201.304816 C110.635522,203.18095 115.861779,201.595872 118.588139,197.51832 C121.3145,193.440769 120.782288,188.005423 117.31677,184.534161 C115.388913,182.591354 112.761813,181.503815 110.024845,181.515434 Z M106.546584,198.062112 C106.081024,198.065459 105.633561,197.881999 105.304348,197.552795 C104.978608,197.221287 104.795762,196.775321 104.795031,196.310559 C104.791684,195.845 104.975144,195.397536 105.304348,195.068323 C105.631459,194.734466 106.079185,194.54633 106.546584,194.54633 C107.013983,194.54633 107.461709,194.734466 107.78882,195.068323 C108.118024,195.397536 108.301484,195.845 108.298137,196.310559 C108.297406,196.775321 108.11456,197.221287 107.78882,197.552795 C107.459606,197.881999 107.012143,198.065459 106.546584,198.062112 Z" id="Shape" fill="#1B181A"></path>
            <path d="M106.546584,194.583851 C106.079928,194.574737 105.630294,194.759087 105.304348,195.093168 C104.975144,195.422381 104.791684,195.869844 104.795031,196.335404 C104.795762,196.800166 104.978608,197.246131 105.304348,197.57764 C105.631459,197.911496 106.079185,198.099632 106.546584,198.099632 C107.013983,198.099632 107.461709,197.911496 107.78882,197.57764 C108.11456,197.246131 108.297406,196.800166 108.298137,196.335404 C108.301484,195.869844 108.118024,195.422381 107.78882,195.093168 C107.462874,194.759087 107.01324,194.574737 106.546584,194.583851 Z" id="Path" fill="#A39C95"></path>
            <path d="M157.279503,149.714286 L157.279503,157.031056 C157.282799,179.161993 148.492777,200.387452 132.843841,216.036388 C117.194905,231.685324 95.9694469,240.475345 73.8385093,240.47205 L73.8385093,240.47205 C71.1055901,240.47205 68.4016563,240.339545 65.7267081,240.074534 C63.0517598,239.809524 60.4223602,239.424431 57.8385093,238.919255 C72.287249,249.820004 89.900506,255.704176 108,255.677112 L108,255.677112 C130.129927,255.677112 151.353471,246.885939 167.001693,231.237717 C182.649914,215.589496 191.440994,194.365952 191.440994,172.236025 L191.440994,149.714286 L157.279503,149.714286 Z" id="Path" fill="#FFFFFF" opacity="0.2"></path>
            <path d="M197.167702,160.807453 L21.7888199,160.807453 C16.0109595,160.780102 11.3416149,156.088484 11.3416149,150.310559 L11.3416149,135.403727 C11.3484421,129.634711 16.0198168,124.957782 21.7888199,124.944099 L197.167702,124.944099 C202.941557,124.950945 207.620484,129.629872 207.627329,135.403727 L207.627329,150.310559 C207.606886,156.078763 202.935906,160.749744 197.167702,160.770186 L197.167702,160.807453 Z" id="Path" fill="#003A5D"></path>
            <polygon id="Path" fill="#1F3048" points="6.64596273 131.950311 30.7329193 131.950311 54.8074534 131.950311 57.4285714 131.950311 60.0372671 131.950311 61.7763975 131.950311 63.5031056 131.950311 71.7391304 131.950311 79.9751553 131.950311 118.521739 131.950311 157.068323 131.950311 158.807453 131.950311 160.546584 131.950311 163.15528 131.950311 165.763975 131.950311 189.850932 131.950311 213.937888 131.950311 214.968944 130.198758 216 128.459627 188.509317 128.459627 161.031056 128.459627 160.782609 128.459627 160.546584 128.459627 158.807453 128.459627 157.068323 128.459627 122.086957 128.459627 87.1180124 128.459627 75.3167702 128.459627 63.5031056 128.459627 61.7763975 128.459627 60.0372671 128.459627 59.7888199 128.459627 59.552795 128.459627 31.863354 128.459627 4.16149068 128.459627 5.40372671 130.198758"></polygon>
            <polygon id="Path" fill="#125275" points="6.64596273 131.950311 110.285714 131.950311 213.937888 131.950311 213.937888 136.981366 213.937888 142.024845 110.285714 142.024845 6.64596273 142.024845 6.64596273 136.981366"></polygon>
            <path d="M10.7080745,73.6397235 L209.540373,73.6397235 C212.160276,73.6407534 214.662594,74.7275379 216.451711,76.6414222 C218.240828,78.5553064 219.156714,81.1251019 218.981366,83.7391304 L217.478261,106.099379 L215.987578,128.459627 L4.26086957,128.459627 L2.75776398,106.099379 L1.24223602,83.7391304 C1.05935902,81.1232394 1.97269756,78.549134 3.76343473,76.6335165 C5.5541719,74.717899 8.06096184,73.6333669 10.6832298,73.6397235 L10.7080745,73.6397235 Z" id="Path" fill="#023852"></path>
            <path d="M70.5590277,102.658385 C70.5634552,97.4251292 66.8703733,92.9175725 61.7384771,91.8925706 C56.606581,90.8675687 51.4653218,93.6106281 49.4591323,98.4440731 C47.4529428,103.277518 49.140632,108.855029 53.4899965,111.765358 C57.8393611,114.675687 63.6389181,114.108184 67.3416149,110.409938 C69.4062436,108.359448 70.5647804,105.568224 70.5590277,102.658385 Z" id="Path" fill="#CED3D7"></path>
            <path d="M31.8385093,100.621118 C30.3944523,100.626633 29.1548049,101.650128 28.8760404,103.067033 C28.5972759,104.483939 29.3568117,105.900757 30.6911545,106.452898 C32.0254972,107.00504 33.5640776,106.539167 34.368004,105.33957 C35.1719303,104.139973 35.0179388,102.539799 34,101.515528 C33.4266448,100.942514 32.649115,100.620777 31.8385093,100.621118 L31.8385093,100.621118 Z" id="Path" fill="#0099DA"></path>
            <path d="M209.78882,73.6645963 L110.559006,73.6645963 L110.559006,160.509348 L197.515528,160.509348 C203.172068,160.523182 207.778283,155.966914 207.826087,150.310559 L207.826087,141.776398 L214.136646,141.776398 L214.136646,131.677019 L215.167702,129.937888 L216.198758,128.198758 L217.689441,105.962733 L219.180124,83.7267081 C219.359436,81.1260779 218.449738,78.5679216 216.668718,76.6643985 C214.887699,74.7608753 212.395617,73.6832666 209.78882,73.689441 L209.78882,73.6645963 Z" id="Path" fill="#C0CACE" style="mix-blend-mode: multiply;"></path>
            <path d="M347.478261,23.2173913 L347.478261,23.2173913 C321.423839,18.8430287 294.717754,25.3892544 273.639752,41.3167702 C272.743854,41.9927949 272.153864,42.9975997 272.000038,44.1093454 C271.846211,45.2210911 272.1412,46.3483458 272.819876,47.242236 C273.493643,48.1373271 274.496308,48.7270455 275.606026,48.880914 C276.715744,49.0347825 277.841034,48.7401165 278.732919,48.0621118 C283.148168,44.7256988 287.868966,41.8141935 292.832298,39.3664596 C297.797681,36.9335583 302.985001,34.9825935 308.322981,33.5403727 C320.629556,30.1888002 333.513086,29.5236525 346.099379,31.5900621 L346.099379,31.5900621 C358.457532,33.601608 370.234179,38.2631089 380.621118,45.2546584 C381.43555,45.8119959 382.422834,46.058817 383.403727,45.9503106 C384.374993,45.8455813 385.279636,45.4064343 385.962733,44.7080745 C386.049689,44.6086957 386.149068,44.5093168 386.236025,44.3975155 C386.322981,44.2857143 386.397516,44.1863354 386.484472,44.0745342 C387.779787,42.131316 387.263785,39.5069201 385.329193,38.1987578 C373.933313,30.5469321 361.02403,25.437449 347.478261,23.2173913 L347.478261,23.2173913 Z" id="Path" fill="#0099DA"></path>
            <path d="M390.186335,18 C377.620723,10.120414 363.585352,4.87563991 348.931677,2.58385093 C333.227899,0.120792501 317.178782,1.04841365 301.863354,5.30434783 L301.863354,5.30434783 C288.428227,9.03443109 275.832496,15.304887 264.757764,23.7763975 C263.557263,24.6928614 262.936882,26.1801687 263.130312,27.6780652 C263.323743,29.1759616 264.301598,30.4568811 265.69553,31.0383136 C267.089461,31.6197461 268.687698,31.4133583 269.888199,30.4968944 C280.126912,22.6810143 291.76386,16.8920538 304.173913,13.4409938 L304.173913,13.4409938 C318.323218,9.519083 333.148212,8.67194052 347.652174,10.9565217 C361.183166,13.0649642 374.142521,17.9088719 385.73913,25.1925466 C387.409337,26.2324327 389.575684,25.9854383 390.968944,24.5962733 C391.078921,24.4862626 391.182606,24.3701362 391.279503,24.2484472 C391.381716,24.1210973 391.477089,23.988405 391.565217,23.8509317 C392.798552,21.8707854 392.198763,19.2661476 390.223602,18.0248447 L390.186335,18 Z" id="Path" fill="#0099DA"></path>
            <path d="M346.236025,43.6521739 C334.083209,41.5420676 321.616781,42.1015944 309.701863,45.2919255 L309.701863,45.2919255 C299.440315,48.0475985 289.795362,52.7267496 281.279503,59.0807453 C279.642396,60.5448269 279.395805,63.0173222 280.711504,64.7758984 C282.027203,66.5344745 284.468765,66.9957967 286.335404,65.8385093 C290.147201,62.9726742 294.223627,60.4769032 298.509317,58.3850932 C302.807082,56.3117885 307.290672,54.6481188 311.900621,53.4161491 L311.900621,53.4161491 C322.625071,50.547344 333.845431,50.0471542 344.782609,51.9503106 C356.124259,53.8901747 366.863669,58.4265762 376.161491,65.2049689 C376.978,65.8036639 377.985728,66.082115 378.993789,65.9875776 C379.992,65.9019694 380.92641,65.4612101 381.627329,64.7453416 L381.850932,64.5093168 C381.928117,64.4236758 381.998712,64.3323177 382.062112,64.2360248 C382.721155,63.330047 382.993248,62.199346 382.818519,61.0927281 C382.64379,59.9861103 382.036555,58.9942506 381.130435,58.3354037 C370.765281,50.8419402 358.833816,45.8000574 346.236025,43.5900621 L346.236025,43.6521739 Z" id="Path" fill="#0099DA"></path>
            <path d="M314.347826,103.714286 L334.832298,103.714286 C364.797241,103.80297 389.066595,128.072324 389.15528,158.037267 L389.15528,221.118012 C389.15528,250.993789 364.708075,243.57764 334.832298,243.57764 L314.347826,243.57764 C284.459627,243.57764 260.012422,251.031056 260.012422,221.118012 L260.012422,158.037267 C260.101141,128.067493 284.378032,103.796151 314.347826,103.714286 Z" id="Path" fill="#DCE2E6"></path>
            <path d="M334.832298,103.714285 L314.347826,103.714285 C309.503179,103.714285 304.680798,104.369656 300.012422,105.664596 C323.578986,112.178208 339.925198,133.587227 340,158.037267 L340,221.118012 C340,236.124224 333.78882,241.726708 323.850932,243.57764 L334.782609,243.57764 C364.596273,243.57764 389.10559,251.031056 389.10559,221.118012 L389.10559,158.037267 C389.017056,128.091637 364.777834,103.830224 334.832298,103.714285 Z" id="Path" fill="#F5F6F7"></path>
            <path d="M345.192547,159.962733 C344.491402,159.245667 343.53084,158.841458 342.52795,158.841458 C341.525061,158.841458 340.564499,159.245667 339.863354,159.962733 L324.583851,175.242236 L309.31677,159.962733 C307.845154,158.494548 305.461974,158.497329 303.993789,159.968944 C302.525604,161.44056 302.528384,163.82374 304,165.291925 L320.832298,182.124224 L320.832298,225.602484 L328.360248,225.602484 L328.360248,182.124224 L345.204969,165.291925 C345.920403,164.589111 346.322375,163.627606 346.320048,162.624715 C346.3177,161.621825 345.91125,160.662205 345.192547,159.962733 L345.192547,159.962733 Z" id="Path" fill="#0099DA"></path>
            <path d="M392.944099,263.254658 L249.354037,263.254658 C247.462815,263.251835 245.657046,262.466637 244.365205,261.085379 C243.073363,259.704121 242.410595,257.849916 242.534161,255.962733 L243.627329,239.813665 L244.372671,228.63354 C244.55591,225.838596 246.876074,223.66514 249.677019,223.664596 L392.621118,223.664596 C395.422063,223.66514 397.742227,225.838596 397.925466,228.63354 L398.670807,239.813665 L399.763975,255.962733 C399.887542,257.849916 399.224773,259.704121 397.932932,261.085379 C396.641091,262.466637 394.835321,263.251835 392.944099,263.254658 Z" id="Path" fill="#9DADB7"></path>
            <path d="M320.757764,223.664596 L249.689441,223.664596 C246.888496,223.66514 244.568333,225.838596 244.385093,228.63354 L243.639752,239.813665 L242.546584,255.962733 C242.423017,257.849916 243.085786,259.704121 244.377627,261.085379 C245.669468,262.466637 247.475238,263.251835 249.36646,263.254658 L320.770186,263.254658 L320.757764,223.664596 Z" id="Path" fill="#CED3D7" style="mix-blend-mode: multiply;"></path>
            <path d="M350.161481,242.298137 C350.162358,246.07237 352.828609,249.32066 356.530274,250.057215 C360.23194,250.793771 363.938557,248.813552 365.384145,245.327133 C366.829734,241.840714 365.611873,237.818638 362.475083,235.719737 C359.338292,233.620835 355.155786,234.029396 352.484472,236.695652 C350.99447,238.178951 350.158259,240.195693 350.161481,242.298137 L350.161481,242.298137 Z" id="Path" fill="#F7F8F9"></path>
            <path d="M378.124224,243.751553 C378.707246,243.751884 379.266253,243.519338 379.677019,243.10559 C380.091972,242.692902 380.325281,242.131816 380.325281,241.546584 C380.325281,240.961351 380.091972,240.400265 379.677019,239.987578 C378.813302,239.144927 377.435146,239.144927 376.571429,239.987578 C376.156476,240.400265 375.923166,240.961351 375.923166,241.546584 C375.923166,242.131816 376.156476,242.692902 376.571429,243.10559 C376.982195,243.519338 377.541201,243.751884 378.124224,243.751553 L378.124224,243.751553 Z" id="Path" fill="#0099DA"></path>
        </g>
    </g>
</svg>