<svg width="115" height="91" viewBox="0 0 115 91" xmlns="http://www.w3.org/2000/svg">
<defs>
<style>
.icon-blink {
  animation: blink-animation 1s steps(5, start) infinite;
  -webkit-animation: blink-animation 1s steps(5, start) infinite;
}

.icon-blink2 {
  animation: blink-animation 1s steps(5, start) infinite;
  -webkit-animation: blink-animation 1s steps(5, start) infinite;
  animation-delay: 500ms;
}

.icon-blink3 {
  animation: blink-animation 1s steps(5, start) infinite;
  -webkit-animation: blink-animation 1s steps(5, start) infinite;
  animation-delay: 350ms;
}

.icon-blink4 {
  animation: blink-animation 1s steps(5, start) infinite;
  -webkit-animation: blink-animation 1s steps(5, start) infinite;
  animation-delay: 450ms;
}

.icon-blink5 {
  animation: blink-animation 1s steps(5, start) infinite;
  -webkit-animation: blink-animation 1s steps(5, start) infinite;
  animation-delay: 500ms;
}

#camara-numer {
  stroke-dasharray: 5;
  stroke-dashoffset: 2;
  animation: dash 2s linear forwards;
  -webkit-animation: dash 2s linear forwards;
}

.test-stroke {
  fill: none;
  stroke: #000;
  stroke-width: 2;
  stroke-miterlimit: 5;
}

.scale-height {
  animation-duration: 3000ms;
  animation-iteration-count: infinite;
  transform-origin: 50% 86%;
  animation-name: scale-height;
}

/* .scale-height1 {
    animation-name: scale-height;
}

.scale-height2 {
    animation-name: scale-height;
    animation-delay: 110ms;
}

.scale-height3 {
    animation-name: scale-height;
    animation-delay: 100ms;
}

.scale-height4 {
    animation-name: scale-height;
    animation-delay: 80ms;
}

.scale-height5 {
    animation-name: scale-height;
    animation-delay: 100ms;
} */

.animate-line {
  stroke-dasharray: 241;
  stroke-dashoffset: 0;
  -webkit-animation: dash 3s linear forwards;
  -o-animation: dash 3s linear forwards;
  -moz-animation: dash 3s linear forwards;
  animation: dash 3s linear forwards;
}

.animate-line-long {
  stroke-dasharray: 350;
  stroke-dashoffset: 0;
  -webkit-animation: dash-long 4s linear forwards;
  -o-animation: dash-long 4s linear forwards;
  -moz-animation: dash-long 4s linear forwards;
  animation: dash-long 4s linear forwards;
}

.number3-dash-animate {
  stroke-dasharray: 65;
  stroke-dashoffset: 0;
  -webkit-animation: dash-number3 2s linear forwards;
  -o-animation: dash-number3 2s linear forwards;
  -moz-animation: dash-number3 2s linear forwards;
  animation: dash-number3 2s linear forwards;
}

.backup-local-animation {
  -webkit-animation: backup-local-animation 2s ease infinite;
  -o-animation: backup-local-animation 2s ease infinite;
  -moz-animation: backup-local-animation 2s ease infinite;
  animation: backup-local-animation 2s ease infinite;
}

.calender {
  -webkit-animation: calender 500ms ease forwards;
  -o-animation: calender 500ms ease forwards;
  -moz-animation: calender 500ms ease forwards;
  animation: calender 500ms ease forwards;
}

.calender-blue-month {
  -webkit-animation: calender-blue 500ms ease forwards;
  -o-animation: calender-blue 500ms ease forwards;
  -moz-animation: calender-blue 500ms ease forwards;
  animation: calender-blue 500ms ease forwards;
  fill: #cad3d6;
  animation-delay: 1200ms;
}

.calender-blue-week {
  -webkit-animation: calender-blue 500ms ease forwards;
  -o-animation: calender-blue 500ms ease forwards;
  -moz-animation: calender-blue 500ms ease forwards;
  animation: calender-blue 500ms ease forwards;
  fill: #cad3d6;
  animation-delay: 400ms;
}

.calender:nth-of-type(2) {
  animation-delay: 50ms;
}

.calender:nth-of-type(3) {
  animation-delay: 100ms;
}

.calender:nth-of-type(18) {
  animation-delay: 150ms;
}

.calender:nth-of-type(5) {
  animation-delay: 200ms;
}

.calender:nth-of-type(6) {
  animation-delay: 250ms;
}

.calender:nth-of-type(7) {
  animation-delay: 300ms;
}

.calender:nth-of-type(8) {
  animation-delay: 350ms;
}

.calender:nth-of-type(9) {
  animation-delay: 400ms;
}

.calender:nth-of-type(10) {
  animation-delay: 450ms;
}

.calender:nth-of-type(11) {
  animation-delay: 500ms;
}

.calender:nth-of-type(14) {
  animation-delay: 550ms;
}

.calender:nth-of-type(13) {
  animation-delay: 600ms;
}

.calender:nth-of-type(12) {
  animation-delay: 650ms;
}

.calender:nth-of-type(15) {
  animation-delay: 700ms;
}

.calender:nth-of-type(16) {
  animation-delay: 750ms;
}

.calender:nth-of-type(17) {
  animation-delay: 800ms;
}

.calender:nth-of-type(4) {
  animation-delay: 850ms;
}

.calender:nth-of-type(19) {
  animation-delay: 900ms;
}

.calender:nth-of-type(20) {
  animation-delay: 950ms;
}

.calender:nth-of-type(21) {
  animation-delay: 1000ms;
}

.calender:nth-of-type(25) {
  animation-delay: 1050ms;
}

.calender:nth-of-type(23) {
  animation-delay: 1100ms;
}

.calender:nth-of-type(24) {
  animation-delay: 11500ms;
}

.calender:nth-of-type(22) {
  animation-delay: 1200ms;
}

.calender:nth-of-type(26) {
  animation-delay: 1250ms;
}

.calender:nth-of-type(27) {
  animation-delay: 1300ms;
}

.calender:nth-of-type(28) {
  animation-delay: 1350ms;
}

.calender:nth-of-type(29) {
  animation-delay: 1400ms;
}

.animate-line-check-marks-month {
  -webkit-animation: animate-line-check-marks 1s linear forwards;
  -o-animation: animate-line-check-marks 1s linear forwards;
  -moz-animation: animate-line-check-marks 1s linear forwards;
  animation: animate-line-check-marks 1s linear forwards;
  animation-delay: 1800ms;
  opacity: 0;
}

.animate-line-check-marks-week {
  -webkit-animation: animate-line-check-marks 1s linear forwards;
  -o-animation: animate-line-check-marks 1s linear forwards;
  -moz-animation: animate-line-check-marks 1s linear forwards;
  animation: animate-line-check-marks 1s linear forwards;
  animation-delay: 800ms;
  opacity: 0;
}

.camara-detect-right {
  -webkit-animation: camara-detect-right 5s linear forwards;
  -o-animation: camara-detect-right 5s linear forwards;
  -moz-animation: camara-detect-right 5s linear forwards;
  animation: camara-detect-right 5s linear forwards;
  transform-origin: center;
}

.camara-detect-left {
  -webkit-animation: camara-detect-left 5s linear forwards;
  -o-animation: camara-detect-left 5s linear forwards;
  -moz-animation: camara-detect-left 5s linear forwards;
  animation: camara-detect-left 5s linear forwards;
  transform-origin: center;
}

.cloud-1 {
  -webkit-animation: cloud-ani 30s ease infinite;
  -o-animation: cloud-ani 30s ease infinite;
  -moz-animation: cloud-ani 30s ease infinite;
  animation: cloud-ani 30s ease infinite;
}

.cloud-2 {
  -webkit-animation: cloud-ani-fast-out 13s ease infinite;
  -o-animation: cloud-ani-fast-out 13s ease infinite;
  -moz-animation: cloud-ani-fast-out 13s ease infinite;
  animation: cloud-ani-fast-out 13s ease infinite;
  animation-delay: 1000ms;
}

.cloud-3 {
  -webkit-animation: cloud-ani 12s ease infinite;
  -o-animation: cloud-ani 12s ease infinite;
  -moz-animation: cloud-ani 12s ease infinite;
  animation: cloud-ani 12s ease infinite;
  animation-delay: 500ms;
}

.camara-move {
  animation: camara-move-ani 3s linear infinite;
}

.rotate {
  transform-origin: center 11%;
  animation-name: rotate;
  animation-duration: 2000ms;
  animation-iteration-count: infinite;
  animation-timing-function: ease-in-out;
}

@keyframes scale-height {
  0% {
    transform: scaleY(0) translateY(-6%);
  }
  50% {
    transform: scaleY(1);
  }
  100% {
    transform: scaleY(0) translateY(-6%);
  }
}

@keyframes rotate {
  0% {
    transform: rotateY(0deg);
  }
  20% {
    transform: rotateY(0deg);
  }
  50% {
    transform: rotateY(90deg);
  }
  80% {
    transform: rotateY(0deg);
  }
  100% {
    transform: rotateY(0deg);
  }
}

@-webkit-keyframes dash {
  from {
    stroke-dashoffset: 241;
  }
  to {
    stroke-dashoffset: 0;
  }
}

@keyframes dash {
  from {
    stroke-dashoffset: 241;
  }
  to {
    stroke-dashoffset: 0;
  }
}

@-webkit-keyframes dash-long {
  from {
    stroke-dashoffset: 350;
  }
  to {
    stroke-dashoffset: 0;
  }
}

@keyframes dash-long {
  from {
    stroke-dashoffset: 350;
  }
  to {
    stroke-dashoffset: 0;
  }
}

@-webkit-keyframes dash-number3 {
  0% {
    stroke-dashoffset: 70;
  }
  90% {
    stroke-dashoffset: 0;
    fill: #02375200;
  }
  100% {
    fill: #023852;
  }
}

@keyframes dash-number3 {
  0% {
    stroke-dashoffset: 70;
  }
  90% {
    stroke-dashoffset: 0;
    fill: #02375200;
  }
  100% {
    fill: #023852;
  }
}

@-webkit-keyframes backup-local-animation {
  0% {
    transform: translateY(0);
  }
  50% {
    transform: translateY(-6%);
  }
  100% {
    transform: translateY(0);
  }
}

@keyframes backup-local-animation {
  0% {
    transform: translateY(0);
  }
  50% {
    transform: translateY(-6%);
  }
  100% {
    transform: translateY(0);
  }
}

@-webkit-keyframes calender {
  0% {
    opacity: 0;
  }
  100% {
    opacity: 1;
  }
}

@keyframes calender {
  0% {
    opacity: 0;
  }
  100% {
    opacity: 1;
  }
}

@keyframes calender-blue {
  0% {
    fill: #cad3d6;
  }
  100% {
    fill: #50bfee;
  }
}

@-webkit-keyframes animate-line-check-marks {
  0% {
    opacity: 0;
  }
  100% {
    opacity: 1;
  }
}

@keyframes animate-line-check-marks {
  0% {
    opacity: 0;
  }
  100% {
    opacity: 1;
  }
}

@keyframes camara-detect-right {
  0% {
    transform: translate(0, 0) scaleY(1);
  }
  10% {
    transform: translate(-80%, 0);
  }
  20% {
    transform: translate(-50%, 0);
    fill: rgb(255, 255, 255);
  }
  25% {
    transform: translate(-50%, 0) scaleY(0.5);
    fill: rgb(255, 231, 0);
  }
  26% {
    transform: translate(-50%, 0) scaleY(0.5);
    fill: rgba(255, 230, 0, 0);
  }
  27% {
    transform: translate(-50%, 0) scaleY(0.5);
    fill: rgb(255, 231, 0);
  }
  28% {
    transform: translate(-50%, 0) scaleY(0.5);
    fill: rgba(255, 230, 0, 0);
  }
  29% {
    transform: translate(-50%, 0) scaleY(0.5);
    fill: rgb(255, 231, 0);
  }
  65% {
    transform: translate(-50%, 0) scaleY(0.5);
    fill: rgb(255, 231, 0);
  }
  80% {
    transform: translate(-50%, 0) scaleY(0.5);
    fill: rgb(255, 231, 0);
  }
  100% {
    transform: translate(0, 0) scaleY(1);
    fill: rgb(255, 255, 255);
  }
}

@-webkit-keyframes camara-detect-right {
  0% {
    transform: translate(0, 0) scaleY(1);
  }
  10% {
    transform: translate(-80%, 0);
  }
  20% {
    transform: translate(-50%, 0);
    fill: rgb(255, 255, 255);
  }
  25% {
    transform: translate(-50%, 0) scaleY(0.5);
    fill: rgb(255, 231, 0);
  }
  26% {
    transform: translate(-50%, 0) scaleY(0.5);
    fill: rgba(255, 230, 0, 0);
  }
  27% {
    transform: translate(-50%, 0) scaleY(0.5);
    fill: rgb(255, 231, 0);
  }
  28% {
    transform: translate(-50%, 0) scaleY(0.5);
    fill: rgba(255, 230, 0, 0);
  }
  29% {
    transform: translate(-50%, 0) scaleY(0.5);
    fill: rgb(255, 231, 0);
  }
  65% {
    transform: translate(-50%, 0) scaleY(0.5);
    fill: rgb(255, 231, 0);
  }
  80% {
    transform: translate(-50%, 0) scaleY(0.5);
    fill: rgb(255, 231, 0);
  }
  100% {
    transform: translate(0, 0) scaleY(1);
    fill: rgb(255, 255, 255);
  }
}

@keyframes camara-detect-left {
  0% {
    transform: translate(0, 0) scaleY(1);
  }
  10% {
    transform: translate(80%, 0);
  }
  20% {
    transform: translate(13%, 0);
    fill: rgb(255, 255, 255);
  }
  25% {
    transform: translate(13%, 0) scaleY(0.5);
    fill: rgb(255, 231, 0);
  }
  26% {
    transform: translate(13%, 0) scaleY(0.5);
    fill: rgba(255, 230, 0, 0);
  }
  27% {
    transform: translate(13%, 0) scaleY(0.5);
    fill: rgb(255, 231, 0);
  }
  28% {
    transform: translate(13%, 0) scaleY(0.5);
    fill: rgba(255, 230, 0, 0);
  }
  29% {
    transform: translate(13%, 0) scaleY(0.5);
    fill: rgb(255, 231, 0);
  }
  65% {
    transform: translate(13%, 0) scaleY(0.5);
    fill: rgb(255, 231, 0);
  }
  80% {
    transform: translate(13%, 0) scaleY(0.5);
    fill: rgb(255, 231, 0);
  }
  100% {
    transform: translate(0, 0) scaleY(1);
    fill: rgb(255, 255, 255);
  }
}

@-webkit-keyframes camara-detect-left {
  0% {
    transform: translate(0, 0) scaleY(1);
  }
  10% {
    transform: translate(80%, 0);
  }
  20% {
    transform: translate(13%, 0);
    fill: rgb(255, 255, 255);
  }
  25% {
    transform: translate(13%, 0) scaleY(0.5);
    fill: rgb(255, 231, 0);
  }
  26% {
    transform: translate(13%, 0) scaleY(0.5);
    fill: rgba(255, 230, 0, 0);
  }
  27% {
    transform: translate(13%, 0) scaleY(0.5);
    fill: rgb(255, 231, 0);
  }
  28% {
    transform: translate(13%, 0) scaleY(0.5);
    fill: rgba(255, 230, 0, 0);
  }
  29% {
    transform: translate(13%, 0) scaleY(0.5);
    fill: rgb(255, 231, 0);
  }
  65% {
    transform: translate(13%, 0) scaleY(0.5);
    fill: rgb(255, 231, 0);
  }
  80% {
    transform: translate(13%, 0) scaleY(0.5);
    fill: rgb(255, 231, 0);
  }
  100% {
    transform: translate(0, 0) scaleY(1);
    fill: rgb(255, 255, 255);
  }
}

@keyframes cloud-ani {
  0% {
    transform: translate(0%, 0%);
  }
  95% {
    transform: translate(-50%, -1%);
    opacity: 0;
  }
  99% {
    opacity: 0;
    transform: translate(5%, 0%);
  }
  100% {
    transform: translate(0%, 0%);
    opacity: 1;
  }
}

@keyframes cloud-ani-fast-out {
  0% {
    transform: translate(0%, 0%);
  }
  55% {
    transform: translate(-20%, -1%);
    opacity: 0;
  }
  95% {
    transform: translate(-50%, -1%);
    opacity: 0;
  }
  99% {
    opacity: 0;
    transform: translate(5%, 0%);
  }
  100% {
    transform: translate(0%, 0%);
    opacity: 1;
  }
}

@keyframes camara-move-ani {
  0% {
    transform: translate(0, 0);
  }
  10% {
    transform: translate(-3%, 7%) rotate(-5deg);
  }
  30% {
    transform: translate(0, 0);
  }
  90% {
    transform: translate(-3%, 7%) rotate(-5deg);
  }
  100% {
    transform: translate(0, 0);
  }
}

@keyframes blink-animation {
  to {
    visibility: hidden;
  }
}

@-webkit-keyframes blink-animation {
  to {
    visibility: hidden;
  }
}

</style>
</defs>
<g fill="none" fill-rule="evenodd"><path d="M49.6821815 90.1818399c-10.2601517.0108006-20.1031853-4.060237-27.3582121-11.3152639-7.2550269-7.2550269-11.3260645-17.0980605-11.3152639-27.3582122V41.0647275h77.3440348v10.4436363c.0084853 10.2589367-4.062899 20.1001788-11.3167924 27.3546178-7.2538933 7.254439-17.094829 11.3265636-27.3537664 11.3188583z" fill="#BAC6CD" fill-rule="nonzero"/><path d="M64.672727 42.746182v30.4930909a16.14837347 16.14837347 0 001.5534545-.6894545 15.48800292 15.48800292 0 001.4545455-.8407273 15.70910167 15.70910167 0 001.3585455-.9861818 15.2174866 15.2174866 0 001.2450909-1.1229091c3.0025668-2.9953668 4.6880455-7.063547 4.683645-11.3047273V42.746182H64.672727zm-38.41747 0v15.5490909c-.0058722 4.2391889 1.675077 8.3065417 4.6720155 11.3047273a15.21745357 15.21745357 0 001.2450909 1.1229091 15.70909349 15.70909349 0 001.3730909.9861818 15.48800132 15.48800132 0 001.4545454.8407273c.5053569.2569273 1.2158931.4870641 1.7454546.6894545V42.746182H26.255257z" fill="#023852" fill-rule="nonzero"/><path d="M50.6218179 41.1200002H36.5592725v32.0654217c.4421818.1774274.8921212.3344609 1.3498181.4711004.4596364.1346001.928.2508457 1.4021819.3426185.4741818.0917728.9570909.1651911 1.4545454.2110775.4974546.0458864.9832727.0734182 1.4865455.0734182H59.008727c.5003636 0 .9978182-.0244727 1.4865455-.0734182.4887272-.0489455.9687272-.1193047 1.4545454-.2110775s.9425455-.2080184 1.4021818-.3426185c.4596364-.1346001.9076364-.3059094 1.3498182-.4711004V41.1200002h-14.08z" fill="#023852" fill-rule="nonzero"/><path d="M72.5272725 41.0647275v3.394909c.0069532 10.2594721-4.0657263 20.1006981-11.3205431 27.3549692-7.2548167 7.2542711-17.0963491 11.3262103-27.3558206 11.3184854-.6341818 0-1.2644848-.0155152-1.8909091-.0465455-.6283636-.032-1.2509091-.0756363-1.8676363-.1367272-.6167273-.0610909-1.2334546-.1367273-1.8414546-.2269091-.608-.0901818-1.216-.192-1.8152727-.3083637a38.74617455 38.74617455 0 005.1345454 3.2698182c3.6625961 1.9451754 7.6157019 3.2851447 11.7061819 3.968 2.1150007.3533299 4.2556891.5304232 6.4.5294793 10.2606555.0115706 20.1044373-4.0591257 27.3600938-11.3142365 7.2556566-7.2551109 11.3270933-17.0985864 11.3162913-27.3592428V41.0647275h-15.825476z" fill="#FFF" fill-rule="nonzero" opacity=".3"/><path d="M91.0116361 46.2080346H9.72581791c-.64596884.0005892-1.28532825-.1300539-1.87927273-.3840344-1.16292645-.4918727-2.08849093-1.4174372-2.58036363-2.5803637-.25398049-.5939444-.38400223-1.2333038-.38400223-1.8792727v-6.9090909c0-.6440096.13079283-1.2813115.38400223-1.8734545.4918727-1.1629265 1.41743718-2.088491 2.58036363-2.5803637.59394448-.2539805 1.23330389-.3846236 1.87927273-.3840022H91.0116361c.6469077-.0006112 1.2872156.1300235 1.8821818.3840022.5752074.2435837 1.0977983.5962585 1.5389091 1.0385455.4422901.4428289.7957935.9661719 1.0414545 1.5418182.2516004.5945821.381091 1.2336485.381091 1.8792727v6.9090909c0 .6456242-.1294906 1.2846906-.381091 1.8792727-.4941908 1.1613632-1.4190004 2.0861728-2.5803636 2.5803637-.5953833.2519827-1.2356754.3806349-1.8821818.3782162z" fill="#CED6DB" fill-rule="nonzero"/><path fill="#CED6DB" fill-rule="nonzero" d="M86.9999997 31.2174547H2.15927245l.27345455.8087273.27345455.8058182H98.7789088l.2414546-.4014546.2385454-.4043636.2385455-.4043636.2414545-.4043637h-6.3709091zM2.70618155 32.8320002H98.7789088v4.672H2.70618155v-3.5025455z"/><path d="M5.13818155 5.95199321H96.7745452c.6091024-.00067701 1.2116016.12616491 1.7687273.3723706 1.6747592.74344138 2.7066645 2.45398648 2.5832725 4.28218183l-.352 5.152-.3461816 5.15199996-.3432728 5.1549091-.3461818 5.152H2.16799973l-.33163637-5.152-.35781818-5.1549091-.34618182-5.15199996-.34618182-5.152c-.0817212-1.20493206.33958246-2.38984859 1.16363637-3.27272728.40155153-.42604732.88291428-.76903064 1.41672727-1.00945454.55802205-.24660342 1.16155386-.37345411 1.77163637-.37237061z" fill="#9DADB7" fill-rule="nonzero"/><path class="icon-blink" d="M32.3265486 19.258182c-.0063512-2.5911796-1.9738081-4.7566082-4.5525169-5.01060173-2.5787088-.25399353-4.930833 1.48597191-5.442598 4.02611923-.511765 2.5401474.9831045 5.0551689 3.4589898 5.8195274 2.4758853.7643585 5.1283578-.4702902 6.1375762-2.8568631.2638141-.6261024.3993367-1.2987692.3985489-1.9781818z" fill="#FFE700" fill-rule="nonzero"/><path d="M14.3832725 18.3272674c-.3744191-.0010425-.7337056.1477-.9978182.4130964-.3564861.3564861-.4957098.8760759-.3652268 1.363045.1304829.4869691.5108491.8673352.9978182.9978182.486969.130483 1.0065588-.0087407 1.3630449-.3652268.4036479-.4035226.5244199-1.0104892.3059842-1.5377917-.2184357-.5273024-.7330467-.8710609-1.3038023-.8709411z" fill="#0099DA" fill-rule="nonzero"/><path d="M96.7832725 5.978182h-45.981091v40.2530909h40.317091c1.2585618-.0015399 2.4650143-.5027462 3.3541818-1.3934545.4338368-.4332999.7804715-.9458452 1.0210909-1.5098182.2479865-.5832529.3756289-1.2105805.3752727-1.8443637v-3.9563636h2.9236364v-4.6545454l.2385454-.4043637.2414546-.4043636.2385454-.4014546.2414546-.4043636.3432727-5.1549091.3578182-5.1578182.3461818-5.15199997.343273-5.15490909c.042869-.60754295-.043386-1.21727801-.253091-1.78909091-.202274-.54909597-.5118006-1.05244757-.9105456-1.48072728-.8249541-.88142105-1.9782047-1.38168955-3.1854546-1.38181818l-.0116363-.00872727z" fill="#9DADB7" fill-rule="nonzero" style="mix-blend-mode:multiply"/><path d="M51.1454543 52.6545456c-.5315841 0-1.0519534.0538392-1.5521359.1570308-.5046684.1031917-.9869072.2534926-1.4489592.4486595-.459809.1951668-.8994313.4329564-1.307652.7111252-.4104637.2759256-.7917687.5922305-1.1416722.9399415-.3476604.3499544-.6639193.7335582-.9420477 1.1418383-.2758854.4105234-.5158833.8479664-.7110218 1.3100856-.1928955.4598759-.3454175.9444281-.4485942 1.4469267-.1031766.5024986-.1570079 1.0207003-.1570079 1.554605 0 .5316614.0538313 1.0498631.1570079 1.5523617.1031767.5024986.2556987.9848075.4485942 1.4469267.1951385.4598759.4351364.8995622.7110218 1.3100856.2781284.4105234.5943873.7918839.9420477 1.139595.3499035.3499543.7312085.6662592 1.1416722.9421848.4082207.2781688.847843.5159583 1.307652.7111252.462052.1951669.9442908.3454678 1.4489592.4486594.5001825.1031917 1.0205518.1570309 1.5521359.1570309.5315841 0 1.0519533-.0538392 1.5521358-.1570309.5024255-.1031916.9869072-.2534925 1.4467162-.4486594.462052-.1951669.8994314-.4329564 1.309895-.7111252.4104637-.2759256.7917688-.5922305 1.1416722-.9421848.3476605-.3477111.6639194-.7290716.9420478-1.139595.2758854-.4105234.5158833-.8502097.7110217-1.3100856.1928955-.4621192.3454176-.9444281.4485942-1.4469267.1009337-.5024986.157008-1.0207003.157008-1.5523617 0-.5339047-.0560743-1.0521064-.157008-1.554605-.1031766-.5024986-.2556987-.9870508-.4485942-1.4469267-.1951384-.4621192-.4351363-.8995622-.7110217-1.3100856-.2781284-.4082801-.5943873-.7918839-.9420478-1.1418383-.3499034-.347711-.7312085-.6640159-1.1416722-.9399415-.4104636-.2781688-.847843-.5159584-1.309895-.7111252-.459809-.1951669-.9442907-.3454678-1.4467162-.4486595-.5001825-.1031916-1.0205517-.1570308-1.5521358-.1570308" fill="#0099DA"/><path d="M53.9090906 55.5636365c-.1404184 0-.2778744.0142217-.4099981.0414799-.1333087.0272582-.2606925.0669603-.3827439.1185138-.121459.0515535-.2375857.1143658-.3454176.1878444-.1084243.072886-.2091464.1564382-.3015737.2482864-.0918349.0924408-.175375.1937701-.2488429.3016177-.0728753.1084401-.136271.2239911-.187817.3460603-.0509536.1214767-.0912424.2494716-.1184966.3822071-.0272542.1327355-.0414738.2696189-.0414738.4106504 0 .1404388.0142196.2773223.0414738.4100578.0272542.1327354.067543.2601378.1184966.382207.051546.1214767.1149417.2376202.187817.3460604.0734679.1084401.157008.2091768.2488429.3010251.0924273.0924407.1931494.175993.3015737.248879.1078319.0734785.2239586.1362909.3454176.1878444.1220514.0515535.2494352.0912556.3827439.1185138.1321237.0272582.2695797.0414798.4099981.0414798.1404185 0 .2778745-.0142216.4099982-.0414798.1327161-.0272582.2606924-.0669603.3821514-.1185138.1220515-.0515535.2375857-.1143659.34601-.1878444.1084244-.072886.2091465-.1564383.3015738-.248879.0918349-.0918483.1753749-.192585.2488428-.3010251.0728754-.1084402.1362711-.2245837.1878171-.3460604.0509535-.1220692.0912424-.2494716.1184966-.382207.0266617-.1327355.0414738-.269619.0414738-.4100578 0-.1410315-.0148121-.2779149-.0414738-.4106504-.0272542-.1327355-.0675431-.2607304-.1184966-.3822071-.051546-.1220692-.1149417-.2376202-.1878171-.3460603-.0734679-.1078476-.1570079-.2091769-.2488428-.3016177-.0924273-.0918482-.1931494-.1754004-.3015738-.2482864-.1084243-.0734786-.2239585-.1362909-.34601-.1878444-.121459-.0515535-.2494353-.0912556-.3821514-.1185138-.1321237-.0272582-.2695797-.0414799-.4099982-.0414799" fill="#FFF"/><path d="M110.2814547 2.03636364H81.90036382c-.71135885 0-1.39358229.2825862-1.89658895.78559286-.50300667.50300667-.78559287 1.18523011-.78559287 1.89658895V33.0996364c0 1.4813281 1.2008537 2.6821818 2.68218182 2.6821818h28.38109088c.7113589 0 1.3935823-.2825862 1.896589-.7855929.5030066-.5030066.7855928-1.1852301.7855928-1.8965889V4.71854545c0-.71135884-.2825862-1.39358228-.7855928-1.89658895-.5030067-.50300666-1.1852301-.78559286-1.896589-.78559286z" fill="#081935" fill-rule="nonzero" opacity=".2" style="mix-blend-mode:multiply"/><path d="M112.3178184 0H83.93672745c-1.48132811 0-2.68218181 1.2008537-2.68218181 2.68218182V31.0632727c0 .7113589.2825862 1.3935823.78559286 1.896589.50300667.5030066 1.18523011.7855928 1.89658895.7855928h28.38109095c1.4813281 0 2.6821818-1.2008537 2.6821818-2.6821818V2.68218182C115.0000002 1.2008537 113.7991465 0 112.3178184 0z" fill="#FFE700" fill-rule="nonzero"/><path class="number3-dash-animate" stroke="#023852" stroke-width=".5" fill="transparent" d="M98.1615317 9.89090909c1.4307456 0 2.5440473.28800291 3.3399383.86401741.795891.5760145 1.1938305 1.3935712 1.1938305 2.4526946 0 .7184697-.1873568 1.3486697-.5620759 1.8906188-.3747191.5419491-.9677573 1.014212-1.7791326 1.4168027 1.0033801.5698208 1.7110002 1.1380847 2.1228815 1.7048086.4118813.5667239.6178189 1.1783431.6178189 1.8348757 0 1.2077723-.4366496 2.1430076-1.3099619 2.805734-.8733123.6627263-2.0934537.9940846-3.6604609.9940846-1.5979757 0-2.8212139-.3236162-3.6697514-.9708583-.8485375-.6472421-1.2727998-1.5778322-1.2727998-2.7917983 0-.7866004.1889051-1.4570588.5667211-2.0113953.3778159-.5543366 1.0126611-1.0575675 1.9045545-1.5097079-.7184697-.4831089-1.2433783-1.0018239-1.5747414-1.5561604-.3313632-.5543365-.4970423-1.1628588-.4970423-1.8255852 0-1.0405423.4056815-1.850357 1.2170568-2.4294683.8113752-.5791114 1.9324189-.86866271 3.3631646-.86866271zM96.5449829 19.9432408c0 .3840097.1362595.6921418.4087825.9244057.272523.2322639.6503333.3483941 1.1334422.3483941 1.0900919 0 1.6351297-.3994879 1.6351297-1.1984757 0-.3034915-.119227-.6023333-.3576846-.8965342-.2384576-.294201-.6642684-.6240108-1.2774451-.9894393-.5512369.2911041-.9460824.5837522-1.18454.8779531-.2384576.294201-.3576847.60543-.3576847.9336963zm1.5979677-7.4045364c-.3158789 0-.5822042.0913558-.7989838.2740701-.2167797.1827142-.3251679.4196199-.3251679.710724 0 .5326585.3623263 1.003373 1.0869897 1.4121575.439753-.2539419.7401432-.4862023.9011795-.6967883.1610363-.2105859.2415532-.44904.2415532-.7153692 0-.2972978-.1083882-.5357519-.3251678-.7153693-.2167797-.1796174-.4769113-.2694248-.7804029-.2694248z" fill-rule="nonzero"/></g></svg>
