<svg id="Layer_1" data-name="Layer 1" xmlns="http://www.w3.org/2000/svg" viewBox="0 0 440 330"><defs><style>.cls-1{fill:#0099da;}.cls-2{fill:#ffe700;}.cls-3{fill:#023852;}</style></defs><metadata><?xpacket begin="﻿" id="W5M0MpCehiHzreSzNTczkc9d"?>
<x:xmpmeta xmlns:x="adobe:ns:meta/" x:xmptk="Adobe XMP Core 5.6-c148 79.163858, 2019/03/06-03:18:36        ">
   <rdf:RDF xmlns:rdf="http://www.w3.org/1999/02/22-rdf-syntax-ns#">
      <rdf:Description rdf:about=""
            xmlns:xmp="http://ns.adobe.com/xap/1.0/"
            xmlns:xmpMM="http://ns.adobe.com/xap/1.0/mm/"
            xmlns:stEvt="http://ns.adobe.com/xap/1.0/sType/ResourceEvent#">
         <xmp:MetadataDate>2019-08-01T15:30:42+02:00</xmp:MetadataDate>
         <xmpMM:InstanceID>xmp.iid:17b86ded-05db-4cc0-b749-9170278e181d</xmpMM:InstanceID>
         <xmpMM:DocumentID>xmp.did:17b86ded-05db-4cc0-b749-9170278e181d</xmpMM:DocumentID>
         <xmpMM:OriginalDocumentID>xmp.did:17b86ded-05db-4cc0-b749-9170278e181d</xmpMM:OriginalDocumentID>
         <xmpMM:History>
            <rdf:Seq>
               <rdf:li>
                  <rdf:Description>
                     <stEvt:action>saved</stEvt:action>
                     <stEvt:instanceID>xmp.iid:17b86ded-05db-4cc0-b749-9170278e181d</stEvt:instanceID>
                     <stEvt:when>2019-08-01T15:30:42+02:00</stEvt:when>
                     <stEvt:softwareAgent>Adobe Bridge 2019 (Macintosh)</stEvt:softwareAgent>
                     <stEvt:changed>/metadata</stEvt:changed>
                  </rdf:Description>
               </rdf:li>
            </rdf:Seq>
         </xmpMM:History>
      </rdf:Description>
   </rdf:RDF>
</x:xmpmeta>
                                                                                                    
                                                                                                    
                                                                                                    
                                                                                                    
                                                                                                    
                                                                                                    
                                                                                                    
                                                                                                    
                                                                                                    
                                                                                                    
                                                                                                    
                                                                                                    
                                                                                                    
                                                                                                    
                                                                                                    
                                                                                                    
                                                                                                    
                                                                                                    
                                                                                                    
                                                                                                    
                           
<?xpacket end="w"?></metadata>
<polygon class="cls-1" points="232.35 271.04 242.62 256.68 252.9 242.32 247.61 242.34 242.33 242.36 237.04 242.38 231.76 242.41 229.92 242.41 228.08 242.42 228.08 225.1 228.08 177.07 211.56 177.07 195.04 177.07 195.04 225.17 195.04 242.56 193.31 242.56 191.59 242.57 186.25 242.59 180.9 242.62 175.56 242.64 170.22 242.66 180.61 256.94 191 271.21 201.4 285.49 211.79 299.76 222.07 285.4 232.35 271.04"/><path class="cls-1" d="M293.72,112.57a101.76,101.76,0,0,0-188,37.48A67.71,67.71,0,0,0,80.2,163L105,187.74a32.65,32.65,0,0,1,17.23-5.17l17.12-.22V164.67a67.08,67.08,0,0,1,128.23-27.5l5,11.11,12.16-1c1.33-.1,2.67-.21,4-.21a50.32,50.32,0,0,1,28.35,8.7L341.85,131A84.84,84.84,0,0,0,293.72,112.57Z"/><path class="cls-2" d="M55,215.44A67.66,67.66,0,0,0,122.6,283h22V248.35h-22A32.86,32.86,0,0,1,105,187.74L80.2,163A67.53,67.53,0,0,0,55,215.44Z"/><path class="cls-3" d="M341.85,131,317.08,155.8a50.61,50.61,0,0,1-28.35,92.55H270V283h18.69a85.27,85.27,0,0,0,53.12-152Z"/></svg>