<?xml version="1.0" encoding="UTF-8"?>
<svg width="440px" height="330px" viewBox="0 0 440 330" version="1.1" xmlns="http://www.w3.org/2000/svg" xmlns:xlink="http://www.w3.org/1999/xlink">
    <title>Graphic elements / Icons / Rich icons / e-learning</title>
    <g id="Graphic-elements-/-Icons-/-Rich-icons-/-e-learning" stroke="none" stroke-width="1" fill="none" fill-rule="evenodd">
        <g id="Confirm" transform="translate(19.000000, 38.000000)" fill-rule="nonzero">
            <path d="M236,274 L236,250 L166,250 L166,274 C165.950215,274.623108 165.853271,275.241546 165.71,275.85 C165.409861,277.271102 164.915202,278.644031 164.24,279.93 C163.408073,281.557082 162.18898,282.954746 160.69,284 C158.754051,285.270622 156.47473,285.916372 154.16,285.85 L247.88,285.85 C245.56527,285.916372 243.285949,285.270622 241.35,284 C239.85102,282.954746 238.631927,281.557082 237.8,279.93 C237.124798,278.644031 236.630139,277.271102 236.33,275.85 C236.173251,275.242593 236.062932,274.624142 236,274 L236,274 Z" id="Path" fill="#9DADB7"></path>
            <path d="M262.3,285.84 L139.7,285.84 C138.935344,285.840354 138.179194,286.00044 137.48,286.31 C136.797205,286.615915 136.181969,287.054398 135.67,287.6 C135.143175,288.149566 134.725749,288.794369 134.44,289.5 C134.1445,290.244529 133.995115,291.038989 133.999884,291.84 L268.000116,291.84 C268.004885,291.038989 267.8555,290.244529 267.56,289.5 C267.274251,288.794369 266.856825,288.149566 266.33,287.6 C265.818031,287.054398 265.202795,286.615915 264.52,286.31 C263.820806,286.00044 263.064656,285.840354 262.3,285.84 Z" id="Path" fill="#CED6DB"></path>
            <polygon id="Path" fill="#9DADB7" opacity="0.2" style="mix-blend-mode: multiply;" points="166 250 183.5 250 201 250 218.5 250 236 250 236 255 236 260 236 265 236 270 218.5 270 201 270 183.5 270 166 270 166 265 166 260 166 255"></polygon>
            <path d="M395.48,250 L6.48,250 C5.00957163,250.00393 3.60112921,249.40805 2.58,248.35 C1.52824021,247.286017 0.94503555,245.846006 0.959718971,244.35 L0.959718971,5.63 C0.94503555,4.1339941 1.52824021,2.69398258 2.58,1.63 C3.61414096,0.569211348 5.03867796,-0.0201275635 6.52,-0.000499156076 L395.52,-0.000499156076 C396.990428,-0.00392966177 398.398871,0.591949824 399.42,1.65 C400.47176,2.71398258 401.054964,4.1539941 401.040281,5.65 L401.040281,244.37 C401.054964,245.866006 400.47176,247.306017 399.42,248.37 C398.398871,249.42805 396.990428,250.02393 395.52,250.020019 L395.48,250 Z" id="Path" fill="#023852"></path>
            <polygon id="Path" fill="#0099DA" points="107 225 201 225 295 225 389 225 389 171.75 389 118.5 389 65.25 389 12 295 12 201 12 107 12 13 12 13 65.25 13 118.5 13 171.75 13 225"></polygon>
            <polygon id="Path" fill="#4E7486" points="389 26 295 26 201 26 107 26 13 26 13 22.5 13 19 13 15.5 13 12 107 12 201 12 295 12 389 12 389 15.5 389 19 389 22.5"></polygon>
            <path d="M207.500005,237.5 C207.501063,236.641726 207.331087,235.791844 207,235 C206.344985,233.437586 205.102414,232.195015 203.54,231.54 C201.92188,230.859956 200.09812,230.859956 198.48,231.54 C196.91004,232.190685 195.659723,233.433816 195,235 C194.319956,236.61812 194.319956,238.44188 195,240.06 C195.655015,241.622414 196.897586,242.864985 198.46,243.52 C200.07812,244.200044 201.90188,244.200044 203.52,243.52 C205.101341,242.855242 206.353358,241.588834 207,240 C207.331087,239.208156 207.501063,238.358274 207.500005,237.5 L207.500005,237.5 Z" id="Path" fill="#4E7486"></path>
            <g id="Group" transform="translate(38.000000, 36.000000)">
                <path d="M351,189 L351,5.7300081 C351,4.96100837 350.836672,4.20077864 350.52,3.5 C350.197111,2.8138843 349.745622,2.19605726 349.19,1.6800081 C348.607761,1.14636405 347.928924,0.7288792 347.19,0.450008096 C346.425148,0.151354797 345.611091,4.40536496e-13 344.79,4.40536496e-13 L6.21000044,4.40536496e-13 C5.38890939,4.40536496e-13 4.5748523,0.151354797 3.81000044,0.450008096 C3.07107633,0.7288792 2.39223918,1.14636405 1.81000044,1.6800081 C1.25437808,2.19605726 0.802889092,2.8138843 0.480000437,3.5 C0.163328168,4.20077864 -4.06430445e-12,4.96100837 -4.06430445e-12,5.7300081 L-4.06430445e-12,189 L351,189 Z" id="Path" fill="#DDE1E1"></path>
                <polygon id="Path" fill="#9DADB7" points="15.6700004 17.2200081 81.6100004 17.2200081 147.56 17.2200081 147.56 91.9200081 147.56 166.620008 81.6100004 166.620008 15.6700004 166.620008 15.6700004 91.9200081"></polygon>
                <path d="M105.43,68.1200081 L105.99,67.8700081 L106.55,67.6100081 L107.11,67.3500081 L107.67,67.1000081 C107.739186,67.0630819 107.813256,67.0361474 107.89,67.0200081 C107.965018,66.9941504 108.041911,66.9740914 108.12,66.9600081 L108.58,66.9600081 L108.75,66.9600081 L108.93,66.9600081 L109.1,66.9600081 L109.27,66.9600081 C109.491881,66.9873925 109.706065,67.058787 109.9,67.1700081 C110.086708,67.280399 110.249818,67.4265188 110.38,67.6000081 C110.511653,67.7700802 110.61004,67.9634615 110.67,68.1700081 C110.71,68.3881899 110.71,68.6118263 110.67,68.8300081 L110.34,71.4000081 L110,73.9600081 L109.67,76.5200081 L109.33,79.0800081 C109.322193,79.1894884 109.298617,79.2972674 109.26,79.4000081 C109.224606,79.5032643 109.181138,79.6035741 109.13,79.7000081 C109.07484,79.7954908 109.011254,79.8858505 108.94,79.9700081 C108.865072,80.0486894 108.784888,80.1221918 108.7,80.1900081 L107.96,80.7600081 L107.22,81.3300081 L106.49,81.8900081 L105.75,82.4600081 C105.662689,82.5260468 105.568871,82.5830082 105.47,82.6300081 L105.17,82.7500081 C105.060213,82.759681 104.949788,82.759681 104.84,82.7500081 C104.730508,82.7649538 104.619493,82.7649538 104.51,82.7500081 L104.37,82.7500081 L104.23,82.7500081 L104.09,82.7500081 L103.95,82.7500081 C103.723952,82.7208476 103.506202,82.6459958 103.31,82.5300081 C103.120148,82.4158698 102.953836,82.2665288 102.82,82.0900081 C102.687085,81.9109814 102.591834,81.7068726 102.54,81.4900081 C102.499327,81.2651661 102.499327,81.0348501 102.54,80.8100081 L103.02,77.9400081 L103.5,75.0600081 L103.98,72.1900081 L104.46,69.3100081 C104.487943,69.1765999 104.528113,69.0460486 104.58,68.9200081 C104.628497,68.7938573 104.695938,68.6758353 104.78,68.5700081 C104.863742,68.4612275 104.96122,68.3637501 105.07,68.2800081 C105.181731,68.2097326 105.302966,68.1558504 105.43,68.1200081 Z" id="Path" fill="#0099DA"></path>
                <path d="M58.2400004,68.1200081 L57.6800004,67.8700081 L57.1200004,67.6100081 L56.5600004,67.3500081 L56.0000004,67.1000081 C55.930052,67.0648203 55.8562129,67.0379698 55.7800004,67.0200081 L55.5500004,66.9600081 L55.1100004,66.9600081 L54.9300004,66.9600081 L54.7600004,66.9600081 L54.5900004,66.9600081 L54.4200004,66.9600081 C54.1981195,66.9873925 53.9839358,67.058787 53.7900004,67.1700081 C53.6032929,67.280399 53.4401824,67.4265188 53.3100004,67.6000081 C53.1783483,67.7700802 53.0799613,67.9634615 53.0200004,68.1700081 C52.9749946,68.3877064 52.9749946,68.6123098 53.0200004,68.8300081 L53.3500004,71.4000081 L53.6800004,73.9600081 L54.0200004,76.5200081 L54.3500004,79.0800081 C54.3660419,79.1890534 54.3928392,79.2962428 54.4300004,79.4000081 C54.4611119,79.504872 54.5047606,79.6055998 54.5600004,79.7000081 C54.6151604,79.7954908 54.6787469,79.8858505 54.7500004,79.9700081 C54.8201495,80.0534121 54.9008228,80.1273626 54.9900004,80.1900081 L55.7300004,80.7600081 L56.4600004,81.3300081 L57.2000004,81.8900081 L57.9400004,82.4600081 C58.0273114,82.5260468 58.1211302,82.5830082 58.2200004,82.6300081 C58.3156073,82.6802192 58.4161396,82.7204321 58.5200004,82.7500081 C58.6264813,82.7589125 58.7335196,82.7589125 58.8400004,82.7500081 C58.9494928,82.7649538 59.0605081,82.7649538 59.1700004,82.7500081 L59.3200004,82.7500081 L59.4600004,82.7500081 L59.6000004,82.7500081 L59.7400004,82.7500081 C59.9660485,82.7208476 60.1837992,82.6459958 60.3800004,82.5300081 C60.5679501,82.4133143 60.7338279,82.2643628 60.8700004,82.0900081 C60.9990397,81.9086969 61.0939258,81.7053695 61.1500004,81.4900081 C61.1955231,81.2656271 61.1955231,81.0343891 61.1500004,80.8100081 L60.6700004,77.9400081 L60.1100004,75.1200081 L59.6300004,72.2500081 L59.1500004,69.3700081 C59.1300104,69.2358716 59.0930474,69.1048209 59.0400004,68.9800081 C58.9842252,68.8553756 58.9137231,68.7378721 58.8300004,68.6300081 C58.7525702,68.5191591 58.6580652,68.4212789 58.5500004,68.3400081 C58.4558366,68.2545419 58.3517596,68.1806808 58.2400004,68.1200081 L58.2400004,68.1200081 Z" id="Path" fill="#0099DA"></path>
                <path d="M59.2000004,69.3300081 C59.1691753,69.1973604 59.1290768,69.0670401 59.0800004,68.9400081 C59.0270383,68.8160269 58.9599265,68.6985813 58.8800004,68.5900081 C58.7909704,68.4859951 58.6940134,68.3890382 58.5900004,68.3000081 C58.4821364,68.2162854 58.3646329,68.1457833 58.2400004,68.0900081 L57.6800004,67.8300081 L57.1200004,67.5800081 L56.5600004,67.3200081 L56.0000004,67.0600081 L55.7800004,66.9800081 L55.5500004,66.9300081 L55.3200004,66.9300081 L55.0900004,66.9300081 L54.9200004,66.9300081 L54.7400004,66.9300081 L54.5700004,66.9300081 L54.4000004,66.9300081 C54.1770891,66.9527179 53.9619554,67.0244292 53.7700004,67.1400081 C53.5856235,67.249423 53.4229218,67.391787 53.2900004,67.5600081 C53.1573396,67.7317606 53.0619742,67.9293032 53.0100004,68.1400081 C52.9480892,68.3542225 52.9310673,68.5789115 52.9600004,68.8000081 L53.0500004,69.4500081 L53.1300004,70.1000081 L53.2200004,70.7400081 L53.3100004,71.3900081 C53.2550271,70.9386489 53.3768703,70.4835286 53.6500004,70.1200081 C53.78678,69.942514 53.9565564,69.7931108 54.1500004,69.6800081 C54.3477939,69.5596419 54.569762,69.4845142 54.8000004,69.4600081 L54.9700004,69.4600081 L55.1500004,69.4600081 L55.3300004,69.4600081 L55.5100004,69.4600081 L55.7500004,69.4600081 L55.9900004,69.4600081 L56.2200004,69.4600081 C56.2998293,69.4811973 56.3769912,69.511391 56.4500004,69.5500081 L57.0200004,69.8100081 L57.6000004,70.0700081 L58.1800004,70.3400081 L58.7600004,70.6000081 L59.0000004,70.7400081 C59.0761769,70.7885885 59.1466234,70.8456166 59.2100004,70.9100081 C59.2780252,70.9727099 59.3384401,71.043194 59.3900004,71.1200081 C59.4489655,71.1868098 59.4993556,71.2607153 59.5400004,71.3400081 L59.4500004,70.8300081 L59.3700004,70.3100081 L59.2800004,69.8000081 L59.2000004,69.3300081 Z" id="Path" fill="#66C3E9"></path>
                <path d="M109.27,67.0200081 L109.1,67.0200081 L108.93,67.0200081 L108.76,67.0200081 L108.58,67.0200081 L108.35,67.0200081 L108.12,67.0200081 L107.89,67.0700081 L107.67,67.1500081 L107.11,67.4100081 L106.55,67.6700081 L105.99,67.9200081 L105.43,68.1800081 C105.306477,68.2378889 105.1892,68.3082553 105.08,68.3900081 C104.976648,68.4764722 104.882786,68.5736859 104.8,68.6800081 C104.720578,68.7907559 104.650344,68.9078126 104.59,69.0300081 C104.539536,69.1557153 104.50266,69.2864586 104.48,69.4200081 L104.38,69.9900081 L104.29,70.5600081 L104.19,71.1300081 L104.1,71.7000081 C104.128285,71.5718923 104.171934,71.44766 104.23,71.3300081 C104.290571,71.2174432 104.360837,71.1103714 104.44,71.0100081 C104.522544,70.9159177 104.612863,70.8289439 104.71,70.7500081 C104.810091,70.6682154 104.921177,70.6008908 105.04,70.5500081 L105.62,70.2800081 L106.2,70.0200081 L106.77,69.7600081 L107.35,69.4900081 L107.58,69.4100081 C107.655018,69.3841504 107.731911,69.3640914 107.81,69.3500081 L108.05,69.3500081 L108.29,69.3500081 L108.47,69.3500081 L108.65,69.3500081 L108.82,69.3500081 L109,69.3500081 C109.379198,69.3881816 109.733032,69.5580219 110,69.8300081 C110.12531,69.9561421 110.22993,70.1012602 110.31,70.2600081 C110.400934,70.4210387 110.46192,70.5972209 110.49,70.7800081 L110.55,70.3000081 L110.61,69.8300081 L110.67,69.3600081 L110.73,68.8900081 C110.77529,68.6723389 110.77529,68.4476772 110.73,68.2300081 C110.670092,68.0203817 110.571756,67.8237109 110.44,67.6500081 C110.309413,67.4795834 110.146252,67.3368169 109.96,67.2300081 C109.75018,67.1056634 109.513518,67.0336358 109.27,67.0200081 Z" id="Path" fill="#66C3E9"></path>
                <path d="M147.59,134.370008 L147.47,132.870008 L147.35,131.370008 C147.35,131.370008 147.35,131.320008 147.35,131.300008 C147.35,131.280008 147.35,131.300008 147.35,131.240008 C147.354856,131.216927 147.354856,131.193089 147.35,131.170008 L147.35,131.120008 L147.28,130.000008 L147.21,128.890008 L147.14,127.780008 L147.08,126.660008 C147.072193,126.550528 147.048617,126.442749 147.01,126.340008 C146.939193,126.134724 146.810736,125.954189 146.64,125.820008 C146.556646,125.748336 146.462043,125.690899 146.36,125.650008 L135.76,121.240008 L125.11,116.820008 L114.51,112.410008 L103.91,107.990008 L103.78,107.930008 L103.66,107.850008 L103.54,107.750008 L103.44,107.640008 L102.27,106.120008 L101.11,104.610008 L99.9000004,103.120008 L98.7100004,101.610008 C98.6510514,101.536046 98.5839621,101.468957 98.5100004,101.410008 C98.4375163,101.348883 98.3567071,101.298377 98.2700004,101.260008 L98.0100004,101.180008 C97.9169311,101.170081 97.8230698,101.170081 97.7300004,101.180008 L80.6000004,102.040008 L63.4800004,102.900008 C63.4103377,102.89029 63.3396632,102.89029 63.2700004,102.900008 L63.0800004,102.960008 L62.9000004,103.060008 C62.8427911,103.094561 62.7891897,103.134762 62.7400004,103.180008 L60.4400004,105.330008 L58.1100004,107.460008 L55.8100004,109.600008 L53.5200004,111.740008 L53.4300004,111.820008 L53.3300004,111.880008 L53.2200004,111.940008 L53.1100004,111.990008 L43.7000004,115.330008 L34.2900004,118.680008 L25.1100004,121.980008 L15.8300004,125.280008 L15.8300004,166.570008 L147.59,166.570008 L147.59,134.370008 Z" id="Path" fill="#023852"></path>
                <polygon id="Path" fill="#FFFFFF" points="100.08 166.570008 100.24 165.380008 100.41 164.190008 100.58 163.000008 100.75 161.810008 100.75 143.060008 100.75 124.310008 100.75 115.770008 100.75 107.230008 100.15 105.700008 99.5400004 104.170008 98.9400004 102.640008 98.3300004 101.110008 89.5500004 101.840008 80.7700004 102.560008 71.9900004 103.280008 63.2100004 104.010008 62.5300004 104.900008 61.8400004 105.780008 61.1600004 106.670008 60.4700004 107.550008 60.4700004 116.500008 60.4700004 125.440008 60.4700004 144.590008 60.4700004 163.750008 60.6500004 164.450008 60.8300004 165.160008 61.0100004 165.870008 61.1900004 166.570008 70.9100004 166.570008 80.6300004 166.570008 90.3600004 166.570008"></polygon>
                <path d="M62.5700004,95.4700081 L62.5700004,106.910008 L64.0300004,109.130008 L65.4900004,111.360008 L66.9600004,113.580008 L68.4200004,115.800008 L71.3100004,117.650008 L74.1900004,119.490008 L77.0800004,121.340008 L79.9700004,123.180008 C80.1977471,123.328296 80.4474928,123.439669 80.7100004,123.510008 C80.9706429,123.579967 81.2403289,123.610307 81.5100004,123.600008 C81.7759547,123.581569 82.0382645,123.527762 82.2900004,123.440008 C82.5486911,123.347949 82.7915682,123.21639 83.0100004,123.050008 L86.0100004,120.790008 L89.0100004,118.530008 L92.0100004,116.260008 L95.0100004,114.000008 L94.9600004,111.700008 L94.9000004,109.410008 L94.9000004,107.110008 L94.8400004,104.820008 L86.8400004,102.480008 L78.8400004,100.140008 L70.8400004,97.8100081 L62.5700004,95.4700081 Z" id="Path" fill="#33ADE1"></path>
                <path d="M62.5700004,95.4700081 L62.5700004,106.910008 L64.0300004,109.130008 L65.4900004,111.360008 L66.9600004,113.580008 L68.4200004,115.800008 L71.3100004,117.650008 L74.1900004,119.490008 L77.0800004,121.340008 L79.9700004,123.180008 C80.1977471,123.328296 80.4474928,123.439669 80.7100004,123.510008 C80.9706429,123.579967 81.2403289,123.610307 81.5100004,123.600008 C81.7759547,123.581569 82.0382645,123.527762 82.2900004,123.440008 C82.5486911,123.347949 82.7915682,123.21639 83.0100004,123.050008 L86.0100004,120.790008 L89.0100004,118.530008 L92.0100004,116.260008 L95.0100004,114.000008 L94.9600004,111.700008 L94.9000004,109.410008 L94.9000004,107.110008 L94.8400004,104.820008 L86.8400004,102.480008 L78.8400004,100.140008 L70.8400004,97.8100081 L62.5700004,95.4700081 Z" id="Path" fill="#66C2E9" style="mix-blend-mode: multiply;"></path>
                <path d="M101.76,48.4200081 L96.8700004,46.5200081 L91.9900004,44.6200081 L87.1100004,42.7200081 L82.2300004,40.8200081 L82.2300004,40.6900081 L82.2300004,40.6900081 L82.2300004,40.6900081 L82.2300004,40.6900081 L82.2300004,40.6900081 L82.2300004,40.6900081 L82.2300004,40.6900081 L82.2300004,40.6900081 L82.1800004,40.6900081 L82.1800004,40.8200081 L77.3000004,42.7200081 L72.1100004,44.6200081 L67.2300004,46.5200081 L62.3500004,48.4200081 C62.1684607,48.6130503 62.0167859,48.8321361 61.9000004,49.0700081 C61.4642895,49.8797255 61.1284993,50.7393485 60.9000004,51.6300081 C60.4206548,53.4100508 60.0862287,55.2259843 59.9000004,57.0600081 C59.5781957,60.1325812 59.4279626,63.2207075 59.4500004,66.3100081 L59.4500004,90.6400081 L61.9000004,96.4800081 L64.3400004,102.320008 L66.7800004,108.160008 L69.2200004,114.000008 L71.7400004,114.760008 L74.2700004,115.530008 L76.7900004,116.300008 L79.3200004,117.060008 L84.7000004,117.060008 L87.2300004,116.300008 L89.7500004,115.530008 L92.2800004,114.760008 L94.8000004,114.000008 L97.2500004,108.160008 L99.6900004,102.320008 L102.13,96.4800081 L104.57,90.6400081 L104.57,66.3100081 C104.592038,63.2207075 104.441805,60.1325812 104.12,57.0600081 C103.932867,55.2261135 103.598454,53.4102525 103.12,51.6300081 C102.88787,50.7405229 102.552245,49.8813235 102.12,49.0700081 C102.032778,48.8367432 101.911459,48.617696 101.76,48.4200081 Z" id="Path" fill="#0099DA"></path>
                <path d="M70.3000004,48.2600081 L70.5800004,49.2600081 L70.8600004,50.2600081 L71.1500004,51.2600081 L71.4300004,52.3100081 L77.9100004,55.3700081 L84.4000004,58.4300081 L89.1300004,60.6700081 L93.8700004,62.9100081 C96.0039066,63.9154429 97.3668471,66.0611005 97.3700004,68.4200081 L97.3700004,87.1100081 L95.2700004,91.1100081 L93.1800004,95.1100081 L91.0800004,99.1100081 L88.9900004,103.110008 L90.1200004,104.510008 L91.2500004,105.920008 L92.3700004,107.330008 L93.5000004,108.740008 L96.3300004,104.230008 L99.1500004,99.7200081 L101.98,95.2100081 L104.81,90.7000081 L104.56,82.5600081 L104.31,74.4300081 L104.06,66.2900081 L103.81,58.1500081 L102.52,53.6000081 L101.23,49.0500081 L99.9500004,44.5000081 L98.6600004,39.9500081 L91.5700004,41.9500081 L84.4800004,43.9500081 L77.3900004,45.9500081 L70.3000004,48.2600081 Z" id="Path" fill="#66C2E9" style="mix-blend-mode: multiply;"></path>
                <path d="M106.24,43.4500081 L103.79,41.0300081 L101.33,38.6100081 L98.8700004,36.1900081 L96.4100004,33.7700081 L96.3200004,33.6900081 L96.2300004,33.6200081 L96.1200004,33.6200081 L96.0100004,33.6200081 L94.0100004,32.9600081 L92.0100004,32.3100081 L90.0100004,31.6600081 L88.0100004,31.0000081 L87.8500004,31.0000081 L87.7700004,31.0000081 L80.1500004,31.0000081 L80.0600004,31.0000081 L79.9600004,31.0000081 L79.8700004,31.0000081 L79.7800004,31.0000081 L75.9300004,32.4900081 L72.1100004,33.9200081 L68.2600004,35.4100081 L64.4100004,36.9000081 L64.3100004,36.9000081 L64.2100004,36.9000081 L64.1100004,37.1200081 L64.0300004,37.2000081 L62.4800004,38.8300081 L60.9200004,40.4600081 L59.3700004,42.0900081 L57.8100004,43.7200081 L57.7100004,43.8400081 C57.6794694,43.8878492 57.6527214,43.9380017 57.6300004,43.9900081 C57.6065387,44.0385529 57.5864901,44.0886745 57.5700004,44.1400081 L57.5700004,44.3000081 L57.2600004,46.6800081 L56.9500004,49.0700081 L56.6400004,51.4500081 L56.3400004,53.8400081 L56.3400004,54.0600081 L56.6500004,57.4100081 L56.9500004,60.7600081 L57.2600004,64.1100081 L57.5600004,67.4600081 C57.5687022,67.5596311 57.592298,67.6573853 57.6300004,67.7500081 C57.67018,67.8419812 57.720491,67.9291868 57.7800004,68.0100081 C57.8425591,68.0840754 57.9129714,68.1511347 57.9900004,68.2100081 C58.07383,68.2651358 58.1646282,68.3088535 58.2600004,68.3400081 L58.3100004,68.3400081 L58.3100004,68.3400081 L58.3100004,68.3400081 L58.3100004,68.3400081 C58.4030731,68.3691297 58.4908595,68.413023 58.5700004,68.4700081 C58.6486593,68.5230587 58.7193682,68.5870334 58.7800004,68.6600081 C58.8392924,68.7338111 58.8896425,68.8143713 58.9300004,68.9000081 C58.9671499,68.9900228 58.9939875,69.0839544 59.0100004,69.1800081 L59.1100004,69.9300081 L59.2100004,70.6700081 L59.3100004,71.4200081 L59.4000004,72.1600081 L59.8900004,72.1600081 L60.3700004,72.1600081 L60.8500004,72.1600081 L61.3400004,72.1600081 L61.3400004,65.0000081 L61.6800004,62.5300081 L62.0300004,60.0700081 L62.3800004,57.6000081 L62.7200004,55.1400081 C62.7155314,55.0800913 62.7155314,55.0199249 62.7200004,54.9600081 C62.7372641,54.9010282 62.7607284,54.8440434 62.7900004,54.7900081 L62.8900004,54.6400081 C62.9279997,54.5886581 62.971602,54.5417017 63.0200004,54.5000081 L64.5000004,53.2100081 L65.9900004,51.9200081 L67.4700004,50.6300081 L68.9500004,49.3400081 C69.0856681,49.2263166 69.2469827,49.1473755 69.4200004,49.1100081 C69.7505573,49.0456077 70.092048,49.142116 70.3400004,49.3700081 C70.4669591,49.4905159 70.5600614,49.6422383 70.6100004,49.8100081 L70.6900004,50.0500081 L70.7600004,50.2900081 L70.8400004,50.5300081 L70.9200004,50.7700081 C70.9455367,50.8626452 70.9860733,50.9504745 71.0400004,51.0300081 C71.0889499,51.1087707 71.1496508,51.1795885 71.2200004,51.2400081 C71.2924846,51.3011333 71.3732937,51.351639 71.4600004,51.3900081 C71.546181,51.430439 71.6367974,51.4606445 71.7300004,51.4800081 L76.1600004,52.2000081 L80.5900004,52.9300081 L85.0200004,53.6500081 L89.4500004,54.3800081 L89.6100004,54.3800081 L89.7700004,54.4500081 C89.8222034,54.4703689 89.8698045,54.5009696 89.9100004,54.5400081 C89.9577096,54.5711662 90.0013754,54.6081142 90.0400004,54.6500081 L91.5100004,56.2400081 L93.1100004,57.8200081 L94.5800004,59.4000081 L96.0500004,60.9900081 L95.7200004,59.1500081 L95.4000004,57.3200081 L95.0800004,55.4800081 L94.7500004,53.6400081 C94.7300298,53.5174832 94.7300298,53.392533 94.7500004,53.2700081 C94.7767485,53.154176 94.8205603,53.0429615 94.8800004,52.9400081 C94.9399664,52.8370223 95.017858,52.7455843 95.1100004,52.6700081 C95.2034897,52.5891172 95.3123233,52.5278984 95.4300004,52.4900081 L96.0200004,52.2800081 L96.6200004,52.0700081 L97.2100004,51.8700081 L97.8100004,51.6600081 C97.9422132,51.6355619 98.0777876,51.6355619 98.2100004,51.6600081 C98.3454357,51.666556 98.4781246,51.7005788 98.6000004,51.7600081 C98.718157,51.8187703 98.8235147,51.9003376 98.9100004,52.0000081 C99.0063339,52.1025758 99.0781367,52.2256664 99.1200004,52.3600081 L99.8400004,54.4700081 L100.55,56.5800081 L101.27,58.6900081 L101.98,60.8000081 L101.98,60.9700081 L102.44,63.8600081 L102.9,66.7600081 L103.35,69.6600081 L103.81,72.5600081 L104.71,72.5600081 L104.86,71.5600081 L105,70.5600081 L105.15,69.5600081 L105.29,68.5600081 C105.301934,68.4922466 105.318642,68.4254133 105.34,68.3600081 C105.361889,68.2962838 105.392154,68.2357533 105.43,68.1800081 L105.55,68.0100081 L105.71,67.8800081 L105.79,67.8200081 L105.88,67.7600081 L105.96,67.6900081 L106.05,67.6300081 C106.118916,67.5876391 106.179844,67.533481 106.23,67.4700081 C106.285534,67.4100096 106.332634,67.342724 106.37,67.2700081 C106.401115,67.1949614 106.427827,67.1181645 106.45,67.0400081 C106.460458,66.9570029 106.460458,66.8730133 106.45,66.7900081 L106.45,44.1800081 C106.454909,44.1134318 106.454909,44.0465844 106.45,43.9800081 C106.439297,43.9108984 106.419107,43.8435967 106.39,43.7800081 C106.366091,43.720321 106.335922,43.6633361 106.3,43.6100081 C106.284298,43.5551605 106.264234,43.5016566 106.24,43.4500081 L106.24,43.4500081 Z" id="Path" fill="#023852"></path>
                <path d="M70.6100004,114.730008 L72.6900004,115.360008 L74.7800004,115.990008 L76.8600004,116.620008 L78.9500004,117.260008 L79.1600004,117.310008 L79.3700004,117.310008 L79.5900004,117.310008 L84.5300004,117.310008 L84.7500004,117.310008 L84.9600004,117.310008 L85.1800004,117.260008 L87.2600004,116.620008 L89.3500004,115.990008 L91.4400004,115.360008 L93.5300004,114.720008 C93.9479955,114.601759 94.3318855,114.385821 94.6500004,114.090008 C94.811143,113.946903 94.9554114,113.785859 95.0800004,113.610008 C95.2042226,113.433936 95.3113741,113.246421 95.4000004,113.050008 L97.6900004,107.660008 L99.9800004,102.280008 L102.28,96.9000081 L104.57,91.5200081 C104.57,91.4200081 104.64,91.3300081 104.67,91.2400081 C104.7,91.1500081 104.73,91.0400081 104.75,90.9500081 C104.77,90.8600081 104.75,90.7500081 104.75,90.6500081 C104.75,90.5500081 104.75,90.4500081 104.75,90.3500081 L104.75,72.5100081 L103.83,72.5100081 L103.37,75.8100081 L102.92,79.1000081 L102.46,82.4000081 L102.01,85.6900081 C102.01,85.8200081 101.96,85.9400081 101.93,86.0600081 C101.866972,86.3058978 101.76933,86.5415861 101.64,86.7600081 C101.579202,86.8670117 101.51243,86.9705087 101.44,87.0700081 L100.33,88.5500081 L99.2200004,90.0200081 L98.1100004,91.4900081 L96.9900004,92.9600081 C96.7014771,93.3509708 96.3199511,93.6637534 95.8800004,93.8700081 C95.4622562,94.0577757 95.0078943,94.1500146 94.5500004,94.1400081 C94.088521,94.1293164 93.6361507,94.0093698 93.2300004,93.7900081 C92.7961976,93.5501896 92.4285769,93.2066188 92.1600004,92.7900081 L91.5200004,91.7900081 L90.8700004,90.7900081 L90.2200004,89.7900081 L89.5700004,88.7900081 C89.434416,88.586721 89.2730741,88.40185 89.0900004,88.2400081 C88.9110159,88.0766962 88.7129061,87.9356689 88.5000004,87.8200081 C88.2894092,87.705858 88.0638932,87.6217103 87.8300004,87.5700081 C87.5948358,87.5093461 87.3528614,87.4790993 87.1100004,87.4800081 L77.2400004,87.4800081 C77.0147473,87.4781133 76.7899974,87.5015946 76.5700004,87.5500081 C76.1331833,87.6469015 75.7254402,87.8456334 75.3800004,88.1300081 C75.2061373,88.2722138 75.0485147,88.43319 74.9100004,88.6100081 L74.2400004,89.4500081 L73.5800004,90.3000081 L72.9100004,91.1400081 L72.2500004,91.9800081 C71.9451389,92.3768856 71.5417982,92.6871477 71.0800004,92.8800081 C70.6414943,93.0659287 70.1650223,93.1447694 69.6900004,93.1100081 C69.2195007,93.07085 68.7643717,92.923703 68.3600004,92.6800081 C67.9411828,92.4140829 67.5970246,92.0458337 67.3600004,91.6100081 L65.9600004,89.1600081 L64.5700004,86.7000081 L63.1800004,84.2500081 L61.7800004,81.7900081 C61.7206854,81.6795873 61.6672768,81.5660941 61.6200004,81.4500081 C61.5710448,81.3331813 61.530932,81.2128429 61.5000004,81.0900081 C61.4637885,80.9655403 61.4370455,80.8385111 61.4200004,80.7100081 C61.4200004,80.5800081 61.4200004,80.4600081 61.4200004,80.3300081 L61.4200004,72.1200081 L60.4200004,72.1200081 C60.3169724,72.1312417 60.2130285,72.1312417 60.1100004,72.1200081 C60.0000004,72.1200081 59.9000004,72.0300081 59.8200004,72.0100081 C59.7400004,71.9900081 59.6600004,71.9600081 59.6200004,72.0100081 C59.5800004,72.0600081 59.5400004,72.1000081 59.5400004,72.2300081 L59.5400004,90.4100081 C59.5400004,90.5100081 59.5400004,90.6100081 59.5400004,90.7100081 C59.5400004,90.8100081 59.5400004,90.9000081 59.5400004,91.0000081 C59.5400004,91.1000081 59.5400004,91.1900081 59.6100004,91.2800081 C59.6800004,91.3700081 59.6800004,91.4700081 59.7100004,91.5600081 L61.9600004,96.9400081 L64.2100004,102.320008 L66.4600004,107.700008 L68.7100004,113.080008 C68.7886085,113.284452 68.8963924,113.476442 69.0300004,113.650008 C69.1541197,113.829251 69.2983967,113.99366 69.4600004,114.140008 C69.6205692,114.283277 69.7947267,114.410546 69.9800004,114.520008 C70.1815819,114.613107 70.3928761,114.683538 70.6100004,114.730008 L70.6100004,114.730008 Z" id="Path" fill="#023852"></path>
                <path d="M87.6200004,30.8600081 L79.8900004,30.8600081 L79.8000004,30.8600081 L79.7100004,30.8600081 L75.8600004,32.3500081 L72.0100004,33.8500081 L68.1600004,35.3400081 L64.3100004,36.8300081 L64.2100004,36.8300081 L64.1100004,36.8300081 L64.0200004,36.9000081 C63.9908735,36.9240955 63.9640878,36.9508812 63.9400004,36.9800081 L62.3800004,38.6100081 L60.8300004,40.2400081 L59.2800004,41.8700081 L57.7200004,43.5000081 L57.6200004,43.6200081 C57.5894694,43.6678492 57.5627214,43.7180017 57.5400004,43.7700081 C57.5165387,43.8185529 57.4964901,43.8686745 57.4800004,43.9200081 C57.4743708,43.9731929 57.4743708,44.0268233 57.4800004,44.0800081 L57.4100004,44.5700081 L57.3500004,45.0600081 L57.2900004,45.5500081 L57.2200004,46.0400081 L59.6300004,44.2200081 C60.5000004,43.5500081 61.4200004,42.8600081 62.2800004,42.2200081 L64.5800004,40.5000081 L65.9300004,39.5000081 L66.0000004,39.4500081 L66.0700004,39.4500081 L66.1400004,39.4500081 L66.2200004,39.4500081 L69.7700004,38.3100081 L73.3200004,37.1600081 L76.8600004,36.0200081 L80.4100004,34.8800081 L80.4800004,34.8800081 L80.5600004,34.8800081 L87.4500004,34.8800081 L89.3900004,35.3400081 L91.3300004,35.8100081 L93.2700004,36.2700081 L95.2100004,36.7400081 L95.2900004,36.7400081 C95.3198506,36.7357683 95.3501502,36.7357683 95.3800004,36.7400081 L95.4600004,36.7400081 L95.5400004,36.7400081 L98.2800004,38.5500081 L101.02,40.3600081 L103.76,42.1700081 L106.5,43.9800081 L106.5,43.5700081 L103.97,41.0800081 L101.43,38.5800081 L98.9000004,36.0900081 L96.3600004,33.5900081 L96.2700004,33.5100081 L96.1700004,33.4400081 L96.0700004,33.4400081 L95.9600004,33.4400081 L93.9600004,32.7800081 L91.9600004,32.1300081 L89.9600004,31.4800081 L87.9600004,30.8200081 L87.8800004,30.8200081 L87.8000004,30.8200081 L87.6400004,30.8200081 L87.6200004,30.8600081 Z" id="Path" fill="#4E7486"></path>
                <path d="M99.1100004,132.750008 L94.9300004,130.600008 L90.7400004,128.460008 L86.5600004,126.310008 L82.4100004,124.120008 L80.4100004,124.120008 L76.3200004,126.370008 L72.2200004,128.620008 L68.1100004,130.920008 L64.0100004,133.170008 C63.9807153,133.18343 63.9587855,133.209015 63.9500004,133.240008 C63.9400948,133.26919 63.9400948,133.300826 63.9500004,133.330008 C63.9630863,133.359336 63.9873817,133.382195 64.0174518,133.393471 C64.0475219,133.404747 64.0808571,133.4035 64.1100004,133.390008 L68.3700004,131.810008 L72.6400004,130.230008 L76.9100004,128.650008 L81.1700004,127.060008 L81.2600004,127.060008 L85.6900004,128.540008 L90.1300004,130.020008 L94.5700004,131.500008 L99.0000004,132.980008 C99.0314072,132.996035 99.0685936,132.996035 99.1000004,132.980008 C99.1287652,132.971283 99.151275,132.948773 99.1600004,132.920008 C99.1699061,132.890826 99.1699061,132.85919 99.1600004,132.830008 C99.1539389,132.798021 99.1360964,132.769473 99.1100004,132.750008 Z" id="Path" fill="#0099DA"></path>
                <polygon id="Path" fill="#023852" points="75.9400004 136.530008 75.4900004 138.290008 75.0400004 140.040008 74.6000004 153.310008 74.1500004 166.570008 77.6300004 166.570008 81.1100004 166.570008 84.5900004 166.570008 88.0700004 166.570008 87.1700004 153.140008 86.2700004 139.720008 85.3800004 137.800008 84.4800004 135.890008 84.4800004 135.250008 84.4800004 134.620008 84.4800004 134.620008 84.4800004 134.620008 85.3000004 132.690008 86.1200004 130.760008 86.9400004 128.840008 87.7600004 126.900008 86.4200004 126.220008 85.0700004 125.530008 83.7300004 124.840008 82.3800004 124.150008 81.9000004 124.150008 81.4200004 124.150008 80.9300004 124.150008 80.4500004 124.150008 78.6100004 125.160008 76.7800004 126.170008 74.9400004 127.180008 73.1100004 128.190008 73.8100004 129.960008 74.5200004 131.730008 75.2300004 133.500008 75.9400004 135.270008 75.9400004 135.270008 75.9400004 135.270008 75.9400004 135.900008"></polygon>
                <path d="M286.34,126.960008 C286.34,126.960008 286.34,126.960008 286.34,126.960008 L286.34,126.910008 C286.34,126.910008 286.34,126.910008 286.34,126.960008 L286.34,126.960008 L286.34,126.960008 Z" id="Path" fill="#FFE700"></path>
                <path d="M218.79,90.4200081 L311.35,90.4200081 C313.006855,90.4200081 314.35,91.7631538 314.35,93.4200081 L314.35,117.370008 C314.35,119.026862 313.006855,120.370008 311.35,120.370008 L293.04,120.370008 C292.166739,120.37729 291.304764,120.568083 290.51,120.930008 C288.587191,121.856323 287.155584,123.564781 286.58,125.620008 C286.545319,125.722716 286.448397,125.791369 286.34,125.790008 C286.234284,125.796949 286.139953,125.724057 286.12,125.620008 C285.755485,123.622985 284.415255,121.941129 282.55,121.140008 C281.635175,120.727257 280.658916,120.467146 279.66,120.370008 L218.79,120.370008 C217.133146,120.370008 215.79,119.026862 215.79,117.370008 L215.79,93.4300081 C215.79,91.7731538 217.133146,90.4300081 218.79,90.4300081 L218.79,90.4200081 Z" id="Path" fill="#FFE700"></path>
                <polygon id="Path" fill="#023852" points="294.43 103.000008 263.57 103.000008 232.72 103.000008 232.72 105.850008 232.72 108.690008 263.57 108.690008 294.43 108.690008 294.43 105.850008"></polygon>
                <path d="M274.91,52.5400081 L182.34,52.5400081 C180.683146,52.5400081 179.34,53.8831538 179.34,55.5400081 L179.34,79.4900081 C179.34,81.1468623 180.683146,82.4900081 182.34,82.4900081 L200.65,82.4900081 C201.527429,82.4887067 202.394465,82.6798644 203.19,83.0500081 C205.110068,83.9721727 206.538859,85.6779741 207.11,87.7300081 C207.141112,87.8366748 207.238889,87.9100081 207.35,87.9100081 C207.458968,87.9162992 207.554589,87.8380641 207.57,87.7300081 C207.929362,85.7298951 209.276695,84.0476109 211.15,83.2600081 C212.059156,82.8412326 213.033161,82.5808215 214.03,82.4900081 L274.91,82.4900081 C276.566855,82.4900081 277.91,81.1468623 277.91,79.4900081 L277.91,55.5500081 C277.91,53.8931538 276.566855,52.5500081 274.91,52.5500081 L274.91,52.5400081 Z" id="Path" fill="#FFFFFF"></path>
                <polygon id="Path" fill="#023852" points="199.26 65.1200081 230.12 65.1200081 260.98 65.1200081 260.98 67.9600081 260.98 70.8100081 230.12 70.8100081 199.26 70.8100081 199.26 67.9600081"></polygon>
                <polygon id="Path" fill="#9DADB7" points="246.31 160.230008 212.82 160.230008 179.33 160.230008 179.33 162.500008 179.33 164.770008 212.82 164.770008 246.31 164.770008 246.31 162.500008"></polygon>
                <polygon id="Path" fill="#9DADB7" points="246.31 152.970008 212.82 152.970008 179.33 152.970008 179.33 155.240008 179.33 157.510008 212.82 157.510008 246.31 157.510008 246.31 155.240008"></polygon>
                <polygon id="Path" fill="#9DADB7" points="246.31 145.700008 212.82 145.700008 179.33 145.700008 179.33 147.970008 179.33 150.240008 212.82 150.240008 246.31 150.240008 246.31 147.970008"></polygon>
            </g>
            <polygon id="Path" fill="#FFFFFF" opacity="0.2" points="13 12 27 25.47 41 38.93 55 52.39 69 65.85 110.51 105.66 152.05 145.45 193.59 185.23 235.23 225 389 225 389 12"></polygon>
        </g>
    </g>
</svg>