<svg xmlns="http://www.w3.org/2000/svg" xmlns:xlink="http://www.w3.org/1999/xlink" viewBox="0 0 285 241.73"><defs><style>.cls-1{isolation:isolate;}.cls-2{fill:#fff;}.cls-3{fill:#00a2de;}.cls-4{fill:#009bdb;}.cls-4,.cls-6{mix-blend-mode:multiply;}.cls-5{fill:#f1f3f2;}.cls-6{fill:url(#linear-gradient);}.cls-7{fill:#003a5d;}</style><linearGradient id="linear-gradient" x1="38.53" y1="241.73" x2="38.53" y2="213.67" gradientUnits="userSpaceOnUse"><stop offset="0.23" stop-color="#fff"/><stop offset="0.43" stop-color="#fcfcfc"/><stop offset="0.6" stop-color="#f1f1f3"/><stop offset="0.77" stop-color="#dfdfe3"/><stop offset="0.92" stop-color="#c6c6ce"/><stop offset="1" stop-color="#b7b7c1"/></linearGradient></defs><title>ease of use</title><g class="cls-1"><g id="Layer_1" data-name="Layer 1"><path class="cls-2" d="M249.14,45.53c0-.57,0-.57.57-1.14.57,0,1.71-.57,2.28-.57l32.44-.57c.57,0,.57-.57.57-1.14h0a.56.56,0,0,0-.57-.57L252,41c-1.14,0-1.71,0-2.28-.57-.57,0-.57-.57-.57-1.14.57-.57.57-1.71,1.14-2.28l11.38-12a.79.79,0,0,0,0-1.14h-1.14L248.57,35.28c-.57.57-1.13,1.14-1.7,1.14s-.57,0-1.14-.57c0-.57-.57-1.13-.57-2.27l-.57-33A.56.56,0,0,0,244,0h0a.56.56,0,0,0-.57.57l-.57,33a3.4,3.4,0,0,1-.57,2.27c0,.57-.57.57-1.13.57-.57-.57-1.71-.57-2.28-1.14L227,23.9h-1.14a.79.79,0,0,0,0,1.14l11.38,12a3,3,0,0,1,1.14,2.28c0,.57,0,.57-.57,1.14a3.43,3.43,0,0,1-2.28.57l-33,.56c-.57,0-.57.57-.57,1.14h0a.56.56,0,0,0,.57.57l33,.57a3.43,3.43,0,0,1,2.28.57c.57,0,.57.57.57,1.14-.57.57-.57,1.14-1.14,1.71L225.81,59.19a.78.78,0,0,0,0,1.13H227l12-11.38c.57-.57,1.14-1.14,1.71-1.14s.57,0,1.13.57a3.43,3.43,0,0,1,.57,2.28l.57,33a.56.56,0,0,0,.57.57h0a.56.56,0,0,0,.57-.57l.57-33c0-1.14,0-1.71.57-2.28,0-.57.57-.57,1.14-.57.57.57,1.13.57,1.7,1.14l12,11.38h1.13a.78.78,0,0,0,0-1.13L249.71,47.24A2.09,2.09,0,0,0,249.14,45.53Z"/><path class="cls-3" d="M180.26,91.5a50.28,50.28,0,0,0,3.2-6.07,49.9,49.9,0,0,0,3.74-13.12,50.42,50.42,0,0,0,.47-6.85V41.77a16.11,16.11,0,0,0-.75-4.93,15.78,15.78,0,0,0-2.08-4.24,17.1,17.1,0,0,0-3.21-3.43,18.58,18.58,0,0,0-4.1-2.52,16.1,16.1,0,0,0-1.67-.66c-.57-.19-1.16-.35-1.75-.49a18.17,18.17,0,0,0-1.82-.3,16.54,16.54,0,0,0-1.88-.1,16,16,0,0,0-1.84.1,14.85,14.85,0,0,0-1.79.29,16.3,16.3,0,0,0-1.73.47,16.54,16.54,0,0,0-1.65.64,18.81,18.81,0,0,0-4.14,2.51A16.81,16.81,0,0,0,156,32.56a15.78,15.78,0,0,0-2.11,4.25,16.62,16.62,0,0,0-.75,5v4c0,2.31,0,5.35,0,8.38V66.21a6.6,6.6,0,0,1-.19,1.48,9.57,9.57,0,0,1-.51,1.57,10,10,0,0,1-.75,1.46,6.27,6.27,0,0,1-.92,1.18l-6,7.55-6,7.54-6,7.55-6,7.55h0a17.11,17.11,0,0,0-1.65,1.87,19.8,19.8,0,0,0-1.4,2,20.61,20.61,0,0,0-1.13,2.19,21.22,21.22,0,0,0-.86,2.3,5.33,5.33,0,0,1-2,2.82,5.85,5.85,0,0,1-3.34,1.06H47.26a.59.59,0,0,0-.23,0,.59.59,0,0,0-.19.13.52.52,0,0,0-.12.19.56.56,0,0,0,0,.23V235.32c0,.08,8.29.16,16.6.23s16.63.13,16.68.19a.76.76,0,0,0,.19.12.59.59,0,0,0,.23,0h38.79a5.32,5.32,0,0,1,1.2.13,5.48,5.48,0,0,1,2.16,1,5.25,5.25,0,0,1,.88.82,10.57,10.57,0,0,0,1.58,1.48,9.91,9.91,0,0,0,1.85,1.12,10.21,10.21,0,0,0,2.1.72,10.43,10.43,0,0,0,2.26.25h99.93l.36,0,.35,0,.35,0h4.61a12.47,12.47,0,0,0,4.92-1,12.63,12.63,0,0,0,4-2.72,12.78,12.78,0,0,0,2.73-4,12.61,12.61,0,0,0,1-4.92v-7a12.56,12.56,0,0,0-1-4.91,12.82,12.82,0,0,0-2.73-4,13,13,0,0,0-4-2.72,12.65,12.65,0,0,0-4.92-1H227.7a.59.59,0,0,1-.23,0,.64.64,0,0,1-.19-.13.5.5,0,0,1-.13-.19.59.59,0,0,1-.05-.23h0a.59.59,0,0,1,.05-.23.59.59,0,0,1,.13-.19.62.62,0,0,1,.19-.12.59.59,0,0,1,.23-.05h9.09a12.65,12.65,0,0,0,9-3.72,12.9,12.9,0,0,0,2.73-4,12.65,12.65,0,0,0,1-4.92v-7a12.65,12.65,0,0,0-1-4.92,12.9,12.9,0,0,0-2.73-4,12.65,12.65,0,0,0-9-3.72H227.7a.59.59,0,0,1-.23,0,.64.64,0,0,1-.19-.13.59.59,0,0,1-.13-.19.59.59,0,0,1-.05-.23h0a.59.59,0,0,1,.05-.23.5.5,0,0,1,.13-.19.64.64,0,0,1,.19-.13.59.59,0,0,1,.23,0h9.09a12.65,12.65,0,0,0,4.92-1,13,13,0,0,0,4-2.72,12.82,12.82,0,0,0,2.73-4,12.56,12.56,0,0,0,1-4.91v-7a12.61,12.61,0,0,0-1-4.92,12.78,12.78,0,0,0-2.73-4,12.63,12.63,0,0,0-4-2.72,12.47,12.47,0,0,0-4.92-1H227.7a.59.59,0,0,1-.23,0,.62.62,0,0,1-.19-.12.59.59,0,0,1-.13-.19.59.59,0,0,1-.05-.23h0a.56.56,0,0,1,.05-.23.43.43,0,0,1,.13-.19.5.5,0,0,1,.19-.13.59.59,0,0,1,.23-.05h9.09a12.47,12.47,0,0,0,4.92-1,12.63,12.63,0,0,0,4-2.72,12.78,12.78,0,0,0,2.73-4,12.56,12.56,0,0,0,1-4.91v-4.67a14.9,14.9,0,0,0-3.12-9.12,15.45,15.45,0,0,0-3.47-3.28,15.09,15.09,0,0,0-4.37-2h-.07l0,0a7.79,7.79,0,0,0-.72-.34,6.81,6.81,0,0,0-.76-.26,6.57,6.57,0,0,0-.77-.16,7,7,0,0,0-.79,0H173.09a1.45,1.45,0,0,1-.78-.22,1.55,1.55,0,0,1-.53-.55,1.48,1.48,0,0,1-.19-.74,1.52,1.52,0,0,1,.22-.79l2.12-3.57L176,98.64l2.11-3.57Z"/><path class="cls-4" d="M230.17,112a13.9,13.9,0,0,0-4.33-2.92,13.57,13.57,0,0,0-5.3-1.08h-47A13.7,13.7,0,0,0,161,116.35a13.29,13.29,0,0,0-1.08,5.28v6.21a13.38,13.38,0,0,0,1.08,5.29,13.79,13.79,0,0,0,6.66,7,13.23,13.23,0,0,0,4.52,1.28,13.45,13.45,0,0,0-4.52,1.27,13.87,13.87,0,0,0-6.66,7,13.34,13.34,0,0,0-1.08,5.29v6.21a13.29,13.29,0,0,0,1.08,5.28,13.53,13.53,0,0,0,2.93,4.33,13.63,13.63,0,0,0,8.25,3.93,13.45,13.45,0,0,0-4.52,1.27,13.76,13.76,0,0,0-6.66,7,13.33,13.33,0,0,0-1.08,5.28v6.21A13.34,13.34,0,0,0,161,199.7,13.63,13.63,0,0,0,173.51,208h47a13.56,13.56,0,0,0,5.3-1.07,13.83,13.83,0,0,0,7.26-7.25,13.51,13.51,0,0,0,1.07-5.29V188.2a13.5,13.5,0,0,0-1.07-5.28,13.72,13.72,0,0,0-6.67-7,13.46,13.46,0,0,0-4.51-1.27,13.72,13.72,0,0,0,11.18-8.26,13.46,13.46,0,0,0,1.07-5.28v-6.21a13.51,13.51,0,0,0-1.07-5.29,13.83,13.83,0,0,0-6.67-7,13.46,13.46,0,0,0-4.51-1.27,13.24,13.24,0,0,0,4.51-1.28,13.75,13.75,0,0,0,6.67-7,13.55,13.55,0,0,0,1.07-5.29v-6.21a13.46,13.46,0,0,0-1.07-5.28A13.7,13.7,0,0,0,230.17,112Z"/><path class="cls-4" d="M220.54,208.11h-47a13.38,13.38,0,0,0-5.29,1.08,13.74,13.74,0,0,0-7.26,7.25,13.29,13.29,0,0,0-1.08,5.28v6.21a13.38,13.38,0,0,0,1.08,5.29,13.77,13.77,0,0,0,7.26,7.24,13.38,13.38,0,0,0,5.29,1.08h47a13.39,13.39,0,0,0,5.3-1.08,13.77,13.77,0,0,0,7.26-7.24,13.55,13.55,0,0,0,1.07-5.29v-6.21a13.46,13.46,0,0,0-1.07-5.28,13.7,13.7,0,0,0-2.93-4.33,13.9,13.9,0,0,0-4.33-2.92A13.39,13.39,0,0,0,220.54,208.11Z"/><polygon class="cls-5" points="0 241.73 38.53 241.73 77.06 241.73 77.06 176.36 77.06 110.99 38.53 110.99 0 110.99 0 176.36 0 241.73"/><polygon class="cls-6" points="0 241.73 38.53 241.73 77.06 241.73 77.06 227.7 77.06 213.67 38.53 213.67 0 213.67 0 227.7 0 241.73"/><path class="cls-7" d="M48.59,212.45a10,10,0,0,0-.79-3.91,10.11,10.11,0,0,0-2.16-3.19,9.92,9.92,0,0,0-3.19-2.15,10.1,10.1,0,0,0-7.83,0,10,10,0,0,0-5.35,5.34,10,10,0,0,0,2.15,11,10.18,10.18,0,0,0,3.2,2.15,10.1,10.1,0,0,0,7.83,0,10.25,10.25,0,0,0,3.19-2.15,10,10,0,0,0,3-7.1Z"/><path class="cls-3" d="M191.05,140.71H237a13.07,13.07,0,0,0,5.16-1.05,13.42,13.42,0,0,0,7.09-7.07,13.07,13.07,0,0,0,1.05-5.16v-6.06a13.07,13.07,0,0,0-1.05-5.16,13.42,13.42,0,0,0-7.09-7.07,13.07,13.07,0,0,0-5.16-1h-45.9a13.07,13.07,0,0,0-5.16,1,13.42,13.42,0,0,0-7.09,7.07,13.07,13.07,0,0,0-1.05,5.16v6.06a13.07,13.07,0,0,0,1.05,5.16,13.42,13.42,0,0,0,7.09,7.07A13.07,13.07,0,0,0,191.05,140.71Z"/><path class="cls-3" d="M191.05,174.32H237a13.07,13.07,0,0,0,5.16-1,13.42,13.42,0,0,0,7.09-7.07,13.07,13.07,0,0,0,1.05-5.16V155a13.21,13.21,0,0,0-3.91-9.38,13.31,13.31,0,0,0-4.23-2.85A13.07,13.07,0,0,0,237,141.7h-45.9a13.07,13.07,0,0,0-5.16,1.05,13.31,13.31,0,0,0-4.23,2.85,13.21,13.21,0,0,0-3.91,9.38V161a13.07,13.07,0,0,0,1.05,5.16,13.42,13.42,0,0,0,7.09,7.07A13.07,13.07,0,0,0,191.05,174.32Z"/><path class="cls-3" d="M191.05,207.93H237a13.07,13.07,0,0,0,5.16-1.05,13.42,13.42,0,0,0,7.09-7.07,13.07,13.07,0,0,0,1.05-5.16v-6.06a13.21,13.21,0,0,0-3.91-9.38,13.31,13.31,0,0,0-4.23-2.85,13.07,13.07,0,0,0-5.16-1.05h-45.9a13.07,13.07,0,0,0-5.16,1.05,13.31,13.31,0,0,0-4.23,2.85,13.21,13.21,0,0,0-3.91,9.38v6.06a13.07,13.07,0,0,0,1.05,5.16,13.42,13.42,0,0,0,7.09,7.07A13.07,13.07,0,0,0,191.05,207.93Z"/><path class="cls-3" d="M191.05,241.54H237a13.07,13.07,0,0,0,5.16-1,13.42,13.42,0,0,0,7.09-7.07,13.07,13.07,0,0,0,1.05-5.16V222.2A13.32,13.32,0,0,0,237,208.92h-45.9a13.3,13.3,0,0,0-13.3,13.28v6.06a13.07,13.07,0,0,0,1.05,5.16,13.42,13.42,0,0,0,7.09,7.07A13.07,13.07,0,0,0,191.05,241.54Z"/><polygon class="cls-4" points="88.04 235.95 82.59 235.95 77.13 235.95 77.13 175.14 77.13 114.34 82.59 114.34 88.04 114.34 88.04 175.14 88.04 235.95"/></g></g></svg>