<?xml version="1.0" encoding="UTF-8"?>
<svg width="440px" height="330px" viewBox="0 0 440 330" version="1.1" xmlns="http://www.w3.org/2000/svg" xmlns:xlink="http://www.w3.org/1999/xlink">
    <title>Graphic elements / Icons / Rich icons / Emergency</title>
    <defs>
        <linearGradient x1="50%" y1="50%" x2="100%" y2="50%" id="linearGradient-1">
            <stop stop-color="#FFFFFF" stop-opacity="0" offset="0%"></stop>
            <stop stop-color="#FEF8BD" offset="100%"></stop>
            <stop stop-color="#000000" stop-opacity="0" offset="100%"></stop>
        </linearGradient>
        <linearGradient x1="100%" y1="50%" x2="15%" y2="50%" id="linearGradient-2">
            <stop stop-color="#FFFFFF" stop-opacity="0" offset="0%"></stop>
            <stop stop-color="#FDEF66" offset="100%"></stop>
        </linearGradient>
        <linearGradient x1="0.0330578512%" y1="50.0042724%" x2="100.033058%" y2="50.0042724%" id="linearGradient-3">
            <stop stop-color="#FFFFFF" stop-opacity="0" offset="0%"></stop>
            <stop stop-color="#FCE400" offset="100%"></stop>
            <stop stop-color="#000000" offset="100%"></stop>
        </linearGradient>
    </defs>
    <g id="Graphic-elements-/-Icons-/-Rich-icons-/-Emergency" stroke="none" stroke-width="1" fill="none" fill-rule="evenodd">
        <g id="Asset-2" transform="translate(67.000000, 0.000000)" fill-rule="nonzero">
            <circle id="Oval" fill="url(#linearGradient-1)" cx="153.039367" cy="153.039367" r="153.039367"></circle>
            <circle id="Oval" fill="url(#linearGradient-2)" cx="152.904977" cy="155.204525" r="111.901357"></circle>
            <path d="M109.825792,109.004525 L194.505882,109.004525 C204.993489,109.010782 213.946637,116.582156 215.69457,126.923077 L242.572398,283.710407 L61.8190045,283.710407 L88.6968326,126.923077 C90.4352828,116.601135 99.358517,109.033728 109.825792,109.004525 Z" id="Path" fill="#FFE700"></path>
            <path d="M215.69457,126.923077 C214.050038,117.068749 205.834745,109.645291 195.864706,109.004525 C196.790681,110.891209 197.434651,112.903617 197.776018,114.977376 L216.11267,222.264706 C218.215946,234.582885 214.779126,247.201645 206.719792,256.751956 C198.660457,266.302267 186.799167,271.811769 174.302715,271.809502 L63.8049774,271.809502 L61.759276,283.755204 L242.438009,283.755204 L215.69457,126.923077 Z" id="Path" fill="url(#linearGradient-3)" style="mix-blend-mode: multiply;"></path>
            <path d="M114.021719,144.841629 C115.763955,134.497461 124.720546,126.923177 135.210407,126.923077 L215.69457,126.923077 L215.69457,126.923077 C213.946637,116.582156 204.993489,109.010782 194.505882,109.004525 L109.825792,109.004525 C99.3359301,109.004525 90.3793396,116.578909 88.6371041,126.923077 L61.759276,283.710407 L90.2647059,283.710407 L114.021719,144.841629 Z" id="Path" fill="#FDEE5E"></path>
            <path d="M63.0882353,274.751131 L244.229864,274.751131 C249.054234,274.751131 252.965158,278.662056 252.965158,283.486425 L252.965158,298.642534 L54.3529412,298.642534 L54.3529412,283.486425 C54.3529412,278.662056 58.2638656,274.751131 63.0882353,274.751131 Z" id="Path" fill="#023852"></path>
            <path d="M36.2104072,297.149321 L271.107692,297.149321 C273.424436,297.149321 275.646293,298.069644 277.284478,299.70783 C278.922663,301.346015 279.842986,303.567871 279.842986,305.884615 L279.842986,330 L27.4751131,330 L27.4751131,305.884615 C27.4751131,301.060246 31.3860375,297.149321 36.2104072,297.149321 Z" id="Path" fill="#023852"></path>
            <path d="M272.600905,297.149321 L254.443439,297.149321 L254.443439,283.486425 C254.443446,278.667881 250.541614,274.759368 245.723077,274.751131 L155.786878,274.751131 L155.786878,330 L281.321267,330 L281.321267,305.884615 C281.321267,301.066071 277.419442,297.157558 272.600905,297.149321 L272.600905,297.149321 Z" id="Path" fill="#003A5D" style="mix-blend-mode: multiply;"></path>
            <path d="M96.2635496,129.513054 L99.1785723,129.513054 C100.802289,129.513054 102.118572,130.829337 102.118572,132.453054 L102.118572,174.63957 C102.118572,176.263287 100.802289,177.57957 99.1785723,177.57957 L96.2635496,177.57957 C94.6398325,177.57957 93.3235496,176.263287 93.3235496,174.63957 L93.3235496,132.453054 C93.3235496,130.829337 94.6398325,129.513054 96.2635496,129.513054 Z" id="Rectangle" fill="#FFFFFF" transform="translate(97.721061, 153.546312) rotate(10.250000) translate(-97.721061, -153.546312) "></path>
            <rect id="Rectangle" fill="#406B86" x="66.2986425" y="274.751131" width="5.42036199" height="20.9049774"></rect>
            <rect id="Rectangle" fill="#406B86" x="81.6936652" y="274.751131" width="5.42036199" height="20.9049774"></rect>
            <rect id="Rectangle" fill="#406B86" x="97.0886878" y="274.751131" width="5.42036199" height="20.9049774"></rect>
            <rect id="Rectangle" fill="#406B86" x="112.468778" y="274.751131" width="5.42036199" height="20.9049774"></rect>
            <rect id="Rectangle" fill="#406B86" x="127.863801" y="274.751131" width="5.42036199" height="20.9049774"></rect>
            <rect id="Rectangle" fill="#406B86" x="143.258824" y="274.751131" width="5.42036199" height="20.9049774"></rect>
            <rect id="Rectangle" fill="#406B86" x="158.638914" y="274.751131" width="5.42036199" height="20.9049774"></rect>
            <rect id="Rectangle" fill="#406B86" x="174.033937" y="274.751131" width="5.42036199" height="20.9049774"></rect>
            <rect id="Rectangle" fill="#406B86" x="189.414027" y="274.751131" width="5.42036199" height="20.9049774"></rect>
            <rect id="Rectangle" fill="#406B86" x="204.80905" y="274.751131" width="5.42036199" height="20.9049774"></rect>
            <rect id="Rectangle" fill="#406B86" x="220.204072" y="274.751131" width="5.42036199" height="20.9049774"></rect>
            <rect id="Rectangle" fill="#406B86" x="235.584163" y="274.751131" width="5.42036199" height="20.9049774"></rect>
        </g>
    </g>
</svg>