<?xml version="1.0" encoding="UTF-8"?>
<svg width="440px" height="330px" viewBox="0 0 440 330" version="1.1" xmlns="http://www.w3.org/2000/svg" xmlns:xlink="http://www.w3.org/1999/xlink">
    <title>Graphic elements / Icons / Rich icons / Employees</title>
    <g id="Graphic-elements-/-Icons-/-Rich-icons-/-Employees" stroke="none" stroke-width="1" fill="none" fill-rule="evenodd">
        <g id="Employees" transform="translate(0.000000, 69.000000)" fill-rule="nonzero">
            <path d="M436.43,248.84 L434.32,221.84 L432.21,194.84 L431.99,191.65 L431.77,188.46 L431.69,187.08 L431.6,185.7 C431.599999,185.640024 431.599999,185.580014 431.599999,185.520005 L431.599999,185.190005 C431.589258,185.04656 431.558978,184.905255 431.509999,184.770005 C431.46338,184.636844 431.395869,184.511949 431.309999,184.400005 C431.229412,184.282724 431.131653,184.178224 431.019999,184.090005 C430.906366,184.001466 430.782059,183.927554 430.649999,183.870005 L389.549999,166.790005 L348.4,149.78 L348.18,149.68 L347.97,149.54 C347.91,149.54 347.85,149.44 347.79,149.39 L347.62,149.21 L343.3,143.91 L338.97,138.61 L338.97,138.61 L338.97,138.61 L338.91,134.41 L338.86,130.2 L343.55,124.2 L348.25,118.14 C348.630205,117.640933 348.92736,117.083768 349.13,116.49 C349.337953,115.898948 349.442812,115.276561 349.44,114.65 L349.44,100.89 C349.775847,100.904363 350.112115,100.874099 350.44,100.8 C350.643624,100.742542 350.841212,100.665516 351.03,100.57 C351.221131,100.479346 351.402138,100.368731 351.57,100.24 L353,99.14 L354.43,98.04 L355.86,96.94 L357.29,95.84 C357.457442,95.712546 357.61156,95.5684791 357.75,95.41 C357.891007,95.2499466 358.015006,95.075678 358.12,94.89 C358.226961,94.7064191 358.314116,94.5119948 358.38,94.31 C358.451051,94.1090008 358.501313,93.9012486 358.53,93.69 L359.18,88.69 L359.83,83.69 L360.47,78.69 L361.12,73.69 L361.12,73.69 L361.12,73.69 C361.176177,73.2616162 361.14557,72.8263078 361.03,72.41 C360.91699,72.0041685 360.726859,71.6239069 360.47,71.29 C359.948266,70.6071398 359.173087,70.1636657 358.32,70.06 L357.98,70.06 L357.65,70.06 L357.32,70.06 L356.98,70.06 C356.830165,70.0500626 356.679835,70.0500626 356.53,70.06 L356.08,70.06 C355.931119,70.0827044 355.78407,70.1161246 355.64,70.16 C355.491547,70.1984075 355.347451,70.2520245 355.21,70.32 L354.13,70.82 L353.04,71.31 L352.51,71.55 L351.98,71.79 L352.09,71.72 L352.2,71.64 C352.32811,71.5465659 352.44549,71.4392466 352.55,71.32 C352.654508,71.2006674 352.745092,71.069825 352.82,70.93 C352.888034,70.7891038 352.94164,70.6416867 352.98,70.49 C353.019347,70.3330169 353.039494,70.1718383 353.04,70.01 L353.04,25.86 C353.054786,25.7304204 353.054786,25.5995796 353.04,25.47 C353.010603,25.3402258 352.970465,25.2131211 352.92,25.09 L352.92,25.09 L352.92,25 L352.92,25 L352.92,25 C352.87,24.91 352.82,24.82 352.76,24.73 C352.698327,24.6430796 352.627965,24.5626649 352.55,24.49 L347.78,19.8 L343.01,15.11 L338.24,10.42 L333.47,5.72 L333.29,5.57 L333.11,5.44 L332.9,5.33 L332.69,5.25 L328.81,3.98 L324.93,2.72 L321.05,1.45 L317,0.13 L316.85,0.13 L316.69,0.13 L316.46,0.13 L316.38,0.13 L301.38,0.13 L301.2,0.13 L301.02,0.13 L300.84,0.19 L293.37,3.08 L286,6 L278.53,8.89 L271,11.74 L270.8,11.83 L270.61,11.95 L270.43,12.08 L270.27,12.23 L267.27,15.39 L264.27,18.55 L261.27,21.71 L258.27,24.86 C258.19791,24.9388462 258.131099,25.0223608 258.07,25.11 C258.01,25.2 257.96,25.29 257.91,25.38 C257.86,25.47 257.83,25.58 257.8,25.68 C257.7695,25.7810215 257.749395,25.8848936 257.74,25.99 L257.61,26.99 L257.49,27.99 L257.37,28.99 L257.25,29.99 L257.33,29.92 L257.42,29.86 L257.06,32.65 L256.7,35.44 L256.1,40.06 L255.5,44.69 L255.5,45.13 L256.1,51.62 L256.69,58.11 L257.28,64.61 L257.87,71.1 C257.879669,71.2403497 257.909996,71.3785044 257.96,71.51 C258.009801,71.6412509 258.069992,71.7683205 258.14,71.89 L257.62,71.66 L257.11,71.42 L256.03,70.93 L254.94,70.43 C254.802549,70.3620245 254.658453,70.3084075 254.51,70.27 C254.36593,70.2261246 254.218881,70.1927044 254.07,70.17 L253.62,70.17 C253.470165,70.1600626 253.319835,70.1600626 253.17,70.17 L252.83,70.17 L252.5,70.17 L252.17,70.17 L251.83,70.17 C250.976913,70.2736657 250.201734,70.7171398 249.68,71.4 C249.48843,71.6500526 249.333534,71.9261709 249.22,72.22 C249.109009,72.5227473 249.038401,72.8388018 249.01,73.16 C249.01,73.27 249.01,73.39 249.01,73.5 C249.01,73.61 249.01,73.73 249.01,73.85 L249.66,78.85 L250.31,83.85 L250.95,88.85 L251.6,93.85 C251.628687,94.0612486 251.678949,94.2690008 251.75,94.47 C251.815884,94.6719948 251.903039,94.8664191 252.01,95.05 C252.114994,95.235678 252.238993,95.4099466 252.38,95.57 C252.51844,95.7284791 252.672558,95.872546 252.84,96 L254.27,97.1 L255.7,98.2 L257.13,99.3 L258.56,100.4 C258.727862,100.528731 258.908869,100.639346 259.1,100.73 C259.291493,100.827244 259.492573,100.904324 259.7,100.96 C259.902901,101.013518 260.110562,101.047012 260.32,101.06 C260.532601,101.085 260.747399,101.085 260.96,101.06 L260.96,101.06 L260.96,114.72 C260.962105,115.346151 261.066826,115.967724 261.27,116.56 C261.47264,117.153768 261.769795,117.710933 262.15,118.21 L264.51,121.21 L266.87,124.26 L267.32,132.42 L267.77,140.59 L258.98,148.79 L250.18,156.99 C250.125081,157.0458 250.064788,157.096043 250,157.14 L249.81,157.27 L249.61,157.38 C249.540506,157.41864 249.466651,157.448853 249.39,157.47 L232.7,163.4 L216,169.2 L202,166 L188,162.75 L180.49,161 L173.05,159.27 L172.89,159.27 L172.73,159.27 L172.59,159.27 L172.44,159.27 L172.14,159.27 L171.83,159.27 L170.72,159.2 L169.61,159.12 L168.02,159.01 L166.42,158.9 C165.90609,158.86292 165.397017,158.775841 164.9,158.64 C164.407341,158.501311 163.928621,158.317188 163.47,158.09 C163.014813,157.858467 162.582842,157.583881 162.18,157.27 C161.774038,156.952627 161.402052,156.594046 161.07,156.2 L158.07,152.64 L155.07,149.07 L154.98,148.96 L154.89,148.86 C155.03,148.68 155.17,148.5 155.3,148.31 C155.43157,148.117173 155.551774,147.916833 155.66,147.71 L163.57,132.71 L171.48,117.66 C172.01793,116.63239 172.299266,115.489892 172.3,114.33 L172.3,47.43 C172.30378,46.4525228 172.102799,45.4850892 171.71,44.59 C171.340979,43.6095907 170.756618,42.7245057 170,42 L160.49,33 L150.98,24 C150.268942,23.3292152 149.703842,22.5190115 149.32,21.62 C148.933238,20.7229929 148.732522,19.7568315 148.73,18.78 L148.73,17.68 C148.724227,15.2093679 147.45209,12.9142358 145.36,11.6 L138.36,7.2 L131.36,2.8 C130.790077,2.44726996 130.174292,2.17470937 129.53,1.99 C128.880372,1.80048487 128.206696,1.70617025 127.53,1.71 L94,1.71 C92.3318593,1.70602857 90.7149813,2.28626487 89.43,3.35 L77.25,13.35 L65.08,23.35 C64.6759111,23.7080047 64.3136086,24.110563 64,24.55 C63.6686558,24.9712185 63.3899307,25.4312828 63.17,25.92 L54.38,44.92 L45.6,63.92 C45.3843553,64.3919516 45.2168416,64.8844419 45.1,65.39 C44.9919251,65.8961625 44.9382869,66.4124309 44.94,66.93 L44.94,110.82 C44.9286869,111.214302 44.9487502,111.608879 45,112 C45.0747129,112.408877 45.1851358,112.810415 45.33,113.2 L49.33,124.15 L53.33,135.15 C54.0085469,137.039484 53.8708925,139.126034 52.95,140.91 L52.95,140.91 C51.7978538,143.136332 51.8902601,145.802374 53.1937876,147.943591 C54.4973151,150.084809 56.8232101,151.39115 59.33,151.39 L68.12,151.39 L66.47,152.93 L64.81,154.47 C64.5013808,154.763192 64.1666607,155.02762 63.81,155.26 C63.4555549,155.496244 63.0807351,155.700387 62.69,155.87 C62.3010735,156.048491 61.8958725,156.189139 61.48,156.29 C61.0635991,156.398883 60.6387622,156.472476 60.21,156.51 L43.74,157.92 L27.26,159.32 L26.97,159.32 L26.68,159.37 C26.4848056,159.396064 26.291183,159.432785 26.1,159.48 C25.9106501,159.519383 25.7236838,159.569463 25.54,159.63 C25.3595576,159.686197 25.1825841,159.752979 25.01,159.83 C24.8321357,159.899793 24.6585059,159.97993 24.49,160.07 L24.21,160.2 L23.94,160.36 L20.79,162.24 L17.65,164.12 L17.57,164.12 L17.48,164.17 L14.26,166.11 L11,168.09 C10.5133144,168.37542 10.0575429,168.710546 9.64,169.09 C9.22879378,169.480831 8.86313417,169.916939 8.55,170.39 C8.39808572,170.610591 8.26111267,170.841107 8.14,171.08 C8.01253118,171.316496 7.89900399,171.560246 7.8,171.81 C7.68724946,172.086564 7.59369444,172.37057 7.52,172.66 C7.43659851,172.952025 7.37311922,173.249375 7.33,173.55 L3.67,217.25 L0,261 L440,261 L438.21,254.92 L436.43,248.84 Z" id="Path" fill="#023852" opacity="0.3" style="mix-blend-mode: multiply;"></path>
            <path d="M148.69,18.76 L148.69,17.65 C148.691843,15.1773951 147.417799,12.8788226 145.32,11.57 L138.32,7.17 L131.32,2.77 C130.178641,2.04540382 128.851875,1.66682378 127.5,1.67966741 L94,1.67966741 C93.1718396,1.67966741 92.3497164,1.8209062 91.57,2.1 C90.7908723,2.37393343 90.0663682,2.78358295 89.43,3.31 L77.25,13.31 L65.08,23.31 C64.6732192,23.6690064 64.3106636,24.075203 64,24.52 C63.6686558,24.9412185 63.3899307,25.4012828 63.17,25.89 L54.38,44.89 L45.6,63.89 C45.3828568,64.3613548 45.2152899,64.8540012 45.1,65.36 C44.9913906,65.8660778 44.9377463,66.382404 44.94,66.9 L44.94,110.79 C44.9265317,111.194298 44.9466005,111.599017 45,112 C45.0746937,112.412142 45.1851102,112.817002 45.33,113.21 L49.33,124.16 L53.33,135.16 C54.009305,137.045994 53.8715923,139.129804 52.95,140.91 L52.95,140.91 C51.7930098,143.137122 51.8828761,145.806724 53.1870196,147.950998 C54.4911632,150.095271 56.8202806,151.402964 59.33,151.400005 L149.25,151.400005 C151.915815,151.39041 154.360063,149.914637 155.61,147.56 L163.52,132.56 L171.43,117.56 C171.697744,117.046497 171.902557,116.502567 172.04,115.94 C172.179962,115.377391 172.250003,114.799757 172.250003,114.22 L172.250003,47.16 C172.244142,45.1857848 171.431231,43.2998302 170,41.94 L160.49,32.94 L150.98,23.94 C150.269194,23.27289 149.704026,22.4659936 149.32,21.57 C148.924474,20.6847972 148.71026,19.7293372 148.69,18.76 Z" id="Path" fill="#023852"></path>
            <path d="M170,41.94 L160.49,32.94 L150.98,23.94 C150.269194,23.27289 149.704026,22.4659936 149.32,21.57 C148.934296,20.6726592 148.733625,19.7067164 148.73,18.73 L148.73,17.65 C148.731843,15.1773951 147.457799,12.8788226 145.36,11.57 L138.36,7.17 L131.36,2.77 C130.218641,2.04540382 128.891875,1.66682378 127.54,1.67966741 L94,1.67966741 C93.1718396,1.67881082 92.3497164,1.8209062 91.57,2.1 C90.7908723,2.37393343 90.0663682,2.78358295 89.43,3.31 L77.25,13.31 L65.08,23.31 C64.6732192,23.6690064 64.3106636,24.075203 64,24.52 C63.6686558,24.9412185 63.3899307,25.4012828 63.17,25.89 L54.38,44.89 L45.6,63.89 C45.3828568,64.3613548 45.2152899,64.8540012 45.1,65.36 C44.9913906,65.8660778 44.9377463,66.382404 44.9399318,66.9 L44.9399318,75.81 C44.9382869,75.2924309 44.9919251,74.7761625 45.1,74.27 C45.2168416,73.7644419 45.3843553,73.2719516 45.6,72.8 L54.38,53.8 L63.17,34.8 C63.3899307,34.3112828 63.6686558,33.8512185 64,33.43 C64.3290455,33.0058956 64.7047394,32.6201384 65.12,32.28 L77.29,22.28 L89.47,12.28 C90.7375101,11.2069897 92.3394104,10.6093713 94,10.59 L127.44,10.59 C128.791636,10.5887545 130.116018,10.9701212 131.26,11.69 L138.26,16.08 L145.26,20.48 C147.35209,21.7942358 148.624227,24.0893679 148.63,26.56 L148.63,27.67 C148.632522,28.6468315 148.833238,29.6129929 149.22,30.51 C149.603842,31.4090115 150.168942,32.2192152 150.88,32.89 L160.39,41.89 L169.9,50.89 C170.612354,51.5557669 171.177765,52.3630104 171.56,53.26 C171.952799,54.1550892 172.15378,55.1225228 172.150052,56.1 L172.150052,47.19 C172.144142,45.2157848 171.331231,43.3298302 169.9,41.97 L170,41.94 Z" id="Path" fill="#4E7486"></path>
            <path d="M231.51,199 L226.84,186.56 L222.17,174.12 C221.943969,173.51907 221.64507,172.948139 221.28,172.42 C220.552648,171.384124 219.585015,170.540018 218.46,169.96 C217.892466,169.667861 217.291338,169.446216 216.67,169.3 L205.76,166.78 L194.86,164.25 L184,161.75 L173.1,159.22 L172.8,159.16 L172.49,159.16 L172.19,159.16 C172.086736,159.154658 171.983264,159.154658 171.88,159.16 L169.18,158.97 L166.47,158.79 C165.956695,158.74803 165.448071,158.661029 164.95,158.53 C164.457341,158.391311 163.978621,158.207188 163.52,157.98 C163.066954,157.744732 162.635315,157.470357 162.23,157.16 C161.828818,156.837164 161.457336,156.479069 161.12,156.09 L158.12,152.52 L155.12,148.95 L152.12,145.39 L149.12,141.82 C148.752453,141.390659 148.340116,141.001788 147.89,140.66 C147.443039,140.329436 146.963961,140.044669 146.46,139.81 C145.950019,139.57815 145.417095,139.400508 144.87,139.28 C144.260348,139.111082 143.63239,139.017056 143,139 L128.28,139.08 L113.55,139.15 L98.82,139.22 L84.1,139.29 C83.6166521,139.29101 83.1344907,139.337887 82.66,139.43 C82.1923283,139.522251 81.7338376,139.656117 81.29,139.83 C80.845866,140.010401 80.4176904,140.227833 80.01,140.48 C79.6027578,140.736238 79.2210123,141.030919 78.87,141.36 L75.35,144.62 L71.84,147.89 L68.33,151.15 L64.81,154.41 C64.5014456,154.706245 64.1667512,154.974001 63.81,155.21 C63.4532792,155.442454 63.0787854,155.646419 62.69,155.82 C62.2975868,155.989676 61.8931476,156.130059 61.48,156.24 C61.064336,156.350358 60.6390636,156.420678 60.21,156.45 L51.97,157.16 L43.74,157.86 L35.5,158.56 L27.26,159.27 C26.967555,159.289648 26.6768443,159.329746 26.39,159.39 C26.1027472,159.451369 25.8190038,159.528146 25.54,159.62 C25.2607033,159.706813 24.9868764,159.810333 24.72,159.93 C24.4518947,160.050658 24.1914097,160.18758 23.94,160.34 L20.71,162.28 L17.48,164.21 L14.26,166.14 L11,168.06 C10.5090743,168.338931 10.0526132,168.674564 9.64,169.06 C9.22894512,169.447295 8.86326277,169.880075 8.55,170.35 C7.91963855,171.302734 7.5034051,172.380847 7.33,173.51 L3.65,217.26 L0,261 L240.48,261 L236,230 L231.51,199 Z" id="Path" fill="#023852"></path>
            <path d="M231.51,199 L226.84,186.56 L222.17,174.12 C221.943969,173.51907 221.64507,172.948139 221.28,172.42 C220.552648,171.384124 219.585015,170.540018 218.46,169.96 C217.892466,169.667861 217.291338,169.446216 216.67,169.3 L194.86,164.3 L173.05,159.25 L172.75,159.19 L172.44,159.19 L172.14,159.19 C172.036736,159.184658 171.933264,159.184658 171.83,159.19 L169.13,159 L166.42,158.82 C165.906695,158.77803 165.398071,158.691029 164.9,158.56 C164.407341,158.421311 163.928621,158.237188 163.47,158.01 C163.016954,157.774732 162.585315,157.500357 162.18,157.19 C161.778818,156.867164 161.407336,156.509069 161.07,156.12 L155,148.83 L148.91,141.7 C148.542453,141.270659 148.130116,140.881788 147.68,140.54 C147.233039,140.209436 146.753961,139.924669 146.25,139.69 C145.740019,139.45815 145.207095,139.280508 144.66,139.16 C144.113986,139.047421 143.557464,138.99378 143,138.999515 L113.55,139.15 L84.1,139.29 C83.6166521,139.29101 83.1344907,139.337887 82.66,139.43 C82.1923283,139.522251 81.7338376,139.656117 81.29,139.83 C80.845866,140.010401 80.4176904,140.227833 80.01,140.48 C79.6027578,140.736238 79.2210123,141.030919 78.87,141.36 L71.87,147.89 L64.87,154.41 C64.5614456,154.706245 64.2267512,154.974001 63.87,155.21 C63.5132792,155.442454 63.1387854,155.646419 62.75,155.82 C62.3575868,155.989676 61.9531476,156.130059 61.54,156.24 C61.124336,156.350358 60.6990636,156.420678 60.27,156.45 L43.8,157.86 L27.32,159.27 C27.027555,159.289648 26.7368443,159.329746 26.45,159.39 C26.1627472,159.451369 25.8790038,159.528146 25.6,159.62 C25.3207033,159.706813 25.0468764,159.810333 24.78,159.93 C24.5118947,160.050658 24.2514097,160.18758 24,160.34 L17.54,164.21 L11,168.06 C10.5090743,168.338931 10.0526132,168.674564 9.64,169.06 C9.22894512,169.447295 8.86326277,169.880075 8.55,170.35 C7.91963855,171.302734 7.5034051,172.380847 7.33,173.51 L3.65,217.26 L0,261 L3.08,261 L7.08,222.6 L11.08,184.21 L17.53,180.34 L23.99,176.48 C24.4944239,176.177728 25.0310987,175.93287 25.59,175.75 C25.8678162,175.656799 26.1518525,175.583284 26.44,175.53 C26.7274949,175.4713 27.0179037,175.427906 27.31,175.4 L43.69,174 L60.16,172.6 C60.5887622,172.562476 61.0135991,172.488883 61.43,172.38 C61.8458725,172.279139 62.2510735,172.138491 62.64,171.96 C63.0307351,171.790387 63.4055549,171.586244 63.76,171.35 C64.1166607,171.11762 64.4513808,170.853192 64.76,170.56 L71.76,164.03 L78.76,157.5 C79.1110123,157.170919 79.4927578,156.876238 79.9,156.62 C80.3057314,156.367139 80.7342727,156.152869 81.18,155.98 C81.6222488,155.801498 82.0811821,155.667503 82.55,155.58 C83.0241787,155.484589 83.5063374,155.434365 83.99,155.43 L113.44,155.29 L142.89,155.15 C143.454726,155.140669 144.018592,155.197727 144.57,155.32 C145.117095,155.440508 145.650019,155.61815 146.16,155.85 C146.666229,156.084365 147.145674,156.372703 147.59,156.71 C148.042253,157.045485 148.454903,157.431296 148.82,157.86 L155,165 L161.09,172.13 C161.422052,172.524046 161.794038,172.882627 162.2,173.2 C162.602842,173.513881 163.034813,173.788467 163.49,174.02 C163.948621,174.247188 164.427341,174.431311 164.92,174.57 C165.417017,174.705841 165.92609,174.79292 166.44,174.83 L169.15,175.02 L171.85,175.2 L172.16,175.2 L172.46,175.2 L172.77,175.25 L173.07,175.31 L194.88,180.31 L216.69,185.36 C217.311338,185.506216 217.912466,185.727861 218.48,186.02 C219.608197,186.599817 220.576599,187.448028 221.3,188.49 C221.664954,189.01464 221.963872,189.58225 222.19,190.18 L225.34,218.39 L228.5,246.6 L231.18,253.74 L233.86,260.89 L240.5,260.89 L236,230 L231.51,199 Z" id="Path" fill="#4E7486"></path>
            <path d="M84.07,119.48 L84.07,140.18 C84.0601724,140.279759 84.0601724,140.380241 84.07,140.48 C84.0803103,140.581696 84.1004033,140.682161 84.13,140.78 C84.13,140.87 84.2,140.97 84.24,141.06 C84.2801796,141.151973 84.3304905,141.239179 84.39,141.32 L92.39,153.52 L100.39,165.72 L108.39,177.92 L116.39,190.11 C116.594131,190.421426 116.877041,190.673285 117.21,190.84 C117.519527,190.995407 117.864106,191.067768 118.21,191.05 C118.952261,191.048049 119.636077,190.646928 120,190 L125.57,179.92 L131.14,169.84 L136.71,159.75 L142.28,149.67 C142.325903,149.596561 142.366024,149.519662 142.4,149.44 C142.4,149.35 142.46,149.27 142.48,149.19 C142.501478,149.104328 142.518171,149.017527 142.53,148.93 C142.534798,148.8434 142.534798,148.7566 142.53,148.67 L142.53,126.82 C142.533598,126.567336 142.489692,126.316239 142.4,126.08 C142.313381,125.848308 142.184535,125.634695 142.02,125.45 C141.858414,125.26446 141.66548,125.108758 141.45,124.99 C141.225879,124.868517 140.982187,124.787286 140.73,124.75 L127.15,122.92 L113.57,121.08 L100,119.25 L86.42,117.42 C86.1186693,117.37224 85.8103222,117.396082 85.52,117.49 C84.9595319,117.665163 84.4986047,118.068021 84.25,118.6 C84.1240546,118.875892 84.0626293,119.176813 84.07,119.48 Z" id="Path" fill="#0099DA"></path>
            <path d="M84.07,117.1 L84.07,134.5 L91.7,140.5 L99.33,146.5 L106.96,152.5 L114.59,158.5 C114.856951,158.714533 115.153304,158.88965 115.47,159.02 C115.787265,159.161454 116.124654,159.252549 116.47,159.29 C116.80187,159.334168 117.13813,159.334168 117.47,159.29 C117.813524,159.24878 118.149902,159.161321 118.47,159.03 L124.47,156.53 L130.47,154.03 L136.47,151.53 L142.47,149.03 L142.47,125 L127.85,123 L113.23,121 L98.61,119 L84.07,117.1 Z" id="Path" fill="#66C2E9" style="mix-blend-mode: multiply;"></path>
            <path d="M150.35,69.84 L151.44,69.34 L152.53,68.84 L153.62,68.34 L154.71,67.85 C154.84471,67.7837002 154.985322,67.730134 155.13,67.69 C155.273367,67.6435245 155.420629,67.6100559 155.57,67.59 C155.871569,67.5437268 156.178431,67.5437268 156.48,67.59 L156.81,67.59 L157.15,67.59 L157.48,67.59 L157.81,67.59 C158.240525,67.6475833 158.655264,67.7903623 159.03,68.01 C159.393787,68.219449 159.713112,68.4980083 159.97,68.83 C160.491685,69.5141984 160.721736,70.3768893 160.61,71.23 L159.96,76.23 L159.31,81.23 L158.67,86.23 L158.02,91.23 C157.991298,91.4445072 157.941044,91.6555744 157.87,91.86 C157.803882,92.0587181 157.716721,92.2498028 157.61,92.43 C157.507421,92.6172028 157.383239,92.7917284 157.24,92.95 C157.10156,93.1084791 156.947442,93.252546 156.78,93.38 L155.35,94.48 L153.92,95.58 L152.49,96.68 L151.06,97.78 C150.889932,97.9083907 150.709285,98.0221314 150.52,98.12 C150.326372,98.2096653 150.125695,98.2832469 149.92,98.34 C149.717099,98.3935182 149.509438,98.4270118 149.3,98.44 C149.087399,98.4650004 148.872601,98.4650004 148.66,98.44 L148.39,98.44 L148.11,98.44 L147.84,98.44 L147.56,98.44 C147.118341,98.3835339 146.69293,98.2371925 146.31,98.01 C145.942972,97.7923849 145.623332,97.5033486 145.37,97.16 C145.118717,96.81437 144.935461,96.4241028 144.83,96.01 C144.718066,95.5787941 144.701007,95.128438 144.78,94.69 L145.71,89.11 L146.64,83.54 L147.57,77.96 L148.5,72.38 C148.546173,72.1184223 148.623386,71.8632864 148.73,71.62 C148.833927,71.3772723 148.968341,71.1487675 149.13,70.94 C149.292554,70.7340025 149.476965,70.5462385 149.68,70.38 C149.878411,70.1710983 150.103719,69.9895069 150.35,69.84 L150.35,69.84 Z" id="Path" fill="#0099DA"></path>
            <path d="M157.82,67.71 L157.48,67.66 L157.15,67.66 L156.82,67.66 L156.48,67.61 C156.330374,67.5950292 156.179626,67.5950292 156.03,67.61 L155.58,67.61 C155.431119,67.6327044 155.28407,67.6661246 155.14,67.71 C154.992979,67.7528438 154.849267,67.806318 154.71,67.87 L153.62,68.37 L152.54,68.86 L151.45,69.36 L150.36,69.86 C150.115615,69.9690444 149.886919,70.1102976 149.68,70.28 C149.251398,70.6023669 148.9081,71.0246233 148.68,71.51 C148.576544,71.753626 148.502683,72.0087818 148.46,72.27 L148.27,73.38 L148.09,74.48 L147.91,75.58 L147.72,76.68 C147.779484,76.4374522 147.866727,76.2025689 147.98,75.98 C148.092049,75.7603528 148.226067,75.5526251 148.38,75.36 C148.538883,75.1694253 148.716434,74.9952245 148.91,74.84 C149.10985,74.689065 149.324242,74.5584196 149.55,74.45 L150.67,73.94 L151.8,73.43 L152.92,72.92 L154.04,72.4 C154.182681,72.3362853 154.32972,72.2828166 154.48,72.24 C154.626476,72.1924236 154.77716,72.1589384 154.93,72.14 C155.086316,72.1251811 155.243684,72.1251811 155.4,72.14 C155.553172,72.1300553 155.706828,72.1300553 155.86,72.14 L156.21,72.14 L156.55,72.19 L156.89,72.19 L157.24,72.24 C157.586691,72.2939122 157.923606,72.3983559 158.24,72.55 C158.554057,72.7066928 158.841018,72.9126294 159.09,73.16 C159.338924,73.4061994 159.548085,73.6895792 159.71,74 C159.873553,74.3140926 159.988207,74.6513091 160.05,75 L160.17,74.08 L160.29,73.17 L160.41,72.26 L160.53,71.34 C160.581269,70.9114823 160.550729,70.4771272 160.44,70.06 C160.355981,69.683803 160.20709,69.3251113 160,69 C159.744483,68.6677488 159.429056,68.3862387 159.07,68.17 C158.690078,67.9309568 158.264246,67.7742505 157.82,67.71 Z" id="Path" fill="#33AFE2"></path>
            <path d="M72.32,69.84 L71.23,69.34 L70.14,68.84 L69.06,68.34 L68,67.85 C67.8625489,67.7820245 67.7184531,67.7284075 67.57,67.69 C67.4272267,67.6413969 67.2797556,67.6078807 67.13,67.59 C66.8318153,67.5433275 66.5281847,67.5433275 66.23,67.59 L65.89,67.59 L65.56,67.59 L65.23,67.59 L64.89,67.59 C64.4602532,67.6508461 64.046131,67.7934127 63.67,68.01 C63.3092004,68.219666 62.9931949,68.4982945 62.74,68.83 C62.4889524,69.1638429 62.2993287,69.5397043 62.18,69.94 C62.0696698,70.3606008 62.0391429,70.7981535 62.09,71.23 L62.74,76.23 L63.39,81.23 L64.04,86.23 L64.69,91.23 C64.7201624,91.4433303 64.766972,91.6539732 64.83,91.86 C64.8997219,92.0589592 64.9902219,92.2500148 65.1,92.43 C65.1990551,92.6169349 65.3198964,92.7914833 65.46,92.95 C65.6019745,93.1086092 65.7594211,93.2526561 65.93,93.38 L67.36,94.48 L68.79,95.58 L70.22,96.68 L71.65,97.78 C71.8200677,97.9083907 72.0007147,98.0221314 72.19,98.12 C72.3808701,98.2080282 72.5780936,98.2815691 72.78,98.34 C72.9862909,98.3935379 73.1972703,98.4270267 73.41,98.44 C73.6226115,98.464818 73.8373885,98.464818 74.05,98.44 L74.32,98.44 L74.6,98.44 L74.87,98.44 L75.15,98.44 C75.5881455,98.3819392 76.0099736,98.2356601 76.39,98.01 C76.7570276,97.7923849 77.0766676,97.5033486 77.33,97.16 C77.5844054,96.8148956 77.7710378,96.4246643 77.88,96.01 C77.982035,95.5773957 77.9990165,95.1290836 77.93,94.69 L77,89 L76,83.41 L75.06,77.83 L74.13,72.25 C74.0873169,71.9887818 74.0134561,71.733626 73.91,71.49 C73.8021982,71.2492517 73.668046,71.0211929 73.51,70.81 C73.3474465,70.6040025 73.1630354,70.4162385 72.96,70.25 C72.7630656,70.0892837 72.5483254,69.9517157 72.32,69.84 Z" id="Path" fill="#0099DA"></path>
            <path d="M64.86,67.71 L65.19,67.66 L65.53,67.66 L65.86,67.66 L66.19,67.61 C66.342958,67.594827 66.497042,67.594827 66.65,67.61 L67.1,67.61 C67.2486755,67.6337797 67.3956511,67.6671833 67.54,67.71 C67.6831873,67.7545581 67.8234591,67.807995 67.96,67.87 L69.05,68.37 L70.14,68.86 L71.23,69.36 L72.32,69.86 C72.8000535,70.0921202 73.2181741,70.4348421 73.54,70.86 C73.7036314,71.0637916 73.8382441,71.2892678 73.94,71.53 C74.0466144,71.7732864 74.1238265,72.0284223 74.17,72.29 L74.35,73.4 L74.54,74.5 L74.72,75.6 L74.9,76.7 C74.8405158,76.4574522 74.7532734,76.2225689 74.64,76 C74.5316588,75.7782396 74.3973869,75.570118 74.24,75.38 C74.0872256,75.1872596 73.9127404,75.0127744 73.72,74.86 C73.5180914,74.7068515 73.3001468,74.5760848 73.07,74.47 L72,73.87 L70.88,73.36 L69.76,72.85 L68.64,72.33 C68.4966788,72.2678809 68.3497461,72.2144508 68.2,72.17 C68.0503826,72.1214192 67.8962829,72.0879193 67.74,72.07 C67.5870453,72.0547613 67.4329547,72.0547613 67.28,72.07 C67.1234908,72.0600664 66.9665092,72.0600664 66.81,72.07 L66.47,72.07 L66.13,72.12 L65.78,72.12 L65.44,72.17 C65.0926965,72.2212417 64.7553886,72.3258072 64.44,72.48 C64.1243335,72.6390029 63.8344152,72.8446427 63.58,73.09 C63.3310758,73.3361994 63.1219145,73.6195792 62.96,73.93 C62.7996226,74.2445437 62.688334,74.5817819 62.63,74.93 L62.51,74.01 L62.39,73.1 L62.27,72.19 L62.15,71.27 C62.0938226,70.8416162 62.1244302,70.4063078 62.24,69.99 C62.3471099,69.5849556 62.5378723,69.2068372 62.8,68.88 C63.0555175,68.5477488 63.3709445,68.2662387 63.73,68.05 C64.0813279,67.8651284 64.4649893,67.7496905 64.86,67.71 L64.86,67.71 Z" id="Path" fill="#33AFE2"></path>
            <path d="M142.5,29.19 C142.3342,28.6694872 142.084221,28.1796632 141.76,27.74 C141.451982,27.3037729 141.073472,26.9218832 140.64,26.61 C140.208537,26.2985212 139.733402,26.0525294 139.23,25.88 C138.710672,25.7078696 138.167111,25.6199969 137.62,25.6199969 L87.82,25.6199969 C87.2728332,25.6199969 86.7291622,25.7071923 86.21,25.88 C85.7057093,26.0504438 85.2302734,26.2965914 84.8,26.61 C84.3651864,26.9236477 83.9836477,27.3051864 83.67,27.74 C83.3522559,28.1821353 83.1059214,28.6714299 82.94,29.19 L80.53,36.79 L78.11,44.39 L75.7,52 L73.29,59.6 C73.29,59.72 73.21,59.85 73.18,59.98 C73.15,60.11 73.13,60.23 73.11,60.36 C73.09,60.49 73.11,60.6199969 73.11,60.75 C73.11,60.88 73.11,61.01 73.11,61.15 L73.11,110.8 C73.1084471,111.081519 73.1318723,111.362621 73.18,111.64 C73.2669104,112.194022 73.4496403,112.728676 73.72,113.22 C73.8507995,113.470527 74.0048072,113.708235 74.18,113.93 L78,118.87 L81.83,123.81 L85.66,128.75 L89.49,133.69 C89.6271449,133.877007 89.7811207,134.051066 89.95,134.21 C90.1139339,134.37053 90.2875957,134.520814 90.47,134.66 C90.66,134.8 90.85,134.92 91.05,135.04 C91.252245,135.152694 91.4628676,135.249647 91.68,135.33 L95.14,136.67 L98.55,138 L102.01,139.34 L105.47,140.69 L105.92,140.84 C106.225904,140.917151 106.536585,140.973942 106.85,141.01 L107.33,141.01 L118.11,141.01 L118.59,141.01 C118.747886,140.99575 118.904814,140.972378 119.06,140.94 C119.215067,140.915211 119.368637,140.881826 119.52,140.84 L119.97,140.69 L123.43,139.34 L126.89,138 L130.35,136.66 L133.81,135.32 C134.025514,135.235792 134.235878,135.138957 134.44,135.03 C134.64,134.91 134.83,134.79 135.02,134.65 C135.202404,134.510814 135.376066,134.36053 135.54,134.2 C135.708879,134.041066 135.862855,133.867007 136,133.68 L139.83,128.74 L143.66,123.8 L147.49,118.86 L151.32,113.92 C151.491732,113.695775 151.645541,113.458374 151.78,113.21 C151.913568,112.962753 152.02726,112.705275 152.12,112.44 C152.212406,112.177014 152.279379,111.905773 152.32,111.63 C152.368128,111.352621 152.391553,111.071519 152.390072,110.79 L152.390072,61.14 C152.390072,61 152.390072,60.87 152.390072,60.74 C152.390072,60.61 152.390072,60.48 152.390072,60.35 C152.390072,60.22 152.390072,60.09 152.32,59.97 C152.25,59.85 152.25,59.71 152.21,59.59 L149.8,51.99 L147.38,44.39 L144.97,36.79 L142.5,29.19 Z" id="Path" fill="#0099DA"></path>
            <path d="M152.43,59.71 L150,51.93 L147.53,44.16 L145,36.38 L142.53,28.6 C142.391932,28.163849 142.18608,27.7521454 141.92,27.38 C141.653303,27.0232641 141.336736,26.7066966 140.98,26.44 C140.244824,25.9130127 139.36452,25.6265647 138.46,25.62 L99.57,25.62 C99.5327774,25.7058155 99.5091605,25.7969092 99.5,25.89 C99.4850564,25.9827352 99.4850564,26.0772648 99.5,26.17 C99.5154059,26.2672643 99.5530492,26.3596614 99.61,26.44 C99.6653497,26.5258177 99.7326995,26.60327 99.81,26.67 L109.9,34.35 L120,42 L130.08,49.68 L140.17,57.36 L140.17,103.36 L134.43,112.78 L128.7,122.19 L123,131.62 L117.23,141 L118.51,141 C118.643147,141.009964 118.776853,141.009964 118.91,141 L119.3,140.95 L119.68,140.86 L120.06,140.73 L123.61,139.36 L127.16,137.98 L130.71,136.6 L134.27,135.22 C134.447864,135.150207 134.621494,135.07007 134.79,134.98 C134.957292,134.88842 135.117714,134.784814 135.27,134.67 C135.427724,134.556732 135.57498,134.429557 135.71,134.29 C135.850243,134.156302 135.980586,134.01259 136.1,133.86 L140.01,128.86 L143.92,123.86 L147.83,118.86 L151.74,113.86 C151.879419,113.671846 152.006358,113.474757 152.12,113.27 C152.342859,112.858304 152.494976,112.412095 152.57,111.95 C152.609798,111.718788 152.63,111.484612 152.63,111.25 L152.63,61 C152.63,60.89 152.63,60.78 152.63,60.68 C152.63,60.58 152.63,60.46 152.63,60.35 L152.57,60.03 L152.43,59.71 Z" id="Path" fill="#66C2E9" style="mix-blend-mode: multiply;"></path>
            <path d="M158.25,40.35 C158.259777,40.2402173 158.259777,40.1297827 158.25,40.02 C158.229308,39.910932 158.199195,39.8038642 158.16,39.7 L158.01,39.41 C157.94896,39.3191469 157.882156,39.232302 157.81,39.15 L152.24,33 L146.72,26.86 L141.19,20.72 L135.66,14.58 C135.514943,14.4178217 135.354156,14.2704334 135.18,14.14 C135.003757,14.0132 134.816313,13.9027423 134.62,13.81 C134.418461,13.7283755 134.211246,13.6615322 134,13.61 C133.786795,13.5614561 133.568652,13.5379638 133.35,13.54 L125.58,13.48 L117.82,13.42 L110.05,13.37 L102.28,13.31 L102.09,13.31 L101.9,13.31 L101.72,13.31 L101.54,13.38 L94.72,16.23 L87.9,19.16 L81.08,22 L74.26,24.85 C73.759326,25.0666585 73.3246929,25.4116053 73,25.85 C72.8380662,26.0549665 72.7035956,26.2802047 72.6,26.52 C72.4891478,26.7651902 72.4117872,27.0241799 72.37,27.29 L70.73,37.35 L69.08,47.35 L67.44,57.41 L65.8,67.41 L66,67.41 C66.1529797,67.3952717 66.3070203,67.3952717 66.46,67.41 L66.91,67.41 C67.0588815,67.4327044 67.2059301,67.4661246 67.35,67.51 C67.4964646,67.5545069 67.6400667,67.6079402 67.78,67.67 L68.84,68.16 L69.9,68.65 L70.96,69.13 L72.02,69.62 C72.1617583,69.684609 72.3144219,69.7219268 72.47,69.73 C72.6184469,69.7386201 72.7672723,69.7217081 72.91,69.68 C73.0564267,69.6384291 73.1926322,69.5669212 73.31,69.47 C73.4331725,69.3764864 73.5382296,69.2612625 73.62,69.13 L74.49,67.68 L75.36,66.23 L76.23,64.79 L77.1,63.34 C77.1043442,63.2967755 77.1043442,63.2532245 77.1,63.21 C77.0959088,63.1667632 77.0959088,63.1232368 77.1,63.08 C77.1,63.08 77.1,63 77.1,62.96 L77.1,48.74 C77.0996637,48.5517114 77.1197817,48.3639434 77.16,48.18 C77.1900729,47.9961012 77.2369355,47.8153454 77.3,47.64 C77.3670169,47.4624762 77.4507252,47.2917111 77.55,47.13 C77.6418164,46.9674771 77.7525906,46.8164214 77.88,46.68 L81.17,42.91 L84.45,39.15 L87.74,35.39 L91.03,31.63 C91.1761447,31.4622974 91.3404883,31.3113696 91.52,31.18 C91.6980914,31.0477995 91.8890569,30.9338902 92.09,30.84 C92.2964849,30.7506347 92.5107105,30.680342 92.73,30.63 C92.9465962,30.5814857 93.1680461,30.5579986 93.39,30.56 L101.03,30.56 L101.31,30.56 L101.58,30.62 L101.85,30.71 L103.78,31.43 L105.72,32.16 L107.65,32.88 L109.59,33.61 C109.796448,33.6878412 110.011209,33.7415317 110.23,33.77 C110.449293,33.7949429 110.670707,33.7949429 110.89,33.77 C111.106818,33.7577503 111.321535,33.7208458 111.53,33.66 C111.744176,33.6009462 111.951884,33.5205431 112.15,33.42 L113.95,32.42 L115.74,31.48 L117.53,30.54 L119.33,29.54 C119.439487,29.4817003 119.553129,29.431564 119.67,29.39 C119.789707,29.3395789 119.913487,29.2994341 120.04,29.27 C120.161402,29.2395106 120.285184,29.2194378 120.41,29.21 C120.536472,29.2000808 120.663528,29.2000808 120.79,29.21 L130.18,29.21 C130.814306,29.2094367 131.447204,29.2697127 132.07,29.39 C132.686645,29.508961 133.289703,29.6898785 133.87,29.93 C135.038964,30.387661 136.108546,31.066761 137.02,31.93 L139.12,33.93 L141.23,35.93 L143.33,37.93 L145.43,39.93 C145.544311,40.0429804 145.651201,40.1632311 145.75,40.29 C145.84,40.42 145.93,40.55 146.01,40.69 C146.083515,40.8320571 146.147003,40.9790826 146.2,41.13 C146.258408,41.2786673 146.301954,41.4327522 146.33,41.59 L147.59,47.99 L148.85,54.39 L150.11,60.79 L151.37,67.19 C151.408327,67.3796863 151.490519,67.5577691 151.61,67.71 C151.726188,67.8525924 151.868793,67.9714305 152.03,68.06 C152.194211,68.1438031 152.375648,68.1883065 152.56,68.19 C152.752595,68.1962926 152.944096,68.1586763 153.12,68.08 L153.37,67.96 L153.62,67.85 L154,68 L154.25,67.89 C154.820882,67.6262711 155.441178,67.486534 156.07,67.48 C156.279735,67.4650826 156.490265,67.4650826 156.7,67.48 L156.94,67.48 L157.19,67.48 L157.43,67.48 L157.68,67.48 L157.68,67.48 C157.867867,67.5202632 158.062133,67.5202632 158.25,67.48 C158.427201,67.4297557 158.59111,67.3409721 158.73,67.22 C158.865813,67.1048156 158.974995,66.9615142 159.05,66.8 C159.133146,66.6291064 159.171022,66.4397271 159.16,66.25 L158.93,59.75 L158.7,53.25 L158.48,46.75 L158.25,40.35 Z" id="Path" fill="#023852"></path>
            <path d="M131.05,24.66 L102.42,28.49 L73.79,32.32 L71,49.74 L68.23,67.15 L69.54,67.87 L70.86,68.58 C70.71,68.73 70.58,68.45 70.5,68.19 C70.42,67.93 70.36,67.69 70.36,67.91 L70.36,80.75 C70.3618205,81.178755 70.5345863,81.5890737 70.84,81.89 C71.1420538,82.1998102 71.5573234,82.3731402 71.99,82.3700419 L76.63,82.3700419 C76.857264,82.3690048 77.081903,82.3213541 77.29,82.23 C77.4955173,82.1395853 77.6795553,82.006669 77.83,81.84 L86.46,72.36 L95.09,62.88 L95.23,62.7 L95.34,62.52 L113.18,43.59 L131.05,24.66 Z" id="Path" fill="#023852"></path>
            <path d="M259.25,72.23 L258.16,71.73 L257.07,71.24 L255.98,70.74 L254.89,70.24 L254.47,70.08 L254,70 L253.55,70 L253.09,70 L252.76,70.05 L252.42,70.05 L252.09,70.1 L251.76,70.1 C251.330128,70.1542349 250.91538,70.2936175 250.54,70.51 C250.177915,70.7259918 249.859162,71.0074445 249.6,71.34 C249.080891,72.0216127 248.85098,72.8801852 248.96,73.73 L249.61,78.73 L250.26,83.73 L250.9,88.73 L251.55,93.73 C251.611573,94.1518426 251.750573,94.5586742 251.96,94.93 C252.06509,95.1125163 252.189107,95.2834588 252.33,95.44 C252.46828,95.6016367 252.62238,95.749037 252.79,95.88 L254.22,96.98 L255.65,98.08 L257.08,99.17 L258.51,100.27 C258.845677,100.53589 259.234388,100.726835 259.65,100.83 C259.852577,100.886834 260.060236,100.923677 260.27,100.94 C260.482867,100.959946 260.697133,100.959946 260.91,100.94 L261.18,100.94 L261.46,100.94 L261.73,100.94 L262.01,100.94 C262.452736,100.888204 262.879095,100.741536 263.26,100.51 C264.001373,100.068555 264.534558,99.348034 264.74,98.51 C264.852251,98.0788407 264.869313,97.6284155 264.79,97.19 L263.86,91.62 L263,85.8 L262.07,80.22 L261.14,74.65 C261.095283,74.3848531 261.018034,74.126234 260.91,73.88 C260.806404,73.6402047 260.671934,73.4149665 260.51,73.21 C260.188174,72.7848421 259.770054,72.4421202 259.29,72.21 L259.25,72.23 Z" id="Path" fill="#0099DA"></path>
            <path d="M261.1,74.6 C261.058693,74.3384732 260.984784,74.0831517 260.88,73.84 C260.774424,73.5981097 260.640126,73.369802 260.48,73.16 C260.320039,72.9517339 260.13535,72.7636877 259.93,72.6 C259.718396,72.4369652 259.49052,72.2962187 259.25,72.18 L258.16,71.69 L257.07,71.19 L255.99,70.69 L254.9,70.19 L254.47,70.03 C254.325686,69.9894692 254.178638,69.9593913 254.03,69.94 C253.880367,69.9251612 253.729633,69.9251612 253.58,69.94 C253.430165,69.9300626 253.279835,69.9300626 253.13,69.94 L252.79,69.94 L252.46,69.94 L252.13,69.99 L251.79,69.99 C251.359162,70.0462549 250.944165,70.1891226 250.57,70.41 C250.2092,70.619666 249.893195,70.8982945 249.64,71.23 C249.388952,71.5638429 249.199329,71.9397043 249.08,72.34 C248.969199,72.7605232 248.938666,73.198165 248.99,73.63 L249.16,74.88 L249.33,76.14 L249.5,77.39 L249.68,78.65 C249.560315,77.7715017 249.798073,76.8817113 250.34,76.18 C250.878881,75.47343 251.678521,75.0123766 252.56,74.9 L252.91,74.9 L253.25,74.85 L253.59,74.85 L253.94,74.85 C254.248248,74.8033875 254.561752,74.8033875 254.87,74.85 C255.021967,74.8737657 255.17227,74.9071664 255.32,74.95 C255.47049,74.9962262 255.617523,75.0530345 255.76,75.12 L256.88,75.63 L258.01,76.14 L259.13,76.65 L260.25,77.17 C260.414978,77.2407089 260.572435,77.3278129 260.72,77.43 C260.867779,77.5292216 261.005145,77.6431346 261.13,77.77 C261.256974,77.8903672 261.374021,78.020791 261.48,78.16 C261.585847,78.3004059 261.682707,78.4473659 261.77,78.6 L261.6,77.6 L261.44,76.6 L261.27,75.6 L261.1,74.6 Z" id="Path" fill="#33AFE2"></path>
            <path d="M436.4,248.81 L434.3,221.81 L432.21,194.81 L432.21,194.68 L432.21,194.56 C432.21,194.56 432.21,194.47 432.21,194.43 C432.205084,194.390151 432.205084,194.349849 432.21,194.31 L431.94,189.99 L431.68,185.67 C431.667625,185.454784 431.623828,185.242536 431.55,185.04 C431.483694,184.842198 431.385757,184.656455 431.26,184.49 C431.140841,184.315734 430.995847,184.160623 430.83,184.03 C430.663638,183.89652 430.478256,183.788662 430.28,183.71 L389.15,166.6 L348.02,149.49 L347.76,149.36 C347.674812,149.314892 347.594403,149.261286 347.52,149.2 L347.3,149.01 C347.228195,148.941508 347.161359,148.867988 347.1,148.79 L342.41,143 L337.8,137.14 C337.685419,136.995445 337.554555,136.864581 337.41,136.75 C337.266418,136.641515 337.112313,136.547712 336.95,136.47 C336.786732,136.397196 336.615597,136.343507 336.44,136.31 C336.257541,136.284671 336.072459,136.284671 335.89,136.31 L302.65,137.98 L269.41,139.65 C269.277067,139.635384 269.142933,139.635384 269.01,139.65 C268.883894,139.680882 268.760227,139.72099 268.64,139.77 C268.518209,139.823402 268.401129,139.886959 268.29,139.96 C268.176919,140.03107 268.06989,140.111342 267.97,140.2 L259.07,148.51 L250.16,156.81 L250,157 L249.81,157.13 L249.61,157.24 L249.39,157.33 L212.86,170.33 L176.33,183.33 C176.140863,183.393079 175.962221,183.484085 175.8,183.6 C175.637188,183.714415 175.489368,183.848797 175.36,184 C175.232904,184.149041 175.125367,184.313707 175.04,184.49 C174.950301,184.669313 174.88955,184.861693 174.86,185.06 L171.41,223.06 L168,261 L440,261 L438.22,254.92 L436.4,248.81 Z" id="Path" fill="#F4F5F5"></path>
            <path d="M340.59,158.24 L379.13,172.64 L417.66,187.05 C418.141909,187.231628 418.598878,187.473552 419.02,187.77 C419.427229,188.055788 419.796809,188.39177 420.12,188.77 C420.444768,189.157818 420.720202,189.584405 420.94,190.04 C421.15443,190.505266 421.308996,190.995846 421.4,191.5 L421.81,193.72 L422.21,195.94 L425.3,222.64 L428.39,249.33 L428.79,255.14 L429.19,260.95 L440,260.95 L438.21,254.87 L436.43,248.79 L434.32,221.79 L432.21,194.79 L431.88,189.96 L431.54,185.14 C431.531317,184.996267 431.500975,184.85467 431.45,184.72 C431.40357,184.583673 431.336087,184.455455 431.25,184.34 C431.166501,184.228061 431.069045,184.127245 430.96,184.04 C430.848839,183.947898 430.724009,183.873675 430.59,183.82 L389.49,166.74 L348.4,149.75 L348.18,149.64 L347.97,149.51 L347.79,149.35 C347.728438,149.29482 347.671575,149.234612 347.62,149.17 L343.3,143.87 L338.97,138.57 C338.894939,138.47583 338.788413,138.411915 338.67,138.39 C338.56537,138.360521 338.45463,138.360521 338.35,138.39 C338.252794,138.43748 338.169963,138.509957 338.11,138.6 C338.04527,138.704426 338.020413,138.82871 338.04,138.95 L339.31,148.58 L340.59,158.24 Z" id="Path" fill="#FFFFFF"></path>
            <path d="M338.63,197.56 L330.51,193.4 L322.4,189.24 L314.28,185.07 L306.16,180.91 L302.3,180.91 L294.35,185.28 L286.41,189.64 L278.41,194 L270.46,198.37 C270.400556,198.395671 270.356277,198.447329 270.34,198.51 C270.320142,198.564927 270.320142,198.625073 270.34,198.68 C270.359975,198.732593 270.399339,198.775536 270.45,198.8 C270.510865,198.825005 270.579135,198.825005 270.64,198.8 L278.92,195.73 L287.2,192.66 L295.49,189.59 L303.77,186.53 L304,186.53 L312.61,189.4 L321.22,192.27 L329.83,195.14 L338.44,198 C338.499712,198.030289 338.570288,198.030289 338.63,198 C338.680661,197.975536 338.720025,197.932593 338.74,197.88 C338.765282,197.826153 338.765282,197.763847 338.74,197.71 C338.731989,197.644243 338.690308,197.587406 338.63,197.56 Z" id="Path" fill="#0099DA"></path>
            <polygon id="Path" fill="#023852" points="293.6 202.44 293.6 203.67 293.6 204.9 292.73 208.3 291.86 211.69 291.03 236.33 290.2 260.97 303.6 260.97 317 260.97 315.33 236.02 313.66 211.07 311.92 207.36 310.17 203.65 310.17 202.42 310.17 201.19 313.36 193.71 316.55 186.23 311.33 183.56 306.11 180.88 304.23 180.88 302.36 180.88 295.23 184.8 288.1 188.72 290.85 195.58"></polygon>
            <path d="M338.5,106.39 L302.17,106.11 L265.84,105.83 L267.31,132.3 L268.77,158.76 L284.13,168.57 L299.49,178.37 C301.99177,179.962055 305.220636,179.826355 307.58,178.03 L323.34,166.03 L339.1,154.03 L338.8,130.25 L338.5,106.39 Z" id="Path" fill="#0099DA"></path>
            <polygon id="Path" fill="#66C2E9" style="mix-blend-mode: multiply;" points="338.5 106.39 302.17 106.11 265.84 105.83 286.71 141.93 307.58 178.03 323.34 166 339.1 153.96 338.8 130.18"></polygon>
            <path d="M350.84,72.23 L351.92,71.73 L353.01,71.24 L354.1,70.74 L355.19,70.24 L355.61,70.08 L356.06,69.98 C356.209824,69.9697296 356.360176,69.9697296 356.51,69.98 L356.96,69.98 L357.29,70.03 L357.63,70.03 L357.96,70.08 L358.29,70.08 C358.719872,70.1342349 359.13462,70.2736175 359.51,70.49 C359.872085,70.7059918 360.190838,70.9874445 360.45,71.32 C360.703666,71.6507791 360.890477,72.0277985 361,72.43 C361.120427,72.8454574 361.151106,73.2817786 361.09,73.71 L360.44,78.71 L359.8,83.71 L359.15,88.71 L358.5,93.71 C358.438427,94.1318426 358.299427,94.5386742 358.09,94.91 C357.98491,95.0925163 357.860893,95.2634588 357.72,95.42 C357.58172,95.5816367 357.42762,95.729037 357.26,95.86 L355.83,96.96 L354.4,98 L353,99.1 L351.57,100.2 C351.402341,100.331843 351.221357,100.445796 351.03,100.54 C350.840968,100.632374 350.643362,100.706057 350.44,100.76 C350.233834,100.815982 350.022938,100.852805 349.81,100.87 C349.597133,100.889946 349.382867,100.889946 349.17,100.87 L348.9,100.87 L348.62,100.87 L348.35,100.87 L348.07,100.87 C347.62761,100.816691 347.201563,100.670131 346.82,100.44 C346.457007,100.216956 346.138329,99.9287898 345.88,99.59 C345.624948,99.2466106 345.44133,98.8555717 345.34,98.44 C345.232865,98.0081021 345.215844,97.558765 345.29,97.12 L346.22,91.55 L347.15,85.97 L348.08,80.39 L349.01,74.82 C349.054717,74.5548531 349.131966,74.296234 349.24,74.05 C349.347868,73.8124162 349.48204,73.5876784 349.64,73.38 C349.797295,73.169431 349.982299,72.9810629 350.19,72.82 C350.373928,72.5900335 350.59335,72.3908664 350.84,72.23 L350.84,72.23 Z" id="Path" fill="#0099DA"></path>
            <path d="M358.3,70.1 L357.96,70.1 L357.63,70.05 L357.3,70.05 L356.96,70.05 C356.810165,70.0400626 356.659835,70.0400626 356.51,70.05 C356.360367,70.0351612 356.209633,70.0351612 356.06,70.05 C355.911362,70.0693913 355.764314,70.0994692 355.62,70.14 L355.19,70.3 L354.11,70.8 L353.02,71.3 L351.93,71.8 L350.84,72.29 C350.600757,72.4085344 350.373103,72.5491444 350.16,72.71 C349.95465,72.8736877 349.769961,73.0617339 349.61,73.27 C349.449874,73.479802 349.315576,73.7081097 349.21,73.95 C349.105216,74.1931517 349.031307,74.4484732 348.99,74.71 L348.8,75.81 L348.62,76.91 L348.44,78.01 L348.25,79.11 C348.315661,78.8693936 348.402673,78.6351302 348.51,78.41 C348.728241,77.9663522 349.046619,77.5795061 349.44,77.28 C349.634962,77.1220061 349.850209,76.9908397 350.08,76.89 L351.21,76.37 L352.33,75.86 L353.45,75.35 L354.57,74.84 C354.712477,74.7730345 354.85951,74.7162262 355.01,74.67 L355.46,74.57 C355.616509,74.5600664 355.773491,74.5600664 355.93,74.57 C356.082968,74.5550208 356.237032,74.5550208 356.39,74.57 L356.74,74.62 L357.08,74.62 L357.43,74.67 L357.77,74.67 C358.118197,74.7229493 358.45575,74.8309665 358.77,74.99 C359.087776,75.1454743 359.378218,75.351485 359.63,75.6 C359.874785,75.8436698 360.080535,76.1236254 360.24,76.43 C360.407942,76.7421992 360.52284,77.0801348 360.58,77.43 L360.7,76.52 L360.82,75.61 L360.94,74.69 L361.06,73.78 C361.116169,73.3482961 361.085571,72.909722 360.97,72.49 C360.854895,72.088038 360.664898,71.711436 360.41,71.38 C360.156805,71.0482945 359.8408,70.769666 359.48,70.56 C359.120997,70.3300629 358.719907,70.1737057 358.3,70.1 Z" id="Path" fill="#33AFE2"></path>
            <path d="M338.35,23.54 C337.603744,21.1624754 335.401889,19.5434638 332.91,19.54 L277.41,19.54 C274.918111,19.5434638 272.716256,21.1624754 271.97,23.54 L266.59,40.49 L261.21,57.43 C261.118673,57.7069586 261.051751,57.9913763 261.01,58.28 C260.961849,58.5674669 260.93843,58.8585325 260.939926,59.15 L260.939926,114.51 C260.942105,115.136151 261.046826,115.757724 261.25,116.35 C261.45264,116.943768 261.749795,117.500933 262.13,118 L270.67,129 L279.21,140 C279.525413,140.408733 279.895549,140.772139 280.31,141.08 C280.725624,141.384765 281.179514,141.633564 281.66,141.82 L289.37,144.82 L297.08,147.82 C297.402703,147.950136 297.737741,148.047297 298.08,148.11 C298.409378,148.175174 298.744239,148.20866 299.08,148.21 L311.08,148.21 C311.787978,148.206986 312.489465,148.074822 313.15,147.82 L320.86,144.82 L328.57,141.82 C329.050486,141.633564 329.504376,141.384765 329.92,141.08 C330.33679,140.774883 330.707288,140.411122 331.02,140 L339.56,129 L348.1,118 C348.480205,117.500933 348.77736,116.943768 348.98,116.35 C349.187953,115.758948 349.292812,115.136561 349.290074,114.51 L349.290074,59.15 C349.29157,58.8585325 349.268151,58.5674669 349.22,58.28 C349.178249,57.9913763 349.111327,57.7069586 349.02,57.43 L343.64,40.49 L338.35,23.54 Z" id="Path" fill="#0099DA"></path>
            <path d="M349.11,57.43 L343.73,40.49 L338.35,23.54 C337.603744,21.1624754 335.401889,19.5434638 332.91,19.54 L316.22,19.54 C318.711889,19.5434638 320.913744,21.1624754 321.66,23.54 L327,40.49 L332.38,57.43 C332.466658,57.7082543 332.533492,57.9922988 332.58,58.28 C332.623166,58.5680621 332.646554,58.8587421 332.65,59.15 L332.65,114.51 C332.647895,115.136151 332.543174,115.757724 332.34,116.35 C332.137808,116.945951 331.836956,117.503709 331.45,118 L323,129 L314.46,140 C314.141973,140.406405 313.772171,140.769482 313.36,141.08 C312.943058,141.38269 312.489446,141.631336 312.01,141.82 L304.43,144.76 L296.85,147.7 L296.99,147.75 L297.12,147.8 C297.442703,147.930136 297.777741,148.027297 298.12,148.09 C298.449378,148.155174 298.784239,148.18866 299.12,148.19 L311.12,148.19 C311.827978,148.186986 312.529465,148.054822 313.19,147.8 L320.9,144.8 L328.61,141.8 C329.090486,141.613564 329.544376,141.364765 329.96,141.06 C330.37679,140.754883 330.747288,140.391122 331.06,139.98 L339.6,128.98 L348.14,117.98 C348.520205,117.480933 348.81736,116.923768 349.02,116.33 C349.227953,115.738948 349.332812,115.116561 349.330074,114.49 L349.330074,59.15 C349.33157,58.8585325 349.308151,58.5674669 349.26,58.28 C349.234595,57.9928726 349.184408,57.7084799 349.11,57.43 Z" id="Path" fill="#66C2E9" style="mix-blend-mode: multiply;"></path>
            <path d="M352.42,24.41 L347.65,19.71 L342.88,15 L338.11,10.31 L333.34,5.62 L333.16,5.47 L332.98,5.34 L332.77,5.23 L332.56,5.15 L328.68,3.88 L324.8,2.61 L320.92,1.35 L317,0.1 L316.85,0.1 L316.69,0.1 L316.54,0.1 L316.38,0.1 L301.79,0.1 L301.61,0.1 L301.43,0.1 L301.25,0.1 L301.07,0.1 L293.6,3 L286.13,5.89 L278.66,8.79 L271.19,11.68 L270.99,11.77 C270.923386,11.8006824 270.859777,11.8375085 270.8,11.88 L270.62,12.01 L270.46,12.16 L267.46,15.32 L264.46,18.48 L261.46,21.64 L258.46,24.8 C258.38791,24.8788462 258.321099,24.9623608 258.26,25.05 C258.200833,25.1364127 258.147385,25.2266055 258.1,25.32 C258.057343,25.4142869 258.020605,25.5111414 257.99,25.61 C257.99,25.72 257.94,25.82 257.92,25.92 L257.33,30.55 L256.73,35.18 L256.13,39.8 L255.53,44.43 L255.53,44.86 L256.13,51.36 L256.72,57.85 L257.31,64.34 L257.9,70.83 C257.915695,71.026295 257.962969,71.2187701 258.04,71.4 C258.105209,71.5778728 258.199862,71.7435152 258.32,71.89 C258.43982,72.0430329 258.581308,72.1777828 258.74,72.29 C258.899744,72.4015316 259.074928,72.4891234 259.26,72.55 L259.36,72.55 L259.45,72.55 L259.55,72.55 L259.65,72.55 C259.828669,72.6067865 259.997369,72.6911368 260.15,72.8 C260.30273,72.9042756 260.440648,73.028738 260.56,73.17 C260.673932,73.3153332 260.771207,73.4729851 260.85,73.64 C260.921005,73.8134944 260.971351,73.9947402 261,74.18 L261.19,75.62 L261.38,77.07 L261.58,78.51 L261.77,79.96 L262.71,79.96 L263.65,79.96 L264.58,79.96 L265.52,79.96 L265.52,66.09 L266.19,61.31 L266.87,56.53 L267.54,51.76 L268.21,46.98 C268.230813,46.8620721 268.257513,46.7452594 268.29,46.63 C268.329908,46.5156863 268.380114,46.4052327 268.44,46.3 C268.496113,46.1956056 268.559608,46.0953507 268.63,46 L268.88,45.75 L271.76,43.24 L274.64,40.74 L277.52,38.24 L280.4,35.74 C280.656747,35.5157507 280.966552,35.3608482 281.3,35.29 C281.628324,35.2082747 281.971676,35.2082747 282.3,35.29 C282.608367,35.3825457 282.892014,35.5431646 283.13,35.76 C283.377346,35.9965917 283.559834,36.292704 283.66,36.62 L283.81,37.08 L283.96,37.55 L284.1,38.01 L284.25,38.47 C284.307543,38.6465443 284.388246,38.8146769 284.49,38.97 C284.588088,39.1244519 284.70953,39.2627615 284.85,39.38 C284.985725,39.4999135 285.137109,39.600836 285.3,39.68 C285.468395,39.7576454 285.64677,39.8114945 285.83,39.84 L294.43,41.25 L303.03,42.66 L311.62,44.06 L320.22,45.47 L320.54,45.55 C320.642525,45.5872559 320.742708,45.6306683 320.84,45.68 C320.939095,45.7305254 321.032894,45.7908249 321.12,45.86 C321.206854,45.9254862 321.287223,45.9991573 321.36,46.08 L324.22,49.16 L327.07,52.24 L329.93,55.31 L332.78,58.39 L332.15,54.83 L331.52,51.26 L330.89,47.7 L330.26,44.14 C330.214837,43.9021247 330.214837,43.6578753 330.26,43.42 C330.297657,43.1930995 330.379177,42.9757135 330.5,42.78 C330.619202,42.5793372 330.771327,42.400168 330.95,42.25 C331.13407,42.0971912 331.344064,41.9786466 331.57,41.9 L332.72,41.5 L333.88,41.1 L335.03,40.7 L336.18,40.3 C336.433968,40.2140503 336.702626,40.1800431 336.97,40.2 C337.231099,40.2143459 337.486426,40.2824332 337.72,40.4 C337.951003,40.5127112 338.158115,40.6688936 338.33,40.86 C338.508306,41.0608125 338.644344,41.2954777 338.73,41.55 L340.12,45.64 L341.51,49.73 L342.9,53.82 L344.29,57.92 L344.29,58 L344.29,58.08 L344.29,58.16 L344.29,58.25 L345.17,63.87 L346.06,69.48 L346.95,75.1 L347.83,80.72 L349.59,80.72 L349.87,78.86 L350.15,77 L350.42,75.15 L350.7,73.29 C350.721452,73.1572395 350.754923,73.0267028 350.8,72.9 C350.847742,72.7742526 350.908047,72.653642 350.98,72.54 C351.05107,72.426919 351.131342,72.3198899 351.22,72.22 C351.310491,72.1229341 351.411058,72.0357764 351.52,71.96 L351.68,71.84 L351.85,71.72 L352.02,71.6 L352.18,71.48 C352.310417,71.3894218 352.428128,71.2818002 352.53,71.16 C352.637783,71.0432566 352.728668,70.911979 352.8,70.77 C352.869645,70.6297888 352.923314,70.4821963 352.96,70.33 C353.000172,70.1765739 353.020339,70.0185978 353.02,69.86 L353.02,25.83 C353.034778,25.6970762 353.034778,25.5629238 353.02,25.43 C352.990566,25.3034866 352.950421,25.1797068 352.9,25.06 C352.850066,24.9384251 352.789848,24.8213336 352.72,24.71 C352.631704,24.5989431 352.531057,24.4982955 352.42,24.41 L352.42,24.41 Z" id="Path" fill="#023852"></path>
            <path d="M316.27,0 L301.45,0 L301.27,0 L301.09,0 C301.027352,0.0109456071 300.966686,0.0311677813 300.91,0.06 L293.44,3 L286,5.92 L278.53,8.82 L271,11.71 L270.8,11.8 C270.733386,11.8306824 270.669777,11.8675085 270.61,11.91 L270.43,12.04 L270.27,12.19 L267.27,15.35 L264.27,18.51 L261.27,21.67 L258.27,24.83 C258.19791,24.9088462 258.131099,24.9923608 258.07,25.08 C258.010833,25.1664127 257.957385,25.2566055 257.91,25.35 C257.867343,25.4442869 257.830605,25.5411414 257.8,25.64 C257.771342,25.741468 257.751272,25.845167 257.74,25.95 L257.61,26.95 L257.49,27.9 L257.37,28.9 L257.25,29.9 L261.91,26.37 L267,22.35 L271.5,19 L274.11,17 L274.24,16.91 L274.38,16.83 L274.53,16.76 L274.68,16.76 L281.56,14.54 L288.45,12.33 L295.33,10.11 L302.21,7.9 L302.36,7.9 L302.52,7.9 L315.65,7.9 L315.76,7.9 L315.88,7.9 L319.64,8.8 L323.41,9.7 L327.18,10.6 L330.94,11.51 L331.11,11.51 C331.166277,11.5210401 331.22034,11.5413138 331.27,11.57 L331.43,11.64 L331.58,11.73 L336.9,15.24 L342.22,18.75 L347.54,22.25 L352.86,25.76 L352.86,25 L347.94,20.16 L343,15.32 L338.08,10.48 L333.16,5.64 L332.99,5.49 L332.8,5.36 L332.6,5.25 L332.38,5.16 L328.5,3.9 L324.62,2.63 L320.75,1.37 L316.87,0.1 L316.72,0.1 L316.56,0.1 L316.25,0.1 L316.27,0 Z" id="Path" fill="#4E7486"></path>
            <path d="M267.73,140.12 L267.4,140.12 L267.06,140.12 L257.85,148.71 L248.64,157.29 C248.590741,157.347817 248.5335,157.398324 248.47,157.44 L248.27,157.58 L248.07,157.69 L247.85,157.78 L211.32,170.78 L174.8,183.78 C174.608781,183.845555 174.427175,183.936358 174.26,184.05 C174.099503,184.167278 173.951998,184.301373 173.82,184.45 C173.69616,184.60503 173.588907,184.772612 173.5,184.95 C173.414692,185.131061 173.354148,185.322783 173.32,185.52 L169.81,223.27 L166.31,261 L175.48,261 L175.98,254.72 L176.49,248.43 L178.49,221.02 L180.49,193.61 C180.540149,193.440402 180.607149,193.27625 180.69,193.12 C180.768961,192.963081 180.869987,192.818278 180.99,192.69 C181.107735,192.56035 181.238414,192.443074 181.38,192.34 C181.52554,192.237249 181.683451,192.153254 181.85,192.09 L216.42,178.38 L251,164.66 L251.21,164.57 L251.41,164.45 C251.477357,164.409056 251.54094,164.362205 251.6,164.31 L251.77,164.16 L259.56,156.38 L267.35,148.6 C267.458357,148.483684 267.558593,148.36006 267.65,148.23 C267.73578,148.098462 267.806237,147.957547 267.86,147.81 C267.917101,147.664324 267.960619,147.513684 267.99,147.36 C268.004974,147.20035 268.004974,147.03965 267.99,146.88 L267.83,143.5 L267.73,140.12 Z" id="Path" fill="#FFFFFF"></path>
        </g>
    </g>
</svg>