<?xml version="1.0" encoding="UTF-8"?>
<svg width="440px" height="330px" viewBox="0 0 440 330" version="1.1" xmlns="http://www.w3.org/2000/svg" xmlns:xlink="http://www.w3.org/1999/xlink">
    <title>Graphic elements / Icons / Rich icons / explore</title>
    <defs>
        <linearGradient x1="100.044673%" y1="49.9557913%" x2="0.0446727719%" y2="49.9557913%" id="linearGradient-1">
            <stop stop-color="#D0D0CD" offset="0%"></stop>
            <stop stop-color="#FFFFFF" offset="23%"></stop>
        </linearGradient>
        <linearGradient x1="0%" y1="50.0138337%" x2="99.9746968%" y2="50.0138337%" id="linearGradient-2">
            <stop stop-color="#081935" offset="30%"></stop>
            <stop stop-color="#193459" offset="100%"></stop>
        </linearGradient>
        <radialGradient cx="49.995434%" cy="50.0145582%" fx="49.995434%" fy="50.0145582%" r="119.12504%" gradientTransform="translate(0.499954,0.500146),scale(0.310822,1.000000),translate(-0.499954,-0.500146)" id="radialGradient-3">
            <stop stop-color="#FFFFFF" offset="17%"></stop>
            <stop stop-color="#332B2E" offset="100%"></stop>
        </radialGradient>
    </defs>
    <g id="Graphic-elements-/-Icons-/-Rich-icons-/-explore" stroke="none" stroke-width="1" fill="none" fill-rule="evenodd">
        <g id="Explore" transform="translate(45.000000, 0.000000)" fill-rule="nonzero">
            <path d="M296.319923,76.33 L296.319923,38.33 C296.31818,38.1265059 296.348555,37.9240044 296.41,37.73 C296.46479,37.5536091 296.549342,37.3878871 296.66,37.24 C296.754886,37.108048 296.877833,36.9987617 297.02,36.92 C297.153573,36.8420288 297.305336,36.8006388 297.46,36.8 L348.24,36.8 C348.394664,36.8006388 348.546427,36.8420288 348.68,36.92 C348.822167,36.9987617 348.945114,37.108048 349.04,37.24 C349.150658,37.3878871 349.23521,37.5536091 349.29,37.73 C349.351445,37.9240044 349.38182,38.1265059 349.380077,38.33 L349.380077,76.33 C349.38178,76.5302167 349.351393,76.7294198 349.29,76.92 C349.237372,77.0972627 349.152632,77.2633515 349.04,77.41 C348.945489,77.5449259 348.82262,77.6575559 348.68,77.74 C348.544534,77.8133576 348.393952,77.8544256 348.24,77.86 L297.46,77.86 C297.306048,77.8544256 297.155466,77.8133576 297.02,77.74 C296.87738,77.6575559 296.754511,77.5449259 296.66,77.41 C296.547368,77.2633515 296.462628,77.0972627 296.41,76.92 C296.348607,76.7294198 296.31822,76.5302167 296.319923,76.33 Z" id="Path" fill="#023852"></path>
            <path d="M317.61,301.18 C317.42,300.87 317.22,300.57 317.02,300.27 L316.38,299.4 C316.15,299.11 315.92,298.83 315.68,298.55 L314.92,297.74 L312.01,294.84 L309.11,291.93 L306.2,289 L303.3,286.1 L284.25,267.04 L265.2,248 L246.14,229 L227.09,209.94 L226.76,210.27 L226.43,210.6 L226.1,210.93 L225.77,211.26 L223,208.44 L220.23,205.67 L217.46,202.9 L214.7,200.13 C222.453117,189.972335 228.530017,178.638916 232.7,166.56 C234.829297,160.394 236.444807,154.062404 237.53,147.63 C244.103594,108.785634 231.112618,69.1968555 202.801997,41.7996732 C174.491375,14.4024909 134.497968,2.71642183 95.89,10.56 C80.6929614,13.6475478 66.2498647,19.6884385 53.38,28.34 C47.0602175,32.5853903 41.157142,37.420354 35.75,42.78 L35.86,42.64 L35.97,42.49 L36.08,42.35 L36.19,42.2 C30.6504466,47.6402631 25.6473788,53.6010802 21.25,60 C-6.51773049,100.419529 -6.72796759,153.71265 20.72,194.35 C29.3296978,207.061778 40.2855551,218.014241 53,226.62 C65.925354,235.370386 80.4488827,241.486987 95.74,244.62 C110.285118,247.584774 125.252574,247.839034 139.89,245.37 C159.042869,242.118309 177.106656,234.221196 192.5,222.37 L195.26,225.14 L198.02,227.91 L200.77,230.69 L203.53,233.46 L202.8,234.19 L202.07,234.92 L201.33,235.66 L200.6,236.39 L222.6,258.39 L244.55,280.39 L266.55,302.39 L288.55,324.39 C289.774475,325.620244 291.164528,326.673723 292.68,327.52 C297.065898,329.900249 302.220002,330.432935 307,329 L307.43,328.87 L307.87,328.72 L308.29,328.57 L308.72,328.4 C309.28,328.17 309.84,327.91 310.38,327.63 C310.92,327.35 311.46,327.03 311.98,326.63 C312.50256,326.286894 313.006599,325.916376 313.49,325.52 C313.988012,325.114269 314.465282,324.683724 314.92,324.23 L314.92,324.23 C316.439153,322.70977 317.687141,320.940942 318.61,319 C319.494209,317.123536 320.058648,315.11251 320.28,313.05 C320.509374,311.031288 320.41485,308.988897 320,307 C319.535187,304.93975 318.727257,302.972322 317.61,301.18 Z" id="Path" fill="#023852" opacity="0.3" style="mix-blend-mode: multiply;"></path>
            <path d="M223.48018,118.27 C223.394397,67.3773704 184.776845,24.8210591 134.131587,19.8085842 C83.4863287,14.7961093 37.2759216,48.9568071 27.2157859,98.8452902 C17.1556503,148.733773 46.5158959,198.133479 95.1458122,213.140088 C143.775729,228.146697 195.867858,203.882217 215.67,157 C220.849163,144.74589 223.505384,131.57362 223.48018,118.27 L223.48018,118.27 Z" id="Path" fill="#0099DA"></path>
            <path d="M118.11,29.73 C144.468527,29.7167193 169.750853,40.1837759 188.386334,58.8248845 C207.021816,77.4659931 217.481239,102.751479 217.46,129.11 C217.458235,133.046713 217.227847,136.980001 216.77,140.89 C216.326017,144.715816 215.658206,148.512324 214.77,152.26 C213.893875,155.950817 212.802,159.587063 211.5,163.15 C210.198286,166.673103 208.695825,170.118738 207,173.47 C209.331354,169.67294 211.40599,165.724117 213.21,161.65 C215.032256,157.530384 216.569211,153.290392 217.81,148.96 C219.08109,144.556941 220.036843,140.068911 220.67,135.53 C225.420728,102.076475 212.85707,68.4998177 187.312763,46.3820387 C161.768457,24.2642598 126.739928,16.6327724 94.31,26.12 C85.5205282,28.7018681 77.1333417,32.4949497 69.39,37.39 C53.9946399,47.1151044 41.546987,60.8593878 33.39,77.14 C42.1458777,62.8916192 54.3429399,51.0728138 68.86,42.77 C83.854505,34.2151557 100.826767,29.7333476 118.09,29.77 L118.11,29.73 Z" id="Path" fill="#4188BD" opacity="0.3" style="mix-blend-mode: multiply;"></path>
            <path d="M217.14,192 C217.14,192 216.46,192.92 215.26,194.43 C214.06,195.94 212.35,198.02 210.26,200.34 C208.17,202.66 205.77,205.2 203.16,207.64 C200.598594,210.061808 197.842669,212.269223 194.92,214.24 L200.64,219.99 L206.36,225.74 L212.07,231.49 L217.79,237.24 L223.27,231.64 L228.74,226.04 L234.21,220.45 L239.69,214.85 L234.05,209.14 L228.4,203.42 L222.76,197.71 L217.14,192 Z" id="Path" fill="url(#linearGradient-1)" style="mix-blend-mode: multiply;"></path>
            <path d="M194.38,188.55 L124.13,118.27 L53.87,48 C53.87,48 61.14,35.07 78,25.76 C94.86,16.45 121.16,10.76 159.33,25.27 C197.5,39.78 218.9,69.45 224.45,101.08 C230,132.71 219.65,166.29 194.38,188.55 Z" id="Path" fill="#FFFFFF" opacity="0.2"></path>
            <path d="M273.57,248.43 L259.46,234.31 L245.36,220.2 L231.25,206.09 L217.14,192 C251.799516,146.499751 249.219905,82.7861268 210.995474,40.2367727 C172.771042,-2.31258146 109.697151,-11.6808575 60.7560648,17.9219251 C11.8149782,47.5247077 -9.1713401,107.738118 10.7675193,161.347786 C30.7063787,214.957455 85.9392739,246.822916 142.33,237.25 C155.142228,235.077101 167.510331,230.813635 178.94,224.63 C184.540466,221.596517 189.890683,218.12222 194.94,214.24 L209,228.33 L223.1,242.44 L237.21,256.55 L251.31,270.66 L256.87,265.1 L262.42,259.54 L268,254 L273.57,248.43 Z M122.27,213.770052 C109.674747,213.78325 97.2061839,211.256207 85.61,206.34 C50.7216785,191.560019 28.0576945,157.344878 28.0576945,119.455 C28.0576945,81.5651224 50.7216785,47.3499814 85.61,32.57 C120.943557,17.615805 161.818416,25.6214048 188.9,52.8 C211.049212,75.0045626 220.719958,106.762158 214.705729,137.542983 C208.691499,168.323809 187.778196,194.105623 158.9,206.34 C147.313115,211.252254 134.855153,213.779217 122.27,213.770052 Z" id="Shape" fill="#D2D7D7"></path>
            <g id="Group" opacity="0.6" style="mix-blend-mode: multiply;" transform="translate(2.000000, 34.000000)" fill="#D2D7D7">
                <path d="M135,201 C101.958438,201.029233 70.2622079,187.914413 46.9011001,164.547678 C23.5399924,141.180942 10.432808,109.481554 10.47,76.44 C10.4671113,69.3657339 11.0625669,62.3038979 12.25,55.33 C15.702774,35.1757176 24.0809657,16.1865239 36.64,0.05 C25.4854906,10.9709416 16.5748637,23.9682951 10.41,38.31 C7.27359658,45.6141931 4.88150332,53.2159573 3.27,61 C-4.09903621,96.2024208 4.79518679,132.851029 27.4805733,160.759565 C50.1659597,188.6681 84.2245632,204.861902 120.19,204.840022 C123.39,204.840022 126.553333,204.713333 129.68,204.46 C132.81,204.21 135.91,203.84 138.96,203.36 C142.01,202.88 145.04,202.27 147.96,201.55 C150.88,200.83 153.87,200.01 156.75,199.08 C154.98,199.4 153.2,199.67 151.4,199.91 C149.6,200.15 147.8,200.35 145.98,200.51 C144.16,200.67 142.33,200.8 140.49,200.88 C138.65,200.96 136.85,201 135,201 Z" id="Path"></path>
            </g>
            <path d="M317.36,316.1 L317.36,316.1 C320.881682,312.587869 322.860947,307.818661 322.860947,302.845 C322.860947,297.871339 320.881682,293.102131 317.36,289.59 L295.41,267.59 L273.41,245.59 L251.41,223.59 L229.46,201.59 L222.83,208.21 L216.29,215 L209.66,221.63 L203,228.24 L224.95,250.24 L246.95,272.24 L268.95,294.24 L290.9,316.24 C298.218155,323.556851 310.081845,323.556851 317.4,316.24 L317.36,316.1 Z" id="Path" fill="#023852"></path>
            <path d="M317.36,289.59 L314.46,286.68 L311.55,283.78 L308.65,280.87 L305.75,277.97 C313.067995,285.291586 313.067995,297.158414 305.75,304.48 C302.239578,308.001076 297.472026,309.980095 292.5,309.980095 C287.527974,309.980095 282.760422,308.001076 279.25,304.48 L282.15,307.38 L285.05,310.29 L287.96,313.19 L290.86,316.1 C295.306177,320.534756 301.676393,322.450743 307.831262,321.204493 C313.986132,319.958242 319.109228,315.715066 321.48,309.9 C324.320998,302.917958 322.697158,294.913057 317.36,289.59 Z" id="Path" fill="url(#linearGradient-2)"></path>
            <path d="M112.29,172.33 C112.138489,172.181195 111.962614,172.059435 111.77,171.97 C111.563594,171.885653 111.34297,171.841528 111.12,171.84 L6.94,171.84 C6.72016317,171.840528 6.50262065,171.884716 6.3,171.97 C6.10290473,172.05676 5.92329613,172.178758 5.77,172.33 C5.61891856,172.477506 5.49978453,172.654505 5.42,172.85 C5.33089963,173.054945 5.28657857,173.27655 5.28981597,173.5 L5.28981597,203.6 C5.2867678,203.820203 5.33111116,204.038509 5.42,204.24 C5.58059228,204.64137 5.89863033,204.959408 6.3,205.12 C6.50119649,205.209812 6.71970808,205.254197 6.94,205.250272 L111.12,205.250272 C111.34345,205.253421 111.565055,205.2091 111.77,205.12 C111.964224,205.037851 112.140781,204.919014 112.29,204.77 C112.441242,204.616704 112.56324,204.437095 112.65,204.24 C112.734288,204.037073 112.778436,203.81973 112.78,203.6 L112.78,173.5 C112.778472,173.27703 112.734347,173.056406 112.65,172.85 C112.562972,172.656018 112.440933,172.47974 112.29,172.33 L112.29,172.33 Z" id="Path" fill="url(#radialGradient-3)" opacity="0.4" style="mix-blend-mode: multiply;"></path>
            <path d="M105.94,164.38 L1.76,164.38 C1.53702997,164.381528 1.31640616,164.425653 1.11,164.51 C0.916018019,164.597028 0.739739532,164.719067 0.59,164.87 C0.441194575,165.021511 0.319434743,165.197386 0.23,165.39 C0.145652688,165.596406 0.101527926,165.81703 0.1,166.04 L0.1,196.14 C0.1,196.359837 0.144715856,196.577379 0.23,196.78 C0.316759815,196.977095 0.438758112,197.156704 0.59,197.31 C0.73750628,197.461081 0.914505418,197.580215 1.11,197.66 C1.31494517,197.7491 1.53655047,197.793421 1.76,197.790184 L105.94,197.790184 C106.160203,197.793232 106.378509,197.748889 106.58,197.66 C106.98137,197.499408 107.299408,197.18137 107.46,196.78 C107.549812,196.578804 107.594197,196.360292 107.590272,196.14 L107.590272,166 C107.593421,165.77655 107.5491,165.554945 107.46,165.35 C107.377851,165.155776 107.259014,164.979219 107.11,164.83 C106.956704,164.678758 106.777095,164.55676 106.58,164.47 C106.374384,164.399351 106.157126,164.368799 105.94,164.38 Z" id="Path" fill="#FFE700"></path>
            <path d="M17.24,181.32 C17.2430177,181.830865 17.2196533,182.341545 17.17,182.85 C17.1348565,183.291545 17.0646349,183.729594 16.96,184.16 C16.879681,184.53282 16.7658864,184.897632 16.62,185.25 C16.4928292,185.556937 16.3318348,185.84874 16.14,186.12 C15.9652691,186.370896 15.7566187,186.596373 15.52,186.79 C15.2848575,186.982188 15.0260896,187.143498 14.75,187.27 C14.4580879,187.3994 14.1529574,187.496639 13.84,187.56 C13.4900284,187.621326 13.1353012,187.651444 12.78,187.65005 C12.4441203,187.651028 12.109025,187.617519 11.78,187.55 C11.4662608,187.484873 11.16096,187.384224 10.87,187.25 C10.3145795,186.975607 9.83671216,186.566498 9.48,186.06 C9.28521439,185.778224 9.12095684,185.476527 8.99,185.16 C8.83723541,184.80832 8.71674008,184.443487 8.63,184.07 C8.53488292,183.647836 8.46476104,183.220426 8.42,182.79 C8.42,182.33 8.35,181.84 8.35,181.32 C8.35,180.8 8.35,180.25 8.42,179.78 C8.46419171,179.33628 8.53431157,178.895527 8.63,178.46 C8.70891295,178.083567 8.82273853,177.715307 8.97,177.36 C9.09943311,177.050999 9.26027797,176.756116 9.45,176.48 C9.62473086,176.229104 9.83338126,176.003627 10.07,175.81 C10.3039039,175.613383 10.5628226,175.448616 10.84,175.32 C11.1352325,175.19256 11.4438285,175.09864 11.76,175.04 C12.1088659,174.969702 12.4641424,174.936186 12.82,174.94 C13.15589,174.938758 13.4910072,174.97227 13.82,175.04 C14.1301037,175.106656 14.4319231,175.207263 14.72,175.34 C14.9987742,175.469859 15.2579639,175.638164 15.49,175.84 C15.7253419,176.049215 15.936645,176.283997 16.12,176.54 C16.3147856,176.821776 16.4790432,177.123473 16.61,177.44 C16.762722,177.795137 16.8832069,178.163286 16.97,178.54 C17.0642087,178.965708 17.1343201,179.396392 17.18,179.83 C17.2265888,180.325239 17.2466175,180.822618 17.24,181.32 L17.24,181.32 Z M11.64,181.32 C11.64,181.67 11.64,181.99 11.64,182.32 C11.64,182.65 11.64,182.89 11.64,183.13 C11.64,183.37 11.64,183.58 11.72,183.76 C11.7432863,183.923721 11.7835017,184.084582 11.84,184.24 C11.8759055,184.359042 11.9262819,184.473228 11.99,184.58 C12.0428076,184.673534 12.1103396,184.757949 12.19,184.83 C12.2624842,184.891125 12.3432933,184.941631 12.43,184.98 C12.5260015,184.996038 12.6239985,184.996038 12.72,184.98 C12.8156371,184.999952 12.9143629,184.999952 13.01,184.98 C13.0995051,184.94712 13.1812239,184.896046 13.25,184.83 C13.3267891,184.755295 13.3939731,184.671315 13.45,184.58 C13.5154534,184.467039 13.5658795,184.346016 13.6,184.22 C13.6479879,184.062807 13.6847471,183.902403 13.71,183.74 C13.71,183.55 13.77,183.34 13.79,183.1 C13.81,182.86 13.79,182.6 13.84,182.31 C13.89,182.02 13.84,181.71 13.84,181.37 C13.84,181.03 13.84,180.71 13.84,180.42 C13.84,180.13 13.84,179.86 13.79,179.62 C13.74,179.38 13.79,179.17 13.71,178.98 C13.6853801,178.81328 13.6452047,178.64923 13.59,178.49 C13.5558795,178.363984 13.5054534,178.242961 13.44,178.13 C13.3898233,178.031813 13.3220309,177.943683 13.24,177.87 C13.1706428,177.80221 13.0892514,177.747949 13,177.71 C12.9072788,177.694882 12.8127212,177.694882 12.72,177.71 C12.6239985,177.693962 12.5260015,177.693962 12.43,177.71 C12.3432933,177.748369 12.2624842,177.798875 12.19,177.86 C12.1103396,177.932051 12.0428076,178.016466 11.99,178.11 C11.9262458,178.22028 11.8758893,178.337778 11.84,178.46 C11.7835017,178.615418 11.7432863,178.776279 11.72,178.94 C11.72,179.13 11.66,179.34 11.64,179.58 C11.62,179.82 11.64,180.09 11.64,180.39 C11.64,180.69 11.64,181 11.64,181.32 Z" id="Shape" fill="#0099DA"></path>
            <path d="M27.38,181.32 C27.3830177,181.830865 27.3596533,182.341545 27.31,182.85 C27.2730891,183.290693 27.2062685,183.728369 27.11,184.16 C27.0218497,184.53188 26.9048281,184.896319 26.76,185.25 C26.6407499,185.560684 26.4792287,185.853442 26.28,186.12 C26.1052691,186.370896 25.8966187,186.596373 25.66,186.79 C25.4248575,186.982188 25.1660896,187.143498 24.89,187.27 C24.5986492,187.400873 24.2933518,187.498165 23.98,187.56 C23.6300977,187.621858 23.2753226,187.651981 22.92,187.650092 C22.5841203,187.651028 22.249025,187.617519 21.92,187.55 C21.6094957,187.484816 21.3075135,187.384156 21.02,187.25 C20.7412258,187.120141 20.4820361,186.951836 20.25,186.75 C20.0148144,186.544327 19.8034882,186.312875 19.62,186.06 C19.4252144,185.778224 19.2609568,185.476527 19.13,185.16 C18.9807014,184.807965 18.8635573,184.443145 18.78,184.07 C18.6754687,183.649721 18.6052379,183.221648 18.57,182.79 C18.5202886,182.301612 18.4969214,181.810901 18.5,181.32 C18.5,180.77 18.5,180.25 18.56,179.78 C18.6041917,179.33628 18.6743116,178.895527 18.77,178.46 C18.8535373,178.084779 18.9672402,177.716916 19.11,177.36 C19.2394331,177.050999 19.400278,176.756116 19.59,176.48 C19.7682983,176.228847 19.9802836,176.003402 20.22,175.81 C20.4507283,175.609093 20.7102813,175.443922 20.99,175.32 C21.2817397,175.192476 21.5870341,175.098539 21.9,175.04 C22.2488659,174.969702 22.6041424,174.936186 22.96,174.94 C23.2959142,174.93825 23.6310841,174.971767 23.96,175.04 C24.2737392,175.105127 24.57904,175.205776 24.87,175.34 C25.1443513,175.472286 25.3999189,175.640423 25.63,175.84 C25.8705762,176.043886 26.0824941,176.279351 26.26,176.54 C26.4580628,176.82145 26.6256697,177.123143 26.76,177.44 C26.9092584,177.795488 27.0263926,178.163624 27.11,178.54 C27.2042087,178.965708 27.2743201,179.396392 27.32,179.83 C27.3665888,180.325239 27.3866175,180.822618 27.38,181.32 L27.38,181.32 Z M21.78,181.32 C21.78,181.67 21.78,181.99 21.78,182.32 C21.78,182.65 21.78,182.89 21.78,183.13 C21.78,183.37 21.78,183.58 21.86,183.76 C21.8881137,183.922739 21.9282231,184.083177 21.98,184.24 C22.0159055,184.359042 22.0662819,184.473228 22.13,184.58 C22.1860269,184.671315 22.2532109,184.755295 22.33,184.83 C22.4024842,184.891125 22.4832933,184.941631 22.57,184.98 C22.6660015,184.996038 22.7639985,184.996038 22.86,184.98 C22.9556371,184.999952 23.0543629,184.999952 23.15,184.98 C23.2406533,184.949507 23.3228659,184.898124 23.39,184.83 C23.4667891,184.755295 23.5339731,184.671315 23.59,184.58 C23.6554534,184.467039 23.7058795,184.346016 23.74,184.22 C23.7879879,184.062807 23.8247471,183.902403 23.85,183.74 C23.85,183.55 23.91,183.34 23.94,183.1 C23.97,182.86 23.94,182.6 23.94,182.31 C23.94,182.02 23.94,181.71 23.94,181.37 C23.94,181.03 23.94,180.71 23.94,180.42 C23.94,180.13 23.94,179.86 23.89,179.62 C23.84,179.38 23.89,179.17 23.81,178.98 C23.7836328,178.814524 23.7468937,178.650868 23.7,178.49 C23.6586441,178.365027 23.6050508,178.244442 23.54,178.13 C23.4931981,178.032384 23.4287865,177.944242 23.35,177.87 C23.2750898,177.804527 23.1908285,177.7506 23.1,177.71 C23.0073569,177.693947 22.9126431,177.693947 22.82,177.71 C22.7239985,177.693962 22.6260015,177.693962 22.53,177.71 C22.4432933,177.748369 22.3624842,177.798875 22.29,177.86 C22.2132109,177.934705 22.1460269,178.018685 22.09,178.11 C22.0262458,178.22028 21.9758893,178.337778 21.94,178.46 C21.8882231,178.616823 21.8481137,178.777261 21.82,178.94 C21.82,179.13 21.76,179.34 21.74,179.58 C21.72,179.82 21.74,180.09 21.74,180.39 C21.74,180.69 21.78,181 21.78,181.32 Z" id="Shape" fill="#0099DA"></path>
            <path d="M36,187.48 L32.56,187.48 L32.56,180.94 C32.56,180.74 32.56,180.54 32.56,180.35 C32.56,180.16 32.56,179.98 32.56,179.79 C32.56,179.6 32.56,179.43 32.56,179.26 C32.56,179.09 32.56,178.92 32.56,178.75 L32.4,178.95 C32.34,179.01 32.28,179.08 32.21,179.14 C32.1484223,179.211568 32.0815685,179.278422 32.01,179.34 L31.79,179.55 L31.44,179.84 L31.09,180.13 L30.74,180.42 L30.38,180.71 L29.95,180.17 L29.52,179.64 L29.09,179.11 L28.65,178.58 L29.71,177.71 L30.77,176.85 L31.83,175.98 L32.9,175.12 L35.9,175.12 L35.9,187.48 L36,187.48 Z" id="Path" fill="#0099DA"></path>
            <path d="M46.1,187.48 L42.71,187.48 L42.71,180.35 C42.71,180.16 42.71,179.98 42.71,179.79 C42.71,179.6 42.71,179.43 42.71,179.26 C42.71,179.09 42.71,178.92 42.71,178.75 C42.66,178.82 42.6,178.88 42.54,178.95 L42.36,179.14 C42.2949319,179.211661 42.2247475,179.278503 42.15,179.34 L41.93,179.55 L41.58,179.84 L41.23,180.13 L40.88,180.42 L40.53,180.71 L40.1,180.17 L39.66,179.64 L39.23,179.11 L38.8,178.58 L39.86,177.71 L40.92,176.85 L42,176 L43.06,175.14 L46.06,175.14 L46.06,187.5 L46.1,187.48 Z" id="Path" fill="#0099DA"></path>
            <path d="M56.24,187.48 L52.85,187.48 L52.85,180.35 C52.85,180.16 52.85,179.98 52.85,179.79 C52.85,179.6 52.85,179.43 52.85,179.26 C52.85,179.09 52.85,178.92 52.85,178.75 L52.69,178.95 C52.63,179.01 52.57,179.08 52.5,179.14 C52.4384223,179.211568 52.3715685,179.278422 52.3,179.34 L52.07,179.55 L51.72,179.84 L51.37,180.13 L51.02,180.42 L50.67,180.71 L50.24,180.17 L49.81,179.64 L49.37,179.11 L48.94,178.58 L50,177.71 L51.06,176.85 L52.12,175.98 L53.18,175.12 L56.18,175.12 L56.18,187.48 L56.24,187.48 Z" id="Path" fill="#0099DA"></path>
            <path d="M68,181.32 C68.0030177,181.830865 67.9796533,182.341545 67.93,182.85 C67.8850492,183.290315 67.8149345,183.727697 67.72,184.16 C67.639681,184.53282 67.5258864,184.897632 67.38,185.25 C67.2528292,185.556937 67.0918348,185.84874 66.9,186.12 C66.722433,186.3686 66.5141104,186.593723 66.28,186.79 C66.0433146,186.980023 65.7848249,187.141159 65.51,187.27 C65.215181,187.400867 64.906573,187.498146 64.59,187.56 C64.2400977,187.621858 63.8853226,187.651981 63.53,187.650092 C63.1941542,187.650336 62.8591289,187.616833 62.53,187.55 C62.2198963,187.483344 61.9180769,187.382737 61.63,187.25 C61.354347,187.120022 61.0984765,186.951686 60.87,186.75 C60.6291123,186.547185 60.4141566,186.315435 60.23,186.06 C60.0389642,185.775933 59.8749164,185.474621 59.74,185.16 C59.5951719,184.806319 59.4781503,184.44188 59.39,184.07 C59.2948829,183.647836 59.224761,183.220426 59.18,182.79 C59.1302886,182.301612 59.1069214,181.810901 59.11,181.32 C59.1065101,180.805798 59.1298752,180.291765 59.18,179.78 C59.2192795,179.335659 59.2894492,178.894593 59.39,178.46 C59.4689129,178.083567 59.5827385,177.715307 59.73,177.36 C59.8594331,177.050999 60.020278,176.756116 60.21,176.48 C60.3847309,176.229104 60.5933813,176.003627 60.83,175.81 C61.0623405,175.611261 61.3215627,175.446301 61.6,175.32 C61.8922579,175.193877 62.1973935,175.09999 62.51,175.04 C62.8589399,174.970205 63.2141637,174.936694 63.57,174.94 C63.9058797,174.938972 64.240975,174.972481 64.57,175.04 C64.8801037,175.106656 65.1819231,175.207263 65.47,175.34 C65.7474508,175.472235 66.0063315,175.64034 66.24,175.84 C66.4753419,176.049215 66.686645,176.283997 66.87,176.54 C67.0647856,176.821776 67.2290432,177.123473 67.36,177.44 C67.508268,177.796804 67.6286292,178.164575 67.72,178.54 C67.8142087,178.965708 67.8843201,179.396392 67.93,179.83 C67.93,180.29 68,180.79 68,181.32 Z M62.39,181.32 C62.39,181.67 62.39,181.99 62.39,182.32 C62.39,182.65 62.39,182.89 62.39,183.13 C62.39,183.37 62.39,183.58 62.47,183.76 C62.4952529,183.922403 62.5320121,184.082807 62.58,184.24 C62.6233553,184.357766 62.6768912,184.47153 62.74,184.58 C62.7928076,184.673534 62.8603396,184.757949 62.94,184.83 C63.0124842,184.891125 63.0932933,184.941631 63.18,184.98 C63.2727066,184.995296 63.3672934,184.995296 63.46,184.98 C63.5555421,185.000853 63.6544579,185.000853 63.75,184.98 C63.8425717,184.947319 63.9276005,184.896301 64,184.83 C64.0761034,184.757192 64.1402271,184.672819 64.19,184.58 C64.2550508,184.465558 64.3086441,184.344973 64.35,184.22 C64.3979879,184.062807 64.4347471,183.902403 64.46,183.74 C64.46,183.55 64.52,183.34 64.54,183.1 C64.56,182.86 64.54,182.6 64.59,182.31 C64.64,182.02 64.59,181.71 64.59,181.37 C64.59,181.03 64.59,180.71 64.59,180.42 C64.59,180.13 64.59,179.86 64.54,179.62 C64.49,179.38 64.54,179.17 64.46,178.98 C64.4305896,178.814254 64.3905062,178.65058 64.34,178.49 C64.3058795,178.363984 64.2554534,178.242961 64.19,178.13 C64.1398233,178.031813 64.0720309,177.943683 63.99,177.87 C63.9206428,177.80221 63.8392514,177.747949 63.75,177.71 C63.6539985,177.693962 63.5560015,177.693962 63.46,177.71 C63.3672788,177.694882 63.2727212,177.694882 63.18,177.71 C63.0932933,177.748369 63.0124842,177.798875 62.94,177.86 C62.8603396,177.932051 62.7928076,178.016466 62.74,178.11 C62.6769408,178.221971 62.6234185,178.339051 62.58,178.46 C62.5320121,178.617193 62.4952529,178.777597 62.47,178.94 C62.47,179.13 62.41,179.34 62.39,179.58 C62.37,179.82 62.39,180.09 62.39,180.39 C62.39,180.69 62.35,181 62.35,181.32 L62.39,181.32 Z" id="Shape" fill="#0099DA"></path>
            <path d="M76.53,187.48 L73.14,187.48 L73.14,180.35 C73.14,180.16 73.14,179.98 73.14,179.79 C73.14,179.6 73.14,179.43 73.14,179.26 C73.14,179.09 73.14,178.92 73.14,178.75 C73.14,178.82 73.03,178.88 72.97,178.95 L72.79,179.14 L72.58,179.34 L72.36,179.55 L72.01,179.84 L71.66,180.13 L71.31,180.42 L70.96,180.71 L70.52,180.17 L70.09,179.64 L69.66,179.11 L69.23,178.58 L70.29,177.71 L71.35,176.85 L72.41,175.98 L73.47,175.12 L76.47,175.12 L76.47,187.48 L76.53,187.48 Z" id="Path" fill="#0099DA"></path>
            <path d="M88.24,181.32 C88.24,181.86 88.22,182.37 88.18,182.85 C88.1350492,183.290315 88.0649345,183.727697 87.97,184.16 C87.8850631,184.531589 87.7713878,184.896019 87.63,185.25 C87.5036454,185.559328 87.3390299,185.851604 87.14,186.12 C86.9652691,186.370896 86.7566187,186.596373 86.52,186.79 C86.2848575,186.982188 86.0260896,187.143498 85.75,187.27 C85.4586492,187.400873 85.1533518,187.498165 84.84,187.56 C84.4900977,187.621858 84.1353226,187.651981 83.78,187.650092 C83.4441203,187.651028 83.109025,187.617519 82.78,187.55 C82.4698963,187.483344 82.1680769,187.382737 81.88,187.25 C81.6025492,187.117765 81.3436685,186.94966 81.11,186.75 C80.8748144,186.544327 80.6634882,186.312875 80.48,186.06 C80.2852144,185.778224 80.1209568,185.476527 79.99,185.16 C79.8407014,184.807965 79.7235573,184.443145 79.64,184.07 C79.5401017,183.64878 79.4699288,183.221059 79.43,182.79 C79.3802886,182.301612 79.3569214,181.810901 79.36,181.32 C79.3565101,180.805798 79.3798752,180.291765 79.43,179.78 C79.466177,179.335918 79.5330029,178.894867 79.63,178.46 C79.712092,178.083217 79.8292697,177.714944 79.98,177.36 C80.1014799,177.04724 80.2628122,176.751464 80.46,176.48 C80.6347309,176.229104 80.8433813,176.003627 81.08,175.81 C81.3123405,175.611261 81.5715627,175.446301 81.85,175.32 C82.1417397,175.192476 82.4470341,175.098539 82.76,175.04 C83.1088659,174.969702 83.4641424,174.936186 83.82,174.94 C84.1558458,174.939708 84.4908711,174.973167 84.82,175.04 C85.1301037,175.106656 85.4319231,175.207263 85.72,175.34 C85.995653,175.469978 86.2515235,175.638314 86.48,175.84 C86.7210873,176.046355 86.9360178,176.281435 87.12,176.54 C87.3110358,176.824067 87.4750836,177.125379 87.61,177.44 C87.7592584,177.795488 87.8763926,178.163624 87.96,178.54 C88.063881,178.963795 88.1340997,179.395138 88.17,179.83 C88.2199275,180.32506 88.2432944,180.82244 88.24,181.32 L88.24,181.32 Z M82.64,181.32 C82.64,181.67 82.64,181.99 82.64,182.32 C82.64,182.65 82.64,182.89 82.64,183.13 C82.64,183.37 82.69,183.58 82.73,183.76 C82.7552529,183.922403 82.7920121,184.082807 82.84,184.24 C82.8801398,184.357432 82.9303255,184.471186 82.99,184.58 C83.0460269,184.671315 83.1132109,184.755295 83.19,184.83 C83.2653518,184.887079 83.3456739,184.93728 83.43,184.98 C83.5260588,184.995331 83.6239412,184.995331 83.72,184.98 C83.8156371,184.999952 83.9143629,184.999952 84.01,184.98 C84.1006533,184.949507 84.1828659,184.898124 84.25,184.83 C84.3296604,184.757949 84.3971924,184.673534 84.45,184.58 C84.5154534,184.467039 84.5658795,184.346016 84.6,184.22 C84.6517769,184.063177 84.6918863,183.902739 84.72,183.74 C84.72,183.55 84.78,183.34 84.8,183.1 C84.82,182.86 84.8,182.6 84.8,182.31 C84.8,182.02 84.8,181.71 84.8,181.37 C84.8,181.03 84.8,180.71 84.8,180.42 C84.8,180.13 84.8,179.86 84.8,179.62 C84.8,179.38 84.75,179.17 84.71,178.98 C84.6836328,178.814524 84.6468937,178.650868 84.6,178.49 C84.5614973,178.365526 84.5112723,178.244986 84.45,178.13 C84.3965777,178.033907 84.3291752,177.946283 84.25,177.87 C84.1806428,177.80221 84.0992514,177.747949 84.01,177.71 C83.8223579,177.643658 83.6176421,177.643658 83.43,177.71 C83.3456739,177.75272 83.2653518,177.802921 83.19,177.86 C83.1132109,177.934705 83.0460269,178.018685 82.99,178.11 C82.9304117,178.22232 82.8802398,178.339388 82.84,178.46 C82.7920121,178.617193 82.7552529,178.777597 82.73,178.94 C82.73,179.13 82.67,179.34 82.64,179.58 C82.61,179.82 82.64,180.09 82.64,180.39 C82.64,180.69 82.64,181 82.64,181.32 L82.64,181.32 Z" id="Shape" fill="#0099DA"></path>
            <path d="M96.82,187.48 L93.43,187.48 L93.43,180.35 C93.43,180.16 93.43,179.98 93.43,179.79 C93.43,179.6 93.43,179.43 93.43,179.26 C93.43,179.09 93.43,178.92 93.43,178.75 C93.43,178.82 93.32,178.88 93.26,178.95 L93.08,179.14 L92.87,179.34 L92.65,179.55 L92.3,179.84 L91.95,180.13 L91.6,180.42 L91.25,180.71 L90.81,180.17 L90.38,179.64 L89.95,179.11 L89.51,178.58 L90.58,177.71 L91.64,176.85 L92.7,175.98 L93.76,175.12 L96.76,175.12 L96.76,187.48 L96.82,187.48 Z" id="Path" fill="#0099DA"></path>
            <path d="M209.54,137.27 C209.649016,137.38 209.777979,137.468238 209.92,137.53 C210.069548,137.589512 210.229046,137.620104 210.39,137.620104 L329.3,137.620104 C329.461145,137.622135 329.621044,137.591516 329.77,137.53 C329.912021,137.468238 330.040984,137.38 330.15,137.27 C330.262302,137.159047 330.350774,137.026338 330.41,136.88 C330.474681,136.731678 330.508696,136.571806 330.51,136.41 L330.51,48.66 C330.508696,48.4981935 330.474681,48.3383222 330.41,48.19 C330.350774,48.0436622 330.262302,47.9109535 330.15,47.8 C330.040984,47.6899999 329.912021,47.6017621 329.77,47.54 C329.621044,47.478484 329.461145,47.447865 329.3,47.4498956 L210.39,47.4498956 C210.229046,47.4498956 210.069548,47.4804882 209.92,47.54 C209.777979,47.6017621 209.649016,47.6899999 209.54,47.8 C209.427698,47.9109535 209.339226,48.0436622 209.28,48.19 C209.218484,48.3389562 209.187865,48.4988554 209.189896,48.66 L209.189896,136.41 C209.187865,136.571145 209.218484,136.731044 209.28,136.88 C209.339226,137.026338 209.427698,137.159047 209.54,137.27 Z" id="Path" fill="#023852" opacity="0.3" style="mix-blend-mode: multiply;"></path>
            <path d="M333.5,53.7394557 L214.59,53.7394557 C214.427534,53.7346376 214.26621,53.7689619 214.12,53.84 C213.97426,53.8957634 213.84152,53.9808532 213.73,54.09 C213.620929,54.2035828 213.532895,54.3356331 213.47,54.48 C213.408484,54.6289562 213.377865,54.7888554 213.379896,54.95 L213.379896,142.71 C213.379896,142.870954 213.410488,143.030452 213.47,143.18 C213.535417,143.319968 213.623238,143.448321 213.73,143.56 C213.840953,143.672302 213.973662,143.760774 214.12,143.82 C214.268956,143.881516 214.428855,143.912135 214.59,143.910104 L333.5,143.910104 C333.657809,143.911062 333.814228,143.880458 333.96,143.82 C334.106338,143.760774 334.239047,143.672302 334.35,143.56 C334.46,143.450984 334.548238,143.322021 334.61,143.18 C334.669512,143.030452 334.700104,142.870954 334.700104,142.71 L334.700104,55 C334.702135,54.8388554 334.671516,54.6789562 334.61,54.53 C334.550774,54.3836622 334.462302,54.2509535 334.35,54.14 C334.23848,54.0308532 334.10574,53.9457634 333.96,53.89 C333.821257,53.8031003 333.6633,53.7515927 333.5,53.7394557 Z" id="Path" fill="#FFFFFF"></path>
            <polygon id="Path" fill="#023852" points="321.06 80.81 297.73 80.81 274.4 80.81 251.07 80.81 227.75 80.81 227.75 79.33 227.75 77.86 227.75 76.38 227.75 74.91 251.07 74.91 274.4 74.91 297.73 74.91 321.06 74.91 321.06 76.38 321.06 77.86 321.06 79.33"></polygon>
            <polygon id="Path" fill="#023852" points="290.94 94.86 275.14 94.86 259.34 94.86 243.54 94.86 227.75 94.86 227.75 93.46 227.75 92.06 227.75 90.67 227.75 89.27 243.54 89.27 259.34 89.27 275.14 89.27 290.94 89.27 290.94 90.67 290.94 92.06 290.94 93.46"></polygon>
            <polygon id="Path" fill="#023852" points="290.94 109.07 275.14 109.07 259.34 109.07 243.54 109.07 227.75 109.07 227.75 107.67 227.75 106.27 227.75 104.87 227.75 103.47 243.54 103.47 259.34 103.47 275.14 103.47 290.94 103.47 290.94 104.87 290.94 106.27 290.94 107.67"></polygon>
            <polygon id="Path" fill="#023852" points="270.19 123.27 259.58 123.27 248.97 123.27 238.36 123.27 227.75 123.27 227.75 121.88 227.75 120.48 227.75 119.08 227.75 117.68 238.36 117.68 248.97 117.68 259.58 117.68 270.19 117.68 270.19 119.08 270.19 120.48 270.19 121.88"></polygon>
        </g>
    </g>
</svg>