<svg xmlns="http://www.w3.org/2000/svg" width="47" height="50" viewBox="0 0 400 291.24"><defs><style>.cls-1{isolation:isolate;}.cls-2,.cls-3{fill:#96a6ae;}.cls-3,.cls-6{opacity:0.2;}.cls-3{mix-blend-mode:multiply;}.cls-4{fill:#003a5d;}.cls-5{fill:#c3ccd1;}.cls-6{fill:#fff;}.cls-7{fill:#125275;}.cls-8{fill:#ffe600;}.cls-9{fill:#009bdb;}.cls-10{fill:#f1f3f2;}</style></defs><title>feature-rich</title><g class="cls-1"><g id="Layer_1" data-name="Layer 1"><path class="cls-2" d="M235,273.69v-38.5H165v38.5a12.37,12.37,0,0,1-.29,1.85,15.88,15.88,0,0,1-1.47,4.07,11.1,11.1,0,0,1-3.55,4.08,11.31,11.31,0,0,1-6.53,1.85h93.72a11.31,11.31,0,0,1-6.53-1.85,11.1,11.1,0,0,1-3.55-4.08,15.88,15.88,0,0,1-1.47-4.07A12.37,12.37,0,0,1,235,273.69Z"/><polygon class="cls-3" points="164.96 247.85 182.48 247.85 200 247.85 217.52 247.85 235.04 247.85 235.04 253.5 235.04 259.16 235.04 264.81 235.04 270.46 217.52 270.46 200 270.46 182.48 270.46 164.96 270.46 164.96 264.81 164.96 259.16 164.96 253.5 164.96 247.85"/><path class="cls-4" d="M394.48,249.4H5.52A5.31,5.31,0,0,1,3.37,249a5.3,5.3,0,0,1-1.75-1.2,5.61,5.61,0,0,1-1.62-4V5.62A5.66,5.66,0,0,1,.43,3.43,5.56,5.56,0,0,1,1.62,1.65,5.4,5.4,0,0,1,5.52,0h389a5.4,5.4,0,0,1,3.9,1.65,5.56,5.56,0,0,1,1.19,1.78A5.66,5.66,0,0,1,400,5.62V243.78a5.61,5.61,0,0,1-1.62,4,5.51,5.51,0,0,1-3.9,1.65Z"/><polygon class="cls-4" points="12.48 226.51 106.47 226.51 200.47 226.51 294.46 226.51 388.45 226.51 388.45 172.96 388.45 119.41 388.45 65.86 388.45 12.32 294.46 12.32 200.47 12.32 106.47 12.32 12.48 12.32 12.48 65.86 12.48 119.41 12.48 172.96 12.48 226.51"/><path class="cls-5" d="M259.88,285.54H137.28a5.68,5.68,0,0,0-2.22.45,5.71,5.71,0,0,0-3,3,5.72,5.72,0,0,0-.45,2.22h134a5.72,5.72,0,0,0-.45-2.22,5.89,5.89,0,0,0-1.22-1.81,5.74,5.74,0,0,0-4-1.67Z"/><path class="cls-6" d="M12.65,12.15l14,13.54,14,13.54,14,13.53,14,13.53,41.5,40,41.51,40,41.52,40,41.53,40H388.45V12.15H12.65Z"/><path class="cls-7" d="M206.44,237.06a6.43,6.43,0,0,0-3.93-5.94,6.43,6.43,0,0,0-5,0,6.44,6.44,0,0,0-2.05,10.49,6.45,6.45,0,0,0,9.12,0,6.4,6.4,0,0,0,1.88-4.55Z"/><circle class="cls-8" cx="152.3" cy="122.56" r="45.61"/><polygon class="cls-9" points="141.91 114.74 140.25 113.09 138.6 111.43 131.98 118.03 125.36 124.63 125.37 124.64 125.38 124.65 125.37 124.66 125.36 124.67 131.98 131.27 138.6 137.87 140.25 136.22 141.91 134.56 136.96 129.61 132 124.65 136.96 119.7 141.91 114.74"/><polygon class="cls-9" points="159.32 134.56 160.97 136.22 162.63 137.87 169.25 131.27 175.87 124.67 175.86 124.66 175.85 124.65 175.86 124.64 175.87 124.63 169.25 118.03 162.63 111.43 160.97 113.09 159.32 114.74 164.27 119.7 169.23 124.65 164.27 129.61 159.32 134.56"/><polygon class="cls-9" points="149.04 141.74 146.82 141.74 144.61 141.74 147.91 124.55 151.21 107.36 153.43 107.36 155.65 107.36 152.34 124.55 149.04 141.74"/><circle class="cls-10" cx="90.57" cy="76.44" r="36.45"/><path class="cls-9" d="M109,74a1,1,0,0,0-1-1.13,14.7,14.7,0,0,0-2.07-.28,2.46,2.46,0,0,1-2.7-2,1.15,1.15,0,0,1,.18-1.26c.63-.76,1.2-1.56,1.82-2.32a1.18,1.18,0,0,0,0-1.78c-1.18-1.2-2.36-2.4-3.55-3.58a1,1,0,0,0-1.45,0c-.73.57-1.51,1.06-2.19,1.68A2.11,2.11,0,0,1,94.54,62c-.09-1-.3-1.94-.41-2.92a1,1,0,0,0-1.13-1H90.57V70.31a6.14,6.14,0,0,1,.07,12.28h-.07V94.83c.81,0,1.63,0,2.44,0a1,1,0,0,0,1.12-.89,15.85,15.85,0,0,0,.38-2.44,2.22,2.22,0,0,1,1.81-2.43,1.13,1.13,0,0,1,1.26.19c.78.65,1.61,1.24,2.39,1.89a1.15,1.15,0,0,0,1.7,0c.61-.61,1.23-1.22,1.84-1.84s1.27-1.29,1.9-1.94a.93.93,0,0,0,0-1.37,20.77,20.77,0,0,0-1.49-1.85,2,2,0,0,1-.35-2.75c.32-.55.57-.88,1.24-.93,1-.08,2.07-.29,3.11-.43A1,1,0,0,0,109,78.9Q108.95,76.47,109,74Z"/><path class="cls-9" d="M87.08,81.5A6.14,6.14,0,0,1,90.5,70.31h.07V58.05H88.14A1,1,0,0,0,87,59c-.15,1.1-.39,2.19-.48,3.29-.06.65-.39.85-.89,1.15a2,2,0,0,1-2.74-.37,19.24,19.24,0,0,0-1.79-1.42,1.09,1.09,0,0,0-1.62,0c-1.24,1.21-2.47,2.45-3.68,3.7a1,1,0,0,0,0,1.45,20.71,20.71,0,0,0,1.32,1.62,2.23,2.23,0,0,1,.4,3.15,1.16,1.16,0,0,1-1,.71c-1.14.13-2.26.34-3.39.49a1,1,0,0,0-1,1.08q0,2.48,0,5a1,1,0,0,0,1,1.11,15,15,0,0,0,2,.26A2.48,2.48,0,0,1,78,82.3a1.17,1.17,0,0,1-.18,1.26c-.62.76-1.19,1.57-1.82,2.32A1.22,1.22,0,0,0,76,87.74c.71.73,1.44,1.45,2.17,2.17l1.27,1.26a1.07,1.07,0,0,0,1.6,0c.84-.67,1.71-1.31,2.57-2a2.17,2.17,0,0,1,2.84,1.11c.19,1.16.38,2.32.52,3.49a1,1,0,0,0,1.14,1c.79,0,1.59,0,2.38,0h0V82.58A6,6,0,0,1,87.08,81.5Z"/><circle class="cls-9" cx="63.9" cy="178.69" r="31.53"/><polygon class="cls-10" points="49.59 175.79 47.19 175.79 44.78 175.79 44.78 184.63 44.78 193.47 47.19 193.47 49.59 193.47 49.59 184.63 49.59 175.79"/><polygon class="cls-10" points="64.9 163.31 62.49 163.31 60.09 163.31 60.09 178.39 60.09 193.47 62.49 193.47 64.9 193.47 64.9 178.39 64.9 163.31"/><polygon class="cls-10" points="57.25 180.5 54.84 180.5 52.43 180.5 52.43 186.99 52.43 193.47 54.84 193.47 57.25 193.47 57.25 186.99 57.25 180.5"/><polygon class="cls-10" points="80.2 167.67 77.8 167.67 75.39 167.67 75.39 180.57 75.39 193.47 77.8 193.47 80.2 193.47 80.2 180.57 80.2 167.67"/><polygon class="cls-10" points="72.55 170.99 70.14 170.99 67.74 170.99 67.74 182.23 67.74 193.47 70.14 193.47 72.55 193.47 72.55 182.23 72.55 170.99"/><circle class="cls-9" cx="246.99" cy="78.41" r="46.63"/><polygon class="cls-10" points="259.36 59.18 255.13 59.88 250.91 60.58 251.82 61.48 252.73 62.38 253.64 63.28 254.55 64.19 254.87 64.5 255.18 64.81 252.22 67.78 248.32 71.68 251.15 74.51 253.98 77.34 257.89 73.43 260.87 70.45 261.17 70.75 261.46 71.04 262.38 71.95 263.3 72.87 264.22 73.78 265.14 74.69 265.81 70.46 266.47 66.23 267.14 62 267.8 57.78 263.58 58.48 259.36 59.18"/><polygon class="cls-10" points="227.69 66.3 228.38 70.53 229.09 74.75 229.99 73.84 230.89 72.93 231.79 72.02 232.69 71.11 233.01 70.79 233.32 70.48 236.29 73.44 240.19 77.34 243.02 74.51 245.85 71.68 241.94 67.77 238.96 64.79 239.26 64.49 239.55 64.2 240.46 63.28 241.38 62.36 242.29 61.44 243.2 60.52 238.97 59.85 234.74 59.19 230.51 58.52 226.28 57.86 226.99 62.08 227.69 66.3"/><polygon class="cls-10" points="234.62 97.65 238.85 96.95 243.07 96.25 242.16 95.35 241.25 94.44 240.34 93.54 239.43 92.64 239.11 92.33 238.8 92.01 241.77 89.04 245.66 85.15 242.83 82.32 240 79.49 236.09 83.39 233.11 86.37 232.81 86.08 232.52 85.78 231.6 84.87 230.68 83.96 229.76 83.05 228.84 82.14 228.17 86.36 227.51 90.59 226.84 94.82 226.18 99.05 230.4 98.35 234.62 97.65"/><polygon class="cls-10" points="266.3 90.52 265.6 86.3 264.9 82.08 263.99 82.99 263.09 83.9 262.19 84.81 261.29 85.72 260.97 86.03 260.66 86.35 257.69 83.38 253.8 79.49 250.96 82.32 248.13 85.15 252.04 89.06 255.02 92.03 254.72 92.33 254.43 92.63 253.52 93.55 252.61 94.47 251.69 95.39 250.78 96.31 255.01 96.97 259.24 97.64 263.47 98.3 267.7 98.97 267 94.75 266.3 90.52"/><circle class="cls-4" cx="327.5" cy="104.77" r="44.84"/><path class="cls-8" d="M326.77,112.6,325.41,114l-1.36,1.36-1.37,1.36-1.36,1.36-2.95-2.94-2.94-2.94-2.95-2.94-2.94-2.94,1.36-1.37,1.36-1.36,1.37-1.36,1.36-1.36,1.58,1.58,1.58,1.58,1.59,1.58,1.58,1.58,4.29-4.29,4.29-4.28,4.3-4.29L338.49,90l1.36,1.36,1.37,1.36,1.36,1.37,1.36,1.36-4.29,4.28L335.36,104l-4.3,4.29Z"/><circle class="cls-10" cx="268.18" cy="176.37" r="37.31"/><circle class="cls-9" cx="254.63" cy="164.93" r="4.89"/><circle class="cls-9" cx="281.73" cy="187.8" r="4.89"/><rect class="cls-9" x="266.92" y="166.7" width="2.33" height="19.57" transform="translate(-40.48 264.83) rotate(-49.33)"/></g></g></svg>