<?xml version="1.0" encoding="UTF-8"?>
<svg width="440px" height="330px" viewBox="0 0 440 330" version="1.1" xmlns="http://www.w3.org/2000/svg" xmlns:xlink="http://www.w3.org/1999/xlink">
    <title>Graphic elements / Icons / Rich icons / find</title>
    <defs>
        <linearGradient x1="100.022306%" y1="50.0110448%" x2="0.0223064912%" y2="50.0110448%" id="linearGradient-1">
            <stop stop-color="#D0D2CF" offset="0%"></stop>
            <stop stop-color="#FFFFFF" offset="23%"></stop>
        </linearGradient>
        <linearGradient x1="1.30129556e-13%" y1="50.008472%" x2="99.9721306%" y2="50.008472%" id="linearGradient-2">
            <stop stop-color="#081935" offset="30%"></stop>
            <stop stop-color="#1B3459" offset="100%"></stop>
        </linearGradient>
    </defs>
    <g id="Graphic-elements-/-Icons-/-Rich-icons-/-find" stroke="none" stroke-width="1" fill="none" fill-rule="evenodd">
        <g id="Find" transform="translate(60.000000, 0.000000)" fill-rule="nonzero">
            <path d="M315.303241,300.676577 C315.115,300.379279 314.916852,300.081982 314.718704,299.784685 C314.520556,299.487387 314.302593,299.2 314.08463,298.912613 C313.866667,298.625225 313.628889,298.347748 313.391111,298.08018 C313.153333,297.812613 312.895741,297.535135 312.628241,297.277477 L309.755093,294.393694 L306.872037,291.50991 L303.988981,288.636036 L301.105926,285.752252 L282.202593,266.854054 L263.299259,247.945946 L244.395926,229.047748 L225.492593,210.14955 L225.165648,210.476577 L224.838704,210.803604 L224.511759,211.130631 L224.184815,211.457658 L221.430556,208.712613 L218.686204,205.957658 L215.981481,203.212613 L213.227222,200.467568 C240.612511,164.665493 245.303529,116.417219 225.328,76.008084 C205.352471,35.5989495 164.174515,10.0366334 119.106852,10.0684388 C111.121379,10.0644279 103.155619,10.8612052 95.3290741,12.4468468 C80.2566459,15.5248946 65.9300304,21.5168648 53.1532407,30.0864865 C46.8859034,34.2974201 41.0309536,39.0920601 35.6666667,44.4063063 L35.7756481,44.2675676 L35.8846296,44.1288288 L35.9837037,43.9801802 L36.1025926,43.8414414 C25.0203164,54.6619523 16.1706326,67.5543062 10.0560185,81.7864865 C6.94152351,89.0265357 4.56814664,96.5634956 2.97222222,104.281982 C-0.306755079,120.132777 -0.330350047,136.484849 2.90287037,152.345045 C6.00861942,167.500933 12.068394,181.896533 20.7362037,194.70991 C38.9808901,221.859664 67.6414867,240.250296 99.9192998,245.51929 C132.197113,250.788285 165.216069,242.466155 191.143611,222.527027 L193.878056,225.281982 L196.6125,228.027027 L199.346944,230.781982 L202.081389,233.527027 L201.358148,234.25045 L200.634907,234.983784 L199.901759,235.707207 L199.178519,236.430631 L220.974815,258.232432 L242.771111,280.034234 L264.567407,301.836036 L286.363704,323.637838 C287.58254,324.851924 288.962728,325.892328 290.46537,326.72973 C291.917045,327.543893 293.473934,328.154134 295.09213,328.543243 C298.295917,329.319814 301.647414,329.241217 304.811296,328.315315 L305.237315,328.176577 L305.663333,328.037838 L306.089352,327.879279 L306.51537,327.720721 C307.076454,327.491408 307.625387,327.23341 308.16,326.947748 C308.704806,326.666063 309.233974,326.355098 309.745185,326.016216 C310.266227,325.672853 310.768893,325.302373 311.251111,324.906306 C311.740969,324.507276 312.210509,324.083921 312.657963,323.637838 L312.657963,323.637838 C317.140901,319.143795 319.01038,312.666282 317.611667,306.473874 C317.180753,304.423176 316.399858,302.462063 315.303241,300.676577 L315.303241,300.676577 Z" id="Path" fill="#023852" opacity="0.3" style="mix-blend-mode: multiply;"></path>
            <path d="M221.926032,119.285586 C221.865307,68.8387586 183.614212,26.6377304 133.427363,21.6483731 C83.2405145,16.6590158 37.4331422,50.5033182 27.4464347,99.951284 C17.4597273,149.39925 46.5402609,198.375852 94.7277869,213.264613 C142.915313,228.153373 194.544561,204.114107 214.178333,157.646847 C219.310329,145.509984 221.945277,132.46336 221.926032,119.285586 Z" id="Path" fill="#0099DA"></path>
            <path d="M117.353241,31.463964 C147.530693,31.4622159 176.04651,45.2864407 194.74185,68.9813015 C213.43719,92.6761622 220.25225,123.631022 213.23713,152.989189 C212.369029,156.649981 211.287269,160.25676 209.997407,163.790991 C208.71955,167.282766 207.247658,170.700404 205.588611,174.027928 C207.895816,170.258536 209.954336,166.342388 211.751019,162.304505 C222.384031,138.134244 222.886664,110.709209 213.14646,86.1653687 C203.406256,61.6215286 184.236217,42.0075229 159.92537,31.7117117 C111.993984,11.4998689 56.6069677,31.9625615 33.3186111,78.4864865 C51.227486,49.2390941 83.0646973,31.4242243 117.353241,31.463964 Z" id="Path" fill="#009BDB" opacity="0.3" style="mix-blend-mode: multiply;"></path>
            <path d="M215.614907,192.381081 C215.614907,192.381081 214.941204,193.292793 213.752315,194.789189 C212.563426,196.285586 210.859352,198.356757 208.798611,200.645946 C206.73787,202.935135 204.340278,205.472072 201.754444,207.89009 C199.212958,210.292763 196.479312,212.483546 193.580833,214.440541 L199.24787,220.148649 L204.924815,225.846847 L210.601759,231.545045 L216.278704,237.243243 L221.707963,231.693694 L227.137222,226.144144 L232.566481,220.594595 L237.995741,215.045045 L232.398056,209.376577 L226.80037,203.708108 L221.202685,198.04955 L215.614907,192.381081 Z" id="Path" fill="url(#linearGradient-1)" style="mix-blend-mode: multiply;"></path>
            <path d="M193.035926,188.972072 L123.327407,119.285586 L53.6188889,49.5495495 C53.6188889,49.5495495 60.8314815,36.7162162 77.5155556,27.4900901 C94.1996296,18.263964 120.345278,12.6252252 158.211389,26.9945946 C196.0775,41.363964 217.328889,70.8261261 222.837407,102.190991 C228.345926,133.555856 218.111574,166.902703 193.035926,188.972072 Z" id="Path" fill="#FFFFFF" opacity="0.2"></path>
            <path d="M271.611574,248.362162 L257.592593,234.369369 L243.593426,220.366667 L229.594259,206.373874 L215.595093,192.381081 C253.79171,142.501016 246.745547,71.5336235 199.486854,30.1424753 C152.228161,-11.2486729 80.9695355,-8.86390259 36.5824609,35.5943004 C-7.80461366,80.0525034 -10.092679,151.332279 31.3517132,198.547045 C72.7961053,245.761812 143.755015,252.714041 193.570926,214.440541 L207.560185,228.433333 L221.559352,242.426126 L235.548611,256.418919 L249.53787,270.411712 L255.056296,264.901802 L260.564815,259.381982 L266.083241,253.872072 L271.611574,248.362162 Z M121.48463,213.98478 C108.986421,214.001467 96.6131575,211.497204 85.1046296,206.621622 C50.505193,191.971132 28.0261418,158.036369 28.0261418,120.454955 C28.0261418,82.8735405 50.505193,48.9387784 85.1046296,34.2882883 C108.36492,24.4705953 134.604339,24.4705953 157.86463,34.2882883 C192.464066,48.9387784 214.943117,82.8735405 214.943117,120.454955 C214.943117,158.036369 192.464066,191.971132 157.86463,206.621622 C146.356424,211.498247 133.982947,214.002554 121.48463,213.98478 Z" id="Shape" fill="#D2D7D7"></path>
            <g id="Group" opacity="0.6" style="mix-blend-mode: multiply;" transform="translate(1.981481, 35.675676)" fill="#D2D7D7">
                <path d="M134.106667,199.367568 C101.337702,199.404416 69.8995567,186.403417 46.7237394,163.23104 C23.5479221,140.058664 10.5375986,108.617794 10.5612963,75.8405405 C10.5422797,61.9669478 12.8669113,48.1898588 17.437037,35.090991 C19.6508908,28.7566615 22.3813103,22.6149803 25.6007407,16.7279279 C28.7812114,10.8950207 32.4256843,5.32751073 36.4988889,0.0792792793 C25.4379579,10.9072282 16.6058246,23.7985317 10.5018519,38.0243243 C7.38595152,45.2638512 5.01252905,52.8009559 3.41805556,60.5198198 C-3.88600977,95.4515193 4.94429997,131.815352 27.4544888,159.503533 C49.9646776,187.191714 83.755289,203.252841 119.433796,203.222565 C122.604167,203.222565 125.734907,203.093694 128.845833,202.845946 C131.956759,202.598198 135.018148,202.231532 138.049815,201.745946 C141.081481,201.26036 144.073519,200.665766 147.025926,199.962162 C149.978333,199.258559 152.891111,198.436036 155.754352,197.514414 C153.990833,197.821622 152.227315,198.099099 150.443981,198.336937 C148.660648,198.574775 146.867407,198.763063 145.064259,198.931532 C143.261111,199.1 141.438148,199.209009 139.615185,199.288288 C137.792222,199.367568 135.949444,199.367568 134.106667,199.367568 Z" id="Path"></path>
            </g>
            <path d="M315.055556,315.472072 L315.055556,315.472072 C316.819539,313.720807 318.21134,311.630893 319.147315,309.327928 C321.965618,302.401032 320.352605,294.458942 315.055556,289.181081 L293.259259,267.379279 L271.462963,245.577477 L249.666667,223.775676 L227.87037,201.973874 L221.291852,208.554054 L214.723241,215.124324 L208.144722,221.694595 L201.576111,228.264865 L223.372407,250.066667 L245.168704,271.868468 L266.965,293.67027 L288.761296,315.472072 C292.245987,318.963828 296.975955,320.925997 301.908426,320.925997 C306.840897,320.925997 311.570865,318.963828 315.055556,315.472072 L315.055556,315.472072 Z" id="Path" fill="#023852"></path>
            <path d="M315.055556,289.181081 L312.182407,286.307207 L309.299352,283.423423 L306.416296,280.53964 L303.533241,277.665766 C307.021081,281.150937 308.980828,285.879974 308.980828,290.811261 C308.980828,295.742548 307.021081,300.471586 303.533241,303.956757 C300.047258,307.44608 295.317774,309.406568 290.386111,309.406568 C285.454448,309.406568 280.724964,307.44608 277.238981,303.956757 L280.122037,306.830631 L283.005093,309.714414 L285.888148,312.598198 L288.761296,315.472072 C293.174071,319.869978 299.492708,321.770205 305.598516,320.535593 C311.704324,319.30098 316.788889,315.09499 319.147315,309.327928 C321.965618,302.401032 320.352605,294.458942 315.055556,289.181081 L315.055556,289.181081 Z" id="Path" fill="url(#linearGradient-2)"></path>
        </g>
    </g>
</svg>