<?xml version="1.0" encoding="UTF-8"?>
<svg width="440px" height="330px" viewBox="0 0 440 330" version="1.1" xmlns="http://www.w3.org/2000/svg" xmlns:xlink="http://www.w3.org/1999/xlink">
    <title>Graphic elements / Icons / Rich icons / form</title>
    <g id="Graphic-elements-/-Icons-/-Rich-icons-/-form" stroke="none" stroke-width="1" fill="none" fill-rule="evenodd">
        <g id="Fill-out-form" transform="translate(72.000000, 0.000000)" fill-rule="nonzero">
            <path d="M20.15,239.79 L20.15,197.97 L20.15,156.15 L20.15,114.33 L20.15,72.51 L19.69,72.51 L19.78,72.21 C19.78,72.11 19.78,72 19.85,71.9 C19.92,71.8 19.85,71.69 19.85,71.58 C19.85,71.47 19.85,71.36 19.85,71.25 L19.85,61.45 C19.8505624,60.924347 19.745128,60.4039772 19.54,59.92 C19.1436286,58.9767082 18.3932918,58.2263714 17.45,57.83 C16.9660228,57.624872 16.445653,57.5199978 15.92,57.5199978 L5,57.5199978 C4.47434695,57.5199978 3.95397721,57.624872 3.47,57.83 C2.52670823,58.2263714 1.77637137,58.9767082 1.38,59.92 C1.17487198,60.4039772 1.06943758,60.924347 1.07,61.45 L1.07,71.25 C1.07,71.36 1.07,71.47 1.07,71.58 C1.07,71.69 1.07,71.79 1.07,71.9 C1.07,72.01 1.07,72.11 1.14,72.21 L1.23,72.5199978 L0.99,72.5199978 L0.99,114.34 L0.99,156.17 L1,198 L1,239.83 L1,239.83 L3.06,247.83 L5.12,255.83 L7.18,263.83 L9.25,271.83 L9.25,271.83 L9.25,271.9 L9.25,271.96 L9.25,272 L9.25,272.06 C9.36657012,272.549989 9.80635475,272.894348 10.31,272.890041 C10.5450974,272.890041 10.7750907,272.821463 10.97,272.69 C11.1769044,272.541918 11.3254863,272.326121 11.39,272.08 L12.39,268.62 L13.34,265.17 L14.34,261.71 L15.34,258.26 C15.3133818,258.290909 15.2899311,258.32441 15.27,258.36 L15.21,258.46 L15.14,258.55 L15.08,258.65 L16.37,253.95 L17.66,249.25 L18.95,244.54 L20.24,239.84 L20.24,239.84 L20.15,239.79 Z" id="Path" fill="#023852" opacity="0.3" style="mix-blend-mode: multiply;"></path>
            <path d="M25,236.34 L5.79,236.34 L7.85,244.34 L9.91,252.34 L11.97,260.34 L14.03,268.34 C14.0947146,268.588735 14.2430086,268.807646 14.45,268.96 C14.7444763,269.177442 15.1272243,269.235719 15.4730713,269.115772 C15.8189184,268.995825 16.0833921,268.713078 16.18,268.36 L18.37,260.36 L20.56,252.36 L22.76,244.36 L25,236.34 Z" id="Path" fill="#C1BFB9"></path>
            <path d="M16.25,268.57 L17.25,265.12 L18.25,261.66 L19.2,258.21 L20.14,254.76 L19.93,255.09 L19.71,255.42 L19.47,255.74 C19.3922014,255.847677 19.308751,255.951156 19.22,256.05 C19.1282441,256.170349 19.0279877,256.283973 18.92,256.39 C18.8207966,256.497674 18.7138441,256.597942 18.6,256.69 C18.4855069,256.785722 18.3615292,256.869491 18.23,256.94 C18.1014532,257.01455 17.9635837,257.071715 17.82,257.11 C17.6579939,257.139447 17.4920061,257.139447 17.33,257.11 C17.1805936,257.095443 17.0331226,257.065278 16.89,257.02 L16.45,256.88 C16.2971659,256.835766 16.1390911,256.812223 15.98,256.81 C15.7453503,256.790933 15.5107149,256.846965 15.31,256.97 C15.1505123,257.084762 15.0203247,257.235506 14.93,257.41 C14.83,257.58 14.75,257.78 14.66,257.97 C14.5698016,258.168893 14.4519719,258.354054 14.31,258.52 C14.2073596,258.632444 14.0895618,258.730048 13.96,258.81 C13.8303181,258.887429 13.6929065,258.951108 13.55,259 C13.4059301,259.043875 13.2588815,259.077296 13.11,259.1 L12.65,259.1 L12.43,259.1 L12.2,259.1 L11.98,259.1 L11.77,259.1 L12.38,261.47 L12.99,263.83 L13.6,266.2 L14.21,268.56 C14.2681859,268.809021 14.4136349,269.028968 14.62,269.18 C14.8088916,269.317204 15.0365381,269.390856 15.27,269.39 C15.506243,269.399543 15.7387924,269.329074 15.93,269.19 C16.1011196,269.023534 16.2134385,268.805916 16.25,268.57 L16.25,268.57 Z" id="Path" fill="#023852"></path>
            <path d="M5.85983605,67.78 L5.85983605,58 C5.85828505,57.4774636 5.9637936,56.9601314 6.17,56.48 C6.36311464,56.0075939 6.64484808,55.5765078 7,55.21 C7.35593018,54.8487788 7.78107837,54.5630792 8.25,54.37 C8.73397721,54.164872 9.25434695,54.0594376 9.78,54.0599978 L20.78,54.0599978 C21.305653,54.0594376 21.8260228,54.164872 22.31,54.37 C23.2479491,54.774284 23.995716,55.5220509 24.4,56.46 C24.6270986,56.9427173 24.7530148,57.4668009 24.7700195,58 L24.7700195,67.8 C24.7716699,68.3257629 24.6661909,68.8463527 24.46,69.33 C24.2632004,69.7969218 23.9779641,70.2213807 23.62,70.58 C23.2587738,70.93478 22.8349587,71.2195838 22.37,71.42 C21.8860228,71.625128 21.365653,71.7305624 20.84,71.73 L9.84,71.73 C8.77403563,71.7402569 7.749407,71.3181388 7,70.5599978 C6.64337954,70.200278 6.35832816,69.7760944 6.16,69.31 C5.95723803,68.8256338 5.85516692,68.3050711 5.85983605,67.78 Z" id="Path" fill="#FFE700"></path>
            <polygon id="Path" fill="#33ADE1" points="15.38 69.05 15.36 110.88 15.33 152.71 15.31 194.53 15.29 236.36 17.7 236.36 20.11 236.36 22.51 236.36 24.92 236.36 24.94 194.54 24.96 152.71 24.98 110.89 25 69.06 22.6 69.06 20.19 69.06 17.78 69.06"></polygon>
            <polygon id="Path" fill="#0099DA" points="5.85 69.05 5.83 110.88 5.81 152.7 5.79 194.53 5.77 236.35 8.17 236.35 10.58 236.36 12.99 236.36 15.39 236.36 15.41 194.53 15.44 152.71 15.46 110.88 15.48 69.05 13.07 69.05 10.67 69.05 8.26 69.05"></polygon>
            <path d="M274.81,26.31 L207.52,26.31 L207.52,19 C207.525323,16.2852069 206.449232,13.6800724 204.52958,11.7604201 C202.609928,9.84076786 200.004793,8.76467686 197.29,8.76995569 L143.5,8.76995569 C140.784391,8.7620011 138.1777,9.83723275 136.257467,11.7574666 C134.337233,13.6777004 133.262001,16.284391 133.27,19 L133.27,26.32 L72.37,26.32 C68.3990124,26.3040513 64.585052,27.8696657 61.7705576,30.6710258 C58.9560633,33.4723858 57.372626,37.2789813 57.37,41.25 L57.37,315.07 C57.3733115,319.031268 58.9486281,322.829291 61.75,325.63 C64.5626321,328.449051 68.3878632,330.023087 72.37,330.00025 L274.81,330.00025 C276.808572,330.00025 278.787317,329.603829 280.63,328.83 C282.401338,328.073109 284.013128,326.987271 285.38,325.63 C286.741848,324.266892 287.828316,322.654166 288.58,320.88 C289.358275,319.042192 289.756275,317.065798 289.750073,315.07 L289.750073,41.24 C289.755447,39.2442835 289.35748,37.268053 288.58,35.43 C286.227583,29.9091978 280.811082,26.3217984 274.81,26.31 Z" id="Path" fill="#023852" opacity="0.3" style="mix-blend-mode: multiply;"></path>
            <path d="M282.06,321.23 L79.61,321.23 C77.6158121,321.23 75.6412958,320.835778 73.8,320.07 C72.027465,319.324277 70.414856,318.244678 69.05,316.89 C66.237769,314.133496 64.6582804,310.35787 64.6699352,306.42 L64.6699352,34.81 C64.6582804,30.8721303 66.237769,27.0965036 69.05,24.34 C71.8547669,21.5495661 75.6535999,19.9883033 79.61,19.9999347 L282.06,19.9999347 C288.032415,19.9911347 293.441038,23.526182 295.83,29 C296.608806,30.8376434 297.006829,32.8141479 297.000086,34.81 L297.000086,306.42 C297.000086,308.402388 296.603522,310.364753 295.83,312.19 C294.284176,315.753391 291.416345,318.578204 287.83,320.07 C286.000835,320.829631 284.040617,321.223713 282.06,321.23 L282.06,321.23 Z" id="Path" fill="#023852"></path>
            <polygon id="Path" fill="#023852" opacity="0.3" style="mix-blend-mode: multiply;" points="264.76 303.15 217.92 303.15 171.08 303.15 124.24 303.15 77.41 303.15 77.41 247.25 77.41 191.34 77.41 123.45 77.41 55.55 124.24 55.55 171.08 55.55 217.92 55.55 264.76 55.55 264.76 123.45 264.76 191.34 264.76 247.25"></polygon>
            <path d="M150.74,36.23 L204.54,36.23 C205.913281,36.2321294 207.273175,35.9601505 208.54,35.43 C209.751633,34.911276 210.854316,34.168237 211.79,33.24 C212.727574,32.3116735 213.477866,31.2116977 214,30 C214.538305,28.7353435 214.813886,27.3744503 214.810067,26 L214.810067,10.21 C214.815005,8.83543937 214.539379,7.47432285 214,6.21 C213.468575,5.00735542 212.711589,3.91770184 211.77,3 C210.835176,2.06818082 209.732436,1.32171084 208.52,0.8 C207.253175,0.269849503 205.893281,-0.00212944999 204.52,-1.24081347e-05 L150.72,-1.24081347e-05 C146.61112,-0.00274064493 142.900131,2.45549395 141.3,6.24 C140.763782,7.50496075 140.491552,8.86610605 140.499809,10.24 L140.499809,26 C140.492951,27.3737594 140.765125,28.7346254 141.3,30 C142.895832,33.788073 146.609512,36.2480907 150.72,36.2400199 L150.74,36.23 Z" id="Path" fill="#9DADB7"></path>
            <polygon id="Path" fill="#9DADB7" points="239.78 67.25 208.78 67.25 177.77 67.25 146.77 67.25 115.77 67.25 115.77 57.28 115.77 47.31 115.77 37.34 115.77 27.38 146.77 27.38 177.77 27.38 208.78 27.38 239.78 27.38 239.78 37.34 239.78 47.31 239.78 57.28"></polygon>
            <polygon id="Path" fill="#FFFFFF" points="273.31 294.12 226.48 294.12 179.64 294.12 132.8 294.12 85.96 294.12 85.96 238.21 85.96 182.31 85.96 114.41 85.96 46.52 132.8 46.52 179.64 46.52 226.48 46.52 273.31 46.52 273.31 114.41 273.31 182.31 273.31 238.21"></polygon>
            <polygon id="Path" fill="#9DADB7" points="218.04 65.22 197.91 65.22 177.77 65.22 157.64 65.22 137.5 65.22 137.5 59.08 137.5 52.94 137.5 46.8 137.5 40.67 157.64 40.67 177.77 40.67 197.91 40.67 218.04 40.67 218.04 46.8 218.04 52.94 218.04 59.08"></polygon>
            <polygon id="Path" fill="#9DADB7" points="109.86 249.24 131.36 249.24 152.86 249.24 174.36 249.24 195.86 249.24 195.86 247.67 195.86 246.1 195.86 244.53 195.86 242.96 174.36 242.96 152.86 242.96 131.36 242.96 109.86 242.96 109.86 244.53 109.86 246.1 109.86 247.67"></polygon>
            <polygon id="Path" fill="#9DADB7" points="109.86 264.68 120.61 264.68 131.36 264.68 142.11 264.68 152.86 264.68 152.86 263.11 152.86 261.54 152.86 259.97 152.86 258.4 142.11 258.4 131.36 258.4 120.61 258.4 109.86 258.4 109.86 259.97 109.86 261.54 109.86 263.11"></polygon>
            <polygon id="Path" fill="#CED6DB" points="171.67 158.29 140.56 158.29 109.46 158.29 109.46 127.22 109.46 96.15 140.56 96.15 171.67 96.15 171.67 127.22"></polygon>
            <polygon id="Path" fill="#CED6DB" points="244.96 158.29 213.86 158.29 182.75 158.29 182.75 127.22 182.75 96.15 213.86 96.15 244.96 96.15 244.96 127.22"></polygon>
            <polygon id="Path" fill="#CED6DB" points="171.67 229.72 140.56 229.72 109.46 229.72 109.46 198.66 109.46 167.59 140.56 167.59 171.67 167.59 171.67 198.66"></polygon>
            <polygon id="Path" fill="#CED6DB" points="244.96 229.72 213.86 229.72 182.75 229.72 182.75 198.66 182.75 167.59 213.86 167.59 244.96 167.59 244.96 198.66"></polygon>
        </g>
    </g>
</svg>