<svg width="40" height="50" viewBox="0 0 40 50" fill="none" xmlns="http://www.w3.org/2000/svg">
<path d="M12.1465 36.2V38.8667H14.7986V36.2H12.1465ZM0 0V38.88H8.07558V36.2133H2.65208V2.66667H25.334V8.10667H27.9861V0H0ZM25.334 11.3333V14H27.7341V22.6667H27.9993V11.3333H25.334ZM26.5208 25.9333C26.1246 25.9325 25.7301 25.984 25.3473 26.0867V27.58C25.7188 27.422 26.1174 27.3382 26.5208 27.3333C27.0434 27.3338 27.5571 27.4692 28.0126 27.7267V26.1933C27.5347 26.0181 27.0295 25.9301 26.5208 25.9333ZM25.1948 36.2H21.0111V38.8667H25.1948L25.8578 36.8667C25.5686 36.7255 25.3351 36.4907 25.1948 36.2V36.2ZM25.3207 32.0333V34.7933C25.4464 34.6246 25.6076 34.4859 25.7929 34.3873C25.9782 34.2887 26.1829 34.2327 26.3924 34.2231C26.6018 34.2136 26.8107 34.2508 27.0041 34.3322C27.1975 34.4135 27.3706 34.5369 27.5109 34.6936C27.6512 34.8502 27.7552 35.0361 27.8155 35.238C27.8758 35.4399 27.8908 35.6527 27.8596 35.8611C27.8283 36.0696 27.7515 36.2685 27.6346 36.4435C27.5178 36.6185 27.3638 36.7653 27.1838 36.8733L27.8468 38.8733H27.9993V32.0333H25.3207Z" fill="#0099DA"></path>
<path d="M5.41024 5.44V44.32H14.8251V41.6533H8.07558V8.12H30.7442V22.6667H33.3963V5.44H5.41024Z" fill="#0099DA"></path>
<path d="M37.4142 18.8V47.4H14.8251V47.3333H37.3479V22.66H27.7341V13.9867H14.8251V13.8H32.6604L33.4162 14.5933L37.4142 18.8Z" fill="white"></path>
<path d="M14.8251 13.8V14H27.7341V22.6667H30.7442V13.8H14.8251ZM14.8251 13.8V14H27.7341V22.6667H30.7442V13.8H14.8251ZM14.8251 13.8V14H27.7341V22.6667H30.7442V13.8H14.8251ZM14.8251 13.8V14H27.7341V22.6667H30.7442V13.8H14.8251ZM14.8251 13.8V14H27.7341V22.6667H30.7442V13.8H14.8251ZM33.3897 14.0533L30.7973 11.72L30.7177 11.6467L30.3862 11.3333H12.1465V50H39.9934V20L33.3897 14.0533ZM14.7986 14H27.7341V22.6667H37.3479V47.3333H14.8052L14.7986 14Z" fill="#0099DA"></path>
<path d="M30.9962 32.0333V30.4467C30.9966 30.0295 30.9385 29.6143 30.8238 29.2133C30.8043 29.129 30.7777 29.0465 30.7442 28.9667C30.5238 28.3265 30.1625 27.7445 29.6872 27.2643C29.212 26.7841 28.635 26.418 27.9993 26.1933C27.5256 26.0197 27.025 25.9317 26.5208 25.9333C25.9305 25.9316 25.3457 26.0471 24.8 26.2732C24.2543 26.4993 23.7583 26.8316 23.3406 27.2509C22.9229 27.6703 22.5917 28.1685 22.3661 28.7169C22.1404 29.2653 22.0247 29.8532 22.0255 30.4467V32.0333H21.0111V40.7333H32.004V32.0333H30.9962ZM25.0821 39.1133L25.1616 38.88L25.8246 36.88C25.5355 36.7389 25.302 36.5041 25.1616 36.2133C25.0786 36.0267 25.0356 35.8245 25.0356 35.62C25.0603 35.2576 25.2208 34.9182 25.4848 34.6702C25.7488 34.4223 26.0966 34.2844 26.4578 34.2844C26.8191 34.2844 27.1668 34.4223 27.4308 34.6702C27.6948 34.9182 27.8554 35.2576 27.88 35.62C27.8852 35.8723 27.8234 36.1214 27.701 36.3417C27.5787 36.5619 27.4001 36.7455 27.1838 36.8733L27.8468 38.8733L27.9264 39.1067L25.0821 39.1133ZM29.5906 32.0333H23.4245V30.4467C23.4227 30.0373 23.5016 29.6317 23.6566 29.2532C23.8116 28.8746 24.0396 28.5307 24.3275 28.2413C24.6153 27.9518 24.9574 27.7226 25.3338 27.5667C25.7103 27.4109 26.1137 27.3316 26.5208 27.3333C27.0434 27.3338 27.5571 27.4692 28.0126 27.7267C28.4938 27.9942 28.895 28.3862 29.1748 28.8621C29.4546 29.338 29.6027 29.8805 29.6038 30.4333L29.5906 32.0333Z" fill="#0099DA"></path>
</svg>