<svg width="32" height="48" viewBox="0 0 32 48" fill="none" xmlns="http://www.w3.org/2000/svg">
<path d="M0 0V40.384H8.06593V38.0544H2.34131V2.3296H29.6587V38.0544H23.9341V40.384H32V0H0Z" fill="#0099DA"></path>
<path d="M12.6521 43.6288V48L16.0032 46.3296L19.3544 48V43.6288C18.3213 44.1708 17.1711 44.454 16.0032 44.454C14.8354 44.454 13.6851 44.1708 12.6521 43.6288Z" fill="#0099DA"></path>
<path d="M16.0032 30.72C14.6908 30.72 13.4079 31.1075 12.3169 31.8334C11.226 32.5593 10.376 33.5909 9.87463 34.7978C9.37327 36.0046 9.24308 37.3323 9.50053 38.6128C9.75797 39.8932 10.3915 41.0689 11.3209 41.991C12.2502 42.913 13.4337 43.5399 14.7213 43.7923C16.009 44.0448 17.343 43.9114 18.5544 43.409C19.7658 42.9066 20.8002 42.0579 21.5265 40.9703C22.2529 39.8827 22.6386 38.6051 22.6348 37.2992C22.628 35.553 21.9265 33.8806 20.6838 32.6477C19.441 31.4148 17.7582 30.7217 16.0032 30.72ZM18.0808 38.0608L18.5696 40.9024L15.9968 39.5584L13.4239 40.9024L13.9192 38.0608L11.8416 36.0448L14.7103 35.6288L15.9968 33.0688L17.2832 35.6288L20.1584 36.0448L18.0808 38.0608Z" fill="#0099DA"></path>
<path d="M20.7309 15.1296V13.472C20.7309 12.2244 20.2328 11.0279 19.3462 10.1458C18.4596 9.2636 17.2571 8.76801 16.0032 8.76801C14.7494 8.76801 13.5469 9.2636 12.6603 10.1458C11.7737 11.0279 11.2756 12.2244 11.2756 13.472V15.1296H10.2143V24.1856H21.7922V15.1296H20.7309ZM17.5148 22.5024H14.5045L15.315 20.1728C15.016 20.0199 14.7773 19.7714 14.6373 19.4673C14.4974 19.1631 14.4643 18.821 14.5433 18.4959C14.6224 18.1707 14.809 17.8815 15.0732 17.6746C15.3374 17.4678 15.6638 17.3553 16 17.3553C16.3362 17.3553 16.6626 17.4678 16.9268 17.6746C17.191 17.8815 17.3776 18.1707 17.4567 18.4959C17.5357 18.821 17.5026 19.1631 17.3627 19.4673C17.2227 19.7714 16.984 20.0199 16.685 20.1728L17.5148 22.5024ZM19.2643 15.1296H12.755V13.472C12.755 12.6157 13.0969 11.7944 13.7054 11.1889C14.314 10.5834 15.1394 10.2432 16 10.2432C16.8606 10.2432 17.686 10.5834 18.2946 11.1889C18.9031 11.7944 19.245 12.6157 19.245 13.472L19.2643 15.1296Z" fill="#0099DA"></path>
</svg>