<?xml version="1.0" encoding="UTF-8"?>
<svg width="440px" height="330px" viewBox="0 0 440 330" version="1.1" xmlns="http://www.w3.org/2000/svg" xmlns:xlink="http://www.w3.org/1999/xlink">
    <title>Graphic elements / Icons / Rich icons / Get leads</title>
    <defs>
        <linearGradient x1="0%" y1="49.995205%" x2="100%" y2="49.995205%" id="linearGradient-1">
            <stop stop-color="#C2C9C9" offset="0%"></stop>
            <stop stop-color="#FFFFFF" offset="62%"></stop>
        </linearGradient>
        <linearGradient x1="-343.97463%" y1="55%" x2="113.319239%" y2="55%" id="linearGradient-2">
            <stop stop-color="#F4EB29" offset="0%"></stop>
            <stop stop-color="#F5E827" offset="33%"></stop>
            <stop stop-color="#F6DE21" offset="59%"></stop>
            <stop stop-color="#F9CD18" offset="83%"></stop>
            <stop stop-color="#FAC614" offset="90%"></stop>
            <stop stop-color="#A0A3A2" offset="100%"></stop>
        </linearGradient>
        <linearGradient x1="-117.364017%" y1="52%" x2="335.146444%" y2="52%" id="linearGradient-3">
            <stop stop-color="#F4EB29" offset="0%"></stop>
            <stop stop-color="#F5E827" offset="33%"></stop>
            <stop stop-color="#F6DE21" offset="59%"></stop>
            <stop stop-color="#F9CD18" offset="83%"></stop>
            <stop stop-color="#FAC614" offset="90%"></stop>
            <stop stop-color="#A0A3A2" offset="100%"></stop>
        </linearGradient>
        <linearGradient x1="-263.013699%" y1="54%" x2="230.821918%" y2="54%" id="linearGradient-4">
            <stop stop-color="#F4EB29" offset="0%"></stop>
            <stop stop-color="#F5E827" offset="33%"></stop>
            <stop stop-color="#F6DE21" offset="59%"></stop>
            <stop stop-color="#F9CD18" offset="83%"></stop>
            <stop stop-color="#FAC614" offset="90%"></stop>
            <stop stop-color="#A0A3A2" offset="100%"></stop>
        </linearGradient>
        <linearGradient x1="-135.526316%" y1="52%" x2="813.157895%" y2="52%" id="linearGradient-5">
            <stop stop-color="#F4EB29" offset="0%"></stop>
            <stop stop-color="#F5E827" offset="33%"></stop>
            <stop stop-color="#F6DE21" offset="59%"></stop>
            <stop stop-color="#F9CD18" offset="83%"></stop>
            <stop stop-color="#FAC614" offset="90%"></stop>
            <stop stop-color="#A0A3A2" offset="100%"></stop>
        </linearGradient>
    </defs>
    <g id="Graphic-elements-/-Icons-/-Rich-icons-/-Get-leads" stroke="none" stroke-width="1" fill="none" fill-rule="evenodd">
        <g id="Get-leads" transform="translate(77.000000, 0.000000)" fill-rule="nonzero">
            <path d="M118.78,273.79 C118.790263,275.440639 119.130252,277.072587 119.78,278.59 C121.375984,282.349254 124.733804,285.07119 128.741938,285.85478 C132.750072,286.63837 136.885765,285.381416 139.78,282.5 C142.674057,279.600202 143.938781,275.452306 143.154987,271.431104 C142.371194,267.409902 139.641259,264.040627 135.87,262.44 C129.60701,259.814222 122.399854,262.747158 119.75,269 C119.111848,270.516429 118.782101,272.144768 118.78,273.79 L118.78,273.79 Z" id="Path" fill="#023852" opacity="0.2" style="mix-blend-mode: multiply;"></path>
            <path d="M134.22,281.21 C135.867497,281.200563 137.496339,280.860513 139.01,280.21 C140.469208,279.586377 141.79621,278.690397 142.92,277.57 C144.038442,276.440781 144.93407,275.11091 145.56,273.65 C146.839445,270.581356 146.839445,267.128644 145.56,264.06 C144.936409,262.597817 144.040501,261.267529 142.92,260.14 C138.737866,256.052242 132.258257,255.467845 127.412209,258.74135 C122.566162,262.014855 120.689185,268.244126 122.92,273.65 C124.170465,276.603032 126.518879,278.955032 129.47,280.21 C130.971268,280.855296 132.585988,281.195238 134.22,281.21 Z" id="Path" fill="#0099DA"></path>
            <path d="M286,74.46 L0,74.46 L54.18,136.69 L108.35,198.93 L108.35,263.14 C108.35,265.4 112.23,267.45 118.5,268.94 C126.553511,270.638848 134.769911,271.44372 143,271.34 C151.230089,271.44372 159.446489,270.638848 167.5,268.94 C173.77,267.45 177.65,265.4 177.65,263.14 L177.65,198.93 L231.82,136.69 L286,74.46 Z" id="Path" fill="#F0F3F4"></path>
            <path d="M178.78,74.46 L160.89,137.23 L143,200 L143,271.35 C151.230089,271.45372 159.446489,270.648848 167.5,268.95 C173.77,267.46 177.65,265.41 177.65,263.15 L177.65,198.93 L231.82,136.69 L286,74.46 L178.78,74.46 Z" id="Path" fill="url(#linearGradient-1)" style="mix-blend-mode: multiply;"></path>
            <path d="M0,73.42 C0,78.24 16,82.61 41.88,85.77 C67.76,88.93 103.51,90.88 143,90.88 C182.49,90.88 218.24,88.93 244.12,85.77 C270,82.61 286,78.24 286,73.42 C286,68.6 270,64.23 244.12,61.07 C218.24,57.91 182.49,56 143,56 C103.51,56 67.76,58 41.88,61.12 C16,64.24 0,68.6 0,73.42 Z" id="Path" fill="#023852"></path>
            <path d="M143,77.65 C127.087755,77.5798732 111.187714,78.5418925 95.4,80.53 C81.75,82.35 70.81,84.94 64.06,87.98 C75.37,88.9 87.81,89.62 101.06,90.12 C114.31,90.62 128.4,90.88 142.99,90.88 C157.58,90.88 171.66,90.61 184.92,90.12 C198.18,89.63 210.62,88.9 221.92,87.98 C215.17,84.98 204.23,82.35 190.58,80.53 C174.798906,78.5427556 158.905574,77.580738 143,77.65 L143,77.65 Z" id="Path" fill="#8F9C9B" opacity="0.4" style="mix-blend-mode: multiply;"></path>
            <path d="M146.519972,302.31 C146.513397,305.183802 147.654546,307.94128 149.69,309.97 C152.804241,313.082177 157.492605,313.999294 161.55,312.29 C162.838628,311.759509 164.010737,310.9815 165,310 C165.985883,309.011983 166.773404,307.84428 167.32,306.56 C168.453393,303.860818 168.453393,300.819182 167.32,298.12 C166.773404,296.83572 165.985883,295.668017 165,294.68 C164.013737,293.691989 162.845596,292.904173 161.56,292.36 C158.867765,291.22656 155.832235,291.22656 153.14,292.36 C149.121031,294.054588 146.514167,297.998408 146.53,302.36 L146.519972,302.31 Z" id="Path" fill="#023852" opacity="0.2" style="mix-blend-mode: multiply;"></path>
            <path d="M160.1,308.830049 C161.546169,308.832195 162.977967,308.543114 164.31,307.98 C169.815655,305.643305 172.392015,299.291862 170.07,293.78 C169.525827,292.494404 168.738011,291.326263 167.75,290.34 C164.642995,287.215849 159.950779,286.290066 155.89,288 C151.874611,289.698898 149.269535,293.640013 149.279969,298 C149.276708,299.446277 149.565832,300.878293 150.13,302.21 C151.226004,304.809595 153.29231,306.879488 155.89,307.98 C157.221378,308.545229 158.653614,308.834398 160.1,308.830049 L160.1,308.830049 Z" id="Path" fill="#FFE700"></path>
            <path d="M133,17.23 C133.012105,18.8707553 133.352101,20.4925347 134,22 C135.268463,25.0093811 137.680768,27.3913856 140.705941,28.6217104 C143.731115,29.8520351 147.121198,29.8298362 150.13,28.56 C153.077782,27.3069819 155.420507,24.9534945 156.66,22 C157.952942,18.934071 157.952942,15.475929 156.66,12.41 C156.032339,10.9540107 155.129097,9.63310516 154,8.52 C152.877391,7.39563946 151.550255,6.49617336 150.09,5.87 C145.474786,3.90899974 140.130433,4.95885408 136.6,8.52 C135.487536,9.64203608 134.604407,10.9701254 134,12.43 C133.350252,13.9474127 133.010263,15.5793612 133,17.23 L133,17.23 Z" id="Path" fill="#023852" opacity="0.2" style="mix-blend-mode: multiply;"></path>
            <path d="M148.46,24.64 C153.427049,24.6226947 157.897881,21.6243009 159.798983,17.0354356 C161.700084,12.4465703 160.659563,7.16490148 157.16,3.64 C154.855707,1.32680233 151.725065,0.026510255 148.46,0.026510255 C145.194935,0.026510255 142.064293,1.32680233 139.76,3.64 C136.226675,7.19390489 135.184449,12.5274177 137.12,17.15 C137.750222,18.5878424 138.645863,19.8939849 139.76,21 C142.057252,23.323261 145.192783,24.6243261 148.46,24.61 L148.46,24.64 Z" id="Path" fill="#0099DA"></path>
            <path d="M109.88,317.68 C109.870439,320.947245 111.166474,324.082929 113.48,326.39 C116.377751,329.266029 120.512908,330.518249 124.519384,329.73298 C128.525861,328.94771 131.882348,326.227128 133.48,322.47 C134.772942,319.404071 134.772942,315.945929 133.48,312.88 C132.863695,311.416818 131.966818,310.088488 130.84,308.97 C128.539665,306.649379 125.407541,305.343949 122.14,305.343949 C118.872459,305.343949 115.740335,306.649379 113.44,308.97 C111.121741,311.273904 109.824851,314.411657 109.839869,317.68 L109.88,317.68 Z" id="Path" fill="#023852" opacity="0.2" style="mix-blend-mode: multiply;"></path>
            <path d="M125.31,325.090022 C131.171561,325.089216 136.220967,320.958719 137.38358,315.213614 C138.546193,309.468509 135.500059,303.699752 130.1,301.42 C125.483911,299.49336 120.161102,300.548965 116.629627,304.091408 C113.098151,307.633851 112.059056,312.959907 114,317.57 C115.913069,322.133395 120.381837,325.099426 125.33,325.090022 L125.31,325.090022 Z" id="Path" fill="#0099DA"></path>
            <path d="M92.6699962,68.41 C92.6686199,70.2819377 93.0426613,72.1351432 93.77,73.86 C95.1861481,77.2168107 97.8550945,79.8893444 101.21,81.31 C106.454789,83.5187053 112.514687,82.3328152 116.54,78.31 C120.550268,74.3082392 121.753434,68.2840112 119.587982,63.0488272 C117.422529,57.8136433 112.315363,54.3995867 106.65,54.3999744 C104.781076,54.3964127 102.930703,54.7705689 101.21,55.5 C97.8457302,56.9324761 95.1754081,59.624333 93.77,63 C93.0478842,64.7124465 92.6739485,66.5515306 92.6699962,68.41 Z" id="Path" fill="#023852" opacity="0.2" style="mix-blend-mode: multiply;"></path>
            <path d="M109.76,77.2900256 C116.439951,77.2942908 122.192437,72.5786947 123.498704,66.0277079 C124.804971,59.4767211 121.301101,52.9154073 115.130387,50.3572748 C108.959672,47.7991423 101.841235,49.9568708 98.1293714,55.5105933 C94.4175082,61.0643158 95.1463209,68.4668001 99.87,73.19 C101.149937,74.4628198 102.660047,75.4808714 104.32,76.19 C106.040703,76.9194311 107.891076,77.2935873 109.76,77.2900256 L109.76,77.2900256 Z" id="Path" fill="#0099DA"></path>
            <path d="M17.44,19.16 C17.4444708,25.3339533 21.4927436,30.7761203 27.4046691,32.5556866 C33.3165946,34.335253 39.6963243,32.03205 43.1081304,26.8864405 C46.5199366,21.7408309 46.1582671,14.9677305 42.2178947,10.214712 C38.2775224,5.46169351 31.6887976,3.85097915 26,6.25 C24.3400466,6.95912862 22.8299368,7.97718019 21.55,9.25 C18.9304149,11.8828985 17.459904,15.4459213 17.46,19.16 L17.44,19.16 Z" id="Path" fill="#023852" opacity="0.2" style="mix-blend-mode: multiply;"></path>
            <path d="M34.53,28.0000906 C42.2619865,28.0000906 48.53,21.7319865 48.53,14 C48.53,6.2680135 42.2619865,-2.55531819e-05 34.53,-2.55531819e-05 C32.661076,-0.0035873185 30.8107034,0.370568902 29.09,1.1 C24.7936122,2.91150947 21.6810413,6.74308746 20.7882326,11.3194842 C19.895424,15.895881 21.3395621,20.6164268 24.64,23.91 C25.9199368,25.1828198 27.4300466,26.2008714 29.09,26.91 C30.8114172,27.6360015 32.6617629,28.0067509 34.53,28.0000906 Z" id="Path" fill="#0099DA"></path>
            <path d="M216.999929,57.12 C216.97911,64.7806412 221.560819,71.7044631 228.62,74.68 C235.757586,77.7048832 244.017075,76.0901867 249.49,70.6 C251.226271,68.8605302 252.611472,66.8030992 253.57,64.54 C256.48305,57.4596834 254.861891,49.3226973 249.457715,43.8994493 C244.053538,38.4762013 235.922313,36.8263877 228.831779,39.7144769 C221.741244,42.602566 217.076881,49.4642288 216.999929,57.12 L216.999929,57.12 Z" id="Path" fill="#023852" opacity="0.2" style="mix-blend-mode: multiply;"></path>
            <path d="M239.73,69.760031 C242.27486,69.7645938 244.794711,69.2579032 247.14,68.27 C251.709373,66.3311419 255.345647,62.6912817 257.28,58.12 C259.266701,53.37281 259.266701,48.02719 257.28,43.28 C255.348853,38.7088913 251.711109,35.0711473 247.14,33.14 C242.406548,31.1367988 237.063452,31.1367988 232.33,33.14 C226.501392,35.6119925 222.280676,40.8168541 221.066029,47.0303915 C219.851383,53.243929 221.80136,59.6550617 226.27,64.14 C228.011752,65.8760254 230.068456,67.2641311 232.33,68.23 C234.669348,69.230314 237.185774,69.750602 239.73,69.760031 Z" id="Path" fill="#0099DA"></path>
            <polygon id="Path" fill="#4E7486" points="169.33 90.59 166.97 90.59 164.6 90.59 166.97 90.59"></polygon>
            <polygon id="Path" fill="url(#linearGradient-2)" points="169.33 90.59 166.97 90.59 164.6 90.59 166.97 90.59"></polygon>
            <polygon id="Path" fill="#4E7486" points="158.72 90.78 156.34 90.78 153.94 90.78 156.34 90.78"></polygon>
            <polygon id="Path" fill="url(#linearGradient-3)" points="158.72 90.78 156.34 90.78 153.94 90.78 156.34 90.78"></polygon>
            <polygon id="Path" fill="#4E7486" points="164.23 90.69 162.05 90.69 159.85 90.69 162.05 90.69"></polygon>
            <polygon id="Path" fill="url(#linearGradient-4)" points="164.23 90.69 162.05 90.69 159.85 90.69 162.05 90.69"></polygon>
            <polygon id="Path" fill="#4E7486" points="153.7 90.83 151.42 90.83 151.42 90.83"></polygon>
            <polygon id="Path" fill="url(#linearGradient-5)" points="153.7 90.83 151.42 90.83 151.42 90.83"></polygon>
            <path d="M153.7,90.83 L153.94,90.83 L156.34,90.83 L158.72,90.83 L159.85,90.83 L162.05,90.83 L164.23,90.83 L164.6,90.83 L166.97,90.83 L169.33,90.83 L169.68,90.83 C169.453635,89.8331237 169.086626,88.873513 168.59,87.98 C168.10728,87.1014188 167.501116,86.2965673 166.79,85.59 C163.737546,82.3838951 159.041126,81.3582857 154.93,83 C153.64572,83.546596 152.478017,84.3341166 151.49,85.32 C149.964337,86.8254995 148.92019,88.7502113 148.49,90.85 L151.37,90.85 L153.7,90.83 Z" id="Path" fill="#0E213D"></path>
            <path d="M153.7,90.83 L153.94,90.83 L156.34,90.83 L158.72,90.83 L159.85,90.83 L162.05,90.83 L164.23,90.83 L164.6,90.83 L166.97,90.83 L169.33,90.83 L169.68,90.83 C169.453635,89.8331237 169.086626,88.873513 168.59,87.98 C168.10728,87.1014188 167.501116,86.2965673 166.79,85.59 C163.737546,82.3838951 159.041126,81.3582857 154.93,83 C153.64572,83.546596 152.478017,84.3341166 151.49,85.32 C149.964337,86.8254995 148.92019,88.7502113 148.49,90.85 L151.37,90.85 L153.7,90.83 Z" id="Path" fill="#FFE700"></path>
        </g>
    </g>
</svg>