<?xml version="1.0" encoding="UTF-8"?>
<svg width="440px" height="330px" viewBox="0 0 440 330" version="1.1" xmlns="http://www.w3.org/2000/svg" xmlns:xlink="http://www.w3.org/1999/xlink">
    <title>Graphic elements / Icons / Rich icons / global-partner-network</title>
    <defs>
        <circle id="path-1" cx="90.4048048" cy="65.6168168" r="47.963964"></circle>
        <circle id="path-3" cx="351.550751" cy="80.9573574" r="47.963964"></circle>
        <circle id="path-5" cx="351.550751" cy="80.9573574" r="47.963964"></circle>
        <circle id="path-7" cx="213.300901" cy="222.100901" r="47.963964"></circle>
    </defs>
    <g id="Graphic-elements-/-Icons-/-Rich-icons-/-global-partner-network" stroke="none" stroke-width="1" fill="none" fill-rule="evenodd">
        <g id="Group" transform="translate(0.000000, 30.000000)">
            <path d="M0.806006006,89.9027027 L12.1429429,82.9261261 L78.1165165,82.9261261 L83.4018018,90.7219219 L76.1081081,99.3369369 L84.5645646,109.59039 L97.9099099,109.59039 L97.9099099,94.4084084 L105.203604,101.384985 L114.954955,101.384985 L118.178979,110.40961 L85.8066066,141.183183 L68.3915916,141.183183 L68.3915916,152.691892 L77.2972973,152.691892 L88.2246246,165.006607 L104.82042,165.006607 L117.372973,179.369369 L127.481081,179.369369 L127.481081,195.370571 L94.3027027,229.394595 L94.3027027,253.601201 L81.7501502,242.541742 L81.7501502,207.658859 L71.1795796,196.176577 L71.1795796,177.678078 L78.8696697,168.64024 L71.9855856,160.857658 L62.3267267,160.857658 L34.3543544,130.110511 L34.3543544,111.228829 L20.639039,96.0468468 L9.71171171,96.0468468 L-1.07789333e-11,102.613814 C-1.07789333e-11,102.613814 0.806006006,88.6606607 0.806006006,89.9027027 Z" id="Path" fill="#E9EEF1" fill-rule="nonzero"></path>
            <polygon id="Path" fill="#E9EEF1" fill-rule="nonzero" points="69.1315315 70.0432432 75.3285285 78.1297297 58.2042042 78.1297297 52.5885886 70.0432432"></polygon>
            <path d="M122.275075,76.3459459 L131.722523,67.360961 L158.558559,67.360961 L164.768769,72.1441441 L164.768769,85.9123123 L142.306306,107.463063 L134.034835,99.0858859 L134.034835,89.5063063 C134.034835,89.5063063 121.561562,75.5927928 122.275075,76.3459459 Z" id="Path" fill="#E9EEF1" fill-rule="nonzero"></path>
            <path d="M217.938739,122.737538 L209.667267,122.737538 L204.381982,128.419219 L204.381982,135.303303 L209.403003,140.0997 L217.965165,131.418619 L224.452853,131.418619 L231.059459,138.144144 L242.726727,138.144144 L246.690691,134.18018 L254.288288,134.18018 L264.145345,144.169369 L255.332132,153.114715 L236.239039,153.114715 L230.412012,147.208408 L214.054054,147.208408 L198.515315,162.958559 L198.515315,177.796997 L212.732733,192.12012 L230.385586,192.12012 L230.385586,211.93994 L238.313514,220.026426 L238.313514,238.881682 L244.92012,245.62042 L253.046246,245.62042 L266.259459,232.222222 L266.259459,202.902102 L281.943544,187.046246 L258.978979,163.738138 L263.405405,159.245646 L280.582583,176.607808 L291.219219,165.839039 L279.261261,153.709309 L283.978378,148.926126 L290.584985,155.664865 L298.512913,155.664865 L310.18018,167.477477 L327.357357,150.128529 L345.076276,168.085285 L351.418619,168.085285 L351.418619,158.36036 L362.174174,147.406607 L362.174174,139.769369 L373.246847,139.769369 L390.067267,122.711111 L390.067267,109.26006 L403.35976,109.26006 L412.212613,100.288288 L412.212613,90.4048048 L390.952553,90.4048048 L385.495495,84.8684685 L357.298498,84.8684685 L348.657057,76.1213213 L321.56997,76.1213213 L313.153153,84.6042042 L297.944745,84.6042042 L289.039039,93.642042 L262.810811,93.642042 L253.984384,84.6966967 L239.44985,84.6966967 L229.249249,95.0294294 L229.249249,104.780781 L241.881081,91.9771772 L246.690691,96.8396396 L239.013814,104.622222 L239.013814,110.766366 L223.541141,110.766366 L218.084084,116.302703 C218.084084,116.302703 217.938739,123.926727 217.938739,122.737538 Z" id="Path" fill="#E9EEF1" fill-rule="nonzero"></path>
            <polygon id="Path" fill="#E9EEF1" fill-rule="nonzero" points="372.493694 216.868468 383.064264 206.297898 401.417417 206.297898 415.093093 219.973574 415.093093 238.868468 400.36036 238.868468 392.181381 230.64985 372.493694 230.64985"></polygon>
            <path d="M387.147147,197.009009 L400.043243,197.009009 L406.834835,190.217417 L393.396997,190.217417 C393.396997,190.217417 386.777177,196.652252 387.147147,197.009009 Z" id="Path" fill="#E9EEF1" fill-rule="nonzero"></path>
            <polygon id="Path" fill="#E9EEF1" fill-rule="nonzero" points="397.374174 125.274474 383.183183 139.478679 393.278078 139.478679 407.574775 125.181982"></polygon>
            <path d="M371.753754,173.833033 L383.183183,173.833033 L372.612613,184.46967 L362.200601,184.46967 C362.200601,184.46967 371.938739,173.991592 371.753754,173.833033 Z" id="Path" fill="#E9EEF1" fill-rule="nonzero"></path>
            <polygon id="Path" fill="#E9EEF1" fill-rule="nonzero" points="358.448048 168.389189 353.638438 173.185586 358.263063 177.81021 363.244444 172.815616"></polygon>
            <polygon id="Path" fill="#E9EEF1" fill-rule="nonzero" points="373.59039 188.83003 368.793994 193.63964 373.418619 198.264264 378.4 193.26967"></polygon>
            <path d="M348.828829,177.136336 L338.258258,177.136336 L353.228829,192.106907 L363.799399,192.106907 C363.799399,192.106907 348.70991,177.136336 348.828829,177.136336 Z" id="Path" fill="#E9EEF1" fill-rule="nonzero"></path>
            <path d="M430.024024,231.469069 L420.655856,240.837237 L431.226426,240.837237 L440,231.839039 C440,231.839039 430.393994,231.469069 430.024024,231.469069 Z" id="Path" fill="#E9EEF1" fill-rule="nonzero"></path>
            <path d="M284.52012,206.958559 L276.024024,215.573574 L276.024024,228.139339 L284.52012,219.643243 C284.52012,219.643243 284.401201,206.958559 284.52012,206.958559 Z" id="Path" fill="#E9EEF1" fill-rule="nonzero"></path>
            <path d="M75.4606607,68.7219219 C75.0906907,68.7219219 81.433033,62.7495495 81.433033,62.7495495 L87.7753754,69.0918919 L82.172973,74.7339339 C82.172973,74.7339339 75.5795796,68.7219219 75.4606607,68.7219219 Z" id="Path" fill="#E9EEF1" fill-rule="nonzero"></path>
            <path d="M92.215015,78.209009 L103.063063,78.209009 L118.271471,93.4306306 L107.027027,93.4306306 C107.027027,93.4306306 92.3339339,78.0900901 92.215015,78.209009 Z" id="Path" fill="#E9EEF1" fill-rule="nonzero"></path>
            <path d="M171.547147,94.7123123 L164.464865,101.807808 L170.45045,107.833033 L177.228829,101.067868 C177.228829,101.067868 171.428228,94.7123123 171.547147,94.7123123 Z" id="Path" fill="#E9EEF1" fill-rule="nonzero"></path>
            <path d="M205.187988,100.142943 C205.571171,100.142943 211.279279,106.234234 211.279279,106.234234 L211.279279,117.386186 L205.333333,111.44024 C205.333333,111.44024 204.936937,100.142943 205.187988,100.142943 Z" id="Path" fill="#E9EEF1" fill-rule="nonzero"></path>
            <use id="Oval" fill="#3DB3E3" fill-rule="nonzero" xlink:href="#path-1"></use>
            <path d="M95.9543544,54.4648649 L100.948949,55.9843844 L142.953754,75.8834835 C143.612614,76.2025895 144.054503,76.845337 144.116517,77.5747748 L147.512312,115.694895 L95.9807808,115.694895 L95.9543544,54.4648649 Z" id="Path" fill="#023852" fill-rule="nonzero" mask="url(#mask-2)"></path>
            <polygon id="Path" fill="#FFFFFF" fill-rule="nonzero" mask="url(#mask-2)" points="92.7171171 52.0600601 108.335135 59.4990991 112.603003 115.747748 74.5885886 115.747748 78.4336336 59.9351351"></polygon>
            <path d="M83.7585586,54.4648649 L78.7507508,55.9843844 L36.7591592,75.8834835 C36.0987123,76.2032024 35.6529266,76.8443324 35.5831832,77.5747748 L32.1873874,115.694895 L83.7189189,115.694895 L83.7585586,54.4648649 Z" id="Path" fill="#023852" fill-rule="nonzero" mask="url(#mask-2)"></path>
            <polygon id="Path" fill="#FFFFFF" fill-rule="nonzero" mask="url(#mask-2)" points="86.9957958 52.0600601 71.3645646 59.4990991 67.0966967 115.747748 86.9957958 115.747748"></polygon>
            <path d="M75.421021,76.7555556 L78.5657658,75.1435435 L81.7105105,73.5183183 L84.8684685,71.9063063 L88.0132132,70.2810811 L89.5195195,70.2810811 L92.5981982,71.9723724 L95.6768769,73.6636637 L98.7687688,75.354955 L101.847447,77.0594595 L101.847447,77.0594595 L101.741742,77.0594595 L98.5573574,76.0552553 L95.3465465,74.8660661 L92.1357357,73.6768769 L88.9117117,72.4876877 L88.9117117,72.4876877 L85.5687688,73.5975976 L82.172973,74.7339339 L78.83003,75.8570571 L75.4870871,76.966967 C75.4870871,76.966967 75.4870871,76.966967 75.421021,76.966967 C75.421021,76.966967 75.421021,76.966967 75.421021,76.9009009 C75.421021,76.8348348 75.3945946,76.7687688 75.421021,76.7555556 Z" id="Path" fill="#B2E0F3" fill-rule="nonzero" mask="url(#mask-2)"></path>
            <path d="M32.227027,115.694895 L34.8696697,85.8726727 C34.9196601,85.4257893 35.2797135,85.0772269 35.7279828,85.0417524 C36.176252,85.0062778 36.5866486,85.2938694 36.7063063,85.7273273 L44.6342342,115.694895 L32.227027,115.694895 Z" id="Path" fill="#003A5D" fill-rule="nonzero" opacity="0.6" style="mix-blend-mode: multiply;" mask="url(#mask-2)"></path>
            <polygon id="Path" fill="#B2E0F3" fill-rule="nonzero" mask="url(#mask-2)" points="67.1231231 115.747748 70.6378378 68.2066066 70.9813814 115.747748"></polygon>
            <polygon id="Path" fill="#19A1DB" fill-rule="nonzero" mask="url(#mask-2)" points="102.944144 63.7009009 88.8456456 69.0522523 74.6678679 63.7009009 74.6678679 52.0600601 102.944144 50.0912913"></polygon>
            <path d="M147.485886,115.694895 L144.843243,85.8726727 C144.811241,85.416184 144.450238,85.0517163 143.994076,85.0153555 C143.537913,84.9789948 143.123732,85.2816724 143.01982,85.7273273 L135.091892,115.694895 L147.485886,115.694895 Z" id="Path" fill="#003A5D" fill-rule="nonzero" opacity="0.6" style="mix-blend-mode: multiply;" mask="url(#mask-2)"></path>
            <path d="M71.0474474,28.0648649 L70.6246246,27.8666667 L70.2018018,27.6816817 L69.778979,27.4834835 L69.3561562,27.2984985 L69.1975976,27.2324324 L69.0258258,27.2324324 L68.418018,27.2324324 L68.2858859,27.2324324 L68.1537538,27.2324324 C67.987144,27.2570661 67.8261461,27.310732 67.6780781,27.390991 C67.5389489,27.4714988 67.4175856,27.5793773 67.3213213,27.7081081 C67.2198891,27.8381605 67.1437018,27.9860535 67.0966967,28.1441441 C67.0646046,28.3099731 67.0646046,28.4804173 67.0966967,28.6462462 L67.3873874,30.6018018 L67.6384384,32.5309309 L67.8894895,34.4600601 L68.0744745,36.4156156 C68.0683142,36.4947752 68.0683142,36.5742938 68.0744745,36.6534535 C68.1016857,36.7318482 68.1371183,36.8071425 68.1801802,36.8780781 C68.2176502,36.9515334 68.2667296,37.01846 68.3255255,37.0762763 C68.3759915,37.1399443 68.4336293,37.197582 68.4972973,37.248048 L69.0522523,37.6840841 L69.6072072,38.1069069 L70.1621622,38.5297297 L70.7171171,38.9657658 L70.9285285,39.0846847 L71.1663664,39.1771772 C71.2451453,39.189774 71.3254253,39.189774 71.4042042,39.1771772 L72.0780781,39.1771772 C72.4221504,39.1486826 72.7339986,38.9635227 72.9237237,38.6750751 C73.0254501,38.5470753 73.0976409,38.3981817 73.1351351,38.239039 C73.1689552,38.068932 73.1689552,37.8938308 73.1351351,37.7237237 L72.7651652,35.5567568 L72.4084084,33.3897898 L72.1309309,31.1303303 L71.760961,28.9633634 C71.7487319,28.8631423 71.7220274,28.7652256 71.6816817,28.6726727 C71.6416906,28.5774795 71.5882977,28.4884915 71.5231231,28.4084084 C71.4705169,28.3425858 71.4131022,28.2807546 71.3513514,28.2234234 C71.255502,28.1607202 71.1537093,28.1076109 71.0474474,28.0648649 Z" id="Path" fill="#19A1DB" fill-rule="nonzero" mask="url(#mask-2)"></path>
            <path d="M106.392793,28.0648649 L106.815616,27.8666667 L107.238438,27.6816817 L107.661261,27.4834835 L108.084084,27.2984985 L108.255856,27.2324324 L108.427628,27.2324324 L109.035435,27.2324324 L109.167568,27.2324324 L109.286486,27.2324324 C109.453712,27.2544407 109.615177,27.3082625 109.762162,27.390991 C109.902754,27.474704 110.027902,27.5819732 110.132132,27.7081081 C110.22888,27.8391779 110.300556,27.9870088 110.343544,28.1441441 C110.370212,28.3104492 110.370212,28.4799412 110.343544,28.6462462 L110.092492,30.5753754 L109.828228,32.5045045 L109.66967,34.4600601 L109.365766,36.4156156 C109.378143,36.4944118 109.378143,36.5746572 109.365766,36.6534535 C109.344189,36.734026 109.308391,36.8100959 109.26006,36.8780781 C109.227009,36.9508465 109.182387,37.0177797 109.127928,37.0762763 C109.072837,37.1402262 109.010793,37.1978388 108.942943,37.248048 L108.387988,37.6840841 L107.833033,38.1069069 L107.278078,38.5297297 L106.723123,38.9657658 C106.657267,39.0131006 106.586363,39.0529841 106.511712,39.0846847 L106.287087,39.1771772 C106.203972,39.1909772 106.119151,39.1909772 106.036036,39.1771772 L105.309309,39.1771772 C105.141284,39.158732 104.979121,39.1046778 104.833634,39.0186186 C104.686376,38.9329351 104.560005,38.8155908 104.463664,38.6750751 C104.366916,38.5440053 104.29524,38.3961743 104.252252,38.239039 C104.21279,38.0695337 104.21279,37.893229 104.252252,37.7237237 L104.609009,35.5567568 L104.965766,33.3897898 L105.322523,31.1303303 L105.705706,29.003003 C105.716385,28.9008114 105.747862,28.8018857 105.798198,28.7123123 C105.874,28.521879 105.996722,28.353704 106.154955,28.2234234 C106.229762,28.1641522 106.309309,28.1111213 106.392793,28.0648649 L106.392793,28.0648649 Z" id="Path" fill="#19A1DB" fill-rule="nonzero" mask="url(#mask-2)"></path>
            <path d="M105.705706,28.9897898 C105.717938,28.8853072 105.744619,28.7830292 105.784985,28.6858859 C105.832948,28.594955 105.885881,28.5067334 105.943544,28.4216216 C106.007256,28.3447023 106.078036,28.2739224 106.154955,28.2102102 C106.235038,28.1450356 106.324026,28.0916428 106.419219,28.0516517 L106.842042,27.8534535 L107.264865,27.6552553 L107.687688,27.4702703 L108.110511,27.2720721 L108.282282,27.2720721 C108.334466,27.2601783 108.388657,27.2601783 108.440841,27.2720721 L108.797598,27.2720721 L108.92973,27.2720721 L109.180781,27.2720721 L109.312913,27.2720721 C109.482216,27.2844149 109.64574,27.338923 109.788589,27.4306306 C109.930684,27.5069626 110.05288,27.6155811 110.145345,27.7477477 C110.246778,27.8778002 110.322965,28.0256932 110.36997,28.1837838 C110.403078,28.3450652 110.403078,28.5113913 110.36997,28.6726727 L110.36997,29.1615616 L110.36997,29.6504505 L110.303904,30.1393393 L110.303904,30.6282282 C110.337724,30.4581212 110.337724,30.28302 110.303904,30.1129129 C110.255921,29.9511622 110.17989,29.7991006 110.079279,29.6636637 C109.975417,29.5335246 109.850338,29.4218464 109.709309,29.3333333 C109.556532,29.2531039 109.391204,29.1994842 109.22042,29.1747748 L109.088288,29.1747748 L108.942943,29.1747748 L108.321922,29.1747748 C108.264909,29.1672996 108.207163,29.1672996 108.15015,29.1747748 L107.978378,29.2408408 L107.542342,29.439039 L107.106306,29.6372372 L106.67027,29.8354354 L106.234234,30.0336336 L106.049249,30.1393393 L105.890691,30.2714715 C105.839913,30.3133416 105.795414,30.3622901 105.758559,30.4168168 L105.63964,30.5885886 L105.63964,30.2054054 L105.63964,29.809009 L105.705706,29.4258258 L105.705706,28.9897898 Z" id="Path" fill="#33ACDF" fill-rule="nonzero" mask="url(#mask-2)"></path>
            <path d="M68.1537538,27.2456456 L68.2858859,27.2456456 L68.5369369,27.2456456 L68.6690691,27.2456456 L69.0126126,27.2456456 C69.069077,27.2321697 69.12792,27.2321697 69.1843844,27.2456456 L69.3561562,27.2456456 L69.778979,27.4438438 L70.2018018,27.6288288 L70.6246246,27.827027 L71.0474474,28.0252252 C71.1426406,28.0652164 71.2316286,28.1186092 71.3117117,28.1837838 C71.3886311,28.247496 71.4594109,28.3182758 71.5231231,28.3951952 C71.5807852,28.480307 71.6337182,28.5685285 71.6816817,28.6594595 C71.7220476,28.7566028 71.7487289,28.8588808 71.760961,28.9633634 L71.8402402,29.3861862 L71.9063063,29.809009 L71.9063063,30.245045 L71.9855856,30.6678679 C71.9584118,30.5767653 71.9230316,30.488315 71.8798799,30.4036036 C71.8397595,30.3125251 71.7863226,30.2279168 71.7213213,30.1525526 C71.6620488,30.0800253 71.5956503,30.0136269 71.5231231,29.9543544 C71.4694411,29.9018322 71.4120344,29.8532572 71.3513514,29.809009 L70.9153153,29.6108108 L70.4792793,29.4126126 L70.03003,29.2408408 L69.593994,29.0426426 L69.4222222,28.9765766 C69.3657579,28.9631006 69.3069148,28.9631006 69.2504505,28.9765766 L68.8936937,28.9765766 L68.7615616,28.9765766 L68.4840841,28.9765766 L68.351952,28.9765766 C68.2129231,28.987877 68.0778459,29.0284001 67.9555556,29.0954955 C67.8331155,29.1560698 67.721507,29.236428 67.6252252,29.3333333 C67.520281,29.4255355 67.4349113,29.5378641 67.3741742,29.6636637 C67.3152607,29.7845935 67.2751588,29.9138105 67.2552553,30.0468468 L67.2552553,29.6900901 L67.2552553,29.3333333 L67.2552553,28.9765766 L67.2552553,28.6198198 C67.2221474,28.4585384 67.2221474,28.2922123 67.2552553,28.1309309 C67.2978889,27.9711182 67.3745076,27.8223877 67.4798799,27.6948949 C67.5723449,27.5627282 67.6945407,27.4541097 67.8366366,27.3777778 C67.9340884,27.3160767 68.0413225,27.2713958 68.1537538,27.2456456 L68.1537538,27.2456456 Z" id="Path" fill="#33ACDF" fill-rule="nonzero" mask="url(#mask-2)"></path>
            <path d="M90.9333333,76.3855856 L91.1711712,76.3855856 C91.7178019,76.3868198 92.2271759,76.1086946 92.521688,75.6481848 C92.8162001,75.1876749 92.8550247,74.608617 92.6246246,74.1129129 L91.3033033,71.1927928 C91.0405619,70.6274983 90.4732189,70.2664618 89.8498498,70.2678638 L88.6342342,70.2678638 C88.0108652,70.2664618 87.4435222,70.6274983 87.1807808,71.1927928 L85.8594595,74.1129129 C85.6355444,74.5919242 85.6629449,75.150662 85.9326542,75.6054659 C86.2023635,76.0602698 86.679493,76.352308 87.2072072,76.3855856 L87.563964,76.3855856 L81.5255255,99.403003 L81.5255255,115.866667 L96.9321321,115.866667 L96.9321321,99.403003 L90.9333333,76.3855856 Z" id="Path" fill="#FFE700" fill-rule="nonzero" mask="url(#mask-2)"></path>
            <path d="M73.624024,13.2396396 L77.2972973,11.7993994 L80.9705706,10.3723724 L84.6438438,8.94534535 L88.3303303,7.50510511 L88.3303303,7.50510511 L88.3303303,7.50510511 L88.3303303,7.50510511 L88.5285285,7.50510511 L88.5285285,7.50510511 L88.5285285,7.50510511 L88.5285285,7.50510511 L92.2018018,8.94534535 L95.8882883,10.3723724 L99.5615616,11.7993994 L103.234835,13.2396396 C103.369893,13.3822983 103.485416,13.5422539 103.578378,13.7153153 C103.914948,14.3278355 104.185149,14.9745449 104.384384,15.6444444 C104.732463,16.9895281 104.979795,18.3586866 105.124324,19.7405405 C105.360564,22.0539587 105.470837,24.3785112 105.454655,26.7039039 L105.454655,45.0306306 L103.618018,49.4306306 L101.741742,53.8306306 L99.9051051,58.2306306 L98.0684685,62.6306306 L96.1657658,63.212012 L94.2630631,63.7801802 L92.3603604,64.3615616 L90.4576577,64.9297297 L86.4276276,64.9297297 L84.5645646,64.3615616 L82.6618619,63.7801802 L80.7591592,63.212012 L78.8564565,62.6306306 L77.0198198,58.2306306 L75.1831832,53.8306306 L73.3465465,49.4306306 L71.4966967,45.0306306 L71.4966967,26.7039039 C71.4839051,24.3782495 71.5985916,22.0536419 71.8402402,19.7405405 C71.9782058,18.3577598 72.2256282,16.9880999 72.5801802,15.6444444 C72.7521591,14.9751943 73.0004324,14.3279101 73.3201201,13.7153153 C73.3951285,13.5414171 73.4977534,13.3807869 73.624024,13.2396396 Z" id="Path" fill="#19A1DB" fill-rule="nonzero"></path>
            <path d="M78.6186186,13.1075075 L78.83003,13.9003003 L79.0414414,14.6930931 L79.2660661,15.4858859 L79.4774775,16.2654655 L84.3531532,18.5777778 L89.242042,20.8768769 L94.1309309,23.2024024 L97.5531532,24.8144144 C98.459808,25.2423341 99.0294139,26.16406 99.0066066,27.1663664 L99.0066066,27.1663664 L99.0066066,42.4804805 L97.4342342,45.5195195 L95.8618619,48.5453453 L94.2762763,51.5843844 L92.7039039,54.6234234 L93.5495495,55.6804805 L94.3951952,56.7375375 L95.2540541,57.8078078 L96.0996997,58.8648649 L98.227027,55.4690691 L100.42042,52.0732733 L102.547748,48.6774775 L104.675075,45.2684685 L104.384384,39.1507508 L104.199399,33.0198198 L104.014414,26.8888889 L103.829429,20.757958 L102.851652,17.3357357 L101.926727,13.9531532 L100.948949,10.5309309 L99.9843844,7.0954955 L94.6990991,8.61501502 L89.4138138,10.1345345 L84.0624625,11.6540541 L78.6186186,13.1075075 Z" id="Path" fill="#0097D7" fill-rule="nonzero" style="mix-blend-mode: multiply;"></path>
            <path d="M70.2414414,9.48708709 L72.0912913,7.66366366 L73.993994,5.84024024 L75.8438438,4.01681682 L77.6936937,2.19339339 L77.7597598,2.19339339 L77.839039,2.19339339 L77.9183183,2.19339339 L77.957958,2.06126126 L79.4642643,1.57237237 L80.9705706,1.08348348 L82.4768769,0.594594595 L83.9831832,0.0924924925 L90.1801802,0.0924924925 L93.0738739,1.22882883 L95.9807808,2.35195195 L98.8744745,3.47507508 L101.781381,4.5981982 L101.860661,4.5981982 L101.860661,4.5981982 C101.882327,4.59260387 101.90506,4.59260387 101.926727,4.5981982 L101.926727,4.5981982 L103.089489,5.82702703 L104.265465,7.05585586 L105.441441,8.28468468 L106.604204,9.51351351 L106.683483,9.60600601 C106.686004,9.64119618 106.686004,9.67652153 106.683483,9.71171171 L106.683483,9.81741742 C106.690876,9.86115128 106.690876,9.90581569 106.683483,9.94954955 L106.908108,11.7465465 L107.145946,13.5435435 L107.383784,15.3405405 L107.608408,17.1375375 L107.608408,17.2960961 L107.383784,19.8198198 L107.159159,22.3435435 L106.921321,24.8672673 L106.696697,27.390991 C106.703073,27.4657301 106.703073,27.5408765 106.696697,27.6156156 C106.669401,27.6814871 106.633884,27.743642 106.590991,27.8006006 L106.419219,27.9591592 C106.361499,28.0053939 106.293532,28.0371117 106.221021,28.0516517 L106.075676,28.0516517 C106.002118,28.070559 105.934157,28.1068048 105.877477,28.1573574 C105.816455,28.1905533 105.762575,28.2354533 105.718919,28.2894895 C105.674665,28.3480596 105.634911,28.4098982 105.6,28.4744745 C105.593992,28.5448169 105.593992,28.6155435 105.6,28.6858859 L105.520721,29.2540541 L105.520721,29.809009 L105.441441,30.3771772 L105.441441,31.1303303 L103.987988,31.1303303 L103.987988,25.6864865 L103.736937,23.8234234 L103.472673,21.9735736 L103.208408,20.1105105 L102.944144,18.2606607 C102.950367,18.212412 102.950367,18.163564 102.944144,18.1153153 C102.949119,18.0758317 102.949119,18.03588 102.944144,17.9963964 L102.772372,17.9171171 L102.67988,17.8114114 L101.556757,16.8468468 L100.42042,15.8294294 L99.2972973,14.8648649 L98.2006006,13.9531532 C98.1025236,13.8676623 97.9842959,13.8085485 97.8570571,13.7813814 C97.7359635,13.7482164 97.6081807,13.7482164 97.4870871,13.7813814 C97.367955,13.8164392 97.2591268,13.8799223 97.16997,13.9663664 C97.0700273,14.0545672 96.9967899,14.1690006 96.9585586,14.2966967 L96.9585586,14.4816817 L96.9585586,14.6534535 L96.9585586,14.8384384 L96.9585586,15.0234234 C96.9357996,15.0888012 96.9047129,15.1509746 96.8660661,15.2084084 C96.7427396,15.2812782 96.5964394,15.304875 96.4564565,15.2744745 C96.4081706,15.3257195 96.3496466,15.366236 96.2846847,15.3933934 L96.0732733,15.4594595 L92.7435435,16.0012012 L89.4402402,16.5957958 L86.1105105,17.1375375 L82.7675676,17.6792793 L82.6486486,17.6792793 L82.5297297,17.6792793 L82.424024,17.7585586 L82.3315315,17.8378378 L81.2216216,19.0402402 L80.1117117,20.2294294 L79.0018018,21.4318318 L77.8918919,22.621021 L78.1429429,21.2336336 L78.3807808,19.9123123 L78.6318318,18.5249249 L78.8696697,17.1375375 C78.8828603,17.0455153 78.8828603,16.9520823 78.8696697,16.8600601 C78.8528045,16.7718733 78.8215571,16.6870588 78.7771772,16.609009 C78.7315309,16.5298495 78.6735445,16.4584816 78.6054054,16.3975976 C78.530884,16.3454868 78.4511823,16.3012081 78.3675676,16.2654655 L77.957958,16.1465465 L77.5087087,15.987988 L77.0594595,15.8294294 L76.6366366,15.6708709 L76.3327327,15.6708709 C76.2325117,15.6830999 76.1345949,15.7098045 76.042042,15.7501502 C75.9493183,15.7922497 75.8678326,15.8556274 75.8042042,15.9351351 C75.7333896,16.0111184 75.6793652,16.1011591 75.6456456,16.1993994 L75.1039039,17.784985 L74.5753754,19.3837838 L73.993994,20.9297297 L73.4522523,22.5153153 L73.4522523,22.6474474 L73.1087087,24.8276276 L72.6726727,27.0078078 L72.3291291,29.187988 L71.9855856,31.3813814 L71.3513514,31.3813814 L71.2456456,30.6546547 L71.1399399,29.9279279 L71.021021,29.2144144 L70.9021021,28.4876877 C70.9156873,28.4401916 70.9156873,28.3898384 70.9021021,28.3423423 C70.8881932,28.2906011 70.8658736,28.241498 70.836036,28.196997 L70.7435435,28.0780781 L70.6246246,27.9723724 L70.5585586,27.9723724 L70.5585586,27.9723724 L70.5585586,27.9723724 L70.4924925,27.9723724 L70.3471471,27.8534535 C70.3114771,27.803576 70.2805135,27.7504955 70.2546547,27.6948949 C70.2471795,27.6378816 70.2471795,27.5801364 70.2546547,27.5231231 C70.148436,27.4270908 70.0707191,27.3036581 70.03003,27.1663664 L70.03003,9.98918919 C70.03003,9.98918919 70.03003,9.88348348 70.03003,9.83063063 C70.0245747,9.78233575 70.0245747,9.73358017 70.03003,9.68528529 C70.0253312,9.64136657 70.0253312,9.59707187 70.03003,9.55315315 L70.2414414,9.48708709 Z" id="Path" fill="#023852" fill-rule="nonzero"></path>
            <path d="M84.2738739,1.17328369e-12 L90.0876877,1.17328369e-12 L90.0876877,1.17328369e-12 L90.166967,1.17328369e-12 L93.0606607,1.13633634 L95.9543544,2.25945946 L98.8612613,3.38258258 L101.754955,4.50570571 L101.834234,4.50570571 L101.913514,4.50570571 L101.913514,4.50570571 L101.913514,4.50570571 L103.076276,5.73453453 L104.252252,6.96336336 L105.415015,8.19219219 L106.590991,9.42102102 L106.67027,9.51351351 L106.67027,9.61921922 C106.863859,9.63829955 107.014997,9.79503455 107.027027,9.98918919 C107.022006,10.0330901 107.022006,10.0774204 107.027027,10.1213213 L107.027027,10.4780781 L107.027027,10.848048 L107.027027,11.218018 L107.027027,11.587988 L105.216817,10.2666667 L103.38018,8.66786787 L101.649249,7.34654655 L100.631832,6.59339339 L100.631832,6.59339339 L100.631832,6.59339339 L100.631832,6.59339339 L100.631832,6.59339339 L97.9891892,5.73453453 L95.3465465,4.87567568 L92.7039039,4.01681682 L90.0612613,3.15795796 L84.775976,3.15795796 L82.9525526,3.38258258 L81.4990991,3.73933934 L80.0324324,4.08288288 L78.578979,4.43963964 L78.578979,4.43963964 L78.5129129,4.43963964 L78.5129129,4.43963964 L78.5129129,4.43963964 L76.4516517,5.76096096 L74.3771772,7.08228228 L72.3159159,8.4036036 L70.03003,9.98918919 L70.03003,9.68528529 L71.9327327,7.80900901 L73.8882883,6.02522523 L75.790991,4.14894895 L77.7069069,2.25945946 L77.7069069,2.25945946 L77.7069069,2.25945946 L77.957958,2.06126126 L77.957958,2.06126126 L79.4642643,1.57237237 L80.9705706,1.08348348 L82.4636637,0.594594595 L83.96997,0.0924924925 L84.221021,0.0924924925 L84.2738739,1.17328369e-12 Z" id="Path" fill="#33627E" fill-rule="nonzero"></path>
            <polygon id="Path" fill="#0097D7" fill-rule="nonzero" style="mix-blend-mode: multiply;" points="74.6678679 52.0600601 74.7075075 60.7015015 90.4312312 68.4312312 102.944144 63.7009009 102.944144 50.0912913"></polygon>
            <path d="M97.0774775,63.1723724 L95.5183183,63.648048 L93.9459459,64.1633634 L92.3735736,64.639039 L90.8012012,65.1147147 L90.6426426,65.1147147 L90.4840841,65.1147147 L86.4276276,65.1147147 L86.2690691,65.1147147 L86.1105105,65.1147147 L84.5645646,64.5993994 L82.9657658,64.1633634 L81.3933934,63.6876877 L79.821021,63.212012 C79.663149,63.1722925 79.5118384,63.1099882 79.3717718,63.027027 C79.229165,62.945289 79.0961981,62.8477799 78.9753754,62.7363363 C78.8519117,62.6305168 78.7410688,62.5108064 78.645045,62.3795796 C78.5529694,62.246229 78.4733548,62.1046918 78.4072072,61.9567568 L76.6366366,57.8606607 L74.9189189,53.8042042 L73.187988,49.7477477 L71.4966967,45.6648649 L71.4174174,45.4534535 C71.4174174,45.4534535 71.4174174,45.3081081 71.4174174,45.242042 C71.4110415,45.1673029 71.4110415,45.0921566 71.4174174,45.0174174 C71.4110415,44.9426783 71.4110415,44.8675319 71.4174174,44.7927928 L71.4174174,31.3813814 L72.1045045,31.3813814 L72.448048,33.8654655 L72.6726727,36.3363363 L73.0162162,38.8204204 L73.3597598,41.3045045 C73.3534869,41.3968906 73.3534869,41.4895958 73.3597598,41.581982 C73.3826031,41.6726656 73.4135587,41.7611102 73.4522523,41.8462462 C73.4883001,41.9339005 73.5325403,42.0179569 73.5843844,42.0972973 C73.6218393,42.1827924 73.6707348,42.2628033 73.7297297,42.3351351 L74.5753754,43.445045 L75.4078078,44.554955 L76.2402402,45.6648649 L77.0858859,46.7747748 C77.3049087,47.0666159 77.590249,47.3021349 77.9183183,47.4618619 C78.2328913,47.6057244 78.5768799,47.6736169 78.9225225,47.6600601 C79.2681474,47.656608 79.6079325,47.5705291 79.9135135,47.409009 C80.2378549,47.2367323 80.5146991,46.9871187 80.7195195,46.6822823 L81.2084084,45.9555556 L81.6972973,45.2288288 L82.1861862,44.5021021 L82.6750751,43.7753754 C82.7762308,43.6243299 82.8961028,43.486699 83.0318318,43.3657658 C83.1637268,43.2367965 83.31539,43.1297401 83.4810811,43.0486486 C83.6427611,42.9689953 83.810689,42.9027079 83.9831832,42.8504505 C84.1631999,42.8302686 84.3449082,42.8302686 84.5249249,42.8504505 L91.963964,42.8504505 C92.1307218,42.8302507 92.2993082,42.8302507 92.4660661,42.8504505 C92.6300744,42.8852778 92.7896386,42.9384659 92.9417417,43.009009 C93.0901894,43.0844745 93.2316803,43.1729063 93.3645646,43.2732733 C93.4996689,43.3798939 93.6196824,43.5043524 93.7213213,43.6432432 L94.2234234,44.2774775 L94.7255255,44.9117117 L95.2276276,45.5459459 L95.7165165,46.1801802 C95.9474992,46.4784632 96.2527804,46.7108414 96.6018018,46.8540541 C96.9741152,47.0056746 97.3811006,47.0514033 97.7777778,46.9861862 C98.5218597,46.9412697 99.1906207,46.5170556 99.5483483,45.8630631 L100.605405,44.0132132 L101.649249,42.1633634 L102.706306,40.3135135 L103.75015,38.4636637 C103.79932,38.3827798 103.843448,38.2989365 103.882282,38.2126126 C103.914771,38.1219607 103.941255,38.0292677 103.961562,37.9351351 C103.967638,37.8427424 103.967638,37.7500504 103.961562,37.6576577 C103.967838,37.5608624 103.967838,37.4637622 103.961562,37.366967 L103.961562,31.1303303 L104.714715,31.1303303 C104.806614,31.1451393 104.900292,31.1451393 104.992192,31.1303303 L105.216817,31.0378378 C105.264484,31.0255303 105.314495,31.0255303 105.362162,31.0378378 C105.362162,31.0378378 105.362162,31.1171171 105.362162,31.2096096 L105.362162,44.8324324 C105.368732,44.9027498 105.368732,44.9735265 105.362162,45.0438438 C105.368538,45.118583 105.368538,45.1937293 105.362162,45.2684685 C105.362162,45.2684685 105.362162,45.4138138 105.362162,45.4798799 L105.282883,45.6912913 L103.591592,49.7477477 L101.9003,53.790991 L100.209009,57.8474474 L98.5045045,61.9039039 C98.4434612,62.0543531 98.3635414,62.1964327 98.2666667,62.3267267 C98.1789352,62.4643863 98.0721718,62.5889435 97.9495495,62.6966967 C97.8287269,62.8081403 97.6957599,62.9056494 97.5531532,62.9873874 C97.4031676,63.0691584 97.2433014,63.1313286 97.0774775,63.1723724 Z" id="Path" fill="#023852" fill-rule="nonzero"></path>
            <polygon id="Path" fill="#4A96C8" fill-rule="nonzero" points="319.323724 113.977177 320.4997 115.166366 321.688889 116.355556 322.878078 115.166366 324.067267 113.977177 322.878078 112.787988 321.688889 111.612012 320.4997 112.787988"></polygon>
            <path d="M364.116517,21.3261261 L364.116517,21.3261261 C364.115545,21.0322995 364.080067,20.7396038 364.010811,20.4540541 C363.93647,20.1720797 363.82541,19.9010928 363.68048,19.648048 C363.545068,19.3932828 363.376205,19.1577634 363.178378,18.9477477 C362.973595,18.7346078 362.742744,18.5481511 362.491291,18.3927928 L361.16997,17.5207207 L359.782583,16.6618619 L358.461261,15.803003 L357.13994,14.9309309 L356.703904,14.7063063 L356.254655,14.5345345 C356.098824,14.4910363 355.939755,14.4601063 355.778979,14.442042 C355.620689,14.4289877 355.461593,14.4289877 355.303303,14.442042 L341.508709,14.442042 C341.111432,14.4405674 340.717278,14.5122319 340.345946,14.6534535 C340.159693,14.7191267 339.978608,14.7986274 339.804204,14.8912913 C339.633069,14.9937114 339.469669,15.1085333 339.315315,15.2348348 L336.831231,17.2828829 L334.294294,19.2384384 L331.81021,21.2732733 L329.326126,23.3213213 L329.048649,23.5855856 C328.956156,23.6780781 328.876877,23.7837838 328.797598,23.8762763 L328.572973,24.1933934 C328.506907,24.3123123 328.440841,24.418018 328.387988,24.5369369 L326.590991,28.5009009 L324.780781,32.4648649 L322.970571,36.4288288 L321.16036,40.3927928 C321.108385,40.5040971 321.064234,40.61889 321.028228,40.7363363 C320.986945,40.8533791 320.951664,40.972453 320.922523,41.0930931 C320.922523,41.2252252 320.922523,41.3441441 320.922523,41.4630631 C320.915974,41.5907069 320.915974,41.7186025 320.922523,41.8462462 L320.922523,59.9483483 C320.922523,60.0540541 320.922523,60.1597598 320.922523,60.2522523 L320.922523,60.5561562 C320.916391,60.652956 320.916391,60.750047 320.922523,60.8468468 C320.947337,60.9455562 320.978227,61.0426381 321.015015,61.1375375 L321.834234,63.396997 L322.653453,65.6564565 L323.472673,67.9291291 L324.291892,70.1885886 C324.369185,70.3794489 324.422446,70.5791792 324.45045,70.7831832 C324.476853,70.9893483 324.476853,71.1980391 324.45045,71.4042042 C324.439052,71.6092906 324.40808,71.8128183 324.357958,72.012012 C324.302705,72.208583 324.227436,72.3989685 324.133333,72.5801802 L320.724324,78.2222222 L317.328529,83.8642643 L314.038438,89.2684685 L310.642643,94.9105105 C310.622985,94.9930398 310.622985,95.0790323 310.642643,95.1615616 C310.644418,95.2470325 310.672059,95.3299578 310.721922,95.3993994 C310.761939,95.4683175 310.8218,95.5235737 310.893694,95.557958 C310.975315,95.5842351 311.063124,95.5842351 311.144745,95.557958 L326.432432,94.5537538 L341.786186,93.4966967 L357.126727,92.4264264 L372.48048,91.3561562 L372.652252,91.3561562 L372.784384,91.2636637 C372.82706,91.2238576 372.858892,91.1738363 372.876877,91.1183183 C372.890353,91.061854 372.890353,91.0030109 372.876877,90.9465465 L373.127928,83.7189189 L373.378979,76.4780781 L373.63003,69.2372372 L373.867868,61.9963964 L373.867868,33.5615616 C373.866165,33.3266555 373.84406,33.0923414 373.801802,32.8612613 C373.75138,32.6351213 373.680622,32.4140015 373.59039,32.2006006 C373.496961,31.9826115 373.381869,31.7745599 373.246847,31.5795796 C373.110865,31.3882947 372.955926,31.2112213 372.784384,31.0510511 L370.881682,29.2408408 L368.978979,27.4438438 L367.063063,25.6468468 L365.16036,23.8366366 C364.988819,23.6764664 364.83388,23.499393 364.697898,23.3081081 C364.562876,23.1131278 364.447784,22.9050762 364.354354,22.6870871 C364.26242,22.4754702 364.19589,22.2537033 364.156156,22.0264264 C364.116307,21.7952654 364.103008,21.5603074 364.116517,21.3261261 Z" id="Path" fill="#023852" fill-rule="nonzero"></path>
            <g id="Oval" fill-rule="nonzero"></g>
            <path d="M401.800601,102.124925 L399.726126,96.6018018 L397.717718,91.0654655 C397.622102,90.7993289 397.493362,90.5462883 397.334535,90.3123123 C397.170029,90.0838426 396.979341,89.875417 396.766366,89.6912913 C396.559227,89.5032387 396.328209,89.3433033 396.079279,89.2156156 C395.825847,89.0914026 395.560144,88.993978 395.286486,88.9249249 L390.437237,87.8018018 L385.535135,86.6258258 L380.685886,85.5027027 L375.84985,84.3927928 L375.717718,84.3927928 L375.572372,84.3927928 L375.44024,84.3927928 L375.255255,84.3927928 L374.052853,84.3135135 L372.85045,84.2342342 C372.621899,84.2215111 372.395678,84.1815898 372.176577,84.1153153 C371.957574,84.0579783 371.745045,83.9782802 371.542342,83.8774775 C371.340476,83.7744664 371.150034,83.6504575 370.974174,83.5075075 C370.791231,83.3662434 370.623012,83.2068773 370.472072,83.0318318 L369.150751,81.4462462 L367.829429,79.8606607 L366.508108,78.2750751 L365.186787,76.6894895 C365.021674,76.4974862 364.835523,76.3246313 364.631832,76.1741742 C364.433204,76.0263939 364.220813,75.8980745 363.997598,75.790991 C363.770972,75.6963494 363.53669,75.6212023 363.297297,75.5663664 C363.054249,75.5132251 362.806147,75.4870816 362.557357,75.4870816 L356.016817,75.4870816 L349.476276,75.4870816 L342.935736,75.4870816 L336.329129,75.4870816 C335.898742,75.4920099 335.473047,75.5771488 335.073874,75.7381381 C334.878238,75.8172509 334.688384,75.9099703 334.505706,76.0156156 C334.329561,76.1362336 334.161808,76.2686702 334.003604,76.412012 L332.444444,77.8654655 L330.885285,79.3189189 L329.326126,80.7591592 L327.766967,82.2126126 C327.626407,82.3426658 327.476231,82.4619235 327.317718,82.5693694 C327.160319,82.6752219 326.991982,82.7638205 326.815616,82.8336336 C326.640349,82.9134061 326.459241,82.9796652 326.273874,83.0318318 C326.091252,83.0754692 325.905822,83.1063743 325.718919,83.1243243 L322.058859,83.4282282 L318.398799,83.7453453 L314.738739,84.0624625 L311.078679,84.3663664 L310.695495,84.4324324 L310.312312,84.5249249 L309.955556,84.6702703 C309.834387,84.7186835 309.719129,84.7807455 309.612012,84.8552553 L308.171772,85.7141141 L306.744745,86.572973 L305.304505,87.4318318 L303.877477,88.2906907 C303.658678,88.4223092 303.454872,88.5773787 303.26967,88.7531532 C303.089126,88.9266754 302.925432,89.116915 302.780781,89.3213213 C302.645461,89.5347175 302.530443,89.7603291 302.437237,89.9951952 C302.343366,90.2335413 302.276874,90.4817793 302.239039,90.7351351 L300.627027,110.158559 L299.001802,129.595195 L405.790991,129.595195 L403.795796,115.906306 L401.800601,102.124925 Z" id="Path" fill="#023852" fill-rule="nonzero" mask="url(#mask-6)"></path>
            <path d="M401.800601,102.124925 L399.726126,96.6018018 L397.717718,91.0654655 C397.622102,90.7993289 397.493362,90.5462883 397.334535,90.3123123 C397.170029,90.0838426 396.979341,89.875417 396.766366,89.6912913 C396.559227,89.5032387 396.328209,89.3433033 396.079279,89.2156156 C395.825847,89.0914026 395.560144,88.993978 395.286486,88.9249249 L385.535135,86.6258258 L375.84985,84.3927928 L375.717718,84.3927928 L375.572372,84.3927928 L375.44024,84.3927928 L375.255255,84.3927928 L374.052853,84.3135135 L372.85045,84.2342342 C372.621899,84.2215111 372.395678,84.1815898 372.176577,84.1153153 C371.957574,84.0579783 371.745045,83.9782802 371.542342,83.8774775 C371.340476,83.7744664 371.150034,83.6504575 370.974174,83.5075075 C370.791231,83.3662434 370.623012,83.2068773 370.472072,83.0318318 L367.763363,79.8606607 L365.120721,76.6894895 C364.955608,76.4974862 364.769457,76.3246313 364.565766,76.1741742 C364.367138,76.0263939 364.154747,75.8980745 363.931532,75.790991 C363.704906,75.6963494 363.470624,75.6212023 363.231231,75.5663664 C362.988183,75.5132251 362.740081,75.4870816 362.491291,75.4870816 L349.41021,75.4870816 L336.329129,75.4870816 C335.898742,75.4920099 335.473047,75.5771488 335.073874,75.7381381 C334.878238,75.8172509 334.688384,75.9099703 334.505706,76.0156156 C334.329561,76.1362336 334.161808,76.2686702 334.003604,76.412012 L330.885285,79.3189189 L327.766967,82.2126126 C327.626407,82.3426658 327.476231,82.4619235 327.317718,82.5693694 C327.160319,82.6752219 326.991982,82.7638205 326.815616,82.8336336 C326.640349,82.9134061 326.459241,82.9796652 326.273874,83.0318318 C326.091252,83.0754692 325.905822,83.1063743 325.718919,83.1243243 L318.398799,83.7453453 L311.078679,84.3663664 L310.695495,84.4324324 L310.312312,84.5249249 L309.955556,84.6702703 C309.834387,84.7186835 309.719129,84.7807455 309.612012,84.8552553 L306.744745,86.6258258 L303.903904,88.36997 C303.685104,88.5015885 303.481299,88.656658 303.296096,88.8324324 C303.115553,89.0059547 302.951858,89.1961943 302.807207,89.4006006 C302.671887,89.6139968 302.55687,89.8396084 302.463664,90.0744745 C302.369793,90.3128206 302.3033,90.5610586 302.265465,90.8144144 L300.653453,110.237838 L299.028228,129.674474 L300.34955,129.674474 L302.106907,112.603003 L303.903904,95.5315315 L306.771171,93.8138138 L309.638438,92.0960961 L309.981982,91.9111111 L310.338739,91.778979 L310.721922,91.6732733 L311.105105,91.6732733 L318.425225,91.0522523 L325.745345,90.418018 C325.933095,90.4070225 326.119134,90.376016 326.3003,90.3255255 C326.672718,90.2339015 327.026072,90.0773524 327.344144,89.8630631 C327.502703,89.7573574 327.648048,89.6384384 327.793393,89.5195195 L330.911712,86.6126126 L334.03003,83.7057057 C334.18503,83.562538 334.353136,83.4342467 334.532132,83.3225225 C334.892933,83.0890596 335.297587,82.9316938 335.721321,82.8600601 C335.932251,82.8398798 336.144626,82.8398798 336.355556,82.8600601 L349.436637,82.8600601 L362.517718,82.793994 C362.766507,82.7935497 363.014609,82.820132 363.257658,82.8732733 C363.499111,82.9266151 363.733959,83.0063748 363.957958,83.1111111 C364.183848,83.2131769 364.396762,83.3418126 364.592192,83.4942943 C364.792598,83.6437857 364.978411,83.8119021 365.147147,83.9963964 L367.78979,87.1807808 L370.498498,90.351952 C370.649438,90.5269975 370.817658,90.6863635 371.000601,90.8276276 C371.179983,90.961785 371.370002,91.0810989 371.568769,91.1843844 C371.771067,91.2894744 371.983585,91.3735959 372.203003,91.4354354 C372.423967,91.4909838 372.649517,91.5263641 372.876877,91.5411411 L374.079279,91.6336336 L375.281682,91.7129129 L375.545946,91.7129129 L375.691291,91.7129129 L375.823423,91.7129129 L385.508709,93.9591592 L395.193994,96.2054054 C395.469443,96.268539 395.735815,96.3662087 395.986787,96.4960961 C396.506072,96.7546212 396.958353,97.1300142 397.308108,97.5927928 C397.472002,97.8237411 397.601106,98.0774972 397.691291,98.3459459 L399.039039,110.77958 L400.43964,123.318919 L401.628829,126.49009 L402.818018,129.674474 L405.764565,129.674474 L403.795796,115.906306 L401.800601,102.124925 Z" id="Path" fill="#1B5679" fill-rule="nonzero" mask="url(#mask-6)"></path>
            <path d="M334.294294,82.9525526 L337.386186,86.6258258 L340.544144,90.2462462 L340.544144,90.3255255 L340.544144,90.4048048 L340.544144,90.4840841 L340.544144,90.5633634 L342.526126,96.0732733 L344.508108,101.56997 L346.463664,115.655255 L348.406006,129.727327 L363.231231,129.727327 L363.231231,94.5537538 C363.231231,94.5537538 363.231231,94.5537538 363.231231,94.4744745 C363.225502,94.4483586 363.225502,94.4213111 363.231231,94.3951952 L363.944745,92.1885886 L364.658258,89.981982 L365.371772,87.7753754 L366.085285,85.5555556 C366.085285,85.5555556 366.085285,85.4762763 366.085285,85.4366366 C366.091698,85.3972563 366.091698,85.357098 366.085285,85.3177177 L366.085285,85.1987988 C366.091698,85.1594185 366.091698,85.1192602 366.085285,85.0798799 L364.763964,77.7069069 L363.442643,70.3471471 C363.448322,70.2944469 363.448322,70.2412889 363.442643,70.1885886 C363.452333,70.1361799 363.452333,70.0824387 363.442643,70.03003 C363.410747,69.9792387 363.37543,69.930678 363.336937,69.8846847 L363.204805,69.7657658 L361.883483,68.7219219 L360.562162,67.6912913 L360.416817,67.5855856 L360.245045,67.5063063 L360.06006,67.5063063 L359.875075,67.5063063 L348.934535,68.2594595 L337.993994,69.0126126 L337.848649,69.0126126 L337.716517,69.0126126 C337.668832,69.0264446 337.62406,69.0488306 337.584384,69.0786787 L337.452252,69.157958 L336.685886,69.7393393 L335.91952,70.3339339 L335.153153,70.9285285 L334.386787,71.5099099 L334.228228,71.6684685 C334.179119,71.7283703 334.139054,71.7951459 334.109309,71.8666667 C334.069321,71.9312792 334.042387,72.0031039 334.03003,72.0780781 C334.022781,72.1527775 334.022781,72.2280033 334.03003,72.3027027 L334.03003,82.3711712 C334.03003,82.3711712 334.03003,82.4900901 334.03003,82.5429429 C334.022555,82.5999562 334.022555,82.6577014 334.03003,82.7147147 C334.045663,82.7723086 334.072614,82.8262107 334.109309,82.8732733 C334.165893,82.9102527 334.228493,82.937081 334.294294,82.9525526 Z" id="Path" fill="#FFFFFF" fill-rule="nonzero" mask="url(#mask-6)"></path>
            <path d="M336.329129,66.806006 L336.329129,76.0552553 C336.329129,76.0552553 336.329129,76.1477477 336.329129,76.1873874 C336.329129,76.227027 336.329129,76.2798799 336.329129,76.3195195 C336.324155,76.3590031 336.324155,76.3989549 336.329129,76.4384384 C336.319605,76.477506 336.319605,76.5182898 336.329129,76.5573574 L339.883483,81.987988 L343.437838,87.4054054 L346.992192,92.836036 L350.55976,98.2534535 C350.644564,98.3922283 350.768756,98.5026209 350.916517,98.5705706 C351.054508,98.6443206 351.209367,98.6807579 351.365766,98.6762763 C351.693191,98.6607016 351.988743,98.4753558 352.145345,98.1873874 L354.616216,93.7081081 L357.087087,89.2288288 L359.557958,84.7495495 L362.028829,80.2702703 L362.028829,80.1645646 L362.028829,80.0456456 C362.028829,80.0456456 362.028829,80.0456456 362.028829,79.9399399 L362.028829,70.03003 C362.047824,69.9207391 362.047824,69.8089906 362.028829,69.6996997 C362.041898,69.6166976 362.046326,69.5325641 362.042042,69.4486486 C361.967666,69.3715784 361.883218,69.3049094 361.790991,69.2504505 C361.688172,69.1955457 361.576253,69.1597316 361.460661,69.1447447 L355.435435,68.2990991 L349.41021,67.4798799 L343.371772,66.6738739 L337.346547,65.8546547 C337.215839,65.8272114 337.080857,65.8272114 336.95015,65.8546547 C336.820914,65.8838471 336.702117,65.9478145 336.606607,66.0396396 C336.510419,66.1233049 336.433744,66.2270416 336.381982,66.3435435 C336.326875,66.4910716 336.30873,66.6498487 336.329129,66.806006 L336.329129,66.806006 Z" id="Path" fill="#19A1DB" fill-rule="nonzero" mask="url(#mask-6)"></path>
            <path d="M336.329129,65.7093093 L336.329129,73.4126126 L339.724925,76.0552553 L343.107508,78.6978979 L346.503303,81.3405405 L349.885886,83.9831832 C350.00822,84.0777537 350.141269,84.1575832 350.282282,84.221021 C350.418945,84.2745412 350.560579,84.3143758 350.705105,84.3399399 C350.854563,84.353156 351.004896,84.353156 351.154354,84.3399399 C351.304154,84.3189484 351.450675,84.278988 351.59039,84.221021 L354.233033,83.1111111 L356.875676,82.0012012 L359.518318,80.8912913 L362.160961,79.7813814 L362.160961,69.224024 L355.673273,68.351952 L349.172372,67.4666667 L342.684685,66.5945946 L336.329129,65.7093093 Z" id="Path" fill="#0097D7" fill-rule="nonzero" style="mix-blend-mode: multiply;" mask="url(#mask-6)"></path>
            <path d="M365.768168,44.7003003 L366.257057,44.4888889 L366.732733,44.2642643 L367.221622,44.0396396 L367.697297,43.815015 L367.895495,43.7489489 C367.956931,43.7414797 368.019045,43.7414797 368.08048,43.7489489 L368.291892,43.7489489 L368.49009,43.7489489 L368.635435,43.7489489 L368.780781,43.7489489 L368.926126,43.7489489 L369.084685,43.7489489 C369.46428,43.7962555 369.80801,43.9967642 370.036036,44.3039039 C370.150325,44.4492417 370.23556,44.6152261 370.287087,44.7927928 C370.320381,44.9851566 370.320381,45.1818104 370.287087,45.3741742 L369.996396,47.5807808 L369.705706,49.7873874 L369.415015,51.993994 L369.124324,54.2006006 C369.136832,54.2926702 369.136832,54.3860084 369.124324,54.4780781 L369.005405,54.7423423 L368.833634,54.966967 C368.774361,55.0394942 368.707963,55.1058927 368.635435,55.1651652 L368.001201,55.6540541 L367.366967,56.1297297 L366.732733,56.6186186 L366.098498,57.1075075 C366.023134,57.1725088 365.938526,57.2259457 365.847447,57.2660661 L365.596396,57.3585586 L365.318919,57.3585586 L364.79039,57.3585586 L364.658258,57.3585586 L364.539339,57.3585586 C364.344689,57.3309696 364.156658,57.2682929 363.984384,57.1735736 C363.823627,57.0744834 363.68435,56.9441921 363.574775,56.7903904 C363.32722,56.4826868 363.230279,56.0803821 363.310511,55.6936937 L363.72012,53.2096096 L364.12973,50.7387387 L364.539339,48.2546547 L364.962162,45.7837838 C364.978938,45.6659403 365.009997,45.5505772 365.054655,45.4402402 C365.103519,45.331683 365.165655,45.229603 365.23964,45.1363363 C365.308347,45.0432354 365.388224,44.9589212 365.477477,44.8852853 L365.768168,44.7003003 Z" id="Path" fill="#19A1DB" fill-rule="nonzero" mask="url(#mask-6)"></path>
            <path d="M369.084685,43.7621622 L368.939339,43.7621622 L368.780781,43.7621622 L368.635435,43.7621622 L368.093694,43.7621622 L367.895495,43.7621622 L367.697297,43.8414414 L367.221622,44.0660661 L366.732733,44.2774775 L366.257057,44.5021021 L365.768168,44.7267267 C365.657028,44.7705435 365.554234,44.8331137 365.464264,44.9117117 C365.3719,44.9819491 365.291572,45.0667394 365.226426,45.1627628 C365.156973,45.2519151 365.099245,45.3496095 365.054655,45.4534535 C364.99982,45.5609944 364.964055,45.6772318 364.948949,45.796997 L364.86967,46.2858859 L364.79039,46.7747748 L364.697898,47.2636637 L364.618619,47.7525526 C364.644419,47.6463667 364.684419,47.5441445 364.737538,47.4486486 C364.783892,47.3498359 364.841533,47.2567233 364.909309,47.1711712 C364.981844,47.0854229 365.061399,47.0058684 365.147147,46.9333333 L365.437838,46.7615616 L365.926727,46.5369369 L366.428829,46.3123123 L366.930931,46.0876877 L367.433033,45.8498498 L367.618018,45.8498498 L367.829429,45.8498498 L368.239039,45.8498498 L368.384384,45.8498498 L368.542943,45.8498498 L368.688288,45.8498498 L368.846847,45.8498498 C369.008645,45.8693638 369.165438,45.9186414 369.309309,45.9951952 C369.449851,46.0630811 369.579095,46.1522147 369.692492,46.2594595 C369.799486,46.3712101 369.892647,46.4954257 369.96997,46.6294294 C370.038112,46.772077 370.086988,46.9231499 370.115315,47.0786787 L370.115315,46.6690691 L370.115315,46.2594595 L370.115315,45.8630631 L370.115315,45.4534535 C370.156516,45.2663048 370.156516,45.0724339 370.115315,44.8852853 C370.068561,44.701868 369.982946,44.5306368 369.864264,44.3831832 C369.753909,44.2371799 369.614425,44.1156943 369.454655,44.0264264 C369.347527,43.9176233 369.222351,43.8282118 369.084685,43.7621622 L369.084685,43.7621622 Z" id="Path" fill="#42A9E0" fill-rule="nonzero" mask="url(#mask-6)"></path>
            <path d="M331.10991,44.7003003 L330.634234,44.4888889 L330.145345,44.2642643 L329.66967,44.0396396 L329.180781,43.815015 L328.995796,43.7489489 L328.797598,43.7489489 L328.599399,43.7489489 L328.401201,43.7489489 L328.242643,43.7489489 L328.097297,43.7489489 L327.951952,43.7489489 L327.806607,43.7489489 C327.615629,43.7744288 327.431542,43.8372876 327.264865,43.9339339 C327.103354,44.0315561 326.96024,44.156781 326.842042,44.3039039 C326.731591,44.449768 326.65079,44.6158595 326.604204,44.7927928 C326.564309,44.9845334 326.564309,45.1824336 326.604204,45.3741742 L326.881682,47.5807808 L327.172372,49.7873874 L327.463063,51.993994 L327.753754,54.2006006 C327.741561,54.2926913 327.741561,54.3859874 327.753754,54.4780781 C327.814161,54.6572726 327.908353,54.8232291 328.031231,54.966967 L328.242643,55.1651652 L328.876877,55.6540541 L329.511111,56.1297297 L330.145345,56.6186186 L330.77958,57.1075075 C330.850294,57.172199 330.930504,57.2256724 331.017417,57.2660661 L331.281682,57.3585586 L331.559159,57.3585586 L332.087688,57.3585586 L332.206607,57.3585586 L332.325526,57.3585586 C332.521136,57.3351444 332.709944,57.2722083 332.88048,57.1735736 C333.045149,57.0747593 333.188808,56.944568 333.303303,56.7903904 C333.531415,56.4734474 333.626281,56.0797512 333.567568,55.6936937 L333.157958,53.2096096 L332.735135,50.7387387 L332.351952,48.3075075 L331.942342,45.8366366 C331.921196,45.7182526 331.885699,45.6028873 331.836637,45.4930931 C331.793072,45.3846407 331.735311,45.2824478 331.664865,45.1891892 L331.413814,44.9381381 C331.321919,44.8475235 331.219954,44.7677249 331.10991,44.7003003 Z" id="Path" fill="#19A1DB" fill-rule="nonzero" mask="url(#mask-6)"></path>
            <path d="M327.806607,43.7621622 L327.951952,43.7621622 L328.097297,43.7621622 L328.242643,43.7621622 L328.797598,43.7621622 L328.995796,43.7621622 L329.180781,43.8414414 L329.66967,44.0660661 L330.145345,44.2774775 L330.634234,44.5021021 L331.10991,44.7267267 C331.22105,44.7705435 331.323844,44.8331137 331.413814,44.9117117 C331.506178,44.9819491 331.586506,45.0667394 331.651652,45.1627628 C331.725737,45.2511702 331.787927,45.3488977 331.836637,45.4534535 C331.881294,45.5637904 331.912353,45.6791535 331.929129,45.796997 L332.021622,46.2858859 L332.100901,46.7747748 L332.18018,47.2636637 L332.259459,47.7525526 C332.233659,47.6463667 332.193659,47.5441445 332.140541,47.4486486 C332.099232,47.3471867 332.041166,47.2533881 331.968769,47.1711712 C331.903234,47.0792455 331.822857,46.9988681 331.730931,46.9333333 C331.643386,46.868445 331.55057,46.8109878 331.453453,46.7615616 L330.951351,46.5369369 L330.449249,46.3123123 L329.96036,46.0876877 L329.458258,45.8498498 L329.26006,45.8498498 L329.009009,45.6648649 L328.599399,45.6648649 L328.440841,45.6648649 L328.282282,45.6648649 L328.136937,45.6648649 L327.978378,45.6648649 C327.664445,45.7095432 327.372888,45.8530078 327.145946,46.0744745 C327.031107,46.1793391 326.936984,46.3048374 326.868468,46.4444444 C326.793439,46.5842528 326.744205,46.7364318 326.723123,46.8936937 L326.723123,46.4840841 L326.723123,46.0744745 L326.723123,45.6780781 L326.723123,45.2684685 C326.677935,44.8895253 326.77699,44.5074527 327.000601,44.1981982 C327.114789,44.0507758 327.258888,43.9291924 327.423423,43.8414414 C327.546509,43.7961439 327.675652,43.7694245 327.806607,43.7621622 Z" id="Path" fill="#42A9E0" fill-rule="nonzero"></path>
            <path d="M362.27988,26.6378378 C362.207484,26.4047688 362.095764,26.1857968 361.94955,25.9903904 C361.814374,25.7980486 361.64933,25.628544 361.460661,25.4882883 C361.26679,25.3473527 361.053041,25.2360254 360.826426,25.157958 C360.594877,25.0887411 360.354585,25.0531424 360.112913,25.0522523 L337.993994,25.0522523 C337.752443,25.0547108 337.512369,25.0902772 337.28048,25.157958 C337.05677,25.2332917 336.846965,25.3448898 336.659459,25.4882883 C336.466675,25.6281459 336.297215,25.7976055 336.157357,25.9903904 C336.011143,26.1857968 335.899423,26.4047688 335.827027,26.6378378 L334.756757,30.0072072 L333.686486,33.3897898 L332.616216,36.7723724 L331.545946,40.154955 C331.545946,40.154955 331.545946,40.2606607 331.545946,40.3135135 C331.54054,40.3706432 331.54054,40.4281556 331.545946,40.4852853 C331.545946,40.5513514 331.545946,40.6042042 331.545946,40.6570571 L331.545946,62.9081081 C331.539397,63.0357519 331.539397,63.1636475 331.545946,63.2912913 C331.570563,63.4117351 331.601436,63.5308152 331.638438,63.648048 C331.678734,63.7658433 331.727304,63.8806437 331.783784,63.9915916 C331.84985,64.0972973 331.915916,64.203003 331.995195,64.3087087 L333.686486,66.5021021 L335.390991,68.6954955 L337.095495,70.8888889 L338.8,73.0954955 C338.858951,73.17636 338.925303,73.2515595 338.998198,73.3201201 C339.070765,73.3938493 339.15043,73.460237 339.236036,73.5183183 L339.487087,73.6900901 L339.764565,73.8222222 L341.310511,74.4168168 L342.843243,75.0114114 L344.375976,75.606006 L345.921922,76.2006006 L346.12012,76.2006006 L346.318318,76.2006006 L346.52973,76.2006006 L351.735736,76.2006006 L351.947147,76.2006006 L352.158559,76.2006006 L352.356757,76.2006006 L353.889489,75.606006 L355.422222,75.0114114 L356.968168,74.4168168 L358.500901,73.8222222 L358.778378,73.6900901 L359.029429,73.5183183 C359.12006,73.4672047 359.200648,73.4000477 359.267267,73.3201201 C359.344382,73.2517888 359.415142,73.1766061 359.478679,73.0954955 L361.16997,70.8888889 L362.874474,68.6954955 L364.578979,66.5021021 L366.27027,64.3087087 L366.481682,63.9915916 C366.538162,63.8806437 366.586731,63.7658433 366.627027,63.648048 C366.670184,63.5326704 366.701183,63.4131039 366.71952,63.2912913 C366.732596,63.1638983 366.732596,63.0355011 366.71952,62.9081081 L366.71952,40.6570571 C366.719505,40.5425425 366.719505,40.428028 366.719505,40.3135135 C366.725184,40.2608132 366.725184,40.2076552 366.719505,40.154955 L365.649235,36.7723724 L364.578965,33.3897898 L363.363363,30.0072072 L362.27988,26.6378378 Z" id="Path" fill="#19A1DB" fill-rule="nonzero"></path>
            <path d="M366.693093,40.2078078 L365.596396,36.7459459 L364.4997,33.2840841 L363.363363,29.809009 L362.266667,26.3471471 C362.216507,26.1697832 362.140842,26.0006489 362.042042,25.845045 C361.926299,25.6853491 361.788374,25.5429749 361.632432,25.4222222 C361.467462,25.313309 361.290017,25.2245866 361.103904,25.157958 C360.912498,25.093171 360.711351,25.0618816 360.509309,25.065189 L343.213213,25.065189 C343.207025,25.1048636 343.207025,25.1449863 343.213213,25.1843844 C343.200125,25.2229436 343.200125,25.2647441 343.213213,25.3033033 C343.208239,25.3427869 343.208239,25.3827386 343.213213,25.4222222 C343.236735,25.4632385 343.268175,25.49917 343.305706,25.5279279 L347.784985,28.9369369 L352.264264,32.3591592 L356.756757,35.754955 L361.236036,39.1771772 L361.236036,59.6048048 L358.685886,63.7933934 L356.135736,67.981982 L353.585586,72.1705706 L351.048649,76.3591592 L351.788589,76.3591592 L351.96036,76.3591592 C352.016825,76.3726351 352.075668,76.3726351 352.132132,76.3591592 L352.303904,76.3591592 L353.876276,75.7513514 L355.448649,75.1435435 L357.034234,74.5225225 L358.606607,73.9147147 L358.844444,73.809009 L359.055856,73.6636637 L359.254054,73.5051051 L359.425826,73.3069069 L361.156757,71.0606607 L362.900901,68.8144144 L364.684685,66.4492492 L366.415616,64.203003 C366.484871,64.1233218 366.542684,64.0343784 366.587387,63.9387387 C366.636777,63.8488878 366.680896,63.7562387 366.71952,63.6612613 L366.798799,63.3573574 C366.805344,63.251753 366.805344,63.1458446 366.798799,63.0402402 L366.798799,40.775976 C366.798799,40.775976 366.798799,40.6834835 366.798799,40.6306306 C366.798799,40.5777778 366.798799,40.5381381 366.798799,40.4852853 C366.798799,40.4324324 366.798799,40.3927928 366.798799,40.3399399 L366.693093,40.2078078 Z" id="Path" fill="#0097D7" fill-rule="nonzero" style="mix-blend-mode: multiply;"></path>
            <path d="M369.26967,31.5927928 C369.276198,31.5445643 369.276198,31.495676 369.26967,31.4474474 L369.26967,31.3153153 L369.203604,31.1831832 L369.111111,31.0642643 L366.653453,28.3291291 L364.209009,25.6072072 L361.751351,22.8720721 L359.293694,20.1501502 C359.233316,20.0740817 359.162084,20.0073019 359.082282,19.951952 C359.006521,19.8909548 358.921853,19.8419366 358.831231,19.8066066 L358.553754,19.7141141 C358.457343,19.7003805 358.359473,19.7003805 358.263063,19.7141141 L354.814414,19.7141141 L351.365766,19.7141141 L347.917117,19.7141141 L344.468468,19.7141141 L344.30991,19.7141141 L344.217417,19.7141141 L344.138138,19.7141141 L341.112312,21.0354354 L338.086486,22.2906907 L335.060661,23.612012 L332.021622,24.9333333 C331.913064,24.9821979 331.810984,25.0443335 331.717718,25.1183183 C331.624617,25.1870257 331.540303,25.2669024 331.466667,25.3561562 C331.396221,25.4494148 331.33846,25.5516077 331.294895,25.6600601 C331.24006,25.767601 331.204295,25.8838384 331.189189,26.0036036 L330.462462,30.4696697 L329.735736,34.9357357 L329.009009,39.1771772 L328.282282,43.6564565 L328.797598,43.6564565 L328.982583,43.6564565 L329.180781,43.7357357 L329.643243,43.9471471 L330.118919,44.1717718 L330.594595,44.3831832 L331.057057,44.5945946 C331.121894,44.6126202 331.190419,44.6126202 331.255255,44.5945946 C331.320699,44.6074193 331.38801,44.6074193 331.453453,44.5945946 C331.522895,44.5827054 331.587262,44.550522 331.638438,44.5021021 C331.689216,44.460232 331.733715,44.4112834 331.770571,44.3567568 L332.153754,43.7093093 L332.55015,43.0618619 L332.933333,42.4276276 L333.316517,41.7801802 C333.322757,41.7586002 333.322757,41.7356941 333.316517,41.7141141 L333.316517,35.3189189 C333.309959,35.2397752 333.309959,35.1602248 333.316517,35.0810811 C333.330644,34.9955165 333.352763,34.911465 333.382583,34.83003 L333.488288,34.6054054 C333.537072,34.5361846 333.590023,34.4699963 333.646847,34.4072072 L335.1003,32.7423423 L336.553754,31.1303303 L338.007207,29.4654655 L339.460661,27.7873874 C339.525747,27.7109929 339.601381,27.6442569 339.685285,27.5891892 C339.762746,27.5270716 339.846961,27.473883 339.936336,27.4306306 L340.227027,27.3381381 L340.517718,27.3381381 L343.913514,27.3381381 L344.032432,27.3381381 L344.151351,27.3381381 L344.27027,27.3381381 L345.129129,27.6552553 L345.987988,27.9723724 L346.846847,28.3027027 L347.705706,28.6198198 C347.798259,28.6601655 347.896175,28.6868701 347.996396,28.6990991 L348.287087,28.6990991 L348.577778,28.6990991 L348.842042,28.5933934 L349.648048,28.1705706 L350.440841,27.7477477 L351.233634,27.3249249 L352.03964,26.9153153 L352.184985,26.836036 L352.343544,26.836036 L352.515315,26.836036 L356.849249,26.836036 C357.133006,26.8356175 357.41616,26.8621632 357.694895,26.9153153 C357.966735,26.9667118 358.232447,27.0464255 358.487688,27.1531532 C358.750825,27.2461456 358.999833,27.3750958 359.227628,27.5363363 C359.467394,27.6814603 359.689155,27.8544336 359.888288,28.0516517 L360.826426,28.9501502 L361.764565,29.8486486 L362.689489,30.7339339 L363.627628,31.6324324 L363.772973,31.790991 C363.81313,31.8497067 363.84848,31.9115695 363.878679,31.975976 C363.917326,32.0334098 363.948412,32.0955832 363.971171,32.160961 C363.97718,32.2313034 363.97718,32.30203 363.971171,32.3723724 L364.539339,35.2132132 L365.094294,38.0672673 L365.649249,40.9081081 L366.217417,43.7489489 C366.231816,43.833676 366.263283,43.9145929 366.30991,43.9867868 C366.360672,44.0532378 366.429472,44.1036909 366.508108,44.1321321 C366.581775,44.1511528 366.659066,44.1511528 366.732733,44.1321321 C366.815262,44.1517897 366.901255,44.1517897 366.983784,44.1321321 L367.102703,44.1321321 L367.208408,44.1321321 L367.327327,44.1321321 L367.433033,44.1321321 L367.697297,44.0264264 L367.974775,44.0264264 L368.239039,44.0264264 L368.741141,44.0264264 L368.846847,44.0264264 L368.965766,44.0264264 C369.048235,44.0465898 369.134348,44.0465898 369.216817,44.0264264 C369.296397,44.0135102 369.370147,43.9766352 369.428228,43.9207207 C369.491401,43.8722012 369.541378,43.8085943 369.573574,43.7357357 C369.593231,43.6532065 369.593231,43.567214 369.573574,43.4846847 L369.467868,40.590991 L369.375375,37.7105105 L369.26967,34.8168168 L369.26967,31.5927928 Z" id="Path" fill="#023852" fill-rule="nonzero"></path>
            <path d="M356.756757,23.981982 L350.797598,24.787988 L344.838438,25.5807808 L338.879279,26.3735736 L332.972973,27.1663664 L332.378378,30.9453453 L331.796997,34.7243243 L331.215616,38.5033033 L330.621021,42.2822823 L331.757357,42.2822823 C331.719826,42.3110402 331.688386,42.3469717 331.664865,42.387988 C331.662345,42.4231782 331.662345,42.4585035 331.664865,42.4936937 L331.664865,42.6258258 C331.664865,42.6258258 331.664865,42.7051051 331.664865,42.757958 L331.664865,47.3561562 C331.651232,47.4437168 331.651232,47.5328598 331.664865,47.6204204 C331.705635,47.6958727 331.754361,47.7667465 331.81021,47.8318318 C331.87185,47.8920146 331.943357,47.9411761 332.021622,47.9771772 C332.109268,47.9896461 332.198239,47.9896461 332.285886,47.9771772 L334.294294,47.9771772 L334.426426,47.9771772 L334.558559,47.8978979 L334.664264,47.8054054 L336.461261,45.8366366 L338.245045,43.8546547 L340.042042,41.8858859 L341.839039,39.9039039 L341.839039,39.9039039 L341.839039,39.9039039 L341.839039,39.9039039 L341.839039,39.9039039 L345.551952,35.9399399 L349.278078,31.975976 L352.990991,28.012012 L356.756757,23.981982 Z" id="Path" fill="#023852" fill-rule="nonzero"></path>
            <path d="M192.912913,188.142943 L192.424024,187.918318 L191.935135,187.693694 L191.446246,187.469069 L190.957357,187.244444 L190.759159,187.178378 C190.693786,187.164846 190.626334,187.164846 190.560961,187.178378 L190.362763,187.178378 L190.164565,187.178378 L190.006006,187.178378 L189.860661,187.178378 L189.702102,187.178378 L189.556757,187.178378 C189.365779,187.203858 189.181692,187.266717 189.015015,187.363363 C188.851353,187.458013 188.70773,187.583684 188.592192,187.733333 C188.477515,187.883322 188.392326,188.0537 188.341141,188.235435 C188.301246,188.427176 188.301246,188.625076 188.341141,188.816817 L188.631832,191.063063 L188.922523,193.296096 L189.213213,195.529129 L189.503904,197.775375 C189.519654,197.86925 189.541726,197.961953 189.56997,198.052853 C189.598435,198.145555 189.638385,198.234333 189.688889,198.317117 C189.738639,198.397445 189.796174,198.472683 189.860661,198.541742 C189.916429,198.61736 189.98324,198.684172 190.058859,198.73994 L190.706306,199.228829 L191.353754,199.730931 L192.001201,200.21982 L192.635435,200.721922 C192.71442,200.778067 192.798468,200.826726 192.886486,200.867267 C192.968593,200.915926 193.057736,200.951583 193.150751,200.972973 L193.428228,200.972973 L193.851051,200.972973 L193.96997,200.972973 L194.234234,200.972973 C194.431781,200.949525 194.621483,200.881774 194.789189,200.774775 C194.959451,200.683697 195.104667,200.552095 195.212012,200.391592 C195.329378,200.238376 195.414753,200.063134 195.463063,199.876276 C195.496581,199.679495 195.496581,199.478463 195.463063,199.281682 L195.04024,196.771171 L194.617417,194.260661 L194.194595,191.75015 L193.784985,189.23964 C193.759566,189.122332 193.724203,189.007402 193.679279,188.896096 C193.630546,188.783361 193.568439,188.676891 193.494294,188.578979 C193.424451,188.482514 193.339708,188.397772 193.243243,188.327928 C193.140403,188.254098 193.029599,188.192047 192.912913,188.142943 L192.912913,188.142943 Z" id="Path" fill="#0099DA" fill-rule="nonzero" mask="url(#mask-8)"></path>
            <path d="M193.758559,189.213213 C193.737413,189.094829 193.701916,188.979464 193.652853,188.86967 C193.603988,188.761112 193.541853,188.659032 193.467868,188.565766 C193.402722,188.469742 193.322394,188.384952 193.23003,188.314715 C193.140061,188.236117 193.037267,188.173546 192.926126,188.12973 L192.424024,187.905105 L191.935135,187.68048 L191.446246,187.455856 L190.957357,187.231231 L190.772372,187.151952 L190.574174,187.151952 L190.006006,187.151952 L189.860661,187.151952 L189.715315,187.151952 L189.556757,187.151952 C189.365779,187.177432 189.181692,187.240291 189.015015,187.336937 C188.85095,187.431023 188.707224,187.556783 188.592192,187.706907 C188.473511,187.85436 188.387895,188.025592 188.341141,188.209009 C188.300865,188.40071 188.300865,188.598689 188.341141,188.79039 L188.42042,189.345345 L188.486486,189.913514 L188.565766,190.481682 L188.645045,191.04985 C188.604818,190.853693 188.604818,190.651412 188.645045,190.455255 C188.698017,190.263606 188.787773,190.084094 188.909309,189.926727 C189.029219,189.776228 189.177329,189.650559 189.345345,189.556757 C189.51697,189.447871 189.711401,189.380046 189.913514,189.358559 L190.058859,189.358559 L190.27027,189.358559 L190.428829,189.358559 L190.996997,189.358559 L191.208408,189.358559 L191.406607,189.424625 L191.908709,189.662462 L192.410811,189.887087 L192.912913,190.124925 L193.428228,190.34955 L193.63964,190.468468 L193.824625,190.627027 L193.983183,190.798799 L194.102102,190.996997 L194.036036,190.547748 L193.956757,190.098498 L193.877477,189.649249 L193.758559,189.213213 Z" id="Path" fill="#42A9E0" fill-rule="nonzero" mask="url(#mask-8)"></path>
            <path d="M269.972372,238.353153 L251.473874,230.64985 L232.975375,222.946547 L232.856456,222.946547 L232.750751,222.88048 C232.66472,222.859067 232.592328,222.801154 232.552553,222.721922 L232.46006,222.629429 L230.385586,219.986787 L228.297898,217.344144 C228.251084,217.277317 228.192953,217.219186 228.126126,217.172372 L227.927928,217.04024 L227.69009,217.04024 L227.439039,217.04024 L212.468468,217.793393 L197.497898,218.546547 L197.312913,218.546547 L197.154354,218.546547 C197.095852,218.566473 197.041937,218.597923 196.995796,218.639039 L196.876877,218.757958 L192.912913,222.497297 L188.948949,226.236637 L188.86967,226.302703 L188.777177,226.368769 L188.684685,226.368769 C188.654676,226.37884 188.622201,226.37884 188.592192,226.368769 L172.128529,232.222222 L155.678078,238.062462 L155.678078,270.064865 L269.972372,270.064865 C270.031051,248.950751 270.031051,238.380181 269.972372,238.353153 Z" id="Path" fill="#F4F4F5" fill-rule="nonzero" mask="url(#mask-8)"></path>
            <path d="M229.566366,226.884084 L246.915315,233.384985 L264.264264,239.899099 C264.695756,240.057973 270.128373,238.5556 270.064865,238.538138 L251.566366,230.834835 L233.067868,223.144745 L232.962162,223.144745 L232.86967,223.144745 L232.79039,223.078679 L232.711111,222.986186 L230.768769,220.607808 L228.813213,218.216216 C228.784158,218.170409 228.735172,218.141017 228.681081,218.136937 C228.634662,218.117106 228.582155,218.117106 228.535736,218.136937 C228.491993,218.156423 228.45515,218.18866 228.43003,218.229429 C228.40946,218.280281 228.40946,218.337137 228.43003,218.387988 L228.998198,222.721922 L229.566366,226.884084 Z" id="Path" fill="#FFFFFF" fill-rule="nonzero" mask="url(#mask-8)"></path>
            <path d="M228.681081,244.603003 L225.021021,242.726727 L221.360961,240.85045 L217.714114,238.974174 L214.054054,237.097898 L212.30991,237.097898 L208.768769,239.066667 L205.187988,241.035435 L201.607207,243.004204 L198.026426,244.972973 C198.026426,244.972973 198.026426,244.972973 198.026426,244.972973 C198.020245,244.999038 198.020245,245.026187 198.026426,245.052252 C198.026426,245.052252 198.026426,245.052252 198.026426,245.052252 C198.050956,245.066414 198.081177,245.066414 198.105706,245.052252 L201.845045,243.730931 L205.571171,242.343544 L209.297297,241.022222 L213.036637,239.700901 L213.036637,239.700901 L216.921321,241.022222 L220.792793,242.343544 L224.677477,243.664865 L228.548949,244.986186 L228.641441,244.986186 L228.641441,244.986186 C228.641441,244.986186 228.641441,244.986186 228.641441,244.906907 C228.695729,244.913988 228.74967,244.891569 228.782946,244.848095 C228.816221,244.804622 228.823777,244.746698 228.802765,244.696143 C228.781754,244.645589 228.735368,244.610084 228.681081,244.603003 L228.681081,244.603003 Z" id="Path" fill="#19A1DB" fill-rule="nonzero" mask="url(#mask-8)"></path>
            <polygon id="Path" fill="#023852" fill-rule="nonzero" mask="url(#mask-8)" points="208.398799 247.351351 208.398799 247.906306 208.002402 249.439039 207.606006 250.971772 207.236036 262.057658 206.866066 270.064865 218.92973 270.064865 218.18979 261.925526 217.436637 250.681081 216.643844 249.016216 215.864264 247.338138 215.864264 246.783183 215.864264 246.228228 217.291291 242.858859 218.731532 239.489489 216.37958 238.287087 214.027628 237.084685 213.181982 237.084685 212.336336 237.084685 209.125526 238.855255 205.914715 240.612613 207.156757 243.704505 208.398799 246.796396"></polygon>
            <path d="M228.588589,203.536336 L212.230631,203.404204 L195.859459,203.285285 L196.52012,215.177177 L197.180781,227.069069 L204.104505,231.495495 L211.015015,235.908709 C211.567955,236.255104 212.212984,236.425576 212.864865,236.397598 C213.516503,236.373313 214.144477,236.147058 214.661862,235.75015 L221.770571,230.332733 L228.866066,224.915315 L228.733934,214.199399 L228.588589,203.536336 Z" id="Path" fill="#0099DA" fill-rule="nonzero" mask="url(#mask-8)"></path>
            <polygon id="Path" fill="#0097D7" fill-rule="nonzero" style="mix-blend-mode: multiply;" mask="url(#mask-8)" points="228.615015 203.523123 212.257057 203.404204 195.885886 203.272072 205.293694 219.537538 214.688288 235.803003 221.796997 230.372372 228.892492 224.954955 228.76036 214.239039"></polygon>
            <path d="M234.177778,188.142943 L234.666667,187.918318 L235.155556,187.693694 L235.644444,187.469069 L236.133333,187.244444 L236.331532,187.178378 L236.52973,187.178378 L236.727928,187.178378 L236.939339,187.178378 L237.084685,187.178378 L237.23003,187.178378 L237.388589,187.178378 L237.533934,187.178378 C237.728585,187.205967 237.916615,187.268644 238.088889,187.363363 C238.24748,187.464926 238.389996,187.589628 238.511712,187.733333 C238.621372,187.886401 238.706104,188.055867 238.762763,188.235435 C238.796057,188.427799 238.796057,188.624453 238.762763,188.816817 L238.472072,191.063063 L238.168168,193.296096 L237.877477,195.529129 L237.586787,197.775375 C237.577402,197.870428 237.555178,197.96377 237.520721,198.052853 C237.492256,198.145555 237.452306,198.234333 237.401802,198.317117 C237.361159,198.399905 237.307641,198.475722 237.243243,198.541742 C237.182865,198.61781 237.111633,198.68459 237.031832,198.73994 L236.384384,199.228829 L235.736937,199.730931 L235.195195,200.259459 L234.547748,200.761562 L234.30991,200.906907 C234.222197,200.953596 234.128978,200.989108 234.032432,201.012613 L233.754955,201.012613 L233.345345,201.012613 L233.213213,201.012613 L232.975375,201.012613 C232.773767,200.988908 232.579816,200.921251 232.407207,200.814414 C232.242332,200.71588 232.098622,200.585642 231.984384,200.431231 C231.86598,200.280372 231.784529,200.103893 231.746547,199.915916 C231.701373,199.720292 231.701373,199.516945 231.746547,199.321321 L232.169369,196.810811 L232.578979,194.3003 L233.001802,191.78979 L233.424625,189.279279 C233.43771,189.159088 233.473586,189.042493 233.53033,188.935736 C233.574445,188.823422 233.63213,188.716926 233.702102,188.618619 L233.873874,188.367568 L234.177778,188.142943 Z" id="Path" fill="#0099DA" fill-rule="nonzero" mask="url(#mask-8)"></path>
            <path d="M237.533934,187.191592 L237.388589,187.191592 L237.243243,187.191592 L237.084685,187.191592 L236.516517,187.191592 L236.318318,187.191592 L236.133333,187.270871 L235.631231,187.495495 L235.142342,187.72012 L234.653453,187.944745 L234.164565,188.169369 C234.053424,188.213186 233.95063,188.275756 233.860661,188.354354 C233.767373,188.427849 233.683104,188.512118 233.60961,188.605405 C233.539164,188.698664 233.481402,188.800857 233.437838,188.909309 C233.388775,189.019104 233.353278,189.134469 233.332132,189.252853 L233.252853,189.741742 L233.16036,190.243844 L233.081081,190.745946 L233.001802,191.234835 C233.029708,191.125093 233.069587,191.018749 233.120721,190.917718 C233.173157,190.822327 233.230491,190.72971 233.292492,190.64024 L233.53033,190.402402 L233.821021,190.230631 L234.336336,190.006006 L234.838438,189.768168 L235.340541,189.543544 L235.842643,189.305706 L236.040841,189.23964 L236.252252,189.23964 L236.82042,189.23964 L236.978979,189.23964 L237.137538,189.23964 L237.282883,189.23964 C237.448727,189.259869 237.609731,189.309064 237.758559,189.384985 C237.904339,189.44957 238.034896,189.544111 238.141742,189.662462 C238.252727,189.770768 238.346322,189.895561 238.419219,190.032432 C238.49734,190.172029 238.550968,190.323976 238.577778,190.481682 L238.577778,190.072072 L238.577778,189.662462 L238.577778,189.252853 L238.577778,188.843243 C238.618053,188.651542 238.618053,188.453563 238.577778,188.261862 C238.523851,188.0812 238.438901,187.911298 238.326727,187.75976 C238.208529,187.612637 238.065415,187.487412 237.903904,187.38979 C237.790819,187.306172 237.666197,187.23941 237.533934,187.191592 L237.533934,187.191592 Z" id="Path" fill="#42A9E0" fill-rule="nonzero" mask="url(#mask-8)"></path>
            <path d="M228.588589,166.209009 C228.256396,165.140345 227.263207,164.415586 226.144144,164.425037 L201.105105,164.425037 C200.5589,164.418537 200.025417,164.59018 199.585586,164.914114 C199.142216,165.245441 198.814071,165.707618 198.647447,166.235435 L196.229429,173.833033 L193.798198,181.457057 C193.798198,181.589189 193.798198,181.721321 193.705706,181.853453 C193.698685,181.981085 193.698685,182.109005 193.705706,182.236637 L193.705706,207.16997 C193.706772,207.453667 193.755916,207.73513 193.851051,208.002402 C193.938007,208.270711 194.072253,208.521304 194.247447,208.742342 L198.092492,213.710511 L201.937538,218.678679 C202.076799,218.859904 202.241455,219.02011 202.426426,219.154354 C202.613679,219.294122 202.817913,219.409559 203.034234,219.497898 L206.509309,220.819219 L209.984384,222.140541 L210.446847,222.272673 L210.922523,222.272673 L216.33994,222.272673 L216.815616,222.272673 L217.264865,222.140541 L220.73994,220.819219 L224.215015,219.497898 C224.432705,219.412409 224.637306,219.296765 224.822823,219.154354 C225.011889,219.020395 225.180949,218.860233 225.324925,218.678679 L229.16997,213.710511 L233.015015,208.742342 C233.185727,208.518391 233.319547,208.268593 233.411411,208.002402 C233.502301,207.734415 233.546981,207.45293 233.543544,207.16997 L233.543544,182.24985 C233.5571,182.122482 233.5571,181.994035 233.543544,181.866667 C233.525296,181.731911 233.494327,181.599186 233.451051,181.47027 L230.98018,173.833033 L228.588589,166.209009 Z" id="Path" fill="#0099DA" fill-rule="nonzero"></path>
            <path d="M233.398198,181.47027 L230.98018,173.833033 L228.588589,166.209009 C228.256396,165.140345 227.263207,164.415586 226.144144,164.42513 L218.625826,164.42513 C219.170617,164.427663 219.701341,164.598418 220.145345,164.914114 C220.583811,165.24741 220.907185,165.709373 221.07027,166.235435 L223.501502,173.872673 L225.91952,181.496697 C225.91952,181.628829 225.985586,181.760961 226.012012,181.893093 C226.019033,182.020724 226.019033,182.148645 226.012012,182.276276 L226.012012,207.20961 C226.015449,207.492569 225.970769,207.774055 225.87988,208.042042 C225.788128,208.31095 225.649447,208.56147 225.47027,208.781982 L221.625225,213.75015 L217.766967,218.757958 C217.631184,218.942247 217.466017,219.10295 217.278078,219.233634 C217.090825,219.373401 216.886591,219.488838 216.67027,219.577177 L213.261261,220.898498 L209.839039,222.21982 L209.905105,222.21982 L209.905105,222.21982 L210.367568,222.351952 L210.843243,222.351952 L216.260661,222.351952 L216.736336,222.351952 L217.185586,222.21982 L220.660661,220.898498 L224.135736,219.577177 C224.353425,219.491688 224.558027,219.376044 224.743544,219.233634 C224.93261,219.099674 225.101669,218.939513 225.245646,218.757958 L229.090691,213.78979 L232.935736,208.821622 C233.106447,208.59767 233.240267,208.347873 233.332132,208.081682 C233.423021,207.813695 233.467702,207.532209 233.464264,207.249249 L233.464264,182.24985 C233.477821,182.122482 233.477821,181.994035 233.464264,181.866667 C233.454644,181.732764 233.432526,181.600055 233.398198,181.47027 Z" id="Path" fill="#0097D7" fill-rule="nonzero" style="mix-blend-mode: multiply;"></path>
            <path d="M234.891291,166.605405 L232.737538,164.491291 L230.596997,162.377177 L228.443243,160.263063 L226.289489,158.148949 L226.289489,158.148949 L226.196997,158.082883 L226.104505,158.082883 C226.104505,158.082883 226.104505,158.082883 226.012012,158.082883 L224.267868,157.514715 L222.510511,156.933333 L220.766366,156.365165 L219.022222,155.796997 L211.821021,155.796997 L208.464865,157.118318 L205.095495,158.43964 L201.726126,159.760961 L198.356757,161.082282 L198.277477,161.082282 L198.184985,161.082282 L198.105706,161.082282 L198.105706,161.148348 L196.784384,162.575375 L195.463063,164.002402 L194.141742,165.416216 L192.82042,166.843243 L192.727928,166.962162 L192.648649,167.081081 C192.646445,167.125098 192.646445,167.169197 192.648649,167.213213 C192.648649,167.213213 192.648649,167.305706 192.648649,167.345345 L192.384384,169.433033 L192.106907,171.520721 L191.842643,173.608408 L191.578378,175.682883 L191.578378,175.881081 L191.855856,178.814414 L192.12012,181.734535 L192.384384,184.654655 L192.648649,187.587988 C192.636723,187.671247 192.636723,187.75578 192.648649,187.839039 C192.674239,187.923341 192.719531,188.000338 192.780781,188.063664 C192.832524,188.130753 192.895033,188.188797 192.965766,188.235435 C193.033221,188.287734 193.109217,188.327967 193.19039,188.354354 L193.375375,188.354354 C193.454241,188.385947 193.529537,188.425809 193.6,188.473273 C193.737815,188.57062 193.847262,188.702867 193.917117,188.856456 C193.946512,188.933501 193.968631,189.013127 193.983183,189.094294 L194.062462,189.741742 L194.154955,190.402402 L194.234234,191.04985 L194.326727,191.697297 L195.172372,191.697297 L195.595195,191.697297 L196.018018,191.697297 L196.018018,185.447447 L196.321922,183.293694 L196.625826,181.13994 L196.916517,178.986186 L197.22042,176.832432 L197.22042,176.673874 C197.236936,176.623106 197.259096,176.574353 197.286486,176.528529 C197.312822,176.481503 197.343808,176.437237 197.378979,176.396396 L197.484685,176.277477 L198.806006,175.154354 L200.127327,174.031231 L201.448649,172.894895 L202.76997,171.771772 C202.885833,171.669522 203.027499,171.600974 203.17958,171.573574 C203.317732,171.533924 203.46425,171.533924 203.602402,171.573574 C203.7454,171.611889 203.876916,171.684449 203.985586,171.784985 C204.094844,171.891473 204.176482,172.023001 204.223423,172.168168 L204.223423,172.37958 L204.289489,172.590991 L204.289489,172.789189 L204.355556,173.000601 C204.377132,173.081173 204.41293,173.157243 204.461261,173.225225 C204.499383,173.298126 204.553607,173.361387 204.61982,173.41021 C204.68199,173.46632 204.753553,173.511046 204.831231,173.542342 C204.904446,173.584331 204.985304,173.611283 205.069069,173.621622 L208.940541,174.255856 L212.812012,174.89009 L216.683483,175.524324 L220.554955,176.158559 C220.60269,176.146803 220.652565,176.146803 220.7003,176.158559 L220.832432,176.158559 L220.964565,176.237838 L221.07027,176.343544 L222.391592,177.664865 L223.712913,179.052252 L225.034234,180.373574 L226.355556,181.760961 L226.078078,180.162162 L225.787387,178.55015 L225.50991,176.951351 L225.232432,175.339339 C225.206145,175.235268 225.206145,175.126294 225.232432,175.022222 C225.247544,174.919148 225.283512,174.820237 225.338138,174.731532 C225.389252,174.640901 225.456409,174.560313 225.536336,174.493694 C225.619226,174.425572 225.713042,174.371963 225.813814,174.335135 L226.342342,174.163363 L226.857658,173.978378 L227.372973,173.793393 L227.901502,173.621622 C228.019023,173.59584 228.140737,173.59584 228.258258,173.621622 C228.373063,173.632182 228.484992,173.663522 228.588589,173.714114 C228.694569,173.764861 228.789009,173.836816 228.866066,173.925526 C228.950328,174.011214 229.013638,174.115224 229.051051,174.229429 L229.672072,176.079279 L230.293093,177.915916 L230.927327,179.765766 L231.231231,181.760961 L231.231231,181.906306 L231.627628,184.443243 L232.024024,186.98018 L232.42042,189.503904 L232.83003,192.040841 L233.60961,192.040841 L233.741742,191.195195 L233.860661,190.362763 L233.992793,189.53033 L234.111712,188.684685 C234.105972,188.627571 234.105972,188.570026 234.111712,188.512913 C234.127344,188.455319 234.154295,188.401417 234.190991,188.354354 C234.21848,188.30072 234.254141,188.251686 234.296697,188.209009 L234.428829,188.09009 L234.508108,188.09009 L234.587387,188.09009 L234.587387,188.09009 L234.666667,188.09009 L234.825225,187.944745 L234.944144,187.75976 C234.95354,187.694028 234.95354,187.627294 234.944144,187.561562 C234.958028,187.491775 234.958028,187.419937 234.944144,187.35015 L234.944144,167.226426 C234.950695,167.169357 234.950695,167.111725 234.944144,167.054655 C234.951619,166.997641 234.951619,166.939896 234.944144,166.882883 L234.864865,166.724324 L234.891291,166.605405 Z" id="Path" fill="#023852" fill-rule="nonzero"></path>
            <path d="M218.599399,155.612012 L211.768168,155.612012 L211.688889,155.612012 L208.31952,156.933333 L204.963363,158.254655 L201.593994,159.575976 L198.224625,160.897297 L198.132132,160.897297 L198.052853,160.897297 L197.973574,160.897297 L197.894294,160.963363 L196.572973,162.39039 L195.251652,163.817417 L193.93033,165.231231 L192.609009,166.658258 L192.516517,166.777177 L192.45045,166.896096 C192.443058,166.93983 192.443058,166.984494 192.45045,167.028228 C192.444303,167.072058 192.444303,167.116531 192.45045,167.16036 L192.45045,167.596396 L192.45045,168.019219 L192.384384,168.455255 L192.384384,168.878078 L194.485285,167.292492 L196.810811,165.548348 L198.819219,164.042042 L199.995195,163.156757 L200.061261,163.156757 L200.061261,163.156757 L200.127327,163.156757 L200.206607,163.156757 L203.298498,162.165766 L206.403604,161.161562 L209.508709,160.170571 L212.600601,159.166366 L218.757958,159.166366 L220.462462,159.575976 L222.153754,159.972372 L223.845045,160.381982 L225.54955,160.791592 L225.615616,160.791592 L225.694895,160.791592 L225.760961,160.791592 L225.760961,160.791592 L228.165766,162.377177 L230.557357,163.94955 L232.962162,165.535135 L235.353754,167.120721 L235.353754,166.763964 L233.133934,164.583784 L230.927327,162.403604 L228.707508,160.223423 L226.487688,158.043243 L226.408408,158.043243 L226.329129,157.977177 L226.236637,157.977177 L226.130931,157.977177 L224.386787,157.409009 L222.642643,156.827628 L220.898498,156.259459 L219.154354,155.691291 L219.075075,155.691291 L219.075075,155.691291 L218.92973,155.691291 L218.599399,155.612012 Z" id="Path" fill="#1B5679" fill-rule="nonzero"></path>
            <path d="M196.744745,218.757958 L196.440841,218.757958 L192.291892,222.629429 L188.142943,226.487688 L188.063664,226.487688 L187.971171,226.553754 L187.878679,226.553754 L187.786186,226.553754 L171.335736,232.393994 L154.872072,238.247447 L154.594595,238.577778 C154.519997,238.624379 154.453127,238.682333 154.396396,238.74955 C154.34334,238.82134 154.294798,238.89636 154.251051,238.974174 C154.210769,239.057497 154.184008,239.146702 154.171772,239.238438 L157.422222,242.885285 C157.444936,242.811535 157.475966,242.740609 157.514715,242.673874 C157.547766,242.601105 157.592388,242.534172 157.646847,242.475676 C157.700753,242.419304 157.758121,242.366348 157.818619,242.317117 L158.03003,242.198198 L173.648048,235.935135 L189.226426,229.751351 L189.318919,229.751351 L189.411411,229.751351 L189.490691,229.751351 L189.56997,229.672072 L193.071471,226.170571 L196.586186,222.669069 C196.637415,222.617716 196.681824,222.559985 196.718318,222.497297 C196.761988,222.442937 196.793525,222.379864 196.810811,222.312312 C196.840664,222.244532 196.862824,222.173619 196.876877,222.100901 C196.883854,222.030603 196.883854,221.959787 196.876877,221.889489 L196.797598,220.36997 L196.744745,218.757958 Z" id="Path" fill="#FFFFFF" fill-rule="nonzero"></path>
            <circle id="Oval" fill="#0099DA" fill-rule="nonzero" cx="151.951952" cy="82.4768769" r="7.47867868"></circle>
            <circle id="Oval" fill="#0099DA" fill-rule="nonzero" cx="269.54955" cy="114.188589" r="7.47867868"></circle>
            <circle id="Oval" fill="#0099DA" fill-rule="nonzero" cx="52.8528529" cy="127.401802" r="7.47867868"></circle>
            <circle id="Oval" fill="#0099DA" fill-rule="nonzero" cx="104.384384" cy="189.503904" r="7.47867868"></circle>
            <circle id="Oval" fill="#0099DA" fill-rule="nonzero" cx="400.36036" cy="221.215616" r="7.47867868"></circle>
            <circle id="Oval" fill="#0099DA" fill-rule="nonzero" cx="302.582583" cy="134.008408" r="7.47867868"></circle>
            <circle id="Oval" fill="#0099DA" fill-rule="nonzero" cx="258.978979" cy="155.14955" r="7.47867868"></circle>
        </g>
    </g>
</svg>