<?xml version="1.0" encoding="UTF-8"?>
<svg width="440px" height="330px" viewBox="0 0 440 330" version="1.1" xmlns="http://www.w3.org/2000/svg" xmlns:xlink="http://www.w3.org/1999/xlink">
    <title>Graphic elements / Icons / Rich icons / Growth data</title>
    <g id="Graphic-elements-/-Icons-/-Rich-icons-/-Growth-data" stroke="none" stroke-width="1" fill="none" fill-rule="evenodd">
        <g id="Growth-data" transform="translate(10.000000, 61.000000)" fill-rule="nonzero">
            <path d="M389.038806,204.37 L50.6328358,204.37 C49.0536462,204.37 47.5390617,203.79701 46.4189055,202.78 C45.8785242,202.282797 45.447523,201.695524 45.1492537,201.05 C44.8360088,200.379985 44.6785721,199.658574 44.6785721,198.93 L44.6785721,5.62 C44.6785721,4.89468031 44.8362873,4.17658353 45.1492537,3.51 C45.4448315,2.8631517 45.8761612,2.27543125 46.4189055,1.78 C47.5314809,0.752624777 49.0510126,0.179275149 50.6328358,0.189852201 L389.038806,0.189852201 C390.616841,0.181973665 392.131875,0.755114858 393.241791,1.78 C393.787809,2.27503593 394.222809,2.86269138 394.522388,3.51 C394.830465,4.17797285 394.993037,4.89514993 394.993037,5.62 L394.993037,198.93 C394.993037,200.375333 394.364047,201.761333 393.241791,202.78 C392.124327,203.794576 390.614202,204.36586 389.038806,204.37 L389.038806,204.37 Z" id="Path" fill="#023852"></path>
            <polygon id="Path" fill="#9DADB7" points="438.971144 201.1 329.39801 201.1 219.835821 201.1 110.262687 201.1 0.700497512 201.1 0.700497512 198.76 0.700497512 196.43 0.700497512 194.09 0.700497512 191.75 110.262687 191.75 219.835821 191.75 329.39801 191.75 438.971144 191.75 438.971144 194.09 438.971144 196.43 438.971144 198.76"></polygon>
            <path d="M416.467662,207.64 L23.1930348,207.64 C21.4564166,207.574171 19.7267152,207.400436 18.0159204,207.12 C15.7174129,206.79 13.0248756,206.31 10.4636816,205.72 C8.12810546,205.222882 5.84878078,204.526492 3.65572139,203.64 C1.86069652,202.86 0.700497512,202 0.700497512,201.1 L438.971144,201.1 C438.971144,202 437.810945,202.86 436.004975,203.64 C433.813172,204.529451 431.533536,205.225936 429.197015,205.72 C426.635821,206.31 423.943284,206.79 421.655721,207.12 C419.941188,207.400064 418.207874,207.573794 416.467662,207.64 Z" id="Path" fill="#CED6DB"></path>
            <g id="Group" opacity="0.6" style="mix-blend-mode: multiply;" transform="translate(146.666667, 191.000000)" fill="#023852">
                <polygon id="Path" points="146.294527 0.75 109.726368 0.75 73.1691542 0.75 36.600995 0.75 0.0328358209 0.75 3.87462687 2.33 7.70547264 3.91 11.5363184 5.48 15.3781095 7.06 44.2736318 7.06 73.1691542 7.06 102.064677 7.06 130.949254 7.06 134.791045 5.48 138.621891 3.91 142.463682 2.33"></polygon>
            </g>
            <polygon id="Path" fill="#0099DA" points="385.919403 184.17 302.943284 184.17 219.967164 184.17 136.991045 184.17 54.0039801 184.17 54.0039801 140.82 54.0039801 97.47 54.0039801 54.11 54.0039801 10.76 136.991045 10.76 219.967164 10.76 302.943284 10.76 385.919403 10.76 385.919403 54.11 385.919403 97.47 385.919403 140.82"></polygon>
            <g id="Group" opacity="0.2" transform="translate(53.631841, 11.000000)" fill="#FFFFFF">
                <polygon id="Path" points="0.525373134 0.08 49.5820896 43.35 98.6278607 86.62 147.684577 129.89 196.730348 173.16 257.181095 173.16 317.620896 173.16 324.910448 173.16 332.189055 173.16 332.189055 129.89 332.189055 86.62 332.189055 43.35 332.189055 0.08 275.853731 0.08 219.518408 0.08 110.021891 0.08"></polygon>
            </g>
            <g id="Group" opacity="0.2" transform="translate(109.452736, 39.000000)" fill="#FFFFFF">
                <polygon id="Path" points="239.154229 103.08 120.080597 103.08 0.9960199 103.08 0.9960199 102.73 0.9960199 102.39 120.080597 102.39 239.154229 102.39 239.154229 102.73"></polygon>
                <polygon id="Path" points="239.154229 92.95 120.080597 92.95 0.9960199 92.95 0.9960199 92.6 0.9960199 92.25 120.080597 92.25 239.154229 92.25 239.154229 92.6"></polygon>
                <polygon id="Path" points="239.154229 82.81 120.080597 82.81 0.9960199 82.81 0.9960199 82.47 0.9960199 82.12 120.080597 82.12 239.154229 82.12 239.154229 82.47"></polygon>
                <polygon id="Path" points="239.154229 72.68 120.080597 72.68 0.9960199 72.68 0.9960199 72.33 0.9960199 71.99 120.080597 71.99 239.154229 71.99 239.154229 72.33"></polygon>
                <polygon id="Path" points="239.154229 62.54 120.080597 62.54 0.9960199 62.54 0.9960199 62.2 0.9960199 61.85 120.080597 61.85 239.154229 61.85 239.154229 62.2"></polygon>
                <polygon id="Path" points="239.154229 52.41 120.080597 52.41 0.9960199 52.41 0.9960199 52.06 0.9960199 51.72 120.080597 51.72 239.154229 51.72 239.154229 52.06"></polygon>
                <polygon id="Path" points="239.154229 42.28 120.080597 42.28 0.9960199 42.28 0.9960199 41.93 0.9960199 41.58 120.080597 41.58 239.154229 41.58 239.154229 41.93"></polygon>
                <polygon id="Path" points="239.154229 32.14 120.080597 32.14 0.9960199 32.14 0.9960199 31.79 0.9960199 31.45 120.080597 31.45 239.154229 31.45 239.154229 31.79"></polygon>
                <polygon id="Path" points="239.154229 22.01 120.080597 22.01 0.9960199 22.01 0.9960199 21.66 0.9960199 21.31 120.080597 21.31 239.154229 21.31 239.154229 21.66"></polygon>
                <polygon id="Path" points="239.154229 11.87 120.080597 11.87 0.9960199 11.87 0.9960199 11.53 0.9960199 11.18 120.080597 11.18 239.154229 11.18 239.154229 11.53"></polygon>
                <polygon id="Path" points="239.154229 1.74 120.080597 1.74 0.9960199 1.74 0.9960199 1.39 0.9960199 1.05 120.080597 1.05 239.154229 1.05 239.154229 1.39"></polygon>
            </g>
            <g id="Group" opacity="0.5" transform="translate(107.263682, 159.000000)" fill="#FFFFFF">
                <polygon id="Path" points="0.0985074627 4.05 6.92835821 4.05 13.758209 4.05 13.758209 2.52 13.758209 0.99 6.92835821 0.99 0.0985074627 0.99 0.0985074627 2.52"></polygon>
                <polygon id="Path" points="25.4477612 4.05 32.2776119 4.05 39.1074627 4.05 39.1074627 2.52 39.1074627 0.99 32.2776119 0.99 25.4477612 0.99 25.4477612 2.52"></polygon>
                <polygon id="Path" points="50.7860697 4.05 57.6268657 4.05 64.4567164 4.05 64.4567164 2.52 64.4567164 0.99 57.6268657 0.99 50.7860697 0.99 50.7860697 2.52"></polygon>
                <polygon id="Path" points="76.1353234 4.05 82.9651741 4.05 89.7950249 4.05 89.7950249 2.52 89.7950249 0.99 82.9651741 0.99 76.1353234 0.99 76.1353234 2.52"></polygon>
                <polygon id="Path" points="101.484577 4.05 108.314428 4.05 115.144279 4.05 115.144279 2.52 115.144279 0.99 108.314428 0.99 101.484577 0.99 101.484577 2.52"></polygon>
                <polygon id="Path" points="126.833831 4.05 133.663682 4.05 140.493532 4.05 140.493532 2.52 140.493532 0.99 133.663682 0.99 126.833831 0.99 126.833831 2.52"></polygon>
                <polygon id="Path" points="152.183085 4.05 159.012935 4.05 165.842786 4.05 165.842786 2.52 165.842786 0.99 159.012935 0.99 152.183085 0.99 152.183085 2.52"></polygon>
                <polygon id="Path" points="177.532338 4.05 184.362189 4.05 191.19204 4.05 191.19204 2.52 191.19204 0.99 184.362189 0.99 177.532338 0.99 177.532338 2.52"></polygon>
                <polygon id="Path" points="202.870647 4.05 209.711443 4.05 216.541294 4.05 216.541294 2.52 216.541294 0.99 209.711443 0.99 202.870647 0.99 202.870647 2.52"></polygon>
                <polygon id="Path" points="228.2199 4.05 235.049751 4.05 241.890547 4.05 241.890547 2.52 241.890547 0.99 235.049751 0.99 228.2199 0.99 228.2199 2.52"></polygon>
            </g>
            <g id="Group" opacity="0.5" transform="translate(87.562189, 40.000000)" fill="#FFFFFF">
                <polygon id="Path" points="0.820895522 3.46 7.65074627 3.46 14.480597 3.46 14.480597 1.93 14.480597 0.39 7.65074627 0.39 0.820895522 0.39 0.820895522 1.93"></polygon>
                <polygon id="Path" points="0.820895522 14.38 7.65074627 14.38 14.480597 14.38 14.480597 12.84 14.480597 11.31 7.65074627 11.31 0.820895522 11.31 0.820895522 12.84"></polygon>
                <polygon id="Path" points="0.820895522 25.3 7.65074627 25.3 14.480597 25.3 14.480597 23.76 14.480597 22.23 7.65074627 22.23 0.820895522 22.23 0.820895522 23.76"></polygon>
                <polygon id="Path" points="0.820895522 36.22 7.65074627 36.22 14.480597 36.22 14.480597 34.68 14.480597 33.15 7.65074627 33.15 0.820895522 33.15 0.820895522 34.68"></polygon>
                <polygon id="Path" points="0.820895522 47.14 7.65074627 47.14 14.480597 47.14 14.480597 45.6 14.480597 44.07 7.65074627 44.07 0.820895522 44.07 0.820895522 45.6"></polygon>
                <polygon id="Path" points="0.820895522 58.06 7.65074627 58.06 14.480597 58.06 14.480597 56.52 14.480597 54.99 7.65074627 54.99 0.820895522 54.99 0.820895522 56.52"></polygon>
                <polygon id="Path" points="0.820895522 90.81 7.65074627 90.81 14.480597 90.81 14.480597 89.28 14.480597 87.75 7.65074627 87.75 0.820895522 87.75 0.820895522 89.28"></polygon>
                <polygon id="Path" points="0.820895522 101.74 7.65074627 101.74 14.480597 101.74 14.480597 100.2 14.480597 98.67 7.65074627 98.67 0.820895522 98.67 0.820895522 100.2"></polygon>
                <polygon id="Path" points="0.820895522 68.98 7.65074627 68.98 14.480597 68.98 14.480597 67.44 14.480597 65.91 7.65074627 65.91 0.820895522 65.91 0.820895522 67.44"></polygon>
                <polygon id="Path" points="0.820895522 79.9 7.65074627 79.9 14.480597 79.9 14.480597 78.36 14.480597 76.83 7.65074627 76.83 0.820895522 76.83 0.820895522 78.36"></polygon>
            </g>
            <polygon id="Path" fill="#FFE700" points="114.575124 150.24 114.19204 146.79 113.808955 143.34 164.069652 138.68 214.319403 134.03 239.975124 119.44 265.630846 104.86 291.965174 71.43 318.310448 37.99 321.397015 40.01 324.483582 42.03 297.700498 76.03 270.917413 110.02 243.882587 125.39 216.836816 140.76 165.700498 145.5"></polygon>
            <polygon id="Path" fill="#FFFFFF" points="112.189055 151.9 110.448756 148.3 108.708458 144.7 126.155224 137.67 143.60199 130.65 155.80597 115.84 167.999005 101.04 182.315423 72.54 196.631841 44.04 221.849751 40.28 247.067662 36.51 247.757214 40.39 248.457711 44.27 225.494527 47.7 202.542289 51.13 188.981095 78.11 175.430846 105.09 162.285572 121.05 149.129353 137.01 130.653731 144.46"></polygon>
        </g>
    </g>
</svg>