<svg width="49" height="32" viewBox="0 0 49 32" fill="none" xmlns="http://www.w3.org/2000/svg">
<path d="M39.7779 17.4727C36.7628 14.0345 33.1654 11.2727 29.545 8.52781C28.4943 9.3789 27.575 10.1905 26.5928 10.9007C25.5769 11.6527 24.5146 12.3416 23.4122 12.9636C22.2805 13.6187 20.9342 13.8116 19.6606 13.5009C18.3869 13.1903 17.2865 12.4009 16.5941 11.3009C16.2219 10.7641 16.0585 10.1127 16.1341 9.46655C16.2096 8.82036 16.519 8.22282 17.0052 7.78381C17.7362 7.09617 18.4842 6.42545 19.2151 5.73781C20.7626 4.2949 22.2701 2.81817 23.8633 1.3809L24.343 0.946902C24.4286 0.873629 24.6399 0.73272 24.5542 0.614357C24.4686 0.495993 24.2173 0.524175 24.0917 0.501629C23.8576 0.462175 23.6235 0.417084 23.4122 0.394539C22.879 0.335343 22.3408 0.335343 21.8076 0.394539C20.7797 0.512902 19.7519 0.625629 18.7298 0.772175C17.7669 0.900242 16.8133 1.0885 15.8746 1.33581C12.8367 2.19254 10.0273 2.25454 7.24636 0.619993C6.1043 -0.0450977 5.40764 0.293084 4.85946 1.49363C3.33671 4.81157 1.8292 8.13139 0.336907 11.4531C0.206303 11.7621 0.093815 12.0782 0 12.4C0.114338 12.503 0.236516 12.5972 0.365459 12.6818L0.736627 12.9805L1.47325 13.5442L2.90654 14.6714C3.78592 15.376 4.67102 16.0693 5.53898 16.7851C5.60507 16.8496 5.68816 16.8945 5.77881 16.9147C5.89302 16.9147 5.97296 16.8189 6.04149 16.7456L6.37268 16.43C7.05792 15.7649 7.75457 15.1111 8.43981 14.4516L8.64538 14.2487C8.70248 14.1924 8.7653 14.136 8.8224 14.074C10.387 12.5465 12.5341 12.8284 13.6362 14.7278C13.8931 15.1674 14.0816 15.6409 14.31 16.12C16.6626 15.9114 18.0103 17.0444 18.5756 19.1185C21.3336 19.0002 22.253 19.5864 23.298 22.1171C23.652 22.1171 24.046 22.1171 24.44 22.1171C25.0658 22.1275 25.6708 22.3405 26.1619 22.7234C26.653 23.1063 27.003 23.6379 27.1581 24.2364C27.5693 25.4256 27.7634 26.5642 26.5357 27.5167C25.4336 28.3678 24.4286 29.3316 23.1781 30.4251C25.3194 31.434 26.5357 30.9887 27.5978 29.2978C27.7977 28.9822 28.1689 28.5031 28.443 28.5313C30.5615 28.7736 31.6864 27.7929 32.0519 25.8484C35.7693 25.8484 36.0148 25.6962 37.0598 23.0302C38.4588 23.1485 39.9663 23.3571 40.7144 21.7676C41.4624 20.1782 40.8971 18.7184 39.7779 17.4727Z" fill="#0099DA"></path>
<path d="M17.6448 9.40146C17.8246 9.09937 18.0351 8.8161 18.2729 8.556C20.9339 5.96891 23.6406 3.42127 26.2673 0.806002C27.3066 -0.225452 28.4658 -0.0732702 29.6592 0.242366C31.7778 0.755275 33.8563 1.41473 35.9863 1.85437C37.0057 2.03742 38.0525 2.01024 39.0608 1.77452C40.0691 1.53881 41.017 1.09967 41.845 0.48473C42.7758 -0.13527 43.3126 -0.0225429 43.8208 0.98073C45.3683 4.01873 46.9671 7.02855 48.5375 10.044C49.257 11.4193 49.1485 11.5715 47.8922 12.5691C46.3504 13.7865 44.9171 15.1393 43.4382 16.43C42.2561 17.4727 41.9763 17.3938 40.8229 16.3455C37.8649 13.702 34.8613 11.1093 31.8634 8.51091C31.5414 8.25971 31.1974 8.03714 30.8356 7.84582C29.1225 6.80309 29.1225 6.85382 27.5693 8.15018C25.742 9.65509 24.1146 11.4756 21.6934 12.0956C19.6491 12.6593 17.6562 11.4362 17.6448 9.40146Z" fill="#0099DA"></path>
<path d="M5.86447 21.4971C5.49344 21.1286 5.2852 20.6301 5.2852 20.1106C5.2852 19.591 5.49344 19.0926 5.86447 18.724L9.29064 15.2915C9.6612 14.9211 10.165 14.7104 10.6923 14.7051C11.2197 14.6998 11.7277 14.9005 12.1058 15.2633V15.2633C12.4724 15.6355 12.6756 16.1354 12.6714 16.6545C12.6671 17.1736 12.4557 17.6701 12.083 18.0364L8.6568 21.4633C8.28795 21.8276 7.78938 22.0351 7.26761 22.0414C6.74584 22.0477 6.24226 21.8524 5.86447 21.4971Z" fill="#0099DA"></path>
<path d="M13.6358 18.0839L10.1273 21.6191C9.388 22.364 9.40047 23.5595 10.1552 24.2892L10.2653 24.3957C11.02 25.1255 12.2312 25.1132 12.9705 24.3682L16.479 20.8331C17.2183 20.0882 17.2058 18.8927 16.4511 18.1629L16.341 18.0564C15.5863 17.3267 14.3751 17.339 13.6358 18.0839Z" fill="#0099DA"></path>
<path d="M17.9519 21.3158L14.444 24.8516C13.7048 25.5966 13.7175 26.7921 14.4723 27.5217L14.5825 27.6282C15.3373 28.3578 16.5485 28.3453 17.2877 27.6002L20.7955 24.0645C21.5347 23.3194 21.522 22.124 20.7672 21.3944L20.657 21.2879C19.9022 20.5583 18.6911 20.5708 17.9519 21.3158Z" fill="#0099DA"></path>
<path d="M22.4299 24.1542L18.9214 27.6893C18.1821 28.4343 18.1946 29.6297 18.9493 30.3595L19.0594 30.466C19.8141 31.1957 21.0253 31.1834 21.7646 30.4385L25.2731 26.9033C26.0124 26.1584 25.9999 24.9629 25.2452 24.2332L25.1351 24.1267C24.3804 23.397 23.1692 23.4093 22.4299 24.1542Z" fill="#0099DA"></path>
</svg>