<?xml version="1.0" encoding="UTF-8"?>
<svg width="440px" height="330px" viewBox="0 0 440 330" version="1.1" xmlns="http://www.w3.org/2000/svg" xmlns:xlink="http://www.w3.org/1999/xlink">
    <title>Graphic elements / Icons / Rich icons / innovation</title>
    <defs>
        <linearGradient x1="0.00661069611%" y1="49.9550696%" x2="100.052886%" y2="49.9550696%" id="linearGradient-1">
            <stop stop-color="#FFFFFF" stop-opacity="0" offset="7%"></stop>
            <stop stop-color="#FEF7DD" stop-opacity="0.14" offset="14%"></stop>
            <stop stop-color="#FDEAA8" stop-opacity="0.37" offset="27%"></stop>
            <stop stop-color="#FCDF7A" stop-opacity="0.56" offset="40%"></stop>
            <stop stop-color="#FBD655" stop-opacity="0.72" offset="53%"></stop>
            <stop stop-color="#FBCF38" stop-opacity="0.84" offset="65%"></stop>
            <stop stop-color="#FACA23" stop-opacity="0.93" offset="78%"></stop>
            <stop stop-color="#FAC716" stop-opacity="0.98" offset="89%"></stop>
            <stop stop-color="#FAC612" offset="100%"></stop>
        </linearGradient>
    </defs>
    <g id="Graphic-elements-/-Icons-/-Rich-icons-/-innovation" stroke="none" stroke-width="1" fill="none" fill-rule="evenodd">
        <g id="Innovation" transform="translate(104.000000, 0.000000)" fill-rule="nonzero">
            <path d="M224.670503,116.43716 C224.670503,116.307553 224.670503,116.187915 224.670503,116.058308 C224.670503,115.928701 224.670503,115.809063 224.670503,115.689426 C224.670503,115.330514 224.670503,114.971601 224.670503,114.612689 C224.670503,114.253776 224.670503,113.894864 224.670503,113.545921 C224.670503,113.366465 224.670503,113.187009 224.670503,113.007553 L224.670503,112.479154 L224.609366,111.571903 C224.609366,111.27281 224.609366,110.973716 224.549547,110.664653 C224.489728,110.355589 224.549547,110.285801 224.499698,110.086405 C224.449849,109.887009 224.499698,109.697583 224.449849,109.508157 C224.4,109.318731 224.449849,108.939879 224.38006,108.660725 C224.310272,108.381571 224.38006,108.092447 224.300302,107.813293 C224.220544,107.534139 224.250453,107.424471 224.230514,107.225076 C224.210574,107.02568 224.230514,106.836254 224.160725,106.636858 L224.070997,105.809366 C224.070997,105.530211 224.011178,105.251057 223.971299,104.981873 C223.93142,104.712689 223.92145,104.573112 223.891541,104.373716 L223.801813,103.765559 C223.801813,103.496375 223.732024,103.23716 223.692145,102.967976 L223.572508,102.170393 C223.572508,101.961027 223.512689,101.751662 223.47281,101.542296 C223.432931,101.332931 223.403021,101.123565 223.373112,100.914199 C223.343202,100.704834 223.283384,100.40574 223.243505,100.146526 C223.203625,99.8873112 223.153776,99.6380665 223.113897,99.378852 L222.99426,98.7507553 L222.874622,98.1226586 L222.725076,97.3649547 C222.675227,97.11571 222.635347,96.8664653 222.575529,96.6172205 C222.51571,96.3679758 222.49577,96.1984894 222.445921,95.9891239 C222.396073,95.7797583 222.356193,95.5703927 222.306344,95.3610272 C222.256495,95.1516616 222.196677,94.8625378 222.146828,94.6132931 C222.096979,94.3640483 222.03716,94.1247734 221.977341,93.8755287 L221.827795,93.247432 L221.678248,92.6293051 L221.498792,91.8915408 L221.319335,91.1537764 C221.259517,90.9444109 221.199698,90.7450151 221.149849,90.5356495 C221.1,90.326284 221.030211,90.1169184 220.980363,89.9075529 C220.930514,89.6981873 220.850755,89.429003 220.780967,89.1897281 C220.711178,88.9504532 220.65136,88.7111782 220.581571,88.4719033 L220.402115,87.8438066 C220.342296,87.6444109 220.272508,87.4350453 220.212689,87.2256798 L220.003323,86.5178248 C219.933535,86.2785498 219.863746,86.0392749 219.783988,85.8099698 C219.70423,85.5806647 219.654381,85.3912387 219.584592,85.1918429 C219.514804,84.9924471 219.454985,84.7731118 219.385196,84.573716 C219.315408,84.3743202 219.23565,84.105136 219.155891,83.865861 C219.076133,83.6265861 219.006344,83.4072508 218.926586,83.1779456 L218.717221,82.5598187 C218.637462,82.3504532 218.567674,82.1410876 218.497885,81.9416918 L218.25861,81.2537764 C218.168882,81.0244713 218.089124,80.7951662 218.009366,80.565861 C217.929607,80.3365559 217.859819,80.1570997 217.78006,79.9577039 L217.540785,79.339577 C217.461027,79.1202417 217.371299,78.8909366 217.281571,78.6716012 C217.191843,78.4522659 217.112085,78.2229607 217.022356,77.9936556 C216.932628,77.7643505 216.86284,77.5848943 216.773112,77.3854985 C216.683384,77.1861027 216.613595,76.9767372 216.523867,76.7773414 L216.254683,76.1093656 L215.985498,75.4513595 L215.716314,74.8432024 C215.626586,74.6438066 215.536858,74.4444109 215.4571,74.2450151 C215.377341,74.0456193 215.257704,73.8063444 215.167976,73.5870091 L214.878852,72.9389728 L214.599698,72.3407855 L214.320544,71.7425982 L214.02145,71.1045317 C213.921752,70.8851964 213.812085,70.6758308 213.712387,70.4564955 L213.423263,69.8682779 L213.124169,69.2800604 C213.024471,69.0607251 212.914804,68.8513595 212.815106,68.641994 C212.715408,68.4326284 212.59577,68.2232628 212.496073,68.0138973 L212.187009,67.4256798 L211.877946,66.847432 L211.548943,66.2193353 C211.439275,66.0099698 211.329607,65.8006042 211.20997,65.6012085 C211.090332,65.4018127 211.000604,65.2123867 210.890937,65.0229607 L210.571903,64.4546828 C210.452266,64.2453172 210.342598,64.0359517 210.222961,63.8365559 C210.103323,63.6371601 209.993656,63.4277946 209.874018,63.218429 L209.545015,62.6501511 C209.425378,62.4607251 209.31571,62.2712991 209.206042,62.0818731 L208.84713,61.4836858 L208.488218,60.8854985 L208.139275,60.3172205 C208.019637,60.1377644 207.9,59.9483384 207.790332,59.7589124 C207.680665,59.5694864 207.541088,59.3601208 207.41148,59.1706949 L207.042598,58.5725076 L206.683686,58.0241692 C206.554079,57.844713 206.434441,57.655287 206.314804,57.4758308 L205.925982,56.8975831 C205.806344,56.6981873 205.676737,56.5087613 205.53716,56.3093656 L205.168278,55.770997 L204.789426,55.2326284 C204.659819,55.0432024 204.530211,54.8438066 204.390634,54.6543807 L203.991843,54.0861027 L203.603021,53.5477341 L203.214199,53.0193353 C203.074622,52.8398792 202.945015,52.6504532 202.805438,52.4610272 L202.386707,51.8927492 L201.987915,51.3743202 L201.389728,50.8459215 L200.961027,50.2876133 L200.532326,49.7392749 L200.113595,49.2208459 L199.704834,48.7123867 L199.266163,48.1740181 L198.827492,47.6356495 L198.398792,47.1271903 L197.970091,46.6287009 L197.52145,46.1003021 L197.07281,45.5719033 L196.634139,45.0734139 L196.195468,44.5848943 L195.736858,44.0664653 L195.268278,43.5480363 L194.819637,43.0694864 L194.370997,42.5809668 L193.892447,42.0824773 L193.413897,41.5740181 C193.26435,41.4145015 193.114804,41.2549849 192.955287,41.1054381 L192.496677,40.6268882 L192.008157,40.1383686 L191.519637,39.6498489 L191.051057,39.1812689 L190.572508,38.7126888 L190.074018,38.234139 L189.575529,37.7655589 L189.096979,37.3069486 L188.628399,36.8882175 L188.11994,36.4196375 L187.61148,35.9510574 L187.112991,35.5123867 L186.614502,35.073716 L186.096073,34.6151057 L185.577644,34.1664653 L185.069184,33.7277946 L184.560725,33.3090634 L184.032326,32.860423 L183.503927,32.4217523 L182.985498,32.0030211 L182.467069,31.58429 L181.928701,31.1555891 L181.390332,30.7268882 L180.861934,30.3181269 L180.333535,29.9193353 L179.785196,29.5006042 L179.236858,29.0918429 L178.698489,28.6930514 L178.150151,28.3042296 L177.591843,27.8954683 L177.033535,27.4966767 L176.485196,27.1178248 L175.936858,26.7389728 L175.36858,26.3501511 L174.800302,25.9613293 L174.241994,25.5924471 L173.673716,25.223565 L173.095468,24.844713 L172.517221,24.4758308 L171.958912,24.1169184 L171.390634,23.7679758 L170.792447,23.4090634 C170.603021,23.2794562 170.403625,23.1598187 170.20423,23.0401813 L169.625982,22.7012085 L169.047734,22.3622356 L168.459517,22.0132931 L167.861329,21.6643505 L167.273112,21.3353474 L166.684894,21.0163142 L166.076737,20.6773414 L165.46858,20.3483384 L164.870393,20.0293051 L164.282175,19.7202417 L163.664048,19.4012085 L163.045921,19.0821752 L162.447734,18.7830816 L161.839577,18.4839879 C161.630211,18.38429 161.420846,18.2845921 161.22145,18.1749245 L160.593353,17.8758308 L159.985196,17.5867069 L159.367069,17.3075529 L158.738973,17.018429 L158.100906,16.7293051 L157.482779,16.4601208 L156.864653,16.1909366 L156.226586,15.9117825 L155.58852,15.6425982 L154.960423,15.3833837 L154.322356,15.1241692 L153.67432,14.8649547 L153.036254,14.61571 L152.398187,14.3664653 L151.760121,14.1271903 L151.102115,13.8879154 L150.444109,13.6486405 L149.806042,13.4193353 L149.167976,13.1900302 L148.549849,12.9607251 L147.881873,12.7314199 L147.233837,12.5220544 L146.585801,12.3126888 L145.917825,12.0933535 L145.249849,11.8939577 L144.591843,11.6945619 L143.933837,11.4951662 L143.255891,11.3057402 L142.577946,11.1163142 L141.90997,10.9268882 L141.251964,10.7574018 L140.564048,10.5779456 L139.876133,10.3984894 L139.208157,10.229003 L138.540181,10.0694864 L137.852266,9.90996979 L137.154381,9.75045317 L136.476435,9.60090634 L135.808459,9.45135952 L135.110574,9.31178248 L134.412689,9.17220544 L133.724773,9.0326284 L133.046828,8.90302115 L132.338973,8.78338369 L131.641088,8.65377644 L130.953172,8.53413897 L130.265257,8.4244713 L129.557402,8.31480363 L128.839577,8.20513595 L128.151662,8.10543807 L127.453776,8.01570997 L126.745921,7.92598187 C126.506647,7.88610272 126.267372,7.85619335 126.028097,7.83625378 L125.330211,7.74652568 L124.622356,7.66676737 L123.904532,7.58700906 L123.186707,7.51722054 L122.478852,7.44743202 L121.770997,7.38761329 L121.053172,7.38761329 L120.325378,7.32779456 L119.617523,7.32779456 L118.909668,7.32779456 L118.181873,7.32779456 L117.444109,7.32779456 L116.736254,7.32779456 L116.018429,7.32779456 L115.280665,7.32779456 L114.5429,7.32779456 L113.835045,7.32779456 L110.844109,7.32779456 L109.328701,7.32779456 L107.813293,7.3776435 L107.524169,7.3776435 L107.245015,7.3776435 L105.430514,7.47734139 L103.616012,7.60694864 L103.157402,7.60694864 L102.688822,7.60694864 C102.100604,7.60694864 101.512387,7.70664653 100.934139,7.77643505 L99.1794562,7.96586103 L98.341994,8.06555891 L97.4845921,7.97583082 L96.4178248,8.12537764 L95.3510574,8.28489426 L93.6561934,8.55407855 L91.9712991,8.85317221 L91.7220544,8.91299094 L91.4030211,8.97280967 C50.5182772,16.7654339 17.2765776,46.494282 4.98489426,86.2586103 L4.98489426,86.1888218 L4.98489426,86.129003 C3.52902988,90.8424536 2.39321193,95.6488621 1.58519637,100.515408 C0.736717784,105.483193 0.227082648,110.502933 0.0598187311,115.539879 C-0.340323288,127.419644 1.14361908,139.287818 4.45649547,150.703323 L4.30694864,150.37432 C4.24712991,150.264653 4.19728097,150.154985 4.14743202,150.045317 C7.0149722,160.164366 11.2977795,169.827534 16.8688822,178.748338 L16.8688822,178.748338 L16.9187311,178.828097 L16.9685801,178.897885 C17.5966767,179.894864 18.2347432,180.891843 18.8927492,181.888822 C19.5507553,182.885801 20.2287009,183.882779 20.8867069,184.79003 L44.8640483,220.332326 L68.7915408,255.934441 C72.5194919,261.462858 74.5089554,267.979827 74.5042296,274.647734 L74.5042296,276.641692 C74.5015781,278.361202 75.1834771,280.011049 76.3993561,281.226928 C77.615235,282.442807 79.2650817,283.124706 80.9845921,283.122054 L113.705438,283.122054 L113.705438,283.231722 L81.5030211,283.231722 C80.0847014,283.237188 78.9362814,284.385608 78.9308157,285.803927 L78.9308157,295.235347 L78.7613293,295.235347 L78.8311178,295.843505 L78.9009063,296.451662 L78.9009063,303.729607 L78.7613293,303.729607 L78.8311178,304.337764 L78.9009063,304.945921 L78.9009063,311.924773 L78.7613293,311.924773 L78.8311178,312.532931 L78.9009063,313.141088 L78.9009063,313.858912 C78.9063979,317.815566 82.1125306,321.021699 86.0691843,321.02719 L95.7099698,321.02719 C96.0888218,323.529607 98.1126888,325.75287 101.173414,327.358006 C108.548308,330.814563 117.077976,330.814563 124.45287,327.358006 C127.513595,325.75287 129.537462,323.529607 129.916314,321.02719 L138.58006,321.02719 C142.158717,321.021418 145.186489,318.380622 145.67855,314.835952 C145.738369,314.546828 145.798187,314.247734 145.838066,313.94864 C145.877946,313.649547 145.838066,313.340483 145.838066,313.02145 L145.838066,285.385196 C145.840732,284.786805 145.604201,284.212152 145.18107,283.789021 C144.757939,283.36589 144.183286,283.129359 143.584894,283.132024 L143.564955,283.132024 C145.284465,283.134676 146.934312,282.452777 148.150191,281.236898 C149.36607,280.021019 150.047969,278.371172 150.045317,276.651662 L150.045317,274.657704 C150.040591,267.989796 152.030055,261.472828 155.758006,255.944411 L179.61571,220.491843 L203.473414,185.049245 C204.204532,184.045619 204.912387,183.028701 205.596979,181.998489 C206.294864,181.001511 206.96284,179.924773 207.590937,178.867976 L207.590937,178.798187 L207.640785,178.728399 L207.640785,178.728399 C208.51148,177.345921 209.345619,175.940181 210.143202,174.511178 C210.950755,173.075529 211.718429,171.629909 212.466163,170.16435 C212.466163,170.074622 212.555891,169.984894 212.60574,169.895166 L212.745317,169.616012 C212.944713,169.217221 213.154079,168.808459 213.343505,168.399698 C213.532931,167.990937 213.742296,167.572205 213.931722,167.163444 L214.111178,166.784592 C214.179156,166.658909 214.239095,166.529041 214.290634,166.39577 C214.48006,165.996979 214.659517,165.608157 214.838973,165.209366 C215.018429,164.810574 215.187915,164.401813 215.367372,164.003021 C215.42719,163.863444 215.496979,163.713897 215.556798,163.56435 C215.616616,163.414804 215.676435,163.275227 215.746224,163.12568 C215.90574,162.736858 216.075227,162.338066 216.234743,161.939275 C216.39426,161.540483 216.563746,161.151662 216.723263,160.75287 L216.902719,160.28429 L217.082175,159.82568 L217.540785,158.619335 L217.989426,157.412991 L218.138973,156.97432 C218.188822,156.824773 218.238671,156.685196 218.298489,156.53565 L218.72719,155.279456 C218.876737,154.860725 219.016314,154.432024 219.155891,154.013293 L219.155891,153.843807 C219.155891,153.793958 219.155891,153.734139 219.20574,153.68429 C219.504834,152.74713 219.793958,151.80997 220.073112,150.87281 C220.342296,149.92568 220.601511,148.97855 220.860725,148.03142 L220.950453,147.672508 C220.950453,147.55287 221.020242,147.433233 221.050151,147.313595 C221.139879,146.974622 221.219637,146.63565 221.299396,146.316616 L221.538671,145.319637 C221.608459,145.060423 221.668278,144.791239 221.728097,144.532024 C221.787915,144.27281 221.857704,144.003625 221.917523,143.734441 C221.977341,143.465257 222.04713,143.106344 222.116918,142.787311 C222.186707,142.468278 222.246526,142.159215 222.306344,141.850151 L222.485801,140.95287 L222.665257,140.045619 C222.715106,139.746526 222.774924,139.447432 222.824773,139.148338 C222.874622,138.849245 222.934441,138.540181 222.98429,138.241088 C223.034139,137.941994 223.083988,137.603021 223.143807,137.244109 L223.293353,136.24713 C223.293353,135.958006 223.383082,135.668882 223.422961,135.379758 L223.542598,134.502417 C223.592447,134.163444 223.632326,133.814502 223.672205,133.505438 C223.712085,133.196375 223.761934,132.817523 223.801813,132.508459 C223.841692,132.199396 223.861631,131.950151 223.901511,131.670997 L223.991239,130.833535 C223.991239,130.464653 224.061027,130.09577 224.090937,129.726888 L224.320242,128.610272 C224.320242,128.351057 224.320242,128.091843 224.39003,127.832628 L224.449849,127.054985 C224.449849,126.636254 224.449849,126.217523 224.519637,125.788822 L224.579456,124.532628 C224.579456,124.313293 224.579456,124.093958 224.579456,123.884592 L224.579456,123.236556 C224.579456,122.598489 224.579456,121.950453 224.629305,121.312387 C224.679154,120.67432 224.629305,120.026284 224.629305,119.378248 C224.629305,118.889728 224.629305,118.381269 224.629305,117.922659 C224.629305,117.464048 224.679154,116.91571 224.670503,116.43716 Z" id="Path" fill="#003A5D" opacity="0.2" style="mix-blend-mode: multiply;"></path>
            <path d="M230.302144,113.346526 C230.33665,65.6215723 200.223783,23.08015 155.201089,7.24887194 C110.178395,-8.58240611 60.0670908,5.74988379 30.2242667,42.9933828 C0.381442577,80.2368819 -2.68300921,132.26732 22.581571,172.756495 L22.581571,172.756495 L22.6314199,172.826284 L22.6314199,172.896073 C23.2595166,173.893051 23.9075529,174.89003 24.5655589,175.887009 C25.223565,176.883988 25.8915408,177.821148 26.5595166,178.778248 L50.4870091,214.380363 L74.4145015,249.982477 C78.1443553,255.51371 80.1339056,262.034436 80.1271903,268.70574 L80.1271903,270.699698 C80.1321901,272.43763 80.8350554,274.100721 82.0779434,275.315489 C83.3208314,276.530257 84.9995687,277.194887 86.7371601,277.161419 L149.187915,277.161419 C150.905699,277.161419 152.552981,276.477054 153.766702,275.261463 C154.980423,274.045872 155.660955,272.39754 155.658308,270.679758 L155.658308,268.685801 C155.651593,262.014496 157.641143,255.493771 161.370997,249.962538 L185.228701,214.50997 L209.086405,179.067372 C209.810876,178.0571 210.518731,177.040181 211.20997,176.016616 C211.907855,175.019637 212.585801,173.9429 213.203927,172.886103 L213.203927,172.816314 L213.253776,172.756495 L213.253776,172.756495 C224.374833,154.93974 230.248958,134.349205 230.202417,113.346526 L230.302144,113.346526 Z" id="Path" fill="#FFE700"></path>
            <path d="M91.7220544,315.045569 L144.27281,315.045569 C148.216834,315.039816 151.411178,311.841007 151.411178,307.896979 L151.411178,279.802115 C151.405713,278.389301 150.261756,277.245345 148.848943,277.239866 L87.0960725,277.239866 C86.4138679,277.237723 85.7596504,277.510913 85.281571,277.997583 C84.7981633,278.472964 84.5283358,279.124148 84.5337544,279.802115 L84.5337544,307.926888 C84.5364263,309.826139 85.2968285,311.645829 86.6463376,312.982236 C87.9958466,314.318643 89.8228692,315.061257 91.7220544,315.045569 Z" id="Path" fill="#C8C8C4"></path>
            <polygon id="Path" fill="#DFE4E6" points="84.6734139 308.405438 84.5238671 307.189124 84.38429 305.97281 117.643505 302.034743 150.902719 298.096677 151.052266 299.312991 151.191843 300.529305 117.932628 304.467372"></polygon>
            <polygon id="Path" fill="#DFE4E6" points="84.6734139 300.210272 84.5238671 298.993958 84.38429 297.777644 117.643505 293.839577 150.902719 289.901511 151.052266 291.117825 151.191843 292.334139 117.932628 296.272205"></polygon>
            <polygon id="Path" fill="#DFE4E6" points="84.6734139 291.696073 84.5238671 290.479758 84.38429 289.263444 117.643505 285.325378 150.902719 281.387311 151.052266 282.603625 151.191843 283.81994 117.932628 287.758006"></polygon>
            <g id="Group" opacity="0.2" style="mix-blend-mode: multiply;" transform="translate(118.640483, 277.160121)" fill="#023852">
                <path d="M30.6072508,-2.16840434e-19 L0.697885196,-2.16840434e-19 L0.697885196,37.8254349 L24.9942598,37.8254349 C27.0952467,37.8333831 29.1123492,37.0016272 30.5970456,35.5150585 C32.0817421,34.0284898 32.9109554,32.0103407 32.9004035,29.9093656 L32.9004035,2.22326284 C32.8975908,1.62408001 32.6573734,1.05042638 32.2323263,0.628096677 C31.7980094,0.207353832 31.211638,-0.0192805261 30.6072508,-2.16840434e-19 L30.6072508,-2.16840434e-19 Z" id="Path"></path>
            </g>
            <path d="M102.080665,315.105136 C102.080665,317.806949 104.004834,320.249547 107.065559,322.024169 C114.714996,325.839523 123.712497,325.839523 131.361934,322.024169 C134.472508,320.249547 136.396677,317.806949 136.396677,315.105136 L102.080665,315.105136 Z" id="Path" fill="#272221"></path>
            <path d="M142.877039,234.848338 L141.281873,234.479456 L139.686707,234.110574 L151.540785,182.44713 L163.394864,130.803625 L154.65136,122.060121 L145.897885,113.306647 L140.344713,118.859819 L134.791541,124.412991 L137.782477,127.403927 L140.713595,130.335045 L136.586103,134.37281 L132.518429,138.450453 L128.400906,134.382779 L124.273414,130.315106 L127.26435,127.324169 L130.255287,124.333233 L124.622356,118.879758 L119.069184,113.326586 L113.516012,118.879758 L107.96284,124.432931 L110.953776,127.423867 L113.944713,130.414804 L109.617825,134.273112 L105.290937,138.13142 L101.392749,134.243202 L97.5045317,130.345015 L100.43565,127.413897 L103.426586,124.422961 L97.8933535,118.889728 L92.3601208,113.356495 L84.2048338,122.070091 L76.0495468,130.783686 L87.8039275,182.44713 L99.6978852,234.110574 L98.102719,234.479456 L96.5075529,234.848338 L84.4141994,182.337462 L72.3706949,129.826586 L82.2706949,119.238671 L92.1806647,108.670695 L98.9102719,115.400302 L105.639879,122.129909 L112.349547,115.420242 L119.059215,108.710574 L125.768882,115.420242 L132.47855,122.129909 L139.188218,115.420242 L145.897885,108.710574 L156.445921,119.25861 L166.993958,129.796677 L154.940483,182.327492 L142.877039,234.848338 Z M128.919335,130.295166 L130.713897,132.069789 L132.498489,133.834441 L134.263142,132.069789 L136.027795,130.305136 L134.253172,128.530514 L132.46858,126.745921 L130.693958,128.520544 L128.919335,130.295166 Z M102.070695,130.295166 L103.71571,131.940181 L105.360725,133.585196 L107.235045,131.910272 L109.119335,130.225378 L107.374622,128.480665 L105.679758,126.745921 L103.895166,128.530514 L102.070695,130.295166 Z" id="Shape" fill="#FFFDEB"></path>
            <g id="Group" opacity="0.8" transform="translate(9.969789, 0.000000)" fill="#FFFCE0">
                <path d="M99.4187311,21.3652568 C135.076768,21.3808211 168.612174,38.3152013 189.79245,67.0012909 C210.972726,95.6873805 217.285032,132.721844 206.803323,166.804532 C227.163149,129.164655 224.376475,83.2278578 199.61598,48.3251259 C174.855484,13.422394 132.419815,-4.38684199 90.1666237,2.39184777 C47.9134324,9.17053754 13.1782558,39.360311 0.578247734,80.2567976 C20.2046482,43.9593371 58.1549344,21.3476424 99.4187311,21.3652568 Z" id="Path"></path>
            </g>
            <path d="M158.88852,250.012387 L115.280665,228.078852 L71.6728097,206.145317 C70.4564955,205.587009 69.2501511,204.998792 68.0537764,204.400604 C66.8574018,203.802417 65.670997,203.17432 64.4945619,202.536254 L64.4048338,202.536254 L64.3151057,202.486405 L64.3151057,202.486405 C42.0515705,190.329783 23.9288061,171.797347 12.2728097,149.267674 C11.8241692,148.410272 11.3954683,147.5429 10.9667674,146.685498 C10.5380665,145.828097 10.1392749,144.950755 9.7305136,144.083384 C12.5999374,154.204889 16.8826019,163.871091 22.4519637,172.796375 L22.4519637,172.796375 L22.5018127,172.866163 L22.5516616,172.935952 C23.1797583,173.932931 23.8277946,174.929909 24.4858006,175.926888 C25.1438066,176.923867 25.8117825,177.861027 26.4797583,178.818127 L50.4072508,214.420242 L74.3347432,250.022356 C78.064597,255.55359 80.0541473,262.074315 80.047432,268.745619 L80.047432,270.739577 C80.047432,274.318582 82.9487892,277.21994 86.5277946,277.21994 L148.97855,277.21994 C150.696333,277.21994 152.343616,276.536873 153.557337,275.321282 C154.771058,274.105691 155.451589,272.457359 155.448943,270.739577 L155.448943,268.745619 C155.45076,265.625642 155.890394,262.521355 156.754985,259.523565 C157.619719,256.527718 158.894637,253.665861 160.543505,251.019335 L159.686103,250.540785 C159.516616,250.32145 159.187613,250.161934 158.88852,250.012387 Z" id="Path" fill="url(#linearGradient-1)" style="mix-blend-mode: multiply;"></path>
        </g>
    </g>
</svg>