<svg width="440" height="330" xmlns="http://www.w3.org/2000/svg"><defs><linearGradient x1="49.995%" y1="0%" x2="49.995%" y2="100.022%" id="a"><stop stop-color="#FFF" stop-opacity="0" offset="0%"/><stop stop-color="#FEF7E2" stop-opacity=".14" offset="8%"/><stop stop-color="#FCE9B3" stop-opacity=".36" offset="22%"/><stop stop-color="#FBDE8A" stop-opacity=".56" offset="36%"/><stop stop-color="#FAD468" stop-opacity=".72" offset="49%"/><stop stop-color="#F9CD4F" stop-opacity=".84" offset="63%"/><stop stop-color="#F8C73C" stop-opacity=".93" offset="76%"/><stop stop-color="#F8C431" stop-opacity=".98" offset="88%"/><stop stop-color="#F8C32D" offset="100%"/></linearGradient></defs><g transform="translate(110)" fill-rule="nonzero" fill="none"><ellipse fill="#023852" cx="110.442" cy="324.58" rx="12.514" ry="4.986"/><path d="M75.876 323.545h63.23c1.23 0 2.228-.998 2.228-2.229V310.79H73.636v10.526a2.228 2.228 0 002.24 2.229z" fill="#D7DCE0"/><path d="M76.406 312.368h62.17a5.95 5.95 0 005.95-5.95v-26.496h-74.07v26.496a5.95 5.95 0 005.95 5.95z" fill="#ADBAC0"/><path d="M218.751 109.43A109.177 109.177 0 00107.95.265C47.91 1.12-.542 51.078.36 111.068a109.045 109.045 0 0045.694 87.16A28.736 28.736 0 0158.1 221.607v43.683c.04 14.025 11.4 25.384 25.425 25.424h52.125c14.025-.04 25.385-11.4 25.425-25.424v-43.683a29.013 29.013 0 0112.2-23.522 109.045 109.045 0 0045.477-88.654z" fill="#FFE700"/><path d="M174.996 22.016a102.722 102.722 0 0125.919 68.12c0 35.252-17.946 66.445-45.502 85.51a27.7 27.7 0 00-12.2 22.703v42.154c0 13.489-11.442 24.52-25.425 24.52H65.663a26.195 26.195 0 01-7.768-1.204v1.313c.04 14.025 11.399 25.385 25.424 25.425h52.126c14.025-.04 25.384-11.4 25.424-25.425V221.51a29.038 29.038 0 0112.2-23.533 109.177 109.177 0 001.927-175.96z" fill="url(#a)" style="mix-blend-mode:multiply"/><path d="M110.092 34.132c53.76-.014 99.535 39.102 107.9 92.207 6.66-42.557-12.323-85.053-48.464-108.49-36.14-23.439-82.683-23.439-118.824 0C14.564 41.285-4.419 83.781 2.24 126.338c8.373-53.082 54.114-92.188 107.852-92.207z" fill="#FFF48F"/><path d="M113.44 290.882h-7.756V134.144l-29.88-29.76a12.501 12.501 0 01-6.119 1.577c-6.972-.02-12.61-5.685-12.597-12.658.013-6.972 5.673-12.616 12.646-12.61 6.972.007 12.621 5.662 12.621 12.634a12.49 12.49 0 01-1.204 5.408l28.809 28.7 28.4-28.266a12.405 12.405 0 01-1.579-6.095 12.634 12.634 0 117.227 11.418l-30.567 30.399v155.99zM69.686 88.474A4.818 4.818 0 1074.6 93.29a4.89 4.89 0 00-4.914-4.817zm79.754-.265a4.818 4.818 0 104.914 4.817 4.89 4.89 0 00-4.914-4.817z" fill="#023852"/></g></svg>