<?xml version="1.0" encoding="UTF-8"?>
<svg width="440px" height="330px" viewBox="0 0 440 330" version="1.1" xmlns="http://www.w3.org/2000/svg" xmlns:xlink="http://www.w3.org/1999/xlink">
    <title>Graphic elements / Icons / Rich icons / Integrator searching (male)</title>
    <g id="Graphic-elements-/-Icons-/-Rich-icons-/-Integrator-searching-(male)" stroke="none" stroke-width="1" fill="none" fill-rule="evenodd">
        <g id="Integrator-searching-(male)" transform="translate(41.000000, 85.000000)" fill-rule="nonzero">
            <polygon id="Path" fill="#9DADB7" points="307.53 244.92 309.46 244.92 311.39 244.92 304.44 180.86 297.49 116.8 295.56 116.8 293.63 116.8 300.58 180.86"></polygon>
            <polygon id="Path" fill="#9DADB7" points="160.88 244.92 158.95 244.92 157.02 244.92 163.97 180.86 170.92 116.8 172.85 116.8 174.78 116.8 167.83 180.86"></polygon>
            <polygon id="Path" fill="#0D0E10" points="59.2 207.09 54.61 213.07 50.03 219.05 58.29 221.21 66.54 223.38 67.57 221.95 68.6 220.52 63.9 213.8"></polygon>
            <polygon id="Path" fill="#023852" points="122.6 167.62 95.71 194.8 68.82 221.97 62.86 215.42 56.9 208.87 77.14 180.6 97.38 152.34 109.99 159.98"></polygon>
            <polygon id="Path" fill="#06233C" opacity="0.6" style="mix-blend-mode: multiply;" points="97.43 193.07 109.98 180.39 122.53 167.7 109.92 160.06 97.31 152.42 89.67 163.1 82.03 173.77 89.73 183.42"></polygon>
            <path d="M121.62,105.14 L117.91,83.36 L114.2,61.58 L114.2,61.46 L114.11,57.09 L114.02,52.72 C114.011387,52.4443172 113.950297,52.1728039 113.84,51.92 C113.721297,51.6730379 113.554744,51.4521002 113.35,51.27 L112,50 L110.61,48.75 C110.503363,48.6579235 110.389682,48.5743349 110.27,48.5 C110.143804,48.4349785 110.013532,48.3781931 109.88,48.33 L106.75,47.33 L103.61,46.33 C103.437358,46.2798251 103.259528,46.2496275 103.08,46.24 C102.904229,46.2148374 102.725771,46.2148374 102.55,46.24 L99.35,47 L96.16,47.77 C95.1655105,48.007053 94.5099024,48.9559595 94.64,49.97 L94.64,50.08 L94.64,50.19 C94.7686951,51.1439424 95.5586695,51.8708868 96.52,51.92 L96.93,51.92 L97.33,51.92 C97.7802654,51.9411835 98.2101716,52.1138508 98.55,52.41 C98.8850161,52.7075756 99.1103967,53.1090347 99.19,53.55 L99.71,56.38 L100.23,59.21 C100.3355,59.7685269 100.673669,60.2557808 101.16,60.55 L102.8,61.55 L104.45,62.55 C105.065089,62.9051046 105.445713,63.5597779 105.45,64.27 L105.31,78.38 L105.17,92.5 L105.17,92.64 C105.17,92.64 105.17,92.73 105.17,92.78 L105.65,97.26 L106.14,101.73 C106.224157,102.278951 106.561086,102.756575 107.05,103.02 C107.544527,103.309324 108.126243,103.412188 108.69,103.31 L112.15,102.68 L115.62,102.04 C116.12,101.95 117.62,102.94 119.04,103.82 C120.46,104.7 121.66,105.65 121.62,105.14 Z" id="Path" fill="#4897C6"></path>
            <path d="M111.58,92.94 C111.58,92.89 111.58,92.85 111.58,92.8 C111.57496,92.7534694 111.57496,92.7065306 111.58,92.66 L111.72,78.54 L111.86,64.43 C111.86062,64.0811247 111.774724,63.7375393 111.61,63.43 C111.440284,63.1294821 111.195689,62.8779968 110.9,62.7 L109.25,61.7 L107.6,60.7 C107.110065,60.4115734 106.773149,59.9208472 106.68,59.36 L106.16,56.53 L105.64,53.7 C105.470508,52.7925031 104.701892,52.118931 103.78,52.07 L103.37,52.07 L102.97,52.07 C102.505552,52.0472511 102.063546,51.8633766 101.72,51.55 C101.374683,51.2329639 101.151704,50.8047021 101.09,50.34 L101.09,50.23 L101.09,50.12 C100.959082,49.1090016 101.609535,48.1613214 102.6,47.92 L104.23,47.53 L105.86,47.14 L104.74,46.78 L103.61,46.43 C103.437358,46.3798251 103.259528,46.3496275 103.08,46.34 C102.904229,46.3148374 102.725771,46.3148374 102.55,46.34 L99.35,47.1 L96.16,47.87 C95.1655105,48.107053 94.5099024,49.0559595 94.64,50.07 L94.64,50.18 L94.64,50.29 C94.7686951,51.2439424 95.5586695,51.9708868 96.52,52.02 L96.93,52.02 L97.33,52.02 C97.7802654,52.0411835 98.2101716,52.2138508 98.55,52.51 C98.8850161,52.8075756 99.1103967,53.2090347 99.19,53.65 L99.71,56.48 L100.23,59.31 C100.3355,59.8685269 100.673669,60.3557808 101.16,60.65 L102.8,61.65 L104.45,62.65 C105.065089,63.0051046 105.445713,63.6597779 105.45,64.37 L105.31,78.48 L105.17,92.6 L105.17,92.74 C105.17,92.74 105.17,92.83 105.17,92.88 L105.65,97.36 L106.14,101.83 C106.224157,102.378951 106.561086,102.856575 107.05,103.12 C107.544527,103.409324 108.126243,103.512188 108.69,103.41 L110.81,103.02 L112.93,102.63 C112.841462,102.516366 112.76755,102.392059 112.71,102.26 C112.649054,102.123354 112.608618,101.978458 112.59,101.83 L112.1,97.36 L111.58,92.94 Z" id="Path" fill="#66C2E9" style="mix-blend-mode: multiply;"></path>
            <polygon id="Path" fill="#023852" points="113.87 117.12 235.57 117.12 357.26 117.12 357.26 111.99 357.26 106.86 235.57 106.86 113.87 106.86 113.87 111.99"></polygon>
            <path d="M118,231.92 L118,243.83 C118.003703,244.088868 118.107659,244.336211 118.29,244.52 C118.473789,244.702341 118.721132,244.806297 118.98,244.81 L126.46,244.81 C126.72234,244.808895 126.973739,244.704744 127.16,244.52 C127.342341,244.336211 127.446297,244.088868 127.45,243.83 L127.45,243.83 C127.451403,243.525728 127.591263,243.238647 127.83,243.05 C128.072772,242.867095 128.385555,242.804538 128.68,242.88 L132.54,243.88 L136.39,244.93 L136.51,244.93 L159.51,244.93 L159.67,244.93 L162.67,243.93 L165.67,242.93 C165.865264,242.860952 166.035746,242.7357 166.16,242.57 C166.280265,242.403968 166.346593,242.204984 166.35,242 L166.35,240.12 C166.348139,239.889785 166.266901,239.667264 166.12,239.49 C165.9717,239.313126 165.766779,239.192999 165.54,239.15 L158.54,237.83 L151.54,236.51 C151.467387,236.500644 151.396595,236.480417 151.33,236.45 C151.257956,236.419734 151.190608,236.379325 151.13,236.33 L143.87,230.89 L136.62,225.45 C136.361621,225.258076 136.026658,225.202249 135.72,225.3 L127.23,228.13 L118.71,231 C118.514266,231.062988 118.345274,231.189732 118.23,231.36 C118.097314,231.518419 118.016965,231.714053 118,231.92 Z" id="Path" fill="#0D0E10"></path>
            <path d="M48.43,216.59 L45.37,221.7 L42.32,226.81 C42.1889695,227.033143 42.1495407,227.298392 42.21,227.55 C42.2741355,227.804509 42.4357604,228.023601 42.66,228.16 L45.87,230.07 L49.08,231.99 C49.3031433,232.12103 49.5683919,232.160459 49.82,232.1 C50.0708063,232.033521 50.285954,231.87216 50.42,231.65 L50.42,231.65 C50.5790849,231.390362 50.8478003,231.217353 51.15,231.18 C51.4548605,231.149085 51.7570667,231.259648 51.97,231.48 L54.7,234.3 L57.44,237.13 L57.58,237.26 L57.72,237.38 L62.39,240.7 L67.05,244.03 C67.3216649,244.225033 67.6218873,244.376831 67.94,244.48 C68.2636479,244.581076 68.6009401,244.63167 68.94,244.63004 L76.35,244.58 L83.76,244.58 C84.1695609,244.57447 84.5714332,244.467991 84.93,244.27 C85.2842423,244.064354 85.5802249,243.771813 85.79,243.42 L85.87,243.29 L85.95,243.15 C86.1571884,242.789446 86.1907431,242.354687 86.0413338,241.966611 C85.8919246,241.578535 85.5754838,241.278525 85.18,241.15 L80,239.4 L74.8,237.72 L74.65,237.56 C74.60686,237.498705 74.5731521,237.431289 74.55,237.36 L71.55,229.78 L68.55,222.21 C68.4096245,221.866838 68.1943865,221.559355 67.92,221.31 C67.6314571,221.063657 67.2888302,220.888917 66.92,220.8 L58.22,218.47 L49.52,216.13 C49.1246733,216.06958 48.7313648,216.250502 48.52,216.59 L48.43,216.59 Z" id="Path" fill="#0D0E10"></path>
            <path d="M123.21,139.17 L118,134.73 L112.81,130.29 C112.532847,130.050852 112.214265,129.864447 111.87,129.74 C111.523452,129.61766 111.157374,129.560037 110.79,129.57 L90.48,130.07 L70.17,130.57 C70.0869948,130.580458 70.0030052,130.580458 69.92,130.57 L69.68,130.57 C60.8722658,129.358378 51.9906418,128.763597 43.1,128.789158 C31.01,128.99 19.46,131.07 19.68,138.37 C19.8195093,143.807697 21.9346513,149.008458 25.63,153 C27.8373848,155.410522 30.4673997,157.39659 33.39,158.86 C33.6121272,158.969564 33.8473753,159.050221 34.09,159.1 C34.3366643,159.150181 34.588495,159.170328 34.84,159.16 L63.32,157.89 L91.8,156.63 C93.8899277,156.523321 95.8799908,157.53167 97.03,159.28 L99.37,162.78 L101.71,166.28 C101.861411,166.504259 101.991956,166.741919 102.1,166.99 C102.20093,167.236242 102.281206,167.490452 102.34,167.75 L109.09,199.12 L115.84,230.5 C116.02051,231.320081 116.536461,232.026971 117.262475,232.448895 C117.988489,232.870819 118.858103,232.969153 119.66,232.72 L127.4,230.29 L135.14,227.85 C136.547714,227.404024 137.421545,225.999956 137.2,224.54 L130.71,182.76 L124.22,141 C124.170194,140.648339 124.054866,140.309141 123.88,140 C123.709144,139.684794 123.482074,139.403499 123.21,139.17 L123.21,139.17 Z" id="Path" fill="#023852"></path>
            <path d="M20.18,139.15 L20.18,139 C20.2107748,136.22516 21.3696978,133.582383 23.39,131.68 C25.4137237,129.75976 28.1106647,128.711149 30.9,128.76 L47.98,129.29 L65.06,129.82 L69.79,130.14 L74.52,130.47 L50.84,141.4 L27.15,152.34 C24.7176237,150.70135 22.7918085,148.41531 21.59,145.74 C20.670531,143.664088 20.1904709,141.420402 20.18,139.15 L20.18,139.15 Z" id="Path" fill="#06233C" opacity="0.6" style="mix-blend-mode: multiply;"></path>
            <path d="M70.64,38.75 C71.2553571,38.2435251 71.9518125,37.8445845 72.7,37.57 C73.7,37.08 74.7,36.57 74.63,36.41 L72.31,27.89 L70,19.37 C69.9081102,19.0451427 69.874258,18.7066204 69.9,18.37 C69.9177695,18.032623 69.9680015,17.6977427 70.05,17.37 L71.9,12.37 L73.74,7.37 C73.9048937,6.99992672 74.1904546,6.69673857 74.55,6.51 C74.9154309,6.2921604 75.2964698,6.10164094 75.69,5.94 L80.77,4.55 L85.83,3 C86.241618,2.79437596 86.6740874,2.63345711 87.12,2.52 C87.528171,2.3989138 87.9691999,2.46874337 88.32,2.71 L98.66,8.51 L109,14.31 L109.42,17.87 L109.84,21.43 L109.84,21.72 L109.84,22.01 L109.41,23.29 L108.98,24.57 C108.912643,24.7623762 108.888737,24.9672847 108.91,25.17 C108.930916,25.3761987 108.999376,25.5747352 109.11,25.75 L111.18,29.24 L113.26,32.72 C113.367772,32.9002493 113.435949,33.1013709 113.46,33.31 C113.47841,33.5200187 113.451118,33.7315333 113.38,33.93 L113.38,33.93 C113.310768,34.1395302 113.190488,34.3285414 113.03,34.48 C112.870072,34.6324373 112.679026,34.7484294 112.47,34.82 L110.77,35.35 L109.08,35.88 C108.829068,35.9580659 108.604283,36.1033114 108.43,36.3 C108.25518,36.5007684 108.140769,36.7469261 108.1,37.01 L107.41,41.33 L106.72,45.66 C106.49727,47.0022015 105.719897,48.1886738 104.578279,48.9288231 C103.43666,49.6689725 102.036235,49.8944387 100.72,49.55 L100.07,49.38 L99.43,49.2 L99.34,49.2 L98.2,48.96 L97,48.7 C95.8035682,48.4542156 94.5611048,48.5690651 93.43,49.03 L88.67,52.55 L83.91,56.07 L78.11,52.63 L72.3,49.19 L71.49,43.97 L70.64,38.75 Z" id="Path" fill="#0099DA"></path>
            <path d="M89.07,30.53 L89.07,25.72 C89.0759274,25.6970431 89.0759274,25.6729569 89.07,25.65 C89.0735107,25.6335182 89.0735107,25.6164818 89.07,25.6 L87.94,25 L86.82,24.41 C86.7882545,24.3954495 86.7517455,24.3954495 86.72,24.41 C86.693901,24.4022188 86.666099,24.4022188 86.64,24.41 L86.19,25.06 L85.74,25.7 C85.7149914,25.7433162 85.7149914,25.7966838 85.74,25.84 C85.7577263,25.8904104 85.8066495,25.9230258 85.86,25.92 L86.59,25.92 L87.31,25.92 L87.39,25.92 C87.3945808,25.9431085 87.3945808,25.9668915 87.39,25.99 L88.11,28.23 L88.84,30.47 C88.855014,30.538219 88.921254,30.582379 88.99,30.57 C89.0203231,30.5657729 89.0484245,30.5517222 89.07,30.53 Z" id="Path" fill="#66C2E9" style="mix-blend-mode: multiply;"></path>
            <path d="M72.92,37.21 L71.07,27.71 L69.22,18.2 C69.1333229,17.899458 69.1333229,17.580542 69.22,17.28 L70.57,13 L71.91,8.7 C71.9420593,8.58752123 71.9891509,8.47988325 72.05,8.38 C72.1109108,8.27706653 72.1812101,8.17998651 72.26,8.09 L74.58,5.58 L76.9,3.06 C77.1606862,2.77627157 77.5166055,2.59831191 77.9,2.56 L84.34,1.8 L90.79,1.05 C90.9225824,1.02998742 91.0574176,1.02998742 91.19,1.05 C91.3237122,1.06667301 91.4547625,1.10027567 91.58,1.15 L101.17,5 L110.76,8.88 C111.007554,8.97902887 111.227231,9.13692162 111.4,9.34 C111.566084,9.54758527 111.682394,9.79046722 111.74,10.05 L112.07,11.68 L112.41,13.32 C112.487135,13.6552862 112.452001,14.0066274 112.31,14.32 C112.176925,14.6260371 111.953655,14.8841942 111.67,15.06 L110.76,15.61 L109.85,16.16 C109.419516,16.4250607 108.888638,16.4696099 108.42,16.28 L104.71,14.81 L101,13.32 C100.408561,13.0863752 99.7350215,13.2227629 99.2810633,13.6680743 C98.8271051,14.1133856 98.6777911,14.7841783 98.9,15.38 L99.26,16.38 L99.61,17.38 C99.7189947,17.7044235 99.7189947,18.0555765 99.61,18.38 C99.5212699,18.7010671 99.336303,18.9872422 99.08,19.2 L97.19,20.76 L95.29,22.31 C95.1212264,22.4514832 94.9819176,22.6247698 94.88,22.82 C94.7793241,23.0191446 94.7214174,23.2371461 94.71,23.46 L94.56,26.14 L94.41,28.82 L92.87,28.63 L91.33,28.44 L91.33,26.65 L91.28,24.86 C91.2715421,24.5492323 91.1743892,24.2473645 91,23.99 C90.8174333,23.7345774 90.5684371,23.5339972 90.28,23.41 L89.28,22.99 L88.23,22.56 C88.0748019,22.4920628 87.909028,22.4514651 87.74,22.44 C87.5709017,22.4152387 87.3990983,22.4152387 87.23,22.44 L86.47,22.63 L85.71,22.82 C85.1183209,22.9571775 84.6519858,23.4119505 84.5,24 L84.1,25.82 L83.69,27.63 C83.69,27.71 83.56,28.51 83.41,29.54 C83.26,30.57 83.07,31.83 82.91,32.84 C82.8231468,33.3496254 82.5944,33.8244482 82.25,34.21 C81.9142816,34.5837133 81.4816253,34.857152 81,35 L77,36.11 L72.92,37.21 Z" id="Path" fill="#023852"></path>
            <path d="M112.41,13.35 L112.07,11.71 L111.74,10.08 C111.682394,9.82046722 111.566084,9.57758527 111.4,9.37 C111.227231,9.16692162 111.007554,9.00902887 110.76,8.91 L101.17,5 L91.58,1.11 C91.4547625,1.06027567 91.3237122,1.02667301 91.19,1.01 C91.0574176,0.989987421 90.9225824,0.989987421 90.79,1.01 L84.34,1.76 L77.9,2.52 C77.5166055,2.55831191 77.1606862,2.73627157 76.9,3.02 L74.58,5.54 L72.26,8.05 C72.1812101,8.13998651 72.1109108,8.23706653 72.05,8.34 C71.9891509,8.43988325 71.9420593,8.54752123 71.91,8.66 L71.27,10.66 L70.64,12.66 L72.84,10.27 L75.05,7.87 C75.1796389,7.73197363 75.3318086,7.617001 75.5,7.53 C75.6732357,7.44664942 75.8590867,7.39258367 76.05,7.37 L82.49,6.61 L88.94,5.86 C89.0725824,5.83998742 89.2074176,5.83998742 89.34,5.86 C89.4737122,5.87667301 89.6047625,5.91027567 89.73,5.96 L99.32,10 L108.91,13.88 C109.157554,13.9790289 109.377231,14.1369216 109.55,14.34 C109.716084,14.5475853 109.832394,14.7904672 109.89,15.05 L109.99,15.55 L110.09,16.05 L110.88,15.57 L111.67,15.09 C111.953655,14.9141942 112.176925,14.6560371 112.31,14.35 C112.452001,14.0366274 112.487135,13.6852862 112.41,13.35 Z" id="Path" fill="#4E7486"></path>
            <path d="M111.41,32.58 L109.94,30.12 L108.48,27.67 L108.48,31.17 L108.48,34.68 L109.64,34.39 L110.8,34.11 C111.12089,34.0388376 111.386321,33.8145298 111.51,33.51 C111.622639,33.2012599 111.585701,32.8577357 111.41,32.58 L111.41,32.58 Z" id="Path" fill="#0099DA"></path>
            <path d="M99.25,49.18 L95,47.35 L90.78,45.53 L89.19,43 L87.56,40.45 C87.4389315,40.2573257 87.2148651,40.15512 86.99,40.19 C86.7654357,40.2303769 86.5854072,40.3986644 86.53,40.62 L85.24,45.97 L84,51.29 L85.13,52.88 L86.27,54.47 L89.55,51.97 L92.82,49.48 C93.3356488,49.0890861 93.9289038,48.8129156 94.56,48.67 C95.1928754,48.5349479 95.8471246,48.5349479 96.48,48.67 L97.89,48.93 L99.25,49.18 Z" id="Path" fill="#66C2E9" style="mix-blend-mode: multiply;"></path>
            <path d="M106.09,101.23 L105.59,97.05 L105.09,92.87 C105.066767,92.6954998 105.023135,92.524329 104.96,92.36 C104.895301,92.1952485 104.807779,92.0404023 104.7,91.9 L97.17,81.7 L89.64,71.51 C89.5706939,71.4194295 89.5104072,71.3223009 89.46,71.22 C89.4022963,71.1197512 89.3585585,71.0120891 89.33,70.9 L86.24,61.1 L83.14,51.3 C83.1032527,51.1637979 83.0494963,51.0327667 82.98,50.91 C82.9115677,50.7889282 82.8311654,50.6750249 82.74,50.57 L77.54,44.57 L72.35,38.57 C72.1135457,38.2926415 71.8057953,38.0851693 71.46,37.97 C71.1203523,37.8482028 70.7540808,37.8205596 70.4,37.89 L68.81,38.2 L67.23,38.5 C66.9782806,38.5493987 66.7376787,38.6442839 66.52,38.78 C66.3016454,38.915728 66.1115084,39.0922838 65.96,39.3 L63.71,42.36 L61.45,45.42 C61.3682906,45.5302715 61.2780106,45.6339263 61.18,45.73 C61.0749751,45.8211654 60.9610718,45.9015677 60.84,45.97 L55,49.41 L49.17,52.85 C49.0027448,52.9507084 48.8511368,53.0753639 48.72,53.22 C48.5813896,53.360506 48.4665569,53.5226228 48.38,53.7 L41.29,67.7 L34.2,81.7 L34.2,81.82 C34.1982754,81.8566464 34.1982754,81.8933536 34.2,81.93 L28,99.21 L21.85,116.43 C21.81742,116.521542 21.7906994,116.615064 21.77,116.71 C21.7651469,116.806606 21.7651469,116.903394 21.77,117 L21.35,124.58 L20.94,132.15 C20.8983051,132.750998 21.129741,133.338772 21.57,133.75 C22.0032098,134.176112 22.6066474,134.382164 23.21,134.31 L44.16,132.06 L65.16,129.82 C66.5849229,129.667921 67.8801207,128.923374 68.7286259,127.76857 C69.577131,126.613766 69.9006465,125.155265 69.62,123.75 L69.62,123.75 C69.5594316,123.416683 69.5800116,123.073683 69.68,122.75 C69.7900133,122.417272 69.9826989,122.117922 70.24,121.88 L77.65,114.96 L85,108 C85.1369095,107.878846 85.2880137,107.774752 85.45,107.69 C85.613186,107.601749 85.7883591,107.537743 85.97,107.5 L95.24,105.5 L104.51,103.5 C105.009124,103.386147 105.449831,103.094712 105.75,102.68 C106.041105,102.256383 106.162454,101.738866 106.09,101.23 Z" id="Path" fill="#FFFFFF"></path>
            <path d="M90.64,76.42 L91.21,80.29 L91.78,84.16 L91.08,92.44 L90.39,100.71 L97.39,101.31 L104.39,101.91 L104.1,97.22 L103.81,92.53 L97.58,84.31 L91.35,76.09 C91.2309647,75.9271355 91.0147142,75.8689142 90.83,75.95 C90.6712296,76.0487056 90.5944282,76.238688 90.64,76.42 L90.64,76.42 Z" id="Path" fill="#A6DBF2"></path>
            <path d="M82.28,110.53 L77.84,110.64 L73.41,110.74 L63.28,97.4 L53.16,84.06 C52.9294353,83.7707462 52.5206963,83.6961751 52.2028418,83.8853742 C51.8849872,84.0745733 51.7556635,84.4694199 51.9,84.81 L60.6,103.7 L69.3,122.58 L75.79,116.58 L82.28,110.53 Z" id="Path" fill="#A6DBF2"></path>
            <path d="M161.45,105.56 L158,101.5 L154.58,97.45 C154.510232,97.361335 154.421359,97.2895529 154.32,97.24 C154.216992,97.190027 154.104457,97.1627459 153.99,97.16 L148.26,97.02 L142.54,96.88 C142.434757,96.881184 142.330278,96.8980355 142.23,96.93 C142.133407,96.9697988 142.045195,97.0274754 141.97,97.1 L138.84,100 L135.68,102.92 C135.599608,102.998077 135.504406,103.059278 135.4,103.1 C135.287498,103.119408 135.172502,103.119408 135.06,103.1 L112.94,99.35 L90.81,95.61 L84.39,99.53 L78,103.51 C77.9385666,103.52997 77.8810516,103.56042 77.83,103.6 C77.77865,103.637999 77.7316936,103.681602 77.69,103.73 L75.25,106.61 L72.82,109.5 C72.6181326,109.741094 72.5740399,110.077234 72.7068976,110.362236 C72.8397553,110.647237 73.1255533,110.829594 73.44,110.83 L145.61,110.83 C145.76095,110.825506 145.908536,110.784319 146.04,110.71 C146.163914,110.627313 146.263921,110.513512 146.33,110.38 L147.1,108.86 L147.87,107.33 C147.935926,107.199055 148.036156,107.088457 148.16,107.01 C148.289043,106.930007 148.438184,106.888387 148.59,106.89 L160.86,106.89 C161.174447,106.889594 161.460245,106.707237 161.593102,106.422236 C161.72596,106.137234 161.681867,105.801094 161.48,105.56 L161.45,105.56 Z" id="Path" fill="#0099DA"></path>
            <path d="M75.47,108.19 L76.82,106.7 L78.18,105.21 C78.5582348,104.787564 79.1159614,104.571909 79.68,104.63 L107.15,107.32 L134.62,110 C134.665115,110.002576 134.707349,110.023007 134.73737,110.056782 C134.767392,110.090556 134.782732,110.134894 134.780311,110.18 C134.780311,110.223503 134.761871,110.265032 134.729249,110.293816 C134.696628,110.3226 134.653116,110.335802 134.61,110.33 L104.61,110.05 C92.72,109.94 81.05,109.84 75.98,109.82 C75.586982,109.826002 75.2355304,109.576258 75.1119197,109.203137 C74.9883089,108.830016 75.1211358,108.419836 75.44,108.19 L75.47,108.19 Z" id="Path" fill="#66C2E9" style="mix-blend-mode: multiply;"></path>
            <polygon id="Path" fill="#FFFFFF" points="197.38 103.41 184.8 103.41 172.23 103.41 172.23 105.14 172.23 106.86 184.8 106.86 197.38 106.86 197.38 105.14"></polygon>
            <path d="M199.48,97.26 L201.16,97.4 L202.84,97.54 C203.138295,97.562074 203.433174,97.4649798 203.66,97.27 C203.889025,97.0798835 204.032953,96.8064209 204.06,96.51 L207.06,60.21 L210.06,23.91 C210.084832,23.6130781 209.991386,23.3183651 209.8,23.09 C209.604743,22.8620772 209.328748,22.718703 209.03,22.69 L207.35,22.55 L205.67,22.41 C205.373567,22.3893934 205.0804,22.482349 204.85,22.67 C204.621445,22.8635426 204.480798,23.1412301 204.46,23.44 L201.46,59.74 L198.46,96.04 C198.407381,96.650546 198.851002,97.1917631 199.46,97.26 L199.48,97.26 Z" id="Path" fill="#FFFFFF"></path>
            <path d="M223.35,106.830028 L204.56,106.830028 L204.56,103.16 L223.35,103.16 C225.291347,103.173898 227.065249,102.062773 227.9,100.31 C228.764658,98.5658212 228.538353,96.4783571 227.32,94.96 L215.55,80.08 L203.78,65.19 L205.22,64.05 L206.66,62.92 L218.42,77.8 L230.19,92.69 C232.275421,95.3086767 232.66479,98.894764 231.19,101.9 C229.743335,104.919949 226.688561,106.838425 223.34,106.830028 L223.35,106.830028 Z" id="Path" fill="#FFFFFF"></path>
            <polygon id="Path" fill="#A6DBF2" points="211.58 75.17 211.8 72.44 212.03 69.72 209.42 66.4 206.8 63.08 206.57 65.81 206.35 68.53 208.96 71.85"></polygon>
            <polygon id="Path" fill="#1E1C1F" points="70.6 177.3 67.24 177.3 63.88 177.3 63.88 188.26 63.88 199.22 67.24 199.22 70.6 199.22 70.6 188.26"></polygon>
            <polygon id="Path" fill="#9DADB7" points="71.09 167.25 67.24 167.25 63.39 167.25 63.39 172.7 63.39 178.16 67.24 178.16 71.09 178.16 71.09 172.7"></polygon>
            <path d="M98,165.330371 C98.1449485,165.333141 98.2896396,165.316316 98.43,165.28 C98.5822634,165.253204 98.7302478,165.206118 98.87,165.14 C99.9077247,164.648196 100.354272,163.411261 99.87,162.37 C97.41,157.01 90.77,154.88 84.44,154.13 C79.9298598,153.641423 75.3801402,153.641423 70.87,154.13 L57.87,155.24 L44.87,156.35 C41.2452547,156.713089 37.5846514,156.408038 34.07,155.45 C27.1891277,153.79533 22.011318,148.114397 21,141.11 C20.3785834,137.526975 20.4124656,133.860927 21.1,130.29 L22.81,120.51 L24.51,110.73 C24.8563203,108.48265 24.8123421,106.192398 24.38,103.96 C23.9850287,101.870831 23.4776246,99.8044946 22.86,97.77 L16.45,75.42 L10.05,53.08 C9.89477669,52.5476465 9.53529586,52.0982955 9.05,51.83 C8.3128016,51.4357719 7.41160148,51.5187668 6.7588039,52.0410049 C6.10600632,52.5632429 5.82721126,53.4242442 6.05,54.23 L12.45,76.57 L18.85,98.91 C19.34,100.62 19.85,102.53 20.24,104.44 C20.6232154,106.265535 20.6807673,108.144433 20.41,109.99 L19.23,120.14 L18,130.3 C17.2159768,134.241389 17.2159768,138.298611 18,142.24 C18.7839556,146.013475 20.5817351,149.501858 23.2,152.33 C26.0628831,155.323944 29.7128827,157.448778 33.73,158.46 C37.9260522,159.558081 42.2846915,159.896748 46.6,159.46 L58.99,158.84 L71.38,158.23 C75.8499072,157.757131 80.3592488,157.797393 84.82,158.35 C89.9,159.05 94.62,160.68 96.18,164.07 C96.3468545,164.436894 96.6181614,164.746462 96.96,164.96 C97.2672438,165.174307 97.6264393,165.302098 98,165.330371 L98,165.330371 Z" id="Path" fill="#1E1C1F"></path>
            <path d="M90.14,163.91 C90.14,161.148576 92.3785763,158.91 95.14,158.91 C97.9014237,158.91 100.14,161.148576 100.14,163.91 C100.14,166.671424 97.9014237,168.91 95.14,168.91 C92.3785763,168.91 90.14,166.671424 90.14,163.91 L90.14,163.91 Z" id="Path" fill="#1E1C1F"></path>
            <path d="M0.67996422,55.45 C0.689013178,53.065833 2.38013324,51.0196944 4.71995886,50.5619284 C7.05978448,50.1041625 9.39732332,51.3621301 10.3041636,53.5671186 C11.211004,55.7721071 10.4348423,58.3106388 8.44997176,59.6314804 C6.46510118,60.9523219 3.8237575,60.6879853 2.14,59 C1.20040273,58.0580435 0.674970322,56.780451 0.67996422,55.45 Z" id="Path" fill="#1E1C1F"></path>
            <path d="M116.18,244.92 L115.67,241.57 L115.15,238.21 C114.844557,236.198203 113.48091,234.506059 111.58,233.78 L93,226.57 L74.36,219.37 C70.4821225,217.864998 67.7590933,214.333148 67.29,210.2 C67.0625808,212.219443 66.2880601,214.138456 65.05,215.75 C63.7983773,217.372659 62.1287018,218.624051 60.22,219.37 L41.58,226.57 L22.94,233.78 C22.0082568,234.137192 21.1872805,234.733952 20.56,235.51 C19.9380275,236.291749 19.5312441,237.222525 19.38,238.21 L18.86,241.57 L18.34,244.92 L12.7,244.92 L13.29,241.15 L13.89,237.38 C14.4989136,233.427318 17.1657605,230.097569 20.89,228.64 L39.46,220.28 L58.03,211.92 C60.220611,211.07528 61.6640142,208.967831 61.66,206.62 L61.73,204.11 L61.8,201.59 C61.8,199.215176 63.7251756,197.29 66.1,197.29 L68.34,197.29 C70.7148244,197.29 72.64,199.215176 72.64,201.59 L72.71,204.11 L72.77,206.62 C72.7760718,208.967702 74.2209696,211.071537 76.41,211.92 L95,220.28 L113.57,228.64 C117.29424,230.097569 119.961086,233.427318 120.57,237.38 L121.16,241.15 L121.76,244.92 L116.16,244.92 L116.18,244.92 Z" id="Path" fill="#9DADB7"></path>
            <path d="M67.24,172.05 L67.24,172.05 C64.3197072,172.033609 61.9563912,169.670293 61.94,166.75 L61.94,160 C61.7783826,158.918331 62.446981,157.885432 63.5,157.59 C64.7308977,157.347405 65.9886521,157.270057 67.24,157.36 L67.24,157.36 C68.4913497,157.270414 69.7490567,157.34776 70.98,157.59 C72.0318382,157.885687 72.6972302,158.920265 72.53,160 L72.53,166.74 C72.5245199,169.660936 70.1609207,172.029003 67.24,172.04 L67.24,172.05 Z" id="Path" fill="#9DADB7"></path>
            <path d="M23.06,152.75 C17.8909043,147.229883 15.5748541,139.624226 16.79,132.16 L18.13,123.7 L19.47,115.23 C20.5119445,108.570247 26.2592663,103.668244 33,103.689922 L80.58,103.689922 C82.2649618,103.683526 83.9273261,104.077695 85.43,104.84 C86.9291757,105.608975 88.2272287,106.718656 89.22,108.08 C90.2184331,109.438916 90.8799109,111.015496 91.15,112.68 C91.4169846,114.353413 91.2868162,116.066156 90.77,117.68 L85.65,133.68 L80.53,149.68 C78.9968956,154.501445 74.7025778,157.918726 69.66,158.33 L56.4,159.45 L43.13,160.5 C42.78,160.5 42.43,160.56 42.13,160.57 C41.83,160.58 41.42,160.57 41.07,160.57 C37.7099716,160.587112 34.3830233,159.906058 31.3,158.57 C28.1820493,157.217788 25.3768361,155.236436 23.06,152.75 Z M33,107.87 C28.3211074,107.844311 24.3278656,111.246434 23.61,115.87 L22.26,124.33 L20.92,132.79 C19.9235981,138.987322 21.838541,145.298056 26.1108712,149.896623 C30.3832014,154.495189 36.5362301,156.8685 42.79,156.33 L56,155.23 L69.26,154.11 C72.6226221,153.82539 75.4833599,151.544691 76.51,148.33 L81.62,132.33 L86.74,116.33 C87.3920649,114.349331 87.0415436,112.175353 85.8,110.5 C85.2024726,109.656876 84.4099584,108.970716 83.49,108.5 C82.5606732,108.029276 81.5316874,107.789179 80.49,107.79965 L33,107.79965 L33,107.87 Z" id="Shape" fill="#9DADB7"></path>
            <path d="M3.16999391,55.45 C3.17548092,54.0715648 4.29156478,52.9554809 5.66999391,52.9499798 C6.3338566,52.9473285 6.97129474,53.2098627 7.44071605,53.679284 C7.91013735,54.1487053 8.17267149,54.7861434 8.17002019,55.45 C8.17073406,56.1104673 7.90798498,56.7439445 7.44,57.21 C6.96901538,57.6767186 6.33306245,57.9390043 5.66999391,57.9400015 C5.00953267,57.9407341 4.37605545,57.677985 3.91,57.21 C3.43548772,56.7475359 3.16852414,56.1125955 3.16999391,55.45 Z" id="Path" fill="#9DADB7"></path>
            <path d="M92.5399798,163.94 C92.5373285,163.276143 92.7998627,162.638705 93.269284,162.169284 C93.7387053,161.699863 94.3761434,161.437329 95.04,161.43998 C96.4184352,161.445481 97.5345191,162.561565 97.54,163.94 C97.529058,165.314528 96.4145612,166.424567 95.04,166.43002 C94.37788,166.432659 93.7419667,166.171495 93.2728361,165.704241 C92.8037055,165.236987 92.5399798,164.602125 92.5399798,163.94 L92.5399798,163.94 Z" id="Path" fill="#909999"></path>
            <polygon id="Path" fill="#FFFFFF" points="322.63 102.58 295.23 102.58 267.83 102.58 267.83 104.51 267.83 106.44 295.23 106.44 322.63 106.44 322.63 104.51"></polygon>
            <path d="M284.79,98 L302.43,98 L302.55,98 C302.586631,98.0139049 302.620493,98.034222 302.65,98.06 L304.65,100.06 L306.65,102.06 C306.678565,102.087046 306.712694,102.107523 306.75,102.12 L306.87,102.12 L320.81,102.12 C321.276089,102.118712 321.722407,101.931546 322.05,101.6 C322.382488,101.273044 322.57,100.826314 322.57,100.36 L322.57,97.36 C322.57,96.3879788 321.782021,95.6 320.81,95.6 L317.29,95.6 L317.17,95.6 C317.132694,95.5875235 317.098565,95.5670459 317.07,95.54 L315.63,94.09 L314.19,92.65 C314.15251,92.6171476 314.108064,92.5932154 314.06,92.58 C314.014578,92.5647554 313.965422,92.5647554 313.92,92.58 L299.36,95 L284.74,97.38 C284.577921,97.4008296 284.462326,97.5475468 284.48,97.71 C284.482608,97.78958 284.516746,97.8648587 284.574892,97.9192536 C284.633038,97.9736484 284.710423,98.0026968 284.79,98 Z" id="Path" fill="#9DADB7"></path>
            <path d="M302.65,98 L304.38,99.73 L306.1,101.46 C308.79,100.71 311.43,99.84 314.05,98.9 C316.67,97.96 319.26,96.9 321.84,95.9 C321.700119,95.8100947 321.548756,95.7394585 321.39,95.69 C321.221456,95.6382886 321.046293,95.6113405 320.87,95.61 L317.35,95.61 L317.23,95.61 C317.192694,95.5975235 317.158565,95.5770459 317.13,95.55 L315.69,94.1 L314.25,92.66 C314.21251,92.6271476 314.168064,92.6032154 314.12,92.59 C314.074578,92.5747554 314.025422,92.5747554 313.98,92.59 L299.36,95 L284.74,97.38 C284.577921,97.4008296 284.462326,97.5475468 284.48,97.71 C284.490705,97.8717624 284.627986,97.9957577 284.79,97.99 L302.43,97.99 L302.55,97.99 C302.583651,97.9851906 302.617967,97.9886221 302.65,98 Z" id="Path" fill="#9DADB7"></path>
            <path d="M321.92,85.37 L321.79,85.37 L321.66,85.37 L321.66,85.37 C319.675174,73.8175426 308.703242,66.0597467 297.15,68.04 C291.649046,69.0440405 286.775698,72.2005588 283.61,76.81 C280.356541,81.3876224 278.930005,87.0153044 279.61,92.59 L279.27,92.59 L278.93,92.65 L273.93,95.65 L268.93,98.65 C268.179757,99.0953259 267.829214,99.9943649 268.08,100.83 L268.08,100.83 C268.363194,101.752453 269.289933,102.318793 270.24,102.15 L295.79,97.4 L321.35,92.66 C321.961158,92.5420412 322.496146,92.1761797 322.827738,91.6494214 C323.159331,91.1226631 323.257898,90.4820765 323.1,89.88 L322.48,87.61 L321.92,85.37 Z" id="Path" fill="#FFE700"></path>
            <path d="M323.15,89.9 L322.53,87.63 L321.92,85.37 L321.79,85.37 L321.66,85.37 L321.66,85.37 C319.675174,73.8175426 308.703242,66.0597467 297.15,68.04 C291.704946,69.02593 286.872314,72.1290264 283.71,76.67 C280.464469,81.1785606 278.997371,86.7264704 279.59,92.25 L280,92.25 C280.899866,88.0095063 282.979792,84.1096446 286,81 C289.01945,77.858398 292.958941,75.7573363 297.25,75 C308.803242,73.0197467 319.775174,80.7775426 321.76,92.33 L321.76,92.33 L321.89,92.33 L322.02,92.33 L322.02,92.42 L322.02,92.5 C322.46077,92.2661706 322.812221,91.8936327 323.02,91.44 C323.248146,90.9592801 323.294332,90.4121628 323.15,89.9 L323.15,89.9 Z" id="Path" fill="#FCF8C6"></path>
        </g>
    </g>
</svg>