<?xml version="1.0" encoding="UTF-8"?>
<svg width="440px" height="330px" viewBox="0 0 440 330" version="1.1" xmlns="http://www.w3.org/2000/svg" xmlns:xlink="http://www.w3.org/1999/xlink">
    <title>Graphic elements / Icons / Rich icons / Integrator searching (female)</title>
    <g id="Graphic-elements-/-Icons-/-Rich-icons-/-Integrator-searching-(female)" stroke="none" stroke-width="1" fill="none" fill-rule="evenodd">
        <g id="Integrator-searching-(female)" transform="translate(59.000000, 90.000000)" fill-rule="nonzero">
            <path d="M96,24.5 L95.43,29.31 L94.87,34.11 C94.7930519,34.6840818 94.84428,35.2680821 95.02,35.82 L97.34,43.53 L99.67,51.24 C100.083522,52.634364 99.7553159,54.1433583 98.8,55.24 L94.35,60.24 L89.9,65.29 C89.1257451,66.1629781 88.0252673,66.6773504 86.8589055,66.7114324 C85.6925437,66.7455144 84.5639085,66.2962785 83.74,65.47 L78.24,59.9 L72.73,54.34 C72.1882319,53.7858053 71.8079124,53.0943153 71.63,52.34 C71.4500646,51.5861547 71.481203,50.7973164 71.72,50.06 L74.72,41.06 L77.67,32.06 C77.7755376,31.7066907 77.9303973,31.3700393 78.13,31.06 C78.3206469,30.7558355 78.5528964,30.4798289 78.82,30.24 L83.91,25.55 L89,20.86 C89.3386331,20.5447708 89.7272494,20.2879461 90.15,20.1 C90.5763844,19.9180168 91.028432,19.8033182 91.49,19.76 L91.49,19.76 C92.7549033,19.6626804 93.9964761,20.1395836 94.8709655,21.05867 C95.7454548,21.9777564 96.1600638,23.2414965 96,24.5 Z" id="Path" fill="#023852"></path>
            <path d="M92.5,130.78 L99.12,131.14 L105.74,131.5 C106.022382,131.517533 106.301336,131.571307 106.57,131.66 C106.836048,131.752134 107.088353,131.879968 107.32,132.04 L110.42,134.18 L113.53,136.31 C113.857451,136.538861 114.138999,136.827194 114.36,137.16 C114.581856,137.492988 114.734857,137.866993 114.81,138.26 L121.74,173.76 L128.67,209.27 C128.691301,209.40709 128.728208,209.541295 128.78,209.67 C128.818544,209.805587 128.872215,209.936409 128.94,210.06 L133.72,219.58 L138.51,229.11 C138.99507,230.077028 138.93721,231.227652 138.357575,232.141141 C137.77794,233.054629 136.76153,233.597025 135.68,233.570965 L133.68,233.52 L131.68,233.52 C131.339088,233.514865 131.001305,233.454065 130.68,233.34 C130.373157,233.234776 130.085916,233.079328 129.83,232.88 L125.19,229.31 L120.54,225.73 C120.325902,225.513841 120.144036,225.267986 120,225 C119.822442,224.756351 119.684102,224.48642 119.59,224.2 L118.38,220.61 L117.16,217.03 C117.16,216.89 117.08,216.75 117.05,216.61 C117.02,216.47 117.05,216.33 117,216.19 L116.84,212.8 L116.68,209.42 C116.670352,209.210887 116.640207,209.003225 116.59,208.8 C116.537566,208.59616 116.463827,208.398405 116.37,208.21 L106.7,188.57 L97.07,169 C97.01,168.89 96.97,168.77 96.92,168.66 C96.87,168.55 96.85,168.42 96.82,168.3 L93.08,151.43 L89.33,134.56 C89.1181375,133.619996 89.3599067,132.635058 89.9829426,131.899994 C90.6059784,131.16493 91.5379855,130.765033 92.5,130.82 L92.5,130.78 Z" id="Path" fill="#4897C6"></path>
            <path d="M124.12,186 L119.46,162.15 L114.81,138.3 C114.653475,137.508146 114.194265,136.808569 113.53,136.35 L110.43,134.22 L107.32,132 C107.088353,131.839968 106.836048,131.712134 106.57,131.62 C106.304522,131.532247 106.028994,131.478485 105.75,131.46 L99.12,131.1 L92.5,130.74 C91.5392693,130.689245 90.6100072,131.090328 89.9879497,131.824238 C89.3658922,132.558148 89.1225023,133.540572 89.33,134.48 L93.08,151.35 L96.83,168.22 C96.8817637,168.462079 96.9623376,168.697086 97.07,168.92 L104.33,183.68 L111.6,198.44 L117.86,192.18 L124.12,186 Z" id="Path" fill="#66C2E9" style="mix-blend-mode: multiply;"></path>
            <path d="M100.88,140.21 L109.23,144.55 L117.58,148.89 C118.120238,149.165354 118.60236,149.542223 119,150 C119.389879,150.45524 119.694729,150.976872 119.9,151.54 L120.9,154.36 L121.9,157.17 C122.201569,158.020425 122.260433,158.938013 122.07,159.82 L121.44,162.64 L120.82,165.47 C120.718795,165.944562 120.543301,166.400171 120.3,166.82 C120.060427,167.241068 119.756795,167.622295 119.4,167.95 L97.34,188.4 L75.27,208.85 C75.0879464,209.018732 74.9206692,209.202737 74.77,209.4 C74.6185535,209.593 74.4815167,209.796884 74.36,210.01 L72.46,213.37 L70.57,216.74 C70.3036932,217.204586 70.1209249,217.712276 70.03,218.24 C69.935067,218.769109 69.935067,219.310891 70.03,219.84 L71.12,226.71 L72.21,233.58 C72.37,234.58 72.45,234.94 72.26,235.15 C71.7612317,235.435416 71.2433307,235.686013 70.71,235.9 L70.21,235.16 L69.71,234.42 C69.0657833,234.796461 68.3976986,235.130503 67.71,235.42 C67.0804979,235.703468 66.36888,235.746165 65.71,235.54 L63.5,234.68 L61.29,233.83 C60.1212342,233.117415 59.0519455,232.253242 58.11,231.26 C57.0847094,230.346651 56.189684,229.296847 55.45,228.14 L54.09,224.34 L52.72,220.53 C52.3595995,219.66075 52.2555008,218.706512 52.42,217.78 C52.5953479,216.851926 53.0405993,215.996209 53.7,215.32 L60.7,208.06 L67.7,200.81 L67.94,200.55 L68.15,200.27 L78.05,186.48 L88,172.66 C88.1,172.53 88.19,172.41 88.3,172.29 C88.4022163,172.169363 88.5124674,172.055771 88.63,171.95 L90.53,170.18 L92.43,168.41 C93.5781955,167.337041 94.1284566,165.769988 93.9031436,164.21473 C93.6778306,162.659473 92.7054822,161.313003 91.3,160.61 L90.78,160.35 L90.27,160.1 C89.1010729,159.516267 88.220617,158.481244 87.8318659,157.233844 C87.4431148,155.986443 87.5796661,154.634471 88.21,153.49 L91.35,147.82 L94.48,142.15 C95.7377489,139.879094 98.5730556,139.019642 100.88,140.21 L100.88,140.21 Z" id="Path" fill="#0099DA"></path>
            <polygon id="Path" fill="#023852" points="52.48 121.83 79.41 126.53 106.35 131.24 97.25 144.12 88.15 157 74.28 156.92 60.41 156.84 50.67 157.66 40.93 158.49 35.15 157.58 29.37 156.67 26.61 154.01 23.85 151.34 23.09 144.49 22.33 137.62 23.95 129.44 25.57 121.25 39.03 121.54"></polygon>
            <g id="Group" opacity="0.6" style="mix-blend-mode: multiply;" transform="translate(22.000000, 121.000000)" fill="#023852">
                <path d="M31.43,1 C31.1912348,1.17139049 30.8802556,1.20552235 30.61,1.09 C30.43,1 30.31,0.85 30.23,0.85 L19,0.58 L7.74,0.34 C5.33743022,0.287950638 3.2488027,1.97914702 2.8,4.34 L1.66,10.13 L0.51,15.91 C0.460344665,16.1572476 0.430251505,16.4080239 0.42,16.66 C0.400063897,16.9096026 0.400063897,17.1603974 0.42,17.41 L1,23 L1.62,28.59 C1.68188459,29.1607254 1.84439608,29.715973 2.1,30.23 C2.34899804,30.7426284 2.68766196,31.2065979 3.1,31.6 L4.66,33.11 L6.22,34.61 C6.58438372,34.9596387 6.99895986,35.2528755 7.45,35.48 C7.90134321,35.7010124 8.38342723,35.8527171 8.88,35.93 L8.88,35.93 C14.0144442,36.7305834 19.2464221,35.3007035 23.26,32 L36.48,21.23 L49.71,10.45 C50.8520998,9.51997219 51.3460174,8.00874287 50.9736196,6.58372933 C50.6012218,5.15871578 49.4310901,4.08235128 47.98,3.83 L39.71,2.38 L31.43,1 Z" id="Path"></path>
            </g>
            <path d="M115.36,215 L113.9,216.7 L112.44,218.4 C112.3657,218.4796 112.3049,218.5708 112.26,218.67 C112.211733,218.771413 112.178065,218.879149 112.16,218.99 L111.71,221.49 L111.27,223.99 C111.260085,224.076383 111.260085,224.163617 111.27,224.25 C111.259627,224.336356 111.259627,224.423644 111.27,224.51 L112.73,230.24 L114.2,236 C114.276603,236.278132 114.441562,236.523815 114.67,236.7 C114.902673,236.866503 115.184097,236.95093 115.47,236.94 L116,236.94 C116.339319,236.921206 116.656658,236.766142 116.88,236.51 C117.107221,236.260048 117.219614,235.926494 117.19,235.59 L116.95,232.76 L116.71,229.93 C116.689817,229.804137 116.689817,229.675863 116.71,229.55 C116.737442,229.426533 116.784722,229.308333 116.85,229.2 L116.85,229.2 C117.041035,228.865348 117.377861,228.639564 117.76,228.59 C118.127195,228.550021 118.493272,228.674487 118.76,228.93 L122.28,232.4 L125.79,235.86 C125.878845,235.947443 125.979895,236.021547 126.09,236.08 C126.20274,236.13916 126.324312,236.179684 126.45,236.2 L130.8,236.97 L135.16,237.73 L135.27,237.73 L135.39,237.73 L142.16,237.63 L148.94,237.54 C149.489256,237.534465 149.969418,237.16824 150.12,236.64 C150.278927,236.110091 150.061391,235.539572 149.59,235.25 L144.17,231.75 L138.75,228.25 C138.531525,228.114196 138.27696,228.04794 138.02,228.06 C137.761361,228.067175 137.512108,228.158451 137.31,228.32 L136.44,228.99 L135.57,229.66 C135.475356,229.739235 135.366861,229.800263 135.25,229.84 C135.134224,229.883009 135.013094,229.909926 134.89,229.92 L132.44,230.08 L129.99,230.24 C129.848131,230.248765 129.705846,230.231827 129.57,230.19 C129.432008,230.157609 129.302478,230.096253 129.19,230.01 L124.75,226.9 L120.32,223.79 C120.095731,223.63343 119.927512,223.409138 119.84,223.15 L118.63,219.31 L117.41,215.47 C117.274777,215.038491 116.915376,214.714807 116.472118,214.625323 C116.02886,214.535839 115.572035,214.694745 115.28,215.04 L115.36,215 Z" id="Path" fill="#023852"></path>
            <path d="M50,215.29 L48.52,217 L47.06,218.7 C46.9908249,218.787106 46.9305254,218.880905 46.88,218.98 C46.8317327,219.081413 46.7980653,219.189149 46.78,219.3 L46.33,221.8 L45.89,224.3 C45.8499399,224.471019 45.8499399,224.648981 45.89,224.82 L47.35,230.55 L48.81,236.27 C48.8764636,236.547357 49.0395412,236.791973 49.27,236.96 C49.4991747,237.134422 49.7822887,237.222895 50.07,237.21 L50.34,237.21 L50.62,237.21 C50.9595564,237.200859 51.2793314,237.048239 51.5,236.79 C51.7288134,236.536976 51.8412363,236.199707 51.81,235.86 L51.57,233.03 L51.33,230.2 C51.3100294,230.077475 51.3100294,229.952525 51.33,229.83 C51.357442,229.706533 51.4047222,229.588333 51.47,229.48 L51.47,229.48 C51.6575637,229.141115 51.9937973,228.910374 52.3774655,228.857251 C52.7611337,228.804127 53.147413,228.934828 53.42,229.21 L56.94,232.67 L60.45,236.14 C60.5388449,236.227443 60.6398955,236.301547 60.75,236.36 C60.8633131,236.417803 60.9846675,236.458255 61.11,236.48 L65.46,237.24 L69.82,238.01 L70.05,238.01 L76.82,237.91 L83.6,237.82 C84.1490209,237.807806 84.6257842,237.438713 84.7751311,236.910254 C84.924478,236.381796 84.7114267,235.817755 84.25,235.52 L78.87,232 L73.45,228.5 C73.2323922,228.361268 72.9779311,228.291552 72.72,228.3 C72.4632819,228.316715 72.2168016,228.406975 72.01,228.56 L71.14,229.24 L70.27,229.91 C70.1716975,229.983787 70.0641058,230.044308 69.95,230.09 C69.8353413,230.135327 69.7132892,230.159059 69.59,230.16 L67.14,230.32 L64.69,230.48 C64.5510886,230.504691 64.4089114,230.504691 64.27,230.48 C64.1353117,230.43865 64.007318,230.378021 63.89,230.3 L59.45,227.19 L55,224 C54.8889209,223.918909 54.7910914,223.821079 54.71,223.71 C54.6285632,223.601972 54.5675605,223.479966 54.53,223.35 L53.31,219.52 L52.09,215.68 C51.9584853,215.250012 51.6011106,214.927222 51.16,214.84 C50.720382,214.768951 50.2766952,214.941071 50,215.29 Z" id="Path" fill="#023852"></path>
            <path d="M111.18,97.06 L109.64,77.52 L108.1,58 L108.1,57.9 L108,54 L107.92,50.1 C107.918233,49.854594 107.863664,49.6124434 107.76,49.39 C107.658289,49.1690281 107.511875,48.9715399 107.33,48.81 L106.09,47.7 L104.85,46.59 C104.755776,46.5046085 104.651708,46.4307541 104.54,46.37 C104.433821,46.3026258 104.319592,46.2488708 104.2,46.21 L101.4,45.33 L98.61,44.45 C98.4538527,44.4038953 98.2926598,44.3770299 98.13,44.37 C97.9739846,44.349798 97.8160154,44.349798 97.66,44.37 L94.81,45.05 L91.95,45.73 C91.5235921,45.8332148 91.1499387,46.0894343 90.9,46.45 C90.6494716,46.8153244 90.5459158,47.2616854 90.61,47.7 L90.61,47.9 C90.7255113,48.7495879 91.4333424,49.3942198 92.29,49.43 L92.65,49.43 L93.01,49.43 C93.4098953,49.4480681 93.7913308,49.6034678 94.09,49.87 C94.3922793,50.1269663 94.5970515,50.4800219 94.67,50.87 L95.13,53.39 L95.6,55.91 C95.6405436,56.1580493 95.7362271,56.3938408 95.88,56.6 C96.0188996,56.8088316 96.2035784,56.9832504 96.42,57.11 L97.89,58.01 L99.36,58.9 C99.6275257,59.0568354 99.8457705,59.2854728 99.99,59.56 C100.141583,59.8284649 100.220837,60.1316981 100.22,60.44 L100.09,73.03 L99.97,85.63 L99.97,85.75 C99.97,85.75 99.97,85.84 99.97,85.88 L100.41,89.88 L100.84,93.88 C100.919409,94.3672448 101.217968,94.7911249 101.65,95.03 C102.091329,95.2846202 102.607903,95.3766129 103.11,95.29 L106.2,94.72 L109.29,94.15 C109.74,94.07 110.22,95.01 110.58,95.85 C110.94,96.69 111.21,97.51 111.18,97.06 Z" id="Path" fill="#0099DA"></path>
            <g id="Group" style="mix-blend-mode: multiply;" transform="translate(90.000000, 44.000000)" fill="#0099DA">
                <path d="M21,51 L20.62,51.07 L20.24,51.14 C20.4976091,51.6507598 20.7279329,52.17483 20.93,52.71 C21.1,53.14 21.19,53.35 21.17,53.06 L21.08,52.06 L21,51 Z" id="Path"></path>
                <path d="M16.8,50 L16.36,46 L15.93,42 C15.9246654,41.9568308 15.9246654,41.9131692 15.93,41.87 C15.9250835,41.8301511 15.9250835,41.7898489 15.93,41.75 L16.06,29.15 L16.19,16.56 C16.1908368,16.2516981 16.1115827,15.9484649 15.96,15.68 C15.8157705,15.4054728 15.5975257,15.1768354 15.33,15.02 L13.86,14.13 L12.39,13.23 C12.1735784,13.1032504 11.9888996,12.9288316 11.85,12.72 C11.7070811,12.5122975 11.6083726,12.2774393 11.56,12.03 L11.1,9.51 L10.64,6.99 C10.5670515,6.60002185 10.3622793,6.24696629 10.06,5.99 C9.76133083,5.72346779 9.37989528,5.56806812 8.98,5.55 L8.62,5.55 L8.26,5.55 C7.40334236,5.51421976 6.69551135,4.86958794 6.58,4.02 L6.58,3.92 L6.58,3.82 C6.52462294,3.38071297 6.6312811,2.936304 6.88,2.57 C7.11761729,2.2192146 7.47196031,1.96408763 7.88,1.85 L9.29,1.51 L10.7,1.18 L9.7,0.85 L8.7,0.52 C8.54385265,0.473895339 8.38265981,0.447029865 8.22,0.44 C8.06398459,0.419797971 7.90601541,0.419797971 7.75,0.44 L4.9,1.12 L2.04,1.8 C1.6135921,1.90321482 1.23993871,2.15943428 0.99,2.52 C0.739471577,2.88532444 0.635915827,3.33168544 0.7,3.77 L0.7,3.97 C0.815511346,4.81958794 1.52334236,5.46421976 2.38,5.5 L2.74,5.5 L3.1,5.5 C3.50233428,5.52055735 3.88614239,5.67548906 4.19,5.94 C4.48610509,6.20051943 4.68671779,6.55247153 4.76,6.94 L5.22,9.46 L5.69,11.98 C5.7305436,12.2280493 5.82622709,12.4638408 5.97,12.67 C6.10889965,12.8788316 6.29357844,13.0532504 6.51,13.18 L7.98,14.08 L9.45,14.97 C9.71752566,15.1268354 9.93577051,15.3554728 10.08,15.63 C10.2315827,15.8984649 10.3108368,16.2016981 10.31,16.51 L10.18,29.1 L10.06,41.7 L10.06,41.82 C10.06,41.82 10.06,41.91 10.06,41.95 L10.5,45.95 L10.93,49.95 C11.0094086,50.4372448 11.3079677,50.8611249 11.74,51.1 C12.1813291,51.3546202 12.6979033,51.4466129 13.2,51.36 L15.2,51 L17.2,50.64 C17.1303155,50.5390779 17.0700617,50.43196 17.02,50.32 C16.9336248,50.2229127 16.8597191,50.1154134 16.8,50 Z" id="Path"></path>
            </g>
            <path d="M101.06,95 L100.48,90.2 L99.91,85.4 L93,76 L86,66.59 L83.14,57.51 L80.28,48.44 L75.18,42.54 L70.07,36.64 L67.78,37.08 L65.49,37.52 L63.16,40.69 L60.83,43.86 L55.24,47.16 L49.65,50.46 L43.18,63.27 L36.71,76.09 L31.16,91.63 L25.61,107.17 L25.25,113.73 L24.89,120.28 C24.8461456,121.018196 25.1069881,121.742072 25.6116283,122.282623 C26.1162686,122.823174 26.8205345,123.133085 27.56,123.14 L46.16,123.41 L64.77,123.670382 C65.6776078,123.683695 66.5519223,123.328499 67.1928278,122.685708 C67.8337333,122.042918 68.1863608,121.167564 68.17,120.26 L68.11,116.36 L68.04,112.45 L75.22,105.76 L82.39,99.07 L91.72,97.07 L101.06,95 Z" id="Path" fill="#FFFFFF"></path>
            <path d="M87.19,72 L87.64,75 L88.09,78 L88.09,78.14 L87.5,85.19 L86.9,92.25 C86.8887985,92.4061068 86.9390373,92.5604118 87.04,92.68 C87.1439358,92.7955746 87.2858467,92.8700779 87.44,92.89 L93.09,93.36 L98.73,93.84 C98.8995468,93.8581562 99.0683174,93.7994534 99.19,93.68 C99.3132622,93.5596223 99.378828,93.3920652 99.37,93.22 L99.14,89.46 L98.9,85.71 C98.9103334,85.6538044 98.9103334,85.5961956 98.9,85.54 C98.877279,85.4879936 98.850531,85.4378411 98.82,85.39 L93.55,78.44 L88.28,71.49 C88.1195894,71.2690612 87.8285417,71.1870438 87.5763733,71.2917174 C87.3242049,71.3963911 87.1767948,71.6604099 87.22,71.93 L87.19,72 Z" id="Path" fill="#A6DBF2"></path>
            <path d="M101.49,17.71 L100.58,21.63 L99.68,25.54 C99.68,25.54 99.68,25.54 99.68,25.54 L99.25,29.69 L98.82,33.84 C98.7932472,34.0445288 98.6938734,34.2326292 98.54,34.37 C98.3927294,34.5128046 98.1951302,34.5918443 97.99,34.59 L95.79,34.59 C95.6533741,34.5876667 95.5186462,34.6222123 95.4,34.69 C95.2759862,34.7490833 95.1717749,34.8428734 95.1,34.96 L92.76,38.5 L90.42,42.04 C90.313958,42.1957225 90.1591854,42.311802 89.98,42.37 C89.8024283,42.4350014 89.6075717,42.4350014 89.43,42.37 L87.2,41.52 L84.97,40.67 C84.7914902,40.6105251 84.5985098,40.6105251 84.42,40.67 C84.2404568,40.7275068 84.0854787,40.8437404 83.98,41 L81.8,44.19 L79.61,47.38 C79.4738067,47.5835909 79.25373,47.7156369 79.01,47.74 C78.7683983,47.7668551 78.5271683,47.6864451 78.35,47.52 L73,42.51 L67.64,37.44 C67.5237074,37.3361628 67.4402893,37.2006085 67.4,37.05 C67.3600602,36.9026586 67.3600602,36.7473414 67.4,36.6 L68.59,32.65 L69.77,28.71 C69.7747007,28.6434162 69.7747007,28.5765838 69.77,28.51 C69.774939,28.4400871 69.774939,28.3699129 69.77,28.3 L68.77,23.64 L67.83,18.98 C67.8150811,18.8906183 67.8150811,18.7993817 67.83,18.71 C67.8378816,18.6198947 67.8615771,18.5318827 67.9,18.45 L70.69,12.63 L73.47,6.82 C73.522571,6.70920903 73.5974706,6.6104777 73.69,6.53 C73.7845854,6.45531748 73.8935027,6.40085885 74.01,6.37 L80.18,4.74 L86.34,3.11 C86.4811789,3.07485407 86.6288211,3.07485407 86.77,3.11 C86.9069684,3.15265046 87.0331572,3.22427109 87.14,3.32 L94.14,10.12 L101.14,16.92 C101.244225,17.0181528 101.3202,17.1424763 101.36,17.28 C101.438983,17.4100407 101.48371,17.5579824 101.49,17.71 L101.49,17.71 Z" id="Path" fill="#0099DA"></path>
            <path d="M89.62,42.06 L87.52,38.8 L85.42,35.53 C85.3932609,35.4895822 85.3549124,35.458206 85.31,35.44 C85.2673134,35.4294122 85.2226866,35.4294122 85.18,35.44 L81.3,35.88 L77.42,36.32 C77.3283744,36.3365308 77.2502574,36.3960485 77.21,36.48 C77.167307,36.5578653 77.167307,36.6521347 77.21,36.73 L79.72,39.86 L82.23,42.99 C82.2832326,43.049598 82.3601307,43.0825543 82.44,43.08 C82.5173751,43.076148 82.5881324,43.0351832 82.63,42.97 L83.27,42.04 L83.9,41.11 C84.0169569,40.9542944 84.176832,40.8361258 84.36,40.77 C84.5479097,40.7052365 84.7520903,40.7052365 84.94,40.77 L87.11,41.6 L89.28,42.42 C89.3799917,42.4716132 89.5024173,42.4468247 89.5744552,42.3603793 C89.646493,42.2739339 89.6487984,42.1490452 89.58,42.06 L89.62,42.06 Z" id="Path" fill="#66C2E9" style="mix-blend-mode: multiply;"></path>
            <path d="M98.23,33 L98.61,29.29 L98.98,25.59 L97.2,29.7 L95.42,33.8100204 L97.33,33.8100204 C97.5566536,33.8115432 97.7751624,33.7255726 97.94,33.57 C98.1071832,33.4249969 98.2112217,33.2205074 98.23,33 Z" id="Path" fill="#66C2E9" style="mix-blend-mode: multiply;"></path>
            <path d="M100.88,16.94 L94.82,14.31 L88.76,11.68 C88.6536157,11.6401136 88.5363843,11.6401136 88.43,11.68 C88.3245085,11.7129078 88.2352619,11.7843052 88.18,11.88 L84.25,18.42 L80.33,24.95 C80.243232,25.0921427 80.0864142,25.1762889 79.92,25.17 C79.7523728,25.170746 79.5982251,25.0782574 79.52,24.93 L78.36,22.76 L77.19,20.58 C77.1318361,20.4704884 77.0301636,20.3906029 76.91,20.36 C76.7986112,20.3103714 76.6713888,20.3103714 76.56,20.36 L74.87,21.28 L73.18,22.2 C73.1201205,22.2386087 73.0662156,22.2857755 73.02,22.34 C72.9832411,22.3985941 72.956224,22.4627597 72.94,22.53 L72.57,24.78 L72.19,27.03 C72.1943353,27.053132 72.1943353,27.076868 72.19,27.1 C72.1976223,27.1227108 72.1976223,27.1472892 72.19,27.17 L70.65,30.06 L69.05,33 C68.9770091,33.1390953 68.8367687,33.2300621 68.68,33.24 C68.5283892,33.2562587 68.3785742,33.1963327 68.28,33.08 L65.02,29.08 L61.77,25.08 C61.7234933,25.0283273 61.6893035,24.9667856 61.67,24.9 C61.6600171,24.8303559 61.6600171,24.7596441 61.67,24.69 L62.52,20.63 L63.37,16.57 C63.3643223,16.5436355 63.3643223,16.5163645 63.37,16.49 L63.37,16.41 L67.56,10.12 L71.74,3.83 C71.7781936,3.7818149 71.8218149,3.73819359 71.87,3.7 C71.9260711,3.6697236 71.9869772,3.64942157 72.05,3.64 L79.54,2.3 L87.08,1 L87.24,1 C87.2938692,1.00132507 87.3461096,1.01873856 87.39,1.05 L94,4.75 L100.63,8.49 C100.69254,8.52917141 100.746879,8.58011422 100.79,8.64 C100.826599,8.70485694 100.850365,8.77615521 100.86,8.85 L101.18,12.67 L101.51,16.48 C101.518981,16.6397961 101.447727,16.7935564 101.32,16.89 C101.190866,16.9790458 101.025821,16.9978009 100.88,16.94 L100.88,16.94 Z" id="Path" fill="#023852"></path>
            <path d="M72.07,20.56 C72.013177,20.4533993 71.9158807,20.3741209 71.8,20.34 C71.6886112,20.2903714 71.5613888,20.2903714 71.45,20.34 L69.75,21.26 L68.06,22.18 C68.0031085,22.2186884 67.9525154,22.2659086 67.91,22.32 C67.8693021,22.3764652 67.8419486,22.4414298 67.83,22.51 L67.45,24.76 L67.08,27.01 C67.08,27.01 67.08,27.01 67.08,27.08 L67.08,27.15 L66.38,28.46 L65.68,29.76 L67.01,31.39 L68.33,33.01 C68.4285742,33.1263327 68.5783892,33.1862587 68.73,33.17 C68.8867687,33.1600621 69.0270091,33.0690953 69.1,32.93 L70.65,30.04 L72.19,27.15 C72.1976223,27.1272892 72.1976223,27.1027108 72.19,27.08 C72.1943353,27.056868 72.1943353,27.033132 72.19,27.01 L72.57,24.76 L72.94,22.51 C72.9360176,22.4767856 72.9360176,22.4432144 72.94,22.41 C72.9526285,22.374796 72.9694139,22.3412252 72.99,22.31 L72.51,21.42 L72.07,20.56 Z" id="Path" fill="#06233C" opacity="0.6" style="mix-blend-mode: multiply;"></path>
            <path d="M100.88,8.85 C100.870365,8.77615521 100.846599,8.70485694 100.81,8.64 C100.766879,8.58011422 100.71254,8.52917141 100.65,8.49 L94,4.75 L87.39,1 C87.3461096,0.968738562 87.2938692,0.951325074 87.24,0.95 L87.08,0.95 L85.22,1.28 L83.36,1.61 L89.44,5.05 L95.53,8.48 C95.594647,8.51636872 95.6495405,8.5678313 95.69,8.63 C95.7308479,8.69289093 95.7549438,8.76517851 95.76,8.84 L96.02,11.89 L96.28,14.89 L98.58,15.89 L100.88,16.89 C101.022856,16.9701626 101.197144,16.9701626 101.34,16.89 C101.467727,16.7935564 101.538981,16.6397961 101.53,16.48 L101.2,12.67 L100.88,8.85 Z" id="Path" fill="#4E7486"></path>
            <path d="M78.5,101.68 L75.21,101.76 L71.93,101.84 C71.8641774,101.855002 71.7958226,101.855002 71.73,101.84 C71.6690928,101.811138 71.6172262,101.766187 71.58,101.71 L62,89 L52.39,76.35 C52.2636724,76.1681153 52.0157414,76.1194146 51.83,76.24 C51.6382124,76.3457132 51.5633583,76.583485 51.66,76.78 L59.74,94.32 L67.82,111.86 C67.876972,111.98481 67.9900829,112.074942 68.124463,112.102608 C68.2588431,112.130275 68.3983587,112.092155 68.5,112 L73.66,107.21 L78.82,102.41 C78.9485137,102.289759 78.9884315,102.102145 78.92,101.94 C78.8487102,101.773545 78.6807796,101.669587 78.5,101.68 Z" id="Path" fill="#A6DBF2"></path>
            <path d="M83.61,92.15 L79.7,93.77 L75.78,95.39 C75.7260211,95.4084218 75.6753697,95.4354359 75.63,95.47 L75.5,95.59 L73.33,98.16 L71.16,100.73 C70.9768403,100.94409 70.9376018,101.246227 71.06,101.5 C71.1725451,101.757929 71.4286066,101.923384 71.71,101.920051 L136.09,101.920051 C136.224156,101.917521 136.355265,101.879569 136.47,101.81 C136.581331,101.738664 136.671197,101.63843 136.73,101.52 L137.41,100.16 L138.1,98.8 C138.158803,98.6815704 138.248669,98.5813358 138.36,98.51 C138.477252,98.4477883 138.607314,98.4135617 138.74,98.41 L149.69,98.41 C149.968498,98.4036354 150.219096,98.2393251 150.335969,97.9864561 C150.452841,97.7335871 150.415611,97.436247 150.24,97.22 L147.19,93.6 L144.14,90 C144.07417,89.9231244 143.992233,89.8616721 143.9,89.82 C143.80584,89.7749233 143.704102,89.7477933 143.6,89.74 L138.5,89.62 L133.39,89.5 C133.200963,89.4895751 133.016138,89.5584315 132.88,89.69 L130.07,92.3 L127.26,94.91 C127.185589,94.9787429 127.096758,95.0299913 127,95.06 C126.903941,95.0753313 126.806059,95.0753313 126.71,95.06 L107.58,93.36 L88.45,91.66 L88.31,91.66 L86.07,91.87 L83.82,92.08 L83.72,92.08 L83.61,92.15 Z" id="Path" fill="#0099DA"></path>
            <path d="M73.55,99.57 L74.76,98.24 L75.96,96.91 C76.1274388,96.7239361 76.3364414,96.5800327 76.57,96.49 C76.8061248,96.4019071 77.0589626,96.3677399 77.31,96.39 L101.81,98.79 L126.31,101.18 C126.349815,101.182566 126.386968,101.200888 126.413241,101.230914 C126.439514,101.26094 126.452742,101.300196 126.450355,101.34 C126.450355,101.37893 126.433985,101.416143 126.405525,101.442705 C126.377065,101.469268 126.33883,101.482781 126.3,101.48 L99.57,101.23 C88.96,101.13 78.57,101.04 74.03,101.02 C73.6867871,101.013102 73.3851955,100.790607 73.2773146,100.464717 C73.1694337,100.138826 73.2786953,99.7803247 73.55,99.57 Z" id="Path" fill="#66C2E9" style="mix-blend-mode: multiply;"></path>
            <polygon id="Path" fill="#FFFFFF" points="161.24 98.44 148.66 98.44 136.09 98.44 136.09 100.17 136.09 101.9 148.66 101.9 161.24 101.9 161.24 100.17"></polygon>
            <path d="M163.34,92.29 L165.02,92.43 L166.7,92.57 C166.996922,92.5948316 167.291635,92.501386 167.52,92.31 C167.748555,92.1164574 167.889202,91.8387699 167.91,91.54 L170.91,55.23 L173.91,18.92 C173.934832,18.6230781 173.841386,18.3283651 173.65,18.1 C173.454743,17.8720772 173.178748,17.728703 172.88,17.7 L171.2,17.56 L169.52,17.42 C169.223567,17.3993934 168.9304,17.492349 168.7,17.68 C168.471445,17.8735426 168.330798,18.1512301 168.31,18.45 L165.31,54.76 L162.31,91.07 C162.289824,91.3694455 162.38259,91.6655814 162.57,91.9 C162.766295,92.1250433 163.042432,92.2649049 163.34,92.29 L163.34,92.29 Z" id="Path" fill="#FFFFFF"></path>
            <path d="M187.2,101.86 L168.42,101.86 L168.42,98.2 L187.2,98.2 C189.168477,98.2631288 190.990638,97.1648022 191.854109,95.3946874 C192.71758,93.6245726 192.461485,91.5124626 191.2,90 L179.44,75.1 L167.67,60.21 L169.11,59.08 L170.55,57.94 L182.31,72.83 L194.08,87.72 C195.102958,89.0026331 195.740999,90.5491874 195.92,92.18 C196.285751,95.5007252 194.735245,98.7412824 191.92,100.54 C190.505903,101.423751 188.867394,101.881978 187.2,101.86 L187.2,101.86 Z" id="Path" fill="#FFFFFF"></path>
            <polygon id="Path" fill="#77C2D8" points="175.44 70.19 175.66 67.47 175.89 64.75 173.28 61.43 170.66 58.11 170.43 60.83 170.21 63.55 172.82 66.87"></polygon>
            <polygon id="Path" fill="#1E1C1F" points="66.81 175.78 63.62 175.78 60.43 175.78 60.43 186.19 60.43 196.59 63.62 196.59 66.81 196.59 66.81 186.19"></polygon>
            <polygon id="Path" fill="#9DADB7" points="67.28 166.23 63.62 166.23 59.96 166.23 59.96 171.41 59.96 176.59 63.62 176.59 67.28 176.59 67.28 171.41"></polygon>
            <path d="M92.86,164.41 C92.9962399,164.425274 93.1337601,164.425274 93.27,164.41 C93.4109425,164.381531 93.5484038,164.337946 93.68,164.28 C94.6779042,163.825663 95.1239471,162.65257 94.68,161.65 C92.34,156.56 86.04,154.53 80.03,153.81 C75.7458456,153.346272 71.4241544,153.346272 67.14,153.81 L54.79,154.81 L42.43,155.87 C38.982303,156.21521 35.5004959,155.920256 32.16,155 C25.6225536,153.43989 20.6973117,148.051049 19.73,141.4 C19.1386868,137.999056 19.1725745,134.518785 19.83,131.13 L21.44,121.84 L23.06,112.55 C23.3913798,110.415446 23.3473854,108.239416 22.93,106.12 C22.5628704,104.134069 22.0820801,102.170841 21.49,100.24 L15.41,79 L9.33,57.8 C9.1850304,57.2953169 8.84739913,56.8678901 8.39,56.61 C7.928633,56.3568852 7.38609724,56.295805 6.88,56.44 C5.83470892,56.7495284 5.22984933,57.8391652 5.52,58.89 L11.6,80.11 L17.68,101.33 C18.2092441,103.056344 18.6498199,104.808634 19,106.58 C19.3601247,108.313909 19.4142736,110.097437 19.16,111.85 L18,121.49 L16.87,131.13 C16.1026934,134.872147 16.0789087,138.728674 16.8,142.48 C17.5428355,146.061792 19.2471575,149.373639 21.73,152.06 C24.4525878,154.898122 27.9174469,156.91467 31.73,157.88 C35.7096113,158.948032 39.8496963,159.286828 43.95,158.88 L55.71,158.3 L67.48,157.72 C71.7239536,157.272462 76.0052139,157.312724 80.24,157.84 C85.05,158.5 89.54,160.05 91.02,163.26 C91.1766073,163.610645 91.4342609,163.906599 91.76,164.11 C92.0897917,164.314612 92.4719919,164.418848 92.86,164.41 Z" id="Path" fill="#1E1C1F"></path>
            <path d="M85.3699835,163.05 C85.3838013,160.80582 86.9790781,158.883078 89.1821568,158.455315 C91.3852354,158.027553 93.5841317,159.213597 94.4367543,161.289547 C95.2893768,163.365498 94.5588791,165.754686 92.6911188,166.998875 C90.8233584,168.243064 88.3371729,167.996637 86.75,166.41 C85.863019,165.51706 85.3666861,164.308597 85.3699835,163.05 L85.3699835,163.05 Z" id="Path" fill="#1E1C1F"></path>
            <path d="M0.42999397,60.05 C0.426411061,57.7830286 2.0252837,55.8294675 4.24821297,55.3847678 C6.47114224,54.940068 8.69851137,56.1281847 9.56731689,58.2220685 C10.4361224,60.3159523 9.70419445,62.7319564 7.81942481,63.9916452 C5.93465516,65.251334 3.42240238,65.0035832 1.82,63.4 C0.930872236,62.5117668 0.430894235,61.3067838 0.42999397,60.05 L0.42999397,60.05 Z" id="Path" fill="#1E1C1F"></path>
            <path d="M110.09,240 L109.6,236.81 L109.11,233.62 C108.814192,231.711407 107.52157,230.106115 105.72,229.41 L88,222.57 L70.3,215.73 C66.6217074,214.294943 64.0391977,210.942684 63.59,207.02 C63.141153,210.945929 60.5535832,214.299758 56.87,215.73 L39.18,222.57 L21.49,229.41 C19.6884303,230.106115 18.3958084,231.711407 18.1,233.62 L17.61,236.81 L17.15,240 L11.84,240 L12.4,236.42 L12.97,232.83 C13.548984,229.075035 16.0880314,225.914569 19.63,224.54 L37.27,216.6 L54.9,208.6 C55.9182716,208.204713 56.7908311,207.506665 57.4,206.6 C58.015889,205.701861 58.346938,204.639019 58.35,203.55 L58.41,201.16 L58.47,198.77 C58.4699967,197.686182 58.9012251,196.6469 59.6685377,195.881463 C60.4358503,195.116027 61.4761851,194.687344 62.56,194.689988 L64.68,194.689988 C65.7638149,194.687344 66.8041497,195.116027 67.5714623,195.881463 C68.3387749,196.6469 68.7700033,197.686182 68.77,198.77 L68.83,201.16 L68.89,203.55 C68.9074229,205.765956 70.2744954,207.74722 72.34,208.55 L89.97,216.55 L107.6,224.49 C111.148385,225.858235 113.693075,229.020976 114.27,232.78 L114.83,236.37 L115.4,239.95 L110.09,239.95 L110.09,240 Z" id="Path" fill="#9DADB7"></path>
            <path d="M63.62,170.78 L63.62,170.78 C60.8585763,170.78 58.62,168.541424 58.62,165.78 L58.62,159.38 C58.4644756,158.350181 59.0983062,157.365174 60.1,157.08 C61.2691129,156.855494 62.4625721,156.784895 63.65,156.87 L63.65,156.87 C64.8374279,156.784895 66.0308871,156.855494 67.2,157.08 C68.2016938,157.365174 68.8355244,158.350181 68.68,159.38 L68.68,165.78 C68.68,167.106082 68.1532158,168.377852 67.2155339,169.315534 C66.277852,170.253216 65.0060824,170.78 63.68,170.78 L63.62,170.78 Z" id="Path" fill="#9DADB7"></path>
            <path d="M21.68,152.45 C16.7581461,147.215435 14.5419647,139.994377 15.68,132.9 L16.96,124.9 L18.23,116.9 C19.2154647,110.570735 24.6644765,105.902578 31.07,105.899914 L76.24,105.899914 C79.4834302,105.886644 82.5351397,107.434829 84.44,110.06 C85.3828955,111.353769 86.0096358,112.850411 86.27,114.43 C86.5240676,116.009701 86.4007064,117.627104 85.91,119.15 L81.05,134.32 L76.19,149.5 C75.4818464,151.740686 74.120264,153.718637 72.28,155.18 C70.4389826,156.639083 68.2102011,157.525728 65.87,157.73 L53.28,158.79 L40.69,159.85 L39.69,159.92 L38.69,159.92 C32.231004,159.912656 26.0685063,157.208407 21.69,152.46 L21.68,152.45 Z M31.11,109.829892 C26.6622537,109.816942 22.8719715,113.054829 22.19,117.45 L20.91,125.45 L19.63,133.45 C18.2054432,142.474472 23.2638641,151.271544 31.78,154.58 C34.521471,155.643417 37.4710993,156.060882 40.4,155.8 L53,154.81 L65.58,153.75 C68.7764751,153.484026 71.4969206,151.316356 72.47,148.26 L77.33,133.09 L82.18,117.91 C82.4842744,116.981884 82.5631165,115.994644 82.41,115.03 C82.2475342,114.068611 81.8641409,113.158052 81.29,112.37 C80.1321574,110.764579 78.2693534,109.818274 76.29,109.829892 L31.11,109.829892 L31.11,109.829892 Z" id="Shape" fill="#9DADB7"></path>
            <path d="M2.79999872,60.05 C2.79919973,58.9186233 3.59818747,57.9444412 4.70784525,57.7238207 C5.81750303,57.5032003 6.92836745,58.0976684 7.36039837,59.1433085 C7.79242928,60.1889485 7.4251411,61.3941504 6.4833774,62.0211232 C5.5416137,62.648096 4.28801525,62.5219884 3.49,61.72 C3.04756341,61.2769122 2.79934847,60.6761601 2.79999872,60.05 Z" id="Path" fill="#9DADB7"></path>
            <path d="M87.6399987,163.08 C87.6392054,161.949953 88.4363626,160.976531 89.5443872,160.754521 C90.6524117,160.532511 91.7630582,161.123675 92.1976917,162.166795 C92.6323253,163.209916 92.2700337,164.414804 91.3321868,165.04524 C90.3943399,165.675676 89.1418407,165.556278 88.34,164.76 C87.8914343,164.316114 87.6393313,163.711067 87.6399987,163.08 Z" id="Path" fill="#909999"></path>
            <polygon id="Path" fill="#FFFFFF" points="286.85 97.58 259.45 97.58 232.05 97.58 232.05 99.51 232.05 101.44 259.45 101.44 286.85 101.44 286.85 99.51"></polygon>
            <polygon id="Path" fill="#9DADB7" points="271.34 239.92 273.27 239.92 275.2 239.92 268.26 175.86 261.31 111.8 259.38 111.8 257.45 111.8 264.4 175.86"></polygon>
            <polygon id="Path" fill="#9DADB7" points="124.7 239.92 122.77 239.92 120.84 239.92 127.78 175.86 134.73 111.8 136.66 111.8 138.59 111.8 131.64 175.86"></polygon>
            <polygon id="Path" fill="#023852" points="77.69 112.12 199.38 112.12 321.08 112.12 321.08 106.99 321.08 101.86 199.38 101.86 77.69 101.86 77.69 106.99"></polygon>
            <path d="M248.6,93 L266.25,93 C266.285946,92.9897185 266.324054,92.9897185 266.36,93 C266.397759,93.0114741 266.432107,93.0320825 266.46,93.06 L268.46,95.06 L270.46,97.06 C270.487,97.08904 270.521671,97.1098422 270.56,97.12 L270.68,97.12 L284.61,97.12 C285.582021,97.12 286.37,96.3320212 286.37,95.36 L286.37,92.36 C286.37,91.8927389 286.186634,91.4441308 285.86,91.11 C285.528317,90.7796549 285.078108,90.5959697 284.61,90.6 L281.1,90.6 L280.98,90.6 C280.941671,90.5898422 280.907,90.56904 280.88,90.54 L279.44,89.09 L277.99,87.65 C277.957776,87.6153467 277.916026,87.5909929 277.87,87.58 C277.821086,87.5652637 277.768914,87.5652637 277.72,87.58 L263.17,90 L248.55,92.38 C248.387921,92.4008296 248.272326,92.5475468 248.29,92.71 C248.292608,92.78958 248.326746,92.8648587 248.384892,92.9192536 C248.443038,92.9736484 248.520423,93.0026968 248.6,93 Z" id="Path" fill="#9DADB7"></path>
            <path d="M266.46,93 L268.19,94.73 L269.92,96.46 C272.6,95.71 275.25,94.84 277.86,93.9 C280.47,92.96 283.07,91.9 285.66,90.9 C285.516595,90.8100262 285.361921,90.739414 285.2,90.69 C285.03162,90.6375774 284.856351,90.610613 284.68,90.61 L281.17,90.61 L281.05,90.61 C281.011671,90.5998422 280.977,90.57904 280.95,90.55 L279.51,89.1 L278.06,87.66 C278.027776,87.6253467 277.986026,87.6009929 277.94,87.59 C277.891086,87.5752637 277.838914,87.5752637 277.79,87.59 L263.17,90 L248.55,92.38 C248.387921,92.4008296 248.272326,92.5475468 248.29,92.71 C248.300705,92.8717624 248.437986,92.9957577 248.6,92.99 L266.25,92.99 C266.285946,92.9797185 266.324054,92.9797185 266.36,92.99 C266.393579,92.9831792 266.428436,92.9866649 266.46,93 L266.46,93 Z" id="Path" fill="#9DADB7"></path>
            <path d="M285.74,80.37 L285.61,80.37 L285.48,80.37 L285.48,80.37 C283.485307,68.8403419 272.534095,61.1011275 261,63.07 C255.495283,64.0645419 250.618569,67.2232406 247.46,71.84 C244.202071,76.4155546 242.77509,82.0449932 243.46,87.62 L243.12,87.62 L242.77,87.68 L237.77,90.68 L232.77,93.68 C232.407138,93.8967374 232.125933,94.227153 231.97,94.62 C231.818013,95.0167095 231.800447,95.4523413 231.92,95.86 L231.92,95.86 C232.203605,96.7868808 233.136513,97.3543642 234.09,97.18 L259.64,92.43 L285.19,87.69 C285.804317,87.5788623 286.344384,87.2164013 286.68,86.69 C287.011079,86.1625791 287.105418,85.5203526 286.94,84.92 L286.33,82.65 L285.74,80.37 Z" id="Path" fill="#FFE700"></path>
            <path d="M287,84.9 L286.39,82.63 L285.78,80.37 L285.65,80.37 L285.52,80.37 L285.52,80.37 C283.525916,68.8219381 272.548187,61.0766395 261,63.07 C255.554547,64.0617293 250.720822,67.1632199 247.55,71.7 C244.313095,76.2126298 242.846881,81.7571968 243.43,87.28 L243.76,87.28 C244.661629,83.0430724 246.74144,79.1468929 249.76,76.04 C252.768288,72.8816388 256.705958,70.765667 261,70 C266.547004,69.0491921 272.244524,70.3408689 276.839166,73.5908755 C281.433809,76.8408821 284.549205,81.782994 285.5,87.33 L285.5,87.33 L285.63,87.33 L285.76,87.33 L285.76,87.42 L285.76,87.5 C286.758955,87.0587452 287.285833,85.9539997 287,84.9 L287,84.9 Z" id="Path" fill="#FCF8C6"></path>
        </g>
    </g>
</svg>