<?xml version="1.0" encoding="UTF-8"?>
<svg width="440px" height="330px" viewBox="0 0 440 330" version="1.1" xmlns="http://www.w3.org/2000/svg" xmlns:xlink="http://www.w3.org/1999/xlink">
    <title>Graphic elements / Icons / Rich icons / license-governance</title>
    <g id="Graphic-elements-/-Icons-/-Rich-icons-/-license-governance" stroke="none" stroke-width="1" fill="none" fill-rule="evenodd">
        <g id="License-Governance" transform="translate(0.000000, 123.000000)" fill-rule="nonzero">
            <path d="M237.763803,82.0387097 C237.766617,81.3749633 237.503104,80.7378123 237.032258,80.2699752 C236.563306,79.800603 235.927019,79.536877 235.263524,79.536877 C234.600028,79.536877 233.963741,79.800603 233.494789,80.2699752 C232.522044,81.2527715 232.522044,82.835566 233.494789,83.8183623 C234.211284,84.5355255 235.28991,84.7490641 236.225608,84.3589904 C237.161306,83.9689168 237.768854,83.0524467 237.763803,82.0387097 L237.763803,82.0387097 Z" id="Path" fill="#FFE700"></path>
            <path d="M0.807940447,37.208933 L12.1300248,30.2431762 L78.053598,30.2431762 L83.316129,38.0277916 L76.0337469,46.6421836 L84.5280397,56.8942928 L97.8699752,56.8942928 L97.8699752,41.7181141 L105.152357,48.6947891 L114.858561,48.6947891 L118.133995,57.7131514 L85.7399504,88.4367246 L68.3473945,88.4367246 L68.3473945,99.9444169 L77.2456576,99.9444169 L88.1637717,112.238213 L104.748387,112.238213 L117.282382,126.650124 L127.392556,126.650124 L127.392556,142.634243 L94.2342432,176.611414 L94.2342432,200.805955 L81.7002481,189.734988 L81.7002481,154.884367 L71.1751861,143.398511 L71.1751861,124.946898 L78.817866,115.928536 L71.9503722,108.143921 L62.2878412,108.143921 L34.3811414,77.3875931 L34.3811414,58.5320099 L20.6243176,43.3558313 L9.70620347,43.3558313 L0,49.9176179 C0,49.9176179 0.807940447,36.0297767 0.807940447,37.208933 Z" id="Path" fill="#DCE2E5"></path>
            <polygon id="Path" fill="#DCE2E5" points="69.0789082 17.3816377 75.280397 25.4610422 58.160794 25.4610422 52.5598015 17.3816377"></polygon>
            <path d="M122.184615,23.6595533 L131.628784,14.6848635 L158.476427,14.6848635 L164.677916,19.4779156 L164.677916,33.2347395 L142.252109,54.7652605 L133.987097,46.391067 L133.987097,36.826799 C133.987097,36.826799 121.453102,22.9280397 122.184615,23.6595533 Z" id="Path" fill="#DCE2E5"></path>
            <path d="M217.783623,70.0287841 L209.51861,70.0287841 L204.168734,75.7062035 L204.168734,82.5846154 L209.223821,87.3449132 L217.783623,78.6104218 L224.279901,78.6104218 L230.918114,85.3468983 L242.567742,85.3468983 L246.476427,81.3836228 L254.119107,81.3836228 L263.945409,91.3627792 L255.134491,100.293797 L236.082382,100.293797 L230.252109,94.3870968 L213.995037,94.3870968 L198.425806,110.272953 L198.425806,125.121588 L212.53201,139.4134 L230.175682,139.4134 L230.175682,159.218859 L238.145906,167.287345 L238.145906,186.13201 L244.784119,192.868486 L252.896278,192.868486 L266.096278,179.482878 L266.096278,150.189578 L281.77469,134.292804 L258.84665,111.004467 L263.279404,106.517122 L280.388089,123.866005 L291.011414,113.100744 L279.066998,100.981638 L283.783623,96.1995037 L290.421836,102.925062 L298.39206,102.925062 L310.041687,114.738462 L327.095782,97.3895782 L344.804963,115.338958 L351.148387,115.338958 L351.148387,105.621836 L361.913648,94.7037221 L361.913648,87.0610422 L372.984615,87.0610422 L389.776675,70.0287841 L389.776675,56.5667494 L403.053102,56.5667494 L411.907692,47.5920596 L411.907692,37.7657568 L390.682878,37.7657568 L385.223821,32.230273 L357.022333,32.230273 L348.397022,23.4957816 L321.320099,23.4957816 L312.956824,31.9791563 L297.671464,31.9791563 L288.762283,41.0084367 L262.558809,41.0084367 L253.736973,32.0665012 L239.325062,32.0665012 L229.127543,42.3950372 L229.127543,52.0794045 L241.748883,39.3052109 L246.552854,44.1746898 L238.910174,51.9483871 L238.910174,58.0843672 L223.395533,58.0843672 L217.936476,63.6198511 C217.936476,63.6198511 217.783623,71.2188586 217.783623,70.0287841 Z" id="Path" fill="#DCE2E5"></path>
            <polygon id="Path" fill="#DCE2E5" points="372.231266 164.088337 382.854591 153.475931 401.131514 153.475931 414.800993 167.145409 414.800993 186.033747 400.083375 186.033747 391.905707 177.845161 372.253102 177.845161"></polygon>
            <path d="M386.85062,144.250124 L399.733995,144.250124 L406.525062,137.459057 L393.117618,137.459057 C393.117618,137.459057 386.501241,143.900744 386.85062,144.250124 Z" id="Path" fill="#DCE2E5"></path>
            <polygon id="Path" fill="#DCE2E5" points="397.091811 72.5617866 382.898263 86.755335 393.052109 86.755335 407.333002 72.4744417"></polygon>
            <path d="M371.488834,121.070968 L382.941935,121.070968 L372.307692,131.716129 L361.90273,131.716129 C361.90273,131.716129 371.674442,121.245658 371.488834,121.070968 Z" id="Path" fill="#DCE2E5"></path>
            <polygon id="Path" fill="#DCE2E5" points="358.190571 115.644665 353.3866 120.448635 358.004963 125.066998 362.994541 120.077419"></polygon>
            <polygon id="Path" fill="#DCE2E5" points="373.333995 136.083375 368.530025 140.887345 373.148387 145.505707 378.137965 140.516129"></polygon>
            <path d="M348.593548,124.390074 L338.002978,124.390074 L352.960794,139.347891 L363.485856,139.347891 C363.485856,139.347891 348.462531,124.390074 348.593548,124.390074 Z" id="Path" fill="#DCE2E5"></path>
            <path d="M429.726055,178.685856 L420.347395,188.04268 L430.927047,188.04268 L439.661538,179.057072 C439.661538,179.057072 430.086352,178.685856 429.726055,178.685856 Z" id="Path" fill="#DCE2E5"></path>
            <path d="M284.329529,154.185608 L275.835236,162.8 L275.835236,175.355831 L284.329529,166.861538 C284.329529,166.861538 284.198511,154.185608 284.329529,154.185608 Z" id="Path" fill="#DCE2E5"></path>
            <path d="M75.4004963,16.0496278 C75.0292804,16.0496278 81.3727047,10.0774194 81.3727047,10.0774194 L87.716129,16.3771712 L82.1151365,21.9781638 C82.1151365,21.9781638 75.5315136,16.0496278 75.4004963,16.0496278 Z" id="Path" fill="#DCE2E5"></path>
            <path d="M92.1488834,25.5265509 L102.979653,25.5265509 L118.188586,40.7354839 L106.921092,40.7354839 C106.921092,40.7354839 92.2689826,25.4064516 92.1488834,25.5265509 Z" id="Path" fill="#DCE2E5"></path>
            <path d="M171.414392,42.0238213 L164.350372,49.1315136 L170.388089,55.1583127 L177.15732,48.3890819 C177.15732,48.3890819 171.305211,42.0238213 171.414392,42.0238213 Z" id="Path" fill="#DCE2E5"></path>
            <path d="M205.042184,47.4501241 C205.435236,47.4501241 211.134491,53.5424318 211.134491,53.5424318 L211.134491,64.6789082 L205.195037,58.7394541 C205.195037,58.7394541 204.791067,47.4501241 205.042184,47.4501241 Z" id="Path" fill="#DCE2E5"></path>
            <polygon id="Path" fill="#E9EEF1" points="319.092804 61.2833747 320.282878 62.462531 321.462035 63.6526055 322.652109 62.462531 323.842184 61.2833747 322.652109 60.0933002 321.462035 58.9141439 320.282878 60.0933002"></polygon>
            <circle id="Oval" fill="#0099DA" cx="151.849132" cy="29.7955335" r="7.46799007"></circle>
            <circle id="Oval" fill="#0099DA" cx="104.311663" cy="136.74938" r="3.67940447"></circle>
            <circle id="Oval" fill="#0099DA" cx="271.751861" cy="51.0203474" r="3.67940447"></circle>
            <circle id="Oval" fill="#0099DA" cx="295.072953" cy="85.6416873" r="3.67940447"></circle>
            <circle id="Oval" fill="#0099DA" cx="351.126551" cy="93.1315136" r="3.67940447"></circle>
            <circle id="Oval" fill="#0099DA" cx="399.340943" cy="171.19603" r="3.67940447"></circle>
            <circle id="Oval" fill="#0099DA" cx="221.779653" cy="101.95335" r="3.67940447"></circle>
            <circle id="Oval" fill="#0099DA" cx="252.350372" cy="167.462035" r="3.67940447"></circle>
            <circle id="Oval" fill="#0099DA" cx="52.7344913" cy="74.7563275" r="3.67940447"></circle>
            <circle id="Oval" fill="#0099DA" cx="227.151365" cy="72.4635236" r="3.67940447"></circle>
            <circle id="Oval" fill="#0099DA" cx="374.589578" cy="124.291811" r="3.27543424"></circle>
            <circle id="Oval" fill="#023852" cx="328.416873" cy="31.2039702" r="31.2039702"></circle>
            <path d="M337.369727,45.2774194 L339.280397,47.1880893 L343.920596,47.1880893 L344.259057,42.2967742 L332.391067,30.4615385 C333.190811,28.9148792 333.58524,27.1906593 333.537469,25.4501241 C333.44363,21.2201565 330.810662,17.4633384 326.866564,15.9318278 C322.922466,14.4003171 318.44416,15.3957954 315.5203,18.4539775 C312.596441,21.5121595 311.802979,26.0306354 313.509981,29.9020145 C315.216983,33.7733936 319.088198,36.2350801 323.318114,36.1389578 C324.78111,36.111466 326.221484,35.7727735 327.543424,35.1454094 L329.727047,37.3290323 L333.493797,37.3290323 L333.493797,41.1503722 L337.566253,41.1503722 L337.369727,45.2774194 Z M318.263027,25.0461538 C317.205167,23.9831028 317.207972,22.2641943 318.269296,21.2046012 C319.330619,20.1450081 321.04953,20.1450081 322.110853,21.2046012 C323.172177,22.2641943 323.174982,23.9831028 322.117122,25.0461538 C321.059476,26.0851899 319.364345,26.0851899 318.3067,25.0461538 L318.263027,25.0461538 Z" id="Shape" fill="#FFFFFF"></path>
            <circle id="Oval" fill="#023852" cx="51.751861" cy="128.779156" r="31.2039702"></circle>
            <path d="M60.7483871,142.852605 L62.6590571,144.763275 L67.2119107,144.763275 L67.5503722,139.87196 L55.6823821,128.047643 C57.6747109,124.167495 57.0500517,119.458345 54.1150346,116.231799 C51.1800175,113.005253 46.5508827,111.938762 42.499959,113.55584 C38.4490353,115.172917 35.8268603,119.13404 35.9205955,123.494789 C35.9892993,127.038181 37.851319,130.304631 40.8653192,132.169074 C43.8793194,134.033518 47.6334739,134.241203 50.8347395,132.720596 L53.0183623,134.904218 L56.7741935,134.904218 L56.7741935,138.66005 L60.8466501,138.66005 L60.7483871,142.852605 Z M41.6416873,122.62134 C40.5838274,121.558289 40.5866321,119.83938 41.6479556,118.779787 C42.7092791,117.720194 44.4281899,117.720194 45.4895134,118.779787 C46.5508369,119.83938 46.5536416,121.558289 45.4957816,122.62134 C44.9855661,123.134059 44.2920608,123.422313 43.5687345,123.422313 C42.8454082,123.422313 42.1519029,123.134059 41.6416873,122.62134 Z" id="Shape" fill="#FFFFFF"></path>
            <circle id="Oval" fill="#FFE700" cx="103.263524" cy="76.1320099" r="14.0734491"></circle>
            <path d="M107.325062,82.4863524 L108.187593,83.3488834 L110.272953,83.3488834 L110.425806,81.1652605 L105.086849,75.8263027 C105.444401,75.1273904 105.624388,74.3511996 105.610918,73.5662531 C105.575054,71.6526772 104.388963,69.9495196 102.606595,69.2522224 C100.824227,68.5549253 98.7972818,69.0010802 97.4724238,70.3823152 C96.1475657,71.7635502 95.7862173,73.807318 96.5571425,75.559098 C97.3280678,77.3108781 99.0791466,78.4250066 100.992556,78.3811414 C101.654076,78.3698487 102.305532,78.2172218 102.903226,77.9334988 L103.874938,78.9052109 L105.578164,78.9052109 L105.578164,80.630273 L107.412407,80.630273 L107.325062,82.4863524 Z M98.6997519,73.3588089 C98.2249103,72.8803003 98.2268913,72.1077594 98.7041808,71.6316923 C99.1814702,71.1556252 99.9540136,71.1556252 100.431303,71.6316923 C100.908593,72.1077594 100.910574,72.8803003 100.435732,73.3588089 C100.206143,73.5901714 99.8936865,73.7202995 99.5677419,73.7202995 C99.2417974,73.7202995 98.9293412,73.5901714 98.6997519,73.3588089 L98.6997519,73.3588089 Z" id="Shape" fill="#0099DA"></path>
            <circle id="Oval" fill="#0099DA" cx="244.052605" cy="121.889826" r="14.0734491"></circle>
            <path d="M248.114144,128.244169 L248.976675,129.1067 L251.02928,129.1067 L251.182134,126.923077 L245.843176,121.584119 C246.205518,120.886966 246.38579,120.109544 246.367246,119.324069 C246.312429,116.719993 244.157167,114.653299 241.553082,114.70774 C238.948997,114.76218 236.881992,116.917143 236.936056,119.521235 C236.990119,122.125328 239.144783,124.192645 241.748883,124.138958 C242.410403,124.127665 243.06186,123.975038 243.659553,123.691315 L244.631266,124.663027 L246.334491,124.663027 L246.334491,126.388089 L248.168734,126.388089 L248.114144,128.244169 Z M239.499752,119.116625 C239.268389,118.887036 239.138261,118.57458 239.138261,118.248635 C239.138261,117.922691 239.268389,117.610235 239.499752,117.380645 C239.727468,117.149934 240.038119,117.020067 240.362283,117.020067 C240.686446,117.020067 240.997098,117.149934 241.224814,117.380645 C241.456176,117.610235 241.586304,117.922691 241.586304,118.248635 C241.586304,118.57458 241.456176,118.887036 241.224814,119.116625 C240.997098,119.347336 240.686446,119.477203 240.362283,119.477203 C240.038119,119.477203 239.727468,119.347336 239.499752,119.116625 L239.499752,119.116625 Z" id="Shape" fill="#FFFFFF"></path>
        </g>
    </g>
</svg>