<?xml version="1.0" encoding="UTF-8"?>
<svg width="440px" height="330px" viewBox="0 0 440 330" version="1.1" xmlns="http://www.w3.org/2000/svg" xmlns:xlink="http://www.w3.org/1999/xlink">
    <title>Graphic elements / Icons / Rich icons / listen</title>
    <g id="Graphic-elements-/-Icons-/-Rich-icons-/-listen" stroke="none" stroke-width="1" fill="none" fill-rule="evenodd">
        <g id="Listen" transform="translate(114.000000, 0.000000)" fill-rule="nonzero">
            <path d="M190.884758,29.4423792 L182.788104,21.3211896 C169.124754,7.6561055 150.588056,-0.0145566621 131.263941,-2.06803933e-05 L84.1070632,-2.06803933e-05 C64.7829476,-0.0145566621 46.2462496,7.6561055 32.5828996,21.3211896 L12.697026,41.2561338 C4.56743904,49.3824592 0,60.4060774 0,71.9007435 L0,301.943866 C0,317.438841 12.561159,330 28.0561338,330 L64.3193309,330 C104.525592,330 137.121107,297.409978 137.127881,257.203717 L137.127881,257.203717 C137.117375,237.880405 144.78742,219.345197 158.449071,205.679554 L190.884758,173.243866 C204.549842,159.580516 212.220505,141.043818 212.205969,121.719703 L212.205969,80.9665428 C212.217804,61.6429629 204.547553,43.1072584 190.884758,29.4423792 Z" id="Path" fill="#BFC8CD"></path>
            <path d="M190.884758,29.4423792 L182.788104,21.3211896 C169.124754,7.6561055 150.588056,-0.0145566621 131.263941,-2.06803933e-05 L101.576208,-2.06803933e-05 C120.900324,-0.0145566621 139.437022,7.6561055 153.100372,21.3211896 L161.209294,29.4423792 C174.872088,43.1072584 182.542339,61.6429629 182.530483,80.9665428 L182.530483,121.817844 C182.54504,141.141959 174.874378,159.678657 161.209294,173.342007 L128.810409,205.716357 C115.148759,219.382 107.478713,237.917208 107.489219,257.24052 L107.489219,257.24052 C107.479461,276.547296 99.8005145,295.059439 86.1416609,308.704489 C72.4828073,322.349539 53.9629091,330.009763 34.6561338,330.000009 L64.3193309,330.000009 C104.525592,330.000009 137.121107,297.409978 137.127881,257.203717 L137.127881,257.203717 C137.117375,237.880405 144.78742,219.345197 158.449071,205.679554 L190.884758,173.243866 C204.549842,159.580516 212.220505,141.043818 212.205969,121.719703 L212.205969,80.9665428 C212.217804,61.6429629 204.547553,43.1072584 190.884758,29.4423792 L190.884758,29.4423792 Z" id="Path" fill="#D6DCDF" style="mix-blend-mode: multiply;"></path>
            <path d="M150.462825,55.4498141 L142.697398,52.6159851 C134.619894,44.5453471 123.667532,40.0134872 112.249071,40.0170982 L96.6814126,40.0170982 C77.3859796,40.0199375 58.8823805,47.689686 45.2431227,61.33829 L42.1516729,64.4052045 C37.3533538,69.2147831 34.6578641,75.7307213 34.6561336,82.5245353 L34.6561336,140.526022 C34.6561336,133.731674 37.3510742,127.214749 42.1516729,122.406691 L53.9776952,110.617472 C62.0411632,102.554349 72.9737365,98.0189632 84.3769517,98.0063197 L112.261338,98.0063197 C123.677309,98.0092134 134.624908,102.545341 142.697398,110.617472 L142.697398,110.617472 C145.763725,113.683095 149.99983,115.282805 154.327138,115.009294 L160.12974,114.641264 L160.12974,87.8732342 C160.12974,76.4643123 158.534944,63.5219331 150.462825,55.4498141 Z" id="Path" fill="#D6DCDF" style="mix-blend-mode: multiply;"></path>
            <path d="M55.5234201,263.668773 L36.3490706,263.668773 C34.9940225,263.668773 33.895539,262.57029 33.895539,261.215242 C33.895539,259.860194 34.9940225,258.76171 36.3490706,258.76171 L55.5234201,258.76171 C65.2131858,258.748196 73.0649243,250.896457 73.0784387,241.206691 L73.0784387,227.270632 C73.1256938,214.894733 83.1645385,204.883302 95.5405204,204.869888 C105.230286,204.856374 113.082025,197.004636 113.095539,187.31487 L113.095539,131.950929 C113.082025,122.261164 105.230286,114.409425 95.5405204,114.395911 L39.563197,114.395911 C38.2081489,114.395911 37.1096654,113.297427 37.1096654,111.942379 C37.1096654,110.587331 38.2081489,109.488848 39.563197,109.488848 L95.5405204,109.488848 C107.937583,109.50911 117.98234,119.553867 118.002632,131.950929 L118.002632,187.253532 C118.01237,193.219478 115.650931,198.944777 111.43812,203.169092 C107.225309,207.393407 101.506472,209.77045 95.5405204,209.776952 C85.8507547,209.790466 77.9990162,217.642205 77.9855019,227.33197 L77.9855019,241.26803 C77.9382468,253.643929 67.899402,263.65536 55.5234201,263.668773 L55.5234201,263.668773 Z" id="Path" fill="#023852"></path>
            <path d="M34.6561338,194.675465 L64.7732342,194.675465 L64.7732342,199.214498 C64.7732342,207.534493 58.0285454,214.279182 49.7085502,214.279182 L49.7085502,214.279182 C41.3885549,214.279182 34.6438662,207.534493 34.6438662,199.214498 L34.6438662,194.675465 L34.6561338,194.675465 Z" id="Path" fill="#D6DCDF" style="mix-blend-mode: multiply;"></path>
            <path d="M53.3888476,198.736059 L36.3490706,198.736059 C34.9940225,198.736059 33.895539,197.637576 33.895539,196.282528 C33.895539,194.92748 34.9940225,193.828996 36.3490706,193.828996 L53.3888476,193.828996 C61.3991658,193.822225 67.8892222,187.326678 67.8892193,179.316357 L67.8892193,173.660967 C67.882455,165.655436 61.3943782,159.167359 53.3888476,159.160595 C42.6692462,159.147077 33.9826628,150.460494 33.969145,139.740892 L33.969145,86.4869888 C33.9961923,60.3254467 55.1975656,39.1240734 81.3591078,39.097026 L116.935316,39.097026 C143.089269,39.137574 164.279234,60.3330265 164.313011,86.4869888 L164.313011,118.665056 C164.313011,120.020104 163.214528,121.118587 161.85948,121.118587 C160.504431,121.118587 159.405948,120.020104 159.405948,118.665056 L159.405948,86.4869888 C159.372149,63.0335569 140.364221,44.0311161 116.910781,44.0040892 L81.3345725,44.0040892 C57.8927071,44.0446423 38.9032188,63.0451039 38.8762082,86.4869888 L38.8762082,139.740892 C38.8829725,147.753198 45.3765417,154.246767 53.3888476,154.253532 C64.1016737,154.267049 72.7827648,162.94814 72.7962825,173.660967 L72.7962825,179.316357 C72.7895249,190.033973 64.1064578,198.722529 53.3888476,198.736059 L53.3888476,198.736059 Z" id="Path" fill="#023852"></path>
        </g>
    </g>
</svg>