<?xml version="1.0" encoding="UTF-8"?>
<svg width="440px" height="330px" viewBox="0 0 440 330" version="1.1" xmlns="http://www.w3.org/2000/svg" xmlns:xlink="http://www.w3.org/1999/xlink">
    <title>Graphic elements / Icons / Rich icons / live-streaming</title>
    <g id="Graphic-elements-/-Icons-/-Rich-icons-/-live-streaming" stroke="none" stroke-width="1" fill="none" fill-rule="evenodd">
        <g id="Live-Streaming" transform="translate(0.000000, 83.000000)" fill-rule="nonzero">
            <path d="M317.9,242.605 L213.73,242.605 C212.444444,242.605 211.211701,243.116433 210.303708,244.02649 C209.395715,244.936547 208.887078,246.170447 208.889987,247.456 L322.685013,247.456 C322.687922,246.170447 322.179285,244.936547 321.271292,244.02649 C320.363299,243.116433 319.130556,242.605 317.845,242.605 L317.9,242.605 Z" id="Path" fill="#CED6DB"></path>
            <path d="M296.725,232.54 L296.725,199.826 L237.248,199.826 L237.248,232.54 C237.078895,234.298684 236.574831,236.008766 235.763,237.578 C234.154597,240.803109 230.793932,242.774642 227.194,242.605 L306.79,242.605 C303.189359,242.777524 299.827234,240.805135 298.221,237.578 C297.402799,236.010575 296.894841,234.299951 296.725,232.54 Z" id="Path" fill="#9DADB7"></path>
            <g id="Group" opacity="0.5" transform="translate(236.500000, 210.100000)" fill="#8F9C9B">
                <polygon id="Path" style="mix-blend-mode: multiply;" points="0.737 0.484 30.492 0.484 60.247 0.484 60.247 10.098 60.247 19.701 30.492 19.701 0.737 19.701 0.737 10.098"></polygon>
            </g>
            <path d="M432.817,211.904 L101.2,211.904 C97.2404463,211.885933 94.0350667,208.680554 94.017,204.721 L94.017,7.183 C94.0230574,3.2184504 97.2354504,0.00605738202 101.2,-8.46076125e-06 L432.817,-8.46076125e-06 C434.722945,-0.00292547775 436.55167,0.752913224 437.899378,2.10062172 C439.247087,3.44833021 440.000008,5.27705462 440.000008,7.183 L440.000008,204.721 C439.993943,208.68555 436.78155,211.897943 432.817,211.904 L432.817,211.904 Z" id="Path" fill="#023852"></path>
            <polygon id="Path" fill="#0099DA" points="105.138 192.522 267.839 192.522 430.54 192.522 430.54 102.894 430.54 13.266 267.839 13.266 105.138 13.266 105.138 102.894"></polygon>
            <path d="M272.459014,201.421 C272.464791,198.79384 270.611766,196.529389 268.035403,196.015234 C265.459039,195.501079 262.878763,196.880792 261.875687,199.308928 C260.872611,201.737063 261.726835,204.535587 263.914917,205.98965 C266.103,207.443713 269.013938,207.147282 270.864,205.282 C271.887859,204.258251 272.461818,202.868875 272.459014,201.421 Z" id="Path" fill="#4E7486"></path>
            <path d="M143.726,66.066 L106.436,66.066 L106.436,211.893 L153.263,211.893 L153.263,75.592 C153.244862,70.3341754 148.983842,66.0780697 143.726,66.066 L143.726,66.066 Z" id="Path" fill="#023852" opacity="0.3" style="mix-blend-mode: multiply;"></path>
            <g id="Group" opacity="0.2" transform="translate(108.900000, 12.100000)" fill="#FFFFFF">
                <path d="M1.012,0.748 L24.915,23.43 L48.84,46.101 C72.424,68.4676667 96.0263333,90.8343333 119.647,113.201 L190.498,180.202 L321.618,180.202 L321.618,0.748 L1.012,0.748 Z" id="Path"></path>
            </g>
            <path d="M415.679,47.1350016 L374.253,47.1350016 C373.282445,47.1271954 372.355438,46.7310385 371.679,46.035 C370.987041,45.3557678 370.591644,44.4305376 370.579,43.461 L370.579,26.18 C370.591644,25.2104624 370.987041,24.2852322 371.679,23.606 C372.355438,22.9099615 373.282445,22.5138046 374.253,22.506 L415.679,22.506 C416.649555,22.5138046 417.576562,22.9099615 418.253,23.606 C418.944959,24.2852322 419.340356,25.2104624 419.353,26.18 L419.353,43.494 C419.340356,44.4635376 418.944959,45.3887678 418.253,46.068 C417.571103,46.7519174 416.644777,47.1359069 415.679,47.1350016 L415.679,47.1350016 Z" id="Path" fill="#FFE700"></path>
            <polygon id="Path" fill="#023852" points="383.834 38.72 383.834 30.954 385.924 30.954 385.924 37.026 388.916 37.026 388.916 38.72"></polygon>
            <polygon id="Path" fill="#023852" points="390.159 38.72 390.159 30.954 392.271 30.954 392.271 38.72"></polygon>
            <path d="M398.31,30.954 L400.653,30.954 L399.377,34.837 L398.112,38.72 L395.637,38.72 L394.372,34.837 L393.107,30.954 L395.461,30.954 L395.989,32.923 L396.517,34.892 C396.627,35.332 396.715,35.695 396.781,35.992 C396.826847,36.2283775 396.859895,36.4670583 396.88,36.707 C396.88,36.586 396.88,36.443 396.935,36.289 C396.99,36.135 396.935,35.959 397.034,35.772 C397.133,35.585 397.1,35.42 397.133,35.277 C397.166,35.134 397.199,35.002 397.232,34.903 L397.771,32.923 L398.31,30.954 Z" id="Path" fill="#023852"></path>
            <polygon id="Path" fill="#023852" points="406.098 38.72 401.5 38.72 401.5 30.954 406.109 30.954 406.109 32.637 403.59 32.637 403.59 33.858 405.9 33.858 405.9 35.541 403.59 35.541 403.59 37.015 406.098 37.015 406.098 38.72"></polygon>
            <path d="M126.764,44.671 L130.240001,44.671 C130.242628,37.7529802 124.736392,32.0906771 117.821,31.9 L117.821,35.387 C122.792807,35.5809835 126.732495,39.6515103 126.764,44.627 L126.764,44.671 Z" id="Path" fill="#FAFCFB"></path>
            <path d="M120.802,44.671 L124.3,44.671 C124.281177,41.0567509 121.441765,38.0869578 117.832,37.906 L117.832,41.404 C118.64591,41.5030301 119.396295,41.8938554 119.944,42.504 C120.48405,43.0979323 120.78909,43.8683523 120.802,44.671 Z" id="Path" fill="#FFE700"></path>
            <path d="M133.507,44.671 L136.983,44.671 C136.955037,34.0473496 128.442741,25.3933446 117.821,25.19 L117.821,28.688 C126.51944,28.878914 133.479258,35.9705094 133.507,44.671 L133.507,44.671 Z" id="Path" fill="#FAFCFB"></path>
            <path d="M274.615,43.538 L275.165,43.285 L275.715,43.032 C275.781163,43.0001468 275.851543,42.9779217 275.924,42.966 C276.000608,42.9550188 276.078392,42.9550188 276.155,42.966 L276.32,42.966 L276.496,42.966 C276.708539,42.9956805 276.901525,43.1059581 277.035,43.274 C277.161495,43.4490095 277.22013,43.6640019 277.2,43.879 L276.87,46.387 L276.54,48.884 C276.530476,48.9893373 276.496583,49.091016 276.441,49.181 C276.389883,49.2759897 276.318537,49.3586004 276.232,49.423 L275.517,49.973 L274.791,50.534 C274.708452,50.6016201 274.610013,50.6470538 274.505,50.666 C274.404119,50.6930803 274.297881,50.6930803 274.197,50.666 L274.054,50.666 L273.911,50.666 C273.694317,50.6319281 273.49817,50.5181626 273.361,50.347 C273.230483,50.1659477 273.178891,49.939739 273.218,49.72 L273.68,46.915 L274.153,44.11 C274.174237,43.9783308 274.22708,43.8537733 274.307,43.747 C274.392147,43.6544802 274.497569,43.5829435 274.615,43.538 L274.615,43.538 Z" id="Path" fill="#0099DA"></path>
            <path d="M251.603,43.538 L251.064,43.285 L250.514,43.032 C250.444633,42.9984655 250.370371,42.9761868 250.294,42.966 C250.217392,42.9550188 250.139608,42.9550188 250.063,42.966 L249.898,42.966 L249.733,42.966 C249.519701,42.9934348 249.325926,43.1041633 249.194,43.274 C249.058103,43.4443757 248.998418,43.6632211 249.029,43.879 L249.359,46.387 L249.678,48.884 C249.696164,48.9889024 249.73345,49.089574 249.788,49.181 C249.835581,49.2783739 249.907589,49.3617519 249.997,49.423 L250.712,49.973 L251.427,50.534 C251.511883,50.5978018 251.609378,50.6427994 251.713,50.666 C251.817555,50.6935021 251.927445,50.6935021 252.032,50.666 L252.175,50.666 L252.307,50.666 C252.528223,50.6391084 252.728747,50.5226939 252.861792,50.343915 C252.994837,50.1651361 253.048767,49.9396281 253.011,49.72 L252.538,46.915 L252.076,44.11 C252.055399,43.9761376 251.998309,43.8505404 251.911,43.747 C251.829698,43.6501227 251.723059,43.5777608 251.603,43.538 L251.603,43.538 Z" id="Path" fill="#0099DA"></path>
            <path d="M252.076,44.132 C252.055399,43.9981376 251.998309,43.8725404 251.911,43.769 C251.834205,43.6599518 251.727121,43.5758143 251.603,43.527 L251.064,43.274 L250.514,43.021 C250.444633,42.9874655 250.370371,42.9651868 250.294,42.955 L250.074,42.955 L249.898,42.955 L249.733,42.955 C249.519701,42.9824348 249.325926,43.0931633 249.194,43.263 C249.062582,43.4356175 249.003415,43.6525632 249.029,43.868 L249.117,44.506 L249.205,45.133 C249.173418,44.9103137 249.232896,44.6842952 249.37,44.506 C249.509856,44.3324604 249.71035,44.2184535 249.931,44.187 L250.096,44.187 L250.272,44.187 C250.348608,44.1760188 250.426392,44.1760188 250.503,44.187 C250.582571,44.198729 250.660243,44.2209211 250.734,44.253 L251.295,44.517 L251.856,44.77 C251.939112,44.8057141 252.013995,44.8581323 252.076,44.924 C252.140161,44.9859183 252.195663,45.0562208 252.241,45.133 L252.153,44.627 L252.076,44.132 Z" id="Path" fill="#66C3E9"></path>
            <path d="M276.496,42.999 L276.32,42.999 L276.155,42.999 L275.935,42.999 C275.858629,43.0091868 275.784367,43.0314655 275.715,43.065 L275.165,43.318 L274.615,43.571 C274.494166,43.6253942 274.388438,43.7084659 274.307,43.813 C274.22708,43.9197733 274.174237,44.0443308 274.153,44.176 L274.065,44.726 L273.966,45.287 C273.995921,45.1628202 274.052193,45.0465254 274.131,44.946 C274.212346,44.8514264 274.313826,44.7762562 274.428,44.726 L274.989,44.462 L275.561,44.209 C275.630367,44.1754655 275.704629,44.1531868 275.781,44.143 L276.012,44.143 L276.188,44.143 L276.364,44.143 C276.543143,44.164667 276.709767,44.2460414 276.837,44.374 C276.961942,44.5004155 277.04622,44.6613097 277.079,44.836 L277.134,44.374 L277.2,43.912 C277.22013,43.6970019 277.161495,43.4820095 277.035,43.307 C276.901525,43.1389581 276.708539,43.0286805 276.496,42.999 L276.496,42.999 Z" id="Path" fill="#66C3E9"></path>
            <polygon id="Path" fill="#023852" points="290.51 159.159 290.554 161.557 290.587 163.955 289.135 178.343 287.683 192.731 277.233 192.731 266.783 192.731 265.441 181.687 264.11 170.643 263.714 168.289 263.329 165.924 262.966 165.924 262.614 165.924 262.339 168.366 262.064 170.797 258.533 181.764 254.991 192.731 243.716 192.731 232.441 192.731 233.266 178.112 234.091 163.493 234.564 160.028 235.037 156.574 246.356 146.817 257.664 137.071 266.156 138.138 274.637 139.194 282.579 149.182"></polygon>
            <path d="M253.803,60.643 L251.603,62.733 L249.403,64.823 L249.304,64.889 L249.205,64.889 L240.02,68.189 L230.846,71.489 C230.751387,71.5200776 230.667492,71.5772787 230.604,71.654 C230.538879,71.7297527 230.49353,71.8204518 230.472,71.918 L228.272,84.293 L226.072,96.657 L226.072,96.657 L226.072,96.657 L225.335,103.18 L224.587,109.703 C224.592146,109.724699 224.592146,109.747301 224.587,109.769 C224.587,109.769 224.587,109.769 224.587,109.835 L223.487,112.904 L222.387,115.973 C222.376595,116.027508 222.376595,116.083492 222.387,116.138 C222.376037,116.192454 222.376037,116.248546 222.387,116.303 L222.86,118.404 L223.344,120.494 L223.344,120.615 L223.41,120.725 L226.281,124.377 L229.141,128.029 C229.191535,128.097611 229.260061,128.150909 229.339,128.183 C229.412257,128.226378 229.495864,128.24918 229.581,128.249 L234.256,128.249 L234.355,128.249 L235.18,127.941 L236.005,127.644 C236.187063,127.570921 236.394634,127.60481 236.544,127.732 C236.704648,127.847502 236.789098,128.041738 236.764,128.238 L235.334,143.418 L233.915,158.587 C233.900253,158.728162 233.93956,158.869667 234.025,158.983 C234.105242,159.093343 234.222283,159.17137 234.355,159.203 L241.241,160.71 L248.116,162.217 L248.248,162.217 L248.369,162.217 L251.097,161.557 L253.814,160.897 C253.889292,160.877491 253.960208,160.843899 254.023,160.798 C254.088717,160.749055 254.141565,160.684883 254.177,160.611 L258.577,152.526 L262.977,144.441 C262.977,144.441 262.977,144.441 262.977,144.441 C262.977,144.441 262.977,144.441 262.977,144.441 L263.34,143.407 L263.714,142.362 C263.723419,142.169026 263.831473,141.994478 264,141.9 C264.236741,141.888949 264.453938,142.030792 264.539,142.252 L268.191,151.305 L271.843,160.347 C271.865789,160.398397 271.895388,160.446494 271.931,160.49 C271.966894,160.53837 272.011697,160.579439 272.063,160.611 L273.724,161.711 L275.385,162.811 C275.428054,162.841862 275.476582,162.86426 275.528,162.877 C275.582482,162.887677 275.638518,162.887677 275.693,162.877 L283.69,162.877 L283.811,162.877 L287.584,161.128 L291.368,159.39 C291.470348,159.344786 291.555265,159.267588 291.61,159.17 C291.665947,159.072865 291.696232,158.963081 291.698,158.851 L291.544,155.045 L291.401,151.25 L291.401,151.173 L289.784,141.9 L288.2,132.77 L288.2,132.77 L287.804,127.49 L287.419,122.21 C287.396341,121.994749 287.504636,121.786822 287.694,121.682 C287.879164,121.566622 288.113836,121.566622 288.299,121.682 L290.4,122.98 L292.6,124.3 C292.645866,124.333038 292.698444,124.355572 292.754,124.366 C292.804704,124.377367 292.857296,124.377367 292.908,124.366 L299.2,124.366 C299.282973,124.387423 299.370027,124.387423 299.453,124.366 C299.530192,124.330952 299.598029,124.27819 299.651,124.212 L301.939,121.286 L304.227,118.371 C304.264707,118.320893 304.294395,118.265228 304.315,118.206 C304.325462,118.144106 304.325462,118.080894 304.315,118.019 L304.315,111.98 C304.336916,111.89709 304.336916,111.80991 304.315,111.727 L303.215,109.296 L302.115,106.865 L302.115,106.865 C302.115,106.865 302.115,106.865 302.115,106.865 L301.422,104.291 L300.729,101.717 C300.729,101.717 300.729,101.717 300.729,101.651 C300.724473,101.625533 300.724473,101.599467 300.729,101.574 L300.729,93.313 C300.729,93.313 300.729,93.313 300.729,93.236 L298.001,83.875 L295.273,74.503 C295.267854,74.481301 295.267854,74.458699 295.273,74.437 L295.207,73.337 L295.141,72.237 C295.133019,72.1296199 295.09489,72.0266731 295.031,71.94 C294.968705,71.8542847 294.885354,71.7860877 294.789,71.742 L284.46,67.441 L274.12,63.14 C274.075818,63.1209519 274.034968,63.0949566 273.999,63.063 L273.889,62.964 L272.789,61.49 L271.623,60.005 C271.565714,59.935912 271.494497,59.8796876 271.414,59.84 C271.327361,59.8181158 271.236639,59.8181158 271.15,59.84 L262.801,60.258 L254.441,60.676 C254.379185,60.6646332 254.315815,60.6646332 254.254,60.676 C254.121253,60.5826797 253.947917,60.5699967 253.803,60.643 Z" id="Path" fill="#023852"></path>
            <path d="M232.551,73.568 L241.241,70.114 L249.931,66.671 L250.03,66.616 C250.064146,66.5964184 250.094059,66.5702445 250.118,66.539 L252.076,64.581 L254.034,62.623 C254.090236,62.5660314 254.135043,62.4988211 254.166,62.425 C254.176689,62.348371 254.176689,62.270629 254.166,62.194 L254.166,61.336 L254.166,60.489 L254.001,60.489 L251.68,62.689 L249.37,64.889 L249.271,64.955 L249.172,64.955 L239.987,68.255 L230.813,71.555 C230.718387,71.5860776 230.634492,71.6432787 230.571,71.72 C230.505879,71.7957527 230.46053,71.8864518 230.439,71.984 L228.404,82.984 L226.369,93.984 L227.37,91.289 L228.382,88.594 L228.382,88.594 L230.318,81.301 L232.254,74.008 C232.276095,73.9203966 232.321744,73.8405109 232.386,73.777 C232.423792,73.6953231 232.480324,73.6237163 232.551,73.568 L232.551,73.568 Z" id="Path" fill="#4E7486"></path>
            <path d="M271.634,60.225 L272.734,61.567 L273.834,62.898 C273.860496,62.9300396 273.88996,62.9595039 273.922,62.986 C273.95503,63.0108485 273.992303,63.0294849 274.032,63.041 L284.35,67.342 L294.679,71.632 C294.745998,71.6637486 294.803051,71.7131947 294.844,71.775 C294.887222,71.8327547 294.913847,71.9012186 294.921,71.973 L294.998,73.183 L295.086,74.393 L297.605,82.962 L300.113,91.531 L296.34,83.105 L292.6,74.668 L292.49,74.107 L292.391,73.557 C292.348856,73.3015362 292.238661,73.0621463 292.072,72.864 C291.903271,72.6718741 291.692464,72.5212973 291.456,72.424 L281.765,68.805 L272.085,65.175 L271.766,62.755 L271.447,60.335 C271.440481,60.2759685 271.471128,60.2190521 271.524,60.192 C271.563781,60.1856374 271.60429,60.1977901 271.634,60.225 L271.634,60.225 Z" id="Path" fill="#4E7486"></path>
            <path d="M247.984,119.295 C246.234158,119.487144 244.475351,119.586284 242.715,119.592 C240.955,119.592 239.206,119.515 237.446,119.372 L237.446,121.572 L237.446,123.772 C237.446,123.772 237.446,123.772 237.446,123.772 L237.446,123.772 L237.006,126.093 L236.566,128.414 L236.566,128.469 L236.071,133.782 L235.565,139.095 L239.008,133.232 L242.451,127.38 C242.569294,127.183119 242.801296,127.085297 243.024844,127.138044 C243.248391,127.190791 243.412194,127.382005 243.43,127.611 C243.442896,127.850385 243.622007,128.047866 243.859,128.084 C244.092831,128.132172 244.329239,128.013968 244.431,127.798 L246.312,123.904 L248.204,120.01 C248.214304,119.944402 248.214304,119.877598 248.204,119.812 C248.220299,119.747006 248.220299,119.678994 248.204,119.614 L248.138,119.405 L247.984,119.295 Z" id="Path" fill="#06233C" opacity="0.6" style="mix-blend-mode: multiply;"></path>
            <path d="M283.8,115.83 L283.679,117.931 L283.547,120.032 C283.541531,120.090539 283.541531,120.149461 283.547,120.208 C283.542304,120.2629 283.542304,120.3181 283.547,120.373 L285.747,125.213 L287.947,130.053 L287.661,126.17 L287.375,122.276 C287.350665,122.014135 287.479067,121.76161 287.705,121.627 C287.926104,121.484778 288.209896,121.484778 288.431,121.627 L289.465,122.298 L290.488,122.98 L289.388,119.955 L288.288,116.93 C287.507,116.809 286.726,116.677 285.967,116.501 C285.22752,116.337017 284.502752,116.112597 283.8,115.83 Z" id="Path" fill="#06233C" opacity="0.6" style="mix-blend-mode: multiply;"></path>
            <polygon id="Path" fill="#FFFFFF" points="254.034 61.05 253.363 61.919 252.692 62.777 252.692 71.5 252.692 80.234 254.309 86.559 255.915 92.884 259.919 101.97 263.934 111.045 267.234 101.541 270.534 92.026 271.436 85.657 272.338 79.288 272.338 70.95 272.338 62.623 271.744 61.127 271.161 59.631 262.592 60.346"></polygon>
            <path d="M253.715,56.881 L253.715,62.469 L255.145,64.669 L256.575,66.869 L259.391,68.673 L262.207,70.466 C262.426594,70.6159664 262.689475,70.6894183 262.955,70.675 C263.218465,70.6641289 263.472091,70.5719011 263.681,70.411 L266.574,68.211 L269.467,66.011 L269.412,63.811 L269.357,61.611 L261.536,59.323 L253.715,56.881 Z" id="Path" fill="#0099DA"></path>
            <path d="M272.8,33.924 L268.037,32.076 L263.274,30.217 L263.274,30.151 L263.274,30.151 L263.197,30.151 L263.197,30.151 L263.197,30.217 L258.434,32.076 L253.671,33.924 C253.321859,34.3837999 253.084592,34.9185903 252.978,35.486 C252.428993,37.8353109 252.192285,40.2467777 252.274,42.658 L252.274,54.527 L254.661,60.225 L257.037,65.923 L259.501,66.671 L261.965,67.419 L264.594,67.419 L267.058,66.671 L269.522,65.923 L271.898,60.225 L274.274,54.527 L274.274,42.658 C274.357532,40.2473177 274.124545,37.8360906 273.581,35.486 C273.448374,34.9107106 273.180656,34.3752748 272.8,33.924 Z" id="Path" fill="#0099DA"></path>
            <polygon id="Path" fill="#66C2E9" style="mix-blend-mode: multiply;" points="257.488 33.847 257.763 34.87 258.038 35.893 264.363 38.874 270.688 41.866 270.688 43.945 270.688 46.035 270.688 49.456 270.688 52.877 268.642 56.804 266.607 60.731 267.707 62.106 268.807 63.492 271.557 59.081 274.318 54.681 274.076 46.739 273.834 38.797 272.569 34.353 271.315 29.92 264.407 31.878"></polygon>
            <polygon id="Path" fill="#023852" points="266.002 72.226 265.199 74.107 264.407 75.988 264.407 76.934 264.407 77.869 265.309 79.794 266.211 81.73 266.651 91.85 267.091 101.97 265.507 107.085 263.934 112.2 261.184 105.424 258.434 98.659 258.863 90.266 259.292 81.884 259.765 80.036 260.238 78.188 260.238 77.242 260.238 76.307 259.545 74.569 258.852 72.853 260.645 71.863 262.438 70.873 262.911 70.873 263.384 70.873 264.693 71.544"></polygon>
            <path d="M271.557,75.075 L267.476,72.974 L263.395,70.884 L262.427,70.884 L258.434,73.084 L254.441,75.284 C254.424476,75.3070073 254.424476,75.3379927 254.441,75.361 C254.462386,75.3819629 254.496614,75.3819629 254.518,75.361 L258.687,73.821 L262.845,72.281 L262.845,72.281 L267.168,73.722 L271.491,75.163 C271.514007,75.1795235 271.544993,75.1795235 271.568,75.163 C271.568,75.163 271.59,75.086 271.557,75.075 Z" id="Path" fill="#9BBFDB" style="mix-blend-mode: multiply;"></path>
            <path d="M294.382,111.694 L294.382,111.694 C294.676138,111.693984 294.962136,111.790604 295.196,111.969 C295.435013,112.141779 295.609279,112.389625 295.691,112.673 L296.087,113.993 L296.483,115.313 C296.493304,115.378598 296.493304,115.445402 296.483,115.511 C296.488409,115.576889 296.488409,115.643111 296.483,115.709 L296.483,118.8 C296.47977,118.953313 296.453821,119.1053 296.406,119.251 C296.350828,119.397945 296.272875,119.535292 296.175,119.658 L295.196,120.879 L294.206,122.1 C294.000934,122.360505 293.707359,122.53665 293.381,122.595 C293.049926,122.647669 292.710896,122.581422 292.424,122.408 L290.686,121.308 L288.948,120.208 C288.650045,120.013575 288.434549,119.715798 288.343,119.372 C288.261528,119.023857 288.316645,118.657728 288.497,118.349 L288.728,117.942 L288.97,117.546 C288.97,117.546 288.97,117.546 288.97,117.458 L289.036,117.381 L291.115,114.785 L293.205,112.178 C293.333147,112.017147 293.494483,111.885827 293.678,111.793 C293.901938,111.706326 294.142843,111.672448 294.382,111.694 Z" id="Path" fill="#FFFFFF"></path>
            <polygon id="Path" fill="#FFFFFF" points="232.551 114.884 231.715 115.984 230.879 117.073 230.879 119.427 230.879 121.781 232.056 123.343 233.233 124.916 234.74 125.565 236.258 126.214 237.435 124.993 238.612 123.772 238.458 122.903 238.293 122.034 235.422 118.459"></polygon>
            <path d="M231.869,116.369 C231.869,116.182 231.869,115.269 231.869,114.378 C231.869,113.487 231.869,112.486 231.869,112.178 C231.874893,112.134197 231.874893,112.089803 231.869,112.046 C231.873728,112.002127 231.873728,111.957873 231.869,111.914 L231.33,110.814 L230.791,109.714 C230.748221,109.593003 230.748221,109.460997 230.791,109.34 C230.815492,109.215589 230.881407,109.103145 230.978,109.021 L231.88,108.251 L232.793,107.481 C233.036994,107.277539 233.398971,107.306888 233.607,107.547 L236.577,111.1 L239.547,114.642 C239.608956,114.718385 239.650581,114.809202 239.668,114.906 C239.695503,114.99935 239.695503,115.09865 239.668,115.192 L239.668,115.192 C239.593589,115.417342 239.663191,115.665299 239.844,115.819 C240.024368,115.966521 240.275253,115.992474 240.482,115.885 L241.813,115.192 L243.1,114.4 C243.19556,114.353399 243.302217,114.334353 243.408,114.345 C243.512731,114.349724 243.613096,114.388326 243.694,114.455 L245.366,115.665 L247.038,116.886 L247.159,117.007 C247.195618,117.056193 247.221818,117.112337 247.236,117.172 L247.709,118.602 L248.171,120.021 C248.198471,120.129285 248.198471,120.242715 248.171,120.351 C248.14654,120.457839 248.088759,120.554141 248.006,120.626 L246.059,122.463 L244.134,124.3 C244.082243,124.346711 244.022667,124.383946 243.958,124.41 C243.888807,124.421488 243.818193,124.421488 243.749,124.41 L241.12,124.41 L238.491,124.41 L238.392,124.41 L238.304,124.41 L237.6,124.3 L236.885,124.069 L236.687,124.069 C236.625736,124.052669 236.561264,124.052669 236.5,124.069 L236.005,124.267 L235.51,124.454 C235.392977,124.497875 235.264023,124.497875 235.147,124.454 C235.028016,124.42448 234.923012,124.354477 234.85,124.256 L233.2,122.298 L231.605,120.274 C231.559176,120.215231 231.525521,120.14792 231.506,120.076 C231.489112,120.003639 231.489112,119.928361 231.506,119.856 L231.682,118.14 L231.869,116.424 L231.869,116.369 L231.869,116.369 Z" id="Path" fill="#0099DA"></path>
            <path d="M294.734,107.635 L295.097,104.951 L295.46,102.256 C295.492793,102.137222 295.492793,102.011778 295.46,101.893 C295.410758,101.77824 295.33543,101.676547 295.24,101.596 L294.569,101.09 L293.898,100.573 C293.786163,100.487428 293.653001,100.434163 293.513,100.418973 C293.371238,100.417869 293.231404,100.451883 293.106,100.518 L292.974,100.595 L292.831,100.683 C292.666733,100.7798 292.547933,100.9382 292.501,101.123 L292.006,103.147 L291.511,105.171 C291.4797,105.307239 291.406632,105.430301 291.302,105.523 C291.199402,105.613805 291.073835,105.674686 290.939,105.699 L290.323,105.809 L289.707,105.908 L289.52,105.963 L289.355,106.073 L288.893,106.491 L288.42,106.909 C288.324686,106.996126 288.252815,107.105824 288.211,107.228 C288.172738,107.353481 288.172738,107.487519 288.211,107.613 L288.211,107.613 C288.278258,107.875936 288.188384,108.154118 287.98,108.328 C287.782974,108.516822 287.490057,108.564913 287.243,108.449 L285.626,107.778 L284.009,107.096 C283.913093,107.050472 283.806737,107.03148 283.701,107.041 C283.592446,107.043171 283.486316,107.073494 283.393,107.129 L281.644,108.086 L279.895,109.054 C279.829471,109.088017 279.770005,109.132617 279.719,109.186 C279.662764,109.242969 279.617957,109.310179 279.587,109.384 L278.85,111.034 L278.102,112.684 C278.052543,112.830266 278.052543,112.988734 278.102,113.135 C278.134513,113.287949 278.220273,113.424386 278.344,113.52 L280.885,115.643 L283.437,117.766 C283.481215,117.808942 283.533577,117.842603 283.591,117.865 L283.778,117.865 L285.868,118.195 L287.958,118.525 L288.057,118.525 L288.156,118.525 L289.256,119.053 L290.356,119.581 C290.497904,119.642368 290.654507,119.661465 290.807,119.636 C290.960201,119.603057 291.098915,119.522141 291.203,119.405 L292.864,117.513 L294.525,115.61 C294.580009,115.545751 294.621198,115.470863 294.646,115.39 C294.661715,115.310099 294.661715,115.227901 294.646,115.148 L294.646,111.21 L294.734,109.45 L294.811,107.701 L294.811,107.635 L294.734,107.635 Z" id="Path" fill="#0099DA"></path>
            <path d="M295.196,101.596 L294.525,101.09 L293.854,100.573 C293.742163,100.487428 293.609001,100.434163 293.469,100.418973 C293.327238,100.417869 293.187404,100.451883 293.062,100.518 L292.93,100.595 L292.787,100.683 C292.622733,100.7798 292.503933,100.9382 292.457,101.123 L291.962,103.147 L291.467,105.171 C291.4357,105.307239 291.362632,105.430301 291.258,105.523 C291.155402,105.613805 291.029835,105.674686 290.895,105.699 L290.279,105.809 L289.663,105.908 L289.476,105.963 L289.311,106.073 L288.849,106.491 L288.376,106.909 C288.280686,106.996126 288.208815,107.105824 288.167,107.228 C288.128738,107.353481 288.128738,107.487519 288.167,107.613 C288.234258,107.875936 288.144384,108.154118 287.936,108.328 C287.738974,108.516822 287.446057,108.564913 287.199,108.449 L285.582,107.778 L283.965,107.096 C283.869093,107.050472 283.762737,107.03148 283.657,107.041 C283.548446,107.043171 283.442316,107.073494 283.349,107.129 L281.6,108.086 L279.851,109.054 C279.785471,109.088017 279.726005,109.132617 279.675,109.186 C279.618764,109.242969 279.573957,109.310179 279.543,109.384 L278.806,111.034 L278.058,112.684 C278.008543,112.830266 278.008543,112.988734 278.058,113.135 C278.090513,113.287949 278.176273,113.424386 278.3,113.52 L279.213,114.279 L280.137,115.049 L280.973,113.091 L281.809,111.133 L282.832,110.341 L283.855,109.56 L286.682,110.033 L289.509,110.495 L289.828,109.318 L290.136,108.141 L292.545,107.228 L294.954,106.315 L295.229,104.291 L295.504,102.256 C295.536793,102.137222 295.536793,102.011778 295.504,101.893 C295.430084,101.767966 295.323638,101.665322 295.196,101.596 L295.196,101.596 Z" id="Path" fill="#66C3E9"></path>
            <path d="M248.182,120.054 L247.72,118.635 L247.247,117.205 C247.232818,117.145337 247.206618,117.089193 247.17,117.04 L247.049,116.919 L245.377,115.698 L243.705,114.488 C243.624096,114.421326 243.523731,114.382724 243.419,114.378 C243.313217,114.367353 243.20656,114.386399 243.111,114.433 L241.769,115.126 L240.438,115.819 C240.231253,115.926474 239.980368,115.900521 239.8,115.753 C239.619191,115.599299 239.549589,115.351342 239.624,115.126 C239.651503,115.03265 239.651503,114.93335 239.624,114.84 C239.606581,114.743202 239.564956,114.652385 239.503,114.576 L236.533,111.034 L233.563,107.481 C233.354971,107.240888 232.992994,107.211539 232.749,107.415 L232.144,107.921 L231.539,108.438 L234.333,111.903 L237.116,115.379 L237.039,116.314 L236.962,117.26 L242.616,117.26 L244.585,119.647 L246.554,122.034 L247.28,121.341 L248.006,120.659 C248.088759,120.587141 248.14654,120.490839 248.171,120.384 C248.202096,120.276633 248.205877,120.163199 248.182,120.054 Z" id="Path" fill="#66C3E9"></path>
            <path d="M265.485,117.447 C265.484952,117.070898 265.334434,116.710447 265.067,116.446 C264.592685,115.980058 263.855699,115.912971 263.305049,116.285612 C262.754399,116.658253 262.542683,117.367355 262.798888,117.980898 C263.055093,118.594442 263.708219,118.942401 264.360351,118.812781 C265.012483,118.683162 265.482899,118.111886 265.485,117.447 L265.485,117.447 Z" id="Path" fill="#82919E"></path>
            <path d="M265.485,132.22 C265.49006,131.580398 265.063364,131.017748 264.446106,130.850092 C263.828848,130.682436 263.176136,130.951903 262.856922,131.506176 C262.537709,132.060449 262.632206,132.760246 263.087,133.21 C263.347691,133.476067 263.704506,133.626002 264.077,133.626002 C264.449494,133.626002 264.806309,133.476067 265.067,133.21 C265.331739,132.948241 265.482032,132.592285 265.485,132.22 L265.485,132.22 Z" id="Path" fill="#82919E"></path>
            <path d="M275,31.504 L272.613,29.139 L270.215,26.774 L270.116,26.708 L270.017,26.708 L268.07,26.07 L266.112,25.432 L262.284,25.432 L262.196,25.432 L262.108,25.432 L258.346,26.895 L254.595,28.347 L254.496,28.347 L254.408,28.413 L252.901,30.008 L251.383,31.592 C251.349892,31.6333633 251.320448,31.67753 251.295,31.724 C251.283986,31.7747425 251.283986,31.8272575 251.295,31.878 L250.987,34.21 L250.69,36.531 L250.69,36.641 L250.987,39.941 L251.284,43.241 C251.292417,43.3415863 251.330725,43.4373567 251.394,43.516 C251.454096,43.5914765 251.534113,43.6486312 251.625,43.681 L251.625,43.681 L251.68,43.681 C251.771277,43.7067668 251.852109,43.7606542 251.911,43.835 C251.971434,43.9068763 252.009654,43.9947812 252.021,44.088 L252.12,44.814 L252.208,45.54 L252.681,45.54 L253.154,45.54 L253.154,42.042 L253.484,39.644 L253.825,37.235 C253.813989,37.17685 253.813989,37.11715 253.825,37.059 C253.855547,37.0102412 253.892549,36.9658386 253.935,36.927 L255.387,35.662 L256.828,34.408 C256.957565,34.2949587 257.134851,34.2537293 257.301,34.298 C257.465006,34.3467087 257.593291,34.4749942 257.642,34.639 L257.719,34.87 L257.785,35.101 C257.819375,35.1880478 257.871869,35.2667897 257.939,35.332 C258.010876,35.3924341 258.098781,35.4306536 258.192,35.442 L262.504,36.157 L266.827,36.861 L266.981,36.916 C267.033467,36.9358701 267.079234,36.9701948 267.113,37.015 L268.543,38.566 L269.984,40.117 L269.665,38.324 L269.346,36.531 C269.328951,36.4096071 269.352133,36.2859712 269.412,36.179 C269.473006,36.0782796 269.56593,36.0008428 269.676,35.959 L270.259,35.761 L270.842,35.563 C270.965547,35.5134343 271.103453,35.5134343 271.227,35.563 C271.345448,35.6216333 271.436254,35.7242837 271.48,35.849 L272.173,37.917 L272.877,39.974 L272.877,40.051 L273.317,42.878 L273.768,45.716 L274.208,45.716 L274.351,44.781 L274.483,43.835 C274.495119,43.7696077 274.517388,43.7065124 274.549,43.648 C274.591013,43.5949964 274.638996,43.547013 274.692,43.505 L274.769,43.505 L274.857,43.439 C274.922256,43.3941485 274.975208,43.3336321 275.011,43.263 C275.027352,43.1868682 275.027352,43.1081318 275.011,43.032 L275.011,31.9 C275.021487,31.8344166 275.021487,31.7675834 275.011,31.702 C275.019611,31.6358877 275.015881,31.5687517 275,31.504 Z" id="Path" fill="#023852"></path>
            <path d="M257.642,66.275 L259.666,66.891 L261.701,67.507 L261.91,67.507 L264.539,67.507 L264.737,67.507 L266.783,66.891 L268.818,66.275 C269.019432,66.2162535 269.204122,66.1107165 269.357,65.967 C269.51824,65.8287054 269.646099,65.6557197 269.731,65.461 L271.931,60.203 L274.131,54.956 C274.171845,54.8645963 274.201396,54.7685547 274.219,54.67 C274.230411,54.5750081 274.230411,54.4789919 274.219,54.384 L274.219,45.683 L273.9,45.683 L273.46,48.906 L273.009,52.118 C272.996584,52.2389261 272.966951,52.3574575 272.921,52.47 C272.871899,52.5835563 272.8091,52.6906842 272.734,52.789 L271.634,54.23 L270.534,55.66 C270.259687,56.039915 269.814342,56.2584638 269.346,56.243 C268.876606,56.2329828 268.441523,55.9949183 268.18,55.605 L267.542,54.659 L266.915,53.724 C266.785281,53.5252844 266.60744,53.3625791 266.398,53.251 C266.187574,53.1410719 265.953404,53.0844177 265.716,53.086 L260.898,53.086 C260.680499,53.0821445 260.465321,53.1312202 260.271,53.229 C260.070573,53.319603 259.896458,53.4596523 259.765,53.636 L259.116,54.461 L258.467,55.275 C258.17185,55.6561179 257.704551,55.8628877 257.224,55.825 C256.740294,55.7960823 256.304786,55.5223345 256.069,55.099 L254.716,52.701 L253.352,50.303 C253.291184,50.1953059 253.24319,50.0808596 253.209,49.962 C253.197582,49.8375948 253.197582,49.7124052 253.209,49.588 L253.209,45.496 L252.725,45.496 C252.6104,45.4879495 252.498392,45.4580808 252.395,45.408 C252.318,45.408 252.263,45.408 252.263,45.507 L252.263,54.384 C252.252813,54.4790612 252.252813,54.5749388 252.263,54.67 C252.282359,54.7610165 252.311877,54.8495713 252.351,54.934 L254.551,60.192 L256.751,65.439 C256.835789,65.6369333 256.96354,65.8135304 257.125,65.956 C257.269674,66.1017321 257.446859,66.2110595 257.642,66.275 Z" id="Path" fill="#023852"></path>
            <path d="M265.936,25.355 L262.163,25.355 L262.075,25.355 L258.324,26.818 L254.562,28.27 L254.474,28.27 L254.386,28.336 L252.868,29.931 L251.35,31.515 L251.262,31.647 C251.255672,31.6981383 251.255672,31.7498617 251.262,31.801 L251.262,32.274 L251.196,32.758 L253.66,30.899 C254.496,30.261 255.222,29.722 255.442,29.568 L255.508,29.568 L255.585,29.568 L259.039,28.468 L262.504,27.368 L262.581,27.368 L265.936,27.368 L267.828,27.819 L269.72,28.281 L269.797,28.281 L269.874,28.281 L272.547,30.052 L275.231,31.812 L275.231,31.614 L272.756,29.183 L270.281,26.741 L270.193,26.675 C270.156575,26.6690471 270.119425,26.6690471 270.083,26.675 L268.136,26.037 L266.189,25.399 L266.035,25.399 L265.936,25.355 Z" id="Path" fill="#354D61"></path>
            <path d="M132,75.592 C131.993938,70.3334484 127.732552,66.0720617 122.474,66.066 L9.526,66.066 C4.26744837,66.0720617 0.00606173702,70.3334484 0,75.592 L0,236.863 C0.0120696502,242.120842 4.26817545,246.381862 9.526,246.4 L122.507,246.4 C127.764825,246.381862 132.02093,242.120842 132.033,236.863 L132.033,75.592 L132,75.592 Z" id="Path" fill="#023852"></path>
            <path d="M71.8190132,235.785 C71.8152779,233.019618 69.8587709,230.641901 67.1458517,230.105784 C64.4329325,229.569668 61.7190631,231.024443 60.6637313,233.580539 C59.6083994,236.136635 60.5054816,239.08226 62.8064265,240.61621 C65.1073713,242.150161 68.1714385,241.845281 70.125,239.888 C71.2127027,238.799943 71.8222831,237.323491 71.8190132,235.785 L71.8190132,235.785 Z" id="Path" fill="#4E7486"></path>
            <polygon id="Path" fill="#0099DA" points="123.277 225.115 66.022 225.115 8.756 225.115 8.756 149.809 8.756 74.514 66.022 74.514 123.277 74.514 123.277 149.809"></polygon>
            <path d="M123.2,74.734 L8.976,74.734 L8.976,90.057 L8.976,105.369 C18.876,115.478 42.559,139.26 66.176,162.844 C89.793,186.428 113.421,209.847 123.376,219.219 L123.288,146.971 L123.2,74.734 Z" id="Path" fill="#FFFFFF" opacity="0.2"></path>
            <path d="M107.877,99.9350168 L84.7,99.9350168 C82.6934192,99.9350168 81.0650622,98.3115717 81.059,96.305 L81.059,88.187 C81.059,86.1761312 82.6891312,84.5459831 84.7,84.5459831 L107.91,84.5459831 C108.875547,84.5430473 109.80224,84.9260575 110.483955,85.609838 C111.16567,86.2936185 111.545874,87.2214659 111.540067,88.187 L111.540067,96.305 C111.542933,97.2686321 111.16143,98.1936422 110.480036,98.8750362 C109.798642,99.5564302 108.873632,99.9379335 107.91,99.9350168 L107.877,99.9350168 Z" id="Path" fill="#FFE700"></path>
            <polygon id="Path" fill="#023852" points="89.298 94.677 89.298 89.804 90.607 89.804 90.607 93.61 92.477 93.61 92.477 94.71 89.298 94.71"></polygon>
            <polygon id="Path" fill="#023852" points="93.258 94.677 93.258 89.804 94.6 89.804 94.6 94.677 93.28 94.677"></polygon>
            <path d="M98.362,89.804 L99.825,89.804 L99.033,92.246 L98.241,94.677 L96.69,94.677 L95.898,92.246 L95.106,89.804 L96.58,89.804 L96.91,91.047 L97.24,92.279 C97.317,92.543 97.361,92.785 97.405,92.972 C97.449,93.159 97.405,93.313 97.471,93.423 C97.471,93.3496667 97.471,93.2616667 97.471,93.159 C97.471,93.06 97.471,92.95 97.471,92.84 C97.471,92.73 97.471,92.62 97.537,92.521 C97.603,92.422 97.537,92.356 97.537,92.29 L97.878,91.047 L98.362,89.804 Z" id="Path" fill="#023852"></path>
            <polygon id="Path" fill="#023852" points="103.246 94.677 100.353 94.677 100.353 89.804 103.246 89.804 103.246 90.904 101.673 90.904 101.673 91.674 103.125 91.674 103.125 92.774 101.673 92.774 101.673 93.687 103.246 93.687 103.246 94.787"></polygon>
            <path d="M24.706,99.154 L27.082,99.154 C27.0659847,94.4361114 23.3061051,90.5836959 18.59,90.453 L18.59,92.84 C21.9895926,92.9694247 24.6849191,95.75201 24.706,99.154 L24.706,99.154 Z" id="Path" fill="#FAFCFB"></path>
            <path d="M20.625,99.154 L23.012,99.154 C23.0010347,97.9642348 22.5368396,96.8234164 21.714,95.964 C20.8952174,95.103458 19.7764439,94.5913434 18.59,94.534 L18.59,96.932 C19.1410441,96.9880552 19.6530459,97.2421019 20.031,97.647 C20.4027079,98.0622204 20.6134291,98.5968278 20.625,99.154 Z" id="Path" fill="#FFE700"></path>
            <path d="M29.315,99.154 L31.702,99.154 C31.6914487,91.8770793 25.865511,85.9436159 18.59,85.8 L18.59,88.187 C24.5319219,88.3354983 29.2811927,93.1773189 29.315,99.121 L29.315,99.154 Z" id="Path" fill="#FAFCFB"></path>
            <path d="M78.43,131.076 L78.98,130.834 L79.53,130.581 C79.5961632,130.549147 79.6665427,130.526922 79.739,130.515 C79.8156085,130.504019 79.8933915,130.504019 79.97,130.515 L80.135,130.515 L80.3,130.515 C80.518053,130.537142 80.7171814,130.648654 80.85,130.823 C80.9785997,130.996709 81.0338965,131.213947 81.004,131.428 L80.685,133.925 L80.355,136.433 C80.3439921,136.538022 80.3102067,136.639378 80.256,136.73 C80.2019019,136.8229 80.1310358,136.904955 80.047,136.972 L79.332,137.522 L78.606,138.072 C78.522897,138.140973 78.4250398,138.189901 78.32,138.215 C78.2148325,138.237268 78.1061675,138.237268 78.001,138.215 L77.869,138.215 L77.726,138.215 C77.5056605,138.183687 77.3073181,138.064682 77.176,137.885 C77.0448699,137.708429 76.9930678,137.485282 77.033,137.269 L77.495,134.464 L77.968,131.659 C77.9892371,131.527331 78.0420797,131.402773 78.122,131.296 C78.207255,131.200927 78.3124159,131.125812 78.43,131.076 L78.43,131.076 Z" id="Path" fill="#33ADE1"></path>
            <path d="M55.418,131.076 L54.868,130.834 L54.329,130.581 C54.2590525,130.548983 54.1850206,130.526773 54.109,130.515 C54.0323915,130.504019 53.9546085,130.504019 53.878,130.515 L53.713,130.515 L53.548,130.515 C53.3330735,130.537483 53.1374868,130.649247 53.009,130.823 C52.8731034,130.993376 52.8134183,131.212221 52.844,131.428 L53.174,133.925 L53.493,136.433 C53.5092759,136.536811 53.542734,136.637185 53.592,136.73 C53.6495078,136.820416 53.7199182,136.901944 53.801,136.972 L54.527,137.522 L55.242,138.072 C55.4135378,138.205591 55.6313905,138.265005 55.847,138.237 L55.979,138.237 L56.1,138.237 C56.3203395,138.205687 56.5186819,138.086682 56.65,137.907 C56.7849984,137.732131 56.8408249,137.508825 56.804,137.291 L56.331,134.486 L55.858,131.681 C55.8367629,131.549331 55.7839203,131.424773 55.704,131.318 C55.6273961,131.217498 55.5297949,131.134912 55.418,131.076 L55.418,131.076 Z" id="Path" fill="#33ADE1"></path>
            <path d="M55.891,131.681 C55.8727501,131.546448 55.8153747,131.420222 55.726,131.318 C55.6473187,131.208095 55.541093,131.120838 55.418,131.065 L54.879,130.823 L54.329,130.57 C54.2596334,130.536466 54.1853709,130.514187 54.109,130.504 L53.9,130.504 L53.735,130.504 L53.57,130.504 C53.3550735,130.526483 53.1594868,130.638247 53.031,130.812 C52.8951034,130.982376 52.8354183,131.201221 52.866,131.417 L52.954,132.044 L53.042,132.682 C53.0104177,132.459314 53.0698963,132.233295 53.207,132.055 C53.3468555,131.88146 53.5473505,131.767453 53.768,131.736 L53.933,131.736 L54.109,131.736 L54.34,131.736 L54.571,131.802 L55.132,132.066 L55.693,132.319 C55.774565,132.357436 55.8489676,132.409518 55.913,132.473 C55.9797201,132.532556 56.0355549,132.60328 56.078,132.682 L55.99,132.176 L55.891,131.681 Z" id="Path" fill="#66C3E9"></path>
            <path d="M80.3,130.548 L80.124,130.548 L79.959,130.548 L79.728,130.548 C79.6555427,130.559922 79.5851632,130.582147 79.519,130.614 L78.969,130.867 L78.419,131.109 C78.295907,131.164838 78.1896813,131.252095 78.111,131.362 C78.0294633,131.467836 77.97644,131.59282 77.957,131.725 L77.869,132.275 L77.77,132.825 C77.8025356,132.705133 77.8586275,132.592949 77.935,132.495 C78.0136956,132.394947 78.1156543,132.315646 78.232,132.264 L78.793,132.011 L79.354,131.758 L79.585,131.681 L79.816,131.681 L79.992,131.681 L80.157,131.681 C80.5246856,131.736192 80.8165234,132.019186 80.883,132.385 L80.883,131.923 L80.949,131.461 C80.9691296,131.246002 80.9104953,131.03101 80.784,130.856 C80.6668258,130.696456 80.4941545,130.586575 80.3,130.548 L80.3,130.548 Z" id="Path" fill="#66C3E9"></path>
            <polygon id="Path" fill="#06233C" opacity="0.6" style="mix-blend-mode: multiply;" points="66.429 225.291 63.745 224.95 61.061 224.62 60.676 224.95 60.291 225.291 63.36 225.291"></polygon>
            <path d="M108.075,199.265 L106.975,196.834 L105.875,194.392 L105.182,191.818 L104.489,189.244 C104.482927,189.218693 104.482927,189.192307 104.489,189.167 C104.483854,189.145301 104.483854,189.122699 104.489,189.101 L104.489,180.84 C104.489,180.84 104.489,180.84 104.489,180.763 L101.761,171.391 L99.033,162.03 C99.033,162.03 99.033,162.03 99.033,161.975 L99.033,161.909 L98.967,160.809 L98.901,159.709 C98.8930186,159.60162 98.8548902,159.498673 98.791,159.412 C98.7316695,159.323538 98.6474588,159.254638 98.549,159.214 L88.209,154.913 L77.88,150.601 C77.8320531,150.587986 77.7871796,150.565549 77.748,150.535 L77.649,150.436 L76.494,148.951 L75.152,147.4 C75.0954518,147.330161 75.024056,147.273796 74.943,147.235 C74.8593663,147.199826 74.769722,147.18115 74.679,147.18 L66.33,147.609 L57.97,148.027 C57.9087363,148.010669 57.8442637,148.010669 57.783,148.027 C57.7162144,148.048709 57.6557791,148.086481 57.607,148.137 L55.407,150.227 L53.207,152.317 L53.108,152.383 L53.009,152.383 L43.824,155.683 L34.65,158.983 C34.5546178,159.018174 34.4708507,159.079095 34.408,159.159 C34.3428793,159.234753 34.2975298,159.325452 34.276,159.423 L32.076,171.787 L29.876,184.162 L29.876,184.162 L29.876,184.162 L29.139,190.685 L28.391,197.208 C28.3961464,197.229699 28.3961464,197.252301 28.391,197.274 C28.3957697,197.295741 28.3957697,197.318259 28.391,197.34 L27.291,200.409 L26.191,203.478 C26.1805952,203.532508 26.1805952,203.588492 26.191,203.643 C26.1800369,203.697454 26.1800369,203.753546 26.191,203.808 L26.664,205.898 L27.148,207.999 C27.1430518,208.039182 27.1430518,208.079818 27.148,208.12 L27.214,208.219 L30.074,211.871 L32.934,215.523 C32.9872878,215.596058 33.05957,215.653123 33.143,215.688 C33.2171407,215.728061 33.3008269,215.747081 33.385,215.743 L38.06,215.743 L38.159,215.743 L38.984,215.446 L39.798,215.149 C39.9834581,215.073993 40.1952034,215.107872 40.348,215.237 C40.5032119,215.356812 40.5862394,215.547775 40.568,215.743 L40.117,220.495 L39.677,225.258 L93.126,225.258 L92.708,222.772 L92.279,220.286 L92.279,220.231 L91.883,214.962 L91.498,209.682 C91.4793513,209.464587 91.5860261,209.255504 91.773,209.143 C91.9554808,209.032134 92.1845192,209.032134 92.367,209.143 L94.49,210.485 L96.613,211.827 C96.656054,211.857862 96.7045819,211.88026 96.756,211.893 C96.8104819,211.903677 96.8665181,211.903677 96.921,211.893 L103.235,211.893 C103.322171,211.891845 103.408217,211.87314 103.488,211.838 C103.568001,211.802389 103.636546,211.745268 103.686,211.673 L105.974,208.758 L108.262,205.843 C108.299707,205.792893 108.329395,205.737228 108.35,205.678 C108.359692,205.616043 108.359692,205.552957 108.35,205.491 L108.35,199.441 C108.355435,199.40085 108.355435,199.36015 108.35,199.32 C108.264792,199.277723 108.169914,199.258747 108.075,199.265 Z" id="Path" fill="#023852"></path>
            <path d="M36.366,161.117 L45.056,157.663 L53.735,154.209 L53.845,154.209 L53.933,154.132 L55.891,152.174 L57.849,150.216 C57.905236,150.159031 57.9500428,150.091821 57.981,150.018 C57.9916894,149.941371 57.9916894,149.863629 57.981,149.787 L57.981,148.929 L57.981,148.082 L57.805,148.082 L55.495,150.282 L53.185,152.482 L53.086,152.548 L52.987,152.548 L43.802,155.848 L34.628,159.148 C34.5326178,159.183174 34.4488507,159.244095 34.386,159.324 C34.3208793,159.399753 34.2755298,159.490452 34.254,159.588 L32.219,170.588 L30.14,181.5 L31.141,178.805 L32.153,176.11 L32.153,176.11 L34.1,168.795 L36.036,161.502 C36.0580946,161.414397 36.1037436,161.334511 36.168,161.271 C36.2217929,161.205649 36.2894187,161.153051 36.366,161.117 Z" id="Path" fill="#4E7486"></path>
            <path d="M75.449,147.774 L76.549,149.105 L77.649,150.447 C77.672941,150.478245 77.702854,150.504418 77.737,150.524 L77.836,150.59 L88.165,154.891 L98.494,159.181 C98.5580506,159.212311 98.6143932,159.257385 98.659,159.313 C98.7020087,159.374202 98.7250597,159.447197 98.725,159.522 L98.813,160.732 L98.901,161.942 L101.409,170.511 L103.928,179.08 L100.1,170.643 L96.327,162.217 L96.228,161.656 L96.129,161.095 C96.0798667,160.845057 95.9703521,160.610922 95.81,160.413 C95.6423845,160.214779 95.4264079,160.063217 95.183,159.973 L85.503,156.354 L75.823,152.724 L75.504,150.304 L75.185,147.873 C75.1709258,147.815443 75.2049707,147.75708 75.262,147.741 C75.289646,147.716384 75.3270388,147.705777 75.3634924,147.71221 C75.399946,147.718643 75.4314495,147.741408 75.449,147.774 Z" id="Path" fill="#4E7486"></path>
            <path d="M40.117,225.291 L43.131,220.154 L46.2,215.017 C46.3122497,214.81382 46.546157,214.710361 46.772,214.764 C46.999962,214.817266 47.165632,215.01428 47.179,215.248 C47.1947423,215.4823 47.3664147,215.676561 47.597,215.721 C47.8339154,215.770565 48.0741921,215.652693 48.18,215.435 L50.061,211.541 L51.942,207.636 C51.9578347,207.574672 51.9578347,207.510328 51.942,207.449 C51.9582988,207.384006 51.9582988,207.315994 51.942,207.251 L51.876,207.042 L51.81,206.844 C50.0601577,207.036144 48.3013508,207.135284 46.541,207.141 C44.781,207.141 43.021,207.064 41.272,206.921 L41.272,209.121 L41.272,211.321 L41.272,211.398 L40.7,213.73 L40.26,216.051 L40.26,216.051 L39.831,220.638 L39.391,225.236 L40.106,225.236 L40.117,225.291 Z" id="Path" fill="#06233C" opacity="0.6" style="mix-blend-mode: multiply;"></path>
            <path d="M87.626,203.379 L87.505,205.48 L87.373,207.581 C87.3678889,207.639555 87.3678889,207.698445 87.373,207.757 C87.368304,207.8119 87.368304,207.8671 87.373,207.922 L89.573,212.762 L91.773,217.602 L91.487,213.708 L91.201,209.814 C91.1682552,209.539836 91.3040501,209.27298 91.5449596,209.138071 C91.7858691,209.003161 92.0843532,209.026821 92.301,209.198 L93.335,209.869 L94.358,210.551 L93.258,207.526 L92.158,204.501 C91.377,204.38 90.596,204.248 89.826,204.072 C89.074935,203.901604 88.3391295,203.669826 87.626,203.379 Z" id="Path" fill="#06233C" opacity="0.6" style="mix-blend-mode: multiply;"></path>
            <polygon id="Path" fill="#FFFFFF" points="57.838 148.599 57.178 149.457 56.507 150.326 56.507 159.049 56.507 167.783 58.113 174.108 59.73 180.433 63.734 189.519 67.738 198.594 71.038 189.079 74.338 179.575 75.251 173.206 76.153 166.837 76.153 158.499 76.153 150.172 75.559 148.676 74.976 147.18 66.407 147.884"></polygon>
            <path d="M57.53,144.43 L57.53,150.007 L58.96,152.207 L60.39,154.407 L63.195,156.2 L66,157.949 C66.2264174,158.092977 66.4907954,158.165776 66.759,158.158 C67.0235374,158.143248 67.2770755,158.04721 67.485,157.883 L70.378,155.683 L73.26,153.483 L73.26,151.283 L73.26,149.083 L65.45,146.806 L57.53,144.43 Z" id="Path" fill="#0099DA"></path>
            <path d="M76.637,121.473 L71.885,119.614 L67.1,117.766 L67.1,117.7 L67.1,117.7 L67.1,117.7 L67.1,117.7 L67.1,117.7 L67.1,117.766 L62.337,119.614 L57.574,121.473 C57.2189825,121.929306 56.9810588,122.465579 56.881,123.035 C56.3324503,125.380656 56.0957416,127.788428 56.177,130.196 L56.177,142.076 L58.564,147.774 L60.94,153.472 L63.404,154.22 L65.868,154.968 L68.497,154.968 L70.961,154.22 L73.414,153.472 L75.801,147.774 L78.177,142.076 L78.177,130.196 C78.2605832,127.788952 78.0275898,125.381354 77.484,123.035 C77.3362948,122.451866 77.0451322,121.914917 76.637,121.473 L76.637,121.473 Z" id="Path" fill="#0099DA"></path>
            <polygon id="Path" fill="#66C2E9" style="mix-blend-mode: multiply;" points="61.303 121.396 61.578 122.419 61.853 123.442 68.178 126.423 74.503 129.415 74.503 131.494 74.503 133.584 74.503 137.005 74.503 140.426 72.457 144.353 70.411 148.28 71.511 149.655 72.611 151.03 75.372 146.63 78.133 142.23 77.891 134.288 77.638 126.346 76.384 121.902 75.13 117.458 68.211 119.427"></polygon>
            <path d="M78.826,119.042 L76.428,116.688 L74.03,114.323 C74.0056262,114.295065 73.9756421,114.272577 73.942,114.257 L73.843,114.202 L71.885,113.564 L69.938,112.926 L66.11,112.926 L66.022,112.926 L65.923,112.926 L62.172,114.4 L58.421,115.863 L58.322,115.918 C58.322,115.918 58.322,115.918 58.234,115.984 L56.727,117.579 L55.209,119.163 C55.1722751,119.201597 55.1425029,119.246255 55.121,119.295 C55.1099858,119.345743 55.1099858,119.398257 55.121,119.449 L54.813,121.77 L54.516,124.102 L54.516,124.212 L54.813,127.512 L55.11,130.812 C55.1173207,130.907602 55.1516537,130.999157 55.209,131.076 C55.2696358,131.155791 55.3545726,131.213703 55.451,131.241 L55.451,131.241 L55.451,131.241 C55.5390562,131.272998 55.6156263,131.330426 55.671,131.406 C55.7348794,131.476905 55.7768994,131.564766 55.792,131.659 L55.88,132.385 L55.979,133.111 L56.452,133.111 L56.925,133.111 L56.925,129.613 L57.266,127.204 L57.607,124.806 C57.5959892,124.74785 57.5959892,124.68815 57.607,124.63 C57.6346356,124.579199 57.6720149,124.534343 57.717,124.498 L59.279,123.2 L60.72,121.946 C60.8473713,121.834079 61.0223337,121.793394 61.1860181,121.837633 C61.3497025,121.881872 61.4803492,122.005155 61.534,122.166 L61.6,122.408 L61.677,122.639 C61.7113746,122.726048 61.7638692,122.80479 61.831,122.87 C61.8998191,122.928534 61.9836478,122.966638 62.073,122.98 L66.396,123.695 L70.719,124.399 C70.7697775,124.388317 70.8222225,124.388317 70.873,124.399 L71.005,124.498 L72.435,126.049 L73.876,127.589 L73.557,125.796 L73.238,124.003 C73.2148093,123.885076 73.2384841,123.762755 73.304,123.662 C73.3650056,123.56128 73.4579297,123.483843 73.568,123.442 L74.151,123.244 L74.734,123.046 C74.8575474,122.996434 74.9954526,122.996434 75.119,123.046 C75.2374482,123.104633 75.3282543,123.207284 75.372,123.332 L76.065,125.389 L76.769,127.457 L76.769,127.6 L77.209,130.427 L77.66,133.254 L78.1,133.254 L78.232,132.319 L78.375,131.384 C78.3852453,131.318121 78.407624,131.254715 78.441,131.197 C78.4799722,131.141367 78.5283668,131.092972 78.584,131.054 L78.661,130.988 L78.749,130.933 C78.8142559,130.888148 78.8672077,130.827632 78.903,130.757 C78.9181165,130.680742 78.9181165,130.602258 78.903,130.526 L78.903,119.405 C78.9184391,119.339903 78.9184391,119.272097 78.903,119.207 C78.8880032,119.147624 78.8618743,119.091633 78.826,119.042 Z" id="Path" fill="#023852"></path>
            <path d="M61.446,153.824 L63.481,154.44 L65.516,155.056 L65.725,155.056 L68.343,155.056 L68.552,155.056 L70.587,154.44 L72.633,153.824 C72.832631,153.761073 73.0164351,153.656042 73.172,153.516 C73.3298157,153.377052 73.4539486,153.204018 73.535,153.01 L75.735,147.752 L77.935,142.505 C77.9743312,142.413035 78.0038285,142.317168 78.023,142.219 C78.0344108,142.124008 78.0344108,142.027992 78.023,141.933 L78.023,133.232 L77.572,133.232 L77.132,136.444 L76.791,139.7 C76.7801428,139.822463 76.7465703,139.941832 76.692,140.052 C76.6486225,140.166079 76.5893723,140.27347 76.516,140.371 L75.416,141.812 L74.316,143.242 C74.0383619,143.621631 73.5918021,143.840469 73.1216648,143.827288 C72.6515275,143.814107 72.2179309,143.570591 71.962,143.176 L71.324,142.241 L70.697,141.295 C70.5620946,141.099545 70.3806334,140.940766 70.169,140.833 C69.9638681,140.718404 69.7329695,140.65784 69.498,140.657 L64.713,140.657 C64.494635,140.656984 64.2795105,140.709822 64.086,140.811 C63.8884258,140.901186 63.7150251,141.036891 63.58,141.207 L62.931,142.032 L62.282,142.857 C61.983396,143.235017 61.516751,143.440327 61.0363162,143.405066 C60.5558815,143.369805 60.1242128,143.098563 59.884,142.681 L58.531,140.283 L57.2,137.841 C57.1365699,137.734606 57.088431,137.619813 57.057,137.5 C57.0402369,137.375897 57.0402369,137.250103 57.057,137.126 L57.057,133.034 L56.562,133.034 C56.4518529,133.028055 56.3437306,133.001956 56.243,132.957 C56.166,132.957 56.111,132.957 56.111,133.056 L56.111,141.9 C56.0995892,141.994992 56.0995892,142.091008 56.111,142.186 C56.124608,142.280623 56.1504928,142.373069 56.188,142.461 L58.388,147.719 L60.588,152.966 C60.6727949,153.161107 60.7962847,153.336986 60.951,153.483 C61.0930686,153.626807 61.2610095,153.742499 61.446,153.824 L61.446,153.824 Z" id="Path" fill="#023852"></path>
            <path d="M69.751,112.904 L66,112.904 L65.912,112.904 L62.139,114.4 L58.377,115.863 L58.278,115.918 L58.201,115.984 L56.683,117.579 L55.165,119.163 L55.077,119.295 C55.070672,119.346138 55.070672,119.397862 55.077,119.449 L55,119.9 L55,120.384 L57.464,118.514 L59.246,117.183 L59.312,117.183 L59.389,117.183 L62.843,116.083 L66.308,114.983 L66.374,114.983 L69.74,114.983 L71.632,115.434 L73.524,115.896 L73.601,115.896 L73.678,115.896 L76.351,117.656 L79.024,119.427 L79.024,119.229 L76.56,116.787 L74.085,114.356 C74.085,114.356 74.085,114.301 73.997,114.29 L73.887,114.235 L71.94,113.597 L69.993,112.959 L69.839,112.959 L69.751,112.904 Z" id="Path" fill="#4E7486"></path>
            <polygon id="Path" fill="#023852" points="69.817 159.764 69.014 161.656 68.211 163.537 68.211 164.472 68.211 165.418 69.113 167.343 70.026 169.268 70.466 179.399 70.895 189.519 69.322 194.854 67.738 200.2 64.988 193.204 62.238 186.197 62.678 177.815 63.107 169.433 63.58 167.585 64.053 165.737 64.053 164.791 64.053 163.845 63.36 162.118 62.667 160.391 64.46 159.412 66.253 158.422 66.726 158.422 67.188 158.422 68.508 159.093"></polygon>
            <path d="M75.361,162.624 L71.291,160.523 L67.21,158.4 L66.242,158.4 L62.249,160.6 L58.3,162.8 C58.2790371,162.821386 58.2790371,162.855614 58.3,162.877 C58.3213864,162.897963 58.3556136,162.897963 58.377,162.877 L62.535,161.337 L66.704,159.786 L66.704,159.786 L71.038,161.238 L75.361,162.679 C75.3840073,162.695524 75.4149927,162.695524 75.438,162.679 C75.4396525,162.659646 75.4309738,162.640856 75.4151675,162.629565 C75.3993613,162.618275 75.3787718,162.61616 75.361,162.624 L75.361,162.624 Z" id="Path" fill="#9BBFDB" style="mix-blend-mode: multiply;"></path>
            <path d="M98.197,199.243 L98.197,199.243 C98.4911384,199.243 98.7771358,199.339604 99.011,199.518 C99.2474433,199.688554 99.4213491,199.932022 99.506,200.211 L99.902,201.542 L100.298,202.862 C100.303128,202.9279 100.303128,202.9941 100.298,203.06 C100.303409,203.125889 100.303409,203.192111 100.298,203.258 L100.298,206.338 C100.29477,206.491313 100.268821,206.6433 100.221,206.789 C100.165828,206.935945 100.087875,207.073292 99.99,207.196 L99.011,208.417 L98.021,209.638 C97.8107053,209.895913 97.5133781,210.06805 97.185,210.122 C96.8573777,210.180102 96.5198745,210.113387 96.239,209.935 L94.501,208.835 L92.763,207.735 C92.1319301,207.346468 91.9308572,206.52256 92.312,205.887 L92.543,205.48 L92.774,205.084 C92.7773634,205.054763 92.7773634,205.025237 92.774,204.996 L92.84,204.919 L95.04,202.4 L97.13,199.804 C97.2581475,199.643147 97.4194829,199.511827 97.603,199.419 C97.7850333,199.315911 97.9881894,199.255716 98.197,199.243 Z" id="Path" fill="#FFFFFF"></path>
            <polygon id="Path" fill="#FFFFFF" points="36.366 202.433 35.53 203.522 34.694 204.622 34.694 206.976 34.694 209.319 35.871 210.892 37.037 212.454 38.555 213.114 40.073 213.763 41.25 212.542 42.427 211.321 42.262 210.452 42.108 209.583 39.237 206.008"></polygon>
            <path d="M35.684,203.918 C35.684,203.731 35.684,202.818 35.684,201.916 C35.684,201.014 35.684,200.024 35.684,199.716 C35.6898681,199.668514 35.6898681,199.620486 35.684,199.573 C35.6901984,199.532905 35.6901984,199.492095 35.684,199.452 L35.145,198.352 L34.606,197.252 C34.5630991,197.134803 34.5630991,197.006197 34.606,196.889 C34.6365007,196.76436 34.7058408,196.652645 34.804,196.57 L35.706,195.8 L36.608,195.03 C36.7242494,194.924383 36.8814848,194.876003 37.037,194.898 C37.187005,194.908592 37.3261313,194.980143 37.422,195.096 L40.403,198.638 L43.373,202.191 C43.4349561,202.267385 43.4765808,202.358202 43.494,202.455 C43.5208934,202.548437 43.5208934,202.647563 43.494,202.741 L43.494,202.741 C43.4213893,202.963008 43.4910619,203.206863 43.67,203.357 C43.8454417,203.513996 44.1002443,203.544748 44.308,203.434 L45.639,202.741 L46.97,202.048 C47.0671186,202.00531 47.1719163,201.982853 47.278,201.982 C47.3841638,201.995249 47.4858183,202.032899 47.575,202.092 L49.247,203.313 L50.908,204.523 L51.04,204.655 C51.0784904,204.703052 51.1048955,204.759634 51.117,204.82 L51.59,206.239 L52.052,207.669 C52.0795021,207.773555 52.0795021,207.883445 52.052,207.988 C52.0237897,208.093289 51.9666267,208.188561 51.887,208.263 L49.896,210.1 L47.949,211.937 C47.8976852,211.987102 47.838155,212.028029 47.773,212.058 C47.7037094,212.068237 47.6332906,212.068237 47.564,212.058 L44.935,212.058 L42.306,212.058 L42.207,212.058 L42.119,212.058 L41.393,211.827 L40.678,211.596 C40.6124478,211.585127 40.5455522,211.585127 40.48,211.596 L40.282,211.596 L39.798,211.794 L39.303,211.992 C39.1859773,212.035875 39.0570227,212.035875 38.94,211.992 C38.8230418,211.95801 38.7193592,211.888888 38.643,211.794 L37.037,209.781 L35.442,207.757 C35.3908426,207.70016 35.3532338,207.632464 35.332,207.559 C35.3208244,207.486092 35.3208244,207.411908 35.332,207.339 L35.508,205.623 L35.695,203.907 L35.695,203.852 L35.684,203.918 Z" id="Path" fill="#0099DA"></path>
            <path d="M98.549,195.184 L98.912,192.5 L99.275,189.805 C99.3077929,189.686222 99.3077929,189.560778 99.275,189.442 C99.2080042,189.337001 99.1126649,189.253102 99,189.2 L98.34,188.683 L97.669,188.177 C97.5540558,188.089543 97.4168309,188.036177 97.273,188.023 C97.1343119,188.018059 96.9970466,188.052375 96.877,188.122 L96.8,188.1 L96.657,188.177 C96.5796402,188.230161 96.5094028,188.293005 96.448,188.364 C96.3902982,188.442953 96.3491416,188.532749 96.327,188.628 L95.832,190.652 L95.337,192.676 C95.3003711,192.810042 95.228152,192.931675 95.128,193.028 C95.0254024,193.118805 94.8998353,193.179686 94.765,193.204 L94.149,193.303 L93.533,193.413 C93.4681036,193.421105 93.4049509,193.43968 93.346,193.468 L93.181,193.578 L92.719,193.996 L92.246,194.414 C92.1469459,194.497881 92.0743465,194.60869 92.037,194.733 C92.0039107,194.8592 92.0039107,194.9918 92.037,195.118 L92.037,195.118 C92.1125836,195.378878 92.0261655,195.659737 91.817,195.833 C91.614738,196.011062 91.3285778,196.058043 91.08,195.954 L89.463,195.272 L87.78,194.7 C87.6837777,194.655465 87.5776891,194.636521 87.472,194.645 C87.3634457,194.647171 87.2573156,194.677494 87.164,194.733 L85.415,195.69 L83.666,196.647 C83.6005973,196.685719 83.5412876,196.733908 83.49,196.79 C83.4363887,196.844961 83.3918351,196.908079 83.358,196.977 L82.621,198.627 L81.873,200.2 C81.8235435,200.346266 81.8235435,200.504734 81.873,200.651 C81.9087589,200.79996 81.9893923,200.934349 82.104,201.036 L84.656,203.159 L87.197,205.282 L87.362,205.381 L87.549,205.436 L89.639,205.766 L91.729,206.096 L91.828,206.096 L91.927,206.096 L93.027,206.613 L94.127,207.141 C94.2661076,207.211612 94.4244921,207.23479 94.578,207.207 C94.7312012,207.174057 94.8699147,207.093141 94.974,206.976 L96.635,205.073 L98.285,203.181 C98.3432011,203.117181 98.3880778,203.042386 98.417,202.961 C98.433597,202.877483 98.433597,202.791517 98.417,202.708 L98.417,198.66 L98.494,196.9 L98.571,195.151 L98.571,195.085 L98.549,195.184 Z" id="Path" fill="#0099DA"></path>
            <path d="M99,189.2 L98.34,188.683 L97.669,188.177 C97.5540558,188.089543 97.4168309,188.036177 97.273,188.023 C97.1343119,188.018059 96.9970466,188.052375 96.877,188.122 L96.8,188.1 L96.657,188.177 C96.5796402,188.230161 96.5094028,188.293005 96.448,188.364 C96.3902982,188.442953 96.3491416,188.532749 96.327,188.628 L95.832,190.652 L95.337,192.676 C95.3003711,192.810042 95.228152,192.931675 95.128,193.028 C95.0254024,193.118805 94.8998353,193.179686 94.765,193.204 L94.149,193.303 L93.533,193.413 C93.4681036,193.421105 93.4049509,193.43968 93.346,193.468 L93.181,193.578 L92.719,193.996 L92.246,194.414 C92.1469459,194.497881 92.0743465,194.60869 92.037,194.733 C92.0039107,194.8592 92.0039107,194.9918 92.037,195.118 C92.1125836,195.378878 92.0261655,195.659737 91.817,195.833 C91.614738,196.011062 91.3285778,196.058043 91.08,195.954 L89.463,195.272 L87.78,194.7 C87.6837777,194.655465 87.5776891,194.636521 87.472,194.645 C87.3634457,194.647171 87.2573156,194.677494 87.164,194.733 L85.415,195.69 L83.666,196.647 C83.6005973,196.685719 83.5412876,196.733908 83.49,196.79 C83.4363887,196.844961 83.3918351,196.908079 83.358,196.977 L82.621,198.627 L81.873,200.2 C81.8235435,200.346266 81.8235435,200.504734 81.873,200.651 C81.9087589,200.79996 81.9893923,200.934349 82.104,201.036 L83.028,201.795 L83.941,202.565 L84.7,200.64 L85.536,198.671 L86.559,197.89 L87.582,197.098 L90.409,197.571 L93.236,198.044 L93.555,196.867 L93.863,195.69 L96.272,194.777 L98.681,193.864 L98.956,191.84 L99.231,189.805 C99.2637929,189.686222 99.2637929,189.560778 99.231,189.442 C99.1760621,189.342833 99.0965062,189.259488 99,189.2 L99,189.2 Z" id="Path" fill="#66C3E9"></path>
            <path d="M51.997,207.603 L51.535,206.173 L51.062,204.754 C51.0498955,204.693634 51.0234904,204.637052 50.985,204.589 L50.853,204.457 L49.192,203.247 L47.52,202.026 C47.4308183,201.966899 47.3291638,201.929249 47.223,201.916 C47.1169163,201.916853 47.0121186,201.93931 46.915,201.982 L45.584,202.675 L44.253,203.368 C44.0452443,203.478748 43.7904417,203.447996 43.615,203.291 C43.4360619,203.140863 43.3663893,202.897008 43.439,202.675 C43.4658934,202.581563 43.4658934,202.482437 43.439,202.389 C43.4215808,202.292202 43.3799561,202.201385 43.318,202.125 L40.348,198.572 L37.4,195.03 C37.3041313,194.914143 37.165005,194.842592 37.015,194.832 C36.8594848,194.810003 36.7022494,194.858383 36.586,194.964 L35.992,195.47 L35.387,195.987 L38.181,199.452 L40.964,202.917 L40.887,203.863 L40.799,204.809 L46.464,204.809 L48.4,207.196 L50.369,209.583 L51.095,208.89 L51.821,208.197 C51.9006267,208.122561 51.9577897,208.027289 51.986,207.922 C52.0171243,207.818396 52.0209137,207.708502 51.997,207.603 Z" id="Path" fill="#66C3E9"></path>
            <path d="M69.300014,204.985 C69.2355896,204.258416 68.6269334,203.701329 67.8975,203.701329 C67.1680666,203.701329 66.5594104,204.258416 66.495,204.985 C66.4974574,205.360616 66.6476061,205.720182 66.913,205.986 C67.4615512,206.528425 68.3444488,206.528425 68.893,205.986 C69.155374,205.719069 69.3016595,205.359286 69.300014,204.985 Z" id="Path" fill="#82919E"></path>
            <path d="M69.3000068,219.769 C69.3000876,219.096543 68.8246471,218.517884 68.1649464,218.387526 C67.5052457,218.257167 66.845444,218.6115 66.5897538,219.233449 C66.3340636,219.855398 66.5538622,220.571344 67.1144951,220.942678 C67.6751279,221.314012 68.4200912,221.237075 68.893,220.759 C69.1547249,220.496124 69.3011529,220.139948 69.3000068,219.769 L69.3000068,219.769 Z" id="Path" fill="#82919E"></path>
        </g>
    </g>
</svg>