<?xml version="1.0" encoding="UTF-8"?>
<svg width="440px" height="330px" viewBox="0 0 440 330" version="1.1" xmlns="http://www.w3.org/2000/svg" xmlns:xlink="http://www.w3.org/1999/xlink">
    <title>Graphic elements / Icons / Rich icons / Marketplace / Practice-Investigation</title>
    <defs>
        <linearGradient x1="0%" y1="50.0041559%" x2="100%" y2="50.0041559%" id="linearGradient-1">
            <stop stop-color="#FFFFFF" stop-opacity="0.4" offset="0%"></stop>
            <stop stop-color="#FFFFFF" stop-opacity="0" offset="100%"></stop>
        </linearGradient>
        <linearGradient x1="0%" y1="50.0160514%" x2="100%" y2="50.0160514%" id="linearGradient-2">
            <stop stop-color="#FFFFFF" offset="0%"></stop>
            <stop stop-color="#0099DA" offset="100%"></stop>
        </linearGradient>
        <linearGradient x1="42.237214%" y1="70.378741%" x2="59.9917951%" y2="23.7880991%" id="linearGradient-3">
            <stop stop-color="#FFFFFF" offset="0%"></stop>
            <stop stop-color="#023852" offset="100%"></stop>
        </linearGradient>
        <linearGradient x1="0%" y1="50.0674764%" x2="100%" y2="50.0674764%" id="linearGradient-4">
            <stop stop-color="#FFFFFF" offset="0%"></stop>
            <stop stop-color="#0099DA" offset="100%"></stop>
        </linearGradient>
        <linearGradient x1="0%" y1="50%" x2="100%" y2="50%" id="linearGradient-5">
            <stop stop-color="#FFFFFF" stop-opacity="0" offset="0%"></stop>
            <stop stop-color="#FBFBFC" stop-opacity="0.04" offset="11%"></stop>
            <stop stop-color="#EFF2F3" stop-opacity="0.16" offset="28%"></stop>
            <stop stop-color="#DCE2E6" stop-opacity="0.35" offset="48%"></stop>
            <stop stop-color="#C2CCD2" stop-opacity="0.62" offset="71%"></stop>
            <stop stop-color="#A1B1BA" stop-opacity="0.96" offset="97%"></stop>
            <stop stop-color="#9DADB7" offset="100%"></stop>
        </linearGradient>
        <linearGradient x1="50%" y1="100.019514%" x2="50%" y2="0%" id="linearGradient-6">
            <stop stop-color="#FFFFFF" stop-opacity="0" offset="0%"></stop>
            <stop stop-color="#FDFEFE" stop-opacity="0.04" offset="8%"></stop>
            <stop stop-color="#F9FAFA" stop-opacity="0.13" offset="20%"></stop>
            <stop stop-color="#F2F4F5" stop-opacity="0.29" offset="35%"></stop>
            <stop stop-color="#E7EBEE" stop-opacity="0.51" offset="52%"></stop>
            <stop stop-color="#DBE0E4" stop-opacity="0.79" offset="71%"></stop>
            <stop stop-color="#D1D8DD" offset="83%"></stop>
        </linearGradient>
        <linearGradient x1="48.9680268%" y1="99.0997749%" x2="50.2250167%" y2="-9.2648162%" id="linearGradient-7">
            <stop stop-color="#FFFFFF" offset="0%"></stop>
            <stop stop-color="#0099DA" offset="100%"></stop>
        </linearGradient>
        <linearGradient x1="100.798472%" y1="55.4285427%" x2="-1.37128971%" y2="40.9907581%" id="linearGradient-8">
            <stop stop-color="#FFFFFF" offset="0%"></stop>
            <stop stop-color="#0099DA" offset="100%"></stop>
        </linearGradient>
    </defs>
    <g id="Graphic-elements-/-Icons-/-Rich-icons-/-Marketplace-/-Practice-Investigation" stroke="none" stroke-width="1" fill="none" fill-rule="evenodd">
        <g id="investigation" transform="translate(80.000000, 0.000000)">
            <g id="Midlayer" transform="translate(34.894260, 0.482409)">
                <polyline id="Path" stroke="#023852" points="172.315631 67.8362438 174.886561 33.8614444 225.852518 37.8606133 220.027191 113.912837"></polyline>
                <polyline id="Path" stroke="#023852" points="204.565405 119.539786 168.481869 116.764852 171.18406 82.0328403"></polyline>
                <polyline id="Path" stroke="#023852" stroke-width="0.99" points="177.330754 67.7274229 177.692857 62.7307288 218.646674 65.9454803 216.664162 91.6045474 175.710344 88.389796 176.212762 81.8151984"></polyline>
                <line x1="178.344642" y1="55.8659421" x2="219.293933" y2="59.0806936" id="Path" stroke="#023852"></line>
                <line x1="178.616219" y1="52.3610015" x2="219.56551" y2="55.575753" id="Path" stroke="#023852"></line>
                <line x1="178.883269" y1="48.8605951" x2="219.837087" y2="52.0753466" id="Path" stroke="#023852"></line>
                <line x1="179.154847" y1="45.3556545" x2="220.104138" y2="48.570406" id="Path" stroke="#023852"></line>
                <line x1="174.465616" y1="106.07773" x2="215.414908" y2="109.292482" id="Path" stroke="#023852"></line>
                <line x1="174.737193" y1="102.57279" x2="215.686485" y2="105.787541" id="Path" stroke="#023852"></line>
                <line x1="175.00877" y1="99.0678492" x2="215.958062" y2="102.282601" id="Path" stroke="#023852"></line>
                <line x1="175.275821" y1="95.5674428" x2="216.229639" y2="98.7821943" id="Path" stroke="#023852"></line>
                <ellipse id="Oval" fill="#023852" fill-rule="nonzero" cx="206.059079" cy="41.0526938" rx="1.96440725" ry="1.98144767"></ellipse>
                <ellipse id="Oval" fill="#023852" fill-rule="nonzero" cx="201.772688" cy="132.997307" rx="1.96440725" ry="1.98144767"></ellipse>
                <ellipse id="Oval" fill="#023852" fill-rule="nonzero" cx="163.082012" cy="18.3816678" rx="1.96440725" ry="1.98144767"></ellipse>
                <ellipse id="Oval" fill="#023852" fill-rule="nonzero" cx="119.512002" cy="20.8754807" rx="1.96440725" ry="1.98144767"></ellipse>
                <ellipse id="Oval" fill="#023852" fill-rule="nonzero" cx="123.13303" cy="79.7838745" rx="1.96440725" ry="1.98144767"></ellipse>
                <ellipse id="Oval" fill="#023852" fill-rule="nonzero" cx="52.9258387" cy="49.4183024" rx="1.96440725" ry="1.98144767"></ellipse>
                <ellipse id="Oval" fill="#023852" fill-rule="nonzero" cx="20.1827003" cy="40.9620097" rx="1.96440725" ry="1.98144767"></ellipse>
                <ellipse id="Oval" fill="#023852" fill-rule="nonzero" cx="58.733061" cy="1.98144767" rx="1.96440725" ry="1.98144767"></ellipse>
                <ellipse id="Oval" fill="#023852" fill-rule="nonzero" cx="49.0196556" cy="105.778473" rx="1.96440725" ry="1.98144767"></ellipse>
                <polyline id="Path" stroke="#023852" points="216.904055 129.351806 213.559131 151.20214 182.051668 146.237186 185.731537 122.468882 205.610976 125.579347"></polyline>
                <polygon id="Path" stroke="#023852" points="226.277989 127.782971 206.615811 131.242569 204.126355 116.887276 223.788533 113.423143"></polygon>
                <polygon id="Path" stroke="#023852" points="99.4877221 75.1635194 79.037971 83.7739751 72.7962254 68.6977428 93.2414502 60.0872872"></polygon>
                <polygon id="Path" stroke="#023852" stroke-width="1.19" points="137.888715 90.1490676 107.739138 87.904636 109.115128 69.0196714 139.264706 71.2595688"></polygon>
                <rect id="Rectangle" stroke="#023852" x="162.095282" y="67.8135728" width="16.8196713" height="14.0741729"></rect>
                <polygon id="Rectangle" stroke="#023852" stroke-width="1.00568385" transform="translate(123.178519, 26.401815) rotate(19.155612) translate(-123.178519, -26.401815) " points="114.715457 19.3214745 131.633916 19.3306503 131.641581 33.4821562 114.723121 33.4729804"></polygon>
                <polyline id="Path" stroke="#023852" points="74.3261094 72.9417589 46.9737752 72.9417589 46.9737752 43.7505459 88.0543287 43.7505459 88.0543287 62.3770608"></polyline>
                <polyline id="Path" stroke="#023852" points="130.203085 29.2954997 161.502339 35.6796606 155.686064 64.2859612 115.433821 56.0699814 120.263366 32.3152804"></polyline>
                <polyline id="Path" stroke="#023852" points="121.132412 125.633757 89.2040048 124.722382 90.0323148 95.5447718 131.094763 96.7145967 130.406768 120.949923"></polyline>
                <rect id="Rectangle" stroke="#023852" stroke-width="1.1" x="0.239893051" y="13.5708761" width="41.0579221" height="55.7888607"></rect>
                <rect id="Rectangle" stroke="#023852" stroke-width="1.1" x="4.08723444" y="17.5383057" width="33.3677656" height="47.8585358"></rect>
                <polygon id="Rectangle" stroke="#023852" transform="translate(54.817825, 115.107600) rotate(90.000000) translate(-54.817825, -115.107600) " points="29.8048824 93.6258562 79.8307683 93.6258562 79.8307683 136.589344 29.8048824 136.589344"></polygon>
                <line x1="37.6722616" y1="133.527809" x2="52.6361565" y2="133.509672" id="Path" stroke="#023852"></line>
                <line x1="37.6632091" y1="130.0138" x2="52.6271039" y2="129.995663" id="Path" stroke="#023852"></line>
                <line x1="37.6541565" y1="126.499791" x2="52.6180514" y2="126.486188" id="Path" stroke="#023852"></line>
                <line x1="37.6451039" y1="122.985782" x2="52.6089988" y2="122.972179" id="Path" stroke="#023852"></line>
                <line x1="37.6360514" y1="119.471773" x2="52.5999462" y2="119.45817" id="Path" stroke="#023852"></line>
                <line x1="56.1576054" y1="133.532343" x2="71.1215003" y2="133.51874" id="Path" stroke="#023852"></line>
                <line x1="56.1485529" y1="130.022868" x2="71.1124477" y2="130.004731" id="Path" stroke="#023852"></line>
                <line x1="56.1395003" y1="126.508859" x2="71.1033952" y2="126.490722" id="Path" stroke="#023852"></line>
                <line x1="56.1304477" y1="122.99485" x2="71.0943426" y2="122.981247" id="Path" stroke="#023852"></line>
                <line x1="56.1213952" y1="119.480841" x2="71.08529" y2="119.467238" id="Path" stroke="#023852"></line>
                <rect id="Rectangle" stroke="#023852" x="37.6360514" y="96.0526027" width="33.7298683" height="19.8054083"></rect>
                <polyline id="Path" stroke="#023852" points="135.204629 165.203766 201.994476 132.607365 123.200924 79.8700244"></polyline>
                <polyline id="Path" stroke="#023852" points="52.9258387 49.4183024 58.733061 1.98144767 163.082012 18.3816678 119.516529 20.8754807"></polyline>
            </g>
            <g id="Ilus" transform="translate(0.000000, 94.198421)">
                <path d="M97.700422,130.796953 L97.700422,123.032482 L78.0536994,123.032482 L78.0536994,130.796953 C78.0561,131.564979 77.7537203,132.302503 77.2130812,132.847276 C76.6724421,133.392049 75.9378306,133.699447 75.1708547,133.701843 L100.583267,133.701843 C99.8159193,133.700649 99.0806081,133.393636 98.5397091,132.848601 C97.9988101,132.303566 97.6968185,131.565344 97.700422,130.796953 Z" id="Path" fill="#B2BFC7" fill-rule="nonzero"></path>
                <rect id="Rectangle" fill="#9DADB7" fill-rule="nonzero" x="78.0536994" y="123.032482" width="19.6467225" height="6.15818499"></rect>
                <path d="M71.1628871,133.172447 L104.527974,133.172447 C105.663443,133.172447 106.583922,134.094186 106.583922,135.231208 L106.583922,135.955168 L69.1024213,135.955168 L69.1024213,135.231208 C69.1024213,134.094186 70.0229003,133.172447 71.1583686,133.172447 L71.1628871,133.172447 Z" id="Path" fill="#CFD7DC" fill-rule="nonzero"></path>
                <rect id="Rectangle" fill="#023852" fill-rule="nonzero" x="31.4898826" y="52.360409" width="112.711096" height="71.2376667" rx="2.06"></rect>
                <ellipse id="Oval" fill="#4B7284" fill-rule="nonzero" cx="87.8454308" cy="120.000899" rx="1.73061056" ry="1.74655357"></ellipse>
                <rect id="Rectangle" fill="#0099DA" fill-rule="nonzero" x="34.7568054" y="55.7584964" width="106.172732" height="60.5818801"></rect>
                <rect id="Rectangle" fill="#0099DA" fill-rule="nonzero" x="37.2329792" y="57.5457727" width="48.8908781" height="56.7448919"></rect>
                <rect id="Rectangle" fill="#26A8E0" fill-rule="nonzero" x="89.6844869" y="57.5457727" width="48.8908781" height="56.7448919"></rect>
                <line x1="140.048417" y1="107.164183" x2="131.196548" y2="113.856289" id="Path" stroke="#FFFFFF" stroke-width="0.94"></line>
                <path d="M89.350113,108.593973 L95.6128448,108.593973 C100.018914,108.584998 104.200407,110.540138 107.022222,113.928685" id="Path" stroke="#FFFFFF" stroke-width="0.94"></path>
                <path d="M139.470041,56.8489612 L132.552117,61.2108204 C131.138286,62.0916614 130.135001,63.502162 129.765788,65.1280725 C129.396575,66.7539831 129.692107,68.4602278 130.586541,69.8666674 L133.907687,75.1108529 C135.258721,77.211457 137.695521,78.3470175 140.170419,78.0293168" id="Path" stroke="#FFFFFF" stroke-width="0.94"></path>
                <path d="M138.918776,82.5993144 L136.085635,84.7214223 C135.842772,84.8663231 135.528911,84.7922548 135.376221,84.5540065 L123.302614,65.4957588 C123.154157,65.2606325 123.222727,64.949626 123.456245,64.7989472 L135.688002,56.8489612 M138.629588,96.3274065 C138.468812,96.4203574 138.270728,96.4203574 138.109953,96.3274065 L130.532318,92.2551313 C130.371097,92.1693747 130.268495,92.003317 130.263815,91.8205722 C130.259136,91.6378274 130.353105,91.4667226 130.509726,91.372805 L139.334484,84.7757193 M115.011046,113.833665 L138.200324,99.8702858 C138.363437,99.7801068 138.561364,99.7801068 138.724478,99.8702858 M89.3410759,105.014889 L106.425772,105.014889 C106.608431,105.012731 106.77928,105.105116 106.877628,105.259263 L112.299907,113.856289 M89.350113,94.7075459 L104.261379,87.7258564 C104.493498,87.6355777 104.756945,87.722881 104.88946,87.9339949 L111.707975,98.8295933 C111.779124,98.9451306 111.801012,99.0844203 111.768735,99.2162545 C111.736459,99.3480887 111.652716,99.4614463 111.536269,99.5309296 L107.243632,102.119087 C107.161967,102.169027 107.068207,102.195629 106.972518,102.196007 L89.350113,102.196007 M89.350113,66.2061446 L108.359718,70.5951522 C108.441831,70.6107555 108.513417,70.6606509 108.556544,70.7323407 C108.599672,70.8040305 108.610256,70.890724 108.585646,70.9707065 L104.184563,84.544957 C104.13376,84.6922806 104.019158,84.8087022 103.872782,84.8616895 L89.350113,91.7031118 M130.514244,56.8399117 L112.711096,68.4142226 C112.595395,68.4867845 112.45707,68.5141652 112.3225,68.4911434 L89.3410759,63.3465024 M106.895703,85.4408575 L111.057301,72.7489333 C111.148188,72.4769 111.413591,72.3028418 111.698938,72.3281315 L112.430945,72.3960028 C112.616633,72.4183589 112.782495,72.522995 112.882802,72.681062 L124.572331,91.0696468 C124.645127,91.1842973 124.668433,91.3235892 124.636931,91.4557385 C124.605428,91.5878879 124.521806,91.7016199 124.405144,91.770983 L114.861934,97.5219405 C114.618089,97.6698416 114.300911,97.595464 114.148,97.3545248 L106.949925,85.8526098 C106.869895,85.7258519 106.85004,85.570109 106.895703,85.4272833 L106.895703,85.4408575 Z M134.784289,98.6395538 L114.392003,110.910676 C114.147763,111.056046 113.832457,110.982107 113.678069,110.743261 L109.764992,104.521729 C109.693843,104.406192 109.671955,104.266902 109.704231,104.135068 C109.736508,104.003234 109.820251,103.889876 109.936697,103.820393 L126.655389,93.7301999 C126.81688,93.6399611 127.013534,93.6399611 127.175024,93.7301999 L134.74814,97.802475 C134.892453,97.889307 134.983633,98.0428507 134.990907,98.2112847 C134.99818,98.3797187 134.920577,98.5405711 134.784289,98.6395538 Z M127.039467,89.5900535 L115.110455,70.834964 C114.964577,70.5993915 115.03272,70.2903234 115.264086,70.1381525 L120.193841,66.9210551 C120.311111,66.8448403 120.453928,66.8186964 120.590541,66.8484356 C120.727154,66.8781748 120.846242,66.9613322 120.92133,67.0794213 L132.918121,86.0290751 C132.990917,86.1437256 133.014223,86.2830175 132.982721,86.4151668 C132.951219,86.5473162 132.867596,86.6610482 132.750934,86.7304113 L127.744364,89.7484197 C127.505187,89.8945648 127.193369,89.8246444 127.039467,89.5900535 Z" id="Shape" stroke="#FFFFFF" stroke-width="0.94"></path>
                <path d="M89.2687789,70.1788752 L100.086225,72.6358145 C100.821434,72.7516294 101.473004,73.1744844 101.878854,73.7991931 C102.284704,74.4239019 102.406691,75.1917502 102.214469,75.9117337 L101.310756,79.2283756 C100.903609,80.6830101 99.8144719,81.8479218 98.3917625,82.3504532 L89.3952987,86.8752033" id="Path" stroke="#FFFFFF" stroke-width="0.94"></path>
                <path d="M123.808693,56.8399117 L115.584904,61.4189589 C113.156198,62.7660883 110.339208,63.2372941 107.605117,62.7537602 L89.277816,58.8760493" id="Path" stroke="#FFFFFF" stroke-width="0.94"></path>
                <path d="M101.934318,78.5044155 C100.12401,78.4537185 98.6151449,79.8816083 98.563468,81.6943644 C98.563468,83.097037 101.934318,87.8163514 101.934318,87.8163514 C101.934318,87.8163514 105.282575,83.22373 105.282575,81.6943644 C105.230851,79.8906538 103.735905,78.4663899 101.934318,78.5044155 Z" id="Path" fill="#FFE700" fill-rule="nonzero"></path>
                <path d="M54.5978262,68.1925099 L50.9332697,68.1925099 C49.0067168,68.1925099 47.4449371,69.7564272 47.4449371,71.685617 L47.4449371,75.1741994" id="Path" stroke="#FFFFFF" stroke-width="0.94"></path>
                <path d="M77.0686522,75.1741994 L77.0686522,71.685617 C77.0686522,69.7564272 75.5068725,68.1925099 73.5803197,68.1925099 L69.9202816,68.1925099" id="Path" stroke="#FFFFFF" stroke-width="0.94"></path>
                <path d="M47.4449371,98.0332373 L47.4449371,101.526344 C47.4474304,103.453767 49.00848,105.014927 50.9332697,105.014927 L54.5978262,105.014927" id="Path" stroke="#FFFFFF" stroke-width="0.94"></path>
                <path d="M69.9202816,105.014927 L73.5803197,105.014927 C75.5051093,105.014927 77.0661589,103.453767 77.0686522,101.526344 L77.0686522,98.0332373" id="Path" stroke="#FFFFFF" stroke-width="0.94"></path>
                <path d="M68.3523394,93.5899326 C68.6148714,93.2538209 68.8563253,92.9017222 69.0753099,92.5356658 C69.2659389,92.2099232 69.3585167,91.8359629 69.3419053,91.4587753 C69.1927926,88.0018661 68.0541141,84.8752638 63.6485128,82.6988589 C60.142106,80.9704044 56.4188081,82.7667302 54.3176752,84.2056007 C54.0937731,84.3551409 53.9454671,84.5944054 53.9110043,84.8616895 C53.8838929,85.0969765 53.8613001,85.3141645 53.8432258,85.5675505 C53.8331934,85.6984359 53.9004647,85.8231184 54.0152875,85.8864548 C54.1301103,85.9497912 54.2713015,85.9400969 54.3764165,85.8616593 C56.0437672,84.599254 59.7625465,82.3142552 63.043025,83.9341157 C67.6112947,86.1964908 68.1354483,89.4452614 67.9637428,93.4360911 C67.9535636,93.5330545 68.0091583,93.624928 68.0997034,93.6607739 C68.1902485,93.6966198 68.2935522,93.6676526 68.3523394,93.5899326 L68.3523394,93.5899326 Z" id="Path" fill="#FFFFFF" fill-rule="nonzero"></path>
                <path d="M62.0399035,85.2010458 C60.2448729,84.5795816 58.2593922,84.8824646 56.7305891,86.0109761 C55.8278676,86.6635589 55.0605246,87.4857397 54.4713064,88.4317174 C54.2250886,88.7964647 54.1446427,89.2485648 54.2498967,89.6760237 C54.3131566,89.9022612 54.3809351,90.1284987 54.4532321,90.3547362 C54.488636,90.4617507 54.5854739,90.5364488 54.6978384,90.5434189 C54.810203,90.5503891 54.9155071,90.4882302 54.96383,90.3864095 C55.5147011,89.0923779 56.4026793,87.9703373 57.5348938,87.1376389 C58.7007086,86.2619217 60.2252296,86.0244494 61.6016027,86.5041738 C65.7270529,87.8932721 65.5734217,91.028924 64.4392618,95.9382779 C64.4121712,96.0458509 64.4468649,96.1595964 64.5293551,96.2336543 C64.6118453,96.3077123 64.7285349,96.3298756 64.832377,96.2912085 C65.040231,96.209763 65.2526035,96.119268 65.455939,96.0151987 C65.7355404,95.8702609 65.9336089,95.6052525 65.9936483,95.2957634 C66.9244728,90.9474785 67.046474,86.8752033 62.0399035,85.2010458 Z" id="Path" fill="#FFFFFF" fill-rule="nonzero"></path>
                <path d="M63.7931069,79.7668208 C61.3294543,79.0762037 58.7220925,79.0887411 56.2651769,79.8030188 C55.8692654,79.9250024 55.5347399,80.1936364 55.3298338,80.5541274 C55.1762026,80.8210876 55.0361271,81.1016221 54.9050887,81.3866814 C54.8648406,81.4739101 54.8827839,81.5769842 54.9501321,81.6454312 C55.0174803,81.7138782 55.1201364,81.7333709 55.2078326,81.6943644 C56.6628106,80.9749291 59.5682482,80.3097908 63.5626601,81.2418894 C67.3446993,82.1242157 69.2018297,85.8661841 70.0784314,87.4136486 C70.1215097,87.517178 70.2315746,87.5758673 70.3414031,87.5538715 C70.4512316,87.5318757 70.530288,87.4353105 70.530288,87.3231536 C70.602585,86.7032628 70.6929563,85.8933326 70.6839192,85.7530653 C70.6604392,85.4250077 70.5427506,85.110742 70.3450268,84.8481153 C68.6415276,82.5314432 66.4455048,80.4455333 63.7931069,79.7668208 Z" id="Path" fill="#FFFFFF" fill-rule="nonzero"></path>
                <path d="M59.9523263,76.5316244 C59.2872655,76.7620832 58.6564581,77.0817238 58.0771216,77.481822 C58.0043059,77.5387518 57.9765948,77.6362879 58.0085793,77.7230742 C58.0405637,77.8098604 58.1249061,77.8659869 58.2171972,77.861901 C59.8990453,77.7335245 61.5905689,77.8431975 63.2418419,78.187683 C65.3371006,78.7050366 67.2990846,79.6611552 68.9984943,80.9930281 C69.0710973,81.0405682 69.1666499,81.0327606 69.230596,80.9740632 C69.2945421,80.9153657 69.3106028,80.820721 69.2696082,80.7441669 C68.8372718,79.9534327 68.3007869,79.2244582 67.6745546,78.5768115 C67.5432183,78.4412269 67.3905758,78.3281168 67.2226981,78.24198 C66.057147,77.6181011 64.8099007,77.1611669 63.5174744,76.884555 C62.5213626,76.676981 61.5107073,76.5468834 60.4945541,76.4954264 C60.3131959,76.4715766 60.1289179,76.4838786 59.9523263,76.5316244 L59.9523263,76.5316244 Z" id="Path" fill="#FFFFFF" fill-rule="nonzero"></path>
                <path d="M60.0969204,90.413558 C59.9153157,90.4296418 59.7475482,90.5173685 59.630584,90.6574085 C59.5136197,90.7974484 59.4570568,90.9783099 59.4733583,91.1601418 C59.5224258,92.6363944 59.2924629,94.1086361 58.7955735,95.4993772 C58.7299008,95.680713 58.8068029,95.8828575 58.9763161,95.9744759 C59.1660959,96.0740205 59.3603942,96.1645155 59.5546925,96.245961 C59.6540237,96.2852307 59.7650348,96.2823436 59.8621964,96.2379636 C59.959358,96.1935836 60.0343077,96.1115304 60.069809,96.0106739 C60.6459305,94.4171325 60.9083222,92.7269225 60.8424837,91.0334488 C60.806708,90.6565503 60.4734653,90.3794792 60.0969204,90.413558 Z" id="Path" fill="#FFFFFF" fill-rule="nonzero"></path>
                <path d="M59.9116592,87.6670346 C57.7653406,87.6670346 56.6628106,89.2280734 56.6221436,92.3049036 C56.616527,92.7652189 56.545008,93.2223482 56.409771,93.6623286 C56.3719141,93.7882051 56.4008847,93.9247243 56.4865866,94.0243086 C56.6447364,94.2052986 56.8074047,94.3772391 56.9745917,94.5446549 C57.0695681,94.6370478 57.2049904,94.674653 57.3339211,94.6444364 C57.4628517,94.6142199 57.5675432,94.5203409 57.6117094,94.3953381 C57.8475526,93.7352774 57.9771939,93.0418924 57.9957874,92.3411016 C58.031936,89.4497862 58.9853533,89.0606577 59.9116592,89.0606577 C60.6376699,88.988021 61.3508089,89.2896878 61.8049381,89.8615385 C62.5730942,90.9474785 62.4782044,93.2686753 61.5699727,96.3228817 C61.5374248,96.426817 61.5552928,96.5400141 61.6182661,96.6288303 C61.6812394,96.7176465 61.7820701,96.7718594 61.8907909,96.7753999 L62.6137613,96.7753999 C62.7696473,96.7778038 62.9081286,96.6761119 62.9526537,96.5264955 C63.2734719,95.4541297 64.3940761,91.2234883 62.9210238,89.0651824 C62.2884246,88.1195096 61.2581917,87.6670346 59.9116592,87.6670346 Z" id="Path" fill="#FFFFFF" fill-rule="nonzero"></path>
                <polygon id="Path" fill="url(#linearGradient-1)" fill-rule="nonzero" points="140.929538 55.7584964 54.3764165 55.7584964 100.048872 84.4840202 140.929538 110.195766"></polygon>
                <ellipse id="Oval" stroke="#0598DA" cx="195.233657" cy="81.7260376" rx="1.9610574" ry="1.97731583"></ellipse>
                <path d="M137.816246,95.7799117 L135.828077,104.435759 C135.227395,107.064178 135.08674,109.777038 135.412369,112.453616 L138.376548,136.674604 L157.806379,136.674604 L161.077821,117.829019 L137.816246,95.7799117 Z" id="Path" fill="#023852" fill-rule="nonzero"></path>
                <polygon id="Path" fill="#023852" fill-rule="nonzero" points="168.759382 122.06871 171.750672 136.674604 194.470019 136.674604 195.500252 122.448789 190.358125 100.585196"></polygon>
                <path d="M188.6727,102.001443 L196.525967,130.738132 L199.797408,136.489089 L203.913821,137.900811 L206.715332,139.710711 L208.866169,139.425652 L209.24121,138.10895 L208.120606,136.692703 L218.404861,138.10895 L226.831985,138.936979 L227.202508,137.900811 L229.913647,138.353286 L230.193798,136.37597 L216.511582,133.131724 C216.124551,133.031578 215.796919,132.774035 215.607869,132.421339 L215.607869,132.421339 C215.387322,132.007027 214.976067,131.729093 214.509857,131.67928 L208.152236,131.005092 L205.142871,129.13637 L201.58676,99.2730188 L188.6727,102.001443 Z" id="Path" fill="#0099DA" fill-rule="nonzero"></path>
                <polygon id="Path" fill="url(#linearGradient-2)" fill-rule="nonzero" style="mix-blend-mode: multiply;" points="203.055294 112.851794 201.378906 98.7571973 188.478402 101.490146 191.582656 112.851794"></polygon>
                <rect id="Rectangle" fill="#D8DEE2" fill-rule="nonzero" style="mix-blend-mode: multiply;" x="22.8684597" y="230.748685" width="236.985202" height="4.21706716" rx="2.10853358"></rect>
                <path d="M149.763333,234.961227 L142.429701,234.961227 C141.654992,234.955677 140.919663,234.618511 140.409317,234.03483 C139.898971,233.45115 139.662368,232.676723 139.759229,231.907021 L140.934056,223.070184 L151.263497,223.070184 L152.433805,231.929644 C152.523698,232.695716 152.283924,233.463913 151.774371,234.04237 C151.264818,234.620826 150.533595,234.954927 149.763333,234.961227 L149.763333,234.961227 Z" id="Path" fill="#FFFFFF" fill-rule="nonzero"></path>
                <path d="M140.979242,225.821232 L141.367838,230.183091 C141.402087,230.542963 141.578272,230.87429 141.857336,231.103623 C142.136401,231.332956 142.495291,231.441349 142.854446,231.404773 L145.881885,231.074467 C146.129666,231.0473 146.379668,231.0473 146.627449,231.074467 L149.388292,231.477169 C149.755403,231.528177 150.127361,231.426442 150.417603,231.19564 C150.707846,230.964838 150.891059,230.625099 150.924604,230.255487 L151.31772,225.590469 L140.979242,225.821232 Z" id="Path" fill="#26A8E0" fill-rule="nonzero"></path>
                <path d="M193.982014,234.961227 L186.648383,234.961227 C185.873673,234.955677 185.138345,234.618511 184.627998,234.03483 C184.117652,233.45115 183.88105,232.676723 183.977911,231.907021 L185.148219,223.070184 L195.47766,223.070184 L196.652487,231.929644 C196.742379,232.695716 196.502606,233.463913 195.993052,234.04237 C195.483499,234.620826 194.752276,234.954927 193.982014,234.961227 L193.982014,234.961227 Z" id="Path" fill="#FFFFFF" fill-rule="nonzero"></path>
                <path d="M185.184368,225.821232 L185.572964,230.183091 C185.607171,230.543832 185.783995,230.875904 186.064066,231.105366 C186.344137,231.334829 186.704202,231.442632 187.064091,231.404773 L190.09153,231.074467 C190.339312,231.047336 190.58931,231.047336 190.837093,231.074467 L193.593418,231.477169 C193.960528,231.528177 194.332486,231.426442 194.622729,231.19564 C194.912971,230.964838 195.096184,230.625099 195.12973,230.255487 L195.522845,225.590469 L185.184368,225.821232 Z" id="Path" fill="#26A8E0" fill-rule="nonzero"></path>
                <path d="M18.3408519,140.054592 L18.3408519,233.024634 C18.3408519,233.543419 18.5449259,234.041303 18.9112619,234.408141 C19.2775979,234.774978 19.7748014,234.980531 20.2928774,234.979331 L35.0008079,234.979331 C35.5188839,234.980531 36.0160874,234.774978 36.3824234,234.408141 C36.7487594,234.041303 36.9540316,233.543419 36.9528282,233.024634 L36.9528282,229.21027 C36.9528282,228.130723 37.8267774,227.255578 38.9048485,227.255578 L240.839538,227.255578 C241.917609,227.255578 242.791558,228.130723 242.791558,229.21027 L242.791558,233.024634 C242.790355,233.543419 242.995627,234.041303 243.361963,234.408141 C243.728299,234.774978 244.225503,234.980531 244.743579,234.979331 L259.451509,234.979331 C259.969585,234.980531 260.466789,234.774978 260.833125,234.408141 C261.199461,234.041303 261.403535,233.543419 261.403535,233.024634 L261.403535,140.054592 L18.3408519,140.054592 Z" id="Path" fill="#023852" fill-rule="nonzero"></path>
                <polygon id="Path" fill="url(#linearGradient-3)" fill-rule="nonzero" points="261.412567 202.3966 261.412567 140.054592 162.284278 140.054592"></polygon>
                <rect id="Rectangle" fill="#023852" fill-rule="nonzero" x="0" y="135.638436" width="279.753424" height="6.06768998" rx="3.03384499"></rect>
                <path d="M118.585231,104.1507 L118.210191,103.761571 C117.442375,102.973414 117.130419,101.846789 117.383293,100.775236 L117.432997,100.562573 L121.074961,100.024127 L118.585231,104.1507 Z" id="Path" fill="#9DADB7" fill-rule="nonzero"></path>
                <path d="M119.741984,96.8296537 L116.845584,108.711648 L111.671826,127.426014 C111.521206,127.968469 111.181324,128.438855 110.71389,128.751766 L107.686452,130.778854 C107.299064,131.039423 106.842735,131.178084 106.376068,131.177032 L99.0966587,131.177032 C98.7094943,131.175228 98.3436135,131.354236 98.1070929,131.661181 L98.1070929,131.661181 C97.8938383,131.928244 97.5799015,132.095251 97.2395283,132.122705 L83.8510189,133.534427 C83.3190633,133.592408 82.9170525,134.043824 82.9201761,134.579644 L82.9201761,134.579644 C82.9244727,134.949774 83.2152668,135.252851 83.5844235,135.271931 L85.2201442,135.348852 C85.4047646,135.357064 85.5785403,135.438478 85.7031469,135.575138 C85.8277535,135.711799 85.8929555,135.892481 85.8843734,136.077337 L85.8843734,136.077337 C85.8758035,136.265233 85.9434547,136.448618 86.071951,136.585812 C86.2004474,136.723005 86.3788737,136.802353 86.5666767,136.805822 L104.297528,136.547911 C104.369333,136.545233 104.436208,136.584375 104.469114,136.648339 C104.50202,136.712304 104.495022,136.789553 104.451159,136.846544 L103.547446,138.104425 C103.381218,138.327095 103.320172,138.611261 103.380259,138.882682 L103.402852,138.986751 C103.475759,139.310191 103.709584,139.573391 104.021895,139.683563 L104.54153,139.869077 C105.231355,140.118026 105.997944,140.027519 106.611033,139.624741 L107.993714,138.719791 C108.472355,138.407592 109.031098,138.240998 109.602323,138.240167 L111.500121,138.240167 C112.407348,138.244134 113.264515,137.824167 113.818145,137.104455 L115.223419,135.294555 C115.955778,134.35342 116.591588,133.340796 117.121216,132.272022 L131.824628,101.33178 L124.567812,101.625889 L119.741984,96.8296537 Z" id="Path" fill="#0099DA" fill-rule="nonzero"></path>
                <path d="M124.676258,101.621364 L124.653665,101.621364 L124.554256,101.621364 L124.459367,101.530869 L119.172645,99.0920288 L117.152846,107.376846 L120.098951,106.680035 C120.62636,106.552097 121.181957,106.714009 121.558448,107.105361 L126.492721,112.503388 L129.990091,105.146145 L124.676258,101.621364 Z" id="Path" fill="url(#linearGradient-4)" fill-rule="nonzero" style="mix-blend-mode: multiply;"></path>
                <polygon id="Path" fill="#023852" fill-rule="nonzero" points="140.1659 33.2252405 141.101243 17.0673577 174.412107 7.41606554 189.83849 34.2025866 179.079786 46.147927"></polygon>
                <path d="M146.62293,30.2886777 L134.201394,36.2703974 C133.422629,36.6471952 132.859646,37.3610604 132.674119,38.2069905 L120.473992,94.0107344 C120.366335,94.5000979 120.112615,94.9451098 119.746503,95.2867139 L118.784048,96.191664 C118.405111,96.542936 118.147232,97.0055352 118.047522,97.512891 L117.387812,100.825008 L118.39997,100.743563 C119.080783,100.692522 119.738753,101.001367 120.135099,101.558018 L120.817403,102.521789 C121.016606,102.799673 121.284393,103.021055 121.594596,103.164304 L129.935868,106.946995 C130.160949,107.048069 130.419341,107.043237 130.640497,106.933821 C130.861654,106.824404 131.022479,106.621829 131.079065,106.381401 L132.335226,100.929077 C132.430059,100.529816 132.566358,100.14159 132.741897,99.7707413 L137.129424,90.630746 C137.153608,90.5840994 137.205758,90.5591755 137.257184,90.569685 C137.308611,90.5801946 137.346837,90.6235877 137.350834,90.6759935 L137.463798,99.7843156 C137.490062,102.080909 138.02399,104.343168 139.027222,106.40855 L142.971929,114.5531 C143.867873,116.387865 145.049982,118.067993 146.473817,119.530325 L152.564844,125.788055 C152.77573,126.005407 153.070753,126.119915 153.372836,126.101661 C153.674918,126.083407 153.95405,125.934205 154.137304,125.693035 L159.735807,118.313168 L162.980137,125.512045 L181.153807,119.295038 L186.670976,113.73412 L189.594487,106.042045 L189.269151,103.426739 L201.351795,102.996888 C201.798218,102.981049 202.218752,102.783073 202.515738,102.448934 C202.812723,102.114795 202.960321,101.673566 202.924255,101.227711 L202.612474,97.3771485 C202.481758,95.7615901 202.71174,94.1371501 203.285741,92.6216361 L203.285741,92.6216361 C204.088683,90.5010879 204.213428,88.1830259 203.642707,85.9883523 L203.046257,83.7259772 C202.94759,83.3488622 202.869156,82.9667281 202.811291,82.5812154 L199.44496,60.0434348 C199.158122,59.0145974 199.189633,57.9228387 199.535331,56.9123077 L199.892298,55.8625657 C200.451716,54.2146949 200.168012,52.3968408 199.133179,50.9984592 L199.133179,50.9984592 C198.623712,50.3155019 198.287253,49.5190052 198.15265,48.6772624 L196.819674,40.2702766 C196.561639,38.6418455 195.5588,37.22758 194.108534,36.4468627 L181.908408,29.8950244 C181.40333,29.6206714 180.833161,29.4892746 180.259131,29.5149454 L179.527124,29.5420939 C178.78706,29.570745 178.059634,29.343912 177.466658,28.8995794 L174.71937,26.8362933 L170.792737,35.8857936 L165.96239,47.1931443 L160.169589,48.7360841 L150.174522,36.2341994 L146.62293,30.2886777 Z" id="Path" fill="#FFFFFF" fill-rule="nonzero"></path>
                <rect id="Rectangle" fill="url(#linearGradient-5)" fill-rule="nonzero" x="138.448845" y="97.2006832" width="50.2825962" height="38.342733" rx="6.23"></rect>
                <path d="M240.310866,124.70664 C240.33585,123.57873 239.899086,122.489658 239.102001,121.692337 C238.304916,120.895016 237.216866,120.458821 236.090526,120.485048 C235.349146,120.484738 234.620966,120.681475 233.980356,121.055166 L233.980356,119.770137 C233.981856,119.651685 233.933955,119.537972 233.848188,119.456381 C233.76242,119.374791 233.646558,119.332715 233.528499,119.340286 L222.146233,119.340286 C221.91402,119.351649 221.728317,119.537606 221.716969,119.770137 L221.716969,134.072872 C221.730551,134.303636 221.915654,134.487041 222.146233,134.498199 L222.525792,134.498199 C222.758006,134.509562 222.943709,134.695519 222.955056,134.92805 C222.966403,135.160581 223.152107,135.346539 223.38432,135.357901 L232.313005,135.357901 C232.431063,135.365472 232.546926,135.323397 232.632694,135.241806 C232.718461,135.160215 232.766362,135.046503 232.764862,134.92805 C232.776209,134.695519 232.961912,134.509562 233.194125,134.498199 L233.573685,134.498199 C233.690953,134.50571 233.80609,134.464237 233.891709,134.383644 C233.977329,134.303052 234.025781,134.190541 234.025541,134.072872 L234.025541,132.312745 C235.516668,131.511864 240.310866,128.68842 240.310866,124.70664 Z M233.984874,129.896528 L233.984874,124.661392 C234.011785,123.512375 234.947291,122.593642 236.095044,122.589056 C236.665034,122.557272 237.221554,122.770148 237.625222,123.174368 C238.028889,123.578588 238.241474,124.13587 238.209733,124.70664 C238.205214,126.828747 235.787782,128.787964 233.980356,129.896528 L233.984874,129.896528 Z" id="Shape" fill="#FFE700" fill-rule="nonzero"></path>
                <path d="M165.130974,119.177395 C163.775404,105.40858 162.627689,91.626191 161.516122,77.843802 C160.653076,67.2242133 159.808104,56.5774762 158.285347,46.0438578 L150.282968,36.0396351 L146.731376,30.0941134 L134.305321,36.0758331 C133.526556,36.452631 132.963573,37.1664961 132.778046,38.0124262 L120.577919,93.8161701 C120.469193,94.3051205 120.215643,94.7498338 119.85043,95.0921497 L118.887975,95.9970997 C118.509038,96.3483718 118.251159,96.8109709 118.151449,97.3183267 L117.482701,100.61687 L118.499379,100.539949 C119.179137,100.487804 119.83628,100.797067 120.229989,101.354404 L120.912293,102.313651 C121.10959,102.596193 121.379762,102.819821 121.694004,102.96069 L130.039795,106.743381 C130.263465,106.846312 130.521537,106.842887 130.742404,106.734057 C130.963272,106.625227 131.123442,106.422569 131.178473,106.182312 L132.434635,100.729988 C132.529467,100.330727 132.665766,99.942501 132.841305,99.5716523 L137.233351,90.4271322 C137.254674,90.3765385 137.309205,90.3485888 137.36266,90.3608555 C137.416114,90.3731222 137.453048,90.4220614 137.450242,90.4769045 L137.563206,99.5852266 C137.589918,101.881765 138.123824,104.143927 139.12663,106.209461 L143.075856,114.354011 C143.968438,116.190766 145.150906,117.871405 146.577744,119.331236 L152.664252,125.575392 C152.875847,125.793848 153.172332,125.908611 153.475646,125.889465 C153.778961,125.870319 154.058707,125.719182 154.241231,125.475847 L159.835215,118.100504 L163.079545,125.294857 L165.650609,124.43063 C165.469866,122.684076 165.296655,120.932998 165.130974,119.177395 Z" id="Path" fill="url(#linearGradient-6)" fill-rule="nonzero" style="mix-blend-mode: multiply;"></path>
                <rect id="Rectangle" fill="#C3CDD3" fill-rule="nonzero" x="125.674861" y="101.15079" width="58.3979398" height="34.5781408" rx="6.23"></rect>
                <ellipse id="Oval" fill="#D8DEE2" fill-rule="nonzero" cx="155.077166" cy="118.439861" rx="1.65831352" ry="1.66058331"></ellipse>
                <path d="M181.158326,101.051242 L128.395037,101.051242 C126.840319,101.051242 125.579967,102.313319 125.579967,103.870165 L125.579967,107.236579 C125.578771,106.488172 125.874828,105.770005 126.402885,105.240376 C126.930943,104.710748 127.647651,104.413134 128.395037,104.413135 L181.158326,104.413135 C182.715539,104.413135 183.977911,105.677234 183.977911,107.236579 L183.977911,103.856591 C183.970443,102.303281 182.709528,101.048734 181.158326,101.051242 L181.158326,101.051242 Z" id="Path" fill="#E8ECEF" fill-rule="nonzero"></path>
                <path d="M158.841131,48.4962724 L168.836198,43.5778689 L165.93076,65.6088775 C165.874796,66.039924 165.594328,66.4087305 165.194247,66.5773671 C164.794166,66.7460038 164.334735,66.6890696 163.987777,66.4278573 L163.987777,66.4278573 C163.768656,66.2654013 163.609699,66.0345979 163.53592,65.7717685 L158.841131,48.4962724 Z" id="Path" fill="#26A8E0" fill-rule="nonzero"></path>
                <path d="M158.841131,48.4962724 L168.836198,43.5778689 L165.673202,67.7038369 L164.001333,66.4459563 C163.782212,66.2835003 163.623255,66.0526969 163.549476,65.7898675 L158.841131,48.4962724 Z" id="Path" fill="#26A8E0" fill-rule="nonzero"></path>
                <path d="M158.841131,48.4962724 L168.836198,43.5778689 L165.673202,67.7038369 L164.001333,66.4459563 C163.782212,66.2835003 163.623255,66.0526969 163.549476,65.7898675 L158.841131,48.4962724 Z" id="Path" fill="url(#linearGradient-7)" fill-rule="nonzero"></path>
                <path d="M145.890922,29.5918661 L161.041672,24.1621659 L172.432976,25.338601 L174.778111,20.7821776 C174.778111,20.7821776 175.559823,19.705287 175.559823,19.8998513 C175.559823,20.0944155 176.296349,23.1350476 176.296349,23.1350476 L175.464933,27.148501 L173.896991,29.6461631 L173.77499,37.0169812 C173.76047,37.7963677 173.518584,38.5544771 173.079131,39.1979108 L167.204996,48.1795399 C166.784598,48.8278635 166.069992,49.2246566 165.298161,49.2383314 L161.195304,49.3152521 C159.866471,49.3373884 158.584133,48.8257063 157.634674,47.8944806 L151.688242,42.0530281 C150.60163,40.9765162 149.756033,39.6809367 149.207549,38.252238 L145.890922,29.5918661 Z" id="Path" fill="#0099DA" fill-rule="nonzero"></path>
                <path d="M169.898061,30.3429747 L171.944971,25.2888287 L161.064265,24.1666907 L145.913515,29.5963909 L147.729979,34.3881013 L155.863396,37.1617732 C156.525428,37.3882664 157.24847,37.3559435 157.887714,37.0712782 L167.41285,32.8587358 C168.538775,32.3791183 169.431343,31.4755789 169.898061,30.3429747 L169.898061,30.3429747 Z" id="Path" fill="url(#linearGradient-8)" fill-rule="nonzero" style="mix-blend-mode: multiply;"></path>
                <path d="M162.785839,25.9856403 L155.131389,30.3655984 C154.109962,30.9502732 152.930339,31.197288 151.760539,31.0714594 L143.50512,30.1891332 L141.625397,22.7142459 C140.645182,18.8284802 140.893048,14.7338927 142.334811,10.9951429 L142.474887,10.6331629 C143.578057,7.77743126 145.745747,5.46238818 148.520728,4.17634441 L153.893302,1.68320706 C155.420018,0.977795851 157.048909,0.519616069 158.71913,0.325782013 L158.71913,0.325782013 C162.740191,-0.130749385 166.783035,0.973647918 170.015543,3.41166163 L172.188973,5.05414594 C174.092021,6.48800432 175.437216,8.54055528 175.993605,10.8594004 L178.12185,19.8229305 L176.097532,21.0265141 C175.66824,21.2839424 175.321674,21.6592484 175.098929,22.1079294 L173.707211,24.9494725 C173.193809,25.9900551 172.071347,26.583074 170.923775,26.4200163 L165.013491,25.555789 C164.243897,25.4482722 163.460427,25.5994519 162.785839,25.9856403 L162.785839,25.9856403 Z" id="Path" fill="#023852" fill-rule="nonzero"></path>
                <path d="M142.334811,15.5289426 L142.474887,15.1669626 C143.576163,12.311538 145.74237,9.99634844 148.516209,8.71014409 L153.888783,6.22153149 C155.416354,5.51413574 157.047054,5.05587614 158.71913,4.86410644 L158.71913,4.86410644 C162.740514,4.40334668 166.7849,5.50816525 170.015543,7.94998606 L172.193492,9.59699512 C174.090803,11.0267271 175.432619,13.072597 175.989087,15.3841506 L176.8928,19.216614 C176.952599,19.4719258 177.130255,19.6834535 177.371193,19.7862154 C177.61213,19.8889774 177.887539,19.8706859 178.112813,19.7369603 L178.112813,19.7369603 L175.98005,10.7689054 C175.429245,8.45829171 174.093963,6.41104207 172.202529,4.97722519 L170.02458,3.33474088 C166.795816,0.889091558 162.749875,-0.216151906 158.728167,0.24886126 L158.728167,0.24886126 C157.055653,0.438395851 155.424603,0.896753958 153.89782,1.60628631 L148.525246,4.09489891 C145.751407,5.38110326 143.5852,7.6962928 142.483924,10.5517174 L142.343849,10.9136974 C141.202626,13.8712669 140.803868,17.0641454 141.182577,20.212059 C141.368957,18.6088008 141.756076,17.0354013 142.334811,15.5289426 L142.334811,15.5289426 Z" id="Path" fill="#164860" fill-rule="nonzero"></path>
            </g>
        </g>
    </g>
</svg>