<?xml version="1.0" encoding="UTF-8"?>
<svg width="440px" height="330px" viewBox="0 0 440 330" version="1.1" xmlns="http://www.w3.org/2000/svg" xmlns:xlink="http://www.w3.org/1999/xlink">
    <title>Graphic elements / Icons / Rich icons / Marketplace / Challenges-Gather-Evidence-for-Criminal-Investigation</title>
    <defs>
        <linearGradient x1="49.98245%" y1="99.9185802%" x2="49.98245%" y2="-0.0160673224%" id="linearGradient-1">
            <stop stop-color="#FFFFFF" offset="0%"></stop>
            <stop stop-color="#CECEC6" offset="38%"></stop>
            <stop stop-color="#ABAA9E" offset="69%"></stop>
            <stop stop-color="#9E9D8E" offset="86%"></stop>
        </linearGradient>
        <linearGradient x1="49.9719574%" y1="100%" x2="49.9719574%" y2="-0.0404776361%" id="linearGradient-2">
            <stop stop-color="#FFFFFF" offset="22%"></stop>
            <stop stop-color="#96A6AE" offset="100%"></stop>
        </linearGradient>
        <linearGradient x1="0%" y1="49.9927167%" x2="100.011633%" y2="49.9927167%" id="linearGradient-3">
            <stop stop-color="#FFFFFF" offset="0%"></stop>
            <stop stop-color="#0598DA" offset="100%"></stop>
        </linearGradient>
        <linearGradient x1="-2.54644492e-13%" y1="50.0167806%" x2="99.6297131%" y2="50.0167806%" id="linearGradient-4">
            <stop stop-color="#FFFFFF" offset="0%"></stop>
            <stop stop-color="#0598DA" offset="100%"></stop>
        </linearGradient>
        <linearGradient x1="-0.0107631041%" y1="49.9934955%" x2="99.9892369%" y2="49.9934955%" id="linearGradient-5">
            <stop stop-color="#FFFFFF" offset="0%"></stop>
            <stop stop-color="#023852" offset="100%"></stop>
        </linearGradient>
        <linearGradient x1="0.0733373686%" y1="49.9679359%" x2="99.9832792%" y2="49.9679359%" id="linearGradient-6">
            <stop stop-color="#FFFFFF" offset="22%"></stop>
            <stop stop-color="#0B4264" offset="76%"></stop>
        </linearGradient>
        <linearGradient x1="50.0306937%" y1="99.9864142%" x2="50.0306937%" y2="0%" id="linearGradient-7">
            <stop stop-color="#FFFFFF" offset="22%"></stop>
            <stop stop-color="#0B4264" offset="100%"></stop>
        </linearGradient>
        <linearGradient x1="0.0101502233%" y1="49.9832158%" x2="100%" y2="49.9832158%" id="linearGradient-8">
            <stop stop-color="#FFFFFF" offset="0%"></stop>
            <stop stop-color="#023852" offset="100%"></stop>
        </linearGradient>
        <linearGradient x1="0%" y1="49.9883856%" x2="100%" y2="49.9883856%" id="linearGradient-9">
            <stop stop-color="#FFFFFF" offset="22%"></stop>
            <stop stop-color="#0B4264" offset="76%"></stop>
        </linearGradient>
        <linearGradient x1="0.00132354565%" y1="49.9963127%" x2="99.9988813%" y2="49.9963127%" id="linearGradient-10">
            <stop stop-color="#FFFFFF" offset="0%"></stop>
            <stop stop-color="#0598DA" offset="100%"></stop>
        </linearGradient>
        <linearGradient x1="0%" y1="50.0522038%" x2="100%" y2="50.0522038%" id="linearGradient-11">
            <stop stop-color="#FFFFFF" offset="0%"></stop>
            <stop stop-color="#0598DA" offset="100%"></stop>
        </linearGradient>
        <linearGradient x1="0%" y1="49.9661017%" x2="100%" y2="49.9661017%" id="linearGradient-12">
            <stop stop-color="#FFFFFF" offset="0%"></stop>
            <stop stop-color="#0598DA" offset="100%"></stop>
        </linearGradient>
        <linearGradient x1="49.9944829%" y1="100.006454%" x2="49.9944829%" y2="0.053053822%" id="linearGradient-13">
            <stop stop-color="#FFFFFF" offset="0%"></stop>
            <stop stop-color="#023852" offset="100%"></stop>
        </linearGradient>
    </defs>
    <g id="Graphic-elements-/-Icons-/-Rich-icons-/-Marketplace-/-Challenges-Gather-Evidence-for-Criminal-Investigation" stroke="none" stroke-width="1" fill="none" fill-rule="evenodd">
        <g id="Gather-evidence-for-criminal-investigation" transform="translate(37.000000, 0.000000)">
            <g id="Midlayer" stroke="#023852">
                <rect id="Rectangle" x="0.258450704" y="0.280872483" width="79.3133521" height="154.656711"></rect>
                <rect id="Rectangle" x="86.5189577" y="0.280872483" width="79.3133521" height="154.656711"></rect>
                <rect id="Rectangle" x="172.779465" y="0.280872483" width="79.3133521" height="154.656711"></rect>
                <line x1="0.0775352113" y1="4.99328859" x2="78.9411831" y2="4.99328859" id="Path"></line>
                <line x1="0.0775352113" y1="10.3610738" x2="78.9411831" y2="10.3610738" id="Path"></line>
                <line x1="0.0775352113" y1="15.7288591" x2="78.9411831" y2="15.7288591" id="Path"></line>
                <line x1="0.0775352113" y1="21.0966443" x2="78.9411831" y2="21.0966443" id="Path"></line>
                <line x1="0.0775352113" y1="26.4644295" x2="78.9411831" y2="26.4644295" id="Path"></line>
                <line x1="0.0775352113" y1="31.8322148" x2="78.9411831" y2="31.8322148" id="Path"></line>
                <line x1="0.0775352113" y1="37.2" x2="78.9411831" y2="37.2" id="Path"></line>
                <line x1="0.0775352113" y1="42.5677852" x2="78.9411831" y2="42.5677852" id="Path"></line>
                <line x1="86.6688592" y1="4.99328859" x2="165.532507" y2="4.99328859" id="Path"></line>
                <line x1="86.6688592" y1="10.3610738" x2="165.532507" y2="10.3610738" id="Path"></line>
                <line x1="86.6688592" y1="15.7288591" x2="165.532507" y2="15.7288591" id="Path"></line>
                <line x1="86.6688592" y1="21.0966443" x2="165.532507" y2="21.0966443" id="Path"></line>
                <line x1="86.6688592" y1="26.4644295" x2="165.532507" y2="26.4644295" id="Path"></line>
                <line x1="86.6688592" y1="31.8322148" x2="165.532507" y2="31.8322148" id="Path"></line>
                <line x1="86.6688592" y1="37.2" x2="165.532507" y2="37.2" id="Path"></line>
                <line x1="86.6688592" y1="42.5677852" x2="165.532507" y2="42.5677852" id="Path"></line>
                <line x1="172.913859" y1="4.99328859" x2="251.777507" y2="4.99328859" id="Path"></line>
                <line x1="172.913859" y1="10.3610738" x2="251.777507" y2="10.3610738" id="Path"></line>
                <line x1="172.913859" y1="15.7288591" x2="251.777507" y2="15.7288591" id="Path"></line>
                <line x1="172.913859" y1="21.0966443" x2="251.777507" y2="21.0966443" id="Path"></line>
                <line x1="172.913859" y1="26.4644295" x2="251.777507" y2="26.4644295" id="Path"></line>
                <line x1="172.913859" y1="31.8322148" x2="251.777507" y2="31.8322148" id="Path"></line>
                <line x1="172.913859" y1="37.2" x2="251.777507" y2="37.2" id="Path"></line>
                <line x1="172.913859" y1="42.5677852" x2="251.777507" y2="42.5677852" id="Path"></line>
                <polyline id="Path" points="284.259592 52.4919463 288.193211 0.280872483 366.16262 6.42885906 357.256408 123.297819"></polyline>
                <polyline id="Path" points="333.597831 131.937248 278.403099 127.677349 282.533141 74.3011745"></polyline>
                <polyline id="Path" points="291.935577 52.320302 292.493831 44.6431208 355.137113 49.584396 352.102901 89.0157718 289.45962 84.0744966 290.224634 73.9734899"></polyline>
                <line x1="293.486282" y1="34.0947987" x2="356.129563" y2="39.0360738" id="Path"></line>
                <line x1="293.899803" y1="28.7114094" x2="356.543085" y2="33.6526846" id="Path"></line>
                <line x1="294.313324" y1="23.3280201" x2="356.956606" y2="28.2692953" id="Path"></line>
                <line x1="294.726845" y1="17.9446309" x2="357.370127" y2="22.885906" id="Path"></line>
                <line x1="287.552254" y1="111.25151" x2="350.200704" y2="116.187584" id="Path"></line>
                <line x1="287.965775" y1="105.868121" x2="350.614225" y2="110.809396" id="Path"></line>
                <line x1="288.379296" y1="100.484732" x2="351.027746" y2="105.426007" id="Path"></line>
                <line x1="288.792817" y1="95.1013423" x2="351.441268" y2="100.042617" id="Path"></line>
                <ellipse id="Oval" cx="335.887704" cy="11.3337248" rx="3.0083662" ry="3.04798658"></ellipse>
                <polygon id="Path" points="366.808746 144.602517 336.730254 149.92349 332.931028 127.864597 363.009521 122.543624"></polygon>
                <rect id="Rectangle" x="268.628493" y="52.4555369" width="25.7313521" height="21.6323826"></rect>
            </g>
            <g id="Ilus" transform="translate(9.000000, 52.000000)">
                <path d="M210.361073,277.425363 L168.751475,147.733445 C167.241129,143.002637 162.834482,139.793697 157.860268,139.802421 L156.625931,139.802421 C151.672766,139.818461 147.295717,143.022631 145.791773,147.733445 L104.187362,277.425363 L100.250969,276.167374 L141.860566,146.506518 C143.897103,140.07469 149.868291,135.697039 156.625931,135.681538 L157.803219,135.681538 L157.875827,135.681538 C164.649104,135.662355 170.651762,140.032031 172.703428,146.475456 L214.313025,276.167374 L210.361073,277.425363 Z" id="Path" fill="#F1F4F5" fill-rule="nonzero"></path>
                <path d="M139.474873,167.441937 L145.79696,147.738622 C147.300316,143.029619 151.674681,139.825881 156.625931,139.807598 L157.860268,139.807598 C162.834482,139.798874 167.241129,143.007813 168.751475,147.738622 L175.073562,167.447114 L179.445604,167.447114 L172.703428,146.480633 C170.654868,140.031284 164.648632,135.656339 157.870641,135.676356 L157.798033,135.676356 L156.620745,135.676356 C149.863619,135.694829 143.894685,140.074458 141.860566,146.506518 L135.11839,167.467821 L139.474873,167.441937 Z" id="Path" fill="url(#linearGradient-1)" fill-rule="nonzero" style="mix-blend-mode: multiply;"></path>
                <path d="M104.975678,274.629832 L111.873443,253.668529 C110.976215,252.115456 109.99082,250.562384 109.010611,249.050726 L102.626289,268.422719 C103.43535,270.476226 104.21848,272.545264 104.975678,274.629832 Z" id="Path" fill="url(#linearGradient-2)" fill-rule="nonzero" style="mix-blend-mode: multiply;"></path>
                <polygon id="Path" fill="#9DADB7" fill-rule="nonzero" points="139.272608 110.34581 112.034218 110.34581 100.069449 129.402011 127.307839 129.402011"></polygon>
                <polygon id="Path" fill="#CED6DB" fill-rule="nonzero" style="mix-blend-mode: multiply;" points="138.505037 111.614153 111.271833 111.614153 105.540984 120.637505 132.779374 120.637505"></polygon>
                <path d="M100.219851,129.324358 L139.594158,129.324358 C141.312743,129.324358 142.705931,130.715026 142.705931,132.430503 L142.705931,133.362346 L103.010075,133.362346 C101.469077,133.362346 100.219851,132.11538 100.219851,130.577169 L100.219851,129.298473 L100.219851,129.324358 Z" id="Path" fill="#9DADB7" fill-rule="nonzero" transform="translate(121.462891, 131.330410) rotate(-180.000000) translate(-121.462891, -131.330410) "></path>
                <path d="M111.017705,129.277765 C113.022721,129.277765 114.648107,130.900212 114.648107,132.901601 L114.648107,133.346816 L104.208107,133.346816 C101.958785,133.346816 100.134546,131.528195 100.131684,129.282942 L111.022891,129.282942 L111.017705,129.277765 Z" id="Path" fill="#CED6DB" fill-rule="nonzero" style="mix-blend-mode: multiply;"></path>
                <path d="M184.268852,111.58827 L68.5212519,111.58827 C65.8531586,111.590334 63.5359392,109.755789 62.9304322,107.162011 L45.2088823,29.8034637 C44.7217801,27.6785239 45.7034728,25.4884936 47.6153204,24.4350093 L53.1698361,21.3702793 L167.32006,26.2158659 L191.778599,104.294004 L188.340089,109.419143 C187.430283,110.774615 185.903391,111.58827 184.268852,111.58827 Z" id="Path" fill="#023852" fill-rule="nonzero"></path>
                <path d="M188.495678,106.742684 L72.6080477,106.742684 C71.01088,106.742684 69.6256883,105.64073 69.2680775,104.086927 L51.2716542,25.5532216 C51.0376601,24.5381513 51.2803038,23.4719754 51.930684,22.6574464 C52.5810642,21.8429174 53.5681414,21.369004 54.6116244,21.3702768 L170.499255,21.3702768 C172.097969,21.3713587 173.483687,22.4753509 173.839225,24.0312104 L191.835648,102.559739 C192.069642,103.57481 191.826999,104.640985 191.176619,105.455515 C190.526238,106.270044 189.539161,106.743957 188.495678,106.742684 L188.495678,106.742684 Z" id="Path" fill="#497082" fill-rule="nonzero"></path>
                <polygon id="Path" fill="#0099DA" fill-rule="nonzero" points="183.496095 92.5475978 74.0913264 92.5475978 59.5956483 25.812067 169.000417 25.812067"></polygon>
                <polygon id="Path" fill="url(#linearGradient-3)" fill-rule="nonzero" style="mix-blend-mode: multiply;" points="107.133174 63.1272253 70.1393741 63.1272253 62.5518331 27.5877467 99.5456334 27.5877467"></polygon>
                <polygon id="Path" fill="#FFE700" fill-rule="nonzero" points="113.273741 90.1765736 75.7924292 90.1765736 70.4868554 64.8407821 107.968167 64.8407821"></polygon>
                <path d="M152.860686,131.343352 C152.860686,130.156814 153.824308,129.194935 155.012996,129.194935 L209.90468,129.194935 L209.90468,133.491769 L152.855499,133.491769 L152.855499,131.343352 L152.860686,131.343352 Z" id="Path" fill="#9DADB7" fill-rule="nonzero"></path>
                <polygon id="Path" fill="#FFFFFF" fill-rule="nonzero" points="6.87183308 139.843836 152.705097 139.843836 205.537824 139.843836 205.537824 136.644507 205.537824 133.44 152.705097 133.44 6.87183308 133.44 6.87183308 136.644507"></polygon>
                <path d="M255.782593,94.5665922 L249.766498,102.849646 L243.755589,111.179292 C242.478192,112.948118 240.289962,113.818193 238.144024,113.41054 L232.739911,112.375158 L227.340984,111.339777 L225.017526,119.358808 L222.694069,127.372663 L233.336334,129.961117 L243.983785,132.549572 L257.431833,130.618585 L270.885067,128.682421 L263.33383,111.598622 L255.782593,94.5665922 Z" id="Path" fill="#023852" fill-rule="nonzero"></path>
                <path d="M223.010432,112.33892 L214.115946,109.719404 L205.221461,107.094711 C204.870616,106.994724 204.498743,106.994724 204.147899,107.094711 L200.854605,108.088678 L197.561311,109.082644 C197.205708,109.188049 196.890851,109.39938 196.658897,109.688343 C196.420495,109.973101 196.274042,110.323231 196.238808,110.692663 L195.772042,115.445065 L195.305276,120.202644 C195.272552,120.516699 195.320752,120.833893 195.445306,121.124134 C195.571733,121.413889 195.767659,121.668131 196.015797,121.864432 L198.090313,123.479628 L200.164829,125.094823 C200.509877,125.365366 200.939965,125.504801 201.37842,125.488268 C201.819318,125.472304 202.240967,125.30395 202.571267,125.011993 L204.443517,123.334674 L206.315768,121.662533 C206.532394,121.46748 206.791688,121.325658 207.072966,121.24838 C207.3539,121.173207 207.648252,121.162587 207.93389,121.217318 L213.488405,122.330354 L219.042921,123.438212 C219.470238,123.524696 219.914409,123.458741 220.298003,123.251844 C220.68144,123.046949 220.98198,122.715856 221.148554,122.314823 L222.704441,118.577095 L224.260328,114.839367 C224.459596,114.34376 224.43694,113.786736 224.198077,113.308885 C223.959215,112.831034 223.526967,112.478012 223.010432,112.33892 Z" id="Path" fill="#0099DA" fill-rule="nonzero"></path>
                <path d="M223.254188,112.33892 L218.161252,110.837616 L213.068316,109.336313 L213.068316,122.175047 L216.180089,122.796276 L219.291863,123.417505 C220.171193,123.593538 221.052078,123.122412 221.39231,122.294115 L222.948197,118.556387 L224.504083,114.818659 C224.706473,114.328786 224.691014,113.77618 224.461553,113.298344 C224.232093,112.820507 223.810204,112.462366 223.300864,112.313035 L223.254188,112.33892 Z" id="Path" fill="url(#linearGradient-4)" fill-rule="nonzero" style="mix-blend-mode: multiply;"></path>
                <polygon id="Path" fill="#FFE700" fill-rule="nonzero" points="203.722623 116.200894 204.59392 116.200894 205.465216 116.200894 205.465216 103.548529 205.465216 90.8961639 204.59392 90.8961639 203.722623 90.8961639 203.722623 103.548529"></polygon>
                <path d="M208.328048,112.483873 L205.112548,113.213818 L201.891863,113.938585 C201.482492,114.03652 201.117504,114.267869 200.854605,114.596052 C200.587943,114.927763 200.443325,115.340733 200.444854,115.766034 L200.444854,117.075791 C200.441703,117.598999 200.66022,118.099175 201.046498,118.452849 C201.429889,118.805372 201.942545,118.983446 202.462355,118.944655 L205.646736,118.701341 L208.825931,118.452849 C209.782518,118.384083 210.531325,117.603063 210.558152,116.646108 L210.594456,115.507188 L210.625574,114.368268 C210.642811,113.789727 210.391268,113.235697 209.944077,112.867255 C209.496887,112.498813 208.904233,112.357306 208.33842,112.483873 L208.328048,112.483873 Z" id="Path" fill="#1AA1DB" fill-rule="nonzero"></path>
                <path d="M222.688882,127.403724 L225.01234,119.38987 L227.335797,111.370838 L224.804888,110.822086 L222.279165,110.268156 C221.823622,110.168526 221.347099,110.26419 220.965561,110.531866 C220.584023,110.799542 220.332453,111.214688 220.272072,111.676276 L219.312608,119.001601 L218.342772,126.316574 L220.510641,126.860149 L222.688882,127.403724 Z" id="Path" fill="#FFFFFF" fill-rule="nonzero"></path>
                <path d="M255.855201,94.5665922 L249.839106,102.849646 L243.82301,111.158585 C242.542282,112.926175 240.353508,113.795662 238.206259,113.389832 L232.807332,112.354451 L227.403219,111.319069 L225.084948,119.38987 L222.766677,127.403724 L232.407988,130.882607 L242.044113,134.36149 L256.498301,131.560782 L270.952489,128.754898 L263.406438,111.671099 L255.855201,94.5665922 Z" id="Path" fill="url(#linearGradient-5)" fill-rule="nonzero" style="mix-blend-mode: multiply;"></path>
                <path d="M254.869806,246.229311 L259.537466,256.583128 L264.205127,266.936946 C264.205127,266.993892 264.251803,267.056015 264.272548,267.112961 C264.293294,267.169907 264.303666,267.237207 264.314039,267.29933 L264.765246,269.929199 L265.216453,272.559069 C265.34551,273.299582 264.900211,274.019662 264.179195,274.236387 L258.826945,275.78946 L253.469508,277.316648 C253.404091,277.338857 253.336137,277.352772 253.267243,277.358063 L253.064978,277.358063 L248.760358,277.358063 C247.938301,277.358063 247.271893,276.69286 247.271893,275.872291 L247.271893,275.872291 C247.274637,275.402384 247.052971,274.959275 246.675011,274.679129 C246.29705,274.398983 245.808004,274.315308 245.358152,274.453818 L239.93848,276.069013 L234.513621,277.684209 C234.375558,277.725062 234.232347,277.745982 234.088346,277.746331 L214.193741,277.746331 C214.062471,277.744738 213.931871,277.727356 213.804769,277.694562 C213.677885,277.660036 213.555899,277.60959 213.441729,277.544432 L210.734486,275.991359 L208.027243,274.438287 C207.701759,274.247199 207.460861,273.940147 207.353025,273.57892 C207.243826,273.217943 207.27723,272.828931 207.446379,272.491769 L209.002265,269.385624 L210.558152,266.279479 C210.666177,266.072663 210.822771,265.895037 211.014545,265.761788 C211.209458,265.620923 211.435291,265.528623 211.673204,265.492588 L218.472429,264.514153 L225.271654,263.53054 C225.38363,263.514016 225.493287,263.484479 225.59839,263.442533 C225.703717,263.401171 225.804513,263.349129 225.899195,263.287225 L230.437198,260.18108 L234.975201,257.074935 C235.595477,256.647966 235.800054,255.826701 235.45234,255.159479 L234.036483,252.457132 L232.620626,249.754786 C232.393373,249.319894 232.395789,248.801069 232.627084,248.368305 C232.858378,247.935542 233.288744,247.644611 233.777168,247.590838 L243.553323,246.420857 L253.35541,245.34406 C253.666815,245.307505 253.98169,245.37291 254.252638,245.530428 C254.530807,245.688018 254.748085,245.934065 254.869806,246.229311 L254.869806,246.229311 Z" id="Path" fill="#023852" fill-rule="nonzero"></path>
                <path d="M233.901639,251.84108 L236.048763,256.070615 L238.201073,260.300149 C238.595598,261.077251 239.334609,261.622729 240.194547,261.771569 C241.054485,261.92041 241.934334,261.655129 242.567928,261.055978 L248.215797,255.739292 L253.853294,250.41743 C255.092253,249.251388 255.461947,247.433213 254.776453,245.877281 L254.610492,245.489013 L254.439344,245.100745 L244.175678,248.49162 L233.901639,251.84108 Z" id="Path" fill="url(#linearGradient-6)" fill-rule="nonzero" style="mix-blend-mode: multiply;"></path>
                <path d="M310.202325,183.837207 L294.850909,173.654227 L279.50468,163.471248 C279.346258,163.367188 279.170693,163.291832 278.986051,163.248641 C278.799124,163.214982 278.607672,163.214982 278.420745,163.248641 L241.30766,168.394488 L204.199762,173.535158 C203.892825,173.579937 203.605004,173.711018 203.369955,173.913073 L195.071893,181.207337 L186.77383,188.506778 C186.173164,189.033352 186.070023,189.928611 186.535261,190.577542 L208.924471,221.939255 L231.308495,253.295791 C231.451437,253.495708 231.639842,253.658933 231.858241,253.772067 C232.074125,253.886527 232.313989,253.948601 232.55839,253.953259 L244.891386,250.096462 L257.23994,246.239665 C257.540026,245.974147 257.725822,245.603228 257.758569,245.204283 C257.787938,244.809954 257.665519,244.419292 257.416274,244.111955 L240.602325,223.192067 L223.783189,202.277356 C223.359098,201.784439 223.287227,201.080101 223.603049,200.511958 C223.918871,199.943814 224.555623,199.631964 225.199046,199.730317 L231.941222,200.548268 L238.683398,201.361043 C238.767935,201.368675 238.852989,201.368675 238.937526,201.361043 C239.023195,201.361204 239.108555,201.350771 239.191654,201.329981 L251.721729,198.793296 L264.251803,196.204842 C264.411386,196.177203 264.574545,196.177203 264.734128,196.204842 L283.793741,198.275605 L302.848167,200.346369 C303.520201,200.424744 304.165941,200.060603 304.445544,199.445587 L307.603994,192.648305 L310.757258,185.851024 C311.094531,185.147723 310.8571,184.30382 310.202325,183.878622 L310.202325,183.837207 Z" id="Path" fill="#023852" fill-rule="nonzero"></path>
                <path d="M226.38152,170.403128 L216.143785,171.780186 L205.895678,173.152067 C203.83217,173.432896 202.083263,174.80809 201.326557,176.744842 L196.959702,187.96838 L192.58766,199.191918 L198.116244,206.796797 L203.613711,214.396499 C204.209814,215.225712 205.211254,215.664755 206.226278,215.541879 C207.241302,215.419003 208.108573,214.753739 208.488823,213.806331 L217.45073,192.094376 L226.38152,170.403128 Z" id="Path" fill="url(#linearGradient-7)" fill-rule="nonzero" style="mix-blend-mode: multiply;"></path>
                <path d="M259.698241,145.69892 C259.633484,145.551967 259.544028,145.41715 259.433741,145.300298 C259.328124,145.179513 259.203807,145.076394 259.065514,144.99486 L241.095022,134.325251 L223.119344,123.650466 C222.988132,123.577686 222.848899,123.520356 222.704441,123.479628 C222.560477,123.443174 222.412026,123.427484 222.263607,123.433035 L216.942474,123.603873 L211.621341,123.774711 C211.347945,123.784582 211.081748,123.864832 210.848584,124.007672 C210.614044,124.148411 210.42084,124.348409 210.288465,124.587486 L195.699434,151.046667 L181.105216,177.50067 C180.874002,177.923429 180.848745,178.428412 181.036626,178.872056 C181.224506,179.3157 181.604974,179.649482 182.069866,179.77851 L187.774784,181.331583 L193.479702,182.884655 L198.494844,184.26689 L203.515171,185.649125 C203.859883,185.739884 204.225136,185.71254 204.552429,185.571471 C204.885147,185.42665 205.15667,185.170269 205.32,184.846704 L208.431773,178.794898 L211.543547,172.737914 L215.407332,165.221043 L219.265931,157.698994 C219.505728,157.208 219.986298,156.878847 220.531518,156.832168 C221.076739,156.785489 221.606442,157.028147 221.926498,157.47121 L226.646021,163.730093 L231.37073,169.994153 L253.588793,166.888007 L275.806855,163.807747 L267.742176,154.789572 L259.698241,145.69892 Z" id="Path" fill="#023852" fill-rule="nonzero"></path>
                <path d="M275.661639,163.657616 L267.612519,154.577318 L259.568584,145.49702 C259.501559,145.351315 259.412335,145.216848 259.304083,145.098399 C259.199676,144.977793 259.075083,144.876198 258.935857,144.798138 L254.04,141.888715 L249.144143,138.979292 L236.857824,149.9854 L224.566319,161.001862 L227.89073,165.412588 L231.220328,169.823315 L253.43839,166.748231 L275.661639,163.657616 Z" id="Path" fill="url(#linearGradient-8)" fill-rule="nonzero"></path>
                <path d="M274.19392,59.5344507 L268.162265,51.1219739 L262.130611,42.7146741 C261.90465,42.395785 261.583283,42.156555 261.212638,42.0313222 L251.975857,38.9251769 L242.718331,35.7517318 C242.441353,35.659167 242.146521,35.6325737 241.857407,35.6740782 C241.568649,35.712853 241.293184,35.8192918 241.053532,35.9846927 L236.012459,39.4480447 L230.976572,42.9113966 C230.690283,43.1085914 230.46414,43.3809059 230.3231,43.6982868 C230.176476,44.0224575 230.127811,44.3822929 230.18307,44.7336685 L230.701699,48.5801117 L231.220328,52.4317318 C231.290002,52.9501058 231.576449,53.4147402 232.008644,53.7104283 L232.501341,54.0521043 L232.988852,54.3886034 C233.251624,54.5709958 233.463927,54.8167502 233.606021,55.1030168 C233.748361,55.3902954 233.812738,55.7098122 233.792727,56.0296834 L233.564531,60.3627561 L233.331148,64.7010056 C233.294579,65.3807046 233.630101,66.0267541 234.20763,66.3886778 L234.20763,66.3886778 C234.403673,66.508915 234.619732,66.5930781 234.845544,66.6371695 C235.071855,66.6785847 235.303823,66.6785847 235.530134,66.6371695 L236.048763,66.5439851 L236.593323,66.4456238 C237.467374,66.2894148 238.33194,66.7640658 238.667839,67.5845438 L239.565067,69.78473 L240.462295,71.9849162 C240.512052,72.1100803 240.574619,72.2297835 240.649001,72.3421229 C240.725901,72.4515652 240.814599,72.5522546 240.913502,72.6423836 L243.688167,75.2567225 L246.462832,77.8451769 C247.020096,78.3707339 247.842043,78.5040587 248.537347,78.181676 L251.327571,76.8926257 L254.112608,75.6035754 C254.465126,75.438794 254.860425,75.3881134 255.243219,75.458622 C255.623118,75.5262753 255.973757,75.70669 256.249359,75.9763128 L257.971207,77.7519926 L259.687869,79.5224953 C260.085995,79.929649 260.647481,80.134837 261.214859,80.0805155 C261.782238,80.0261939 262.294414,79.7182123 262.60775,79.2429423 L268.385276,70.4421974 L274.167988,61.6414525 C274.372151,61.3253548 274.478572,60.9562563 274.473979,60.5801862 C274.486958,60.2115554 274.389445,59.8474436 274.19392,59.5344507 L274.19392,59.5344507 Z" id="Path" fill="#000000" fill-rule="nonzero"></path>
                <polygon id="Path" fill="url(#linearGradient-9)" fill-rule="nonzero" style="mix-blend-mode: multiply;" points="258.754337 254.662495 259.718987 256.83162 260.683636 258.995568 259.16924 267.558175 257.649657 276.120782 255.927809 276.534935 254.205961 276.949088 256.477556 265.80838"></polygon>
                <polygon id="Path" fill="#1B4C63" fill-rule="nonzero" points="173.268733 185.638771 167.869806 187.015829 162.470879 188.392886 162.289359 188.449832 162.113025 188.506778 167.517139 187.124544 172.921252 185.747486 173.097586 185.695717"></polygon>
                <path d="M254.553443,277.554786 L253.210194,277.554786 L251.861759,277.523724 L258.391297,243.43378 L264.926021,209.343836 C266.263733,202.34398 272.835289,197.597866 279.914396,198.51892 L295.286557,200.522384 L310.658718,202.50514 C316.142318,203.203088 320.636378,207.18556 321.980387,212.537989 L330.159165,244.665885 L338.332757,276.798957 L337.062116,277.119926 L335.796662,277.440894 L327.617884,245.312998 L319.444292,213.179926 C318.361999,208.867219 314.740141,205.658865 310.32161,205.098771 L294.949449,203.09013 L279.577288,201.086667 C273.877402,200.356695 268.590075,204.17282 267.49842,209.804581 L261.025931,243.682272 L254.553443,277.554786 Z" id="Path" fill="#D4DBDF" fill-rule="nonzero"></path>
                <path d="M183.350879,178.649944 L180.628077,180.876015 L177.910462,183.102086 C177.57361,183.38033 177.206545,183.619966 176.816155,183.816499 C176.426488,184.009366 176.018111,184.162014 175.597377,184.272067 L164.649121,187.067598 L153.700864,189.857952 L153.40006,189.945959 L153.104441,190.04432 L150.661699,190.950279 L148.21377,191.851061 C145.655535,192.799222 144.062638,195.353465 144.339613,198.063352 L144.339613,198.063352 C144.58646,200.405009 146.185964,202.384564 148.426408,203.121192 L157.56465,206.118622 L166.708077,209.147114 C167.259502,209.327524 167.83428,209.426925 168.414367,209.442197 C168.995042,209.457582 169.574919,209.389587 170.136215,209.240298 L177.791177,207.169534 L185.44614,205.098771 C185.650723,205.041579 185.858544,204.996632 186.068495,204.964171 C186.281133,204.93311 186.49377,204.907225 186.706408,204.896872 L189.465514,204.757095 L192.22462,204.617318 C194.772356,204.487095 196.957936,202.760494 197.670224,200.315307 L199.578778,193.756164 L201.482146,187.19702 C201.933838,185.64979 201.739562,183.985988 200.943492,182.583928 C200.147421,181.181868 198.81721,180.160704 197.25532,179.752626 L192.961073,178.603352 L188.666826,177.474786 C186.811048,176.989305 184.834593,177.420452 183.350879,178.634413 L183.350879,178.649944 Z" id="Path" fill="#023852" fill-rule="nonzero"></path>
                <path d="M313.251863,204.115158 C312.811028,204.115158 312.370194,204.115158 311.924173,204.073743 C311.478152,204.032328 311.037317,204.001266 310.591297,203.94432 L289.726855,201.221266 L268.857228,198.503389 C266.128879,198.149736 263.35526,198.473361 260.782176,199.445587 L255.300268,201.51635 L249.823547,203.587114 L249.201192,201.956387 L248.584024,200.346369 L254.060745,198.275605 L259.542653,196.204842 C261.092036,195.615797 262.708695,195.221058 264.355529,195.029683 C266.001573,194.838086 267.664933,194.848518 269.308435,195.060745 L290.178063,197.757914 L311.042504,200.475791 C315.526686,201.072815 320.060986,199.820228 323.599656,197.006916 C327.138326,194.193604 329.375828,190.062475 329.796125,185.566294 L330.553323,177.754339 L331.305335,169.937207 C331.362385,169.367747 331.440179,168.803464 331.543905,168.239181 C331.64763,167.674898 331.772101,167.120968 331.922504,166.567039 L338.10456,143.954302 L344.281431,121.336387 L345.966975,121.791955 L347.652519,122.2527 L341.470462,144.870615 L335.293592,167.498883 C335.169121,167.949274 335.060209,168.410019 334.977228,168.87594 C334.894247,169.341862 334.826826,169.812961 334.780149,170.28406 L334.028137,178.085661 L333.276125,185.902793 C332.302823,196.218531 323.632019,204.104757 313.251863,204.115158 L313.251863,204.115158 Z" id="Path" fill="#313436" fill-rule="nonzero"></path>
                <path d="M260.170194,155.224432 L259.428554,158.703315 L258.692101,162.17702 C258.496865,163.082901 258.712804,164.028597 259.282024,164.760554 C259.851243,165.49251 260.715509,165.935845 261.6431,165.971695 L268.094844,166.235717 L274.546587,166.494562 C274.677699,166.536084 274.805909,166.586237 274.930373,166.644693 C275.053914,166.700279 275.173481,166.764278 275.288227,166.836238 L287.657526,174.565363 L300.026826,182.294488 C300.211469,182.405497 300.385126,182.533771 300.545455,182.677579 L305.612459,187.404097 L310.674277,192.135791 C311.662675,193.058308 313.11794,193.278466 314.335797,192.689721 L315.17079,192.291099 L316.005782,191.8873 C317.174875,191.32617 317.899799,190.126924 317.852101,188.832924 L317.634277,182.574041 L317.400894,176.320335 C317.355681,175.00655 316.525931,173.847818 315.295261,173.379851 L289.716483,163.626555 L264.132519,153.873259 C262.658059,153.315336 260.994486,153.882623 260.170194,155.224432 Z" id="Path" fill="#FFFFFF" fill-rule="nonzero"></path>
                <path d="M219.649717,132.741117 L215.889657,132.601341 L212.129598,132.461564 C211.95323,132.450957 211.778943,132.417902 211.610969,132.363203 C211.44022,132.301279 211.278124,132.217768 211.128644,132.114711 L201.829627,125.493445 L192.515052,118.877356 C192.356735,118.764641 192.181749,118.677306 191.996423,118.61851 C191.811669,118.56116 191.61941,118.531501 191.425931,118.530503 L184.284411,118.530503 C184.09645,118.531903 183.909628,118.559788 183.729478,118.613333 C183.544688,118.668686 183.3697,118.752528 183.210849,118.861825 L179.808644,121.201788 L176.406438,123.54175 C175.603768,124.095905 175.360302,125.171517 175.846319,126.016313 L176.940626,127.911061 L178.034933,129.80581 C178.21776,130.128733 178.494451,130.388676 178.828435,130.551285 C179.162375,130.716063 179.538061,130.777362 179.907183,130.7273 L183.184918,130.292439 L186.467839,129.852402 C187.038473,129.778556 187.611607,129.969255 188.023726,130.370093 L193.728644,135.909385 L199.433562,141.448678 C199.65535,141.654957 199.904988,141.829213 200.175201,141.966369 C200.444821,142.11157 200.735179,142.214583 201.036125,142.271806 L209.266766,143.918063 L217.455917,145.569497 C217.946004,145.669686 218.455872,145.569366 218.871211,145.291027 C219.286551,145.012689 219.572617,144.579616 219.665276,144.088901 L220.541759,139.517691 L221.418241,134.951657 C221.523719,134.415824 221.387091,133.86083 221.044829,133.434823 C220.701589,133.01381 220.193143,132.76099 219.649717,132.741117 L219.649717,132.741117 Z" id="Path" fill="#0099DA" fill-rule="nonzero"></path>
                <path d="M221.413055,132.575456 L212.326677,135.635009 L203.240298,138.668678 C202.800976,138.814546 202.332069,138.84836 201.876304,138.767039 C201.424776,138.686173 201.006652,138.47569 200.673085,138.161341 L200.673085,138.161341 L194.968167,132.622048 L189.263249,127.082756 C189.061381,126.885946 188.816326,126.738824 188.547541,126.653073 C188.27896,126.563285 187.99358,126.534976 187.712548,126.570242 L184.429627,127.010279 L181.151893,127.44514 C180.782771,127.495202 180.407085,127.433903 180.073145,127.269125 C179.73916,127.106516 179.462469,126.846573 179.279642,126.52365 L178.221639,124.763501 L177.215499,123.013706 L176.816155,123.288082 L176.416811,123.562458 C175.614141,124.116613 175.370675,125.192225 175.856692,126.03702 L176.950999,127.931769 L178.045306,129.826518 C178.228133,130.14944 178.504823,130.409384 178.838808,130.571993 C179.172748,130.736771 179.548434,130.79807 179.917556,130.748007 L183.195291,130.313147 L186.478212,129.87311 C187.048846,129.799263 187.621979,129.989962 188.034098,130.390801 L193.739016,135.930093 L199.443934,141.469385 C199.665723,141.675664 199.91536,141.84992 200.185574,141.987076 C200.455194,142.132278 200.745552,142.235291 201.046498,142.292514 L209.266766,143.918063 L217.455917,145.569497 C217.946004,145.669686 218.455872,145.569366 218.871211,145.291027 C219.286551,145.012689 219.572617,144.579616 219.665276,144.088901 L219.872727,143.022458 L220.074993,141.961192 C219.872727,142.095791 220.339493,139.776536 220.7907,137.405512 C221.241908,135.034488 221.67237,132.627225 221.413055,132.575456 Z" id="Path" fill="url(#linearGradient-10)" fill-rule="nonzero" style="mix-blend-mode: multiply;"></path>
                <path d="M230.623905,131.653966 L225.204232,132.042235 L219.78456,132.425326 L218.09383,138.337356 L216.397914,144.244209 C216.176994,145.014496 216.310599,145.842952 216.762531,146.50512 C217.214463,147.167289 217.937934,147.594615 218.73693,147.671322 L221.776095,147.971583 L224.815261,148.266667 L227.719583,139.983613 L230.623905,131.653966 Z" id="Path" fill="#FFFFFF" fill-rule="nonzero"></path>
                <path d="M262.379553,47.2237616 L263.510164,50.3299069 L264.640775,53.4360521 L263.982116,56.733743 L263.276781,60.0521415 C263.233588,60.2335485 263.062747,60.355187 262.87685,60.3368923 C262.690953,60.3185976 262.547199,60.1659988 262.540328,59.9796648 L262.457347,53.6017132 L262.379553,47.2237616 Z" id="Path" fill="url(#linearGradient-11)" fill-rule="nonzero" style="mix-blend-mode: multiply;"></path>
                <path d="M257.98158,63.5103166 L259.625633,68.8528864 L261.269687,74.1902793 L260.159821,76.4888268 L259.049955,78.7821974 L257.597794,77.4103166 L256.15082,76.0332588 C255.997174,75.8899096 255.822227,75.7711608 255.632191,75.6812291 C255.44274,75.5908267 255.239334,75.5330658 255.030581,75.5103911 L254.283756,75.4223836 L253.53693,75.3395531" id="Path" fill="url(#linearGradient-12)" fill-rule="nonzero" style="mix-blend-mode: multiply;"></path>
                <path d="M269.515887,54.9839479 L267.441371,54.3057728 L265.366855,53.6275978 C265.16101,53.5623248 264.972929,53.4507427 264.817109,53.3014525 C264.665431,53.1557582 264.546924,52.9792014 264.469627,52.7837616 L263.43237,50.0089385 L262.395112,47.2341155 C262.25967,46.8720833 261.982604,46.5805683 261.627541,46.4265177 L260.17538,45.7949348 L258.718033,45.163352 C258.434352,45.0376149 258.116672,45.0102782 257.815618,45.0856983 C257.515848,45.1592647 257.248228,45.3282688 257.053234,45.5671508 L255.824083,47.0632775 L254.600119,48.5542272 C254.376348,48.8317174 254.263625,49.182186 254.283756,49.5378399 L254.54307,53.9951583 L254.807571,58.4524767 C254.813713,58.5778726 254.838174,58.7017002 254.880179,58.8200372 C254.917424,58.9402188 254.973433,59.0537816 255.04614,59.1565363 L256.316781,61.0668156 L257.592608,62.9719181 C257.804159,63.2922164 257.878837,63.68357 257.80006,64.0590689 L256.679821,69.2359777 L255.559583,74.4128864 C255.466947,74.8493513 255.172574,75.2161718 254.76608,75.401676 L251.535022,76.8408566 L248.309151,78.3318063 C248.058258,78.4478996 247.77913,78.4892438 247.505276,78.4508752 C247.230971,78.4100341 246.974812,78.289389 246.768823,78.1040223 L244.549091,75.9970205 L242.324173,73.8900186 L244.139374,72.56473 L245.954575,71.2394413 C246.277176,70.9882091 246.477149,70.6115854 246.504322,70.2040596 C246.526665,69.7897245 246.365471,69.3865209 246.063487,69.101378 L245.181818,68.2678957 L244.305335,67.4395903 C244.096218,67.2421809 243.832338,67.1122837 243.548137,67.0668529 C243.263638,67.0201536 242.97163,67.063604 242.713145,67.1910987 L240.991297,68.0142272 L239.269449,68.8373557 L238.532996,67.7657356 L237.796542,66.6992924 L240.337824,65.358473 L242.87392,64.0228305 C242.98251,63.9711614 243.097679,63.934583 243.216215,63.9141155 C243.334993,63.8986068 243.45529,63.8986068 243.574069,63.9141155 L245.518927,64.053892 L247.458599,64.1988454 C248.046025,64.2485384 248.601717,63.9256608 248.848525,63.3912477 L249.460507,62.122905 L250.051744,60.87527 C250.097731,60.781284 250.132543,60.6822493 250.155469,60.5801862 C250.178078,60.4763922 250.19024,60.3706029 250.191773,60.2643948 L250.191773,51.7690875 C250.191101,51.5120763 250.121243,51.2599688 249.989508,51.0391434 C249.856485,50.8219975 249.668714,50.6434908 249.444948,50.5214525 L246.426528,48.9010801 L243.413294,47.2807076 C243.184837,47.1613874 242.993058,46.9824789 242.858361,46.7630168 C242.724289,46.5360628 242.65773,46.275694 242.666468,46.012365 L242.73389,43.2427188 L242.801311,40.4730726 C242.821244,39.7321666 242.264387,39.1017508 241.525484,39.0287151 L240.488227,38.9251769 L239.4769,38.8268156 C239.302982,38.8062056 239.126695,38.820283 238.958271,38.8682309 C238.792482,38.9147289 238.636222,38.9900886 238.496692,39.090838 L235.047809,41.5964618 L231.598927,44.0969088 C231.289704,44.3228062 230.902191,44.4144744 230.524296,44.3511184 C230.1464,44.2877623 229.810154,44.0747524 229.591833,43.7604097 L228.49234,42.1710987 L227.392846,40.5869646 C227.247069,40.3726972 227.166058,40.1211212 227.159463,39.8621974 C227.137056,39.6199664 227.176302,39.37601 227.273562,39.1529609 L228.559762,36.2642458 L229.845961,33.3755307 C229.911995,33.2308347 230.001347,33.0979237 230.110462,32.9820857 C230.217279,32.866092 230.343669,32.7697191 230.483875,32.6973557 L238.781937,28.3228678 L247.08,23.943203 C247.255721,23.8523434 247.447983,23.7977623 247.645306,23.7827188 C247.844212,23.7715824 248.043366,23.7997301 248.231356,23.8655493 L250.964531,24.8595158 L253.692519,25.8483054 C253.909758,25.9270569 254.142917,25.9519295 254.371923,25.9207821 L256.015976,25.698175 L257.654844,25.475568 C257.852728,25.4502296 258.053681,25.4643061 258.24608,25.5169832 C258.436398,25.5735244 258.612963,25.6686972 258.764709,25.7965363 L262.69073,29.1097579 L266.616751,32.4178026 C266.737735,32.5192634 266.84112,32.6399529 266.922742,32.7750093 C267.001873,32.9103064 267.059602,33.0569876 267.09389,33.2098696 L268.411207,39.3445065 L269.718152,45.4791434 L270.532399,49.4032402 L271.346647,53.3221601 C271.452844,53.8173095 271.284521,54.3312475 270.905812,54.6681564 C270.532206,55.0135577 270.00245,55.1339182 269.515887,54.9839479 L269.515887,54.9839479 Z" id="Path" fill="#023852" fill-rule="nonzero"></path>
                <path d="M291.936215,74.5785475 L291.054545,73.7502421 L290.178063,72.9167598 C290.128124,72.869283 290.07435,72.8259956 290.017288,72.7873371 L289.84614,72.6837989 L289.02152,73.2894972 L288.1969,73.8900186 L289.835768,75.4430912 L291.469449,76.9961639 L291.645782,76.8667412 L291.827303,76.7373184 C292.149904,76.4860862 292.349876,76.1094625 292.377049,75.7019367 C292.404918,75.2806465 292.243328,74.8688609 291.936215,74.5785475 L291.936215,74.5785475 Z" id="Path" fill="#023852" fill-rule="nonzero"></path>
                <path d="M228.435291,42.0468529 L229.140626,40.4678957 L229.840775,38.9148231 C229.906808,38.7701271 229.99616,38.6372161 230.105276,38.521378 C230.212093,38.4053844 230.338482,38.3090114 230.478689,38.236648 L238.776751,33.8621601 L247.074814,29.4876723 C247.249574,29.3944176 247.442351,29.3396904 247.640119,29.3271881 C247.838763,29.3117759 248.038434,29.3382329 248.22617,29.4048417 L250.959344,30.3988082 L253.687332,31.3927747 C253.79706,31.4289894 253.909911,31.4549849 254.024441,31.4704283 C254.13817,31.4833857 254.253007,31.4833857 254.366736,31.4704283 L256.01079,31.2426443 L257.649657,31.0200372 C257.859311,30.9868844 258.073742,31.001036 258.277198,31.0614525 C258.468098,31.1139458 258.645136,31.2076063 258.795827,31.3358287 L262.721848,34.6490503 L266.647869,37.957095 C266.768852,38.0585557 266.872238,38.1792452 266.95386,38.3143017 C267.032128,38.4500146 267.089804,38.5965615 267.125007,38.749162 L268.426766,44.8837989 L269.733711,51.0236127 L270.138241,52.9856611 L270.547958,54.9477095 C270.835725,54.8168295 271.073855,54.5972755 271.227362,54.3213035 C271.382944,54.0294338 271.43068,53.6922249 271.362206,53.3687523 L270.547958,49.4446555 L269.733711,45.5205587 L268.411207,39.3445065 L267.09389,33.2254004 C267.059602,33.0725183 267.001873,32.9258371 266.922742,32.79054 C266.84112,32.6554836 266.737735,32.5347941 266.616751,32.4333333 L262.69073,29.1252886 L258.764709,25.812067 C258.612963,25.6842279 258.436398,25.5890551 258.24608,25.532514 C258.053681,25.4798368 257.852728,25.4657603 257.654844,25.4910987 L256.015976,25.7137058 L254.371923,25.9363128 C254.142917,25.9674603 253.909758,25.9425876 253.692519,25.8638361 L250.964531,24.8750466 L248.231356,23.8810801 C248.043366,23.8152608 247.844212,23.7871131 247.645306,23.7982495 C247.447983,23.813293 247.255721,23.8678741 247.08,23.9587337 L238.781937,28.3383985 L230.483875,32.7128864 C230.343669,32.7852498 230.217279,32.8816227 230.110462,32.9976164 C230.001347,33.1134544 229.911995,33.2463654 229.845961,33.3910615 L228.559762,36.2797765 L227.273562,39.1684916 C227.178874,39.3868181 227.139681,39.6251112 227.159463,39.8621974 C227.180175,40.104823 227.266188,40.3373524 227.408405,40.5351955 L227.927034,41.2806704 L228.435291,42.0468529 Z" id="Path" fill="#1B4C63" fill-rule="nonzero"></path>
                <path d="M255.030581,59.1461825 C254.957874,59.0434278 254.901865,58.929865 254.86462,58.8096834 C254.822615,58.6913464 254.798154,58.5675188 254.792012,58.4421229 L254.558629,54.5076723 L254.325246,50.5680447 L249.507183,50.5680447 C249.708159,50.6983934 249.873826,50.8762077 249.989508,51.0857356 C250.10747,51.2924358 250.169993,51.5260268 250.171028,51.7639106 L250.171028,60.254041 C250.169495,60.3602491 250.157333,60.4660384 250.134724,60.5698324 C250.111798,60.6718955 250.076986,60.7709301 250.030999,60.8649162 L249.460507,62.122905 L248.864083,63.3757169 C248.617276,63.9101301 248.061584,64.2330077 247.474158,64.1833147 L245.534486,64.0383613 L243.589627,63.8985847 C243.470849,63.8830761 243.350552,63.8830761 243.231773,63.8985847 C243.113237,63.9190523 242.998069,63.9556306 242.889478,64.0072998 L240.353383,65.3429423 L237.812101,66.6837616 L238.548554,67.7502048 L239.285007,68.821825 L241.006855,67.9986965 L242.728703,67.175568 C242.987189,67.0480732 243.279197,67.0046229 243.563696,67.0513222 C243.847897,67.096753 244.111777,67.2266502 244.320894,67.4240596 L245.197377,68.252365 L246.079046,69.0858473 C246.38103,69.3709902 246.542224,69.7741938 246.519881,70.1885289 C246.492707,70.5960547 246.292735,70.9726783 245.970134,71.2239106 L244.154933,72.5491993 L242.339732,73.8744879 L244.56465,75.9814898 L246.784382,78.0884916 C246.990371,78.2738583 247.24653,78.3945034 247.520835,78.4353445 C247.794689,78.4737131 248.073817,78.4323689 248.324709,78.3162756 L251.550581,76.8253259 L254.771267,75.3343762 C255.177761,75.148872 255.472134,74.7820515 255.564769,74.3455866 L256.685007,69.1686778 L257.805246,63.9917691 C257.884024,63.6162701 257.809345,63.2249166 257.597794,62.9046182 L256.321967,60.9995158 L255.030581,59.1461825 Z" id="Path" fill="#06233C" fill-rule="nonzero"></path>
                <path d="M282.875768,65.2290503 L279.333532,61.7656983 L275.796483,58.3023464 C275.181301,57.7018409 274.340928,57.3881628 273.481959,57.4384251 C272.62299,57.4886874 271.82509,57.8982284 271.284411,58.5663687 L265.325365,65.9382868 L259.371505,73.3102048 C259.211424,73.5109924 259.075641,73.7299369 258.966975,73.9624953 C258.862248,74.1941447 258.785639,74.43746 258.738778,74.6872626 L257.84155,79.714041 L256.944322,84.7408194 L258.878808,85.5121788 L260.813294,86.2835382 L271.844531,75.7537058 L282.875768,65.2290503 Z" id="Path" fill="#FFFFFF" fill-rule="nonzero"></path>
                <path d="M284.374605,65.2290503 L281.605127,65.301527 L278.835648,65.3740037 C278.205658,65.3869517 277.613514,65.6768048 277.217526,66.1660708 L269.515887,75.5828678 L261.814247,85.0203724 C261.52403,85.3756612 261.12804,85.6295063 260.683636,85.7451397 C260.238047,85.8606593 259.767027,85.8297989 259.340387,85.6571322 L258.142355,85.1808566 L256.944322,84.704581 L255.533651,91.5484544 L254.128167,98.4026816 C254.101288,98.5391181 254.087396,98.6777864 254.086677,98.8168343 C254.086105,98.9557012 254.098257,99.0943293 254.122981,99.230987 L255.844829,108.451061 L257.56149,117.671136 C257.615279,117.939401 257.615279,118.215646 257.56149,118.483911 C257.509139,118.754764 257.405268,119.013092 257.255499,119.244916 L254.646796,123.210428 L252.053651,127.191471 C251.88982,127.437937 251.678209,127.649165 251.431297,127.8127 C251.185844,127.976287 250.908248,128.085713 250.617049,128.133669 L240.628256,129.888641 L230.639463,131.643613 L227.735142,139.952551 L224.83082,148.235605 L241.162444,149.188156 L257.551118,150.130354 C258.555446,150.185881 259.388076,150.926806 259.558212,151.916387 L259.81234,153.391806 L260.066468,154.867225 C260.173117,155.47805 260.537732,156.013612 261.067422,156.337467 L280.45377,168.213296 L299.845306,180.089125 C299.992198,180.17756 300.148823,180.248782 300.312072,180.301378 C300.480046,180.356077 300.654333,180.389132 300.8307,180.399739 L310.077854,181.067561 L319.319821,181.709497 C319.939897,181.753884 320.549018,181.529124 320.99108,181.092819 C321.433143,180.656515 321.665178,180.051074 321.62772,179.431657 L319.682861,146.568641 L317.732817,113.700447 C317.726923,113.571143 317.707807,113.44278 317.675768,113.317356 C317.644451,113.191634 317.60282,113.068699 317.551297,112.949795 L310.290492,96.7408939 L303.029687,80.5268156 C302.965642,80.3793677 302.883783,80.2402857 302.785931,80.1126629 C302.687542,79.9859531 302.576311,79.8697195 302.454009,79.7658101 L294.155946,72.7510987 L285.857884,65.7363873 C285.454747,65.3902899 284.937296,65.2058202 284.405723,65.2180651 L284.374605,65.2290503 Z" id="Path" fill="#023852" fill-rule="nonzero"></path>
                <path d="M318.495201,179.364358 L307.365425,169.01054 L296.230462,158.656723 L294.415261,130.623762 L292.594873,102.590801 C292.336397,101.812618 291.564636,101.323793 290.749197,101.421771 C289.933759,101.519748 289.300252,102.177419 289.234158,102.9946 L287.885723,118.768641 L286.537288,134.599628 C285.987969,141.167203 281.015793,146.510854 274.494724,147.541899 L266.6738,148.784358 L258.852876,150.021639 C258.718557,150.044163 258.587782,150.084195 258.463905,150.140708 C258.344026,150.199731 258.229499,150.269016 258.12161,150.347784 C258.485462,150.471099 258.810804,150.687007 259.065514,150.97419 C259.330481,151.265148 259.509935,151.623407 259.584143,152.009572 L259.838271,153.484991 L260.092399,154.96041 C260.132585,155.17837 260.204209,155.389366 260.305037,155.586816 C260.411532,155.776924 260.54421,155.951184 260.699195,156.104507 L262.913741,157.497095 L265.128286,158.889683 L282.497168,169.528231 L299.845306,180.156425 C299.992198,180.24486 300.148823,180.316082 300.312072,180.368678 C300.480046,180.423377 300.654333,180.456432 300.8307,180.467039 L308.864262,181.046853 L316.90301,181.626667 C317.449679,181.613706 317.958551,181.345354 318.277377,180.901899 C318.59508,180.454813 318.676252,179.881848 318.495201,179.364358 L318.495201,179.364358 Z" id="Path" fill="url(#linearGradient-13)" fill-rule="nonzero" style="mix-blend-mode: multiply;"></path>
                <path d="M138.925127,71.2653259 L132.182951,59.9278957 L129.138599,57.4636872 L123.324769,54.3886034 L122.230462,54.3471881 L127.032966,62.863203 L131.010849,65.8192179 L129.875052,69.9607449 L126.571386,69.3705773 L115.16155,52.9960149 L116.499613,49.7035009 L114.357675,50.9977281 L110.540566,46.5145251 L114.388793,40.8199255 L118.537824,43.1805959 L119.108316,40.1728119 L111.31851,38.3091248 L112.620268,35.2029795 L123.9938,36.538622 L123.890075,43.1236499 L131.757675,47.1875233 L137.265514,47.089162 L137.343308,47.089162 L161.329896,52.4990317 L166.713264,51.5361266 L166.765127,52.2660708 C166.972578,55.2427933 166.925902,55.429162 166.894784,55.543054 C166.796244,55.941676 166.75994,56.0918063 161.983368,57.7691248 L161.853711,57.8157169 L139.80161,55.9727374 L142.353264,63.6966853 L152.995529,59.7725885 L159.613234,63.541378 L160.7231,68.3300186 L152.819195,66.4663315 L138.925127,71.2653259 Z M119.901818,52.9442458 L123.656692,53.0995531 L129.880238,56.4075978 L133.20465,59.0529981 L139.511177,69.670838 L152.751773,65.0996276 L158.97532,66.5646927 L158.456692,64.4007449 L152.871058,61.2221229 L141.518271,65.4309497 L137.955291,54.523203 L161.708495,56.505959 C163.264382,55.9520298 164.975857,55.3204469 165.629329,55.03054 C165.629329,54.6215642 165.57228,53.8864432 165.525604,53.1150838 L161.324709,53.8657356 L137.156602,48.4144507 L131.451684,48.5179888 L122.567571,43.9260708 L122.66611,37.7137803 L113.455261,36.6318063 L113.144083,37.3721043 L120.664203,39.1529609 L119.518033,45.2047672 L114.808882,42.5334823 L112.215738,46.3954562 L114.65848,49.2686406 L116.888584,47.9226443 L118.402981,48.5542272 L116.655201,52.8044693 L127.344143,68.1540037 L128.90003,68.4439106 L129.475708,66.3420857 L125.995708,63.7536313 L125.928286,63.6293855 L119.901818,52.9442458 Z" id="Shape" fill="#FFFFFF" fill-rule="nonzero"></path>
                <path d="M98.2853651,83.5863687 L94.7068256,80.0143017 C95.4902666,78.9991978 95.9167888,77.7546954 95.9204173,76.4732961 C95.9204173,73.2196087 93.2780032,70.5819739 90.0184203,70.5819739 C86.7588373,70.5819739 84.1164232,73.2196087 84.1164232,76.4732961 C84.1164232,79.7269835 86.7588373,82.3646182 90.0184203,82.3646182 C91.1407631,82.363917 92.2391292,82.0403951 93.1820566,81.4327747 L96.812459,85.0566108 L98.2853651,83.5863687 Z M90.0184203,80.2886778 C87.907425,80.2886778 86.1961252,78.5804732 86.1961252,76.4732961 C86.1961252,74.3661189 87.907425,72.6579143 90.0184203,72.6579143 C92.1294156,72.6579143 93.8407154,74.3661189 93.8407154,76.4732961 C93.8407154,78.5804732 92.1294156,80.2886778 90.0184203,80.2886778 Z" id="Shape" fill="#023852" fill-rule="nonzero"></path>
                <polygon id="Path" fill="#023852" fill-rule="nonzero" opacity="0.8" points="173.517675 83.7830912 128.469568 83.7830912 127.619016 80.2162011 172.667124 80.2162011"></polygon>
                <g id="Lozenge" transform="translate(116.691505, 77.135940)" fill="#FFFFFF" fill-rule="nonzero">
                    <path d="M14.1637556,2.47456238 C13.9971775,1.98232811 13.7204962,1.53441945 13.3546945,1.16480447 C12.9263238,0.813989575 12.3940808,0.61384973 11.8402981,0.595344507 C9.84357675,0.450391061 6.88739195,0.434860335 6.88739195,0.434860335 L6.88739195,0.434860335 C6.88739195,0.434860335 3.93120715,0.434860335 1.98634873,0.53839851 C1.49196682,0.525476132 1.01588685,0.725369789 0.679403875,1.08715084 C0.449660672,1.48021122 0.341401921,1.93227453 0.368226528,2.38655493 C0.415946395,3.10021996 0.504255663,3.81060157 0.632727273,4.51426443 L0.819433681,5.51340782 C0.962387787,6.23192648 1.14417346,6.94220056 1.36399404,7.64111732 C1.53057212,8.13335159 1.80725339,8.58126025 2.17305514,8.95087523 C2.65530403,9.3055594 3.23397242,9.50592195 3.83266766,9.5255121 C4.97883756,9.63422719 8.64554396,9.68599628 8.64554396,9.68599628 C8.64554396,9.68599628 11.6069151,9.68599628 13.5517735,9.57728119 C14.04462,9.59005679 14.5190472,9.39006348 14.853532,9.02852886 C15.0839344,8.63556183 15.1939209,8.18381298 15.1698957,7.72912477 C15.1218666,7.0154892 15.0335595,6.305125 14.9053949,5.60141527 L14.7135022,4.60227188 C14.5688433,3.88365468 14.3853261,3.17337938 14.1637556,2.47456238 Z M6.63326379,6.75586592 L5.93311475,3.05955307 L10.0821461,4.93877095 L6.63326379,6.75586592 Z" id="Shape"></path>
                </g>
                <path d="M72.8569896,47.4515456 L72.8569896,47.4515456 C72.4801133,47.4392294 72.1617319,47.1686652 72.0894188,46.7992551 L71.6797019,44.3246927 C71.6350114,44.1614801 71.6730439,43.9867675 71.7815589,43.856785 C71.8900739,43.7268026 72.0553754,43.6579557 72.2242623,43.6724022 L72.2242623,43.6724022 C72.6006616,43.6832514 72.9183389,43.9550537 72.9866468,44.3246927 L73.3963636,46.7992551 C73.4406471,46.9615255 73.4032005,47.135156 73.2959469,47.2648629 C73.1886933,47.3945697 73.0250011,47.4641858 72.8569896,47.4515456 Z" id="Path" fill="#FFFFFF" fill-rule="nonzero"></path>
                <path d="M76.05693,50.9718436 L76.05693,50.9718436 C75.6812813,50.9590629 75.3646508,50.6881562 75.2945455,50.3195531 L73.7127273,40.7992179 C73.6680368,40.6360052 73.7060693,40.4612926 73.8145843,40.3313102 C73.9230993,40.2013277 74.0884008,40.1324808 74.2572876,40.1469274 L74.2572876,40.1469274 C74.6329363,40.159708 74.9495668,40.4306147 75.0196721,40.7992179 L76.5755589,50.3195531 C76.6184421,50.4781373 76.5833845,50.6476256 76.4810861,50.7762884 C76.3787877,50.9049513 76.2213891,50.9775191 76.05693,50.9718436 Z" id="Path" fill="#FFFFFF" fill-rule="nonzero"></path>
                <path d="M78.5307899,50.1280074 L78.5307899,50.1280074 C78.1551412,50.1152268 77.8385107,49.8443201 77.7684054,49.4757169 L76.4666468,41.6482309 C76.4219563,41.4850183 76.4599888,41.3103057 76.5685038,41.1803232 C76.6770188,41.0503407 76.8423203,40.9814938 77.0112072,40.9959404 L77.0112072,40.9959404 C77.3876064,41.0067895 77.7052838,41.2785919 77.7735917,41.6482309 L79.0753502,49.4757169 C79.1200407,49.6389296 79.0820082,49.8136422 78.9734932,49.9436247 C78.8649782,50.0736071 78.6996767,50.142454 78.5307899,50.1280074 Z" id="Path" fill="#FFFFFF" fill-rule="nonzero"></path>
                <path d="M81.5907004,52.8044693 L81.5907004,52.8044693 C81.2157926,52.7897968 80.900181,52.5197618 80.8283159,52.1521788 L78.6345156,38.9407076 C78.5916325,38.7821234 78.62669,38.6126351 78.7289884,38.4839723 C78.8312868,38.3553094 78.9886854,38.2827416 79.1531446,38.2884171 L79.1531446,38.2884171 C79.5287932,38.3011978 79.8454237,38.5721045 79.9155291,38.9407076 L82.1093294,52.1521788 C82.1522125,52.310763 82.117155,52.4802513 82.0148566,52.6089141 C81.9125582,52.737577 81.7551596,52.8101448 81.5907004,52.8044693 Z" id="Path" fill="#FFFFFF" fill-rule="nonzero"></path>
                <path d="M84.6817288,55.6931844 L84.6817288,55.6931844 C84.3060801,55.6804037 83.9894496,55.409497 83.9193443,55.0408939 L80.7712668,36.0778771 C80.7283836,35.9192929 80.7634412,35.7498046 80.8657396,35.6211417 C80.968038,35.4924789 81.1254365,35.419911 81.2898957,35.4255866 L81.2898957,35.4255866 C81.6643246,35.4388242 81.979208,35.7100814 82.0470939,36.0778771 L85.2003577,55.0408939 C85.2432409,55.1994781 85.2081833,55.3689664 85.1058849,55.4976292 C85.0035865,55.6262921 84.8461879,55.6988599 84.6817288,55.6931844 L84.6817288,55.6931844 Z" id="Path" fill="#FFFFFF" fill-rule="nonzero"></path>
                <path d="M86.4191356,50.4179143 L86.4191356,50.4179143 C86.043487,50.4051337 85.7268564,50.134227 85.6567511,49.7656238 L84.2616393,41.358324 C84.2169488,41.1951114 84.2549813,41.0203988 84.3634963,40.8904163 C84.4720113,40.7604338 84.6373128,40.6915869 84.8061997,40.7060335 L84.8061997,40.7060335 C85.1813897,40.717326 85.4973283,40.9894922 85.5633979,41.358324 L86.963696,49.7656238 C87.0083865,49.9288365 86.970354,50.1035491 86.861839,50.2335315 C86.753324,50.363514 86.5880225,50.4323609 86.4191356,50.4179143 Z" id="Path" fill="#FFFFFF" fill-rule="nonzero"></path>
                <path d="M88.7840835,48.9269646 L88.7840835,48.9269646 C88.4084348,48.914184 88.0918043,48.6432772 88.021699,48.2746741 L87.1296572,42.8440968 C87.086774,42.6855126 87.1218316,42.5160243 87.22413,42.3873615 C87.3264284,42.2586986 87.483827,42.1861308 87.6482861,42.1918063 L87.6482861,42.1918063 C88.0231939,42.2064788 88.3388056,42.4765139 88.4106706,42.8440968 L89.3130849,48.2746741 C89.3566239,48.4350851 89.320363,48.6066083 89.2156045,48.7357818 C89.1108461,48.8649552 88.9503285,48.9360716 88.7840835,48.9269646 Z" id="Path" fill="#FFFFFF" fill-rule="nonzero"></path>
                <path d="M92.1188674,53.2703911 L92.1188674,53.2703911 C91.7439596,53.2557186 91.4283479,52.9856835 91.3564829,52.6181006 L89.0122802,38.5058473 C88.9675897,38.3426347 89.0056222,38.1679221 89.1141372,38.0379396 C89.2226522,37.9079571 89.3879537,37.8391102 89.5568405,37.8535568 L89.5568405,37.8535568 C89.9324892,37.8663374 90.2491197,38.1372442 90.319225,38.5058473 L92.6634277,52.6181006 C92.7081182,52.7813132 92.6700857,52.9560258 92.5615707,53.0860083 C92.4530557,53.2159907 92.2877542,53.2848376 92.1188674,53.2703911 L92.1188674,53.2703911 Z" id="Path" fill="#FFFFFF" fill-rule="nonzero"></path>
                <path d="M95.0387481,55.1237244 L95.0387481,55.1237244 C94.6630995,55.1109437 94.346469,54.840037 94.2763636,54.4714339 L91.3149925,36.6473371 C91.270302,36.4841244 91.3083345,36.3094118 91.4168495,36.1794293 C91.5253645,36.0494469 91.690666,35.9806 91.8595529,35.9950466 L91.8595529,35.9950466 C92.2352016,36.0078272 92.5518321,36.2787339 92.6219374,36.6473371 L95.5833085,54.4714339 C95.627999,54.6346465 95.5899665,54.8093591 95.4814515,54.9393416 C95.3729365,55.0693241 95.207635,55.138171 95.0387481,55.1237244 Z" id="Path" fill="#FFFFFF" fill-rule="nonzero"></path>
                <path d="M97.9482563,56.8994041 L97.9482563,56.8994041 C97.5726077,56.8866234 97.2559772,56.6157167 97.1858718,56.2471136 L93.6332638,34.8716574 C93.5885733,34.7084447 93.6266058,34.5337321 93.7351208,34.4037496 C93.8436358,34.2737672 94.0089373,34.2049203 94.1778241,34.2193669 L94.1778241,34.2193669 C94.5534728,34.2321475 94.8701033,34.5030542 94.9402086,34.8716574 L98.4928167,56.2471136 C98.5375072,56.4103262 98.4994747,56.5850388 98.3909597,56.7150213 C98.2824447,56.8450038 98.1171432,56.9138507 97.9482563,56.8994041 Z" id="Path" fill="#FFFFFF" fill-rule="nonzero"></path>
                <path d="M110.467958,277.425363 L68.8531744,147.733445 C67.3428277,143.002637 62.9361806,139.793697 57.9619672,139.802421 L56.7328167,139.802421 C51.7796511,139.818461 47.4026017,143.022631 45.8986587,147.733445 L4.2890611,277.425363 L0.35266766,276.167374 L41.957079,146.506518 C44.0108285,140.0974 49.9657599,135.737512 56.7068852,135.707421 L57.8893592,135.707421 L57.9619672,135.707421 C64.7385874,135.688003 70.7430028,140.063152 72.7895678,146.511695 L114.399165,276.203613 L110.467958,277.425363 Z" id="Path" fill="#F1F4F5" fill-rule="nonzero"></path>
                <path d="M338.441669,16.0070019 C338.441669,15.9189944 338.498718,15.774041 338.34313,13.5065549 L338.301639,12.9422719 L334.199285,13.672216 L315.912429,9.53068901 L315.85538,9.53068901 L311.654486,9.60834264 L305.659136,6.50219739 L305.73693,1.48577281 L297.065455,0.450391061 L296.074873,2.80070764 L302.028733,4.20882682 L301.593085,6.5073743 L298.419076,4.70063315 L295.483636,9.0492365 L298.393145,12.4659963 L300.026826,11.4823836 L298.989568,13.9931844 L307.686975,26.4747114 L310.186766,26.9458101 L311.058063,23.7878957 L308.018897,21.5359404 L304.362563,15.0440968 L305.19237,15.0803352 L309.626647,17.420298 L311.981222,19.2943389 L317.120835,27.9553073 L327.711237,24.3314711 L333.742891,25.7499441 L332.897526,22.1002235 L327.84608,19.2270391 L319.734724,22.2348231 L317.78468,16.3486778 L334.598629,17.7516201 L338.441669,16.0070019 Z" id="Path" stroke="#023852"></path>
            </g>
        </g>
    </g>
</svg>