<?xml version="1.0" encoding="UTF-8"?>
<svg width="440px" height="330px" viewBox="0 0 440 330" version="1.1" xmlns="http://www.w3.org/2000/svg" xmlns:xlink="http://www.w3.org/1999/xlink">
    <title>Graphic elements / Icons / Rich icons / Marketplace / Practice-Intrusion-and-Alarm</title>
    <defs>
        <linearGradient x1="-0.0343280006%" y1="49.9717944%" x2="100.005394%" y2="49.9717944%" id="linearGradient-1">
            <stop stop-color="#FFFFFF" stop-opacity="0" offset="0%"></stop>
            <stop stop-color="#E9EDEF" stop-opacity="0.22" offset="7%"></stop>
            <stop stop-color="#C9D2D7" stop-opacity="0.55" offset="19%"></stop>
            <stop stop-color="#B1BEC6" stop-opacity="0.8" offset="29%"></stop>
            <stop stop-color="#A2B2BB" stop-opacity="0.94" offset="37%"></stop>
            <stop stop-color="#9DADB7" offset="41%"></stop>
        </linearGradient>
        <linearGradient x1="0.018572972%" y1="49.9079675%" x2="100.000776%" y2="49.9079675%" id="linearGradient-2">
            <stop stop-color="#FFFFFF" stop-opacity="0" offset="0%"></stop>
            <stop stop-color="#E9EDEF" stop-opacity="0.22" offset="7%"></stop>
            <stop stop-color="#C9D2D7" stop-opacity="0.55" offset="19%"></stop>
            <stop stop-color="#B1BEC6" stop-opacity="0.8" offset="29%"></stop>
            <stop stop-color="#A2B2BB" stop-opacity="0.94" offset="37%"></stop>
            <stop stop-color="#9DADB7" offset="41%"></stop>
        </linearGradient>
        <linearGradient x1="0%" y1="49.9305117%" x2="100.058188%" y2="49.9305117%" id="linearGradient-3">
            <stop stop-color="#FFFFFF" stop-opacity="0" offset="0%"></stop>
            <stop stop-color="#E9EDEF" stop-opacity="0.22" offset="7%"></stop>
            <stop stop-color="#C9D2D7" stop-opacity="0.55" offset="19%"></stop>
            <stop stop-color="#B1BEC6" stop-opacity="0.8" offset="29%"></stop>
            <stop stop-color="#A2B2BB" stop-opacity="0.94" offset="37%"></stop>
            <stop stop-color="#9DADB7" offset="41%"></stop>
        </linearGradient>
        <linearGradient x1="-0.113043787%" y1="50.0122923%" x2="99.9855795%" y2="50.0122923%" id="linearGradient-4">
            <stop stop-color="#FFFFFF" offset="0%"></stop>
            <stop stop-color="#0099DA" offset="100%"></stop>
        </linearGradient>
        <linearGradient x1="49.9813141%" y1="99.9929713%" x2="49.9813141%" y2="0.0138050286%" id="linearGradient-5">
            <stop stop-color="#FFFFFF" stop-opacity="0" offset="0%"></stop>
            <stop stop-color="#E9EDEF" stop-opacity="0.22" offset="7%"></stop>
            <stop stop-color="#C9D2D7" stop-opacity="0.55" offset="19%"></stop>
            <stop stop-color="#B1BEC6" stop-opacity="0.8" offset="29%"></stop>
            <stop stop-color="#A2B2BB" stop-opacity="0.94" offset="37%"></stop>
            <stop stop-color="#9DADB7" offset="41%"></stop>
        </linearGradient>
        <linearGradient x1="0.0140688008%" y1="50.0233843%" x2="99.990939%" y2="50.0233843%" id="linearGradient-6">
            <stop stop-color="#FFFFFF" offset="0%"></stop>
            <stop stop-color="#0099DA" offset="100%"></stop>
        </linearGradient>
        <linearGradient x1="-0.000141732227%" y1="50.0124487%" x2="100.016203%" y2="50.0124487%" id="linearGradient-7">
            <stop stop-color="#FFFFFF" stop-opacity="0" offset="0%"></stop>
            <stop stop-color="#FBFBFC" stop-opacity="0.04" offset="11%"></stop>
            <stop stop-color="#EFF2F3" stop-opacity="0.16" offset="28%"></stop>
            <stop stop-color="#DCE2E6" stop-opacity="0.35" offset="48%"></stop>
            <stop stop-color="#C2CCD2" stop-opacity="0.62" offset="71%"></stop>
            <stop stop-color="#A1B1BA" stop-opacity="0.96" offset="97%"></stop>
            <stop stop-color="#9DADB7" offset="100%"></stop>
        </linearGradient>
    </defs>
    <g id="Graphic-elements-/-Icons-/-Rich-icons-/-Marketplace-/-Practice-Intrusion-and-Alarm" stroke="none" stroke-width="1" fill="none" fill-rule="evenodd">
        <g id="intrusion-and-alarm" transform="translate(35.000000, 0.000000)">
            <g id="Midlayer" transform="translate(0.000000, 0.931141)" stroke="#023852">
                <path d="M8.01954687,167.701593 L8.01954687,275.479268 C8.01954687,275.765545 8.25188311,275.997618 8.53848438,275.997618 L172.867242,275.997618 C174.31229,275.997618 175.483733,274.827501 175.483733,273.384087 L175.483733,167.701593" id="Path"></path>
                <path d="M124.819734,95.3937504 L1.30824582,95.3937504 C1.0192028,95.3891878 0.740492133,95.5012044 0.535261444,95.7045629 C0.330030756,95.9079214 0.215652336,96.185408 0.218004295,96.4741525 L0.218004295,166.551639 C0.218004295,166.838876 0.333417042,167.114102 0.538387412,167.315565 C0.743357782,167.517027 1.02072158,167.627857 1.30824582,167.623328 L180.668748,167.623328 C182.113796,167.623328 183.285239,166.453069 183.285239,165.009655 L183.285239,108.644497" id="Path"></path>
                <line x1="67.1522579" y1="220.15081" x2="67.1522579" y2="265.260361" id="Path"></line>
                <line x1="116.333579" y1="265.260361" x2="116.333579" y2="220.15081" id="Path"></line>
                <line x1="116.460043" y1="260.586495" x2="175.557867" y2="260.586495" id="Path"></line>
                <line x1="7.92796967" y1="260.586495" x2="67.2002269" y2="260.586495" id="Path"></line>
                <path d="M81.4077765,221.35739 L102.07806,221.35739 C102.395971,221.35739 102.653689,221.614816 102.653689,221.932367 L102.653689,265.391037 C102.653689,265.530567 102.540449,265.643678 102.400761,265.643678 L81.0894367,265.643678 C80.9497487,265.643678 80.8365092,265.530567 80.8365092,265.391037 L80.8365092,221.932367 C80.8365092,221.61651 81.0915702,221.359783 81.4077765,221.35739 L81.4077765,221.35739 Z" id="Path"></path>
                <rect id="Rectangle" x="85.162442" y="226.192423" width="4.84923117" height="27.9038026" rx="0.58"></rect>
                <rect id="Rectangle" x="93.4741638" y="226.192423" width="4.84923117" height="27.9038026" rx="0.58"></rect>
                <rect id="Rectangle" x="60.7462142" y="265.630611" width="61.9934086" height="10.3713634"></rect>
                <path d="M97.7172411,95.2501487 L97.7172411,78.4059394 C97.7172411,78.0166192 97.5624091,77.6432446 97.2868063,77.3679537 C97.0112036,77.0926628 96.6374061,76.9379995 96.247645,76.9379995 L87.2425529,76.9379995 C86.8520367,76.9368485 86.4771179,77.0909941 86.2005713,77.3664106 C85.9240247,77.6418271 85.7685959,78.0158633 85.7685959,78.4059394 L85.7685959,95.2719281" id="Path"></path>
                <rect id="Rectangle" x="28.8162946" y="177.998906" width="17.5915455" height="27.9212262"></rect>
                <rect id="Rectangle" transform="translate(24.296305, 191.961697) rotate(180.000000) translate(-24.296305, -191.961697) " x="19.8984189" y="178.064244" width="8.79577273" height="27.7949055"></rect>
                <rect id="Rectangle" transform="translate(50.884221, 191.961697) rotate(180.000000) translate(-50.884221, -191.961697) " x="46.4863348" y="178.064244" width="8.79577273" height="27.7949055"></rect>
                <rect id="Rectangle" x="30.713251" y="180.224763" width="6.06589978" height="10.9681197"></rect>
                <rect id="Rectangle" x="38.4013756" y="180.224763" width="6.06589978" height="10.9681197"></rect>
                <rect id="Rectangle" x="30.713251" y="192.730511" width="6.06589978" height="10.9681197"></rect>
                <rect id="Rectangle" x="38.4013756" y="192.730511" width="6.06589978" height="10.9681197"></rect>
                <line x1="20.0336043" y1="180.852011" x2="28.5764495" y2="180.852011" id="Path"></line>
                <line x1="20.0336043" y1="183.073513" x2="28.5764495" y2="183.073513" id="Path"></line>
                <line x1="20.0336043" y1="185.295014" x2="28.5764495" y2="185.295014" id="Path"></line>
                <line x1="20.0336043" y1="187.516516" x2="28.5764495" y2="187.516516" id="Path"></line>
                <line x1="20.0336043" y1="189.738017" x2="28.5764495" y2="189.738017" id="Path"></line>
                <line x1="20.0336043" y1="191.959519" x2="28.5764495" y2="191.959519" id="Path"></line>
                <line x1="20.0336043" y1="194.185376" x2="28.5764495" y2="194.185376" id="Path"></line>
                <line x1="20.0336043" y1="196.406878" x2="28.5764495" y2="196.406878" id="Path"></line>
                <line x1="20.0336043" y1="198.62838" x2="28.5764495" y2="198.62838" id="Path"></line>
                <line x1="20.0336043" y1="200.849881" x2="28.5764495" y2="200.849881" id="Path"></line>
                <line x1="20.0336043" y1="203.071383" x2="28.5764495" y2="203.071383" id="Path"></line>
                <line x1="46.8177571" y1="180.852011" x2="55.3606023" y2="180.852011" id="Path"></line>
                <line x1="46.8177571" y1="183.073513" x2="55.3606023" y2="183.073513" id="Path"></line>
                <line x1="46.8177571" y1="185.295014" x2="55.3606023" y2="185.295014" id="Path"></line>
                <line x1="46.8177571" y1="187.516516" x2="55.3606023" y2="187.516516" id="Path"></line>
                <line x1="46.8177571" y1="189.738017" x2="55.3606023" y2="189.738017" id="Path"></line>
                <line x1="46.8177571" y1="191.959519" x2="55.3606023" y2="191.959519" id="Path"></line>
                <line x1="46.8177571" y1="194.185376" x2="55.3606023" y2="194.185376" id="Path"></line>
                <line x1="46.8177571" y1="196.406878" x2="55.3606023" y2="196.406878" id="Path"></line>
                <line x1="46.8177571" y1="198.62838" x2="55.3606023" y2="198.62838" id="Path"></line>
                <line x1="46.8177571" y1="200.849881" x2="55.3606023" y2="200.849881" id="Path"></line>
                <line x1="46.8177571" y1="203.071383" x2="55.3606023" y2="203.071383" id="Path"></line>
                <rect id="Rectangle" x="82.9297025" y="177.998906" width="17.5915455" height="27.9212262"></rect>
                <rect id="Rectangle" transform="translate(78.409713, 191.961697) rotate(180.000000) translate(-78.409713, -191.961697) " x="74.0118268" y="178.064244" width="8.79577273" height="27.7949055"></rect>
                <rect id="Rectangle" transform="translate(104.993268, 191.961697) rotate(180.000000) translate(-104.993268, -191.961697) " x="100.595382" y="178.064244" width="8.79577273" height="27.7949055"></rect>
                <rect id="Rectangle" x="84.8266589" y="180.224763" width="6.06589978" height="10.9681197"></rect>
                <rect id="Rectangle" x="92.5147835" y="180.224763" width="6.06589978" height="10.9681197"></rect>
                <rect id="Rectangle" x="84.8266589" y="192.730511" width="6.06589978" height="10.9681197"></rect>
                <rect id="Rectangle" x="92.5147835" y="192.730511" width="6.06589978" height="10.9681197"></rect>
                <line x1="74.1470122" y1="180.852011" x2="82.6898574" y2="180.852011" id="Path"></line>
                <line x1="74.1470122" y1="183.073513" x2="82.6898574" y2="183.073513" id="Path"></line>
                <line x1="74.1470122" y1="185.295014" x2="82.6898574" y2="185.295014" id="Path"></line>
                <line x1="74.1470122" y1="187.516516" x2="82.6898574" y2="187.516516" id="Path"></line>
                <line x1="74.1470122" y1="189.738017" x2="82.6898574" y2="189.738017" id="Path"></line>
                <line x1="74.1470122" y1="191.959519" x2="82.6898574" y2="191.959519" id="Path"></line>
                <line x1="74.1470122" y1="194.185376" x2="82.6898574" y2="194.185376" id="Path"></line>
                <line x1="74.1470122" y1="196.406878" x2="82.6898574" y2="196.406878" id="Path"></line>
                <line x1="74.1470122" y1="198.62838" x2="82.6898574" y2="198.62838" id="Path"></line>
                <line x1="74.1470122" y1="200.849881" x2="82.6898574" y2="200.849881" id="Path"></line>
                <line x1="74.1470122" y1="203.071383" x2="82.6898574" y2="203.071383" id="Path"></line>
                <line x1="100.931165" y1="180.852011" x2="109.47401" y2="180.852011" id="Path"></line>
                <line x1="100.931165" y1="183.073513" x2="109.47401" y2="183.073513" id="Path"></line>
                <line x1="100.931165" y1="185.295014" x2="109.47401" y2="185.295014" id="Path"></line>
                <line x1="100.931165" y1="187.516516" x2="109.47401" y2="187.516516" id="Path"></line>
                <line x1="100.931165" y1="189.738017" x2="109.47401" y2="189.738017" id="Path"></line>
                <line x1="100.931165" y1="191.959519" x2="109.47401" y2="191.959519" id="Path"></line>
                <line x1="100.931165" y1="194.185376" x2="109.47401" y2="194.185376" id="Path"></line>
                <line x1="100.931165" y1="196.406878" x2="109.47401" y2="196.406878" id="Path"></line>
                <line x1="100.931165" y1="198.62838" x2="109.47401" y2="198.62838" id="Path"></line>
                <line x1="100.931165" y1="200.849881" x2="109.47401" y2="200.849881" id="Path"></line>
                <line x1="100.931165" y1="203.071383" x2="109.47401" y2="203.071383" id="Path"></line>
                <rect id="Rectangle" x="137.04311" y="177.998906" width="17.5915455" height="27.9212262"></rect>
                <rect id="Rectangle" transform="translate(132.527482, 191.961697) rotate(180.000000) translate(-132.527482, -191.961697) " x="128.129596" y="178.064244" width="8.79577273" height="27.7949055"></rect>
                <rect id="Rectangle" transform="translate(159.106676, 191.961697) rotate(180.000000) translate(-159.106676, -191.961697) " x="154.70879" y="178.064244" width="8.79577273" height="27.7949055"></rect>
                <rect id="Rectangle" x="138.940067" y="180.224763" width="6.06589978" height="10.9681197"></rect>
                <rect id="Rectangle" x="146.628191" y="180.224763" width="6.06589978" height="10.9681197"></rect>
                <rect id="Rectangle" x="138.940067" y="192.730511" width="6.06589978" height="10.9681197"></rect>
                <rect id="Rectangle" x="146.628191" y="192.730511" width="6.06589978" height="10.9681197"></rect>
                <line x1="128.26042" y1="180.852011" x2="136.803265" y2="180.852011" id="Path"></line>
                <line x1="128.26042" y1="183.073513" x2="136.803265" y2="183.073513" id="Path"></line>
                <line x1="128.26042" y1="185.295014" x2="136.803265" y2="185.295014" id="Path"></line>
                <line x1="128.26042" y1="187.516516" x2="136.803265" y2="187.516516" id="Path"></line>
                <line x1="128.26042" y1="189.738017" x2="136.803265" y2="189.738017" id="Path"></line>
                <line x1="128.26042" y1="191.959519" x2="136.803265" y2="191.959519" id="Path"></line>
                <line x1="128.26042" y1="194.185376" x2="136.803265" y2="194.185376" id="Path"></line>
                <line x1="128.26042" y1="196.406878" x2="136.803265" y2="196.406878" id="Path"></line>
                <line x1="128.26042" y1="198.62838" x2="136.803265" y2="198.62838" id="Path"></line>
                <line x1="128.26042" y1="200.849881" x2="136.803265" y2="200.849881" id="Path"></line>
                <line x1="128.26042" y1="203.071383" x2="136.803265" y2="203.071383" id="Path"></line>
                <line x1="155.044573" y1="180.852011" x2="163.587418" y2="180.852011" id="Path"></line>
                <line x1="155.044573" y1="183.073513" x2="163.587418" y2="183.073513" id="Path"></line>
                <line x1="155.044573" y1="185.295014" x2="163.587418" y2="185.295014" id="Path"></line>
                <line x1="155.044573" y1="187.516516" x2="163.587418" y2="187.516516" id="Path"></line>
                <line x1="155.044573" y1="189.738017" x2="163.587418" y2="189.738017" id="Path"></line>
                <line x1="155.044573" y1="191.959519" x2="163.587418" y2="191.959519" id="Path"></line>
                <line x1="155.044573" y1="194.185376" x2="163.587418" y2="194.185376" id="Path"></line>
                <line x1="155.044573" y1="196.406878" x2="163.587418" y2="196.406878" id="Path"></line>
                <line x1="155.044573" y1="198.62838" x2="163.587418" y2="198.62838" id="Path"></line>
                <line x1="155.044573" y1="200.849881" x2="163.587418" y2="200.849881" id="Path"></line>
                <line x1="155.044573" y1="203.071383" x2="163.587418" y2="203.071383" id="Path"></line>
                <rect id="Rectangle" x="28.8162946" y="220.956649" width="17.5915455" height="27.9212262"></rect>
                <rect id="Rectangle" transform="translate(24.296305, 234.919440) rotate(180.000000) translate(-24.296305, -234.919440) " x="19.8984189" y="221.021987" width="8.79577273" height="27.7949055"></rect>
                <rect id="Rectangle" transform="translate(50.884221, 234.919440) rotate(180.000000) translate(-50.884221, -234.919440) " x="46.4863348" y="221.021987" width="8.79577273" height="27.7949055"></rect>
                <rect id="Rectangle" x="30.713251" y="223.178151" width="6.06589978" height="10.9681197"></rect>
                <rect id="Rectangle" x="38.4013756" y="223.178151" width="6.06589978" height="10.9681197"></rect>
                <rect id="Rectangle" x="30.713251" y="235.688254" width="6.06589978" height="10.9681197"></rect>
                <rect id="Rectangle" x="38.4013756" y="235.688254" width="6.06589978" height="10.9681197"></rect>
                <line x1="20.0336043" y1="223.805398" x2="28.5764495" y2="223.805398" id="Path"></line>
                <line x1="20.0336043" y1="226.0269" x2="28.5764495" y2="226.0269" id="Path"></line>
                <line x1="20.0336043" y1="228.248401" x2="28.5764495" y2="228.248401" id="Path"></line>
                <line x1="20.0336043" y1="230.469903" x2="28.5764495" y2="230.469903" id="Path"></line>
                <line x1="20.0336043" y1="232.69576" x2="28.5764495" y2="232.69576" id="Path"></line>
                <line x1="20.0336043" y1="234.917262" x2="28.5764495" y2="234.917262" id="Path"></line>
                <line x1="20.0336043" y1="237.138764" x2="28.5764495" y2="237.138764" id="Path"></line>
                <line x1="20.0336043" y1="239.360265" x2="28.5764495" y2="239.360265" id="Path"></line>
                <line x1="20.0336043" y1="241.581767" x2="28.5764495" y2="241.581767" id="Path"></line>
                <line x1="20.0336043" y1="243.803268" x2="28.5764495" y2="243.803268" id="Path"></line>
                <line x1="20.0336043" y1="246.029126" x2="28.5764495" y2="246.029126" id="Path"></line>
                <line x1="46.8177571" y1="223.805398" x2="55.3606023" y2="223.805398" id="Path"></line>
                <line x1="46.8177571" y1="226.0269" x2="55.3606023" y2="226.0269" id="Path"></line>
                <line x1="46.8177571" y1="228.248401" x2="55.3606023" y2="228.248401" id="Path"></line>
                <line x1="46.8177571" y1="230.469903" x2="55.3606023" y2="230.469903" id="Path"></line>
                <line x1="46.8177571" y1="232.69576" x2="55.3606023" y2="232.69576" id="Path"></line>
                <line x1="46.8177571" y1="234.917262" x2="55.3606023" y2="234.917262" id="Path"></line>
                <line x1="46.8177571" y1="237.138764" x2="55.3606023" y2="237.138764" id="Path"></line>
                <line x1="46.8177571" y1="239.360265" x2="55.3606023" y2="239.360265" id="Path"></line>
                <line x1="46.8177571" y1="241.581767" x2="55.3606023" y2="241.581767" id="Path"></line>
                <line x1="46.8177571" y1="243.803268" x2="55.3606023" y2="243.803268" id="Path"></line>
                <line x1="46.8177571" y1="246.029126" x2="55.3606023" y2="246.029126" id="Path"></line>
                <rect id="Rectangle" x="137.04311" y="220.956649" width="17.5915455" height="27.9212262"></rect>
                <rect id="Rectangle" transform="translate(132.527482, 234.919440) rotate(180.000000) translate(-132.527482, -234.919440) " x="128.129596" y="221.021987" width="8.79577273" height="27.7949055"></rect>
                <rect id="Rectangle" transform="translate(159.106676, 234.919440) rotate(180.000000) translate(-159.106676, -234.919440) " x="154.70879" y="221.021987" width="8.79577273" height="27.7949055"></rect>
                <rect id="Rectangle" x="138.940067" y="223.178151" width="6.06589978" height="10.9681197"></rect>
                <rect id="Rectangle" x="146.628191" y="223.178151" width="6.06589978" height="10.9681197"></rect>
                <rect id="Rectangle" x="138.940067" y="235.688254" width="6.06589978" height="10.9681197"></rect>
                <rect id="Rectangle" x="146.628191" y="235.688254" width="6.06589978" height="10.9681197"></rect>
                <line x1="128.26042" y1="223.805398" x2="136.803265" y2="223.805398" id="Path"></line>
                <line x1="128.26042" y1="226.0269" x2="136.803265" y2="226.0269" id="Path"></line>
                <line x1="128.26042" y1="228.248401" x2="136.803265" y2="228.248401" id="Path"></line>
                <line x1="128.26042" y1="230.469903" x2="136.803265" y2="230.469903" id="Path"></line>
                <line x1="128.26042" y1="232.69576" x2="136.803265" y2="232.69576" id="Path"></line>
                <line x1="128.26042" y1="234.917262" x2="136.803265" y2="234.917262" id="Path"></line>
                <line x1="128.26042" y1="237.138764" x2="136.803265" y2="237.138764" id="Path"></line>
                <line x1="128.26042" y1="239.360265" x2="136.803265" y2="239.360265" id="Path"></line>
                <line x1="128.26042" y1="241.581767" x2="136.803265" y2="241.581767" id="Path"></line>
                <line x1="128.26042" y1="243.803268" x2="136.803265" y2="243.803268" id="Path"></line>
                <line x1="128.26042" y1="246.029126" x2="136.803265" y2="246.029126" id="Path"></line>
                <line x1="155.044573" y1="223.805398" x2="163.587418" y2="223.805398" id="Path"></line>
                <line x1="155.044573" y1="226.0269" x2="163.587418" y2="226.0269" id="Path"></line>
                <line x1="155.044573" y1="228.248401" x2="163.587418" y2="228.248401" id="Path"></line>
                <line x1="155.044573" y1="230.469903" x2="163.587418" y2="230.469903" id="Path"></line>
                <line x1="155.044573" y1="232.69576" x2="163.587418" y2="232.69576" id="Path"></line>
                <line x1="155.044573" y1="234.917262" x2="163.587418" y2="234.917262" id="Path"></line>
                <line x1="155.044573" y1="237.138764" x2="163.587418" y2="237.138764" id="Path"></line>
                <line x1="155.044573" y1="239.360265" x2="163.587418" y2="239.360265" id="Path"></line>
                <line x1="155.044573" y1="241.581767" x2="163.587418" y2="241.581767" id="Path"></line>
                <line x1="155.044573" y1="243.803268" x2="163.587418" y2="243.803268" id="Path"></line>
                <line x1="155.044573" y1="246.029126" x2="163.587418" y2="246.029126" id="Path"></line>
                <path d="M120.432749,217.010217 L92.3316291,211.656833 C92.29434,211.648108 92.2555369,211.648108 92.2182478,211.656833 L64.1040452,217.010217 C63.9611238,217.037189 63.8571056,217.161141 63.8554785,217.306417 L63.8554785,220.61689 C63.8567076,220.706163 63.8970469,220.790413 63.9658502,220.847405 C64.0346536,220.904397 64.1250072,220.928404 64.2130656,220.91309 L92.2051654,215.581486 C92.2424545,215.572761 92.2812576,215.572761 92.3185467,215.581486 L120.306286,220.91309 C120.394588,220.930012 120.48584,220.906602 120.555051,220.849272 C120.624262,220.791943 120.663897,220.706701 120.663897,220.61689 L120.663897,217.306417 C120.665667,217.165841 120.569662,217.042805 120.432749,217.010217 L120.432749,217.010217 Z" id="Path"></path>
                <rect id="Rectangle" x="124.867703" y="37.7132568" width="98.7594769" height="70.9312398" rx="10.75"></rect>
                <rect id="Rectangle" x="137.583852" y="51.3123314" width="31.3760956" height="6.26811926" rx="1.83"></rect>
                <ellipse id="Oval" cx="140.719281" cy="69.4589505" rx="3.13978997" ry="3.13623757"></ellipse>
                <ellipse id="Oval" cx="140.719281" cy="79.904364" rx="3.13978997" ry="3.13623757"></ellipse>
                <ellipse id="Oval" cx="140.719281" cy="90.3541333" rx="3.13978997" ry="3.13623757"></ellipse>
                <ellipse id="Oval" cx="153.269719" cy="69.4589505" rx="3.13978997" ry="3.13623757"></ellipse>
                <ellipse id="Oval" cx="153.269719" cy="79.904364" rx="3.13978997" ry="3.13623757"></ellipse>
                <ellipse id="Oval" cx="153.269719" cy="90.3541333" rx="3.13978997" ry="3.13623757"></ellipse>
                <ellipse id="Oval" cx="165.820158" cy="69.4589505" rx="3.13978997" ry="3.13623757"></ellipse>
                <ellipse id="Oval" cx="165.820158" cy="79.904364" rx="3.13978997" ry="3.13623757"></ellipse>
                <ellipse id="Oval" cx="165.820158" cy="90.3541333" rx="3.13978997" ry="3.13623757"></ellipse>
                <ellipse id="Oval" cx="209.306249" cy="93.1985266" rx="7.76225853" ry="7.75347623"></ellipse>
                <rect id="Rectangle" x="173.948725" y="51.3123314" width="8.86118502" height="2.26506047" rx="1.13253024"></rect>
                <rect id="Rectangle" x="173.948725" y="55.3153902" width="8.86118502" height="2.26506047" rx="1.13253024"></rect>
                <line x1="182.879683" y1="155.400572" x2="210.549082" y2="155.400572" id="Path"></line>
                <line x1="36.9230579" y1="58.6824897" x2="123.978096" y2="58.6824897" id="Path"></line>
                <polyline id="Path" points="223.875746 60.4422675 259.385899 60.4422675 259.385899 46.3988926"></polyline>
                <ellipse id="Oval" stroke-width="0.97" cx="259.002147" cy="23.2125139" rx="23.0251264" ry="22.9990755"></ellipse>
                <ellipse id="Oval" stroke-width="0.97" cx="259.002147" cy="23.2125139" rx="20.3432225" ry="20.320206"></ellipse>
                <path d="M250.969517,37.1208765 C250.764726,37.1220564 250.563213,37.0694822 250.385167,36.9684004 C248.682635,35.99077 247.215021,34.6526785 246.085399,33.0481034 C245.709687,32.5140405 245.838546,31.7768663 246.373214,31.4015788 C246.907882,31.0262913 247.645891,31.1550042 248.021603,31.6890672 C248.951403,33.0068068 250.158481,34.1054765 251.558228,34.9080666 C252.027183,35.1724414 252.257916,35.720048 252.119359,36.239818 C251.980802,36.7595881 251.507995,37.1200736 250.969517,37.1165005 L250.969517,37.1208765 Z" id="Path" stroke-width="0.97"></path>
                <ellipse id="Oval" stroke-width="0.97" cx="259.002147" cy="23.2125139" rx="6.58919811" ry="6.58174302"></ellipse>
                <path d="M221.699697,133.838939 L226.736444,133.838939 C232.856224,133.838939 237.817286,138.794387 237.817286,144.907244 L237.817286,170.066838 L210.627577,170.066838 L210.627577,144.907244 C210.627577,138.797788 215.583324,133.843747 221.699697,133.838939 L221.699697,133.838939 Z" id="Path"></path>
                <line x1="210.727876" y1="155.753399" x2="237.529472" y2="155.753399" id="Path"></line>
                <path d="M210.627577,150.783333 C210.824226,151.208254 211.292239,151.437202 211.748875,151.331863 C212.20551,151.226524 212.525619,150.815767 212.515812,150.347745 L212.515812,144.301776 C212.517086,144.034187 212.409727,143.777508 212.218254,143.590355 C212.02678,143.403202 211.767542,143.301558 211.499741,143.308634 C211.405321,143.31216 211.311645,143.326781 211.220648,143.352192" id="Path"></path>
                <rect id="Rectangle" x="216.841745" y="143.31299" width="1.97981201" height="8.04096467" rx="0.989906004"></rect>
                <rect id="Rectangle" x="223.156211" y="143.31299" width="1.97981201" height="8.04096467" rx="0.989906004"></rect>
                <rect id="Rectangle" x="229.475038" y="143.31299" width="1.97981201" height="8.04096467" rx="0.989906004"></rect>
                <path d="M237.228575,143.421887 C236.924431,143.265461 236.560678,143.278559 236.268599,143.456454 C235.97652,143.63435 235.798287,143.951356 235.798227,144.293064 L235.798227,150.360812 C235.832882,150.882645 236.266741,151.288218 236.790313,151.288218 C237.313885,151.288218 237.747744,150.882645 237.782399,150.360812" id="Path"></path>
                <path d="M219.070123,127.30511 C220.36602,126.009792 222.133349,125.296244 223.966371,125.32828 C225.799394,125.360315 227.540651,126.135182 228.79039,127.47499" id="Path"></path>
                <path d="M230.351563,126.050615 C228.711928,124.286822 226.424443,123.265269 224.015201,123.220901 C221.605959,123.176534 219.282331,124.113171 217.578723,125.815397" id="Path"></path>
                <path d="M220.709791,128.934211 C221.558288,128.084337 222.715452,127.614335 223.91694,127.631573 C225.118428,127.648812 226.2616,128.151818 227.085309,129.025685" id="Path"></path>
                <path d="M228.79039,127.47499 C227.540651,126.135182 225.799394,125.360315 223.966371,125.32828 C222.133349,125.296244 220.36602,126.009792 219.070123,127.30511" id="Path"></path>
                <path d="M227.085309,129.034397 C226.2616,128.16053 225.118428,127.657524 223.91694,127.640285 C222.715452,127.623047 221.558288,128.093048 220.709791,128.942923" id="Path"></path>
                <path d="M20.4217172,21.2828567 C21.5236842,21.3832397 22.6106765,21.6082833 23.6618061,21.953663 L28.9645624,23.6960172 C31.6103354,24.5664261 33.4995495,26.9052419 33.7919895,29.6722922 L37.6251498,66.5187278 C38.2225059,72.2576042 34.261193,77.4755917 28.5677279,78.4494982 L28.3889343,78.4799894 C22.214445,79.5426733 15.9034774,79.5426733 9.72898808,78.4799894 L9.72898808,78.4799894 C4.03820724,77.4958152 0.0855637556,72.2734871 0.689009465,66.5361513 L4.52653054,29.6548686 C4.81135063,26.8954734 6.68830767,24.5587492 9.32343187,23.6829496 L14.4561163,21.9710866 C15.5457645,21.609272 16.674257,21.3768112 17.8183081,21.2785008" id="Path"></path>
                <rect id="Rectangle" x="17.8793595" y="12.7017622" width="2.55107935" height="15.332717" rx="1.27553967"></rect>
                <path d="M17.6962051,25.6997246 C17.4738033,25.7389275 17.2601232,25.7824864 17.0333606,25.834757 L15.6989498,26.1701602 C15.141998,26.3177473 14.7013683,26.7430425 14.5346111,27.2939787 L13.7671068,29.8116805 C13.6867954,30.078937 13.7627636,30.3686152 13.9639359,30.5622194 C14.1651082,30.7558237 14.4577396,30.8208784 14.7221263,30.7307723 C16.1533973,30.2565454 17.6492466,30.0053155 19.1570796,29.9859159 C20.6649127,30.0053155 22.1607619,30.2565454 23.5920329,30.7307723 C23.8564197,30.8208784 24.1490511,30.7558237 24.3502234,30.5622194 C24.5513957,30.3686152 24.6273638,30.078937 24.5470524,29.8116805 L23.7795482,27.2939787 C23.6127909,26.7430425 23.1721613,26.3177473 22.6152094,26.1701602 C22.2227357,26.0699748 21.6689116,25.9392983 21.1107267,25.8086217 C20.86216,25.7519952 20.6135933,25.7040805 20.3606658,25.6692334" id="Path"></path>
                <path d="M22.4843848,61.178423 L30.3338597,61.178423 C30.8853334,61.1802556 31.4115461,60.9476417 31.7810159,60.5386924 C32.1504857,60.1297431 32.3283125,59.5830879 32.2700636,59.0353165 L32.2700636,59.0353165 C31.951856,55.9760156 30.0965198,53.2889039 27.3466985,51.9047319 L27.3466985,51.9047319 C25.9248499,51.194032 24.4164083,50.6712873 22.8594153,50.3496807 C22.2860108,50.235468 21.6916165,50.3855901 21.2414728,50.7583134 C20.7913291,51.1310366 20.5334258,51.6866251 20.5393558,52.2706262 L20.5393558,59.2400431 C20.541864,60.311279 21.4119329,61.178423 22.4843848,61.178423 L22.4843848,61.178423 Z" id="Path"></path>
                <path d="M17.7747736,59.9936113 L17.7747736,51.3733138 C17.7737316,51.0254053 17.6208327,50.6952372 17.3560261,50.4692344 C17.0912194,50.2432316 16.7408684,50.1438941 16.3966809,50.1972247 C14.5382093,50.4865335 12.7360373,51.062576 11.0546772,51.9047319 L10.9849041,51.9439348 C8.25207277,53.3158815 6.40063227,55.9767753 6.06589978,59.013537 L5.96996176,59.8847141 L5.96996176,59.8847141 C5.93393332,60.2190295 6.0423474,60.552826 6.26799904,60.8023422 C6.49365068,61.0518584 6.81512177,61.1934112 7.15174381,61.1914798 L16.5711137,61.1914798 C16.8909912,61.1961989 17.1992143,61.0716537 17.4258367,60.8461079 C17.652459,60.6205622 17.7782632,60.3131418 17.7747736,59.9936113 Z" id="Path"></path>
                <path d="M31.0708382,63.9443988 L22.4233333,63.9443988 C21.3828985,63.9443988 20.5394557,64.7868843 20.5394557,65.826142 L20.5394557,72.7171529 C20.5384388,73.23613 20.7525379,73.7323775 21.1309102,74.0880411 C21.5092824,74.4437047 22.0181692,74.6270519 22.5367147,74.5945395 C24.2380329,74.4802817 25.9322948,74.278189 27.6127084,73.9890714 L27.7958628,73.9585803 C31.1213983,73.3893781 33.4348879,70.3412368 33.0855368,66.9891634 L32.9459906,65.6301271 C32.845465,64.6714147 32.0358862,63.9436182 31.0708382,63.9443988 Z" id="Path"></path>
                <path d="M15.8908259,63.9443991 L7.24332102,63.9443991 C6.27916687,63.9438368 5.47095808,64.6720953 5.3725295,65.6301271 L5.23298328,67.006587 C4.88610002,70.3594604 7.20092461,73.4068483 10.527018,73.9760038 C12.258852,74.2775523 14.0057221,74.4854855 15.7600013,74.5988954 C16.2770557,74.6336139 16.7856705,74.4545422 17.166651,74.103646 C17.5476315,73.7527497 17.7674891,73.2608731 17.7746999,72.7432882 L17.7746999,65.826142 C17.7746999,64.7868843 16.9312608,63.9443991 15.8908259,63.9443991 Z" id="Path"></path>
                <line x1="25.6721438" y1="66.6798955" x2="25.6721438" y2="71.2405077" id="Path" stroke-width="0.91" stroke-linecap="round"></line>
                <line x1="23.7446616" y1="67.6599698" x2="27.599626" y2="70.2647893" id="Path" stroke-width="0.91" stroke-linecap="round"></line>
                <line x1="23.7315792" y1="70.2647893" x2="27.6127084" y2="67.6599698" id="Path" stroke-width="0.91" stroke-linecap="round"></line>
                <rect id="Rectangle" stroke-width="0.91" x="11.2247491" y="55.8424524" width="4.12097433" height="3.33225242" rx="1.06"></rect>
                <path d="M12.2582633,55.7553347 L12.2582633,54.6315162 C12.2582633,54.0661792 12.7170786,53.6078831 13.2830559,53.6078831 L13.2830559,53.6078831 C13.8490332,53.6078831 14.3078484,54.0661792 14.3078484,54.6315162 L14.3078484,55.7553347" id="Path" stroke-width="0.81"></path>
                <rect id="Rectangle" stroke-width="0.91" x="23.4873733" y="55.8424524" width="4.12097433" height="3.33225242" rx="1.06"></rect>
                <path d="M24.7345676,54.9320723 L25.1924537,53.9040833 C25.3021715,53.6556448 25.5065967,53.461205 25.7603851,53.3638933 C26.0141734,53.2665815 26.296344,53.2744427 26.5443077,53.3857329 L26.5443077,53.3857329 C26.7930276,53.4953266 26.9876876,53.6995205 27.0851096,53.9530218 C27.1825316,54.206523 27.1746615,54.4883744 27.0632452,54.7360574 L26.6009983,55.7553347" id="Path" stroke-width="0.81"></path>
                <polygon id="Path" stroke-width="0.87" stroke-linecap="round" points="9.83364774 68.452741 12.2102943 66.396763 14.5869409 68.452741 14.5869409 70.9399516 9.84236938 70.9399516"></polygon>
            </g>
            <g id="Ilus" transform="translate(177.462236, 65.734766)" fill-rule="nonzero">
                <path d="M105.070109,248.760924 L103.097945,257.61835 C103.006929,258.027458 103.103021,258.455755 103.360171,258.787131 C103.61732,259.118506 104.008887,259.318631 104.428719,259.333252 L142.938282,260.639015 C143.323976,260.659294 143.701111,260.520779 143.981539,260.255846 C144.261966,259.990913 144.421108,259.622782 144.421769,259.237496 L144.421769,259.237496 C144.420358,258.57979 143.964714,258.009822 143.322243,257.862092 L135.525213,256.081902 C135.416372,256.058789 135.310842,256.022236 135.211063,255.973088 L124.831021,250.867555 C124.513801,250.712873 124.267369,250.443704 124.141636,250.114565 L123.526426,248.552002 C123.314476,248.014613 122.79635,247.659702 122.217467,247.655296 L106.461968,247.655296 C105.793995,247.648256 105.212773,248.109917 105.070109,248.760924 L105.070109,248.760924 Z" id="Path" fill="#2A586E"></path>
                <path d="M89.8512835,119.921281 L86.4218119,125.396781 C85.9983977,126.070142 85.7941723,126.857683 85.8371437,127.651398 L86.2734632,136.008282 C86.2958981,136.50454 86.2248597,137.000595 86.0640298,137.470737 L79.392704,156.72639 C79.1754675,157.348057 79.1213924,158.014853 79.235629,158.663271 L79.772302,161.710052 C80.1048241,163.608217 78.9898157,165.462027 77.1543848,166.062595 L73.9081674,167.137674 C73.4535534,167.284324 72.976096,167.347731 72.4988553,167.324833 L26.2009886,164.961402 C24.131071,164.85562 22.341182,166.386612 22.1301272,168.443437 L20.8778901,181.235562 C20.7659404,182.390148 21.1767849,183.534273 21.9981732,184.355341 C22.8195616,185.176408 23.9656403,185.588598 25.1232793,185.479292 L48.1522248,183.263848 C48.4706022,183.233308 48.791541,183.242079 49.1077646,183.289963 L87.5038843,189.087551 C88.8481694,189.290544 90.2011996,188.779033 91.0729782,187.738263 L109.642738,165.570758 C110.537099,164.502895 111.93643,163.994879 113.309622,164.239525 C114.682814,164.484172 115.819358,165.443976 116.287885,166.75465 L125.533496,192.534766 C125.856406,193.434875 125.834652,194.422248 125.472411,195.307336 L105.872937,243.102617 C105.378567,244.310681 105.525593,245.685682 106.264286,246.76254 C107.002979,247.839397 108.234532,248.474073 109.542384,248.452456 L120.642354,248.247324 C121.685529,248.226997 122.676841,247.78969 123.393824,247.03354 C124.110808,246.27739 124.493416,245.265724 124.455786,244.225573 L124.377249,241.997071 C124.35188,241.307629 124.511548,240.623937 124.839748,240.016664 C128.500469,233.248458 151.01892,191.572853 151.128,190.980908 C151.23708,190.388962 150.255361,183.420539 150.111376,182.341109 C150.111376,182.249705 150.085196,182.158302 150.06338,182.066898 L140.747958,139.25528 C140.476479,138.013254 139.612681,136.982478 138.435465,136.495767 L94.6420721,118.389186 C92.8842452,117.667089 90.8606043,118.314249 89.8512835,119.921281 Z" id="Path" fill="#023852"></path>
                <path d="M114.376805,159.912451 C115.502509,158.671976 118.596015,155.633901 119.612639,154.637169 C119.820804,154.433534 120.107455,154.330274 120.398015,154.354253 L135.94408,155.581671 C136.428966,155.618238 136.819276,155.993579 136.873677,156.475616 C136.928079,156.957653 136.6312,157.410171 136.166603,157.553373 L127.71073,160.173604 C127.441794,160.255884 127.219563,160.446536 127.097755,160.699477 C126.975947,160.952418 126.965645,161.24463 127.06934,161.505482 L136.520022,185.418357 C139.164779,192.092763 138.138378,199.659034 133.810477,205.392179 L116.414417,228.46066 C116.182184,228.770033 116.147345,229.184502 116.324688,229.528135 C116.502032,229.871768 116.860444,230.084276 117.247788,230.075454 L118.22078,230.049339 C118.579199,230.039794 118.915937,230.220101 119.106047,230.523355 C119.296156,230.826609 119.311269,231.207559 119.145778,231.524851 L110.515377,248.064517 C110.346212,248.3915 110.011503,248.600182 109.642738,248.608586 L105.15301,248.608586 C104.815326,248.608586 104.499633,248.441556 104.31131,248.161945 C104.122987,247.882334 104.086835,247.527457 104.214923,247.215771 L125.886915,194.358481 C125.976244,194.125884 125.976244,193.868557 125.886915,193.635959 L114.176098,160.991882 C114.021623,160.624298 114.100457,160.20032 114.376805,159.912451 Z" id="Path" fill="url(#linearGradient-1)" style="mix-blend-mode: multiply;"></path>
                <path d="M23.4827178,175.050598 L74.4928356,180.630559 C74.764117,180.6611 75.0258359,180.748621 75.260758,180.887359 L81.334326,184.49997 C82.118913,184.963459 82.4634755,185.917121 82.1557115,186.773357 C81.8479475,187.629593 80.9744241,188.147563 80.0733625,188.00812 L48.8677888,183.272553 C48.7129348,183.250761 48.5557809,183.250761 48.4009269,183.272553 L25.2759911,185.49235 C24.0860458,185.612058 22.9051474,185.192105 22.0594613,184.348484 C21.2137752,183.504862 20.7927949,182.326847 20.9127957,181.139806 L21.3709312,176.787263 C21.4125954,176.274538 21.6606633,175.800511 22.0585546,175.473298 C22.456446,175.146085 22.970229,174.993591 23.4827178,175.050598 L23.4827178,175.050598 Z" id="Path" fill="url(#linearGradient-2)" style="mix-blend-mode: multiply;"></path>
                <path d="M91.2867748,118.82444 L97.3952484,133.427224 C99.6164252,138.729433 104.177558,142.703848 109.743091,144.186711 L143.776016,153.274822 L139.622254,134.663346 L91.2867748,118.82444 Z" id="Path" fill="url(#linearGradient-3)" style="mix-blend-mode: multiply;"></path>
                <path d="M157.297558,102.067147 L157.297558,102.067147 C157.323399,102.849951 157.747852,103.565492 158.423263,103.964856 L160.107456,104.961589 C160.577664,105.23663 160.933648,105.670487 161.110991,106.184653 L162.93917,111.446879 C163.26785,112.392978 163.194655,113.431977 162.736558,114.322919 C162.278462,115.213862 161.475264,115.879345 160.513233,116.165036 L156.280934,117.418568 C156.040091,117.487992 155.789729,117.518843 155.539191,117.509972 L152.484954,117.396806 C150.56046,117.323015 149.018002,115.782425 148.946402,113.86254 L148.71079,107.381603 C148.693995,106.84506 148.863543,106.319205 149.190741,105.893033 L153.191792,100.739621 C153.787206,99.9836129 154.792065,99.6782351 155.708887,99.974673 C156.625709,100.271111 157.259928,101.106455 157.297558,102.067147 L157.297558,102.067147 Z" id="Path" fill="#0099DA"></path>
                <path d="M162.542119,110.306512 C162.096739,110.785702 161.529948,111.136074 160.901558,111.320655 L156.669258,112.574187 C156.429092,112.647137 156.178385,112.679503 155.927515,112.669943 L152.873278,112.552425 C150.950281,112.480722 149.408596,110.940901 149.33909,109.022512 L149.225647,105.858213 L149.195105,105.893033 C148.867906,106.319205 148.698358,106.84506 148.715153,107.381603 L148.950766,113.86254 C149.022365,115.782425 150.564824,117.323015 152.489317,117.396806 L155.543554,117.509972 C155.794092,117.518843 156.044454,117.487992 156.285297,117.418568 L160.517597,116.165036 C161.479627,115.879345 162.282825,115.213862 162.740922,114.322919 C163.199018,113.431977 163.272213,112.392978 162.943533,111.446879 L162.542119,110.306512 Z" id="Path" fill="url(#linearGradient-4)" style="mix-blend-mode: multiply;"></path>
                <path d="M166.133029,41.9715778 L177.704223,54.4329101 C178.258404,55.0234927 178.569871,55.8002582 178.57694,56.6091819 L178.57694,62.4938208 C178.583013,63.3828817 178.22344,64.2355687 177.582054,64.8528995 L171.351411,70.8550571 C171.074819,71.1198675 170.84864,71.4325016 170.683842,71.7777963 L154.849806,104.60468 C154.784181,104.739909 154.709851,104.870758 154.627283,104.996409 L143.413871,121.771112 C143.21254,122.079264 143.065011,122.419223 142.977551,122.77655 L140.494893,132.717759 C140.434566,132.958439 140.402355,133.205273 140.398903,133.453339 L140.337818,137.462032 C140.322678,138.421387 139.881282,139.324505 139.132946,139.927261 C138.38461,140.530016 137.406605,140.77017 136.4633,140.582805 L115.768664,136.452241 C115.29284,136.35452 114.845347,136.150664 114.459706,135.855943 L95.2180139,121.279275 C94.8150379,120.973515 94.3457919,120.766299 93.8479705,120.674271 L92.9316994,120.508874 C91.8773398,120.318292 90.9854942,119.620299 90.5490095,118.64409 C90.1125249,117.66788 90.1877941,116.539578 90.7501017,115.629673 L104.760322,93.1009073 C104.884224,92.9007028 105.03061,92.7152469 105.196642,92.5481343 L109.634012,88.0127839 C109.95744,87.6785139 110.205829,87.2793904 110.362665,86.8419497 L113.927396,76.892035 C113.980238,76.7398753 114.022516,76.5842666 114.053929,76.4263129 L118.356039,54.4894932 C118.473995,53.8799417 118.766489,53.317547 119.198136,52.870347 L130.887136,40.739808 C131.272835,40.3320827 131.758659,40.031997 132.296449,39.8692993 L147.763976,35.2599556 C148.44943,35.0583881 149.182331,35.087449 149.849584,35.3426539 L164.928787,41.1489471 C165.388175,41.3273184 165.80023,41.6087979 166.133029,41.9715778 Z" id="Path" fill="#FFFFFF"></path>
                <path d="M91.7143679,119.973511 C91.9911806,120.166798 92.2977103,120.313809 92.6219126,120.408766 L91.7143679,119.973511 Z" id="Path" fill="#2A586E"></path>
                <path d="M94.8209631,109.135678 L92.0896027,113.531747 L140.394539,136.539292 L140.442534,133.431576 C140.446245,133.184963 140.478455,132.9396 140.538525,132.700349 L140.939939,131.102965 L94.8209631,109.135678 Z" id="Path" fill="#2A586E"></path>
                <path d="M100.72873,99.6340753 L97.9973693,104.025792 L142.423425,125.187859 L143.029909,122.754787 C143.115638,122.396882 143.263291,122.056638 143.466229,121.749349 L144.338868,120.417471 L100.72873,99.6340753 Z" id="Path" fill="#2A586E"></path>
                <path d="M131.375814,40.3437265 C131.220682,40.4583868 131.074796,40.5849982 130.939495,40.7223978 L127.571108,44.2044327 L175.387367,66.9812933 L177.651865,64.8050215 C178.195376,64.2788186 178.53792,63.5800109 178.620494,62.8289667 L131.375814,40.3437265 Z" id="Path" fill="#2A586E"></path>
                <path d="M123.186097,48.7484882 L119.420659,52.6657774 L168.637503,76.1129297 L170.740564,71.7603861 C170.787087,71.6699726 170.83956,71.5827309 170.897639,71.4992335 L123.186097,48.7484882 Z" id="Path" fill="#2A586E"></path>
                <path d="M112.609711,80.6613378 L110.864433,85.5274815 L153.964077,106.05843 L154.684004,104.978999 C154.767514,104.852411 154.841877,104.720049 154.906527,104.582917 L156.385651,101.536137 L112.609711,80.6613378 Z" id="Path" fill="#2A586E"></path>
                <path d="M96.6535051,122.306475 L114.490248,135.79936 C114.876355,136.093308 115.323663,136.29708 115.799207,136.395658 L133.801751,139.986507 L96.6535051,122.306475 Z" id="Path" fill="#2A586E"></path>
                <path d="M178.598679,56.217453 C178.516489,55.5446828 178.225047,54.914512 177.765308,54.4154999 L166.194114,41.9541676 C165.85882,41.5902855 165.44367,41.308732 164.981146,41.1315369 L149.893216,35.3426539 C149.22492,35.085172 148.489886,35.0560873 147.803245,35.2599556 L139.678975,37.6799698 L178.598679,56.217453 Z" id="Path" fill="#2A586E"></path>
                <polygon id="Path" fill="#2A586E" points="116.597671 63.6341873 163.811809 86.12378 166.041402 81.488321 117.618659 58.4241926"></polygon>
                <path d="M107.282249,90.4371507 L105.235911,92.5307241 C105.068862,92.6969377 104.922379,92.8825179 104.799591,93.0834972 L103.900773,94.5285416 L147.715981,115.398988 L150.60878,111.076912 L107.282249,90.4371507 Z" id="Path" fill="#2A586E"></path>
                <polygon id="Path" fill="#2A586E" points="115.410882 69.6885754 114.389895 74.8942175 158.986115 96.1346302 161.215708 91.5035238"></polygon>
                <rect id="Rectangle" fill="#D8DEE2" style="mix-blend-mode: multiply;" x="10.0746182" y="259.281022" width="140.551614" height="4.27855035" rx="2.13927517"></rect>
                <path d="M9.00563537,165.0441 L8.35551925,164.996222 C7.61124193,164.943812 6.92568796,165.400329 6.68877859,166.106121 L0.466861911,184.848174 C0.396715376,185.061251 0.371462631,185.286489 0.392687589,185.50976 L1.86308445,201.052693 C1.89710933,201.386871 2.03258851,201.702723 2.25140884,201.958022 L4.46791212,204.526023 C4.88423217,205.00498 5.54090234,205.200142 6.15210556,205.026566 L7.64868159,204.591311 C8.32128127,204.399287 8.79560381,203.799945 8.82674435,203.102741 L10.5109378,166.732887 C10.5463971,165.857623 9.88116924,165.111309 9.00563537,165.0441 L9.00563537,165.0441 Z" id="Path" fill="#FFFFFF"></path>
                <path d="M22.548994,166.080006 L11.6977269,165.24867 C11.0447868,165.196021 10.4420224,165.600494 10.2447829,166.22364 L5.10493865,182.193122 C4.28028108,184.752146 4.0096142,187.456657 4.31083708,190.127809 L5.48017346,200.573914 C5.51769182,200.891247 5.66052742,201.186945 5.88595063,201.413955 L7.37816347,202.902524 C7.70058885,203.222686 8.15776701,203.368496 8.60658009,203.294307 C9.05539318,203.220119 9.44099034,202.935 9.6426619,202.528206 L17.4964137,186.624011 C17.6268168,186.359843 17.8375531,186.143528 18.0985346,186.00595 L20.9433381,184.491265 C21.343304,184.278229 21.6160948,183.886239 21.6763549,183.43795 L23.8361366,167.690447 C23.8929079,167.304262 23.7866923,166.911876 23.5427719,166.606689 C23.2988515,166.301502 22.9390442,166.110811 22.548994,166.080006 L22.548994,166.080006 Z" id="Path" fill="#2A586E"></path>
                <path d="M102.62672,260.847937 L102.578725,261.58787 C102.546232,262.033917 102.699628,262.473579 103.002717,262.803115 C103.305805,263.13265 103.73174,263.322869 104.180017,263.328887 L142.864108,263.920833 C143.320726,263.928139 143.759412,263.743729 144.073074,263.412622 C144.386736,263.081514 144.546512,262.634178 144.513396,262.179816 L144.513396,262.179816 C144.447558,261.356632 143.774264,260.713045 142.947009,260.682541 L104.30655,259.376777 C103.444172,259.345338 102.707118,259.990835 102.62672,260.847937 Z" id="Path" fill="#FFFFFF"></path>
                <path d="M159.060289,95.1204876 L154.862895,104.373995 C154.788304,104.533753 154.702272,104.687942 154.605467,104.835365 L146.258674,117.322812 C145.61447,118.290096 144.498717,118.837215 143.337481,118.755244 C142.176245,118.673274 141.148844,117.974871 140.647605,116.926731 L137.876976,111.150906 C137.357964,110.067579 136.278658,109.361538 135.075804,109.318485 L121.296833,108.81359 C119.938712,108.762349 118.757254,107.870386 118.338898,106.580442 C117.920542,105.290498 118.354361,103.877221 119.425022,103.042117 L121.117942,101.736354 C121.798969,101.204693 122.238466,100.423333 122.338462,99.5664495 C122.438458,98.709566 122.19064,97.8483894 121.650252,97.1748881 L114.75204,88.5481467 C114.189404,87.8448717 113.94592,86.9395581 114.080108,86.0497867 L118.006984,59.9954608 C118.041015,59.74721 118.248302,59.5588549 118.499247,59.5476792 C118.750193,59.5374589 118.972833,59.7074859 119.027971,59.9519354 L122.348363,73.745146 C122.56331,74.6371792 123.148431,75.3959195 123.957627,75.8319183 C124.766824,76.2679172 125.723719,76.3400228 126.589389,76.0302314 L126.894813,75.9214178 C127.754274,75.6115356 128.704928,75.6779189 129.51273,76.1042246 L157.650977,90.9289881 C159.152444,91.7391838 159.768357,93.5710008 159.060289,95.1204876 Z" id="Path" fill="url(#linearGradient-5)" style="mix-blend-mode: multiply;"></path>
                <path d="M166.726424,37.5885664 L175.400456,21.6277891 C175.95462,20.6138905 176.120538,19.4336447 175.867318,18.3067983 L174.183125,10.7203149 C173.296785,6.71904323 170.446638,3.43390755 166.604254,1.98475988 L164.758623,1.2883529 C162.386355,0.392991046 159.792691,0.260580504 157.34119,0.90968161 L152.419506,2.21544469 C146.909308,3.66993676 143.147641,8.7425718 143.365875,14.4243294 L143.479318,17.3622964 C143.49734,17.7849505 143.570681,18.20344 143.697478,18.6071238 L144.221062,20.2785006 C144.591479,21.463485 144.488296,22.7454457 143.933091,23.8562914 L143.933091,23.8867592 C143.659324,24.4305684 143.49199,25.0214546 143.44005,25.6277766 L142.131091,41.2098827 C141.960253,43.1734444 143.013112,45.0408148 144.783914,45.9149823 L160.155451,53.5362861 C161.554318,54.2317125 163.20502,54.2041056 164.579732,53.4622929 L164.579732,53.4622929 C166.296076,52.543563 167.285588,50.6811494 167.084206,48.7484882 L166.172298,40.4133672 C166.062185,39.437358 166.255638,38.4511796 166.726424,37.5885664 L166.726424,37.5885664 Z" id="Path" fill="#023852"></path>
                <path d="M145.896529,18.2328051 C149.360906,18.6680594 155.595912,19.5385682 158.087297,19.9041818 C158.73131,19.9947037 159.252252,20.4728003 159.396255,21.1054839 L159.967834,23.5907862 C160.103408,24.1905883 159.876834,24.8142694 159.387529,25.1881697 L158.488711,25.8715191 C158.169191,26.1158513 157.767632,26.2280757 157.36737,26.1849022 L145.730727,24.9444273 C145.218651,24.8902221 144.76573,24.5890733 144.518535,24.1384353 C144.271339,23.6877974 144.261268,23.1449103 144.49158,22.6854572 L144.49158,22.6854572 C144.671351,22.3212992 144.704149,21.9021994 144.583207,21.514623 L144.190519,20.2567379 C144.029115,19.7456185 144.140746,19.1876632 144.486471,18.7775112 C144.832195,18.3673592 145.364061,18.1618994 145.896529,18.2328051 Z" id="Path" fill="#0099DA"></path>
                <path d="M159.963471,23.5907862 L159.391892,21.1054839 C159.247889,20.4728003 158.726947,19.9947037 158.082934,19.9041818 C155.591549,19.5472733 149.356543,18.6637069 145.892166,18.2328051 C145.361845,18.1668955 144.834315,18.374487 144.491927,18.7838216 C144.149539,19.1931562 144.039273,19.7480667 144.199246,20.2567379 L144.456674,21.0750161 C144.728784,20.9482526 145.031896,20.9028967 145.329313,20.9444397 C148.789327,21.3796941 155.028697,22.2502028 157.515718,22.6158165 C158.159731,22.7063383 158.680673,23.184435 158.824677,23.8171185 L159.173732,25.3535664 L159.396255,25.1881697 C159.880709,24.8111019 160.101973,24.1879811 159.963471,23.5907862 L159.963471,23.5907862 Z" id="Path" fill="url(#linearGradient-6)" style="mix-blend-mode: multiply;"></path>
                <path d="M143.514224,17.4972252 C144.288521,12.7763974 147.770762,8.94982924 152.406416,7.72576487 L157.328101,6.42000179 C159.779816,5.77294995 162.372843,5.90532796 164.745533,6.79867308 L166.586801,7.49508006 C170.43134,8.94235715 173.283575,12.2280069 174.170035,16.230635 L175.330645,21.4536873 L175.400456,21.3274636 C175.953392,20.3115838 176.119218,19.1304441 175.867318,18.0021203 L174.161309,10.4461046 C173.273379,6.44421332 170.421673,3.15917263 166.578075,1.71054963 L164.736807,1.0184952 C162.365,0.12169376 159.771328,-0.0122391399 157.319374,0.635471364 L152.39769,1.94123444 C146.885844,3.39607828 143.123738,8.47111429 143.344059,14.1544717 L143.457503,17.0880861 C143.474955,17.2099573 143.496771,17.3535913 143.514224,17.4972252 Z" id="Path" fill="#2A586E"></path>
                <path d="M143.413871,31.1380968 C143.465178,30.5321967 143.630989,29.9414597 143.902548,29.3970794 L143.902548,29.3666116 C144.457578,28.2541646 144.560738,26.9709338 144.190519,25.7844682 L143.666936,24.1130915 L143.666936,24.1130915 C143.524953,24.5031374 143.43403,24.9098326 143.396418,25.3230986 L142.087459,40.9052046 C142.025616,41.6360939 142.13156,42.371431 142.397246,43.0553612 L143.413871,31.1380968 Z" id="Path" fill="#023852"></path>
                <path d="M166.54317,43.486263 C166.210647,44.24856 166.08283,45.0840927 166.172298,45.9106298 L166.713334,50.8681769 C167.046612,50.1045619 167.174444,49.2674293 167.084206,48.4394576 L166.54317,43.486263 Z" id="Path" fill="#023852"></path>
                <path d="M150.333899,45.1402295 L153.069622,45.3578567 L166.01086,38.9030346 L159.902386,48.3524067 C158.57202,50.3989667 155.926506,51.1439367 153.719738,50.0934242 L149.522344,48.0999592 C148.859134,47.7625444 148.524466,47.0070375 148.720888,46.2906867 C148.917311,45.5743359 149.590863,45.0939338 150.333899,45.1402295 L150.333899,45.1402295 Z" id="Path" fill="#ACAEAF" style="mix-blend-mode: multiply;"></path>
                <path d="M128.674996,74.3719123 L140.494893,72.6613627 C141.289422,72.5475646 142.095169,72.7738961 142.713434,73.2845433 C143.331699,73.7951904 143.704938,74.5426257 143.74111,75.3425295 L143.867643,78.3283744 C143.900928,79.0957451 144.244607,79.8168837 144.82018,80.3270722 C145.395752,80.8372607 146.154054,81.0929209 146.92188,81.0356565 L168.419344,79.4643883 C168.633737,79.4471383 168.845759,79.4077547 169.052007,79.3468696 L176.273095,77.1183673 C177.074347,76.8726502 177.725882,76.2864256 178.053279,75.5166312 L179.728746,71.5645217 C180.135375,70.611205 181.029789,69.9541231 182.063056,69.8496195 L187.037098,69.3534295 C188.424796,69.215111 189.707883,70.1022261 190.065156,71.447003 L192.111495,79.1466526 C192.498649,80.6107958 191.665266,82.1202477 190.217868,82.5764569 L177.538422,86.5416242 L142.432152,97.9931663 C139.19539,99.0497023 135.675615,97.5438451 134.211891,94.4763111 L126.532667,78.3936626 C126.143224,77.5833198 126.162868,76.6366036 126.585593,75.843031 C127.008318,75.0494584 127.78384,74.5034243 128.674996,74.3719123 L128.674996,74.3719123 Z" id="Path" fill="#0099DA"></path>
                <path d="M167.79977,43.6298969 L177.259178,53.7713235 C177.563222,54.0973011 177.692106,54.548964 177.605733,54.985805 C177.51936,55.422646 177.228211,55.7916645 176.822858,55.9780631 L173.528645,57.5101584 C173.044197,57.7372594 172.472,57.6661212 172.058249,57.3273516 L163.619829,50.4372751 C163.124147,50.0326369 162.969271,49.3427879 163.244594,48.7658984 L165.517819,43.9781004 C165.717065,43.562191 166.109686,43.2715606 166.566464,43.2018608 C167.023241,43.132161 167.485001,43.2924212 167.79977,43.6298969 L167.79977,43.6298969 Z" id="Path" fill="url(#linearGradient-7)" style="mix-blend-mode: multiply;"></path>
                <path d="M190.374943,71.751681 C189.960162,70.2027865 188.484268,69.179544 186.884387,69.3316668 L182.54737,69.7669212 C181.350845,69.8856426 180.314913,70.646921 179.846552,71.751681 L178.35434,75.2685363 C177.977374,76.1589811 177.225144,76.8376809 176.299275,77.1227198 L169.318162,79.2728764 C169.081393,79.3468552 168.83692,79.3935858 168.589508,79.4121578 L147.611265,80.9573107 C146.724775,81.0229174 145.849537,80.7269075 145.185826,80.1370156 C144.522116,79.5471236 144.126738,78.7138369 144.090166,77.8278319 L143.985449,75.7777839 C143.947005,74.8515881 143.51667,73.9850902 142.801297,73.3934435 C142.085923,72.8017969 141.15261,72.5404952 140.233101,72.6744203 L135.974622,73.2881289 C135.745664,73.3175299 135.579284,73.5197505 135.595024,73.7494985 L135.93099,80.3305445 C135.997343,81.6654135 136.632241,82.9084097 137.675826,83.7465611 C138.719411,84.5847125 140.072249,84.9381596 141.393711,84.7179084 L180.400678,78.2500286 C181.956804,77.996196 183.254573,76.9245724 183.795244,75.4469905 L183.795244,75.4469905 C184.365766,73.9007781 185.75884,72.8055267 187.399244,72.6134847 L189.986619,72.3088066 C190.116149,72.2960081 190.233188,72.2261878 190.305779,72.1184086 C190.37837,72.0106294 190.398933,71.8761477 190.361853,71.751681 L190.374943,71.751681 Z" id="Path" fill="#29A7DE"></path>
            </g>
        </g>
    </g>
</svg>