<?xml version="1.0" encoding="UTF-8"?>
<svg width="440px" height="330px" viewBox="0 0 440 330" version="1.1" xmlns="http://www.w3.org/2000/svg" xmlns:xlink="http://www.w3.org/1999/xlink">
    <title>Graphic elements / Icons / Rich icons / Marketplace / Practice-Cloud-and-Managed-Services</title>
    <defs>
        <linearGradient x1="0%" y1="49.9986448%" x2="100%" y2="49.9986448%" id="linearGradient-1">
            <stop stop-color="#FFFFFF" stop-opacity="0" offset="0%"></stop>
            <stop stop-color="#FFFFFF" offset="100%"></stop>
        </linearGradient>
        <linearGradient x1="-4.79853274e-14%" y1="50.0033447%" x2="100%" y2="50.0033447%" id="linearGradient-2">
            <stop stop-color="#FFFFFF" stop-opacity="0" offset="0%"></stop>
            <stop stop-color="#FFFFFF" offset="100%"></stop>
        </linearGradient>
        <linearGradient x1="0%" y1="49.9974767%" x2="100%" y2="49.9974767%" id="linearGradient-3">
            <stop stop-color="#FFFFFF" stop-opacity="0" offset="0%"></stop>
            <stop stop-color="#FFFFFF" offset="100%"></stop>
        </linearGradient>
    </defs>
    <g id="Graphic-elements-/-Icons-/-Rich-icons-/-Marketplace-/-Practice-Cloud-and-Managed-Services" stroke="none" stroke-width="1" fill="none" fill-rule="evenodd">
        <g id="Cloudand-managed-services" transform="translate(0.000000, 122.062205)" fill-rule="nonzero">
            <path d="M167.532169,196.448582 L167.532169,168.937795 L117.467831,168.937795 L117.467831,196.448582 C117.429555,196.893633 117.36164,197.335637 117.264537,197.771655 C117.045486,198.782396 116.691017,199.758971 116.210725,200.674949 C115.615833,201.835308 114.745442,202.83217 113.675769,203.578243 C112.292764,204.498071 110.660708,204.971465 109,204.934496 L176,204.934496 C174.344049,204.981766 172.713462,204.51996 171.328379,203.611424 C170.257644,202.865356 169.3859,201.868576 168.789275,200.708129 C168.310093,199.792082 167.957007,198.815471 167.739612,197.804835 C167.638601,197.358199 167.56928,196.904986 167.532169,196.448582 L167.532169,196.448582 Z" id="Path" fill="#A5B1B8"></path>
            <polygon id="Path" fill="#A5B1B8" opacity="0.2" style="mix-blend-mode: multiply;" points="118 177.937795 130.497929 177.937795 143 177.937795 155.497929 177.937795 168 177.937795 168 181.937795 168 185.937795 168 189.937795 168 193.937795 155.497929 193.937795 143 193.937795 130.497929 193.937795 118 193.937795 118 189.937795 118 185.937795 118 181.937795"></polygon>
            <path d="M282.065564,178.937795 L3.94265149,178.937795 C3.41465899,178.937795 2.89212212,178.831196 2.40709262,178.622954 C1.94037916,178.418409 1.51762484,178.125832 1.16204489,177.761289 C0.806700434,177.394035 0.524966748,176.962359 0.332013072,176.489505 C0.119188052,175.995884 0.00634886432,175.465095 0,174.927739 L0,4.94785047 C0,4.41188792 0.105556029,3.88115379 0.311262276,3.38608361 C0.706977746,2.43101645 1.45822911,1.66628099 2.40709262,1.25263551 C2.89212212,1.04439349 3.41465899,0.937794533 3.94265149,0.937794533 L282.065564,0.937794533 C282.593556,0.937794533 283.116093,1.04439349 283.601123,1.25263551 C284.067836,1.4571805 284.49059,1.74975753 284.84617,2.11429998 C285.591848,2.86880897 286.006841,3.88801431 286,4.94785047 L286,174.927739 C286.006841,175.987575 285.591848,177.00678 284.84617,177.761289 C284.49059,178.125832 284.067836,178.418409 283.601123,178.622954 C283.116093,178.831196 282.593556,178.937795 282.065564,178.937795 Z" id="Path" fill="#023852"></path>
            <rect id="Rectangle" fill="#0099DA" x="9" y="9.93779453" width="268" height="153"></rect>
            <path d="M8,9.93779453 L18.0375925,19.6083732 L28.0627211,29.2789519 C31.4030457,32.5052427 34.7461401,35.7287689 38.0920043,38.9495305 L48.1254421,48.6159623 C58.0245468,58.1538401 67.9250364,67.6917178 77.8269109,77.2295956 L107.540844,105.810054 L137.275549,134.369777 L167.001946,162.937795 L277,162.937795 L277,9.93779453 L8,9.93779453 Z" id="Path" fill="url(#linearGradient-1)" opacity="0.41"></path>
            <path d="M147,170.436054 C147.000549,169.834689 146.880697,169.239305 146.647515,168.685032 C146.419875,168.151138 146.092615,167.665537 145.683249,167.25422 C144.624264,166.196508 143.109107,165.734444 141.640431,166.021318 C140.171756,166.308191 138.941601,167.306491 138.358073,168.685032 C137.880642,169.803522 137.880642,171.068586 138.358073,172.187076 C138.583292,172.722284 138.910847,173.208323 139.322338,173.617889 C140.165236,174.462915 141.309509,174.937795 142.502794,174.937795 C143.696078,174.937795 144.840351,174.462915 145.683249,173.617889 C146.091778,173.205883 146.418924,172.720453 146.647515,172.187076 C146.880697,171.632803 147.000549,171.037419 147,170.436054 L147,170.436054 Z" id="Path" fill="#1B5679"></path>
            <path d="M440,61.1321943 C439.984128,56.6131748 436.3423,52.9537428 431.84502,52.9377945 L335.15498,52.9377945 C330.656761,52.9514777 327.013617,56.6122322 327,61.1321943 L327,199.743395 C327.009096,204.265246 330.654882,207.928655 335.15498,207.937795 L431.84502,207.937795 C436.343239,207.924111 439.986383,204.263357 440,199.743395 L440,61.1321943 Z" id="Path" fill="#023852"></path>
            <path d="M388,198.946836 C388.004208,196.560813 386.321818,194.504313 383.98225,194.035677 C381.642681,193.56704 379.297993,194.81688 378.382861,197.020438 C377.46773,199.223997 378.237211,201.767124 380.220472,203.09372 C382.203732,204.420317 384.84802,204.160648 386.535337,202.473602 C387.472903,201.53941 388,200.270367 388,198.946836 L388,198.946836 Z" id="Path" fill="#1B5679"></path>
            <polygon id="Path" fill="#0099DA" points="432 188.937795 382.997934 188.937795 334 188.937795 334 124.437795 334 59.9377945 382.997934 59.9377945 432 59.9377945 432 124.437795"></polygon>
            <path d="M431.855225,59.9377945 L334.049637,59.9377945 L334.024819,73.0851623 L334,86.23253 C342.549975,94.9131106 362.768783,115.318489 383,135.55797 C403.231217,155.797451 423.466571,175.895919 432,183.937795 L431.929681,121.933647 L431.855225,59.9377945 Z" id="Path" fill="url(#linearGradient-2)" opacity="0.41"></path>
            <path d="M349,207.937795 L326,207.937795 L326,88.9377945 L338.517662,88.9377945 C344.299959,88.9377945 348.987436,93.5650409 348.987436,99.2730386 L348.987436,207.937795 L349,207.937795 Z" id="Path" fill="#023852" opacity="0.3" style="mix-blend-mode: multiply;"></path>
            <path d="M263,179.937795 L286,179.937795 L286,88.9377945 L273.482338,88.9377945 C267.700041,88.9377945 263.012564,93.5800269 263.012564,99.3065106 L263.012564,179.937795 L263,179.937795 Z" id="Path" fill="#023852" opacity="0.3" style="mix-blend-mode: multiply;"></path>
            <path d="M334.501488,207.937795 L277.477811,207.937795 C275.557069,207.937795 274,206.375938 274,204.449291 L274,104.146501 C274.011406,100.714171 276.788548,97.9377945 280.210377,97.9377945 L331.789623,97.9377945 C335.211452,97.9377945 337.988594,100.714171 338,104.146501 L338,204.449291 C337.99544,206.375661 336.438519,207.935512 334.518049,207.937795 L334.501488,207.937795 Z" id="Path" fill="#023852"></path>
            <polygon id="Path" fill="#0099DA" points="334 186.937795 306.502055 186.937795 279 186.937795 279 145.935725 279 104.937795 306.502055 104.937795 334 104.937795 334 145.935725"></polygon>
            <polygon id="Path" fill="url(#linearGradient-3)" opacity="0.41" points="334 186.937795 306.502055 160.444532 279 133.955407 279 119.446601 279 104.937795 306.502055 104.937795 334 104.937795 334 145.935725"></polygon>
            <path d="M311,197.444804 C311.003251,195.297382 309.488636,193.446912 307.382918,193.025667 C305.277201,192.604422 303.167263,193.729807 302.344143,195.713216 C301.521022,197.696626 302.21413,199.985266 303.999364,201.178755 C305.784597,202.372244 308.164398,202.137945 309.682602,200.619222 C310.52631,199.778311 311.000369,198.636007 311,197.444804 L311,197.444804 Z" id="Path" fill="#1B5679"></path>
            <polygon id="Path" fill="#FFFFFF" points="404 175.937795 397.497888 175.937795 391 175.937795 391 175.436217 391 174.937795 397.497888 174.937795 404 174.937795 404 175.436217"></polygon>
            <polygon id="Path" fill="#FFFFFF" points="404 179.937795 397.497888 179.937795 391 179.937795 391 179.439372 391 178.937795 397.497888 178.937795 404 178.937795 404 179.439372"></polygon>
            <polygon id="Path" fill="#FFFFFF" points="421 175.937795 414.502112 175.937795 408 175.937795 408 175.436217 408 174.937795 414.502112 174.937795 421 174.937795 421 175.436217"></polygon>
            <polygon id="Path" fill="#FFFFFF" points="421 179.937795 414.502112 179.937795 408 179.937795 408 179.439372 408 178.937795 414.502112 178.937795 421 178.937795 421 179.439372"></polygon>
            <polygon id="Path" fill="#FFFFFF" points="404 167.937795 397.497888 167.937795 391 167.937795 391 167.437795 391 166.937795 397.497888 166.937795 404 166.937795 404 167.437795"></polygon>
            <polygon id="Path" fill="#FFFFFF" points="404 171.937795 397.497888 171.937795 391 171.937795 391 171.436217 391 170.937795 397.497888 170.937795 404 170.937795 404 171.436217"></polygon>
            <polygon id="Path" fill="#FFFFFF" points="421 167.937795 414.502112 167.937795 408 167.937795 408 167.437795 408 166.937795 414.502112 166.937795 421 166.937795 421 167.437795"></polygon>
            <polygon id="Path" fill="#FFFFFF" points="421 171.937795 414.502112 171.937795 408 171.937795 408 171.436217 408 170.937795 414.502112 170.937795 421 170.937795 421 171.436217"></polygon>
            <polygon id="Path" fill="#FFFFFF" points="298 175.937795 291.502112 175.937795 285 175.937795 285 175.436217 285 174.937795 291.502112 174.937795 298 174.937795 298 175.436217"></polygon>
            <polygon id="Path" fill="#FFFFFF" points="298 179.937795 291.502112 179.937795 285 179.937795 285 179.439372 285 178.937795 291.502112 178.937795 298 178.937795 298 179.439372"></polygon>
            <polygon id="Path" fill="#FFFFFF" points="39 35.9377945 32.5021124 35.9377945 26 35.9377945 26 35.4393718 26 34.9377945 32.5021124 34.9377945 39 34.9377945 39 35.4393718"></polygon>
            <polygon id="Path" fill="#FFFFFF" points="39 40.9377945 32.5021124 40.9377945 26 40.9377945 26 40.4362172 26 39.9377945 32.5021124 39.9377945 39 39.9377945 39 40.4362172"></polygon>
            <polygon id="Path" fill="#FFFFFF" points="56 35.9377945 49.4978876 35.9377945 43 35.9377945 43 35.4393718 43 34.9377945 49.4978876 34.9377945 56 34.9377945 56 35.4393718"></polygon>
            <polygon id="Path" fill="#FFFFFF" points="56 40.9377945 49.4978876 40.9377945 43 40.9377945 43 40.4362172 43 39.9377945 49.4978876 39.9377945 56 39.9377945 56 40.4362172"></polygon>
            <polygon id="Path" fill="#FFFFFF" points="39 27.9377945 32.5021124 27.9377945 26 27.9377945 26 27.4362172 26 26.9377945 32.5021124 26.9377945 39 26.9377945 39 27.4362172"></polygon>
            <polygon id="Path" fill="#FFFFFF" points="39 31.9377945 32.5021124 31.9377945 26 31.9377945 26 31.4393718 26 30.9377945 32.5021124 30.9377945 39 30.9377945 39 31.4393718"></polygon>
            <polygon id="Path" fill="#FFFFFF" points="56 27.9377945 49.4978876 27.9377945 43 27.9377945 43 27.4362172 43 26.9377945 49.4978876 26.9377945 56 26.9377945 56 27.4362172"></polygon>
            <polygon id="Path" fill="#FFFFFF" points="56 31.9377945 49.4978876 31.9377945 43 31.9377945 43 31.4393718 43 30.9377945 49.4978876 30.9377945 56 30.9377945 56 31.4393718"></polygon>
            <path d="M323.833687,141.667195 C323.093035,141.667425 322.36098,141.825008 321.686541,142.129393 C321.447282,139.47138 319.971158,137.077779 317.697211,135.660516 C315.423265,134.243254 312.613444,133.965592 310.103471,134.910115 C308.482555,130.732508 304.105556,128.289132 299.674887,129.088556 C295.244218,129.88798 292.009506,133.704735 291.967903,138.182309 L291.749898,138.182309 C287.995704,138.273354 285,141.325798 285,145.060052 C285,148.794306 287.995704,151.846749 291.749898,151.937795 L323.833687,151.937795 C326.686963,151.937795 329,149.637727 329,146.80045 C329,143.963173 326.686963,141.663105 323.833687,141.663105 L323.833687,141.667195 Z" id="Path" fill="#FFFFFF"></path>
            <path d="M404.098662,119.088105 C403.11068,119.087399 402.134189,119.300584 401.235915,119.713091 C400.922156,116.129687 398.951434,112.900999 395.911933,110.990667 C392.872433,109.080336 389.115693,108.709303 385.762958,109.988309 C383.598066,104.356211 377.746868,101.0622 371.824736,102.141599 C365.902605,103.220997 361.581516,108.369062 361.531408,114.404877 L361.240563,114.404877 C356.137141,114.404877 352,118.553612 352,123.671336 C352,128.78906 356.137141,132.937795 361.240563,132.937795 L404.098662,132.937795 C406.564272,132.937795 408.842591,131.618721 410.075396,129.477456 C411.308201,127.33619 411.308201,124.698042 410.075396,122.556777 C408.842591,120.415512 406.564272,119.096438 404.098662,119.096438 L404.098662,119.088105 Z" id="Path" fill="#FFFFFF"></path>
            <path d="M40.3782411,60.3724465 L45.9811968,56.9377945 L78.6179983,56.9377945 L81.2158079,60.7779837 L77.6162829,65.019572 L81.8184997,70.0680965 L88.4190143,70.0680965 L88.4190143,62.5946249 L92.0226958,66.0292769 L96.8234479,66.0292769 L98.4236986,70.4694956 L82.417035,85.6150693 L73.8130897,85.6150693 L73.8130897,91.2718997 L78.2023487,91.2718997 L83.6057927,97.3301291 L91.8107145,97.3301291 L98.0122056,104.398064 L103,104.398064 L103,112.26052 L86.5901564,129.019966 L86.5901564,140.937795 L80.4094478,135.504423 L80.4094478,118.335302 L75.2055156,112.678471 L75.2055156,103.574575 L79.0087088,99.1302178 L75.6045392,95.2941668 L70.803787,95.2941668 L57.0042225,80.1651456 L57.0042225,70.8750328 L50.2041961,63.4015612 L44.8007521,63.4015612 L40,66.6334446 C40,66.6334446 40.3782411,59.7765551 40.3782411,60.3724465 Z" id="Path" fill="#023852"></path>
            <polygon id="Path" fill="#023852" points="73.9977811 50.9377945 77 54.9377945 68.7133876 54.9377945 66 50.9377945"></polygon>
            <path d="M101.015531,53.4190354 L105.679668,48.9377945 L118.937604,48.9377945 L122,51.3272307 L122,58.1937157 L110.924748,68.9377945 L106.845703,64.7458012 L106.845703,59.9920808 C106.845703,59.9920808 100.650367,53.045948 101.015531,53.4190354 Z" id="Path" fill="#023852"></path>
            <path d="M147.521036,77.0431073 L143.458893,77.0431073 L140.847219,79.8640806 L140.847219,83.272583 L143.326656,85.6477008 L147.533433,81.3474875 L150.707112,81.3474875 L153.971703,84.6809862 L159.715731,84.6809862 L161.637294,82.7142219 L165.356449,82.7142219 L170.216144,87.6686344 L165.881263,92.1021876 L156.52139,92.1021876 L153.653509,89.1853763 L145.636664,89.1853763 L138,96.9899301 L138,104.336128 L144.92176,111.419812 L153.599787,111.419812 L153.599787,121.253634 L157.517297,125.257999 L157.517297,134.604296 L160.781888,137.937795 L164.773781,137.937795 L171.265772,131.299965 L171.265772,116.799246 L178.997481,108.919688 L167.695384,97.3691155 L169.873155,95.1440052 L178.290842,103.748599 L183.514188,98.406667 L177.637924,92.3980356 L179.960329,90.0229178 L183.22492,93.3564165 L187.14243,93.3564165 L192.857531,99.2233742 L201.275217,90.6187807 L209.982172,99.5192222 L213.106262,99.5192222 L213.106262,94.6981497 L218.403991,89.2812143 L218.403991,85.4976933 L223.850486,85.4976933 L232.115274,77.0431073 L232.115274,70.3761099 L238.648589,70.3761099 L243,65.9258892 L243,61.0214792 L232.565705,61.0214792 L229.883781,58.2755097 L216.023732,58.2755097 L211.779763,53.9377945 L198.461057,53.9377945 L194.328663,58.1463366 L186.853162,58.1463366 L182.472825,62.6257255 L169.583888,62.6257255 L165.240741,58.1880054 L158.116494,58.1880054 L153.1039,63.3132596 L153.1039,68.1426658 L159.302491,61.7965177 L161.666221,64.2091374 L157.90161,68.0843296 L157.90161,71.1261471 L150.293872,71.1261471 L147.607816,73.8721167 C147.607816,73.8721167 147.521036,77.6348033 147.521036,77.0431073 Z" id="Path" fill="#023852"></path>
            <polygon id="Path" fill="#023852" points="224 123.156891 229.238603 117.937795 238.256957 117.937795 245 124.65573 245 133.937795 237.743043 133.937795 233.706335 129.916117 224 129.916117"></polygon>
            <path d="M231.006918,112.937795 L237.548077,112.937795 L241,109.937795 L234.190026,109.937795 C234.190026,109.937795 230.827708,112.782047 231.006918,112.937795 Z" id="Path" fill="#023852"></path>
            <polygon id="Path" fill="#023852" points="235.972414 77.9995592 229 84.9377945 233.965517 84.9377945 241 77.9377945"></polygon>
            <path d="M223.561053,101.937795 L229,101.937795 L223.940144,106.937795 L219,106.937795 C219,106.937795 223.648843,102.024614 223.561053,101.937795 Z" id="Path" fill="#023852"></path>
            <polygon id="Path" fill="#023852" points="217.497813 98.9377945 215 101.484628 217.401575 103.937795 220 101.288374"></polygon>
            <polygon id="Path" fill="#023852" points="224.502187 108.937795 222 111.489088 224.405949 113.937795 227 111.292835"></polygon>
            <path d="M212.402375,103.937795 L207,103.937795 L214.627639,110.937795 L220,110.937795 C220,110.937795 212.338061,103.937795 212.402375,103.937795 Z" id="Path" fill="#023852"></path>
            <path d="M252.847694,129.937795 L248,134.937795 L253.474326,134.937795 L258,130.148368 C258,130.148368 253.039164,129.937795 252.847694,129.937795 Z" id="Path" fill="#023852"></path>
            <path d="M181,118.937795 L177,123.007608 L177,128.937795 L181,124.927481 C181,124.927481 180.940653,118.937795 181,118.937795 Z" id="Path" fill="#023852"></path>
            <path d="M78.0075717,49.9399057 C77.8275943,49.9399057 80.9158424,46.9377945 80.9158424,46.9377945 L84,50.1256904 L81.2717067,52.9377945 C81.2717067,52.9377945 78.0811988,49.9399057 78.0075717,49.9399057 Z" id="Path" fill="#023852"></path>
            <path d="M86,54.938201 L91.4072281,54.938201 L99,62.9377945 L93.374637,62.9377945 C93.374637,62.9377945 86.0587286,54.871906 86,54.938201 Z" id="Path" fill="#023852"></path>
            <path d="M125.318898,62.9377945 L122,66.1762561 L124.826772,68.9377945 L128,65.8377945 C128,65.8377945 125.271654,62.9377945 125.318898,62.9377945 Z" id="Path" fill="#023852"></path>
            <path d="M141.040268,64.9377945 C141.228058,64.9377945 144,68.1220051 144,68.1220051 L144,73.9377945 L141.113751,70.8369173 C141.113751,70.8369173 140.917797,64.9377945 141.040268,64.9377945 Z" id="Path" fill="#023852"></path>
            <path d="M195.293436,88.262585 C193.291095,88.2547511 191.31064,88.6761172 189.487347,89.4979016 C188.84715,82.3304175 184.863321,75.8742158 178.722706,72.0527009 C172.582091,68.2311859 164.993393,67.4854084 158.217407,70.0375474 C153.838254,58.7722272 142.014804,52.1857509 130.049232,54.3459335 C118.08366,56.5061162 109.352106,66.8034527 109.247187,78.8782965 C109.050886,78.8782965 108.855967,78.8782965 108.662431,78.8782965 C98.355455,78.8782965 90,87.1743477 90,97.4080455 C90,107.641743 98.355455,115.937795 108.662431,115.937795 L195.293436,115.937795 C202.901296,115.807523 209,109.646848 209,102.091954 C209,94.5370606 202.901296,88.3763854 195.293436,88.2461141 L195.293436,88.262585 Z" id="Path" fill="#FFFFFF"></path>
        </g>
    </g>
</svg>