<?xml version="1.0" encoding="UTF-8"?>
<svg width="440px" height="330px" viewBox="0 0 440 330" version="1.1" xmlns="http://www.w3.org/2000/svg" xmlns:xlink="http://www.w3.org/1999/xlink">
    <title>Graphic elements / Icons / Rich icons / Marketplace / Industries-Retail</title>
    <defs>
        <linearGradient x1="-0.0214964598%" y1="49.8197428%" x2="99.8510556%" y2="49.8197428%" id="linearGradient-1">
            <stop stop-color="#FFFFFF" offset="0%"></stop>
            <stop stop-color="#FFFFFF" stop-opacity="0.2" offset="0%"></stop>
            <stop stop-color="#FFFFFF" stop-opacity="0.6" offset="100%"></stop>
        </linearGradient>
        <linearGradient x1="0%" y1="49.9951319%" x2="100%" y2="49.9951319%" id="linearGradient-2">
            <stop stop-color="#FFFFFF" stop-opacity="0.6" offset="58%"></stop>
            <stop stop-color="#FFFFFF" stop-opacity="0" offset="100%"></stop>
        </linearGradient>
        <linearGradient x1="0%" y1="50%" x2="100%" y2="50%" id="linearGradient-3">
            <stop stop-color="#FFFFFF" stop-opacity="0.6" offset="58%"></stop>
            <stop stop-color="#FFFFFF" stop-opacity="0" offset="100%"></stop>
        </linearGradient>
        <linearGradient x1="0%" y1="50.0054867%" x2="100%" y2="50.0054867%" id="linearGradient-4">
            <stop stop-color="#FFFFFF" stop-opacity="0.6" offset="58%"></stop>
            <stop stop-color="#FFFFFF" stop-opacity="0" offset="100%"></stop>
        </linearGradient>
        <linearGradient x1="50%" y1="0%" x2="50%" y2="109.340339%" id="linearGradient-5">
            <stop stop-color="#FFFFFF" stop-opacity="0.6" offset="58%"></stop>
            <stop stop-color="#FFFFFF" stop-opacity="0" offset="100%"></stop>
        </linearGradient>
        <linearGradient x1="50.0221337%" y1="0%" x2="50.0221337%" y2="100%" id="linearGradient-6">
            <stop stop-color="#FFFFFF" stop-opacity="0.6" offset="58%"></stop>
            <stop stop-color="#FFFFFF" stop-opacity="0" offset="100%"></stop>
        </linearGradient>
        <linearGradient x1="49.9833942%" y1="0%" x2="49.9833942%" y2="100%" id="linearGradient-7">
            <stop stop-color="#FFFFFF" stop-opacity="0.6" offset="58%"></stop>
            <stop stop-color="#FFFFFF" stop-opacity="0" offset="100%"></stop>
        </linearGradient>
        <linearGradient x1="50%" y1="0%" x2="50%" y2="100%" id="linearGradient-8">
            <stop stop-color="#FFFFFF" stop-opacity="0.6" offset="58%"></stop>
            <stop stop-color="#FFFFFF" stop-opacity="0" offset="100%"></stop>
        </linearGradient>
        <linearGradient x1="20%" y1="48%" x2="81%" y2="48%" id="linearGradient-9">
            <stop stop-color="#FFFFFF" offset="37%"></stop>
            <stop stop-color="#96A6AE" offset="100%"></stop>
        </linearGradient>
        <linearGradient x1="28.5%" y1="53.5%" x2="72.5%" y2="53.5%" id="linearGradient-10">
            <stop stop-color="#FFFFFF" offset="0%"></stop>
            <stop stop-color="#3BB2E3" offset="100%"></stop>
        </linearGradient>
        <linearGradient x1="47%" y1="54.5%" x2="56%" y2="54.5%" id="linearGradient-11">
            <stop stop-color="#FFFFFF" offset="0%"></stop>
            <stop stop-color="#3BB2E3" offset="100%"></stop>
        </linearGradient>
        <linearGradient x1="41.5%" y1="48%" x2="48.5%" y2="48%" id="linearGradient-12">
            <stop stop-color="#FFFFFF" offset="0%"></stop>
            <stop stop-color="#3BB2E3" offset="100%"></stop>
        </linearGradient>
        <linearGradient x1="-4.89928096%" y1="58.4642891%" x2="99.9453317%" y2="58.4642891%" id="linearGradient-13">
            <stop stop-color="#FFFFFF" offset="0%"></stop>
            <stop stop-color="#003A5D" offset="100%"></stop>
        </linearGradient>
        <linearGradient x1="45%" y1="102.270218%" x2="45%" y2="0.110406782%" id="linearGradient-14">
            <stop stop-color="#FFFFFF" offset="0%"></stop>
            <stop stop-color="#DCE4E9" offset="14%"></stop>
            <stop stop-color="#9BB2C0" offset="43%"></stop>
            <stop stop-color="#7393A6" offset="64%"></stop>
            <stop stop-color="#63879C" offset="75%"></stop>
        </linearGradient>
        <linearGradient x1="-4.74877597%" y1="63.4805552%" x2="95.3665528%" y2="63.4805552%" id="linearGradient-15">
            <stop stop-color="#FFFFFF" offset="0%"></stop>
            <stop stop-color="#003A5D" offset="100%"></stop>
        </linearGradient>
        <linearGradient x1="49.2777778%" y1="108.333333%" x2="49.2777778%" y2="-3.7037037%" id="linearGradient-16">
            <stop stop-color="#FFFFFF" offset="0%"></stop>
            <stop stop-color="#DCE4E9" offset="14%"></stop>
            <stop stop-color="#9BB2C0" offset="43%"></stop>
            <stop stop-color="#7393A6" offset="64%"></stop>
            <stop stop-color="#63879C" offset="75%"></stop>
        </linearGradient>
        <linearGradient x1="-8.23529412%" y1="48%" x2="95.8823529%" y2="48%" id="linearGradient-17">
            <stop stop-color="#FFFFFF" offset="0%"></stop>
            <stop stop-color="#3BB2E3" offset="100%"></stop>
        </linearGradient>
        <linearGradient x1="51.2178397%" y1="97.3847051%" x2="51.2178397%" y2="-7.18947488%" id="linearGradient-18">
            <stop stop-color="#FFFFFF" offset="37%"></stop>
            <stop stop-color="#96A6AE" offset="100%"></stop>
        </linearGradient>
        <linearGradient x1="2.23792988e-12%" y1="50.6988428%" x2="100%" y2="50.6988428%" id="linearGradient-19">
            <stop stop-color="#FFFFFF" offset="37%"></stop>
            <stop stop-color="#96A6AE" offset="100%"></stop>
        </linearGradient>
        <linearGradient x1="-3.99998702%" y1="50%" x2="97.000013%" y2="50%" id="linearGradient-20">
            <stop stop-color="#FFFFFF" offset="0%"></stop>
            <stop stop-color="#003A5D" offset="100%"></stop>
        </linearGradient>
        <linearGradient x1="0%" y1="44%" x2="100%" y2="44%" id="linearGradient-21">
            <stop stop-color="#FFFFFF" offset="0%"></stop>
            <stop stop-color="#003A5D" offset="100%"></stop>
        </linearGradient>
        <linearGradient x1="-2%" y1="48.4679873%" x2="92%" y2="48.4679873%" id="linearGradient-22">
            <stop stop-color="#FFFFFF" offset="30%"></stop>
            <stop stop-color="#003A5D" offset="100%"></stop>
        </linearGradient>
        <linearGradient x1="51.1510123%" y1="102.484472%" x2="51.1510123%" y2="0%" id="linearGradient-23">
            <stop stop-color="#FFFFFF" offset="0%"></stop>
            <stop stop-color="#003A5D" offset="100%"></stop>
        </linearGradient>
        <linearGradient x1="28.5%" y1="50%" x2="55.5%" y2="50%" id="linearGradient-24">
            <stop stop-color="#FFFFFF" offset="0%"></stop>
            <stop stop-color="#003A5D" offset="100%"></stop>
        </linearGradient>
        <linearGradient x1="28%" y1="45.5%" x2="73%" y2="45.5%" id="linearGradient-25">
            <stop stop-color="#FFFFFF" offset="0%"></stop>
            <stop stop-color="#3BB2E3" offset="100%"></stop>
        </linearGradient>
        <linearGradient x1="44%" y1="53%" x2="54%" y2="53%" id="linearGradient-26">
            <stop stop-color="#FFFFFF" offset="0%"></stop>
            <stop stop-color="#3BB2E3" offset="100%"></stop>
        </linearGradient>
        <linearGradient x1="11.86%" y1="51.5%" x2="84.86%" y2="51.5%" id="linearGradient-27">
            <stop stop-color="#FFFFFF" offset="0%"></stop>
            <stop stop-color="#003A5D" offset="100%"></stop>
        </linearGradient>
        <linearGradient x1="35%" y1="54.5%" x2="69%" y2="54.5%" id="linearGradient-28">
            <stop stop-color="#FFFFFF" offset="0%"></stop>
            <stop stop-color="#003A5D" offset="100%"></stop>
        </linearGradient>
        <linearGradient x1="37.5%" y1="55.5%" x2="58.5%" y2="55.5%" id="linearGradient-29">
            <stop stop-color="#FFFFFF" offset="0%"></stop>
            <stop stop-color="#3BB2E3" offset="100%"></stop>
        </linearGradient>
        <linearGradient x1="0.249620048%" y1="48.6035305%" x2="101.534621%" y2="48.6035305%" id="linearGradient-30">
            <stop stop-color="#FFFFFF" offset="0%"></stop>
            <stop stop-color="#3BB2E3" offset="100%"></stop>
        </linearGradient>
        <linearGradient x1="0%" y1="53%" x2="100%" y2="53%" id="linearGradient-31">
            <stop stop-color="#FFFFFF" offset="27%"></stop>
            <stop stop-color="#3BB2E3" offset="100%"></stop>
        </linearGradient>
    </defs>
    <g id="Graphic-elements-/-Icons-/-Rich-icons-/-Marketplace-/-Industries-Retail" stroke="none" stroke-width="1" fill="none" fill-rule="evenodd">
        <g id="Retail" transform="translate(0.000000, 77.000000)" fill-rule="nonzero">
            <path d="M392.446154,249.306787 L392.545701,248.371041 C392.63498,247.465666 393.265322,246.705316 394.138462,246.449774 L394.138462,246.449774 C395.309685,246.105863 396.514503,245.888929 397.732127,245.802715 L401.246154,245.563801 L403.057919,244.498643 C404.607247,243.581516 406.374234,243.096798 408.174661,243.095023 L408.602715,243.095023 C410.926444,243.096774 413.230417,243.521812 415.40181,244.349321 L417.462443,245.125792 L419.712217,245.324887 C420.357852,245.380329 420.859049,245.911512 420.876923,246.559276 L420.956561,248.550226 C420.985894,249.282212 420.479883,249.927376 419.761991,250.073303 L417.352941,250.561086 L394.208145,250.561086 L393.043439,250.232579 C392.650917,250.10347 392.401988,249.71763 392.446154,249.306787 L392.446154,249.306787 Z" id="Path" fill="#023852"></path>
            <path d="M400.021719,250.561086 L400.021719,249.695023 C400.021719,248.304065 398.894125,247.176471 397.503167,247.176471 L397.503167,247.176471 C396.11221,247.176471 394.984615,248.304065 394.984615,249.695023 L394.984615,250.561086 L400.021719,250.561086 Z" id="Path" fill="#00182B"></path>
            <path d="M399.523982,249.515837 C399.523982,250.615409 398.632603,251.506787 397.533032,251.506787 C396.43346,251.506787 395.542081,250.615409 395.542081,249.515837 C395.542081,248.416266 396.43346,247.524887 397.533032,247.524887 C398.632603,247.524887 399.523982,248.416266 399.523982,249.515837 Z" id="Path" fill="#003A5D"></path>
            <circle id="Oval" fill="#96A6AE" cx="397.503167" cy="249.515837" r="1.3040724"></circle>
            <path d="M417.352941,250.561086 L417.651584,250.501357 L417.651584,249.695023 C417.651584,248.304065 416.52399,247.176471 415.133032,247.176471 L415.133032,247.176471 C413.742074,247.176471 412.61448,248.304065 412.61448,249.695023 L412.61448,250.561086 L417.352941,250.561086 Z" id="Path" fill="#00182B"></path>
            <path d="M417.153846,249.515837 C417.153846,250.615409 416.262467,251.506787 415.162896,251.506787 C414.063324,251.506787 413.171946,250.615409 413.171946,249.515837 C413.171946,248.416266 414.063324,247.524887 415.162896,247.524887 C416.262467,247.524887 417.153846,248.416266 417.153846,249.515837 Z" id="Path" fill="#003A5D"></path>
            <path d="M402.241629,245.713122 C402.187662,245.711867 402.140144,245.677245 402.12241,245.62626 C402.104676,245.575275 402.120452,245.518638 402.161991,245.484163 C403.334769,244.526677 404.739025,243.894934 406.233484,243.652489 C408.313039,243.29506 410.446402,243.410745 412.475113,243.99095 C413.400349,244.284331 414.30215,244.647048 415.172851,245.076018 C415.240028,245.111559 415.275273,245.187524 415.259032,245.261768 C415.242791,245.336012 415.179048,245.390323 415.103167,245.39457 L402.241629,245.713122 Z" id="Path" fill="#003A5D"></path>
            <circle id="Oval" fill="#96A6AE" cx="415.133032" cy="249.515837" r="1.3040724"></circle>
            <path d="M312.708597,93.8832579 L320.065158,93.8832579 C320.227865,93.8888736 320.385603,93.8267018 320.500723,93.7115824 C320.615842,93.5964629 320.678014,93.4387247 320.672398,93.2760181 L320.672398,92.0217195 C320.678014,91.8590128 320.615842,91.7012747 320.500723,91.5861552 C320.385603,91.4710357 320.227865,91.408864 320.065158,91.4144796 L310.339367,91.4144796 C310.175793,91.4089999 310.017137,91.4708819 309.900472,91.5856659 C309.783806,91.7004498 309.719352,91.8580788 309.722083,92.0217195 L309.722083,93.2760181 C309.719352,93.4396588 309.783806,93.5972877 309.900472,93.7120717 C310.017137,93.8268556 310.175793,93.8887377 310.339367,93.8832579 L312.708597,93.8832579 Z" id="Path" fill="#FFE600"></path>
            <path d="M316.491403,95.9339367 L310.38914,95.9339367 C310.290629,95.93116 310.195322,95.9690733 310.125637,96.0387588 C310.055951,96.1084443 310.018038,96.2037514 310.020814,96.3022624 L310.020814,97.0588235 C310.018038,97.1573346 310.055951,97.2526416 310.125637,97.3223271 C310.195322,97.3920126 310.290629,97.4299259 310.38914,97.4271493 L319.467873,97.4271493 C319.566384,97.4299259 319.661691,97.3920126 319.731377,97.3223271 C319.801062,97.2526416 319.838976,97.1573346 319.836199,97.0588235 L319.836199,96.3022624 C319.838976,96.2037514 319.801062,96.1084443 319.731377,96.0387588 C319.661691,95.9690733 319.566384,95.93116 319.467873,95.9339367 L316.491403,95.9339367 Z" id="Path" fill="#E5EBEF"></path>
            <rect id="Rectangle" fill="#E5EBEF" x="321.916742" y="95.9339367" width="3.86244344" height="1.48325792" rx="0.37"></rect>
            <path d="M337.306787,95.9339367 L328.238009,95.9339367 C328.139498,95.93116 328.044191,95.9690733 327.974505,96.0387588 C327.90482,96.1084443 327.866907,96.2037514 327.869683,96.3022624 L327.869683,97.0588235 C327.866907,97.1573346 327.90482,97.2526416 327.974505,97.3223271 C328.044191,97.3920126 328.139498,97.4299259 328.238009,97.4271493 L337.306787,97.4271493 C337.405298,97.4299259 337.500605,97.3920126 337.570291,97.3223271 C337.639976,97.2526416 337.67789,97.1573346 337.675113,97.0588235 L337.675113,96.3022624 C337.67789,96.2037514 337.639976,96.1084443 337.570291,96.0387588 C337.500605,95.9690733 337.405298,95.93116 337.306787,95.9339367 Z" id="Path" fill="#E5EBEF"></path>
            <rect id="Rectangle" fill="#E5EBEF" x="310.020814" y="98.9104072" width="3.86244344" height="1.48325792" rx="0.37"></rect>
            <path d="M326.834389,98.920362 L316.342081,98.920362 C316.244522,98.9147332 316.149083,98.950334 316.079043,99.0184808 C316.009003,99.0866277 315.970801,99.1810558 315.973756,99.278733 L315.973756,100.035294 C315.967895,100.134661 316.004815,100.23179 316.0752,100.302176 C316.145585,100.372561 316.242714,100.409481 316.342081,100.40362 L326.834389,100.40362 C326.9329,100.406397 327.028207,100.368483 327.097893,100.298798 C327.167578,100.229112 327.205492,100.133805 327.202715,100.035294 L327.202715,99.278733 C327.205669,99.1810558 327.167468,99.0866277 327.097428,99.0184808 C327.027388,98.950334 326.931949,98.9147332 326.834389,98.920362 Z" id="Path" fill="#E5EBEF"></path>
            <rect id="Rectangle" fill="#E5EBEF" x="329.283258" y="98.9104072" width="3.86244344" height="1.48325792" rx="0.37"></rect>
            <path d="M103.529412,17.5303167 L99.0298643,13.040724 C98.840521,12.8420926 98.5775802,12.7304329 98.3031674,12.7321267 L92.4497738,12.7321267 C92.1768416,12.736422 91.9141193,12.628454 91.7230769,12.4334842 L86.7457014,7.4561086 C86.5570605,7.26364726 86.2984481,7.1558921 86.0289593,7.15744906 L76.7809955,7.15744906 C76.5115066,7.1558921 76.2528942,7.26364726 76.0642534,7.4561086 L71.4552036,12.0651584 C71.2658604,12.2637897 71.0029196,12.3754495 70.7285068,12.3737557 L64.6063348,12.3737557 L63.839819,12.7022624 L57.59819,19.3022624 L102.822624,19.3022624 C103.260944,19.341528 103.673035,19.0883297 103.836079,18.6795721 C103.999122,18.2708145 103.874426,17.8035045 103.529412,17.5303167 Z" id="Path" fill="url(#linearGradient-1)"></path>
            <path d="M68.319457,10.1438914 L59.4298643,10.1438914 C59.2124404,10.1486237 59.0029971,10.0619575 58.8524887,9.90497738 L49.1864253,0.248868778 C49.0342827,0.0930674543 48.8267842,0.00362844289 48.6090498,-7.1469212e-06 L40.4959276,-7.1469212e-06 C40.2772376,-0.000931561166 40.0680357,0.0892416303 39.918552,0.248868778 L37.1312217,3.02624434 C36.9807133,3.18322449 36.77127,3.26989068 36.5538462,3.26515837 L23.1348416,3.26515837 C22.915903,3.26769045 22.706049,3.35305479 22.5475113,3.5040724 L14.8624434,11.199095 C14.7086796,11.3512426 14.5013806,11.4370214 14.2850679,11.438009 L4.46968326,11.438009 C4.25074465,11.4405411 4.04089065,11.5259055 3.88235294,11.6769231 L1.23438914,14.3248869 C0.980354848,14.5589007 0.898686384,14.9262359 1.02963611,15.245842 C1.16058583,15.5654481 1.47651879,15.7698771 1.82171946,15.758371 L72.2117647,15.758371 C72.5417147,15.7529607 72.836804,15.5517409 72.9623404,15.2465575 C73.0878768,14.9413742 73.0197831,14.5907599 72.7891403,14.3547511 L68.9067873,10.4723982 C68.7664936,10.2845167 68.5529784,10.165093 68.319457,10.1438914 Z" id="Path" fill="#EFF2F3"></path>
            <polygon id="Path" fill="#0099DA" points="348.137557 160.978281 327.302262 243.055204 137.395475 243.055204 100.38371 137.086878"></polygon>
            <g id="Group" style="mix-blend-mode: screen;" transform="translate(93.574661, 128.416290)" opacity="0.23">
                <polygon id="Path" fill="url(#linearGradient-2)" style="mix-blend-mode: screen;" points="112.448869 90.6479638 100.274208 102.81267 82.4352941 84.9737557 7.17737557 9.7158371 0.885972851 3.42443439 3.75294118 0.567420814 24.359276 2.54841629 33 11.199095 106.774661 84.9737557"></polygon>
                <polygon id="Path" fill="url(#linearGradient-3)" style="mix-blend-mode: screen;" points="155.055204 88.5375566 142.880543 100.712217 127.142081 84.9737557 55.5475113 13.3692308 46.8968326 4.72850679 73.8343891 7.32669683 82.4850679 15.9674208 82.4850679 15.9674208 151.491403 84.9737557"></polygon>
                <polygon id="Path" fill="url(#linearGradient-4)" style="mix-blend-mode: screen;" points="204.480543 88.5375566 192.305882 100.712217 176.567421 84.9737557 110.238914 18.6452489 101.59819 9.99457014 128.535747 12.5927602 137.186425 21.2434389"></polygon>
            </g>
            <polygon id="Path" fill="#003A5D" points="156.478733 250.829864 155.692308 250.829864 153.960181 243.055204 131.054299 140.043439 130.417195 137.166516 131.173756 137.00724 131.870588 140.123077 154.756561 243.055204"></polygon>
            <polygon id="Path" fill="#003A5D" points="180.479638 250.829864 179.693213 250.829864 178.419005 243.055204 161.973756 143.029864 161.296833 138.908597 162.063348 138.779186 162.78009 143.099548 179.20543 243.055204"></polygon>
            <polygon id="Path" fill="#003A5D" points="204.500452 250.829864 203.714027 250.829864 202.897738 243.055204 192.743891 145.99638 192.176471 140.640724 192.952941 140.561086 193.530317 146.066063 203.684163 243.055204"></polygon>
            <polygon id="Path" fill="#003A5D" points="228.521267 250.829864 227.744796 250.829864 227.406335 243.055204 223.344796 148.942986 223.066063 142.382805 223.842534 142.342986 224.131222 149.022624 228.19276 243.055204"></polygon>
            <polygon id="Path" fill="#003A5D" points="254.722172 144.124887 254.722172 144.154751 254.572851 151.959276 252.731222 243.055204 252.571946 250.829864 251.795475 250.829864 251.954751 243.055204 253.786425 151.879638 253.945701 144.114932 254.353846 144.124887"></polygon>
            <rect id="Rectangle" fill="#003A5D" x="104.305882" y="154.716742" width="177.085068" height="1"></rect>
            <rect id="Rectangle" fill="#003A5D" x="109.104072" y="174.80543" width="173.451584" height="1"></rect>
            <rect id="Rectangle" fill="#003A5D" x="112.478733" y="194.904072" width="171.251584" height="1"></rect>
            <path d="M254.722172,144.174661 L254.353846,144.174661 L222.110407,141.068778 L195.172851,138.470588 L167.40905,135.79276 L140.471493,133.19457 L117.923982,131.024434 L97.3276018,129.033484 L95.0877828,128.81448 L90.8072398,128.406335 C90.4284388,128.363543 90.0534601,128.513798 89.8090213,128.806323 C89.5645825,129.098849 89.4833445,129.494558 89.5927602,129.859729 L118.770136,213.390045 L131.840724,250.829864 L333.344796,250.829864 L337.326697,235.280543 L357.903167,154.129412 L254.722172,144.174661 Z M327.302262,243.065158 L137.375566,243.065158 L127.01267,213.4 L100.732127,138.152036 L100.363801,137.106787 L126.554751,139.625339 L149.102262,141.795475 L162.760181,143.119457 L176.039819,144.40362 L203.793665,147.071493 L230.741176,149.669683 L348.117647,160.988235 L334.808145,213.4 L327.302262,243.065158 Z" id="Shape" fill="#023852"></path>
            <rect id="Rectangle" fill="#C7D4DB" x="118.740271" y="213.390045" width="218.546606" height="37.8280543"></rect>
            <rect id="Rectangle" fill="#E5EBEF" x="279.947511" y="107.740271" width="68.1900452" height="143.089593"></rect>
            <rect id="Rectangle" fill="#BACAD3" x="279.947511" y="149.709502" width="68.1900452" height="1"></rect>
            <rect id="Rectangle" fill="#BACAD3" x="279.947511" y="136.220814" width="68.1900452" height="1"></rect>
            <rect id="Rectangle" fill="#BACAD3" x="279.947511" y="122.742081" width="68.1900452" height="1"></rect>
            <rect id="Rectangle" fill="#BACAD3" x="279.947511" y="163.188235" width="68.1900452" height="1"></rect>
            <rect id="Rectangle" fill="#BACAD3" x="279.947511" y="176.666968" width="68.1900452" height="1"></rect>
            <rect id="Rectangle" fill="#BACAD3" x="279.947511" y="190.145701" width="68.1900452" height="1"></rect>
            <rect id="Rectangle" fill="#BACAD3" x="279.947511" y="203.624434" width="68.1900452" height="1"></rect>
            <rect id="Rectangle" fill="#BACAD3" x="279.947511" y="217.103167" width="68.1900452" height="1"></rect>
            <rect id="Rectangle" fill="#BACAD3" x="279.947511" y="230.5819" width="68.1900452" height="1"></rect>
            <rect id="Rectangle" fill="#96AEBD" x="118.859729" y="222.737557" width="160.699548" height="1"></rect>
            <rect id="Rectangle" fill="#96AEBD" x="118.859729" y="235.788235" width="160.699548" height="1"></rect>
            <rect id="Rectangle" fill="#023852" x="118.740271" y="245.295023" width="229.457014" height="6.22171946"></rect>
            <rect id="Rectangle" fill="#003A5D" x="280.813575" y="105.560181" width="67.7420814" height="2.10045249"></rect>
            <rect id="Rectangle" fill="#E5EBEF" x="278.79276" y="87.8307692" width="69.4443439" height="18.0977376"></rect>
            <rect id="Rectangle" fill="#0099DA" x="279.977376" y="89.0054299" width="67.0850679" height="15.7384615"></rect>
            <g id="Group" opacity="0.8" style="mix-blend-mode: multiply;" transform="translate(279.728507, 88.597285)" fill="#999999">
                <polygon id="Path" opacity="0.4" points="0.248868778 16.1764706 1.14479638 16.1764706 1.14479638 1.09502262 67.3239819 1.09502262 67.3239819 0.368325792 0.248868778 0.368325792"></polygon>
            </g>
            <polygon id="Path" fill="#42B5E4" points="299.38914 93.0271493 284.78552 92.6886878 299.38914 92.3502262"></polygon>
            <polygon id="Path" fill="#42B5E4" points="299.468778 95.0579186 286.637104 94.719457 299.468778 94.3809955"></polygon>
            <polygon id="Path" fill="#42B5E4" points="299.209955 102.026244 284.78552 101.687783 299.209955 101.339367"></polygon>
            <polygon id="Path" fill="#42B5E4" points="300.01629 99.9954751 286.637104 99.6570136 300.01629 99.3085973"></polygon>
            <polygon id="Path" fill="#42B5E4" points="295.357466 97.6760181 285.611765 97.3276018 295.357466 96.9891403"></polygon>
            <rect id="Rectangle" fill="#96A6AE" x="350.238009" y="130.327602" width="15.5891403" height="47.9321267" rx="1.28"></rect>
            <path d="M364.552941,131.044344 C364.860821,131.044344 365.110407,131.29393 365.110407,131.60181 L365.110407,177.025339 C365.110407,177.333219 364.860821,177.582805 364.552941,177.582805 L351.502262,177.582805 C351.198277,177.577376 350.954751,177.329373 350.954751,177.025339 L350.954751,131.60181 C350.954751,131.297776 351.198277,131.049773 351.502262,131.044344 L364.552941,131.044344 M364.552941,129.61086 L351.502262,129.61086 C350.402691,129.61086 349.511312,130.502239 349.511312,131.60181 L349.511312,177.025339 C349.511312,178.124911 350.402691,179.01629 351.502262,179.01629 L364.552941,179.01629 C365.652513,179.01629 366.543891,178.124911 366.543891,177.025339 L366.543891,131.60181 C366.543891,130.502239 365.652513,129.61086 364.552941,129.61086 L364.552941,129.61086 Z" id="Shape" fill="#EFF2F3"></path>
            <path d="M361.825339,158.320362 C361.916429,157.151584 361.56066,155.991779 360.829864,155.075113 C360.56653,154.684142 360.396263,154.238041 360.332127,153.771041 C360.332127,153.771041 359.704977,147.539367 359.635294,146.961991 C359.565611,146.384615 359.635294,146.593665 359.81448,146.384615 C359.993665,146.175566 359.525792,145.01086 359.525792,145.01086 L356.947511,145.01086 C356.947511,145.01086 356.509502,146.165611 356.658824,146.384615 C356.808145,146.60362 356.907692,146.384615 356.838009,146.961991 C356.768326,147.539367 356.091403,153.771041 356.091403,153.771041 C356.005615,154.230661 355.833333,154.669812 355.58371,155.065158 C354.833162,155.971287 354.474882,157.139278 354.588235,158.310407 L354.588235,168.852489 C354.542711,169.602448 354.661624,170.353296 354.936652,171.052489 L355.225339,171.231674 L361.19819,171.231674 L361.486878,171.052489 C361.76445,170.353621 361.89001,169.603655 361.855204,168.852489 L361.825339,158.320362 Z" id="Path" fill="#009BDB"></path>
            <path d="M360.133032,155.065158 C359.832052,154.58098 359.63855,154.037816 359.565611,153.472398 L359.087783,146.563801 C359.0694,146.515724 359.0694,146.462556 359.087783,146.41448 L359.366516,146.165611 C359.505882,145.99638 359.436199,145.727602 359.366516,145.498643 C359.333469,145.418342 359.254222,145.366832 359.167421,145.36915 L358.828959,145.36915 C358.914673,145.740502 358.872583,146.129834 358.709502,146.474208 C358.699267,146.509991 358.699267,146.547927 358.709502,146.58371 L358.570136,153.233484 C358.546964,153.92786 358.6412,154.621164 358.848869,155.284163 C359.08484,156.349219 359.191793,157.438801 359.167421,158.529412 L359.167421,168.484163 C359.152961,168.765564 359.258434,169.039912 359.457677,169.239156 C359.65692,169.438399 359.931268,169.543872 360.21267,169.529412 L360.21267,169.529412 C360.691284,169.537327 361.097011,169.179079 361.148416,168.703167 L361.148416,157.991855 C361.120499,156.934807 360.765775,155.912369 360.133032,155.065158 L360.133032,155.065158 Z" id="Path" fill="#2BACE1"></path>
            <path d="M359.635294,144.732127 L356.8181,144.732127 C356.772054,144.776005 356.737816,144.830786 356.718552,144.891403 L356.638914,145.269683 L359.81448,145.269683 L359.744796,144.881448 C359.719915,144.824115 359.682497,144.77309 359.635294,144.732127 Z" id="Path" fill="#63879C"></path>
            <path d="M359.306787,144.533032 C359.187116,144.495652 359.063517,144.472269 358.938462,144.463348 C358.703114,144.448042 358.467021,144.448042 358.231674,144.463348 C357.99276,144.463348 357.743891,144.463348 357.514932,144.463348 C357.393811,144.477 357.273973,144.500302 357.156561,144.533032 C357.028891,144.575172 356.91294,144.646789 356.8181,144.742081 L359.635294,144.742081 C359.544514,144.646608 359.431723,144.574832 359.306787,144.533032 Z" id="Path" fill="#87B6EB"></path>
            <polygon id="Path" fill="#63879C" points="356.370136 149.380995 356.60905 147.171041 359.854299 147.151131 360.073303 149.351131"></polygon>
            <path d="M359.476018,148.753846 C359.334571,149.414553 358.705327,149.852633 358.036598,149.755972 C357.36787,149.65931 356.888435,149.060976 356.939873,148.387258 C356.99131,147.71354 357.556022,147.194925 358.231674,147.200905 C358.999474,147.294524 359.552021,147.984103 359.476018,148.753846 L359.476018,148.753846 Z" id="Path" fill="#63879C"></path>
            <path d="M359.147511,148.773756 C359.065943,149.305197 358.577115,149.675836 358.043383,149.610928 C357.50965,149.546021 357.123905,149.069023 357.172089,148.533522 C357.220273,147.998021 357.684973,147.597546 358.221719,147.628959 C358.501481,147.645332 358.761382,147.778867 358.9376,147.99677 C359.113817,148.214673 359.190026,148.496759 359.147511,148.773756 Z" id="Path" fill="#FFFDF8"></path>
            <path d="M358.6,147.161086 L359.137557,147.161086 L359.286878,149.590045 C359.124553,149.892196 358.864993,150.13071 358.550226,150.266968 L358.6,147.161086 Z" id="Path" fill="#87B6EB" style="mix-blend-mode: lighten;"></path>
            <path d="M357.823529,148.972851 L358.659729,148.972851 C358.808171,148.972851 358.928507,148.852515 358.928507,148.704072 C358.928507,148.55563 358.808171,148.435294 358.659729,148.435294 L357.823529,148.435294 C357.675087,148.435294 357.554751,148.55563 357.554751,148.704072 C357.554751,148.852515 357.675087,148.972851 357.823529,148.972851 L357.823529,148.972851 Z" id="Path" fill="#63879C"></path>
            <path d="M355.195475,171.052489 L360.98914,171.052489 C361.024919,171.031862 361.047506,170.994217 361.048869,170.952941 C361.048869,170.704072 359.724887,170.504977 358.062443,170.495023 C356.4,170.485068 355.076018,170.694118 355.076018,170.942986 C355.135747,171.052489 355.165611,171.052489 355.195475,171.052489 Z" id="Path" fill="#C3D0DA" style="mix-blend-mode: multiply;"></path>
            <path d="M356.728507,146.165611 L356.728507,146.165611 C356.857919,146.364706 356.967421,146.235294 356.947511,146.563801 L359.495928,146.563801 C359.495928,146.245249 359.58552,146.374661 359.714932,146.175566 L356.728507,146.175566 L356.728507,146.165611 Z" id="Path" fill="#C3D0DA" style="mix-blend-mode: multiply;"></path>
            <path d="M360.929412,162.919457 C360.929431,163.646325 360.639328,164.343135 360.12349,164.855236 C359.607651,165.367337 358.908749,165.652364 358.1819,165.647132 L358.1819,165.647132 C357.455854,165.644423 356.760592,165.353473 356.249066,164.838213 C355.73754,164.322954 355.451654,163.625594 355.45428,162.899548 L355.45428,160.908597 C355.459782,159.395078 356.68828,158.171041 358.20181,158.171041 L358.20181,158.171041 C359.71533,158.176525 360.939367,159.405023 360.939367,160.918552 L360.929412,162.919457 Z" id="Path" fill="#EFF2F3"></path>
            <path d="M358.20181,159.027105 C358.709631,159.023686 359.197512,159.224578 359.555656,159.584615 C359.906822,159.943782 360.10336,160.426194 360.103168,160.928507 L360.103168,162.919457 C360.098705,163.686319 359.633991,164.375432 358.924698,164.666982 C358.215405,164.958532 357.400399,164.795439 356.857919,164.253394 C356.504572,163.899725 356.307417,163.419383 356.310374,162.919457 L356.310374,160.928507 C356.31585,159.886177 357.15948,159.042547 358.20181,159.037104 M358.20181,158.509502 C356.87034,158.520328 355.793631,159.597037 355.782788,160.928507 L355.782788,162.919457 C355.780343,163.564598 356.034637,164.184215 356.489593,164.641629 C356.937705,165.098294 357.552072,165.353381 358.191855,165.348416 L358.191855,165.348416 C359.525596,165.348487 360.609882,164.273062 360.620814,162.939367 L360.620814,160.948416 C360.620814,159.606939 359.533332,158.519457 358.191855,158.519457 L358.20181,158.509502 Z" id="Shape" fill="#63879C"></path>
            <path d="M358.191855,162.959276 C357.792701,162.962692 357.394703,162.915868 357.00724,162.81991 L357.116742,162.322172 C357.81512,162.476359 358.538726,162.476359 359.237104,162.322172 L359.346606,162.829864 C358.967201,162.912824 358.580212,162.956194 358.191855,162.959276 L358.191855,162.959276 Z" id="Path" fill="#009BDB"></path>
            <path d="M358.152036,161.157466 C358.553794,161.156158 358.95445,161.199562 359.346606,161.286878 L359.227149,161.79457 C358.532144,161.640245 357.811747,161.640245 357.116742,161.79457 L357.00724,161.286878 C357.383274,161.203891 357.766966,161.160517 358.152036,161.157466 Z" id="Path" fill="#009BDB"></path>
            <ellipse id="Oval" fill="#FAFAFA" cx="358.032579" cy="138.142081" rx="3.0959276" ry="3.9321267"></ellipse>
            <rect id="Rectangle" fill="#003A5D" x="357.295928" y="138.480543" width="1.47330317" height="1"></rect>
            <rect id="Rectangle" fill="#003A5D" x="356.688688" y="137.295928" width="2.68778281" height="1"></rect>
            <rect id="Rectangle" fill="#194D6D" x="299.568326" y="231.258824" width="29.5954751" height="20.2877828"></rect>
            <rect id="Rectangle" fill="#009BDB" x="303.01267" y="234.484163" width="22.7067873" height="17.0624434"></rect>
            <rect id="Rectangle" fill="#194D6D" x="329.163801" y="237.241629" width="11.6968326" height="14.2950226"></rect>
            <rect id="Rectangle" fill="#009BDB" x="329.163801" y="239.511312" width="8.27239819" height="12.0253394"></rect>
            <rect id="Rectangle" fill="#009BDB" x="350.078733" y="187.666968" width="10.1140271" height="44.7565611"></rect>
            <path d="M357.723982,220.278733 C357.723982,217.999095 358.649774,216.376471 357.066968,214.037104 C356.408275,213.149758 356.096714,212.052212 356.19095,210.951131 L356.300452,210.732127 L356.409955,210.523077 L356.240724,210.244344 L356.240724,209.975566 L356.459729,209.756561 L356.459729,208.950226 C356.459729,208.512217 356.141176,208.571946 356.141176,208.571946 L354.150226,208.571946 C354.150226,208.571946 353.821719,208.512217 353.821719,208.950226 L353.821719,209.756561 L354.040724,209.975566 L354.040724,210.244344 L353.881448,210.523077 L353.99095,210.732127 L354.100452,210.951131 C354.188286,212.051589 353.877352,213.146924 353.224434,214.037104 C351.641629,216.376471 352.567421,218.019005 352.567421,220.278733 C352.567421,221.841629 351.571946,223.693213 351.970136,226.938462 C352.089593,228.013575 352.507692,228.242534 353.114932,228.242534 C353.722172,228.242534 353.274208,227.645249 353.931222,227.645249 C354.588235,227.645249 354.120362,228.133032 354.926697,228.302262 C354.926697,228.302262 354.926697,228.352036 354.99638,228.352036 L355.39457,228.352036 C355.39457,228.352036 355.39457,228.352036 355.464253,228.302262 C356.230769,228.133032 356.031674,227.645249 356.599095,227.645249 C357.166516,227.645249 356.599095,228.242534 357.236199,228.242534 C357.873303,228.242534 358.231674,228.013575 358.380995,226.938462 C358.699548,223.693213 357.723982,221.821719 357.723982,220.278733 Z" id="Path" fill="#EFF2F3"></path>
            <circle id="Oval" fill="#BDE5F6" cx="353.552941" cy="206.113122" r="1"></circle>
            <circle id="Oval" fill="#BDE5F6" cx="355.942081" cy="202.997285" r="1"></circle>
            <circle id="Oval" fill="#BDE5F6" cx="352.059729" cy="191.41991" r="1.29411765"></circle>
            <circle id="Oval" fill="#BDE5F6" cx="357.236199" cy="190.952036" r="1.62262443"></circle>
            <circle id="Oval" fill="#BDE5F6" cx="354.976471" cy="196.257919" r="1.09502262"></circle>
            <circle id="Oval" fill="#BDE5F6" cx="353.224434" cy="200.80724" r="1"></circle>
            <circle id="Oval" fill="#BDE5F6" cx="358.669683" cy="197.950226" r="1.06515837"></circle>
            <circle id="Oval" fill="#BDE5F6" cx="355.573756" cy="199.911312" r="1"></circle>
            <circle id="Oval" fill="#BDE5F6" cx="356.041629" cy="206.21267" r="1"></circle>
            <circle id="Oval" fill="#BDE5F6" cx="355.215385" cy="207.506787" r="1"></circle>
            <circle id="Oval" fill="#BDE5F6" cx="352.428054" cy="196.427149" r="1"></circle>
            <circle id="Oval" fill="#BDE5F6" cx="353.055204" cy="190.026244" r="1.42352941"></circle>
            <circle id="Oval" fill="#BDE5F6" cx="358.500452" cy="189.827149" r="1.16470588"></circle>
            <circle id="Oval" fill="#BDE5F6" cx="354.847059" cy="193.341176" r="1.09502262"></circle>
            <circle id="Oval" fill="#BDE5F6" cx="358.430769" cy="195.332127" r="1"></circle>
            <circle id="Oval" fill="#BDE5F6" cx="356.141176" cy="198.487783" r="1"></circle>
            <circle id="Oval" fill="#BDE5F6" cx="358.002715" cy="202.4" r="1"></circle>
            <circle id="Oval" fill="#BDE5F6" cx="351.631674" cy="199.284163" r="1"></circle>
            <circle id="Oval" fill="#BDE5F6" cx="354.478733" cy="203.325792" r="1"></circle>
            <circle id="Oval" fill="#BDE5F6" cx="352.089593" cy="202.599095" r="1"></circle>
            <circle id="Oval" fill="#BDE5F6" cx="351.890498" cy="194.167421" r="1.12488688"></circle>
            <circle id="Oval" fill="#BDE5F6" cx="358.500452" cy="191.947511" r="1.16470588"></circle>
            <circle id="Oval" fill="#BDE5F6" cx="357.037104" cy="201.036199" r="1"></circle>
            <circle id="Oval" fill="#BDE5F6" cx="354.279638" cy="207.775566" r="1"></circle>
            <circle id="Oval" fill="#BDE5F6" cx="356.310407" cy="207.745701" r="1"></circle>
            <circle id="Oval" fill="#BDE5F6" cx="357.863348" cy="204.191855" r="1"></circle>
            <circle id="Oval" fill="#BDE5F6" cx="358.331222" cy="199.881448" r="1"></circle>
            <circle id="Oval" fill="#BDE5F6" cx="351.064253" cy="197.79095" r="1"></circle>
            <circle id="Oval" fill="#BDE5F6" cx="353.154751" cy="198.219005" r="1"></circle>
            <circle id="Oval" fill="#BDE5F6" cx="356.668778" cy="194.764706" r="1"></circle>
            <circle id="Oval" fill="#BDE5F6" cx="354.379186" cy="202.031674" r="1"></circle>
            <circle id="Oval" fill="#BDE5F6" cx="352.029864" cy="204.460633" r="1"></circle>
            <circle id="Oval" fill="#BDE5F6" cx="353.851584" cy="204.819005" r="1"></circle>
            <rect id="Rectangle" fill="#BDE5F6" x="350.078733" y="187.666968" width="10.1140271" height="3.38461538"></rect>
            <circle id="Oval" fill="#BDE5F6" cx="350.795475" cy="191.021719" r="1"></circle>
            <circle id="Oval" fill="#BDE5F6" cx="354.916742" cy="190.952036" r="1"></circle>
            <circle id="Oval" fill="#BDE5F6" cx="359.525792" cy="191.051584" r="1"></circle>
            <circle id="Oval" fill="#BDE5F6" cx="359.366516" cy="193.80905" r="1"></circle>
            <circle id="Oval" fill="#BDE5F6" cx="357.206335" cy="193.311312" r="1"></circle>
            <rect id="Rectangle" fill="#003A5D" x="353.264253" y="217.083258" width="3.74298643" height="1" rx="0.21"></rect>
            <rect id="Rectangle" fill="#003A5D" x="353.971041" y="218.427149" width="2.09049774" height="1" rx="0.21"></rect>
            <polygon id="Path" fill="url(#linearGradient-5)" opacity="0.23" style="mix-blend-mode: screen;" points="324.066968 251.516742 307.01448 234.464253 303.042534 234.464253 303.042534 242 312.559276 251.516742"></polygon>
            <rect id="Rectangle" fill="#194D6D" x="309.632579" y="234.026244" width="1" height="17.5900452"></rect>
            <rect id="Rectangle" fill="#194D6D" x="302.057014" y="236.057014" width="23.9013575" height="1"></rect>
            <rect id="Rectangle" fill="#194D6D" x="318.940271" y="234.026244" width="1" height="17.5900452"></rect>
            <rect id="Rectangle" fill="#C3D0DA" style="mix-blend-mode: multiply;" x="329.123982" y="237.251584" width="3.4841629" height="14.2850679"></rect>
            <rect id="Rectangle" fill="#194D6D" x="287.891403" y="237.241629" width="11.6968326" height="14.2950226"></rect>
            <rect id="Rectangle" fill="#009BDB" x="291.305882" y="239.511312" width="8.27239819" height="12.0253394"></rect>
            <rect id="Rectangle" fill="#C3D0DA" style="mix-blend-mode: multiply;" x="296.094118" y="237.251584" width="3.4841629" height="14.2850679"></rect>
            <polygon id="Path" fill="#CCD8DF" style="mix-blend-mode: multiply;" points="266.170136 145.2 266.170136 153.074208 100.38371 137.086878 103.290498 145.538462 266.170136 161.326697 266.170136 251.317647 279.847964 251.317647 279.847964 146.464253"></polygon>
            <rect id="Rectangle" fill="#C3D0DA" style="mix-blend-mode: multiply;" x="170.972851" y="220.846154" width="11.039819" height="30.8099548"></rect>
            <rect id="Rectangle" fill="#EFF2F3" x="84.3864253" y="225.445249" width="86.8153846" height="26.240724"></rect>
            <rect id="Rectangle" fill="#009BDB" x="91.7330317" y="228.561086" width="74.0036199" height="18.5457014"></rect>
            <g id="Group" style="mix-blend-mode: screen;" transform="translate(91.583710, 227.963801)" opacity="0.23">
                <polygon id="Path" fill="url(#linearGradient-6)" style="mix-blend-mode: screen;" points="22.6371041 19.1429864 11.199095 19.1429864 0.149321267 8.09321267 0.149321267 0.597285068 4.10135747 0.597285068"></polygon>
                <polygon id="Path" fill="url(#linearGradient-7)" style="mix-blend-mode: screen;" points="49.2959276 19.1429864 37.8579186 19.1429864 19.3221719 0.597285068 30.760181 0.597285068"></polygon>
                <polygon id="Path" fill="url(#linearGradient-8)" style="mix-blend-mode: screen;" points="73.2769231 19.1429864 61.838914 19.1429864 43.2932127 0.597285068 54.7411765 0.597285068"></polygon>
            </g>
            <path d="M166.682353,248.052489 L90.7873303,248.052489 L90.7873303,227.625339 L166.682353,227.625339 L166.682353,248.052489 Z M91.7330317,247.057014 L165.736652,247.057014 L165.736652,228.571041 L91.7330317,228.571041 L91.7330317,247.057014 Z" id="Shape" fill="#003A5D"></path>
            <rect id="Rectangle" fill="#003A5D" x="98.561991" y="228.093213" width="1" height="19.481448"></rect>
            <rect id="Rectangle" fill="#003A5D" x="106.008145" y="228.093213" width="1" height="19.481448"></rect>
            <rect id="Rectangle" fill="#003A5D" x="113.464253" y="228.093213" width="1" height="19.481448"></rect>
            <rect id="Rectangle" fill="#003A5D" x="120.910407" y="228.093213" width="1" height="19.481448"></rect>
            <rect id="Rectangle" fill="#003A5D" x="128.356561" y="228.093213" width="1" height="19.481448"></rect>
            <rect id="Rectangle" fill="#003A5D" x="135.81267" y="228.093213" width="1" height="19.481448"></rect>
            <rect id="Rectangle" fill="#003A5D" x="143.258824" y="228.093213" width="1" height="19.481448"></rect>
            <rect id="Rectangle" fill="#003A5D" x="150.704977" y="228.093213" width="1" height="19.481448"></rect>
            <rect id="Rectangle" fill="#003A5D" x="158.161086" y="228.093213" width="1" height="19.481448"></rect>
            <rect id="Rectangle" fill="#003A5D" x="90.7873303" y="234.703167" width="75.8950226" height="1"></rect>
            <rect id="Rectangle" fill="#023852" x="83.759276" y="220.915837" width="88.4479638" height="4.51945701"></rect>
            <rect id="Rectangle" fill="#C3D0DA" style="mix-blend-mode: multiply;" x="141.536652" y="213.320362" width="4.71855204" height="7.64524887"></rect>
            <rect id="Rectangle" fill="#FFE700" x="104.047059" y="208.462443" width="37.6090498" height="12.4633484"></rect>
            <path d="M111.154751,211.538462 C109.580503,211.43842 108.138459,212.417535 107.650679,213.917647 C107.620607,214.04639 107.650295,214.181828 107.731463,214.286187 C107.812631,214.390546 107.936594,214.45266 108.068778,214.455206 L114.230769,214.455206 C114.364705,214.455665 114.49149,214.394821 114.574923,214.290045 C114.658356,214.185269 114.689264,214.048078 114.658824,213.917647 C114.171043,212.417535 112.728999,211.43842 111.154751,211.538462" id="Path" fill="#009BDB"></path>
            <path d="M111.154751,217.839819 C112.896833,217.839819 114.350226,217.969231 114.658824,216.60543 C114.685775,216.476453 114.653233,216.342195 114.570217,216.239873 C114.4872,216.137551 114.362532,216.078037 114.230769,216.077824 L108.068778,216.077824 C107.937425,216.077281 107.813092,216.137073 107.73151,216.240022 C107.649928,216.342971 107.62013,216.477677 107.650679,216.60543 C107.959276,217.969231 109.41267,217.839819 111.154751,217.839819" id="Path" fill="#009BDB"></path>
            <path d="M115.00724,215.301357 C115.00724,215.581748 114.779938,215.80905 114.499548,215.80905 L107.919457,215.80905 C107.639066,215.80905 107.411765,215.581748 107.411765,215.301357 L107.411765,215.301357 C107.411765,215.020967 107.639066,214.793665 107.919457,214.793665 L114.479638,214.793665 C114.760029,214.793665 114.98733,215.020967 114.98733,215.301357 L115.00724,215.301357 Z" id="Path" fill="#009BDB"></path>
            <rect id="Rectangle" fill="#009BDB" x="117.704977" y="213.569231" width="19.6307692" height="2.50859729"></rect>
            <path d="M299.259729,103.061538 C299.501412,103.062006 299.701886,102.874654 299.717647,102.633484 L299.936652,102.633484 C300.020251,102.633528 300.100291,102.599652 300.158459,102.539607 C300.216627,102.479563 300.247946,102.398488 300.245249,102.314932 C300.246546,102.172433 300.153044,102.046408 300.01629,102.006335 L301.877828,98.0244344 L304.047964,98.0244344 C304.426244,98.0244344 305.630769,97.7058824 305.620876,97.3276018 C305.61086,96.9493213 304.41629,96.640724 304.038009,96.640724 L301.907692,96.640724 L299.916742,92.5891403 C300.053496,92.5490667 300.146999,92.4230419 300.145701,92.280543 C300.145701,92.1046116 300.003081,91.961991 299.827149,91.961991 L299.638009,91.961991 C299.617043,91.7208824 299.412075,91.5377202 299.170136,91.5438914 C298.821719,91.5438914 298.542986,91.6932127 298.493213,91.9819005 C298.34133,92.0090692 298.230753,92.1411814 298.230753,92.2954751 C298.230753,92.4497689 298.34133,92.581881 298.493213,92.6090498 L298.493213,92.6090498 C298.672398,93.6045249 299.080543,95.9936652 299.2,96.6606335 L295.685973,96.6606335 C295.2606,96.7402008 294.841439,96.8499811 294.431674,96.9891403 L294.431674,96.9891403 L294.431674,96.3918552 C294.416229,96.2856306 294.319355,96.2107733 294.21267,96.2226244 L293.824434,96.2226244 C293.73316,96.2032755 293.639274,96.2412474 293.587114,96.3186084 C293.534954,96.3959695 293.534954,96.4972432 293.587114,96.5746042 C293.639274,96.6519652 293.73316,96.6899372 293.824434,96.6705882 L294.00362,96.6705882 L294.00362,97.9647059 L293.824434,97.9647059 C293.755704,97.9563114 293.686475,97.9758063 293.632224,98.0188327 C293.577974,98.061859 293.543225,98.1248287 293.535747,98.1936652 C293.556303,98.3330876 293.684629,98.4304381 293.824434,98.4126697 L294.21267,98.4126697 C294.319355,98.4245208 294.416229,98.3496636 294.431674,98.2434389 L294.431674,97.7457014 L294.431674,97.7457014 C294.847338,97.8630213 295.269467,97.9560891 295.695928,98.0244344 L299.190045,98.0244344 C299.070588,98.7809955 298.712217,101.01086 298.552941,102.006335 L298.552941,102.006335 C298.37701,102.006335 298.234389,102.148955 298.234389,102.324887 C298.233663,102.489786 298.358902,102.627981 298.523077,102.643439 C298.642534,102.922172 298.911312,103.071493 299.259729,103.061538 Z" id="Path" fill="#EFF2F3"></path>
            <rect id="Rectangle" fill="#E5EBEF" x="348.157466" y="134.269683" width="1.31402715" height="1.19457014"></rect>
            <rect id="Rectangle" fill="#E5EBEF" x="348.157466" y="171.58009" width="1.31402715" height="1.19457014"></rect>
            <rect id="Rectangle" fill="#E5EBEF" x="348.157466" y="191.021719" width="1.94117647" height="1.19457014"></rect>
            <rect id="Rectangle" fill="#E5EBEF" x="348.157466" y="228.322172" width="1.94117647" height="1.19457014"></rect>
            <path d="M64.5764706,223.085973 C63.4768991,223.085973 62.5855204,223.977352 62.5855204,225.076923 L62.5855204,228.640724 L63.4615385,228.640724 L63.4615385,225.076923 C63.4615385,224.466661 63.9562537,223.971946 64.5665158,223.971946 C65.176778,223.971946 65.6714932,224.466661 65.6714932,225.076923 L65.6714932,251.476923 L66.5475113,251.476923 L66.5475113,225.066968 C66.5421257,223.979007 65.6643911,223.096839 64.5764706,223.085973 Z" id="Path" fill="#33617E"></path>
            <rect id="Rectangle" fill="#33617E" x="61.9683258" y="228.162896" width="2.14027149" height="2.14027149" rx="1.02"></rect>
            <path d="M27.6244344,233.488688 L30.9095023,233.488688 C31.6369951,233.483539 32.3336444,233.194161 32.8506787,232.682353 L33.5972851,231.935747 C34.1251004,231.409014 34.4161513,230.69037 34.4036199,229.944796 L34.4036199,229.944796 C34.402269,229.215998 34.6926347,228.51697 35.2099548,228.00362 L36.6932127,226.520362 C37.2171851,225.991089 37.5075512,225.274135 37.4997087,224.529412 L37.4997087,220.039819 C37.5053437,219.295515 37.2153078,218.579377 36.6932127,218.048869 L32.2633484,213.628959 C31.7366156,213.101144 31.0179714,212.810093 30.2723982,212.822624 L23.3040724,212.822624 C22.5584991,212.810093 21.839855,213.101144 21.3131222,213.628959 L17.3312217,217.61086 C16.8034064,218.137593 16.5123555,218.856237 16.5248869,219.60181 L16.5248869,226.082353 C16.5257393,226.810712 16.8157676,227.508928 17.3312217,228.023529 L21.9303167,232.622624 C22.4553835,233.154091 23.1742369,233.448821 23.921267,233.438914 L27.6244344,233.488688 Z" id="Path" fill="#CCD8DF"></path>
            <path d="M36.6932127,218.168326 L32.2633484,213.748416 C31.7366156,213.220601 31.0179714,212.92955 30.2723982,212.942081 L23.3040724,212.942081 C22.5584991,212.92955 21.839855,213.220601 21.3131222,213.748416 L17.3312217,217.730317 C16.8034064,218.25705 16.5123555,218.975694 16.5248869,219.721267 L16.5248869,223.991855 C16.5123555,223.246282 16.8034064,222.527638 17.3312217,222.000905 L21.3131222,218.019005 C21.839855,217.491189 22.5584991,217.200138 23.3040724,217.21267 L30.2723982,217.21267 C31.0179714,217.200138 31.7366156,217.491189 32.2633484,218.019005 L36.6932127,222.438914 C37.2153078,222.969422 37.5053437,223.68556 37.4996327,224.429864 L37.4996327,220.159276 C37.5053437,219.414972 37.2153078,218.698834 36.6932127,218.168326 L36.6932127,218.168326 Z" id="Path" fill="#E5EBEF"></path>
            <path d="M14.2552036,222.548416 L9.89502262,222.548416 C9.36926738,222.547997 8.86468889,222.755554 8.49140271,223.125792 L7.38642534,224.230769 C7.01618733,224.604055 6.80863022,225.108634 6.80904914,225.634389 L6.80904914,230.830769 C6.81124902,231.353075 7.01860891,231.853599 7.38642534,232.224434 L10.4923077,235.340271 C10.8566222,235.706955 11.3492645,235.917577 11.8660633,235.927602 L15.4497738,235.977376 C15.9858516,235.985779 16.5026618,235.77762 16.8832579,235.4 L19.4615385,232.811765 C19.8330057,232.442546 20.0440242,231.941824 20.0488688,231.4181 L20.0488688,228.342081 C20.0466461,227.814901 19.8354268,227.310122 19.4615385,226.938462 L15.6488688,223.125792 C15.2780331,222.757975 14.7775093,222.550616 14.2552036,222.548416 Z" id="Path" fill="#99B0BE"></path>
            <path d="M19.4615385,226.938462 L15.6488688,223.125792 C15.2780331,222.757975 14.7775093,222.550616 14.2552036,222.548416 L9.89502262,222.548416 C9.36926738,222.547997 8.86468889,222.755554 8.49140271,223.125792 L7.38642534,224.230769 C7.01618733,224.604055 6.80863022,225.108634 6.80904914,225.634389 L6.80904914,229.098643 C6.80863022,228.572887 7.01618733,228.068309 7.38642534,227.695023 L8.49140271,226.590045 C8.86468889,226.219807 9.36926738,226.01225 9.89502262,226.01267 L14.2552036,226.01267 C14.7775093,226.014869 15.2780331,226.222229 15.6488688,226.590045 L19.4615385,230.402715 C19.7833102,230.727205 19.9836606,231.15251 20.0289935,231.60724 C20.0289935,231.547511 20.0289935,231.477828 20.0289935,231.4181 L20.0289935,228.342081 C20.0320309,227.817743 19.8281317,227.313361 19.4615385,226.938462 L19.4615385,226.938462 Z" id="Path" fill="#B2C4CE"></path>
            <rect id="Rectangle" fill="#33617E" x="27.1366516" y="221.961086" width="1" height="29.6452489"></rect>
            <path d="M27.2063348,230.034389 C27.1507875,230.034137 27.0974115,230.012786 27.0570136,229.974661 L23.3239819,226.241629 C23.2607423,226.188335 23.232917,226.103963 23.2520463,226.023504 C23.2711755,225.943046 23.3339964,225.880225 23.4144547,225.861096 C23.4949131,225.841967 23.5792854,225.869792 23.6325792,225.933032 L27.3656109,229.656109 C27.4094532,229.697484 27.4343019,229.755101 27.4343019,229.815385 C27.4343019,229.875668 27.4094532,229.933285 27.3656109,229.974661 C27.3221593,230.014286 27.2651272,230.035673 27.2063348,230.034389 L27.2063348,230.034389 Z" id="Path" fill="#33617E"></path>
            <path d="M27.4552036,225.076923 C27.3638235,225.080751 27.2796869,225.02739 27.2441951,224.943097 C27.2087033,224.858804 27.2293309,224.761331 27.2959276,224.698643 L28.918552,223.085973 C28.9599273,223.042131 29.0175449,223.017282 29.0778281,223.017282 C29.1381113,223.017282 29.1957288,223.042131 29.2371041,223.085973 C29.3168397,223.173387 29.3168397,223.307156 29.2371041,223.39457 L27.6144796,225.017195 C27.5710281,225.05682 27.5139959,225.078207 27.4552036,225.076923 L27.4552036,225.076923 Z" id="Path" fill="#33617E"></path>
            <rect id="Rectangle" fill="#33617E" x="13.279638" y="228.620814" width="1" height="23.0054299"></rect>
            <path d="M13.5683258,232.712217 C13.4814116,232.706921 13.4050245,232.652783 13.3712343,232.572531 C13.337444,232.492279 13.3521003,232.399807 13.4090498,232.333937 L15.2506787,230.492308 C15.292054,230.448465 15.3496715,230.423617 15.4099548,230.423617 C15.470238,230.423617 15.5278555,230.448465 15.5692308,230.492308 C15.6489664,230.579722 15.6489664,230.713491 15.5692308,230.800905 L13.7276018,232.642534 C13.6871441,232.687784 13.6290165,232.713214 13.5683258,232.712217 Z" id="Path" fill="#33617E"></path>
            <path d="M13.4190045,231.617195 C13.3630463,231.619168 13.3088436,231.597487 13.2696833,231.557466 L11.4479638,229.895023 C11.4041215,229.853647 11.3792727,229.79603 11.3792727,229.735747 C11.3792727,229.675463 11.4041215,229.617846 11.4479638,229.576471 C11.5333605,229.491689 11.6711644,229.491689 11.7565611,229.576471 L13.5782805,231.248869 C13.6630619,231.334265 13.6630619,231.472069 13.5782805,231.557466 C13.5367943,231.600196 13.4783577,231.62211 13.4190045,231.617195 Z" id="Path" fill="#33617E"></path>
            <path d="M410.494118,249.306787 L410.593665,248.371041 C410.682944,247.465666 411.313286,246.705316 412.186425,246.449774 L412.186425,246.449774 C413.360841,246.105009 414.56905,245.888066 415.790045,245.802715 L419.294118,245.563801 L421.105882,244.498643 C422.655211,243.581516 424.422198,243.096798 426.222624,243.095023 L426.650679,243.095023 C428.974408,243.096774 431.278381,243.521812 433.449774,244.349321 L435.510407,245.125792 L437.760181,245.324887 C438.405816,245.380329 438.907013,245.911512 438.924887,246.559276 L439.004525,248.550226 C439.033858,249.282212 438.527847,249.927376 437.809955,250.073303 L435.400905,250.561086 L412.285973,250.561086 L411.121267,250.232579 C410.716831,250.114888 410.453409,249.726027 410.494118,249.306787 Z" id="Path" fill="#FFE700"></path>
            <path d="M418.099548,250.561086 L418.099548,249.695023 C418.099548,248.304065 416.971953,247.176471 415.580995,247.176471 L415.580995,247.176471 C414.190038,247.176471 413.062443,248.304065 413.062443,249.695023 L413.062443,250.561086 L418.099548,250.561086 Z" id="Path" fill="#00182B"></path>
            <path d="M417.571946,249.515837 C417.571946,250.615409 416.680567,251.506787 415.580995,251.506787 C414.481424,251.506787 413.590045,250.615409 413.590045,249.515837 C413.590045,248.416266 414.481424,247.524887 415.580995,247.524887 C416.680567,247.524887 417.571946,248.416266 417.571946,249.515837 Z" id="Path" fill="#003A5D"></path>
            <circle id="Oval" fill="#96A6AE" cx="415.551131" cy="249.515837" r="1.3040724"></circle>
            <path d="M435.400905,250.561086 L435.709502,250.501357 L435.709502,249.695023 C435.70402,248.302456 434.573573,247.176471 433.180995,247.176471 L433.180995,247.176471 C431.790038,247.176471 430.662443,248.304065 430.662443,249.695023 L430.662443,250.561086 L435.400905,250.561086 Z" id="Path" fill="#00182B"></path>
            <path d="M435.20181,249.515837 C435.20181,250.615409 434.310431,251.506787 433.21086,251.506787 C432.111288,251.506787 431.21991,250.615409 431.21991,249.515837 C431.21991,248.416266 432.111288,247.524887 433.21086,247.524887 C434.310431,247.524887 435.20181,248.416266 435.20181,249.515837 Z" id="Path" fill="#003A5D"></path>
            <path d="M420.289593,245.713122 C420.235626,245.711867 420.188108,245.677245 420.170374,245.62626 C420.15264,245.575275 420.168416,245.518638 420.209955,245.484163 C421.382733,244.526677 422.786989,243.894934 424.281448,243.652489 C426.361003,243.29506 428.494366,243.410745 430.523077,243.99095 C431.448313,244.284331 432.350114,244.647048 433.220814,245.076018 C433.287992,245.111559 433.323237,245.187524 433.306996,245.261768 C433.290755,245.336012 433.227012,245.390323 433.151131,245.39457 L420.289593,245.713122 Z" id="Path" fill="#003A5D"></path>
            <circle id="Oval" fill="#96A6AE" cx="433.180995" cy="249.515837" r="1.3040724"></circle>
            <path d="M354.727602,243.861538 L354.657919,244.130317 L354.657919,244.130317 L354.657919,244.209955 L354.568326,244.309502 L354.568326,244.309502 C354.568326,244.309502 354.568326,244.309502 354.568326,244.309502 L354.568326,244.369231 L354.568326,244.369231 L354.6181,244.498643 L354.6181,244.498643 L354.80724,244.498643 L354.80724,244.498643 L354.80724,244.558371 L354.976471,244.757466 C354.976471,244.757466 354.976471,244.757466 355.026244,244.757466 L355.41448,244.438914 C355.41448,244.438914 355.41448,244.438914 355.41448,244.438914 L355.354751,244.299548 L355.354751,244.299548 L355.304977,243.921267 L355.304977,243.921267 L354.986425,243.742081 L354.986425,243.742081 L354.767421,243.602715 L354.767421,243.602715 L354.717647,243.602715 L354.727602,243.861538 Z" id="Path" fill="#009BDB"></path>
            <path d="M354.757466,244.717647 L354.707692,244.578281 L354.707692,244.578281 L354.707692,244.508597 L354.707692,244.508597 L354.80724,244.40905 C354.80724,244.40905 354.80724,244.40905 354.80724,244.40905 L354.80724,244.329412 L354.80724,244.329412 L354.876923,244.070588 L354.876923,244.070588 L354.827149,244.070588 L354.747511,244.070588 L354.747511,244.070588 L354.677828,244.339367 L354.677828,244.339367 L354.677828,244.419005 L354.588235,244.528507 L354.588235,244.528507 C354.588235,244.528507 354.588235,244.528507 354.588235,244.528507 L354.588235,244.588235 L354.588235,244.588235 L354.638009,244.727602 L354.638009,244.727602 L354.727602,244.727602 L354.757466,244.717647 Z" id="Path" fill="#38B1E3"></path>
            <polygon id="Path" fill="#38B1E3" points="355.01629 244.876923 355.01629 244.80724 355.01629 244.80724 354.936652 244.80724 354.936652 244.886878 355.105882 245.085973 355.105882 245.085973"></polygon>
            <path d="M353.562896,247.40543 L353.463348,247.40543 L353.523077,247.166516 C353.535641,247.102788 353.587961,247.054493 353.652489,247.047059 L354.060633,246.98733 L354.060633,247.086878 L353.652489,247.146606 C353.652489,247.146606 353.652489,247.146606 353.652489,247.146606 L353.562896,247.40543 Z" id="Path" fill="#AFBBC1"></path>
            <path d="M353.562896,247.40543 L353.463348,247.40543 L353.523077,247.166516 C353.535641,247.102788 353.587961,247.054493 353.652489,247.047059 L354.060633,246.98733 L354.060633,247.086878 L353.652489,247.146606 C353.652489,247.146606 353.652489,247.146606 353.652489,247.146606 L353.562896,247.40543 Z" id="Path" fill="url(#linearGradient-9)"></path>
            <circle id="Oval" fill="#96A6AE" cx="353.393665" cy="251.2181" r="1"></circle>
            <circle id="Oval" fill="#303436" cx="353.393665" cy="251.2181" r="1"></circle>
            <circle id="Oval" fill="#96A6AE" cx="350.78552" cy="251.2181" r="1"></circle>
            <circle id="Oval" fill="#303436" cx="350.78552" cy="251.2181" r="1"></circle>
            <path d="M353.393665,250.919457 L350.59638,250.919457 L350.59638,250.809955 L353.393665,250.809955 L353.393665,250.809955 L352.79638,249.436199 L352.895928,249.436199 L353.493213,250.809955 C353.517989,250.856645 353.517989,250.912586 353.493213,250.95929 C353.456048,250.959809 353.42021,250.945473 353.393665,250.919457 Z" id="Path" fill="#AFBBC1"></path>
            <path d="M354.847059,243.901357 L354.737557,243.901357 C354.737557,243.901357 354.737557,243.901357 354.737557,243.901357 L354.737557,243.831674 C354.737557,243.831674 354.737557,243.831674 354.737557,243.831674 L355.255204,243.702262 C355.255204,243.702262 355.255204,243.702262 355.255204,243.702262 L355.494118,243.702262 L355.494118,243.702262 L355.593665,243.871493 L355.593665,243.871493 L355.683258,243.941176 L355.683258,243.941176 L355.683258,244.349321 L355.504072,244.558371 L355.504072,244.558371 L355.374661,244.458824 L355.374661,244.18009 L355.304977,244.120362 L355.304977,244.120362 L355.225339,244.170136 L355.225339,244.170136 L355.225339,244.170136 L355.165611,244.170136 L355.165611,244.090498 L355.085973,244.01086 L355.085973,243.871493 L354.847059,243.901357 Z" id="Path" fill="#003A5D"></path>
            <path d="M354.737557,243.891403 L354.866968,243.891403 L355.255204,243.791855 L355.255204,243.791855 L355.484163,243.851584 L355.484163,243.851584 L355.58371,244.020814 L355.58371,244.020814 L355.643439,244.070588 L355.643439,243.901357 L355.553846,243.831674 L355.553846,243.831674 L355.454299,243.662443 L355.454299,243.662443 L355.215385,243.662443 C355.215385,243.662443 355.215385,243.662443 355.215385,243.662443 L354.697738,243.791855 C354.697738,243.791855 354.697738,243.791855 354.697738,243.791855 L354.697738,243.861538 C354.697738,243.861538 354.727602,243.891403 354.737557,243.891403 Z" id="Path" fill="#194D6D"></path>
            <polygon id="Path" fill="url(#linearGradient-10)" style="mix-blend-mode: multiply;" points="355.105882 244.448869 355.056109 244.588235 355.056109 244.588235 354.677828 244.717647 354.677828 244.717647 354.886878 244.717647 354.886878 244.717647 355.105882 244.6181 355.105882 244.6181 355.105882 244.428959"></polygon>
            <polygon id="Path" fill="url(#linearGradient-11)" style="mix-blend-mode: multiply;" points="355.195475 244.229864 355.135747 244.309502 355.135747 244.309502 355.135747 244.309502 355.135747 244.309502 355.18552 244.249774 355.18552 244.249774 355.18552 244.18009"></polygon>
            <path d="M354.638009,244.428959 C354.638009,244.428959 354.638009,244.428959 354.638009,244.428959 L354.638009,244.428959 C354.638009,244.428959 354.638009,244.428959 354.638009,244.428959 L354.687783,244.428959 C354.687783,244.428959 354.687783,244.428959 354.687783,244.428959 L354.638009,244.428959 Z" id="Path" fill="url(#linearGradient-12)" style="mix-blend-mode: multiply;"></path>
            <path d="M354.548416,251.098643 L354.548416,251.098643 L354.488688,251.098643 L354.090498,251.158371 C354.068503,251.14767 354.04281,251.14767 354.020814,251.158371 L353.951131,251.247964 C353.941336,251.278989 353.947319,251.312843 353.967156,251.33863 C353.986993,251.364418 354.018179,251.378885 354.050679,251.377376 L354.866968,251.377376 C354.914785,251.380614 354.959152,251.35238 354.976471,251.307692 L354.976471,251.108597 C354.976471,251.058824 354.976471,251.019005 354.886878,251.00905 L354.638009,251.00905 C354.638009,251.00905 354.568326,251.068778 354.548416,251.098643 Z" id="Path" fill="#003A5D"></path>
            <path d="M354.548416,251.088688 L354.548416,251.088688 L354.488688,251.088688 L354.090498,251.148416 C354.068503,251.137715 354.04281,251.137715 354.020814,251.148416 L353.961086,251.238009 C353.961086,251.297738 353.961086,251.367421 354.050679,251.367421 L354.866968,251.367421 C354.918682,251.373607 354.966423,251.338887 354.976471,251.287783 L354.976471,251.098643 C354.979315,251.073209 354.971147,251.047774 354.954027,251.028752 C354.936907,251.009729 354.912469,250.998937 354.886878,250.999095 L354.647964,250.999095 C354.599586,251.005801 354.560164,251.041282 354.548416,251.088688 L354.548416,251.088688 Z" id="Path" fill="url(#linearGradient-13)" style="mix-blend-mode: multiply;"></path>
            <path d="M354.638009,247.873303 L354.399095,248.6 L354.399095,248.6 L354.329412,249.466063 L354.329412,249.466063 L354.458824,250.740271 C354.449858,250.759172 354.449858,250.7811 354.458824,250.8 L354.458824,250.8 C354.479672,250.814959 354.492036,250.839046 354.492036,250.864706 C354.492036,250.890366 354.479672,250.914453 354.458824,250.929412 L354.458824,250.929412 C354.454609,250.945735 354.454609,250.962862 354.458824,250.979186 L354.458824,250.979186 C354.444598,251.003826 354.444598,251.034183 354.458824,251.058824 L354.628054,251.168326 L354.628054,251.168326 L354.99638,251.168326 C355.032562,251.166353 355.063993,251.14278 355.076018,251.108597 L355.076018,250.969231 L355.076018,250.969231 L355.076018,250.551131 L355.076018,250.551131 L354.767421,248.560181 L354.767421,248.560181 L354.767421,247.903167 C354.77517,247.884012 354.77517,247.862594 354.767421,247.843439 L354.767421,247.843439 C354.74804,247.825046 354.720727,247.817598 354.694692,247.823606 C354.668657,247.829614 354.64737,247.848277 354.638009,247.873303 Z" id="Path" fill="#36637F"></path>
            <path d="M354.80724,248.58009 L354.80724,247.913122 C354.816643,247.890846 354.816643,247.865715 354.80724,247.843439 L354.80724,247.843439 C354.77323,247.81302 354.721792,247.81302 354.687783,247.843439 L354.448869,248.570136 L354.448869,248.570136 L354.379186,249.436199 L354.379186,249.436199 L354.458824,250.292308 L355.155656,250.451584 L354.80724,248.58009 Z" id="Path" fill="url(#linearGradient-14)" style="mix-blend-mode: multiply;"></path>
            <path d="M355.095928,251.118552 L354.976471,251.208145 L354.976471,251.208145 L354.677828,251.208145 C354.658673,251.200396 354.637255,251.200396 354.6181,251.208145 L354.6181,251.208145 C354.597863,251.2331 354.594605,251.267772 354.609837,251.29606 C354.62507,251.324349 354.655809,251.340714 354.687783,251.337557 L355.81267,251.337557 C355.86215,251.337557 355.902262,251.297445 355.902262,251.247964 L355.902262,251.168326 C355.894254,251.131573 355.867943,251.101504 355.832579,251.088688 L355.225339,250.979186 C355.200444,250.956068 355.165107,250.947989 355.132639,250.95799 C355.100171,250.967992 355.075505,250.994555 355.067933,251.027673 C355.060361,251.060792 355.071032,251.095435 355.095928,251.118552 Z" id="Path" fill="#003A5D"></path>
            <path d="M355.095928,251.118552 L354.976471,251.208145 L354.976471,251.208145 L354.687783,251.208145 C354.665788,251.197443 354.640095,251.197443 354.6181,251.208145 L354.6181,251.208145 C354.597863,251.2331 354.594605,251.267772 354.609837,251.29606 C354.62507,251.324349 354.655809,251.340714 354.687783,251.337557 L355.822624,251.337557 C355.845589,251.337737 355.867514,251.327994 355.882772,251.31083 C355.898029,251.293665 355.905134,251.270749 355.902262,251.247964 L355.902262,251.168326 C355.902579,251.127954 355.872635,251.093733 355.832579,251.088688 L355.225339,250.969231 L355.095928,251.118552 Z" id="Path" fill="url(#linearGradient-15)" style="mix-blend-mode: multiply;"></path>
            <path d="M354.697738,247.913122 L354.767421,249.485973 L354.767421,249.485973 L355.125792,250.700452 L355.18552,250.700452 C355.208815,250.729547 355.208815,250.770906 355.18552,250.8 L355.095928,250.959276 C355.066853,250.989987 355.066853,251.038067 355.095928,251.068778 L355.543891,251.19819 L355.742986,251.19819 C355.786969,251.19819 355.822624,251.162535 355.822624,251.118552 L355.822624,250.690498 L355.663348,250.023529 L355.663348,250.023529 L355.58371,248.152036 C355.58371,248.152036 355.58371,248.152036 355.58371,248.102262 L355.494118,248.01267 L355.673303,247.763801 C355.695046,247.737894 355.695046,247.700115 355.673303,247.674208 L355.464253,247.395475 C355.432,247.370574 355.387005,247.370574 355.354751,247.395475 L354.687783,247.873303 C354.687975,247.887168 354.691383,247.900798 354.697738,247.913122 L354.697738,247.913122 Z" id="Path" fill="#36637F"></path>
            <path d="M355.623529,247.873303 L355.553846,247.972851 L355.60362,248.022624 C355.615243,248.051358 355.615243,248.083484 355.60362,248.112217 L355.60362,248.799095 L355.245249,248.520362 L355.245249,248.520362 L354.757466,248.520362 L354.757466,247.942986 C354.757466,247.942986 354.757466,247.942986 354.757466,247.942986 L355.533937,247.723982 L355.533937,247.723982 L355.623529,247.853394 C355.623529,247.853394 355.633484,247.863348 355.623529,247.873303 Z" id="Path" fill="url(#linearGradient-16)" style="mix-blend-mode: multiply;"></path>
            <path d="M355.01629,245.115837 L355.384615,244.717647 L355.384615,244.717647 L355.553846,244.717647 C355.553846,244.717647 355.553846,244.717647 355.553846,244.717647 L355.553846,244.886878 L355.553846,244.886878 L355.882353,245.354751 L355.882353,245.354751 L355.942081,246.230769 L355.942081,246.230769 L355.872398,247.80362 L355.354751,247.80362 C355.354751,247.80362 355.354751,247.80362 355.354751,247.80362 L355.354751,247.80362 C355.354751,247.80362 355.304977,247.80362 355.295023,247.80362 L355.295023,247.80362 L355.295023,247.80362 L354.677828,247.80362 C354.677828,247.80362 354.677828,247.80362 354.677828,247.80362 L354.677828,246.808145 L354.677828,246.808145 L355.076018,245.20543 L355.076018,245.20543 L355.076018,245.105882 L355.01629,245.115837 Z" id="Path" fill="#FFFFFF"></path>
            <path d="M355.733032,246.011765 L355.79276,246.011765 C355.79276,246.011765 355.862443,246.011765 355.852489,246.011765 L355.494118,246.947511 C355.494118,246.947511 355.494118,246.947511 355.494118,246.947511 L355.145701,247.00724 C355.145701,247.00724 355.145701,247.00724 355.145701,247.00724 L354.677828,247.733937 L354.677828,247.017195 C354.677828,247.017195 354.677828,247.017195 354.677828,247.017195 L355.464253,246.4 L355.643439,246.4 L355.733032,246.011765 Z" id="Path" fill="#E3F4FB" style="mix-blend-mode: multiply;"></path>
            <path d="M355.195475,246.310407 L355.195475,246.390045 C355.195475,246.390045 355.195475,246.390045 355.195475,246.390045 L354.359276,246.897738 L354.150226,246.778281 L354.01086,246.778281 L353.901357,246.957466 C353.901357,246.957466 353.901357,246.957466 353.901357,246.957466 L353.971041,247.106787 C353.971041,247.106787 353.971041,247.106787 353.971041,247.106787 L354.110407,247.106787 C354.110407,247.106787 354.110407,247.106787 354.110407,247.106787 L354.110407,247.106787 C354.110407,247.106787 354.110407,247.106787 354.110407,247.106787 L355.165611,246.828054 L355.165611,246.828054 L355.523982,246.599095 C355.523982,246.599095 355.523982,246.599095 355.523982,246.599095 L355.58371,246.320362 C355.58371,246.320362 355.58371,246.320362 355.58371,246.320362 L355.41448,246.270588 L355.225339,246.270588 C355.225339,246.270588 355.195475,246.300452 355.195475,246.310407 Z" id="Path" fill="#009BDB"></path>
            <path d="M355.593665,246.350226 L355.533937,246.350226 L355.533937,246.549321 L355.533937,246.549321 L355.175566,246.778281 L355.175566,246.778281 L354.120362,247.057014 L354.120362,247.057014 L354.120362,247.057014 L353.980995,247.057014 L353.980995,247.057014 L353.980995,247.057014 L353.980995,247.057014 L354.050679,247.206335 C354.050679,247.206335 354.050679,247.206335 354.050679,247.206335 L354.21991,247.206335 L355.265158,246.927602 L355.265158,246.927602 L355.623529,246.698643 L355.623529,246.698643 L355.673303,246.41991 C355.673303,246.41991 355.60362,246.350226 355.593665,246.350226 Z" id="Path" fill="url(#linearGradient-17)" style="mix-blend-mode: multiply;"></path>
            <path d="M355.095928,245.802715 L355.095928,246.260633 L355.095928,246.260633 L355.155656,246.260633 C355.155656,246.260633 355.155656,246.260633 355.155656,246.260633 L355.155656,246.340271 C355.155656,246.340271 355.155656,246.340271 355.155656,246.340271 L354.837104,246.529412 C354.837104,246.529412 354.837104,246.529412 354.837104,246.529412 L354.976471,246.031674 L355.046154,245.742986 L355.095928,245.802715 Z" id="Path" fill="#E3F4FB" style="mix-blend-mode: multiply;"></path>
            <path d="M355.613575,244.866968 L355.494118,244.986425 C355.477435,244.997492 355.467405,245.01618 355.467405,245.036199 C355.467405,245.056219 355.477435,245.074907 355.494118,245.085973 L355.932127,245.344796 L355.613575,244.866968 Z" id="Path" fill="#E3F4FB"></path>
            <path d="M350.646154,250.879638 L350.646154,251.048869 C350.636159,251.074474 350.636159,251.102902 350.646154,251.128507 L350.725792,251.208145 L350.725792,250.909502 L350.646154,250.879638 Z" id="Path" fill="#AFBBC1"></path>
            <path d="M353.244344,250.879638 L353.244344,251.048869 C353.234349,251.074474 353.234349,251.102902 353.244344,251.128507 L353.333937,251.208145 L353.333937,250.909502 L353.244344,250.879638 Z" id="Path" fill="#AFBBC1"></path>
            <path d="M353.393665,250.919457 L350.59638,250.919457 L350.59638,250.809955 L353.393665,250.809955 L353.393665,250.809955 L352.79638,249.436199 L352.895928,249.436199 L353.493213,250.809955 C353.517989,250.856645 353.517989,250.912586 353.493213,250.95929 C353.456048,250.959809 353.42021,250.945473 353.393665,250.919457 Z" id="Path" fill="url(#linearGradient-18)"></path>
            <path d="M353.483258,247.275998 L350.606335,247.465158 C350.580744,247.465 350.556306,247.475793 350.539186,247.494815 C350.522066,247.513837 350.513898,247.539273 350.516742,247.564706 L350.516742,249.107692 C350.513898,249.133126 350.522066,249.158561 350.539186,249.177583 C350.556306,249.196605 350.580744,249.207398 350.606335,249.20724 L353.045249,249.406335 C353.093956,249.413367 353.140492,249.383753 353.154751,249.336652 L353.582805,247.395475 C353.588862,247.365838 353.581113,247.335055 353.561748,247.311816 C353.542383,247.288578 353.513501,247.275406 353.483258,247.275998 Z" id="Path" fill="#CCEBF8"></path>
            <path d="M353.483258,247.276018 L353.00543,247.276018 L352.537557,247.743891 L352.029864,248.251584 L351.522172,248.759276 C351.372851,248.908597 351.213575,249.057919 351.064253,249.217195 L353.055204,249.376471 C353.103911,249.383503 353.150447,249.353889 353.164706,249.306787 L353.59276,247.365611 C353.590248,247.339156 353.577263,247.314803 353.556696,247.297975 C353.536128,247.281148 353.509687,247.273242 353.483258,247.276018 L353.483258,247.276018 Z" id="Path" fill="url(#linearGradient-19)"></path>
            <path d="M362.143891,244.299548 L362.044344,244.438914 L362.044344,244.508597 L362.044344,244.568326 C362.039026,244.584491 362.039026,244.601934 362.044344,244.6181 L362.044344,244.906787 C362.035949,244.929257 362.035949,244.954001 362.044344,244.976471 L362.20362,245.125792 C362.20362,245.125792 362.20362,245.275113 362.263348,245.265158 L362.780995,245.036199 C362.780995,245.036199 362.830769,245.036199 362.840724,244.976471 L362.910407,244.777376 L362.910407,244.727602 L362.771041,244.269683 C362.75768,244.240531 362.732211,244.2187 362.701357,244.209955 L362.442534,244.209955 C362.423634,244.20099 362.401706,244.20099 362.382805,244.209955 L362.283258,244.269683 C362.283258,244.269683 362.143891,244.289593 362.143891,244.299548 Z" id="Path" fill="#009BDB"></path>
            <path d="M362.20362,245.18552 L362.054299,245.046154 C362.046711,245.023546 362.046711,244.999079 362.054299,244.976471 L362.054299,244.687783 C362.048981,244.671618 362.048981,244.654174 362.054299,244.638009 L362.054299,244.578281 C362.054299,244.578281 362.054299,244.578281 362.054299,244.528507 L362.054299,244.528507 L362.143891,244.38914 L362.143891,244.38914 L362.253394,244.329412 C362.272294,244.320447 362.294222,244.320447 362.313122,244.329412 L362.492308,244.329412 L362.492308,244.329412 L362.233484,244.329412 C362.214584,244.320447 362.192656,244.320447 362.173756,244.329412 L362.074208,244.38914 C362.074208,244.38914 362.074208,244.38914 362.074208,244.38914 L361.974661,244.528507 L361.974661,244.59819 L361.974661,244.657919 C361.969343,244.674084 361.969343,244.691527 361.974661,244.707692 L361.974661,244.99638 C361.966265,245.018849 361.966265,245.043594 361.974661,245.066063 L362.133937,245.215385 C362.133937,245.215385 362.133937,245.364706 362.193665,245.354751 L362.273303,245.354751 C362.2617,245.294227 362.237999,245.236667 362.20362,245.18552 L362.20362,245.18552 Z" id="Path" fill="#1FA7DF"></path>
            <path d="M361.795475,251.2181 L361.795475,251.437104 L360.859729,251.437104 C360.859729,251.437104 360.859729,251.437104 360.859729,251.437104 L360.859729,251.437104 C360.859573,251.347394 360.92945,251.27315 361.019005,251.267873 L361.238009,251.267873 L361.238009,251.267873 L361.347511,251.138462 L361.347511,251.138462 L361.775566,251.2181 L361.795475,251.2181 Z" id="Path" fill="#003A5D"></path>
            <path d="M361.795475,251.2181 L361.795475,251.437104 L360.859729,251.437104 C360.859729,251.437104 360.859729,251.437104 360.859729,251.437104 L360.859729,251.437104 C360.859573,251.347394 360.92945,251.27315 361.019005,251.267873 L361.238009,251.267873 L361.238009,251.267873 L361.347511,251.138462 L361.347511,251.138462 L361.775566,251.2181 L361.795475,251.2181 Z" id="Path" fill="url(#linearGradient-20)" style="mix-blend-mode: multiply;"></path>
            <path d="M362.542081,251.307692 L362.542081,251.40724 C362.542081,251.445725 362.510883,251.476923 362.472398,251.476923 L361.606335,251.476923 C361.56785,251.476923 361.536652,251.445725 361.536652,251.40724 L361.536652,251.40724 C361.53828,251.376309 361.557695,251.349129 361.586425,251.337557 L361.745701,251.337557 L361.745701,251.337557 L361.944796,251.337557 L361.944796,251.337557 C361.969436,251.323331 361.999794,251.323331 362.024434,251.337557 L362.542081,251.307692 Z" id="Path" fill="#003A5D"></path>
            <path d="M362.542081,251.307692 L362.542081,251.40724 C362.542081,251.40724 362.542081,251.466968 362.472398,251.466968 L361.606335,251.466968 C361.606335,251.466968 361.536652,251.466968 361.536652,251.40724 L361.536652,251.40724 C361.53828,251.376309 361.557695,251.349129 361.586425,251.337557 L361.745701,251.337557 L361.954751,251.337557 L361.954751,251.337557 C361.978682,251.320893 362.010458,251.320893 362.034389,251.337557 L362.542081,251.307692 Z" id="Path" fill="url(#linearGradient-21)" style="mix-blend-mode: multiply;"></path>
            <path d="M361.277828,247.704072 L361.038914,248.699548 L361.038914,248.699548 L361.148416,249.695023 L361.148416,249.695023 L361.297738,250.352036 L361.297738,250.352036 L361.238009,250.98914 C361.238009,250.98914 361.238009,250.98914 361.238009,250.98914 L361.626244,251.088688 L361.765611,251.088688 L361.765611,250.302262 L361.765611,250.302262 L361.895023,248.968326 L361.735747,248.072398 C361.74515,248.050122 361.74515,248.024991 361.735747,248.002715 L361.496833,247.604525 L361.437104,247.604525 C361.402629,247.592097 361.364358,247.596181 361.333282,247.615604 C361.302206,247.635026 361.281764,247.667638 361.277828,247.704072 Z" id="Path" fill="#36637F"></path>
            <path d="M361.815385,248.152036 C361.824788,248.12976 361.824788,248.104629 361.815385,248.082353 L361.576471,247.684163 L361.516742,247.684163 C361.483303,247.663915 361.442073,247.661308 361.406351,247.677185 C361.370628,247.693062 361.344934,247.725412 361.337557,247.763801 L361.098643,248.759276 L361.098643,248.759276 L361.208145,249.754751 L361.208145,249.754751 L361.297738,250.133032 L361.297738,250.262443 L361.576471,250.352036 L361.924887,250.033484 L361.924887,249.973756 L362.01448,249.057919 L361.815385,248.152036 Z" id="Path" fill="url(#linearGradient-22)" style="mix-blend-mode: multiply;"></path>
            <path d="M363.238914,247.61448 L363.18914,248.032579 C363.194348,248.062216 363.194348,248.092535 363.18914,248.122172 L363.069683,248.231674 C363.066415,248.254787 363.066415,248.278245 363.069683,248.301357 L362.860633,249.047964 C362.85123,249.07024 362.85123,249.095371 362.860633,249.117647 L362.920362,249.565611 L362.920362,250.142986 L362.691403,251.317647 L362.18371,251.178281 C362.163431,251.155608 362.163431,251.121316 362.18371,251.098643 L362.253394,250.969231 C362.263123,250.933378 362.263123,250.895581 362.253394,250.859729 L362.253394,250.690498 L362.253394,250.690498 L362.253394,249.754751 C362.259046,249.728506 362.259046,249.701358 362.253394,249.675113 L362.163801,249.495928 L362.163801,249.495928 L361.586425,247.743891 L361.586425,247.743891 L361.586425,247.743891 C361.567588,247.694915 361.572535,247.639972 361.599819,247.595148 C361.627102,247.550325 361.673635,247.520694 361.725792,247.514932 L362.39276,247.445249 L362.39276,247.445249 L363.258824,247.514932 C363.264017,247.549421 363.256973,247.584641 363.238914,247.61448 Z" id="Path" fill="#36637F"></path>
            <path d="M363.069683,247.435294 L362.233484,247.365611 L362.233484,247.365611 L361.59638,247.435294 C361.538499,247.443265 361.487551,247.477539 361.458353,247.528148 C361.429156,247.578757 361.424987,247.64002 361.447059,247.694118 L361.447059,247.694118 L361.795475,248.739367 L361.795475,248.739367 L362.333032,248.968326 L362.333032,248.968326 L362.5819,248.779186 L362.5819,248.779186 L362.741176,248.898643 C362.741176,248.898643 362.741176,248.898643 362.741176,248.898643 L362.910407,248.301357 C362.917285,248.269852 362.934876,248.241708 362.960181,248.221719 L363.059729,248.122172 C363.088983,248.091604 363.109595,248.053815 363.119457,248.01267 L363.169231,247.634389 C363.186292,247.552962 363.145062,247.470502 363.069683,247.435294 L363.069683,247.435294 Z" id="Path" fill="url(#linearGradient-23)" style="mix-blend-mode: multiply;"></path>
            <path d="M362.920362,244.886878 L363.199095,245.125792 L363.199095,245.41448 L363.129412,245.464253 C363.120012,245.476787 363.105259,245.484163 363.089593,245.484163 C363.073926,245.484163 363.059174,245.476787 363.049774,245.464253 L362.840724,245.215385 C362.831321,245.193109 362.831321,245.167977 362.840724,245.145701 L362.900452,245.046154 L362.900452,244.99638 L362.840724,244.866968 C362.828276,244.845408 362.828276,244.818845 362.840724,244.797285 L362.840724,244.797285 C362.865464,244.775294 362.903348,244.777522 362.925339,244.802262 C362.947331,244.827003 362.945102,244.864886 362.920362,244.886878 L362.920362,244.886878 Z" id="Path" fill="#003A5D"></path>
            <path d="M363.099548,245.105882 L363.099548,245.036199 L362.920362,244.886878 C362.920362,244.886878 362.920362,244.886878 362.920362,244.946606 L362.970136,245.076018 C362.970136,245.076018 362.970136,245.076018 362.970136,245.125792 L362.970136,245.125792 L363.01991,245.18552 C363.029309,245.198054 363.044062,245.20543 363.059729,245.20543 C363.075395,245.20543 363.090148,245.198054 363.099548,245.18552 L363.169231,245.135747 C363.152535,245.114665 363.126328,245.103433 363.099548,245.105882 Z" id="Path" fill="url(#linearGradient-24)" style="mix-blend-mode: multiply;"></path>
            <path d="M362.054299,245.085973 L362.303167,245.085973 L362.303167,245.085973 L362.472398,244.99638 C362.472398,244.99638 362.472398,244.99638 362.472398,244.99638 L362.39276,245.165611 L362.39276,245.165611 L362.123982,245.225339 L362.123982,245.225339 L362.054299,245.155656 L362.054299,245.085973 Z" id="Path" fill="url(#linearGradient-25)" style="mix-blend-mode: multiply;"></path>
            <path d="M362.044344,244.717647 L361.99457,244.717647 C361.99457,244.717647 361.99457,244.717647 361.99457,244.717647 L361.99457,244.717647 C361.99457,244.717647 361.99457,244.717647 361.99457,244.717647 L362.054299,244.717647 L362.054299,244.717647 L362.044344,244.717647 Z" id="Path" fill="url(#linearGradient-26)" style="mix-blend-mode: multiply;"></path>
            <path d="M362.780995,245.046154 L362.780995,245.046154 C362.780995,245.046154 362.780995,245.046154 362.780995,245.046154 L362.243439,245.18552 L362.243439,245.265158 C362.243439,245.265158 362.243439,245.265158 362.193665,245.265158 L362.193665,245.18552 L362.193665,245.18552 L361.934842,245.324887 C361.934842,245.324887 361.934842,245.324887 361.934842,245.324887 L361.934842,245.324887 C361.934842,245.324887 361.934842,245.324887 361.934842,245.324887 L361.885068,245.324887 L361.885068,245.324887 L361.427149,246.041629 L361.427149,246.041629 L361.427149,246.429864 L361.427149,246.429864 L361.317647,246.549321 L361.317647,246.549321 L361.108597,247.345701 L361.108597,247.345701 L361.178281,247.465158 L361.178281,247.465158 L361.606335,247.355656 L361.606335,247.355656 L362.143891,247.574661 L362.143891,247.574661 L363.139367,247.305882 L363.139367,247.305882 L363.447964,247.445249 C363.447964,247.445249 363.447964,247.445249 363.447964,247.445249 L363.268778,246.668778 L363.268778,246.668778 L363.378281,246.220814 L363.378281,246.220814 L363.298643,245.444344 L363.298643,245.444344 L363,245.006335 L363,245.006335 L362.950226,245.006335 C362.950226,245.006335 362.780995,245.056109 362.780995,245.046154 Z" id="Path" fill="#FFFFFF"></path>
            <path d="M363.159276,245.653394 L362.313122,246.887783 L362.313122,246.887783 L361.466968,247.425339 L361.924887,247.624434 L361.924887,247.624434 L362.920362,247.375566 L362.731222,246.977376 L362.910407,246.977376 C362.910407,246.977376 362.970136,246.977376 362.960181,246.977376 L362.910407,246.469683 L362.910407,246.469683 L363.119457,245.912217 L363.159276,245.653394 Z" id="Path" fill="#E3F4FB" style="mix-blend-mode: multiply;"></path>
            <path d="M362.293213,245.713122 L361.875113,246.579186 L361.875113,246.638914 L361.287783,247.206335 C361.287783,247.206335 361.287783,247.206335 361.287783,247.206335 L361.287783,247.206335 L361.287783,247.206335 L361.934842,246.60905 C361.96375,246.582172 361.984458,246.547658 361.99457,246.509502 L362.293213,245.713122 Z" id="Path" fill="#E3F4FB" style="mix-blend-mode: multiply;"></path>
            <path d="M360.98914,247.455204 L360.770136,247.345701 L360.770136,247.345701 L360.312217,247.833484 L360.391855,247.833484 L360.790045,247.435294 C360.790045,247.435294 360.790045,247.435294 360.839819,247.435294 L361.019005,247.524887 L361.019005,247.524887 L361.019005,247.524887 C361.019005,247.524887 360.999095,247.465158 360.98914,247.455204 Z" id="Path" fill="#003A5D"></path>
            <path d="M361.357466,247.813575 L361.566516,247.952941 L361.566516,247.952941 L361.566516,248.161991 C361.566516,248.161991 361.566516,248.161991 361.566516,248.161991 L361.636199,248.211765 L361.636199,247.883258 L361.636199,247.883258 L361.357466,247.704072 L361.357466,247.704072 C361.357466,247.704072 361.357466,247.80362 361.357466,247.813575 Z" id="Path" fill="#003A5D"></path>
            <path d="M362.084163,244.349321 L362.084163,244.349321 L362.20362,244.18009 L362.20362,244.18009 L362.731222,244.18009 L362.731222,244.18009 L362.800905,244.269683 L362.800905,244.269683 L363.029864,244.548416 C363.029864,244.548416 363.029864,244.548416 363.029864,244.548416 L362.900452,244.876923 L362.900452,244.876923 L362.721267,245.046154 L362.651584,244.876923 C362.651584,244.876923 362.651584,244.876923 362.651584,244.876923 L362.60181,244.876923 L362.60181,244.876923 L362.532127,244.647964 L362.532127,244.647964 L362.621719,244.428959 C362.621719,244.428959 362.621719,244.428959 362.621719,244.428959 L362.621719,244.428959 L362.382805,244.369231 L362.382805,244.369231 L362.243439,244.458824 C362.243439,244.458824 362.084163,244.369231 362.084163,244.349321 Z" id="Path" fill="#003A5D"></path>
            <path d="M362.114027,244.369231 L362.20362,244.309502 L362.20362,244.309502 L362.20362,244.309502 L362.731222,244.309502 L362.731222,244.309502 L362.800905,244.399095 L362.800905,244.399095 L362.990045,244.628054 L362.990045,244.558371 C362.990045,244.558371 362.990045,244.558371 362.990045,244.558371 L362.761086,244.279638 L362.761086,244.279638 L362.691403,244.190045 L362.691403,244.190045 L362.163801,244.190045 L362.163801,244.190045 L362.044344,244.359276 L362.044344,244.359276 C362.044344,244.359276 362.104072,244.369231 362.114027,244.369231 Z" id="Path" fill="#194D6D"></path>
            <path d="M360.98914,247.455204 L360.770136,247.335747 L360.770136,247.335747 L360.312217,247.823529 L360.391855,247.823529 L360.790045,247.415385 L360.790045,247.415385 L360.979186,247.504977 L360.979186,247.504977 L360.979186,247.504977 C360.979186,247.504977 360.999095,247.465158 360.98914,247.455204 Z" id="Path" fill="url(#linearGradient-27)" style="mix-blend-mode: multiply;"></path>
            <path d="M361.357466,247.813575 L361.566516,247.952941 L361.566516,247.952941 L361.566516,248.161991 L361.566516,248.161991 L361.636199,248.211765 L361.636199,247.883258 L361.357466,247.704072 C361.357466,247.704072 361.357466,247.704072 361.297738,247.704072 L361.297738,247.704072 C361.297738,247.704072 361.357466,247.80362 361.357466,247.813575 Z" id="Path" fill="url(#linearGradient-28)" style="mix-blend-mode: multiply;"></path>
            <polygon id="Path" fill="#009BDB" points="361.357466 247.604525 361.357466 247.604525 361.357466 247.604525 361.357466 247.733937 361.267873 247.733937 361.267873 247.733937 361.188235 247.733937 361.327602 247.584615"></polygon>
            <path d="M361.357466,247.604525 L361.357466,247.604525 L361.357466,247.604525 L361.357466,247.733937 L361.267873,247.733937 L361.267873,247.733937 L361.188235,247.733937 C361.188235,247.733937 361.188235,247.733937 361.188235,247.733937 L361.327602,247.584615 L361.357466,247.604525 Z" id="Path" fill="url(#linearGradient-29)" style="mix-blend-mode: multiply;"></path>
            <path d="M361.2181,247.256109 L361.00905,247.325792 C361.00905,247.325792 361.00905,247.325792 361.00905,247.325792 L361.00905,247.375566 L361.00905,247.375566 L361.00905,247.375566 L361.00905,247.375566 L361.00905,247.375566 C361.00905,247.375566 361.00905,247.375566 361.00905,247.375566 L361.208145,247.514932 C361.208145,247.514932 361.208145,247.514932 361.267873,247.514932 L361.536652,247.266063 L361.357466,247.076923 L361.2181,247.256109 Z" id="Path" fill="#009BDB"></path>
            <path d="M361.058824,247.704072 L361.058824,247.704072 L361.058824,247.704072 C361.067715,247.688672 361.067715,247.669699 361.058824,247.654299 L361.058824,247.654299 L361.058824,247.654299 L361.277828,247.584615 L361.277828,247.584615 L361.347511,247.664253 L361.347511,247.664253 L361.168326,247.475113 L360.959276,247.544796 C360.959276,247.544796 360.959276,247.544796 360.959276,247.544796 L360.959276,247.59457 L360.959276,247.59457 L360.959276,247.59457 L360.959276,247.59457 C360.959276,247.59457 360.959276,247.59457 360.959276,247.59457 L361.048869,247.664253 C361.056109,247.676226 361.059578,247.690101 361.058824,247.704072 Z" id="Path" fill="#29ABE0"></path>
            <path d="M359.724887,247.704072 L361.466968,248.112217 L362.263348,248.739367 C362.263348,248.739367 362.263348,248.739367 362.263348,248.739367 L361.536652,249.784615 L361.536652,249.784615 L360.103167,249.376471 L360.103167,249.376471 L359.466063,248.878733 L359.695023,247.723982 C359.703068,247.714852 359.713364,247.707987 359.724887,247.704072 Z" id="Path" fill="#CCEBF8"></path>
            <path d="M361.40724,248.241629 L360.979186,249.137557 C360.931036,249.24129 360.959782,249.364487 361.048869,249.436199 L361.526697,249.81448 L361.526697,249.81448 L362.253394,248.819005 C362.253394,248.819005 362.253394,248.819005 362.253394,248.819005 L361.566516,248.281448 C361.532401,248.228014 361.462487,248.210535 361.40724,248.241629 Z" id="Path" fill="url(#linearGradient-30)" style="mix-blend-mode: multiply;"></path>
            <polygon id="Path" fill="url(#linearGradient-31)" style="mix-blend-mode: multiply;" points="359.41629 248.898643 360.839819 249.296833 360.939367 249.296833 361.536652 249.774661 361.536652 249.774661 360.093213 249.366516 360.093213 249.366516"></polygon>
            <circle id="Oval" fill="#FFFFFF" cx="362.602036" cy="244.966742" r="1"></circle>
            <path d="M361.536652,245.902262 L361.38733,246.330317 L361.38733,246.409955 L361.208145,247.146606 L361.00905,247.21629 C361.00905,247.21629 360.929412,247.21629 360.949321,247.156561 L361.188235,246.41991 L361.506787,245.79276 L361.536652,245.902262 Z" id="Path" fill="#E3F4FB" style="mix-blend-mode: multiply;"></path>
            <circle id="Oval" fill="#009BDB" cx="361.516968" cy="246.489819" r="1"></circle>
            <circle id="Oval" fill="#009BDB" cx="361.477149" cy="246.768552" r="1"></circle>
        </g>
    </g>
</svg>