<?xml version="1.0" encoding="UTF-8"?>
<svg width="440px" height="330px" viewBox="0 0 440 330" version="1.1" xmlns="http://www.w3.org/2000/svg" xmlns:xlink="http://www.w3.org/1999/xlink">
    <title>Graphic elements / Icons / Rich icons / Marketplace / Practice-Crisis-Emergency</title>
    <defs>
        <linearGradient x1="33.8002981%" y1="104.166048%" x2="70.8196721%" y2="-49.8999671%" id="linearGradient-1">
            <stop stop-color="#FFFFFF" offset="0%"></stop>
            <stop stop-color="#0099DA" offset="100%"></stop>
        </linearGradient>
        <linearGradient x1="0.0149163314%" y1="50.0004009%" x2="99.9320061%" y2="50.0004009%" id="linearGradient-2">
            <stop stop-color="#FFFFFF" stop-opacity="0" offset="0%"></stop>
            <stop stop-color="#FBFBFC" stop-opacity="0.04" offset="11%"></stop>
            <stop stop-color="#EFF2F3" stop-opacity="0.16" offset="28%"></stop>
            <stop stop-color="#DCE2E6" stop-opacity="0.35" offset="48%"></stop>
            <stop stop-color="#C2CCD2" stop-opacity="0.62" offset="71%"></stop>
            <stop stop-color="#A1B1BA" stop-opacity="0.96" offset="97%"></stop>
            <stop stop-color="#9DADB7" offset="100%"></stop>
        </linearGradient>
        <linearGradient x1="0.0849453767%" y1="49.9951546%" x2="100.108126%" y2="49.9951546%" id="linearGradient-3">
            <stop stop-color="#FFFFFF" stop-opacity="0" offset="0%"></stop>
            <stop stop-color="#FBFBFC" stop-opacity="0.04" offset="11%"></stop>
            <stop stop-color="#EFF2F3" stop-opacity="0.16" offset="28%"></stop>
            <stop stop-color="#DCE2E6" stop-opacity="0.35" offset="48%"></stop>
            <stop stop-color="#C2CCD2" stop-opacity="0.62" offset="71%"></stop>
            <stop stop-color="#A1B1BA" stop-opacity="0.96" offset="97%"></stop>
            <stop stop-color="#9DADB7" offset="100%"></stop>
        </linearGradient>
        <linearGradient x1="109.067579%" y1="52.7398042%" x2="-30.7955518%" y2="38.7611985%" id="linearGradient-4">
            <stop stop-color="#FFFFFF" offset="0%"></stop>
            <stop stop-color="#0099DA" offset="100%"></stop>
        </linearGradient>
        <linearGradient x1="0%" y1="50.2544688%" x2="100%" y2="50.2544688%" id="linearGradient-5">
            <stop stop-color="#FFFFFF" offset="0%"></stop>
            <stop stop-color="#0099DA" offset="100%"></stop>
        </linearGradient>
        <linearGradient x1="0%" y1="50%" x2="99.9832454%" y2="50%" id="linearGradient-6">
            <stop stop-color="#FFFFFF" offset="0%"></stop>
            <stop stop-color="#023852" offset="100%"></stop>
        </linearGradient>
        <linearGradient x1="0.0874678279%" y1="50.0622356%" x2="100%" y2="50.0622356%" id="linearGradient-7">
            <stop stop-color="#FFFFFF" offset="0%"></stop>
            <stop stop-color="#0099DA" offset="100%"></stop>
        </linearGradient>
        <linearGradient x1="223.579397%" y1="47.4395135%" x2="-85.1077601%" y2="51.7735749%" id="linearGradient-8">
            <stop stop-color="#FFFFFF" offset="0%"></stop>
            <stop stop-color="#0099DA" offset="100%"></stop>
        </linearGradient>
        <linearGradient x1="98.425222%" y1="130.895848%" x2="-21.4653089%" y2="-56.5156915%" id="linearGradient-9">
            <stop stop-color="#FFFFFF" offset="0%"></stop>
            <stop stop-color="#0099DA" offset="100%"></stop>
        </linearGradient>
    </defs>
    <g id="Graphic-elements-/-Icons-/-Rich-icons-/-Marketplace-/-Practice-Crisis-Emergency" stroke="none" stroke-width="1" fill="none" fill-rule="evenodd">
        <g id="crisis-emergency" transform="translate(3.000000, 0.000000)">
            <g id="Midlayer" transform="translate(0.000000, 0.605755)" stroke="#023852" stroke-width="1.03">
                <line x1="81.4912901" y1="163.086394" x2="89.7971029" y2="163.086394" id="Path"></line>
                <line x1="19.5304507" y1="163.086394" x2="28.37077" y2="163.086394" id="Path"></line>
                <line x1="351.857287" y1="163.086394" x2="360.1631" y2="163.086394" id="Path"></line>
                <line x1="289.896448" y1="163.086394" x2="298.731527" y2="163.086394" id="Path"></line>
                <path d="M161.122288,15.310258 L157.254976,15.310258 C156.563282,15.310258 156.002553,15.8695813 156.002553,16.5595416 L156.002553,25.9161007 C155.998349,26.25014 156.128443,26.5719436 156.363774,26.8096323 C156.599106,27.047321 156.920071,27.1810657 157.254976,27.1810657 L161.122288,27.1810657" id="Path"></path>
                <path d="M429.418382,16.575223 L432.321486,16.575223 C432.843282,16.575223 433.267091,16.9956263 433.269973,17.516106 L433.269973,31.72344 C433.269973,31.973886 433.169881,32.2139988 432.991853,32.3905997 C432.813825,32.5672005 432.572558,32.6657144 432.321486,32.6643376 L429.413142,32.6643376" id="Path"></path>
                <path d="M288.53398,164.837482 L295.346319,148.408619 C299.83685,137.597463 310.413259,130.548378 322.145011,130.547522 L326.714518,130.547522 C338.44584,130.54979 349.021535,137.598399 353.51321,148.408619 L360.325548,164.837482 C360.822034,166.034312 361.993034,166.81334 363.291536,166.81334 L429.790441,166.81334 L429.790441,8.98543307 C429.790441,4.17014543 425.877072,0.266558423 421.049686,0.266558423 L170.161737,0.266558423 C167.839915,0.261029549 165.611281,1.17716754 163.967536,2.81287137 C162.32379,4.4485752 161.400015,6.66942321 161.400022,8.98543307 L161.400022,47.2636916 C161.400022,47.8695137 161.158755,48.4505228 160.729298,48.8789037 C160.299841,49.3072846 159.717372,49.5479465 159.110028,49.5479465 L127.086796,49.5479465 C118.583321,49.546594 110.326195,52.3963924 103.641871,57.6395407 L55.6777672,95.2748625 C54.8501212,95.9214861 53.8771191,96.3574325 52.8427863,96.5450546 L16.4334567,103.120782 C8.83123812,104.496567 3.30090993,111.095214 3.29088356,118.802166 L3.29088356,144.415093 L2.52056527,144.415093 C1.27862355,144.232144 0.47162344,145.314159 0.47162344,146.573897 L0.267253282,164.565672 C0.267253282,165.807023 1.27609542,166.81334 2.52056527,166.81334 L16.0142359,166.81334 C17.3108297,166.81334 18.4792269,166.032554 18.9749831,164.837482 L25.7873216,148.408619 C30.2797268,137.596641 40.8580239,130.547676 52.5912538,130.547522 L57.1555206,130.547522 C68.8872725,130.548378 79.4636811,137.597463 83.9542125,148.408619 L90.7665511,164.837482 C91.2600092,166.034432 92.4298417,166.815119 93.7272982,166.81334 L285.594194,166.81334 C286.883148,166.803872 288.041166,166.025559 288.53398,164.837482 L288.53398,164.837482 Z" id="Path"></path>
                <line x1="373.279472" y1="122.617969" x2="18.9959441" y2="122.617969" id="Path"></line>
                <path d="M3.29088356,144.31055 L2.51532501,144.31055 C1.2749447,144.313424 0.267253282,145.315717 0.267253282,146.552988 L0.267253282,164.565672 C0.267253282,165.807023 1.27609542,166.81334 2.52056527,166.81334 L16.0142359,166.81334 C17.3108297,166.812284 18.4792269,166.032554 18.9749831,164.837482 L25.7873216,148.408619 C30.2797268,137.596641 40.8580239,130.547676 52.5912538,130.547522 L57.1555206,130.547522 C68.8872725,130.548378 79.4636811,137.597463 83.9542125,148.408619 L90.7665511,164.837482 C91.2600092,166.034432 92.4298417,166.815119 93.7272982,166.81334 L285.594194,166.81334 C286.892695,166.814399 288.063696,166.034312 288.560181,164.837482 L295.37252,148.408619 C299.863051,137.597463 310.43946,130.548378 322.171212,130.547522 L326.740719,130.547522 C338.472041,130.54979 349.047736,137.598399 353.539411,148.408619 L360.351749,164.837482 C360.848235,166.034312 362.019235,166.814399 363.317737,166.81334 L429.790441,166.81334 L429.790441,122.617969 L422.12394,122.617969" id="Path"></path>
                <polyline id="Path" points="422.12394 118.117412 429.790441 118.117412 429.790441 97.7943382 45.532623 97.7943382"></polyline>
                <line x1="18.9959441" y1="118.117412" x2="373.347595" y2="118.117412" id="Path"></line>
                <line x1="21.3226197" y1="159.186957" x2="0.267253282" y2="159.186957" id="Path"></line>
                <ellipse id="Oval" cx="55.0122541" cy="165.015205" rx="26.6519646" ry="26.5851731"></ellipse>
                <ellipse id="Oval" cx="55.0122541" cy="165.015205" rx="15.5478527" ry="15.5088888"></ellipse>
                <path d="M54.7974034,152.3551 C53.5554674,152.347106 52.3192357,152.523268 51.1292211,152.877813 C51.0373355,152.906525 50.9649607,152.97766 50.9348236,153.068882 C50.9046864,153.160104 50.9204832,153.260223 50.9772536,153.337801 L51.2183055,153.66711 C52.1409545,154.912279 53.614505,155.630241 55.1662637,155.590686 C56.7180223,155.55113 58.1528865,154.75903 59.0105728,153.468479 L59.0105728,153.468479 C59.0610156,153.39158 59.0737681,153.296008 59.0452463,153.208625 C59.0167246,153.121242 58.9500074,153.05148 58.8638455,153.018946 C57.5535517,152.578648 56.1800482,152.354424 54.7974034,152.3551 Z" id="Path"></path>
                <path d="M55.2271048,177.670081 C56.468863,177.675481 57.7047148,177.499373 58.8952871,177.147369 C58.9864765,177.116063 59.0573599,177.043446 59.0863018,176.951683 C59.1152437,176.859919 59.0988091,176.7599 59.0420144,176.682154 L58.8009624,176.358072 C57.8802951,175.112336 56.4080169,174.393264 54.8569519,174.431788 C53.3058868,174.470311 51.8713092,175.261579 51.0139354,176.551476 L51.0139354,176.551476 C50.961382,176.627846 50.9474268,176.724252 50.9761758,176.812332 C51.0049248,176.900411 51.0731074,176.970142 51.1606627,177.001009 C52.4700376,177.445564 53.8439622,177.671623 55.2271048,177.670081 L55.2271048,177.670081 Z" id="Path"></path>
                <path d="M43.9343435,158.836739 C43.3130682,159.902707 42.853906,161.054783 42.5718758,162.255281 C42.550967,162.349211 42.5768201,162.447432 42.6412909,162.519002 C42.7057617,162.590572 42.8009135,162.626681 42.896772,162.615953 L43.300272,162.568909 C44.8367205,162.396874 46.193579,161.490917 46.9386725,160.139597 C47.6837661,158.788276 47.7241861,157.160093 47.0470582,155.773642 L47.0470582,155.773642 C47.0049197,155.691329 46.9274406,155.632685 46.8366229,155.614363 C46.7458051,155.596041 46.651569,155.620044 46.5806751,155.679554 C45.5303504,156.579468 44.6362119,157.646213 43.9343435,158.836739 L43.9343435,158.836739 Z" id="Path"></path>
                <path d="M66.0901647,171.188443 C66.7091701,170.123232 67.1682106,168.973223 67.4526324,167.775128 C67.4735412,167.681198 67.4476881,167.582977 67.3832173,167.511407 C67.3187465,167.439837 67.2235947,167.403729 67.1277362,167.414456 L66.7242362,167.456273 C65.1877877,167.628308 63.8309292,168.534265 63.0858357,169.885585 C62.3407421,171.236906 62.3003221,172.865089 62.97745,174.25154 L62.97745,174.25154 C63.0185961,174.334686 63.0956252,174.394479 63.1865344,174.413838 C63.2774435,174.433197 63.3722354,174.409993 63.4438332,174.350855 C64.4929741,173.447765 65.3868957,172.379513 66.0901647,171.188443 L66.0901647,171.188443 Z" id="Path"></path>
                <path d="M44.0181877,171.313894 C44.6161326,172.392218 45.3700927,173.376779 46.2557789,174.235858 C46.3252815,174.302146 46.422527,174.331003 46.5170519,174.313388 C46.6115767,174.295774 46.6918194,174.233844 46.7326426,174.146997 L46.9055712,173.775871 C47.5539287,172.369507 47.4731681,170.73598 46.6892343,169.400072 C45.9053005,168.064165 44.5169261,167.194128 42.9701356,167.069466 L42.9701356,167.069466 C42.8784516,167.061823 42.7883522,167.096752 42.7259054,167.164148 C42.6634586,167.231544 42.6356332,167.323886 42.6504797,167.414456 C42.8872183,168.78073 43.3493862,170.098405 44.0181877,171.313894 Z" id="Path"></path>
                <path d="M66.0272816,158.716515 C65.4308613,157.63702 64.6787168,156.650763 63.7949306,155.789324 C63.7237135,155.723439 63.6252167,155.695475 63.5298924,155.714079 C63.4345682,155.732683 63.3538995,155.795612 63.3128266,155.883412 L63.1451383,156.249311 C62.4973657,157.655553 62.5775971,159.28851 63.3601188,160.62483 C64.1426404,161.96115 65.5291701,162.832994 67.0753336,162.960943 L67.0753336,162.960943 C67.1680996,162.968964 67.2593091,162.933374 67.3219954,162.864694 C67.3846817,162.796014 67.4116731,162.702103 67.3949895,162.610726 C67.1576926,161.246252 66.6955399,159.930386 66.0272816,158.716515 Z" id="Path"></path>
                <path d="M66.739957,97.7786568 L108.179937,60.7496819 C109.015712,60.0049081 109.494041,58.9403945 109.495242,57.8224902 L109.495242,53.8707814 C107.43192,54.944533 105.472469,56.2061482 103.641871,57.6395407" id="Path"></path>
                <path d="M100.167578,76.8649176 L120.174893,57.7963545 C120.844053,57.1551634 121.736132,56.7973529 122.664016,56.7979723 L144.206727,56.7979723 C146.192091,56.7979723 147.801546,58.4033948 147.801546,60.3837829 L147.801546,94.1771656 C147.801546,95.1281815 147.422807,96.0402462 146.748648,96.712716 C146.074488,97.3851858 145.160132,97.7629754 144.206727,97.7629754 L91.2434148,97.7629754 C89.2580513,97.7629754 87.6484633,96.1575537 87.6484633,94.1771656 L87.6484633,90.4293148 C87.640093,89.4433125 88.0401947,88.4975803 88.7542911,87.8157508 L95.37274,81.5431972" id="Path"></path>
                <rect id="Rectangle" x="95.5247076" y="76.9746873" width="10.7739755" height="18.5197146" rx="1.52"></rect>
                <rect id="Rectangle" x="167.845542" y="8.18568248" width="254.404164" height="3.96739017" rx="1.88"></rect>
                <rect id="Rectangle" x="173.358296" y="16.4288634" width="14.0805798" height="14.045293" rx="2.12"></rect>
                <rect id="Rectangle" x="192.95163" y="16.4288634" width="14.0805798" height="14.045293" rx="2.12"></rect>
                <rect id="Rectangle" x="381.532882" y="16.4288634" width="14.0805798" height="14.045293" rx="2.12"></rect>
                <rect id="Rectangle" x="401.126216" y="16.4288634" width="14.0805798" height="14.045293" rx="2.12"></rect>
                <path d="M418.649647,61.0789909 L412.565704,50.5672365 C412.420327,50.342932 412.128807,50.2640355 411.889711,50.384287 L404.909684,54.4039485 C404.754115,54.4785564 404.571689,54.4719578 404.421946,54.3863062 C404.272203,54.3006546 404.174351,54.1469378 404.160327,53.975324 L404.160327,45.9360011 C404.147405,45.6692648 403.934997,45.4551355 403.667742,45.4394235 L391.494617,45.4394235 C391.215137,45.4394235 390.984565,45.6575693 390.970591,45.9360011 L390.970591,53.975324 C390.972835,54.1530496 390.878681,54.3181284 390.724375,54.4070115 C390.570068,54.4958946 390.37967,54.4947232 390.226474,54.4039485 L383.272649,50.384287 C383.033553,50.2640355 382.742032,50.342932 382.596655,50.5672365 L376.507472,61.0789909 C376.383707,61.3187782 376.463154,61.613126 376.690882,61.7585176 L383.670908,65.778179 C383.811329,65.8759479 383.895001,66.0359875 383.895001,66.2068035 C383.895001,66.3776195 383.811329,66.5376592 383.670908,66.635428 L376.690882,70.6550895 C376.463154,70.800481 376.383707,71.0948289 376.507472,71.3346161 L382.596655,81.8463706 C382.742032,82.0706751 383.033553,82.1495716 383.272649,82.0293201 L390.252676,78.0096586 C390.405871,77.9188838 390.59627,77.9177125 390.750576,78.0065956 C390.904882,78.0954786 390.999036,78.2605575 390.996793,78.4382831 L390.996793,86.477606 C391.010766,86.7560378 391.241338,86.9741836 391.520819,86.9741836 L403.693944,86.9741836 C403.961198,86.9584716 404.173606,86.7443422 404.186528,86.477606 L404.186528,78.4382831 C404.200553,78.2666693 404.298404,78.1129525 404.448148,78.0273009 C404.597891,77.9416493 404.780316,77.9350507 404.935885,78.0096586 L411.884471,82.0293201 C412.123567,82.1495716 412.415087,82.0706751 412.560464,81.8463706 L418.644407,71.3346161 C418.769159,71.0961211 418.692074,70.8021219 418.466238,70.6550895 L411.486211,66.635428 C411.330731,66.5485085 411.23445,66.3845899 411.23445,66.2068035 C411.23445,66.0290172 411.330731,65.8650986 411.486211,65.778179 L418.466238,61.7585176 C418.693966,61.613126 418.773412,61.3187782 418.649647,61.0789909 Z" id="Path"></path>
                <path d="M3.29088356,144.425547 L15.2386774,144.425547 C17.206227,144.33214 18.7631267,142.731111 18.7968142,140.766558 L18.7968142,116.261781 C18.7939287,114.409609 17.2893929,112.908844 15.432567,112.905965 L4.42802007,112.905965" id="Path"></path>
                <rect id="Rectangle" x="9.58443635" y="133.725616" width="5.97913716" height="7.28661646" rx="2.06"></rect>
                <rect id="Rectangle" x="9.58443635" y="117.819466" width="5.97913716" height="13.026003" rx="1.89"></rect>
                <ellipse id="Oval" cx="325.540699" cy="165.015205" rx="26.6519646" ry="26.5851731"></ellipse>
                <ellipse id="Oval" cx="325.540699" cy="165.015205" rx="15.5478527" ry="15.5088888"></ellipse>
                <path d="M325.325849,152.3551 C324.083886,152.346718 322.847597,152.522888 321.657666,152.877813 C321.565781,152.906525 321.493406,152.97766 321.463269,153.068882 C321.433132,153.160104 321.448928,153.260223 321.505699,153.337801 L321.746751,153.66711 C322.6694,154.912279 324.14295,155.630241 325.694709,155.590686 C327.246468,155.55113 328.681332,154.75903 329.539018,153.468479 L329.539018,153.468479 C329.589238,153.390885 329.60126,153.294687 329.571674,153.20717 C329.542088,153.119652 329.474121,153.05036 329.387051,153.018946 C328.078559,152.578664 326.706781,152.354432 325.325849,152.3551 L325.325849,152.3551 Z" id="Path"></path>
                <path d="M325.75031,177.670081 C326.992058,177.67533 328.227888,177.499226 329.418492,177.147369 C329.509682,177.116063 329.580565,177.043446 329.609507,176.951683 C329.638449,176.859919 329.622014,176.7599 329.565219,176.682154 L329.324167,176.358072 C328.4035,175.112336 326.931222,174.393264 325.380157,174.431788 C323.829092,174.470311 322.394514,175.261579 321.53714,176.551476 L321.53714,176.551476 C321.484587,176.627846 321.470632,176.724252 321.499381,176.812332 C321.52813,176.900411 321.596312,176.970142 321.683868,177.001009 C322.993102,177.446123 324.36712,177.672197 325.75031,177.670081 Z" id="Path"></path>
                <path d="M314.462789,158.836739 C313.842099,159.903577 313.381312,161.055301 313.095081,162.255281 C313.076212,162.349831 313.103549,162.447696 313.168716,162.51889 C313.233882,162.590084 313.329109,162.626119 313.425217,162.615953 L313.823477,162.568909 C315.3607,162.396749 316.71777,161.48915 317.461199,160.136026 C318.204628,158.782902 318.241405,157.153544 317.559783,155.768415 L317.559783,155.768415 C317.518838,155.686315 317.442273,155.627594 317.352209,155.609218 C317.262145,155.590842 317.168615,155.614858 317.09864,155.674327 C316.051604,156.576652 315.161022,157.645144 314.462789,158.836739 Z" id="Path"></path>
                <path d="M336.61337,171.188443 C337.238053,170.129206 337.704125,168.984556 337.996798,167.79081 C338.017707,167.696879 337.991854,167.598658 337.927383,167.527088 C337.862913,167.455518 337.767761,167.41941 337.671902,167.430138 L337.268402,167.471955 C335.730769,167.641694 334.37216,168.547286 333.626622,169.899412 C332.881084,171.251539 332.84191,172.881002 333.521616,174.267221 L333.521616,174.267221 C333.561553,174.350155 333.637662,174.410032 333.727821,174.42945 C333.817981,174.448867 333.912076,174.425646 333.982759,174.366537 C335.03053,173.460294 335.919577,172.386219 336.61337,171.188443 L336.61337,171.188443 Z" id="Path"></path>
                <path d="M314.530912,171.313894 C315.128857,172.392218 315.882817,173.376779 316.768503,174.235858 C316.838006,174.302146 316.935251,174.331003 317.029776,174.313388 C317.124301,174.295774 317.204544,174.233844 317.245367,174.146997 L317.413055,173.775871 C318.063823,172.37048 317.984893,170.736539 317.201675,169.400071 C316.418457,168.063604 315.029837,167.193347 313.48286,167.069466 L313.48286,167.069466 C313.390857,167.062197 313.300527,167.09702 313.237338,167.164117 C313.174148,167.231215 313.144946,167.323317 313.157964,167.414456 C313.396343,168.781044 313.860287,170.098734 314.530912,171.313894 Z" id="Path"></path>
                <path d="M336.545246,158.716515 C335.956926,157.629667 335.209882,156.636105 334.328616,155.768415 C334.258382,155.702462 334.160541,155.674401 334.065915,155.693071 C333.971288,155.711741 333.891525,155.774845 333.851752,155.862503 L333.684064,156.228402 C333.033472,157.635273 333.113075,159.270477 333.897259,160.607852 C334.681442,161.945226 336.071257,162.816019 337.6195,162.940035 L337.6195,162.940035 C337.711681,162.945947 337.801556,162.909722 337.863743,162.841589 C337.92593,162.773456 337.953679,162.680812 337.939156,162.589817 C337.691433,161.230982 337.220461,159.922277 336.545246,158.716515 Z" id="Path"></path>
                <rect id="Rectangle" x="168.668263" y="37.1021547" width="48.813026" height="119.899863" rx="7.02"></rect>
                <path d="M419.404244,157.002017 L375.758115,157.002017 C374.331316,157.002017 373.174667,155.848267 373.174667,154.425043 L373.174667,105.007775 C373.174667,103.584551 374.331316,102.430801 375.758115,102.430801 L419.404244,102.430801 C420.831044,102.430801 421.987693,103.584551 421.987693,105.007775 L421.987693,154.425043 C421.987693,155.848267 420.831044,157.002017 419.404244,157.002017 L419.404244,157.002017 Z" id="Path"></path>
            </g>
            <g id="Ilus" transform="translate(108.342385, 27.442859)" fill-rule="nonzero">
                <rect id="Rectangle" fill="#D8DEE2" style="mix-blend-mode: multiply;" x="32.6818405" y="294.901907" width="228.704731" height="5.98146381" rx="2.99073191"></rect>
                <path d="M96.0219106,281.102565 L86.2708321,286.874153 C85.9898428,287.038324 85.693009,287.173681 85.3848471,287.278164 L70.7739569,292.068582 L82.2288528,298.412081 L117.956595,297.761466 C119.170714,297.738589 120.142724,296.746884 120.142724,295.531534 L120.142724,290.499759 L96.0219106,281.102565 Z" id="Path" fill="#FFFFFF"></path>
                <path d="M137.469237,285.551934 L137.757575,296.003755 C137.78273,296.896667 138.506067,297.611357 139.398482,297.625047 L152.331768,297.808814 C152.800717,297.814435 153.250529,297.622845 153.571519,297.280635 C153.892509,296.938425 154.055177,296.477046 154.019858,296.009002 L153.411726,288.275074 L143.325126,278.830658 L137.469237,285.551934 Z" id="Path" fill="#FFFFFF"></path>
                <path d="M163.744724,78.6719898 L155.466792,85.3880194 L155.991043,86.332461 C156.194737,86.6923546 156.560211,86.9309914 156.971394,86.9725826 L156.971394,86.9725826 C158.677217,87.1405289 160.396127,87.1246974 162.098574,86.9253605 L165.768334,86.5003618 L163.744724,78.6719898 Z" id="Path" fill="#E3E3DE"></path>
                <path d="M163.744724,78.6719898 L155.466792,85.3880194 L155.991043,86.332461 C156.194737,86.6923546 156.560211,86.9309914 156.971394,86.9725826 L156.971394,86.9725826 C158.677217,87.1405289 160.396127,87.1246974 162.098574,86.9253605 L165.768334,86.5003618 L163.744724,78.6719898 Z" id="Path" fill="#A5B1B8"></path>
                <path d="M161.118223,88.9191818 C160.965188,89.6078661 160.89653,90.3126414 160.913765,91.017941 C160.950463,92.6444794 160.976675,95.4095947 160.683095,96.0444694 L155.131271,109.397825 L164.976715,111.076832 L172.478754,97.9018713 C172.720537,97.4781746 172.9325,97.0381164 173.113098,96.5848999 L175.000404,91.8626916 C175.267827,91.1937747 175.418553,90.4838829 175.446018,89.7639324 L175.566596,86.8938791 C175.587771,86.4429457 175.692662,85.9999014 175.875904,85.5874015 L177.191775,82.6596324 C177.547726,81.8647963 177.474617,80.9432378 176.997802,80.2145779 L172.347691,73.105031 L154.853418,78.351929 L161.485199,84.0080852 C161.75859,84.248836 161.887592,84.6143152 161.825963,84.9735144 L161.118223,88.9191818 Z" id="Path" fill="#0099DA"></path>
                <path d="M161.773538,85.3460442 L172.525937,73.4093511 L157.799711,77.5124254 L154.937298,78.456867 L161.495685,84.0500604 C161.769075,84.2908112 161.898077,84.6562904 161.836448,85.0154896 L161.773538,85.3460442 Z" id="Path" fill="url(#linearGradient-1)" style="mix-blend-mode: multiply;"></path>
                <path d="M116.745574,30.479231 L122.328853,34.6767494 C123.510102,35.5681652 124.949093,36.0506852 126.4285,36.0514367 L131.440344,36.0514367 C132.631109,36.0498672 133.801179,36.3629913 134.832252,36.9591501 L146.318603,43.5649948 C146.715735,43.7949551 147.157075,43.9380189 147.613504,43.9847466 L148.562399,44.0844377 C150.122817,44.2504012 151.349329,45.4955061 151.492965,47.0594289 L151.492965,47.0594289 C151.556599,47.7553126 151.839288,48.413022 152.300313,48.9378184 L173.050188,72.2445397 C173.177682,72.384194 173.238717,72.5721422 173.217624,72.7601302 C173.196531,72.9481181 173.095363,73.1178358 172.940095,73.2257096 L155.639795,85.7553022 L153.742004,82.7750641 L151.917609,86.7627067 L153.742004,109.670664 L94.2027578,103.988273 L82.7006792,76.295145 L85.9248261,59.1115538 C86.1190842,58.0654319 86.6760541,57.1215076 87.4975807,56.4461296 L99.4924558,46.6501708 C100.115526,46.1398413 100.558411,45.4427713 100.755902,44.6615965 L101.704797,40.8523485 L116.735089,30.479231" id="Path" fill="#CCD3D7"></path>
                <path d="M153.338331,81.6679686 L146.816642,77.3917467 C146.184419,76.9807256 145.660993,76.4226576 145.29107,75.7652083 L139.131114,64.814932 C139.032917,64.632504 138.816399,64.5490898 138.621329,64.6185353 C138.426259,64.6879808 138.31101,64.8895043 138.349979,65.0930176 L141.642279,85.2253655 C141.729757,85.7536551 141.894015,86.2662874 142.129833,86.746966 L146.360543,95.3099036 C147.072854,96.7577773 147.105507,98.447571 146.449666,99.9219271 L143.00009,107.671596 L144.572845,108.804926 L153.762974,109.686404 L151.938579,86.7784474 L153.673852,82.9796932 L153.338331,81.6679686 Z" id="Path" fill="url(#linearGradient-2)" style="mix-blend-mode: multiply;"></path>
                <path d="M119.005098,52.5581781 L109.657693,58.6130985 L103.801803,57.96773 C103.399164,57.8945322 103.09716,57.5577322 103.067851,57.1492139 L102.900091,55.0189733 C102.889872,54.9107084 102.813975,54.8199768 102.709283,54.7908714 C102.604591,54.761766 102.492811,54.8003214 102.428264,54.8878008 L98.8214138,59.9667982 C98.7148361,60.1178931 98.5175088,60.1743159 98.3472636,60.1023745 C98.1770183,60.0304331 98.0798054,59.8495449 98.1136743,59.667725 L100.734932,44.6615965 C100.537441,45.4427713 100.094556,46.1398413 99.4714857,46.6501708 L86.1974369,57.4902623 L82.6692241,76.295145 L88.283958,89.8164014 L111.440148,98.8043378 L116.950032,83.7824686 C117.385919,82.5891553 117.075265,81.2507834 116.158412,80.3719848 L112.095463,76.4787864 C111.138402,75.5640691 110.84438,74.1532499 111.356268,72.9318833 L119.670897,53.1353369 C119.737267,52.9515469 119.683666,52.7458288 119.53607,52.617883 C119.388474,52.4899372 119.177382,52.466201 119.005098,52.5581781 L119.005098,52.5581781 Z" id="Path" fill="url(#linearGradient-3)" style="mix-blend-mode: multiply;"></path>
                <path d="M123.036592,35.1542171 C123.214838,35.2539082 123.393083,35.3431055 123.560844,35.4270558 C123.393083,35.3326117 123.19911,35.2381675 123.036592,35.1542171 Z" id="Path" fill="#EDECE9"></path>
                <path d="M88.3625958,18.8888331 L85.3481494,15.4153866 C84.9650217,15.0219382 84.7570468,14.4902126 84.7714728,13.9410082 L84.8868081,9.35521928 C84.9064158,8.73467643 85.2050445,8.15620233 85.699398,7.78114985 L93.3272578,2.00956197 C93.7696549,1.67256862 94.2988423,1.46872487 94.8528297,1.42190938 L105.552804,0.514196012 C107.430098,0.356547562 109.285515,1.00734534 110.653771,2.30338826 L115.896286,7.27744764 C117.032866,8.35529605 117.702764,9.83557746 117.762622,11.4015095 L118.171538,22.3045637 C118.219561,23.5040424 118.014122,24.7001619 117.568649,25.8147386 L115.429702,31.1823153 L88.1371676,18.3116743" id="Path" fill="#023852"></path>
                <path d="M87.9746496,12.6292837 C87.9962636,12.0080406 88.2967456,11.4297076 88.792482,11.0552143 L96.2420963,5.07375044 C96.6869558,4.73761015 97.2175566,4.53392193 97.7729108,4.48609786 L111.744214,3.30029889 L110.653771,2.29289446 C109.285515,0.99685154 107.430098,0.346053766 105.552804,0.503702216 L94.8528297,1.41141558 C94.2973601,1.45014313 93.7644715,1.64673043 93.3167727,1.97808058 L85.6889129,7.74966847 C85.1945594,8.12472094 84.8959308,8.70319504 84.8763231,9.32373789 L84.7609877,13.9095268 C84.7475225,14.4601169 84.9552542,14.9931106 85.3376644,15.3891521 L87.9589221,18.3956247 L87.9746496,12.6292837 Z" id="Path" fill="#3C667A"></path>
                <path d="M49.279644,34.8656378 L51.8642041,35.8205732 C52.8381389,36.179219 53.6288128,36.9120065 54.060818,37.8563697 L55.5601774,41.1304341 L51.2193747,52.2958332 L51.1040394,55.443972 L52.0634197,58.1618652 L51.0516142,64.0751194 L27.355445,46.5977019 L27.9845468,45.5483222 C28.8777376,44.0675549 30.1719745,42.8704765 31.7172177,42.0958633 L45.2324222,35.0912544 C46.4906018,34.4528756 47.9584116,34.371051 49.279644,34.8656378 L49.279644,34.8656378 Z" id="Path" fill="#023852"></path>
                <path d="M69.1120795,70.7806551 L67.0674985,64.1853042 C66.7887558,63.2853107 67.1185179,62.3078909 67.8853309,61.7612373 L70.5065886,59.8776009 C71.0229207,59.5110762 71.3510447,58.9349388 71.4030587,58.3035315 L71.4030587,58.0044583 C71.4454403,57.4629834 71.2826103,56.9253826 70.9469599,56.4985985 L69.7254538,54.9560105 C69.4987335,54.6680715 69.3701253,54.3150226 69.3584777,53.9486061 L69.3584777,53.8751495 C69.3435496,53.3593203 69.0946074,52.8784024 68.6821932,52.5686719 L67.9377561,52.14892 L67.8800884,51.2097253 C67.8539627,50.8233588 67.6325347,50.4770882 67.2929267,50.2915181 L66.2024835,49.6933717 C65.9306696,49.5449574 65.7879978,49.235932 65.851235,48.9325715 L66.2496661,47.0646758 C66.337992,46.5990288 66.0555992,46.1431759 65.5995942,46.0152962 L59.9062226,44.4412267 C59.5278611,44.3631252 59.2132873,44.1014171 59.0674201,43.7433893 L58.9415998,43.4285754 C58.4608478,42.2516663 57.5387422,41.3099556 56.3727673,40.8051264 L50.4067848,38.2236525 C49.1995141,37.7002725 47.7930601,38.008852 46.9152696,38.9896996 C46.6567927,39.2832951 46.6287901,39.7144657 46.8471169,40.0390793 L49.4159494,44.121166 C49.781198,44.6992065 49.8786962,45.4071375 49.6833177,46.0625183 L49.0489734,48.2714623 C48.8356656,48.9944389 48.8688656,49.7679084 49.1433386,50.4699126 L49.8563207,52.2695987 C50.053644,52.7693911 50.0326946,53.3290676 49.7985612,53.8126831 C49.5644278,54.2962986 49.1385342,54.6596009 48.6243296,54.8143443 L47.1826379,55.2550837 C46.6577839,55.4147643 46.2797188,55.873784 46.2232576,56.4198951 L46.197045,56.6612524 C46.165441,56.9720113 46.23931,57.2843686 46.4067456,57.5479782 L49.9244734,62.9995053 L49.3058566,63.3405536 L55.8799708,75.0463833 L73.4686097,80.1883434 L72.5616546,74.6528659 L69.5681783,71.5362084 C69.3612206,71.3219577 69.2053058,71.063676 69.1120795,70.7806551 L69.1120795,70.7806551 Z" id="Path" fill="#0099DA"></path>
                <path d="M52.8393119,61.2417944 L52.1210873,61.6877807 C51.4613233,62.0932614 50.649036,62.1632776 49.9297159,61.8766691 L48.3569613,61.2417944 L50.7108507,65.7751143 L54.4854617,66.1319034 L53.5365665,61.5146331 C53.5089668,61.3645909 53.405799,61.2395049 53.2638281,61.1839511 C53.1218572,61.1283972 52.9612768,61.1502775 52.8393119,61.2417944 L52.8393119,61.2417944 Z" id="Path" fill="url(#linearGradient-4)" style="mix-blend-mode: multiply;"></path>
                <path d="M47.7068894,61.5775959 C47.7068894,61.5775959 55.5182373,69.7207817 55.5182373,69.9726328 C55.5182373,70.2244839 57.6466985,73.5562642 57.6466985,73.5562642 L63.2561899,70.7701613 L61.599555,68.005046 C61.1446373,67.2482856 60.4539101,66.6620593 59.6336118,66.3365324 L47.7068894,61.5775959 Z" id="Path" fill="#023852"></path>
                <path d="M128.258137,101.789823 C128.488808,101.711119 133.694626,100.577789 136.064243,100.06884 C136.774364,99.9134721 137.51189,100.166261 137.977761,100.724702 L140.032827,103.185498 L132.169054,104.759567 L128.258137,101.789823 Z" id="Path" fill="#26A8E0"></path>
                <path d="M128.258137,101.789823 C128.488808,101.711119 133.694626,100.577789 136.064243,100.06884 C136.774364,99.9134721 137.51189,100.166261 137.977761,100.724702 L140.032827,103.185498 L132.169054,104.759567 L128.258137,101.789823 Z" id="Path" fill="url(#linearGradient-5)" style="mix-blend-mode: multiply;"></path>
                <path d="M106.894887,101.936736 L110.407373,97.4244036 L119.487409,99.4602 C120.21251,99.6225629 120.971779,99.5182625 121.626355,99.1663737 L121.626355,99.1663737 C122.615055,98.6226661 123.821536,98.6629157 124.771865,99.2713117 L133.479683,104.796295 L129.212275,105.415429 L106.894887,101.936736 Z" id="Path" fill="#FFFFFF"></path>
                <polygon id="Path" fill="#28566C" points="280.595148 154.442445 278.435231 143.077664 192.809229 130.768441 89.1909132 136.923052 91.6968355 145.811298 262.539925 159.768047"></polygon>
                <path d="M-11.8569599,100.431374 L99.9830248,100.478066 C100.206065,100.478159 100.386949,100.659038 100.387043,100.882071 L100.388306,103.908216 C100.388306,104.997309 99.5062158,105.879824 98.4170868,105.87937 L-11.8547046,105.833332 C-12.9438336,105.832878 -13.8281683,104.949625 -13.8281683,103.860532 L-13.8281683,102.428751 C-13.8281683,101.339658 -12.946078,100.457143 -11.856949,100.457597 L-11.8569599,100.431374 Z" id="Path" fill="#678897" transform="translate(43.280069, 103.155372) rotate(46.140000) translate(-43.280069, -103.155372) "></path>
                <path d="M91.4399523,108.484865 L56.7187733,86.4478928 L53.9349976,85.6870926 L49.7409854,80.5293918 L11.7589619,58.6708143 L9.26876709,61.1893254 C8.59775738,61.8625844 8.50919144,62.9218322 9.05906648,63.6973427 L15.748516,73.1942282 C16.8530291,74.7577867 17.1342511,76.7592592 16.5034382,78.5670519 L16.5034382,78.5670519 C16.262221,79.2630647 16.1520137,79.9978012 16.1784023,80.7340208 L16.8284742,98.9407571 C16.8434724,99.389183 17.0561247,99.8079379 17.409229,100.084379 C17.7623333,100.360821 18.2196311,100.466562 18.658112,100.37316 L34.9675772,96.9469359 C38.0042244,96.3096864 41.0115644,98.1491694 41.8300298,101.144454 L41.8300298,101.144454 C42.1185729,102.177719 42.6842387,103.112211 43.4656945,103.846607 L87.9012544,145.627656 L124.95011,142.510999 C125.887943,142.426545 126.805538,142.818721 127.393122,143.555132 L127.393122,143.555132 C128.15603,144.55206 129.487684,144.920607 130.653967,144.457598 L140.515138,140.532918 C142.051352,139.919048 143.71646,139.699012 145.359222,139.892797 L167.902038,142.516246 C168.749292,142.614892 169.602454,142.653466 170.455143,142.631677 L231.006195,140.957917 L230.670674,129.000236 L232.720498,128.475546 L233.575028,124.718767 L159.036945,109.271899 C157.988442,109.05153 156.939939,108.883629 155.844253,108.74721 L145.039429,107.508942 L91.4399523,108.484865 Z" id="Path" fill="#FFFFFF"></path>
                <path d="M241.942082,122.252725 L250.372047,116.140089 C250.942782,115.725083 251.627382,115.496081 252.332747,115.484227 L259.373446,115.353054 C260.089615,115.337743 260.783566,115.101346 261.360359,114.676204 L275.074779,104.570679 C276.526873,103.507684 278.550625,103.735775 279.730133,105.095369 L290.435349,117.436073 C291.232194,118.353697 291.488974,119.622737 291.111633,120.778347 L290.340984,123.12371 C290.189947,123.586625 290.297945,124.095038 290.624079,124.456422 L295.164098,129.472457 C296.080156,130.485401 296.314362,131.943219 295.761744,133.192508 L287.536238,151.735046 L280.584663,154.442445 L278.917543,147.374873 C278.847811,147.076045 278.622556,146.838034 278.328195,146.752152 C278.033834,146.66627 277.716074,146.745853 277.496821,146.960368 L268.941036,155.239974 C268.387362,155.780444 267.581391,155.972023 266.84403,155.738429 L253.538526,151.672083 C252.876686,151.468063 252.175785,151.424895 251.493945,151.546157 L240.484663,153.492756 L239.058699,127.887894 L241.942082,122.252725 Z" id="Path" fill="#FFFFFF"></path>
                <path d="M94.255183,149.741224 L99.5291534,222.326812 C99.6183886,223.581027 99.9759669,224.801388 100.577656,225.905197 L100.692992,226.12032 C101.645913,227.866522 101.978601,229.884668 101.636645,231.844686 L96.9498359,258.745532 C96.8065935,259.59961 97.2022202,260.454045 97.9459138,260.89676 L100.205438,262.224225 C100.967748,262.682316 101.358527,263.571766 101.180546,264.443663 L101.180546,264.443663 C101.071475,264.982903 100.755197,265.457716 100.299803,265.765882 L99.738854,266.138411 C99.1196157,266.559863 98.771927,267.27982 98.8266563,268.027295 L99.4190606,275.734988 L96.0009406,280.834973 L103.864714,287.026313 C104.227676,287.311859 104.653736,287.506175 105.10719,287.592978 L120.132239,290.520747 L119.529349,274.507214 C119.490425,273.482131 119.838553,272.479958 120.504457,271.700123 L122.779709,269.029452 C123.693854,267.955624 123.989217,266.485508 123.560844,265.141501 L122.208275,260.907254 C122.053063,260.4177 121.990828,259.903384 122.024787,259.3909 L128.121832,168.797958 L134.040632,219.131451 L130.837455,241.85052 C130.698603,242.835806 130.771889,243.839418 131.052398,244.79403 L134.360425,256.048626 C134.605662,256.900011 134.689239,257.789866 134.606823,258.672075 L134.14024,263.567431 C134.083337,264.165605 134.102715,264.768593 134.197907,265.36187 L137.469237,285.368293 L141.406366,283.453175 C142.224242,283.048977 143.183535,283.048977 144.001411,283.453175 L153.411726,288.175383 L157.684376,271.322347 C158.010753,270.026687 157.850311,268.656183 157.23352,267.471123 L152.515256,258.462199 C152.044298,257.556494 151.837206,256.53653 151.917609,255.51869 L155.655522,208.296607 L155.655522,207.981793 L156.787906,155.124542 L94.255183,149.741224 Z" id="Path" fill="#023852"></path>
                <path d="M155.702705,208.328088 L155.702705,208.013274 L156.835088,155.156023 L94.255183,149.741224 L99.5291534,222.326812 C99.6183886,223.581027 99.9759669,224.801388 100.577656,225.905197 L100.692992,226.12032 C101.645913,227.866522 101.978601,229.884668 101.636645,231.844686 L96.9498359,258.745532 C96.8065935,259.59961 97.2022202,260.454045 97.9459138,260.89676 L100.205438,262.224225 C100.52836,262.418339 100.791425,262.697965 100.965603,263.032248 L122.727284,249.054511 L128.127074,168.776971 L134.045874,219.110464 L130.842697,241.829533 C130.748349,242.485512 130.748349,243.151634 130.842697,243.807613 L154.030343,228.916916 L155.702705,208.328088 Z" id="Path" fill="url(#linearGradient-6)" style="mix-blend-mode: multiply;"></path>
                <rect id="Rectangle" fill="#376276" x="61.7463455" y="259.710961" width="156.793148" height="6.8367082"></rect>
                <polygon id="Path" fill="#4E7486" points="64.2784804 146.026421 218.015242 260.818057 213.02961 267.046125 57.0752643 150.507271"></polygon>
                <polygon id="Path" fill="#678897" points="186.056869 169.600734 68.9390765 268.893033 63.5759833 262.979779 180.699018 163.687479"></polygon>
                <path d="M224.667994,179.879407 L180.767171,175.472013 C180.187998,175.400759 179.768812,174.883873 179.818276,174.301954 L180.772413,163.136555 L226.82791,167.759072 L225.858045,178.919225 C225.792101,179.51204 225.260819,179.9407 224.667994,179.879407 Z" id="Path" fill="#023852"></path>
                <path d="M87.9536796,18.5110564 L88.0165897,24.2826443 C88.0218542,24.8153306 88.1861695,25.3342699 88.4884161,25.7727634 L89.1017904,26.6594892 C89.362844,27.0336559 89.5218596,27.4695056 89.5631318,27.9239916 L89.7675899,30.0542322 C89.8063961,30.4621242 89.9391903,30.8554516 90.155536,31.2033029 L97.1228389,42.4683931 C97.4805369,43.0426959 98.0896087,43.412729 98.7637462,43.4653037 L101.385004,43.6751796 C101.637769,43.6975256 101.861416,43.8480684 101.977408,44.0739439 L109.254019,58.3979756 C109.312697,58.5151095 109.432406,58.5890656 109.563328,58.5890656 C109.694249,58.5890656 109.813959,58.5151095 109.872636,58.3979756 L117.432343,42.5575903 C117.511055,42.3908307 117.567461,42.2144147 117.600104,42.0329005 L118.769185,35.211933 C118.841469,34.7759902 118.769685,34.3283466 118.564727,33.9369368 L115.335337,27.8085598 C115.048149,27.2646507 115.02498,26.6192295 115.272427,26.0560959 L115.272427,26.0560959 C115.493058,25.5516715 115.571037,24.9962914 115.497855,24.4505451 L114.900208,20.0588914 C114.836391,19.6514564 114.654049,19.2718688 114.375957,18.9675366 L114.134801,18.6999448 C113.724741,18.2504711 113.136438,18.0064334 112.52891,18.0337951 C111.921382,18.0611567 111.357357,18.3570925 110.989292,18.841611 L110.989292,18.841611 C110.669834,19.2643287 110.528673,19.7955366 110.596103,20.3212363 L110.884442,22.6298714 C110.964068,23.2773413 110.561834,23.8867568 109.935546,24.0675215 L109.159654,24.2878912 C108.799022,24.390012 108.412023,24.3340243 108.095049,24.133873 C107.778074,23.9337216 107.560957,23.6082456 107.497777,23.2385116 L106.75334,19.3505601 C106.598057,18.5395619 106.114091,17.8291525 105.416498,17.3882202 L100.504261,14.2715628 C100.081809,14.0038846 99.5372279,14.0290402 99.1412073,14.3345256 L94.1660602,18.175255 C93.8685008,18.4054488 93.4797308,18.4813224 93.1175572,18.379884 L89.4477964,17.3305044 C89.0858135,17.23464 88.6998587,17.3148762 88.4059662,17.5470906 C88.1120736,17.779305 87.9445203,18.1364142 87.9536796,18.5110564 Z" id="Path" fill="#0099DA"></path>
                <ellipse id="Oval" fill="#023852" cx="71.4607264" cy="287.461805" rx="13.6619949" ry="13.6734164"></ellipse>
                <path d="M70.480376,273.66771 L70.480376,260.650156 C70.480376,260.118579 70.2693841,259.608773 69.8938161,259.232891 C69.5182481,258.857009 69.0088685,258.645841 68.4777351,258.645841 L56.9442014,258.645841 C55.8381734,258.645841 54.9415606,259.543203 54.9415606,260.650156 L54.9415606,272.744256 C54.9423515,274.048246 55.4282738,275.305219 56.3046146,276.270172 L68.5825854,289.77044 C69.7410158,291.040391 71.6668488,291.239004 73.0596935,290.232167 L73.0596935,290.232167 C74.2351362,289.375569 74.7330708,287.863624 74.2969271,286.475388 L70.7477443,275.247026 C70.5783824,274.737386 70.4882091,274.204742 70.480376,273.66771 L70.480376,273.66771 Z" id="Path" fill="#7E9AA7"></path>
                <ellipse id="Oval" fill="#9FB3BD" cx="71.0255976" cy="287.440818" rx="1.66187736" ry="1.66326669"></ellipse>
                <path d="M68.4777351,258.672075 L56.9442014,258.672075 C55.8381734,258.672075 54.9415606,259.569438 54.9415606,260.67639 L54.9415606,267.434395 L70.5013461,267.434395 L70.5013461,260.650156 C70.4869561,259.545236 69.5817647,258.660411 68.4777351,258.672075 Z" id="Path" fill="#023852"></path>
                <ellipse id="Oval" fill="#023852" cx="228.253875" cy="287.461805" rx="13.6619949" ry="13.6734164"></ellipse>
                <path d="M227.273524,273.66771 L227.273524,260.650156 C227.25918,259.553462 226.366755,258.672075 225.270883,258.672075 L213.73735,258.672075 C212.631322,258.672075 211.734709,259.569438 211.734709,260.67639 L211.734709,272.770491 C211.7355,274.074481 212.221422,275.331453 213.097763,276.296406 L225.375734,289.796675 C226.534164,291.066626 228.459997,291.265238 229.852842,290.258402 L229.852842,290.258402 C231.028284,289.401804 231.526219,287.889858 231.090075,286.501623 L227.525165,275.247026 C227.361143,274.73655 227.276278,274.203925 227.273524,273.66771 L227.273524,273.66771 Z" id="Path" fill="#7E9AA7"></path>
                <ellipse id="Oval" fill="#9FB3BD" cx="227.818746" cy="287.440818" rx="1.66187736" ry="1.66326669"></ellipse>
                <path d="M225.270883,258.672075 L213.73735,258.672075 C212.631322,258.672075 211.734709,259.569438 211.734709,260.67639 L211.734709,267.434395 L227.294494,267.434395 L227.294494,260.650156 C227.280104,259.545236 226.374913,258.660411 225.270883,258.672075 Z" id="Path" fill="#023852"></path>
                <path d="M59.4343962,62.6899383 L66.1867559,65.8380771 C66.4448721,65.959017 66.7475768,65.9347932 66.9832122,65.774341 C67.2188477,65.6138888 67.3524991,65.3409829 67.3348668,65.0562893 L67.0674985,64.1853042 C66.7887558,63.2853107 67.1185179,62.3078909 67.8853309,61.7612373 L68.1422142,61.5775959 C68.2177984,61.5055238 68.298385,61.4388966 68.3833699,61.3782138 L70.5432862,59.8356257 C70.5928898,59.7964584 70.6401538,59.7544109 70.6848341,59.7097002 L59.9114651,60.23439 C59.3168189,60.2587449 58.8167752,60.6887531 58.7031803,61.2734439 C58.5895854,61.8581347 58.8921961,62.4443451 59.4343962,62.6899383 L59.4343962,62.6899383 Z" id="Path" fill="url(#linearGradient-7)" style="mix-blend-mode: multiply;"></path>
                <path d="M45.7199761,95.6719396 C45.2430577,95.441291 44.7069434,95.3625464 44.1839191,95.446323 L36.3201462,96.7423068 L36.3673288,96.8105165 C38.4602518,96.8746973 40.3603205,98.0504853 41.3529609,99.8956926 L45.8090989,96.9102076 C46.0231494,96.7686173 46.1446782,96.522839 46.127323,96.2666353 C46.1099678,96.0104315 45.9564053,95.7833191 45.7252186,95.6719396 L45.7199761,95.6719396 Z" id="Path" fill="#E6EAED"></path>
                <path d="M19.1037258,41.9751847 L1.11665576,42.4998745 C0.821116022,42.5080463 0.548605602,42.6615304 0.388252823,42.9101277 C0.227900044,43.1587249 0.200326656,43.4704651 0.314550919,43.7433893 L1.82439533,47.416218 C2.0140253,47.8708475 2.27998938,48.2896475 2.61077263,48.6544859 L10.3067851,57.0495228 C11.2715882,58.1047676 12.3925683,59.0054867 13.6305398,59.720194 L47.1040002,78.9815568 C48.8401894,79.9805936 50.3179799,81.373358 51.4185903,83.0479028 L53.3950186,86.0491285 C53.6916988,86.4993756 54.1596248,86.808427 54.6899198,86.9043729 L56.3884948,87.208693 C57.1371365,87.3427579 57.8957104,87.0314364 58.3347808,86.4099302 C58.7738512,85.788424 58.8142054,84.968859 58.4383183,84.3071584 L58.4383183,84.3071584 C58.2909269,84.0428847 58.2049173,83.7487729 58.1866776,83.4466671 L57.4317554,70.2034963 C57.3738785,69.20174 56.8721062,68.2781688 56.0634589,67.6849853 L22.422238,43.0245643 C21.4639271,42.314214 20.2958651,41.9448495 19.1037258,41.9751847 L19.1037258,41.9751847 Z" id="Path" fill="#FFFFFF"></path>
                <path d="M51.4185903,83.0583966 L53.3950186,86.0596223 C53.6916988,86.5098694 54.1596248,86.8189208 54.6899198,86.9148667 L56.3884948,87.2191868 C56.9690715,87.3227199 57.5652781,87.1577648 58.0102845,86.7704792 C58.455291,86.3831936 58.7013002,85.8151748 58.679474,85.2253655 L48.5561769,72.5646005 L13.7353901,50.2075677 L0.791619814,42.6153062 C0.573410529,42.7057162 0.400298121,42.8795773 0.310723644,43.0982824 C0.221149167,43.3169874 0.222526905,43.5624336 0.314550919,43.7801176 L1.82439533,47.4529462 C2.0140253,47.9075758 2.27998938,48.3263758 2.61077263,48.6912142 L10.3067851,57.0862511 C11.2715882,58.1414959 12.3925683,59.042215 13.6305398,59.7569222 L47.1040002,79.0182851 C48.8372799,80.0098634 50.3148244,81.3934119 51.4185903,83.0583966 L51.4185903,83.0583966 Z" id="Path" fill="#EBEFF1"></path>
                <path d="M79.4555622,84.5537626 L86.6902334,72.123861 C86.8296721,71.8803559 87.0772206,71.718437 87.3560328,71.6883685 L90.0297156,71.4207767 C90.2138824,71.4084405 90.3972674,71.4543251 90.5539672,71.5519491 L100.284076,77.6068695 C100.457003,77.7150072 100.586793,77.8801642 100.651052,78.0738435 L103.964321,87.9747401 C104.003404,88.087578 104.019449,88.2071219 104.011504,88.3262823 L105.783474,96.1021853 L97.8882461,100.693221 L96.4150993,100.336432 L79.0414035,86.2222762 L79.4555622,84.5537626 Z" id="Path" fill="#FFFFFF"></path>
                <path d="M101.972166,44.0739439 L104.436148,48.9273246 C104.928025,49.8973402 105.938136,50.4930139 107.024299,50.4535865 C108.110462,50.414159 109.074803,49.7468132 109.495175,48.7436832 L113.164936,40.0128448 C113.301984,39.6793853 113.32049,39.3089436 113.217361,38.9634652 L113.217361,38.9634652 C113.046931,38.4253563 112.601641,38.0197866 112.050344,37.900546 C111.499046,37.7813054 110.92616,37.9666531 110.548921,38.3863064 L108.168819,41.0727182 C108.024457,41.2375546 107.845423,41.3683591 107.644567,41.4557417 L101.972166,44.0739439 Z" id="Path" fill="url(#linearGradient-8)" style="mix-blend-mode: multiply;"></path>
                <path d="M283.253103,126.549935 L285.240016,140.396499 C285.412525,141.607115 285.065993,142.83433 284.285878,143.775501 L279.452279,149.604805 L280.595148,154.442445 L287.546723,151.735046 L293.39737,138.544344 L284.668582,125.999011 C284.475115,125.677573 284.078576,125.542136 283.729131,125.678145 C283.379686,125.814154 283.178756,126.182134 283.253103,126.549935 Z" id="Path" fill="#EBEFF1"></path>
                <path d="M97.510785,100.913591 L102.229049,97.3981691 C102.572905,97.1449992 102.864814,96.8279062 103.088821,96.4642212 L104.876519,93.6046618 C104.937114,93.510194 105.034249,93.4452181 105.144636,93.4253119 C105.255024,93.4054056 105.36871,93.432364 105.458438,93.4997238 L110.33922,97.2355152 C110.426856,97.3017459 110.483294,97.4012403 110.495203,97.5104984 C110.507112,97.6197566 110.473436,97.7290898 110.40213,97.812674 L106.533154,102.366982 L97.510785,100.913591 Z" id="Path" fill="#1E4E65"></path>
                <path d="M249.417909,122.777415 L275.51515,113.170345 C277.196132,112.541896 279.087794,112.922171 280.395932,114.151515 L290.880963,124.69778 L290.655535,124.451176 C290.3294,124.089791 290.221403,123.581378 290.372439,123.118463 L290.7499,121.958899 L290.7499,121.958899 L290.870478,121.591616 L291.143088,120.7731 C291.418503,119.91603 291.352773,118.985642 290.9596,118.175885 C290.826892,117.908011 290.661351,117.65773 290.466804,117.430826 L279.751103,105.079628 C279.323386,104.585899 278.765733,104.222303 278.14165,104.030248 C277.100484,103.714679 275.971587,103.909144 275.095749,104.554938 L261.381329,114.660464 C260.804537,115.085605 260.110585,115.322002 259.394416,115.337314 L252.353718,115.468486 C251.648352,115.48034 250.963752,115.709342 250.393017,116.124348 L241.942082,122.252725 L239.451887,127.085118 L249.417909,122.777415 Z" id="Path" fill="#EBEFF1"></path>
                <path d="M241.811019,122.504576 C241.836875,122.451501 241.832974,122.388734 241.800745,122.339276 C241.768516,122.289817 241.712698,122.260937 241.653744,122.263093 L235.053417,122.546552 C233.945715,122.592069 232.969204,123.287516 232.563222,124.320003 L230.990468,128.155486 C230.763346,128.71275 230.656165,129.311679 230.675917,129.913196 L231.504234,156.777315 L240.641938,157.632559 L239.069184,128.937273 C239.031051,128.255706 239.175861,127.576343 239.488585,126.969687 L241.811019,122.504576 Z" id="Path" fill="#023852"></path>
                <path d="M82.6010714,79.228161 L69.5262382,72.6328101 C66.3898984,71.0686066 62.7017989,71.0686066 59.5654591,72.6328101 L57.6781536,73.5772518 L57.6781536,81.599759 L56.7816835,87.623198 L56.7135308,88.9821446 C56.6780933,89.7122928 56.9795859,90.4182979 57.5313631,90.8972624 L71.1356904,102.613586 L88.5985089,112.1472 C88.9473537,112.3359 89.3307785,112.451916 89.7256497,112.488248 L110.821531,114.382378 C111.30444,114.42961 111.790799,114.42961 112.273708,114.382378 L129.574009,112.808309 L130.09826,108.505852 C130.176166,107.86846 130.009405,107.225234 129.631676,106.706166 L128.583173,105.247529 L97.5736952,100.52532 C96.854185,100.415288 96.1772027,100.114558 95.6129945,99.6543353 L79.4870173,86.5370901 C79.2605277,86.3534763 79.1928256,86.0365405 79.3244993,85.7762898 L82.6010714,79.228161 Z" id="Path" fill="#9DADB7"></path>
                <path d="M128.546476,105.252776 L138.72744,102.571611 C139.287131,102.424705 139.882878,102.579729 140.300195,102.980869 L144.41557,106.921289 C144.804536,107.294902 144.981535,107.838154 144.887396,108.369433 L144.45751,110.803994 C144.360869,111.351754 143.905531,111.764276 143.351339,111.806151 L129.553039,112.808309 L130.07729,108.574062 C130.150745,107.889046 129.963556,107.201484 129.553039,106.64845 L128.546476,105.252776 Z" id="Path" fill="#26A8E0"></path>
                <path d="M144.420812,106.921289 L140.111465,102.79198 C140.038394,102.719244 139.927813,102.699704 139.834274,102.743002 C139.740735,102.7863 139.684002,102.883287 139.692063,102.986116 L139.943704,106.658944 C139.975221,107.041987 140.119328,107.407121 140.357863,107.708324 L143.555797,111.737942 C144.020992,111.631951 144.377974,111.258149 144.462752,110.788253 L144.892638,108.353692 C144.98128,107.827546 144.804716,107.291521 144.420812,106.921289 Z" id="Path" fill="url(#linearGradient-9)" style="mix-blend-mode: multiply;"></path>
                <path d="M87.7806766,102.687042 L74.6429332,94.570091 C74.2349526,94.3190076 73.864337,94.0116694 73.5420049,93.6571308 L57.6676685,76.2584167 L57.6676685,81.5630307 L56.7816835,87.623198 L56.7135308,88.9821446 C56.6780933,89.7122928 56.9795859,90.4182979 57.5313631,90.8972624 L71.1356904,102.613586 L88.5985089,112.1472 C88.9473537,112.3359 89.3307785,112.451916 89.7256497,112.488248 L93.6680213,112.83979 L90.5696947,105.892897 C89.9819813,104.568726 89.0103059,103.451828 87.7806766,102.687042 L87.7806766,102.687042 Z" id="Path" fill="#EBEFF1" style="mix-blend-mode: multiply;"></path>
                <path d="M292.338382,169.779128 L265.601554,167.092716 C265.312018,167.124592 265.051484,166.915521 265.019635,166.625742 C264.987786,166.335964 265.196682,166.075212 265.486218,166.043337 L291.174544,157.538115 C293.050946,156.965454 294.145544,155.017104 293.659496,153.11498 C293.391449,152.176701 292.750572,151.389543 291.886521,150.937322 C291.022471,150.485101 290.010897,150.407411 289.088022,150.722394 L263.273877,159.505702 C262.790487,159.670447 262.27741,159.729491 261.769275,159.678849 L174.717308,150.953258 C173.768139,150.856682 173.07625,150.009289 173.170766,149.059128 L175.100012,129.808259 C175.363325,127.528798 174.762829,125.233396 173.417164,123.375561 C171.941933,121.392407 169.695751,120.128231 167.236239,119.896868 L75.1724272,110.651834 C70.3470727,110.178635 66.0461144,113.695427 65.5471691,118.522181 L62.5956329,145.407287 C62.5159069,146.120612 61.8781349,146.637335 61.1644263,146.566851 L48.9283955,145.339077 C47.5850525,145.17327 46.3311024,146.042289 46.013557,147.359133 C45.8674773,148.070373 46.0293501,148.810257 46.4590368,149.395319 C46.8887235,149.980382 47.5459832,150.355831 48.2678386,150.428568 L291.971406,174.889607 C292.671495,174.959477 293.369507,174.73831 293.901866,174.277935 C294.434226,173.81756 294.754139,173.158444 294.786796,172.455046 C294.801828,171.057044 293.731149,169.886803 292.338382,169.779128 L292.338382,169.779128 Z M69.6887562,118.941933 C69.9478972,116.397793 72.2156439,114.543587 74.7582685,114.796883 L166.84305,124.041918 C168.064047,124.163839 169.186554,124.766491 169.96336,125.717152 C170.740166,126.667813 171.107562,127.888514 170.984637,129.110421 L169.029179,148.639376 C168.985537,149.096747 168.760974,149.517664 168.405499,149.808391 C168.050025,150.099119 167.593155,150.235517 167.136631,150.187211 L68.6769507,140.307302 C68.3295281,140.271643 68.0106943,140.09868 67.7912051,139.826798 C67.5717158,139.554916 67.4697262,139.206603 67.5078698,138.859158 L69.6887562,118.941933 Z" id="Shape" fill="#678897"></path>
                <path d="M48.2678386,150.433815 L93.4688057,154.967135 L106.271028,144.079821 L68.6769507,140.307302 C68.3295281,140.271643 68.0106943,140.09868 67.7912051,139.826798 C67.5717158,139.554916 67.4697262,139.206603 67.5078698,138.859158 L69.6939987,118.920945 C69.9531397,116.376805 72.2208864,114.522599 74.763511,114.775896 L133.747051,120.699643 L138.150764,116.953358 L75.1724272,110.651834 C70.3470727,110.178635 66.0461144,113.695427 65.5471691,118.522181 L62.5956329,145.407287 C62.5159069,146.120612 61.8781349,146.637335 61.1644263,146.566851 L48.9283955,145.339077 C47.5850525,145.17327 46.3311024,146.042289 46.013557,147.359133 C45.8658003,148.071149 46.0268786,148.812475 46.4567391,149.398774 C46.8865997,149.985074 47.5448592,150.361268 48.2678386,150.433815 L48.2678386,150.433815 Z" id="Path" fill="#4E7486"></path>
                <path d="M101.468884,113.29627 L103.959079,124.991606 L106.664217,164.254144 C106.69891,164.750625 106.941056,165.209485 107.331207,165.518072 C107.721359,165.82666 108.223386,165.956398 108.71404,165.875436 L113.956556,165.030685 C114.866831,164.883319 115.512038,164.061874 115.440187,163.141802 L112.410014,124.278028 L110.46504,114.167255 L101.468884,113.29627 Z" id="Path" fill="#1E4E65"></path>
                <path d="M82.7740744,108.941345 L77.3008884,108.699988 C76.5957732,108.669105 75.9073375,108.92017 75.3873703,109.397825 L60.0005879,123.56445 C59.8374686,123.712402 59.742276,123.920949 59.7371155,124.141217 C59.7323624,124.361484 59.818077,124.574109 59.9743753,124.729261 L63.5235582,128.26567 C63.8898549,128.632232 64.480027,128.643814 64.8603996,128.291905 L81.4529606,113.123123 C81.9830083,112.639081 82.6701081,112.363266 83.3874487,112.346582 L88.3154131,111.968805 L82.7740744,108.941345 Z" id="Path" fill="#1E4E65"></path>
                <polygon id="Path" fill="#EBEFF1" style="mix-blend-mode: multiply;" points="79.0623736 86.2222762 82.6010714 79.2019265 74.7215709 75.2247778"></polygon>
                <polygon id="Rectangle" fill="#FFE700" transform="translate(130.194683, 63.938799) rotate(-6.240000) translate(-130.194683, -63.938799) " points="125.885542 61.1714768 134.504322 61.1706983 134.503823 66.7061211 125.885043 66.7068996"></polygon>
            </g>
        </g>
    </g>
</svg>