<?xml version="1.0" encoding="UTF-8"?>
<svg width="440px" height="330px" viewBox="0 0 440 330" version="1.1" xmlns="http://www.w3.org/2000/svg" xmlns:xlink="http://www.w3.org/1999/xlink">
    <title>Graphic elements / Icons / Rich icons / Marketplace / Challenges-Reduce-Workplace-Accidents</title>
    <defs>
        <linearGradient x1="24.3186085%" y1="-628.639492%" x2="76.3720768%" y2="746.929592%" id="linearGradient-1">
            <stop stop-color="#FFFFFF" offset="0%"></stop>
            <stop stop-color="#9DADB7" offset="100%"></stop>
            <stop stop-color="#000000" offset="100%"></stop>
        </linearGradient>
        <linearGradient x1="0%" y1="50%" x2="100%" y2="50%" id="linearGradient-2">
            <stop stop-color="#FFFFFF" offset="0%"></stop>
            <stop stop-color="#3FB0E2" offset="100%"></stop>
        </linearGradient>
        <linearGradient x1="46.7024818%" y1="-129.376776%" x2="55.2333952%" y2="331.995739%" id="linearGradient-3">
            <stop stop-color="#FFFFFF" offset="0%"></stop>
            <stop stop-color="#9DADB7" offset="100%"></stop>
            <stop stop-color="#000000" offset="100%"></stop>
        </linearGradient>
        <linearGradient x1="9.01132195e-14%" y1="50.0879353%" x2="100%" y2="50.0879353%" id="linearGradient-4">
            <stop stop-color="#FFFFFF" offset="0%"></stop>
            <stop stop-color="#3FB0E2" offset="100%"></stop>
        </linearGradient>
        <linearGradient x1="0%" y1="50.0419111%" x2="100%" y2="50.0419111%" id="linearGradient-5">
            <stop stop-color="#FFFFFF" offset="0%"></stop>
            <stop stop-color="#3FB0E2" offset="100%"></stop>
        </linearGradient>
        <linearGradient x1="0%" y1="49.9835038%" x2="100%" y2="49.9835038%" id="linearGradient-6">
            <stop stop-color="#FFFFFF" offset="0%"></stop>
            <stop stop-color="#3FB0E2" offset="100%"></stop>
        </linearGradient>
        <linearGradient x1="84.0780365%" y1="69.3108983%" x2="43.5808685%" y2="32.9329243%" id="linearGradient-7">
            <stop stop-color="#FFFFFF" offset="0%"></stop>
            <stop stop-color="#3FB0E2" offset="100%"></stop>
        </linearGradient>
        <linearGradient x1="71.0646796%" y1="79.1063778%" x2="42.6177878%" y2="32.6572315%" id="linearGradient-8">
            <stop stop-color="#FFFFFF" offset="0%"></stop>
            <stop stop-color="#3FB0E2" offset="100%"></stop>
        </linearGradient>
        <linearGradient x1="81.7284248%" y1="68.7448022%" x2="37.6008886%" y2="48.4055495%" id="linearGradient-9">
            <stop stop-color="#FFFFFF" offset="0%"></stop>
            <stop stop-color="#3FB0E2" offset="100%"></stop>
        </linearGradient>
        <linearGradient x1="104.383561%" y1="52.8919414%" x2="-22.1516394%" y2="49.3445381%" id="linearGradient-10">
            <stop stop-color="#FFFFFF" offset="0%"></stop>
            <stop stop-color="#688897" offset="100%"></stop>
        </linearGradient>
        <linearGradient x1="-0.354071826%" y1="49.9918712%" x2="93.8796156%" y2="49.9918712%" id="linearGradient-11">
            <stop stop-color="#FFFFFF" offset="0%"></stop>
            <stop stop-color="#3FB0E2" offset="100%"></stop>
        </linearGradient>
        <linearGradient x1="60.4305293%" y1="13.6688009%" x2="40.917639%" y2="86.4446693%" id="linearGradient-12">
            <stop stop-color="#FFFFFF" offset="0%"></stop>
            <stop stop-color="#EDF0F1" offset="24%"></stop>
            <stop stop-color="#BDC8CE" offset="71%"></stop>
            <stop stop-color="#9DADB7" offset="100%"></stop>
        </linearGradient>
        <linearGradient x1="40.9339356%" y1="93.4664247%" x2="52.136177%" y2="39.7459165%" id="linearGradient-13">
            <stop stop-color="#FFFFFF" offset="0%"></stop>
            <stop stop-color="#9DADB7" offset="100%"></stop>
            <stop stop-color="#000000" offset="100%"></stop>
        </linearGradient>
        <linearGradient x1="40.9339356%" y1="93.4664247%" x2="52.1454046%" y2="39.7459165%" id="linearGradient-14">
            <stop stop-color="#FFFFFF" offset="0%"></stop>
            <stop stop-color="#9DADB7" offset="100%"></stop>
            <stop stop-color="#000000" offset="100%"></stop>
        </linearGradient>
    </defs>
    <g id="Graphic-elements-/-Icons-/-Rich-icons-/-Marketplace-/-Challenges-Reduce-Workplace-Accidents" stroke="none" stroke-width="1" fill="none" fill-rule="evenodd">
        <g id="reduce-workplace-accidents" transform="translate(44.000000, 0.000000)">
            <g id="Midlayer" transform="translate(31.000000, 0.563536)" stroke="#023852">
                <rect id="Rectangle" x="0.0683030303" y="0.24351585" width="50.5735152" height="81.7677522"></rect>
                <rect id="Rectangle" x="54.3301818" y="0.24351585" width="50.5735152" height="81.7677522"></rect>
                <rect id="Rectangle" x="108.592061" y="0.24351585" width="50.5735152" height="81.7677522"></rect>
                <rect id="Rectangle" x="162.858818" y="0.24351585" width="50.5735152" height="81.7677522"></rect>
                <rect id="Rectangle" x="217.120697" y="0.24351585" width="50.5735152" height="81.7677522"></rect>
                <rect id="Rectangle" x="271.387455" y="0.24351585" width="50.5735152" height="81.7677522"></rect>
                <rect id="Rectangle" x="0.0683030303" y="86.9838617" width="50.5735152" height="81.7677522"></rect>
                <rect id="Rectangle" x="54.3301818" y="86.9838617" width="50.5735152" height="81.7677522"></rect>
                <rect id="Rectangle" x="108.592061" y="86.9838617" width="50.5735152" height="81.7677522"></rect>
                <rect id="Rectangle" x="162.858818" y="86.9838617" width="50.5735152" height="81.7677522"></rect>
                <rect id="Rectangle" x="217.120697" y="86.9838617" width="50.5735152" height="81.7677522"></rect>
                <rect id="Rectangle" x="271.387455" y="86.9838617" width="50.5735152" height="81.7677522"></rect>
            </g>
            <g id="Ilus" transform="translate(0.000000, 42.563536)">
                <rect id="Rectangle" fill="#D8DEE2" fill-rule="nonzero" style="mix-blend-mode: multiply;" x="51.8731707" y="174.758149" width="253.834146" height="8.72694397"></rect>
                <polygon id="Path" stroke="#023852" points="319.936585 170.479949 36.3317073 170.479949 36.3317073 175.162581 51.8731707 175.162581 51.8731707 247.799406 55.8536585 247.799406 55.8536585 175.162581 305.712195 175.162581 305.712195 247.799406 309.687805 247.799406 309.687805 175.162581 319.936585 175.162581"></polygon>
                <path d="M214.990244,191.783243 L210.82439,120.388947 L213.531707,117.465348 L217.736585,193.966197 L225.082927,214.728625 L225.37561,270.988421 L224.492683,270.832496 L222.809756,216.745908 C222.762818,215.348872 222.491049,213.968493 222.004878,212.657742 L215.912195,196.20275 C215.386048,194.783724 215.075295,193.294083 214.990244,191.783243 L214.990244,191.783243 Z" id="Path" fill="#B0BDC6" fill-rule="nonzero"></path>
                <polygon id="Path" fill="url(#linearGradient-1)" fill-rule="nonzero" style="mix-blend-mode: multiply;" points="213.634146 117.37764 210.926829 120.310985 211.717073 135.78657 214.429268 133.969066"></polygon>
                <rect id="Rectangle" fill="#2BA8E0" fill-rule="nonzero" x="221.853659" y="89.1551613" width="10.0780488" height="58.2819525"></rect>
                <rect id="Rectangle" fill="url(#linearGradient-2)" fill-rule="nonzero" style="mix-blend-mode: multiply;" x="221.853659" y="86.3826146" width="10.0780488" height="33.5629202"></rect>
                <rect id="Rectangle" fill="#D8DEE2" fill-rule="nonzero" style="mix-blend-mode: multiply;" x="92.4682927" y="281.313599" width="165.741463" height="5.25273345" rx="2.62636672"></rect>
                <path d="M267.746341,21.4104924 L269.77561,20.6893379 C271.615167,20.0373991 272.839039,18.292617 272.82452,16.3429202 L272.82452,15.3683871 C272.809533,13.8919862 272.083093,12.5132747 270.873171,11.6651613 L255.609756,0.886825127 C254.900755,0.387063265 254.033285,0.163502984 253.170732,0.258251273 L241.365854,1.66645161 C240.582976,1.76196762 239.857337,2.12524733 239.312195,2.69458404 L233.458537,8.77079796 C232.694027,9.56723484 232.18453,10.5732276 231.995122,11.6602886 L228.995122,29.0069779 L238.75122,28.3101868 L253.746341,29.4942445 L263.556098,24.4997623 L267.746341,21.4104924 Z" id="Path" fill="#023852" fill-rule="nonzero"></path>
                <polygon id="Path" fill="#B0BDC6" fill-rule="nonzero" points="217.75122 143.982394 229.692683 143.982394 229.692683 149.693158 217.4 149.693158"></polygon>
                <path d="M233.336585,151.369355 L232.84878,141.731222 L229.507317,142.408523 C229.055411,142.49715 228.756703,142.929581 228.834146,143.383056 L229.37561,146.550289 C229.408847,146.750986 229.35134,146.956077 229.218574,147.11033 C229.085808,147.264582 228.891436,147.352133 228.687805,147.349406 L221.912195,147.261698 C221.628478,147.256485 221.354444,147.364757 221.151062,147.562424 C220.947681,147.76009 220.831824,148.030754 220.829234,148.314194 L220.829234,151.052632 C220.824914,151.629116 221.236845,152.124946 221.804878,152.226944 L229.985366,153.688744 C230.538924,153.790177 231.100621,153.840739 231.663415,153.839809 L233.42439,153.839809 L233.336585,151.369355 Z" id="Path" fill="#2BA8E0" fill-rule="nonzero"></path>
                <polygon id="Path" fill="#B0BDC6" fill-rule="nonzero" points="236.809756 197.094448 231.692683 67.9639389 228.692683 68.4317148 234.287805 198.332105"></polygon>
                <polygon id="Path" fill="url(#linearGradient-3)" fill-rule="nonzero" style="mix-blend-mode: multiply;" points="231.692683 67.9639389 228.692683 68.4317148 231.019512 122.849643 233.795122 120.993158"></polygon>
                <path d="M167.926829,108.962547 L168.902439,102.900951 C169.097411,101.685462 169.745719,100.588731 170.717073,99.8311715 L172.804878,98.1988285 C173.379486,97.7523076 173.863019,97.1998363 174.229268,96.5713582 L178.370732,89.4767572 C179.141318,88.1572169 179.606351,86.6820735 179.731707,85.1595756 L179.731707,85.1595756 C179.871054,83.3876317 180.467679,81.6819912 181.463415,80.2089474 L198.917073,54.8028693 C199.288371,54.2602502 199.565425,53.6589822 199.736585,53.0243463 L201.312195,47.2648557 C201.678648,45.9104866 202.409084,44.6820812 203.42439,43.7126825 L216.887805,30.8488455 C217.480895,30.2949402 218.240607,29.9523339 219.04878,29.8743124 L231.126829,28.6317827 C231.361401,28.6081557 231.5951,28.6842011 231.770732,28.8413073 L236.22439,32.8417657 C237.709816,34.1738491 238.7644,35.9176762 239.253659,37.8508659 L244,56.5229202 C244.132268,57.0530446 244.170244,57.6022629 244.112195,58.1455178 L243.858537,60.4941426 C243.808586,60.9831004 243.67839,61.4605084 243.473171,61.9072156 L219.731707,114.122699 C219.561248,114.495819 219.416203,114.880009 219.297561,115.272649 L217.380488,121.607114 C217.011023,122.836671 216.387895,123.975322 215.55122,124.949762 L208.439024,133.233294 L201.829268,121.037012 C201.312212,120.079412 200.52296,119.296117 199.560976,118.78584 L177.746341,107.198642 C176.216147,106.384621 174.401641,106.297035 172.8,106.959881 L167.926829,108.962547 Z" id="Path" fill="#FFFFFF" fill-rule="nonzero"></path>
                <path d="M224.556098,62.7842954 L215.287805,83.4102886 L219.580488,114.50764 C219.634146,114.376078 219.673171,114.234771 219.731707,114.108081 L229.907317,91.737674 L224.556098,62.7842954 Z" id="Path" fill="#BBC6CE" fill-rule="nonzero" opacity="0.52" style="mix-blend-mode: multiply;"></path>
                <path d="M234.873171,53.5359762 L241.292683,52.8781664 C241.597172,52.8467257 241.900901,52.9443093 242.129948,53.1471666 C242.358994,53.3500239 242.492351,53.6395508 242.497561,53.9452801 L242.536677,56.6106282 C242.543717,57.1641524 242.13489,57.6353562 241.585366,57.7069779 L238.712195,58.0773005 L238.712195,60.5136333 L230.965854,61.3955857 L234.873171,53.5359762 Z" id="Path" fill="#023852" fill-rule="nonzero"></path>
                <path d="M169.531707,193.615365 L166.395122,201.499338 L187.678049,209.899813 L194.439024,206.820289 C195.258656,206.448875 195.955675,205.852331 196.44878,205.100238 L200.302439,199.253039 L194.180488,192.957555 L169.531707,193.615365 Z" id="Path" fill="#2BA8E0" fill-rule="nonzero"></path>
                <path d="M194.180488,192.957555 L169.531707,193.60562 L194.439024,206.810543 C195.258656,206.43913 195.955675,205.842586 196.44878,205.090492 L200.302439,199.243294 L194.180488,192.957555 Z" id="Path" fill="url(#linearGradient-4)" fill-rule="nonzero" style="mix-blend-mode: multiply;"></path>
                <path d="M160.853659,200.558913 L161.912195,201.163124 C162.491045,201.493182 163.183975,201.558849 163.814634,201.343413 L172.107317,198.473413 C172.676223,198.278092 173.303681,198.51569 173.6,199.038642 L174.858537,201.231341 C175.168315,201.774473 175.607262,202.233018 176.136585,202.566452 L187.663415,209.87545 L158.117073,250.391664 C157.76182,250.879255 157.526222,251.4434 157.429268,252.038625 L153.117073,279.203735 C152.994072,279.96933 152.454148,280.602617 151.717073,280.845823 L139.15122,284.972971 C138.506879,285.19009 137.801589,285.133729 137.2,284.817046 L134.097561,283.204194 C133.683785,282.990032 133.350197,282.648268 133.146341,282.22966 L122.502439,260.785059 C122.1093,259.995963 122.027466,259.088081 122.273171,258.241528 L124.629268,250.152903 C124.789723,249.600263 125.163503,249.133992 125.668293,248.856774 L131.087805,245.879576 C131.921881,245.413029 132.62353,244.742336 133.126829,243.930509 L146.341463,222.895212 C146.62203,222.441501 146.834068,221.948934 146.970732,221.433413 L148.712195,215.069711 C148.907678,214.358196 149.248117,213.694657 149.712195,213.120645 L159.731707,200.75382 C160.008173,200.424428 160.482095,200.342098 160.853659,200.558913 L160.853659,200.558913 Z" id="Path" fill="#FFFFFF" fill-rule="nonzero"></path>
                <path d="M161.341463,119.282852 L167.926829,108.962547 L174.268293,106.331307 C174.941528,106.053788 175.703695,106.091318 176.346341,106.433633 L200.126829,119.102564 C200.718325,119.418542 201.203554,119.901541 201.521951,120.491273 L208.439024,133.26253 L210.878049,143.841087 C211.072625,144.67445 210.990439,145.548428 210.643902,146.331019 L205.278049,158.512683 C204.887203,159.394477 204.897878,160.402149 205.307317,161.275484 L207.521951,166.031205 C208.048766,167.157292 208.176076,168.428985 207.882927,169.636978 L200.6,199.740306 C200.560752,199.901324 200.458965,200.04012 200.317108,200.126055 C200.17525,200.21199 200.004987,200.237997 199.843902,200.198336 L183.839024,196.32944 C183.678234,196.293187 183.515306,196.267148 183.35122,196.251477 L164.273171,194.419355 C163.35494,194.330941 162.647266,193.571762 162.62439,192.650577 L160.673171,121.753294 C160.6451,120.881759 160.877773,120.021651 161.341463,119.282852 L161.341463,119.282852 Z" id="Path" fill="#023852" fill-rule="nonzero"></path>
                <rect id="Rectangle" fill="#B0BDC6" fill-rule="nonzero" x="224.468293" y="218.387997" width="7.54634146" height="49.4867912"></rect>
                <rect id="Rectangle" fill="#BBC6CE" fill-rule="nonzero" opacity="0.52" style="mix-blend-mode: multiply;" x="224.468293" y="218.387997" width="7.54634146" height="49.4867912"></rect>
                <path d="M239.258537,188.182343 L237.44878,60.6403226 L234.439024,61.0301358 L236.634146,188.041036 C236.657941,189.244856 236.493356,190.445001 236.146341,191.598081 L231.756098,206.084516 C231.105793,208.235044 230.777043,210.469724 230.780461,212.716214 L230.780461,266.802801 L233,266.802801 L233,212.482326 C233.000484,210.564377 233.296637,208.657939 233.878049,206.830034 L238.756098,191.456774 C239.098332,190.399285 239.26798,189.293675 239.258537,188.182343 Z" id="Path" fill="#B0BDC6" fill-rule="nonzero"></path>
                <polygon id="Path" fill="#B0BDC6" fill-rule="nonzero" points="217.653659 136.658778 235.736585 136.42489 235.736585 131.469389 217.458537 131.415789"></polygon>
                <path d="M217.765854,111.267317 L224.829268,34.4448727 L221.526829,29.6014431 L219.04878,29.8548217 C218.240607,29.9328433 217.480895,30.2754495 216.887805,30.8293548 L203.414634,43.7126825 C202.399327,44.6820812 201.668892,45.9104866 201.302439,47.2648557 L199.746341,53.0243463 C199.575181,53.6589822 199.298128,54.2602502 198.926829,54.8028693 L195.653659,59.5683362 L207.317073,112.412394 C207.585499,113.634892 207.14671,114.904657 206.180488,115.701443 L201.02439,119.930917 C201.338167,120.26435 201.608593,120.63598 201.829268,121.037012 L208.439024,133.243039 L215.55122,124.959508 C216.387895,123.985067 217.011023,122.846417 217.380488,121.616859 L218.590244,117.616401 L217.765854,111.267317 Z" id="Path" fill="#BBC6CE" fill-rule="nonzero" opacity="0.52" style="mix-blend-mode: multiply;"></path>
                <path d="M215.804878,186.174805 L214.595122,116.071766 L217.395122,113.231002 L218.453659,187.641477 C218.474477,189.110708 218.72633,190.567543 219.2,191.958659 L224.658537,207.897148 C225.321506,209.832786 225.661003,211.864229 225.663415,213.910017 L225.663415,267.270577 L223.321951,266.944109 L223.321951,212.969593 C223.32119,211.42334 223.053869,209.888766 222.531707,208.433141 L217.112195,193.327878 C216.286845,191.03122 215.84518,188.614624 215.804878,186.174805 Z" id="Path" fill="#B0BDC6" fill-rule="nonzero"></path>
                <path d="M208.780488,55.3388625 L221.292683,55.3388625 L229.897561,63.8319185 L222.75122,77.3340747 C222.60928,77.6017622 222.546671,77.9043193 222.570732,78.2062818 L225.956098,123.405127 C225.986128,123.731269 226.166444,124.024859 226.443902,124.199372 L236.097561,130.655654 C236.77644,131.109266 237.204111,131.853709 237.253659,132.668065 L237.609756,138.822241 C237.667748,139.766671 236.975308,140.591114 236.034146,140.698217 L235.395122,140.771307 C233.399636,141.004565 231.381961,140.971793 229.395122,140.673854 L226.395122,140.230441 C225.358748,140.074674 224.532538,139.284495 224.331707,138.257012 L224.146341,137.282479 C224.023549,136.666132 223.67584,136.117358 223.170732,135.742716 L216.8,130.952886 C216.320359,130.593727 215.984784,130.07537 215.853659,129.491087 L205.073171,79.7119355 C204.946516,79.1255029 204.931622,78.520482 205.029268,77.9285399 L208.780488,55.3388625 Z" id="Path" fill="#0099DA" fill-rule="nonzero"></path>
                <path d="M222.360976,266.783309 L233.658537,266.783309 C234.051377,266.782635 234.424168,266.956518 234.675844,267.257819 C234.92752,267.559121 235.032006,267.956624 234.960976,268.342564 L231.82439,285.5382 C231.70884,286.168435 231.158497,286.625865 230.517073,286.624807 L225.365854,286.624807 C224.721349,286.625021 224.169903,286.162564 224.058537,285.528455 L221.058537,268.342564 C220.989316,267.956902 221.094472,267.560411 221.345765,267.259567 C221.597059,266.958724 221.968733,266.784364 222.360976,266.783309 Z" id="Path" fill="#023852" fill-rule="nonzero"></path>
                <path d="M220.512195,55.3388625 L222.595122,78.5766044 L222.570732,78.2208998 C222.546671,77.9189373 222.60928,77.6163801 222.75122,77.3486927 L229.897561,63.8319185 L221.292683,55.3242445 L220.512195,55.3388625 Z" id="Path" fill="url(#linearGradient-5)" fill-rule="nonzero" style="mix-blend-mode: multiply;"></path>
                <path d="M208.780488,55.3388625 L220.42439,55.7579117 C221.352502,55.7870976 222.230521,56.1852785 222.863415,56.8640068 L229.829268,64.3191851 L237.634146,51.2409508 C238.075832,50.5044679 238.311668,49.6631245 238.317073,48.804618 L238.458537,38.8741256 C238.501604,36.3155208 237.434306,33.8634439 235.531707,32.1498472 L233.658537,30.5223769 C232.282223,29.2873144 230.434577,28.7142331 228.6,28.9533786 L225.078049,29.4065365 C223.681321,29.5893533 222.374028,30.1946695 221.331707,31.1412054 L213.658537,38.1139898 C212.429182,39.2317548 211.595658,40.7174488 211.282927,42.3483362 L208.780488,55.3388625 Z" id="Path" fill="#FFFFFF" fill-rule="nonzero"></path>
                <path d="M250.44878,16.3039389 L247.868293,14.8811205 C247.570702,14.7176126 247.215846,14.6943396 246.899407,14.8175769 C246.582968,14.9408141 246.337529,15.1978726 246.229268,15.5194397 L244.317073,21.2399491 C244.28119,21.3506361 244.226758,21.4544363 244.156098,21.546927 L239.141463,27.8375382 C238.904144,28.1357699 238.547094,28.3140978 238.165854,28.3248048 L231.492683,28.568438 L238.502439,34.8590492 L242.097561,49.0921053 L248.439024,44.7846689 L256.956098,46.2026146 L258.653659,45.1208829 C258.812888,45.023315 258.909182,44.8494379 258.907317,44.6628523 L258.907317,43.2010526 C258.90705,42.9763783 259.005049,42.7627976 259.17561,42.6163328 L261.258537,40.7890832 C261.382819,40.680706 261.465579,40.5325906 261.492683,40.370034 L261.912195,37.9337012 C261.914857,37.826017 261.964325,37.7248271 262.047702,37.6565148 C262.131079,37.5882024 262.240101,37.5595385 262.346341,37.5779966 L264.785366,37.9970458 C264.973492,38.028319 265.165667,37.9726814 265.307894,37.8457655 C265.450121,37.7188495 265.527052,37.5343511 265.517073,37.3441087 L265.141463,30.2105263 C265.125831,29.9447531 265.197794,29.6811822 265.346341,29.4601358 L267.156098,26.7070798 C267.274279,26.5279428 267.344791,26.3216686 267.360976,26.1077419 L267.926829,18.0288625 C267.945996,17.7457834 267.814374,17.4735716 267.580488,17.3125806 L264.307317,15.1052632 C263.942716,14.850145 263.457284,14.850145 263.092683,15.1052632 L257.95122,18.720781 C257.592351,18.9716946 257.330605,19.3380783 257.209756,19.7586587 L255.829268,24.519253 C255.777447,24.7005276 255.651826,24.8517475 255.483022,24.9360564 C255.314218,25.0203654 255.117736,25.0300194 254.941463,24.9626655 L251.858537,23.7834805 C251.613499,23.6862083 251.446413,23.4567178 251.429268,23.1938879 L251.053659,17.2687267 C251.033846,16.8638993 250.804744,16.4984795 250.44878,16.3039389 L250.44878,16.3039389 Z" id="Path" fill="#0099DA" fill-rule="nonzero"></path>
                <polygon id="Path" fill="url(#linearGradient-6)" fill-rule="nonzero" style="mix-blend-mode: multiply;" points="248.458537 44.7944143 256.956098 46.2123599 256.965854 46.2026146 245 31.4433107"></polygon>
                <path d="M244.239024,21.4397284 L246.995122,26.5657725 L245,31.438438 L238.756098,35.2732258 L231.492683,28.5733107 L238.165854,28.3296774 C238.546271,28.315722 238.902037,28.1380353 239.141463,27.8424109 L244.239024,21.4397284 Z" id="Path" fill="url(#linearGradient-7)" fill-rule="nonzero" style="mix-blend-mode: multiply;"></path>
                <path d="M247.141463,18.662309 L246.62439,20.1241087 C246.513661,20.4336969 246.540275,20.775752 246.697561,21.0645331 L247.15122,21.8928862 C247.449286,22.4263958 248.109431,22.6391105 248.663415,22.3801528 L248.663415,22.3801528 C249.058357,22.1919524 249.314541,21.7986913 249.326829,21.3617657 L249.380488,19.0911036 C249.391904,18.6194065 249.116081,18.1878261 248.682927,17.9996265 L248.682927,17.9996265 C248.391336,17.8744977 248.061072,17.8746063 247.769564,17.9999269 C247.478057,18.1252476 247.250941,18.3647593 247.141463,18.662309 L247.141463,18.662309 Z" id="Path" fill="url(#linearGradient-8)" fill-rule="nonzero" style="mix-blend-mode: multiply;"></path>
                <path d="M236.37561,5.725382 C239.790244,5.30633277 248.541463,4.20023769 251.882927,3.77631579 C252.741674,3.66423206 253.611392,3.87620907 254.321951,4.37078098 L265.346341,12.0208659 C266.044631,12.5038374 266.965901,12.5173139 267.678049,12.0549745 L269.629268,10.7783362 L255.609756,0.886825127 C254.900755,0.387063265 254.033285,0.163502984 253.170732,0.258251273 L241.365854,1.66645161 C240.582976,1.76196762 239.857337,2.12524733 239.312195,2.69458404 L236.37561,5.725382 Z" id="Path" fill="#1B4C63" fill-rule="nonzero"></path>
                <path d="M204.390244,125.773243 L201.517073,120.471783 C201.198676,119.88205 200.713447,119.399051 200.121951,119.083073 L176.341463,106.414143 C175.698817,106.071828 174.93665,106.034298 174.263415,106.311817 L167.921951,108.943056 L167.839024,109.069745 L189.790244,119.453396 C190.844936,119.951149 191.5175,121.01202 191.517073,122.177216 L191.517073,132.653447 C191.515474,133.174128 191.802615,133.652891 192.262973,133.897123 C192.723331,134.141354 193.281222,134.1109 193.712195,133.818014 L204.160976,126.728285 C204.464304,126.511036 204.561951,126.104278 204.390244,125.773243 L204.390244,125.773243 Z" id="Path" fill="#023852" fill-rule="nonzero" style="mix-blend-mode: multiply;"></path>
                <path d="M151.17561,279.062428 L156.409756,283.935093 C156.627695,284.135661 156.742561,284.424302 156.721951,284.719593 L156.64878,285.781834 C156.634077,286.046874 156.511775,286.294455 156.31014,286.467357 C156.108505,286.640259 155.844987,286.723519 155.580488,286.697895 L138.263415,285.158132 L151.17561,279.062428 Z" id="Path" fill="#2BA8E0" fill-rule="nonzero"></path>
                <path d="M151.17561,279.062428 L156.409756,283.935093 C156.627695,284.135661 156.742561,284.424302 156.721951,284.719593 L156.64878,285.781834 C156.634077,286.046874 156.511775,286.294455 156.31014,286.467357 C156.108505,286.640259 155.844987,286.723519 155.580488,286.697895 L138.263415,285.158132 L151.17561,279.062428 Z" id="Path" fill="url(#linearGradient-9)" fill-rule="nonzero" style="mix-blend-mode: multiply;"></path>
                <path d="M165.034146,238.848319 L169.029268,262.636672 C169.070014,262.88625 169.086351,263.139197 169.078049,263.391935 L168.692683,272.65 L184.302439,277.556774 L188.204878,273.502716 L183.2,264.780645 C181.71731,262.198638 180.936982,259.273957 180.936585,256.297334 L180.936585,247.078251 C180.937347,245.532864 181.02856,243.988843 181.209756,242.454092 L184.487805,213.169372 L165.034146,238.848319 Z" id="Path" fill="#0099DA" fill-rule="nonzero"></path>
                <path d="M167.902439,272.060407 C167.624631,272.000078 167.334407,272.068378 167.112778,272.246242 C166.891149,272.424107 166.761851,272.692486 166.760976,272.976469 L166.682761,285.5382 C166.677654,285.848246 166.797957,286.147279 167.016546,286.367461 C167.235135,286.587644 167.533481,286.710313 167.843902,286.707683 L211.82439,286.615059 C212.222966,286.620393 212.603418,286.449029 212.863296,286.147114 C213.123174,285.845198 213.235758,285.443771 213.170732,285.050934 L212.780488,282.180934 C212.710383,281.67439 212.358752,281.251387 211.873171,281.089457 L194.878049,275.485891 L189.678049,272.260187 C189.262998,272.001399 188.726053,272.051246 188.365854,272.382003 L185.365854,275.15455 C184.972599,275.518178 184.423979,275.662488 183.902439,275.539491 L167.902439,272.060407 Z" id="Path" fill="#023852" fill-rule="nonzero"></path>
                <path d="M167.843902,286.683318 L211.82439,286.590696 C212.217991,286.59485 212.593699,286.426738 212.852635,286.130601 C213.111572,285.834465 213.2278,285.439968 213.170732,285.050934 L213,283.818149 L183.770732,282.215042 C183.561701,282.203781 183.357333,282.149011 183.170732,282.054244 L166.809756,273.882784 L166.682927,285.5382 C166.684213,285.844036 166.807412,286.136762 167.02528,286.351647 C167.243149,286.566531 167.537737,286.685871 167.843902,286.683318 L167.843902,286.683318 Z" id="Path" fill="url(#linearGradient-10)" fill-rule="nonzero" style="mix-blend-mode: multiply;"></path>
                <polygon id="Path" fill="url(#linearGradient-11)" fill-rule="nonzero" style="mix-blend-mode: multiply;" points="181.107317 243.141138 184.473171 213.169372 165.185366 238.395161"></polygon>
                <path d="M160.853659,200.558913 L161.912195,201.163124 C162.491045,201.493182 163.183975,201.558849 163.814634,201.343413 L172.107317,198.473413 C172.676223,198.278092 173.303681,198.51569 173.6,199.038642 L174.858537,201.231341 C175.168315,201.774473 175.607262,202.233018 176.136585,202.566452 L187.663415,209.87545 L158.117073,250.391664 C157.76182,250.879255 157.526222,251.4434 157.429268,252.038625 L153.117073,279.203735 C152.994072,279.96933 152.454148,280.602617 151.717073,280.845823 L139.15122,284.972971 C138.506879,285.19009 137.801589,285.133729 137.2,284.817046 L134.097561,283.204194 C133.683785,282.990032 133.350197,282.648268 133.146341,282.22966 L122.502439,260.785059 C122.1093,259.995963 122.027466,259.088081 122.273171,258.241528 L124.629268,250.152903 C124.789723,249.600263 125.163503,249.133992 125.668293,248.856774 L131.087805,245.879576 C131.921881,245.413029 132.62353,244.742336 133.126829,243.930509 L146.341463,222.895212 C146.62203,222.441501 146.834068,221.948934 146.970732,221.433413 L148.712195,215.069711 C148.907678,214.358196 149.248117,213.694657 149.712195,213.120645 L159.731707,200.75382 C160.008173,200.424428 160.482095,200.342098 160.853659,200.558913 L160.853659,200.558913 Z" id="Path" fill="#FFFFFF" fill-rule="nonzero"></path>
                <path d="M136.263415,275.865959 L134.419512,265.433582 C134.308143,264.802253 134.004996,264.220444 133.55122,263.767131 L123.570732,253.797657 L122.273171,258.251273 C122.027466,259.097827 122.1093,260.005708 122.502439,260.794805 L133.170732,282.258896 C133.374588,282.677504 133.708175,283.019268 134.121951,283.23343 L137.22439,284.846282 C137.825979,285.162965 138.53127,285.219326 139.17561,285.002207 L146.039024,282.746163 L138.331707,278.716469 C137.234773,278.14072 136.469807,277.086448 136.263415,275.865959 Z" id="Path" fill="url(#linearGradient-12)" fill-rule="nonzero"></path>
                <path d="M175.507317,202.049949 C175.258419,201.808252 175.04493,201.532663 174.873171,201.231341 L173.614634,199.038642 C173.318315,198.51569 172.690857,198.278092 172.121951,198.473413 L163.829268,201.343413 C163.198609,201.558849 162.505679,201.493182 161.926829,201.163124 L160.868293,200.558913 C160.492167,200.346548 160.017438,200.437266 159.746341,200.773311 L149.712195,213.135263 C149.248117,213.709275 148.907678,214.372814 148.712195,215.084329 L146.970732,221.452903 L152.668293,224.274177 C153.848667,224.862102 155.27689,224.588744 156.156098,223.606621 L175.507317,202.049949 Z" id="Path" fill="#BBC6CE" fill-rule="nonzero" opacity="0.52" style="mix-blend-mode: multiply;"></path>
                <path d="M183.980488,196.368421 L199.834146,200.198336 C199.995231,200.237997 200.165494,200.21199 200.307352,200.126055 C200.449209,200.04012 200.550996,199.901324 200.590244,199.740306 L207.873171,169.636978 C208.16632,168.428985 208.03901,167.157292 207.512195,166.031205 L205.292683,161.285229 C204.88735,160.410613 204.878464,159.404048 205.268293,158.522428 L210.634146,146.340764 C210.980683,145.558173 211.062869,144.684195 210.868293,143.850832 L193.873171,147.519949 C193.023451,147.704721 192.36997,148.38444 192.219512,149.24 L183.980488,196.368421 Z" id="Path" fill="#023852" fill-rule="nonzero" style="mix-blend-mode: multiply;"></path>
                <rect id="Rectangle" fill="#023852" fill-rule="nonzero" x="237.42439" y="196.967759" width="50.9609756" height="5.10168081" rx="2.55084041"></rect>
                <rect id="Rectangle" fill="#AEBCC4" fill-rule="nonzero" x="260.385366" y="199.769542" width="5.03902439" height="9.49195246"></rect>
                <path d="M233.443902,247.804278 L233.487805,246.932071 L233.526829,246.664075 C233.574338,246.361701 233.661254,246.066838 233.785366,245.786995 C234.027876,245.229282 234.415231,244.746465 234.907317,244.38854 C235.155031,244.207475 235.425681,244.06001 235.712195,243.95 L241.429268,241.742683 L247.141463,239.535365 L252.853659,237.328048 L258.565854,235.12073 C259.73908,234.671809 260.764248,233.90589 261.526829,232.90854 C261.903457,232.419664 262.21196,231.882019 262.443902,231.310306 C262.6891,230.733374 262.851674,230.124803 262.926829,229.502547 C262.998592,230.121747 263.154498,230.72829 263.390244,231.305433 C263.618724,231.877814 263.925725,232.415704 264.302439,232.903667 C265.06502,233.901017 266.090188,234.666936 267.263415,235.115857 L272.97561,237.323175 L278.692683,239.530492 L284.390244,241.742683 L290.102439,243.95 C290.389424,244.058991 290.660206,244.206528 290.907317,244.38854 C291.151618,244.566936 291.371386,244.776632 291.560976,245.012241 C291.756035,245.248622 291.919972,245.508993 292.04878,245.786995 C292.172892,246.066838 292.259809,246.361701 292.307317,246.664075 L292.346341,246.932071 L292.385366,247.804278 L295.8,247.804278 L295.717073,246.67382 L295.634146,246.152445 C295.549587,245.556678 295.385527,244.974907 295.146341,244.422649 C294.903354,243.878595 294.591899,243.367717 294.219512,242.902377 C293.845721,242.438696 293.412775,242.025885 292.931707,241.674465 C292.446268,241.315757 291.914656,241.024021 291.35122,240.807131 L285.653659,238.244109 L279.960976,235.681087 L274.268293,233.122937 L268.57561,230.559915 C268.246991,230.433009 267.939455,230.257233 267.663415,230.03854 C267.114611,229.60779 266.711132,229.019395 266.507317,228.352598 C266.40139,228.016768 266.347113,227.666823 266.346341,227.31472 L266.346341,226.544839 L266.346341,225.774958 L266.346341,225.005076 L266.346341,224.235195 C266.34569,223.535012 266.066709,222.863743 265.570732,222.368964 C265.329561,222.129003 265.044803,221.937168 264.731707,221.803735 C264.407231,221.668265 264.058995,221.598695 263.707317,221.599065 L262.336585,221.599065 C261.635877,221.596481 260.963117,221.873378 260.467638,222.36831 C259.972159,222.863242 259.694956,223.53526 259.697561,224.235195 L259.697561,225.005076 L259.673171,225.774958 L259.673171,226.544839 L259.673171,227.31472 C259.674053,227.666579 259.62142,228.01653 259.517073,228.352598 C259.307728,229.016722 258.905286,229.603604 258.360976,230.03854 C258.083577,230.255222 257.776351,230.43082 257.44878,230.559915 L251.75122,233.122937 L246.058537,235.681087 L240.365854,238.244109 L234.673171,240.807131 C233.548735,241.240492 232.559137,241.963379 231.804878,242.902377 C231.429092,243.365331 231.117353,243.876673 230.878049,244.422649 C230.638863,244.974907 230.474803,245.556678 230.390244,246.152445 L230.307317,246.67382 L230.22439,247.804278 L233.639024,247.804278 L233.443902,247.804278 Z" id="Path" fill="#4A7083" fill-rule="nonzero"></path>
                <rect id="Rectangle" fill="#366075" fill-rule="nonzero" x="259.341463" y="208.623175" width="7.12682927" height="17.0104754" rx="0.67"></rect>
                <path d="M278.04878,140.020916 L247.760976,140.020916 C245.178323,140.01988 243.019855,141.983797 242.780488,144.552496 L239.365854,180.878217 C239.233205,182.286081 239.704232,183.684129 240.662041,184.725409 C241.619849,185.766689 242.974657,186.353595 244.390244,186.340691 L281.463415,186.340691 C282.870884,186.339664 284.21296,185.746909 285.160697,184.707496 C286.108433,183.668084 286.574224,182.278094 286.443902,180.878217 L283.029268,144.552496 C282.7877,141.984894 280.630545,140.022171 278.04878,140.020916 Z" id="Path" fill="#023852" fill-rule="nonzero"></path>
                <rect id="Rectangle" fill="#4A7083" fill-rule="nonzero" x="258.541463" y="180.585857" width="8.72682927" height="21.4787097"></rect>
                <rect id="Rectangle" fill="url(#linearGradient-13)" fill-rule="nonzero" style="mix-blend-mode: multiply;" x="258.541463" y="180.585857" width="8.72682927" height="21.4787097"></rect>
                <rect id="Rectangle" fill="#366075" fill-rule="nonzero" x="254.365854" y="173.057589" width="17.0780488" height="16.7327334" rx="1.41"></rect>
                <rect id="Rectangle" fill="#023852" fill-rule="nonzero" x="7.39512195" y="196.967759" width="50.9609756" height="5.10168081" rx="2.55084041"></rect>
                <rect id="Rectangle" fill="#AEBCC4" fill-rule="nonzero" x="30.3560976" y="199.769542" width="5.03902439" height="9.49195246"></rect>
                <path d="M3.41463415,247.804278 L3.45853659,246.932071 L3.49756098,246.664075 C3.54506926,246.361701 3.63198604,246.066838 3.75609756,245.786995 C3.99860795,245.229282 4.38596241,244.746465 4.87804878,244.38854 C5.1274937,244.207437 5.39975979,244.059986 5.68780488,243.95 L11.4,241.742683 L17.1121951,239.535365 L22.8243902,237.328048 L28.5365854,235.12073 C30.3109852,234.447492 31.7248436,233.06697 32.4390244,231.310306 C32.675415,230.733685 32.8297608,230.126824 32.897561,229.507419 C33.1796224,232.0409 34.8522228,234.205927 37.2341463,235.12073 L42.9268293,237.328048 L48.6390244,239.535365 L54.3512195,241.742683 L60.0634146,243.95 C60.3503993,244.058991 60.6211817,244.206528 60.8682927,244.38854 C61.1136896,244.565624 61.3336235,244.775478 61.5219512,245.012241 C61.7186588,245.247429 61.8827372,245.508026 62.0097561,245.786995 C62.1338676,246.066838 62.2207844,246.361701 62.2682927,246.664075 L62.3073171,246.932071 L62.3463415,247.804278 L65.7609756,247.804278 L65.6780488,246.67382 L65.595122,246.152445 C65.5105628,245.556678 65.3465027,244.974907 65.1073171,244.422649 C64.8643299,243.878595 64.5528744,243.367717 64.1804878,242.902377 C63.4233599,241.966381 62.4346368,241.244133 61.3121951,240.807131 L55.6097561,238.244109 L49.9121951,235.681087 L44.2195122,233.122937 L38.5268293,230.559915 C38.1982108,230.433009 37.8906746,230.257233 37.6146341,230.03854 C37.3449669,229.822245 37.1083291,229.567811 36.9121951,229.283277 C36.714783,228.99772 36.5618274,228.683932 36.4585366,228.352598 C36.3526095,228.016768 36.2983327,227.666823 36.297561,227.31472 L36.297561,226.544839 L36.297561,225.774958 L36.297561,225.005076 L36.297561,224.235195 C36.2986729,223.881771 36.2272866,223.531867 36.0878049,223.207063 C35.9559969,222.894536 35.7655869,222.610063 35.5268293,222.368964 C35.2847659,222.130088 35.0002267,221.938402 34.6878049,221.803735 C34.3616229,221.668255 34.011793,221.598697 33.6585366,221.599082 L32.195122,221.599082 C31.8418655,221.598697 31.4920357,221.668255 31.1658537,221.803735 C30.8534318,221.938402 30.5688926,222.130088 30.3268293,222.368964 C29.8298864,222.862704 29.552206,223.535073 29.5560976,224.235195 L29.5560976,225.005076 L29.5560976,225.774958 L29.5560976,226.544839 L29.5560976,227.31472 C29.5569803,227.666579 29.5043473,228.01653 29.4,228.352598 C29.1906547,229.016722 28.788213,229.603604 28.2439024,230.03854 C27.9665039,230.255222 27.6592781,230.43082 27.3317073,230.559915 L21.6390244,233.122937 L15.8536585,235.681087 L10.1609756,238.244109 L4.46829268,240.807131 C3.34385658,241.240492 2.35425904,241.963379 1.6,242.902377 C1.2276134,243.367717 0.916157876,243.878595 0.673170732,244.422649 C0.433985113,244.974907 0.269925022,245.556678 0.185365854,246.152445 L0.102439024,246.67382 L0,247.804278 L3.41463415,247.804278 Z" id="Path" fill="#4A7083" fill-rule="nonzero"></path>
                <rect id="Rectangle" fill="#366075" fill-rule="nonzero" x="29.3121951" y="208.623175" width="7.12682927" height="17.0104754" rx="0.67"></rect>
                <path d="M48.0195122,140.020917 L17.7317073,140.020917 C15.1499426,140.022171 12.9927879,141.984894 12.7512195,144.552496 L9.33658537,180.878217 C9.20626387,182.278094 9.6720547,183.668084 10.619791,184.707496 C11.5675274,185.746909 12.9096038,186.339664 14.3170732,186.340475 L51.3902439,186.340475 C52.7977133,186.339664 54.1397897,185.746909 55.087526,184.707496 C56.0352624,183.668084 56.5010532,182.278094 56.3707317,180.878217 L52.9560976,144.552496 C52.7162049,142.001528 50.5844311,140.044648 48.0195122,140.020917 L48.0195122,140.020917 Z" id="Path" fill="#023852" fill-rule="nonzero"></path>
                <rect id="Rectangle" fill="#4A7083" fill-rule="nonzero" x="28.5121951" y="180.585857" width="8.72682927" height="21.4787097"></rect>
                <rect id="Rectangle" fill="url(#linearGradient-14)" fill-rule="nonzero" style="mix-blend-mode: multiply;" x="28.5121951" y="180.585857" width="8.72682927" height="21.4787097"></rect>
                <rect id="Rectangle" fill="#366075" fill-rule="nonzero" x="24.3365854" y="173.057589" width="17.0780488" height="16.7327334" rx="1.41"></rect>
                <path d="M229.629268,131.493752 C229.925375,131.698138 230.279279,131.802314 230.639024,131.790985 L236.931707,131.58146 C236.730618,131.209963 236.442808,130.892383 236.092683,130.655654 L226.419512,124.21399 C226.419512,124.238353 222.321951,124.959508 221.02439,125.188523 C220.959654,125.201619 220.908867,125.251837 220.8951,125.316366 C220.881333,125.380895 220.907209,125.447433 220.960976,125.485756 L229.629268,131.493752 Z" id="Path" fill="#2BA8E0" fill-rule="nonzero"></path>
                <path d="M110.273171,166.693888 L110.273171,159.180238 L96.5853659,159.180238 L96.5853659,166.693888 C96.5472556,167.098789 96.4313167,167.492546 96.2439024,167.853582 C95.8758692,168.586857 95.1133176,169.03817 94.2926829,169.008404 L112.585366,169.008404 C111.764731,169.03817 111.00218,168.586857 110.634146,167.853582 C110.439944,167.493944 110.317359,167.100118 110.273171,166.693888 L110.273171,166.693888 Z" id="Path" fill="#A5B1B8" fill-rule="nonzero"></path>
                <path d="M115.121951,169.008404 L91.1707317,169.008404 C90.8753614,169.007101 90.5917119,169.123731 90.3828515,169.332361 C90.1739911,169.540991 90.0572325,169.824327 90.0585258,170.119372 L116.243902,170.119372 C116.243333,169.824943 116.125781,169.542781 115.917073,169.334873 C115.707821,169.1221 115.420515,169.004135 115.121951,169.008404 Z" id="Path" fill="#D2D8DC" fill-rule="nonzero"></path>
                <g id="Group" opacity="0.5" transform="translate(96.585366, 161.285229)" fill="#A5B1B8" fill-rule="nonzero">
                    <polygon id="Path" style="mix-blend-mode: multiply;" points="0 0.365449915 6.84390244 0.365449915 13.6878049 0.365449915 13.6878049 2.5727674 13.6878049 4.78008489 6.84390244 4.78008489 0 4.78008489 0 2.5727674"></polygon>
                </g>
                <path d="M141.585366,161.952873 L65.2731707,161.952873 C64.8345279,161.954777 64.4138372,161.77895 64.1073171,161.465518 C63.7954047,161.158073 63.6195122,160.738669 63.6195122,160.300951 L63.6195122,114.926689 C63.6218772,114.489406 63.7972234,114.070791 64.1073171,113.762122 C64.4151013,113.450554 64.8349694,113.274856 65.2731707,113.274856 L141.585366,113.274856 C142.023567,113.274856 142.443435,113.450554 142.75122,113.762122 C143.061313,114.070791 143.236659,114.489406 143.239024,114.926689 L143.239024,160.310696 C143.239024,160.748414 143.063132,161.167819 142.75122,161.475263 C142.443068,161.785117 142.022582,161.957343 141.585366,161.952873 Z" id="Path" fill="#023852" fill-rule="nonzero"></path>
                <polygon id="Path" fill="#0099DA" fill-rule="nonzero" points="103.556098 157.450441 140.985366 157.450441 140.985366 136.536961 140.985366 115.628353 103.556098 115.628353 66.1219512 115.628353 66.1219512 136.536961 66.1219512 157.450441"></polygon>
                <path d="M104.687805,159.545688 C104.687805,158.851384 104.124339,158.28854 103.429268,158.28854 C102.735308,158.291211 102.173406,158.852494 102.170732,159.545688 C102.17335,160.232423 102.727181,160.789982 103.414634,160.797963 C103.749216,160.800584 104.070857,160.668977 104.30745,160.432645 C104.544042,160.196314 104.675795,159.875028 104.673171,159.540815 L104.687805,159.545688 Z" id="Path" fill="#1B5679" fill-rule="nonzero"></path>
                <g id="Group" opacity="0.2" transform="translate(65.853659, 115.482173)" fill="#FFFFFF" fill-rule="nonzero">
                    <path d="M0.268292683,0.146179966 L5.85365854,5.43302207 L11.4341463,10.7198642 L27.9707317,26.3465025 C33.4829268,31.5440125 38.998374,36.7496435 44.5170732,41.9633956 L75.1219512,41.9633956 L75.1219512,0.146179966 L0.268292683,0.146179966 Z" id="Path"></path>
                </g>
                <path d="M128.658537,123.400255 L80.7560976,123.400255 C80.0470742,123.40556 79.4736039,123.978397 79.4682927,124.686638 L79.4682927,151.35961 C79.470969,152.136227 80.1005733,152.765136 80.8780488,152.76781 L128.536585,152.76781 C129.314061,152.765136 129.943665,152.136227 129.946341,151.35961 L129.946341,124.686638 C129.94103,123.978397 129.36756,123.40556 128.658537,123.400255 L128.658537,123.400255 Z" id="Path" fill="#14375A" fill-rule="nonzero" opacity="0.2" style="mix-blend-mode: multiply;"></path>
                <path d="M80.8731707,125.860951 L131.346341,125.860951 L131.346341,149.936791 C131.343694,150.560822 130.839337,151.066794 130.214634,151.072122 L82.0097561,151.072122 C81.3831475,151.069453 80.8758429,150.562708 80.8731707,149.936791 L80.8731707,125.860951 Z" id="Path" fill="#FFFFFF" fill-rule="nonzero"></path>
                <path d="M81.9073171,121.704567 L130.312195,121.704567 C130.587315,121.704567 130.851096,121.814067 131.045177,122.008848 C131.239258,122.203629 131.347639,122.467632 131.346353,122.742445 L131.346353,127.239915 L80.8731592,127.239915 L80.8731592,122.742445 C80.871873,122.467632 80.9802542,122.203629 81.1743351,122.008848 C81.368416,121.814067 81.6321971,121.704567 81.9073171,121.704567 L81.9073171,121.704567 Z" id="Path" fill="#DCE1E5" fill-rule="nonzero"></path>
                <path d="M84.5756098,124.472241 C84.5761088,124.269257 84.4953116,124.074505 84.3512195,123.931375 C84.2073244,123.78835 84.0127513,123.707805 83.8097561,123.707233 C83.3867868,123.707233 83.0439024,124.049739 83.0439024,124.472241 C83.0439024,124.894744 83.3867868,125.23725 83.8097561,125.23725 C84.0131814,125.238851 84.2085595,125.157973 84.3512195,125.013107 C84.4972061,124.871253 84.5783515,124.675662 84.5756098,124.472241 L84.5756098,124.472241 Z" id="Path" fill="#9FACB3" fill-rule="nonzero"></path>
                <path d="M87.0097561,124.472241 C87.0327409,124.185248 86.8924695,123.909668 86.6467797,123.75913 C86.4010899,123.608592 86.0915931,123.608592 85.8459033,123.75913 C85.6002134,123.909668 85.4599421,124.185248 85.4829268,124.472241 C85.4599421,124.759234 85.6002134,125.034814 85.8459033,125.185352 C86.0915931,125.33589 86.4010899,125.33589 86.6467797,125.185352 C86.8924695,125.034814 87.0327409,124.759234 87.0097561,124.472241 Z" id="Path" fill="#9FACB3" fill-rule="nonzero"></path>
                <path d="M89.4487805,124.472241 C89.4487805,124.049739 89.1058961,123.707233 88.6829268,123.707233 C88.2599575,123.707233 87.9170732,124.049739 87.9170732,124.472241 C87.9224131,124.890933 88.2637384,125.227538 88.6829268,125.227504 C89.1058961,125.227504 89.4487805,124.884998 89.4487805,124.462496 L89.4487805,124.472241 Z" id="Path" fill="#9FACB3" fill-rule="nonzero"></path>
                <rect id="Rectangle" fill="#C1C9CE" fill-rule="nonzero" x="87.5365854" y="131.912801" width="38.8243902" height="1.5836163"></rect>
                <rect id="Rectangle" fill="#FFE500" fill-rule="nonzero" x="100.487805" y="130.6118" width="1.68292683" height="4.19049236"></rect>
                <rect id="Rectangle" fill="#C1C9CE" fill-rule="nonzero" x="87.5365854" y="138.870968" width="38.8243902" height="1.5836163"></rect>
                <rect id="Rectangle" fill="#023852" fill-rule="nonzero" x="115.4" y="137.569966" width="1.68292683" height="4.19049236"></rect>
                <rect id="Rectangle" fill="#C1C9CE" fill-rule="nonzero" x="87.5365854" y="145.458812" width="38.8243902" height="1.5836163"></rect>
                <rect id="Rectangle" fill="#2BA8E0" fill-rule="nonzero" x="92.1268293" y="144.15781" width="1.68292683" height="4.19049236"></rect>
            </g>
        </g>
    </g>
</svg>