<?xml version="1.0" encoding="UTF-8"?>
<svg width="440px" height="330px" viewBox="0 0 440 330" version="1.1" xmlns="http://www.w3.org/2000/svg" xmlns:xlink="http://www.w3.org/1999/xlink">
    <title>Graphic elements / Icons / Rich icons / Marketplace / Challenges-Vandalism</title>
    <defs>
        <linearGradient x1="86.6855362%" y1="56.6599309%" x2="17.4069941%" y2="39.1227051%" id="linearGradient-1">
            <stop stop-color="#FFFFFF" offset="37%"></stop>
            <stop stop-color="#9DADB7" offset="100%"></stop>
        </linearGradient>
        <linearGradient x1="86.723242%" y1="56.6653624%" x2="17.411966%" y2="39.1285244%" id="linearGradient-2">
            <stop stop-color="#FFFFFF" offset="37%"></stop>
            <stop stop-color="#9DADB7" offset="100%"></stop>
        </linearGradient>
        <linearGradient x1="53.8134359%" y1="104.903713%" x2="43.4496847%" y2="-45.1955529%" id="linearGradient-3">
            <stop stop-color="#FFFFFF" offset="0%"></stop>
            <stop stop-color="#003A5D" offset="100%"></stop>
        </linearGradient>
        <linearGradient x1="-0.202326538%" y1="50.0332889%" x2="99.7900789%" y2="50.0332889%" id="linearGradient-4">
            <stop stop-color="#FFFFFF" stop-opacity="0" offset="0%"></stop>
            <stop stop-color="#0598DA" offset="100%"></stop>
            <stop stop-color="#000000" offset="100%"></stop>
        </linearGradient>
        <linearGradient x1="20.7397004%" y1="76.6119317%" x2="89.3258427%" y2="21.1836854%" id="linearGradient-5">
            <stop stop-color="#FFFFFF" stop-opacity="0" offset="0%"></stop>
            <stop stop-color="#0598DA" offset="100%"></stop>
            <stop stop-color="#000000" offset="100%"></stop>
        </linearGradient>
        <linearGradient x1="53.242538%" y1="104.058297%" x2="47.4174695%" y2="2.8775697%" id="linearGradient-6">
            <stop stop-color="#FFFFFF" stop-opacity="0" offset="0%"></stop>
            <stop stop-color="#0598DA" offset="100%"></stop>
            <stop stop-color="#000000" offset="100%"></stop>
        </linearGradient>
    </defs>
    <g id="Graphic-elements-/-Icons-/-Rich-icons-/-Marketplace-/-Challenges-Vandalism" stroke="none" stroke-width="1" fill="none" fill-rule="evenodd">
        <g id="vandalism" transform="translate(24.000000, 0.000000)">
            <g id="Midlayer" transform="translate(212.001947, 0.000000)" stroke="#023852">
                <path d="M0.0895008219,2.79654742 L68.9738084,39.9673235 C69.3840208,40.1878109 69.6863629,40.5667012 69.8106411,41.0160288 L71.4753563,47.0572883 C71.6100266,47.5445828 71.5221275,48.0665919 71.2353353,48.4827083 C70.9485432,48.8988247 70.4923528,49.1662534 69.9896427,49.2129603 L62.0106444,49.9748402 C61.4372144,50.0261308 60.9283561,50.363769 60.6576199,50.8726006 C60.3868837,51.3814321 60.3908372,51.9927304 60.6681321,52.4980072 L64.5927431,59.6686416 C64.8866197,60.2020738 64.8744357,60.8519069 64.5607703,61.3739144 C64.2471048,61.8959219 63.6794813,62.2110148 63.0712292,62.2010142 L10.5700471,61.349259" id="Path"></path>
                <path d="M56.7300959,62.2231801 L64.1318139,71.3612573 C64.4880228,71.8033767 64.6020399,72.3936609 64.4361635,72.9369222 C64.2702871,73.4801836 63.8461241,73.9056574 63.3039313,74.0726534 L18.9696992,87.732712" id="Path"></path>
                <path d="M28.85954,106.941049 L76.8185554,79.2982533 C77.4219453,78.954407 77.7569081,78.2785074 77.6654775,77.5893043 C77.5740469,76.9001011 77.0744829,76.335238 76.4023766,76.1611007 L64.5121924,73.3242185" id="Path"></path>
                <path d="M72.0123613,82.0679108 L81.2309459,83.5378909 C81.70372,83.6137486 82.1228572,83.8851946 82.3858905,84.285868 C82.6489237,84.6865415 82.7316095,85.1795128 82.6137336,85.6442647 L72.0123613,127.650737" id="Path"></path>
                <line x1="79.5125301" y1="97.9374211" x2="92.0963457" y2="97.9374211" id="Path"></line>
                <path d="M93.5910094,133.656144 C93.5910094,132.844966 92.3782733,94.1414665 92.1366211,86.3792547 C92.1113371,85.5874817 92.6373314,84.8838799 93.4030577,84.6851924 L101.80271,82.4443691 C102.60189,82.2316156 103.438551,82.622256 103.789628,83.3720699 L124.459843,127.659701" id="Path"></path>
                <path d="M110.837818,98.4617737 C110.837818,98.4617737 121.859844,99.2550251 126.281185,87.732712" id="Path"></path>
                <path d="M147.309403,94.9391996 C146.718697,94.6747824 123.591685,86.7064149 118.114235,84.828605 C117.425837,84.59062 116.965176,83.9400564 116.968605,83.2107307 L116.968605,75.9146101" id="Path"></path>
                <path d="M165.818173,87.732712 L108.994101,73.9471673 C108.435803,73.81171 107.982768,73.4044841 107.788191,72.8631952 C107.593614,72.3219063 107.683515,71.7189351 108.027492,71.2581794 L112.797886,64.8718332 C113.155436,64.3945832 113.7353,64.1381837 114.32835,64.1951045 L162.82437,68.829127" id="Path"></path>
                <path d="M119.376196,64.6746407 L116.982049,61.3313324 C116.648194,60.8639776 116.57146,60.2597913 116.777861,59.7236183 C116.984263,59.1874454 117.446116,58.7912031 118.006834,58.6692344 L178.706291,45.412524" id="Path"></path>
                <path d="M66.2306082,0.318196902 L77.1944589,38.1791466 C77.4056291,38.9092735 78.0733062,39.4116839 78.8323239,39.4115994 L81.9648527,39.4115994 C82.653159,39.4106943 83.2745005,39.8243549 83.5400671,40.4603046 L87.6123545,50.2258124 C87.8468418,50.7826142 88.357072,51.1743681 88.9548668,51.2565911 L98.9297334,52.7310528 C99.6765185,52.8378179 100.404591,52.4404326 100.71975,51.7540538 L124.459843,0.0941145766" id="Path"></path>
                <line x1="83.1059881" y1="39.4115994" x2="80.4075384" y2="24.1067766" id="Path"></line>
                <line x1="63.9349121" y1="37.2469641" x2="75.1627902" y2="31.1922597" id="Path"></line>
                <path d="M103.843329,44.9598777 L109.777233,47.3351504 C111.350428,47.9645714 113.148787,47.4035079 114.086698,45.9906564 L119.904251,37.2424825 L142.959663,0.64087545" id="Path"></path>
                <path d="M119.931101,37.2469641 L123.542459,41.1191067 C124.084577,41.7023492 124.957429,41.8325403 125.645729,41.4328219 L158.313529,22.4575306" id="Path"></path>
                <path d="M121.219913,57.9656159 L119.711824,51.131105 C119.518905,50.2720066 120.011747,49.4072889 120.848485,49.1367723 L165.818173,34.5086781" id="Path"></path>
                <line x1="129.539015" y1="39.4115994" x2="132.28669" y2="45.412524" id="Path"></line>
            </g>
            <g id="Ilus" transform="translate(0.000000, 82.000753)" fill-rule="nonzero">
                <rect id="Rectangle" fill="#D8DEE2" style="mix-blend-mode: multiply;" x="0" y="242.084637" width="340.811028" height="4.75176777" rx="2.37588389"></rect>
                <path d="M95.692904,237.633217 L88.3977484,235.149746 L88.2543547,235.091469 L84.19452,233.208693 C82.609707,232.473242 81.2363328,231.349134 80.201901,229.940732 L79.8792652,229.492452 C79.6056484,229.120384 79.1714384,228.900698 78.7097101,228.900723 L60.3149842,228.873825 C59.9171763,228.87334 59.5365941,229.036169 59.262159,229.324269 C58.9877239,229.612369 58.8434777,230.0005 58.8631228,230.397978 L59.042365,234.289048 C59.0705033,234.936516 58.9871359,235.584002 58.795907,236.203203 L58.9393007,244.420175 L96.3023274,244.420175 C96.3023274,242.662918 96.3023274,242.627056 96.3247326,242.591193 L96.6697738,239.148403 C96.7331698,238.478222 96.3293373,237.851852 95.692904,237.633217 Z" id="Path" fill="#FFFFFF"></path>
                <path d="M95.692904,237.633217 L88.3977484,235.149746 L88.2543547,235.091469 L84.19452,233.208693 C82.609707,232.473242 81.2363328,231.349134 80.201901,229.940732 L79.8792652,229.492452 C79.6056484,229.120384 79.1714384,228.900723 78.7097101,228.900723 L66.8349175,228.900723 L62.0625952,230.451771 L76.4019674,234.226289 C77.8963936,234.619363 78.9381385,235.970844 78.9382439,237.516664 L78.9382439,237.516664 C78.9382222,238.49658 79.4964727,239.390825 80.3766621,239.820823 L88.5949148,243.832929 L94.8683901,243.918197 C95.6217492,243.926631 96.2572432,243.358935 96.3336947,242.609124 L96.6787359,239.166334 C96.7497751,238.487349 96.3399896,237.85007 95.692904,237.633217 Z" id="Path" fill="url(#linearGradient-1)" style="mix-blend-mode: multiply;"></path>
                <path d="M41.5931414,237.633217 L34.3024669,235.149746 L34.1590732,235.091469 L30.0992384,233.208693 C28.5131053,232.47338 27.1382445,231.349317 26.1021384,229.940732 L25.7795025,229.492452 C25.5058858,229.120384 25.0716758,228.900698 24.6099475,228.900723 L6.2376269,228.873825 C5.83944787,228.873401 5.45845909,229.036092 5.18332469,229.324037 C4.90819029,229.611983 4.76290668,230.000068 4.78128441,230.397978 L4.96052656,234.289048 C4.99239113,234.936347 4.9104907,235.584219 4.71854966,236.203203 L4.85746233,244.420175 L42.2070458,244.420175 C42.2070458,242.662918 42.2070458,242.627056 42.2070458,242.591193 L42.5700112,239.157369 C42.6360817,238.484413 42.2320294,237.853994 41.5931414,237.633217 L41.5931414,237.633217 Z" id="Path" fill="#FFFFFF"></path>
                <path d="M41.5931414,237.633217 L34.3024669,235.149746 L34.1590732,235.091469 L30.0992384,233.208693 C28.5131053,232.47338 27.1382445,231.349317 26.1021384,229.940732 L25.7795025,229.492452 C25.5058858,229.120384 25.0716758,228.900723 24.6099475,228.900723 L12.739636,228.900723 L7.96283261,230.451771 L22.3022048,234.226289 C23.7957161,234.620742 24.8368094,235.971379 24.8384812,237.516664 L24.8384812,237.516664 C24.8386872,238.495267 25.3947151,239.388735 26.2724185,239.820823 L34.5041143,243.823963 L40.7775896,243.909136 C41.5326579,243.920006 42.1707771,243.351703 42.2473753,242.600159 L42.5700112,239.157369 C42.6360817,238.484413 42.2320294,237.853994 41.5931414,237.633217 L41.5931414,237.633217 Z" id="Path" fill="url(#linearGradient-2)" style="mix-blend-mode: multiply;"></path>
                <path d="M48.4536348,158.641802 L60.5838475,175.842304 C61.4857251,177.124758 61.8419068,178.712883 61.5741604,180.257862 L60.8616728,184.350658 C60.727412,185.115707 60.7002651,185.895729 60.7810138,186.668266 L62.0222657,207.737425 C62.068012,208.61474 61.6708453,209.456523 60.964737,209.978825 L60.964737,209.978825 C60.0867655,210.637582 59.5850454,211.68324 59.6204209,212.780575 L59.7638146,217.814759 C59.784403,218.452899 59.9797032,219.073141 60.3284274,219.607879 L60.6376201,220.056159 C61.2105094,220.943858 60.9901758,222.124677 60.1357421,222.745839 L59.7593336,223.014807 C58.7294253,223.75448 58.1005029,224.93003 58.0565331,226.197594 L57.966912,228.820032 C57.9535939,229.291003 58.1313482,229.747322 58.4597031,230.085093 C58.788058,230.422865 59.2390667,230.613341 59.710042,230.613152 L72.4138295,230.613152 C74.0350606,230.634245 75.6505818,230.416745 77.2085571,229.967629 L79.2743229,229.34452 C79.6322712,229.232692 79.9233023,228.96964 80.0707086,228.624695 C80.2181149,228.279751 80.2071059,227.887526 80.0405831,227.5514 L79.529743,226.560701 C79.0225353,225.569072 78.831717,224.445621 78.9830544,223.342051 L80.9681612,208.831228 L83.6567935,193.854194 C83.9178616,192.414841 83.6505248,190.929588 82.9039765,189.671742 L82.9039765,189.671742 C82.522644,189.022557 82.5107296,188.220577 82.8726091,187.560343 L84.0421641,185.431013 C84.4935818,184.615217 84.7367739,183.700582 84.7501706,182.76823 L84.9025265,173.148142 C84.9345006,171.265695 84.6775855,169.389484 84.1407473,167.584987 L78.28401,147.806875 C77.4030894,144.83089 76.2573313,141.939874 74.8604849,139.168519 L69.8596288,129.234635 L52.7823328,128.656354 L48.4536348,158.641802 Z" id="Path" fill="#023852"></path>
                <path d="M63.877422,229.115897 C63.9250589,228.109867 64.3339783,227.15482 65.0290528,226.426217 L65.4189045,226.018282 C65.9723367,225.436707 66.2818536,224.66502 66.2837479,223.862056 L66.2837479,221.620656 C66.2824982,220.993877 66.0936503,220.381834 65.7415404,219.863398 L64.8856591,218.599249 C64.4193241,217.917771 64.1780062,217.107317 64.1955768,216.281641 L64.2538305,212.959887 C64.2736424,211.885925 64.5436908,210.831405 65.042496,209.880203 C65.2724165,209.443665 65.3909433,208.957054 65.3875371,208.463638 L65.1903708,187.381031 C65.1771269,186.025261 65.3138843,184.672188 65.5981467,183.346511 L66.6422322,178.500605 C66.9043916,177.275991 66.5832043,175.999022 65.7729078,175.044366 L65.4323477,174.640914 C64.7021911,173.782149 64.4728657,172.604486 64.8274054,171.534334 L69.2009139,158.363868 C69.775099,156.624232 69.7067337,154.736298 69.0082286,153.042785 L59.1499102,129.006012 C59.1499102,129.006012 53.7233541,137.146777 52.0205536,139.316452 L49.3319214,157.933519 C49.4484288,158.189039 49.2960729,158.76732 49.0361718,159.453188 L51.3573577,162.743563 L60.5972906,175.85127 C60.7102398,176.013233 60.8149314,176.180804 60.9109644,176.353344 C61.1586158,176.791171 61.3469768,177.259996 61.4710961,177.747494 C61.4979824,177.850599 61.5248688,177.953703 61.547274,178.06129 C61.6207327,178.404918 61.6627296,178.754528 61.6727435,179.105783 C61.6823202,179.49465 61.6538041,179.883521 61.5876035,180.266828 L60.875116,184.359624 C60.7408551,185.124672 60.7137083,185.904694 60.794457,186.677231 L62.0357089,207.74639 C62.0357089,207.74639 62.0357089,207.74639 62.0357089,207.74639 C62.0941922,208.607126 61.7130215,209.438941 61.0229907,209.956411 L60.8258244,210.113309 L60.6824306,210.234344 L60.5255938,210.395725 L60.4001243,210.530209 L60.2656926,210.714004 L60.1581474,210.857453 C60.1178179,210.920213 60.0819694,210.987455 60.046121,211.054697 C60.0102726,211.121939 59.9878673,211.157801 59.960981,211.207112 C59.9273136,211.277196 59.8973977,211.349022 59.8713599,211.422286 C59.8489546,211.47608 59.8220683,211.529873 59.8041441,211.583667 C59.7862199,211.637461 59.7593336,211.736082 59.7369283,211.816773 C59.714523,211.897463 59.7055609,211.919877 59.6921178,211.973671 C59.6786746,212.027464 59.6652314,212.144017 59.6517883,212.233673 C59.6383451,212.323329 59.6517883,212.327812 59.629383,212.377123 C59.6203428,212.514446 59.6203428,212.652216 59.629383,212.78954 L59.7727767,217.823724 C59.7933652,218.461865 59.9886653,219.082107 60.3373895,219.616844 L60.6465822,220.065124 C60.7176799,220.173919 60.7777259,220.289553 60.8258244,220.4103 C61.1678891,221.259453 60.8868088,222.232518 60.1447042,222.768253 L59.9789052,222.884805 L59.7682957,223.037221 C59.6383451,223.131359 59.5173567,223.229981 59.4008493,223.333085 C59.2086781,223.512553 59.0331963,223.709109 58.876566,223.920332 L58.7018049,224.175852 C58.3142959,224.789678 58.0948625,225.494612 58.0654952,226.220008 L57.9758741,228.842446 C57.9720326,228.953497 57.97954,229.064649 57.9982794,229.174173 C57.9961871,229.20851 57.9961871,229.242942 57.9982794,229.277278 C57.9982794,229.34452 58.0341278,229.411762 58.0565331,229.479004 C58.0789384,229.546246 58.0834194,229.559694 58.1013437,229.600039 C58.1237502,229.653093 58.1507388,229.704092 58.1820026,229.752455 C58.2030134,229.798213 58.2285323,229.841762 58.2581805,229.882456 C58.2720216,229.9027 58.2869818,229.922156 58.3029911,229.940732 C58.3935808,230.061074 58.498969,230.169515 58.6166648,230.263494 L58.6166648,230.263494 C58.6818911,230.31345 58.7507967,230.358406 58.8227933,230.397978 L58.8541607,230.397978 C58.9283941,230.439648 59.0064161,230.474172 59.0871755,230.501082 L63.8102062,230.501082 L63.877422,229.115897 Z" id="Path" fill="#023852" style="mix-blend-mode: multiply;"></path>
                <polygon id="Path" fill="#9DADB7" points="94.3844363 89.2077157 104.632606 86.9483846 98.7310585 103.005773 91.0415702 99.4912584"></polygon>
                <path d="M95.1506965,84.1824972 L95.1506965,84.1824972 C95.3069679,89.3163979 94.402342,94.4273126 92.4934316,99.1953936 L92.4934316,99.2222904 C91.9109597,101.324488 89.8361225,102.64764 87.6852609,102.288525 L67.7356093,98.9488397 C66.0950999,98.6721403 64.8245818,97.3611811 64.5988717,95.7122582 L64.5361369,95.2639782 C64.1678879,92.5962921 64.2725534,89.884552 64.8453296,87.253215 L64.8453296,87.253215 C65.3220124,85.0455098 67.1841513,83.4082266 69.4339287,83.2186952 L91.9108946,81.3000569 C92.7268125,81.2347184 93.5340245,81.5054742 94.1456598,82.049644 C94.7572951,82.5938137 95.120321,83.3642144 95.1506965,84.1824972 L95.1506965,84.1824972 Z" id="Path" fill="#9DADB7"></path>
                <polygon id="Path" fill="#9DADB7" points="323.818872 89.2077157 313.570702 86.9483846 319.47225 103.005773 327.161738 99.4912584"></polygon>
                <path d="M323.052612,84.1824972 L323.052612,84.1824972 C322.896341,89.3163979 323.800967,94.4273126 325.709877,99.1953936 L325.709877,99.2222904 C326.292349,101.324488 328.367186,102.64764 330.518048,102.288525 L350.467699,98.9488397 C352.108209,98.6721403 353.378727,97.3611811 353.604437,95.7122582 L353.667172,95.2639782 C354.035421,92.5962921 353.930755,89.884552 353.357979,87.253215 L353.357979,87.253215 C352.881296,85.0455098 351.019157,83.4082266 348.76938,83.2186952 L326.292414,81.3000569 C325.476496,81.2347184 324.669284,81.5054742 324.057649,82.049644 C323.446014,82.5938137 323.082988,83.3642144 323.052612,84.1824972 L323.052612,84.1824972 Z" id="Path" fill="#9DADB7"></path>
                <path d="M64.2672737,84.4918103 L65.8849341,84.4290512 C66.801037,84.392994 67.6736582,84.8210484 68.20612,85.5676823 L68.4077674,85.8500987 C68.5571765,86.0589483 68.8062712,86.1726366 69.0618718,86.1486359 C69.3174725,86.1246351 69.5410688,85.9665614 69.6490193,85.7335459 L69.8282615,85.3480251 C70.2044868,84.5252477 70.9968717,83.9710484 71.8985083,83.9000808 L76.4288537,83.5459396 C77.4852778,83.4652621 78.5157868,83.1789826 79.4625272,82.7031732 L82.2990342,81.2866085 L87.281966,88.6428829 L85.4895445,89.7097893 L82.4782764,96.0170886 C81.9657424,97.0875154 81.1387107,97.9758652 80.1077989,98.5633189 L67.1127429,105.968904 L64.2672737,84.4918103 Z" id="Path" fill="#023852"></path>
                <path d="M82.3169584,88.3694322 L65.7370593,95.5419118 L67.121705,105.964421 L80.116761,98.5588361 C81.1476729,97.9713824 81.9747046,97.0830326 82.4872385,96.0126058 L85.4985066,89.7053065 L85.4985066,89.7053065 C85.2620981,89.0992814 84.7901582,88.6150513 84.1905476,88.3632857 C83.590937,88.1115201 82.9149055,88.1137379 82.3169584,88.3694322 L82.3169584,88.3694322 Z" id="Path" fill="#023852" style="mix-blend-mode: multiply;"></path>
                <path d="M50.8106691,128.243936 L20.8413813,131.534311 L22.7234239,136.810567 C23.4449176,138.9741 23.6670621,141.273042 23.3731767,143.534766 L21.1729792,160.394576 C21.040849,161.232291 20.5499068,161.970628 19.8286631,162.416319 C19.0383505,162.940766 18.5087101,163.777108 18.3723206,164.715995 L17.6508709,169.790525 C17.4635784,171.076547 17.0053615,172.308103 16.3065548,173.403661 L33.6571951,159.690777 C36.5113077,157.438741 37.2937781,153.439159 35.4989083,150.276897 L35.4989083,150.276897 C35.119383,149.608969 35.0939464,148.796666 35.4309373,148.106283 C35.7679282,147.415899 36.423891,146.936462 37.1837845,146.825141 L37.1837845,146.825141 C39.3388517,146.508504 41.2255177,145.210502 42.2921858,143.310626 L50.8106691,128.243936 Z" id="Path" fill="url(#linearGradient-3)" style="mix-blend-mode: multiply;"></path>
                <path d="M20.8413813,131.534311 L22.7234239,136.810567 C23.4449176,138.9741 23.6670621,141.273042 23.3731767,143.534766 L21.0071802,161.672174 L18.6053354,163.173912 L17.5612499,170.476393 C17.4463121,171.297446 17.1575779,172.084515 16.7143307,172.785035 L14.993606,175.510577 C13.931091,177.19157 13.1444218,179.031882 12.6634581,180.961662 L10.5035901,189.622431 L5.26523822,216.030604 C5.05791618,217.064638 5.03818419,218.127543 5.20698452,219.168564 L5.76711625,222.656183 C5.89258762,223.428132 5.89258762,224.215289 5.76711625,224.987238 L4.42280011,233.365591 L24.6323528,228.927619 L24.1125505,224.261025 C24.1053539,223.395126 24.4613127,222.565858 25.0939013,221.974797 L26.1693542,220.975133 C26.8018753,220.390562 27.1947383,219.591749 27.2716935,218.733733 C27.4150872,217.030269 27.6705073,213.986448 27.899041,211.216077 C28.2260821,207.207805 28.2799794,203.181909 28.0603589,199.166312 L27.9080031,196.476632 C27.8657989,195.655579 28.1473794,194.85075 28.6921875,194.235232 L35.8618736,186.166192 C37.7993066,184.894827 39.3361375,183.099346 40.2936358,180.988559 L52.2535684,154.580385 L58.2492184,132.166386 L52.0339968,128.172211 L20.8413813,131.534311 Z" id="Path" fill="#023852"></path>
                <path d="M50.8106691,128.243936 L20.8413813,131.534311 L22.7234239,136.810567 C23.4449176,138.9741 23.6670621,141.273042 23.3731767,143.534766 L21.1729792,160.394576 C21.040849,161.232291 20.5499068,161.970628 19.8286631,162.416319 C19.0383505,162.940766 18.5087101,163.777108 18.3723206,164.715995 L17.6508709,169.790525 C17.4635784,171.076547 17.0053615,172.308103 16.3065548,173.403661 L33.6571951,159.690777 C36.5113077,157.438741 37.2937781,153.439159 35.4989083,150.276897 L35.4989083,150.276897 C35.119383,149.608969 35.0939464,148.796666 35.4309373,148.106283 C35.7679282,147.415899 36.423891,146.936462 37.1837845,146.825141 L37.1837845,146.825141 C39.3388517,146.508504 41.2255177,145.210502 42.2921858,143.310626 L50.8106691,128.243936 Z" id="Path" fill="#023852" style="mix-blend-mode: multiply;"></path>
                <path d="M63.7878009,80.1928054 L66.9245386,93.3184431 C66.9270701,93.3512682 66.9270701,93.3842396 66.9245386,93.4170647 L69.0082286,108.797551 C69.0171812,108.871226 69.0352435,108.943503 69.0620013,109.012725 L71.9119515,116.427276 C71.9573921,116.54433 71.9787303,116.66936 71.9751701,116.794866 L71.5624293,131.892935 C71.5498765,132.148068 71.4347063,132.387275 71.243118,132.556141 C71.0515297,132.725007 70.7998134,132.809174 70.5452301,132.789495 L52.0564021,131.386379 L51.9802242,131.386379 L22.9654008,132.282939 C22.9102218,132.278542 22.8547807,132.278542 22.7996018,132.282939 L20.9175592,132.681908 C20.4374742,132.782413 19.9598321,132.500766 19.8152199,132.031902 L18.3723206,127.450481 C18.3055987,127.233543 18.3183078,126.999922 18.408169,126.791509 L21.4508046,119.879032 C21.4989742,119.770009 21.5674023,119.67113 21.652452,119.58765 L62.2015079,79.7400426 C62.4442289,79.4988541 62.7982546,79.4076457 63.1272378,79.5015447 C63.456221,79.5954437 63.7088393,79.8598016 63.7878009,80.1928054 Z" id="Path" fill="#FFFFFF"></path>
                <path d="M94.4023605,76.0955264 L93.4120477,72.2896293 C93.1972225,71.4479791 92.5199351,70.8035215 91.6689177,70.6309934 L89.3925424,70.1558166 C88.8069852,70.0326238 88.1979821,70.199539 87.7569577,70.6040966 L85.0683255,73.1368785 L83.1818018,72.7379093 L82.285591,76.7051871 C82.1014317,77.5117751 82.0484732,78.342791 82.1287542,79.1662442 L82.3304016,81.2731601 L87.3133334,88.6294346 L92.1170231,82.931796 C92.8519417,82.0677099 93.4024416,81.0623891 93.7346835,79.977631 L94.3620311,77.9334743 C94.5422066,77.3358788 94.5561495,76.7004556 94.4023605,76.0955264 L94.4023605,76.0955264 Z" id="Path" fill="#2BA8E0"></path>
                <path d="M87.9272378,80.2959097 L87.8286546,80.2959097 C87.0919466,80.3329281 86.4300813,79.8484933 86.2423616,79.1348646 L84.7367275,73.4506745 L85.0638444,73.1458441 L83.6343882,72.8454965 L83.0652944,73.2310173 L82.2676668,76.7141527 C82.0835075,77.5207407 82.030549,78.3517566 82.11083,79.1752098 L82.3124774,81.2821257 L85.7180783,86.3118271 L88.4784074,82.1114437 L87.9272378,80.2959097 Z" id="Path" fill="url(#linearGradient-4)" style="mix-blend-mode: multiply;"></path>
                <path d="M77.1637465,4.68452578 L72.5930717,6.63006088 C71.0249472,7.29444147 70.2067202,9.03192087 70.6931049,10.6645807 L96.7907622,98.8726321 L94.3933984,102.037489 L67.5070756,10.6959603 C67.0876117,9.25909948 67.3721879,7.70842688 68.2744813,6.51432127 C69.1767746,5.32021566 70.5904602,4.62338874 72.0867126,4.63506683 L77.1637465,4.68452578 Z" id="Path" fill="#5A5D5E"></path>
                <path d="M31.8826978,25.4309232 L32.0888263,24.6867784 C32.3891168,23.5831777 32.3262691,22.412183 31.9095842,21.3470926 L31.3404903,19.8856998 C30.9188334,18.8062124 30.7088835,17.6556041 30.7221049,16.4967032 L30.7221049,14.7035833 C30.7453229,12.5592192 31.302867,10.4545175 32.3442464,8.58007879 L33.2046087,7.03351286 C33.9857889,5.63903186 35.0551284,4.42715102 36.3413464,3.47865263 L37.0000613,2.98554466 C39.2594553,1.31090162 41.9985886,0.410078373 44.8105381,0.416861916 L44.8105381,0.416861916 C45.3514177,0.430033243 45.8899327,0.493059548 46.4192364,0.605177971 C49.8671284,1.31780392 52.9812946,3.15455353 55.2737987,5.82763972 L57.1468792,7.97490082 C58.5673821,9.18551143 59.3290269,10.998866 59.1992018,12.8611526 L58.5897785,21.7326134 L56.295479,24.5478116 L56.2237821,30.5413149 L54.9153144,31.5095997 C54.4778369,31.8329564 54.1862085,32.3165067 54.1042437,32.8544396 L53.4768961,37.3148254 C53.38752,37.9424739 53.0680935,38.5144701 52.5806854,38.9196677 L50.0892194,40.9593416 L35.5840483,31.9399485 L31.8826978,25.4309232 Z" id="Path" fill="#023852"></path>
                <path d="M32.3621706,13.4708134 L33.2225329,11.9287302 C34.0021743,10.5319075 35.0717238,9.31826 36.3592706,8.3693872 L37.0179855,7.88076202 C39.269896,6.20326353 42.0028861,5.29767661 44.8105381,5.29866935 L44.8105381,5.29866935 C45.3515344,5.31358079 45.8900231,5.37810457 46.4192364,5.49142974 C49.8741504,6.19671002 52.9967895,8.03065462 55.296204,10.7049259 L57.1692845,12.852187 C58.0659989,13.6180551 58.7109748,14.6366704 59.0199597,15.7749724 L59.2216071,12.8566698 C59.3514322,10.9943832 58.5897873,9.18102863 57.1692845,7.97041802 L55.2737987,5.82763972 C52.974833,3.15197305 49.8522151,1.316464 46.3968311,0.609660771 C45.8675274,0.497542347 45.3290124,0.434516043 44.7881328,0.42138318 L44.7881328,0.42138318 C41.9828292,0.421973177 39.2521928,1.32572905 37.0000613,2.99899306 L36.3413464,3.49210103 C35.0551284,4.44059942 33.9857889,5.65248026 33.2046087,7.04696126 L32.3442464,8.59352719 C31.302867,10.4679659 30.7453229,12.5726676 30.7221049,14.7170317 L30.7221049,16.5101516 C30.7165521,17.0403195 30.7585435,17.5699173 30.8475744,18.0925799 C31.0561353,16.4701252 31.5700623,14.9018851 32.3621706,13.4708134 L32.3621706,13.4708134 Z" id="Path" fill="#235268"></path>
                <path d="M49.5649362,21.4546798 L49.1168308,25.1843692 C49.0676475,25.5803051 49.3183565,25.9517288 49.7038488,26.0540324 L56.2417063,27.8202555 L56.2417063,26.0585152 C56.2549999,25.0774381 56.5992361,24.1296297 57.2185761,23.3688353 L58.5628922,21.7281306 L58.5628922,21.5757154 L50.214689,20.889847 C49.8858744,20.8849867 49.6060066,21.1282769 49.5649362,21.4546798 Z" id="Path" fill="#0099DA"></path>
                <path d="M332.046087,173.291591 L332.046087,232.016268 C332.0089,235.554787 330.851076,238.990377 328.739069,241.829117 L328.739069,241.829117 C327.659135,243.326372 325.602332,244.258795 323.316994,244.258795 L302.614526,244.258795 C300.351593,244.258795 298.272385,243.326372 297.192451,241.829117 L297.192451,241.829117 C295.080444,238.990377 293.92262,235.554787 293.885433,232.016268 L293.885433,186.955165 L332.046087,173.291591 Z" id="Path" fill="#023852"></path>
                <path d="M87.0175839,173.291591 L87.0175839,232.016268 C87.0529195,235.5551 88.210932,238.991248 90.3246016,241.829117 L90.3246016,241.829117 C91.4000545,243.326372 93.4837445,244.258795 95.7466767,244.258795 L116.444664,244.258795 C118.707596,244.258795 120.791286,243.326372 121.866739,241.829117 L121.866739,241.829117 C123.978746,238.990377 125.13657,235.554787 125.173757,232.016268 L125.173757,186.955165 L87.0175839,173.291591 Z" id="Path" fill="#023852"></path>
                <polygon id="Path" fill="#023852" style="mix-blend-mode: multiply;" points="332.05953 229.635902 332.05953 184.382038 293.903357 198.041129 293.903357 229.635902"></polygon>
                <polygon id="Path" fill="#023852" style="mix-blend-mode: multiply;" points="125.173757 229.635902 125.173757 198.041129 87.0175839 184.382038 87.0175839 229.635902"></polygon>
                <path d="M329.572545,107.874094 L321.036138,96.4832998 C319.972263,95.0626319 319.070454,93.5274552 318.347506,91.9063612 L293.509024,36.1986083 C291.981777,32.7720008 288.687348,30.4696589 284.945731,30.2140706 L254.676212,28.1923278 C224.56394,26.179536 194.350655,26.1885217 164.239584,28.2192246 L134.664629,30.2140706 C130.922667,30.4686812 127.627784,32.7713409 126.101335,36.1986083 L101.652706,91.0008356 C100.66197,93.2233088 99.4265233,95.328296 97.9692794,97.2767553 L89.2625918,108.887207 C85.5111506,113.887477 83.2885335,119.868148 82.863647,126.105641 L82.1421973,136.604358 C82.0248707,138.327808 82.0488499,140.057976 82.2138942,141.777509 L86.8517849,190.424852 C86.9955838,191.937655 87.2593021,193.436638 87.6404503,194.907652 L88.9623612,200.035975 C90.2024224,204.84355 92.5799978,209.282293 95.8945515,212.977818 L95.8945515,212.977818 C101.160216,218.863159 108.692727,222.21152 116.588058,222.17682 L209.816382,221.791002 L302.825135,222.17682 C310.860524,222.213447 318.527054,218.806223 323.886088,212.816437 L323.966747,212.722298 C327.11707,209.19519 329.374594,204.962796 330.549415,200.38115 L331.84444,195.355932 C332.297447,193.590016 332.612075,191.791441 332.785461,189.976572 L337.100716,144.731674 C337.454643,141.046707 337.504102,137.338812 337.248591,133.64571 L336.800485,127.36979 C336.321513,120.309778 333.811313,113.539093 329.572545,107.874094 Z" id="Path" fill="#BDC8CF"></path>
                <path d="M210.004587,142.853381 C184.225084,142.66062 93.3224266,142.033028 93.3224266,142.907174 L94.2948153,154.965906 C94.7103799,160.066174 98.970728,163.992683 104.085918,163.989783 L315.914293,163.989783 C321.029483,163.992683 325.289831,160.066174 325.705396,154.965906 L326.677785,142.907174 C326.668822,142.033028 235.779608,142.66062 210.004587,142.853381 Z" id="Path" fill="#9DADB7"></path>
                <path d="M131.796755,202.62255 L89.863053,203.572904 L90.4052605,205.670854 C90.6923592,206.789486 91.2440971,207.822668 92.0139589,208.683296 L102.997022,220.948236 C103.736366,221.773467 104.793004,222.243266 105.900745,222.239307 L129.103641,222.145143 L131.796755,202.62255 Z" id="Path" fill="#9DADB7"></path>
                <path d="M287.844972,202.62255 L329.778674,203.572904 L329.240947,205.670854 C328.950256,206.789017 328.397237,207.821721 327.627768,208.683296 L316.649186,220.948236 C315.908457,221.774162 314.850162,222.243973 313.740982,222.239317 L290.542567,222.145143 L287.844972,202.62255 Z" id="Path" fill="#9DADB7"></path>
                <path d="M209.798458,221.791002 L302.789287,222.181006 L295.673373,205.038779 C294.156401,201.35501 290.572818,198.946159 286.590277,198.933206 L133.029044,198.933206 C129.048137,198.947966 125.466776,201.356512 123.950429,205.038779 L116.834516,222.181006 L209.798458,221.791002 Z" id="Path" fill="#023852"></path>
                <path d="M211.097964,105.224759 L324.607538,112.397239 L311.881345,93.9191383 C308.33201,88.748808 305.470001,83.1385915 303.367343,77.2296747 L290.170639,40.2062313 C289.054436,37.0612698 286.222322,34.8446526 282.90237,34.5175583 L259.744284,32.1999509 C249.213807,31.1449986 238.657938,30.4770615 228.076677,30.1961394 L209.798458,29.6582034 L191.269301,30.1961394 C180.694014,30.4770615 170.138145,31.1449986 159.601693,32.1999509 L136.439126,34.5175583 C133.126444,34.8480896 130.301255,37.0598924 129.1843,40.1972657 L115.987597,77.2207091 C113.884939,83.1296259 111.02293,88.7398424 107.473594,93.9101727 L94.7518827,112.401722 L208.261457,105.229242 L211.097964,105.224759 Z" id="Path" fill="#023852"></path>
                <path d="M211.097964,105.224759 L324.607538,112.397239 L311.881345,93.9191383 C308.33201,88.748808 305.470001,83.1385915 303.367343,77.2296747 L290.170639,40.2062313 C289.054436,37.0612698 286.222322,34.8446526 282.90237,34.5175583 L259.744284,32.1999509 C249.213807,31.1449986 238.657938,30.4770615 228.076677,30.1961394 L210.493022,29.6761346 C210.044916,29.6761346 209.569924,29.6761346 209.103895,29.6761346 L191.269301,30.1961394 C180.694014,30.4770615 170.138145,31.1449986 159.601693,32.1999509 L136.439126,34.5175583 C133.126444,34.8480896 130.301255,37.0598924 129.1843,40.1972657 L115.987597,77.2207091 C113.884939,83.1296259 111.02293,88.7398424 107.473594,93.9101727 L94.7518827,112.401722 L208.261457,105.229242 L211.097964,105.224759 Z" id="Path" fill="#9DADB7"></path>
                <path d="M326.314819,141.257504 L325.082529,112.383791 L325.028757,112.329997 C319.754556,104.000955 310.133734,100.984031 301.843784,99.9664352 L297.14764,99.4867756 L297.0625,99.455396 C293.208794,99.0071161 283.372881,98.1598669 279.492288,98.0029689 L246.099475,96.658129 L213.056184,96.209849 L213.056184,96.187435 L206.334604,96.187435 L206.334604,96.2143318 L173.649797,96.6626118 L140.261465,98.0074517 C136.380873,98.1643497 126.540478,98.9936677 122.686772,99.4598788 L122.606113,99.4912584 L117.909969,99.9664352 C109.620019,100.984031 99.9857536,104.000955 94.7294775,112.329997 L94.6712238,112.383791 L93.443415,141.257504 L139.002289,141.90751 L128.50318,114.562431 L207.952264,114.562431 L207.952264,114.499672 L211.80597,114.499672 L211.80597,114.562431 L291.268497,114.562431 L280.764907,141.90751 L326.314819,141.257504 Z" id="Path" fill="#B4C3CB"></path>
                <polygon id="Path" fill="#023852" points="140.19873 147.188248 280.119636 147.188248 294.517261 111.8862 125.801105 111.8862"></polygon>
                <path d="M142.882882,153.760033 C144.337346,157.322238 147.80141,159.65023 151.647823,159.650432 L268.670543,159.650432 C272.51607,159.650857 275.979139,157.322342 277.431003,153.760033 L281.463952,143.920287 L138.872339,143.920287 L142.882882,153.760033 Z" id="Path" fill="#BDC8CF"></path>
                <rect id="Rectangle" fill="#023852" x="178.457968" y="119.551787" width="63.3979493" height="17.1108468" rx="1.37"></rect>
                <path d="M122.659886,103.897851 L138.912668,143.938218 L94.0304331,143.301661 C93.8810356,143.299409 93.7389532,143.236577 93.6367344,143.127557 C93.5345156,143.018538 93.4809201,142.872673 93.4882256,142.72338 L94.7205154,113.320696 C94.7470357,112.741179 95.0132532,112.198793 95.4554082,111.823441 L95.4554082,111.823441 C101.83262,106.431023 109.644248,103.017558 117.932374,102.001626 L119.160183,101.840246 C120.657804,101.654707 122.093258,102.498664 122.659886,103.897851 L122.659886,103.897851 Z" id="Path" fill="#023852"></path>
                <path d="M98.2826847,139.002656 L99.3001524,114.795537 C99.3178396,114.309803 99.5470494,113.856118 99.9274999,113.553801 C105.606004,109.061 112.412562,106.220986 119.599326,105.345795 L120.047431,105.292001 C120.604825,105.225703 121.138059,105.539169 121.351418,106.05856 L134.951416,139.47335 C135.04181,139.695166 135.014782,139.947573 134.879473,140.145201 C134.744163,140.34283 134.51867,140.459249 134.279258,140.455191 L99.2194934,139.961975 C98.9671763,139.962047 98.7255042,139.860267 98.5492104,139.679685 C98.3729165,139.499103 98.2769168,139.254999 98.2826847,139.002656 L98.2826847,139.002656 Z" id="Path" fill="#FFE700"></path>
                <path d="M98.2826847,139.002656 L99.3001524,114.795537 C99.3178396,114.309803 99.5470494,113.856118 99.9274999,113.553801 C105.606004,109.061 112.412562,106.220986 119.599326,105.345795 L120.047431,105.292001 C120.604825,105.225703 121.138059,105.539169 121.351418,106.05856 L134.951416,139.47335 C135.04181,139.695166 135.014782,139.947573 134.879473,140.145201 C134.744163,140.34283 134.51867,140.459249 134.279258,140.455191 L99.2194934,139.961975 C98.9671763,139.962047 98.7255042,139.860267 98.5492104,139.679685 C98.3729165,139.499103 98.2769168,139.254999 98.2826847,139.002656 L98.2826847,139.002656 Z" id="Path" fill="#FFE700" style="mix-blend-mode: multiply;"></path>
                <polygon id="Path" fill="#FFE700" points="126.168551 117.951428 106.196494 117.951428 106.196494 129.283946 130.784036 129.283946"></polygon>
                <path d="M298.666717,85.5766479 L288.508168,47.0245697 C287.930175,44.7903601 285.955922,43.1997754 283.650706,43.1110855 L209.825344,40.5110617 L209.825344,40.5110617 L209.659546,40.5110617 L209.493747,40.5110617 L209.493747,40.5110617 L135.489143,43.1155683 C133.29206,43.1953023 131.406316,44.7048492 130.846771,46.8318094 L120.625487,85.5766479 C120.007102,87.925635 121.691978,90.2477253 123.990759,90.2166602 L209.646102,89.0597833 L295.301446,90.2166602 C297.600226,90.2477253 299.285103,87.925635 298.666717,85.5766479 Z" id="Path" fill="#023852"></path>
                <path d="M297.595745,103.897851 L281.365369,143.938218 L326.252084,143.301661 C326.401482,143.299409 326.543564,143.236577 326.645783,143.127557 C326.748002,143.018538 326.801597,142.872673 326.794292,142.72338 L325.562002,113.320696 C325.535482,112.741179 325.269264,112.198793 324.827109,111.823441 L324.827109,111.823441 C318.449897,106.431023 310.63827,103.017558 302.350143,102.001626 L301.122335,101.840246 C299.616045,101.644973 298.167493,102.490137 297.595745,103.897851 L297.595745,103.897851 Z" id="Path" fill="#023852"></path>
                <path d="M321.977432,139.002656 L320.95996,114.795537 C320.942273,114.309803 320.713063,113.856118 320.332612,113.553801 C314.659161,109.064021 307.859207,106.224174 300.67871,105.345795 L300.230605,105.292001 C299.672881,105.224115 299.138752,105.538107 298.926618,106.05856 L285.32662,139.47335 C285.236226,139.695166 285.263255,139.947573 285.398564,140.145201 C285.533873,140.34283 285.759366,140.459249 285.998778,140.455191 L321.058543,139.961975 C321.307737,139.957275 321.544781,139.853401 321.717194,139.673349 C321.889606,139.493296 321.983166,139.251919 321.977432,139.002656 L321.977432,139.002656 Z" id="Path" fill="#FFE700"></path>
                <path d="M321.977432,139.002656 L320.95996,114.795537 C320.942273,114.309803 320.713063,113.856118 320.332612,113.553801 C314.659161,109.064021 307.859207,106.224174 300.67871,105.345795 L300.230605,105.292001 C299.672881,105.224115 299.138752,105.538107 298.926618,106.05856 L285.32662,139.47335 C285.236226,139.695166 285.263255,139.947573 285.398564,140.145201 C285.533873,140.34283 285.759366,140.459249 285.998778,140.455191 L321.058543,139.961975 C321.307737,139.957275 321.544781,139.853401 321.717194,139.673349 C321.889606,139.493296 321.983166,139.251919 321.977432,139.002656 L321.977432,139.002656 Z" id="Path" fill="#FFE700" style="mix-blend-mode: multiply;"></path>
                <polygon id="Path" fill="#FFE700" points="294.091561 117.951428 314.063618 117.951428 314.063618 129.283946 289.476076 129.283946"></polygon>
                <path d="M84.7232843,73.4551573 L86.2289184,79.1393474 C86.4166381,79.8529761 87.0785034,80.3374109 87.8152114,80.3003925 L90.441109,80.1703914 C91.0056885,80.1466471 91.5592311,80.3317651 91.9960346,80.6903961 L91.9960346,80.6903961 C92.2760529,80.9098192 92.6461198,80.9772316 92.9854802,80.8706363 C93.3248405,80.764041 93.5899696,80.4971094 93.694354,80.156943 L94.3620311,77.9738195 C94.5455381,77.3706292 94.5594911,76.7285387 94.4023605,76.1179404 L93.4120477,72.3120433 C93.1972225,71.4703931 92.5199351,70.8259355 91.6689177,70.6534074 L89.3925424,70.1782306 C88.8069852,70.0550378 88.1979821,70.221953 87.7569577,70.6265106 L84.7232843,73.4551573 Z" id="Path" fill="#0099DA"></path>
                <path d="M86.0362331,78.3548574 L88.5008127,75.3693128 C88.8258464,74.9729317 89.3421255,74.7869988 89.8451288,74.8851704 L94.3261826,75.745868 L93.4299719,72.2627325 C93.2145967,71.4391234 92.5514058,70.8086729 91.7182093,70.6354762 L89.4776824,70.1871962 C88.856746,70.0581721 88.2118392,70.2386826 87.7479956,70.6713386 L84.7546517,73.4730885 L86.0362331,78.3548574 Z" id="Path" fill="url(#linearGradient-5)" style="mix-blend-mode: multiply;"></path>
                <polygon id="Path" fill="#023852" points="82.2990342 81.2866085 80.2870411 82.2907557 85.4536961 89.8084109 85.5029877 89.7097893 87.281966 88.6428829"></polygon>
                <path d="M68.4301727,43.3397083 L68.9320507,40.6052005 C69.1372578,39.4836846 69.0898012,38.3304987 68.793138,37.2296522 L68.793138,37.2296522 C68.5525268,36.3271724 68.4781237,35.3884172 68.5735664,34.4592819 L69.371194,26.7040383 C69.4353323,26.1029682 69.6262483,25.5223574 69.9313257,25.0005744 L73.1532034,19.5405243 C73.3310578,19.2422653 73.6226234,19.0292926 73.9607661,18.9506437 C74.2989089,18.8719949 74.6544861,18.9344483 74.9456249,19.1236239 L75.3085903,19.3612123 C76.1110603,19.8894385 76.5091273,20.8547717 76.3123463,21.7953726 L76.1555094,22.5305517 C75.8892297,23.7707078 76.1400685,25.0658642 76.8500728,26.1167915 L78.7769259,28.972335 C79.5659968,30.1411146 79.694816,31.6349827 79.117486,32.9216816 L77.2175192,37.166893 C76.9798237,37.6935887 76.828516,38.255159 76.7694138,38.8300117 L76.3213084,43.2141899 L68.4301727,43.3397083 Z" id="Path" fill="#0099DA"></path>
                <path d="M62.9722491,80.8338457 L68.4973885,121.179044 L68.0851315,124.07045 L68.6049338,126.150469 L67.4264166,125.365979 L50.9271765,121.82905 L20.1647421,121.82905 L20.5590749,117.113144 L16.0780211,115.736925 C15.4041731,115.530302 14.8098611,115.121944 14.3752206,114.566914 L14.3752206,114.566914 C13.8810141,113.937831 13.611291,113.161483 13.6089604,112.361377 C13.6089604,109.514799 13.6089604,102.723357 13.6089604,102.723357 L13.6089604,102.723357 C13.0890005,96.3618737 13.1610068,89.9658192 13.824051,83.6176644 L16.2796685,60.0695171 C16.3276125,59.6007456 16.5499356,59.1671267 16.902535,58.8546784 L16.902535,58.8546784 C17.304962,58.4976734 17.5350158,57.9851553 17.5343635,57.4470792 L17.5343635,51.8884075 C17.5337426,51.0383488 17.7496506,50.2021505 18.1617111,49.45873 L25.0939013,37.0279262 C25.3859526,36.5092151 25.5402301,35.9242757 25.5420067,35.3289451 L25.5420067,35.1944611 C25.5420067,34.5265239 26.9625008,33.1278904 26.5412817,32.6078856 L26.5412817,32.6078856 C25.9632258,31.8906377 26.2813806,31.5723589 27.1372619,31.2227005 L25.6137036,31.0389057 C26.5413579,30.657314 27.2597804,29.8945094 27.5853672,28.9454382 L27.5853672,28.8871618 C28.2110433,27.0437006 29.8245995,25.712432 31.7527473,25.4488544 L31.8871789,25.4488544 L35.5885293,31.9578797 L50.0892194,40.9907212 L50.0892194,40.9907212 C51.034889,41.462165 51.749404,42.2966297 52.0698452,43.3038459 L52.4059243,44.3438555 C52.6292214,45.0481925 53.0800047,45.6584061 53.6875057,46.078699 L53.6875057,46.078699 C54.3250142,46.5204482 54.7891616,47.1701908 55.0004544,47.9166469 L56.29996,52.5339307 L58.0923815,54.7753306 L62.6630564,55.1384374 C62.9095279,55.1589755 63.1510025,55.0606306 63.3130506,54.8737155 C63.4750988,54.6868003 63.5382686,54.4337516 63.4830893,54.1925666 L63.4830893,54.1925666 C63.2465689,53.1229571 63.3117262,52.0086436 63.6712935,50.9739164 L64.796038,47.7463005 C65.1532005,46.7265044 65.760213,45.8125483 66.5615732,45.0880002 L68.4480969,43.3800535 L68.8962023,41.5869336 L76.4198916,42.586598 L76.4198916,43.0572919 C76.420342,43.9007443 76.7062164,44.719201 77.2309624,45.3793822 L79.6731367,48.4276861 C80.61837,49.611186 81.0319749,51.1331961 80.8158054,52.6325523 L79.700023,60.4415895 C79.5836785,61.2639526 79.5431785,62.0952769 79.5790346,62.9250606 L79.7134662,66.3006088 C79.7574924,67.4276958 79.345571,68.5249649 78.5707974,69.3444299 L76.4781453,71.5499674 C74.7708066,73.3569886 72.8262053,74.923832 70.6975859,76.2075963 L62.9722491,80.8338457 Z" id="Path" fill="#023852"></path>
                <path d="M53.3245403,50.8394324 L58.0789384,54.7349854 L56.2865169,52.4935855 L54.9870113,47.8763017 C54.7757184,47.1298456 54.311571,46.480103 53.6740625,46.0383538 C53.0665616,45.6180609 52.6157783,45.0078473 52.3924811,44.3035103 L52.0564021,43.2635007 C51.8759241,42.6998368 51.569429,42.1847244 51.1601913,41.75728 L53.3245403,50.8394324 Z" id="Path" fill="#023852"></path>
                <path d="M35.8797978,24.1309112 L32.0395347,9.21663636 C31.2035445,10.9292559 30.7596143,12.8067404 30.7400291,14.7125489 L30.7400291,16.5056688 C30.7268077,17.6645697 30.9367576,18.815178 31.3584145,19.8946654 L31.9275084,21.3560582 C32.3441933,22.4211486 32.407041,23.5921433 32.1067505,24.695744 L31.900622,25.4398888 L35.6019725,31.9489141 L50.1026626,40.9817556 L45.1018066,34.6251455 C43.4562728,32.5270055 41.5151801,30.678776 39.3391714,29.1381986 L39.3391714,29.1381986 C37.6310106,27.9302863 36.405485,26.1563932 35.8797978,24.1309112 L35.8797978,24.1309112 Z" id="Path" fill="#023852" style="mix-blend-mode: multiply;"></path>
                <path d="M76.8590349,26.0943775 C76.1490306,25.0434502 75.8981918,23.7482938 76.1644716,22.5081377 L76.3213084,21.7729586 C76.5180894,20.8323577 76.1200224,19.8670245 75.3175524,19.3387983 L74.954587,19.1012099 C74.6634482,18.9120343 74.307871,18.8495809 73.9697282,18.9282297 C73.6315855,19.0068786 73.3400199,19.2198513 73.1621655,19.5181103 L71.6968609,21.9657189 L75.281704,28.0578439 C75.7736069,28.8950332 75.5372005,29.9700225 74.7394964,30.5233837 C73.9745403,31.0481578 73.7175501,32.0592519 74.1390352,32.8858192 L74.7260533,34.0378988 C74.9008969,34.3804919 74.9636029,34.7694203 74.9052954,35.1496331 L73.8298425,42.3221128 L75.4654272,42.6807368 L75.5281619,43.1962587 L76.2899411,43.1962587 L76.7380464,38.8120805 C76.7971486,38.2372278 76.9484563,37.6756575 77.1861518,37.1489618 L79.0861186,32.9037504 C79.6634486,31.6170515 79.5346294,30.1231834 78.7455585,28.9544038 L76.8590349,26.0943775 Z" id="Path" fill="url(#linearGradient-6)" style="mix-blend-mode: multiply;"></path>
                <rect id="Rectangle" fill="#FFFFFF" x="180.057704" y="119.551787" width="60.1984768" height="14.2418549" rx="1.37"></rect>
                <path d="M189.342448,119.551778 L181.151081,119.551778 C180.861512,119.550595 180.583395,119.664836 180.378217,119.869253 C180.173039,120.073669 180.057704,120.351424 180.057704,120.641108 L180.057704,132.690874 C180.057704,132.980558 180.173039,133.258312 180.378217,133.462729 C180.583395,133.667145 180.861512,133.781386 181.151081,133.780203 L189.342448,133.780203 L189.342448,119.551778 Z" id="Path" fill="#0099DA" style="mix-blend-mode: multiply;"></path>
                <path d="M84.8532349,69.7747787 L83.7553767,69.7747787 C83.2844462,69.779896 82.8374011,69.9830037 82.5236678,70.3343855 C82.2099344,70.6857673 82.0584697,71.1529915 82.1063489,71.6216922 L82.2138942,72.6975641 C82.2615439,73.1740741 82.5510875,73.5924667 82.9801544,73.8048157 C83.5232473,74.0777127 84.1790487,73.9809175 84.6202201,73.5627445 L85.6732677,72.5630801 L84.8532349,69.7747787 Z" id="Path" fill="#2BA8E0"></path>
                <path d="M278.578153,45.3255886 L216.981587,43.0348779 C211.837338,42.8466003 206.691594,42.8466003 201.544357,43.0348779 L141.534084,45.3076574 C140.277827,45.3444785 139.199369,46.2127094 138.894744,47.4325045 L133.799786,68.9006327 C131.859489,77.0817423 138.253953,84.8863276 146.897906,84.8863276 L273.218813,84.8863276 C281.858284,84.9042279 288.257229,77.1041563 286.339338,68.9185639 L281.24438,47.4504357 C280.937082,46.2212106 279.844499,45.3504773 278.578153,45.3255886 Z" id="Path" fill="#2BA8E0"></path>
                <path d="M188.858494,81.6093701 L214.785871,55.6674077 L227.270087,43.1828103 L278.663293,45.1283454 C279.919369,45.1616013 280.999013,46.0289534 281.302634,47.2487097 L286.397592,68.7213207 C288.337888,76.8979475 281.943424,84.7069847 273.299472,84.7069847 L185.762086,84.7069847 L188.858494,81.6093701 Z" id="Path" fill="#0099DA"></path>
                <path d="M53.1542603,50.1445984 L51.1736345,41.8514188 C51.1617186,41.8064462 51.1327959,41.7678676 51.0929755,41.7438316 L35.6288588,31.9713281 C35.5986222,31.9540896 35.5749758,31.9272799 35.561643,31.8951205 L32.9671129,26.5157607 C32.7379943,26.0391878 32.3236231,25.6773941 31.8206258,25.5147458 C31.3176284,25.3520974 30.7699733,25.4028119 30.3053669,25.6550632 L26.2455321,27.8516351 C25.5714121,28.2173964 25.1774787,28.9475128 25.2417761,29.711997 L25.5330446,33.2130636 C25.5875573,33.8728276 25.9766914,34.4584488 26.563687,34.7641123 L49.7486594,46.8676718 L49.797951,46.908017 L52.8450675,50.3283932 C52.8958013,50.4138077 53.0061443,50.4419059 53.0915255,50.3911524 C53.1769067,50.3403989 53.204994,50.2300129 53.1542603,50.1445984 L53.1542603,50.1445984 Z" id="Path" fill="#678897"></path>
                <polygon id="Path" fill="#023852" style="mix-blend-mode: multiply;" points="62.7302722 80.5648777 39.6842125 74.7775832 18.7039186 63.6916193 17.5343635 57.4560448 16.2796685 60.0784827 14.9443144 72.8006685 67.3905682 114.181393"></polygon>
                <polygon id="Path" fill="#678897" points="20.5456317 117.12211 20.151299 121.838015 50.9271765 121.838015 69.1740276 126.948407 68.4973885 121.188009 50.5866164 116.67383"></polygon>
            </g>
        </g>
    </g>
</svg>