<?xml version="1.0" encoding="UTF-8"?>
<svg width="440px" height="330px" viewBox="0 0 440 330" version="1.1" xmlns="http://www.w3.org/2000/svg" xmlns:xlink="http://www.w3.org/1999/xlink">
    <title>Graphic elements / Icons / Rich icons / Marketplace / Industries-Information-Technology</title>
    <defs>
        <linearGradient x1="-0.0217457577%" y1="50.2071956%" x2="100.00874%" y2="50.2071956%" id="linearGradient-1">
            <stop stop-color="#FFFFFF" offset="0%"></stop>
            <stop stop-color="#FFFFFF" stop-opacity="0.2" offset="0%"></stop>
            <stop stop-color="#FFFFFF" stop-opacity="0.6" offset="100%"></stop>
        </linearGradient>
        <linearGradient x1="0%" y1="50%" x2="100.142721%" y2="50%" id="linearGradient-2">
            <stop stop-color="#FFFFFF" offset="0%"></stop>
            <stop stop-color="#FFFFFF" stop-opacity="0.2" offset="0%"></stop>
            <stop stop-color="#FFFFFF" stop-opacity="0.6" offset="100%"></stop>
        </linearGradient>
    </defs>
    <g id="Graphic-elements-/-Icons-/-Rich-icons-/-Marketplace-/-Industries-Information-Technology" stroke="none" stroke-width="1" fill="none" fill-rule="evenodd">
        <g id="information-technology" transform="translate(0.000000, 76.000000)">
            <path d="M102,52.18 L97.53,47.7 C97.3405017,47.5066638 97.0807138,47.3984189 96.81,47.4 L91,47.4 C90.7307427,47.404221 90.4711631,47.2996681 90.28,47.11 L85.28,42.11 C85.0929286,41.9191444 84.8372459,41.8111094 84.57,41.8099829 L75.38,41.8099829 C75.1092862,41.8084189 74.8494983,41.9166638 74.66,42.11 L70.08,46.69 C69.8905017,46.8833362 69.6307138,46.9915811 69.36,46.99 L63.27,46.99 L62.5,47.32 L56.3,53.88 L101.3,53.88 C101.700075,53.8743799 102.058288,53.6308257 102.210632,53.2608485 C102.362976,52.8908712 102.28012,52.4657003 102,52.18 Z" id="Path" fill="url(#linearGradient-1)" fill-rule="nonzero"></path>
            <path d="M67,44.83 L58.12,44.83 C57.9029172,44.8279543 57.6950564,44.7419429 57.54,44.59 L47.93,34.98 C47.7755372,34.8271609 47.567296,34.7409921 47.35,34.74 L39.29,34.74 C39.0729172,34.7420457 38.8650564,34.8280571 38.71,34.98 L36,37.75 C35.8449436,37.9019429 35.6370828,37.9879543 35.42,37.99 L22,37.99 C21.7839125,37.987244 21.5754727,38.0699012 21.42,38.22 L13.77,45.87 C13.6211885,46.0251263 13.4149539,46.1119619 13.2,46.11 L3.45,46.11 C3.2329172,46.1120457 3.02505639,46.1980571 2.87,46.35 L0.24,48.98 C0.00533604125,49.2145243 -0.0648872143,49.5673429 0.0620931071,49.8738471 C0.189073428,50.1803514 0.488233784,50.3800001 0.82,50.3800001 L70.82,50.33 C71.1474291,50.3262308 71.4412262,50.1280234 71.5673231,49.8258255 C71.6934201,49.5236276 71.6276399,49.1753807 71.4,48.94 L67.54,45.09 C67.4018076,44.9348784 67.2074423,44.841295 67,44.83 L67,44.83 Z" id="Path" fill="#EFF2F3" fill-rule="nonzero"></path>
            <path d="M395.85,60.78 L391.66,56.59 C391.47964,56.416012 391.240528,56.3160846 390.99,56.31 L385.51,56.31 C385.259472,56.3039154 385.02036,56.203988 384.84,56.03 L380.18,51.37 C379.997125,51.1936849 379.754003,51.0935759 379.5,51.09 L370.9,51.09 C370.645997,51.0935759 370.402875,51.1936849 370.22,51.37 L365.93,55.67 C365.747125,55.8463151 365.504003,55.9464241 365.25,55.95 L359.54,55.95 L358.82,56.26 L353,62.41 L395.19,62.41 C395.554692,62.3690835 395.867674,62.1316977 396.005404,61.7915441 C396.143135,61.4513905 396.083485,61.0631233 395.85,60.78 L395.85,60.78 Z" id="Path" fill="url(#linearGradient-2)" fill-rule="nonzero"></path>
            <path d="M362.89,209.87 C361.607083,209.875506 360.57,210.917072 360.57,212.2 L360.57,216.39 L361.57,216.39 L361.57,212.2 C361.629041,211.528768 362.191177,211.013908 362.865,211.013908 C363.538823,211.013908 364.100959,211.528768 364.16,212.2 L364.16,253.09 L365.16,253.09 L365.16,212.2 C365.160419,210.936248 364.153333,209.902543 362.89,209.87 Z" id="Path" fill="#33617E" fill-rule="nonzero"></path>
            <rect id="Rectangle" fill="#33617E" fill-rule="nonzero" x="359.83" y="215.85" width="2.52" height="2.52" rx="1.19"></rect>
            <path d="M52,209.87 C50.7131765,209.87 49.67,210.913177 49.67,212.2 L49.67,216.39 L50.67,216.39 L50.67,212.2 C50.7290414,211.528768 51.2911767,211.013908 51.965,211.013908 C52.6388233,211.013908 53.2009586,211.528768 53.26,212.2 L53.26,253.09 L54.2600002,253.09 L54.2600002,212.2 C54.2605687,210.940025 53.2594065,209.907853 52,209.87 Z" id="Path" fill="#33617E" fill-rule="nonzero"></path>
            <rect id="Rectangle" fill="#33617E" fill-rule="nonzero" x="48.94" y="215.85" width="2.52" height="2.52" rx="1.19"></rect>
            <path d="M96.54,235.09 L99.8,235.09 C100.525848,235.089362 101.221103,234.797571 101.73,234.28 L102.47,233.55 C102.98628,233.036132 103.277592,232.338422 103.28,231.61 L103.28,231.61 C103.275314,230.882139 103.563623,230.18299 104.08,229.67 L105.55,228.2 C106.06169,227.683885 106.349159,226.986774 106.35,226.26 L106.35,221.79 C106.348693,221.066259 106.061096,220.37243 105.55,219.86 L101.15,215.46 C100.63739,214.941851 99.938867,214.65 99.21,214.65 L92.21,214.65 C91.4815777,214.652408 90.7838677,214.94372 90.27,215.46 L86.27,219.46 C85.7589041,219.97243 85.4713065,220.666259 85.47,221.39 L85.47,227.84 C85.4708414,228.566774 85.7583099,229.263885 86.27,229.78 L90.85,234.35 C91.3647726,234.869839 92.0684601,235.158531 92.8,235.150184 L96.54,235.09 Z" id="Path" fill="#CCD8DF" fill-rule="nonzero"></path>
            <path d="M105.55,219.82 L101.15,215.42 C100.63739,214.901851 99.938867,214.6102 99.21,214.61 L92.21,214.61 C91.4815777,214.612408 90.7838677,214.90372 90.27,215.42 L86.27,219.42 C85.7589041,219.93243 85.4713065,220.626259 85.47,221.35 L85.47,225.6 C85.4708414,224.873226 85.7583099,224.176115 86.27,223.66 L90.27,219.66 C90.7873238,219.150134 91.483654,218.862987 92.21,218.86 L99.21,218.86 C99.936774,218.860841 100.633885,219.14831 101.15,219.66 L105.55,224.06 C106.06169,224.576115 106.349159,225.273226 106.35,226 L106.35,221.75 C106.348693,221.026259 106.061096,220.33243 105.55,219.82 L105.55,219.82 Z" id="Path" fill="#E5EBEF" fill-rule="nonzero"></path>
            <path d="M83.23,224.169999 L78.9,224.169999 C78.3753202,224.172209 77.8725213,224.380512 77.5,224.75 L76.4,225.85 C76.0365871,226.221656 75.8321485,226.720199 75.83,227.24 L75.83,232.4 C75.8321485,232.919801 76.0365871,233.418344 76.4,233.79 L79.49,236.9 C79.8566817,237.258644 80.3471378,237.462702 80.86,237.47 L84.43,237.520117 C84.9601758,237.525735 85.4709331,237.320712 85.85,236.95 L88.42,234.38 C88.7870752,234.009947 88.9951813,233.51121 89,232.99 L89,229.93 C88.9978515,229.410199 88.7934129,228.911656 88.43,228.54 L84.64,224.75 C84.2650171,224.378079 83.758145,224.169579 83.23,224.169999 Z" id="Path" fill="#99B0BE" fill-rule="nonzero"></path>
            <path d="M88.42,228.54 L84.63,224.75 C84.2574787,224.380512 83.7546798,224.172209 83.23,224.17 L78.9,224.17 C78.3753202,224.172209 77.8725213,224.380512 77.5,224.75 L76.4,225.85 C76.0365871,226.221656 75.8321485,226.720199 75.83,227.24 L75.83,230.68 C75.8321485,230.160199 76.0365871,229.661656 76.4,229.29 L77.5,228.19 C77.8725213,227.820512 78.3753202,227.612209 78.9,227.61 L83.23,227.61 C83.7546798,227.612209 84.2574787,227.820512 84.63,228.19 L88.42,231.98 C88.7379672,232.303412 88.9325731,232.728007 88.97,233.18 C88.974397,233.116743 88.974397,233.053257 88.97,232.99 L88.97,229.93 C88.9732978,229.412994 88.7761051,228.914827 88.42,228.54 L88.42,228.54 Z" id="Path" fill="#B2C4CE" fill-rule="nonzero"></path>
            <rect id="Rectangle" fill="#33617E" fill-rule="nonzero" x="96.05" y="223.59" width="1" height="29.48"></rect>
            <path d="M96.12,231.620028 C96.0619295,231.620818 96.006674,231.595032 95.97,231.55 L92.26,227.84 C92.1863752,227.752635 92.1918779,227.623453 92.2726653,227.542665 C92.3534526,227.461878 92.4826353,227.456375 92.57,227.53 L96.28,231.24 C96.3600981,231.327811 96.3600981,231.462189 96.28,231.55 C96.2393583,231.595455 96.1809666,231.621002 96.12,231.620028 L96.12,231.620028 Z" id="Path" fill="#33617E" fill-rule="nonzero"></path>
            <path d="M96.37,226.69 C96.3097684,226.687588 96.25265,226.662599 96.21,226.62 C96.1664773,226.580216 96.1416863,226.523966 96.1416863,226.465 C96.1416863,226.406034 96.1664773,226.349784 96.21,226.31 L97.82,224.7 C97.8735361,224.636473 97.9582919,224.608521 98.0391159,224.627737 C98.11994,224.646954 98.1830465,224.71006 98.2022626,224.790884 C98.2214788,224.871708 98.193527,224.956464 98.13,225.01 L96.52,226.62 C96.4804202,226.661141 96.4269546,226.686091 96.37,226.69 Z" id="Path" fill="#33617E" fill-rule="nonzero"></path>
            <rect id="Rectangle" fill="#33617E" fill-rule="nonzero" x="82.27" y="230.21" width="1" height="22.88"></rect>
            <path d="M82.55,234.28 C82.4644776,234.271281 82.3909565,234.215596 82.3593927,234.135634 C82.327829,234.055673 82.3434921,233.964784 82.4,233.9 L84.23,232.09 C84.2835361,232.026473 84.3682919,231.998521 84.4491159,232.017737 C84.52994,232.036954 84.5930465,232.10006 84.6122626,232.180884 C84.6314788,232.261708 84.603527,232.346464 84.54,232.4 L82.71,234.23 C82.6636494,234.263874 82.6073908,234.281455 82.55,234.28 L82.55,234.28 Z" id="Path" fill="#33617E" fill-rule="nonzero"></path>
            <path d="M82.4,233.19 C82.3442002,233.189747 82.2905815,233.168299 82.25,233.13 L80.44,231.47 C80.3627004,231.385144 80.3636312,231.255119 80.4421378,231.171379 C80.5206443,231.087639 80.6503388,231.07833 80.74,231.15 L82.55,232.81 C82.6351667,232.895785 82.6351667,233.034215 82.55,233.12 C82.5124552,233.163901 82.4577627,233.189424 82.4,233.19 Z" id="Path" fill="#33617E" fill-rule="nonzero"></path>
            <path d="M24.77,231.94 L28.59,231.94 C29.4411649,231.939005 30.2573119,231.601041 30.86,231 L31.73,230.14 C32.3292025,229.536087 32.6668388,228.720732 32.67,227.87 L32.67,227.87 C32.6661289,227.014935 33.0046312,226.193887 33.61,225.59 L35.33,223.87 C35.9310407,223.267312 36.2690046,222.451165 36.27,221.6 L36.27,216.36 C36.2690046,215.508835 35.9310407,214.692688 35.33,214.09 L30.17,208.93 C29.5673119,208.328959 28.7511649,207.990995 27.9,207.99 L19.75,207.99 C18.8988351,207.990995 18.0826881,208.328959 17.48,208.93 L12.83,213.58 C12.2289593,214.182688 11.8909954,214.998835 11.89,215.85 L11.89,223.4 C11.8909954,224.251165 12.2289593,225.067312 12.83,225.67 L18.2,231.09 C18.8094462,231.69315 19.6325538,232.03102 20.49,232.030002 L24.77,231.94 Z" id="Path" fill="#CCD8DF" fill-rule="nonzero"></path>
            <path d="M35.33,214.09 L30.17,208.94 C29.5792224,208.314082 28.7605871,207.95345 27.9,207.94 L19.75,207.94 C18.8894129,207.95345 18.0707776,208.314082 17.48,208.94 L12.83,213.58 C12.2289593,214.182688 11.8909954,214.998835 11.8899968,215.85 L11.8899968,220.85 C11.888798,219.998398 12.2270964,219.181444 12.83,218.58 L17.48,213.93 C18.0826881,213.328959 18.8988351,212.990995 19.75,212.99 L27.9,212.99 C28.7511649,212.990995 29.5673119,213.328959 30.17,213.93 L35.33,219.09 C35.9310407,219.692688 36.2690046,220.508835 36.27,221.36 L36.27,216.36 C36.2690046,215.508835 35.9310407,214.692688 35.33,214.09 L35.33,214.09 Z" id="Path" fill="#E5EBEF" fill-rule="nonzero"></path>
            <path d="M9.18,219.199998 L4.09,219.199998 C3.47990314,219.201317 2.89466087,219.441876 2.46,219.87 L1.17,221.16 C0.740040392,221.593445 0.499156607,222.179476 0.499997793,222.79 L0.499997793,228.84 C0.499156607,229.450524 0.740040392,230.036555 1.17,230.47 L4.79,234.09 C5.2169008,234.518771 5.7949884,234.762932 6.4,234.77 L10.58,234.83 C11.2025632,234.837356 11.8015118,234.592004 12.24,234.15 L15.24,231.15 C15.6727028,230.717568 15.9170991,230.131736 15.92,229.52 L15.92,225.94 C15.917567,225.325232 15.6732993,224.736116 15.24,224.3 L10.8,219.86 C10.3673998,219.436139 9.78564052,219.199126 9.18,219.199998 Z" id="Path" fill="#99B0BE" fill-rule="nonzero"></path>
            <path d="M15.25,224.31 L10.81,219.87 C10.3765546,219.44004 9.79052392,219.199157 9.18,219.199998 L4.09,219.199998 C3.47990314,219.201317 2.89466087,219.441876 2.46,219.87 L1.17,221.16 C0.740040392,221.593445 0.499156607,222.179476 0.499994688,222.79 L0.499994688,226.79 C0.498690803,226.176441 0.7394466,225.587128 1.17,225.15 L2.46,223.87 C2.89055229,223.434501 3.47759948,223.189598 4.09,223.19 L9.18,223.19 C9.79262457,223.188474 10.3800886,223.433551 10.81,223.87 L15.25,228.31 C15.6217768,228.688751 15.8544003,229.182194 15.91,229.71 C15.91,229.64 15.91,229.56 15.91,229.49 L15.91,225.91 C15.9025743,225.311916 15.6664034,224.739381 15.25,224.31 Z" id="Path" fill="#B2C4CE" fill-rule="nonzero"></path>
            <rect id="Rectangle" fill="#33617E" fill-rule="nonzero" x="24.2" y="218.51" width="1" height="34.55"></rect>
            <path d="M24.28,227.92004 C24.2132379,227.920643 24.1487869,227.895579 24.1,227.85 L19.75,223.5 C19.6839059,223.433906 19.6580932,223.337572 19.6822853,223.247285 C19.7064774,223.156999 19.776999,223.086477 19.8672853,223.062285 C19.9575716,223.038093 20.0539059,223.063906 20.12,223.13 L24.47,227.48 C24.5677872,227.58395 24.5677872,227.74605 24.47,227.85 C24.4176165,227.896218 24.3498481,227.921186 24.28,227.92004 Z" id="Path" fill="#33617E" fill-rule="nonzero"></path>
            <path d="M24.57,222.14 C24.5028448,222.142903 24.43755,222.117511 24.39,222.07 C24.2922128,221.96605 24.2922128,221.80395 24.39,221.7 L26.27,219.81 C26.3721727,219.707827 26.5378273,219.707827 26.64,219.81 C26.7421727,219.912173 26.7421727,220.077827 26.64,220.18 L24.75,222.09 C24.6982665,222.128391 24.6341224,222.146209 24.57,222.14 L24.57,222.14 Z" id="Path" fill="#33617E" fill-rule="nonzero"></path>
            <rect id="Rectangle" fill="#33617E" fill-rule="nonzero" x="8.04" y="226.27" width="1" height="26.82"></rect>
            <path d="M8.38,231.09 C8.3115802,231.08909 8.24652353,231.060176 8.2,231.01 C8.1483399,230.96444 8.11874508,230.89888 8.11874508,230.83 C8.11874508,230.76112 8.1483399,230.69556 8.2,230.65 L10.34,228.5 C10.4439502,228.402213 10.6060498,228.402213 10.71,228.5 C10.758888,228.547121 10.7865065,228.6121 10.7865065,228.68 C10.7865065,228.7479 10.758888,228.812879 10.71,228.86 L8.56,231.01 C8.5122152,231.058382 8.44793349,231.086952 8.38,231.09 Z" id="Path" fill="#33617E" fill-rule="nonzero"></path>
            <path d="M8.2,229.77 C8.13606621,229.771314 8.07447157,229.745951 8.03,229.7 L5.91,227.76 C5.82922612,227.701068 5.78940236,227.601039 5.80757051,227.502717 C5.82573867,227.404394 5.8986795,227.325201 5.99517943,227.299027 C6.09167935,227.272852 6.19463946,227.304334 6.26,227.38 L8.37,229.32 C8.41946822,229.36885 8.44731174,229.435477 8.44731174,229.505 C8.44731174,229.574523 8.41946822,229.64115 8.37,229.69 C8.32473805,229.736159 8.26441668,229.764545 8.2,229.77 L8.2,229.77 Z" id="Path" fill="#33617E" fill-rule="nonzero"></path>
            <path d="M432,238.29 L434.67,238.29 C435.266536,238.289475 435.838448,238.052077 436.26,237.63 L436.87,237.03 C437.290235,236.607217 437.527302,236.0361 437.53,235.44 L437.53,235.44 C437.526042,234.842577 437.764129,234.269003 438.19,233.85 L439.39,232.64 C439.784137,232.220396 440.002445,231.665678 440.00002,231.09 L440.00002,227.39 C439.999475,226.793464 439.762077,226.221552 439.34,225.8 L435.73,222.19 C435.308448,221.767923 434.736536,221.530525 434.14,221.53 L428.44,221.53 C427.843464,221.530525 427.271552,221.767923 426.85,222.19 L423.6,225.44 C423.177923,225.861552 422.940525,226.433464 422.94,227.03 L422.94,232.32 C422.942077,232.913289 423.17944,233.481521 423.6,233.9 L427.35,237.66 C427.778926,238.083262 428.357399,238.3204 428.96,238.320001 L432,238.29 Z" id="Path" fill="#CCD8DF" fill-rule="nonzero"></path>
            <path d="M439.34,225.8 L435.73,222.19 C435.308448,221.767923 434.736536,221.530525 434.14,221.53 L428.44,221.53 C427.843464,221.530525 427.271552,221.767923 426.85,222.19 L423.6,225.44 C423.177923,225.861552 422.940525,226.433464 422.94,227.03 L422.94,230.51 C422.943767,229.914116 423.180674,229.343388 423.6,228.92 L426.85,225.68 C427.269003,225.254129 427.842577,225.016042 428.44,225.02 L434.14,225.02 C434.737423,225.016042 435.310997,225.254129 435.73,225.68 L439.34,229.28 C439.759326,229.703388 439.996233,230.274116 440,230.87 L440,227.39 C439.999475,226.793464 439.762077,226.221552 439.34,225.8 L439.34,225.8 Z" id="Path" fill="#E5EBEF" fill-rule="nonzero"></path>
            <path d="M421,229.369997 L417.44,229.369997 C417.012685,229.369173 416.60257,229.538256 416.3,229.84 L415.4,230.75 C415.098256,231.05257 414.929173,231.462685 414.929997,231.89 L414.929997,236.09 C414.929173,236.517315 415.098256,236.92743 415.4,237.23 L417.929997,239.78 C418.225796,240.07964 418.628956,240.248823 419.05,240.25 L421.98,240.25 C422.414879,240.259691 422.834516,240.089666 423.14,239.78 L425.25,237.67 C425.551744,237.36743 425.720827,236.957315 425.720003,236.53 L425.720003,234.09 C425.716548,233.66354 425.548107,233.25498 425.25,232.95 L422.14,229.84 C421.83743,229.538256 421.427315,229.369173 421,229.369997 L421,229.369997 Z" id="Path" fill="#99B0BE" fill-rule="nonzero"></path>
            <path d="M425.29,232.95 L422.18,229.84 C421.87743,229.538256 421.467315,229.369173 421.04,229.369997 L417.48,229.369997 C417.052685,229.369173 416.64257,229.538256 416.34,229.84 L415.44,230.75 C415.138256,231.05257 414.969173,231.462685 414.969997,231.89 L414.969997,234.71 C414.969173,234.282685 415.138256,233.87257 415.44,233.57 L416.34,232.67 C416.64257,232.368256 417.052685,232.199173 417.48,232.2 L421,232.2 C421.427315,232.199173 421.83743,232.368256 422.14,232.67 L425.25,235.78 C425.51824,236.04742 425.681487,236.402305 425.71,236.78 C425.71,236.73 425.71,236.68 425.71,236.62 L425.71,234.09 C425.720086,233.670413 425.569895,233.262752 425.29,232.95 L425.29,232.95 Z" id="Path" fill="#B2C4CE" fill-rule="nonzero"></path>
            <rect id="Rectangle" fill="#33617E" fill-rule="nonzero" x="431.55" y="228.89" width="1" height="24.18"></rect>
            <path d="M431.61,235.48 C431.56224,235.478608 431.516383,235.46097 431.48,235.43 L428.48,232.43 C428.412691,232.360258 428.412691,232.249742 428.48,232.18 C428.553099,232.111419 428.666901,232.111419 428.74,232.18 L431.74,235.18 C431.808581,235.253099 431.808581,235.366901 431.74,235.44 C431.702304,235.467386 431.656571,235.481458 431.61,235.48 L431.61,235.48 Z" id="Path" fill="#33617E" fill-rule="nonzero"></path>
            <path d="M431.81,231.43 C431.768378,231.447223 431.721622,231.447223 431.68,231.43 C431.612691,231.360258 431.612691,231.249742 431.68,231.18 L433,229.85 C433.071797,229.778203 433.188203,229.778203 433.26,229.85 C433.331797,229.921797 433.331797,230.038203 433.26,230.11 L431.94,231.43 C431.898378,231.447223 431.851622,231.447223 431.81,231.43 Z" id="Path" fill="#33617E" fill-rule="nonzero"></path>
            <rect id="Rectangle" fill="#33617E" fill-rule="nonzero" x="420.25" y="234.33" width="1" height="18.77"></rect>
            <path d="M420.48,237.66 C420.43224,237.658608 420.386383,237.64097 420.35,237.61 C420.281419,237.536901 420.281419,237.423099 420.35,237.35 L421.86,235.85 C421.931456,235.801546 422.027252,235.810652 422.0883,235.8717 C422.149348,235.932748 422.158454,236.028544 422.11,236.1 L420.61,237.61 C420.573617,237.64097 420.52776,237.658608 420.48,237.66 Z" id="Path" fill="#33617E" fill-rule="nonzero"></path>
            <path d="M420.36,236.77 C420.31224,236.768608 420.266383,236.75097 420.23,236.72 L418.75,235.36 C418.682691,235.290258 418.682691,235.179742 418.75,235.11 C418.783953,235.074547 418.830912,235.054499 418.88,235.054499 C418.929088,235.054499 418.976047,235.074547 419.01,235.11 L420.49,236.47 C420.54254,236.520272 420.559671,236.59722 420.533421,236.665034 C420.50717,236.732847 420.442695,236.778206 420.37,236.78 L420.36,236.77 Z" id="Path" fill="#33617E" fill-rule="nonzero"></path>
            <path d="M404.31,231.94 L408.13,231.94 C408.980732,231.936839 409.796087,231.599202 410.4,231 L411.26,230.14 C411.859202,229.536087 412.196839,228.720732 412.2,227.87 L412.2,227.87 C412.200532,227.015803 412.538366,226.196375 413.14,225.59 L414.87,223.87 C415.471041,223.267312 415.809005,222.451165 415.81,221.6 L415.81,216.36 C415.809005,215.508835 415.471041,214.692688 414.87,214.09 L409.71,208.93 C409.107312,208.328959 408.291165,207.990995 407.44,207.99 L399.28,207.99 C398.429268,207.993161 397.613913,208.330798 397.01,208.93 L392.37,213.58 C391.768959,214.182688 391.430995,214.998835 391.43,215.85 L391.43,223.4 C391.430995,224.251165 391.768959,225.067312 392.37,225.67 L397.73,231.04 C398.34433,231.641918 399.169938,231.979341 400.03,231.98 L404.31,231.94 Z" id="Path" fill="#CCD8DF" fill-rule="nonzero"></path>
            <path d="M414.87,214.09 L409.71,208.94 C409.119222,208.314082 408.300587,207.95345 407.44,207.94 L399.28,207.94 C398.419661,207.954581 397.601445,208.315028 397.01,208.94 L392.37,213.58 C391.768959,214.182688 391.430995,214.998835 391.429997,215.85 L391.429997,220.85 C391.428798,219.998398 391.767096,219.181444 392.37,218.58 L397.01,213.93 C397.613913,213.330798 398.429268,212.993161 399.28,212.99 L407.44,212.99 C408.291165,212.990995 409.107312,213.328959 409.71,213.93 L414.87,219.09 C415.471041,219.692688 415.809005,220.508835 415.81,221.36 L415.81,216.36 C415.809005,215.508835 415.471041,214.692688 414.87,214.09 Z" id="Path" fill="#E5EBEF" fill-rule="nonzero"></path>
            <path d="M388.72,219.199998 L383.63,219.199998 C383.019476,219.199157 382.433445,219.44004 382,219.87 L380.71,221.16 C380.28004,221.593445 380.039157,222.179476 380.039998,222.79 L380.039998,228.84 C380.039157,229.450524 380.28004,230.036555 380.71,230.47 L384.33,234.11 C384.754436,234.536369 385.328466,234.780332 385.93,234.79 L390.11,234.85 C390.7358,234.858925 391.338437,234.613539 391.78,234.17 L394.78,231.17 C395.212703,230.737568 395.457099,230.151736 395.46,229.54 L395.46,225.96 C395.457567,225.345232 395.213299,224.756116 394.78,224.32 L390.34,219.88 C389.909421,219.450625 389.328044,219.20659 388.72,219.199998 L388.72,219.199998 Z" id="Path" fill="#99B0BE" fill-rule="nonzero"></path>
            <path d="M394.79,224.31 L390.35,219.87 C389.915339,219.441876 389.330097,219.201317 388.72,219.199998 L383.63,219.199998 C383.019476,219.199157 382.433445,219.44004 382,219.87 L380.71,221.16 C380.28004,221.593445 380.039157,222.179476 380.039995,222.79 L380.039995,226.79 C380.038691,226.176441 380.279447,225.587128 380.71,225.15 L382,223.87 C382.429911,223.433551 383.017375,223.188474 383.63,223.19 L388.72,223.19 C389.332401,223.189598 389.919448,223.434501 390.35,223.87 L394.79,228.31 C395.162845,228.686903 395.392691,229.181955 395.44,229.71 C395.444865,229.636747 395.444865,229.563253 395.44,229.49 L395.44,225.91 C395.435266,225.313298 395.202748,224.740947 394.79,224.31 L394.79,224.31 Z" id="Path" fill="#B2C4CE" fill-rule="nonzero"></path>
            <rect id="Rectangle" fill="#33617E" fill-rule="nonzero" x="403.73" y="218.51" width="1" height="34.55"></rect>
            <path d="M403.82,227.92 C403.752845,227.922903 403.68755,227.897511 403.64,227.85 L399.29,223.5 C399.192213,223.39605 399.192213,223.23395 399.29,223.13 C399.337121,223.081112 399.4021,223.053494 399.47,223.053494 C399.5379,223.053494 399.602879,223.081112 399.65,223.13 L404,227.48 C404.097787,227.58395 404.097787,227.74605 404,227.85 C403.95245,227.897511 403.887155,227.922903 403.82,227.92 Z" id="Path" fill="#33617E" fill-rule="nonzero"></path>
            <path d="M404.11,222.14 C404.005386,222.140963 403.910384,222.079131 403.86891,221.983084 C403.827435,221.887038 403.847567,221.775489 403.92,221.7 L405.81,219.81 C405.876094,219.743906 405.972428,219.718093 406.062715,219.742285 C406.153001,219.766477 406.223523,219.836999 406.247715,219.927285 C406.271907,220.017572 406.246094,220.113906 406.18,220.18 L404.29,222.09 C404.238266,222.128391 404.174122,222.146209 404.11,222.14 Z" id="Path" fill="#33617E" fill-rule="nonzero"></path>
            <rect id="Rectangle" fill="#33617E" fill-rule="nonzero" x="387.58" y="226.27" width="1" height="26.82"></rect>
            <path d="M387.91,231.09 C387.842067,231.086952 387.777785,231.058382 387.73,231.01 C387.681112,230.962879 387.653494,230.8979 387.653494,230.83 C387.653494,230.7621 387.681112,230.697121 387.73,230.65 L389.88,228.5 C389.98395,228.402213 390.14605,228.402213 390.25,228.5 C390.298888,228.547121 390.326506,228.6121 390.326506,228.68 C390.326506,228.7479 390.298888,228.812879 390.25,228.86 L388.1,231.01 C388.049741,231.060747 387.981422,231.089513 387.91,231.09 Z" id="Path" fill="#33617E" fill-rule="nonzero"></path>
            <path d="M387.74,229.77 C387.672845,229.772903 387.60755,229.747511 387.56,229.7 L385.45,227.76 C385.400532,227.71115 385.372688,227.644523 385.372688,227.575 C385.372688,227.505477 385.400532,227.43885 385.45,227.39 C385.497121,227.341112 385.5621,227.313494 385.63,227.313494 C385.6979,227.313494 385.762879,227.341112 385.81,227.39 L387.93,229.33 C388.027787,229.43395 388.027787,229.59605 387.93,229.7 C387.878145,229.747097 387.810016,229.772198 387.74,229.77 L387.74,229.77 Z" id="Path" fill="#33617E" fill-rule="nonzero"></path>
            <path d="M144.79,250.48 L144.71,249.68 C144.631988,248.907786 144.09444,248.259566 143.35,248.04 L143.35,248.04 C142.349684,247.74389 141.32044,247.556145 140.28,247.48 L137.28,247.28 L135.74,246.37 C134.418769,245.581905 132.90842,245.167164 131.37,245.169986 L131,245.169986 C129.010985,245.168807 127.038527,245.531441 125.18,246.24 L123.42,246.91 L121.5,247.08 C120.948446,247.125388 120.518445,247.576889 120.5,248.13 L120.43,249.83 C120.405465,250.448025 120.826359,250.995187 121.43,251.13 L123.49,251.55 L143.24,251.55 L144.24,251.26 C144.596805,251.180373 144.83482,250.842824 144.79,250.48 Z" id="Path" fill="#FFE700" fill-rule="nonzero"></path>
            <path d="M138.32,251.55 L138.32,250.81 C138.32,249.620959 139.280972,248.655505 140.47,248.65 L140.47,248.65 C141.659028,248.655505 142.62,249.620959 142.62,250.81 L142.62,251.55 L138.32,251.55 Z" id="Path" fill="#00182B" fill-rule="nonzero"></path>
            <path d="M138.75,250.66 C138.75,251.60993 139.52007,252.38 140.47,252.38 C141.41993,252.38 142.19,251.60993 142.19,250.66 C142.19,249.71007 141.41993,248.94 140.47,248.94 C139.52007,248.94 138.75,249.71007 138.75,250.66 Z" id="Path" fill="#003A5D" fill-rule="nonzero"></path>
            <circle id="Oval" fill="#96A6AE" fill-rule="nonzero" cx="140.47" cy="250.66" r="1.11"></circle>
            <path d="M123.52,251.55 L123.26,251.49 L123.26,250.81 C123.26,249.620959 124.220972,248.655505 125.41,248.65 L125.41,248.65 C126.602935,248.65 127.57,249.617065 127.57,250.81 L127.57,251.55 L123.52,251.55 Z" id="Path" fill="#00182B" fill-rule="nonzero"></path>
            <path d="M123.69,250.66 C123.69,251.60993 124.46007,252.38 125.41,252.38 C126.35993,252.38 127.13,251.60993 127.13,250.66 C127.13,249.71007 126.35993,248.94 125.41,248.94 C124.46007,248.94 123.69,249.71007 123.69,250.66 L123.69,250.66 Z" id="Path" fill="#003A5D" fill-rule="nonzero"></path>
            <path d="M136.42,247.38 C136.465898,247.381923 136.508157,247.355121 136.525984,247.312783 C136.54381,247.270445 136.53345,247.221487 136.5,247.19 C135.496794,246.372093 134.297082,245.830844 133.02,245.62 C131.244093,245.315278 129.422362,245.414396 127.69,245.91 C126.899853,246.163442 126.128039,246.470831 125.38,246.83 C125.322858,246.862252 125.29331,246.9279 125.307058,246.992059 C125.320807,247.056218 125.37466,247.103995 125.44,247.11 L136.42,247.38 Z" id="Path" fill="#003A5D" fill-rule="nonzero"></path>
            <circle id="Oval" fill="#96A6AE" fill-rule="nonzero" cx="125.41" cy="250.66" r="1.11"></circle>
            <rect id="Rectangle" fill="#0099DA" fill-rule="nonzero" x="241.08" y="219.9" width="31.96" height="31.58"></rect>
            <rect id="Rectangle" fill="#0099DA" fill-rule="nonzero" x="273.04" y="219.9" width="31.96" height="31.58"></rect>
            <polygon id="Path" points="273.04 160.77 273.04 160.78 273.04 160.78 273.04 160.77"></polygon>
            <polygon id="Path" points="262.39 190.35 262.39 190.35 273.04 219.9 273.04 219.9"></polygon>
            <rect id="Rectangle" fill="#5DA9B3" fill-rule="nonzero" transform="translate(273.076817, 160.809401) rotate(-70.120000) translate(-273.076817, -160.809401) " x="273.026817" y="160.759401" width="1" height="1"></rect>
            <polygon id="Path" fill="#009BDB" fill-rule="nonzero" points="262.39 190.35 273.04 219.9 273.04 219.9 273.04 190.35"></polygon>
            <polygon id="Path" fill="#009BDB" fill-rule="nonzero" points="273.04 219.9 283.69 190.35 273.04 190.35"></polygon>
            <polygon id="Path" fill="#5DA9B3" fill-rule="nonzero" points="273.04 160.78 273.05 160.78 273.04 160.77"></polygon>
            <polygon id="Path" fill="#5DA9B3" fill-rule="nonzero" points="273.04 160.77 273.04 160.77 273.05 160.78 273.05 160.78"></polygon>
            <polygon id="Path" fill="#009BDB" fill-rule="nonzero" points="262.39 131.21 273.04 160.77 273.04 131.21"></polygon>
            <polygon id="Path" fill="#5DA9B3" fill-rule="nonzero" points="262.39 131.21 273.04 160.77 262.39 131.21"></polygon>
            <polygon id="Path" fill="#009BDB" fill-rule="nonzero" points="273.04 131.21 273.04 160.77 283.69 131.21"></polygon>
            <polygon id="Path" fill="#003A5D" fill-rule="nonzero" points="262.39 131.2 262.39 131.21 262.39 131.21 262.39 131.2"></polygon>
            <rect id="Rectangle" fill="#003A5D" fill-rule="nonzero" transform="translate(262.425747, 131.244070) rotate(-70.270000) translate(-262.425747, -131.244070) " x="262.375747" y="131.19407" width="1" height="1"></rect>
            <polygon id="Path" fill="#003A5D" fill-rule="nonzero" points="262.39 131.2 262.39 131.21 262.39 131.21"></polygon>
            <polygon id="Path" fill="#99CDD4" fill-rule="nonzero" points="262.63 130.52 262.39 131.2 262.39 131.21 273.04 131.21 273.04 130.52"></polygon>
            <polygon id="Path" fill="#003A5D" fill-rule="nonzero" points="262.39 131.2 262.39 131.2 262.39 131.21 262.39 131.21"></polygon>
            <polygon id="Path" fill="#99CDD4" fill-rule="nonzero" points="273.04 130.52 273.04 131.21 283.69 131.21 283.7 131.2 283.45 130.52"></polygon>
            <polygon id="Path" fill="#003A5D" fill-rule="nonzero" points="262.39 190.35 262.39 190.35 262.39 190.33"></polygon>
            <polygon id="Path" fill="#003A5D" fill-rule="nonzero" points="262.39 190.33 273.04 160.78 273.04 160.78"></polygon>
            <polygon id="Path" fill="#009BDB" fill-rule="nonzero" points="273.04 160.78 273.04 160.77 262.39 131.21 262.39 131.21 262.39 131.2 262.63 130.52 240.83 130.52 241.08 131.2 241.08 131.2 241.08 131.21 230.43 160.77 230.43 160.78 241.08 190.33 241.08 190.33 241.08 190.33 241.07 190.35 230.43 219.9 273.04 219.9 262.39 190.35 262.38 190.35 262.39 190.33"></polygon>
            <polygon id="Path" fill="#003A5D" fill-rule="nonzero" points="262.38 190.35 262.39 190.35 262.39 190.33"></polygon>
            <polygon id="Path" fill="#003A5D" fill-rule="nonzero" points="262.39 190.35 262.39 190.35 262.39 190.33"></polygon>
            <polygon id="Path" fill="#009BDB" fill-rule="nonzero" points="273.04 160.78 273.04 160.78 262.39 190.33 262.39 190.35 273.04 190.35"></polygon>
            <polygon id="Path" fill="#009BDB" fill-rule="nonzero" points="283.7 190.33 283.7 190.33 273.05 160.78 273.04 160.78 273.04 190.35 283.69 190.35 283.7 190.33"></polygon>
            <polygon id="Path" fill="#009BDB" fill-rule="nonzero" points="315.66 160.77 305.01 131.21 305 131.2 305.25 130.52 283.45 130.52 283.7 131.2 283.69 131.21 273.04 160.77 273.04 160.77 273.04 160.77 273.05 160.78 273.05 160.78 283.7 190.33 283.7 190.33 283.69 190.35 273.04 219.9 273.04 219.9 315.66 219.9 305.01 190.35 305 190.33 315.65 160.78"></polygon>
            <g id="Group" style="mix-blend-mode: multiply;" transform="translate(230.000000, 128.000000)" fill-rule="nonzero">
                <polygon id="Path" fill="#E0E5E7" points="75.28 2.43 75.93 0.64 10.16 0.64 10.8 2.43"></polygon>
                <polygon id="Path" fill="#E0E5E7" points="75 3.2 75.25 2.52 10.83 2.52 11.08 3.2 11.08 3.2 11.08 3.21 10.77 4.05 75.31 4.05 75.01 3.21"></polygon>
                <polygon id="Path" fill="#009BDB" opacity="0.3" style="mix-blend-mode: multiply;" points="9.62 7.25 8.39 10.66 77.69 10.66 76.47 7.25"></polygon>
                <polygon id="Path" fill="#009BDB" opacity="0.3" style="mix-blend-mode: multiply;" points="7.24 13.87 6.01 17.28 80.08 17.28 78.85 13.87"></polygon>
                <polygon id="Path" fill="#009BDB" opacity="0.3" style="mix-blend-mode: multiply;" points="4.85 20.48 3.62 23.89 82.46 23.89 81.23 20.48"></polygon>
                <polygon id="Path" fill="#009BDB" opacity="0.3" style="mix-blend-mode: multiply;" points="2.47 27.09 1.24 30.5 84.84 30.5 83.62 27.09"></polygon>
                <polygon id="Path" fill="#009BDB" opacity="0.3" style="mix-blend-mode: multiply;" points="85.32 33.71 0.76 33.71 1.99 37.12 84.09 37.12"></polygon>
                <polygon id="Path" fill="#009BDB" opacity="0.3" style="mix-blend-mode: multiply;" points="82.94 40.32 3.15 40.32 4.38 43.73 81.71 43.73"></polygon>
                <polygon id="Path" fill="#009BDB" opacity="0.3" style="mix-blend-mode: multiply;" points="80.56 46.93 5.53 46.93 6.76 50.34 79.33 50.34"></polygon>
                <polygon id="Path" fill="#009BDB" opacity="0.3" style="mix-blend-mode: multiply;" points="78.17 53.54 7.91 53.54 9.14 56.95 76.94 56.95"></polygon>
                <polygon id="Path" fill="#009BDB" opacity="0.3" style="mix-blend-mode: multiply;" points="75 62.33 75.79 60.16 10.29 60.16 11.08 62.33 11.08 62.33 11.08 62.33 11.07 62.35 10.63 63.57 75.45 63.57 75.01 62.35"></polygon>
                <polygon id="Path" fill="#009BDB" opacity="0.3" style="mix-blend-mode: multiply;" points="9.48 66.77 8.25 70.18 77.83 70.18 76.6 66.77"></polygon>
                <polygon id="Path" fill="#009BDB" opacity="0.3" style="mix-blend-mode: multiply;" points="7.1 73.38 5.87 76.79 80.21 76.79 78.99 73.38"></polygon>
                <polygon id="Path" fill="#009BDB" opacity="0.3" style="mix-blend-mode: multiply;" points="4.72 80 3.49 83.41 82.6 83.41 81.37 80"></polygon>
                <polygon id="Path" fill="#009BDB" opacity="0.3" style="mix-blend-mode: multiply;" points="2.33 86.61 1.1 90.02 84.98 90.02 83.75 86.61"></polygon>
            </g>
            <path d="M263.84,192.34 L252.46,160.77 L252.54,160.53 L263.84,129.19 L275.22,160.77 L275.13,161 L263.84,192.34 Z M253.91,160.77 L263.84,188.32 L273.77,160.77 L263.84,133.21 L253.91,160.77 Z" id="Shape" fill="#003A5D" fill-rule="nonzero"></path>
            <path d="M306.45,192.34 L295.08,160.77 L295.16,160.53 L306.45,129.19 L317.83,160.77 L317.75,161 L306.45,192.34 Z M296.52,160.77 L306.45,188.32 L316.38,160.77 L306.45,133.21 L296.52,160.77 Z" id="Shape" fill="#003A5D" fill-rule="nonzero"></path>
            <path d="M242.53,192.34 L231.15,160.77 L231.23,160.53 L242.53,129.19 L253.91,160.77 L253.82,161 L242.53,192.34 Z M232.6,160.77 L242.53,188.32 L252.46,160.77 L242.53,133.21 L232.6,160.77 Z" id="Shape" fill="#003A5D" fill-rule="nonzero"></path>
            <path d="M263.84,251.48 L252.46,219.9 L252.54,219.67 L263.84,188.32 L275.22,219.9 L275.13,220.13 L263.84,251.48 Z M253.91,219.9 L263.84,247.46 L273.77,219.9 L263.84,192.34 L253.91,219.9 Z" id="Shape" fill="#003A5D" fill-rule="nonzero"></path>
            <path d="M242.53,251.48 L231.15,219.9 L231.23,219.67 L242.53,188.32 L253.91,219.9 L253.82,220.13 L242.53,251.48 Z M232.6,219.9 L242.53,247.46 L252.46,219.9 L242.53,192.34 L232.6,219.9 Z" id="Shape" fill="#003A5D" fill-rule="nonzero"></path>
            <rect id="Rectangle" fill="#003A5D" fill-rule="nonzero" x="262.38" y="131.88" width="42.63" height="1.36"></rect>
            <rect id="Rectangle" fill="#003A5D" fill-rule="nonzero" x="273.04" y="161.45" width="42.62" height="1.36"></rect>
            <rect id="Rectangle" fill="#003A5D" fill-rule="nonzero" x="262.38" y="191.02" width="42.63" height="1.36"></rect>
            <rect id="Rectangle" fill="#003A5D" fill-rule="nonzero" x="241.08" y="131.88" width="21.31" height="1.36"></rect>
            <rect id="Rectangle" fill="#003A5D" fill-rule="nonzero" x="230.43" y="161.45" width="42.62" height="1.36"></rect>
            <rect id="Rectangle" fill="#003A5D" fill-rule="nonzero" x="241.08" y="191.02" width="21.31" height="1.36"></rect>
            <path d="M262.39,192.34 L251,160.77 L251.08,160.53 L262.38,129.19 L273.76,160.77 L273.67,161 L262.39,192.34 Z M252.46,160.77 L262.39,188.32 L272.32,160.77 L262.39,133.21 L252.46,160.77 Z" id="Shape" fill="#FFFFFF" fill-rule="nonzero"></path>
            <path d="M241.08,192.34 L229.7,160.77 L229.78,160.53 L241.08,129.19 L252.46,160.77 L252.37,161 L241.08,192.34 Z M231.15,160.77 L241.08,188.32 L251,160.77 L241.07,133.21 L231.15,160.77 Z" id="Shape" fill="#FFFFFF" fill-rule="nonzero"></path>
            <path d="M262.39,251.48 L251,219.9 L251.08,219.67 L262.38,188.32 L273.76,219.9 L273.67,220.13 L262.39,251.48 Z M252.46,219.9 L262.39,247.46 L272.32,219.9 L262.39,192.34 L252.46,219.9 Z" id="Shape" fill="#FFFFFF" fill-rule="nonzero"></path>
            <path d="M285.15,192.34 L273.77,160.77 L273.85,160.53 L285.15,129.19 L296.52,160.77 L296.44,161 L285.15,192.34 Z M275.22,160.77 L285.15,188.32 L295.08,160.77 L285.15,133.21 L275.22,160.77 Z" id="Shape" fill="#003A5D" fill-rule="nonzero"></path>
            <path d="M285.15,251.48 L273.77,219.9 L273.85,219.67 L285.15,188.32 L296.52,219.9 L296.44,220.13 L285.15,251.48 Z M275.22,219.9 L285.15,247.46 L295.08,219.9 L285.15,192.34 L275.22,219.9 Z" id="Shape" fill="#003A5D" fill-rule="nonzero"></path>
            <path d="M306.45,251.48 L295.08,219.9 L295.16,219.67 L306.45,188.32 L317.83,219.9 L317.75,220.13 L306.45,251.48 Z M296.52,219.9 L306.45,247.46 L316.38,219.9 L306.45,192.34 L296.52,219.9 Z" id="Shape" fill="#003A5D" fill-rule="nonzero"></path>
            <path d="M241.08,251.48 L229.7,219.9 L229.78,219.67 L241.08,188.32 L252.46,219.9 L252.37,220.13 L241.08,251.48 Z M231.15,219.9 L241.08,247.46 L251,219.9 L241.07,192.34 L231.15,219.9 Z" id="Shape" fill="#FFFFFF" fill-rule="nonzero"></path>
            <rect id="Rectangle" fill="#FFFFFF" fill-rule="nonzero" x="241.08" y="130.52" width="21.31" height="1.36"></rect>
            <rect id="Rectangle" fill="#FFFFFF" fill-rule="nonzero" x="230.43" y="160.09" width="42.62" height="1.36"></rect>
            <rect id="Rectangle" fill="#FFFFFF" fill-rule="nonzero" x="241.08" y="189.65" width="21.31" height="1.36"></rect>
            <rect id="Rectangle" fill="#FFFFFF" fill-rule="nonzero" x="229.7" y="249.26" width="85.96" height="2.22"></rect>
            <rect id="Rectangle" fill="#009BDB" fill-rule="nonzero" x="161.48" y="206.69" width="43.93" height="8.13"></rect>
            <rect id="Rectangle" fill="#009BDB" fill-rule="nonzero" x="161.48" y="180.05" width="43.93" height="8.13"></rect>
            <rect id="Rectangle" fill="#0099DA" fill-rule="nonzero" x="161.48" y="153.41" width="43.93" height="8.13"></rect>
            <rect id="Rectangle" fill="#009BDB" fill-rule="nonzero" x="161.48" y="126.76" width="43.93" height="8.13"></rect>
            <rect id="Rectangle" fill="#009BDB" fill-rule="nonzero" x="161.48" y="100.12" width="43.93" height="8.13"></rect>
            <rect id="Rectangle" fill="#009BDB" fill-rule="nonzero" x="161.48" y="73.47" width="43.93" height="8.13"></rect>
            <rect id="Rectangle" fill="#009BDB" fill-rule="nonzero" x="161.48" y="46.83" width="43.93" height="8.13"></rect>
            <rect id="Rectangle" fill="#B4C0C5" fill-rule="nonzero" x="157.25" y="232.94" width="26.19" height="20.15"></rect>
            <rect id="Rectangle" fill="#C7D0D4" fill-rule="nonzero" x="183.45" y="232.9" width="26.19" height="20.15"></rect>
            <rect id="Rectangle" fill="#B4C0C5" fill-rule="nonzero" x="159.37" y="214.82" width="24.08" height="2.5"></rect>
            <rect id="Rectangle" fill="#DCE2E4" fill-rule="nonzero" x="183.45" y="214.82" width="24.08" height="2.5"></rect>
            <rect id="Rectangle" fill="#B4C0C5" fill-rule="nonzero" x="159.37" y="204.19" width="24.08" height="2.5"></rect>
            <rect id="Rectangle" fill="#DCE2E4" fill-rule="nonzero" x="183.45" y="204.19" width="24.08" height="2.5"></rect>
            <rect id="Rectangle" fill="#009BDB" fill-rule="nonzero" opacity="0.3" style="mix-blend-mode: multiply;" x="161.48" y="206.69" width="21.97" height="8.13"></rect>
            <rect id="Rectangle" fill="#B1BDC3" fill-rule="nonzero" x="170.35" y="224.12" width="13.1" height="6.79"></rect>
            <rect id="Rectangle" fill="#E0E5E7" fill-rule="nonzero" x="183.45" y="224.12" width="13.1" height="6.79"></rect>
            <polygon id="Path" fill="#C7D0D4" fill-rule="nonzero" points="183.44 230.91 170.35 230.91 157.25 232.9 183.44 232.9"></polygon>
            <polygon id="Path" fill="#F0F5FA" fill-rule="nonzero" points="196.54 230.91 183.44 230.91 183.44 232.9 209.64 232.9"></polygon>
            <polygon id="Path" fill="#C5CED2" fill-rule="nonzero" points="183.44 224.12 196.54 224.12 205.41 217.32 183.44 217.32"></polygon>
            <polygon id="Path" fill="#96A6AE" fill-rule="nonzero" points="170.35 224.12 183.44 224.12 183.44 217.32 161.48 217.32"></polygon>
            <rect id="Rectangle" fill="#B4C0C5" fill-rule="nonzero" x="159.37" y="188.18" width="24.08" height="2.5"></rect>
            <rect id="Rectangle" fill="#DCE2E4" fill-rule="nonzero" x="183.45" y="188.18" width="24.08" height="2.5"></rect>
            <rect id="Rectangle" fill="#B4C0C5" fill-rule="nonzero" x="159.37" y="177.55" width="24.08" height="2.5"></rect>
            <rect id="Rectangle" fill="#DCE2E4" fill-rule="nonzero" x="183.45" y="177.55" width="24.08" height="2.5"></rect>
            <rect id="Rectangle" fill="#009BDB" fill-rule="nonzero" opacity="0.3" style="mix-blend-mode: multiply;" x="161.48" y="180.05" width="21.97" height="8.13"></rect>
            <rect id="Rectangle" fill="#B1BDC3" fill-rule="nonzero" x="170.35" y="197.47" width="13.1" height="6.79"></rect>
            <rect id="Rectangle" fill="#EEF1F2" fill-rule="nonzero" x="183.45" y="197.47" width="13.1" height="6.79"></rect>
            <polygon id="Path" fill="#C5CED2" fill-rule="nonzero" points="183.44 197.47 196.54 197.47 205.41 190.68 183.44 190.68"></polygon>
            <polygon id="Path" fill="#96A6AE" fill-rule="nonzero" points="170.35 197.47 183.44 197.47 183.44 190.68 161.48 190.68"></polygon>
            <rect id="Rectangle" fill="#B4C0C5" fill-rule="nonzero" x="159.37" y="161.53" width="24.08" height="2.5"></rect>
            <rect id="Rectangle" fill="#DCE2E4" fill-rule="nonzero" x="183.45" y="161.53" width="24.08" height="2.5"></rect>
            <rect id="Rectangle" fill="#B4C0C5" fill-rule="nonzero" x="159.37" y="150.9" width="24.08" height="2.5"></rect>
            <rect id="Rectangle" fill="#DCE2E4" fill-rule="nonzero" x="183.45" y="150.9" width="24.08" height="2.5"></rect>
            <rect id="Rectangle" fill="#009BDB" fill-rule="nonzero" opacity="0.3" style="mix-blend-mode: multiply;" x="161.48" y="153.41" width="21.97" height="8.13"></rect>
            <rect id="Rectangle" fill="#B1BDC3" fill-rule="nonzero" x="170.35" y="170.83" width="13.1" height="6.79"></rect>
            <rect id="Rectangle" fill="#EEF1F2" fill-rule="nonzero" x="183.45" y="170.83" width="13.1" height="6.79"></rect>
            <polygon id="Path" fill="#C5CED2" fill-rule="nonzero" points="183.44 170.83 196.54 170.83 205.41 164.04 183.44 164.04"></polygon>
            <polygon id="Path" fill="#96A6AE" fill-rule="nonzero" points="170.35 170.83 183.44 170.83 183.44 164.04 161.48 164.04"></polygon>
            <rect id="Rectangle" fill="#B4C0C5" fill-rule="nonzero" x="159.37" y="134.89" width="24.08" height="2.5"></rect>
            <rect id="Rectangle" fill="#DCE2E4" fill-rule="nonzero" x="183.45" y="134.89" width="24.08" height="2.5"></rect>
            <rect id="Rectangle" fill="#B4C0C5" fill-rule="nonzero" x="159.37" y="124.26" width="24.08" height="2.5"></rect>
            <rect id="Rectangle" fill="#DCE2E4" fill-rule="nonzero" x="183.45" y="124.26" width="24.08" height="2.5"></rect>
            <rect id="Rectangle" fill="#009BDB" fill-rule="nonzero" opacity="0.3" style="mix-blend-mode: multiply;" x="161.48" y="126.76" width="21.97" height="8.13"></rect>
            <rect id="Rectangle" fill="#B1BDC3" fill-rule="nonzero" x="170.35" y="144.19" width="13.1" height="6.79"></rect>
            <rect id="Rectangle" fill="#EEF1F2" fill-rule="nonzero" x="183.45" y="144.19" width="13.1" height="6.79"></rect>
            <polygon id="Path" fill="#C5CED2" fill-rule="nonzero" points="183.44 144.19 196.54 144.19 205.41 137.39 183.44 137.39"></polygon>
            <polygon id="Path" fill="#96A6AE" fill-rule="nonzero" points="170.35 144.19 183.44 144.19 183.44 137.39 161.48 137.39"></polygon>
            <rect id="Rectangle" fill="#B4C0C5" fill-rule="nonzero" x="159.37" y="108.25" width="24.08" height="2.5"></rect>
            <rect id="Rectangle" fill="#DCE2E4" fill-rule="nonzero" x="183.45" y="108.25" width="24.08" height="2.5"></rect>
            <rect id="Rectangle" fill="#B4C0C5" fill-rule="nonzero" x="159.37" y="97.61" width="24.08" height="2.5"></rect>
            <rect id="Rectangle" fill="#DCE2E4" fill-rule="nonzero" x="183.45" y="97.61" width="24.08" height="2.5"></rect>
            <rect id="Rectangle" fill="#009BDB" fill-rule="nonzero" opacity="0.3" style="mix-blend-mode: multiply;" x="161.48" y="100.12" width="21.97" height="8.13"></rect>
            <rect id="Rectangle" fill="#B1BDC3" fill-rule="nonzero" x="170.35" y="117.54" width="13.1" height="6.79"></rect>
            <rect id="Rectangle" fill="#EEF1F2" fill-rule="nonzero" x="183.45" y="117.54" width="13.1" height="6.79"></rect>
            <polygon id="Path" fill="#C5CED2" fill-rule="nonzero" points="183.44 117.54 196.54 117.54 205.41 110.75 183.44 110.75"></polygon>
            <polygon id="Path" fill="#96A6AE" fill-rule="nonzero" points="170.35 117.54 183.44 117.54 183.44 110.75 161.48 110.75"></polygon>
            <rect id="Rectangle" fill="#B4C0C5" fill-rule="nonzero" x="159.37" y="81.6" width="24.08" height="2.5"></rect>
            <rect id="Rectangle" fill="#DCE2E4" fill-rule="nonzero" x="183.45" y="81.6" width="24.08" height="2.5"></rect>
            <rect id="Rectangle" fill="#B4C0C5" fill-rule="nonzero" x="159.37" y="70.97" width="24.08" height="2.5"></rect>
            <rect id="Rectangle" fill="#DCE2E4" fill-rule="nonzero" x="183.45" y="70.97" width="24.08" height="2.5"></rect>
            <rect id="Rectangle" fill="#009BDB" fill-rule="nonzero" opacity="0.3" style="mix-blend-mode: multiply;" x="161.48" y="73.47" width="21.97" height="8.13"></rect>
            <rect id="Rectangle" fill="#B1BDC3" fill-rule="nonzero" x="170.35" y="90.9" width="13.1" height="6.79"></rect>
            <rect id="Rectangle" fill="#EEF1F2" fill-rule="nonzero" x="183.45" y="90.9" width="13.1" height="6.79"></rect>
            <polygon id="Path" fill="#C5CED2" fill-rule="nonzero" points="183.44 90.9 196.54 90.9 205.41 84.11 183.44 84.11"></polygon>
            <polygon id="Path" fill="#96A6AE" fill-rule="nonzero" points="170.35 90.9 183.44 90.9 183.44 84.11 161.48 84.11"></polygon>
            <rect id="Rectangle" fill="#B4C0C5" fill-rule="nonzero" x="159.37" y="54.96" width="24.08" height="2.5"></rect>
            <rect id="Rectangle" fill="#DCE2E4" fill-rule="nonzero" x="183.45" y="54.96" width="24.08" height="2.5"></rect>
            <rect id="Rectangle" fill="#B4C0C5" fill-rule="nonzero" x="159.37" y="44.33" width="24.08" height="2.5"></rect>
            <rect id="Rectangle" fill="#DCE2E4" fill-rule="nonzero" x="183.45" y="44.33" width="24.08" height="2.5"></rect>
            <rect id="Rectangle" fill="#009BDB" fill-rule="nonzero" opacity="0.3" style="mix-blend-mode: multiply;" x="161.48" y="46.83" width="21.97" height="8.13"></rect>
            <rect id="Rectangle" fill="#009BDB" fill-rule="nonzero" opacity="0.3" style="mix-blend-mode: multiply;" x="161.48" y="46.83" width="43.93" height="1.51"></rect>
            <rect id="Rectangle" fill="#009BDB" fill-rule="nonzero" opacity="0.3" style="mix-blend-mode: multiply;" x="161.48" y="73.53" width="43.93" height="1.51"></rect>
            <rect id="Rectangle" fill="#009BDB" fill-rule="nonzero" opacity="0.3" style="mix-blend-mode: multiply;" x="161.48" y="100.05" width="43.93" height="1.51"></rect>
            <rect id="Rectangle" fill="#009BDB" fill-rule="nonzero" opacity="0.3" style="mix-blend-mode: multiply;" x="161.48" y="126.74" width="43.93" height="1.51"></rect>
            <rect id="Rectangle" fill="#009BDB" fill-rule="nonzero" opacity="0.3" style="mix-blend-mode: multiply;" x="161.48" y="153.33" width="43.93" height="1.51"></rect>
            <rect id="Rectangle" fill="#009BDB" fill-rule="nonzero" opacity="0.3" style="mix-blend-mode: multiply;" x="161.48" y="206.65" width="43.93" height="1.51"></rect>
            <rect id="Rectangle" fill="#009BDB" fill-rule="nonzero" opacity="0.3" style="mix-blend-mode: multiply;" x="161.48" y="180.03" width="43.93" height="1.51"></rect>
            <rect id="Rectangle" fill="#B1BDC3" fill-rule="nonzero" x="170.35" y="64.25" width="13.1" height="6.79"></rect>
            <rect id="Rectangle" fill="#EEF1F2" fill-rule="nonzero" x="183.45" y="64.25" width="13.1" height="6.79"></rect>
            <polygon id="Path" fill="#C5CED2" fill-rule="nonzero" points="183.44 64.25 196.54 64.25 205.41 57.46 183.44 57.46"></polygon>
            <polygon id="Path" fill="#96A6AE" fill-rule="nonzero" points="170.35 64.25 183.44 64.25 183.44 57.46 161.48 57.46"></polygon>
            <rect id="Rectangle" fill="#96A6AE" fill-rule="nonzero" x="176.04" y="41.18" width="7.41" height="3.15"></rect>
            <rect id="Rectangle" fill="#B4C0C5" fill-rule="nonzero" x="183.45" y="41.18" width="7.41" height="3.15"></rect>
            <rect id="Rectangle" fill="#B4C0C5" fill-rule="nonzero" x="173.08" y="32" width="10.36" height="9.17"></rect>
            <rect id="Rectangle" fill="#C7D0D4" fill-rule="nonzero" x="183.45" y="32" width="10.36" height="9.17"></rect>
            <polygon id="Path" fill="#C7D0D4" fill-rule="nonzero" points="180.85 29.01 183.44 29.01 183.44 32 178.26 32"></polygon>
            <polygon id="Path" fill="#D7DDE0" fill-rule="nonzero" points="186.03 29.01 183.44 29.01 183.44 32 188.63 32"></polygon>
            <rect id="Rectangle" fill="#FFE600" fill-rule="nonzero" x="181.59" y="20.31" width="3.7" height="8.7"></rect>
            <rect id="Rectangle" fill="#FFE600" fill-rule="nonzero" x="181.59" y="2.91" width="3.7" height="8.7"></rect>
            <rect id="Rectangle" fill="#33617E" fill-rule="nonzero" x="181.59" y="11.61" width="3.7" height="8.7"></rect>
            <rect id="Rectangle" fill="#194D6D" fill-rule="nonzero" x="181.59" y="1.06" width="3.7" height="1.85"></rect>
            <rect id="Rectangle" fill="#3D6984" fill-rule="nonzero" x="181.17" y="0" width="4.55" height="1.42"></rect>
            <polygon id="Path" fill="#0099DA" fill-rule="nonzero" points="205.41 48.34 198.28 48.34 191.65 54.96 205.41 54.96"></polygon>
            <polygon id="Path" fill="#0099DA" fill-rule="nonzero" points="205.41 75.03 198.28 75.03 191.65 81.66 205.41 81.66"></polygon>
            <polygon id="Path" fill="#0099DA" fill-rule="nonzero" points="205.41 101.55 198.28 101.55 191.65 108.18 205.41 108.18"></polygon>
            <polygon id="Path" fill="#0099DA" fill-rule="nonzero" points="205.41 128.25 198.28 128.25 191.65 134.87 205.41 134.87"></polygon>
            <polygon id="Path" fill="#36B0E2" fill-rule="nonzero" points="205.41 154.84 198.28 154.84 191.65 161.46 205.41 161.46"></polygon>
            <polygon id="Path" fill="#0099DA" fill-rule="nonzero" points="205.41 181.53 198.28 181.53 191.65 188.16 205.41 188.16"></polygon>
            <polygon id="Path" fill="#0099DA" fill-rule="nonzero" points="205.41 208.05 198.28 208.05 191.65 214.68 205.41 214.68"></polygon>
            <path d="M283.7,192.34 L272.32,160.77 L272.4,160.53 L283.7,129.19 L295.08,160.77 L294.99,161 L283.7,192.34 Z M273.77,160.77 L283.7,188.32 L293.63,160.77 L283.7,133.21 L273.77,160.77 Z" id="Shape" fill="#FFFFFF" fill-rule="nonzero"></path>
            <path d="M283.7,251.48 L272.32,219.9 L272.4,219.67 L283.7,188.32 L295.08,219.9 L295,220.09 L283.7,251.48 Z M273.77,219.9 L283.7,247.46 L293.63,219.9 L283.7,192.34 L273.77,219.9 Z" id="Shape" fill="#FFFFFF" fill-rule="nonzero"></path>
            <rect id="Rectangle" fill="#FFFFFF" fill-rule="nonzero" x="273.04" y="160.09" width="42.62" height="1.36"></rect>
            <rect id="Rectangle" fill="#FFFFFF" fill-rule="nonzero" x="262.38" y="189.65" width="42.63" height="1.36"></rect>
            <rect id="Rectangle" fill="#FFFFFF" fill-rule="nonzero" x="273.04" y="219.22" width="42.62" height="1.36"></rect>
            <rect id="Rectangle" fill="#FFFFFF" fill-rule="nonzero" x="230.43" y="219.22" width="42.62" height="1.36"></rect>
            <path d="M305,251.48 L293.62,219.9 L293.7,219.67 L305,188.32 L316.37,219.9 L316.29,220.13 L305,251.48 Z M295.07,219.9 L305,247.46 L314.92,219.9 L305,192.34 L295.07,219.9 Z" id="Shape" fill="#FFFFFF" fill-rule="nonzero"></path>
            <path d="M305,192.34 L293.62,160.77 L293.7,160.53 L305,129.19 L316.37,160.77 L316.29,161 L305,192.34 Z M295.07,160.77 L305,188.32 L314.92,160.77 L305,133.21 L295.07,160.77 Z" id="Shape" fill="#FFFFFF" fill-rule="nonzero"></path>
            <rect id="Rectangle" fill="#FFE700" fill-rule="nonzero" x="240.35" y="126.06" width="65.57" height="4.45"></rect>
            <rect id="Rectangle" fill="#FFE700" fill-rule="nonzero" x="261.56" y="114.97" width="36.96" height="2.37"></rect>
            <polygon id="Path" fill="#FFE600" fill-rule="nonzero" points="286.56 126.06 275.78 126.06 271.48 117.34 289.99 117.34"></polygon>
            <rect id="Rectangle" fill="#FFFFFF" fill-rule="nonzero" x="262.38" y="130.52" width="42.63" height="1.36"></rect>
        </g>
    </g>
</svg>