<?xml version="1.0" encoding="UTF-8"?>
<svg width="440px" height="330px" viewBox="0 0 440 330" version="1.1" xmlns="http://www.w3.org/2000/svg" xmlns:xlink="http://www.w3.org/1999/xlink">
    <title>Graphic elements / Icons / Rich icons / Marketplace / Challenges-Respond-to-Medical-Emergencies</title>
    <defs>
        <linearGradient x1="49.955144%" y1="100%" x2="49.955144%" y2="0.017149717%" id="linearGradient-1">
            <stop stop-color="#FFFFFF" stop-opacity="0" offset="0%"></stop>
            <stop stop-color="#FBFBFC" stop-opacity="0.04" offset="11%"></stop>
            <stop stop-color="#EFF2F3" stop-opacity="0.16" offset="28%"></stop>
            <stop stop-color="#DCE2E6" stop-opacity="0.35" offset="48%"></stop>
            <stop stop-color="#C2CCD2" stop-opacity="0.62" offset="71%"></stop>
            <stop stop-color="#A1B1BA" stop-opacity="0.96" offset="97%"></stop>
            <stop stop-color="#9DADB7" offset="100%"></stop>
        </linearGradient>
        <linearGradient x1="51.7805186%" y1="47.3086604%" x2="-4.5097721%" y2="18.8765053%" id="linearGradient-2">
            <stop stop-color="#FFFFFF" offset="0%"></stop>
            <stop stop-color="#023852" offset="100%"></stop>
        </linearGradient>
        <linearGradient x1="49.9722308%" y1="99.9832426%" x2="49.9722308%" y2="0%" id="linearGradient-3">
            <stop stop-color="#FFFFFF" offset="0%"></stop>
            <stop stop-color="#3FB0E2" offset="100%"></stop>
        </linearGradient>
        <linearGradient x1="61.2017885%" y1="55.7537652%" x2="43.0526539%" y2="49.0715017%" id="linearGradient-4">
            <stop stop-color="#FFFFFF" stop-opacity="0" offset="0%"></stop>
            <stop stop-color="#9DADB7" offset="100%"></stop>
        </linearGradient>
        <linearGradient x1="0%" y1="50.4916324%" x2="100.077101%" y2="50.4916324%" id="linearGradient-5">
            <stop stop-color="#BDC8CF" offset="0%"></stop>
            <stop stop-color="#FFFFFF" offset="100%"></stop>
        </linearGradient>
        <linearGradient x1="68.9242054%" y1="14.2131696%" x2="-7.82396088%" y2="70.2374043%" id="linearGradient-6">
            <stop stop-color="#BDC8CF" offset="0%"></stop>
            <stop stop-color="#FFFFFF" offset="100%"></stop>
        </linearGradient>
        <linearGradient x1="55.0180611%" y1="49.2146597%" x2="42.317605%" y2="85.0443888%" id="linearGradient-7">
            <stop stop-color="#F0F3F4" offset="0%"></stop>
            <stop stop-color="#FFFFFF" offset="100%"></stop>
        </linearGradient>
        <linearGradient x1="0%" y1="49.9879143%" x2="100.253624%" y2="49.9879143%" id="linearGradient-8">
            <stop stop-color="#FFFFFF" offset="0%"></stop>
            <stop stop-color="#3FB0E2" offset="100%"></stop>
        </linearGradient>
        <linearGradient x1="9.51330967%" y1="46.0195922%" x2="87.2732593%" y2="59.3588347%" id="linearGradient-9">
            <stop stop-color="#FFFFFF" offset="0%"></stop>
            <stop stop-color="#023852" offset="100%"></stop>
        </linearGradient>
        <linearGradient x1="57.0160229%" y1="36.0142959%" x2="40.3750905%" y2="62.1990597%" id="linearGradient-10">
            <stop stop-color="#FFFFFF" offset="0%"></stop>
            <stop stop-color="#41B2E2" offset="100%"></stop>
        </linearGradient>
        <linearGradient x1="-16.7196187%" y1="49.6168695%" x2="144.837172%" y2="49.6168695%" id="linearGradient-11">
            <stop stop-color="#BDC8CF" offset="0%"></stop>
            <stop stop-color="#FFFFFF" offset="100%"></stop>
        </linearGradient>
        <linearGradient x1="94.0671289%" y1="32.2546146%" x2="9.2893161%" y2="80.9073713%" id="linearGradient-12">
            <stop stop-color="#9DADB7" stop-opacity="0.3" offset="0%"></stop>
            <stop stop-color="#FFFFFF" stop-opacity="0" offset="100%"></stop>
        </linearGradient>
        <linearGradient x1="0.0129187441%" y1="50.0013514%" x2="100%" y2="50.0013514%" id="linearGradient-13">
            <stop stop-color="#FFFFFF" offset="0%"></stop>
            <stop stop-color="#3FB0E2" offset="100%"></stop>
        </linearGradient>
        <linearGradient x1="49.9807966%" y1="99.9925039%" x2="49.9807966%" y2="0%" id="linearGradient-14">
            <stop stop-color="#FFFFFF" stop-opacity="0" offset="0%"></stop>
            <stop stop-color="#FBFBFC" stop-opacity="0.04" offset="11%"></stop>
            <stop stop-color="#EFF2F3" stop-opacity="0.16" offset="28%"></stop>
            <stop stop-color="#DCE2E6" stop-opacity="0.35" offset="48%"></stop>
            <stop stop-color="#C2CCD2" stop-opacity="0.62" offset="71%"></stop>
            <stop stop-color="#A1B1BA" stop-opacity="0.96" offset="97%"></stop>
            <stop stop-color="#9DADB7" offset="100%"></stop>
        </linearGradient>
        <linearGradient x1="50.0044166%" y1="155.933184%" x2="50.0044166%" y2="-55.003472%" id="linearGradient-15">
            <stop stop-color="#FFFFFF" offset="0%"></stop>
            <stop stop-color="#3FB0E2" offset="68%"></stop>
        </linearGradient>
        <linearGradient x1="-8.54595488e-14%" y1="50.0460452%" x2="100%" y2="50.0460452%" id="linearGradient-16">
            <stop stop-color="#FFFFFF" offset="45%"></stop>
            <stop stop-color="#3FB0E2" offset="100%"></stop>
        </linearGradient>
    </defs>
    <g id="Graphic-elements-/-Icons-/-Rich-icons-/-Marketplace-/-Challenges-Respond-to-Medical-Emergencies" stroke="none" stroke-width="1" fill="none" fill-rule="evenodd">
        <g id="respond-to-medical-emergencies" transform="translate(90.000000, 0.000000)">
            <ellipse id="Oval" stroke="#023852" stroke-width="1.33" cx="149.5" cy="76.3665768" rx="75.5" ry="76"></ellipse>
            <path d="M182.894082,67.5984166 L173.104501,50.6453327 C172.883211,50.264277 172.395987,50.1333462 172.013632,50.3521857 L160.78721,56.8402721 C160.537499,56.9836979 160.230073,56.9820744 159.98189,56.8360194 C159.733706,56.6899644 159.582921,56.4219316 159.5869,56.1338936 L159.5869,43.1647845 C159.5869,42.7239466 159.22969,42.3665768 158.789048,42.3665768 L139.213416,42.3665768 C138.772199,42.3665768 138.413977,42.7233759 138.412033,43.1647845 L138.412033,56.1374255 C138.417511,56.4252914 138.267606,56.6938002 138.019738,56.8401 C137.77187,56.9863998 137.464457,56.9878152 137.215254,56.843804 L125.985302,50.34159 C125.602947,50.1227505 125.115722,50.2536813 124.894433,50.6347371 L115.108382,67.5878209 C115.001385,67.7711408 114.97215,67.9896691 115.027195,68.1946865 C115.082239,68.3997038 115.216988,68.5741652 115.401399,68.6791757 L126.62782,75.170794 C126.875638,75.3131206 127.028453,75.5771689 127.028453,75.8630449 C127.028453,76.1489209 126.875638,76.4129692 126.62782,76.5552958 L115.401399,83.0398504 C115.216988,83.1448608 115.082239,83.3193222 115.027195,83.5243396 C114.97215,83.729357 115.001385,83.9478853 115.108382,84.1312052 L124.894433,101.084289 C125.115722,101.465345 125.602947,101.596276 125.985302,101.377436 L137.215254,94.8893496 C137.464457,94.7453384 137.77187,94.7467538 138.019738,94.8930536 C138.267606,95.0393534 138.417511,95.3078622 138.412033,95.5957281 L138.412033,108.568369 C138.413977,109.009778 138.772199,109.366577 139.213416,109.366577 L158.789048,109.366577 C159.22969,109.366577 159.5869,109.009207 159.5869,108.568369 L159.5869,95.5957281 C159.582921,95.3076901 159.733706,95.0396573 159.98189,94.8936023 C160.230073,94.7475473 160.537499,94.7459239 160.78721,94.8893496 L172.013632,101.377436 C172.395987,101.596276 172.883211,101.465345 173.104501,101.084289 L182.894082,84.1312052 C183.112824,83.7486799 182.981951,83.2612387 182.601065,83.0398504 L171.374643,76.5552958 C171.126826,76.4129692 170.974011,76.1489209 170.974011,75.8630449 C170.974011,75.5771689 171.126826,75.3131206 171.374643,75.170794 L182.601065,68.6862394 C182.979853,68.4649642 183.110444,67.9801447 182.894082,67.5984166 Z" id="Path" stroke="#023852" stroke-width="1.36"></path>
            <path d="M205.371511,204.071172 L205.041627,207.852914 C204.973552,208.649 204.989006,209.449936 205.08774,210.242862 L209.883475,253.785609 C210.032936,255.002594 209.929116,256.237018 209.578421,257.412706 L209.578421,257.412706 C209.172569,258.767627 209.097195,260.198666 209.358498,261.588086 L215.260942,293.167034 C215.454109,294.213532 215.330699,295.29326 214.906228,296.270452 L213.547673,299.433618 C213.259033,300.11106 213.109507,300.838693 213.107827,301.574028 L213.107827,306.118444 C213.106968,307.252067 213.462822,308.357755 214.125857,309.281611 L214.200347,309.38705 C215.037759,310.56142 215.200241,312.082203 214.629551,313.404271 L214.629551,313.404271 C214.384589,313.968611 214.289346,314.585644 214.352874,315.196732 L214.427364,315.941834 C214.504992,316.702482 214.822752,317.419498 215.335432,317.990863 L215.690146,318.391531 L218.421445,316.114051 L226.608247,316.816977 L231.489114,322.366577 L231.3827,317.291452 C231.360781,316.294771 231.879144,315.36276 232.741255,314.848784 L233.837322,314.198578 C234.525171,313.789631 234.960633,313.066554 234.997237,312.27256 L234.997237,312.051139 C235.041553,311.136491 234.549865,310.27845 233.734454,309.847466 L233.273326,309.601442 C231.938792,308.894604 231.203768,307.426739 231.443001,305.946227 L232.021185,302.308585 C232.247162,300.984285 232.336301,299.640608 232.287221,298.298393 L230.974778,270.332485 C230.956918,269.926791 230.910694,269.522812 230.83644,269.123452 L229.49562,261.74273 C229.228501,260.280065 229.517899,258.771208 230.307916,257.507601 L230.307916,257.507601 C230.726013,256.838137 230.939176,256.062891 230.921571,255.275812 L230.51365,232.680258 L229.94256,206.422459 L220.744823,202.366577 L205.371511,204.071172 Z" id="Path" fill="#FFFFFF" fill-rule="nonzero"></path>
            <path d="M205.371511,204.071022 L205.041627,207.852432 C204.973552,208.648448 204.989006,209.449313 205.08774,210.24217 L209.883475,253.781091 C210.032936,254.99797 209.929116,256.232285 209.578421,257.40787 L209.578421,257.40787 C209.172569,258.762672 209.097195,260.193585 209.358498,261.582883 L215.260942,293.159056 C215.454109,294.205463 215.330699,295.285095 214.906228,296.262201 L213.547673,299.42509 C213.259033,300.102472 213.109507,300.830042 213.107827,301.565312 L213.107827,306.109329 C213.106968,307.242852 213.462822,308.348443 214.125857,309.272217 L214.200347,309.377647 C215.037759,310.551914 215.200241,312.072563 214.629551,313.394516 L214.629551,313.394516 C214.384589,313.958806 214.289346,314.575785 214.352874,315.186819 L214.427364,315.931855 C214.504992,316.692436 214.822752,317.40939 215.335432,317.980704 L215.690146,318.381337 L217.513377,316.86315 C218.092501,316.37785 218.843621,316.142449 219.599096,316.209487 L225.593765,316.729606 C226.243789,316.785485 226.846556,317.089119 227.27511,317.576557 L231.489114,322.366577 L231.3827,317.291898 C231.360781,316.295304 231.879144,315.363375 232.741255,314.849445 L233.837322,314.199295 C234.525171,313.790384 234.960633,313.067371 234.997237,312.273447 L234.997237,312.052045 C235.041553,311.137477 234.549865,310.279512 233.734454,309.848566 L233.273326,309.602563 C231.938792,308.895788 231.203768,307.428051 231.443001,305.94767 L232.021185,302.310348 C232.247885,300.9827 232.337027,299.635572 232.287221,298.289965 L230.974778,270.326514 C230.956918,269.920855 230.910694,269.516911 230.83644,269.117587 L229.49562,261.737513 C229.228501,260.274977 229.517899,258.766253 230.307916,257.502757 L230.307916,257.502757 C230.726013,256.833351 230.939176,256.058174 230.921571,255.271163 L230.51365,232.677594 L229.921277,205.125319 L220.737728,202.366577 L205.371511,204.071022 Z" id="Path" fill="#FFFFFF" fill-rule="nonzero"></path>
            <path d="M210.740462,254.233495 C210.886084,255.460742 210.785063,256.705619 210.443644,257.891187 C210.049011,259.257582 209.975675,260.700628 210.229659,262.101785 L210.636921,264.366577 L231,243.455355 L230.817077,232.935947 L230.251053,205.148833 L221.315458,202.366577 L206.360674,204.089094 L206.043148,207.902734 C205.97408,208.706535 205.987963,209.515582 206.084564,210.316385 L210.740462,254.233495 Z" id="Path" fill="url(#linearGradient-1)" fill-rule="nonzero" style="mix-blend-mode: multiply;"></path>
            <polygon id="Path" fill="#B7C3CB" fill-rule="nonzero" points="84 164.671302 86.5675944 174.537905 86.8354871 185.463397 89.9075547 186.932518 90.554672 188.236845 93.8737575 188.366577 97.5964215 183.180825 98 176.368171 92.9030815 169.807967 90.3946322 144.366577"></polygon>
            <polygon id="Path" fill="#A7B5BE" fill-rule="nonzero" points="92 169.366577 91.8580769 169.178042 89.3623077 143.366577 83 163.966659 84.3776923 169.366577"></polygon>
            <path d="M45,310.380925 L49.100767,316.689758 C49.2971946,316.992952 49.4611547,317.314427 49.5901443,317.649276 L52.4692542,325.133519 C52.6589062,325.627288 53.0979246,325.994194 53.6337578,326.106744 L59.1776518,327.271874 C59.7049225,327.38081 60.2485659,327.39591 60.7815233,327.316423 L67.7578281,326.267806 C68.2583917,326.193798 68.6474097,325.810813 68.711578,325.328849 L68.9651968,323.409813 C69.0709371,322.609627 68.9345381,321.797149 68.5722662,321.069273 L62.1424921,309.366577 L51.279746,312.025813 L45,310.380925 Z" id="Path" fill="#063852" fill-rule="nonzero"></path>
            <path d="M45,310.380925 L49.100767,316.689758 C49.2971946,316.992952 49.4611547,317.314427 49.5901443,317.649276 L52.4692542,325.133519 C52.6589062,325.627288 53.0979246,325.994194 53.6337578,326.106744 L59.1776518,327.271874 C59.7049225,327.38081 60.2485659,327.39591 60.7815233,327.316423 L67.7578281,326.267806 C68.2583917,326.193798 68.6474097,325.810813 68.711578,325.328849 L68.9651968,323.409813 C69.0709371,322.609627 68.9345381,321.797149 68.5722662,321.069273 L62.1424921,309.366577 L51.279746,312.025813 L45,310.380925 Z" id="Path" fill="url(#linearGradient-2)" fill-rule="nonzero" style="mix-blend-mode: multiply;"></path>
            <path d="M48.4313292,229.104943 L47.9315373,244.05849 C47.9178265,244.481648 47.9871928,244.903377 48.1356777,245.299609 L49.543542,249.005288 C49.6953149,249.40769 49.736646,249.843675 49.6632105,250.267624 L47.5901302,262.176715 L40.1214099,291.171532 C39.95953,291.786831 39.95953,292.433824 40.1214099,293.049123 L44.6617724,309.901477 L48.8360902,311.924042 C49.8994793,312.437038 51.1216068,312.506943 52.2360826,312.118519 L61.5385462,308.854834 L61.7180489,302.323929 C61.7357058,301.670504 61.9532222,301.038391 62.3410289,300.513521 L62.7669078,299.93716 C63.4295739,299.042548 63.5777907,297.864739 63.1575902,296.832593 L63.1575902,296.832593 C62.7322466,295.787158 62.8903024,294.593561 63.5729102,293.696203 L65.5826365,291.044238 C65.9342481,290.578095 66.1521291,290.024146 66.2126558,289.442451 L68.9685503,262.982912 C69.1524786,261.199983 69.5910734,259.452964 70.2708248,257.795668 L73.4385195,250.016571 C73.8352882,249.047886 74.0936112,248.027668 74.2058056,246.986259 L78,212.012145 L74.9730917,208.889898 L43.8240931,208.366577 L48.4313292,229.104943 Z" id="Path" fill="#0099DA" fill-rule="nonzero"></path>
            <path d="M37,318.355114 L36.6879492,325.845079 C36.6800449,326.15393 36.5538916,326.446826 36.3373303,326.659127 L33.8829979,328.963172 C33.6805303,329.15452 33.4171745,329.261896 33.143192,329.264806 L18.2559132,329.366577 C17.6219618,329.369736 17.0958306,328.859484 17.0567965,328.203637 L17.0042037,327.276931 C16.9752665,326.683293 17.0961117,326.092088 17.3548226,325.561616 L22.1127212,315.709459 L27.0529416,314.401169 C27.5579136,314.308388 28.0782732,314.403643 28.5220348,314.670095 L37,318.355114 Z" id="Path" fill="#063852" fill-rule="nonzero"></path>
            <path d="M32.8583839,196.366577 L21.7256946,202.029455 L24.7740146,252.872173 C24.816325,253.668114 24.6968458,254.464373 24.4228256,255.212642 L21.9645031,261.994721 C21.2484767,263.574364 20.8578853,265.282565 20.8161152,267.01705 L20.4017123,284.480816 C20.3730804,285.593625 20.1777454,286.695804 19.8222506,287.750433 L15.2567944,301.272358 C14.8732015,302.408473 14.9207109,303.646394 15.3902462,304.749626 L21.079507,318.366577 L37.6310416,317.828093 L39.618771,314.192448 C39.8846863,313.706846 40.0338019,313.165733 40.0542453,312.612192 L40.3035894,305.925139 C40.3245646,305.418291 40.0828741,304.936523 39.6644255,304.651079 C39.0860018,304.252167 38.8673216,303.500571 39.141154,302.852614 L41.8453089,296.422485 C42.1476126,295.709203 42.2032404,294.915099 42.0033439,294.166485 L41.7926305,293.364038 C41.5146547,292.314771 41.4278085,291.223858 41.5362626,290.143694 L43.5801822,269.353999 C43.6276121,268.816564 43.6276121,268.275983 43.5801822,267.738548 L43.0358394,260.618596 C42.9561517,259.588217 42.999775,258.551984 43.1657793,257.531993 L45.2729129,244.675254 C45.4402523,243.647726 45.7024279,242.637988 46.0560642,241.659042 L54.3616826,218.65206 L58,207.607865 L32.8583839,196.366577 Z" id="Path" fill="#0099DA" fill-rule="nonzero"></path>
            <path d="M75.98556,209.788864 L57.4873804,209.479187 L57.8391237,208.45514 L33.0060475,197.366577 L22,202.947808 L24.0612157,237.262178 L31.3915458,244.595902 L43.3684048,256.578307 L45.2607837,244.986518 C45.4269501,243.972506 45.6859862,242.975933 46.0346189,242.009392 L49.7490281,231.74077 L49.3269361,244.26863 C49.3132344,244.684036 49.3825946,245.097997 49.5309472,245.486225 L50.9379204,249.121416 C51.0894953,249.515789 51.1308392,249.944019 51.0575131,250.360125 L49.017402,262.04341 L48.9822277,262.177134 L61.6449861,274.845756 L68.1627893,281.366577 L70.0973774,262.845756 C70.2803589,261.096953 70.712701,259.383374 71.3812404,257.757193 L74.5082382,250.145462 C74.8968604,249.194339 75.1502381,248.193389 75.2609688,247.171855 L79,212.864524 L75.98556,209.788864 Z" id="Path" fill="url(#linearGradient-3)" fill-rule="nonzero" style="mix-blend-mode: multiply;"></path>
            <rect id="Rectangle" fill="#D8DEE2" fill-rule="nonzero" style="mix-blend-mode: multiply;" x="0" y="325.366577" width="255" height="4" rx="2"></rect>
            <path d="M235.089342,140.89519 L231.274557,151.502424 C230.899316,152.551042 230.252646,153.4807 229.400877,154.196042 L204.390081,175.752104 C203.729818,176.321455 202.89685,176.65003 202.026689,176.684374 L194.911671,176.965478 C194.275337,176.990752 193.690127,177.321904 193.339625,177.855048 L192.367298,179.338851 C191.937545,179.995292 191.881027,180.829161 192.218256,181.537868 L193.889664,185.0321 C194.18998,185.662717 194.75515,186.126163 195.431152,186.296139 C196.107155,186.466115 196.823538,186.324906 197.385072,185.910995 L200.248822,183.822284 C201.191764,183.132706 202.384721,182.882579 203.524214,183.135536 L204.666875,183.384616 C205.926754,183.662837 207.245191,183.391189 208.293582,182.637377 L237.9318,161.35886 C238.715099,160.798369 239.229595,159.935536 239.351255,158.978371 L239.351255,158.978371 C239.417827,158.460532 239.599752,157.964351 239.883551,157.526592 L244.759379,150.025737 C245.099705,149.503804 245.39757,148.955243 245.650086,148.38537 L249,140.856049 L242.938928,140.429055 C241.355066,140.318076 239.764345,140.355004 238.187302,140.539362 L235.089342,140.89519 Z" id="Path" fill="#2BA8E0" fill-rule="nonzero"></path>
            <path d="M89.3485757,181.366577 L93.6476762,181.366577 C93.8422592,181.366577 94,181.515482 94,181.699165 L94,200.366577 L89,200.366577 L89,181.699165 C89,181.516855 89.1554579,181.368516 89.3485757,181.366577 Z" id="Path" fill="#E3E8EB" fill-rule="nonzero"></path>
            <path d="M199.35206,181.366577 L203.64794,181.366577 C203.842377,181.366577 204,181.515482 204,181.699165 L204,200.366577 L199,200.366577 L199,181.699165 C199,181.515482 199.157623,181.366577 199.35206,181.366577 L199.35206,181.366577 Z" id="Path" fill="#E3E8EB" fill-rule="nonzero"></path>
            <path d="M186.232687,156.054347 C184.743046,153.764457 182.207833,152.379047 179.484301,152.366577 L162.763103,152.366577 L130.173506,152.391351 L113.448784,152.391351 C110.726984,152.409726 108.196098,153.79893 106.71097,156.089738 L96.4315739,171.661897 C94.8389768,174.087957 93.9932672,176.931431 94,179.837281 L94,197.366577 L98.8560594,197.366577 L98.8560594,181.667009 C98.8567368,178.600968 99.7523355,175.602381 101.432075,173.042157 L110.488657,159.306805 C111.232074,158.162559 112.497165,157.468814 113.857564,157.459381 L130.17703,157.459381 L162.766627,157.431068 L179.086093,157.431068 C180.447049,157.435193 181.714569,158.126882 182.458524,159.271414 L191.536249,172.992609 C193.226445,175.559226 194.127231,178.568613 194.126361,181.645775 L194.126361,197.341803 L199,197.341803 L199,179.816046 C199,176.901615 198.141693,174.052289 196.533227,171.626506 L186.232687,156.054347 Z" id="Path" fill="#D7DDE2" fill-rule="nonzero"></path>
            <rect id="Rectangle" fill="#B7C3CB" fill-rule="nonzero" x="97" y="277.366577" width="10" height="12"></rect>
            <path d="M91.6073171,277.366577 L97,277.366577 L97,300.366577 L91,300.366577 L91,277.952969 C91,277.629114 91.2719051,277.366577 91.6073171,277.366577 L91.6073171,277.366577 Z" id="Path" fill="#E3E8EB" fill-rule="nonzero"></path>
            <polygon id="Rectangle" fill="#B7C3CB" fill-rule="nonzero" transform="translate(190.577617, 283.231376) rotate(-179.990000) translate(-190.577617, -283.231376) " points="185.718162 277.374491 195.43707 277.374494 195.437073 289.088261 185.718164 289.088259"></polygon>
            <path d="M195.476739,277.376654 L201.24196,277.376654 L201.24196,300.307606 L196.057135,300.307606 C195.734651,300.307606 195.473222,300.045856 195.473222,299.722972 L195.473222,277.376654 L195.476739,277.376654 Z" id="Path" fill="#E3E8EB" fill-rule="nonzero" transform="translate(198.357591, 288.842130) rotate(-179.990000) translate(-198.357591, -288.842130) "></path>
            <path d="M94.5837218,297.366577 L89.7449521,297.366577 C89.3335265,297.366577 89,297.704721 89,298.121843 L89,311.099947 C88.9997617,311.995191 89.1775833,312.881291 89.5228334,313.705269 L93.1587451,322.366577 L95.8378379,322.366577 L99.4771668,313.705269 C99.8220583,312.881178 99.999865,311.995152 100,311.099947 L100,298.125307 C100,297.707621 99.6670258,297.368484 99.2550482,297.366577 L94.5837218,297.366577 Z" id="Path" fill="#D7DDE2" fill-rule="nonzero"></path>
            <rect id="Rectangle" fill="#023852" fill-rule="nonzero" x="92" y="306.366577" width="5" height="20" rx="1.77"></rect>
            <path d="M198.40591,297.366577 L203.254121,297.366577 C203.666058,297.366577 204,297.704721 204,298.121843 L204,311.099947 C204.000384,311.995554 203.821126,312.88191 203.473094,313.705269 L199.832659,322.366577 L197.163919,322.366577 L193.523484,313.705269 C193.177803,312.880076 192.99977,311.992845 193,311.096483 L193,298.121843 C193.001884,297.704161 193.336806,297.366577 193.7493,297.366577 L198.40591,297.366577 Z" id="Path" fill="#D7DDE2" fill-rule="nonzero"></path>
            <path d="M197.649079,306.745599 L199.051199,306.745599 C200.028743,306.745599 200.821199,307.538055 200.821199,308.515599 L200.821199,324.934084 C200.821199,325.911628 200.028743,326.704084 199.051199,326.704084 L197.649079,326.704084 C196.671535,326.704084 195.879079,325.911628 195.879079,324.934084 L195.879079,308.515599 C195.879079,307.538055 196.671535,306.745599 197.649079,306.745599 Z" id="Rectangle" fill="#023852" fill-rule="nonzero" transform="translate(198.350139, 316.724842) rotate(-179.990000) translate(-198.350139, -316.724842) "></path>
            <rect id="Rectangle" fill="#023852" fill-rule="nonzero" x="116" y="258.366577" width="3" height="22"></rect>
            <rect id="Rectangle" fill="#023852" fill-rule="nonzero" transform="translate(174.500000, 269.366577) rotate(-180.000000) translate(-174.500000, -269.366577) " x="173" y="258.366577" width="3" height="22"></rect>
            <path d="M115,229.366577 L121,229.366577 L121,258.743703 C121,259.087707 120.721945,259.366577 120.378947,259.366577 L115.621053,259.366577 C115.278055,259.366577 115,259.087707 115,258.743703 L115,229.366577 L115,229.366577 Z" id="Path" fill="#9DADB7" fill-rule="nonzero"></path>
            <path d="M172.630473,229.366577 L177.380035,229.366577 C177.722432,229.366577 178,229.645382 178,229.989305 L178,259.366577 L172,259.366577 L172,229.989305 C172,229.645382 172.277568,229.366577 172.619965,229.366577 L172.630473,229.366577 Z" id="Path" fill="#9DADB7" fill-rule="nonzero" transform="translate(175.000000, 244.366577) rotate(-180.000000) translate(-175.000000, -244.366577) "></path>
            <path d="M105,229.366577 L110,229.366577 L110,293.366577 L105.6337,293.366577 C105.465632,293.366577 105.304448,293.302388 105.185606,293.18813 C105.066765,293.073872 105,292.918906 105,292.757321 L105,229.366577 L105,229.366577 Z" id="Path" fill="#E3E8EB" fill-rule="nonzero"></path>
            <path d="M183.6337,229.366577 L188,229.366577 L188,293.366577 L183,293.366577 L183,229.975832 C183,229.63935 183.283717,229.366577 183.6337,229.366577 L183.6337,229.366577 Z" id="Path" fill="#E3E8EB" fill-rule="nonzero" transform="translate(185.500000, 261.366577) rotate(-180.000000) translate(-185.500000, -261.366577) "></path>
            <g id="Group" style="mix-blend-mode: multiply;" transform="translate(115.000000, 229.366577)" fill="#9DADB7" fill-rule="nonzero">
                <rect id="Rectangle" x="0.2905" y="0.265454545" width="5.985" height="11.4109091"></rect>
                <rect id="Rectangle" x="56.7105" y="0.265454545" width="5.985" height="11.4109091"></rect>
            </g>
            <rect id="Rectangle" fill="#C7D0D6" fill-rule="nonzero" x="105" y="229.366577" width="5" height="19"></rect>
            <rect id="Rectangle" fill="#C7D0D6" fill-rule="nonzero" x="183" y="229.366577" width="5" height="19"></rect>
            <path d="M109.010567,277.366577 L183,277.366577 L183,297.363031 C183,297.917274 182.553713,298.366577 182.003189,298.366577 L109.70446,298.366577 C109.315397,298.366577 109,298.049048 109,297.657357 L109,277.366577 L109.010567,277.366577 Z" id="Path" fill="#E3E8EB" fill-rule="nonzero"></path>
            <path d="M109,297.910833 C109.001934,298.163141 109.19378,298.366577 109.429762,298.366577 L181.996049,298.366577 C182.550516,298.366577 183,297.885979 183,297.29313 L183,292.366577 L109,292.366577 L109,297.910833 Z" id="Path" fill="#B7C3CB" fill-rule="nonzero"></path>
            <rect id="Rectangle" fill="#B7C3CB" fill-rule="nonzero" x="96" y="202.366577" width="100" height="19"></rect>
            <polygon id="Path" fill="#9DADB7" fill-rule="nonzero" style="mix-blend-mode: multiply;" points="101 204.909899 183.41346 222.366577 196 221.237912 194.361036 200.366577"></polygon>
            <path d="M94,223.366577 L199,223.366577 L199,230.794899 C199,231.110628 198.741226,231.366577 198.422012,231.366577 L94.5885611,231.366577 C94.269347,231.366577 94.010573,231.110628 94.010573,230.794899 L94.010573,223.366577 L94,223.366577 Z" id="Path" fill="#9DADB7" fill-rule="nonzero"></path>
            <path d="M182.025965,183.535861 L178.44858,182.890394 C177.949183,182.80073 177.481143,182.579527 177.090434,182.248513 L168.78404,175.105348 C168.215892,174.627096 167.503169,174.365969 166.767823,174.366577 L128.435199,174.366577 C127.695947,174.361644 126.978522,174.623132 126.408481,175.105348 L118.151092,182.205482 C117.760968,182.536772 117.292533,182.756925 116.792946,182.843777 L112.974035,183.535861 C112.593621,183.60232 112.250034,183.80892 112.007931,184.116781 L108,189.366577 L187,189.366577 L182.992069,184.116781 C182.751054,183.807631 182.406947,183.600719 182.025965,183.535861 Z" id="Path" fill="#FFFFFF" fill-rule="nonzero"></path>
            <rect id="Rectangle" fill="#D7DDE2" fill-rule="nonzero" x="95" y="205.366577" width="7" height="15"></rect>
            <rect id="Rectangle" fill="#D7DDE2" fill-rule="nonzero" x="192" y="205.366577" width="7" height="15"></rect>
            <rect id="Rectangle" fill="#E3E8EB" fill-rule="nonzero" x="86" y="199.366577" width="121" height="7"></rect>
            <path d="M93.6115264,107.366577 L99.9772231,125.716628 C100.038435,125.895738 99.9730491,126.09537 99.8197558,126.1974 L92,131.366577 L93.6115264,107.366577 Z" id="Path" fill="#2BA8E0" fill-rule="nonzero"></path>
            <path d="M93.608705,107.366577 L99.9764958,125.716628 C100.039071,125.895726 99.9733745,126.096243 99.8189767,126.1974 L92,131.366577 L93.608705,107.366577 Z" id="Path" fill="url(#linearGradient-4)" fill-rule="nonzero" style="mix-blend-mode: multiply;"></path>
            <path d="M61.9158647,101.970086 L37.9258452,118.731489 L29.4086994,138.4157 C29.3496314,138.551477 29.308088,138.69413 29.2850577,138.840261 L19.0157327,201.8157 C18.9416943,202.261347 19.1328889,202.709466 19.5067668,202.966577 L24.1910203,206.198156 C24.5788652,206.464935 25.1002338,206.433022 25.4521655,206.120963 L30.3589741,201.773594 C30.4622482,201.669686 30.6195143,201.640161 30.7538472,201.699461 C30.8881801,201.758761 30.9715001,201.894492 30.963052,202.040261 L30.963052,207.429735 C30.9624524,207.656045 31.1242582,207.850671 31.3481076,207.892893 L77.1308571,216.366577 L81.1015215,178.236752 L85.5667527,171.334998 L92.1868817,141.422717 L93,108.131489 C93.0139062,107.440328 92.7711335,106.768152 92.3175886,106.24377 L84.5846844,97.3665768 L61.9158647,101.970086 Z" id="Path" fill="#0099DA" fill-rule="nonzero"></path>
            <polygon id="Path" fill="#2BA8E0" fill-rule="nonzero" points="62.6376437 102.041234 39 118.366577 43.4610515 118.03781 65.0791887 103.671371 66 101.366577"></polygon>
            <polygon id="Path" fill="#B7C3CB" fill-rule="nonzero" points="82.564043 116.868871 81.6020912 126.366577 60.4217252 109.536699 60 107.193606 64.0325298 104.366577 84 112.791961"></polygon>
            <path d="M246,309.890293 L245.017604,322.089395 C244.975522,322.584427 244.820812,323.062622 244.56577,323.485972 L242.768704,326.453698 C242.488497,326.913939 242.044379,327.245555 241.529584,327.378931 L238.027873,328.27274 C237.57021,328.388982 237.092598,328.39734 236.631296,328.29718 L233.6978,327.66872 C233.041821,327.527611 232.560381,326.954936 232.523716,326.272143 L232,315.965404 L234.539853,312.777716 L234.724694,309.366577 L246,309.890293 Z" id="Path" fill="#9DADB7" fill-rule="nonzero"></path>
            <path d="M237.561681,326.354265 L237.176561,325.898096 C236.955095,325.640935 236.617662,325.483165 236.253662,325.466585 L233.922128,325.367953 C233.620744,325.354496 233.324331,325.440076 233.089437,325.608367 L232,326.378923 L232,326.517623 C232.037163,327.120389 232.525152,327.625943 233.190054,327.750513 L236.163454,328.305314 C236.631032,328.393735 237.11514,328.386356 237.579029,328.283738 L241,327.522429 L238.807247,327.060095 C238.314087,326.956864 237.874955,326.70802 237.561681,326.354265 L237.561681,326.354265 Z" id="Path" fill="url(#linearGradient-5)" fill-rule="nonzero" style="mix-blend-mode: multiply;"></path>
            <path d="M246,309.992202 L246,309.878764 L234.724694,309.366577 L234.539853,312.725014 L232,315.863452 L232.232763,320.366577 L237.569193,314.347514 C237.843893,314.037958 238.176528,313.785672 238.548166,313.605014 L246,309.992202 Z" id="Path" fill="url(#linearGradient-6)" fill-rule="nonzero" style="mix-blend-mode: multiply;"></path>
            <path d="M259,199.366577 L254.350796,247.922645 C254.305256,248.347771 254.122709,248.745715 253.831526,249.054636 L252.678745,250.270998 C252.360602,250.610171 252.173748,251.054591 252.15255,251.522516 L252.003693,254.805992 C251.989997,255.14367 252.062755,255.479185 252.214863,255.779785 L253.194553,257.716824 C253.38459,258.092426 253.447838,258.521031 253.374567,258.936703 L247.26102,294.292073 C247.17688,294.786322 247.26893,295.294845 247.520655,295.726397 L249.175398,298.538796 C249.363696,298.858921 249.471859,299.221035 249.490422,299.593445 L249.732749,303.99485 C249.760037,304.51423 249.612297,305.027559 249.31387,305.450266 L246.793676,309.014982 C246.632076,309.238519 246.374375,309.369369 246.101315,309.366577 L235.103162,309.292706 L234.334641,289.433654 L232.967228,262.156899 C232.955138,262.015373 232.955138,261.87305 232.967228,261.731524 L233.278791,259.41481 C233.347519,258.874952 233.224803,258.327876 232.93261,257.871506 L232.240249,256.774671 C232.037277,256.446352 231.918282,256.071744 231.894069,255.684866 L229,203.483226 L259,199.366577 Z" id="Path" fill="#FFFFFF" fill-rule="nonzero"></path>
            <path d="M221.015207,100.565832 L221.015207,100.565832 C220.629957,103.093407 220.663028,105.667979 221.113074,108.184628 L221.745713,111.711849 L234.548791,101.130187 L239.351256,99.3665768 L248.95269,103.828511 C249.872569,104.255903 250.545743,105.0875 250.777207,106.082405 L250.777207,106.082405 C250.917782,106.683486 251.221584,107.233133 251.654514,107.669654 L253.496507,109.528499 C254.239056,110.277138 254.769988,111.212334 255.034414,112.237405 L256.152892,116.55825 C256.299764,117.133816 256.362178,117.728011 256.33814,118.32186 L256.84495,137.111364 C256.827474,137.520521 255.47831,137.301834 255.446853,137.707464 L255.446853,137.707464 C255.305285,138.963809 255.305285,140.232299 255.446853,141.488644 L256.84495,154.712194 C256.929885,155.50037 256.959086,156.29365 256.932332,157.086013 L256.865922,159.138856 C256.840201,159.913438 256.867061,160.688888 256.946313,161.459767 L260.99031,200.372064 C261.04242,200.857899 260.882641,201.342595 260.55252,201.700112 C260.222399,202.05763 259.754557,202.252641 259.27065,202.234436 L254.268956,202.068657 C253.104971,202.028619 251.966524,202.41868 251.067313,203.165622 L251.067313,203.165622 C250.361499,203.748448 249.505336,204.115584 248.59967,204.223788 L231.287728,206.340121 C230.949591,206.375395 230.60875,206.375395 230.270612,206.340121 L213.640243,204.788144 C213.524899,204.788144 213.406061,204.770508 213.290718,204.770508 L206.684707,204.650582 C205.917272,204.639219 205.29787,204.01415 205.28661,203.239694 L205,188.965032 L206.454021,162.094667 L205.608172,109.891803 C205.590964,108.900159 205.911782,107.932636 206.516936,107.151153 L208.124748,105.077147 C208.825908,104.169848 209.855734,103.581068 210.987353,103.440517 L214.950959,102.950233 C215.878788,102.83771 216.782723,102.575719 217.628316,102.174244 L221.015207,100.565832 Z" id="Path" fill="#FFFFFF" fill-rule="nonzero"></path>
            <path d="M205.1083,108.366577 L196.051976,134.656242 C195.926864,135.031757 196.031999,135.446684 196.320183,135.714744 L198.204595,137.478915 C198.660633,137.903119 199.227894,138.184911 199.838216,138.290433 L206,139.366577 L205.1083,108.366577 Z" id="Path" fill="#FFFFFF" fill-rule="nonzero"></path>
            <path d="M205.1083,108.366577 L196.051976,134.656242 C195.926864,135.031757 196.031999,135.446684 196.320183,135.714744 L198.204595,137.478915 C198.660633,137.903119 199.227894,138.184911 199.838216,138.290433 L206,139.366577 L205.1083,108.366577 Z" id="Path" fill="url(#linearGradient-7)" fill-rule="nonzero" style="mix-blend-mode: multiply;"></path>
            <path d="M238.583188,74.3935349 L235.209172,70.3000984 C234.882217,69.9004702 234.374995,69.6864523 233.85529,69.7288397 L232.725868,69.8164561 C232.401369,69.843804 232.081002,69.7297918 231.849407,69.5045418 L227.356658,65.1692841 C226.762086,64.5952862 225.941981,64.3058952 225.112064,64.3772322 L213.40455,65.3830681 C212.717932,65.4426703 212.094456,65.8013884 211.705072,66.3608667 L206.642267,73.6119969 C206.208304,74.2142935 205.983399,74.93821 206.000955,75.6762384 L206.072212,78.3327666 L214.672924,79.6960772 L224.759343,91.3665768 L231.086958,87.7672966 L231.297166,87.5955685 L232.130872,90.4448527 L234.510854,89.0429909 C235.071108,88.7149069 235.414794,88.1212828 235.415817,87.4799149 L235.415817,85.6119341 C235.415263,85.2427984 235.552143,84.8862404 235.800604,84.6096029 L237.749481,82.4332124 C238.189848,81.9453959 238.458489,81.3308548 238.515494,80.6808851 L238.992915,75.7182943 C239.03503,75.2412662 238.888244,74.7666673 238.583188,74.3935349 L238.583188,74.3935349 Z" id="Path" fill="#023852" fill-rule="nonzero"></path>
            <path d="M231.462121,86.3665768 L232.450413,91.2031554 C232.753091,92.6696891 233.462492,94.0190957 234.495868,95.093976 L239,99.760179 L233.807163,100.935422 L221.193526,111.366577 L219,98.0599009 L228.373278,87.2810414 L231.462121,86.3665768 Z" id="Path" fill="#2BA8E0" fill-rule="nonzero"></path>
            <path d="M220,101.597236 L221.650223,111.366577 L224.406336,109.202783 L225.994547,98.8254062 C226.020282,98.6731945 225.953536,98.5201791 225.823773,98.4339084 C225.694011,98.3476376 225.525116,98.3439908 225.391647,98.4245779 L220,101.597236 Z" id="Path" fill="url(#linearGradient-8)" fill-rule="nonzero" style="mix-blend-mode: multiply;"></path>
            <path d="M244.813233,133.366577 L241,139.097969 L244.650365,139.97834 C245.507821,140.185852 246.385429,140.29553 247.266873,140.305335 L254.110865,140.366422 C254.945518,140.37642 255.712588,139.902067 256.086524,139.144683 L257,137.304888 L244.813233,133.366577 Z" id="Path" fill="#9DADB7" fill-rule="nonzero"></path>
            <path d="M90,98.8210706 L86.957798,106.964302 C86.8904187,107.143476 86.8468642,107.330843 86.8282681,107.521526 L86.5447026,110.244165 C86.5089099,110.579531 86.3988461,110.902526 86.2226283,111.18933 L83.0508964,116.366577 L68.3054937,114.955883 L63.1067941,104.66487 L61.048319,96.0561104 C60.8436214,95.2033126 61.3057602,94.3313328 62.1230671,94.0282378 L62.7497117,93.7954733 L78.940948,85.3665768 L89.3943602,92.7938806 L90,98.8210706 Z" id="Path" fill="#B7C3CB" fill-rule="nonzero"></path>
            <path d="M89.3704003,92.3153519 L86.4807926,90.3665768 L86.8956733,92.5867884 L82.2883138,105.810619 L81,113.605719 L82.8960776,115.366577 L86.0731905,110.473759 C86.2563797,110.19076 86.3707977,109.872049 86.4080065,109.541131 L86.7027901,106.854606 C86.722122,106.666452 86.7673995,106.481571 86.8374444,106.304773 L90,98.2799955 L89.3704003,92.3153519 Z" id="Path" fill="#A7B5BE" fill-rule="nonzero"></path>
            <path d="M34,328.207743 L28.029609,323.876581 C27.735517,323.66159 27.3756041,323.536632 27.0003553,323.519235 L23.8910016,323.370341 C23.4457193,323.348019 23.0011838,323.425219 22.5954376,323.595337 L17.0317097,325.911466 C17.0041851,326.094494 16.9945498,326.27942 17.0029194,326.464029 L17.0569013,327.307761 C17.0969662,327.904887 17.6369928,328.369453 18.2876871,328.366577 L33.5861393,328.273918 C33.7274332,328.27648 33.8679427,328.254012 34,328.207743 Z" id="Path" fill="url(#linearGradient-9)" fill-rule="nonzero" style="mix-blend-mode: multiply;"></path>
            <rect id="Rectangle" fill="#E3E8EB" fill-rule="nonzero" x="90" y="219.366577" width="113" height="5" rx="2.5"></rect>
            <path d="M81.432349,226.440914 L86.8367114,229.063701 C87.8521094,229.555619 89.0682417,229.44167 89.9676386,228.77034 L96.6366218,223.961314 C96.9598209,223.72451 97.0839233,223.309899 96.9416688,222.94219 C96.7994144,222.574481 96.4246649,222.341201 96.0205245,222.368783 L93.0913601,222.581819 L81,226.126598 C81.1263117,226.252598 81.2721941,226.358654 81.432349,226.440914 L81.432349,226.440914 Z" id="Path" fill="url(#linearGradient-10)" fill-rule="nonzero" style="mix-blend-mode: multiply;"></path>
            <path d="M232.993343,329.355628 C233.002219,329.268274 233.002219,329.180208 232.993343,329.092854 L231.806007,322.184095 L227.223742,317.096504 L219.019035,316.366577 L216.281763,318.73154 L216.338641,321.888475 C216.346082,322.41449 216.146074,322.921252 215.784077,323.293584 L213.651137,325.483365 C213.221486,325.927746 212.986604,326.532578 213.000591,327.158548 L213.053914,329.366577 L232.993343,329.355628 Z" id="Path" fill="#9DADB7" fill-rule="nonzero"></path>
            <path d="M223,329.351251 L221.891978,328.830178 C221.251629,328.520304 220.765237,327.932002 220.555203,327.213321 C220.23326,326.113614 219.282138,325.365633 218.20691,325.366577 L217.345512,325.366577 C216.172904,325.365893 215.162973,326.252815 214.932883,327.485351 L214.875695,327.791865 C214.782809,328.283778 214.560847,328.737043 214.235902,329.098378 L214,329.366577 L223,329.351251 Z" id="Path" fill="url(#linearGradient-11)" fill-rule="nonzero" style="mix-blend-mode: multiply;"></path>
            <path d="M231.262134,103.74442 L221.412622,111.867551 L207.822565,126.019598 L207,130.769111 L234.144658,132.366577 L243.93035,123.117714 L252,108.029345 L251.751812,107.779182 C251.312653,107.336904 251.004479,106.780006 250.861882,106.170995 C250.627087,105.162966 249.944226,104.3204 249.011109,103.88737 L239.27151,99.3665768 L234.399937,101.153451 L231.262134,103.74442" id="Path" fill="url(#linearGradient-12)" fill-rule="nonzero" style="mix-blend-mode: multiply;"></path>
            <path d="M230.425886,132.297957 L233.473416,132.227657 C235.034686,132.192243 236.595878,132.30167 238.137218,132.554551 L244.036788,133.531719 L244.036788,133.531719 L256,137.366577 L255.493824,118.649239 C255.517832,118.057449 255.455496,117.465314 255.308808,116.891743 L254.191729,112.585876 C253.927634,111.56436 253.397367,110.632406 252.655747,109.886362 L250.809076,108.02693 C250.400231,107.578265 250.102404,107.038714 249.93985,106.452214 L249.93985,106.452214 C249.830221,106.041208 249.531699,105.707951 249.13695,105.55589 L247.077336,104.694717 C245.942935,104.220846 244.660806,104.26183 243.558539,104.807197 L242.762621,105.200876 C241.816206,105.670107 241.032616,106.416232 240.514501,107.341507 L237.470462,112.775686 C237.067675,113.48384 236.829008,114.274483 236.772288,115.088551 L236.520945,119.127278 C236.472501,119.923148 236.135915,120.673506 235.574919,121.236274 L233.805048,123.02189 C233.157982,123.68218 232.67894,124.49012 232.4087,125.376936 L230,133.176705 L230,133.176705 L230.425886,132.297957 Z" id="Path" fill="#FFFFFF" fill-rule="nonzero"></path>
            <path d="M66.1961482,108.303105 L66.7478799,99.287961 C66.7606348,99.1038797 66.8919886,98.9488337 67.0732602,98.9038922 L68.7143087,98.4988741 C68.8686423,98.4594674 68.9891618,98.3404884 69.0290787,98.1881275 L69.930948,94.5394732 C70.0023572,94.2604033 70.2872921,94.0894519 70.5710983,94.1554043 L84.7180675,97.5072781 C85.2643472,97.6368307 85.840685,97.5176543 86.288381,97.1825653 L88.1593177,95.7859513 C88.2545874,95.7159142 88.3776393,95.6941005 88.4916396,95.72704 C88.6056399,95.7599795 88.6973595,95.8438495 88.7393434,95.953545 L89.7826824,98.7467731 L91.7526479,94.3858457 C91.9429297,93.9639145 92.0255071,93.502357 91.9931463,93.0416046 L91.5475168,86.6311461 C91.5123325,86.140403 91.3133233,85.6750254 90.981638,85.3078543 L85.8462882,79.5887197 C85.5893538,79.3055393 85.2297587,79.1336848 84.8453902,79.1103794 L72.113118,78.3701739 C71.6172998,78.3417665 71.1266336,78.4822778 70.7231783,78.7682089 L63.1404028,84.1312069 C62.8388801,84.3454775 62.6486051,84.6802724 62.6205017,85.0459891 L62.0015718,93.774827 C61.9907587,93.8980712 62.0361356,94.0196627 62.1253578,94.1065229 L64.3358217,96.3271392 C64.639874,96.6336879 64.794648,97.0551492 64.7602308,97.4828373 L64.3216747,102.803937 C64.2822573,103.236976 64.0367728,103.625768 63.6603039,103.851397 L62.9529555,104.26689 C62.6996427,104.417482 62.5523652,104.694809 62.5709873,104.986146 L62.9847862,111.428029 C63.0129246,111.86061 63.2248676,112.261325 63.5683486,112.531354 L73.347441,120.244155 L79.4094173,120.366577 C79.9270276,120.375304 80.4094435,120.108498 80.6720343,119.668052 L84.4457383,113.351865 L74.8257993,112.691964 C74.5035797,112.670104 74.1849866,112.769952 73.9345403,112.971287 L72.427888,114.175867 C72.1865765,114.368285 71.8379216,114.35332 71.6144373,114.140952 L66.5958,109.343582 C66.3177853,109.069269 66.1722717,108.69043 66.1961482,108.303105 L66.1961482,108.303105 Z" id="Path" fill="#023852" fill-rule="nonzero"></path>
            <path d="M88.7635397,95.4879077 L89.7991364,98.3665768 L91.7544834,93.8722547 C91.9433532,93.4374172 92.0253178,92.9617413 91.9931972,92.4868951 L91.5508745,85.8803495 C91.516739,85.3744023 91.3191032,84.8945385 90.989195,84.51658 L85.8884424,78.6261034 C85.6334146,78.3342608 85.2764879,78.1571496 84.8949716,78.1331313 L72.2571814,77.370284 C71.7650425,77.3410076 71.2780174,77.485817 70.8775559,77.7804943 L63.3510497,83.307539 C63.2084175,83.4144428 63.0888975,83.5504296 63,83.7069543 L64.6534442,85.2686323 C65.1954271,85.7834384 66.0180215,85.8302816 66.6123017,85.3801808 L71.8359217,81.4220107 C72.1281833,81.2003121 72.4876344,81.0919458 72.8504554,81.1161521 L83.2380169,81.7854427 C83.7680261,81.8182556 84.2644671,82.0623547 84.6211529,82.4655283 L87.657733,85.8875462 C88.1444757,86.4322166 88.3116455,87.2012474 88.0965452,87.9062129 L85.2881473,97.1395441 C85.6623405,97.1220688 86.0229297,96.9905121 86.323744,96.7617188 L88.1807971,95.3223842 C88.2746773,95.2468894 88.397967,95.2216066 88.5129572,95.2542686 C88.6279473,95.2869307 88.7209574,95.3736518 88.7635397,95.4879077 Z" id="Path" fill="#2D5A6F" fill-rule="nonzero"></path>
            <path d="M208.907699,78.2930793 C208.890209,77.5255651 209.107884,76.7725858 209.528362,76.1460843 L214.428156,68.6206849 C214.80575,68.0388293 215.410607,67.6662452 216.076363,67.605411 L227.417266,66.5646643 C227.610957,66.5427859 227.806308,66.5427859 228,66.5646643 L226.682814,65.2000488 C226.107386,64.6040518 225.313687,64.3035695 224.510491,64.3776406 L213.179933,65.4220263 C212.515422,65.4839129 211.912021,65.8563793 211.535174,66.4373002 L206.621588,73.9772555 C206.201597,74.6026358 205.983934,75.3542973 206.000924,76.1206115 L206.069887,78.8789542 L208.935284,79.3665768 L208.907699,78.2930793 Z" id="Path" fill="#2D5A6F" fill-rule="nonzero"></path>
            <path d="M234.599186,71.0758965 C234.798142,71.2807578 235.0718,71.3856673 235.349949,71.3637086 L236,71.3061462 L234.904374,69.892669 C234.624309,69.5280181 234.189831,69.332732 233.744659,69.3714094 L233,69.4321697 L234.599186,71.0758965 Z" id="Path" fill="#2D5A6F" fill-rule="nonzero"></path>
            <path d="M219.644726,79.2012782 L227.582829,86.1945563 C227.659026,86.2601102 227.762607,86.2840089 227.85984,86.2584701 C227.957074,86.2329313 228.03552,86.1612226 228.069633,86.0666954 L228.925982,83.5805123 C228.999147,83.3759323 229.188567,83.2356853 229.405679,83.2253432 L231.02599,83.147206 C231.415304,83.1296275 231.778572,83.3424804 231.953405,83.6906147 L232.713814,85.2142898 C233.00487,85.7921238 233.076815,86.4557384 232.916353,87.0824788 L232.241223,89.7071779 C232.037548,90.482772 231.415531,91.0784276 230.631572,91.2486115 L229.89959,91.4013342 C229.687105,91.4436992 229.528804,91.6222512 229.512278,91.8381921 L229.107201,96.3026667 L217.555377,103.182291 C216.593975,103.604319 215.468188,103.281959 214.876178,102.415126 L211.070579,96.8425236 L209.102043,96.8425236 C208.8564,96.8406868 208.621771,96.7403884 208.450762,96.5641168 C208.279754,96.3878451 208.186675,96.1503486 208.192395,95.9048774 L208.348741,89.4123876 C208.358432,88.9902743 208.217339,88.57852 207.950769,88.2509849 L206.774622,86.8303088 C206.336967,86.2939135 206.092873,85.625778 206.081726,84.9337062 L206,78.4128029 L217.949795,78.3665768 C218.614897,78.3618702 219.243203,78.6712717 219.644726,79.2012782 L219.644726,79.2012782 Z" id="Path" fill="#0099DA" fill-rule="nonzero"></path>
            <path d="M210.999564,91.0492526 C211.0086,90.6415388 210.877043,90.2438306 210.628489,89.9274688 L209.535145,88.5552561 C209.118323,88.0411228 208.88443,87.3945073 208.872513,86.7233521 L208.792997,80.4248959 L208.739986,78.3665768 L206,78.3665768 L206.076203,84.6650331 C206.086596,85.3334962 206.314193,85.9788397 206.72227,86.496937 L207.818927,87.8691497 C208.06748,88.1855116 208.199038,88.5832198 208.190001,88.9909336 L208.044222,95.2619456 C208.038889,95.499043 208.125677,95.7284379 208.285128,95.8986964 C208.444578,96.0689548 208.66335,96.1658318 208.892392,96.167606 L210.727884,96.167606 L210.857098,96.3665768 L210.999564,91.0492526 Z" id="Path" fill="#2BA8E0" fill-rule="nonzero"></path>
            <path d="M235,94.9341183 C234.483069,94.4071096 234.045787,93.8096245 233.701584,93.1600118 C233.369398,92.5390355 233.126862,91.8754312 232.980997,91.1884104 L232.389572,88.3665768 L232.076865,89.5682829 C231.882035,90.2992591 231.287032,90.8606482 230.537121,91.0210419 L230.122443,91.1047261 C229.748346,91.1825558 229.46491,91.4845014 229.415452,91.8578846 L229.007573,94.9876763 C228.987147,95.146469 229.008205,95.3077685 229.068755,95.4563082 L229.364468,96.1893824 C229.41814,96.3221088 229.564345,96.394101 229.704367,96.3567509 L235,94.9341183 Z" id="Path" fill="url(#linearGradient-13)" fill-rule="nonzero" style="mix-blend-mode: multiply;"></path>
            <path d="M144.738601,170.366577 C142.288837,170.362643 139.971301,171.459632 138.445238,173.345505 L136,176.366577 L158,176.366577 L155.640435,173.391172 C154.119168,171.486455 151.794599,170.373093 149.332792,170.3701 L144.738601,170.366577 Z" id="Path" fill="#2BA8E0" fill-rule="nonzero"></path>
            <path d="M161,181.123502 C160.998245,180.135396 160.690725,179.170493 160.117156,178.353419 L158.483717,175.929596 L156.810961,175.929596 C156.446731,175.921733 156.11154,175.735247 155.920969,175.434444 L153.658459,172.806328 C153.421727,172.528138 153.069142,172.366876 152.696982,172.366577 L142.331612,172.366577 C141.958426,172.366815 141.60472,172.52799 141.366561,172.806328 L139.104051,175.434444 C138.907185,175.731702 138.567903,175.911695 138.203336,175.912283 L136.512708,175.912283 L134.882844,178.336106 C134.307667,179.15243 134,180.117824 134,181.106189 L134,192.366577 L146.974583,191.916438 L146.974583,191.916438 L147.5,191.916438 L148.025417,191.916438 L148.025417,191.916438 L161,192.366577 L161,181.123502 Z" id="Path" fill="#023852" fill-rule="nonzero"></path>
            <path d="M147.5,192.886391 L148.025417,192.886391 L148.025417,192.886391 L161,193.352243 L161,181.741788 C160.998245,180.719189 160.690725,179.720605 160.117156,178.875009 L158.483717,176.366577 L158.179905,176.366577 L134,187.683187 L134,192.556712 L134.632645,193.366577 L146.985306,192.904309 L146.985306,192.904309 L147.5,192.886391 Z" id="Path" fill="#023852" fill-rule="nonzero" style="mix-blend-mode: multiply;"></path>
            <path d="M145,171.366577 L147.045107,168.613484 C147.189554,168.4559 147.390768,168.366577 147.6013,168.366577 C147.811831,168.366577 148.013045,168.4559 148.157492,168.613484 L150,171.106999 L145,171.366577 Z" id="Path" fill="#2BA8E0" fill-rule="nonzero"></path>
            <rect id="Rectangle" fill="#D7DDE2" fill-rule="nonzero" x="96" y="188.366577" width="101" height="11"></rect>
            <path d="M235.755776,136.366577 L222.137074,187.928958 C221.769934,189.308575 220.85189,190.480341 219.594587,191.174119 L209.879536,196.524437 C208.96343,197.031664 208.372701,197.968424 208.313844,199.007265 L208,204.696786 L212.866341,204.78421 L213.218975,204.801694 L229.997272,206.340348 C230.338418,206.37532 230.68229,206.37532 231.023436,206.340348 L248.489369,204.242184 C249.370531,204.158569 250.206582,203.816466 250.890802,203.259544 C251.810217,202.472345 252.995091,202.057787 254.209083,202.09856 L259.255267,202.262916 C259.743478,202.280964 260.215482,202.087627 260.548539,201.733179 C260.881597,201.378731 261.042797,200.898196 260.990223,200.416531 L256.899676,161.820804 C256.819785,161.056538 256.792687,160.287749 256.81857,159.519817 L256.88557,157.488095 C256.912635,156.70137 256.883174,155.913732 256.797412,155.131157 L255.386878,142.021129 C255.28936,141.11646 255.265774,140.205452 255.316352,139.297013 L235.755776,136.366577 Z" id="Path" fill="url(#linearGradient-14)" fill-rule="nonzero" style="mix-blend-mode: multiply;"></path>
            <path d="M178.573474,157.409743 C179.451677,157.411454 180.304724,157.709893 181,158.258663 L179.14318,156.129168 C178.720814,155.643393 178.115339,155.365812 177.479779,155.366577 L114.351419,155.366577 C113.662822,155.366507 113.01321,155.693425 112.593067,156.25147 L111,158.366577 C111.703485,157.785774 112.578762,157.466208 113.482793,157.460102 L129.768651,157.460102 L162.291133,157.431326 L178.573474,157.409743 Z" id="Path" fill="#E2E6E9" fill-rule="nonzero"></path>
            <path d="M41.2518181,125.366577 L39.302677,126.732174 L30.3852686,138.376607 C30.3263336,138.512453 30.2848836,138.655176 30.2619053,138.801381 L20.0156972,201.808402 C19.9418255,202.254273 20.1325898,202.702617 20.505626,202.959857 L25.1793349,206.193056 C25.5663068,206.459969 26.0865016,206.428041 26.4376412,206.115825 L31.3334041,201.766276 C31.4364458,201.662315 31.5933578,201.632775 31.7273883,201.692105 C31.8614188,201.751436 31.9445513,201.887234 31.9361223,202.033076 L31.9361223,207.425253 C31.935524,207.651677 32.0969656,207.8464 32.320311,207.888643 L78,216.366577 L55.6324609,174.84752 L41.2518181,125.366577 Z" id="Path" fill="url(#linearGradient-15)" fill-rule="nonzero" style="mix-blend-mode: multiply;"></path>
            <path d="M85.7115068,212.187326 L95.1301584,217.201888 C95.3540498,217.321067 95.5359318,217.505297 95.65146,217.729921 L96.4686355,219.338497 L91.2873204,219.42592 L92.0868843,222.692029 L96.0424362,222.394792 C96.4375356,222.367175 96.8039016,222.600755 96.9429737,222.96894 C97.0820458,223.337124 96.9607197,223.75227 96.6447509,223.989381 L90.1284811,228.78014 C89.2479486,229.444912 88.0628329,229.553476 87.07464,229.059893 L81.791178,226.433717 C81.457263,226.268161 81.1865512,225.999402 81.0197926,225.667895 L77.2720569,218.229978 C76.8063063,217.306548 76.2544134,216.428483 75.6236167,215.607299 L59.6957399,194.944088 C59.2902827,194.419254 58.9174018,193.87039 58.5791683,193.300543 L51.7177123,181.760756 C51.0277855,180.599618 50.5697502,179.317345 50.3686683,177.984099 L50.3686683,177.984099 C50.2412829,177.150188 50.0142545,176.33432 49.6923852,175.55375 L43,159.366577 L52.9012078,160.100927 L62.4994971,161.083557 L62.9362633,174.347318 C62.9523821,175.474684 63.3094995,176.571206 63.9612549,177.494532 L70.1112047,186.187838 C70.4060502,186.60229 70.6708889,187.036999 70.903724,187.488687 L77.434083,200.150979 C78.6191019,202.446198 80.0002107,204.636292 81.562228,206.697186 L85.7326407,212.197817" id="Path" fill="#B7C3CB" fill-rule="nonzero"></path>
            <path d="M65.5505733,189.576593 L56.2459984,178.08257 C54.8269031,176.329995 53.9733577,174.180496 53.8002043,171.923281 L52.8922693,160.112942 L43,159.366577 L49.6863435,175.818596 C50.0098514,176.617418 50.236716,177.452752 50.3620161,178.30648 C50.5660188,179.656287 51.0234955,180.954302 51.7098422,182.130713 L58.5651039,193.859307 C58.903032,194.438478 59.2755763,194.996322 59.6806675,195.529743 L74,214.366577 L68.0526734,194.314234 C67.5346574,192.584453 66.6844516,190.974617 65.5505733,189.576593 L65.5505733,189.576593 Z" id="Path" fill="#A7B5BE" fill-rule="nonzero"></path>
            <path d="M62.2870059,151.902292 C61.5844351,150.411782 61.3187109,148.748909 61.5212755,147.110435 L62.7520386,137.10235 L54.5387931,122.822262 C53.5643435,121.13338 51.6983666,120.182805 49.7765793,120.396274 L45.622754,120.863082 L40.8185824,121.404155 L37.7381783,128.020808 L37.0004197,159.321714 C36.9819822,160.098198 37.5731777,160.750789 38.3395738,160.79994 L62.4478443,162.366577 L62.762528,158.423462 L62.9758137,155.696877 C63.0807248,154.392729 62.843104,153.083695 62.2870059,151.902292 L62.2870059,151.902292 Z" id="Path" fill="#2BA8E0" fill-rule="nonzero"></path>
            <path d="M62.4025291,152.152423 C61.6342575,150.395264 61.3453316,148.466432 61.5650831,146.561741 L62.6935061,137.499027 C62.7295431,137.205399 62.6684852,136.908057 62.5196296,136.652276 L54.8655151,123.497523 C53.6093971,121.344125 51.2004449,120.131832 48.7195131,120.404579 L44.2200151,120.904127 C43.6454777,120.959042 43.1696522,121.372947 43.0364753,121.933648 C42.9032985,122.49435 43.1423043,123.077504 43.6309641,123.38415 L47.8430336,126.122805 C48.0185647,126.237116 48.1644866,126.391306 48.2688536,126.572752 L56.2174936,140.212881 C56.3648479,140.467885 56.4246622,140.763995 56.3878216,141.056089 L55.2593986,150.118804 C55.0385388,152.023846 55.3287777,153.953268 56.1003931,155.709485 C56.5762295,156.826636 56.7734906,158.042372 56.6752501,159.252376 L56.5652466,160.616389 C56.5369515,160.976347 56.6542741,161.332619 56.8909939,161.605581 C57.1277138,161.878544 57.4640965,162.045441 57.8249641,162.068974 L62.4380141,162.366577 L62.9738376,155.684685 C63.0756173,154.478333 62.8794488,153.265471 62.4025291,152.152423 L62.4025291,152.152423 Z" id="Path" fill="#2BA8E0" fill-rule="nonzero"></path>
            <rect id="Rectangle" fill="#FFFFFF" fill-rule="nonzero" x="67" y="137.366577" width="8" height="9" rx="2.8"></rect>
            <rect id="Rectangle" fill="#FFE700" fill-rule="nonzero" x="220" y="119.366577" width="8" height="9"></rect>
            <path d="M244.813233,133.366577 L241,139.097969 L244.650365,139.97834 C245.507821,140.185852 246.385429,140.29553 247.266873,140.305335 L254.110865,140.366422 C254.945518,140.37642 255.712588,139.902067 256.086524,139.144683 L257,137.304888 L244.813233,133.366577 Z" id="Path" fill="#9DADB7" fill-rule="nonzero"></path>
            <path d="M231.233294,131.426332 L226.130727,142.385614 C225.902795,142.877909 225.548602,143.300257 225.104571,143.609223 L198.406894,162.179709 C197.97668,162.477499 197.446409,162.591056 196.932897,162.495365 L191.431857,161.45973 C190.794568,161.342388 190.139812,161.537316 189.668703,161.984641 L186.770078,164.761701 C186.059044,165.439799 185.81411,166.476695 186.145922,167.403988 L187.36955,170.815907 C187.60527,171.472635 188.119366,171.989779 188.772285,172.226956 C189.425205,172.464134 190.149205,172.396738 190.747753,172.043063 L193.403063,170.475424 C194.0268,170.106309 194.798204,170.096864 195.43069,170.450597 L196.583793,171.089002 C197.298689,171.493433 198.171576,171.493433 198.886472,171.089002 L232.915343,151.58219 C233.273854,151.371881 233.52932,151.021154 233.620604,150.613942 L233.803972,149.784016 C233.91632,149.275281 234.141766,148.798745 234.463392,148.390166 L245,132.688955 L239.04054,131.702974 C237.483553,131.447813 235.906512,131.337399 234.329392,131.373132 L231.233294,131.426332 Z" id="Path" fill="#0099DA" fill-rule="nonzero"></path>
            <path d="M233,151.36006 L198.906187,171.075348 C198.189926,171.484102 197.315373,171.484102 196.599113,171.075348 L195.44381,170.430121 C194.810116,170.072607 194.03724,170.082153 193.412313,170.455213 L190.751936,172.039605 C190.152245,172.39706 189.426863,172.465177 188.772697,172.225464 C188.118532,171.985752 187.603455,171.463082 187.367286,170.799334 L186.141322,167.350951 C186.054674,167.108118 186.006961,166.852761 186,166.594601 L186.374502,167.652057 C186.610671,168.315805 187.125748,168.838475 187.779914,169.078187 C188.43408,169.3179 189.159461,169.249783 189.759152,168.892328 L192.433662,167.325859 C193.058359,166.953121 193.830482,166.942222 194.465158,167.297182 L195.620462,167.945994 C196.336722,168.354748 197.211275,168.354748 197.927535,167.945994 L227.085695,149.761329 C227.866931,149.276293 228.839825,149.235616 229.657746,149.653791 L233,151.36006 Z" id="Path" fill="url(#linearGradient-16)" fill-rule="nonzero" style="mix-blend-mode: multiply;"></path>
        </g>
    </g>
</svg>