<?xml version="1.0" encoding="UTF-8"?>
<svg width="440px" height="330px" viewBox="0 0 440 330" version="1.1" xmlns="http://www.w3.org/2000/svg" xmlns:xlink="http://www.w3.org/1999/xlink">
    <title>Graphic elements / Icons / Rich icons / Marketplace / Industries-Construction</title>
    <defs>
        <linearGradient x1="-0.024008082%" y1="49.6292085%" x2="99.8976292%" y2="49.6292085%" id="linearGradient-1">
            <stop stop-color="#FFFFFF" offset="0%"></stop>
            <stop stop-color="#FFFFFF" stop-opacity="0.2" offset="0%"></stop>
            <stop stop-color="#FFFFFF" stop-opacity="0.6" offset="100%"></stop>
        </linearGradient>
        <linearGradient x1="0%" y1="50%" x2="100%" y2="50%" id="linearGradient-2">
            <stop stop-color="#FFFFFF" stop-opacity="0" offset="0%"></stop>
            <stop stop-color="#F8C726" stop-opacity="0.57" offset="84%"></stop>
        </linearGradient>
        <linearGradient x1="0.0144301147%" y1="50.3897525%" x2="100%" y2="50.3897525%" id="linearGradient-3">
            <stop stop-color="#FFFFFF" stop-opacity="0" offset="0%"></stop>
            <stop stop-color="#F8C726" stop-opacity="0.57" offset="84%"></stop>
        </linearGradient>
    </defs>
    <g id="Graphic-elements-/-Icons-/-Rich-icons-/-Marketplace-/-Industries-Construction" stroke="none" stroke-width="1" fill="none" fill-rule="evenodd">
        <g id="Construction" transform="translate(0.000000, 84.000000)">
            <path d="M244.09,225.05 L244.09,224.75 L200.31,224.75 L200.31,243.88 L223.49,243.88 L223.49,243.95 L237.34,243.95 L237.34,244.25 L266.92,244.25 L266.92,225.05 L244.09,225.05 Z M213.09,237.73 L208.15,237.73 L208.15,232.29 L213.09,232.29 L213.09,237.73 Z M236.27,237.8 L231.33,237.8 L231.33,232.36 L236.27,232.36 L236.27,237.8 Z M259.09,238.11 L254.16,238.11 L254.16,232.66 L259.09,232.66 L259.09,238.11 Z" id="Shape" fill="#527991" fill-rule="nonzero"></path>
            <path d="M200.31,223.91 L220.91,223.91 L220.91,206.05 L200.31,206.05 L200.31,223.91 Z M208.14,212.32 L213.08,212.32 L213.08,217.75 L208.14,217.75 L208.14,212.32 Z" id="Shape" fill="#EAEDEF" fill-rule="nonzero"></path>
            <path d="M223,223.91 L244,223.91 L244,205.65 L223,205.65 L223,223.91 Z M231.24,212.32 L236.17,212.32 L236.17,217.75 L231.24,217.75 L231.24,212.32 Z" id="Shape" fill="#EAEDEF" fill-rule="nonzero"></path>
            <path d="M200.31,186.25 L220.91,186.25 L220.91,168.75 L200.31,168.75 L200.31,186.25 Z M208.14,174.66 L213.08,174.66 L213.08,180.1 L208.14,180.1 L208.14,174.66 Z" id="Shape" fill="#EAEDEF" fill-rule="nonzero"></path>
            <path d="M200.31,205.54 L220.91,205.54 L220.91,187.68 L200.31,187.68 L200.31,205.54 Z M208.14,193.96 L213.08,193.96 L213.08,199.4 L208.14,199.4 L208.14,193.96 Z" id="Shape" fill="#EAEDEF" fill-rule="nonzero"></path>
            <path d="M200.31,167.95 L220.91,167.95 L220.91,150.48 L200.31,150.48 L200.31,167.95 Z M208.14,156.44 L213.08,156.44 L213.08,161.85 L208.14,161.85 L208.14,156.44 Z" id="Shape" fill="#EAEDEF" fill-rule="nonzero"></path>
            <rect id="Rectangle" fill="#96A6AE" fill-rule="nonzero" x="246.32" y="123.13" width="7.83" height="100.84"></rect>
            <rect id="Rectangle" fill="#C3D0DA" fill-rule="nonzero" style="mix-blend-mode: multiply;" x="223.31" y="204.85" width="2.7" height="38.32"></rect>
            <rect id="Rectangle" fill="#33617E" fill-rule="nonzero" x="117.31" y="199.89" width="1" height="44.97"></rect>
            <rect id="Rectangle" fill="#33617E" fill-rule="nonzero" x="117.11" y="199.69" width="1" height="45.37"></rect>
            <rect id="Rectangle" fill="#33617E" fill-rule="nonzero" x="136.53" y="199.89" width="1" height="44.97"></rect>
            <rect id="Rectangle" fill="#33617E" fill-rule="nonzero" x="136.33" y="199.69" width="1" height="45.37"></rect>
            <rect id="Rectangle" fill="#33617E" fill-rule="nonzero" x="155.74" y="199.89" width="1" height="44.97"></rect>
            <rect id="Rectangle" fill="#33617E" fill-rule="nonzero" x="155.54" y="199.69" width="1" height="45.37"></rect>
            <rect id="Rectangle" fill="#33617E" fill-rule="nonzero" x="174.96" y="199.89" width="1" height="44.97"></rect>
            <rect id="Rectangle" fill="#33617E" fill-rule="nonzero" x="174.76" y="199.69" width="1" height="45.37"></rect>
            <rect id="Rectangle" fill="#33617E" fill-rule="nonzero" x="194.17" y="199.89" width="1" height="44.97"></rect>
            <rect id="Rectangle" fill="#33617E" fill-rule="nonzero" x="193.97" y="199.69" width="1" height="45.37"></rect>
            <rect id="Rectangle" fill="#33617E" fill-rule="nonzero" x="117.31" y="236.59" width="76.86" height="1"></rect>
            <rect id="Rectangle" fill="#33617E" fill-rule="nonzero" x="117.11" y="236.39" width="77.26" height="1"></rect>
            <rect id="Rectangle" fill="#33617E" fill-rule="nonzero" x="117.31" y="227.09" width="76.86" height="1"></rect>
            <rect id="Rectangle" fill="#33617E" fill-rule="nonzero" x="117.11" y="226.89" width="77.26" height="1"></rect>
            <rect id="Rectangle" fill="#33617E" fill-rule="nonzero" x="117.49" y="217.59" width="76.86" height="1"></rect>
            <rect id="Rectangle" fill="#33617E" fill-rule="nonzero" x="117.29" y="217.39" width="77.26" height="1"></rect>
            <rect id="Rectangle" fill="#33617E" fill-rule="nonzero" x="117.67" y="208.09" width="76.86" height="1"></rect>
            <rect id="Rectangle" fill="#33617E" fill-rule="nonzero" x="117.47" y="207.89" width="77.26" height="1"></rect>
            <rect id="Rectangle" fill="#C8D1D5" fill-rule="nonzero" x="197.91" y="243.17" width="71.41" height="1.67"></rect>
            <rect id="Rectangle" fill="#BCC6CB" fill-rule="nonzero" x="197.91" y="123.13" width="2.4" height="121.71"></rect>
            <rect id="Rectangle" fill="#BCC6CB" fill-rule="nonzero" x="220.91" y="123.31" width="2.4" height="121.53"></rect>
            <rect id="Rectangle" fill="#BCC6CB" fill-rule="nonzero" x="243.92" y="123.13" width="2.4" height="121.71"></rect>
            <rect id="Rectangle" fill="#BCC6CB" fill-rule="nonzero" x="266.92" y="123.13" width="2.4" height="121.71"></rect>
            <path d="M331.41,54.24 L327.36,50.24 C327.189637,50.0645096 326.954562,49.966863 326.71,49.97 L321.43,49.97 C321.186328,49.968631 320.952927,49.8716799 320.78,49.7 L316.28,45.2 C316.108318,45.0264601 315.874111,44.929174 315.63,44.9299948 L307.33,44.9299948 C307.087773,44.9382566 306.856788,45.0342043 306.68,45.2 L302.54,49.35 C302.360655,49.5180473 302.125704,49.6141633 301.88,49.62 L296.38,49.62 L295.68,49.92 L290.07,55.85 L330.76,55.85 C331.150286,55.8680904 331.509429,55.6376977 331.655696,55.2754051 C331.801963,54.9131125 331.703447,54.4979509 331.41,54.24 Z" id="Path" fill="url(#linearGradient-1)" fill-rule="nonzero"></path>
            <polygon id="Path" fill="#F8C41C" points="216.08 62.4 218.68 62.4 208.24 48.14 205.64 48.14"></polygon>
            <polygon id="Path" fill="#F8C41C" points="191.25 62.4 193.85 62.4 183.41 48.14 180.81 48.14"></polygon>
            <polygon id="Path" fill="#F8C41C" points="166.42 62.4 169.03 62.4 158.58 48.14 155.98 48.14"></polygon>
            <polygon id="Path" fill="#F8C41C" points="141.59 62.4 144.2 62.4 133.76 48.14 131.15 48.14"></polygon>
            <polygon id="Path" fill="#F8C41C" points="116.77 62.4 119.37 62.4 108.93 48.14 106.33 48.14"></polygon>
            <polygon id="Path" fill="#F8C41C" points="50.29 62.4 52.89 62.4 42.45 48.14 39.85 48.14"></polygon>
            <polygon id="Path" fill="#023852" fill-rule="nonzero" points="218.07 49.3 84.01 2.22 28.61 46.13 28.23 45.65 83.32 1.98 83.16 1.92 25.91 46.13 25.54 45.65 83.05 1.23 83.89 1.53 84.27 1.23 218.27 48.72"></polygon>
            <polygon id="Path" fill="#33617E" fill-rule="nonzero" points="173.99 49.28 82.96 1.85 83.25 1.3 84.21 1.8 84.47 1.3 174.28 48.73"></polygon>
            <polygon id="Path" fill="#023852" points="24.74 42.64 24.74 62.4 29.41 62.4 29.41 42.64 28.69 42.64 25.46 42.64"></polygon>
            <polygon id="Path" fill="#023852" points="24.74 51.37 24.74 62.4 0 62.4 0 51.37 3.82 51.37 20.92 51.37"></polygon>
            <polygon id="Path" fill="#F8C41C" points="220.02 62.4 222.63 62.4 220.65 48.14 218.05 48.14"></polygon>
            <polygon id="Path" fill="#F8C41C" points="195.19 62.4 197.8 62.4 195.82 48.14 193.22 48.14"></polygon>
            <polygon id="Path" fill="#F8C41C" points="170.37 62.4 172.97 62.4 171 48.14 168.39 48.14"></polygon>
            <polygon id="Path" fill="#F8C41C" points="145.54 62.4 148.14 62.4 146.17 48.14 143.57 48.14"></polygon>
            <polygon id="Path" fill="#F8C41C" points="120.71 62.4 123.31 62.4 121.34 48.14 118.74 48.14"></polygon>
            <polygon id="Path" fill="#F8C41C" points="54.23 62.4 56.84 62.4 54.87 48.14 52.26 48.14"></polygon>
            <polygon id="Path" fill="#F8C41C" points="220.02 62.4 221.91 62.4 222.63 62.4 208.24 48.14 207.52 48.14 205.64 48.14 204.92 48.14 219.3 62.4"></polygon>
            <polygon id="Path" fill="#F8C41C" points="195.19 62.4 197.08 62.4 197.8 62.4 183.41 48.14 182.69 48.14 180.81 48.14 180.09 48.14 194.47 62.4"></polygon>
            <polygon id="Path" fill="#F8C41C" points="170.37 62.4 172.25 62.4 172.97 62.4 158.58 48.14 157.86 48.14 155.98 48.14 155.26 48.14 169.65 62.4"></polygon>
            <polygon id="Path" fill="#F8C41C" points="145.54 62.4 147.42 62.4 148.14 62.4 133.76 48.14 133.04 48.14 131.15 48.14 130.43 48.14 144.82 62.4"></polygon>
            <polygon id="Path" fill="#F8C41C" points="120.71 62.4 122.59 62.4 123.31 62.4 108.93 48.14 108.21 48.14 106.33 48.14 105.61 48.14 119.99 62.4"></polygon>
            <polygon id="Path" fill="#F8C41C" points="54.23 62.4 56.12 62.4 56.84 62.4 42.45 48.14 41.73 48.14 39.85 48.14 39.13 48.14 53.51 62.4"></polygon>
            <polygon id="Path" fill="#F8C41C" points="195.19 62.4 197.08 62.4 197.8 62.4 208.24 48.14 207.52 48.14 205.64 48.14 204.92 48.14 194.47 62.4"></polygon>
            <polygon id="Path" fill="#F8C41C" points="170.37 62.4 172.25 62.4 172.97 62.4 183.41 48.14 182.69 48.14 180.81 48.14 180.09 48.14 169.65 62.4"></polygon>
            <polygon id="Path" fill="#F8C41C" points="145.54 62.4 147.42 62.4 148.14 62.4 158.58 48.14 157.86 48.14 155.98 48.14 155.26 48.14 144.82 62.4"></polygon>
            <polygon id="Path" fill="#F8C41C" points="120.71 62.4 122.59 62.4 123.31 62.4 133.76 48.14 133.04 48.14 131.15 48.14 130.43 48.14 119.99 62.4"></polygon>
            <polygon id="Path" fill="#F8C41C" points="54.23 62.4 56.12 62.4 56.84 62.4 67.28 48.14 66.56 48.14 64.68 48.14 63.96 48.14 53.51 62.4"></polygon>
            <polygon id="Path" fill="#F8C41C" points="95.88 62.4 97.77 62.4 98.49 62.4 108.93 48.14 108.21 48.14 106.33 48.14 105.61 48.14 95.16 62.4"></polygon>
            <polygon id="Path" fill="#F8C41C" points="29.41 62.4 31.29 62.4 32.01 62.4 42.45 48.14 41.73 48.14 39.85 48.14 39.13 48.14 28.69 62.4"></polygon>
            <polygon id="Path" fill="#F8C41C" points="29.41 62.4 32.01 62.4 30.04 48.14 27.43 48.14"></polygon>
            <polygon id="Path" fill="#F8C41C" points="66.65 62.4 69.25 62.4 67.28 48.14 64.68 48.14"></polygon>
            <polygon id="Path" fill="#F8C41C" points="219.3 62.4 221.91 62.4 219.93 48.14 217.33 48.14"></polygon>
            <polygon id="Path" fill="#F8C41C" points="194.47 62.4 197.08 62.4 195.1 48.14 192.5 48.14"></polygon>
            <polygon id="Path" fill="#F8C41C" points="169.65 62.4 172.25 62.4 170.28 48.14 167.68 48.14"></polygon>
            <polygon id="Path" fill="#F8C41C" points="144.82 62.4 147.42 62.4 145.45 48.14 142.85 48.14"></polygon>
            <polygon id="Path" fill="#F8C41C" points="119.99 62.4 122.59 62.4 120.62 48.14 118.02 48.14"></polygon>
            <polygon id="Path" fill="#F8C41C" points="53.51 62.4 56.12 62.4 54.15 48.14 51.54 48.14"></polygon>
            <polygon id="Path" fill="#F8C41C" points="28.69 62.4 31.29 62.4 29.32 48.14 26.71 48.14"></polygon>
            <polygon id="Path" fill="#F8C41C" points="65.93 62.4 68.53 62.4 66.56 48.14 63.96 48.14"></polygon>
            <polygon id="Path" fill="#F8C41C" points="216.08 62.4 218.68 62.4 220.65 48.14 218.05 48.14"></polygon>
            <polygon id="Path" fill="#F8C41C" points="191.25 62.4 193.85 62.4 195.82 48.14 193.22 48.14"></polygon>
            <polygon id="Path" fill="#F8C41C" points="166.42 62.4 169.03 62.4 171 48.14 168.39 48.14"></polygon>
            <polygon id="Path" fill="#F8C41C" points="141.59 62.4 144.2 62.4 146.17 48.14 143.57 48.14"></polygon>
            <polygon id="Path" fill="#F8C41C" points="116.77 62.4 119.37 62.4 121.34 48.14 118.74 48.14"></polygon>
            <polygon id="Path" fill="#F8C41C" points="50.29 62.4 52.89 62.4 54.87 48.14 52.26 48.14"></polygon>
            <polygon id="Path" fill="#F8C41C" points="191.25 62.4 193.85 62.4 208.24 48.14 205.64 48.14"></polygon>
            <polygon id="Path" fill="#F8C41C" points="166.42 62.4 169.03 62.4 183.41 48.14 180.81 48.14"></polygon>
            <polygon id="Path" fill="#F8C41C" points="141.59 62.4 144.2 62.4 158.58 48.14 155.98 48.14"></polygon>
            <polygon id="Path" fill="#F8C41C" points="116.77 62.4 119.37 62.4 133.76 48.14 131.15 48.14"></polygon>
            <polygon id="Path" fill="#F8C41C" points="50.29 62.4 52.89 62.4 67.28 48.14 64.68 48.14"></polygon>
            <polygon id="Path" fill="#F8C41C" points="91.94 62.4 94.54 62.4 108.93 48.14 106.33 48.14"></polygon>
            <polygon id="Path" fill="#F8C41C" points="25.46 62.4 28.07 62.4 42.45 48.14 39.85 48.14"></polygon>
            <polygon id="Path" fill="#F8C41C" points="25.46 62.4 28.07 62.4 30.04 48.14 27.43 48.14"></polygon>
            <polygon id="Path" fill="#F8C41C" points="62.7 62.4 65.31 62.4 67.28 48.14 64.68 48.14"></polygon>
            <polygon id="Path" fill="#F8C41C" points="235.8 62.4 238.41 62.4 220.65 48.14 218.05 48.14"></polygon>
            <polygon id="Path" fill="#F8C41C" points="235.08 62.4 237.69 62.4 219.93 48.14 217.33 48.14"></polygon>
            <rect id="Rectangle" fill="#FFE600" fill-rule="nonzero" x="0" y="62.4" width="72.85" height="2.6"></rect>
            <polygon id="Path" fill="#F8C41C" points="72.85 62.4 72.85 65 77.51 65 77.51 62.4 76.79 62.4 73.57 62.4"></polygon>
            <rect id="Rectangle" fill="#FFE600" fill-rule="nonzero" x="26.71" y="48.14" width="48.11" height="2.6"></rect>
            <path d="M73.57,52.58 L74.67,56.58 L73.57,60.58 L73.57,52.58 Z M74.08,50.74 L76.28,50.74 L75.18,54.74 L74.08,50.74 L74.08,50.74 Z M76.28,62.4 L74.08,62.4 L75.18,58.4 L76.28,62.4 Z" id="Shape" fill="#F8C41C"></path>
            <polygon id="Path" fill="#33617E" points="105.97 90.93 105.97 85.41 65.58 85.41 65.58 90.93 64.98 90.93 64.98 85.1 64.98 84.79 65.28 84.79 106.27 84.79 106.57 84.79 106.57 85.1 106.57 90.93"></polygon>
            <polygon id="Path" fill="#33617E" points="105.97 90.93 105.97 85.1 105.97 84.79 106.27 84.79 112.36 84.79 112.66 84.79 112.66 85.1 112.66 90.93 112.06 90.93 112.06 85.41 106.57 85.41 106.57 90.93"></polygon>
            <rect id="Rectangle" fill="#33617E" fill-rule="nonzero" x="73.18" y="85.1" width="1" height="5.83"></rect>
            <rect id="Rectangle" fill="#33617E" fill-rule="nonzero" x="81.37" y="85.1" width="1" height="5.83"></rect>
            <rect id="Rectangle" fill="#33617E" fill-rule="nonzero" x="89.57" y="85.1" width="1" height="5.83"></rect>
            <rect id="Rectangle" fill="#33617E" fill-rule="nonzero" x="97.77" y="85.1" width="1" height="5.83"></rect>
            <rect id="Rectangle" fill="#F8C41C" fill-rule="nonzero" x="106.49" y="90.93" width="6.17" height="2.6"></rect>
            <rect id="Rectangle" fill="#FFE600" fill-rule="nonzero" x="64.98" y="90.93" width="41.52" height="2.6"></rect>
            <polygon id="Path" fill="#F8C41C" points="92.13 90.93 104.53 90.93 104.18 93.53 92.13 93.53"></polygon>
            <polygon id="Path" fill="#F8C41C" points="89.42 93.53 93.49 93.53 101.47 93.53 104.07 74.15 104.07 69.43 93.49 69.43 89.42 69.43"></polygon>
            <path d="M110.63,85.1 L110.63,90.93 L110,90.93 L110,85.1 L110.63,85.1 Z M108.63,85.1 L108.63,90.93 L108,90.93 L108,85.1 L108.63,85.1 Z" id="Shape" fill="#33617E"></path>
            <path d="M89.72,48.14 L89.72,50.75 L87.38,50.75 L88.17,51.54 L83.17,56.54 L88.17,61.54 L87.38,62.33 L89.72,62.33 L89.72,64.93 L72.85,64.93 L72.85,62.33 L75.19,62.33 L74.4,61.54 L79.4,56.54 L74.4,51.54 L75.19,50.75 L72.85,50.75 L72.85,48.15 L89.72,48.14 Z M85.27,50.75 L77.27,50.75 L81.27,54.75 L85.27,50.75 Z M77.27,62.41 L85.27,62.41 L81.27,58.41 L77.27,62.41 Z" id="Shape" fill="#FFE600"></path>
            <path d="M89.72,221.26 L89.72,223.87 L87.38,223.87 L88.17,224.65 L83.17,229.7 L88.17,234.7 L87.38,235.49 L89.72,235.49 L89.72,238.09 L72.85,238.09 L72.85,235.49 L75.19,235.49 L74.4,234.75 L79.4,229.75 L74.4,224.7 L75.19,223.92 L72.85,223.92 L72.85,221.31 L89.72,221.26 Z M85.27,223.87 L77.27,223.87 L81.27,227.87 L85.27,223.87 Z M77.27,235.53 L85.27,235.53 L81.27,231.53 L77.27,235.53 Z" id="Shape" fill="#FFE600"></path>
            <path d="M89.72,207 L89.72,209.6 L87.38,209.6 L88.17,210.39 L83.17,215.39 L88.17,220.44 L87.38,221.22 L89.72,221.22 L89.72,223.83 L72.85,223.83 L72.85,221.22 L75.19,221.22 L74.4,220.44 L79.4,215.39 L74.4,210.39 L75.19,209.6 L72.85,209.6 L72.85,207 L89.72,207 Z M85.27,209.6 L77.27,209.6 L81.27,213.6 L85.27,209.6 Z M77.27,221.26 L85.27,221.26 L81.27,217.26 L77.27,221.26 Z" id="Shape" fill="#FFE600"></path>
            <path d="M89.72,192.75 L89.72,195.35 L87.38,195.35 L88.17,196.14 L83.17,201.14 L88.17,206.14 L87.38,206.93 L89.72,206.93 L89.72,209.53 L72.85,209.53 L72.85,206.93 L75.19,206.93 L74.4,206.14 L79.4,201.14 L74.4,196.14 L75.19,195.35 L72.85,195.35 L72.85,192.75 L89.72,192.75 Z M85.27,195.35 L77.27,195.35 L81.27,199.35 L85.27,195.35 Z M77.27,207.01 L85.27,207.01 L81.27,203.01 L77.27,207.01 Z" id="Shape" fill="#FFE600"></path>
            <path d="M89.72,178.47 L89.72,181.08 L87.38,181.08 L88.17,181.86 L83.17,186.91 L88.17,191.91 L87.38,192.7 L89.72,192.7 L89.72,195.3 L72.85,195.3 L72.85,192.75 L75.19,192.75 L74.4,191.96 L79.4,186.96 L74.4,181.91 L75.19,181.13 L72.85,181.13 L72.85,178.52 L89.72,178.47 Z M85.27,181.08 L77.27,181.08 L81.27,185.08 L85.27,181.08 Z M77.27,192.74 L85.27,192.74 L81.27,188.74 L77.27,192.74 Z" id="Shape" fill="#FFE600"></path>
            <path d="M89.72,164.21 L89.72,166.81 L87.38,166.81 L88.17,167.6 L83.17,172.6 L88.17,177.65 L87.38,178.43 L89.72,178.43 L89.72,181.04 L72.85,181.04 L72.85,178.43 L75.19,178.43 L74.4,177.65 L79.4,172.6 L74.4,167.6 L75.19,166.81 L72.85,166.81 L72.85,164.21 L89.72,164.21 Z M85.27,166.81 L77.27,166.81 L81.27,170.81 L85.27,166.81 Z M77.27,178.47 L85.27,178.47 L81.27,174.47 L77.27,178.47 Z" id="Shape" fill="#FFE600"></path>
            <path d="M89.72,149.95 L89.72,152.55 L87.38,152.55 L88.17,153.34 L83.17,158.34 L88.17,163.34 L87.38,164.13 L89.72,164.13 L89.72,166.73 L72.85,166.73 L72.85,164.13 L75.19,164.13 L74.4,163.34 L79.4,158.34 L74.4,153.34 L75.19,152.55 L72.85,152.55 L72.85,149.95 L89.72,149.95 Z M85.27,152.55 L77.27,152.55 L81.27,156.55 L85.27,152.55 Z M77.27,164.21 L85.27,164.21 L81.27,160.21 L77.27,164.21 Z" id="Shape" fill="#FFE600"></path>
            <path d="M89.72,135.68 L89.72,138.29 L87.38,138.29 L88.17,139.07 L83.17,144.12 L88.17,149.12 L87.38,149.91 L89.72,149.91 L89.72,152.51 L72.85,152.51 L72.85,149.91 L75.19,149.91 L74.4,149.12 L79.4,144.12 L74.4,139.07 L75.19,138.29 L72.85,138.29 L72.85,135.68 L89.72,135.68 Z M85.27,138.29 L77.27,138.29 L81.27,142.29 L85.27,138.29 Z M77.27,149.95 L85.27,149.95 L81.27,145.95 L77.27,149.95 Z" id="Shape" fill="#FFE600"></path>
            <path d="M89.72,121.42 L89.72,124.02 L87.38,124.02 L88.17,124.81 L83.17,129.81 L88.17,134.86 L87.38,135.64 L89.72,135.64 L89.72,138.25 L72.85,138.25 L72.85,135.64 L75.19,135.64 L74.4,134.86 L79.4,129.81 L74.4,124.81 L75.19,124.02 L72.85,124.02 L72.85,121.42 L89.72,121.42 Z M85.27,124.02 L77.27,124.02 L81.27,128.02 L85.27,124.02 Z M77.27,135.68 L85.27,135.68 L81.27,131.68 L77.27,135.68 Z" id="Shape" fill="#FFE600"></path>
            <path d="M89.72,107.16 L89.72,109.75 L87.38,109.75 L88.17,110.54 L83.17,115.54 L88.17,120.54 L87.38,121.33 L89.72,121.33 L89.72,123.93 L72.85,123.93 L72.85,121.33 L75.19,121.33 L74.4,120.54 L79.4,115.54 L74.4,110.54 L75.19,109.75 L72.85,109.75 L72.85,107.15 L89.72,107.16 Z M85.27,109.75 L77.27,109.75 L81.27,113.75 L85.27,109.75 Z M77.27,121.41 L85.27,121.41 L81.27,117.41 L77.27,121.41 Z" id="Shape" fill="#FFE600"></path>
            <path d="M89.72,92.89 L89.72,95.5 L87.38,95.5 L88.17,96.29 L83.17,101.29 L88.17,106.29 L87.38,107.08 L89.72,107.08 L89.72,109.75 L72.85,109.75 L72.85,107.15 L75.19,107.15 L74.4,106.36 L79.4,101.36 L74.4,96.36 L75.19,95.57 L72.85,95.57 L72.85,92.96 L89.72,92.89 Z M85.27,95.5 L77.27,95.5 L81.27,99.5 L85.27,95.5 Z M77.27,107.16 L85.27,107.16 L81.27,103.16 L77.27,107.16 Z" id="Shape" fill="#FFE600"></path>
            <path d="M89.72,78.63 L89.72,81.23 L87.38,81.23 L88.17,82.02 L83.17,87.02 L88.17,92.07 L87.38,92.85 L89.72,92.85 L89.72,95.46 L72.85,95.46 L72.85,92.85 L75.19,92.85 L74.4,92.07 L79.4,87.02 L74.4,82.02 L75.19,81.23 L72.85,81.23 L72.85,78.63 L89.72,78.63 Z M85.27,81.23 L77.27,81.23 L81.27,85.23 L85.27,81.23 Z M77.27,92.89 L85.27,92.89 L81.27,88.89 L77.27,92.89 Z" id="Shape" fill="#FFE600"></path>
            <path d="M89.72,64.37 L89.72,66.97 L87.38,66.97 L88.17,67.76 L83.17,72.76 L88.17,77.76 L87.38,78.55 L89.72,78.55 L89.72,81.15 L72.85,81.15 L72.85,78.55 L75.19,78.55 L74.4,77.76 L79.4,72.76 L74.4,67.76 L75.19,66.97 L72.85,66.97 L72.85,64.37 L89.72,64.37 Z M85.27,66.97 L77.27,66.97 L81.27,70.97 L85.27,66.97 Z M77.27,78.63 L85.27,78.63 L81.27,74.63 L77.27,78.63 Z" id="Shape" fill="#FFE600"></path>
            <rect id="Rectangle" fill="#FFE600" fill-rule="nonzero" x="87.11" y="50.11" width="2.6" height="194.75"></rect>
            <rect id="Rectangle" fill="#FFE700" fill-rule="nonzero" x="72.85" y="50.11" width="2.6" height="194.75"></rect>
            <path d="M89.72,107.16 L89.72,109.75 L77.8,109.75 C77.2248784,109.748992 76.6928529,109.444978 76.4,108.95 L75.4,107.3 L74.67,106.04 L72.8,102.79 L72.8,92.88 L89.72,92.88 L89.72,107.15 L89.72,107.16 Z M75.45,105.32 L79.45,101.32 L75.45,97.32 L75.45,105.32 Z M87.11,97.32 L83.11,101.32 L87.11,105.32 L87.11,97.32 Z M77.29,107.14 L85.29,107.14 L81.29,103.14 L77.29,107.14 Z M85.29,95.48 L77.29,95.48 L81.29,99.48 L85.29,95.48 Z" id="Shape" fill="#F8C41C"></path>
            <polygon id="Path" fill="#FFE600" points="87.09 93.53 87.09 93.53 99.14 93.53 101.74 74.15 101.74 69.43 87.09 69.43 87.09 69.43"></polygon>
            <polygon id="Path" fill="#003A5D" points="99.49 90.93 100.79 81.22 101.74 74.15 91.24 74.15 91.24 90.93"></polygon>
            <path d="M85.23,1.16 C85.9700616,1.16 86.57,1.75993844 86.57,2.5 C86.57,3.24006156 85.9700616,3.84 85.23,3.84 L83.1,3.84 C82.3599384,3.84 81.76,3.24006156 81.76,2.5 C81.76,1.75993844 82.3599384,1.16 83.1,1.16 L85.23,1.16 Z" id="Path" fill="#33617E"></path>
            <path d="M82,5 L81.28,5 C79.8992881,5 78.78,3.88071187 78.78,2.5 C78.78,1.11928813 79.8992881,0 81.28,0 L82,0" id="Path" fill="#33617E"></path>
            <path d="M81.28,0.91 L81.28,0.91 C83,10.38 88,38.66 89.72,48.14 L87.15,48.59 L81.28,15.75 L75.41,48.63 L72.85,48.18 C74.54,38.66 79.59,10.38 81.28,0.91 Z" id="Path" fill="#FFE600"></path>
            <path d="M81.28,5 C82.6607119,5 83.78,3.88071187 83.78,2.5 C83.78,1.11928813 82.6607119,0 81.28,0 C79.8992881,0 78.78,1.11928813 78.78,2.5 C78.78,3.88071187 79.8992881,5 81.28,5 Z" id="Path" fill="#FFE600"></path>
            <polygon id="Path" fill="#33617E" points="90.29 90.93 90.29 85.41 65.58 85.41 65.58 90.93 64.98 90.93 64.98 85.1 64.98 84.79 65.28 84.79 90.59 84.79 90.9 84.79 90.9 85.1 90.9 90.93"></polygon>
            <rect id="Rectangle" fill="#33617E" fill-rule="nonzero" x="73.18" y="85.1" width="1" height="5.83"></rect>
            <rect id="Rectangle" fill="#33617E" fill-rule="nonzero" x="81.37" y="85.1" width="1" height="5.83"></rect>
            <rect id="Rectangle" fill="#FFE600" fill-rule="nonzero" x="64.98" y="90.93" width="26.26" height="2.6"></rect>
            <path d="M220.65,48.14 L220.65,50.75 L87.92,50.75 L87.92,48.15 L220.65,48.15 L220.65,48.14 Z M93.82,62.4 L233.74,62.4 L233.74,65 L89.74,65 L89.74,62.4 L93.84,62.4 L93.82,62.4 Z" id="Shape" fill="#FFE600"></path>
            <polygon id="Path" fill="#FFE700" points="233.74 62.4 233.74 65 238.41 65 238.41 62.4 237.69 62.4 234.46 62.4"></polygon>
            <polygon id="Path" fill="#FFE700" points="231.86 62.4 234.46 62.4 220.65 48.14 218.05 48.14"></polygon>
            <polygon id="Path" fill="#FFE700" points="231.14 62.4 233.74 62.4 219.93 48.14 217.33 48.14"></polygon>
            <polygon id="Path" fill="#FFE700" points="215.36 62.4 217.96 62.4 219.93 48.14 217.33 48.14"></polygon>
            <polygon id="Path" fill="#FFE700" points="190.53 62.4 193.13 62.4 195.1 48.14 192.5 48.14"></polygon>
            <polygon id="Path" fill="#FFE700" points="165.7 62.4 168.31 62.4 170.28 48.14 167.68 48.14"></polygon>
            <polygon id="Path" fill="#FFE700" points="140.88 62.4 143.48 62.4 145.45 48.14 142.85 48.14"></polygon>
            <polygon id="Path" fill="#FFE700" points="116.05 62.4 118.65 62.4 120.62 48.14 118.02 48.14"></polygon>
            <polygon id="Path" fill="#FFE700" points="49.57 62.4 52.17 62.4 54.15 48.14 51.54 48.14"></polygon>
            <polygon id="Path" fill="#FFE700" points="190.53 62.4 193.13 62.4 207.52 48.14 204.92 48.14"></polygon>
            <polygon id="Path" fill="#FFE700" points="165.7 62.4 168.31 62.4 182.69 48.14 180.09 48.14"></polygon>
            <polygon id="Path" fill="#FFE700" points="140.88 62.4 143.48 62.4 157.86 48.14 155.26 48.14"></polygon>
            <polygon id="Path" fill="#FFE700" points="116.05 62.4 118.65 62.4 133.04 48.14 130.43 48.14"></polygon>
            <polygon id="Path" fill="#FFE700" points="49.57 62.4 52.17 62.4 66.56 48.14 63.96 48.14"></polygon>
            <polygon id="Path" fill="#FFE700" points="91.22 62.4 93.82 62.4 108.21 48.14 105.61 48.14"></polygon>
            <polygon id="Path" fill="#FFE700" points="24.74 62.4 27.35 62.4 41.73 48.14 39.13 48.14"></polygon>
            <polygon id="Path" fill="#FFE700" points="24.74 62.4 27.35 62.4 29.32 48.14 26.71 48.14"></polygon>
            <polygon id="Path" fill="#FFE700" points="24.74 62.4 29.32 48.14 26.71 48.14"></polygon>
            <polygon id="Path" fill="#FFE700" points="61.98 62.4 64.59 62.4 66.56 48.14 63.96 48.14"></polygon>
            <rect id="Rectangle" fill="#DFE4E7" fill-rule="nonzero" x="0" y="67.61" width="26.85" height="8.57"></rect>
            <polygon id="Path" fill="#023852" points="26.85 65 26.85 67.61 0 67.61 0 65 4.14 65 22.7 65"></polygon>
            <polygon id="Path" fill="#003A5D" points="199.74 65 199.74 70.09 204.41 70.09 204.41 65 203.69 65 200.46 65"></polygon>
            <polygon id="Path" fill="#023852" points="199.74 65 199.74 70.09 183.88 70.09 183.88 65 186.33 65 197.29 65"></polygon>
            <polygon id="Path" fill="#F8C41C" points="192.13 99.2 194.15 99.2 196.17 99.2 198.2 101.53 196.17 108.51 194.15 108.51 192.13 108.51 190.1 101.53"></polygon>
            <path d="M190,69.24 L190,102.81 L190.61,102.81 L190.61,69.24 L190,69.24 Z M196.23,69.24 L196.23,102.81 L196.85,102.81 L196.85,69.24 L196.23,69.24 Z" id="Shape" fill="#33617E"></path>
            <path d="M191,69.24 L191,102.81 L191.62,102.81 L191.62,69.24 L191,69.24 Z M195.29,69.24 L195.29,102.81 L195.9,102.81 L195.9,69.24 L195.29,69.24 Z" id="Shape" fill="#33617E"></path>
            <path d="M192.45,110.75 L194.25,112.47 C194.731839,112.953833 194.731839,113.736167 194.25,114.22 L194.25,114.22 C193.766167,114.701839 192.983833,114.701839 192.5,114.22 L190.35,112.07 C189.760597,113.326445 189.999127,114.815493 190.951505,115.824962 C191.903882,116.83443 193.37654,117.159146 194.665134,116.643805 C195.953727,116.128464 196.796353,114.877807 196.790036,113.49 C196.783604,112.595828 196.424179,111.740398 195.79,111.11 C194.857212,110.198671 194.340126,108.943925 194.36,107.64 L194.36,106.59 L192.43,106.59 L192.45,110.75 Z" id="Path" fill="#023852"></path>
            <polygon id="Path" fill="#FFE700" points="191.15 99.2 193.17 99.2 195.19 99.2 197.21 101.53 195.19 108.51 193.17 108.51 191.14 108.51 189.12 101.53"></polygon>
            <path d="M57.09,238.56 L105.47,238.56 L105.47,223.97 C105.47,222.953796 104.646204,222.129973 103.63,222.129973 L58.94,222.129973 C58.4502713,222.127338 57.979687,222.320019 57.6324542,222.665375 C57.2852215,223.010731 57.09,223.480264 57.09,223.97 L57.09,238.56 Z" id="Path" fill="#FFE700"></path>
            <polygon id="Path" fill="#FFE700" points="215.36 62.4 217.96 62.4 207.52 48.14 204.92 48.14"></polygon>
            <polygon id="Path" fill="#FFE700" points="190.53 62.4 193.13 62.4 182.69 48.14 180.09 48.14"></polygon>
            <polygon id="Path" fill="#FFE700" points="165.7 62.4 168.31 62.4 157.86 48.14 155.26 48.14"></polygon>
            <polygon id="Path" fill="#FFE700" points="143.48 62.4 133.04 48.14 130.43 48.14 140.88 62.4"></polygon>
            <polygon id="Path" fill="#FFE700" points="116.05 62.4 118.65 62.4 108.21 48.14 105.61 48.14"></polygon>
            <polygon id="Path" fill="#FFE700" points="49.57 62.4 52.17 62.4 41.73 48.14 39.13 48.14"></polygon>
            <rect id="Rectangle" fill="#FFE700" fill-rule="nonzero" x="57.09" y="238.56" width="48.38" height="6.72"></rect>
            <polygon id="Path" fill="#295977" points="91.69 90.9 94.96 90.9 101.64 74.15 98.37 74.15"></polygon>
            <path d="M254.15,208.96 L254.15,206.2 L249,206.2 L249,190.75 L254.07,190.75 L254.07,187.95 L249,187.95 L249,171.95 L254.07,171.95 L254.07,169.19 L249,169.19 L249,153.19 L254.07,153.19 L254.07,150.45 L249,150.45 L249,134.45 L254.07,134.45 L254.07,131.75 L249,131.75 L249,123.17 L246.3,123.17 L246.3,131.75 L243.9,131.75 L243.9,134.51 L246.3,134.51 L246.3,150.51 L243.9,150.51 L243.9,153.27 L246.3,153.27 L246.3,169.27 L243.9,169.27 L243.9,172.03 L246.3,172.03 L246.3,188.03 L243.9,188.03 L243.9,190.75 L246.3,190.75 L246.3,206.25 L203,206.25 L203,190.75 L223.3,190.75 L223.3,187.95 L203,187.95 L203,150.45 L200.3,150.45 L200.3,243.17 L203,243.17 L203,228.1 L246.31,228.1 L246.31,243.17 L249,243.17 L249,228.1 L266.9,228.1 L266.9,225.34 L249,225.34 L249,208.96 L254.15,208.96 Z M246.32,225.34 L203,225.34 L203,208.96 L246.31,208.96 L246.32,225.34 Z" id="Shape" fill="#C3D0DA" fill-rule="nonzero" style="mix-blend-mode: multiply;"></path>
            <rect id="Rectangle" fill="#D5DBDF" fill-rule="nonzero" x="194.13" y="130.04" width="78.97" height="1.67"></rect>
            <rect id="Rectangle" fill="#D5DBDF" fill-rule="nonzero" x="194.13" y="186.28" width="78.97" height="1.67"></rect>
            <rect id="Rectangle" fill="#D5DBDF" fill-rule="nonzero" x="194.13" y="148.79" width="78.97" height="1.67"></rect>
            <rect id="Rectangle" fill="#D5DBDF" fill-rule="nonzero" x="194.13" y="167.53" width="78.97" height="1.67"></rect>
            <rect id="Rectangle" fill="#D5DBDF" fill-rule="nonzero" x="194.13" y="223.67" width="78.97" height="1.67"></rect>
            <rect id="Rectangle" fill="#D5DBDF" fill-rule="nonzero" x="194.13" y="204.53" width="78.97" height="1.67"></rect>
            <rect id="Rectangle" fill="#C3D0DA" fill-rule="nonzero" style="mix-blend-mode: multiply;" x="266.92" y="169.2" width="2.4" height="2.76"></rect>
            <rect id="Rectangle" fill="#C3D0DA" fill-rule="nonzero" style="mix-blend-mode: multiply;" x="266.92" y="187.98" width="2.4" height="2.76"></rect>
            <rect id="Rectangle" fill="#C3D0DA" fill-rule="nonzero" style="mix-blend-mode: multiply;" x="266.92" y="206.21" width="2.4" height="2.76"></rect>
            <rect id="Rectangle" fill="#C3D0DA" fill-rule="nonzero" style="mix-blend-mode: multiply;" x="266.92" y="225.34" width="2.4" height="2.76"></rect>
            <rect id="Rectangle" fill="#C3D0DA" fill-rule="nonzero" style="mix-blend-mode: multiply;" x="266.92" y="150.46" width="2.4" height="2.76"></rect>
            <rect id="Rectangle" fill="#C3D0DA" fill-rule="nonzero" style="mix-blend-mode: multiply;" x="266.92" y="131.71" width="2.4" height="2.76"></rect>
            <polygon id="Path" fill="#33617E" points="400.73 227.52 398.66 228.56 379.17 214.35 380.38 212.69"></polygon>
            <path d="M370.69,207.52 L379.46,213.95 L380.09,213.08 L371.32,206.65 C370.958852,206.793029 370.713206,207.132255 370.69,207.52 Z" id="Path" fill="#9CB2C0"></path>
            <polygon id="Path" fill="#FFE600" points="373.06 207.36 366.43 203.5 365.45 205.19 372.09 209.04"></polygon>
            <polygon id="Path" fill="#003A5D" points="306.95 160.74 307.13 160.74 307.31 160.74 307.49 160.74 307.68 160.74 307.86 160.74 308.04 160.74 313.64 163.98 313.46 163.98 313.27 163.98 313.09 163.98 312.91 163.98 312.73 163.98 312.55 163.98"></polygon>
            <polygon id="Path" fill="#FFE600" points="308.62 161.73 401.38 215.29 398.26 220.72 305.5 167.16"></polygon>
            <polygon id="Path" fill="#003A5D" points="327.78 170.74 420.55 224.3 416.38 231.54 323.61 177.98 326.1 170.74"></polygon>
            <path d="M307.06,169.48 L307.06,198.11 L306.54,198.11 L306.54,169.48 L307.06,169.48 Z M301.75,169.48 L301.75,198.11 L301.22,198.11 L301.22,169.48 L301.75,169.48 Z" id="Shape" fill="#33617E"></path>
            <path d="M306.23,169.48 L306.23,198.11 L305.71,198.11 L305.71,169.48 L306.23,169.48 Z M302.58,169.48 L302.58,198.11 L302.05,198.11 L302.05,169.48 L302.58,169.48 Z" id="Shape" fill="#33617E"></path>
            <path d="M305,204.91 L303.47,206.39 C303.261486,206.579524 303.142607,206.848224 303.142607,207.13 C303.142607,207.411776 303.261486,207.680476 303.47,207.87 L303.47,207.87 C303.882897,208.277948 304.547103,208.277948 304.96,207.87 L306.79,206.04 C306.972081,206.420679 307.064448,206.83804 307.06,207.26 C307.06,208.85058 305.77058,210.14 304.18,210.14 C302.58942,210.14 301.3,208.85058 301.3,207.26 C301.305423,206.508671 301.607315,205.789879 302.14,205.26 C302.944147,204.471816 303.385831,203.385708 303.36,202.26 L303.36,201.36 L305,201.36 L305,204.91 Z" id="Path" fill="#33617E"></path>
            <polygon id="Path" fill="#FFE600" points="302.42 195.03 304.14 195.03 305.87 195.03 307.59 197.02 305.87 202.97 304.14 202.97 302.42 202.97 300.69 197.02"></polygon>
            <circle id="Oval" fill="#33617E" fill-rule="nonzero" cx="304.14" cy="169.48" r="3.12"></circle>
            <polygon id="Path" fill="#023852" points="312.28 163.3 325.94 171.19 322.3 177.53 308.63 169.64"></polygon>
            <polygon id="Path" fill="#023852" points="326.1 170.74 418.87 224.3 414.7 231.54 321.94 177.98"></polygon>
            <path d="M310.43,162.75 L306.22,170.03 C305.941997,170.510553 305.484221,170.860752 304.947669,171.003332 C304.411117,171.145913 303.839884,171.069157 303.36,170.79 L303.36,170.79 C302.879447,170.511997 302.529248,170.054221 302.386668,169.517669 C302.244087,168.981117 302.320843,168.409884 302.6,167.93 L306.72,160.8 C306.742491,160.747263 306.790049,160.709415 306.846489,160.699337 C306.902928,160.689258 306.960646,160.708307 307,160.75 L310.43,162.75 Z" id="Path" fill="#FFE600"></path>
            <path d="M418.78,234.75 C421.76786,234.75 424.19,237.17214 424.19,240.16 C424.19,243.14786 421.76786,245.57 418.78,245.57 L417.92,245.57 C414.93214,245.57 412.51,243.14786 412.51,240.16 C412.51,237.17214 414.93214,234.75 417.92,234.75 L418.78,234.75 Z" id="Path" fill="#003A5D"></path>
            <path d="M404.37,234.75 C407.35786,234.75 409.78,237.17214 409.78,240.16 C409.78,243.14786 407.35786,245.57 404.37,245.57 L403.5,245.57 C400.51214,245.57 398.09,243.14786 398.09,240.16 C398.09,237.17214 400.51214,234.75 403.5,234.75 L404.37,234.75 Z" id="Path" fill="#003A5D"></path>
            <path d="M370.22,234.75 C373.20786,234.75 375.63,237.17214 375.63,240.16 C375.63,243.14786 373.20786,245.57 370.22,245.57 L369.36,245.57 C366.37214,245.57 363.95,243.14786 363.95,240.16 C363.95,237.17214 366.37214,234.75 369.36,234.75 L370.22,234.75 Z" id="Path" fill="#003A5D"></path>
            <path d="M355.81,234.75 C358.79786,234.75 361.22,237.17214 361.22,240.16 C361.22,243.14786 358.79786,245.57 355.81,245.57 L355,245.57 C352.01214,245.57 349.59,243.14786 349.59,240.16 C349.59,237.17214 352.01214,234.75 355,234.75 L355.81,234.75 Z" id="Path" fill="#003A5D"></path>
            <polygon id="Path" fill="#FFE600" points="324.41 230.26 329.42 213.11 341.38 213.11 342.75 216.66 342.75 232.64 340.56 237.2 324.41 237.2"></polygon>
            <polygon id="Path" fill="#F8C41C" points="325.25 230.56 325.25 232.83 330.67 232.83 339.39 228.19 339.39 217.05 338.68 215.21 329.73 215.21"></polygon>
            <polygon id="Path" fill="#003A5D" points="326.3 232.83 330.67 232.83 339.39 228.19 339.39 217.36 338.95 216.23 330.78 216.23 326.3 231.59"></polygon>
            <polygon id="Path" fill="#023852" points="439.36 242.33 439.36 232.64 340.23 232.64 338.3 237.2 321.48 237.2 321.48 239.11 327.68 242.33"></polygon>
            <polygon id="Path" fill="#FFE600" points="343.5 222.89 366.78 222.89 369.86 230.76 343.5 230.76"></polygon>
            <polygon id="Path" fill="url(#linearGradient-2)" style="mix-blend-mode: multiply;" points="345.6 224.98 345.6 228.66 366.79 228.66 365.35 224.98"></polygon>
            <rect id="Rectangle" fill="#F8C41C" fill-rule="nonzero" x="343.5" y="222.89" width="1" height="7.87"></rect>
            <polygon id="Path" fill="#00182B" points="373.69 242.33 369.14 233.94 345 233.94 340.46 242.33"></polygon>
            <path d="M349.66,245.52 C352.64786,245.52 355.07,243.09786 355.07,240.11 C355.07,237.12214 352.64786,234.7 349.66,234.7 C346.67214,234.7 344.25,237.12214 344.25,240.11 C344.255503,243.095578 346.674422,245.514497 349.66,245.52 L349.66,245.52 Z" id="Path" fill="#33617E"></path>
            <path d="M349.66,236.689985 C351.044164,236.685953 352.294286,237.516638 352.826789,238.794279 C353.359292,240.071919 353.069165,241.54456 352.091843,242.524747 C351.114522,243.504935 349.642737,243.799373 348.363543,243.270613 C347.084348,242.741854 346.249985,241.49417 346.249985,240.11 C346.247343,239.20388 346.605436,238.333962 347.245223,237.692299 C347.885011,237.050635 348.753876,236.689985 349.66,236.689985 L349.66,236.689985 Z" id="Path" fill="#D5DBDF"></path>
            <path d="M349.66,242.240023 C350.527356,242.244044 351.311371,241.724137 351.645165,240.923572 C351.978958,240.123007 351.796505,239.200135 351.183185,238.586815 C350.569865,237.973495 349.646993,237.791042 348.846428,238.124835 C348.045863,238.458629 347.525956,239.242644 347.529977,240.11 C347.529977,241.286367 348.483633,242.240023 349.66,242.240023 Z" id="Path" fill="#FAFBFB"></path>
            <polygon id="Path" fill="#00182B" points="422.25 242.33 417.7 233.94 393.56 233.94 389 242.33"></polygon>
            <path d="M326.48,172.17 L329.57,173.95 L334.5,184.02 L328,180.28 L325.15,174.46 L326.46,172.17 L326.48,172.17 Z M333.04,175.96 L338,186.03 L344.48,189.77 L339.53,179.75 L333,175.96 L333.04,175.96 Z M343,181.75 L349.49,185.49 L354.41,195.57 L347.92,191.75 L343,181.75 Z M353,187.5 L357.92,197.57 L364.41,201.31 L359.48,191.24 L353,187.45 L353,187.5 Z M362.95,193.24 L369.43,196.99 L374.36,207.06 L367.88,203.31 L362.95,193.24 Z M372.95,198.99 L377.88,209.06 L384.36,212.8 L379.43,202.73 L372.95,198.99 Z M382.9,204.73 L389.39,208.48 L394.31,218.55 L387.73,214.75 L382.8,204.67 L382.9,204.73 Z M392.85,210.48 L397.78,220.55 L404.26,224.29 L399.34,214.22 L392.85,210.48 Z" id="Shape" fill="#EFF2F3"></path>
            <path d="M414,219.45 L427.87,219.45 C427.976486,219.451989 428.078982,219.490867 428.16,219.56 L430.99,222.16 C431.077848,222.243466 431.128322,222.358834 431.13,222.48 L431.13,228.97 C431.13,229.207482 430.937482,229.4 430.7,229.4 L393.94,229.4 C393.702518,229.4 393.51,229.207482 393.51,228.97 L393.51,228.16 C393.51,227.922518 393.702518,227.73 393.94,227.73 L413.16,227.73 C413.397482,227.73 413.59,227.537482 413.59,227.3 L413.59,219.88 C413.589751,219.650114 413.770362,219.460692 414,219.45 L414,219.45 Z" id="Path" fill="#FFE600"></path>
            <path d="M416.73,222.87 L416.73,227.45 C416.73516,227.596926 416.853074,227.71484 417,227.72 L427.73,227.72 C427.879117,227.72 428,227.599117 428,227.45 L428,223.75 C427.998443,223.673869 427.965947,223.601655 427.91,223.55 L426.91,222.63 C426.86245,222.582489 426.797155,222.557097 426.73,222.56 L417,222.56 C416.921988,222.562334 416.848491,222.597123 416.797232,222.655976 C416.745972,222.71483 416.721603,222.792407 416.73,222.87 L416.73,222.87 Z" id="Path" fill="url(#linearGradient-3)" style="mix-blend-mode: multiply;"></path>
            <polygon id="Path" fill="#FFE600" points="417.01 227.73 397.36 227.73 397.36 222.96 401.04 209.42 417.01 209.42"></polygon>
            <path d="M398.2,222.96 L401.31,211.51 C401.33754,211.393847 401.440635,211.311371 401.56,211.31 L407.16,211.31 C407.230724,211.31 407.298418,211.338709 407.347476,211.389653 C407.396533,211.440597 407.42272,211.509328 407.42,211.58 L407.42,222.75 C407.42,222.893594 407.303594,223.01 407.16,223.01 L405.89,223.01 C405.308461,223.009974 404.835486,223.478487 404.83,224.06 L404.83,227.52 C404.83,227.663594 404.713594,227.78 404.57,227.78 L398.46,227.78 C398.316406,227.78 398.2,227.663594 398.2,227.52 L398.2,223.01 L398.2,222.96 Z M408.47,211.31 L413.47,211.31 C413.615198,211.315381 413.7301,211.434703 413.73,211.58 L413.73,222.75 C413.73,222.893594 413.613594,223.01 413.47,223.01 L408.47,223.01 C408.326406,223.01 408.21,222.893594 408.21,222.75 L408.21,211.58 C408.2099,211.434703 408.324802,211.315381 408.47,211.31 Z" id="Shape" fill="#003A5D"></path>
            <rect id="Rectangle" fill="#F8C41C" fill-rule="nonzero" x="417.01" y="209.42" width="1" height="10.03"></rect>
            <rect id="Rectangle" fill="#F8C41C" fill-rule="nonzero" x="409.9" y="229.4" width="10.92" height="1.36"></rect>
            <rect id="Rectangle" fill="#FFFFFF" fill-rule="nonzero" x="439.36" y="235.28" width="1" height="5.92"></rect>
            <path d="M362.59,245.52 C365.57786,245.52 368,243.09786 368,240.11 C368,237.12214 365.57786,234.7 362.59,234.7 C359.60214,234.7 357.18,237.12214 357.18,240.11 C357.185503,243.095578 359.604422,245.514497 362.59,245.52 L362.59,245.52 Z" id="Path" fill="#33617E"></path>
            <path d="M362.59,236.69 C364.478814,236.69 366.01,238.221186 366.01,240.11 C366.01,241.998814 364.478814,243.53 362.59,243.53 C360.701186,243.53 359.17,241.998814 359.17,240.11 C359.17,238.221186 360.701186,236.69 362.59,236.69 L362.59,236.69 Z" id="Path" fill="#D5DBDF"></path>
            <path d="M362.59,242.240023 C363.457356,242.244044 364.241371,241.724137 364.575165,240.923572 C364.908958,240.123007 364.726505,239.200135 364.113185,238.586815 C363.499865,237.973495 362.576993,237.791042 361.776428,238.124835 C360.975863,238.458629 360.455956,239.242644 360.459977,240.11 C360.465474,241.284092 361.415908,242.234526 362.59,242.240023 L362.59,242.240023 Z" id="Path" fill="#FAFBFB"></path>
            <path d="M399.11,245.52 C402.09786,245.52 404.52,243.09786 404.52,240.11 C404.52,237.12214 402.09786,234.7 399.11,234.7 C396.12214,234.7 393.7,237.12214 393.7,240.11 C393.705503,243.095578 396.124422,245.514497 399.11,245.52 L399.11,245.52 Z" id="Path" fill="#33617E"></path>
            <path d="M399.11,236.689985 C400.494164,236.685953 401.744286,237.516638 402.276789,238.794279 C402.809292,240.071919 402.519165,241.54456 401.541843,242.524747 C400.564522,243.504935 399.092737,243.799373 397.813543,243.270613 C396.534348,242.741854 395.699985,241.49417 395.699985,240.11 C395.697343,239.20388 396.055436,238.333962 396.695223,237.692299 C397.335011,237.050635 398.203876,236.689985 399.11,236.689985 Z" id="Path" fill="#D5DBDF"></path>
            <path d="M399.11,242.240023 C399.977356,242.244044 400.761371,241.724137 401.095165,240.923572 C401.428958,240.123007 401.246505,239.200135 400.633185,238.586815 C400.019865,237.973495 399.096993,237.791042 398.296428,238.124835 C397.495863,238.458629 396.975956,239.242644 396.979977,240.11 C396.985474,241.284092 397.935908,242.234526 399.11,242.240023 Z" id="Path" fill="#FAFBFB"></path>
            <path d="M412,245.52 C414.98786,245.52 417.41,243.09786 417.41,240.11 C417.41,237.12214 414.98786,234.7 412,234.7 C409.01214,234.7 406.59,237.12214 406.59,240.11 C406.595503,243.095578 409.014422,245.514497 412,245.52 L412,245.52 Z" id="Path" fill="#33617E"></path>
            <path d="M412,236.69 C413.888814,236.69 415.42,238.221186 415.42,240.11 C415.42,241.998814 413.888814,243.53 412,243.53 C410.111186,243.53 408.58,241.998814 408.58,240.11 C408.58,239.20296 408.94032,238.333069 409.581695,237.691695 C410.223069,237.05032 411.09296,236.69 412,236.69 Z" id="Path" fill="#D5DBDF"></path>
            <path d="M412,242.24 C412.866457,242.24 413.647404,241.717508 413.978041,240.916616 C414.308678,240.115725 414.123748,239.194493 413.509637,238.583252 C412.895526,237.972011 411.973439,237.791398 411.174105,238.125782 C410.37477,238.460167 409.855951,239.243552 409.859976,240.11 C409.865505,241.287982 410.822005,242.24 412,242.24 L412,242.24 Z" id="Path" fill="#FAFBFB"></path>
            <polygon id="Path" fill="#295977" points="327.16 232.83 330.73 232.83 337.15 216.23 333.58 216.23"></polygon>
            <polygon id="Path" fill="#295977" points="403.62 211.29 398.21 225.22 398.21 227.75 400.8 227.75 407.19 211.29"></polygon>
            <rect id="Rectangle" fill="#FFF16B" fill-rule="nonzero" x="340.22" y="230.51" width="99.78" height="2.14"></rect>
            <path d="M340.76,231.28 L340.76,232.09 L344.05,232.09 L344.05,231.28 L340.76,231.28 Z M346.88,231.28 L346.88,232.09 L350.17,232.09 L350.17,231.28 L346.88,231.28 Z M353,231.28 L353,232.09 L356.29,232.09 L356.29,231.28 L353,231.28 Z M359.12,231.28 L359.12,232.09 L362.41,232.09 L362.41,231.28 L359.12,231.28 Z M365.24,231.28 L365.24,232.09 L368.53,232.09 L368.53,231.28 L365.24,231.28 Z M371.35,231.28 L371.35,232.09 L374.65,232.09 L374.65,231.28 L371.35,231.28 Z M377.47,231.28 L377.47,232.09 L380.77,232.09 L380.77,231.28 L377.47,231.28 Z M383.59,231.28 L383.59,232.09 L386.89,232.09 L386.89,231.28 L383.59,231.28 Z M389.71,231.28 L389.71,232.09 L393,232.09 L393,231.28 L389.71,231.28 Z M395.83,231.28 L395.83,232.09 L399.13,232.09 L399.13,231.28 L395.83,231.28 Z M401.95,231.28 L401.95,232.09 L405.25,232.09 L405.25,231.28 L401.95,231.28 Z M408.07,231.28 L408.07,232.09 L411.37,232.09 L411.37,231.28 L408.07,231.28 Z M414.19,231.28 L414.19,232.09 L417.49,232.09 L417.49,231.28 L414.19,231.28 Z M420.31,231.28 L420.31,232.09 L423.61,232.09 L423.61,231.28 L420.31,231.28 Z M426.43,231.28 L426.43,232.09 L429.73,232.09 L429.73,231.28 L426.43,231.28 Z M432.55,231.28 L432.55,232.09 L435.85,232.09 L435.85,231.28 L432.55,231.28 Z" id="Shape" fill="#FFFFFF"></path>
        </g>
    </g>
</svg>