<?xml version="1.0" encoding="UTF-8"?>
<svg width="440px" height="330px" viewBox="0 0 440 330" version="1.1" xmlns="http://www.w3.org/2000/svg" xmlns:xlink="http://www.w3.org/1999/xlink">
    <title>Graphic elements / Icons / Rich icons / Marketplace / Practice-Digital-Infrastructure</title>
    <defs>
        <linearGradient x1="0%" y1="50%" x2="100%" y2="50%" id="linearGradient-1">
            <stop stop-color="#FFFFFF" offset="0%"></stop>
            <stop stop-color="#0099DA" offset="100%"></stop>
        </linearGradient>
        <linearGradient x1="41.7177117%" y1="94.9737328%" x2="52.8278879%" y2="-4.24534999%" id="linearGradient-2">
            <stop stop-color="#FFFFFF" offset="0%"></stop>
            <stop stop-color="#0099DA" offset="100%"></stop>
        </linearGradient>
        <linearGradient x1="0%" y1="50.0067231%" x2="100%" y2="50.0067231%" id="linearGradient-3">
            <stop stop-color="#FFFFFF" stop-opacity="0" offset="0%"></stop>
            <stop stop-color="#FBFBFC" stop-opacity="0.04" offset="11%"></stop>
            <stop stop-color="#EFF2F3" stop-opacity="0.16" offset="28%"></stop>
            <stop stop-color="#DCE2E6" stop-opacity="0.35" offset="48%"></stop>
            <stop stop-color="#C2CCD2" stop-opacity="0.62" offset="71%"></stop>
            <stop stop-color="#A1B1BA" stop-opacity="0.96" offset="97%"></stop>
            <stop stop-color="#9DADB7" offset="100%"></stop>
        </linearGradient>
        <linearGradient x1="98.053412%" y1="82.7800513%" x2="31.4216616%" y2="11.0047786%" id="linearGradient-4">
            <stop stop-color="#FFFFFF" offset="0%"></stop>
            <stop stop-color="#0099DA" offset="100%"></stop>
        </linearGradient>
        <linearGradient x1="49.9999796%" y1="0.0171451785%" x2="49.9999796%" y2="99.9821081%" id="linearGradient-5">
            <stop stop-color="#FFFFFF" stop-opacity="0" offset="0%"></stop>
            <stop stop-color="#FBFBFC" stop-opacity="0.04" offset="11%"></stop>
            <stop stop-color="#EFF2F3" stop-opacity="0.16" offset="28%"></stop>
            <stop stop-color="#DCE2E6" stop-opacity="0.35" offset="48%"></stop>
            <stop stop-color="#C2CCD2" stop-opacity="0.62" offset="71%"></stop>
            <stop stop-color="#A1B1BA" stop-opacity="0.96" offset="97%"></stop>
            <stop stop-color="#9DADB7" offset="100%"></stop>
        </linearGradient>
        <linearGradient x1="49.8971193%" y1="100%" x2="49.8971193%" y2="0%" id="linearGradient-6">
            <stop stop-color="#FFFFFF" stop-opacity="0" offset="16%"></stop>
            <stop stop-color="#FBFBFC" stop-opacity="0.04" offset="25%"></stop>
            <stop stop-color="#EFF2F3" stop-opacity="0.16" offset="39%"></stop>
            <stop stop-color="#DCE2E6" stop-opacity="0.35" offset="56%"></stop>
            <stop stop-color="#C2CCD2" stop-opacity="0.62" offset="76%"></stop>
            <stop stop-color="#A1B1BA" stop-opacity="0.96" offset="97%"></stop>
            <stop stop-color="#9DADB7" offset="100%"></stop>
        </linearGradient>
        <linearGradient x1="49.9429388%" y1="0.0026109993%" x2="49.9429388%" y2="100%" id="linearGradient-7">
            <stop stop-color="#FFFFFF" stop-opacity="0" offset="0%"></stop>
            <stop stop-color="#FBFBFC" stop-opacity="0.04" offset="11%"></stop>
            <stop stop-color="#EFF2F3" stop-opacity="0.16" offset="28%"></stop>
            <stop stop-color="#DCE2E6" stop-opacity="0.35" offset="48%"></stop>
            <stop stop-color="#C2CCD2" stop-opacity="0.62" offset="71%"></stop>
            <stop stop-color="#A1B1BA" stop-opacity="0.96" offset="97%"></stop>
            <stop stop-color="#9DADB7" offset="100%"></stop>
        </linearGradient>
        <linearGradient x1="0.0763344056%" y1="50.0101943%" x2="100.034436%" y2="50.0101943%" id="linearGradient-8">
            <stop stop-color="#FFFFFF" stop-opacity="0" offset="0%"></stop>
            <stop stop-color="#FBFBFC" stop-opacity="0.04" offset="11%"></stop>
            <stop stop-color="#EFF2F3" stop-opacity="0.16" offset="28%"></stop>
            <stop stop-color="#DCE2E6" stop-opacity="0.35" offset="48%"></stop>
            <stop stop-color="#C2CCD2" stop-opacity="0.62" offset="71%"></stop>
            <stop stop-color="#A1B1BA" stop-opacity="0.96" offset="97%"></stop>
            <stop stop-color="#9DADB7" offset="100%"></stop>
        </linearGradient>
        <linearGradient x1="54.6427893%" y1="102.117184%" x2="42.8134531%" y2="9.87198424%" id="linearGradient-9">
            <stop stop-color="#FFFFFF" offset="0%"></stop>
            <stop stop-color="#0099DA" offset="100%"></stop>
        </linearGradient>
        <linearGradient x1="100%" y1="50.0117261%" x2="-6.64369084e-14%" y2="50.0117261%" id="linearGradient-10">
            <stop stop-color="#FFFFFF" stop-opacity="0" offset="0%"></stop>
            <stop stop-color="#FBFBFC" stop-opacity="0.04" offset="11%"></stop>
            <stop stop-color="#EFF2F3" stop-opacity="0.16" offset="28%"></stop>
            <stop stop-color="#DCE2E6" stop-opacity="0.35" offset="48%"></stop>
            <stop stop-color="#C2CCD2" stop-opacity="0.62" offset="71%"></stop>
            <stop stop-color="#A1B1BA" stop-opacity="0.96" offset="97%"></stop>
            <stop stop-color="#9DADB7" offset="100%"></stop>
        </linearGradient>
        <linearGradient x1="9.76691046e-13%" y1="50%" x2="100%" y2="50%" id="linearGradient-11">
            <stop stop-color="#FFFFFF" stop-opacity="0" offset="0%"></stop>
            <stop stop-color="#FBFBFC" stop-opacity="0.04" offset="11%"></stop>
            <stop stop-color="#EFF2F3" stop-opacity="0.16" offset="28%"></stop>
            <stop stop-color="#DCE2E6" stop-opacity="0.35" offset="48%"></stop>
            <stop stop-color="#C2CCD2" stop-opacity="0.62" offset="71%"></stop>
            <stop stop-color="#A1B1BA" stop-opacity="0.96" offset="97%"></stop>
            <stop stop-color="#9DADB7" offset="100%"></stop>
        </linearGradient>
        <linearGradient x1="86.361515%" y1="71.8519444%" x2="35.9863579%" y2="20.5633448%" id="linearGradient-12">
            <stop stop-color="#FFFFFF" stop-opacity="0" offset="16%"></stop>
            <stop stop-color="#FBFBFC" stop-opacity="0.04" offset="25%"></stop>
            <stop stop-color="#EFF2F3" stop-opacity="0.16" offset="39%"></stop>
            <stop stop-color="#DCE2E6" stop-opacity="0.35" offset="56%"></stop>
            <stop stop-color="#C2CCD2" stop-opacity="0.62" offset="76%"></stop>
            <stop stop-color="#A1B1BA" stop-opacity="0.96" offset="97%"></stop>
            <stop stop-color="#9DADB7" offset="100%"></stop>
        </linearGradient>
        <linearGradient x1="37.8388474%" y1="72.4334091%" x2="58.2292319%" y2="28.7946257%" id="linearGradient-13">
            <stop stop-color="#FFFFFF" stop-opacity="0" offset="0%"></stop>
            <stop stop-color="#FBFBFC" stop-opacity="0.04" offset="10%"></stop>
            <stop stop-color="#EFF2F3" stop-opacity="0.16" offset="24%"></stop>
            <stop stop-color="#DCE2E6" stop-opacity="0.35" offset="41%"></stop>
            <stop stop-color="#C2CCD2" stop-opacity="0.62" offset="61%"></stop>
            <stop stop-color="#A1B1BA" stop-opacity="0.96" offset="82%"></stop>
            <stop stop-color="#9DADB7" offset="85%"></stop>
        </linearGradient>
    </defs>
    <g id="Graphic-elements-/-Icons-/-Rich-icons-/-Marketplace-/-Practice-Digital-Infrastructure" stroke="none" stroke-width="1" fill="none" fill-rule="evenodd">
        <g id="digital-infrastructure" transform="translate(5.000000, 0.000000)">
            <g id="Midlayer" transform="translate(103.685801, 0.238541)" stroke="#023852">
                <path d="M212.749544,130.50012 L212.749544,130.50012 C212.834737,130.833093 212.877622,131.175522 212.877179,131.519273 C212.882464,132.454479 212.572265,133.364022 211.996939,134.100245 C211.821345,134.325971 211.684501,134.579451 211.592029,134.850271 C211.388531,135.591651 211.569831,136.385922 212.074696,136.964823 C212.57956,137.543723 213.340576,137.829954 214.100712,137.726841 L221.494726,136.747396 L220.500055,128.98242 C220.392996,128.121016 220.767145,127.270382 221.473785,126.768626 C222.180425,126.26687 223.105063,126.19529 223.880175,126.582337 L224.399517,126.838228 C226.141038,128.146128 228.589046,127.912431 230.052994,126.298524 C231.516942,124.684617 231.516942,122.219545 230.052994,120.605638 C228.589046,118.99173 226.141038,118.758034 224.399517,120.065934 L223.880175,120.326237 C223.104146,120.710638 222.180289,120.637222 221.474369,120.135057 C220.76845,119.632891 220.394302,118.782953 220.500055,117.921742 L221.446313,110.156766 L214.052299,109.172909 C213.292737,109.072125 212.533254,109.359041 212.028967,109.93728 C211.52468,110.515518 211.342497,111.308359 211.543616,112.049479 C211.636019,112.321682 211.772848,112.576625 211.948526,112.803917 C212.746151,113.820371 213.027484,115.150584 212.709933,116.404042 L212.709933,116.404042 L212.80676,115.543718 C212.797209,115.834149 212.755884,116.122652 212.683526,116.404042 L212.683526,116.404042 C212.269018,118.049651 210.904469,119.281608 209.228585,119.523268 L209.180172,119.523268 L209.048136,119.523268 L208.960112,119.523268 L208.352746,119.523268 L208.264723,119.523268 L208.132687,119.523268 L208.084273,119.523268 C206.40839,119.281608 205.04384,118.049651 204.629332,116.404042 L204.629332,116.404042 C204.556974,116.122652 204.515649,115.834149 204.506099,115.543718 L204.602925,116.404042 L204.624931,116.404042 C204.307381,115.150584 204.588714,113.820371 205.386339,112.803917 C205.562016,112.576625 205.698845,112.321682 205.791249,112.049479 C205.992367,111.308359 205.810185,110.515518 205.305898,109.93728 C204.801611,109.359041 204.042127,109.072125 203.282566,109.172909 L195.888552,110.156766 L196.834809,117.921742 C196.940562,118.782953 196.566415,119.632891 195.860495,120.135057 C195.154575,120.637222 194.230719,120.710638 193.454689,120.326237 L192.935347,120.065934 C191.193826,118.758034 188.745818,118.99173 187.28187,120.605638 C185.817923,122.219545 185.817923,124.684617 187.28187,126.298524 C188.745818,127.912431 191.193826,128.146128 192.935347,126.838228 L193.454689,126.582337 C194.229801,126.19529 195.154439,126.26687 195.861079,126.768626 C196.56772,127.270382 196.941868,128.121016 196.834809,128.98242 L195.892953,136.769455 L203.286967,137.748901 C204.047103,137.852014 204.808118,137.565783 205.312983,136.986882 C205.817848,136.407981 205.999148,135.61371 205.79565,134.87233 C205.703178,134.601511 205.566334,134.348031 205.39074,134.122304 C204.815414,133.386082 204.505214,132.476539 204.5105,131.541332 C204.510057,131.197582 204.552942,130.855153 204.638135,130.522179 L204.616129,130.522179 L204.519302,131.382503 C204.529173,131.093553 204.570496,130.806547 204.642536,130.526591 L204.642536,130.526591 C205.054897,128.879686 206.420531,127.64675 208.097477,127.407365 L208.14589,127.407365 L208.277926,127.407365 L208.36595,127.407365 L208.471579,127.407365 L208.911699,127.407365 L209.017327,127.407365 L209.105351,127.407365 L209.237387,127.407365 L209.285801,127.407365 C210.962747,127.64675 212.32838,128.879686 212.740742,130.526591 L212.740742,130.526591 C212.812782,130.806547 212.854105,131.093553 212.863975,131.382503 L212.749544,130.50012 Z" id="Path"></path>
                <ellipse id="Oval" stroke-width="1.04" cx="123.581258" cy="94.9577091" rx="16.5397047" ry="16.5799875"></ellipse>
                <ellipse id="Oval" stroke-width="1.04" cx="209.338615" cy="213.550063" rx="16.5397047" ry="16.5799875"></ellipse>
                <ellipse id="Oval" stroke-width="0.93" cx="209.193375" cy="24.7464475" rx="24.4794672" ry="24.5390874"></ellipse>
                <ellipse id="Oval" stroke-width="0.82" cx="209.554274" cy="213.783894" rx="10.4220385" ry="10.4474216"></ellipse>
                <ellipse id="Oval" stroke-width="0.82" cx="209.554274" cy="213.783894" rx="5.99003143" ry="10.4474216"></ellipse>
                <line x1="209.554274" y1="203.486478" x2="209.554274" y2="224.385733" id="Path" stroke-width="0.82"></line>
                <line x1="199.132235" y1="213.783894" x2="219.976312" y2="213.783894" id="Path" stroke-width="0.82"></line>
                <line x1="200.430589" y1="218.822304" x2="218.673557" y2="218.822304" id="Path" stroke-width="0.82"></line>
                <ellipse id="Oval" stroke-width="0.93" cx="291.909504" cy="183.928446" rx="24.4794672" ry="24.5390874"></ellipse>
                <rect id="Rectangle" x="279.093213" y="181.047463" width="4.16793517" height="11.7533493"></rect>
                <rect id="Rectangle" x="285.606987" y="178.259131" width="4.16793517" height="14.5416814"></rect>
                <line x1="275.444619" y1="192.800813" x2="306.451064" y2="192.800813" id="Path"></line>
                <ellipse id="Oval" cx="123.480031" cy="90.6384415" rx="4.36158791" ry="4.37221065"></ellipse>
                <path d="M129.993805,102.466793 C130.346525,102.463815 130.672026,102.276208 130.852047,101.972134 C131.032068,101.668059 131.040411,101.291769 130.874045,100.979977 C129.495443,98.2024178 126.66728,96.4464047 123.572456,96.4464047 C120.477632,96.4464047 117.649468,98.2024178 116.270867,100.979977 C116.104501,101.291769 116.112843,101.668059 116.292865,101.972134 C116.472886,102.276208 116.798387,102.463815 117.151107,102.466793 L129.993805,102.466793 Z" id="Path"></path>
                <ellipse id="Oval" cx="302.520794" cy="93.5635431" rx="24.4794672" ry="24.5390874"></ellipse>
                <ellipse id="Oval" cx="302.520794" cy="94.1944473" rx="5.60712714" ry="5.62078341"></ellipse>
                <ellipse id="Oval" cx="302.520794" cy="94.1944473" rx="6.93628915" ry="6.95318262"></ellipse>
                <path d="M308.356783,84.4794041 L308.356783,84.4794041 C308.356783,83.972584 307.946923,83.5617252 307.441334,83.5617252 L297.604655,83.5617252 C297.098349,83.5617252 296.687227,83.9718712 296.684804,84.4794041 L296.684804,84.4794041 C296.684804,84.7227877 296.588356,84.9562029 296.416675,85.1283011 C296.244995,85.3003993 296.012147,85.397083 295.769355,85.397083 L290.038994,85.397083 C289.533406,85.397083 289.123545,85.8079419 289.123545,86.314762 L289.123545,102.638858 C289.123545,102.882242 289.219994,103.115657 289.391674,103.287755 C289.563354,103.459853 289.796202,103.556537 290.038994,103.556537 L315.042204,103.556537 C315.284996,103.556537 315.517845,103.459853 315.689525,103.287755 C315.861205,103.115657 315.957654,102.882242 315.957654,102.638858 L315.957654,86.314762 C315.957654,85.8079419 315.547793,85.397083 315.042204,85.397083 L309.276634,85.397083 C308.770328,85.3970888 308.359206,84.986937 308.356783,84.4794041 Z" id="Path"></path>
                <rect id="Rectangle" x="200.126906" y="8.74000938" width="17.9656931" height="30.84813" rx="4.02"></rect>
                <rect id="Rectangle" x="202.463943" y="10.6856652" width="13.2960213" height="21.3978019" rx="1.75"></rect>
                <ellipse id="Oval" cx="209.109753" cy="35.6968278" rx="1.49640756" ry="1.50005209"></ellipse>
                <line x1="200.430589" y1="208.741072" x2="218.673557" y2="208.741072" id="Path" stroke-width="0.82"></line>
                <rect id="Rectangle" x="292.120761" y="175.298734" width="4.16793517" height="17.5020783"></rect>
                <rect id="Rectangle" x="298.634535" y="171.469189" width="4.16793517" height="21.3316231"></rect>
                <ellipse id="Oval" cx="209.351819" cy="122.973388" rx="61.2382787" ry="61.3874258"></ellipse>
                <ellipse id="Oval" cx="209.351819" cy="122.973388" rx="47.5065388" ry="47.6222419"></ellipse>
                <line x1="209.351819" y1="75.1261381" x2="209.351819" y2="49.3075945" id="Path"></line>
                <line x1="209.351819" y1="196.630357" x2="209.351819" y2="170.816226" id="Path"></line>
                <line x1="254.635752" y1="108.175815" x2="279.242854" y2="100.207891" id="Path"></line>
                <line x1="247.356169" y1="151.165543" x2="271.835637" y2="169.677951" id="Path"></line>
                <path d="M171.294653,151.57144 L149.557133,167.683764 C147.812609,168.97951 145.698705,169.678643 143.527491,169.677951 L14.2686862,169.677951 L0.413712678,183.566668" id="Path"></path>
                <line x1="164.217526" y1="108.378763" x2="139.465184" y2="100.207891" id="Path"></line>
                <rect id="Rectangle" stroke-width="1.07" x="262.66794" y="42.3323523" width="20.289526" height="12.4724919"></rect>
                <path d="M283.582436,40.8499479 L262.042969,40.8499479 C261.565442,40.8619189 261.184736,41.2534909 261.184736,41.7323315 L261.184736,55.5901656 C261.184736,55.8179341 261.275294,56.03631 261.436371,56.1969521 C261.597449,56.3575942 261.815757,56.4472518 262.042969,56.4460777 L269.38857,56.4460777 C269.635859,56.4601315 269.829087,56.665452 269.82869,56.913741 L269.82869,59.2476456 C269.831339,59.4968233 269.636875,59.7034568 269.38857,59.7153089 L266.149288,59.7153089 C265.699606,59.7153089 265.335066,60.0807362 265.335066,60.5315137 L265.335066,60.5315137 C265.335066,60.9822912 265.699606,61.3477185 266.149288,61.3477185 L279.476117,61.3477185 C279.9258,61.3477185 280.290339,60.9822912 280.290339,60.5315137 L280.290339,60.5315137 C280.290339,60.0807362 279.9258,59.7153089 279.476117,59.7153089 L276.236835,59.7153089 C275.98853,59.7034568 275.794067,59.4968233 275.796715,59.2476456 L275.796715,56.913741 C275.796318,56.665452 275.989546,56.4601315 276.236835,56.4460777 L283.582436,56.4460777 C284.049887,56.4345662 284.426783,56.0586902 284.44067,55.5901656 L284.44067,41.7102719 C284.429082,41.2400238 284.051541,40.8615642 283.582436,40.8499479 L283.582436,40.8499479 Z" id="Path" stroke-width="1.07"></path>
                <ellipse id="Oval" stroke-width="0.93" cx="272.557433" cy="50.7635275" rx="18.7006933" ry="18.7462392"></ellipse>
                <line x1="275.774709" y1="56.5431399" x2="269.850696" y2="56.5431399" id="Path"></line>
                <line x1="240.666347" y1="87.5148036" x2="261.699676" y2="66.4346599" id="Path"></line>
            </g>
            <g id="Ilus" transform="translate(0.000000, 58.063314)" fill-rule="nonzero">
                <rect id="Rectangle" fill="#D8DEE2" style="mix-blend-mode: multiply;" x="0" y="265.375474" width="217.274942" height="5.37506153" rx="2.68753076"></rect>
                <path d="M127.887257,253.500954 L137.797209,259.343412 C138.075106,259.510299 138.37035,259.646326 138.677703,259.749077 L153.514016,264.630285 L142.507849,270.252273 L105.60197,270.415421 C104.376357,270.381974 103.400736,269.376988 103.400736,268.148988 L103.400736,258.126417 L127.887257,253.500954 Z" id="Path" fill="#FFFFFF"></path>
                <path d="M73.0809481,260.842609 L72.8872395,268.532606 C72.86806,269.492901 72.0852292,270.261284 71.1262528,270.261092 L57.3597393,270.455106 C56.860236,270.465683 56.3797577,270.263254 56.0379946,269.898245 C55.6962316,269.533235 55.5253564,269.040007 55.5679353,268.541425 L55.9245351,264.008559 C56.109626,261.622627 57.179055,259.392319 58.922615,257.756027 L63.8489753,253.126154 C64.6596878,252.36402 65.7452667,251.965328 66.8557117,252.021894 C67.9661568,252.078461 69.0057472,252.585409 69.7350733,253.425994 L70.9325443,254.810546 C72.3780816,256.480545 73.1448217,258.633317 73.0809481,260.842609 Z" id="Path" fill="#FFFFFF"></path>
                <polygon id="Path" fill="#26A8E0" points="146.179506 82.7777113 152.087616 92.1961948 142.560678 99.6833601 139.426122 93.5278344"></polygon>
                <polygon id="Path" fill="url(#linearGradient-1)" style="mix-blend-mode: multiply;" points="144.176384 79.0341287 149.9172 88.4526122 140.663215 95.9397775 137.616708 89.7842517"></polygon>
                <path d="M60.2697698,254.153545 L60.3710266,256.715408 C60.3958781,257.343508 60.7423876,257.914365 61.2876864,258.225559 C61.8329853,258.536752 62.4999677,258.544279 63.0521288,258.24547 L65.1080808,257.129892 C65.6441619,256.841406 66.2889617,256.841406 66.8250428,257.129892 L68.5596147,258.047047 C69.4303278,258.508971 70.509957,258.192198 70.9941788,257.332724 L72.0947955,255.37054 L60.2697698,254.153545 Z" id="Path" fill="#26A8E0"></path>
                <path d="M103.308285,258.726095 L110.061669,263.898324 C110.531257,264.261814 111.127494,264.419986 111.715161,264.336969 C112.302828,264.253951 112.832126,263.93678 113.183018,263.457384 L118.738931,255.9614 L103.308285,258.726095 Z" id="Path" fill="#26A8E0"></path>
                <path d="M78.2758588,111.601975 L72.7375557,148.883472 L72.1212103,165.198261 L69.8891597,179.903618 C69.7350733,180.895734 69.5369623,181.88344 69.2860217,182.857918 L65.8961223,196.086125 C65.5349346,197.48821 65.2759743,198.914736 65.1212882,200.354426 L60.6615894,241.860131 C60.6103385,242.317639 60.4870067,242.764119 60.2961846,243.182952 L59.2307877,245.564029 C58.8082172,246.509812 58.6324914,247.54762 58.7201015,248.58006 L59.2219827,254.563619 L72.7551655,256.587535 L72.7551655,255.344084 C72.7522503,254.856649 73.0112091,254.405283 73.4331454,254.162364 L74.2079796,253.721424 C74.6361674,253.476113 74.8962496,253.016024 74.8859594,252.522066 L74.7714953,246.789843 C74.7573486,246.12481 74.8647756,245.462794 75.0884729,244.836478 L80.2921886,230.170805 C80.7898649,228.775054 81.0762599,227.312584 81.1418647,225.831953 L81.5821114,215.871113 C81.6351828,214.658261 81.8197022,213.454777 82.1324197,212.28186 L90.7392422,179.846296 L102.753574,137.132415 L98.8838057,119.005361 L78.2758588,111.601975 Z" id="Path" fill="#023852"></path>
                <polygon id="Path" fill="#678897" style="mix-blend-mode: multiply;" points="89.5901984 184.568766 99.3372598 149.258271 72.7375557 148.883472 72.2841016 164.214964"></polygon>
                <path d="M61.0490064,92.0859598 L57.7779737,106.733995 C57.6511794,107.306783 57.5745789,107.889569 57.5490454,108.475708 L56.6069175,130.363982 C56.5936629,130.689676 56.5142702,131.009248 56.3735868,131.303185 L54.3924767,135.443614 C54.0814092,136.104879 53.4896113,136.590724 52.7811739,136.766434 L47.000735,138.146577 C46.8799085,138.176631 46.7608557,138.213434 46.6441352,138.256812 L33.6304435,142.99692 C33.3267796,143.109251 33.1190434,143.391871 33.1021475,143.715652 L33.1021475,143.715652 C33.0888249,143.935999 33.1667142,144.152113 33.3174849,144.313133 C33.4682555,144.474152 33.6785921,144.565858 33.898994,144.56668 L56.9679198,144.56668 C57.3260659,144.567666 57.6818051,144.508035 58.0201093,144.390291 L58.9534323,144.059586 C59.9719092,143.704255 60.7410138,142.855911 60.9961768,141.806381 L63.1974102,132.793563 C63.2988317,132.375649 63.4312741,131.965904 63.5936322,131.567749 L70.9061295,113.647938 C71.1471598,113.055148 71.3199704,112.436784 71.4212181,111.804807 L73.4243405,98.8896677 L61.0490064,92.0859598 Z" id="Path" fill="#0099DA"></path>
                <path d="M68.9162145,96.4115835 L60.8244806,91.6891136 C60.8244806,91.6891136 63.2590448,102.915452 67.1992525,122.744535 L70.910532,113.647938 C71.1515622,113.055148 71.3243729,112.436784 71.4256206,111.804807 L73.428743,98.8896677 L68.9162145,96.4115835 Z" id="Path" fill="url(#linearGradient-2)" style="mix-blend-mode: multiply;"></path>
                <path d="M89.6562354,34.878373 L72.3721509,44.5790583 C71.2043346,45.2331862 70.2456667,46.205596 69.6074018,47.3834382 L64.5181502,56.7975123 C64.1220864,57.5287727 63.8582776,58.3244315 63.7389136,59.1477238 L58.9930545,91.8522614 C58.9370724,92.2139888 59.1793082,92.5544358 59.5389604,92.6194975 L62.5590525,93.2103574 C62.6527163,93.2273843 62.7414347,93.2650361 62.8187981,93.3205924 L72.2444794,99.8288704 C72.6757869,100.13032 73.2175476,100.226756 73.7261484,100.092613 C74.2347492,99.9584705 74.6588251,99.6072974 74.8859594,99.1321848 L74.8859594,99.0880908 C75.1341416,98.5657587 75.1177764,97.9560164 74.8419348,97.4477931 L74.8419348,97.4477931 C74.4935239,96.8199897 74.5524101,96.0445908 74.9916187,95.4767902 L76.5280795,93.4881497 C77.1306563,92.7087161 77.5531628,91.8051456 77.7651727,90.8425083 L78.984656,85.3219365 L76.4180179,105.962349 L77.6595135,113.762582 L94.0675071,122.285957 L120.363441,126.488117 L134.011088,118.145528 L129.899184,93.8585395 C129.856725,93.5728339 129.761155,93.2976354 129.617426,93.0472095 L124.946409,84.9030433 C124.547651,84.1987776 124.547651,83.3364667 124.946409,82.632201 L126.606139,79.673492 C126.773725,79.3741039 127.103749,79.2040311 127.44439,79.2415125 C127.785031,79.278994 128.07032,79.5167711 128.169015,79.8454587 L130.216162,86.6668042 C130.383601,87.1881261 130.729816,87.6332919 131.193509,87.9234839 L132.342553,88.6774917 C132.67766,88.8961433 132.948234,89.2006379 133.126192,89.5593722 L135.802892,94.7051448 C136.03287,95.1487439 136.45085,95.4643434 136.939944,95.5636867 C137.429039,95.6630299 137.936752,95.5354541 138.321103,95.2166355 L149.380099,85.9833468 C150.005925,85.4666288 150.162843,84.570411 149.749907,83.8712431 L142.446214,71.4455471 C142.119843,70.8866073 141.879412,70.2816088 141.733015,69.6509203 L138.739337,56.7093243 C138.489985,55.6402458 138.078729,54.6156902 137.519854,53.671246 L132.796007,45.6681807 C131.683001,43.7816194 130.018807,42.2825624 128.028136,41.3734227 L114.538977,35.2002594 C113.751708,34.8396633 113.046141,34.3220327 112.465416,33.6790155 L109.550983,30.4425142 L89.6562354,34.878373 Z" id="Path" fill="#DEE2E5"></path>
                <polygon id="Path" fill="url(#linearGradient-3)" style="mix-blend-mode: multiply;" points="110.343427 121.792104 78.4739699 89.4888218 76.4268228 105.95353 77.6595135 113.758173 94.0675071 122.281547 105.509518 120.513377"></polygon>
                <polygon id="Path" fill="#BDBCB2" points="78.126175 89.1360696 77.9676862 89.9562184 78.1437848 89.1537072"></polygon>
                <path d="M84.5273616,22.3512608 L82.1104074,14.2644168 C81.6088881,12.5968585 81.9204102,10.7901244 82.9512785,9.38761771 L85.1525119,6.38040528 C87.2971321,3.45398936 90.4232189,1.40004572 93.9574454,0.595269324 L93.9574454,0.595269324 C96.5246215,0.0160693218 99.2077787,0.245536516 101.63975,1.25227028 L103.440359,1.99745929 C105.222132,2.7361648 106.663696,4.1155146 107.481823,5.86450519 L110.312609,11.9053865 C110.942854,13.2542358 111.135305,14.7669655 110.862918,16.2310102 L109.181175,25.1732783 L86.0330053,25.8611451 L84.5273616,22.3512608 Z" id="Path" fill="#023852"></path>
                <path d="M82.3481406,14.9170083 C82.5112425,14.5466524 82.7134393,14.1948376 82.9512785,13.8675706 L85.1525119,10.8603581 C87.2973258,7.93500935 90.4235576,5.882536 93.9574454,5.07963157 L93.9574454,5.07963157 C96.5267666,4.49424508 99.2141728,4.72227181 101.648555,5.73222312 L103.457969,6.48182153 C105.238494,7.2201823 106.679718,8.59763414 107.499433,10.344458 L110.330219,16.3897487 C110.46133,16.6753659 110.571679,16.9700924 110.660404,17.2716292 L110.880528,16.1119564 C111.152962,14.646466 110.960528,13.1323212 110.330219,11.7819232 L107.490628,5.73222312 C106.67588,3.98086658 105.237815,2.59714371 103.457969,1.85194901 L101.65736,1.10676 C99.2236788,0.0952328143 96.5371285,-0.137341992 93.9662504,0.44094024 L93.9662504,0.44094024 C90.4315762,1.24198959 87.304746,3.29485575 85.1613168,6.22166679 L82.9600835,9.22887923 C81.9247786,10.6309691 81.609911,12.4398166 82.1104074,14.1100877 L82.3481406,14.9170083 Z" id="Path" fill="#3C667A"></path>
                <path d="M89.6562354,34.878373 L88.3354954,36.7611878 C87.7579277,37.5885543 87.4813106,38.5893689 87.5518563,39.5964336 L88.5248014,53.2964468 C88.5402618,53.4989033 88.6562389,53.6800374 88.8334972,53.7785708 C89.0107555,53.8771041 89.22558,53.8798542 89.4052948,53.7858905 L94.6618401,50.9197789 C94.8985581,50.795677 95.1787333,50.7859446 95.4234668,50.8933225 L102.872441,54.3238376 C103.440403,54.581962 104.098748,54.5440476 104.633427,54.2224213 L111.923912,49.7777437 C112.264689,49.5666248 112.70686,49.6256738 112.980504,49.9188446 L114.565392,51.5944175 C114.741986,51.7868031 115.022071,51.8436402 115.259505,51.7352722 C115.496938,51.6269043 115.637875,51.377907 115.608777,51.118202 L114.371684,38.7718753 C114.336086,38.3999659 114.244042,38.0356731 114.098731,37.6915717 L112.56227,34.0009019 C112.471257,33.7873979 112.343057,33.5918083 112.183658,33.4232702 L109.841545,30.9760519 L89.6562354,34.878373 Z" id="Path" fill="#FFFFFF"></path>
                <path d="M110.880528,19.471921 C110.511718,19.5382706 110.220481,19.8229793 110.145316,20.1906536 L109.731484,22.1881129 C109.695796,22.3602915 109.553414,22.4898343 109.378878,22.5089228 C109.204342,22.5280114 109.037402,22.4322983 108.965455,22.2718915 L107.001954,17.8228045 C106.654101,17.0332762 105.89805,16.5018482 105.038454,16.4426616 L100.376242,16.1163658 C99.8440881,16.0798516 99.3155853,16.2277541 98.8794032,16.535259 L96.2731429,18.3695704 C95.6143632,18.8364042 94.7900116,19.0044145 94.0014701,18.8325577 L87.4682094,17.4039113 C87.2120237,17.3416314 86.9414546,17.3975989 86.7308626,17.5564322 C86.5202707,17.7152654 86.3918154,17.9602513 86.3808001,18.2240601 L85.9713707,24.5427338 L84.7783022,22.6334625 C84.6777529,22.4722973 84.5108319,22.3642854 84.3228124,22.3387221 C84.1347929,22.3131589 83.9451638,22.3726942 83.8053571,22.5011805 C83.6112695,22.6785018 83.5464831,22.9573471 83.6424658,23.2022754 L86.1914941,29.7855132 C86.3595031,30.2252754 86.6694107,30.5961985 87.0719874,30.8393604 L87.39777,31.0333741 C87.8110794,31.2882443 88.1225155,31.6797122 88.2782633,32.1401341 L90.03925,37.2241751 C90.2897341,37.9339723 90.7081599,38.572434 91.2587333,39.0849429 L93.7989566,41.4263356 L97.1360264,48.4813794 C97.3149191,48.8578576 97.6096408,49.1669528 97.9768976,49.3632599 L102.493828,51.8060688 C103.300978,52.2396152 104.300186,52.0566569 104.901978,51.3651286 L110.17173,45.4168447 C110.496645,45.043697 110.670895,44.5625736 110.660404,44.0675676 L110.330219,34.3007413 C110.347834,34.1307008 110.347834,33.9592911 110.330219,33.7892506 L109.775508,29.454808 C109.704051,28.8471079 110.094214,28.2807624 110.686819,28.1319873 C111.203171,28.001311 111.574379,27.5490819 111.602532,27.0164085 L111.967937,20.4375801 C111.986379,20.1535962 111.872791,19.8770079 111.660188,19.6882082 C111.447584,19.4994086 111.159817,19.4195784 110.880528,19.471921 Z" id="Path" fill="#0099DA"></path>
                <path d="M105.100089,43.7192248 C104.732051,44.3477755 104.110992,44.7865771 103.396334,44.9229917 L99.8523484,45.5932208 C99.0700386,45.742031 98.2635505,45.5114764 97.6775298,44.9714951 L93.8385788,41.4439732 L97.1756486,48.499017 C97.3545413,48.8754952 97.649263,49.1845904 98.0165198,49.3808975 L102.533451,51.8237064 C103.3406,52.2572528 104.339808,52.0742945 104.9416,51.3827662 L106.729001,49.3500317 C107.437118,48.5426551 107.768526,47.471498 107.640312,46.4045509 L107.125223,42.1891622 C107.09901,41.9582332 106.927688,41.7702783 106.700457,41.7231563 C106.473225,41.6760342 106.241474,41.7804019 106.125864,41.9819203 L105.100089,43.7192248 Z" id="Path" fill="url(#linearGradient-4)" style="mix-blend-mode: multiply;"></path>
                <rect id="Rectangle" fill="#023852" x="217.715188" y="145.638152" width="26.8682546" height="3.43492447" rx="1.71746224"></rect>
                <path d="M125.862122,114.547456 L142.058797,97.0068528 L154.350484,88.9905593 L185.255801,90.1017287 L192.145661,92.1565102 C192.541665,92.2720522 192.898145,92.4948223 193.175839,92.800283 L207.356184,108.31697 C207.770605,108.775905 208.072131,109.325547 208.236677,109.921992 L211.679406,122.193359 C211.816394,122.689324 211.832998,123.210906 211.727833,123.714603 L210.2398,130.844607 C210.196556,131.05061 210.17297,131.260266 210.16936,131.470742 L209.997664,149.381735 L126.623749,149.381735 L125.862122,114.547456 Z" id="Path" fill="#EFF1F2"></path>
                <path d="M142.058797,104.150085 L154.350484,96.1249724 L185.255801,97.2317324 L192.145661,99.2821045 C192.541229,99.4009484 192.897242,99.6249498 193.175839,99.9302866 L207.356184,115.47784 C207.770605,115.936775 208.072131,116.486416 208.236677,117.082862 L211.032244,127.048111 L211.727833,123.714603 C211.832998,123.210906 211.816394,122.689324 211.679406,122.193359 L208.236677,109.921992 C208.072131,109.325547 207.770605,108.775905 207.356184,108.31697 L193.171436,92.7782359 C192.893743,92.4727753 192.537262,92.2500052 192.141259,92.1344632 L185.255801,90.0840911 L154.350484,88.9729217 L142.058797,97.0068528 L125.862122,114.565093 L125.941366,118.185213 L142.058797,104.150085 Z" id="Path" fill="#F8F9F9"></path>
                <path d="M191.115484,128.507624 L191.115484,128.507624 C191.199442,128.741964 191.233921,128.991208 191.216741,129.239584 L190.204174,143.349672 C190.190603,143.563099 190.138391,143.772274 190.050087,143.966988 L188.614883,147.150577 C188.496548,147.408643 188.442177,147.691511 188.456394,147.975135 L188.782177,154.853803 C188.805442,155.353808 188.62069,155.841096 188.271925,156.199603 C187.92316,156.55811 187.4416,156.755746 186.941946,156.745821 L159.990044,156.145758 C159.454221,156.135192 158.951098,155.885541 158.618076,155.464982 C158.285054,155.044423 158.156925,154.496893 158.26868,153.971922 L167.240907,111.200719 C167.319786,110.823864 167.517305,110.482298 167.804423,110.226241 L172.449025,105.309758 L177.630729,106.460612 C178.157974,106.578936 178.590549,106.954735 178.782015,107.460788 C178.97348,107.966841 178.898201,108.535392 178.581661,108.973971 L172.532672,117.338607 C172.255124,117.719716 172.13813,118.194762 172.206889,118.661428 L173.347128,126.523393 C173.456757,127.288615 174.041134,127.898745 174.799942,128.040227 L178.634491,128.75455 C179.13977,128.848864 179.580503,129.155455 179.845169,129.596746 L182.385393,133.812135 C182.735039,134.392913 183.380438,134.728125 184.055836,134.67974 C184.731234,134.631355 185.322429,134.207554 185.585986,133.582846 L187.756402,128.410617 C188.044022,127.722637 188.724809,127.282971 189.469183,127.304468 C190.213558,127.325965 190.86792,127.804188 191.115484,128.507624 Z" id="Path" fill="url(#linearGradient-5)" style="mix-blend-mode: multiply;"></path>
                <rect id="Rectangle" fill="#E4E9EC" x="19.6217943" y="155.206555" width="4.38925935" height="115.521934"></rect>
                <rect id="Rectangle" fill="url(#linearGradient-6)" style="mix-blend-mode: multiply;" x="19.6217943" y="154.699474" width="4.27919768" height="44.1733933"></rect>
                <path d="M189.099154,69.668558 L177.943304,59.9678727 C177.877845,59.9068483 177.790473,59.8750265 177.701168,59.8796846 L170.106913,60.1398394 C169.978177,60.1459213 169.856405,60.0810912 169.789424,59.9708117 C169.722442,59.8605322 169.72095,59.7224166 169.785533,59.6107111 L170.225779,58.8037904 L167.201285,59.4299256 L166.919527,59.6768521 L160.373059,65.056323 C159.929135,65.4241908 159.650213,65.9543417 159.598225,66.5290634 L159.334077,69.5715511 C159.281013,70.2244696 158.972436,70.8299164 158.475596,71.2559428 L154.513376,74.6996861 C154.007708,75.1359396 153.846778,75.8523088 154.117154,76.4634471 L154.953622,78.3418525 L154.953622,78.3418525 L157.665542,81.3358367 C157.933597,81.6247181 158.089737,82.0000449 158.105788,82.3940933 L158.193838,85.3439835 L159.122758,84.6076133 L158.792573,87.6236445 C158.783275,87.7264496 158.816722,87.8285442 158.885025,87.9058463 L163.859813,93.2764984 C163.883857,93.3023437 163.903224,93.3321855 163.917045,93.3646865 L169.015101,104.061897 C169.204437,104.437924 169.561226,104.701185 169.97591,104.770844 C170.390594,104.840502 170.813615,104.708232 171.115078,104.414649 L185.097312,90.1766885 C185.169353,90.1047743 185.206353,90.0048787 185.198569,89.9033056 L184.903604,84.462103 C184.8971,84.4212064 184.8971,84.3795364 184.903604,84.3386397 L189.209216,70.0345384 C189.248595,69.9014778 189.205356,69.7576999 189.099154,69.668558 Z" id="Path" fill="#0099DA"></path>
                <path d="M171.76224,60.0781077 L170.225779,60.1310206 C170.09816,60.1342106 169.978574,60.0688301 169.912226,59.9595945 C169.845879,59.850359 169.842894,59.7139342 169.904399,59.6018923 L170.344646,58.7949716 L167.320151,59.4211068 L167.042796,59.6680333 L160.491925,65.0475042 C160.047691,65.4145643 159.769949,65.9454886 159.721494,66.5202446 L159.457346,69.5627323 C159.457346,69.6553297 159.422126,69.7479272 159.404516,69.8405246 L171.76224,60.0781077 Z" id="Path" fill="#42B4E4"></path>
                <path d="M165.53275,104.568978 L165.840923,109.361998 C165.859672,109.644681 165.769908,109.923861 165.589982,110.142463 L163.930252,112.148741 C163.66105,112.476642 163.480633,112.868415 163.406358,113.286367 L157.282527,148.301431 C157.249969,148.486406 157.30085,148.676328 157.421489,148.820131 C157.542128,148.963935 157.720145,149.046621 157.907677,149.046621 L165.224577,149.046621 C165.539197,149.045922 165.806395,148.815732 165.85413,148.504264 L170.256597,118.784891 C170.282907,118.618629 170.296155,118.450557 170.296219,118.282219 L170.296219,111.557881 C170.295216,111.312365 170.37575,111.073484 170.525147,110.878833 L173.81379,106.566437 C173.942756,106.394323 173.976625,106.168777 173.903913,105.966282 C173.8312,105.763788 173.661661,105.611512 173.452788,105.561094 L166.325194,103.916386 C166.128755,103.865196 165.919721,103.911311 165.762935,104.040427 C165.606149,104.169543 165.520571,104.366046 165.53275,104.568978 L165.53275,104.568978 Z" id="Path" fill="#FFE700"></path>
                <path d="M148.415959,115.821773 L145.118512,109.472233 C144.758279,108.779375 144.08323,108.306091 143.309946,108.204229 C142.536662,108.102367 141.762386,108.384736 141.235536,108.960743 L135.072082,115.685081 L137.814819,130.985708 L141.733015,143.746518 L148.904633,121.496674 C149.505366,119.615631 149.329387,117.572018 148.415959,115.821773 L148.415959,115.821773 Z" id="Path" fill="url(#linearGradient-7)" style="mix-blend-mode: multiply;"></path>
                <path d="M80.5651416,69.3025776 L77.0871928,59.9370069 C76.9620322,59.5818065 76.6468351,59.328232 76.2735459,59.282432 C75.9002566,59.2366321 75.5332685,59.4065072 75.3262061,59.7209461 L69.6029993,68.0370791 C69.0471593,68.8416033 68.905057,69.8624256 69.2199847,70.7885462 L71.240717,76.7544676 C71.6507068,77.9578505 71.2819516,79.2899111 70.3117965,80.1100228 L67.5382424,82.4602343 C66.7614432,83.1168794 66.3579027,84.114947 66.4596381,85.1279228 L67.591072,96.614416 L72.2356745,99.8288704 C72.6669819,100.13032 73.2087427,100.226756 73.7173435,100.092613 C74.2259443,99.9584705 74.6500202,99.6072974 74.8771545,99.1321848 L74.8771545,99.0880908 C75.1280642,98.5671612 75.1149725,97.9574372 74.8419348,97.4477931 L74.8419348,97.4477931 C74.4935239,96.8199897 74.5524101,96.0445908 74.9916187,95.4767902 L76.5280795,93.4881497 C77.1306563,92.7087161 77.5531628,91.8051456 77.7651727,90.8425083 L78.984656,85.3219365 L80.899729,72.7198644 C81.0803618,71.5708113 80.9651982,70.3945959 80.5651416,69.3025776 Z" id="Path" fill="url(#linearGradient-8)" style="mix-blend-mode: multiply;"></path>
                <path d="M185.031275,86.9445966 L185.031275,86.9181402 L182.640736,82.5087377 L178.15022,81.1330042 L178.15022,81.1330042 C178.462677,81.9343544 178.346554,82.8398748 177.842047,83.5361285 L176.261561,85.1014664 C175.41182,85.9308027 174.941853,87.0748606 174.962834,88.2630079 L175.160945,99.0439968 L185.211776,90.0752723 L185.031275,87.0107376 L185.031275,86.9798718 L185.031275,86.9445966 Z" id="Path" fill="url(#linearGradient-9)" style="mix-blend-mode: multiply;"></path>
                <path d="M191.243156,70.9913787 C191.075363,68.0054945 189.900342,65.1651419 187.910488,62.9354005 L187.439424,62.4106816 C185.618183,60.3679079 183.207,58.9438855 180.540759,58.3363938 L172.84965,56.5726328 C172.05791,56.3928329 171.227238,56.5666316 170.573574,57.0488483 L166.703806,59.906141 L171.771045,61.2906934 C172.737854,61.5558099 173.484704,62.325788 173.721338,63.3013809 L173.721338,63.3454749 C174.007554,64.5159803 173.523739,65.7398013 172.515062,66.3967814 L169.794338,68.1605423 C169.082065,68.6237818 168.759477,69.5015278 169.001894,70.3167401 L169.979241,73.6370201 C170.310293,74.7692104 169.923914,75.9894406 169.001894,76.7236018 L160.870538,83.1657387 C160.358716,83.5704307 159.661843,83.6488801 159.073096,83.3680828 C158.484349,83.0872855 158.105907,82.4959747 158.096984,81.842918 L158.074971,80.5994665 C158.060929,79.8855292 157.606743,79.2549897 156.934732,79.016491 L154.96683,78.3374431 L153.910238,79.6029416 C153.570774,80.0119 153.497063,80.5801979 153.720932,81.0624538 L153.853006,81.3490649 C154.014812,81.6933868 154.025981,82.0896817 153.883823,82.4425967 L153.549235,83.267155 C153.400144,83.6320792 153.416201,84.0437981 153.59326,84.395962 L153.993885,85.2028826 C154.145043,85.5094947 154.177962,85.8611798 154.086336,86.1905888 L153.276282,89.0567003 C153.053427,89.8350059 153.21719,90.6731517 153.716529,91.3099049 L153.778164,91.3892742 C154.198562,91.9281316 154.816919,92.2759102 155.495126,92.3549333 L163.529627,93.2676796 C163.765181,93.2938546 164.000293,93.2148229 164.172388,93.0516189 L169.922009,87.6545104 C170.492119,87.1200649 170.773426,86.3452535 170.679234,85.568863 L170.626404,85.1279228 C170.565831,84.6363297 170.656447,84.1379274 170.886149,83.6992764 L172.625124,80.3569494 C173.157213,79.2928001 174.356687,78.7425572 175.50874,79.0341287 L175.579179,79.0341287 C176.444823,79.2563068 177.216411,79.750901 177.780412,80.4451374 C177.944844,80.6469048 178.077023,80.873004 178.172232,81.1153666 L178.172232,81.1153666 L180.038878,86.1112195 C180.210317,86.5697132 180.646283,86.8748442 181.135092,86.8784555 L185.062092,86.9049119 L186.823079,83.8712431 C187.302265,83.0501588 187.961661,82.3490116 188.75136,81.820871 C190.608299,80.5840379 191.673373,78.4555662 191.551328,76.2253393 L191.243156,70.9913787 Z" id="Path" fill="#023852"></path>
                <path d="M172.004376,60.2059804 L179.695485,61.9697414 C182.361287,62.5757534 184.772483,63.9982424 186.594151,66.0396198 L187.065215,66.5687481 C189.055068,68.7984894 190.23009,71.638842 190.397882,74.6247263 L190.67964,79.6823108 C191.304925,78.6162057 191.603465,77.3895001 191.538121,76.1547889 L191.243156,70.8943718 C191.075363,67.9084876 189.900342,65.068135 187.910488,62.8383936 L187.439424,62.3092653 C185.622679,60.2548837 183.210957,58.8197527 180.540759,58.2041117 L172.84965,56.4403507 C172.057932,56.2581358 171.226252,56.4321455 170.573574,56.9165662 L166.703806,59.773859 L169.785533,60.6160548 C170.433708,60.1706108 171.24016,60.0215667 172.004376,60.2059804 Z" id="Path" fill="#3C667A"></path>
                <path d="M153.227855,89.0699285 C153.161884,89.3590594 153.146983,89.6575291 153.183831,89.951809 L153.223453,89.8151175 C153.292442,89.5717283 153.293964,89.3141184 153.227855,89.0699285 L153.227855,89.0699285 Z" id="Path" fill="#3C667A"></path>
                <path d="M170.018863,87.3061676 C169.988046,87.3634898 169.970436,87.420812 169.944022,87.4781343 C170.31678,87.1088159 170.562026,86.6299098 170.644014,86.1112195 L170.018863,87.3061676 Z" id="Path" fill="#3C667A"></path>
                <g id="Group" style="mix-blend-mode: multiply;" transform="translate(92.892048, 110.676000)">
                    <rect id="Rectangle" fill="url(#linearGradient-10)" opacity="0.22" transform="translate(28.514777, 18.916336) rotate(-180.000000) translate(-28.514777, -18.916336) " x="0.264148005" y="0.114644462" width="56.5012583" height="37.6033837" rx="1.59"></rect>
                    <ellipse id="Oval" fill="url(#linearGradient-11)" cx="28.3210686" cy="18.9119269" rx="1.28111782" ry="1.44187459"></ellipse>
                </g>
                <path d="M102.269303,151.502657 L104.884368,173.752502 C104.984832,174.630553 105.017213,175.515081 104.981222,176.398143 L104.65544,183.841214 C104.603324,185.075679 104.412822,186.300364 104.087521,187.4922 L102.485024,193.339067 C102.137718,194.610703 101.94264,195.919195 101.903898,197.236979 L100.759257,253.478906 C100.741713,254.160922 100.833876,254.841321 101.032209,255.494003 L101.595725,257.323905 C101.823907,258.067573 102.409156,258.647121 103.154198,258.867196 L106.235925,259.749077 C106.86479,259.927905 107.530938,259.927905 108.159803,259.749077 L119.698669,256.882965 L121.389216,149.919682 L102.269303,151.502657 Z" id="Path" fill="#023852"></path>
                <path d="M104.932795,177.469628 L118.496795,187.364327 L119.187982,150.268024 L102.269303,151.502657 L104.884368,173.752502 C104.984832,174.630553 105.017213,175.515081 104.981222,176.398143 L104.932795,177.469628 Z" id="Path" fill="#678897" style="mix-blend-mode: multiply;"></path>
                <rect id="Rectangle" fill="#E4E9EC" x="119.095531" y="156.061979" width="122.630711" height="114.6621" rx="2.75"></rect>
                <polygon id="Path" fill="url(#linearGradient-12)" style="mix-blend-mode: multiply;" points="119.095531 165.414322 241.726242 228.799481 241.726242 156.824806 119.095531 156.824806"></polygon>
                <rect id="Rectangle" fill="#FFFFFF" x="12.3313094" y="148.332297" width="243.544461" height="8.58951588"></rect>
                <rect id="Rectangle" fill="#325E73" x="18.86457" y="144.540211" width="58.4779659" height="3.61570997"></rect>
                <path d="M127.777195,66.0396198 C127.579581,65.6807622 127.170796,65.4936751 126.770569,65.5789207 C126.370342,65.6641663 126.07294,66.0016664 126.038221,66.4100096 L124.717481,83.1657387 C124.766945,82.9684458 124.842452,82.778639 124.942006,82.6013352 L126.601736,79.6426262 C126.769322,79.3432381 127.099347,79.1731652 127.439988,79.2106467 C127.780628,79.2481282 128.065917,79.4859053 128.164612,79.8145929 L130.211759,86.6359384 C130.382022,87.1535946 130.729835,87.5941234 131.193509,87.8793899 L132.342553,88.6333977 C132.67766,88.8520493 132.948234,89.1565438 133.126192,89.5152782 L136.74502,96.4777246 L141.966345,92.143282 L127.777195,66.0396198 Z" id="Path" fill="url(#linearGradient-13)"></path>
                <path d="M161.385626,124.936008 L157.348564,148.006001 C157.316006,148.190976 157.366887,148.380898 157.487526,148.524701 C157.608165,148.668505 157.786182,148.751434 157.973714,148.751191 L165.290614,148.751191 C165.605234,148.750492 165.872432,148.520302 165.920167,148.208834 L169.213212,125.910486 C166.602549,125.57978 163.996289,125.249075 161.385626,124.936008 Z" id="Path" fill="#FFF166" style="mix-blend-mode: multiply;"></path>
                <rect id="Rectangle" fill="#9DADB7" transform="translate(115.124506, 131.248067) rotate(-180.000000) translate(-115.124506, -131.248067) " x="86.6581555" y="114.106515" width="56.9327" height="34.2831037" rx="1.59"></rect>
                <ellipse id="Oval" fill="#C8D1D7" cx="114.926395" cy="131.250272" rx="1.28992276" ry="1.31400192"></ellipse>
            </g>
        </g>
    </g>
</svg>