<?xml version="1.0" encoding="UTF-8"?>
<svg width="440px" height="330px" viewBox="0 0 440 330" version="1.1" xmlns="http://www.w3.org/2000/svg" xmlns:xlink="http://www.w3.org/1999/xlink">
    <title>Graphic elements / Icons / Rich icons / Marketplace / Practice-Access-Control</title>
    <defs>
        <linearGradient x1="49.986656%" y1="100%" x2="49.986656%" y2="0%" id="linearGradient-1">
            <stop stop-color="#FFFFFF" offset="37%"></stop>
            <stop stop-color="#84959E" offset="100%"></stop>
        </linearGradient>
        <linearGradient x1="0.158482794%" y1="49.975165%" x2="100.162497%" y2="49.975165%" id="linearGradient-2">
            <stop stop-color="#FFFFFF" offset="0%"></stop>
            <stop stop-color="#41B2E2" offset="57%"></stop>
        </linearGradient>
        <linearGradient x1="0.0640204665%" y1="50%" x2="100%" y2="50%" id="linearGradient-3">
            <stop stop-color="#FFFFFF" offset="0%"></stop>
            <stop stop-color="#41B2E2" offset="100%"></stop>
        </linearGradient>
        <linearGradient x1="0%" y1="50%" x2="100%" y2="50%" id="linearGradient-4">
            <stop stop-color="#FFFFFF" offset="0%"></stop>
            <stop stop-color="#41B2E2" offset="57%"></stop>
        </linearGradient>
        <linearGradient x1="0.0556788643%" y1="49.8236704%" x2="99.993831%" y2="49.8236704%" id="linearGradient-5">
            <stop stop-color="#FFFFFF" offset="0%"></stop>
            <stop stop-color="#41B2E2" offset="100%"></stop>
        </linearGradient>
        <linearGradient x1="0%" y1="49.9398068%" x2="100.052867%" y2="49.9398068%" id="linearGradient-6">
            <stop stop-color="#FFFFFF" offset="0%"></stop>
            <stop stop-color="#41B2E2" offset="100%"></stop>
        </linearGradient>
        <linearGradient x1="5.38487348e-07%" y1="49.9541981%" x2="100.016028%" y2="49.9541981%" id="linearGradient-7">
            <stop stop-color="#FFFFFF" offset="0%"></stop>
            <stop stop-color="#41B2E2" offset="57%"></stop>
        </linearGradient>
        <linearGradient x1="50%" y1="100%" x2="50%" y2="0%" id="linearGradient-8">
            <stop stop-color="#FFFFFF" offset="37%"></stop>
            <stop stop-color="#84959E" offset="100%"></stop>
        </linearGradient>
    </defs>
    <g id="Graphic-elements-/-Icons-/-Rich-icons-/-Marketplace-/-Practice-Access-Control" stroke="none" stroke-width="1" fill="none" fill-rule="evenodd">
        <g id="Access-Control" transform="translate(0.000000, 10.000000)">
            <g id="Midlayer" transform="translate(0.000000, 0.126792)" stroke="#023852">
                <path d="M77.5409041,21.8153272 C62.6551556,21.8153272 50.5878721,33.8931719 50.5878721,48.7919482 C50.5878721,63.6907246 62.6551556,75.7685693 77.5409041,75.7685693 C92.4266526,75.7685693 104.493936,63.6907246 104.493936,48.7919482 C104.493936,41.6373035 101.65425,34.7756944 96.5995758,29.7165966 C91.5449018,24.6574988 84.6892926,21.8153272 77.5409041,21.8153272 Z M77.5409041,28.5060597 C81.7577215,28.5012193 85.8700811,29.8188694 89.3001103,32.2738661 L61.0372657,60.561446 C56.6384523,54.3791667 56.0566216,46.2560516 59.5293498,39.5089736 C63.0020779,32.7618957 69.9481085,28.5201637 77.5312018,28.5157839 L77.5409041,28.5060597 Z M77.5409041,69.0729814 C73.3240866,69.0778218 69.2117271,67.7601717 65.7816979,65.305175 L94.0445424,37.0224505 C98.4471338,43.2039622 99.0310025,51.3290787 95.5575565,58.0775515 C92.0841104,64.8260242 85.1352686,69.0672573 77.5506064,69.0681126 L77.5409041,69.0729814 Z" id="Shape"></path>
                <path d="M0.242557883,318.941735 L0.242557883,5.04961948 C0.242557883,2.42770167 2.50804851,0.330167428 5.30231533,0.330167428 L149.774642,0.330167428 C152.57376,0.330167428 154.83925,2.44226788 154.83925,5.04961948 L154.83925,318.941735" id="Path"></path>
                <polyline id="Path" points="147.028886 318.941735 147.028886 8.59891933 7.630871 8.59891933 7.630871 318.941735"></polyline>
                <rect id="Rectangle" x="15.9020948" y="137.636119" width="6.30650496" height="39.785175" rx="2.55"></rect>
                <rect id="Rectangle" x="259.134289" y="0.242770167" width="86.4282249" height="167.618234"></rect>
                <rect id="Rectangle" x="353.13032" y="0.242770167" width="86.4282249" height="167.618234"></rect>
                <line x1="258.935391" y1="5.35550989" x2="344.873649" y2="5.35550989" id="Path"></line>
                <line x1="258.935391" y1="11.1722831" x2="344.873649" y2="11.1722831" id="Path"></line>
                <line x1="258.935391" y1="16.9890563" x2="344.873649" y2="16.9890563" id="Path"></line>
                <line x1="258.935391" y1="22.8058295" x2="344.873649" y2="22.8058295" id="Path"></line>
                <line x1="258.935391" y1="28.6226027" x2="344.873649" y2="28.6226027" id="Path"></line>
                <line x1="258.935391" y1="34.4442314" x2="344.873649" y2="34.4442314" id="Path"></line>
                <line x1="258.935391" y1="40.2610046" x2="344.873649" y2="40.2610046" id="Path"></line>
                <line x1="258.935391" y1="46.0777778" x2="344.873649" y2="46.0777778" id="Path"></line>
                <line x1="353.290408" y1="5.35550989" x2="439.228666" y2="5.35550989" id="Path"></line>
                <line x1="353.290408" y1="11.1722831" x2="439.228666" y2="11.1722831" id="Path"></line>
                <line x1="353.290408" y1="16.9890563" x2="439.228666" y2="16.9890563" id="Path"></line>
                <line x1="353.290408" y1="22.8058295" x2="439.228666" y2="22.8058295" id="Path"></line>
                <line x1="353.290408" y1="28.6226027" x2="439.228666" y2="28.6226027" id="Path"></line>
                <line x1="353.290408" y1="34.4442314" x2="439.228666" y2="34.4442314" id="Path"></line>
                <line x1="353.290408" y1="40.2610046" x2="439.228666" y2="40.2610046" id="Path"></line>
                <line x1="353.290408" y1="46.0777778" x2="439.228666" y2="46.0777778" id="Path"></line>
            </g>
            <g id="Ilus" transform="translate(168.000000, 22.126792)" fill-rule="nonzero">
                <path d="M98.1403784,135.824306 L106.205054,202.980556 C106.262274,203.438723 106.215973,203.903957 106.069595,204.341667 L104.715,208.425 C104.494919,209.077609 104.494919,209.784891 104.715,210.4375 L108.469162,221.302083 C108.80531,222.281202 109.605702,223.027086 110.602649,223.290278 L110.776811,223.338889 C112.145398,223.704567 113.094521,224.954159 113.084459,226.377083 L112.832892,267.482639 C112.824795,268.061521 112.657348,268.626848 112.349108,269.115972 L111.342838,270.763889 C110.6118,271.936495 110.737903,273.453046 111.652459,274.4875 L111.652459,274.4875 C112.066069,274.962215 112.61221,275.300961 113.219919,275.459722 L130.099135,279.698611 C131.049659,279.941978 132.058735,279.719865 132.820954,279.099497 C133.583172,278.47913 134.008945,277.533425 133.969405,276.548611 L133.887162,274.4 C133.860263,273.860708 133.693486,273.337858 133.403378,272.883333 L132.919595,272.115278 C132.165365,270.885184 132.351612,269.295472 133.369514,268.275 L134.129054,267.506944 C134.7944,266.840928 135.123517,265.907818 135.024054,264.969444 L126.267568,182.777778 C126.234288,182.46979 126.156042,182.168408 126.035351,181.883333 L108.086973,139.620833 C107.989277,139.393501 107.86591,139.1782 107.719297,138.979167 L103.728081,133.597917 C102.892413,132.452231 101.392201,132.018108 100.078099,132.541705 C98.763997,133.065301 97.9675571,134.414512 98.1403784,135.824306 Z" id="Path" fill="#023852"></path>
                <path d="M98.1403784,135.824306 L106.205054,202.980556 C106.262274,203.438723 106.215973,203.903957 106.069595,204.341667 L104.715,208.425 C104.494919,209.077609 104.494919,209.784891 104.715,210.4375 L108.469162,221.302083 C108.80531,222.281202 109.605702,223.027086 110.602649,223.290278 L110.776811,223.338889 C112.145398,223.704567 113.094521,224.954159 113.084459,226.377083 L112.832892,267.482639 C112.824795,268.061521 112.657348,268.626848 112.349108,269.115972 L111.342838,270.763889 C110.6118,271.936495 110.737903,273.453046 111.652459,274.4875 L111.652459,274.4875 C112.066069,274.962215 112.61221,275.300961 113.219919,275.459722 L130.099135,279.698611 C131.049659,279.941978 132.058735,279.719865 132.820954,279.099497 C133.583172,278.47913 134.008945,277.533425 133.969405,276.548611 L133.887162,274.4 C133.860263,273.860708 133.693486,273.337858 133.403378,272.883333 L132.919595,272.115278 C132.165365,270.885184 132.351612,269.295472 133.369514,268.275 L134.129054,267.506944 C134.7944,266.840928 135.123517,265.907818 135.024054,264.969444 L126.267568,182.777778 C126.234288,182.46979 126.156042,182.168408 126.035351,181.883333 L108.086973,139.620833 C107.989277,139.393501 107.86591,139.1782 107.719297,138.979167 L103.728081,133.597917 C102.892413,132.452231 101.392201,132.018108 100.078099,132.541705 C98.763997,133.065301 97.9675571,134.414512 98.1403784,135.824306 Z" id="Path" fill="#678897" style="mix-blend-mode: multiply;"></path>
                <polygon id="Path" fill="#A5B1B8" points="145.855973 56.6659722 163.983351 94.9423611 159.222919 96.1770833 146.112378 68.5027778"></polygon>
                <polygon id="Path" fill="url(#linearGradient-1)" style="mix-blend-mode: multiply;" points="145.841459 56.6659722 163.968838 94.9423611 159.213243 96.1770833 146.102703 68.5076389"></polygon>
                <rect id="Rectangle" fill="#023852" x="1.12237838" y="82.4104167" width="18.2773514" height="31.5243056" rx="4.25"></rect>
                <rect id="Rectangle" fill="#FFE700" x="3.02364865" y="84.3597222" width="14.4748108" height="15.2201389" rx="2.29"></rect>
                <rect id="Rectangle" fill="#26A6DD" x="5.36032432" y="88.1319444" width="9.89337838" height="1.00625"></rect>
                <rect id="Rectangle" fill="#26A6DD" x="5.36032432" y="93.8291667" width="9.89337838" height="1.00625"></rect>
                <rect id="Rectangle" fill="#26A6DD" x="5.36032432" y="90.9270833" width="9.89337838" height="1.00625"></rect>
                <rect id="Rectangle" fill="#A5B1B8" x="7.52283784" y="100.659028" width="22.6555946" height="15.2201389" rx="4.15"></rect>
                <rect id="Rectangle" fill="#D6DBDE" x="9.93691892" y="102.977778" width="6.64718919" height="7.14583333"></rect>
                <rect id="Rectangle" fill="#D6DBDE" x="18.2531622" y="109.24375" width="8.11305405" height="1"></rect>
                <rect id="Rectangle" fill="#D6DBDE" x="18.2531622" y="107.347917" width="8.11305405" height="1"></rect>
                <path d="M27.5321351,100.624982 L26.2501081,100.624982 L22.6120541,104.251389 C18.7611351,108.10463 14.9215045,111.969213 11.0931622,115.845139 L27.5418108,115.845139 C28.9498832,115.845139 30.091356,114.698179 30.091356,113.283333 L30.091356,103.191667 C30.0926441,102.509704 29.8232731,101.855369 29.3429065,101.373604 C28.8625399,100.891839 28.2108294,100.622411 27.5321351,100.624982 L27.5321351,100.624982 Z" id="Path" fill="#527991" opacity="0.5"></path>
                <path d="M47.0044324,110.138194 L44.3097568,110.138194 C43.83708,110.138332 43.3880443,109.930497 43.0809459,109.569444 L36.6175946,101.9375 C36.339883,101.606109 35.9399231,101.402534 35.5097297,101.373611 L28.3497297,100.84375 C27.7516748,100.800086 27.1784992,101.091792 26.8596757,101.602083 L23.3135405,107.328472 C23.0862661,107.694232 23.0136159,108.13599 23.111702,108.555774 C23.2097882,108.975558 23.4705033,109.338671 23.836027,109.564583 L23.836027,109.564583 C24.5816158,110.029107 24.8221224,111.00655 24.3778649,111.766667 L24.3536757,111.805556 C24.0658982,112.306399 24.0658982,112.923463 24.3536757,113.424306 L24.8374595,114.270139 C25.2559311,115.019295 26.1839414,115.309493 26.9515946,114.93125 L30.6767297,113.098611 C31.274386,112.80276 31.991627,112.907096 32.4812432,113.361111 L39.1671351,119.539583 C39.5053355,119.85053 39.959062,120.0025 40.4152973,119.957639 L47.6720541,119.267361 C48.5523047,119.180154 49.1991766,118.398007 49.1234054,117.5125 L48.6105946,111.620833 C48.5379529,110.783328 47.8410857,110.140054 47.0044324,110.138194 L47.0044324,110.138194 Z" id="Path" fill="#26A6DD"></path>
                <path d="M48.4751351,113.677083 L41.2183784,114.367361 C40.7636943,114.41143 40.3117672,114.259474 39.9750541,113.949306 L33.2746486,107.770833 C32.7838087,107.319406 32.0682343,107.215313 31.4701351,107.508333 L27.745,109.340972 C26.9769633,109.71792 26.0496088,109.430716 25.626027,108.684722 L25.1422432,107.834028 C24.852455,107.333728 24.852455,106.715577 25.1422432,106.215278 L25.1422432,106.176389 C25.4646813,105.628266 25.4362565,104.940884 25.0696757,104.421528 L23.27,107.338194 C23.0427255,107.703955 22.9700753,108.145712 23.0681615,108.565497 C23.1662476,108.985281 23.4269628,109.348394 23.7924865,109.574306 C24.5380752,110.038829 24.7785818,111.016272 24.3343243,111.776389 L24.3101351,111.815278 C24.0223577,112.316121 24.0223577,112.933185 24.3101351,113.434028 L24.7939189,114.279861 C25.2123906,115.029018 26.1404009,115.319216 26.9080541,114.940972 L30.6331892,113.108333 C31.2308454,112.812482 31.9480865,112.916818 32.4377027,113.370833 L39.1235946,119.549306 C39.461795,119.860253 39.9155215,120.012222 40.3717568,119.967361 L47.6285135,119.277083 C48.5087641,119.189876 49.1556361,118.407729 49.0798649,117.522222 L48.7412162,113.633333 C48.6538461,113.655124 48.5648605,113.669755 48.4751351,113.677083 L48.4751351,113.677083 Z" id="Path" fill="url(#linearGradient-2)" style="mix-blend-mode: multiply;"></path>
                <path d="M83.3269189,29.6090278 L82.7560541,31.9277778 L82.1803514,34.2416667 C82.1020405,34.5766324 82.1669613,34.9292438 82.3593514,35.2138889 C82.55677,35.506379 82.8711246,35.6980286 83.2204865,35.7388889 L83.5784865,35.7826389 L83.9364865,35.83125 C84.2097602,35.8639005 84.4656066,35.9830753 84.667,36.1715278 C84.8726493,36.3578645 85.0148079,36.604438 85.0733784,36.8763889 L85.2814054,37.8486111 L85.4942703,38.8208333 C85.5176312,38.9343179 85.5567145,39.0439502 85.6103784,39.1465278 C85.6629843,39.2497117 85.7279729,39.346031 85.8038919,39.4333333 L86.6988919,40.4395833 L87.5938919,41.4458333 C87.6758085,41.5376589 87.7442312,41.6407867 87.7970811,41.7520833 C87.8515819,41.8628446 87.8906512,41.9806165 87.9131892,42.1020833 L88.0438108,42.8263889 L88.1744324,43.5555556 C88.3353434,44.4611755 88.8645628,45.2584531 89.6348408,45.7556845 C90.4051188,46.2529159 91.3467707,46.4051181 92.2333784,46.1756944 L95.1651081,45.4222222 L98.0968378,44.66875 C98.5170864,44.5623 98.9626112,44.6674204 99.2917838,44.9506944 L103.079811,48.2125 L106.863,51.4791667 C107.176956,51.750998 107.59969,51.8589898 108.00473,51.7708333 C108.409293,51.6895746 108.751869,51.421043 108.928757,51.0465278 L112.620027,43.3756944 L116.306459,35.7048611 C116.377721,35.5516596 116.42192,35.3871713 116.437081,35.21875 C116.445144,35.0542406 116.423844,34.8896088 116.374189,34.7326389 L115.455,31.9034722 L114.535811,29.0743056 C114.495489,28.9495497 114.436782,28.8315721 114.361649,28.7243056 C114.288383,28.6167508 114.198569,28.5215819 114.095568,28.4423611 L104.932703,21.1506944 L95.7891892,13.8881944 C95.528654,13.6824262 95.2002357,13.5834267 94.87,13.6111111 L89.0645946,13.9416667 L83.2591892,14.2722222 C82.5337965,14.3115151 81.9738819,14.9282203 82.0013514,15.6576389 L82.1755135,20.25625 L82.3496757,24.8548611 C82.3553078,25.0498416 82.4049341,25.2409909 82.4948108,25.4138889 C82.5822398,25.5861424 82.7060743,25.7371179 82.8576486,25.85625 L83.1575946,26.0944444 L83.4575405,26.3326389 C83.8944389,26.6776515 84.0719162,27.2591662 83.9026216,27.7909722 L83.6171892,28.6513889 L83.3365946,29.5069444 C83.3357878,29.523138 83.3357878,29.539362 83.3365946,29.5555556 C83.3365946,29.5555556 83.3317568,29.5944444 83.3269189,29.6090278 Z" id="Path" fill="#0099DA"></path>
                <path d="M83.9848649,29.8666667 L83.4188378,32.1125 L82.8576486,34.3534722 C82.821447,34.4921354 82.8480028,34.6397845 82.9302162,34.7569444 C83.0091663,34.8733325 83.1344761,34.9495894 83.2737027,34.9659722 L84.0912973,35.0340278 L84.9088919,35.1069444 L84.4251081,32.4868056 L83.9848649,29.8666667 Z" id="Path" fill="url(#linearGradient-3)" style="mix-blend-mode: multiply;"></path>
                <path d="M82.3738649,24.1451389 C82.3738649,24.0965278 82.3061351,22.5069444 82.2432432,20.9319444 C82.1803514,19.3569444 82.1174595,17.7916667 82.1174595,17.7916667 L86.1377027,17.5875 L90.1579459,17.3881944 L86.2876757,20.7909722 L82.3738649,24.1451389 Z" id="Path" fill="url(#linearGradient-4)" style="mix-blend-mode: multiply;"></path>
                <path d="M87.7922432,17.9569444 C87.9035135,18.4430556 88.1163784,19.3763889 88.3340811,20.3875 C88.5517838,21.3986111 88.7791622,22.4340278 88.9242973,23.1145833 C88.9764902,23.3419616 89.0846089,23.5525539 89.2387568,23.7270833 C89.3970156,23.8977699 89.5972563,24.0235224 89.8192973,24.0916667 L90.8884595,24.4222222 L91.9576216,24.7527778 C92.1351862,24.8033508 92.3000693,24.8911593 92.4414054,25.0104167 C92.5782985,25.128413 92.6887675,25.2742046 92.7655405,25.4381944 L93.5202432,27.0083333 L94.2749459,28.5736111 C94.3921602,28.8230671 94.5830521,29.0301543 94.8216216,29.1666667 C95.0679281,29.2972029 95.3494108,29.3449103 95.6247027,29.3027778 L95.6875946,29.3027778 L95.7504865,29.3027778 C95.9442897,29.2743334 96.1293708,29.2029336 96.2923243,29.09375 C96.4553301,28.9834633 96.5910335,28.8371299 96.689027,28.6659722 L98.3048649,25.9194444 L99.9207027,23.1680556 C100.233604,22.6404384 100.866889,22.3987934 101.449459,22.5847222 L102.233189,22.8375 L103.016919,23.0854167 C103.198501,23.1507789 103.363632,23.2553117 103.500703,23.3916667 C103.645242,23.5258773 103.756285,23.6924115 103.824838,23.8777778 L104.308622,25.1416667 L104.763378,26.4006944 C104.794859,26.4889408 104.835393,26.5736562 104.884324,26.6534722 C104.936986,26.7305629 104.995196,26.8036751 105.058486,26.8722222 L107.849919,29.7354167 L110.641351,32.5694444 C110.806851,32.7375484 111.013905,32.8583516 111.241243,32.9194444 C111.469518,32.9802458 111.709618,32.9802458 111.937892,32.9194444 L113.665,32.4333333 L115.392108,31.9472222 C115.690192,31.8653889 115.948257,31.6769591 116.117784,31.4173611 C116.292116,31.161222 116.36935,30.8507996 116.335486,30.5423611 L115.982324,27.3 L115.624324,24.0333333 C115.617067,23.9638482 115.617067,23.8937907 115.624324,23.8243056 C115.617193,23.7564386 115.617193,23.6880058 115.624324,23.6201389 L115.890405,22.3319444 L116.161324,21.04375 C116.161324,20.9902778 116.161324,20.9368056 116.161324,20.8881944 C116.166159,20.8348325 116.166159,20.7811397 116.161324,20.7277778 C116.137135,20.1784722 116.05973,18.2972222 115.953297,16.5034722 C115.846865,14.7097222 115.725919,13.0131944 115.609811,12.8284722 C115.493703,12.64375 115.048622,11.7881944 114.511622,10.7625 C113.974622,9.73680556 113.365054,8.56527778 112.987703,7.84583333 C112.875295,7.63362617 112.70821,7.4556635 112.503919,7.33055556 C112.299348,7.20703085 112.065288,7.1415148 111.826622,7.14097222 L101.667162,7.14097222 L91.5077027,7.14097222 C91.2207102,7.14200975 90.9419847,7.23764219 90.7142973,7.41319444 C90.4795596,7.58338414 90.3090497,7.8283863 90.2305135,8.10833333 L88.9726757,12.6875 L87.7196757,17.2618056 C87.6917488,17.3699185 87.6755285,17.4807468 87.6712973,17.5923611 C87.6925817,17.7194485 87.7333834,17.8424425 87.7922432,17.9569444 L87.7922432,17.9569444 Z" id="Path" fill="#023852"></path>
                <path d="M104.444081,28.9284722 L104.313459,29.7451389 L104.182838,30.5569444 C104.164701,30.6577073 104.133811,30.755725 104.090919,30.8486111 C104.049961,30.9412023 103.99442,31.0265558 103.926432,31.1013889 L103.041108,32.1222222 L102.150946,33.1479167 C101.922985,33.4092765 101.832875,33.7642745 101.908409,34.1034146 C101.983944,34.4425547 102.21605,34.7250951 102.533135,34.8638889 L102.67827,34.9270833 L102.818568,34.9902778 C103.225746,35.1676519 103.69915,35.0813543 104.018351,34.7715278 L104.787568,34.0277778 L105.556784,33.2694444 C105.630614,33.1940172 105.694068,33.1090038 105.745459,33.0166667 C105.796679,32.923776 105.834163,32.8238851 105.85673,32.7201389 L106.219568,31.0333333 L106.577568,29.3465278 C106.624167,29.128492 106.603927,28.9013857 106.519514,28.6951389 C106.428543,28.4958784 106.282433,28.3271279 106.098622,28.2090278 L106.098622,28.2090278 C105.790735,28.0118767 105.404014,27.9862156 105.073,28.1409722 C104.747064,28.2833556 104.511829,28.5779049 104.444081,28.9284722 Z" id="Path" fill="url(#linearGradient-5)" style="mix-blend-mode: multiply;"></path>
                <path d="M92.0543784,46.2729167 L94.899027,42.9430556 L98.2081081,39.7881944 C98.5044403,39.5025728 98.9544854,39.4518879 99.3063939,39.6645036 C99.6583024,39.8771192 99.8247847,40.3002969 99.7126757,40.6972222 L99.1756757,42.6756944 L98.6918919,44.3576389 C98.65717,44.4854223 98.5578203,44.58525 98.4306486,44.6201389 L95.1602703,45.4708333 L92.0543784,46.2729167 Z" id="Path" fill="url(#linearGradient-6)" style="mix-blend-mode: multiply;"></path>
                <path d="M83.951,32.0833333 C83.9944064,32.0881894 84.0382152,32.0881894 84.0816216,32.0833333 C84.1277247,32.0787736 84.1731666,32.0689892 84.2170811,32.0541667 C84.3579041,32.0061785 84.4731957,31.902619 84.5363784,31.7673611 C84.5922956,31.6303033 84.5922956,31.4766411 84.5363784,31.3395833 L83.4914054,28.3694444 L82.4415946,25.4041667 C82.3947301,25.2632996 82.2911752,25.1486648 82.1561622,25.0881944 C82.020196,25.0298296 81.8663986,25.0298296 81.7304324,25.0881944 C81.5915121,25.139413 81.4773002,25.2420027 81.4111351,25.375 C81.3527969,25.5132562 81.3527969,25.6693827 81.4111351,25.8076389 L82.4561081,28.7729167 L83.5059189,31.7381944 C83.5391748,31.8358727 83.5996196,31.9219148 83.6800811,31.9861111 C83.7602374,32.0420305 83.8537242,32.0755793 83.951,32.0833333 Z" id="Path" fill="#023852"></path>
                <path d="M82.7608919,28.4375 L82.8673243,28.4375 L82.9689189,28.4375 L90.8739459,26.5611111 L98.7741351,24.6847222 C98.919712,24.6517644 99.0455531,24.5604419 99.1224595,24.4319444 C99.1985395,24.3050495 99.2228102,24.153499 99.1901892,24.0090278 C99.1535172,23.8645375 99.0635983,23.7394356 98.9386216,23.6590278 C98.8123342,23.5825817 98.6615093,23.5581943 98.5177297,23.5909722 L90.6175405,25.4673611 L82.727027,27.3340278 C82.5836027,27.365978 82.4594672,27.4555747 82.3835405,27.5819444 C82.3036032,27.7091958 82.2791205,27.8638272 82.3158108,28.0097222 C82.3397321,28.1212738 82.3991734,28.2219568 82.4851351,28.2965278 C82.5628082,28.367518 82.658054,28.4162096 82.7608919,28.4375 L82.7608919,28.4375 Z" id="Path" fill="#023852"></path>
                <path d="M77.0715946,11.3215278 L77.9956216,14.0972222 L78.9196486,16.8680556 C78.9993568,17.1009124 79.1337787,17.311019 79.3115135,17.4805556 C79.4908401,17.6479078 79.7085456,17.7681384 79.9452703,17.8305556 L80.9902432,18.1076389 L82.0400541,18.3847222 C82.1302423,18.4087421 82.2226449,18.4234021 82.3158108,18.4284722 C82.4105706,18.4406252 82.5064835,18.4406252 82.6012432,18.4284722 L84.0525946,18.24375 L85.5039459,18.0541667 C85.7035066,18.0287599 85.9061445,18.0453138 86.099,18.1027778 C86.2927516,18.1554694 86.4727173,18.2500326 86.6263243,18.3798611 L88.5324324,19.9305556 L90.4675676,21.5006944 C91.0031189,21.943032 91.7752324,21.943032 92.3107838,21.5006944 L100.733459,14.91875 L109.151297,8.33194444 C109.35927,8.16967948 109.606321,8.06568727 109.867297,8.03055556 C110.127026,7.99623438 110.391158,8.0331891 110.631676,8.1375 L111.154162,8.35625 L111.671811,8.575 C112.154678,8.78698835 112.713961,8.71934327 113.132972,8.39827314 C113.551982,8.07720301 113.764883,7.55315523 113.689189,7.02916667 L113.602108,6.42638889 L113.524703,5.83333333 C113.493172,5.59849659 113.405165,5.3749175 113.268297,5.18194444 C113.135036,4.98800474 112.95536,4.83086764 112.745811,4.725 L108.599784,2.54722222 L104.453757,0.374305556 C104.336744,0.316220425 104.213338,0.272167721 104.086081,0.243055556 C103.957513,0.214476426 103.825758,0.203035465 103.694216,0.209027778 L98.4016216,0.486111111 L93.109027,0.748611111 C92.9930837,0.758163182 92.878168,0.777678991 92.7655405,0.806944444 C92.6542064,0.841816139 92.5471071,0.889101313 92.4462432,0.947916667 L85.0782162,5.24027778 L77.7101892,9.52777778 C77.4085944,9.70543284 77.1790349,9.98429506 77.0619189,10.3152778 C76.939521,10.6444428 76.939521,11.0069461 77.0619189,11.3361111 L77.0715946,11.3215278 Z" id="Path" fill="#023852"></path>
                <path d="M112.678081,8.60416667 C112.610872,8.51099684 112.532924,8.4261474 112.445865,8.35138889 C112.361547,8.27408161 112.267149,8.20866634 112.16527,8.15694444 L108.019243,5.98402778 L103.873216,3.81111111 C103.757344,3.74924917 103.633659,3.70346162 103.505541,3.675 C103.376914,3.64680362 103.245209,3.63536699 103.113676,3.64097222 L97.8210811,3.88888889 L92.5284865,4.15625 C92.411997,4.16102422 92.2965806,4.18062507 92.185,4.21458333 C92.0738156,4.24775374 91.9667069,4.2934124 91.8657027,4.35069444 L84.6621622,8.56041667 L77.4682973,12.7555556 L77.2264054,12.03125 L76.9845135,11.3118056 C76.8634911,10.9807203 76.8634911,10.6171963 76.9845135,10.2861111 C77.0999998,9.95544011 77.3301278,9.67761283 77.6327838,9.50347222 L85.0008108,5.21111111 L92.3688378,0.923611111 C92.4686787,0.862795643 92.5760266,0.815400713 92.6881351,0.782638889 C92.8012749,0.748272945 92.918343,0.728667746 93.0364595,0.724305556 L98.3290541,0.456944444 L103.621649,0.194444444 C103.883632,0.177757861 104.145039,0.235005442 104.376351,0.359722222 L108.522378,2.53263889 L112.668405,4.70555556 C113.092494,4.93386707 113.380775,5.35388535 113.442459,5.83333333 L113.529541,6.43611111 L113.611784,7.03402778 C113.656936,7.371923 113.585204,7.71514876 113.408595,8.00625 C113.231878,8.27611667 112.976848,8.48485495 112.678081,8.60416667 L112.678081,8.60416667 Z" id="Path" fill="#1A4E6D"></path>
                <path d="M88.1163784,19.1381944 L88.1163784,19.1381944 C88.2255689,19.2250325 88.3188809,19.3303078 88.3921351,19.4493056 C88.4660056,19.5700693 88.5168626,19.7035928 88.5421081,19.8430556 L88.6437027,20.4020833 L88.7404595,20.95625 C88.8099588,21.3533242 89.0826148,21.6841846 89.4578962,21.8268391 C89.8331775,21.9694936 90.2555052,21.9028152 90.5691622,21.6513889 L91.9963243,20.5090278 L93.4476757,19.3666667 C93.5563383,19.2797948 93.6790778,19.2123744 93.8105135,19.1673611 C93.9436854,19.1270396 94.0828809,19.1105849 94.2217297,19.11875 L99.1127838,19.4152778 L104.003838,19.7166667 C104.195112,19.7259593 104.385835,19.6892977 104.560189,19.6097222 C104.733069,19.5262004 104.88266,19.4009409 104.995595,19.2451389 L105.818027,18.1076389 L106.640459,16.9701389 C106.883901,16.6312618 106.924676,16.1861709 106.746892,15.8083333 C106.56828,15.4295247 106.196062,15.180809 105.779324,15.1618056 L99.5385135,14.8118056 L93.2977027,14.4618056 C93.1856465,14.4570335 93.0734465,14.466837 92.9638919,14.4909722 C92.8554191,14.5186794 92.7512411,14.5612053 92.6542703,14.6173611 L90.4482162,15.9347222 L88.2421622,17.2520833 C87.9188497,17.4458796 87.7119791,17.7879287 87.6897017,18.1655462 C87.6674244,18.5431638 87.8326294,18.907375 88.1308919,19.1381944 L88.1163784,19.1381944 Z" id="Path" fill="#1A4E6D"></path>
                <path d="M116.95473,33.9402778 L119.373649,37.0319444 C119.432592,37.105743 119.450762,37.204331 119.422027,37.2944444 L103.007243,95.7930556 C103.004971,95.8173075 103.004971,95.8417203 103.007243,95.8659722 L101.860676,133.296528 C101.857798,133.40462 101.796592,133.502568 101.700952,133.552136 C101.605312,133.601703 101.490402,133.59503 101.401081,133.534722 L94.0814324,128.7125 C93.9973362,128.656043 93.9465894,128.561346 93.945973,128.459722 L94.0765946,83.2513889 C94.0719825,83.2224063 94.0719825,83.1928715 94.0765946,83.1638889 L104.497297,49.4569444 L107.196811,51.2166667 C107.303074,51.2966689 107.449427,51.2955088 107.554421,51.213832 C107.659416,51.1321551 107.697193,50.990077 107.64673,50.8666667 L106.311486,47.4638889 C106.276302,47.3654917 106.29266,47.2559162 106.355027,47.1722222 L116.514486,33.95 C116.569085,33.8857402 116.648373,33.8479359 116.732441,33.8460076 C116.81651,33.8442228 116.897374,33.8784903 116.95473,33.9402778 Z" id="Path" fill="#FFFFFF"></path>
                <path d="M103.384595,53.2826389 L98.6144865,82.4493056 C98.5992691,82.5261658 98.5911714,82.6042774 98.5902973,82.6826389 L97.8162432,112.291667 C97.8162432,112.345139 97.8162432,112.39375 97.8162432,112.447222 L101.536541,159.502778 C101.618784,160.834722 106.921054,159.502778 99.6014054,161.525 L88.4163243,164.582639 C87.8930409,164.724933 87.3336024,164.609132 86.9088952,164.270608 C86.4841879,163.932085 86.2446632,163.411053 86.2634865,162.866667 L87.9664054,115.086806 C87.9741164,114.904736 87.8967045,114.729507 87.7571453,114.613125 C87.6175861,114.496743 87.4319168,114.452582 87.2552432,114.49375 L54.0773514,122.140278 C53.5276661,122.261809 52.9525591,122.136847 52.5019574,121.79797 C52.0513557,121.459094 51.769913,120.939883 51.731,120.375694 L50.9424324,107.916667 L84.3573784,100.357639 C84.6882604,100.283457 84.9907006,100.114626 85.2281892,99.8715278 L90.007973,94.7381944 C90.3656666,94.3644107 90.5347832,93.8474651 90.4675676,93.3333333 L89.4516216,86.1145833 C89.2635217,84.7699613 89.662042,83.4091827 90.544973,82.38125 L93.0993514,79.4111111 C93.7341695,78.6701944 94.1246252,77.749653 94.2168919,76.7763889 L95.3295946,64.9444444 C95.3558672,64.6404913 95.4646353,64.3496081 95.6440541,64.1034722 L103.384595,53.2826389 Z" id="Path" fill="#023852"></path>
                <polygon id="Path" fill="#FFFFFF" points="50.9424324 108.188889 47.4446757 108.709028 48.6105946 121.717361 51.7213243 120.939583"></polygon>
                <polygon id="Path" fill="#023852" points="121.773216 33.5076389 114.390676 43.00625 100.66573 93.4840278 101.314 145.658333 109.601216 161.792361 143.393514 161.923611 151.68073 149.430556 155.952541 99.2104167 147.278297 49.2479167 132.518054 37.66875 125.527378 38.1888889"></polygon>
                <path d="M163.736622,95.7930556 L124.550135,107.386806 C122.027986,108.131982 120.504694,110.705628 121.057216,113.288194 L129.194459,151.598611 C129.484539,152.966124 130.325314,154.151855 131.516927,154.873946 C132.708539,155.596037 134.144564,155.789998 135.483649,155.409722 L175.076514,144.340972 C177.651865,143.62149 179.217752,141.004105 178.642,138.38125 L170.083865,99.5458333 C169.783262,98.1748524 168.928341,96.991441 167.724194,96.2794947 C166.520047,95.5675483 165.075329,95.3913089 163.736622,95.7930556 L163.736622,95.7930556 Z" id="Path" fill="#A5B1B8"></path>
                <path d="M145.193189,155.725694 L143.006486,166.95 C142.900521,167.465863 142.53338,167.888261 142.038919,168.063194 L139.358757,169.074306 C138.808525,169.281264 138.429957,169.792886 138.391189,170.381944 L136.310919,202.51875 C136.289151,202.909615 136.115406,203.276235 135.827135,203.539583 L135.827135,203.539583 C135.401364,203.922523 135.23104,204.516394 135.388702,205.068277 C135.546365,205.62016 136.004239,206.032837 136.567324,206.130556 L137.501027,206.295833 C137.935945,206.374336 138.314531,206.640977 138.536324,207.025 L166.71673,255.835417 C166.791357,255.967782 166.846747,256.110198 166.881216,256.258333 L169.527514,268.114583 C169.701304,268.876736 169.260183,269.644458 168.516405,269.874306 L150.616405,275.488889 C150.185131,275.624465 149.715969,275.557417 149.34012,275.304654 C148.964272,275.052568 148.722078,274.643179 148.68127,274.190972 L148.066865,267.385417 C148.043547,267.131393 147.957039,266.887337 147.815297,266.675694 L112.266865,214.175694 C112.108118,213.939649 112.019213,213.663224 112.010459,213.378472 L110.157568,157.986111 C110.131902,157.183292 110.739347,156.502251 111.536351,156.440278 L143.616054,153.961111 C144.076869,153.926272 144.527691,154.108239 144.836464,154.453712 C145.145238,154.799184 145.277013,155.269057 145.193189,155.725694 Z" id="Path" fill="#023852"></path>
                <path d="M126.494946,63.8895833 L118.831811,105.038889 C118.591877,106.328186 119.38693,107.583869 120.650838,107.911806 L125.237108,109.093056 C126.164718,109.33262 126.871755,110.088064 127.052817,111.033078 C127.233879,111.978091 126.856517,112.943307 126.08373,113.511806 L105.576135,128.58125 C105.082784,128.943021 104.738542,129.473974 104.608568,130.073611 L101.488162,144.773611 C101.366598,145.336877 101.445342,145.925138 101.710703,146.436111 L108.89973,160.436111 C109.325095,161.258694 110.168729,161.77704 111.09127,161.782639 L139.049135,161.889598 C139.937588,161.892648 140.759625,161.41735 141.203434,160.643978 C141.647244,159.870606 141.64484,158.91763 141.197135,158.146528 L132.585784,143.325 C132.240939,142.729194 132.156882,142.016547 132.353568,141.35625 L143.872459,102.827083 C143.941613,102.595195 143.977453,102.354571 143.978892,102.1125 L143.978892,73.0430556 C143.978892,72.2232603 143.577272,71.4560038 142.904892,70.9916667 L130.326514,62.2854167 C129.634638,61.8112129 128.751139,61.7204257 127.978058,62.0440923 C127.204977,62.3677589 126.647024,63.0620405 126.494946,63.8895833 Z" id="Path" fill="#678897" style="mix-blend-mode: multiply;"></path>
                <path d="M155.952541,99.2104167 L153.533622,127.35625 C153.378668,129.132652 152.705518,130.823623 151.598486,132.217361 L133.862973,154.680556 L130.858676,134.502083 L155.952541,99.2104167 Z" id="Path" fill="#678897" style="mix-blend-mode: multiply;"></path>
                <path d="M94.6329459,94.4854167 L89.3645405,164.305556 L99.1756757,161.622222 C106.858162,159.522222 102.383162,160.353472 102.179973,158.656944 L100.670568,156.853472 L95.3489459,94.4854167 C95.3489459,94.2867476 95.1886639,94.1256944 94.9909459,94.1256944 C94.793228,94.1256944 94.6329459,94.2867476 94.6329459,94.4854167 Z" id="Path" fill="#678897" style="mix-blend-mode: multiply;"></path>
                <path d="M88.9242973,110.434722 L90.007973,94.7333333 L85.5958649,99.4048611 C85.1272426,99.8917664 84.5267346,100.229804 83.8687568,100.377083 L51.1601351,108.057639 L51.581027,120.419444 C51.6159166,121.069044 51.9386286,121.668763 52.4604812,122.053798 C52.9823338,122.438833 53.6484216,122.568674 54.2757027,122.407639 L85.6926216,114.309028 C87.4842793,113.846045 88.7837214,112.288205 88.9242973,110.434722 Z" id="Path" fill="#678897" style="mix-blend-mode: multiply;"></path>
                <path d="M126.374,137.618056 L121.797405,147.150694 C121.696075,147.366605 121.643224,147.602259 121.642594,147.840972 L121.642594,152.006944 C121.642594,152.359421 121.760002,152.701755 121.976405,152.979167 L126.973892,159.444444 C127.355678,159.931914 127.983563,160.153584 128.584892,160.013194 L141.264865,157.038194 C142.048736,156.855599 142.571312,156.11085 142.479162,155.307639 L141.443865,146.197917 C141.393705,145.710549 141.123324,145.273416 140.71062,145.012455 C140.297915,144.751495 139.788719,144.695687 139.32973,144.861111 L139.32973,144.861111 C138.872356,145.019346 138.368129,144.959312 137.960222,144.698057 C137.552316,144.436801 137.285283,144.002858 137.234946,143.519444 L136.901135,140.223611 C136.834388,139.57061 136.37503,139.025998 135.744892,138.852778 L128.226892,136.7625 C127.4845,136.558414 126.703396,136.919082 126.374,137.618056 L126.374,137.618056 Z" id="Path" fill="#0099DA"></path>
                <path d="M142.454973,155.307639 L141.709946,148.75 C141.504185,149.198276 141.104476,149.526396 140.62627,149.639583 L127.970486,152.6 C127.368126,152.740547 126.739378,152.516676 126.359486,152.026389 L122.097351,146.528472 L121.797405,147.150694 C121.696075,147.366605 121.643224,147.602259 121.642594,147.840972 L121.642594,152.006944 C121.642594,152.359421 121.760002,152.701755 121.976405,152.979167 L126.973892,159.444444 C127.355678,159.931914 127.983563,160.153584 128.584892,160.013194 L141.264865,157.038194 C142.039011,156.845281 142.54916,156.103466 142.454973,155.307639 Z" id="Path" fill="url(#linearGradient-7)" style="mix-blend-mode: multiply;"></path>
                <polygon id="Path" fill="#FFFFFF" points="124.879108 138.371528 137.955784 142.40625 138.473432 139.674306 125.658 135.902083"></polygon>
                <polygon id="Path" fill="#023852" points="124.748486 135.770833 139.382946 140.452083 155.952541 99.2104167 152.198378 78.3902778 147.278297 49.2479167 134.588649 39.7493056 126.562676 56.9236111 133.553351 92.3125 138.860459 97.1298611 134.332243 99.4680556 136.533459 102.851389"></polygon>
                <polygon id="Path" fill="#A5B1B8" points="132.580946 37.66875 123.645459 53.9340278 128.173676 106.468056 123.253595 107.639583 118.464135 54.4541667 127.660865 37.66875"></polygon>
                <polygon id="Path" fill="url(#linearGradient-8)" style="mix-blend-mode: multiply;" points="132.580946 37.66875 123.645459 53.9340278 128.164 106.404861 123.253595 108.047917 118.464135 54.4541667 127.660865 37.66875"></polygon>
                <polygon id="Rectangle" fill="#FFE500" transform="translate(161.664810, 96.040499) rotate(-15.100000) translate(-161.664810, -96.040499) " points="158.80068 95.3757782 164.53055 95.3688477 164.52894 96.7052189 158.79907 96.7121494"></polygon>
                <polygon id="Rectangle" fill="#FFE500" transform="translate(125.860527, 106.818949) rotate(-14.170000) translate(-125.860527, -106.818949) " points="122.996461 106.154009 128.726112 106.147468 128.724593 107.48389 122.994942 107.490431"></polygon>
                <path d="M16.3567297,73.4854167 C14.9099408,71.745064 12.7694099,70.7392044 10.5126216,70.7392044 C8.25583336,70.7392044 6.11530249,71.745064 4.66851351,73.4854167 L3.21716216,72.2798611 C5.01876031,70.1135609 7.6836823,68.8616008 10.4932703,68.8616008 C13.3028582,68.8616008 15.9677802,70.1135609 17.7693784,72.2798611 L16.3567297,73.4854167 Z" id="Path" fill="#FFFFFF"></path>
                <path d="M19.2981351,70.5736111 C17.0755959,68.0397696 13.876395,66.5880465 10.5150405,66.5880465 C7.15368608,66.5880465 3.95448521,68.0397696 1.73194595,70.5736111 L0.333810811,69.3243056 C2.91245358,66.39111 6.62006305,64.7111932 10.5150405,64.7111932 C14.410018,64.7111932 18.1176275,66.39111 20.6962703,69.3243056 L19.2981351,70.5736111 Z" id="Path" fill="#FFFFFF"></path>
                <path d="M13.4927297,76.2659722 C12.8065903,75.2969444 11.6961893,74.7214481 10.5126216,74.7214481 C9.32905394,74.7214481 8.21865294,75.2969444 7.53251351,76.2659722 L6.01343243,75.1722222 C7.04884823,73.7085268 8.72543809,72.8391095 10.5126216,72.8391095 C12.2998052,72.8391095 13.976395,73.7085268 15.0118108,75.1722222 L13.4927297,76.2659722 Z" id="Path" fill="#FFFFFF"></path>
                <path d="M16.3567297,73.4854167 C14.9099408,71.745064 12.7694099,70.7392044 10.5126216,70.7392044 C8.25583336,70.7392044 6.11530249,71.745064 4.66851351,73.4854167 L3.21716216,72.2798611 C5.01876031,70.1135609 7.6836823,68.8616008 10.4932703,68.8616008 C13.3028582,68.8616008 15.9677802,70.1135609 17.7693784,72.2798611 L16.3567297,73.4854167 Z" id="Path" fill="#FFFFFF"></path>
                <path d="M13.4927297,76.2659722 C12.8065903,75.2969444 11.6961893,74.7214481 10.5126216,74.7214481 C9.32905394,74.7214481 8.21865294,75.2969444 7.53251351,76.2659722 L6.01343243,75.1722222 C7.04884823,73.7085268 8.72543809,72.8391095 10.5126216,72.8391095 C12.2998052,72.8391095 13.976395,73.7085268 15.0118108,75.1722222 L13.4927297,76.2659722 Z" id="Path" fill="#FFFFFF"></path>
            </g>
        </g>
    </g>
</svg>