<?xml version="1.0" encoding="UTF-8"?>
<svg width="440px" height="330px" viewBox="0 0 440 330" version="1.1" xmlns="http://www.w3.org/2000/svg" xmlns:xlink="http://www.w3.org/1999/xlink">
    <title>Graphic elements / Icons / Rich icons / Marketplace / Practice-Communication</title>
    <defs>
        <linearGradient x1="0.104298816%" y1="49.9658936%" x2="99.7967534%" y2="49.9658936%" id="linearGradient-1">
            <stop stop-color="#FFFFFF" offset="0%"></stop>
            <stop stop-color="#0099DA" offset="100%"></stop>
        </linearGradient>
        <linearGradient x1="59.9309852%" y1="115.235765%" x2="46.1392396%" y2="9.94217082%" id="linearGradient-2">
            <stop stop-color="#FFFFFF" offset="0%"></stop>
            <stop stop-color="#0099DA" offset="100%"></stop>
        </linearGradient>
        <linearGradient x1="-2.3989626e-13%" y1="50%" x2="100%" y2="50%" id="linearGradient-3">
            <stop stop-color="#FFFFFF" stop-opacity="0" offset="0%"></stop>
            <stop stop-color="#FBFBFC" stop-opacity="0.04" offset="11%"></stop>
            <stop stop-color="#EFF2F3" stop-opacity="0.16" offset="28%"></stop>
            <stop stop-color="#DCE2E6" stop-opacity="0.35" offset="48%"></stop>
            <stop stop-color="#C2CCD2" stop-opacity="0.62" offset="71%"></stop>
            <stop stop-color="#A1B1BA" stop-opacity="0.96" offset="97%"></stop>
            <stop stop-color="#9DADB7" offset="100%"></stop>
        </linearGradient>
        <linearGradient x1="50.0052284%" y1="100.009632%" x2="50.0052284%" y2="0.011059336%" id="linearGradient-4">
            <stop stop-color="#FFFFFF" stop-opacity="0" offset="0%"></stop>
            <stop stop-color="#FBFBFC" stop-opacity="0.04" offset="11%"></stop>
            <stop stop-color="#EFF2F3" stop-opacity="0.16" offset="28%"></stop>
            <stop stop-color="#DCE2E6" stop-opacity="0.35" offset="48%"></stop>
            <stop stop-color="#C2CCD2" stop-opacity="0.62" offset="71%"></stop>
            <stop stop-color="#A1B1BA" stop-opacity="0.96" offset="97%"></stop>
            <stop stop-color="#9DADB7" offset="100%"></stop>
        </linearGradient>
        <linearGradient x1="0.0207105439%" y1="49.9890115%" x2="99.9852427%" y2="49.9890115%" id="linearGradient-5">
            <stop stop-color="#FFFFFF" offset="0%"></stop>
            <stop stop-color="#0099DA" offset="100%"></stop>
        </linearGradient>
        <linearGradient x1="-1.9293968%" y1="56.8741899%" x2="100.153716%" y2="40.9634932%" id="linearGradient-6">
            <stop stop-color="#FFFFFF" stop-opacity="0" offset="0%"></stop>
            <stop stop-color="#E8ECEE" stop-opacity="0.24" offset="14%"></stop>
            <stop stop-color="#C8D1D7" stop-opacity="0.56" offset="34%"></stop>
            <stop stop-color="#B1BDC5" stop-opacity="0.8" offset="52%"></stop>
            <stop stop-color="#A2B1BB" stop-opacity="0.95" offset="65%"></stop>
            <stop stop-color="#9DADB7" offset="73%"></stop>
        </linearGradient>
        <linearGradient x1="43.1121261%" y1="108.377203%" x2="63.7832365%" y2="-16.7315175%" id="linearGradient-7">
            <stop stop-color="#FFFFFF" offset="0%"></stop>
            <stop stop-color="#0099DA" offset="100%"></stop>
        </linearGradient>
        <linearGradient x1="116.250512%" y1="74.1948249%" x2="13.733115%" y2="41.7614491%" id="linearGradient-8">
            <stop stop-color="#FFFFFF" offset="0%"></stop>
            <stop stop-color="#0099DA" offset="100%"></stop>
        </linearGradient>
        <linearGradient x1="0%" y1="50.0121389%" x2="100%" y2="50.0121389%" id="linearGradient-9">
            <stop stop-color="#FFFFFF" stop-opacity="0" offset="0%"></stop>
            <stop stop-color="#FBFBFC" stop-opacity="0.04" offset="9%"></stop>
            <stop stop-color="#EFF2F3" stop-opacity="0.16" offset="23%"></stop>
            <stop stop-color="#DCE2E6" stop-opacity="0.35" offset="39%"></stop>
            <stop stop-color="#C2CCD2" stop-opacity="0.62" offset="58%"></stop>
            <stop stop-color="#A1B1BA" stop-opacity="0.96" offset="79%"></stop>
            <stop stop-color="#9DADB7" offset="81%"></stop>
        </linearGradient>
        <linearGradient x1="2.23652104e-14%" y1="50.0086049%" x2="100%" y2="50.0086049%" id="linearGradient-10">
            <stop stop-color="#FFFFFF" offset="0%"></stop>
            <stop stop-color="#0099DA" offset="100%"></stop>
        </linearGradient>
        <linearGradient x1="49.9701493%" y1="100%" x2="49.9701493%" y2="0%" id="linearGradient-11">
            <stop stop-color="#FFFFFF" offset="0%"></stop>
            <stop stop-color="#0099DA" offset="100%"></stop>
        </linearGradient>
        <linearGradient x1="50%" y1="100%" x2="50%" y2="-0.0451110232%" id="linearGradient-12">
            <stop stop-color="#FFFFFF" offset="0%"></stop>
            <stop stop-color="#0099DA" offset="100%"></stop>
        </linearGradient>
    </defs>
    <g id="Graphic-elements-/-Icons-/-Rich-icons-/-Marketplace-/-Practice-Communication" stroke="none" stroke-width="1" fill="none" fill-rule="evenodd">
        <g id="communication" transform="translate(66.000000, 0.000000)">
            <g id="Midlayer" transform="translate(117.643505, 0.457493)" stroke="#023852">
                <rect id="Rectangle" x="99.989649" y="70.2238671" width="17.4486207" height="29.5225378" rx="5.16"></rect>
                <line x1="103.540944" y1="88.143565" x2="106.157687" y2="88.143565" id="Path"></line>
                <line x1="103.540944" y1="85.5261631" x2="106.157687" y2="85.5261631" id="Path"></line>
                <line x1="103.540944" y1="82.9087613" x2="106.157687" y2="82.9087613" id="Path"></line>
                <line x1="103.540944" y1="80.2913595" x2="106.157687" y2="80.2913595" id="Path"></line>
                <line x1="107.40742" y1="88.143565" x2="110.020499" y2="88.143565" id="Path"></line>
                <line x1="107.40742" y1="85.5261631" x2="110.020499" y2="85.5261631" id="Path"></line>
                <line x1="107.40742" y1="82.9087613" x2="110.020499" y2="82.9087613" id="Path"></line>
                <line x1="107.40742" y1="80.2913595" x2="110.020499" y2="80.2913595" id="Path"></line>
                <line x1="111.270232" y1="88.143565" x2="113.886975" y2="88.143565" id="Path"></line>
                <line x1="111.270232" y1="85.5261631" x2="113.886975" y2="85.5261631" id="Path"></line>
                <line x1="111.270232" y1="82.9087613" x2="113.886975" y2="82.9087613" id="Path"></line>
                <line x1="111.270232" y1="80.2913595" x2="113.886975" y2="80.2913595" id="Path"></line>
                <ellipse id="Oval" cx="108.712127" cy="75.7328399" rx="1.78480955" ry="1.7802719"></ellipse>
                <rect id="Rectangle" x="103.540944" y="91.159426" width="10.3423667" height="4.86193353"></rect>
                <line x1="65.5358613" y1="182.571088" x2="65.5358613" y2="328.882387" id="Path"></line>
                <line x1="65.5358613" y1="0" x2="65.5578507" y2="92.5412387" id="Path"></line>
                <path d="M37.9867578,170.423565 C19.6059808,155.699477 16.2647758,129.079186 30.4391529,110.289739 C44.6135299,91.5002915 71.1829765,87.3294014 90.4581231,100.867919 C109.73327,114.406437 114.750944,140.763555 101.792783,160.407251" id="Path"></path>
                <path d="M56.8317079,143.299094 L52.3495271,143.299094 L47.522845,137.78281 L41.1312477,137.78281 L36.9275997,133.056133 L33.4972471,133.056133 L33.4972471,128.625559 L40.1966965,128.625559 L52.6573792,116.810695 L51.411311,113.345196 L47.6731061,113.345196 L44.8694525,110.66565 L44.8694525,116.496314 L39.7385832,116.496314 L36.4658215,112.555589 L39.2694751,109.265559 L37.2464466,106.271631 L33.8893921,106.271631 C28.3398278,111.999727 24.4766186,119.139938 22.7224214,126.911088 L31.1517068,136.188973 L34.8899116,136.188973 L37.5396392,139.1829 L34.5783946,142.648399 L34.5783946,149.740242 L38.6281164,154.148882 L38.6281164,167.005589" id="Path"></path>
                <line x1="45.4814919" y1="160.414562" x2="49.916029" y2="155.888943" id="Path"></line>
                <path d="M54.2406189,103.727341 L57.8762063,100.280121 L68.2222379,100.280121 L70.6080922,102.107915 L70.6080922,107.393897 L61.9699071,115.670151 L58.7887681,112.453233 L58.7887681,108.783021 C58.7887681,108.783021 53.9547562,103.453172 54.2406189,103.727341 Z" id="Path"></path>
                <path d="M101.781788,160.443807 C102.591733,159.34713 102.239902,159.738278 102.943564,158.550211 L102.943564,152.33571 L107.491713,147.736979 C107.704278,146.936405 107.905847,146.12852 108.074433,145.309668 L100.13258,137.267372 L101.836762,135.541934 L108.433594,142.209728 L108.613174,142.026949 C108.854034,140.173453 108.976445,138.306551 108.979665,136.437553 C108.979665,135.76858 108.961341,135.103263 108.928356,134.441601 L108.928356,133.524048 L108.811079,132.526073 C107.959512,122.966095 103.953591,113.957689 97.4205495,106.91136 L92.6561708,106.91136 L88.6907417,110.906918 L88.6907417,114.646586 L93.5540729,109.729819 L95.3865262,111.60148 L92.4326115,114.588097 L92.4326115,116.945952 L86.4917977,116.945952 L84.3881413,119.069849 C84.3881413,119.069849 84.3331677,121.99432 84.3331677,121.541027 L81.1483638,121.541027 L79.1033459,123.734381 L79.1033459,126.377372 L81.0347517,128.205166 L84.3331677,124.871269 L86.832634,124.871269 L89.3980687,127.459426 L93.8875794,127.459426 L95.3938561,125.935045 L98.3257814,125.935045 L102.1043,129.773414 L98.7105966,133.209668 L91.3807832,133.209668 L89.1378603,130.939547 L82.8525454,130.939547 L76.8714177,136.985891 L76.8714177,142.692266 L82.3064743,148.17565 L89.1048762,148.17565 L89.0535675,151.674048" id="Path"></path>
                <path d="M42.6668436,104.443837 L46.8411723,104.443837 L52.705023,110.292779 L48.3767682,110.292779 C48.3767682,110.292779 42.7144874,104.396314 42.6668436,104.443837 Z" id="Path"></path>
                <path d="M79.4221927,112.866314 C79.5724539,112.866314 81.767733,115.209547 81.767733,115.209547 L81.767733,119.490242 L79.4808312,117.205498 C79.4808312,117.205498 79.3269052,112.866314 79.4221927,112.866314 Z" id="Path"></path>
                <path d="M98.1645255,159.862568 L96.929452,159.862568 C96.0659621,156.590195 93.8120606,153.857539 90.7592541,152.38175 C87.7064475,150.905961 84.159555,150.834394 81.0494113,152.185831 C78.8192224,143.878888 70.3180889,138.894711 61.9568434,140.991942 C53.5955979,143.089173 48.4693034,151.491485 50.4437756,159.862568 L49.1573933,159.862568 C42.9455162,159.862568 37.9097947,164.885487 37.9097947,171.081571 L37.9097947,171.081571 C37.9097947,177.277655 42.9455162,182.300574 49.1573933,182.300574 L98.1645255,182.300574 C104.376403,182.300574 109.412124,177.277655 109.412124,171.081571 L109.412124,171.081571 C109.412124,164.885487 104.376403,159.862568 98.1645255,159.862568 L98.1645255,159.862568 Z" id="Path"></path>
                <rect id="Rectangle" x="0.318846881" y="146.124864" width="17.4486207" height="29.5225378" rx="5.16"></rect>
                <line x1="3.87014146" y1="164.044562" x2="6.48321992" y2="164.044562" id="Path"></line>
                <line x1="3.87014146" y1="161.42716" x2="6.48321992" y2="161.42716" id="Path"></line>
                <line x1="3.87014146" y1="158.809758" x2="6.48321992" y2="158.809758" id="Path"></line>
                <line x1="3.87014146" y1="156.192356" x2="6.48321992" y2="156.192356" id="Path"></line>
                <line x1="7.7329531" y1="164.044562" x2="10.3496965" y2="164.044562" id="Path"></line>
                <line x1="7.7329531" y1="161.42716" x2="10.3496965" y2="161.42716" id="Path"></line>
                <line x1="7.7329531" y1="158.809758" x2="10.3496965" y2="158.809758" id="Path"></line>
                <line x1="7.7329531" y1="156.192356" x2="10.3496965" y2="156.192356" id="Path"></line>
                <line x1="11.5994297" y1="164.044562" x2="14.2125081" y2="164.044562" id="Path"></line>
                <line x1="11.5994297" y1="161.42716" x2="14.2125081" y2="161.42716" id="Path"></line>
                <line x1="11.5994297" y1="158.809758" x2="14.2125081" y2="158.809758" id="Path"></line>
                <line x1="11.5994297" y1="156.192356" x2="14.2125081" y2="156.192356" id="Path"></line>
                <ellipse id="Oval" cx="9.04132479" cy="151.633837" rx="1.78480955" ry="1.7802719"></ellipse>
                <rect id="Rectangle" x="3.87014146" y="167.060423" width="10.3423667" height="4.86193353"></rect>
            </g>
            <g id="Ilus" transform="translate(0.000000, 31.363838)">
                <path d="M254.684676,250.576721 C253.782517,250.688577 253.068069,251.390515 252.942542,252.288351 L252.785164,253.448901 C252.710362,253.816959 252.808817,254.198901 253.05234,254.485368 L253.700151,255.259068 C254.374782,256.059804 255.307666,256.601685 256.338972,256.791871 L263.003734,258.021762 L272.062101,253.92334 L275.132796,245.408987 L271.341092,241.029551 L269.170743,240.923715 L268.226477,244.336025 C268.103138,244.800115 267.849134,245.219294 267.494488,245.54402 L263.680824,248.978227 C263.177076,249.430444 262.528398,249.689176 261.850851,249.708133 L254.684676,250.576721 Z" id="Path" fill="#9DADB7" fill-rule="nonzero"></path>
                <path d="M254.684676,250.576721 C253.782517,250.688577 253.068069,251.390515 252.942542,252.288351 L252.785164,253.448901 C252.710362,253.816959 252.808817,254.198901 253.05234,254.485368 L253.700151,255.259068 C254.374782,256.059804 255.307666,256.601685 256.338972,256.791871 L263.003734,258.021762 L272.062101,253.92334 L275.132796,245.408987 L271.341092,241.029551 L269.170743,240.923715 L268.226477,244.336025 C268.103138,244.800115 267.849134,245.219294 267.494488,245.54402 L263.680824,248.978227 C263.177076,249.430444 262.528398,249.689176 261.850851,249.708133 L254.684676,250.576721 Z" id="Path" fill="#D5DCE0" fill-rule="nonzero" style="mix-blend-mode: multiply;"></path>
                <path d="M254.556578,145.550551 L246.614495,191.268211 C246.336413,193.002609 246.757417,194.776291 247.785678,196.202376 L265.840192,220.986333 C266.418233,221.78122 266.729515,222.737957 266.729559,223.719831 L266.729559,225.840208 C266.729024,226.962949 267.135928,228.047962 267.875123,228.894864 L269.617257,230.891157 C270.255949,231.622572 270.648874,232.535085 270.74086,233.500571 L268.819389,241.927336 L276.139281,245.576866 L280.139602,232.128348 L280.97773,208.931936 L272.676972,177.910932 L266.773479,149.105193 L262.674339,141.51782 L254.556578,145.550551 Z" id="Path" fill="#023852" fill-rule="nonzero"></path>
                <path d="M254.523639,145.48121 L246.581556,191.19887 C246.29939,192.933417 246.720761,194.708643 247.752738,196.133035 L265.807253,220.916992 C266.385293,221.711879 266.696576,222.668616 266.69662,223.65049 L266.69662,225.774516 C266.696637,226.896061 267.103527,227.97974 267.842183,228.825523 L269.580657,230.821816 C270.220533,231.55428 270.614681,232.46794 270.707921,233.43488 L268.786449,241.857995 L276.124641,245.635258 L280.103003,232.066306 L280.94113,208.869894 L272.640372,177.84889 L266.733219,149.039501 L262.63774,141.43753 L254.523639,145.48121 Z" id="Path" fill="#BBC9D0" fill-rule="nonzero" style="mix-blend-mode: multiply;"></path>
                <rect id="Rectangle" fill="#D8DEE2" fill-rule="nonzero" style="mix-blend-mode: multiply;" transform="translate(52.774594, 257.737099) rotate(-180.000000) translate(-52.774594, -257.737099) " x="18.4095294" y="255.905035" width="68.7301297" height="3.664128" rx="1.832064"></rect>
                <rect id="Rectangle" fill="#D8DEE2" fill-rule="nonzero" style="mix-blend-mode: multiply;" transform="translate(268.414965, 257.844760) rotate(180.000000) translate(-268.414965, -257.844760) " x="230.056898" y="255.704311" width="76.7161324" height="4.28089855" rx="2.14044927"></rect>
                <path d="M255.043351,41.5389491 L252.638766,46.3891743 C252.309141,47.0528919 252.137552,47.7835034 252.137354,48.5241493 L252.137354,48.5861913 C252.136308,49.064382 251.947058,49.5230553 251.610322,49.8635267 L249.01176,52.4984873 C248.8166,52.697849 248.723933,52.9754609 248.760344,53.2516815 C248.796755,53.5279021 248.95822,53.7722051 249.198417,53.9145049 L250.713635,54.8049902 L250.519658,55.8633539 L255.255628,56.5056711 L255.954678,57.6516235 L256.979463,67.3374758 L259.490186,71.8957386 L261.320159,75.8700767 L265.642555,74.5890917 L271.864464,69.2169837 L272.870949,63.5018199 L272.16092,62.5346945 L271.220313,57.6005301 L274.711902,43.1739385 L256.851365,39.4441189 L255.043351,41.5389491 Z" id="Path" fill="#26A8E0" fill-rule="nonzero"></path>
                <path d="M272.519594,65.4616174 L272.885589,63.5018199 L272.175559,62.5346945 L271.370371,58.3085389 L268.493653,56.2027601 L266.579502,57.2063809 C265.781922,57.6188987 265.457666,58.5888986 265.847512,59.3960988 L269.551378,66.9031817 L272.519594,65.4616174 Z" id="Path" fill="url(#linearGradient-1)" fill-rule="nonzero" style="mix-blend-mode: multiply;"></path>
                <path d="M276.131961,40.9951691 L274.430086,39.4623666 C271.753095,37.0559092 268.317652,35.65673 264.716589,35.5062762 L258.626438,35.2508091 C257.724213,35.2134859 256.865962,35.6407007 256.353612,36.3821634 L254.197904,39.5025114 C253.970079,39.8301667 253.989545,40.2691479 254.245483,40.5754732 L255.043351,41.5389491 L260.58817,40.9112299 C260.777467,40.8891729 260.964804,40.9659299 261.083861,41.1143283 C261.202919,41.2627267 261.236895,41.4618233 261.173761,41.6411359 L260.53693,43.5242933 C260.305812,44.1989819 260.38342,44.9408333 260.749207,45.5534319 L261.536096,46.8745618 C261.755204,47.2439794 261.818385,47.6849871 261.711773,48.1008038 L260.097737,52.9181832 C259.972241,53.192369 259.754806,53.4143476 259.482866,53.5459024 L255.972977,55.210088 C255.629646,55.3729059 255.236962,55.3990103 254.874994,55.2830786 L252.313031,54.4582849 L250.728275,54.8232378 L250.578217,55.885251 C250.553363,56.0665135 250.602535,56.2501365 250.714698,56.3949162 C250.826862,56.539696 250.992624,56.6335081 251.174788,56.6553018 L254.585858,57.042152 C254.789072,57.0636458 254.957187,57.209417 255.006752,57.407105 L255.006752,57.407105 C255.036829,57.5376961 255.011431,57.6748761 254.936575,57.7861501 C254.861718,57.8974241 254.744063,57.9728928 254.611477,57.9946793 L252.093434,58.3924781 C251.955082,58.4165549 251.846744,58.5245848 251.822598,58.6625433 L251.489543,60.4617615 L250.900292,61.2537095 C250.45902,61.8506076 250.323569,62.619133 250.534297,63.330292 L251.127209,65.3557811 C251.387301,66.2495216 252.170409,66.8927693 253.09992,66.9761723 L256.983123,67.3228777 L263.28921,62.3376199 C263.814806,61.9164632 264.0904,61.2582943 264.021199,60.589495 L263.413648,54.4400372 C263.251065,52.8049726 264.127493,51.2420871 265.609616,50.5240916 L265.609616,50.5240916 C266.328701,50.1735859 267.186727,50.273404 267.805584,50.7795587 C268.115717,51.0484256 268.343966,51.3986755 268.464374,51.7904785 L268.903567,53.1262064 C269.067577,53.6248943 269.032176,54.167468 268.804749,54.6407613 L267.981261,56.3523909 C267.918376,56.4759982 267.931137,56.6244585 268.0142,56.7355915 L272.15726,62.5200964 L272.995387,59.2355195 C273.123875,58.7208801 273.329959,58.2286699 273.606598,57.7757075 L275.176715,55.2210366 C275.614799,54.5151682 275.917609,53.7343108 276.069742,52.9181832 L277.057928,47.4621361 L277.380003,46.7139824 C278.236126,44.7380031 277.734124,42.4377154 276.131961,40.9951691 L276.131961,40.9951691 Z" id="Path" fill="#023852" fill-rule="nonzero"></path>
                <path d="M255.043351,41.5389491 L257.704132,41.2360381 L257.312518,40.7470011 C257.062256,40.4302004 257.043098,39.9893424 257.264938,39.6521421 L259.420647,36.4369063 C259.77796,35.8965206 260.322724,35.5066545 260.950504,35.3420473 L258.626438,35.24351 C257.724213,35.2061868 256.865962,35.6334016 256.353612,36.3748643 L254.197904,39.4952123 C253.970079,39.8228676 253.989545,40.2618489 254.245483,40.5681741 L255.043351,41.5389491 Z" id="Path" fill="#28566C" fill-rule="nonzero"></path>
                <path d="M255.83024,116.05505 L255.566723,112.675585 C255.566723,112.675585 251.354125,122.441727 250.918592,124.05117 L248.916601,131.448767 C248.631774,132.502773 248.283446,133.538688 247.873517,134.550868 L243.807316,144.598023 L240.967198,154.349567 C240.71789,155.209192 240.865456,156.134875 241.369792,156.875042 L243.668238,160.243558 C243.918076,160.609332 244.304005,160.860528 244.740354,160.941382 C245.176702,161.022237 245.627366,160.92606 245.992304,160.674202 L245.992304,160.674202 C246.462749,160.349239 246.781677,159.84863 246.876768,159.285895 C246.971858,158.723161 246.835054,158.14598 246.497377,157.685237 L246.497377,157.685237 C246.199556,157.274266 246.05814,156.771016 246.098443,156.26557 L246.098443,156.061197 C246.122084,155.807565 246.19152,155.560286 246.3034,155.331291 L248.499367,150.732883 C248.771283,150.165105 248.848444,149.523927 248.718964,148.908118 L248.546947,148.112521 C248.45042,147.660908 248.464228,147.192771 248.587206,146.747596 L248.726284,146.258559 C248.828885,145.879275 249.011011,145.52601 249.260636,145.222093 L256.214534,136.663945 L255.83024,116.05505 Z" id="Path" fill="#0099DA" fill-rule="nonzero"></path>
                <path d="M253.853869,135.492446 C253.784943,134.210117 253.9083,132.92471 254.219863,131.678688 L246.731613,143.76958 C246.591455,144.465416 246.722323,145.188359 247.097608,145.79142 L248.561586,148.086974 C248.46506,147.635362 248.478868,147.167224 248.601846,146.72205 L248.740924,146.233013 C248.843525,145.853728 249.025651,145.500463 249.275276,145.196546 L254.058826,139.320803 L253.853869,135.492446 Z" id="Path" fill="url(#linearGradient-2)" fill-rule="nonzero" style="mix-blend-mode: multiply;"></path>
                <path d="M290.775406,237.332578 L291.002323,244.471058 C291.023698,245.182731 291.134357,245.888934 291.331718,246.573187 L293.275149,253.361313 C293.344968,253.598587 293.383116,253.844003 293.388607,254.091219 L293.436187,255.861241 C293.465532,256.986161 292.839096,258.026302 291.82947,258.529047 L291.82947,258.529047 C291.516082,258.686493 291.175991,258.784269 290.826645,258.81736 L282.042774,259.715144 C281.703407,259.74826 281.381266,259.559651 281.244906,259.248004 L281.244906,259.248004 C281.097633,258.905632 280.728357,258.714645 280.362859,258.791813 L276.336918,259.642154 C275.75565,259.765963 275.163501,259.831978 274.569164,259.839228 L264.548231,259.996158 C262.792612,260.024415 261.045362,259.749059 259.384047,259.182313 L255.310527,257.788193 C254.604382,257.548182 254.133205,256.882458 254.142854,256.138605 L254.142854,254.86127 C254.156087,254.020919 254.774215,253.312095 255.606983,253.182486 L262.857336,252.058431 C263.444293,251.968137 264.013542,251.787137 264.544571,251.52195 L268.02884,249.784773 C269.675188,248.964887 271.05747,247.700348 272.018182,246.135244 L275.151096,240.982107 C275.312022,240.715314 275.448012,240.434335 275.55735,240.142716 L277.105507,235.964004 L287.152059,237.558848 L290.775406,237.332578 Z" id="Path" fill="#C2CACF" fill-rule="nonzero"></path>
                <path d="M292.857915,251.923398 L291.331718,246.573187 C291.134357,245.888934 291.023698,245.182731 291.002323,244.471058 L290.775406,237.332578 L287.152059,237.533302 L277.105507,235.938457 L275.51343,240.219356 L292.857915,251.923398 Z" id="Path" fill="url(#linearGradient-3)" fill-rule="nonzero" opacity="0.69" style="mix-blend-mode: multiply;"></path>
                <path d="M288.495259,143.908262 L285.358686,153.032087 C284.914434,154.328794 284.6461,155.678924 284.560817,157.04657 L283.612891,185.396118 C283.575106,186.526187 283.752705,187.653143 284.136263,188.71719 L286.965402,196.563679 C287.172972,197.143397 287.321341,197.742522 287.408255,198.351949 L289.867739,216.015674 C290.073067,217.500502 290.017334,219.009651 289.703042,220.475399 L289.703042,220.475399 C289.376461,221.998168 289.330573,223.567496 289.567624,225.106652 L290.709527,232.50425 C290.787026,233.012081 290.943866,233.504662 291.17434,233.964061 L292.016128,235.639196 C292.29222,236.186931 292.325409,236.824991 292.107626,237.398269 L291.1597,239.912795 C290.988013,240.380252 290.526765,240.677945 290.028777,240.642701 L278.968419,239.774113 C278.478143,239.732916 278.011527,239.546038 277.628879,239.237632 L276.662653,238.452983 C276.006902,237.921764 275.626371,237.123986 275.626889,236.281513 L275.626889,236.281513 C275.625898,235.582382 275.886973,234.908122 276.358878,234.391056 L276.461356,234.277921 C277.05409,233.634187 277.311304,232.751348 277.156746,231.891129 L272.373196,205.428387 C272.175721,204.348524 271.538367,203.398517 270.612762,202.804375 L268.892588,201.709516 C268.021639,201.149772 267.405398,200.271933 267.176073,199.264331 L256.042516,141.601759 L269.006046,129.339339 L285.190328,131.277239 L288.495259,143.908262 Z" id="Path" fill="#023852" fill-rule="nonzero"></path>
                <path d="M284.560817,157.057518 C284.6461,155.689872 284.914434,154.339743 285.358686,153.043035 L288.495259,143.919211 L285.362345,131.999846 L281.336405,130.831997 L270.301667,129.510867 L258.253124,142.627277 L257.393037,148.65995 L258.015227,151.889784 L283.810528,179.24301 L284.560817,157.057518 Z" id="Path" fill="#BBC9D0" fill-rule="nonzero" style="mix-blend-mode: multiply;"></path>
                <path d="M273.313803,63.5383152 L273.313803,63.5383152 C273.92707,63.5909564 274.451877,63.9984544 274.653343,64.5784312 L275.132796,65.961603 C275.297623,66.4439745 275.613177,66.8609577 276.033143,67.1513498 L284.085024,72.6840371 C285.558197,73.7013476 286.702698,75.1240983 287.378976,76.7788096 L290.599728,84.5450092 C291.069192,85.6845891 291.257464,86.9198918 291.14872,88.1470952 L289.080851,111.427446 L290.676587,131.383076 C290.769336,132.547105 290.759538,133.717003 290.647308,134.879325 L289.761601,143.92651 C289.708704,144.443812 289.323108,144.865948 288.811509,144.966634 C288.29991,145.06732 287.782386,144.822924 287.536354,144.364453 L284.37782,138.430318 L278.046113,133.550896 L267.937342,133.335574 L254.106405,140.141947 L253.853869,135.507044 C253.774806,134.039645 253.948103,132.569573 254.366261,131.160454 L254.366261,131.160454 C254.747067,129.868472 254.922433,128.524955 254.885973,127.178817 L254.153984,99.613918 C254.099279,98.2975826 254.201249,96.9794212 254.45776,95.6870239 L255.555744,90.1652852 C255.920885,88.3215497 256.475234,86.5201522 257.210039,84.7895277 L258.49102,81.7786655 C258.766766,81.1316395 258.749427,80.3974899 258.443441,79.764125 L257.528455,77.8554209 C257.30553,77.391667 257.360588,76.8426571 257.671193,76.4321043 L257.671193,76.4321043 C257.953124,76.054185 258.023418,75.5594082 257.85785,75.1182735 L257.605313,74.4577086 C257.379599,73.861418 257.592924,73.1885658 258.121366,72.8300183 L259.490186,71.8957386 L261.034683,75.3080491 C261.076475,75.3987024 261.169991,75.4542794 261.269838,75.4478038 C261.369685,75.4413282 261.455192,75.3741405 261.484856,75.2788528 L262.059468,73.3883963 C262.279911,72.6608867 262.677197,71.998956 263.216011,71.4614446 L268.508293,66.1878739 C269.123241,65.572761 269.832364,65.059063 270.609102,64.6660199 L272.464695,63.7207917 C272.725164,63.5822987 273.019247,63.5190991 273.313803,63.5383152 Z" id="Path" fill="#EAEDEF" fill-rule="nonzero"></path>
                <path d="M270.338266,66.4469905 L270.814059,67.8301623 C270.981903,68.3109718 271.298429,68.7262683 271.718066,69.0162595 L289.285808,82.7202442 C289.572147,82.9214213 289.847066,83.1382937 290.109296,83.3698606 L287.400936,76.7751601 C286.724657,75.1204488 285.580156,73.697698 284.106984,72.6803875 L276.033143,67.1513498 C275.613799,66.8619037 275.298308,66.4462832 275.132796,65.9652526 L274.653343,64.5966789 C274.451877,64.0167021 273.92707,63.6092041 273.313803,63.5565628 C273.024618,63.533784 272.734712,63.5905904 272.475675,63.7207917 L270.620082,64.6660199 C270.161807,64.899363 269.726764,65.1755315 269.320801,65.4908137 C269.79259,65.6310286 270.169965,65.9856711 270.338266,66.4469905 L270.338266,66.4469905 Z" id="Path" fill="#F8F9F9" fill-rule="nonzero"></path>
                <path d="M257.81393,75.0817782 C258.039572,74.4159047 258.415171,73.8104148 258.911914,73.3117562 L259.764682,72.4614157 L259.490186,71.8957386 L258.081106,72.8482659 C257.552665,73.2068134 257.33934,73.8796656 257.565054,74.4759562 L257.81393,75.0817782 Z" id="Path" fill="#F8F9F9" fill-rule="nonzero"></path>
                <polygon id="Path" fill="#F8F9F9" fill-rule="nonzero" points="263.622265 135.204133 254.091765 139.882831 254.106405 140.127349 264.112698 135.215082"></polygon>
                <path d="M289.066211,111.47854 L288.231743,111.872689 L276.574815,109.704868 L275.809886,109.485896 L275.959944,104.810849 L274.711902,103.763434 L271.169074,90.8294996 L271.121495,80.975769 C271.121495,80.975769 268.325296,76.1474409 268.02884,76.5963331 C267.732385,77.0452253 262.641399,94.5228239 262.641399,94.5228239 L268.775469,107.20859 L262.491342,130.638572 L267.468868,133.572794 L267.937342,133.339224 L276.534555,133.5217 C277.518196,133.54111 278.469311,133.876445 279.246575,134.477877 L283.594591,137.831795 C284.110363,138.223959 284.535921,138.721727 284.842633,139.291607 L287.558313,144.400949 C287.802248,144.852236 288.312818,145.092121 288.817124,144.992385 C289.321429,144.892649 289.701538,144.476615 289.754281,143.966655 L290.643648,134.872026 C290.755878,133.709704 290.765676,132.539806 290.672927,131.375777 L289.066211,111.47854 Z" id="Path" fill="url(#linearGradient-4)" fill-rule="nonzero" opacity="0.69" style="mix-blend-mode: multiply;"></path>
                <path d="M288.594078,112.522305 L288.594078,112.646389 C288.619642,113.401895 288.383081,114.14307 287.924308,114.744869 L281.911016,122.649751 C281.500042,123.193054 281.023044,123.683404 280.490957,124.109563 C277.636199,126.38322 267.926362,134.328246 264.870307,136.824525 C264.265523,137.32224 263.815995,137.98195 263.574686,138.72593 L262.937855,140.685727 C262.757478,141.225711 262.467152,141.722705 262.085088,142.145539 L258.344623,146.309653 C258.113177,146.5637 257.982989,146.893437 257.978628,147.236633 L257.978628,147.236633 C257.978236,147.754755 258.277562,148.226629 258.747217,148.448277 L259.329148,148.725642 C259.523194,148.818435 259.657114,149.002675 259.685169,149.215437 C259.713225,149.428199 259.63162,149.640697 259.468226,149.780356 L258.857015,150.298589 C258.361255,150.716261 257.722199,150.92562 257.074621,150.882514 L252.788824,150.594201 C252.179307,150.547946 251.631737,150.205323 251.324846,149.678169 L250.193922,147.736619 C250.004509,147.412213 249.918955,147.037867 249.948706,146.663657 L250.241502,142.904641 C250.297195,142.211972 250.616746,141.566854 251.134529,141.101774 L256.50001,136.306291 L266.65636,125.098585 C267.191263,124.508448 267.672603,123.872152 268.094719,123.19718 L276.574815,109.69392 C276.879107,109.20927 277.388464,108.889476 277.958274,108.825331 L278.027813,108.825331 C278.638558,108.756176 279.256492,108.785753 279.857786,108.91292 L282.474648,109.46035 C282.817485,109.53197 283.169507,109.549213 283.517733,109.511443 L284.923152,109.354513 C285.537951,109.286772 286.159457,109.393012 286.716526,109.661074 L286.716526,109.661074 C287.830139,110.189186 288.554666,111.293304 288.594078,112.522305 L288.594078,112.522305 Z" id="Path" fill="#0099DA" fill-rule="nonzero"></path>
                <g id="Group" opacity="0.7" style="mix-blend-mode: multiply;" transform="translate(252.902283, 109.850849)" fill="url(#linearGradient-5)" fill-rule="nonzero">
                    <path d="M34.0594594,0 L24.2105441,12.8098499 C23.7985533,13.3522842 23.3216702,13.842517 22.790485,14.2696618 C19.932067,16.5433189 10.2222297,24.4883455 7.16983461,26.9846239 C6.56278491,27.4810159 6.11175594,28.1410646 5.87055371,28.886029 L5.23372307,30.8458265 C5.05609852,31.3862503 4.76684327,31.8835469 4.38461555,32.3056385 L0.640490585,36.4588035 C0.407860893,36.7121156 0.277487858,37.0423207 0.27449558,37.3857841 C0.27410354,37.9039053 0.573430059,38.3757795 1.04308467,38.597428 L1.62501611,38.8747923 C1.8205806,38.9661804 1.95594124,39.1506645 1.98409692,39.3641864 C2.01225261,39.5777084 1.92931939,39.7908138 1.76409407,39.9295064 L1.15288305,40.4477396 C0.986879925,40.5863012 0.803577771,40.7028391 0.60755107,40.794445 L4.0954798,41.0316644 C4.74295959,41.0740006 5.38173383,40.8647336 5.8778736,40.4477396 L6.48908462,39.9295064 C6.65247837,39.789848 6.73408319,39.5773495 6.70602774,39.3645876 C6.67797228,39.1518258 6.54405222,38.9675855 6.35000666,38.8747923 L5.76441527,38.597428 C5.29556631,38.3754234 4.99752575,37.9033284 4.99948651,37.3857841 C5.00213103,37.0422535 5.13255136,36.7119286 5.36548113,36.4588035 L9.1096061,32.301989 C9.49183382,31.8798973 9.78108907,31.3826007 9.95871362,30.842177 L10.5992042,28.8823795 C10.8405138,28.1383994 11.290041,27.47869 11.8948252,26.9809744 C14.9508802,24.4810464 24.6607175,16.5396694 27.5154756,14.2660123 C28.0484408,13.8408166 28.5255518,13.3503494 28.9355347,12.8062003 L34.9488263,4.90131863 C35.4054608,4.29841401 35.6417736,3.55801425 35.6185964,2.80283895 L35.6185964,2.67875493 C35.5802018,1.58221058 34.9952458,0.5771971 34.0594594,0 L34.0594594,0 Z" id="Path"></path>
                </g>
                <path d="M83.7395691,144.999472 L84.2336619,147.554143 C84.3094682,147.959622 84.2381136,148.378769 84.0323648,148.73659 L81.1044079,153.791189 C80.796352,154.32019 80.585639,154.899855 80.482217,155.502819 L80.1381821,157.480864 C80.0048577,158.249181 79.6996221,158.977666 79.2451552,159.612189 L74.6629025,165.976969 C74.4577704,166.261383 74.1831162,166.488772 73.8650343,166.637534 L72.2400181,167.389337 C71.4643391,167.747183 70.5472357,167.585545 69.9415719,166.98424 L68.6679107,165.714203 C67.6894098,164.73717 67.1291747,163.41972 67.1051136,162.039127 L66.9587158,154.615983 L78.8169415,142.817053 L83.7395691,144.999472 Z" id="Path" fill="#AEBCC4" fill-rule="nonzero"></path>
                <path d="M78.1654711,144.656416 L70.6589214,153.780241 L53.2851568,164.075564 C51.6397004,165.052053 50.7668538,166.937838 51.089189,168.819953 L51.6638006,172.148324 C51.8683507,173.334487 51.597604,174.553312 50.9098517,175.542387 L33.5287672,200.534368 C33.0078043,201.283957 32.1693778,201.752203 31.2562257,201.803542 C30.3430736,201.854881 29.4571764,201.483579 28.8550159,200.797134 L12.1546813,181.779434 L33.0383344,152.769321 L79.1536565,127.343046 L83.7359092,131.81737 L82.4659078,136.222352 L78.1654711,144.656416 Z" id="Path" fill="#9DADB7" fill-rule="nonzero"></path>
                <path d="M42.455376,173.484052 L48.7285237,191.556524 C48.9229778,192.118812 48.9880241,192.717531 48.9188409,193.308299 L48.435728,197.395772 C48.4106358,197.605795 48.3551604,197.811084 48.2710305,198.005244 L45.8957254,203.537931 L39.1284849,245.547669 L36.7495198,244.117054 L35.4795185,242.427321 L36.4274446,235.318037 C36.4841441,234.859934 36.4841441,234.396618 36.4274446,233.938515 L34.1216784,213.205536 L42.455376,173.484052 Z" id="Path" fill="#26A8E0" fill-rule="nonzero"></path>
                <path d="M42.455376,173.484052 L48.2783504,190.27189 C48.7693858,191.68661 48.9332897,193.193727 48.7578033,194.680522 L48.435728,197.406721 C48.4106358,197.616743 48.3551604,197.822033 48.2710305,198.016192 L45.8957254,203.548879 L39.1284849,245.547669 L36.7495198,244.117054 L35.4795185,242.427321 L36.4274446,235.318037 C36.4841441,234.859934 36.4841441,234.396618 36.4274446,233.938515 L34.1216784,213.205536 L42.455376,173.484052 Z" id="Path" fill="#26A8E0" fill-rule="nonzero"></path>
                <path d="M42.455376,173.484052 L48.2783504,190.27189 C48.7693858,191.68661 48.9332897,193.193727 48.7578033,194.680522 L48.435728,197.406721 C48.4106358,197.616743 48.3551604,197.822033 48.2710305,198.016192 L45.8957254,203.548879 L39.1284849,245.547669 L36.7495198,244.117054 L35.4795185,242.427321 L36.4274446,235.318037 C36.4841441,234.859934 36.4841441,234.396618 36.4274446,233.938515 L34.1216784,213.205536 L42.455376,173.484052 Z" id="Path" fill="#26A8E0" fill-rule="nonzero" style="mix-blend-mode: multiply;"></path>
                <path d="M52.860603,251.503702 L57.5746137,251.821211 C58.3058492,251.869117 58.9246607,252.377449 59.1117911,253.083949 L59.4777857,254.485368 C59.6126253,254.990544 59.5075054,255.529483 59.1926096,255.947437 C58.8777137,256.365392 58.3878776,256.616124 57.8637495,256.627642 L47.8501367,256.853913 C47.3587189,256.838548 46.8801367,256.693745 46.463017,256.434217 L39.5420588,252.083977 C39.4851985,252.049338 39.4143118,252.046874 39.3551705,252.07748 C39.2960291,252.108087 39.2572467,252.167306 39.252923,252.233608 L38.985747,256.248091 L37.4778491,256.248091 L33.6385655,249.824918 C32.8558309,248.517966 32.5822831,246.969676 32.8699768,245.474679 L32.8955965,245.335997 C33.0683458,244.438622 33.4369511,243.590128 33.9752806,242.850667 L35.7649943,240.394533 L52.860603,251.503702 Z" id="Path" fill="#023852" fill-rule="nonzero"></path>
                <path d="M56.4546702,254.638648 L61.1686809,254.956157 C61.8994795,255.005161 62.5177307,255.513032 62.7058583,256.218895 L63.0718529,257.616665 C63.206513,258.122219 63.1014247,258.661429 62.786679,259.079896 C62.4719333,259.498362 61.9822394,259.749939 61.4578166,259.762588 L51.4442038,259.988859 C50.9515637,259.973962 50.4716817,259.829148 50.0534243,259.569163 L43.1361259,255.218923 C43.0790818,255.18244 43.0068853,255.178957 42.9465752,255.209778 C42.8862651,255.240599 42.8469409,255.301074 42.8433302,255.368554 L42.5798141,259.383037 L41.0719163,259.383037 L37.2289728,252.956215 C36.4462382,251.649263 36.1726904,250.100973 36.4603841,248.605975 L36.4860037,248.470943 C36.6634383,247.571809 37.0384156,246.723033 37.5839876,245.985613 L39.3737012,243.529479 L56.4546702,254.638648 Z" id="Path" fill="#023852" fill-rule="nonzero"></path>
                <path d="M42.0491219,176.91461 L47.2425856,195.041825 C47.3929441,195.569562 47.4291225,196.123134 47.348724,196.665866 L46.5764754,201.884694 C46.546685,202.083995 46.5332207,202.285385 46.536216,202.486866 L46.8363316,233.730492 C46.8427256,234.395939 46.9324795,235.057983 47.1035076,235.701238 L49.4202536,244.350624 C49.6351261,245.156653 50.0419177,245.899063 50.6060761,246.514795 L58.1126258,254.737186 L56.9121635,256.48531 C56.7562885,256.712852 56.4679566,256.809683 56.2057938,256.72253 L48.9298208,254.372233 L38.711251,244.387119 L38.5172738,236.580774 C38.50756,236.240456 38.4646584,235.901887 38.3891757,235.569855 L33.8911018,215.537585 C33.5622503,214.062677 33.4696053,212.545158 33.6166059,211.041364 L34.6084513,201.012456 C34.6949231,200.071075 34.5698938,199.12231 34.2424567,198.235164 L31.8634916,191.66601 C31.6290477,190.990861 31.2960733,190.353861 30.8753062,189.775554 L21.1910885,176.812424 L42.0491219,176.91461 Z" id="Path" fill="#0099DA" fill-rule="nonzero"></path>
                <path d="M46.532556,153.415288 L43.333763,159.703427 C43.1162547,160.128962 42.7085122,160.425767 42.2357792,160.502675 L41.1853746,160.666903 C40.772599,160.731561 40.4058725,160.965713 40.1742584,161.312492 C39.9426444,161.659271 39.8673323,162.086952 39.9666125,162.491668 L43.5533598,176.637246 L41.3830117,177.264965 C38.1099191,178.213497 34.7259763,178.728847 31.3181597,178.797768 L26.871325,178.889006 L31.4462578,156.740009 L46.532556,153.415288 Z" id="Path" fill="#FFFFFF" fill-rule="nonzero"></path>
                <polygon id="Path" fill="#023852" fill-rule="nonzero" points="36.8849378 123.335862 32.1928868 127.31385 19.2110576 148.528567 24.356942 152.251087 26.4065119 152.583195 30.4727121 145.875359 40.954798 133.788116 66.9989752 129.576558 76.9320692 127.39049 79.2780947 122.558512 77.0894469 118.657165 72.3937359 116.708316 64.1039577 116.394456"></polygon>
                <path d="M74.1761297,133.623887 L64.4370128,140.82076 L55.1553893,148.656301 L71.0029563,144.324309 C71.831698,144.102524 72.4549763,143.419724 72.5986929,142.576184 L74.1761297,133.623887 Z" id="Path" fill="#FFFFFF" fill-rule="nonzero"></path>
                <path d="M78.7291028,117.241147 L77.5323004,118.273964 L68.4629537,115.525868 L62.1092871,116.003957 L49.7752684,119.978295 L18.1203936,138.682135 C15.6361263,140.146335 13.4518288,142.065622 11.6825483,144.338907 L4.06986018,154.115997 C3.30657459,155.103685 3.2565836,156.465728 3.94542201,157.506411 L6.92095827,162.363935 C7.8767494,163.928664 7.61675839,165.945061 6.29510747,167.21781 L4.98850667,168.473248 C3.47226165,169.936481 3.38660275,172.332939 4.79452953,173.900099 L22.6221275,193.702448 L31.5450763,168.283472 C31.711732,167.563669 32.0948017,166.911757 32.6430602,166.414913 L37.8438437,161.758113 C38.1961186,161.443087 38.4833089,161.062496 38.6892913,160.637707 L39.1394647,159.714376 C39.5164115,158.943653 40.1522562,158.328988 40.9364983,157.9772 L59.0934914,149.856996 C61.6194725,148.730305 63.8447094,147.027687 65.5898959,144.886336 L85.2401471,120.890677 L78.7291028,117.241147 Z" id="Path" fill="#AEBCC4" fill-rule="nonzero"></path>
                <line x1="19.4452942" y1="164.290887" x2="24.2947229" y2="181.217406" id="Path" stroke="#023852" stroke-width="2" stroke-linecap="round" stroke-linejoin="round"></line>
                <line x1="14.1420321" y1="180.159042" x2="17.7763587" y2="161.115796" id="Path" stroke="#023852" stroke-width="2" stroke-linecap="round" stroke-linejoin="round"></line>
                <path d="M5.07634538,178.115306 L30.3299742,180.443706 L28.6280992,208.910039 C28.583667,209.418266 28.1725607,209.817333 27.6618734,209.847968 L21.7144608,210.212921 C21.6330864,210.223804 21.5506189,210.223804 21.4692444,210.212921 L0.904006712,206.464854 C0.732249429,206.437168 0.578734604,206.342124 0.477671787,206.200901 C0.37660897,206.059679 0.336396218,205.884014 0.36599462,205.713051 L5.07634538,178.115306 Z" id="Path" fill="#FFFFFF" fill-rule="nonzero"></path>
                <path d="M72.6169926,125.361351 L38.3745359,128.098499 L36.0504701,128.098499 L18.1167337,138.682135 C13.3588036,140.543396 4.96288705,153.495577 3.56844755,154.915244 C8.83877008,156.068496 32.0867484,146.568769 38.4184553,148.017633 C40.5171397,148.498929 42.7101845,147.777495 44.1096716,146.145424 L48.6223853,140.871853 C49.7454721,139.562164 51.3962432,138.820762 53.1241191,138.850014 L58.0760263,138.937602 C59.7882767,138.965826 61.4254373,138.237746 62.5484806,136.948609 L72.6169926,125.361351 Z" id="Path" fill="url(#linearGradient-6)" fill-rule="nonzero" opacity="0.69" style="mix-blend-mode: multiply;"></path>
                <path d="M25.6525629,138.269739 C25.0865804,138.665486 24.350357,138.725501 23.7274312,138.426668 L22.8819837,138.02522 C21.8424151,137.529892 21.0854289,136.58971 20.8250939,135.470549 L20.8250939,135.470549 C20.6529629,134.747013 20.679513,133.990597 20.9019528,133.280831 L26.1100562,116.613428 C26.3740454,115.759995 26.7428373,114.942381 27.2080401,114.179192 L36.1346489,99.6285162 C36.5067213,99.0227999 37.257529,98.7655878 37.9243626,99.0153951 L37.9792617,99.0372923 C38.2805755,99.1490373 38.53742,99.3552087 38.711251,99.6248666 L39.4432402,100.800015 C39.5618066,100.984996 39.7206864,101.140928 39.9080534,101.256206 L42.1589203,102.664925 C42.5046454,102.880802 42.9241669,102.945464 43.3191233,102.843752 L44.9770789,102.416757 C45.3252612,102.324477 45.6953416,102.363459 46.0165036,102.526243 L47.1986662,103.113817 C47.5864962,103.307777 47.8699391,103.661072 47.9745748,104.080943 L47.9745748,104.080943 C48.0987314,104.576062 48.4691114,104.97295 48.9554404,105.132007 L50.8988718,105.767025 C51.1928218,105.865709 51.4486608,106.053215 51.6308611,106.303506 L52.9045224,108.047982 C53.5019795,108.866848 53.6832534,109.916324 53.3949552,110.887316 L50.412099,120.941771 L42.5981139,140.138298 C42.2717549,140.940723 41.4006798,141.37892 40.5595238,141.163816 L33.2323115,139.328102 L25.6525629,138.269739" id="Path" fill="#023852" fill-rule="nonzero"></path>
                <line x1="20.1260442" y1="182.374307" x2="18.4827283" y2="162.955159" id="Path" stroke="#023852" stroke-width="2" stroke-linecap="round" stroke-linejoin="round"></line>
                <path d="M87.3665758,129.773633 L90.1298352,131.127609 L89.4198056,132.992518 C89.2803529,133.353804 89.2411582,133.745896 89.3063473,134.127522 L89.935858,137.853692 C90.053586,138.570627 89.7736324,139.295039 89.2038688,139.747798 L84.8119334,143.331636 C84.5947364,143.510184 84.4166032,143.731285 84.288561,143.981253 L82.5464267,147.404512 C82.4067203,147.680776 82.1497825,147.879708 81.846754,147.946227 C81.5437256,148.012746 81.226764,147.939793 80.9836296,147.747568 L77.689678,145.156401 L79.6550692,140.317125 C79.7423303,140.059638 79.7868354,139.789669 79.7868272,139.517878 L79.7868272,137.952229 C79.7914764,137.267217 80.0525293,136.608633 80.5188165,136.105567 L82.9197412,133.466957 C83.0392294,133.334112 83.1435663,133.188456 83.2308366,133.032663 L84.4093393,130.945132 L85.2328272,131.237094 L87.3665758,129.773633 Z" id="Path" fill="#26A8E0" fill-rule="nonzero"></path>
                <path d="M87.2970368,136.919412 L87.2970368,136.919412 C87.0015626,136.76533 86.6427308,136.79968 86.3820503,137.007001 L86.0965745,137.233272 C85.9210383,137.372054 85.6834284,137.403962 85.4773275,137.316428 C85.2712266,137.228894 85.129662,137.035946 85.108389,136.813576 L84.4898581,130.974328 L84.4093393,130.945132 L83.2308366,133.032663 C83.1435663,133.188456 83.0392294,133.334112 82.9197412,133.466957 L80.5188165,136.094619 C80.0525293,136.597685 79.7914764,137.256269 79.7868272,137.941281 L79.7868272,139.517878 C79.7868354,139.789669 79.7423303,140.059638 79.6550692,140.317125 L77.689678,145.181948 L79.8856458,146.889928 L83.1137183,141.120021 L86.4076699,139.068986 L87.3738957,138.33908 C87.6069371,138.170284 87.7382745,137.895194 87.7227477,137.608398 C87.707221,137.321603 87.5469475,137.06221 87.2970368,136.919412 Z" id="Path" fill="url(#linearGradient-7)" fill-rule="nonzero" style="mix-blend-mode: multiply;"></path>
                <path d="M104.498784,120.255659 C104.465723,119.625828 104.289243,119.011777 103.982732,118.46009 L102.70541,115.175513 L89.3026873,111.777801 L81.9425355,124.040222 L81.6863393,125.233618 L81.6863393,125.233618 L74.4872251,134.028985 L87.7289105,131.262641 C88.0517581,131.178696 88.3950906,131.270176 88.6329172,131.50351 L91.9451685,134.788087 C92.2520594,135.086635 92.6747719,135.236031 93.1017115,135.196834 L93.5116255,135.15669 C93.9053474,135.119118 94.2670715,134.924291 94.5144507,134.616559 L95.0195233,133.98884 C95.1217939,133.861711 95.2914855,133.809647 95.447737,133.857457 L96.132147,134.06913 C96.2884327,134.118726 96.4582266,134.102804 96.602499,134.025022 C96.7467714,133.94724 96.8531116,133.81429 96.8970757,133.656733 L97.153272,132.769897 C97.2151265,132.544681 97.4019802,132.375427 97.6327249,132.335603 L98.3830139,132.207869 C98.6311097,132.165916 98.8275926,131.975797 98.8771066,131.729781 L99.052784,130.853894 C99.0686974,130.773018 99.1162327,130.701781 99.1848984,130.655906 C99.2535641,130.610031 99.3377152,130.593289 99.4187786,130.609375 L100.600941,130.831997 C100.789088,130.86795 100.983669,130.821847 101.135486,130.705343 C101.287303,130.588839 101.381824,130.413088 101.39515,130.222525 L101.658666,126.507304 C101.695157,126.004828 101.878369,125.523997 102.185698,125.124132 L103.847314,122.978208 C104.319181,122.367604 104.557882,121.609558 104.520744,120.839584 L104.498784,120.255659 Z" id="Path" fill="#0099DA" fill-rule="nonzero"></path>
                <path d="M92.384362,135.032606 L89.2807277,125.956225 L81.8217573,124.660642 L81.7009791,125.21902 L81.7009791,125.21902 L74.5018649,134.014387 L87.7435503,131.248043 C87.8239649,131.229356 87.9062003,131.219565 87.9887667,131.218847 C88.235299,131.219661 88.4717358,131.316587 88.647557,131.488912 L91.9598083,134.773489 C92.0264361,134.833345 92.0973862,134.888235 92.1720852,134.937718 C92.2403997,134.974526 92.3113524,135.006241 92.384362,135.032606 Z" id="Path" fill="url(#linearGradient-8)" fill-rule="nonzero" style="mix-blend-mode: multiply;"></path>
                <path d="M90.3604118,125.930678 C90.8901161,125.565057 91.165443,124.93106 91.0704414,124.295689 L90.8581645,122.835877 C90.7369302,122.079419 90.9580765,121.308278 91.4620556,120.730098 L92.0988862,120.000192 C92.3470987,119.716577 92.7081291,119.556574 93.0855761,119.562905 C93.4630232,119.569237 93.8184522,119.741258 94.0569575,120.033038 L95.1732411,121.405261 C95.4137157,121.740305 95.822461,121.912364 96.2309655,121.850504 C96.9578612,121.739002 97.6182809,121.36492 98.0865582,120.799439 L101.38051,116.843349 C101.536813,116.653754 101.768216,116.541493 102.014287,116.535885 C102.260358,116.530276 102.496663,116.631877 102.661491,116.814152 L103.455699,117.69004 C104.09328,118.394742 104.468082,119.296862 104.517084,120.24471 L104.546363,120.806738 C104.583502,121.576712 104.344801,122.334758 103.872933,122.945363 L102.211318,125.091286 C101.903989,125.491151 101.720777,125.971982 101.684285,126.474458 L101.684285,126.602191 L103.656996,125.91243 C104.249766,125.71282 104.762827,125.32912 105.120975,124.817571 L106.950948,122.160714 C108.01315,120.634047 108.176444,118.657823 107.379162,116.978381 C106.465866,115.061888 104.976925,113.476419 103.118984,112.442016 L101.823363,111.71211 C101.58938,111.579664 101.385101,111.400807 101.223132,111.186577 C100.061712,109.667966 98.5260095,108.474835 96.7653177,107.723173 L94.8584857,106.931225 C91.7987927,105.620226 88.2449947,106.330415 85.9282169,108.715846 L77.1077466,117.788577 L80.0796229,119.5513 C80.6098324,119.865009 80.9681008,120.402225 81.0531686,121.011112 L81.5216417,124.605899 C81.582859,125.065522 81.7998118,125.490467 82.1365127,125.810244 L84.4752183,128.025508 C85.1734251,128.691511 86.2463701,128.772517 87.0371806,128.218933 L90.3604118,125.930678 Z" id="Path" fill="#023852" fill-rule="nonzero"></path>
                <path d="M80.0832829,119.635239 L86.1441538,113.401842 C88.4614567,111.017371 92.0146157,110.30731 95.0744225,111.617222 L96.9519749,112.423768 C98.7132335,113.176184 100.249945,114.36912 101.413449,115.887172 C101.574416,116.103295 101.778853,116.283532 102.013681,116.416354 L103.305642,117.14626 C105.050476,118.118822 106.470672,119.580658 107.390141,121.350518 C107.992893,119.976704 107.968862,118.409814 107.324262,117.055021 C106.410005,115.137994 104.919726,113.552463 103.060425,112.518656 L101.768464,111.78875 C101.534314,111.654985 101.330056,111.474905 101.168233,111.259568 C100.0061,109.741661 98.4706001,108.548687 96.7104185,107.796164 L94.8292061,106.989618 C91.7693994,105.679706 88.2162403,106.389767 85.8989374,108.774238 L77.078467,117.846969 L80.0503433,119.613342 L80.0832829,119.635239 Z" id="Path" fill="#28566C" fill-rule="nonzero"></path>
                <path d="M104.729361,125.266464 L104.729361,124.941655 C104.69039,124.17236 104.436885,123.429176 103.997371,122.795732 C103.950353,122.87158 103.89903,122.944689 103.843654,123.014704 L102.163738,125.178875 C101.855745,125.576979 101.672412,126.056859 101.636706,126.558397 L101.636706,126.686131 L103.609417,125.99637 C104.03375,125.841577 104.416869,125.591885 104.729361,125.266464 Z" id="Path" fill="#BBC9D0" fill-rule="nonzero" style="mix-blend-mode: multiply;"></path>
                <path d="M51.6638006,106.332703 C51.4816003,106.082412 51.2257613,105.894905 50.9318114,105.796222 L48.9883799,105.161203 C48.5004454,104.998306 48.13024,104.597474 48.0075143,104.09919 C47.8974222,103.684733 47.6151278,103.336852 47.2316057,103.143013 L46.0421232,102.55179 C45.7209612,102.389005 45.3508808,102.350024 45.0026985,102.442304 L43.3484028,102.869299 C42.9522838,102.971622 42.5313947,102.906953 42.1845399,102.690472 L39.933673,101.281753 C39.746306,101.166475 39.5874262,101.010543 39.4688598,100.825562 L38.7368706,99.6504133 C38.5630396,99.3807554 38.3061951,99.174584 38.0048814,99.062839 L37.9499822,99.0409419 C37.2831714,98.7895934 36.5313731,99.0471448 36.1602685,99.6540629 L27.21536,114.208388 C26.7501572,114.971578 26.3813652,115.789191 26.1173761,116.642624 L21.9999366,129.817427 L27.1604608,127.335747 C28.0699226,126.895511 28.7391703,126.078684 28.9904339,125.102235 L30.0884177,120.843233 C30.4471485,119.457283 31.5586532,118.391299 32.9614755,118.087838 L45.1234767,115.43828 C46.7932963,115.075951 48.1535724,113.873023 48.713884,112.263189 L49.9253262,108.796135 C50.1087851,108.269915 50.4483044,107.811723 50.8988718,107.482304 L51.9382966,106.723202 L51.6638006,106.332703 Z" id="Path" fill="#023852" fill-rule="nonzero"></path>
                <path d="M36.0394903,123.919787 L33.2506113,125.832141 C32.7936389,126.14389 32.4102229,126.551122 32.1270078,127.025537 L19.2110576,148.535866 L24.356942,152.258387 L26.4065119,152.590494 L30.4727121,145.882658 L40.954798,133.795415 L66.9989752,129.583857 L76.9320692,127.394139 L79.2780947,122.558512 L77.082127,118.657165 L69.9269321,115.372588 L65.2824604,114.595238 C64.6276907,114.482008 63.9549937,114.53216 63.3243892,114.741219 L37.8804432,123.084045 C37.2220599,123.251884 36.5987533,123.534849 36.0394903,123.919787 Z" id="Path" fill="#AEBCC4" fill-rule="nonzero"></path>
                <path d="M77.7226176,120.379743 L77.6567385,120.262958 C77.0264924,119.163357 76.0070626,118.338159 74.7983205,117.949156 L50.6426756,110.197555 L51.1148087,108.985911 L74.9922977,116.456498 C76.692831,116.989182 78.1002123,118.193394 78.8864805,119.788519 L78.9743192,119.967346 C79.8530771,121.7495 79.8665581,123.834462 79.0109186,125.627767 L79.0109186,125.627767 C78.1113122,127.513346 76.3571263,128.852403 74.2969079,129.226203 L39.527419,135.430404 L40.8120601,133.813663 L74.2127292,127.868578 C75.8346696,127.578905 77.2152117,126.52332 77.9165947,125.036543 L77.9165947,125.036543 C78.6144617,123.54503 78.5421235,121.80841 77.7226176,120.379743 L77.7226176,120.379743 Z" id="Path" fill="#023852" fill-rule="nonzero"></path>
                <line x1="17.0187498" y1="162.47707" x2="10.5040456" y2="181.367037" id="Path" stroke="#023852" stroke-width="2" stroke-linecap="round" stroke-linejoin="round"></line>
                <path d="M25.3304877,151.605121 L19.9723264,148.864324 C19.9224098,148.838119 19.8607013,148.853897 19.8295885,148.900819 L14.8593816,155.56851 C14.6340078,155.870321 14.4596866,156.206876 14.3433292,156.564832 L13.6113399,158.900531 C13.4073316,159.530727 13.3908056,160.206366 13.5637606,160.84573 L14.0249138,162.55736 C14.1749719,163.114464 14.5631216,163.577583 15.0862982,163.823747 L20.0565052,166.225137 C20.460505,166.421903 20.9230109,166.463475 21.3557861,166.341922 L21.4875442,166.309077 C22.0874875,166.141641 22.5631305,165.685172 22.7538855,165.093783 L24.5106597,159.619488 C24.6024692,159.32481 24.6637879,159.021535 24.693657,158.714405 L25.3304877,151.605121 Z" id="Path" fill="#0099DA" fill-rule="nonzero"></path>
                <path d="M28.6280992,208.90274 L30.3299742,180.436407 L27.2007202,180.148094 L21.7144608,210.212921 L27.6618734,209.847968 C28.1751064,209.816873 28.587109,209.413824 28.6280992,208.90274 Z" id="Path" fill="url(#linearGradient-9)" fill-rule="nonzero" opacity="0.69" style="mix-blend-mode: multiply;"></path>
                <path d="M24.9315535,155.940762 L25.3304877,151.605121 L19.9723264,148.864324 C19.9224098,148.838119 19.8607013,148.853897 19.8295885,148.900819 L14.8593816,155.56851 C14.6340078,155.870321 14.4596866,156.206876 14.3433292,156.564832 L13.7028386,158.553826 L24.9315535,155.940762 Z" id="Path" fill="url(#linearGradient-10)" fill-rule="nonzero" style="mix-blend-mode: multiply;"></path>
                <polygon id="Path" fill="url(#linearGradient-11)" fill-rule="nonzero" style="mix-blend-mode: multiply;" points="263.062293 62.6405308 259.277909 71.1694822 256.931883 67.3192281"></polygon>
                <path d="M251.72378,55.3743169 L249.088619,53.8269162 L249.454613,53.6772855 C249.897055,53.4955909 250.397987,53.5219601 250.818784,53.7490959 C251.239582,53.9762317 251.535615,54.3800445 251.624961,54.8487845 L251.72378,55.3743169 Z" id="Path" fill="url(#linearGradient-12)" fill-rule="nonzero" style="mix-blend-mode: multiply;"></path>
                <path d="M98.0243391,76.7423143 L128.874026,76.7423143 C128.961439,76.7428092 129.04855,76.7525966 129.133882,76.7715105 C129.218282,76.7858548 129.300623,76.8103644 129.379098,76.8445011 C129.457612,76.8765906 129.532457,76.9169652 129.602355,76.9649356 C129.671818,77.0124144 129.736751,77.0661676 129.796332,77.1255149 C129.915161,77.2435552 130.009658,77.3836572 130.074488,77.5379118 C130.107761,77.6168268 130.133495,77.6986956 130.151347,77.7824303 C130.169289,77.8688529 130.177878,77.9569461 130.177032,78.0451965 L130.177032,99.124881 C130.177878,99.2131314 130.169289,99.3012246 130.151347,99.3876472 C130.132965,99.4712423 130.107246,99.5530636 130.074488,99.6321657 C130.041482,99.7089071 130.00103,99.7822466 129.95371,99.8511375 C129.907356,99.920322 129.854671,99.9850739 129.796332,100.044563 C129.736751,100.10391 129.671818,100.157663 129.602355,100.205142 C129.531527,100.250544 129.456818,100.289624 129.379098,100.321927 C129.300151,100.355628 129.217997,100.381305 129.133882,100.398567 C129.048422,100.416282 128.961309,100.424846 128.874026,100.424114 L123.384106,100.424114 L123.384106,106.128329 L122.652117,105.416671 L121.938428,104.686765 L121.206438,103.975106 L120.474449,103.263448 L119.76076,102.533542 L119.02877,101.821884 L118.315081,101.110225 L117.601391,100.380319 L98.0243391,100.380319 C97.9358369,100.381228 97.8474923,100.372664 97.760823,100.354773 C97.6768494,100.336971 97.5947469,100.311311 97.5156066,100.278132 C97.4382543,100.245055 97.3636088,100.206008 97.2923499,100.161348 C97.2240556,100.11382 97.1603422,100.060062 97.1020327,100.000768 C97.0414881,99.9422978 96.9874922,99.8774424 96.9409951,99.8073431 C96.8936747,99.7384523 96.8532228,99.6651127 96.8202168,99.5883713 C96.7874589,99.5092692 96.7617402,99.4274479 96.743358,99.3438528 C96.7272191,99.2571669 96.7186472,99.1692491 96.7177384,99.0810867 L96.7177384,78.0451965 C96.7186472,77.9570341 96.7272191,77.8691162 96.743358,77.7824303 C96.7612102,77.6986956 96.7869438,77.6168268 96.8202168,77.5379118 C96.8531973,77.4600017 96.8936444,77.3854487 96.9409951,77.3152905 C96.987544,77.2463432 97.041547,77.1827031 97.1020327,77.1255149 C97.1603422,77.066221 97.2240556,77.012463 97.2923499,76.9649356 C97.3627083,76.9177197 97.4374741,76.8773877 97.5156066,76.8445011 C97.5942129,76.8107233 97.6765105,76.7862267 97.760823,76.7715105 C97.8473592,76.7523931 97.9357052,76.7423143 98.0243391,76.7423143 Z" id="Path" fill="#FFE700" fill-rule="nonzero"></path>
                <path d="M122.04824,88.9353936 C122.051851,87.9216314 121.336508,87.0466198 120.33998,86.8458594 C119.343453,86.6450989 118.343548,87.1745563 117.952199,88.1102076 C117.56085,89.0458589 117.887156,90.1268691 118.731419,90.6916679 C119.575682,91.2564668 120.702545,91.1476032 121.422375,90.4317009 C121.823242,90.0364394 122.048643,89.4975433 122.04824,88.9353936 L122.04824,88.9353936 Z" id="Path" fill="#0097D7" fill-rule="nonzero"></path>
                <path d="M115.244386,88.9353936 C115.244812,87.925533 114.529767,87.0560097 113.53656,86.8586096 C112.543354,86.6612096 111.548622,87.1909144 111.160726,88.1237652 C110.772831,89.056616 111.099811,90.1327879 111.941691,90.694112 C112.783571,91.2554361 113.905865,91.1455678 114.622195,90.4317009 C115.020687,90.035147 115.244552,89.4967742 115.244386,88.9353936 L115.244386,88.9353936 Z" id="Path" fill="#0097D7" fill-rule="nonzero"></path>
                <path d="M108.440546,88.9353936 C108.440972,87.925533 107.725927,87.0560097 106.73272,86.8586096 C105.739514,86.6612096 104.744782,87.1909144 104.356886,88.1237652 C103.968991,89.056616 104.295971,90.1327879 105.137851,90.694112 C105.979731,91.2554361 107.102025,91.1455678 107.818355,90.4317009 C108.216847,90.035147 108.440712,89.4967742 108.440546,88.9353936 Z" id="Path" fill="#0097D7" fill-rule="nonzero"></path>
                <path d="M220.500779,0.0985315977 L257.784651,0.0985315977 C257.891655,0.0985315977 257.998389,0.109254005 258.103066,0.131383076 C258.204988,0.150675405 258.304425,0.181278525 258.399522,0.222621323 C258.492663,0.262016862 258.582079,0.309651016 258.666698,0.364952988 C258.835006,0.479272045 258.980266,0.624118414 259.094912,0.791947984 C259.150371,0.876326164 259.198142,0.965487528 259.237649,1.05836366 C259.27911,1.15318972 259.309801,1.25234383 259.329148,1.35397559 C259.35134,1.45835527 259.362093,1.56478544 259.362093,1.67148468 L259.362093,27.1488528 C259.362093,27.255552 259.35134,27.3619822 259.329148,27.4663619 C259.309801,27.5679936 259.27911,27.6671477 259.237649,27.7619738 C259.160286,27.9495262 259.045762,28.1195823 258.900934,28.2619594 C258.829621,28.3330957 258.751125,28.3966921 258.666698,28.4517349 C258.582973,28.5095283 258.49343,28.5584536 258.399522,28.5977161 C258.303825,28.6374247 258.20456,28.6679748 258.103066,28.6889544 C257.998389,28.7110834 257.891655,28.7220935 257.784651,28.7218001 L251.141848,28.7218001 L251.141848,35.6121126 L250.278101,34.7508235 L249.414354,33.8895345 L248.550607,33.0282454 L247.683199,32.1669564 L246.819452,31.3056673 L245.948385,30.4443782 L245.084638,29.5830892 L244.22089,28.7218001 L220.500779,28.7218001 C220.393775,28.7220935 220.287041,28.7110834 220.182364,28.6889544 C220.08087,28.6679748 219.981605,28.6374247 219.885908,28.5977161 C219.792,28.5584536 219.702457,28.5095283 219.618732,28.4517349 C219.449402,28.3413833 219.304845,28.1972371 219.194178,28.0283895 C219.13622,27.9449028 219.087155,27.8556143 219.04778,27.7619738 C219.006319,27.6671477 218.975629,27.5679936 218.956282,27.4663619 C218.934089,27.3619822 218.923336,27.255552 218.923336,27.1488528 L218.923336,1.67148468 C218.923336,1.56478544 218.934089,1.45835527 218.956282,1.35397559 C218.975629,1.25234383 219.006319,1.15318972 219.04778,1.05836366 C219.087155,0.964723181 219.13622,0.875434606 219.194178,0.791947984 C219.249378,0.707761307 219.313156,0.629488845 219.384495,0.558378071 C219.527279,0.413962853 219.69782,0.299764597 219.885908,0.222621323 C219.981005,0.181278525 220.080442,0.150675405 220.182364,0.131383076 C220.287041,0.109254005 220.393775,0.0985315977 220.500779,0.0985315977 Z" id="Path" fill="#FFFFFF" fill-rule="nonzero"></path>
                <path d="M249.934066,14.8316894 C249.91657,13.6140717 249.039626,12.5780302 247.838819,12.3563178 C246.638012,12.1346054 245.447194,12.7888629 244.993645,13.9195086 C244.540095,15.0501544 244.949912,16.3428441 245.972804,17.0080794 C246.995695,17.6733147 248.347274,17.5261456 249.202077,16.6564544 C249.680335,16.1698665 249.943855,15.5129404 249.934066,14.8316894 L249.934066,14.8316894 Z" id="Path" fill="#0099DA" fill-rule="nonzero"></path>
                <path d="M241.71387,14.8316894 C241.706782,13.6148059 240.839921,12.5717927 239.64209,12.3389615 C238.444258,12.1061304 237.247999,12.7481198 236.783113,13.8732708 C236.318228,14.9984219 236.713778,16.2943706 237.728451,16.9704967 C238.743123,17.6466228 240.095225,17.5152205 240.959878,16.6564544 C241.44618,16.1734635 241.717789,15.5160942 241.71387,14.8316894 L241.71387,14.8316894 Z" id="Path" fill="#0099DA" fill-rule="nonzero"></path>
                <path d="M233.50461,14.8316894 C233.497523,13.6148059 232.630662,12.5717927 231.43283,12.3389615 C230.234999,12.1061304 229.038739,12.7481198 228.573854,13.8732708 C228.108969,14.9984219 228.504519,16.2943706 229.519192,16.9704967 C230.533864,17.6466228 231.885966,17.5152205 232.750619,16.6564544 C233.236921,16.1734635 233.50853,15.5160942 233.50461,14.8316894 L233.50461,14.8316894 Z" id="Path" fill="#0099DA" fill-rule="nonzero"></path>
            </g>
        </g>
    </g>
</svg>