<?xml version="1.0" encoding="UTF-8"?>
<svg width="440px" height="330px" viewBox="0 0 440 330" version="1.1" xmlns="http://www.w3.org/2000/svg" xmlns:xlink="http://www.w3.org/1999/xlink">
    <title>Graphic elements / Icons / Rich icons / Milestone in the media</title>
    <g id="Graphic-elements-/-Icons-/-Rich-icons-/-Milestone-in-the-media" stroke="none" stroke-width="1" fill="none" fill-rule="evenodd">
        <g id="Milestone-in-the-media" transform="translate(26.000000, 59.000000)" fill-rule="nonzero">
            <path d="M306.5,55.19 C305.480079,54.1420088 304.26805,53.3000388 302.93,52.71 C301.552148,52.1070667 300.063993,51.7971764 298.56,51.7999673 L165.23,51.7999673 C163.725917,51.7962995 162.237584,52.1062271 160.86,52.71 C159.5202,53.3021703 158.305273,54.1437956 157.28,55.19 C155.162772,57.3827566 153.979994,60.3119128 153.979994,63.36 L153.979994,259 C153.976978,262.045649 155.16069,264.972647 157.28,267.16 C158.302314,268.21225 159.517804,269.057661 160.86,269.65 C162.237584,270.253773 163.725917,270.5637 165.23,270.560033 L298.56,270.560033 C300.063993,270.562824 301.552148,270.252933 302.93,269.65 C304.27062,269.060088 305.483272,268.214288 306.5,267.16 C307.534182,266.102877 308.355726,264.856981 308.92,263.49 C309.508139,262.066149 309.810005,260.540539 309.810005,259 L309.810005,63.36 C309.812947,60.3094883 308.625379,57.3782402 306.5,55.19 L306.5,55.19 Z" id="Path" fill="#023852" opacity="0.3" style="mix-blend-mode: multiply;"></path>
            <path d="M378.38,152.099995 L330.25,152.099995 C329.353162,152.099995 328.465361,152.279145 327.64,152.63 C325.146681,153.668115 323.527171,156.10923 323.539924,158.81 L323.539924,263.81 C323.527171,266.51077 325.146681,268.951885 327.64,269.99 C328.465361,270.340855 329.353162,270.520131 330.25,270.520131 L378.38,270.520131 C379.279514,270.525652 380.170825,270.34875 381,270 C381.794771,269.663665 382.517789,269.178259 383.13,268.57 C384.400538,267.314773 385.120025,265.605991 385.13,263.82 L385.13,158.82 C385.120025,157.034009 384.400538,155.325227 383.13,154.07 C382.517789,153.461741 381.794771,152.976335 381,152.64 C380.17226,152.284389 379.280895,152.099995 378.38,152.099995 Z" id="Path" fill="#023852" opacity="0.3" style="mix-blend-mode: multiply;"></path>
            <polygon id="Path" fill="#FFE700" points="26.25 149.64 30.39 149.64 34.53 149.64 34.53 142.06 34.53 134.47 30.39 134.47 26.25 134.47 26.25 142.06"></polygon>
            <polygon id="Path" fill="#023852" opacity="0.2" style="mix-blend-mode: multiply;" points="26.25 142.41 30.39 142.41 34.53 142.41 34.53 134.82 34.53 127.23 30.39 127.23 26.25 127.23 26.25 134.82"></polygon>
            <path d="M88.42,135.39 L1,135.39 L1,2.46 L88.47,2.46 C91.2314237,2.46 93.47,4.69857625 93.47,7.46 L93.47,130.46 C93.47,133.221424 91.2314237,135.46 88.47,135.46 L88.42,135.39 Z" id="Path" fill="#023852"></path>
            <polygon id="Path" fill="#30485E" points="93.41 92.51 93.41 69.38 93.41 46.25 47.18 46.25 0.95 46.25 0.95 69.38 0.95 92.51 47.18 92.51"></polygon>
            <polygon id="Path" fill="#ECEDEC" points="70.87 135.84 74.55 135.84 78.23 135.84 78.23 68.23 78.23 0.62 74.55 0.62 70.87 0.62 70.87 68.23"></polygon>
            <path d="M19.45,26.7 L19.81,27.06 L20.17,27.42 L20.53,27.77 L20.88,28.13 L21.24,28.49 L21.6,28.85 L21.96,29.2 L22.31,29.56 L22.31,29.56 L22.52,29.56 L22.52,29.56 L23,29.2 L23.36,28.85 L23.71,28.49 L24.07,28.13 L24.43,27.77 L24.79,27.42 L25.14,27.06 L25.5,26.7 L25.5,26.7 C25.5,26.7 25.5,26.7 25.5,26.7 C25.5,26.7 25.5,26.7 25.5,26.7 L25.5,26.62 L25.5,26.62 C25.5,26.62 25.5,26.62 25.5,26.62 L25.5,26.62 L25.14,26.27 L24.79,25.91 L24.43,25.55 L24,25 L23.64,24.65 L23.29,24.29 L23,23.92 L22.64,23.56 L22.64,23.56 L22.64,23.56 L22.49,23.56 L22.49,23.56 L22.49,23.56 L22.14,23.92 L21.78,24.28 L21.42,24.64 L21.06,24.99 L20.71,25.35 L20.35,25.71 L19.99,26.07 L19.63,26.42 L19.63,26.42 L19.63,26.42 C19.63,26.42 19.63,26.42 19.63,26.42 L19.63,26.5 C19.63,26.5 19.63,26.5 19.63,26.5 L19.63,26.5 C19.63,26.5 19.45,26.69 19.45,26.7 Z" id="Path" fill="#FFFFFF"></path>
            <polygon id="Path" fill="#FFFFFF" points="27.69 34.52 22.45 34.52 17.21 34.52 17.21 33.78 17.21 33.03 22.45 33.03 27.69 33.03 27.69 33.78"></polygon>
            <path d="M93.31,134.92 L93.31,56.53 L60.06,56.53 C57.7719179,56.53 55.9155135,58.3819245 55.91,60.67 L55.91,134.92 L93.31,134.92 L93.31,134.92 Z" id="Path" fill="#023852" opacity="0.3" style="mix-blend-mode: multiply;"></path>
            <path d="M314.130001,59.7 C314.130001,58.1594611 313.828139,56.6338512 313.24,55.21 C312.679372,53.8434783 311.861182,52.5975202 310.83,51.54 C309.809658,50.4854287 308.593686,49.639683 307.25,49.05 C305.872416,48.4462271 304.384083,48.1362995 302.88,48.1399673 L169.55,48.1399673 C168.046007,48.1371764 166.557852,48.4470667 165.18,49.05 C163.840754,49.6423563 162.628546,50.4878455 161.61,51.54 C160.575818,52.5971233 159.754274,53.8430193 159.19,55.21 C158.601861,56.6338512 158.299995,58.1594611 158.299995,59.7 L158.299995,255.3 C158.297053,258.350512 159.484621,261.28176 161.61,263.47 C162.629108,264.51895 163.841335,265.361058 165.18,265.95 C166.557852,266.552933 168.046007,266.862824 169.55,266.860033 L302.88,266.860033 C304.384083,266.8637 305.872416,266.553773 307.25,265.95 C308.593102,265.363736 309.809095,264.521372 310.83,263.47 C312.947228,261.277243 314.130001,258.348087 314.130001,255.3 L314.130001,59.7 L314.130001,59.7 Z" id="Path" fill="#023852"></path>
            <path d="M243.070028,254 C243.072641,253.059975 242.889111,252.128731 242.53,251.26 C242.188798,250.425649 241.689657,249.665053 241.06,249.02 C240.440847,248.376859 239.699753,247.863532 238.88,247.51 C237.181815,246.763177 235.248185,246.763177 233.55,247.51 C232.730247,247.863532 231.989153,248.376859 231.37,249.02 C230.740343,249.665053 230.241202,250.425649 229.9,251.26 C229.193578,253.018368 229.193578,254.981632 229.9,256.74 C230.245535,257.572063 230.744167,258.331882 231.37,258.98 C231.991868,259.619942 232.732287,260.132801 233.55,260.49 C235.248185,261.236823 237.181815,261.236823 238.88,260.49 C239.697713,260.132801 240.438132,259.619942 241.06,258.98 C241.685833,258.331882 242.184465,257.572063 242.53,256.74 C242.889111,255.871269 243.072641,254.940025 243.070028,254 L243.070028,254 Z" id="Path" fill="#4E7486"></path>
            <polygon id="Path" fill="#0099DA" points="303.8 241.04 270.01 241.04 236.22 241.04 202.43 241.04 168.64 241.04 168.64 195.38 168.64 149.72 168.64 104.05 168.64 58.39 202.43 58.39 236.22 58.39 270.01 58.39 303.8 58.39 303.8 104.05 303.8 149.72 303.8 195.38"></polygon>
            <polygon id="Path" fill="#FFFFFF" opacity="0.2" points="303.8 146.18 303.8 159.58 303.8 172.97 303.8 186.37 303.8 199.77 272.15 164.42 240.5 129.08 208.85 93.73 177.2 58.39 208.85 58.39 240.5 58.39 272.15 58.39 303.8 58.39 303.8 80.34 303.8 102.29 303.8 124.24"></polygon>
            <path d="M114.41,266.84 L114.41,256.84 L116.49,257.37 L118.57,257.91 L120.65,258.44 L122.72,258.98 L124.8,259.52 L126.88,260.05 L128.95,260.59 L131.03,261.12 C131.097735,261.139655 131.161882,261.170041 131.22,261.21 C131.272839,261.242652 131.317348,261.287161 131.35,261.34 C131.386457,261.387849 131.413595,261.442125 131.43,261.5 C131.439533,261.559621 131.439533,261.620379 131.43,261.68 C131.434353,261.801171 131.399262,261.920481 131.33,262.02 C131.29084,262.070774 131.243532,262.114703 131.19,262.15 C131.136573,262.191658 131.075382,262.222253 131.01,262.24 L128.93,262.81 L126.85,263.38 L124.78,263.95 L122.7,264.52 L120.62,265.09 L118.54,265.66 L116.47,266.23 L114.41,266.84 Z" id="Path" fill="#D7D4CD"></path>
            <path d="M131.17,262.32 L130.27,262.56 L129.37,262.81 L128.48,263.05 L127.58,263.3 L126.68,263.55 L125.78,263.79 L124.88,264.04 L123.99,264.29 L124.07,264.23 L124.16,264.18 L124.25,264.12 L124.33,264.06 L124.42,264 L124.5,263.94 C124.531042,263.922199 124.558235,263.898404 124.58,263.87 L124.66,263.81 L124.75,263.73 L124.84,263.65 L124.92,263.57 L125,263.48 L125.06,263.39 C125.08904,263.363 125.109842,263.328329 125.12,263.29 C125.125412,263.256886 125.125412,263.223114 125.12,263.19 C125.124129,263.15345 125.124129,263.11655 125.12,263.08 C125.124091,263.036763 125.124091,262.993237 125.12,262.95 L125.12,262.83 C125.12,262.83 125.12,262.75 125.12,262.71 L125.12,262.6 L125.12,262.48 L125.12,262.37 L125.12,262.25 C125.115084,262.210151 125.115084,262.169849 125.12,262.13 C125.108618,262.063819 125.108618,261.996181 125.12,261.93 C125.132063,261.87718 125.152308,261.826569 125.18,261.78 C125.21084,261.737986 125.244236,261.69791 125.28,261.66 L125.41,261.58 L125.55,261.51 L125.7,261.44 L125.85,261.36 C125.900548,261.332465 125.947559,261.298885 125.99,261.26 L126.07,261.17 C126.098856,261.140894 126.122529,261.107075 126.14,261.07 L126.2,260.97 C126.2,260.97 126.2,260.9 126.2,260.86 L126.2,260.75 C126.204817,260.710145 126.204817,260.669855 126.2,260.63 C126.200007,260.55 126.200007,260.47 126.200007,260.39 L126.200007,259.93 L126.820007,260.09 L127.430007,260.25 L128.050007,260.41 L128.660007,260.57 L129.280007,260.73 L129.890007,260.88 L130.510007,261.04 L131.120007,261.2 C131.188455,261.217736 131.252924,261.248274 131.310007,261.29 C131.362846,261.322652 131.407355,261.367161 131.440007,261.42 C131.479438,261.467451 131.509932,261.521662 131.530007,261.58 C131.534925,261.639899 131.534925,261.700101 131.530007,261.76 C131.540341,261.816196 131.540341,261.873804 131.530007,261.93 C131.509413,261.989331 131.482597,262.046315 131.450007,262.1 L131.320007,262.23 C131.27422,262.266523 131.223774,262.296789 131.17,262.32 L131.17,262.32 Z" id="Path" fill="#023852"></path>
            <path d="M26.77,256.92 L21.67,256.92 C21.5337334,256.905211 21.3962666,256.905211 21.26,256.92 C21.1302258,256.949397 21.0031211,256.989535 20.88,257.04 C20.7582094,257.093402 20.6411295,257.156959 20.53,257.23 C20.4212766,257.30227 20.3206914,257.386091 20.23,257.48 C20.1389107,257.573273 20.0553183,257.673584 19.98,257.78 C19.9107474,257.893355 19.8473314,258.010174 19.79,258.13 C19.7383173,258.251829 19.7013884,258.379401 19.68,258.51 C19.6653662,258.646275 19.6653662,258.783725 19.68,258.92 L19.68,264.66 C19.664726,264.79624 19.664726,264.93376 19.68,265.07 C19.7108251,265.202648 19.7509237,265.332968 19.8,265.46 C19.8495166,265.58052 19.9133052,265.694668 19.99,265.8 C20.1385417,266.015104 20.3248959,266.201458 20.54,266.35 C20.6475739,266.428812 20.7653062,266.492724 20.89,266.54 C21.0131211,266.590465 21.1402258,266.630603 21.27,266.66 C21.4062399,266.675274 21.5437601,266.675274 21.68,266.66 L26.78,266.66 C26.9162666,266.674789 27.0537334,266.674789 27.19,266.66 C27.3197742,266.630603 27.4468789,266.590465 27.57,266.54 C27.6917906,266.486598 27.8088705,266.423041 27.92,266.35 C28.0287234,266.27773 28.1293086,266.193909 28.22,266.1 C28.3110893,266.006727 28.3946817,265.906416 28.47,265.8 C28.5392526,265.686645 28.6026686,265.569826 28.66,265.45 C28.7116827,265.328171 28.7486116,265.200599 28.77,265.07 C28.7846338,264.933725 28.7846338,264.796275 28.77,264.66 L28.77,259 C28.785274,258.86376 28.785274,258.72624 28.77,258.59 C28.740608,258.45697 28.7004765,258.326543 28.65,258.2 C28.6004834,258.07948 28.5366948,257.965332 28.46,257.86 C28.3884569,257.747689 28.3046047,257.643713 28.21,257.55 C28.1190573,257.459293 28.0184581,257.378813 27.91,257.31 C27.8046679,257.233305 27.6905199,257.169517 27.57,257.12 L27.18,257 C27.0468133,256.957856 26.9092604,256.931016 26.77,256.92 Z" id="Path" fill="#FFE700"></path>
            <polygon id="Path" fill="#33ADE1" points="27.43 261.86 38.31 261.86 49.18 261.85 60.05 261.85 70.93 261.84 81.8 261.83 92.67 261.83 103.55 261.82 114.42 261.82 114.42 262.44 114.42 263.07 114.42 263.69 114.42 264.32 114.42 264.94 114.42 265.57 114.42 266.19 114.42 266.82 103.55 266.83 92.68 266.83 81.8 266.84 70.93 266.84 60.06 266.85 49.18 266.85 38.31 266.86 27.43 266.86 27.43 266.24 27.43 265.61 27.43 264.99 27.43 264.36 27.43 263.74 27.43 263.11 27.43 262.49"></polygon>
            <polygon id="Path" fill="#0099DA" points="27.43 256.91 38.3 256.91 49.18 256.9 60.05 256.89 70.92 256.89 81.8 256.88 92.67 256.88 103.54 256.87 114.42 256.87 114.42 257.49 114.42 258.12 114.42 258.74 114.42 259.37 114.42 259.99 114.42 260.62 114.42 261.25 114.42 261.87 103.55 261.88 92.67 261.88 81.8 261.89 70.93 261.89 60.05 261.9 49.18 261.9 38.31 261.91 27.43 261.91 27.43 261.29 27.43 260.66 27.43 260.04 27.43 259.41 27.43 258.79 27.43 258.16 27.43 257.54"></polygon>
            <path d="M381.81,266.86 L333.68,266.86 C331.892651,266.856687 330.181411,266.136165 328.93,264.86 C328.318627,264.244446 327.829939,263.518202 327.49,262.72 C327.142309,261.894006 326.965424,261.006177 326.969913,260.11 L326.969913,155.11 C326.966522,154.213929 327.143364,153.326317 327.49,152.5 C327.829969,151.704772 328.31873,150.981813 328.93,150.37 C330.185227,149.099462 331.894009,148.379975 333.68,148.37 L381.81,148.37 C385.515831,148.37 388.52003,151.374169 388.52003,155.08 L388.52003,260.08 C388.525333,261.861232 387.820101,263.571047 386.560574,264.830574 C385.301047,266.090101 383.591232,266.795333 381.81,266.79 L381.81,266.86 Z" id="Path" fill="#023852"></path>
            <polygon id="Path" fill="#0099DA" points="381.16 247.42 369.45 247.42 357.74 247.42 346.04 247.42 334.33 247.42 334.33 226.64 334.33 205.87 334.33 185.09 334.33 164.32 346.04 164.32 357.74 164.32 369.45 164.32 381.16 164.32 381.16 185.09 381.16 205.87 381.16 226.64"></polygon>
            <path d="M361.720064,257.63 C361.723097,257.099847 361.614044,256.575033 361.4,256.09 C361.202268,255.615249 360.913504,255.183802 360.55,254.82 C360.189976,254.456573 359.761805,254.167728 359.29,253.97 C358.799098,253.764592 358.272144,253.659202 357.739995,253.659995 C355.530861,253.659995 353.739995,255.450861 353.739995,257.659995 C353.739202,258.192144 353.844592,258.719098 354.05,259.21 C354.247728,259.681805 354.536573,260.109976 354.9,260.47 C355.263802,260.833504 355.695249,261.122268 356.17,261.32 C356.655033,261.534044 357.179847,261.643097 357.71,261.640064 C358.243282,261.64212 358.771159,261.533139 359.26,261.32 C360.209167,260.915159 360.965159,260.159167 361.37,259.21 C361.597579,258.714176 361.716895,258.17555 361.720064,257.63 L361.720064,257.63 Z" id="Path" fill="#4E7486"></path>
            <path d="M349.74,158.14 L365.74,158.14 C365.922253,158.139217 366.102489,158.101809 366.27,158.03 C366.433879,157.96798 366.58109,157.868698 366.7,157.74 C366.822245,157.615685 366.920551,157.469921 366.99,157.31 C367.062885,157.142829 367.100339,156.962369 367.100002,156.78 L367.100002,155.49 C367.098194,155.321787 367.064252,155.155469 367,155 C366.930551,154.840079 366.832245,154.694315 366.71,154.57 C366.588902,154.441401 366.442498,154.339258 366.28,154.27 C366.110479,154.206148 365.931133,154.172309 365.75,154.17 L349.75,154.17 C349.568764,154.171256 349.389234,154.20513 349.22,154.27 C348.897957,154.419293 348.639293,154.677957 348.49,155 C348.420544,155.167901 348.3865,155.348334 348.39,155.53 L348.39,156.82 C348.3865,157.001666 348.420544,157.182099 348.49,157.35 C348.559258,157.512498 348.661401,157.658902 348.79,157.78 C348.90891,157.908698 349.056121,158.00798 349.22,158.07 C349.386903,158.127895 349.563729,158.151698 349.74,158.14 L349.74,158.14 Z" id="Path" fill="#4E7486"></path>
            <polygon id="Path" fill="#FFFFFF" opacity="0.2" points="381.22 222.71 381.22 164.32 334.22 164.32 334.22 175.76 345.65 187.19 357.65 199.19 369.65 211.19"></polygon>
            <path d="M347.88,183.7 L348.88,184.7 L349.88,185.7 L350.88,186.7 L351.88,187.7 L352.88,188.7 L353.88,189.7 L354.88,190.7 L355.88,191.7 C355.901765,191.728404 355.928958,191.752199 355.96,191.77 L356.05,191.77 L356.15,191.77 L356.36,191.77 L356.46,191.77 L356.55,191.77 C356.581042,191.752199 356.608235,191.728404 356.63,191.7 L357.63,190.7 L358.63,189.7 L359.63,188.7 L360.63,187.7 L361.63,186.7 L362.63,185.7 L363.63,184.7 L364.63,183.7 L364.7,183.61 L364.75,183.52 L364.75,183.42 C364.75,183.42 364.75,183.35 364.75,183.32 C364.75,183.29 364.75,183.25 364.75,183.22 L364.75,183.12 L364.7,183.02 L364.63,182.94 L363.63,181.94 L362.63,180.94 L361.63,179.94 L360.63,178.94 L359.63,177.94 L358.63,176.94 L357.63,175.94 L356.63,174.94 C356.607842,174.914605 356.580584,174.894161 356.55,174.88 L356.46,174.83 L356.36,174.83 L356,174.83 L355.9,174.83 L355.81,174.88 C355.779416,174.894161 355.752158,174.914605 355.73,174.94 L354.73,175.94 L353.73,176.94 L352.73,177.94 L351.73,178.94 L350.73,179.94 L349.73,180.94 L348.73,181.94 L347.73,182.94 L347.66,183.02 L347.61,183.12 L347.61,183.22 C347.61,183.22 347.61,183.28 347.61,183.32 C347.61,183.36 347.61,183.39 347.61,183.42 L347.61,183.52 L347.66,183.61 L347.88,183.7 Z" id="Path" fill="#FFFFFF"></path>
            <polygon id="Path" fill="#FFFFFF" points="370.42 205.1 356.08 205.1 341.75 205.1 341.75 203.06 341.75 201.03 356.08 201.03 370.42 201.03 370.42 203.06"></polygon>
            <path d="M215.71,126.8 L217.71,128.8 L219.71,130.8 L221.71,132.8 L223.71,134.8 L225.71,136.8 L227.71,138.8 L229.71,140.8 L231.71,142.8 C231.76134,142.852783 231.818352,142.899734 231.88,142.94 C231.938961,142.981051 232.002781,143.01464 232.07,143.04 L232.27,143.1 C232.408724,143.126728 232.551276,143.126728 232.69,143.1 C232.759428,143.090739 232.826939,143.070486 232.89,143.04 C232.958163,143.016785 233.022273,142.983043 233.08,142.94 C233.143247,142.901953 233.200531,142.854777 233.25,142.8 L235.25,140.8 L237.25,138.8 L239.25,136.8 L241.25,134.8 L243.25,132.8 L245.25,130.8 L247.25,128.8 L249.25,126.8 C249.305126,126.747086 249.352284,126.686455 249.39,126.62 C249.430855,126.564498 249.46446,126.50401 249.49,126.44 C249.519163,126.372948 249.539337,126.302337 249.55,126.23 C249.559437,126.163667 249.559437,126.096333 249.55,126.03 C249.559848,125.960346 249.559848,125.889654 249.55,125.82 C249.540739,125.750572 249.520486,125.683061 249.49,125.62 C249.466785,125.551837 249.433043,125.487727 249.39,125.43 C249.349695,125.365312 249.302777,125.304988 249.25,125.25 L247.25,123.25 L245.25,121.25 L243.25,119.25 L241.25,117.25 L239.25,115.25 L237.25,113.25 L235.25,111.25 L233.25,109.25 C233.200531,109.195223 233.143247,109.148047 233.08,109.11 C233.022273,109.066957 232.958163,109.033215 232.89,109.01 C232.826939,108.979514 232.759428,108.959261 232.69,108.95 C232.551276,108.923272 232.408724,108.923272 232.27,108.95 L232.07,109.01 C232.002781,109.03536 231.938961,109.068949 231.88,109.11 C231.818352,109.150266 231.76134,109.197217 231.71,109.25 L229.71,111.25 L227.71,113.25 L225.71,115.25 L223.71,117.25 L221.71,119.25 L219.71,121.25 L217.71,123.25 L215.71,125.25 L215.57,125.43 C215.530763,125.490046 215.497282,125.553662 215.47,125.62 L215.41,125.82 C215.383317,125.955364 215.383317,126.094636 215.41,126.23 L215.47,126.44 C215.499483,126.50206 215.532883,126.562181 215.57,126.62 C215.611039,126.684173 215.657904,126.744427 215.71,126.8 Z" id="Path" fill="#FFFFFF"></path>
            <polygon id="Path" fill="#FFFFFF" points="261.51 170.29 232.38 170.29 203.25 170.29 203.25 166.15 203.25 162.01 232.38 162.01 261.51 162.01 261.51 166.15"></polygon>
            <path d="M314.17,48.13 L254.17,48.13 C254.17,49.01 254.17,49.88 254.17,50.74 C254.17,51.6 254.17,52.47 254.24,53.33 C254.29,54.98 254.35,56.61 254.43,58.23 C254.51,59.85 254.59,61.46 254.68,63.05 C254.792885,64.7065449 255.260078,66.3195525 256.05,67.78 C256.870906,69.2664401 257.967052,70.5831728 259.28,71.66 C260.67886,72.8167025 262.260464,73.7325459 263.96,74.37 C265.789183,75.0620347 267.716343,75.4602919 269.67,75.55 C272.336667,75.6833333 275.066667,75.8 277.86,75.9 C280.653333,76 283.463333,76.0833333 286.29,76.15 C289.13,76.2166667 292.006667,76.27 294.92,76.31 C297.833333,76.35 300.77,76.35 303.73,76.31 L308.95,76.31 L314.11,76.25 L314.11,48.13 L314.17,48.13 Z" id="Path" fill="#023852" opacity="0.3" style="mix-blend-mode: multiply;"></path>
            <polygon id="Path" fill="#FFFFFF" opacity="0.3" points="314.17 48.13 312.05 48.13 309.94 48.13 312.05 50.25 314.17 52.36 314.17 50.25"></polygon>
            <path d="M190.55,78.42 L158.55,78.42 L158.55,247.51 L191.55,247.51 C194.673649,247.504496 197.204496,244.973649 197.210008,241.85 L197.210008,85 C197.212659,83.2487572 196.518158,81.5684758 195.279841,80.3301587 C194.041524,79.0918417 192.361243,78.3973406 190.61,78.3999924 L190.55,78.42 Z" id="Path" fill="#023852" opacity="0.3" style="mix-blend-mode: multiply;"></path>
            <path d="M76.32,69.45 L178,69.45 C181.123649,69.4555042 183.654496,71.9863511 183.660009,75.11 L183.660009,230.83 C183.662661,232.331939 183.067195,233.773129 182.005162,234.835162 C180.943129,235.897195 179.501939,236.492661 178,236.490035 L76.32,236.490035 C74.8163301,236.495325 73.3725654,235.901036 72.3083655,234.838713 C71.2441656,233.77639 70.6473292,232.333677 70.6499911,230.83 L70.6499911,75.11 C70.655516,71.9824514 73.1924466,69.45 76.32,69.45 Z" id="Path" fill="#ECEDEC"></path>
            <path d="M183.66,120.08 L183.66,74 C183.66,72.2504893 182.964328,70.5727798 181.726299,69.3366272 C180.488271,68.1004746 178.809509,67.4073452 177.06,67.4099924 L77.25,67.4099924 C73.6110975,67.4154885 70.6610062,70.36111 70.65,74 L70.65,120.08 L183.65,120.08 L183.66,120.08 Z" id="Path" fill="#0099DA"></path>
            <polygon id="Path" fill="#9DADB7" points="155.69 146.94 120.25 146.94 84.8 146.94 84.8 143.5 84.8 140.07 120.25 140.07 155.69 140.07 155.69 143.5"></polygon>
            <polygon id="Path" fill="#9DADB7" points="155.69 161.29 120.25 161.29 84.8 161.29 84.8 157.85 84.8 154.41 120.25 154.41 155.69 154.41 155.69 157.85"></polygon>
            <polygon id="Path" fill="#9DADB7" points="155.69 175.63 120.25 175.63 84.8 175.63 84.8 172.2 84.8 168.76 120.25 168.76 155.69 168.76 155.69 172.2"></polygon>
            <polygon id="Path" fill="#9DADB7" points="155.69 189.98 120.25 189.98 84.8 189.98 84.8 186.54 84.8 183.11 120.25 183.11 155.69 183.11 155.69 186.54"></polygon>
            <path d="M118,87.69 L118.88,88.57 L119.77,89.46 L120.65,90.34 L121.53,91.22 L122.42,92.1 L123.3,92.99 L124.18,93.87 L125.06,94.75 L125.14,94.82 L125.22,94.82 L125.31,94.82 L125.5,94.82 L125.59,94.82 L125.67,94.82 C125.701042,94.8021985 125.728235,94.7784041 125.75,94.75 L126.63,93.87 L127.52,92.99 L128.4,92.1 L129.28,91.22 L130.16,90.34 L131.05,89.46 L131.93,88.57 L132.81,87.69 C132.838034,87.6704288 132.859061,87.6423923 132.87,87.61 C132.892255,87.5872626 132.909314,87.5599685 132.92,87.53 L132.92,87.44 L132.92,87.26 L132.92,87.17 C132.907181,87.1380183 132.890382,87.1077799 132.87,87.08 C132.859223,87.0501201 132.83788,87.0252196 132.81,87.01 L131.93,86.12 L131.05,85.24 L130.16,84.36 L129.28,83.47 L128.4,82.59 L127.52,81.71 L126.63,80.83 L125.75,79.94 L125.67,79.88 L125.59,79.88 C125.56015,79.8757602 125.52985,79.8757602 125.5,79.88 L125.31,79.88 C125.28015,79.8757602 125.24985,79.8757602 125.22,79.88 L125.14,79.88 L125.06,79.94 L124.18,80.83 L123.3,81.71 L122.42,82.59 L121.53,83.47 L120.65,84.36 L119.77,85.24 L118.88,86.12 L118,87 L117.94,87.07 C117.936235,87.0998819 117.936235,87.1301181 117.94,87.16 C117.928324,87.1888639 117.928324,87.2211361 117.94,87.25 C117.926667,87.3092593 117.926667,87.3707407 117.94,87.43 C117.931389,87.459382 117.931389,87.490618 117.94,87.52 C117.934612,87.5463945 117.934612,87.5736055 117.94,87.6 L118,87.69 Z" id="Path" fill="#FFFFFF"></path>
            <polygon id="Path" fill="#FFFFFF" points="138.3 107.01 125.36 107.01 112.42 107.01 112.42 105.17 112.42 103.33 125.36 103.33 138.3 103.33 138.3 105.17"></polygon>
            <path d="M345.18,65.9 C347.132402,65.8077603 349.05866,65.4130628 350.89,64.73 C352.586728,64.0841021 354.164752,63.1616172 355.56,62 C356.873245,60.9195304 357.969333,59.5994737 358.79,58.11 C359.588651,56.6567404 360.05646,55.0450188 360.16,53.39 C360.26,51.8 360.34,50.19 360.42,48.57 C360.5,46.95 360.55,45.31 360.6,43.67 C360.65,42.03 360.69,40.36 360.72,38.67 C360.75,36.98 360.72,35.32 360.72,33.67 C360.72,32.02 360.72,30.29 360.72,28.62 C360.72,26.95 360.65,25.29 360.6,23.62 C360.55,21.95 360.49,20.34 360.42,18.72 C360.35,17.1 360.26,15.5 360.16,13.91 C360.05661,12.2517904 359.588838,10.6367796 358.79,9.18 C357.966741,7.6922949 356.87103,6.37269249 355.56,5.29 C354.165385,4.13501969 352.586785,3.22233821 350.89,2.59 C349.060536,1.8989329 347.133531,1.50070782 345.18,1.41 C342.49,1.28 339.75,1.16 336.98,1.06 C334.21,0.96 331.4,0.87 328.56,0.8 C325.72,0.73 322.83,0.68 319.92,0.65 C317.01,0.62 314.08,0.6 311.11,0.6 C308.14,0.6 305.2,0.6 302.29,0.65 C299.38,0.7 296.51,0.74 293.66,0.8 C290.81,0.86 288.01,0.96 285.24,1.06 C282.47,1.16 279.73,1.28 277.04,1.41 C275.086469,1.50070782 273.159464,1.8989329 271.33,2.59 C269.633215,3.22233821 268.054615,4.13501969 266.66,5.29 C265.34897,6.37269249 264.253259,7.6922949 263.43,9.18 C262.631162,10.6367796 262.16339,12.2517904 262.06,13.91 C261.96,15.5 261.88,17.1 261.8,18.72 C261.72,20.34 261.67,21.98 261.62,23.62 C261.57,25.26 261.53,26.93 261.5,28.62 C261.47,30.31 261.5,31.97 261.5,33.67 C261.5,35.37 261.5,37.04 261.5,38.67 C261.5,40.3 261.57,42 261.62,43.67 C261.67,45.34 261.73,46.95 261.8,48.57 C261.87,50.19 261.96,51.8 262.06,53.39 C262.16354,55.0450188 262.631349,56.6567404 263.43,58.11 C264.250667,59.5994737 265.346755,60.9195304 266.66,62 C268.056675,63.1545331 269.634618,64.0702133 271.33,64.71 C273.147566,65.395861 275.060054,65.7972473 277,65.9 C279.69,66.04 282.43,66.15 285.2,66.25 C287.97,66.35 290.78,66.44 293.62,66.51 C296.46,66.58 299.35,66.63 302.25,66.66 C305.15,66.69 308.1,66.72 311.07,66.72 C314.04,66.72 316.98,66.72 319.88,66.66 C322.78,66.6 325.67,66.58 328.52,66.51 C331.37,66.44 334.17,66.36 336.94,66.25 C339.71,66.14 342.49,66 345.18,65.9 Z" id="Path" fill="#FFE700"></path>
            <path d="M344.69,65.93 L345.18,65.93 C347.132402,65.8377603 349.05866,65.4430628 350.89,64.76 C352.588758,64.1049414 354.166904,63.1722473 355.56,62 C356.873245,60.9195304 357.969333,59.5994737 358.79,58.11 C359.588651,56.6567404 360.05646,55.0450188 360.16,53.39 C360.26,51.8 360.34,50.19 360.42,48.57 C360.5,46.95 360.55,45.31 360.6,43.67 C360.65,42.03 360.69,40.36 360.72,38.67 C360.75,36.98 360.72,35.32 360.72,33.67 C360.72,32.02 360.72,30.29 360.72,28.62 C360.72,26.95 360.65,25.29 360.6,23.62 C360.55,21.95 360.49,20.34 360.42,18.72 C360.35,17.1 360.26,15.5 360.16,13.91 C360.05661,12.2517904 359.588838,10.6367796 358.79,9.18 C357.966741,7.6922949 356.87103,6.37269249 355.56,5.29 C354.165385,4.13501969 352.586785,3.22233821 350.89,2.59 C349.060536,1.8989329 347.133531,1.50070782 345.18,1.41 C342.49,1.28 339.75,1.16 336.98,1.06 C334.21,0.96 331.4,0.87 328.56,0.8 C325.72,0.73 322.83,0.68 319.92,0.65 C317.01,0.62 314.08,0.6 311.11,0.6 C308.443333,0.6 305.776667,0.6 303.11,0.6 C300.443333,0.6 297.823333,0.643333333 295.25,0.73 C292.663333,0.79 290.1,0.86 287.56,0.94 C285.02,1.02 282.52,1.11666667 280.06,1.23 L296.22,17.39 L312.38,33.55 L328.54,49.71 L344.69,65.93 Z" id="Path" fill="#FFFFFF" opacity="0.3"></path>
            <path d="M300.769916,18.55 L300.769916,47.15 C300.768414,47.2244426 300.789325,47.2976319 300.83,47.36 C300.866689,47.4217422 300.918258,47.4733114 300.98,47.51 C301.042312,47.5260888 301.107688,47.5260888 301.17,47.51 C301.244066,47.5088687 301.316516,47.4881688 301.38,47.45 L307.53,43.82 L313.68,40.18 L319.83,36.55 L326,33 C326.063931,32.9662006 326.116201,32.9139309 326.15,32.85 C326.185278,32.7894165 326.202618,32.7200573 326.2,32.65 C326.198679,32.5804091 326.181583,32.5120253 326.15,32.45 C326.116201,32.3860691 326.063931,32.3337994 326,32.3 L319.85,28.79 L313.7,25.27 L307.55,21.76 L301.4,18.24 C301.335723,18.2048738 301.26321,18.1876086 301.19,18.1897814 C301.120409,18.1913208 301.052025,18.2084168 300.99,18.24 C300.931085,18.2769769 300.882831,18.3286779 300.85,18.39 C300.810296,18.4357529 300.78278,18.4907852 300.769916,18.55 L300.769916,18.55 Z" id="Path" fill="#0099DA"></path>
        </g>
    </g>
</svg>