<?xml version="1.0" encoding="UTF-8"?>
<svg width="440px" height="330px" viewBox="0 0 440 330" version="1.1" xmlns="http://www.w3.org/2000/svg" xmlns:xlink="http://www.w3.org/1999/xlink">
    <title>Graphic elements / Icons / Rich icons / Mobile support</title>
    <g id="Graphic-elements-/-Icons-/-Rich-icons-/-Mobile-support" stroke="none" stroke-width="1" fill="none" fill-rule="evenodd">
        <g id="mobile-support" transform="translate(94.000000, 0.000000)" fill-rule="nonzero">
            <path d="M46.7282803,322.831722 L46.7282803,15.5927492 C46.7231433,14.743106 46.8928271,13.9014744 47.2268882,13.1202417 C48.2129645,10.7667306 50.5174524,9.23695963 53.0691843,9.24198157 L235.925076,9.24198157 C236.774257,9.24198157 237.614952,9.41094141 238.397583,9.74048338 C239.919958,10.3825196 241.129836,11.5959766 241.767372,13.1202417 C242.096914,13.9028729 242.265869,14.7435677 242.265869,15.5927492 L242.265869,322.831722 C242.269904,325.380239 240.745403,327.682707 238.397583,328.674018 C237.61635,329.008079 236.774719,329.177763 235.925076,329.172626 L53.0691843,329.172626 C51.3875034,329.172626 49.7746998,328.504462 48.5855719,327.315334 C47.3964439,326.126207 46.7282803,324.513403 46.7282803,322.831722 Z" id="Path" fill="#023852" opacity="0.2" style="mix-blend-mode: multiply;"></path>
            <path d="M55.8289026,313.759215 L55.8289026,6.52024169 C55.8255023,5.6738143 55.9952164,4.83542645 56.3293051,4.05770393 C56.647129,3.3111078 57.1077151,2.6337753 57.6851964,2.06374622 C58.8769165,0.875912252 60.4890131,0.205996546 62.1716012,0.199376763 L244.977644,0.199376763 C245.827985,0.199376763 246.669645,0.370372058 247.450151,0.707854985 C248.196014,1.02701991 248.873102,1.48743974 249.444109,2.06374622 C250.018506,2.63633805 250.478659,3.313034 250.8,4.05770393 C251.129273,4.83692287 251.298491,5.6743088 251.298491,6.52024169 L251.298491,313.759215 C251.298491,314.608396 251.129542,315.449091 250.8,316.231722 C250.162464,317.755987 248.952587,318.969444 247.430211,319.61148 C246.64758,319.941022 245.806885,320.109999 244.957704,320.109999 L62.1217523,320.109999 C59.5692122,320.117695 57.2633665,318.587023 56.2794562,316.231722 C55.9624675,315.446886 55.8097761,314.605387 55.8289026,313.759215 Z" id="Path" fill="#023852"></path>
            <polygon id="Path" fill="#0099DA" points="67.8145015 13.9975831 67.8145015 82.1311178 67.8145015 150.264653 67.8145015 218.398187 67.8145015 286.531722 110.684592 286.531722 153.544713 286.531722 196.414804 286.531722 239.274924 286.531722 239.274924 218.398187 239.274924 150.264653 239.274924 82.1311178 239.274924 13.9975831 196.414804 13.9975831 153.544713 13.9975831 110.684592 13.9975831"></polygon>
            <polygon id="Path" fill="#4E7486" points="239.364653 30.0888218 196.454683 30.0888218 153.544713 30.0888218 110.644713 30.0888218 67.7347432 30.0888218 67.7347432 26.0610272 67.7347432 22.0432024 67.7347432 18.0154079 67.7347432 13.9975831 110.644713 13.9975831 153.544713 13.9975831 196.454683 13.9975831 239.364653 13.9975831 239.364653 18.0154079 239.364653 22.0432024 239.364653 26.0610272"></polygon>
            <path d="M153.534743,310.239902 C154.534895,310.242348 155.52519,310.042255 156.445921,309.651662 C159.220452,308.481778 161.024223,305.763655 161.024223,302.752568 C161.024223,299.741481 159.220452,297.023358 156.445921,295.853474 C154.584388,295.069098 152.485098,295.069098 150.623565,295.853474 C147.850236,297.022815 146.050009,299.742808 146.057379,302.752568 C146.056502,304.738469 146.845637,306.643156 148.250755,308.046526 C148.932275,308.727772 149.737641,309.272578 150.623565,309.651662 C151.544864,310.040421 152.534781,310.240439 153.534743,310.239902 L153.534743,310.239902 Z" id="Path" fill="#4E7486"></path>
            <g id="Group" opacity="0.5" transform="translate(94.712991, 247.250755)" fill="#FFFFFF">
                <polygon id="Path" points="42.7504532 4.39667674 0.638066465 4.39667674 0.638066465 0.458610272 42.7504532 0.458610272"></polygon>
                <polygon id="Path" points="42.7504532 11.8141994 0.638066465 11.8141994 0.638066465 7.82628399 42.7504532 7.82628399"></polygon>
            </g>
            <path d="M138.869184,172.477257 L88.3522659,172.477257 C87.7748881,172.47234 87.2178172,172.690169 86.7969789,173.085498 C86.3880748,173.459557 86.1532907,173.986918 86.1489426,174.541088 L86.1489426,221.55861 C86.1505159,222.116255 86.3855352,222.64776 86.7969789,223.024169 C87.2178172,223.419498 87.7748881,223.637327 88.3522659,223.632326 L99.3190332,223.632326 L99.3190332,232.694864 L104.154381,228.15861 L108.999698,223.632326 L138.849245,223.632326 C139.429496,223.636823 139.989498,223.419243 140.414502,223.024169 C140.825945,222.64776 141.060964,222.116255 141.062538,221.55861 L141.062538,174.570997 C141.05819,174.016828 140.823406,173.489467 140.414502,173.115408 C139.999155,172.714134 139.446643,172.486 138.869184,172.477257 L138.869184,172.477257 Z" id="Path" fill="#FFFFFF"></path>
            <g id="Group" opacity="0.5" transform="translate(169.486405, 247.250755)" fill="#FFFFFF">
                <polygon id="Path" points="42.8700906 4.39667674 0.73776435 4.39667674 0.73776435 0.458610272 42.8700906 0.458610272"></polygon>
                <polygon id="Path" points="42.8700906 11.8141994 0.73776435 11.8141994 0.73776435 7.82628399 42.8700906 7.82628399"></polygon>
            </g>
            <path d="M213.752266,57.8944777 L163.235347,57.8944777 C162.655097,57.8900649 162.095094,58.1076454 161.670091,58.502719 C161.262332,58.8808831 161.031031,59.4121539 161.032021,59.9682779 L161.032021,106.985801 C161.033802,107.538456 161.264872,108.065585 161.670091,108.44139 C162.095094,108.836463 162.655097,109.054044 163.235347,109.049547 L174.202115,109.049547 L174.202115,118.122054 L179.047432,113.585801 L183.882779,109.049547 L213.752266,109.049547 C214.329644,109.054548 214.886714,108.836719 215.307553,108.44139 C215.716457,108.067331 215.951241,107.53997 215.955589,106.985801 L215.955589,59.9682779 C215.954016,59.4106334 215.718997,58.8791284 215.307553,58.502719 C214.886714,58.1073898 214.329644,57.8895609 213.752266,57.8944777 Z" id="Path" fill="#FFFFFF"></path>
            <g id="Group" opacity="0.5" transform="translate(169.486405, 132.598187)" fill="#FFFFFF">
                <polygon id="Path" points="42.8700906 4.44652568 0.73776435 4.44652568 0.73776435 0.458610272 42.8700906 0.458610272"></polygon>
                <polygon id="Path" points="42.8700906 11.8640483 0.73776435 11.8640483 0.73776435 7.87613293 42.8700906 7.87613293"></polygon>
            </g>
            <path d="M213.752266,172.477273 L163.235347,172.477273 C162.655097,172.472844 162.095094,172.690425 161.670091,173.085498 C161.264872,173.461303 161.033802,173.988432 161.032021,174.541088 L161.032021,221.55861 C161.031031,222.114734 161.262332,222.646005 161.670091,223.024169 C162.095094,223.419243 162.655097,223.636823 163.235347,223.632326 L174.202115,223.632326 L174.202115,232.694864 L179.047432,228.15861 L183.882779,223.632326 L213.752266,223.632326 C214.329644,223.637327 214.886714,223.419498 215.307553,223.024169 C215.718997,222.64776 215.954016,222.116255 215.955589,221.55861 L215.955589,174.570997 C215.951241,174.016828 215.716457,173.489467 215.307553,173.115408 C214.891432,172.709157 214.333804,172.480387 213.752266,172.477273 Z" id="Path" fill="#FFFFFF"></path>
            <polygon id="Path" fill="#023852" points="182.008459 76.8072508 180.782175 75.570997 179.545921 74.344713 174.620846 79.2598187 169.685801 84.1649547 169.69577 84.1749245 169.70574 84.1848943 169.69577 84.194864 169.685801 84.2048338 174.620846 89.1199396 179.545921 94.0250755 180.782175 92.7987915 182.008459 91.5625378 178.319637 87.873716 174.630816 84.1848943 178.319637 80.4960725"></polygon>
            <polygon id="Path" fill="#FFE700" points="194.969184 91.5625378 196.205438 92.7987915 197.441692 94.0250755 202.366767 89.1199396 207.301813 84.2048338 207.291843 84.194864 207.281873 84.1848943 207.291843 84.1749245 207.301813 84.1649547 202.366767 79.2598187 197.441692 74.344713 196.205438 75.570997 194.969184 76.8072508 198.658006 80.4960725 202.346828 84.1848943 198.658006 87.873716"></polygon>
            <polygon id="Path" fill="#0099DA" points="187.322356 96.9063444 185.667372 96.9063444 184.022356 96.9063444 186.474924 84.1151057 188.937462 71.3138973 190.592447 71.3138973 192.237462 71.3138973 189.784894 84.1151057"></polygon>
            <g id="Group" opacity="0.2" style="mix-blend-mode: multiply;" transform="translate(55.830816, 34.894260)" fill="#023852">
                <path d="M87.0761329,1.90422961 C86.0273306,0.940278341 84.6522604,0.409486999 83.2277946,0.418612373 L0.139577039,0.418612373 C0.139577039,11.4652568 0.33897281,22.5018127 0.598187311,33.5483384 C1.22628399,60.1377644 2.27311178,86.7172205 2.59214502,113.306647 C2.65861027,119.826888 2.72507553,126.34713 2.79154079,132.867372 L9.77039275,126.3571 L83.2776435,126.3571 C84.7021093,126.366344 86.0771795,125.835552 87.1259819,124.871601 C88.1252876,123.939842 88.6983441,122.638751 88.7111782,121.272508 L88.7111782,5.51329305 C88.6882062,4.13604026 88.0963747,2.82968065 87.0761329,1.90422961 Z" id="Path"></path>
            </g>
            <circle id="Oval" fill="#023852" cx="101.661934" cy="188.448943" r="4.18731118"></circle>
            <circle id="Oval" fill="#0099DA" cx="124.841692" cy="208.009668" r="4.18731118"></circle>
            <polygon id="Rectangle" fill="#9DA0A1" transform="translate(113.161854, 198.351553) rotate(-49.330000) translate(-113.161854, -198.351553) " points="112.164875 189.981915 114.158833 189.981915 114.158833 206.72119 112.164875 206.72119"></polygon>
            <path d="M129.926284,24.7648018 L5.54320242,24.7648018 C4.11664545,24.754412 2.73997826,25.2893863 1.69486405,26.260423 C0.676858312,27.1997099 0.101440671,28.5242562 0.109580649,29.9093656 L0.109580649,145.628701 C0.122501793,146.994945 0.69555837,148.296035 1.69486405,149.227795 C2.74366639,150.191746 4.11873658,150.722537 5.54320242,150.713293 L32.5812689,150.713293 L32.5812689,173.045619 L44.4951662,161.879456 L56.4589124,150.713293 L129.966163,150.713293 C131.390629,150.722537 132.765699,150.191746 133.814502,149.227795 C134.813807,148.296035 135.386864,146.994945 135.399698,145.628701 L135.399698,29.9093656 C135.393989,28.5415968 134.819742,27.2378035 133.814502,26.3102719 C132.767166,25.3115256 131.373472,24.7576216 129.926284,24.7648018 L129.926284,24.7648018 Z" id="Path" fill="#FFFFFF"></path>
            <path d="M102.967976,82.9586103 C103.03266,82.3434814 102.834617,81.7296345 102.422635,81.2682905 C102.010653,80.8069464 101.423032,80.5409944 100.804532,80.5359517 C99.3444666,80.2372417 97.8653516,80.0406926 96.3779456,79.9477341 C93.247432,79.9477341 91.4628399,78.6416918 90.6154079,75.6009063 C90.195549,74.7080647 90.344274,73.6513343 90.9942598,72.9090634 C92.3501511,71.3039275 93.576435,69.5990937 94.8924471,67.9241692 C95.9492447,66.6280967 96.0688822,65.3719033 94.8924471,64.1356495 C92.3700906,61.5833837 89.9075529,59.021148 87.3154079,56.4987915 C86.9171974,56.06766 86.3569858,55.8224834 85.7700906,55.8224834 C85.1831955,55.8224834 84.6229838,56.06766 84.2247734,56.4987915 C82.6794562,57.705136 80.9945619,58.7519637 79.5489426,60.0679758 C78.1033233,61.3839879 76.7873112,61.5634441 74.8930514,60.7060423 C73.357986,60.2258729 72.2968526,58.8243759 72.2510574,57.2166163 C72.081571,55.1329305 71.6129909,53.0691843 71.3936556,50.9854985 C71.404183,50.3586343 71.1371697,49.7591555 70.6641506,49.3476674 C70.1911316,48.9361793 69.5604562,48.7547419 68.9410876,48.8519637 L63.8066465,48.8519637 L63.8066465,75.002719 C70.8974786,75.150384 76.5809627,80.9181889 76.6241916,88.0104266 C76.6674205,95.1026644 71.0546684,100.939322 63.9661631,101.173414 L63.8066465,101.173414 L63.8066465,127.28429 C65.5413897,127.28429 67.2761329,127.28429 69.0108761,127.28429 C69.5877223,127.384758 70.1800253,127.234234 70.6389145,126.87055 C71.0978037,126.506866 71.3796433,125.964605 71.4135952,125.38006 C71.8024848,123.666806 72.0657228,121.927436 72.2012085,120.175831 C72.2012085,117.36435 73.3377644,115.779154 76.0694864,114.991541 C76.9673511,114.574261 78.027812,114.735294 78.7613293,115.400302 C80.4063444,116.796073 82.1809668,118.052266 83.8459215,119.388218 C85.0722054,120.385196 86.2984894,120.614502 87.4649547,119.467976 C88.7809668,118.171903 90.0870091,116.875831 91.3930514,115.559819 L95.4607251,111.422356 C96.3779456,110.425378 96.1486405,109.428399 95.370997,108.501208 C94.3951242,107.109531 93.3364143,105.77782 92.2006042,104.513293 C90.326284,102.688822 90.1169184,100.954079 91.4628399,98.6610272 C92.1507553,97.4945619 92.6791541,96.7966767 94.094864,96.6670695 C96.3181269,96.4876133 98.5214502,96.0389728 100.734743,95.7498489 C101.388259,95.7665794 102.016559,95.4973932 102.455255,95.0127199 C102.893952,94.5280466 103.099392,93.8761137 103.017825,93.2274924 C102.938066,89.8676737 102.948036,86.4181269 102.967976,82.9586103 Z" id="Path" fill="#023852"></path>
            <path d="M56.3293051,98.8703927 C52.8127615,96.421925 50.7047504,92.4178193 50.676435,88.1329305 C50.6525609,84.6726385 52.0049819,81.344736 54.43589,78.882039 C56.8667982,76.4193421 60.17685,75.023801 63.6371601,75.002719 L63.8066465,75.002719 L63.8066465,48.8519637 L58.6323263,48.8519637 C58.0186196,48.7726727 57.4000914,48.9575203 56.9305261,49.360548 C56.4609608,49.7635757 56.1844667,50.3469254 56.1697885,50.9655589 C55.8308157,53.3084592 55.3223565,55.6413897 55.1728097,57.9444109 C55.063142,59.3202417 54.3453172,59.7489426 53.2785498,60.3870091 C50.9954683,61.7528701 49.2906344,61.4637462 47.4462236,59.589426 C46.2330238,58.5227863 44.9615839,57.5242732 43.6377644,56.5984894 C43.1956787,56.1130999 42.5695294,55.8364572 41.9129909,55.8364572 C41.2564525,55.8364572 40.6303032,56.1130999 40.1882175,56.5984894 C37.526284,59.1906344 34.9042296,61.8326284 32.3220544,64.4945619 C31.8853177,64.8895969 31.6361315,65.450989 31.6361315,66.0398792 C31.6361315,66.6287693 31.8853177,67.1901614 32.3220544,67.5851964 C33.3190332,68.7217523 34.0767372,70.0178248 35.1335347,71.044713 C37.2870091,73.1084592 37.5861027,75.192145 35.9909366,77.7643505 C35.6437581,78.640565 34.8353848,79.2487697 33.897281,79.339577 C31.4845921,79.6087613 29.0818731,80.0574018 26.6691843,80.3365559 C26.082787,80.3422652 25.5256633,80.5936442 25.1333656,81.0295305 C24.7410678,81.4654169 24.5495603,82.0458504 24.6054381,82.6296073 C24.6054381,86.1522659 24.6054381,89.6749245 24.6054381,93.1975831 C24.5379803,93.8161416 24.7439153,94.4333273 25.16929,94.8874435 C25.5946647,95.3415598 26.197088,95.5873512 26.8187311,95.560423 C28.2121962,95.8297431 29.6204093,96.0161732 31.0359517,96.1187311 C34.2362538,96.0389728 36.0906344,97.3749245 36.958006,100.515408 C37.3640547,101.413608 37.2165796,102.465338 36.5791541,103.217221 C35.2432024,104.832326 34.0268882,106.5571 32.6809668,108.202115 C32.112492,108.720091 31.8011697,109.462262 31.8299894,110.230788 C31.8588091,110.999314 32.2248418,111.716085 32.8305136,112.19003 C34.3558912,113.745317 35.9111782,115.280665 37.4564955,116.806042 L40.1583082,119.497885 C41.2848943,120.624471 42.3716012,120.494864 43.5679758,119.587613 C45.3725076,118.161934 47.2268882,116.796073 49.0613293,115.400302 C50.7063444,114.154079 54.7640483,115.729305 55.1129909,117.783082 C55.5317221,120.255589 55.910574,122.767976 56.2096677,125.220544 C56.2079616,125.839588 56.4777305,126.42826 56.9477453,126.83113 C57.4177602,127.234 58.0407659,127.410563 58.6522659,127.314199 C60.3471299,127.314199 62.041994,127.314199 63.7268882,127.314199 L63.8066465,127.314199 L63.8066465,101.163444 C61.1358263,101.199187 58.5209182,100.397282 56.3293051,98.8703927 Z" id="Path" fill="#0099DA"></path>
            <polygon id="Path" fill="#0099DA" points="187.521752 205.138369 186.435045 206.205136 185.438066 207.261934 184.32145 208.36858 183.254683 209.365559 180.961631 207.062538 178.65861 204.769486 176.355589 202.466465 174.052568 200.173414 175.119335 199.106647 176.186103 198.039879 177.25287 196.983082 178.309668 195.916314 179.545921 197.152568 180.782175 198.388822 182.018429 199.615106 183.254683 200.85136 186.614502 197.501511 189.96435 194.151662 193.324169 190.801813 196.674018 187.451964 197.740785 188.518731 198.807553 189.575529 199.87432 190.642296 200.941088 191.709063 197.581269 195.058912 194.23142 198.398792 190.871601 201.74864"></polygon>
        </g>
    </g>
</svg>