<?xml version="1.0" encoding="UTF-8"?>
<svg width="440px" height="330px" viewBox="0 0 440 330" version="1.1" xmlns="http://www.w3.org/2000/svg" xmlns:xlink="http://www.w3.org/1999/xlink">
    <title>Graphic elements / Icons / Rich icons / MyMilestone</title>
    <g id="Graphic-elements-/-Icons-/-Rich-icons-/-MyMilestone" stroke="none" stroke-width="1" fill="none" fill-rule="evenodd">
        <g id="MyMilestone" transform="translate(20.000000, 37.000000)" fill-rule="nonzero">
            <path d="M236,274.38 L236,250.38 L166,250.38 L166,274.38 C165.943696,275.005624 165.846825,275.626931 165.71,276.24 C165.398916,277.654773 164.904754,279.022965 164.24,280.31 C162.346648,284.108158 158.389192,286.430074 154.15,286.23 L247.88,286.23 C243.640808,286.430074 239.683352,284.108158 237.79,280.31 C237.116582,279.026765 236.621991,277.657387 236.32,276.24 C236.173082,275.627601 236.066189,275.006287 236,274.38 L236,274.38 Z" id="Path" fill="#9DADB7"></path>
            <path d="M262.28,286.229995 L139.69,286.229995 C138.922218,286.231298 138.162996,286.391313 137.46,286.7 C136.085304,287.340642 135.010712,288.486873 134.46,289.9 C134.160404,290.64016 134.007568,291.431508 134.009971,292.229995 L268.000018,292.229995 C268.003766,290.655536 267.406452,289.139001 266.33,287.99 C265.811696,287.447238 265.193796,287.009277 264.51,286.7 C263.807725,286.389074 263.048026,286.228958 262.28,286.229995 Z" id="Path" fill="#CED6DB"></path>
            <polygon id="Path" fill="#9DADB7" opacity="0.2" style="mix-blend-mode: multiply;" points="165.98 250.39 183.48 250.39 200.98 250.39 218.48 250.39 235.98 250.39 235.98 255.39 235.98 260.39 235.98 265.39 235.98 270.39 218.48 270.39 200.98 270.39 183.48 270.39 165.98 270.39 165.98 265.39 165.98 260.39 165.98 255.39"></polygon>
            <path d="M395.47,250.390319 L6.5,250.390319 C5.76108005,250.390319 5.02991358,250.239346 4.35,249.95 C3.69470412,249.662202 3.10065147,249.251457 2.6,248.74 C1.55934227,247.668743 0.979995213,246.233505 0.979995213,244.74 L0.979995213,6 C0.979995213,4.50649534 1.55934227,3.07125691 2.6,2 C3.10065147,1.48854285 3.69470412,1.07779788 4.35,0.79 C5.02991358,0.500653749 5.76108005,0.35 6.5,0.35 L395.5,0.35 C396.23892,0.35 396.970086,0.500653749 397.65,0.79 C398.294601,1.08109609 398.878223,1.49166753 399.37,2 C400.420733,3.06543988 401.006791,4.50361915 401.000187,6 L401.000187,244.76 C401.012122,246.253534 400.433414,247.691319 399.39,248.76 C398.889349,249.271457 398.295296,249.682202 397.64,249.97 C396.952459,250.25513 396.214277,250.398005 395.47,250.390319 Z" id="Path" fill="#023852"></path>
            <polygon id="Path" fill="#0099DA" points="12.98 225.39 106.98 225.39 200.98 225.39 294.98 225.39 388.98 225.39 388.98 172.14 388.98 118.89 388.98 65.64 388.98 12.39 294.98 12.39 200.98 12.39 106.98 12.39 12.98 12.39 12.98 65.64 12.98 118.89 12.98 172.14"></polygon>
            <path d="M207.48,237.89 C207.480921,236.165538 206.797593,234.511163 205.58,233.29 C204.983506,232.700671 204.281238,232.229099 203.51,231.9 C202.709884,231.560492 201.849162,231.386986 200.98,231.389961 C200.111055,231.389181 199.250766,231.562599 198.45,231.9 C197.683113,232.231644 196.984575,232.702988 196.39,233.29 C195.794215,233.88119 195.321747,234.584794 195,235.36 C194.306112,236.975301 194.306112,238.804699 195,240.42 C195.321747,241.195206 195.794215,241.89881 196.39,242.49 C196.981989,243.080162 197.68116,243.551934 198.45,243.88 C199.250766,244.217401 200.111055,244.390819 200.98,244.390039 C201.849162,244.393014 202.709884,244.219508 203.51,243.88 C205.933996,242.872924 207.512697,240.504871 207.510003,237.88 L207.48,237.89 Z" id="Path" fill="#4E7486"></path>
            <path d="M87.45,177 L80.45,154.09 L80.27,154.09 C80.5233333,158.756667 80.65,161.866667 80.65,163.42 L80.65,177 L75.08,177 L75.08,147.8 L83.51,147.8 L90.42,170.13 L90.54,170.13 L97.87,147.8 L106.3,147.8 L106.3,177 L100.52,177 L100.52,163.16 C100.52,162.51 100.52,161.76 100.52,160.9 C100.52,160.04 100.63,157.79 100.78,154.11 L100.6,154.11 L93.12,177 L87.45,177 Z" id="Path" fill="#FFFFFF"></path>
            <path d="M110,154.65 L116.67,154.65 L120.88,167.21 C121.274245,168.470776 121.522535,169.772622 121.62,171.09 L121.74,171.09 C121.87534,169.76771 122.163944,168.465636 122.6,167.21 L126.73,154.65 L133.26,154.65 L123.82,179.83 C123.137926,181.907011 121.844883,183.729819 120.11,185.06 C118.473986,186.232213 116.502163,186.842707 114.49,186.8 C113.450514,186.802815 112.414005,186.688766 111.4,186.46 L111.4,181.63 C112.184157,181.807451 112.986029,181.894684 113.79,181.89 C114.822243,181.903855 115.825622,181.549304 116.62,180.89 C117.515439,180.084133 118.169709,179.04561 118.51,177.89 L118.87,176.79 L110,154.65 Z" id="Path" fill="#FFFFFF"></path>
            <path d="M149.27,177 L142.27,154.09 L142.09,154.09 C142.343333,158.756667 142.47,161.866667 142.47,163.42 L142.47,177 L136.94,177 L136.94,147.8 L145.37,147.8 L152.27,170.13 L152.39,170.13 L159.72,147.8 L168.15,147.8 L168.15,177 L162.38,177 L162.38,163.16 C162.38,162.51 162.38,161.76 162.38,160.9 C162.38,160.04 162.49,157.79 162.65,154.11 L162.47,154.11 L154.94,177 L149.27,177 Z" id="Path" fill="#FFFFFF"></path>
            <path d="M174.73,148.88 C174.73,146.88 175.833333,145.88 178.04,145.88 C180.246667,145.88 181.353333,146.88 181.36,148.88 C181.406724,149.700653 181.105393,150.502992 180.53,151.09 C179.832557,151.663893 178.940728,151.946842 178.04,151.88 C175.833333,151.88 174.73,150.88 174.73,148.88 Z M181.08,176.98 L175,176.98 L175,154.65 L181.09,154.65 L181.08,176.98 Z" id="Shape" fill="#FFFFFF"></path>
            <polygon id="Path" fill="#FFFFFF" points="193.56 177 187.47 177 187.47 145.91 193.56 145.91"></polygon>
            <path d="M210.06,177.38 C206.46,177.38 203.65,176.38 201.63,174.38 C199.61,172.38 198.61,169.57 198.63,165.95 C198.63,162.21 199.566667,159.32 201.44,157.28 C203.45566,155.174678 206.289539,154.053543 209.2,154.21 C211.922138,154.046773 214.589186,155.025174 216.56,156.91 C218.4055,158.937597 219.357029,161.622782 219.2,164.36 L219.2,167.36 L204.8,167.36 C204.779557,168.859717 205.330085,170.311108 206.34,171.42 C207.419338,172.429354 208.86459,172.953258 210.34,172.87 C211.62523,172.87702 212.906997,172.736093 214.16,172.45 C215.454378,172.143444 216.711719,171.697507 217.91,171.12 L217.91,175.83 C216.828028,176.368794 215.682276,176.768631 214.5,177.02 C213.036476,177.293553 211.548477,177.414202 210.06,177.38 Z M209.2,158.57 C208.069974,158.519931 206.97436,158.96548 206.2,159.79 C205.404539,160.781383 204.961289,162.009116 204.94,163.28 L213.49,163.28 C213.545263,162.010275 213.12445,160.765667 212.31,159.79 C211.500908,158.949174 210.364992,158.503574 209.2,158.57 L209.2,158.57 Z" id="Shape" fill="#FFFFFF"></path>
            <path d="M239.69,170.35 C239.807574,172.381361 238.912799,174.339383 237.3,175.58 C235.706667,176.78 233.326667,177.38 230.16,177.38 C228.769411,177.399414 227.380046,177.288935 226.01,177.05 C224.903439,176.834979 223.823694,176.499654 222.79,176.05 L222.79,171.05 C224.020642,171.616173 225.303319,172.061594 226.62,172.38 C227.839834,172.71255 229.095918,172.89391 230.36,172.92 C232.57,172.92 233.68,172.28 233.68,171.01 C233.695761,170.576842 233.537282,170.155433 233.24,169.84 C232.784304,169.434986 232.272316,169.098152 231.72,168.84 C231,168.46 230.04,168.02 228.85,167.51 C227.513081,166.993225 226.241123,166.322008 225.06,165.51 C224.312799,164.957787 223.709196,164.23415 223.3,163.4 C222.910201,162.473616 222.722688,161.474682 222.75,160.47 C222.675653,158.641003 223.548596,156.902675 225.06,155.87 C227.022933,154.672843 229.304825,154.104114 231.6,154.24 C234.313763,154.246662 236.993162,154.847394 239.45,156 L237.61,160.39 C236.587755,159.945755 235.542998,159.555223 234.48,159.22 C233.509955,158.911807 232.49782,158.756613 231.48,158.76 C229.68,158.76 228.79,159.24 228.79,160.21 C228.810352,160.800642 229.135995,161.338331 229.65,161.63 C230.865471,162.33367 232.140364,162.929289 233.46,163.41 C234.816183,163.911847 236.103145,164.58389 237.29,165.41 C238.049928,165.959457 238.667155,166.682984 239.09,167.52 C239.501365,168.405846 239.706508,169.373439 239.69,170.35 Z" id="Path" fill="#FFFFFF"></path>
            <path d="M253.85,172.52 C255.153517,172.478314 256.44389,172.245845 257.68,171.83 L257.68,176.36 C255.907375,177.08153 254.002833,177.422235 252.09,177.36 C249.65,177.36 247.876667,176.743333 246.77,175.51 C245.548806,173.944238 244.953557,171.980273 245.1,170 L245.1,159.23 L242.18,159.23 L242.18,156.65 L245.54,154.65 L247.3,149.94 L251.19,149.94 L251.19,154.69 L257.44,154.69 L257.44,159.27 L251.19,159.27 L251.19,170 C251.131875,170.717263 251.400025,171.422536 251.92,171.92 C252.470571,172.344963 253.155532,172.557905 253.85,172.52 Z" id="Path" fill="#FFFFFF"></path>
            <path d="M282.48,165.78 C282.48,169.406667 281.523333,172.246667 279.61,174.3 C277.50725,176.424627 274.594635,177.545984 271.61,177.38 C269.628537,177.419938 267.67196,176.933381 265.94,175.97 C264.309538,175.043151 262.99323,173.650233 262.16,171.97 C261.248203,170.050719 260.799509,167.944256 260.85,165.82 C260.85,162.173333 261.8,159.336667 263.7,157.31 C265.6,155.283333 268.266667,154.283333 271.7,154.31 C273.680026,154.271753 275.635333,154.754545 277.37,155.71 C279.00021,156.634018 280.314027,158.027989 281.14,159.71 C282.053456,161.601309 282.512322,163.679903 282.48,165.78 L282.48,165.78 Z M267.05,165.78 C266.941924,167.514379 267.315707,169.244853 268.13,170.78 C268.922034,171.942241 270.278502,172.587996 271.68,172.47 C273.065084,172.586599 274.404621,171.943621 275.18,170.79 C275.989848,169.253504 276.360098,167.523365 276.25,165.79 C276.367158,164.054948 275.992844,162.322011 275.17,160.79 C274.295987,159.747537 273.005378,159.145398 271.645,159.145398 C270.284622,159.145398 268.994013,159.747537 268.12,160.79 C267.30144,162.319712 266.930596,164.049161 267.05,165.78 Z" id="Shape" fill="#FFFFFF"></path>
            <path d="M308.12,177 L302,177 L302,164 C302.085737,162.730979 301.785967,161.46567 301.14,160.37 C300.492436,159.532853 299.464631,159.08107 298.41,159.17 C296.962904,159.042973 295.556239,159.689279 294.71,160.87 C293.95,162.01 293.57,163.896667 293.57,166.53 L293.57,177 L287.48,177 L287.48,154.65 L292.14,154.65 L292.95,157.51 L293.29,157.51 C293.964629,156.434149 294.942267,155.58176 296.1,155.06 C297.37667,154.490748 298.76235,154.207469 300.16,154.23 C302.338355,154.076144 304.48163,154.84134 306.07,156.34 C307.510996,158.024393 308.229644,160.209081 308.07,162.42 L308.12,177 Z" id="Path" fill="#FFFFFF"></path>
            <path d="M324.5,177.38 C320.9,177.38 318.09,176.38 316.07,174.38 C314.07,172.38 313.07,169.59 313.07,165.95 C313.07,162.31 314.01,159.32 315.88,157.28 C317.89566,155.174678 320.729539,154.053543 323.64,154.21 C326.364818,154.048839 329.034152,155.02675 331.01,156.91 C332.848921,158.940958 333.796328,161.624679 333.64,164.36 L333.64,167.36 L319.2,167.36 C319.179557,168.859717 319.730085,170.311108 320.74,171.42 C321.81996,172.428339 323.264763,172.95208 324.74,172.87 C326.021897,172.87643 327.300285,172.735506 328.55,172.45 C329.844378,172.143444 331.101719,171.697507 332.3,171.12 L332.3,175.83 C331.218028,176.368794 330.072276,176.768631 328.89,177.02 C327.442869,177.290117 325.971803,177.410751 324.5,177.38 Z M323.64,158.57 C322.510439,158.522615 321.415901,158.967727 320.64,159.79 C319.844539,160.781383 319.401289,162.009116 319.38,163.28 L327.93,163.28 C327.985263,162.010275 327.56445,160.765667 326.75,159.79 C325.940908,158.949174 324.804992,158.503574 323.64,158.57 Z" id="Shape" fill="#FFFFFF"></path>
            <circle id="Oval" fill="#FFFFFF" cx="199.06" cy="91.41" r="23.87"></circle>
            <circle id="Oval" fill="#0099DA" cx="199.06" cy="84.29" r="8.24"></circle>
            <path d="M210.63,104.920012 C211.343724,104.922312 212.014628,104.579794 212.431349,104.000354 C212.84807,103.420913 212.959301,102.675891 212.73,102 C211.06,97.25 205.58,93.78 199.06,93.78 C192.54,93.78 187.06,97.25 185.38,102 C185.154927,102.677388 185.269299,103.421682 185.687367,104.000241 C186.105436,104.578801 186.776199,104.921045 187.49,104.920012 L210.63,104.920012 Z" id="Path" fill="#0099DA"></path>
            <polygon id="Path" fill="#FFFFFF" opacity="0.2" points="13 12.39 27 25.86 41 39.32 55 52.78 69 66.24 110.52 106.05 152.05 145.84 193.59 185.62 235.14 225.39 389 225.39 389 12.39"></polygon>
        </g>
    </g>
</svg>