<?xml version="1.0" encoding="UTF-8"?>
<svg width="440px" height="330px" viewBox="0 0 440 330" version="1.1" xmlns="http://www.w3.org/2000/svg" xmlns:xlink="http://www.w3.org/1999/xlink">
    <title>Graphic elements / Icons / Rich icons / Newspaper</title>
    <g id="Graphic-elements-/-Icons-/-Rich-icons-/-Newspaper" stroke="none" stroke-width="1" fill="none" fill-rule="evenodd">
        <g id="Newspaper" transform="translate(80.000000, 23.000000)" fill-rule="nonzero">
            <path d="M44.3599978,3 L44.3599978,55.31 L0.359997783,55.31 L0.359997783,260.66 C0.359997783,266.756209 2.78126945,272.602771 7.09662856,276.908749 C11.4119877,281.214727 17.2638114,283.625945 23.3599978,283.610079 L250.9,283.610079 C262.100335,283.610079 271.18,274.530335 271.18,263.33 L271.18,3 L44.3599978,3 Z" id="Path" fill="#023852" opacity="0.3" style="mix-blend-mode: multiply;"></path>
            <path d="M10.13,47.28 L10.13,255.28 C10.1355176,266.483571 19.2164287,275.564482 30.42,275.57 L61.42,275.57 L61.42,47.28 L10.13,47.28 Z" id="Path" fill="#9DADB7"></path>
            <path d="M29.42,47.28 L29.42,255.28 C29.4255116,266.47967 38.5003341,275.558967 49.7,275.57 L80.75,275.57 L80.75,47.28 L29.42,47.28 Z" id="Path" fill="#8F9C9B" style="mix-blend-mode: multiply;"></path>
            <path d="M54.1,0 L54.1,253.52 C54.1121653,265.290217 44.8580579,274.984996 33.1,275.52 L33.1,275.58 L260.64,275.58 C271.843571,275.574482 280.924482,266.493571 280.93,255.29 L280.93,0 L54.1,0 Z" id="Path" fill="#F4F5F5"></path>
            <polygon id="Path" fill="#9DADB7" points="250.51 225.03 171.95 225.25 93.39 225.48 93.37 219.56 93.35 213.63 171.91 213.41 250.48 213.19 250.49 219.11"></polygon>
            <polygon id="Path" fill="#9DADB7" points="250.51 198.18 171.95 198.41 93.39 198.63 93.37 192.71 93.35 186.78 171.91 186.56 250.48 186.34 250.49 192.26"></polygon>
            <polygon id="Path" fill="#9DADB7" points="250.51 161.16 226.48 161.23 202.44 161.3 202.43 155.38 202.41 149.46 226.44 149.39 250.48 149.32 250.49 155.24"></polygon>
            <polygon id="Path" fill="#9DADB7" points="250.51 134.31 226.48 134.38 202.44 134.45 202.43 128.53 202.41 122.61 226.44 122.54 250.48 122.47 250.49 128.39"></polygon>
            <polygon id="Path" fill="#0099DA" points="228.59 35.82 181.47 35.96 134.35 36.09 134.34 28.7 134.33 21.32 181.45 21.18 228.56 21.05 228.58 28.44"></polygon>
            <polygon id="Path" fill="#9DADB7" points="184.18 161.25 138.78 161.38 93.38 161.51 93.35 122.58 93.32 83.65 138.72 83.52 184.12 83.39 184.15 122.32"></polygon>
            <polygon id="Path" fill="#023852" points="149.46 141.68 145.49 145.67 141.51 149.66 134.17 142.35 126.82 135.05 113.64 148.28 100.46 161.51 135.57 161.43 170.68 161.34 160.07 151.51"></polygon>
            <path d="M148.119963,114.34 C148.134417,118.76162 151.269669,122.55756 155.608937,123.407076 C159.948206,124.256591 164.283426,121.923173 165.964147,117.833417 C167.644869,113.743661 166.203174,109.036168 162.520481,106.588987 C158.837787,104.141805 153.939369,104.636238 150.82,107.77 C149.084305,109.515263 148.113074,111.878592 148.119963,114.34 Z" id="Path" fill="#023852"></path>
            <rect id="Rectangle" fill="#0099DA" transform="translate(104.535621, 29.123076) rotate(45.000000) translate(-104.535621, -29.123076) " x="94.9206207" y="19.5080756" width="19.23" height="19.23"></rect>
        </g>
    </g>
</svg>