<svg width="170" height="110" viewBox="0 0 170 110" xmlns="http://www.w3.org/2000/svg">
<defs>
<style>
.icon-blink {
  animation: blink-animation 1s steps(5, start) infinite;
  -webkit-animation: blink-animation 1s steps(5, start) infinite;
}

.icon-blink2 {
  animation: blink-animation 1s steps(5, start) infinite;
  -webkit-animation: blink-animation 1s steps(5, start) infinite;
  animation-delay: 500ms;
}

.icon-blink3 {
  animation: blink-animation 1s steps(5, start) infinite;
  -webkit-animation: blink-animation 1s steps(5, start) infinite;
  animation-delay: 350ms;
}

.icon-blink4 {
  animation: blink-animation 1s steps(5, start) infinite;
  -webkit-animation: blink-animation 1s steps(5, start) infinite;
  animation-delay: 450ms;
}

.icon-blink5 {
  animation: blink-animation 1s steps(5, start) infinite;
  -webkit-animation: blink-animation 1s steps(5, start) infinite;
  animation-delay: 500ms;
}

#camara-numer {
  stroke-dasharray: 5;
  stroke-dashoffset: 2;
  animation: dash 2s linear forwards;
  -webkit-animation: dash 2s linear forwards;
}

.test-stroke {
  fill: none;
  stroke: #000;
  stroke-width: 2;
  stroke-miterlimit: 5;
}

.scale-height {
  animation-duration: 3000ms;
  animation-iteration-count: infinite;
  transform-origin: 50% 86%;
  animation-name: scale-height;
}

.animate-line {
  stroke-dasharray: 241;
  stroke-dashoffset: 0;
  -webkit-animation: dash 3s linear forwards;
  -o-animation: dash 3s linear forwards;
  -moz-animation: dash 3s linear forwards;
  animation: dash 3s linear forwards;
}

.animate-line-long {
  stroke-dasharray: 350;
  stroke-dashoffset: 0;
  -webkit-animation: dash-long 4s linear forwards;
  -o-animation: dash-long 4s linear forwards;
  -moz-animation: dash-long 4s linear forwards;
  animation: dash-long 4s linear forwards;
}

.number3-dash-animate {
  stroke-dasharray: 65;
  stroke-dashoffset: 0;
  -webkit-animation: dash-number3 2s linear forwards;
  -o-animation: dash-number3 2s linear forwards;
  -moz-animation: dash-number3 2s linear forwards;
  animation: dash-number3 2s linear forwards;
}

.backup-local-animation {
  -webkit-animation: backup-local-animation 2s ease infinite;
  -o-animation: backup-local-animation 2s ease infinite;
  -moz-animation: backup-local-animation 2s ease infinite;
  animation: backup-local-animation 2s ease infinite;
}

.calender {
  -webkit-animation: calender 500ms ease forwards;
  -o-animation: calender 500ms ease forwards;
  -moz-animation: calender 500ms ease forwards;
  animation: calender 500ms ease forwards;
}

.calender-blue-month {
  -webkit-animation: calender-blue 500ms ease forwards;
  -o-animation: calender-blue 500ms ease forwards;
  -moz-animation: calender-blue 500ms ease forwards;
  animation: calender-blue 500ms ease forwards;
  fill: #cad3d6;
  animation-delay: 1200ms;
}

.calender-blue-week {
  -webkit-animation: calender-blue 500ms ease forwards;
  -o-animation: calender-blue 500ms ease forwards;
  -moz-animation: calender-blue 500ms ease forwards;
  animation: calender-blue 500ms ease forwards;
  fill: #cad3d6;
  animation-delay: 400ms;
}

.calender:nth-of-type(2) {
  animation-delay: 50ms;
}

.calender:nth-of-type(3) {
  animation-delay: 100ms;
}

.calender:nth-of-type(18) {
  animation-delay: 150ms;
}

.calender:nth-of-type(5) {
  animation-delay: 200ms;
}

.calender:nth-of-type(6) {
  animation-delay: 250ms;
}

.calender:nth-of-type(7) {
  animation-delay: 300ms;
}

.calender:nth-of-type(8) {
  animation-delay: 350ms;
}

.calender:nth-of-type(9) {
  animation-delay: 400ms;
}

.calender:nth-of-type(10) {
  animation-delay: 450ms;
}

.calender:nth-of-type(11) {
  animation-delay: 500ms;
}

.calender:nth-of-type(14) {
  animation-delay: 550ms;
}

.calender:nth-of-type(13) {
  animation-delay: 600ms;
}

.calender:nth-of-type(12) {
  animation-delay: 650ms;
}

.calender:nth-of-type(15) {
  animation-delay: 700ms;
}

.calender:nth-of-type(16) {
  animation-delay: 750ms;
}

.calender:nth-of-type(17) {
  animation-delay: 800ms;
}

.calender:nth-of-type(4) {
  animation-delay: 850ms;
}

.calender:nth-of-type(19) {
  animation-delay: 900ms;
}

.calender:nth-of-type(20) {
  animation-delay: 950ms;
}

.calender:nth-of-type(21) {
  animation-delay: 1000ms;
}

.calender:nth-of-type(25) {
  animation-delay: 1050ms;
}

.calender:nth-of-type(23) {
  animation-delay: 1100ms;
}

.calender:nth-of-type(24) {
  animation-delay: 11500ms;
}

.calender:nth-of-type(22) {
  animation-delay: 1200ms;
}

.calender:nth-of-type(26) {
  animation-delay: 1250ms;
}

.calender:nth-of-type(27) {
  animation-delay: 1300ms;
}

.calender:nth-of-type(28) {
  animation-delay: 1350ms;
}

.calender:nth-of-type(29) {
  animation-delay: 1400ms;
}

.animate-line-check-marks-month {
  -webkit-animation: animate-line-check-marks 1s linear forwards;
  -o-animation: animate-line-check-marks 1s linear forwards;
  -moz-animation: animate-line-check-marks 1s linear forwards;
  animation: animate-line-check-marks 1s linear forwards;
  animation-delay: 1800ms;
  opacity: 0;
}

.animate-line-check-marks-week {
  -webkit-animation: animate-line-check-marks 1s linear forwards;
  -o-animation: animate-line-check-marks 1s linear forwards;
  -moz-animation: animate-line-check-marks 1s linear forwards;
  animation: animate-line-check-marks 1s linear forwards;
  animation-delay: 800ms;
  opacity: 0;
}

.camara-detect-right {
  -webkit-animation: camara-detect-right 5s linear forwards;
  -o-animation: camara-detect-right 5s linear forwards;
  -moz-animation: camara-detect-right 5s linear forwards;
  animation: camara-detect-right 5s linear forwards;
  transform-origin: center;
}

.camara-detect-left {
  -webkit-animation: camara-detect-left 5s linear forwards;
  -o-animation: camara-detect-left 5s linear forwards;
  -moz-animation: camara-detect-left 5s linear forwards;
  animation: camara-detect-left 5s linear forwards;
  transform-origin: center;
}

.cloud-1 {
  -webkit-animation: cloud-ani 30s ease infinite;
  -o-animation: cloud-ani 30s ease infinite;
  -moz-animation: cloud-ani 30s ease infinite;
  animation: cloud-ani 30s ease infinite;
}

.cloud-2 {
  -webkit-animation: cloud-ani-fast-out 13s ease infinite;
  -o-animation: cloud-ani-fast-out 13s ease infinite;
  -moz-animation: cloud-ani-fast-out 13s ease infinite;
  animation: cloud-ani-fast-out 13s ease infinite;
  animation-delay: 1000ms;
}

.cloud-3 {
  -webkit-animation: cloud-ani 12s ease infinite;
  -o-animation: cloud-ani 12s ease infinite;
  -moz-animation: cloud-ani 12s ease infinite;
  animation: cloud-ani 12s ease infinite;
  animation-delay: 500ms;
}

.camara-move {
  animation: camara-move-ani 3s linear infinite;
}

.rotate {
  transform-origin: center 11%;
  animation-name: rotate;
  animation-duration: 2000ms;
  animation-iteration-count: infinite;
  animation-timing-function: ease-in-out;
}

@keyframes scale-height {
  0% {
    transform: scaleY(0) translateY(-6%);
  }
  50% {
    transform: scaleY(1);
  }
  100% {
    transform: scaleY(0) translateY(-6%);
  }
}

@keyframes rotate {
  0% {
    transform: rotateY(0deg);
  }
  20% {
    transform: rotateY(0deg);
  }
  50% {
    transform: rotateY(90deg);
  }
  80% {
    transform: rotateY(0deg);
  }
  100% {
    transform: rotateY(0deg);
  }
}

@-webkit-keyframes dash {
  from {
    stroke-dashoffset: 241;
  }
  to {
    stroke-dashoffset: 0;
  }
}

@keyframes dash {
  from {
    stroke-dashoffset: 241;
  }
  to {
    stroke-dashoffset: 0;
  }
}

@-webkit-keyframes dash-long {
  from {
    stroke-dashoffset: 350;
  }
  to {
    stroke-dashoffset: 0;
  }
}

@keyframes dash-long {
  from {
    stroke-dashoffset: 350;
  }
  to {
    stroke-dashoffset: 0;
  }
}

@-webkit-keyframes dash-number3 {
  0% {
    stroke-dashoffset: 70;
  }
  90% {
    stroke-dashoffset: 0;
    fill: #02375200;
  }
  100% {
    fill: #023852;
  }
}

@keyframes dash-number3 {
  0% {
    stroke-dashoffset: 70;
  }
  90% {
    stroke-dashoffset: 0;
    fill: #02375200;
  }
  100% {
    fill: #023852;
  }
}

@-webkit-keyframes backup-local-animation {
  0% {
    transform: translateY(0);
  }
  50% {
    transform: translateY(-6%);
  }
  100% {
    transform: translateY(0);
  }
}

@keyframes backup-local-animation {
  0% {
    transform: translateY(0);
  }
  50% {
    transform: translateY(-6%);
  }
  100% {
    transform: translateY(0);
  }
}

@-webkit-keyframes calender {
  0% {
    opacity: 0;
  }
  100% {
    opacity: 1;
  }
}

@keyframes calender {
  0% {
    opacity: 0;
  }
  100% {
    opacity: 1;
  }
}

@keyframes calender-blue {
  0% {
    fill: #cad3d6;
  }
  100% {
    fill: #50bfee;
  }
}

@-webkit-keyframes animate-line-check-marks {
  0% {
    opacity: 0;
  }
  100% {
    opacity: 1;
  }
}

@keyframes animate-line-check-marks {
  0% {
    opacity: 0;
  }
  100% {
    opacity: 1;
  }
}

@keyframes camara-detect-right {
  0% {
    transform: translate(0, 0) scaleY(1);
  }
  10% {
    transform: translate(-80%, 0);
  }
  20% {
    transform: translate(-50%, 0);
    fill: rgb(255, 255, 255);
  }
  25% {
    transform: translate(-50%, 0) scaleY(0.5);
    fill: rgb(255, 231, 0);
  }
  26% {
    transform: translate(-50%, 0) scaleY(0.5);
    fill: rgba(255, 230, 0, 0);
  }
  27% {
    transform: translate(-50%, 0) scaleY(0.5);
    fill: rgb(255, 231, 0);
  }
  28% {
    transform: translate(-50%, 0) scaleY(0.5);
    fill: rgba(255, 230, 0, 0);
  }
  29% {
    transform: translate(-50%, 0) scaleY(0.5);
    fill: rgb(255, 231, 0);
  }
  65% {
    transform: translate(-50%, 0) scaleY(0.5);
    fill: rgb(255, 231, 0);
  }
  80% {
    transform: translate(-50%, 0) scaleY(0.5);
    fill: rgb(255, 231, 0);
  }
  100% {
    transform: translate(0, 0) scaleY(1);
    fill: rgb(255, 255, 255);
  }
}

@-webkit-keyframes camara-detect-right {
  0% {
    transform: translate(0, 0) scaleY(1);
  }
  10% {
    transform: translate(-80%, 0);
  }
  20% {
    transform: translate(-50%, 0);
    fill: rgb(255, 255, 255);
  }
  25% {
    transform: translate(-50%, 0) scaleY(0.5);
    fill: rgb(255, 231, 0);
  }
  26% {
    transform: translate(-50%, 0) scaleY(0.5);
    fill: rgba(255, 230, 0, 0);
  }
  27% {
    transform: translate(-50%, 0) scaleY(0.5);
    fill: rgb(255, 231, 0);
  }
  28% {
    transform: translate(-50%, 0) scaleY(0.5);
    fill: rgba(255, 230, 0, 0);
  }
  29% {
    transform: translate(-50%, 0) scaleY(0.5);
    fill: rgb(255, 231, 0);
  }
  65% {
    transform: translate(-50%, 0) scaleY(0.5);
    fill: rgb(255, 231, 0);
  }
  80% {
    transform: translate(-50%, 0) scaleY(0.5);
    fill: rgb(255, 231, 0);
  }
  100% {
    transform: translate(0, 0) scaleY(1);
    fill: rgb(255, 255, 255);
  }
}

@keyframes camara-detect-left {
  0% {
    transform: translate(0, 0) scaleY(1);
  }
  10% {
    transform: translate(80%, 0);
  }
  20% {
    transform: translate(13%, 0);
    fill: rgb(255, 255, 255);
  }
  25% {
    transform: translate(13%, 0) scaleY(0.5);
    fill: rgb(255, 231, 0);
  }
  26% {
    transform: translate(13%, 0) scaleY(0.5);
    fill: rgba(255, 230, 0, 0);
  }
  27% {
    transform: translate(13%, 0) scaleY(0.5);
    fill: rgb(255, 231, 0);
  }
  28% {
    transform: translate(13%, 0) scaleY(0.5);
    fill: rgba(255, 230, 0, 0);
  }
  29% {
    transform: translate(13%, 0) scaleY(0.5);
    fill: rgb(255, 231, 0);
  }
  65% {
    transform: translate(13%, 0) scaleY(0.5);
    fill: rgb(255, 231, 0);
  }
  80% {
    transform: translate(13%, 0) scaleY(0.5);
    fill: rgb(255, 231, 0);
  }
  100% {
    transform: translate(0, 0) scaleY(1);
    fill: rgb(255, 255, 255);
  }
}

@-webkit-keyframes camara-detect-left {
  0% {
    transform: translate(0, 0) scaleY(1);
  }
  10% {
    transform: translate(80%, 0);
  }
  20% {
    transform: translate(13%, 0);
    fill: rgb(255, 255, 255);
  }
  25% {
    transform: translate(13%, 0) scaleY(0.5);
    fill: rgb(255, 231, 0);
  }
  26% {
    transform: translate(13%, 0) scaleY(0.5);
    fill: rgba(255, 230, 0, 0);
  }
  27% {
    transform: translate(13%, 0) scaleY(0.5);
    fill: rgb(255, 231, 0);
  }
  28% {
    transform: translate(13%, 0) scaleY(0.5);
    fill: rgba(255, 230, 0, 0);
  }
  29% {
    transform: translate(13%, 0) scaleY(0.5);
    fill: rgb(255, 231, 0);
  }
  65% {
    transform: translate(13%, 0) scaleY(0.5);
    fill: rgb(255, 231, 0);
  }
  80% {
    transform: translate(13%, 0) scaleY(0.5);
    fill: rgb(255, 231, 0);
  }
  100% {
    transform: translate(0, 0) scaleY(1);
    fill: rgb(255, 255, 255);
  }
}

@keyframes cloud-ani {
  0% {
    transform: translate(0%, 0%);
  }
  95% {
    transform: translate(-50%, -1%);
    opacity: 0;
  }
  99% {
    opacity: 0;
    transform: translate(5%, 0%);
  }
  100% {
    transform: translate(0%, 0%);
    opacity: 1;
  }
}

@keyframes cloud-ani-fast-out {
  0% {
    transform: translate(0%, 0%);
  }
  55% {
    transform: translate(-20%, -1%);
    opacity: 0;
  }
  95% {
    transform: translate(-50%, -1%);
    opacity: 0;
  }
  99% {
    opacity: 0;
    transform: translate(5%, 0%);
  }
  100% {
    transform: translate(0%, 0%);
    opacity: 1;
  }
}

@keyframes camara-move-ani {
  0% {
    transform: translate(0, 0);
  }
  10% {
    transform: translate(-3%, 7%) rotate(-5deg);
  }
  30% {
    transform: translate(0, 0);
  }
  90% {
    transform: translate(-3%, 7%) rotate(-5deg);
  }
  100% {
    transform: translate(0, 0);
  }
}

@keyframes blink-animation {
  to {
    visibility: hidden;
  }
}

@-webkit-keyframes blink-animation {
  to {
    visibility: hidden;
  }
}

</style>
</defs>
<g fill="none" fill-rule="evenodd"><path d="M151.121942 103.335681h-10.936927V32.277849c-.019448-2.5218316-2.051029-4.5613791-4.563009-4.5809038H17.0909786c-2.5173638.0065728-4.5564625 2.053668-4.5630097 4.5809038v71.057832H1.60295617c-.40973629.005853-.78772157.222692-1.00076453.574108-.22538985.421593-.280836.914002-.15488022 1.375467l.262105 1.112335.25019112 1.112334c.13036649.525368.40727147 1.002517.79822885 1.375467.33803993.352317.79968359.558297 1.28669725.574108H149.704192c.478092-.024301.929292-.229419 1.26287-.574108.391479-.370612.665054-.849165.786315-1.375467l.262105-1.112334.262105-1.112335c.119977-.461913.064781-.952098-.154881-1.375467-.213043-.351416-.591028-.568255-1.000764-.574108z" fill="#D1D3D4" fill-rule="nonzero"/><path d="M135.622006 27.6969452H17.0909786c-2.5173638.0065728-4.5564625 2.053668-4.5630097 4.5809038v71.057832H140.185015V32.277849c-.019448-2.5218316-2.051029-4.5613791-4.563009-4.5809038z" fill="#023852" fill-rule="nonzero"/><path fill="#0099DA" fill-rule="nonzero" d="M17.1267202 98.7547773V32.277849H135.622006v66.4769283H46.7445846z"/><path d="M151.717635 107.509925c-.121261.526302-.394835 1.004855-.786315 1.375467-.333578.344689-.784777.549807-1.262869.574108H3.04453364c-.47866539-.021915-.9306998-.227412-1.26286952-.574108-.39095739-.37295-.66786237-.850099-.79822885-1.375467l-.25019113-1.112334-.262105-1.112335c-.12595577-.461465-.07050962-.953874.15488023-1.375467.20850546-.344381.57574378-.560192.9769368-.574108H151.121942c.409736.005853.787721.222692 1.000764.574108.219662.423369.274858.913554.154881 1.375467l-.262105 1.112335-.297847 1.112334z" fill="#96A6AE" fill-rule="nonzero"/><path d="M23.0479103 35.8421032c-.0064723.7569418-.6161093 1.3689695-1.3700943 1.3754672-.3664724-.0001547-.7178787-.1464312-.9769368-.4066599-.2596501-.2548727-.4057262-.6042423-.4050735-.9688073 0-.7662552.6187483-1.38743 1.3820103-1.38743.363141-.0006553.7111458.1459937.9650229.406662.2592122.260074.4049173.6128585.4050714.980768zm3.9673165 0c.0006549.364565-.1454212.7139346-.4050713.9688073-.2571175.2592897-.6065402.4050554-.9709799.4050554-.3644397 0-.7138624-.1457657-.9709799-.4050554-.2596501-.2548727-.4057262-.6042423-.4050713-.9688073-.0486412-.524234.2024799-1.0309382.6483292-1.3081783.4458493-.2772401 1.0095947-.2772401 1.455444 0 .4458493.2772401.6969704.7839443.6483292 1.3081783zm3.9673187 0c.0006527.364565-.1454234.7139346-.4050735.9688073-.2590581.2602287-.6104645.4065052-.9769368.4066599-.753985-.0064977-1.363622-.6185254-1.3700943-1.3754672.0001541-.3679095.1458592-.720694.4050713-.980768.2538772-.2606683.601882-.4073173.965023-.406662.763262 0 1.3820103.6211748 1.3820103 1.38743z" fill="#FFF" fill-rule="nonzero"/><path fill="#66C3E9" fill-rule="nonzero" d="M93.0061162 69.3078184h-64.108499V45.6019401h64.108499v11.8529391zM59.9213175 93.0017362H28.8976172V75.623007h31.0237003v8.6833843zm63.9297915 0H64.2341361V75.623007h59.6169729v8.6833843zm0-47.3997961H96.949605v23.7058783h26.901504V57.4548792z"/><path d="M98.3077854 106.983659h-43.866845c-.7551846 0-1.4794422-.301155-2.0134429-.837241-.5325071-.541964-.8319524-1.272041-.8339705-2.033299v-.849201h49.561672v.849201c-.002018.761258-.301464 1.491335-.833971 2.033299-.5340005.536086-1.258258.837241-2.0134426.837241z" fill="#BAC4C9" fill-rule="nonzero"/><path d="M135.633919 3.01029889c-.006303-.65123162-.309169-1.26374526-.822056-1.66252124-.5572-.47035945-1.261616-.7286701-1.989615-.72959565h-15.488023c-.734659.0034761-1.437714.30043373-1.953873.82528033-.528229.52921074-.82415 1.24823249-.822068 1.9974176V43.7958918c-.002082.7491851.293839 1.4682069.822068 1.9974176.524857.533725 1.242568.8314272 1.989615.8253737h44.081294c.745702 0 1.460862-.2974839 1.988153-.8268424.52729-.5293586.82353-1.2473228.82353-1.9959489V8.14138961c.002082-.7491851-.293838-1.46820686-.822067-1.9974176-.530076-.5258789-1.244389-.82217138-1.989616-.82528033h-23.00567c-.721309.00760643-1.423463-.23299074-1.989615-.68175331-.495476-.39732358-.795291-.99058137-.822057-1.62663948z" fill="#FFE700" fill-rule="nonzero"/><path class="backup-local-animation" fill="#FFF" fill-rule="nonzero" d="M159.354422 31.1894358h-39.935271V7.67492682h39.935271V19.4321813z"/><path d="M132.655454 13.2485592l-1.715597 2.0213387-1.703682 2.0093782c-.661316.7250634-1.475314 1.2930106-2.382773 1.6625213-.922752.4185928-1.918713.6502693-2.93081.6817533h-10.543769c-.822854-.0246263-1.619684.2910314-2.204065.8731226-.530702.5519379-.765532 1.3259137-.631435 2.0811417l1.858563 10.9319742 1.822821 10.9319742c.135358.6417921.527323 1.1996126 1.084162 1.5429154.620001.4172153 1.35045.6380427 2.096839.6339679h44.081295c.746178.0026131 1.47621-.2180883 2.09684-.6339679.556839-.3433028.948803-.9011233 1.084162-1.5429154l2.537652-15.225824 2.537653-15.2377846c.151657-.8205217-.0862-1.6651307-.643348-2.2844716-.592138-.6396997-1.429843-.9926542-2.299376-.9688074h-28.581358c-1.067981.0347859-2.117785.2870756-3.085691.7415563-.941697.412438-1.786116 1.0197064-2.478083 1.7821271z" fill="#FFE700" fill-rule="nonzero"/><path fill="#023852" fill-rule="nonzero" d="M134.55151629 35.93699144l15.87994493-15.94221912 2.51046292 2.52030866-15.87994416 15.9422185z"/><path fill="#023852" fill-rule="nonzero" d="M137.07629027 19.99609382l15.87994487 15.9422192-2.51046362 2.52030796-15.87994416-15.9422185z"/></g></svg>