<?xml version="1.0" encoding="UTF-8"?>
<svg width="440px" height="330px" viewBox="0 0 440 330" version="1.1" xmlns="http://www.w3.org/2000/svg" xmlns:xlink="http://www.w3.org/1999/xlink">
    <!-- Generator: Sketch 63.1 (92452) - https://sketch.com -->
    <title>Graphic elements / Icons / Rich icons / Okay</title>
    <desc>Created with Sketch.</desc>
    <defs>
        <linearGradient x1="-4.73892612e-13%" y1="49.9893685%" x2="100%" y2="49.9893685%" id="linearGradient-1">
            <stop stop-color="#FFFFFF" offset="23%"></stop>
            <stop stop-color="#FCFCFC" offset="46%"></stop>
            <stop stop-color="#F1F3F4" offset="67%"></stop>
            <stop stop-color="#DFE3E6" offset="86%"></stop>
            <stop stop-color="#CDD3D8" offset="100%"></stop>
        </linearGradient>
    </defs>
    <g id="Graphic-elements-/-Icons-/-Rich-icons-/-Okay" stroke="none" stroke-width="1" fill="none" fill-rule="evenodd">
        <g id="Good" transform="translate(124.000000, 0.000000)" fill-rule="nonzero">
            <path d="M182.41,282.36 L182.41,61.53 C182.412798,59.015579 181.805421,56.5380292 180.64,54.31 L180.64,54.31 L180.58,54.21 C180.553382,54.179091 180.529931,54.1455899 180.51,54.11 C180.37,53.84 180.22,53.59 180.07,53.33 C179.92,53.07 179.75,52.83 179.58,52.59 L179.48,52.45 L179.38,52.31 C179.2,52.07 179.02,51.84 178.83,51.61 C178.64,51.38 178.45,51.16 178.25,50.94 L178.19,50.87 L178.13,50.8 C176.684109,49.2391571 174.939663,47.9843796 173,47.11 C170.99138,46.2049727 168.813094,45.7379538 166.61,45.74 L166.61,45.74 C158.497025,45.7712507 151.719195,51.9274207 150.91,60 C150.91,60.27 150.91,60.54 150.84,60.81 C150.77,61.08 150.84,61.37 150.84,61.65 L150.84,88.85 L144.78,69.52 L138.71,50.18 L134.47,36.18 L130.2,22.28 C130.062597,21.8255584 129.902394,21.3783253 129.72,20.94 C129.54,20.51 129.34,20.09 129.13,19.68 L129,19.2 L128.85,18.72 C128.096866,16.332885 126.775734,14.1641706 125,12.4 L125.07,12.4 C124.676958,12.0104315 124.259442,11.6463575 123.82,11.31 C123.387369,10.9538351 122.936779,10.6200644 122.47,10.31 L122.47,10.31 L121.84,9.93 C121.63,9.8 121.42,9.69 121.2,9.57 L121.2,9.57 L121.15,9.57 C120.79,9.39 120.43,9.22 120.06,9.07 C119.69,8.92 119.31,8.78 118.93,8.65 L118.63,8.54 L118.32,8.45 L117.85,8.32 L117.38,8.22 L116.87,8.11 L116.27,8 L115.91,8 L115.55,8 C115.24,8 114.94,7.94 114.63,7.92 C114.32,7.9 114.01,7.92 113.7,7.92 L113.43,7.92 L112.51,7.98 C112.2,7.98 111.89,8.04 111.58,8.09 L111.48,8.09 L111.38,8.09 C111.02,8.15 110.66,8.22 110.3,8.3 C109.94,8.38 109.59,8.47 109.23,8.58 C101.065376,11.1937155 96.5101146,19.8767649 99,28.08 L99.37,29.27 L99.74,30.45 L99.86,30.96 C99.86,31.13 99.94,31.3 99.99,31.47 L108.99,60.89 L117.93,90.32 L116,87.53 L114.09,84.75 L103.9,69.75 L93.71,54.75 L80.93,36 L68.19,17.34 L67.89,16.89 L67.58,16.45 C67.2477499,15.9389038 66.8766539,15.4541388 66.47,15 C66.0795459,14.5612439 65.6656059,14.1439656 65.23,13.75 C64.3244059,12.6806303 63.2782438,11.738748 62.12,10.95 C60.9870042,10.1831378 59.7603298,9.56475946 58.47,9.11 L58.47,9.11 L58.47,9.11 L58.12,9.01 L57.77,8.91 L57.46,8.82 L57.16,8.74 L56.8,8.65 L56.44,8.57 C54.3609423,8.11673957 52.212357,8.08274296 50.12,8.47 C47.968364,8.87291446 45.9246787,9.72104389 44.12,10.96 L44.12,10.96 C36.9286552,15.9296268 35.0895133,25.7681434 40,33 L73.18,81.33 L106.36,129.65 L99.71,126.31 L93.1,123 L88.94,120.86 L84.78,118.73 L83.33,118.16 L81.88,117.6 C69.916397,113.331061 56.8903413,113.060854 44.76,116.83 C32.7935995,120.484201 22.2289023,127.706434 14.48,137.53 C12.3311597,140.259874 11.0276501,143.558623 10.73,147.02 C10.4193445,150.343949 11.2175103,153.677258 13,156.5 C14.7460954,159.361567 17.2760635,161.662484 20.29,163.13 C23.2792084,164.471816 26.6517479,164.691919 29.79,163.75 C31.9484301,163.104478 33.9785244,162.089431 35.79,160.75 C37.6700999,159.381326 39.4450632,157.873777 41.1,156.24 C46.5157055,150.919502 53.5563183,147.56465 61.1,146.71 C68.5341179,145.902695 76.0116907,147.78273 82.18,152.01 C88.4265488,156.260017 92.9678721,162.583155 95,169.86 C98.9032146,183.945146 92.7667705,198.88498 80.09,206.16 C74.2351589,209.46803 67.5023479,210.889324 60.81,210.23 C54.1273898,209.613562 47.8484843,206.759515 42.99,202.13 C37.835887,197.161303 34.2484623,190.792929 32.67,183.81 C31.6934708,179.370879 29.1961482,175.412659 25.61,172.62 C22.3222165,170.095601 18.1055357,169.111587 14.04,169.92 C9.5909334,170.695578 5.66439817,173.285498 3.2,177.07 C0.821004,181.095699 0.0630480829,185.875826 1.08,190.44 C2.51564429,198.305226 5.45610602,205.819362 9.74,212.57 C14.0483052,219.223667 19.4591069,225.094387 25.74,229.93 L26.74,230.75 C27.09,231.03 27.45,231.29 27.81,231.56 C38.43,239.386667 49,247.28 59.52,255.24 C70.04,263.2 80.5433333,271.183333 91.03,279.19 C91.5278717,279.583943 91.9687337,280.044997 92.34,280.56 C92.756279,281.109947 93.1116901,281.703416 93.4,282.33 L91.25,282.33 L91.25,282.33 L91,282.33 L91,329.41 L185.15,329.41 L185.15,282.36 L182.37,282.36 L182.41,282.36 Z" id="Path" fill="#023852" opacity="0.3" style="mix-blend-mode: multiply;"></path>
            <path d="M172.8,39.25 L172.8,39.25 C164.083024,39.2719849 157.021985,46.3330236 157,55.05 L157.09,67.05 L157.17,79.05 L157.17,81.65 L157.17,84.25 L152.05,67.44 L147,50.63 L141.7,33.21 L136.4,15.79 C135.719797,13.5889071 134.558406,11.5667199 133,9.87 C131.519704,8.22765803 129.715084,6.90994503 127.7,6 C126.967774,5.44305099 126.199422,4.93527034 125.4,4.48 C124.560228,3.9971735 123.688159,3.57283355 122.79,3.21 L117.18,3.21 C112,5.61 108.63,8 106.77,11 C104.91,14 104.59,17.46 105.57,22 C105.618093,22.4967565 105.691522,22.9907331 105.79,23.48 C105.888549,23.9792008 106.012037,24.4731528 106.16,24.96 L115.16,54.45 L124.16,83.93 L112,66.0899994 L99.84,48.22 L87.1,29.53 L74.37,10.85 L74.06,10.4 L73.76,9.96 C72.8422478,8.61606145 71.7223729,7.42197795 70.44,6.42 C69.1884145,5.45864217 67.8040016,4.68390992 66.33,4.12 L65.8,3.67 L65.27,3.21 L62.58,3.21 C61.9464885,3.12989354 61.3085561,3.08999936 60.67,3.08999936 C60.0281303,3.08999936 59.3868908,3.13020713 58.75,3.21 L58.25,3.21 L58.15,3.21 L58.05,3.26 C56.9529392,3.44861645 55.8775587,3.7467749 54.84,4.15 C53.7858419,4.57898804 52.7802062,5.11867917 51.84,5.76 C44.6558558,10.6859158 42.8013008,20.4904789 47.69,27.7 L47.69,27.7 L80.34,75.6 L113,123.54 L102,117.9 L91,112.25 L89.56,111.68 C89.07,111.49 88.56,111.3 88.1,111.13 C76.1374841,106.857792 63.1114206,106.584076 50.98,110.35 C39.0183579,114.008345 28.4580142,121.229987 20.71,131.05 C18.562652,133.781634 17.2562497,137.07891 16.95,140.54 C16.6399876,143.862077 17.441954,147.193052 19.23,150.01 C20.9734678,152.873736 23.5041529,155.175306 26.52,156.64 C29.5093001,157.979849 32.8799492,158.203376 36.02,157.27 C38.1765838,156.619824 40.2059091,155.605162 42.02,154.27 C43.8969084,152.90125 45.6685416,151.393691 47.32,149.76 C52.7357055,144.439502 59.7763183,141.08465 67.32,140.23 C74.7505563,139.428715 82.2229291,141.308334 88.39,145.53 C97.4872293,151.74298 102.749015,162.198514 102.318286,173.206474 C101.887558,184.214434 95.824885,194.226855 86.27,199.71 C80.41546,203.00708 73.6851533,204.414612 67,203.74 C60.3206705,203.118673 54.0443107,200.269304 49.18,195.65 C44.0304814,190.679297 40.446772,184.311348 38.87,177.33 C37.8924445,172.888806 35.3911455,168.92989 31.8,166.14 C28.5150875,163.609541 24.2956436,162.624882 20.23,163.44 C15.7832307,164.214722 11.8594958,166.805184 9.4,170.589999 C6.99025992,174.61881 6.21718839,179.418296 7.24,184 C8.74705937,192.279085 11.9213269,200.165421 16.57,207.18 C21.3035095,214.138842 27.223625,220.211276 34.06,225.12 C44.68,232.953333 55.25,240.846667 65.77,248.8 C76.29,256.753333 86.7933333,264.753333 97.28,272.8 C98.0673016,273.44001 98.7256703,274.223944 99.22,275.11 C99.7546476,276.020697 100.133204,277.014407 100.34,278.05 L100.34,296.55 L188.59,296.55 L188.59,55.05 C188.568041,46.3369135 181.513071,39.2774758 172.8,39.25 L172.8,39.25 Z" id="Path" fill="#0099DA"></path>
            <path d="M168.87,141.33 L168.87,63.49 C168.897448,54.7587272 175.968727,47.6874484 184.7,47.66 C185.06,47.66 185.42,47.66 185.78,47.71 C186.14,47.76 186.49,47.78 186.84,47.83 C185.516452,45.303547 183.541625,43.1768103 181.12,41.67 C176.236897,38.6758111 170.117719,38.5511579 165.11673,41.3439991 C160.11574,44.1368403 157.012142,49.4120239 157,55.14 L157,82.4" id="Path" fill="#66C2E9" style="mix-blend-mode: multiply;"></path>
            <path d="M164.16,164.33 L166.16,163.71 L168.16,163.1 C175.288463,160.835578 179.257156,153.246401 177.05,146.1 L155.76,78.2 L134.39,10.28 C132.125298,3.15130695 124.538786,-0.820455494 117.39,1.38 L115.39,2 L113.39,2.61 C106.261537,4.87442211 102.292844,12.4635985 104.5,19.61 L125.79,87.5 L147.08,155.4 C149.344702,162.528693 156.931214,166.500455 164.08,164.3 L164.16,164.33 Z" id="Path" fill="#33ADE1"></path>
            <path d="M147.55,119.53 L132.9,72.8 L118.24,26.08 C115.686802,17.8427408 120.260222,9.08892883 128.48,6.48 C128.94,6.34 129.39,6.22 129.85,6.12 C130.31,6.02 130.77,5.95 131.23,5.9 C129.232642,3.90372172 126.735593,2.48078365 124,1.78 C121.195422,1.05413868 118.24338,1.13036514 115.48,2 L115.48,2 C107.256422,4.60440036 102.680914,13.3622078 105.24,21.6 L118.36,64.89 L131.48,108.18 C134.14,109.7 136.98,111.56 139.74,113.53 C142.5,115.5 145.18,117.57 147.55,119.53 Z" id="Path" fill="#66C2E9" style="mix-blend-mode: multiply;"></path>
            <path d="M146,147.5 L147.72,146.32 L149.44,145.14 C155.671741,140.813911 157.259507,132.277439 153,126 L112.09,66.42 L71.21,6.87 C66.8834369,0.58984218 58.2896443,-1.0027607 52,3.31 L50.29,4.48 L48.6,5.66 C42.3298334,9.97556261 40.7214829,18.5444967 45,24.84 L85.89,84.39 L126.78,143.94 C128.854613,146.963373 132.04642,149.037584 135.651812,149.705388 C139.257203,150.373192 142.980165,149.579761 146,147.5 L146,147.5 Z" id="Path" fill="#33ADE1"></path>
            <path d="M138.35,141.65 L98.68,83.5 L59,25.36 C54.1589176,18.2193749 55.9954669,8.50934672 63.11,3.63 L63.3,3.5 L63.5,3.36 L64.09,2.98 L64.69,2.64 C62.4154665,1.84981602 59.9919177,1.58319148 57.6,1.86 C55.1314952,2.15643688 52.7711774,3.04498675 50.72,4.45 L50.52,4.58 L50.33,4.71 C43.2154669,9.58934672 41.3789176,19.2993749 46.22,26.44 L86.07,84.54 L125.91,142.64 C128.072267,145.85295 131.351016,148.148074 135.11,149.08 C138.836633,149.988896 142.769494,149.445446 146.11,147.56 C144.567123,147.027543 143.116451,146.258349 141.81,145.28 C140.465475,144.267851 139.296546,143.041489 138.35,141.65 L138.35,141.65 Z" id="Path" fill="#66C2E9" style="mix-blend-mode: multiply;"></path>
            <polygon id="Path" fill="#33ADE1" points="92.17 112.95 123.78 128.84 155.39 144.73 153.45 150.19 151.52 155.66 134.71 156.25 117.89 156.83 105.03 134.89"></polygon>
            <g id="Group" opacity="0.2" style="mix-blend-mode: multiply;" transform="translate(30.000000, 217.000000)">
                <path d="M67.28,55.71 C68.0673016,56.3500102 68.7256703,57.1339441 69.22,58.02 C69.7546476,58.9306971 70.1332038,59.9244071 70.34,60.96 L70.34,79.46 L158.59,79.46 L158.59,0.77 C147.96,39.07 112.59,42.46 77.78,35.1 C42.97,27.74 8.62,9.63 0,4.89 C0.65,5.43 1.31,5.97 2,6.5 C2.69,7.03 3.36,7.56 4.06,8.07 C14.68,15.9033333 25.25,23.7966667 35.77,31.75 C46.29,39.7033333 56.7933333,47.69 67.28,55.71 Z" id="Path" fill="#023852"></path>
                <path d="M67.28,55.71 C68.0673016,56.3500102 68.7256703,57.1339441 69.22,58.02 C69.7546476,58.9306971 70.1332038,59.9244071 70.34,60.96 L70.34,79.46 L158.59,79.46 L158.59,0.77 C147.96,39.07 112.59,42.46 77.78,35.1 C42.97,27.74 8.62,9.63 0,4.89 C0.65,5.43 1.31,5.97 2,6.5 C2.69,7.03 3.36,7.56 4.06,8.07 C14.68,15.9033333 25.25,23.7966667 35.77,31.75 C46.29,39.7033333 56.7933333,47.69 67.28,55.71 Z" id="Path" fill="#66C2E9" style="mix-blend-mode: multiply;"></path>
            </g>
            <polygon id="Path" fill="#FFFFFF" points="97.21 322.95 144.29 322.95 191.37 322.95 191.37 299.41 191.37 275.87 144.29 275.87 97.21 275.87 97.21 299.41"></polygon>
            <polygon id="Path" fill="url(#linearGradient-1)" style="mix-blend-mode: multiply;" points="121.48 275.85 121.48 299.36 121.48 322.88 109.49 322.88 97.49 322.88 97.49 299.36 97.49 275.85 109.49 275.85"></polygon>
            <path d="M118.25,294.169974 C115.453217,294.161737 113.0404,296.131023 112.488088,298.87274 C111.935776,301.614458 113.397928,304.364346 115.97977,305.439593 C118.561612,306.514839 121.543449,305.615716 123.100526,303.292448 C124.657603,300.96918 124.355881,297.869383 122.38,295.89 C121.286851,294.790246 119.800623,294.171285 118.25,294.169974 Z" id="Path" fill="#023852"></path>
        </g>
    </g>
</svg>