<?xml version="1.0" encoding="UTF-8"?>
<svg width="440px" height="330px" viewBox="0 0 440 330" version="1.1" xmlns="http://www.w3.org/2000/svg" xmlns:xlink="http://www.w3.org/1999/xlink">
    <title>Graphic elements / Icons / Rich icons / Open Platform Community</title>
    <g id="Graphic-elements-/-Icons-/-Rich-icons-/-Open-Platform-Community" stroke="none" stroke-width="1" fill="none" fill-rule="evenodd">
        <g id="Asset-2" transform="translate(50.000000, 0.000000)">
            <path d="M199.311715,200.209205 L199.311715,200.209205 L235.073222,249.308787 C235.073222,249.308787 235.073222,249.308787 235.073222,249.308787 L199.311715,200.209205 Z" id="Path" fill="#023852" fill-rule="nonzero"></path>
            <path d="M22.5062762,114.823431 C22.4215064,115.003001 22.3197899,115.17407 22.2025105,115.33431 L129.901255,150.322594 C129.901255,150.143096 130.011715,149.963598 130.080753,149.7841 L22.5062762,114.823431 Z" id="Path" fill="#0099DA" fill-rule="nonzero"></path>
            <path d="M173.298326,118.523849 L173.298326,5.37112971 C173.192576,5.37786228 173.086504,5.37786228 172.980753,5.37112971 L172.71841,5.37112971 L172.71841,118.523849 L173.298326,118.523849 L173.298326,118.523849 Z" id="Path" fill="#0099DA" fill-rule="nonzero"></path>
            <path d="M189.812134,6.42050209 C189.620366,6.42112031 189.429574,6.3931995 189.246025,6.3376569 L177.440586,118.74477 L178.006695,118.74477 L189.812134,6.42050209 Z" id="Path" fill="#0099DA" fill-rule="nonzero"></path>
            <path d="M206.187866,8.87824268 C205.995327,8.85679215 205.805579,8.81514021 205.621757,8.7539749 L182.148954,119.435146 L182.701255,119.573222 L206.187866,8.87824268 Z" id="Path" fill="#0099DA" fill-rule="nonzero"></path>
            <polygon id="Path" fill="#0099DA" fill-rule="nonzero" points="204.641423 67.1460251 204.102929 66.9527197 186.664017 120.636402 187.216318 120.8159"></polygon>
            <path d="M237.586192,19.3305439 C237.400221,19.2734493 237.223493,19.1897362 237.061506,19.0820084 L191.082427,122.362343 L191.607113,122.597071 L237.586192,19.3305439 Z" id="Path" fill="#0099DA" fill-rule="nonzero"></path>
            <path d="M225.974059,72.4619247 C225.79806,72.3807143 225.635176,72.2736761 225.490795,72.1443515 L195.293724,124.433473 L195.790795,124.723431 L225.974059,72.4619247 Z" id="Path" fill="#0099DA" fill-rule="nonzero"></path>
            <path d="M248.72887,59.841841 C248.566941,59.7393016 248.410259,59.6287023 248.259414,59.5104603 L199.256485,127.029289 L199.725941,127.374477 L248.72887,59.841841 Z" id="Path" fill="#0099DA" fill-rule="nonzero"></path>
            <path d="M278.912134,45.5648536 C279.01177,45.731499 279.132425,45.8846381 279.27113,46.0205021 L279.27113,46.0205021 L264.082845,62.907113 C263.987432,62.7497545 263.866049,62.6096975 263.723849,62.492887 L263.723849,62.492887 Z M203.398745,130.315481 L202.970711,129.92887 L261.058996,65.3924686 L261.058996,65.3924686 L263.641004,62.5343096 C263.80933,62.6312459 263.958965,62.7575007 264.082845,62.907113 L264.082845,62.907113 L261.473222,65.8066946 L261.473222,65.8066946 L203.398745,130.315481 Z" id="Combined-Shape" fill="#0099DA" fill-rule="nonzero"></path>
            <polygon id="Path" fill="#0099DA" fill-rule="nonzero" points="292.871548 56.0861925 292.484937 55.658159 206.312134 133.242678 206.684937 133.684519"></polygon>
            <path d="M301.280335,70.7774059 C301.149819,70.6378732 301.034137,70.4851724 300.935146,70.3217573 L209.294561,136.901674 L209.625941,137.37113 L301.280335,70.7774059 Z" id="Path" fill="#0099DA" fill-rule="nonzero"></path>
            <path d="M281.369874,101.526778 C281.273222,101.361088 281.162762,101.209205 281.079916,101.029707 L211.904184,140.83682 L212.194142,141.333891 L281.369874,101.526778 Z" id="Path" fill="#0099DA" fill-rule="nonzero"></path>
            <path d="M315.239749,100.615481 C315.150095,100.445918 315.071683,100.270645 315.005021,100.090795 L214.016736,144.979079 L214.251464,145.503766 L315.239749,100.615481 Z" id="Path" fill="#0099DA" fill-rule="nonzero"></path>
            <path d="M323.607113,114.989121 C323.5356,114.811412 323.484642,114.626108 323.45523,114.43682 L215.756485,149.425105 C215.756485,149.604603 215.880753,149.7841 215.935983,149.963598 L323.607113,114.989121 Z" id="Path" fill="#0099DA" fill-rule="nonzero"></path>
            <path d="M275.377406,142.217573 C275.33533,142.031271 275.307634,141.842011 275.294561,141.651464 L217.012971,154.078243 C217.012971,154.271548 217.109623,154.451046 217.151046,154.644351 L275.377406,142.217573 Z" id="Path" fill="#0099DA" fill-rule="nonzero"></path>
            <path d="M327.92887,147.630126 C327.92887,147.43682 327.92887,147.243515 327.859833,147.050209 L217.772385,158.620921 C217.772385,158.814226 217.772385,159.007531 217.841423,159.200837 L327.92887,147.630126 Z" id="Path" fill="#0099DA" fill-rule="nonzero"></path>
            <path d="M218.048536,163.909205 L331.380753,163.909205 C331.373984,163.789635 331.373984,163.669779 331.380753,163.550209 C331.374852,163.476687 331.374852,163.402811 331.380753,163.329289 L218.048536,163.329289 C218.048536,163.412134 218.048536,163.508787 218.048536,163.591632 C218.048536,163.674477 218.048536,163.798745 218.048536,163.909205 Z" id="Path" fill="#0099DA" fill-rule="nonzero"></path>
            <path d="M247.941841,171.889958 C247.941841,171.696653 247.941841,171.503347 247.941841,171.323849 L217.8,168.106695 C217.8,168.3 217.8,168.493305 217.8,168.672803 L247.941841,171.889958 Z" id="Path" fill="#0099DA" fill-rule="nonzero"></path>
            <path d="M301.887866,191.34477 C301.91459,191.153138 301.956137,190.963867 302.012134,190.778661 L217.137238,172.71841 C217.137238,172.911715 217.040586,173.091213 216.999163,173.270711 L301.887866,191.34477 Z" id="Path" fill="#0099DA" fill-rule="nonzero"></path>
            <path d="M317.69749,210.937657 C317.69749,210.758159 317.821757,210.578661 317.890795,210.385356 L215.935983,177.24728 C215.935983,177.440586 215.811715,177.620084 215.756485,177.799582 L317.69749,210.937657 Z" id="Path" fill="#0099DA" fill-rule="nonzero"></path>
            <path d="M317.573222,228.279916 C317.613231,228.090561 317.683144,227.908786 317.780335,227.741423 L214.306695,181.679498 C214.237657,181.858996 214.154812,182.024686 214.071967,182.204184 L317.573222,228.279916 Z" id="Path" fill="#0099DA" fill-rule="nonzero"></path>
            <path d="M287.26569,230.074895 C287.327128,229.888531 287.405707,229.708262 287.500418,229.536402 L212.125105,185.91841 L211.835146,186.429289 L287.26569,230.074895 Z" id="Path" fill="#0099DA" fill-rule="nonzero"></path>
            <path d="M301.004184,256.985774 C301.09366,256.818811 301.200078,256.661497 301.321757,256.516318 L209.598326,189.853556 L209.266946,190.323013 L301.004184,256.985774 Z" id="Path" fill="#0099DA" fill-rule="nonzero"></path>
            <path d="M251.766527,235.031799 C251.857564,234.858994 251.973912,234.700761 252.111715,234.562343 L206.643515,193.553975 L206.256904,193.995816 L251.766527,235.031799 Z" id="Path" fill="#0099DA" fill-rule="nonzero"></path>
            <path d="M261.625105,262.343096 C261.749559,262.200364 261.888365,262.070812 262.039331,261.956485 L203.37113,196.82636 L202.929289,197.212971 L261.625105,262.343096 Z" id="Path" fill="#0099DA" fill-rule="nonzero"></path>
            <polygon id="Path" fill="#0099DA" fill-rule="nonzero" points="235.501255 248.977406 235.5841 248.977406 199.781172 199.877824 199.781172 199.877824"></polygon>
            <path d="M235.087029,249.239749 C235.210952,249.131735 235.350636,249.043269 235.501255,248.977406 L199.725941,199.864017 L199.311715,200.167782 L235.087029,249.239749 Z" id="Path" fill="#0099DA" fill-rule="nonzero"></path>
            <path d="M235.694561,272.325941 C235.860251,272.229289 236.012134,272.132636 236.191632,272.049791 L195.832218,202.432218 L195.335146,202.722176 L235.694561,272.325941 Z" id="Path" fill="#0099DA" fill-rule="nonzero"></path>
            <path d="M215.7841,260.410042 L191.068619,204.876151 L191.579498,204.641423 L216.308787,260.161506 L217.882845,263.723849 L237.65523,308.115063 C237.46147,308.144498 237.271595,308.19544 237.089121,308.266946 L237.089121,308.266946 L217.358159,263.958577 L217.358159,263.958577 L215.7841,260.410042 L215.7841,260.410042 Z" id="Combined-Shape" fill="#0099DA" fill-rule="nonzero"></path>
            <path d="M213.643933,289.764854 C213.819469,289.687079 214.005613,289.63589 214.196234,289.612971 L187.188703,206.367364 L186.636402,206.546862 L213.643933,289.764854 Z" id="Path" fill="#0099DA" fill-rule="nonzero"></path>
            <polygon id="Path" fill="#0099DA" fill-rule="nonzero" points="205.717056 319.155655 206.325941 318.967782 182.61841 207.610042 182.066109 207.748117"></polygon>
            <path d="M189.27364,321.094142 C189.45811,321.040747 189.648013,321.008324 189.839749,320.99749 L177.992887,208.383264 L177.426778,208.383264 L189.27364,321.094142 Z" id="Path" fill="#0099DA" fill-rule="nonzero"></path>
            <polygon id="Path" fill="#0099DA" fill-rule="nonzero" points="172.732218 208.659414 172.732218 273.402929 172.815063 273.402929 173.312134 273.402929 173.312134 208.631799 172.732218 208.631799"></polygon>
            <path d="M156.16318,321.10795 C156.353726,321.121023 156.542987,321.148719 156.729289,321.190795 L168.589958,208.493724 L168.010042,208.424686 L156.16318,321.10795 Z" id="Path" fill="#0099DA" fill-rule="nonzero"></path>
            <path d="M141.333891,311.235565 L141.9,311.37364 L163.99205,207.817155 C163.798745,207.817155 163.619247,207.73431 163.425941,207.692887 L141.333891,311.235565 Z" id="Path" fill="#0099DA" fill-rule="nonzero"></path>
            <path d="M123.812134,314.093724 C123.997643,314.145984 124.177911,314.215318 124.350628,314.300837 L159.35272,206.602092 L158.814226,206.422594 L123.812134,314.093724 Z" id="Path" fill="#0099DA" fill-rule="nonzero"></path>
            <path d="M129.790795,259.995816 C129.973524,260.062726 130.145602,260.155741 130.301674,260.271967 L154.93431,204.903766 L154.409623,204.669038 L129.790795,259.995816 Z" id="Path" fill="#0099DA" fill-rule="nonzero"></path>
            <path d="M120.235983,254.914644 C120.408654,254.994345 120.56721,255.101603 120.705439,255.232218 L150.805858,202.832636 L150.308787,202.542678 L120.235983,254.914644 Z" id="Path" fill="#0099DA" fill-rule="nonzero"></path>
            <polygon id="Path" fill="#0099DA" fill-rule="nonzero" points="81.2158996 289.461088 81.6991632 289.778661 146.760251 200.209205 146.290795 199.877824"></polygon>
            <polygon id="Path" fill="#0099DA" fill-rule="nonzero" points="89.2518828 256.198745 89.6799163 256.585356 143.07364 197.295816 142.631799 196.923013"></polygon>
            <path d="M88.6029289,239.436402 C88.7445117,239.564432 88.8655888,239.71345 88.9619247,239.878243 L139.746025,194.037238 C139.624476,193.888115 139.495439,193.745254 139.359414,193.609205 L88.6029289,239.436402 Z" id="Path" fill="#0099DA" fill-rule="nonzero"></path>
            <path d="M46.9456067,254.900837 C47.0698745,255.05272 47.1803347,255.204603 47.290795,255.370293 L136.694561,190.350628 L136.36318,189.881172 L46.9456067,254.900837 Z" id="Path" fill="#0099DA" fill-rule="nonzero"></path>
            <path d="M74.7677824,220.14728 C74.89424,220.29887 75.0009501,220.465895 75.0853556,220.644351 L134.140167,186.401674 L133.850209,185.890795 L74.7677824,220.14728 Z" id="Path" fill="#0099DA" fill-rule="nonzero"></path>
            <path d="M28.6506276,227.575732 C28.7335336,227.748053 28.7983164,227.928519 28.8439331,228.114226 L131.94477,182.259414 C131.861925,182.079916 131.779079,181.914226 131.710042,181.734728 L28.6506276,227.575732 Z" id="Path" fill="#0099DA" fill-rule="nonzero"></path>
            <path d="M22.3267782,212.276987 C22.4202723,212.442844 22.4943987,212.618894 22.5476987,212.801674 L130.246444,177.827197 C130.246444,177.647699 130.122176,177.468201 130.053138,177.274895 L22.3267782,212.276987 Z" id="Path" fill="#0099DA" fill-rule="nonzero"></path>
            <path d="M18.1430962,196.246444 C18.2101242,196.424648 18.2564531,196.609963 18.2811715,196.798745 L128.962343,173.325941 L128.838075,172.77364 L18.1430962,196.246444 Z" id="Path" fill="#0099DA" fill-rule="nonzero"></path>
            <path d="M95.2719665,171.517155 C95.3299271,171.701111 95.3669809,171.891012 95.3824268,172.083264 L128.147699,168.631381 C128.147699,168.438075 128.147699,168.258577 128.147699,168.065272 L95.2719665,171.517155 Z" id="Path" fill="#0099DA" fill-rule="nonzero"></path>
            <path d="M127.912971,163.329289 L21.5949791,163.329289 C21.5949791,163.522594 21.5949791,163.7159 21.5949791,163.909205 L127.912971,163.909205 L127.912971,163.329289 Z" id="Path" fill="#0099DA" fill-rule="nonzero"></path>
            <path d="M68.6924686,152.379916 C68.6992882,152.476449 68.6992882,152.573342 68.6924686,152.669874 C68.6999419,152.766383 68.6999419,152.863324 68.6924686,152.959833 L128.064854,159.200837 C128.064854,159.007531 128.064854,158.814226 128.064854,158.620921 L68.6924686,152.379916 Z" id="Path" fill="#0099DA" fill-rule="nonzero"></path>
            <circle id="Oval" fill="#0099DA" cx="94" cy="172" r="2"></circle>
            <path d="M18.4330544,130.467364 C18.4176085,130.659616 18.3805548,130.849516 18.3225941,131.033473 L128.782845,154.506276 L128.907113,153.953975 L18.4330544,130.467364 Z" id="Path" fill="#0099DA" fill-rule="nonzero"></path>
            <circle id="Oval" fill="#0099DA" cx="69" cy="153" r="2"></circle>
            <path d="M53.0623431,109.921757 C53.0162626,110.109262 52.9466738,110.290193 52.8552301,110.460251 L131.682427,145.545188 C131.682427,145.36569 131.83431,145.186192 131.917155,145.020502 L53.0623431,109.921757 Z" id="Path" fill="#0099DA" fill-rule="nonzero"></path>
            <path d="M42.8033473,88.1334728 C42.717105,88.3050207 42.6202649,88.4710323 42.5133891,88.6305439 L133.781172,141.320084 C133.864017,141.154393 133.960669,140.988703 134.057322,140.823013 L42.8033473,88.1334728 Z" id="Path" fill="#0099DA" fill-rule="nonzero"></path>
            <path d="M110.170293,117.446862 C110.082226,117.621175 109.960164,117.7761 109.811297,117.90251 L136.390795,137.233054 L136.722176,136.763598 L110.170293,117.446862 Z" id="Path" fill="#0099DA" fill-rule="nonzero"></path>
            <path d="M75.5548117,75.3338912 C75.453845,75.4952999 75.3280284,75.639756 75.1820084,75.7619247 L139.317992,133.629289 L139.704603,133.187448 L75.5548117,75.3338912 Z" id="Path" fill="#0099DA" fill-rule="nonzero"></path>
            <path d="M67.2702929,45.758159 C67.1359264,45.8969714 66.9878963,46.0218718 66.8284519,46.1309623 L142.604184,130.356904 L143.046025,129.9841 L67.2702929,45.758159 Z" id="Path" fill="#0099DA" fill-rule="nonzero"></path>
            <polygon id="Path" fill="#0099DA" fill-rule="nonzero" points="82.0995816 38.0121339 81.616318 38.3297071 146.26318 127.291632 146.732636 126.960251"></polygon>
            <path d="M120.829707,72.5861925 C120.685997,72.7127687 120.522814,72.8153407 120.346444,72.8899582 L150.225941,124.695816 L150.723013,124.405858 L120.829707,72.5861925 Z" id="Path" fill="#0099DA" fill-rule="nonzero"></path>
            <polygon id="Path" fill="#0099DA" fill-rule="nonzero" points="111.482008 24.7292887 110.957322 24.9640167 154.395816 122.528033 154.920502 122.293305"></polygon>
            <path d="M140.974895,63.9012552 C140.799951,63.9806767 140.613549,64.0319373 140.422594,64.0531381 L158.786611,120.802092 L159.338912,120.622594 L140.974895,63.9012552 Z" id="Path" fill="#0099DA" fill-rule="nonzero"></path>
            <path d="M140.436402,8.98870293 C140.252445,9.04666355 140.062545,9.08371725 139.870293,9.09916318 L163.343096,119.559414 L163.909205,119.435146 L140.436402,8.98870293 Z" id="Path" fill="#0099DA" fill-rule="nonzero"></path>
            <path d="M159.51841,33.0414226 C159.347512,33.0901722 159.171328,33.1179909 158.993724,33.1242678 L158.993724,33.1242678 L167.982427,118.74477 L168.562343,118.675732 L159.51841,33.0414226 Z" id="Path" fill="#0099DA" fill-rule="nonzero"></path>
            <circle id="Oval" fill="#0099DA" cx="28" cy="228" r="3"></circle>
            <circle id="Oval" fill="#0099DA" cx="21" cy="213" r="3"></circle>
            <circle id="Oval" fill="#0099DA" cx="123" cy="317" r="3"></circle>
            <path d="M156.16318,320.10795 L156.025105,320.10795 C154.565508,320.074017 153.331695,321.182099 153.209159,322.636939 C153.086623,324.091778 154.117708,325.390625 155.562418,325.601312 C157.007127,325.811998 158.36621,324.861718 158.664269,323.432475 C158.962328,322.003233 158.096363,320.588933 156.687866,320.204603 L156.16318,320.10795 Z" id="Path" fill="#0099DA" fill-rule="nonzero"></path>
            <path d="M189.27364,321.038912 C187.93725,321.438348 187.138944,322.805003 187.447438,324.165267 C187.755932,325.525532 189.065699,326.414098 190.443656,326.197947 C191.821614,325.981797 192.796401,324.73487 192.673577,323.345481 C192.550753,321.956092 191.372331,320.899512 189.977824,320.928452 L189.839749,320.928452 L189.27364,321.038912 Z" id="Path" fill="#0099DA" fill-rule="nonzero"></path>
            <path d="M205.759833,319.119665 C204.43779,319.583734 203.692626,320.984168 204.046357,322.339908 C204.400088,323.695648 205.73447,324.553499 207.114716,324.312504 C208.494961,324.071509 209.459684,322.812226 209.333059,321.416833 C209.206434,320.021439 208.030788,318.956385 206.629707,318.967782 L206.325941,318.967782 L205.759833,319.119665 Z" id="Path" fill="#0099DA" fill-rule="nonzero"></path>
            <circle id="Oval" fill="#0099DA" cx="238" cy="311" r="3"></circle>
            <circle id="Oval" fill="#0099DA" cx="16" cy="197" r="3"></circle>
            <path d="M21.6502092,163.329289 L11.9849372,163.329289 L11.9849372,163.909205 L21.6502092,163.909205 C21.6778243,163.7159 21.6640167,163.522594 21.6502092,163.329289 Z" id="Path" fill="#0099DA" fill-rule="nonzero"></path>
            <circle id="Oval" fill="#0099DA" cx="109" cy="117" r="2"></circle>
            <path d="M51.0878661,109.079498 L53.0623431,109.949372 C53.0766143,109.816281 53.0766143,109.682045 53.0623431,109.548954 C53.0762642,108.537934 52.3341642,107.675216 51.3324217,107.537857 C50.3306791,107.400499 49.383745,108.031618 49.125008,109.009069 C48.8662709,109.98652 49.3769495,111.003477 50.3154593,111.379715 C51.2539691,111.755953 52.3257079,111.373368 52.8138075,110.487866 L50.825523,109.604184 L51.0878661,109.079498 Z" id="Path" fill="#FFE700" fill-rule="nonzero"></path>
            <circle id="Oval" fill="#0099DA" cx="74" cy="221" r="2"></circle>
            <circle id="Oval" fill="#0099DA" cx="88" cy="240" r="2"></circle>
            <circle id="Oval" fill="#0099DA" cx="173" cy="279" r="6"></circle>
            <circle id="Oval" fill="#0099DA" cx="214" cy="291" r="2"></circle>
            <path d="M236.70251,250.620502 L236.70251,250.717155 L236.233054,251.048536 L234.962762,249.294979 C234.536902,249.661301 234.294381,250.196868 234.3,250.758577 C234.3,251.628665 234.869551,252.396196 235.702305,252.648334 C236.535058,252.900471 237.434704,252.577777 237.917341,251.85382 C238.399979,251.129864 238.351833,250.175309 237.798801,249.503589 C237.245769,248.83187 236.31822,248.601334 235.515063,248.935983 L236.70251,250.565272 L236.70251,250.620502 Z" id="Path" fill="#0099DA" fill-rule="nonzero"></path>
            <path d="M236.771548,250.717155 L236.771548,250.620502 L236.37113,250.896653 L235.156067,249.239749 C235.156067,249.239749 235.156067,249.239749 235.156067,249.239749 L236.42636,250.993305 L236.771548,250.717155 Z" id="Path" fill="#0099DA" fill-rule="nonzero"></path>
            <polygon id="Path" fill="#0099DA" fill-rule="nonzero" points="236.70251 250.620502 236.70251 250.620502 235.515063 248.991213 235.432218 248.991213"></polygon>
            <path d="M236.302092,250.896653 L236.70251,250.620502 L235.501255,248.977406 C235.350636,249.043269 235.210952,249.131735 235.087029,249.239749 L236.302092,250.896653 Z" id="Path" fill="#0099DA" fill-rule="nonzero"></path>
            <circle id="Oval" fill="#0099DA" cx="19" cy="131" r="2"></circle>
            <circle id="Oval-Copy-2" fill="#0099DA" cx="21" cy="115" r="3"></circle>
            <circle id="Oval" fill="#0099DA" cx="75" cy="75" r="2"></circle>
            <circle id="Oval" fill="#0099DA" cx="120" cy="71" r="2"></circle>
            <circle id="Oval" fill="#0099DA" cx="140" cy="63" r="2"></circle>
            <circle id="Oval-Copy-3" fill="#0099DA" cx="159" cy="32" r="2"></circle>
            <circle id="Oval-Copy-3" fill="#0099DA" cx="139.5" cy="7.5" r="2.5"></circle>
            <circle id="Oval" fill="#0099DA" cx="65" cy="44" r="3"></circle>
            <circle id="Oval-Copy-3" fill="#0099DA" cx="173" cy="3" r="3"></circle>
            <circle id="Oval-Copy-4" fill="#0099DA" cx="190" cy="4" r="3"></circle>
            <circle id="Oval-Copy-5" fill="#0099DA" cx="206" cy="7" r="3"></circle>
            <circle id="Oval-Copy-5" fill="#0099DA" cx="237.5" cy="18.5" r="2.5"></circle>
            <circle id="Oval-Copy-7" fill="#0099DA" cx="281" cy="44" r="3"></circle>
            <circle id="Oval-Copy-8" fill="#0099DA" cx="294" cy="54" r="3"></circle>
            <circle id="Oval-Copy-9" fill="#0099DA" cx="302" cy="70" r="3"></circle>
            <circle id="Oval-Copy-10" fill="#0099DA" cx="319.5" cy="98.5" r="5.5"></circle>
            <circle id="Oval-Copy-12" fill="#0099DA" cx="332.5" cy="146.5" r="5.5"></circle>
            <circle id="Oval-Copy-14" fill="#0099DA" cx="252.5" cy="171.5" r="5.5"></circle>
            <circle id="Oval-Copy-11" fill="#0099DA" cx="326" cy="114" r="3"></circle>
            <circle id="Oval-Copy-13" fill="#0099DA" cx="333" cy="163.5" r="3"></circle>
            <circle id="Oval-Copy-16" fill="#0099DA" cx="319" cy="228" r="3"></circle>
            <circle id="Oval-Copy-17" fill="#0099DA" cx="288" cy="230" r="3"></circle>
            <circle id="Oval-Copy-18" fill="#0099DA" cx="303" cy="258" r="3"></circle>
            <circle id="Oval-Copy-21" fill="#0099DA" cx="240.5" cy="280.5" r="9.5"></circle>
            <circle id="Oval-Copy-15" fill="#0099DA" cx="303.5" cy="191.5" r="2.5"></circle>
            <circle id="Oval-Copy-19" fill="#0099DA" cx="252" cy="235" r="2"></circle>
            <circle id="Oval-Copy-20" fill="#0099DA" cx="262" cy="262" r="2"></circle>
            <circle id="Oval-Copy-11" fill="#0099DA" cx="276.5" cy="141.5" r="2.5"></circle>
            <circle id="Oval-Copy-5" fill="#0099DA" cx="226" cy="72" r="2"></circle>
            <circle id="Oval-Copy-5" fill="#0099DA" cx="206" cy="62" r="6"></circle>
            <circle id="Oval-Copy-6" fill="#0099DA" cx="251.5" cy="55.5" r="5.5"></circle>
            <circle id="Oval" fill="#0099DA" cx="78.5" cy="33.5" r="5.5"></circle>
            <path d="M289.557741,96.8046025 L289.267782,96.3075314 L281.079916,101.029707 C281.162762,101.209205 281.273222,101.361088 281.369874,101.526778 L289.557741,96.8046025 Z" id="Path" fill="#0099DA" fill-rule="nonzero"></path>
            <path d="M326.064854,213.657741 L326.244351,213.105439 L317.890795,210.343933 C317.890795,210.537238 317.75272,210.716736 317.69749,210.896234 L326.064854,213.657741 Z" id="Path" fill="#0099DA" fill-rule="nonzero"></path>
            <path d="M141.333891,311.235565 C136.271507,310.164665 131.286565,313.354512 130.137924,318.399825 C128.989284,323.445138 132.102077,328.478555 137.129126,329.704664 C142.156174,330.930774 147.236875,327.89577 148.540163,322.888176 C149.843451,317.880582 146.886955,312.753798 141.9,311.37364 L141.333891,311.235565 Z" id="Path" fill="#0099DA" fill-rule="nonzero"></path>
            <polygon id="Path" fill="#0099DA" fill-rule="nonzero" points="82.9970711 263.143933 83.4251046 263.530544 89.6799163 256.626778 89.2518828 256.240167"></polygon>
            <polygon id="Path" fill="#0099DA" fill-rule="nonzero" points="107.767782 16.3895397 107.243096 16.6242678 110.957322 24.9087866 111.482008 24.6740586"></polygon>
            <circle id="Oval" fill="#0099DA" cx="34.5" cy="83.5" r="9.5"></circle>
            <circle id="Oval" fill="#0099DA" cx="130" cy="261" r="2"></circle>
            <circle id="Oval-Copy" fill="#0099DA" cx="120" cy="256" r="2"></circle>
            <circle id="Oval" fill="#0099DA" cx="43.5" cy="258.5" r="5.5"></circle>
            <circle id="Oval" fill="#0099DA" cx="79.5" cy="293.5" r="5.5"></circle>
            <path d="M216.778766,170.453975 L216.778766,170.453975 L216.778766,132.013808 C216.807871,128.904854 215.577598,125.916338 213.367782,123.729289 C211.187949,121.550918 208.234012,120.324662 205.152301,120.318814 L133.353138,120.318814 C130.249007,120.313943 127.269663,121.540439 125.068619,123.729289 C122.869191,125.922192 121.644979,128.908074 121.671967,132.013808 L121.671967,132.400418 C121.678671,132.432287 121.678671,132.465202 121.671967,132.497071 L121.671967,132.676569 C121.664344,132.708336 121.664344,132.741455 121.671967,132.773222 L121.671967,202.970711 C121.664344,203.002478 121.664344,203.035597 121.671967,203.067364 L121.671967,203.246862 C121.678671,203.278731 121.678671,203.311646 121.671967,203.343515 L121.671967,203.716318 C121.649557,206.828374 122.878761,209.818875 125.083265,212.01559 C127.28777,214.212305 130.282603,215.430915 133.394561,215.398159 L204.351464,215.398159 C206.00142,215.398159 207.634859,215.068935 209.156485,214.430962 C210.624339,213.804623 211.959757,212.904974 213.091632,211.779916 C215.455196,209.458799 216.78408,206.283412 216.778766,202.970711 L216.778766,183.184519 L216.778766,183.184519 L216.778766,170.495397 L216.778766,170.453975 Z" id="Path" fill="#191F35" fill-rule="nonzero" opacity="0.2" style="mix-blend-mode: multiply;"></path>
            <path d="M209.059833,210.744359 L138.793305,210.744359 C137.138702,210.746198 135.500389,210.417597 133.974477,209.777824 C132.509773,209.147025 131.178867,208.242572 130.053138,207.112971 C128.924912,205.983701 128.024826,204.647636 127.402092,203.177824 C126.750663,201.655038 126.417069,200.015261 126.421709,198.358996 L126.421709,128.120084 C126.417069,126.463818 126.750663,124.824041 127.402092,123.301255 C128.024826,121.831444 128.924912,120.495378 130.053138,119.366109 C131.167796,118.245785 132.48422,117.346306 133.933054,116.715063 C135.458967,116.07529 137.097279,115.746689 138.751883,115.748528 L209.01841,115.748528 C210.668366,115.748528 212.301805,116.07709 213.823431,116.715063 C215.291285,117.341402 216.626702,118.241051 217.758577,119.366109 C220.083142,121.685208 221.385423,124.836528 221.3762,128.120084 L221.3762,198.372803 C221.385423,201.656359 220.083142,204.807679 217.758577,207.126778 C216.626702,208.251836 215.291285,209.151485 213.823431,209.777824 C212.314669,210.410429 210.695841,210.738887 209.059833,210.744359 L209.059833,210.744359 Z" id="Path" fill="#0099DA" fill-rule="nonzero"></path>
            <path d="M190.944351,174.775732 L190.723431,174.692887 L190.516318,174.610042 C190.297772,174.564238 190.072103,174.564238 189.853556,174.610042 C189.191719,174.675523 188.556232,174.903161 188.003347,175.272803 C187.403794,175.6839 186.734888,175.983271 186.02887,176.156485 C185.276438,176.254449 184.511452,176.15942 183.805858,175.880335 C182.294506,175.373407 181.060121,174.26396 180.395397,172.815063 C179.735716,171.357863 179.686002,169.697403 180.257322,168.203347 L180.43682,167.747699 L180.616318,167.29205 L180.616318,167.29205 L180.616318,167.29205 L180.616318,167.29205 C181.19199,165.802894 182.348274,164.611722 183.819665,163.99205 C185.28649,163.356868 186.950748,163.356868 188.417573,163.99205 C189.12259,164.261001 189.745805,164.708194 190.22636,165.289958 C190.641225,165.890757 190.936556,166.5658 191.096234,167.278243 C191.251905,167.920327 191.565104,168.513507 192.007531,169.004184 C192.156454,169.174495 192.340051,169.311016 192.546025,169.404603 L192.753138,169.487448 L192.974059,169.570293 C193.391471,169.732173 193.856155,169.721231 194.265485,169.539882 C194.674815,169.358533 194.995115,169.021698 195.155649,168.603766 L197.143933,163.494979 L199.132218,158.372385 C199.242147,158.121558 199.242147,157.836183 199.132218,157.585356 C199.026639,157.331818 198.822175,157.132341 198.566109,157.033054 L193.001674,154.644351 L187.395816,152.448954 L187.312971,152.448954 C186.6137,152.215331 185.938605,151.914775 185.297071,151.551464 C184.441004,151.054393 183.695397,150.391632 183.916318,149.646025 C184.082008,149.121339 184.399582,148.983264 184.979498,148.679498 C185.958749,148.133322 186.844399,147.434125 187.602929,146.608368 L187.602929,146.608368 L187.602929,146.608368 L187.602929,146.608368 L187.602929,146.608368 C187.938427,146.253055 188.230439,145.85907 188.472803,145.434728 C188.72388,145.000932 188.91875,144.536956 189.05272,144.053975 C189.811681,141.190625 188.409817,138.194941 185.725105,136.943096 C184.192994,136.220081 182.428932,136.168044 180.856867,136.79949 C179.284802,137.430936 178.046873,138.688773 177.440586,140.270711 C177.267183,140.716268 177.142197,141.179181 177.067782,141.651464 C177.016713,142.110299 177.016713,142.573383 177.067782,143.032218 C177.100355,144.021543 177.286685,144.999774 177.620084,145.931799 C177.855915,146.35481 177.891336,146.860811 177.716736,147.312552 C177.399163,148.016736 176.335983,148.016736 175.424686,147.795816 C174.707084,147.634322 174.008314,147.398313 173.339749,147.091632 L173.243096,147.091632 L167.720084,144.923849 L162.197071,142.769874 C161.944951,142.666299 161.662162,142.666299 161.410042,142.769874 C161.156504,142.875453 160.957027,143.079917 160.857741,143.335983 L158.869456,148.458577 L156.881172,153.581172 C156.708566,153.991804 156.708566,154.454639 156.881172,154.865272 C157.058367,155.275245 157.391123,155.598068 157.806276,155.762762 L158.027197,155.845607 L158.23431,155.928452 C158.453374,155.968957 158.678007,155.968957 158.897071,155.928452 C159.558181,155.869379 160.194115,155.646328 160.74728,155.279498 C161.343532,154.862544 162.013571,154.562666 162.721757,154.395816 C163.47419,154.297852 164.239176,154.392881 164.94477,154.671967 C166.456122,155.178894 167.690506,156.288341 168.35523,157.737238 C169.016443,159.194083 169.066176,160.855161 168.493305,162.348954 L168.493305,162.348954 L168.493305,162.348954 L168.493305,162.348954 L168.313808,162.804603 L168.13431,163.260251 C167.558209,164.753841 166.395618,165.94637 164.917155,166.560251 C163.454989,167.194754 161.79522,167.194754 160.333054,166.560251 C159.624521,166.290607 158.996993,165.843732 158.51046,165.262343 C158.10864,164.656032 157.818704,163.982631 157.654393,163.274059 C157.502082,162.630708 157.188464,162.036734 156.743096,161.548117 C156.594174,161.377806 156.410576,161.241285 156.204603,161.147699 L155.983682,161.064854 L155.776569,160.982008 C154.911241,160.651502 153.940677,161.075356 153.594979,161.934728 L151.137238,168.451883 L148.66569,174.817155 C148.48633,175.28225 148.713946,175.805151 149.176569,175.990795 L155.762762,178.558996 L162.362762,181.113389 C162.742496,181.272953 163.170474,181.272953 163.550209,181.113389 C163.923964,180.951213 164.224137,180.655961 164.392469,180.284937 L164.613389,179.746444 L164.848117,179.20795 C164.928158,179.009889 164.974816,178.79993 164.986192,178.586611 C165.000511,178.371511 164.972361,178.155695 164.903347,177.951464 C164.66683,177.249361 164.559241,176.51027 164.585774,175.769874 C164.705677,173.448687 166.181197,171.415782 168.350935,170.582402 C170.520674,169.749022 172.977686,170.271473 174.620623,171.915568 C176.26356,173.559662 176.78428,176.017041 175.949372,178.186192 C175.385058,179.616516 174.285483,180.770574 172.8841,181.403347 C172.65985,181.505386 172.458052,181.650868 172.290377,181.831381 C172.120518,182.009989 171.988955,182.221429 171.903766,182.45272 L171.696653,183.060251 L171.475732,183.667782 C171.38519,183.889002 171.38519,184.136939 171.475732,184.358159 C171.570401,184.57593 171.749982,184.745534 171.972803,184.827615 L178.876569,187.506276 L185.780335,190.184937 C186.24543,190.364298 186.768331,190.136682 186.953975,189.674059 L189.425523,183.336402 L191.883264,176.998745 C192.21377,176.133417 191.789916,175.162853 190.930544,174.817155 L190.944351,174.775732 Z" id="Path" fill="#EBEFF2" fill-rule="nonzero"></path>
            <path d="M11.9711297,163.329289 L21.6364017,163.329289 C21.4781318,158.546126 17.5135426,154.773518 12.7284162,154.852663 C7.94328988,154.931809 4.10563272,158.833466 4.10563272,163.619247 C4.10563272,168.405028 7.94328988,172.306684 12.7284162,172.38583 C17.5135426,172.464976 21.4781318,168.692368 21.6364017,163.909205 L11.9711297,163.909205 L11.9711297,163.329289 Z" id="Path" fill="#023852" fill-rule="nonzero"></path>
            <path d="M51.0878661,109.079498 L50.8669456,109.604184 L52.8552301,110.487866 C52.9466738,110.317808 53.0162626,110.136877 53.0623431,109.949372 L51.0878661,109.079498 Z" id="Path" fill="#0099DA" fill-rule="nonzero"></path>
            <circle id="Oval" fill="#023852" fill-rule="nonzero" cx="11.7225941" cy="162.92887" r="11.7225941"></circle>
            <circle id="Oval" fill="#FFE700" fill-rule="nonzero" cx="51.7644351" cy="109.079498" r="3.90753138"></circle>
            <circle id="Oval" fill="#FFE700" fill-rule="nonzero" cx="236.006276" cy="249.916318" r="3.90753138"></circle>
            <circle id="Oval" fill="#FFE700" fill-rule="nonzero" cx="83.4251046" cy="263.530544" r="7.7460251"></circle>
            <circle id="Oval" fill="#FFE700" fill-rule="nonzero" cx="289.157322" cy="97.8401674" r="7.7460251"></circle>
            <circle id="Oval" fill="#023852" fill-rule="nonzero" cx="108.278661" cy="17.7564854" r="7.7460251"></circle>
            <circle id="Oval" fill="#023852" fill-rule="nonzero" cx="326.244351" cy="213.105439" r="7.7460251"></circle>
        </g>
    </g>
</svg>