<svg width="140" height="128" viewBox="0 0 140 128" xmlns="http://www.w3.org/2000/svg">
<defs>
<style>
.cloud-1 {
    -webkit-animation: cloud-ani 30s ease infinite;
    -o-animation: cloud-ani 30s ease infinite;
    -moz-animation: cloud-ani 30s ease infinite;
    animation: cloud-ani 30s ease infinite;
}

.cloud-2 {
    -webkit-animation: cloud-ani-fast-out 13s ease infinite;
    -o-animation: cloud-ani-fast-out 13s ease infinite;
    -moz-animation: cloud-ani-fast-out 13s ease infinite;
    animation: cloud-ani-fast-out 13s ease infinite;
    animation-delay: 1000ms;
}

.cloud-3 {
    -webkit-animation: cloud-ani 12s ease infinite;
    -o-animation: cloud-ani 12s ease infinite;
    -moz-animation: cloud-ani 12s ease infinite;
    animation: cloud-ani 12s ease infinite;
    animation-delay: 500ms;
}

@keyframes cloud-ani {
    0% {
        transform: translate(0%, 0%);
    }

    95% {
        transform: translate(-50%, -1%);
        opacity: 0;
    }

    99% {
        opacity: 0;
        transform: translate(5%, 0%);
    }

    100% {
        transform: translate(0%, 0%);
        opacity: 1;
    }
}

@keyframes cloud-ani-fast-out {
    0% {
        transform: translate(0%, 0%);
    }

    55% {
        transform: translate(-20%, -1%);
        opacity: 0;
    }

    95% {
        transform: translate(-50%, -1%);
        opacity: 0;
    }

    99% {
        opacity: 0;
        transform: translate(5%, 0%);
    }

    100% {
        transform: translate(0%, 0%);
        opacity: 1;
    }
}

</style>
</defs>
<g transform="translate(.068182)" fill="none" fill-rule="evenodd"><ellipse fill="#081935" fill-rule="nonzero" opacity=".2" style="mix-blend-mode:multiply" cx="71.0402673" cy="64.882606" rx="62.6677503" ry="62.9135062"/><path d="M136.438064 63.0966308c-.007263-21.0419621-10.512791-40.6814507-27.981394-52.30961C90.9880673-.8411385 68.8789428-2.91193604 49.5692062 5.27146922 34.5943555 11.6502789 22.6776219 23.625829 16.3388512 38.665837c-9.88155128 23.4370672-4.68803 50.5446382 13.1486703 68.629451 17.8367004 18.084814 44.7856425 23.566815 68.2278435 13.87903 23.442201-9.687786 38.737064-32.6275731 38.722699-58.0776872z" fill="#33AFE2" fill-rule="nonzero"/><path d="M48.7188672 110.621545c.032987-.069709.0703581-.137241.1118867-.202186.0413094-.058844.0861469-.115111.134264-.168488l5.079657-5.11081 5.0908456-5.099577c.0322856-.032693.0587732-.0706809.0783207-.1123255l.0671321-.1123255a.59764559.59764559 0 000-.1347906c.0061324-.0409559.0061324-.0826021 0-.123558v-4.7626007c.0002883-.1505701.0307279-.2995451.0895093-.4380694.0565761-.1388175.1402722-.264854.2461508-.3706742.1076455-.1115987.237179-.199568.3804149-.2583486.1387728-.055166.2871374-.0819.4363582-.0786278h2.6964698c.0901936-.008557.175844-.0437332.2461508-.101093.0398655-.01687.0745979-.0439901.1006981-.0786278l2.0139609-2.0218588 1.9803949-2.0330913c.0322856-.0326931.0587731-.0706809.0783207-.1123255l.067132-.1123255a.59764559.59764559 0 000-.1347906c.0061324-.040956.0061324-.0826021 0-.123558v-5.9981811c.0168817-.0852824.0168817-.1730663 0-.2583487-.0351255-.0827931-.0843451-.1588125-.1454527-.2246509-.064648-.0625363-.1406004-.1120989-.2237735-.1460232-.0849492-.0169479-.1723902-.0169479-.2573394 0h-6.6348823l-.2237735-.0786278c-.0745323-.0344642-.1457019-.0758292-.2125847-.1235581-.0647251-.0463222-.124694-.0990007-.1790188-.1572556l-5.3817511-6.1217392-5.3929398-6.1105066c-.0276659-.0391415-.0617093-.0733185-.100698-.1010929l-.1342641-.0786278H30.2128041c-.092131.0024794-.1830755.0215005-.2685281.0561627-.0812108.0314113-.1540017.0814109-.2125847.1460231-.0645712.0653861-.1175464.1413617-.1566414.224651-.0168817.0852824-.0168817.1730663 0 .2583486v.1909534c-.0055284.040999-.0055284.082559 0 .123558a.63147364.63147364 0 000 .1347906c.0141296.0395431.0329102.0772516.0559433.1123255.0207942.0407865.0516003.0755793.0895094.1010929l2.3496211 2.3588353 2.3384323 2.3588353c.0545222.0547163.1032654.1149431.1454528.1797207.0434722.0597943.08095.1237564.1118867.1909534a1.64636344 1.64636344 0 010 .2246509c.0115443.0744353.0115443.1502158 0 .224651v6.8855525c-.00539.0447672-.00539.0900233 0 .1347906-.0064871.0409285-.0064871.0826294 0 .123558.0155977.0445492.0382676.0862736.067132.123558l.0783207.101093 1.9803949 1.9881611 1.9803949 1.9881612c.0321087.0359381.0699138.0663008.1118867.0898604h1.7901875c.1499819.0002895.2983749.0308484.4363582.0898604.2797646.1141225.5017002.3369284.6153769.6177901.0587814.1385244.0892211.2874994.0895094.4380694V116.94547c.0110832.032779.0110832.068314 0 .101093 0 0 0 .056163-.067132.078628 1.0815716.651488 2.2004388 1.269278 3.3566015 1.85337 1.1188672.595325 2.2377344 1.123255 3.4461109 1.662418v-9.581365a1.53359489 1.53359489 0 010-.224651l.1678301-.213418z" fill="#023852" fill-rule="nonzero"/><path d="M74.6318309 58.9967504h1.4209613l.134264-.0673953.1230754-.1797207.4587356-.4605345.4475468-.449302c.0553494-.061529.1194427-.1145187.1902075-.1572557.0681524-.0519792.1435507-.0936109.2237734-.123558.0750218-.0327571.1540263-.0554184.2349621-.0673953.0816778-.0111001.164473-.0111001.2461508 0h3.9384124l.1454528-.0673953.1230753-.1010929 2.5062625-2.5273235 2.5174511-2.5273235c.0426445-.0328013.0771164-.0750989.1006981-.1235581.0302046-.0424008.056424-.0875245.0783207-.1347906a.83445985.83445985 0 000-.1572556c.0060116-.0522449.0060116-.1050109 0-.1572557v-4.1785082a.74423782.74423782 0 000-.1572557c.0063298-.048467.0063298-.0975562 0-.1460231-.0193242-.0520448-.0456773-.1011784-.0783207-.1460232-.0266746-.0463922-.0606842-.0881225-.1006981-.123558l-.4251695-.4268369-.4251695-.3931392-.1230754-.1010929-.1342641-.0673953h-8.6935979c-.218311.001801-.4344526.0436761-.6377543.123558-.4035889.1805996-.7263883.5046648-.9062824.9098365-.0805663.2038079-.1223142.4209859-.1230754.6402553v4.6390427a2.02976062 2.02976062 0 010 .247116c-.0171952.0800221-.0396211.1588204-.067132.2358836-.0343296.0748246-.075533.1462733-.1230754.2134184-.0460087.0685352-.098463.1324795-.1566414.1909533l-.716075.7301157-.716075.7188831c-.0426444.0328013-.0771163.0750989-.100698.1235581-.0302046.0424008-.056424.0875245-.0783207.1347906a.73296517.73296517 0 000 .1460231.80062502.80062502 0 000 .1572557v3.0215556c-.0224063.1036305-.0224063.2108809 0 .3145114.0453778.0952603.1058346.1825077.1790187.2583486.07191.0750673.1599194.1326898.2573395.1684882.087293.0424915.1827225.0654844.2797168.0673953z" fill="#003A5D" fill-rule="nonzero"/><path d="M11.6843638 58.4463555l5.2586757 5.279298 5.2586757 5.2680654c.0243516.0319051.0547777.0586323.0895094.0786279l.100698.0561627c.0404213.0099938.0826542.0099938.1230754 0h4.9565816c.077566.0154361.157396.0154361.2349621 0 .142364-.0677318.2570042-.1828216.3244715-.3257439.0159793-.0778096.0159793-.1580739 0-.2358835v-4.7962984c.0032074-.1429924.0335881-.2840542.0895093-.4156043.0531384-.131323.1331913-.2499598.2349621-.348209.0997914-.0998505.2174701-.179881.3468489-.2358835.1325258-.0496883.2725337-.0762801.4139808-.0786279h9.7117671c.0347317-.0199956.0651577-.0467228.0895093-.0786278l1.26432-1.2692781 1.2531312-1.2580454.0783207-.2134185c.0228049-.0312039.0416008-.0651692.0559433-.1010929.0099907-.0367701.0099907-.0755554 0-.1123255.0055284-.040999.0055284-.082559 0-.123558v-3.0327882c.0004874-.1433022.0309836-.2849002.0895094-.4156043.0526488-.134873.1326638-.2572789.2349621-.3594416.0963355-.1013153.2151923-.1782979.3468488-.224651.1301936-.0587553.2712385-.0893711.4139809-.0898604h5.2251097l.100698-.0561627c.0347317-.0199956.0651578-.0467228.0895094-.0786278l2.6181492-2.6958118 2.5957718-2.6059513.0783207-.1010929v-.2134185c.0055284-.040999.0055284-.082559 0-.123558v-6.0318788c.0055284-.040999.0055284-.0825589 0-.123558v-.2134184l-.0447547-.1460232-3.0433187-3.0552532-3.0433187-3.0103231-.100698-.0786279-.1006981-.0561627h-4.8223175c-.077273-.0181878-.157689-.0181878-.2349621 0-.1522747.0627383-.2731669.1841045-.3356601.3369764-.0181167.0775761-.0181167.1583075 0 .2358836v4.9760191c-.0043429.1417892-.0307698.2820217-.0783207.4156043-.1129992.2618183-.3210154.4706502-.581811.5840926-.1328068.0486702-.2726425.0752294-.4139808.0786278h-7.9999003l-.1902074-.1010929-.1678301-.1347906-1.2866972-1.3029757-1.2866973-1.2917431c-.0565693-.0455498-.1024164-.1030835-.134264-.1684882-.0441179-.0532991-.0782365-.1141923-.1006981-.1797208-.0322594-.0636724-.0548853-.1318164-.067132-.2021859a1.38698891 1.38698891 0 010-.2134184v-2.8306023a1.25168064 1.25168064 0 010-.2134185c.0122467-.0703695.0348726-.1385134.067132-.2021859.0223443-.0690053.0564128-.1336093.1006981-.1909533.0377612-.0614365.0828491-.1180174.134264-.1684882l3.0097527-3.0215557 3.0097527-3.0215556.0783207-.1010929c.0228049-.031204.0416008-.0651693.0559434-.101093.0099907-.0367701.0099907-.0755553 0-.1123255a.50743673.50743673 0 000-.123558v-5.9644835c.0181167-.077576.0181167-.1583074 0-.2358835-.0230486-.0796205-.0699201-.1502035-.1342641-.2021859-.055904-.0547447-.1201042-.1002402-.1902074-.1347905-.0775057-.016042-.1574565-.016042-.2349621 0h-8.3355605l-.8391503.3257439-.8503391.3369764h-.2013961c-7.8437535 9.8766481-12.5385091 21.8983539-13.4711607 34.4951576h.100698c.0238434.0126551.0433377.0322258.0559434.0561627zM114.049521 28.1858689c-.05549.0101103-.11234.0101103-.16783 0H110.0216c-.021719-.0077088-.045414-.0077088-.067133 0l-.33566.3369765-.346848.3369764c-.155778.1601853-.37002.2494646-.593.2471161-.226353.0028128-.444237-.0863029-.604188-.2471161l-1.812565-1.8196729-1.868508-1.6399521c-.021719-.0077088-.045414-.0077088-.067132 0h-7.9775233c-.0217186-.0077088-.0454134-.0077088-.067132 0-.018347-.0047558-.0375965-.0047558-.0559434 0L91.90714 29.7247281l-4.4195253 4.3132988c-.0047372.0184188-.0047372.0377438 0 .0561627v.0673953c-.0048515.0222011-.0048515.0451942 0 .0673953-.0054332.0259255-.0054332.0527023 0 .0786278v2.9541604c-.0114112.0480003-.0114112.0980228 0 .1460231.0152296.0471959.042184.0897189.0783207.1235581.0330446.0396536.0753169.0705176.1230754.0898603.0479014.0106729.0975512.0106729.1454527 0h.8615277c.0477607.0118928.0976921.0118928.1454528 0 .0509827-.0193064.0969036-.0500403.134264-.0898603.0325047-.0367283.0589459-.0784417.0783207-.1235581.0114112-.0480003.0114112-.0980228 0-.1460231v-.7413482c-.0169669-.1079133-.0169669-.2178307 0-.325744.0464848-.10076.1109497-.1921262.1902074-.2695811.0740635-.0831176.1658516-.1483891.2685282-.1909534.102337-.0447938.212831-.0677443.3244714-.0673953h1.6671121c.0553606.0193474.1080077.0457742.1566414.0786279.0461721.0313309.0876207.0691592.1230754.1123255l.9286598.9323015.9286597.921069c.037089.0421656.0707622.0872392.1006981.1347906.0326433.0448448.0589965.0939784.0783207.1460232a.87956492.87956492 0 010 .1572556.85701091.85701091 0 010 .1684883v.9772317c.0003476.1120783-.0225132.2230056-.0671321.3257439-.0380098.105864-.0991837.201823-.1790187.2808138-.0815728.0764902-.1763643.1373947-.2797168.1797207-.102337.0447939-.212831.0677444-.3244715.0673953h-1.1188672c-.1116404.0003491-.2221344-.0226014-.3244714-.0673953-.0998605-.0426262-.1909267-.1035751-.2685282-.1797207-.0796077-.0814421-.1440289-.1765507-.1902074-.2808138-.0169669-.1079132-.0169669-.2178306 0-.3257439.0102803-.0481273.0102803-.0978958 0-.1460231-.0193748-.0451164-.0458159-.0868298-.0783207-.123558-.037748-.0367431-.0838248-.0637266-.134264-.0786279-.0478129-.0114559-.0976399-.0114559-.1454528 0H88.908576l-1.3314519 1.3366733-1.3202633 1.3254408v2.0218588l1.3538293 1.6399521 1.4097726 1.4153012h4.7775628l.1454528.0673953c.046172.0313309.0876206.0691592.1230753.1123255l.6601317.6627203.6601316.6627204.1006981.1235581c.030376.0462419.0565866.0951096.0783207.1460231a1.3644889 1.3644889 0 010 .1572557v8.7613881c-.0114112.0480003-.0114112.0980228 0 .1460231.0152295.0471959.042184.0897189.0783207.1235581.0330446.0396536.0753169.0705176.1230754.0898604.0479393.0103206.0975134.0103206.1454527 0h3.8824691l.9846034-.9884643.995791-.9884643c.035455-.0431663.076904-.0809946.123076-.1123255l.145453-.0786279h2.495073v-.0561627l.738453-.7413482.749641-.7413483c.035454-.0431662.076903-.0809945.123075-.1123255l.145453-.0786278h4.005544l.145453.0786278c.046172.031331.087621.0691593.123075.1123255l1.051736 1.0558596 1.051735 1.0446271c.037089.0421655.070762.0872392.100698.1347906.032643.0448447.058996.0939783.07832.1460231a.87943545.87943545 0 010 .1572557.85688663.85688663 0 010 .1684882V58.33403c.000348.1120783-.022513.2230056-.067132.325744-.078126.2136926-.245877.3821014-.458735.4605345-.101912.0461231-.212696.0691338-.324472.0673953h-9.846031c-.047939-.0103207-.097513-.0103207-.145452 0-.093698.0340435-.167486.1081206-.201397.2021858-.01028.0481273-.01028.0978959 0 .1460232v.8536737c-.006176.0258425-.006176.0527853 0 .0786278-.00485.0259831-.00485.0526448 0 .0786279v.123558l5.146789 5.1557399 5.135601 5.1669725h1.09649l3.681073-3.6955086 3.681073-3.6955085c.035454-.0431663.076903-.0809946.123075-.1123255l.145453-.0786279h5.516015c.107413-.0180143.217058-.0180143.324471 0 .105335.0436483.200561.1086558.279717.1909534.079637.0747525.140916.1670313.179019.2695811.044604.1066869.067431.2212738.067132.3369765v2.9653929c-.006177.0258425-.006177.0527854 0 .0786278a.28190858.28190858 0 000 .0786279v.0673953l1.331452 1.3254407 1.611169 1.3928361h1.118867c.111775-.0017385.222559.0212722.324471.0673953.104661.0397533.199924.1009606.279717.1797208.079835.0789908.141009.1749498.179019.2808137.044619.1027383.067479.2136657.067132.3257439v7.469645c-.011411.0480003-.011411.0980228 0 .1460231.014843.0506371.041721.0968946.078321.1347906.036584.0326322.078135.0591771.123075.0786279.047939.0103206.097513.0103206.145453 0h1.890885c.04657-.0193458.098883-.0193458.145453 0 .035223.0372339.058595.084161.067132.1347906.677219-2.5854823 1.189211-5.2117592 1.532848-7.8627842.360024-2.7107356.539441-5.4425712.537125-8.1772956.022628-15.3593922-5.58026-30.191112-15.74253-41.6727563l-3.278281 3.4933227-3.278281 3.2911368-.123075.101093-.145453.0786278z" fill="#023852" fill-rule="nonzero"/><path d="M69.7088153 19.9748757h-6.3999202c-.0760418-.017289-.1508093-.0398072-.2237734-.0673953l-.2125848-.1123255-.1790188-.1460231-1.3426406-1.3366734-1.3538292-1.3479058c-.0317811-.0393825-.0695387-.0734976-.1118868-.101093l-.1230753-.0673952h-5.079657c-.0779331.0110623-.157029.0110623-.2349621 0-.0776808-.0104022-.1532171-.0331519-.2237734-.0673953-.073919-.0235904-.1423933-.0617808-.2013961-.1123255-.070483-.0385992-.1346351-.087849-.1902075-.1460232l-.2125847-.2134184-.2125848-.2134184c-.0358009-.0396423-.0772806-.0737133-.1230754-.101093l-.134264-.0673953a.5015469.5015469 0 00-.1230754 0h-1.331452l-.1118867.0561628c-.0359737.0271183-.0696543.057174-.100698.0898604l-2.2377344 2.2465098-2.2377343 2.2465097-.100698.1123255-.0671321.1235581v.1460231a.56381797.56381797 0 000 .1347906v3.5944156a.56381797.56381797 0 000 .1347906v.1347906l.0671321.1347906.100698.1123255.8615277.8761388.8727164.8761388c.0580274.0545378.1105001.1147418.1566414.1797208.0441263.0633506.0816206.131105.1118867.2021858l.0671321.224651a1.68020049 1.68020049 0 010 .2358835v4.6727404a.55253354.55253354 0 000 .1347906.73296517.73296517 0 000 .1460231c.013465.0454706.0363412.0875749.067132.123558l.0895094.1123255 3.2111488 3.2237415 3.2223374 3.2349741c.0289582.0102784.0605512.0102784.0895094 0h.134264c.0080646-.0332113.0080646-.0678816 0-.1010929v-2.9990906a1.68020049 1.68020049 0 010-.2358835c.0119752-.0776278.0345657-.1532248.0671321-.224651.0305245-.0745148.0679862-.1459711.1118867-.2134184.0450819-.0626032.0936432-.1226053.1454527-.1797208l1.9020742-1.8983007 1.9020742-1.9095333c.0515553-.0579251.1119882-.1072193.1790188-.1460232.0620988-.0458906.1297776-.0836374.201396-.1123255.0711473-.032694.1464489-.0553731.2237735-.0673953.0779331-.0110623.157029-.0110623.2349621 0h2.964998c.0482776.0063547.0971751.0063547.1454527 0l.1230754-.0673953c.0400234-.0305245.0774481-.0643387.1118867-.1010929l2.964998-2.9766254 2.964998-2.9766255c.0357978-.0322346.0660419-.070188.0895094-.1123255l.067132-.123558a.63147364.63147364 0 000-.1347906.64274913.64274913 0 000-.1460231v-3.9538572c.0167847-.0928463.0167847-.1879675 0-.2808138-.0727311-.1784692-.2138314-.3201228-.3916035-.3931392-.0607766-.0267343-.1246911-.0456064-.1902074-.0561627zm11.0320303 21.7125169h2.6069605l.648943-.6514878.648943-.6514878v-.1235581a.72169236.72169236 0 010-.0786278v-2.7744396c.0102803-.0481273.0102803-.0978958 0-.1460231-.0192672-.0479458-.0500107-.0903838-.0895094-.1235581-.0316762-.0386549-.0747795-.0661919-.1230754-.0786278-.0478128-.0114559-.0976399-.0114559-.1454527 0H82.363203l-.9957918.9884643-.9846031.9996969v.0673952c-.0048515.0222012-.0048515.0451942 0 .0673953-.0046042.0260055-.0046042.0526224 0 .0786279v1.9095333c-.0102803.0481273-.0102803.0978958 0 .1460231.0339106.0940652.1076984.1681424.2013961.2021859.0316495.0723849.0868907.131804.1566414.1684882zm33.8009774 32.5968568h-2.662904c-.164359-.0104421-.326378-.0444861-.481113-.1010929-.077808-.0305998-.152704-.0681945-.223773-.1123255-.068475-.0501139-.132152-.1065202-.190208-.1684882l-6.243279-6.2677623-6.254467-6.2789948-.1230754-.1010929c-.0451569-.0290908-.094105-.0517708-.1454527-.0673953-.0478129-.0114559-.09764-.0114559-.1454528 0h-.1566414l-12.1508975.123558-12.1508975.123558h-.2685281l-.134264.0673953-.1118868.0786279-1.0293578.8986039-1.0293577.8873713-.1230754.1347906c-.0326434.0448448-.0589966.0939784-.0783207.1460232-.0108663.051851-.0108663.1054047 0 .1572556a.86826907.86826907 0 000 .1684883v7.020343c.0001509.1036644.019108.2064344.0559433.3032788.0424598.1002521.1031706.1916754.1790188.2695812.0758667.070117.1628364.1270588.2573394.1684882.0948264.0436333.1977849.0666027.3020942.0673953h.2797167c.1650112-.0060537.3293115.0246336.4811129.0898604.1549443.0655508.2955888.1609536.4139809.2808137.1178306.1135029.209485.2515236.2685281.4043718.0664814.1522747.10077.3167405.1006981.4829996v2.8643c-.0060117.0522448-.0060117.1050108 0 .1572557v.1460231c.0193241.0520448.0456773.1011783.0783207.1460231l.100698.1235581 2.4055644 2.414998 2.4055644 2.414998.1230754.1010929.1342641.0673953h12.542501c.1648496-.0039494.3287082.0266555.4811129.0898604.153431.0683238.2935907.1633977.4139808.2808137.1120645.1182385.2029129.2550457.2685281.4043718.0664815.1522747.1007701.3167405.1006981.4829996v15.5795453a.800624.800624 0 000 .1572556.73296617.73296617 0 000 .1460232c.0218967.047266.0481161.0923898.0783207.1347906.0232768.0455947.053474.0872786.0895094.123558l2.7524132 2.751974 2.7412246 2.763207.1230754.101093.134264.067398h4.7775632c.104427 0 .207612-.022745.302094-.067398.096018-.038555.183481-.09582.257339-.168488.157852-.147372.24368-.356631.234962-.57286v-4.4930193a1.8495387 1.8495387 0 010-.2471161c.021035-.0802346.047196-.1590255.078321-.2358835.03048-.0781137.067928-.153303.111887-.224651.046009-.0685353.098463-.1324795.156641-.1909534l2.562206-2.414998 2.450319-2.3925329.100698-.123558.067132-.1347906a.83449447.83449447 0 000-.1572557c.006217-.0522328.006217-.1050229 0-.1572557V81.8100572c.001561-.1650074.031854-.3284694.08951-.4829996.137645-.3036252.380069-.5470001.682509-.6851855.152404-.0632049.316263-.0938098.481112-.0898604h1.420962l.145452-.0673953.123076-.1010929 1.420961-1.4265337 1.420961-1.4265337.100698-.1235581.067133-.1460231c.006329-.048467.006329-.0975562 0-.1460232a.76682955.76682955 0 000-.1572556v-1.8758357c.001454-.104962-.021534-.208814-.067133-.3032788-.038394-.0997389-.095352-.1912279-.16783-.2695812-.075866-.070117-.162836-.1270588-.257339-.1684882-.0535-.025405-.109847-.0442611-.16783-.0561628z" fill="#003A5D" fill-rule="nonzero"/><path d="M70.3913243 24.6251509a.64274913.64274913 0 010 .1460231.63147364.63147364 0 010 .1347906l-.1230754.1460232c-.0234675.0421375-.0537116.0800908-.0895094.1123255l-2.964998 2.9766254-2.964998 2.9766255c-.0344386.0367541-.0718633.0705684-.1118867.1010929l-.1230754.0673953c-.0482776.0063546-.0971751.0063546-.1454527 0h-2.964998c-.0779331-.0110624-.157029-.0110624-.2349621 0-.0773246.0120221-.1526263.0347012-.2237735.0673953-.0716185.0286881-.1392972.0664348-.2013961.1123255-.0670306.0388038-.1274634.0880981-.1790187.1460231l-1.9020742 1.9095333-1.8796968 1.9544635c-.0518096.0571155-.1003709.1171176-.1454528.1797208-.0439004.0674473-.0813621.1389036-.1118867.2134184-.0325663.0714262-.0551568.1470232-.067132.224651a1.68020049 1.68020049 0 000 .2358835v2.9766255c.0080645.0332113.0080645.0678816 0 .1010929h-.1342641c-.0289581.0102784-.0605512.0102784-.0895094 0l-3.2223374-3.2349741-3.2894695-3.2574391-.0895094-.1123255c-.0307908-.0359832-.053667-.0780874-.067132-.1235581a.73296517.73296517 0 010-.1460231.55253354.55253354 0 010-.1347906v-4.6278101a1.68020049 1.68020049 0 000-.2358835l-.067132-.224651c-.0302662-.0710809-.0677605-.1388353-.1118868-.2021859-.0461412-.0649789-.098614-.1251829-.1566414-.1797208l-.8727164-.8761388-.8615277-.8761388-.100698-.1123255-.067132-.1347906v-.1347906a.56380675.56380675 0 010-.1347905v-3.5944157a.56380758.56380758 0 010-.1347906v-.1460231l.067132-.123558.100698-.1123255 2.2377344-2.2465098 2.2377343-2.2465098c.0310437-.0326863.0647243-.062742.1006981-.0898604l.1118867-.0561627h1.3314519a.50153705.50153705 0 01.1230754 0l.1342641.0673953c.0457947.0273796.0872745.0614507.1230754.1010929l.2125847.2134185.2125848.2134184c.0555724.0581741.1197244.1074239.1902074.1460231.0590028.0505447.1274771.0887352.2013961.1123255.0705564.0342434.1460926.0569931.2237734.0673953.0779331.0110624.157029.0110624.2349621 0h5.079657l.1230754.0673953c.042348.0275953.0801056.0617104.1118867.1010929l1.3650179 1.3142082 1.3426406 1.3591385.1790188.1460231.2125848.1123255c.0729641.0275881.1477316.0501063.2237734.0673953h6.3999202c.0958774.0013732.1906885.0204098.2797168.0561627.1777721.0730164.3188724.21467.3916035.3931392.0167847.0928463.0167847.1879675 0 .2808138v3.9201595l.0111887-.0224651zm44.9560827 52.2650499a.766689.766689 0 010 .1572557c.00633.0484669.00633.0975561 0 .1460231l-.067132.1460231-.100698.1235581-1.420961 1.4265337-1.532848 1.4265337-.123076.1010929-.145452.0673953h-1.420962c-.164849-.0039494-.328708.0266555-.481112.0898604-.30244.1381854-.544864.3815603-.682509.6851855-.057656.1545302-.087949.3179923-.08951.4829996v11.1426885c.006217.0522327.006217.1050229 0 .1572556a.83449447.83449447 0 010 .1572557l-.067132.1347906-.100698.123558-2.483885 2.5048584-2.43913 2.4486957c-.058179.0584739-.110633.1224181-.156642.1909533-.043958.0713481-.081406.1465374-.111887.224651-.031124.076858-.057286.155649-.07832.2358835a1.84920378 1.84920378 0 000 .2471161v4.4930197c.008718.216229-.077111.425487-.234962.57286-.073859.072668-.161321.129932-.25734.168488-.094482.044653-.197666.067398-.302094.067398h-4.7775628l-.134264-.067398-.1230754-.101093-2.797168-2.796905-2.7524132-2.751974c-.0360354-.0362794-.0662325-.0779633-.0895094-.123558-.0302046-.0424008-.0564239-.0875246-.0783207-.1347906a.73296617.73296617 0 010-.1460232.800624.800624 0 010-.1572556V82.7985215c.000072-.1662591-.0342166-.330725-.100698-.4829996-.0656152-.1493261-.1564637-.2861333-.2685281-.4043718-.1203902-.117416-.2605499-.2124899-.4139809-.2808137-.1524046-.0632049-.3162632-.0938098-.4811129-.0898604h-12.676765l-.1342641-.0673953-.1230754-.1010929-2.4055644-2.414998-2.4055644-2.414998-.1006981-.1235581c-.0326434-.0448448-.0589965-.0939783-.0783207-.1460231v-.1460232a.68785452.68785452 0 010-.1572556v-2.9316953c.000072-.1662591-.0342166-.3307249-.100698-.4829996-.0590431-.1528482-.1506975-.2908689-.2685281-.4043717-.1183921-.1198602-.2590367-.215263-.4139809-.2808138-.1518014-.0652268-.3161018-.0959141-.4811129-.0898604h-.2797168c-.1043093-.0007926-.2072678-.023762-.3020941-.0673953-.094503-.0414294-.1814727-.0983712-.2573395-.1684882-.0758482-.0779058-.1365589-.1693291-.1790187-.2695812-.0368353-.0968443-.0557924-.1996144-.0559434-.3032788v-7.020343a.8682849.8682849 0 010-.1684883c-.0108663-.0518509-.0108663-.1054046 0-.1572556.0193242-.0520448.0456774-.1011784.0783207-.1460232l.1230754-.1347906 1.0293578-.8873713 1.0293578-.8986039.1118867-.0786279.1342641-.0673953h.2685281l12.1508975-.123558 12.1508975-.123558h.1566414c.0478128-.0114559.0976399-.0114559.1454527 0 .0513478.0156245.1002959.0383045.1454528.0673953l.1230753.1010929 6.2544671 6.2789948 6.243279 6.2677623c.058056.061968.121733.1183743.190208.1684882.071069.044131.145965.0817257.223773.1123255.154735.0566068.316754.0906508.481113.1010929h2.662904c.103226-.0224941.210057-.0224941.313283 0 .094503.0414294.181472.0983713.257339.1684883.072478.0783532.129435.1698423.16783.2695811.045599.0944648.068587.1983168.067132.3032789v1.8084403l.067132.0786279z" fill="#023852" fill-rule="nonzero"/><path d="M134.480036 79.3388964v-.0673953c.00524-.0334923.00524-.0676006 0-.1010929-.00524.0334923-.00524.0676006 0 .1010929v.0673953z" fill="#003A5D" fill-rule="nonzero"/><path d="M73.8374352 55.099056a.80062502.80062502 0 010-.1572557.73296517.73296517 0 010-.1460231c.0218967-.0472661.0481161-.0923898.0783207-.1347906.0235817-.0484592.0580536-.0907568.100698-.1235581l.716075-.7188831.716075-.7301157c.0581784-.0584738.1106327-.1224181.1566414-.1909533.0475424-.0671451.0887458-.1385938.1230754-.2134184.0275109-.0770632.0499368-.1558615.067132-.2358836a2.02976062 2.02976062 0 000-.247116v-4.6839729c.0007612-.2192693.0425091-.4364474.1230754-.6402553.1798941-.4051717.5026935-.7292369.9062824-.9098364.2033017-.079882.4194433-.1217571.6377543-.1235581h8.6824093l.134264.0673953.1230754.1010929.4363582.4380695.4251695.4268368c.0400139.0354355.0740235.0771658.1006981.123558.0326434.0448448.0589965.0939784.0783207.1460232.0063298.048467.0063298.0975561 0 .1460231.0696886.0634658.1266537.1397172.1678301.224651v4.0549501c.0060116.0522449.0060116.1050109 0 .1572557a.8344609.8344609 0 010 .1572557c-.0218968.0472661-.0481161.0923898-.0783207.1347906-.0235817.0484592-.0580536.0907568-.1006981.123558l-2.5174511 2.5273235-2.5062625 2.5273235-.1230754.101093-.1454527.0673952h-4.0279218c-.0816778-.0111-.164473-.0111-.2461508 0-.0809358.011977-.1599403.0346382-.2349621.0673953-.0802227.0299472-.155621.0715789-.2237734.1235581-.0707648.0427369-.1348581.0957266-.1902075.1572557l-.4475468.4493019-.4587356.5840926-.1230754.1010929-.134264.0674605h-1.4209613c-.104552.001395-.2079984-.0216832-.3020942-.0674605-.0917487-.015729-.1793233-.0501317-.2573394-.1010929-.0731842-.075841-.1336409-.1630883-.1790188-.2583487-.0224062-.1036305-.0224062-.2108808 0-.3145113V55.099056h-.0559433zm6.5229956-15.7031033c-.0046042-.0260055-.0046042-.0526224 0-.0786279-.0048515-.0222011-.0048515-.0451942 0-.0673953v-.0673953l.9846031-.9996968.9957918-.9884643h1.9244515c.0478128-.0114559.0976399-.0114559.1454528 0 .0482958.0124359.0913992.0399728.1230753.0786278.0394988.0331742.0702422.0756123.0895094.1235581.0102803.0481273.0102803.0978958 0 .1460231v2.6621141a.72169236.72169236 0 000 .0786278v.1235581l-.6489429.6514878-.648943.6514878h-2.5845832c-.0479393.0103207-.0975134.0103207-.1454527 0-.0936978-.0340435-.1674855-.1081206-.2013961-.2021858-.0102803-.0481273-.0102803-.0978959 0-.1460232v-1.9095333l-.033566-.0561627z" fill="#023852" fill-rule="nonzero"/><path d="M118.155764 18.6606675c-1.955243-1.9590568-4.03713-3.7864442-6.23209-5.4702513-2.202294-1.6904519-4.516194-3.22909359-6.925788-4.60534507 16.075079 21.41115997 16.822178 50.71081207 1.859344 72.91961327-14.9628334 22.2088016-42.3289298 32.4187796-68.1074693 25.4101196-5.1463425-1.39644-10.0915804-3.454025-14.7131033-6.121739.8727164 1.123255 1.7901874 2.24651 2.7412245 3.369764.9510371 1.123255 1.9468289 2.167882 2.9761867 3.201277 15.6941739 16.317365 38.9376932 22.862744 60.7955498 17.120038 21.8578566-5.742705 38.9278466-22.879637 44.6481206-44.8232104 5.720273-21.9435737-.799539-45.2782441-17.053164-61.0339638l.011189.0336977z" fill="#0099DA" fill-rule="nonzero" opacity=".5" style="mix-blend-mode:multiply"/><path class="cloud cloud-2" d="M42.7888712 53.7623827h-4.4754687c-.0885959-.0181555-.1799322-.0181555-.2685281 0-.0885409.0351013-.1686333.0887056-.2349622.1572556l-.6825089.673953-.6713203.6851855c-.0663289.06855-.1464213.1221543-.2349621.1572556-.0886263.0178519-.1799019.0178519-.2685282 0h-2.349621c-.0885959-.0181554-.1799322-.0181554-.2685281 0-.0885409.0351014-.1686333.0887057-.2349621.1572557l-.4251696.4268369-.4139808.4156043c-.2045542.2022205-.2665115.508779-.1566414.7750459.105907.2661766.3634433.4400267.6489429.4380857h12.7662745c.2841923-.0049141.5376488-.180689.6427891-.4457977.1051402-.2651087.04139-.5676742-.1616763-.7673339l-1.3650179-1.1681851-1.365018-1.3029757c-.0646479-.0625362-.1406003-.1120988-.2237734-.1460231-.0811518-.0358827-.1686729-.0549836-.2573394-.0561627z" fill="#FFFBFF" fill-rule="nonzero" opacity=".8"/><path class="cloud cloud-3" d="M100.488851 113.148869h-4.4754685c-.0885959-.018156-.1799322-.018156-.2685281 0-.0885409.035101-.1686333.088705-.2349621.157255l-.6713203.673953-.682509.685186c-.0642013.065932-.1400904.119263-.2237734.157255-.0924611.017099-.1872557.017099-.2797168 0h-2.3496211c-.0885959-.018155-.1799322-.018155-.2685281 0-.0885409.035102-.1686333.088706-.2349621.157256l-.4139808.426837-.4251696.415604c-.2045542.202221-.2665115.508779-.1566414.775046.105907.266177.3634433.440027.648943.438069H103.27483c.287449.00859.548419-.167579.648943-.438069.113825-.267901.04651-.578765-.16783-.775046l-1.365018-1.314208-1.365018-1.302976c-.062569-.065112-.139098-.115051-.223773-.146023-.110266.003205-.217974.034099-.313283.089861z" fill="#FFFBFF" fill-rule="nonzero" opacity=".8"/><path class="cloud" d="M14.5486637 67.5671739H8.56272437c-.12250692-.0003422-.24397936.0225232-.35803749.0674066-.10889556.0541497-.21042216.1220995-.30209414.2021859l-.85033905.9098364-.89509374.898604c-.08588252.0874058-.18869529.1562164-.30209413.2021858-.11405813.0448834-.23553058.0677488-.3580375.0673953H2.38657758c-.12319578.0034823-.24464526.0301536-.35803749.0786279-.11339885.0459694-.21621161.1147801-.30209414.2021858l-.55943358.5616275-.54824492.5616274c-.28029992.2611183-.36156628.6735761-.20139609 1.022162.1399839.352713.48342066.5810761.86152772.57286H18.1737934c.3807954-.0048846.7210157-.2399806.8615277-.5953251.1441954-.3543029.0551148-.7612091-.2237734-1.022162l-1.8125649-1.7298125-1.8013761-1.7410451c-.0898692-.0794722-.1918652-.1439437-.3020941-.1909533-.1100931-.0450897-.2279482-.0679898-.3468489-.0674066z" fill="#FFFBFF" fill-rule="nonzero" opacity=".8"/><path class="cloud cloud-1" d="M102.883227 40.1373009h22.65706c.510914.0095765.975523-.2959948 1.170833-.7700521.19531-.4740574.081452-1.0198281-.286928-1.3753647l-.413981-.4156043-.425169-.4268369c-.11306-.1182927-.250541-.2103066-.402792-.2695812-.15168-.0667421-.315504-.1011652-.481113-.1010929h-1.510471c-.164453-.0006135-.327443-.0310561-.481113-.0898604-.15152-.0657982-.288453-.1612635-.402792-.2808137l-.984603-.9884643-.984603-.9884643c-.118833-.1165172-.259554-.2081539-.413981-.2695812-.150924-.0690833-.31526-.1036141-.481113-.1010929h-5.818109c-.162086-.0008723-.322426.033621-.469924.1010929-.154427.0614273-.295149.153064-.413981.2695812l-1.991584 1.9993937-1.991583 1.9993937c-.114339.1195502-.251272.2150155-.402793.2808137-.153926.0578817-.31675.0882932-.481112.0898604h-3.356602c-.194568-.0009411-.386485.0452996-.559434.1347906-.175641.0922675-.328543.2227444-.447546.3819066l-.302095.4156043-.324471.4043718z" fill="#FFFBFF" fill-rule="nonzero" opacity=".8"/><path d="M128.773813 109.599383h-22.65706c-.505484-.00177-.960414-.308261-1.153616-.777201-.193202-.46894-.086841-1.008498.269711-1.368216l.42517-.426837.425169-.415604c.114339-.11955.251272-.215015.402792-.280814.153927-.057881.31675-.088293.481113-.08986h1.510471c.165609.000072.329433-.034351.481113-.101093.152251-.059275.289732-.151288.402792-.269581l.984603-.988464.984603-.988465c.116727-.113815.253247-.205185.402792-.269581.15168-.066742.315504-.101222.481113-.101093h5.818109c.165853-.002521.330189.03201.481113.101093.152252.059275.289733.151289.402793.269581l2.002772 2.033092 1.991583 1.999393c.114339.119551.251272.215016.402793.280814.153669.058804.316659.089247.481112.08986h3.356602c.198099-.000569.39356.045602.570622.134791.176072.091625.329107.222214.447547.381907l.302094.415604.302094.370674z" fill="#FFFBFF" fill-rule="nonzero" opacity=".8"/><path class="cloud cloud-1" d="M118.636877 27.9162877h20.699042l-.525867-.5279298-.525868-.5279298c-.083234-.0825885-.182164-.1475272-.290905-.1909533-.110093-.0450897-.227948-.0679898-.346849-.0673953h-1.185999c-.118901.0005945-.236756-.0223056-.346849-.0673953-.111448-.0435088-.211111-.1127769-.290905-.2021859l-.190208-.1797207-.179019-.1909534c-.087101-.0776477-.185122-.1419895-.290905-.1909533-.109827-.0473665-.227405-.0740204-.346849-.0786278h-6.713203c-.238072.0094349-.464661.1052149-.637754.2695811l-.346849.348209-.358038.3482091c-.079794.0894089-.179457.1586771-.290905.2021858-.109831.0459691-.227865.068904-.346849.0673953h-5.583147l-.190207.0786279-.883906.4380694-.827961.471767z" fill="#FFFBFF" fill-rule="nonzero" opacity=".8"/><path d="M40.9986837 61.9846084h20.687854l-.5146789-.5279298-.5258676-.5279298c-.0852108-.0800974-.1836452-.1447108-.2909054-.1909533-.1100931-.0450897-.2279482-.0679898-.3468489-.0673953h-1.1859992c-.1189006.0005945-.2367557-.0223056-.3468488-.0673953-.1114476-.0435088-.2111108-.1127769-.2909055-.2021859l-.1902074-.1797207-.1790187-.1909534c-.1766823-.158759-.4011687-.2536503-.6377543-.2695811H50.4643c-.1159809.0035468-.2300927.0302773-.3356602.0786278-.1109164.0391115-.2107354.1046337-.2909055.1909533l-.3580375.348209-.3468488.3482091c-.0797947.0894089-.1794578.1586771-.2909054.2021858-.1100931.0450897-.2279482.0679898-.3468489.0673953h-5.5831472l-.1902074.0786279-.883905.4380694-.8391504.471767z" fill="#FFFBFF" fill-rule="nonzero" opacity=".8"/><path class="icon-blink" d="M79.7114878 67.0729531c-.0333002-.6059693-.515265-1.0898241-1.1188671-1.1232764-.3084271-.0018898-.6039602.1241027-.8167731.3482305-.2191369.2155647-.3404879.5120101-.3356601.8199761 0 .6203565.5009339 1.1232548 1.1188671 1.1232548.306763.0048467.6020504-.1169801.8167731-.3369764.2220007-.2182582.3435953-.5193677.3356601-.8312086z" fill="#FFE700" fill-rule="nonzero"/><path class="icon-blink2" d="M22.1457718 34.5996543c0-.6203565-.5009339-1.1232549-1.1188671-1.1232549-.3050828.0037356-.5972339.1242685-.8167731.3369765-.4477706.4586089-.4477706 1.1925758 0 1.6511847.2195392.2127079.5116903.3332408.8167731.3369764.6179332 0 1.1188671-.5028983 1.1188671-1.1232549v-.0786278z" fill="#FFE700" fill-rule="nonzero"/><path class="icon-blink3" d="M26.4981651 59.8728892c0-.6203565-.5009339-1.1232548-1.1188671-1.1232548-.3050828.0037355-.5972339.1242685-.8167731.3369764-.4477706.4586089-.4477706 1.1925758 0 1.6511847.2195392.212708.5116903.3332409.8167731.3369765.6179332 0 1.1188671-.5028984 1.1188671-1.1232549v-.0786279z" fill="#FFE700" fill-rule="nonzero"/><path class="icon-blink4" d="M79.5548464 48.6403404c.0048278-.307966-.1165232-.6044114-.3356601-.8199761-.2128129-.2241278-.508346-.3501203-.8167731-.3482304-.6036021.0334522-1.0855669.517307-1.1188885 1.1232763-.0018824.3096366.1236179.6063286.3468702.8199761.2147227.2199962.5100101.3418231.816773.3369764.306763.0048467.6020504-.1169802.8167731-.3369764.191768-.2117161.2958167-.4889282.2909054-.7750459z" fill="#FFE700" fill-rule="nonzero"/><path class="icon-blink5" d="M96.2483446 44.4618322c.0019038-.3096366-.1235965-.6063286-.3468488-.8199761-.2147227-.2199962-.5100101-.3418231-.816773-.3369764-.6179333 0-1.1188672.5028983-1.1188672 1.1232549-.0052964.3191276.12489.6254485.3580375.8424411.2128129.2241278.5083459.3501203.816773.3482305.6036022-.0334523 1.085567-.5173071 1.1188672-1.1232764l-.0111887-.0336976z" fill="#FFE700" fill-rule="nonzero"/><path class="icon-blink" d="M49.8601117 81.2147321c-.0014138-.3067467-.1218151-.6008722-.3356602-.8199761-.4568174-.4495266-1.1879173-.4495266-1.6447347 0-.213845.2191039-.3342464.5132294-.3356602.8199761 0 .642069.5184666 1.1625688 1.1580276 1.1625688.6395609 0 1.1580275-.5204998 1.1580275-1.1625688z" fill="#FFE700" fill-rule="nonzero"/><path class="icon-blink2" d="M109.305525 64.0513974c-.003721-.3062792-.123784-.5995759-.335661-.819976-.293803-.2949558-.722031-.4101491-1.123374-.3021878-.401343.1079613-.714828.4226753-.822368.8255923-.107539.4029171.007204.8328244.301008 1.1277801.312942.3865092.842052.5199619 1.2998.3278366.457748-.1921253.734798-.6639385.680595-1.1590452z" fill="#FFE700" fill-rule="nonzero"/><path class="icon-blink3" d="M58.5201436 23.3671054c.0048278-.3079659-.1165232-.6044113-.3356602-.819976-.3240172-.3189601-.8078471-.4098527-1.224823-.2300961-.416976.1797566-.6845039.5945563-.6772511 1.0500721.0014138.3067467.1218151.6008722.3356601.8199761.4568175.4495266 1.1879173.4495266 1.6447347 0 .190698-.2282511.2832659-.5232058.2573395-.8199761z" fill="#FFE700" fill-rule="nonzero"/><path class="icon-blink4" d="M45.9552653 41.0696024c0-.6203565-.5009339-1.1232548-1.1188672-1.1232548-.306763-.0048467-.6020504.1169801-.8167731.3369764-.3822556.3131366-.5150921.8406726-.3269842 1.2985585.1881079.4578859.6527564.7380352 1.1437573.6896027.3050828-.0037356.5972338-.1242685.816773-.3369765.2186098-.2320688.3284681-.5465972.3020942-.8649063z" fill="#FFE700" fill-rule="nonzero"/><path class="icon-blink5" d="M96.998007 67.4436272c.0018824-.3096366-.1236179-.6063287-.3468702-.8199761-.2147227-.2199963-.5100101-.3418232-.816773-.3369765-.6179333 0-1.1188672.5028984-1.1188672 1.1232549-.0048278.307966.1165232.6044114.3356602.8199761.2128128.2241278.5083459.3501203.816773.3482304.6036022-.0334522 1.0855669-.517307 1.1188672-1.1232763l.01121-.0112325z" fill="#FFE700" fill-rule="nonzero"/><path class="icon-blink" d="M91.3477064 42.2827177c-.0333002-.6059692-.515265-1.089824-1.1188671-1.1232763-.3084271-.0018898-.6039602.1241027-.8167731.3482305-.2191369.2155647-.3404879.5120101-.3356601.819976-.0048278.307966.1165232.6044114.3356601.8199761.2147227.2199963.5100101.3418231.8167731.3369765.3067629.0048466.6020503-.1169802.816773-.3369765.2186098-.2320688.3284681-.5465972.3020941-.8649063z" fill="#FFE700" fill-rule="nonzero"/><path class="icon-blink2" d="M47.8125848 45.0683898c0-.6203565-.5009339-1.1232763-1.1188672-1.1232763-.3084271-.0018898-.6039602.1241027-.816773.3482305-.2259556.2123757-.3541806.509234-.3541806.819976 0 .3107421.128225.6076003.3541806.8199761.4568174.4495266 1.1879172.4495266 1.6447347 0 .2086816-.2374122.3135125-.5490903.2909055-.8649063z" fill="#FFE700" fill-rule="nonzero"/><path class="icon-blink3" d="M94.189629 33.5437947c.0079352-.3118409-.1136594-.6129505-.3356601-.8312086-.218248-.2146836-.5112246-.3355571-.816773-.3369765-.491001-.0484325-.9556494.2317168-1.1437573.6896027-.188108.4578859-.0552715.9854219.3269842 1.2985585.2147227.2199963.5100101.3418231.8167731.3369764.3067629.0048467.6020503-.1169801.816773-.3369764.2191369-.2155647.3404879-.5120101.3356601-.8199761z" fill="#FFE700" fill-rule="nonzero"/></g></svg>