<?xml version="1.0" encoding="UTF-8"?>
<svg width="440px" height="330px" viewBox="0 0 440 330" version="1.1" xmlns="http://www.w3.org/2000/svg" xmlns:xlink="http://www.w3.org/1999/xlink">
    <title>Graphic elements / Icons / Rich icons / Press release</title>
    <g id="Graphic-elements-/-Icons-/-Rich-icons-/-Press-release" stroke="none" stroke-width="1" fill="none" fill-rule="evenodd">
        <g id="Press-release" transform="translate(24.000000, 23.000000)" fill-rule="nonzero">
            <rect id="Rectangle" fill="#0099DA" x="210.37" y="0.63" width="182.09" height="131.84" rx="13.94"></rect>
            <path d="M270.240023,132 L270.240023,41.76 C270.242674,41.1810123 270.013855,40.6249656 269.604445,40.2155551 C269.195034,39.8061447 268.638988,39.5773256 268.06,39.5799768 L258.39,39.5799768 C257.811012,39.5773256 257.254966,39.8061447 256.845555,40.2155551 C256.436145,40.6249656 256.207326,41.1810123 256.21,41.76 L256.21,62.45 C255.179369,64.0168869 254.032829,65.5043808 252.78,66.9 C247.06,73.25 239.43,77.48 231.78,80.3 C224.989079,82.7346428 217.944132,84.3918829 210.78,85.24 L210.38,85.29 L210.38,132 L270.240023,132 Z" id="Path" fill="#023852" opacity="0.3" style="mix-blend-mode: multiply;"></path>
            <path d="M325.060011,127.06 L325.060011,151.6 C325.062654,153.688986 324.234668,155.693321 322.758469,157.171396 C321.28227,158.649471 319.278988,159.480002 317.19,159.48 L304.13,159.48 C302.902968,159.477344 301.725282,159.96292 300.8567,160.829626 C299.988118,161.696332 299.499997,162.872965 299.5,164.1 L299.5,168.94 C299.5,171.497078 297.427078,173.57 294.87,173.57 L256.87,173.57 L278.16,164.17 C279.086622,163.754377 279.684836,162.835551 279.69,161.82 L279.69,148 C279.69,145.442922 281.762922,143.37 284.32,143.37 L297.41,143.37 C299.964797,143.3645 302.0345,141.294797 302.04,138.74 L302.04,127.06 C302.037344,125.832968 302.52292,124.655282 303.389626,123.7867 C304.256332,122.918118 305.432965,122.429902 306.66,122.429902 L320.41,122.429902 C321.642225,122.421995 322.826587,122.906583 323.699796,123.776036 C324.573005,124.645489 325.062693,125.827752 325.060011,127.06 Z" id="Path" fill="#0099DA"></path>
            <path d="M283.32,51.37 L284.38,52.43 L285.45,53.5 L286.52,54.57 L287.59,55.64 L288.66,56.71 L289.73,57.78 L290.8,58.85 L291.87,59.92 L292.93,61 L294,62.05 L295.07,63.12 L296.14,64.19 L297.21,65.26 L298.28,66.33 L299.35,67.4 L300.42,68.47 L300.5,68.55 L300.6,68.62 L300.7,68.68 L300.8,68.68 L300.91,68.68 L301.02,68.68 L301.47,68.68 L301.58,68.68 L301.68,68.68 L301.79,68.68 L301.89,68.62 L301.98,68.55 L302.07,68.47 L303.14,67.4 L304.21,66.33 L305.28,65.26 L306.35,64.19 L307.42,63.12 L308.49,62.05 L309.55,61 L310.62,59.94 L311.69,58.87 L312.76,57.8 L313.83,56.73 L314.9,55.66 L316,54.57 L317,53.5 L318.06,52.43 L319.13,51.37 L319.21,51.28 C319.236618,51.249091 319.260069,51.2155899 319.28,51.18 L319.34,51.08 C319.360586,51.0487748 319.377371,51.015204 319.39,50.98 C319.39,50.98 319.39,50.91 319.39,50.87 C319.394709,50.8334845 319.394709,50.7965155 319.39,50.76 C319.394709,50.7234845 319.394709,50.6865155 319.39,50.65 C319.39,50.65 319.39,50.57 319.39,50.54 C319.39,50.51 319.39,50.46 319.39,50.42 C319.393532,50.3834365 319.393532,50.3465635 319.39,50.31 C319.393532,50.2734365 319.393532,50.2365635 319.39,50.2 L319.39,50.1 C319.377501,50.0615783 319.360729,50.0246807 319.34,49.99 L319.28,49.89 L319.21,49.8 L319.13,49.71 L318.06,48.64 L317,47.57 L316,46.5 L314.93,45.43 L313.86,44.36 L312.79,43.3 L311.72,42.23 L310.65,41.16 L309.58,40.09 L308.49,39 L307.42,38 L306.35,36.93 L305.28,35.86 L304.21,34.8 L303.14,33.73 L302.07,32.66 L301.98,32.58 L301.89,32.51 L301.79,32.45 L301.68,32.45 L301.58,32.45 L301.47,32.45 L301.36,32.45 L301.13,32.45 L301.02,32.45 L300.91,32.45 L300.8,32.45 L300.7,32.45 L300.6,32.51 L300.5,32.58 C300.468501,32.6013515 300.441351,32.6285009 300.42,32.66 L299.35,33.73 L298.28,34.8 L297.21,35.86 L296.14,36.93 L295.07,38 L294,39 L292.93,40.07 L291.87,41.14 L290.8,42.21 L289.73,43.28 L288.66,44.34 L287.59,45.41 L286.52,46.48 L285.45,47.55 L284.38,48.62 L283.32,49.69 L283.23,49.78 L283.16,49.87 C283.139414,49.9012252 283.122629,49.934796 283.11,49.97 C283.089271,50.0046807 283.072499,50.0415783 283.06,50.08 C283.056313,50.1132144 283.056313,50.1467856 283.06,50.18 L283.06,50.29 C283.06,50.29 283.06,50.37 283.06,50.4 C283.055084,50.4398489 283.055084,50.4801511 283.06,50.52 C283.055502,50.5565287 283.055502,50.5934713 283.06,50.63 C283.06,50.63 283.06,50.7 283.06,50.74 L283.06,50.85 C283.055871,50.8865504 283.055871,50.9234496 283.06,50.96 C283.072629,50.995204 283.089414,51.0287748 283.11,51.06 C283.120468,51.0960882 283.13741,51.1299725 283.16,51.16 C283.186618,51.190909 283.210069,51.2244101 283.23,51.26 L283.32,51.37 Z" id="Path" fill="#FFFFFF"></path>
            <polygon id="Path" fill="#FFFFFF" points="336.12 97.1 331.76 97.1 327.4 97.1 323.04 97.1 318.68 97.1 314.32 97.1 309.96 97.1 305.6 97.1 301.24 97.1 296.88 97.1 292.52 97.1 288.17 97.1 283.81 97.1 279.45 97.1 275.09 97.1 270.73 97.1 266.37 97.1 266.37 96.61 266.37 96.13 266.37 95.64 266.37 95.15 266.37 94.66 266.37 94.17 266.37 93.68 266.37 93.19 266.37 92.7 266.37 92.22 266.37 91.73 266.37 91.24 266.37 90.75 266.37 90.26 266.37 89.77 266.37 89.28 270.73 89.28 275.09 89.28 279.45 89.28 283.81 89.28 288.17 89.28 292.52 89.28 296.88 89.28 301.24 89.28 305.6 89.28 309.96 89.28 314.32 89.28 318.68 89.28 323.04 89.28 327.4 89.28 331.76 89.28 336.12 89.28 336.12 89.77 336.12 90.26 336.12 90.75 336.12 91.24 336.12 91.73 336.12 92.22 336.12 92.7 336.12 93.19 336.12 93.68 336.12 94.17 336.12 94.66 336.12 95.15 336.12 95.64 336.12 96.13 336.12 96.61"></polygon>
            <path d="M115.06,186.29 C114.991733,186.131058 114.900788,185.98285 114.79,185.85 C114.681451,185.721562 114.557137,185.607327 114.42,185.51 C114.275639,185.421813 114.121197,185.351307 113.96,185.3 C113.794696,185.249103 113.622949,185.222162 113.45,185.22 L94,185.22 C93.7629456,185.22 93.5283044,185.267599 93.31,185.36 C93.1039516,185.450148 92.9172117,185.579168 92.76,185.74 C92.5969148,185.895299 92.4675612,186.082521 92.38,186.29 C92.2868021,186.508057 92.2391603,186.742863 92.2399891,186.98 L92.2399891,212.72 C92.2399891,212.953827 92.2875969,213.185206 92.38,213.4 C92.4699062,213.609131 92.5988775,213.799194 92.76,213.96 C92.9172117,214.120832 93.1039516,214.249852 93.31,214.34 C93.5283044,214.432401 93.7629456,214.48 94,214.48 L112.64,214.48 C112.799034,214.47708 112.957017,214.45355 113.11,214.41 C113.260604,214.369109 113.405177,214.30859 113.54,214.23 C113.675171,214.149753 113.796694,214.048484 113.9,213.93 C114.012931,213.819015 114.10745,213.690739 114.18,213.55 C114.261497,213.410593 114.318966,213.258471 114.35,213.1 C114.370202,212.943985 114.370202,212.786015 114.35,212.63 C114.339412,212.473499 114.309174,212.318952 114.26,212.17 C114.210381,212.020704 114.139665,211.879272 114.05,211.75 C113.623985,211.077011 113.265574,210.363539 112.98,209.62 C112.641122,208.735285 112.370334,207.825972 112.17,206.9 C111.938435,205.863813 111.764832,204.815519 111.65,203.76 C111.533256,202.630384 111.473181,201.495628 111.47,200.36 C111.470932,198.938756 111.564463,197.519082 111.75,196.11 C111.909392,194.924101 112.153347,193.751112 112.48,192.6 C112.733668,191.682162 113.068315,190.788655 113.48,189.93 C113.780098,189.297386 114.174603,188.714059 114.65,188.2 C114.767721,188.073545 114.86856,187.93237 114.95,187.78 C115.025544,187.62828 115.079403,187.466702 115.11,187.3 C115.171412,186.963064 115.133183,186.615531 115,186.3 L115.06,186.29 Z" id="Path" fill="#FFE700"></path>
            <polygon id="Path" fill="#9DADB7" points="71.35 272.78 82.79 272.78 94.23 272.78 105.67 272.78 117.11 272.78 111.77 249.59 106.43 226.41 101.09 203.23 95.75 180.04 84.31 180.04 72.88 180.04 61.44 180.04 50 180.04 55.33 203.23 60.67 226.41 66.01 249.59"></polygon>
            <path d="M58.51,216.1 C59.2475454,219.262226 62.0629119,221.502098 65.31,221.51 L96.74,221.51 C98.8620989,221.501364 100.865712,220.530525 102.187591,218.8704 C103.50947,217.210275 104.006883,215.04012 103.54,212.97 L100.17,198.33 L94.83,175.14 L89.49,152 L85.4,134.23 C84.6664258,131.063802 81.8500551,128.818989 78.6,128.81 L47.17,128.81 C45.0457065,128.817959 43.0399596,129.790138 41.7176629,131.452732 C40.3953662,133.115326 39.8996025,135.288428 40.37,137.36 L43.74,152 L49.07,175.18 L54.41,198.37 L58.51,216.1 Z" id="Path" fill="#82919E" opacity="0.3" style="mix-blend-mode: multiply;"></path>
            <path d="M128.52,271.6 C128.52,270.6 127.25,269.79 125.69,269.79 L71.57,269.79 C70.01,269.79 68.73,270.6 68.73,271.6 L68.73,282.47 C68.73,283.47 70.01,284.28 71.57,284.28 L125.69,284.28 C127.25,284.28 128.52,283.47 128.52,282.47 L128.52,271.6 Z" id="Path" fill="#D2D7D7"></path>
            <path d="M239.13,45.82 C239.13,57.11 235.31,65.57 229.59,71.92 C223.87,78.27 216.25,82.5 208.59,85.33 C201.800768,87.7683112 194.755014,89.4223859 187.59,90.26 C184.429018,90.6737975 181.247403,90.9108328 178.06,90.97 L132.36,90.97 L132.03,98.44 L131.7,105.92 L131.37,113.39 L131.04,120.86 L130.53,120.86 L130.59,122.31 L130.66,123.76 L130.72,125.21 L130.79,126.66 L130.72,128.11 L130.66,129.56 L130.59,131.01 L130.53,132.46 L131,132.46 L131.33,139.93 L131.66,147.4 L131.99,154.88 L132.32,162.35 L178.08,162.35 C181.267403,162.409167 184.449018,162.646203 187.61,163.06 C194.775014,163.897614 201.820768,165.551689 208.61,167.99 C216.24,170.82 223.86,175.05 229.61,181.4 C235.36,187.75 239.15,196.21 239.15,207.5 L239,187.29 L238.86,167.08 L238.72,146.87 L238.58,126.66 L238.72,106.45 L238.86,86.24 L239,66 L239.13,45.82 Z" id="Path" fill="#9DADB7"></path>
            <path d="M6.26,160.520002 L31.5,160.520002 C32.2594782,160.520002 33.0112261,160.367527 33.71,160.07 C34.384324,159.785538 34.9959776,159.370973 35.51,158.85 C36.582957,157.796194 37.1851144,156.353901 37.1800323,154.85 L37.1800323,102.15 C37.1851144,100.646099 36.582957,99.203806 35.51,98.15 C34.9959776,97.6290274 34.384324,97.2144622 33.71,96.93 C33.0112261,96.6324726 32.2594782,96.4799983 31.5,96.4799983 L6.26,96.4799983 C4.75855234,96.4871078 3.32077179,97.0873812 2.26,98.15 C1.72868219,98.6599883 1.30084935,99.2677825 1,99.94 C0.701406174,100.638442 0.548290299,101.390411 0.549985839,102.15 L0.549985839,154.83 C0.553676374,155.576117 0.706682755,156.313947 1,157 C1.28671214,157.676052 1.70091912,158.290572 2.22,158.81 C3.28077179,159.872619 4.71855234,160.472892 6.22,160.479998 L6.26,160.520002 Z" id="Path" fill="#9DADB7"></path>
            <path d="M238.84,166.85 L238.7,146.64 L238.58,129.19 L130.66,129.19 L130.66,129.33 L130.59,130.78 L130.53,132.23 L131,132.23 L131.33,139.7 L131.66,147.17 L131.99,154.65 L132.32,162.12 L178.08,162.12 C181.267403,162.179167 184.449018,162.416203 187.61,162.83 C194.775014,163.667614 201.820768,165.321689 208.61,167.76 C216.24,170.59 223.86,174.82 229.61,181.17 C235.36,187.52 239.15,195.98 239.15,207.27 L238.84,166.85 Z" id="Path" fill="#023852" opacity="0.3" style="mix-blend-mode: multiply;"></path>
            <path d="M0.58,129.19 L0.58,154.6 C0.585483045,157.736326 3.12368851,160.279 6.26,160.290002 L31.5,160.290002 C32.2594782,160.290598 33.0112261,160.137527 33.71,159.84 C34.384324,159.555538 34.9959776,159.140973 35.51,158.62 C36.0342401,158.102758 36.4521046,157.487852 36.74,156.81 C37.0304856,156.10941 37.18,155.358425 37.18,154.6 L37.18,129.19 L0.58,129.19 Z" id="Path" fill="#023852" opacity="0.3" style="mix-blend-mode: multiply;"></path>
            <polygon id="Path" fill="#023852" points="135.41 167.23 106.28 167.23 77.15 167.23 48.01 167.23 18.88 167.23 18.88 147.56 18.88 127.88 18.88 108.2 18.88 88.53 48.01 88.53 77.15 88.53 106.28 88.53 135.41 88.53 135.41 108.2 135.41 127.88 135.41 147.56"></polygon>
            <path d="M45.12,99.51 L25.59,99.51 C25.3464751,99.51 25.1052931,99.4624522 24.88,99.37 C24.6652741,99.2750511 24.4689435,99.1430357 24.3,98.98 C24.1320546,98.8112284 23.999467,98.6106472 23.91,98.39 C23.7105796,97.9376711 23.7105796,97.4223289 23.91,96.97 C23.9970914,96.7510354 24.1300744,96.5532658 24.3,96.39 C24.4654335,96.2201607 24.6624579,96.0842818 24.88,95.99 C25.1052931,95.8975478 25.3464751,95.85 25.59,95.85 L45.12,95.85 C45.3635249,95.85 45.6047069,95.8975478 45.83,95.99 C46.0461273,96.0868147 46.2427017,96.2223833 46.41,96.39 C46.5799256,96.5532658 46.7129086,96.7510354 46.8,96.97 C46.9994204,97.4223289 46.9994204,97.9376711 46.8,98.39 C46.710533,98.6106472 46.5779454,98.8112284 46.41,98.98 C46.2396917,99.1413391 46.0436697,99.273147 45.83,99.37 C45.6047069,99.4624522 45.3635249,99.51 45.12,99.51 L45.12,99.51 Z" id="Path" fill="#D2D7D7"></path>
            <path d="M45.12,109.070027 L25.59,109.070027 C25.3453274,109.071371 25.1032097,109.02022 24.88,108.92 C24.4254936,108.735097 24.064903,108.374506 23.88,107.92 C23.7797804,107.69679 23.7286288,107.454673 23.7298184,107.21 C23.7263553,106.965102 23.7776099,106.722497 23.88,106.5 C24.0619442,106.043538 24.4235376,105.681944 24.88,105.5 C25.1052931,105.407548 25.3464751,105.36 25.59,105.36 L45.12,105.36 C45.3635249,105.36 45.6047069,105.407548 45.83,105.5 C46.0456756,105.593219 46.2423003,105.725432 46.41,105.89 C46.7480917,106.239341 46.9410745,106.703929 46.95,107.19 C46.9465841,107.434162 46.8956351,107.675321 46.8,107.9 C46.7129086,108.118965 46.5799256,108.316734 46.41,108.48 C46.2450348,108.647891 46.0477215,108.780567 45.83,108.87 C45.6107016,108.987525 45.3683984,109.05578 45.12,109.070027 L45.12,109.070027 Z" id="Path" fill="#D2D7D7"></path>
            <path d="M45.12,118.630027 L25.59,118.630027 C25.3453274,118.631371 25.1032097,118.58022 24.88,118.48 C24.4254936,118.295097 24.064903,117.934506 23.88,117.48 C23.6801125,117.024289 23.6801125,116.505711 23.88,116.05 C23.9719669,115.833643 24.1043286,115.636797 24.27,115.47 C24.4359949,115.303353 24.6330422,115.170856 24.85,115.08 C25.0752931,114.987548 25.3164751,114.94 25.56,114.94 L45.12,114.94 C45.3635249,114.94 45.6047069,114.987548 45.83,115.08 C46.0456756,115.173219 46.2423003,115.305432 46.41,115.47 C46.5756714,115.636797 46.7080331,115.833643 46.8,116.05 C46.9998875,116.505711 46.9998875,117.024289 46.8,117.48 C46.7129086,117.698965 46.5799256,117.896734 46.41,118.06 C46.2450348,118.227891 46.0477215,118.360567 45.83,118.45 C45.6091124,118.560578 45.3668897,118.621986 45.12,118.630027 Z" id="Path" fill="#D2D7D7"></path>
            <path d="M45.12,128.18 L25.59,128.18 C25.3464751,128.180009 25.1052931,128.132452 24.88,128.04 C24.6630422,127.949144 24.4659949,127.816647 24.3,127.65 C24.1321091,127.485035 23.9994329,127.287721 23.91,127.07 C23.7101125,126.614289 23.7101125,126.095711 23.91,125.64 C23.9994329,125.422279 24.1321091,125.224965 24.3,125.06 C24.4632658,124.890074 24.6610354,124.757091 24.88,124.67 C25.1032097,124.56978 25.3453274,124.518629 25.59,124.519973 L45.12,124.519973 C45.3646726,124.518629 45.6067903,124.56978 45.83,124.67 C46.2845064,124.854903 46.645097,125.215494 46.83,125.67 C47.0298875,126.125711 47.0298875,126.644289 46.83,127.1 C46.7405671,127.317721 46.6078909,127.515035 46.44,127.68 C46.2723003,127.844568 46.0756756,127.976781 45.86,128.07 C45.623261,128.156138 45.371558,128.193553 45.12,128.18 L45.12,128.18 Z" id="Path" fill="#D2D7D7"></path>
            <path d="M45.12,137.74 L25.59,137.74 C25.3464751,137.74 25.1052931,137.692452 24.88,137.6 C24.6630422,137.509144 24.4659949,137.376647 24.3,137.21 C24.1343286,137.043203 24.0019669,136.846357 23.91,136.63 C23.7101125,136.174289 23.7101125,135.655711 23.91,135.2 C24.094903,134.745494 24.4554936,134.384903 24.91,134.2 C25.1332097,134.09978 25.3753274,134.048629 25.62,134.049973 L45.12,134.049973 C45.3646726,134.048629 45.6067903,134.09978 45.83,134.2 C46.0477215,134.289433 46.2450348,134.422109 46.41,134.59 C46.5799256,134.753266 46.7129086,134.951035 46.8,135.17 C46.9998875,135.625711 46.9998875,136.144289 46.8,136.6 C46.7080331,136.816357 46.5756714,137.013203 46.41,137.18 C46.2423003,137.344568 46.0456756,137.476781 45.83,137.57 C45.606801,137.672764 45.3655372,137.730531 45.12,137.74 L45.12,137.74 Z" id="Path" fill="#D2D7D7"></path>
            <path d="M45.12,147.3 L25.59,147.3 C25.3464751,147.3 25.1052931,147.252452 24.88,147.16 C24.6624579,147.065718 24.4654335,146.929839 24.3,146.76 C24.1300744,146.596734 23.9970914,146.398965 23.91,146.18 C23.7105796,145.727671 23.7105796,145.212329 23.91,144.76 C23.9970914,144.541035 24.1300744,144.343266 24.3,144.18 C24.4654335,144.010161 24.6624579,143.874282 24.88,143.78 C25.1052931,143.687548 25.3464751,143.64 25.59,143.64 L45.12,143.64 C45.3635249,143.64 45.6047069,143.687548 45.83,143.78 C46.0461273,143.876815 46.2427017,144.012383 46.41,144.18 C46.5799256,144.343266 46.7129086,144.541035 46.8,144.76 C46.9994204,145.212329 46.9994204,145.727671 46.8,146.18 C46.7129086,146.398965 46.5799256,146.596734 46.41,146.76 C46.2427017,146.927617 46.0461273,147.063185 45.83,147.16 C45.6047069,147.252452 45.3635249,147.3 45.12,147.3 Z" id="Path" fill="#D2D7D7"></path>
            <path d="M45.12,156.86 L25.59,156.86 C25.3464751,156.86 25.1052931,156.812452 24.88,156.72 C24.6624579,156.625718 24.4654335,156.489839 24.3,156.32 C24.1300744,156.156734 23.9970914,155.958965 23.91,155.74 C23.7105796,155.287671 23.7105796,154.772329 23.91,154.32 C23.999467,154.099353 24.1320546,153.898772 24.3,153.73 C24.4689435,153.566964 24.6652741,153.434949 24.88,153.34 C25.1052931,153.247548 25.3464751,153.2 25.59,153.2 L45.12,153.2 C45.3635249,153.2 45.6047069,153.247548 45.83,153.34 C46.0436697,153.436853 46.2396917,153.568661 46.41,153.73 C46.5779454,153.898772 46.710533,154.099353 46.8,154.32 C46.9994204,154.772329 46.9994204,155.287671 46.8,155.74 C46.7129086,155.958965 46.5799256,156.156734 46.41,156.32 C46.2427017,156.487617 46.0461273,156.623185 45.83,156.72 C45.6047069,156.812452 45.3635249,156.86 45.12,156.86 Z" id="Path" fill="#D2D7D7"></path>
            <polygon id="Path" fill="#D2D7D7" points="43.28 183.7 59 183.7 74.7 183.7 90.42 183.7 106.13 183.7 106.13 179.43 106.13 175.16 106.13 170.89 106.13 166.62 90.42 166.62 74.7 166.62 59 166.62 43.28 166.62 43.28 170.89 43.28 175.16 43.28 179.43"></polygon>
            <path d="M244.88,206.890004 L235.21,206.890004 C234.91817,206.890004 234.629177,206.832734 234.36,206.72 C234.104409,206.604668 233.870906,206.445615 233.67,206.25 C233.469863,206.048991 233.310292,205.811333 233.2,205.55 C233.087272,205.284328 233.029446,204.998599 233.029996,204.71 L233.029996,46.78 C233.030263,46.4882486 233.088031,46.1994101 233.2,45.93 C233.310529,45.6717467 233.470149,45.4374106 233.67,45.24 C233.86551,45.0378804 234.100332,44.8779294 234.36,44.77 C234.629177,44.6572656 234.91817,44.5999961 235.21,44.5999961 L244.88,44.5999961 C245.168599,44.5999961 245.454328,44.6572721 245.72,44.77 C245.982708,44.8777323 246.22084,45.0376211 246.42,45.24 C246.619851,45.4374106 246.779471,45.6717467 246.89,45.93 C247.001969,46.1994101 247.059737,46.4882486 247.060004,46.78 L247.060004,204.71 C247.060554,204.998599 247.002728,205.284328 246.89,205.55 C246.779708,205.811333 246.620137,206.048991 246.42,206.25 C246.215454,206.445784 245.978643,206.604786 245.72,206.72 C245.454328,206.832728 245.168599,206.890004 244.88,206.890004 L244.88,206.890004 Z" id="Path" fill="#D2D7D7"></path>
        </g>
    </g>
</svg>