<?xml version="1.0" encoding="UTF-8"?>
<svg width="440px" height="330px" viewBox="0 0 440 330" version="1.1" xmlns="http://www.w3.org/2000/svg" xmlns:xlink="http://www.w3.org/1999/xlink">
    <title>Graphic elements / Icons / Rich icons / Privacy</title>
    <defs>
        <linearGradient x1="0%" y1="49.9980644%" x2="100%" y2="49.9980644%" id="linearGradient-1">
            <stop stop-color="#FFFFFF" stop-opacity="0" offset="0%"></stop>
            <stop stop-color="#FBC800" offset="100%"></stop>
        </linearGradient>
        <linearGradient x1="0%" y1="50%" x2="100%" y2="50%" id="linearGradient-2">
            <stop stop-color="#D9DAD7" offset="0%"></stop>
            <stop stop-color="#FFFFFF" offset="64%"></stop>
        </linearGradient>
    </defs>
    <g id="Graphic-elements-/-Icons-/-Rich-icons-/-Privacy" stroke="none" stroke-width="1" fill="none" fill-rule="evenodd">
        <g id="Privacy" transform="translate(58.000000, 0.000000)" fill-rule="nonzero">
            <path d="M143.706646,324.893354 L224.525316,251.437025 C250.225633,228.075949 264.605696,196.736392 264.605696,164.101899 L264.605696,74.2917722 C264.605696,64.7781646 256.251266,56.935443 245.536709,56.4237342 C239.688608,56.1522152 233.078165,55.7762658 226.53038,55.3794304 C204.432911,54.0113924 183.640823,45.6047468 167.976266,31.7050633 L132.302848,0 L96.6294304,31.6424051 C80.9648734,45.5420886 60.1727848,53.9487342 38.0753165,55.3481013 C31.5379747,55.7553797 24.9170886,56.1313291 19.0689873,56.3924051 C8.35443038,56.8832278 0,64.7468354 0,74.239557 L0,164.154114 C0,196.757278 14.3591772,228.075949 40.0177215,251.426582 L120.752848,324.893354 C127.334284,330.615434 137.125209,330.615434 143.706646,324.893354 Z" id="Path" fill="#FFE700"></path>
            <path d="M224.525316,195.451899 L143.706646,268.918671 C137.120108,274.648331 127.318499,274.648331 120.731962,268.918671 L40.0177215,195.441456 C14.3591772,172.090823 0,140.772152 0,108.168987 L0,164.154114 C0,196.757278 14.3591772,228.075949 40.0177215,251.426582 L120.752848,324.893354 C127.337688,330.62755 137.142692,330.62755 143.727532,324.893354 L224.525316,251.437025 C250.225633,228.075949 264.605696,196.736392 264.605696,164.101899 L264.605696,108.127215 C264.605696,140.761709 250.225633,172.101266 224.525316,195.451899 Z" id="Path" fill="url(#linearGradient-1)" style="mix-blend-mode: multiply;"></path>
            <path d="M245.536709,56.3924051 C239.688608,56.110443 233.078165,55.7344937 226.53038,55.3481013 C204.432911,53.9800633 183.640823,45.5734177 167.976266,31.6737342 L132.302848,0 L96.6294304,31.6424051 C80.9648734,45.5420886 60.1727848,53.9487342 38.0753165,55.3481013 C31.5379747,55.7553797 24.9170886,56.1313291 19.0689873,56.3924051 C8.35443038,56.8832278 0,64.7468354 0,74.239557 L0,109.495253 C0,99.9920886 8.35443038,92.1389241 19.0689873,91.6376582 C24.9170886,91.3661392 31.5379747,90.9797468 38.0753165,90.5933544 C60.1727848,89.2253165 80.9648734,80.8186709 96.6294304,66.9189873 L132.302848,35.2661392 L167.976266,66.9189873 C183.640823,80.8186709 204.432911,89.2253165 226.53038,90.5933544 C233.078165,90.9901899 239.688608,91.3765823 245.536709,91.6376582 C256.240823,92.1389241 264.605696,99.9920886 264.605696,109.495253 L264.605696,74.239557 C264.605696,64.7468354 256.240823,56.8832278 245.536709,56.3924051 Z" id="Path" fill="#FFF170"></path>
            <path d="M307.108861,201.185127 C327.291384,180.993377 328.897184,148.796018 310.823891,126.696311 C292.750598,104.596604 260.87499,99.7805709 237.079449,115.554385 C213.283909,131.3282 205.305881,162.56279 218.622226,187.815828 C231.938571,213.068865 262.219298,224.128981 288.676899,213.403481 C295.577434,210.606724 301.845524,206.451673 307.108861,201.185127 L307.108861,201.185127 Z" id="Path" fill="#19A1DB"></path>
            <path d="M323.347785,156.16519 C323.174143,159.493106 322.705855,162.799081 321.948418,166.044304 C321.180285,169.319886 320.114135,172.518338 318.763291,175.599684 C317.399693,178.739194 315.742318,181.742749 313.813291,184.570253 C307.59628,193.679499 298.83625,200.757981 288.624684,204.923734 C272.365908,211.551421 253.934584,210.130246 238.884031,201.088407 C223.833478,192.046567 213.92347,176.441273 212.139873,158.974367 L212.139873,159.674051 C212.139873,159.903797 212.139873,160.133544 212.139873,160.363291 C212.139873,160.593038 212.139873,160.833228 212.139873,161.062975 C212.139873,161.292722 212.139873,161.532911 212.139873,161.762658 C211.864675,181.877102 222.437959,200.582504 239.813159,210.720007 C257.188359,220.857511 278.675248,220.857511 296.050449,210.720007 C313.425649,200.582504 323.998933,181.877102 323.723734,161.762658 C323.723734,161.292722 323.723734,160.822785 323.723734,160.352848 C323.723734,159.882911 323.723734,159.412975 323.661076,158.943038 C323.598418,158.473101 323.608861,158.013608 323.577532,157.543671 L323.347785,156.16519 Z" id="Path" fill="#0097D7" style="mix-blend-mode: multiply;"></path>
            <path d="M267.832595,111.187025 C297.64239,111.138814 322.208609,134.563703 323.577532,164.342089 C323.577532,164.143671 323.577532,163.945253 323.577532,163.746835 C323.577532,163.548418 323.577532,163.35 323.577532,163.151582 C323.577532,162.953165 323.577532,162.744304 323.577532,162.545886 C323.577532,162.347468 323.577532,162.149051 323.577532,161.94019 C323.577532,131.118506 298.59162,106.132595 267.769937,106.132595 C236.948253,106.132595 211.962342,131.118506 211.962342,161.94019 L211.962342,162.545886 C211.962342,162.754747 211.962342,162.953165 211.962342,163.151582 C211.962342,163.35 211.962342,163.548418 211.962342,163.757278 L211.962342,164.352532 C213.331095,134.572421 237.89576,111.144413 267.707278,111.187025 L267.832595,111.187025 Z" id="Path" fill="#FFFFFF" opacity="0.4"></path>
            <path d="M229.10981,123.656013 L250.330063,144.85538 L271.518987,166.044304 L289.125949,183.640823 L306.743354,201.226899 L306.743354,201.226899 L306.743354,201.226899 C328.220526,179.429692 328.079318,144.384558 306.427192,122.761133 C284.775065,101.137708 249.729775,101.042985 227.961076,122.549051 L227.961076,122.549051 L227.961076,122.549051 L228.514557,123.102532 L229.10981,123.656013 Z" id="Path" fill="#FFFFFF" opacity="0.2"></path>
            <polygon id="Path" fill="url(#linearGradient-2)" style="mix-blend-mode: multiply;" points="267.769937 175.610127 265.493354 177.876266 263.216772 180.152848 260.94019 182.418987 258.663608 184.69557 253.75538 179.787342 248.836709 174.879114 243.928481 169.970886 239.00981 165.062658 241.286392 162.796519 243.562975 160.519937 245.839557 158.253797 248.105696 155.977215 250.747785 158.619304 253.389873 161.250949 256.031962 163.882595 258.663608 166.524684 265.827532 159.371203 272.991456 152.217722 280.15538 145.064241 287.319304 137.910759 289.595886 140.187342 291.862025 142.453481 294.138608 144.730063 296.41519 146.996203 289.272152 154.149684 282.108228 161.303165 274.944304 168.456646"></polygon>
            <polygon id="Path" fill="#FFFFFF" points="267.769937 172.017722 265.493354 174.283861 263.216772 176.560443 260.94019 178.826582 258.663608 181.103165 253.75538 176.194937 248.836709 171.286709 243.928481 166.378481 239.00981 161.470253 241.286392 159.204114 243.562975 156.927532 245.839557 154.661392 248.105696 152.38481 250.747785 155.026899 253.389873 157.658544 256.031962 160.29019 258.663608 162.932278 265.827532 155.778797 272.991456 148.625316 280.15538 141.471835 287.319304 134.318354 289.595886 136.594937 291.862025 138.861076 294.138608 141.137658 296.41519 143.403797 289.272152 150.557278 282.087342 157.689873 274.923418 164.843354"></polygon>
            <path d="M116.168354,143.466456 L116.168354,130.24557 C116.165503,128.093397 116.595214,125.9626 117.431962,123.979747 C119.08013,120.120251 122.161093,117.050519 126.026582,115.416456 C130.032208,113.723216 134.552602,113.723216 138.558228,115.416456 C142.423717,117.050519 145.50468,120.120251 147.152848,123.979747 C147.989597,125.9626 148.419307,128.093397 148.416456,130.24557 L148.416456,143.466456 L159.19376,143.466456 L159.19376,130.24557 C159.202892,126.659905 158.492677,123.108829 157.105063,119.802532 C154.364516,113.347903 149.223396,108.210527 142.766772,105.474684 C132.684299,101.217171 121.027542,103.492366 113.286076,111.228797 C110.834203,113.678158 108.87392,116.574272 107.511076,119.760759 C106.123462,123.067057 105.413247,126.618133 105.42238,130.203797 L105.42238,143.424684 L116.168354,143.466456 Z" id="Path" fill="#A9B4BB"></path>
            <rect id="Rectangle" fill="#A6A9AA" style="mix-blend-mode: multiply;" x="105.391139" y="130.987025" width="10.7667722" height="12.4794304"></rect>
            <rect id="Rectangle" fill="#A6A9AA" style="mix-blend-mode: multiply;" x="148.437342" y="130.987025" width="10.7667722" height="12.4794304"></rect>
            <path d="M168.801266,143.466456 L95.8044304,143.466456 C90.9481696,143.466456 87.0113862,147.403233 87.0113862,152.259494 L87.0113862,208.651899 C87.0086206,210.985766 87.9338035,213.224994 89.5831185,214.876267 C91.2324335,216.527541 93.4705612,217.45538 95.8044304,217.45538 L168.801266,217.45538 C171.135135,217.45538 173.373263,216.527541 175.022578,214.876267 C176.671893,213.224994 177.597076,210.985766 177.59431,208.651899 L177.59431,152.259494 C177.59431,149.927435 176.667897,147.690891 175.018883,146.041877 C173.369868,144.392862 171.133324,143.466456 168.801266,143.466456 L168.801266,143.466456 Z M122.371519,198.574367 L128.209177,180.497468 C125.493,179.052342 123.759391,176.262626 123.666456,173.187342 C123.55518,168.404508 127.322587,164.427282 132.10443,164.27943 C136.064035,164.228254 139.546107,166.889119 140.536807,170.723125 C141.527506,174.557131 139.770376,178.571795 136.281646,180.445253 L142.108861,198.522152 C142.272864,199.021382 142.187641,199.568972 141.879676,199.994748 C141.571712,200.420525 141.078326,200.67289 140.552848,200.673418 L123.927532,200.673418 C123.414538,200.667844 122.933727,200.422472 122.628214,200.010337 C122.322701,199.598202 122.227711,199.066823 122.371519,198.574367 L122.371519,198.574367 Z" id="Shape" fill="#2C4B6A"></path>
        </g>
    </g>
</svg>