<?xml version="1.0" encoding="UTF-8"?>
<svg width="440px" height="330px" viewBox="0 0 440 330" version="1.1" xmlns="http://www.w3.org/2000/svg" xmlns:xlink="http://www.w3.org/1999/xlink">
    <title>Graphic elements / Icons / Rich icons / Promotion</title>
    <g id="Graphic-elements-/-Icons-/-Rich-icons-/-Promotion" stroke="none" stroke-width="1" fill="none" fill-rule="evenodd">
        <g id="Press-release" transform="translate(66.000000, 15.000000)" fill-rule="nonzero">
            <path d="M143.228216,177.124481 C143.143236,176.926628 143.030026,176.742137 142.892116,176.576763 C142.756993,176.416882 142.602245,176.274681 142.431535,176.153527 C142.251833,176.043751 142.059581,175.955984 141.858921,175.892116 C141.653148,175.828758 141.439356,175.795222 141.224066,175.792531 L117.012448,175.792531 C116.71736,175.792531 116.425275,175.851783 116.153527,175.966805 C115.897035,176.079022 115.664579,176.239628 115.46888,176.439834 C115.265869,176.633152 115.104848,176.866209 114.995851,177.124481 C114.879837,177.395921 114.820531,177.688211 114.821563,177.983402 L114.821563,210.024896 C114.821563,210.315967 114.880826,210.603991 114.995851,210.871369 C115.107767,211.131699 115.268312,211.368291 115.46888,211.568465 C115.664579,211.768671 115.897035,211.929277 116.153527,212.041494 C116.425275,212.156516 116.71736,212.215768 117.012448,212.215768 L140.215768,212.215768 C140.413735,212.212132 140.610395,212.182842 140.80083,212.128631 C140.988304,212.077729 141.16827,212.002394 141.3361,211.904564 C141.504362,211.804672 141.655635,211.678611 141.784232,211.53112 C141.924811,211.392965 142.042469,211.233286 142.13278,211.058091 C142.234229,210.884555 142.305766,210.695192 142.344398,210.497925 C142.369546,210.303715 142.369546,210.107073 142.344398,209.912863 C142.331218,209.718048 142.293578,209.525666 142.232365,209.340249 C142.170599,209.154404 142.082571,208.978347 141.970954,208.817427 C141.440645,207.979682 140.99449,207.091542 140.639004,206.165975 C140.217164,205.06467 139.880084,203.932746 139.630705,202.780083 C139.34245,201.490223 139.126347,200.185293 138.983402,198.871369 C138.838078,197.465208 138.763295,196.052649 138.759336,194.639004 C138.760496,192.86982 138.876925,191.102592 139.107884,189.348548 C139.306297,187.872325 139.609975,186.412173 140.016598,184.979253 C140.332367,183.836716 140.74894,182.724467 141.261411,181.655602 C141.634976,180.868116 142.126061,180.141982 142.717842,179.502075 C142.864383,179.344662 142.989909,179.168925 143.091286,178.979253 C143.185324,178.79039 143.252369,178.589256 143.290456,178.381743 C143.366903,177.96232 143.319315,177.529706 143.153527,177.136929 L143.228216,177.124481 Z" id="Path" fill="#FFE700"></path>
            <polygon id="Path" fill="#9DADB7" points="88.8174274 284.788382 103.058091 284.788382 117.298755 284.788382 131.539419 284.788382 145.780083 284.788382 139.13278 255.921162 132.485477 227.06639 125.838174 198.211618 119.190871 169.344398 104.950207 169.344398 90.7219917 169.344398 76.4813278 169.344398 62.2406639 169.344398 68.8755187 198.211618 75.5228216 227.06639 82.1701245 255.921162"></polygon>
            <path d="M72.8340249,214.232365 C73.7521312,218.168745 77.2567368,220.956968 81.2987552,220.966805 L120.423237,220.966805 C123.064853,220.956055 125.558977,219.747541 127.20447,217.680996 C128.849962,215.614451 129.469149,212.913013 128.887967,210.3361 L124.692946,192.112033 L118.045643,163.244813 L111.39834,134.439834 L106.307054,112.319502 C105.393891,108.378177 101.888035,105.583804 97.8423237,105.572614 L58.7178423,105.572614 C56.0734935,105.582521 53.5767132,106.792703 51.9307007,108.862322 C50.2846882,110.931941 49.667555,113.637047 50.253112,116.215768 L54.4481328,134.439834 L61.0829876,163.294606 L67.7302905,192.161826 L72.8340249,214.232365 Z" id="Path" fill="#82919E" opacity="0.3" style="mix-blend-mode: multiply;"></path>
            <path d="M159.983402,283.319502 C159.983402,282.074689 158.40249,281.06639 156.460581,281.06639 L89.0912863,281.06639 C87.1493776,281.06639 85.5560166,282.074689 85.5560166,283.319502 L85.5560166,296.850622 C85.5560166,298.095436 87.1493776,299.103734 89.0912863,299.103734 L156.460581,299.103734 C158.40249,299.103734 159.983402,298.095436 159.983402,296.850622 L159.983402,283.319502 Z" id="Path" fill="#D2D7D7"></path>
            <path d="M297.672199,2.26556017 C297.672199,16.3195021 292.917012,26.8506224 285.79668,34.7551867 C278.676349,42.659751 269.190871,47.9253112 259.655602,51.4481328 C251.204276,54.4833749 242.433628,56.542389 233.514523,57.5850622 C229.57969,58.1001628 225.619173,58.3952276 221.651452,58.4688797 L164.763485,58.4688797 L164.352697,67.7676349 L163.941909,77.0788382 L163.53112,86.3775934 L163.120332,95.6763485 L162.485477,95.6763485 L162.560166,97.4813278 L162.647303,99.2863071 L162.721992,101.091286 L162.809129,102.896266 L162.721992,104.701245 L162.647303,106.506224 L162.560166,108.311203 L162.485477,110.116183 L163.070539,110.116183 L163.481328,119.414938 L163.892116,128.713693 L164.302905,138.024896 L164.713693,147.323651 L221.676349,147.323651 C225.64407,147.397304 229.604587,147.692368 233.539419,148.207469 C242.458524,149.250142 251.229172,151.309156 259.680498,154.344398 C269.178423,157.86722 278.6639,163.13278 285.821577,171.037344 C292.979253,178.941909 297.697095,189.473029 297.697095,203.526971 L297.510373,178.369295 L297.3361,153.211618 L297.161826,128.053942 L296.987552,102.896266 L297.161826,77.7385892 L297.3361,52.5809129 L297.510373,27.3858921 L297.672199,2.26556017 Z" id="Path" fill="#9DADB7"></path>
            <path d="M7.79253112,145.045645 L39.2116183,145.045645 C40.1570268,145.045645 41.0928126,144.855843 41.9626556,144.485477 C42.802063,144.131375 43.5634576,143.615319 44.2033195,142.966805 C45.5389506,141.655013 46.2885241,139.859628 46.2821979,137.987552 L46.2821979,72.3858921 C46.2885241,70.5138164 45.5389506,68.7184308 44.2033195,67.406639 C43.5634576,66.7581254 42.802063,66.2420691 41.9626556,65.8879668 C41.0928126,65.5176008 40.1570268,65.3277987 39.2116183,65.3277987 L7.79253112,65.3277987 C5.92350914,65.3366487 4.13374082,66.083877 2.81327801,67.406639 C2.15188654,68.0414792 1.61931455,68.7980695 1.24481328,69.6348548 C0.873119719,70.5042841 0.682519044,71.4403452 0.684629675,72.3858921 L0.684629675,137.962656 C0.689223703,138.891431 0.879688077,139.809893 1.24481328,140.6639 C1.60171636,141.505459 2.11732671,142.270422 2.76348548,142.917012 C4.08394829,144.239774 5.8737166,144.987003 7.74273859,144.995851 L7.79253112,145.045645 Z" id="Path" fill="#9DADB7"></path>
            <path d="M297.311203,152.925311 L297.136929,127.767635 L296.987552,106.045643 L162.647303,106.045643 L162.647303,106.219917 L162.560166,108.024896 L162.485477,109.829876 L163.070539,109.829876 L163.481328,119.128631 L163.892116,128.427386 L164.302905,137.738589 L164.713693,147.037344 L221.676349,147.037344 C225.64407,147.110996 229.604587,147.406061 233.539419,147.921162 C242.458524,148.963835 251.229172,151.022849 259.680498,154.058091 C269.178423,157.580913 278.6639,162.846473 285.821577,170.751037 C292.979253,178.655602 297.697095,189.186722 297.697095,203.240664 L297.311203,152.925311 Z" id="Path" fill="#023852" opacity="0.3" style="mix-blend-mode: multiply;"></path>
            <path d="M0.721991701,106.045643 L0.721991701,137.676349 C0.728817068,141.580489 3.88840894,144.745643 7.79253112,144.759338 L39.2116183,144.759338 C40.1570268,144.760081 41.0928126,144.569536 41.9626556,144.19917 C42.802063,143.845068 43.5634576,143.329012 44.2033195,142.680498 C44.8559006,142.036628 45.3760639,141.271185 45.7344398,140.427386 C46.0960401,139.555282 46.2821577,138.620446 46.2821577,137.676349 L46.2821577,106.045643 L0.721991701,106.045643 Z" id="Path" fill="#023852" opacity="0.3" style="mix-blend-mode: multiply;"></path>
            <polygon id="Path" fill="#023852" points="168.560166 153.39834 132.298755 153.39834 96.0373444 153.39834 59.7634855 153.39834 23.5020747 153.39834 23.5020747 128.912863 23.5020747 104.414938 23.5020747 79.9170124 23.5020747 55.4315353 59.7634855 55.4315353 96.0373444 55.4315353 132.298755 55.4315353 168.560166 55.4315353 168.560166 79.9170124 168.560166 104.414938 168.560166 128.912863"></polygon>
            <path d="M56.1659751,69.0995851 L31.8547718,69.0995851 C31.5516288,69.0995851 31.2514022,69.0403969 30.9709544,68.9253112 C30.7036607,68.8071175 30.4592657,68.642783 30.2489627,68.439834 C30.0399019,68.2297449 29.8748552,67.9800587 29.7634855,67.7053942 C29.5152444,67.1423292 29.5152444,66.5008243 29.7634855,65.9377593 C29.871898,65.6651893 30.0374371,65.419003 30.2489627,65.2157676 C30.4548964,65.0043495 30.7001551,64.8352056 30.9709544,64.7178423 C31.2514022,64.6027567 31.5516288,64.5435685 31.8547718,64.5435685 L56.1659751,64.5435685 C56.4691181,64.5435685 56.7693447,64.6027567 57.0497925,64.7178423 C57.3188306,64.8383585 57.5635291,65.0071161 57.7717842,65.2157676 C57.9833098,65.419003 58.1488489,65.6651893 58.2572614,65.9377593 C58.5055025,66.5008243 58.5055025,67.1423292 58.2572614,67.7053942 C58.1458917,67.9800587 57.9808449,68.2297449 57.7717842,68.439834 C57.5597821,68.6406711 57.3157714,68.8047473 57.0497925,68.9253112 C56.7693447,69.0403969 56.4691181,69.0995851 56.1659751,69.0995851 L56.1659751,69.0995851 Z" id="Path" fill="#D2D7D7"></path>
            <path d="M56.1659751,81.0000334 L31.8547718,81.0000334 C31.5502001,81.0017069 31.2488088,80.9380327 30.9709544,80.813278 C30.4051787,80.5831083 29.9563107,80.1342404 29.7261411,79.5684647 C29.6013864,79.2906103 29.5377122,78.9892189 29.539193,78.6846473 C29.5348821,78.3797946 29.5986845,78.0777966 29.7261411,77.8008299 C29.9526277,77.2326195 30.402744,76.7825032 30.9709544,76.5560166 C31.2514022,76.4409309 31.5516288,76.3817427 31.8547718,76.3817427 L56.1659751,76.3817427 C56.4691181,76.3817427 56.7693447,76.4409309 57.0497925,76.5560166 C57.3182684,76.6720569 57.5630294,76.8366376 57.7717842,77.0414938 C58.1926452,77.4763576 58.4328728,78.0546832 58.4439834,78.659751 C58.4397312,78.9636875 58.3763093,79.2638847 58.2572614,79.5435685 C58.1488489,79.8161385 57.9833098,80.0623248 57.7717842,80.2655602 C57.5664333,80.474553 57.3208151,80.6397101 57.0497925,80.7510373 C56.776807,80.8973344 56.4751847,80.9822984 56.1659751,81.0000334 L56.1659751,81.0000334 Z" id="Path" fill="#D2D7D7"></path>
            <path d="M56.1659751,92.9004484 L31.8547718,92.9004484 C31.5502001,92.9021218 31.2488088,92.8384476 30.9709544,92.7136929 C30.4051787,92.4835233 29.9563107,92.0346553 29.7261411,91.4688797 C29.4773184,90.9016043 29.4773184,90.2560721 29.7261411,89.6887967 C29.8406226,89.4194724 30.0053883,89.1744363 30.2116183,88.966805 C30.4182509,88.7593607 30.663538,88.5944263 30.93361,88.4813278 C31.2140578,88.3662421 31.5142844,88.3070539 31.8174274,88.3070539 L56.1659751,88.3070539 C56.4691181,88.3070539 56.7693447,88.3662421 57.0497925,88.4813278 C57.3182684,88.5973681 57.5630294,88.7619488 57.7717842,88.966805 C57.9780142,89.1744363 58.1427798,89.4194724 58.2572614,89.6887967 C58.5060841,90.2560721 58.5060841,90.9016043 58.2572614,91.4688797 C58.1488489,91.7414497 57.9833098,91.987636 57.7717842,92.1908714 C57.5664333,92.3998642 57.3208151,92.5650213 57.0497925,92.6763485 C56.7748287,92.813997 56.4733067,92.8904392 56.1659751,92.9004484 Z" id="Path" fill="#D2D7D7"></path>
            <path d="M56.1659751,104.788382 L31.8547718,104.788382 C31.5516288,104.788393 31.2514022,104.729194 30.9709544,104.614108 C30.7008824,104.501009 30.4555953,104.336075 30.2489627,104.128631 C30.0399698,103.92328 29.8748128,103.677662 29.7634855,103.406639 C29.5146628,102.839364 29.5146628,102.193831 29.7634855,101.626556 C29.8748128,101.355533 30.0399698,101.109915 30.2489627,100.904564 C30.452198,100.693039 30.6983843,100.5275 30.9709544,100.419087 C31.2488088,100.294332 31.5502001,100.230658 31.8547718,100.232332 L56.1659751,100.232332 C56.4705467,100.230658 56.7719381,100.294332 57.0497925,100.419087 C57.6155682,100.649257 58.0644361,101.098125 58.2946058,101.6639 C58.5434285,102.231176 58.5434285,102.876708 58.2946058,103.443983 C58.1832785,103.715006 58.0181215,103.960624 57.8091286,104.165975 C57.6003738,104.370831 57.3556128,104.535412 57.0871369,104.651452 C56.7924411,104.758678 56.4791178,104.805253 56.1659751,104.788382 L56.1659751,104.788382 Z" id="Path" fill="#D2D7D7"></path>
            <path d="M56.1659751,116.688797 L31.8547718,116.688797 C31.5516288,116.688797 31.2514022,116.629608 30.9709544,116.514523 C30.7008824,116.401424 30.4555953,116.23649 30.2489627,116.029046 C30.0427327,115.821414 29.877967,115.576378 29.7634855,115.307054 C29.5146628,114.739779 29.5146628,114.094246 29.7634855,113.526971 C29.9936551,112.961195 30.4425231,112.512327 31.0082988,112.282158 C31.2861532,112.157403 31.5875445,112.093729 31.8921162,112.095402 L56.1659751,112.095402 C56.4705467,112.093729 56.7719381,112.157403 57.0497925,112.282158 C57.3208151,112.393485 57.5664333,112.558642 57.7717842,112.767635 C57.9833098,112.97087 58.1488489,113.217057 58.2572614,113.489627 C58.5060841,114.056902 58.5060841,114.702434 58.2572614,115.26971 C58.1427798,115.539034 57.9780142,115.78407 57.7717842,115.991701 C57.5630294,116.196557 57.3182684,116.361138 57.0497925,116.477178 C56.7719514,116.6051 56.471623,116.67701 56.1659751,116.688797 L56.1659751,116.688797 Z" id="Path" fill="#D2D7D7"></path>
            <path d="M56.1659751,128.589212 L31.8547718,128.589212 C31.5516288,128.589212 31.2514022,128.530023 30.9709544,128.414938 C30.7001551,128.297575 30.4548964,128.128431 30.2489627,127.917012 C30.0374371,127.713777 29.871898,127.467591 29.7634855,127.195021 C29.5152444,126.631956 29.5152444,125.990451 29.7634855,125.427386 C29.871898,125.154816 30.0374371,124.90863 30.2489627,124.705394 C30.4548964,124.493976 30.7001551,124.324832 30.9709544,124.207469 C31.2514022,124.092383 31.5516288,124.033195 31.8547718,124.033195 L56.1659751,124.033195 C56.4691181,124.033195 56.7693447,124.092383 57.0497925,124.207469 C57.3188306,124.327985 57.5635291,124.496743 57.7717842,124.705394 C57.9833098,124.90863 58.1488489,125.154816 58.2572614,125.427386 C58.5055025,125.990451 58.5055025,126.631956 58.2572614,127.195021 C58.1488489,127.467591 57.9833098,127.713777 57.7717842,127.917012 C57.5635291,128.125664 57.3188306,128.294422 57.0497925,128.414938 C56.7693447,128.530023 56.4691181,128.589212 56.1659751,128.589212 Z" id="Path" fill="#D2D7D7"></path>
            <path d="M56.1659751,140.489627 L31.8547718,140.489627 C31.5516288,140.489627 31.2514022,140.430438 30.9709544,140.315353 C30.7001551,140.197989 30.4548964,140.028846 30.2489627,139.817427 C30.0374371,139.614192 29.871898,139.368006 29.7634855,139.095436 C29.5152444,138.532371 29.5152444,137.890866 29.7634855,137.327801 C29.8748552,137.053136 30.0399019,136.80345 30.2489627,136.593361 C30.4592657,136.390412 30.7036607,136.226077 30.9709544,136.107884 C31.2514022,135.992798 31.5516288,135.93361 31.8547718,135.93361 L56.1659751,135.93361 C56.4691181,135.93361 56.7693447,135.992798 57.0497925,136.107884 C57.3157714,136.228448 57.5597821,136.392524 57.7717842,136.593361 C57.9808449,136.80345 58.1458917,137.053136 58.2572614,137.327801 C58.5055025,137.890866 58.5055025,138.532371 58.2572614,139.095436 C58.1488489,139.368006 57.9833098,139.614192 57.7717842,139.817427 C57.5635291,140.026079 57.3188306,140.194837 57.0497925,140.315353 C56.7693447,140.430438 56.4691181,140.489627 56.1659751,140.489627 Z" id="Path" fill="#D2D7D7"></path>
            <polygon id="Path" fill="#D2D7D7" points="53.8755187 173.900415 73.4439834 173.900415 92.9875519 173.900415 112.556017 173.900415 132.112033 173.900415 132.112033 168.585062 132.112033 163.26971 132.112033 157.954357 132.112033 152.639004 112.556017 152.639004 92.9875519 152.639004 73.4439834 152.639004 53.8755187 152.639004 53.8755187 157.954357 53.8755187 163.26971 53.8755187 168.585062"></polygon>
            <path d="M304.829876,202.76764 L292.792531,202.76764 C292.429257,202.76764 292.069514,202.69635 291.73444,202.556017 C291.416277,202.412449 291.125609,202.214458 290.875519,201.970954 C290.626385,201.720736 290.42775,201.424896 290.290456,201.099585 C290.150131,200.768872 290.078149,200.413193 290.078833,200.053942 L290.078833,3.46058091 C290.079165,3.09740488 290.151075,2.73785487 290.290456,2.40248963 C290.428044,2.08101255 290.626742,1.78930785 290.875519,1.54356846 C291.118892,1.29196731 291.411201,1.09285823 291.73444,0.958506224 C292.069514,0.818172901 292.429257,0.746883058 292.792531,0.746883058 L304.829876,0.746883058 C305.189127,0.746883058 305.544806,0.818181034 305.875519,0.958506224 C306.202541,1.09261283 306.498971,1.29164453 306.746888,1.54356846 C306.995665,1.78930785 307.194362,2.08101255 307.33195,2.40248963 C307.471331,2.73785487 307.543241,3.09740488 307.543573,3.46058091 L307.543573,200.053942 C307.544258,200.413193 307.472275,200.768872 307.33195,201.099585 C307.194657,201.424896 306.996022,201.720736 306.746888,201.970954 C306.492266,202.214669 306.197481,202.412596 305.875519,202.556017 C305.544806,202.696342 305.189127,202.76764 304.829876,202.76764 L304.829876,202.76764 Z" id="Path" fill="#D2D7D7"></path>
        </g>
    </g>
</svg>