<?xml version="1.0" encoding="UTF-8"?>
<svg width="440px" height="330px" viewBox="0 0 440 330" version="1.1" xmlns="http://www.w3.org/2000/svg" xmlns:xlink="http://www.w3.org/1999/xlink">
    <title>Graphic elements / Icons / Rich icons / Quote</title>
    <g id="Graphic-elements-/-Icons-/-Rich-icons-/-Quote" stroke="none" stroke-width="1" fill="none" fill-rule="evenodd">
        <g id="Quote-Illustration" transform="translate(0.000000, 73.000000)" fill-rule="nonzero">
            <path d="M291.047382,240.518703 L291.047382,206.712219 L229.600998,206.712219 L229.600998,240.518703 C229.422823,242.335392 228.897611,244.100998 228.053865,245.719701 C226.393034,249.054295 222.920269,251.094061 219.199002,250.920698 L301.493267,250.920698 C297.768814,251.095631 294.292051,249.056045 292.627431,245.719701 C291.769426,244.104502 291.232835,242.338222 291.047382,240.518703 Z" id="Path" fill="#9DADB7"></path>
            <polygon id="Path" fill="#71868E" points="229.535162 217.827431 260.302244 217.827431 291.058354 217.827431 291.058354 227.757606 291.058354 237.687781 260.302244 237.687781 229.535162 237.687781 229.535162 227.757606"></polygon>
            <path d="M432.000998,219.188038 L88.559601,219.188038 C84.6049381,219.181988 81.400556,215.977606 81.3945137,212.022943 L81.3945137,7.39551122 C81.4125353,3.44583167 84.6099214,0.248445573 88.559601,0.23042394 L432.000998,0.23042394 C435.95566,0.236466216 439.160043,3.44084828 439.166093,7.39551122 L439.166093,212.022943 C439.166093,213.924135 438.415049,215.748299 437.070702,217.092647 C435.726354,218.436994 433.90219,219.190948 432.000998,219.188038 Z" id="Path" fill="#023852"></path>
            <polygon id="Path" fill="#0099DA" points="92.6523691 198.921696 260.861845 198.921696 429.071322 198.921696 429.071322 106.302244 429.071322 13.6937656 260.861845 13.6937656 92.6523691 13.6937656 92.6523691 106.302244"></polygon>
            <path d="M265.953117,208.358105 C265.953117,205.235434 263.424909,202.702311 260.302244,202.696259 C258.221991,202.604615 256.259312,203.662219 255.191825,205.450045 C254.124339,207.237872 254.124339,209.467365 255.191825,211.255191 C256.259312,213.043018 258.221991,214.100622 260.302244,214.008978 C263.420631,214.00294 265.94708,211.476491 265.953117,208.358105 L265.953117,208.358105 Z" id="Path" fill="#416A7D"></path>
            <path d="M144.837905,68.4907731 L106.236409,68.4907731 L106.236409,219.18803 L154.647382,219.18803 L154.647382,78.3441397 C154.647382,72.8901556 150.226054,68.4688279 144.77207,68.4688279 L144.837905,68.4907731 Z" id="Path" fill="#023852" opacity="0.3"></path>
            <polygon id="Path" fill="#DEDEDC" opacity="0.6" points="58.878803 209.477307 44.6912718 209.477307 30.5147132 209.477307 30.5147132 208.017955 30.5147132 206.558603 44.6912718 206.558603 58.878803 206.558603 58.878803 208.017955"></polygon>
            <path d="M136.674314,78.3441397 C136.674314,72.8901556 132.252987,68.4688279 126.799002,68.4688279 L10.0179551,68.4688279 C4.56397105,68.4688279 0.142643392,72.8901556 0.142643392,78.3441397 L0.142643392,244.984539 C0.142643392,250.438523 4.56397105,254.85985 10.0179551,254.85985 L126.820948,254.85985 C132.274932,254.85985 136.696259,250.438523 136.696259,244.984539 L136.696259,78.3441397 L136.674314,78.3441397 Z" id="Path" fill="#023852"></path>
            <path d="M74.4269397,243.865337 C74.4225435,241.00816 72.4011361,238.551678 69.5982451,237.997352 C66.795354,237.443026 63.991059,238.945132 62.8994148,241.585547 C61.8077706,244.225961 62.7325955,247.269823 65.1086135,248.856648 C67.4846316,250.443473 70.6505671,250.131628 72.6713217,248.111721 C73.7976555,246.985859 74.4293791,245.457877 74.4269397,243.865337 Z" id="Path" fill="#416A7D"></path>
            <polygon id="Path" fill="#0099DA" points="127.621945 232.837905 68.4249377 232.837905 9.21695761 232.837905 9.21695761 155.031421 9.21695761 77.2249377 68.4249377 77.2249377 127.621945 77.2249377 127.621945 155.031421"></polygon>
            <path d="M127.512219,77.4553616 L9.44738155,77.4553616 L9.44738155,93.2887781 L9.44738155,109.111222 C19.7506234,119.600998 44.1097257,144.124688 68.5346633,168.505736 C92.959601,192.886783 117.384539,217.070324 127.687781,226.74813 L127.6,152.134663 L127.512219,77.4553616 Z" id="Path" fill="#31A9E0"></path>
            <path d="M97.842394,13.6389027 L122.563591,37.0763092 L147.284788,60.5027431 C171.680466,83.6036575 196.087116,106.693599 220.504738,129.772569 L293.757606,198.998504 L429.312718,198.998504 L429.312718,13.6389027 L97.842394,13.6389027 Z" id="Path" fill="#31A9E0"></path>
            <path d="M312.87182,250.920698 L205.241895,250.920698 C202.479253,250.926704 200.239489,253.161567 200.227431,255.92419 L317.886284,255.92419 C317.874227,253.161567 315.634463,250.926704 312.87182,250.920698 L312.87182,250.920698 Z" id="Path" fill="#CED6DB"></path>
            <polygon id="Path" fill="#FFFFFF" points="299.946135 173.827431 297.290773 176.482793 294.635411 179.138155 297.290773 181.793516 299.946135 184.45985 302.612469 181.793516 305.26783 179.138155 302.612469 176.482793"></polygon>
            <polygon id="Path" fill="#FFFFFF" points="315.801496 181.508229 316.37207 181.508229 316.942643 181.508229 316.942643 179.302743 316.942643 177.108229 316.37207 177.108229 315.801496 177.108229 315.801496 179.302743"></polygon>
            <polygon id="Path" fill="#FFFFFF" points="315.801496 176.318204 316.37207 176.318204 316.942643 176.318204 316.942643 175.780549 316.942643 175.253865 316.37207 175.253865 315.801496 175.253865 315.801496 175.780549"></polygon>
            <path d="M313.277805,177.009476 C312.967352,177.002737 312.660665,177.078462 312.389027,177.228928 C312.11707,177.380108 311.892827,177.604352 311.741646,177.876309 C311.668374,177.616245 311.509962,177.388285 311.291771,177.228928 C311.055064,177.081208 310.780728,177.005004 310.501746,177.009476 C310.202355,177.007979 309.907616,177.083553 309.645885,177.228928 C309.383879,177.377242 309.170454,177.598289 309.031421,177.865337 L309.031421,177.865337 L309.031421,177.108229 L307.934165,177.108229 L307.934165,181.497257 L309.031421,181.497257 L309.031421,179.302743 C309.018829,178.958129 309.110617,178.617746 309.294763,178.326185 C309.441659,178.096433 309.691609,177.95302 309.96409,177.942145 C310.175986,177.934885 310.377582,178.033626 310.501746,178.205486 C310.634788,178.402498 310.70025,178.637388 310.688279,178.874813 L310.688279,181.530175 L311.785536,181.530175 L311.785536,179.335661 C311.766018,178.974481 311.853828,178.615603 312.037905,178.304239 C312.181735,178.072764 312.434711,177.931761 312.707232,177.931172 C312.928121,177.920616 313.137644,178.029568 313.25586,178.216459 C313.394206,178.479659 313.458667,178.77542 313.442394,179.072319 L313.442394,181.519202 L314.594514,181.519202 L314.594514,178.951621 C314.621324,178.473448 314.510921,177.997573 314.276309,177.58005 C314.03718,177.210459 313.618632,176.997 313.179052,177.020449" id="Path" fill="#FFFFFF"></path>
            <path d="M334.05985,180.74015 C333.750548,180.744485 333.45748,180.602022 333.269825,180.35611 C333.063775,180.052615 332.959984,179.691269 332.973566,179.324688 C332.949578,178.93637 333.053654,178.550906 333.269825,178.227431 C333.457372,177.975422 333.756899,177.831814 334.070823,177.843392 C334.38548,177.831179 334.687096,177.969759 334.882793,178.216459 C335.11049,178.534586 335.215691,178.924218 335.179052,179.313716 C335.205855,179.703914 335.097352,180.091427 334.87182,180.410973 C334.681943,180.667379 334.378784,180.814862 334.05985,180.805985 M334.05985,177.075312 C333.434371,177.049695 332.823773,177.270298 332.359102,177.689776 C331.498049,178.639165 331.498049,180.08702 332.359102,181.036409 C333.019157,181.72227 334.031739,181.934241 334.91147,181.570716 C335.791202,181.207191 336.358782,180.342259 336.342145,179.390524 C336.361283,178.765356 336.132527,178.157968 335.705736,177.700748 C335.260884,177.283649 334.669437,177.058899 334.05985,177.075312" id="Shape" fill="#FFFFFF"></path>
            <path d="M339.52419,177.009476 C339.228072,177.006322 338.936454,177.082067 338.679302,177.228928 C338.428175,177.381518 338.217428,177.592265 338.064838,177.843392 L338.064838,177.843392 L338.064838,177.108229 L336.967581,177.108229 L336.967581,181.497257 L338.064838,181.497257 L338.064838,179.511222 C338.052307,179.313914 338.052307,179.116011 338.064838,178.918703 C338.095819,178.767527 338.143666,178.620305 338.207481,178.4798 C338.302524,178.313713 338.433792,178.171193 338.591521,178.062843 C338.744872,177.962671 338.924063,177.909295 339.107232,177.909227 C339.402878,177.875337 339.683548,178.047361 339.787531,178.326185 C339.896929,178.680984 339.937889,179.053345 339.908229,179.423441 L339.908229,181.541147 L341.005486,181.541147 L341.005486,178.973566 C341.04159,178.479906 340.918531,177.98767 340.654364,177.569077 C340.361191,177.195628 339.898053,176.997141 339.425436,177.042394" id="Path" fill="#FFFFFF"></path>
            <path d="M342.914713,178.852868 C342.928453,178.563407 343.049754,178.2895 343.254863,178.084788 C343.434899,177.913988 343.676204,177.823004 343.92419,177.832419 C344.17137,177.814801 344.414483,177.90248 344.593516,178.073815 C344.775022,178.291201 344.86545,178.570346 344.845885,178.852868 L342.914713,178.852868 L342.914713,178.852868 Z M345.899252,179.368579 C345.947598,178.73655 345.772881,178.107568 345.405486,177.591022 C345.039475,177.19007 344.509434,176.979672 343.96808,177.020449 C343.36963,177.005201 342.790927,177.235096 342.366085,177.656858 C341.961662,178.103642 341.745452,178.689376 341.762594,179.291771 C341.731309,179.932829 341.970098,180.557661 342.420948,181.014464 C342.89862,181.432991 343.520305,181.6494 344.154613,181.617955 C344.416337,181.621199 344.677615,181.595439 344.933666,181.541147 C345.161472,181.501488 345.382909,181.431366 345.59202,181.332668 L345.59202,180.389027 C345.409809,180.507822 345.209779,180.596724 344.999501,180.652369 C344.775323,180.719718 344.542299,180.753007 344.308229,180.751122 C343.960385,180.764467 343.61882,180.655787 343.342643,180.44389 C343.096373,180.251671 342.954262,179.955268 342.958603,179.642893 L345.899252,179.642893 C345.905587,179.595556 345.905587,179.547586 345.899252,179.500249 C345.904237,179.456501 345.904237,179.412327 345.899252,179.368579" id="Shape" fill="#FFFFFF"></path>
            <path d="M321.364589,178.852868 C321.375376,178.564903 321.492679,178.291196 321.693766,178.084788 C321.879704,177.916415 322.123302,177.826047 322.374065,177.832419 C322.620677,177.818795 322.862246,177.905918 323.043392,178.073815 C323.224898,178.291201 323.315325,178.570346 323.295761,178.852868 L321.364589,178.852868 L321.364589,178.852868 Z M324.338155,179.368579 C324.384214,178.738382 324.213903,178.111328 323.855362,177.591022 C323.484069,177.19104 322.951318,176.981168 322.406983,177.020449 C321.810905,177.00033 321.233727,177.231201 320.81596,177.656858 C320.411538,178.103642 320.195327,178.689376 320.212469,179.291771 C320.176924,179.93141 320.411845,180.55654 320.85985,181.014464 C321.342056,181.432661 321.966947,181.648819 322.604489,181.617955 C322.866212,181.621199 323.12749,181.595439 323.383541,181.541147 C323.607439,181.49993 323.825048,181.429852 324.030923,181.332668 L324.030923,180.389027 C323.845911,180.509958 323.641913,180.598975 323.427431,180.652369 C323.207026,180.719779 322.977607,180.753081 322.747132,180.751122 C322.399034,180.766357 322.056838,180.657476 321.781546,180.44389 C321.535112,180.250696 321.389788,179.956011 321.386534,179.642893 L324.338155,179.642893 C324.338155,179.642893 324.338155,179.555112 324.338155,179.500249 L324.338155,179.368579" id="Shape" fill="#FFFFFF"></path>
            <path d="M326.785037,178.852868 C326.562494,178.79761 326.35099,178.704845 326.159601,178.578554 C326.042808,178.511564 325.974607,178.383687 325.98404,178.249377 C325.985215,178.106186 326.059786,177.973616 326.181546,177.898254 C326.324498,177.815799 326.488701,177.777613 326.653367,177.788529 C326.823272,177.785025 326.99292,177.803465 327.158105,177.843392 C327.335196,177.885392 327.507881,177.944178 327.673815,178.018953 L327.673815,177.141147 C327.512888,177.084528 327.347802,177.040505 327.18005,177.009476 C326.986373,176.997922 326.79218,176.997922 326.598504,177.009476 C326.149199,176.985388 325.704824,177.112904 325.336658,177.371571 C325.027693,177.60406 324.851582,177.972663 324.864838,178.359102 C324.851174,178.639383 324.945413,178.914248 325.12818,179.127182 C325.386756,179.360348 325.694161,179.532795 326.02793,179.63192 C326.272652,179.698539 326.505764,179.802144 326.719202,179.939152 C326.837631,180.020317 326.904385,180.157997 326.894763,180.301247 C326.89373,180.450321 326.808858,180.586116 326.675312,180.652369 C326.520459,180.735901 326.346463,180.777508 326.170574,180.773067 C325.974912,180.772265 325.779917,180.75019 325.589027,180.707232 C325.378256,180.651955 325.172667,180.57853 324.974564,180.487781 L324.974564,181.409476 C325.174848,181.47737 325.380356,181.528747 325.589027,181.563092 C325.804497,181.579826 326.02094,181.579826 326.236409,181.563092 C326.69596,181.587041 327.150714,181.459864 327.531172,181.200998 C327.861103,180.963051 328.050463,180.576099 328.03591,180.169576 C328.056366,179.849918 327.936121,179.53728 327.706733,179.313716 C327.434564,179.09574 327.121011,178.935231 326.785037,178.841895" id="Path" fill="#FFFFFF"></path>
            <path d="M331.371571,180.564589 L331.163092,180.619451 L330.954613,180.619451 C330.739963,180.650879 330.525298,180.562487 330.395012,180.389027 C330.28701,180.163795 330.241533,179.913673 330.263342,179.664838 L330.263342,177.942145 L331.360599,177.942145 L331.360599,177.097257 L330.263342,177.097257 L330.263342,174.968579 L329.725686,175.506234 L329.18803,176.04389 L329.18803,177.141147 L328.33217,177.141147 L328.33217,177.986035 L329.177057,177.986035 L329.177057,179.950125 C329.134564,180.397996 329.255367,180.846136 329.517207,181.21197 C329.804261,181.503022 330.207763,181.648282 330.614464,181.606983 C330.756867,181.618689 330.899991,181.618689 331.042394,181.606983 C331.16588,181.590731 331.28727,181.561303 331.404489,181.519202 L331.404489,180.641397 L331.371571,180.564589 Z" id="Path" fill="#FFFFFF"></path>
            <polygon id="Path" fill="#FFFFFF" points="318.259352 176.120698 318.259352 178.808978 318.259352 181.508229 318.840898 181.508229 319.411471 181.508229 319.411471 178.238404 319.411471 174.979551 318.840898 175.550125"></polygon>
            <polygon id="Path" fill="#FFFFFF" points="299.946135 173.827431 297.290773 176.482793 294.635411 179.138155 297.290773 181.793516 299.946135 184.45985 302.612469 181.793516 305.26783 179.138155 302.612469 176.482793"></polygon>
            <polygon id="Path" fill="#FFFFFF" points="316.942643 177.108229 316.37207 177.108229 315.801496 177.108229 315.801496 179.302743 315.801496 181.508229 316.37207 181.508229 316.942643 181.508229 316.942643 179.302743"></polygon>
            <polygon id="Path" fill="#FFFFFF" points="316.942643 175.253865 316.37207 175.253865 315.801496 175.253865 315.801496 175.780549 315.801496 176.318204 316.37207 176.318204 316.942643 176.318204 316.942643 175.780549"></polygon>
            <path d="M313.277805,177.009476 C312.967352,177.002737 312.660665,177.078462 312.389027,177.228928 C312.11707,177.380108 311.892827,177.604352 311.741646,177.876309 C311.668374,177.616245 311.509962,177.388285 311.291771,177.228928 C311.055064,177.081208 310.780728,177.005004 310.501746,177.009476 C310.202355,177.007979 309.907616,177.083553 309.645885,177.228928 C309.383879,177.377242 309.170454,177.598289 309.031421,177.865337 L309.031421,177.865337 L309.031421,177.108229 L307.934165,177.108229 L307.934165,181.497257 L309.031421,181.497257 L309.031421,179.302743 C309.018829,178.958129 309.110617,178.617746 309.294763,178.326185 C309.441659,178.096433 309.691609,177.95302 309.96409,177.942145 C310.175986,177.934885 310.377582,178.033626 310.501746,178.205486 C310.634788,178.402498 310.70025,178.637388 310.688279,178.874813 L310.688279,181.530175 L311.785536,181.530175 L311.785536,179.335661 C311.766018,178.974481 311.853828,178.615603 312.037905,178.304239 C312.181735,178.072764 312.434711,177.931761 312.707232,177.931172 C312.928121,177.920616 313.137644,178.029568 313.25586,178.216459 C313.394206,178.479659 313.458667,178.77542 313.442394,179.072319 L313.442394,181.519202 L314.594514,181.519202 L314.594514,178.951621 C314.621324,178.473448 314.510921,177.997573 314.276309,177.58005 C314.03718,177.210459 313.618632,176.997 313.179052,177.020449" id="Path" fill="#FFFFFF"></path>
            <path d="M334.103741,177.009476 C333.478261,176.98386 332.867664,177.204462 332.402993,177.62394 C331.541939,178.57333 331.541939,180.021184 332.402993,180.970574 C333.063048,181.656434 334.07563,181.868406 334.955361,181.504881 C335.835092,181.141355 336.402673,180.276424 336.386035,179.324688 C336.405174,178.699521 336.176417,178.092132 335.749626,177.634913 C335.304774,177.217813 334.713327,176.993063 334.103741,177.009476 M334.103741,180.74015 C333.794438,180.744485 333.501371,180.602022 333.313716,180.35611 C333.107665,180.052615 333.003875,179.691269 333.017456,179.324688 C332.993469,178.93637 333.097544,178.550906 333.313716,178.227431 C333.501263,177.975422 333.800789,177.831814 334.114713,177.843392 C334.42937,177.831179 334.730986,177.969759 334.926683,178.216459 C335.154381,178.534586 335.259581,178.924218 335.222943,179.313716 C335.249746,179.703914 335.141242,180.091427 334.915711,180.410973 C334.725834,180.667379 334.422675,180.814862 334.103741,180.805985" id="Shape" fill="#FFFFFF"></path>
            <path d="M339.52419,177.009476 C339.228072,177.006322 338.936454,177.082067 338.679302,177.228928 C338.428175,177.381518 338.217428,177.592265 338.064838,177.843392 L338.064838,177.843392 L338.064838,177.108229 L336.967581,177.108229 L336.967581,181.497257 L338.064838,181.497257 L338.064838,179.511222 C338.052307,179.313914 338.052307,179.116011 338.064838,178.918703 C338.095819,178.767527 338.143666,178.620305 338.207481,178.4798 C338.302524,178.313713 338.433792,178.171193 338.591521,178.062843 C338.744872,177.962671 338.924063,177.909295 339.107232,177.909227 C339.402878,177.875337 339.683548,178.047361 339.787531,178.326185 C339.896929,178.680984 339.937889,179.053345 339.908229,179.423441 L339.908229,181.541147 L341.005486,181.541147 L341.005486,178.973566 C341.04159,178.479906 340.918531,177.98767 340.654364,177.569077 C340.361191,177.195628 339.898053,176.997141 339.425436,177.042394" id="Path" fill="#FFFFFF"></path>
            <path d="M343.96808,177.009476 C343.36963,176.994228 342.790927,177.224124 342.366085,177.645885 C341.961662,178.092669 341.745452,178.678403 341.762594,179.280798 C341.731309,179.921856 341.970098,180.546688 342.420948,181.003491 C342.89862,181.422018 343.520305,181.638428 344.154613,181.606983 C344.416337,181.610226 344.677615,181.584466 344.933666,181.530175 C345.161472,181.490515 345.382909,181.420393 345.59202,181.321696 L345.59202,180.378055 C345.409809,180.496849 345.209779,180.585752 344.999501,180.641397 C344.775323,180.708745 344.542299,180.742035 344.308229,180.74015 C343.960385,180.753494 343.61882,180.644814 343.342643,180.432918 C343.096373,180.240698 342.954262,179.944296 342.958603,179.63192 L345.899252,179.63192 C345.905587,179.584583 345.905587,179.536614 345.899252,179.489277 C345.904237,179.445528 345.904237,179.401355 345.899252,179.357606 C345.947598,178.725577 345.772881,178.096595 345.405486,177.58005 C345.039475,177.179098 344.509434,176.9687 343.96808,177.009476 M342.870823,178.841895 C342.884563,178.552434 343.005864,178.278528 343.210973,178.073815 C343.391009,177.903015 343.632313,177.812032 343.880299,177.821446 C344.12748,177.803828 344.370592,177.891508 344.549626,178.062843 C344.731132,178.280229 344.821559,178.559374 344.801995,178.841895 L342.870823,178.841895 L342.870823,178.841895 Z" id="Shape" fill="#FFFFFF"></path>
            <path d="M322.406983,177.009476 C321.810905,176.989357 321.233727,177.220229 320.81596,177.645885 C320.411538,178.092669 320.195327,178.678403 320.212469,179.280798 C320.176924,179.920438 320.411845,180.545568 320.85985,181.003491 C321.342056,181.421689 321.966947,181.637846 322.604489,181.606983 C322.866212,181.610226 323.12749,181.584466 323.383541,181.530175 C323.607439,181.488957 323.825048,181.41888 324.030923,181.321696 L324.030923,180.378055 C323.845911,180.498985 323.641913,180.588003 323.427431,180.641397 C323.207026,180.708806 322.977607,180.742109 322.747132,180.74015 C322.399034,180.755384 322.056838,180.646504 321.781546,180.432918 C321.535112,180.239723 321.389788,179.945039 321.386534,179.63192 L324.338155,179.63192 C324.338155,179.63192 324.338155,179.54414 324.338155,179.489277 L324.338155,179.357606 C324.384214,178.727409 324.213903,178.100355 323.855362,177.58005 C323.484069,177.180067 322.951318,176.970196 322.406983,177.009476 M321.364589,178.841895 C321.375376,178.553931 321.492679,178.280223 321.693766,178.073815 C321.879704,177.905442 322.123302,177.815075 322.374065,177.821446 C322.620677,177.807822 322.862246,177.894946 323.043392,178.062843 C323.224898,178.280229 323.315325,178.559374 323.295761,178.841895 L321.364589,178.841895 L321.364589,178.841895 Z" id="Shape" fill="#FFFFFF"></path>
            <path d="M326.598504,177.009476 C326.149199,176.985388 325.704824,177.112904 325.336658,177.371571 C325.027693,177.60406 324.851582,177.972663 324.864838,178.359102 C324.851174,178.639383 324.945413,178.914248 325.12818,179.127182 C325.386756,179.360348 325.694161,179.532795 326.02793,179.63192 C326.272652,179.698539 326.505764,179.802144 326.719202,179.939152 C326.837631,180.020317 326.904385,180.157997 326.894763,180.301247 C326.89373,180.450321 326.808858,180.586116 326.675312,180.652369 C326.520459,180.735901 326.346463,180.777508 326.170574,180.773067 C325.974912,180.772265 325.779917,180.75019 325.589027,180.707232 C325.378256,180.651955 325.172667,180.57853 324.974564,180.487781 L324.974564,181.409476 C325.174848,181.47737 325.380356,181.528747 325.589027,181.563092 C325.804497,181.579826 326.02094,181.579826 326.236409,181.563092 C326.69596,181.587041 327.150714,181.459864 327.531172,181.200998 C327.861103,180.963051 328.050463,180.576099 328.03591,180.169576 C328.056366,179.849918 327.936121,179.53728 327.706733,179.313716 C327.434564,179.09574 327.121011,178.935231 326.785037,178.841895 C326.565055,178.784426 326.354437,178.695745 326.159601,178.578554 C326.044718,178.504492 325.977858,178.374951 325.98404,178.238404 C325.9866,178.098296 326.055909,177.967834 326.170574,177.887282 C326.318077,177.806277 326.485341,177.768263 326.653367,177.777556 C326.823272,177.774053 326.99292,177.792493 327.158105,177.832419 C327.335196,177.874419 327.507881,177.933205 327.673815,178.00798 L327.673815,177.119202 L327.18005,176.998504 C326.986373,176.98695 326.79218,176.98695 326.598504,176.998504" id="Path" fill="#FFFFFF"></path>
            <path d="M330.274314,174.979551 L329.736658,175.517207 L329.199002,176.054863 L329.199002,177.15212 L328.343142,177.15212 L328.343142,177.997007 L329.177057,177.997007 L329.177057,179.950125 C329.134564,180.397996 329.255367,180.846136 329.517207,181.21197 C329.805982,181.50032 330.20816,181.645104 330.614464,181.606983 C330.756867,181.618689 330.899991,181.618689 331.042394,181.606983 C331.16588,181.590731 331.28727,181.561303 331.404489,181.519202 L331.404489,180.641397 L331.19601,180.696259 L330.987531,180.696259 C330.77288,180.727687 330.558216,180.639295 330.42793,180.465835 C330.319927,180.240603 330.274451,179.990481 330.296259,179.741646 L330.296259,178.018953 L331.393516,178.018953 L331.393516,177.174065 L330.296259,177.174065 L330.296259,175.045387 L330.274314,174.979551 Z" id="Path" fill="#FFFFFF"></path>
            <polygon id="Path" fill="#FFFFFF" points="319.411471 174.979551 318.840898 175.550125 318.259352 176.120698 318.259352 178.808978 318.259352 181.508229 318.840898 181.508229 319.411471 181.508229 319.411471 178.238404"></polygon>
            <polygon id="Path" fill="#FFFFFF" points="299.946135 173.827431 297.290773 176.482793 294.635411 179.138155 297.290773 181.793516 299.946135 184.45985 302.612469 181.793516 305.26783 179.138155 302.612469 176.482793"></polygon>
            <polygon id="Path" fill="#FFE700" points="352.263342 184.350125 352.713217 184.350125 353.174065 184.350125 353.174065 179.138155 353.174065 173.926185 352.713217 173.926185 352.263342 173.926185 352.263342 179.138155"></polygon>
            <path d="M385.290773,180.553616 L385.082294,180.553616 L384.884788,180.553616 C384.676835,180.581505 384.470352,180.493013 384.347132,180.323192 C384.238989,180.10192 384.193454,179.855275 384.215461,179.609975 L384.215461,177.942145 L385.23591,177.942145 L385.23591,177.119202 L384.215461,177.119202 L384.215461,175.045387 L383.688778,175.561097 L383.173067,176.087781 L383.173067,177.119202 L382.32818,177.119202 L382.32818,177.942145 L383.151122,177.942145 L383.151122,179.950125 C383.115306,180.385519 383.231645,180.819855 383.480299,181.179052 C383.772156,181.460751 384.174479,181.597541 384.577556,181.55212 C384.716316,181.563327 384.855754,181.563327 384.994514,181.55212 L385.345636,181.475312 L385.345636,180.619451 L385.290773,180.553616 Z" id="Path" fill="#FFFFFF"></path>
            <path d="M368.217456,179.456359 C367.873936,179.436659 367.530091,179.488983 367.20798,179.609975 C366.991249,179.693509 366.850608,179.904471 366.856858,180.136658 C366.849449,180.298205 366.913689,180.454791 367.032419,180.564589 C367.171996,180.675758 367.348175,180.730569 367.526185,180.718204 C367.804699,180.724267 368.073822,180.617409 368.272319,180.421945 C368.492539,180.154465 368.60242,179.813047 368.579551,179.467332 L368.217456,179.467332 M368.678304,180.729177 L368.678304,180.729177 C368.541009,180.968656 368.344551,181.168892 368.107731,181.310723 C367.833263,181.46411 367.522248,181.539968 367.20798,181.530175 C366.836713,181.539404 366.474513,181.414777 366.187531,181.179052 C365.921013,180.925851 365.776985,180.569783 365.792519,180.202494 C365.781512,179.780636 365.999871,179.385911 366.363092,179.171072 C366.861776,178.905943 367.422953,178.780816 367.987032,178.808978 L368.272319,178.808978 L368.590524,178.808978 C368.615647,178.544356 368.527999,178.281411 368.349127,178.084788 C368.129768,177.91773 367.855553,177.839383 367.581047,177.865337 C367.354353,177.865924 367.128926,177.899184 366.911721,177.96409 C366.692469,178.028679 366.482308,178.120854 366.286284,178.238404 L366.286284,177.810474 L366.286284,177.382544 C366.519574,177.267416 366.766633,177.182604 367.021446,177.130175 C367.285295,177.078464 367.553577,177.052738 367.822444,177.053367 C368.3392,177.008219 368.851589,177.179016 369.237905,177.525187 C369.544023,177.871379 369.698215,178.326046 369.665835,178.787032 L369.665835,181.409476 L368.678304,181.409476 L368.678304,180.696259 L368.678304,180.729177 Z" id="Shape" fill="#FFFFFF"></path>
            <path d="M395.264838,179.456359 C394.921318,179.436659 394.577472,179.488983 394.255362,179.609975 C394.08337,179.694043 393.961466,179.854727 393.92684,180.043007 C393.892213,180.231288 393.948972,180.42483 394.0798,180.564589 C394.221259,180.672156 394.39605,180.726536 394.573566,180.718204 C394.852308,180.72554 395.121912,180.618492 395.319701,180.421945 C395.549044,180.159031 395.663631,179.815269 395.637905,179.467332 L395.264838,179.467332 M395.725686,180.729177 L395.725686,180.729177 C395.588391,180.968656 395.391933,181.168892 395.155112,181.310723 C394.884068,181.462694 394.576964,181.538522 394.266334,181.530175 C393.894914,181.540397 393.532377,181.415653 393.245885,181.179052 C392.975324,180.927823 392.827185,180.571489 392.8399,180.202494 C392.828894,179.780636 393.047252,179.385911 393.410474,179.171072 C393.906855,178.924964 394.459711,178.81515 395.012469,178.852868 L395.308728,178.852868 L395.61596,178.852868 C395.641083,178.588246 395.553435,178.325301 395.374564,178.128678 C395.15809,177.964273 394.888296,177.886072 394.617456,177.909227 C394.387096,177.908909 394.157919,177.942176 393.937157,178.00798 C393.718662,178.074628 393.508746,178.166696 393.311721,178.282294 L393.311721,177.854364 L393.311721,177.426434 C393.544325,177.309667 393.791604,177.22478 394.046883,177.174065 C394.306956,177.121853 394.571648,177.096119 394.836908,177.097257 C395.353663,177.05211 395.866053,177.222906 396.252369,177.569077 C396.558487,177.915269 396.712678,178.369936 396.680299,178.830923 L396.680299,181.453367 L395.758603,181.453367 L395.758603,180.74015 L395.725686,180.729177 Z" id="Shape" fill="#FFFFFF"></path>
            <path d="M381.022444,178.852868 C381.0394,178.579202 380.953282,178.309104 380.781047,178.095761 C380.605389,177.926163 380.366349,177.838515 380.122693,177.854364 C379.882655,177.853085 379.651153,177.943332 379.475312,178.106733 C379.278287,178.306993 379.161222,178.572341 379.146135,178.852868 L381.022444,178.852868 L381.022444,178.852868 Z M379.16808,179.609975 C379.177712,179.913606 379.312791,180.199656 379.541147,180.4 C379.814294,180.599248 380.147005,180.699835 380.484788,180.685287 C380.707106,180.68453 380.928393,180.655025 381.143142,180.597506 C381.348501,180.542882 381.544523,180.457816 381.724688,180.345137 L381.724688,181.25586 C381.524067,181.34439 381.314331,181.410622 381.099252,181.453367 C380.850701,181.508153 380.596634,181.533928 380.342145,181.530175 C379.724908,181.561908 379.119345,181.3535 378.652369,180.948628 C378.217495,180.506095 377.990269,179.900158 378.026933,179.280798 C378.0095,178.695491 378.217704,178.125875 378.608479,177.689776 C379.018689,177.282348 379.577644,177.060352 380.155611,177.075312 C380.685248,177.033784 381.204145,177.240533 381.5601,177.634913 C381.909128,178.134443 382.07572,178.738823 382.03192,179.346633 C382.03192,179.346633 382.03192,179.434414 382.03192,179.478304 C382.03192,179.522195 382.03192,179.58803 382.03192,179.609975 L379.179052,179.609975 L379.16808,179.609975 Z" id="Shape" fill="#FFFFFF"></path>
            <path d="M387.035411,179.302743 C387.027794,179.653282 387.127322,179.9978 387.320698,180.290274 C387.500271,180.534116 387.785961,180.676961 388.088778,180.674314 C388.386071,180.679166 388.666097,180.535035 388.834913,180.290274 C389.013341,179.988648 389.100967,179.641953 389.087282,179.291771 C389.106519,178.942989 389.01429,178.597131 388.82394,178.304239 C388.65851,178.069769 388.386585,177.933806 388.099751,177.942145 C387.796934,177.939498 387.511244,178.082343 387.331671,178.326185 C387.128368,178.610343 387.024257,178.953524 387.035411,179.302743 M386.980549,177.854364 L386.980549,177.854364 C387.139177,177.613968 387.349009,177.41163 387.595012,177.261845 C387.852069,177.128304 388.139474,177.064016 388.428928,177.075312 C388.932861,177.057865 389.415959,177.277086 389.734663,177.66783 C390.075534,178.125983 390.246238,178.68853 390.217456,179.258853 C390.24068,179.847151 390.066913,180.426374 389.723691,180.904738 C389.399199,181.310282 388.904299,181.541506 388.385037,181.530175 C388.101446,181.539501 387.820691,181.471209 387.573067,181.332668 C387.34728,181.185412 387.156311,180.990699 387.013466,180.762095 L387.013466,180.762095 C387.013466,180.849875 387.013466,181.036409 387.013466,181.244888 L387.013466,183.17606 L385.916209,183.17606 L385.916209,177.15212 L387.013466,177.15212 L387.013466,177.854364 L386.980549,177.854364 Z" id="Shape" fill="#FFFFFF"></path>
            <path d="M400.498753,178.084788 C400.400374,178.040442 400.297314,178.007316 400.191521,177.986035 C400.071112,177.974223 399.949836,177.974223 399.829426,177.986035 C399.468103,177.967987 399.117738,178.112966 398.874813,178.381047 C398.658066,178.650997 398.545181,178.989653 398.556608,179.335661 C398.540102,179.680563 398.649264,180.019744 398.86384,180.290274 C399.119866,180.558269 399.481555,180.698926 399.851372,180.674314 C399.971781,180.686127 400.093057,180.686127 400.213466,180.674314 C400.337253,180.644021 400.458355,180.603654 400.575561,180.553616 L400.575561,180.992519 L400.575561,181.420449 C400.44229,181.474014 400.301743,181.507301 400.158603,181.519202 C399.997889,181.53102 399.836525,181.53102 399.67581,181.519202 C399.055804,181.547033 398.448223,181.339279 397.975062,180.937656 C397.094738,180.055348 397.094738,178.626946 397.975062,177.744638 C398.423035,177.350669 399.002576,177.139215 399.599002,177.15212 C399.756045,177.140069 399.91378,177.140069 400.070823,177.15212 C400.209263,177.164461 400.345635,177.193947 400.476808,177.2399 L400.476808,177.656858 L400.498753,178.084788 Z" id="Path" fill="#FFFFFF"></path>
            <path d="M404.141646,178.852868 C404.158602,178.579202 404.072484,178.309104 403.900249,178.095761 C403.727966,177.927897 403.492996,177.840281 403.252868,177.854364 C403.009052,177.850263 402.773114,177.940706 402.594514,178.106733 C402.397034,178.305669 402.283178,178.572641 402.276309,178.852868 L404.141646,178.852868 L404.141646,178.852868 Z M402.287282,179.609975 C402.296914,179.913606 402.431993,180.199656 402.660349,180.4 C402.933496,180.599248 403.266207,180.699835 403.60399,180.685287 C403.829965,180.685232 404.054969,180.655723 404.273317,180.597506 C404.474556,180.540986 404.666689,180.456004 404.84389,180.345137 L404.84389,181.25586 C404.639452,181.344332 404.426088,181.410549 404.207481,181.453367 C403.95893,181.508153 403.704864,181.533928 403.450374,181.530175 C402.836205,181.563685 402.233407,181.354873 401.771571,180.948628 C401.332687,180.50798 401.101383,179.901804 401.135162,179.280798 C401.117729,178.695491 401.325934,178.125875 401.716708,177.689776 C402.126919,177.282348 402.685873,177.060352 403.26384,177.075312 C403.793736,177.032069 404.313366,177.23911 404.668329,177.634913 C405.017357,178.134443 405.183949,178.738823 405.14015,179.346633 C405.145134,179.390382 405.145134,179.434555 405.14015,179.478304 C405.147123,179.521917 405.147123,179.566362 405.14015,179.609975 L402.287282,179.609975 L402.287282,179.609975 Z" id="Shape" fill="#FFFFFF"></path>
            <path d="M363.630923,177.053367 C363.329118,177.049517 363.031139,177.121183 362.76409,177.261845 C362.501336,177.412796 362.285012,177.632916 362.138653,177.898254 C362.069221,177.642252 361.909404,177.420067 361.688778,177.272818 C361.460761,177.123839 361.193003,177.047337 360.920698,177.053367 C360.632081,177.054561 360.348645,177.130143 360.097756,177.272818 C359.842487,177.41639 359.633214,177.629468 359.494264,177.887282 L359.494264,177.887282 L359.494264,177.15212 L358.473815,177.15212 L358.473815,181.431421 L359.571072,181.431421 L359.571072,179.236908 C359.560018,178.895918 359.651772,178.559485 359.834414,178.271322 C359.977952,178.051957 360.21975,177.916715 360.481796,177.909227 C360.68867,177.89921 360.88667,177.994085 361.008479,178.161596 C361.13314,178.353774 361.19453,178.580148 361.18404,178.808978 L361.18404,181.398504 L362.281297,181.398504 L362.281297,179.280798 C362.260072,178.926403 362.348164,178.574035 362.533666,178.271322 C362.66993,178.04431 362.916293,177.906513 363.181047,177.909227 C363.396405,177.898036 363.601368,178.002609 363.718703,178.183541 C363.847508,178.441949 363.90795,178.729051 363.894264,179.017456 L363.894264,181.398504 L364.991521,181.398504 L364.991521,178.907731 C365.014292,178.443045 364.911983,177.98076 364.695262,177.569077 C364.455034,177.201905 364.035879,176.992327 363.598005,177.020449" id="Path" fill="#FFFFFF"></path>
            <polygon id="Path" fill="#FFFFFF" points="390.996509 176.219451 390.996509 178.841895 390.996509 181.464339 391.55611 181.464339 392.104738 181.464339 392.104738 178.282294 392.104738 175.111222 391.55611 175.65985"></polygon>
            <path d="M373.18803,177.119202 L373.023441,177.119202 L372.84788,177.119202 C372.575498,177.111901 372.308659,177.19698 372.090773,177.360599 C371.872842,177.534104 371.709121,177.766358 371.618953,178.029925 L371.618953,178.029925 L371.618953,177.19601 L370.576559,177.19601 L370.576559,181.475312 L371.673815,181.475312 L371.673815,179.741646 C371.643729,179.303527 371.738868,178.865887 371.94813,178.4798 C372.133234,178.203609 372.450029,178.045212 372.782045,178.062843 L372.979551,178.062843 L373.166085,178.062843 L373.166085,177.108229 L373.18803,177.119202 Z" id="Path" fill="#FFFFFF"></path>
            <path d="M377.63192,177.174065 L376.359102,177.174065 L375.997007,177.601995 L375.634913,178.018953 L375.2399,178.512718 L374.888778,178.973566 L374.888778,178.973566 L374.888778,175.122195 L374.362095,175.648878 L373.824439,176.186534 L373.824439,181.431421 L374.921696,181.431421 L374.921696,179.236908 L374.921696,179.236908 C375.020449,179.390524 375.141147,179.577057 375.272818,179.763591 L375.645885,180.290274 L376.062843,180.849875 L376.4798,181.409476 L377.862344,181.409476 L376.907731,180.224439 L375.942145,179.039401 L376.808978,178.095761 L377.63192,177.174065 Z" id="Path" fill="#FFFFFF"></path>
            <polygon id="Path" fill="#FFFFFF" points="60.9416459 218.661347 59.5700748 220.032918 58.2094763 221.393516 59.5700748 222.754115 60.9416459 224.125686 62.3022444 222.754115 63.6628429 221.393516 62.3022444 220.032918"></polygon>
            <polygon id="Path" fill="#FFFFFF" points="69.0723192 222.611471 69.3685786 222.611471 69.6538653 222.611471 69.6538653 221.481297 69.6538653 220.351122 69.3685786 220.351122 69.0723192 220.351122 69.0723192 221.481297"></polygon>
            <polygon id="Path" fill="#FFFFFF" points="69.0723192 219.945137 69.3685786 219.945137 69.6538653 219.945137 69.6538653 219.670823 69.6538653 219.396509 69.3685786 219.396509 69.0723192 219.396509 69.0723192 219.670823"></polygon>
            <path d="M67.7775561,220.296259 C67.6211213,220.297482 67.4671113,220.335045 67.3276808,220.405985 C67.1837331,220.484013 67.0655593,220.602187 66.9875312,220.746135 C66.9551138,220.611218 66.8727785,220.493596 66.7571072,220.416958 C66.6371227,220.336543 66.4955503,220.294454 66.3511222,220.296259 C66.1967533,220.297199 66.0453622,220.338832 65.9122195,220.416958 C65.7759308,220.48775 65.6648072,220.598873 65.594015,220.735162 L65.594015,220.735162 L65.594015,220.351122 L65.0453865,220.351122 L65.0453865,222.611471 L65.6379052,222.611471 L65.6379052,221.514214 C65.6314566,221.335186 65.681348,221.158647 65.7805486,221.009476 C65.8523415,220.889444 65.9808635,220.814819 66.1206983,220.81197 C66.228556,220.806466 66.3318436,220.856044 66.3950125,220.943641 C66.4600253,221.044663 66.4908025,221.163924 66.482793,221.283791 L66.482793,222.655362 L67.0753117,222.655362 L67.0753117,221.558105 C67.0725317,221.370578 67.1178645,221.18547 67.2069825,221.020449 C67.2862802,220.904373 67.4175301,220.834646 67.5581047,220.833915 C67.6690707,220.826195 67.7750102,220.881284 67.832419,220.976559 C67.9060179,221.110638 67.9402496,221.262779 67.9311721,221.415461 L67.9311721,222.677307 L68.5236908,222.677307 L68.5236908,221.360599 C68.5385685,221.111978 68.4814217,220.864342 68.3591022,220.647382 C68.2317678,220.453368 68.0089208,220.344047 67.7775561,220.362095" id="Path" fill="#FFFFFF"></path>
            <path d="M78.4428928,222.216466 C78.2844051,222.216504 78.134698,222.143674 78.0369077,222.018953 C77.9364173,221.858138 77.8867094,221.670777 77.8942643,221.481297 C77.8789822,221.287602 77.9292175,221.09439 78.0369077,220.932668 C78.134699,220.801955 78.2907758,220.728024 78.4538653,220.735162 C78.6143108,220.729042 78.7684531,220.798 78.8708229,220.921696 C78.980014,221.079025 79.034031,221.268084 79.0244389,221.459352 C79.0373908,221.654405 78.9831803,221.848014 78.8708229,222.00798 C78.7683881,222.140272 78.6102044,222.217336 78.4428928,222.216466 M78.4428928,220.296259 C77.91304,220.307677 77.4551884,220.669515 77.321632,221.182387 C77.1880757,221.695258 77.4112904,222.234452 77.8682761,222.502852 C78.3252619,222.771251 78.9048972,222.703592 79.2877805,222.337157 C79.5100816,222.108987 79.6290672,221.799625 79.6169576,221.481297 C79.6265272,221.163396 79.50791,220.854991 79.2877805,220.625436 C79.0622809,220.405929 78.7574572,220.287167 78.4428928,220.296259" id="Shape" fill="#FFFFFF"></path>
            <path d="M81.2518703,220.296259 C80.9437281,220.292153 80.657792,220.456146 80.5057357,220.72419 L80.5057357,220.72419 L80.5057357,220.351122 L79.9571072,220.351122 L79.9571072,222.611471 L80.5276808,222.611471 L80.5276808,221.645885 C80.5210361,221.543582 80.5210361,221.440956 80.5276808,221.338653 C80.5430479,221.262313 80.5688952,221.188463 80.6044888,221.119202 C80.6485564,221.029055 80.7169715,220.953038 80.801995,220.899751 C80.8814502,220.851337 80.9723127,220.824835 81.0653367,220.822943 C81.2165475,220.802672 81.3618716,220.888958 81.4164589,221.031421 C81.465885,221.209833 81.48444,221.395383 81.4713217,221.58005 L81.4713217,222.677307 L82.0528678,222.677307 L82.0528678,221.360599 C82.0685837,221.107033 82.0073947,220.854628 81.8773067,220.636409 C81.7230774,220.446025 81.4852063,220.343495 81.2408978,220.362095" id="Path" fill="#FFFFFF"></path>
            <path d="M82.9965087,221.2399 C83.0012793,221.092545 83.0598257,220.952034 83.1610973,220.844888 C83.2574685,220.758492 83.3828027,220.711492 83.5122195,220.713217 C83.6371182,220.706778 83.7594636,220.750191 83.8523691,220.833915 C83.949257,220.945925 83.9967454,221.092347 83.9840399,221.2399 L82.9965087,221.2399 L82.9965087,221.2399 Z M84.5216958,221.503242 C84.5452981,221.17963 84.456124,220.857827 84.2693267,220.592519 C84.0823481,220.386716 83.8115955,220.277606 83.5341646,220.296259 C83.2257663,220.285382 82.9270432,220.404871 82.7112219,220.625436 C82.503834,220.856995 82.3937814,221.15964 82.40399,221.470324 C82.3883902,221.795735 82.5074454,222.113215 82.7331671,222.34813 C82.9815555,222.563934 83.3044149,222.674178 83.6329177,222.655362 C83.7643208,222.667236 83.8965271,222.667236 84.0279302,222.655362 C84.1442597,222.628643 84.2580655,222.591932 84.3680798,222.545636 L84.3680798,222.062843 C84.2729945,222.122166 84.1693819,222.166571 84.0608479,222.194514 C83.9443997,222.21117 83.8261738,222.21117 83.7097257,222.194514 C83.5322092,222.202845 83.3574191,222.148466 83.2159601,222.040898 C83.086694,221.940832 83.0099739,221.787392 83.0074813,221.62394 L84.4887781,221.62394 C84.4887781,221.62394 84.4887781,221.62394 84.4887781,221.558105 L84.4887781,221.481297" id="Shape" fill="#FFFFFF"></path>
            <path d="M71.925187,221.2399 C71.9375805,221.092223 71.9994368,220.953046 72.1007481,220.844888 C72.1943066,220.761028 72.3152608,220.714207 72.4408978,220.713217 C72.5690226,220.707377 72.6945654,220.750532 72.79202,220.833915 C72.8848185,220.948189 72.9317565,221.092914 72.9236908,221.2399 L71.925187,221.2399 L71.925187,221.2399 Z M73.4613466,221.503242 C73.484949,221.17963 73.3957749,220.857827 73.2089776,220.592519 C73.0185963,220.384949 72.7437564,220.275822 72.4628429,220.296259 C72.1582196,220.288477 71.8640793,220.407724 71.6508728,220.625436 C71.4404865,220.855903 71.3265853,221.15833 71.3326683,221.470324 C71.3083947,221.799172 71.4332974,222.121502 71.672818,222.34813 C71.9172415,222.563272 72.2364876,222.673629 72.561596,222.655362 C72.6966682,222.667138 72.8325089,222.667138 72.967581,222.655362 C73.0803933,222.628795 73.1905686,222.59207 73.2967581,222.545636 L73.2967581,222.062843 C73.2016728,222.122166 73.0980602,222.166571 72.9895262,222.194514 C72.873078,222.21117 72.7548521,222.21117 72.638404,222.194514 C72.4575257,222.20266 72.2793377,222.148429 72.1336658,222.040898 C72.0109335,221.936781 71.9389716,221.784861 71.9361596,221.62394 L73.4503741,221.62394 L73.4503741,221.558105 C73.4548894,221.532701 73.4548894,221.5067 73.4503741,221.481297" id="Shape" fill="#FFFFFF"></path>
            <path d="M74.7122195,221.261845 C74.5984523,221.233774 74.490666,221.185456 74.394015,221.119202 C74.3356183,221.085707 74.3015179,221.021769 74.3062344,220.954613 C74.3020105,220.881822 74.3405866,220.813242 74.4049875,220.779052 C74.4761932,220.731529 74.5609104,220.708424 74.646384,220.713217 C74.7301185,220.701783 74.8150186,220.701783 74.8987531,220.713217 C74.9926729,220.734065 75.0844923,220.763447 75.1730673,220.800998 L75.1730673,220.351122 C75.0885704,220.317672 75.0000233,220.295535 74.9097257,220.285287 L74.6134663,220.285287 C74.3834508,220.278038 74.1569782,220.343293 73.9660848,220.47182 C73.8106563,220.59269 73.7212194,220.779695 73.7246883,220.976559 C73.7154115,221.122312 73.7670725,221.265373 73.8673317,221.371571 C73.994376,221.499321 74.1536185,221.590317 74.3281796,221.634913 C74.4499482,221.674549 74.5675487,221.725999 74.6793017,221.788529 C74.7377639,221.832238 74.7706661,221.902155 74.7670823,221.975062 C74.7681705,222.052841 74.725867,222.124757 74.6573566,222.161596 C74.5705709,222.180286 74.4808007,222.180286 74.394015,222.161596 L74.0977556,222.161596 C73.9875848,222.138224 73.8807121,222.101371 73.7795511,222.05187 L73.7795511,222.523691 C73.882864,222.559598 73.9894387,222.585323 74.0977556,222.600499 C74.2072093,222.611426 74.317479,222.611426 74.4269327,222.600499 C74.6631373,222.615702 74.8979257,222.554118 75.0962594,222.424938 C75.2651635,222.298305 75.3630977,222.098356 75.359601,221.887282 C75.3658629,221.722723 75.3020634,221.563224 75.1840399,221.448379 C75.0442665,221.337521 74.8839016,221.255474 74.7122195,221.206983" id="Path" fill="#FFFFFF"></path>
            <path d="M77.0493766,222.128678 L76.9506234,222.128678 L76.80798,222.128678 C76.6983981,222.140573 76.5904655,222.094909 76.5226933,222.00798 C76.4664367,221.892181 76.4436352,221.762973 76.4568579,221.634913 L76.4568579,220.746135 L76.9945137,220.746135 L76.9945137,220.318204 L76.4568579,220.318204 L76.4568579,219.220948 L76.1825436,219.495262 L75.9082294,219.769576 L75.9082294,220.318204 L75.4912718,220.318204 L75.4912718,220.746135 L75.9301746,220.746135 L75.9301746,221.755611 C75.9104243,221.985365 75.9726157,222.214695 76.1057357,222.402993 C76.2530852,222.549618 76.458595,222.622151 76.6653367,222.600499 L76.884788,222.600499 L77.0713217,222.600499 L77.0713217,222.150623 L77.0493766,222.128678 Z" id="Path" fill="#FFFFFF"></path>
            <polygon id="Path" fill="#FFFFFF" points="70.3341646 219.846384 70.3341646 221.228928 70.3341646 222.611471 70.6304239 222.611471 70.9266833 222.611471 70.9266833 220.932668 70.9266833 219.253865 70.6304239 219.550125"></polygon>
            <polygon id="Path" fill="#FFFFFF" points="60.9416459 218.661347 59.5700748 220.032918 58.2094763 221.393516 59.5700748 222.754115 60.9416459 224.125686 62.3022444 222.754115 63.6628429 221.393516 62.3022444 220.032918"></polygon>
            <polygon id="Path" fill="#FFFFFF" points="69.6538653 220.351122 69.3685786 220.351122 69.0723192 220.351122 69.0723192 221.481297 69.0723192 222.611471 69.3685786 222.611471 69.6538653 222.611471 69.6538653 221.481297"></polygon>
            <polygon id="Path" fill="#FFFFFF" points="69.6538653 219.396509 69.3685786 219.396509 69.0723192 219.396509 69.0723192 219.670823 69.0723192 219.945137 69.3685786 219.945137 69.6538653 219.945137 69.6538653 219.670823"></polygon>
            <path d="M67.7775561,220.296259 C67.6211213,220.297482 67.4671113,220.335045 67.3276808,220.405985 C67.1837331,220.484013 67.0655593,220.602187 66.9875312,220.746135 C66.9551138,220.611218 66.8727785,220.493596 66.7571072,220.416958 C66.6371227,220.336543 66.4955503,220.294454 66.3511222,220.296259 C66.1967533,220.297199 66.0453622,220.338832 65.9122195,220.416958 C65.7759308,220.48775 65.6648072,220.598873 65.594015,220.735162 L65.594015,220.735162 L65.594015,220.351122 L65.0453865,220.351122 L65.0453865,222.611471 L65.6379052,222.611471 L65.6379052,221.514214 C65.6314566,221.335186 65.681348,221.158647 65.7805486,221.009476 C65.8523415,220.889444 65.9808635,220.814819 66.1206983,220.81197 C66.228556,220.806466 66.3318436,220.856044 66.3950125,220.943641 C66.4600253,221.044663 66.4908025,221.163924 66.482793,221.283791 L66.482793,222.655362 L67.0753117,222.655362 L67.0753117,221.558105 C67.0725317,221.370578 67.1178645,221.18547 67.2069825,221.020449 C67.2862802,220.904373 67.4175301,220.834646 67.5581047,220.833915 C67.6690707,220.826195 67.7750102,220.881284 67.832419,220.976559 C67.9060179,221.110638 67.9402496,221.262779 67.9311721,221.415461 L67.9311721,222.677307 L68.5236908,222.677307 L68.5236908,221.360599 C68.5385685,221.111978 68.4814217,220.864342 68.3591022,220.647382 C68.2317678,220.453368 68.0089208,220.344047 67.7775561,220.362095" id="Path" fill="#FFFFFF"></path>
            <path d="M78.4648379,220.296259 C77.9349851,220.307677 77.4771335,220.669515 77.3435772,221.182387 C77.2100208,221.695258 77.4332355,222.234452 77.8902213,222.502852 C78.347207,222.771251 78.9268424,222.703592 79.3097257,222.337157 C79.5320267,222.108987 79.6510124,221.799625 79.6389027,221.481297 C79.6484723,221.163396 79.5298551,220.854991 79.3097257,220.625436 C79.0842261,220.405929 78.7794024,220.287167 78.4648379,220.296259 M78.4648379,222.216466 C78.3063502,222.216504 78.1566431,222.143674 78.0588529,222.018953 C77.9583625,221.858138 77.9086545,221.670777 77.9162095,221.481297 C77.9009274,221.287602 77.9511626,221.09439 78.0588529,220.932668 C78.1566441,220.801955 78.3127209,220.728024 78.4758105,220.735162 C78.636256,220.729042 78.7903983,220.798 78.8927681,220.921696 C79.0019591,221.079025 79.0559761,221.268084 79.046384,221.459352 C79.059336,221.654405 79.0051254,221.848014 78.8927681,222.00798 C78.7903333,222.140272 78.6321496,222.217336 78.4648379,222.216466" id="Shape" fill="#FFFFFF"></path>
            <path d="M81.2518703,220.296259 C80.9437281,220.292153 80.657792,220.456146 80.5057357,220.72419 L80.5057357,220.72419 L80.5057357,220.351122 L79.9571072,220.351122 L79.9571072,222.611471 L80.5276808,222.611471 L80.5276808,221.645885 C80.5210361,221.543582 80.5210361,221.440956 80.5276808,221.338653 C80.5430479,221.262313 80.5688952,221.188463 80.6044888,221.119202 C80.6485564,221.029055 80.7169715,220.953038 80.801995,220.899751 C80.8814502,220.851337 80.9723127,220.824835 81.0653367,220.822943 C81.2165475,220.802672 81.3618716,220.888958 81.4164589,221.031421 C81.465885,221.209833 81.48444,221.395383 81.4713217,221.58005 L81.4713217,222.677307 L82.0528678,222.677307 L82.0528678,221.360599 C82.0685837,221.107033 82.0073947,220.854628 81.8773067,220.636409 C81.7230774,220.446025 81.4852063,220.343495 81.2408978,220.362095" id="Path" fill="#FFFFFF"></path>
            <path d="M83.5341646,220.296259 C83.2257663,220.285382 82.9270432,220.404871 82.7112219,220.625436 C82.503834,220.856995 82.3937814,221.15964 82.40399,221.470324 C82.3883902,221.795735 82.5074454,222.113215 82.7331671,222.34813 C82.9815555,222.563934 83.3044149,222.674178 83.6329177,222.655362 C83.7643208,222.667236 83.8965271,222.667236 84.0279302,222.655362 C84.1442597,222.628643 84.2580655,222.591932 84.3680798,222.545636 L84.3680798,222.062843 C84.2729945,222.122166 84.1693819,222.166571 84.0608479,222.194514 C83.9443997,222.21117 83.8261738,222.21117 83.7097257,222.194514 C83.5322092,222.202845 83.3574191,222.148466 83.2159601,222.040898 C83.086694,221.940832 83.0099739,221.787392 83.0074813,221.62394 L84.4887781,221.62394 C84.4887781,221.62394 84.4887781,221.62394 84.4887781,221.558105 L84.4887781,221.481297 C84.5123804,221.157685 84.4232063,220.835882 84.236409,220.570574 C84.0494304,220.364771 83.7786778,220.255661 83.5012469,220.274314 M82.963591,221.217955 C82.9683616,221.0706 83.026908,220.930089 83.1281796,220.822943 C83.2245508,220.736547 83.349885,220.689546 83.4793017,220.691272 C83.6042005,220.684833 83.7265459,220.728246 83.8194514,220.81197 C83.9163393,220.923979 83.9638277,221.070402 83.9511222,221.217955 L82.963591,221.217955 L82.963591,221.217955 Z" id="Shape" fill="#FFFFFF"></path>
            <path d="M72.4189526,220.296259 C72.1143293,220.288477 71.820189,220.407724 71.6069825,220.625436 C71.3965963,220.855903 71.282695,221.15833 71.2887781,221.470324 C71.2645044,221.799172 71.3894072,222.121502 71.6289277,222.34813 C71.8733512,222.563272 72.1925973,222.673629 72.5177057,222.655362 C72.6527779,222.667138 72.7886186,222.667138 72.9236908,222.655362 C73.036503,222.628795 73.1466784,222.59207 73.2528678,222.545636 L73.2528678,222.062843 C73.1577826,222.122166 73.05417,222.166571 72.9456359,222.194514 C72.8291878,222.21117 72.7109619,222.21117 72.5945137,222.194514 C72.4136354,222.20266 72.2354474,222.148429 72.0897756,222.040898 C71.9670432,221.936781 71.8950813,221.784861 71.8922693,221.62394 L73.4064838,221.62394 L73.4064838,221.558105 C73.4109991,221.532701 73.4109991,221.5067 73.4064838,221.481297 C73.4300862,221.157685 73.340912,220.835882 73.1541147,220.570574 C72.9637335,220.363004 72.6888936,220.253876 72.40798,220.274314 M71.8703242,221.217955 C71.8827176,221.070278 71.9445739,220.931101 72.0458853,220.822943 C72.1394438,220.739083 72.2603979,220.692262 72.3860349,220.691272 C72.5141598,220.685432 72.6397026,220.728587 72.7371571,220.81197 C72.8299556,220.926243 72.8768936,221.070969 72.8688279,221.217955 L71.8703242,221.217955 Z" id="Shape" fill="#FFFFFF"></path>
            <path d="M74.6134663,220.296259 C74.3834508,220.289011 74.1569782,220.354265 73.9660848,220.482793 C73.8106563,220.603663 73.7212194,220.790667 73.7246883,220.987531 C73.7154115,221.133284 73.7670725,221.276345 73.8673317,221.382544 C73.994376,221.510294 74.1536185,221.601289 74.3281796,221.645885 C74.4499482,221.685522 74.5675487,221.736972 74.6793017,221.799501 C74.7377639,221.84321 74.7706661,221.913128 74.7670823,221.986035 C74.7681705,222.063814 74.725867,222.13573 74.6573566,222.172569 C74.5705709,222.191258 74.4808007,222.191258 74.394015,222.172569 L74.0977556,222.172569 C73.9875848,222.149196 73.8807121,222.112344 73.7795511,222.062843 L73.7795511,222.534663 C73.882864,222.57057 73.9894387,222.596295 74.0977556,222.611471 C74.2072093,222.622398 74.317479,222.622398 74.4269327,222.611471 C74.6631373,222.626674 74.8979257,222.56509 75.0962594,222.43591 C75.2651635,222.309277 75.3630977,222.109328 75.359601,221.898254 C75.3658629,221.733695 75.3020634,221.574197 75.1840399,221.459352 C75.0442665,221.348493 74.8839016,221.266446 74.7122195,221.217955 C74.5984523,221.189883 74.490666,221.141565 74.394015,221.075312 C74.3356183,221.041817 74.3015179,220.977878 74.3062344,220.910723 C74.3020105,220.837932 74.3405866,220.769352 74.4049875,220.735162 C74.4761932,220.687639 74.5609104,220.664534 74.646384,220.669327 C74.7301185,220.657893 74.8150186,220.657893 74.8987531,220.669327 C74.9926729,220.690175 75.0844923,220.719557 75.1730673,220.757107 L75.1730673,220.307232 C75.0885704,220.273781 75.0000233,220.251644 74.9097257,220.241397 L74.6134663,220.241397" id="Path" fill="#FFFFFF"></path>
            <path d="M76.4897756,219.253865 L76.2154613,219.52818 L75.9411471,219.802494 L75.9411471,220.351122 L75.4912718,220.351122 L75.4912718,220.779052 L75.9301746,220.779052 L75.9301746,221.788529 C75.9104243,222.018282 75.9726157,222.247613 76.1057357,222.43591 C76.2530852,222.582536 76.458595,222.655069 76.6653367,222.633416 L76.884788,222.633416 L77.0713217,222.633416 L77.0713217,222.183541 L76.9725686,222.183541 L76.80798,222.183541 C76.6983981,222.195435 76.5904655,222.149772 76.5226933,222.062843 C76.4664367,221.947044 76.4436352,221.817836 76.4568579,221.689776 L76.4568579,220.800998 L76.9945137,220.800998 L76.9945137,220.373067 L76.4568579,220.373067 L76.4568579,219.27581 L76.4897756,219.253865 Z" id="Path" fill="#FFFFFF"></path>
            <polygon id="Path" fill="#FFFFFF" points="70.9266833 219.253865 70.6304239 219.550125 70.3341646 219.846384 70.3341646 221.228928 70.3341646 222.611471 70.6304239 222.611471 70.9266833 222.611471 70.9266833 220.932668"></polygon>
            <polygon id="Path" fill="#FFFFFF" points="60.9416459 218.661347 59.5700748 220.032918 58.2094763 221.393516 59.5700748 222.754115 60.9416459 224.125686 62.3022444 222.754115 63.6628429 221.393516 62.3022444 220.032918"></polygon>
            <polygon id="Path" fill="#FFE700" points="87.7915212 224.070823 88.0219451 224.070823 88.2523691 224.070823 88.2523691 221.393516 88.2523691 218.716209 88.0219451 218.716209 87.7915212 218.716209 87.7915212 221.393516"></polygon>
            <path d="M104.74414,222.117706 L104.634414,222.117706 L104.535661,222.117706 C104.393017,222.117706 104.305237,222.117706 104.261347,221.997007 C104.22176,221.884236 104.214165,221.762708 104.239401,221.645885 L104.239401,220.790025 L104.755112,220.790025 L104.755112,220.373067 L104.239401,220.373067 L104.239401,219.27581 L103.965087,219.550125 L103.701746,219.813466 L103.701746,220.351122 L103.262843,220.351122 L103.262843,220.76808 L103.690773,220.76808 L103.690773,221.744638 C103.672112,221.965838 103.730237,222.186713 103.855362,222.370075 C104.000971,222.512311 104.201132,222.584369 104.40399,222.567581 L104.612469,222.567581 L104.799002,222.567581 L104.799002,222.128678 L104.74414,222.117706 Z" id="Path" fill="#FFFFFF"></path>
            <path d="M95.9770574,221.558105 C95.8017382,221.548776 95.6263383,221.5749 95.4613466,221.634913 C95.3529813,221.67668 95.2826605,221.782161 95.2857855,221.898254 C95.280415,221.980906 95.3126761,222.061559 95.3735661,222.117706 C95.4428334,222.179082 95.5335311,222.210629 95.6259352,222.205486 C95.7690875,222.206346 95.9069061,222.151219 96.0099751,222.05187 C96.1221211,221.912812 96.1770544,221.736241 96.163591,221.558105 L95.9770574,221.558105 M96.2184539,222.205486 L96.2184539,222.205486 C96.0623512,222.472256 95.7699317,222.629061 95.4613466,222.611471 C95.27075,222.615724 95.0845893,222.55367 94.9346633,222.43591 C94.8039368,222.300873 94.7327961,222.119069 94.7371571,221.931172 C94.7299797,221.716931 94.8390777,221.515519 95.0224439,221.404489 C95.2782048,221.26743 95.5665783,221.202925 95.8563591,221.217955 L96.163591,221.217955 C96.1790907,221.085326 96.1348703,220.952664 96.0428928,220.85586 C95.9378366,220.762901 95.7981994,220.719015 95.6588529,220.735162 C95.5397849,220.736495 95.4215298,220.754972 95.3077307,220.790025 C95.1969403,220.826247 95.0902815,220.87406 94.9895262,220.932668 L94.9895262,220.548628 C95.1068653,220.48694 95.232528,220.442588 95.3625935,220.416958 C95.5011374,220.401282 95.6410072,220.401282 95.7795511,220.416958 C96.0437013,220.395834 96.3050945,220.482965 96.5037406,220.658354 C96.6602686,220.836264 96.7392691,221.069315 96.723192,221.305736 L96.723192,222.655362 L96.2513716,222.655362 L96.2513716,222.293267 L96.2184539,222.205486 Z" id="Shape" fill="#FFFFFF"></path>
            <path d="M109.868329,221.558105 C109.692925,221.546865 109.517135,221.573047 109.352618,221.634913 C109.239922,221.672967 109.164591,221.779316 109.166085,221.898254 C109.160714,221.980906 109.192975,222.061559 109.253865,222.117706 C109.323133,222.179082 109.41383,222.210629 109.506234,222.205486 C109.64984,222.208793 109.788565,222.153303 109.890274,222.05187 C110.006357,221.914439 110.06527,221.737699 110.054863,221.558105 L109.868329,221.558105 M110.098753,222.205486 L110.098753,222.205486 C110.02607,222.327259 109.924267,222.429063 109.802494,222.501746 C109.663976,222.575118 109.509363,222.612829 109.352618,222.611471 C109.161742,222.617608 108.974954,222.555346 108.825935,222.43591 C108.687846,222.304954 108.612033,222.121406 108.617456,221.931172 C108.610085,221.714057 108.724341,221.510935 108.913716,221.404489 C109.169077,221.266359 109.457755,221.201786 109.747631,221.217955 L110.054863,221.217955 C110.064792,221.085958 110.021307,220.955501 109.934165,220.85586 C109.823816,220.764639 109.681641,220.721196 109.539152,220.735162 C109.420227,220.738145 109.302196,220.756588 109.18803,220.790025 C109.07724,220.826247 108.970581,220.87406 108.869825,220.932668 L108.869825,220.548628 C108.990262,220.485148 109.119815,220.44073 109.253865,220.416958 C109.388708,220.400748 109.525007,220.400748 109.65985,220.416958 C109.924314,220.393204 110.186721,220.480673 110.38404,220.658354 C110.540568,220.836264 110.619568,221.069315 110.603491,221.305736 L110.603491,222.655362 L110.131671,222.655362 L110.131671,222.293267 L110.098753,222.205486 Z" id="Shape" fill="#FFFFFF"></path>
            <path d="M102.549626,221.2399 C102.558425,221.101347 102.515406,220.964469 102.428928,220.85586 C102.338888,220.767441 102.214412,220.723272 102.088778,220.735162 C101.965884,220.733401 101.847379,220.780804 101.759601,220.866833 C101.657881,220.964754 101.598762,221.098757 101.595012,221.2399 L102.549626,221.2399 L102.549626,221.2399 Z M101.595012,221.634913 C101.600914,221.791972 101.672592,221.93931 101.792519,222.040898 C101.934273,222.138394 102.103333,222.188343 102.275312,222.183541 C102.388082,222.20021 102.502691,222.20021 102.615461,222.183541 C102.719641,222.153049 102.819276,222.108767 102.911721,222.05187 L102.911721,222.523691 C102.806303,222.569556 102.6958,222.602707 102.582544,222.622444 C102.455081,222.639234 102.325967,222.639234 102.198504,222.622444 C101.880686,222.636084 101.569961,222.525953 101.331671,222.315212 C101.105269,222.094211 100.98528,221.78624 101.002494,221.470324 C100.994561,221.16659 101.104688,220.871607 101.309726,220.647382 C101.519481,220.439267 101.804306,220.324546 102.099751,220.329177 C102.371429,220.312681 102.636508,220.417105 102.82394,220.614464 C103.000463,220.875883 103.085355,221.188441 103.065337,221.503242 L103.065337,221.569077 C103.060903,221.590798 103.060903,221.613192 103.065337,221.634913 L101.595012,221.634913 L101.595012,221.634913 Z" id="Shape" fill="#FFFFFF"></path>
            <path d="M105.64389,221.481297 C105.635912,221.660506 105.685935,221.83751 105.786534,221.986035 C105.879783,222.110368 106.02613,222.183541 106.181546,222.183541 C106.33198,222.187887 106.473639,222.112891 106.554613,221.986035 C106.652111,221.832018 106.701751,221.652551 106.697257,221.470324 C106.703706,221.291296 106.653814,221.114757 106.554613,220.965586 C106.469635,220.844516 106.329389,220.774393 106.181546,220.779052 C106.02613,220.779052 105.879783,220.852226 105.786534,220.976559 C105.687333,221.12573 105.637442,221.302268 105.64389,221.481297 M105.64389,220.735162 L105.64389,220.735162 C105.720014,220.609464 105.825424,220.504054 105.951122,220.42793 C106.083094,220.359285 106.230346,220.325303 106.379052,220.329177 C106.638447,220.318699 106.887214,220.432887 107.048379,220.636409 C107.223905,220.869719 107.313095,221.156677 107.300748,221.448379 C107.316229,221.750643 107.227105,222.049013 107.048379,222.293267 C106.882618,222.505689 106.626501,222.627649 106.357107,222.622444 C106.210971,222.622544 106.067307,222.584738 105.94015,222.512718 C105.824442,222.440749 105.726832,222.343139 105.654863,222.227431 L105.654863,222.227431 C105.662042,222.311401 105.662042,222.395831 105.654863,222.4798 C105.654863,222.578554 105.654863,222.688279 105.654863,222.754115 L105.654863,223.467332 L105.084289,223.467332 L105.084289,220.373067 L105.621945,220.373067 L105.621945,220.735162 L105.64389,220.735162 Z" id="Shape" fill="#FFFFFF"></path>
            <path d="M112.534663,220.844888 L112.381047,220.844888 L112.194514,220.844888 C112.006693,220.835154 111.824758,220.911971 111.700748,221.053367 C111.588246,221.188506 111.529632,221.360442 111.53616,221.53616 C111.527938,221.715457 111.586592,221.89142 111.700748,222.029925 C111.832011,222.166412 112.016452,222.238584 112.205486,222.227431 C112.267147,222.23877 112.330359,222.23877 112.39202,222.227431 C112.456754,222.219346 112.51975,222.200818 112.578554,222.172569 L112.578554,222.622444 L112.370075,222.622444 L112.117706,222.622444 C111.799888,222.636084 111.489163,222.525953 111.250873,222.315212 C111.0331,222.098925 110.910631,221.804684 110.910631,221.497756 C110.910631,221.190827 111.0331,220.896586 111.250873,220.680299 C111.480226,220.47651 111.778041,220.366788 112.084788,220.373067 L112.326185,220.373067 L112.534663,220.373067 L112.534663,220.592519 L112.534663,220.844888 Z" id="Path" fill="#FFFFFF"></path>
            <path d="M114.421945,221.2399 C114.433742,221.0991 114.385983,220.959801 114.290274,220.85586 C114.204472,220.76788 114.083435,220.7235 113.961097,220.735162 C113.838204,220.733401 113.719698,220.780804 113.63192,220.866833 C113.52712,220.963632 113.464148,221.097448 113.456359,221.2399 L114.421945,221.2399 L114.421945,221.2399 Z M113.467332,221.634913 C113.467286,221.7934 113.540117,221.943107 113.664838,222.040898 C113.805909,222.13982 113.975451,222.189912 114.147631,222.183541 C114.260401,222.20021 114.37501,222.20021 114.487781,222.183541 C114.590406,222.148941 114.689588,222.104861 114.78404,222.05187 L114.78404,222.523691 C114.683047,222.57116 114.575959,222.604394 114.465835,222.622444 C114.334738,222.639819 114.201921,222.639819 114.070823,222.622444 C113.756571,222.634366 113.449887,222.524274 113.214963,222.315212 C112.98856,222.094211 112.868572,221.78624 112.885786,221.470324 C112.879239,221.16879 112.984805,220.875552 113.182045,220.647382 C113.394466,220.436501 113.683818,220.321553 113.983042,220.329177 C114.25198,220.309683 114.514956,220.414873 114.696259,220.614464 C114.877595,220.873654 114.962953,221.187929 114.937656,221.503242 L114.937656,221.645885 L113.467332,221.645885 L113.467332,221.634913 Z" id="Shape" fill="#FFFFFF"></path>
            <path d="M93.6289277,220.318204 C93.4724929,220.319427 93.3184829,220.35699 93.1790524,220.42793 C93.0443509,220.50582 92.9341283,220.619844 92.8608479,220.757107 C92.8269302,220.62577 92.7446222,220.512106 92.6304239,220.438903 C92.5147699,220.358033 92.376514,220.315788 92.2354115,220.318204 C91.9292678,220.310802 91.6449999,220.476272 91.5002494,220.746135 L91.5002494,220.746135 L91.5002494,220.373067 L90.9735661,220.373067 L90.9735661,222.567581 L91.5441397,222.567581 L91.5441397,221.470324 C91.5360097,221.29609 91.5820044,221.12361 91.6758105,220.976559 C91.7466847,220.862458 91.8706838,220.792192 92.0049875,220.790025 C92.1128453,220.78452 92.2161329,220.834098 92.2793017,220.921696 C92.3407661,221.020198 92.3713384,221.134845 92.3670823,221.250873 L92.3670823,222.578554 L92.9486284,222.578554 L92.9486284,221.481297 C92.9400066,221.301503 92.9818122,221.122879 93.0693267,220.965586 C93.1437465,220.849754 93.271799,220.779532 93.4094763,220.779052 C93.5199207,220.773774 93.6246824,220.82825 93.6837905,220.921696 C93.7481961,221.054815 93.7783676,221.201901 93.7715711,221.349626 L93.7715711,222.567581 L94.3640898,222.567581 L94.3640898,221.283791 C94.3755126,221.04729 94.3224131,220.812135 94.2104738,220.603491 C94.0903102,220.413037 93.8755907,220.303572 93.6508728,220.318204" id="Path" fill="#FFFFFF"></path>
            <polygon id="Path" fill="#FFFFFF" points="107.673815 219.890274 107.673815 221.2399 107.673815 222.589526 107.959102 222.589526 108.244389 222.589526 108.244389 220.954613 108.244389 219.319701 107.959102 219.604988"></polygon>
            <path d="M98.5336658,220.351122 L98.3581047,220.351122 C98.2151227,220.347703 98.0754266,220.394269 97.9630923,220.482793 C97.857094,220.575703 97.7744068,220.692216 97.7216958,220.822943 L97.7216958,220.822943 L97.7216958,220.395012 L97.1840399,220.395012 L97.1840399,222.589526 L97.765586,222.589526 L97.765586,221.645885 C97.7486843,221.420777 97.7982857,221.195663 97.9082294,220.998504 C98.0000898,220.85269 98.1641427,220.768561 98.3361596,220.779052 L98.4349127,220.779052 L98.5336658,220.779052 L98.5336658,220.285287 L98.5336658,220.351122 Z" id="Path" fill="#FFFFFF"></path>
            <path d="M100.81596,220.38404 L100.157606,220.38404 L99.9710723,220.603491 L99.7845387,220.822943 C99.7141481,220.903399 99.6482141,220.987648 99.5870324,221.075312 C99.5202949,221.148314 99.4580047,221.22526 99.4004988,221.305736 L99.4004988,221.305736 L99.4004988,219.330673 L99.1371571,219.604988 L98.8628429,219.879302 L98.8628429,222.567581 L99.4004988,222.567581 L99.4004988,221.470324 L99.4004988,221.470324 L99.5870324,221.733666 L99.7735661,222.00798 L99.9930175,222.293267 L100.201496,222.578554 L100.947631,222.578554 L100.453865,221.975062 L99.9600998,221.360599 L100.409975,220.877805 L100.81596,220.38404 Z" id="Path" fill="#FFFFFF"></path>
            <path d="M160.759102,45.4264339 C160.529074,45.086545 160.181085,44.8441255 159.782544,44.7461347 C159.38438,44.6521735 158.965458,44.710901 158.608479,44.9107232 C155.819499,46.4842496 153.507053,48.7815323 151.915212,51.5600998 C150.30149,54.3675697 149.453898,57.5498246 149.457357,60.7880299 C149.362303,62.9955172 150.093932,65.1591056 151.509227,66.8558603 C152.647499,68.1515772 154.283377,68.9016873 156.00798,68.9187032 C157.529982,68.9341982 158.992377,68.3278393 160.056858,67.2399002 C161.127809,66.1236318 161.711889,64.627914 161.680798,63.0812968 C161.704229,61.5822339 161.141195,60.133309 160.111721,59.0433915 C159.071074,57.9934909 157.650779,57.4079652 156.172569,57.4194514 L156.172569,57.4194514 C156.535301,55.8748909 157.198996,54.4169998 158.125686,53.1291771 C159.099909,51.7929523 160.308106,50.6442362 161.691771,49.7386534 C161.873695,49.6207337 162.03035,49.4678087 162.152618,49.2887781 C162.266434,49.1105172 162.348135,48.9136924 162.394015,48.7072319 C162.4378,48.4973549 162.4378,48.2807 162.394015,48.0708229 C162.351007,47.8600508 162.269147,47.6591236 162.152618,47.4783042 L161.472319,46.4578554 L160.759102,45.4264339 Z" id="Path" fill="#FFE700"></path>
            <path d="M175.561097,49.7386534 C175.919921,49.5008624 176.168808,49.1295073 176.252369,48.7072319 C176.341425,48.2832397 176.258549,47.8412352 176.021945,47.4783042 L175.341646,46.4578554 L174.661347,45.4374065 C174.191269,44.6991911 173.220752,44.4662669 172.466833,44.9107232 C169.682447,46.4903121 167.371439,48.7861663 165.773566,51.5600998 C164.159844,54.3675697 163.312252,57.5498246 163.315711,60.7880299 C163.224777,62.9967978 163.960249,65.1601791 165.378554,66.8558603 C166.513431,68.1498874 168.145258,68.8999692 169.866334,68.9187032 C171.391638,68.9346434 172.857601,68.3284481 173.926185,67.2399002 C174.993033,66.1210155 175.576426,64.6270579 175.550125,63.0812968 C175.575319,61.5798479 175.007594,60.128996 173.970075,59.0433915 C172.932096,57.9962217 171.516308,57.410924 170.041895,57.4194514 L170.041895,57.4194514 C170.404628,55.8748909 171.068322,54.4169998 171.995012,53.1291771 C172.966461,51.7905195 174.175143,50.6413418 175.561097,49.7386534 L175.561097,49.7386534 Z" id="Path" fill="#FFE700"></path>
            <path d="M370.664339,157.1601 C370.896585,157.497792 371.243648,157.739566 371.640898,157.840399 C372.042672,157.93398 372.464871,157.875341 372.825935,157.67581 C375.609562,156.098973 377.917665,153.80224 379.508229,151.026434 C381.127263,148.221156 381.975242,145.037449 381.966085,141.798504 C382.061138,139.591016 381.329509,137.427428 379.914214,135.730673 C378.778193,134.439578 377.146102,133.693365 375.426434,133.678803 C373.902497,133.658702 372.436288,134.261037 371.366584,135.346633 C370.301761,136.466807 369.718706,137.959901 369.742643,139.505237 C369.717449,141.006686 370.285174,142.457538 371.322693,143.543142 C372.36334,144.593043 373.783635,145.178568 375.261845,145.167082 L375.261845,145.167082 C374.899113,146.711643 374.235418,148.169534 373.308728,149.457357 C372.347044,150.793033 371.149713,151.942024 369.775561,152.84788 C369.599455,152.969189 369.446994,153.12165 369.325686,153.297756 C369.202906,153.471203 369.120432,153.669892 369.084289,153.879302 C369.046005,154.089711 369.046005,154.305302 369.084289,154.515711 C369.127298,154.726483 369.209157,154.92741 369.325686,155.108229 L370.005985,156.128678 L370.664339,157.1601 Z" id="Path" fill="#FFE700"></path>
            <path d="M355.917207,152.84788 C355.5618,153.089087 355.313954,153.458888 355.225935,153.879302 C355.135006,154.304719 355.22224,154.748816 355.467332,155.108229 L356.147631,156.128678 L356.82793,157.149127 C357.051957,157.497024 357.401909,157.744743 357.804489,157.840399 C358.202702,157.933283 358.621231,157.87461 358.978554,157.67581 C361.765227,156.099238 364.076949,153.802675 365.67182,151.026434 C367.285542,148.218964 368.133135,145.036709 368.129676,141.798504 C368.224729,139.591016 367.4931,137.427428 366.077805,135.730673 C364.937542,134.439031 363.301939,133.693036 361.579052,133.678803 C360.05842,133.659146 358.595777,134.261644 357.530175,135.346633 C356.461283,136.464216 355.877549,137.959049 355.906234,139.505237 C355.876903,141.005352 356.440774,142.456432 357.475312,143.543142 C358.515958,144.593043 359.936254,145.178568 361.414464,145.167082 L361.414464,145.167082 C361.046769,146.711903 360.379461,148.169541 359.450374,149.457357 C358.488689,150.793033 357.291359,151.942024 355.917207,152.84788 L355.917207,152.84788 Z" id="Path" fill="#FFE700"></path>
            <path d="M31.7216958,92.0708229 C31.4916677,91.7309341 31.1436784,91.4885146 30.7451372,91.3905237 C30.3469735,91.2965626 29.9280513,91.35529 29.5710723,91.5551122 C26.7820925,93.1286387 24.4696462,95.4259214 22.8778055,98.2044888 C21.2640836,101.011959 20.4164913,104.194214 20.4199501,107.432419 C20.317993,109.637551 21.0506108,111.800145 22.4718204,113.489277 C23.6066572,114.7896 25.2447219,115.540712 26.9705736,115.55212 C28.4912063,115.571777 29.9538491,114.969279 31.0194514,113.884289 C32.0883431,112.766706 32.672077,111.271874 32.6433915,109.725686 C32.6668223,108.226623 32.103789,106.777698 31.0743142,105.687781 C30.0336676,104.63788 28.6133721,104.052354 27.1351621,104.06384 L27.1351621,104.06384 C27.5008596,102.516915 28.1642403,101.055987 29.0882793,99.7625935 C30.0658513,98.4323638 31.2735819,97.2878068 32.6543641,96.3830424 C32.8362886,96.2651227 32.9929434,96.1121978 33.115212,95.9331671 C33.2290275,95.7549062 33.3107283,95.5580814 33.3566085,95.3516209 C33.4003935,95.1417439 33.4003935,94.925089 33.3566085,94.715212 C33.3156755,94.5038169 33.2336607,94.3025078 33.115212,94.1226933 L32.4349127,93.1022444 L31.7216958,92.0708229 Z" id="Path" fill="#FFE700"></path>
            <path d="M46.4688279,96.3830424 C46.8276516,96.1452514 47.0765385,95.7738963 47.1600998,95.3516209 C47.2491557,94.9276287 47.1662798,94.4856243 46.9296758,94.1226933 L46.2493766,93.1022444 L45.5690773,92.0708229 C45.3368311,91.7331307 44.9897682,91.4913565 44.5925187,91.3905237 C44.1907449,91.2969424 43.7685451,91.3555813 43.4074813,91.5551122 C40.6230957,93.1347011 38.3120873,95.4305554 36.7142145,98.2044888 C35.1004926,101.011959 34.2529003,104.194214 34.2563591,107.432419 C34.1628536,109.638225 34.8987964,111.799078 36.319202,113.489277 C37.4515078,114.786748 39.0849675,115.53758 40.8069825,115.55212 C42.3309192,115.57222 43.7971286,114.969886 44.8668329,113.884289 C45.9316551,112.764115 46.5147102,111.271022 46.4907731,109.725686 C46.5159671,108.224237 45.9482425,106.773385 44.9107232,105.687781 C43.8727439,104.640611 42.4569564,104.055313 40.9825436,104.06384 L40.9825436,104.06384 C41.3482412,102.516915 42.0116218,101.055987 42.9356608,99.7625935 C43.9005692,98.4327735 45.097457,97.2879243 46.4688279,96.3830424 L46.4688279,96.3830424 Z" id="Path" fill="#FFE700"></path>
            <path d="M98.7531172,201.335661 C99.2195641,202.078948 100.194646,202.312967 100.947631,201.862344 C103.736611,200.288818 106.049057,197.991535 107.640898,195.212968 C109.253662,192.405103 110.101184,189.223109 110.098753,185.985037 C110.193807,183.77755 109.462177,181.613962 108.046883,179.917207 C106.908611,178.62149 105.272733,177.87138 103.54813,177.854364 C102.027497,177.834707 100.564854,178.437205 99.4992519,179.522195 C98.4297085,180.643798 97.8461075,182.142233 97.8753117,183.691771 C97.8518809,185.190833 98.4149143,186.639758 99.444389,187.729676 C100.486859,188.775551 101.906926,189.357028 103.383541,189.342643 L103.383541,189.342643 C103.022168,190.891043 102.358419,192.352783 101.430424,193.64389 C100.4562,194.980115 99.2480038,196.128831 97.8643392,197.034414 C97.6824146,197.152334 97.5257598,197.305259 97.4034913,197.484289 C97.2896758,197.66255 97.2079749,197.859375 97.1620948,198.065835 C97.1183097,198.275712 97.1183097,198.492367 97.1620948,198.702244 C97.2051032,198.913017 97.2869624,199.113944 97.4034913,199.294763 L98.0837905,200.315212 L98.7531172,201.335661 Z" id="Path" fill="#FFE700"></path>
            <path d="M84.0279302,197.034414 C83.666414,197.269487 83.4166819,197.642103 83.3366584,198.065835 C83.2500188,198.489851 83.3327222,198.930935 83.5670823,199.294763 L84.2473815,200.315212 L84.9276808,201.335661 C85.3977583,202.073876 86.3682758,202.3068 87.1221945,201.862344 C89.9065801,200.282755 92.2175885,197.986901 93.8154613,195.212968 C95.4282251,192.405103 96.2757479,189.223109 96.2733167,185.985037 C96.3642503,183.77627 95.6287789,181.612888 94.2104738,179.917207 C93.0755961,178.62318 91.4437692,177.873098 89.7226933,177.854364 C88.1987566,177.834263 86.7325472,178.436598 85.6628429,179.522195 C84.5973587,180.646376 84.0144318,182.14308 84.0389027,183.691771 C84.0048567,185.188595 84.560516,186.638826 85.5860349,187.729676 C86.6215668,188.779198 88.0399474,189.361606 89.5142145,189.342643 L89.5142145,189.342643 C89.1528414,190.891043 88.489092,192.352783 87.5610973,193.64389 C86.5994126,194.979567 85.4020819,196.128558 84.0279302,197.034414 L84.0279302,197.034414 Z" id="Path" fill="#FFE700"></path>
            <polygon id="Path" fill="#FFFFFF" points="358.462843 94.5396509 266.139651 94.5396509 173.827431 94.5396509 173.827431 90.084788 173.827431 85.6189526 266.139651 85.6189526 358.462843 85.6189526 358.462843 90.084788"></polygon>
            <polygon id="Path" fill="#FFFFFF" points="358.462843 114.169576 266.139651 114.169576 173.827431 114.169576 173.827431 109.714713 173.827431 105.248878 266.139651 105.248878 358.462843 105.248878 358.462843 109.714713"></polygon>
            <polygon id="Path" fill="#FFFFFF" points="259.051372 133.799501 216.444888 133.799501 173.827431 133.799501 173.827431 129.344638 173.827431 124.878803 216.444888 124.878803 259.051372 124.878803 259.051372 129.344638"></polygon>
            <polygon id="Path" fill="#FFFFFF" points="114.937656 137.804489 70.1586035 137.804489 25.3795511 137.804489 25.3795511 134.545636 25.3795511 131.297756 70.1586035 131.297756 114.937656 131.297756 114.937656 134.545636"></polygon>
            <polygon id="Path" fill="#FFFFFF" points="114.937656 152.101746 70.1586035 152.101746 25.3795511 152.101746 25.3795511 148.853865 25.3795511 145.595012 70.1586035 145.595012 114.937656 145.595012 114.937656 148.853865"></polygon>
            <polygon id="Path" fill="#FFFFFF" points="66.7241895 166.409975 46.0518703 166.409975 25.3795511 166.409975 25.3795511 163.151122 25.3795511 159.903242 46.0518703 159.903242 66.7241895 159.903242 66.7241895 163.151122"></polygon>
        </g>
    </g>
</svg>