<?xml version="1.0" encoding="UTF-8"?>
<svg width="440px" height="330px" viewBox="0 0 440 330" version="1.1" xmlns="http://www.w3.org/2000/svg" xmlns:xlink="http://www.w3.org/1999/xlink">
    <title>Graphic elements / Icons / Rich icons / Reaction mode</title>
    <defs>
        <linearGradient x1="1.33226214e-14%" y1="50.0073368%" x2="100.040213%" y2="50.0073368%" id="linearGradient-1">
            <stop stop-color="#FFFFFF" stop-opacity="0" offset="0%"></stop>
            <stop stop-color="#FBC700" offset="100%"></stop>
        </linearGradient>
        <linearGradient x1="0%" y1="50.0171409%" x2="100.00672%" y2="50.0171409%" id="linearGradient-2">
            <stop stop-color="#FFFFFF" stop-opacity="0" offset="0%"></stop>
            <stop stop-color="#FBC700" offset="100%"></stop>
        </linearGradient>
    </defs>
    <g id="Graphic-elements-/-Icons-/-Rich-icons-/-Reaction-mode" stroke="none" stroke-width="1" fill="none" fill-rule="evenodd">
        <g id="Asset-3" transform="translate(0.000000, 40.000000)" fill-rule="nonzero">
            <g id="Group-3" transform="translate(43.000000, 0.000000)">
                <path d="M233.022286,271.672593 L233.022286,247.88 L163.570434,247.88 L163.570434,271.672593 C163.517031,272.286512 163.417991,272.895603 163.274138,273.494815 C162.970993,274.905355 162.47235,276.266649 161.792656,277.539259 C159.92584,281.319544 156.005012,283.642998 151.792656,283.465185 L244.72599,283.465185 C242.429952,283.5368 240.168157,282.895009 238.251916,281.628148 C236.759108,280.599821 235.547056,279.214619 234.72599,277.598519 C234.053937,276.322502 233.555687,274.962279 233.244508,273.554074 C233.126307,272.932916 233.052048,272.304196 233.022286,271.672593 Z" id="Path" fill="#A5B1B8"></path>
                <path d="M258.681545,283.41 L137.12599,283.41 C136.365356,283.41402 135.613784,283.575431 134.918582,283.884096 C134.243487,284.187482 133.634458,284.620345 133.12599,285.15817 C132.60059,285.704468 132.187812,286.348805 131.911175,287.054467 C131.619088,287.790056 131.468306,288.574121 131.46673,289.365578 L264.340805,289.365578 C264.339229,288.574121 264.188447,287.790056 263.89636,287.054467 C263.351512,285.657003 262.29086,284.522106 260.933397,283.884096 C260.224503,283.569373 259.45716,283.407827 258.681545,283.41 Z" id="Path" fill="#D2D8DC"></path>
                <polygon id="Path" fill="#A5B1B8" opacity="0.2" style="mix-blend-mode: multiply;" points="163.585249 247.291481 180.933397 247.291481 198.29636 247.291481 215.644508 247.291481 232.992656 247.291481 232.992656 252.23963 232.992656 257.202593 232.992656 262.165556 232.992656 267.113704 215.644508 267.113704 198.29636 267.113704 180.933397 267.113704 163.585249 267.113704 163.585249 262.165556 163.585249 257.202593 163.585249 252.23963"></polygon>
                <g id="Group-2">
                    <path d="M391.12599,247.881481 L5.45191563,247.881481 C4.74069649,247.862782 4.04045802,247.701576 3.39265637,247.407407 C2.73757574,247.124666 2.14381256,246.717082 1.64450822,246.207407 C1.13052497,245.702873 0.718130343,245.104398 0.429693405,244.444444 C0.142615445,243.759645 -3.0127012e-12,243.024012 -3.0127012e-12,242.281481 L-3.0127012e-12,5.58518519 C-3.0127012e-12,4.83786401 0.142604091,4.09739378 0.429693405,3.40740741 C0.709325333,2.74903609 1.10584338,2.1467302 1.60006378,1.62962963 C2.11304449,1.11954939 2.72241125,0.716662276 3.39265637,0.444444444 C4.04257534,0.160472291 4.74272789,0.00936022939 5.45191563,8.66862138e-13 L391.12599,8.66862138e-13 C391.855163,8.66862138e-13 392.576269,0.152637119 393.244508,0.444444444 C393.898908,0.721778973 394.492766,1.12439428 394.992656,1.62962963 C395.486877,2.1467302 395.883395,2.74903609 396.163027,3.40740741 C396.442132,4.0997917 396.587898,4.83867802 396.592656,5.58518519 L396.592656,242.296296 C396.592656,243.038106 396.443067,243.772329 396.163027,244.459259 C395.889495,245.12088 395.492273,245.724255 394.992656,246.237037 C394.493352,246.746712 393.899589,247.154295 393.244508,247.437037 C392.576269,247.728844 391.855163,247.881481 391.12599,247.881481 Z" id="Path" fill="#003A5D"></path>
                    <polygon id="Path" fill="#0099DA" points="11.8815453 223.096296 105.081545 223.096296 198.29636 223.096296 291.49636 223.096296 384.69636 223.096296 384.69636 170.296296 384.69636 117.496296 384.69636 64.6962963 384.69636 11.8962963 291.49636 11.8962963 198.29636 11.8962963 105.081545 11.8962963 11.8815453 11.8962963 11.8815453 64.6962963 11.8815453 117.496296 11.8815453 170.296296"></polygon>
                    <path d="M204.726009,235.555556 C204.730173,233.849316 204.052865,232.212043 202.844508,231.007407 C202.262323,230.411982 201.567304,229.938563 200.800064,229.614815 C199.193184,228.944031 197.384722,228.944031 195.777842,229.614815 C194.239208,230.280208 193.01436,231.510358 192.355619,233.051852 C191.66512,234.649575 191.66512,236.461536 192.355619,238.059259 C192.673606,238.830345 193.141975,239.53038 193.733397,240.118519 C196.249799,242.633425 200.328106,242.633425 202.844508,240.118519 C203.430912,239.526263 203.898579,238.827276 204.222286,238.059259 C204.556687,237.267007 204.727998,236.415488 204.726009,235.555556 Z" id="Path" fill="#1B5679"></path>
                    <polygon id="Path" fill="#FFFFFF" opacity="0.2" points="11.8815453 11.8518519 25.7778416 25.1851852 39.6889527 38.5185185 53.585249 51.8518519 67.4963601 65.1851852 108.651916 104.651852 149.837101 144.103704 191.037101 183.703704 232.222286 223.140741 384.69636 223.140741 384.69636 11.8518519"></polygon>
                    <polygon id="Path" fill="#FFFFFF" points="38.1482119 50.2074074 38.1482119 48.5777778 38.1482119 46.962963 32.0148786 46.962963 25.8667304 46.962963 25.8667304 126.266667 25.8667304 205.57037 32.0148786 205.57037 38.1482119 205.57037 38.1482119 203.940741 38.1482119 202.311111 33.6296934 202.311111 29.1259897 202.311111 29.1259897 126.266667 29.1259897 50.2074074 33.6296934 50.2074074"></polygon>
                    <polygon id="Path" fill="#FFFFFF" points="358.607471 202.311111 358.607471 203.940741 358.607471 205.57037 364.755619 205.57037 370.888953 205.57037 370.888953 126.266667 370.888953 46.962963 364.755619 46.962963 358.607471 46.962963 358.607471 48.5777778 358.607471 50.2074074 363.12599 50.2074074 367.629693 50.2074074 367.629693 126.266667 367.629693 202.311111 363.12599 202.311111"></polygon>
                    <path d="M99.4815453,184.814815 L186.651916,49.2740741 C188.379889,46.6026827 191.344446,44.9895932 194.52599,44.9895932 C197.707534,44.9895932 200.672091,46.6026827 202.400064,49.2740741 L289.555619,184.814815 C291.411419,187.692277 291.545592,191.354079 289.905352,194.359641 C288.265113,197.365202 285.112952,199.233537 281.688953,199.229636 L107.363027,199.229636 C103.94068,199.229636 100.791326,197.361232 99.1495012,194.358421 C97.5076766,191.35561 97.6349939,187.696257 99.4815453,184.814815 Z" id="Path" fill="#FFE700"></path>
                    <path d="M190.059323,90.962963 L195.614879,90.962963 C199.763027,90.962963 203.022286,93.3333333 203.022286,96.1925926 L201.022286,145.466667 C200.918582,148.222222 197.659323,150.414815 193.614879,150.414815 L191.940805,150.414815 C187.955619,150.414815 184.711175,148.222222 184.533397,145.466667 L182.651916,96.1925926 C182.651916,93.3333333 185.92599,90.962963 190.059323,90.962963 Z" id="Path" fill="#023852"></path>
                    <circle id="Oval" fill="#023852" cx="192.800064" cy="168.533333" r="10.4"></circle>
                    <path d="M289.318582,184.992593 L233.718582,98.4592593 L172.859323,159.318519 L132.770434,199.422222 L281.481545,199.422222 C284.896487,199.399078 288.028881,197.521371 289.658771,194.520402 C291.288661,191.519432 291.158347,187.869679 289.318582,184.992593 Z" id="Path" fill="url(#linearGradient-1)" style="mix-blend-mode: multiply;"></path>
                    <polygon id="Path" fill="#1B5679" points="384.69636 25.7777778 291.49636 25.7777778 198.29636 25.7777778 105.081545 25.7777778 11.8815453 25.7777778 11.8815453 22.3111111 11.8815453 18.8444444 11.8815453 15.362963 11.8815453 11.8962963 105.081545 11.8962963 198.29636 11.8962963 291.49636 11.8962963 384.69636 11.8962963 384.69636 15.362963 384.69636 18.8444444 384.69636 22.3111111"></polygon>
                    <path d="M71.0371008,62.2222222 L75.0815453,62.2222222 C76.5085811,62.1306905 77.9366364,62.3847929 79.2445082,62.962963 C80.3302725,63.5308931 80.9544423,64.708572 80.8148786,65.9259259 C80.8525123,66.7380417 80.5767254,67.5335807 80.0445082,68.1481481 C79.4636493,68.7332532 78.7109758,69.1173763 77.8963601,69.2444444 L77.8963601,69.2444444 C78.3211888,69.3411844 78.7047632,69.5692557 78.9926564,69.8962963 C79.282254,70.2628999 79.5122383,70.6728719 79.6741378,71.1111111 L80.7556193,73.6740741 L81.9111749,76.2518519 L78.7408045,76.2518519 L77.9556193,74.2666667 L77.1704341,72.2814815 C77.0124243,71.7235629 76.7169892,71.2141921 76.3111749,70.8 C75.8025967,70.4847063 75.2010469,70.3539346 74.6074712,70.4296296 L73.8667304,70.4296296 L73.8667304,76.237037 L71.0371008,76.237037 L71.0371008,62.2222222 Z M73.8667304,68.237037 L74.6815453,68.237037 C75.5269142,68.2938465 76.3729151,68.1358584 77.1408045,67.7777778 C77.6553521,67.4677319 77.9528674,66.8955871 77.9111749,66.2962963 C77.9681263,65.6701703 77.623675,65.0762886 77.0519156,64.8148148 C76.2945857,64.5356492 75.4868451,64.4195365 74.6815453,64.4740741 L73.8667304,64.4740741 L73.8667304,68.2814815 L73.8667304,68.237037 Z" id="Shape" fill="#FFFFFF"></path>
                    <polygon id="Path" fill="#FFFFFF" points="83.5111749 62.2222222 91.7926564 62.2222222 91.7926564 64.5925926 86.3556193 64.5925926 86.3556193 67.9555556 91.4074712 67.9555556 91.4074712 70.2222222 86.3556193 70.2222222 86.3556193 73.9111111 91.9111749 73.9111111 91.9111749 76.2518519 83.5111749 76.2518519"></polygon>
                    <path d="M104.874138,75.9259259 C104.392597,76.0907905 103.89657,76.2098369 103.392656,76.2814815 C102.813169,76.3592743 102.229193,76.3988659 101.644508,76.4 C99.6387756,76.484004 97.6754364,75.8066255 96.1482119,74.5037037 C94.7227639,73.1412202 93.955767,71.2291294 94.0445082,69.2592593 C93.9895127,67.3054054 94.7582897,65.4184072 96.1630267,64.0592593 C97.6237399,62.7696396 99.5188827,62.0814593 101.46673,62.1333333 C102.035981,62.1248207 102.605161,62.154517 103.170434,62.2222222 C103.739814,62.3025171 104.300331,62.4364459 104.844508,62.6222222 L104.740805,63.837037 L104.651916,65.0518519 C104.178773,64.8318504 103.681588,64.6677791 103.170434,64.562963 C102.683037,64.4626222 102.186567,64.4129752 101.688953,64.4148148 C100.452033,64.3517194 99.2428777,64.7957898 98.3408045,65.6444444 C97.4519006,66.6020897 96.9918065,67.8807232 97.0667304,69.1851852 C97.007424,70.5186555 97.4942648,71.8186809 98.4148786,72.7851852 C99.3111439,73.6270373 100.504268,74.0797854 101.733397,74.0444444 C102.229085,74.0458419 102.724219,74.0111825 103.214879,73.9407407 C103.750715,73.8473826 104.276515,73.7035316 104.785249,73.5111111 L104.785249,74.7259259 L104.874138,75.9259259 Z" id="Path" fill="#FFFFFF"></path>
                    <path d="M62.8148786,69.2592593 C62.8109606,67.3864155 62.0621985,65.5920553 60.7337328,64.2719273 C59.4052671,62.9517993 57.6062284,62.214349 55.7333971,62.2221598 C51.9522729,62.3953026 48.9757303,65.5112128 48.9757303,69.2962963 C48.9757303,73.0813798 51.9522729,76.19729 55.7333971,76.3703704 C59.6443913,76.3703704 62.8148786,73.1998831 62.8148786,69.2888889 L62.8148786,69.2592593 Z" id="Path" fill="#FFFFFF"></path>
                    <path d="M345.229693,72.3259259 L347.422286,72.3259259 C347.409019,68.0185926 343.99365,64.4919952 339.688953,64.3407407 L339.688953,66.5333333 C342.811748,66.6446175 345.289848,69.2011798 345.303767,72.3259259 L345.229693,72.3259259 Z" id="Path" fill="#FFFFFF"></path>
                    <path d="M341.49636,72.3259259 L343.688953,72.3259259 C343.626187,70.112817 341.897243,68.3070314 339.688953,68.1481481 L339.688953,70.3555556 C340.199872,70.4075799 340.674115,70.6447011 341.022286,71.0222222 C341.321135,71.3918419 341.487985,71.8506795 341.49636,72.3259259 Z" id="Path" fill="#FFFFFF"></path>
                    <path d="M349.46673,72.3259259 L351.659323,72.3259259 C351.645202,65.6767932 346.336161,60.2494813 339.688953,60.0888889 L339.688953,62.2962963 C345.148504,62.4167094 349.51804,66.8650942 349.540805,72.3259259 L349.46673,72.3259259 Z" id="Path" fill="#FFFFFF"></path>
                </g>
            </g>
            <g id="Group" transform="translate(0.000000, 121.000000)">
                <path d="M123.659259,8.88888889 C123.611087,3.99978363 119.659476,0.0481720203 114.77037,1.3500312e-12 L8.88888889,1.3500312e-12 C3.99978363,0.0481720203 0.0481720203,3.99978363 2.48689958e-12,8.88888889 L2.48689958e-12,159.925926 C2.48689958e-12,164.835124 3.97969111,168.814815 8.88888889,168.814815 L114.740741,168.814815 C119.649939,168.814815 123.62963,164.835124 123.62963,159.925926 L123.62963,8.88888889 L123.659259,8.88888889 Z" id="Path" fill="#003A5D"></path>
                <polygon id="Path" fill="#0099DA" points="115.466667 148.918519 61.8222222 148.918519 8.19259259 148.918519 8.19259259 78.4 8.19259259 7.88148148 61.8222222 7.88148148 115.466667 7.88148148 115.466667 78.4"></polygon>
                <path d="M115.362963,8.08888889 L8.4,8.08888889 L8.4,22.4296296 L8.4,36.7703704 C17.7333333,46.2518519 39.8518519,68.5185185 61.9851852,90.6074074 C84.1185185,112.696296 106.177778,134.622222 115.555556,143.407407 L115.555556,75.7481481 L115.362963,8.08888889 Z" id="Path" fill="#FFFFFF" opacity="0.2"></path>
                <path d="M18.2074074,102.296296 L55.4962963,44.3111111 C56.2361912,43.1680374 57.5050272,42.4778878 58.8666667,42.4778878 C60.2283062,42.4778878 61.4971421,43.1680374 62.237037,44.3111111 L99.5259259,102.296296 C100.315786,103.531446 100.369567,105.098933 99.6662214,106.385315 C98.9628757,107.671697 97.6142557,108.472403 96.1481481,108.474082 L21.5703704,108.474082 C20.1026017,108.476929 18.7511615,107.675678 18.0493992,106.386538 C17.347637,105.097398 17.4082846,103.527457 18.2074074,102.296296 Z" id="Path" fill="#FFE700"></path>
                <path d="M56.962963,62.1481481 L59.3333333,62.1481481 C61.0962963,62.1481481 62.5185185,63.1703704 62.4740741,64.3851852 L61.6444444,85.4666667 C61.6444444,86.637037 60.162963,87.5851852 58.5037037,87.5851852 L57.7777778,87.5851852 C56.0740741,87.5851852 54.6666667,86.637037 54.6222222,85.4666667 L53.7925926,64.3851852 C53.762963,63.1703704 55.1851852,62.1481481 56.962963,62.1481481 Z" id="Path" fill="#023852"></path>
                <circle id="Oval" fill="#023852" cx="58.1333333" cy="95.3333333" r="4.44444444"></circle>
                <path d="M99.437037,102.37037 L75.6296296,65.3333333 L49.6,91.3925926 L32.4444444,108.548148 L96.0740741,108.548148 C97.5375259,108.54109 98.8812089,107.738281 99.5809141,106.45292 C100.280619,105.167558 100.225491,103.603286 99.437037,102.37037 Z" id="Path" fill="url(#linearGradient-2)" style="mix-blend-mode: multiply;"></path>
                <path d="M23.7037037,28.6074074 L25.9259259,28.6074074 C25.903858,24.2727906 22.451311,20.7350764 18.1185185,20.6074074 L18.1185185,22.8 C21.235384,22.926996 23.6983523,25.4879604 23.7037037,28.6074074 Z" id="Path" fill="#FFFFFF"></path>
                <path d="M19.9851852,28.6074074 L22.2222245,28.6074074 C22.2245573,26.3323757 20.4356608,24.4586046 18.162963,24.3555556 L18.162963,26.5481481 C18.6698027,26.5996236 19.1395706,26.8371467 19.4814815,27.2148148 C19.8187817,27.5990055 19.9986679,28.0963378 19.9851852,28.6074074 L19.9851852,28.6074074 Z" id="Path" fill="#FFFFFF"></path>
                <path d="M27.9703704,28.6074074 L30.162963,28.6074074 C30.1322119,21.936557 24.7880419,16.5069328 18.1185185,16.3703704 L18.1185185,18.562963 C23.583804,18.6835302 27.9556218,23.1408121 27.9703704,28.6074074 L27.9703704,28.6074074 Z" id="Path" fill="#FFFFFF"></path>
            </g>
        </g>
    </g>
</svg>