<svg xmlns="http://www.w3.org/2000/svg" viewBox="0 0 330.59 300.69"><defs><style>.cls-1{isolation:isolate;}.cls-2,.cls-3,.cls-5{fill:#003a5d;}.cls-2,.cls-4{opacity:0.3;}.cls-2,.cls-4,.cls-5{mix-blend-mode:multiply;}.cls-5{opacity:0.6;}.cls-6{fill:#d6d3cf;}.cls-7{fill:#aca89f;}.cls-8{fill:#00a2de;}.cls-9{fill:#ffe600;}.cls-10{fill:#009bdb;}</style></defs><title>reduced-investment</title><g class="cls-1"><g id="Layer_1" data-name="Layer 1"><path class="cls-2" d="M245.91,190.14a260.2,260.2,0,0,0-28.42-36.72c-10.37-11.38-21.37-22-32.21-32.24-.31-.29-.75-.73-1.24-1.21l-1.54-1.54a6.78,6.78,0,0,0,3.22-1.32,6.67,6.67,0,0,0,2.19-2.83,6.82,6.82,0,0,0-3.7-8.9l-.32-.12-.68-.24a2.78,2.78,0,0,0,.65-.47l.18-.16.16-.17q7.32-8.58,14.53-17.09l14.45-17h0l3.88-4.55Q219,63.23,221,61a3.65,3.65,0,0,0,.85-2.63,3.59,3.59,0,0,0-1.26-2.46c-2-1.7-4-3.37-6.13-4.94a68.12,68.12,0,0,0-6.4-4.36,3.51,3.51,0,0,0-2.35-.46,3.56,3.56,0,0,0-2.12,1.14l-3.72,4.13L196,55.61a2.72,2.72,0,0,1-.24.24,1.64,1.64,0,0,1-.25.21A3.59,3.59,0,0,1,190,52c.16-.49.33-1,.5-1.44s.33-1,.5-1.41h0c.92-2.61,1.79-5.07,2.55-7.18s1.41-3.84,1.86-5a3.48,3.48,0,0,0,.22-1.77,3.68,3.68,0,0,0-.66-1.66l-.1-.14-.08-.15A76.2,76.2,0,0,0,177.34,27a85.65,85.65,0,0,0-36.16,0,76.45,76.45,0,0,0-17.39,6.09,1.87,1.87,0,0,0-.29.2,2,2,0,0,0-.24.26h0a3.55,3.55,0,0,0-.65,1.66,3.48,3.48,0,0,0,.22,1.77c.53,1.37,1.34,3.56,2.28,6.19s2,5.71,3.15,8.88a3.59,3.59,0,0,1-6.07,3.58l-3.8-4.24-3.72-4.13a3.59,3.59,0,0,0-2.12-1.14,3.51,3.51,0,0,0-2.35.46,69.59,69.59,0,0,0-6.41,4.36c-2.07,1.57-4.1,3.24-6.12,4.94A3.61,3.61,0,0,0,97.24,61c6.18,7.24,12.28,14.44,18.38,21.64S127.83,97,134,104.24a3,3,0,0,0,.44.43,3.3,3.3,0,0,0,.49.34,6.81,6.81,0,0,0,.8,13.46l-.07,0-.06,0,0,0,0,0L134.21,120c-.47.47-.89.89-1.2,1.17-10.84,10.24-21.84,20.86-32.21,32.24a261,261,0,0,0-28.42,36.72c-7.06,11.24-14.2,24.5-18.52,37.23S48,252.35,52.17,261.5C57.85,274,66.91,281.08,77.6,285.24s23,5.36,35.2,6c.8,0,11.67,0,22.68,0s22.15-.05,23.48,0h.27c1.31-.07,12-.05,22.69,0s21.6.06,23.34,0h.23c3-.15,6-.34,9.06-.61s6-.59,8.94-1h.13l.62-.1.61-.1.51-.08.5-.08.22,0,.21,0a80.07,80.07,0,0,0,12.57-3.21,52.23,52.23,0,0,0,11.31-5.52l.6-.41.59-.42.28-.19.27-.19a41.93,41.93,0,0,0,7.94-7.51,46,46,0,0,0,6.27-10.2c4.17-9.15,2.65-21.36-1.68-34.1S253,201.38,245.91,190.14Z"/><path class="cls-3" d="M186,109.39a46.92,46.92,0,0,0-9.62-1.43c-6.62-.48-16.86-.48-31.37,1.42h-.06a3,3,0,0,0-.77.28,2.63,2.63,0,0,0-.66.49l-2.12,2.14c-.79.79-1.57,1.56-2,2-10.84,10.24-21.84,20.86-32.21,32.23a260.87,260.87,0,0,0-28.42,36.73c-7.07,11.23-14.2,24.5-18.53,37.23s-5.85,24.95-1.68,34.1c5.67,12.46,14.74,19.58,25.43,23.74s23,5.36,35.2,6c.8,0,11.67,0,22.68,0s22.14-.05,23.48,0h.26c1.35-.07,12.51-.05,23.53,0s21.91.06,22.7,0c12.19-.62,24.51-1.82,35.2-6s19.76-11.28,25.44-23.74c4.16-9.15,2.64-21.36-1.69-34.1s-11.46-26-18.53-37.23a260.87,260.87,0,0,0-28.42-36.73c-10.36-11.37-21.36-22-32.21-32.23-.47-.45-1.25-1.22-2-2l-2.12-2.14a2.47,2.47,0,0,0-.66-.49,3,3,0,0,0-.77-.28h-.06"/><path class="cls-3" d="M165.59,96.49c.81,0,4.43.28,8.75.65s9.34.87,13,1.4a3.62,3.62,0,0,0,1.76-.18,3.56,3.56,0,0,0,1.44-1c6.2-7.25,12.3-14.45,18.4-21.65s12.2-14.4,18.38-21.64a3.61,3.61,0,0,0-.41-5.09c-2-1.7-4.05-3.37-6.12-4.94a73.08,73.08,0,0,0-6.4-4.37,3.58,3.58,0,0,0-4.47.69l-3.73,4.13-3.8,4.24a3.59,3.59,0,0,1-6.06-3.58c1.11-3.17,2.19-6.25,3.14-8.88s1.75-4.82,2.29-6.19a3.66,3.66,0,0,0-.44-3.43l-.1-.14-.09-.15a76,76,0,0,0-17.41-6.24,85.87,85.87,0,0,0-36.16-.05,76.8,76.8,0,0,0-17.39,6.1,1.57,1.57,0,0,0-.3.2,2,2,0,0,0-.24.26h0a3.59,3.59,0,0,0-.44,3.43c.54,1.37,1.34,3.55,2.29,6.19s2,5.71,3.14,8.88a3.59,3.59,0,0,1-6.06,3.58l-3.81-4.24L121,40.34a3.59,3.59,0,0,0-4.47-.69,70.19,70.19,0,0,0-6.4,4.37C108,45.59,106,47.26,104,49a3.61,3.61,0,0,0-.41,5.09c6.19,7.24,12.29,14.44,18.39,21.64s12.2,14.4,18.4,21.65a3.56,3.56,0,0,0,1.44,1,3.72,3.72,0,0,0,1.76.19c3.61-.54,8.67-1,13-1.4s8-.61,8.72-.66h.3Z"/><g class="cls-4"><path class="cls-5" d="M252.25,183.24a261.62,261.62,0,0,0-28.42-36.73c-10.37-11.37-21.37-22-32.21-32.23-.48-.45-1.26-1.22-2.05-2s-1.59-1.6-2.11-2.14a2.83,2.83,0,0,0-.66-.49,3.17,3.17,0,0,0-.78-.28,31.2,31.2,0,0,0-4.41-.87,95.37,95.37,0,0,0-14-.81v-2.89l-12.84,3.41L142,111.6l8.4,5.36,8.41,5.35a16.4,16.4,0,0,1,7.58,13.83V284.25c3.1-.16,14.09-.12,24.5-.06s20.23.17,21,.13c12.18-.62,24.5-1.83,35.2-6s19.75-11.29,25.43-23.75c4.16-9.15,2.64-21.36-1.69-34.1S259.31,194.47,252.25,183.24Z"/><path class="cls-5" d="M204,46.83l-.83.93-.83.92a3.59,3.59,0,0,1-6.06-3.59c.17-.48.34-1,.5-1.43l.5-1.41a66.33,66.33,0,0,0-13.17-6.06,64.26,64.26,0,0,0-10.65-2.56,6.23,6.23,0,0,0-7.16,6.17V96.5c1.59.1,5.19.36,9.22.72s8.48.8,11.77,1.29a3.57,3.57,0,0,0,1.75-.18,3.43,3.43,0,0,0,1.45-1q7.33-8.57,14.53-17.08l14.46-17.05A78.37,78.37,0,0,0,211.94,54,73.19,73.19,0,0,0,204,46.83Z"/></g><path class="cls-6" d="M188,111.6a6.93,6.93,0,0,1-1.28-.12,7.5,7.5,0,0,1-1.26-.37,43.22,43.22,0,0,0-10.63-2c-6.91-.59-17.17-.47-30.75,2.31a6.85,6.85,0,0,1-5.13-1,6.82,6.82,0,0,1,2.4-12.36c16-3.27,28.1-3.24,36.34-2.37s12.56,2.6,12.9,2.74a6.81,6.81,0,0,1,3.71,8.9,6.86,6.86,0,0,1-6.3,4.22Z"/><path class="cls-7" d="M190.46,98.48a31.08,31.08,0,0,0-4.08-1.24,69.47,69.47,0,0,0-11.06-1.7c.39.12.7.23.92.31l.42.16a6.82,6.82,0,0,1,3.7,8.9,6.72,6.72,0,0,1-2.48,3,6.93,6.93,0,0,1-3.65,1.17,57.28,57.28,0,0,1,8.18,1.18,23.57,23.57,0,0,1,2.92.81,7,7,0,0,0,1.26.37,6.82,6.82,0,0,0,3.87-13Z"/><path class="cls-8" d="M160.48,232.56a63.3,63.3,0,0,1-22.56-5.24V209.57a76.4,76.4,0,0,0,13.47,5.26A46.62,46.62,0,0,0,164.17,217q4.54,0,6.66-1.1a3.8,3.8,0,0,0,2.11-3.66,3.74,3.74,0,0,0-1.52-3,24,24,0,0,0-5.08-2.78q-3.56-1.54-9.6-3.74a43.71,43.71,0,0,1-11-5.64,19.64,19.64,0,0,1-6.07-7,21.78,21.78,0,0,1-1.9-9.65q0-8.82,5.67-13.8t17-6.15V153.1h11.07v7.22A62.75,62.75,0,0,1,193,165.56l-6.36,15.24q-11.17-5-20.16-5-4.28,0-6,1a3.39,3.39,0,0,0-1.73,3.08A3.79,3.79,0,0,0,160,182.8a17.44,17.44,0,0,0,4.36,2.57q3.1,1.41,8.61,3.29,11.17,4,16,9t4.87,13q0,9-5.7,14.6t-16.6,7v10.32H160.48Z"/><circle class="cls-9" cx="268.27" cy="199.43" r="38.71"/><polygon class="cls-10" points="264.51 204.08 264.51 192.39 264.51 180.71 268.3 180.71 272.09 180.71 272.09 192.35 272.09 204 278 198.09 283.91 192.17 283.91 197.34 283.9 202.5 276.08 210.32 268.26 218.14 260.44 210.32 252.62 202.5 252.62 197.34 252.62 192.19 258.57 198.13 264.51 204.08"/></g></g></svg>