<?xml version="1.0" encoding="UTF-8"?>
<svg width="440px" height="330px" viewBox="0 0 440 330" version="1.1" xmlns="http://www.w3.org/2000/svg" xmlns:xlink="http://www.w3.org/1999/xlink">
    <title>Graphic elements / Icons / Rich icons / reminder</title>
    <defs>
        <linearGradient x1="50%" y1="100%" x2="50%" y2="0%" id="linearGradient-1">
            <stop stop-color="#FFFFFF" offset="23%"></stop>
            <stop stop-color="#FCFCFC" offset="43%"></stop>
            <stop stop-color="#F1F1F3" offset="60%"></stop>
            <stop stop-color="#DFDFE3" offset="77%"></stop>
            <stop stop-color="#C6C6CE" offset="92%"></stop>
            <stop stop-color="#B7B7C1" offset="100%"></stop>
        </linearGradient>
    </defs>
    <g id="Graphic-elements-/-Icons-/-Rich-icons-/-reminder" stroke="none" stroke-width="1" fill="none" fill-rule="evenodd">
        <g id="Reminder" transform="translate(13.000000, 0.000000)" fill-rule="nonzero">
            <path d="M399.514726,137.503767 C397.421937,135.407442 394.95282,133.724301 392.236644,132.542466 C389.428933,131.33569 386.409671,130.698034 383.353767,130.666438 L382.924315,130.666438 L382.924315,130.666438 L382.924315,130.666438 C383.755864,127.376507 383.786867,123.935201 383.014726,120.630822 C381.486525,114.132432 377.215305,108.616127 371.306507,105.509589 C368.327521,103.935333 365.013131,103.10189 361.643836,103.079795 C358.700263,103.076865 355.786458,103.668852 353.077397,104.820205 C350.455296,105.927601 348.072143,107.53172 346.059247,109.544178 C345.499166,110.109602 344.970953,110.705728 344.477055,111.329795 C343.977069,111.961222 343.509348,112.61754 343.075685,113.296233 L340.747603,109.80411 L338.487329,106.311986 C336.793854,103.868951 333.829149,102.640653 330.90411,103.170205 C329.934184,103.363925 329.012298,103.748044 328.191781,104.300342 C327.377106,104.871101 326.678975,105.592247 326.134932,106.425 C324.518304,108.904641 324.518304,112.104948 326.134932,114.584589 L331.536986,122.653767 L336.92774,130.711644 L195.140753,130.711644 C194.741712,130.704091 194.351786,130.591013 194.010616,130.383904 C193.344063,129.972743 192.93785,129.245836 192.936986,128.462671 C192.953062,128.063425 193.06968,127.674699 193.276027,127.332534 L196.406507,122.032192 L199.536986,116.720548 L202.678767,111.420205 L205.809247,106.108562 C209.383424,100.326537 212.140713,94.0779498 214.00274,87.540411 C215.856845,80.9955617 216.799967,74.2263787 216.805479,67.4239726 L216.805479,32.1410959 C216.808372,29.6600497 216.427145,27.1935104 215.675342,24.8291096 C214.972658,22.5862777 213.932291,20.4636243 212.590068,18.5342466 C211.25223,16.6162274 209.650487,14.8965416 207.832192,13.4260274 C205.977211,11.9163383 203.933262,10.6550168 201.752055,9.6739726 C200.938356,9.31232877 200.113356,8.98458904 199.265753,8.70205479 C198.405528,8.41364354 197.530265,8.17219167 196.643836,7.97876712 C195.75192,7.78145386 194.850365,7.63056597 193.942808,7.52671233 C193.027397,7.43630137 192.100685,7.37971145 191.162671,7.37971145 C190.245234,7.37971145 189.328384,7.42645731 188.416438,7.52671233 C187.524345,7.62392291 186.637884,7.76726554 185.760616,7.95616438 C184.890411,8.14828767 184.042808,8.38561644 183.206507,8.65684932 C182.394404,8.92813919 181.598274,9.24508231 180.821918,9.60616438 C178.620211,10.5787247 176.553713,11.8322988 174.673973,13.3356164 C172.841242,14.8089301 171.224435,16.5322563 169.87089,18.455137 C168.514119,20.3947312 167.458676,22.5284772 166.740411,24.7839041 C165.987893,27.163661 165.606705,29.6451965 165.610274,32.1410959 L165.610274,68.4636986 C165.597464,69.225078 165.502741,69.9828671 165.32774,70.7239726 C165.135807,71.4963214 164.882608,72.2521402 164.570548,72.9842466 C164.257782,73.7426901 163.879645,74.4724947 163.440411,75.165411 C163.05477,75.7978382 162.599914,76.3853617 162.084247,76.9171233 L153.20137,88.1506849 L144.307192,99.3616438 L135.424315,110.583904 L126.575342,121.794863 C125.667898,122.704959 124.818617,123.671252 124.032534,124.688014 C123.248781,125.69897 122.531518,126.759764 121.885274,127.863699 C121.249585,128.958928 120.679739,130.091072 120.178767,131.25411 C119.681308,132.424095 119.258542,133.624449 118.913014,134.847945 C118.70185,135.610578 118.357508,136.329868 117.89589,136.972603 C117.452004,137.604852 116.905818,138.158677 116.279795,138.611301 C115.65138,139.073284 114.9532,139.431913 114.211644,139.67363 C113.456926,139.922724 112.667019,140.048651 111.87226,140.046575 L90.3996575,140.046575 L90.3996575,134.72363 L10.9171233,134.72363 C9.45571545,134.738534 8.01164251,135.041943 6.66780822,135.616438 C5.36853903,136.165263 4.18971933,136.963942 3.19828767,137.967123 C2.20229067,138.962147 1.40793689,140.140247 0.85890411,141.436644 C0.292917439,142.769997 0,144.203548 0,145.652055 L0,320.506849 C0,325.250446 3.84544468,329.09589 8.5890411,329.09589 L8.5890411,329.09589 C8.96159825,329.182346 9.33898078,329.246501 9.71917808,329.288014 C10.1131178,329.333127 10.5093074,329.355767 10.9058219,329.355822 L90.3205479,329.355822 L90.3205479,320.585959 L115.680822,320.585959 C116.205323,320.585212 116.72832,320.64206 117.240411,320.755479 C117.749303,320.866123 118.245422,321.028971 118.72089,321.241438 C119.190392,321.458373 119.633946,321.727538 120.043151,322.043836 C120.463097,322.37468 120.842444,322.754026 121.173288,323.173973 C121.871844,324.024596 122.659946,324.797543 123.523973,325.479452 C124.392235,326.174892 125.336225,326.770099 126.338014,327.253767 C127.351005,327.757328 128.421072,328.136784 129.525,328.383904 C130.662011,328.652503 131.826216,328.789022 132.994521,328.790753 L194.180137,328.790753 C195.040454,329.074083 195.92061,329.293178 196.813356,329.446233 C197.732475,329.596272 198.662208,329.67186 199.593493,329.67226 L218.014726,329.67226 C218.444178,329.740068 218.87363,329.796575 219.314384,329.830479 C219.74989,329.875905 220.187473,329.898294 220.625342,329.898294 L293.609589,329.898294 C295.916629,329.898294 298.200187,329.435139 300.322603,328.530822 C302.370343,327.651783 304.233779,326.394156 305.815068,324.823973 C307.39157,323.243556 308.649966,321.375145 309.521918,319.320205 C310.428353,317.202418 310.893645,314.922106 310.889384,312.618493 L310.889384,298.683904 C310.891404,296.376864 310.426235,294.093306 309.521918,291.97089 C307.951558,288.288664 305.156807,285.262348 301.610959,283.404452 C300.044198,282.578235 298.359292,281.99881 296.615753,281.686644 C295.645658,281.329923 294.647741,281.053984 293.632192,280.861644 C292.584943,280.666076 291.52186,280.567713 290.456507,280.567808 L275.256164,280.567808 L275.256164,279.686301 L275.256164,279.686301 L275.256164,279.686301 L293.609589,279.686301 C295.91533,279.686652 298.197823,279.225542 300.322603,278.330137 C302.372183,277.454473 304.236221,276.19644 305.815068,274.623288 C307.393878,273.049104 308.652696,271.183904 309.521918,269.130822 C310.427135,267.008687 310.892343,264.724942 310.889384,262.417808 L310.889384,248.517123 C310.892343,246.209989 310.427135,243.926244 309.521918,241.80411 C306.959865,235.756128 301.194227,231.680343 294.638014,231.282534 C293.966758,231.1235 293.287783,230.999021 292.603767,230.909589 C291.902272,230.827772 291.196661,230.786265 290.490411,230.785274 L275.256164,230.785274 L275.256164,229.02226 L290.445205,229.02226 C290.840753,229.02226 291.236301,229.02226 291.575342,229.02226 L292.705479,228.897945 L293.496575,228.897945 C295.803615,228.899966 298.087174,228.434796 300.209589,227.530479 C302.302134,226.64711 304.205206,225.369443 305.815068,223.767123 C307.388864,222.188805 308.646985,220.324637 309.521918,218.274658 C310.426235,216.152242 310.891404,213.868684 310.889384,211.561644 L310.889384,197.615753 C310.891404,195.308714 310.426235,193.025155 309.521918,190.90274 C307.760963,186.761732 304.463611,183.46438 300.322603,181.703425 C298.200187,180.799108 295.916629,180.333938 293.609589,180.335959 L275.256164,180.335959 L275.256164,178.301712 L290.445205,178.301712 C290.874658,178.301712 291.292808,178.301712 291.710959,178.301712 C292.12911,178.301712 292.535959,178.301712 292.95411,178.301712 L336.814726,178.301712 L331.390068,186.393493 L325.976712,194.485274 C325.196294,195.74984 324.803404,197.215318 324.846575,198.700685 C324.834626,198.937863 324.834626,199.175493 324.846575,199.412671 C324.846575,199.65 324.914384,199.887329 324.959589,200.124658 C325.347597,202.008184 326.443914,203.670864 328.02226,204.769521 C329.457754,205.688656 331.165097,206.087567 332.859247,205.899658 L333.209589,205.899658 L333.559932,205.831849 L333.898973,205.75274 L334.249315,205.662329 C335.06129,205.416302 335.825582,205.034155 336.509589,204.532192 C337.218096,204.019806 337.836757,203.393507 338.340411,202.678767 L340.600685,199.186644 L342.928767,195.705822 C343.358219,196.372603 343.832877,197.028082 344.330137,197.660959 C344.824036,198.285026 345.352248,198.881151 345.912329,199.446575 C350.041921,203.582507 355.646657,205.906583 361.491267,205.906583 C367.335877,205.906583 372.940613,203.582507 377.070205,199.446575 C379.083321,197.436201 380.69095,195.05737 381.805479,192.439726 C382.952062,189.729581 383.540162,186.815992 383.534589,183.873288 C383.534589,183.240411 383.534589,182.607534 383.455479,181.963356 C383.389944,181.299034 383.288079,180.638799 383.150342,179.985616 C383.150342,179.714384 383.037329,179.431849 382.969521,179.149315 C382.901712,178.866781 382.822603,178.572945 382.732192,178.27911 C385.85385,178.467994 388.981055,178.014107 391.920205,176.945548 C397.50164,174.912381 401.998521,170.66896 404.351712,165.214726 C405.559308,162.413326 406.178613,159.393737 406.171298,156.343151 L406.171298,153.69863 C406.171298,150.645944 405.559422,147.624224 404.363014,144.815753 C403.22468,142.093318 401.579403,139.611981 399.514726,137.503767 Z M356.049658,120.382192 C356.726956,119.594059 357.557492,118.951931 358.490753,118.494863 C359.455348,118.02377 360.513854,117.776527 361.587329,117.771575 C362.570254,117.772991 363.542771,117.972877 364.446575,118.359247 C365.322664,118.722864 366.117833,119.256819 366.785959,119.930137 C367.451982,120.604257 367.984922,121.397916 368.356849,122.269521 C368.739343,123.170167 368.93541,124.138967 368.933219,125.117466 L368.933219,125.445205 C368.933219,125.535616 368.933219,125.626027 368.933219,125.716438 C368.938817,125.806763 368.938817,125.897347 368.933219,125.987671 L368.933219,126.258904 L367.70137,128.519178 L366.469521,130.779452 L356.863356,130.779452 L355.631507,128.519178 L354.399658,126.258904 C354.238572,125.210983 354.319759,124.140084 354.636986,123.128425 C354.913607,122.125449 355.394559,121.190478 356.049658,120.382192 L356.049658,120.382192 Z M367.497945,188.032192 C366.833787,188.980374 365.969623,189.771239 364.966438,190.348973 C363.933791,190.939169 362.765433,191.250731 361.576027,191.253082 C360.593103,191.251666 359.620585,191.051781 358.716781,190.665411 C357.840692,190.301793 357.045523,189.767839 356.377397,189.094521 C355.711374,188.420401 355.178434,187.626741 354.806507,186.755137 C354.424013,185.854491 354.227947,184.885691 354.230137,183.907192 C354.230137,183.681164 354.230137,183.47774 354.230137,183.285616 C354.230137,183.093493 354.230137,182.923973 354.230137,182.799658 C354.247189,182.713853 354.247189,182.625531 354.230137,182.539726 C354.230137,182.539726 354.162329,182.539726 354.105822,182.618836 L355.32637,180.460274 L356.546918,178.301712 L366.718151,178.301712 L367.62226,179.883904 L368.52637,181.466096 C368.913153,182.552569 369.010522,183.721 368.808904,184.856507 C368.60983,185.998322 368.162291,187.082446 367.497945,188.032192 L367.497945,188.032192 Z" id="Shape" fill="#023852" opacity="0.3" style="mix-blend-mode: multiply;"></path>
            <path d="M214.093151,98.6609589 C217.664691,92.8735235 220.421781,86.621583 222.286644,80.0815068 C224.140749,73.5366575 225.083871,66.7674746 225.089384,59.9650685 L225.089384,24.7613014 C225.092277,22.2802552 224.711049,19.8137159 223.959247,17.4493151 C223.256562,15.2064832 222.216195,13.0838298 220.873973,11.1544521 C219.539349,9.23383842 217.937207,7.5137245 216.116096,6.04623288 C214.267316,4.5301345 212.231486,3.25774102 210.058562,2.26027397 C209.244863,1.89863014 208.419863,1.57089041 207.57226,1.28835616 C206.723605,0.999661431 205.859611,0.758195687 204.984247,0.565068493 C204.095266,0.383279285 203.197497,0.247482305 202.294521,0.158219178 C201.367694,0.053773758 200.435775,-8.30675139e-05 199.503082,-8.30675139e-05 C198.585645,-8.30675139e-05 197.668795,0.0466627848 196.756849,0.146917808 C195.864041,0.248630137 194.971233,0.395547945 194.101027,0.576369863 C193.230822,0.757191781 192.383219,1.00582192 191.546918,1.27705479 C190.715655,1.54632717 189.900605,1.86329122 189.105822,2.22636986 C186.904115,3.19893017 184.837617,4.45250423 182.957877,5.95582192 C181.125146,7.42913555 179.508339,9.15246176 178.154795,11.0753425 C176.798023,13.0149366 175.74258,15.1486827 175.024315,17.4041096 C174.272499,19.7840304 173.891328,22.2654564 173.894178,24.7613014 L173.894178,61.0839041 C173.882074,61.8453332 173.787341,62.6031981 173.611644,63.3441781 C173.419711,64.1165269 173.166512,64.8723457 172.854452,65.6044521 C172.558932,66.3678156 172.199792,67.104998 171.780822,67.8082192 C171.387768,68.4385165 170.929418,69.0256598 170.413356,69.5599315 L161.519178,80.7821918 L152.625,91.9931507 L143.742123,103.215411 L134.847945,114.437671 C133.940501,115.347768 133.09122,116.31406 132.305137,117.330822 C131.521193,118.339167 130.807523,119.400232 130.169178,120.506507 C129.525395,121.599148 128.951638,122.731563 128.45137,123.896918 C127.955651,125.067579 127.532924,126.267822 127.185616,127.490753 C126.974452,128.253386 126.630111,128.972676 126.168493,129.615411 C125.724606,130.24766 125.178421,130.801485 124.552397,131.25411 C123.926649,131.720385 123.227738,132.079388 122.484247,132.316438 C121.729529,132.565532 120.939622,132.691459 120.144863,132.689384 L74.7924658,132.689384 L74.7924658,313.206164 L123.99863,313.206164 C124.523131,313.205418 125.046128,313.262265 125.558219,313.375685 C126.067111,313.486328 126.56323,313.649176 127.038699,313.861644 C127.508201,314.078579 127.951754,314.347743 128.360959,314.664041 C128.780905,314.994885 129.160252,315.374232 129.491096,315.794178 C130.191954,316.653306 130.983912,317.433896 131.853082,318.12226 C133.62977,319.49626 135.685811,320.46449 137.876712,320.958904 C139.014269,321.223106 140.178399,321.354463 141.346233,321.354463 L289.529795,321.354463 L290.07226,321.354463 L290.603425,321.354463 L291.134589,321.297945 L298.808219,321.297945 C301.200611,321.304587 303.569293,320.823929 305.769863,319.885274 C310.066972,318.054881 313.489127,314.632726 315.319521,310.335616 C316.260845,308.135483 316.743508,305.76702 316.743508,303.373973 L316.743508,291.123288 C316.746564,288.730113 316.262054,286.361399 315.319521,284.161644 C313.50114,279.856435 310.075072,276.430367 305.769863,274.611986 C303.5737,273.670653 301.208922,273.186162 298.819521,273.188014 L283.573973,273.188014 L283.573973,271.436301 L298.808219,271.436301 C301.201394,271.439372 303.570107,270.954862 305.769863,270.012329 C310.075072,268.193948 313.50114,264.76788 315.319521,260.462671 C316.262054,258.262916 316.746564,255.894202 316.743508,253.501027 L316.743508,241.284247 C316.743508,238.891199 316.260845,236.522737 315.319521,234.322603 C313.489127,230.025494 310.066972,226.603338 305.769863,224.772945 C303.572981,223.835188 301.208171,223.354535 298.819521,223.360274 L283.573973,223.360274 L283.573973,221.59726 L298.808219,221.59726 C301.200082,221.598592 303.56771,221.118148 305.769863,220.184589 C310.066972,218.354196 313.489127,214.932041 315.319521,210.634932 C316.259641,208.434422 316.743508,206.066209 316.743508,203.673288 L316.743508,191.445205 C316.743508,189.052285 316.259641,186.684072 315.319521,184.483562 C313.489127,180.186452 310.066972,176.764297 305.769863,174.933904 C303.571305,174.001536 301.207609,173.52111 298.819521,173.521233 L283.573973,173.521233 L283.573973,170.921918 L298.808219,170.921918 C301.16866,171.127807 303.545481,170.811412 305.769863,169.995205 C307.899656,169.198187 309.842428,167.970971 311.477055,166.390068 C313.121485,164.781259 314.42788,162.86009 315.319521,160.739384 C316.260854,158.54322 316.743508,156.178442 316.743508,153.789041 L316.743508,146.013699 C316.743508,141.102983 315.108842,136.331971 312.09863,132.452055 C309.157091,128.630464 305.063943,125.856792 300.424315,124.541096 C300.057956,124.346134 299.680611,124.172556 299.294178,124.021233 C298.927372,123.862623 298.549697,123.730437 298.164041,123.625685 C297.400305,123.404019 296.608598,123.293637 295.813356,123.297945 L203.424658,123.297945 C202.176343,123.297945 201.164384,122.285986 201.164384,121.037671 C201.18046,120.638425 201.297077,120.249699 201.503425,119.907534 L204.633904,114.607192 L207.764384,109.295548 L210.962671,103.972603 L214.093151,98.6609589 Z" id="Path" fill="#0099DA"></path>
            <path d="M19.2123288,321.976033 L98.6383562,321.976033 L98.6383562,127.355133 L19.2123288,127.355133 C17.752654,127.355133 16.3076103,127.645964 14.9630137,128.214041 C13.6621238,128.754756 12.4824906,129.550144 11.4934932,130.553425 C10.4974961,131.548449 9.70314237,132.726548 9.15410959,134.022945 C8.58365043,135.366805 8.29146794,136.812339 8.29517007,138.27226 L8.29517007,311.058904 C8.29220255,313.955225 9.44143182,316.733783 11.4894409,318.781792 C13.53745,320.829801 16.3160081,321.97903 19.2123288,321.976033 Z" id="Path" fill="#F1F3F2"></path>
            <polygon id="Path" fill="url(#linearGradient-1)" style="mix-blend-mode: multiply;" points="8.31780822 265.051027 30.8979452 265.051027 53.4780822 265.051027 76.0582192 265.051027 98.6383562 265.051027 98.6383562 279.211644 98.6383562 293.383562 98.6383562 307.555479 98.6383562 321.716096 76.0582192 321.716096 53.4780822 321.716096 30.8979452 321.716096 8.31780822 321.716096 8.31780822 307.555479 8.31780822 293.383562 8.31780822 279.211644"></polygon>
            <path d="M65.9434932,267.54863 C65.9531931,263.901806 64.5046165,260.402435 61.9202055,257.829452 C57.2604516,253.219129 49.9946359,252.537971 44.5591866,256.201887 C39.1237374,259.865803 37.0293332,266.856477 39.5547945,272.905479 C41.7072368,277.995498 46.6972117,281.302859 52.2236301,281.302397 C55.8677367,281.298397 59.3620646,279.851908 61.9428082,277.27911 C64.5300088,274.703368 65.9788167,271.199369 65.966179,267.54863 L65.9434932,267.54863 Z" id="Path" fill="#023852"></path>
            <path d="M209.617808,220.173298 L299.486301,220.173298 C304.065591,220.178291 308.456564,218.351093 311.680479,215.098973 C313.260271,213.523244 314.522542,211.658612 315.39863,209.606507 C316.303848,207.484372 316.769055,205.200627 316.76611,202.893493 L316.76611,189.716096 C316.768116,187.409056 316.302947,185.125498 315.39863,183.003082 C313.62904,178.864001 310.329265,175.568274 306.188014,173.803767 C304.070226,172.897332 301.789914,172.43204 299.486301,172.436272 L209.640411,172.436272 C207.337019,172.434244 205.057146,172.899446 202.938699,173.803767 C196.534486,176.497262 192.36998,182.768517 192.371915,189.716096 L192.371915,202.893493 C192.370651,205.199325 192.831797,207.481999 193.728082,209.606507 C195.501186,213.745853 198.799353,217.04402 202.938699,218.817123 C205.052509,219.709559 207.32333,220.17064 209.617808,220.173298 L209.617808,220.173298 Z" id="Path" fill="#009BDB" style="mix-blend-mode: multiply;"></path>
            <path d="M208.758904,271.232879 L299.486301,271.232879 C309.017531,271.214245 316.741228,263.495599 316.766102,253.964384 L316.766102,240.40274 C316.768116,238.0957 316.302947,235.812141 315.39863,233.689726 C314.522542,231.637621 313.260271,229.772989 311.680479,228.19726 C308.44875,224.956779 304.062842,223.131688 299.486301,223.122916 L208.758904,223.122916 C206.455291,223.118684 204.174979,223.583976 202.057192,224.490411 C199.999945,225.358104 198.130762,226.61702 196.553425,228.19726 C194.9807,229.77646 193.722725,231.64041 192.846575,233.689726 C191.942258,235.812141 191.477089,238.0957 191.479103,240.40274 L191.479103,253.964384 C191.477053,256.267775 191.942254,258.547648 192.846575,260.666096 C194.610797,264.811446 197.911841,268.11249 202.057192,269.876712 C204.177741,270.772987 206.456724,271.234164 208.758904,271.232879 L208.758904,271.232879 Z" id="Path" fill="#009BDB" style="mix-blend-mode: multiply;"></path>
            <path d="M208.871918,321.388385 L299.486301,321.388385 C301.789914,321.392617 304.070226,320.927326 306.188014,320.02089 C310.329265,318.256383 313.62904,314.960657 315.39863,310.821575 C316.302947,308.69916 316.768116,306.415601 316.766102,304.108562 L316.766102,290.637329 C316.768116,288.330289 316.302947,286.04673 315.39863,283.924315 C314.519594,281.87382 313.257682,280.009718 311.680479,278.431849 C310.106295,276.85304 308.241096,275.594222 306.188014,274.725 C304.070226,273.818565 301.789914,273.353273 299.486301,273.357505 L208.871918,273.357505 C206.564878,273.355514 204.28132,273.820683 202.158904,274.725 C200.108925,275.599932 198.244757,276.858054 196.666438,278.431849 C195.096255,280.013139 193.838628,281.876575 192.959589,283.924315 C192.055272,286.04673 191.590103,288.330289 191.592117,290.637329 L191.592117,304.108562 C191.590103,306.415601 192.055272,308.69916 192.959589,310.821575 C194.720544,314.962584 198.017896,318.259935 202.158904,320.02089 C204.28132,320.925207 206.564878,321.390377 208.871918,321.388385 L208.871918,321.388385 Z" id="Path" fill="#009BDB" style="mix-blend-mode: multiply;"></path>
            <path d="M235.497945,170.921918 L390.699658,170.921918 C393.901924,171.164734 397.11965,170.7375 400.147603,169.667466 C402.961783,168.669166 405.536816,167.094893 407.708219,165.045205 C409.853048,163.01814 411.563978,160.5767 412.737329,157.868836 C413.943717,155.071026 414.563003,152.055375 414.556895,149.008562 L414.556895,146.307534 C414.561675,143.251044 413.946535,140.225327 412.74863,137.413356 C410.404255,131.920494 406.038601,127.538657 400.554452,125.173973 C397.7492,123.958101 394.728846,123.316372 391.671575,123.286644 L236.458562,123.286644 C233.401291,123.316372 230.380937,123.958101 227.575685,125.173973 C222.091536,127.538657 217.725882,131.920494 215.381507,137.413356 C214.183602,140.225327 213.568462,143.251044 213.57326,146.307534 L213.57326,149.008562 C213.569465,152.05286 214.180662,155.066559 215.370205,157.868836 C216.491117,160.549577 218.122392,162.986894 220.173288,165.045205 C222.16426,167.04844 224.545248,168.621662 227.168836,169.667466 C229.811602,170.721281 232.662024,171.150584 235.497945,170.921918 Z" id="Path" fill="#0099DA"></path>
            <path d="M228.943151,221.427769 L301.927397,221.427769 C304.234437,221.42976 306.517996,220.964591 308.640411,220.060274 C312.781419,218.299319 316.078771,215.001967 317.839726,210.860959 C318.744043,208.738544 319.209212,206.454985 319.207198,204.147945 L319.207198,190.235959 C319.209212,187.928919 318.744043,185.645361 317.839726,183.522945 C316.078771,179.381937 312.781419,176.084585 308.640411,174.32363 C306.517996,173.419313 304.234437,172.954144 301.927397,172.956135 L228.943151,172.956135 C226.639538,172.951903 224.359226,173.417195 222.241438,174.32363 C215.837225,177.017125 211.67272,183.28838 211.674657,190.235959 L211.674657,204.147945 C211.674657,206.453686 212.135417,208.736179 213.030822,210.860959 C213.909858,212.911454 215.17177,214.775556 216.748973,216.353425 C218.323157,217.932234 220.188356,219.191052 222.241438,220.060274 C224.359226,220.966709 226.639538,221.432001 228.943151,221.427769 L228.943151,221.427769 Z" id="Path" fill="#0099DA"></path>
            <path d="M228.943151,272.272603 L301.927397,272.272603 C308.867712,272.250531 315.126921,268.094025 317.839726,261.705822 C318.744047,259.587374 319.209249,257.307501 319.207206,255.00411 L319.207206,241.092123 C319.210151,238.784989 318.744944,236.501244 317.839726,234.37911 C315.160219,227.957174 308.885916,223.77282 301.927397,223.767123 L228.943151,223.767123 C219.404197,223.773362 211.674658,231.507963 211.674658,241.046918 L211.674658,254.958904 C211.680891,264.493446 219.408609,272.221163 228.943151,272.227397 L228.943151,272.272603 Z" id="Path" fill="#0099DA"></path>
            <path d="M228.943151,322.495919 L301.927397,322.495919 C304.234437,322.497911 306.517996,322.032742 308.640411,321.128425 C312.781419,319.367469 316.078771,316.070118 317.839726,311.92911 C318.744043,309.806694 319.209212,307.523136 319.207198,305.216096 L319.207198,291.30411 C319.209212,288.99707 318.744043,286.713511 317.839726,284.591096 C316.078771,280.450088 312.781419,277.152736 308.640411,275.391781 C306.517996,274.487464 304.234437,274.022295 301.927397,274.024286 L228.943151,274.024286 C226.639538,274.020054 224.359226,274.485345 222.241438,275.391781 C220.188356,276.261003 218.323157,277.519821 216.748973,279.09863 C215.17177,280.676499 213.909858,282.5406 213.030822,284.591096 C212.135417,286.715876 211.674657,288.998369 211.674657,291.30411 L211.674657,305.216096 C211.674657,307.521836 212.135417,309.80433 213.030822,311.92911 C214.800412,316.068191 218.100187,319.363917 222.241438,321.128425 C224.359226,322.03486 226.639538,322.500151 228.943151,322.495919 L228.943151,322.495919 Z" id="Path" fill="#0099DA"></path>
            <path d="M346.692123,195.332877 L354.038014,184.314041 L361.383904,173.295205 L368.729795,162.265068 L376.075685,151.246233 C376.296629,150.960558 376.482543,150.649436 376.629452,150.319521 C376.78338,149.99329 376.904523,149.652576 376.991096,149.302397 C377.090113,148.931975 377.158155,148.55396 377.194521,148.17226 C377.237602,147.797152 377.256477,147.419658 377.251027,147.042123 C377.256168,146.664594 377.237294,146.28712 377.194521,145.911986 C377.155133,145.549305 377.087113,145.190308 376.991096,144.838356 C376.906294,144.491286 376.785074,144.154142 376.629452,143.832534 C376.482291,143.499226 376.296425,143.18439 376.075685,142.894521 L368.729795,131.875685 L361.383904,120.856849 L354.038014,109.826712 L346.692123,98.8078767 C346.118256,97.9958601 345.397662,97.2982645 344.567466,96.7510274 C342.957411,95.694971 341.005917,95.290935 339.108904,95.6208904 C337.134383,95.9621118 335.399334,97.1297753 334.339726,98.8304795 C333.823463,99.6337525 333.463074,100.527056 333.277397,101.463699 C332.904823,103.373888 333.285487,105.354154 334.339726,106.990068 L341.030137,116.991781 L347.720548,126.982192 L354.399658,136.972603 L361.090068,146.963014 L354.399658,157.089041 L347.720548,167.079452 L341.030137,177.081164 L334.339726,187.071575 C333.281637,188.752381 332.920795,190.779582 333.333904,192.72226 C333.873848,195.650576 336.176436,197.93514 339.108904,198.452055 C342.03426,198.984568 345.000518,197.755627 346.692123,195.310274 L346.692123,195.332877 Z" id="Path" fill="#FBDC00"></path>
            <path d="M391.942808,176.527397 C391.942808,175.894521 391.942808,175.261644 391.863699,174.617466 C391.797308,173.953252 391.695451,173.293063 391.558562,172.639726 C391.422945,171.95411 391.242123,171.230822 391.016096,170.469863 C390.778767,169.70137 390.496233,168.887671 390.157192,168.006164 L387.196233,162.739726 L384.246575,157.552397 L381.296918,152.319863 L378.335959,147.09863 L381.39863,141.57226 L384.45,136.04589 L387.512671,130.519521 L390.575342,124.993151 C390.654452,124.857534 390.72226,124.710616 390.790068,124.575 C390.857877,124.439384 390.914384,124.292466 390.97089,124.145548 C391.027397,123.99863 391.083904,123.851712 391.12911,123.704795 L391.264726,123.25274 C392.096275,119.962809 392.127278,116.521502 391.355137,113.217123 C389.816113,106.720552 385.542853,101.206934 379.635616,98.0958904 C376.631432,96.5278553 373.293915,95.7060742 369.905137,95.6999892 C366.961564,95.6970706 364.04776,96.2890573 361.338699,97.440411 C353.15581,100.882863 347.843106,108.905402 347.867466,117.782877 C347.867466,118.246233 347.867466,118.709589 347.867466,119.172945 C347.867466,119.636301 347.935274,120.088356 347.991781,120.551712 C348.048288,121.015068 348.127397,121.467123 348.206507,121.930479 C348.285616,122.393836 348.39863,122.834589 348.511644,123.286644 L348.64726,123.738699 C348.64726,123.885616 348.748973,124.032534 348.805479,124.179452 C348.861986,124.32637 348.918493,124.473288 348.986301,124.608904 C349.05411,124.744521 349.133219,124.891438 349.201027,125.027055 L352.263699,130.553425 L355.32637,136.091096 L358.389041,141.617466 L361.451712,147.143836 L358.355137,152.658904 L355.269863,158.173973 L352.173288,163.689041 L349.076712,169.192808 C348.873288,169.780479 348.692466,170.379452 348.534247,170.989726 C348.376027,171.588699 348.240411,172.198973 348.138699,172.809247 C348.026271,173.426126 347.947048,174.048598 347.90137,174.673973 C347.844863,175.295548 347.82226,175.928425 347.82226,176.561301 C347.82226,188.732371 357.688862,198.598973 369.859932,198.598973 C382.031001,198.598973 391.897603,188.732371 391.897603,176.561301 L391.942808,176.527397 Z M362.638356,118.890411 C362.477271,117.84249 362.558458,116.771591 362.875685,115.759932 C363.497897,113.75362 364.921016,112.093315 366.808562,111.171575 C369.598854,109.847122 372.920691,110.421881 375.103767,112.606849 C375.76979,113.280969 376.30273,114.074628 376.674658,114.946233 C377.058348,115.850473 377.254433,116.823208 377.251027,117.805479 L377.251027,118.076712 C377.251027,118.167123 377.251027,118.257534 377.251027,118.347945 C377.256625,118.43827 377.256625,118.528854 377.251027,118.619178 L377.251027,118.890411 L375.431507,122.17911 L373.623288,125.456507 L371.803767,128.745205 L369.984247,132.022603 L368.164726,128.745205 L366.266096,125.445205 L364.457877,122.167808 L362.638356,118.890411 Z M362.559247,176.527397 C362.559247,176.312671 362.559247,176.097945 362.559247,175.905822 C362.559247,175.713699 362.559247,175.544178 362.559247,175.419863 C362.582293,175.334752 362.582293,175.245043 362.559247,175.159932 C362.559247,175.159932 362.491438,175.159932 362.434932,175.239041 L364.299658,171.92774 L366.164384,168.616438 L368.040411,165.305137 L369.916438,162.005137 L371.634247,165.022603 L373.363356,168.040068 L375.092466,171.057534 L376.810274,174.086301 C377.197057,175.172775 377.294427,176.341205 377.092808,177.476712 C376.685633,179.776077 375.2834,181.778085 373.261644,182.946575 C372.228997,183.536772 371.060639,183.848334 369.871233,183.850703 C368.889084,183.852843 367.916597,183.656808 367.011986,183.274315 C366.137607,182.902438 365.343269,182.365205 364.672603,181.692123 C364.009198,181.020172 363.476515,180.230728 363.101712,179.364041 C362.734969,178.463704 362.550584,177.499525 362.559247,176.527397 Z" id="Shape" fill="#FFE700"></path>
            <path d="M334.339726,187.105479 C333.814625,187.957481 333.454265,188.90055 333.277397,189.885616 C333.120589,190.834089 333.139744,191.803327 333.333904,192.744863 C333.873848,195.673179 336.176436,197.957743 339.108904,198.474658 C342.03426,199.007171 345.000518,197.77823 346.692123,195.332877 L354.038014,184.314041 L361.383904,173.295205 L368.729795,162.265068 L376.075685,151.246233 C376.296629,150.960558 376.482543,150.649436 376.629452,150.319521 C376.78338,149.99329 376.904523,149.652576 376.991096,149.302397 C377.090113,148.931975 377.158155,148.55396 377.194521,148.17226 C377.237602,147.797152 377.256477,147.419658 377.251027,147.042123 L361.090068,147.042123 L354.399658,157.089041 L347.720548,167.079452 L341.030137,177.081164 L334.339726,187.105479 Z" id="Path" fill="#FBDC00"></path>
            <path d="M391.942808,176.527397 C391.942808,175.894521 391.942808,175.261644 391.863699,174.617466 C391.797308,173.953252 391.695451,173.293063 391.558562,172.639726 C391.422945,171.95411 391.242123,171.230822 391.016096,170.469863 C390.778767,169.70137 390.496233,168.887671 390.157192,168.006164 L387.196233,162.739726 L384.246575,157.575 L381.296918,152.353767 L378.34726,147.132534 L361.485616,147.132534 L358.389041,152.636301 L355.303767,158.15137 L352.218493,163.655137 L349.121918,169.158904 C348.918493,169.746575 348.737671,170.345548 348.579452,170.955822 C348.421233,171.554795 348.285616,172.165068 348.183904,172.775342 C348.071477,173.392222 347.992253,174.014693 347.946575,174.640068 C347.890068,175.261644 347.867466,175.894521 347.867466,176.527397 C347.867466,188.698467 357.734067,198.565068 369.905137,198.565068 C382.076207,198.565068 391.942808,188.698467 391.942808,176.527397 L391.942808,176.527397 Z M362.559247,176.527397 C362.559247,176.312671 362.559247,176.097945 362.559247,175.905822 C362.559247,175.713699 362.559247,175.544178 362.559247,175.419863 C362.582293,175.334752 362.582293,175.245043 362.559247,175.159932 C362.559247,175.159932 362.491438,175.159932 362.434932,175.239041 L364.299658,171.92774 L366.164384,168.616438 L368.040411,165.305137 L369.916438,162.005137 L371.634247,165.022603 L373.363356,168.040068 L375.092466,171.057534 L376.810274,174.086301 C377.197057,175.172775 377.294427,176.341205 377.092808,177.476712 C376.685633,179.776077 375.2834,181.778085 373.261644,182.946575 C372.228997,183.536772 371.060639,183.848334 369.871233,183.850703 C368.889084,183.852843 367.916597,183.656808 367.011986,183.274315 C366.137607,182.902438 365.343269,182.365205 364.672603,181.692123 C364.009198,181.020172 363.476515,180.230728 363.101712,179.364041 C362.734969,178.463704 362.550584,177.499525 362.559247,176.527397 Z" id="Shape" fill="#FFE700"></path>
        </g>
    </g>
</svg>