<svg width="440" height="330" xmlns="http://www.w3.org/2000/svg"><g fill-rule="nonzero" fill="none"><path d="M341.998 297.091l.64 6.55.65 6.562h-12.792c-.138 0-.276-.023-.408-.066a1.698 1.698 0 01-.386-.166l-4.664-2.977-4.665-2.966.86-3.562.85-3.573 9.924.099 9.991.1z" fill="#0099DA"/><path d="M345.042 309.32v15.164a4.257 4.257 0 01-4.257 4.256h-11.888a1.456 1.456 0 01-1.036-.43 1.489 1.489 0 01-.43-1.047 1.489 1.489 0 00-1.952-1.4l-4.202 1.4-4.19 1.4a.882.882 0 01-.232.055.904.904 0 01-.242 0h-29.995a1.467 1.467 0 01-1.478-1.477v-3.562c-.001-.67.453-1.256 1.103-1.423l10.255-2.878 10.256-2.867c.283-.079.537-.24.728-.463l5.282-6.099 5.293-6.109a4.775 4.775 0 016.308-.816l4.62 3.154 4.632 3.165h11.447l-.022-.022zM382.105 229.647l-2.338 2.525-2.337 2.525a2.14 2.14 0 01-.695.485 2.007 2.007 0 01-.85.155l-24.194-.871-24.172-.838a3.253 3.253 0 00-3.165 4.19c2.36 7.72 7.069 22.96 11.105 36.226 4.036 13.266 7.377 24.591 7.002 24.591s-3.209.353-6.23.739l-7.4.96h-.937l-4.82-.32-4.807-.32a4.709 4.709 0 01-2.548-.96 4.632 4.632 0 01-1.599-2.205l-14.336-39.799-14.335-39.81a3.247 3.247 0 01-.177-1.025 3.325 3.325 0 01.144-1.025l1.709-5.514 1.71-5.514a3.308 3.308 0 011.102-1.588 3.242 3.242 0 011.797-.684l30.8-2.756 30.8-2.746c.475 0 .905.375 1.313.87.408.497.772 1.104 1.102 1.423l13.233 13.233 13.234 13.234a3.308 3.308 0 01-.144 4.73l.033.089z" fill="#023852"/><path d="M349.31 206.687l-13.168 5.757-13.178 5.767c-.4.174-.831.264-1.268.265a3.033 3.033 0 01-1.279-.276l-1.29-.573-1.29-.574a3.22 3.22 0 00-2.702.066l-10.973 5.514-10.972 5.514a3.143 3.143 0 01-4.411-1.787l-2.206-6.23-2.205-6.242a3.308 3.308 0 01-.154-1.356c.043-.457.19-.898.43-1.29l2.205-3.794 2.206-3.793c.24-.383.55-.716.915-.982.374-.256.8-.43 1.246-.507l25.694-4.599 25.695-4.61a3.165 3.165 0 011.841.232c.58.257 1.069.684 1.4 1.225l2.36 3.826 2.35 3.827a3.165 3.165 0 01-1.423 4.543l.176.077z" fill="#023852" opacity=".6" style="mix-blend-mode:multiply"/><path d="M225.271 178.313l1.897.949 1.897.948a3.253 3.253 0 003.209-.165l3.716-2.338 3.672-2.327a3.22 3.22 0 01.838-.386c.295-.08.6-.12.905-.121h1.521a3.308 3.308 0 003.242-3.672l-.485-3.838-.474-3.838c-.1-.77-.466-1.48-1.037-2.007a3.308 3.308 0 00-2.073-.849l-8.204-.32-8.194-.308a3.308 3.308 0 00-3.374 3.584l.606 6.043.607 6.054a3.242 3.242 0 001.786 2.591h-.055z" fill="#0099DA"/><path fill="#F3F5F6" d="M252.498 160.559l-4.565.198-4.566.188.805 6.947.805 6.948 5.382.397 5.381.408-1.62-7.543z"/><path d="M335.646 115.544l-6.164 3.827-6.154 3.849c-.097.062-.182.14-.253.231a.981.981 0 00-.166.298l-2.525 8.017-2.536 8.017a.805.805 0 01-.166.32.794.794 0 01-.275.231l-12.969 7.345-12.968 7.355-.166.077a1.103 1.103 0 01-.187 0l-20.556 2.57-20.555 2.57a.96.96 0 00-.65.385.926.926 0 00-.177.728l1.18 7.488 1.18 7.487a.981.981 0 00.915.816l20.203.86 20.213.85c.066.01.133.01.199 0a.65.65 0 00.187 0l13.31-4.996 13.322-4.995a.926.926 0 01.904.121c.266.184.42.492.408.816l-.397 10.564-.386 10.554a.97.97 0 001.103.992c2.029-.408 6.33-1.257 10.013-2.106 3.683-.85 6.782-1.698 6.407-2.073s-.618-15.494-.739-31.87-.132-34.02-.143-39.512a.948.948 0 00-1.467-.816h.055z" fill="#9DADB7"/><path d="M335.646 115.544l-6.164 3.827-6.154 3.849c-.097.062-.182.14-.253.231a.981.981 0 00-.166.298l-2.525 8.017-2.536 8.017a.805.805 0 01-.166.32.794.794 0 01-.275.231l-12.969 7.345-12.968 7.355-.166.077a1.103 1.103 0 01-.187 0l-21.052 2.636-21.04 2.635 1.257 7.973 1.257 7.984a.981.981 0 00.915.816l20.203.86 20.213.85c.066.01.133.01.199 0a.65.65 0 00.187 0l13.31-4.996 13.322-4.995a.926.926 0 01.904.121c.266.184.42.492.408.816l-.397 10.564-.386 10.554a.97.97 0 001.103.992c2.04-.408 6.33-1.257 10.013-2.106 3.683-.85 6.782-1.698 6.407-2.073s-.618-15.494-.739-31.87-.132-34.02-.143-39.512a.948.948 0 00-1.467-.816h.055z" fill="#9DADB7"/><path d="M317.826 154.372l2.084-13.861 2.095-13.862-2.073 6.617-2.084 6.616a.805.805 0 01-.166.32.794.794 0 01-.275.232l-6.363 3.606-6.374 3.606-.254.386-.254.386a3.474 3.474 0 00-.562 2.106c.054.705.32 1.377.76 1.93l3.067 3.617 3.065 3.606a3.308 3.308 0 01-.088 4.334l-5.944 6.418-5.933 6.418 10.664-4.003 10.664-3.992a.926.926 0 01.904.12c.266.185.42.493.408.817v.441l.254-1.103.253-1.102-1.875-6.75-1.973-6.903z" opacity=".5" fill="#9DADB7"/><path d="M309.048 68.214l.827 8.15.816 8.16v.264l-1.213 6.86-1.213 6.859a.96.96 0 00.948 1.125h4.312c.205.008.403.072.573.187.163.126.282.3.342.496l1.544 5.029 1.555 5.017c.06.206.189.384.364.508.18.125.398.187.617.176l6.451-.408 6.452-.408c.135 0 .269.022.397.066.13.046.246.121.341.22l3.01 3.011 3.011 3.01a.96.96 0 001.401 0l8.215-9.03 8.216-9.043a.96.96 0 00.243-.574.915.915 0 00-.155-.606l-3.308-4.974-3.308-4.973-6.043-8.624-6.032-8.634a1.103 1.103 0 00-.31-.276 1.202 1.202 0 00-.396-.132l-13.288-1.246-13.322-1.269a.948.948 0 00-.772.287.937.937 0 00-.275.772z" fill="#19A3DE"/><path d="M310.404 70.916l-1.378 1.599-1.357 1.643a.97.97 0 01-1.687-.794.96.96 0 00-1.378-1.015l-.585.287-.573.287a.96.96 0 01-1.103-.166.948.948 0 01-.21-1.102l1.577-3.463 1.566-3.452a.86.86 0 01.177-.264.794.794 0 01.242-.188l12.031-6.44 11.998-6.473a.96.96 0 01.342-.11c.12-.022.244-.022.364 0l7.929 2.095 7.94 2.084c.15.044.289.12.408.22a.85.85 0 01.253.398l3.838 11.093 3.849 11.028c.01.08.01.162 0 .243a.981.981 0 010 .253l-1.158 6.506-1.213 6.43a.97.97 0 01-.42.628c-.22.138-.484.186-.738.132l-4.94-1.102-4.94-1.103a1.015 1.015 0 01-.475-.265.992.992 0 01-.254-.474l-1.18-5.514-1.19-5.513a.893.893 0 00-.287-.519 1.004 1.004 0 00-.54-.242l-3.088-.342-3.088-.342a.97.97 0 00-.75.243.992.992 0 00-.32.716v6.915a.992.992 0 01-.22.628.96.96 0 01-.585.32l-1.797.309-1.798.297c-.24.03-.485-.02-.695-.143a.992.992 0 01-.408-.573l-.705-2.834-.75-2.934a.948.948 0 00-.629-.684l-2.018-.65-2.062-.684a.948.948 0 01-.662-.915v-5.426a.926.926 0 00-.286-.683.97.97 0 00-.684-.287h-5.635c-.14.003-.279.033-.408.088a.882.882 0 00-.32.254z" fill="#023852"/><path d="M309.048 68.214l.827 8.15.816 8.16v.264l-1.213 6.86-1.213 6.859a.96.96 0 00.948 1.125h4.312c.205.008.403.072.573.187.163.126.282.3.342.496l1.544 5.029 1.555 5.017c.06.206.189.384.364.508.18.125.398.187.617.176l6.451-.408 6.452-.408c.135 0 .269.022.397.066.13.046.246.121.341.22l3.01 3.011 3.011 3.01a.96.96 0 001.401 0l8.215-9.03 8.216-9.043a.96.96 0 00.243-.574.915.915 0 00-.155-.606l-3.308-4.974-3.308-4.973-6.043-8.624-6.032-8.634a1.103 1.103 0 00-.31-.276 1.202 1.202 0 00-.396-.132l-13.288-1.246-13.322-1.269a.948.948 0 00-.772.287.937.937 0 00-.275.772z" fill="#0099DA"/><path d="M310.404 70.916l-1.378 1.599-1.357 1.643a.97.97 0 01-1.687-.794.96.96 0 00-1.378-1.015l-.585.287-.573.287a.96.96 0 01-1.103-.166.948.948 0 01-.21-1.102l1.577-3.463 1.566-3.452a.86.86 0 01.177-.264.794.794 0 01.242-.188l12.031-6.44 11.998-6.473a.96.96 0 01.342-.11c.12-.022.244-.022.364 0l7.929 2.095 7.94 2.084c.15.044.289.12.408.22a.85.85 0 01.253.398l3.838 11.093 3.849 11.028c.01.08.01.162 0 .243a.981.981 0 010 .253l-1.158 6.506-1.213 6.43a.97.97 0 01-.42.628c-.22.138-.484.186-.738.132l-4.94-1.102-4.94-1.103a1.015 1.015 0 01-.475-.265.992.992 0 01-.254-.474l-1.18-5.514-1.19-5.513a.893.893 0 00-.287-.519 1.004 1.004 0 00-.54-.242l-3.088-.342-3.088-.342a.97.97 0 00-.75.243.992.992 0 00-.32.716v6.915a.992.992 0 01-.22.628.96.96 0 01-.585.32l-1.797.309-1.798.297c-.24.03-.485-.02-.695-.143a.992.992 0 01-.408-.573l-.705-2.834-.75-2.934a.948.948 0 00-.629-.684l-2.018-.65-2.062-.684a.948.948 0 01-.662-.915v-5.426a.926.926 0 00-.286-.683.97.97 0 00-.684-.287h-5.635c-.14.003-.279.033-.408.088a.882.882 0 00-.32.254z" fill="#023852"/><path d="M305.97 73.32a.838.838 0 000 .375.76.76 0 00.133.32l.927-2.04.937-2.052c.045-.09.1-.176.165-.253.077-.076.162-.142.254-.199l12.02-6.44 12.02-6.44c.112-.053.23-.09.353-.11a.981.981 0 01.353 0l7.72 2.018 7.718 2.029-.772-2.206-.782-2.205a.85.85 0 00-.254-.397 1.103 1.103 0 00-.408-.22l-7.94-2.085-7.929-2.095a1.015 1.015 0 00-.364 0 .96.96 0 00-.342.11l-12.02 6.44-12.075 6.363a.794.794 0 00-.242.188.86.86 0 00-.177.264l-1.566 3.452-1.544 3.485a.948.948 0 00.21 1.102.96.96 0 001.103.166l.573-.287.585-.287a.96.96 0 011.378 1.015l-.033-.011z" fill="#356075"/><path fill="#0099DA" style="mix-blend-mode:multiply" d="M333.683 79.914l-11.468 4.919-11.458 4.918-.353-.518-.342-.519 11.524-4.598 11.513-4.588.286.199z"/><path d="M318.498 111.056l6.451-.408 6.452-.408c.135 0 .269.022.396.066.13.046.247.121.342.22l2.206 2.206 2.205 2.206.441.33.442.331 1.39-.463 1.389-.452-.97-3.308-.96-3.308 1.102-6.43 1.103-6.44a.717.717 0 00-1.213-.628l-5.447 5.448-5.448 5.447a2.305 2.305 0 01-1.147.629l-5.139 1.102-5.139 1.103.287.949.298.948c.06.205.189.384.364.507.15.186.36.31.595.353z" fill="#0099DA"/><path fill="#0099DA" style="mix-blend-mode:multiply" d="M335.812 80.885l-.872.286-.87.287-.486 3.87-.485 3.871 1.742.1 1.742.088-.97-1.742-.97-1.732.584-2.514z"/><path d="M334.058 79.242a.485.485 0 00-.242-.287.463.463 0 00-.364 0l-12.13 3.727-12.131 3.728-.783-1.412-.794-1.412a.43.43 0 00-.287-.231.463.463 0 00-.364 0 .485.485 0 00-.231.287.496.496 0 000 .375l2.205 3.958 2.206 3.97c.045.075.11.136.187.177a.442.442 0 00.243.066H311.805a.519.519 0 00.275-.386.474.474 0 000-.364l-1.18-2.117-1.18-2.117 12.053-3.706 12.054-3.694a.562.562 0 00.286-.243.507.507 0 00-.055-.32z" fill="#023852"/><path fill="#FFE700" d="M311.485 86.73l1.477-.464 1.478-.452-.165-.562-.177-.552-1.477.463-1.478.453.176.562z"/><path d="M352.276 91.615l1.213-6.43 1.202-6.429a.981.981 0 000-.253.937.937 0 000-.243l-1.191-3.418-1.18-3.408c-.629 3.22-1.544 7.995-2.327 12.13-.783 4.136-1.522 7.587-1.599 8.238l1.356.309 1.368.32c.254.053.519.005.739-.133a.97.97 0 00.419-.683z" opacity=".6" fill="#023852"/><path d="M368.32 119.603l-3.914 21.294-3.804 21.294a1.015 1.015 0 01-.475.673l-26.18 14.953-26.134 14.987a.992.992 0 00-.475.716.97.97 0 00.276.805l5.514 5.514 5.514 5.514a.992.992 0 001.014.22l30.348-10.84 30.359-10.84c.122-.044.234-.112.33-.198.09-.091.164-.195.221-.309l9.462-21.184 9.528-21.206a1.004 1.004 0 000-.772l-7.157-16.85-7.157-16.85a.96.96 0 00-.65-.552.97.97 0 00-.839.166l-7.344 5.723-7.333 5.712a.948.948 0 00-.155.144 1.103 1.103 0 00-.121.187l-.353.717-.364.728c-.02.04-.039.08-.055.121l-.055.133z" fill="#9DADB7"/><path d="M355.474 96.059l-8.933 9.175-8.932 9.186a.981.981 0 01-.419.253.992.992 0 01-.507 0l-.618-.154-.606-.155a.981.981 0 00-1.202 1.103l.54 4.411.54 4.411a.408.408 0 010 .122v.132l-2.635 18.416-2.625 18.317v.077l-.816 12.637-.827 12.65a.981.981 0 00.485.903.96.96 0 001.026 0c1.864-1.29 5.028-3.484 7.807-5.436 2.78-1.952 5.183-3.661 5.514-4.014.331-.353 2.349-12.792 4.202-25.253a3262.322 3262.322 0 003.716-25.805v-.077l3.452-14.634 3.44-14.633a.97.97 0 00-.397-1.015l-.496-.353-.507-.342a.981.981 0 00-1.202.077z" fill="#F3F5F6"/><path d="M340.156 118.764l1.82 2.107 1.808 2.117a.948.948 0 01.221.474c.023.175.004.353-.055.518l-.75 1.853-.739 1.864a.717.717 0 000 .143.65.65 0 000 .143l-1.919 24.173-1.996 24.183c-.015.127-.052.25-.11.364a1.026 1.026 0 01-.243.298l-1.874 1.566-1.886 1.555a.948.948 0 01-1.103.121.96.96 0 01-.518-.937l1.908-25.683 1.908-25.684a.143.143 0 000-.066.474.474 0 000-.055l.882-4.312.882-4.312a.97.97 0 01.706-.738.937.937 0 011.058.308z" fill="#023852"/><path fill="#0099DA" d="M311.573 193.024l-10.576.882-10.575.882-4.841 5.294-4.852 5.282.452 7.047.43 7.046h3.529l3.518-6.164 3.528-6.165 13.653-1.764 13.663-1.765-3.97-5.282z"/><path fill="#2C2729" d="M111.588 236.197l-38.762 32.156-38.762 32.157-9.693 14.093-9.693 14.093H9.395l11.017-15.857 11.006-15.858 38.85-31.241 38.839-31.252 1.246.849z"/><path d="M34.097 250.026l40.416-4.213 40.416-4.224c.313-.028.609-.151.85-.352.238-.208.41-.48.496-.783l.882-3.242.882-3.232a1.555 1.555 0 00-1.654-1.962l-41.298 4.179-41.31 4.18c-.385.03-.742.213-.992.507a1.533 1.533 0 00-.408 1.036v6.617c.014.423.202.822.518 1.103.33.29.765.43 1.202.386z" fill="#1F1B1E"/><path d="M155.632 304.028v5.171c.006.552.452.998 1.004 1.004h11.92c.096.011.192.011.287 0a.772.772 0 00.254-.121l4.72-3 4.73-3.01-2.646-5.283-2.647-5.282-8.822 5.282-8.8 5.239zM123.046 300.51l-.805 4.003-.805 4.003a1.004 1.004 0 01-.97.805h-19.453l.882-2.647.882-2.646 10.134-1.754 10.135-1.764z" fill="#0099DA"/><path d="M117.929 149.653l2.073 19.143 2.084 19.133c.028.224.028.45 0 .673a2.558 2.558 0 01-.21.64l-.32.628-.308.618a2.37 2.37 0 00.11 2.304 2.327 2.327 0 002.007 1.103c.44.005.87.127 1.247.353.368.239.669.57.87.96l2.316 4.631 2.316 4.632-11.501-.408-11.491-.408c-.507 0-5.812.22-11.028.353-5.216.132-10.344.143-10.498-.331l6.076-12.45 6.087-12.44a2.448 2.448 0 01-.11-.738 2.89 2.89 0 01.132-.75l5.228-14.854 5.227-14.866a2.37 2.37 0 012.9-1.488l2.58.772 2.57.772c.432.143.815.407 1.102.76.303.356.491.794.54 1.258z" fill="#023852"/><path d="M121.138 180.794l-1.798-16.54-1.797-16.542a2.316 2.316 0 00-.54-1.257 2.393 2.393 0 00-1.103-.761l-2.57-.772-2.58-.772a2.404 2.404 0 00-1.754.165 2.37 2.37 0 00-1.102 1.324l-4.742 13.52-4.753 13.52-.077-.243-.066-.254-8.139 15.957-8.138 15.957 12.571-.199 12.572-.187-2.35-8.381-2.348-8.392a2.404 2.404 0 01.408-2.206 2.437 2.437 0 011.974-.992h13.751a2.658 2.658 0 001.996-.882 2.69 2.69 0 00.585-2.063z" fill="#A19A94" style="mix-blend-mode:multiply"/><path d="M140.756 206.489l5.8.893 5.8.882a12.329 12.329 0 0110.378 10.973l1.72 17.578 1.731 17.566c-.01.088-.01.177 0 .265.02.087.045.171.078.254l7.973 19.32 7.961 19.276a1.809 1.809 0 01-1.015 2.393l-13.232 5.05-13.233 5.063c-.463.17-.975.15-1.423-.056a1.797 1.797 0 01-.948-1.102l-9.318-27.57-9.33-27.568a2.57 2.57 0 01-.088-.397 1.687 1.687 0 010-.408l2.558-20.357 2.504-20.445c.061-.49.315-.934.705-1.235a1.82 1.82 0 011.379-.375z" fill="#023852"/><path d="M147.88 273.922l9.296-9.296 9.296-9.296-.077-.188-.088-.198a1.71 1.71 0 01-.077-.254 1.103 1.103 0 010-.264l-1.732-17.567-1.72-17.578a12.329 12.329 0 00-10.377-10.973l-5.8-.882-5.801-.893a1.82 1.82 0 00-1.378.342c-.39.301-.645.746-.706 1.235l-2.548 20.434-2.503 20.445a1.687 1.687 0 000 .408c.019.134.049.267.088.397l4.841 14.336 4.83 14.336 2.206-2.206 2.25-2.338z" fill="#A19A94" style="mix-blend-mode:multiply"/><path d="M76.807 201.857l33.27 1.257 33.281 1.268a8.601 8.601 0 012.482.475c.788.29 1.53.69 2.205 1.19l.232.166.22.176a13.564 13.564 0 014.61 15.44l-9.23 25.495-9.241 25.496c-.044.118-.077.24-.1.363-.011.125-.011.25 0 .375l-.463 13.432-.397 13.354a2.393 2.393 0 01-2.029 2.272l-15.317 2.206-15.317 2.205a2.36 2.36 0 01-2.625-2.933l8.822-34.086 8.822-34.087a2.382 2.382 0 00-2.514-2.944l-39.49 3.75-39.49 3.738a2.338 2.338 0 01-1.202-.21 2.305 2.305 0 01-.948-.772l-5.304-7.421-5.305-7.433a2.36 2.36 0 011.103-3.595l26.466-9.528 26.467-9.528a3.22 3.22 0 01.44-.11c.183-.028.369-.032.552-.01z" fill="#023852"/><path d="M148.486 206.39l-.22-.177-.232-.165a8.822 8.822 0 00-2.205-1.191c-.8-.28-1.636-.44-2.482-.475l-33.259-1.268-33.281-1.257a2.073 2.073 0 00-.452 0 3.22 3.22 0 00-.441.11l-4.235 1.765-4.256 1.742c.282-.101.582-.146.882-.132l33.27 1.257 33.26 1.268c.846.03 1.682.19 2.48.474a7.83 7.83 0 012.206 1.191l.231.166.22.165a13.575 13.575 0 014.621 15.439l-9.24 25.495-9.242 25.496a1.853 1.853 0 00-.099.353v.375l-.397 13.233-.397 13.233 3.242-.474 3.231-.474a2.393 2.393 0 002.03-2.272l.396-13.354.408-13.355a2.051 2.051 0 010-.375c.023-.123.056-.245.1-.363l9.24-25.496 9.23-25.496a13.564 13.564 0 00-4.609-15.439z" fill="#356075"/><path d="M77.568 206.797l10.575.475 10.576.474-16.972 14.413-16.971 14.413c-.33.277-.703.5-1.103.662-.39.166-.802.274-1.224.32l-14.038 1.466-14.06 1.478a2.084 2.084 0 01-1.048-.177 1.985 1.985 0 01-.805-.705l-5.668-7.907-5.668-7.907a3.805 3.805 0 01.1-4.047 5.437 5.437 0 013.528-2.592l25.937-5.16 25.882-5.15a3.75 3.75 0 01.507-.067l.452.011z" fill="#A19A94" style="mix-blend-mode:multiply"/><path d="M204.572 159.5h8.977a.706.706 0 00.22 0 .673.673 0 00.199-.099l4.113-2.89 4.125-2.877a.807.807 0 01.385-.133.718.718 0 01.397.11l4.411 2.735 4.412 2.735a.717.717 0 01-.375 1.335h-2.768a.717.717 0 00-.508 1.224l3.066 3.065 3.066 3.066a4.168 4.168 0 01-.254 6.142l-3.55 3.01-3.563 3.011a1.809 1.809 0 01-.926.408 1.83 1.83 0 01-.992-.154l-6.033-2.812-6.02-2.812h-.254l-5.26-.408-5.272-.408a.695.695 0 01-.507-.276.717.717 0 01-.143-.562l1.103-6.385 1.102-6.385a.695.695 0 01.254-.43.684.684 0 01.595-.21z" fill="#0099DA"/><path d="M196.655 157.184l4.51 1.103 4.51 1.103a1.103 1.103 0 01.85 1.312l-1.556 7.786-1.565 7.719c-.107.566-.63.955-1.202.893l-3.375-.33-3.363-.342a1.103 1.103 0 01-.74-.386 1.103 1.103 0 01-.275-.783l.42-8.503.407-8.502c.014-.331.176-.64.441-.838.26-.217.606-.302.938-.232z" fill="#F3F5F6"/><path d="M118.91 117.871l2.404-2.404 2.393-2.393a.397.397 0 01.232-.121.43.43 0 01.265 0l3.572 1.378 3.573 1.379a4.124 4.124 0 005.393-2.548l1.467-4.41 1.466-4.412a.474.474 0 01.166-.22.485.485 0 01.275-.088h5.161a1.875 1.875 0 001.809-2.35l-1.445-5.403-1.433-5.392a.706.706 0 010-.077v-.067l.43-9.44.43-9.439a.419.419 0 00-.11-.32.507.507 0 00-.298-.165l-15.064-1.632-15.053-1.72a.441.441 0 00-.264 0 .496.496 0 00-.199.198l-8.645 16.85-8.646 16.861a.53.53 0 000 .32c.027.106.089.2.176.265l10.697 7.72 10.686 7.718a.463.463 0 00.595 0l-.033-.088z" fill="#0099DA"/><path d="M136.808 113.019l1.467-4.411 1.466-4.411a.496.496 0 01.441-.309h5.161a1.875 1.875 0 001.809-2.36l-1.434-5.392-1.444-5.393a.22.22 0 010-.077V90.6l.43-9.44.419-9.44a.463.463 0 00-.1-.319.53.53 0 00-.308-.165l-.97-.11-.971-.111-.794 10.708-.827 10.719-4.654 11.623-4.642 11.623a4.135 4.135 0 002.977-.353 4.047 4.047 0 001.974-2.316z" fill="#19A3DE"/><path d="M118.392 102.51l-3.154 4.907-3.143 4.896 3.76 2.393 3.772 2.404 2.073-2.073 2.073-2.073a.397.397 0 01.232-.121.408.408 0 01.254 0l3.573 1.367 3.573 1.378a4.135 4.135 0 004.025-.606l-5.834-3.242-5.823-3.242a3.11 3.11 0 01-.926-.761 3.308 3.308 0 01-.584-1.103l-.651-1.93-.64-1.874a1.434 1.434 0 00-1.19-.982 1.412 1.412 0 00-1.39.662z" opacity=".6" fill="#023852"/><path fill="#0099DA" d="M120.763 84.358l.386 3.684.386 3.672-1.643.386-1.643.386 1.257-4.058z"/><path d="M140.844 76.628l2.514-.265 2.537-.275a2.647 2.647 0 002.205-1.974l.452-1.787.441-1.786a2.558 2.558 0 00-.077-1.522 2.636 2.636 0 00-.915-1.224l-8.524-6.198-8.492-6.186a2.547 2.547 0 00-.948-.43 2.58 2.58 0 00-1.048 0l-11.027 1.974-11.028 1.974a2.614 2.614 0 00-1.202.551c-.35.295-.62.675-.783 1.103l-3.55 9.087-3.551 9.075c-.097.24-.156.493-.177.75a2.955 2.955 0 000 .761l1.103 5.282 1.103 5.294a2.603 2.603 0 002.944 2.029l2.944-.441 2.945-.453a2.536 2.536 0 001.665-.97l4.135-5.26 4.136-5.25a2.47 2.47 0 01.915-.738c.343-.17.72-.261 1.103-.265a2.614 2.614 0 012.591 2.206l1.004 6.727 1.014 6.737c.084.555.343 1.07.739 1.467.403.395.92.653 1.478.739l.628.088.629.088a2.614 2.614 0 002.977-2.591V87.39c0-.3.053-.6.155-.882.105-.282.254-.547.44-.783l3.31-4.07 3.307-4.069c.216-.263.482-.48.783-.64.343-.198.73-.307 1.125-.319z" fill="#023852"/><path d="M98.355 83.344l3.308-8.348 3.308-8.348a2.636 2.636 0 011.985-1.665l11.028-1.974 11.028-1.974c.7-.132 1.424.036 1.996.463l8.535 6.198 8.524 6.197h.055l.066.055.442-1.764.43-1.764a2.558 2.558 0 00-.078-1.522 2.636 2.636 0 00-.915-1.224l-8.524-6.198-8.558-6.065a2.547 2.547 0 00-.948-.43 2.58 2.58 0 00-1.048 0l-11.027 1.974-11.028 1.974a2.614 2.614 0 00-1.202.551c-.35.295-.62.675-.783 1.103l-3.55 9.087-3.551 9.075c-.097.24-.156.493-.177.75a2.955 2.955 0 000 .761l.353 1.6.33 1.488z" fill="#356075"/><path d="M98.421 95.309a2.636 2.636 0 013.496-.298l7.929 6.043 7.917 6.032c.251.186.465.418.629.684.164.264.28.556.342.86l.231 1.103.221 1.103a2.625 2.625 0 01-4.268 2.525l-8.094-7.223-8.193-7.047a2.647 2.647 0 01-.905-1.841 2.68 2.68 0 01.695-1.941z" fill="#F3F5F6"/><path d="M96.27 96.048a2.614 2.614 0 013.309.099l12.77 10.829c4.808 4.091 9.054 7.72 9.428 8.083a77.281 77.281 0 013.518 8.822c1.61 4.411 3.309 9.23 4.036 11.326.123.334.31.641.552.904.239.257.528.464.849.606l15.196 6.76 15.196 6.75.298.11.308.077 18.383 3.308 18.383 3.143a2.591 2.591 0 011.687 1.102c.392.57.547 1.27.43 1.952l-1.323 7.598-1.323 7.598a2.57 2.57 0 01-1.037 1.665 2.647 2.647 0 01-1.896.486l-20.578-2.89-20.577-2.878-.386-.077-.353-.143-18.604-8.635-18.493-8.623a2.603 2.603 0 00-3.44 1.18l-13.355 26.344-13.365 26.334c-.09.187-.206.362-.342.518a2.713 2.713 0 01-.452.42l-12.13 8.822-12.13 8.822a2.58 2.58 0 01-1.633.496l-21.173-.827-21.206-.893a2.481 2.481 0 01-1.4-.475 2.636 2.636 0 01-.927-1.169l-.353-.882-.364-.893a2.88 2.88 0 01-.187-1.048c.016-.354.099-.701.243-1.025l22.562-48.996 22.551-49.017c.075-.164.167-.32.276-.463.107-.145.229-.278.364-.397l11.314-10.068 11.315-10.058c.24-.209.517-.373.816-.485.295-.114.609-.174.926-.176h6.065c.281 0 .56-.045.827-.133.264-.09.513-.22.739-.386l2.338-1.753 2.349-1.764zM153.879 310.313v17.39a.982.982 0 00.992.993h15.626a.982.982 0 00.993-.992V326.6a.992.992 0 01.419-.805c.263-.186.597-.238.904-.143l4.543 1.521 4.555 1.522h28.363a3.507 3.507 0 003.506-3.507 3.507 3.507 0 00-.716-2.117 3.452 3.452 0 00-1.842-1.257l-9.594-2.68-9.583-2.69a.816.816 0 01-.265-.122.871.871 0 01-.22-.187l-6.738-7.775-6.727-7.719-6.252 4.268-6.264 4.278a.992.992 0 01-.265.133 1.39 1.39 0 01-.297 0H154.87a.981.981 0 00-.992.992z" fill="#023852"/><path d="M211.222 321.727l-9.594-2.68-9.583-2.69a1.103 1.103 0 01-.265-.11 1.235 1.235 0 01-.22-.2l-6.738-7.719-6.727-7.774-5.646 3.86-5.657 3.86 3.396 3.914 3.386 3.904c.065.075.14.141.22.198.084.048.173.085.265.11l9.583 2.691 9.594 2.68a3.419 3.419 0 011.842 1.257c.463.609.715 1.352.716 2.117a3.507 3.507 0 01-3.506 3.507h17.986a3.507 3.507 0 00.948-6.881v-.044z" fill="#356075"/><path d="M126.619 304.777l-7.19 1.963-7.18 1.952-7.377.309-7.377.32v19.375h15.736c.264.001.517-.102.706-.286a.981.981 0 00.298-.706V326.6a.981.981 0 01.408-.805c.262-.186.597-.238.904-.143l4.554 1.521 4.544 1.522h28.23c.264.001.518-.102.706-.286a.983.983 0 00.298-.706v-6.473a.993.993 0 00-.75-.97l-9.142-2.339-9.153-2.349a1.103 1.103 0 01-.309-.143 1.213 1.213 0 01-.242-.232l-3.827-5.216-3.837-5.205z" fill="#023852"/><path d="M153.129 320.26l-9.142-2.338-9.153-2.349a1.103 1.103 0 01-.309-.143 1.213 1.213 0 01-.242-.232l-.43-.584-.42-.573v14.655h19.442c.264.001.518-.102.706-.286a.982.982 0 00.298-.706v-6.473a.993.993 0 00-.75-.97z" fill="#A19A94" style="mix-blend-mode:multiply"/><path d="M25.849 186.32l.12-.089.122-.077a4.268 4.268 0 001.765-2.746 4.19 4.19 0 00-.695-3.176l-8.414-12.075-8.326-12.064A4.246 4.246 0 004.5 154.99l-.121.088-.121.077a4.312 4.312 0 00-1.765 2.746c-.2 1.11.05 2.252.695 3.176l8.37 12.13 8.37 12.065a4.246 4.246 0 005.922 1.102v-.055z" fill="#1F1B1E"/><path d="M129.265 135.229l-10.928-7.565-10.94-7.576a.474.474 0 01-.154-.64.496.496 0 01.629-.22l9.153 3.837 9.152 3.849 1.544 4.157 1.544 4.158z" fill="#A19A94" style="mix-blend-mode:multiply"/><path d="M167.807 258.12l7.443 17.842 7.455 17.876c.143.33.143.706 0 1.037a1.268 1.268 0 01-.772.694l-2.04.684-2.04.673-5.007-19.42-5.04-19.386z" fill="#356075"/><path fill="#2C2729" style="mix-blend-mode:multiply" d="M104.001 242.45l-6.153 5.083-6.143 5.084-1.852-.606-1.853-.596 5.194-4.157 5.194-4.169 2.801-.32zM69.374 246.287l-2.205.22-2.206.21-2.91-4.267-2.923-4.268 2.283-.21 2.271-.21 2.845 4.258z"/><path fill="#2C2729" d="M.584 157.791l49.062 72.55 49.073 72.55.672-2.514.673-2.514-48.422-70.918-48.41-70.918-1.324.882z"/><path d="M145.906 103.116l-1.17-1.102-1.168-1.103a1.103 1.103 0 00-1.456.066l-1.102 1.103-1.103 1.102h5.999v-.066z" fill="#0099DA"/><path d="M363.138 99.444l2.205 1.103 2.206 1.103c.411.205.85.354 1.301.44.445.1.902.133 1.357.1l5.348-.33 5.337-.332a4.995 4.995 0 011.897.232 5.293 5.293 0 011.687.893l.949.761.937.75c.311.245.593.527.838.838.245.315.456.655.629 1.015l7.08 14.986 7.068 14.986c.106.214.194.435.265.662.068.228.123.46.165.695l3.849 22.65 3.848 22.651c.035.224.086.446.155.662.07.22.15.438.242.65l8.822 19.188 8.822 19.188a5.227 5.227 0 01-4.333 7.389l-18.428 1.444-18.316 1.456a3.584 3.584 0 01-.596 0c-.2-.002-.399-.02-.595-.055l-12.88-1.952-12.892-1.952a5.183 5.183 0 01-3.903-2.867c-2.118-4.334-6.617-13.663-10.675-22.055-4.058-8.392-7.532-15.626-7.532-16.001 0-.375 2.955-17.192 6.076-34.759 3.121-17.567 6.396-35.928 7.025-39.5.04-.206.091-.408.154-.607a3.86 3.86 0 01.22-.596l2.283-5.139 2.294-5.15a5.205 5.205 0 017.09-2.547z" fill="#9DADB7"/><path d="M355.474 96.059l-8.933 9.175-8.932 9.186a.981.981 0 01-.419.253.992.992 0 01-.507 0l-.618-.154-.606-.155a.981.981 0 00-1.202 1.103l.54 4.411.54 4.411a.408.408 0 010 .122v.132l-2.635 18.416-2.625 18.317v.077l-.816 12.637-.827 12.65a.981.981 0 00.485.903.96.96 0 001.026 0c1.864-1.29 5.028-3.484 7.807-5.436 2.78-1.952 5.183-3.661 5.514-4.014.331-.353 2.349-12.792 4.202-25.253a3262.322 3262.322 0 003.716-25.805v-.077l3.452-14.634 3.44-14.633a.97.97 0 00-.397-1.015l-.496-.353-.507-.342a.981.981 0 00-1.202.077z" fill="#F3F5F6"/><path d="M340.156 118.764l1.82 2.107 1.808 2.117a.948.948 0 01.221.474c.023.175.004.353-.055.518l-.75 1.853-.739 1.864a.717.717 0 000 .143.65.65 0 000 .143l-1.919 24.173-1.996 24.183c-.015.127-.052.25-.11.364a1.026 1.026 0 01-.243.298l-1.874 1.566-1.886 1.555a.948.948 0 01-1.103.121.96.96 0 01-.518-.937l1.908-25.683 1.908-25.684a.143.143 0 000-.066.474.474 0 000-.055l.882-4.312.882-4.312a.97.97 0 01.706-.738.937.937 0 011.058.308z" fill="#023852"/><path d="M310.294 193.134l-9.484.794-9.484.783c-.286.032-.566.11-.827.232-.257.13-.489.305-.683.518l-4.202 4.588-4.201 4.587c-.21.23-.371.5-.475.794a2.206 2.206 0 00-.132.915l.342 5.514.342 5.514c.038.588.298 1.14.728 1.544.428.407.997.632 1.588.628a2.305 2.305 0 001.102-.308c.357-.208.653-.504.86-.86l2.9-5.084 2.9-5.084c.184-.308.432-.571.729-.772.295-.204.636-.332.992-.375l11.105-1.433 11.116-1.434a2.305 2.305 0 001.555-3.683l-2.382-3.187-2.393-3.187a2.294 2.294 0 00-.905-.717 2.206 2.206 0 00-1.091-.287z" fill="#0099DA"/><path fill="#303436" d="M111.588 236.197l-38.762 32.156-38.762 32.157-9.693 14.093-9.693 14.093H9.395l11.017-15.857 11.006-15.858 38.85-31.241 38.839-31.252 1.246.849z"/><path d="M34.097 250.026l40.416-4.213 40.416-4.224c.313-.028.609-.151.85-.352.238-.208.41-.48.496-.783l.882-3.242.882-3.232a1.555 1.555 0 00-1.654-1.962l-41.298 4.179-41.31 4.18c-.385.03-.742.213-.992.507a1.533 1.533 0 00-.408 1.036v6.617c.014.423.202.822.518 1.103.33.29.765.43 1.202.386z" fill="#303436"/><path d="M155.632 304.028v5.171c.006.552.452.998 1.004 1.004h11.92c.096.011.192.011.287 0a.772.772 0 00.254-.121l4.72-3 4.73-3.01-2.646-5.283-2.647-5.282-8.822 5.282-8.8 5.239zM123.046 300.51l-.805 4.003-.805 4.003a1.004 1.004 0 01-.97.805h-19.453l.882-2.647.882-2.646 10.134-1.754 10.135-1.764z" fill="#0099DA"/><path d="M117.929 149.653l2.073 19.143 2.084 19.133c.028.224.028.45 0 .673a2.558 2.558 0 01-.21.64l-.32.628-.308.618a2.37 2.37 0 00.11 2.304 2.327 2.327 0 002.007 1.103c.44.005.87.127 1.247.353.368.239.669.57.87.96l2.316 4.631 2.316 4.632-11.501-.408-11.491-.408c-.507 0-5.812.22-11.028.353-5.216.132-10.344.143-10.498-.331l6.076-12.45 6.087-12.44a2.448 2.448 0 01-.11-.738 2.89 2.89 0 01.132-.75l5.228-14.854 5.227-14.866a2.37 2.37 0 012.9-1.488l2.58.772 2.57.772c.432.143.815.407 1.102.76.303.356.491.794.54 1.258z" fill="#023852"/><path d="M121.138 180.794l-1.798-16.54-1.797-16.542a2.316 2.316 0 00-.54-1.257 2.393 2.393 0 00-1.103-.761l-2.57-.772-2.58-.772a2.404 2.404 0 00-1.754.165 2.37 2.37 0 00-1.102 1.324l-4.742 13.52-4.753 13.52-.077-.243-.066-.254-8.139 15.957-8.138 15.957 12.571-.199 12.572-.187-2.35-8.381-2.348-8.392a2.404 2.404 0 01.408-2.206 2.437 2.437 0 011.974-.992h13.751a2.658 2.658 0 001.996-.882 2.69 2.69 0 00.585-2.063z" fill="#023852" opacity=".6" style="mix-blend-mode:multiply"/><path d="M140.756 206.489l5.8.893 5.8.882a12.329 12.329 0 0110.378 10.973l1.72 17.578 1.731 17.566c-.01.088-.01.177 0 .265.02.087.045.171.078.254l7.973 19.32 7.961 19.276a1.809 1.809 0 01-1.015 2.393l-13.232 5.05-13.233 5.063c-.463.17-.975.15-1.423-.056a1.797 1.797 0 01-.948-1.102l-9.318-27.57-9.33-27.568a2.57 2.57 0 01-.088-.397 1.687 1.687 0 010-.408l2.558-20.357 2.504-20.445c.061-.49.315-.934.705-1.235a1.82 1.82 0 011.379-.375z" fill="#023852"/><path d="M147.88 273.922l9.296-9.296 9.296-9.296-.077-.188-.088-.198a1.71 1.71 0 01-.077-.254 1.103 1.103 0 010-.264l-1.732-17.567-1.72-17.578a12.329 12.329 0 00-10.377-10.973l-5.8-.882-5.801-.893a1.82 1.82 0 00-1.378.342c-.39.301-.645.746-.706 1.235l-2.548 20.434-2.503 20.445a1.687 1.687 0 000 .408c.019.134.049.267.088.397l4.841 14.336 4.83 14.336 2.206-2.206 2.25-2.338z" fill="#023852" opacity=".6" style="mix-blend-mode:multiply"/><path d="M76.807 201.857l33.27 1.257 33.281 1.268a8.601 8.601 0 012.482.475c.788.29 1.53.69 2.205 1.19l.232.166.22.176a13.564 13.564 0 014.61 15.44l-9.23 25.495-9.241 25.496c-.044.118-.077.24-.1.363-.011.125-.011.25 0 .375l-.463 13.432-.397 13.354a2.393 2.393 0 01-2.029 2.272l-15.317 2.206-15.317 2.205a2.36 2.36 0 01-2.625-2.933l8.822-34.086 8.822-34.087a2.382 2.382 0 00-2.514-2.944l-39.49 3.75-39.49 3.738a2.338 2.338 0 01-1.202-.21 2.305 2.305 0 01-.948-.772l-5.304-7.421-5.305-7.433a2.36 2.36 0 011.103-3.595l26.466-9.528 26.467-9.528a3.22 3.22 0 01.44-.11c.183-.028.369-.032.552-.01z" fill="#023852"/><path d="M148.486 206.39l-.22-.177-.232-.165a8.822 8.822 0 00-2.205-1.191c-.8-.28-1.636-.44-2.482-.475l-33.259-1.268-33.281-1.257a2.073 2.073 0 00-.452 0 3.22 3.22 0 00-.441.11l-4.235 1.765-4.256 1.742c.282-.101.582-.146.882-.132l33.27 1.257 33.26 1.268c.846.03 1.682.19 2.48.474a7.83 7.83 0 012.206 1.191l.231.166.22.165a13.575 13.575 0 014.621 15.439l-9.24 25.495-9.242 25.496a1.853 1.853 0 00-.099.353v.375l-.397 13.233-.397 13.233 3.242-.474 3.231-.474a2.393 2.393 0 002.03-2.272l.396-13.354.408-13.355a2.051 2.051 0 010-.375c.023-.123.056-.245.1-.363l9.24-25.496 9.23-25.496a13.564 13.564 0 00-4.609-15.439z" fill="#356075"/><path d="M77.568 206.797l10.575.475 10.576.474-16.972 14.413-16.971 14.413c-.33.277-.703.5-1.103.662-.39.166-.802.274-1.224.32l-14.038 1.466-14.06 1.478a2.084 2.084 0 01-1.048-.177 1.985 1.985 0 01-.805-.705l-5.668-7.907-5.668-7.907a3.805 3.805 0 01.1-4.047 5.437 5.437 0 013.528-2.592l25.937-5.16 25.882-5.15a3.75 3.75 0 01.507-.067l.452.011z" fill="#023852" opacity=".6" style="mix-blend-mode:multiply"/><path d="M204.572 159.5h8.977a.706.706 0 00.22 0 .673.673 0 00.199-.099l4.113-2.89 4.125-2.877a.807.807 0 01.385-.133.718.718 0 01.397.11l4.411 2.735 4.412 2.735a.717.717 0 01-.375 1.335h-2.768a.717.717 0 00-.508 1.224l3.066 3.065 3.066 3.066a4.168 4.168 0 01-.254 6.142l-3.55 3.01-3.563 3.011a1.809 1.809 0 01-.926.408 1.83 1.83 0 01-.992-.154l-6.033-2.812-6.02-2.812h-.254l-5.26-.408-5.272-.408a.695.695 0 01-.507-.276.717.717 0 01-.143-.562l1.103-6.385 1.102-6.385a.695.695 0 01.254-.43.684.684 0 01.595-.21z" fill="#19A3DE"/><path d="M234.314 167.749l-.11.1-.1.087-3.23 2.735-3.243 2.735a3.11 3.11 0 01-3.308.441l-5.415-2.525-5.425-2.526a2.89 2.89 0 00-.585-.22 3 3 0 00-.617-.1l-4.886-.374-4.885-.375-.452 2.558-.463 2.57c-.034.199.018.403.143.562a.695.695 0 00.508.276l5.27.408 5.26.408h.255l6.02 2.812 6.033 2.812c.31.143.653.196.992.154.342-.045.663-.186.927-.408l3.561-3.01 3.551-3.01a4.146 4.146 0 001.478-3.011 4.202 4.202 0 00-1.224-3.132l-.055.033z" fill="#009ADA" opacity=".6" style="mix-blend-mode:multiply"/><path d="M196.655 157.184l4.51 1.103 4.51 1.103a1.103 1.103 0 01.85 1.312l-1.556 7.786-1.565 7.719c-.107.566-.63.955-1.202.893l-3.375-.33-3.363-.342a1.103 1.103 0 01-.74-.386 1.103 1.103 0 01-.275-.783l.42-8.503.407-8.502c.014-.331.176-.64.441-.838.26-.217.606-.302.938-.232z" fill="#F3F5F6"/><path d="M118.91 117.871l2.404-2.404 2.393-2.393a.397.397 0 01.232-.121.43.43 0 01.265 0l3.572 1.378 3.573 1.379a4.124 4.124 0 005.393-2.548l1.467-4.41 1.466-4.412a.474.474 0 01.166-.22.485.485 0 01.275-.088h5.161a1.875 1.875 0 001.809-2.35l-1.445-5.403-1.433-5.392a.706.706 0 010-.077v-.067l.43-9.44.43-9.439a.419.419 0 00-.11-.32.507.507 0 00-.298-.165l-15.064-1.632-15.053-1.72a.441.441 0 00-.264 0 .496.496 0 00-.199.198l-8.645 16.85-8.646 16.861a.53.53 0 000 .32c.027.106.089.2.176.265l10.697 7.72 10.686 7.718a.463.463 0 00.595 0l-.033-.088z" fill="#19A3DE"/><path d="M136.808 113.019l1.467-4.411 1.466-4.411a.496.496 0 01.441-.309h5.161a1.875 1.875 0 001.809-2.36l-1.434-5.392-1.444-5.393a.22.22 0 010-.077V90.6l.43-9.44.419-9.44a.463.463 0 00-.1-.319.53.53 0 00-.308-.165l-.97-.11-.971-.111-.794 10.708-.827 10.719-4.654 11.623-4.642 11.623a4.135 4.135 0 002.977-.353 4.047 4.047 0 001.974-2.316z" fill="#19A3DE"/><path d="M118.392 102.51l-3.154 4.907-3.143 4.896 3.76 2.393 3.772 2.404 2.073-2.073 2.073-2.073a.397.397 0 01.232-.121.408.408 0 01.254 0l3.573 1.367 3.573 1.378a4.135 4.135 0 004.025-.606l-5.834-3.242-5.823-3.242a3.11 3.11 0 01-.926-.761 3.308 3.308 0 01-.584-1.103l-.651-1.93-.64-1.874a1.434 1.434 0 00-1.19-.982 1.412 1.412 0 00-1.39.662z" style="mix-blend-mode:multiply" opacity=".6" fill="#0099DA"/><path fill="#0099DA" d="M120.763 84.358l.386 3.684.386 3.672-1.643.386-1.643.386 1.257-4.058z"/><path d="M140.844 76.628l2.514-.265 2.537-.275a2.647 2.647 0 002.205-1.974l.452-1.787.441-1.786a2.558 2.558 0 00-.077-1.522 2.636 2.636 0 00-.915-1.224l-8.524-6.198-8.492-6.186a2.547 2.547 0 00-.948-.43 2.58 2.58 0 00-1.048 0l-11.027 1.974-11.028 1.974a2.614 2.614 0 00-1.202.551c-.35.295-.62.675-.783 1.103l-3.55 9.087-3.551 9.075c-.097.24-.156.493-.177.75a2.955 2.955 0 000 .761l1.103 5.282 1.103 5.294a2.603 2.603 0 002.944 2.029l2.944-.441 2.945-.453a2.536 2.536 0 001.665-.97l4.135-5.26 4.136-5.25a2.47 2.47 0 01.915-.738c.343-.17.72-.261 1.103-.265a2.614 2.614 0 012.591 2.206l1.004 6.727 1.014 6.737c.084.555.343 1.07.739 1.467.403.395.92.653 1.478.739l.628.088.629.088a2.614 2.614 0 002.977-2.591V87.39c0-.3.053-.6.155-.882.105-.282.254-.547.44-.783l3.31-4.07 3.307-4.069c.216-.263.482-.48.783-.64.343-.198.73-.307 1.125-.319z" fill="#023852"/><path d="M98.355 83.344l3.308-8.348 3.308-8.348a2.636 2.636 0 011.985-1.665l11.028-1.974 11.028-1.974c.7-.132 1.424.036 1.996.463l8.535 6.198 8.524 6.197h.055l.066.055.442-1.764.43-1.764a2.558 2.558 0 00-.078-1.522 2.636 2.636 0 00-.915-1.224l-8.524-6.198-8.558-6.065a2.547 2.547 0 00-.948-.43 2.58 2.58 0 00-1.048 0l-11.027 1.974-11.028 1.974a2.614 2.614 0 00-1.202.551c-.35.295-.62.675-.783 1.103l-3.55 9.087-3.551 9.075c-.097.24-.156.493-.177.75a2.955 2.955 0 000 .761l.353 1.6.33 1.488z" fill="#356075"/><path d="M98.421 95.309a2.636 2.636 0 013.496-.298l7.929 6.043 7.917 6.032c.251.186.465.418.629.684.164.264.28.556.342.86l.231 1.103.221 1.103a2.625 2.625 0 01-4.268 2.525l-8.094-7.223-8.193-7.047a2.647 2.647 0 01-.905-1.841 2.68 2.68 0 01.695-1.941z" fill="#F3F5F6"/><path d="M96.27 96.048a2.614 2.614 0 013.309.099l12.77 10.829c4.808 4.091 9.054 7.72 9.428 8.083a77.281 77.281 0 013.518 8.822c1.61 4.411 3.309 9.23 4.036 11.326.123.334.31.641.552.904.239.257.528.464.849.606l15.196 6.76 15.196 6.75.298.11.308.077 18.383 3.308 18.383 3.143a2.591 2.591 0 011.687 1.102c.392.57.547 1.27.43 1.952l-1.323 7.598-1.323 7.598a2.57 2.57 0 01-1.037 1.665 2.647 2.647 0 01-1.896.486l-20.578-2.89-20.577-2.878-.386-.077-.353-.143-18.604-8.635-18.493-8.623a2.603 2.603 0 00-3.44 1.18l-13.355 26.344-13.365 26.334c-.09.187-.206.362-.342.518a2.713 2.713 0 01-.452.42l-12.13 8.822-12.13 8.822a2.58 2.58 0 01-1.633.496l-21.173-.827-21.206-.893a2.481 2.481 0 01-1.4-.475 2.636 2.636 0 01-.927-1.169l-.353-.882-.364-.893a2.88 2.88 0 01-.187-1.048c.016-.354.099-.701.243-1.025l22.562-48.996 22.551-49.017c.075-.164.167-.32.276-.463.107-.145.229-.278.364-.397l11.314-10.068 11.315-10.058c.24-.209.517-.373.816-.485.295-.114.609-.174.926-.176h6.065c.281 0 .56-.045.827-.133.264-.09.513-.22.739-.386l2.338-1.753 2.349-1.764zM153.879 310.313v17.39a.982.982 0 00.992.993h15.626a.982.982 0 00.993-.992V326.6a.992.992 0 01.419-.805c.263-.186.597-.238.904-.143l4.543 1.521 4.555 1.522h28.363a3.507 3.507 0 003.506-3.507 3.507 3.507 0 00-.716-2.117 3.452 3.452 0 00-1.842-1.257l-9.594-2.68-9.583-2.69a.816.816 0 01-.265-.122.871.871 0 01-.22-.187l-6.738-7.775-6.727-7.719-6.252 4.268-6.264 4.278a.992.992 0 01-.265.133 1.39 1.39 0 01-.297 0H154.87a.981.981 0 00-.992.992z" fill="#023852"/><path d="M211.222 321.727l-9.594-2.68-9.583-2.69a1.103 1.103 0 01-.265-.11 1.235 1.235 0 01-.22-.2l-6.738-7.719-6.727-7.774-5.646 3.86-5.657 3.86 3.396 3.914 3.386 3.904c.065.075.14.141.22.198.084.048.173.085.265.11l9.583 2.691 9.594 2.68a3.419 3.419 0 011.842 1.257c.463.609.715 1.352.716 2.117a3.507 3.507 0 01-3.506 3.507h17.986a3.507 3.507 0 00.948-6.881v-.044z" fill="#356075"/><path d="M126.619 304.777l-7.19 1.963-7.18 1.952-7.377.309-7.377.32v19.375h15.736c.264.001.517-.102.706-.286a.981.981 0 00.298-.706V326.6a.981.981 0 01.408-.805c.262-.186.597-.238.904-.143l4.554 1.521 4.544 1.522h28.23c.264.001.518-.102.706-.286a.983.983 0 00.298-.706v-6.473a.993.993 0 00-.75-.97l-9.142-2.339-9.153-2.349a1.103 1.103 0 01-.309-.143 1.213 1.213 0 01-.242-.232l-3.827-5.216-3.837-5.205z" fill="#023852"/><path d="M153.129 320.26l-9.142-2.338-9.153-2.349a1.103 1.103 0 01-.309-.143 1.213 1.213 0 01-.242-.232l-.43-.584-.42-.573v14.655h19.442c.264.001.518-.102.706-.286a.982.982 0 00.298-.706v-6.473a.993.993 0 00-.75-.97z" fill="#023852" opacity=".6" style="mix-blend-mode:multiply"/><path d="M25.849 186.32l.12-.089.122-.077a4.268 4.268 0 001.765-2.746 4.19 4.19 0 00-.695-3.176l-8.414-12.075-8.326-12.064A4.246 4.246 0 004.5 154.99l-.121.088-.121.077a4.312 4.312 0 00-1.765 2.746c-.2 1.11.05 2.252.695 3.176l8.37 12.13 8.37 12.065a4.246 4.246 0 005.922 1.102v-.055z" fill="#303436" style="mix-blend-mode:multiply"/><path d="M129.265 135.229l-10.928-7.565-10.94-7.576a.474.474 0 01-.154-.64.496.496 0 01.629-.22l9.153 3.837 9.152 3.849 1.544 4.157 1.544 4.158z" fill="#023852" opacity=".6" style="mix-blend-mode:multiply"/><path d="M167.807 258.12l7.443 17.842 7.455 17.876c.143.33.143.706 0 1.037a1.268 1.268 0 01-.772.694l-2.04.684-2.04.673-5.007-19.42-5.04-19.386z" fill="#356075"/><path fill="#303436" style="mix-blend-mode:multiply" d="M104.001 242.45l-6.153 5.083-6.143 5.084-1.852-.606-1.853-.596 5.194-4.157 5.194-4.169 2.801-.32zM69.374 246.287l-2.205.22-2.206.21-2.91-4.267-2.923-4.268 2.283-.21 2.271-.21 2.845 4.258z"/><path fill="#303436" d="M.584 157.791l49.062 72.55 49.073 72.55.672-2.514.673-2.514-48.422-70.918-48.41-70.918-1.324.882z"/><path d="M145.906 103.116l-1.17-1.102-1.168-1.103a1.103 1.103 0 00-1.456.066l-1.102 1.103-1.103 1.102h5.999v-.066z" fill="#0099DA" style="mix-blend-mode:multiply"/><path d="M358.264 97.007l4.653 2.327 4.654 2.327c.412.205.85.354 1.301.44.445.1.902.133 1.357.1l5.348-.33 5.337-.332a4.995 4.995 0 011.897.232 5.293 5.293 0 011.687.893l.949.761.937.75c.311.245.593.527.838.838.245.315.456.655.629 1.015l7.08 14.986 7.068 14.987c.106.213.194.434.265.661.068.228.123.46.165.695l3.849 22.65 3.848 22.651c.035.224.086.446.155.662.07.22.15.438.242.65l8.822 19.188 8.822 19.188a5.227 5.227 0 01-4.333 7.389l-18.427 1.444-18.34 1.445a3.584 3.584 0 01-.595 0c-.2-.002-.399-.02-.595-.055l-12.88-1.952-12.892-1.952a5.183 5.183 0 01-3.903-2.867c-2.118-4.334-6.617-13.663-10.675-22.055-4.058-8.392-7.532-15.626-7.532-16.001 0-.375 2.955-17.192 6.076-34.759 3.121-17.567 6.396-35.928 7.025-39.5.04-.206.091-.408.154-.607a3.86 3.86 0 01.22-.596l3.397-7.642 3.397-7.631z" fill="#9DADB7"/><path d="M340.752 194.039l6.616 13.552 6.562 13.564c.237.528.815.814 1.378.684.569-.106.98-.602.982-1.18l.264-7.84.265-7.83c.003-.47.272-.897.695-1.103.405-.215.897-.18 1.268.088l5.745 3.992 5.735 4.003c.247.174.548.252.849.221.302-.035.58-.18.783-.408l13.045-14.336 13.046-14.336c.094-.107.169-.23.22-.364.056-.133.089-.275.1-.419l.838-20.787.849-20.787c0-.595-.375 0-.871.794s-1.103 1.92-1.467 2.382l-12.792 15.77-12.759 15.747c-.05.064-.104.123-.165.177l-.199.143-15.218 8.315-15.218 8.326c-.281.15-.494.402-.595.705-.1.304-.085.634.044.927z" fill="#9DADB7" opacity=".5" style="mix-blend-mode:multiply"/><path fill="#F3F5F6" d="M360.943 136.188l-4.245 1.257-4.257 1.257 2.128-3.473 2.129-3.485 2.128 2.227z"/><path d="M340.09 174.255l10.719-5.304 10.719-5.293 3-18.67 2.999-18.659-5.194 17.402-5.194 17.401a4.51 4.51 0 01-1.158 1.313l-7.95 5.91-7.94 5.9z" fill="#9DADB7" opacity=".5" style="mix-blend-mode:multiply"/><path d="M368.32 119.603l-3.76 20.5-3.771 20.5a4.411 4.411 0 01-.739 1.764c-.377.53-.861.974-1.422 1.302l-25.386 14.59-25.43 14.578a.992.992 0 00-.474.716.97.97 0 00.276.805l5.514 5.514 5.514 5.514a.992.992 0 001.014.22l29.874-10.663 29.818-10.686c.41-.156.785-.392 1.103-.695.336-.307.603-.683.783-1.102l9.307-20.743 9.319-20.743a1.004 1.004 0 000-.772l-7.157-16.85-7.157-16.85a.96.96 0 00-.65-.552.97.97 0 00-.839.166l-7.344 5.723-7.29 5.734a.948.948 0 00-.154.144 1.103 1.103 0 00-.121.187l-.353.717-.364.728c-.02.04-.039.08-.055.121l-.055.133z" fill="#9DADB7"/><path d="M414.537 184.434l-.121-.089-.121-.088a4.224 4.224 0 01-1.765-2.735 4.279 4.279 0 01.695-3.187l8.37-12.064 8.37-12.064a4.246 4.246 0 015.922-1.103l.121.077.121.089a4.246 4.246 0 011.103 5.921l-8.403 12.01-8.37 12.13a4.202 4.202 0 01-2.735 1.753 4.268 4.268 0 01-3.187-.65z" fill="#1F1B1E"/><path fill="#303436" d="M328.798 234.267l38.762 32.146 38.762 32.156 10.476 15.218 10.476 15.207h5.282l-11.788-16.971-11.8-16.972-38.85-31.252-38.839-31.241-1.246.849z"/><path d="M406.289 248.096l-40.416-4.224-40.416-4.212a1.555 1.555 0 01-.85-.364 1.588 1.588 0 01-.496-.772l-.882-3.242-.882-3.242a1.555 1.555 0 011.654-1.952l41.31 4.18 41.298 4.2c.793.09 1.394.758 1.4 1.556v6.616c-.012.424-.2.823-.518 1.103-.333.282-.77.41-1.202.353z" fill="#303436"/><path d="M414.537 184.434l-.121-.089-.121-.088a4.224 4.224 0 01-1.765-2.735 4.279 4.279 0 01.695-3.187l8.37-12.064 8.37-12.064a4.246 4.246 0 015.922-1.103l.121.077.121.089a4.246 4.246 0 011.103 5.921l-8.403 12.01-8.37 12.13a4.202 4.202 0 01-2.735 1.753 4.268 4.268 0 01-3.187-.65zM336.385 240.52l6.153 5.084 6.154 5.083 1.841-.606 1.853-.607-5.194-4.157-5.183-4.158-2.812-.32zM371.012 244.357l2.205.21 2.206.22 2.922-4.267 2.911-4.268-2.272-.21-2.282-.22-2.845 4.268z" fill="#303436" style="mix-blend-mode:multiply"/><path fill="#303436" d="M439.802 155.861l-48.599 71.933-48.598 71.933-.684-2.514-.673-2.515 47.959-70.3 47.948-70.301 1.323.882z"/></g></svg>