<?xml version="1.0" encoding="UTF-8"?>
<svg width="440px" height="330px" viewBox="0 0 440 330" version="1.1" xmlns="http://www.w3.org/2000/svg" xmlns:xlink="http://www.w3.org/1999/xlink">
    <title>Graphic elements / Icons / Rich icons / Save money</title>
    <defs>
        <linearGradient x1="29.9653064%" y1="49.996576%" x2="99.9647084%" y2="49.996576%" id="linearGradient-1">
            <stop stop-color="#191F35" offset="0%"></stop>
            <stop stop-color="#203256" offset="100%"></stop>
        </linearGradient>
        <linearGradient x1="6.10375072e-06%" y1="50.0026549%" x2="100%" y2="50.0026549%" id="linearGradient-2">
            <stop stop-color="#191F35" offset="30%"></stop>
            <stop stop-color="#203256" offset="100%"></stop>
        </linearGradient>
    </defs>
    <g id="Graphic-elements-/-Icons-/-Rich-icons-/-Save-money" stroke="none" stroke-width="1" fill="none" fill-rule="evenodd">
        <g id="Asset-1" transform="translate(84.000000, 0.000000)" fill-rule="nonzero">
            <path d="M236.463211,207.28194 C226.393003,191.544391 214.943225,176.733548 202.249164,163.024415 C189.755518,149.327759 176.500334,136.53612 163.432776,124.185953 C163.046488,123.821739 162.516722,123.30301 161.931773,122.71806 C161.346823,122.13311 160.684615,121.48194 160.077592,120.86388 C163.772644,120.390222 166.684149,117.485409 167.166307,113.791456 C167.648465,110.097503 165.580112,106.542688 162.130435,105.136455 L161.755184,104.992977 L160.938462,104.70602 C161.079506,104.62556 161.215848,104.537122 161.346823,104.441137 C161.477209,104.348673 161.602477,104.249195 161.722074,104.143144 L161.920736,103.944482 C161.997993,103.878261 162.053177,103.801003 162.119398,103.734783 C168.013043,96.8367893 173.829431,89.9829431 179.634783,83.1401338 L197.006689,62.5896321 L197.006689,62.5896321 L201.675251,57.0712375 L206.365886,51.5528428 C207.1169,50.6762023 207.486442,49.5357881 207.392308,48.3852843 C207.306827,47.2360411 206.761749,46.1697575 205.880268,45.4274247 C203.441137,43.3635452 200.99097,41.3548495 198.496656,39.4675585 C196.019953,37.5722804 193.440801,35.8147722 190.770903,34.20301 C189.008097,33.1582451 186.752675,33.5048777 185.38495,35.0307692 C183.90602,36.6531773 182.405017,38.341806 180.892977,40.0083612 L176.312709,45.1183946 L176.025753,45.416388 L175.727759,45.6702341 C174.209884,46.7710147 172.156531,46.7718525 170.637758,45.6723109 C169.118984,44.5727694 168.478671,42.621806 169.050502,40.8361204 C169.260201,40.2622074 169.458863,39.7324415 169.657525,39.1143813 C169.856187,38.4963211 170.065886,38.0107023 170.264548,37.4036789 L170.264548,37.4036789 C171.368227,34.2692308 172.416722,31.3003344 173.332776,28.7618729 C174.248829,26.2234114 175.032441,24.1264214 175.540134,22.7247492 C175.813711,22.0502336 175.905061,21.3156251 175.805017,20.5946488 C175.714791,19.8737576 175.445385,19.1869609 175.021405,18.59699 C174.974755,18.5426252 174.934055,18.4834254 174.9,18.4204013 C174.858702,18.366534 174.825259,18.3070783 174.800669,18.2438127 C168.143223,14.8930062 161.100988,12.3689206 153.830769,10.7277592 C146.613169,9.10264001 139.232474,8.31383513 131.834448,8.37692308 C124.573381,8.30793674 117.327765,9.05952597 110.235452,10.6173913 C102.974746,12.2133191 95.9336703,14.6814014 89.2655518,17.967893 C89.1382902,18.0295377 89.0195719,18.1074466 88.9123746,18.1996656 C88.8024753,18.2926678 88.7059151,18.4003696 88.6254181,18.5197324 L88.6254181,18.5197324 C88.2027406,19.1114798 87.9300478,19.7969991 87.8307692,20.5173913 C87.7424753,21.2384037 87.8334589,21.9700631 88.0956522,22.6474916 C88.7468227,24.30301 89.7180602,26.9408027 90.8548495,30.1083612 C91.9916388,33.2759197 93.3050167,36.9953177 94.6404682,40.8140468 C95.3218091,42.7613695 94.5333853,44.9188595 92.7570131,45.9680461 C90.9806408,47.0172327 88.7105879,46.6661844 87.3341137,45.1294314 L82.7759197,40.0414716 L78.2508361,35.0638796 C76.8859593,33.5190013 74.6157348,33.1622518 72.8428094,34.2140468 C70.1712428,35.823208 67.5919485,37.5808128 65.1170569,39.4785953 C62.6117057,41.3658863 60.1725753,43.3745819 57.7334448,45.4384615 C56.8733265,46.1991643 56.3528032,47.2719985 56.2876254,48.4183946 C56.2032103,49.5677468 56.5715805,50.7045452 57.3140468,51.5859532 C64.7307692,60.3160535 72.0812709,68.9909699 79.4648829,77.6658863 C86.848495,86.3408027 94.1327759,95.0267559 101.604682,103.745819 C101.761916,103.934155 101.939595,104.104431 102.134448,104.253512 C102.321212,104.409497 102.520554,104.549774 102.730435,104.67291 C98.6801527,105.453113 95.839732,109.12038 96.0972006,113.23708 C96.3546692,117.353779 99.6298883,120.638559 103.745819,120.908027 L103.657525,120.908027 L103.580268,120.908027 L103.580268,120.908027 L103.580268,120.908027 L101.792308,122.695987 C101.218395,123.258863 100.688629,123.799666 100.346488,124.108696 C87.2789298,136.447826 74.0237458,149.250502 61.5190635,162.958194 C48.8221456,176.664908 37.3721634,191.476014 27.3050167,207.215719 C18.7625418,220.868227 10.1979933,236.849498 4.98862876,252.201672 C-0.220735786,267.553846 -2.0638796,282.276923 2.95785953,293.291639 C9.8006689,308.312709 20.7160535,316.899331 33.6070234,321.910033 C46.4979933,326.920736 61.3424749,328.366555 76.0324415,329.117057 C76.9926421,329.117057 90.093311,329.117057 103.359532,329.117057 C116.625753,329.117057 130.057525,329.061873 131.65786,329.117057 L131.988963,329.117057 C133.567224,329.039799 146.336789,329.061873 159.338127,329.117057 C172.339465,329.172241 185.362876,329.194314 187.459866,329.117057 L187.746823,329.117057 C191.377926,328.929431 195.031104,328.697659 198.662207,328.388629 C202.293311,328.079599 205.891304,327.671237 209.434114,327.130435 L209.599666,327.130435 L210.328094,327.020067 L211.067559,326.898662 L211.685619,326.799331 L212.292642,326.7 L212.557525,326.644816 L212.811371,326.644816 C217.956307,325.774871 223.0209,324.482883 227.953846,322.78194 C232.750101,321.129602 237.330163,318.906271 241.595318,316.159866 L242.312709,315.663211 L243.0301,315.166555 L243.361204,314.934783 L243.692308,314.70301 C247.260016,312.112936 250.476509,309.070809 253.261204,305.652843 C256.299059,301.896362 258.84006,297.76399 260.821405,293.35786 C265.832107,282.32107 264,267.620067 258.790635,252.267893 C253.581271,236.915719 245.016722,220.835117 236.463211,207.28194 Z" id="Path" fill="#023852" opacity="0.3" style="mix-blend-mode: multiply;"></path>
            <path d="M164.238462,109.970569 C160.446264,108.993765 156.562213,108.416706 152.649833,108.248829 C144.670234,107.674916 132.320067,107.66388 114.837793,109.959532 L114.782609,109.959532 C114.455312,110.023141 114.139196,110.134711 113.844482,110.290635 C113.554918,110.454064 113.287802,110.654401 113.049833,110.886622 L110.500334,113.469231 C109.551171,114.418395 108.613043,115.345485 108.03913,115.886288 C94.916388,128.236455 81.6722408,141.03913 69.2006689,154.746823 C56.5029899,168.452893 45.0529534,183.264069 34.9866221,199.004348 C26.4882943,212.546488 17.8354515,228.538796 12.626087,243.913043 C7.41672241,259.287291 5.5735786,273.955184 10.5953177,284.980936 C17.4270903,299.99097 28.3535117,308.577592 41.2444816,313.588294 C54.1354515,318.598997 68.9799331,320.06689 83.6698997,320.795318 C84.6301003,320.795318 97.7307692,320.795318 110.99699,320.795318 C124.263211,320.795318 137.694983,320.729097 139.295318,320.795318 L139.615385,320.795318 C141.237793,320.71806 154.680602,320.740134 167.968896,320.795318 C181.257191,320.850502 194.379933,320.872575 195.340134,320.795318 C210.0301,320.055853 224.874582,318.58796 237.765552,313.588294 C250.656522,308.588629 261.571906,299.99097 268.414716,284.980936 C273.425418,273.944147 271.593311,259.232107 266.383946,243.879933 C261.174582,228.527759 252.565886,212.546488 244.056522,199.004348 C233.989855,183.264305 222.53984,168.453158 209.842475,154.746823 C197.348829,141.03913 184.093645,128.258528 171.026087,115.897324 C170.452174,115.356522 169.514047,114.429431 168.553846,113.480268 L166.004348,110.897659 C165.768576,110.662886 165.501097,110.462277 165.209699,110.301672 C164.918894,110.145724 164.606411,110.034123 164.282609,109.970569 L164.205351,109.970569" id="Path" fill="#023852"></path>
            <path d="M139.648495,94.4197324 C140.619732,94.4197324 144.979264,94.7618729 150.188629,95.2033445 C155.397993,95.6448161 161.457191,96.2518395 165.816722,96.8919732 C166.530302,97.0020253 167.260208,96.9259934 167.935786,96.6712375 C168.608379,96.4114082 169.207093,95.9907922 169.679599,95.4461538 C177.140468,86.7050167 184.502007,78.0301003 191.852508,69.3551839 C199.20301,60.6802676 206.553512,51.9943144 214.003344,43.264214 C214.754669,42.3881945 215.124853,41.2483036 215.031585,40.0979995 C214.938317,38.9476954 214.389329,37.8823319 213.506689,37.138796 C211.067559,35.0859532 208.628428,33.0772575 206.123077,31.1789298 C203.645381,29.2884256 201.06629,27.5346437 198.397324,25.9254181 C197.547767,25.4094485 196.541904,25.2137553 195.56087,25.3735786 C194.578278,25.5210103 193.67724,26.0046845 193.011371,26.7421405 L188.530435,31.7197324 L183.93913,36.8408027 C182.562459,38.3846816 180.285524,38.738086 178.505642,37.6841377 C176.72576,36.6301894 175.940925,34.4637733 176.632776,32.5143813 C177.968227,28.706689 179.281605,24.987291 180.418395,21.8197324 C181.555184,18.6521739 182.537458,16.0033445 183.210702,14.3478261 C183.477462,13.6715543 183.568589,12.938735 183.475585,12.2177258 C183.388278,11.4942314 183.114445,10.805846 182.680936,10.2200669 C182.680936,10.1538462 182.603679,10.0986622 182.570569,10.0434783 L182.460201,9.85585284 C175.803105,6.50423198 168.760767,3.98010987 161.490301,2.33979933 C154.261286,0.717024317 146.869474,-0.0680778937 139.46087,1.31682859e-14 C132.201648,-0.0450745143 124.960312,0.724965336 117.87291,2.29565217 C110.61173,3.88991152 103.570457,6.35806314 96.90301,9.64615385 C96.7711261,9.7101469 96.6485911,9.79183691 96.538796,9.88896321 C96.4348445,9.98394323 96.3388697,10.0873007 96.2518395,10.1979933 L96.2518395,10.1979933 L96.2518395,10.1979933 C95.8183311,10.7837724 95.5444982,11.4721578 95.4571906,12.1956522 C95.3603762,12.923893 95.451564,13.6647943 95.7220736,14.3478261 C96.3732441,15.9923077 97.3334448,18.6301003 98.4812709,21.8086957 C99.629097,24.987291 100.931438,28.6956522 102.26689,32.5033445 C103.027143,34.4765595 102.249641,36.7102093 100.428467,37.7848661 C98.6072927,38.859523 96.2761361,38.4602617 94.916388,36.8408027 L90.3250836,31.7197324 L85.8441472,26.7421405 C85.1879283,26.0176095 84.3041059,25.5387101 83.338796,25.3846154 C82.3577617,25.2247921 81.3518982,25.4204853 80.5023411,25.9364548 C77.8333757,27.5456805 75.2542846,29.2994624 72.7765886,31.1899666 C70.2712375,33.0882943 67.832107,35.09699 65.3929766,37.1498328 C64.510337,37.8933687 63.9613486,38.9587322 63.8680807,40.1090363 C63.7748128,41.2593404 64.1449967,42.3992313 64.8963211,43.2752508 C72.3571906,51.9943144 79.7076923,60.7023411 87.058194,69.3551839 C94.4086957,78.0080268 101.770234,86.7050167 109.264214,95.4461538 C109.728238,95.9952133 110.324623,96.4168614 110.99699,96.6712375 C111.672738,96.9249484 112.401439,97.0046501 113.116054,96.90301 C117.530769,96.2518395 123.567893,95.6668896 128.810368,95.2143813 C134.052843,94.7618729 138.412375,94.4749164 139.306355,94.4197324 L139.670569,94.4197324 L139.648495,94.4197324 Z" id="Path" fill="#003A5D"></path>
            <path d="M244.089632,198.971237 C234.022485,183.231533 222.572503,168.420427 209.875585,154.713712 C197.38194,141.00602 184.115719,128.225418 171.048161,115.864214 C170.474247,115.323411 169.53612,114.396321 168.586957,113.43612 L166.037458,110.864548 C165.805324,110.625607 165.53719,110.424507 165.242809,110.268562 C164.948095,110.112638 164.631979,110.001067 164.304682,109.937458 C162.564998,109.438172 160.790517,109.069257 158.995987,108.833779 C153.402623,108.093562 147.762089,107.768927 142.120736,107.862542 L142.120736,104.4301 L126.669231,108.535786 L111.217726,112.641472 L121.338462,119.086957 L131.470234,125.543478 C137.157854,129.177918 140.602244,135.459353 140.608696,142.20903 L140.608696,320.707023 C144.33913,320.519398 157.594314,320.563545 170.132107,320.651839 C182.6699,320.740134 194.523411,320.850502 195.428428,320.795318 C210.118395,320.055853 224.973913,318.58796 237.853846,313.577258 C250.733779,308.566555 261.660201,299.95786 268.50301,284.936789 C273.524749,273.9 271.692642,259.198997 266.472241,243.846823 C261.251839,228.494649 252.610033,212.513378 244.089632,198.971237 Z" id="Path" fill="url(#linearGradient-1)" opacity="0.6" style="mix-blend-mode: multiply;"></path>
            <path d="M185.991973,34.5782609 C185.66087,34.9424749 185.329766,35.3177258 184.987625,35.6819398 L183.994314,36.7856187 C182.61784,38.3223717 180.347787,38.67342 178.571415,37.6242334 C176.795043,36.5750468 176.006619,34.4175567 176.68796,32.4702341 C176.886622,31.8852843 177.096321,31.3113712 177.294983,30.7374582 L177.89097,29.0377926 C172.884067,26.0316327 167.561781,23.5851577 162.020067,21.7424749 C157.837765,20.3496071 153.543314,19.319382 149.184281,18.6632107 C147.020701,18.3349588 144.821615,18.9673811 143.162952,20.394849 C141.50429,21.8223169 140.55128,23.9026324 140.553508,26.0909699 L140.553508,94.4307692 C142.473913,94.5521739 146.811371,94.8722408 151.667559,95.2916388 C156.523746,95.7110368 161.887625,96.273913 165.849833,96.8588629 C167.300939,97.0782575 168.762268,96.531303 169.712709,95.4130435 C175.598997,88.526087 181.437458,81.661204 187.228094,74.8183946 C193.033445,67.9755853 198.816722,61.1327759 204.644147,54.2789298 C201.884226,50.3474855 198.833185,46.6286838 195.516722,43.1538462 C192.558757,40.0631801 189.375063,37.1967485 185.991973,34.5782609 L185.991973,34.5782609 Z" id="Path" fill="url(#linearGradient-2)" opacity="0.6" style="mix-blend-mode: multiply;"></path>
            <path d="M166.589298,112.630435 C166.074529,112.631459 165.560835,112.583416 165.055184,112.486957 C164.538178,112.383538 164.031965,112.232043 163.543144,112.034448 C159.385682,110.723454 155.081512,109.9338 150.729431,109.683612 C142.396656,108.966221 130.035452,109.120736 113.667893,112.464883 C109.225473,113.367103 104.890879,110.503704 103.977592,106.063545 C103.541231,103.92964 103.970543,101.709792 105.171062,99.8924547 C106.371581,98.0751174 108.244941,96.8091963 110.37893,96.3732441 C129.616054,92.4331104 144.250836,92.4662207 154.17291,93.5147157 C164.094983,94.5632107 169.304348,96.6491639 169.723746,96.8257525 C173.351082,98.3187633 175.415916,102.168826 174.652836,106.016469 C173.889756,109.864112 170.511877,112.634754 166.589298,112.630435 L166.589298,112.630435 Z" id="Path" fill="#A5B1B8"></path>
            <path d="M169.624415,96.8257525 C168.020688,96.2110512 166.375856,95.7094883 164.702007,95.3247492 C160.323796,94.2842281 155.868949,93.5977314 151.380602,93.2719064 L152.484281,93.658194 L152.980936,93.8458194 C155.755714,95.0053253 157.674672,97.5889059 157.983021,100.580355 C158.291371,103.571804 156.939777,106.492502 154.459866,108.193645 C153.150597,109.069246 151.619718,109.555301 150.045151,109.595318 C153.359677,109.838928 156.653039,110.314677 159.901003,111.019064 C161.088439,111.27573 162.260246,111.600004 163.410702,111.990301 C163.903764,112.186604 164.413519,112.338053 164.933779,112.442809 C165.439364,112.539738 165.953103,112.587786 166.467893,112.586322 C170.390473,112.590607 173.768351,109.819965 174.531432,105.972322 C175.294512,102.124678 173.229677,98.2746161 169.602341,96.7816054 L169.624415,96.8257525 Z" id="Path" fill="#A5B1B8"></path>
            <polygon id="Path" fill="#0099DA" points="156.88796 183.87291 133.269231 225.967224 109.639465 268.061538 116.625753 268.061538 123.623077 268.061538 147.241806 225.967224 170.871572 183.87291 163.885284 183.87291"></polygon>
            <path d="M184.976589,223.2301 C183.31639,221.02978 181.140885,219.271184 178.641472,218.10903 C175.957736,216.932768 173.050718,216.35287 170.12107,216.409365 C167.094018,216.34437 164.086732,216.911995 161.291639,218.07592 C158.774203,219.166879 156.57529,220.879676 154.901338,223.053512 C153.052,225.526471 151.726334,228.350552 151.005351,231.353177 C150.089433,235.15015 149.655581,239.047399 149.714047,242.952843 C149.661513,246.72825 150.103051,250.494311 151.027425,254.155184 C151.783556,257.154153 153.130599,259.972062 154.989632,262.443813 C156.668508,264.656996 158.872337,266.417025 161.402007,267.564883 C164.150232,268.746042 167.119355,269.325567 170.110033,269.264548 C176.813043,269.264548 181.834783,267.057191 185.175251,262.642475 C188.515719,258.227759 190.193311,251.649833 190.208027,242.908696 C190.26189,239.074996 189.820447,235.250391 188.894649,231.529766 C188.149355,228.531681 186.817721,225.710868 184.976589,223.2301 L184.976589,223.2301 Z M174.226756,253.691639 C173.890114,254.708415 173.301607,255.623448 172.516054,256.351505 C171.810125,256.937787 170.917153,257.251111 169.999666,257.234448 C168.138127,257.234448 166.740134,256.035117 165.805686,253.636455 C164.871237,251.237793 164.418729,247.628763 164.448161,242.809365 C164.448161,237.964214 164.911706,234.344147 165.849833,231.916054 C166.78796,229.48796 168.178595,228.295987 170.043813,228.295987 C170.96352,228.277392 171.858363,228.595297 172.560201,229.189967 C173.348282,229.933491 173.936581,230.863383 174.270903,231.89398 C174.762896,233.361861 175.092293,234.879308 175.253177,236.419064 C175.679901,240.661202 175.679901,244.935453 175.253177,249.177592 C175.082238,250.716146 174.737911,252.230444 174.226756,253.691639 L174.226756,253.691639 Z" id="Shape" fill="#0099DA"></path>
            <path d="M130.554181,209.323746 C130.607572,205.504628 130.166108,201.694678 129.240803,197.988963 C128.495455,194.982104 127.15988,192.153385 125.311706,189.667224 C123.657135,187.461468 121.480137,185.701666 118.976589,184.546154 C116.293701,183.366102 113.386648,182.782432 110.456187,182.835452 C107.429564,182.775612 104.423329,183.343038 101.626756,184.502007 C99.1100627,185.599406 96.9118006,187.315493 95.2364548,189.490635 C93.3883759,191.954732 92.0660739,194.772137 91.351505,197.768227 C90.4265403,201.548796 89.9888763,205.432137 90.0491639,209.323746 C89.99518,213.103538 90.4404999,216.873913 91.3735786,220.537124 C92.1283022,223.531176 93.4714569,226.345047 95.3247492,228.814716 C97.0013225,231.045489 99.2095516,232.821178 101.748161,233.979933 C104.496386,235.161092 107.465509,235.740617 110.456187,235.679599 C117.159197,235.679599 122.184615,233.472241 125.532441,229.057525 C128.880268,224.642809 130.554181,218.064883 130.554181,209.323746 Z M104.73913,209.213378 C104.73913,204.368227 105.213712,200.748161 106.140803,198.331104 C107.067893,195.914047 108.469565,194.7 110.334783,194.7 C111.256599,194.680327 112.153041,195.002732 112.851171,195.605017 C113.645275,196.339147 114.234804,197.26718 114.561873,198.297993 C115.059093,199.764431 115.388618,201.282468 115.544147,202.823077 C115.985624,207.064463 115.985624,211.34022 115.544147,215.581605 C115.390849,217.10817 115.061228,218.611837 114.561873,220.062542 C114.229222,221.081219 113.64011,221.997194 112.851171,222.722408 C112.145242,223.30869 111.25227,223.622014 110.334783,223.605351 C108.469565,223.605351 107.023746,222.402341 106.140803,220.007358 C105.25786,217.612375 104.73913,214.003344 104.73913,209.213378 Z" id="Shape" fill="#0099DA"></path>
        </g>
    </g>
</svg>