<?xml version="1.0" encoding="UTF-8"?>
<svg width="440px" height="330px" viewBox="0 0 440 330" version="1.1" xmlns="http://www.w3.org/2000/svg" xmlns:xlink="http://www.w3.org/1999/xlink">
    <title>Graphic elements / Icons / Rich icons / Searching</title>
    <defs>
        <linearGradient x1="-26.5351742%" y1="49.9582289%" x2="100.092045%" y2="49.9582289%" id="linearGradient-1">
            <stop stop-color="#FFFFFF" offset="17%"></stop>
            <stop stop-color="#464547" offset="100%"></stop>
        </linearGradient>
        <linearGradient x1="-139.290857%" y1="50.0209171%" x2="100%" y2="50.0209171%" id="linearGradient-2">
            <stop stop-color="#FFFFFF" offset="17%"></stop>
            <stop stop-color="#464547" offset="100%"></stop>
        </linearGradient>
        <linearGradient x1="0%" y1="49.9889989%" x2="301.805054%" y2="49.9889989%" id="linearGradient-3">
            <stop stop-color="#FFFFFF" offset="0%"></stop>
            <stop stop-color="#464547" offset="21%"></stop>
        </linearGradient>
        <linearGradient x1="-0.0210992721%" y1="50.0737679%" x2="99.9789007%" y2="50.0737679%" id="linearGradient-4">
            <stop stop-color="#FFFFFF" offset="27%"></stop>
            <stop stop-color="#E6E7E8" offset="100%"></stop>
        </linearGradient>
        <linearGradient x1="-0.110301959%" y1="49.9448732%" x2="100%" y2="49.9448732%" id="linearGradient-5">
            <stop stop-color="#FFFFFF" offset="0%"></stop>
            <stop stop-color="#464547" offset="20%"></stop>
        </linearGradient>
        <linearGradient x1="-0.350569676%" y1="50.036846%" x2="503.593339%" y2="50.036846%" id="linearGradient-6">
            <stop stop-color="#FFFFFF" offset="0%"></stop>
            <stop stop-color="#464547" offset="20%"></stop>
        </linearGradient>
        <linearGradient x1="-357.371501%" y1="49.9803079%" x2="99.9999177%" y2="49.9803079%" id="linearGradient-7">
            <stop stop-color="#FFFFFF" offset="29%"></stop>
            <stop stop-color="#FEFEFE" offset="30%"></stop>
            <stop stop-color="#CECECE" offset="39%"></stop>
            <stop stop-color="#A5A4A5" offset="49%"></stop>
            <stop stop-color="#828283" offset="58%"></stop>
            <stop stop-color="#686769" offset="68%"></stop>
            <stop stop-color="#555456" offset="79%"></stop>
            <stop stop-color="#4A494B" offset="89%"></stop>
            <stop stop-color="#464547" offset="100%"></stop>
        </linearGradient>
    </defs>
    <g id="Graphic-elements-/-Icons-/-Rich-icons-/-Searching" stroke="none" stroke-width="1" fill="none" fill-rule="evenodd">
        <g id="Asset-206" transform="translate(67.000000, 0.000000)">
            <rect id="Rectangle" fill="#7C8B95" x="36.56" y="277.37" width="244.44" height="9.34"></rect>
            <rect id="Rectangle" fill="#023852" x="188.09" y="273.28" width="86.21" height="3.75"></rect>
            <rect id="Rectangle" fill="#FEE600" x="217.83" y="269.45" width="39.09" height="3.75"></rect>
            <polygon id="Path" fill="#023852" points="247.01 236.13 247.01 125.2 149.59 125.2 82.18 125.2 82.18 236.13"></polygon>
            <rect id="Rectangle" fill="#9AAFBA" x="88.29" y="130.55" width="152.61" height="100.22"></rect>
            <polygon id="Path" fill="#FFFFFF" opacity="0.2" points="106.08 130.62 197.33 230.89 240.9 230.78 240.83 130.62"></polygon>
            <rect id="Rectangle" fill="#003A5D" x="103.68" y="303.57" width="108.74" height="25.55"></rect>
            <path d="M180.52,165.36 L178.84,166.2 C178.410496,166.412019 178.109106,166.817593 178.03,167.29 L176.76,174.73 C176.685531,175.158181 176.429011,175.533014 176.056846,175.757463 C175.684682,175.981913 175.233463,176.033913 174.82,175.9 L162.29,171.84 L162.29,170 L157.71,170.38 L156.55,170 L156.55,170.48 L142.93,171.6 C142.154662,171.667993 141.457614,171.12778 141.33,170.36 L140.8,167.31 C140.72149,166.84027 140.424582,166.435732 140,166.22 L138.31,165.38 C138.103782,165.270889 137.873268,165.21584 137.64,165.22 L135.48,165.22 C134.651573,165.22 133.98,165.891573 133.98,166.72 L133.98,171.63 C133.983223,171.940126 134.077076,172.242539 134.25,172.5 L139.08,179.32 C139.363242,179.712177 139.81625,179.946108 140.3,179.95 L141.84,179.95 C142.427875,179.947192 142.961676,180.292593 143.2,180.83 L145.9,186.73 C145.982258,186.926553 146.026375,187.136959 146.03,187.35 L146.03,190.69 C146.03,191.518427 146.701573,192.19 147.53,192.19 L171.31,192.19 C172.138427,192.19 172.81,191.518427 172.81,190.69 L172.81,187.33 C172.809085,187.130411 172.849962,186.93284 172.93,186.75 L175.93,179.75 L175.93,179.93 L178.6,179.93 C179.08375,179.926108 179.536758,179.692177 179.82,179.3 L184.64,172.48 C184.819792,172.225301 184.917485,171.921754 184.92,171.61 L184.92,166.7 C184.92,165.871573 184.248427,165.2 183.42,165.2 L181.25,165.2 C180.996826,165.188161 180.745013,165.243353 180.52,165.36 L180.52,165.36 Z" id="Path" fill="#66C2E9"></path>
            <path d="M176,139.83 L167,134.83 C166.506557,134.558425 165.953224,134.414078 165.39,134.41 L155.39,134.41 C154.46346,134.412789 153.579713,134.800334 152.95,135.48 L149.95,138.69 C149.419518,139.245242 148.712483,139.59876 147.95,139.69 L144.95,140.07 C143.844089,140.212895 142.883106,140.899848 142.39,141.9 L138.12,150.59 C137.799167,151.236857 137.700745,151.971505 137.84,152.68 L141.71,173 C141.779385,173.38987 141.92189,173.763097 142.13,174.1 L148.31,184.24 C148.910857,185.227928 149.9837,185.830691 151.14,185.830001 L168.93,185.830001 C170.088839,185.830001 171.164481,185.228055 171.77,184.24 L177.94,174.1 C178.147157,173.761598 178.292739,173.389179 178.37,173 L182.26,152.68 C182.390985,151.970283 182.289271,151.237241 181.97,150.59 L177.38,141.24 C177.074024,140.640647 176.592635,140.148793 176,139.83 Z" id="Path" fill="#356075"></path>
            <path d="M144.31,173.74 C144.437614,174.50778 145.134662,175.047993 145.91,174.98 L156.47,173.48 L156.47,173 L157.64,173.38 L162.21,173 L162.21,174.86 L170.94,175.19 C171.333992,175.315752 171.762833,175.268507 172.12,175.06 L162.21,171.85 L162.21,170 L157.64,170.38 L156.47,170 L156.47,170.47 L143.17,171.57 C143.302527,171.802197 143.403421,172.051068 143.47,172.31 L144.31,173.74 Z" id="Path" fill="#99D7F0"></path>
            <path d="M176.68,174.74 L177.37,170.74 L172.87,174.02 C172.78255,174.448911 172.507268,174.815953 172.12,175.02 L174.74,175.87 C175.147671,176.004268 175.59333,175.957467 175.964213,175.741437 C176.335096,175.525407 176.595669,175.160846 176.68,174.74 Z" id="Path" fill="#99D7F0"></path>
            <path d="M142.85,171.59 L143.17,171.59 C142.956973,171.13751 142.642086,170.740478 142.25,170.43 L141.17,169.88 L141.25,170.38 C141.395526,171.133089 142.085745,171.655066 142.85,171.59 L142.85,171.59 Z" id="Path" fill="#99D7F0"></path>
            <path d="M183.28,166.76 L181.12,166.76 C180.887011,166.758344 180.6571,166.813248 180.45,166.92 L178.77,169.22 C178.340496,169.432019 178.039106,169.837593 177.96,170.31 L177.37,170.74 L176.68,174.74 C176.605531,175.168181 176.349011,175.543014 175.976846,175.767463 C175.604682,175.991913 175.153463,176.043913 174.74,175.91 L172.12,175.06 C171.762833,175.268507 171.333992,175.315752 170.94,175.19 L162.21,174.86 L162.21,173 L157.64,173.38 L156.47,173 L156.47,173.48 L145.91,175 C145.134662,175.067993 144.437614,174.52778 144.31,173.76 L143.47,172.32 C143.403421,172.061068 143.302527,171.812197 143.17,171.58 L142.85,171.58 C142.076118,171.643069 141.382019,171.105142 141.25,170.34 L141.17,168.34 L138.24,166.87 C138.0329,166.763248 137.802989,166.708344 137.57,166.709964 L135.4,166.709964 C134.571573,166.709964 133.9,167.381573 133.9,168.21 L133.9,171.57 C133.900635,171.878969 133.998607,172.179883 134.18,172.43 L139,179.3 C139.280884,179.701397 139.740087,179.940332 140.23,179.94 L141.77,179.94 C142.353324,179.942964 142.882768,180.281652 143.13,180.81 L145.82,186.72 C145.911018,186.914089 145.958786,187.125633 145.96,187.34 L145.96,190.68 C145.959982,191.504538 146.625481,192.174503 147.45,192.18 L171.23,192.18 C172.058427,192.18 172.73,191.508427 172.73,190.68 L172.73,187.32 C172.73026,187.117299 172.77106,186.916698 172.85,186.73 L175.85,179.73 L175.85,179.91 L178.52,179.91 C179.006797,179.908769 179.462297,179.669818 179.74,179.27 L184.57,172.45 C184.748455,172.198987 184.84296,171.897969 184.840067,171.59 L184.840067,168.23 C184.83226,167.826789 184.662485,167.443679 184.368978,167.167105 C184.075471,166.890531 183.68296,166.743794 183.28,166.76 Z" id="Path" fill="#1AA3DE"></path>
            <path d="M171.77,184.37 L177.94,174.23 C178.147157,173.891598 178.292739,173.519179 178.37,173.13 L181.89,154.74 L177.78,146.39 C177.480044,145.782096 177.002215,145.279852 176.41,144.95 L167.41,139.95 C166.916557,139.678425 166.363224,139.534078 165.8,139.53 L155.8,139.53 C154.87346,139.532789 153.989713,139.920334 153.36,140.6 L150.36,143.81 C149.831041,144.367301 149.123217,144.721213 148.36,144.81 L145.36,145.2 C144.254148,145.335619 143.291389,146.020081 142.8,147.02 L138.53,155.71 C138.502039,155.791968 138.478669,155.87543 138.46,155.96 L141.74,173.1 C141.809385,173.48987 141.95189,173.863097 142.16,174.2 L148.34,184.34 C148.940857,185.327928 150.0137,185.930691 151.17,185.930001 L168.96,185.930001 C170.102226,185.926347 171.162874,185.337518 171.77,184.37 L171.77,184.37 Z" id="Path" fill="#023852"></path>
            <path d="M175,194.48 L172.35,188.89 L172.35,188.89 C163.99067,187.453086 155.458727,187.324888 147.06,188.51 C145.6,188.72 144.77,188.89 144.77,188.89 L142.13,194.47 L158.5,193.75 L175,194.48 Z" id="Path" fill="#F9F9F9"></path>
            <path d="M180.2,198.63 L173.58,192.47 L173.58,192.47 C164.353628,190.893218 154.938706,190.754912 145.67,192.06 C144.06,192.29 143.14,192.47 143.14,192.47 L136.53,198.63 L158.32,195 L180.2,198.63 Z" id="Path" fill="#023852"></path>
            <path d="M211.35,207.67 C211.35,207.67 191,196.26 158.38,195 L158.32,195 C125.74,196.27 105.32,207.68 105.32,207.68 L97.03,225.33 C97.03,225.33 105.17,232.94 147.24,235.91 C189.31,238.88 219.61,225.33 219.61,225.33 L211.35,207.67 Z" id="Path" fill="#356075"></path>
            <path d="M213.32,212 C196.10668,203.816312 177.430339,199.158277 158.39,198.3 L158.32,198.3 C139.282783,199.157723 120.609604,203.815818 103.4,212 L97.07,225.37 C97.07,225.37 105.21,232.98 147.28,235.95 C189.35,238.92 219.65,225.37 219.65,225.37 L213.32,212 Z" id="Path" fill="#023852"></path>
            <path d="M93.62,253.49 C92.8174069,253.3435 91.9913561,253.563634 91.3681039,254.090108 C90.7448517,254.616582 90.3897275,255.394211 90.3997831,256.21 L90.5,263.21 L90.5,267.48 C90.5083794,268.868464 91.496531,270.057596 92.86,270.32 C154.67,281.87 207.57,272.65 219.04,270.32 C220.380782,270.048304 221.343418,268.868029 221.34,267.5 L221.34,263.25 L221.58,255.61 C221.603227,254.966238 221.33249,254.346838 220.844217,253.926651 C220.355944,253.506463 219.703108,253.331076 219.07,253.45 C203.39,256.34 152.71,263.91 93.62,253.49 Z" id="Path" fill="#1A4D6D"></path>
            <polygon id="Path" fill="#002D43" points="220.17 238.09 232.17 264.2 237.72 269.61 237.57 281.16 228.72 289.42 216.11 289.42"></polygon>
            <polygon id="Path" fill="#002D43" points="92.45 238.09 80.45 264.2 74.89 269.61 75.04 281.16 83.9 289.42 96.5 289.42"></polygon>
            <polygon id="Path" fill="#023852" points="220.17 245.05 232.17 271.16 237.72 276.57 237.57 288.12 228.72 296.38 216.11 296.38"></polygon>
            <polygon id="Path" fill="#023852" points="92.45 245.05 80.45 271.16 74.89 276.57 75.04 288.12 83.9 296.38 96.5 296.38"></polygon>
            <path d="M229.65,289.11 L217.31,289.11 L217.31,299.62 L228.41,299.62 C229.323118,299.62 230.198129,299.253976 230.839085,298.603622 C231.480041,297.953268 231.833389,297.07302 231.82,296.16 L231.75,291.16 C231.717639,290.022048 230.788402,289.114935 229.65,289.11 L229.65,289.11 Z" id="Path" fill="#000000"></path>
            <path d="M79.79,289.10997 L92.12,289.10997 L92.12,299.62 L81,299.62 C80.0877212,299.617395 79.214294,299.250414 78.5739248,298.600655 C77.9335555,297.950896 77.5793263,297.07222 77.59,296.16 L77.66,291.16 C77.6978876,290.01269 78.6420806,289.10396 79.79,289.10997 L79.79,289.10997 Z" id="Path" fill="#000000"></path>
            <polygon id="Path" fill="#356075" points="232.17 264.2 220.17 238.09 220.17 245.05 232.17 271.16 237.63 276.48 237.72 269.61"></polygon>
            <polygon id="Path" fill="#356075" points="80.45 264.2 74.89 269.61 74.98 276.48 80.45 271.16 92.45 245.05 92.45 238.09"></polygon>
            <path d="M92.2599839,228.09 L92.2599839,303.35 C92.2554037,304.728741 93.2351308,305.914505 94.59,306.17 C155.92,317.63 208.39,308.49 219.78,306.17 C221.113707,305.902731 222.072653,304.73022 222.070005,303.37 L222.070005,228.15 C222.070005,227.296638 221.68977,226.487663 221.031984,225.944023 C220.374198,225.400383 219.508013,225.178876 218.67,225.34 C205.38,227.91 154.72,236.11 95.67,225.28 C94.8310282,225.11927 93.964062,225.340618 93.304824,225.883861 C92.6455859,226.427104 92.2626009,227.235775 92.2599839,228.09 L92.2599839,228.09 Z" id="Path" fill="#4D5152"></path>
            <path d="M218.75,231.66 C205.44,234.24 154.75,242.45 95.56,231.6 C94.724055,231.445982 93.8628414,231.670442 93.2084199,232.212898 C92.5539984,232.755354 92.1737003,233.559993 92.17,234.41 L92.17,303.34 C92.17,304.720428 93.153314,305.905078 94.51,306.16 C155.92,317.64 208.51,308.49 219.87,306.16 C221.203707,305.892731 222.162653,304.72022 222.160005,303.36 L222.160005,234.47 C222.160005,233.614515 221.779012,232.803499 221.118805,232.259457 C220.458598,231.715415 219.589517,231.495483 218.75,231.66 L218.75,231.66 Z" id="Path" fill="#303436"></path>
            <path d="M203.23,329.12 L202.31,309.9 C202.305011,309.816741 202.305011,309.733259 202.31,309.65 C202.5,307.12 205.69,265.95 206.48,255.56 C206.525906,254.952884 206.311036,254.354956 205.88919,253.915931 C205.467344,253.476905 204.878464,253.238351 204.27,253.26 L203.48,253.26 C202.377755,253.293743 201.481627,254.159567 201.41,255.26 L197.5,309.63 L197.5,309.88 L198.33,329.11 L203.23,329.12 Z" id="Path" fill="#7C8B95"></path>
            <path d="M116.9,309.9 L116,329.12 L120.89,329.12 L121.72,309.89 L121.72,309.64 L117.81,255.27 C117.733431,254.167974 116.834181,253.30331 115.73,253.27 L114.95,253.27 C114.341536,253.248351 113.752656,253.486905 113.33081,253.925931 C112.908964,254.364956 112.694094,254.962884 112.74,255.57 C113.53,265.96 116.74,307.13 116.91,309.66 C116.911271,309.740126 116.907932,309.820258 116.9,309.9 L116.9,309.9 Z" id="Path" fill="#7C8B95"></path>
            <path d="M209.46,28.75 L209.4,7 C209.394495,5.78888062 208.411132,4.81 207.2,4.81 L133.41,5 L133.41,28.75 L209.46,28.75 Z" id="Path" fill="url(#linearGradient-1)" opacity="0.4" style="mix-blend-mode: multiply;"></path>
            <path d="M82.51,125.78 L82.51,149.610031 L136.44,149.610031 C136.871381,149.612663 137.286008,149.443161 137.591983,149.139063 C137.897958,148.834965 138.07,148.421389 138.07,147.99 L138.07,125.78 L82.51,125.78 Z" id="Path" fill="url(#linearGradient-2)" opacity="0.4" style="mix-blend-mode: multiply;"></path>
            <path d="M216.53,125.37 L216.53,169 C216.535465,170.002886 217.347114,170.814535 218.35,170.82 L247,170.82 L247,125.37 L216.53,125.37 Z" id="Path" fill="url(#linearGradient-3)" opacity="0.4" style="mix-blend-mode: multiply;"></path>
            <rect id="Rectangle" fill="#9E9C8D" x="0" y="29.9" width="132.95" height="114.91" rx="1.63"></rect>
            <path d="M84,49.67 L84,49.24 C84.0003428,48.2666584 83.5021995,47.3609434 82.68,46.84 L77.14,43.37 C76.6885802,43.0830987 76.1648757,42.929993 75.63,42.929993 L62.44,42.929993 C61.78228,42.9285313 61.1450346,43.1586477 60.64,43.58 L51,51.49 C50.670574,51.7603893 50.4072178,52.1024104 50.23,52.49 L43.3,67.49 C43.1288888,67.863395 43.0398423,68.2692655 43.0398423,68.68 L43.0398423,86 C43.036415,86.340817 43.0939935,86.6795136 43.21,87 L46.35,95.65 C46.6172556,96.3946855 46.5629205,97.2169561 46.2,97.92 L46.2,97.92 C45.7672713,98.7989315 45.8199005,99.8391508 46.3391304,100.669919 C46.8583602,101.500686 47.7703266,102.00382 48.75,102.000022 L84.2,102.000022 C85.249374,102.00102 86.2125251,101.419277 86.7,100.49 L92.94,88.6 C93.1500152,88.1916693 93.26,87.7391735 93.26,87.28 L93.26,60.88 C93.2589706,60.1022427 92.9412327,59.3584472 92.38,58.82 L84.88,51.73 C84.3138152,51.1949905 83.995122,50.4489586 84,49.67 Z" id="Path" fill="#023852"></path>
            <path d="M116.64,120.81 L113,111 C112.823532,110.528449 112.53122,110.108896 112.15,109.78 C111.775686,109.443753 111.321089,109.209566 110.83,109.1 L102.23,107.1 L93.63,105.1 L93.4,105.1 L93.16,105.1 L91,104.88 C90.5945038,104.859949 90.1984247,104.750685 89.84,104.56 C89.4778684,104.378021 89.1550732,104.126581 88.89,103.82 L86.47,101 L84.07,98.19 C83.7947615,97.8578769 83.4544408,97.5856203 83.07,97.39 C82.6683895,97.206938 82.2313333,97.1147465 81.79,97.1197874 L70.17,97.1197874 L58.56,97.18 C57.7938152,97.1802479 57.056761,97.4736384 56.5,98 L53.73,100.57 L50.96,103.15 C50.7139817,103.380618 50.4297519,103.566721 50.12,103.7 C49.8035867,103.840403 49.4652604,103.924985 49.12,103.95 L42.62,104.51 L36.13,105.06 C35.8986791,105.080193 35.6704848,105.127175 35.45,105.2 C35.228718,105.26999 35.0170715,105.367415 34.82,105.49 L32.27,107.01 L29.73,108.54 C28.9408705,109.004187 28.4068963,109.803307 28.28,110.71 L25.4,144.71 L120.19,144.71 L116.64,120.81 Z" id="Path" fill="url(#linearGradient-4)"></path>
            <path d="M116.64,120.81 L113,111 C112.823532,110.528449 112.53122,110.108896 112.15,109.78 C111.775686,109.443753 111.321089,109.209566 110.83,109.1 L93.63,105.1 L93.4,105.1 L93.16,105.1 L91,104.88 C90.5945038,104.859949 90.1984247,104.750685 89.84,104.56 C89.4778684,104.378021 89.1550732,104.126581 88.89,103.82 L84.09,98.19 C83.8147615,97.8578769 83.4744408,97.5856203 83.09,97.39 C82.6883895,97.206938 82.2513333,97.1147465 81.81,97.1197874 L58.58,97.23 C57.8138152,97.2302479 57.076761,97.5236384 56.52,98.05 L50.98,103.2 C50.7339817,103.430618 50.4497519,103.616721 50.14,103.75 C49.8235867,103.890403 49.4852604,103.974985 49.14,104 L36.14,105.11 C35.9086791,105.130193 35.6804848,105.177175 35.46,105.25 C35.238718,105.31999 35.0270715,105.417415 34.83,105.54 L29.74,108.54 C28.9508705,109.004187 28.4168963,109.803307 28.29,110.71 L25.41,144.64 L26.62,144.64 L29.71,115 L34.8,112 C34.9970715,111.877415 35.208718,111.77999 35.43,111.71 C35.6508903,111.64057 35.879076,111.596946 36.11,111.58 L49.11,110.47 C49.4543707,110.439562 49.7918197,110.3552 50.11,110.22 C50.4182014,110.079556 50.7018201,109.890477 50.95,109.66 L56.49,104.51 C56.7823739,104.248538 57.1217105,104.044936 57.49,103.91 C57.8395725,103.768156 58.2127622,103.693518 58.59,103.69 L81.82,103.58 C82.7152641,103.581085 83.5657532,103.971653 84.15,104.65 L88.95,110.28 C89.2146733,110.589616 89.5374119,110.844409 89.9,111.03 C90.2619604,111.211653 90.6560993,111.320381 91.06,111.35 L93.2,111.49 L93.44,111.49 L93.67,111.49 L110.87,115.49 C111.360029,115.602476 111.813932,115.836305 112.19,116.17 C112.568412,116.501418 112.860193,116.920209 113.04,117.39 L115.53,139.66 L117.64,144.73 L120.26,144.73 L116.64,120.81 Z" id="Path" fill="#FFFFFF"></path>
            <path d="M58.52,89.42 L58.52,97.59 C58.5049118,97.6659243 58.5049118,97.7440757 58.52,97.82 C58.5385805,97.8991826 58.5725592,97.9739357 58.62,98.04 L65,107.67 L71.32,117.29 C71.4774249,117.528987 71.7480554,117.668612 72.0340499,117.658398 C72.3200445,117.648184 72.5800249,117.489608 72.72,117.24 L77.11,109.24 L81.51,101.24 C81.5377023,101.178363 81.5610919,101.114877 81.58,101.05 C81.5897176,100.980337 81.5897176,100.909663 81.58,100.84 L81.58,92.32 C81.5711446,91.9115599 81.2729726,91.5671923 80.87,91.5 L70.16,90.05 L59.45,88.61 C59.2157972,88.5725489 58.97716,88.6423044 58.8,88.8 C58.6212973,88.9563756 58.5191586,89.1825399 58.52,89.42 L58.52,89.42 Z" id="Path" fill="#33ADE1"></path>
            <path d="M58.52,88.48 L58.52,95.35 L64.52,100.11 L70.52,104.87 C70.7322173,105.036917 70.9834441,105.147043 71.25,105.19 C71.5175465,105.221257 71.7886804,105.186936 72.04,105.09 L76.79,103.09 L81.55,101.09 L81.55,91.6 L70.05,90 L58.52,88.48 Z" id="Path" fill="#7FCCEC" style="mix-blend-mode: multiply;"></path>
            <path d="M84.65,69.83 L85.51,69.44 L86.36,69.05 C86.4714192,68.9983529 86.5890675,68.9613777 86.71,68.94 C86.8261868,68.925036 86.9438132,68.925036 87.06,68.94 L87.33,68.94 L87.59,68.94 C87.9278993,68.9817829 88.2345068,69.1585331 88.44,69.43 C88.6478762,69.6962087 88.7381652,70.0356952 88.69,70.37 L88.18,74.29 L87.67,78.22 C87.6455193,78.3850512 87.5913088,78.5442945 87.51,78.69 C87.4249578,78.8335101 87.3128884,78.9591636 87.18,79.06 L86.05,80 L84.93,80.87 C84.7950371,80.9707626 84.6424104,81.0453801 84.48,81.09 C84.3151821,81.1251074 84.1448179,81.1251074 83.98,81.09 L83.76,81.09 L83.55,81.09 C83.2049656,81.0458134 82.8927744,80.8631039 82.6852723,80.5839192 C82.4777702,80.3047346 82.3928302,79.9531222 82.45,79.61 L83.18,75.21 L83.92,70.8 C83.9517713,70.5961602 84.0343031,70.4035859 84.16,70.24 C84.2875935,70.0655497 84.4557793,69.9248228 84.65,69.83 L84.65,69.83 Z" id="Path" fill="#33ADE1"></path>
            <path d="M87.59,69 L87.33,69 L87.06,69 C86.9438062,68.9851454 86.8261938,68.9851454 86.71,69 C86.5916168,69.0128246 86.4764756,69.0466896 86.37,69.1 L85.51,69.49 L84.65,69.88 C84.4591579,69.9666138 84.2938461,70.1009296 84.17,70.27 C84.0410375,70.4365365 83.9551656,70.6323245 83.92,70.84 L83.78,71.7 L83.63,72.57 C83.6796029,72.3804873 83.7681515,72.2033899 83.89,72.05 C84.0156709,71.8983271 84.1725701,71.7755364 84.35,71.69 L85.24,71.29 L86.12,70.89 C86.2296863,70.833999 86.3479982,70.7968153 86.47,70.78 C86.5925249,70.7600294 86.7174751,70.7600294 86.84,70.78 L87.11,70.78 L87.38,70.78 C87.662064,70.8167125 87.9249281,70.9428873 88.13,71.14 C88.3254635,71.3408395 88.4576034,71.5946873 88.51,71.87 L88.6,71.15 L88.69,70.42 C88.7381652,70.0856952 88.6478762,69.7462087 88.44,69.48 C88.2297765,69.2156588 87.9249285,69.0435094 87.59,69 Z" id="Path" fill="#66C2E9"></path>
            <path d="M53.89,69.83 L53,69.44 L52.14,69.05 C52.0320417,68.9984291 51.917707,68.9614385 51.8,68.94 C51.6804659,68.9250456 51.5595341,68.9250456 51.44,68.94 L51.18,68.94 L51,69 C50.6621007,69.0417829 50.3554932,69.2185331 50.15,69.49 C49.9421238,69.7562087 49.8518348,70.0956952 49.9,70.43 L50.41,74.35 L50.92,78.28 C50.9399862,78.4461074 50.9944858,78.6062 51.08,78.75 C51.1620504,78.8956738 51.2746212,79.0218894 51.41,79.12 L52.53,79.99 L53.66,80.86 C53.7937651,80.9627102 53.9467883,81.0375216 54.11,81.08 C54.2748179,81.1151074 54.4451821,81.1151074 54.61,81.08 L54.82,81.08 L55.04,81.08 C55.3838057,81.0331664 55.6942486,80.8498056 55.9012309,80.5713203 C56.1082132,80.2928349 56.1942809,79.9427088 56.14,79.6 L55.4,75.2 L54.67,70.79 C54.6348694,70.5853455 54.5489071,70.39279 54.42,70.23 C54.2837133,70.0502297 54.100251,69.9117675 53.89,69.83 Z" id="Path" fill="#33ADE1"></path>
            <path d="M51,69 L51.26,69 L51.52,69 C51.6395341,68.9850456 51.7604659,68.9850456 51.88,69 C51.9983832,69.0128246 52.1135244,69.0466896 52.22,69.1 L53.08,69.49 L53.94,69.88 C54.129257,69.9691549 54.2939911,70.1030013 54.42,70.27 C54.5489625,70.4365365 54.6348344,70.6323245 54.67,70.84 L54.81,71.7 L54.96,72.57 C54.8656478,72.17966 54.596192,71.8548366 54.23,71.69 L53.35,71.29 L52.47,70.89 C52.3568563,70.8338091 52.2352273,70.7966446 52.11,70.78 C51.9908295,70.7600465 51.8691705,70.7600465 51.75,70.78 L51.48,70.78 L51.21,70.78 C50.927104,70.8138823 50.6633841,70.9404678 50.46,71.14 C50.2609816,71.3382488 50.1282354,71.5932614 50.08,71.87 L49.99,71.15 L49.89,70.42 C49.8131466,69.7238172 50.3058572,69.0935027 51,69 Z" id="Path" fill="#66C2E9"></path>
            <path d="M81.55,53.79 C81.4185645,53.3878436 81.1629805,53.0377286 80.82,52.79 C80.4734153,52.5396613 80.0575267,52.4033617 79.63,52.399997 L60,52.399997 C59.5718122,52.3992622 59.1546911,52.5359657 58.81,52.79 C58.4666356,53.0395747 58.2082997,53.3886774 58.07,53.79 L56.17,59.79 L54.27,65.79 C54.2372482,65.8875659 54.2138102,65.9880144 54.2,66.09 C54.1896407,66.1930737 54.1896407,66.2969263 54.2,66.399997 L54.2,86 C54.2008092,86.2244946 54.2379564,86.4473778 54.31,86.66 C54.3826266,86.8702491 54.4908709,87.0664419 54.63,87.24 L57.63,91.14 L60.63,95.04 C60.7472988,95.1790799 60.8779208,95.3063526 61.02,95.42 C61.1684491,95.5291473 61.329635,95.6198144 61.5,95.69 L64.23,96.69 L67,97.79 C67.1148279,97.8397368 67.2359709,97.8733876 67.36,97.89 C67.4828607,97.9052694 67.6071393,97.9052694 67.73,97.89 L71.98,97.89 C72.1028909,97.9047732 72.2271091,97.9047732 72.35,97.89 C72.4734743,97.8707509 72.5942876,97.8371917 72.71,97.79 L75.44,96.73 L78.17,95.67 C78.3397421,95.6094222 78.4984863,95.5216062 78.64,95.41 C78.7781661,95.2904205 78.899293,95.1524704 79,95 L82,91.1 L85,87.2 C85.1360905,87.0260444 85.2409783,86.8298027 85.31,86.62 C85.3820436,86.4073778 85.4191908,86.1844946 85.42,85.96 L85.42,66.399997 C85.4253425,66.2967357 85.4253425,66.1932643 85.42,66.09 C85.42,65.99 85.42,65.89 85.35,65.79 L83.44,59.79 L81.55,53.79 Z" id="Path" fill="#33ADE1"></path>
            <path d="M85.47,65.84 L83.47,59.7 L81.47,53.56 C81.2629025,52.9061421 80.6831729,52.4407809 80,52.38 L64.63,52.38 C64.6056189,52.4513068 64.6056189,52.5286932 64.63,52.6 C64.6443217,52.679051 64.6869887,52.7501627 64.75,52.8 L72.75,58.86 L80.7,64.92 L80.7,83.06 L76.11,90.5 L71.59,97.93 L72.1,97.93 L72.41,97.93 L72.7,97.85 L75.51,96.76 L78.31,95.67 C78.450275,95.6165925 78.5817394,95.542433 78.7,95.45 C78.8156986,95.3477623 78.9166602,95.2299738 79,95.1 L82.08,91.1 L85.16,87.1 C85.2786105,86.9541489 85.3700622,86.788181 85.43,86.61 C85.4906071,86.4364577 85.5210471,86.253818 85.52,86.07 L85.52,66.34 C85.5249411,66.2567399 85.5249411,66.1732601 85.52,66.09 L85.47,65.84 Z" id="Path" fill="#7FCCEC" style="mix-blend-mode: multiply;"></path>
            <path d="M87.76,58.19 C87.7576141,58.015097 87.6898317,57.8474249 87.57,57.72 L83.21,52.87 L78.86,48 C78.7423949,47.8718704 78.5993459,47.7696925 78.44,47.7 C78.2865539,47.6282988 78.1193699,47.5907677 77.95,47.59 L71.82,47.59 L65.7,47.59 L65.55,47.59 L65.41,47.64 L60,49.83 L54.62,52.08 C54.4268947,52.1627418 54.2582009,52.2935656 54.13,52.46 C53.9954079,52.6231323 53.9088481,52.8204887 53.88,53.03 L52.61,61 L51.32,68.9 L51.41,68.9 C51.5291705,68.8800465 51.6508295,68.8800465 51.77,68.9 C51.8869735,68.9194033 52.0011478,68.952984 52.11,69 L52.94,69.39 L53.78,69.77 C53.8925085,69.8140507 54.0174915,69.8140507 54.13,69.77 C54.2488882,69.7428696 54.3506661,69.6665362 54.41,69.56 L55.1,68.41 L55.79,67.27 C55.7861998,67.236775 55.7861998,67.203225 55.79,67.17 L55.79,61.51 C55.7914465,61.3598507 55.8185014,61.2110489 55.87,61.07 C55.9210095,60.9294781 55.9991593,60.8003609 56.1,60.69 L58.69,57.69 L61.28,54.69 C61.3940313,54.5529776 61.5376258,54.4435723 61.7,54.37 C61.86082,54.2992466 62.0343134,54.2618265 62.21,54.26 L65.11,54.26 L65.33,54.26 C65.4058491,54.2692551 65.4799543,54.2894656 65.55,54.32 L67.07,54.89 L68.6,55.46 C68.7614512,55.526016 68.9360898,55.5534103 69.11,55.54 C69.2844328,55.5277044 69.4545448,55.480073 69.61,55.4 L71,54.75 L72.46,54 C72.5493024,53.9563063 72.6432225,53.9227634 72.74,53.9 C72.8360588,53.8846687 72.9339412,53.8846687 73.03,53.9 L76.74,53.9 C77.2365226,53.9025285 77.7282345,53.9974797 78.19,54.18 C78.6507047,54.3648866 79.0716498,54.6364641 79.43,54.98 L81.09,56.57 L82.75,58.16 C82.8374433,58.2488449 82.911547,58.3498955 82.97,58.46 C83.0338519,58.5715672 83.077839,58.6933778 83.1,58.82 L84.1,63.82 L85.1,68.82 C85.1322312,68.966387 85.228437,69.0905918 85.362116,69.1584 C85.4957949,69.2262082 85.6528435,69.2304658 85.79,69.17 L85.99,69.08 L86.19,68.99 C86.3384839,68.9193082 86.497036,68.8720799 86.66,68.85 C86.8223767,68.8249993 86.9876233,68.8249993 87.15,68.85 L87.34,68.85 L87.54,68.85 L87.54,68.85 C87.6905625,68.8696921 87.8425673,68.8262621 87.96,68.73 C88.0730907,68.6326641 88.1356687,68.4891028 88.1303544,68.34 L87.95,63.21 L87.76,58.19 Z" id="Path" fill="#023852"></path>
            <path d="M77,52 L54.47,55 L52.28,68.77 L53.28,69.34 C53.16,69.45 53.08,68.9 53.08,69.07 L53.08,74.14 C53.0854633,74.4950738 53.3748842,74.78 53.73,74.78 L55.6,74.78 C55.779154,74.7788699 55.9496321,74.7026989 56.07,74.57 L62.87,67.09 C62.9067642,67.0423743 62.9401779,66.9922538 62.97,66.94 L77,52 Z" id="Path" fill="#023852"></path>
            <rect id="Rectangle" fill="#1AA3DE" transform="translate(42.637324, 130.814742) rotate(45.000000) translate(-42.637324, -130.814742) " x="41.147324" y="129.324742" width="2.98" height="2.98"></rect>
            <path d="M12.82,47.72 L54.47,47.72 C55.4988651,47.725502 56.33,48.5611202 56.33,49.59 L56.33,69.68 C56.33,70.7072496 55.4972496,71.54 54.47,71.54 L43.75,71.54 C43.75,71.54 40.9,71.38 39.75,74.79 C39.75,74.8673199 39.6873199,74.93 39.61,74.93 C39.5326801,74.93 39.47,74.8673199 39.47,74.79 C38.88,71.73 35.47,71.55 35.47,71.54 L12.82,71.54 C11.8106767,71.5130157 11.0050387,70.6896714 10.9999999,69.68 L10.9999999,49.59 C10.9999999,48.5764428 11.8068051,47.7471004 12.82,47.72 Z" id="Path" fill="url(#linearGradient-5)" opacity="0.3" style="mix-blend-mode: multiply;"></path>
            <path d="M110.28,29.86 L110.35,54.63 C110.360981,55.9421434 111.427811,57 112.74,57 L133.1,57 L133.1,29.86 L110.28,29.86 Z" id="Path" fill="url(#linearGradient-6)" opacity="0.5" style="mix-blend-mode: multiply;"></path>
            <rect id="Rectangle" fill="#33ADE1" transform="translate(165.214057, 24.968536) rotate(-0.160000) translate(-165.214057, -24.968536) " x="117.129057" y="0.138535962" width="96.17" height="49.66" rx="2.19"></rect>
            <polygon id="Path" fill="#023852" points="166.84 35.67 161.16 41.37 150.67 30.93 131.85 49.85 181.99 49.73"></polygon>
            <circle id="Oval" fill="#023852" cx="172.51" cy="16.59" r="6.63"></circle>
            <path d="M14.51,44.9999999 L56.15,44.9999999 C57.1557812,45.0103994 57.9731598,45.8145232 58,46.82 L58,66.91 C57.994498,67.9388651 57.1588798,68.7700147 56.13,68.77 L45.43,68.77 C45.43,68.77 42.58,68.61 41.43,72.02 C41.4125763,72.085783 41.3530514,72.1315943 41.285,72.1315943 C41.2169486,72.1315943 41.1574237,72.085783 41.14,72.02 C40.56,68.96 37.14,68.78 37.14,68.77 L14.51,68.77 C13.4811202,68.7700147 12.645502,67.9388651 12.64,66.91 L12.64,46.82 C12.6671004,45.8068051 13.4964428,44.9996376 14.51,44.9999999 L14.51,44.9999999 Z" id="Path" fill="#FFFFFF"></path>
            <circle id="Oval" fill="#023852" cx="25.5" cy="56.52" r="2.62"></circle>
            <circle id="Oval" fill="#023852" cx="45.16" cy="56.52" r="2.62"></circle>
            <circle id="Oval" fill="#023852" cx="35.33" cy="56.52" r="2.62"></circle>
            <rect id="Rectangle" fill="#FFFFFF" x="222.86" y="91.34" width="82.62" height="70.77" rx="1.64"></rect>
            <rect id="Rectangle" fill="#0099DA" x="231.96" y="104.33" width="26.56" height="4.27"></rect>
            <rect id="Rectangle" fill="#0099DA" x="231.96" y="123.72" width="26.56" height="4.27"></rect>
            <rect id="Rectangle" fill="#0099DA" x="231.96" y="114.02" width="26.56" height="4.27"></rect>
            <rect id="Rectangle" fill="#0099DA" x="266.46" y="104.33" width="26.56" height="4.27"></rect>
            <rect id="Rectangle" fill="#0099DA" x="266.46" y="123.72" width="26.56" height="4.27"></rect>
            <rect id="Rectangle" fill="#0099DA" x="266.46" y="114.02" width="26.56" height="4.27"></rect>
            <polygon id="Path" fill="#0099DA" points="242.15 149.35 240.91 150.59 239.67 151.83 237 149.15 234.33 146.47 235.56 145.23 236.8 143.99 238.24 145.43 239.68 146.87 243.58 142.97 247.49 139.06 248.73 140.3 249.97 141.54 246.06 145.44"></polygon>
            <polygon id="Path" fill="#0099DA" points="261.71 149.35 260.47 150.59 259.23 151.83 256.55 149.15 253.87 146.47 255.11 145.23 256.35 143.99 257.79 145.43 259.23 146.87 263.13 142.97 267.04 139.06 268.28 140.3 269.52 141.54 265.61 145.44"></polygon>
            <polygon id="Path" fill="#0099DA" points="281.27 149.35 280 150.59 278.76 151.83 276.08 149.15 273.4 146.47 274.64 145.23 275.88 143.99 277.32 145.43 278.76 146.87 282.66 142.97 286.57 139.06 287.81 140.3 289.05 141.54 285.14 145.44"></polygon>
            <path d="M222.78,91.16 L222.78,116.590015 L238.23,116.590015 C239.098073,116.592667 239.93136,116.249007 240.545183,115.635183 C241.159007,115.02136 241.502667,114.188073 241.500015,113.32 L241.500015,91.32 C235.26,91.3 229,91.22 222.78,91.16 Z" id="Path" fill="url(#linearGradient-7)" opacity="0.4" style="mix-blend-mode: multiply;"></path>
            <rect id="Rectangle" fill="#FFE700" x="154.39" y="62.37" width="82.62" height="50.29" rx="3.16"></rect>
            <path d="M185.22,74.56 L185.22,100.47 C185.219552,100.631615 185.307741,100.780467 185.449702,100.85771 C185.591663,100.934954 185.764544,100.928154 185.9,100.84 L205.97,87.84 C206.095832,87.7590193 206.171882,87.6196383 206.171882,87.47 C206.171882,87.3203617 206.095832,87.1809807 205.97,87.1 L185.9,74.1 C185.750689,73.9961551 185.552875,73.9948755 185.402234,74.0967801 C185.251592,74.1986847 185.179172,74.38277 185.22,74.56 L185.22,74.56 Z" id="Path" fill="#023852"></path>
        </g>
    </g>
</svg>