<svg width="53px" height="47px" viewBox="0 0 53 47" version="1.1" xmlns="http://www.w3.org/2000/svg" xmlns:xlink="http://www.w3.org/1999/xlink">
    <!-- Generator: Sketch 52.6 (67491) - http://www.bohemiancoding.com/sketch -->
    <title>Servive icon</title>
    <desc>Created with Sketch.</desc>
    <g id="Page-1" stroke="none" stroke-width="1" fill="none" fill-rule="evenodd">
        <g id="Design-draft" transform="translate(-1070.000000, -2336.000000)" fill="#009CDE">
            <g id="Cards-and-tabs" transform="translate(0.000000, 1143.000000)">
                <g id="Tabs" transform="translate(250.000000, 1144.000000)">
                    <g id="Servive-icon" transform="translate(820.000000, 48.000000)">
                        <g id="Group-3" transform="translate(25.696970, 23.172414)">
                            <path d="M21.1677369,12.3912828 L19.7106364,12.3912828 L19.7106364,9.51299635 C19.7106364,9.16350183 19.7180937,8.84372252 19.7324756,8.5533858 C19.6427218,8.66515862 19.5313952,8.78183854 19.3982294,8.90315294 L18.7952545,9.41240081 L18.0503248,8.47514483 L19.8744304,6.95448925 L21.1677369,6.95448925 L21.1677369,12.3912828 Z M15.5651841,12.4657071 C14.9307821,12.4657071 14.4521841,12.2323473 14.1299228,11.7648097 C13.8079279,11.2972722 13.6470635,10.602645 13.6470635,9.68038296 C13.6470635,8.71341176 13.8044655,8.0043359 14.1192696,7.55315538 C14.4340736,7.10170223 14.9161339,6.87652089 15.5651841,6.87652089 C16.1974555,6.87652089 16.6752545,7.11124381 16.9985811,7.58123489 C17.3219078,8.05068073 17.4835711,8.75048763 17.4835711,9.68038296 C17.4835711,10.6424471 17.3259027,11.3471611 17.011365,11.7945249 C16.6962947,12.2418888 16.2142344,12.4657071 15.5651841,12.4657071 Z M12.4480384,12.3912828 L10.9909379,12.3912828 L10.9909379,9.51299635 C10.9909379,9.16350183 10.9981289,8.84372252 11.0127771,8.5533858 C10.9232897,8.66515862 10.8116967,8.78183854 10.6785309,8.90315294 L10.075556,9.41240081 L9.33062635,8.47514483 L11.1544655,6.95448925 L12.4480384,6.95448925 L12.4480384,12.3912828 Z M8.08818916,12.3912828 L6.63108866,12.3912828 L6.63108866,9.51299635 C6.63108866,9.16350183 6.63827961,8.84372252 6.65292786,8.5533858 C6.56344042,8.66515862 6.45184745,8.78183854 6.31868162,8.90315294 L5.71544042,9.41240081 L4.97104343,8.47514483 L6.7946163,6.95448925 L8.08818916,6.95448925 L8.08818916,12.3912828 Z M16.1263819,19.3609228 L21.3824372,24.7407394 L21.3824372,19.3609228 L24.8615276,19.3609228 C25.8855729,19.3609228 26.7157286,18.5111767 26.7157286,17.4629658 L26.7157286,1.897957 C26.7157286,0.849746045 25.8855729,0 24.8615276,0 L1.85420101,0 C0.830422111,0 0,0.849746045 0,1.897957 L0,17.4629658 C0,18.5111767 0.830422111,19.3609228 1.85420101,19.3609228 L16.1263819,19.3609228 Z" id="Fill-1"></path>
                        </g>
                        <path d="M40.8692711,31.6309011 C40.7941656,31.8639883 40.7563465,32.2906333 40.7563465,32.9102909 C40.7563465,33.5250414 40.7941656,33.9478698 40.8692711,34.1785035 C40.9441103,34.4088646 41.0703515,34.5241814 41.2469294,34.5241814 C41.4264369,34.5241814 41.5526781,34.4050479 41.6267183,34.1673262 C41.7004922,33.9290593 41.7375123,33.5103201 41.7375123,32.9102909 C41.7375123,32.3078082 41.6999595,31.885525 41.624854,31.6439867 C41.5500148,31.4021757 41.4237736,31.2814066 41.2469294,31.2814066 C41.0703515,31.2814066 40.9441103,31.3980865 40.8692711,31.6309011 Z" id="Fill-4"></path>
                        <g id="Group-8" transform="translate(0.000000, 0.189469)">
                            <path d="M20.8180408,10.1451239 L21.9824428,8.95324402 L26.6405835,13.7052246 L26.6328599,13.7131304 L26.6405835,13.7210363 L21.9824428,18.4730168 L20.8180408,17.2811369 L24.3037895,13.7131304 L20.8180408,10.1451239 Z M17.2025885,19.8669057 L15.6424177,19.8669057 L17.9656287,7.48711177 L19.5255332,7.48711177 L17.2025885,19.8669057 Z M14.6937443,17.2811369 L13.5293423,18.4730168 L8.87120158,13.7210363 L8.87120158,13.7052246 L13.5293423,8.95324402 L14.6937443,10.1451239 L11.2079955,13.7131304 L14.6937443,17.2811369 Z M24.0735058,24.1193919 C24.0735058,22.2725412 24.9344881,21.3277728 26.9715814,21.3277728 L35.3333333,21.3277728 L35.3333333,3.94112242 C35.3333333,2.58594514 34.2600168,1.48730011 32.9360821,1.48730011 L2.39746432,1.48730011 C1.07326332,1.48730011 -5.32663334e-05,2.58594514 -5.32663334e-05,3.94112242 L-5.32663334e-05,23.8732627 C-5.32663334e-05,25.2287126 1.07326332,26.3273577 2.39746432,26.3273577 L6.89607236,26.3273577 L6.89607236,33.2831711 L13.6915246,26.3273577 L24.0735058,26.3273577 L24.0735058,24.1193919 Z" id="Fill-6"></path>
                        </g>
                    </g>
                </g>
            </g>
        </g>
    </g>
</svg>