<?xml version="1.0" encoding="UTF-8"?>
<svg width="440px" height="330px" viewBox="0 0 440 330" version="1.1" xmlns="http://www.w3.org/2000/svg" xmlns:xlink="http://www.w3.org/1999/xlink">
    <title>Graphic elements / Icons / Rich icons / service-coding</title>
    <defs>
        <linearGradient x1="0%" y1="49.9841017%" x2="100%" y2="49.9841017%" id="linearGradient-1">
            <stop stop-color="#023852" offset="0%"></stop>
            <stop stop-color="#035D88" stop-opacity="0" offset="100%"></stop>
        </linearGradient>
        <linearGradient x1="0%" y1="50.0139782%" x2="99.9939787%" y2="50.0139782%" id="linearGradient-2">
            <stop stop-color="#023852" offset="0%"></stop>
            <stop stop-color="#035D88" stop-opacity="0" offset="100%"></stop>
        </linearGradient>
        <linearGradient x1="0.00386855855%" y1="49.9827233%" x2="100%" y2="49.9827233%" id="linearGradient-3">
            <stop stop-color="#023852" offset="0%"></stop>
            <stop stop-color="#035D88" stop-opacity="0" offset="100%"></stop>
        </linearGradient>
    </defs>
    <g id="Graphic-elements-/-Icons-/-Rich-icons-/-service-coding" stroke="none" stroke-width="1" fill="none" fill-rule="evenodd">
        <g id="Asset-189" transform="translate(5.000000, 20.000000)">
            <path d="M381.82,0 L189.62,0 C185.133831,0.00551804756 181.5,3.64382733 181.5,8.13 L181.5,139.89 C181.5,144.376173 185.133831,148.014482 189.62,148.02 L223.87,148.02 L223.87,183.66 L241.69,165.84 L259.51,148 L381.82,148 C386.307791,147.99449 389.94449,144.357791 389.95,139.87 L389.95,8.13 C389.94449,3.64220923 386.307791,0.00550987826 381.82,0 Z" id="Path" fill="#0099DA"></path>
            <polygon id="Path" fill="#FFFFFF" points="267.11 50.83 260.08 43.8 231.95 71.84 232 71.89 231.95 71.93 260.08 99.97 267.11 92.94 246.06 71.89"></polygon>
            <polygon id="Path" fill="#FFFFFF" points="304.1 92.94 311.13 99.97 339.27 71.93 339.22 71.89 339.27 71.84 311.13 43.8 304.1 50.83 325.15 71.89"></polygon>
            <polygon id="Path" fill="#FFFFFF" points="282.26 108.19 272.84 108.19 286.87 35.15 296.3 35.15"></polygon>
            <path d="M345.63,187.92 C345.63,187.92 345.63,187.85 345.63,187.81 C345.625291,187.846515 345.625291,187.883485 345.63,187.92 Z" id="Path" fill="#FCE400"></path>
            <path d="M389.9,116.24 L284.09,116.24 C281.179459,116.24 278.82,118.599459 278.82,121.51 L278.82,147.69 L389.9,147.69 L389.9,116.24 Z" id="Path" fill="url(#linearGradient-1)" opacity="0.5"></path>
            <path d="M232.5,146.69 C234.481309,145.831733 235.735086,143.847909 235.66,141.69 C235.637662,141.138076 235.522728,140.59383 235.32,140.08 C235.120942,139.562336 234.851763,139.074448 234.52,138.63 L225.78,126.83 L217,115 C216.542872,114.377367 216.222536,113.665129 216.06,112.91 C215.895229,112.158931 215.895229,111.381069 216.06,110.63 L217.15,105.87 L218.23,101.11 C218.23,100.81 218.23,100.42 218.23,100.02 L218.23,99 L215.43,86.26 L214.23,80.84 C215.012253,80.6621024 215.748242,80.321367 216.39,79.84 L219.5,77.5 L222.61,75.15 C223.559516,74.4166983 224.258272,73.4069959 224.61,72.26 C224.974939,71.1082162 224.974939,69.8717838 224.61,68.72 L222.79,62.89 L221.1,57 C220.805742,56.0820706 220.294654,55.2485507 219.61,54.57 C218.921099,53.8925287 218.076359,53.3946128 217.15,53.12 L182.59,43 L182.59,139.84 C182.59,144.238825 186.141261,147.812507 190.54,147.84 L224,147.84 L224,150.31 L226.54,149.22 L232.5,146.69 Z" id="Path" fill="url(#linearGradient-2)"></path>
            <path d="M56.43,94.25 L56.43,94.25 L61.3,75.25 L66.17,56.25 C66.6198245,54.8377853 67.5458495,53.6254701 68.79,52.82 C70.0460776,51.9026854 71.3623761,51.0708116 72.73,50.33 L72.73,50.33 L90.65,43.45 L108.57,36.57 L108.57,36.57 C109.993661,35.689849 111.501024,34.9529163 113.07,34.37 C114.512836,33.7728108 116.150159,33.8723778 117.51,34.64 L157.13,51.92 L196.76,69.2 L196.81,69.2 L199.62,81.94 L202.42,94.68 L202.42,97 L201.33,101.76 L200.24,106.51 C199.88099,108.029548 200.214278,109.630065 201.15,110.88 L210,122.65 L218.74,134.45 C219.073205,134.895211 219.345602,135.382835 219.55,135.9 C219.745808,136.415445 219.857238,136.959086 219.88,137.51 C219.966541,139.670994 218.709012,141.660755 216.72,142.51 L210.75,145 L204.82,147.53 C202.956636,148.324904 201.704991,150.107434 201.59,152.13 L200.66,168 L199.74,183.84 C199.444753,188.861451 197.031658,193.521495 193.101189,196.660531 C189.170719,199.799568 184.09243,201.122452 179.13,200.3 L176.8,199.91 L174.46,199.53 L174.31,199.53 L174.15,199.53 L169.91,199.08 L165.66,198.63 C161.744046,198.215104 157.787902,198.839395 154.19,200.44 C153.753821,200.631075 153.359627,200.906332 153.03,201.25 C152.697015,201.593715 152.432327,201.997534 152.25,202.44 L145.58,218.61 L138.91,234.77 C138.900663,234.804056 138.874056,234.830663 138.84,234.84 C138.809734,234.860222 138.770266,234.860222 138.74,234.84 L105.89,221.59 L73,208.27 C70.4558958,207.243011 68.9672822,204.58596 69.42,201.88 L72.59,183 L75.72,164.12 L75.72,164.06 L66.35,132.94 L57,101.81 C56.5359463,100.623696 56.2886893,99.3637009 56.27,98.09 C56.1807944,96.8080268 56.2344577,95.5201087 56.43,94.25 Z" id="Path" fill="#33ADE1"></path>
            <path d="M130.36,135.42 L129.47,126.68 L128.58,117.94 C128.57129,117.850471 128.540354,117.764537 128.49,117.69 C128.432863,117.617359 128.356711,117.561976 128.27,117.53 L123.97,115.78 L119.67,114.03 C119.554162,113.985302 119.425838,113.985302 119.31,114.03 C119.195381,114.071894 119.099584,114.153499 119.04,114.26 L117.64,116.77 L116.24,119.28 C116.148897,119.437795 116.148897,119.632205 116.24,119.79 C116.340096,119.943622 116.517582,120.028507 116.7,120.01 L119.35,119.82 L121.99,119.62 C122.094825,119.611852 122.199606,119.636301 122.29,119.69 C122.376309,119.747091 122.445447,119.8266 122.49,119.92 L125.94,127.8 L129.39,135.68 C129.482575,135.909065 129.731203,136.033379 129.97,135.97 C130.225519,135.919462 130.396844,135.67785 130.36,135.42 Z" id="Path" fill="#7FCCEC" style="mix-blend-mode: multiply;"></path>
            <path d="M212.26,134.72 L206.05,126.33 L199.85,117.94 L201.05,130.68 L202.25,143.43 L206.37,141.98 L210.48,140.53 C211.612586,140.134074 212.48909,139.222694 212.840545,138.075528 C213.192,136.928363 212.976436,135.682408 212.26,134.72 L212.26,134.72 Z" id="Path" fill="#7FCCEC" style="mix-blend-mode: multiply;"></path>
            <path d="M174.16,199.47 L158.16,194.37 L142.16,189.27 L135.33,180.58 L128.51,171.89 C127.996581,171.235485 127.141235,170.951894 126.338487,171.170032 C125.535739,171.38817 124.941555,172.065655 124.83,172.89 L120.76,199.36 L116.68,225.82 L127.78,230.33 L138.87,234.83 L145.59,218.55 L152.31,202.26 C152.47744,201.885084 152.715042,201.545653 153.01,201.26 C153.292902,200.959303 153.632844,200.717945 154.01,200.55 C156.147353,199.620619 158.396047,198.971893 160.7,198.62 C161.90433,198.434054 163.127278,198.400457 164.34,198.52 L169.23,199.02 L174.16,199.47 Z" id="Path" fill="#7FCCEC" style="mix-blend-mode: multiply;"></path>
            <path d="M77.12,164.41 C76.3516823,164.694684 75.500356,164.652725 74.7637563,164.293869 C74.0271565,163.935012 73.4693873,163.290489 73.22,162.51 L63.5,130.18 L53.77,97.85 C53.3515437,96.7780564 53.2474738,95.6090044 53.47,94.48 L56.78,78.4 L60.08,62.32 C60.1724225,61.8945698 60.3063987,61.4792435 60.48,61.08 C60.6628871,60.6985938 60.8840207,60.3367387 61.14,60 L68.66,50 L76.17,40 C76.5910093,39.445359 77.1053532,38.9682374 77.69,38.59 C78.2747308,38.2153885 78.9214904,37.9478806 79.6,37.8 L102.74,32.71 L125.89,27.62 C126.855491,27.3990744 127.861886,27.43354 128.81,27.72 L165.06,38.34 L201.32,49 C203.218597,49.542498 204.719942,50.998802 205.32,52.88 L207.14,58.7 L208.96,64.52 C209.702766,66.8862955 208.878197,69.4640746 206.9,70.96 L203.79,73.31 L200.68,75.65 C199.955642,76.1992185 199.113444,76.5723879 198.22,76.74 C197.325067,76.9010638 196.405231,76.8566107 195.53,76.61 L181.53,72.61 L167.53,68.61 C165.297053,67.9707412 162.897166,68.7082208 161.40854,70.4911107 C159.919913,72.2740006 159.622532,74.76697 160.65,76.85 L162.3,80.19 L163.94,83.53 C165.050773,85.7776621 164.608599,88.4829633 162.84,90.26 L156.53,96.59 L150.22,102.92 C149.653586,103.492035 149.208076,104.172203 148.91,104.92 C148.615249,105.6774 148.482397,106.488138 148.52,107.3 L148.95,117.08 L149.38,126.87 L143.73,126.75 L138.07,126.62 L137.23,120.13 L136.39,113.63 C136.234068,112.522076 135.765801,111.481483 135.04,110.63 C134.304888,109.762391 133.331331,109.129579 132.24,108.81 L128.24,107.63 L124.24,106.45 C123.646977,106.271638 123.028961,106.190586 122.41,106.21 C121.789396,106.228484 121.175421,106.343183 120.59,106.55 L117.9,107.55 L115.2,108.55 C113.097628,109.295645 111.603654,111.173784 111.35,113.39 L110.54,120.12 L109.74,126.85 C109.74,127.14 109.58,130.09 109.4,133.85 C109.22,137.61 108.99,142.32 108.78,146.02 C108.56066,149.871724 106.108493,153.239053 102.51,154.63 L89.8,159.63 L77.12,164.41 Z" id="Path" fill="#023852"></path>
            <path d="M53.51,94.81 L56.82,78.73 L60.12,62.64 C60.2092936,62.2169635 60.3433829,61.8046387 60.52,61.41 C60.6987938,61.0170025 60.9201147,60.644781 61.18,60.3 L68.69,50.3 L76.21,40.3 C76.6245704,39.7431301 77.1360729,39.265502 77.72,38.89 C78.3056064,38.5170692 78.9520579,38.2496888 79.63,38.1 L102.78,33 L125.93,28 C126.409525,27.8971607 126.899849,27.8535017 127.39,27.87 C127.8842,27.8871078 128.374476,27.9643431 128.85,28.1 L134.99,29.9 L141.14,31.71 L120.81,36.18 L100.47,40.6 C99.1015039,40.8957177 97.8865132,41.6772907 97.05,42.8 L89.53,52.8 L82,62.76 C81.7422624,63.1062179 81.521082,63.4782031 81.34,63.87 C81.1620506,64.2675881 81.0279266,64.6833723 80.94,65.11 L77.64,81.19 L74.35,97.27 C74.2319222,97.8318698 74.1982189,98.408197 74.25,98.98 C74.304715,99.5493723 74.4393716,100.108197 74.65,100.64 L74.41,130.9 L74.18,161.15 C74.1824721,161.485422 73.9329592,161.769351 73.6,161.81 C73.271355,161.867568 72.9536215,161.663 72.87,161.34 L63.34,129.76 L53.81,98.18 C53.5983297,97.6450609 53.4636534,97.0827874 53.41,96.51 C53.3584714,95.9415156 53.3921769,95.3685225 53.51,94.81 Z" id="Path" fill="url(#linearGradient-3)"></path>
            <polygon id="Path" fill="#EDF0F2" points="167.88 309.17 0 309.17 35.04 241.85 66.31 216.74 143.72 229.73"></polygon>
            <polygon id="Path" fill="#023852" points="143.72 229.73 150.63 239.99 172.82 310 158.31 310 145.08 244.69 139.1 244.26"></polygon>
            <path d="M145,234.29 L142.65,260 C142.59983,260.720681 142.187788,261.366809 141.555514,261.716277 C140.92324,262.065744 140.156928,262.070911 139.52,261.73 L64.32,225.42 L145,234.29 Z" id="Path" fill="#33ADE1"></path>
            <path d="M139.66,257 L62.66,226.32 C62.0844098,226.089494 61.7620638,225.474492 61.9,224.87 L69.3,192.61 C69.3799179,192.248047 69.6139791,191.939073 69.9407753,191.764141 C70.2675715,191.589209 70.6544832,191.565779 71,191.7 L145.05,225.7 C145.561394,225.931392 145.855837,226.475295 145.77,227.03 L141.38,256 C141.324303,256.383517 141.096544,256.720616 140.761512,256.915401 C140.426481,257.110187 140.020847,257.141341 139.66,257 L139.66,257 Z" id="Path" fill="#EDF0F2"></path>
            <path d="M429.42,124.51999 L295.32,124.51999 C293.923229,124.517345 292.582757,125.070349 291.594152,126.057078 C290.605547,127.043808 290.05,128.383227 290.05,129.78 L290.05,171.72 C290.05,173.116773 290.605547,174.456192 291.594152,175.442922 C292.582757,176.429651 293.923229,176.982655 295.32,176.98 L327.37,176.98 C327.37,176.98 335.42,176.51999 338.68,186.16 C338.73009,186.342363 338.895883,186.468757 339.085,186.468757 C339.274117,186.468757 339.43991,186.342363 339.49,186.16 C341.13,177.51999 350.77,177 350.8,176.98 L429.42,176.98 C430.816771,176.982655 432.157243,176.429651 433.145848,175.442922 C434.134453,174.456192 434.69,173.116773 434.69,171.72 L434.69,129.78 C434.69,128.383227 434.134453,127.043808 433.145848,126.057078 C432.157243,125.070349 430.816771,124.517345 429.42,124.51999 L429.42,124.51999 Z" id="Path" fill="#FCE400"></path>
            <path d="M334.91,160.14 L329.61,160.14 L329.61,149.92 C329.61,148.68 329.61,147.54 329.69,146.51 C329.320914,146.95542 328.916249,147.370118 328.48,147.75 L326.28,149.56 L323.58,146.23 L330.21,140.83 L334.91,140.83 L334.91,160.14 Z" id="Path" fill="#003A5D"></path>
            <path d="M350.75,160.14 L345.46,160.14 L345.46,149.92 C345.46,148.68 345.46,147.54 345.54,146.51 C345.16724,146.955377 344.759258,147.370048 344.32,147.75 L342.13,149.56 L339.42,146.23 L346.05,140.83 L350.75,140.83 L350.75,160.14 Z" id="Path" fill="#003A5D"></path>
            <path d="M369.05,150.51 C369.05,153.93 368.48,156.433333 367.34,158.02 C366.102689,159.652707 364.123198,160.54837 362.08,160.4 C360.031863,160.515213 358.066817,159.576064 356.87,157.91 C355.69,156.25 355.11,153.79 355.11,150.51 C355.11,147.23 355.68,144.56 356.83,142.96 C358.138641,141.420776 360.063167,140.542071 362.083409,140.561385 C364.103651,140.580699 366.011027,141.496038 367.29,143.06 C368.47,144.73 369.05,147.21 369.05,150.51 Z M360.3,150.51 C360.230036,152.021696 360.367991,153.535839 360.71,155.01 C360.98,155.83 361.44,156.24 362.08,156.24 C362.72,156.24 363.19,155.82 363.46,154.97 C363.792948,153.508031 363.927491,152.007882 363.86,150.51 C363.930187,149.001606 363.792223,147.490735 363.45,146.02 C363.18,145.16 362.72,144.73 362.08,144.73 C361.44,144.73 360.98,145.14 360.71,145.97 C360.368805,147.457853 360.230882,148.985092 360.3,150.51 L360.3,150.51 Z" id="Shape" fill="#003A5D" fill-rule="nonzero"></path>
            <path d="M382.44,160.14 L377.15,160.14 L377.15,149.92 C377.15,148.68 377.15,147.54 377.23,146.51 C376.85724,146.955377 376.449258,147.370048 376.01,147.75 L373.82,149.56 L371.11,146.23 L377.74,140.83 L382.44,140.83 L382.44,160.14 Z" id="Path" fill="#003A5D"></path>
            <path d="M401.17,150.51 C401.17,153.93 400.59,156.43 399.45,158.02 C398.220644,159.657054 396.241435,160.554296 394.2,160.4 C392.148398,160.518709 390.178763,159.579171 388.98,157.91 C387.81,156.25 387.22,153.79 387.22,150.51 C387.22,147.23 387.8,144.56 388.94,142.96 C390.166859,141.312283 392.151421,140.40678 394.2,140.56 C396.248835,140.439012 398.214971,141.38427 399.4,143.06 C400.58,144.733333 401.17,147.216667 401.17,150.51 Z M392.41,150.51 C392.340036,152.021696 392.477991,153.535839 392.82,155.01 C393.086667,155.83 393.546667,156.24 394.2,156.24 C394.85,156.24 395.31,155.82 395.58,154.97 C395.907794,153.507222 396.042275,152.007762 395.98,150.51 C396.045092,149.001724 395.907191,147.491542 395.57,146.02 C395.3,145.16 394.84,144.73 394.2,144.73 C393.56,144.73 393.09,145.14 392.82,145.97 C392.478805,147.457853 392.340882,148.985092 392.41,150.51 Z" id="Shape" fill="#003A5D" fill-rule="nonzero"></path>
        </g>
    </g>
</svg>