<?xml version="1.0" encoding="UTF-8"?>
<svg width="440px" height="330px" viewBox="0 0 440 330" version="1.1" xmlns="http://www.w3.org/2000/svg" xmlns:xlink="http://www.w3.org/1999/xlink">
    <title>Graphic elements / Icons / Rich icons / Sign up</title>
    <g id="Graphic-elements-/-Icons-/-Rich-icons-/-Sign-up" stroke="none" stroke-width="1" fill="none" fill-rule="evenodd">
        <g id="Asset-216" transform="translate(70.000000, 0.000000)" fill-rule="nonzero">
            <path d="M287.28,272.56 L286.76,270.56 L286.24,268.56 L285.73,266.56 L285.21,264.56 L284.7,262.56 L284.18,260.56 L283.67,258.56 L283.15,256.56 L282.64,254.56 L282.12,252.56 L281.61,250.56 L281.09,248.56 L280.58,246.56 L280.58,246.56 L280.58,79.32 L280.8,79.32 L280.8,79.23 C280.8,79.1 280.73,78.98 280.7,78.85 L280.64,78.46 C280.64,78.33 280.64,78.19 280.64,78.06 L280.64,68.26 C280.629768,68.126863 280.629768,67.993137 280.64,67.86 C280.64,67.86 280.64,67.86 280.64,67.79 L279.77,67.79 L279.37,67.79 C279.238681,67.8002058 279.108314,67.8202623 278.98,67.85 C278.851041,67.8739193 278.724028,67.9073438 278.6,67.95 C278.476969,67.9844297 278.356643,68.0278808 278.24,68.08 L277.9,68.24 L277.57,68.44 L277.27,68.66 C277.171935,68.7414277 277.078459,68.8282274 276.99,68.92 C276.901468,69.0085586 276.818002,69.1020404 276.74,69.2 C276.655468,69.2937165 276.578557,69.3940355 276.51,69.5 C276.437545,69.6029381 276.370779,69.7097645 276.31,69.82 C276.25068,69.9338358 276.197275,70.0506579 276.15,70.17 C276.094722,70.2853445 276.05117,70.4059499 276.02,70.53 C275.977396,70.6506388 275.943967,70.7743242 275.92,70.9 C275.890262,71.0283141 275.870206,71.158681 275.86,71.29 C275.86,71.42 275.86,71.56 275.86,71.69 L275.86,81.6 C275.865678,81.6263645 275.865678,81.6536355 275.86,81.68 L275.86,81.76 C275.86,81.76 275.86,81.82 275.86,81.84 C275.86,81.86 275.86,81.9 275.86,81.92 C275.86,81.94 275.86,81.98 275.86,82.01 C275.86,82.04 275.86,82.01 275.86,82.09 C275.86,82.17 275.86,82.09 275.86,82.16 C275.86,82.23 275.86,82.22 275.86,82.24 C275.86,82.26 275.86,82.3 275.86,82.32 C275.855524,82.3464789 275.855524,82.3735211 275.86,82.4 L275.86,82.48 L275.86,82.55 L275.86,82.63 L275.86,82.71 L275.86,82.78 L275.62,82.78 L275.62,250.08 L275.62,250.08 L276.14,252.08 L276.65,254.08 L277.17,256.08 L277.68,258.08 L278.2,260.08 L278.71,262.08 L279.23,264.08 L279.74,266.08 L280.26,268.08 L280.77,270.08 L281.29,272.08 L281.8,274.08 L282.32,276.08 L282.83,278.08 L283.35,280.08 L283.86,282.08 L283.86,282.08 L283.86,282.08 L283.86,282.08 L283.86,282.08 L283.86,282.08 L283.86,282.08 L283.86,282.08 L283.86,282.08 L283.86,282.08 L283.86,282.08 L283.86,282.08 L283.86,282.08 L283.86,282.08 C283.877288,282.148631 283.900716,282.215567 283.93,282.28 C283.952034,282.340538 283.98232,282.397745 284.02,282.45 C284.054089,282.501425 284.094394,282.548447 284.14,282.59 C284.178625,282.631894 284.222291,282.668842 284.27,282.7 L284.42,282.8 L284.58,282.86 L284.75,282.86 L284.92,282.86 C284.979593,282.869885 285.040407,282.869885 285.1,282.86 L285.26,282.86 L285.43,282.79 L285.58,282.7 C285.627709,282.668842 285.671375,282.631894 285.71,282.59 C285.757873,282.550703 285.798487,282.50332 285.83,282.45 C285.868854,282.396767 285.90235,282.339823 285.93,282.28 C285.959287,282.219022 285.982725,282.155404 286,282.09 L286.24,281.23 L286.47,280.36 L286.71,279.5 L286.95,278.64 L287.19,277.77 L287.42,276.91 L287.66,276.05 L287.81,275.49 L287.52,274.35 L287.28,272.56 Z" id="Path" fill="#023852" opacity="0.3" style="mix-blend-mode: multiply;"></path>
            <path d="M299.1,246.64 L280.58,246.64 L281.09,248.64 L281.61,250.64 L282.12,252.64 L282.64,254.64 L283.15,256.64 L283.67,258.64 L284.18,260.64 L284.7,262.64 L285.21,264.64 L285.73,266.64 L286.24,268.64 L286.76,270.64 L287.28,272.64 L287.79,274.64 L288.08,275.78 L288.31,276.64 L288.82,278.64 L288.82,278.64 L288.72,278.29 L288.57,277.7 L288.42,277.11 L288.27,276.51 L288.11,275.92 L288.11,275.74 L288,275.33 L287.85,274.74 L287.7,274.15 L287.54,273.56 L287.39,272.97 L287.24,272.38 L287.09,271.78 L286.93,271.19 L286.78,270.6 L286.63,270.01 L286.47,269.42 L287.7,269.42 L287.81,269.42 L287.93,269.42 L288.04,269.42 L288.15,269.42 L288.26,269.42 L288.37,269.42 L288.47,269.42 L288.57,269.37 L288.67,269.31 L288.76,269.25 L288.85,269.18 L288.94,269.1 C288.971499,269.078649 288.998649,269.051499 289.02,269.02 L289.13,268.89 L289.22,268.76 C289.22,268.71 289.27,268.67 289.29,268.62 C289.31,268.57 289.34,268.52 289.37,268.48 L289.43,268.33 L289.5,268.19 C289.5,268.14 289.5,268.09 289.57,268.05 C289.589269,268.001409 289.612689,267.95457 289.64,267.91 L289.72,267.78 C289.743325,267.741016 289.770099,267.704202 289.8,267.67 L289.91,267.56 L290.02,267.47 L290.15,267.4 L290.3,267.35 L290.3,267.35 C290.359827,267.343553 290.420173,267.343553 290.48,267.35 L290.92,267.35 L291.04,267.35 L291.15,267.35 L291.26,267.35 L291.37,267.35 L291.48,267.35 L291.59,267.35 L291.7,267.35 L291.81,267.35 L291.92,267.35 L292.03,267.35 L292.39,267.35 C292.43321,267.354631 292.47679,267.354631 292.52,267.35 L292.63,267.35 L292.73,267.35 L292.83,267.35 L292.93,267.35 L293.03,267.29 L293.12,267.23 L293.21,267.17 L293.3,267.1 L293.38,267.03 C293.409127,267.005913 293.435913,266.979127 293.46,266.95 C293.51337,266.896659 293.566721,266.843308 293.620055,266.789974 L293.700055,266.709974 L293.770055,266.629974 L293.850055,266.539974 L293.920055,266.459974 L293.980055,266.379974 L294.050055,266.309974 L294.110055,266.229974 L294.170055,266.149974 L294.230055,266.069974 L294.290055,265.989974 L294.350055,265.909974 L294.410055,265.829974 C294.422874,265.797993 294.439673,265.767754 294.460055,265.739974 L294.520055,265.659974 L294.570055,265.579974 L294.570055,265.579974 L294.800055,264.729974 L295.350055,262.729974 L295.900055,260.729974 L296.450055,258.729974 L297.000055,256.729974 L297.550055,254.729974 L298.100055,252.729974 L298.640055,250.729974 L299.190055,248.729974 L299.740055,246.729974 L299.740055,246.729974 L299.740055,246.729974 L299.1,246.64 Z" id="Path" fill="#D7D4CD"></path>
            <path d="M294.51,265.53 L294.45,265.61 C294.429618,265.63778 294.412819,265.668018 294.4,265.7 L294.34,265.78 L294.28,265.86 L294.22,265.94 L294.16,266.02 L294.1,266.1 L294.04,266.18 L293.97,266.25 L293.91,266.33 L293.84,266.41 L293.76,266.5 L293.69,266.58 L293.61,266.66 C293.556716,266.713341 293.503364,266.766693 293.450031,266.820026 C293.425944,266.849153 293.399158,266.875939 293.370031,266.900026 L293.290031,266.970026 L293.200031,267.040026 L293.110031,267.100026 L293.020031,267.160026 L292.920031,267.220026 L292.820031,267.220026 L292.720031,267.220026 L292.620031,267.220026 L292.510031,267.220026 C292.466821,267.224657 292.423241,267.224657 292.380031,267.220026 L292,267.220026 L291.89,267.220026 L291.78,267.220026 L291.67,267.220026 L291.56,267.220026 L291.45,267.220026 L291.34,267.220026 L291.23,267.220026 L291.12,267.220026 L291.01,267.220026 L290.89,267.220026 L290.45,267.220026 C290.390173,267.213579 290.329827,267.213579 290.27,267.220026 L290.27,267.220026 L290.12,267.270026 L289.99,267.340026 L289.88,267.430026 L289.77,267.540026 C289.740099,267.574228 289.713325,267.611042 289.69,267.650026 L289.61,267.780026 C289.582689,267.824596 289.559269,267.871436 289.54,267.920026 C289.54,267.920026 289.49,268.010026 289.47,268.060026 L289.4,268.200026 L289.34,268.350026 C289.34,268.350026 289.29,268.440026 289.26,268.490026 C289.23,268.540026 289.26,268.580026 289.19,268.630026 L289.1,268.760026 L288.99,268.890026 C288.968649,268.921526 288.941499,268.948675 288.91,268.970026 L288.82,269.050026 L288.73,269.120026 L288.64,269.180026 L288.54,269.240026 L288.44,269.290026 L288.34,269.290026 L288.23,269.290026 L288.12,269.290026 L288.01,269.290026 L287.9,269.290026 L287.78,269.290026 L287.67,269.290026 L286.44,269.290026 L286.6,269.880026 L286.75,270.470026 L286.9,271.060026 L287.06,271.650026 L287.21,272.250026 L287.36,272.840026 L287.51,273.430026 L287.67,274.020026 L287.82,274.610026 L287.97,275.200026 L288.08,275.610026 L288.08,275.790026 L288.24,276.380026 L288.39,276.980026 L288.54,277.570026 L288.69,278.160026 L288.79,278.510026 L288.85,278.750026 C288.86399,278.815103 288.884079,278.878717 288.91,278.940026 C288.93765,278.99985 288.971146,279.056793 289.01,279.110026 C289.041055,279.160842 289.077975,279.207831 289.12,279.250026 L289.26,279.370026 L289.41,279.460026 L289.57,279.530026 L289.74,279.530026 L290.08,279.530026 L290.25,279.530026 L290.42,279.470026 L290.57,279.380026 C290.617976,279.345369 290.661621,279.305081 290.7,279.260026 C290.747873,279.22073 290.788487,279.173346 290.82,279.120026 C290.859101,279.070522 290.892636,279.016866 290.92,278.960026 C290.947702,278.898389 290.971092,278.834903 290.99,278.770026 L291.23,277.900026 L291.46,277.040026 L291.7,276.180026 L291.94,275.310026 L292.17,274.450026 L292.41,273.580026 L292.65,272.720026 L292.89,271.860026 L293.12,270.990026 L293.36,270.130026 L293.6,269.270026 L293.83,268.400026 L294.07,267.540026 L294.31,266.680026 L294.55,265.810026 L294.78,264.950026 L294.73,265.030026 C294.726697,265.059935 294.726697,265.090117 294.73,265.120026 L294.67,265.200026 L294.62,265.290026 L294.57,265.360026 L294.57,265.360026 L294.51,265.53 Z" id="Path" fill="#023852"></path>
            <path d="M280.66,68.26 L280.66,78.06 C280.66,78.19 280.66,78.33 280.66,78.46 L280.72,78.85 C280.72,78.98 280.78,79.1 280.82,79.23 L280.82,79.32 L299.3,79.32 L299.3,79.23 C299.342656,79.1059719 299.376081,78.9789588 299.4,78.85 C299.429738,78.7216859 299.449794,78.591319 299.46,78.46 C299.46,78.33 299.46,78.19 299.46,78.06 L299.46,68.26 C299.46,68.12 299.46,67.99 299.46,67.86 L299.4,67.47 C299.4,67.34 299.34,67.21 299.3,67.09 C299.26,66.97 299.22,66.85 299.17,66.73 C299.119378,66.613744 299.062631,66.5002516 299,66.39 C298.942633,66.2766709 298.879208,66.1665116 298.81,66.06 L298.58,65.76 C298.501998,65.6620404 298.418532,65.5685586 298.33,65.48 L298.05,65.23 C297.950914,65.147768 297.847428,65.0709879 297.74,65 L297.42,64.8 L297.08,64.64 C296.963357,64.5878808 296.843031,64.5444297 296.72,64.51 L296.34,64.41 C296.211686,64.3802623 296.081319,64.3602058 295.95,64.35 L295.55,64.35 L284.55,64.35 L284.15,64.35 L283.76,64.41 L283.38,64.51 L283.02,64.64 C282.903744,64.6906225 282.790252,64.7473687 282.68,64.81 L282.35,65 L282.05,65.23 L281.77,65.48 C281.681468,65.5685586 281.598002,65.6620404 281.52,65.76 L281.29,66.06 C281.22,66.17 281.15,66.28 281.09,66.39 C281.030685,66.5004208 280.977276,66.613914 280.93,66.73 C280.88,66.85 280.83,66.97 280.79,67.09 C280.75,67.21 280.72,67.34 280.7,67.47 C280.677696,67.5757092 280.661006,67.6825255 280.65,67.79 C280.65,67.79 280.65,67.79 280.65,67.86 C280.643093,67.9933928 280.646508,68.127119 280.66,68.26 Z" id="Path" fill="#0099DA"></path>
            <polygon id="Path" fill="#023852" points="299.34 79.33 299.19 79.33 298.59 79.33 297.99 79.33 297.38 79.33 296.78 79.33 296.18 79.33 295.58 79.33 294.98 79.33 294.78 79.33 294.38 79.33 293.77 79.33 293.17 79.33 292.57 79.33 291.97 79.33 291.37 79.33 290.77 79.33 290.27 79.33 290.17 79.33 289.67 79.33 289.06 79.33 288.46 79.33 287.86 79.33 287.26 79.33 286.66 79.33 286.06 79.33 285.45 79.33 284.85 79.33 284.25 79.33 283.65 79.33 283.05 79.33 282.45 79.33 281.85 79.33 281.24 79.33 280.86 79.33 280.64 79.33 280.64 89.78 280.63 100.24 280.63 110.69 280.62 121.15 280.62 131.61 280.61 142.06 280.61 152.52 280.6 162.98 280.59 173.43 280.59 183.89 280.58 194.35 280.58 204.8 280.57 215.26 280.57 225.72 280.56 236.17 280.56 246.63 280.58 246.63 281.16 246.63 281.76 246.63 282.36 246.63 282.96 246.63 283.56 246.63 284.17 246.63 284.77 246.63 285.37 246.63 285.97 246.63 286.57 246.63 287.17 246.63 287.78 246.63 288.38 246.63 288.98 246.63 289.58 246.63 290.08 246.63 290.18 246.63 290.68 246.63 291.29 246.63 291.89 246.63 292.49 246.63 293.09 246.63 293.69 246.63 294.29 246.63 294.89 246.64 294.94 246.64 295.5 246.64 296.1 246.64 296.7 246.64 297.3 246.64 297.9 246.64 298.5 246.64 299.11 246.64 299.71 246.64 299.71 246.61 299.71 236.18 299.72 225.72 299.72 215.27 299.73 204.81 299.73 194.36 299.74 183.9 299.74 173.44 299.75 162.99 299.75 152.53 299.76 142.07 299.76 131.62 299.77 121.16 299.77 110.7 299.78 100.25 299.79 89.79 299.79 79.33"></polygon>
            <path d="M229.59,319.88 C229.120371,320.02909 228.643004,320.152605 228.16,320.25 C227.68,320.34 227.16,320.42 226.68,320.47 C226.2,320.52 225.68,320.55 225.16,320.55 L23.16,320.55 C22.65,320.55 22.16,320.55 21.64,320.47 C21.12,320.39 20.64,320.34 20.16,320.25 C19.676996,320.152605 19.1996285,320.02909 18.73,319.88 C18.26,319.74 17.8,319.57 17.36,319.39 C16.92,319.21 16.48,318.99 16.05,318.76 C15.6285954,318.538493 15.2211647,318.291362 14.83,318.02 C14.4320676,317.75697 14.0482069,317.473247 13.68,317.17 C13.31,316.87 12.96,316.55 12.62,316.22 C12.2681922,315.888072 11.9343824,315.537572 11.62,315.17 C11.3170912,314.796968 11.0365977,314.406281 10.78,314 C10.4996223,313.617071 10.2392733,313.219872 10,312.81 C9.76612524,312.392076 9.55579708,311.961404 9.37,311.52 C9.18,311.08 9.02,310.63 8.87,310.17 C8.72,309.71 8.6,309.23 8.5,308.75 C8.40079935,308.264222 8.32736342,307.773536 8.28,307.28 C8.22796418,306.778332 8.2012636,306.274358 8.2,305.77 L8.2,34.77 C8.20144889,34.265647 8.22814898,33.7616827 8.28,33.26 C8.32810167,32.7665546 8.40153185,32.2759075 8.5,31.79 C8.6,31.31 8.73,30.84 8.87,30.38 C9.01,29.92 9.18,29.46 9.37,29.02 C9.56,28.58 9.77,28.15 10,27.73 L10.18,27.43 L10.08,27.43 C9.63,27.62 9.2,27.83 8.77,28.06 C8.35071014,28.2852283 7.94348725,28.5322323 7.55,28.8 C7.15,29.07 6.77,29.36 6.4,29.66 C5.66957736,30.259707 4.99970695,30.9295774 4.4,31.66 C4.0903683,32.0256108 3.80317534,32.4096479 3.54,32.81 C3.26896248,33.2033528 3.01862254,33.6105724 2.79,34.03 C2.56,34.46 2.35,34.89 2.16,35.34 C1.97,35.79 1.81,36.24 1.66,36.7 C1.51,37.16 1.39,37.7 1.29,38.13 C1.19152221,38.6192669 1.11809326,39.1132435 1.07,39.61 C1.07,40.11 0.99,40.61 0.99,41.13 L0.99,314.4 C0.99,314.92 0.99,315.4 1.07,315.93 C1.11809326,316.426757 1.19152221,316.920733 1.29,317.41 C1.39,317.89 1.52,318.41 1.66,318.83 C1.8,319.25 1.97,319.76 2.16,320.2 C2.34777599,320.643756 2.55804879,321.077652 2.79,321.5 C3.0163185,321.923979 3.26672834,322.334651 3.54,322.73 C3.80317534,323.130352 4.0903683,323.514389 4.4,323.88 C4.71429209,324.250824 5.04809752,324.604658 5.4,324.94 C5.74,325.27 6.09,325.59 6.46,325.94 C6.83,326.29 7.21,326.53 7.61,326.8 C8.01,327.07 8.41,327.31 8.83,327.54 C9.25,327.77 9.69,327.98 10.14,328.17 C10.59,328.36 11.04,328.52 11.51,328.67 C11.98,328.82 12.45,328.94 12.94,329.04 C13.4291402,329.139201 13.9231544,329.212635 14.42,329.26 C14.92,329.26 15.42,329.34 15.94,329.34 L217.94,329.34 C218.46,329.34 218.94,329.34 219.47,329.26 C219.966846,329.212635 220.46086,329.139201 220.95,329.04 C221.44,328.94 221.95,328.81 222.38,328.67 C222.81,328.53 223.3,328.36 223.75,328.17 C224.193756,327.982224 224.627652,327.771951 225.05,327.54 C225.48,327.31 225.89,327.06 226.28,326.8 C226.67,326.54 227.06,326.24 227.43,325.94 C227.8,325.64 228.15,325.31 228.49,324.94 C229.164495,324.261916 229.773836,323.522003 230.31,322.73 C230.583272,322.334651 230.833682,321.923979 231.06,321.5 C231.291951,321.077652 231.502224,320.643756 231.69,320.2 C231.87,319.76 232.04,319.3 232.19,318.83 L232.19,318.83 C231.8,319.04 231.4,319.23 230.98,319.41 C230.56,319.59 230.06,319.74 229.59,319.88 Z" id="Path" fill="#023852" opacity="0.3" style="mix-blend-mode: multiply;"></path>
            <path d="M83.92,19.06 L83.92,10.19 C83.9002354,9.85695965 83.9002354,9.52304035 83.92,9.19 L83.81,9.19 C83.4909288,9.28679378 83.177163,9.40028352 82.87,9.53 C82.56,9.66 82.27,9.81 81.98,9.96 C81.69,10.11 81.41,10.29 81.14,10.47 C80.8666727,10.6529177 80.6029873,10.8498474 80.35,11.06 C80.1033333,11.2666667 79.8633333,11.4866667 79.63,11.72 C79.3943839,11.9452033 79.1739038,12.1857271 78.97,12.44 C78.5520897,12.946935 78.1837382,13.4927649 77.87,14.07 C77.7107012,14.3586845 77.5671575,14.6557865 77.44,14.96 C77.31,15.26 77.19,15.58 77.09,15.89 C76.99,16.2 76.91,16.54 76.84,16.89 C76.77,17.24 76.72,17.56 76.69,17.89 C76.6698353,18.2397096 76.6698353,18.5902904 76.69,18.94 L76.69,19.94 L83.92,19.94 L83.92,19.06 Z" id="Path" fill="#023852" opacity="0.3" style="mix-blend-mode: multiply;"></path>
            <path d="M239.77,31.75 C239.67,31.27 239.54,30.8 239.4,30.34 C239.26,29.88 239.08,29.42 238.9,28.98 C238.72,28.54 238.5,28.11 238.27,27.69 C238.041377,27.2705724 237.791038,26.8633528 237.52,26.47 C237.25,26.08 236.97,25.7 236.66,25.33 C236.35,24.96 236.04,24.62 235.66,24.33 C235.28,24.04 234.97,23.68 234.6,23.33 C234.23,22.98 233.85,22.75 233.45,22.48 C233.05,22.21 232.65,21.97 232.22,21.74 C231.797496,21.5113529 231.363598,21.3044171 230.92,21.12 C230.47,20.93 230.02,20.77 229.55,20.62 C229.08,20.47 228.61,20.36 228.12,20.26 C227.631036,20.1574603 227.137022,20.0806878 226.64,20.03 C226.14,19.98 225.64,19.96 225.12,19.96 L158,19.96 L158,25.96 C158,26.06 158,26.16 158,26.26 C158,26.36 158,26.76 158,27 C158,27.24 158,27.21 157.95,27.32 L183,27.32 L183,46.32 L219.38,46.32 L219.38,138.84 L216.62,138.84 L216.62,293.49 L29.59,293 L29.59,46.43 L32.2,46.43 L32.2,46.35 L59.2,46.35 L59.2,27.35 L84,27.35 C84,27.24 84,27.14 84,27.03 C83.9813426,26.6969277 83.9813426,26.3630723 84,26.03 L84,20 L23.14,20 C22.63,20 22.14,20 21.62,20.07 C21.1229783,20.1206878 20.6289637,20.1974603 20.14,20.3 C19.65,20.4 19.14,20.52 18.71,20.66 C18.28,20.8 17.78,20.97 17.34,21.16 C16.9,21.35 16.46,21.55 16.03,21.78 C15.6,22.01 15.2,22.26 14.81,22.52 C14.42,22.78 14.03,23.07 13.66,23.37 C13.29,23.67 12.94,23.99 12.6,24.37 C12.26,24.75 11.94,25.06 11.6,25.37 C11.26,25.68 11.01,26.12 10.74,26.51 C10.47,26.9 10.35,27.12 10.17,27.43 L9.99,27.73 C9.76333333,28.15 9.55333333,28.58 9.36,29.02 C9.17,29.46 9.01,29.92 8.86,30.38 C8.71,30.84 8.59,31.31 8.49,31.79 C8.39153185,32.2759075 8.31810167,32.7665546 8.27,33.26 C8.21814898,33.7616827 8.19,34.265647 8.19,34.77 L8.19,305.77 C8.19,306.274358 8.21796418,306.778332 8.27,307.28 C8.31736342,307.773536 8.39079935,308.264222 8.49,308.75 C8.59,309.23 8.72,309.7 8.86,310.17 C9,310.64 9.17,311.08 9.36,311.52 C9.54905272,311.961625 9.76272147,312.392301 10,312.81 C10.2392733,313.219872 10.4996223,313.617071 10.78,314 C11.0440496,314.396545 11.331213,314.777204 11.64,315.14 C11.9543824,315.507572 12.2881922,315.858072 12.64,316.19 C12.98,316.52 13.33,316.84 13.7,317.14 C14.0682069,317.443247 14.4520676,317.72697 14.85,317.99 C15.2411647,318.261362 15.6485954,318.508493 16.07,318.73 C16.5,318.96 16.93,319.17 17.38,319.36 C17.83,319.55 18.28,319.71 18.75,319.85 C19.2196285,319.99909 19.696996,320.122605 20.18,320.22 C20.66,320.31 21.18,320.39 21.66,320.44 C22.14,320.49 22.66,320.52 23.18,320.52 L225.18,320.52 C225.69,320.52 226.18,320.52 226.7,320.44 C227.22,320.36 227.7,320.31 228.18,320.22 C228.663004,320.122605 229.140371,319.99909 229.61,319.85 C230.08,319.71 230.53,319.54 230.98,319.36 C231.43,319.18 231.8,318.99 232.19,318.78 L232.28,318.73 C232.705914,318.510806 233.116816,318.263597 233.51,317.99 C233.907932,317.72697 234.291793,317.443247 234.66,317.14 C235.03,316.84 235.38,316.52 235.72,316.19 C236.071808,315.858072 236.405618,315.507572 236.72,315.14 C237.028787,314.777204 237.31595,314.396545 237.58,314 C237.851038,313.606647 238.101377,313.199428 238.33,312.78 C238.563875,312.362076 238.774203,311.931404 238.96,311.49 C239.14,311.05 239.31,310.6 239.46,310.14 C239.61,309.68 239.73,309.2 239.83,308.72 C239.93,308.24 240,307.72 240.05,307.25 C240.102036,306.748332 240.13,306.244358 240.13,305.74 L240.13,34.74 C240.13,34.235647 240.101851,33.7316827 240.05,33.23 C239.94,32.72 239.86,32.24 239.77,31.75 Z" id="Path" fill="#023852"></path>
            <polygon id="Path" fill="#023852" opacity="0.3" style="mix-blend-mode: multiply;" points="193.22 293.49 181.54 293.49 169.85 293.49 158.17 293.49 146.48 293.49 134.8 293.49 123.11 293.49 111.43 293.49 99.74 293.49 88.06 293.49 76.37 293.49 64.69 293.49 53 293.49 41.32 293.49 29.64 293.49 29.64 279.55 29.64 265.6 29.64 251.65 29.64 237.71 29.64 223.76 29.64 209.81 29.64 195.87 29.64 181.92 29.64 164.98 29.64 148.04 29.64 131.1 29.64 114.17 29.64 97.23 29.64 80.29 29.64 63.35 29.64 55.43 20.94 55.43 20.94 72.37 20.94 89.31 20.94 106.25 20.94 123.19 20.94 140.12 20.94 157.06 20.94 174 20.94 190.94 20.94 204.88 20.94 218.83 20.94 232.78 20.94 246.72 20.94 260.67 20.94 274.62 20.94 288.56 20.94 302.51 32.62 302.51 44.31 302.51 55.99 302.51 67.68 302.51 79.36 302.51 91.05 302.51 102.73 302.51 114.42 302.51 126.1 302.51 137.79 302.51 149.47 302.51 161.16 302.51 172.84 302.51 184.53 302.51 196.21 302.51 207.9 302.51 207.9 293.49 204.91 293.49"></polygon>
            <path d="M77.09,222.63 C76.99,223.15 76.88,223.68 76.78,224.21 L76.45,225.8 C76.33,226.32 76.22,226.8 76.1,227.38 L77.46,225.74 L78.82,224.1 L80.18,222.45 L81.54,220.81 L81.54,220.81 L81.54,220.81 L81.54,220.81 L81.54,220.81 L80.54,220.88 L79.48,220.95 L78.48,221.03 L77.42,221.11 C77.29,221.57 77.19,222.1 77.09,222.63 Z" id="Path" fill="#FFFFFF"></path>
            <path d="M81.27,227.87 L83.16,226 L85.06,224.11 L87,222.2 L88.9,220.32 L87.33,220.4 L85.76,220.49 L84.17,220.58 L82.58,220.69 C82.6550669,220.735969 82.7225379,220.793319 82.78,220.86 C82.8325633,220.927472 82.8762533,221.001409 82.91,221.08 C82.9204577,221.163005 82.9204577,221.246995 82.91,221.33 C82.9069787,221.415491 82.8900922,221.499923 82.86,221.58 C82.67,222.09 82.5,222.58 82.33,223.11 C82.16,223.64 82.03,224.11 81.89,224.67 C81.75,225.23 81.65,225.72 81.54,226.25 C81.43,226.78 81.34,227.32 81.27,227.87 Z" id="Path" fill="#FFFFFF"></path>
            <path d="M172.57,138.86 L32.24,138.86 L32.24,46.42 L29.63,46.42 L29.63,293.49 L216.63,293.49 L216.63,138.86 L172.63,138.86 L172.57,138.86 Z M50.66,223.86 L45.93,224.51 C45.8570079,224.520005 45.7829921,224.520005 45.71,224.51 C45.6440423,224.52375 45.5759577,224.52375 45.51,224.51 C45.4459902,224.48446 45.3855015,224.450855 45.33,224.41 C45.2705743,224.370409 45.2195907,224.319426 45.18,224.26 C45.1326386,224.207228 45.0953554,224.14622 45.07,224.08 C45.0408373,224.012948 45.0206627,223.942337 45.01,223.87 C44.9705049,223.739591 44.9705049,223.600409 45.01,223.47 C45.0300753,223.411662 45.0605692,223.357451 45.1,223.31 C45.1346574,223.262024 45.1749453,223.218379 45.22,223.18 C45.2688071,223.142582 45.3226775,223.11228 45.38,223.09 L45.57,223.09 C47.27,222.85 48.97,222.61 50.69,222.39 C52.41,222.17 54.15,221.94 55.89,221.73 C57.63,221.52 59.37,221.32 61.12,221.13 C62.87,220.94 64.63,220.75 66.39,220.58 C67.34,219.32 68.39,218.11 69.39,216.93 C70.39,215.75 71.56,214.6 72.68,213.48 C73.8,212.36 74.94,211.29 76.07,210.25 C77.2,209.21 78.32,208.19 79.4,207.25 L79.55,207.11 L79.69,206.98 L79.84,206.85 L79.99,206.71 C80.0522232,206.655209 80.1232118,206.611263 80.2,206.58 C80.2753797,206.54304 80.35657,206.519359 80.44,206.51 C80.5197099,206.500365 80.6002901,206.500365 80.68,206.51 C80.7648091,206.530358 80.8458273,206.564115 80.92,206.61 C80.9941446,206.648987 81.0589643,206.703572 81.11,206.77 C81.1656741,206.82778 81.2097982,206.895663 81.24,206.97 C81.2717353,207.0466 81.2919545,207.127477 81.3,207.21 C81.3095005,207.293063 81.3095005,207.376937 81.3,207.46 C81.11,208.26 80.9,209.06 80.68,209.86 C80.46,210.66 80.2,211.44 79.93,212.23 C79.66,213.02 79.37,213.79 79.06,214.56 C78.75,215.33 78.42,216.1 78.06,216.85 C78.06,217.09 77.99,217.32 77.95,217.55 C77.91,217.78 77.88,218.01 77.84,218.24 C77.8,218.47 77.77,218.71 77.73,218.94 L77.61,219.63 L80.9,219.39 L84.2,219 L87.38,218.82 L90.5,218.66 L90.5,218.66 L90.5,218.66 L90.5,218.66 L90.5,218.66 C90.5392966,218.612127 90.5866802,218.571513 90.64,218.54 L90.81,218.47 C90.8661956,218.459667 90.9238044,218.459667 90.98,218.47 C91.0429446,218.460076 91.1070554,218.460076 91.17,218.47 L91.28,218.47 L91.39,218.52 C91.4283295,218.530158 91.4629998,218.55096 91.49,218.58 L91.58,218.65 L95.17,218.5 L98.8,218.38 L102.47,218.28 C103.69,218.28 104.92,218.23 106.15,218.22 L106.15,218.22 L106.15,218.22 L106.15,218.22 L106.23,218.07 C106.23,218.01 106.23,217.96 106.3,217.91 C106.37,217.86 106.35,217.81 106.37,217.75 C106.400531,217.702159 106.427279,217.652006 106.45,217.6 C106.72,217.07 107,216.54 107.3,216.02 C107.6,215.5 107.91,215.02 108.23,214.49 C108.55,213.96 108.9,213.49 109.23,213 C109.56,212.51 109.95,212 110.32,211.57 C110.55,211.29 110.81,210.97 111.11,210.64 C111.416365,210.308294 111.750955,210.003817 112.11,209.73 C112.46524,209.458969 112.869222,209.258675 113.3,209.14 C113.744093,209.010556 114.215907,209.010556 114.66,209.14 C114.83221,209.195992 114.999455,209.266235 115.16,209.35 C115.482221,209.518908 115.765077,209.754053 115.99,210.04 C116.105957,210.189455 116.206471,210.350277 116.29,210.52 C116.549185,211.02907 116.711925,211.581708 116.77,212.15 C116.837927,212.814936 116.837927,213.485064 116.77,214.15 C116.704427,214.848438 116.600941,215.542795 116.46,216.23 C116.31,216.92 116.14,217.6 115.95,218.23 L118.59,218.23 L118.76,218.16 L119,218 L119.16,217.94 L119.33,217.88 C119.376095,217.869667 119.423905,217.869667 119.47,217.88 L119.61,217.88 C119.656495,217.874347 119.703505,217.874347 119.75,217.88 L119.89,217.88 L119.96,217.88 L120.03,217.94 L120.1,218 L120.16,218.07 L124.3,218.14 C125.69,218.14 127.07,218.21 128.45,218.26 C129.83,218.31 131.21,218.35 132.58,218.41 C133.95,218.47 135.32,218.52 136.69,218.59 C136.772343,218.592207 136.853626,218.609141 136.93,218.64 C137.004114,218.66821 137.074609,218.705136 137.14,218.75 C137.203473,218.800157 137.257631,218.861084 137.3,218.93 C137.349231,218.995013 137.383389,219.07016 137.4,219.15 C137.419485,219.228814 137.419485,219.311186 137.4,219.39 C137.411218,219.469607 137.411218,219.550393 137.4,219.63 C137.369998,219.70836 137.32964,219.782351 137.28,219.85 C137.230117,219.916502 137.169242,219.973996 137.1,220.02 C135.845019,220.907047 134.45328,221.582649 132.98,222.02 C131.53225,222.440635 130.036972,222.675847 128.53,222.72 C126.953879,222.771537 125.376112,222.704682 123.81,222.52 C122.21,222.34 120.57,222.08 118.92,221.79 L118.77,221.79 C118.71827,221.773377 118.670584,221.746128 118.63,221.71 C118.583817,221.684877 118.54304,221.650896 118.51,221.61 C118.473072,221.568169 118.442725,221.520962 118.42,221.47 C118.392368,221.411762 118.368973,221.351606 118.35,221.29 C118.345101,221.226761 118.345101,221.163239 118.35,221.1 C118.340142,221.033698 118.340142,220.966302 118.35,220.9 C118.360946,220.837352 118.381168,220.776686 118.41,220.72 L118.53,220.48 L118.63,220.24 C118.63,220.15 118.63,220.07 118.71,219.99 C118.732427,219.907923 118.749134,219.824389 118.76,219.74 C118.38,219.9 118,220.06 117.63,220.24 C117.26,220.42 116.9,220.6 116.54,220.8 C116.18,221 115.83,221.21 115.54,221.43 C115.25,221.65 114.86,221.88 114.54,222.12 C114.151369,222.90591 113.720747,223.670348 113.25,224.41 C112.77,225.14 112.25,225.84 111.71,226.52 C111.150859,227.19087 110.556699,227.831762 109.93,228.44 C109.295721,229.05621 108.628047,229.637086 107.93,230.18 C107.877745,230.21768 107.820538,230.247966 107.76,230.27 C107.704647,230.300296 107.643048,230.317407 107.58,230.32 L107.4,230.32 L107.23,230.27 L107.23,230.27 L107.23,230.27 L107.23,230.27 L107.23,230.27 C106.797935,230.752294 106.307495,231.178909 105.77,231.54 C105.50638,231.724488 105.228886,231.88831 104.94,232.03 C104.645803,232.18036 104.341776,232.310657 104.03,232.42 C103.973804,232.430333 103.916196,232.430333 103.86,232.42 C103.800423,232.43007 103.739577,232.43007 103.68,232.42 L103.5,232.36 C103.442678,232.33772 103.388807,232.307418 103.34,232.27 C103.28865,232.232001 103.241694,232.188398 103.2,232.14 C103.157535,232.092949 103.123685,232.038789 103.1,231.98 C103.069658,231.927532 103.049314,231.86989 103.04,231.81 C103.029556,231.747097 103.029556,231.682903 103.04,231.62 C103.04,231.19 103.04,230.75 103.13,230.31 C103.22,229.87 103.22,229.42 103.27,228.98 C103.32,228.54 103.39,228.1 103.47,227.65 C103.55,227.2 103.62,226.77 103.71,226.33 L103.45,226.48 L103.19,226.64 L102.93,226.81 L102.68,227 C102.601812,227.049938 102.517869,227.090231 102.43,227.12 C102.347362,227.135223 102.262638,227.135223 102.18,227.12 C102.09657,227.110641 102.01538,227.08696 101.94,227.05 C101.859792,227.011594 101.788318,226.957137 101.73,226.89 C101.663389,226.823479 101.609204,226.745587 101.57,226.66 C101.537284,226.569266 101.513831,226.475455 101.5,226.38 C101.480331,226.280967 101.480331,226.179033 101.5,226.08 C101.531961,225.97807 101.58285,225.883079 101.65,225.8 C101.749875,225.674824 101.843329,225.544656 101.93,225.41 C102.006526,225.281828 102.073378,225.148124 102.13,225.01 C102.179174,224.876187 102.219265,224.73921 102.25,224.6 C102.264741,224.460388 102.264741,224.319612 102.25,224.18 L101.3,225.39 L100.3,226.6 L99.3,227.81 L98.3,229.01 C98.2453263,229.08845 98.1735121,229.153424 98.09,229.2 C98.0091812,229.24479 97.9212138,229.27524 97.83,229.29 C97.7406183,229.304919 97.6493817,229.304919 97.56,229.29 C97.4645375,229.25907 97.37371,229.215339 97.29,229.16 C97.2047086,229.099688 97.1303116,229.025291 97.07,228.94 C97.0173047,228.857394 96.9800345,228.765912 96.96,228.67 C96.9349002,228.578354 96.9349002,228.481646 96.96,228.39 C96.9737723,228.290795 97.0078115,228.195485 97.06,228.11 C97.4239651,227.569334 97.7385657,226.997028 98,226.4 C98.2587754,225.825075 98.4694955,225.229707 98.63,224.62 C98.7915275,224.017482 98.8986243,223.401675 98.95,222.78 C99.0001615,222.144321 99.0001615,221.505679 98.95,220.87 C98.25,221.24 97.57,221.64 96.95,222.07 C96.33,222.5 95.64,222.94 95.02,223.42 C94.4,223.9 93.8,224.42 93.21,224.94 C92.62,225.46 92.08,226.02 91.54,226.6 C91.4895816,226.660491 91.4285909,226.711316 91.36,226.75 L91.15,226.83 C91.0736712,226.840179 90.9963288,226.840179 90.92,226.83 C90.8444193,226.819409 90.7704927,226.799247 90.7,226.77 C90.6237342,226.742128 90.5527326,226.701555 90.49,226.65 C90.4268442,226.603454 90.3726368,226.545858 90.33,226.48 C90.28686,226.418705 90.2531521,226.351289 90.23,226.28 C90.2202724,226.203642 90.2202724,226.126358 90.23,226.05 L90.23,224.8 L90.23,223.56 L90.23,222.32 L90.23,221.07 L87.86,223.43 L85.49,225.8 L83.11,228.16 L80.74,230.52 C80.6850452,230.574462 80.6206706,230.618507 80.55,230.65 C80.4808144,230.686926 80.4067445,230.713861 80.33,230.73 L80.09,230.73 C80.0095004,230.721897 79.931365,230.698117 79.86,230.66 C79.7868302,230.632001 79.7191381,230.591385 79.66,230.54 C79.6052225,230.490531 79.5580474,230.433247 79.52,230.37 C79.4799629,230.30832 79.4496108,230.240871 79.43,230.17 C79.4200519,230.093656 79.4200519,230.016344 79.43,229.94 C79.43,229.51 79.49,229.07 79.54,228.64 C79.59,228.21 79.64,227.78 79.7,227.35 C79.76,226.92 79.84,226.49 79.92,226.07 C80,225.65 80.1,225.22 80.2,224.8 L79,226.34 L77.74,227.87 L76.47,229.4 L75.21,230.92 C75.1568329,230.987095 75.0925713,231.044592 75.02,231.09 C74.9505056,231.12864 74.8766507,231.158853 74.8,231.18 C74.7202901,231.189635 74.6397099,231.189635 74.56,231.18 C74.4772577,231.162401 74.3967534,231.135566 74.32,231.1 C74.2357709,231.058456 74.1582432,231.004524 74.09,230.94 C74.0310349,230.873198 73.9806448,230.799293 73.94,230.72 C73.8985002,230.638611 73.8714324,230.55064 73.86,230.46 C73.8446555,230.374013 73.8446555,230.285987 73.86,230.2 L74.37,228.01 C74.54,227.27 74.7,226.52 74.86,225.77 C75.02,225.02 75.18,224.25 75.33,223.48 C75.48,222.71 75.64,221.94 75.78,221.16 L75.78,221.16 L75.5,221.63 L75.23,222.07 L74.96,222.5 L74.69,222.92 L74.42,223.58 L74.16,224.23 L73.9,224.89 L73.63,225.54 C73.5993584,225.628331 73.5518065,225.709849 73.49,225.78 C73.4355879,225.849678 73.3675338,225.907524 73.29,225.95 C73.2191793,226.000344 73.1364612,226.031364 73.05,226.04 C72.9639943,226.055137 72.8760057,226.055137 72.79,226.04 L72.72,226.04 L72.65,226.04 L72.59,226.04 L72.53,226.04 L71.9,226.84 L71.25,227.63 L70.58,228.41 C70.36,228.67 70.13,228.92 69.9,229.18 L69.27,230.02 L68.65,230.83 L68.03,231.62 L67.4,232.38 L67.28,232.52 C67.2422945,232.57767 67.1987298,232.631288 67.15,232.68 L67.02,232.85 L66.89,233.02 C66.61,233.38 66.3,233.76 65.97,234.15 C65.6618276,234.532506 65.3277055,234.893358 64.97,235.23 C64.6119409,235.555512 64.2116774,235.831324 63.78,236.05 C63.3656837,236.253426 62.9115048,236.362702 62.45,236.37 L62.19,236.37 C62.0409418,236.358774 61.8934701,236.331961 61.75,236.29 C61.6121039,236.248869 61.4782222,236.195316 61.35,236.13 C61.2304821,236.059142 61.1167902,235.978889 61.01,235.89 C60.9040598,235.798793 60.8099907,235.694645 60.73,235.58 C60.5738196,235.357665 60.4555517,235.110992 60.38,234.85 C60.3140149,234.594984 60.2771132,234.333318 60.27,234.07 C60.2541549,233.836936 60.2541549,233.603064 60.27,233.37 C60.27,233.16 60.33,232.98 60.36,232.85 C60.5622031,231.950547 60.8125636,231.062602 61.11,230.19 C61.4156544,229.288333 61.769497,228.403727 62.17,227.54 C62.57,226.66 63.03,225.77 63.54,224.88 C64.05,223.99 64.61,223.1 65.23,222.2 L60.34,222.72 C58.71,222.9 57.1,223.09 55.49,223.29 L50.66,223.86 Z M96.23,261.1 L96.23,266.97 L53.33,266.97 L53.33,260.71 L96.23,260.71 L96.23,261.1 Z M139.14,245.69 L139.14,251.56 L53.33,251.56 L53.33,245.3 L139.14,245.3 L139.14,245.69 Z M176.32,191 L176.32,196.85 L53.32,196.85 L53.32,190.61 L176.32,190.61 L176.32,191 Z M176.32,175.72 L176.32,181.57 L53.32,181.57 L53.32,175.3 L176.32,175.3 L176.32,175.72 Z M176.32,160.44 L176.32,166.3 L53.32,166.3 L53.32,160 L176.32,160 L176.32,160.44 Z" id="Shape" fill="#FFFFFF"></path>
            <path d="M63.84,227.88 C63.69,228.17 63.56,228.47 63.42,228.76 C63.28,229.05 63.16,229.36 63.04,229.66 C62.92,229.96 62.8,230.26 62.68,230.55 C62.56,230.84 62.46,231.15 62.36,231.45 C62.3655947,231.483099 62.3655947,231.516901 62.36,231.55 L62.36,231.66 C62.3582754,231.696646 62.3582754,231.733354 62.36,231.77 C62.3639824,231.803214 62.3639824,231.836786 62.36,231.87 C62.331007,231.955005 62.2976289,232.03845 62.26,232.12 L62.17,232.37 C62.17,232.45 62.17,232.54 62.11,232.61 C62.1060437,232.686616 62.1060437,232.763384 62.11,232.84 C62.095214,232.96958 62.095214,233.10042 62.11,233.23 C62.1382938,233.35491 62.1819599,233.475832 62.24,233.59 C62.2958539,233.705307 62.366444,233.812873 62.45,233.91 C62.5284436,234.005892 62.6232387,234.087145 62.73,234.15 C62.7834267,234.191658 62.8446178,234.222253 62.91,234.24 C62.9835198,234.27055 63.0609257,234.290743 63.14,234.3 C63.2330884,234.309563 63.3269116,234.309563 63.42,234.3 C63.5250686,234.274067 63.6260311,234.233682 63.72,234.18 C63.9063312,234.076036 64.0807057,233.951962 64.24,233.81 C64.4,233.67 64.57,233.51 64.73,233.34 C64.89,233.17 65.04,232.98 65.19,232.79 L65.63,232.24 L65.77,232.06 L65.91,231.88 L66.05,231.71 L66.18,231.55 L66.18,231.55 L66.34,231.36 C66.34,231.3 66.44,231.23 66.5,231.17 L66.65,230.98 L66.81,230.79 C66.8002869,230.723687 66.8002869,230.656313 66.81,230.59 C66.8011084,230.526979 66.8011084,230.463021 66.81,230.4 C66.8245178,230.336934 66.848096,230.276304 66.88,230.22 C66.9177055,230.16233 66.9612702,230.108712 67.01,230.06 L67.47,229.6 C67.62,229.45 67.78,229.29 67.93,229.12 L68.41,228.62 L68.91,228.08 C69.2833333,227.573333 69.6533333,227.053333 70.02,226.52 C70.39,225.98 70.75,225.44 71.11,224.88 C71.47,224.32 71.82,223.75 72.17,223.17 C72.52,222.59 72.87,222.01 73.17,221.41 L71.78,221.53 L70.38,221.66 L68.98,221.79 L67.59,221.92 C67.22,222.43 66.87,222.92 66.59,223.43 C66.31,223.94 65.94,224.43 65.59,224.92 C65.24,225.41 65.01,225.92 64.74,226.4 C64.47,226.88 64.08,227.38 63.84,227.88 Z" id="Path" fill="#FFFFFF"></path>
            <path d="M71.34,220 L72.65,219.89 L73.96,219.78 L73.96,219.78 L73.96,219.78 L73.96,219.78 L73.96,219.78 L74.03,219.64 C74.0592486,219.596533 74.0827756,219.549479 74.1,219.5 C74.1,219.5 74.1,219.41 74.18,219.36 L74.26,219.22 C74.39,218.96 74.53,218.7 74.65,218.44 C74.77,218.18 74.91,217.94 75.02,217.7 L75.37,216.99 C75.48,216.76 75.59,216.53 75.69,216.3 L75.77,216.17 C75.8336876,216.096289 75.9078038,216.03228 75.99,215.98 L76.12,215.92 L76.2,215.92 L76.45,215.92 L76.54,215.79 L76.64,215.67 L76.74,215.55 L76.84,215.43 L76.9,215.36 L76.96,215.36 L77.02,215.36 L77.08,215.36 C77.28,214.91 77.46,214.46 77.65,214 C77.84,213.54 78,213.08 78.17,212.61 C78.34,212.14 78.5,211.68 78.65,211.2 C78.8,210.72 78.95,210.26 79.09,209.78 C78.15,210.64 77.22,211.5 76.3,212.37 C75.38,213.24 74.49,214.11 73.61,215 C72.73,215.89 71.88,216.79 71.05,217.72 C70.22,218.65 69.42,219.58 68.65,220.55 L69.95,220.43 L71.34,220 Z" id="Path" fill="#FFFFFF"></path>
            <path d="M106.88,223.65 C107.085531,223.619624 107.292459,223.599599 107.5,223.59 L108.12,223.59 L108.12,223.59 C108.218708,223.59117 108.3166,223.608048 108.41,223.64 C108.49243,223.68055 108.569657,223.730916 108.64,223.79 C108.707394,223.858125 108.764646,223.935584 108.81,224.02 C108.852123,224.115225 108.879115,224.216445 108.89,224.32 C108.89,224.42 108.89,224.52 108.89,224.62 C108.89,224.72 108.89,224.82 108.89,224.93 C108.89,225.04 108.89,225.13 108.89,225.23 L108.89,225.53 C109.19,225.12 109.51,224.71 109.89,224.32 C110.27,223.93 110.57,223.55 110.89,223.18 C111.21,222.81 111.63,222.46 112.02,222.12 C112.41,221.78 112.81,221.46 113.23,221.12 L113.38,220.79 L113.52,220.47 C113.52,220.36 113.61,220.25 113.65,220.14 C113.69,220.03 113.74,219.93 113.78,219.83 L113.78,219.83 L113.78,219.83 L113.78,219.75 L108.78,219.75 L107,219.75 C106.86,220.07 106.73,220.4 106.6,220.75 C106.47,221.1 106.35,221.42 106.23,221.75 C106.11,222.08 106,222.44 105.89,222.75 C105.78,223.06 105.68,223.46 105.58,223.82 L106.19,223.7 L106.88,223.65 Z" id="Path" fill="#FFFFFF"></path>
            <path d="M111.13,218.14 L114.42,218.14 C114.5,217.86 114.57,217.58 114.64,217.29 C114.71,217 114.78,216.73 114.83,216.45 C114.88,216.17 114.94,215.89 114.99,215.61 C115.04,215.33 115.07,215.06 115.1,214.79 L115.16,214.23 C115.16,214.05 115.16,213.86 115.16,213.67 C115.16,213.48 115.16,213.3 115.16,213.11 C115.16,212.92 115.16,212.74 115.16,212.56 C115.16,212.38 115.16,212.16 115.16,212 C115.16,211.84 115.16,211.71 115.09,211.6 C115.071946,211.515278 115.048566,211.431779 115.02,211.35 C115.005315,211.298034 114.985204,211.247758 114.96,211.2 L114.52,211.12 L114.09,211.03 L113.65,210.95 L113.21,210.86 L113,211 L112.84,211.14 L112.67,211.27 L112.5,211.41 C112.04,211.86 111.59,212.34 111.16,212.85 C110.73,213.36 110.32,213.85 109.92,214.45 C109.52,215.05 109.15,215.61 108.78,216.23 C108.41,216.85 108.08,217.5 107.78,218.17 L111.12,218.17 L111.13,218.14 Z" id="Path" fill="#FFFFFF"></path>
            <path d="M127.22,221.27 C128.364713,221.286058 129.508749,221.205775 130.64,221.03 C131.752237,220.861264 132.840082,220.559085 133.88,220.13 L130.47,220 L127.07,219.89 L123.69,219.8 L120.35,219.74 L120.35,219.93 C120.35,220 120.35,220.06 120.35,220.12 C120.35,220.18 120.35,220.25 120.35,220.32 L120.29,220.51 C121.46,220.71 122.64,220.9 123.82,221.03 C124.948296,221.170025 126.083222,221.250138 127.22,221.27 L127.22,221.27 Z" id="Path" fill="#FFFFFF"></path>
            <path d="M94.47,221.87 C94.94,221.52 95.47,221.19 95.92,220.87 C96.37,220.55 96.92,220.24 97.42,219.95 L96,220 L94.59,220.06 L93.23,220.11 L91.91,220.17 L91.91,221.17 L91.91,222.17 L91.91,223.17 L91.91,224.17 C92.34,223.77 92.77,223.38 93.22,223 C93.67,222.62 94,222.22 94.47,221.87 Z" id="Path" fill="#FFFFFF"></path>
            <path d="M100.36,223.94 L100.75,223.45 L101.13,222.96 L101.51,222.47 L101.9,221.98 L102.01,221.87 C102.052745,221.834298 102.099774,221.804065 102.15,221.78 L102.3,221.73 L102.54,221.73 L102.74,221.73 C102.801433,221.74997 102.858948,221.78042 102.91,221.82 C102.966429,221.851226 103.017149,221.891802 103.06,221.94 C103.099019,221.985967 103.132576,222.036303 103.16,222.09 C103.259217,222.284325 103.346056,222.484724 103.42,222.69 C103.490473,222.885828 103.547276,223.086309 103.59,223.29 C103.627081,223.491831 103.653782,223.695432 103.67,223.9 C103.685021,224.099718 103.685021,224.300282 103.67,224.5 L103.74,224.5 L103.82,224.5 L103.89,224.5 L103.96,224.5 L104.29,223.31 C104.41,222.92 104.53,222.52 104.66,222.14 C104.79,221.76 104.93,221.36 105.07,220.98 C105.21,220.6 105.36,220.23 105.52,219.85 L104.26,219.85 L103,219.85 L101.74,219.85 L100.48,219.85 C100.48,220.2 100.55,220.54 100.57,220.85 C100.59,221.16 100.57,221.53 100.57,221.85 C100.57,222.17 100.57,222.53 100.51,222.85 C100.45,223.17 100.42,223.61 100.36,223.94 Z" id="Path" fill="#FFFFFF"></path>
            <path d="M105.37,225.5 L105.24,225.55 C105.15,225.95 105.07,226.35 104.99,226.75 C104.91,227.15 104.85,227.55 104.79,227.95 C104.73,228.35 104.67,228.76 104.62,229.16 C104.57,229.56 104.53,229.97 104.49,230.37 C104.864437,230.14082 105.216045,229.876277 105.54,229.58 C105.858472,229.278206 106.143455,228.942932 106.39,228.58 C106.634094,228.230354 106.838677,227.854727 107,227.46 C107.16189,227.060788 107.279266,226.644942 107.35,226.22 C107.382258,226.047985 107.405622,225.874421 107.42,225.7 C107.42,225.56 107.42,225.46 107.42,225.38 C107.430776,225.327211 107.430776,225.272789 107.42,225.22 C107.425927,225.197043 107.425927,225.172957 107.42,225.15 C107.348108,225.129437 107.271892,225.129437 107.2,225.15 C107.070103,225.142689 106.939897,225.142689 106.81,225.15 C106.66,225.15 106.49,225.21 106.32,225.25 L105.83,225.37 L105.7,225.37 L105.57,225.37 L105.37,225.5 Z" id="Path" fill="#FFFFFF"></path>
            <polygon id="Path" fill="#0099DA" points="128.41 245.27 123.05 245.27 117.69 245.27 112.32 245.27 106.96 245.27 101.6 245.27 98.92 245.27 90.87 245.27 85.51 245.27 80.14 245.27 74.78 245.27 69.42 245.27 64.05 245.27 58.69 245.27 53.33 245.27 53.33 245.66 53.33 246.05 53.33 246.44 53.33 246.83 53.33 247.22 53.33 247.62 53.33 248.01 53.33 248.4 53.33 248.79 53.33 249.18 53.33 249.57 53.33 249.96 53.33 250.35 53.33 250.75 53.33 251.14 53.33 251.53 58.69 251.53 64.05 251.53 69.42 251.53 74.78 251.53 80.14 251.53 85.51 251.53 90.87 251.53 96.23 251.53 101.6 251.53 106.96 251.53 112.32 251.53 117.69 251.53 123.05 251.53 128.41 251.53 133.78 251.53 139.14 251.53 139.14 251.14 139.14 250.75 139.14 250.35 139.14 249.96 139.14 249.57 139.14 249.18 139.14 248.79 139.14 248.4 139.14 248.01 139.14 247.62 139.14 247.22 139.14 246.83 139.14 246.44 139.14 246.05 139.14 245.66 139.14 245.27 133.78 245.27"></polygon>
            <polygon id="Path" fill="#0099DA" points="90.87 260.68 88.19 260.68 85.51 260.68 82.83 260.68 80.14 260.68 77.46 260.68 74.78 260.68 72.1 260.68 69.42 260.68 66.74 260.68 64.05 260.68 61.37 260.68 58.69 260.68 56.01 260.68 53.33 260.68 53.33 261.07 53.33 261.46 53.33 261.85 53.33 262.24 53.33 262.63 53.33 263.02 53.33 263.41 53.33 263.81 53.33 264.2 53.33 264.59 53.33 264.98 53.33 265.37 53.33 265.76 53.33 266.15 53.33 266.54 53.33 266.94 56.01 266.94 58.69 266.94 61.37 266.94 64.05 266.94 66.74 266.94 69.42 266.94 72.1 266.94 74.78 266.94 80.14 266.94 82.83 266.94 85.51 266.94 88.19 266.94 90.87 266.94 93.55 266.94 96.23 266.94 96.23 266.54 96.23 266.15 96.23 265.76 96.23 265.37 96.23 264.98 96.23 264.59 96.23 264.2 96.23 263.81 96.23 263.41 96.23 263.02 96.23 262.63 96.23 262.24 96.23 261.85 96.23 261.46 96.23 261.07 96.23 260.68 93.55 260.68"></polygon>
            <polygon id="Path" fill="#9DADB7" points="160.94 190.58 153.26 190.58 145.57 190.58 137.88 190.58 130.2 190.58 122.51 190.58 114.82 190.58 107.14 190.58 99.45 190.58 91.76 190.58 84.08 190.58 76.39 190.58 68.7 190.58 61.02 190.58 53.33 190.58 53.33 190.97 53.33 191.36 53.33 191.75 53.33 192.14 53.33 192.53 53.33 192.92 53.33 193.31 53.33 193.7 53.33 194.09 53.33 194.48 53.33 194.87 53.33 195.26 53.33 195.65 53.33 196.04 53.33 196.43 53.33 196.82 61.02 196.82 68.7 196.82 76.39 196.82 84.08 196.82 91.76 196.82 99.45 196.82 107.14 196.82 114.82 196.82 122.51 196.82 130.2 196.82 137.88 196.82 145.57 196.82 153.26 196.82 160.94 196.82 168.63 196.82 176.32 196.82 176.32 196.43 176.32 196.04 176.32 195.65 176.32 195.26 176.32 194.87 176.32 194.48 176.32 194.09 176.32 193.7 176.32 193.31 176.32 192.92 176.32 192.53 176.32 192.14 176.32 191.75 176.32 191.36 176.32 190.97 176.32 190.58 168.63 190.58"></polygon>
            <polygon id="Path" fill="#9DADB7" points="160.94 175.3 153.26 175.3 145.57 175.3 137.88 175.3 130.2 175.3 122.51 175.3 114.82 175.3 107.14 175.3 99.45 175.3 91.76 175.3 84.08 175.3 76.39 175.3 68.7 175.3 61.02 175.3 53.33 175.3 53.33 175.69 53.33 176.08 53.33 176.47 53.33 176.86 53.33 177.25 53.33 177.64 53.33 178.03 53.33 178.42 53.33 178.81 53.33 179.2 53.33 179.59 53.33 179.98 53.33 180.37 53.33 180.76 53.33 181.15 53.33 181.54 61.02 181.54 68.7 181.54 76.39 181.54 84.08 181.54 91.76 181.54 99.45 181.54 107.14 181.54 114.82 181.54 122.51 181.54 130.2 181.54 137.88 181.54 145.57 181.54 153.26 181.54 160.94 181.54 168.63 181.54 176.32 181.54 176.32 181.15 176.32 180.76 176.32 180.37 176.32 179.98 176.32 179.59 176.32 179.2 176.32 178.81 176.32 178.42 176.32 178.03 176.32 177.64 176.32 177.25 176.32 176.86 176.32 176.47 176.32 176.08 176.32 175.69 176.32 175.3 168.63 175.3"></polygon>
            <polygon id="Path" fill="#9DADB7" points="160.94 160.02 153.26 160.02 145.57 160.02 137.88 160.02 130.2 160.02 122.51 160.02 114.82 160.02 107.14 160.02 99.45 160.02 91.76 160.02 84.08 160.02 76.39 160.02 68.7 160.02 61.02 160.02 53.33 160.02 53.33 160.41 53.33 160.8 53.33 161.19 53.33 161.58 53.33 161.97 53.33 162.37 53.33 162.75 53.33 163.15 53.33 163.53 53.33 163.93 53.33 164.31 53.33 164.71 53.33 165.1 53.33 165.49 53.33 165.88 53.33 166.27 61.02 166.27 68.7 166.27 76.39 166.27 84.08 166.27 91.76 166.27 99.45 166.27 107.14 166.27 114.82 166.27 122.51 166.27 130.2 166.27 137.88 166.27 145.57 166.27 153.26 166.27 160.94 166.27 168.63 166.27 176.32 166.27 176.32 165.88 176.32 165.49 176.32 165.1 176.32 164.71 176.32 164.31 176.32 163.93 176.32 163.53 176.32 163.15 176.32 162.75 176.32 162.37 176.32 161.97 176.32 161.58 176.32 161.19 176.32 160.8 176.32 160.41 176.32 160.02 168.63 160.02"></polygon>
            <polygon id="Path" fill="#0099DA" points="182.97 47.21 182.97 48.55 182.97 49.7 182.97 51.03 182.97 52.19 182.97 53.52 182.97 54.67 182.97 55.43 182.97 56.01 182.97 57.16 182.97 58.49 182.97 59.65 182.97 60.98 182.97 62.13 182.97 63.47 182.97 64.62 182.97 65.95 182.97 67.11 182.97 68.44 182.97 70.93 182.97 73.41 182.97 75.9 182.97 78.39 175.24 78.39 167.5 78.39 159.77 78.39 152.03 78.39 144.3 78.39 136.56 78.39 128.83 78.39 121.09 78.39 113.36 78.39 105.63 78.39 97.89 78.39 90.16 78.39 82.42 78.39 74.69 78.39 66.95 78.39 59.22 78.39 59.22 75.9 59.22 73.41 59.22 70.93 59.22 68.44 59.22 67.11 59.22 65.95 59.22 64.62 59.22 63.47 59.22 62.13 59.22 60.98 59.22 59.65 59.22 58.49 59.22 57.16 59.22 56.01 59.22 55.43 59.22 54.67 59.22 53.52 59.22 52.19 59.22 51.03 59.22 49.7 59.22 48.55 59.22 47.21 59.22 46.42 59.22 46.34 32.24 46.34 32.24 46.42 32.24 55.43 32.24 69.47 32.24 92.6 32.24 115.73 32.24 138.86 79.02 138.86 125.8 138.86 172.57 138.86 207.9 138.86 216.59 138.86 219.35 138.86 219.35 115.73 219.35 92.6 219.35 69.47 219.35 46.34 182.97 46.34 182.97 46.42"></polygon>
            <path d="M83.92,11.18 L83.92,26 C83.9013426,26.3330723 83.9013426,26.6669277 83.92,27 C83.92,27.11 83.92,27.21 83.92,27.32 L59.22,27.32 L59.22,67.1 L183,67.1 L183,27.32 L157.91,27.32 C157.91,27.21 157.91,27.11 157.96,27 C158.01,26.89 157.96,26.51 157.96,26.26 C157.96,26.01 157.96,26.06 157.96,25.96 L157.96,10.19 C157.96,9.84 157.96,9.49 157.96,9.19 C157.96,8.89 157.87,8.51 157.8,8.19 C157.73,7.87 157.65,7.53 157.55,7.19 C157.453208,6.87420022 157.339715,6.56376313 157.21,6.26 C157.08,5.95 156.93,5.65 156.78,5.36 C156.63,5.07 156.45,4.8 156.27,4.52 C156.09,4.24 155.89,3.99 155.68,3.74 C155.47,3.49 155.25,3.25 155.02,3.02 C154.791123,2.7845202 154.547282,2.56406176 154.29,2.36 C154.041048,2.14913826 153.780653,1.95217227 153.51,1.77 C153.243333,1.59 152.963333,1.42 152.67,1.26 C152.38,1.1 152.08,0.96 151.78,0.83 C151.48,0.7 151.16,0.59 150.84,0.49 C150.512182,0.385979087 150.178202,0.302484006 149.84,0.24 C149.51,0.17 149.17,0.12 148.84,0.08 C148.51,0.04 148.15,0.08 147.84,0.08 L94.12,0.08 C93.77,0.08 93.42,0.08 93.12,0.13 C92.82,0.18 92.44,0.22 92.12,0.29 C91.7817084,0.352070731 91.4477023,0.435572263 91.12,0.54 C90.8009288,0.636793782 90.487163,0.750283519 90.18,0.88 C89.8757865,1.00715752 89.5786845,1.15070116 89.29,1.31 C88.9966667,1.47 88.7166667,1.64 88.45,1.82 C88.1743793,1.99965438 87.9105093,2.19672184 87.66,2.41 C87.4081393,2.61670029 87.1677799,2.83702977 86.94,3.07 C86.7043839,3.29520332 86.4839038,3.5357271 86.28,3.79 C86.0691383,4.03895164 85.8721723,4.29934735 85.69,4.57 C85.51,4.85 85.33,5.13 85.18,5.41 C85.0206704,5.70209206 84.8771307,6.00252404 84.75,6.31 C84.6159181,6.61201602 84.5023277,6.92271901 84.41,7.24 C84.31,7.56 84.22,7.89 84.15,8.24 C84.08,8.59 84.03,8.91 84,9.24 L84,9.24 C83.9802354,9.57304035 83.9802354,9.90695965 84,10.24 L83.92,11.18 Z" id="Path" fill="#9DADB7"></path>
            <polygon id="Path" fill="#0099DA" points="59.22 70.93 59.22 73.41 59.22 75.9 59.22 78.39 66.95 78.39 74.69 78.39 82.42 78.39 90.16 78.39 97.89 78.39 105.63 78.39 113.36 78.39 121.09 78.39 128.83 78.39 136.56 78.39 144.3 78.39 152.03 78.39 159.77 78.39 167.5 78.39 175.24 78.39 182.97 78.39 182.97 75.9 182.97 73.41 182.97 70.93 182.97 68.44 182.97 67.11 175.24 67.11 167.5 67.11 159.77 67.11 152.03 67.11 144.3 67.11 136.56 67.11 128.83 67.11 121.09 67.11 113.36 67.11 105.63 67.11 97.89 67.11 90.16 67.11 82.42 67.11 74.69 67.11 66.95 67.11 59.22 67.11 59.22 68.44"></polygon>
            <polygon id="Path" fill="#023852" opacity="0.3" style="mix-blend-mode: multiply;" points="59.22 70.93 59.22 73.41 59.22 75.9 59.22 78.39 66.95 78.39 74.69 78.39 82.42 78.39 90.16 78.39 97.89 78.39 105.63 78.39 113.36 78.39 121.09 78.39 128.83 78.39 136.56 78.39 144.3 78.39 152.03 78.39 159.77 78.39 167.5 78.39 175.24 78.39 182.97 78.39 182.97 75.9 182.97 73.41 182.97 70.93 182.97 68.44 182.97 67.11 175.24 67.11 167.5 67.11 159.77 67.11 152.03 67.11 144.3 67.11 136.56 67.11 128.83 67.11 121.09 67.11 113.36 67.11 105.63 67.11 97.89 67.11 90.16 67.11 82.42 67.11 74.69 67.11 66.95 67.11 59.22 67.11 59.22 68.44"></polygon>
            <path d="M60.31,222.65 L65.2,222.13 C64.58,223.03 64.02,223.92 63.51,224.81 C63,225.7 62.51,226.59 62.14,227.47 C61.739497,228.333727 61.3856544,229.218333 61.08,230.12 C60.7825636,230.992602 60.5322031,231.880547 60.33,232.78 C60.33,232.91 60.27,233.09 60.24,233.3 C60.2241549,233.533064 60.2241549,233.766936 60.24,234 C60.2471132,234.263318 60.2840149,234.524984 60.35,234.78 C60.4255517,235.040992 60.5438196,235.287665 60.7,235.51 C60.7799907,235.624645 60.8740598,235.728793 60.98,235.82 C61.0867902,235.908889 61.2004821,235.989142 61.32,236.06 C61.4482222,236.125316 61.5821039,236.178869 61.72,236.22 C61.8634701,236.261961 62.0109418,236.288774 62.16,236.3 L62.42,236.3 C62.8815048,236.292702 63.3356837,236.183426 63.75,235.98 C64.1816774,235.761324 64.5819409,235.485512 64.94,235.16 C65.2977055,234.823358 65.6318276,234.462506 65.94,234.08 C66.27,233.69 66.58,233.31 66.86,232.95 L66.99,232.78 L67.12,232.61 C67.1687298,232.561288 67.2122945,232.50767 67.25,232.45 L67.37,232.31 L68,231.55 L68.62,230.76 L69.24,229.95 L69.87,229.11 C70.1,228.85 70.33,228.6 70.55,228.34 L71.22,227.56 L71.87,226.77 L72.5,225.97 L72.56,225.97 L72.62,225.97 L72.69,225.97 L72.76,225.97 C72.8460057,225.985137 72.9339943,225.985137 73.02,225.97 C73.1064612,225.961364 73.1891793,225.930344 73.26,225.88 C73.3375338,225.837524 73.4055879,225.779678 73.46,225.71 C73.5218065,225.639849 73.5693584,225.558331 73.6,225.47 L73.87,224.82 L74.13,224.16 L74.39,223.51 L74.66,222.85 L74.93,222.43 L75.2,222 L75.47,221.56 L75.75,221.09 L75.75,221.09 C75.61,221.87 75.46,222.64 75.3,223.41 C75.14,224.18 74.99,224.94 74.83,225.7 C74.67,226.46 74.51,227.2 74.34,227.94 L73.83,230.13 C73.8146555,230.215987 73.8146555,230.304013 73.83,230.39 C73.8414324,230.48064 73.8685002,230.568611 73.91,230.65 C73.9506448,230.729293 74.0010349,230.803198 74.06,230.87 C74.1282432,230.934524 74.2057709,230.988456 74.29,231.03 C74.3667534,231.065566 74.4472577,231.092401 74.53,231.11 C74.6097099,231.119635 74.6902901,231.119635 74.77,231.11 C74.8466507,231.088853 74.9205056,231.05864 74.99,231.02 C75.0625713,230.974592 75.1268329,230.917095 75.18,230.85 L76.44,229.33 L77.71,227.8 L79,226.34 L80.27,224.81 C80.17,225.23 80.08,225.65 79.99,226.08 C79.9,226.51 79.84,226.93 79.77,227.36 C79.7,227.79 79.65,228.22 79.61,228.65 C79.57,229.08 79.52,229.52 79.5,229.95 C79.4900519,230.026344 79.4900519,230.103656 79.5,230.18 C79.5196108,230.250871 79.5499629,230.31832 79.59,230.38 C79.6280474,230.443247 79.6752225,230.500531 79.73,230.55 C79.7891381,230.601385 79.8568302,230.642001 79.93,230.67 C80.001365,230.708117 80.0795004,230.731897 80.16,230.74 L80.4,230.74 C80.4767445,230.723861 80.5508144,230.696926 80.62,230.66 C80.6906706,230.628507 80.7550452,230.584462 80.81,230.53 L83.18,228.17 L85.56,225.81 L87.93,223.44 L90.3,221.08 L90.3,222.33 L90.3,223.57 L90.3,224.81 L90.3,226.06 C90.2902724,226.136358 90.2902724,226.213642 90.3,226.29 C90.3231521,226.361289 90.35686,226.428705 90.4,226.49 C90.4426368,226.555858 90.4968442,226.613454 90.56,226.66 C90.6227326,226.711555 90.6937342,226.752128 90.77,226.78 C90.8404927,226.809247 90.9144193,226.829409 90.99,226.84 C91.0663288,226.850179 91.1436712,226.850179 91.22,226.84 L91.43,226.76 C91.4985909,226.721316 91.5595816,226.670491 91.61,226.61 C92.15,226.03 92.7,225.48 93.28,224.95 C93.86,224.42 94.47,223.95 95.09,223.43 C95.71,222.91 96.36,222.5 97.02,222.08 C97.68,221.66 98.37,221.25 99.02,220.88 C99.0701615,221.515679 99.0701615,222.154321 99.02,222.79 C98.9686243,223.411675 98.8615275,224.027482 98.7,224.63 C98.516327,225.238451 98.2821806,225.830507 98,226.4 C97.7449607,226.996304 97.4370659,227.568587 97.08,228.11 C97.0278115,228.195485 96.9937723,228.290795 96.98,228.39 C96.9549002,228.481646 96.9549002,228.578354 96.98,228.67 C97.0000345,228.765912 97.0373047,228.857394 97.09,228.94 C97.1503116,229.025291 97.2247086,229.099688 97.31,229.16 C97.39371,229.215339 97.4845375,229.25907 97.58,229.29 C97.6693817,229.304919 97.7606183,229.304919 97.85,229.29 C97.9412138,229.27524 98.0291812,229.24479 98.11,229.2 C98.1935121,229.153424 98.2653263,229.08845 98.32,229.01 L99.32,227.81 L100.32,226.6 L101.32,225.39 L102.27,224.18 C102.284741,224.319612 102.284741,224.460388 102.27,224.6 C102.239265,224.73921 102.199174,224.876187 102.15,225.01 C102.093378,225.148124 102.026526,225.281828 101.95,225.41 C101.863329,225.544656 101.769875,225.674824 101.67,225.8 C101.60285,225.883079 101.551961,225.97807 101.52,226.08 C101.500331,226.179033 101.500331,226.280967 101.52,226.38 C101.533831,226.475455 101.557284,226.569266 101.59,226.66 C101.629204,226.745587 101.683389,226.823479 101.75,226.89 C101.808318,226.957137 101.879792,227.011594 101.96,227.05 C102.03538,227.08696 102.11657,227.110641 102.2,227.12 C102.282638,227.135223 102.367362,227.135223 102.45,227.12 C102.537869,227.090231 102.621812,227.049938 102.7,227 L102.95,226.81 L103.21,226.64 L103.47,226.48 L103.73,226.33 C103.636667,226.77 103.556667,227.21 103.49,227.65 C103.41,228.1 103.35,228.54 103.29,228.98 C103.23,229.42 103.19,229.86 103.15,230.31 C103.11,230.76 103.08,231.19 103.06,231.62 C103.049556,231.682903 103.049556,231.747097 103.06,231.81 C103.069314,231.86989 103.089658,231.927532 103.12,231.98 C103.143685,232.038789 103.177535,232.092949 103.22,232.14 C103.261694,232.188398 103.30865,232.232001 103.36,232.27 C103.408807,232.307418 103.462678,232.33772 103.52,232.36 L103.7,232.42 C103.759577,232.43007 103.820423,232.43007 103.88,232.42 C103.936196,232.430333 103.993804,232.430333 104.05,232.42 C104.361776,232.310657 104.665803,232.18036 104.96,232.03 C105.534971,231.735902 106.072215,231.373262 106.56,230.95 C106.807006,230.741263 107.037679,230.513933 107.25,230.27 L107.25,230.27 L107.25,230.27 L107.25,230.27 L107.25,230.27 L107.42,230.32 L107.6,230.32 C107.663048,230.317407 107.724647,230.300296 107.78,230.27 C107.840538,230.247966 107.897745,230.21768 107.95,230.18 C108.648047,229.637086 109.315721,229.05621 109.95,228.44 C110.576699,227.831762 111.170859,227.19087 111.73,226.52 C112.28,225.84 112.79,225.14 113.27,224.41 C113.740747,223.670348 114.171369,222.90591 114.56,222.12 C114.89,221.88 115.22,221.65 115.56,221.43 C115.9,221.21 116.25,221 116.56,220.8 C116.87,220.6 117.28,220.42 117.65,220.24 C118.02,220.06 118.4,219.9 118.78,219.74 C118.769134,219.824389 118.752427,219.907923 118.73,219.99 C118.73,220.07 118.73,220.15 118.65,220.24 L118.55,220.48 L118.43,220.72 C118.401168,220.776686 118.380946,220.837352 118.37,220.9 C118.360142,220.966302 118.360142,221.033698 118.37,221.1 C118.365101,221.163239 118.365101,221.226761 118.37,221.29 C118.388973,221.351606 118.412368,221.411762 118.44,221.47 C118.462725,221.520962 118.493072,221.568169 118.53,221.61 C118.56304,221.650896 118.603817,221.684877 118.65,221.71 C118.690584,221.746128 118.73827,221.773377 118.79,221.79 L118.94,221.79 C120.59,222.08 122.23,222.34 123.83,222.52 C125.396112,222.704682 126.973879,222.771537 128.55,222.72 C130.056972,222.675847 131.55225,222.440635 133,222.02 C134.47328,221.582649 135.865019,220.907047 137.12,220.02 C137.189242,219.973996 137.250117,219.916502 137.3,219.85 C137.34964,219.782351 137.389998,219.70836 137.42,219.63 C137.431218,219.550393 137.431218,219.469607 137.42,219.39 C137.439485,219.311186 137.439485,219.228814 137.42,219.15 C137.403389,219.07016 137.369231,218.995013 137.32,218.93 C137.277631,218.861084 137.223473,218.800157 137.16,218.75 C137.094609,218.705136 137.024114,218.66821 136.95,218.64 C136.873626,218.609141 136.792343,218.592207 136.71,218.59 C135.34,218.52 133.98,218.46 132.6,218.41 C131.22,218.36 129.85,218.3 128.47,218.26 C127.09,218.22 125.71,218.18 124.32,218.14 L120.18,218.07 L120.12,218 L120.05,217.94 L120,218 L119.93,218 L119.79,218 C119.743505,217.994347 119.696495,217.994347 119.65,218 L119.51,218 C119.463905,217.989667 119.416095,217.989667 119.37,218 L119.2,218.06 L119,218 L118.82,218.06 L118.65,218.13 L116.01,218.13 C116.2,217.49 116.37,216.81 116.52,216.13 C116.660941,215.442795 116.764427,214.748438 116.83,214.05 C116.897927,213.385064 116.897927,212.714936 116.83,212.05 C116.771925,211.481708 116.609185,210.92907 116.35,210.42 C116.266471,210.250277 116.165957,210.089455 116.05,209.94 C115.825077,209.654053 115.542221,209.418908 115.22,209.25 C115.059455,209.166235 114.89221,209.095992 114.72,209.04 C114.275907,208.910556 113.804093,208.910556 113.36,209.04 C112.929222,209.158675 112.52524,209.358969 112.17,209.63 C111.810955,209.903817 111.476365,210.208294 111.17,210.54 C110.87,210.87 110.61,211.19 110.38,211.47 C110.01,211.94 109.64,212.47 109.29,212.9 C108.94,213.33 108.6,213.9 108.29,214.39 C107.98,214.88 107.66,215.39 107.36,215.92 C107.06,216.45 106.78,216.92 106.51,217.5 C106.487279,217.552006 106.460531,217.602159 106.43,217.65 C106.43,217.71 106.43,217.76 106.36,217.81 C106.29,217.86 106.36,217.91 106.29,217.97 L106.21,218.12 L106.21,218.12 L106.21,218.12 L106.21,218.12 C104.98,218.12 103.75,218.12 102.53,218.18 L98.86,218.28 L95.23,218.4 L91.64,218.55 L91.55,218.48 C91.5229998,218.45096 91.4883295,218.430158 91.45,218.42 L91.34,218.37 L91.23,218.37 C91.1670554,218.360076 91.1029446,218.360076 91.04,218.37 C90.9838044,218.359667 90.9261956,218.359667 90.87,218.37 L90.7,218.44 C90.6466802,218.471513 90.5992966,218.512127 90.56,218.56 L90.56,218.56 L90.56,218.56 L90.56,218.56 L90.56,218.56 L87.44,218.72 L84.2,219 L80.96,219.21 L77.67,219.45 L77.79,218.76 C77.79,218.53 77.86,218.29 77.9,218.06 C77.94,217.83 77.98,217.6 78.01,217.37 C78.04,217.14 78.09,216.91 78.12,216.67 C78.47,215.92 78.8,215.16 79.12,214.38 C79.44,213.6 79.72,212.83 79.99,212.05 C80.26,211.27 80.51,210.47 80.74,209.68 C80.97,208.89 81.17,208.08 81.36,207.28 C81.3695005,207.196937 81.3695005,207.113063 81.36,207.03 C81.3519545,206.947477 81.3317353,206.8666 81.3,206.79 C81.2697982,206.715663 81.2256741,206.64778 81.17,206.59 C81.1189643,206.523572 81.0541446,206.468987 80.98,206.43 C80.9058273,206.384115 80.8248091,206.350358 80.74,206.33 C80.6602901,206.320365 80.5797099,206.320365 80.5,206.33 C80.41657,206.339359 80.3353797,206.36304 80.26,206.4 C80.1832118,206.431263 80.1122232,206.475209 80.05,206.53 L79.9,206.67 L79.75,206.8 L79.61,206.93 L79.46,207.07 C78.38,208.07 77.26,209.07 76.13,210.07 C75,211.07 73.86,212.19 72.74,213.3 C71.62,214.41 70.51,215.56 69.45,216.75 C68.39,217.94 67.37,219.14 66.45,220.4 C64.69,220.57 62.94,220.75 61.18,220.95 C59.42,221.15 57.68,221.34 55.95,221.55 C54.22,221.76 52.47,221.98 50.75,222.21 C49.03,222.44 47.33,222.67 45.63,222.91 L45.44,222.91 C45.3826775,222.93228 45.3288071,222.962582 45.28,223 C45.2349453,223.038379 45.1946574,223.082024 45.16,223.13 C45.1205692,223.177451 45.0900753,223.231662 45.07,223.29 C45.0305049,223.420409 45.0305049,223.559591 45.07,223.69 C45.0806627,223.762337 45.1008373,223.832948 45.13,223.9 C45.1553554,223.96622 45.1926386,224.027228 45.24,224.08 C45.2795907,224.139426 45.3305743,224.190409 45.39,224.23 C45.4455015,224.270855 45.5059902,224.30446 45.57,224.33 C45.6359577,224.34375 45.7040423,224.34375 45.77,224.33 C45.8429921,224.340005 45.9170079,224.340005 45.99,224.33 L50.72,223.68 L55.52,223.07 C57.07,223 58.68,222.83 60.31,222.65 Z M120.24,220.32 C120.24,220.25 120.24,220.19 120.24,220.12 C120.24,220.05 120.24,220 120.24,219.93 L120.24,219.74 L123.58,219.8 L126.96,219.89 L130.36,220 L133.77,220.13 C132.730082,220.559085 131.642237,220.861264 130.53,221.03 C129.398749,221.205775 128.254713,221.286058 127.11,221.27 C125.936498,221.254085 124.764746,221.173965 123.6,221.03 C122.42,220.9 121.24,220.71 120.07,220.51 L120.24,220.32 Z M108.82,216.22 C109.19,215.6 109.57,215.01 109.96,214.44 C110.35,213.87 110.77,213.34 111.2,212.84 C111.63,212.34 112.08,211.84 112.54,211.4 L112.71,211.26 L112.88,211.13 L113,211 L113.17,210.86 L113.61,210.95 L114.05,211.03 L114.48,211.12 L114.92,211.2 C114.945204,211.247758 114.965315,211.298034 114.98,211.35 C115.008566,211.431779 115.031946,211.515278 115.05,211.6 C115.05,211.71 115.05,211.84 115.12,212 C115.19,212.16 115.12,212.34 115.12,212.56 C115.12,212.78 115.12,212.93 115.12,213.11 C115.12,213.29 115.12,213.49 115.12,213.67 C115.12,213.85 115.12,214.05 115.12,214.23 L115.06,214.79 C115.06,215.06 114.99,215.34 114.95,215.61 C114.91,215.88 114.85,216.17 114.79,216.45 C114.73,216.73 114.67,217.01 114.6,217.29 C114.53,217.57 114.46,217.86 114.38,218.14 L107.75,218.14 C108.12,217.49 108.46,216.84 108.82,216.22 L108.82,216.22 Z M106,222.78 C106.11,222.43 106.23,222.08 106.34,221.78 C106.45,221.48 106.58,221.09 106.71,220.78 C106.84,220.47 106.97,220.11 107.11,219.78 L108.89,219.78 L113.89,219.78 L113.89,219.86 L113.89,219.86 L113.89,219.86 C113.89,219.96 113.81,220.07 113.76,220.17 C113.71,220.27 113.68,220.39 113.63,220.5 L113.49,220.82 L113.34,221.15 C112.92,221.47 112.52,221.79 112.13,222.15 C111.74,222.51 111.37,222.85 111,223.21 C110.63,223.57 110.29,223.96 110,224.35 C109.71,224.74 109.34,225.15 109,225.56 L109,225.26 C109,225.16 109,225.06 109,224.96 C109,224.86 109,224.75 109,224.65 C109,224.55 109,224.45 109,224.35 C108.989115,224.246445 108.962123,224.145225 108.92,224.05 C108.874646,223.965584 108.817394,223.888125 108.75,223.82 C108.679657,223.760916 108.60243,223.71055 108.52,223.67 C108.4266,223.638048 108.328708,223.62117 108.23,223.62 L108.23,223.62 L107.61,223.62 C107.402459,223.629599 107.195531,223.649624 106.99,223.68 L106.38,223.76 L105.77,223.88 C105.76,223.49 105.87,223.14 106,222.78 Z M105.78,225.39 L106.27,225.27 C106.44,225.27 106.61,225.19 106.76,225.17 C106.889897,225.162689 107.020103,225.162689 107.15,225.17 C107.221892,225.149437 107.298108,225.149437 107.37,225.17 C107.375927,225.192957 107.375927,225.217043 107.37,225.24 C107.380776,225.292789 107.380776,225.347211 107.37,225.4 C107.37,225.48 107.37,225.58 107.37,225.72 C107.355622,225.894421 107.332258,226.067985 107.3,226.24 C107.229266,226.664942 107.11189,227.080788 106.95,227.48 C106.788677,227.874727 106.584094,228.250354 106.34,228.6 C106.093455,228.962932 105.808472,229.298206 105.49,229.6 C105.166045,229.896277 104.814437,230.16082 104.44,230.39 C104.44,229.99 104.52,229.58 104.57,229.18 C104.62,228.78 104.67,228.38 104.74,227.97 C104.81,227.56 104.87,227.17 104.94,226.77 C105.01,226.37 105.1,225.97 105.19,225.57 L105.32,225.52 L105.44,225.52 L105.57,225.52 L105.78,225.39 Z M100.58,220.9 C100.58,220.55 100.58,220.21 100.49,219.9 L101.75,219.9 L103.01,219.9 L104.27,219.9 L105.53,219.9 C105.37,220.28 105.23,220.65 105.08,221.03 C104.93,221.41 104.8,221.8 104.67,222.19 C104.54,222.58 104.42,222.97 104.3,223.36 L103.97,224.55 L103.9,224.55 L103.83,224.55 L103.75,224.55 L103.68,224.55 C103.695021,224.350282 103.695021,224.149718 103.68,223.95 C103.663782,223.745432 103.637081,223.541831 103.6,223.34 C103.557276,223.136309 103.500473,222.935828 103.43,222.74 C103.356056,222.534724 103.269217,222.334325 103.17,222.14 C103.142576,222.086303 103.109019,222.035967 103.07,221.99 C103.027149,221.941802 102.976429,221.901226 102.92,221.87 C102.868948,221.83042 102.811433,221.79997 102.75,221.78 L102.55,221.78 L102.31,221.78 L102.16,221.83 C102.109774,221.854065 102.062745,221.884298 102.02,221.92 L101.91,222.03 L101.52,222.52 L101.14,223.01 L100.76,223.5 L100.37,223.99 C100.43,223.66 100.47,223.32 100.51,222.99 C100.55,222.66 100.51,222.31 100.57,221.99 C100.63,221.67 100.56,221.24 100.55,220.9 L100.58,220.9 Z M91.83,223.14 L91.83,222.14 L91.83,221.14 L91.83,220.14 L93.15,220.08 L94.51,220.03 L96,220 L97.47,219.95 C96.96,220.24 96.47,220.55 95.97,220.87 C95.47,221.19 94.97,221.52 94.52,221.87 C94.07,222.22 93.59,222.58 93.14,222.96 C92.69,223.34 92.26,223.73 91.83,224.13 L91.83,223.14 Z M82.35,223.14 C82.52,222.63 82.69,222.14 82.88,221.61 C82.9100922,221.529923 82.9269787,221.445491 82.93,221.36 C82.9404577,221.276995 82.9404577,221.193005 82.93,221.11 C82.8962533,221.031409 82.8525633,220.957472 82.8,220.89 C82.7425379,220.823319 82.6750669,220.765969 82.6,220.72 L84.19,220.61 L85.78,220.52 L87.35,220.43 L88.92,220.35 L87,222.2 L85.11,224.09 L83.16,226 L81.27,227.89 C81.34,227.34 81.43,226.8 81.53,226.27 C81.63,225.74 81.75,225.21 81.88,224.69 C82.01,224.17 82.16,223.63 82.32,223.11 L82.35,223.14 Z M78.44,221 L79.44,220.92 L80.5,220.85 L81.5,220.78 L81.5,220.78 L81.5,220.78 L81.5,220.78 L81.5,220.78 L80.14,222.42 L78.78,224.07 L77.42,225.71 L76.06,227.35 C76.18,226.82 76.29,226.29 76.41,225.77 L76.74,224.18 C76.84,223.65 76.95,223.12 77.05,222.6 C77.15,222.08 77.25,221.54 77.34,221.02 L78.44,221 Z M71.13,217.42 C71.96,216.49 72.81,215.59 73.69,214.7 C74.57,213.81 75.47,212.94 76.38,212.07 C77.29,211.2 78.23,210.34 79.17,209.48 C79.03,209.96 78.88,210.48 78.73,210.9 C78.58,211.32 78.42,211.84 78.25,212.31 C78.08,212.78 77.91,213.24 77.73,213.7 C77.55,214.16 77.36,214.61 77.16,215.06 L77.1,215.06 L77.04,215.06 L76.98,215.06 L76.92,215.13 L76.82,215.25 L76.72,215.37 L76.62,215.49 L76.53,215.62 L76.28,215.62 L76.2,215.62 L76.07,215.68 C75.9878038,215.73228 75.9136876,215.796289 75.85,215.87 L75.77,216 C75.67,216.23 75.56,216.46 75.45,216.69 L75.1,217.4 C74.99,217.64 74.86,217.89 74.73,218.14 C74.6,218.39 74.47,218.66 74.34,218.92 L74.26,219.06 C74.26,219.06 74.21,219.16 74.18,219.2 C74.1627756,219.249479 74.1392486,219.296533 74.11,219.34 L74.04,219.48 L74.04,219.48 L74.04,219.48 L74.04,219.48 L74.04,219.48 L72.73,219.59 L71.42,219.7 L70,220.1 L68.7,220.22 C69.5,219.25 70.3,218.31 71.13,217.39 L71.13,217.42 Z M66.41,223.42 C66.74,222.92 67.09,222.42 67.41,221.91 L68.8,221.78 L70.2,221.65 L71.6,221.52 L72.99,221.4 C72.66,222 72.31,222.59 71.99,223.16 C71.67,223.73 71.29,224.31 70.93,224.87 C70.57,225.43 70.21,225.97 69.84,226.51 C69.47,227.05 69.1,227.56 68.73,228.07 L68.23,228.61 L67.75,229.11 C67.6,229.28 67.44,229.44 67.29,229.59 L66.83,230.05 C66.7812702,230.098712 66.7377055,230.15233 66.7,230.21 C66.668096,230.266304 66.6445178,230.326934 66.63,230.39 C66.6211084,230.453021 66.6211084,230.516979 66.63,230.58 C66.6202869,230.646313 66.6202869,230.713687 66.63,230.78 L66.47,230.97 L66.32,231.16 C66.26,231.22 66.21,231.29 66.16,231.35 L66,231.54 L66,231.54 L65.87,231.7 L65.73,231.87 L65.59,232.05 L65.45,232.23 L65.01,232.78 C64.86,232.97 64.71,233.15 64.55,233.33 C64.39,233.51 64.22,233.66 64.06,233.8 C63.9007057,233.941962 63.7263312,234.066036 63.54,234.17 C63.4460311,234.223682 63.3450686,234.264067 63.24,234.29 C63.1469116,234.299563 63.0530884,234.299563 62.96,234.29 C62.8809257,234.280743 62.8035198,234.26055 62.73,234.23 C62.6646178,234.212253 62.6034267,234.181658 62.55,234.14 C62.4432387,234.077145 62.3484436,233.995892 62.27,233.9 C62.186444,233.802873 62.1158539,233.695307 62.06,233.58 C62.0019599,233.465832 61.9582938,233.34491 61.93,233.22 C61.915214,233.09042 61.915214,232.95958 61.93,232.83 C61.9260437,232.753384 61.9260437,232.676616 61.93,232.6 C61.93,232.53 61.93,232.44 61.99,232.36 L62.08,232.11 C62.1176289,232.02845 62.151007,231.945005 62.18,231.86 C62.1839824,231.826786 62.1839824,231.793214 62.18,231.76 C62.1782754,231.723354 62.1782754,231.686646 62.18,231.65 L62.18,231.54 C62.1855947,231.506901 62.1855947,231.473099 62.18,231.44 C62.28,231.14 62.39,230.84 62.5,230.54 C62.61,230.24 62.73,229.95 62.86,229.65 C62.99,229.35 63.11,229.05 63.24,228.75 C63.37,228.45 63.51,228.16 63.66,227.87 C63.9,227.37 64.16,226.87 64.43,226.37 C64.7,225.87 64.98,225.37 65.28,224.89 C65.58,224.41 66.08,223.9 66.41,223.41 L66.41,223.42 Z" id="Shape" fill="#0099DA"></path>
        </g>
    </g>
</svg>