<svg width="106" height="128" viewBox="0 0 106 128" xmlns="http://www.w3.org/2000/svg">
<defs>
<style>
.icon-blink {
  animation: blink-animation 1s steps(5, start) infinite;
  -webkit-animation: blink-animation 1s steps(5, start) infinite;
}

.icon-blink2 {
  animation: blink-animation 1s steps(5, start) infinite;
  -webkit-animation: blink-animation 1s steps(5, start) infinite;
  animation-delay: 500ms;
}

.icon-blink3 {
  animation: blink-animation 1s steps(5, start) infinite;
  -webkit-animation: blink-animation 1s steps(5, start) infinite;
  animation-delay: 350ms;
}

.icon-blink4 {
  animation: blink-animation 1s steps(5, start) infinite;
  -webkit-animation: blink-animation 1s steps(5, start) infinite;
  animation-delay: 450ms;
}

.icon-blink5 {
  animation: blink-animation 1s steps(5, start) infinite;
  -webkit-animation: blink-animation 1s steps(5, start) infinite;
  animation-delay: 500ms;
}

#camara-numer {
  stroke-dasharray: 5;
  stroke-dashoffset: 2;
  animation: dash 2s linear forwards;
  -webkit-animation: dash 2s linear forwards;
}

.test-stroke {
  fill: none;
  stroke: #000;
  stroke-width: 2;
  stroke-miterlimit: 5;
}

.scale-height {
  animation-duration: 3000ms;
  animation-iteration-count: infinite;
  transform-origin: 50% 86%;
  animation-name: scale-height;
}

.animate-line {
  stroke-dasharray: 241;
  stroke-dashoffset: 0;
  -webkit-animation: dash 3s linear forwards;
  -o-animation: dash 3s linear forwards;
  -moz-animation: dash 3s linear forwards;
  animation: dash 3s linear forwards;
}

.animate-line-long {
  stroke-dasharray: 350;
  stroke-dashoffset: 0;
  -webkit-animation: dash-long 4s linear forwards;
  -o-animation: dash-long 4s linear forwards;
  -moz-animation: dash-long 4s linear forwards;
  animation: dash-long 4s linear forwards;
}

.number3-dash-animate {
  stroke-dasharray: 65;
  stroke-dashoffset: 0;
  -webkit-animation: dash-number3 2s linear forwards;
  -o-animation: dash-number3 2s linear forwards;
  -moz-animation: dash-number3 2s linear forwards;
  animation: dash-number3 2s linear forwards;
}

.backup-local-animation {
  -webkit-animation: backup-local-animation 2s ease infinite;
  -o-animation: backup-local-animation 2s ease infinite;
  -moz-animation: backup-local-animation 2s ease infinite;
  animation: backup-local-animation 2s ease infinite;
}

.calender {
  -webkit-animation: calender 500ms ease forwards;
  -o-animation: calender 500ms ease forwards;
  -moz-animation: calender 500ms ease forwards;
  animation: calender 500ms ease forwards;
}

.calender-blue-month {
  -webkit-animation: calender-blue 500ms ease forwards;
  -o-animation: calender-blue 500ms ease forwards;
  -moz-animation: calender-blue 500ms ease forwards;
  animation: calender-blue 500ms ease forwards;
  fill: #cad3d6;
  animation-delay: 1200ms;
}

.calender-blue-week {
  -webkit-animation: calender-blue 500ms ease forwards;
  -o-animation: calender-blue 500ms ease forwards;
  -moz-animation: calender-blue 500ms ease forwards;
  animation: calender-blue 500ms ease forwards;
  fill: #cad3d6;
  animation-delay: 400ms;
}

.calender:nth-of-type(2) {
  animation-delay: 50ms;
}

.calender:nth-of-type(3) {
  animation-delay: 100ms;
}

.calender:nth-of-type(18) {
  animation-delay: 150ms;
}

.calender:nth-of-type(5) {
  animation-delay: 200ms;
}

.calender:nth-of-type(6) {
  animation-delay: 250ms;
}

.calender:nth-of-type(7) {
  animation-delay: 300ms;
}

.calender:nth-of-type(8) {
  animation-delay: 350ms;
}

.calender:nth-of-type(9) {
  animation-delay: 400ms;
}

.calender:nth-of-type(10) {
  animation-delay: 450ms;
}

.calender:nth-of-type(11) {
  animation-delay: 500ms;
}

.calender:nth-of-type(14) {
  animation-delay: 550ms;
}

.calender:nth-of-type(13) {
  animation-delay: 600ms;
}

.calender:nth-of-type(12) {
  animation-delay: 650ms;
}

.calender:nth-of-type(15) {
  animation-delay: 700ms;
}

.calender:nth-of-type(16) {
  animation-delay: 750ms;
}

.calender:nth-of-type(17) {
  animation-delay: 800ms;
}

.calender:nth-of-type(4) {
  animation-delay: 850ms;
}

.calender:nth-of-type(19) {
  animation-delay: 900ms;
}

.calender:nth-of-type(20) {
  animation-delay: 950ms;
}

.calender:nth-of-type(21) {
  animation-delay: 1000ms;
}

.calender:nth-of-type(25) {
  animation-delay: 1050ms;
}

.calender:nth-of-type(23) {
  animation-delay: 1100ms;
}

.calender:nth-of-type(24) {
  animation-delay: 11500ms;
}

.calender:nth-of-type(22) {
  animation-delay: 1200ms;
}

.calender:nth-of-type(26) {
  animation-delay: 1250ms;
}

.calender:nth-of-type(27) {
  animation-delay: 1300ms;
}

.calender:nth-of-type(28) {
  animation-delay: 1350ms;
}

.calender:nth-of-type(29) {
  animation-delay: 1400ms;
}

.animate-line-check-marks-month {
  -webkit-animation: animate-line-check-marks 1s linear forwards;
  -o-animation: animate-line-check-marks 1s linear forwards;
  -moz-animation: animate-line-check-marks 1s linear forwards;
  animation: animate-line-check-marks 1s linear forwards;
  animation-delay: 1800ms;
  opacity: 0;
}

.animate-line-check-marks-week {
  -webkit-animation: animate-line-check-marks 1s linear forwards;
  -o-animation: animate-line-check-marks 1s linear forwards;
  -moz-animation: animate-line-check-marks 1s linear forwards;
  animation: animate-line-check-marks 1s linear forwards;
  animation-delay: 800ms;
  opacity: 0;
}

.camara-detect-right {
  -webkit-animation: camara-detect-right 5s linear forwards;
  -o-animation: camara-detect-right 5s linear forwards;
  -moz-animation: camara-detect-right 5s linear forwards;
  animation: camara-detect-right 5s linear forwards;
  transform-origin: center;
}

.camara-detect-left {
  -webkit-animation: camara-detect-left 5s linear forwards;
  -o-animation: camara-detect-left 5s linear forwards;
  -moz-animation: camara-detect-left 5s linear forwards;
  animation: camara-detect-left 5s linear forwards;
  transform-origin: center;
}

.cloud-1 {
  -webkit-animation: cloud-ani 30s ease infinite;
  -o-animation: cloud-ani 30s ease infinite;
  -moz-animation: cloud-ani 30s ease infinite;
  animation: cloud-ani 30s ease infinite;
}

.cloud-2 {
  -webkit-animation: cloud-ani-fast-out 13s ease infinite;
  -o-animation: cloud-ani-fast-out 13s ease infinite;
  -moz-animation: cloud-ani-fast-out 13s ease infinite;
  animation: cloud-ani-fast-out 13s ease infinite;
  animation-delay: 1000ms;
}

.cloud-3 {
  -webkit-animation: cloud-ani 12s ease infinite;
  -o-animation: cloud-ani 12s ease infinite;
  -moz-animation: cloud-ani 12s ease infinite;
  animation: cloud-ani 12s ease infinite;
  animation-delay: 500ms;
}

.camara-move {
  animation: camara-move-ani 3s linear infinite;
}

.rotate {
  transform-origin: center 11%;
  animation-name: rotate;
  animation-duration: 2000ms;
  animation-iteration-count: infinite;
  animation-timing-function: ease-in-out;
}

@keyframes scale-height {
  0% {
    transform: scaleY(0) translateY(-6%);
  }
  50% {
    transform: scaleY(1);
  }
  100% {
    transform: scaleY(0) translateY(-6%);
  }
}

@keyframes rotate {
  0% {
    transform: rotateY(0deg);
  }
  20% {
    transform: rotateY(0deg);
  }
  50% {
    transform: rotateY(90deg);
  }
  80% {
    transform: rotateY(0deg);
  }
  100% {
    transform: rotateY(0deg);
  }
}

@-webkit-keyframes dash {
  from {
    stroke-dashoffset: 241;
  }
  to {
    stroke-dashoffset: 0;
  }
}

@keyframes dash {
  from {
    stroke-dashoffset: 241;
  }
  to {
    stroke-dashoffset: 0;
  }
}

@-webkit-keyframes dash-long {
  from {
    stroke-dashoffset: 350;
  }
  to {
    stroke-dashoffset: 0;
  }
}

@keyframes dash-long {
  from {
    stroke-dashoffset: 350;
  }
  to {
    stroke-dashoffset: 0;
  }
}

@-webkit-keyframes dash-number3 {
  0% {
    stroke-dashoffset: 70;
  }
  90% {
    stroke-dashoffset: 0;
    fill: #02375200;
  }
  100% {
    fill: #023852;
  }
}

@keyframes dash-number3 {
  0% {
    stroke-dashoffset: 70;
  }
  90% {
    stroke-dashoffset: 0;
    fill: #02375200;
  }
  100% {
    fill: #023852;
  }
}

@-webkit-keyframes backup-local-animation {
  0% {
    transform: translateY(0);
  }
  50% {
    transform: translateY(-6%);
  }
  100% {
    transform: translateY(0);
  }
}

@keyframes backup-local-animation {
  0% {
    transform: translateY(0);
  }
  50% {
    transform: translateY(-6%);
  }
  100% {
    transform: translateY(0);
  }
}

@-webkit-keyframes calender {
  0% {
    opacity: 0;
  }
  100% {
    opacity: 1;
  }
}

@keyframes calender {
  0% {
    opacity: 0;
  }
  100% {
    opacity: 1;
  }
}

@keyframes calender-blue {
  0% {
    fill: #cad3d6;
  }
  100% {
    fill: #50bfee;
  }
}

@-webkit-keyframes animate-line-check-marks {
  0% {
    opacity: 0;
  }
  100% {
    opacity: 1;
  }
}

@keyframes animate-line-check-marks {
  0% {
    opacity: 0;
  }
  100% {
    opacity: 1;
  }
}

@keyframes camara-detect-right {
  0% {
    transform: translate(0, 0) scaleY(1);
  }
  10% {
    transform: translate(-80%, 0);
  }
  20% {
    transform: translate(-50%, 0);
    fill: rgb(255, 255, 255);
  }
  25% {
    transform: translate(-50%, 0) scaleY(0.5);
    fill: rgb(255, 231, 0);
  }
  26% {
    transform: translate(-50%, 0) scaleY(0.5);
    fill: rgba(255, 230, 0, 0);
  }
  27% {
    transform: translate(-50%, 0) scaleY(0.5);
    fill: rgb(255, 231, 0);
  }
  28% {
    transform: translate(-50%, 0) scaleY(0.5);
    fill: rgba(255, 230, 0, 0);
  }
  29% {
    transform: translate(-50%, 0) scaleY(0.5);
    fill: rgb(255, 231, 0);
  }
  65% {
    transform: translate(-50%, 0) scaleY(0.5);
    fill: rgb(255, 231, 0);
  }
  80% {
    transform: translate(-50%, 0) scaleY(0.5);
    fill: rgb(255, 231, 0);
  }
  100% {
    transform: translate(0, 0) scaleY(1);
    fill: rgb(255, 255, 255);
  }
}

@-webkit-keyframes camara-detect-right {
  0% {
    transform: translate(0, 0) scaleY(1);
  }
  10% {
    transform: translate(-80%, 0);
  }
  20% {
    transform: translate(-50%, 0);
    fill: rgb(255, 255, 255);
  }
  25% {
    transform: translate(-50%, 0) scaleY(0.5);
    fill: rgb(255, 231, 0);
  }
  26% {
    transform: translate(-50%, 0) scaleY(0.5);
    fill: rgba(255, 230, 0, 0);
  }
  27% {
    transform: translate(-50%, 0) scaleY(0.5);
    fill: rgb(255, 231, 0);
  }
  28% {
    transform: translate(-50%, 0) scaleY(0.5);
    fill: rgba(255, 230, 0, 0);
  }
  29% {
    transform: translate(-50%, 0) scaleY(0.5);
    fill: rgb(255, 231, 0);
  }
  65% {
    transform: translate(-50%, 0) scaleY(0.5);
    fill: rgb(255, 231, 0);
  }
  80% {
    transform: translate(-50%, 0) scaleY(0.5);
    fill: rgb(255, 231, 0);
  }
  100% {
    transform: translate(0, 0) scaleY(1);
    fill: rgb(255, 255, 255);
  }
}

@keyframes camara-detect-left {
  0% {
    transform: translate(0, 0) scaleY(1);
  }
  10% {
    transform: translate(80%, 0);
  }
  20% {
    transform: translate(13%, 0);
    fill: rgb(255, 255, 255);
  }
  25% {
    transform: translate(13%, 0) scaleY(0.5);
    fill: rgb(255, 231, 0);
  }
  26% {
    transform: translate(13%, 0) scaleY(0.5);
    fill: rgba(255, 230, 0, 0);
  }
  27% {
    transform: translate(13%, 0) scaleY(0.5);
    fill: rgb(255, 231, 0);
  }
  28% {
    transform: translate(13%, 0) scaleY(0.5);
    fill: rgba(255, 230, 0, 0);
  }
  29% {
    transform: translate(13%, 0) scaleY(0.5);
    fill: rgb(255, 231, 0);
  }
  65% {
    transform: translate(13%, 0) scaleY(0.5);
    fill: rgb(255, 231, 0);
  }
  80% {
    transform: translate(13%, 0) scaleY(0.5);
    fill: rgb(255, 231, 0);
  }
  100% {
    transform: translate(0, 0) scaleY(1);
    fill: rgb(255, 255, 255);
  }
}

@-webkit-keyframes camara-detect-left {
  0% {
    transform: translate(0, 0) scaleY(1);
  }
  10% {
    transform: translate(80%, 0);
  }
  20% {
    transform: translate(13%, 0);
    fill: rgb(255, 255, 255);
  }
  25% {
    transform: translate(13%, 0) scaleY(0.5);
    fill: rgb(255, 231, 0);
  }
  26% {
    transform: translate(13%, 0) scaleY(0.5);
    fill: rgba(255, 230, 0, 0);
  }
  27% {
    transform: translate(13%, 0) scaleY(0.5);
    fill: rgb(255, 231, 0);
  }
  28% {
    transform: translate(13%, 0) scaleY(0.5);
    fill: rgba(255, 230, 0, 0);
  }
  29% {
    transform: translate(13%, 0) scaleY(0.5);
    fill: rgb(255, 231, 0);
  }
  65% {
    transform: translate(13%, 0) scaleY(0.5);
    fill: rgb(255, 231, 0);
  }
  80% {
    transform: translate(13%, 0) scaleY(0.5);
    fill: rgb(255, 231, 0);
  }
  100% {
    transform: translate(0, 0) scaleY(1);
    fill: rgb(255, 255, 255);
  }
}

@keyframes cloud-ani {
  0% {
    transform: translate(0%, 0%);
  }
  95% {
    transform: translate(-50%, -1%);
    opacity: 0;
  }
  99% {
    opacity: 0;
    transform: translate(5%, 0%);
  }
  100% {
    transform: translate(0%, 0%);
    opacity: 1;
  }
}

@keyframes cloud-ani-fast-out {
  0% {
    transform: translate(0%, 0%);
  }
  55% {
    transform: translate(-20%, -1%);
    opacity: 0;
  }
  95% {
    transform: translate(-50%, -1%);
    opacity: 0;
  }
  99% {
    opacity: 0;
    transform: translate(5%, 0%);
  }
  100% {
    transform: translate(0%, 0%);
    opacity: 1;
  }
}

@keyframes camara-move-ani {
  0% {
    transform: translate(0, 0);
  }
  10% {
    transform: translate(-3%, 7%) rotate(-5deg);
  }
  30% {
    transform: translate(0, 0);
  }
  90% {
    transform: translate(-3%, 7%) rotate(-5deg);
  }
  100% {
    transform: translate(0, 0);
  }
}

@keyframes blink-animation {
  to {
    visibility: hidden;
  }
}

@-webkit-keyframes blink-animation {
  to {
    visibility: hidden;
  }
}

</style>
</defs>
<g fill="none" fill-rule="evenodd"><path fill="#FFF" fill-rule="nonzero" opacity=".3" d="M66.0393488 20.644506l5.0702316 4.4652124 5.0702316 4.4652123-1.6183999 23.064583-1.6070823 23.0532211-17.9608427-17.4290987-17.9608427-17.4404605"/><path fill="#0099DA" fill-rule="nonzero" d="M71.8338992 123.094429l.2942545-23.6213139.282937-23.6213143-17.5986833-17.3836511-17.5986833-17.3836512-17.6665883 17.8494876L1.88054764 76.7834737l.29425451 22.2351669.28293703 22.2351664 34.68808002.920311z"/><path fill="#80CDED" fill-rule="nonzero" d="M17.1704648 119.049606h-1.1883355V62.2062028h1.1883355v48.1629392zm14.6448207 0h-1.1543831V45.867843h1.1543831v62.456164zm28.1692108 0h1.1770181V62.2062028h-1.1770181v48.1629392zm-14.6561382 0h1.1543831V50.1853512h-1.1543831v58.1386558z"/><path fill="#FFF" fill-rule="nonzero" opacity=".2" d="M37.2137241 41.0844985L25.9415127 52.9235603 14.6693014 64.7739839l28.0334011 26.5753988L70.747421 117.924781V74.670167L53.9749138 57.8773328z"/><path fill="#003A5D" fill-rule="nonzero" d="M2.45773918 119.049606v8.635016H72.0715663v-8.635016H37.258994z"/><path fill="#135275" fill-rule="nonzero" d="M20.045105 122.583145h-4.1421981v4.987859h4.1421981v-4.362956zm17.1799365 0h-4.1421981v4.987859h4.1421981v-4.362956zm22.2728031 0H55.366964v4.987859h4.1308806v-4.362956zm-7.220553 0h-4.1308807v4.987859h4.1308807v-4.362956z"/><path fill="#003A5D" fill-rule="nonzero" opacity=".3" style="mix-blend-mode:multiply" d="M5.93220592 119.049606H3.80451945v8.714549H9.4406251v-8.714549H7.68641551zm64.14748368 0h-4.9344218v8.714549h5.6474231v-8.714549h-.3621594z"/><path fill="#FFF" fill-rule="nonzero" d="M102.990925 35.1876913l-1.674987.249961-1.6749874.249961-12.7548014 22.5760228-12.7434839 22.5873847-.0113174 3.0449794-.0113175 3.0563413 14.441106-25.8823251z"/><path class="camara-move" fill="#FFF" fill-rule="nonzero" d="M99.3353786 33.131194l.611144-1.499766.6111444-1.5111278-7.8656499-6.0331495-7.8769669-6.0331496-.611144 1.5111279-.611144 1.499766 7.8769669 6.0331495z"/><path class="camara-move" fill="#C0CACE" fill-rule="nonzero" style="mix-blend-mode:multiply" d="M88.2895169 24.6893294l.5545566-1.579299.565874-1.5679372-2.071099-1.5906609-2.0597816-1.5906609-.611144 1.5111279-.611144 1.499766 2.116369 1.6588321z"/><path class="camara-move" d="M83.7625244 2.2723727c.0816355-.10287579.1725616-.19796187.2716195-.28404658l.2829371-.26132287c.4664202-.39505286.9795778-.73086735 1.5278599-.99984399.5589819-.2669452 1.1479617-.4653133 1.7542096-.5908169 1.8655703-.36695358 3.7999268.02554509 5.3771018 1.09106324s2.6678288 2.7166757 3.0317868 4.58986852c.2395376 1.21873339.1615714 2.47891208-.2263496 3.65852005-.3738532 1.15034393-1.0273139 2.18904733-1.9013369 3.02225573l-8.8502703 8.5554832-8.8502703 8.487312-4.6514848-5.408247-4.6514848-5.4423326L75.3196834 10.487l8.442841-8.2146273z" fill="#FAFBFB" fill-rule="nonzero"/><path class="camara-move" d="M64.8510132 24.6893294c.4337019 3.415599 3.211127 6.0475167 6.632731 6.2852467 3.4216039.23773 6.533695-1.9849893 7.431942-5.3080457.898247-3.3230563-.6677153-6.8202257-3.739653-8.3515423-3.0719378-1.5313167-6.7936206-.669962-8.8876998 2.0569892-1.164326 1.5100722-1.6815518 3.4235442-1.4373202 5.3173521z" fill="#023852" fill-rule="nonzero"/><path class="camara-move" d="M69.4911806 27.0071496c.8627103.6253301 1.936799.8826519 2.987815.7157974 1.0701885-.1392892 2.036127-.7145507 2.6709256-1.5906609.6296712-.858781.8905308-1.9349546.7243188-2.9881701-.1505806-1.0677737-.7219737-2.0301134-1.5859154-2.6709975-.8639418-.6408841-1.9480547-.9066218-3.008982-.7375616-2.1868031.354783-3.6781482 2.4153273-3.338657 4.6129166.1519198 1.0552265.7082579 2.0091946 1.550495 2.6586761z" fill="#0099DA" fill-rule="nonzero"/><path class="camara-move" d="M69.6156728 22.723727c-.1840911.0634237-.3350116.1985563-.4187468.3749415-.0742138.182036-.0742138.3860572 0 .5680932.063176.1848131.1977806.3363254.3734769.420389.1802627.0797416.3856114.0797416.5658741 0 .1861604-.0598312.3383311-.1960832.4187468-.3749415.0794301-.1809696.0794301-.3871237 0-.5680932-.0595974-.1868904-.1953172-.3396579-.3734769-.420389-.1813249-.0745048-.3845492-.0745048-.5658741 0z" fill="#FFF" fill-rule="nonzero"/><path d="M98.3054878 35.0967964c.657725 1.3726631 2.0752613 2.211468 3.5900502 2.1243559 1.514789-.0871122 2.827642-1.0829357 3.324931-2.5220211.555229-1.6067592-.032742-3.387636-1.433999-4.343369-1.401257-.9557331-3.267022-.8484371-4.5504027.2616835-1.2833807 1.1101207-1.6649388 2.9467529-.9305795 4.4793507z" fill="#023852" fill-rule="nonzero"/><path d="M65.2810909 42.709245c-.004685-1.7273361-1.2229255-3.2113396-2.9109306-3.5459428-1.688005-.3346032-3.3766592.5731838-4.0349441 2.169106-.6582849 1.5959221-.1032559 3.436455 1.3262106 4.3978496 1.4294665.9613946 3.3361059.7764688 4.5558075-.4418698.6833999-.6826362 1.0664608-1.6113151 1.0638566-2.579143z" fill="#FFE700" fill-rule="nonzero"/><path d="M38.6057743 39.8574172c-.3442397-.348313-.81276-.5442238-1.3015104-.5442238-.4887504 0-.9572707.1959108-1.3015103.5442238L18.4719751 57.4342201.92987921 74.9882992c-.1474697.1557837-.26625574.3365849-.35084192.5340076-.0763586.1918418-.11849847.3956756-.12449229.6021788v49.7308764c.00698399.415484.1546696.8162.4187468 1.136187.28068281.340398.68895531.549285 1.12824359.577252.43928828.027966.87057415-.127472 1.19184007-.429548.34168824-.310688.53518061-.752919.53192162-1.21572V77.5674422c.00191219-.2179956.04412501-.43374.12449229-.6362643.08862349-.197929.21120796-.378681.3621594-.5340076L20.1695973 60.3769427l15.968966-16.065675c.6265307-.6238926 1.6369656-.6238926 2.2634963 0l15.9802835 16.0315894 15.9236961 15.986142c.1512784.1527094.2705702.3342804.3508419.5340076.0868682.2005461.1293433.4176313.1244923.6362644v48.4129009c-.000115.379265.1186716.748947.3395245 1.056653.2114163.311517.5296925.533971.894081.624902.4987322.123906 1.0264825.006168 1.4260026-.318132.3964973-.306337.6269302-.781628.6225253-1.28389V76.4539796c-.0032456-.3080097-.0646953-.6126075-.1811435-.8975872-.1160328-.2799869-.2851574-.5346685-.4979692-.749883L56.0007429 57.3319633 38.6057743 39.8574172z" fill="#023852" fill-rule="nonzero"/><path fill="#80CDED" fill-rule="nonzero" d="M70.2834042 81.4077521H3.66870967v1.5565753H70.2834042v-.7726067z"/></g></svg>