<svg width="440" height="330" xmlns="http://www.w3.org/2000/svg"><defs><linearGradient x1="-.003%" y1="49.998%" x2="99.999%" y2="49.998%" id="a"><stop stop-color="#FFF" stop-opacity="0" offset="0%"/><stop stop-color="#FEF7E2" stop-opacity=".14" offset="8%"/><stop stop-color="#FCE9B3" stop-opacity=".36" offset="22%"/><stop stop-color="#FBDE8A" stop-opacity=".56" offset="36%"/><stop stop-color="#FAD468" stop-opacity=".72" offset="49%"/><stop stop-color="#F9CD4F" stop-opacity=".84" offset="63%"/><stop stop-color="#F8C73C" stop-opacity=".93" offset="76%"/><stop stop-color="#F8C431" stop-opacity=".98" offset="88%"/><stop stop-color="#F8C32D" offset="100%"/></linearGradient></defs><g fill-rule="nonzero" fill="none"><path d="M392.949 94.49V73.87a9.401 9.401 0 00-6.054-9.093 7.799 7.799 0 00-3.633-.593H202.676a5.52 5.52 0 01-3.039-.594 8.903 8.903 0 01-6.054-5.413l-1.828-4.226-5.033-10.446-4.831-10.268-1.792-4.214a13.26 13.26 0 00-6.066-5.424c-1.187 0-1.84-.596-3.027-.596H75.424c-5.503-.119-10.085 4.2-10.291 9.7V51.46a10.838 10.838 0 00-6.078 9.08v226.015h-.593v32.157a10.838 10.838 0 0010.291 10.292l319.376.593a10.173 10.173 0 0010.814-9.496V102.347a12.262 12.262 0 00-5.994-7.858z" fill="#DADDE0" style="mix-blend-mode:multiply"/><path d="M183.292 40.288a11.194 11.194 0 01-9.093-5.412l-1.84-4.274-4.82-10.292-4.866-10.28-1.78-4.273a9.971 9.971 0 00-9.094-5.413H56.03c-5.5-.127-10.08 4.19-10.284 9.687v247.227c-.124 5.499 4.192 10.08 9.69 10.282h309.048a10.074 10.074 0 0010.282-9.689V50.545c.118-5.502-4.201-10.08-9.7-10.28H227.52l-44.23.023z" fill="#FFE700"/><path d="M142.292 40.288a11.194 11.194 0 01-9.093-5.412l-1.84-4.274-4.82-10.292-4.866-10.28-1.78-4.273a9.971 9.971 0 00-9.094-5.413H15.03c-5.5-.127-10.08 4.19-10.284 9.687v247.227c-.124 5.499 4.192 10.08 9.69 10.282h309.048a10.074 10.074 0 0010.282-9.689V50.545c.118-5.502-4.201-10.08-9.7-10.28H186.52l-44.23.023z" fill="url(#a)" style="mix-blend-mode:multiply" transform="translate(41)"/><path fill="#F3F5F6" d="M60.123 113.007l.101-58.19 298.757.522-.102 58.189z"/><path d="M182.045 70.238a9.413 9.413 0 01-9.092-6.054l-1.781-4.226-4.879-10.34-4.82-10.28-1.84-4.225a10.814 10.814 0 00-9.092-6.066H51.422a10.838 10.838 0 00-10.28 10.292v258.16a10.826 10.826 0 0010.28 10.28h318.795a10.826 10.826 0 0010.28-10.28V80.529a10.826 10.826 0 00-10.28-10.291H182.045z" fill="#FFE700"/><path fill="#0099DA" d="M116.698 177.998l.012-9.045 201.799.582-.012 9.045zM116.52 197.3l.012-9.046 129.709.38-.012 9.045zM116.627 217.123l.012-9.045 129.709.38-.012 9.045z"/></g></svg>