<?xml version="1.0" encoding="UTF-8"?>
<svg width="440px" height="330px" viewBox="0 0 440 330" version="1.1" xmlns="http://www.w3.org/2000/svg" xmlns:xlink="http://www.w3.org/1999/xlink">
    <title>Graphic elements / Icons / Rich icons / Subscriptions</title>
    <g id="Graphic-elements-/-Icons-/-Rich-icons-/-Subscriptions" stroke="none" stroke-width="1" fill="none" fill-rule="evenodd">
        <g id="Asset-11" transform="translate(20.000000, 40.000000)">
            <path d="M234.413965,274 L234.413965,250 L164.588529,250 L164.588529,274 C164.390415,276.0717 163.794251,278.085387 162.832918,279.93 C160.947733,283.726563 157.00378,286.048644 152.778055,285.85 L246.264339,285.85 C242.038614,286.048644 238.094661,283.726563 236.209476,279.93 C235.234266,278.088258 234.62451,276.07443 234.413965,274 Z" id="Path" fill="#A4AEB5"></path>
            <path d="M260.648379,284 L138.354115,284 C136.839227,284.011427 135.395956,284.648053 134.36409,285.76 C133.270573,286.898635 132.662343,288.419424 132.668285,290 L266.334406,290 C266.348198,288.423611 265.750922,286.903384 264.668329,285.76 C263.628645,284.641471 262.173436,284.004357 260.648379,284 Z" id="Path" fill="#CBD1D5"></path>
            <polygon id="Path" fill="#7C8B95" opacity="0.2" style="mix-blend-mode: multiply;" points="164.588529 250 199.501247 250 234.413965 250 234.413965 260 234.413965 270 199.501247 270 164.588529 270 164.588529 260"></polygon>
            <path d="M393.496259,250.000443 L5.50623441,250.000443 C4.03970602,250.000443 2.63521009,249.407076 1.6159601,248.35 C0.573344513,247.281725 -0.00726446399,245.844539 -6.73559905e-05,244.35 L-6.73559905e-05,5.63 C-0.00726446399,4.135461 0.573344513,2.69827458 1.6159601,1.63 C2.63857436,0.580278451 4.04264215,-0.00801695057 5.50623441,-8.08772148e-05 L393.53616,-8.08772148e-05 C395.002688,-0.00277092055 396.407184,0.592924422 397.426434,1.65 C398.46905,2.71827458 399.049658,4.155461 399.042461,5.65 L399.042461,244.37 C399.049658,245.864539 398.46905,247.301725 397.426434,248.37 C396.3942,249.429794 394.973662,250.018948 393.496259,250.000443 L393.496259,250.000443 Z" id="Path" fill="#023852"></path>
            <polygon id="Path" fill="#0099DA" points="11.9700748 225 199.501247 225 387.032419 225 387.032419 118.5 387.032419 12 199.501247 12 11.9700748 12 11.9700748 118.5"></polygon>
            <polygon id="Path" fill="#1C4C64" points="387.032419 26 199.501247 26 11.9700748 26 11.9700748 19 11.9700748 12 199.501247 12 387.032419 12 387.032419 19"></polygon>
            <path d="M205.985037,237.5 C205.979451,234.404782 203.794316,231.74426 200.765293,231.144675 C197.736271,230.545091 194.706421,232.173324 193.527735,235.03412 C192.349048,237.894916 193.349586,241.192037 195.917771,242.910122 C198.485956,244.628207 201.906992,244.289067 204.089776,242.1 C205.302483,240.877603 205.983778,239.224029 205.985037,237.5 L205.985037,237.5 Z" id="Path" fill="#356075"></path>
            <path d="M216.259352,46.39 L216.259352,205.51 C216.264836,207.849406 218.155206,209.744502 220.488778,209.750012 L316.389027,209.750012 C317.511553,209.752664 318.588869,209.306806 319.382617,208.511074 C320.176365,207.715341 320.621111,206.635332 320.618466,205.51 L320.618466,46.39 L216.259352,46.39 Z" id="Path" fill="#023852" opacity="0.3" style="mix-blend-mode: multiply;"></path>
            <path d="M319.591022,205.72 L224.618454,205.72 C222.02757,205.72 219.9257,203.617355 219.9202,201.02 L219.9202,103.6 L324.279328,103.6 L324.279328,201 C324.28345,202.245045 323.791496,203.440205 322.912718,204.32 C322.034467,205.209763 320.839628,205.713354 319.591022,205.72 Z" id="Path" fill="#FFFFFF"></path>
            <polygon id="Path" fill="#023852" points="324.309227 61.81 272.129676 61.81 219.950125 61.81 219.950125 51.08 219.950125 40.34 272.129676 40.34 324.309227 40.34 324.309227 51.08"></polygon>
            <polygon id="Path" fill="#33ADE1" points="324.309227 124.14 272.129676 124.14 219.950125 124.14 219.950125 92.8 219.950125 61.45 272.129676 61.45 324.309227 61.45 324.309227 92.8"></polygon>
            <path d="M260.957606,82.7 L266.334165,88 L271.660848,93.34 C271.936955,93.6145556 272.382247,93.6145556 272.658354,93.34 L277.965087,88 L283.291771,82.7 C283.432492,82.5638494 283.511745,82.3760571 283.511299,82.18 C283.51414,81.9834668 283.434501,81.7947588 283.291771,81.66 L277.965087,76.32 L272.638404,71 C272.356202,70.740703 271.923099,70.740703 271.640898,71 L266.334165,76.32 L261.007481,81.66 C260.871379,81.7984594 260.796029,81.9856201 260.798005,82.18 C260.784407,82.3672498 260.841358,82.5528025 260.957606,82.7 L260.957606,82.7 Z" id="Path" fill="#FFFFFF"></path>
            <polygon id="Path" fill="#FFFFFF" points="301.097257 111.82 272.129676 111.82 243.162095 111.82 243.162095 109.13 243.162095 106.43 272.129676 106.43 301.097257 106.43 301.097257 109.13"></polygon>
            <polygon id="Path" fill="#94A0A8" points="301.496259 143.22 272.129676 143.22 242.753117 143.22 242.753117 139.83 242.753117 136.45 272.129676 136.45 301.496259 136.45 301.496259 139.83"></polygon>
            <polygon id="Path" fill="#94A0A8" points="301.496259 157.85 272.129676 157.85 242.753117 157.85 242.753117 154.47 242.753117 151.09 272.129676 151.09 301.496259 151.09 301.496259 154.47"></polygon>
            <polygon id="Path" fill="#FFFFFF" opacity="0.2" points="295.112219 53.45 272.129676 53.45 249.137157 53.45 249.137157 51.31 249.137157 49.17 272.129676 49.17 295.112219 49.17 295.112219 51.31"></polygon>
            <path d="M286.852868,192.84 L256,192.84 C254.422783,192.84001 253.142653,191.561151 253.137157,189.98 L253.137157,182.19 C253.137157,180.604943 254.418896,179.32 256,179.32 L286.852868,179.32 C288.430075,179.325509 289.705736,180.60884 289.705736,182.19 L289.705736,190 C289.700263,191.577256 288.426191,192.854514 286.852868,192.86 L286.852868,192.84 Z" id="Path" fill="#023852" opacity="0.3" style="mix-blend-mode: multiply;"></path>
            <path d="M287.511222,190.31 L258.144638,190.31 C256.158137,190.304506 254.549121,188.691468 254.543641,186.7 L254.543641,180.4 C254.549121,178.408532 256.158137,176.795494 258.144638,176.79 L287.511222,176.79 C289.497724,176.795494 291.106739,178.408532 291.112219,180.4 L291.112219,186.7 C291.106739,188.691468 289.497724,190.304506 287.511222,190.31 L287.511222,190.31 Z" id="Path" fill="#FFE700"></path>
            <path d="M74.693255,46.39 L74.693255,205.51 C74.69061,206.635332 75.1353557,207.715341 75.9291037,208.511074 C76.7228517,209.306806 77.8001672,209.752664 78.9226933,209.750012 L174.822943,209.750012 C175.945469,209.752664 177.022784,209.306806 177.816532,208.511074 C178.61028,207.715341 179.055026,206.635332 179.052381,205.51 L179.052381,46.39 L74.693255,46.39 Z" id="Path" fill="#023852" opacity="0.3" style="mix-blend-mode: multiply;"></path>
            <path d="M178.024938,205.72 L83.042394,205.72 C80.4554049,205.7145 78.3596015,203.613457 78.3541147,201.02 L78.3541147,103.6 L182.713217,103.6 L182.713217,201 C182.70773,203.593457 180.611927,205.6945 178.024938,205.7 L178.024938,205.72 Z" id="Path" fill="#FFFFFF"></path>
            <polygon id="Path" fill="#023852" points="182.743142 61.81 130.563591 61.81 78.3840399 61.81 78.3840399 51.08 78.3840399 40.34 130.563591 40.34 182.743142 40.34 182.743142 51.08"></polygon>
            <polygon id="Path" fill="#1C4C64" points="182.743142 124.14 130.563591 124.14 78.3840399 124.14 78.3840399 92.8 78.3840399 61.45 130.563591 61.45 182.743142 61.45 182.743142 92.8"></polygon>
            <path d="M119.391521,82.7 L124.688279,88 L130.014963,93.34 C130.29107,93.6145556 130.736361,93.6145556 131.012469,93.34 L136.399002,88 L141.725686,82.67 C141.866407,82.5338494 141.94566,82.3460571 141.945215,82.15 C141.948055,81.9534668 141.868416,81.7647588 141.725686,81.63 L136.399002,76.29 L131.072319,71 C130.790118,70.740703 130.357015,70.740703 130.074813,71 L124.688279,76.32 L119.361596,81.66 C119.225493,81.7984594 119.150098,81.9856201 119.15208,82.18 C119.160164,82.3782563 119.246248,82.5652382 119.391521,82.7 L119.391521,82.7 Z" id="Path" fill="#FFFFFF"></path>
            <polygon id="Path" fill="#FFFFFF" points="159.531172 111.82 130.563591 111.82 101.59601 111.82 101.59601 109.13 101.59601 106.43 130.563591 106.43 159.531172 106.43 159.531172 109.13"></polygon>
            <polygon id="Path" fill="#94A0A8" points="159.930175 143.22 130.563591 143.22 101.187032 143.22 101.187032 139.83 101.187032 136.45 130.563591 136.45 159.930175 136.45 159.930175 139.83"></polygon>
            <polygon id="Path" fill="#94A0A8" points="159.930175 157.85 130.563591 157.85 101.187032 157.85 101.187032 154.47 101.187032 151.09 130.563591 151.09 159.930175 151.09 159.930175 154.47"></polygon>
            <polygon id="Path" fill="#FFFFFF" opacity="0.2" points="153.546135 53.45 130.563591 53.45 107.571072 53.45 107.571072 51.31 107.571072 49.17 130.563591 49.17 153.546135 49.17 153.546135 51.31"></polygon>
            <path d="M145.276808,192.84 L114.433915,192.84 C112.856698,192.84001 111.576568,191.561151 111.571072,189.98 L111.571072,182.19 C111.571072,180.604943 112.852811,179.32 114.433915,179.32 L145.276808,179.32 C146.857912,179.32 148.139651,180.604943 148.139651,182.19 L148.139651,190 C148.134155,191.581151 146.854025,192.86 145.276808,192.86 L145.276808,192.84 Z" id="Path" fill="#023852" opacity="0.3" style="mix-blend-mode: multiply;"></path>
            <path d="M145.945137,190.31 L116.578554,190.31 C114.592052,190.304506 112.983036,188.691468 112.977556,186.7 L112.977556,180.4 C112.983036,178.408532 114.592052,176.795494 116.578554,176.79 L145.945137,176.79 C147.931639,176.795494 149.540655,178.408532 149.546135,180.4 L149.546135,186.7 C149.540655,188.691468 147.931639,190.304506 145.945137,190.31 L145.945137,190.31 Z" id="Path" fill="#FFE700"></path>
            <path d="M11.9700748,12 L39.9002494,38.93 L67.9201995,65.85 C95.524522,92.4033333 123.122195,118.936667 150.713217,145.45 L233.645885,225 L387.032419,225 L387.032419,12 L11.9700748,12 Z" id="Path" fill="#FFFFFF" opacity="0.2"></path>
        </g>
    </g>
</svg>