<?xml version="1.0" encoding="UTF-8"?>
<svg width="440px" height="330px" viewBox="0 0 440 330" version="1.1" xmlns="http://www.w3.org/2000/svg" xmlns:xlink="http://www.w3.org/1999/xlink">
    <title>Graphic elements / Icons / Rich icons / support-chat-female</title>
    <g id="Graphic-elements-/-Icons-/-Rich-icons-/-support-chat-female" stroke="none" stroke-width="1" fill="none" fill-rule="evenodd">
        <g id="Asset-58" transform="translate(84.000000, 0.000000)">
            <path d="M125.15,47.6555891 L123.67,60.1975831 C123.5808,60.9477695 123.648906,61.7082505 123.87,62.4308157 L130,82.5697885 C130.550949,84.3905826 130.119894,86.3659354 128.86,87.7939577 L117.2,100.974018 C116.188478,102.115965 114.747398,102.788771 113.219905,102.832228 C111.692412,102.875685 110.215193,102.285904 109.14,101.203323 L94.69,86.6673716 C93.2305206,85.2067768 92.720032,83.0514661 93.37,81.0942598 L101.09,57.5456193 C101.390973,56.6549156 101.909961,55.853087 102.6,55.2126888 L115.93,42.9697885 C116.82894,42.1411059 117.979925,41.635781 119.2,41.534139 L119.2,41.534139 C120.852174,41.3905301 122.481348,41.9964832 123.635471,43.1838623 C124.789594,44.3712415 125.345889,46.013733 125.15,47.6555891 L125.15,47.6555891 Z" id="Path" fill="#003A5D"></path>
            <path d="M120.57,186.435045 L137.91,187.382175 C138.651595,187.418753 139.368343,187.660399 139.98,188.08006 L148.11,193.663142 C148.981411,194.257608 149.581715,195.171471 149.78,196.205438 L167.93,288.924471 C168.002816,289.271898 168.123989,289.607472 168.29,289.92145 L180.82,314.796073 C181.475949,316.05596 181.410712,317.568502 180.648707,318.767602 C179.886701,319.966701 178.542806,320.671582 177.12,320.618429 L171.96,320.488822 C171.103686,320.468787 170.276438,320.175232 169.6,319.65136 L157.44,310.319637 C156.809977,309.830824 156.337213,309.168876 156.08,308.415408 L152.91,299.093656 C152.791095,298.739112 152.720464,298.370259 152.7,297.996979 L152.28,289.153776 C152.250345,288.606653 152.11093,288.071015 151.87,287.57855 L126.55,236.283988 C126.409382,235.994559 126.302034,235.69021 126.23,235.376737 L116.42,191.320242 C116.132749,190.09172 116.445451,188.800138 117.263192,187.837529 C118.080933,186.874921 119.30728,186.354802 120.57,186.435045 Z" id="Path" fill="#1AA3DE"></path>
            <path d="M131.55,198.717825 L153.42,210.043505 C154.818616,210.777463 155.889424,212.00873 156.42,213.493051 L159.05,220.860725 C159.447081,221.967103 159.523329,223.162663 159.27,224.310272 L157.64,231.687915 C157.360779,232.929821 156.712589,234.058989 155.78,234.928097 L98,288.316314 C97.5266552,288.762918 97.1222675,289.276954 96.8,289.841692 L91.8,298.615106 C91.1086635,299.848332 90.8516546,301.276915 91.07,302.67281 L93.93,320.618429 C94.35,323.270393 94.34,322.403021 91.93,323.609366 L90.64,321.675227 C89.03,322.512689 87.08,323.758912 85.39,323.100906 L79.61,320.867674 C78.03,320.249547 72.61,314.995468 71.96,313.440181 L68.39,303.470393 C67.3998187,301.155916 67.9005644,298.474996 69.66,296.670997 L88.1,277.728399 C88.3187375,277.50889 88.5193862,277.272173 88.7,277.020544 L114.61,241.029607 C114.853774,240.695759 115.128301,240.385346 115.43,240.102417 L120.43,235.476435 C121.924862,234.081406 122.645089,232.048263 122.360535,230.026692 C122.07598,228.00512 120.822261,226.248152 119,225.317221 L117.66,224.659215 C116.130363,223.894875 114.979054,222.542259 114.471497,220.913202 C113.96394,219.284144 114.14394,217.519242 114.97,216.025378 L123.18,201.220242 C124.835119,198.270408 128.539863,197.162784 131.55,198.717825 Z" id="Path" fill="#33ADE1"></path>
            <polygon id="Path" fill="#023852" points="68.17 174.720544 138.7 187.013293 114.87 220.64139 78.55 220.422054 53.03 222.585498 37.9 220.212689 30.67 213.253776 28.69 195.348036 32.93 173.96284"></polygon>
            <path d="M69.41,174.9 C68.41,175.468278 68.06,174.720544 67.83,174.710574 L38.35,174.082477 C35.214927,174.009577 32.4829591,176.198652 31.88,179.266767 L28.88,194.370997 C28.7495863,195.027469 28.7225957,195.700195 28.8,196.364955 L30.41,210.980665 C30.5750497,212.476205 31.2616659,213.86646 32.35,214.908761 L36.43,218.836858 C37.3841732,219.755341 38.5995272,220.357701 39.91,220.561631 L50.44,222.216616 L101.7,180.57281 L69.41,174.9 Z" id="Path" fill="#023852"></path>
            <path d="M150.51,296.411782 L146.68,300.848338 C146.488384,301.069415 146.36051,301.338173 146.31,301.625982 L145.15,308.156193 C145.105014,308.37995 145.105014,308.610382 145.15,308.834139 L148.97,323.788822 C149.163644,324.53567 149.857242,325.043883 150.63,325.005136 L151.35,325.005136 C151.79467,324.987903 152.212649,324.789062 152.505821,324.45529 C152.798993,324.121517 152.94154,323.682207 152.9,323.240483 L152.28,315.85287 C152.249015,315.523039 152.322454,315.191818 152.49,314.90574 L152.49,314.90574 C152.741385,314.467901 153.182477,314.171293 153.683837,314.102955 C154.185198,314.034616 154.68996,314.2023 155.05,314.556798 L164.25,323.599396 C164.484319,323.83254 164.784288,323.989027 165.11,324.048036 L176.52,326.041994 L176.82,326.041994 L194.56,325.792749 C195.278672,325.782671 195.905901,325.30448 196.103963,324.615652 C196.302026,323.926825 196.024168,323.18996 195.42,322.801813 L181.22,313.669486 C180.640489,313.293306 179.885361,313.325342 179.34,313.749245 L177.06,315.503927 C176.801533,315.698695 176.492886,315.81625 176.17,315.8429 L169.75,316.261631 C169.376095,316.28364 169.005804,316.178163 168.7,315.962538 L157.08,307.83716 C156.787347,307.632794 156.569645,307.338733 156.46,306.999698 L153.28,296.98006 C153.097546,296.426905 152.63218,296.013353 152.060106,295.89599 C151.488031,295.778626 150.896696,295.975391 150.51,296.411782 Z" id="Path" fill="#003A5D"></path>
            <path d="M64.89,296.740785 L61.06,301.177341 C60.8731897,301.396461 60.7488564,301.661593 60.7,301.945015 L59.53,308.475227 C59.4801351,308.701837 59.4801351,308.936531 59.53,309.163142 L63.35,324.117825 C63.5428898,324.860858 64.2309099,325.368039 65,325.334139 L65.72,325.334139 C66.1643978,325.313937 66.5814977,325.114614 66.8756393,324.781884 C67.1697808,324.449155 67.315725,324.011569 67.28,323.569486 L66.65,316.181873 C66.6235461,315.852338 66.6966884,315.522457 66.86,315.234743 L66.86,315.234743 C67.1085639,314.793603 67.5501227,314.49409 68.0529587,314.425551 C68.5557948,314.357011 69.061788,314.527367 69.42,314.885801 L78.63,323.928399 C78.8624762,324.162224 79.1637814,324.315915 79.49,324.367069 L90.89,326.361027 L91.19,326.361027 L109,326.111782 C109.718672,326.101704 110.345901,325.623513 110.543963,324.934686 C110.742026,324.245858 110.464168,323.508993 109.86,323.120846 L95.65,313.98852 C95.0688423,313.618386 94.3175177,313.650261 93.77,314.068278 L91.5,315.822961 C91.2410414,316.023656 90.9273754,316.141794 90.6,316.161934 L84.18,316.580665 C83.8241919,316.593703 83.4736069,316.492341 83.18,316.291541 L71.49,308.166163 C71.1961188,307.958703 70.9783786,307.66109 70.87,307.318731 L67.68,297.348943 C67.5112451,296.78089 67.0457908,296.349407 66.4652647,296.222866 C65.8847386,296.096324 65.281139,296.294777 64.89,296.740785 Z" id="Path" fill="#003A5D"></path>
            <path d="M145,142.37855 L141,91.3531722 C140.995042,91.3101112 140.995042,91.266626 141,91.223565 L140.79,81.0344411 C140.781055,80.3901474 140.501785,79.7790554 140.02,79.3495468 L136.76,76.4483384 C136.515966,76.2254082 136.225796,76.058639 135.91,75.9598187 L128.59,73.6667674 C128.183991,73.5570543 127.756009,73.5570543 127.35,73.6667674 L119.88,75.4513595 C118.71875,75.7272694 117.954515,76.8335687 118.11,78.0135952 L118.11,78.2728097 C118.270375,79.3727088 119.186781,80.2070807 120.3,80.2667674 L121.3,80.2667674 C122.382415,80.318853 123.285919,81.1080637 123.48,82.170997 L124.68,88.7610272 C124.804497,89.4131744 125.200648,89.982052 125.77,90.326284 L129.6,92.7190332 C130.298127,93.1419809 130.723089,93.8985492 130.72,94.7129909 L130.39,127.613293 C130.380062,127.722737 130.380062,127.832852 130.39,127.942296 L131.53,138.370695 C131.679543,139.013624 132.080703,139.570261 132.644169,139.916682 C133.207635,140.263103 133.886634,140.370551 134.53,140.215106 L142.62,138.729607 C143.79,138.470393 145.12,143.564955 145,142.37855 Z" id="Path" fill="#1AA3DE"></path>
            <path d="M131.78,139.716616 L130.28,127.184592 L112.06,102.599094 L104.57,78.9108761 L91.2,63.5075529 L85.2,64.6540785 L79.09,72.929003 L64.45,81.5528701 L47.51,115.001511 L33,155.57855 L32,172.706647 C31.9481811,173.66909 32.2923073,174.610976 32.9528793,175.314712 C33.6134513,176.018448 34.5333273,176.423158 35.5,176.435347 L84.22,177.123829 C85.4086206,177.142314 86.5541757,176.679962 87.394766,175.841912 C88.2353563,175.003861 88.699109,173.861767 88.68,172.676737 L88.55,162.507553 L107.34,145.030514 L131.78,139.716616 Z" id="Path" fill="#FFFFFF"></path>
            <polygon id="Path" fill="#B2E0F4" points="113.18 106.676737 114.81 117.673414 113.18 136.945015 129.62 138.340785 128.94 127.413897"></polygon>
            <path d="M132.34,38.7824773 L130,49.0114804 C130,49.0114804 130,49.1012085 130,49.1410876 L128.87,59.9782477 C128.81849,60.54088 128.346676,60.9724293 127.78,60.9752266 L124.91,60.9752266 C124.542664,60.9715304 124.199108,61.1559634 124,61.4637462 L117.87,70.6957704 C117.589042,71.1223595 117.048196,71.2965663 116.57,71.1145015 L110.73,68.9012085 C110.259383,68.7166257 109.723311,68.8823475 109.44,69.3 L103.72,77.644713 C103.532642,77.9243873 103.225957,78.1018159 102.889439,78.1252229 C102.552922,78.14863 102.224496,78.0153776 102,77.7643505 L88,64.5543807 C87.7027621,64.2689425 87.5907878,63.8416459 87.71,63.4477341 L90.81,53.1489426 C90.8501884,52.9750883 90.8501884,52.7943981 90.81,52.6205438 L88.33,40.4374622 C88.2807111,40.2088794 88.3088462,39.9704538 88.41,39.7595166 L95.7,24.5655589 C95.8399021,24.2781282 96.0995814,24.0666367 96.41,23.9873112 L112.56,19.7302115 C112.917562,19.6443258 113.294386,19.7457608 113.56,19.9993958 L132,37.7555891 C132.290025,38.0122093 132.419796,38.404149 132.34,38.7824773 Z" id="Path" fill="#33ADE1"></path>
            <path d="M116.8,70.5761329 L111.3,62.0619335 C111.233018,61.9580191 111.113298,61.9002652 110.99,61.9123867 L100.82,63.0688822 C100.70233,63.0794678 100.600084,63.1538342 100.554048,63.2623164 C100.508013,63.3707986 100.525679,63.4957438 100.6,63.5873112 L107.18,71.7625378 C107.240106,71.8460576 107.336895,71.895587 107.44,71.895587 C107.543105,71.895587 107.639894,71.8460576 107.7,71.7625378 L109.7,68.7716012 C109.788881,68.6497378 109.947778,68.6009942 110.09,68.6519637 L116.38,71.044713 C116.511507,71.1045621 116.666777,71.0721101 116.763103,70.9646431 C116.859428,70.857176 116.874382,70.6997145 116.8,70.5761329 L116.8,70.5761329 Z" id="Path" fill="#7FCCEC" style="mix-blend-mode: multiply;"></path>
            <path d="M128.07,58.692145 L129.07,49.0214502 L124.4,59.7489426 L126.91,59.7489426 C127.511712,59.746472 128.013433,59.2893879 128.07,58.692145 L128.07,58.692145 Z" id="Path" fill="#7FCCEC" style="mix-blend-mode: multiply;"></path>
            <path d="M131.55,37.7854985 L115.67,30.9063444 C115.389761,30.7890651 115.065678,30.8953492 114.91,31.1555891 L104.63,48.2138973 C104.515882,48.3766965 104.329217,48.473682 104.13,48.473682 C103.930783,48.473682 103.744118,48.3766965 103.63,48.2138973 L100.57,42.5311178 C100.495648,42.3884283 100.366808,42.2815899 100.212536,42.2346979 C100.058264,42.1878058 99.8915526,42.2048092 99.75,42.2818731 L95.27,44.6646526 C95.1050727,44.7562023 94.9909632,44.9176749 94.96,45.1033233 L93.96,50.9655589 C93.9517549,51.0332677 93.927787,51.098127 93.89,51.1549849 L89.89,58.7021148 C89.7932003,58.8774695 89.6160531,58.9941099 89.4162857,59.0140263 C89.2165182,59.0339427 89.0197118,58.9545846 88.89,58.8018127 L80.32,48.3933535 C80.2069916,48.2535643 80.1629378,48.0705613 80.2,47.894864 L82.42,37.2870091 C82.4377555,37.212598 82.4681981,37.1417801 82.51,37.0776435 L93.51,20.6574018 C93.5998676,20.5177955 93.7455454,20.4233911 93.91,20.3981873 L113.48,16.9486405 C113.616277,16.9226459 113.757371,16.943746 113.88,17.0084592 L131.24,26.778852 C131.413931,26.878363 131.526498,27.0579261 131.54,27.2574018 L132.390086,37.2271903 C132.393447,37.4307487 132.292814,37.62208 132.122906,37.7350099 C131.952997,37.8479398 131.737144,37.8669624 131.55,37.7854985 Z" id="Path" fill="#023852"></path>
            <path d="M93.82,42.5111782 C93.7456484,42.3684887 93.616808,42.2616503 93.462536,42.2147583 C93.3082641,42.1678662 93.1415526,42.1848696 93,42.2619335 L88.57,44.6646526 C88.4050727,44.7562023 88.2909632,44.9176749 88.26,45.1033233 L87.26,50.9655589 C87.2507292,51.0315935 87.2304496,51.0956181 87.2,51.1549849 L85.36,54.5646526 L88.86,58.8217523 C88.9897118,58.9745242 89.1865182,59.0538822 89.3862857,59.0339659 C89.5860531,59.0140495 89.7632003,58.8974091 89.86,58.7220544 L93.86,51.1749245 C93.897787,51.1180666 93.9217549,51.0532073 93.93,50.9854985 L94.93,45.1232628 C94.9472238,45.0280853 94.9885272,44.938865 95.05,44.8640483 L93.82,42.5111782 Z" id="Path" fill="#023852" style="mix-blend-mode: multiply;"></path>
            <path d="M131.54,27.2274924 C131.526498,27.0280167 131.413931,26.8484536 131.24,26.7489426 L113.88,16.9486405 C113.757371,16.8839273 113.616277,16.8628271 113.48,16.8888218 L108.6,17.7561934 L124.54,26.729003 C124.713931,26.828514 124.826498,27.0080771 124.84,27.2075529 L125.52,35.1833837 L131.52,37.7954683 C131.715606,37.8819183 131.942588,37.8579757 132.115717,37.7326302 C132.288847,37.6072848 132.381924,37.3995064 132.36,37.1873112 L131.54,27.2274924 Z" id="Path" fill="#1C4C64"></path>
            <polygon id="Path" fill="#B2E0F4" points="103.71 148.390332 93.35 148.629607 64.92 111.282779 88.55 162.417825"></polygon>
            <path d="M108.94,135.977946 L98.67,140.205136 C98.5320303,140.263549 98.4089971,140.352138 98.31,140.46435 L92.63,147.183988 C92.3914738,147.462792 92.3378225,147.854626 92.4926684,148.186967 C92.6475142,148.519309 92.9824473,148.731183 93.35,148.72932 L177.65,148.72932 C178.006528,148.731311 178.332824,148.529928 178.49,148.210876 L180.28,144.661631 C180.45065,144.350369 180.774335,144.152948 181.13,144.143202 L195.46,144.143202 C195.827553,144.145081 196.162486,143.933206 196.317332,143.600864 C196.472177,143.268523 196.418526,142.87669 196.18,142.597885 L188.18,133.146526 C188.002145,132.943941 187.749669,132.82168 187.48,132.807553 L174.11,132.47855 C173.862164,132.479195 173.623398,132.57157 173.44,132.737764 L166.09,139.577039 C165.889911,139.754141 165.62698,139.843914 165.36,139.826284 L115.26,135.389728 C115.203766,135.379853 115.146234,135.379853 115.09,135.389728 L109.21,135.938066 C109.118336,135.935223 109.0269,135.948728 108.94,135.977946 Z" id="Path" fill="#33ADE1"></path>
            <path d="M95.76,145.65861 L98.92,142.189124 C99.3670008,141.699652 100.019021,141.448496 100.68,141.511178 L164.85,147.772205 C164.954934,147.772205 165.04,147.857014 165.04,147.961631 C165.04,148.066248 164.954934,148.151057 164.85,148.151057 C150.93,148.02145 108.24,147.612689 96.39,147.55287 C95.9324338,147.558815 95.5236991,147.268636 95.3796777,146.835598 C95.2356563,146.40256 95.3895189,145.926399 95.76,145.65861 L95.76,145.65861 Z" id="Path" fill="#7FCCEC" style="mix-blend-mode: multiply;"></path>
            <rect id="Rectangle" fill="#023852" x="101.24" y="148.699396" width="171.76" height="13.8181269"></rect>
            <rect id="Rectangle" fill="#FFFFFF" x="177.65" y="144.193051" width="32.94" height="4.50634441"></rect>
            <path d="M133.33,328.913293 L156.26,185.886707 C157.99,175.099396 167.47,167.273112 178.79,167.273112 L196,167.273112 C207.32,167.273112 216.8,175.099396 218.53,185.886707 L241.46,328.913293 L246.31,328.913293 L223.31,185.188822 C221.21,172.128399 209.75,162.64713 196.04,162.64713 L178.79,162.64713 C165.08,162.64713 153.62,172.128399 151.52,185.188822 L128.52,328.913293 L133.33,328.913293 Z" id="Path" fill="#7C8B95"></path>
            <path d="M217.076464,38.4319916 L222.17631,38.4305183 C222.800392,38.4297279 223.306456,38.9355 223.306637,39.5595817 C223.306637,39.5597851 223.306637,39.5599885 223.306027,39.5601918 L223.281964,135.38531 C223.281197,136.009154 222.775524,136.514846 222.15168,136.515637 L217.051834,136.51711 C216.427752,136.5179 215.921688,136.012128 215.921508,135.388047 C215.921508,135.387843 215.921508,135.38764 215.922118,135.387436 L215.94618,39.5623181 C215.946947,38.9384747 216.452621,38.4327822 217.076464,38.4319916 Z" id="Rectangle" fill="#FFFFFF" transform="translate(219.614072, 87.473814) rotate(4.770000) translate(-219.614072, -87.473814) "></path>
            <path d="M244.59,148.659517 L220,148.659517 L220,143.864048 L244.6,143.864048 C247.140755,143.868017 249.459623,142.42188 250.56767,140.142375 C251.675717,137.86287 251.377422,135.152228 249.8,133.166465 L219,94.2743202 L222.77,91.2833837 L253.58,130.165559 C256.302158,133.597289 256.813226,138.279835 254.895112,142.214964 C252.976997,146.150093 248.968419,148.642902 244.58,148.629607 L244.59,148.659517 Z" id="Path" fill="#FFFFFF"></path>
            <polygon id="Path" fill="#66C3E9" points="229.18 107.304834 229.77 100.196375 222.92 91.5326284 222.33 98.6410876"></polygon>
            <path d="M214.45,54.0362538 C214.45,54.0362538 214.45,53.9864048 214.45,53.9664653 C214.45,53.9465257 214.45,53.9664653 214.45,54.0362538 Z" id="Path" fill="#FFE700"></path>
            <path d="M165.27,27.5066465 L232.66,27.5066465 C233.869504,27.5066465 234.85,28.4841807 234.85,29.6900302 L234.85,47.0773414 C234.85,48.2831909 233.869504,49.2607251 232.66,49.2607251 L219.33,49.2607251 C219.33,49.2607251 215.99,49.0712991 214.63,53.0691843 C214.604821,53.1413172 214.536607,53.1896584 214.46,53.1896584 C214.383393,53.1896584 214.315179,53.1413172 214.29,53.0691843 C213.61,49.4800604 209.6,49.2706949 209.59,49.2607251 L165.27,49.2607251 C164.060496,49.2607251 163.08,48.2831909 163.08,47.0773414 L163.08,29.6900302 C163.08,28.4841807 164.060496,27.5066465 165.27,27.5066465 L165.27,27.5066465 Z" id="Path" fill="#FFE700"></path>
            <rect id="Rectangle" fill="#023852" x="175.41" y="36.6389728" width="44.93" height="4.12749245"></rect>
            <path d="M156.94,26.5296073 C156.94,26.5296073 156.94,26.5296073 156.94,26.4697885 L156.94,26.5296073 Z" id="Path" fill="#FFFFFF"></path>
            <path d="M206.13,0 L138.73,0 C137.520496,0 136.54,0.977534173 136.54,2.18338369 L136.54,19.5806647 C136.54,20.7865142 137.520496,21.7640483 138.73,21.7640483 L152.06,21.7640483 C152.06,21.7640483 155.41,21.5646526 156.77,25.5725076 C156.788808,25.6481051 156.856876,25.7011908 156.935,25.7011908 C157.013124,25.7011908 157.081192,25.6481051 157.1,25.5725076 C157.78,21.9833837 161.79,21.7640483 161.81,21.7640483 L206.13,21.7640483 C207.339504,21.7640483 208.32,20.7865142 208.32,19.5806647 L208.32,2.18338369 C208.32,0.977534173 207.339504,0 206.13,0 L206.13,0 Z" id="Path" fill="#FFFFFF"></path>
            <rect id="Rectangle" fill="#023852" transform="translate(173.525000, 11.196073) rotate(-180.000000) translate(-173.525000, -11.196073) " x="151.06" y="9.13232628" width="44.93" height="4.12749245"></rect>
            <rect id="Rectangle" fill="#303436" transform="translate(82.745000, 258.745921) rotate(-180.000000) translate(-82.745000, -258.745921) " x="78.57" y="245.1571" width="8.35" height="27.1776435"></rect>
            <rect id="Rectangle" fill="#7C8B95" transform="translate(82.750000, 239.449396) rotate(-180.000000) translate(-82.750000, -239.449396) " x="77.96" y="232.684894" width="9.58" height="13.529003"></rect>
            <path d="M121,230.302115 C121.883897,230.300394 122.706375,229.851092 123.183532,229.109299 C123.660688,228.367505 123.727159,227.434837 123.36,226.633233 C117.23,213.343505 90.36,216.055287 87.3,216.414199 L55,219.175831 C45.93,220.003323 36.38,217.879758 30.69,211.65861 C25,205.437462 23.77,195.786707 25.43,186.863746 L29.66,162.607251 C30.66,157.173716 28.9,151.022356 27.61,146.535952 L11.66,91.1338369 C11.4045551,90.2433712 10.692017,89.5564136 9.79079184,89.3317342 C8.88956669,89.1070548 7.93657206,89.3787879 7.29079181,90.0445741 C6.64501156,90.7103603 6.40455508,91.669051 6.66,92.5595166 L22.6,147.961631 C23.81,152.178852 25.32,157.432931 24.53,161.69003 L21.59,186.863746 C19.64,197.381873 21.14,206.803323 27.95,214.190937 C34.76,221.57855 46.38,224.061027 57.04,223.083988 L87.86,221.56858 C95.18,220.731118 114.86,220.402115 118.68,228.806647 C119.101743,229.707403 120.003022,230.288366 121,230.302115 Z" id="Path" fill="#303436"></path>
            <ellipse id="Oval" fill="#303436" cx="117.44" cy="228.547432" rx="6.21" ry="6.19123867"></ellipse>
            <ellipse id="Oval" fill="#303436" cx="6.21" cy="94.0649547" rx="6.21" ry="6.19123867"></ellipse>
            <path d="M143.6,329.003021 L142.32,320.678248 C141.933107,318.18443 140.240307,316.086226 137.88,315.174924 L91.54,297.309063 C86.7172448,295.446019 83.3308612,291.067391 82.75,285.943505 C82.1763367,291.057926 78.8071601,295.43422 74,297.309063 L27.62,315.174924 C25.2622103,316.089654 23.5707912,318.186147 23.18,320.678248 L21.9,329.003021 L15,329.003021 L16.47,319.64139 C17.2439601,314.742348 20.5672761,310.620678 25.2,308.814199 L71.33,288.126888 C74.0526675,287.077192 75.8482993,284.467133 75.85,281.556798 L76.01,275.32568 C76.0099949,272.378266 78.4036597,269.987372 81.36,269.981873 L84.14,269.981873 C85.5606425,269.981873 86.9229536,270.545195 87.9265612,271.547641 C88.9301688,272.550087 89.4926554,273.909332 89.49,275.32568 L89.66,281.556798 C89.6572713,284.465511 91.4494257,287.076291 94.17,288.126888 L140.35,308.864048 C144.991511,310.658576 148.319636,314.78621 149.08,319.691239 L150.56,329.05287 L143.6,329.003021 Z" id="Path" fill="#7C8B95"></path>
            <path d="M82.75,238.636858 L82.75,238.636858 C79.1166328,238.625885 76.1754885,235.68917 76.17,232.066767 L76.17,223.712085 C76.17,220.103021 79.17,220.441994 82.75,220.441994 L82.75,220.441994 C86.37,220.441994 89.34,220.103021 89.34,223.712085 L89.34,232.066767 C89.3290181,235.690783 86.3849979,238.625909 82.75,238.636858 Z" id="Path" fill="#7C8B95"></path>
            <path d="M27.83,214.709366 C21.3938971,207.867176 18.5020845,198.437345 20,189.176737 L23.34,168.190332 C24.6451242,159.945142 31.7774803,153.874939 40.15,153.883676 L99.33,153.883676 C103.578223,153.878797 107.572791,155.899004 110.078174,159.319452 C112.583557,162.7399 113.297806,167.148354 112,171.181269 L99.27,210.811178 C97.3598824,216.789511 92.021708,221.029041 85.75,221.54864 L52.75,224.330211 C51.88,224.4 51,224.43988 50.13,224.43988 C41.6602052,224.441819 33.5751673,220.913946 27.83,214.709366 L27.83,214.709366 Z M40.18,159.058006 C34.3427051,159.031389 29.3677741,163.274247 28.49,169.027795 L25.15,189.96435 C23.930879,197.644332 26.3197292,205.45683 31.6288248,211.152703 C36.9379204,216.848576 44.5781616,219.795808 52.35,219.145921 L85.35,216.36435 C89.5271698,216.015423 93.080769,213.189006 94.35,209.206042 L107.08,169.576133 C107.868369,167.118025 107.43242,164.432386 105.906631,162.34766 C104.380841,160.262935 101.948531,159.029596 99.36,159.028097 L40.18,159.058006 Z" id="Shape" fill="#7C8B95" fill-rule="nonzero"></path>
            <ellipse id="Oval" fill="#7C8B95" cx="6.21" cy="94.0649547" rx="3.1" ry="3.09063444"></ellipse>
            <ellipse id="Oval" fill="#96A6AE" cx="117.31" cy="228.587311" rx="3.1" ry="3.09063444"></ellipse>
        </g>
    </g>
</svg>