<?xml version="1.0" encoding="UTF-8"?>
<svg width="440px" height="330px" viewBox="0 0 440 330" version="1.1" xmlns="http://www.w3.org/2000/svg" xmlns:xlink="http://www.w3.org/1999/xlink">
    <title>Graphic elements / Icons / Rich icons / support-technical</title>
    <g id="Graphic-elements-/-Icons-/-Rich-icons-/-support-technical" stroke="none" stroke-width="1" fill="none" fill-rule="evenodd">
        <g id="technical-support" transform="translate(84.000000, 0.000000)" fill-rule="nonzero">
            <g id="Group" opacity="0.2" transform="translate(10.966767, 10.966767)" fill="#023852">
                <path d="M200.472508,0.31886302 L8.91299094,0.31886302 C6.71971208,0.305284676 4.60303564,1.1248732 2.99093656,2.61208459 C1.4367426,4.03736283 0.547793696,6.04653191 0.53836858,8.15528701 L0.53836858,186.435045 C0.547793696,188.5438 1.4367426,190.552969 2.99093656,191.978248 C4.60303564,193.465459 6.71971208,194.285048 8.91299094,194.271299 L50.5567976,194.271299 L50.5567976,228.6571 L68.9111782,211.469184 L87.2555891,194.271299 L200.472508,194.271299 C202.665786,194.285048 204.782463,193.465459 206.394562,191.978248 C207.948756,190.552969 208.837705,188.5438 208.84713,186.435045 L208.84713,8.15528701 C208.83258,6.04348683 207.936193,4.03384673 206.374622,2.61208459 C204.767569,1.12957948 202.658912,0.310337944 200.472508,0.31886302 Z" id="Path"></path>
            </g>
            <path d="M200.861329,-0.000170212905 L9.2918429,-0.000170212905 C7.09856404,-0.0137485569 4.9818876,0.805839964 3.36978852,2.29305136 C1.81607421,3.72284656 0.927504853,5.73476987 0.917220544,7.84622356 L0.917220544,186.135952 C0.92664566,188.244707 1.81559457,190.253876 3.36978852,191.679154 C4.97819151,193.173455 7.09646832,193.99723 9.2918429,193.982175 L50.9356495,193.982175 L50.9356495,228.367976 L69.2900302,211.170091 L87.6444109,193.982175 L200.861329,193.982175 C203.053267,193.994686 205.167525,193.171088 206.773414,191.679154 C208.327608,190.253876 209.216557,188.244707 209.225982,186.135952 L209.225982,7.84622356 C209.215698,5.73476987 208.327128,3.72284656 206.773414,2.29305136 C205.164373,0.807336246 203.051355,-0.0122152137 200.861329,-0.000170212905 Z" id="Path" fill="#0099DA"></path>
            <path d="M174.850151,327.009063 C174.943393,327.63598 175.283574,328.199537 175.794863,328.574107 C176.306151,328.948677 176.946045,329.103125 177.571903,329.003021 L183.753172,328.006042 L246.712387,317.936556 L249.912689,317.418127 L252.903625,316.949547 C253.530542,316.856305 254.094099,316.516124 254.468669,316.004835 C254.843239,315.493547 254.997687,314.853653 254.897583,314.227795 L251.697281,294.228399 C251.597177,293.602541 251.751625,292.962647 252.126195,292.451358 C252.500765,291.940069 253.064322,291.599888 253.691239,291.506647 L257.130816,290.958308 C257.757733,290.865066 258.321289,290.524885 258.695859,290.013597 C259.07043,289.502308 259.224877,288.862414 259.124773,288.236556 L255.954381,268.406647 C255.854277,267.780789 256.008724,267.140894 256.383295,266.629606 C256.757865,266.118317 257.321421,265.778136 257.948338,265.684894 L261.348036,265.146526 C261.974953,265.053284 262.538509,264.713103 262.91308,264.201814 C263.28765,263.690526 263.442098,263.050631 263.341994,262.424773 L253.661329,201.888218 C253.565566,201.262514 253.224773,200.700627 252.714149,200.326544 C252.203525,199.95246 251.565038,199.796925 250.939577,199.89426 L247.330514,200.472508 C246.704656,200.572611 246.064761,200.418164 245.553473,200.043593 C245.042184,199.669023 244.702003,199.105467 244.608761,198.47855 L244.409366,197.242296 C244.316124,196.615379 243.975943,196.051823 243.464654,195.677252 C242.953365,195.302682 242.313471,195.148235 241.687613,195.248338 L238.05861,195.836556 C237.433149,195.93389 236.794663,195.778356 236.284038,195.404272 C235.773414,195.030188 235.432621,194.468302 235.336858,193.842598 L235.087613,192.267372 C234.99185,191.641668 234.651057,191.079782 234.140433,190.705698 C233.629809,190.331614 232.991322,190.176079 232.365861,190.273414 L221.399094,192.028097 C220.773236,192.128201 220.133341,191.973753 219.622053,191.599183 C219.110764,191.224612 218.770583,190.661056 218.677341,190.034139 L218.477946,188.797885 C218.389707,188.170548 218.052218,187.6053 217.541828,187.230014 C217.031439,186.854727 216.391277,186.701115 215.766163,186.803927 L195.906344,189.97432 C195.280486,190.074424 194.640592,189.919977 194.129304,189.545406 C193.618015,189.170836 193.277834,188.60728 193.184592,187.980363 L192.975227,186.66435 C192.879464,186.038647 192.538671,185.47676 192.028046,185.102677 C191.517422,184.728593 190.878936,184.573058 190.253474,184.670393 L177.771299,186.66435 C177.146585,186.764335 176.507868,186.609613 175.99816,186.234828 C175.488453,185.860043 175.150337,185.296505 175.059517,184.670393 L170.104532,154.531722 C170.01129,153.904805 169.671109,153.341249 169.15982,152.966678 C168.648532,152.592108 168.008637,152.43766 167.382779,152.537764 L164.461631,153.006344 C163.835773,153.106448 163.195879,152.952001 162.684591,152.57743 C162.173302,152.20286 161.833121,151.639304 161.739879,151.012387 L161.500604,149.477039 C161.407362,148.850122 161.067181,148.286566 160.555893,147.911996 C160.044604,147.537425 159.40471,147.382978 158.778852,147.483082 L148.290634,149.158006 C147.663717,149.251248 147.100161,149.591429 146.725591,150.102718 C146.35102,150.614006 146.196573,151.2539 146.296677,151.879758 L146.545921,153.415106 C146.646025,154.040964 146.491578,154.680858 146.117007,155.192147 C145.742437,155.703435 145.178881,156.043616 144.551964,156.136858 L141.561027,156.615408 C140.93411,156.70865 140.370554,157.048831 139.995984,157.560119 C139.621413,158.071408 139.466966,158.711302 139.567069,159.33716 L150.40423,227.051964 C150.501564,227.677425 150.346029,228.315911 149.971946,228.826536 C149.597862,229.33716 149.035976,229.677953 148.410272,229.773716 L143.923867,230.481571 C143.299153,230.581555 142.660436,230.426833 142.150728,230.052049 C141.641021,229.677264 141.302905,229.113726 141.212085,228.487613 L140.982779,227.101813 C140.889537,226.474896 140.549357,225.91134 140.038068,225.536769 C139.526779,225.162199 138.886885,225.007751 138.261027,225.107855 L125.629305,227.101813 L117.643505,228.487613 L117.174924,228.567372 L120.66435,250.421148 C120.757592,251.048065 121.097773,251.611621 121.609062,251.986192 C122.120351,252.360762 122.760245,252.51521 123.386103,252.415106 L126.915408,251.846828 C127.540869,251.749493 128.179356,251.905028 128.68998,252.279112 C129.200604,252.653195 129.541397,253.215082 129.63716,253.840785 L130.354985,258.287311 C130.443224,258.914648 130.780712,259.479896 131.291102,259.855183 C131.801492,260.230469 132.441654,260.384082 133.066767,260.281269 L136.586103,259.722961 C137.211961,259.622857 137.851855,259.777304 138.363143,260.151875 C138.874432,260.526445 139.214613,261.090001 139.307855,261.716918 L141.232024,273.750453 C141.325266,274.37737 141.665447,274.940926 142.176736,275.315497 C142.688024,275.690067 143.327918,275.844515 143.953776,275.744411 L147.463142,275.186103 C148.089,275.085999 148.728894,275.240446 149.240183,275.615017 C149.751471,275.989587 150.091652,276.553143 150.184894,277.18006 L152.059215,288.904532 C152.152456,289.531449 152.492637,290.095005 153.003926,290.469575 C153.515215,290.844146 154.155109,290.998593 154.780967,290.898489 L158.140785,290.360121 C158.766247,290.262786 159.404733,290.418321 159.915358,290.792405 C160.425982,291.166488 160.766775,291.728375 160.862538,292.354079 L162.696979,303.819335 C162.792742,304.445039 163.133535,305.006925 163.644159,305.381009 C164.154783,305.755093 164.79327,305.910628 165.418731,305.813293 L168.928097,305.254985 C169.553558,305.15765 170.192044,305.313185 170.702669,305.687269 C171.213293,306.061353 171.554086,306.623239 171.649849,307.248943" id="Path" fill="#06233C" opacity="0.2"></path>
            <path d="M261.208459,184.78006 L252.903625,186.106042 L251.956495,180.174018 L243.641692,181.50997 L242.644713,175.238973 L227.022054,177.74139 L226.025076,171.819335 L201.479456,175.747432 L200.482477,169.765559 L183.444109,172.477341 L177.831118,137.373716 L170.19426,138.58006 L169.197281,132.348943 L154.023263,134.771601 L155.020242,141.002719 L147.343505,142.229003 L158.918429,214.639577 L149.746224,216.105136 L148.749245,210.023565 L133.794562,212.426284 L125.738973,213.712387 L125.260423,213.792145 L129.138671,237.988822 L137.353776,236.682779 L138.819335,245.815106 L147.024471,244.499094 L149.696375,261.228399 L157.901511,259.922356 L160.513595,276.362538 L168.559215,275.066465 L171.14139,291.227492 L179.346526,289.91148 L182.277644,308.216012 L183.274622,314.596677 L191.798792,313.240785 L254.758006,303.161329 L257.948338,302.65287 L263.292145,301.805438 L259.30423,277.110272 L267.439577,275.814199 L263.51148,251.298489 L271.616918,250.002417 L261.208459,184.78006 Z M190.811782,306.860121 L187.820846,288.226586 L179.61571,289.532628 L177.003625,273.172205 L168.958006,274.458308 L166.365861,258.307251 L158.160725,259.613293 L155.528701,243.163142 L147.323565,244.479154 L145.808157,234.987915 L137.583082,236.283988 L134.791541,218.816918 L149.4571,216.474018 L150.454079,222.545619 L159.955287,221.030211 L164.401813,248.825982 L172.238066,247.579758 L155.189728,141.162236 L169.984894,138.799396 L187.013293,245.256798 L194.849547,244.010574 L184.441088,178.867976 L201.150453,176.196073 L201.78852,180.183988 L202.107553,182.177946 L206.414502,209.096375 L212.805136,208.099396 L208.498187,181.180967 L227.121752,178.19003 L227.749849,182.098187 L228.068882,184.092145 L232.375831,211.010574 L238.756495,210.013595 L234.449547,183.095166 L243.492145,181.649547 L244.489124,187.910574 L252.783988,186.584592 L263.06284,250.859819 L254.967372,252.145921 L258.955287,276.841088 L250.829909,278.13716 L253.820846,296.770695 L190.811782,306.860121 Z" id="Shape" fill="#023852"></path>
            <polygon id="Path" fill="#FFFFFF" points="190.811782 306.860121 187.820846 288.226586 179.61571 289.532628 177.003625 273.172205 168.958006 274.458308 166.365861 258.307251 158.160725 259.613293 155.528701 243.163142 147.323565 244.479154 145.808157 234.987915 137.583082 236.283988 134.791541 218.816918 149.4571 216.474018 150.454079 222.545619 159.955287 221.030211 164.401813 248.825982 172.238066 247.579758 155.189728 141.162236 169.984894 138.799396 187.013293 245.256798 194.849547 244.010574 184.441088 178.867976 201.150453 176.196073 201.78852 180.183988 202.117523 182.177946 206.414502 209.096375 212.805136 208.099396 208.498187 181.180967 227.121752 178.19003 227.749849 182.098187 228.068882 184.092145 232.375831 211.010574 238.756495 210.013595 234.449547 183.095166 243.492145 181.649547 244.489124 187.910574 252.783988 186.584592 263.06284 250.859819 254.967372 252.145921 258.955287 276.841088 250.829909 278.13716 253.820846 296.770695"></polygon>
            <polygon id="Path" fill="#023852" points="82.0613293 75.3117825 78.4123867 71.6528701 74.7634441 68.0039275 60.1377644 82.5697885 45.5220544 97.1356495 45.5519637 97.1555891 45.5719033 97.1854985 45.5519637 97.2054381 45.5220544 97.2353474 60.1377644 111.801208 74.7634441 126.367069 78.4123867 122.708157 82.0613293 119.059215 71.1244713 108.122356 60.1876133 97.1854985 71.1244713 86.2486405"></polygon>
            <polygon id="Path" fill="#FFE700" points="120.494864 119.059215 124.153776 122.708157 127.802719 126.367069 142.418429 111.801208 157.034139 97.2353474 157.014199 97.2054381 156.98429 97.1854985 157.014199 97.1555891 157.034139 97.1356495 142.418429 82.5697885 127.802719 68.0039275 124.153776 71.6528701 120.494864 75.3117825 131.431722 86.2486405 142.36858 97.1854985 131.431722 108.122356"></polygon>
            <polygon id="Path" fill="#FFFFFF" points="97.8036254 134.911178 92.918429 134.911178 88.0232628 134.911178 95.3111782 96.9661631 102.599094 59.0111782 107.49426 59.0111782 112.389426 59.0111782 105.101511 96.9661631"></polygon>
        </g>
    </g>
</svg>