<?xml version="1.0" encoding="UTF-8"?>
<svg width="440px" height="330px" viewBox="0 0 440 330" version="1.1" xmlns="http://www.w3.org/2000/svg" xmlns:xlink="http://www.w3.org/1999/xlink">
    <title>Graphic elements / Icons / Rich icons / switch-on</title>
    <defs>
        <linearGradient x1="0%" y1="50%" x2="100%" y2="50%" id="linearGradient-1">
            <stop stop-color="#EEF0F2" offset="0%"></stop>
            <stop stop-color="#FFFFFF" stop-opacity="0" offset="0%"></stop>
            <stop stop-color="#FFFFFF" stop-opacity="0.4" offset="100%"></stop>
        </linearGradient>
        <linearGradient x1="50.4004914%" y1="100.046643%" x2="50.4004914%" y2="0.79091383%" id="linearGradient-2">
            <stop stop-color="#EEF0F2" offset="0%"></stop>
            <stop stop-color="#FFFFFF" stop-opacity="0" offset="0%"></stop>
            <stop stop-color="#FFFFFF" stop-opacity="0.4" offset="100%"></stop>
        </linearGradient>
    </defs>
    <g id="Graphic-elements-/-Icons-/-Rich-icons-/-switch-on" stroke="none" stroke-width="1" fill="none" fill-rule="evenodd">
        <g id="Switch-On" transform="translate(20.000000, 38.000000)" fill-rule="nonzero">
            <path d="M234.90099,273.554455 L234.90099,235.069307 L164.90099,235.069307 L164.90099,273.554455 C164.845726,274.177214 164.749812,274.795695 164.613861,275.405941 C164.306263,276.822234 163.81009,278.190871 163.138614,279.475248 C161.256177,283.280831 157.300569,285.612231 153.059406,285.415842 L246.742574,285.415842 C242.499827,285.608456 238.543239,283.278767 236.653465,279.475248 C235.988951,278.188822 235.496289,276.820685 235.188119,275.405941 C235.052169,274.795695 234.956255,274.177214 234.90099,273.554455 Z" id="Path" fill="#A5B1B8"></path>
            <polygon id="Path" fill="#A5B1B8" opacity="0.2" style="mix-blend-mode: multiply;" points="164.881188 247.722772 182.386139 247.722772 199.90099 247.722772 217.415842 247.722772 234.920792 247.722772 234.920792 253.376238 234.920792 259.029703 234.920792 264.673267 234.920792 270.326733 217.415842 270.326733 199.90099 270.326733 182.386139 270.326733 164.881188 270.326733 164.881188 264.673267 164.881188 259.029703 164.881188 253.376238"></polygon>
            <path d="M394.287129,249.267334 L5.51485149,249.267334 C4.77685029,249.267334 4.04645533,249.118189 3.36633663,248.831683 C2.70764611,248.549621 2.11185685,248.138964 1.61386139,247.623762 C1.11027668,247.110912 0.710243358,246.505819 0.435643564,245.841584 C0.149023638,245.147631 0,244.404279 0,243.653465 L0,5.61386139 C0,4.13375059 0.579885764,2.71253236 1.61386139,1.65346535 C2.11133628,1.13764964 2.70725752,0.726901669 3.36633663,0.445544554 C4.04434973,0.151179276 4.77569491,-1.14608752e-06 5.51485149,-1.14608752e-06 L394.287129,-1.14608752e-06 C395.026285,-1.14608752e-06 395.75763,0.151179276 396.435644,0.445544554 C397.091151,0.728938687 397.686096,1.13565245 398.188119,1.64356436 C399.222094,2.70263137 399.80198,4.1238496 399.80198,5.6039604 L399.80198,243.653465 C399.80198,244.404279 399.652957,245.147631 399.366337,245.841584 C398.532592,247.914303 396.521246,249.270883 394.287129,249.267334 L394.287129,249.267334 Z" id="Path" fill="#023852"></path>
            <polygon id="Path" fill="#023852" points="12.009901 226.39604 105.950495 226.39604 199.90099 226.39604 293.841584 226.39604 387.792079 226.39604 387.792079 172.871287 387.792079 119.356436 387.792079 65.8316832 387.792079 12.3069307 293.841584 12.3069307 199.90099 12.3069307 105.950495 12.3069307 12.009901 12.3069307 12.009901 65.8316832 12.009901 119.356436 12.009901 172.871287"></polygon>
            <path d="M261.168317,285.396031 L138.613861,285.396031 C137.100534,285.393405 135.64843,285.993406 134.578344,287.063492 C133.508258,288.133578 132.908257,289.585682 132.910882,291.09901 L266.871319,291.09901 C266.876346,289.585766 266.273476,288.133885 265.19802,287.069307 C264.675988,286.54135 264.053066,286.123824 263.366337,285.841584 C262.670532,285.548543 261.923311,285.397079 261.168317,285.396031 L261.168317,285.396031 Z" id="Path" fill="#F1F3F4"></path>
            <path d="M12.0891089,12.1485149 L26.0990099,25.6732673 L40.0990099,39.2079208 L54.1089109,52.7326733 L68.1188119,66.2574257 C81.9405941,79.5907591 95.7656766,92.9240924 109.594059,106.257426 C123.422442,119.590759 137.254125,132.920792 151.089109,146.247525 L192.584158,186.217822 L234.089109,226.188119 L387.70297,226.188119 L387.70297,12.1485149 L12.0891089,12.1485149 Z" id="Path" fill="url(#linearGradient-1)" opacity="0.5"></path>
            <path d="M206.336664,236.940594 C206.341903,235.231236 205.665874,233.590225 204.458099,232.380592 C203.250324,231.170959 201.610355,230.492408 199.90099,230.495011 C199.040434,230.492066 198.188233,230.663853 197.39604,231 C195.854792,231.660418 194.625259,232.886407 193.960396,234.425743 C193.287661,236.031392 193.287661,237.839895 193.960396,239.445545 C194.286193,240.211578 194.756856,240.907487 195.346535,241.49505 C195.937123,242.078544 196.632438,242.545446 197.39604,242.871287 C198.998139,243.544598 200.803841,243.544598 202.405941,242.871287 C203.169542,242.545446 203.864857,242.078544 204.455446,241.49505 C205.660983,240.285977 206.337546,238.647982 206.336664,236.940594 L206.336664,236.940594 Z" id="Path" fill="#33627E"></path>
            <path d="M274.445545,125.50495 C274.445545,124.881188 274.445545,124.247525 274.376238,123.623762 C274.306931,123 274.257426,122.376238 274.257426,121.782178 C274.257426,121.188119 274.158416,120.534653 274.089109,119.920792 C274.089109,120.356436 274.029703,120.782178 274,121.207921 C272.572194,103.660156 264.941359,87.1945414 252.475248,74.7623762 C245.687138,67.9676238 237.652742,62.5452471 228.811881,58.7920792 L227.881188,58.4257426 C227.673267,58.3465347 227.475248,58.2475248 227.267327,58.1584158 L225.891089,57.6435644 L225.217822,57.3861386 C202.825099,49.0014675 177.75988,51.9645094 157.93942,65.3393395 C138.118959,78.7141695 125.99092,100.849108 125.386139,124.752475 L125.386139,125.50495 C125.386139,125.821782 125.386139,126.128713 125.386139,126.49505 C125.386139,126.861386 125.386139,127.118812 125.386139,127.425743 C125.386139,154.068559 139.599911,178.687537 162.673267,192.008945 C185.746623,205.330353 214.174169,205.330353 237.247525,192.008945 C260.320881,178.687537 274.534653,154.068559 274.534653,127.425743 C274.475248,126.732673 274.465347,126.138614 274.445545,125.50495 Z" id="Path" fill="#C4D2DA" style="mix-blend-mode: multiply;"></path>
            <path d="M252.39604,173.158416 C279.275512,146.192024 281.362251,103.25009 257.224086,73.8045248 C233.085921,44.3589599 190.569016,37.9811098 158.853576,59.0482212 C127.138137,80.1153327 116.533336,121.779495 134.317462,155.445756 C152.101588,189.112018 192.493872,203.837086 227.772277,189.514851 C236.990663,185.76281 245.363493,180.201123 252.39604,173.158416 Z" id="Path" fill="#0099DA"></path>
            <path d="M274.079208,113.009901 C273.851169,117.466124 273.22491,121.893011 272.207921,126.237624 C270.13699,135.090127 266.444349,143.482494 261.316832,150.990099 C243.74682,176.986769 211.777244,189.195951 181.3511,181.529015 C150.924955,173.862079 128.558587,147.961046 125.405941,116.742574 C125.405941,117.059406 125.405941,117.366337 125.405941,117.673267 L125.405941,118.60396 L125.405941,119.534653 L125.405941,120.475248 C125.405941,147.118064 139.619713,171.737042 162.693069,185.05845 C185.766425,198.379858 214.193971,198.379858 237.267327,185.05845 C260.340683,171.737042 274.554455,147.118064 274.554455,120.475248 C274.554455,119.841584 274.554455,119.207921 274.554455,118.584158 C274.554455,117.960396 274.554455,117.326733 274.485149,116.70297 C274.415842,116.079208 274.257426,115.485149 274.257426,114.851485 C274.257426,114.217822 274.148515,113.623762 274.079208,113.009901 Z" id="Path" fill="#0097D7" style="mix-blend-mode: multiply;"></path>
            <path d="M199.821782,52.6831683 C239.626957,52.6799758 272.388388,83.997461 274.178218,123.762376 C274.178218,123.49505 274.178218,123.237624 274.178218,122.970297 L274.178218,122.168317 C274.178218,121.90099 274.178218,121.633663 274.178218,121.356436 L274.178218,120.554455 C274.487318,93.751265 260.365124,68.8507633 237.203026,55.3591447 C214.040928,41.8675261 185.414518,41.8675261 162.25242,55.3591447 C139.090322,68.8507633 124.968128,93.751265 125.277228,120.554455 C125.277228,120.821782 125.277228,121.09901 125.277228,121.366337 C125.277228,121.633663 125.277228,121.90099 125.277228,122.168317 L125.277228,122.970297 L125.277228,123.772277 C127.047339,83.9944996 159.826432,52.6643033 199.643564,52.6930693 L199.821782,52.6831683 Z" id="Path" fill="#8CBDE7"></path>
            <path d="M148.564356,170.811881 C157.957096,161.405941 167.359736,152.006601 176.772277,142.613861 L204.950495,114.405941 L228.366337,91 L251.792079,67.5940594 L251.792079,67.5940594 L251.792079,67.5940594 C233.230388,48.2711099 205.677323,40.4842553 179.747352,47.2332822 C153.817381,53.982309 133.556957,74.2140106 126.771152,100.134381 C119.985346,126.054752 127.733105,153.618836 147.029703,172.207921 L147.029703,172.207921 L147.029703,172.207921 L147.762376,171.485149 L148.564356,170.811881 Z" id="Path" fill="url(#linearGradient-2)" opacity="0.5"></path>
            <path d="M194.871287,122.09901 L202.70297,122.09901 C202.899015,122.09901 203.08689,122.020478 203.224581,121.880926 C203.362272,121.741374 203.438293,121.552462 203.435711,121.356436 L203.435711,87.6930693 C203.435711,87.2867925 203.109211,86.9559121 202.70297,86.950495 L194.871287,86.950495 C194.463404,86.9558275 194.134045,87.2851861 194.128713,87.6930693 L194.128713,121.356436 C194.128713,121.766548 194.461175,122.09901 194.871287,122.09901" id="Path" fill="#F4F6F7"></path>
            <path d="M209.19802,93.5742574 L209.19802,103.762376 C218.201177,108.537277 222.794058,118.831153 220.333842,128.720736 C217.873627,138.610319 208.992982,145.552408 198.80198,145.552408 C188.610978,145.552408 179.730334,138.610319 177.270118,128.720736 C174.809902,118.831153 179.402783,108.537277 188.405941,103.762376 L188.405941,93.5742574 C173.878449,98.6453475 165.129409,113.457963 167.701127,128.628666 C170.272846,143.799369 183.414844,154.901043 198.80198,154.901043 C214.189117,154.901043 227.331115,143.799369 229.902833,128.628666 C232.474552,113.457963 223.725511,98.6453475 209.19802,93.5742574 Z" id="Path" fill="#FFFFFF"></path>
        </g>
    </g>
</svg>