<?xml version="1.0" encoding="UTF-8"?>
<svg width="440px" height="330px" viewBox="0 0 440 330" version="1.1" xmlns="http://www.w3.org/2000/svg" xmlns:xlink="http://www.w3.org/1999/xlink">
    <title>Graphic elements / Icons / Rich icons / system-builder</title>
    <g id="Graphic-elements-/-Icons-/-Rich-icons-/-system-builder" stroke="none" stroke-width="1" fill="none" fill-rule="evenodd">
        <g id="Asset-190" transform="translate(0.000000, 75.000000)">
            <polygon id="Path" fill="#009BDB" points="220 105.215 230.945 94.27 230.868 87.329 222.86 95.337 222.86 78.573 217.437 78.573 217.437 95.601 209.143 87.307 209.055 94.237 216.502 101.684 216.491 101.706"></polygon>
            <polygon id="Rectangle" fill="#009BDB" transform="translate(219.997186, 33.104797) rotate(45.000000) translate(-219.997186, -33.104797) " points="196.589186 9.69679739 243.405186 9.69679739 243.405186 56.5127974 196.589186 56.5127974"></polygon>
            <rect id="Rectangle" fill="#33617E" x="0" y="129.404" width="440" height="103.774" rx="2.42"></rect>
            <rect id="Rectangle" fill="#003A5D" x="0" y="135.212" width="440" height="103.774" rx="2.42"></rect>
            <path d="M79.816,215.27 C85.8911322,215.27 90.816,210.345132 90.816,204.27 C90.816,198.194868 85.8911322,193.27 79.816,193.27 C73.7408678,193.27 68.816,198.194868 68.816,204.27 C68.816,210.345132 73.7408678,215.27 79.816,215.27 Z" id="Path" fill="#009BDB"></path>
            <path d="M49.643,215.27 C55.7181322,215.27 60.643,210.345132 60.643,204.27 C60.643,198.194868 55.7181322,193.27 49.643,193.27 C43.5678678,193.27 38.643,198.194868 38.643,204.27 C38.643,210.345132 43.5678678,215.27 49.643,215.27 L49.643,215.27 Z" id="Path" fill="#009BDB"></path>
            <path d="M110,215.27 C116.075132,215.27 121,210.345132 121,204.27 C121,198.194868 116.075132,193.27 110,193.27 C103.924868,193.27 99,198.194868 99,204.27 C99,210.345132 103.924868,215.27 110,215.27 Z" id="Path" fill="#FFFFFF"></path>
            <path d="M42.669,238.865 L92.763,238.865 L92.763,252.835 C92.763,253.99535 91.8223503,254.936 90.662,254.936 L44.77,254.936 C43.6096497,254.936 42.669,253.99535 42.669,252.835 L42.669,238.865 Z" id="Path" fill="#023852"></path>
            <path d="M340.329,238.865 L390.423,238.865 L390.423,252.835 C390.423,253.99535 389.48235,254.936 388.322,254.936 L342.43,254.936 C341.26965,254.936 340.329,253.99535 340.329,252.835 L340.329,238.865 L340.329,238.865 Z" id="Path" fill="#023852"></path>
            <rect id="Rectangle" fill="#083A69" style="mix-blend-mode: multiply;" x="42.669" y="238.865" width="50.094" height="9.097"></rect>
            <rect id="Rectangle" fill="#083A69" style="mix-blend-mode: multiply;" x="340.329" y="238.865" width="50.094" height="9.097"></rect>
            <rect id="Rectangle" fill="#083A69" style="mix-blend-mode: multiply;" x="251.955" y="185.592" width="153.538" height="6.27" rx="2.65"></rect>
            <path d="M394.141,189.904 L321.42,189.904 C320.970302,189.947423 320.534896,189.732014 320.296565,189.348201 C320.058234,188.964389 320.058234,188.478611 320.296565,188.094799 C320.534896,187.710986 320.970302,187.495577 321.42,187.539 L394.141,187.539 C394.590698,187.495577 395.026104,187.710986 395.264435,188.094799 C395.502766,188.478611 395.502766,188.964389 395.264435,189.348201 C395.026104,189.732014 394.590698,189.947423 394.141,189.904 L394.141,189.904 Z" id="Path" fill="#009BDB"></path>
            <rect id="Rectangle" fill="#083A69" style="mix-blend-mode: multiply;" x="251.955" y="198.528" width="153.538" height="6.27" rx="2.65"></rect>
            <path d="M394.141,202.84 L321.42,202.84 C320.970302,202.883423 320.534896,202.668014 320.296565,202.284201 C320.058234,201.900389 320.058234,201.414611 320.296565,201.030799 C320.534896,200.646986 320.970302,200.431577 321.42,200.475 L394.141,200.475 C394.590698,200.431577 395.026104,200.646986 395.264435,201.030799 C395.502766,201.414611 395.502766,201.900389 395.264435,202.284201 C395.026104,202.668014 394.590698,202.883423 394.141,202.84 L394.141,202.84 Z" id="Path" fill="#FCE400"></path>
            <rect id="Rectangle" fill="#083A69" style="mix-blend-mode: multiply;" x="251.955" y="211.464" width="153.538" height="6.27" rx="2.65"></rect>
            <path d="M394.141,215.776 L321.42,215.776 C320.970302,215.819423 320.534896,215.604014 320.296565,215.220201 C320.058234,214.836389 320.058234,214.350611 320.296565,213.966799 C320.534896,213.582986 320.970302,213.367577 321.42,213.411 L394.141,213.411 C394.590698,213.367577 395.026104,213.582986 395.264435,213.966799 C395.502766,214.350611 395.502766,214.836389 395.264435,215.220201 C395.026104,215.604014 394.590698,215.819423 394.141,215.776 L394.141,215.776 Z" id="Path" fill="#009BDB"></path>
        </g>
    </g>
</svg>