<svg width="59px" height="54px" viewBox="0 0 59 54" version="1.1" xmlns="http://www.w3.org/2000/svg" xmlns:xlink="http://www.w3.org/1999/xlink">
    <!-- Generator: Sketch 52.6 (67491) - http://www.bohemiancoding.com/sketch -->
    <title>system buil. icon</title>
    <desc>Created with Sketch.</desc>
    <g id="Page-1" stroke="none" stroke-width="1" fill="none" fill-rule="evenodd">
        <g id="Design-draft" transform="translate(-879.000000, -2326.000000)">
            <g id="Cards-and-tabs" transform="translate(0.000000, 1143.000000)">
                <g id="Tabs" transform="translate(250.000000, 1144.000000)">
                    <g id="system-buil.-icon" transform="translate(629.000000, 39.000000)">
                        <g id="Group-5" transform="translate(0.000000, 31.542373)" fill="#009CDE">
                            <path d="M42.0313544,9.00132395 L53.6550917,9.00132395 L53.6550917,7.16729489 L42.0313544,7.16729489 L42.0313544,9.00132395 Z M42.032989,13.5003982 L53.6550917,13.5003982 L53.6550917,11.6911432 L42.032989,11.6911432 L42.032989,13.5003982 Z M6.23884773,11.2153632 C6.23884773,9.95723702 7.24356856,8.93741122 8.48306023,8.93741122 C9.72230606,8.93741122 10.7272727,9.95723702 10.7272727,11.2153632 C10.7272727,12.4734894 9.72230606,13.4930656 8.48306023,13.4930656 C7.24356856,13.4930656 6.23884773,12.4734894 6.23884773,11.2153632 Z M1.80859583,0 C0.809775,0 0,0.821949153 0,1.83578625 L3.34579653e-12,16.1754263 C3.34579653e-12,17.1892634 0.809775,17.9561644 1.80859583,17.9561644 L57.0512792,17.9561644 C58.0501,17.9561644 58.859875,17.1892634 58.859875,16.1754263 L58.859875,1.83578625 C58.859875,0.821949153 58.210942,0 57.2121212,0 L1.80859583,0 Z" id="Fill-1"></path>
                            <path d="M5.37604029,21.5701902 C5.37604029,22.1161601 5.71969242,22.4366029 6.25757576,22.4366029 L10.7273233,22.4366029 C11.2652066,22.4366029 11.6212121,22.0999485 11.6212121,21.5539786 L11.6212121,19.7627119 L5.37604029,19.7627119 L5.37604029,21.5701902 Z" id="Fill-3"></path>
                            <path d="M47.4005768,21.4462953 C47.4005768,21.9922651 47.7254675,22.4349299 48.2633509,22.4349299 L52.748239,22.4349299 C53.2863681,22.4349299 53.6272107,21.9922651 53.6272107,21.4462953 L53.6272107,19.7627119 L47.4005768,19.7627119 L47.4005768,21.4462953 Z" id="Fill-4"></path>
                        </g>
                        <polygon id="Fill-5" fill="#009BDB" points="29.9718268 25.4114982 32.3589985 22.8250884 32.3589985 21.8427634 30.3939394 23.8403887 30.3939394 18.9752762 29.4927634 18.9752762 29.4927634 23.8403887 27.3925431 21.8427634 27.3925431 22.8182122"></polygon>
                        <polygon id="Fill-6" fill="#009BDB" points="22.3602706 8.66507985 29.9458966 16.2708308 37.5433585 8.63549181 29.9518146 0.91400158"></polygon>
                    </g>
                </g>
            </g>
        </g>
    </g>
</svg>