<?xml version="1.0" encoding="UTF-8"?>
<svg width="440px" height="330px" viewBox="0 0 440 330" version="1.1" xmlns="http://www.w3.org/2000/svg" xmlns:xlink="http://www.w3.org/1999/xlink">
    <title>Graphic elements / Icons / Rich icons / Tailored</title>
    <g id="Graphic-elements-/-Icons-/-Rich-icons-/-Tailored" stroke="none" stroke-width="1" fill="none" fill-rule="evenodd">
        <g id="Group-2" transform="translate(0.000000, 82.000000)" fill-rule="nonzero">
            <path d="M296.098,233.057008 L296.098,200.266008 L236.5,200.266008 L236.5,233.057008 C236.330159,234.81696 235.822201,236.527583 235.004,238.095008 C233.394368,241.332186 230.024336,243.31278 226.413,243.144008 L306.229,243.144008 C302.616237,243.318563 299.243275,241.336245 297.638,238.095008 C296.804494,236.530736 296.281549,234.819958 296.098,233.057008 Z" id="Path" fill="#A5B1B8"></path>
            <path d="M317.262,243.100008 L212.872,243.100008 C211.580723,243.094126 210.340633,243.604481 209.427553,244.517561 C208.514473,245.430642 208.004117,246.670731 208.00995,247.962008 L322.12405,247.962008 C322.129883,246.670731 321.619527,245.430642 320.706447,244.517561 C319.793367,243.604481 318.553277,243.094126 317.262,243.100008 L317.262,243.100008 Z" id="Path" fill="#D2D8DC"></path>
            <g id="Group" opacity="0.5" transform="translate(235.400000, 210.100008)" fill="#A5B1B8">
                <polygon id="Path" style="mix-blend-mode: multiply;" points="1.034 0.957 30.877 0.957 60.709 0.957 60.709 10.582 60.709 20.207 30.877 20.207 1.034 20.207 1.034 10.582"></polygon>
            </g>
            <path d="M432.575,212.366017 L99.968,212.366017 C98.0620546,212.368934 96.2333302,211.613095 94.8856217,210.265387 C93.5379132,208.917678 92.7849915,207.088954 92.7849915,205.183008 L92.7849915,7.18300846 C92.7849915,5.27706308 93.5379132,3.44833867 94.8856217,2.10063018 C96.2333302,0.752921685 98.0620546,-0.00291701699 99.968,-3.69482223e-13 L432.575,-3.69482223e-13 C434.480945,-0.00291701699 436.30967,0.752921685 437.657378,2.10063018 C439.005087,3.44833867 439.758008,5.27706308 439.758008,7.18300846 L439.758008,205.183008 C439.758008,207.088954 439.005087,208.917678 437.657378,210.265387 C436.30967,211.613095 434.480945,212.368934 432.575,212.366017 Z" id="Path" fill="#023852"></path>
            <polygon id="Path" fill="#0099DA" points="103.664 192.709008 266.816 192.709008 429.968 192.709008 429.968 101.464008 429.968 10.2300085 266.816 10.2300085 103.664 10.2300085 103.664 101.464008"></polygon>
            <path d="M271.766,201.861008 C271.766,198.823442 269.303566,196.361008 266.266,196.361008 C263.228434,196.361008 260.766,198.823442 260.766,201.861008 C260.766,204.898575 263.228434,207.361008 266.266,207.361008 C269.303566,207.361008 271.766,204.898575 271.766,201.861008 L271.766,201.861008 Z" id="Path" fill="#1B5579"></path>
            <g id="Group" opacity="0.2" transform="translate(103.400000, 9.900008)" fill="#FFFFFF">
                <path d="M0.264,0.33 L24.596,23.43 L48.939,46.53 C72.9483333,69.2633333 96.9723333,91.9966667 121.011,114.73 L193.127,182.93 L326.568,182.93 L326.568,0.33 L0.264,0.33 Z" id="Path"></path>
            </g>
            <path d="M144.100005,212.366008 L117.183,212.366008 L117.183,71.4999293 L131.813,71.4999293 C135.069569,71.4883033 138.196613,72.7745291 140.502464,75.0741878 C142.808316,77.3738464 144.102947,80.4974193 144.100005,83.7540085 L144.100005,212.366008 Z" id="Path" fill="#14375A" opacity="0.3" style="mix-blend-mode: multiply;"></path>
            <path d="M129.437,79.5850085 C129.430939,74.429734 125.253274,70.2520699 120.098,70.2460085 L9.339,70.2460085 C4.18372555,70.2520699 0.00606146948,74.429734 2.68585154e-12,79.5850085 L2.68585154e-12,237.600008 C0.00606146948,242.755283 4.18372555,246.932947 9.339,246.939008 L120.098,246.939008 C125.253274,246.932947 129.430939,242.755283 129.437,237.600008 L129.437,79.5850085 Z" id="Path" fill="#023852"></path>
            <path d="M70.4,236.500008 C70.3933679,233.793258 68.4763784,231.467798 65.8206165,230.944854 C63.1648545,230.42191 60.5093467,231.847003 59.4770299,234.349175 C58.4447131,236.851347 59.3228531,239.734311 61.574767,241.236119 C63.8266808,242.737926 66.825722,242.440665 68.739,240.526008 C69.8029056,239.456213 70.4,238.008768 70.4,236.500008 L70.4,236.500008 Z" id="Path" fill="#1B5579"></path>
            <polygon id="Path" fill="#0099DA" points="120.857 226.083008 64.724 226.083008 8.58 226.083008 8.58 152.306008 8.58 78.5290085 64.724 78.5290085 120.857 78.5290085 120.857 152.306008"></polygon>
            <polygon id="Path" fill="#FFFFFF" opacity="0.2" points="120.857 149.446008 120.857 171.094008 120.857 192.742008 68.277 135.630008 15.697 78.5290085 68.277 78.5290085 120.857 78.5290085 120.857 113.993008"></polygon>
            <path d="M376.2,44.1540085 L167.453,44.1540085 C165.966145,44.1540085 164.540348,44.7454083 163.490015,45.7978048 C162.439682,46.8502013 161.851079,48.2771564 161.853989,49.7640085 L161.853989,166.100008 C161.851073,167.728803 162.496813,169.291728 163.648547,170.443462 C164.80028,171.595195 166.363206,172.240935 167.992,172.238018 L375.694,172.238018 C377.323804,172.240929 378.887856,171.595539 380.041334,170.444124 C381.194813,169.292709 381.843,167.729815 381.843,166.100008 L381.843,49.7640085 C381.843,46.665691 379.331317,44.1540085 376.233,44.1540085 L376.2,44.1540085 Z" id="Path" fill="#14375A" opacity="0.2" style="mix-blend-mode: multiply;"></path>
            <path d="M167.959,54.8790085 L387.959012,54.8790085 L387.959012,159.929008 C387.961922,161.240818 387.442854,162.499899 386.516295,163.428522 C385.589736,164.357145 384.331812,164.879008 383.02,164.879008 L172.92,164.879008 C170.1887,164.872959 167.976049,162.660308 167.97,159.929008 L167.97,54.8790085 L167.959,54.8790085 Z" id="Path" fill="#FFFFFF"></path>
            <path d="M172.48,36.7510085 L383.438,36.7510085 C384.636035,36.7510085 385.784841,37.2276739 386.630947,38.0758436 C387.477053,38.9240132 387.950922,40.0739773 387.948013,41.2720085 L387.948013,60.9070085 L167.948,60.9070085 L167.948,41.2720085 C167.948,38.7751291 169.972121,36.7510085 172.469,36.7510085 L172.48,36.7510085 Z" id="Path" fill="#DCE1E5"></path>
            <path d="M184.10701,48.8290085 C184.109184,47.9448775 183.756498,47.0968464 183.128,46.4750085 C182.507136,45.8400465 181.656559,45.4821192 180.7685,45.4821192 C179.880441,45.4821192 179.029864,45.8400465 178.409,46.4750085 C177.780502,47.0968464 177.427816,47.9448775 177.42999,48.8290085 C177.42999,50.6515481 178.90746,52.1290097 180.73,52.1290097 C181.614929,52.1297686 182.464561,51.7820122 183.095,51.1610085 C183.730217,50.5500096 184.094621,49.7102953 184.10701,48.8290085 Z" id="Path" fill="#9FACB3"></path>
            <path d="M194.70001,48.8290085 C194.702184,47.9448775 194.349498,47.0968464 193.721,46.4750085 C193.100136,45.8400465 192.249559,45.4821192 191.3615,45.4821192 C190.473441,45.4821192 189.622864,45.8400465 189.002,46.4750085 C188.373502,47.0968464 188.020816,47.9448775 188.02299,48.8290085 C188.02299,50.6515481 189.50046,52.1290097 191.323,52.1290097 C192.207929,52.1297686 193.057561,51.7820122 193.688,51.1610085 C194.323217,50.5500096 194.687621,49.7102953 194.70001,48.8290085 Z" id="Path" fill="#9FACB3"></path>
            <path d="M205.337055,48.8290085 C205.339184,47.9448775 204.986498,47.0968464 204.358,46.4750085 C203.737136,45.8400465 202.886559,45.4821192 201.9985,45.4821192 C201.110441,45.4821192 200.259864,45.8400465 199.639,46.4750085 C199.010502,47.0968464 198.657816,47.9448775 198.659945,48.8290085 C198.654859,49.7169491 199.007773,50.5694946 199.639,51.1940085 C200.946217,52.4871853 203.050783,52.4871853 204.358,51.1940085 C204.989227,50.5694946 205.342141,49.7169491 205.337055,48.8290085 Z" id="Path" fill="#9FACB3"></path>
            <path d="M93.654,101.959008 L27.236,101.959008 C24.5811672,101.959008 22.429,104.111176 22.429,106.766008 L22.429,206.448008 C22.435051,209.355487 24.7905217,211.710957 27.698,211.717008 L93.192,211.717008 C96.0969808,211.704954 98.448946,209.352989 98.461,206.448008 L98.461,106.766008 C98.461,104.111176 96.3088328,101.959008 93.654,101.959008 Z" id="Path" fill="#14375A" opacity="0.2" style="mix-blend-mode: multiply;"></path>
            <path d="M27.665,111.155008 L103.697,111.155008 L103.697,201.135008 C103.690936,203.475713 101.791712,205.370008 99.451,205.370008 L31.9,205.370008 C29.5635826,205.363963 27.6710451,203.471426 27.665,201.135008 L27.665,111.155008 L27.665,111.155008 Z" id="Path" fill="#FFFFFF"></path>
            <path d="M31.537,95.6230085 L99.825,95.6230085 C101.963447,95.6230085 103.697,97.3565619 103.697,99.4950085 L103.697,116.314008 L27.665,116.314008 L27.665,99.4950085 C27.665,97.3565619 29.3985534,95.6230085 31.537,95.6230085 Z" id="Path" fill="#DCE1E5"></path>
            <path d="M41.492,105.963008 C41.467027,104.603332 40.4845825,103.45086 39.1459979,103.210995 C37.8074133,102.97113 36.4859186,103.710751 35.9903697,104.977153 C35.4948209,106.243556 35.9633891,107.683636 37.1092746,108.415955 C38.2551602,109.148273 39.7588622,108.968642 40.7,107.987008 C41.2210827,107.443504 41.5058269,106.715825 41.492,105.963008 L41.492,105.963008 Z" id="Path" fill="#9FACB3"></path>
            <path d="M50.600011,105.963008 C50.5962357,104.604778 49.6341888,103.438071 48.3015543,103.175604 C46.9689198,102.913137 45.6363103,103.627905 45.1177901,104.88327 C44.59927,106.138634 45.0390423,107.585472 46.168459,108.33994 C47.2978758,109.094408 48.8028402,108.946683 49.764,107.987008 C50.3011809,107.450658 50.6021038,106.722107 50.600011,105.963008 L50.600011,105.963008 Z" id="Path" fill="#9FACB3"></path>
            <path d="M59.675011,105.963008 C59.6712357,104.604778 58.7091888,103.438071 57.3765543,103.175604 C56.0439198,102.913137 54.7113103,103.627905 54.1927901,104.88327 C53.67427,106.138634 54.1140423,107.585472 55.243459,108.33994 C56.3728758,109.094408 57.8778402,108.946683 58.839,107.987008 C59.3761809,107.450658 59.6771038,106.722107 59.675011,105.963008 L59.675011,105.963008 Z" id="Path" fill="#9FACB3"></path>
            <rect id="Rectangle" fill="#C1C9CE" x="196.999" y="81.2900085" width="169.213" height="6.919"></rect>
            <rect id="Rectangle" fill="#FFE700" x="253.44" y="75.6030085" width="7.337" height="18.293"></rect>
            <rect id="Rectangle" fill="#C1C9CE" x="196.999" y="111.650008" width="169.213" height="6.919"></rect>
            <rect id="Rectangle" fill="#003A5D" x="318.45" y="105.963008" width="7.337" height="18.293"></rect>
            <rect id="Rectangle" fill="#C1C9CE" x="196.999" y="140.404008" width="169.213" height="6.919"></rect>
            <rect id="Rectangle" fill="#0099DA" x="217.019" y="134.717008" width="7.337" height="18.293"></rect>
            <rect id="Rectangle" fill="#C1C9CE" x="35.772" y="135.113008" width="57.013" height="5.115"></rect>
            <rect id="Rectangle" fill="#003A5D" x="53.867" y="130.911008" width="5.434" height="13.53"></rect>
            <rect id="Rectangle" fill="#C1C9CE" x="35.772" y="157.564008" width="57.013" height="5.115"></rect>
            <rect id="Rectangle" fill="#0099DA" x="64.284" y="153.362008" width="5.434" height="13.53"></rect>
            <rect id="Rectangle" fill="#C1C9CE" x="35.893" y="178.827008" width="56.892" height="5.115"></rect>
            <rect id="Rectangle" fill="#FFE700" x="78.507" y="174.625008" width="5.434" height="13.53"></rect>
        </g>
    </g>
</svg>