<?xml version="1.0" encoding="UTF-8"?>
<svg width="440px" height="330px" viewBox="0 0 440 330" version="1.1" xmlns="http://www.w3.org/2000/svg" xmlns:xlink="http://www.w3.org/1999/xlink">
    <title>Graphic elements / Icons / Rich icons / Time-to-market</title>
    <defs>
        <linearGradient x1="100.000304%" y1="50.0429122%" x2="0.00348446042%" y2="50.0429122%" id="linearGradient-1">
            <stop stop-color="#FFFFFF" offset="0%"></stop>
            <stop stop-color="#464547" offset="100%"></stop>
        </linearGradient>
        <linearGradient x1="62.8149171%" y1="65.1107824%" x2="49.869916%" y2="53.1552095%" id="linearGradient-2">
            <stop stop-color="#FFFFFF" stop-opacity="0" offset="0%"></stop>
            <stop stop-color="#FFFFFF" stop-opacity="0.03" offset="9%"></stop>
            <stop stop-color="#FFFFFF" stop-opacity="0.11" offset="22%"></stop>
            <stop stop-color="#FFFFFF" stop-opacity="0.24" offset="38%"></stop>
            <stop stop-color="#FFFFFF" stop-opacity="0.43" offset="55%"></stop>
            <stop stop-color="#FFFFFF" stop-opacity="0.66" offset="75%"></stop>
            <stop stop-color="#FFFFFF" stop-opacity="0.95" offset="96%"></stop>
            <stop stop-color="#FFFFFF" offset="100%"></stop>
        </linearGradient>
    </defs>
    <g id="Graphic-elements-/-Icons-/-Rich-icons-/-Time-to-market" stroke="none" stroke-width="1" fill="none" fill-rule="evenodd">
        <g id="Asset-202" transform="translate(87.000000, 0.000000)">
            <path d="M225.67,100.226284 L225.67,100.226284 L232.12,105.480363 L257.27,74.7734139 C258.567507,73.1930362 258.334724,70.8633107 256.75,69.5691843 L253.18,66.6679758 L253.18,66.6679758 L251.42,65.2323263 L251.42,65.2323263 L245.78,60.6462236 L245.78,60.6462236 L245.5,60.4169184 L238.38,54.6244713 L238.38,54.6244713 L236.63,53.1987915 L236.63,53.1987915 L233.94,51.0054381 C232.348924,49.7131379 230.008687,49.9495774 228.71,51.5338369 L203.56,82.2308157 L209.74,87.21571 L210.88,88.1528701 L204,96.6072508 L204,96.6072508 L199.09,102.589124 C180.841636,90.2951875 159.638253,83.0686563 137.66,81.652568 L137.66,74.2649547 L138.16,74.1453172 L139.16,73.8462236 L139.66,73.7066465 C140.16,73.5471299 140.66,73.3776435 141.15,73.1981873 L141.15,73.1981873 C141.643333,73.0187311 142.123333,72.8293051 142.59,72.6299094 L143.06,72.4205438 C143.38,72.2809668 143.71,72.1413897 144.06,71.9918429 L144.61,71.7226586 L145.46,71.2839879 C145.65,71.18429 145.84,71.0845921 146.02,70.9749245 C146.2,70.8652568 146.57,70.6758308 146.83,70.5163142 L147.38,70.1873112 C147.65,70.0178248 147.92,69.8483384 148.18,69.6688822 L148.68,69.3398792 L149.53,68.7416918 L149.95,68.4326284 C150.36,68.123565 150.76,67.8145015 151.16,67.4854985 C162.310343,58.3359336 166.496826,43.1911084 161.622059,29.6384486 C156.747291,16.0857888 143.861358,7.04470722 129.42,7.04470722 C114.978642,7.04470722 102.092709,16.0857888 97.2179413,29.6384486 C92.3431735,43.1911084 96.529657,58.3359336 107.68,67.4854985 C108.08,67.8145015 108.48,68.123565 108.89,68.4326284 L109.31,68.7416918 L110.16,69.3398792 L110.66,69.6688822 C110.92,69.8483384 111.19,70.0178248 111.46,70.1873112 L112.01,70.5163142 L112.82,70.9749245 C113,71.0845921 113.19,71.18429 113.38,71.2839879 L114.23,71.7226586 L114.78,71.9918429 C115.09,72.1413897 115.42,72.2809668 115.78,72.4205438 L116.25,72.6299094 C116.72,72.8293051 117.25,73.0187311 117.68,73.1981873 L117.68,73.1981873 C118.16,73.3776435 118.68,73.5471299 119.16,73.7066465 L119.66,73.8462236 L119.86,73.9060423 L119.86,81.7522659 C98.4211982,83.3687704 77.7723456,90.5149413 59.94,102.489426 L55.12,96.6072508 L55.12,96.6072508 L48.23,88.1927492 L49.37,87.2555891 L55.55,82.2706949 L30.4,51.5138973 C29.7796293,50.7513775 28.8799501,50.2668854 27.9001901,50.1677084 C26.9204301,50.0685314 25.9414363,50.3628533 25.18,50.9854985 L22.48,53.178852 L22.48,53.178852 L22.42,53.178852 L13.61,60.3471299 L13.33,60.576435 L13.33,60.576435 L7.69,65.1625378 L7.69,65.1625378 L5.93,66.6480363 L5.93,66.6480363 L2.36,69.5492447 C1.59305518,70.1711903 1.10681431,71.0725926 1.00918657,72.0534077 C0.911558826,73.0342228 1.2106197,74.0133204 1.84,74.7734139 L27,105.480363 L33.45,100.226284 L33.45,100.226284 L45,114.323565 C43.78,115.440181 42.57,116.586707 41.39,117.773112 C5.77000416,153.283012 -4.88670554,206.688734 14.38921,253.086611 C33.6651256,299.484489 79.0774797,329.736954 129.45,329.736954 C179.82252,329.736954 225.234874,299.484489 244.51079,253.086611 C263.786706,206.688734 253.129996,153.283012 217.51,117.773112 C216.38,116.636556 215.22,115.529909 214.05,114.453172 L225.69,100.226284 L225.67,100.226284 Z M100.299986,41.1652568 C100.287129,28.2223026 108.866692,16.8329723 121.337912,13.2375245 C133.809132,9.6420767 147.161648,14.7083974 154.079564,25.6606296 C160.997481,36.6128619 159.810919,50.8073047 151.17,60.4667674 L151.17,60.4667674 C149.505818,62.3341049 147.606789,63.9794261 145.52,65.3619335 L145.43,65.4217523 C145.06,65.670997 144.67,65.9102719 144.29,66.139577 L144.04,66.2791541 C143.7,66.4785498 143.36,66.6679758 143.04,66.847432 L142.7,67.0268882 L141.7,67.5054381 L141.28,67.6848943 L140.36,68.0836858 L139.88,68.2731118 L138.98,68.6021148 L138.46,68.781571 L137.65,69.0208459 L137.65,68.4226586 C137.489245,63.6460621 133.558767,59.8567351 128.765,59.8567351 C123.971233,59.8567351 120.040755,63.6460621 119.88,68.4226586 L119.88,68.6021148 L118.98,68.2731118 L118.5,68.0836858 L117.58,67.6848943 L117.16,67.5054381 L116.16,67.0268882 L115.82,66.847432 C115.47,66.6679758 115.13,66.4785498 114.82,66.2791541 L114.57,66.139577 C114.19,65.9102719 113.8,65.670997 113.43,65.4217523 L113.34,65.3619335 C111.253211,63.9794261 109.354182,62.3341049 107.69,60.4667674 L107.69,60.4667674 C102.926372,55.1599052 100.294899,48.2869142 100.299986,41.1652568 L100.299986,41.1652568 Z" id="Shape" fill="url(#linearGradient-1)" fill-rule="nonzero" opacity="0.2"></path>
            <path d="M135.1,69.2003021 C121.262437,69.2003021 108.787597,60.8894047 103.493126,48.1434004 C98.1986541,35.397396 101.12735,20.7267374 110.913415,10.9730894 C120.69948,1.21944151 135.415451,-1.696117 148.198531,3.58608529 C160.981611,8.86828758 169.314045,21.307868 169.310001,35.1036254 C169.287948,53.9294776 153.982906,69.1838203 135.1,69.2003021 Z M135.1,6.05166163 C119.006422,6.05166163 105.96,19.0586688 105.96,35.1036254 C105.96,51.1485819 119.006422,64.1555891 135.1,64.1555891 C151.193578,64.1555891 164.24,51.1485819 164.24,35.1036254 C164.223464,19.0655025 151.186723,6.06814764 135.1,6.05166163 L135.1,6.05166163 Z" id="Shape" fill="#356075" fill-rule="nonzero"></path>
            <path d="M135.1,69.2003106 C143.039424,69.2058931 150.731823,66.4485216 156.85,61.4039275 L156.85,54.4250755 C151.331284,60.6215501 143.416774,64.167488 135.105,64.167488 C126.793226,64.167488 118.878716,60.6215501 113.36,54.4250755 L113.36,61.4039275 C119.474687,66.4478124 127.163718,69.2052444 135.1,69.2003106 Z" id="Path" fill="#7C8B95" opacity="0.8" style="mix-blend-mode: multiply;"></path>
            <rect id="Rectangle" fill="#356075" x="125.56" y="53.4978852" width="17.77" height="42.3416918" rx="8.76"></rect>
            <polygon id="Rectangle" fill="#023852" transform="translate(52.435050, 95.635545) rotate(-39.289407) translate(-52.435050, -95.635545) " points="42.9240818 81.2564813 61.9034017 81.2846173 61.9460182 110.014609 42.9666983 109.986473"></polygon>
            <polygon id="Rectangle" fill="#7C8B95" opacity="0.8" style="mix-blend-mode: multiply;" transform="translate(48.141950, 90.368406) rotate(-39.289407) translate(-48.141950, -90.368406) " points="38.6410577 82.7820539 57.6203776 82.8101899 57.6428423 97.9547588 38.6635224 97.9266228"></polygon>
            <path d="M18.4129608,49.2404836 L47.9572169,49.2842672 C49.9761365,49.2872589 51.6152195,50.9253515 51.6182112,52.9430494 L51.6772351,92.7507563 L14.8218244,92.6961429 L14.7627963,52.888436 C14.7598088,50.8707381 16.3940412,49.237496 18.4129608,49.2404836 Z" id="Path" fill="#023852" transform="translate(33.220016, 70.995620) rotate(-39.230000) translate(-33.220016, -70.995620) "></path>
            <polygon id="Rectangle" fill="#356075" transform="translate(26.229699, 76.649773) rotate(-39.230000) translate(-26.229699, -76.649773) " points="25.0638867 54.942512 27.3311437 54.9458717 27.3955106 98.3570344 25.1282536 98.3536747"></polygon>
            <polygon id="Rectangle" fill="#356075" transform="translate(41.040488, 64.616615) rotate(-39.230000) translate(-41.040488, -64.616615) " points="39.8746757 42.9093541 42.1419326 42.9127138 42.2062995 86.3238765 39.9390425 86.3205168"></polygon>
            <polygon id="Rectangle" fill="#356075" transform="translate(33.638255, 70.637056) rotate(-39.230000) translate(-33.638255, -70.637056) " points="32.4724434 48.9297944 34.7397003 48.9331541 34.8040672 92.3443168 32.5368102 92.3409571"></polygon>
            <polygon id="Rectangle" fill="#023852" transform="translate(217.555980, 95.951062) rotate(-140.770000) translate(-217.555980, -95.951062) " points="208.038929 81.5264185 227.115849 81.4981498 227.073031 110.375706 207.996111 110.403975"></polygon>
            <polygon id="Rectangle" fill="#7C8B95" opacity="0.8" style="mix-blend-mode: multiply;" transform="translate(221.877744, 90.670397) rotate(-140.770000) translate(-221.877744, -90.670397) " points="212.35057 83.0733534 231.42749 83.0450847 231.404919 98.26744 212.327999 98.2957087"></polygon>
            <path d="M218.894843,49.2714219 L255.72029,49.2168529 L255.66134,88.9746503 C255.6734,89.9591437 255.287313,90.9080018 254.590577,91.6061933 C253.893841,92.3043848 252.945447,92.6927947 251.960321,92.6834011 L222.48598,92.7270811 C220.46706,92.7300687 218.832828,91.0968266 218.835815,89.0791287 L218.894843,49.2714219 Z" id="Path" fill="#023852" transform="translate(237.278053, 70.971967) rotate(-140.770000) translate(-237.278053, -70.971967) "></path>
            <polygon id="Rectangle" fill="#356075" transform="translate(244.216971, 76.652182) rotate(-140.770000) translate(-244.216971, -76.652182) " points="243.115526 54.9482802 245.382783 54.9449205 245.318416 98.3560833 243.051159 98.359443"></polygon>
            <polygon id="Rectangle" fill="#356075" transform="translate(229.437760, 64.608300) rotate(-140.770000) translate(-229.437760, -64.608300) " points="228.336315 42.9043989 230.603572 42.9010392 230.539205 86.3122019 228.271948 86.3155616"></polygon>
            <polygon id="Rectangle" fill="#356075" transform="translate(237.743400, 71.525157) rotate(-140.710593) translate(-237.743400, -71.525157) " points="236.647604 49.9321635 238.903261 49.9288196 238.839196 93.1181507 236.583539 93.1214946"></polygon>
            <path d="M223.17,287.518731 C265.107224,245.639404 271.538379,180.060087 238.531496,130.875571 C205.524613,81.6910556 142.269273,62.5950036 87.4394029,85.2626242 C32.6095329,107.930245 1.47054107,166.050553 13.0606158,224.089149 C24.6506905,282.127746 75.7429916,323.925867 135.1,323.9284 C168.141494,323.933102 199.827689,310.833479 223.17,287.518731 Z" id="Path" fill="#023852"></path>
            <ellipse id="Oval" fill="#0099DA" cx="135.1" cy="199.615106" rx="101.21" ry="100.90423"></ellipse>
            <g id="Group" opacity="0.8" style="mix-blend-mode: multiply;" transform="translate(42.000000, 106.676737)" fill="#0099DA" fill-rule="nonzero">
                <path d="M13.6,93.9453172 L0.7,93.9453172 L0.7,92.9483384 C0.755103871,42.0925586 42.0901181,0.877963627 93.1,0.817522659 L94.1,0.817522659 L94.1,13.6785498 L93.1,13.6785498 C90.3242522,13.6813034 87.5505193,13.827724 84.79,14.1172205 L84.79,14.1172205 C82.0598724,14.4035439 79.3462977,14.8294827 76.66,15.3933535 L76.59,15.3933535 L76.59,15.3933535 C73.8875686,15.963831 71.2171937,16.6759982 68.59,17.5268882 L68.59,17.5268882 C66,18.3743202 63.4,19.3712991 60.86,20.5178248 L60.86,20.5178248 L60.86,20.5178248 L60.86,20.5178248 C58.341314,21.6355062 55.8844636,22.8868444 53.5,24.2664653 L53.5,24.2664653 C51.0901482,25.6506112 48.7536957,27.1580617 46.5,28.7827795 L46.5,28.7827795 C44.2415996,30.4004602 42.0718187,32.1376967 40,33.9870091 L39.94,33.9870091 L39.94,33.9870091 L39.94,33.9870091 C37.8784774,35.8476917 35.9158058,37.8144172 34.06,39.8791541 L34.06,39.8791541 L34.06,39.8791541 L34.06,39.9389728 C32.2236984,41.9784875 30.4947103,44.1115629 28.88,46.3296073 L28.88,46.3296073 C27.2523228,48.5757347 25.7435953,50.9052007 24.36,53.3084592 L24.36,53.3084592 C22.9713903,55.7034568 21.7096592,58.1693778 20.58,60.6960725 L20.58,60.6960725 C19.4475285,63.2185104 18.4462005,65.7974594 17.58,68.4226586 L17.58,68.4226586 C16.7248626,71.0422322 16.0072229,73.704452 15.43,76.3984894 L15.43,76.3984894 C14.8128263,79.114049 14.3355347,81.8593354 14,84.623565 L14,84.623565 C13.7093702,87.3790588 13.5625056,90.1477439 13.56,92.918429 L13.6,93.9453172 Z M2.73,91.9513595 L11.58,91.9513595 C11.58,89.807855 11.72,87.6344411 11.92,85.470997 L3.12,84.5537764 C2.89,86.9564955 2.76,89.429003 2.73,91.9214502 L2.73,91.9513595 Z M3.33,82.5398792 L12.13,83.4570997 C12.38,81.3435045 12.72,79.2 13.13,77.0564955 L4.47,75.2220544 C3.99666667,77.581571 3.61666667,80.0108761 3.33,82.5099698 L3.33,82.5398792 Z M4.91,73.2380665 L13.57,75.0725076 C14.04,72.9888218 14.57,70.8951662 15.25,68.8114804 L6.83,66.0797583 C6.1,68.3927492 5.45,70.7854985 4.91,73.2081571 L4.91,73.2380665 Z M7.46,64.1555891 L15.88,66.8873112 C16.57,64.8933535 17.35,62.8296073 18.22,60.8256798 L10.13,57.2365559 C9.15,59.4830816 8.26,61.7794562 7.46,64.1256798 L7.46,64.1555891 Z M10.96,55.392145 L19.05,58.9812689 C19.95,56.9873112 20.94,55.0830816 22.05,53.2087613 L14.4,48.8021148 C13.13,50.91571 12,53.1190332 11,55.3622356 L10.96,55.392145 Z M15.36,47.047432 L23,51.4241692 C24.12,49.5498489 25.31,47.7253776 26.54,45.9806647 L19.4,40.8063444 C17.9733333,42.8468278 16.6266667,44.9172205 15.36,47.0175227 L15.36,47.047432 Z M20.61,39.2012085 L27.76,44.3755287 C29.08,42.6208459 30.45,40.9259819 31.85,39.3308157 L25.3,33.4586103 C23.66,35.2731118 22.1,37.197281 20.61,39.1712991 L20.61,39.2012085 Z M26.61,31.9531722 L33.17,37.8353474 C34.63,36.2501511 36.17,34.7048338 37.77,33.2492447 L31.87,26.7190332 C30.09,28.3540785 28.33,30.1087613 26.65,31.9033233 L26.61,31.9531722 Z M33.37,25.363142 L39.27,31.8933535 C40.87,30.4975831 42.57,29.1317221 44.33,27.81571 L39.14,20.697281 C37.2,22.1429003 35.27,23.6981873 33.41,25.3332326 L33.37,25.363142 Z M40.78,19.5009063 L46,26.589426 C47.76,25.3531722 49.59,24.1767372 51.46,23.0601208 L47.04,15.4232628 C44.91,16.689426 42.84,18.0453172 40.82,19.470997 L40.78,19.5009063 Z M48.78,14.4462236 L53.21,22.0731118 C55.1,21.0163142 57.04,20.0293051 59,19.0821752 L55.4,11.0166163 C53.1333333,12.0667674 50.9333333,13.2 48.8,14.4163142 L48.78,14.4462236 Z M57.25,10.2389728 L60.85,18.3045317 C62.85,17.4471299 64.85,16.6595166 66.93,15.9716012 L64.19,7.57703927 C61.8433333,8.35468278 59.5366667,9.23202417 57.27,10.2090634 L57.25,10.2389728 Z M66.12,6.9489426 L68.86,15.3534743 C70.95,14.6954683 73.05,14.1371601 75.14,13.6685801 L73.32,4.98489426 C70.89,5.54320242 68.49,6.19123867 66.14,6.91903323 L66.12,6.9489426 Z M75.29,4.61601208 L77.13,13.2498489 C79.27,12.821148 81.43,12.4821752 83.55,12.2528701 L82.63,3.47945619 C80.1633333,3.72537764 77.7233333,4.09425982 75.31,4.58610272 L75.29,4.61601208 Z M84.65,3.25015106 L85.57,12.023565 C87.74,11.8241692 89.92,11.7145015 92.07,11.6845921 L92.07,2.86132931 C89.59,2.86132931 87.11,2.99093656 84.67,3.22024169 L84.65,3.25015106 Z" id="Shape"></path>
                <path d="M185.51,93.9453172 L172.61,93.9453172 L172.61,92.9483384 C172.60611,90.2144317 172.462591,87.4824958 172.18,84.763142 L172.18,84.5637462 C171.892824,81.8616557 171.465586,79.1761916 170.9,76.5181269 L170.9,76.4583082 L170.9,76.4583082 L170.9,76.4583082 C170.325888,73.7644964 169.61159,71.1022879 168.76,68.4824773 L168.76,68.4824773 C167.91,65.9003021 166.91,63.3081571 165.76,60.7858006 L165.76,60.7858006 C164.634323,58.2604471 163.37248,55.7976362 161.98,53.4081571 L161.98,53.4081571 C160.587742,51.0057722 159.072405,48.6764081 157.44,46.4293051 L157.44,46.4293051 C155.808322,44.1568998 154.059296,41.9705678 152.2,39.8791541 L152.2,39.8791541 C150.34127,37.8266545 148.378719,35.8700329 146.32,34.0169184 L146.32,34.0169184 C144.264387,32.1762032 142.114861,30.4424777 139.88,28.8226586 L139.88,28.8226586 C137.626088,27.1951854 135.289665,25.6844264 132.88,24.2963746 L132.88,24.2963746 C130.484396,22.9153291 128.017662,21.6607296 125.49,20.5377644 L125.49,20.5377644 C122.9602,19.4080421 120.3734,18.4097257 117.74,17.5468278 L117.74,17.5468278 C115.112343,16.6974993 112.442051,15.9853542 109.74,15.4132931 L109.65,15.4132931 C106.961402,14.8413086 104.244246,14.4120038 101.51,14.1271903 L101.51,14.1271903 C98.7461562,13.8374386 95.9690812,13.6910177 93.19,13.6885196 L92.19,13.6885196 L92.19,0.827492447 L93.19,0.827492447 C144.203787,0.882440277 185.544886,42.0986412 185.6,92.9583082 L185.51,93.9453172 Z M174.63,91.9513595 L183.48,91.9513595 C183.48,89.4589124 183.32,86.9664653 183.09,84.5537764 L174.29,85.470997 C174.49,87.6045317 174.6,89.7779456 174.63,91.9214502 L174.63,91.9513595 Z M173.06,77.0564955 C173.49,79.2 173.83,81.3435045 174.06,83.4570997 L182.86,82.5398792 C182.58,80.0673716 182.193333,77.6280967 181.7,75.2220544 L173.06,77.0564955 Z M171,68.7915408 C171.65,70.8752266 172.22,72.978852 172.69,75.052568 L181.35,73.2181269 C180.81,70.7954683 180.16,68.4126888 179.43,66.0598187 L171,68.7915408 Z M168,60.81571 C168.86,62.8096677 169.65,64.8036254 170.34,66.8773414 L178.76,64.1456193 C177.96,61.7927492 177.07,59.4864048 176.09,57.2265861 L168,60.81571 Z M164.22,53.1987915 C165.28,55.0830816 166.22,57.0172205 167.17,58.9712991 L175.26,55.3821752 C174.26,53.1389728 173.09,50.9356495 171.87,48.792145 L164.22,53.1987915 Z M159.65,46.0006042 C160.89,47.755287 162.08,49.5797583 163.2,51.4441088 L170.86,47.0374622 C169.59,44.9138973 168.23,42.8401813 166.8,40.826284 L159.65,46.0006042 Z M154.37,39.3208459 C155.77,40.9160121 157.14,42.6108761 158.46,44.3655589 L165.6,39.1912387 C164.12,37.197281 162.6,35.2930514 160.92,33.4486405 L154.37,39.3208459 Z M148.37,33.2392749 C149.96,34.694864 151.5,36.2302115 152.97,37.8253776 L159.52,31.9432024 C157.85,30.1287009 156.09,28.3740181 154.27,26.7090634 L148.37,33.2392749 Z M141.81,27.8057402 C143.57,29.1217523 145.27,30.4876133 146.87,31.8833837 L152.76,25.3531722 C150.91,23.7181269 148.98,22.1628399 147,20.6873112 L141.81,27.8057402 Z M134.71,23.0800604 C136.58,24.1966767 138.41,25.3731118 140.16,26.6193353 L145.36,19.4909366 C143.36,18.0652568 141.26,16.7093656 139.13,15.4432024 L134.71,23.0800604 Z M127.16,19.092145 C129.16,19.989426 131.06,20.976435 132.95,22.0830816 L137.37,14.4561934 C135.22,13.2398792 133.01,12.1132931 130.76,11.076435 L127.16,19.092145 Z M119.26,15.9516616 C121.26,16.639577 123.34,17.4271903 125.34,18.2845921 L128.94,10.2190332 C126.666667,9.24199396 124.353333,8.35468278 122,7.5570997 L119.26,15.9516616 Z M111.05,13.6486405 C113.14,14.1172205 115.24,14.6456193 117.33,15.3335347 L120.07,6.92900302 C117.71,6.20120846 115.32,5.55317221 112.89,5.01480363 L111.05,13.6486405 Z M102.63,12.2129909 C104.76,12.4622356 106.92,12.8012085 109.06,13.2099698 L110.9,4.57613293 C108.493333,4.09093656 106.046667,3.70543807 103.56,3.41963746 L102.63,12.2129909 Z M94.12,11.6646526 C96.27,11.6646526 98.45,11.8042296 100.62,12.0036254 L101.54,3.23021148 C99.0933333,2.99758308 96.62,2.86797583 94.12,2.84138973 L94.12,11.6646526 Z" id="Shape"></path>
                <path d="M93.1,185.059215 L92.1,185.059215 L92.1,172.198187 L93.1,172.198187 C95.8790812,172.195689 98.6561562,172.049268 101.42,171.759517 L101.42,171.759517 C104.174165,171.470594 106.911252,171.037976 109.62,170.463444 L109.62,170.463444 C112.323404,169.89295 114.993954,169.177408 117.62,168.31994 L117.62,168.31994 C120.257041,167.458077 122.847222,166.459743 125.38,165.329003 L125.38,165.329003 C127.914351,164.202757 130.387745,162.944837 132.79,161.560423 L132.79,161.560423 C135.201119,160.178346 137.537678,158.670826 139.79,157.044109 L139.79,157.044109 C142.015783,155.427896 144.158498,153.700934 146.21,151.869789 L146.21,151.869789 C148.268719,150.016674 150.23127,148.060052 152.09,146.007553 L152.09,146.007553 L152.09,146.007553 C153.933332,143.955635 155.672187,141.812757 157.3,139.587009 L157.3,139.587009 C158.931389,137.341315 160.443467,135.011829 161.83,132.608157 L161.83,132.608157 C163.207927,130.224296 164.462893,127.77186 165.59,125.260423 L165.59,125.260423 L165.59,125.260423 L165.59,125.260423 C166.723247,122.755274 167.724608,120.192878 168.59,117.583686 L168.59,117.583686 C169.442216,114.96406 170.156524,112.301819 170.73,109.607855 L170.73,109.558006 L170.73,109.558006 L170.73,109.488218 C171.29,106.806344 171.73,104.104532 172,101.452568 L172,101.263142 C172.282075,98.5437482 172.425593,95.8118384 172.43,93.0779456 L172.43,92.0809668 L185.33,92.0809668 L185.33,93.0779456 C185.19272,143.809332 143.98507,184.90585 93.1,185.059215 Z M94.1,174.212085 L94.1,183.035347 C96.6,183.035347 99.0733333,182.90574 101.52,182.646526 L100.6,173.873112 C98.45,174.072508 96.27,174.182175 94.12,174.212085 L94.1,174.212085 Z M102.61,173.663746 L103.54,182.43716 C106.02,182.158006 108.466667,181.772508 110.88,181.280665 L109.04,172.646828 C106.91,173.075529 104.76,173.414502 102.63,173.663746 L102.61,173.663746 Z M111.03,172.228097 L112.87,180.861934 C115.3,180.323565 117.69,179.675529 120.05,178.947734 L117.31,170.553172 C115.24,171.191239 113.14,171.759517 111.05,172.228097 L111.03,172.228097 Z M119.24,169.925076 L121.98,178.319637 C124.34,177.522054 126.653333,176.634743 128.92,175.657704 L125.32,167.592145 C123.33,168.489426 121.29,169.23716 119.26,169.925076 L119.24,169.925076 Z M127.17,166.764653 L130.77,174.830211 C133.02,173.833233 135.23,172.666767 137.38,171.450453 L133,163.823565 C131.1,164.880363 129.15,165.867372 127.19,166.764653 L127.17,166.764653 Z M134.72,162.776737 L139.14,170.413595 C141.27,169.147432 143.35,167.791541 145.37,166.365861 L140.17,159.247432 C138.45,160.513595 136.62,161.69003 134.74,162.806647 L134.72,162.776737 Z M141.82,158.051057 L147,165.199396 C149,163.723867 150.91,162.208459 152.76,160.533535 L146.87,154.003323 C145.3,155.399094 143.6,156.764955 141.84,158.080967 L141.82,158.051057 Z M148.38,152.617523 L154.28,159.157704 C156.1,157.482779 157.86,155.728097 159.53,153.913595 L152.98,148.03142 C151.53,149.646526 150,151.191843 148.4,152.647432 L148.38,152.617523 Z M154.38,146.535952 L160.93,152.418127 C162.57,150.563746 164.13,148.639577 165.61,146.665559 L158.45,141.570997 C157.13,143.275831 155.76,144.970695 154.36,146.555891 L154.38,146.535952 Z M159.66,139.856193 L166.81,145.030514 C168.24,143.036556 169.6,140.95287 170.87,138.819335 L163.21,134.412689 C162.07,136.316918 160.88,138.13142 159.64,139.886103 L159.66,139.856193 Z M164.23,132.658006 L171.88,137.074622 C173.1,134.921148 174.23,132.721148 175.27,130.474622 L167.18,126.885498 C166.26,128.869486 165.27,130.803625 164.21,132.687915 L164.23,132.658006 Z M168.01,125.041088 L176.1,128.630211 C177.08,126.363746 177.97,124.057402 178.77,121.711178 L170.35,118.979456 C169.64,121.043202 168.85,123.077039 168,125.070997 L168.01,125.041088 Z M171.01,117.065257 L179.44,119.796979 C180.17,117.454079 180.82,115.061329 181.36,112.638671 L172.7,110.80423 C172.17,112.897885 171.6,115.001511 171,117.085196 L171.01,117.065257 Z M173.12,108.820242 L181.78,110.654683 C182.273333,108.24864 182.66,105.809366 182.94,103.336858 L174.14,102.419637 C173.83,104.553172 173.49,106.676737 173.06,108.840181 L173.12,108.820242 Z M174.35,100.40574 L183.15,101.322961 C183.38,98.8903323 183.51,96.4178248 183.54,93.9253776 L174.69,93.9253776 C174.6,96.0888218 174.49,98.2622356 174.29,100.42568 L174.35,100.40574 Z" id="Shape"></path>
                <path d="M94.12,185.059215 L93.12,185.059215 C42.1117357,185.004267 0.775114326,143.792529 0.72,92.9383686 L0.72,91.9413897 L13.6,91.9413897 L13.6,92.9383686 C13.6027619,95.7057305 13.7496262,98.4710835 14.04,101.223263 L14.04,101.223263 C14.3297986,103.969107 14.7637269,106.697925 15.34,109.398489 L15.34,109.398489 C15.9159609,112.09283 16.6336181,114.755115 17.49,117.37432 L17.49,117.37432 C18.351907,119.997791 19.3533248,122.573643 20.49,125.090937 L20.49,125.090937 C21.6183441,127.61326 22.8766891,130.075759 24.26,132.46858 L24.26,132.46858 C25.6472961,134.871787 27.1593492,137.201234 28.79,139.447432 L28.79,139.447432 C30.4099198,141.691954 32.1490695,143.848507 34,145.907855 L34,145.967674 L34,145.967674 L34,145.967674 C35.83871,148.000227 37.7812874,149.936936 39.82,151.770091 L39.82,151.770091 L39.82,151.770091 L39.88,151.770091 C41.9236485,153.603238 44.0633164,155.327106 46.29,156.934441 L46.29,156.934441 C48.525864,158.556932 50.8457316,160.061123 53.24,161.440785 L53.24,161.440785 C55.6389923,162.821901 58.1090583,164.076497 60.64,165.199396 L60.64,165.199396 C63.1751154,166.332687 65.7687615,167.331069 68.41,168.190332 L68.41,168.190332 C71.0374761,169.040271 73.7078005,169.752424 76.41,170.323867 L76.41,170.323867 C79.112044,170.895901 81.8425167,171.3252 84.59,171.60997 L84.59,171.60997 C87.3505193,171.899466 90.1242522,172.045887 92.9,172.04864 L93.9,172.04864 L94.12,185.059215 Z M84.67,182.646526 C87.11,182.875831 89.59,183.005438 92.09,183.035347 L92.09,174.212085 C89.94,174.212085 87.76,174.072508 85.59,173.873112 L84.67,182.646526 Z M75.31,181.280665 C77.7166667,181.772508 80.1633333,182.158006 82.65,182.43716 L83.57,173.663746 C81.45,173.414502 79.29,173.075529 77.15,172.666767 L75.31,181.280665 Z M66.14,178.947734 C68.49,179.675529 70.89,180.323565 73.32,180.861934 L75.16,172.228097 C73.07,171.759517 70.96,171.231118 68.88,170.553172 L66.14,178.947734 Z M57.27,175.657704 C59.5433333,176.634743 61.8566667,177.522054 64.21,178.319637 L66.95,169.925076 C64.95,169.23716 62.88,168.459517 60.87,167.592145 L57.27,175.657704 Z M48.8,171.480363 C50.96,172.696677 53.1666667,173.823263 55.42,174.860121 L59.02,166.804532 C57.02,165.897281 55.12,164.910272 53.23,163.813595 L48.8,171.480363 Z M40.8,166.42568 C42.8,167.85136 44.89,169.207251 47.03,170.473414 L51.45,162.836556 C49.57,161.71994 47.74,160.533535 45.99,159.307251 L40.8,166.42568 Z M33.41,160.513595 C35.27,162.14864 37.2,163.703927 39.18,165.179456 L44.37,158.061027 C42.61,156.745015 40.91,155.379154 39.31,153.983384 L33.41,160.513595 Z M26.65,153.923565 C28.33,155.738066 30.09,157.492749 31.91,159.167674 L37.81,152.627492 C36.22,151.171903 34.67,149.636556 33.21,148.04139 L26.65,153.923565 Z M20.65,146.675529 C22.14,148.669486 23.65,150.573716 25.34,152.428097 L31.89,146.545921 C30.49,144.950755 29.12,143.255891 27.8,141.501208 L20.65,146.675529 Z M15.4,138.829305 C16.67,140.96284 18.02,143.026586 19.46,145.040483 L26.6,139.866163 C25.37,138.12145 24.18,136.296979 23.06,134.422659 L15.4,138.829305 Z M11,130.504532 C12,132.757704 13.17,134.951057 14.39,137.104532 L22,132.687915 C20.94,130.803625 20,128.869486 19,126.915408 L11,130.504532 Z M7.5,121.741088 C8.3,124.093958 9.19,126.400302 10.17,128.660121 L18.26,125.070997 C17.3933333,123.077039 16.6133333,121.056495 15.92,119.009366 L7.5,121.741088 Z M4.91,112.65861 C5.45,115.081269 6.1,117.474018 6.83,119.816918 L15.25,117.085196 C14.6,115.01148 14.04,112.907855 13.57,110.824169 L4.91,112.65861 Z M3.33,103.356798 C3.61,105.829305 3.99666667,108.271903 4.49,110.684592 L13.15,108.840181 C12.72,106.706647 12.38,104.553172 12.15,102.439577 L3.33,103.356798 Z M2.73,93.9453172 C2.73,96.4377644 2.89,98.9302115 3.12,101.3429 L11.92,100.42568 C11.72,98.2622356 11.61,96.0888218 11.58,93.9453172 L2.73,93.9453172 Z" id="Shape"></path>
            </g>
            <rect id="Rectangle" fill="#FFEC33" x="214.58" y="198.039879" width="12.93" height="3.31993958"></rect>
            <rect id="Rectangle" fill="#FFEC33" x="42.7" y="198.039879" width="12.93" height="3.31993958"></rect>
            <polygon id="Rectangle" fill="#FFEC33" transform="translate(135.105000, 113.785196) rotate(-90.000000) translate(-135.105000, -113.785196) " points="128.534909 112.120196 141.675091 112.120196 141.675091 115.450196 128.534909 115.450196"></polygon>
            <polygon id="Rectangle" fill="#FFEC33" transform="translate(135.105000, 285.155891) rotate(-90.000000) translate(-135.105000, -285.155891) " points="128.52494 283.490891 141.68506 283.490891 141.68506 286.820891 128.52494 286.820891"></polygon>
            <path d="M199.86,192.307251 C195.875938,156.367207 164.146529,129.97065 127.96674,132.497296 C91.7869519,135.023942 64.0585116,165.572787 65.1389716,201.715607 C66.2194316,237.858426 95.7234993,266.706675 131.99,267.080665 L131.99,246.851964 C106.923161,246.484804 86.4975177,226.682985 85.4279103,201.711939 C84.358303,176.740893 103.016292,155.27507 127.960473,152.778667 C152.904655,150.282263 175.46991,167.622481 179.4,192.307251 L168.52,192.307251 L189.52,221.389124 L210.57,192.307251 L199.86,192.307251 Z" id="Path" fill="url(#linearGradient-2)"></path>
            <path d="M85.38,199.704834 C85.426616,175.134137 104.389039,154.71667 128.957813,152.783164 C153.526586,150.849658 175.467266,168.048145 179.38,192.307251 L168.52,192.307251 L189.52,221.389124 L210.57,192.307251 L199.86,192.307251 C195.958918,156.717456 164.820426,130.384368 128.96457,132.352657 C93.1087134,134.320947 65.0582965,163.90318 65.0999536,199.704834 L85.38,199.704834 Z" id="Path" fill="#FFFFFF"></path>
        </g>
    </g>
</svg>