<?xml version="1.0" encoding="UTF-8"?>
<svg width="440px" height="330px" viewBox="0 0 440 330" version="1.1" xmlns="http://www.w3.org/2000/svg" xmlns:xlink="http://www.w3.org/1999/xlink">
    <title>Graphic elements / Icons / Rich icons / transaction</title>
    <g id="Graphic-elements-/-Icons-/-Rich-icons-/-transaction" stroke="none" stroke-width="1" fill="none" fill-rule="evenodd">
        <g id="Transaction" transform="translate(20.000000, 39.000000)" fill-rule="nonzero">
            <path d="M234.413965,273.316708 L234.413965,249.376559 L164.588529,249.376559 L164.588529,273.316708 C164.538868,273.938263 164.442165,274.555159 164.299252,275.162095 C163.999861,276.579653 163.506436,277.949158 162.832918,279.23192 C162.003065,280.854944 160.787012,282.249123 159.291771,283.291771 C157.360649,284.559224 155.087012,285.203363 152.778055,285.137157 L246.264339,285.137157 C243.955382,285.203363 241.681745,284.559224 239.750623,283.291771 C238.255382,282.249123 237.039329,280.854944 236.209476,279.23192 C235.535958,277.949158 235.042533,276.579653 234.743142,275.162095 C234.586784,274.556202 234.47674,273.939294 234.413965,273.316708 Z" id="Path" fill="#96A6AE"></path>
            <path d="M260.648379,285.127182 L138.354115,285.127182 C137.591365,285.127536 136.837101,285.287222 136.139651,285.59601 C135.458558,285.901162 134.844857,286.338552 134.334165,286.882793 C133.808653,287.430988 133.392268,288.074184 133.107232,288.778055 C132.812469,289.520727 132.663456,290.313206 132.668213,291.112219 L266.33428,291.112219 C266.339038,290.313206 266.190025,289.520727 265.895262,288.778055 C265.610225,288.074184 265.193841,287.430988 264.668329,286.882793 C264.157637,286.338552 263.543935,285.901162 262.862843,285.59601 C262.165393,285.287222 261.411128,285.127536 260.648379,285.127182 Z" id="Path" fill="#CAD3D6"></path>
            <polygon id="Path" fill="#96A6AE" opacity="0.2" style="mix-blend-mode: multiply;" points="164.588529 249.376559 182.044888 249.376559 199.501247 249.376559 216.957606 249.376559 234.413965 249.376559 234.413965 254.36409 234.413965 259.351621 234.413965 264.339152 234.413965 269.326683 216.957606 269.326683 199.501247 269.326683 182.044888 269.326683 164.588529 269.326683 164.588529 264.339152 164.588529 259.351621 164.588529 254.36409"></polygon>
            <path d="M393.496259,249.376559 L5.50623441,249.376559 C4.03947295,249.380478 2.63454285,248.786085 1.6159601,247.730673 C0.566823155,246.669344 -0.0149271326,245.232924 -0.000280328619,243.740648 L-0.000280328619,5.6159601 C-0.0149271326,4.12368489 0.566823155,2.68726442 1.6159601,1.62593516 C2.63791455,0.57786017 4.04241462,-0.00914883743 5.50623441,-0.000105361948 L393.53616,-0.000105361948 C395.002921,-0.00391986212 396.407851,0.59047364 397.426434,1.64588529 C398.475571,2.70721455 399.057321,4.14363501 399.042674,5.63591022 L399.042674,243.760599 C399.057321,245.252874 398.475571,246.689294 397.426434,247.750623 C396.407851,248.806035 395.002921,249.400429 393.53616,249.396528 L393.496259,249.376559 Z" id="Path" fill="#023852"></path>
            <polygon id="Path" fill="#0099DA" points="11.9700748 224.438903 105.735661 224.438903 199.501247 224.438903 293.266833 224.438903 387.032419 224.438903 387.032419 171.321696 387.032419 118.204489 387.032419 65.0872818 387.032419 11.9700748 293.266833 11.9700748 199.501247 11.9700748 105.735661 11.9700748 11.9700748 11.9700748 11.9700748 65.0872818 11.9700748 118.204489 11.9700748 171.321696"></polygon>
            <polygon id="Path" fill="#125275" points="387.032419 25.9351621 293.266833 25.9351621 199.501247 25.9351621 105.735661 25.9351621 11.9700748 25.9351621 11.9700748 22.4438903 11.9700748 18.9526185 11.9700748 15.4613466 11.9700748 11.9700748 105.735661 11.9700748 199.501247 11.9700748 293.266833 11.9700748 387.032419 11.9700748 387.032419 15.4613466 387.032419 18.9526185 387.032419 22.4438903"></polygon>
            <path d="M205.985042,236.907731 C205.986098,236.051597 205.816545,235.203835 205.486284,234.413965 C204.832903,232.855448 203.59343,231.615975 202.034913,230.962594 C200.420828,230.284245 198.601616,230.284245 196.987531,230.962594 C195.421486,231.611656 194.174287,232.851687 193.516209,234.413965 C192.837861,236.02805 192.837861,237.847262 193.516209,239.461347 C194.169591,241.019864 195.409064,242.259337 196.967581,242.912718 C198.581666,243.591067 200.400878,243.591067 202.014963,242.912718 C203.59236,242.249618 204.841254,240.986368 205.486284,239.401496 C205.816545,238.611627 205.986098,237.763864 205.985042,236.907731 L205.985042,236.907731 Z" id="Path" fill="#125275"></path>
            <polygon id="Path" fill="#FFFFFF" opacity="0.2" points="11.9700748 11.9700748 25.9351621 25.4064838 39.9002494 38.8329177 53.8653367 52.2593516 67.8304239 65.6857855 109.236908 105.396509 150.673317 145.087282 192.109726 184.76808 233.645885 224.438903 387.032419 224.438903 387.032419 11.9700748"></polygon>
            <path d="M265.775561,145.067332 C265.759183,148.525733 262.959648,151.325268 259.501247,151.341646 L123.201995,151.341646 C119.742961,151.330669 116.943129,148.526379 116.937656,145.067332 L116.937656,64.0299252 C116.943129,60.5708777 119.742961,57.7665878 123.201995,57.755611 L259.501247,57.755611 C262.959648,57.7719888 265.759183,60.5715238 265.775561,64.0299252 L265.775561,145.067332 Z" id="Path" fill="#023852" opacity="0.3" style="mix-blend-mode: multiply;"></path>
            <path d="M275.032419,165.366584 C275.016041,168.824985 272.216506,171.62452 268.758105,171.640898 L132.468828,171.640898 C129.010427,171.62452 126.210892,168.824985 126.194514,165.366584 L126.194514,84.3391521 C126.210892,80.8807507 129.010427,78.0812158 132.468828,78.0648379 L268.758105,78.0648379 C272.216506,78.0812158 275.016041,80.8807507 275.032419,84.3391521 L275.032419,165.366584 L275.032419,165.366584 Z" id="Path" fill="#009BDB" opacity="0.3" style="mix-blend-mode: multiply;"></path>
            <path d="M280.837905,154.982544 C280.832432,158.441591 278.0326,161.245881 274.573566,161.256858 L138.274314,161.256858 C134.815913,161.24048 132.016378,158.440945 132,154.982544 L132,73.9451372 C132.016378,70.4867358 134.815913,67.6872008 138.274314,67.6708229 L274.573566,67.6708229 C278.0326,67.6817997 280.832432,70.4860897 280.837905,73.9451372 L280.837905,154.982544 Z" id="Path" fill="#023852"></path>
            <path d="M138.274314,161.256858 L274.573566,161.256858 C278.0326,161.245881 280.832432,158.441591 280.837905,154.982544 L280.837905,141.53616 C269.157107,147.331671 251.790524,152.678304 227.431421,152.72818 C203.072319,152.778055 171.690773,147.541147 132,132.189526 L132,154.982544 C132.016378,158.440945 134.815913,161.24048 138.274314,161.256858 L138.274314,161.256858 Z" id="Path" fill="#B7B7C1" style="mix-blend-mode: multiply;"></path>
            <path d="M280.837905,154.663342 L280.837905,118.952618 C276.923522,126.50768 272.081439,133.544618 266.42394,139.900249 C259.102271,148.122944 250.588597,155.200861 241.167082,160.897756 L274.573566,160.897756 C278.0326,160.886779 280.832432,158.082489 280.837905,154.623441 L280.837905,154.663342 Z" id="Path" fill="#B7B7C1" style="mix-blend-mode: multiply;"></path>
            <path d="M131.990025,73.8154613 L131.990025,155.022444 C132.006403,158.480845 134.805938,161.28038 138.264339,161.296758 L243.391521,161.296758 C226.334165,128.279302 198.503741,106.433915 174.892768,92.798005 C151.281796,79.1620948 131.990025,73.8154613 131.990025,73.8154613 Z" id="Path" fill="#B7B7C1" style="mix-blend-mode: multiply;"></path>
            <path d="M138.274314,161.256858 L274.573566,161.256858 C278.0326,161.245881 280.832432,158.441591 280.837905,154.982544 L280.837905,150.523691 C260.169576,122.34414 228.967581,110.42394 199.950125,106.034913 C170.932668,101.645885 144.089776,104.78803 132,106.723192 L132,154.982544 C132.016378,158.440945 134.815913,161.24048 138.274314,161.256858 Z" id="Path" fill="#B7B7C1" style="mix-blend-mode: multiply;"></path>
            <path d="M146.982544,127.770574 C146.899167,127.767284 146.820393,127.731478 146.763092,127.670823 C146.702062,127.614635 146.669167,127.534224 146.673317,127.451372 L146.673317,121.386534 L144.897756,121.386534 C144.814903,121.390684 144.734492,121.357788 144.678304,121.296758 C144.614707,121.241606 144.57829,121.161487 144.578552,121.077307 C144.579568,120.993407 144.615759,120.913787 144.678304,120.857855 C144.734492,120.796825 144.814903,120.76393 144.897756,120.76808 L146.982544,120.76808 C147.067951,120.766098 147.15059,120.798434 147.21197,120.857855 C147.267324,120.917822 147.299198,120.995738 147.301746,121.077307 L147.301746,127.451372 C147.301106,127.533335 147.268961,127.611912 147.21197,127.670823 C147.151602,127.73297 147.069166,127.768812 146.982544,127.770574 Z" id="Path" fill="#FFFFFF"></path>
            <path d="M155.331671,127.780549 L151.531172,127.780549 C151.448319,127.784699 151.367909,127.751803 151.311721,127.690773 C151.251066,127.633472 151.215259,127.554698 151.21197,127.471322 L151.21197,124.179551 C151.215259,124.096175 151.251066,124.017401 151.311721,123.9601 C151.367909,123.899069 151.448319,123.866174 151.531172,123.870324 L154.912718,123.870324 L154.912718,121.386534 L150.922693,121.386534 C150.84052,121.386956 150.761558,121.354653 150.703242,121.296758 C150.644763,121.238703 150.611874,121.159709 150.611874,121.077307 C150.611874,120.994904 150.644763,120.91591 150.703242,120.857855 C150.761558,120.79996 150.84052,120.767658 150.922693,120.768076 L155.221945,120.768076 C155.304118,120.767658 155.38308,120.79996 155.441397,120.857855 C155.498388,120.916766 155.530533,120.995343 155.531172,121.077307 L155.531172,124.179551 C155.529237,124.26422 155.49744,124.345481 155.441397,124.408978 C155.38052,124.462886 155.30315,124.494537 155.221945,124.498753 L151.830424,124.498753 L151.830424,127.15212 L155.321696,127.15212 C155.408319,127.153881 155.490754,127.189723 155.551122,127.25187 C155.608113,127.310781 155.640258,127.389358 155.640898,127.471322 C155.636682,127.552527 155.60503,127.629897 155.551122,127.690773 C155.492211,127.747764 155.413635,127.779909 155.331671,127.780549 Z" id="Path" fill="#FFFFFF"></path>
            <path d="M180.379052,127.780549 L176.558603,127.780549 C176.473196,127.782531 176.390557,127.750194 176.329177,127.690773 C176.275269,127.629897 176.243618,127.552527 176.239401,127.471322 C176.240041,127.389358 176.272186,127.310781 176.329177,127.25187 C176.389545,127.189723 176.471981,127.153881 176.558603,127.15212 L180.049875,127.15212 L180.049875,124.498753 L176.668329,124.498753 C176.582842,124.501558 176.500012,124.46883 176.439531,124.408349 C176.379051,124.347868 176.346322,124.265038 176.349127,124.179551 L176.349127,121.077307 C176.349084,120.993537 176.383028,120.913333 176.443195,120.855047 C176.503362,120.79676 176.584603,120.765378 176.668329,120.76808 L180.329177,120.76808 C180.411795,120.765275 180.491665,120.797949 180.548628,120.857855 C180.607108,120.91591 180.639997,120.994904 180.639997,121.077307 C180.639997,121.159709 180.607108,121.238703 180.548628,121.296758 C180.491665,121.356664 180.411795,121.389339 180.329177,121.386534 L176.977556,121.386534 L176.977556,123.870324 L180.359102,123.870324 C180.44451,123.868342 180.527148,123.900679 180.588529,123.9601 C180.642437,124.020976 180.674088,124.098346 180.678304,124.179551 L180.678304,127.471322 C180.674088,127.552527 180.642437,127.629897 180.588529,127.690773 C180.532129,127.745455 180.457546,127.777419 180.379052,127.780549 Z" id="Path" fill="#FFFFFF"></path>
            <path d="M242.583541,127.780549 L238.783042,127.780549 C238.70019,127.784699 238.619779,127.751803 238.563591,127.690773 C238.502936,127.633472 238.46713,127.554698 238.46384,127.471322 C238.473695,127.299278 238.610999,127.161974 238.783042,127.15212 L242.274314,127.15212 L242.274314,124.498753 L238.892768,124.498753 C238.807281,124.501558 238.724451,124.46883 238.66397,124.408349 C238.603489,124.347868 238.570761,124.265038 238.573566,124.179551 L238.573566,121.077307 C238.573522,120.993537 238.607467,120.913333 238.667634,120.855047 C238.727801,120.79676 238.809042,120.765378 238.892768,120.76808 L242.553616,120.76808 C242.636234,120.765275 242.716104,120.797949 242.773067,120.857855 C242.831546,120.91591 242.864436,120.994904 242.864436,121.077307 C242.864436,121.159709 242.831546,121.238703 242.773067,121.296758 C242.716104,121.356664 242.636234,121.389339 242.553616,121.386534 L239.201995,121.386534 L239.201995,123.870324 L242.583541,123.870324 C242.668949,123.868342 242.751587,123.900679 242.812968,123.9601 C242.866876,124.020976 242.898527,124.098346 242.902743,124.179551 L242.902743,127.471322 C242.898527,127.552527 242.866876,127.629897 242.812968,127.690773 C242.751587,127.750194 242.668949,127.782531 242.583541,127.780549 Z" id="Path" fill="#FFFFFF"></path>
            <path d="M161.695761,127.780549 L157.995012,127.780549 C157.909605,127.782531 157.826966,127.750194 157.765586,127.690773 C157.711678,127.629897 157.680027,127.552527 157.67581,127.471322 C157.67645,127.389358 157.708595,127.310781 157.765586,127.25187 C157.825954,127.189723 157.90839,127.153881 157.995012,127.15212 L161.376559,127.15212 L161.376559,121.386534 L157.386534,121.386534 C157.30436,121.386956 157.225398,121.354653 157.167082,121.296758 C157.108603,121.238703 157.075714,121.159709 157.075714,121.077307 C157.075714,120.994904 157.108603,120.91591 157.167082,120.857855 C157.225398,120.79996 157.30436,120.767658 157.386534,120.768076 L161.685786,120.768076 C161.767959,120.767658 161.846921,120.79996 161.905237,120.857855 C161.962228,120.916766 161.994373,120.995343 161.995012,121.077307 L161.995012,127.471322 C161.990796,127.552527 161.959145,127.629897 161.905237,127.690773 C161.849388,127.746276 161.774469,127.778384 161.695761,127.780549 Z" id="Path" fill="#FFFFFF"></path>
            <path d="M161.59601,124.438903 L158.294264,124.438903 C158.123483,124.438903 157.985037,124.300457 157.985037,124.129676 C157.985037,123.958894 158.123483,123.820449 158.294264,123.820449 L161.59601,123.820449 C161.678183,123.820027 161.757145,123.852329 161.815461,123.910224 C161.87394,123.968279 161.90683,124.047273 161.90683,124.129676 C161.90683,124.212078 161.87394,124.291072 161.815461,124.349127 C161.757145,124.407022 161.678183,124.439325 161.59601,124.438903 Z" id="Path" fill="#FFFFFF"></path>
            <path d="M167.810474,125.53616 L164.488778,125.53616 C164.317997,125.53616 164.179551,125.397714 164.179551,125.226933 L164.179551,120.78803 C164.176746,120.705412 164.20942,120.625541 164.269327,120.568579 C164.327643,120.510683 164.406605,120.478381 164.488778,120.478803 C164.574186,120.476821 164.656824,120.509157 164.718204,120.568579 C164.773558,120.628545 164.805432,120.706461 164.80798,120.78803 L164.80798,124.907731 L167.800499,124.907731 C167.887122,124.909492 167.969557,124.945334 168.029925,125.007481 C168.086916,125.066392 168.119061,125.144969 168.119701,125.226933 C168.115485,125.308138 168.083833,125.385508 168.029925,125.446384 C167.971014,125.503375 167.892438,125.53552 167.810474,125.53616 L167.810474,125.53616 Z" id="Path" fill="#FFFFFF"></path>
            <path d="M167.042394,127.850374 C166.871613,127.850374 166.733167,127.711928 166.733167,127.541147 L166.733167,121.127182 C166.732745,121.045009 166.765048,120.966047 166.822943,120.907731 C166.880997,120.849252 166.959992,120.816362 167.042394,120.816362 C167.124796,120.816362 167.203791,120.849252 167.261845,120.907731 C167.31974,120.966047 167.352043,121.045009 167.351621,121.127182 L167.351621,127.541147 C167.351621,127.711928 167.213175,127.850374 167.042394,127.850374 L167.042394,127.850374 Z" id="Path" fill="#FFFFFF"></path>
            <path d="M186.34414,127.910224 L182.623441,127.910224 C182.542236,127.906008 182.464866,127.874357 182.40399,127.820449 C182.347947,127.756953 182.316149,127.675692 182.314214,127.591022 L182.314214,120.78803 C182.316762,120.706461 182.348637,120.628545 182.40399,120.568579 C182.462306,120.510683 182.541268,120.478381 182.623441,120.478803 C182.708849,120.476821 182.791487,120.509157 182.852868,120.568579 C182.908221,120.628545 182.940096,120.706461 182.942643,120.78803 L182.942643,124.778055 L186.34414,124.778055 C186.516183,124.78791 186.653487,124.925214 186.663342,125.097257 L186.663342,127.640898 C186.66158,127.727521 186.625739,127.809956 186.563591,127.870324 C186.497619,127.909581 186.419708,127.923746 186.34414,127.910224 Z M182.942643,127.281796 L186.034913,127.281796 L186.034913,125.356608 L182.942643,125.356608 L182.942643,127.281796 Z" id="Shape" fill="#FFFFFF"></path>
            <path d="M230.084788,127.910224 L226.374065,127.910224 C226.292101,127.909585 226.213524,127.87744 226.154613,127.820449 C226.092466,127.760081 226.056624,127.677645 226.054863,127.591022 L226.054863,120.78803 C226.055877,120.70413 226.092068,120.62451 226.154613,120.568579 C226.210802,120.507548 226.291212,120.474653 226.374065,120.478803 C226.456238,120.478453 226.5352,120.510683 226.593516,120.568579 C226.653423,120.625541 226.686097,120.705412 226.683292,120.78803 L226.683292,124.778055 L230.084788,124.778055 C230.171411,124.779816 230.253846,124.815658 230.314214,124.877805 C230.371206,124.936716 230.403351,125.015293 230.40399,125.097257 L230.40399,127.640898 C230.406795,127.726384 230.374067,127.809215 230.313586,127.869696 C230.253105,127.930176 230.170275,127.962905 230.084788,127.9601 L230.084788,127.910224 Z M226.683292,127.281796 L229.775561,127.281796 L229.775561,125.356608 L226.683292,125.356608 L226.683292,127.281796 Z" id="Shape" fill="#FFFFFF"></path>
            <path d="M190.902743,127.730673 C190.821538,127.726457 190.744168,127.694806 190.683292,127.640898 C190.623871,127.579517 190.591534,127.496879 190.593516,127.411471 L190.593516,124.977556 C190.583343,124.934929 190.583343,124.890507 190.593516,124.84788 C190.607094,124.805968 190.631125,124.768205 190.663342,124.738155 L191.531172,123.950125 L192.389027,123.162095 L192.389027,121.316708 L189.286783,121.316708 L189.286783,121.755611 C189.289588,121.841098 189.25686,121.923928 189.196379,121.984409 C189.135898,122.04489 189.053068,122.077618 188.967581,122.074813 C188.886376,122.070597 188.809006,122.038946 188.74813,121.985037 C188.692087,121.921541 188.660289,121.84028 188.658354,121.755611 L188.658354,121.007481 C188.658993,120.925518 188.691139,120.846941 188.74813,120.78803 C188.805431,120.727375 188.884205,120.691569 188.967581,120.688279 L192.708229,120.688279 C192.792129,120.689294 192.87175,120.725485 192.927681,120.78803 C192.988711,120.844218 193.021605,120.924628 193.017456,121.007481 L193.017456,123.301746 C193.022988,123.344794 193.022988,123.388373 193.017456,123.431421 C192.996534,123.468842 192.969571,123.502546 192.937656,123.531172 L192.069825,124.319202 L191.21197,125.107232 L191.21197,127.411471 C191.214775,127.496958 191.182047,127.579788 191.121566,127.640269 C191.061085,127.70075 190.978255,127.733478 190.892768,127.730673 L190.902743,127.730673 Z" id="Path" fill="#FFFFFF"></path>
            <path d="M221.915212,127.730673 C221.829725,127.733478 221.746895,127.70075 221.686414,127.640269 C221.625933,127.579788 221.593205,127.496958 221.59601,127.411471 L221.59601,124.977556 C221.585837,124.934929 221.585837,124.890507 221.59601,124.84788 C221.613283,124.807815 221.636856,124.770771 221.665835,124.738155 L222.533666,123.950125 L223.401496,123.162095 L223.401496,121.316708 L220.289277,121.316708 L220.289277,121.755611 C220.291259,121.841019 220.258922,121.923657 220.199501,121.985037 C220.138625,122.038946 220.061255,122.070597 219.98005,122.074813 C219.894563,122.077618 219.811733,122.04489 219.751252,121.984409 C219.690771,121.923928 219.658043,121.841098 219.660848,121.755611 L219.660848,121.007481 C219.661487,120.925518 219.693632,120.846941 219.750623,120.78803 C219.810991,120.725882 219.893427,120.690041 219.98005,120.688279 L223.710723,120.688279 C223.882766,120.698134 224.02007,120.835438 224.029925,121.007481 L224.029925,123.301746 C224.040099,123.344372 224.040099,123.388795 224.029925,123.431421 C224.012437,123.471036 223.984934,123.505414 223.950125,123.531172 L223.092269,124.319202 L222.224439,125.107232 L222.224439,127.411471 C222.222504,127.496141 222.190706,127.577401 222.134663,127.640898 C222.073787,127.694806 221.996417,127.726457 221.915212,127.730673 L221.915212,127.730673 Z" id="Path" fill="#FFFFFF"></path>
            <path d="M198.793017,127.780549 L195.052369,127.780549 C194.969751,127.783354 194.889881,127.750679 194.832918,127.690773 C194.775023,127.632457 194.74272,127.553495 194.743142,127.471322 L194.743142,123.950125 C194.738992,123.867272 194.771887,123.786862 194.832918,123.730673 C194.889881,123.670767 194.969751,123.638093 195.052369,123.640898 L198.793017,123.640898 C198.875191,123.640476 198.954153,123.672778 199.012469,123.730673 C199.06946,123.789584 199.101605,123.868161 199.102244,123.950125 L199.102244,127.471322 C199.098028,127.552527 199.066377,127.629897 199.012469,127.690773 C198.954153,127.748668 198.875191,127.780971 198.793017,127.780549 Z M195.371571,127.15212 L198.503741,127.15212 L198.503741,124.259352 L195.401496,124.259352 L195.401496,127.15212 L195.371571,127.15212 Z" id="Shape" fill="#FFFFFF"></path>
            <path d="M197.835411,124.189526 C197.752794,124.192331 197.672923,124.159657 197.61596,124.099751 C197.558065,124.041434 197.525762,123.962472 197.526185,123.880299 L197.526185,121.197007 L196.089776,121.197007 L196.089776,123.880299 C196.086486,123.963676 196.05068,124.04245 195.990025,124.099751 C195.933837,124.160781 195.853426,124.193676 195.770574,124.189526 C195.687956,124.192331 195.608085,124.159657 195.551122,124.099751 C195.493227,124.041434 195.460924,123.962472 195.461343,123.880299 L195.461343,120.887781 C195.461343,120.805768 195.493926,120.727115 195.551917,120.669124 C195.609908,120.611133 195.688561,120.578554 195.770574,120.578554 L197.835411,120.578554 C197.918264,120.574404 197.998675,120.607299 198.054863,120.668329 C198.117408,120.72426 198.153599,120.803881 198.154613,120.887781 L198.154613,123.880299 C198.151324,123.963676 198.115518,124.04245 198.054863,124.099751 C197.998675,124.160781 197.918264,124.193676 197.835411,124.189526 Z" id="Path" fill="#FFFFFF"></path>
            <path d="M217.645885,127.780549 L213.905237,127.780549 C213.734456,127.780549 213.59601,127.642103 213.59601,127.471322 L213.59601,123.950125 C213.59186,123.867272 213.624755,123.786862 213.685786,123.730673 C213.744102,123.672778 213.823064,123.640476 213.905237,123.640894 L217.645885,123.640894 C217.728059,123.640476 217.80702,123.672778 217.865337,123.730673 C217.926367,123.786862 217.959262,123.867272 217.955112,123.950125 L217.955112,127.471322 C217.955112,127.642103 217.816667,127.780549 217.645885,127.780549 L217.645885,127.780549 Z M214.224439,127.15212 L217.326683,127.15212 L217.326683,124.259352 L214.224439,124.259352 L214.224439,127.15212 Z" id="Shape" fill="#FFFFFF"></path>
            <path d="M216.688279,124.189526 C216.517498,124.189526 216.379052,124.051081 216.379052,123.880299 L216.379052,121.197007 L214.942643,121.197007 L214.942643,123.880299 C214.939354,123.963676 214.903548,124.04245 214.842893,124.099751 C214.786705,124.160781 214.706294,124.193676 214.623441,124.189526 C214.45266,124.189526 214.314214,124.051081 214.314214,123.880299 L214.314214,120.887781 C214.311409,120.805163 214.344084,120.725292 214.40399,120.668329 C214.462306,120.610434 214.541268,120.578131 214.623441,120.578554 L216.688279,120.578554 C216.771132,120.574404 216.851542,120.607299 216.907731,120.668329 C216.970276,120.72426 217.006467,120.803881 217.007481,120.887781 L217.007481,123.880299 C217.004192,123.963676 216.968386,124.04245 216.907731,124.099751 C216.851542,124.160781 216.771132,124.193676 216.688279,124.189526 L216.688279,124.189526 Z" id="Path" fill="#FFFFFF"></path>
            <path d="M211.471322,127.750623 C211.387945,127.747334 211.309171,127.711528 211.25187,127.650873 C211.19084,127.594685 211.157945,127.514274 211.162095,127.431421 L211.162095,123.800499 L207.541147,123.800499 C207.456967,123.800763 207.376848,123.764345 207.321696,123.700748 C207.260665,123.64456 207.22777,123.56415 207.23192,123.481297 L207.23192,120.987531 C207.22777,120.904678 207.260665,120.824268 207.321696,120.76808 C207.376848,120.704483 207.456967,120.668065 207.541147,120.668328 L211.471322,120.668328 C211.643365,120.678184 211.780669,120.815488 211.790524,120.987531 L211.790524,127.431421 C211.780669,127.603465 211.643365,127.740769 211.471322,127.750623 L211.471322,127.750623 Z M207.850374,123.17207 L211.162095,123.17207 L211.162095,121.296758 L207.850374,121.296758 L207.850374,123.17207 Z" id="Shape" fill="#FFFFFF"></path>
            <path d="M195.690773,142.643392 C195.607397,142.640102 195.528623,142.604296 195.471322,142.543641 C195.410291,142.487453 195.377396,142.407042 195.381546,142.32419 L195.381546,136.259352 L193.605985,136.259352 C193.523132,136.263502 193.442722,136.230606 193.386534,136.169576 C193.322545,136.11462 193.28573,136.034473 193.28573,135.950125 C193.28573,135.865776 193.322545,135.785629 193.386534,135.730673 C193.442722,135.669643 193.523132,135.636748 193.605985,135.640898 L196.009975,135.640898 L196.009975,142.32419 C196.009336,142.406153 195.977191,142.48473 195.9202,142.543641 C195.859831,142.605788 195.777396,142.64163 195.690773,142.643392 Z" id="Path" fill="#FFFFFF"></path>
            <path d="M202.164589,142.523691 L198.044888,142.523691 L198.044888,138.653367 L201.745636,138.653367 L201.745636,136.179551 L197.755611,136.179551 C197.670124,136.182356 197.587294,136.149628 197.526813,136.089147 C197.466332,136.028666 197.433604,135.945836 197.436409,135.860349 C197.440625,135.779144 197.472276,135.701774 197.526185,135.640898 C197.589681,135.584855 197.670942,135.553057 197.755611,135.551122 L202.354115,135.551122 L202.354115,139.281796 L198.663342,139.281796 L198.663342,141.945137 L202.154613,141.945137 C202.325395,141.945137 202.46384,142.083583 202.46384,142.254364 C202.46799,142.337217 202.435095,142.417627 202.374065,142.473815 C202.312124,142.514202 202.238083,142.53183 202.164589,142.523691 L202.164589,142.523691 Z" id="Path" fill="#FFFFFF"></path>
            <path d="M212.009975,142.38404 C211.923352,142.382278 211.840917,142.346437 211.780549,142.284289 C211.723557,142.225379 211.691412,142.146802 211.690773,142.064838 L211.690773,138.433915 L207.760599,138.433915 L207.760599,135.311721 L212.319202,135.311721 L212.319202,142.064838 C212.323352,142.147691 212.290457,142.228101 212.229426,142.284289 C212.172125,142.344944 212.093352,142.380751 212.009975,142.38404 Z M208.389027,137.805486 L211.690773,137.805486 L211.690773,135.930175 L208.389027,135.930175 L208.389027,137.805486 Z" id="Shape" fill="#FFFFFF"></path>
            <path d="M218.174564,142.38404 C218.00252,142.374185 217.865216,142.236881 217.855362,142.064838 L217.855362,138.433915 L213.925187,138.433915 L213.925187,135.311721 L218.453865,135.311721 L218.453865,142.064838 C218.458015,142.147691 218.42512,142.228101 218.36409,142.284289 C218.315384,142.339782 218.247882,142.37531 218.174564,142.38404 Z M214.553616,137.805486 L217.855362,137.805486 L217.855362,135.930175 L214.553616,135.930175 L214.553616,137.805486 Z" id="Shape" fill="#FFFFFF"></path>
            <polygon id="Path" fill="#FFFFFF" points="186.932668 138.214464 183.162095 138.214464 179.391521 138.214464 179.391521 137.436409 179.391521 136.648379 183.162095 136.648379 186.932668 136.648379 186.932668 137.436409"></polygon>
            <polygon id="Path" fill="#FFFFFF" points="186.932668 140.698254 183.162095 140.698254 179.391521 140.698254 179.391521 139.670823 179.391521 138.653367 183.162095 138.653367 186.932668 138.653367 186.932668 139.670823"></polygon>
            <path d="M279.082294,149.965087 L135.600998,149.965087 C135.503213,149.965349 135.409551,149.925722 135.341646,149.855362 C135.270281,149.78815 135.23186,149.694032 135.23186,149.59601 C135.230093,149.495001 135.269751,149.397658 135.341646,149.326683 C135.412381,149.260559 135.504284,149.221678 135.600998,149.216958 L279.082294,149.216958 C279.182481,149.2193 279.278321,149.258346 279.351621,149.326683 C279.423515,149.397658 279.463174,149.495001 279.461407,149.59601 C279.461407,149.694032 279.422986,149.78815 279.351621,149.855362 C279.280646,149.927256 279.183304,149.966914 279.082294,149.965087 L279.082294,149.965087 Z" id="Path" fill="#FFFFFF"></path>
            <path d="M264.937656,97.8254364 L247.830424,97.8254364 C246.257101,97.8199639 244.983029,96.5458916 244.977556,94.9725686 L244.977556,80.9276808 C244.988484,79.3582546 246.260969,78.0902185 247.830424,78.084788 L264.937656,78.084788 C266.507111,78.0902185 267.779596,79.3582546 267.790524,80.9276808 L267.790524,94.9725686 C267.785051,96.5458916 266.510979,97.8199639 264.937656,97.8254364 L264.937656,97.8254364 Z" id="Path" fill="#FFFFFF"></path>
            <path d="M260.568579,89.2069825 C260.529183,89.2159615 260.488273,89.2159615 260.448878,89.2069825 C260.405211,89.1973784 260.366346,89.172646 260.339152,89.1371571 L259.431421,88.2394015 L258.523691,87.3316708 C258.476069,87.2785052 258.444885,87.2126718 258.433915,87.1421446 C258.429941,87.0689659 258.447265,86.9962041 258.483791,86.9326683 L259.241895,85.7755611 L260,84.6184539 C260.028617,84.5747033 260.065975,84.5373454 260.109726,84.5087282 C260.159197,84.4997497 260.20988,84.4997497 260.259352,84.5087282 L267.142145,84.5087282 C267.228767,84.5104897 267.311203,84.5463313 267.371571,84.6084788 C267.428562,84.6673896 267.460707,84.7459664 267.461347,84.8279302 C267.457131,84.9091351 267.425479,84.9865052 267.371571,85.0473815 C267.310191,85.1068027 267.227552,85.1391394 267.142145,85.1371571 L260.428928,85.1371571 L259.790524,86.1346633 L259.15212,87.1321696 L259.970075,87.9501247 L260.78803,88.7680798 C260.846509,88.8261345 260.879398,88.9051288 260.879398,88.9875312 C260.879398,89.0699336 260.846509,89.1489278 260.78803,89.2069825 C260.760836,89.2424715 260.721971,89.2672038 260.678304,89.276808 C260.634956,89.2664431 260.596327,89.241861 260.568579,89.2069825 Z" id="Path" fill="#0099DA"></path>
            <path d="M267.112219,93.3566085 L260.86783,93.3566085 L260.74813,93.3566085 C260.708064,93.3393352 260.671021,93.3157621 260.638404,93.286783 L259.730673,92.3790524 L258.832918,91.4713217 C258.726517,91.359601 258.726517,91.1840399 258.832918,91.0723192 L259.610973,89.915212 L260.349127,88.7780549 C260.371848,88.7298453 260.410643,88.6910497 260.458853,88.6683292 C260.508067,88.6568436 260.559265,88.6568436 260.608479,88.6683292 L267.162095,88.6683292 C267.244268,88.667907 267.32323,88.7002096 267.381546,88.7581047 C267.440025,88.8161594 267.472914,88.8951537 267.472914,88.9775561 C267.472914,89.0599585 267.440025,89.1389528 267.381546,89.1970075 C267.32323,89.2549026 267.244268,89.2872052 267.162095,89.286783 L260.76808,89.286783 L260.109726,90.2842893 L259.451372,91.2817955 L260.219451,92.0498753 L260.997506,92.8179551 L267.112219,92.8179551 C267.197706,92.81515 267.280537,92.8478784 267.341017,92.9083592 C267.401498,92.96884 267.434227,93.0516704 267.431421,93.1371571 C267.427205,93.2183621 267.395554,93.2957321 267.341646,93.3566085 C267.267228,93.3816954 267.186638,93.3816954 267.112219,93.3566085 Z" id="Path" fill="#0099DA"></path>
            <path d="M261.147132,97.5062344 L261.037406,97.5062344 C260.997341,97.4889611 260.960297,97.465388 260.927681,97.436409 L260.01995,96.5286783 L259.112219,95.6209476 C259.064598,95.567782 259.033413,95.5019486 259.022444,95.4314214 C259.013435,95.3578757 259.031134,95.28354 259.072319,95.2219451 L259.830424,94.0648379 L260.588529,92.9077307 C260.631473,92.8365624 260.702083,92.7864622 260.783442,92.7694337 C260.8648,92.7524052 260.949576,92.7699829 261.017456,92.8179551 C261.085778,92.8617555 261.135512,92.9292509 261.157107,93.0074813 C261.170831,93.0907074 261.153049,93.1760611 261.107232,93.2468828 L260.428928,94.3042394 L259.740648,95.3017456 L260.558603,96.1197007 L261.376559,96.9376559 C261.434454,96.995972 261.466756,97.074934 261.466338,97.1571072 C261.465283,97.2419512 261.433369,97.3235084 261.376559,97.3865337 C261.343942,97.4155127 261.306899,97.4390858 261.266833,97.4563591 L261.147132,97.5062344 Z" id="Path" fill="#0099DA"></path>
            <path d="M252.199501,89.2069825 C252.160106,89.2159615 252.119196,89.2159615 252.0798,89.2069825 C252.039053,89.196859 252.003509,89.1719787 251.98005,89.1371571 C251.921571,89.0791024 251.888682,89.0001082 251.888682,88.9177057 C251.888682,88.8353033 251.921571,88.7563091 251.98005,88.6982544 L252.798005,87.8802993 L253.61596,87.0623441 L252.967581,86.0648379 L252.329177,85.0673317 L245.61596,85.0673317 C245.533342,85.0701369 245.453472,85.0374625 245.396509,84.9775561 C245.338614,84.9192399 245.306383,84.840278 245.306733,84.7581047 C245.302583,84.6752519 245.335478,84.5948416 245.396509,84.5386534 C245.45244,84.476108 245.53206,84.439917 245.61596,84.4389027 L252.498753,84.4389027 C252.547967,84.4274172 252.599165,84.4274172 252.648379,84.4389027 C252.697071,84.4645479 252.738305,84.5023462 252.76808,84.5486284 L253.516209,85.7057357 L254.274314,86.8628429 C254.315499,86.9244378 254.333198,86.9987734 254.32419,87.0723192 C254.31322,87.1428463 254.282036,87.2086798 254.234414,87.2618454 L253.326683,88.1695761 L252.418953,89.0673317 C252.395493,89.1021532 252.35995,89.1270336 252.319202,89.1371571 C252.286075,89.1704746 252.244809,89.1945466 252.199501,89.2069825 Z" id="Path" fill="#0099DA"></path>
            <path d="M251.900249,93.3566085 L245.645885,93.3566085 C245.564316,93.3540608 245.486401,93.3221864 245.426434,93.2668329 C245.368539,93.2085167 245.336236,93.1295548 245.336658,93.0473815 C245.334676,92.9619737 245.367013,92.8793355 245.426434,92.8179551 C245.486401,92.7626017 245.564316,92.7307272 245.645885,92.7281796 L251.770574,92.7281796 L252.538653,91.9600998 L253.306733,91.19202 L252.648379,90.1945137 L251.990025,89.1970075 L245.605985,89.1970075 C245.523132,89.2011574 245.442722,89.1682623 245.386534,89.1072319 C245.322545,89.0522762 245.28573,88.972129 245.28573,88.8877805 C245.28573,88.8034321 245.322545,88.7232849 245.386534,88.6683292 C245.442722,88.6072988 245.523132,88.5744037 245.605985,88.5785536 L252.159601,88.5785536 C252.20903,88.5691183 252.259798,88.5691183 252.309227,88.5785536 C252.352977,88.6071709 252.390335,88.6445288 252.418953,88.6882793 L253.197007,89.8453865 L253.975062,91.0024938 C253.999433,91.0701927 253.999433,91.1442711 253.975062,91.2119701 C253.964093,91.2824972 253.932908,91.3483306 253.885287,91.4014963 L252.977556,92.3092269 L252.069825,93.2169576 L251.970075,93.286783 L251.900249,93.3566085 Z" id="Path" fill="#0099DA"></path>
            <path d="M251.610973,97.5062344 L251.491272,97.5062344 L251.391521,97.436409 C251.334711,97.3733837 251.302797,97.2918265 251.301742,97.2069825 C251.301323,97.1248093 251.333626,97.0458474 251.391521,96.9875312 L252.209476,96.1695761 L253.027431,95.3516209 L252.339152,94.3541147 L251.650873,93.2967581 C251.616303,93.2207016 251.616303,93.1334131 251.650873,93.0573566 C251.664926,92.9785112 251.71215,92.9094921 251.780549,92.8678304 C251.857855,92.8396152 251.942644,92.8396152 252.01995,92.8678304 C252.102752,92.8851338 252.174851,92.9356031 252.219451,93.0074813 L252.977556,94.1645885 L253.735661,95.3216958 C253.760032,95.3893947 253.760032,95.4634731 253.735661,95.5311721 C253.733751,95.6041688 253.701157,95.6729783 253.645885,95.7206983 L252.738155,96.6284289 L251.830424,97.5361596 L251.730673,97.605985 L251.610973,97.5062344 Z" id="Path" fill="#0099DA"></path>
            <path d="M267.201995,83.0024938 L245.605985,83.0024938 C245.435204,83.0024938 245.296758,82.8640482 245.296758,82.6932668 C245.296758,82.5224855 245.435204,82.3840399 245.605985,82.3840399 L267.201995,82.3840399 C267.284848,82.37989 267.365258,82.4127851 267.421446,82.4738155 C267.485435,82.5287712 267.52225,82.6089184 267.52225,82.6932668 C267.52225,82.7776153 267.485435,82.8577625 267.421446,82.9127182 C267.365258,82.9737486 267.284848,83.0066437 267.201995,83.0024938 L267.201995,83.0024938 Z" id="Path" fill="#0099DA"></path>
            <path d="M256.428928,97.6858716 C256.34352,97.6877678 256.260882,97.6554311 256.199501,97.59601 C256.145593,97.5351336 256.113942,97.4577636 256.109726,97.3765586 L256.109726,82.6932668 C256.109682,82.6094968 256.143627,82.5292934 256.203794,82.4710067 C256.263961,82.4127199 256.345201,82.3813376 256.428928,82.3840399 C256.511101,82.3836177 256.590063,82.4159204 256.648379,82.4738155 C256.70537,82.5327262 256.737515,82.611303 256.738155,82.6932668 L256.738155,97.3765586 C256.733939,97.4577636 256.702287,97.5351336 256.648379,97.59601 C256.590063,97.6539051 256.511101,97.6862077 256.428928,97.6858716 Z" id="Path" fill="#0099DA"></path>
            <polygon id="Path" fill="#FFE700" points="316.508728 120.119701 307.201995 120.119701 297.895262 120.119701 297.895262 117.107232 297.895262 114.084788 307.17207 114.084788 316.438903 114.084788 311.730673 109.386534 307.022444 104.678304 311.142145 104.678304 315.25187 104.688279 321.476309 110.912718 327.700748 117.137157 321.476309 123.361596 315.25187 129.59601 311.142145 129.59601 307.032419 129.59601 311.770574 124.857855"></polygon>
        </g>
    </g>
</svg>