<?xml version="1.0" encoding="UTF-8"?>
<svg width="440px" height="330px" viewBox="0 0 440 330" version="1.1" xmlns="http://www.w3.org/2000/svg" xmlns:xlink="http://www.w3.org/1999/xlink">
    <title>Graphic elements / Icons / Rich icons / translation</title>
    <g id="Graphic-elements-/-Icons-/-Rich-icons-/-translation" stroke="none" stroke-width="1" fill="none" fill-rule="evenodd">
        <g id="Asset-17" transform="translate(35.000000, 20.000000)">
            <path d="M354.11,118 L235.22,118 L235.22,15.36 C235.22,10.2955488 231.114451,6.19 226.05,6.19 L9.17,6.19 C4.10783348,6.19551135 0.0055113457,10.2978335 0,15.36 L0,164.05 C0.0055113457,169.112167 4.10783348,173.214489 9.17,173.22 L47.82,173.22 L47.82,213.44 L67.93,193.33 L88,173.22 L144.6,173.22 L144.6,264.22 C144.6,268.91442 148.40558,272.72 153.1,272.72 L281,272.72 L299.63,291.36 L318.29,310 L318.29,272.73 L354.11,272.73 C356.364238,272.732665 358.526768,271.837667 360.119817,270.242741 C361.712867,268.647815 362.605318,266.484233 362.600024,264.23 L362.600024,126.46 C362.605318,124.205767 361.712867,122.042185 360.119817,120.447259 C358.526768,118.852333 356.364238,117.957335 354.11,117.96 L354.11,118 Z" id="Path" fill="#023852" opacity="0.3" style="mix-blend-mode: multiply;"></path>
            <path d="M233.31,0 L16.43,0 C11.3655488,0 7.26,4.10554884 7.26,9.17 L7.26,157.86 C7.27653029,162.912731 11.3772415,167.000027 16.43,167 L55.08,167 L55.08,207.22 L75.18,187.11 L95.29,167 L233.29,167 C238.352167,166.994489 242.454489,162.892167 242.46,157.83 L242.46,9.17 C242.454521,4.1156217 238.364354,0.0165146163 233.31,0 Z" id="Path" fill="#023852"></path>
            <polygon id="Path" fill="#023852" opacity="0.3" style="mix-blend-mode: multiply;" points="161.73 112.06 202.09 94.45 242.46 76.83 242.46 94.37 242.46 111.91 202.09 111.99"></polygon>
            <g id="Group" opacity="0.3" style="mix-blend-mode: multiply;" transform="translate(81.000000, 38.000000)" fill="#023852" fill-rule="nonzero">
                <path d="M62.48,84.26 L56.48,64.4 L26,64.4 L20,84.26 L0.89,84.26 L30.34,0.47 L52,0.47 L81.56,84.26 L62.48,84.26 Z M52.2,49.56 C46.6133333,31.56 43.4666667,21.38 42.76,19.02 C42.05,16.66 41.55,14.79 41.24,13.42 C39.9933333,18.2866667 36.4,30.3333333 30.46,49.56 L52.2,49.56 Z" id="Shape"></path>
            </g>
            <path d="M148.13,120 L142.13,100.14 L111.65,100.14 L105.6,120 L86.54,120 L116,36.18 L137.63,36.18 L167.19,120 L148.13,120 Z M137.85,85.26 C132.256667,67.26 129.11,57.0833333 128.41,54.73 C127.7,52.37 127.2,50.5 126.89,49.13 C125.63,54.0033333 122.036667,66.0466667 116.11,85.26 L137.85,85.26 Z" id="Shape" fill="#FFFFFF" fill-rule="nonzero"></path>
            <path d="M160.4,111.77 L361.4,111.77 C366.09442,111.77 369.9,115.57558 369.9,120.27 L369.9,258 C369.9,262.69442 366.09442,266.5 361.4,266.5 L325.55,266.5 L325.55,303.77 L306.92,285.14 L288.28,266.5 L160.4,266.5 C155.70558,266.5 151.9,262.69442 151.9,258 L151.9,120.27 C151.9,115.57558 155.70558,111.77 160.4,111.77 Z" id="Path" fill="#0099DA"></path>
            <path d="M303.67,220.85 C298.341743,219.46349 293.275253,217.217346 288.67,214.2 C282.506981,210.265516 276.713278,205.7805 271.36,200.8 C275.610449,196.266525 279.427105,191.345047 282.76,186.1 C286.117159,180.847692 288.766687,175.175415 290.64,169.23 L301.57,169.23 L301.57,155.82 L269.17,155.82 L269.17,147 L255.76,147 L255.76,155.87 L221.76,155.87 L221.76,169.28 L276.38,169.28 C274.706251,173.376532 272.604599,177.284869 270.11,180.94 C267.582807,184.65336 264.778127,188.170075 261.72,191.46 C256.85,186.37 252.72,181.6 249.86,178.09 C247,174.58 245.29,172.33 245.25,172.29 L239.87,176.29 L234.49,180.29 C234.8,180.71 236.66,183.2 239.71,186.9 C242.76,190.6 247,195.52 252.06,200.8 C245.464401,206.466167 238.443798,211.617952 231.06,216.21 C225.22,219.85 221.22,221.88 221.06,221.98 L221.06,221.98 L222.55,224.98 L224.05,227.98 L225.54,230.98 L227.03,233.98 C227.65,233.67 232.21,231.37 238.67,227.33 C246.812979,222.259614 254.531584,216.537546 261.75,210.22 C267.570943,215.643883 273.843651,220.561686 280.5,224.92 C287.11,229.15 293.96,232.44 300.71,233.98 L302.21,227.44 L303.67,220.85 Z" id="Path" fill="#0099DA" opacity="0.5" style="mix-blend-mode: multiply;"></path>
            <path d="M307.53,216.44 C302.20207,215.047693 297.13597,212.798345 292.53,209.78 C286.370191,205.849136 280.579782,201.367427 275.23,196.39 C279.47461,191.847957 283.290806,186.923725 286.63,181.68 C289.982347,176.426432 292.628418,170.754358 294.5,164.81 L305.4,164.81 L305.4,151.4 L273,151.4 L273,142.54 L259.62,142.54 L259.62,151.4 L225.62,151.4 L225.62,164.81 L280.23,164.81 C278.569279,168.904998 276.481049,172.813307 274,176.47 C271.472071,180.188666 268.66391,183.708897 265.6,187 C260.73,181.9 256.6,177.13 253.74,173.63 C250.88,170.13 249.17,167.87 249.14,167.82 L243.75,171.82 L238.37,175.82 C238.68,176.23 240.55,178.72 243.6,182.42 C246.65,186.12 250.88,191.04 255.94,196.32 C249.348753,201.991643 242.327716,207.143747 234.94,211.73 C229.11,215.37 225.1,217.4 224.94,217.5 L224.94,217.5 L226.44,220.5 L227.93,223.5 L229.42,226.5 L230.91,229.5 C231.53,229.19 236.09,226.89 242.56,222.85 C250.703539,217.785059 258.419252,212.062656 265.63,205.74 C271.451806,211.167049 277.728115,216.085052 284.39,220.44 C291,224.67 297.85,227.96 304.6,229.5 L306,223 L307.53,216.44 Z" id="Path" fill="#FFFFFF"></path>
        </g>
    </g>
</svg>