<?xml version="1.0" encoding="UTF-8"?>
<svg width="440px" height="330px" viewBox="0 0 440 330" version="1.1" xmlns="http://www.w3.org/2000/svg" xmlns:xlink="http://www.w3.org/1999/xlink">
    <title>Graphic elements / Icons / Rich icons / update-content</title>
    <defs>
        <linearGradient x1="0.366251953%" y1="91.8314125%" x2="99.6337453%" y2="8.11811222%" id="linearGradient-1">
            <stop stop-color="#FFFFFF" offset="0%"></stop>
            <stop stop-color="#FBFBFB" offset="3%"></stop>
            <stop stop-color="#F0F0F1" offset="6%"></stop>
            <stop stop-color="#DDDEDF" offset="9%"></stop>
            <stop stop-color="#C3C5C6" offset="12%"></stop>
            <stop stop-color="#A9ABAD" offset="14%"></stop>
        </linearGradient>
        <linearGradient x1="0%" y1="50%" x2="100%" y2="50%" id="linearGradient-2">
            <stop stop-color="#CED3D7" offset="28%"></stop>
            <stop stop-color="#FFFFFF" offset="74%"></stop>
        </linearGradient>
        <linearGradient x1="50.0042055%" y1="0.0168251031%" x2="50.0042055%" y2="100.016825%" id="linearGradient-3">
            <stop stop-color="#FFFFFF" offset="37%"></stop>
            <stop stop-color="#FBFBFC" offset="51%"></stop>
            <stop stop-color="#F0F1F1" offset="64%"></stop>
            <stop stop-color="#DDDEDF" offset="77%"></stop>
            <stop stop-color="#C3C5C7" offset="90%"></stop>
            <stop stop-color="#BBBDBF" offset="93%"></stop>
        </linearGradient>
        <linearGradient x1="0.0589843474%" y1="50.0192232%" x2="100.043371%" y2="50.0192232%" id="linearGradient-4">
            <stop stop-color="#023852" offset="0%"></stop>
            <stop stop-color="#035D88" offset="100%"></stop>
        </linearGradient>
    </defs>
    <g id="Graphic-elements-/-Icons-/-Rich-icons-/-update-content" stroke="none" stroke-width="1" fill="none" fill-rule="evenodd">
        <g id="Asset-35" transform="translate(20.000000, 40.000000)">
            <path d="M234.413965,274 L234.413965,250 L164.588529,250 L164.588529,274 C164.390415,276.0717 163.794251,278.085387 162.832918,279.93 C160.947733,283.726563 157.00378,286.048644 152.778055,285.85 L246.264339,285.85 C242.038614,286.048644 238.094661,283.726563 236.209476,279.93 C235.234266,278.088258 234.62451,276.07443 234.413965,274 Z" id="Path" fill="#A4AEB5"></path>
            <path d="M260.648379,284 L138.354115,284 C136.839227,284.011427 135.395956,284.648053 134.36409,285.76 C133.270573,286.898635 132.662343,288.419424 132.668285,290 L266.334406,290 C266.348198,288.423611 265.750922,286.903384 264.668329,285.76 C263.628645,284.641471 262.173436,284.004357 260.648379,284 Z" id="Path" fill="#CBD1D5"></path>
            <polygon id="Path" fill="#7C8B95" opacity="0.2" style="mix-blend-mode: multiply;" points="164.588529 250 199.501247 250 234.413965 250 234.413965 260 234.413965 270 199.501247 270 164.588529 270 164.588529 260"></polygon>
            <path d="M393.496259,250.000443 L5.50623441,250.000443 C4.03970602,250.000443 2.63521009,249.407076 1.6159601,248.35 C0.573344513,247.281725 -0.00726446399,245.844539 -6.73559905e-05,244.35 L-6.73559905e-05,5.63 C-0.00726446399,4.135461 0.573344513,2.69827458 1.6159601,1.63 C2.63857436,0.580278451 4.04264215,-0.00801695057 5.50623441,-8.08772148e-05 L393.53616,-8.08772148e-05 C395.002688,-0.00277092055 396.407184,0.592924422 397.426434,1.65 C398.46905,2.71827458 399.049658,4.155461 399.042461,5.65 L399.042461,244.37 C399.049658,245.864539 398.46905,247.301725 397.426434,248.37 C396.3942,249.429794 394.973662,250.018948 393.496259,250.000443 L393.496259,250.000443 Z" id="Path" fill="#023852"></path>
            <polygon id="Path" fill="#0099DA" points="11.9700748 225 199.501247 225 387.032419 225 387.032419 118.5 387.032419 12 199.501247 12 11.9700748 12 11.9700748 118.5"></polygon>
            <polygon id="Path" fill="#1C4C64" points="387.032419 26 199.501247 26 11.9700748 26 11.9700748 19 11.9700748 12 199.501247 12 387.032419 12 387.032419 19"></polygon>
            <path d="M205.985037,237.5 C205.979451,234.404782 203.794316,231.74426 200.765293,231.144675 C197.736271,230.545091 194.706421,232.173324 193.527735,235.03412 C192.349048,237.894916 193.349586,241.192037 195.917771,242.910122 C198.485956,244.628207 201.906992,244.289067 204.089776,242.1 C205.302483,240.877603 205.983778,239.224029 205.985037,237.5 L205.985037,237.5 Z" id="Path" fill="#356075"></path>
            <path d="M353.725686,121.070005 L300.568579,121.070005 C297.819039,121.072657 295.181353,119.978852 293.237134,118.029773 C291.292915,116.080694 290.201839,113.436413 290.204484,110.68 L290.204484,57.39 C290.201839,54.6335871 291.292915,51.989306 293.237134,50.0402268 C295.181353,48.0911476 297.819039,46.9973432 300.568579,46.9999952 L353.725686,46.9999952 C356.475225,46.9973432 359.112912,48.0911476 361.05713,50.0402268 C363.001349,51.989306 364.092426,54.6335871 364.08978,57.39 L364.08978,110.68 C364.092426,113.436413 363.001349,116.080694 361.05713,118.029773 C359.112912,119.978852 356.475225,121.072657 353.725686,121.070005 L353.725686,121.070005 Z" id="Path" fill="#003852" opacity="0.2" style="mix-blend-mode: multiply;"></path>
            <path d="M268.628429,121.070005 L215.461347,121.070005 C212.711808,121.072657 210.074121,119.978852 208.129902,118.029773 C206.185683,116.080694 205.094607,113.436413 205.097252,110.68 L205.097252,57.39 C205.094607,54.6335871 206.185683,51.989306 208.129902,50.0402268 C210.074121,48.0911476 212.711808,46.9973432 215.461347,46.9999952 L268.628429,46.9999952 C271.377968,46.9973432 274.015655,48.0911476 275.959874,50.0402268 C277.904092,51.989306 278.995169,54.6335871 278.992524,57.39 L278.992524,110.68 C278.995169,113.436413 277.904092,116.080694 275.959874,118.029773 C274.015655,119.978852 271.377968,121.072657 268.628429,121.070005 L268.628429,121.070005 Z" id="Path" fill="#003852" opacity="0.2" style="mix-blend-mode: multiply;"></path>
            <path d="M183.541147,121.070005 L130.374065,121.070005 C127.624526,121.072657 124.986839,119.978852 123.04262,118.029773 C121.098402,116.080694 120.007325,113.436413 120.00997,110.68 L120.00997,57.39 C120.007325,54.6335871 121.098402,51.989306 123.04262,50.0402268 C124.986839,48.0911476 127.624526,46.9973432 130.374065,46.9999952 L183.541147,46.9999952 C186.290686,46.9973432 188.928373,48.0911476 190.872592,50.0402268 C192.81681,51.989306 193.907887,54.6335871 193.905242,57.39 L193.905242,110.68 C193.907887,113.436413 192.81681,116.080694 190.872592,118.029773 C188.928373,119.978852 186.290686,121.072657 183.541147,121.070005 L183.541147,121.070005 Z" id="Path" fill="#003852" opacity="0.2" style="mix-blend-mode: multiply;"></path>
            <path d="M98.4339152,121.070005 L45.276808,121.070005 C42.5272689,121.072657 39.889582,119.978852 37.9453634,118.029773 C36.0011447,116.080694 34.910068,113.436413 34.9127134,110.68 L34.9127134,57.39 C34.910068,54.6335871 36.0011447,51.989306 37.9453634,50.0402268 C39.889582,48.0911476 42.5272689,46.9973432 45.276808,46.9999952 L98.4339152,46.9999952 C101.183454,46.9973432 103.821141,48.0911476 105.76536,50.0402268 C107.709578,51.989306 108.800655,54.6335871 108.79801,57.39 L108.79801,110.68 C108.800655,113.436413 107.709578,116.080694 105.76536,118.029773 C103.821141,119.978852 101.183454,121.072657 98.4339152,121.070005 L98.4339152,121.070005 Z" id="Path" fill="#003852" opacity="0.2" style="mix-blend-mode: multiply;"></path>
            <path d="M353.725686,205.500005 L300.568579,205.500005 C297.819039,205.502657 295.181353,204.408852 293.237134,202.459773 C291.292915,200.510694 290.201839,197.866413 290.204484,195.11 L290.204484,141.82 C290.201839,139.063587 291.292915,136.419306 293.237134,134.470227 C295.181353,132.521148 297.819039,131.427343 300.568579,131.429995 L353.725686,131.429995 C356.475225,131.427343 359.112912,132.521148 361.05713,134.470227 C363.001349,136.419306 364.092426,139.063587 364.08978,141.82 L364.08978,195.11 C364.092426,197.866413 363.001349,200.510694 361.05713,202.459773 C359.112912,204.408852 356.475225,205.502657 353.725686,205.500005 L353.725686,205.500005 Z" id="Path" fill="#003852" opacity="0.2" style="mix-blend-mode: multiply;"></path>
            <path d="M268.628429,205.500005 L215.461347,205.500005 C212.711808,205.502657 210.074121,204.408852 208.129902,202.459773 C206.185683,200.510694 205.094607,197.866413 205.097252,195.11 L205.097252,141.82 C205.094607,139.063587 206.185683,136.419306 208.129902,134.470227 C210.074121,132.521148 212.711808,131.427343 215.461347,131.429995 L268.628429,131.429995 C271.377968,131.427343 274.015655,132.521148 275.959874,134.470227 C277.904092,136.419306 278.995169,139.063587 278.992524,141.82 L278.992524,195.11 C278.995169,197.866413 277.904092,200.510694 275.959874,202.459773 C274.015655,204.408852 271.377968,205.502657 268.628429,205.500005 L268.628429,205.500005 Z" id="Path" fill="#003852" opacity="0.2" style="mix-blend-mode: multiply;"></path>
            <path d="M183.541147,205.500005 L130.374065,205.500005 C127.624526,205.502657 124.986839,204.408852 123.04262,202.459773 C121.098402,200.510694 120.007325,197.866413 120.00997,195.11 L120.00997,141.82 C120.007325,139.063587 121.098402,136.419306 123.04262,134.470227 C124.986839,132.521148 127.624526,131.427343 130.374065,131.429995 L183.541147,131.429995 C186.290686,131.427343 188.928373,132.521148 190.872592,134.470227 C192.81681,136.419306 193.907887,139.063587 193.905242,141.82 L193.905242,195.11 C193.907887,197.866413 192.81681,200.510694 190.872592,202.459773 C188.928373,204.408852 186.290686,205.502657 183.541147,205.500005 L183.541147,205.500005 Z" id="Path" fill="#003852" opacity="0.2" style="mix-blend-mode: multiply;"></path>
            <path d="M98.4339152,205.500005 L45.276808,205.500005 C42.5272689,205.502657 39.889582,204.408852 37.9453634,202.459773 C36.0011447,200.510694 34.910068,197.866413 34.9127134,195.11 L34.9127134,141.82 C34.910068,139.063587 36.0011447,136.419306 37.9453634,134.470227 C39.889582,132.521148 42.5272689,131.427343 45.276808,131.429995 L98.4339152,131.429995 C101.183454,131.427343 103.821141,132.521148 105.76536,134.470227 C107.709578,136.419306 108.800655,139.063587 108.79801,141.82 L108.79801,195.11 C108.800655,197.866413 107.709578,200.510694 105.76536,202.459773 C103.821141,204.408852 101.183454,205.502657 98.4339152,205.500005 L98.4339152,205.500005 Z" id="Path" fill="#003852" opacity="0.2" style="mix-blend-mode: multiply;"></path>
            <path d="M253.296758,133.88 L253.296758,133.88 L253.296758,85.77 C253.296758,77.7397797 246.803212,71.2299449 238.793017,71.2299449 L149.206983,71.2299449 C145.353443,71.2193722 141.654101,72.7465677 138.925486,75.4744994 C136.196871,78.2024311 134.663342,81.9068118 134.663342,85.77 L134.663342,86.26 C134.667743,86.3366032 134.667743,86.4133968 134.663342,86.49 L134.663342,174.86 C134.66826,174.936587 134.66826,175.013413 134.663342,175.09 L134.663342,175.56 C134.663342,183.59022 141.156888,190.1 149.167082,190.1 L237.775561,190.1 C241.869957,190.1 245.796512,188.468758 248.690752,185.565407 C251.584992,182.662056 253.209629,178.724631 253.206983,174.62 L253.206983,149.8 L253.206983,149.8 L253.206983,149.8 L253.206983,133.88 L253.296758,133.88 Z" id="Path" fill="#003852" opacity="0.2" style="mix-blend-mode: multiply;"></path>
            <path d="M242.553616,185.36 L154.852868,185.36 C146.32482,185.36 139.411471,178.429368 139.411471,169.88 L139.411471,82 C139.411471,73.4506321 146.32482,66.52 154.852868,66.52 L242.553616,66.52 C246.648012,66.52 250.574567,68.1512421 253.468807,71.0545931 C256.363047,73.957944 257.987684,77.8953686 257.985041,82 L257.985041,169.91 C257.987684,174.014631 256.363047,177.952056 253.468807,180.855407 C250.574567,183.758758 246.648012,185.39 242.553616,185.39 L242.553616,185.36 Z" id="Path" fill="url(#linearGradient-1)"></path>
            <polygon id="Path" fill="url(#linearGradient-2)" style="mix-blend-mode: multiply;" points="204.289277 185.35 210.802993 185.35 217.316708 185.35 237.67581 165.18 258.034913 145.01 258.034913 137.07 258.034913 129.13 232.688279 136.41 207.351621 143.69 205.815461 164.52"></polygon>
            <path d="M213.715711,172.88 C214.341118,168.66723 215.234037,164.498761 216.389027,160.4 C217.421388,156.820118 219.046695,153.439682 221.197007,150.4 C223.175528,147.57146 226.018656,145.465375 229.296758,144.4 C232.718204,143.17 237.087282,142.4 243.102244,141.32 C246.300361,140.804326 249.42723,139.914935 252.418953,138.67 C253.328848,138.313223 254.174549,137.809938 254.922693,137.18 L254.922693,137.18 C255.693721,136.412753 256.348998,135.536867 256.86783,134.58 C257.383123,133.638442 257.762628,132.628387 257.995016,131.58 L257.995016,81 C257.997659,77.1446721 256.47181,73.4463402 253.753415,70.7192734 C251.03502,67.9922066 247.346961,66.46 243.501247,66.46 L153.945137,66.46 C150.098506,66.46 146.409423,67.9918885 143.689444,70.7186674 C140.969465,73.4454463 139.441397,77.1437522 139.441397,81 L139.441397,170.79 C139.441397,178.82022 145.934942,185.33 153.945137,185.33 L204.139651,185.33 C204.438903,185.27 204.738155,185.2 205.027431,185.12 C205.316708,185.04 205.61596,184.94 205.905237,184.83 C207.398293,184.011628 208.724704,182.919352 209.815461,181.61 C211.893672,179.116221 213.243501,176.094874 213.715711,172.88 Z" id="Path" fill="url(#linearGradient-3)"></path>
            <path d="M243.052369,141.34 C237.067332,142.44 232.718204,142.84 229.456359,144 C226.075516,145.197469 223.106184,147.338096 220.897756,150.17 C218.473815,153.03 217.236908,156.53 216.169576,160.28 C215.106811,164.4306 214.274279,168.637048 213.67581,172.88 C213.204003,176.105869 211.850617,179.137835 209.765586,181.64 C208.671856,182.946344 207.346051,184.03812 205.855362,184.86 L206.42394,184.63 L206.972569,184.37 C207.541557,184.04742 208.08811,183.686595 208.608479,183.29 C209.357188,182.721367 210.070104,182.106861 210.743142,181.45 L211.052369,181.14 L211.361596,180.83 C213.117207,179.02 223.890274,168.21 234.304239,157.83 C244.718204,147.45 254.693267,137.42 254.902743,137.22 C254.151571,137.850872 253.302434,138.354196 252.389027,138.71 C249.390589,139.951074 246.256786,140.83382 243.052369,141.34 Z" id="Path" fill="#FFFFFF"></path>
            <path d="M221.226933,109.92 C221.220001,109.797541 221.149632,109.687656 221.041451,109.630361 C220.93327,109.573066 220.803066,109.576723 220.698254,109.64 L216.548628,112.24 C210.586373,105.361521 201.073042,102.769707 192.458092,105.67677 C183.843142,108.583833 177.829505,116.415129 177.229806,125.5079 C176.630106,134.600671 181.562887,143.157535 189.72105,147.17638 C197.879212,151.195226 207.650118,149.881641 214.46384,143.85 C214.831176,143.463702 214.831176,142.856298 214.46384,142.47 L212.05985,140 C211.684902,139.674172 211.128066,139.674172 210.753117,140 C203.707342,146.099172 193.085899,145.413246 186.878955,138.458223 C180.672011,131.5032 181.169306,120.844787 187.996742,114.50096 C194.824178,108.157134 205.463114,108.468132 211.910224,115.2 L207.650873,117.87 C207.545829,117.933281 207.481574,118.047143 207.481574,118.17 C207.481574,118.292857 207.545829,118.406719 207.650873,118.47 L221.276808,125.47 C221.385112,125.52819 221.51634,125.523101 221.619837,125.456697 C221.723333,125.390294 221.782907,125.272964 221.775561,125.15 L221.226933,109.92 Z" id="Path" fill="url(#linearGradient-4)"></path>
            <path d="M11.9700748,12 L39.9002494,38.93 L67.9201995,65.85 C95.524522,92.4033333 123.122195,118.936667 150.713217,145.45 L233.645885,225 L387.032419,225 L387.032419,12 L11.9700748,12 Z" id="Path" fill="#FFFFFF" opacity="0.2"></path>
        </g>
    </g>
</svg>