<?xml version="1.0" encoding="UTF-8"?>
<svg width="440px" height="330px" viewBox="0 0 440 330" version="1.1" xmlns="http://www.w3.org/2000/svg" xmlns:xlink="http://www.w3.org/1999/xlink">
    <!-- Generator: Sketch 59.1 (86144) - https://sketch.com -->
    <title>Graphic elements / Rich icons / Upgrade</title>
    <desc>Created with Sketch.</desc>
    <defs>
        <path d="M256.129265,255.407335 C310.349164,200.99823 314.54676,114.365924 265.841068,54.9697635 C217.135376,-4.42639669 131.358961,-17.27874 67.3837337,25.2338301 C3.40850689,67.7464002 -17.9693609,151.804493 17.9226479,219.715553 C53.8146568,287.626612 135.309271,317.315062 206.473356,288.404488 C225.070875,280.847107 241.957887,269.625415 256.129265,255.407335 Z" id="path-1"></path>
        <linearGradient x1="0.0199450834%" y1="51.2746539%" x2="100.015831%" y2="51.2746539%" id="linearGradient-3">
            <stop stop-color="#ECEFF1" offset="0%"></stop>
            <stop stop-color="#FFFFFF" stop-opacity="0" offset="0%"></stop>
            <stop stop-color="#FFFFFF" stop-opacity="0.4" offset="100%"></stop>
        </linearGradient>
        <linearGradient x1="50.1727974%" y1="99.9675589%" x2="50.1727974%" y2="0.36414866%" id="linearGradient-4">
            <stop stop-color="#ECEFF1" offset="0%"></stop>
            <stop stop-color="#FFFFFF" stop-opacity="0" offset="0%"></stop>
            <stop stop-color="#FFFFFF" stop-opacity="0.4" offset="100%"></stop>
        </linearGradient>
    </defs>
    <g id="Graphic-elements-/-Rich-icons-/-Upgrade" stroke="none" stroke-width="1" fill="none" fill-rule="evenodd">
        <g id="Group" transform="translate(70.000000, 15.000000)">
            <use id="Path" fill="#023852" fill-rule="nonzero" xlink:href="#path-1"></use>
            <path d="M299.900029,134.085551 C299.437384,143.074916 298.174678,152.005179 296.126892,160.770411 C291.950224,178.642118 284.517235,195.591585 274.199982,210.770411 C246.358687,251.704229 200.177564,276.340225 150.673946,276.667185 C101.170327,276.994145 54.6678178,252.970302 26.2882588,212.40781 C16.5075976,198.39972 9.19595652,182.82135 4.66984395,166.34706 C2.45084047,158.270503 0.907003225,150.023475 0.054276793,141.691151 C0.054276793,142.308142 0.054276793,142.877672 -0.0287796854,143.565855 L-0.0999709526,145.440558 C-0.0999709526,146.069414 -0.0999709526,146.69827 -0.0999709526,147.327127 C-0.0999709526,147.955983 -0.0999709526,148.584839 -0.0999709526,149.213695 C-0.0999709526,232.292315 67.2485571,299.640843 150.327177,299.640843 C233.405796,299.640843 300.754324,232.292315 300.754324,149.213695 C300.754324,147.932252 300.754324,146.662675 300.694998,145.393097 C300.635672,144.12352 300.611942,142.865807 300.54075,141.59623 C300.469559,140.326652 300.398368,139.080805 300.303446,137.834958 C300.208525,136.589111 300.030546,135.331398 299.900029,134.085551 Z" id="Path" fill="#003A5D" fill-rule="nonzero" opacity="0.3" style="mix-blend-mode: multiply;" mask="url(#mask-2)"></path>
            <path d="M150.101738,12.4196753 C230.391177,12.3952579 296.484242,75.5553843 300.101738,155.763292 L300.172929,154.161488 C300.172929,153.615689 300.172929,153.081754 300.172929,152.535954 L300.172929,150.922286 C300.172929,150.376486 300.172929,149.830686 300.172929,149.284886 C301.704856,94.6462293 273.429105,43.4898942 226.347999,15.7212229 C179.266893,-12.0474484 120.816156,-12.0428285 73.73944,15.7332849 C26.6627241,43.5093984 -1.60493947,94.6702026 -0.064375319,149.308617 C-0.064375319,149.854417 -0.064375319,150.400216 -0.064375319,150.946016 L-0.064375319,152.57155 C-0.064375319,153.11735 -0.064375319,153.651284 -0.00504926304,154.197084 C0.054276793,154.742884 -0.00504926304,155.276818 -0.00504926304,155.810753 C3.55384463,75.5265771 69.7388054,12.3027015 150.101738,12.4196753 Z" id="Path" fill="url(#linearGradient-3)" fill-rule="nonzero" mask="url(#mask-2)"></path>
            <path d="M46.7082872,250.673116 L103.661301,193.791294 L160.614315,136.921336 L207.861586,89.7096611 L255.013935,42.5217161 L254.942744,42.4505248 L254.871553,42.3793336 C217.2581,4.08979106 161.990864,-11.0713257 110.105081,2.66644865 C58.2192981,16.404223 17.6956826,56.9278385 3.95790824,108.813621 C-9.77986611,160.699404 5.38125065,215.96664 43.6707932,253.580093 L43.7419844,253.639419 L43.8131757,253.71061 L45.2963271,252.239324 L46.7082872,250.673116 Z" id="Path" fill="url(#linearGradient-4)" fill-rule="nonzero" mask="url(#mask-2)"></path>
            <path d="M184.522715,185.402589 L182.778529,186.790819 C165.739673,200.305246 142.560401,203.120346 122.781966,194.077345 C103.003531,185.034344 89.9688463,165.661673 89.0433608,143.933676 L88.9603043,141.797938 L66.9028767,141.797938 L66.974068,144.087924 C67.9397756,174.270197 85.8488758,201.325894 113.255336,214.00612 C140.661795,226.686346 172.876878,222.82175 196.506579,204.019106 L198.250765,202.630876 L184.522715,185.402589 Z" id="Path" fill="#0099DA" fill-rule="nonzero" mask="url(#mask-2)"></path>
            <path d="M226.466237,137.170506 C223.41175,94.2775518 186.939823,61.5061467 143.965635,63.0405967 C100.991446,64.5750466 66.9497123,99.8642347 66.9621993,142.865807 C66.9621993,143.198033 66.9621993,143.530259 66.9621993,143.862485 L67.0215288,146.615214 L89.0314956,146.615214 L88.9603043,143.779428 C88.9603043,143.482798 88.9603043,143.174303 88.9603043,142.865807 C88.9152799,112.002216 113.114269,86.5422106 143.940367,85.0207168 C174.766465,83.499223 201.355004,106.452492 204.349483,137.170506 L185.875349,137.170506 L214.885791,177.357976 L243.896232,137.170506 L226.466237,137.170506 Z" id="Path" fill="#0099DA" fill-rule="nonzero" mask="url(#mask-2)"></path>
        </g>
    </g>
</svg>