<?xml version="1.0" encoding="utf-8"?>
<!-- Generator: Adobe Illustrator 25.0.1, SVG Export Plug-In . SVG Version: 6.00 Build 0)  -->
<svg version="1.1" id="Layer_1" xmlns="http://www.w3.org/2000/svg" xmlns:xlink="http://www.w3.org/1999/xlink" x="0px" y="0px"
	 viewBox="0 0 440 330" style="enable-background:new 0 0 440 330;" xml:space="preserve">
<style type="text/css">
	.st0{opacity:0.3;fill:#003A5D;enable-background:new    ;}
	.st1{fill:#0099DA;}
	.st2{filter:url(#Adobe_OpacityMaskFilter);}
	.st3{fill-rule:evenodd;clip-rule:evenodd;fill:#FFFFFF;}
	.st4{opacity:0.3;mask:url(#mask-2_4_);fill:#003A5D;enable-background:new    ;}
	.st5{filter:url(#Adobe_OpacityMaskFilter_1_);}
	.st6{mask:url(#mask-2_5_);fill:#F4F6F7;}
	.st7{opacity:0.1;fill:#F4F6F7;enable-background:new    ;}
</style>
<path class="st0" d="M151.3,66.5c-22.7,0.6-44.8,1.4-66.3,2.4c-16.2,0.8-30.7,6.6-41.4,15.5s-17.5,21-18.3,34.3
	c-0.8,12.7-1.4,25.6-1.8,38.8c-0.4,13.1-0.6,26.5-0.6,40c0,13.5,0.2,26.8,0.6,40c0.4,13.1,1,26.1,1.8,38.8
	c0.8,13.4,7.7,25.4,18.3,34.3c10.7,8.9,25.2,14.7,41.4,15.5c21.5,1.1,43.6,1.9,66.3,2.4c22.7,0.6,45.9,0.8,69.6,0.8
	c23.7,0,46.9-0.3,69.6-0.8s44.8-1.4,66.3-2.5c16.2-0.8,30.7-6.6,41.4-15.5c10.7-8.9,17.5-21,18.3-34.3c0.8-12.7,1.4-25.6,1.8-38.8
	c0.1-2.5,0.1-5,0.2-7.6c-0.2-36.5-0.3-63.3-0.5-80.2c-0.3-7.3-0.6-14.5-1-21.7c-0.1,0-0.3,0-0.4,0c-4,0.1-7.9-0.6-11.5-2.2
	c-3.6-1.6-6.8-4.1-9.1-7.5c-0.3-0.4-0.6-0.8-0.9-1.2c0.1,1.2,0,2.2,0,3.3c-0.4,5-2.4,8.9-5.4,11.9c-3.8,3.7-9.3,5.9-15.6,6.6
	c-3.9,0.5-8.2,0.4-12.4-0.3c-3.8-0.6-7.6-1.6-11.2-3c-3.6-1.4-7-3.2-10.1-5.4c-3.4-2.4-6.4-5.2-8.7-8.4c-3.2-4.3-5.3-9.4-5.7-15.1
	c-0.4-5.2,0.6-10.9,3.2-17.1c-3,7.5-8.3,12.1-14.6,14.4c-4.1,1.5-8.7,2.1-13.4,1.8c-3.8-0.2-7.7-1-11.5-2.2
	c-3.6-1.2-7.1-2.8-10.4-4.7c-3.4-2.1-6.6-4.5-9.3-7.2c-3-3-5.4-6.5-6.9-10.1c-0.2-0.4-0.3-0.9-0.5-1.3c-1.8-4.7-3.1-9.5-3.9-14.5
	c-12.5-0.2-25.2-0.3-37.9-0.3C197.2,65.7,174,66,151.3,66.5z"/>
<path class="st1" d="M22.4,262.5c0.8,13.4,7.7,25.4,18.3,34.3c10.7,8.9,25.2,14.7,41.4,15.5c21.5,1.1,43.6,1.9,66.3,2.4
	c22.7,0.6,45.9,0.8,69.6,0.8s46.9-0.3,69.6-0.8c22.7-0.6,44.8-1.4,66.3-2.4c16.2-0.8,30.7-6.6,41.4-15.5c10.7-8.9,17.5-21,18.3-34.3
	c0.8-12.7,1.4-25.6,1.8-38.8c0.4-13.1,0.6-26.5,0.6-40c0-13.5-0.2-26.8-0.6-40c-0.2-5.3-0.4-10.5-0.6-15.8c-3.3-0.1-6.6-0.8-9.7-2.2
	c-3.6-1.6-6.8-4.1-9.1-7.5c-0.3-0.4-0.6-0.8-0.9-1.2c0.1,1.2,0,2.2,0,3.3c-0.4,5-2.4,8.9-5.4,11.9c-3.8,3.7-9.3,5.9-15.6,6.6
	c-3.9,0.5-8.2,0.4-12.4-0.3c-3.8-0.6-7.6-1.6-11.2-3c-3.6-1.4-7-3.2-10.1-5.4c-3.4-2.4-6.4-5.2-8.7-8.4c-3.2-4.3-5.3-9.4-5.7-15.1
	c-0.4-5.2,0.6-10.9,3.2-17.1c-3,7.5-8.3,12.1-14.6,14.4c-4.1,1.5-8.7,2.1-13.4,1.8c-3.8-0.2-7.7-1-11.5-2.2
	c-3.6-1.2-7.1-2.8-10.4-4.7c-3.4-2.1-6.6-4.5-9.3-7.2c-3-3-5.4-6.5-6.9-10.1c-0.2-0.4-0.3-0.9-0.5-1.3c-2.3-5.8-3.7-11.9-4.3-18.1
	c-0.2-2.3-0.2-5.7-0.1-10C245,52.1,231.6,52,218,52c-23.7,0-46.9,0.3-69.5,0.8c-22.6,0.6-44.8,1.4-66.3,2.4
	C65.9,56,51.4,61.8,40.7,70.7c-10.7,8.9-17.5,21-18.3,34.3c-0.8,12.7-1.4,25.7-1.8,38.8c-0.4,13-0.6,26.2-0.6,39.6v0.6
	c0,13.4,0.2,26.7,0.6,39.7C21,236.9,21.6,249.8,22.4,262.5z"/>
<defs>
	<filter id="Adobe_OpacityMaskFilter" filterUnits="userSpaceOnUse" x="183.2" y="128.3" width="101.5" height="117.5">
		<feColorMatrix  type="matrix" values="1 0 0 0 0  0 1 0 0 0  0 0 1 0 0  0 0 0 1 0"/>
	</filter>
</defs>
<mask maskUnits="userSpaceOnUse" x="183.2" y="128.3" width="101.5" height="117.5" id="mask-2_4_">
	<g class="st2">
		<path id="path-1_5_" class="st3" d="M417.8,127.9c-0.2,0.1-0.4,0.1-1.2,0.2c-4,0.1-7.9-0.6-11.5-2.2c-3.6-1.6-6.8-4.1-9.1-7.5
			c-0.3-0.4-0.6-0.8-0.9-1.2c0.1,1.2,0,2.2,0,3.3c-0.4,5-2.4,8.9-5.4,11.9c-3.8,3.7-9.3,5.9-15.6,6.6c-3.9,0.5-8.2,0.4-12.4-0.3
			c-3.8-0.6-7.6-1.6-11.2-3c-3.6-1.4-7-3.2-10.1-5.4c-3.4-2.4-6.4-5.2-8.7-8.4c-3.2-4.3-5.3-9.4-5.7-15.1
			c-0.4-5.2,0.6-10.9,3.2-17.1c-3,7.5-8.3,12.1-14.6,14.4c-4.1,1.5-8.7,2.1-13.4,1.8c-3.8-0.2-7.7-1-11.5-2.2
			c-3.6-1.2-7.1-2.8-10.4-4.7c-3.4-2.1-6.6-4.5-9.3-7.2c-3-3-5.4-6.5-6.9-10.1c-0.2-0.4-0.3-0.9-0.5-1.3c-2.3-5.8-3.7-11.9-4.3-18.1
			c-0.3-2.7-0.2-6.8,0-12.3H20v279.5h399C418.3,195.1,417.9,127.9,417.8,127.9z"/>
	</g>
</mask>
<path id="Path_3_" class="st4" d="M183.2,129.7v114.5c0,0.5,0.3,1,0.7,1.3c0.5,0.3,1,0.3,1.5,0l49.3-29.1l49.2-29.1
	c0.5-0.3,0.7-0.8,0.7-1.3s-0.3-1-0.7-1.3l-49.2-28.1l-49.2-28.1c-0.5-0.3-1-0.3-1.5,0S183.2,129.3,183.2,129.7L183.2,129.7z"/>
<defs>
	<filter id="Adobe_OpacityMaskFilter_1_" filterUnits="userSpaceOnUse" x="176.7" y="121.9" width="101.4" height="117.3">
		<feColorMatrix  type="matrix" values="1 0 0 0 0  0 1 0 0 0  0 0 1 0 0  0 0 0 1 0"/>
	</filter>
</defs>
<mask maskUnits="userSpaceOnUse" x="176.7" y="121.9" width="101.4" height="117.3" id="mask-2_5_">
	<g class="st5">
		<path id="path-1_6_" class="st3" d="M417.8,127.9c-0.2,0.1-0.4,0.1-1.2,0.2c-4,0.1-7.9-0.6-11.5-2.2c-3.6-1.6-6.8-4.1-9.1-7.5
			c-0.3-0.4-0.6-0.8-0.9-1.2c0.1,1.2,0,2.2,0,3.3c-0.4,5-2.4,8.9-5.4,11.9c-3.8,3.7-9.3,5.9-15.6,6.6c-3.9,0.5-8.2,0.4-12.4-0.3
			c-3.8-0.6-7.6-1.6-11.2-3c-3.6-1.4-7-3.2-10.1-5.4c-3.4-2.4-6.4-5.2-8.7-8.4c-3.2-4.3-5.3-9.4-5.7-15.1
			c-0.4-5.2,0.6-10.9,3.2-17.1c-3,7.5-8.3,12.1-14.6,14.4c-4.1,1.5-8.7,2.1-13.4,1.8c-3.8-0.2-7.7-1-11.5-2.2
			c-3.6-1.2-7.1-2.8-10.4-4.7c-3.4-2.1-6.6-4.5-9.3-7.2c-3-3-5.4-6.5-6.9-10.1c-0.2-0.4-0.3-0.9-0.5-1.3c-2.3-5.8-3.7-11.9-4.3-18.1
			c-0.3-2.7-0.2-6.8,0-12.3H20v279.5h399C418.3,195.1,417.9,127.9,417.8,127.9z"/>
	</g>
</mask>
<path id="Path_4_" class="st6" d="M176.7,123.5v114.1c0,0.6,0.3,1.1,0.8,1.4c0.5,0.3,1.1,0.3,1.6,0l49.1-29l49.1-29
	c0.5-0.3,0.8-0.8,0.8-1.4s-0.3-1.1-0.8-1.4l-49.1-28l-49.1-28c-0.5-0.3-1.1-0.3-1.6,0C177.1,122.4,176.7,123,176.7,123.5
	L176.7,123.5z"/>
<path class="st7" d="M154.7,52.7c-20.7,0.5-40.9,1.1-60.6,2l128.9,128.9l128.9,128.9h1h1c16.2-0.8,30.7-6.6,41.4-15.5
	c10.7-8.9,17.5-21,18.3-34.3c0.8-12.7,1.4-25.6,1.8-38.8c0.4-13.1,0.6-26.5,0.6-40c0-13.5-0.2-26.8-0.6-40
	c-0.2-5.3-0.4-10.6-0.6-15.9c-3.3-0.1-6.6-0.8-9.7-2.2c-3.6-1.6-6.8-4.1-9.1-7.5c-0.3-0.4-0.6-0.8-0.9-1.2c0.1,1.2,0,2.2,0,3.3
	c-0.4,5-2.4,8.9-5.4,11.9c-3.8,3.7-9.3,5.9-15.6,6.6c-3.9,0.5-8.2,0.4-12.4-0.3c-3.8-0.6-7.6-1.6-11.2-3c-3.6-1.4-7-3.2-10.1-5.4
	c-3.4-2.4-6.4-5.2-8.7-8.4c-3.2-4.3-5.3-9.4-5.7-15.1c-0.4-5.2,0.6-10.9,3.2-17.1c-3,7.5-8.3,12.1-14.6,14.4
	c-4.1,1.5-8.7,2.1-13.4,1.8c-3.8-0.2-7.7-1-11.5-2.2c-3.6-1.2-7.1-2.8-10.4-4.7c-3.4-2.1-6.6-4.5-9.3-7.2c-3-3-5.4-6.5-6.9-10.1
	c-0.2-0.4-0.3-0.9-0.5-1.3c-2.3-5.8-3.7-11.9-4.3-18.1c-0.2-2.3-0.2-5.7-0.1-10C245,52.1,231.6,52,218,52
	C196.5,52,175.4,52.2,154.7,52.7z"/>
</svg>
