<svg width="16px" height="12px" viewBox="0 0 16 12" version="1.1" xmlns="http://www.w3.org/2000/svg"
    xmlns:xlink="http://www.w3.org/1999/xlink">
    <defs>
        <style>
            .wifi-line {
                opacity: 0;
            }

            .wifi-line-1 {
                animation: wifi-pules-animation-1 3s infinite;
            }

            .wifi-line-2 {
                animation: wifi-pules-animation-2 3s infinite;
            }

            .wifi-line-3 {
                animation: wifi-pules-animation-3 3s infinite;
            }

            .wifi-line-4 {
                animation: wifi-pules-animation-4 3s infinite;
            }

            @keyframes wifi-pules-animation-1 {
                0%,
                85%,
                100% {
                    opacity: 0;
                }

                10%,
                75% {
                    opacity: 1;
                }
            }

            @keyframes wifi-pules-animation-2 {
                0%,
                10%,
                85%,
                100% {
                    opacity: 0;
                }

                20%,
                75% {
                    opacity: 1;
                }
            }

            @keyframes wifi-pules-animation-3 {
                0%,
                100%,
                20%,
                80% {
                    opacity: 0;
                }

                30%,
                75% {
                    opacity: 1;
                }
            }

            @keyframes wifi-pules-animation-4 {
                0%,
                100%,
                30%,
                80% {
                    opacity: 0;
                }

                40%,
                75% {
                    opacity: 1;
                }
            }
        </style>
    </defs>
    <path class="wifi-line wifi-line-1"
        d="M6.43804688,9.61960938 L7.50710938,10.6884375 L8.57507813,9.61921875 C7.9853125,9.029375 7.02867188,9.029375 6.43804688,9.61960938"
        id="Fill-8" fill="#0099DA"></path>
    <path class="wifi-line wifi-line-2"
        d="M4.28369531,7.46529687 L5.23103906,8.41240625 C6.47674219,7.16771875 8.50283594,7.16771875 9.74814844,8.41279687 C9.75385156,8.4185 9.75830469,8.42459375 9.76361719,8.43029687 L10.7109609,7.48232813 C10.7056484,7.47701562 10.7008047,7.47092188 10.6957266,7.4656875 C8.92517969,5.69514063 6.05447656,5.69475 4.28369531,7.46529687"
        id="Fill-1" fill="#0099DA"></path>
    <path class="wifi-line wifi-line-3"
        d="M2.15517188,5.33615625 L3.10267188,6.284125 C5.52251563,3.87404687 9.4518125,3.87646875 11.8679062,6.29264062 C11.8732187,6.29795312 11.8775156,6.30404687 11.8829844,6.30928125 L12.8300937,5.3613125 C12.82525,5.35607812 12.8205625,5.350375 12.81525,5.34545312 C9.87228125,2.40185938 5.1018125,2.39982813 2.15517188,5.33615625"
        id="Fill-3" fill="#0099DA"></path>
    <path class="wifi-line wifi-line-4"
        d="M14.9527188,3.10978906 C10.8263906,-1.01700781 4.13451563,-1.01700781 0.007953125,3.10978906 C0.005296875,3.11260156 0.00303125,3.11502344 -1.5625e-05,3.11791406 L0.94771875,4.06541406 C0.950375,4.06260156 0.952640625,4.05971094 0.955453125,4.05689844 C4.55357813,0.458773437 10.4073281,0.458773437 14.005375,4.05689844 C14.0161563,4.06791406 14.0263906,4.07932031 14.0367031,4.08986719 L14.9838125,3.14275781 C14.9732656,3.13135156 14.9635,3.12033594 14.9527188,3.10978906"
        id="Fill-5" fill="#0099DA"></path>
</svg>