<svg width="440" height="330" xmlns="http://www.w3.org/2000/svg"><g transform="translate(53)" fill-rule="nonzero" fill="none"><path d="M43.72 118.709h64.861l-1.615-1.639-1.628-1.638a2.868 2.868 0 00-.921-.603 2.697 2.697 0 00-1.081-.217h-3.767a2.8 2.8 0 01-1.991-.83l-.58-.58-.581-.581a3.107 3.107 0 00-.922-.614 2.913 2.913 0 00-1.08-.217h-20.87c-.371.003-.738.076-1.082.217a3.107 3.107 0 00-.921.614l-1.138 1.138-1.138 1.138a2.742 2.742 0 01-.91.614 2.913 2.913 0 01-1.138.217H50.513a2.526 2.526 0 00-.649.08 2.81 2.81 0 00-.614.215l-2.766 1.389-2.765 1.297zM79.997 178.655h-13.36a2.117 2.117 0 00-1.48.614l-2.002 2.003-2.003 1.935a2.117 2.117 0 01-1.479.614h-6.827a2.162 2.162 0 00-1.48.603l-1.24 1.252-1.252 1.24a2.06 2.06 0 00-.444 2.276 2.037 2.037 0 001.923 1.286h37.734a2.082 2.082 0 001.423-3.584l-4.04-3.858-4.028-3.857a2.117 2.117 0 00-.672-.433 2.173 2.173 0 00-.773-.09zM290.172 177.79h31.26l-.797-.796-.785-.785a1.32 1.32 0 00-.444-.296 1.343 1.343 0 00-.524-.103h-1.798a1.366 1.366 0 01-.955-.398l-.285-.284-.273-.274a1.366 1.366 0 00-.967-.398h-10.06c-.362 0-.71.143-.967.398l-.523.524-.524.523c-.256.256-.604.4-.967.399h-8.125a.956.956 0 00-.307 0 1.297 1.297 0 00-.296.102l-1.331.671-1.332.717z" fill="#CED6DB"/><path d="M169.381 329.34c-90.534 0-164.192-73.658-164.192-164.192S78.847.956 169.381.956s164.18 73.658 164.18 164.192-73.646 164.192-164.18 164.192zm0-327.246C79.484 2.094 6.327 75.24 6.327 165.148S79.473 328.202 169.38 328.202s163.043-73.146 163.043-163.054S259.289 2.094 169.38 2.094z" fill="#66C2E9"/><path d="M263.807 166.058c-.061-48.357-36.74-88.806-84.86-93.584-48.121-4.778-92.038 27.67-101.606 75.071-9.568 47.401 18.323 94.344 64.528 108.607 46.206 14.263 95.704-8.792 114.518-53.339a94.165 94.165 0 007.42-36.755z" fill="#33ADE1"/><path d="M131.294 237.577c.038-.104.088-.203.148-.296.066-.092.138-.18.217-.261l7.692-7.693 7.681-7.68a.865.865 0 00.125-.16c.039-.054.073-.111.103-.17.022-.064.041-.129.057-.194a1.252 1.252 0 000-.205v-7.158c0-.226.042-.45.125-.66a1.9 1.9 0 01.375-.569c.162-.158.35-.285.558-.375.21-.081.434-.123.66-.125h4.017l.193-.057a.91.91 0 00.182-.091l.16-.137 3.026-3.027 3.039-3.038a.865.865 0 00.125-.16.58.58 0 00.102-.181.956.956 0 000-.194c.007-.064.007-.129 0-.193v-9.024a1.07 1.07 0 00-.08-.387 1.138 1.138 0 00-.227-.341.922.922 0 00-.33-.217.956.956 0 00-.398-.08h-9.707a1.843 1.843 0 01-1.035-.34 1.718 1.718 0 01-.262-.24l-8.148-9.205-8.136-9.206a.979.979 0 00-.353-.262l-.204-.068H103.324c-.136.002-.271.03-.398.08a1.138 1.138 0 00-.558.557c-.046.128-.07.263-.068.398v.285c-.005.064-.005.129 0 .193a.956.956 0 00.284.524l3.55 3.55 3.54 3.55c.085.076.157.165.216.262.068.09.122.19.16.296.045.106.08.217.102.33.011.11.011.22 0 .33v10.378c-.007.064-.007.129 0 .193a.956.956 0 000 .194.91.91 0 00.09.182c.039.056.08.109.126.16l3.004 2.992 2.993 2.993c.044.047.093.09.148.125a.91.91 0 00.182.09c.06.032.126.051.193.058.064.01.13.01.194 0h2.139a1.752 1.752 0 011.73 1.73v42.103a.376.376 0 010 .16.535.535 0 01-.114.113 108.64 108.64 0 005.03 2.8c1.699.887 3.436 1.718 5.211 2.491v-14.463a1.604 1.604 0 01.137-.66h.08zM170.428 159.88h1.684c.08.01.16.01.239 0a.751.751 0 00.228-.069.728.728 0 00.204-.114.74.74 0 00.183-.148l.694-.682.682-.683c.087-.09.182-.17.285-.24.106-.067.216-.127.33-.181.118-.046.24-.08.364-.103.121-.011.243-.011.364 0H181.421l.227-.068.205-.114.182-.148 3.8-3.8 3.801-3.801c.056-.055.106-.116.148-.182a.785.785 0 00.114-.216.751.751 0 00.068-.228.74.74 0 000-.227v-6.111a.853.853 0 000-.24.751.751 0 00-.068-.227.592.592 0 00-.114-.205.74.74 0 00-.148-.182l-.648-.66-.66-.648a1.218 1.218 0 00-.182-.16l-.205-.102a.865.865 0 00-.228-.068.853.853 0 00-.239 0h-12.642a2.56 2.56 0 00-.968.182c-.303.132-.58.317-.819.546a2.538 2.538 0 00-.74 1.787v6.975c.012.121.012.243 0 .364a1.912 1.912 0 01-.102.364c-.099.23-.242.44-.42.615l-1.139 1.138-1.138 1.138a1.138 1.138 0 00-.148.182c-.042.066-.08.134-.114.205l-.068.227c-.005.08-.005.16 0 .24v4.642c.002.16.033.318.091.466.063.144.152.275.262.387.113.115.248.204.398.262.173-.001.344-.04.5-.114zM75.342 159.06l7.966 7.966 7.965 7.965.148.114.16.08.17.056h7.488a.933.933 0 00.649-.261.91.91 0 00.273-.66v-7.203a1.661 1.661 0 01.478-1.161c.154-.145.331-.264.523-.353.2-.077.412-.116.626-.114h14.452l.159-.08.137-.113 1.9-1.912 1.912-1.9.113-.137c.031-.05.058-.104.08-.16a.853.853 0 00.057-.181.876.876 0 000-.17v-4.655a1.593 1.593 0 011.001-1.513c.199-.082.411-.125.626-.126h7.886l.16-.08.147-.113 3.858-4.142 3.926-3.926c.04-.047.078-.097.114-.148a.694.694 0 00.08-.16 1 1 0 000-.17.979.979 0 000-.182v-9.103a.922.922 0 000-.182.853.853 0 000-.183l-.08-.159-.114-.136-4.552-4.552-4.552-4.552-.136-.114-.16-.08H121.508a.922.922 0 00-.853.57.922.922 0 00-.068.352v7.488c-.001.215-.044.427-.126.626a1.639 1.639 0 01-1.502 1.001h-11.698a1.274 1.274 0 01-.295-.09 1.354 1.354 0 01-.285-.149 1.411 1.411 0 01-.25-.205l-1.946-1.945-2.071-2.094a1.969 1.969 0 01-.194-.24 1.4 1.4 0 01-.159-.284 3.14 3.14 0 01-.091-.307 1.445 1.445 0 010-.319v-4.142a1.445 1.445 0 010-.318 3.14 3.14 0 01.091-.307c.09-.199.212-.38.364-.535l4.552-4.552 4.552-4.552.113-.136c.031-.051.058-.104.08-.16.024-.055.043-.112.057-.17.005-.06.005-.122 0-.182v-8.944a1.001 1.001 0 00-.08-.365 1.206 1.206 0 00-.193-.295.91.91 0 00-.66-.274H98.249l-1.286.501-1.286.49a.228.228 0 01-.148 0c-.049.009-.099.009-.148 0a94.164 94.164 0 00-20.278 51.957.228.228 0 01.148 0c.037.02.068.047.091.08zM229.976 113.531l-.24.069h-5.939l-.091.068-.512.512-.512.512c-.24.235-.563.366-.9.364a1.32 1.32 0 01-.91-.364l-2.742-2.742-2.742-2.743-.08-.068H202.973s-.057 0-.091.068l-6.51 6.51-6.52 6.52-.068.09a.637.637 0 000 .092V127.096a.66.66 0 000 .216c.035.068.077.133.125.193a.706.706 0 00.194.125.66.66 0 00.216 0h1.309a.74.74 0 00.216 0 .706.706 0 00.193-.125c.048-.06.09-.125.125-.193a.66.66 0 000-.216v-1.138a1.138 1.138 0 01.103-.49 1.49 1.49 0 01.273-.42c.12-.119.264-.212.421-.274.153-.07.32-.105.49-.102h2.276l.25.08.216.113.193.16 1.4 1.4 1.4 1.399c.062.06.116.129.159.205a.82.82 0 01.125.216.945.945 0 01.068.239.933.933 0 010 .25v1.48a1.434 1.434 0 01-.09.489 1.4 1.4 0 01-.695.694c-.157.059-.322.09-.49.09h-1.672c-.167 0-.333-.03-.49-.09a1.309 1.309 0 01-.693-.694 1.218 1.218 0 01-.103-.49.512.512 0 000-.227.603.603 0 00-.307-.307.512.512 0 00-.228 0h-2.515a.182.182 0 00-.102 0h-.102l-.091.08-2.049 2.241-2.002 2.003-.08.09a.899.899 0 000 .103.182.182 0 000 .103.387.387 0 000 .113v2.276a.387.387 0 000 .114.182.182 0 000 .102.444.444 0 000 .103c.02.035.047.066.08.09l2.116 2.117 2.128 2.128.08.069h7.009c.081.017.161.04.24.068l.227.125c.07.046.135.1.193.16l.99.99.99 1a.66.66 0 01.16.194c.048.068.09.14.125.216a.944.944 0 01.068.24.933.933 0 010 .25v13.063a.74.74 0 000 .216c.03.071.073.137.125.194l.194.125a.66.66 0 00.216 0h5.769l.091-.068 1.491-1.502 1.502-1.491.193-.16a.785.785 0 01.217-.113l.239-.08h3.231l.103-.057a.273.273 0 00.09-.068l1.139-1.138 1.138-1.138.193-.16a.853.853 0 01.228-.113l.239-.08h5.485l.25.069.216.125.194.16 1.593 1.581 1.581 1.593c.06.06.113.124.16.194l.125.216c.028.078.05.158.068.239.005.083.005.167 0 .25v2.412a1.434 1.434 0 01-.09.49 1.4 1.4 0 01-.695.694c-.157.059-.322.09-.49.09H212.02a.66.66 0 00-.216 0 .546.546 0 00-.319.32.66.66 0 000 .216V162.246a.467.467 0 000 .103l.069.08 7.772 7.771 7.772 7.772.08.069.102.057H228.838l.091-.057.091-.069 5.564-5.564 5.565-5.565.193-.159.217-.114c.157-.057.322-.091.489-.102h7.84c.172 0 .343.035.501.102.152.066.29.158.41.273.12.119.214.263.273.421.07.154.105.321.102.49v4.552a.387.387 0 000 .113v.103a.296.296 0 00.057.102.182.182 0 00.068.091l2.003 2.003 2.003 2.003.09.08h.103c.034.01.07.01.103 0h1.308c.169-.003.336.032.49.102.157.062.3.155.42.273.122.118.215.262.274.42.07.154.105.322.102.49v11.243a.512.512 0 000 .228.41.41 0 00.125.182c.05.055.113.098.182.125a.512.512 0 00.228 0h2.856c.081 0 .16.033.216.09a.455.455 0 01.114.206 94.564 94.564 0 003.118-24.147 94.335 94.335 0 00-23.771-62.689l-4.95 4.95-4.95 4.939-.194.16c-.06.058-.124.111-.193.158zM162.929 101.162h-9.251a1.855 1.855 0 01-.353 0l-.342-.102-.307-.16a1.81 1.81 0 01-.273-.227l-2.037-2.037-2.037-2.037a.899.899 0 00-.17-.137.637.637 0 00-.194-.102.728.728 0 00-.205-.068h-7.464a1.764 1.764 0 01-.353 0l-.342-.103a1.946 1.946 0 01-.307-.159c-.1-.07-.195-.146-.284-.228l-.319-.33-.319-.318-.182-.148-.204-.103h-2.015l-.182.057-.182.103-.16.125-3.413 3.414-3.414 3.414-.136.17-.103.194a1.377 1.377 0 000 .204 1.4 1.4 0 000 .217v5.393a1.263 1.263 0 000 .217 1.377 1.377 0 000 .205l.103.193.136.17 1.32 1.32 1.32 1.31.228.272c.06.103.113.21.16.319.047.11.081.224.102.341.01.114.01.228 0 .342v7.032a1.559 1.559 0 000 .216c.012.072.035.14.068.205.025.07.06.134.102.194.036.06.082.114.137.159l4.859 4.859 4.859 4.87c.047.019.1.019.148 0 .033.012.07.012.102 0h.08a.228.228 0 000-.159v-4.483a1.855 1.855 0 010-.353 1.627 1.627 0 01.273-.649c.063-.1.14-.193.228-.273l2.867-2.868 2.868-2.867a1.32 1.32 0 01.273-.228 1.627 1.627 0 01.648-.273c.118-.012.236-.012.353 0h4.267a.706.706 0 00.217 0h.204l.194-.102.17-.137 4.473-4.483 4.483-4.484a.603.603 0 00.137-.159.797.797 0 00.102-.193.728.728 0 00.068-.205 1.559 1.559 0 000-.216v-5.906a1.138 1.138 0 00-.683-1.013 1.138 1.138 0 00-.318-.205zM179.668 133.843h3.835l.102-.056.08-.069.99-.978.978-.99a.273.273 0 00.069-.091.25.25 0 000-.091v-.114a.353.353 0 000-.114v-3.892a.467.467 0 000-.216.512.512 0 00-.125-.193.649.649 0 00-.183-.126.808.808 0 00-.227 0h-2.811l-.102.057-.08.069-1.502 1.502-1.49 1.49a.273.273 0 00-.069.091.25.25 0 00-.057.091v.114a.353.353 0 000 .114v2.868a.467.467 0 000 .216c.027.073.07.14.125.193a.649.649 0 00.182.125.74.74 0 00.285 0zM230.727 182.888h-4.028a1.889 1.889 0 01-.365 0 1.935 1.935 0 01-.364-.114 1.81 1.81 0 01-.33-.17 1.866 1.866 0 01-.284-.24l-9.445-9.444-9.445-9.445-.182-.148-.216-.114a.751.751 0 00-.228-.068h-.239l-18.354.182-18.344.182h-.216a.694.694 0 00-.205.057l-.193.091-.171.125-1.559 1.343-1.559 1.309a.91.91 0 00-.17.193c-.054.067-.1.14-.137.216a2.128 2.128 0 00-.08.25.979.979 0 000 .263v10.56c-.004.156.027.312.091.455.058.15.147.285.262.398.112.11.243.199.387.262.148.06.306.09.466.09h.41a1.798 1.798 0 011.354.558c.177.175.317.384.41.615.1.23.15.478.148.728v4.313a1.4 1.4 0 000 .227c.01.08.033.156.068.228.031.075.07.148.114.216.046.064.095.124.148.182l3.63 3.63 3.641 3.63c.055.06.116.113.182.16.066.038.134.072.205.102a.865.865 0 00.228.068c.079.011.16.011.239 0h18.525a1.934 1.934 0 011.354.57c.18.172.32.382.41.614.095.231.145.478.148.728v23.362c-.006.08-.006.16 0 .239a1.138 1.138 0 00.182.432c.043.066.092.127.148.182l4.142 4.154 4.153 4.142.182.148a.876.876 0 00.205.113.751.751 0 00.228.069H213.328c.156-.002.31-.033.455-.091a1.229 1.229 0 00.649-.649c.063-.147.094-.306.09-.467v-6.827a2.117 2.117 0 010-.376 2.06 2.06 0 01.103-.352c.054-.114.115-.224.182-.33.067-.105.148-.2.24-.285l3.675-3.687 3.687-3.675c.052-.058.102-.119.148-.182.044-.069.082-.141.113-.217l.069-.227a1.4 1.4 0 000-.228v-16.716c-.001-.25.045-.496.136-.728a2.026 2.026 0 011.036-1.036c.232-.09.479-.137.728-.136h2.048l.216-.069.217-.113.182-.148 2.15-2.151 2.14-2.15a.74.74 0 00.148-.183.728.728 0 00.113-.205.865.865 0 00.069-.227.853.853 0 000-.24v-2.719c.003-.16-.028-.319-.091-.466a1.229 1.229 0 00-.649-.649 1.309 1.309 0 00-.455-.114z" fill="#023852"/><path d="M164.033 108.172c.005.072.005.144 0 .216a.728.728 0 01-.069.205.797.797 0 01-.102.193.603.603 0 01-.136.16l-4.484 4.483-4.483 4.483-.171.137-.194.102h-.204a.706.706 0 01-.217 0h-4.267a1.764 1.764 0 00-.353 0 1.627 1.627 0 00-.649.273c-.1.064-.192.14-.272.228l-2.868 2.868-2.867 2.867a1.32 1.32 0 00-.228.273 1.627 1.627 0 00-.273.649 1.855 1.855 0 000 .353v4.483c.02.052.02.108 0 .16h-.08a.148.148 0 01-.102 0 .205.205 0 01-.148 0l-4.86-4.87L132 120.7a.603.603 0 01-.137-.159.797.797 0 01-.102-.193.728.728 0 01-.068-.205 1.559 1.559 0 010-.216v-7.033a1.741 1.741 0 000-.341 1.502 1.502 0 00-.103-.342c-.046-.11-.1-.216-.159-.318l-.228-.273-1.32-1.309-1.297-1.32-.136-.17-.103-.194a1.377 1.377 0 010-.205 1.263 1.263 0 010-.216v-5.394a1.4 1.4 0 010-.216 1.377 1.377 0 010-.205l.103-.193.136-.171L132 98.613l3.414-3.414.16-.125.181-.102.182-.057H137.951l.205.102.182.148.319.319.319.33c.09.082.184.158.284.227.097.063.2.116.307.16l.342.102c.117.012.235.012.352 0h7.465c.071.013.14.036.205.068.07.023.135.058.193.103.063.038.12.084.171.136l2.037 2.037 2.037 2.037c.083.085.175.161.273.228l.307.159.342.102c.117.012.235.012.352 0h9.252a1.138 1.138 0 011.104 1.104v5.906l.034-.011zM231.933 186.803c.011.079.011.16 0 .239a.865.865 0 01-.068.227.728.728 0 01-.114.205.74.74 0 01-.148.182l-2.14 2.15-2.15 2.152-.182.148-.216.113-.216.069h-1.946a1.969 1.969 0 00-.729.136 2.026 2.026 0 00-1.035 1.036c-.091.232-.138.479-.137.728v16.773a1.4 1.4 0 010 .228l-.068.227c-.03.076-.069.148-.114.216a2.083 2.083 0 01-.148.182l-3.686 3.676-3.767 3.721c-.092.084-.172.18-.239.285a3.06 3.06 0 00-.182.33 2.06 2.06 0 00-.102.352c-.012.125-.012.25 0 .376v6.827c.002.16-.029.32-.092.467a1.229 1.229 0 01-.648.649c-.145.058-.3.089-.455.09H206.296a.751.751 0 01-.228-.068.876.876 0 01-.205-.113l-.182-.148-4.153-4.142-4.142-4.154a1.138 1.138 0 01-.148-.182 1.138 1.138 0 01-.182-.432 1.696 1.696 0 010-.24v-23.384a1.98 1.98 0 00-.148-.728 1.718 1.718 0 00-.41-.615 1.934 1.934 0 00-1.354-.569h-18.548a.853.853 0 01-.24 0 .865.865 0 01-.227-.068 1.718 1.718 0 01-.205-.102 1.218 1.218 0 01-.182-.16l-3.641-3.63-3.63-3.63a2.082 2.082 0 01-.148-.182 1.297 1.297 0 01-.114-.216.751.751 0 01-.068-.227 1.4 1.4 0 010-.228v-4.313a1.775 1.775 0 00-.148-.728 1.82 1.82 0 00-.41-.615 1.798 1.798 0 00-1.354-.557h-.41c-.16 0-.318-.032-.466-.091a1.286 1.286 0 01-.387-.262 1.138 1.138 0 01-.262-.398 1.047 1.047 0 01-.09-.455v-10.56a.979.979 0 010-.262c.02-.085.047-.169.079-.25.037-.077.083-.15.136-.217a.91.91 0 01.171-.193l1.559-1.343 1.559-1.343.17-.125.194-.09a.694.694 0 01.205-.058h.216l18.344-.182 18.354-.182h.24c.078.01.155.034.227.068l.216.114.182.148 9.445 9.445 9.445 9.445c.087.089.182.169.284.239.104.068.215.125.33.17.118.05.24.088.364.114.122.012.244.012.365 0h4.028c.16.002.318.033.466.091a1.229 1.229 0 01.649.649c.063.147.094.306.091.466v2.72-.011zM260.848 190.501a.41.41 0 00.08-.114.239.239 0 000-.136.842.842 0 000 .159.74.74 0 00-.08.091zM169.222 154.03a1.696 1.696 0 010-.239l.068-.227c.034-.07.072-.14.114-.205.043-.066.092-.127.148-.182l1.138-1.138 1.138-1.138c.179-.175.322-.384.42-.614.047-.118.081-.24.103-.365a1.889 1.889 0 000-.364v-6.975c.001-.67.267-1.312.74-1.787.238-.229.516-.414.819-.546a2.56 2.56 0 01.967-.182h12.643a.853.853 0 01.239 0 .865.865 0 01.227.068l.205.103c.066.047.127.1.182.159l.66.649.649.66a.74.74 0 01.148.182c.05.06.09.13.113.204a.751.751 0 01.069.228c.01.08.01.16 0 .239v6.11a.74.74 0 010 .228.751.751 0 01-.069.228.785.785 0 01-.113.216 1.036 1.036 0 01-.148.182l-3.801 3.8-3.812 3.927-.182.148-.205.113-.228.069H175.72a1.889 1.889 0 00-.364 0 1.912 1.912 0 00-.364.102 3.061 3.061 0 00-.33.182c-.103.07-.198.15-.284.24l-.683.682-.694.683a.74.74 0 01-.182.148.728.728 0 01-.205.113.751.751 0 01-.228.069.853.853 0 01-.239 0h-1.684c-.156 0-.31-.032-.455-.091a1.138 1.138 0 01-.398-.262 1.286 1.286 0 01-.262-.387 1.309 1.309 0 01-.091-.467v-4.642l-.034.08zM179.088 130.396a.353.353 0 010-.114v-.114a.25.25 0 01.056-.091.273.273 0 01.069-.091l1.49-1.49 1.503-1.503.08-.068.102-.057h2.81a.808.808 0 01.228 0 .649.649 0 01.182.125c.056.054.099.12.125.194a.467.467 0 010 .216v3.891a.353.353 0 010 .114v.114a.25.25 0 010 .091.273.273 0 01-.068.091l-.979.99-.99.979-.08.068-.102.057h-3.834a.74.74 0 01-.228 0 .649.649 0 01-.182-.125.512.512 0 01-.126-.194.467.467 0 010-.216v-2.867h-.056z" fill="#023852"/><path d="M256.421 129.212c17.587 41.62 3.232 89.867-34.246 115.104-37.479 25.236-87.582 20.394-119.534-11.552a90.152 90.152 0 01-4.494-4.825c-1.446-1.661-2.834-3.414-4.154-5.132a94.505 94.505 0 0083.65 5.064 94.357 94.357 0 0038.69-143.823 94.346 94.346 0 0140.111 45.187l-.023-.023z" fill="#C4E8F6" style="mix-blend-mode:multiply"/><path d="M239.387 242.926h-6.828c-.14-.003-.28.024-.41.08a.944.944 0 00-.341.227l-1.024 1.024-1.024 1.024a.899.899 0 01-.353.228.967.967 0 01-.398.09h-3.494a.979.979 0 00-.41.08.853.853 0 00-.34.228l-.638.637-.637.637a1.047 1.047 0 00-.24 1.138c.167.4.557.661.99.66h19.277a1.07 1.07 0 00.74-1.832l-2.071-1.968-2.083-1.958a1.138 1.138 0 00-.34-.227 1.138 1.138 0 00-.376-.068z" fill="#CED6DB"/><path d="M239.99 129.451h34.251a1.889 1.889 0 001.332-3.232l-.637-.637-.638-.637a1.718 1.718 0 00-.614-.41 1.923 1.923 0 00-.717-.148h-2.276a1.866 1.866 0 01-.717-.136 2.071 2.071 0 01-.614-.41l-1.491-1.49-1.49-1.491a1.82 1.82 0 00-.615-.41 1.98 1.98 0 00-.728-.148h-8.785a1.98 1.98 0 00-.729.148 1.82 1.82 0 00-.614.41l-3.004 3.004-3.016 3.015c-.172.18-.382.32-.614.41-.227.095-.47.145-.717.148h-5.178a1.82 1.82 0 00-.853.205c-.27.127-.501.324-.672.569l-.455.614-.41.626z" fill="#FDF8FA" opacity=".5"/><path d="M91.137 123.17a1.752 1.752 0 10-2.993 1.24 1.81 1.81 0 001.24.512c.465-.003.91-.187 1.24-.512.33-.33.514-.775.513-1.24zM97.714 161.268a1.741 1.741 0 00-.512-1.24 1.764 1.764 0 00-2.48 0c-.33.328-.515.774-.513 1.24 0 .465.184.91.512 1.24.688.68 1.794.68 2.481 0 .329-.33.513-.775.512-1.24zM177.881 144.37a1.752 1.752 0 10-3.504 0 1.752 1.752 0 003.504 0zM203.087 138.02a1.752 1.752 0 10-3.505.004 1.752 1.752 0 003.505-.004zM133.013 193.243a1.741 1.741 0 00-.512-1.24 1.764 1.764 0 00-2.481 0c-.33.329-.514.775-.512 1.24-.003.463.182.906.512 1.23.687.68 1.793.68 2.48 0 .33-.324.515-.767.513-1.23zM146.167 106.271a1.81 1.81 0 00-.512-1.24 1.752 1.752 0 00-1.24-.512 1.741 1.741 0 00-1.24.512 1.764 1.764 0 000 2.48c.328.33.775.515 1.24.513.465 0 .911-.184 1.24-.512a1.81 1.81 0 00.512-1.24zM195.724 134.731c0-.465-.183-.911-.512-1.24a1.752 1.752 0 10.512 1.24zM129.918 138.93a1.787 1.787 0 00-.512-1.24 1.752 1.752 0 10.512 1.24zM199.991 121.577a1.752 1.752 0 00-2.992-1.23c-.33.324-.515.767-.512 1.23a1.752 1.752 0 003.504 0z" fill="#FFE700"/><g transform="translate(302.69 246.931)"><circle fill="#FFE700" cx="6.145" cy="5.485" r="5.428"/><g fill="#0099DA"><path d="M5.838 2.845h1v5.269h-1z"/><path d="M8.785 5.178v.625H3.516v-.625z"/></g></g><g transform="translate(308.38 224.172)"><circle fill="#023852" cx="9.843" cy="9.98" r="9.763"/><path d="M11.846 11.163a2.879 2.879 0 10-2.413 1.297 2.788 2.788 0 001.582-.478l1.275 1.275.83-.82-1.274-1.274zm-.558-1.582a1.855 1.855 0 11-3.71.023 1.855 1.855 0 013.71-.023z" fill="#F3F5F6"/></g><circle fill="#023852" cx="5.758" cy="166.286" r="5.223"/><circle fill="#023852" cx="56.919" cy="46.268" r="4.722"/><g transform="translate(85.345 1.138)"><circle fill="#023852" cx="14.281" cy="14.839" r="13.883"/><g fill="#F3F5F6"><path d="M7.989 8.694h2.4v12.278h-2.4zM18.173 10.014h2.39v10.97h-2.39zM11.38 11.698h2.39v9.286h-2.39zM14.782 14.69h2.4v6.294h-2.4z"/></g></g><circle fill="#FFE700" cx="71.883" cy="297.91" r="10.412"/><path d="M74.762 299.947l.068.091a.5.5 0 010 .114.49.49 0 010 .125l-.876 2.276a.114.114 0 010 .057h-.125l-2.47-.956a.148.148 0 010-.068.102.102 0 010-.057v-.057l.092-.228h.113l.171-.102a.785.785 0 00.148-.125.922.922 0 00.137-.16c.037-.06.067-.125.09-.193a.91.91 0 00.069-.42.842.842 0 00-.102-.41 1.07 1.07 0 00-.626-.547 1.138 1.138 0 00-.376-.057 1.32 1.32 0 00-.364.091.91.91 0 00-.307.205c-.092.09-.169.193-.228.307a.728.728 0 00-.068.205.979.979 0 000 .194 1.24 1.24 0 000 .205c-.006.064-.006.129 0 .193v.114a.08.08 0 000 .057l-.102.239a.25.25 0 01-.057.09l-.091.069h-.103a.182.182 0 01-.114 0l-2.355-.922a.148.148 0 010-.068l.876-2.276.068-.102.091-.057H68.663l.068.057a.762.762 0 01.16.307c.019.07.041.138.068.205.023.056.054.11.09.16a.592.592 0 00.126.113.785.785 0 00.193.114c.134.057.276.087.421.09.14-.003.279-.03.41-.079.127-.058.243-.139.341-.239a.944.944 0 00.228-.353v-.08a.888.888 0 00.068-.42.967.967 0 00-.341-.729.91.91 0 00-.364-.216.876.876 0 00-.217-.057h-.182l-.17.057-.182.103a.967.967 0 01-.194.09.307.307 0 01-.136 0h-.194a.228.228 0 01-.102-.068.273.273 0 01-.068-.09.41.41 0 010-.115.25.25 0 010-.125l.705-1.832a.33.33 0 01.102-.102h.137l2.003.774.136.057.24.08c.082.01.167.01.25 0a.205.205 0 00.159-.103.228.228 0 000-.114v-.125a.74.74 0 010-.205 1.764 1.764 0 010-.319v-.125-.136-.126a.41.41 0 010-.125c.052-.14.134-.268.239-.375.1-.108.225-.19.364-.24a.944.944 0 01.432-.079c.15.002.296.033.433.091a1.138 1.138 0 01.637.9c.022.123.022.25 0 .375v.261l-.08.103a.353.353 0 01-.08.102 2.344 2.344 0 01-.284.25l-.182.126-.125.068a.17.17 0 00-.068.102.182.182 0 000 .182.535.535 0 00.193.16l.228.114h.136l2.003.785h.068a.102.102 0 010 .057.16.16 0 010 .068v.08l-.182.455-.182.455-.17.455-.182.467a.273.273 0 01-.069.102l-.09.057a.216.216 0 01-.115 0H75.047a.762.762 0 01-.16-.307l-.068-.205a.444.444 0 00-.091-.16.41.41 0 00-.125-.113.785.785 0 00-.194-.114 1.138 1.138 0 00-.42-.091c-.137.002-.272.03-.399.08a.922.922 0 00-.341.239.967.967 0 00-.24.352v.091a.91.91 0 00-.068.421.967.967 0 00.091.399c.058.127.14.243.24.341.11.094.238.167.375.216a.82.82 0 00.216 0h.182l.16-.057.193-.102.182-.091H74.921l-.159-.17zM249.423 33.478h37.028l.296.091c.091.042.179.092.262.148.084.055.16.12.228.193.07.07.135.147.193.228.057.08.103.169.137.262a.899.899 0 01.09.296c.012.102.012.205 0 .307v25.182c.012.106.012.213 0 .319a.99.99 0 01-.09.296c-.037.091-.083.179-.137.261-.058.081-.123.157-.193.228l-.228.193a1.9 1.9 0 01-.262.137 1.274 1.274 0 01-.296.091 1.411 1.411 0 01-.307 0h-6.543v6.828l-.853-.854-.854-.853-.853-.842-.842-.854-.82-.842-.853-.853-.854-.842-.853-.854h-23.396a1.513 1.513 0 01-.319 0 1.377 1.377 0 01-.284-.09 1.9 1.9 0 01-.262-.137 1.969 1.969 0 01-.239-.194 1.775 1.775 0 01-.182-.227l-.148-.262a2.936 2.936 0 01-.09-.296 1.445 1.445 0 010-.319V35.026a1.4 1.4 0 010-.308c.023-.1.053-.2.09-.296a1.946 1.946 0 01.33-.489c.072-.074.152-.139.24-.193.083-.056.17-.106.261-.148l.284-.091.32-.023z" fill="#023852"/><path d="M255.534 45.449h-56.988a2.526 2.526 0 00-.546.068c-.32.071-.624.198-.899.376-.13.093-.25.195-.364.307-.115.115-.218.24-.307.376a2.526 2.526 0 00-.24.42 2.936 2.936 0 00-.147.478 2.412 2.412 0 000 .501V88.68a2.412 2.412 0 000 .5c.037.16.086.316.148.467a2.64 2.64 0 00.546.808c.113.112.235.215.364.307.138.087.283.163.432.228.15.066.307.116.467.148.17.017.342.017.512 0h10.583v11.015l1.422-1.331 1.377-1.377 1.377-1.377 1.377-1.377 1.377-1.377 1.32-1.377 1.377-1.377 1.377-1.377h35.39c.166.018.334.018.5 0 .164-.031.325-.08.478-.148.146-.064.287-.14.42-.227a2.435 2.435 0 00.911-1.115c.066-.15.116-.306.148-.467a2.412 2.412 0 000-.5V47.963a2.412 2.412 0 000-.5 2.128 2.128 0 00-.148-.479 2.48 2.48 0 00-.227-.42 2.435 2.435 0 00-.683-.684 2.162 2.162 0 00-.421-.227 2.276 2.276 0 00-.433-.137 2.412 2.412 0 00-.5-.068z" fill="#FFE700"/><path d="M132.649 262.066H108.49a.626.626 0 00-.204 0l-.194.056-.17.091a.785.785 0 00-.149.126l-.125.148-.102.182c-.005.06-.005.121 0 .182a1.263 1.263 0 000 .216v16.545a1.024 1.024 0 000 .205.956.956 0 000 .194l.102.182.125.148c.044.047.094.09.148.125l.171.09.194.058H112.803v4.483l.558-.569.557-.557.558-.558.557-.557.57-.558.557-.569.558-.558.557-.557H132.853l.194-.057.17-.091.16-.125.125-.148a.91.91 0 00.091-.182.956.956 0 000-.194 1.024 1.024 0 000-.205V263.09a1.263 1.263 0 000-.217c.005-.06.005-.121 0-.182a.91.91 0 00-.09-.182l-.126-.148-.16-.125-.17-.09-.194-.058a.626.626 0 00-.204-.022z" fill="#023852"/><path d="M72.202 265.98h49.033c.148.012.296.012.444 0l.398-.125a2.276 2.276 0 00.694-.467 2.276 2.276 0 00.467-.683c0-.136.091-.273.125-.41a2.663 2.663 0 000-.432v-35.082a2.663 2.663 0 000-.432 3.493 3.493 0 00-.125-.41 2.446 2.446 0 00-.785-.956 2.902 2.902 0 00-.376-.193c-.127-.06-.26-.101-.398-.126a1.9 1.9 0 00-.444 0h-9.103v-9.478l-1.138 1.137-1.138 1.138-1.138 1.138-1.138 1.138-1.138 1.138-1.138 1.138-1.138 1.138-1.138 1.138H72.202a1.798 1.798 0 00-.433 0c-.141.023-.28.065-.41.125l-.363.194a2.731 2.731 0 00-.592.591c-.071.118-.136.24-.194.364-.06.13-.102.268-.125.41a1.798 1.798 0 000 .433v35.036a1.798 1.798 0 000 .433c.026.14.068.278.125.41.058.124.123.246.194.364.081.114.173.22.273.318.096.1.203.187.319.262.114.08.236.148.364.205l.41.125c.127.156.272.298.432.421z" fill="#FFE700"/><g fill="#0099DA"><path d="M216.844 69.243a2.47 2.47 0 004.21 1.741 2.47 2.47 0 00-1.74-4.21 2.47 2.47 0 00-2.47 2.47zM224.73 69.243a2.47 2.47 0 004.21 1.741 2.47 2.47 0 00-1.74-4.21 2.47 2.47 0 00-2.47 2.47zM232.616 69.243a2.47 2.47 0 004.21 1.741 2.492 2.492 0 000-3.493 2.47 2.47 0 00-4.21 1.752z"/></g><g fill="#0099DA"><path d="M88.497 245.941c0 .504.201.987.557 1.343a1.912 1.912 0 002.697-2.697 1.912 1.912 0 00-3.254 1.354zM94.608 245.941a1.912 1.912 0 003.254 1.343 1.912 1.912 0 00-2.697-2.697 1.866 1.866 0 00-.557 1.354zM100.707 245.941a1.912 1.912 0 103.266-1.354 1.923 1.923 0 00-2.709 0c-.358.36-.558.847-.557 1.354z"/></g></g></svg>